<svg width="32" height="33" viewBox="0 0 32 33" fill="none" xmlns="http://www.w3.org/2000/svg">
<path fill-rule="evenodd" clip-rule="evenodd" d="M8.99805 16.4978C8.99805 17.0501 8.55033 17.4978 7.99805 17.4978C7.44576 17.4978 6.99805 17.0501 6.99805 16.4978V8.4978C6.99805 8.22987 7.10342 7.98656 7.27498 7.80703C7.28549 7.79602 7.29626 7.78525 7.30727 7.77473C7.39825 7.68774 7.5016 7.62125 7.61151 7.57525C7.73042 7.52536 7.86102 7.4978 7.99805 7.4978H15.998C16.5503 7.4978 16.998 7.94552 16.998 8.4978C16.998 9.05009 16.5503 9.4978 15.998 9.4978H10.4123L24.7095 23.7951C25.1001 24.1856 25.1001 24.8188 24.7095 25.2093C24.319 25.5998 23.6859 25.5998 23.2953 25.2093L8.99805 10.912V16.4978Z" fill="#111827"/>
</svg>
