<svg width="32" height="33" viewBox="0 0 32 33" fill="none" xmlns="http://www.w3.org/2000/svg">
<path fill-rule="evenodd" clip-rule="evenodd" d="M10.9993 12.5209C10.9935 12.2577 11.091 11.9925 11.2919 11.7916C11.4134 11.6701 11.5585 11.5864 11.7124 11.5405C11.8033 11.5133 11.8996 11.4987 11.9993 11.4987H17.9993C18.5516 11.4987 18.9993 11.9465 18.9993 12.4987C18.9993 13.051 18.5516 13.4987 17.9993 13.4987H14.4132L20.7087 19.7942C21.0992 20.1847 21.0992 20.8179 20.7087 21.2084C20.3181 21.5989 19.685 21.5989 19.2945 21.2084L12.9993 14.9132V18.4987C12.9993 19.051 12.5516 19.4987 11.9993 19.4987C11.447 19.4987 10.9993 19.051 10.9993 18.4987V12.5209Z" fill="#111827"/>
</svg>
