<svg width="33" height="32" viewBox="0 0 33 32" fill="none" xmlns="http://www.w3.org/2000/svg">
<path fill-rule="evenodd" clip-rule="evenodd" d="M12.4987 18.9986C12.4987 19.5509 12.051 19.9986 11.4987 19.9986C10.9465 19.9986 10.4987 19.5509 10.4987 18.9986V11.0189C10.4934 10.7562 10.591 10.4919 10.7914 10.2915C10.9065 10.1764 11.0426 10.0953 11.1873 10.048C11.2853 10.0159 11.39 9.99857 11.4987 9.99857H19.4987C20.051 9.99857 20.4987 10.4463 20.4987 10.9986C20.4987 11.5509 20.051 11.9986 19.4987 11.9986H13.9127L22.2085 20.2944C22.5991 20.6849 22.5991 21.318 22.2085 21.7086C21.818 22.0991 21.1848 22.0991 20.7943 21.7086L12.4987 13.413V18.9986Z" fill="#111827"/>
</svg>
