<svg width="33" height="33" fill="none" xmlns="http://www.w3.org/2000/svg"><path d="M6.21 13.783h3M6.21 8.783h3M6.21 18.783h3M6.21 23.783h3" stroke="#1C1B1F" stroke-width="2" stroke-linecap="round" stroke-linejoin="round"/><path fill-rule="evenodd" clip-rule="evenodd" d="M27.71 5.283a1 1 0 0 0-1-1h-18a1 1 0 0 0-1 1v22a1 1 0 0 0 1 1h18a1 1 0 0 0 1-1v-22Zm-10 6a3 3 0 0 0 0 6 3 3 0 1 0 0-6Zm5 3c0 1.292-.49 2.47-1.295 3.357a.347.347 0 0 0 .096.54 8.5 8.5 0 0 1 2.999 2.502 1 1 0 0 1-1.6 1.2 6.501 6.501 0 0 0-5.2-2.6 6.501 6.501 0 0 0-5.2 2.6 1 1 0 0 1-1.6-1.2 8.503 8.503 0 0 1 2.998-2.502c.201-.1.247-.374.097-.54a5 5 0 1 1 8.706-3.357Z" fill="#1C1B1F"/></svg>