<svg xmlns="http://www.w3.org/2000/svg" width="32" height="32" fill="none" viewBox="0 0 32 32"><path fill="#111827" fill-rule="evenodd" d="M29.334 0a1 1 0 0 1 1 1v30a1 1 0 0 1-1 1H4.667a1 1 0 0 1-1-1v-4h-2a1 1 0 1 1 0-2h2v-4.667h-2a1 1 0 1 1 0-2h2v-4.666h-2a1 1 0 1 1 0-2h2V7h-2a1 1 0 0 1 0-2h2V1a1 1 0 0 1 1-1h24.667ZM12.667 13.333a4.333 4.333 0 1 1 8.667 0 4.333 4.333 0 0 1-8.667 0ZM17 7a6.333 6.333 0 0 0-4.706 10.572c.34.377.24 1.029-.214 1.256a11.001 11.001 0 0 0-3.88 3.238 1 1 0 1 0 1.6 1.2 9 9 0 0 1 14.4 0 1 1 0 0 0 1.6-1.2 11.002 11.002 0 0 0-3.88-3.238c-.455-.227-.554-.879-.214-1.256A6.333 6.333 0 0 0 17 7Z" clip-rule="evenodd"/></svg>