<svg xmlns="http://www.w3.org/2000/svg" width="32" height="33" fill="none" viewBox="0 0 32 33"><path fill="#111827" fill-rule="evenodd" d="M2.41 16.5c0-7.619 6.176-13.795 13.795-13.795 3.656 0 6.98 1.422 9.449 3.743a2.864 2.864 0 0 0 3.08 4.27A13.744 13.744 0 0 1 30 16.499c0 3.938-1.65 7.49-4.296 10.004h-8.467a1.02 1.02 0 0 0 .006-.107v-4.753a5.307 5.307 0 1 0 4.25-9.403 5.308 5.308 0 0 0-10.581.016 5.309 5.309 0 0 0 1.072 10.506c1.228 0 2.359-.417 3.258-1.118v-1.953l-3.841-1.92a1 1 0 1 1 .894-1.79l2.947 1.474v-4.239a1 1 0 1 1 2 0v2.042l2.947-1.473a1 1 0 0 1 .895 1.789l-3.842 1.92v3.97h-2v4.932c0 .036.003.072.006.107H6.707a13.864 13.864 0 0 1-1.941-2.292 2.864 2.864 0 0 0-2.088-4.998A13.862 13.862 0 0 1 2.41 16.5ZM.815 20.07A15.844 15.844 0 0 1 .41 16.5C.41 7.776 7.482.705 16.205.705c4.292 0 8.184 1.711 11.03 4.489a2.864 2.864 0 0 1 3.187 4.416 15.733 15.733 0 0 1 1.579 6.89c0 8.724-7.072 15.795-15.796 15.795-5.622 0-10.558-2.937-13.357-7.36A2.864 2.864 0 0 1 .815 20.07Zm26.43-12.148a.864.864 0 1 1 1.728 0 .864.864 0 0 1-1.727 0ZM2.864 21.208a.864.864 0 1 0 0 1.727.864.864 0 0 0 0-1.727Z" clip-rule="evenodd"/></svg>