<svg xmlns="http://www.w3.org/2000/svg" width="32" height="32" fill="none" viewBox="0 0 32 32"><path fill="#111827" fill-rule="evenodd" d="M3.93 13.094a5 5 0 0 1-2.284-6.692L4.429.733a.5.5 0 0 1 .669-.228L8.67 2.259a.5.5 0 0 1 .273.368l.607 3.67a.5.5 0 0 0 .273.367l3.5 1.718a.5.5 0 0 0 .716-.39l.69-5.787a.5.5 0 0 1 .716-.39l3.307 1.624a.5.5 0 0 1 .262.317L21.3 12.11a.5.5 0 0 0 .262.317l8.76 4.3a3 3 0 0 1 1.37 4.015l-2.145 4.37a.5.5 0 0 1-.67.23L3.93 13.093ZM1 29.547a1 1 0 1 0 0 2h27.453a1 1 0 1 0 0-2H1Z" clip-rule="evenodd"/></svg>