<svg width="33" height="33" fill="none" xmlns="http://www.w3.org/2000/svg"><path d="M14.234 7.065v5.23a.04.04 0 0 1-.022.036l-8.977 4.516a.5.5 0 0 0-.275.447v2.851a.5.5 0 0 0 .595.49l8.084-1.567a.5.5 0 0 1 .595.491v2.643a.5.5 0 0 1-.146.354l-1.675 1.674a.5.5 0 0 0-.146.354v2.83a.5.5 0 0 0 .726.445l3.711-1.878a.5.5 0 0 1 .455.002l3.625 1.868a.5.5 0 0 0 .729-.444v-2.823a.5.5 0 0 0-.147-.354l-1.534-1.534a.5.5 0 0 1-.146-.353v-2.784a.5.5 0 0 1 .595-.49l8.084 1.567a.5.5 0 0 0 .595-.491v-2.851a.5.5 0 0 0-.275-.447l-8.977-4.516a.04.04 0 0 1-.022-.035v-5.23a2.726 2.726 0 0 0-5.452 0Z" fill="#1C1B1F"/></svg>