<svg xmlns="http://www.w3.org/2000/svg" width="32" height="32" fill="none" viewBox="0 0 32 32"><path fill="#111827" d="M12.365 3.71v6.974c0 .02-.011.038-.029.047L.276 16.798a.5.5 0 0 0-.276.447v4.107a.5.5 0 0 0 .595.49l11.175-2.167a.5.5 0 0 1 .595.491v3.796a.5.5 0 0 1-.146.353l-2.33 2.33a.5.5 0 0 0-.147.354v4.113a.5.5 0 0 0 .726.446l5.267-2.665a.5.5 0 0 1 .454.001l5.152 2.655a.5.5 0 0 0 .73-.444v-4.106a.5.5 0 0 0-.147-.354l-2.143-2.143a.5.5 0 0 1-.146-.353v-3.983a.5.5 0 0 1 .595-.49l11.175 2.166a.5.5 0 0 0 .595-.49v-4.107a.5.5 0 0 0-.275-.447l-12.061-6.067a.053.053 0 0 1-.03-.047V3.71a3.635 3.635 0 0 0-7.269 0Z"/></svg>