<svg xmlns="http://www.w3.org/2000/svg" width="32" height="33" fill="none"><path fill="#111827" fill-rule="evenodd" d="M6.708 3.726a1 1 0 1 0-1.414-1.414l-5 5a1 1 0 1 0 1.414 1.414l5-5Zm18.584-1.414a1 1 0 0 1 1.415 0l5 5a1 1 0 0 1-1.415 1.414l-5-5a1 1 0 0 1 0-1.414Zm3.67 15.706c0 7.16-5.803 12.963-12.962 12.963-7.16 0-12.963-5.804-12.963-12.963 0-7.16 5.804-12.963 12.963-12.963 7.16 0 12.963 5.804 12.963 12.963ZM17 9.77a1 1 0 1 0-2 0v8.25a1 1 0 0 0 1 1h8.25a1 1 0 1 0 0-2H17v-7.25Z" clip-rule="evenodd"/></svg>