<svg xmlns="http://www.w3.org/2000/svg" width="32" height="32" fill="none" viewBox="0 0 32 32"><path fill="#111827" fill-rule="evenodd" d="M16 32c4.923 0 13.538-10.985 13.538-18.461a13.538 13.538 0 1 0-27.077 0C2.461 21.015 11.077 32 16 32m-3.767-13.72a.34.34 0 0 1-.24.1 4.363 4.363 0 0 1-4.364-4.364v-.67a.34.34 0 0 1 .341-.34 4.363 4.363 0 0 1 4.363 4.362v.67a.34.34 0 0 1-.1.241m-.24 2.1a2.34 2.34 0 0 0 2.34-2.341v-.67a6.363 6.363 0 0 0-6.363-6.364 2.34 2.34 0 0 0-2.34 2.34v.671a6.363 6.363 0 0 0 6.362 6.363m12.036-7.375a4.363 4.363 0 0 0-4.363 4.363v.67a.34.34 0 0 0 .341.341 4.363 4.363 0 0 0 4.363-4.363v-.67a.34.34 0 0 0-.34-.34m-4.499-.136a6.36 6.36 0 0 1 4.5-1.864 2.34 2.34 0 0 1 2.34 2.341v.67a6.363 6.363 0 0 1-6.363 6.363 2.34 2.34 0 0 1-2.34-2.34v-.67c0-1.688.67-3.307 1.863-4.5M19 25.458a1 1 0 1 0-1.078-1.685c-.903.578-1.46.763-1.926.764-.465 0-1.019-.183-1.916-.762a1 1 0 0 0-1.084 1.68c1.011.653 1.961 1.082 3.002 1.082 1.04-.002 1.99-.432 3.002-1.08" clip-rule="evenodd"/></svg>