<svg xmlns="http://www.w3.org/2000/svg" width="32" height="32" fill="none" viewBox="0 0 32 32"><path fill="#111827" fill-rule="evenodd" d="M16 32a1 1 0 0 0 1-1v-3.074c0-.055-.005-.11-.014-.164h10.405a1 1 0 0 0 1-1v-7.147a1 1 0 0 0-1-1H16.992c.005-.042.008-.084.008-.127v-4.955c0-.05-.004-.098-.01-.146h7.14a1 1 0 0 0 1-1V5.24a1 1 0 0 0-1-1h-7.158c.018-.075.028-.155.028-.236V1a1 1 0 1 0-2 0v3.003a1 1 0 0 0 .028.236H7.87a1 1 0 0 0-1 1v7.148a1 1 0 0 0 1 1h7.14c-.006.048-.01.096-.01.146v4.955c0 .043.003.085.008.127h-10.4a1 1 0 0 0-1 1v7.147a1 1 0 0 0 1 1h10.405a1.008 1.008 0 0 0-.013.164V31a1 1 0 0 0 1 1Z" clip-rule="evenodd"/></svg>