<svg xmlns="http://www.w3.org/2000/svg" width="32" height="32" fill="none" viewBox="0 0 32 32"><path fill="#111827" fill-rule="evenodd" d="M4.238 27.391a1 1 0 0 0 1 1h7.148a1 1 0 0 0 1-1V16.992q.062.008.126.008h4.956a1 1 0 0 0 .145-.01v7.14a1 1 0 0 0 1 1h7.148a1 1 0 0 0 1-1v-7.158a1 1 0 0 0 .236.028H31a1 1 0 0 0 0-2h-3.003q-.122 0-.236.028V7.87a1 1 0 0 0-1-1h-7.148a1 1 0 0 0-1 1v7.14a1 1 0 0 0-.145-.01h-4.956a1 1 0 0 0-.126.008v-10.4a1 1 0 0 0-1-1H5.238a1 1 0 0 0-1 1v10.405A1 1 0 0 0 4.074 15H1a1 1 0 1 0 0 2h3.074q.084 0 .164-.014z" clip-rule="evenodd"/></svg>