<svg xmlns="http://www.w3.org/2000/svg" width="32" height="32" fill="none" viewBox="0 0 32 32"><path fill="#111827" fill-rule="evenodd" d="M16 32a1 1 0 0 0 1-1v-3.074q0-.083-.014-.164h10.405a1 1 0 0 0 1-1v-7.147a1 1 0 0 0-1-1H16.992q.008-.063.008-.127v-4.955q0-.075-.01-.146h7.14a1 1 0 0 0 1-1V5.24a1 1 0 0 0-1-1h-7.158q.027-.114.028-.236V1a1 1 0 1 0-2 0v3.003a1 1 0 0 0 .028.236H7.87a1 1 0 0 0-1 1v7.148a1 1 0 0 0 1 1h7.14q-.01.072-.01.146v4.955q0 .064.008.127h-10.4a1 1 0 0 0-1 1v7.147a1 1 0 0 0 1 1h10.405a1 1 0 0 0-.013.164V31a1 1 0 0 0 1 1" clip-rule="evenodd"/></svg>