<svg xmlns="http://www.w3.org/2000/svg" width="33" height="32" fill="none"><path fill="#111827" fill-rule="evenodd" d="m13.266 7.792-3.335-.48a.476.476 0 0 1-.413-.527c.559-4.305 4.935-6 9.653-5.117 3.975.743 4.74 3.957 4.635 5.426v4.618c-.196 2.458.13 3.962.316 4.407.133.358.388.733.66 1.063.397.48.395 1.216-.084 1.614L22.2 20.873c-.146.12-.347.149-.496.032-.614-.477-1.602-1.709-2.077-2.346-1.949 1.774-2.932 2.3-5.303 2.529-2.37.228-5.83-1.791-5.443-5.55.386-3.757 2.458-4.81 4.056-5.53 1.278-.576 4.56-.931 6.04-1.036.352-2.768-.93-3.705-1.615-3.828-2.261-.62-3.3 1.101-3.623 2.318a.435.435 0 0 1-.473.33Zm.594 6.817c.335-2.633 3.55-3.049 5.117-2.928.35 4.145-1.338 5.283-2.002 5.73l-.062.042c-.613.419-3.471.446-3.053-2.844Zm12.538 10.187c.826-.099 2.658-.262 3.381-.125.904.172.842.81.67 1.434a46.38 46.38 0 0 1-.888 2.742c-.2.536.229.41.468.28.69-.716 2.06-2.682 2.01-4.814.01-.255-.172-.786-.982-.873-1.013-.109-3.335-.109-4.66.81-.243.167-.585.508 0 .546ZM.397 23.99c3.89 2.776 14.973 7.01 28.184 1.742.324.01.87.168.45.733-4.93 3.485-17.593 7.97-28.799-1.971-.176-.148-.39-.456.165-.504Z" clip-rule="evenodd"/></svg>