<svg xmlns="http://www.w3.org/2000/svg" width="32" height="32" fill="none" viewBox="0 0 32 32"><path fill="#111827" fill-rule="evenodd" d="M19.752 5.494c0 1.73-1.17 3.185-2.76 3.62q.008.065.008.133v18.975a14.01 14.01 0 0 0 12.973-12.973h-2.717a1 1 0 0 1 0-2h3.252c.82 0 1.52.67 1.491 1.534a16.01 16.01 0 0 1-15.986 15.475h-.026A16.01 16.01 0 0 1 0 14.783a1.487 1.487 0 0 1 1.491-1.534h3.253a1 1 0 1 1 0 2H2.027A14.01 14.01 0 0 0 15 28.222V9.247q0-.068.008-.133A3.754 3.754 0 0 1 16 1.742a3.75 3.75 0 0 1 3.752 3.752" clip-rule="evenodd"/></svg>