<svg xmlns="http://www.w3.org/2000/svg" width="32" height="32" fill="none" viewBox="0 0 32 32"><path fill="#111827" fill-rule="evenodd" d="M17.002 5.908A3.037 3.037 0 0 0 16.015 0a3.036 3.036 0 0 0-.987 5.908 1.008 1.008 0 0 0-.013.164v5.071H9.944a1 1 0 1 0 0 2h5.071v12.472c-.84-1.093-2.086-1.607-3.934-1.834-2.583-.428-4.147-.989-5.204-1.944-1.043-.944-1.74-2.41-2.237-5.023a1 1 0 0 0-1.965.373c.527 2.77 1.337 4.755 2.861 6.133 1.509 1.364 3.57 1.996 6.24 2.438l.043.006c1.763.214 2.363.652 2.747 1.268.23.368.42.863.623 1.58.127.447.245.93.382 1.485.087.352.18.733.288 1.151a1 1 0 0 0 1.93.028 76.255 76.255 0 0 1 .193-.66c.503-1.695.903-2.764 1.43-3.487.52-.713 1.209-1.144 2.58-1.37 2.863-.459 4.97-1.154 6.485-2.547 1.527-1.402 2.303-3.373 2.845-6.01a1 1 0 1 0-1.959-.403c-.514 2.504-1.18 3.968-2.239 4.94-1.07.983-2.688 1.603-5.45 2.045h-.005c-1.606.265-2.77.824-3.654 1.885V13.143h5.072a1 1 0 1 0 0-2h-5.072V6.072c0-.056-.005-.11-.013-.164Z" clip-rule="evenodd"/></svg>