<svg xmlns="http://www.w3.org/2000/svg" width="32" height="32" fill="none" viewBox="0 0 32 32"><path fill="#111827" fill-rule="evenodd" d="M.524 4.216a1 1 0 0 1 1.414 0l4.78 4.78c.032.033.062.066.089.102a15.772 15.772 0 0 1 9.136-2.944 16 16 0 0 1 9.274 2.921c.027-.037.058-.072.092-.106l4.753-4.753a1 1 0 1 1 1.414 1.414l-4.698 4.699A16.002 16.002 0 0 1 32 22.154v3.692a1.23 1.23 0 0 1-1.23 1.23H1.23A1.23 1.23 0 0 1 0 25.847v-3.518c0-4.72 2.022-9 5.252-11.97L.524 5.63a1 1 0 0 1 0-1.414Zm21.014 17.938a1.846 1.846 0 1 0 0-3.693 1.846 1.846 0 0 0 0 3.693Zm-9.23-1.846a1.846 1.846 0 1 1-3.693 0 1.846 1.846 0 0 1 3.692 0Z" clip-rule="evenodd"/></svg>