<svg xmlns="http://www.w3.org/2000/svg" width="32" height="34" fill="none" viewBox="0 0 32 34"><path fill="#111827" fill-rule="evenodd" d="m.84 7.567 15.025-6.543a.5.5 0 0 1 .4 0l14.896 6.54a.5.5 0 0 1 .294.527l-2.548 18.2a.5.5 0 0 1-.268.376l-12.35 6.296a.5.5 0 0 1-.45.003L3.124 26.668a.5.5 0 0 1-.274-.386L.544 8.089a.5.5 0 0 1 .296-.521m15.194 4.607 2.427 4.667h-4.766zm5.17 9.94-1.35-2.595h-7.502L11.058 22.1a1 1 0 1 1-1.788-.896l5.766-11.501a1.1 1.1 0 0 1 1.96-.015l5.983 11.503a1 1 0 0 1-1.775.922" clip-rule="evenodd"/></svg>