<svg xmlns="http://www.w3.org/2000/svg" width="32" height="34" fill="none"><path fill="#111827" fill-rule="evenodd" d="m.84 7.567 15.024-6.543a.5.5 0 0 1 .401 0l14.896 6.54a.5.5 0 0 1 .294.527l-2.548 18.2a.5.5 0 0 1-.268.376l-12.35 6.296a.5.5 0 0 1-.45.003L3.124 26.668a.5.5 0 0 1-.274-.386L.544 8.088a.5.5 0 0 1 .296-.521Zm15.194 4.607 2.427 4.667h-4.766l2.34-4.667Zm5.17 9.94-1.35-2.595h-7.502L11.058 22.1a1 1 0 1 1-1.788-.896l5.766-11.501a1.1 1.1 0 0 1 1.96-.015l5.983 11.502a1 1 0 0 1-1.775.923Z" clip-rule="evenodd"/></svg>