<svg xmlns="http://www.w3.org/2000/svg" width="32" height="33" fill="none" viewBox="0 0 32 33"><path fill="#111827" fill-rule="evenodd" d="M3.245 6.838A15.98 15.98 0 0 1 15.822.501l3.299 9.236-5.343-.976-.022-.004zM2.053 8.654l9.65 1.761-10.45 12.303A15.95 15.95 0 0 1 0 16.5c0-2.851.746-5.528 2.053-7.846m6.53 8.525L2.23 24.655c2.468 4.157 6.763 7.1 11.78 7.722zm1.494-1.76 2.025 5.67 5.922 1.08 3.898-4.588-2.025-5.67-5.922-1.08zm13.718 3.046q.025-.028.05-.058l6.902-8.126A15.95 15.95 0 0 1 32 16.5c0 2.851-.746 5.528-2.053 7.846l-9.651-1.762zm5.973-10.12-6.35 7.475L17.988.622c5.016.623 9.312 3.566 11.78 7.722m-13.59 24.154-3.299-9.236 15.876 2.899a15.98 15.98 0 0 1-12.577 6.337" clip-rule="evenodd"/></svg>