<svg xmlns="http://www.w3.org/2000/svg" width="33" height="33" fill="none"><path fill="#1C1B1F" d="M16.96 18.286a3 3 0 1 0 .001-6 3 3 0 0 0 0 6Z"/><path stroke="#1C1B1F" stroke-linecap="round" stroke-linejoin="round" stroke-width="2" d="M9.498 19.186a7.996 7.996 0 0 1 7.462-10.88 8.002 8.002 0 0 1 7.946 7.07 7.997 7.997 0 0 1-.483 3.81"/><path stroke="#1C1B1F" stroke-linecap="round" stroke-linejoin="round" stroke-width="2" d="M10.51 26.396a11.997 11.997 0 0 1-.75-19.713 12.002 12.002 0 0 1 18.72 6.238 11.993 11.993 0 0 1-5.07 13.475"/><path fill="#1C1B1F" d="M13.876 20.678a2 2 0 0 1 1.961-2.392h2.246a2 2 0 0 1 1.961 2.392L18.83 26.75a1.907 1.907 0 0 1-3.74 0l-1.214-6.072Z"/></svg>