<svg xmlns="http://www.w3.org/2000/svg" width="32" height="32" fill="none"><path fill="#111827" fill-rule="evenodd" d="M16 2.5A14.003 14.003 0 0 0 2.56 12.578a13.992 13.992 0 0 0 5.915 15.72A1 1 0 1 1 7.4 29.985a15.996 15.996 0 0 1-1-26.286 16.003 16.003 0 0 1 24.96 8.319 15.991 15.991 0 0 1-6.76 17.967 1 1 0 1 1-1.075-1.687 13.997 13.997 0 0 0 5.916-15.72A13.997 13.997 0 0 0 16 2.5Zm-4.195 6.065a9.002 9.002 0 0 1 13.134 6.917 8.994 8.994 0 0 1-.544 4.286 1 1 0 0 0 1.866.72 10.994 10.994 0 0 0-5.134-13.692A11.003 11.003 0 0 0 5.074 15.25a10.995 10.995 0 0 0 .665 5.239 1 1 0 1 0 1.865-.721 8.995 8.995 0 0 1 4.2-11.203Zm7.945 6.69a3.75 3.75 0 1 1-7.5-.002 3.75 3.75 0 0 1 7.5.001Zm-5.764 3.748a2 2 0 0 0-1.962 2.393l1.7 8.496a2 2 0 0 0 1.961 1.608h.629a2 2 0 0 0 1.96-1.608l1.7-8.496a2 2 0 0 0-1.96-2.393h-4.028Z" clip-rule="evenodd"/></svg>