<svg xmlns="http://www.w3.org/2000/svg" width="32" height="32" fill="none"><path fill="#111827" fill-rule="evenodd" d="M20.323 3.816A1 1 0 0 0 18.6 2.799L16 7.2 13.4 2.798a1 1 0 1 0-1.721 1.018l3.162 5.35-6.853 11.603H1a1 1 0 1 0 0 2H18.09a1 1 0 1 0 0-2H10.31L20.323 3.816Zm-.78 9.382a1 1 0 1 0-1.721 1.017l4.715 7.979a.99.99 0 0 0 .096.163l4.045 6.844a1 1 0 1 0 1.722-1.017l-3.2-5.415H31a1 1 0 1 0 0-2h-6.982l-4.474-7.571Zm-13.2 12.327a1 1 0 0 1 .349 1.37l-1.37 2.308a1 1 0 0 1-1.72-1.02l1.37-2.309a1 1 0 0 1 1.37-.35Z" clip-rule="evenodd"/></svg>