<svg width="33" height="33" fill="none" xmlns="http://www.w3.org/2000/svg"><path fill-rule="evenodd" clip-rule="evenodd" d="M6.247 3.836a1 1 0 0 1 .895-.553h19.636a1 1 0 0 1 .895.553l2.173 4.346c.07.134.111.287.114.45v19.651a1 1 0 0 1-1 1h-24a1 1 0 0 1-1-1V8.644c0-.167.042-.324.114-.462l2.173-4.346ZM7.76 5.283 6.578 7.647h20.764L26.16 5.283H7.76Zm9.2 6.727a1 1 0 0 1 1 1v8.495l2.921-2.921a1 1 0 0 1 1.414 1.414l-4.622 4.623a.996.996 0 0 1-1.42.006l-4.629-4.629a1 1 0 0 1 1.415-1.414l2.921 2.921V13.01a1 1 0 0 1 1-1Z" fill="#1C1B1F"/></svg>