<svg xmlns="http://www.w3.org/2000/svg" width="32" height="32" fill="none" viewBox="0 0 32 32"><path fill="#111827" fill-rule="evenodd" d="M2.832.552A1 1 0 0 1 3.726 0h24.547a1 1 0 0 1 .894.553l2.719 5.437a1 1 0 0 1 .114.465v24.547a1 1 0 0 1-1 1H1a1 1 0 0 1-1-1V6.456a1 1 0 0 1 .106-.45l.008-.017A1 1 0 0 0 0 6.44M4.344 2 2.617 5.454h26.765L27.655 2zM15 11.91a1 1 0 1 1 2 0v11.223l4.079-4.079a1 1 0 0 1 1.414 1.414l-5.786 5.786a1 1 0 0 1-.758.291 1 1 0 0 1-.668-.303l-5.774-5.774a1 1 0 1 1 1.415-1.414l4.078 4.078z" clip-rule="evenodd"/></svg>