<svg xmlns="http://www.w3.org/2000/svg" width="33" height="33" fill="none" viewBox="0 0 33 33"><path fill="#111827" fill-rule="evenodd" d="M20.962 1.501a1 1 0 1 0-2 0v2.5h-4.923V1.5a1 1 0 1 0-2 0v2.5H5a1 1 0 0 0-1 1v7.038H1.501a1 1 0 1 0 0 2H4v4.922H1.501a1 1 0 1 0 0 2H4v7.04a1 1 0 0 0 1 1h7.039v2.498a1 1 0 1 0 2 0V29h4.923v2.5a1 1 0 1 0 2 0V29H28a1 1 0 0 0 1-1v-7.039h2.499a1 1 0 1 0 0-2H29V14.04h2.499a1 1 0 1 0 0-2H29V5a1 1 0 0 0-1-1h-7.038V1.501ZM7.228 20.089a.75.75 0 0 0 .97-.426L8.69 18.4h2.404l.541 1.281a.75.75 0 1 0 1.382-.584l-2.51-5.941a.75.75 0 0 0-1.39.02L6.8 19.116a.75.75 0 0 0 .427.972Zm3.232-3.188H9.275l.568-1.459.617 1.46Zm4.156-4.202a.772.772 0 0 0-.772.772v6.08a.75.75 0 0 0 1.5 0V17.81l3.184 2.346a.75.75 0 1 0 .89-1.208l-1.734-1.277a2.508 2.508 0 0 0-.468-4.971h-2.6Zm2.6 3.514h-1.872v-2.014h1.872a1.007 1.007 0 1 1 0 2.014Zm4.691-3.11a.75.75 0 0 0-1.416.346v6.1a.75.75 0 0 0 1.5 0v-3.023l.674 1.3a.75.75 0 0 0 1.327.011l.758-1.41v3.121a.75.75 0 0 0 1.5 0v-6.1a.75.75 0 0 0-1.41-.354l-1.497 2.781-1.436-2.771Z" clip-rule="evenodd"/></svg>