<svg xmlns="http://www.w3.org/2000/svg" width="32" height="33" fill="none" viewBox="0 0 32 33"><path fill="#111827" fill-rule="evenodd" d="M6.571 4.5h18.857a2 2 0 0 1 2 2v4.803c-2.81 1.009-4.928 3.543-5.452 6.34H10.571c-.312-1.772-1.244-3.622-2.852-4.947a7.868 7.868 0 0 0-3.148-1.568V6.5a2 2 0 0 1 2-2Zm-3.816 8.377A4.57 4.57 0 0 0 .348 18.82a4.572 4.572 0 0 0 4.223 2.822v5.714A1.143 1.143 0 0 0 5.714 28.5h20.572a1.143 1.143 0 0 0 1.143-1.143v-5.714a4.571 4.571 0 0 0 1.883-8.737c-3.017.404-5.38 3.092-5.459 5.925.003.029.004.058.004.087v4.762a1 1 0 0 1-1 1v.006a1 1 0 0 1-1-1V19.34h-11.16v4.346a1 1 0 0 1-.96 1v-.007l-.04.001a1 1 0 0 1-1-1v-4.582a1.011 1.011 0 0 1-.007-.121c0-1.589-.73-3.49-2.243-4.737-.893-.735-2.105-1.28-3.692-1.364Z" clip-rule="evenodd"/></svg>