<svg xmlns="http://www.w3.org/2000/svg" width="32" height="33" fill="none" viewBox="0 0 32 33"><path fill="#111827" fill-rule="evenodd" d="M21 2.5a1 1 0 0 1 1 1v7h7a1 1 0 1 1 0 2h-8a1 1 0 0 1-1-1v-8a1 1 0 0 1 1-1Zm0 18a1 1 0 0 0-1 1v8a1 1 0 0 0 2 0v-7h7a1 1 0 1 0 0-2h-8Zm-18 0a1 1 0 1 0 0 2h7v7a1 1 0 1 0 2 0v-8a1 1 0 0 0-1-1H3Zm9-17a1 1 0 1 0-2 0v7H3a1 1 0 1 0 0 2h8a1 1 0 0 0 1-1v-8Z" clip-rule="evenodd"/><path fill="#111827" fill-rule="evenodd" d="M31.707.793a1 1 0 0 1 0 1.414l-10 10a1 1 0 0 1-1.414-1.414l10-10a1 1 0 0 1 1.414 0Zm-20 21.414a1 1 0 0 0-1.414-1.414l-10 10a1 1 0 1 0 1.414 1.414l10-10Zm10-1.414a1 1 0 0 0-1.414 1.414l10 10a1 1 0 0 0 1.414-1.414l-10-10Zm-20-20A1 1 0 1 0 .293 2.207l10 10a1 1 0 0 0 1.414-1.414l-10-10Z" clip-rule="evenodd"/></svg>