<svg width="33" height="33" fill="none" xmlns="http://www.w3.org/2000/svg"><path d="M20.495 13.819v6h-6M13.424 12.747l7.071 7.071" stroke="#fff" stroke-width="2" stroke-linecap="round" stroke-linejoin="round"/><path fill-rule="evenodd" clip-rule="evenodd" d="M28.96 16.283c0 6.627-5.373 12-12 12-6.628 0-12-5.373-12-12 0-6.628 5.372-12 12-12 6.627 0 12 5.372 12 12Zm-8.465-3.465a1 1 0 0 0-1 1v3.586l-5.364-5.364a1 1 0 0 0-1.414 1.415l5.364 5.363h-3.586a1 1 0 1 0 0 2h5.993a1.014 1.014 0 0 0 .348-.059.998.998 0 0 0 .66-.947v-5.994a1 1 0 0 0-1-1Z" fill="#1C1B1F"/></svg>