<svg xmlns="http://www.w3.org/2000/svg" width="32" height="32" fill="none"><path fill="#111827" fill-rule="evenodd" d="M9.334 4a1 1 0 1 0-2 0v21.566l-2.566-2.597a.986.986 0 0 0-1.405 0 1.014 1.014 0 0 0 0 1.423L7.58 28.66a.997.997 0 0 0 .754.34 1 1 0 0 0 .924-.616l3.945-3.992a1.014 1.014 0 0 0 0-1.423.986.986 0 0 0-1.406 0l-2.463 2.493V4ZM22.77 28V6.434l-2.566 2.597a.986.986 0 0 1-1.406 0 1.015 1.015 0 0 1 0-1.423l4.218-4.268a.997.997 0 0 1 .754-.34 1 1 0 0 1 .923.615l3.946 3.993c.388.393.388 1.03 0 1.423a.986.986 0 0 1-1.406 0l-2.463-2.493V28a1 1 0 1 1-2 0Z" clip-rule="evenodd"/></svg>