<svg xmlns="http://www.w3.org/2000/svg" width="32" height="32" fill="none" viewBox="0 0 32 32"><path fill="#111827" fill-rule="evenodd" d="M9.016 3.43a.971.971 0 0 1 0 1.396l-2.55 2.49H27.99a1 1 0 1 1 0 2H6.466l2.55 2.489a.971.971 0 0 1 0 1.397 1.03 1.03 0 0 1-1.431 0L3.329 9.046a1.01 1.01 0 0 1-.032-.03l-.002-.002a.971.971 0 0 1 .037-1.433L7.585 3.43a1.03 1.03 0 0 1 1.43 0ZM4.01 22.683a1 1 0 1 0 0 2h21.523l-2.55 2.49a.971.971 0 0 0 0 1.397 1.03 1.03 0 0 0 1.431 0l4.256-4.155.032-.032h.002a.971.971 0 0 0-.037-1.434l-4.253-4.152a1.03 1.03 0 0 0-1.43 0 .971.971 0 0 0 0 1.397l2.549 2.49H4.01Z" clip-rule="evenodd"/></svg>