<svg xmlns="http://www.w3.org/2000/svg" width="32" height="33" fill="none" viewBox="0 0 32 33"><path fill="#111827" fill-rule="evenodd" d="M11.404 5.49A1 1 0 0 0 9.99 6.903l5.303 5.303a1 1 0 0 0 1.414 0l5.304-5.303a1 1 0 0 0-1.414-1.415L16 10.086zM9.99 26.095a1 1 0 1 0 1.414 1.415L16 22.914l4.597 4.597a1 1 0 0 0 1.414-1.415l-5.304-5.303a1 1 0 0 0-1.414 0zM27.01 9.93a1 1 0 0 1 0 1.414l-4.596 4.597 4.596 4.596a1 1 0 0 1-1.414 1.414l-5.304-5.303a1 1 0 0 1 0-1.415l5.304-5.303a1 1 0 0 1 1.414 0m-20.568.04a1.073 1.073 0 0 0-1.454-.043.93.93 0 0 0-.04 1.372l4.597 4.597-4.855 4.322a.93.93 0 0 0-.04 1.372c.39.39 1.041.41 1.454.042l5.602-4.987a.93.93 0 0 0 .04-1.372z" clip-rule="evenodd"/><path fill="#111827" fill-rule="evenodd" d="M17 1.5a1 1 0 1 0-2 0v10a1 1 0 0 0 2 0zm0 20a1 1 0 1 0-2 0v10a1 1 0 0 0 2 0zm3-5.56a1 1 0 0 1 1-1h10a1 1 0 1 1 0 2H21a1 1 0 0 1-1-1M1 14.939a1 1 0 1 0 0 2h10a1 1 0 1 0 0-2z" clip-rule="evenodd"/></svg>