<svg xmlns="http://www.w3.org/2000/svg" width="32" height="33" fill="none" viewBox="0 0 32 33"><path fill="#111827" fill-rule="evenodd" d="M14.886 5.5a11 11 0 0 0-7.778 3.222 1 1 0 1 1-1.414-1.414 13 13 0 0 1 18.384 0L27 10.229V6.1a1 1 0 1 1 2 0v6.544a1 1 0 0 1-.535.886 1 1 0 0 1-.465.114h-6.545a1 1 0 1 1 0-2h4.131l-2.92-2.92A11 11 0 0 0 14.885 5.5M3 20.358a.997.997 0 0 1 1-1h6.546a1 1 0 1 1 0 2H6.415l2.92 2.92a11 11 0 0 0 15.556 0 1 1 0 1 1 1.415 1.415 13 13 0 0 1-18.384 0L5 22.771v4.131a1 1 0 1 1-2 0z" clip-rule="evenodd"/></svg>