<svg xmlns="http://www.w3.org/2000/svg" width="32" height="33" fill="none" viewBox="0 0 32 33"><path fill="#111827" fill-rule="evenodd" d="M16.614 5.5a11 11 0 0 1 7.778 3.222 1 1 0 1 0 1.414-1.414 13 13 0 0 0-18.384 0L4.5 10.229V6.1a1 1 0 1 0-2 0v6.544a1 1 0 0 0 .535.886 1 1 0 0 0 .465.114h6.545a1 1 0 1 0 0-2H5.915l2.92-2.92A11 11 0 0 1 16.615 5.5M28.5 20.358a.997.997 0 0 0-1-1h-6.546a1 1 0 1 0 0 2h4.131l-2.92 2.92a11 11 0 0 1-15.556 0 1 1 0 1 0-1.415 1.415 13 13 0 0 0 18.385 0l2.92-2.921v4.131a1 1 0 1 0 2 0z" clip-rule="evenodd"/></svg>