<svg xmlns="http://www.w3.org/2000/svg" width="32" height="32" fill="none" viewBox="0 0 32 32"><path fill="#111827" fill-rule="evenodd" d="M16 4.091a1 1 0 0 1 1 1V26.91a1 1 0 1 1-2 0V5.09a1 1 0 0 1 1-1Zm5.684 10.91 2.924-2.924a1 1 0 0 0-1.414-1.415l-4.629 4.629a.998.998 0 0 0 .04 1.453l4.589 4.59a1 1 0 0 0 1.414-1.415L21.689 17h6.31a1 1 0 1 0 0-2h-6.315ZM7.392 10.662a1.073 1.073 0 0 1 1.454.042l4.546 4.546a.99.99 0 0 1 .083.083.932.932 0 0 1-.04 1.37 1.012 1.012 0 0 1-.088.08l-4.801 4.273a1.073 1.073 0 0 1-1.454-.042.932.932 0 0 1 .04-1.372l2.97-2.645H4a1 1 0 1 1 0-2h6.316l-2.964-2.963a.932.932 0 0 1 .04-1.372Z" clip-rule="evenodd"/></svg>