<svg xmlns="http://www.w3.org/2000/svg" width="32" height="32" fill="none"><path fill="#111827" fill-rule="evenodd" d="M17.114 5a11 11 0 0 1 7.777 3.222 1 1 0 1 0 1.415-1.414 13 13 0 0 0-18.384 0L5 9.729V5.6a1 1 0 1 0-2 0v6.544a.995.995 0 0 0 .535.886.996.996 0 0 0 .465.114h6.546a1 1 0 1 0 0-2H6.415l2.92-2.92A11 11 0 0 1 17.115 5Zm11.885 14.857a.997.997 0 0 0-1-1h-6.545a1 1 0 1 0 0 2h4.131l-2.92 2.92a11 11 0 0 1-15.557 0 1 1 0 1 0-1.414 1.415 13 13 0 0 0 18.384 0L27 22.271v4.131a1 1 0 1 0 2 0v-6.545Z" clip-rule="evenodd"/></svg>