<svg xmlns="http://www.w3.org/2000/svg" width="32" height="33" fill="none" viewBox="0 0 32 33"><path fill="#111827" fill-rule="evenodd" d="M1 .5a1 1 0 0 0-1 1v8a1 1 0 0 0 2 0v-7h7a1 1 0 1 0 0-2H1Zm22 0a1 1 0 1 0 0 2h7v7a1 1 0 0 0 2 0v-8a1 1 0 0 0-1-1h-8Zm-22 22a1 1 0 0 1 1 1v7h7a1 1 0 1 1 0 2H1a1 1 0 0 1-1-1v-8a1 1 0 0 1 1-1Zm31 1a1 1 0 1 0-2 0v7h-7a1 1 0 0 0 0 2h8a1 1 0 0 0 1-1v-8Z" clip-rule="evenodd"/><path fill="#111827" fill-rule="evenodd" d="M10.256 12.17a1 1 0 0 0 1.414-1.414L1.707.793A1 1 0 1 0 .292 2.207l9.964 9.963Zm10.074-1.414a1 1 0 0 0 1.414 1.414l9.964-9.963A1 1 0 1 0 30.293.793l-9.963 9.963Zm-8.66 10.073a1 1 0 0 1 0 1.415l-9.963 9.963a1 1 0 0 1-1.415-1.414l9.964-9.963a1 1 0 0 1 1.414 0Zm10.074 0a1 1 0 0 0-1.414 1.415l9.963 9.963a1 1 0 0 0 1.415-1.414l-9.964-9.964Z" clip-rule="evenodd"/></svg>