<svg xmlns="http://www.w3.org/2000/svg" width="32" height="33" fill="none" viewBox="0 0 32 33"><path fill="#111827" fill-rule="evenodd" d="M21.128 10.492a12.546 12.546 0 0 0-7.384-.741 12.692 12.692 0 0 0-6.537 3.564L5 15.565v-3.55a1 1 0 1 0-2 0v6a.996.996 0 0 0 1 1h6a1 1 0 1 0 0-2H6.38l2.255-2.3a10.692 10.692 0 0 1 5.507-3.004 10.546 10.546 0 0 1 6.208.624 10.817 10.817 0 0 1 4.831 4.046A11.173 11.173 0 0 1 27 22.5a1 1 0 1 0 2 0c0-2.567-.746-5.077-2.146-7.215a12.817 12.817 0 0 0-5.726-4.793Z" clip-rule="evenodd"/></svg>