<svg xmlns="http://www.w3.org/2000/svg" width="32" height="33" fill="none" viewBox="0 0 32 33"><path fill="#111827" fill-rule="evenodd" d="M10.45 2.524a.971.971 0 0 1 0 1.397L6.469 7.81h21.52a1 1 0 1 1 0 2H6.466L10.45 13.7a.971.971 0 0 1 0 1.398 1.03 1.03 0 0 1-1.431 0l-5.725-5.59a.971.971 0 0 1-.035-1.36c.029-.033.06-.064.094-.093L9.02 2.524a1.03 1.03 0 0 1 1.43 0ZM4.01 23.18a1 1 0 1 0 0 2h21.534l-3.995 3.9a.971.971 0 0 0 0 1.397 1.03 1.03 0 0 0 1.43 0l5.725-5.589a.97.97 0 0 0 .145-1.219 1.006 1.006 0 0 0-.256-.286l-5.613-5.48a1.03 1.03 0 0 0-1.431 0 .971.971 0 0 0 0 1.397l3.974 3.88H4.01Z" clip-rule="evenodd"/></svg>