<svg xmlns="http://www.w3.org/2000/svg" width="32" height="33" fill="none" viewBox="0 0 32 33"><path fill="#111827" fill-rule="evenodd" d="M11.65 12.335a10.546 10.546 0 0 1 6.208-.624c2.084.422 4 1.467 5.507 3.004l2.255 2.3H22a1 1 0 1 0 0 2h6a.996.996 0 0 0 1-1v-6a1 1 0 1 0-2 0v3.55l-2.207-2.25a12.692 12.692 0 0 0-6.537-3.564 12.546 12.546 0 0 0-7.384.741 12.816 12.816 0 0 0-5.726 4.793A13.173 13.173 0 0 0 3 22.5a1 1 0 1 0 2 0c0-2.18.634-4.31 1.819-6.119a10.817 10.817 0 0 1 4.831-4.046Z" clip-rule="evenodd"/></svg>