<svg xmlns="http://www.w3.org/2000/svg" width="32" height="33" fill="none" viewBox="0 0 32 33"><path fill="#111827" fill-rule="evenodd" d="M20.522 4.978a1 1 0 1 0-2 0v8a1 1 0 0 0 1 1h8a1 1 0 1 0 0-2h-7zM4.479 19.022a1 1 0 1 0 0 2h7v7a1 1 0 0 0 2 0v-8a1 1 0 0 0-1-1z" clip-rule="evenodd"/><path fill="#111827" fill-rule="evenodd" d="M28.707 5.207a1 1 0 0 0-1.415-1.414l-8.478 8.478a1 1 0 0 0 1.415 1.414zM3.293 27.793a1 1 0 0 0 1.415 1.414l8.478-8.478a1 1 0 0 0-1.415-1.414z" clip-rule="evenodd"/></svg>