<svg xmlns="http://www.w3.org/2000/svg" width="32" height="32" fill="none" viewBox="0 0 32 32"><path fill="#111827" fill-rule="evenodd" d="M31.707 1.707A1 1 0 0 0 30.293.293L22 8.586V3.5a1 1 0 0 0-2 0v7.518a.995.995 0 0 0 .617.906A.997.997 0 0 0 21 12h7.5a1 1 0 1 0 0-2h-5.086l8.293-8.293ZM.293 30.293a1 1 0 1 0 1.414 1.414L10 23.414V28.5a1 1 0 0 0 2 0V21a.997.997 0 0 0-1.016-1H3.5a1 1 0 1 0 0 2h5.086L.293 30.293Zm30 1.414a1 1 0 0 0 1.414-1.414L23.414 22H28.5a1 1 0 1 0 0-2h-7.487a1.014 1.014 0 0 0-.339.054.994.994 0 0 0-.569.5A.996.996 0 0 0 20 21v7.5a1 1 0 1 0 2 0v-5.086l8.293 8.293ZM11 2.5a1 1 0 0 1 1 1v7.486A.997.997 0 0 1 10.979 12h-7.48a1 1 0 1 1 0-2h5.087L.293 1.707A1 1 0 0 1 1.707.293L10 8.586V3.5a1 1 0 0 1 1-1Z" clip-rule="evenodd"/></svg>