<svg xmlns="http://www.w3.org/2000/svg" width="32" height="32" fill="none" viewBox="0 0 32 32"><path fill="#111827" fill-rule="evenodd" d="M16.914.5a1 1 0 0 0-.893-.5.997.997 0 0 0-.729.293L9.99 5.596a1 1 0 1 0 1.414 1.414l3.645-3.644V11a1 1 0 0 0 2 0V3.461l3.55 3.548a1 1 0 0 0 1.413-1.414L16.914.5ZM9.99 24.991a1 1 0 0 1 1.414 0l3.645 3.643V21a1 1 0 1 1 2 0v7.54l3.549-3.55a1 1 0 0 1 1.415 1.414l-5.1 5.099a1 1 0 0 1-.864.497h-.026a.997.997 0 0 1-.728-.293l-5.305-5.302a1 1 0 0 1 0-1.414Zm-6.575-9.943 3.597-3.596a1 1 0 1 0-1.415-1.415l-5.29 5.29a.997.997 0 0 0-.01 1.43l5.3 5.301a1 1 0 0 0 1.415-1.414l-3.597-3.596H11a1 1 0 1 0 0-2H3.414Zm21.576-5.06a1 1 0 0 1 1.414 0l5.303 5.303a.997.997 0 0 1 .293.754 1 1 0 0 1-.496.864l-5.099 5.101a1 1 0 1 1-1.414-1.414l3.55-3.551H21a1 1 0 1 1 0-2h7.631l-3.642-3.643a1 1 0 0 1 0-1.414Z" clip-rule="evenodd"/></svg>