<svg xmlns="http://www.w3.org/2000/svg" width="32" height="32" fill="none" viewBox="0 0 32 32"><path fill="#111827" fill-rule="evenodd" d="M10.256 11.67a1 1 0 1 0 1.414-1.414L3.414 2h5.141a1 1 0 1 0 0-2H1.011A.997.997 0 0 0 0 1.025v7.53a1 1 0 0 0 2 0v-5.14l8.256 8.255ZM22.445 1a1 1 0 0 1 1-1H31a.996.996 0 0 1 .708.293.997.997 0 0 1 .292.743v7.519a1 1 0 0 1-2 0v-5.14l-8.256 8.255a1 1 0 0 1-1.414-1.414L28.586 2h-5.141a1 1 0 0 1-1-1ZM1 22.445a1 1 0 0 1 1 1v5.141l8.256-8.256a1 1 0 0 1 1.414 1.414L3.414 30h5.14a1 1 0 1 1 0 2H1a1 1 0 0 1-1-1v-7.555a1 1 0 0 1 1-1Zm30 0a1 1 0 0 1 1 1v7.52A.998.998 0 0 1 31 32h-7.555a1 1 0 0 1 0-2h5.141l-8.256-8.256a1 1 0 0 1 1.414-1.415L30 28.585v-5.14a1 1 0 0 1 1-1Z" clip-rule="evenodd"/></svg>