<svg xmlns="http://www.w3.org/2000/svg" width="32" height="33" fill="none" viewBox="0 0 32 33"><path fill="#111827" fill-rule="evenodd" d="M16 4.591a1 1 0 0 1 1 1V27.41a1 1 0 0 1-2 0V5.59a1 1 0 0 1 1-1Zm5.685 10.91 2.923-2.924a1 1 0 0 0-1.414-1.414l-4.628 4.628a.996.996 0 0 0-.293.71c0 .296.13.564.336.747l4.585 4.585a1 1 0 0 0 1.414-1.414L21.69 17.5H28a1 1 0 1 0 0-2h-6.314ZM7.393 11.162a1.073 1.073 0 0 1 1.454.042l4.547 4.547a.996.996 0 0 1 .079.08l.002.001a.932.932 0 0 1-.04 1.372l-.002.002a1.01 1.01 0 0 1-.084.074l-4.803 4.276a1.073 1.073 0 0 1-1.454-.042.932.932 0 0 1 .04-1.372l2.971-2.645H4.001a1 1 0 0 1 0-2h6.315l-2.963-2.963a.932.932 0 0 1 .04-1.372Z" clip-rule="evenodd"/></svg>