<svg xmlns="http://www.w3.org/2000/svg" width="32" height="33" fill="none" viewBox="0 0 32 33"><path fill="#111827" fill-rule="evenodd" d="M10.038 6.097a1 1 0 1 0 1.415 1.414l4.596-4.596 4.596 4.595a1 1 0 0 0 1.415-1.415L16.755.794a1 1 0 0 0-1.414 0l-5.303 5.303Zm1.414 19.394a1 1 0 0 0-1.414 1.414l5.305 5.301a1 1 0 0 0 1.414 0l5.303-5.303a1 1 0 1 0-1.415-1.414l-4.596 4.596-4.597-4.595Zm-4.44-14.952a1 1 0 0 1 0 1.414L2.414 16.55l4.596 4.596a1 1 0 0 1-1.414 1.414L.294 17.256a1 1 0 0 1 0-1.414l5.303-5.303a1 1 0 0 1 1.414 0Zm19.39-.002a1 1 0 1 0-1.413 1.415l4.596 4.596-4.595 4.597a1 1 0 0 0 1.415 1.414l5.301-5.304a1 1 0 0 0 0-1.415l-5.303-5.303Z" clip-rule="evenodd"/><path fill="#111827" fill-rule="evenodd" d="M17.048 1.5a1 1 0 1 0-2 0v10a1 1 0 0 0 2 0v-10Zm0 20a1 1 0 1 0-2 0v10a1 1 0 0 0 2 0v-10ZM.001 16.548a1 1 0 0 1 1-1h10a1 1 0 1 1 0 2H1a1 1 0 0 1-1-1Zm20.998-1.003a1 1 0 1 0 0 2h10a1 1 0 1 0 0-2h-10Z" clip-rule="evenodd"/></svg>