<svg xmlns="http://www.w3.org/2000/svg" width="32" height="33" fill="none" viewBox="0 0 32 33"><path fill="#111827" fill-rule="evenodd" d="M17.384 10.902a1.014 1.014 0 0 1 0-1.423l5.623-5.69a.986.986 0 0 1 1.44.035l5.59 5.655c.387.393.387 1.03 0 1.423a.986.986 0 0 1-1.407 0l-3.919-3.967V28.5a1 1 0 1 1-2 0V6.934l-3.921 3.968a.986.986 0 0 1-1.406 0M9.277 4.5a1 1 0 1 0-2 0v21.552l-3.908-3.954a.986.986 0 0 0-1.405 0 1.014 1.014 0 0 0 0 1.423L7.476 29.1c.116.154.275.273.46.34a.99.99 0 0 0 1.056-.229l5.623-5.69a1.014 1.014 0 0 0 0-1.423.986.986 0 0 0-1.405 0l-3.933 3.98z" clip-rule="evenodd"/></svg>