<svg xmlns="http://www.w3.org/2000/svg" width="32" height="33" fill="none" viewBox="0 0 32 33"><path fill="#111827" fill-rule="evenodd" d="M8.95 9.086a1 1 0 0 0-1.414-1.414l-4.243 4.242a1 1 0 0 0 0 1.414l4.243 4.243a1 1 0 1 0 1.414-1.414L5.414 12.62 8.95 9.086Zm6-1.414a1 1 0 0 1 0 1.414l-2.536 2.535H16a13 13 0 0 1 13 13 1 1 0 0 1-2 0 11 11 0 0 0-11-11h-3.586l2.536 2.536a1 1 0 1 1-1.414 1.414L9.3 13.335a1.015 1.015 0 0 1-.198-.273.996.996 0 0 1 .19-1.148l4.244-4.242a1 1 0 0 1 1.414 0Z" clip-rule="evenodd"/></svg>