<svg xmlns="http://www.w3.org/2000/svg" width="32" height="33" fill="none" viewBox="0 0 32 33"><path fill="#111827" fill-rule="evenodd" d="M2.274 7.5H1a1 1 0 1 1 0-2h2.246a1 1 0 0 1 .876.473l4.616 7.423 4.705-7.43a1 1 0 0 1 .889-.465h2.222a1 1 0 1 1 0 2h-1.266v9.11h.71a1 1 0 1 1 0 2h-3.332a1 1 0 0 1 0-2h.622V9.949l-3.713 5.863a1 1 0 0 1-1.694-.007l-3.608-5.802v6.608h.615a1 1 0 1 1 0 2H1.556a1 1 0 1 1 0-2h.718zM20 13.168a1 1 0 0 1 1-1h9.999a1 1 0 1 1 0 2h-10a1 1 0 0 1-1-1m1 3.444a1 1 0 1 0 0 2h9.999a1 1 0 1 0 0-2zM6.668 22.055a1 1 0 0 1 1-1h23.331a1 1 0 1 1 0 2H7.668a1 1 0 0 1-1-1m1 3.445a1 1 0 1 0 0 2h23.331a1 1 0 0 0 0-2z" clip-rule="evenodd"/></svg>