<svg xmlns="http://www.w3.org/2000/svg" width="32" height="32" fill="none" viewBox="0 0 32 32"><path fill="#111827" fill-rule="evenodd" d="M20.784.802c.264.324.399.762.668 1.638l5.882 19.13a24.7 24.7 0 0 0-7.033-2.358L16.471 6.4a.5.5 0 0 0-.478-.353.5.5 0 0 0-.478.355L11.73 19.206a24.7 24.7 0 0 0-7.065 2.36l5.912-19.13c.27-.875.405-1.312.669-1.636.233-.286.536-.508.88-.645C12.518 0 12.98 0 13.904 0h4.222c.925 0 1.387 0 1.778.156.344.138.648.36.88.646M21.487 22.48c-.97.82-2.905 1.38-5.135 1.38-2.736 0-5.03-.843-5.639-1.977-.217.65-.266 1.394-.266 1.87 0 0-.143 2.333 1.496 3.956 0-.843.69-1.526 1.542-1.526 1.46 0 1.458 1.26 1.456 2.283v.09c0 1.553.958 2.883 2.321 3.444a3.1 3.1 0 0 1-.318-1.372c0-1.48.878-2.03 1.898-2.672.812-.51 1.714-1.075 2.335-2.211a4.14 4.14 0 0 0 .509-1.993c0-.444-.07-.871-.199-1.272" clip-rule="evenodd"/></svg>