<svg xmlns="http://www.w3.org/2000/svg" width="32" height="32" fill="none" viewBox="0 0 32 32"><path fill="#111827" fill-rule="evenodd" d="M29.813 24.08C27.035 28.818 21.889 32 16 32 7.163 32 0 24.837 0 16S7.163 0 16 0s16 7.163 16 16c0 1.655-.251 3.25-.718 4.752-.639.94-1.57 1.5-2.95 1.5-1.453 0-2.408-.621-3.05-1.653-.677-1.09-1.027-2.693-1.027-4.6V8.745a1 1 0 1 0-2 0v1.867a8.253 8.253 0 1 0 .719 9.805q.253.661.61 1.238c.991 1.594 2.575 2.597 4.748 2.597a6.2 6.2 0 0 0 1.48-.172M16 9.745a6.253 6.253 0 1 0 0 12.507 6.253 6.253 0 0 0 0-12.507" clip-rule="evenodd"/></svg>