<svg xmlns="http://www.w3.org/2000/svg" width="32" height="33" fill="none" viewBox="0 0 32 33"><path fill="#111827" fill-rule="evenodd" d="M3.239 9.937c.686 1.525 1.644 3.182 2.84 4.893a52 52 0 0 1 3.896-4.355A52 52 0 0 1 14.33 6.58c-1.71-1.197-3.368-2.154-4.893-2.84-1.685-.759-3.16-1.164-4.339-1.228s-1.947.214-2.41.677c-.462.462-.74 1.23-.677 2.41.065 1.18.47 2.654 1.228 4.339m-1.824.82c.814 1.81 1.963 3.757 3.397 5.743-1.434 1.985-2.583 3.934-3.397 5.743-.816 1.814-1.318 3.539-1.4 5.05-.083 1.511.253 2.927 1.259 3.933s2.422 1.342 3.933 1.26c1.512-.082 3.236-.584 5.05-1.4 1.81-.815 3.758-1.964 5.743-3.398 1.986 1.434 3.934 2.583 5.743 3.397 1.814.816 3.539 1.319 5.05 1.4 1.512.083 2.928-.253 3.933-1.259 1.006-1.006 1.342-2.422 1.26-3.933-.082-1.512-.584-3.236-1.4-5.05-.815-1.81-1.964-3.758-3.398-5.743 1.434-1.986 2.583-3.934 3.397-5.742.817-1.815 1.319-3.54 1.401-5.051s-.254-2.927-1.26-3.933C29.721.768 28.305.432 26.793.514c-1.511.082-3.236.585-5.05 1.401-1.81.814-3.757 1.963-5.743 3.397-1.985-1.434-3.933-2.583-5.742-3.397-1.815-.817-3.54-1.319-5.051-1.4C3.696.431 2.28.767 1.274 1.773S-.068 4.196.014 5.707s.585 3.236 1.401 5.05m8.022 18.504c1.525-.686 3.183-1.643 4.893-2.84a52 52 0 0 1-4.355-3.896A52 52 0 0 1 6.08 18.17c-1.196 1.71-2.154 3.368-2.84 4.893-.758 1.685-1.163 3.16-1.228 4.339s.215 1.947.677 2.41 1.23.741 2.41.677 2.654-.47 4.339-1.228m1.953-8.15A49 49 0 0 0 16 25.188a49 49 0 0 0 4.61-4.079 49 49 0 0 0 4.08-4.61 49 49 0 0 0-4.08-4.61A49 49 0 0 0 16 7.81a49 49 0 0 0-4.61 4.08 49 49 0 0 0-4.08 4.61 49 49 0 0 0 4.08 4.61m11.174 8.15c-1.526-.686-3.183-1.643-4.894-2.84a52 52 0 0 0 4.355-3.896 52 52 0 0 0 3.896-4.355c1.197 1.71 2.154 3.368 2.84 4.893.759 1.685 1.164 3.16 1.228 4.339s-.214 1.947-.677 2.41c-.462.462-1.23.74-2.41.677-1.18-.065-2.654-.47-4.338-1.228M28.76 9.937c-.686 1.525-1.643 3.182-2.84 4.893a52 52 0 0 0-3.896-4.355A52 52 0 0 0 17.67 6.58c1.71-1.197 3.368-2.154 4.893-2.84 1.685-.758 3.16-1.164 4.34-1.228s1.947.214 2.41.677c.462.463.74 1.23.676 2.41s-.47 2.654-1.228 4.339M18.047 16.5a2.051 2.051 0 1 1-4.102 0 2.051 2.051 0 0 1 4.102 0" clip-rule="evenodd"/></svg>