<svg xmlns="http://www.w3.org/2000/svg" width="32" height="33" fill="none" viewBox="0 0 32 33"><path fill="#111827" fill-rule="evenodd" d="M4.75 4.25a1 1 0 0 0-1 1v6a1 1 0 1 0 2 0v-5h5a1 1 0 1 0 0-2h-6Zm16.5 0a1 1 0 1 0 0 2h5v5a1 1 0 0 0 2 0v-6a1 1 0 0 0-1-1h-6Zm-16.5 16.5a1 1 0 0 1 1 1v5h5a1 1 0 1 1 0 2h-6a1 1 0 0 1-1-1v-6a1 1 0 0 1 1-1Zm23.5 1a1 1 0 1 0-2 0v5h-5a1 1 0 1 0 0 2h6a1 1 0 0 0 1-1v-6Z" clip-rule="evenodd"/><path fill="#111827" fill-rule="evenodd" d="M16 17.914 5.457 28.457a1 1 0 0 1-1.415-1.414L14.585 16.5 4.042 5.957a1 1 0 1 1 1.415-1.414L16 15.086 26.543 4.543a1 1 0 1 1 1.414 1.414L17.414 16.5l10.543 10.543a1 1 0 1 1-1.414 1.414L16 17.914Z" clip-rule="evenodd"/></svg>