<svg xmlns="http://www.w3.org/2000/svg" width="32" height="33" fill="none" viewBox="0 0 32 33"><path fill="#111827" fill-rule="evenodd" d="M16.39 25.811c-.257 2.81-2.743 5.015-5.773 5.015-3.129 0-5.678-2.35-5.792-5.29a4.944 4.944 0 0 0 4.699-4.246 1 1 0 0 0-1.98-.281 2.945 2.945 0 0 1-3.32 2.502C1.75 22.517 0 20.051 0 17.166c0-2.847 1.706-5.287 4.128-6.306a5.823 5.823 0 0 1-.6-2.579c0-3.373 2.884-6.108 6.442-6.108 3.452 0 6.27 2.574 6.435 5.809h.008v11.351a6.692 6.692 0 0 0-4.717-1.944 1 1 0 1 0 0 2 4.691 4.691 0 0 1 4.692 4.69v1.627c0 .035.002.07.005.105h-.003ZM11.168 9.409a1 1 0 0 1 1 1v1.065a4.727 4.727 0 0 1-4.726 4.726 1 1 0 1 1 0-2 2.726 2.726 0 0 0 2.726-2.726v-1.065a1 1 0 0 1 1-1Zm13.86-1.152a1.444 1.444 0 0 1-2.487 1H18.6a1 1 0 1 1 0-2h3.94a1.444 1.444 0 0 1 2.486 1Zm-1.775 2.2a1 1 0 0 1 .864-.496h3.546a1.444 1.444 0 1 1-.001 2h-2.972l-1.513 2.59a1 1 0 0 1-.863.496H18.6a1 1 0 1 1 0-2h3.137l1.514-2.59Zm-4.65 6.819a1 1 0 0 0 0 2h3.938a1.444 1.444 0 1 0 0-2h-3.939ZM29.11 20.03l-1.46 1.437H18.6a1 1 0 0 0 0 2h9.459a1 1 0 0 0 .7-.287l1.742-1.713.053.001a1.444 1.444 0 1 0-1.444-1.444v.006Zm-10.51 4.697a1 1 0 1 0 0 2h5.943a1.444 1.444 0 1 0 0-2h-5.943Z" clip-rule="evenodd"/></svg>