<svg xmlns="http://www.w3.org/2000/svg" width="32" height="32" fill="none" viewBox="0 0 32 32"><path fill="#111827" fill-rule="evenodd" d="M9.018 13.382c0 .394.043.713.117.947.085.234.192.49.34.766.054.086.075.17.075.245 0 .107-.064.213-.202.32l-.67.447a.5.5 0 0 1-.277.095c-.107 0-.213-.053-.32-.149a3.3 3.3 0 0 1-.383-.5 8 8 0 0 1-.33-.628q-1.245 1.47-3.129 1.469c-.894 0-1.607-.256-2.128-.766-.522-.511-.788-1.192-.788-2.044 0-.904.32-1.639.969-2.192s1.511-.83 2.607-.83c.362 0 .735.032 1.128.085.394.053.799.138 1.224.234v-.777c0-.809-.17-1.373-.5-1.703-.34-.33-.915-.49-1.735-.49-.372 0-.755.043-1.15.139a8.5 8.5 0 0 0-1.149.362c-.17.074-.298.117-.372.138a.7.7 0 0 1-.17.032c-.15 0-.224-.106-.224-.33v-.521c0-.17.021-.298.075-.373a.8.8 0 0 1 .298-.223q.559-.288 1.34-.48a6.5 6.5 0 0 1 1.661-.202c1.266 0 2.192.288 2.788.862.586.575.884 1.448.884 2.619v3.448zM4.697 15a3.5 3.5 0 0 0 1.096-.192 2.4 2.4 0 0 0 1.011-.681 1.7 1.7 0 0 0 .362-.681c.064-.256.107-.564.107-.926v-.447a9 9 0 0 0-.98-.181 8 8 0 0 0-1-.064c-.713 0-1.235.138-1.586.426-.351.287-.521.692-.521 1.224 0 .5.127.872.394 1.128.255.266.627.394 1.117.394m8.546 1.15c-.191 0-.319-.033-.404-.107-.085-.064-.16-.213-.224-.415l-2.5-8.227c-.065-.213-.097-.352-.097-.426 0-.17.086-.266.256-.266h1.043c.202 0 .34.032.415.106.085.064.149.213.213.415l1.788 7.046 1.66-7.046c.053-.213.117-.35.202-.415.085-.064.234-.106.426-.106h.851c.203 0 .341.032.426.106.085.064.16.213.202.415l1.682 7.131 1.841-7.13c.064-.214.139-.352.213-.416.085-.064.223-.106.415-.106h.99c.17 0 .266.085.266.266 0 .045-.008.09-.017.143l-.004.027c-.011.064-.032.15-.075.266l-2.565 8.227q-.096.32-.223.415c-.085.064-.224.107-.405.107h-.915c-.202 0-.34-.032-.426-.107-.085-.074-.16-.213-.202-.425l-1.65-6.865-1.639 6.854c-.053.213-.117.351-.202.426-.085.074-.234.106-.425.106zm13.676.286a7 7 0 0 1-1.639-.191c-.532-.128-.947-.266-1.224-.426-.17-.096-.287-.202-.33-.298a.8.8 0 0 1-.063-.298v-.543c0-.223.085-.33.244-.33q.096 0 .192.032.063.023.158.063l.108.044c.362.16.756.287 1.17.372.427.085.841.128 1.267.128.67 0 1.192-.117 1.554-.351s.553-.575.553-1.011c0-.298-.095-.543-.287-.745s-.553-.383-1.075-.554l-1.543-.479c-.777-.244-1.352-.606-1.703-1.085a2.54 2.54 0 0 1-.532-1.543q0-.67.287-1.182c.192-.34.447-.638.767-.873.319-.244.68-.425 1.107-.553a4.6 4.6 0 0 1 1.34-.18c.235 0 .48.01.714.042.244.032.468.074.691.117.213.053.415.106.607.17q.287.096.447.192a.9.9 0 0 1 .32.266.57.57 0 0 1 .095.35v.501c0 .224-.085.34-.245.34-.085 0-.223-.042-.404-.127q-.91-.415-2.044-.415c-.606 0-1.085.096-1.415.298s-.5.51-.5.947c0 .298.106.554.319.756s.607.404 1.17.585l1.512.48c.766.244 1.32.584 1.65 1.02s.49.937.49 1.49c0 .458-.096.874-.277 1.235a2.9 2.9 0 0 1-.777.937c-.33.266-.724.458-1.182.596-.479.149-.979.223-1.522.223m2.012 5.173c-3.502 2.586-8.59 3.959-12.963 3.959-6.13 0-11.654-2.267-15.826-6.035-.33-.298-.032-.702.362-.468 4.512 2.618 10.078 4.204 15.836 4.204 3.885 0 8.153-.809 12.08-2.47.585-.265 1.085.384.51.81m-2.64-1.799c1.139-.138 3.65-.436 4.098.138.447.564-.5 2.938-.926 3.991-.128.32.149.448.436.203 1.873-1.575 2.363-4.864 1.98-5.343-.383-.468-3.672-.873-5.673.532-.309.224-.255.522.085.48" clip-rule="evenodd"/></svg>