<svg xmlns="http://www.w3.org/2000/svg" width="32" height="33" fill="none" viewBox="0 0 32 33"><g clip-path="url(#a)"><path fill="#111827" fill-rule="evenodd" d="m11.406 2.586 4.167-2.02v7.23l-4.167.916zm-7.23 24.39V5.839l-1.808.954v19.23zm23.649 0V5.839l1.807.954v19.23zm-12.252-1.779-4.167-.878v6.264l4.167 1.845zm-4.92-17.953L5.13 5.788l-.05 21.289 5.523-1.456v-2.16l5.623-1.003 5.272 1.054v2.109l5.423 1.456V5.787l-5.423 1.507v2.36l-5.523 1.054-5.322-1.104zm10.092 5.824-4.167-.502v7.783l4.167-.603zm-9.34 0 4.168-.502v7.783l-4.167-.603zM16.579.566l4.167 2.02V8.85l-4.167-.916zm4.167 23.753-4.167.878v7.369l4.167-1.983zM15.987 8.665l-2.625.617 2.6.67 2.676-.618zM13.362 23.83l2.625-.617 2.65.669-2.676.617z" clip-rule="evenodd"/></g><defs><clipPath id="a"><path fill="#fff" d="M0 .566h32v32H0z"/></clipPath></defs></svg>