<svg xmlns="http://www.w3.org/2000/svg" width="32" height="33" fill="none" viewBox="0 0 32 33"><path fill="#111827" fill-rule="evenodd" d="M12.645.852C5.419 2.394 0 8.814 0 16.5c0 8.837 7.163 16 16 16s16-7.163 16-16-7.163-16-16-16q-.555 0-1.103.037c-.674 1.678-1.143 3.49-1.539 5.317-.286 1.32.748 2.597 2.137 2.597 1.2 0 2.172-.972 2.172-2.172v-.358a1 1 0 1 1 2 0v.358a4.17 4.17 0 0 1-4.172 4.172c-2.626 0-4.656-2.417-4.091-5.02.326-1.506.713-3.063 1.24-4.579M10 18.5a2 2 0 1 0 0-4 2 2 0 0 0 0 4m12 0a2 2 0 1 0 0-4 2 2 0 0 0 0 4m-.84 5.779a1.333 1.333 0 0 0-1.473-2.223 6.67 6.67 0 0 1-7.373 0 1.333 1.333 0 1 0-1.473 2.223 9.34 9.34 0 0 0 10.32 0" clip-rule="evenodd"/></svg>