<svg xmlns="http://www.w3.org/2000/svg" width="32" height="33" fill="none" viewBox="0 0 32 33"><path fill="#111827" fill-rule="evenodd" d="M9.98 2.898h-1v2.85a1 1 0 0 0 2 0v-.85h11.914a1 1 0 1 0 0-2H9.98Zm8.924 14.1c-1.902 1.422-4.978 2.345-8.45 2.345-3.473 0-6.55-.923-8.45-2.344v1.797c0 .886.671 1.909 2.246 2.767 1.537.839 3.728 1.388 6.203 1.388 2.476 0 4.667-.55 6.204-1.388 1.574-.858 2.247-1.88 2.247-2.766v-1.798Zm-18.9-3.216v10.169c0 1.961 1.442 3.516 3.288 4.523 1.884 1.027 4.417 1.632 7.161 1.632 2.744 0 5.278-.605 7.161-1.632 1.846-1.007 3.29-2.562 3.29-4.523V13.782c.002-.046.003-.093.003-.14 0-3.15-4.68-5.702-10.454-5.702C4.68 7.94 0 10.493 0 13.642c0 .047.001.094.003.14Zm2 10.17v-1.486c.393.317.828.602 1.288.853 1.884 1.028 4.417 1.632 7.161 1.632 2.744 0 5.278-.604 7.161-1.632.46-.25.895-.536 1.29-.853v1.485c0 .886-.673 1.908-2.247 2.767-1.537.838-3.729 1.388-6.204 1.388-2.475 0-4.666-.55-6.203-1.388-1.575-.859-2.247-1.881-2.247-2.767Zm26.065-11.009a1 1 0 0 1 1 1v10.943h-6.183a1 1 0 1 1 0-2h4.183v-8.943a1 1 0 0 1 1-1Zm-4.786-6.71a2.748 2.748 0 0 1 1.156.045c.283-.554.835-1.336 1.34-1.7a3.926 3.926 0 0 1 5.436 5.54c-.2.259-.427.5-.65.715-.64.614-1.524.856-2.411.856h-4.398a2.75 2.75 0 0 1-.473-5.455Z" clip-rule="evenodd"/></svg>