<svg xmlns="http://www.w3.org/2000/svg" width="34" height="32" fill="none" viewBox="0 0 34 32"><path fill="#111827" stroke="#111827" stroke-width="2" d="M5.572 10.714a5 5 0 0 1 5-5h12.857a5 5 0 0 1 5 5v19.643a.5.5 0 0 1-.5.5H6.072a.5.5 0 0 1-.5-.5V10.714Z"/><path stroke="#111827" stroke-linecap="round" stroke-width="2" d="M21.572 5.714V3.143a2 2 0 0 0-2-2h-5.143a2 2 0 0 0-2 2v2.571M5.571 20.021H3a2 2 0 0 0-2 2v5.143a2 2 0 0 0 2 2h2.571M28.429 20.021H31a2 2 0 0 1 2 2v5.143a2 2 0 0 1-2 2h-2.571"/><path fill="#111827" d="M24.09 21.872v-1h-2v1h2Zm-2 .34a1 1 0 1 0 2 0h-2Zm0-.34v.34h2v-.34h-2Z"/><path fill="#111827" fill-rule="evenodd" d="M12.134 20.555c3.15.686 6.753.7 9.956-.043v1.7a1 1 0 1 0 2 0v-2.284c.949-.34 1.839-.759 2.643-1.258 1.162-.72 1.696-2.074 1.696-3.44v-4.516a5 5 0 0 0-5-5H10.572a5 5 0 0 0-5 5v4.603c0 1.315.492 2.623 1.606 3.323.866.544 1.866 1.001 2.956 1.367v2.205a1 1 0 0 0 2 0v-1.657Zm0 0V17.83a1 1 0 1 0-2 0v2.176a19.02 19.02 0 0 0 2 .548Zm11.956-.627v-2.097a1 1 0 1 0-2 0v2.681c.688-.16 1.357-.354 2-.584Z" clip-rule="evenodd"/><path fill="#111827" d="M12.134 21.872v-1h-2v1h2Zm-2 .34a1 1 0 1 0 2 0h-2Zm0-.34v.34h2v-.34h-2Z"/></svg>