<svg xmlns="http://www.w3.org/2000/svg" width="32" height="33" fill="none" viewBox="0 0 32 33"><path fill="#111827" fill-rule="evenodd" d="M28.312 12.812c0 6.802-5.51 14.774-12.312 14.774S3.688 19.614 3.688 12.812a12.312 12.312 0 0 1 24.624 0ZM16.245 5.368a1 1 0 0 1 1.15-.822 8.356 8.356 0 0 1 6.87 6.87 1 1 0 0 1-1.972.329 6.356 6.356 0 0 0-5.226-5.226 1 1 0 0 1-.822-1.151Zm-1.868 22.667L12.735 31.8a.5.5 0 0 0 .458.7h5.532a.5.5 0 0 0 .462-.69l-1.547-3.765a.5.5 0 0 0-.463-.31h-2.342a.5.5 0 0 0-.458.3Z" clip-rule="evenodd"/></svg>