<svg xmlns="http://www.w3.org/2000/svg" width="32" height="32" fill="none" viewBox="0 0 32 32"><path fill="#111827" fill-rule="evenodd" d="M29.707 11.41a6.447 6.447 0 0 0-9.118-9.117l-5.296 5.296L10.703 3A5.447 5.447 0 1 0 3 10.705l4.589 4.589-5.296 5.296a6.447 6.447 0 1 0 9.118 9.118l5.296-5.296 4.59 4.59A5.447 5.447 0 1 0 29 21.295l-4.59-4.589 5.297-5.296Zm-6.71 3.883 5.296-5.296a4.447 4.447 0 0 0-6.29-6.29l-5.296 5.296 6.29 6.29Zm-7.704 7.704-6.29-6.29-5.296 5.296a4.447 4.447 0 1 0 6.29 6.29l5.296-5.296ZM16 11.03 11.03 16 16 20.97 20.97 16 16 11.03ZM18.043 16a2.043 2.043 0 1 1-4.086 0 2.043 2.043 0 0 1 4.086 0Z" clip-rule="evenodd"/></svg>