<svg width="33" height="33" fill="none" xmlns="http://www.w3.org/2000/svg"><path fill-rule="evenodd" clip-rule="evenodd" d="M26.924 13.219a4.88 4.88 0 0 0-6.9-6.9l-3.771 3.771-3.064-3.064a3.879 3.879 0 0 0-5.486 5.486l3.064 3.064-3.771 3.771a4.88 4.88 0 0 0 6.9 6.9l3.771-3.771 3.065 3.064a3.88 3.88 0 0 0 5.485-5.486l-3.064-3.064 3.771-3.771Zm-5.185 2.357 3.771-3.772a2.879 2.879 0 1 0-4.072-4.071l-3.77 3.771 4.07 4.072Zm-5.486 5.485-4.071-4.071-3.772 3.772a2.879 2.879 0 0 0 4.072 4.071l3.771-3.771Zm.707-8.317-3.54 3.539 3.54 3.539 3.54-3.54-3.54-3.538Zm1.455 3.539a1.455 1.455 0 1 1-2.91 0 1.455 1.455 0 0 1 2.91 0Z" fill="#1C1B1F"/></svg>