<svg xmlns="http://www.w3.org/2000/svg" width="32" height="32" fill="none" viewBox="0 0 32 32"><path fill="#111827" fill-rule="evenodd" d="M15.718 3.775a.5.5 0 0 0-.539 0L2.357 11.982c-.421.269-.23.92.27.92h2.195v9.116H3.144a1 1 0 1 0 0 2h25.712a1 1 0 1 0 0-2h-2.75v-9.115h2.165c.5 0 .69-.652.27-.921L15.717 3.775Zm8.389 9.128h-4.428v9.115h4.428v-9.115Zm-6.428 0H13.25v9.115h4.428v-9.115Zm-6.428 0H6.82v9.115h4.43v-9.115ZM0 27.303a1 1 0 0 1 1-1h29.998a1 1 0 1 1 0 2H1.001a1 1 0 0 1-1-1Z" clip-rule="evenodd"/></svg>