<svg xmlns="http://www.w3.org/2000/svg" width="32" height="33" fill="none" viewBox="0 0 32 33"><path fill="#111827" fill-rule="evenodd" d="M23.5 3a1 1 0 0 0 0 2H30v6.5a1 1 0 1 0 2 0V4a1 1 0 0 0-1-1zM0 4a1 1 0 0 1 1-1h7.5a1 1 0 1 1 0 2H2v6.5a1 1 0 0 1-2 0zm9.5 6.25a1 1 0 1 0-2 0v12.5a1 1 0 1 0 2 0zm15 0a1 1 0 1 0-2 0v12.5a1 1 0 0 0 2 0zm-6-1a1 1 0 0 1 1 1v12.5a1 1 0 0 1-2 0v-12.5a1 1 0 0 1 1-1m-4 1a1 1 0 0 0-2 0v12.5a1 1 0 1 0 2 0zM31 20.5a1 1 0 0 1 1 1V29a1 1 0 0 1-1 1h-7.5a1 1 0 0 1 0-2H30v-6.5a1 1 0 0 1 1-1m-29 1a1 1 0 1 0-2 0V29a1 1 0 0 0 1 1h7.5a1 1 0 1 0 0-2H2z" clip-rule="evenodd"/></svg>