<svg xmlns="http://www.w3.org/2000/svg" width="32" height="32" fill="none" viewBox="0 0 32 32"><path fill="#111827" fill-rule="evenodd" d="M23.5 2.5a1 1 0 0 0 0 2H30V11a1 1 0 1 0 2 0V3.5a1 1 0 0 0-1-1zM0 3.5a1 1 0 0 1 1-1h7.5a1 1 0 1 1 0 2H2V11a1 1 0 0 1-2 0zm9.5 6.25a1 1 0 1 0-2 0v12.5a1 1 0 1 0 2 0zm15 0a1 1 0 1 0-2 0v12.5a1 1 0 0 0 2 0zm-6-1a1 1 0 0 1 1 1v12.5a1 1 0 0 1-2 0V9.75a1 1 0 0 1 1-1m-4 1a1 1 0 0 0-2 0v12.5a1 1 0 1 0 2 0zM31 20a1 1 0 0 1 1 1v7.5a1 1 0 0 1-1 1h-7.5a1 1 0 0 1 0-2H30V21a1 1 0 0 1 1-1M2 21a1 1 0 1 0-2 0v7.5a1 1 0 0 0 1 1h7.5a1 1 0 1 0 0-2H2z" clip-rule="evenodd"/></svg>