<svg xmlns="http://www.w3.org/2000/svg" width="32" height="32" fill="none" viewBox="0 0 32 32"><path fill="#111827" fill-rule="evenodd" d="M16 32a15.94 15.94 0 0 0 10.66-4.068q-.077-.09-.153-.183a1 1 0 1 1 1.548-1.267l.016.02A15.94 15.94 0 0 0 32 16c0-4.019-1.482-7.692-3.928-10.502l-.017.02a1 1 0 1 1-1.548-1.266q.075-.093.153-.184A15.94 15.94 0 0 0 16 0 15.94 15.94 0 0 0 5.34 4.068l.153.184a1 1 0 1 1-1.548 1.266l-.016-.02A15.94 15.94 0 0 0 0 16c0 4.019 1.482 7.692 3.929 10.502l.016-.02a1 1 0 0 1 1.548 1.267l-.153.183A15.94 15.94 0 0 0 16 32m9.848-25.14a1 1 0 0 1 .412 1.353 16.6 16.6 0 0 0-1.237 2.992 1 1 0 0 1-1.914-.58c.351-1.16.816-2.283 1.386-3.353a1 1 0 0 1 1.353-.412m-2.352 6.428a1 1 0 0 1 .897 1.093 16.6 16.6 0 0 0 0 3.238 1 1 0 1 1-1.99.196 18.6 18.6 0 0 1 0-3.63 1 1 0 0 1 1.093-.897m.28 6.84a1 1 0 0 1 1.247.667 16.6 16.6 0 0 0 1.237 2.992 1 1 0 0 1-1.765.941 18.6 18.6 0 0 1-1.386-3.354 1 1 0 0 1 .668-1.246M5.74 8.213a1 1 0 0 1 1.765-.941 18.6 18.6 0 0 1 1.386 3.354 1 1 0 1 1-1.914.58A16.6 16.6 0 0 0 5.74 8.212m1.867 6.168a1 1 0 1 1 1.99-.196 18.6 18.6 0 0 1 0 3.63 1 1 0 0 1-1.99-.196 16.6 16.6 0 0 0 0-3.238m-.63 6.414a1 1 0 1 1 1.914.58 18.6 18.6 0 0 1-1.386 3.353 1 1 0 1 1-1.765-.94 16.6 16.6 0 0 0 1.237-2.993" clip-rule="evenodd"/></svg>