<svg xmlns="http://www.w3.org/2000/svg" width="34" height="34" fill="none" viewBox="0 0 34 34"><path fill="#111827" fill-rule="evenodd" d="M16 .976a15.99 15.99 0 0 0-9.682 4.038A18.291 18.291 0 0 1 10.747 16H16V.976ZM16 18h-5.253a18.29 18.29 0 0 1-4.429 10.986A15.99 15.99 0 0 0 16 33.024V18Zm2 15.024V18h5.255a18.347 18.347 0 0 0 4.428 10.985A15.99 15.99 0 0 1 18 33.025ZM18 16V.976a15.99 15.99 0 0 1 9.683 4.04A18.347 18.347 0 0 0 23.255 16H18Zm11.095 11.558A15.988 15.988 0 0 0 33.025 18h-7.767a16.347 16.347 0 0 0 3.837 9.558Zm0-21.116A15.988 15.988 0 0 1 33.025 16h-7.767a16.346 16.346 0 0 1 3.837-9.558ZM7.538 23.244A16.291 16.291 0 0 0 8.743 18H.976a15.988 15.988 0 0 0 3.93 9.56 16.29 16.29 0 0 0 2.632-4.316Zm0-12.488A16.291 16.291 0 0 1 8.743 16H.976a15.988 15.988 0 0 1 3.93-9.56 16.291 16.291 0 0 1 2.632 4.316Z" clip-rule="evenodd"/></svg>