<svg xmlns="http://www.w3.org/2000/svg" width="32" height="32" fill="none" viewBox="0 0 32 32"><path fill="#111827" fill-rule="evenodd" d="M0 6.818c0-.585.475-1.06 1.06-1.06H8.8a5.317 5.317 0 0 1 3.817 9.019 5.922 5.922 0 0 1-2.103 11.455H1.072C.48 26.232 0 25.752 0 25.16v-9.696q0-.035.002-.068L0 15.332zm8.818 7.574H2V7.758H8.8a3.317 3.317 0 0 1 .02 6.634m-6.818 2v7.84h8.513a3.92 3.92 0 0 0 0-7.84H2m18.628-8.325a1 1 0 1 0 0 2h9.237a1 1 0 1 0 0-2zm9.892 12.402h-9.941a4.775 4.775 0 0 0 7.96 2.456 1 1 0 1 1 1.379 1.448 6.773 6.773 0 1 1 2.077-5.49c.078.916-.671 1.586-1.475 1.586m-9.941-2a4.775 4.775 0 0 1 9.336 0z" clip-rule="evenodd"/></svg>