<svg xmlns="http://www.w3.org/2000/svg" width="32" height="32" fill="none" viewBox="0 0 32 32"><path fill="#111827" fill-rule="evenodd" d="M26.171 16.718c-.186-1.068-.226-2.2-.158-3.352C26.386 6.99 22.386.001 16 .001c-2.524 0-4.675 1.091-6.33 2.805l19.262 21.098c.082.09.24-.024.18-.13-.863-1.531-2.53-4.708-2.94-7.056Zm-20.337 0c-.419 2.397-2.379 5.638-3.34 7.12-.221.34.022.8.427.8h20.034l5.223 5.745a1 1 0 1 0 1.48-1.345L3.823.62a1 1 0 0 0-1.48 1.345l4.653 5.119a15.078 15.078 0 0 0-1.004 6.283c.067 1.15.028 2.283-.158 3.352Zm4 14.281a1 1 0 0 1 1-1h10.333a1 1 0 1 1 0 2H10.833a1 1 0 0 1-1-1Z" clip-rule="evenodd"/></svg>