<svg xmlns="http://www.w3.org/2000/svg" width="32" height="32" fill="none" viewBox="0 0 32 32"><path fill="#111827" fill-rule="evenodd" d="M1.593 24.214a1.045 1.045 0 0 0 .855 1.645H9.97v.184c0 1.585.64 3.102 1.772 4.218A6.068 6.068 0 0 0 16 32a6.068 6.068 0 0 0 4.258-1.74 5.921 5.921 0 0 0 1.772-4.217v-.184h7.522a1.045 1.045 0 0 0 .855-1.645l-.007-.01-.024-.035-.098-.143a37.473 37.473 0 0 1-1.485-2.39c-.862-1.515-1.714-3.289-1.95-4.642-.163-.934-.2-1.943-.14-2.993a15.479 15.479 0 0 0-.484-4.791 5.224 5.224 0 1 1-6.29-8.323A9.032 9.032 0 0 0 16 0c-3.504 0-6.302 1.928-8.137 4.593-1.827 2.654-2.76 6.11-2.567 9.408.062 1.05.024 2.059-.139 2.993-.236 1.353-1.088 3.127-1.95 4.643a37.536 37.536 0 0 1-1.583 2.532l-.024.035-.006.008-.001.002Zm10.467 1.829v-.184h7.88v.184c0 1.02-.411 2.003-1.148 2.73A3.978 3.978 0 0 1 16 29.91a3.978 3.978 0 0 1-2.792-1.138 3.832 3.832 0 0 1-1.148-2.73Z" clip-rule="evenodd"/><path fill="#ED6561" d="M22.842 9.224a4 4 0 1 0 0-8 4 4 0 0 0 0 8Z"/></svg>