<svg xmlns="http://www.w3.org/2000/svg" width="32" height="32" fill="none" viewBox="0 0 32 32"><path fill="#111827" fill-rule="evenodd" d="M2.489 23.836c-.22.34.023.8.428.8h6.917v1.273c0 1.62.653 3.17 1.811 4.312A6.206 6.206 0 0 0 16 32c1.631 0 3.198-.638 4.356-1.78a6.054 6.054 0 0 0 1.811-4.311v-1.273h6.916c.405 0 .648-.46.428-.8-.962-1.482-2.922-4.723-3.34-7.12-.187-1.068-.226-2.2-.159-3.351C26.386 6.989 22.386 0 16 0 9.614 0 5.614 6.99 5.987 13.365c.068 1.151.028 2.283-.158 3.352-.419 2.396-2.378 5.637-3.34 7.119Zm17.678.8h-8.333v1.273c0 1.08.435 2.119 1.215 2.887A4.206 4.206 0 0 0 16 30c1.11 0 2.172-.435 2.952-1.204a4.054 4.054 0 0 0 1.215-2.887v-1.273Z" clip-rule="evenodd"/></svg>