<svg xmlns="http://www.w3.org/2000/svg" width="32" height="32" fill="none" viewBox="0 0 32 32"><path fill="#111827" fill-rule="evenodd" d="M26.17 16.717c-.186-1.069-.225-2.201-.158-3.352C26.386 6.989 22.386 0 16 0c-2.524 0-4.674 1.091-6.33 2.805l19.004 21.11c.08.088.23-.015.177-.121-.728-1.44-2.258-4.661-2.68-7.077M3.824.619a1 1 0 1 0-1.48 1.345l4.65 5.116a15.1 15.1 0 0 0-1.005 6.285c.068 1.151.028 2.283-.158 3.352-.419 2.396-2.378 5.637-3.34 7.119-.22.34.023.8.428.8h6.916v1.272c0 1.62.653 3.172 1.811 4.313A6.2 6.2 0 0 0 16 32c1.631 0 3.198-.638 4.356-1.78a6.05 6.05 0 0 0 1.811-4.312v-1.272h.787l5.223 5.745a1 1 0 0 0 1.48-1.345zm16.344 24.017h-8.333v1.272c0 1.08.435 2.12 1.215 2.888A4.2 4.2 0 0 0 16 30c1.11 0 2.172-.435 2.952-1.204a4.05 4.05 0 0 0 1.215-2.888z" clip-rule="evenodd"/></svg>