<svg xmlns="http://www.w3.org/2000/svg" width="32" height="32" fill="none" viewBox="0 0 32 32"><path fill="#111827" fill-rule="evenodd" d="M5.191 7.522a1 1 0 0 1 1-1h3.811a1 1 0 0 1 .88.523l1.849 3.407h6.773l-1.398-2.368a1 1 0 0 1 .86-1.508h6.925a1 1 0 0 1 1 1v1.877a1 1 0 0 1-2 0v-.877H20.72l2.932 4.963-1.722 1.018-1.243-2.105h-6.869l3.506 6.456a1 1 0 1 1-1.758.955l-3.584-6.601-1.332 1.75L9.058 13.8l1.876-2.466-1.527-2.812H6.191a1 1 0 0 1-1-1Zm16.544 7.16a6.157 6.157 0 1 0 2.117-1.242l3.096 5.269a1.227 1.227 0 1 1-2.114 1.246l-3.099-5.273ZM6.209 25.478a6.21 6.21 0 0 0 4.642-10.333l-3.71 4.93a1.227 1.227 0 1 1-1.96-1.476l3.71-4.932a6.21 6.21 0 1 0-2.683 11.81Z" clip-rule="evenodd"/></svg>