<svg xmlns="http://www.w3.org/2000/svg" width="32" height="33" fill="none" viewBox="0 0 32 33"><g clip-path="url(#a)"><path fill="#111827" fill-rule="evenodd" d="m24 30.14 8-13.857-8-13.856H8L0 16.283l8 13.856h16ZM12.174 17.471v-2.065l1.336-.013v3.435a3.67 3.67 0 0 1-1.336-1.357Zm2.5 1.804v-5.582h1.335v5.582a3.683 3.683 0 0 1-1.335 0Zm3.863-1.812v.004l.002-.006-.002.002Zm0-1.22v1.22a3.673 3.673 0 0 1-1.334 1.35v-2.57h1.334Zm-3.318-5.816a5.074 5.074 0 1 0 0 10.148 5.074 5.074 0 0 0 0-10.148Zm-7.074 5.074a7.074 7.074 0 1 1 12.733 4.245l2.683 2.683a1 1 0 0 1-1.415 1.414l-2.682-2.682a7.074 7.074 0 0 1-11.32-5.66Z" clip-rule="evenodd"/></g><defs><clipPath id="a"><path fill="#fff" d="M0 .283h32v32H0z"/></clipPath></defs></svg>