<svg xmlns="http://www.w3.org/2000/svg" width="32" height="32" fill="none" viewBox="0 0 32 32"><path fill="#111827" fill-rule="evenodd" d="m7.423 4.892-6.2 12.459a6.77 6.77 0 1 0 12.073 2.077l-.414-8.158h6.212l-.462 8.444a6.77 6.77 0 1 0 12.104-2.421l-6.156-12.4a.954.954 0 0 0-.512-.472c-1.486-.563-2.497-.538-3.976-.074a.967.967 0 0 0-.667.876l-.221 4.048H12.78l-.205-4.045a.967.967 0 0 0-.667-.88c-1.478-.463-2.489-.488-3.974.075a.954.954 0 0 0-.512.471ZM6.77 16.463a4.77 4.77 0 1 0 0 9.539 4.77 4.77 0 0 0 0-9.539Zm13.693 4.77a4.77 4.77 0 1 1 9.538 0 4.77 4.77 0 0 1-9.538 0Z" clip-rule="evenodd"/></svg>