<svg xmlns="http://www.w3.org/2000/svg" width="32" height="32" fill="none" viewBox="0 0 32 32"><path fill="#111827" fill-rule="evenodd" d="M18.05 11.65a1 1 0 0 0-1.4-.2L13.25 14V3l3.4 2.55a1 1 0 1 0 1.2-1.6l-5-3.75a1 1 0 0 0-1.6.8v13l-8.4-6.3a1 1 0 1 0-1.2 1.6l8.933 6.7-8.932 6.7a1 1 0 1 0 1.2 1.6L11.25 18v13a1 1 0 0 0 1.6.8l10-7.5a1 1 0 0 0 0-1.6L13.915 16l3.934-2.95a1 1 0 0 0 .2-1.4Zm12.406-7.606a1 1 0 0 1 0 1.414L27.413 8.5l3.043 3.043a1 1 0 0 1-1.414 1.414l-3.043-3.042-3.043 3.042a1 1 0 1 1-1.414-1.414L24.585 8.5l-3.043-3.042a1 1 0 0 1 1.414-1.414L26 7.086l3.043-3.042a1 1 0 0 1 1.414 0ZM20.583 23.5 13.25 18v11l7.333-5.5Z" clip-rule="evenodd"/></svg>