<svg xmlns="http://www.w3.org/2000/svg" width="32" height="32" fill="none" viewBox="0 0 32 32"><path fill="#111827" fill-rule="evenodd" d="M26.375 8.5a1 1 0 0 0-.4-.8l-10-7.5a1 1 0 0 0-1.6.8v13l-8.4-6.3a1 1 0 1 0-1.2 1.6L13.71 16l-8.933 6.7a1 1 0 1 0 1.2 1.6l8.4-6.3v13a1 1 0 0 0 1.6.8l9.999-7.5a1 1 0 0 0 0-1.6L17.042 16l8.933-6.7a1 1 0 0 0 .4-.8m-10 5.5V3l7.333 5.5zM4.751 17.875a1.875 1.875 0 1 0 0-3.75 1.875 1.875 0 0 0 0 3.75M29.124 16a1.875 1.875 0 1 1-3.75 0 1.875 1.875 0 0 1 3.75 0m-5.416 7.5L16.375 18v11z" clip-rule="evenodd"/></svg>