<svg xmlns="http://www.w3.org/2000/svg" width="32" height="32" fill="none" viewBox="0 0 32 32"><path fill="#111827" fill-rule="evenodd" d="M16.048 0a1 1 0 0 1 1 1v2.585h9.756a1 1 0 0 1 1 1v10.09l1.913.662c.403.139.673.517.673.943v5.407c0 5.548-6.632 8.094-13.99 10.272a1 1 0 0 1-.575-.002c-7.444-2.26-13.902-4.258-14.117-10.27-.166-4.596-.081-5.74-.03-6.023.012-.066.061-.105.124-.127l2.49-.855V4.585a1 1 0 0 1 1-1h9.756V1a1 1 0 0 1 1-1ZM6.292 13.996l8.756-3.005v11.52a1 1 0 1 0 2 0V10.95l8.756 3.032V5.585H6.292v8.41Z" clip-rule="evenodd"/></svg>