<svg xmlns="http://www.w3.org/2000/svg" width="32" height="33" fill="none" viewBox="0 0 32 33"><g clip-path="url(#a)"><path fill="#111827" fill-rule="evenodd" d="M29.856 8.132 16 .132l-3.766 2.174v8.814a7.716 7.716 0 1 1-3.523 6.702h-.003V4.341l-6.564 3.79v16l13.856 8 13.856-8v-16ZM20.528 17.6c0 .74-.196 1.436-.54 2.036v-1.163a.531.531 0 0 0 0-.37v-.133l-.159-.092a.53.53 0 0 0-.157-.09l-2.207-1.275-.25-.145-.25.145-2.207 1.274a.534.534 0 0 0-.157.09l-.159.093v.132a.53.53 0 0 0 0 .372v2.12a.53.53 0 0 0 0 .37v.208l.25.144.048.028a4.105 4.105 0 1 1 5.788-3.744Zm-5.086 2.993v.002l1.773 1.023 1.773-1.024v-2.047l-1.773-1.024-1.773 1.024v2.046Z" clip-rule="evenodd"/></g><defs><clipPath id="a"><path fill="#fff" d="M0 .132h32v32H0z"/></clipPath></defs></svg>