<svg xmlns="http://www.w3.org/2000/svg" width="32" height="33" fill="none" viewBox="0 0 32 33"><g clip-path="url(#a)"><path stroke="#111827" d="m9.21 15.334 2.793-4.837h5.586l2.792 4.837-2.792 4.837h-5.586zM5.396 15.338H9.44M20.166 15.356h5.573M5.27 24.698h2.525M12.11 19.967l-1.45 3.207M17.488 19.97l2.22 4.58"/><path fill="#111827" d="m10.994 15.335 1.9-3.293h3.803l1.901 3.293-1.9 3.293h-3.803zM25.164 15.335l1.397-2.419h2.792l1.396 2.419-1.396 2.418h-2.792zM18.445 3.147l1.74-3.015h3.483l1.74 3.015-1.74 3.016h-3.482zM5.328 3.674l1.437-2.488h2.873l1.436 2.488-1.436 2.489H6.765zM1.25 15.334l1.132-1.96h2.263l1.132 1.96-1.132 1.96H2.382zM7.447 24.717l1.131-1.96h2.263l1.132 1.96-1.132 1.96H8.578zM2.102 24.717l.89-1.54H4.77l.89 1.54-.89 1.54H2.991zM4.713 30.591l.89-1.54H7.38l.89 1.54-.89 1.54H5.602zM11.148 30.591l.889-1.54h1.779l.89 1.54-.89 1.54h-1.779zM18.492 26.19l1.092-1.893h2.187l1.093 1.893-1.093 1.893h-2.187z"/><path stroke="#111827" d="M17.435 10.766 20.38 5.84M9.392 5.697l2.739 5.024M10.667 26.336l1.677 3.415M8.752 26.232 7.216 29.48"/></g><defs><clipPath id="a"><path fill="#fff" d="M0 .132h32v32H0z"/></clipPath></defs></svg>