<svg xmlns="http://www.w3.org/2000/svg" width="32" height="32" fill="none"><path fill="#111827" fill-rule="evenodd" d="M7.396 0h4.877c-.005.044-.007.09-.007.135v15.807a1.23 1.23 0 0 0 1.967.986l4.235-3.166 4.189 3.162a1.23 1.23 0 0 0 1.972-.982V.135c0-.046-.002-.09-.007-.135h3.674c.68 0 1.231.551 1.231 1.23v24.573c0 .68-.551 1.23-1.23 1.23H7.395c-1.359 0-2.46 1.1-2.462 2.458v.047h20.91a1.23 1.23 0 1 1 0 2.462H3.704a1.23 1.23 0 0 1-1.231-1.23V4.922A4.923 4.923 0 0 1 7.396 0Zm7.324 0h7.455c-.005.044-.007.09-.007.135V13.47l-2.954-2.23a1.23 1.23 0 0 0-1.478-.003l-3.009 2.248V.136c0-.046-.002-.09-.007-.135Z" clip-rule="evenodd"/></svg>