<svg xmlns="http://www.w3.org/2000/svg" width="32" height="32" fill="none" viewBox="0 0 32 32"><path fill="#111827" fill-rule="evenodd" d="M7.396 0h4.877q-.007.067-.007.135v15.807a1.23 1.23 0 0 0 1.967.986l4.235-3.166 4.189 3.162a1.23 1.23 0 0 0 1.972-.982V.135q0-.068-.007-.135h3.674c.68 0 1.231.551 1.231 1.23v24.573c0 .68-.551 1.23-1.23 1.23H7.395c-1.359 0-2.46 1.1-2.462 2.458v.047h20.91a1.23 1.23 0 1 1 0 2.462H3.704a1.23 1.23 0 0 1-1.231-1.23V4.922A4.923 4.923 0 0 1 7.396 0m7.324 0h7.455q-.007.067-.007.135V13.47l-2.954-2.23a1.23 1.23 0 0 0-1.478-.004l-3.009 2.249V.134q0-.068-.007-.135" clip-rule="evenodd"/></svg>