<svg xmlns="http://www.w3.org/2000/svg" width="32" height="32" fill="none" viewBox="0 0 32 32"><path fill="#111827" fill-rule="evenodd" d="M0 .5A.5.5 0 0 1 .5 0h7.727a.5.5 0 0 1 .5.5v2.864h14.546V.5a.5.5 0 0 1 .5-.5H31.5a.5.5 0 0 1 .5.5v7.727a.5.5 0 0 1-.5.5h-2.864v14.546H31.5a.5.5 0 0 1 .5.5V31.5a.5.5 0 0 1-.5.5h-7.727a.5.5 0 0 1-.5-.5v-2.864H8.727V31.5a.5.5 0 0 1-.5.5H.5a.5.5 0 0 1-.5-.5v-7.727a.5.5 0 0 1 .5-.5h2.864V8.727H.5a.5.5 0 0 1-.5-.5zm23.273 26.136v-2.863a.5.5 0 0 1 .5-.5h2.863V8.727h-2.863a.5.5 0 0 1-.5-.5V5.364H8.727v2.863a.5.5 0 0 1-.5.5H5.364v14.546h2.863a.5.5 0 0 1 .5.5v2.863z" clip-rule="evenodd"/></svg>