<svg xmlns="http://www.w3.org/2000/svg" width="32" height="32" fill="none" viewBox="0 0 32 32"><path fill="#111827" fill-rule="evenodd" d="M15.999 24.976a4.977 4.977 0 1 1-9.935-.56 4.02 4.02 0 0 0 3.755-3.447 1 1 0 0 0-1.98-.282 2.02 2.02 0 0 1-2.282 1.715l-.814-.115a6.084 6.084 0 0 1 .907-11.53A5.6 5.6 0 1 1 16 7.747a5.6 5.6 0 1 1 10.35 3.01 6.085 6.085 0 0 1-.298 11.89 2.06 2.06 0 0 1-1.574-1.693l-.135-.865a1 1 0 0 0-1.976.309l.135.866a4.07 4.07 0 0 0 3.45 3.397l.002.171a4.977 4.977 0 0 1-9.951.144h-.004M11.565 8.668a1 1 0 0 1 1 1v1.106a4.87 4.87 0 0 1-4.872 4.871 1 1 0 1 1 0-2 2.87 2.87 0 0 0 2.872-2.871V9.668a1 1 0 0 1 1-1m8.32 10.292A2.886 2.886 0 0 0 17 21.825v1.129a1 1 0 1 1-2 0v-1.129a2.886 2.886 0 0 0-2.885-2.867 1 1 0 1 1 0-2A4.89 4.89 0 0 1 16 18.883a4.88 4.88 0 0 1 3.886-1.924 1 1 0 0 1 0 2m1.48-9.292a1 1 0 1 0-2 0v1.106a4.87 4.87 0 0 0 4.872 4.871 1 1 0 1 0 0-2 2.87 2.87 0 0 1-2.872-2.871z" clip-rule="evenodd"/></svg>