<svg xmlns="http://www.w3.org/2000/svg" width="32" height="32" fill="none" viewBox="0 0 32 32"><path fill="#111827" fill-rule="evenodd" d="M15.999 24.976a4.977 4.977 0 1 1-9.935-.56 4.02 4.02 0 0 0 3.755-3.447 1 1 0 0 0-1.98-.282 2.018 2.018 0 0 1-2.282 1.715l-.814-.115a6.084 6.084 0 0 1 .907-11.53A5.6 5.6 0 1 1 16 7.747a5.6 5.6 0 1 1 10.35 3.01 6.085 6.085 0 0 1-.298 11.89 2.063 2.063 0 0 1-1.574-1.693l-.135-.865a1 1 0 0 0-1.976.309l.135.866a4.067 4.067 0 0 0 3.45 3.397l.002.171a4.977 4.977 0 0 1-9.951.144h-.004ZM11.565 8.668a1 1 0 0 1 1 1v1.106a4.872 4.872 0 0 1-4.872 4.871 1 1 0 1 1 0-2 2.872 2.872 0 0 0 2.872-2.871V9.668a1 1 0 0 1 1-1Zm8.32 10.291A2.886 2.886 0 0 0 17 21.826v1.129a1 1 0 1 1-2 0v-1.129a2.886 2.886 0 0 0-2.885-2.867 1 1 0 1 1 0-2A4.886 4.886 0 0 1 16 18.883a4.883 4.883 0 0 1 3.886-1.924 1 1 0 0 1 0 2Zm1.48-9.291a1 1 0 1 0-2 0v1.106a4.872 4.872 0 0 0 4.872 4.871 1 1 0 1 0 0-2 2.872 2.872 0 0 1-2.872-2.871V9.668Z" clip-rule="evenodd"/></svg>