<svg xmlns="http://www.w3.org/2000/svg" width="32" height="32" fill="none" viewBox="0 0 32 32"><path fill="#111827" fill-rule="evenodd" d="M6.465 2.064A1 1 0 0 0 5.05 3.48l4.09 4.09a10.237 10.237 0 0 0-3.084 5.137l.013-.1H1.33a1.25 1.25 0 0 0 0 2.5h4.428v-.002V17.855H1a1 1 0 0 0 0 2h4.758v.18c0 .978.137 1.924.393 2.82H1a1 1 0 1 0 0 2h5.96A10.246 10.246 0 0 0 15 30.228V18.855a1 1 0 0 1 2 0v11.373a10.246 10.246 0 0 0 8.038-5.373h5.96a1 1 0 1 0 0-2h-5.15c.256-.896.393-1.842.393-2.82v-.18h4.758a1 1 0 1 0 0-2H26.24v-2.754.004h4.428a1.25 1.25 0 0 0 0-2.5h-4.737l.015.125a10.236 10.236 0 0 0-3.065-5.139l4.113-4.112a1 1 0 1 0-1.414-1.415l-4.322 4.322A10.194 10.194 0 0 0 16 4.934c-1.91 0-3.7.523-5.23 1.434L6.465 2.064Zm19.498 10.791H6.039l-.25 2H26.21l-.247-2Z" clip-rule="evenodd"/></svg>