<svg xmlns="http://www.w3.org/2000/svg" width="32" height="33" fill="none" viewBox="0 0 32 33"><path fill="#111827" fill-rule="evenodd" d="M28.288 4.834a1 1 0 1 0-1.239-1.57l-5.236 4.132A9.84 9.84 0 0 0 16 5.506a9.83 9.83 0 0 0-5.72 1.823L5.128 3.264a1 1 0 1 0-1.239 1.57L8.753 8.67a9.84 9.84 0 0 0-2.632 6.714v1.343h19.758v-1.344a9.84 9.84 0 0 0-2.557-6.632zM25.88 18.728h4.89a1 1 0 1 0 0-2h-4.89zH6.12v-2h-4.89a1 1 0 1 0 0 2h4.89v1.344c0 5.456 4.423 9.88 9.88 9.88 5.455 0 9.878-4.424 9.878-9.88zm-5.571-4.692a1.846 1.846 0 1 0 0-3.692 1.846 1.846 0 0 0 0 3.692m-6.77-1.846a1.846 1.846 0 1 1-3.692 0 1.846 1.846 0 0 1 3.693 0" clip-rule="evenodd"/></svg>