<svg xmlns="http://www.w3.org/2000/svg" width="32" height="33" fill="none" viewBox="0 0 32 33"><path fill="#111827" fill-rule="evenodd" d="M5.655 14.131c0-.817.098-1.611.282-2.372a.995.995 0 0 1-.39-.128L2.061 9.619a1 1 0 1 1 1-1.732L6.546 9.9l.034.02a10.034 10.034 0 0 1 9.108-5.82c4.17 0 7.746 2.544 9.26 6.165a.998.998 0 0 1 .273-.231l3.716-2.146a1 1 0 1 1 1 1.732l-3.716 2.146a.997.997 0 0 1-.757.1c.168.729.257 1.487.257 2.266v1.38H5.655v-1.38Zm.922 8.967c1.5 3.243 4.68 5.55 8.422 5.803v-11.39H5.655v-2H1a1 1 0 1 0 0 2h4.655v1.381c0 .83.101 1.638.292 2.41a.996.996 0 0 0-.476.134l-3.409 1.968a1 1 0 1 0 1 1.732l3.41-1.968a1.01 1.01 0 0 0 .105-.07Zm10.422-5.586h8.722v1.38c0 .78-.09 1.538-.257 2.266a.997.997 0 0 1 .757.1l3.716 2.146a1 1 0 0 1-1 1.732l-3.716-2.146a.998.998 0 0 1-.273-.23A10.044 10.044 0 0 1 17 28.84V17.512Zm-3.069-5.655a1.552 1.552 0 1 1-3.103 0 1.552 1.552 0 0 1 3.103 0Zm7.241 0a1.552 1.552 0 1 1-3.103 0 1.552 1.552 0 0 1 3.103 0Zm4.55 3.655h5.278a1 1 0 1 1 0 2H25.72v-2Z" clip-rule="evenodd"/></svg>