<svg xmlns="http://www.w3.org/2000/svg" width="32" height="32" fill="none" viewBox="0 0 32 32"><path fill="#111827" fill-rule="evenodd" d="M4.142 3.202a1 1 0 0 0-1 1v22.596H1a1 1 0 1 0 0 2h30a1 1 0 1 0 0-2h-1.143V11.728a1 1 0 0 0-1-1H18.142V4.202a1 1 0 0 0-1-1zm4.357 4.31a1 1 0 1 0 0 2h4.287a1 1 0 1 0 0-2zm-1 7.429a1 1 0 0 1 1-1h4.287a1 1 0 1 1 0 2H8.499a1 1 0 0 1-1-1m1 5.429a1 1 0 1 0 0 2h4.287a1 1 0 1 0 0-2zm13.928-4.286a1 1 0 1 0 0 2h2.144a1 1 0 0 0 0-2zm-1 6.357a1 1 0 0 1 1-1h2.144a1 1 0 0 1 0 2h-2.144a1 1 0 0 1-1-1m-2.285 4.357V12.727h8.715v14.071z" clip-rule="evenodd"/></svg>