<svg xmlns="http://www.w3.org/2000/svg" width="32" height="33" fill="none" viewBox="0 0 32 33"><path fill="#111827" fill-rule="evenodd" d="M4.142 3.702a1 1 0 0 0-1 1v22.596H1a1 1 0 1 0 0 2h30a1 1 0 1 0 0-2h-1.143V12.228a1 1 0 0 0-1-1H18.142V4.702a1 1 0 0 0-1-1h-13Zm4.357 4.31a1 1 0 1 0 0 2h4.287a1 1 0 0 0 0-2H8.499Zm-1 7.429a1 1 0 0 1 1-1h4.287a1 1 0 1 1 0 2H8.499a1 1 0 0 1-1-1Zm1 5.429a1 1 0 1 0 0 2h4.287a1 1 0 1 0 0-2H8.499Zm13.928-4.286a1 1 0 1 0 0 2h2.144a1 1 0 0 0 0-2h-2.144Zm-1 6.357a1 1 0 0 1 1-1h2.144a1 1 0 0 1 0 2h-2.144a1 1 0 0 1-1-1Zm-2.285 4.357V13.227h8.715v14.071h-8.715Z" clip-rule="evenodd"/></svg>