<svg width="33" height="33" fill="none" xmlns="http://www.w3.org/2000/svg"><path d="M4.96 26.14h24M22.102 21.855h1.715M22.102 17.569h1.715" stroke="#1C1B1F" stroke-width="2" stroke-linecap="round" stroke-linejoin="round"/><path fill-rule="evenodd" clip-rule="evenodd" d="M7.674 6.463a1 1 0 0 0-1 1V25.14a1 1 0 0 0 1 1h10a1 1 0 0 0 1-1V7.463a1 1 0 0 0-1-1h-10Zm3.285 3.249a1 1 0 0 0 0 2h3.429a1 1 0 1 0 0-2H10.96Zm-1 6.143a1 1 0 0 1 1-1h3.429a1 1 0 1 1 0 2H10.96a1 1 0 0 1-1-1Zm1 4.142a1 1 0 1 0 0 2h3.429a1 1 0 1 0 0-2H10.96Z" fill="#1C1B1F"/><path stroke="#1C1B1F" stroke-width="2" stroke-linejoin="round" d="M18.674 13.283h8.572V26.14h-8.572z"/></svg>