<svg xmlns="http://www.w3.org/2000/svg" width="32" height="33" fill="none" viewBox="0 0 32 33"><path fill="#111827" fill-rule="evenodd" d="M10.13.706a1 1 0 1 0-1.215 1.588l2.557 1.958a9 9 0 0 1 3.472 6.138 7.128 7.128 0 1 0-6.072 10.865h1.471A5.623 5.623 0 1 0 15 30.079V13.064v.012-2.275q.002-.05.008-.097h1.984a1 1 0 0 1 .008.125v19.25a5.623 5.623 0 1 0 4.657-8.824h1.471a7.128 7.128 0 1 0-6.072-10.864 9 9 0 0 1 3.472-6.139l2.557-1.958A1 1 0 0 0 21.869.706l-2.557 1.959A11 11 0 0 0 16 6.815a11 11 0 0 0-3.312-4.15z" clip-rule="evenodd"/></svg>