<svg xmlns="http://www.w3.org/2000/svg" width="32" height="33" fill="none" viewBox="0 0 32 33"><path fill="#111827" fill-rule="evenodd" d="M20.923 29.77h8.616a1 1 0 1 1 0 2H2.461a1 1 0 1 1 0-2h8.615V17.845H9.23A9.23 9.23 0 0 1 0 8.616a3.092 3.092 0 0 1 3.077-3.078 3.092 3.092 0 0 1 3.077 3.077 3.092 3.092 0 0 0 3.077 3.077h1.846V6.154a4.923 4.923 0 0 1 9.846 0v11.692h1.846a3.092 3.092 0 0 0 3.077-3.077 3.093 3.093 0 0 1 3.077-3.077A3.092 3.092 0 0 1 32 14.77 9.23 9.23 0 0 1 22.77 24h-1.847v5.77Z" clip-rule="evenodd"/></svg>