<svg xmlns="http://www.w3.org/2000/svg" width="32" height="32" fill="none" viewBox="0 0 32 32"><path fill="#111827" fill-rule="evenodd" d="M3.667 0a1 1 0 0 0-1 1v30a1 1 0 0 0 1 1h24.667a1 1 0 0 0 1-1V1a1 1 0 0 0-1-1zM7 5.333a1 1 0 0 1 1-1h16a1 1 0 0 1 1 1v8a1 1 0 0 1-1 1H8a1 1 0 0 1-1-1zm2 1v6h14v-6zm2.334 13a2 2 0 1 1-4 0 2 2 0 0 1 4 0m6.666 0a2 2 0 1 1-4 0 2 2 0 0 1 4 0m4.667 2a2 2 0 1 0 0-4 2 2 0 0 0 0 4M11.334 26a2 2 0 1 1-4 0 2 2 0 0 1 4 0M16 28a2 2 0 1 0 0-4 2 2 0 0 0 0 4m8.667-2a2 2 0 1 1-4 0 2 2 0 0 1 4 0" clip-rule="evenodd"/></svg>