<svg xmlns="http://www.w3.org/2000/svg" width="32" height="33" fill="none" viewBox="0 0 32 33"><path fill="#111827" fill-rule="evenodd" d="M8.25.5a1 1 0 0 1 1 1v2.583h13.5V1.5a1 1 0 1 1 2 0v2.583h4.458a1 1 0 0 1 1 1v5.75H1.792v-5.75a1 1 0 0 1 1-1H7.25V1.5a1 1 0 0 1 1-1Zm21.958 12.334H1.792V31.5a1 1 0 0 0 1 1h26.416a1 1 0 0 0 1-1V12.834Zm-7.67 4.772a1 1 0 0 1-.04 1.413l-7.535 7.105a1 1 0 0 1-1.374-.002l-4.09-3.875a1 1 0 0 1 1.375-1.452l3.404 3.225 6.847-6.456a1 1 0 0 1 1.414.042Z" clip-rule="evenodd"/></svg>