<svg xmlns="http://www.w3.org/2000/svg" width="32" height="33" fill="none" viewBox="0 0 32 33"><path fill="#111827" fill-rule="evenodd" d="M8.25.5a1 1 0 0 1 1 1v2.583h13.5V1.5a1 1 0 1 1 2 0v2.583h4.458a1 1 0 0 1 1 1v5.75H1.792v-5.75a1 1 0 0 1 1-1H7.25V1.5a1 1 0 0 1 1-1M1.792 12.834h28.416V31.5a1 1 0 0 1-1 1H2.792a1 1 0 0 1-1-1zm7.396 5.457a1 1 0 0 1 1-1h3.875a1.1 1.1 0 0 1 .906 1.725l-1.717 2.488c.325.159.628.36.893.594.615.544 1.109 1.344 1.109 2.303a3.286 3.286 0 0 1-5.844 2.063 1 1 0 1 1 1.556-1.256 1.286 1.286 0 0 0 2.288-.807c0-.241-.127-.533-.434-.805a1.95 1.95 0 0 0-1.093-.477c-.783-.062-1.346-.976-.826-1.73l1.448-2.098h-2.161a1 1 0 0 1-1-1m12.978.912a1.5 1.5 0 0 0-2.306-1.265l-1.378.877a1 1 0 0 0 1.075 1.687l.61-.388v6.573a1 1 0 1 0 2 0z" clip-rule="evenodd"/></svg>