<svg xmlns="http://www.w3.org/2000/svg" width="32" height="32" fill="none"><path fill="#111827" fill-rule="evenodd" d="M12.317 1.444a1 1 0 0 0-1.338-.941C4.577 2.804 0 8.989 0 16.248c0 .956.08 1.894.232 2.807a1 1 0 0 0 1.486.701l10.098-5.817a1 1 0 0 0 .501-.866V1.444ZM2 16.248c0-5.882 3.405-10.952 8.317-13.304v9.55l-8.282 4.772A15.143 15.143 0 0 1 2 16.248Zm14.672-.323V.557C25.154.65 32 7.553 32 16.057c0 8.56-6.94 15.5-15.5 15.5-5.72 0-10.718-3.1-13.404-7.712l13.576-7.92Z" clip-rule="evenodd"/></svg>