<svg xmlns="http://www.w3.org/2000/svg" width="32" height="32" fill="none" viewBox="0 0 32 32"><path fill="#111827" fill-rule="evenodd" d="M32 16c0 8.837-7.163 16-16 16-2.788 0-5.41-.713-7.692-1.967a.509.509 0 0 0-.37-.048l-7.14 1.813a.5.5 0 0 1-.61-.6l1.723-7.342a.509.509 0 0 0-.047-.355A15.93 15.93 0 0 1 0 16C0 7.163 7.163 0 16 0s16 7.163 16 16ZM9.666 13.333a1 1 0 0 1 1-1h10.667a1 1 0 1 1 0 2H10.667a1 1 0 0 1-1-1Zm0 5.334a1 1 0 0 1 1-1h10.667a1 1 0 1 1 0 2H10.667a1 1 0 0 1-1-1Z" clip-rule="evenodd"/></svg>