<svg xmlns="http://www.w3.org/2000/svg" width="32" height="32" fill="none" viewBox="0 0 32 32"><path fill="#111827" fill-rule="evenodd" d="M11.203 22.647a9.75 9.75 0 0 0 9.074 6.168H30V18.348a9.743 9.743 0 0 0-8.83-8.966c.198.814.303 1.664.303 2.54 0 5.768-4.556 10.474-10.27 10.725M20.566 7.6a10.75 10.75 0 0 0-9.843-6.414 10.74 10.74 0 0 0-8.72 4.455A10.67 10.67 0 0 0 0 11.154v11.004a.5.5 0 0 0 .5.5h8.735a1 1 0 0 0 .044.558 11.75 11.75 0 0 0 10.998 7.6H31a1 1 0 0 0 1-1V18.311q0-.035-.002-.07a11.67 11.67 0 0 0-2.19-6.03 11.74 11.74 0 0 0-8.534-4.828 1 1 0 0 0-.708.215" clip-rule="evenodd"/></svg>