<svg xmlns="http://www.w3.org/2000/svg" width="32" height="32" fill="none" viewBox="0 0 32 32"><path fill="#111827" fill-rule="evenodd" d="M1 .664h30a1 1 0 0 1 1 1v21.852a1 1 0 0 1-1 1H8.76a1 1 0 0 0-.63.223l-6.5 5.274A1 1 0 0 1 0 29.236V1.665a1 1 0 0 1 1-1Zm11.117 7.748a1 1 0 0 1 1.414 0l2.969 2.969 2.968-2.969a1 1 0 1 1 1.415 1.415l-2.969 2.968 2.968 2.969a1 1 0 0 1-1.414 1.414L16.5 14.209l-2.969 2.969a1 1 0 0 1-1.414-1.414l2.969-2.969-2.969-2.968a1 1 0 0 1 0-1.415Z" clip-rule="evenodd"/></svg>