<svg xmlns="http://www.w3.org/2000/svg" width="33" height="32" fill="none" viewBox="0 0 33 32"><path fill="#111827" d="M11.072 23.377c6.115 0 11.073-4.958 11.073-11.073S17.187 1.232 11.072 1.232 0 6.189 0 12.304c0 1.855.456 3.603 1.262 5.139.057.11.075.235.047.355L.188 22.575a.5.5 0 0 0 .61.599l4.635-1.177a.512.512 0 0 1 .37.048 11.024 11.024 0 0 0 5.27 1.331Z"/><path stroke="#111827" stroke-linecap="round" stroke-width="2" d="M10.498 23.423c1.53 4.282 5.622 7.345 10.43 7.345 1.907 0 3.702-.482 5.268-1.331a.512.512 0 0 1 .37-.048l4.636 1.177a.5.5 0 0 0 .61-.6l-1.12-4.776a.512.512 0 0 1 .046-.355A11.024 11.024 0 0 0 32 19.695c0-5.78-4.43-10.525-10.079-11.027"/></svg>