<svg xmlns="http://www.w3.org/2000/svg" width="32" height="32" fill="none" viewBox="0 0 32 32"><path fill="#111827" fill-rule="evenodd" d="M32 16c0 8.837-7.163 16-16 16a15.9 15.9 0 0 1-7.516-1.871 1.03 1.03 0 0 0-.74-.095l-6.148 1.56a1 1 0 0 1-1.22-1.197l1.491-6.355c.056-.24.021-.491-.092-.71A15.9 15.9 0 0 1 0 16C0 7.163 7.163 0 16 0s16 7.163 16 16m-20.888-4.888a1 1 0 0 1 1.414 0L16 14.586l3.474-3.474a1 1 0 0 1 1.415 1.414L17.414 16l3.474 3.474a1 1 0 0 1-1.414 1.414L16 17.414l-3.474 3.474a1 1 0 1 1-1.414-1.414L14.586 16l-3.474-3.474a1 1 0 0 1 0-1.414" clip-rule="evenodd"/></svg>