<svg xmlns="http://www.w3.org/2000/svg" width="32" height="32" fill="none" viewBox="0 0 32 32"><path fill="#111827" fill-rule="evenodd" d="M22.774 10.352a1 1 0 0 0-1.414-1.415l-6.386 6.386a1 1 0 0 0 1.414 1.414l6.386-6.385ZM3.708 15.293a1 1 0 0 0-1.415 1.414l6.356 6.356a1 1 0 0 0 1.414 0l.875-.876a1 1 0 1 0-1.414-1.414l-.168.168-5.648-5.648Zm25.999-4.941a1 1 0 0 0-1.414-1.415L16.289 20.941l-5.649-5.648a1 1 0 0 0-1.414 1.414l6.356 6.356a1 1 0 0 0 1.414 0l12.71-12.711Z" clip-rule="evenodd"/></svg>