<svg xmlns="http://www.w3.org/2000/svg" width="32" height="32" fill="none" viewBox="0 0 32 32"><path fill="#111827" d="M15.274.554 11.65 3.373a1 1 0 0 1-.614.21H5.149a1 1 0 0 0-1 1v5.331a1 1 0 0 1-.2.6L.481 15.138a1 1 0 0 0 .041 1.25l3.387 3.952a1 1 0 0 1 .24.65v5.42a1 1 0 0 0 1 1h5.816a1 1 0 0 1 .707.293l3.506 3.506a1 1 0 0 0 1.434-.02l3.273-3.465a1 1 0 0 1 .727-.314h6.427a1 1 0 0 0 1-1v-5.432a1 1 0 0 1 .226-.634l3.25-3.972a1 1 0 0 0 .04-1.215l-3.329-4.649a1 1 0 0 1-.187-.582V4.583a1 1 0 0 0-1-1h-6.5a1 1 0 0 1-.635-.228L16.524.572a1 1 0 0 0-1.25-.018Z"/></svg>