<svg xmlns="http://www.w3.org/2000/svg" width="32" height="32" fill="none"><path fill="#111827" fill-rule="evenodd" d="m15.261.362-3.7 2.878a1 1 0 0 1-.614.21H4.938a1 1 0 0 0-1 1v5.444a1 1 0 0 1-.2.6L.2 15.211a1 1 0 0 0 .04 1.251l3.457 4.033a1 1 0 0 1 .241.65v5.535a1 1 0 0 0 1 1h5.938a1 1 0 0 1 .707.293l3.582 3.582a1 1 0 0 0 1.434-.02l3.345-3.542a1 1 0 0 1 .727-.313h6.56a1 1 0 0 0 1-1v-5.547a1 1 0 0 1 .226-.634l3.317-4.053a1 1 0 0 0 .039-1.216l-3.395-4.742a1 1 0 0 1-.187-.582V4.451a1 1 0 0 0-1-1H20.6a1 1 0 0 1-.636-.228L16.511.38a1 1 0 0 0-1.25-.018Zm.728 23.943a1.87 1.87 0 1 0 0-3.74 1.87 1.87 0 0 0 0 3.74ZM12.81 12.03a3.18 3.18 0 1 1 3.18 3.18 1 1 0 0 0-1 1v1.951a1 1 0 1 0 2 0v-1.048a5.181 5.181 0 0 0-1-10.263 5.18 5.18 0 0 0-5.18 5.18 1 1 0 1 0 2 0Z" clip-rule="evenodd"/></svg>