<svg xmlns="http://www.w3.org/2000/svg" width="32" height="32" fill="none" viewBox="0 0 32 32"><path fill="#111827" fill-rule="evenodd" d="M11.56 3.24 15.262.362a1 1 0 0 1 1.25.018l3.452 2.843a1 1 0 0 0 .636.228h6.632a1 1 0 0 1 1 1v5.455a1 1 0 0 0 .187.582l3.395 4.742a1 1 0 0 1-.04 1.216l-3.316 4.053a1 1 0 0 0-.226.634v5.547a1 1 0 0 1-1 1h-6.56a1 1 0 0 0-.727.313l-3.345 3.542a1 1 0 0 1-1.434.02l-3.582-3.582a1 1 0 0 0-.707-.293H4.938a1 1 0 0 1-1-1v-5.534a1 1 0 0 0-.24-.651L.24 16.462a1 1 0 0 1-.041-1.25l3.538-4.718a1 1 0 0 0 .2-.6V4.451a1 1 0 0 1 1-1h6.009a1 1 0 0 0 .614-.21m10.058 10.21a1 1 0 0 0-1.415-1.415l-5.963 5.963-2.466-2.467a1 1 0 1 0-1.414 1.415l3.173 3.173a1 1 0 0 0 1.414 0z" clip-rule="evenodd"/></svg>