<svg xmlns="http://www.w3.org/2000/svg" width="32" height="33" fill="none" viewBox="0 0 32 33"><path fill="#111827" fill-rule="evenodd" d="M17.936 3.422a13.334 13.334 0 1 0 6.828 22.506 1 1 0 0 1 1.414 1.415 15.333 15.333 0 1 1 0-21.686l3.821 3.822V4.074a1 1 0 1 1 2 0v7.8a.997.997 0 0 1-1.012 1.019H23.18a1 1 0 0 1 0-2h5.405L24.763 7.07a13.334 13.334 0 0 0-6.827-3.649Zm-1.601 5.26a1 1 0 1 0-2 0v7.799a.998.998 0 0 0 .516.894l6.755 3.9a1 1 0 1 0 1-1.732l-6.271-3.62V8.68Z" clip-rule="evenodd"/></svg>