<svg xmlns="http://www.w3.org/2000/svg" width="32" height="33" fill="none"><path fill="#111827" fill-rule="evenodd" d="M0 3.667a.5.5 0 0 1 .5-.5h31a.5.5 0 0 1 .5.5v25.666a.5.5 0 0 1-.5.5H.5a.5.5 0 0 1-.5-.5V3.667Zm11.41 9.242a3.666 3.666 0 1 0 1.876 6.157 1 1 0 0 1 1.428 1.4 5.668 5.668 0 1 1 0-7.932 1 1 0 0 1-1.428 1.4 3.667 3.667 0 0 0-1.877-1.025Zm9.87.196a3.666 3.666 0 0 1 4.006.829 1 1 0 0 0 1.428-1.4 5.667 5.667 0 1 0 0 7.932 1 1 0 0 0-1.428-1.4 3.667 3.667 0 1 1-4.005-5.96Z" clip-rule="evenodd"/></svg>