<svg xmlns="http://www.w3.org/2000/svg" width="32" height="33" fill="none" viewBox="0 0 32 33"><path fill="#111827" fill-rule="evenodd" d="M7.662 6.703a7.1 7.1 0 0 1 2.99.114c.734-1.433 2.162-3.458 3.468-4.4a10.161 10.161 0 0 1 14.07 14.34 17.5 17.5 0 0 1-1.682 1.848c-1.655 1.59-3.945 2.217-6.24 2.217H8.884a7.112 7.112 0 0 1-1.222-14.12m2.444 18.135a1.768 1.768 0 1 1-3.536 0 1.768 1.768 0 0 1 3.536 0M16 27.195a1.768 1.768 0 1 1-3.537 0 1.768 1.768 0 0 1 3.537 0m5.305-.589a1.768 1.768 0 1 0 0-3.536 1.768 1.768 0 0 0 0 3.536M8.927 30.732a1.768 1.768 0 1 1-3.537 0 1.768 1.768 0 0 1 3.537 0M20.126 32.5a1.768 1.768 0 1 0 0-3.537 1.768 1.768 0 0 0 0 3.537" clip-rule="evenodd"/></svg>