<svg width="33" height="33" fill="none" xmlns="http://www.w3.org/2000/svg"><path fill-rule="evenodd" clip-rule="evenodd" d="M10.706 9.435a5.335 5.335 0 0 1 2.243.086c.55-1.075 1.622-2.594 2.601-3.3a7.621 7.621 0 0 1 10.553 10.755c-.39.501-.828.97-1.262 1.386-1.24 1.192-2.96 1.662-4.68 1.662h-2.125a1 1 0 0 1 .018 1.146l-3.646 5.403a1 1 0 1 1-1.658-1.119l3.646-5.403a.996.996 0 0 1 .02-.027h-4.793a5.334 5.334 0 0 1-.917-10.589Zm8.915 13.897a1 1 0 0 1 .286 1.385l-3.034 4.615a1 1 0 0 1-1.672-1.098l3.035-4.616a1 1 0 0 1 1.385-.286Z" fill="#1C1B1F"/></svg>