<svg xmlns="http://www.w3.org/2000/svg" width="32" height="33" fill="none" viewBox="0 0 32 33"><path fill="#111827" fill-rule="evenodd" d="M7.922 6.509a6.89 6.89 0 0 1 2.897.11c.71-1.387 2.095-3.35 3.36-4.261a9.843 9.843 0 0 1 13.63 13.891 16.95 16.95 0 0 1-1.629 1.79c-1.603 1.54-3.823 2.147-6.046 2.147H17.33a.995.995 0 0 1-.168.555l-2.737 4.102h5.35a1 1 0 0 1 .831 1.555l-3.774 5.657a1 1 0 0 1-1.664-1.11l2.737-4.102h-5.35a1 1 0 0 1-.831-1.555l3.404-5.102H9.106a6.889 6.889 0 0 1-5.87-10.488 6.89 6.89 0 0 1 4.686-3.19Z" clip-rule="evenodd"/></svg>