<svg xmlns="http://www.w3.org/2000/svg" width="32" height="33" fill="none" viewBox="0 0 32 33"><path fill="#111827" fill-rule="evenodd" d="M10.736 3.069a1 1 0 0 0-1.97.35l.462 2.595a7.7 7.7 0 0 0-3.862 2.348L3.092 6.769a1 1 0 1 0-1.148 1.638l2.3 1.61a7.7 7.7 0 0 0-.76 4.373l-2.659.474a1 1 0 0 0 .35 1.969l2.811-.5a7.8 7.8 0 0 0 1.32 2.177 7.19 7.19 0 0 0-.277 9.808 7.2 7.2 0 0 0 5.39 2.438h11.514c2.32 0 4.637-.633 6.311-2.24a18 18 0 0 0 1.701-1.87A10.276 10.276 0 0 0 18.21 10.824a1 1 0 0 0-.084-.494 7.7 7.7 0 0 0-1.317-2.021l1.82-2.6a1 1 0 1 0-1.638-1.147l-1.713 2.446a7.7 7.7 0 0 0-4.06-1.227zm5.899 8.484a1 1 0 0 1-.335-.408 5.683 5.683 0 0 0-10.786 3.302A5.84 5.84 0 0 0 6.81 17.19q.044.052.08.108a7.2 7.2 0 0 1 5.318-.706c.742-1.449 2.187-3.497 3.508-4.45q.444-.32.919-.59" clip-rule="evenodd"/></svg>