<svg xmlns="http://www.w3.org/2000/svg" width="32" height="32" fill="none" viewBox="0 0 32 32"><path fill="#111827" fill-rule="evenodd" d="M9.983 11.676a8.003 8.003 0 1 0-1.989 15.755h12.807c2.582 0 5.159-.705 7.02-2.493a19.67 19.67 0 0 0 1.893-2.08 11.433 11.433 0 0 0-5.53-17.702 11.431 11.431 0 0 0-10.299 1.57c-1.47 1.06-3.076 3.338-3.902 4.95Zm3.885 5.88a1 1 0 0 0 1.415 0l3.143-3.143v9.018a1 1 0 1 0 2 0v-9.017l3.142 3.143a1 1 0 0 0 1.414-1.415L20.15 11.31a.997.997 0 0 0-1.43-.017l-4.85 4.85a1 1 0 0 0 0 1.415Z" clip-rule="evenodd"/></svg>