<svg xmlns="http://www.w3.org/2000/svg" width="32" height="33" fill="none" viewBox="0 0 32 33"><path fill="#111827" fill-rule="evenodd" d="M14.894 4.88a.996.996 0 0 1 .723-.292.997.997 0 0 1 .706.308l2.734 2.734a1 1 0 0 1-1.414 1.414l-1.041-1.042v4.673a8.087 8.087 0 0 1 8.494 2.077l3.503-3.503h-1.502a1 1 0 0 1 0-2h3.888a1 1 0 0 1 .707.293l.006.006.008.008a.999.999 0 0 1 .279.877v3.703a1 1 0 1 1-2 0v-1.444l-3.69 3.69a8.09 8.09 0 0 1-.59 8.795c-.414.532-.88 1.03-1.34 1.471-1.317 1.266-3.141 1.764-4.968 1.764h-9.062a5.663 5.663 0 0 1-3.687-9.954l-4.632-4.632v1.444a1 1 0 1 1-2 0v-3.702a.999.999 0 0 1 .278-.878l.01-.01.004-.005a1 1 0 0 1 .708-.292h3.887a1 1 0 1 1 0 2H3.401l5.006 5.006.028.03a5.66 5.66 0 0 1 3.307-.155c.585-1.14 1.722-2.752 2.762-3.502l.098-.07v-5.69l-1.043 1.042a1 1 0 1 1-1.414-1.414l2.75-2.75Z" clip-rule="evenodd"/></svg>