<svg xmlns="http://www.w3.org/2000/svg" width="33" height="33" fill="none"><g clip-path="url(#a)"><path fill="#000" d="M16.635 15.463c.435-.154 1.436-.616 1.637-1.64l-2.256-.152s-.61-.214-.94-1.253c0 0-1.362-.733-1.268-1.79 0 0 .21-1.315 1.339-1.503 0 0 1.176-.291 1.416 1.589 0 0 .553 1.592-.525 1.704 0 0-.234.513.613.536 0 0 1.03.306 1.76-.305 0 0 .495-.455 1.083-.368 0 0 .126-.226-.12-.366 0 0-1.463-1.252-1.72-3.022 0 0-1.206-.168-1.356-1.022 0 0-.282-1.322.81-1.586 0 0 .696-.16 1.05 0 0 0 .889-2.423 3.426-2.838 0 0 2.098-.493 2.846 1.094 0 0 .309.862.14 1.586 0 0-.175.792.01.995 0 0 .679-.16.96.281.282.44.405 1.384-.159 1.604 0 0 .168.75-.396 1.26 0 0-1.789 1.04-2.3 1.92 0 0-.157.202-.237.272a1.807 1.807 0 0 1-.688.378s-.212.093-.45-.024c0 0-.07.353.328.414 0 0 .753-.104 1.573-.354l5.924-2.12s-.275-.74-.055-1.102c0 0 .122-.192.232-.233.205-.079.45-.47.461-.775 0 0-.057-.773.498-.808 0 0 .533-.032.488.62l-.039.428s.814-.306 1.085.247c0 0 .55 1.115-.033 2.013 0 0-.857.844-1.985.314l-.387-.24s-6.89 2.854-6.97 3.04c0 0-.54.274-.943 1.005 0 0-1.383 2.466-2.096 3.12 0 0-.467.564-.801.704l.072.195c.462.049.8-.063.8-.063 1.288-.616 1.474-.142 1.474-.142.47.337.272 1.305.272 1.305 3.595 3.453-.272 6.837-.272 6.837-.606.264-.892 0-.892 0-.105-.159.893-1.021.893-1.021 1.825-2.187.208-4.55.208-4.55-2.697-2.906-5.4-.737-5.4-.737-1.215 1.357-1.04 2.837-1.04 2.837-.211.423-.563.247-.563.247-.476-.564 0-2.044 0-2.044.705-1.64 2.202-2.31 2.202-2.31l.226-.18c.272-1.248-.18-2.75-.18-2.75-1.232-2.942-3.316-3.438-4.04-3.52.01.061.012.076 0 0-.16-.017-.252-.016-.252-.016-3.09-.293-4.506 2.385-4.506 2.385-.826.734-.774 2.42-.774 2.42 2.032.457 2.53 1.727 2.53 1.727.142.528-.464.358-.464.358-1.884-1.529-2.83-1.602-2.83-1.602-1.92-.347-3.219.885-3.219.885-.779.54-1.47 1.708-1.47 1.708C.25 23.03.948 24.911.948 24.911c.383 1.91 2.663 3.18 2.663 3.18 1.085.563 2.245.396 2.245.396.944-.216.725.281.725.281-.266.4-.625.406-.625.406C3.918 29.308 3 28.622 3 28.622c-4.553-2.86-2.497-7.553-2.497-7.553 2.133-4.16 5.587-3.278 5.587-3.278.069-1.252 1.092-2.996 1.092-2.996 1.52-1.893 3.22-2.301 4.24-2.352l.006-.005s-.024-1.343.387-2.483c0 0 .213-.58.964-1.714.119-.18.493-.658.61-1.094 0 0 .635-1.996-1.638-2.313 0 0-.724-.128-1.197.253-.3.24-.583.382-.8.44 0 0-1.075.37-1.04-.317 0 0-.194-1.023 2.24-1.304 0 0 2.973-.51 3.32 1.85 0 0 .485 1.445-1.278 3.613 0 0-.962 1.49-.742 3.112.03.004.06.01.09.017 3.102.539 4.282 2.95 4.282 2.95l.009.015Zm.43.864 1.062 2.136c1.85-.752 2.64-3.245 2.64-3.245.506-1.256-.282-1.444-.282-1.444-.54-.141-.927.4-.927.4-1.214 1.472-2.228 2.025-2.494 2.153Zm5.711-10.87c-1.727-1.656-3.384.457-3.384.457-1.021 1.304.107 3.137.107 3.137-.459.107-.67.423-.67.423-.317 1.587 1.48 2.679 1.48 2.679 1.374.916 2.22-.283 2.22-.283.352-.81 2.255-2.15 2.255-2.15.635-.634 0-1.338 0-1.338-.67-.476-.774-1.304-.774-1.304-.054-.705.053-1.568.053-1.568-.354-.635-1.287-.053-1.287-.053Zm-4.952 1.586c-.106-.282-.466-.194-.466-.194-.714.132-.564.933-.564.933.053.556.634.644.634.644.007-.488.144-.965.396-1.383Zm6.59.624c-.08.168.089.283.089.283.236.156.457.432.457.432.107.096.273 0 .273 0 .227-.33-.166-.715-.166-.715-.264-.264-.652 0-.652 0Zm-8.211 3.11s-.176-.898-.763-1.146c0 0-.424-.11-.74.254 0 0-.582.593-.388 1.316 0 0 .335.793 1.222.957 0 0 .5.153.786-.605 0 0 .074-.235-.117-.775Zm13.105-.436c.132.152.21.405.21.405.018.593.837.56.837.56.917.04 1.244-.533 1.244-.533.274-.476.17-1.4-.134-1.571-.303-.173-.976 0-.976 0 .163-.317.064-.82.064-.82-.058-.541-.514-.23-.514-.23-.275.206-.142.794-.142.794-.013.373-.495.54-.495.54-.369.377-.094.855-.094.855Zm-7.893-2.616c-.014.16-.199.088-.199.088-.048-.347-.503-.431-.503-.431-.475.02-.474.373-.474.373-.265.164-.323-.074-.323-.074.155-.603.785-.48.785-.48.665.04.714.524.714.524Zm1.01.073s.037-.493.446-.587c0 0 .595-.19.853.342 0 0 .093.216.01.276 0 0-.187.068-.242-.256 0 0-.15-.294-.448-.231 0 0-.264.028-.33.307 0 0-.014.293-.288.149Zm-2.234 1.647c.136-.083.33-.012.453.062.134.083.28.16.422.227.278.132.566.216.88.216.165 0 .34.016.5-.007.133-.018.27-.033.405-.046a1.32 1.32 0 0 0 .479-.128c.073-.04.146-.07.218-.112.067-.042.128-.096.192-.136.03-.02.11-.078.147-.071.046.008.092.137.08.181-.09.027-.177.099-.264.14-.12.059-.23.138-.34.214-.155.106-.336.256-.435.417-.23.377-.493.763-.875.999-.2.114-.429.169-.66.158-.22 0-.5-.04-.692-.16a.813.813 0 0 1-.386-.474c-.059-.211 0-.423 0-.638 0-.166.044-.413-.035-.56-.026-.05-.037-.036-.082-.076-.035-.03-.054-.086-.036-.15.002-.011.018-.058.029-.056Zm1.721-.687a.184.184 0 0 1-.186.179.183.183 0 0 1-.187-.18c0-.098.082-.178.186-.178.103 0 .187.08.187.179Zm.767-.03a.182.182 0 0 1-.117.166.182.182 0 0 1-.07.012.183.183 0 0 1-.187-.179c0-.098.083-.178.187-.178.103 0 .187.08.187.178Z"/></g><defs><clipPath id="a"><path fill="#fff" d="M.04.283h32v32h-32z"/></clipPath></defs></svg>