<svg xmlns="http://www.w3.org/2000/svg" width="32" height="33" fill="none" viewBox="0 0 32 33"><path fill="#111827" fill-rule="evenodd" d="M7.923 6.51a6.89 6.89 0 0 1 2.896.11c.71-1.388 2.095-3.35 3.36-4.262A9.843 9.843 0 0 1 27.81 16.25a16.94 16.94 0 0 1-1.629 1.79c-1.603 1.54-3.823 2.146-6.046 2.146h-3.138a1 1 0 0 1 .176 1.317l-4.71 6.98a1 1 0 0 1-1.657-1.12l4.71-6.979c.05-.075.109-.141.174-.198H9.106A6.89 6.89 0 0 1 7.923 6.51Zm11.354 18.193a1 1 0 0 1 .286 1.385l-3.92 5.961a1 1 0 1 1-1.67-1.099l3.919-5.961a1 1 0 0 1 1.385-.286Z" clip-rule="evenodd"/></svg>