<svg xmlns="http://www.w3.org/2000/svg" width="32" height="32" fill="none" viewBox="0 0 32 32"><path fill="#111827" fill-rule="evenodd" d="M4.752 1.577a1 1 0 0 1 1.409.12l23 27.317a1 1 0 0 1-1.53 1.288l-2.376-2.823H8.426A8.435 8.435 0 0 1 1.24 14.641a8.43 8.43 0 0 1 8.927-3.85q.204-.41.389-.767L4.63 2.986a1 1 0 0 1 .12-1.41M9.3 12.67a6.436 6.436 0 0 0-7.25 5.57 6.434 6.434 0 0 0 6.377 7.239h15.058L11.919 11.76c-.232.47-.47.97-.687 1.475-.457 1.07-.743 2.005-.743 2.624a1 1 0 1 1-2 0c0-.991.384-2.158.811-3.19m4.45-6.989a12.093 12.093 0 0 1 15.832 17.661q-.15.192-.304.38c-.38.46-1.08.446-1.47-.007L13.548 7.103c-.382-.444-.303-1.123.201-1.422" clip-rule="evenodd"/></svg>