<svg xmlns="http://www.w3.org/2000/svg" width="32" height="33" fill="none"><path fill="#111827" fill-rule="evenodd" d="M7.662 6.703a7.113 7.113 0 0 1 2.99.114c.734-1.433 2.162-3.458 3.468-4.4a10.161 10.161 0 0 1 14.07 14.34 17.492 17.492 0 0 1-1.682 1.848c-1.655 1.59-3.945 2.216-6.24 2.216H8.884A7.112 7.112 0 0 1 7.662 6.704Zm2.444 18.135a1.768 1.768 0 1 1-3.536 0 1.768 1.768 0 0 1 3.536 0ZM16 27.195a1.768 1.768 0 1 1-3.537 0 1.768 1.768 0 0 1 3.537 0Zm5.305-.589a1.768 1.768 0 1 0 0-3.536 1.768 1.768 0 0 0 0 3.536ZM8.927 30.732a1.768 1.768 0 1 1-3.537 0 1.768 1.768 0 0 1 3.537 0ZM20.125 32.5a1.768 1.768 0 1 0 0-3.537 1.768 1.768 0 0 0 0 3.537Z" clip-rule="evenodd"/></svg>