<svg xmlns="http://www.w3.org/2000/svg" width="33" height="33" fill="none"><path stroke="#111827" stroke-linecap="round" stroke-linejoin="round" stroke-width="2" d="M6.15 19.556c-1.389-.589-2.185-1.267-3.155-2.42A9.567 9.567 0 0 1 1 13.145c.706.155 1.426.235 2.15.238a9.567 9.567 0 0 0 9.552-9.552 10.201 10.201 0 0 0-.24-2.15 9.552 9.552 0 0 1 7.404 9.314c0 .15-.003.865-.018 1.015"/><path fill="#111827" d="M13.283 17.313a7.217 7.217 0 0 0-5.805 1.011 7.136 7.136 0 0 0-2.08 2.166 7.078 7.078 0 0 0-.738 5.805 7.1 7.1 0 0 0 1.472 2.611 7.164 7.164 0 0 0 2.424 1.78c.926.415 1.93.63 2.946.631h11.47c2.311 0 4.62-.626 6.287-2.216a17.533 17.533 0 0 0 1.694-1.848 10.09 10.09 0 0 0 1.582-9.126 10.148 10.148 0 0 0-2.465-4.086A10.248 10.248 0 0 0 26 11.517a10.31 10.31 0 0 0-9.222 1.397c-1.316.94-2.755 2.966-3.495 4.4Z"/></svg>