<svg xmlns="http://www.w3.org/2000/svg" width="32" height="32" fill="none" viewBox="0 0 32 32"><path fill="#111827" fill-rule="evenodd" d="M16.489.127a1 1 0 0 0-.977 0L2.107 7.628a1 1 0 0 0-.512.873v14.998a1 1 0 0 0 .512.873l13.405 7.501a1 1 0 0 0 .976 0l13.406-7.501a1 1 0 0 0 .511-.873V8.501a1 1 0 0 0-.512-.873zm-12.894 9.99v6.286L8.6 19.348a1 1 0 0 1 .492.862v5.778l6.058 3.39V16.55zm13.554 6.499v12.596l5.73-3.207V19.8a1 1 0 0 1 .493-.862l5.033-2.962V10.22zM27.37 8.508 22.19 5.61l-5.907 3.02a1 1 0 0 1-.917-.003L9.694 5.674l-4.97 2.782 11.482 6.395z" clip-rule="evenodd"/></svg>