<svg xmlns="http://www.w3.org/2000/svg" width="32" height="33" fill="none" viewBox="0 0 32 33"><path fill="#111827" fill-rule="evenodd" d="M19.302 7.421a1 1 0 0 1 .598 1.282L13.98 24.98a1 1 0 1 1-1.88-.684L18.02 8.02a1 1 0 0 1 1.282-.598M9.236 11.264a1 1 0 0 1 0 1.415L5.414 16.5l3.822 3.821a1 1 0 1 1-1.415 1.415l-4.528-4.529a1 1 0 0 1 0-1.414l4.528-4.528a1 1 0 0 1 1.415 0m14.943 0a1 1 0 0 0-1.414 1.415l3.82 3.821-3.82 3.821a1 1 0 1 0 1.414 1.415l4.528-4.529a1 1 0 0 0 0-1.414z" clip-rule="evenodd"/></svg>