<svg xmlns="http://www.w3.org/2000/svg" width="32" height="32" fill="none" viewBox="0 0 32 32"><path fill="#111827" fill-rule="evenodd" d="M15.52 2.434a1 1 0 0 1 .968 0l14.982 8.29a1 1 0 0 1 .507 1.007q.009.064.009.132v8.666c.075.488-.149.993-.601 1.256l-13.55 7.855c-.297.172-.596-.117-.596-.46v-.391l-.002.001v-7.67l6.953-4.112 5.348 2.993.448-.26V13.35l-5.36 3.154-.862.507-1.014-1.724.862-.507 5.357-3.153-12.015-6.648v7.982l4.743 2.653-5.691 3.367-5.658-3.39 4.606-2.578v-7.98L3.04 11.627l5.357 3.153.862.507-1.015 1.724-.862-.507-5.359-3.155v6.278l.547.317 5.295-2.963 6.93 4.153-.012 5.89.007.004v2.005c0 .361-.312.668-.625.487L.615 21.665c-.466-.27-.69-.8-.593-1.301v-8.501q0-.067.009-.132a1 1 0 0 1 .507-1.006z" clip-rule="evenodd"/></svg>