<svg xmlns="http://www.w3.org/2000/svg" width="32" height="32" fill="none" viewBox="0 0 32 32"><path fill="#111827" fill-rule="evenodd" d="M19.302 6.921a1 1 0 0 1 .598 1.282L13.98 24.48a1 1 0 1 1-1.88-.684L18.02 7.52a1 1 0 0 1 1.282-.598ZM9.236 10.765a1 1 0 0 1 0 1.414L5.414 16l3.822 3.822a1 1 0 1 1-1.415 1.414l-4.528-4.529a1 1 0 0 1 0-1.414l4.528-4.528a1 1 0 0 1 1.415 0Zm14.943 0a1 1 0 0 0-1.414 1.414L26.585 16l-3.82 3.822a1 1 0 1 0 1.414 1.414l4.528-4.529a1 1 0 0 0 0-1.414l-4.528-4.528Z" clip-rule="evenodd"/></svg>