<svg width="33" height="33" fill="none" xmlns="http://www.w3.org/2000/svg"><path d="M11.422 5.206v3.692M15.114 5.206v3.692M18.806 5.206v3.692M4.96 27.36h20.308" stroke="#1C1B1F" stroke-width="2" stroke-linecap="round" stroke-linejoin="round"/><path d="M10.879 27.36a10.156 10.156 0 0 1-5.919-9.231V12.59h20.308v5.539a10.156 10.156 0 0 1-5.919 9.231" fill="#1C1B1F"/><path d="M10.879 27.36a10.156 10.156 0 0 1-5.919-9.231V12.59h20.308v5.539a10.156 10.156 0 0 1-5.919 9.231" stroke="#1C1B1F" stroke-width="2" stroke-linecap="round" stroke-linejoin="round"/><path d="M25.268 12.59a3.692 3.692 0 0 1 3.692 3.693v.923a3.693 3.693 0 0 1-3.692 3.692h-.39" stroke="#1C1B1F" stroke-width="2" stroke-linecap="round" stroke-linejoin="round"/></svg>