<svg xmlns="http://www.w3.org/2000/svg" width="32" height="32" fill="none"><path fill="#111827" fill-rule="evenodd" d="M9.346 1.693a1 1 0 1 0-2 0v4.77a1 1 0 1 0 2 0v-4.77Zm4.77 0a1 1 0 1 0-2 0v4.77a1 1 0 1 0 2 0v-4.77Zm3.768-1a1 1 0 0 1 1 1v4.77a1 1 0 1 1-2 0v-4.77a1 1 0 0 1 1-1ZM1.052 29.307a1 1 0 0 0 0 2h25.18a1 1 0 1 0 0-2h-5.929a13.5 13.5 0 0 0 3.853-4.1c.453-.743.835-1.528 1.143-2.342.13.062.276.096.429.096h.503A5.77 5.77 0 0 0 32 17.192V16a5.77 5.77 0 0 0-5.77-5.77v-.019H1a1 1 0 0 0-1 1v6.536c0 2.645.72 5.234 2.075 7.46 1 1.644 2.316 3.039 3.853 4.1H1.051Zm25.18-17.076v5.516c0 1.088-.122 2.166-.36 3.214h.36a3.769 3.769 0 0 0 3.768-3.769V16a3.769 3.769 0 0 0-3.769-3.77Z" clip-rule="evenodd"/></svg>