<svg xmlns="http://www.w3.org/2000/svg" width="32" height="33" fill="none" viewBox="0 0 32 33"><g clip-path="url(#a)"><path fill="#111827" fill-rule="evenodd" d="M10.369 19.617c.86 0 2.575-.047 4.941-1.022a220 220 0 0 1 1.922-.774c2.947-1.178 7.11-2.842 10.286-4.542 2.77-1.48 3.982-3.442 3.982-6.08 0-3.661-2.969-6.63-6.63-6.63H9.523A9.523 9.523 0 0 0 0 10.093c0 5.259 3.996 9.523 10.369 9.523m2.597 6.557a6.38 6.38 0 0 1 3.933-5.892l4.833-2.005C26.619 16.248 32 19.842 32 25.134c0 4.099-3.325 7.424-7.424 7.42h-5.232a6.38 6.38 0 0 1-6.378-6.38m-12.96.188a5.49 5.49 0 0 1 10.98 0v.711a5.49 5.49 0 0 1-10.98 0z" clip-rule="evenodd"/></g><defs><clipPath id="a"><path fill="#fff" d="M0 .566h32v32H0z"/></clipPath></defs></svg>