<svg xmlns="http://www.w3.org/2000/svg" width="32" height="33" fill="none" viewBox="0 0 32 33"><path fill="#111827" fill-rule="evenodd" d="M29.986 15.704c-.83.689-1.894 1.31-3.14 1.84v6.107a14.56 14.56 0 0 0 2.12-1.475c.664-.559 1.02-1.464 1.02-2.48v-3.992ZM17 19.485c2.89-.082 5.572-.518 7.846-1.216v6.36c-2.388.989-5.095 1.525-7.846 1.624v-6.768Zm14.985-7.043a3.5 3.5 0 0 0 .015-.327c0-4.079-7.163-7.385-16-7.385S0 8.036 0 12.115c0 .168.012.336.036.502v7.163c0 1.386.463 2.873 1.64 3.886 3.443 2.964 8.72 4.526 13.992 4.6 5.277.076 10.752-1.336 14.585-4.56 1.224-1.029 1.733-2.56 1.733-4.01v-7.194l-.001-.06Zm-29.949 3.28v4.058c0 .979.327 1.839.944 2.37a13.54 13.54 0 0 0 2.174 1.512v-6.118c-1.235-.526-2.29-1.14-3.118-1.821Zm5.118 2.547v6.354c2.337.95 5.048 1.51 7.846 1.625v-6.763c-2.89-.082-5.572-.518-7.846-1.216Z" clip-rule="evenodd"/></svg>