<svg xmlns="http://www.w3.org/2000/svg" width="32" height="32" fill="none" viewBox="0 0 32 32"><path fill="#111827" fill-rule="evenodd" d="M18.787 13.539a11 11 0 0 0 1.934-.958v1.814c0 1.01-.342 1.874-.976 2.367a10 10 0 0 1-.958.658zm-2 .62c-1.32.322-2.794.529-4.359.591v4.507c1.52-.089 3.006-.382 4.359-.882zm6.07-4.631q0 .415-.136.813v.466c5.284.46 9.28 2.591 9.28 5.15q0 .352-.1.69v4.127c0 1.443-.501 3.026-1.821 4.015-2.762 2.07-6.501 2.971-10.1 2.924-3.593-.048-7.207-1.046-9.724-2.963-1.213-.924-1.686-2.364-1.73-3.688-2.556-.397-4.97-1.322-6.79-2.762C.509 17.328.078 15.82.078 14.478V10.14Q.001 9.838 0 9.528c0-2.895 5.117-5.242 11.429-5.242s11.428 2.347 11.428 5.242M10.543 21.265c.078.816.397 1.491.925 1.894.458.349.968.666 1.52.948v-2.885a19 19 0 0 1-2.445.043m4.445-.319v3.978a17.3 17.3 0 0 0 4.583.778v-4.524a23 23 0 0 1-3.673-.437q-.45.115-.91.205m6.583 4.721c1.486-.107 2.936-.398 4.262-.873V20.61a22.3 22.3 0 0 1-4.262.567v4.49m7.31-2.478q-.497.371-1.048.688v-3.873c.784-.296 1.48-.639 2.068-1.02v1.79c0 1.034-.359 1.919-1.02 2.415m-26.804-8.71v-1.937c.528.344 1.144.657 1.832.934v3.901q-.496-.3-.931-.645c-.587-.465-.9-1.28-.9-2.254m3.832 3.856V14.12c1.36.345 2.891.566 4.52.631v4.506c-1.6-.094-3.146-.41-4.52-.92" clip-rule="evenodd"/></svg>