<svg xmlns="http://www.w3.org/2000/svg" width="32" height="33" fill="none" viewBox="0 0 32 33"><g fill="#000" clip-path="url(#a)"><path d="M13.952.92a2.173 2.173 0 1 0-3.073 3.072l17.07 17.07a2.173 2.173 0 0 0 3.073-3.072L13.952.92ZM.636 11.162a2.173 2.173 0 0 1 3.073 0l17.07 17.07a2.173 2.173 0 1 1-3.072 3.073L.637 14.235a2.173 2.173 0 0 1 0-3.073ZM11.22 11.503a2.173 2.173 0 0 1 3.073 0l17.07 17.07a2.173 2.173 0 0 1-3.072 3.074L11.22 14.576a2.173 2.173 0 0 1 0-3.073Z"/></g><defs><clipPath id="a"><path fill="#fff" d="M0 .283h32v32H0z"/></clipPath></defs></svg>