<svg xmlns="http://www.w3.org/2000/svg" width="32" height="32" fill="none" viewBox="0 0 32 32"><path fill="#111827" fill-rule="evenodd" d="M2.001 16c0-7.731 6.268-14 14-14 7.73 0 13.998 6.269 13.998 14C30 23.732 23.732 30 16 30 8.27 30 2.001 23.731 2.001 16m14-16C7.163 0 0 7.165 0 16s7.163 16 16 16c8.835 0 15.998-7.164 15.998-16S24.836 0 16 0m2.73 18.475a.5.5 0 0 1-.259.253l-7.952 3.408a.5.5 0 0 1-.657-.656l3.409-7.953a.5.5 0 0 1 .252-.259l8.307-3.776a.5.5 0 0 1 .662.662z" clip-rule="evenodd"/></svg>