<svg xmlns="http://www.w3.org/2000/svg" width="32" height="33" fill="none" viewBox="0 0 32 33"><g clip-path="url(#a)"><path fill="#000" d="M16 .283a2.44 2.44 0 0 1 2.441 2.44v8.871l7.266-5.088a2.44 2.44 0 1 1 2.8 3.999l-8.252 5.778 8.252 5.778a2.44 2.44 0 1 1-2.8 3.999l-7.266-5.088v8.87a2.44 2.44 0 0 1-4.881 0v-8.87l-7.267 5.087a2.44 2.44 0 1 1-2.8-3.998l8.252-5.778-8.252-5.778a2.44 2.44 0 0 1 2.8-3.999l7.267 5.089V2.724A2.44 2.44 0 0 1 16 .283"/></g><defs><clipPath id="a"><path fill="#fff" d="M0 .283h32v32H0z"/></clipPath></defs></svg>