<svg xmlns="http://www.w3.org/2000/svg" width="32" height="32" fill="none" viewBox="0 0 32 32"><path fill="#111827" fill-rule="evenodd" d="M22.298 30.217a.5.5 0 0 1-.683-.183l-1.42-2.461a.515.515 0 0 0-.561-.24 11.7 11.7 0 0 1-2.557.282c-.878 0-1.734-.098-2.556-.282a.515.515 0 0 0-.56.24l-1.421 2.461a.5.5 0 0 1-.683.183L7.375 27.63a.5.5 0 0 1-.183-.683l1.422-2.464a.51.51 0 0 0-.072-.605 11.6 11.6 0 0 1-2.291-3.663h4.668a7.461 7.461 0 1 0 .048-8.497h-4.69a11.6 11.6 0 0 1 2.265-3.596.51.51 0 0 0 .073-.606L7.193 5.053a.5.5 0 0 1 .183-.683l4.481-2.587a.5.5 0 0 1 .683.183l1.421 2.461c.112.195.34.29.56.24a11.7 11.7 0 0 1 2.556-.282c.878 0 1.734.097 2.557.282.219.05.447-.045.56-.24l1.42-2.46a.5.5 0 0 1 .684-.184l4.481 2.588a.5.5 0 0 1 .183.683L25.54 7.517a.51.51 0 0 0 .072.605 11.6 11.6 0 0 1 2.558 4.425.51.51 0 0 0 .488.366H31.5a.5.5 0 0 1 .5.5v5.174a.5.5 0 0 1-.5.5h-2.842a.515.515 0 0 0-.488.366 11.6 11.6 0 0 1-2.557 4.424.51.51 0 0 0-.073.606l1.422 2.463a.5.5 0 0 1-.183.683zm-9.906-11.58H2.637a2.637 2.637 0 1 1 0-5.274l9.79-.068a5.87 5.87 0 0 1 10.488.132c.092.19-.052.403-.262.404l-3.627.006a2.163 2.163 0 1 0 0 4.326l3.627.006c.21 0 .354.214.261.403a5.87 5.87 0 0 1-5.277 3.297 5.81 5.81 0 0 1-5.245-3.232" clip-rule="evenodd"/></svg>