<svg xmlns="http://www.w3.org/2000/svg" width="32" height="32" fill="none"><path fill="#111827" fill-rule="evenodd" d="M16.512.23a1 1 0 0 1 1 1v3.623a1 1 0 1 1-2 0V1.23a1 1 0 0 1 1-1Zm10.867 1.208a1 1 0 0 1 1 1h-1 1V2.465c0 .013 0 .029-.002.048a5.471 5.471 0 0 1-.069.656 5.45 5.45 0 0 1-.487 1.528 4.178 4.178 0 0 1-1.416 1.63c-.69.46-1.568.734-2.648.734-.73 0-1.212.18-1.54.398a2.181 2.181 0 0 0-.735.86 3.455 3.455 0 0 0-.347 1.357v.012a1 1 0 0 1-2-.005h1l-1-.001V9.655a3.252 3.252 0 0 1 .01-.2 5.45 5.45 0 0 1 .549-2.031 4.178 4.178 0 0 1 1.414-1.63c.691-.461 1.568-.734 2.649-.734.73 0 1.212-.18 1.54-.398.333-.223.568-.526.735-.86a3.455 3.455 0 0 0 .347-1.357v-.013a1 1 0 0 1 1-.994Zm.706 13.574a1 1 0 0 0-1.415 1.414l2.415 2.415a1 1 0 0 0 1.415-1.415l-2.415-2.414Zm3.863-5.646a1 1 0 0 1-.632 1.265l-3.622 1.207a1 1 0 0 1-.633-1.897l3.622-1.208a1 1 0 0 1 1.265.633ZM8.698 6.639l-1.932 5.45L19.7 25.024l5.527-1.95a.5.5 0 0 0 .186-.827L9.522 6.452a.5.5 0 0 0-.825.187ZM3.03 22.635l2.996-8.457L17.61 25.761l-8.465 2.987-6.114-6.113Zm-.74 2.088 4.763 4.763L.667 31.74a.5.5 0 0 1-.637-.638l2.26-6.379Z" clip-rule="evenodd"/></svg>