<svg xmlns="http://www.w3.org/2000/svg" width="32" height="33" fill="none" viewBox="0 0 32 33"><path fill="#111827" fill-rule="evenodd" d="M.483 11.19 19.725.5l11.022 6.51a.999.999 0 0 1 .77.972V20.81a1 1 0 0 1-.472.85l-4.218 2.62a1 1 0 0 1-.343.214L13.839 32.35a1 1 0 0 1-1.146-.064L.483 24.852V11.19Zm26.656 10.542 2.378-1.478V9.781l-2.449 1.522c.046.114.07.24.07.37v10.06Zm-2-9.23v10.473l-4.414 2.742v-10.17a1 1 0 0 0-.04-.279l4.454-2.767Zm-10.827 6.726v10.474l4.413-2.742V16.486l-4.413 2.742Z" clip-rule="evenodd"/></svg>