<svg xmlns="http://www.w3.org/2000/svg" width="32" height="32" fill="none" viewBox="0 0 32 32"><path fill="#111827" fill-rule="evenodd" d="M32 15.912a15.95 15.95 0 0 1-4.696 11.422c-6.158 6.147-16.218 6.216-22.455.15A16 16 0 0 1 16.096.011a1.336 1.336 0 0 1 1.301 1.627 5.332 5.332 0 0 0 5.144 6.505 1.34 1.34 0 0 1 1.326 1.327 5.333 5.333 0 0 0 6.506 5.143 1.336 1.336 0 0 1 1.627 1.3m-11.333 9.432a2 2 0 1 0 0-4 2 2 0 0 0 0 4M12 22.01a2 2 0 1 1-4 0 2 2 0 0 1 4 0m-3.333-7.333a2 2 0 1 0 0-4 2 2 0 0 0 0 4m10.667.667a2 2 0 1 1-4 0 2 2 0 0 1 4 0" clip-rule="evenodd"/></svg>