<svg xmlns="http://www.w3.org/2000/svg" width="32" height="33" fill="none" viewBox="0 0 32 33"><path fill="#111827" fill-rule="evenodd" d="M12.256 1a1 1 0 0 1 1.366-.366l2.717 1.568a1 1 0 0 1 .661.925.995.995 0 0 1-.134.535L15.204 6.54a1 1 0 0 1-1.732-1l.737-1.276c-6.43.874-11.387 6.387-11.387 13.058 0 3.098 1.068 5.945 2.857 8.195a1 1 0 1 1-1.566 1.244 15.118 15.118 0 0 1-3.291-9.44c0-7.29 5.14-13.38 11.994-14.843l-.194-.112A1 1 0 0 1 12.256 1ZM17 9.686a1 1 0 1 0-2 0v.762h-.468a3.937 3.937 0 0 0 0 7.874H15v3.874h-.763a1.937 1.937 0 0 1-1.937-1.937 1 1 0 1 0-2 0 3.937 3.937 0 0 0 3.937 3.937h.763v.762a1 1 0 1 0 2 0v-.762h.761a3.937 3.937 0 1 0 0-7.874H17v-3.874h.175a1.936 1.936 0 0 1 1.937 1.937 1 1 0 0 0 2 0 3.937 3.937 0 0 0-3.937-3.937H17v-.762Zm-2 2.762h-.468a1.937 1.937 0 0 0 0 3.874H15v-3.874Zm2 5.874v3.874h.762a1.937 1.937 0 1 0 0-3.874H17Zm5.867-14.54a1 1 0 1 0-.906 1.783 13.178 13.178 0 0 1 7.217 11.757c0 3.06-1.042 5.875-2.79 8.111a1 1 0 1 0 1.575 1.232 15.118 15.118 0 0 0 3.215-9.343c0-5.913-3.38-11.034-8.31-13.54ZM8.35 28.053a1 1 0 0 0-1.162 1.628A15.114 15.114 0 0 0 16 32.5c3.058 0 5.907-.906 8.291-2.464a1 1 0 0 0-1.093-1.674A13.111 13.111 0 0 1 16 30.5c-2.854 0-5.494-.906-7.65-2.447Z" clip-rule="evenodd"/></svg>