<svg xmlns="http://www.w3.org/2000/svg" width="32" height="33" fill="none" viewBox="0 0 32 33"><path fill="#111827" fill-rule="evenodd" d="M20.46 1.501a1 1 0 0 0-2 0v3.461H13.54V1.501a1 1 0 1 0-2 0v3.461H5.462a1 1 0 0 0-1 1v6.077H1a1 1 0 1 0 0 2h3.462v4.923H1a1 1 0 1 0 0 2h3.462v6.076a1 1 0 0 0 1 1h6.077v3.461a1 1 0 1 0 2 0v-3.461h4.922v3.461a1 1 0 1 0 2 0v-3.461h6.076a1 1 0 0 0 1-1v-6.076H31a1 1 0 1 0 0-2h-3.461v-4.923h3.46a1 1 0 1 0 0-2h-3.46V5.962a1 1 0 0 0-1-1H20.46zm-9.499 11.461a1.5 1.5 0 0 1 1.5-1.5h7.077a1.5 1.5 0 0 1 1.5 1.5v7.077a1.5 1.5 0 0 1-1.5 1.5H12.46a1.5 1.5 0 0 1-1.5-1.5zm2 .5v6.077h6.077v-6.077z" clip-rule="evenodd"/></svg>