<svg xmlns="http://www.w3.org/2000/svg" width="32" height="33" fill="none" viewBox="0 0 32 33"><g clip-path="url(#a)"><path fill="#111827" fill-rule="evenodd" d="M28.627 4.831c.409-.437.374-1.13-.105-1.489a16 16 0 0 0-19.14-.065c-.487.36-.52 1.064-.1 1.502l4.028 4.196c.62.646 1.618.67 2.371.187.957-.613 1.933-.938 3.25-.934 1.32.003 2.398.337 3.416.96.773.472 1.792.442 2.41-.22zm-22.52 20.9c.369.49 1.082.513 1.515.078l4.061-4.086c.623-.627.627-1.61.165-2.364-.573-.937-.83-1.886-.835-3.202-.005-1.324.21-2.504.761-3.586.41-.807.38-1.827-.284-2.443L7.558 6.474c-.44-.407-1.133-.37-1.49.111a16 16 0 0 0 .04 19.145M9.24 28.88c-.487-.37-.507-1.083-.071-1.513L13 23.583c.63-.622 1.62-.617 2.41-.22 1.055.53 2.181.67 3.544.663s2.465-.144 3.501-.677c.784-.402 1.767-.423 2.405.184l3.907 3.722c.445.424.436 1.14-.05 1.518a16 16 0 0 1-19.478.107m9.67-7.938a4.81 4.81 0 1 0 0-9.62 4.81 4.81 0 0 0 0 9.62" clip-rule="evenodd"/></g><defs><clipPath id="a"><path fill="#fff" d="M0 .132h32v32H0z"/></clipPath></defs></svg>