<svg width="33" height="33" fill="none" xmlns="http://www.w3.org/2000/svg"><path fill-rule="evenodd" clip-rule="evenodd" d="M9.02 25.298a.509.509 0 0 1-.625-.367l-3.17-12.935a.5.5 0 0 1 .718-.562l6.52 3.435a.5.5 0 0 0 .674-.207l3.57-6.708a.5.5 0 0 1 .881-.003l3.615 6.704a.5.5 0 0 0 .684.2L28 11.45a.5.5 0 0 1 .732.54l-2.737 12.925a.51.51 0 0 1-.622.386c-3.158-.775-10.022-1.672-16.353-.004Zm4.826-3.086a31.35 31.35 0 0 1 6.561 0 1 1 0 1 0 .21-1.99 33.355 33.355 0 0 0-6.98 0 1 1 0 1 0 .209 1.99Z" fill="#1C1B1F"/></svg>