<svg xmlns="http://www.w3.org/2000/svg" width="32" height="32" fill="none" viewBox="0 0 32 32"><path fill="#111827" fill-rule="evenodd" d="M5.066 28.023a.506.506 0 0 1-.625-.366L.015 9.6a.5.5 0 0 1 .719-.561l9.32 4.91a.5.5 0 0 0 .675-.207l5.066-9.52a.5.5 0 0 1 .882-.002l5.131 9.516a.5.5 0 0 0 .684.2l8.764-4.88a.5.5 0 0 1 .732.54l-3.821 18.046a.506.506 0 0 1-.621.385c-4.213-1.066-13.744-2.358-22.48-.004Zm6.668-4.573a42.766 42.766 0 0 1 8.95 0 1 1 0 0 0 .209-1.989 44.77 44.77 0 0 0-9.368 0 1 1 0 0 0 .209 1.99Z" clip-rule="evenodd"/></svg>