<svg xmlns="http://www.w3.org/2000/svg" width="32" height="32" fill="none"><path fill="#111827" fill-rule="evenodd" d="M3.616 6.856a.5.5 0 0 0 .001.874l12.286 6.843c.081.045.175.06.269.06h.047a.684.684 0 0 0 .373-.07l11.914-6.768a.5.5 0 0 0-.003-.871L16.243.064a.5.5 0 0 0-.487 0L3.615 6.856Zm27.08 2.855a.5.5 0 0 0-.748-.435L17.424 16.39a.5.5 0 0 0-.252.434v14.482a.5.5 0 0 0 .744.437l12.523-7.008a.5.5 0 0 0 .256-.437V9.711ZM14.426 31.936a.5.5 0 0 0 .745-.436V16.748a.5.5 0 0 0-.257-.437L2.048 9.145a.5.5 0 0 0-.744.437v14.717a.5.5 0 0 0 .256.437l12.867 7.2Z" clip-rule="evenodd"/></svg>