<svg xmlns="http://www.w3.org/2000/svg" width="32" height="33" fill="none" viewBox="0 0 32 33"><path fill="#111827" fill-rule="evenodd" d="M4.855 8.695a1 1 0 0 0-1.853.753L5.46 15.5H3a1 1 0 1 0 0 2h3.273l2.765 6.805a1 1 0 0 0 1.853 0l2.764-6.805h4.69l2.765 6.805a1 1 0 0 0 1.852 0l2.765-6.805h3.274a1 1 0 1 0 0-2h-2.462L29 9.448a1 1 0 0 0-1.854-.753L24.381 15.5h-4.69l-2.764-6.805a1 1 0 0 0-1.853 0L12.309 15.5h-4.69zM8.432 17.5l1.532 3.772 1.532-3.772zm6.036-2h3.064L16 11.728zm6.036 2 1.532 3.772 1.532-3.772z" clip-rule="evenodd"/></svg>