<svg xmlns="http://www.w3.org/2000/svg" width="32" height="33" fill="none" viewBox="0 0 32 33"><path fill="#111827" fill-rule="evenodd" d="M14.38 3.5a1 1 0 1 0-2 0v2.12l-2.12-.001H8.18a1 1 0 1 0 0 2h1.08v17.76H8.18a1 1 0 0 0 0 2h4.2V29.5a1 1 0 1 0 2 0v-2.12h2.161v2.12a1 1 0 1 0 2 0v-2.12h1.08a6.2 6.2 0 0 0 2.332-11.944 5.68 5.68 0 0 0-3.412-9.796V3.5a1 1 0 1 0-2 0v2.12h-2.16V3.5Zm-1.037 4.12a1.017 1.017 0 0 0 .074 0h4.098a1.056 1.056 0 0 0 .052 0h.493a3.68 3.68 0 1 1 0 7.36h-6.8V7.619h2.083Zm-2.084 17.76v-8.4h8.361a4.2 4.2 0 0 1 0 8.4h-8.36Z" clip-rule="evenodd"/></svg>