<svg xmlns="http://www.w3.org/2000/svg" width="32" height="33" fill="none" viewBox="0 0 32 33"><path fill="#111827" fill-rule="evenodd" d="M14.38 3.5a1 1 0 1 0-2 0v2.12l-2.12-.001H8.18a1 1 0 1 0 0 2h1.08v17.76H8.18a1 1 0 0 0 0 2h4.2V29.5a1 1 0 1 0 2 0v-2.12h2.161v2.12a1 1 0 1 0 2 0v-2.12h1.08a6.2 6.2 0 0 0 2.332-11.944l.124-.12A5.68 5.68 0 0 0 18.54 5.64V3.5a1 1 0 1 0-2 0v2.12h-2.16zm-1.037 4.12h4.717a3.68 3.68 0 1 1 0 7.36h-6.8V7.619zm-2.084 17.76v-8.4h8.361a4.2 4.2 0 0 1 0 8.4z" clip-rule="evenodd"/></svg>