<svg xmlns="http://www.w3.org/2000/svg" width="32" height="32" fill="none" viewBox="0 0 32 32"><path fill="#111827" fill-rule="evenodd" d="M4.855 8.195a1 1 0 0 0-1.853.753L5.46 15H3a1 1 0 1 0 0 2h3.273l2.765 6.805a1 1 0 0 0 1.853 0L13.655 17h4.69l2.765 6.805a1 1 0 0 0 1.852 0L25.728 17h3.274a1 1 0 1 0 0-2h-2.462L29 8.948a1 1 0 0 0-1.854-.753L24.381 15h-4.69l-2.764-6.805a1 1 0 0 0-1.853 0L12.309 15h-4.69zM8.432 17l1.532 3.772L11.496 17zm6.036-2h3.064L16 11.228zm6.036 2 1.532 3.772L23.568 17z" clip-rule="evenodd"/></svg>