<svg xmlns="http://www.w3.org/2000/svg" width="32" height="33" fill="none" viewBox="0 0 32 33"><path fill="#111827" fill-rule="evenodd" d="M12.053 1.456a1 1 0 0 0-1.366-.366L5.31 4.194a1 1 0 0 0-.366 1.366l1.504 2.604a12.665 12.665 0 0 0-2.447 4.232H.998a1 1 0 0 0-1 1v6.208a1 1 0 0 0 1 1h3.004a12.665 12.665 0 0 0 2.447 4.231L4.945 27.44a1 1 0 0 0 .366 1.366l5.376 3.104a1 1 0 0 0 1.366-.366l1.502-2.603a12.735 12.735 0 0 0 4.889 0l1.503 2.603a1 1 0 0 0 1.366.366l5.376-3.104a1 1 0 0 0 .366-1.366l-1.504-2.605a12.664 12.664 0 0 0 2.446-4.231h3.005a1 1 0 0 0 1-1v-6.208a1 1 0 0 0-1-1h-3.005a12.665 12.665 0 0 0-2.446-4.232l1.504-2.604a1 1 0 0 0-.366-1.366L21.313 1.09a1 1 0 0 0-1.366.366L18.444 4.06a12.734 12.734 0 0 0-4.888 0l-1.503-2.603ZM8.55 7.803 7.177 5.426l3.644-2.104 1.37 2.375a1 1 0 0 0 1.118.468c.859-.223 1.76-.342 2.69-.342.931 0 1.833.119 2.691.342a1 1 0 0 0 1.118-.468l1.37-2.375 3.645 2.104-1.373 2.377a1 1 0 0 0 .154 1.202 10.663 10.663 0 0 1 2.691 4.656 1 1 0 0 0 .964.735h2.743v4.208H27.26a1 1 0 0 0-.965.735 10.665 10.665 0 0 1-2.691 4.655 1 1 0 0 0-.154 1.203l1.373 2.377-3.644 2.104-1.371-2.375a1 1 0 0 0-1.118-.468c-.858.223-1.76.342-2.69.342-.93 0-1.832-.12-2.69-.342a1 1 0 0 0-1.118.468l-1.371 2.375-3.644-2.104 1.373-2.377a1 1 0 0 0-.154-1.202 10.665 10.665 0 0 1-2.692-4.657 1 1 0 0 0-.964-.734H1.998v-4.208H4.74a1 1 0 0 0 .964-.735c.49-1.78 1.43-3.376 2.692-4.656a1 1 0 0 0 .154-1.202Zm.887 4.272 6.61 3.617a.492.492 0 0 1 .133.008l6.438-3.594L16 8.403l-6.563 3.672Zm13.902 8.646L16.586 24.5v-7.882l6.753-3.769v7.872Zm-7.753 3.875V16.58L8.66 12.79v7.931l6.925 3.875Z" clip-rule="evenodd"/></svg>