<svg xmlns="http://www.w3.org/2000/svg" width="32" height="32" fill="none"><path fill="#111827" fill-rule="evenodd" d="M24.415 8.81c-1.898 1.375-4.96 2.267-8.413 2.267-3.464 0-6.533-.897-8.43-2.278v17.728c0 .62.266 1.135.679 1.405 4.44 2.9 10.799 2.62 15.383-.032.473-.274.78-.831.78-1.494V8.811Zm2-2.994c.008-.092.012-.184.012-.277C26.427 2.479 21.76 0 16.002 0 10.308 0 5.68 2.425 5.578 5.436a1.012 1.012 0 0 0-.005.103v20.988c0 1.163.504 2.374 1.584 3.079 5.177 3.382 12.358 2.987 17.478.024 1.188-.687 1.78-1.967 1.78-3.224V5.816Z" clip-rule="evenodd"/></svg>