<svg xmlns="http://www.w3.org/2000/svg" width="32" height="33" fill="none" viewBox="0 0 32 33"><path fill="#111827" fill-rule="evenodd" d="m26.45 5.167.712-.265-.349-.937-1.187.442.43-1.191-.94-.34-.248.685-.208-.65-.952.304.58 1.816-5.077 5.077.707.707 5.073-5.073 1.834.599.31-.95zm-11.557-1.55-.316.689.642-.326.452.892-1.72.873v7.174h-1v-7.18l-1.694-.873.458-.89.607.314-.31-.66.906-.424.538 1.146.527-1.152zM8.497 9.831l.688-.884L8.11 8.81l.128-.991 1.086.14-.414-.995.923-.385.417 1.001.7-.899.789.614-.69.887 1.1.142-.128.992-1.108-.143 1.58 3.792-.923.384-1.584-3.801-.7.9zm9.943 0-.687-.884 1.075-.139-.128-.991-1.087.14.415-.995-.923-.385-.417 1.001-.7-.899-.789.614.69.887-1.1.142.127.992 1.108-.143-1.58 3.792.923.384 1.584-3.801.7.9zm11.961.708-.139 1.111-.992-.124.141-1.13-3.808 1.567-.38-.924 3.798-1.565-.885-.682.611-.792.879.678.14-1.115.992.124-.142 1.13 1.003-.412.381.924-.997.41.867.67-.61.792zM3.53 14.126l.876-.68-1.053-.434.382-.925 1.047.433-.151-1.12.991-.134.151 1.12.897-.694.612.79-.9.698 3.78 1.561-.382.924-3.775-1.558.153 1.127-.991.134-.153-1.128-.871.676zm6.66 4.41-3.8 1.612.868.673-.613.79-.863-.67-.135 1.092-.992-.123.133-1.082-1.024.435-.391-.92 1.057-.45-.924-.716.612-.79.887.687.137-1.108.992.123-.14 1.142 3.806-1.615zm-1.27 7.87.437-1.066-1.138.151-.132-.991 1.108-.147-.666-.896.803-.596.671.903 1.574-3.84.926.379-1.566 3.819 1.06-.14.132.99-1.117.149.696.936-.803.597-.648-.872-.41 1.002zm6.949-1.292-.678.87.789.614.697-.893.433 1.052.925-.381-.425-1.031 1.121.148.131-.99-1.131-.15.686-.88-.789-.616-.682.876-1.553-3.766-.924.381 1.557 3.778-1.098-.145-.131.991zm6.294-4.324 1.032.423.38-.925-1.03-.422.886-.671-.604-.797-.902.683-.154-1.105-.99.138.151 1.09-3.782-1.55-.38.925 3.775 1.548-.882.668.604.797.903-.684.154 1.106.99-.138zM5.571 7.105l-.264-.71-.937.349.441 1.187-1.19-.43-.34.94.684.248-.65.208.304.953 1.816-.581 5.077 5.077.707-.707-5.073-5.073.599-1.834-.95-.31zM2.545 16.17h7.174v1H2.54l-.873 1.694-.89-.458.314-.607-.66.31-.424-.906 1.146-.538L0 16.137l.416-.91.69.316-.326-.642.892-.453zm8.547 3.356-5.077 5.077.58 1.816-.952.305-.208-.65-.247.684-.94-.34.43-1.19-1.188.441-.349-.937.711-.265-.684-.223.31-.95 1.834.598 5.073-5.073zm2.867 8.06v-7.18h-1v7.174l-1.72.874.453.891.642-.326-.316.69.91.416.527-1.152.538 1.146.905-.424-.31-.66.608.313.458-.889zm2.465-8.681 5.078 5.077 1.815-.58.305.952-.65.208.684.247-.34.941-1.19-.43.441 1.187-.937.349-.264-.711-.224.684-.95-.31.599-1.834-5.074-5.073zm7.968-1.763h-7.174v-1h7.18l.873-1.695.89.458-.314.607.66-.31.425.906-1.146.538 1.151.527-.416.91-.69-.317.326.643-.891.453z" clip-rule="evenodd"/></svg>