<svg xmlns="http://www.w3.org/2000/svg" width="32" height="33" fill="none" viewBox="0 0 32 33"><path fill="#111827" fill-rule="evenodd" d="M30.972 8.587C30.742 4.19 24.132.663 16.014.663 7.97.663 1.407 4.126 1.064 8.468A.998.998 0 0 0 1 8.825v15.008c0 2.619 1.965 4.76 4.628 6.188 2.706 1.45 6.375 2.316 10.373 2.316 3.997 0 7.666-.866 10.372-2.316C29.036 28.593 31 26.45 31 23.833V8.825a1 1 0 0 0-.028-.238ZM29 12.883c-2.581 2.452-7.43 4.104-12.986 4.104-5.577 0-10.441-1.664-13.015-4.132v3.474c0 1.526 1.17 3.137 3.573 4.425 2.362 1.266 5.693 2.08 9.428 2.08 3.734 0 7.066-.814 9.427-2.08 2.404-1.288 3.573-2.9 3.573-4.425v-3.446ZM3 23.833V20.63c.734.72 1.632 1.354 2.628 1.888 2.706 1.45 6.375 2.316 10.373 2.316 3.997 0 7.666-.866 10.372-2.316.996-.534 1.894-1.168 2.628-1.889v3.205c0 1.526-1.17 3.137-3.573 4.425-2.361 1.266-5.693 2.08-9.427 2.08-3.735 0-7.066-.814-9.428-2.08C4.17 26.97 3 25.358 3 23.833Z" clip-rule="evenodd"/></svg>