<svg xmlns="http://www.w3.org/2000/svg" width="32" height="32" fill="none"><path fill="#111827" fill-rule="evenodd" d="M15.996 16.498c5.65 0 10.577-1.69 13.173-4.195v3.53c0 1.547-1.188 3.178-3.622 4.48-2.392 1.281-5.766 2.104-9.547 2.104-3.781 0-7.155-.823-9.547-2.103-2.434-1.303-3.622-2.934-3.622-4.481V12.31c2.599 2.5 7.52 4.187 13.165 4.187ZM.83 15.833V8.248c0-.112.019-.22.053-.32C1.193 3.52 7.84-.002 15.996-.002c8.137 0 14.773 3.506 15.11 7.899.04.11.063.227.063.35v15.169c0 2.641-1.984 4.802-4.678 6.244-2.736 1.465-6.447 2.34-10.49 2.34-4.045 0-7.756-.875-10.492-2.34C2.815 28.22.831 26.058.831 23.417v-7.584Zm2 4.317v3.267c0 1.547 1.188 3.178 3.622 4.48 2.392 1.281 5.766 2.104 9.547 2.104 3.781 0 7.155-.823 9.547-2.103 2.434-1.303 3.622-2.934 3.622-4.481V20.15c-.746.736-1.661 1.383-2.678 1.927-2.736 1.464-6.447 2.34-10.49 2.34-4.045 0-7.756-.876-10.492-2.34-1.016-.544-1.932-1.19-2.678-1.927Z" clip-rule="evenodd"/></svg>