<svg xmlns="http://www.w3.org/2000/svg" width="32" height="33" fill="none" viewBox="0 0 32 33"><path fill="#111827" fill-rule="evenodd" d="M18.343 2.537A7.98 7.98 0 0 1 26.156 14.9c-1.67-1.434-4.61-2.386-7.956-2.386-5.064 0-9.194 2.18-9.41 4.913a.6.6 0 0 0-.04.224v.675a5.29 5.29 0 0 1-4.13-3.651 5.287 5.287 0 0 1 5.287-6.835 10 10 0 0 0-.342 2.587 1 1 0 0 0 2 0 7.98 7.98 0 0 1 6.778-7.889m-8.335 17.81a1 1 0 0 0 .117-.051c1.648 1.493 4.648 2.491 8.075 2.491 3.497 0 6.55-1.04 8.174-2.583v2.17c0 .96-.736 1.974-2.25 2.784-1.486.797-3.582 1.31-5.933 1.31s-4.447-.513-5.934-1.31c-1.513-.81-2.249-1.825-2.249-2.785zm-1.259 0A7.286 7.286 0 1 1 10.651 5.9l.011-.022a9.98 9.98 0 1 1 16.869 10.537 1 1 0 0 1-.127.14q.184.46.21.945a.6.6 0 0 1 .019.15v9.447c0 1.648-1.237 2.996-2.913 3.894-1.703.913-4.013 1.458-6.53 1.458-2.515 0-4.825-.545-6.528-1.458-1.676-.898-2.913-2.246-2.913-3.895zm1.259 4.732v2.017c0 .96.736 1.975 2.249 2.786 1.486.796 3.583 1.308 5.934 1.308s4.447-.512 5.934-1.308c1.513-.811 2.249-1.825 2.249-2.786V25.08a7.3 7.3 0 0 1-1.654 1.189c-1.703.913-4.013 1.458-6.53 1.458-2.515 0-4.825-.545-6.528-1.458a7.3 7.3 0 0 1-1.654-1.189" clip-rule="evenodd"/></svg>