<svg xmlns="http://www.w3.org/2000/svg" width="32" height="33" fill="none" viewBox="0 0 32 33"><g clip-path="url(#a)"><path fill="#111827" d="M1.272 8.92v.96l14.735 8.298 13.22-7.409v3.017l-13.22 7.478-13.984-7.95-.751.402v5.77l14.735 8.284 13.22-7.395v2.947l-13.22 7.465-13.984-7.952-.751.417v1.029l14.735 8.285 14.721-8.285v-5.755l-.681-.417-14.04 7.951-13.164-7.534v-2.947l13.164 7.395 14.721-8.299V8.99l-.681-.403-14.04 7.951L3.524 9.476l12.483-7.061 10.342 5.824.89-.542v-.764L16.007.566z"/></g><defs><clipPath id="a"><path fill="#fff" d="M0 .566h32v32H0z"/></clipPath></defs></svg>