<svg xmlns="http://www.w3.org/2000/svg" width="32" height="33" fill="none" viewBox="0 0 32 33"><path fill="#111827" fill-rule="evenodd" d="M5.575 3.008a.969.969 0 1 0-1.37 1.37l3.368 3.368a8.44 8.44 0 0 0-2.43 4.117h4.754a12 12 0 0 1 7.595-5.294 8.4 8.4 0 0 0-4.158-1.093c-1.522 0-2.95.403-4.183 1.108zm2.458 15.276c0-1.585.308-3.099.867-4.484H4.898l.25-1.999H1.239a1.03 1.03 0 0 0 0 2.061H4.89v-.002 2.125H.968a.969.969 0 0 0 0 1.938H4.89v.003c0 .755.1 1.485.285 2.181H.968a.969.969 0 0 0 0 1.937h4.993a8.47 8.47 0 0 0 4.884 3.953 11.93 11.93 0 0 1-2.812-7.713M20.565 6.315a12.2 12.2 0 0 0-2.972.233l3.539-3.54a.969.969 0 1 1 1.37 1.37zm-9.538 11.97a8.987 8.987 0 1 1 17.975 0 8.987 8.987 0 0 1-17.975 0m16.017 8.444a10.94 10.94 0 0 1-7.03 2.543c-6.067 0-10.987-4.92-10.987-10.987s4.92-10.988 10.988-10.988 10.987 4.92 10.987 10.988c0 2.674-.955 5.125-2.543 7.03l3.249 3.25a1 1 0 0 1-1.414 1.414zM16.462 11.177a7.5 7.5 0 0 1 4.7-.607 8.4 8.4 0 0 1 .421 1.256h-6.142a7 7 0 0 1 1.02-.649m5.119.585h2.683c.918.543 1.637 1.155 2.074 1.634a1.03 1.03 0 0 1-.841.432h-3.66l-.002-.008v2.14h3.935a.969.969 0 1 1 0 1.937h-3.934v.007c0 .757-.1 1.49-.286 2.189h4.22a.969.969 0 1 1 0 1.937h-5.006a8.5 8.5 0 0 1-3.757 3.521 8.7 8.7 0 0 1-2.668-1.864v-6.76a.969.969 0 1 0-1.938 0V20.4a5.6 5.6 0 0 1-.233-1.273c-.26-2.214.43-4.017 1.388-5.363h8.272z" clip-rule="evenodd"/></svg>