<svg xmlns="http://www.w3.org/2000/svg" width="33" height="33" fill="none"><path fill="#111827" fill-rule="evenodd" d="M27.354 5.403A16 16 0 1 0 4.726 28.03 16 16 0 0 0 27.354 5.403Zm-19.301.69a.787.787 0 0 0-.95.53l-.006.02-1.063 3.937-.006.018a.781.781 0 0 0 1.506.413l.006-.019 1.063-3.937.006-.025a.781.781 0 0 0-.556-.938Zm13.656.743a.791.791 0 0 0-.956.531l-.006.019-.713 2.65c.462.227.904.495 1.319.8l.069.056.837-3.094V7.78a.786.786 0 0 0-.55-.944Zm-6.95-4.438c-.5.045-.996.116-1.488.213l-.106.019-.987 3.668-.007.02a.78.78 0 0 0 1.507.405l.006-.018 1.063-3.938.006-.019a.776.776 0 0 0 .006-.35Zm9.775 2.72-.206.774-.006.019a.78.78 0 0 0 1.506.406l.006-.019.025-.08c-.391-.367-.802-.711-1.231-1.032l-.094-.069ZM18.353 2.53l-.375 1.393-.007.02a.78.78 0 0 0 1.507.405l.006-.018.394-1.47a14.286 14.286 0 0 0-1.413-.312l-.112-.018ZM7.14 16.348c0-3.643 3.625-6.575 8.275-6.575 2.238 0 4.156.62 5.669 1.8a8.054 8.054 0 0 1 2.718 3.963l.013.037.012.044.025.081.038.15.1.35.106.4.181.663.288 1.05.462 1.725.525 1.962.844 3.157.319 1.187-.069.075a14.361 14.361 0 0 1-8.706 4.55l-.031-.206-.056-.413-.05-.3-.057-.393-.075-.482-.031-.187-.069-.456-.044-.27-.056-.35-.056-.337-.056-.325-.057-.318-.05-.313-.056-.3-.05-.287-.037-.213-.044-.206-.025-.131-.05-.263-.037-.187-.044-.232-.038-.162-.031-.156-.031-.15-.019-.1-.044-.188-.031-.137-.031-.138-.025-.087-.031-.125-.026-.12-.03-.118-.032-.112-.019-.07-.031-.105-.025-.1-.019-.07-.025-.062-.018-.056-.025-.087-.02-.063-.012-.037a4.15 4.15 0 0 0-.112-.294l-.019-.038.144-.375-.569.02-.156.005c-5.163.107-8.494-2.087-8.494-5.525Zm3.237 10.638a.777.777 0 0 1 .95-.531.775.775 0 0 1 .557.937l-.007.019-.756 2.819-.106-.044c-.458-.17-.906-.365-1.344-.581l.7-2.6.006-.02Zm4.35-1.906a.781.781 0 0 1 1.444-.138l.025.113.038.18.025.132-.006.031-.02.088v.019l-1.062 3.937-.006.019a.781.781 0 0 1-1.506-.406v-.02l1.062-3.937.006-.018Zm-6.5-4.47.05-.118c.394.344.85.656 1.35.919l-.962 3.575-.006.019a.781.781 0 0 1-1.506-.413l.006-.019 1.062-3.937.007-.025ZM4.79 16.493a.791.791 0 0 1 .956-.531c.407.112.65.531.55.944v.018l-1.062 3.938-.006.019a.781.781 0 0 1-1.507-.413v-.019l1.063-3.937.006-.019Zm23.825-.894a.788.788 0 0 1 .95-.53.781.781 0 0 1 .556.937v.025l-1.069 3.937v.019a.784.784 0 1 1-1.512-.413l.006-.018 1.063-3.938.006-.019Zm-26.856-.55a14.275 14.275 0 0 1 1.669-5.237.785.785 0 0 1 .744.969l-.007.018-1.062 3.938-.007.019a.788.788 0 0 1-1.337.293Zm24.162-4.68a.794.794 0 0 1 .957-.532.79.79 0 0 1 .556.944l-.007.018-1.062 3.938-.006.019a.782.782 0 0 1-1.507-.413l.007-.019 1.062-3.937v-.019Zm-8.799 2.33a1 1 0 1 0-1.414 1.413 1 1 0 0 0 1.414-1.414Z" clip-rule="evenodd"/></svg>