<svg xmlns="http://www.w3.org/2000/svg" width="32" height="32" fill="none" viewBox="0 0 32 32"><path fill="#111827" fill-rule="evenodd" d="M30.857 3.429H19.43c-.632 0-1.143.511-1.143 1.142V27.43c0 .63.511 1.142 1.143 1.142h11.428c.631 0 1.143-.511 1.143-1.143V4.572c0-.63-.512-1.142-1.143-1.142Zm-9 4.571a1 1 0 0 1 1-1h4.572a1 1 0 1 1 0 2h-4.571a1 1 0 0 1-1-1Zm1 3.571a1 1 0 1 0 0 2h4.572a1 1 0 1 0 0-2h-4.571Zm2.286 13.572a1.714 1.714 0 1 0 0-3.429 1.714 1.714 0 0 0 0 3.429ZM15.98 7.859H1a1 1 0 0 0-1 1v12.857a1 1 0 0 0 1 1h6.49v3.571H5.062a1 1 0 1 0 0 2H11.919a1 1 0 0 0 0-2H9.49v-3.571h6.491a1 1 0 0 0 1-1V8.859a1 1 0 0 0-1-1Z" clip-rule="evenodd"/></svg>