<svg xmlns="http://www.w3.org/2000/svg" width="32" height="32" fill="none" viewBox="0 0 32 32"><path fill="#111827" fill-rule="evenodd" d="M4.804 14.713V9.678c0-4.025 3.319-8.6 6.063-5.655.406.436.776.92 1.143 1.4 1.079 1.411 2.13 2.786 3.986 2.786 1.847 0 2.812-1.294 3.82-2.647.28-.374.562-.753.867-1.11 2.788-3.259 6.504 1.47 6.504 5.757v4.504H31a1 1 0 1 1 0 2H1a1 1 0 1 1 0-2h3.804Zm7.48 10.996a4.202 4.202 0 0 1-8.281-.995 4.2 4.2 0 0 1 8.281-.992c.037-.004.075-.007.113-.007h7.2c.04 0 .081.003.121.008a4.202 4.202 0 0 1 8.282.991 4.2 4.2 0 0 1-8.281.994c-.04.005-.081.008-.123.008h-7.2c-.038 0-.075-.003-.112-.007Z" clip-rule="evenodd"/></svg>