<svg xmlns="http://www.w3.org/2000/svg" width="32" height="33" fill="none" viewBox="0 0 32 33"><path fill="#111827" fill-rule="evenodd" d="M15.905 2.525a4.777 4.777 0 1 0 0 9.555 4.777 4.777 0 0 0 0-9.555M9.128 7.303a6.777 6.777 0 1 1 10.547 5.633 8.75 8.75 0 0 1 3.823 3.579q.054.095.084.194H31.5a.5.5 0 0 1 .5.5v14.766a.5.5 0 0 1-.5.5H.5a.5.5 0 0 1-.5-.5V17.209a.5.5 0 0 1 .5-.5h7.734q.033-.116.095-.224a8.75 8.75 0 0 1 3.806-3.55 6.77 6.77 0 0 1-3.007-5.632m1.447 9.406h10.66a6.7 6.7 0 0 0-5.33-2.629c-2.17 0-4.101 1.03-5.33 2.629m7.224 2.859a1 1 0 0 1 .607 1.277l-2.904 8.164a1 1 0 0 1-1.884-.67l2.904-8.164a1 1 0 0 1 1.277-.607m-4.753 2.038a1 1 0 0 1 .015 1.414l-1.196 1.223a.5.5 0 0 0 0 .699l1.196 1.222a1 1 0 0 1-1.43 1.399L9.41 25.292a1 1 0 0 1 0-1.399l2.222-2.271a1 1 0 0 1 1.414-.016m7.347.016a1 1 0 1 0-1.43 1.398l1.196 1.223a.5.5 0 0 1 0 .699l-1.196 1.222a1 1 0 0 0 1.43 1.399l2.221-2.271a1 1 0 0 0 0-1.399z" clip-rule="evenodd"/></svg>