<svg xmlns="http://www.w3.org/2000/svg" width="32" height="32" fill="none" viewBox="0 0 32 32"><path fill="#111827" fill-rule="evenodd" d="M10.35 5.177a1 1 0 0 0 0 1.415l4.885 4.884a1 1 0 0 0 1.414 0l4.884-4.884a1 1 0 0 0 0-1.415L16.65.293a1 1 0 0 0-1.414 0L10.35 5.177Zm0 20.232a1 1 0 0 0 0 1.414l4.885 4.884a1 1 0 0 0 1.414 0l4.884-4.884a1 1 0 0 0 0-1.414l-4.884-4.884a1 1 0 0 0-1.414 0l-4.884 4.884Zm10.175-8.652a1 1 0 0 1 0-1.414l4.884-4.884a1 1 0 0 1 1.414 0l4.884 4.884a1 1 0 0 1 0 1.414l-4.884 4.884a1 1 0 0 1-1.414 0l-4.884-4.884ZM.293 15.343a1 1 0 0 0 0 1.414l4.884 4.884a1 1 0 0 0 1.414 0l4.885-4.884a1 1 0 0 0 0-1.414L6.59 10.459a1 1 0 0 0-1.414 0L.293 15.343Z" clip-rule="evenodd"/></svg>