<svg xmlns="http://www.w3.org/2000/svg" width="34" height="34" fill="none" viewBox="0 0 34 34"><path fill="#111827" fill-rule="evenodd" d="M10.997 6.53a.5.5 0 0 0 0 .708l5.591 5.591a.5.5 0 0 0 .707 0l5.592-5.591a.5.5 0 0 0 0-.707L17.296.939a.5.5 0 0 0-.708 0zm0 20.232a.5.5 0 0 0 0 .707l5.591 5.592a.5.5 0 0 0 .707 0l5.592-5.592a.5.5 0 0 0 0-.707l-5.591-5.591a.5.5 0 0 0-.708 0zm10.174-9.359a.5.5 0 0 1 0-.707l5.591-5.591a.5.5 0 0 1 .707 0l5.592 5.591a.5.5 0 0 1 0 .707l-5.592 5.592a.5.5 0 0 1-.707 0zM.939 16.696a.5.5 0 0 0 0 .707l5.592 5.592a.5.5 0 0 0 .707 0l5.591-5.592a.5.5 0 0 0 0-.707l-5.591-5.591a.5.5 0 0 0-.707 0z" clip-rule="evenodd"/></svg>