<svg width="33" height="33" fill="none" xmlns="http://www.w3.org/2000/svg"><path fill-rule="evenodd" clip-rule="evenodd" d="M13.02 8.18a1 1 0 0 0 0 1.415l3.19 3.19a1 1 0 0 0 1.415 0l3.19-3.19a1 1 0 0 0 0-1.415l-3.19-3.19a1 1 0 0 0-1.415 0l-3.19 3.19Zm0 14.791a1 1 0 0 0 0 1.414l3.19 3.19a1 1 0 0 0 1.415 0l3.19-3.19a1 1 0 0 0 0-1.414l-3.19-3.19a1 1 0 0 0-1.415 0l-3.19 3.19Zm7.438-5.945a1 1 0 0 1 0-1.414l3.19-3.19a1 1 0 0 1 1.415 0l3.19 3.19a1 1 0 0 1 0 1.414l-3.19 3.19a1 1 0 0 1-1.415 0l-3.19-3.19ZM5.667 15.612a1 1 0 0 0 0 1.414l3.19 3.19a1 1 0 0 0 1.415 0l3.19-3.19a1 1 0 0 0 0-1.414l-3.19-3.19a1 1 0 0 0-1.415 0l-3.19 3.19Z" fill="#1C1B1F"/></svg>