<svg width="33" height="33" fill="none" xmlns="http://www.w3.org/2000/svg"><path fill-rule="evenodd" clip-rule="evenodd" d="M4.96 5.283a1 1 0 0 1 1-1h22a1 1 0 0 1 1 1v22a1 1 0 0 1-1 1h-22a1 1 0 0 1-1-1v-22Zm7.5 7a1.5 1.5 0 1 0 0-3 1.5 1.5 0 0 0 0 3Zm10.5-1.5a1.5 1.5 0 1 1-3 0 1.5 1.5 0 0 1 3 0Zm-10.5 7a1.5 1.5 0 1 0 0-3 1.5 1.5 0 0 0 0 3Zm10.5-1.5a1.5 1.5 0 1 1-3 0 1.5 1.5 0 0 1 3 0Zm-10.5 7a1.5 1.5 0 1 0 0-3 1.5 1.5 0 0 0 0 3Zm10.5-1.5a1.5 1.5 0 1 1-3 0 1.5 1.5 0 0 1 3 0Z" fill="#1C1B1F"/></svg>