<svg xmlns="http://www.w3.org/2000/svg" width="32" height="32" fill="none"><path fill="#111827" fill-rule="evenodd" d="m11.337 6.403-.766-1.865a.67.67 0 0 0-.838-.38L5.077 5.758a.67.67 0 0 0-.427.452L.025 22.554a.653.653 0 0 0 .206.68c1.722 1.435 5.378 3.947 8.823 4.648a.643.643 0 0 0 .676-.305l.977-1.616a.248.248 0 0 0-.167-.368 26.173 26.173 0 0 1-2.736-.697 1.34 1.34 0 1 1 .801-2.56 23.495 23.495 0 0 0 7.183 1.073h.018a23.494 23.494 0 0 0 7.183-1.072 1.34 1.34 0 0 1 .801 2.559c-.882.276-1.777.505-2.68.686a.202.202 0 0 0-.134.302l.225.368.785 1.278a.656.656 0 0 0 .752.288c2.335-.72 6.677-2.41 9.06-4.58a.64.64 0 0 0 .172-.663L26.938 6.2a.67.67 0 0 0-.429-.44L21.644 4.14a.67.67 0 0 0-.816.344l-.564 1.168-.266.59a.201.201 0 0 0 .154.281 28.12 28.12 0 0 1 3.607.78 1.34 1.34 0 0 1-.739 2.579 25.617 25.617 0 0 0-7.214-.986h-.018a25.617 25.617 0 0 0-7.214.986 1.34 1.34 0 0 1-.739-2.578 28.106 28.106 0 0 1 3.416-.752.11.11 0 0 0 .086-.149Zm1.627 11.795a1.7 1.7 0 1 1-3.4 0 1.7 1.7 0 0 1 3.4 0Zm9.066 0a1.7 1.7 0 1 1-3.4 0 1.7 1.7 0 0 1 3.4 0Z" clip-rule="evenodd"/></svg>