<svg xmlns="http://www.w3.org/2000/svg" width="32" height="33" fill="none"><path fill="#111827" fill-rule="evenodd" d="M14.343 6h3.315v2.999h-3.315V6ZM9.745 9.63H6.43v3h3.315v-3Zm-3.946 3.622H2.484v3h3.315v-3Zm3.946 0H6.43v3h3.315v-3Zm.631 0h3.315v3h-3.315v-3Zm7.26 0h-3.314v3h3.315v-3Zm.632 0h3.315v3h-3.315v-3ZM10.376 9.63h3.315v3h-3.315v-3Zm7.26 0h-3.314v3h3.315v-3Zm10.023 4.42c2.92-.474 4.341.868 4.341.868s-.868 3.394-4.972 3.078c-2.762 6.63-8.602 10.26-16.415 10.26-10.891 0-10.891-9.944-10.497-11.444H21.82c1.184 0 1.973-.316 2.447-.552-1.657-3.078.631-5.84.631-5.84s2.447 1.341 2.762 3.63Z" clip-rule="evenodd"/></svg>