<svg xmlns="http://www.w3.org/2000/svg" width="32" height="33" fill="none" viewBox="0 0 32 33"><path fill="#111827" fill-rule="evenodd" d="M14.367 3.546 4.76 1.1a.5.5 0 0 0-.61.371L.017 19.217c-.115.49.487.823.842.465l1.54-1.555v7.789a6 6 0 0 0 6 6h15.115a6 6 0 0 0 6-6v-7.944l1.62 1.713c.344.364.95.052.854-.439L28.532 1.494a.5.5 0 0 0-.614-.39l-9.59 2.442h-3.96Zm.499 2L4.4 16.108v9.808a4 4 0 0 0 4 4h6.556v-2.354l-2.217-2.218a1 1 0 0 1 1.414-1.414l1.804 1.804 1.804-1.804a1 1 0 0 1 1.414 1.414l-2.219 2.22v2.352h6.558a4 4 0 0 0 4-4V15.857l-9.751-10.31h-2.897Zm-2.676 13.44a1.884 1.884 0 1 1-3.767 0 1.884 1.884 0 0 1 3.767 0Zm9.417 1.884a1.884 1.884 0 1 0 0-3.767 1.884 1.884 0 0 0 0 3.767Z" clip-rule="evenodd"/></svg>