<svg xmlns="http://www.w3.org/2000/svg" width="32" height="33" fill="none" viewBox="0 0 32 33"><path fill="#1C1B1F" fill-rule="evenodd" d="M12.218 4.773c-.591 1.515-1.072 3.345-1.4 5.394h10.364c-.328-2.049-.809-3.88-1.4-5.394-.576-1.48-1.238-2.608-1.922-3.35C17.415.94 16.993.653 16.6.51a16.288 16.288 0 0 0-1.202 0c-.392.142-.814.429-1.259.912-.684.742-1.346 1.87-1.922 3.35ZM1.303 10.167h7.491c.348-2.3.881-4.38 1.56-6.121.446-1.143.965-2.167 1.553-3.018a16.038 16.038 0 0 0-10.604 9.139Zm20.343-6.121c-.446-1.144-.965-2.167-1.553-3.018a16.037 16.037 0 0 1 10.605 9.139h-7.492c-.348-2.3-.881-4.38-1.56-6.121ZM31.99 17.064a16.263 16.263 0 0 0 0-1.128v.007a15.98 15.98 0 0 0-.585-3.779H29.44c.44 1.366.678 2.823.678 4.336 0 1.519-.24 2.982-.683 4.353H31.4a15.98 15.98 0 0 0 .59-3.796v.007Zm-21.172 5.77h10.364c-.328 2.048-.809 3.878-1.4 5.393-.576 1.48-1.238 2.608-1.922 3.35-.445.483-.867.77-1.259.912a16.213 16.213 0 0 1-1.202 0c-.391-.142-.814-.429-1.259-.912-.684-.742-1.346-1.87-1.922-3.35-.591-1.515-1.072-3.345-1.4-5.394Zm10.828 6.12c-.446 1.143-.965 2.167-1.553 3.018a16.038 16.038 0 0 0 10.605-9.139h-7.492c-.348 2.3-.881 4.38-1.56 6.12Zm-11.292 0c.446 1.143.965 2.167 1.553 3.018a16.038 16.038 0 0 1-10.604-9.139h7.491c.348 2.3.881 4.38 1.56 6.12Zm-5.56-9.945-1.388-5.104h1.432l.79 3.43h.047l.824-3.43h1.406l.837 3.41h.043l.778-3.41h1.429l-1.386 5.104H8.107l-.877-3.21h-.063l-.877 3.21H4.795Zm7.96 0-1.39-5.104h1.433l.79 3.43h.047l.824-3.43h1.405l.838 3.41h.043l.777-3.41h1.43l-1.386 5.104h-1.499l-.877-3.21h-.063l-.877 3.21h-1.496Zm6.57-5.104 1.388 5.104h1.495l.877-3.21h.064l.877 3.21h1.498l1.386-5.104H25.48l-.777 3.41h-.044l-.837-3.41h-1.405l-.824 3.43h-.047l-.79-3.43h-1.433Zm8.473 5.19a.776.776 0 0 1-.565-.232.776.776 0 0 1-.233-.565c0-.217.078-.403.233-.559a.776.776 0 0 1 .565-.232c.212 0 .399.077.558.232.16.155.24.342.24.559a.75.75 0 0 1-.114.402.859.859 0 0 1-.289.289.761.761 0 0 1-.395.106ZM.594 12.165A16.013 16.013 0 0 0 0 16.5c0 1.509.209 2.969.6 4.353h1.966a14.107 14.107 0 0 1-.684-4.353c0-1.513.238-2.97.679-4.336H.594Z" clip-rule="evenodd"/></svg>