<svg xmlns="http://www.w3.org/2000/svg" width="32" height="32" fill="none" viewBox="0 0 32 32"><path fill="#111827" fill-rule="evenodd" d="M8.8 24.615A3.692 3.692 0 1 1 8.8 32a3.692 3.692 0 0 1 0-7.385Zm0-12.308a3.692 3.692 0 1 1 0 7.385 3.692 3.692 0 0 1 0-7.385Zm3.692-8.615a3.692 3.692 0 1 0-7.385 0 3.692 3.692 0 0 0 7.385 0ZM23.2 12.307a3.692 3.692 0 1 1 0 7.385 3.692 3.692 0 0 1 0-7.385Zm0 12.308a3.692 3.692 0 1 1 0 7.385 3.692 3.692 0 0 1 0-7.385Zm3.692-20.923a3.692 3.692 0 1 0-7.385 0 3.692 3.692 0 0 0 7.385 0Z" clip-rule="evenodd"/></svg>