<svg xmlns="http://www.w3.org/2000/svg" width="34" height="32" fill="none" viewBox="0 0 34 32"><path fill="#111827" fill-rule="evenodd" d="M7.974 28.308a3.692 3.692 0 1 0-7.384 0 3.692 3.692 0 0 0 7.384 0m0-12.308A3.692 3.692 0 1 0 .59 16a3.692 3.692 0 0 0 7.384 0M4.282 0a3.692 3.692 0 1 1 0 7.385 3.692 3.692 0 0 1 0-7.385m16.41 16a3.692 3.692 0 1 0-7.384 0 3.692 3.692 0 0 0 7.385 0m0 12.308a3.692 3.692 0 1 0-7.384 0 3.692 3.692 0 0 0 7.385 0M17 0a3.692 3.692 0 1 1 0 7.385A3.692 3.692 0 0 1 17 0m12.718 12.307a3.692 3.692 0 1 1 0 7.385 3.692 3.692 0 0 1 0-7.385m0 12.308a3.692 3.692 0 1 1 0 7.385 3.692 3.692 0 0 1 0-7.385m3.693-20.923a3.692 3.692 0 1 0-7.385 0 3.692 3.692 0 0 0 7.385 0" clip-rule="evenodd"/></svg>