<svg xmlns="http://www.w3.org/2000/svg" width="32" height="32" fill="none" viewBox="0 0 32 32"><path fill="#111827" fill-rule="evenodd" d="M24.615 23.2a3.692 3.692 0 1 1 7.385 0 3.692 3.692 0 0 1-7.385 0Zm-12.308 0a3.692 3.692 0 1 1 7.385 0 3.692 3.692 0 0 1-7.385 0Zm-8.615-3.692a3.692 3.692 0 1 0 0 7.384 3.692 3.692 0 0 0 0-7.384ZM24.615 8.8A3.692 3.692 0 1 1 32 8.8a3.692 3.692 0 0 1-7.385 0Zm-12.308 0a3.692 3.692 0 1 1 7.385 0 3.692 3.692 0 0 1-7.385 0ZM3.692 5.108a3.692 3.692 0 1 0 0 7.384 3.692 3.692 0 0 0 0-7.384Z" clip-rule="evenodd"/></svg>