<svg xmlns="http://www.w3.org/2000/svg" width="32" height="32" fill="none" viewBox="0 0 32 32"><path fill="#111827" fill-rule="evenodd" d="M17.052 1a1 1 0 1 0-2 0v13.49l-3.847-3.905a.98.98 0 0 0-1.404 0 1.02 1.02 0 0 0 0 1.424l5.55 5.632a.98.98 0 0 0 1.431-.028l5.521-5.603a1.02 1.02 0 0 0 0-1.425.98.98 0 0 0-1.404 0l-3.847 3.904zm14.643 20.041V31a1 1 0 0 1-1 1H1.305a1 1 0 0 1-1-1V21.04a1 1 0 0 1 1-1h29.39a1 1 0 0 1 1 1m-4.829 4.98c0 .99-.81 1.793-1.811 1.793s-1.811-.803-1.811-1.793c0-.991.81-1.794 1.811-1.794s1.811.803 1.811 1.794" clip-rule="evenodd"/></svg>