<svg xmlns="http://www.w3.org/2000/svg" width="32" height="32" fill="none" viewBox="0 0 32 32"><path fill="#111827" fill-rule="evenodd" d="M20.25 31.43A16 16 0 0 1 16 32a15.93 15.93 0 0 1-9.793-3.346c.423.325.82.598 1.383.958a25.6 25.6 0 0 1 9.292-9.012c1.103-.71 2.304-1.275 3.538-1.72q-.118.043-.235.087c.422 1.845.636 3.74.636 5.648v.001a25.4 25.4 0 0 1-.734 6.078l-.153.43v.002c-.075.207-.15.414-.152.424.173-.043.325-.082.468-.12m1.118-.352h-.003l-.005.002zm0 0q.535-.192 1.053-.419c-.345.146-.79.318-1.053.419m1.481-.614a5 5 0 0 1-.428.195q.216-.095.428-.195M21.3 18.584q.72-.225 1.44-.402c.495 2.1.748 4.258.747 6.433a28 28 0 0 1-.608 5.832l-.03.017C28.26 27.898 32 22.386 32 16q0-.43-.023-.857l-.004-.228-.01-.002A15.98 15.98 0 0 0 25.507 3.13c-.174-.132-.363-.27-.578-.425l-.009.01A15.93 15.93 0 0 0 16 0c-2.062 0-4.032.39-5.842 1.1a8.4 8.4 0 0 0-1.165.512q-.4.196-.788.412c-.177.097-.36.2-.585.326l.014.009a16.04 16.04 0 0 0-7.016 9.223H.61q-.065.251-.12.472A16 16 0 0 0 0 16c0 4.797 2.111 9.101 5.455 12.034l-.006.01c.282.235.524.43.758.61a16 16 0 0 1-.752-.62c2.492-4.123 5.92-7.39 10.116-9.757.923-.525 2.286-1.156 3.93-1.738a25.3 25.3 0 0 0-2.026-4.514l-.054-.095q1.21-.578 2.35-1.264l.019.034a28 28 0 0 1 2.26 5.05c2.995-.8 6.513-1.286 9.914-.837l.014.23c.01.68.01 1.82-.055 2.316-2.124-.223-6.47-.177-10.623 1.125m-5.349-8.91a25.3 25.3 0 0 0-7.534-6.849l-.25-.149-.002-.001-.53-.316A16 16 0 0 1 10.157 1.1q.161-.057.352-.118a28 28 0 0 1 7.823 7.436 25 25 0 0 1-2.382 1.256m0 0 .256-.12q1.095-.52 2.126-1.136a25 25 0 0 0 6.586-5.703q.299.2.587.414c.543.41.934.747 1.495 1.261a27.7 27.7 0 0 1-9.65 7.573 27.95 27.95 0 0 1-12.017 2.703c-1.77.001-3.49-.14-5.229-.47a16 16 0 0 1 .513-2.614c1.571.299 3.116.418 4.716.418h.002A25.3 25.3 0 0 0 15.95 9.674" clip-rule="evenodd"/></svg>