<svg xmlns="http://www.w3.org/2000/svg" width="32" height="32" fill="none" viewBox="0 0 32 32"><path fill="#111827" fill-rule="evenodd" d="M16.574.18 16 1c.573-.82.574-.82.574-.819h.001l.003.002.008.006.029.02.104.076q.136.099.384.288c.328.25.792.617 1.348 1.09 1.11.942 2.59 2.312 4.073 4.017 2.942 3.383 6.015 8.23 6.015 13.782a12.538 12.538 0 1 1-25.078 0c0-5.553 3.073-10.399 6.015-13.782a38.5 38.5 0 0 1 4.073-4.018A34 34 0 0 1 15.282.285l.105-.075.028-.02.009-.007.002-.001.001-.001L16 1l-.573-.82a1 1 0 0 1 1.146 0M16 30V2.247a36.522 36.522 0 0 0-5.015 4.745c-2.827 3.252-5.524 7.637-5.524 12.47A10.54 10.54 0 0 0 16.001 30" clip-rule="evenodd"/></svg>