<svg xmlns="http://www.w3.org/2000/svg" width="32" height="32" fill="none" viewBox="0 0 32 32"><path fill="#111827" fill-rule="evenodd" d="m16 1 .574-.818a1 1 0 0 0-1.147 0zm-1.155 2.187c.465-.395.86-.71 1.155-.939a36.53 36.53 0 0 1 5.014 4.745c2.828 3.252 5.524 7.636 5.524 12.468H5.462c0-4.832 2.697-9.216 5.524-12.468a36.5 36.5 0 0 1 3.859-3.806M16 1.001c-.573-.82-.574-.82-.574-.819l-.003.002-.009.006-.028.02-.105.076q-.136.099-.384.288a38.526 38.526 0 0 0-5.42 5.107c-2.942 3.383-6.015 8.228-6.015 13.78a12.538 12.538 0 0 0 25.076 0c0-5.552-3.073-10.397-6.014-13.78a38.5 38.5 0 0 0-4.073-4.018A34 34 0 0 0 16.719.286l-.104-.075-.03-.02-.007-.007-.003-.001C16.573.181 16.573.181 16 1" clip-rule="evenodd"/></svg>