<svg xmlns="http://www.w3.org/2000/svg" width="32" height="33" fill="none" viewBox="0 0 32 33"><path fill="#111827" fill-rule="evenodd" d="M15.883 2.501A10.54 10.54 0 0 1 26.538 13.04a1 1 0 1 0 2 0A12.542 12.542 0 0 0 9.572 2.271a1 1 0 1 0 1.025 1.718A10.54 10.54 0 0 1 15.883 2.5ZM5.405 6.331l-1.683-1.85a1 1 0 1 1 1.48-1.345L7.41 5.563l.014.015 4.037 4.44.01.013 7.208 7.928.043.046 3.605 3.967.047.05 5.905 6.497a1 1 0 1 1-1.48 1.345l-5.522-6.075a3.887 3.887 0 0 1-4.545-3.822c-.004-.355.034-.709.111-1.054l-5.603-6.164a4.673 4.673 0 0 0-.008.288 1 1 0 0 1-2 .003 6.749 6.749 0 0 1 .34-2.126l-2.76-3.037a10.486 10.486 0 0 0-1.349 5.16v.002c0 1.91.307 3.152.718 4.037.41.882.957 1.482 1.578 2.09.087.085.177.172.27.26.546.526 1.18 1.135 1.665 1.919.598.964.961 2.152.961 3.808a5.345 5.345 0 0 0 9.47 3.402 1 1 0 1 1 1.542 1.273 7.345 7.345 0 0 1-13.012-4.675c0-1.336-.285-2.148-.66-2.755-.344-.553-.774-.97-1.323-1.5l-.312-.303c-.677-.663-1.429-1.465-1.992-2.676-.562-1.21-.904-2.753-.905-4.88v.001l1-.001h-1a12.486 12.486 0 0 1 1.943-6.707Zm8.4.303a6.773 6.773 0 0 1 8.964 6.395 4.446 4.446 0 0 1-.917 2.783 1 1 0 0 1-1.587-1.217c.337-.44.515-.982.504-1.536v-.02a4.774 4.774 0 0 0-6.317-4.513 1 1 0 0 1-.647-1.892Z" clip-rule="evenodd"/></svg>