<svg xmlns="http://www.w3.org/2000/svg" width="32" height="33" fill="none" viewBox="0 0 32 33"><path fill="#111827" fill-rule="evenodd" d="M24.703 28.895a12.308 12.308 0 0 0 3.605-8.703c0-5.258-2.106-10.516-4.818-14.274a15.461 15.461 0 0 0-.91-1.177C20.424 2.136 18.008.5 16 .5 11.077.5 3.692 10.346 3.692 20.192a12.308 12.308 0 0 0 21.01 8.703ZM22.58 4.741a24.09 24.09 0 0 0-.237-.275l-7.134 7.07a1.467 1.467 0 0 0 .585 2.431l3.444 1.118-.851 4.908a1.333 1.333 0 1 0 2.627.455l1.03-5.932a1.467 1.467 0 0 0-.993-1.646l-2.57-.834 5.482-5.433-.078-.114c-.145-.21-.273-.396-.396-.571-.297-.411-.6-.804-.91-1.177Z" clip-rule="evenodd"/></svg>