<svg xmlns="http://www.w3.org/2000/svg" width="32" height="32" fill="none" viewBox="0 0 32 32"><path fill="#111827" fill-rule="evenodd" d="M1 4a1 1 0 0 0-1 1v22a1 1 0 0 0 1 1h30a1 1 0 0 0 1-1V5a1 1 0 0 0-1-1H1Zm12.115 13.905-9.72 8.553a1 1 0 0 1-1.322-1.502l9.594-8.44L1.91 7.15a1.163 1.163 0 0 1 0-1.693 1.284 1.284 0 0 1 1.763 0l12.29 11.795L28.407 5.31a1.284 1.284 0 0 1 1.764 0 1.163 1.163 0 0 1 0 1.693l-9.76 9.368 9.535 8.39a1 1 0 1 1-1.321 1.501l-9.663-8.501-2.999 2.878-2.848-2.734Z" clip-rule="evenodd"/></svg>