<svg xmlns="http://www.w3.org/2000/svg" width="32" height="32" fill="none" viewBox="0 0 32 32"><path fill="#111827" fill-rule="evenodd" d="M32 12.438v17.131a1 1 0 0 1-1 1H1a1 1 0 0 1-1-1V12.437a1 1 0 0 1 .444-.832L15.41 1.6a1 1 0 0 1 1.11-.002l15.035 10.007a1 1 0 0 1 .446.833M2.827 13.581a1 1 0 0 1 1.395-.234l9.85 7.024h3.855l9.85-7.024a1 1 0 0 1 1.162 1.629l-8.964 6.391 8.643 6.105a1 1 0 1 1-1.154 1.634l-9.535-6.735h-3.858l-9.535 6.735a1 1 0 1 1-1.154-1.634l8.643-6.105-8.964-6.391a1 1 0 0 1-.234-1.395" clip-rule="evenodd"/></svg>