<svg xmlns="http://www.w3.org/2000/svg" width="32" height="33" fill="none" viewBox="0 0 32 33"><path fill="#111827" fill-rule="evenodd" d="M1 3.167a1 1 0 0 0-1 1v24.666a1 1 0 0 0 1 1h30a1 1 0 0 0 1-1V4.167a1 1 0 0 0-1-1zm18.217 7.414a1 1 0 1 0-1.88-.684L12.784 22.42a1 1 0 1 0 1.88.683zm-8.257 3.143a1 1 0 1 0-1.414-1.415l-3.484 3.484a1 1 0 0 0 0 1.414l3.484 3.483a1 1 0 0 0 1.414-1.414L8.183 16.5zm10.08-1.415a1 1 0 0 1 1.415 0l3.483 3.484a1 1 0 0 1 0 1.414l-3.483 3.483a1 1 0 0 1-1.415-1.414l2.777-2.776-2.777-2.776a1 1 0 0 1 0-1.415" clip-rule="evenodd"/></svg>