<svg xmlns="http://www.w3.org/2000/svg" width="32" height="33" fill="none" viewBox="0 0 32 33"><path fill="#111827" fill-rule="evenodd" d="M23.478 6.066a1 1 0 0 1 1-1h6.521a1 1 0 1 1 0 2h-6.521a1 1 0 0 1-1-1ZM1 10.283a1 1 0 1 0 0 2h6.521a1 1 0 1 0 0-2H1.001Zm0 5.217a1 1 0 1 0 0 2h6.521a1 1 0 1 0 0-2H1.001Zm-1 6.217a1 1 0 0 1 1-1h6.521a1 1 0 0 1 0 2H1.001a1 1 0 0 1-1-1Zm1 4.217a1 1 0 1 0 0 2h6.521a1 1 0 0 0 0-2H1.001ZM11.739 16.5a1 1 0 0 1 1-1h6.521a1 1 0 1 1 0 2h-6.521a1 1 0 0 1-1-1Zm1 4.217a1 1 0 0 0 0 2h6.521a1 1 0 1 0 0-2h-6.521Zm-1 6.217a1 1 0 0 1 1-1h6.521a1 1 0 1 1 0 2h-6.521a1 1 0 0 1-1-1Zm12.739-16.651a1 1 0 0 0 0 2h6.521a1 1 0 1 0 0-2h-6.521Zm0 5.217a1 1 0 0 0 0 2h6.521a1 1 0 1 0 0-2h-6.521Zm-1 6.217a1 1 0 0 1 1-1h6.521a1 1 0 0 1 0 2h-6.521a1 1 0 0 1-1-1Zm1 4.217a1 1 0 0 0 0 2h6.521a1 1 0 0 0 0-2h-6.521Z" clip-rule="evenodd"/></svg>