<svg xmlns="http://www.w3.org/2000/svg" width="32" height="32" fill="none" viewBox="0 0 32 32"><path fill="#111827" fill-rule="evenodd" d="M1.795 8.756A1 1 0 1 0 .24 10.012a22.6 22.6 0 0 0 3.046 3.112L.135 18.58a1 1 0 0 0 1.731 1l3.024-5.238a19.2 19.2 0 0 0 5.87 2.72l-.948 5.378a1 1 0 0 0 1.97.347l.935-5.304a20.6 20.6 0 0 0 3.292.26c1.153 0 2.246-.092 3.28-.258l.935 5.304a1 1 0 1 0 1.97-.348l-.948-5.375a19.2 19.2 0 0 0 5.875-2.72l3.008 5.21a1 1 0 0 0 1.732-1l-3.134-5.428a22.6 22.6 0 0 0 3.051-3.117 1 1 0 0 0-1.555-1.256 20.3 20.3 0 0 1-3.421 3.355c-2.606 1.998-6.154 3.632-10.793 3.632s-8.184-1.633-10.79-3.63l-.058-.045a20.4 20.4 0 0 1-3.366-3.312" clip-rule="evenodd"/></svg>