<svg xmlns="http://www.w3.org/2000/svg" width="32" height="32" fill="none" viewBox="0 0 32 32"><path fill="#111827" fill-rule="evenodd" d="M1.795 8.756A1 1 0 1 0 .24 10.012a22.609 22.609 0 0 0 3.046 3.112L.135 18.58a1 1 0 0 0 1.731 1l3.024-5.238a19.195 19.195 0 0 0 5.87 2.72l-.948 5.378a1 1 0 0 0 1.97.347l.935-5.304a20.62 20.62 0 0 0 3.292.26c1.153 0 2.246-.092 3.28-.258l.935 5.303a1 1 0 1 0 1.97-.347l-.948-5.375a19.193 19.193 0 0 0 5.875-2.72l3.008 5.21a1 1 0 0 0 1.732-1l-3.134-5.428a22.607 22.607 0 0 0 3.051-3.117 1 1 0 0 0-1.555-1.256 20.337 20.337 0 0 1-3.421 3.354c-2.606 1.999-6.154 3.633-10.793 3.633-4.638 0-8.184-1.633-10.79-3.63a20.345 20.345 0 0 1-3.424-3.357Z" clip-rule="evenodd"/></svg>