<svg xmlns="http://www.w3.org/2000/svg" width="32" height="32" fill="none" viewBox="0 0 32 32"><path fill="#111827" fill-rule="evenodd" d="m26.554 14.059-.85-.85 4.87-4.87a4.87 4.87 0 0 0-.098-6.984c-1.927-1.824-4.985-1.709-6.861.167l-4.799 4.8-.85-.85a2.784 2.784 0 0 0-3.936 0l-1.223 1.222a1.39 1.39 0 0 0 0 1.968l.635.635-9.74 9.74a6.56 6.56 0 0 0-1.785 5.99l-1.75 4.01a2 2 0 0 0 .418 2.214 2.39 2.39 0 0 0 2.648.5l3.764-1.643a6.57 6.57 0 0 0 5.99-1.785l9.741-9.74.635.635a1.39 1.39 0 0 0 1.968 0l1.223-1.223a2.783 2.783 0 0 0 0-3.936m-5.24 3.11-9.74 9.74a4.57 4.57 0 0 1-4.412 1.183 1 1 0 0 0-.659.05l-4.07 1.776A.39.39 0 0 1 2 29.837l1.884-4.315a1 1 0 0 0 .049-.66 4.56 4.56 0 0 1 1.182-4.41l9.741-9.741z" clip-rule="evenodd"/></svg>