<svg xmlns="http://www.w3.org/2000/svg" width="32" height="32" fill="none"><path fill="#111827" fill-rule="evenodd" d="m26.554 14.059-.85-.85 4.87-4.87a4.872 4.872 0 0 0-.098-6.984c-1.927-1.824-4.985-1.709-6.861.167l-4.799 4.8-.85-.85a2.784 2.784 0 0 0-3.936 0l-1.223 1.222a1.392 1.392 0 0 0 0 1.968l.635.635-9.74 9.74a6.564 6.564 0 0 0-1.785 5.99l-1.75 4.01a1.999 1.999 0 0 0 .418 2.213 2.392 2.392 0 0 0 2.648.501l3.764-1.643a6.565 6.565 0 0 0 5.99-1.785l9.741-9.74.635.635a1.391 1.391 0 0 0 1.968 0l1.223-1.223a2.783 2.783 0 0 0 0-3.936Zm-5.24 3.11-9.74 9.74a4.565 4.565 0 0 1-4.412 1.183 1 1 0 0 0-.659.05l-4.07 1.776A.392.392 0 0 1 2 29.837l1.884-4.316a1 1 0 0 0 .049-.659 4.564 4.564 0 0 1 1.182-4.41l9.741-9.741 6.458 6.457Z" clip-rule="evenodd"/></svg>