<svg xmlns="http://www.w3.org/2000/svg" width="32" height="33" fill="none"><path fill="#111827" fill-rule="evenodd" d="m25.708 13.46.853.852a2.801 2.801 0 0 1 0 3.933l-1.218 1.218a1.39 1.39 0 0 1-1.984 0l-.633-.633-9.74 9.74-.002.002a6.516 6.516 0 0 1-5.994 1.79l-3.762 1.64a2.392 2.392 0 0 1-2.63-.478l.427-.659-.003-.003-.428.659a1.992 1.992 0 0 1-.422-2.23l1.743-4.003a6.516 6.516 0 0 1 1.79-5.995l9.742-9.742-.633-.633a1.391 1.391 0 0 1 0-1.984l1.218-1.218a2.801 2.801 0 0 1 3.933 0l.852.853 4.803-4.803c1.88-1.879 4.942-1.983 6.856-.156a4.87 4.87 0 0 1 .104 6.977l-4.872 4.873ZM4.725 21.15c.12-.153.249-.299.388-.436l.004-.005 7.125-7.124-4.914 7.566H4.725Zm2.606 0 4.914-7.568 2.617-2.617 6.45 6.45-3.734 3.736H7.33Zm4.914-7.568-.003.003 2.063-3.177-2.06 3.174Z" clip-rule="evenodd"/></svg>