<svg xmlns="http://www.w3.org/2000/svg" width="32" height="32" fill="none" viewBox="0 0 32 32"><path fill="#111827" fill-rule="evenodd" d="M15.633 5.483 5.786 9.914h-.367a5.418 5.418 0 1 0 0 10.837h.436a5 5 0 0 0 3.537 3.966l6.373 1.848a1 1 0 0 0 .56 0l6.294-1.842a5 5 0 0 0 3.528-3.972h.431a5.42 5.42 0 0 0 0-10.842h-.375l-9.746-4.424a1 1 0 0 0-.824-.002m10.582 13.268v-6.842h.363a3.42 3.42 0 0 1 0 6.842zM5.42 11.914h.366v6.837h-.366a3.418 3.418 0 0 1 0-6.837m4.796 3.053a1 1 0 0 1 1-1h9.569a1 1 0 0 1 0 2h-9.569a1 1 0 0 1-1-1m0 3.827a1 1 0 0 1 1-1h9.569a1 1 0 0 1 0 2h-9.569a1 1 0 0 1-1-1" clip-rule="evenodd"/></svg>