<svg xmlns="http://www.w3.org/2000/svg" width="32" height="32" fill="none" viewBox="0 0 32 32"><path fill="#111827" fill-rule="evenodd" d="M17.333 31.945C25.546 31.268 32 24.388 32 16c0-8.837-7.163-16-16-16S0 7.163 0 16c0 8.388 6.454 15.268 14.667 15.945v.003l.175.01a16 16 0 0 0 2.354-.002l.137-.008zm0 0V20h4a1.333 1.333 0 1 0 0-2.667h-4v-4.231c0-.692.287-1.35.79-1.833a2.7 2.7 0 0 1 1.877-.75h2.667c.736 0 1.333-.563 1.333-1.26C24 8.565 23.403 8 22.667 8H20c-1.422 0-2.78.543-3.779 1.502a5 5 0 0 0-1.554 3.6v4.231h-4a1.333 1.333 0 0 0 0 2.667h4v11.945l.175.014a18 18 0 0 0 2.491-.014" clip-rule="evenodd"/></svg>