<svg xmlns="http://www.w3.org/2000/svg" width="32" height="32" fill="none" viewBox="0 0 32 32"><path fill="#111827" fill-rule="evenodd" d="M21.735 2.144c-.509 0-.974.213-1.316.555-.33.33-.528.761-.59 1.206l-2.545 13.568-3.679-5.013a.5.5 0 0 0-.87.12l-1.82 4.838a.5.5 0 0 1-.82.177L5.067 12.57a.5.5 0 0 0-.854.353v14.934H1a1 1 0 1 0 0 2h30a1 1 0 1 0 0-2h-3.214v-9.212a.5.5 0 0 0-.29-.454q.003-.083-.007-.169l-1.742-14.08a2.13 2.13 0 0 0-.595-1.242 1.86 1.86 0 0 0-1.316-.555zm3.754 16L23.762 4.186a.2.2 0 0 0-.01-.042H21.82a.2.2 0 0 0-.01.042l-.01.062-2.606 13.896zM8.32 23.501c0-.69.56-1.25 1.25-1.25h3.75a1.25 1.25 0 0 1 0 2.5h-3.75c-.69 0-1.25-.56-1.25-1.25m10.357-1.25a1.25 1.25 0 0 0 0 2.5h3.75a1.25 1.25 0 0 0 0-2.5z" clip-rule="evenodd"/></svg>