<svg xmlns="http://www.w3.org/2000/svg" width="32" height="33" fill="none" viewBox="0 0 32 33"><path fill="#111827" fill-rule="evenodd" d="M16 1.75a1 1 0 0 1 1 1v6.5h2.75a1 1 0 1 1 0 2H12.251a1 1 0 0 1 0-2H15v-6.5a1 1 0 0 1 1-1Zm0 12.5a1 1 0 0 1 1 1v15a1 1 0 1 1-2 0v-15a1 1 0 0 1 1-1Zm12.25 13.5a1 1 0 1 0-2 0v2.5a1 1 0 1 0 2-.001v-2.5Zm-1-26a1 1 0 0 1 1 1v19H31a1 1 0 0 1 0 2h-7.5a1 1 0 1 1 0-2h2.75v-19a1 1 0 0 1 1-1Zm-22.499 20a1 1 0 0 1 1 1v7.5a1 1 0 1 1-2 0v-7.5a1 1 0 0 1 1-1Zm1-19a1 1 0 1 0-2 0v14h-2.75a1 1 0 1 0 0 2h7.5a1 1 0 1 0 0-2H5.75v-14Z" clip-rule="evenodd"/></svg>