<svg xmlns="http://www.w3.org/2000/svg" width="32" height="32" fill="none" viewBox="0 0 32 32"><g clip-path="url(#a)"><path fill="#111827" d="M31.69 18.768a9.14 9.14 0 0 0-13.652-5.4L20.535 3.4a1.22 1.22 0 0 0-.526-1.322 9.14 9.14 0 1 0-9.235 15.763L.893 20.663a1.22 1.22 0 0 0-.884 1.115 9.14 9.14 0 0 0 6.767 9.24 9.2 9.2 0 0 0 2.379.316 9.15 9.15 0 0 0 9.121-9.444l7.385 7.147a1.22 1.22 0 0 0 1.409.205 9.14 9.14 0 0 0 4.62-10.474m-15.623 1.958a3.046 3.046 0 1 1-.744-6.047 3.046 3.046 0 0 1 .744 6.047"/></g><defs><clipPath id="a"><path fill="#fff" d="M0 0h32v32H0z"/></clipPath></defs></svg>