<svg xmlns="http://www.w3.org/2000/svg" width="32" height="33" fill="none" viewBox="0 0 32 33"><path fill="#111827" fill-rule="evenodd" d="M15.75 14.082v-.915h.713a6.36 6.36 0 0 0-.713.915Zm11.664 3.416a6.327 6.327 0 0 0-2.944-5.35 6.52 6.52 0 0 0 .976-.73c1.247-1.133 1.968-2.69 1.968-4.337 0-1.647-.721-3.205-1.968-4.337-1.244-1.13-2.911-1.75-4.632-1.75h-5.6c-.058 0-.115.005-.17.015h-4.626a5.332 5.332 0 0 0-.034 10.663 5.332 5.332 0 0 0 .034 10.664h5.332v-1.421a6.332 6.332 0 0 0 11.664-3.416Zm-11.2-14.504v8.173h4.6c1.25 0 2.43-.452 3.287-1.23.854-.775 1.313-1.805 1.313-2.856S24.955 5 24.1 4.224c-.857-.778-2.038-1.23-3.287-1.23h-4.6Zm4.868 10.173a4.332 4.332 0 1 0 0 8.664 4.332 4.332 0 0 0 0-8.664ZM15.75 27.668v-5.332h-5.332a5.332 5.332 0 1 0 5.332 5.332Z" clip-rule="evenodd"/></svg>