<svg xmlns="http://www.w3.org/2000/svg" width="32" height="32" fill="none" viewBox="0 0 32 32"><path fill="#111827" fill-rule="evenodd" d="M28.334 32H3.667a1 1 0 0 1-1-1V1a1 1 0 0 1 1-1h15.946a1 1 0 0 1 .709.294l8.72 8.758a1 1 0 0 1 .292.706V31a1 1 0 0 1-1 1m-15.869-9.879a1 1 0 0 0 1.414 1.415l2.122-2.122 2.12 2.121a1 1 0 0 0 1.415-1.414L17.415 20l2.121-2.121a1 1 0 0 0-1.414-1.415L16 18.587l-2.122-2.122a1 1 0 0 0-1.414 1.415L14.586 20zM20.12 1.624v7.13a.5.5 0 0 0 .5.5h7.137z" clip-rule="evenodd"/></svg>