<svg xmlns="http://www.w3.org/2000/svg" width="32" height="32" fill="none" viewBox="0 0 32 32"><path fill="#111827" fill-rule="evenodd" d="M2.717 18.187h26.547a1 1 0 0 0 1-1V8.854a1 1 0 0 0-.291-.706L22.153.294A1 1 0 0 0 21.444 0H2.717a1 1 0 0 0-1 1v16.187a1 1 0 0 0 1 1M21.942 7.86V1.467l6.897 6.892h-6.397a.5.5 0 0 1-.5-.5M6.659 22.14a4.93 4.93 0 0 0 0 9.86H8.38a1 1 0 1 0 0-2H6.659a2.93 2.93 0 1 1 0-5.86H8.38a1 1 0 1 0 0-2zm8.485 0a2.965 2.965 0 0 0-.333 5.912q.093.018.193.018h1.868a.965.965 0 0 1-.006 1.93H13.18a1 1 0 1 0 0 2h3.687a2.965 2.965 0 0 0 .09-5.93h-1.817a.965.965 0 0 1 .005-1.93h3.688a1 1 0 0 0 0-2zm7.487 2.965a2.965 2.965 0 0 1 2.965-2.966h3.688a1 1 0 1 1 0 2h-3.688a.965.965 0 0 0-.006 1.931h1.818a2.966 2.966 0 0 1-.089 5.93H23.63a1 1 0 1 1 0-2h3.687a.965.965 0 0 0 .006-1.93h-1.868a1 1 0 0 1-.192-.018 2.966 2.966 0 0 1-2.633-2.947" clip-rule="evenodd"/></svg>