<svg xmlns="http://www.w3.org/2000/svg" width="32" height="32" fill="none" viewBox="0 0 32 32"><path fill="#111827" d="M8.315 16.5h2.058v1.943H8.315V16.5ZM8.193 19.443l-.37 1.32a1.58 1.58 0 1 0 3.042 0l-.371-1.32h-2.3Z"/><path fill="#111827" fill-rule="evenodd" d="M3.667 32h24.667a1 1 0 0 0 1-1V9.758a1 1 0 0 0-.292-.706L20.322.294A1 1 0 0 0 19.613 0H3.667a1 1 0 0 0-1 1v30a1 1 0 0 0 1 1Zm16.3-22.552V1.82l7.634 7.627h-7.633ZM8.86 4.5v-3.34h1v3.34h1.057a.5.5 0 0 1 0 1H9.86v3h1.057a.5.5 0 0 1 0 1H9.86v3h1.057a.5.5 0 0 1 0 1H9.86V15.5h1.013a.5.5 0 0 1 .5.5v2.874l.455 1.618a2.58 2.58 0 1 1-4.969 0l.455-1.618V16a.5.5 0 0 1 .5-.5H8.86v-1.999H7.803a.5.5 0 0 1 0-1H8.86v-3H7.803a.5.5 0 0 1 0-1H8.86v-3H7.803a.5.5 0 0 1 0-1H8.86Z" clip-rule="evenodd"/></svg>