<svg xmlns="http://www.w3.org/2000/svg" width="32" height="32" fill="none"><path fill="#111827" fill-rule="evenodd" d="M2.708 18.2h26.568a1 1 0 0 0 1-1V8.86a1 1 0 0 0-.292-.706L22.158.294A1 1 0 0 0 21.45 0H2.708a1 1 0 0 0-1 1v16.2a1 1 0 0 0 1 1ZM21.946 7.865V1.47l6.903 6.896h-6.403a.5.5 0 0 1-.5-.5Zm1.124 14.357a1 1 0 0 1 1.28.602l1.919 5.33 2.09-5.355a1 1 0 1 1 1.864.727l-2.964 7.59c-.37.946-1.715.928-2.06-.028L22.468 23.5a1 1 0 0 1 .602-1.28ZM1.726 27.08a4.919 4.919 0 0 1 4.919-4.919H8.32a1 1 0 1 1 0 2H6.645a2.919 2.919 0 1 0 0 5.838H8.32a1 1 0 0 1 0 2H6.645a4.919 4.919 0 0 1-4.919-4.919Zm13.301-4.919a2.96 2.96 0 0 0-.366 5.897c.069.014.14.022.213.022h1.828a.96.96 0 0 1 0 1.919h-3.634a1 1 0 1 0 0 2h3.634a2.96 2.96 0 0 0 .247-5.909 1.01 1.01 0 0 0-.144-.01h-1.778a.96.96 0 0 1 0-1.919h3.634a1 1 0 1 0 0-2h-3.634Z" clip-rule="evenodd"/></svg>