<svg xmlns="http://www.w3.org/2000/svg" width="32" height="32" fill="none" viewBox="0 0 32 32"><path fill="#111827" fill-rule="evenodd" d="M7.82.14a1 1 0 0 0-1 1v5.12H3.7a1 1 0 0 0-1 1v23.6a1 1 0 0 0 1 1h18.48a1 1 0 0 0 1-1v-3.12h5.12a1 1 0 0 0 1-1V8.616a1 1 0 0 0-.277-.691L21.877.449a1 1 0 0 0-.723-.309zm15.36 25.601.044-.001H27.3V9.017L20.727 2.14H8.82v4.12h6.787a1 1 0 0 1 .723.309l6.573 6.877a1 1 0 0 1 .277.69zM9.1 19.34a1 1 0 1 0 0 2h7.68a1 1 0 1 0 0-2zm0 5.12a1 1 0 1 0 0 2h7.68a1 1 0 1 0 0-2z" clip-rule="evenodd"/></svg>