<svg xmlns="http://www.w3.org/2000/svg" width="32" height="33" fill="none"><path stroke="#111827" stroke-linecap="round" stroke-width="2" d="M8.808 22.292v6.712a2 2 0 0 1-2 2H5.664a2 2 0 0 1-2-2v-.934M19.945 22.292H15.86a2.178 2.178 0 0 0-2.178 2.178v0c0 1.203.975 2.178 2.178 2.178h2.007"/><path stroke="#111827" stroke-linecap="round" stroke-width="2" d="M15.703 26.648h2.064c1.203 0 2.178.975 2.178 2.178v0a2.178 2.178 0 0 1-2.178 2.178H13.68"/><path fill="#111827" fill-rule="evenodd" d="M3.667 0h15.946a1 1 0 0 1 .709.294l8.72 8.758a1 1 0 0 1 .292.706V31a1 1 0 0 1-1 1h-4.67a1 1 0 0 1-1-1V16.976a1 1 0 0 0-1-1H3.668a1 1 0 0 1-1-1V1a1 1 0 0 1 1-1ZM20.12 1.887v7.627h7.633L20.12 1.887Z" clip-rule="evenodd"/></svg>