<svg xmlns="http://www.w3.org/2000/svg" width="32" height="32" fill="none" viewBox="0 0 32 32"><path fill="#111827" fill-rule="evenodd" d="M2.856 18H29.11a1 1 0 0 0 1-1V8.767a1 1 0 0 0-.291-.706L22.085.294A1 1 0 0 0 21.377 0H2.857a1 1 0 0 0-1 1v16a1 1 0 0 0 1 1M21.873 7.773v-6.32l6.827 6.82h-6.327a.5.5 0 0 1-.5-.5m2.292 14.232a1 1 0 0 0-1.648 1.134l2.511 3.647-2.51 3.647a1 1 0 0 0 1.647 1.134l2.077-3.018 2.078 3.018a1 1 0 0 0 1.647-1.134l-2.51-3.647 2.51-3.647a1 1 0 1 0-1.647-1.134l-2.078 3.017zm-16.306-.43a1 1 0 0 1 1 1V29a3 3 0 0 1-3 3h-.976a3 3 0 0 1-3-3v-.837a1 1 0 1 1 2 0V29a1 1 0 0 0 1 1h.976a1 1 0 0 0 1-1v-6.425a1 1 0 0 1 1-1m6.818 0a3.106 3.106 0 0 0-.348 6.193q.096.02.197.02h1.997a1.106 1.106 0 0 1 0 2.212H12.57a1 1 0 1 0 0 2h3.953a3.106 3.106 0 0 0 .095-6.213h-1.94a1.106 1.106 0 1 1 0-2.212h3.951a1 1 0 1 0 0-2z" clip-rule="evenodd"/></svg>