<svg xmlns="http://www.w3.org/2000/svg" width="32" height="32" fill="none" viewBox="0 0 32 32"><path fill="#111827" fill-rule="evenodd" d="M2.709 18.212h26.582a1 1 0 0 0 1-1V8.866A1 1 0 0 0 30 8.161L22.17.297a1 1 0 0 0-.71-.295H2.71a1 1 0 0 0-1 1l-.001 16.21a1 1 0 0 0 1 1m19.249-10.34v-6.4l6.906 6.9h-6.406a.5.5 0 0 1-.5-.5M4.397 22.369a4.816 4.816 0 0 1 0 9.633H2.725a1 1 0 0 1-1-1v-7.633a1 1 0 0 1 1-1zm2.816 4.817a2.816 2.816 0 0 0-2.816-2.817h-.672v5.633h.672a2.816 2.816 0 0 0 2.816-2.816m6.85.002c0-1.679 1.17-2.813 2.35-2.813 1.182 0 2.353 1.134 2.353 2.813s-1.17 2.814-2.352 2.814-2.352-1.135-2.352-2.814m2.35-4.813c-2.52 0-4.35 2.28-4.35 4.813s1.83 4.814 4.35 4.814c2.522 0 4.353-2.28 4.353-4.814 0-2.533-1.831-4.813-4.352-4.813m6.385 4.81a4.816 4.816 0 0 1 4.816-4.816h1.672a1 1 0 0 1 0 2h-1.672a2.816 2.816 0 0 0 0 5.633h1.672a1 1 0 1 1 0 2h-1.672a4.816 4.816 0 0 1-4.816-4.816" clip-rule="evenodd"/></svg>