<svg xmlns="http://www.w3.org/2000/svg" width="32" height="32" fill="none" viewBox="0 0 32 32"><path fill="#111827" fill-rule="evenodd" d="M2.5 1.001a1 1 0 0 1 1-1h16.276a1 1 0 0 1 .709.294l8.723 8.76a1 1 0 0 1 .291.706V31a1 1 0 0 1-1 1h-6.252a1 1 0 1 1 0-2H27.5V10.676h-7.638a1 1 0 0 1-1-1V2.001H4.501v13.977a1 1 0 1 1-2 0V1Zm18.361 2.573v5.102h5.107l-5.107-5.102ZM9.53 23.41a4.733 4.733 0 0 1 9.22 1.51c0 2.69-2.192 5.078-4.733 5.078H7.538a3.022 3.022 0 0 1-.187-6.037 6.782 6.782 0 0 0-.068.959 1 1 0 1 0 2 0c0-.53.086-1.037.246-1.51Zm-1.99-1.455c.141 0 .282.006.422.017a6.733 6.733 0 0 1 12.788 2.948c0 3.642-2.94 7.078-6.733 7.078H7.538a5.022 5.022 0 0 1 0-10.043Z" clip-rule="evenodd"/></svg>