<svg xmlns="http://www.w3.org/2000/svg" width="32" height="32" fill="none" viewBox="0 0 32 32"><path fill="#111827" fill-rule="evenodd" d="M2.87 17.964h26.199a1 1 0 0 0 1-1V8.75a1 1 0 0 0-.292-.706L22.06.294a1 1 0 0 0-.708-.295H2.869a1 1 0 0 0-1 1v15.965a1 1 0 0 0 1 1M21.846 7.756V1.45l6.813 6.807h-6.313a.5.5 0 0 1-.5-.5M3.717 22.163a1 1 0 0 0-1.61 1.184l2.59 3.524-2.59 3.524a1 1 0 1 0 1.61 1.184l2.22-3.02 2.22 3.02a1 1 0 0 0 1.611-1.184l-2.59-3.524 2.59-3.524a1 1 0 1 0-1.611-1.184l-2.22 3.02zM21.8 24.816c0-1.69 1.371-3.061 3.062-3.061h4.269a1 1 0 1 1 0 2h-4.27a1.062 1.062 0 0 0 0 2.123h2.208a3.062 3.062 0 0 1 0 6.123h-4.27a1 1 0 1 1 0-2h4.27a1.061 1.061 0 1 0 0-2.123h-2.255a3.06 3.06 0 0 1-3.014-3.062m-7.46-3.061a1 1 0 0 1 1 1v7.235h3.707a1 1 0 0 1 0 2H14.34a1 1 0 0 1-1-1v-8.235a1 1 0 0 1 1-1" clip-rule="evenodd"/></svg>