<svg xmlns="http://www.w3.org/2000/svg" width="32" height="32" fill="none" viewBox="0 0 32 32"><path fill="#111827" fill-rule="evenodd" d="M3.501 0a1 1 0 0 0-1 1v1.876a1 1 0 1 0 2 0V2h1.034a1 1 0 0 0 0-2zm6.103 0a1 1 0 0 0 0 2h4.07a1 1 0 1 0 0-2zm8.138 0a1 1 0 1 0 0 2h1.582v7.713a.5.5 0 0 0 .5.5H27.5v1.318a1 1 0 1 0 2 0V9.76a1 1 0 0 0-.173-.562.98.98 0 0 0-.296-.694l-8-7.993a.98.98 0 0 0-.63-.292 1 1 0 0 0-.624-.22zM4.501 6.627a1 1 0 0 0-2 0v3.75a1 1 0 1 0 2 0zm0 7.5a1 1 0 1 0-2 0v3.749a1 1 0 1 0 2 0zm24.999.945a1 1 0 0 0-2 0v3.54a1 1 0 1 0 2 0zM4.5 21.625a1 1 0 1 0-2 0v3.75a1 1 0 1 0 2 0zm24.999.525a1 1 0 0 0-2 0v3.54a1 1 0 1 0 2 0zM4.5 29.124a1 1 0 1 0-2 0V31a1 1 0 0 0 1 1h2.083a1 1 0 1 0 0-2H4.501zm24.999.105a1 1 0 0 0-2 0V30h-1.084a1 1 0 0 0 0 2H28.5a1 1 0 0 0 1-1zM9.75 30a1 1 0 1 0 0 2h4.167a1 1 0 1 0 0-2zm8.333 0a1 1 0 1 0 0 2h4.167a1 1 0 1 0 0-2z" clip-rule="evenodd"/></svg>