<svg xmlns="http://www.w3.org/2000/svg" width="32" height="32" fill="none" viewBox="0 0 32 32"><path fill="#111827" fill-rule="evenodd" d="M19.642 0H3.77a1 1 0 0 0-1 1v13.908a1 1 0 0 0 1 1H21.68a1 1 0 0 1 1 1v13.955a1 1 0 0 0 1 1h4.64a1 1 0 0 0 1-1V9.718a1 1 0 0 0-.29-.706L20.35.295A1 1 0 0 0 19.64 0Zm.506 9.474V1.88l7.6 7.594h-7.6Zm-17.47 13.44a1 1 0 0 1 1-1h5.974a1 1 0 1 1 0 2H7.665v6.966a1 1 0 1 1-2 0v-6.965H3.678a1 1 0 0 1-1-1Zm18.412.641a1 1 0 0 0-1.537-1.28l-2.6 3.12-2.598-3.12a1 1 0 0 0-1.537 1.28l2.834 3.402-2.834 3.402a1 1 0 0 0 1.537 1.28l2.599-3.12 2.599 3.12a1 1 0 1 0 1.537-1.28l-2.834-3.402 2.834-3.402Z" clip-rule="evenodd"/></svg>