<svg xmlns="http://www.w3.org/2000/svg" width="32" height="34" fill="none" viewBox="0 0 32 34"><path stroke="#111827" stroke-linecap="round" stroke-linejoin="round" stroke-width="2" d="M20.665 33h8.669V10.345L20.029 1H2.667v15.976"/><path stroke="#111827" stroke-linecap="round" stroke-linejoin="round" stroke-width="2" d="M20.12 10.254V1.171l9.09 9.083z"/><path fill="#111827" fill-rule="evenodd" d="M14.264 32.948a.5.5 0 0 1-.683-.183l-.614-1.063a.53.53 0 0 0-.562-.245 6.6 6.6 0 0 1-2.573 0 .53.53 0 0 0-.56.245l-.615 1.063a.5.5 0 0 1-.683.183L5.811 31.7a.5.5 0 0 1-.183-.683l.615-1.065a.53.53 0 0 0-.07-.608 6.6 6.6 0 0 1-1.286-2.227.53.53 0 0 0-.493-.364H3.167a.5.5 0 0 1-.5-.5v-2.497a.5.5 0 0 1 .5-.5h1.227c.225 0 .42-.152.492-.365a6.6 6.6 0 0 1 1.288-2.226.53.53 0 0 0 .069-.609l-.615-1.064a.5.5 0 0 1 .183-.683l2.163-1.249a.5.5 0 0 1 .683.183l.614 1.063c.113.195.34.289.561.245a6.6 6.6 0 0 1 2.573 0c.22.044.45-.05.562-.245l.614-1.063a.5.5 0 0 1 .683-.183l2.162 1.249a.5.5 0 0 1 .183.683l-.614 1.064a.53.53 0 0 0 .069.609 6.6 6.6 0 0 1 1.287 2.226.53.53 0 0 0 .492.365h1.228a.5.5 0 0 1 .5.5v2.497a.5.5 0 0 1-.5.5h-1.228a.53.53 0 0 0-.492.364 6.6 6.6 0 0 1-1.287 2.226.53.53 0 0 0-.07.609l.615 1.065a.5.5 0 0 1-.183.683zm1.08-7.944a4.226 4.226 0 1 1-8.451 0 4.226 4.226 0 0 1 8.452 0" clip-rule="evenodd"/></svg>