<svg xmlns="http://www.w3.org/2000/svg" width="32" height="32" fill="none" viewBox="0 0 32 32"><path fill="#111827" fill-rule="evenodd" d="M2.888 18H29.14a1 1 0 0 0 1-1V8.767a1 1 0 0 0-.29-.705L22.115.295A1 1 0 0 0 21.408 0H2.888a1 1 0 0 0-1 1v16a1 1 0 0 0 1 1M21.904 7.774V1.453l6.827 6.82h-6.327a.5.5 0 0 1-.5-.5m-18.128 15.3a1 1 0 0 0-1.864.725l2.948 7.564a1 1 0 0 0 1.853.026l3.196-7.563a1 1 0 0 0-1.842-.779l-2.238 5.295zm19.968.362a1 1 0 0 1 1-1h4.412a1 1 0 0 1 0 2h-3.412v1.782h2.78a1 1 0 0 1 0 2h-2.78V30h3.412a1 1 0 1 1 0 2h-4.412a1 1 0 0 1-1-1v-7.564m-9.715-1a1 1 0 0 1 1 1V29a1 1 0 0 0 1 1h1.588a1 1 0 0 0 1-1v-5.564a1 1 0 0 1 2 0V29a3 3 0 0 1-3 3H16.03a3 3 0 0 1-3-3v-5.564a1 1 0 0 1 1-1" clip-rule="evenodd"/></svg>