<svg xmlns="http://www.w3.org/2000/svg" width="32" height="32" fill="none" viewBox="0 0 32 32"><path fill="#111827" fill-rule="evenodd" d="M2.834 18h26.253a1 1 0 0 0 1-1V8.767a1 1 0 0 0-.29-.706L22.062.294A1 1 0 0 0 21.354 0H2.834a1 1 0 0 0-1 1v16a1 1 0 0 0 1 1ZM21.851 7.773v-6.32l6.826 6.82h-6.326a.5.5 0 0 1-.5-.5ZM1.909 22.543a1 1 0 0 1 1-1h5.523a1 1 0 0 1 .837 1.547L4.757 30h3.675a1 1 0 1 1 0 2H2.91a1 1 0 0 1-.837-1.547l4.513-6.91H2.909a1 1 0 0 1-1-1Zm14.678 0a1 1 0 1 0-2 0V31a1 1 0 1 0 2 0v-8.456Zm6.08-1c-.57 0-1.032.463-1.032 1.033V31a1 1 0 1 0 2 0v-2.587h3.096a3.435 3.435 0 1 0 0-6.87h-4.064Zm4.064 4.87h-3.096v-2.87h3.096a1.435 1.435 0 1 1 0 2.87Z" clip-rule="evenodd"/></svg>