<svg width="33" height="33" fill="none" xmlns="http://www.w3.org/2000/svg"><path fill-rule="evenodd" clip-rule="evenodd" d="M6.96 3.283a1 1 0 0 0-1 1v24a1 1 0 0 0 1 1h20a1 1 0 0 0 1-1V11.29a1 1 0 0 0-.291-.705L20.69 3.577a1 1 0 0 0-.709-.294H6.96Zm1 24v-22h11.09v5.94a1 1 0 0 0 1 1h5.91v15.06h-18Zm13.09-17.06v-3.4l3.402 3.4H21.05Zm-2.455 5.353a1 1 0 0 0 0 1.414l2.828 2.828-2.828 2.829a1 1 0 1 0 1.414 1.414l3.535-3.535a1 1 0 0 0 0-1.415l-3.535-3.535a1 1 0 0 0-1.414 0Zm-3.27 1.414a1 1 0 0 0-1.414-1.414l-3.535 3.535a1 1 0 0 0 0 1.415l3.535 3.535a1 1 0 0 0 1.414-1.414l-2.828-2.829 2.828-2.828Z" fill="#1C1B1F"/></svg>