<svg width="33" height="33" fill="none" xmlns="http://www.w3.org/2000/svg"><path fill-rule="evenodd" clip-rule="evenodd" d="M18.474 4.283H6.868a1 1 0 0 0-1 1v9.982a1 1 0 0 0 1 1h12.998a1 1 0 0 1 1 1v10.018a1 1 0 0 0 1 1h3.002a1 1 0 0 0 1-1V11.704a1 1 0 0 0-.292-.705l-6.394-6.422a1 1 0 0 0-.708-.294Zm.483 7.136v-5.72l5.725 5.72h-5.725Zm-3.95 7.66a1 1 0 0 0-1.734-.035l-2 3.322-.777-1.194a1 1 0 0 0-1.713.06l-3.648 6.565a1 1 0 0 0 .874 1.486h12.907a1 1 0 0 0 .877-1.481l-4.786-8.724Zm-2.845 5.686 1.927-3.2 3.138 5.718H7.709l2.016-3.629.742 1.14a1 1 0 0 0 1.695-.029Z" fill="#1C1B1F"/></svg>