<svg xmlns="http://www.w3.org/2000/svg" width="32" height="32" fill="none" viewBox="0 0 32 32"><path fill="#111827" fill-rule="evenodd" d="M3.501 0a1 1 0 0 0-1 1v1.876a1 1 0 1 0 2 0V2h1.034a1 1 0 0 0 0-2H3.501Zm6.103 0a1 1 0 0 0 0 2h4.07a1 1 0 1 0 0-2h-4.07Zm8.138 0a1 1 0 1 0 0 2h1.582v7.713a.5.5 0 0 0 .5.5H27.5v1.318a1 1 0 1 0 2 0V9.76a1 1 0 0 0-.172-.562.98.98 0 0 0-.296-.694l-8-7.993a.981.981 0 0 0-.63-.292 1 1 0 0 0-.624-.22h-2.035ZM4.501 6.627a1 1 0 0 0-2 0v3.75a1 1 0 1 0 2 0v-3.75Zm0 7.5a1 1 0 1 0-2 0v3.749a1 1 0 1 0 2 0v-3.75Zm24.998.945a1 1 0 0 0-2 0v3.54a1 1 0 1 0 2 0v-3.54ZM4.501 21.625a1 1 0 1 0-2 0v3.75a1 1 0 1 0 2 0v-3.75Zm24.998.525a1 1 0 0 0-2 0v3.54a1 1 0 1 0 2 0v-3.54ZM4.502 29.124a1 1 0 1 0-2 0V31a1 1 0 0 0 1 1h2.083a1 1 0 1 0 0-2H4.501v-.875Zm24.998.105a1 1 0 0 0-2 0V30h-1.083a1 1 0 0 0 0 2H28.5a1 1 0 0 0 1-1v-1.77ZM9.752 30a1 1 0 1 0 0 2h4.166a1 1 0 1 0 0-2H9.751Zm8.332 0a1 1 0 1 0 0 2h4.167a1 1 0 1 0 0-2h-4.167Z" clip-rule="evenodd"/></svg>