<svg xmlns="http://www.w3.org/2000/svg" width="32" height="32" fill="none" viewBox="0 0 32 32"><path fill="#111827" fill-rule="evenodd" d="M2.246 18.778H29.72a1 1 0 0 0 1-1v-8.65a1 1 0 0 0-.29-.706L22.335.295A1 1 0 0 0 21.628 0H2.246a1 1 0 0 0-1 1v16.778a1 1 0 0 0 1 1M22.127 8.13V1.515l7.122 7.116h-6.622a.5.5 0 0 1-.5-.5m-7.57 12.895a3.243 3.243 0 0 0-.36 6.467 1 1 0 0 0 .2.02h2.126a1.243 1.243 0 1 1 0 2.487h-4.21a1 1 0 0 0 0 2h4.21a3.243 3.243 0 0 0 .102-6.487h-2.068a1.243 1.243 0 0 1 0-2.487h4.21a1 1 0 1 0 0-2zm8.45.182a1 1 0 0 1 1.39.256l2.267 3.29 2.267-3.29a1 1 0 0 1 1.646 1.135l-2.699 3.917 2.7 3.916a1 1 0 0 1-1.647 1.135l-2.267-3.29-2.267 3.29a1 1 0 1 1-1.647-1.135l2.7-3.916-2.7-3.917a1 1 0 0 1 .256-1.39m-20.721-.176a1 1 0 1 0 0 2h2.09V31a1 1 0 0 0 2 0v-7.968h2.09a1 1 0 1 0 0-2h-6.18" clip-rule="evenodd"/></svg>