<svg xmlns="http://www.w3.org/2000/svg" width="32" height="32" fill="none" viewBox="0 0 32 32"><path fill="#111827" fill-rule="evenodd" d="M3.68.001h15.933a1 1 0 0 1 .708.295l8.713 8.75a1 1 0 0 1 .29.705v21.223a1 1 0 0 1-1 1h-4.663a1 1 0 0 1-1-1v-14.01a1 1 0 0 0-1-1H3.682a1 1 0 0 1-1-1V1.001a1 1 0 0 1 1-1M20.12 1.887v7.62h7.626zm-7.643 22.66a3.15 3.15 0 0 1 3.15-3.151h4.036a1 1 0 1 1 0 2h-4.035a1.15 1.15 0 0 0 0 2.301h1.982a3.15 3.15 0 0 1-.096 6.301h-4.036a1 1 0 1 1 0-2h4.035a1.15 1.15 0 1 0 0-2.3h-2.038q-.1 0-.195-.02a3.15 3.15 0 0 1-2.803-3.131m-9.8-2.12c0-.57.461-1.031 1.03-1.031h3.666a3.477 3.477 0 0 1 .516 6.916l2.554 1.881a1 1 0 0 1-1.187 1.61l-4.58-3.374V31a1 1 0 1 1-2 0v-8.572m2 3.923h2.696a1.477 1.477 0 0 0 0-2.954H4.676z" clip-rule="evenodd"/></svg>