<svg xmlns="http://www.w3.org/2000/svg" width="32" height="32" fill="none"><path fill="#111827" fill-rule="evenodd" d="M3.692.23a1 1 0 0 0-1 1v29.54a1 1 0 0 0 1 1h24.616a1 1 0 0 0 1-1V9.856a1 1 0 0 0-.292-.706L20.427.525a1 1 0 0 0-.708-.294H3.692Zm1 29.54V2.23h14.11v7.543a1 1 0 0 0 1 1h7.506V29.77H4.692Zm16.11-20.997V3.801l4.977 4.972h-4.977Zm-2.627 6.52a1 1 0 0 0 0 1.414l3.645 3.645-3.645 3.644a1 1 0 0 0 1.414 1.414l4.352-4.351a1 1 0 0 0 0-1.415l-4.352-4.351a1 1 0 0 0-1.414 0Zm-4.35 1.414a1 1 0 0 0-1.414-1.414l-4.352 4.351a1 1 0 0 0 0 1.415l4.352 4.351a1 1 0 0 0 1.414-1.414l-3.644-3.644 3.644-3.645Z" clip-rule="evenodd"/></svg>