<svg xmlns="http://www.w3.org/2000/svg" width="32" height="32" fill="none" viewBox="0 0 32 32"><path fill="#111827" fill-rule="evenodd" d="M2.855 18h26.254a1 1 0 0 0 1-1V8.767a1 1 0 0 0-.292-.706L22.085.294A1 1 0 0 0 21.375 0H2.855a1 1 0 0 0-1 1v16a1 1 0 0 0 1 1M21.872 7.773v-6.32l6.827 6.82h-6.327a.5.5 0 0 1-.5-.5m-8.176 14.183a1 1 0 0 0-1.841.54V31a1 1 0 0 0 2 0v-5.098l3.624 5.639A1 1 0 0 0 19.32 31v-8.504a1 1 0 1 0-2 0v5.098zm-10.817-.46c-.568 0-1.028.461-1.028 1.029V31a1 1 0 0 0 2 0v-2.606h2.105a3.448 3.448 0 1 0 0-6.897zm3.077 4.898H3.85v-2.897h2.105a1.448 1.448 0 1 1 0 2.897m15.815.346a5.243 5.243 0 0 1 5.243-5.243h2.135a1 1 0 1 1 0 2h-2.135a3.243 3.243 0 1 0 0 6.487h1.135V27.9h-1.514a1 1 0 1 1 0-2h2.014a1.5 1.5 0 0 1 1.5 1.5v3.552c0 .57-.462 1.032-1.032 1.032h-2.103a5.243 5.243 0 0 1-5.243-5.244" clip-rule="evenodd"/></svg>