<svg xmlns="http://www.w3.org/2000/svg" width="32" height="32" fill="none" viewBox="0 0 32 32"><path fill="#111827" fill-rule="evenodd" d="M2.298 18.733H29.7a1 1 0 0 0 1-1V9.107a1 1 0 0 0-.29-.706L22.337.295A1 1 0 0 0 21.629 0H2.298a1 1 0 0 0-1 1v16.733a1 1 0 0 0 1 1M22.128 8.11V1.511l7.105 7.099H22.63a.5.5 0 0 1-.5-.5M1.342 22.734a1 1 0 0 1 1-1h3.122a3.374 3.374 0 1 1 0 6.748H3.341v2.496a1 1 0 1 1-2 0v-8.244m2 3.748h2.122a1.374 1.374 0 0 0 0-2.748H3.341zm8.993-3.748a1 1 0 0 1 1-1h2.061a5.122 5.122 0 1 1 0 10.244h-2.061a1 1 0 0 1-1-1zm6.183 4.122a3.12 3.12 0 0 0-3.122-3.122h-1.061v6.244h1.061a3.12 3.12 0 0 0 3.122-3.122m6.225-5.12a1 1 0 0 0-1 1V31a1 1 0 0 0 2 0v-2.643h3.262a1 1 0 1 0 0-2h-3.262v-2.62h3.953a1 1 0 0 0 0-2z" clip-rule="evenodd"/></svg>