<svg xmlns="http://www.w3.org/2000/svg" width="32" height="32" fill="none" viewBox="0 0 32 32"><path fill="#111827" fill-rule="evenodd" d="M19.625 0H3.678a1 1 0 0 0-1 1v13.976a1 1 0 0 0 1 1h17.998a1 1 0 0 1 1 1V31a1 1 0 0 0 1 1h4.67a1 1 0 0 0 1-1V9.758a1 1 0 0 0-.292-.706L20.334.295a1 1 0 0 0-.71-.295Zm.506 9.514V1.888l7.633 7.626h-7.633ZM2.655 21.291a1 1 0 0 1 1-1h8.767a4.002 4.002 0 0 1 3.913 3.166l2.469-1.588a1 1 0 0 1 1.54.842v6.815a1 1 0 0 1-1.54.841l-2.382-1.53v2.109a1 1 0 0 1-1 1H6.655a4 4 0 0 1-4-4V21.29Zm15.69 3.251-1.923 1.236v.68l1.922 1.236v-3.152Zm-3.923-.251V29.946H6.655a2 2 0 0 1-2-2V22.29h7.767a2 2 0 0 1 2 2Z" clip-rule="evenodd"/></svg>