<svg xmlns="http://www.w3.org/2000/svg" width="34" height="34" fill="none" viewBox="0 0 34 34"><path stroke="#111827" stroke-linecap="round" stroke-linejoin="round" stroke-width="2" d="M25.347 17.24a38.2 38.2 0 0 1-2.86 14.541m.91-19.643a7.653 7.653 0 0 0-13.356 5.103c.006 3.89-.98 7.716-2.867 11.118m5.418-25.553A15.317 15.317 0 0 1 33 17.24a46 46 0 0 1-1.138 10.204M1 23.618c.917-2 1.39-4.176 1.388-6.378A15.27 15.27 0 0 1 7.49 5.832m7.426 24.164a30 30 0 0 1-1.046 2.069m3.822-14.825a30.7 30.7 0 0 1-.964 7.653"/></svg>