<svg xmlns="http://www.w3.org/2000/svg" width="34" height="34" fill="none" viewBox="0 0 34 34"><path stroke="#111827" stroke-linecap="round" stroke-linejoin="round" stroke-width="2" d="M4.913 26.271a20.658 20.658 0 0 0 2.158-9.223 10.352 10.352 0 0 1 3.89-8.096m6.482 8.096a30.975 30.975 0 0 1-3.886 15.068m-1.3-15.068a5.185 5.185 0 1 1 10.371 0 36.162 36.162 0 0 1-3.447 15.462m12.937-6.387A46.9 46.9 0 0 0 33 17.048a15.557 15.557 0 0 0-31.115 0A15.532 15.532 0 0 1 1 22.234m10.738 0a25.757 25.757 0 0 1-2.935 7.753m7.343-23.23a10.38 10.38 0 0 1 11.668 10.291c0 1.734-.107 3.466-.32 5.186m-.987 5.186c-.247.959-.527 1.904-.84 2.836"/></svg>