<svg xmlns="http://www.w3.org/2000/svg" width="32" height="33" fill="none"><path fill="#111827" fill-rule="evenodd" d="M17.568 1.572c4.996-1.786 10.349-.89 12.221-.486l.019.004a2.154 2.154 0 0 1 1.602 1.602l.004.02c.403 1.871 1.3 7.224-.486 12.22-.903 2.525-2.496 4.973-5.182 6.811-2.562 1.754-6.05 2.906-10.733 3.108l-2.96 7.036a1 1 0 0 1-1.883-.113l-2.098-7.346L.726 22.33a1 1 0 0 1-.113-1.883l7.036-2.96c.202-4.683 1.354-8.17 3.108-10.733 1.838-2.685 4.286-4.28 6.811-5.182Zm11.477 12.686c-.648 1.813-1.689 3.543-3.314 4.97a5.754 5.754 0 0 1-5.72-5.754 1 1 0 0 0-1-1 5.754 5.754 0 0 1-5.753-5.689c1.43-1.635 3.165-2.68 4.984-3.33 4.437-1.586 9.314-.803 11.112-.417a.153.153 0 0 1 .108.108c.386 1.798 1.17 6.675-.417 11.112Zm-5.53-6.96a1.689 1.689 0 1 1-3.378 0 1.689 1.689 0 0 1 3.377 0Z" clip-rule="evenodd"/></svg>