<svg xmlns="http://www.w3.org/2000/svg" width="32" height="33" fill="none" viewBox="0 0 32 33"><path fill="#111827" fill-rule="evenodd" d="M29.72 1.107a27.7 27.7 0 0 0-6.333-.599c-2.793.068-6.077.617-9 2.354-.345.205-.684.426-1.015.663a1.006 1.006 0 0 0-.18.132c-2.429 1.8-4.447 4.529-5.547 8.55-.813 2.971-1.12 6.633-.743 11.136a68.139 68.139 0 0 1-5.687-1.008 1 1 0 0 0-.427 1.954c2.262.495 4.368.856 6.326 1.097.24 1.959.602 4.064 1.097 6.327a1 1 0 0 0 1.954-.428 68.108 68.108 0 0 1-1.008-5.687c4.503.378 8.165.07 11.136-.743 4.665-1.276 7.59-3.788 9.345-6.741 1.737-2.924 2.287-6.208 2.354-9a27.704 27.704 0 0 0-.599-6.335l-.002-.008A2.2 2.2 0 0 0 29.73 1.11l-.008-.002Zm-6.73 15.568c1.461.594 3.016.917 4.59.956.118-.178.23-.357.339-.539 1.5-2.525 2.01-5.433 2.073-8.027a25.702 25.702 0 0 0-.553-5.857.2.2 0 0 0-.147-.147 25.704 25.704 0 0 0-5.857-.553c-2.594.062-5.502.573-8.027 2.074-.181.107-.361.22-.539.34a13.035 13.035 0 0 0 8.122 11.753Zm.233-9.152a1.754 1.754 0 1 1-3.508 0 1.754 1.754 0 0 1 3.508 0Z" clip-rule="evenodd"/></svg>