<svg xmlns="http://www.w3.org/2000/svg" width="32" height="33" fill="none" viewBox="0 0 32 33"><path fill="#111827" fill-rule="evenodd" d="M29.72 1.107a27.7 27.7 0 0 0-6.333-.599c-2.793.068-6.077.617-9 2.354q-.518.308-1.015.663a1 1 0 0 0-.18.132c-2.429 1.8-4.447 4.529-5.547 8.55-.813 2.971-1.12 6.633-.743 11.136a68 68 0 0 1-5.687-1.008 1 1 0 0 0-.427 1.954c2.262.495 4.368.856 6.326 1.097.24 1.959.602 4.064 1.097 6.327a1 1 0 0 0 1.954-.428 68 68 0 0 1-1.008-5.687c4.503.378 8.165.07 11.136-.743 4.665-1.276 7.59-3.788 9.345-6.741 1.737-2.924 2.287-6.208 2.354-9a27.7 27.7 0 0 0-.599-6.335l-.002-.008A2.2 2.2 0 0 0 29.73 1.11zm-6.73 15.568c1.461.594 3.016.917 4.59.956q.176-.267.339-.539c1.5-2.525 2.01-5.433 2.073-8.027a25.7 25.7 0 0 0-.553-5.857.2.2 0 0 0-.147-.147 25.7 25.7 0 0 0-5.857-.553c-2.594.062-5.502.573-8.027 2.074q-.272.16-.539.34a13.04 13.04 0 0 0 8.122 11.753m.233-9.152a1.754 1.754 0 1 1-3.508 0 1.754 1.754 0 0 1 3.508 0" clip-rule="evenodd"/></svg>