<svg xmlns="http://www.w3.org/2000/svg" width="33" height="32" fill="none" viewBox="0 0 33 32"><path fill="#111827" fill-rule="evenodd" d="M29.956 2.486c-2.433 1.825-4.655 2.255-6.802 2.033a12.997 12.997 0 0 1-2.134-.417.993.993 0 0 0-.179-.05c-1.436-.415-2.885-1.033-4.407-1.685l-.07-.03C14.104 1.37 11.676.328 9.132.065 6.5-.207 3.777.35.936 2.478a1.005 1.005 0 0 0-.412.82V31a1 1 0 1 0 2 0v-7.407c2.278-1.581 4.374-1.953 6.403-1.743.714.074 1.423.22 2.135.417a.992.992 0 0 0 .177.05c1.436.415 2.885 1.032 4.407 1.684l.07.03c2.26.97 4.688 2.01 7.232 2.273 2.636.273 5.363-.288 8.208-2.422a1 1 0 0 0 .4-.8V3.286a1 1 0 0 0-1.6-.8ZM21.66 24.06c.497.115.995.202 1.495.253 2.029.21 4.124-.162 6.402-1.743v-7.854c-2.272 1.27-4.47 1.597-6.608 1.376a13.67 13.67 0 0 1-1.29-.198v8.166Zm-9.237-13.683V2.904c1.052.373 2.119.828 3.224 1.302l.07.03c1.265.542 2.582 1.106 3.943 1.545v7.472c-1.052-.372-2.12-.828-3.225-1.302l-.07-.03c-1.265-.542-2.582-1.106-3.942-1.544Zm-2 1.515v8.166a13.683 13.683 0 0 0-1.29-.198c-2.138-.222-4.336.105-6.608 1.375v-7.853c2.278-1.582 4.374-1.954 6.403-1.744.5.052.997.139 1.495.254Z" clip-rule="evenodd"/></svg>