<svg xmlns="http://www.w3.org/2000/svg" width="32" height="33" fill="none" viewBox="0 0 32 33"><path fill="#111827" fill-rule="evenodd" d="M28.231 7.595a3.547 3.547 0 1 0-3.022-1.689l-5.97 5.971a5.38 5.38 0 0 0-3.28-1.11c-1.101 0-2.126.33-2.98.896L7.207 5.892a2.36 2.36 0 1 0-1.498 1.33l5.835 5.835a5.38 5.38 0 0 0-.987 3.113c0 1.15.36 2.216.972 3.092l-6.194 6.194a3.547 3.547 0 1 0 1.474 1.355l6.149-6.15c.57.382 1.215.658 1.91.8v3.475a3.862 3.862 0 0 0 1.091 7.564 3.86 3.86 0 0 0 .909-7.613v-3.392a5.4 5.4 0 0 0 2.15-.872l3.972 3.972a2.36 2.36 0 1 0 1.508-1.32l-4.07-4.07c.588-.865.933-1.91.933-3.035a5.4 5.4 0 0 0-.784-2.803l6.12-6.12c.465.223.985.348 1.534.348" clip-rule="evenodd"/></svg>