<svg xmlns="http://www.w3.org/2000/svg" width="32" height="33" fill="none" viewBox="0 0 32 33"><path fill="#111827" fill-rule="evenodd" d="M14.06 12.379c-1.146-2.437-2.327-5.425-2.327-7.399a4.48 4.48 0 0 1 8.96 0c0 1.974-1.182 4.961-2.328 7.398a4.46 4.46 0 0 0-2.151-.55c-.78 0-1.514.2-2.153.55m-.341.208c-1.54-2.223-3.541-4.747-5.25-5.719a4.48 4.48 0 0 0-4.48 7.744c1.744 1.008 5.024 1.488 7.744 1.696l.001-.001c0-1.55.788-2.916 1.985-3.72m-1.966 4.14-.02-.035c-2.72.208-6 .688-7.744 1.696a4.48 4.48 0 1 0 4.48 7.744c1.744-.992 3.792-3.6 5.344-5.856l-.176-.303a4.48 4.48 0 0 1-1.884-3.246m2.796 3.741h-.416c-1.168 2.464-2.4 5.536-2.4 7.552a4.48 4.48 0 0 0 8.96 0c0-2.016-1.232-5.088-2.4-7.552h-.414a4.5 4.5 0 0 1-1.665.32c-.589 0-1.15-.114-1.665-.32m4.239-.493-.175.301c1.552 2.256 3.6 4.864 5.344 5.856a4.48 4.48 0 0 0 4.48-7.744c-1.744-1.008-5.024-1.488-7.744-1.696l-.019.032a4.48 4.48 0 0 1-1.886 3.25m1.905-3.667c2.72-.208 6-.688 7.744-1.696a4.48 4.48 0 0 0-4.48-7.744c-1.709.972-3.71 3.495-5.25 5.718a4.47 4.47 0 0 1 1.986 3.722" clip-rule="evenodd"/></svg>