<svg xmlns="http://www.w3.org/2000/svg" width="32" height="33" fill="none" viewBox="0 0 32 33"><path fill="#111827" fill-rule="evenodd" d="M16 5.311c-.435 0-.859.14-1.21.397l-.01.008c-1.009.762-2.86 2.458-3.983 5.365a9.919 9.919 0 0 0-3.199-1.338 1.004 1.004 0 0 0-1.183.682c-.32.982-.693 2.786-.221 5.123-2.051-.39-3.677-.174-4.671.084a2.017 2.017 0 0 0-1.45 2.497c.46 1.671 1.88 4.736 6.049 7.136 4.145 2.386 7.774 2.424 9.879 2.424h.025c2.105 0 5.724-.034 9.855-2.425 4.166-2.412 5.587-5.462 6.047-7.135a2.017 2.017 0 0 0-1.45-2.497c-.994-.258-2.622-.475-4.674-.074.476-2.341.101-4.15-.218-5.133a1.004 1.004 0 0 0-1.184-.682 9.919 9.919 0 0 0-3.198 1.337c-1.123-2.906-2.973-4.602-3.983-5.364l-.01-.008a2.042 2.042 0 0 0-1.21-.397ZM6.789 17.574a.996.996 0 0 1-.547.027c-1.931-.447-3.413-.242-4.219-.032l-.01.003a.016.016 0 0 0-.013.014v.006l.002.006c.34 1.237 1.467 3.832 5.119 5.934a15.636 15.636 0 0 0 6.006 2.015 12.1 12.1 0 0 1-.485-.579l-.005-.006c-1.645-1.175-3.481-2.934-4.832-5.273a14.976 14.976 0 0 1-1.016-2.115Zm17.408 2.115c.42-.728.753-1.431 1.012-2.104.173.06.366.073.558.027 1.928-.458 3.407-.253 4.213-.043l.01.003.006.002a.017.017 0 0 1 .006.011v.007l-.002.005c-.338 1.236-1.465 3.82-5.12 5.936a15.474 15.474 0 0 1-6.006 2.017c.161-.18.324-.374.487-.582l.008-.009c1.644-1.175 3.479-2.933 4.828-5.27Zm-8.01 5.659a7.764 7.764 0 0 1-.185.141 9.664 9.664 0 0 1-1.787-1.757c-1.165-1.482-2.36-3.842-2.36-7.337 0-5.436 2.907-8.156 4.124-9.077a.042.042 0 0 1 .046 0c1.217.92 4.123 3.641 4.123 9.077 0 3.495-1.194 5.855-2.36 7.337a9.664 9.664 0 0 1-1.6 1.616Z" clip-rule="evenodd"/></svg>