<svg xmlns="http://www.w3.org/2000/svg" width="32" height="32" fill="none" viewBox="0 0 32 32"><path fill="#111827" fill-rule="evenodd" d="M27.01 4.864a1 1 0 1 0-1.414 1.414l2.99 2.99h-6.443a7.643 7.643 0 0 0-7.643 7.643 5.643 5.643 0 0 1-5.643 5.643H7.75q-.065 0-.128.008A3.877 3.877 0 0 0 0 23.554a3.875 3.875 0 0 0 7.622.992q.063.009.128.008h1.107a7.643 7.643 0 0 0 7.643-7.643 5.643 5.643 0 0 1 5.643-5.643h6.443l-2.99 2.99a1 1 0 0 0 1.414 1.415l4.677-4.677a.997.997 0 0 0 0-1.456z" clip-rule="evenodd"/></svg>