<svg xmlns="http://www.w3.org/2000/svg" width="32" height="32" fill="none"><path fill="#111827" fill-rule="evenodd" d="M.001 3.981a1 1 0 0 1 1-1h10a1 1 0 0 1 .678.266l4.712 4.35h14.608a1 1 0 0 1 1 1v3.55a1 1 0 1 1-2 0v-2.55H16c-.262 0-.5-.101-.678-.266l-4.713-4.35H2.001v22.037h10.962a1 1 0 0 1 0 2H1a1 1 0 0 1-1-1V3.981Zm23.064 11.374-1.6 3.445a.5.5 0 0 1-.426.288l-3.834.216a.5.5 0 0 0-.305.872l3.105 2.776a.5.5 0 0 1 .142.527l-1.074 3.3a.5.5 0 0 0 .725.588l3.498-2.018a.5.5 0 0 1 .515.01l3.197 1.998a.5.5 0 0 0 .75-.548L26.9 23.46a.5.5 0 0 1 .148-.493l3.066-2.79a.5.5 0 0 0-.31-.87l-4.049-.218a.5.5 0 0 1-.438-.316l-1.335-3.39a.5.5 0 0 0-.918-.028Z" clip-rule="evenodd"/></svg>