<svg xmlns="http://www.w3.org/2000/svg" width="32" height="32" fill="none"><path fill="#111827" fill-rule="evenodd" d="M1 2.917a1 1 0 0 0-1 1v5.566h.24v1.24a1 1 0 1 0 2 0v-1.24H19.7l-.815-.815a1 1 0 0 0-.906-1.425h-.518L13.427 3.21a1 1 0 0 0-.708-.293H1Zm20.7 4.327a1 1 0 1 0 0 2h3.72a1 1 0 1 0 0-2H21.7Zm7.44 0a1 1 0 1 0 0 2H30v1.48a1 1 0 1 0 2 0v-2.48a1 1 0 0 0-1-1h-1.86Zm-26.9 8.44a1 1 0 1 0-2 0v4.96a1 1 0 1 0 2 0v-4.96Zm29.76 0a1 1 0 1 0-2 0v4.96a1 1 0 1 0 2 0v-4.96Zm-29.76 9.92a1 1 0 1 0-2 0v2.48a1 1 0 0 0 1 1H3.1a1 1 0 1 0 0-2h-.86v-1.48Zm29.76 0a1 1 0 1 0-2 0v1.48h-.86a1 1 0 0 0 0 2H31a1 1 0 0 0 1-1v-2.48Zm-25.18 1.48a1 1 0 0 0 0 2h3.72a1 1 0 1 0 0-2H6.82Zm7.44 0a1 1 0 0 0 0 2h3.72a1 1 0 1 0 0-2h-3.72Zm7.44 0a1 1 0 0 0 0 2h3.72a1 1 0 1 0 0-2H21.7Z" clip-rule="evenodd"/></svg>