<svg xmlns="http://www.w3.org/2000/svg" width="32" height="32" fill="none" viewBox="0 0 32 32"><path fill="#111827" fill-rule="evenodd" d="M.999 2.98a1 1 0 0 0-1 1V28.02a1 1 0 0 0 1 1h13.213a1 1 0 0 0 0-2H2V4.979h8.61l4.713 4.351a1 1 0 0 0 .678.265h14.002v2.552a1 1 0 0 0 2 0V8.595a1 1 0 0 0-1-1h-14.61l-4.714-4.35A1 1 0 0 0 11 2.979zm23.755 20.032a3.75 3.75 0 1 0-.02 0 5.01 5.01 0 0 0-4.9 4.015c-.11.541.349.993.9.993h8.018c.552 0 1.01-.452.902-.993a5.01 5.01 0 0 0-4.9-4.015" clip-rule="evenodd"/></svg>