<svg xmlns="http://www.w3.org/2000/svg" width="32" height="32" fill="none" viewBox="0 0 32 32"><path fill="#111827" fill-rule="evenodd" d="M1.501 3.462a1.5 1.5 0 0 0-1.5 1.5v6.423a1 1 0 1 0 2 0V5.462h8.608l4.713 4.35a1 1 0 0 0 .678.265h1.875a1 1 0 1 0 0-2H16.39L11.822 3.86a1.5 1.5 0 0 0-1.017-.398zm20.124 4.615a1 1 0 1 0 0 2h3.75a1 1 0 1 0 0-2zm7.5 0a1 1 0 1 0 0 2h.874v1.328a1 1 0 0 0 2 0V9.077a1 1 0 0 0-1-1zM2 16a1 1 0 1 0-2 0v4.615a1 1 0 1 0 2 0zm29.998.06a1 1 0 1 0-2 0v4.615a1 1 0 0 0 2 0V16.06M2.001 25.23a1 1 0 1 0-2 0v2.308a1 1 0 0 0 1 1h2.39a1 1 0 1 0 0-2h-1.39zm29.998.02a1 1 0 1 0-2 0v1.288H28.28a1 1 0 1 0 0 2H31a1 1 0 0 0 1-1zM8.172 26.538a1 1 0 1 0 0 2h4.78a1 1 0 1 0 0-2zm9.56 0a1 1 0 1 0 0 2h5.11a1 1 0 1 0 0-2h-5.11" clip-rule="evenodd"/></svg>