<svg xmlns="http://www.w3.org/2000/svg" width="32" height="32" fill="none" viewBox="0 0 32 32"><path fill="#111827" fill-rule="evenodd" d="M1 3.26a1 1 0 0 0-1 1V27.582a1 1 0 0 0 1 1h11.606a1 1 0 1 0 0-2H2V5.26h8.31l4.564 4.213a.997.997 0 0 0 .679.265h13.553v2.446a1 1 0 1 0 2 0V8.738a1 1 0 0 0-1-1H15.944L11.38 3.525a1 1 0 0 0-.678-.265H1Zm16.296 17.494a1 1 0 0 1 1-1h2.32v-.661a4.032 4.032 0 0 1 8.064 0v.661H31a1 1 0 0 1 1 1v6.986a1 1 0 0 1-1 1H18.296a1 1 0 0 1-1-1v-6.986Zm9.384-1v-.661a2.032 2.032 0 1 0-4.063 0v.661h4.063Z" clip-rule="evenodd"/></svg>