<svg xmlns="http://www.w3.org/2000/svg" width="32" height="32" fill="none" viewBox="0 0 32 32"><path fill="#111827" fill-rule="evenodd" d="M1 2.904a1 1 0 0 0-1 1v5.47h.236v18.722a1 1 0 0 0 1 1h12.39a1 1 0 1 0 0-2H2.236V9.374h17.256l-.12-.12H30v2.74a1 1 0 1 0 2 0v-3.74a1 1 0 0 0-1-1H17.363l-4.075-4.059a1 1 0 0 0-.706-.291H1Zm20.54 16.043 1.583-3.407a.5.5 0 0 1 .919.027l1.32 3.353a.5.5 0 0 0 .438.316l4.006.217a.5.5 0 0 1 .31.869l-3.034 2.76a.5.5 0 0 0-.148.494l.847 3.31a.5.5 0 0 1-.75.548l-3.162-1.976a.5.5 0 0 0-.515-.01l-3.46 1.997a.5.5 0 0 1-.725-.588l1.062-3.262a.5.5 0 0 0-.142-.528l-3.072-2.745a.5.5 0 0 1 .305-.872l3.793-.214a.5.5 0 0 0 .425-.289Z" clip-rule="evenodd"/></svg>