<svg xmlns="http://www.w3.org/2000/svg" width="32" height="32" fill="none" viewBox="0 0 32 32"><path fill="#111827" fill-rule="evenodd" d="M1 3.683a1 1 0 0 0-1 1v8.028c0 .024.001.047.003.07H0v14.537a1 1 0 0 0 1 1h30a1 1 0 0 0 1-1V9.435a1 1 0 0 0-1-1H15.89l-4.553-4.466a1 1 0 0 0-.7-.286H1Zm12.808 5.511-3.58-3.511H2.001V11.71h8.326l2.717-1.861.764-.656Zm-1.777 9.507a1 1 0 0 0 0 2h2.993v2.994a1 1 0 0 0 2 0V20.7h2.994a1 1 0 1 0 0-2h-2.994v-2.994a1 1 0 0 0-2 0V18.7h-2.993Z" clip-rule="evenodd"/></svg>