<svg xmlns="http://www.w3.org/2000/svg" width="32" height="32" fill="none" viewBox="0 0 32 32"><path fill="#111827" fill-rule="evenodd" d="M6.244 6.244C9.873 2.614 14.216.97 18.24.338L31.662 13.76c-.633 4.024-2.277 8.367-5.906 11.996-3.629 3.63-7.972 5.273-11.996 5.906L.338 18.241C.97 14.216 2.615 9.873 6.244 6.244ZM.059 20.79c-.184 2.91.092 5.507.403 7.344a4.153 4.153 0 0 0 3.404 3.404c1.837.311 4.435.587 7.344.403L.06 20.79ZM31.538 3.866c.311 1.837.587 4.435.403 7.344L20.79.06c2.91-.185 5.507.091 7.344.402a4.153 4.153 0 0 1 3.404 3.404Zm-9.312 7.322a1 1 0 0 0-1.414-1.414l-2.86 2.86-1.817-1.815a1 1 0 0 0-1.414 1.414l1.816 1.816-2.488 2.488-1.816-1.816a1 1 0 0 0-1.414 1.415l1.816 1.815-2.861 2.861a1 1 0 0 0 1.414 1.414l2.86-2.86 1.816 1.815a1 1 0 0 0 1.415-1.414l-1.816-1.816 2.488-2.488 1.816 1.816a1 1 0 0 0 1.414-1.415l-1.816-1.815 2.861-2.86Z" clip-rule="evenodd"/></svg>