<svg xmlns="http://www.w3.org/2000/svg" width="32" height="32" fill="none" viewBox="0 0 32 32"><path fill="#111827" fill-rule="evenodd" d="M27.16 21.022h-8.235S20.69.85 28.16.002v.07a1 1 0 0 1 1 1V31a1 1 0 1 1-2 0zM6.074 1.232A1 1 0 0 0 4.1.902L2.854 8.387a1 1 0 0 0-.014.164 6.61 6.61 0 0 0 5.612 6.536V31a1 1 0 0 0 2 0V15.086a6.61 6.61 0 0 0 5.612-6.536q0-.083-.013-.164L14.804.903a1 1 0 1 0-1.973.329l1.233 7.397a4.612 4.612 0 0 1-9.223 0zM9.452.067a1 1 0 0 1 1 1v6.236a1 1 0 1 1-2 0V1.067a1 1 0 0 1 1-1" clip-rule="evenodd"/></svg>