<svg xmlns="http://www.w3.org/2000/svg" width="32" height="32" fill="none" viewBox="0 0 32 32"><path fill="#111827" fill-rule="evenodd" d="M15.963 8.99A6 6 0 0 1 21.878 4h3.55a1 1 0 1 1 0 2h-3.55a4 4 0 0 0-3.943 3.327L15.6 23.01A6 6 0 0 1 9.686 28H6.57a1 1 0 1 1 0-2h3.115a4 4 0 0 0 3.943-3.327L15.963 8.99Zm10.173 11.075a1 1 0 0 1 0 1.414l-2.407 2.407 2.407 2.407a1 1 0 0 1-1.414 1.415L22.314 25.3l-2.407 2.408a1 1 0 0 1-1.414-1.415l2.407-2.407-2.407-2.407a1 1 0 0 1 1.414-1.414l2.407 2.407 2.408-2.407a1 1 0 0 1 1.414 0Z" clip-rule="evenodd"/></svg>