<svg xmlns="http://www.w3.org/2000/svg" width="32" height="32" fill="none" viewBox="0 0 32 32"><path fill="#111827" fill-rule="evenodd" d="M3.43 7.628.114 21.742a4.259 4.259 0 0 0 7.448 3.662l4.9-6.019c.259-.318.647-.503 1.058-.503h3.573l5.756 7.148a5.144 5.144 0 0 0 9.055-4.211l-2.03-10.407v-2.36a5 5 0 0 0-5-5H7.943A4.635 4.635 0 0 0 3.43 7.629Zm25.468 9.223a4.993 4.993 0 0 1-4.023 2.031H19.66l4.746 5.893a3.144 3.144 0 0 0 5.534-2.573l-1.043-5.35ZM11.444 9.23a1 1 0 1 0-2 0v1.3H8.143a1 1 0 1 0 0 2h1.3v1.3a1 1 0 1 0 2 0v-1.3h1.3a1 1 0 1 0 0-2h-1.3v-1.3Zm7.198 2.3a1 1 0 0 1 1-1h4.6a1 1 0 1 1 0 2h-4.6a1 1 0 0 1-1-1Z" clip-rule="evenodd"/></svg>