<svg xmlns="http://www.w3.org/2000/svg" width="32" height="32" fill="none" viewBox="0 0 32 32"><path fill="#111827" fill-rule="evenodd" d="M20.61 3.812a1 1 0 0 0-1-1H5.46a1 1 0 0 0-1 1v23.376h-3.46a1 1 0 1 0 0 2H24.07a1 1 0 1 0 0-2h-3.46V14.164h2.365a2.477 2.477 0 0 1 2.476 2.477v4.68a3.274 3.274 0 0 0 6.548 0V8.715a1 1 0 0 0-.293-.707l-3.512-3.512a1 1 0 1 0-1.414 1.415L30 9.13V21.32a1.274 1.274 0 0 1-2.549 0v-4.68a4.477 4.477 0 0 0-4.476-4.476h-2.366zM9.074 12.193a1 1 0 1 0 0 2h6.92a1 1 0 0 0 0-2z" clip-rule="evenodd"/></svg>