<svg xmlns="http://www.w3.org/2000/svg" width="32" height="32" fill="none" viewBox="0 0 32 32"><path fill="#111827" fill-rule="evenodd" d="M.494 16.948C2.176 10.338 7.974 5.372 15 4.938v4.893a1 1 0 0 0 2 0V4.938c7.025.434 12.823 5.4 14.506 12.01l-5.066 1.358a1 1 0 1 0 .518 1.931l4.92-1.318c.08.652.122 1.315.122 1.989v4.14a2.014 2.014 0 0 1-2.014 2.014H13.483l10.054-13.103a1 1 0 1 0-1.587-1.217l-10.988 14.32H2.014A2.014 2.014 0 0 1 0 25.048v-4.14c0-.674.042-1.337.122-1.988l4.92 1.318a1 1 0 1 0 .517-1.932L.494 16.948Z" clip-rule="evenodd"/></svg>