<svg xmlns="http://www.w3.org/2000/svg" width="32" height="32" fill="none" viewBox="0 0 32 32"><path fill="#111827" fill-rule="evenodd" d="M6.867 24.467c.153.165.185.41.073.605l-1.557 2.696a.5.5 0 0 0 .183.683l4.867 2.81a.5.5 0 0 0 .683-.183l1.556-2.694a.514.514 0 0 1 .56-.24 12.5 12.5 0 0 0 5.536 0c.22-.049.448.046.56.24l1.556 2.694a.5.5 0 0 0 .683.184l4.867-2.81a.5.5 0 0 0 .183-.684l-1.557-2.697a.514.514 0 0 1 .073-.605 12.44 12.44 0 0 0 2.77-4.79.514.514 0 0 1 .487-.366h3.11a.5.5 0 0 0 .5-.5v-5.62a.5.5 0 0 0-.5-.5h-3.11a.514.514 0 0 1-.488-.366 12.441 12.441 0 0 0-2.77-4.791.513.513 0 0 1-.072-.605l1.556-2.696a.5.5 0 0 0-.183-.683L21.566.739a.5.5 0 0 0-.683.182l-1.555 2.694a.514.514 0 0 1-.56.24A12.496 12.496 0 0 0 16 3.546c-.951 0-1.877.107-2.768.309a.514.514 0 0 1-.56-.24L11.117.921a.5.5 0 0 0-.683-.183l-4.867 2.81a.5.5 0 0 0-.183.684L6.94 6.928c.113.195.08.44-.073.605a12.44 12.44 0 0 0-2.77 4.79.514.514 0 0 1-.487.367H.5a.5.5 0 0 0-.5.5v5.62a.5.5 0 0 0 .5.5h3.11c.225 0 .421.151.488.366a12.44 12.44 0 0 0 2.769 4.79ZM24 16a8 8 0 1 1-16 0 8 8 0 0 1 16 0Z" clip-rule="evenodd"/></svg>