<svg xmlns="http://www.w3.org/2000/svg" width="32" height="33" fill="none" viewBox="0 0 32 33"><path fill="#111827" fill-rule="evenodd" d="M31.93 1.132A1 1 0 0 0 31 .501H22.56a1 1 0 1 0 0 2h6.024l-5.672 5.672-3.336-3.336a1 1 0 1 0-1.415 1.414l3.336 3.336-3.798 3.799-.032.033a10.74 10.74 0 0 0-6.885-2.484C4.828 10.935.001 15.762.001 21.717S4.828 32.5 10.783 32.5s10.782-4.827 10.782-10.782c0-2.618-.933-5.017-2.484-6.885l.033-.032 3.799-3.799 3.336 3.337a1 1 0 0 0 1.414-1.414l-3.336-3.337 5.672-5.672v6.024a1 1 0 1 0 2 0V1.5a1 1 0 0 0-.07-.369" clip-rule="evenodd"/></svg>