<svg xmlns="http://www.w3.org/2000/svg" width="32" height="33" fill="none" viewBox="0 0 32 33"><path fill="#111827" fill-rule="evenodd" d="M14.82 2.644a5 5 0 0 0-7.07 7.071c.527.528 1.225.904 1.939 1.18H1a1 1 0 0 0-1 1v7h14.996V11.86H15V9.895h2.027v1.968h.008v7.033H32v-7a1 1 0 0 0-1-1H22.34c.713-.276 1.412-.652 1.938-1.18a5 5 0 0 0-7.07-7.07c-.536.535-.916 1.248-1.193 1.974-.277-.726-.657-1.439-1.193-1.974Zm-.564 2.998c.239.718.405 1.538.518 2.33.1.704.157 1.366.188 1.884L13.407 4.06c.311.311.604.848.849 1.583Zm-.849-1.583 1.555 5.797a23.412 23.412 0 0 1-1.885-.187c-.791-.113-1.611-.28-2.33-.519-.735-.245-1.271-.537-1.583-.848a3 3 0 0 1 4.243-4.243Zm1.59 17.529H2.728v9.23a1 1 0 0 0 1 1h11.267v-10.23Zm14.28 0H17.034v10.23h11.241a1 1 0 0 0 1-1v-9.23ZM17.252 7.972c.113-.792.28-1.612.519-2.33.245-.735.537-1.272.849-1.583a3 3 0 0 1 4.242 4.243c-.311.31-.848.603-1.583.848-.718.24-1.538.406-2.33.519-.704.1-1.366.156-1.884.187.03-.518.087-1.18.188-1.884Z" clip-rule="evenodd"/></svg>