<svg xmlns="http://www.w3.org/2000/svg" width="32" height="32" fill="none" viewBox="0 0 32 32"><path fill="#111827" fill-rule="evenodd" d="M18.057 2.347a.998.998 0 0 1 1-1.025h8.136a1 1 0 1 1 0 2h-5.904l6.74 7.554a1 1 0 0 1 .253.666v9.877a4.668 4.668 0 0 1-.949 9.237 4.667 4.667 0 0 1-1.051-9.215v-9.518l-6.225-6.978v5.513a1 1 0 1 1-2 0V2.347ZM9.333 5.989a4.669 4.669 0 0 1-3.615 4.548v9.53l6.234 6.988v-5.522a1 1 0 1 1 2 0v8.116a.998.998 0 0 1-1.015 1.03h-8.13a1 1 0 1 1 0-2h5.913l-6.748-7.565a1 1 0 0 1-.254-.666V10.56a4.668 4.668 0 0 1 .949-9.237A4.667 4.667 0 0 1 9.333 5.99Z" clip-rule="evenodd"/></svg>