<svg xmlns="http://www.w3.org/2000/svg" width="32" height="33" fill="none" viewBox="0 0 32 33"><path fill="#111827" fill-rule="evenodd" d="M6.324 10.585A5.092 5.092 0 0 0 5.331.5a5.09 5.09 0 0 0-.995 10.085 1 1 0 0 0-.006.109v5.547a1 1 0 0 0 1 1H15v5.077q0 .05.004.098A5.093 5.093 0 0 0 16 32.5a5.09 5.09 0 0 0 .995-10.084q.005-.048.005-.098v-5.077h9.67a1 1 0 0 0 1-1v-5.547q0-.056-.006-.11A5.093 5.093 0 0 0 26.67.5a5.09 5.09 0 0 0-.995 10.085 1 1 0 0 0-.005.109v4.547H6.33v-4.547q0-.055-.006-.11" clip-rule="evenodd"/></svg>