<svg xmlns="http://www.w3.org/2000/svg" width="33" height="32" fill="none" viewBox="0 0 33 32"><path fill="#111827" fill-rule="evenodd" d="M19.902 32c6.951-1.768 12.1-8.152 12.1-15.757C32.002 7.273 24.838 0 16 0 7.163 0 0 7.272 0 16.243c0 7.605 5.148 13.989 12.1 15.757a3.994 3.994 0 0 1-.073-.76V27.68c-1.2.36-3.868.555-5.124-1.502-.25-.67-.966-2.145-1.842-2.697-1.095-.688-.732-.902-.57-.997.426-.114 1.495-.11 2.363.81.165.184.531.617.679.876l.011.02c.218.387 1.387 2.466 4.506 1.26l.1-.032a3.972 3.972 0 0 1 1.115-1.893 15.424 15.424 0 0 1-2.18-.48c-3.034-.769-5.257-3.523-5.256-7.31 0-2.048.632-3.643 1.664-4.887-.638-1.494-.145-3.393.186-4.164 1.455-.193 3.495 1.056 4.241 1.575 1.215-.294 2.615-.447 4.17-.447 1.46 0 2.84.155 4.056.438.815-.546 2.751-1.758 4.209-1.55.331.724.83 2.528.247 4.074 1.066 1.324 1.712 3.06 1.712 4.96 0 3.025-1.648 5.69-4.006 6.823-1 .442-2.215.78-3.563.975a3.964 3.964 0 0 1 1.23 2.876v4.833c0 .26-.024.514-.072.76Z" clip-rule="evenodd"/></svg>