<svg xmlns="http://www.w3.org/2000/svg" width="32" height="32" fill="none" viewBox="0 0 32 32"><path fill="#111827" d="M3.537 11.44H9.64L5.12 2.398l-2.51 8.779a.5.5 0 0 0-.052.117L.54 17.91a.5.5 0 0 0 .183.55l15.112 11.044a.5.5 0 0 0 .593-.002l14.854-11.045a.5.5 0 0 0 .184-.534l-1.819-6.617a.5.5 0 0 0-.065-.143l-2.504-8.766-4.521 9.042h6.108q0 .065.018.132l1.728 6.288-13.815 10.272 5.96-16.692H9.64l5.945 16.644L1.599 17.863l1.916-6.277a.5.5 0 0 0 .022-.146"/><path stroke="#111827" stroke-linejoin="round" d="M9.64 11.44H3.537a.5.5 0 0 1-.022.146l-1.916 6.277 13.986 10.221zm0 0L5.12 2.398l-2.51 8.779a.5.5 0 0 0-.052.117L.54 17.91a.5.5 0 0 0 .183.55l15.112 11.044a.5.5 0 0 0 .593-.002l14.854-11.045a.5.5 0 0 0 .184-.534l-1.819-6.617a.5.5 0 0 0-.065-.143l-2.504-8.766-4.521 9.042m-12.916 0h12.916m0 0h6.108q0 .065.018.132l1.728 6.288-13.815 10.272z"/></svg>