<svg xmlns="http://www.w3.org/2000/svg" width="32" height="32" fill="none" viewBox="0 0 32 32"><path fill="#111827" fill-rule="evenodd" d="M6.276 10.043A5.093 5.093 0 0 0 5.09 0a5.09 5.09 0 0 0-1.006 10.082c-.004.04-.007.08-.007.121V21.83c0 .03.001.059.004.088A5.093 5.093 0 0 0 5.09 32a5.091 5.091 0 0 0 .983-10.087c.002-.027.003-.055.003-.083v-9.012l2.814 3.14a11 11 0 0 0 8.192 3.658h4.71c.077 0 .151-.008.223-.024a5.09 5.09 0 1 0-.167-1.974 1.015 1.015 0 0 0-.055-.002h-4.711a9 9 0 0 1-6.702-2.993l-4.105-4.58Z" clip-rule="evenodd"/></svg>