<svg xmlns="http://www.w3.org/2000/svg" width="32" height="33" fill="none" viewBox="0 0 32 33"><path fill="#111827" fill-rule="evenodd" d="M10.181 5.59c0 2.472-1.76 4.532-4.095 4.995q.005.047.005.097v11.636q0 .05-.005.098A5.093 5.093 0 0 1 5.09 32.5a5.09 5.09 0 0 1-.995-10.084 1 1 0 0 1-.004-.098V10.682q0-.05.004-.097A5.093 5.093 0 0 1 5.09.5a5.09 5.09 0 0 1 5.091 5.09M32 27.41a5.09 5.09 0 1 1-6.69-4.835 1 1 0 0 1-.033-.256v-10.32l-7.013-7.861v6.293a1 1 0 1 1-2 0V1.515a1 1 0 0 1 1-1h8.915a1 1 0 1 1 0 2h-6.683l7.527 8.438a1 1 0 0 1 .254.665v10.713A5.09 5.09 0 0 1 32 27.41" clip-rule="evenodd"/></svg>