<svg xmlns="http://www.w3.org/2000/svg" width="32" height="32" fill="none"><path fill="#111827" fill-rule="evenodd" d="M10.181 5.09c0 2.472-1.76 4.532-4.095 4.995.003.031.005.064.005.097v11.636c0 .033-.002.066-.005.098A5.093 5.093 0 0 1 5.09 32a5.09 5.09 0 0 1-.995-10.084 1.013 1.013 0 0 1-.004-.098V10.182c0-.033.001-.065.004-.097A5.093 5.093 0 0 1 5.09 0a5.09 5.09 0 0 1 5.091 5.09ZM32 26.91a5.09 5.09 0 1 1-6.69-4.835 1.001 1.001 0 0 1-.033-.256v-10.32l-7.013-7.861v6.293a1 1 0 1 1-2 0V1.015a1 1 0 0 1 1-1h8.915a1 1 0 1 1 0 2h-6.683l7.527 8.438a1 1 0 0 1 .254.665V21.831A5.091 5.091 0 0 1 32 26.91Z" clip-rule="evenodd"/></svg>