<svg xmlns="http://www.w3.org/2000/svg" width="33" height="33" fill="none" viewBox="0 0 33 33"><path fill="#111827" fill-rule="evenodd" d="M32.136.793a1 1 0 0 1 0 1.415l-2.817 2.816 2.817 2.816a1 1 0 0 1-1.415 1.414l-2.816-2.816-2.816 2.816a1 1 0 1 1-1.414-1.414l2.816-2.816-2.816-2.816A1 1 0 0 1 25.089.793l2.816 2.817L30.721.793a1 1 0 0 1 1.415 0ZM10.684 27.41A5.09 5.09 0 1 1 4.6 22.42a1.013 1.013 0 0 1-.005-.098V10.69c0-.033.002-.065.005-.097A5.09 5.09 0 0 1 5.595.51a5.09 5.09 0 0 1 .995 10.08c.003.033.005.065.005.098v11.632c0 .033-.002.066-.005.098a5.09 5.09 0 0 1 4.094 4.991ZM27.405 9.69a1 1 0 0 1 1 1V22.32c0 .033-.001.066-.004.098a5.09 5.09 0 0 1-.996 10.08 5.09 5.09 0 0 1-.995-10.08 1.01 1.01 0 0 1-.005-.098V10.69a1 1 0 0 1 1-1Z" clip-rule="evenodd"/></svg>