<svg xmlns="http://www.w3.org/2000/svg" width="32" height="32" fill="none" viewBox="0 0 32 32"><path fill="#111827" fill-rule="evenodd" d="M16 .002c1.384 0 2.727.176 4.008.506l.847 3.117-6.37 5.63h-5.17a1 1 0 0 0-.952.695L7.31 13.24l-.802-.19-1.644-4.43.311-4.4A15.94 15.94 0 0 1 16 .001m-4.796 14.165-1.942-.462.784-2.45h4.817a1 1 0 0 0 .662-.25l7.12-6.293a1 1 0 0 0 .303-1.012l-.656-2.413C28.001 3.73 32 9.4 32 16.002c0 2.099-.404 4.103-1.138 5.94L21.4 16.587a1 1 0 0 0-.393-.125l-4.967-.496a1 1 0 0 0-1.013.586l-.18.402H13.2l-1.366-2.322a1 1 0 0 0-.63-.466m2.749 4.788h-1.325a1 1 0 0 1-.862-.493l-1.44-2.448-4.802-1.143a1 1 0 0 1-.706-.625L2.914 9.113a1 1 0 0 1-.06-.419l.143-2.017A15.93 15.93 0 0 0 0 16.002c0 8.71 6.96 15.795 15.623 15.996l.283-3.55-3.57-4.579a1 1 0 0 1-.124-1.023zm3.682 12.965c5.33-.541 9.887-3.699 12.366-8.168l-9.402-5.32-4.04-.403-2.276 5.085 3.44 4.41a1 1 0 0 1 .207.695z" clip-rule="evenodd"/></svg>