<svg xmlns="http://www.w3.org/2000/svg" width="32" height="32" fill="none" viewBox="0 0 32 32"><path fill="#111827" fill-rule="evenodd" d="M16 0c3.314 0 6.393 1.008 8.947 2.734v2.692l-4.431 5.368-6.264.847L9.07 8.692a1 1 0 0 0-1.326.315l-4.91 7.364a1 1 0 0 0-.168.554v7.528l-.189.103A15.93 15.93 0 0 1 0 16C0 7.163 7.163 0 16 0m0 32a15.97 15.97 0 0 1-12.338-5.812l.485-.266a1 1 0 0 0 .52-.877v-7.817l4.224-6.337 4.666 2.655a1 1 0 0 0 .628.122l6.987-.944a1 1 0 0 0 .637-.355l4.91-5.948a1 1 0 0 0 .228-.636V4.33A15.96 15.96 0 0 1 32 16a16 16 0 0 1-.61 4.389l-2.848-2.849a1 1 0 0 0-1.065-.226l-8.12 3.115a1 1 0 0 0-.637.84l-.472 5.004a1 1 0 0 0 .727 1.057l5.506 1.534.428.428A15.93 15.93 0 0 1 16 32m10.51-3.936a16.05 16.05 0 0 0 4.13-5.598l-3.053-3.053-6.934 2.661-.335 3.554 4.953 1.38a1 1 0 0 1 .439.256z" clip-rule="evenodd"/></svg>