<svg xmlns="http://www.w3.org/2000/svg" width="32" height="32" fill="none"><path fill="#111827" fill-rule="evenodd" d="M10.345 15c.096-4.262.805-8.06 1.874-10.823.577-1.49 1.24-2.63 1.924-3.378.327-.358.642-.609.94-.773a16.255 16.255 0 0 1 1.833 0c.3.164.614.415.941.773.685.749 1.347 1.887 1.924 3.378 1.07 2.763 1.778 6.56 1.874 10.823h-11.31Zm-2 0H.03C.459 8.056 5.316 2.31 11.813.554c-.55.828-1.038 1.81-1.46 2.902C9.18 6.49 8.441 10.543 8.344 15ZM20.186.554c.55.828 1.037 1.81 1.46 2.902C22.82 6.49 23.559 10.543 23.656 15h8.313C31.541 8.056 26.684 2.31 20.187.554ZM21.655 17h-11.31c.096 4.262.805 8.06 1.874 10.823.577 1.491 1.24 2.63 1.924 3.378.327.358.642.609.94.773a16.274 16.274 0 0 0 1.833 0c.3-.164.614-.415.941-.773.685-.748 1.347-1.887 1.924-3.378 1.07-2.762 1.778-6.56 1.874-10.823Zm-1.468 14.447c.55-.83 1.037-1.812 1.46-2.903C22.82 25.51 23.559 21.457 23.656 17h8.313c-.428 6.944-5.285 12.69-11.782 14.447Zm-8.374 0C5.316 29.69.459 23.944.03 17h8.313c.097 4.457.835 8.51 2.01 11.544.421 1.091.909 2.074 1.459 2.902Z" clip-rule="evenodd"/></svg>