<svg xmlns="http://www.w3.org/2000/svg" width="32" height="32" fill="none" viewBox="0 0 32 32"><path fill="#111827" fill-rule="evenodd" d="M16 2A13.969 13.969 0 0 0 5.386 6.87l4.293 7.436a6.547 6.547 0 0 1 5.892-4.835.996.996 0 0 1 .429-.096h12.337C25.974 4.985 21.335 2 16 2ZM0 16a15.93 15.93 0 0 1 3.319-9.758.994.994 0 0 1 .14-.178A15.971 15.971 0 0 1 16 0c8.837 0 16 7.163 16 16s-7.163 16-16 16a16.138 16.138 0 0 1-2.28-.16C5.965 30.732 0 24.062 0 16Zm15.576 13.994c.141.004.282.006.424.006 7.732 0 14-6.268 14-14 0-1.62-.275-3.177-.782-4.625h-8.59A6.522 6.522 0 0 1 22.541 16c0 1.036-.24 2.015-.67 2.886a.995.995 0 0 1-.13.426l-6.166 10.682Zm2.12-7.674-4.294 7.44C6.912 28.542 2 22.844 2 16c0-2.704.766-5.228 2.094-7.369l6.164 10.681a.998.998 0 0 0 .304.328A6.536 6.536 0 0 0 16 22.542c.586 0 1.155-.077 1.696-.222Z" clip-rule="evenodd"/></svg>