<svg xmlns="http://www.w3.org/2000/svg" width="32" height="33" fill="none" viewBox="0 0 32 33"><g clip-path="url(#a)"><path fill="#111827" fill-rule="evenodd" d="M22.015 13.037a7.43 7.43 0 0 1 .852 4.19h.035a3.455 3.455 0 1 1 0 6.91h-8.217l.002.005-1.868.001H8.77a3.503 3.503 0 1 1 3.364-5.07l3.897-4.062a9 9 0 0 0-5.196-3.184 6.97 6.97 0 0 1 5.142-2.254 6.99 6.99 0 0 1 6.037 3.464m6.018.145a9.007 9.007 0 0 1-5.005 16.474v.003H8.66v-.01A9.008 9.008 0 0 1 3.825 13.28c1.456-5.326 6.33-9.242 12.118-9.242 5.752 0 10.602 3.868 12.09 9.144" clip-rule="evenodd"/></g><defs><clipPath id="a"><path fill="#fff" d="M0 .849h32v32H0z"/></clipPath></defs></svg>