<svg xmlns="http://www.w3.org/2000/svg" width="32" height="32" fill="none" viewBox="0 0 32 32"><path fill="#111827" fill-rule="evenodd" d="M7.197 19.766a8.5 8.5 0 0 1 2.124-3.343H1a1 1 0 0 1-1-1 9.654 9.654 0 0 1 15.625-7.586V2c0-.552.449-1.005.998-.953 1.661.156 3.254.7 4.618 1.586 1.636 1.062 2.859 2.561 3.497 4.284a7.84 7.84 0 0 1 .056 5.317 8.5 8.5 0 0 1-2.166 3.343H31a1 1 0 0 1 1 1 9.654 9.654 0 0 1-15.812 7.434v5.99c0 .551-.45 1.004-.999.95a9.9 9.9 0 0 1-4.509-1.584c-1.603-1.062-2.803-2.561-3.428-4.284a8 8 0 0 1-.055-5.317m8.99 1.359q.019.022.036.044a7.653 7.653 0 0 0 13.712-3.592H16.188zm-.562-6.702v-3.788a7.654 7.654 0 0 0-13.56 3.788z" clip-rule="evenodd"/></svg>