<svg xmlns="http://www.w3.org/2000/svg" width="33" height="33" fill="none"><path fill="#1C1B1F" d="M17.422 16.744V4.283a6.923 6.923 0 0 1 4.154 12.461"/><path stroke="#1C1B1F" stroke-linecap="round" stroke-linejoin="round" stroke-width="2" d="M17.422 16.744V4.283a6.923 6.923 0 0 1 4.154 12.461M17.422 15.821H4.96a6.923 6.923 0 0 1 12.462-4.153"/><path fill="#1C1B1F" d="M16.499 15.821v12.462a6.923 6.923 0 0 1-4.154-12.462"/><path stroke="#1C1B1F" stroke-linecap="round" stroke-linejoin="round" stroke-width="2" d="M16.499 15.821v12.462a6.923 6.923 0 0 1-4.154-12.462M16.499 16.744H28.96A6.923 6.923 0 0 1 16.5 20.898"/></svg>