<svg xmlns="http://www.w3.org/2000/svg" width="32" height="32" fill="none" viewBox="0 0 32 32"><path fill="#111827" fill-rule="evenodd" d="M16 2A13.97 13.97 0 0 0 5.386 6.87l4.293 7.436a6.55 6.55 0 0 1 5.892-4.835A1 1 0 0 1 16 9.375h12.337C25.974 4.985 21.336 2 16 2M0 16a15.93 15.93 0 0 1 3.319-9.758 1 1 0 0 1 .14-.178A15.97 15.97 0 0 1 16 0c8.837 0 16 7.163 16 16s-7.163 16-16 16a16 16 0 0 1-2.28-.16C5.965 30.732 0 24.062 0 16m15.576 13.994Q15.787 30 16 30c7.732 0 14-6.268 14-14 0-1.62-.275-3.177-.782-4.625h-8.59A6.52 6.52 0 0 1 22.541 16c0 1.036-.24 2.015-.67 2.886a1 1 0 0 1-.13.426zm2.12-7.674-4.294 7.44C6.912 28.542 2 22.844 2 16c0-2.704.766-5.228 2.094-7.369l6.164 10.681a1 1 0 0 0 .304.328A6.54 6.54 0 0 0 16 22.542c.586 0 1.155-.077 1.696-.222" clip-rule="evenodd"/></svg>