<svg xmlns="http://www.w3.org/2000/svg" width="32" height="32" fill="none" viewBox="0 0 32 32"><path fill="#111827" fill-rule="evenodd" d="M16 0a1 1 0 0 1 1 1v3.462a1 1 0 1 1-2 0V.999a1 1 0 0 1 1-1m6.923 6.346a1 1 0 0 1 1 1v3.462a1 1 0 1 1-2 0V7.346a1 1 0 0 1 1-1M17 27.538a1 1 0 1 0-2 0v3.463a1 1 0 1 0 2 0zM16 8.077a1 1 0 0 1 1 1v13.846a1 1 0 1 1-2 0V9.077a1 1 0 0 1 1-1m-5.923-.731a1 1 0 0 0-2 0v9.23a1 1 0 1 0 2 0zm12.846 7.077a1 1 0 0 1 1 1v9.23a1 1 0 1 1-2 0v-9.23a1 1 0 0 1 1-1m-19.77-.154a1 1 0 1 0-2 0v3.462a1 1 0 1 0 2 0zm5.924 5.923a1 1 0 0 1 1 1v3.462a1 1 0 0 1-2 0v-3.462a1 1 0 0 1 1-1m21.77-5.923a1 1 0 1 0-2 0v3.462a1 1 0 1 0 2 0z" clip-rule="evenodd"/></svg>