<svg xmlns="http://www.w3.org/2000/svg" width="33" height="33" fill="none"><path fill="#111827" fill-rule="evenodd" d="M1.501 5.876a1 1 0 0 0 0 2h29.998a1 1 0 1 0 0-2H1.501Zm0 6.25a1 1 0 1 0 0 2h12.5a1 1 0 1 0 0-2H1.5Zm17.499 0a1 1 0 1 0 0 2h12.499a1 1 0 0 0 0-2h-12.5ZM.5 19.374a1 1 0 0 1 1-1h6.875a1 1 0 1 1 0 2H1.5a1 1 0 0 1-1-1Zm24.123-1a1 1 0 0 0 0 2h6.875a1 1 0 0 0 0-2h-6.875Zm-12.873 1a1 1 0 0 1 1-1h7.499a1 1 0 0 1 0 2h-7.5a1 1 0 0 1-1-1ZM1.5 24.625a1 1 0 0 0 0 2h3.75a1 1 0 1 0 0-2H1.5Zm7.75 1a1 1 0 0 1 1-1H14a1 1 0 0 1 0 2h-3.75a1 1 0 0 1-1-1Zm9.749-1a1 1 0 0 0 0 2h3.75a1 1 0 1 0 0-2H19Zm7.75 1a1 1 0 0 1 1-1h3.75a1 1 0 0 1 0 2h-3.75a1 1 0 0 1-1-1Z" clip-rule="evenodd"/></svg>