<svg xmlns="http://www.w3.org/2000/svg" width="32" height="32" fill="none" viewBox="0 0 32 32"><path stroke="#111827" stroke-linecap="round" stroke-linejoin="round" stroke-width="2" d="M27.775 13.539v6.63c0 .21-.071.414-.203.582-.863 1.09-4.5 5.078-11.573 5.078-7.072 0-10.71-3.988-11.572-5.078a.94.94 0 0 1-.203-.582v-6.63"/><path fill="#111827" fill-rule="evenodd" d="m31.018 9.492-14.081-7.88a1.92 1.92 0 0 0-1.875 0L.982 9.493c-1.29.721-1.314 2.569-.044 3.324l14.08 8.38a1.92 1.92 0 0 0 1.962 0l5.366-3.574-.002-1.186-.007-.01.007-.005v-.648l-.647-.341-.007-.01-.006.003-6.3-3.32a1.28 1.28 0 0 1 1.193-2.265l7.644 4.028c.389.205.643.594.679 1.028l-.007 1.87 6.17-3.95c1.27-.757 1.244-2.603-.045-3.324" clip-rule="evenodd"/><path fill="#111827" fill-rule="evenodd" d="M22.344 29.352V17.636l2.56-.885v12.601a1.28 1.28 0 0 1-2.56 0" clip-rule="evenodd"/></svg>