<svg width="33" height="33" fill="none" xmlns="http://www.w3.org/2000/svg"><path d="M26.16 14.432v5.18a.731.731 0 0 1-.16.454c-.673.852-3.515 3.968-9.04 3.968-5.526 0-8.368-3.116-9.041-3.968a.731.731 0 0 1-.16-.454v-5.18" stroke="#1C1B1F" stroke-width="2" stroke-linecap="round" stroke-linejoin="round"/><path fill-rule="evenodd" clip-rule="evenodd" d="m28.693 11.27-11-6.156a1.5 1.5 0 0 0-1.466 0l-11 6.156a1.5 1.5 0 0 0-.034 2.598l11 6.546a1.5 1.5 0 0 0 1.533 0l4.192-2.792-.002-.927-.005-.008.006-.003v-.507l-.506-.266-.005-.008-.005.002-4.923-2.593a1 1 0 0 1 .933-1.77l5.972 3.147a1 1 0 0 1 .53.806l-.005 1.459 4.821-3.087a1.5 1.5 0 0 0-.036-2.597Z" fill="#1C1B1F"/><path fill-rule="evenodd" clip-rule="evenodd" d="M21.916 26.786v-9.153l2-.692v9.845a1 1 0 1 1-2 0Z" fill="#1C1B1F"/></svg>