<svg xmlns="http://www.w3.org/2000/svg" width="32" height="32" fill="none" viewBox="0 0 32 32"><path fill="#111827" fill-rule="evenodd" d="M29.596 9.97a2.404 2.404 0 1 0-1.796-.805 1 1 0 0 0-.187.294l-5.164 12.458q-.025.06-.042.122a2.4 2.4 0 0 0-1.727.194 1 1 0 0 0-.156-.201l-6.138-6.139a1 1 0 0 0-.275-.195 2.404 2.404 0 1 0-4.385.13 1 1 0 0 0-.316.213l-5.99 5.99a1 1 0 0 0-.134.166 2.404 2.404 0 1 0 1.37 1.391q.094-.06.177-.142l5.991-5.99a1 1 0 0 0 .25-.415 2.4 2.4 0 0 0 1.695-.025 1 1 0 0 0 .203.292l6.138 6.138c.11.11.24.189.377.237a2.404 2.404 0 1 0 4.39-.52 1 1 0 0 0 .42-.48l5.163-12.458a1 1 0 0 0 .069-.256z" clip-rule="evenodd"/></svg>