<svg width="33" height="33" fill="none" xmlns="http://www.w3.org/2000/svg"><path fill-rule="evenodd" clip-rule="evenodd" d="M15.96 4.783a.5.5 0 0 0-.5-.5h-10a.5.5 0 0 0-.5.5v10a.5.5 0 0 0 .5.5h10a.5.5 0 0 0 .5-.5v-10Zm-10.5 12.5a.5.5 0 0 0-.5.5v10a.5.5 0 0 0 .5.5h10a.5.5 0 0 0 .5-.5v-10a.5.5 0 0 0-.5-.5h-10Zm12.5 10.5a.5.5 0 0 0 .5.5h10a.5.5 0 0 0 .5-.5v-10a.5.5 0 0 0-.5-.5h-10a.5.5 0 0 0-.5.5v10Zm11-13a.5.5 0 0 1-.5.5h-10a.5.5 0 0 1-.5-.5v-10a.5.5 0 0 1 .5-.5h10a.5.5 0 0 1 .5.5v10Z" fill="#1C1B1F"/></svg>