<svg xmlns="http://www.w3.org/2000/svg" width="32" height="32" fill="none" viewBox="0 0 32 32"><path fill="#111827" fill-rule="evenodd" d="M15 .5a.5.5 0 0 0-.5-.5H.5a.5.5 0 0 0-.5.5v14a.5.5 0 0 0 .5.5h14a.5.5 0 0 0 .5-.5zM.5 17a.5.5 0 0 0-.5.5v14a.5.5 0 0 0 .5.5h14a.5.5 0 0 0 .5-.5v-14a.5.5 0 0 0-.5-.5zM17 31.5a.5.5 0 0 0 .5.5h14a.5.5 0 0 0 .5-.5v-14a.5.5 0 0 0-.5-.5h-14a.5.5 0 0 0-.5.5zm15-17a.5.5 0 0 1-.5.5h-14a.5.5 0 0 1-.5-.5V.5a.5.5 0 0 1 .5-.5h14a.5.5 0 0 1 .5.5z" clip-rule="evenodd"/></svg>