<svg xmlns="http://www.w3.org/2000/svg" width="32" height="32" fill="none" viewBox="0 0 32 32"><path fill="#111827" fill-rule="evenodd" d="M19.39 2.73h-6.78a9.185 9.185 0 0 0-9.185 9.186c0 .025.02.045.046.045H28.53c.025 0 .046-.02.046-.046A9.185 9.185 0 0 0 19.39 2.73M1 15.577a1 1 0 1 0 0 2h30a1 1 0 1 0 0-2zm29.887 6.089a1 1 0 0 0-.818-1.825l-5.271 2.363-5.425-2.351a1.1 1.1 0 0 0-.887.006l-5.24 2.349-5.692-2.362a1.1 1.1 0 0 0-.876.014l-5.57 2.526a1 1 0 1 0 .827 1.821l2.526-1.145v1.207a5 5 0 0 0 5 5H22.54a5 5 0 0 0 5-5v-1.102z" clip-rule="evenodd"/></svg>