<svg xmlns="http://www.w3.org/2000/svg" width="32" height="35" fill="none" viewBox="0 0 32 35"><path stroke="#111827" stroke-linecap="round" stroke-linejoin="round" stroke-width="2" d="M8.951 33.5a17.1 17.1 0 0 1-5.067-5.514M23.482 1.5a7.96 7.96 0 0 1 6.894 3.981"/><path fill="#111827" fill-rule="evenodd" d="M3.665 10.905a2.963 2.963 0 0 0-1.644 4.298l6.282 10.88c3.214 5.567 10.376 7.449 15.996 4.203A11.77 11.77 0 0 0 30.2 19.73l-.307-9.062a2.963 2.963 0 1 0-5.917.312l.257 5.25a.49.49 0 0 1-.326.493c-.973.563-1.634 1.52-1.935 2.549-.302 1.038-.22 2.088.207 2.83a.5.5 0 0 1-.865.5c-.597-1.033-.66-2.378-.302-3.61.326-1.116 1.012-2.19 2.044-2.911L16.371 4.5a2.963 2.963 0 0 0-4.23-.97 2.84 2.84 0 0 0-.765 3.17l5.147 8.915a.5.5 0 0 1-.183.683l-.009.006-.01.005-.007.005a.5.5 0 0 1-.683-.183l-4.94-8.555a4 4 0 0 1-.215-.435L9.435 5.339a2.463 2.463 0 0 0-4.266 2.463l2.162 3.744q.07.105.134.216l3.933 6.813 2.678-1.546-2.678 1.546a.5.5 0 0 1-.19.687.5.5 0 0 1-.683-.183l-4.042-7.001a2.81 2.81 0 0 0-2.818-1.173" clip-rule="evenodd"/></svg>