<svg xmlns="http://www.w3.org/2000/svg" width="32" height="33" fill="none" viewBox="0 0 32 33"><path fill="#111827" fill-rule="evenodd" d="M16.5 13.337V4.25a3.5 3.5 0 1 1 7 0v1.43a4.7 4.7 0 0 0-.167 1.24v6.355a.667.667 0 0 0 1.334 0V6.92A3.333 3.333 0 0 1 28 3.586c.82 0 1.6.158 2.252.558.388.264.726.595 1 .976.306.467.537 1.059.665 1.8L32 9.627v6.694c0 8.938-6.21 15.929-16 15.929-10.473 0-16-7.862-16-16.8v-1.2a4.8 4.8 0 0 1 4.8-4.8h2.7v6.133a.5.5 0 0 0 1 0V4.671a3.5 3.5 0 0 1 7 0v8.666a.5.5 0 0 0 1 0" clip-rule="evenodd"/></svg>