<svg xmlns="http://www.w3.org/2000/svg" width="32" height="33" fill="none" viewBox="0 0 32 33"><path fill="#111827" fill-rule="evenodd" d="M17.543 16.062h.031a.5.5 0 0 0 .5-.5V5.478c0-.167-.01-.33-.031-.492V2.858a2.525 2.525 0 0 1 5.05 0v12.704a.5.5 0 1 0 1 0v-.475a.512.512 0 0 0 .005-.078V7.465c0-.924.408-1.754 1.054-2.317a3.025 3.025 0 0 1 4.49 2.646V20.62c0 6.562-5.37 11.881-11.996 11.881A12.01 12.01 0 0 1 7.04 26.179L2.687 18.01a3.025 3.025 0 1 1 5.391-2.744l2.472 4.81a.485.485 0 0 0 .482.27.5.5 0 0 0 .162.028c1.262 0 2.44.557 3.307 1.387.872.835 1.384 1.9 1.384 2.865a.5.5 0 1 0 1 0c0-1.301-.675-2.613-1.693-3.587-.957-.917-2.259-1.576-3.698-1.657V5.658a3.025 3.025 0 0 1 3.326-3.01 2.906 2.906 0 0 1 2.223 2.407v10.507a.5.5 0 0 0 .5.5Z" clip-rule="evenodd"/></svg>