<svg xmlns="http://www.w3.org/2000/svg" width="32" height="33" fill="none"><path fill="#111827" fill-rule="evenodd" d="M14.465 16.148h-.031a.5.5 0 0 1-.5-.5V5.617c0-.167.01-.331.03-.492V3.01a2.509 2.509 0 1 0-5.017 0v12.638h2.955-2.955a.5.5 0 0 1-1 0v-.47a.504.504 0 0 1-.007-.08V7.595a3.05 3.05 0 0 0-1.057-2.312 3.009 3.009 0 0 0-4.455 2.64v12.757c0 6.528 5.343 11.82 11.935 11.82 4.573 0 8.546-2.548 10.55-6.289l4.33-8.125a3.009 3.009 0 1 0-5.362-2.73l-2.454 4.776a.484.484 0 0 1-.445.272.502.502 0 0 1-.127.016c-1.223 0-2.367.54-3.208 1.346-.847.811-1.343 1.844-1.343 2.78a.5.5 0 0 1-1 0c0-1.272.658-2.551 1.651-3.502.916-.877 2.155-1.512 3.527-1.61V5.796a3.009 3.009 0 0 0-3.29-2.996 2.888 2.888 0 0 0-2.227 2.393v10.455a.5.5 0 0 1-.5.5Z" clip-rule="evenodd"/></svg>