<svg xmlns="http://www.w3.org/2000/svg" width="32" height="33" fill="none" viewBox="0 0 32 33"><path fill="#111827" fill-rule="evenodd" d="M15.507 4.905a3.504 3.504 0 0 0-7.008 0v6.674a3.504 3.504 0 0 0 7.008 0zm1 8.008a3.504 3.504 0 0 0 3.504 3.504h8.008a3.504 3.504 0 0 0 0-7.008h-8.008a3.504 3.504 0 0 0-3.504 3.504m7.008-8.008V8.41h-3.504a4.5 4.5 0 0 0-3.504 1.674V4.905a3.504 3.504 0 1 1 7.008 0M7.5 8.91v2.67a3.504 3.504 0 1 1-7.008 0v-2.67a3.504 3.504 0 1 1 7.008 0m4.504 7.174A4.5 4.5 0 0 1 8 13.643a4.504 4.504 0 0 1-7.998.019q-.01.303-.01.608c0 9.57 7.17 17.329 16.016 17.329 8.618 0 15.646-7.365 16.002-16.594a4.5 4.5 0 0 1-3.99 2.412h-5.591a5.92 5.92 0 0 0-5.92 5.92.5.5 0 1 1-1 0 6.92 6.92 0 0 1 3.518-6.028 4.51 4.51 0 0 1-3.34-3.136 4.5 4.5 0 0 1-3.683 1.91" clip-rule="evenodd"/></svg>