<svg xmlns="http://www.w3.org/2000/svg" width="32" height="33" fill="none" viewBox="0 0 32 33"><path fill="#111827" fill-rule="evenodd" d="M4.909 5.855a.5.5 0 0 1 .683-.183L9.68 8.033l5.77-1.812a1.5 1.5 0 0 1 1.12.09l4.367 2.183h2.445l3.346-1.932a.5.5 0 0 1 .683.183l4.52 7.83a.5.5 0 0 1-.183.683l-3.923 2.265-.1-.174-6.617 7.024a1.5 1.5 0 0 1-1.454.427l-7.633-1.9a1.5 1.5 0 0 1-.56-.272l-6.937-5.405-.073.126-4.201-2.426a.5.5 0 0 1-.183-.683l4.84-8.385Zm.626 9.62 7.073 5.51 7.246 1.803 3.497-3.712-4.35-3.138-.775.774a4 4 0 0 1-5.657 0l-.753-.754a1.5 1.5 0 0 1 .008-2.13l4.984-4.903a1.5 1.5 0 0 1 .195-.162l-1.146-.573-7.471 2.346-2.851 4.938Zm21.147.066-2.925-5.067c-.065.013-.131.02-.2.02h-5.492L13.586 14.9l.398.397a2 2 0 0 0 2.828 0l1.075-1.074a1.5 1.5 0 0 1 1.938-.156l4.91 3.541 1.947-2.067ZM6.31 22.03a1 1 0 0 1 1.41-.108l2.946 2.525 3.996.975a1 1 0 0 1-.474 1.943l-4.112-1.003a1.498 1.498 0 0 1-.62-.318L6.418 23.44a1 1 0 0 1-.108-1.41Z" clip-rule="evenodd"/></svg>