<svg width="33" height="33" fill="none" xmlns="http://www.w3.org/2000/svg"><path fill-rule="evenodd" clip-rule="evenodd" d="M27.649 7.703c-.489-.3-1.073-.418-1.689-.418a2.5 2.5 0 0 0-2.5 2.5v4.894a.5.5 0 0 1-1 0V8.283a2.5 2.5 0 0 0-5 0v6.343a.5.5 0 1 1-1 0V8.283a2.5 2.5 0 0 0-5 0v8a.5.5 0 0 1-1 0v-4.6h-1.9a3.6 3.6 0 0 0-3.6 3.6v.9c0 6.703 4.145 12.6 12 12.6 7.342 0 12-5.243 12-11.947v-5.02l-.062-2.03c-.097-.556-.27-1-.5-1.35a3.016 3.016 0 0 0-.749-.733Zm-7.675-2.92a3.03 3.03 0 0 1-.005 0h.005Z" fill="#1C1B1F"/></svg>