<svg width="33" height="33" fill="none" xmlns="http://www.w3.org/2000/svg"><path d="M28.96 18.208V27.267h-6.117v-9.059h6.117a11.91 11.91 0 0 0-12-11.91 11.91 11.91 0 0 0-12 11.91h5.935v9.06H4.96v-9.06a11.91 11.91 0 0 1 12-11.91 11.91 11.91 0 0 1 12 11.91Z" fill="#1C1B1F"/><path d="M28.96 18.208V27.267h-6.117v-9.059h6.117Zm0 0a11.91 11.91 0 0 0-12-11.91 11.91 11.91 0 0 0-12 11.91m0 0V27.267h5.935v-9.059H4.96Z" stroke="#1C1B1F" stroke-width="2" stroke-linecap="round" stroke-linejoin="round"/></svg>