<svg xmlns="http://www.w3.org/2000/svg" width="32" height="35" fill="none" viewBox="0 0 32 35"><path fill="#111827" d="M30.724 16.113V27.23H23.22V16.113zA14.614 14.614 0 0 0 16 1.5 14.613 14.613 0 0 0 1.276 16.113H8.56V27.23H1.276V16.113A14.613 14.613 0 0 1 16 1.5a14.613 14.613 0 0 1 14.724 14.613"/><path stroke="#111827" stroke-linecap="round" stroke-linejoin="round" stroke-width="2" d="M30.724 16.113V27.23H23.22V16.113zm0 0A14.614 14.614 0 0 0 16 1.5 14.613 14.613 0 0 0 1.276 16.113m0 0V27.23H8.56V16.113z"/><path stroke="#111827" stroke-linecap="round" stroke-linejoin="round" stroke-width="2" d="M17.052 33.5h10.672a3 3 0 0 0 3-3v-6.47"/></svg>