<svg width="33" height="33" fill="none" xmlns="http://www.w3.org/2000/svg"><path d="M28.003 15.743v8.336h-5.629v-8.336h5.629A10.96 10.96 0 0 0 16.96 4.783a10.96 10.96 0 0 0-11.043 10.96h5.462v8.336H5.917v-8.336A10.96 10.96 0 0 1 16.96 4.783a10.96 10.96 0 0 1 11.043 10.96Z" fill="#1C1B1F"/><path d="M28.003 15.743v8.336h-5.629v-8.336h5.629Zm0 0A10.96 10.96 0 0 0 16.96 4.783a10.96 10.96 0 0 0-11.043 10.96m0 0v8.336h5.462v-8.336H5.917Z" stroke="#1C1B1F" stroke-width="2" stroke-linecap="round" stroke-linejoin="round"/><path d="M17.748 28.783h7.255a3 3 0 0 0 3-3V21.68" stroke="#1C1B1F" stroke-width="2" stroke-linecap="round" stroke-linejoin="round"/></svg>