<svg xmlns="http://www.w3.org/2000/svg" width="32" height="32" fill="none" viewBox="0 0 32 32"><path fill="#111827" fill-rule="evenodd" d="m15.12 6.322-1.088-1.097c-3.087-3.07-8.134-3.518-11.36-.617a8.025 8.025 0 0 0-.324 11.652l12.825 12.825a1.25 1.25 0 0 0 1.76 0l12.5-12.5c3.072-3.088 3.52-8.134.618-11.36a8.025 8.025 0 0 0-10.684-1.148l-4.456 5.8 4.319 4.318a1 1 0 0 1 0 1.414l-2.47 2.47a1 1 0 0 1-1.414-1.415l1.762-1.762-4.231-4.231a1 1 0 0 1-.086-1.317l2.329-3.032Z" clip-rule="evenodd"/></svg>