<svg xmlns="http://www.w3.org/2000/svg" width="33" height="33" fill="none" viewBox="0 0 33 33"><g clip-path="url(#a)"><path fill="#111827" d="M24.931 25.868c.941 1.343 1.283 2.725.766 3.088-.517.362-1.7-.433-2.64-1.777a6.734 6.734 0 0 1-.78-1.446 11.46 11.46 0 0 1-5.212 1.871c.109.455.174.985.174 1.559 0 1.64-.512 2.969-1.144 2.969-.632 0-1.144-1.329-1.144-2.97 0-.56.062-1.078.167-1.526a11.453 11.453 0 0 1-5.273-1.716c-.17.402-.4.83-.7 1.259-.941 1.344-2.123 2.139-2.64 1.777-.518-.363-.175-1.745.766-3.088.315-.45.657-.832.993-1.137a11.406 11.406 0 0 1-1.75-1.977l1.503-1.045a9.625 9.625 0 0 0 7.897 4.128 9.625 9.625 0 0 0 7.909-4.142l1.504 1.043c-.466.671-.999 1.28-1.582 1.826.396.323.809.766 1.186 1.304ZM8.39 7.648a11.478 11.478 0 0 0-2.094 2.416l1.538.993a9.585 9.585 0 0 1 8.082-4.402 9.55 9.55 0 0 1 8.222 4.627l1.564-.95a11.573 11.573 0 0 0-2.085-2.534c.433-.327.897-.806 1.314-1.402.941-1.343 1.283-2.726.766-3.088-.517-.362-1.7.433-2.64 1.777a6.373 6.373 0 0 0-.838 1.62 11.347 11.347 0 0 0-5.214-1.824c.145-.497.234-1.11.234-1.782 0-1.638-.512-2.967-1.144-2.967-.632 0-1.144 1.329-1.144 2.969 0 .656.084 1.258.223 1.748-1.89.12-3.686.702-5.254 1.667a6.672 6.672 0 0 0-.775-1.431c-.94-1.344-2.122-2.138-2.639-1.776-.517.363-.175 1.745.766 3.088.354.506.743.933 1.118 1.252Zm-7.723 12.9H2.87v-3.305h2.485v3.306h2.203V12.22H5.356v3.1H2.87v-3.1H.667v8.327Zm8.737-8.328v8.327h5.51v-1.845h-3.307v-1.486h2.717v-1.845h-2.717v-1.307h3.178v-1.845l-5.38.001Zm7.123 0v8.327h5.355v-1.845H18.73V12.22h-2.203Zm6.79 0v8.327h2.023v-2.46c0-.213-.01-.447-.032-.704a71.642 71.642 0 0 0-.07-.787 22.149 22.149 0 0 0-.09-.788 61.509 61.509 0 0 1-.09-.69h.05l.666 1.947 1.154 2.806h.82l1.152-2.806.691-1.948h.05c-.025.205-.055.436-.089.693-.035.256-.064.518-.09.787-.025.269-.049.532-.07.787-.021.257-.032.491-.032.705v2.46h2.053V12.22h-2.28l-1.256 3.46-.46 1.358h-.052l-.46-1.358-1.308-3.46h-2.28Z"/></g><defs><clipPath id="a"><path fill="#fff" d="M.04.132h32v32h-32z"/></clipPath></defs></svg>