<svg xmlns="http://www.w3.org/2000/svg" width="32" height="33" fill="none" viewBox="0 0 32 33"><path fill="#111827" fill-rule="evenodd" d="M3.599.717a2 2 0 0 0-2 2v28a2 2 0 0 0 2 2H28.4a2 2 0 0 0 2-2v-28a2 2 0 0 0-2-2zm14.403 12.8c1.977 0 3.16.777 3.807 1.428 1.375 1.391 1.395 3.167 1.391 3.372v9.6h-3.197v-9.559c-.017-.747-.377-1.64-2.001-1.64-3.248 0-6.885 1.626-6.94 1.65l-2.263 1.026V5.516H12v9.082c1.598-.518 3.832-1.083 6.002-1.083m2.8-2.8H17.6c1.257-1.653 2.046-3.387 2.402-5.2h3.198c-.216 1.817-.953 3.56-2.4 5.2m-12.003 17.2 3.603-3.201-3.603-3.2z" clip-rule="evenodd"/></svg>