<svg xmlns="http://www.w3.org/2000/svg" width="32" height="32" fill="none" viewBox="0 0 32 32"><path fill="#111827" fill-rule="evenodd" d="M12.271 3.386c-1.66 1.38-5.31 4.927-6.614 8.078.218 1.142 1.085 3.606 2.806 4.325.637-.33 2.074-1.38 2.726-2.93.628.16 2.264.217 3.782-.837.25.326-.041 1.834-3.215 5.261s-2.952 6.373-2.444 7.418h-.12a1.956 1.956 0 0 0 0 3.912h.604L7.236 32h19.106l-2.56-3.387h.604a1.956 1.956 0 1 0 0-3.912h-.895c-.051-.587.132-1.99 1.27-2.91s1.524-2.467 1.575-3.125c.136-5.523-1.834-16.726-10.797-17.363-1.031-.775-3.353-2.015-4.392-.78-1.038 1.233.317 2.423 1.124 2.863" clip-rule="evenodd"/></svg>