<svg xmlns="http://www.w3.org/2000/svg" width="32" height="33" fill="none" viewBox="0 0 32 33"><path fill="#111827" fill-rule="evenodd" d="M5.688.5a1 1 0 0 0-1 1v2.266a11 11 0 0 0 4.4 8.8l5.245 3.934-5.245 3.934a11 11 0 0 0-4.4 8.8V31.5a1 1 0 0 0 1 1h20.625a1 1 0 0 0 1-1v-2.265a11 11 0 0 0-4.4-8.8L17.667 16.5l5.246-3.934a11 11 0 0 0 4.4-8.8V1.5a1 1 0 0 0-1-1zm1 3.266V2.5h18.625v1.265a9 9 0 0 1-3.6 7.2L16 15.25l-5.712-4.284a9 9 0 0 1-3.6-7.2m15.025 18.268a9 9 0 0 1 3.174 4.466H7.113a9 9 0 0 1 3.174-4.466L16 17.75z" clip-rule="evenodd"/></svg>