<svg xmlns="http://www.w3.org/2000/svg" width="32" height="33" fill="none" viewBox="0 0 32 33"><g clip-path="url(#a)"><path fill="#111827" fill-rule="evenodd" d="M29.425 19.21c.23-1.003.35-2.047.35-3.12 0-7.673-6.2-13.893-13.851-13.893-7.65 0-13.852 6.22-13.852 13.894 0 1.094.126 2.16.364 3.18a2.18 2.18 0 0 1 1.408-.66c.986-.078 2.005.469 2.894 1.615.283-.409 1.135-1.165 2.276-.922 1.141.244 1.704 1.202 1.843 1.651.305.794 1.169 2.627 2.188 3.614.531.436 1.624 1.738 1.739 3.462a4 4 0 0 1-.335 1.876 14 14 0 0 0 3.02-.008 4 4 0 0 1-.331-1.868c.115-1.724 1.207-3.026 1.739-3.462 1.02-.987 1.883-2.82 2.188-3.614.139-.449.702-1.407 1.843-1.65 1.14-.244 1.992.512 2.276.92.89-1.145 1.908-1.692 2.894-1.613a2.2 2.2 0 0 1 1.347.598m-1.495.985c.457-.026.71.357.568 1.138-.1.553-1.028 1.497-1.896 2.38l-.001.001c-.882.896-1.7 1.728-1.525 2.022a.3.3 0 0 0 .232.151c.306-.029.719-.348.986-.584q-.12.134-.24.264c.323-.237.593-.518.593-.518s3.828-3.484 4.662-2.576c.768.836-.417 1.548-2.243 2.644l-.478.289c-2.09 1.264-2.252 1.598-1.956 2.076.11.177.808-.242 1.667-.758l.002-.001h.001c1.467-.881 3.4-2.041 3.672-1.002.236.899-1.186 1.45-2.475 1.95h-.001c-1.075.416-2.058.797-1.913 1.313.15.536.962.09 1.85-.4.996-.548 2.088-1.149 2.445-.47.676 1.282-4.66 2.79-4.703 2.8-1.724.45-6.102 1.397-7.632-.846a6 6 0 0 1-.301-.485l-.075.018c-.78-1.389-.582-2.507.779-3.867 1.51-1.51 2.389-3.717 2.389-3.717s.312-1.221 1.023-1.17a.6.6 0 0 1 .139.005c.748.118 1.297 2.034-.27 3.207-1.017.761-.582 1.364.014 1.391a.98.98 0 0 0 .815-.524c.604-1.1 2.249-3.93 3.102-4.47.295-.187.559-.274.77-.26M5.353 25.05s.806.839 1.295.84a.3.3 0 0 0 .264-.153c.175-.294-.643-1.126-1.524-2.022-.868-.883-1.798-1.828-1.898-2.381-.136-.755.095-1.138.524-1.139.206-.003.459.083.74.261.853.541 2.5 3.37 3.102 4.471.203.37.55.526.862.525.61-.009 1.076-.618.042-1.392-1.566-1.173-1.018-3.089-.27-3.207a1 1 0 0 1 .097-.007c.688-.012.99 1.172.99 1.172s.88 2.207 2.39 3.717c1.51 1.509 1.588 2.72.487 4.334-1.53 2.243-5.907 1.295-7.631.848-.044-.01-5.38-1.52-4.704-2.802.357-.678 1.45-.077 2.446.471.888.489 1.7.936 1.85.4.145-.517-.838-.897-1.913-1.314-1.29-.5-2.712-1.05-2.476-1.95.273-1.038 2.206.122 3.672 1.003H3.7c.86.516 1.559.936 1.668.759.297-.479.134-.812-1.955-2.077l-.478-.288h-.001C1.107 24.02-.077 23.31.69 22.472c.834-.908 4.662 2.576 4.662 2.576m15.518-12.122c-.154-.222-.315-.455-.532-.532-.2-.07-.462.035-.714.135-.321.129-.626.25-.763-.007a2.002 2.002 0 0 1 1.19-2.854 2 2 0 0 1 1.515 3.68c-.296.158-.49-.122-.696-.422m-10.484 0c.153-.222.314-.455.53-.532.201-.07.463.035.715.135.322.129.626.25.763-.007a2 2 0 1 0-2.705.826c.296.158.49-.121.697-.422m10.537 3.762c0 1.183-.549 3.104-2.042 4.28-.778.613-1.812 1.024-3.158 1.024-1.265 0-2.254-.363-3.014-.915-1.602-1.164-2.186-3.169-2.186-4.39 0-.952.653-.629 1.693-.114.924.458 2.155 1.068 3.506 1.068s2.582-.61 3.507-1.067l.057-.029c1.007-.498 1.637-.793 1.637.143m-13.577-2.63a1.297 1.297 0 0 1-1.923-.583 1.299 1.299 0 1 1 1.923.583m18.598 0a1.298 1.298 0 0 1-1.924-.583 1.303 1.303 0 0 1 1.074-1.791 1.3 1.3 0 0 1 .85 2.374" clip-rule="evenodd"/></g><defs><clipPath id="a"><path fill="#fff" d="M0 .849h32v32H0z"/></clipPath></defs></svg>