<svg xmlns="http://www.w3.org/2000/svg" width="33" height="32" fill="none" viewBox="0 0 33 32"><path fill="#111827" d="M.725 9.6v.876h6.229V9.6H.725Zm7.111 0v.876h8.877s-.907-.876-2.108-.876H7.836Zm10.618 0v.876h5.37l-.319-.876h-5.051Zm9.22 0-.319.876h5.321V9.6h-5.002ZM.725 11.303v.876h6.229v-.876H.725Zm7.111.001v.875h9.907s-.116-.674-.318-.875H7.836Zm10.618 0v.875h5.959l-.295-.875h-5.664Zm8.582 0-.295.875h5.935v-.875h-5.64Zm-24.52 1.702v.877h2.697v-.877H2.515Zm7.11 0v.877h2.698v-.877H9.626Zm5.322 0v.877h2.697s.171-.463.171-.877h-2.868Zm5.296 0v.877h4.782l-.318-.877h-4.464Zm6.205 0-.32.877h4.806v-.877H26.45ZM2.515 14.711v.875h2.698v-.875H2.515Zm7.111 0v.875h6.89s.577-.449.76-.875h-7.65Zm10.618 0v.875h2.697V15.1l.172.487h4.94l.185-.487v.487h2.697v-.875h-5.064l-.268.741-.27-.741h-5.09ZM2.515 16.414v.875h2.698v-.875H2.515Zm7.111 0v.875h7.65c-.183-.425-.76-.875-.76-.875h-6.89Zm10.618 0v.875h2.697v-.875h-2.697Zm3.187 0 .327.875h3.705l.31-.875H23.43Zm4.807 0v.875h2.697v-.875h-2.697ZM2.515 18.117v.876h2.698v-.876H2.515Zm7.111 0v.876h2.698v-.876H9.626Zm5.322 0v.876h2.868c0-.414-.17-.876-.17-.876h-2.698Zm5.296 0v.876h2.697v-.876h-2.697Zm3.8 0 .316.876h2.484l.319-.876h-3.12Zm4.194 0v.876h2.697v-.876h-2.697ZM.774 19.82v.877h6.229v-.877H.773Zm7.062 0v.877h9.59c.2-.2.317-.877.317-.877H7.836Zm10.667 0v.877h4.438v-.877h-4.438Zm6.155 0 .325.877h1.263l.305-.877h-1.893Zm3.58 0v.877h4.487v-.877h-4.487ZM.774 21.524v.876h6.229v-.876H.773Zm7.062 0v.875h6.77c1.2 0 2.107-.875 2.107-.875H7.836Zm10.667 0v.876h4.438v-.876h-4.438Zm6.77 0 .313.874h.054l.318-.874h-.684Zm2.965 0v.876h4.487v-.876h-4.487Z"/></svg>