<svg xmlns="http://www.w3.org/2000/svg" width="32" height="33" fill="none" viewBox="0 0 32 33"><path fill="#111827" fill-rule="evenodd" d="M1 3.167a1 1 0 0 0-1 1v24.666a1 1 0 0 0 1 1h30a1 1 0 0 0 1-1V4.167a1 1 0 0 0-1-1zm6.327 10.397a3.397 3.397 0 1 1 3.414 3.397h-.034a3.397 3.397 0 0 1-3.38-3.397m8.794 0a5.39 5.39 0 0 1-2.073 4.253 6.87 6.87 0 0 1 3.548 6.016 1 1 0 0 1-2 0 4.87 4.87 0 0 0-4.854-4.872h-.036a4.87 4.87 0 0 0-4.854 4.872 1 1 0 0 1-2 0A6.87 6.87 0 0 1 7.4 17.817a5.397 5.397 0 1 1 8.72-4.253m2.88.27a1 1 0 0 1 1-1h6.666a1 1 0 1 1 0 2H20a1 1 0 0 1-1-1m0 5.333a1 1 0 0 1 1-1h6.666a1 1 0 1 1 0 2H20a1 1 0 0 1-1-1" clip-rule="evenodd"/></svg>