<svg xmlns="http://www.w3.org/2000/svg" width="32" height="33" fill="none"><path fill="#111827" fill-rule="evenodd" d="M.001 1.501a1 1 0 0 1 1-1h29.998a1 1 0 0 1 1 1v29.998a1 1 0 0 1-1 1H1.001a1 1 0 0 1-1-1V1.501Zm2 21.265 7.038-8.445a.5.5 0 0 1 .768 0l7.543 9.053a.5.5 0 0 0 .768 0l4.863-5.835a.5.5 0 0 1 .768 0l6.25 7.5V2.501H2.001v20.265ZM20.375 13.5c1.035 0 1.875-1.007 1.875-2.25 0-1.242-.84-2.25-1.875-2.25-1.036 0-1.875 1.008-1.875 2.25 0 1.243.84 2.25 1.875 2.25Z" clip-rule="evenodd"/></svg>