<svg xmlns="http://www.w3.org/2000/svg" width="32" height="33" fill="none" viewBox="0 0 32 33"><g clip-path="url(#a)"><path fill="#111827" fill-rule="evenodd" d="M17.53 7.352a3.6 3.6 0 0 1-1.549.349 3.6 3.6 0 0 1-1.493-.324l-3.508 5.51 2.587 1.418a3.6 3.6 0 0 1 2.642-1.155c.975 0 1.86.388 2.508 1.018l2.337-1.281zm1.51-1.35a3.6 3.6 0 1 0-6.082.055l-3.736 5.866-1.465-.802q.017-.171.017-.346a3.6 3.6 0 1 0-3.132 3.57L6.181 16.7l-1.77 2.778a3.6 3.6 0 1 0 2.928 3.208l2.028-1.112 3.645 5.574a3.6 3.6 0 1 0 6.156-.223l3.498-5.35 2.087 1.143a3.55 3.55 0 1 0 2.863-3.249L25.852 16.7l1.523-2.33q.366.08.757.08a3.6 3.6 0 1 0-3.598-3.47l-1.723.944zm6.138 6.905-1.29.707.785 1.233.936-1.43a3.6 3.6 0 0 1-.431-.51m.656 7.488-1.183-1.859-.888 1.358 1.693.928q.172-.229.378-.427m-8.2 5.22 3.272-5.006-2.24-1.228a3.6 3.6 0 0 1-2.457.97 3.6 3.6 0 0 1-2.595-1.106l-2.488 1.364 3.342 5.111a3.6 3.6 0 0 1 1.689-.42c.526 0 1.026.113 1.476.316m-4.952-8.14a3.6 3.6 0 0 1-.013-1.381l-2.766-1.517-1.342 2.108 1.468 2.245zm7.01.188 2.312 1.267 1.468-2.245-1.342-2.107-2.42 1.326a3.6 3.6 0 0 1-.017 1.759M6.6 20.81l1.67-.916-.887-1.358-1.175 1.845q.213.199.392.429m-.103-7.284.864 1.322.785-1.234-1.135-.622a3.6 3.6 0 0 1-.514.534" clip-rule="evenodd"/></g><defs><clipPath id="a"><path fill="#fff" d="M0 .5h32v32H0z"/></clipPath></defs></svg>