<svg xmlns="http://www.w3.org/2000/svg" width="32" height="33" fill="none" viewBox="0 0 32 33"><g fill="#000" clip-path="url(#a)"><path d="M16 32.849a2.44 2.44 0 0 1-2.44-2.44V3.288a2.44 2.44 0 0 1 4.88 0v27.12a2.44 2.44 0 0 1-2.44 2.44ZM24.136 27.425a2.44 2.44 0 0 1-2.441-2.44V8.713a2.44 2.44 0 1 1 4.881 0v16.271a2.44 2.44 0 0 1-2.44 2.441ZM5.424 24.985a2.44 2.44 0 0 0 4.881 0V8.713a2.44 2.44 0 0 0-4.881 0v16.271Z"/></g><defs><clipPath id="a"><path fill="#fff" d="M0 .849h32v32H0z"/></clipPath></defs></svg>