<svg xmlns="http://www.w3.org/2000/svg" width="32" height="33" fill="none" viewBox="0 0 32 33"><path fill="#111827" fill-rule="evenodd" d="M15.418.624a1 1 0 0 0-1 .017L3.503 7.197a1 1 0 0 0 .02 1.727l12.807 7.285a1 1 0 1 0 .99-1.738L6 8.03l8.953-5.378 12.804 7.094a1 1 0 1 0 .97-1.75L15.417.625ZM2.248 10.4a1 1 0 0 1 1.002-.009l12.22 6.933a1 1 0 1 1-.987 1.74L3.778 12.99l.137 10.897L15.24 30.44a1 1 0 0 1-1.001 1.732L2.42 25.334a1 1 0 0 1-.499-.853l-.166-13.207a1 1 0 0 1 .492-.873Zm27.804.375a1 1 0 0 1-.328 1.375l-11.268 6.922.036 10.66 10.235-6.175a1 1 0 0 1 1.034 1.712l-11.747 7.088a1 1 0 0 1-1.516-.853l-.044-12.987a1 1 0 0 1 .476-.855l11.747-7.216a1 1 0 0 1 1.375.329Z" clip-rule="evenodd"/></svg>