<svg xmlns="http://www.w3.org/2000/svg" width="33" height="33" fill="none" viewBox="0 0 33 33"><path fill="#111827" fill-rule="evenodd" d="M.04.698h32v32h-32zm15.04 26h-12v2h12zm-3.44-21.84v2.4H9.8v8.4h1.84v2.48H5.08v-2.48h1.84v-8.4H5.08v-2.4zm3.76 12.88a5.37 5.37 0 0 0 2.64.56 5.7 5.7 0 0 0 3.12-1.12 4 4 0 0 0 1.12-1.76c.241-.666.35-1.373.32-2.08v-8.64h-2.96v8.56c.062.6-.11 1.202-.48 1.68a1.49 1.49 0 0 1-1.28.56 2.34 2.34 0 0 1-1.28-.32 6 6 0 0 1-1.12-.96l-1.84 2.08a6.3 6.3 0 0 0 1.76 1.44" clip-rule="evenodd"/></svg>