<svg xmlns="http://www.w3.org/2000/svg" width="32" height="32" fill="none" viewBox="0 0 32 32"><path fill="#111827" fill-rule="evenodd" d="M11.385 2a9.384 9.384 0 0 0-9.384 9.385c0 4.441 3.086 8.162 7.23 9.136.051-6.213 5.077-11.24 11.29-11.29-.974-4.144-4.694-7.23-9.136-7.23ZM.001 11.386c0 5.611 4.06 10.274 9.402 11.212.938 5.342 5.6 9.402 11.212 9.402C26.902 32 32 26.902 32 20.615c0-5.611-4.06-10.274-9.402-11.212-.938-5.342-5.6-9.402-11.212-9.402C5.098 0 .001 5.098.001 11.385Zm29.998 9.23c0-4.441-3.086-8.162-7.23-9.136-.051 6.213-5.077 11.239-11.29 11.29.974 4.144 4.694 7.23 9.136 7.23A9.384 9.384 0 0 0 30 20.615Z" clip-rule="evenodd"/></svg>