<svg xmlns="http://www.w3.org/2000/svg" width="33" height="33" fill="none" viewBox="0 0 33 33"><path fill="#111827" fill-rule="evenodd" d="M.04.698h32v32h-32v-32Zm15.04 26h-12v2h12v-2Zm-3.44-21.84v2.4H9.8v8.4h1.84v2.48H5.08v-2.48h1.84v-8.4H5.08v-2.4h6.56Zm3.76 12.88a5.369 5.369 0 0 0 2.64.56 5.72 5.72 0 0 0 3.12-1.12 3.999 3.999 0 0 0 1.12-1.76c.241-.666.35-1.373.32-2.08v-8.64h-2.96v8.56c.062.6-.11 1.202-.48 1.68a1.488 1.488 0 0 1-1.28.56 2.344 2.344 0 0 1-1.28-.32 5.983 5.983 0 0 1-1.12-.96l-1.84 2.08a6.297 6.297 0 0 0 1.76 1.44Z" clip-rule="evenodd"/></svg>