<svg xmlns="http://www.w3.org/2000/svg" width="33" height="33" fill="none" viewBox="0 0 33 33"><circle cx="16.04" cy="16.467" r="6.999" fill="#111827"/><circle cx="26.539" cy="5.935" r="2.5" fill="#111827"/><path fill="#111827" fill-rule="evenodd" d="M2.041 16.434c0-7.731 6.268-13.999 13.999-13.999 2.32 0 4.51.565 6.436 1.564a4.516 4.516 0 0 1 1.268-1.59A15.927 15.927 0 0 0 16.04.435C7.204.435.04 7.598.04 16.435c0 8.835 7.163 15.998 15.999 15.998s15.999-7.163 15.999-15.999c0-2.793-.716-5.418-1.974-7.703-.424.534-.968.97-1.59 1.267.999 1.927 1.564 4.116 1.564 6.436 0 7.731-6.268 13.999-14 13.999-7.73 0-13.998-6.268-13.998-13.999Z" clip-rule="evenodd"/></svg>