<svg xmlns="http://www.w3.org/2000/svg" width="32" height="33" fill="none" viewBox="0 0 32 33"><path fill="#111827" fill-rule="evenodd" d="M32 .415H0v32h32zM10.127 25.75l-2.584 1.564c.748 1.586 2.221 2.9 4.76 2.9 2.81 0 4.736-1.496 4.736-4.782V14.6h-3.172v10.788c0 1.587-.658 1.994-1.7 1.994-1.088 0-1.541-.747-2.04-1.631m11.22-.272-2.584 1.495c.929 1.837 2.833 3.242 5.779 3.242 3.014 0 5.258-1.564 5.258-4.42 0-2.651-1.519-3.83-4.216-4.986l-.793-.34c-1.36-.589-1.949-.974-1.949-1.926 0-.77.59-1.36 1.519-1.36.906 0 1.495.385 2.04 1.36l2.47-1.587c-1.043-1.836-2.493-2.538-4.51-2.538-2.833 0-4.646 1.813-4.646 4.193 0 2.583 1.518 3.807 3.807 4.781l.793.34c1.45.635 2.312 1.02 2.312 2.108 0 .907-.838 1.564-2.153 1.564-1.564 0-2.448-.816-3.128-1.926" clip-rule="evenodd"/></svg>