<svg xmlns="http://www.w3.org/2000/svg" width="32" height="32" fill="none" viewBox="0 0 32 32"><path fill="#111827" fill-rule="evenodd" d="M4.588 4.215a1 1 0 0 0-.954.701l-1.74 5.549h28.211l-1.74-5.549a1 1 0 0 0-.953-.7zm-2.694 8.75h28.211v9.463H19.144V16a1 1 0 1 0-2 0v6.428h-2.286V16a1 1 0 1 0-2 0v6.428H1.894zm6.607 5.178a1.607 1.607 0 1 0 0-3.214 1.607 1.607 0 0 0 0 3.214m16.605-1.607a1.607 1.607 0 1 1-3.214 0 1.607 1.607 0 0 1 3.214 0M8.36 26.785v-4.357H1.894v4.357a1 1 0 0 0 1 1H7.36a1 1 0 0 0 1-1m21.746-4.357v4.357a1 1 0 0 1-1 1h-4.178a1 1 0 0 1-1-1v-4.357zm.893-9.713h-.892v-2h.892a1 1 0 1 1 0 2m-29.104 0H1a1 1 0 0 1 0-2h.893z" clip-rule="evenodd"/></svg>