<svg xmlns="http://www.w3.org/2000/svg" width="32" height="32" fill="none" viewBox="0 0 32 32"><path fill="#111827" fill-rule="evenodd" d="M12.604.437a1 1 0 0 1 1.39-.263l2.721 1.856a1 1 0 0 1 .263 1.39l-1.856 2.721a1 1 0 0 1-1.653-1.127l.668-.978C7.837 4.963 3 10.391 3 16.95c0 3.069 1.058 5.888 2.83 8.116a1 1 0 1 1-1.566 1.245A15 15 0 0 1 1 16.949C1 9.565 6.317 3.423 13.33 2.142l-.463-.316a1 1 0 0 1-.263-1.39m8.914 3.524a1 1 0 0 1 1.344-.439c4.889 2.484 8.242 7.563 8.242 13.427 0 3.493-1.191 6.711-3.189 9.266a1 1 0 1 1-1.575-1.232 13 13 0 0 0 2.764-8.034c0-5.082-2.904-9.487-7.148-11.644a1 1 0 0 1-.438-1.344M7.08 27.81a1 1 0 0 1 1.395-.233A13 13 0 0 0 16.052 30c2.632 0 5.08-.778 7.129-2.117a1 1 0 1 1 1.093 1.675A15 15 0 0 1 16.053 32a15 15 0 0 1-8.74-2.796 1 1 0 0 1-.232-1.395m17.704-14.19a1 1 0 0 0-1.568-1.242l-4.914 6.198-5.058-4.204a1 1 0 0 0-1.294.013l-5.605 4.858a1 1 0 0 0 1.31 1.512l4.963-4.303 5.192 4.316a1 1 0 0 0 1.423-.148z" clip-rule="evenodd"/></svg>