<svg xmlns="http://www.w3.org/2000/svg" width="33" height="33" fill="none" viewBox="0 0 33 33"><path fill="#111827" d="M3.96 17.43v-3.503h.764v3.77a2.28 2.28 0 0 1-.501 1.71c-.36.31-.823.479-1.299.473l-.08-.57c.307 0 .604-.114.832-.32.205-.238.285-.563.285-1.56m5.694-.45c0 .428 0 .81.034 1.14H9.01l-.045-.678a1.58 1.58 0 0 1-1.385.775c-.66 0-1.447-.36-1.447-1.823V13.96h.764v2.279c0 .792.245 1.322.934 1.322a1.063 1.063 0 0 0 1.077-1.077v-2.552h.763v3.025zm1.447-1.664c0-.53 0-.962-.034-1.356h.684l.034.713a1.65 1.65 0 0 1 1.492-.81c1.015 0 1.778.85 1.778 2.114 0 1.493-.917 2.233-1.908 2.233a1.48 1.48 0 0 1-1.294-.655v2.28h-.752v-4.519m.752 1.111q.004.156.034.308a1.174 1.174 0 0 0 1.14.883c.803 0 1.276-.655 1.276-1.607 0-.831-.444-1.543-1.248-1.543a1.31 1.31 0 0 0-1.202 1.247zm4.562-2.47.917 2.455c.097.274.2.604.268.849.08-.25.165-.57.268-.866l.832-2.438h.803l-1.14 2.962c-.57 1.424-.917 2.16-1.44 2.604-.265.24-.587.41-.935.49l-.188-.638c.244-.08.47-.206.666-.37a2.3 2.3 0 0 0 .644-.844.6.6 0 0 0 .063-.182.7.7 0 0 0-.051-.2l-1.55-3.834h.832zm5.115-1.196v1.197h1.093v.57H21.53v2.244c0 .513.148.81.57.81q.224.002.444-.052l.034.57a1.9 1.9 0 0 1-.678.102 1.06 1.06 0 0 1-.826-.319 1.53 1.53 0 0 1-.296-1.082v-2.28h-.65v-.569h.661v-1.014zm2.5 3.41a1.34 1.34 0 0 0 1.441 1.442 2.8 2.8 0 0 0 1.14-.217l.13.57c-.442.182-.917.27-1.395.256a1.937 1.937 0 0 1-2.063-2.096c0-1.253.747-2.245 1.966-2.245 1.367 0 1.709 1.197 1.709 1.96a3 3 0 0 1 0 .353h-2.945zm2.233-.57a1.078 1.078 0 0 0-1.06-1.23 1.26 1.26 0 0 0-1.168 1.23zm1.853-.349c0-.49 0-.911-.034-1.299h.684v.815h.034a1.26 1.26 0 0 1 1.14-.912.8.8 0 0 1 .216 0v.713a1.1 1.1 0 0 0-.262 0 1.066 1.066 0 0 0-1.02.968 2 2 0 0 0-.034.353v2.216h-.752v-2.848z"/><path fill="#111827" fill-rule="evenodd" d="M28.751 19.412c.223-.905.369-1.71.436-2.483-.062.854-.21 1.685-.436 2.483m-.327.995c-1.21 1.31-3.53 3.13-7.673 3.997-1.71.447-6.356.908-11.267-.822-1.138-.445-3.68-1.7-4.907-3.21a12.715 12.715 0 0 0 11.93 8.247c5.46 0 10.116-3.416 11.917-8.212m.674-6.173q-.09-.595-.24-1.242.15.61.24 1.242m-.672-2.638A12.715 12.715 0 0 0 16.507 3.38a12.715 12.715 0 0 0-11.924 8.232c.697-.796 2.37-2.334 5.283-3.353 1.883-.723 6.637-1.721 11.375-.561 1.446.32 4.647 1.215 7.185 3.897" clip-rule="evenodd"/><ellipse cx="25.854" cy="2.63" fill="#111827" rx="1.947" ry="1.932"/><ellipse cx="5.097" cy="5.134" fill="#111827" rx="1.401" ry="1.391"/><ellipse cx="7.03" cy="30.264" fill="#111827" rx="2.451" ry="2.433"/></svg>