<svg xmlns="http://www.w3.org/2000/svg" width="33" height="33" fill="none" viewBox="0 0 33 33"><g clip-path="url(#a)"><path fill="#111827" fill-rule="evenodd" d="M11.575 2.263a2.456 2.456 0 1 0 0 4.912 2.456 2.456 0 0 0 0-4.912ZM7.119 4.72a4.456 4.456 0 1 1 5.456 4.343v1.976a5.333 5.333 0 0 1 3.036 1.75l1.52-.877a4.456 4.456 0 1 1 1.008 1.728l-1.524.88a5.33 5.33 0 0 1 .298 1.764c0 .649-.115 1.27-.327 1.845l1.5.867a4.456 4.456 0 1 1-.977 1.745l-1.555-.898a5.332 5.332 0 0 1-2.98 1.686v1.976a4.457 4.457 0 0 1-1 8.798 4.456 4.456 0 0 1-1-8.798v-1.976a5.34 5.34 0 0 1 0-10.49V9.062A4.457 4.457 0 0 1 7.12 4.719Zm4.456 8.225a3.339 3.339 0 1 0 0 6.677 3.339 3.339 0 0 0 0-6.677ZM9.119 27.847a2.456 2.456 0 1 1 4.912 0 2.456 2.456 0 0 1-4.912 0Zm12.269-8.315a2.456 2.456 0 1 0 0 4.91 2.456 2.456 0 0 0 0-4.91Zm-2.456-8.942a2.456 2.456 0 1 1 4.912 0 2.456 2.456 0 0 1-4.912 0Z" clip-rule="evenodd"/></g><defs><clipPath id="a"><path fill="#fff" d="M.04.283h32v32h-32z"/></clipPath></defs></svg>