<svg xmlns="http://www.w3.org/2000/svg" width="32" height="32" fill="none" viewBox="0 0 32 32"><path fill="#111827" fill-rule="evenodd" d="M1 4.923a1 1 0 0 0-1 1v20.154a1 1 0 0 0 1 1h30a1 1 0 0 0 1-1V5.923a1 1 0 0 0-1-1zm3.923 5.154a1 1 0 1 0 0 2h22.154a1 1 0 1 0 0-2zm0 4.923a1 1 0 1 0 0 2h22.154a1 1 0 1 0 0-2zm-1 5.923a1 1 0 0 1 1-1h1.231a1 1 0 1 1 0 2h-1.23a1 1 0 0 1-1-1m7.154-1a1 1 0 1 0 0 2h9.846a1 1 0 1 0 0-2zm13.77 1a1 1 0 0 1 1-1h1.23a1 1 0 1 1 0 2h-1.23a1 1 0 0 1-1-1" clip-rule="evenodd"/></svg>