<svg xmlns="http://www.w3.org/2000/svg" width="34" height="32" fill="none" viewBox="0 0 34 32"><path fill="#111827" fill-rule="evenodd" d="M11.156 14.612 1.07 24.623a.637.637 0 0 0-.186.45v6.29c0 .352.285.637.637.637h5.681a.637.637 0 0 0 .637-.637v-3.155c0-.352.285-.637.637-.637h2.686a.637.637 0 0 0 .637-.638v-2.862c0-.352.286-.637.637-.637h3.647a.637.637 0 0 0 .45-.187l1.373-1.493c1.235.467 2.574.722 3.973.722 6.206 0 11.238-5.031 11.238-11.238S28.085 0 21.879 0C15.672 0 10.64 5.031 10.64 11.238c0 1.176.18 2.309.515 3.374Zm15.61-6.35a1.91 1.91 0 1 1-3.822 0 1.91 1.91 0 0 1 3.822 0Z" clip-rule="evenodd"/></svg>