<svg xmlns="http://www.w3.org/2000/svg" width="32" height="33" fill="none" viewBox="0 0 32 33"><g clip-path="url(#a)"><path fill="#111827" fill-rule="evenodd" d="M16.434 1.324a1 1 0 0 0-.868 0L3.537 7.117a1 1 0 0 0-.541.678L.026 20.812a1 1 0 0 0 .192.846l8.325 10.438a1 1 0 0 0 .781.377h13.352a1 1 0 0 0 .781-.377l8.325-10.438a1 1 0 0 0 .193-.846L29.004 7.795a1 1 0 0 0-.541-.678l-12.03-5.793Zm-.91 5.254A.693.693 0 0 1 16 6.35L16 6.346a.693.693 0 0 1 .654.726v.186a5.45 5.45 0 0 1-.09.621c-.063.393-.088.79-.074 1.187.026.133.102.25.213.327l.003.043c.005.067.013.179.013.247a8.57 8.57 0 0 1 5.43 2.623l.248-.177a.726.726 0 0 0 .396-.043c.32-.237.615-.504.882-.798.136-.16.282-.313.436-.457.04-.035.1-.082.145-.116a.657.657 0 1 1 .815 1.016l-.042.034c-.036.03-.074.06-.104.082a5.5 5.5 0 0 1-.543.317 6.099 6.099 0 0 0-.973.684.517.517 0 0 0-.123.37l-.233.208a8.496 8.496 0 0 1 1.363 5.887l.264.077a.734.734 0 0 0 .282.29c.383.103.776.168 1.172.194.21.005.42.021.627.05.036.007.08.018.123.029l.068.016a.657.657 0 1 1-.29 1.276h-.024a4.65 4.65 0 0 0-.057-.012c-.04-.008-.08-.016-.112-.025a5.47 5.47 0 0 1-.58-.226 6.11 6.11 0 0 0-1.14-.336.517.517 0 0 0-.367.135 7.277 7.277 0 0 0-.279-.05 8.513 8.513 0 0 1-3.776 4.745c.03.09.067.178.109.264a.513.513 0 0 0-.05.386c.159.364.353.712.58 1.039.127.167.245.34.352.521.022.04.05.102.074.15l.011.026a.658.658 0 0 1-.814.94.656.656 0 0 1-.368-.38 8.777 8.777 0 0 0-.028-.057l-.053-.11a5.482 5.482 0 0 1-.19-.6 6.101 6.101 0 0 0-.45-1.1.517.517 0 0 0-.333-.204 2.69 2.69 0 0 1-.107-.182l-.039-.069a8.466 8.466 0 0 1-6.036-.016l-.145.269a.531.531 0 0 0-.28.148 4.575 4.575 0 0 0-.507 1.175 5.445 5.445 0 0 1-.19.6 2.669 2.669 0 0 1-.053.112c-.01.02-.02.038-.027.055a.657.657 0 1 1-1.181-.56l.03-.063c.018-.04.037-.082.054-.114a5.47 5.47 0 0 1 .351-.522c.231-.336.43-.692.593-1.065a.649.649 0 0 0-.058-.37l.119-.29a8.513 8.513 0 0 1-3.776-4.711l-.29.05a.726.726 0 0 0-.377-.133c-.39.075-.772.187-1.14.336-.19.086-.383.16-.581.225a2.069 2.069 0 0 1-.169.038h-.023a.657.657 0 1 1-.29-1.276h.01l.01-.002c.052-.013.118-.029.164-.038a5.49 5.49 0 0 1 .628-.051c.396-.026.788-.091 1.172-.193a.906.906 0 0 0 .28-.29l.275-.08a8.465 8.465 0 0 1 1.334-5.902l-.209-.187a.726.726 0 0 0-.13-.378 6.094 6.094 0 0 0-.974-.684 5.453 5.453 0 0 1-.541-.317 2.17 2.17 0 0 1-.085-.068l-.05-.04h-.01a.693.693 0 0 1-.162-.965.63.63 0 0 1 .522-.23.778.778 0 0 1 .473.184c.042.032.093.072.128.103.154.144.3.296.436.457.267.294.562.561.881.797.12.064.26.077.39.038l.123.087.113.08a8.414 8.414 0 0 1 5.457-2.623l.016-.277a.714.714 0 0 0 .212-.339 6.106 6.106 0 0 0-.073-1.186 5.45 5.45 0 0 1-.09-.622v-.186a.693.693 0 0 1 .177-.498Zm-.538 8.276.195-3.43a6.738 6.738 0 0 0-3.938 1.888l2.814 1.978a.581.581 0 0 0 .915-.436h.014Zm5.756-1.542a6.795 6.795 0 0 0-3.922-1.889l.2 3.435a.58.58 0 0 0 .916.436h.01l2.796-1.982Zm-7.955 3.578-2.57-2.298v.002a6.736 6.736 0 0 0-.95 4.263l3.293-.95v-.012a.581.581 0 0 0 .227-.99v-.015Zm9.96 1.954a6.861 6.861 0 0 0-.984-4.252l.004.014-2.554 2.286a.581.581 0 0 0 .226.99v.015l3.309.947Zm-6.221-1.782h-1.053l-.657.816.235 1.017.947.456.946-.455.235-1.017-.653-.817Zm2.453 2.809a.575.575 0 0 0-.132-.01v.01a.582.582 0 0 0-.502.804l1.322 3.196a6.744 6.744 0 0 0 2.718-3.42l-3.406-.58Zm-5.585.078a.582.582 0 0 0-.268-.074l-.005-.007a.574.574 0 0 0-.113.01l-3.377.574a6.773 6.773 0 0 0 2.719 3.401l1.307-3.162-.01-.013a.581.581 0 0 0-.253-.73Zm2.891 1.388a.581.581 0 0 0-.307-.076v.005a.582.582 0 0 0-.49.305l-1.66 3.003a6.764 6.764 0 0 0 3.691.19c.225-.05.447-.113.665-.186l-1.664-3.014h-.013a.581.581 0 0 0-.222-.227Z" clip-rule="evenodd"/></g><defs><clipPath id="a"><path fill="#fff" d="M0 .849h32v32H0z"/></clipPath></defs></svg>