<svg xmlns="http://www.w3.org/2000/svg" width="32" height="33" fill="none" viewBox="0 0 32 33"><g clip-path="url(#a)"><path fill="#111827" fill-rule="evenodd" d="M16.434 1.324a1 1 0 0 0-.868 0L3.537 7.117a1 1 0 0 0-.541.678L.026 20.812a1 1 0 0 0 .192.846l8.325 10.438a1 1 0 0 0 .781.377h13.352a1 1 0 0 0 .781-.377l8.325-10.438a1 1 0 0 0 .193-.846L29.004 7.795a1 1 0 0 0-.541-.678zm-.91 5.254A.7.7 0 0 1 16 6.35L16 6.346a.693.693 0 0 1 .654.726v.186a6 6 0 0 1-.09.621q-.095.59-.074 1.187c.026.133.102.25.213.327l.003.043c.005.067.013.179.013.247a8.57 8.57 0 0 1 5.43 2.623l.248-.177a.73.73 0 0 0 .396-.043q.48-.356.882-.798.205-.24.436-.457c.04-.035.1-.082.145-.116a.657.657 0 1 1 .815 1.016l-.042.034c-.036.03-.074.06-.104.082a6 6 0 0 1-.543.317 6 6 0 0 0-.973.684.52.52 0 0 0-.123.37l-.233.208a8.5 8.5 0 0 1 1.363 5.887l.264.077a.73.73 0 0 0 .282.29q.576.155 1.172.194.316.007.627.05c.036.007.08.018.123.029l.068.016a.657.657 0 1 1-.29 1.276h-.024l-.057-.012c-.04-.008-.08-.016-.112-.025a6 6 0 0 1-.58-.226 6 6 0 0 0-1.14-.336.52.52 0 0 0-.367.135 7 7 0 0 0-.279-.05 8.5 8.5 0 0 1-3.776 4.745q.046.135.109.264a.51.51 0 0 0-.05.386q.239.547.58 1.039.191.25.352.521c.022.04.05.102.074.15l.011.026a.658.658 0 0 1-.814.94.66.66 0 0 1-.368-.38l-.028-.057-.053-.11a6 6 0 0 1-.19-.6 6 6 0 0 0-.45-1.1.52.52 0 0 0-.333-.204 3 3 0 0 1-.107-.182l-.039-.069a8.47 8.47 0 0 1-6.036-.016l-.145.269a.53.53 0 0 0-.28.148 4.6 4.6 0 0 0-.507 1.175 6 6 0 0 1-.19.6l-.053.112q-.016.03-.027.055a.657.657 0 1 1-1.181-.56l.03-.063c.018-.04.037-.082.054-.114a6 6 0 0 1 .351-.522q.348-.505.593-1.065a.65.65 0 0 0-.058-.37l.119-.29a8.5 8.5 0 0 1-3.776-4.711l-.29.05a.73.73 0 0 0-.377-.133q-.587.113-1.14.336-.285.128-.581.225a2 2 0 0 1-.169.038h-.023a.657.657 0 1 1-.29-1.276h.01l.01-.002c.052-.013.118-.029.164-.038a6 6 0 0 1 .628-.051q.595-.04 1.172-.193a.9.9 0 0 0 .28-.29l.275-.08a8.47 8.47 0 0 1 1.334-5.902l-.209-.187a.73.73 0 0 0-.13-.378 6 6 0 0 0-.974-.684 6 6 0 0 1-.541-.317l-.085-.068-.05-.04h-.01a.693.693 0 0 1-.162-.965.63.63 0 0 1 .522-.23.78.78 0 0 1 .473.184c.042.032.093.072.128.103q.232.216.436.457.401.442.881.797c.12.064.26.077.39.038l.123.087.113.08a8.41 8.41 0 0 1 5.457-2.623l.016-.277a.7.7 0 0 0 .212-.339 6 6 0 0 0-.073-1.186 6 6 0 0 1-.09-.622v-.186a.7.7 0 0 1 .177-.498m-.538 8.276.195-3.43a6.738 6.738 0 0 0-3.937 1.888l2.813 1.978a.581.581 0 0 0 .915-.436zm5.756-1.542a6.8 6.8 0 0 0-3.922-1.889l.2 3.435a.58.58 0 0 0 .916.436h.01zm-7.955 3.578-2.57-2.298v.002a6.74 6.74 0 0 0-.95 4.263l3.294-.95v-.012a.581.581 0 0 0 .226-.99zm9.96 1.954a6.86 6.86 0 0 0-.984-4.252l.004.014-2.554 2.286a.581.581 0 0 0 .226.99v.015zm-6.221-1.782h-1.053l-.657.816.235 1.017.947.456.946-.455.235-1.017zm2.453 2.809a.6.6 0 0 0-.132-.01v.01a.582.582 0 0 0-.502.804l1.322 3.196a6.74 6.74 0 0 0 2.718-3.42zm-5.585.078a.6.6 0 0 0-.268-.074l-.005-.007a.6.6 0 0 0-.113.01l-3.377.574a6.77 6.77 0 0 0 2.719 3.401l1.307-3.162-.01-.013a.58.58 0 0 0-.253-.73m2.891 1.388a.6.6 0 0 0-.307-.076v.005a.58.58 0 0 0-.49.305l-1.66 3.003a6.76 6.76 0 0 0 3.691.19q.338-.076.665-.186l-1.664-3.014h-.013a.6.6 0 0 0-.222-.227" clip-rule="evenodd"/></g><defs><clipPath id="a"><path fill="#fff" d="M0 .849h32v32H0z"/></clipPath></defs></svg>