<svg xmlns="http://www.w3.org/2000/svg" width="32" height="33" fill="none" viewBox="0 0 32 33"><path fill="#111827" fill-rule="evenodd" d="M12.614.5h13.613a1 1 0 0 1 0 2h-2.026l-1.682 4.626 8.739 24.032a1 1 0 0 1-1.88.684l-3.231-8.887h-9.384l-3.232 8.887a1 1 0 0 1-1.88-.684l1.496-4.113H4.366l-1.744 4.797a1 1 0 1 1-1.88-.684l1.946-5.35a.993.993 0 0 1 .074-.205L8.634 9.457a.993.993 0 0 1 .083-.228L11.163 2.5h-1.3a1 1 0 1 1 0-2h2.751Zm4.876 20.455h7.93l-3.965-10.903-2.948 8.105a.99.99 0 0 1-.035.096l-.982 2.702ZM22.073 2.5l-1.548 4.256a.97.97 0 0 0-.02.055l-.68 1.871h-8.782L13.291 2.5h8.782ZM5.093 25.045h8.781l2.248-6.181H7.341l-2.248 6.181Zm2.975-8.181 2.248-6.182h8.781l-2.248 6.182H8.07Z" clip-rule="evenodd"/></svg>