<svg xmlns="http://www.w3.org/2000/svg" width="32" height="32" fill="none" viewBox="0 0 32 32"><path fill="#111827" fill-rule="evenodd" d="M12.614 0h13.613a1 1 0 0 1 0 2h-2.026l-1.682 4.626 8.739 24.032a1 1 0 0 1-1.88.684l-3.231-8.887h-9.384l-3.232 8.887a1 1 0 0 1-1.88-.684l1.496-4.113H4.366l-1.744 4.797a1 1 0 1 1-1.88-.684l1.946-5.35a1 1 0 0 1 .074-.205L8.634 8.957a1 1 0 0 1 .083-.228L11.163 2h-1.3a1 1 0 1 1 0-2h2.751m4.876 20.455h7.93L21.454 9.552l-2.948 8.105a1 1 0 0 1-.035.096zM22.073 2l-1.548 4.256-.02.055-.68 1.871h-8.782L13.291 2zM5.093 24.545h8.781l2.248-6.181H7.341zm2.975-8.181 2.248-6.182h8.781l-2.248 6.182z" clip-rule="evenodd"/></svg>