<svg xmlns="http://www.w3.org/2000/svg" width="33" height="33" fill="none" viewBox="0 0 33 33"><path fill="#111827" fill-rule="evenodd" d="M8.65 8.871a8.11 8.11 0 1 0 0 16.22h15.78a8.11 8.11 0 0 0 0-16.22zm6.749 12.61c.191.2.474.19.724.139.115-.094-.05-.213-.207-.326-.095-.069-.187-.136-.214-.194.088-.106-.172-.347-.373-.535-.084-.078-.158-.147-.192-.193-.143-.154-.2-.349-.258-.545-.039-.13-.077-.262-.142-.382-.393-.907-.843-1.807-1.473-2.574-.405-.51-.868-.967-1.331-1.424-.299-.295-.598-.59-.881-.899-.293-.3-.469-.669-.645-1.038-.146-.309-.293-.617-.508-.887-.653-.961-2.717-1.223-3.02.135.001.042-.011.069-.05.096-.166.121-.315.26-.44.427-.306.425-.354 1.146.029 1.528l.001-.018c.012-.195.023-.377.178-.518.296.253.742.342 1.085.153.413.589.545 1.3.677 2.014.11.594.22 1.19.493 1.717l.019.032c.16.265.322.532.528.765.074.116.229.24.383.365.201.164.403.327.422.468v.187c0 .372-.002.757.237 1.063.131.267-.193.535-.454.502-.144.02-.3-.018-.455-.055-.214-.05-.425-.101-.596-.004-.048.052-.117.054-.187.056-.082.002-.165.004-.214.09-.01.025-.034.054-.058.084-.054.065-.111.136-.042.19l.018-.014c.106-.08.208-.158.35-.11-.019.105.049.133.117.162l.035.015q-.001.036-.01.072c-.012.06-.023.117.023.167a1 1 0 0 0 .06-.071c.047-.06.094-.12.178-.142.185.247.373.144.608.016.265-.145.59-.324 1.043-.072-.173-.008-.327.013-.444.156-.03.032-.054.07-.003.111.268-.172.379-.11.484-.052.076.042.148.082.274.031l.09-.047c.2-.107.404-.217.643-.18-.178.052-.242.165-.312.288-.034.06-.07.123-.12.182-.027.029-.04.059-.009.105.374-.031.516-.125.707-.252.09-.061.193-.13.337-.202.16-.097.319-.035.473.026.167.065.329.129.48-.017.045-.044.104-.045.164-.045q.032 0 .064-.003c-.047-.248-.31-.245-.577-.242-.308.004-.622.008-.612-.377.287-.194.29-.532.292-.851q-.001-.116.005-.225c.212.116.434.208.656.299.209.085.416.17.61.275.202.326.52.757.943.729l.033-.095q.038.006.079.017c.11.028.228.057.284-.073m9.587-3.333 1.162-1.16a2.66 2.66 0 0 0 .787-1.895c0-.717-.28-1.39-.787-1.895a2.67 2.67 0 0 0-1.9-.784c-.718 0-1.392.278-1.9.784l-1.162 1.16c-.271.27-.477.589-.612.945l-.008.02-.021.006c-.422.13-.795.353-1.106.664l-1.163 1.16a2.677 2.677 0 0 0 1.9 4.573c.719 0 1.393-.279 1.9-.784l1.162-1.16c.27-.269.476-.586.611-.942l.008-.02.021-.007a2.7 2.7 0 0 0 1.108-.665m-1.817-4.132a1.52 1.52 0 0 1 1.08-.446h.002a1.524 1.524 0 0 1 1.082 2.603l-1.163 1.159q-.054.054-.114.102l-.059.048-.013-.074a2.66 2.66 0 0 0-.742-1.414 2.65 2.65 0 0 0-1.026-.638 1.25 1.25 0 0 0-.356 1.1q.323.116.563.355a1.524 1.524 0 0 1 0 2.156l-1.163 1.16a1.53 1.53 0 0 1-1.08.446 1.524 1.524 0 0 1-1.082-2.603l1.162-1.16a1 1 0 0 1 .113-.101l.06-.048.013.074c.096.537.353 1.026.742 1.414a2.5 2.5 0 0 0 1.004.617l.072-.07a1.14 1.14 0 0 0 .318-1.017 1.4 1.4 0 0 1-.576-.346 1.5 1.5 0 0 1-.435-.892l-.007-.073c-.033-.446.128-.88.442-1.193zm-11.823 6.422c-.079.385-.174.854-.604.87-.042.229.159.315.343.241.181-.083.268.066.33.214.28.041.695-.093.71-.424-.356-.205-.503-.568-.651-.933l-.079-.19a5 5 0 0 0-.049.222" clip-rule="evenodd"/></svg>