<svg xmlns="http://www.w3.org/2000/svg" width="32" height="33" fill="none" viewBox="0 0 32 33"><path fill="#111827" fill-rule="evenodd" d="M7.33.717 1.066 4.343l-.22 21.1 12.572 7.274 12.417-7.275v-6.747l6.044-3.473v-7.34L25.418 4.08l-6.506 3.802v6.747l-5.165 2.945V4.344L7.33.716ZM6.874 8.49 1.847 5.6v19.331l10.986 6.409v-5.773l-5.96-3.494V8.49Zm.985-.007 4.996-2.858v12.49L7.86 21.063V8.483Zm11.548 6.968-10.895 6.34 4.883 2.916 10.931-6.413-4.92-2.843Zm-5.56 10.171 10.917-6.326v5.701L13.848 31.32v-5.697Zm11.01-13.714-4.938-2.863v5.551l4.938 2.951v-5.639Zm-4.465-3.782 4.991-2.903 4.866 2.903-4.866 2.944-4.991-2.944ZM30.873 9l-5.022 2.9v5.695l5.022-3.005V9ZM2.383 4.728l5.03-2.886 4.957 2.886-4.958 2.904-5.028-2.904Z" clip-rule="evenodd"/></svg>