<svg xmlns="http://www.w3.org/2000/svg" width="32" height="33" fill="none" viewBox="0 0 32 33"><path stroke="#111827" stroke-width="2" d="m2.046 5.116-.212 19.778 11.772 6.822m-11.56-26.6 5.832-3.399 6.011 3.404M2.046 5.116 7.785 8.73m6.104-3.609-.013 12.403m.013-12.403-6.104 3.61m6.091 8.793 4.862-2.753m-4.862 2.753-6.1 3.712m10.962-6.465V8.432m0 6.339 6.028 3.47m-6.028-9.809 6.087-3.548 6.067 3.556m-12.154-.008 6.028 3.595m6.126-3.587v6.177l-6.126 3.624m6.126-9.801-6.126 3.587m0 6.214v6.956l-11.158 6.52h-.002m11.16-13.476v-6.214m0 6.214-11.213 6.51M7.785 8.732l-.008 12.505m0 0 5.776 3.516m0 0 .053 6.964"/></svg>