<svg xmlns="http://www.w3.org/2000/svg" width="32" height="32" fill="none" viewBox="0 0 32 32"><path fill="#111827" fill-rule="evenodd" d="M26.585 27.999A15.94 15.94 0 0 1 16 32a15.94 15.94 0 0 1-10.585-4.001l5.917-5.917A7.63 7.63 0 0 0 16 23.667c1.756 0 3.375-.591 4.668-1.585zm1.414-1.414A15.94 15.94 0 0 0 32 16a15.94 15.94 0 0 0-4.001-10.585l-5.917 5.917A7.63 7.63 0 0 1 23.666 16c0 1.757-.59 3.375-1.584 4.668zM26.585 4l-5.917 5.917A7.63 7.63 0 0 0 16 8.333c-1.757 0-3.375.591-4.668 1.585L5.415 4A15.94 15.94 0 0 1 16 0a15.94 15.94 0 0 1 10.585 4.001M4 5.416A15.94 15.94 0 0 0 0 16a15.94 15.94 0 0 0 4.001 10.584l5.917-5.916A7.63 7.63 0 0 1 8.333 16c0-1.757.59-3.375 1.585-4.668zM10.333 16a5.667 5.667 0 1 1 11.334 0 5.667 5.667 0 0 1-11.334 0" clip-rule="evenodd"/></svg>