<svg xmlns="http://www.w3.org/2000/svg" width="32" height="32" fill="none"><path fill="#111827" fill-rule="evenodd" d="M17.79 10.36 19.563.59c.088-.49-.514-.794-.856-.432L12.6 6.62a.5.5 0 0 0 .008.695l10.897 11.072a.5.5 0 0 0 .722-.01l2.824-3.03a.5.5 0 0 0-.174-.803l-8.786-3.633a.5.5 0 0 1-.3-.551ZM1.046.557a1 1 0 0 1 1.414 0L30.954 29.05a1 1 0 1 1-1.414 1.414l-8.66-8.66-9.577 10.04c-.348.365-.957.043-.85-.45l2.165-10.048a.5.5 0 0 0-.315-.574L3.216 17.4a.5.5 0 0 1-.188-.814l6.167-6.466-8.15-8.15a1 1 0 0 1 0-1.414Z" clip-rule="evenodd"/></svg>