<svg xmlns="http://www.w3.org/2000/svg" width="32" height="32" fill="none" viewBox="0 0 32 32"><path fill="#111827" fill-rule="evenodd" d="M21.262 22.646a11.93 11.93 0 0 0 6.67-10.713C27.933 5.343 22.59 0 16 0S4.067 5.343 4.067 11.933c0 4.696 2.714 8.759 6.658 10.706v3.781a1 1 0 0 0 1 1h8.537a1 1 0 0 0 1-1zM16.225 4.677a1 1 0 0 1 1.154-.818 8.15 8.15 0 0 1 6.665 6.657 1 1 0 1 1-1.97.338 6.15 6.15 0 0 0-5.03-5.024 1 1 0 0 1-.819-1.153M10.732 30a1 1 0 1 0 0 2h10.536a1 1 0 0 0 0-2z" clip-rule="evenodd"/></svg>