<svg xmlns="http://www.w3.org/2000/svg" width="32" height="32" fill="none"><path fill="#111827" fill-rule="evenodd" d="M28.571 9.143a3.429 3.429 0 1 0-2.427-1.007.996.996 0 0 0-.078.123l-4.749 8.82a1.009 1.009 0 0 0-.06.133 3.446 3.446 0 0 0-2.308.338 1.001 1.001 0 0 0-.095-.11l-4.294-4.294a1.003 1.003 0 0 0-.11-.095 3.429 3.429 0 1 0-5.449.8c-.029.038-.055.079-.079.123l-4.748 8.819a1.013 1.013 0 0 0-.06.133 3.429 3.429 0 1 0 1.742.939c.029-.04.055-.08.079-.124l4.748-8.819c.024-.044.044-.088.06-.133a3.441 3.441 0 0 0 2.308-.339c.028.038.06.075.095.11l4.294 4.294c.035.035.072.067.11.095A3.429 3.429 0 1 0 23 18.15c.028-.038.054-.08.078-.123l4.749-8.82c.023-.043.043-.088.06-.133.22.045.45.069.684.069Z" clip-rule="evenodd"/></svg>