<svg xmlns="http://www.w3.org/2000/svg" width="32" height="32" fill="none" viewBox="0 0 32 32"><path fill="#111827" fill-rule="evenodd" d="M28.571 9.143a3.429 3.429 0 1 0-2.427-1.007 1 1 0 0 0-.078.123l-4.749 8.82a1 1 0 0 0-.06.133 3.45 3.45 0 0 0-2.308.338 1 1 0 0 0-.095-.11l-4.294-4.294a1 1 0 0 0-.11-.095 3.429 3.429 0 1 0-5.449.8q-.043.057-.079.123l-4.748 8.819a1 1 0 0 0-.06.133 3.429 3.429 0 1 0 1.742.939q.043-.059.079-.124l4.748-8.819q.036-.066.06-.133a3.44 3.44 0 0 0 2.308-.339q.042.057.095.11l4.294 4.294q.053.053.11.095A3.429 3.429 0 1 0 23 18.15q.042-.058.078-.123l4.749-8.82q.035-.065.06-.133.332.068.684.069" clip-rule="evenodd"/></svg>