<svg width="33" height="33" fill="none" xmlns="http://www.w3.org/2000/svg"><path fill-rule="evenodd" clip-rule="evenodd" d="M21.44 6.052a5.752 5.752 0 0 0-4.067 1.684l-2.8 2.8a1 1 0 1 0 1.415 1.414l2.8-2.8a3.751 3.751 0 0 1 5.305 5.306l-2.8 2.8a1 1 0 0 0 1.414 1.414l2.8-2.8a5.751 5.751 0 0 0-4.067-9.818Zm-.413 6.164a1 1 0 0 1 0 1.414l-6.72 6.72a1 1 0 0 1-1.414-1.415l6.72-6.72a1 1 0 0 1 1.414 0Zm-8.4 1.68a1 1 0 0 1 0 1.414l-2.8 2.8a3.751 3.751 0 0 0 5.306 5.305l2.8-2.8a1 1 0 1 1 1.414 1.415l-2.8 2.8a5.752 5.752 0 0 1-8.134-8.134l2.8-2.8a1 1 0 0 1 1.415 0Z" fill="#1C1B1F"/></svg>