<svg xmlns="http://www.w3.org/2000/svg" width="32" height="32" fill="none" viewBox="0 0 32 32"><path fill="#111827" fill-rule="evenodd" d="M23.278.002a8.72 8.72 0 0 0-6.165 2.553l-4.55 4.55a1 1 0 1 0 1.415 1.413l4.549-4.549a6.72 6.72 0 0 1 9.503 9.504l-4.549 4.549a1 1 0 0 0 1.414 1.414l4.55-4.549A8.72 8.72 0 0 0 23.278.002M8.518 13.978a1 1 0 0 0-1.414-1.414l-4.549 4.549a8.72 8.72 0 0 0 12.332 12.332l4.55-4.55a1 1 0 0 0-1.415-1.413l-4.549 4.549a6.72 6.72 0 0 1-9.504-9.504z" clip-rule="evenodd"/></svg>