<svg xmlns="http://www.w3.org/2000/svg" width="32" height="32" fill="none" viewBox="0 0 32 32"><path fill="#111827" fill-rule="evenodd" d="M11.001 1.002a1 1 0 1 0-2 0v4.5a1 1 0 1 0 2 0zm11.998 25.496a1 1 0 1 0-2 0v4.5a1 1 0 1 0 2 0zM.002 10.001a1 1 0 0 1 1-1h4.5a1 1 0 1 1 0 2h-4.5a1 1 0 0 1-1-1M26.5 20.999a1 1 0 0 0 0 2h4.499a1 1 0 1 0 0-2zm-20.472-5.63a1 1 0 0 1 0 1.413l-2.121 2.121a6.499 6.499 0 0 0 9.19 9.191l2.122-2.12a1 1 0 0 1 1.414 1.413l-2.121 2.121A8.499 8.499 0 0 1 2.49 17.49l2.122-2.122a1 1 0 0 1 1.414 0M23.499.003a8.5 8.5 0 0 0-6.01 2.487l-2.12 2.121a1 1 0 0 0 1.413 1.415l2.121-2.121a6.499 6.499 0 0 1 9.191 9.19l-2.12 2.121a1 1 0 0 0 1.413 1.415l2.122-2.121A8.499 8.499 0 0 0 23.499.003" clip-rule="evenodd"/></svg>