<svg xmlns="http://www.w3.org/2000/svg" width="32" height="32" fill="none" viewBox="0 0 32 32"><path fill="#111827" fill-rule="evenodd" d="M23.604 2.003a6.392 6.392 0 0 1 4.52 10.914h-.001l-4.752 4.752a6.393 6.393 0 0 1-9.04 0 1 1 0 0 0-1.414 1.414 8.39 8.39 0 0 0 11.868 0l4.752-4.751a8.393 8.393 0 1 0-11.868-11.87v.001L14.341 5.79a1 1 0 0 0 1.415 1.414l3.326-3.326a6.4 6.4 0 0 1 4.52-1.874M10.702 12.946a6.39 6.39 0 0 1 6.966 1.385 1 1 0 0 0 1.415-1.414 8.393 8.393 0 0 0-11.869 0l-4.751 4.752A8.392 8.392 0 1 0 14.33 29.537l3.326-3.326a1 1 0 1 0-1.414-1.414l-3.327 3.326a6.392 6.392 0 1 1-9.04-9.04l4.752-4.752a6.4 6.4 0 0 1 2.074-1.385" clip-rule="evenodd"/></svg>