<svg xmlns="http://www.w3.org/2000/svg" width="32" height="32" fill="none" viewBox="0 0 32 32"><path fill="#111827" fill-rule="evenodd" d="M0 31.333s5.333-9.333 5.333-20a10.667 10.667 0 0 1 21.334 0c0 10.667 5.333 20 5.333 20zm11.333-16a2 2 0 1 0 0-4 2 2 0 0 0 0 4m11.334-2a2 2 0 1 1-4 0 2 2 0 0 1 4 0M9.772 18.886a1 1 0 0 1 1.342-.447L16 20.882l4.886-2.443a1 1 0 1 1 .895 1.789l-5.334 2.666a1 1 0 0 1-.894 0l-5.334-2.666a1 1 0 0 1-.447-1.342m3.18 10.176c.965-.625 2.015-.929 3.048-.929s2.083.304 3.048.929a7 7 0 0 1 2.16 2.265h2.743c-.012-.023-.056-.133-.1-.245a6 6 0 0 0-.11-.27 9.3 9.3 0 0 0-3.124-3.427A8.5 8.5 0 0 0 16 26.008c-1.658 0-3.25.491-4.617 1.377a9.3 9.3 0 0 0-3.125 3.43c-.013.024-.063.146-.112.264-.044.11-.087.215-.099.238H10.8a7 7 0 0 1 2.154-2.255" clip-rule="evenodd"/></svg>