<svg xmlns="http://www.w3.org/2000/svg" width="33" height="33" fill="none" viewBox="0 0 33 33"><path fill="#111827" fill-rule="evenodd" d="M20.09 23.293a.5.5 0 0 0 .683.183l3.46-1.998a.5.5 0 0 0 .183-.683l-1.067-1.847a.518.518 0 0 1 .072-.607 9.47 9.47 0 0 0 .613-.747l4.334 3.421v5.867c0 .084.01.165.03.243a2.776 2.776 0 1 0 1.94 0c.02-.078.03-.16.03-.243V20.53a1 1 0 0 0-.38-.785l-4.798-3.787a1.004 1.004 0 0 0-.145-.096c.142-.317.267-.644.374-.978a.519.519 0 0 1 .49-.365h2.13a.5.5 0 0 0 .5-.5v-3.996a.5.5 0 0 0-.5-.5h-2.13a.518.518 0 0 1-.49-.365 9.386 9.386 0 0 0-1.998-3.457.518.518 0 0 1-.071-.606l1.066-1.848a.5.5 0 0 0-.183-.683L20.773.567a.5.5 0 0 0-.683.183l-1.066 1.846a.518.518 0 0 1-.56.241 9.434 9.434 0 0 0-3.995 0 .518.518 0 0 1-.56-.241L12.843.75a.5.5 0 0 0-.683-.183L8.7 2.565a.5.5 0 0 0-.183.683l1.066 1.847c.113.195.08.44-.071.607a9.387 9.387 0 0 0-1.999 3.457.518.518 0 0 1-.49.365h-2.13a.5.5 0 0 0-.5.5v3.996a.5.5 0 0 0 .5.5h2.13c.226 0 .422.15.49.365.11.345.24.682.389 1.009-.032.02-.063.041-.092.065l-4.798 3.787a1 1 0 0 0-.38.785v6.35c0 .085.01.166.03.244a2.776 2.776 0 1 0 1.94 0c.02-.078.03-.16.03-.243v-5.867l4.292-3.388c.184.248.38.486.588.715a.518.518 0 0 1 .071.606l-1.066 1.847a.5.5 0 0 0 .183.683l3.46 1.998a.5.5 0 0 0 .683-.183l1.066-1.845a.518.518 0 0 1 .56-.242 9.37 9.37 0 0 0 1.031.164v4.868c0 .064.006.127.018.188a2.776 2.776 0 1 0 1.964 0c.012-.06.018-.124.018-.188v-4.875c.327-.036.648-.089.964-.157a.518.518 0 0 1 .56.241l1.066 1.846Zm-3.623-5.235a6.037 6.037 0 1 0 0-12.073 6.037 6.037 0 0 0 0 12.073Z" clip-rule="evenodd"/></svg>