<svg width="33" height="33" fill="none" xmlns="http://www.w3.org/2000/svg"><path fill-rule="evenodd" clip-rule="evenodd" d="M15.644 3.283a6 6 0 0 0-6 6v5.105H6.592a1 1 0 0 0-1 1v11.895a1 1 0 0 0 1 1h20.737a1 1 0 0 0 1-1V15.388a1 1 0 0 0-1-1h-3.053V9.283a6 6 0 0 0-6-6h-2.632Zm6.632 11.105V9.283a4 4 0 0 0-4-4h-2.632a4 4 0 0 0-4 4v5.105h10.632Zm-6.527 5.62a1.212 1.212 0 1 1 2.423 0 1.212 1.212 0 0 1-2.424 0Zm1.211-3.211a3.212 3.212 0 0 0-1 6.264v1.813a1 1 0 0 0 2 0v-1.813a3.213 3.213 0 0 0-1-6.264Z" fill="#1C1B1F"/></svg>