<svg xmlns="http://www.w3.org/2000/svg" width="32" height="32" fill="none"><path fill="#111827" fill-rule="evenodd" d="M12.842 0a6 6 0 0 0-6 6v8.054H2.317a1 1 0 0 0-1 1V31a1 1 0 0 0 1 1h27.366a1 1 0 0 0 1-1V15.054a1 1 0 0 0-1-1H8.842V6a4 4 0 0 1 4-4h6.314a4 4 0 0 1 4 4v1.526a1 1 0 0 0 2 0V6a6 6 0 0 0-6-6h-6.314Zm1.298 21.313a1.857 1.857 0 1 1 3.713 0 1.857 1.857 0 0 1-3.713 0Zm5.713 0A3.858 3.858 0 0 1 17 25.038v2.56a1 1 0 0 1-2 0V25.04a3.858 3.858 0 0 1 .996-7.583 3.857 3.857 0 0 1 3.857 3.856Z" clip-rule="evenodd"/></svg>