<svg xmlns="http://www.w3.org/2000/svg" width="32" height="32" fill="none" viewBox="0 0 32 32"><path fill="#111827" fill-rule="evenodd" d="M12.842 0a6 6 0 0 0-6 6v8.053H2.316a1 1 0 0 0-1 1V31a1 1 0 0 0 1 1h27.368a1 1 0 0 0 1-1V15.053a1 1 0 0 0-1-1h-4.527V6a6 6 0 0 0-6-6h-6.315Zm10.315 14.053V6a4 4 0 0 0-4-4h-6.315a4 4 0 0 0-4 4v8.053h14.315Zm-9.014 7.259a1.857 1.857 0 1 1 1.87 1.857h-.027a1.857 1.857 0 0 1-1.843-1.857Zm5.714 0A3.859 3.859 0 0 1 17 25.038v2.558a1 1 0 1 1-2 0v-2.558a3.858 3.858 0 0 1 1-7.583 3.857 3.857 0 0 1 3.857 3.857Z" clip-rule="evenodd"/></svg>