<svg xmlns="http://www.w3.org/2000/svg" width="32" height="32" fill="none" viewBox="0 0 32 32"><path fill="#111827" fill-rule="evenodd" d="M24.351 1.52a1 1 0 0 0-1.414 0L.294 24.163a1 1 0 0 0 0 1.415l4.902 4.902a1 1 0 0 0 1.414 0L29.253 7.837a1 1 0 0 0 0-1.414L24.351 1.52ZM17.65 9.636l5.994-5.994 3.488 3.488-6.135 6.134-3.347-3.628ZM8.27 2.117a1 1 0 0 1 1 1v1.914h1.915a1 1 0 1 1 0 2H9.27v1.914a1 1 0 1 1-2 0V7.031H5.357a1 1 0 0 1 0-2H7.27V3.117a1 1 0 0 1 1-1Zm20.233 13.821a1 1 0 0 0-2 0v2.497h-2.497a1 1 0 1 0 0 2h2.497v2.497a1 1 0 1 0 2 0v-2.497h2.496a1 1 0 1 0 0-2h-2.496v-2.497Zm-7.994 7.16a1 1 0 0 1 1 1v1.33h1.33a1 1 0 1 1 0 2h-1.33v1.332a1 1 0 1 1-2 0v-1.332h-1.331a1 1 0 0 1 0-2h1.331v-1.33a1 1 0 0 1 1-1Z" clip-rule="evenodd"/></svg>