<svg xmlns="http://www.w3.org/2000/svg" width="32" height="33" fill="none" viewBox="0 0 32 33"><path fill="#111827" fill-rule="evenodd" d="M11.958 16.485V1.502H2.36V17.86C2.36 25.393 8.467 31.5 16 31.5s13.64-6.107 13.64-13.64V1.502h-9.545v14.983a4.069 4.069 0 1 1-8.137 0Zm0-6.97H2.36l.001-8.013 9.598-.002v8.015Zm8.142-.006 9.538.006.002-8.013h-9.545L20.1 9.51Z" clip-rule="evenodd"/><path stroke="#111827" stroke-linecap="round" stroke-linejoin="round" stroke-width="2" d="M2.36 1.502h9.598v14.983a4.069 4.069 0 0 0 8.137 0V1.502m-17.735 0V17.86C2.36 25.393 8.467 31.5 16 31.5s13.64-6.107 13.64-13.64V1.502m-27.28 0v8.013h9.598V1.5l-9.598.002Zm27.28 0h-9.545m9.545 0-.002 8.013L20.1 9.51l-.005-8.007"/></svg>