<svg xmlns="http://www.w3.org/2000/svg" width="32" height="32" fill="none"><path fill="#111827" fill-rule="evenodd" d="m20.882 16.039-9.12 9.12L17.606 31l9.956-9.956c4.585-4.586 4.585-12.02 0-16.605-4.585-4.585-12.02-4.585-16.604 0L1 14.395l5.81 5.81 9.119-9.12a3.502 3.502 0 0 1 4.953 4.954ZM16.64 20.28l5.842 5.842L17.605 31l-5.842-5.842 4.877-4.877Zm-4.956-4.956L8.76 12.402 5.87 9.523 1 14.395l5.81 5.81 4.874-4.88Z" clip-rule="evenodd"/><path stroke="#111827" stroke-linecap="round" stroke-linejoin="round" stroke-width="2" d="m11.763 25.158 9.12-9.12a3.502 3.502 0 1 0-4.954-4.952l-9.12 9.119m4.954 4.953L17.605 31m-5.842-5.842 4.877-4.877 5.842 5.842L17.605 31m0 0 9.956-9.956c4.585-4.586 4.585-12.02 0-16.605-4.585-4.585-12.02-4.585-16.604 0L1 14.395m0 0 5.81 5.81M1 14.395l4.87-4.872 2.891 2.88 2.923 2.922-4.874 4.88"/></svg>