<svg xmlns="http://www.w3.org/2000/svg" width="33" height="33" fill="none" viewBox="0 0 33 33"><path fill="#111827" d="M31.857 6.11a.46.46 0 0 0-.31-.11c-.31 0-.71.21-.923.327l-.086.044c-.361.175-.753.274-1.154.29-.41.013-.764.037-1.224.084-2.727.282-3.944 2.372-5.116 4.394-.637 1.1-1.296 2.237-2.2 3.117q-.281.272-.595.505c-.935.698-2.11 1.19-3.027 1.54-.88.337-1.84.64-2.768.932-.849.267-1.652.519-2.39.794a26 26 0 0 1-.864.301c-.671.218-1.157.385-1.864.873-.276.189-.553.393-.742.545a7.8 7.8 0 0 0-1.477 1.557c-.36.54-.776 1.041-1.24 1.494-.149.146-.415.218-.811.218-.466 0-1.03-.096-1.627-.197-.598-.102-1.25-.219-1.796-.219-.444 0-.782.073-1.036.219 0 0-.426.248-.607.57l.177.08q.413.224.756.546.356.33.784.558a.7.7 0 0 1 .245.158c-.076.11-.185.25-.3.4-.629.825-.995 1.345-.785 1.629.101.052.214.078.328.074 1.373 0 2.11-.357 3.044-.809.27-.13.545-.266.872-.403.546-.237 1.133-.615 1.755-1.014.824-.53 1.676-1.077 2.5-1.342a6.8 6.8 0 0 1 2.099-.295c.873 0 1.791.117 2.677.23a34 34 0 0 0 2.015.219c.261.015.502.023.738.023q.47 0 .94-.05l.073-.026c.472-.289.692-.91.905-1.51.137-.386.253-.733.436-.953a.2.2 0 0 1 .036-.03.044.044 0 0 1 .054.01.03.03 0 0 1 0 .017c-.11 2.347-1.055 3.836-2.01 5.16l-.648.68s.892 0 1.4-.196c1.856-.555 3.257-1.777 4.276-3.725q.376-.751.672-1.537c.017-.044.179-.125.162.101 0 .067-.009.14-.014.218 0 .046-.007.093-.009.14-.027.327-.109 1.019-.109 1.019l.573-.307c1.381-.873 2.446-2.633 3.254-5.373.337-1.141.582-2.275.8-3.273.259-1.2.483-2.23.74-2.629.402-.626 1.016-1.05 1.61-1.46q.123-.082.243-.169c.748-.524 1.491-1.13 1.654-2.26v-.024c.124-.843.023-1.052-.086-1.156"/></svg>