<svg xmlns="http://www.w3.org/2000/svg" width="32" height="32" fill="none" viewBox="0 0 32 32"><path fill="#111827" fill-rule="evenodd" d="M.5 6a.5.5 0 0 0-.5.5v19a.5.5 0 0 0 .5.5h31a.5.5 0 0 0 .5-.5v-19a.5.5 0 0 0-.5-.5H.5Zm6.228 4.294a1 1 0 0 0-1.888.46v10.491a1 1 0 1 0 2 0v-6.387l2.01 3.878a1 1 0 0 0 1.768.014l2.165-4.025v6.52a1 1 0 1 0 2 0v-10.49a1 1 0 0 0-1.881-.474l-3.148 5.853-3.026-5.84Zm19.731 5.783-2.674 2.674v-7.918a1 1 0 1 0-2 0v7.919l-2.676-2.675a1 1 0 1 0-1.414 1.414l4.382 4.382a.999.999 0 0 0 1.433-.02l4.363-4.362a1 1 0 0 0-1.414-1.414Z" clip-rule="evenodd"/></svg>