<svg xmlns="http://www.w3.org/2000/svg" width="32" height="32" fill="none"><path fill="#111827" fill-rule="evenodd" d="M23 30.392A15.936 15.936 0 0 1 16 32c-2.51 0-4.886-.578-7-1.608v-6.725h14v6.724Zm2-1.162v-6.563a1 1 0 0 0-1-1h-1.666v-4.334a1 1 0 0 0-1-1h-1.247l-2.383-9.53a1.5 1.5 0 0 0-1.455-1.136h-.498a1.5 1.5 0 0 0-1.456 1.136l-2.382 9.53h-1.246a1 1 0 0 0-1 1v4.334H8a1 1 0 0 0-1 1v6.564C2.775 26.35 0 21.499 0 16 0 7.163 7.163 0 16 0s16 7.163 16 16c0 5.5-2.774 10.35-7 13.23Zm-5.673-10.897h-7.66v3.334h8.667v-3.334h-1.007ZM16 8.231l2.026 8.102h-4.052L16 8.231Z" clip-rule="evenodd"/></svg>