<svg xmlns="http://www.w3.org/2000/svg" width="32" height="32" fill="none"><path fill="#111827" fill-rule="evenodd" d="M1.064.82C.947 2.788.72 7.854 1.12 12.372l.008.098C1.644 18.28 2.86 32 15.453 32c10.418 0 14.718-7.231 15.366-19.628.522-9.968.205-11.92.06-12.303-.026-.071-.093-.082-.164-.057C26.007 1.652 13.97 3.875 1.93.23a.667.667 0 0 0-.866.59Zm7.492 13.31a3.036 3.036 0 0 1 3.506.75 1 1 0 0 0 1.492-1.333 5.038 5.038 0 0 0-7.514 0 1 1 0 0 0 1.492 1.332 3.036 3.036 0 0 1 1.024-.749Zm12.11 0a3.035 3.035 0 0 1 3.507.75 1 1 0 1 0 1.491-1.333 5.037 5.037 0 0 0-7.513 0 1 1 0 1 0 1.492 1.332 3.036 3.036 0 0 1 1.024-.749Zm-10.104 7.604a1 1 0 0 1 1.386-.28 7.057 7.057 0 0 0 7.809 0 1 1 0 0 1 1.106 1.666 9.058 9.058 0 0 1-10.021 0 1 1 0 0 1-.28-1.386Z" clip-rule="evenodd"/></svg>