<svg xmlns="http://www.w3.org/2000/svg" width="32" height="32" fill="none" viewBox="0 0 32 32"><path fill="#111827" fill-rule="evenodd" d="M1.064.82C.947 2.788.72 7.854 1.12 12.372l.008.098C1.644 18.28 2.86 32 15.453 32c10.418 0 14.718-7.231 15.366-19.628.522-9.968.205-11.92.06-12.303-.026-.071-.093-.082-.164-.057C26.007 1.652 13.97 3.875 1.93.23a.667.667 0 0 0-.866.59m6.692 11.833a1 1 0 0 0-1.492 1.332 5.003 5.003 0 0 0 7.463 0 1 1 0 1 0-1.492-1.332 3.003 3.003 0 0 1-4.479 0m12.01 0a1 1 0 0 0-1.493 1.332 5.004 5.004 0 0 0 7.463 0 1 1 0 1 0-1.491-1.332 3.004 3.004 0 0 1-4.48 0m-8.74 10.508a8.99 8.99 0 0 1 9.947 0 1 1 0 1 1-1.106 1.666 6.99 6.99 0 0 0-7.734 0 1 1 0 0 1-1.106-1.666" clip-rule="evenodd"/></svg>