<svg xmlns="http://www.w3.org/2000/svg" width="32" height="32" fill="none" viewBox="0 0 32 32"><path fill="#111827" fill-rule="evenodd" d="M30.343.976a1 1 0 0 1 0 1.414l-3.384 3.384 3.384 3.383a1 1 0 0 1-1.414 1.414l-3.384-3.383-3.383 3.383a1 1 0 1 1-1.414-1.414l3.383-3.383-3.383-3.384A1 1 0 0 1 22.162.976l3.383 3.384L28.93.976a1 1 0 0 1 1.414 0ZM1 4.774a1 1 0 0 0 0 2H11.91a1 1 0 1 0 0-2H1.001Zm5.455 13.635a1 1 0 0 1 1 1v4.454h4.453a1 1 0 0 1 0 2H7.456v4.454a1 1 0 1 1-2 0v-4.454H1.001a1 1 0 1 1 0-2h4.455v-4.454a1 1 0 0 1 1-1Zm12.634 3.738a1 1 0 0 1 1-1H31a1 1 0 0 1 0 2H20.09a1 1 0 0 1-1-1Zm1 4.431a1 1 0 0 0 0 2H31a1 1 0 1 0 0-2H20.09Z" clip-rule="evenodd"/></svg>