<svg xmlns="http://www.w3.org/2000/svg" width="33" height="33" fill="none" viewBox="0 0 33 33"><g clip-path="url(#a)"><path fill="#111827" fill-rule="evenodd" d="M6.206 11.625c-.725 3.722 1.097 15.078 2.1 20.291l-7.747-.168C-.74 20.722.703 6.798 1.587 1.215h7.49c1.165 1.053 5.287 6.63 6.183 8.378.717 1.398 1.363.564 1.596-.028 2.606-4.247 5.22-7.334 6.202-8.347h7.631c1.737 11.205 1.435 25.065 1.067 30.594h-7.688c1.703-7.223 1.997-16.6 1.932-20.385-.316-6.466-5.047 6.217-7.374 13.367h-4.889c-.65-1.651-1.238-3.162-1.773-4.535-3.947-10.132-4.96-12.732-5.758-8.635m8.355 18.453a1.839 1.839 0 1 1-3.677 0 1.839 1.839 0 0 1 3.677 0m4.953 1.838a1.839 1.839 0 1 0 0-3.677 1.839 1.839 0 0 0 0 3.677" clip-rule="evenodd"/></g><defs><clipPath id="a"><path fill="#fff" d="M.04.566h32v32h-32z"/></clipPath></defs></svg>