<svg xmlns="http://www.w3.org/2000/svg" width="33" height="33" fill="none" viewBox="0 0 33 33"><g clip-path="url(#a)"><path fill="#000" d="M4.141 20.208c0-5.238 2.62-10.704 5.694-10.704 1.709 0 3.075 1.024 5.239 4.1-2.05 3.188-3.303 5.124-3.303 5.124-2.733 4.327-3.644 5.238-5.124 5.238-1.48.114-2.506-1.252-2.506-3.758m17.88-1.936-1.937-3.188c-.455-.797-1.024-1.595-1.48-2.278 1.708-2.62 3.075-3.986 4.783-3.986 3.416 0 6.15 5.125 6.15 11.502 0 2.392-.798 3.758-2.392 3.758s-2.164-1.025-5.125-5.808m-4.897-7.743c-2.506-3.303-4.67-4.556-7.175-4.556-5.238 0-9.224 6.947-9.224 14.235 0 4.555 2.164 7.402 5.808 7.402 2.62 0 4.441-1.252 7.858-7.174 0 0 1.366-2.505 2.391-4.213.342.569.683 1.138 1.025 1.822l1.594 2.733c3.075 5.238 4.783 6.946 7.858 6.946 3.53 0 5.466-2.96 5.466-7.63-.114-7.743-4.213-14.12-9.11-14.12-2.62 0-4.67 2.05-6.491 4.554"/></g><defs><clipPath id="a"><path fill="#fff" d="M.725.849h32v32h-32z"/></clipPath></defs></svg>