<svg xmlns="http://www.w3.org/2000/svg" width="32" height="32" fill="none" viewBox="0 0 32 32"><path fill="#111827" fill-rule="evenodd" d="M18 0h10.25a2 2 0 0 1 2 2V30a2 2 0 0 1-2 2H7.75a2 2 0 0 1-2-2v-5.19c0-.02 0-.04.002-.06H2.75a1 1 0 0 1-1-1V8.25a1 1 0 0 1 1-1h3.007a1.009 1.009 0 0 1-.007-.122V2a2 2 0 0 1 2-2H18ZM7.743 7.25H17V2H7.75v5.128c0 .042-.003.082-.007.122ZM19 2v5.25h.5a1 1 0 0 1 1 1V10h7.75V2H19Zm9.25 10H20.5v8h7.75v-8Zm0 10H20.5v1.75a1 1 0 0 1-1 1H19V30h9.25v-8ZM17 30v-5.25H7.748l.002.06V30H17ZM7.712 11.45a1 1 0 0 1 1.4.2l2.013 2.683 2.012-2.683a1 1 0 0 1 1.6 1.2L12.375 16l2.362 3.15a1 1 0 1 1-1.6 1.2l-2.012-2.684-2.013 2.684a1 1 0 1 1-1.6-1.2L9.875 16l-2.363-3.15a1 1 0 0 1 .2-1.4Z" clip-rule="evenodd"/></svg>