<svg xmlns="http://www.w3.org/2000/svg" width="32" height="32" fill="none" viewBox="0 0 32 32"><path fill="#111827" fill-rule="evenodd" d="M18 0h10.25a2 2 0 0 1 2 2v28a2 2 0 0 1-2 2H7.75a2 2 0 0 1-2-2v-5.19q0-.03.002-.06H2.75a1 1 0 0 1-1-1V8.25a1 1 0 0 1 1-1h3.007a1 1 0 0 1-.007-.122V2a2 2 0 0 1 2-2zM7.743 7.25H17V2H7.75v5.128q0 .063-.007.122M19 2v5.25h.5a1 1 0 0 1 1 1V10h7.75V2zm9.25 10H20.5v8h7.75zm0 10H20.5v1.75a1 1 0 0 1-1 1H19V30h9.25zM17 30v-5.25H7.748l.002.06V30zM7.712 11.45a1 1 0 0 1 1.4.2l2.013 2.683 2.012-2.683a1 1 0 0 1 1.6 1.2L12.375 16l2.362 3.15a1 1 0 1 1-1.6 1.2l-2.012-2.684-2.013 2.684a1 1 0 1 1-1.6-1.2L9.875 16l-2.363-3.15a1 1 0 0 1 .2-1.4" clip-rule="evenodd"/></svg>