<svg xmlns="http://www.w3.org/2000/svg" width="32" height="32" fill="none" viewBox="0 0 32 32"><path fill="#111827" fill-rule="evenodd" d="M5.75 2a2 2 0 0 1 2-2h20.5a2 2 0 0 1 2 2v28a2 2 0 0 1-2 2H7.75a2 2 0 0 1-2-2v-5.19q0-.03.002-.06H2.75a1 1 0 0 1-1-1V8.25a1 1 0 0 1 1-1h3.007a1 1 0 0 1-.007-.122zm1.993 5.25H19.5a1 1 0 0 1 1 1V10h7.75V2H7.75v5.128q0 .063-.007.122M20.5 12v8h7.75v-8zm0 10v1.75a1 1 0 0 1-1 1H7.748l.002.06V30h20.5v-8zm-4.682-10.587a1 1 0 0 1 .7 1.228l-1.954 7.145c-.275 1.006-1.665 1.1-2.073.141l-1.495-3.508-1.512 3.5c-.42.972-1.837.847-2.08-.184l-1.681-7.128a1 1 0 1 1 1.946-.46l1.058 4.483 1.265-2.93c.383-.887 1.643-.884 2.022.005l1.303 3.059 1.272-4.65a1 1 0 0 1 1.229-.701" clip-rule="evenodd"/></svg>