<svg xmlns="http://www.w3.org/2000/svg" width="32" height="33" fill="none" viewBox="0 0 32 33"><path fill="#111827" fill-rule="evenodd" d="M14.094.5H16a5.3 5.3 0 0 1 5.3 5.3v9.878l-10.6-11.784A3.394 3.394 0 0 1 14.095.5ZM5.26 3.272a1 1 0 1 0-1.48 1.345l6.922 7.615v5.641a4 4 0 0 0 4 4h4.765l1.498 1.648a8.54 8.54 0 0 1-13.45-5.998 1 1 0 0 0-1.988.222A10.54 10.54 0 0 0 15 27.065V31.5a1 1 0 1 0 2 0v-4.435a10.54 10.54 0 0 0 5.317-2.056l4.424 4.867a1 1 0 1 0 1.48-1.345L5.258 3.271Zm21.215 14.473a1 1 0 0 0-1.988-.222 8.539 8.539 0 0 1-.844 2.86 1 1 0 0 0 1.79.892 10.538 10.538 0 0 0 1.042-3.53Z" clip-rule="evenodd"/></svg>