<svg xmlns="http://www.w3.org/2000/svg" width="33" height="33" fill="none"><path stroke="#1C1B1F" stroke-linecap="round" stroke-linejoin="round" stroke-width="2" d="M20.96 12.283h7M20.96 20.283h7"/><path stroke="#1C1B1F" stroke-linecap="round" stroke-width="2" d="M9.96 9.186V5.283a1 1 0 0 1 1-1h16a1 1 0 0 1 1 1v22a1 1 0 0 1-1 1h-16a1 1 0 0 1-1-1v-3.952"/><path fill="#1C1B1F" fill-rule="evenodd" d="M6.96 9.283a1 1 0 0 0-1 1v12a1 1 0 0 0 1 1h13a1 1 0 0 0 1-1v-12a1 1 0 0 0-1-1h-13Zm11.008 4.366a1 1 0 1 0-1.93-.528l-.866 3.166-.799-1.875c-.378-.89-1.638-.893-2.021-.005l-.755 1.746-.707-2.998a1 1 0 0 0-1.946.46l1.33 5.643c.244 1.031 1.661 1.156 2.081.184l1-2.316.991 2.324c.409.96 1.798.865 2.073-.14l1.549-5.661Z" clip-rule="evenodd"/></svg>