<svg xmlns="http://www.w3.org/2000/svg" width="32" height="32" fill="none" viewBox="0 0 32 32"><path fill="#111827" fill-rule="evenodd" d="M1 0a1 1 0 0 0-1 1v1.875a1 1 0 0 0 2 0V2h.875a1 1 0 1 0 0-2zm5.625 0a1 1 0 0 0 0 2h3.75a1 1 0 1 0 0-2zm7.5 0a1 1 0 1 0 0 2h3.75a1 1 0 0 0 0-2zm7.5 0a1 1 0 1 0 0 2h3.75a1 1 0 1 0 0-2zm7.5 0a1 1 0 1 0 0 2H30v.733a1 1 0 1 0 2 0V1a1 1 0 0 0-1-1zM32 6.197a1 1 0 1 0-2 0v3.465a1 1 0 1 0 2 0zM2 6.625a1 1 0 0 0-2 0v3.75a1 1 0 1 0 2 0zm30 6.502a1 1 0 1 0-2 0v1.732a1 1 0 1 0 2 0zm-30 .998a1 1 0 1 0-2 0v3.75a1 1 0 1 0 2 0zm0 7.5a1 1 0 0 0-2 0v3.75a1 1 0 1 0 2 0zm0 7.5a1 1 0 0 0-2 0V31a1 1 0 0 0 1 1h1.785a1 1 0 1 0 0-2H2zM6.354 30a1 1 0 1 0 0 2h3.57a1 1 0 1 0 0-2zm7.139 0a1 1 0 1 0 0 2h1.784a1 1 0 1 0 0-2zm2.468-14 16.041 4.816-7.625 3.58L20.774 32z" clip-rule="evenodd"/></svg>