<svg xmlns="http://www.w3.org/2000/svg" width="32" height="33" fill="none" viewBox="0 0 32 33"><path fill="#111827" fill-rule="evenodd" d="M27.774 1.5a1 1 0 1 0-2 0v2.72h-2.72a1 1 0 0 0 0 2h2.72v2.72a1 1 0 1 0 2 0V6.22h2.72a1 1 0 1 0 0-2h-2.72V1.5Zm-3.101 26.015c2.397 0 4.34-1.952 4.34-4.361 0-.05 0-.102-.003-.152.003-.029.004-.058.004-.088v-8.727a1 1 0 1 0-2 0v5.294a4.304 4.304 0 0 0-2.341-.688c-2.397 0-4.34 1.952-4.34 4.361s1.943 4.361 4.34 4.361Zm-15.488.623c0 2.41-1.943 4.362-4.34 4.362s-4.34-1.953-4.34-4.361c0-2.41 1.943-4.362 4.34-4.362.857 0 1.657.25 2.33.68v-17.9a1 1 0 0 1 1.029-1L16.378 3.4c.283-.075.57.11.625.398.5 2.597 1.285 4.51 2.765 6.109.271.293.147.788-.24.886L9.174 13.418V27.83c.008.102.011.206.011.31Z" clip-rule="evenodd"/></svg>