<svg xmlns="http://www.w3.org/2000/svg" width="32" height="33" fill="none"><path fill="#111827" fill-rule="evenodd" d="M25.25 25.893c1.14-.48 2.473-.643 4.219-.596-.042-.35-.71-.758-1.17-1.038-.129-.08-.242-.148-.319-.203l-.437-.31c-.568-.404-1.15-.819-1.747-1.179-.253-.153-.626-.283-.97-.403a9.229 9.229 0 0 1-.52-.192 7.99 7.99 0 0 0-.702-.236c-.603-.184-1.297-.396-1.53-.707-.608-.812-1.037-1.787-1.466-2.763-.025-.055-.05-.11-.073-.166-.218-.493-.463-.999-.71-1.508a43.817 43.817 0 0 1-.78-1.668 9.933 9.933 0 0 1-.239-.626 6.6 6.6 0 0 0-.356-.864c-1.6-3.067-3.939-5.638-6.8-7.445-.939-.593-1.973-1.138-3.127-1.489-.348-.106-.734-.123-1.124-.141-.34-.016-.684-.032-1.01-.107h-.447c-.251-.074-.477-.272-.692-.461a3.436 3.436 0 0 0-.35-.284c-.674-.446-1.338-.761-2.134-1.092-.3-.124-1.102-.42-1.39-.198-.169.056-.244.127-.298.298-.168.253-.014.647.1.893.216.47.497.815.785 1.168.136.167.273.336.406.52l.159.22c.335.46.702.967.933 1.468.29.63.496 1.295.701 1.958.192.618.382 1.233.639 1.813.204.463.499.99.794 1.39.085.116.195.222.306.33.2.193.405.391.488.663.215.338-.164 1.323-.402 1.944-.062.16-.114.295-.144.39-.572 1.776-.451 4.262.199 5.806l.058.141c.238.575.494 1.194 1.133 1.348.022-.018.027-.023.034-.027.007-.004.017-.005.065-.022.03-.236.055-.47.08-.702.101-.934.197-1.82.516-2.574.154-.365.395-.659.632-.948.145-.177.288-.352.41-.541.158.09.21.3.26.506.025.101.05.202.087.288l.152.353c.246.577.503 1.178.792 1.732.728 1.399 1.527 2.742 2.432 3.97.32.437.753.91 1.141 1.29.063.063.131.113.199.163.11.08.218.16.297.285h.05v.05c-.428-.147-.75-.478-1.06-.799a4.8 4.8 0 0 0-.528-.492c-.995-.751-2.168-1.864-2.83-2.929l-.893-1.787v-.05c-.079.106-.092.218-.107.35-.009.075-.018.156-.042.247a7.4 7.4 0 0 0-.157.944c-.096.784-.183 1.5-.885 1.785-1.121.457-1.937-.735-2.283-1.29-1.128-1.81-1.421-4.85-.645-7.297.06-.188.1-.392.142-.595.077-.382.154-.763.354-1.043-.033-.256-.183-.39-.334-.525-.075-.068-.15-.136-.212-.22-.298-.406-.558-.885-.794-1.34-.341-.655-.6-1.397-.856-2.128-.094-.27-.188-.538-.286-.8a4.584 4.584 0 0 1-.147-.511c-.053-.213-.104-.422-.2-.63-.205-.446-.537-.891-.847-1.306-.084-.113-.167-.224-.245-.332-.083-.115-.19-.248-.31-.395-.623-.77-1.569-1.937-1.08-3.13.922-2.248 4.116-.538 5.36.249.13.081.265.199.402.318.195.17.396.344.591.426l1.638.1.362.084c.883.205 1.714.397 2.418.81 3.758 2.197 6.184 4.434 8.437 8.14.314.515.528 1.065.747 1.629.11.281.22.566.345.852a63.867 63.867 0 0 0 1.787 3.772c.095.183.181.371.267.559.183.399.364.794.627 1.129.107.136.33.211.541.282.11.036.218.072.302.115.282.142.581.271.883.401.484.21.973.421 1.4.691 1.25.788 2.463 1.734 3.574 2.68.24.205.434.464.627.722.148.198.296.395.465.569v.198l-.858.246-.184.052c-.382.099-.74.136-1.093.173-.359.037-.715.074-1.09.175l-.262.071c-.392.109-.837.232-1.228.276l.05.05c.205.574 1.064 1.078 1.778 1.498.269.158.518.304.703.437.852.611 1.652 1.347 2.283 2.184l.646.645c.069.1.114.215.16.33.051.129.102.258.187.365v.05c-.195-.069-.329-.203-.462-.336-.075-.074-.149-.148-.233-.21-.137-.101-.276-.206-.415-.31-.338-.256-.68-.514-1.024-.732-.423-.268-.88-.477-1.341-.688-.436-.199-.874-.4-1.29-.652a14.742 14.742 0 0 1-1.208-.856l-.181-.137c-.41-.31-.87-.9-1.142-1.34-.06-.096-.098-.2-.137-.303-.054-.143-.107-.283-.21-.392.039-.3.332-.38.613-.457.099-.027.196-.054.28-.09ZM6.389 6.485c.272-.059.53-.105.894-.099.072.07.16.131.248.192.13.09.262.182.347.304.046.068.076.137.105.204.037.086.074.17.143.243.002.53-.14.876-.447 1.092l-.05.05-.496-1.043c-.084-.12-.183-.23-.283-.34-.153-.168-.306-.337-.411-.553h-.05v-.05Z" clip-rule="evenodd"/></svg>