<svg width="33" height="33" fill="none" xmlns="http://www.w3.org/2000/svg"><path fill-rule="evenodd" clip-rule="evenodd" d="M24.031 23.888c.872-.368 1.89-.492 3.225-.456-.032-.267-.543-.58-.894-.793-.098-.06-.185-.113-.244-.155l-.334-.237c-.434-.31-.879-.626-1.335-.902-.194-.116-.479-.216-.742-.308-.145-.05-.284-.099-.397-.147-.14-.059-.331-.117-.537-.18-.46-.14-.992-.302-1.17-.54-.465-.621-.793-1.367-1.12-2.112l-.056-.127c-.167-.378-.354-.764-.542-1.153-.206-.425-.414-.854-.597-1.276a7.629 7.629 0 0 1-.183-.478 5.04 5.04 0 0 0-.272-.66c-1.223-2.345-3.011-4.31-5.198-5.692-.718-.453-1.508-.87-2.39-1.138-.267-.08-.561-.094-.86-.108a4.366 4.366 0 0 1-.772-.081h-.341c-.193-.057-.365-.209-.53-.353-.09-.08-.179-.158-.267-.217-.516-.341-1.023-.582-1.632-.834-.23-.096-.842-.322-1.062-.152-.13.042-.187.097-.228.227-.128.194-.01.495.076.683.165.36.38.624.6.893.104.128.21.257.31.398l.122.167c.256.353.537.74.713 1.123.222.481.38.99.537 1.497.146.472.292.942.488 1.386.156.354.381.757.607 1.063.065.088.149.17.234.251.153.148.31.3.373.508.165.258-.125 1.011-.308 1.485-.047.122-.086.226-.11.298-.437 1.359-.344 3.26.153 4.44.015.035.03.07.044.107.182.44.378.913.866 1.03l.026-.02.05-.017c.022-.18.042-.36.061-.537.078-.714.151-1.391.394-1.968.118-.279.302-.503.484-.725.11-.135.22-.269.313-.413.121.07.16.23.2.387.018.077.037.154.066.22l.115.27c.189.44.385.9.606 1.324.556 1.07 1.167 2.097 1.859 3.035.245.334.575.696.873.987.048.047.1.085.152.123.083.062.166.123.227.218h.038v.038c-.328-.112-.573-.364-.811-.61a3.666 3.666 0 0 0-.403-.376c-.76-.574-1.658-1.425-2.163-2.239l-.683-1.366v-.038c-.06.08-.07.166-.082.267-.007.057-.014.12-.032.188-.06.238-.091.484-.12.723-.073.599-.14 1.146-.677 1.364-.857.35-1.48-.561-1.745-.986-.863-1.384-1.086-3.708-.493-5.578.045-.144.077-.3.108-.455.06-.292.118-.583.271-.797-.025-.196-.14-.299-.255-.402a1.116 1.116 0 0 1-.162-.167 7.914 7.914 0 0 1-.607-1.025c-.261-.501-.46-1.068-.655-1.627-.072-.206-.144-.41-.218-.611-.05-.133-.081-.263-.113-.391a2.62 2.62 0 0 0-.153-.482c-.156-.341-.41-.681-.647-.998a20.504 20.504 0 0 1-.187-.254c-.064-.088-.146-.19-.237-.302-.476-.588-1.2-1.48-.826-2.392.705-1.72 3.146-.412 4.098.19.099.062.202.152.307.243.15.13.302.263.452.326l1.252.076.277.064c.675.157 1.31.304 1.848.619 2.873 1.68 4.727 3.39 6.45 6.222.24.395.403.815.57 1.246.085.215.17.433.265.651.422.965.89 1.967 1.366 2.884.072.14.138.284.204.427.14.305.278.607.479.863.081.104.252.162.414.216.084.028.166.055.23.088.216.108.445.207.675.307.37.16.744.321 1.071.528.955.602 1.882 1.325 2.732 2.049.184.156.332.354.48.551.113.151.226.303.355.435v.152l-.655.187-.142.04c-.292.076-.565.104-.835.132-.275.029-.547.057-.835.134l-.2.055c-.299.083-.639.177-.938.21l.038.039c.157.439.813.824 1.36 1.145.205.12.395.233.537.334.65.467 1.263 1.03 1.745 1.67l.494.493c.052.076.087.164.122.252.04.099.079.197.143.28v.037c-.148-.052-.251-.155-.353-.256-.057-.057-.114-.114-.178-.161-.105-.077-.21-.157-.317-.237-.259-.196-.52-.393-.783-.56-.323-.205-.673-.364-1.025-.525-.333-.152-.669-.306-.986-.5-.318-.193-.625-.426-.924-.653l-.139-.105c-.313-.237-.664-.688-.872-1.025a1.316 1.316 0 0 1-.105-.23.845.845 0 0 0-.16-.3c.03-.23.253-.292.468-.35.076-.02.15-.041.214-.068ZM9.613 9.052c.208-.045.405-.08.683-.076.055.054.123.1.19.147.1.069.2.139.265.232.036.052.059.104.08.156.03.066.057.13.11.186.001.404-.107.67-.341.835l-.038.038-.38-.797c-.065-.093-.14-.176-.216-.26-.117-.129-.235-.258-.315-.423h-.038v-.038Z" fill="#1C1B1F"/></svg>