<svg xmlns="http://www.w3.org/2000/svg" width="32" height="33" fill="none" viewBox="0 0 32 33"><path fill="#111827" fill-rule="evenodd" d="M17.87 7.01c-.95 3.566-4.977 12.425-13.797 21.655A93.644 93.644 0 0 0 1.218 31.5a77.066 77.066 0 0 0 2.855-2.835c5.708-5.443 14.851-12.986 20.765-13.82a.092.092 0 0 0 .053-.026l4.517-4.518a4.687 4.687 0 0 0 0-6.629l-.799-.8a4.687 4.687 0 0 0-6.633.005L17.895 6.97a.09.09 0 0 0-.024.04Zm9.36.883a1.875 1.875 0 0 0-2.652-2.651L21.86 7.96a1.875 1.875 0 0 0 2.652 2.651l2.719-2.719Z" clip-rule="evenodd"/><path stroke="#111827" stroke-linecap="round" stroke-linejoin="round" stroke-width="2" d="M4.073 28.665c8.82-9.23 12.846-18.089 13.798-21.655a.09.09 0 0 1 .024-.041l4.081-4.092a4.687 4.687 0 0 1 6.633-.004l.8.8a4.687 4.687 0 0 1 0 6.628L24.89 14.82a.092.092 0 0 1-.053.026c-5.914.834-15.057 8.377-20.765 13.82Zm0 0A93.644 93.644 0 0 0 1.218 31.5a77.066 77.066 0 0 0 2.855-2.835ZM27.23 5.242c.732.732.732 1.919 0 2.651l-2.72 2.72a1.875 1.875 0 1 1-2.65-2.652l2.718-2.72a1.875 1.875 0 0 1 2.652 0Z"/></svg>