<svg xmlns="http://www.w3.org/2000/svg" width="33" height="32" fill="none" viewBox="0 0 33 32"><g clip-path="url(#a)"><path fill="#111827" d="M18.887 4.534c-.583-.916-.396-1.52-.075-2.145.288-.558.405-1.529-.611-2.293.936-.344 2.412.265 2.438 1.38-.543.748-2.027 1.045-1.752 3.058Zm6.719 20.596c-.454 1.473-.247 2.256-2.223 5.314 3.494-2.358 5.142-5.403 5.686-8.86.341 1.442.374 2.749.24 3.984 2.895-3.812 4.878-11.498-1.794-19.224-.268 3.415-3.571 6.104-7.38 5.05 6.53-.72 6.95-9.025 1.339-10.942.11 2.31-3.043 1.553-2.116 4.644-3.211-1.816-10.226-2.19-13.015.566-1.438 1.421-2.42 2.596-4.216 2.674-1.484.064-3.443 2.471-.894 3.703.244 1.026 1.1 1.61 1.595 1.71-.123 1.827.266.896.835.1-.191 2.31.124 1.477 1.017.289 7.551-1.527 11.722 4.631 11.769 8.413-.033-.686-1.13-1.484-1.711-1.264-.392.83-.82 1.536-1.347 1.884a5.919 5.919 0 0 0-.083-1.653c-.174.667-.501 1.358-1.025 2.083-1.04.058-2.498-.716-2.074-2 .598-1.248-.575-1.508-1.52-1.15-.71.268-1.19 1.012-1.255 1.243-.237.834-.16 2.697 1.46 3.932-.424.078-.86.148-1.156.322 2.755 1.667 5.568 1.104 7.134.475 2.564-1.03 4.333-3.88 4.61-6.078.712 3.092-.563 6.529-3.422 8.372.817.086 2.415-.467 4.05-1.05-1.236 1.555-2.713 3.03-5.133 4.19 4.766-.399 8.252-2.792 10.629-6.727Z"/></g><defs><clipPath id="a"><path fill="#fff" d="M.04 0h32v32h-32z"/></clipPath></defs></svg>