<svg xmlns="http://www.w3.org/2000/svg" width="32" height="33" fill="none" viewBox="0 0 32 33"><path fill="#111827" fill-rule="evenodd" d="M.5 2.658h31a.5.5 0 0 1 .5.5v26.43a.5.5 0 0 1-.722.448l-4.276-2.123a.5.5 0 0 0-.434-.005l-5.096 2.384a.5.5 0 0 1-.439-.008l-4.657-2.37a.5.5 0 0 0-.433-.009l-5.28 2.392a.5.5 0 0 1-.427-.006l-4.833-2.376a.5.5 0 0 0-.444.002L.724 30.033A.5.5 0 0 1 0 29.586V3.158a.5.5 0 0 1 .5-.5Zm3.833 8a1 1 0 0 1 1-1h8a1 1 0 0 1 1 1v10.667a1 1 0 0 1-1 1h-8a1 1 0 0 1-1-1V10.658Zm2 1v8.667h6v-8.667h-6Zm12.334.667a1 1 0 0 0 0 2h8a1 1 0 1 0 0-2h-8Zm0 5.333a1 1 0 1 0 0 2h8a1 1 0 1 0 0-2h-8Z" clip-rule="evenodd"/></svg>