<svg xmlns="http://www.w3.org/2000/svg" width="32" height="32" fill="none"><path fill="#111827" d="M16.18 32c-.426 0-.858-.114-1.233-.33l-3.917-2.318c-.585-.33-.299-.444-.108-.508.78-.273.94-.33 1.771-.806.089-.051.203-.032.292.025l3.01 1.784c.108.064.26.064.362 0l11.728-6.769a.376.376 0 0 0 .178-.317V9.223a.378.378 0 0 0-.184-.324L16.357 2.137a.368.368 0 0 0-.362 0L4.28 8.906a.37.37 0 0 0-.185.323v13.532c0 .127.07.254.185.311l3.213 1.854c1.746.87 2.813-.152 2.813-1.187v-13.36c0-.19.152-.337.343-.337h1.485a.34.34 0 0 1 .343.337v13.366c0 2.324-1.27 3.658-3.473 3.658-.68 0-1.213 0-2.699-.737l-3.073-1.771A2.469 2.469 0 0 1 2 22.755V9.223c0-.876.47-1.702 1.232-2.14L14.947.314a2.571 2.571 0 0 1 2.464 0L29.14 7.09a2.47 2.47 0 0 1 1.232 2.14V22.76c0 .876-.47 1.695-1.232 2.14L17.411 31.67c-.375.216-.8.33-1.232.33Zm9.467-13.341c0-2.534-1.715-3.207-5.315-3.683-3.645-.483-4.013-.73-4.013-1.581 0-.705.311-1.645 3.01-1.645 2.406 0 3.295.521 3.664 2.147a.34.34 0 0 0 .33.266h1.524a.332.332 0 0 0 .247-.108.354.354 0 0 0 .09-.26c-.236-2.8-2.096-4.102-5.855-4.102-3.347 0-5.34 1.41-5.34 3.778 0 2.566 1.987 3.277 5.194 3.594 3.841.375 4.14.94 4.14 1.696 0 1.308-1.054 1.866-3.524 1.866-3.105 0-3.785-.78-4.013-2.324a.336.336 0 0 0-.337-.285h-1.518a.335.335 0 0 0-.336.336c0 1.975 1.073 4.33 6.21 4.33 3.708-.006 5.842-1.472 5.842-4.025Z"/></svg>