<svg xmlns="http://www.w3.org/2000/svg" width="33" height="33" fill="none" viewBox="0 0 33 33"><path fill="#111827" fill-rule="evenodd" d="M17.345 2.538a1.44 1.44 0 1 1 0 2.881 1.44 1.44 0 0 1 0-2.881Zm3.44 1.44a3.44 3.44 0 1 0-4.44 3.293v4.296l-3.583 2.005-5.27-5.269a3.44 3.44 0 1 0-1.365 1.464l4.821 4.82-2.24 1.254 8.67 4.743a.5.5 0 0 1 .221.015l8.454-4.719-2.805-1.569 4.544-4.544a3.44 3.44 0 1 0-1.365-1.464l-4.992 4.993-3.09-1.729V7.271a3.442 3.442 0 0 0 2.44-3.293ZM4.403 5.35a1.44 1.44 0 1 0 0 2.88 1.44 1.44 0 0 0 0-2.88Zm12.554 16.144-9.1-4.98v10.422l9.1 5.092V21.494Zm1 .05 8.879-4.955v10.347l-8.879 4.968v-10.36ZM30.96 6.79a1.44 1.44 0 1 0-2.88 0 1.44 1.44 0 0 0 2.88 0Z" clip-rule="evenodd"/></svg>