<svg xmlns="http://www.w3.org/2000/svg" width="32" height="33" fill="none" viewBox="0 0 32 33"><path fill="#111827" fill-rule="evenodd" d="M12.552.936a1 1 0 0 1 1.39-.263l2.721 1.857a1 1 0 0 1 .263 1.39L15.069 6.64a1 1 0 1 1-1.652-1.127l.667-.978c-6.3.926-11.136 6.355-11.136 12.912 0 3.07 1.058 5.888 2.83 8.117a1 1 0 1 1-1.566 1.244 15 15 0 0 1-3.264-9.36c0-7.384 5.316-13.526 12.33-14.807l-.463-.316a1 1 0 0 1-.263-1.39m8.913 3.524a1 1 0 0 1 1.345-.438c4.889 2.484 8.242 7.563 8.242 13.426 0 3.494-1.191 6.712-3.19 9.266a1 1 0 0 1-1.574-1.232 13 13 0 0 0 2.764-8.034c0-5.081-2.904-9.487-7.148-11.643a1 1 0 0 1-.439-1.345M7.028 28.31a1 1 0 0 1 1.394-.233A13 13 0 0 0 16 30.5c2.632 0 5.08-.778 7.128-2.116a1 1 0 1 1 1.094 1.674A15 15 0 0 1 16 32.501a15 15 0 0 1-8.74-2.796 1 1 0 0 1-.232-1.395m3.722-5.564a.525.525 0 0 0-.07-.608 7 7 0 0 1-1.398-2.419.525.525 0 0 0-.492-.364H7.422a.5.5 0 0 1-.5-.5v-2.731a.5.5 0 0 1 .5-.5H8.79c.225 0 .42-.151.492-.365a7 7 0 0 1 1.399-2.418.52.52 0 0 0 .07-.608l-.685-1.186a.5.5 0 0 1 .182-.683l2.365-1.366a.5.5 0 0 1 .683.183l.685 1.186c.112.194.34.288.56.244a7.05 7.05 0 0 1 2.795 0c.22.044.449-.05.561-.244l.684-1.186a.5.5 0 0 1 .684-.183l2.364 1.366a.5.5 0 0 1 .183.683l-.685 1.186a.52.52 0 0 0 .07.609 7 7 0 0 1 1.398 2.417.525.525 0 0 0 .492.365h1.368a.5.5 0 0 1 .5.5v2.73a.5.5 0 0 1-.5.5h-1.368a.525.525 0 0 0-.492.365 7 7 0 0 1-1.398 2.418.52.52 0 0 0-.07.608l.686 1.187a.5.5 0 0 1-.183.683l-2.365 1.366a.5.5 0 0 1-.683-.184l-.684-1.185a.525.525 0 0 0-.562-.244 7.05 7.05 0 0 1-2.795 0 .525.525 0 0 0-.56.244l-.685 1.185a.5.5 0 0 1-.683.183l-2.365-1.365a.5.5 0 0 1-.183-.683zm5.189-1.507a3.75 3.75 0 1 0 0-7.499 3.75 3.75 0 0 0 0 7.499" clip-rule="evenodd"/></svg>