<svg xmlns="http://www.w3.org/2000/svg" width="32" height="32" fill="none" viewBox="0 0 32 32"><path fill="#111827" fill-rule="evenodd" d="M16.782 2.063H2v27.874h28V13.52a1 1 0 1 1 2 0v16.916a1.5 1.5 0 0 1-1.5 1.5h-29a1.5 1.5 0 0 1-1.5-1.5V1.563a1.5 1.5 0 0 1 1.5-1.5h15.282a1 1 0 1 1 0 2M25.684.771a.5.5 0 0 0-.707-.001l-12.82 12.776a.5.5 0 0 0-.145.306l-.542 5.582a.5.5 0 0 0 .497.548h6.091a.5.5 0 0 0 .355-.148L31.17 6.96a.5.5 0 0 0-.002-.705zm1.553 7.804L23.55 4.887a.5.5 0 0 1 0-.707l1.529-1.53a.5.5 0 0 1 .705-.002l3.685 3.645a.5.5 0 0 1 .007.704L27.95 8.57a.5.5 0 0 1-.713.005" clip-rule="evenodd"/></svg>