<svg xmlns="http://www.w3.org/2000/svg" width="33" height="33" fill="none" viewBox="0 0 33 33"><path fill="#111827" fill-rule="evenodd" d="M.04 10.722H32.04v10.262h-3.795v-6.428h-.832v6.428h-2.829v-6.428h-.831v6.428h-8.246v1.728H9.302v-1.728H6.468v-6.428h-.832v6.428H.04V10.722m1 1h8.262v8.262H7.468v-6.428H4.636v6.428H1.04zm9.262 9.262v.728h4.206v-1.728h4.056v-8.262h-8.262v9.262m3.39-7.428h2.832v4.56h-2.831v-4.56m1 1v2.56h.832v-2.56zm4.872 5.428v-8.262H31.04v8.262h-1.795v-6.428h-2.832v6.428h-.829v-6.428h-2.831v6.428z" clip-rule="evenodd"/></svg>