<svg xmlns="http://www.w3.org/2000/svg" width="32" height="32" fill="none" viewBox="0 0 32 32"><path fill="#111827" fill-rule="evenodd" d="M1 0a1 1 0 0 0-1 1v30a1 1 0 0 0 1 1h30a1 1 0 0 0 1-1V1a1 1 0 0 0-1-1zm10.667 16c0-2.04.553-3.84 1.394-5.102C13.907 9.628 14.966 9 16 9s2.093.629 2.94 1.898c.84 1.262 1.393 3.063 1.393 5.102s-.552 3.84-1.394 5.102C18.093 22.372 17.034 23 16 23s-2.093-.629-2.94-1.898c-.84-1.262-1.393-3.063-1.393-5.102M16 7c-1.911 0-3.519 1.162-4.603 2.788-1.09 1.634-1.73 3.833-1.73 6.212s.64 4.578 1.73 6.212C12.48 23.838 14.089 25 16 25s3.519-1.162 4.603-2.788c1.09-1.634 1.73-3.833 1.73-6.212s-.64-4.578-1.73-6.212C19.52 8.162 17.911 7 16 7" clip-rule="evenodd"/></svg>