<svg width="33" height="33" fill="none" xmlns="http://www.w3.org/2000/svg"><path fill-rule="evenodd" clip-rule="evenodd" d="M4.96 5.283a1 1 0 0 1 1-1h22a1 1 0 0 1 1 1v22a1 1 0 0 1-1 1h-22a1 1 0 0 1-1-1v-22Zm12.171 6.008a1.75 1.75 0 1 0-.176 3.492h.01a1.755 1.755 0 0 0 1.348-.64 1.75 1.75 0 0 0 .397-1.11h1l-1-.001a1.742 1.742 0 0 0-.512-1.236 1.75 1.75 0 0 0-1.067-.505Zm2.465 4.409a3.75 3.75 0 1 0-5.273 0 4.25 4.25 0 1 0 5.273 0Zm-2.641 1.083h.01a2.25 2.25 0 0 1 1.586.659 2.242 2.242 0 0 1 .659 1.59l1 .001h-1a2.25 2.25 0 1 1-2.255-2.25Zm3.01-.756-.707.708.707-.707Z" fill="#1C1B1F"/></svg>