<svg xmlns="http://www.w3.org/2000/svg" width="32" height="32" fill="none" viewBox="0 0 32 32"><path fill="#111827" fill-rule="evenodd" d="M0 1a1 1 0 0 1 1-1h30a1 1 0 0 1 1 1v30a1 1 0 0 1-1 1H1a1 1 0 0 1-1-1zm16.261 8.013a2.667 2.667 0 1 0-.268 5.32h.014a2.666 2.666 0 0 0 2.66-2.666h1l-1-.002a2.66 2.66 0 0 0-.78-1.883h-.001a2.67 2.67 0 0 0-1.625-.77m2.729 6.237a4.67 4.67 0 0 0 .31-6.884 4.667 4.667 0 1 0-6.29 6.884 5.334 5.334 0 1 0 5.98 0m-2.997 1.083h.014q.16 0 .32.016a3.33 3.33 0 0 1 2.03.96v.002a3.32 3.32 0 0 1 .976 2.354l1 .002h-1a3.333 3.333 0 1 1-3.34-3.334" clip-rule="evenodd"/></svg>