<svg xmlns="http://www.w3.org/2000/svg" width="32" height="32" fill="none"><path fill="#111827" fill-rule="evenodd" d="M1 0a1 1 0 0 0-1 1v30a1 1 0 0 0 1 1h30a1 1 0 0 0 1-1V1a1 1 0 0 0-1-1H1Zm11.832 10.57a3.346 3.346 0 0 1 6.182 1.776c0 .423-.057.693-.341 1.178l-.002.002c-.007.01-.035.053-.098.142-.068.096-.16.224-.275.38-.228.311-.536.724-.898 1.205-.723.962-1.653 2.186-2.574 3.392a1713.49 1713.49 0 0 1-3.324 4.343l-.229.298-.06.078-.015.02-.004.005v.001h-.001l.793.61-.793-.61a1 1 0 0 0 .793 1.61h8.028a1 1 0 1 0 0-2h-6c.666-.869 1.529-1.996 2.403-3.142.92-1.207 1.854-2.436 2.582-3.403.363-.483.677-.903.912-1.224.216-.295.408-.561.487-.696.458-.782.616-1.4.616-2.19a5.346 5.346 0 0 0-9.875-2.84 1 1 0 0 0 1.694 1.065Z" clip-rule="evenodd"/></svg>