<svg width="33" height="33" fill="none" xmlns="http://www.w3.org/2000/svg"><path d="M21.841 10.866a4.435 4.435 0 0 1-1.43 3.241 5.109 5.109 0 0 1-6.903 0 4.387 4.387 0 0 1 0-6.482 5.11 5.11 0 0 1 6.904 0 4.433 4.433 0 0 1 1.43 3.241v0Z" stroke="#1C1B1F" stroke-width="2" stroke-linecap="round" stroke-linejoin="round"/><path d="M22.729 20.866a5.24 5.24 0 0 1-1.69 3.83 6.038 6.038 0 0 1-8.159 0 5.186 5.186 0 0 1 0-7.66 6.038 6.038 0 0 1 8.16 0 5.24 5.24 0 0 1 1.689 3.83Z" stroke="#1C1B1F" stroke-width="2" stroke-linecap="round" stroke-linejoin="round"/></svg>