<svg xmlns="http://www.w3.org/2000/svg" width="32" height="32" fill="none" viewBox="0 0 32 32"><path fill="#111827" fill-rule="evenodd" d="M16 32c8.837 0 16-7.163 16-16S24.837 0 16 0 0 7.163 0 16s7.163 16 16 16Zm.261-22.987a2.667 2.667 0 1 0-.268 5.32h.014a2.666 2.666 0 0 0 2.66-2.666v-.002a2.658 2.658 0 0 0-.78-1.883h-.001a2.666 2.666 0 0 0-1.625-.77Zm-.268 7.32h.014a3.333 3.333 0 0 1 2.35.976v.002a3.32 3.32 0 0 1 .976 2.354v.002a3.333 3.333 0 1 1-3.34-3.334ZM13.01 15.25a4.666 4.666 0 1 1 5.98 0 5.327 5.327 0 0 1 2.343 4.417 5.333 5.333 0 1 1-8.323-4.417Zm8.323 4.417h-1l1 .001Zm-.666-8h-1l1 .001Z" clip-rule="evenodd"/></svg>