<svg xmlns="http://www.w3.org/2000/svg" width="32" height="32" fill="none" viewBox="0 0 32 32"><path fill="#111827" fill-rule="evenodd" d="M32 16c0 8.837-7.163 16-16 16S0 24.837 0 16 7.163 0 16 0s16 7.163 16 16ZM12.125 7a1 1 0 1 0 0 2h5.844l-3.945 5.718a1 1 0 0 0 .823 1.568c.949 0 1.985.392 2.78 1.047.794.656 1.247 1.485 1.247 2.31a3.357 3.357 0 0 1-5.97 2.107 1 1 0 1 0-1.557 1.256 5.357 5.357 0 0 0 9.527-3.363c0-1.581-.857-2.931-1.975-3.852a6.742 6.742 0 0 0-2.328-1.244l4.126-5.98A1 1 0 0 0 19.874 7h-7.749Z" clip-rule="evenodd"/></svg>