<svg xmlns="http://www.w3.org/2000/svg" width="32" height="32" fill="none" viewBox="0 0 32 32"><path stroke="#111827" stroke-linecap="round" stroke-linejoin="round" stroke-width="2" d="M21.859 9.5a5.32 5.32 0 0 1-1.716 3.89 6.13 6.13 0 0 1-8.285 0 5.266 5.266 0 0 1 0-7.78 6.13 6.13 0 0 1 8.285 0 5.32 5.32 0 0 1 1.716 3.89"/><path stroke="#111827" stroke-linecap="round" stroke-linejoin="round" stroke-width="2" d="M22.923 21.5a6.29 6.29 0 0 1-2.027 4.596 7.246 7.246 0 0 1-9.791 0 6.22 6.22 0 0 1 0-9.192 7.246 7.246 0 0 1 9.79 0 6.29 6.29 0 0 1 2.028 4.596"/></svg>