<svg xmlns="http://www.w3.org/2000/svg" width="32" height="32" fill="none"><path fill="#111827" fill-rule="evenodd" d="M4.354 2.956a3.468 3.468 0 0 1 2.176-.95l6.009 2.901a13.766 13.766 0 0 0-6.61 3.931 3.468 3.468 0 0 1-1.575-5.882Zm.249 7.542A5.467 5.467 0 0 1 6.745 0a1 1 0 0 1 .435.1l18.29 8.829A3.468 3.468 0 0 0 25.255 2a1 1 0 1 1 0-2 5.468 5.468 0 0 1 0 10.935 1 1 0 0 1-.435-.099l-9.045-4.367A11.766 11.766 0 0 0 4.224 18.268l6.163-3.287a.995.995 0 0 1 .052-.028l5.08-2.709a1 1 0 0 1 1.47.883v16.83a11.755 11.755 0 0 0 7.175-3.26 11.765 11.765 0 0 0 3.243-5.618 1 1 0 0 1 1.94.484 13.765 13.765 0 0 1-27.001-1.5 13.767 13.767 0 0 1 2.257-9.564Zm7.28 18.762.084.031c.978.356 1.994.579 3.022.666V14.793l-3.107 1.657v12.81Zm-2-11.743V28.29a11.765 11.765 0 0 1-5.454-7.866l5.453-2.908Zm13.127 3.27a1.915 1.915 0 1 0 0-3.83 1.915 1.915 0 0 0 0 3.83Z" clip-rule="evenodd"/></svg>