<svg xmlns="http://www.w3.org/2000/svg" width="32" height="33" fill="none" viewBox="0 0 32 33"><path fill="#111827" fill-rule="evenodd" d="M10.63.655 10.35.58l-.203.204-5.783 5.784-.205.204.075.279 2.117 7.9.075.278.278.075 7.9 2.117.28.075.204-.204 5.783-5.784.204-.204-.075-.279-2.117-7.9-.074-.278-.28-.075zM5.275 7.071l5.375-5.375 6.784 1.818-5.245 5.245-.207.207.08.281 1.954 6.981-6.774-1.815zm16.28 4.388-.279-.075-.204.204-5.783 5.783-.204.204.075.28 2.117 7.9.074.278.28.075 7.9 2.116.278.075.204-.204 5.783-5.783.205-.204-.075-.28-2.117-7.9-.075-.278-.279-.075zM16.2 17.874l5.375-5.375 6.785 1.818-5.245 5.245-.207.207.079.282 1.955 6.98-6.774-1.814zm-10.01-2.54.28.075 7.9 2.116.278.075.075.279 2.117 7.9.075.279-.204.204-5.784 5.783-.204.204-.279-.075-7.9-2.116-.279-.075-.074-.279-2.117-7.9-.075-.279.204-.204 5.784-5.783zm.3 1.115-5.375 5.375 1.967 7.342 6.774 1.815-1.955-6.98-.079-.282.207-.207 5.245-5.245z" clip-rule="evenodd"/></svg>