<svg xmlns="http://www.w3.org/2000/svg" width="32" height="33" fill="none" viewBox="0 0 32 33"><g clip-path="url(#a)"><path fill="#111827" fill-rule="evenodd" d="M10.433 1.111c.569 0 1.065-.311 1.327-.773l12.162 2.454a1.5 1.5 0 0 0-.004.336L8.745 9.515a1.5 1.5 0 0 0-.457-.329l1.878-8.098q.13.023.267.023M.53 15.603c0 .462-.205.875-.529 1.155l4.911 12.347L6.97 11.936a1.5 1.5 0 0 1-.41-.297l-6.08 3.568q.05.19.051.396m5.397 13.44L7.962 12.06q.151-.033.29-.094l13.042 11.227a1.5 1.5 0 0 0-.015.327l-14.42 6.088a1.52 1.52 0 0 0-.932-.563m15.855-6.75L8.99 11.28a1.5 1.5 0 0 0 .17-.856l15.18-6.39q.128.131.282.23l-1.88 17.639a1.52 1.52 0 0 0-.96.389m1.934-.086L25.604 4.49q.126-.015.245-.048L32 15.486a1.52 1.52 0 0 0-.35 1.492l-7.813 5.33a2 2 0 0 0-.12-.1m.61 1.22c0 .61-.358 1.136-.875 1.38l.614 6.457h.005l7.672-13.139-7.434 5.072q.018.113.017.23m-1.87 1.486a1.52 1.52 0 0 1-.793-.471L7.181 30.557q0 .095-.013.187l15.197 1.484a1.53 1.53 0 0 1 .71-.81zM6.118 10.568c0-.719.498-1.322 1.167-1.483L8.96 1.861.422 14.08l5.705-3.348a2 2 0 0 1-.009-.165" clip-rule="evenodd"/></g><defs><clipPath id="a"><path fill="#fff" d="M0 .283h32v32H0z"/></clipPath></defs></svg>