<svg xmlns="http://www.w3.org/2000/svg" width="32" height="33" fill="none" viewBox="0 0 32 33"><g clip-path="url(#a)"><path fill="#111827" fill-rule="evenodd" d="M10.532 32.4a7.2 7.2 0 0 0 5.422-2.449 7.227 7.227 0 0 0 11.493-8.701 7.23 7.23 0 0 0-4.34-13.751 7.229 7.229 0 0 0-14.342.266 7.227 7.227 0 0 0-4.432 13.688A7.227 7.227 0 0 0 10.532 32.4M16 24.75a7.227 7.227 0 1 0 0-14.454 7.227 7.227 0 0 0 0 14.454" clip-rule="evenodd"/></g><defs><clipPath id="a"><path fill="#fff" d="M0 .849h32v32H0z"/></clipPath></defs></svg>