<svg xmlns="http://www.w3.org/2000/svg" width="32" height="33" fill="none" viewBox="0 0 32 33"><g clip-path="url(#a)"><path fill="#111827" fill-rule="evenodd" d="M32 16.849q0 .736-.065 1.455a.1.1 0 0 1-.1.09H.165a.1.1 0 0 1-.1-.09 16 16 0 0 1 0-2.91.1.1 0 0 1 .1-.09h31.67a.1.1 0 0 1 .1.09q.065.72.065 1.455m-1.87-7.397a.1.1 0 0 1 .09.054c.476.922.866 1.896 1.159 2.912a.1.1 0 0 1-.096.127H.717a.1.1 0 0 1-.095-.127c.292-1.016.682-1.99 1.159-2.912a.1.1 0 0 1 .088-.054zm-1.977-2.759c.084 0 .13-.098.076-.162A15.97 15.97 0 0 0 16 .849 15.97 15.97 0 0 0 3.771 6.53a.099.099 0 0 0 .076.162zM1.869 24.245a.1.1 0 0 1-.088-.054 16 16 0 0 1-1.16-2.91.1.1 0 0 1 .096-.127h30.566a.1.1 0 0 1 .095.126 16 16 0 0 1-1.158 2.911.1.1 0 0 1-.089.054zm1.978 2.76a.099.099 0 0 0-.076.162A15.97 15.97 0 0 0 16 32.849c4.905 0 9.294-2.207 12.229-5.682a.099.099 0 0 0-.076-.163z" clip-rule="evenodd"/></g><defs><clipPath id="a"><path fill="#fff" d="M0 .849h32v32H0z"/></clipPath></defs></svg>