<svg xmlns="http://www.w3.org/2000/svg" width="32" height="32" fill="none"><path fill="#111827" fill-rule="evenodd" d="M3.395 7.054a.5.5 0 0 0 0 .873l12.575 7.017a.39.39 0 0 0 .191.044h.008a.68.68 0 0 0 .347-.074l4.162-2.393a.5.5 0 0 0-.013-.874L7.915 4.79a.5.5 0 0 0-.48.004l-4.04 2.26Zm18.39 7.137a.5.5 0 0 1 .75.433v5.334a1 1 0 1 0 2 0V12.9a.5.5 0 0 1 .25-.433l4.973-2.86a.5.5 0 0 1 .75.434v14.017a.5.5 0 0 1-.256.437l-12.346 6.908a.5.5 0 0 1-.744-.436V17.139a.5.5 0 0 1 .25-.434l4.374-2.514Zm1.954-3.43a.5.5 0 0 1-.486.006L10.546 3.934a.5.5 0 0 1-.008-.877l5.218-2.92a.5.5 0 0 1 .488 0l12.392 6.935a.5.5 0 0 1 .005.87L23.74 10.76Zm-22.246-.753a.5.5 0 0 1 .743-.437l12.67 7.069a.5.5 0 0 1 .255.436v14.07a.5.5 0 0 1-.744.437L1.75 24.493a.5.5 0 0 1-.256-.436v-14.05Z" clip-rule="evenodd"/></svg>