<svg xmlns="http://www.w3.org/2000/svg" width="32" height="32" fill="none" viewBox="0 0 32 32"><path fill="#111827" fill-rule="evenodd" d="M4.672 3.406a.5.5 0 0 0-.5.5v3.87a1.011 1.011 0 0 0-.088-.004H1a1 1 0 1 0 0 2h3.083c.03 0 .059 0 .088-.003v3.82a.5.5 0 0 0 .5.5h21.433a.5.5 0 0 0 .5-.5V9.771H30v5.629a1 1 0 0 1-.69.95l-13.274 4.325A1.5 1.5 0 0 0 15 22.102v5.492a1 1 0 0 0 2 0v-5.129l12.928-4.212A3 3 0 0 0 32 15.401V9.272a1.5 1.5 0 0 0-1.5-1.5h-3.854l-.04.001V3.906a.5.5 0 0 0-.5-.5H4.672Z" clip-rule="evenodd"/></svg>