<svg xmlns="http://www.w3.org/2000/svg" width="32" height="32" fill="none" viewBox="0 0 32 32"><path fill="#111827" fill-rule="evenodd" d="M.294 16.707a1 1 0 0 1 0-1.414l6.903-6.904 4.937 4.937a3.685 3.685 0 1 0 1.414-1.414L8.612 6.974 7.198 8.39 3.076 4.268A1 1 0 1 1 4.49 2.854l4.122 4.121 4.7-4.7a1 1 0 0 1 1.413 0l13.018 13.018a1 1 0 0 1 0 1.414L14.724 29.724a1 1 0 0 1-1.414 0L.294 16.707Zm13.865-2.773a1.685 1.685 0 1 1 2.381 2.386 1.685 1.685 0 0 1-2.381-2.386Zm12.469 13.008c0-2.427 2.196-4.856 2.616-5.299.038-.04.1-.04.139 0 .42.443 2.616 2.872 2.616 5.3a2.685 2.685 0 0 1-5.371 0Z" clip-rule="evenodd"/></svg>