<svg xmlns="http://www.w3.org/2000/svg" width="32" height="32" fill="none" viewBox="0 0 32 32"><path fill="#111827" fill-rule="evenodd" d="M30.812 1.114a3.8 3.8 0 0 0-5.375 0l-8.342 8.342-2.793-2.62a1 1 0 0 0-1.385.015L.375 19.18a1 1 0 0 0-.006 1.42l11.106 11.107a1 1 0 0 0 1.414 0l12.097-12.097a1 1 0 0 0 0-1.414l-2.94-2.94 8.766-8.766a3.8 3.8 0 0 0 0-5.375M9.856 12.664l-7.36 7.234 2.3 2.301 3.724-3.723a1 1 0 0 1 1.414 1.414l-3.723 3.723 2.328 2.329 3.723-3.723a1 1 0 0 1 1.415 1.414l-3.723 3.723 2.228 2.229 7.297-7.297z" clip-rule="evenodd"/></svg>