<svg xmlns="http://www.w3.org/2000/svg" width="32" height="32" fill="none" viewBox="0 0 32 32"><path fill="#111827" fill-rule="evenodd" d="M32 16.204a16.048 16.048 0 0 1-.398 3.696 3.998 3.998 0 0 1-3.9 3.108H20a4 4 0 0 0-4 4v.65a4 4 0 0 1-5.33 3.774A16.003 16.003 0 0 1 15.836.342C24.64.253 31.925 7.399 32 16.204Zm-16-6.53a2 2 0 1 0 0-4 2 2 0 0 0 0 4Zm-7.505 4.334a2 2 0 1 0 0-4 2 2 0 0 0 0 4Zm2 6.666a2 2 0 1 1-4 0 2 2 0 0 1 4 0Zm13.01-6.666a2 2 0 1 0 0-4 2 2 0 0 0 0 4Z" clip-rule="evenodd"/></svg>