<svg xmlns="http://www.w3.org/2000/svg" width="32" height="32" fill="none" viewBox="0 0 32 32"><path fill="#111827" fill-rule="evenodd" d="M5.12 4.51A15.4 15.4 0 0 1 31.41 15.4a1 1 0 0 1-.727.962L17.01 26.56V30h1.4a1 1 0 0 1 0 2h-4.8a1 1 0 0 1 0-2h1.4v-3.382L.997 16.28a1 1 0 0 1-.387-1.001A15.4 15.4 0 0 1 5.12 4.51ZM21.799 16.4h5.487L17.5 23.7l4.299-7.3Zm.192-2h7.381A13.4 13.4 0 0 0 17.287 2.06c3.408 3.357 4.52 8.822 4.704 12.34ZM14.9 2.046C12.8 4.26 10.087 8.593 10.04 14.4H2.646A13.4 13.4 0 0 1 14.9 2.046ZM10.309 16.4l4.369 7.488L4.528 16.4h5.78Z" clip-rule="evenodd"/></svg>