<svg xmlns="http://www.w3.org/2000/svg" width="32" height="32" fill="none" viewBox="0 0 32 32"><path fill="#111827" fill-rule="evenodd" d="M1.23 3.83a1 1 0 0 1 1 1v22.34a1 1 0 1 1-2 0V4.83a1 1 0 0 1 1-1m9.93 6.206a1 1 0 0 1 1 1v3.587l3.406-1.11a1 1 0 1 1 .62 1.902l-3.41 1.11 2.11 2.906a1 1 0 0 1-1.62 1.175l-2.107-2.904-2.107 2.904a1 1 0 1 1-1.619-1.175l2.11-2.906-3.41-1.11a1 1 0 0 1 .62-1.902l3.406 1.11v-3.587a1 1 0 0 1 1-1m15.892 1a1 1 0 1 0-2 0v3.587l-3.406-1.11a1 1 0 1 0-.62 1.902l3.41 1.11-2.11 2.906a1 1 0 0 0 1.62 1.175l2.106-2.904 2.108 2.904a1 1 0 0 0 1.618-1.175l-2.109-2.906 3.41-1.11a1 1 0 0 0-.62-1.902l-3.407 1.11z" clip-rule="evenodd"/></svg>