<svg width="33" height="33" fill="none" xmlns="http://www.w3.org/2000/svg"><path fill-rule="evenodd" clip-rule="evenodd" d="M15.114 8.937a2.308 2.308 0 1 1-4.616 0 2.308 2.308 0 0 1 4.616 0Zm-7.846 7.846a2.308 2.308 0 1 0 0-4.615 2.308 2.308 0 0 0 0 4.615Zm19.384 0a2.308 2.308 0 1 0 0-4.615 2.308 2.308 0 0 0 0 4.615Zm-5.538-5.539a2.308 2.308 0 1 0 0-4.615 2.308 2.308 0 0 0 0 4.616Zm-.162 5.758a5.031 5.031 0 0 0 2.377 3 3.692 3.692 0 0 1-3.196 6.646 8.284 8.284 0 0 0-6.346 0 3.693 3.693 0 0 1-3.196-6.646 5.031 5.031 0 0 0 2.377-3 4.154 4.154 0 0 1 7.984 0Z" fill="#1C1B1F"/></svg>