<svg xmlns="http://www.w3.org/2000/svg" width="32" height="33" fill="none" viewBox="0 0 32 33"><path fill="#111827" fill-rule="evenodd" d="M32 15.408a9.877 9.877 0 0 1-8.5 4.84 9.878 9.878 0 0 1-8.589-4.992H2v-4.892h11.618c0-.685.07-1.354.203-2H1a1 1 0 0 0-1 1v20.77a1 1 0 0 0 1 1h30a1 1 0 0 0 1-1V15.408Zm-11.232 10.11a1 1 0 0 1 1-1h4.616a1 1 0 1 1 0 2h-4.616a1 1 0 0 1-1-1Zm-5.923-1a1 1 0 1 0 0 2h2.308a1 1 0 0 0 0-2h-2.308Z" clip-rule="evenodd"/><path fill="#111827" fill-rule="evenodd" d="M32 10.366a8.5 8.5 0 1 1-17 0 8.5 8.5 0 0 1 17 0Zm-7.5-4.958a1 1 0 1 0-2 0v.417h-.063a2.77 2.77 0 1 0 0 5.542h2.125a.77.77 0 0 1 0 1.541h-3.188a1 1 0 1 0 0 2H22.5v.417a1 1 0 1 0 2 0v-.417h.063a2.771 2.771 0 0 0 0-5.541h-2.125a.771.771 0 0 1 0-1.542h3.187a1 1 0 1 0 0-2H24.5v-.417Z" clip-rule="evenodd"/></svg>