<svg xmlns="http://www.w3.org/2000/svg" width="32" height="32" fill="none" viewBox="0 0 32 32"><path fill="#111827" fill-rule="evenodd" d="M14.987.564a.49.49 0 0 0-.532-.49C6.343.85 0 7.684 0 16c0 2.843.741 5.512 2.041 7.826.142.252.469.32.706.156l12.025-8.355a.5.5 0 0 0 .214-.411zM3.888 25.624a.49.49 0 0 0-.1.715 15.97 15.97 0 0 0 10.667 5.587.49.49 0 0 0 .53-.49V18.87a.5.5 0 0 0-.785-.41zm13.098 5.815c0 .288.243.517.53.49 4.252-.4 8.02-2.464 10.646-5.534a.49.49 0 0 0-.096-.716l-10.294-7.207a.5.5 0 0 0-.787.41zm12.935-7.549a.487.487 0 0 1-.705.153L17.2 15.629a.5.5 0 0 1-.213-.41V.56c0-.288.243-.517.53-.49C25.642.835 32 7.675 32 16c0 2.869-.755 5.562-2.078 7.89" clip-rule="evenodd"/></svg>