<svg xmlns="http://www.w3.org/2000/svg" width="32" height="32" fill="none" viewBox="0 0 32 32"><path fill="#111827" fill-rule="evenodd" d="M14.813 31.967v-5.778a1 1 0 0 1-.017-.179c0-.812-.306-1.581-.836-2.14a2.7 2.7 0 0 0-1.958-.86c-.724 0-1.429.303-1.958.86a3.1 3.1 0 0 0-.836 2.14v4.49a15.9 15.9 0 0 0 5.605 1.467M7.208 29.38C2.866 26.519 0 21.599 0 16.01c0-8.836 7.163-16 16-16s16 7.164 16 16c0 5.587-2.864 10.505-7.203 13.367v-6.574a1 1 0 0 0-.1-.435L16.9 6.241a1 1 0 0 0-1.8 0L7.308 22.329a1 1 0 0 0-.1.436v6.615m15.589 1.119V26.01a3 3 0 0 0-5.993-.206q.009.065.009.133v6.053a15.9 15.9 0 0 0 5.984-1.491M12.002 21.01a4.6 4.6 0 0 0-2.07.49l2.642-5.456h6.844l2.67 5.522a5 5 0 0 0-6.27 1.416 5 5 0 0 0-.407-.489 4.7 4.7 0 0 0-3.409-1.483m6.449-6.966-2.452-5.072-2.457 5.072z" clip-rule="evenodd"/></svg>