<svg xmlns="http://www.w3.org/2000/svg" width="32" height="32" fill="none" viewBox="0 0 32 32"><path fill="#111827" fill-rule="evenodd" d="M21.757 1.274 31 10.518 10.824 30.694 1.58 21.451zm.18.23 9.013 9.014-4.769 4.768-9.013-9.013zM10.753 30.726 1 30.485l.598-8.95z" clip-rule="evenodd"/><path fill="#111827" d="m21.757 1.274.707-.707a1 1 0 0 0-1.414 0zM31 10.518l.707.707a1 1 0 0 0 0-1.414zM10.824 30.694l-.708.707a1 1 0 0 0 1.415 0zM1.58 21.451l-.707-.707a1 1 0 0 0 0 1.414zM21.936 1.504l.707-.707a1 1 0 0 0-1.414 0zm9.014 9.014.707.707a1 1 0 0 0 0-1.415zm-4.769 4.768-.707.707a1 1 0 0 0 1.414 0zm-9.013-9.013-.707-.708a1 1 0 0 0 0 1.415zm-6.414 24.453-.024 1a1 1 0 0 0 .733-1.706zM1 30.485l-.998-.067a1 1 0 0 0 .973 1.067zm.598-8.95.709-.707a1 1 0 0 0-1.706.64zM21.05 1.98l9.243 9.244 1.414-1.414L22.464.567zm9.243 7.83L10.116 29.987l1.415 1.414 20.176-20.176zM11.531 29.987l-9.244-9.243-1.414 1.414 9.243 9.243zm-9.244-7.83L22.464 1.982 21.05.567.873 20.744zM21.23 2.212l9.014 9.014 1.414-1.415L22.643.797zm9.014 7.6-4.769 4.768 1.414 1.414 4.769-4.768zm-3.355 4.768-9.013-9.014L16.46 6.98l9.014 9.013zm-9.013-7.6 4.768-4.768L21.23.797l-4.768 4.768zm-7.096 22.747-9.754-.24-.05 1.999 9.755.24zm-8.781.826.598-8.951-1.995-.133-.599 8.95zM.89 22.24l9.156 9.191 1.417-1.411-9.156-9.192z"/></svg>