<svg xmlns="http://www.w3.org/2000/svg" width="32" height="32" fill="none" viewBox="0 0 32 32"><path fill="#111827" fill-rule="evenodd" d="M1 29.53c0-.774.809-1.4 1.806-1.4h26.245c.998 0 1.806.626 1.806 1.4 0 .772-.808 1.399-1.806 1.399H2.806c-.997 0-1.806-.627-1.806-1.4Z" clip-rule="evenodd"/><path fill="#111827" fill-rule="evenodd" d="M22.044 1.071 31 10.027l-19.55 19.55-8.955-8.956 19.55-19.55Zm.174.223 8.733 8.733-4.62 4.62-8.733-8.733 4.62-4.62ZM11.384 29.607l-9.45-.233.579-8.672 8.871 8.905Z" clip-rule="evenodd"/><path fill="#111827" d="m22.044 1.071.707-.707a1 1 0 0 0-1.414 0l.707.707ZM31 10.027l.707.708a1 1 0 0 0 0-1.415l-.707.707Zm-19.55 19.55-.706.707a1 1 0 0 0 1.414 0l-.707-.707ZM2.496 20.62l-.707-.707a1 1 0 0 0 0 1.414l.707-.707ZM22.218 1.294l.707-.707a1 1 0 0 0-1.414 0l.707.707Zm8.733 8.733.708.708a1 1 0 0 0 0-1.415l-.707.707Zm-4.62 4.62-.707.708a1 1 0 0 0 1.414 0l-.707-.707Zm-8.733-8.733-.707-.707a1 1 0 0 0 0 1.414l.707-.707Zm-6.214 23.693-.024 1a1 1 0 0 0 .733-1.706l-.709.706Zm-9.45-.233-.999-.067a1 1 0 0 0 .973 1.067l.025-1Zm.579-8.672.708-.706a1 1 0 0 0-1.706.639l.998.066ZM21.337 1.777l8.956 8.957 1.414-1.415L22.751.364l-1.414 1.414Zm8.956 7.542-19.55 19.55 1.415 1.414 19.55-19.55-1.415-1.414ZM12.158 28.87l-8.956-8.956-1.414 1.414 8.956 8.956 1.414-1.414Zm-8.956-7.542 19.55-19.55L21.336.364l-19.55 19.55 1.415 1.414ZM21.51 2l8.733 8.734L31.66 9.32 22.925.587 21.511 2Zm8.733 7.32-4.62 4.62 1.414 1.414 4.62-4.62-1.414-1.415Zm-3.206 4.62-8.733-8.734-1.414 1.414 8.733 8.734 1.414-1.414Zm-8.733-7.32 4.62-4.62L21.511.587l-4.62 4.62 1.414 1.414Zm-6.896 21.987-9.451-.234-.05 2 9.452.233.049-2Zm-8.478.833.58-8.673-1.996-.133-.58 8.672 1.996.134Zm-1.127-8.034 8.872 8.906 1.417-1.412-8.872-8.905-1.417 1.411Z"/></svg>