<svg xmlns="http://www.w3.org/2000/svg" width="32" height="32" fill="none"><path stroke="#111827" stroke-linecap="round" stroke-width="2" d="m17.003 6.065 9.122 9.12c.062.063.107.142.13.227l1.286 4.897a.5.5 0 0 1-.13.48l-6.449 6.45"/><path fill="#111827" fill-rule="evenodd" d="M21.756 1.274 31 10.518 10.823 30.695 1.579 21.45 21.756 1.274Zm.01.06 9.183 9.183-4.769 4.77-9.184-9.185 4.77-4.769ZM10.754 30.725 1 30.486l.598-8.952 9.157 9.192Z" clip-rule="evenodd"/><path fill="#111827" d="m31 10.518.707.707a1 1 0 0 0 0-1.415l-.707.708Zm-9.244-9.244.707-.707a1 1 0 0 0-1.414 0l.707.707Zm-10.933 29.42-.707.708a1 1 0 0 0 1.414 0l-.707-.707Zm-9.244-9.243-.707-.707a1 1 0 0 0 0 1.414l.707-.707Zm29.37-10.934.707.708a1 1 0 0 0 0-1.415l-.707.707Zm-9.184-9.184.707-.707a1 1 0 0 0-1.414 0l.707.707Zm4.415 13.953-.707.707a1 1 0 0 0 1.415 0l-.708-.707Zm-9.184-9.184-.707-.707a1 1 0 0 0 0 1.414l.707-.707ZM1 30.485l-.998-.066a1 1 0 0 0 .973 1.066l.025-1Zm9.755.241-.025 1a1 1 0 0 0 .733-1.706l-.708.706Zm-9.157-9.192.709-.705a1 1 0 0 0-1.706.639l.997.066ZM31.708 9.81 22.463.567 21.049 1.98l9.244 9.244 1.414-1.415ZM11.53 31.402l20.177-20.177-1.414-1.415-20.177 20.178 1.414 1.414ZM.872 22.158l9.244 9.244 1.414-1.414-9.244-9.244-1.414 1.414ZM21.05.567.872 20.744l1.414 1.414L22.463 1.981 21.05.567ZM31.656 9.81 22.472.626 21.058 2.04l9.184 9.184 1.414-1.414Zm-4.768 6.183 4.768-4.768-1.414-1.415-4.769 4.769 1.415 1.414ZM16.289 6.81l9.184 9.184 1.415-1.414-9.185-9.184-1.414 1.414ZM21.058.626l-4.769 4.769 1.414 1.414 4.77-4.769L21.057.626ZM.975 31.485l9.755.24.05-1.999-9.755-.24-.05 1.999ZM.601 21.468l-.599 8.95 1.996.134.598-8.95-1.995-.134Zm10.862 8.552L2.307 20.83.89 22.24l9.156 9.192 1.417-1.412Z"/></svg>