<svg xmlns="http://www.w3.org/2000/svg" width="32" height="32" fill="none"><path stroke="#111827" stroke-linecap="round" stroke-width="2" d="m17.003 6.065 9.122 9.12c.062.063.107.142.13.227l1.286 4.897a.5.5 0 0 1-.13.48l-6.449 6.45"/><path fill="#111827" fill-rule="evenodd" d="M21.756 1.274 31 10.518 10.823 30.695 1.579 21.45 21.756 1.274Zm.01.06 9.183 9.183-4.769 4.77-9.184-9.185 4.77-4.769ZM10.754 30.725 1 30.486l.598-8.952 9.157 9.192Z" clip-rule="evenodd"/><path fill="#111827" d="m21.756 1.274.707-.707a1 1 0 0 0-1.414 0l.707.707ZM31 10.518l.707.707a1 1 0 0 0 0-1.415l-.707.708ZM10.823 30.695l-.707.707a1 1 0 0 0 1.414 0l-.707-.707ZM1.579 21.45l-.707-.707a1 1 0 0 0 0 1.414l.707-.707ZM21.765 1.333l.707-.707a1 1 0 0 0-1.414 0l.707.707Zm9.184 9.184.707.708a1 1 0 0 0 0-1.415l-.707.707Zm-4.769 4.77-.707.706a1 1 0 0 0 1.415 0l-.708-.707Zm-9.184-9.185-.707-.707a1 1 0 0 0 0 1.414l.707-.707Zm-6.241 24.624-.025 1a1 1 0 0 0 .733-1.706l-.708.706ZM1 30.486l-.998-.067a1 1 0 0 0 .973 1.066l.025-1Zm.598-8.952.709-.705a1 1 0 0 0-1.706.639l.997.066ZM21.05 1.981l9.244 9.244 1.414-1.415L22.463.567 21.05 1.98Zm9.244 7.83L10.116 29.987l1.414 1.414 20.177-20.177-1.414-1.415ZM11.53 29.987l-9.244-9.244-1.414 1.414 9.244 9.244 1.414-1.414Zm-9.244-7.83L22.463 1.981 21.05.567.872 20.744l1.414 1.414ZM21.058 2.04l9.184 9.184 1.414-1.414L22.472.626 21.058 2.04Zm9.184 7.77-4.769 4.769 1.415 1.414 4.768-4.768-1.414-1.415Zm-3.354 4.769-9.185-9.184-1.414 1.414 9.184 9.184 1.415-1.414Zm-9.185-7.77 4.77-4.769L21.057.626l-4.769 4.769 1.414 1.414ZM10.78 29.726l-9.754-.24-.05 1.999 9.755.24.05-1.999Zm-8.781.826.598-8.95-1.995-.134-.599 8.95 1.996.134ZM.89 22.24l9.156 9.192 1.417-1.412-9.156-9.191L.89 22.24Z"/></svg>