<svg xmlns="http://www.w3.org/2000/svg" width="33" height="33" fill="none"><path fill="#2B2962" d="m8.08 10.699 6.89-2.157a.569.569 0 0 1 .572.14l8.992 8.993c.16.159.21.397.13.606l-2.507 6.524a.57.57 0 0 1-.425.355L5.636 28.227a.569.569 0 0 1-.668-.651l2.72-16.427a.569.569 0 0 1 .392-.45Z"/><path stroke="#1C1B1F" stroke-linecap="round" stroke-linejoin="round" stroke-width="2" d="m8.08 10.699 6.89-2.157a.569.569 0 0 1 .572.14l8.992 8.993c.16.159.21.397.13.606l-2.507 6.524a.57.57 0 0 1-.425.355L5.636 28.227a.569.569 0 0 1-.668-.651l2.72-16.427a.569.569 0 0 1 .392-.45ZM13.499 19.817l-8.066 8.065"/><path stroke="#1C1B1F" stroke-linecap="round" stroke-linejoin="round" stroke-width="2" d="M13.905 19.383a2.397 2.397 0 1 0 3.39-3.39 2.397 2.397 0 0 0-3.39 3.39ZM24.816 17.964l4.144-4.144-9.491-9.492-4.145 4.145"/></svg>