<svg xmlns="http://www.w3.org/2000/svg" width="32" height="33" fill="none" viewBox="0 0 32 33"><path fill="#111827" fill-rule="evenodd" d="M24.06 4.22a3.72 3.72 0 1 1-7.44 0 3.72 3.72 0 0 1 7.44 0Zm-7.357 8.14c-1.802-1.667-3.895-2.235-5.846-2.251-2.088-.017-3.973.602-5.035 1.158a1 1 0 0 1-.928-1.772c1.318-.69 3.524-1.406 5.98-1.386 2.48.02 5.25.797 7.565 3.148 3.836 3.897 9.322 3.724 11.568 3.137a1 1 0 0 1 .506 1.935c-2.372.62-7.784.882-12.148-2.473a25.898 25.898 0 0 1-2.807 6.05c1.463.437 3.362 1.2 5.08 2.507 2.393 1.82 4.423 4.695 4.423 9.087a1 1 0 1 1-2 0c0-3.669-1.654-5.989-3.635-7.495-1.734-1.32-3.727-2.015-5.089-2.363l-.03.04c-2.692 3.437-6.82 6.438-12.666 5.853a1 1 0 1 1 .199-1.99c4.936.493 8.459-1.99 10.892-5.097a19.255 19.255 0 0 0 .413-.547c2.1-2.889 3.218-6.08 3.558-7.542Z" clip-rule="evenodd"/></svg>