<svg xmlns="http://www.w3.org/2000/svg" width="32" height="33" fill="none" viewBox="0 0 32 33"><path fill="#111827" fill-rule="evenodd" d="M12.996 2.5a6.966 6.966 0 0 0-.036 13.933H13.031A6.966 6.966 0 0 0 12.996 2.5ZM4.03 9.467a8.963 8.963 0 0 0 4.579 7.82c-4.253 1.733-7.252 5.908-7.252 10.784a1 1 0 1 0 2 0 9.639 9.639 0 0 1 9.602-9.638h.073a9.6 9.6 0 0 1 6.512 2.565 5.634 5.634 0 0 0 .14 2.825l-5.032 4.996a.318.318 0 0 0-.093.225v3.138c0 .175.143.317.318.317h2.835a.318.318 0 0 0 .318-.317l.116-1.458c0-.176.142-.318.318-.318l1.224-.117a.318.318 0 0 0 .318-.318l.116-1.311c0-.176.143-.318.318-.318l1.703-.117a.318.318 0 0 0 .225-.093l.685-.745a5.608 5.608 0 1 0-2.7-8.334 11.634 11.634 0 0 0-2.97-1.765A8.966 8.966 0 1 0 4.03 9.466Zm22.49 12.141a.953.953 0 1 0 0-1.906.953.953 0 0 0 0 1.906Z" clip-rule="evenodd"/></svg>