<svg xmlns="http://www.w3.org/2000/svg" width="32" height="33" fill="none" viewBox="0 0 32 33"><path fill="#111827" fill-rule="evenodd" d="M19.708 4.225a3.725 3.725 0 1 1-7.45 0 3.725 3.725 0 0 1 7.45 0M5.623 15.723c2.355-.832 5.6-1.661 9.377-1.789V17.5H1.613l.01-.006.045-.026.193-.108c.174-.095.437-.233.781-.4a29 29 0 0 1 2.98-1.237M17 13.934V17.5h13.387H17v2.514q.066.06.125.129l9.28 10.702a1 1 0 0 1-1.51 1.31l-8.908-10.272-9.15 10.282a1 1 0 0 1-1.494-1.33l9.528-10.707q.061-.069.13-.128v-2.5H1.612a1 1 0 0 1-1.029-1.715l.503.838-.502-.838.003-.002.005-.003.018-.01a7 7 0 0 1 .293-.165c.2-.11.49-.262.863-.444.748-.363 1.83-.844 3.19-1.324 2.716-.959 6.556-1.92 11.043-1.92s8.326.961 11.043 1.92c1.36.48 2.442.96 3.19 1.324a21 21 0 0 1 1.156.608l.018.01.005.004.002.001c.001 0 .002.001-.47.787l.472-.786a1 1 0 0 1-1.03 1.715l-.01-.006-.025-.015-.02-.01-.193-.109a19 19 0 0 0-.78-.4 29 29 0 0 0-2.98-1.237c-2.356-.832-5.6-1.661-9.378-1.789" clip-rule="evenodd"/></svg>