<svg xmlns="http://www.w3.org/2000/svg" width="32" height="32" fill="none" viewBox="0 0 32 32"><path fill="#111827" fill-rule="evenodd" d="M9.142 16.114a14.7 14.7 0 0 0 6.804 6.773 1.38 1.38 0 0 0 1.364-.103l4.362-2.909a1.4 1.4 0 0 1 1.322-.121l8.16 3.497a1.39 1.39 0 0 1 .836 1.445A8.364 8.364 0 0 1 23.694 32 23.694 23.694 0 0 1 0 8.306 8.364 8.364 0 0 1 7.304.01a1.39 1.39 0 0 1 1.445.836l3.5 8.167a1.4 1.4 0 0 1-.115 1.312l-2.898 4.429a1.38 1.38 0 0 0-.094 1.36M21.3 2.73a1 1 0 0 1 1-1h8.362a1 1 0 0 1 1 1v8.363a1 1 0 1 1-2 0V5.145l-8.049 8.05A1 1 0 0 1 20.2 11.78l8.05-8.049H22.3a1 1 0 0 1-1-1" clip-rule="evenodd"/></svg>