<svg xmlns="http://www.w3.org/2000/svg" width="32" height="32" fill="none" viewBox="0 0 32 32"><path fill="#111827" fill-rule="evenodd" d="M11.974 11.635a12.24 12.24 0 0 1 8-.018 1.15 1.15 0 0 1 .745.857l.902 4.316a1.16 1.16 0 0 0 .705.841l6.874 2.75a1.16 1.16 0 0 0 1.344-.36 6.97 6.97 0 0 0-.585-9.19 19.74 19.74 0 0 0-27.918 0 6.97 6.97 0 0 0-.585 9.19 1.16 1.16 0 0 0 1.344.36l6.868-2.748a1.16 1.16 0 0 0 .707-.85l.857-4.283a1.15 1.15 0 0 1 .742-.865M3.227 24.951a1 1 0 1 0 0 2h25.547a1 1 0 1 0 0-2z" clip-rule="evenodd"/></svg>