<svg xmlns="http://www.w3.org/2000/svg" width="32" height="32" fill="none" viewBox="0 0 32 32"><path fill="#111827" fill-rule="evenodd" d="M9.142 16.114a14.7 14.7 0 0 0 6.804 6.773 1.38 1.38 0 0 0 1.364-.103l4.362-2.909a1.4 1.4 0 0 1 1.322-.121l8.16 3.497a1.39 1.39 0 0 1 .836 1.445A8.364 8.364 0 0 1 23.694 32 23.694 23.694 0 0 1 0 8.306 8.364 8.364 0 0 1 7.304.01a1.39 1.39 0 0 1 1.445.836l3.5 8.167a1.4 1.4 0 0 1-.115 1.312l-2.898 4.429a1.38 1.38 0 0 0-.094 1.36M20.2 2.024a1 1 0 0 1 1.414 0l3.474 3.474 3.475-3.474a1 1 0 1 1 1.414 1.414l-3.474 3.474 3.474 3.475a1 1 0 0 1-1.414 1.414l-3.475-3.474-3.474 3.474a1 1 0 0 1-1.414-1.414l3.474-3.475L20.2 3.438a1 1 0 0 1 0-1.414" clip-rule="evenodd"/></svg>