<svg xmlns="http://www.w3.org/2000/svg" width="32" height="32" fill="none" viewBox="0 0 32 32"><path fill="#111827" fill-rule="evenodd" d="M3.715 2.486a1 1 0 0 1 1.412.068L28.352 28.1a1 1 0 1 1-1.48 1.345l-13.9-15.289q-.505.129-.998.3a1.15 1.15 0 0 0-.742.865l-.857 4.284a1.16 1.16 0 0 1-.707.85L2.8 23.203a1.16 1.16 0 0 1-1.344-.359 6.97 6.97 0 0 1 .585-9.19 19.7 19.7 0 0 1 6.531-4.337L3.647 3.899a1 1 0 0 1 .068-1.413M23.052 9.17A19.7 19.7 0 0 0 14.915 7.9l13.697 15.067.588.235a1.16 1.16 0 0 0 1.344-.359 6.97 6.97 0 0 0-.585-9.19 19.7 19.7 0 0 0-6.907-4.485" clip-rule="evenodd"/></svg>