<svg width="33" height="33" fill="none" xmlns="http://www.w3.org/2000/svg"><path d="M19.94 13.37a9.183 9.183 0 0 0-6 .014.864.864 0 0 0-.556.649l-.643 3.212a.872.872 0 0 1-.53.638l-5.15 2.06a.868.868 0 0 1-1.009-.269 5.226 5.226 0 0 1 .439-6.893 14.806 14.806 0 0 1 20.938 0 5.226 5.226 0 0 1 .439 6.893.868.868 0 0 1-1.008.27l-5.155-2.063a.871.871 0 0 1-.53-.63l-.676-3.238a.865.865 0 0 0-.56-.642Z" fill="#1C1B1F"/><path d="M7.38 24.121h19.16" stroke="#1C1B1F" stroke-width="2" stroke-linecap="round" stroke-linejoin="round"/></svg>