<svg xmlns="http://www.w3.org/2000/svg" width="32" height="32" fill="none" viewBox="0 0 32 32"><path fill="#111827" fill-rule="evenodd" d="M15.946 22.887a14.695 14.695 0 0 1-6.804-6.773 1.382 1.382 0 0 1 .094-1.36l2.898-4.429a1.394 1.394 0 0 0 .115-1.312L8.75.846A1.39 1.39 0 0 0 7.304.01 8.364 8.364 0 0 0 0 8.306 23.694 23.694 0 0 0 23.694 32a8.364 8.364 0 0 0 8.296-7.304 1.389 1.389 0 0 0-.836-1.445l-8.16-3.497a1.393 1.393 0 0 0-1.322.121l-4.362 2.909a1.38 1.38 0 0 1-1.364.103Zm3.893-21.81a1 1 0 0 1 1.225-.705 14.963 14.963 0 0 1 10.564 10.563 1 1 0 1 1-1.931.52 12.964 12.964 0 0 0-9.152-9.152 1 1 0 0 1-.706-1.225Zm-1.443 5.387a1 1 0 0 1 1.225-.706 9.378 9.378 0 0 1 6.62 6.62 1 1 0 0 1-1.93.52A7.377 7.377 0 0 0 19.1 7.69a1 1 0 0 1-.705-1.226Z" clip-rule="evenodd"/></svg>