<svg xmlns="http://www.w3.org/2000/svg" width="32" height="33" fill="none"><path fill="#111827" d="M.258 24.209h2.508a.224.224 0 0 0 .224-.192l.559-2.907h1.95c.815.02 1.63-.088 2.412-.32a4.457 4.457 0 0 0 1.693-1.023 5.08 5.08 0 0 0 1.07-1.357c.274-.5.468-1.039.576-1.598a3.883 3.883 0 0 0-.655-3.45 4.218 4.218 0 0 0-3.34-1.247H2.464a.256.256 0 0 0-.24.208L.018 23.92a.304.304 0 0 0 0 .208.27.27 0 0 0 .24.08Zm4.553-9.841H6.41a2.318 2.318 0 0 1 1.725.463c.272.287.32.83.176 1.598a2.891 2.891 0 0 1-.91 1.789c-.633.4-1.379.585-2.126.527H3.996l.815-4.377Zm15.657-1.518a4.313 4.313 0 0 0-3.004-.815h-1.9l.526-2.812a.24.24 0 0 0 0-.207.256.256 0 0 0-.175 0h-2.509a.224.224 0 0 0-.223.191l-2.205 11.615a.207.207 0 0 0 0 .192.208.208 0 0 0 .176.096h2.46a.224.224 0 0 0 .224-.208l1.23-6.503h1.773c.72 0 .975.16 1.055.256a1.293 1.293 0 0 1 0 .99l-.975 5.177a.207.207 0 0 0 0 .192.224.224 0 0 0 .176.096h2.492a.256.256 0 0 0 .24-.208l1.022-5.432a2.716 2.716 0 0 0-.383-2.62Zm7.221-.815h-5a.225.225 0 0 0-.24.208L20.116 23.92a.256.256 0 0 0 0 .208.224.224 0 0 0 .176.08h2.604a.224.224 0 0 0 .24-.192l.59-2.907h2.03a8.437 8.437 0 0 0 2.492-.32 4.791 4.791 0 0 0 1.885-1.023 5.286 5.286 0 0 0 1.119-1.357 5.508 5.508 0 0 0 .59-1.598 3.802 3.802 0 0 0-.67-3.45 4.49 4.49 0 0 0-3.483-1.327Zm.99 4.425a2.924 2.924 0 0 1-.958 1.79 3.643 3.643 0 0 1-2.189.527h-1.278l.863-4.41h1.598a2.556 2.556 0 0 1 1.805.464c.255.287.255.83.16 1.63Z"/></svg>