<svg xmlns="http://www.w3.org/2000/svg" width="32" height="33" fill="none" viewBox="0 0 32 33"><path fill="#111827" fill-rule="evenodd" d="M2.652 3.527a2 2 0 0 0 2 2h22.696a2 2 0 0 0 2-2V.498H2.652v3.029Zm4.23 2.941a4.23 4.23 0 0 0-4.23 4.23v17.57a4.23 4.23 0 0 0 8.46 0v-17.57a4.23 4.23 0 0 0-4.23-4.23Zm18.236 14.118a4.23 4.23 0 0 0-4.23 4.23v3.453a4.23 4.23 0 1 0 8.46 0v-3.453a4.23 4.23 0 0 0-4.23-4.23Zm-4.23-9.888a4.23 4.23 0 1 1 8.46 0v4.717a4.23 4.23 0 0 1-8.46 0v-4.717ZM16 6.468a3.947 3.947 0 0 0-3.947 3.948v8.799a3.947 3.947 0 1 0 7.894 0v-8.8A3.947 3.947 0 0 0 16 6.469Zm-3.947 21.583a3.947 3.947 0 1 1 7.894 0v.5a3.947 3.947 0 1 1-7.894 0v-.5Z" clip-rule="evenodd"/></svg>