<svg xmlns="http://www.w3.org/2000/svg" width="33" height="33" fill="none" viewBox="0 0 33 33"><path fill="#111827" fill-rule="evenodd" d="m14.92 5.512 2.696-1.58-.648 3.73 1.97.342.648-3.724 2.025 2.428 1.536-1.28L19.74 1.34a1 1 0 0 0-1.273-.222l-4.557 2.668zm-1.693 9.649 2.697-1.58-.649 3.73 1.97.342.649-3.724 2.025 2.428 1.535-1.28-3.407-4.088a1 1 0 0 0-1.274-.223l-4.556 2.669zm1.126 7.421-2.697 1.58-1.01-1.727 4.556-2.668a1 1 0 0 1 1.273.223l3.408 4.087-1.536 1.28-2.025-2.428-.648 3.725-1.97-.343zm8.94-1.355 3.706.746-2.48 1.96 1.239 1.57 4.176-3.3a1 1 0 0 0 .251-1.274l-2.542-4.618-1.752.965 1.507 2.737-3.71-.746zm-1.735 8.804-2.195-3.078 1.628-1.161 2.198 3.08.77-3.028 1.939.493-1.299 5.103a1 1 0 0 1-.642.712 1 1 0 0 1-.414.052l-5.303-.445.167-1.993zm-11.274-1.889-3.016-.816 3.114-2.151-1.137-1.646-3.11 2.148.313-3.146-1.99-.198-.527 5.296a1 1 0 0 0 .734 1.064l5.096 1.38zM4.756 17.935l1.654 2.651-1.696 1.06-2.796-4.48a1 1 0 0 1 .187-1.28l3.99-3.521 1.323 1.499-2.37 2.092 3.74.543-.286 1.98zm3.605-5.923.508-3.083 2.454 2.882 1.523-1.297-2.45-2.878 3.161-.006-.003-2-5.322.01a1 1 0 0 0-.985.837l-.86 5.21zm16.909-1.838-2.892-1.186.759-1.85 4.886 2.002a1 1 0 0 1 .595 1.147l-1.18 5.19-1.95-.444.701-3.083-3.354 1.745-.923-1.774zM13.824 32.98a1.846 1.846 0 1 0 0-3.693 1.846 1.846 0 0 0 0 3.692" clip-rule="evenodd"/></svg>