<svg xmlns="http://www.w3.org/2000/svg" width="32" height="32" fill="none"><path fill="#111827" fill-rule="evenodd" d="M11.156.471a.04.04 0 0 1 .026-.05 8.024 8.024 0 0 1 10.162 5.05l.09.266a8.022 8.022 0 0 1-1.692 7.98l11.093-3.776a.04.04 0 0 1 .05.025 8.025 8.025 0 0 1-5.01 10.182l-.265.09a7.997 7.997 0 0 1-5.951-.31l10.365 10.365a1 1 0 0 1-1.414 1.414L17.524 20.62l3.12 9.28a.04.04 0 0 1-.024.05 8.024 8.024 0 0 1-10.164-5.048l-.09-.265a8.025 8.025 0 0 1 2.069-8.368L1.161 20.086a.04.04 0 0 1-.05-.026A8.025 8.025 0 0 1 6.138 9.887l.265-.09a8.027 8.027 0 0 1 8.696 2.41L11.156.472Z" clip-rule="evenodd"/></svg>