<svg xmlns="http://www.w3.org/2000/svg" width="32" height="32" fill="none" viewBox="0 0 32 32"><path fill="#111827" fill-rule="evenodd" d="M.023 6.518c-.06.305-.001.621.165.884l5.434 8.538.513.808 2.194 3.447-.003-.001 1.368 2.153H9.7l5.28 8.298a1.21 1.21 0 0 0 2.042 0l3.916-6.154.007.003 1.123-1.768-.006-.001 3.22-5.062.003.003 1.123-1.766-.002-.002 5.407-8.496a1.214 1.214 0 0 0-.323-1.639 26.63 26.63 0 0 0-30.978 0c-.254.18-.428.45-.488.755m26.382 9.38a5.233 5.233 0 1 0-5.468 8.593l1.124-1.766a3.234 3.234 0 1 1 3.22-5.062zM9.7 22.347a5.234 5.234 0 1 0-4.933-7.754l.856 1.347.513.807a3.234 3.234 0 1 1 2.194 3.448zM16 6.293c-4.933 0-9.73 1.534-13.735 4.366L1.19 8.97a25.79 25.79 0 0 1 29.62.002l-1.074 1.69A23.8 23.8 0 0 0 16 6.293" clip-rule="evenodd"/></svg>