<svg xmlns="http://www.w3.org/2000/svg" width="32" height="33" fill="none"><path fill="#111827" fill-rule="evenodd" d="M16 28.032c6.37 0 11.533-5.163 11.533-11.532 0-.108-.002-.215-.005-.322-1.941 2.045-4.798 4.243-8.155 6.184-3.343 1.934-6.657 3.312-9.388 3.98A11.478 11.478 0 0 0 16 28.032ZM26.866 13.25l.153-.162a11.521 11.521 0 0 0-2.593-4.462c1.42-.34 2.609-.474 3.508-.421 1.097.063 1.443.373 1.535.526.073.13.167.5-.189 1.313-.346.793-1.2 1.91-2.23 3.029l.54 3.084 1.44-1.546c1.126-1.22 2.007-2.44 2.506-3.581.487-1.114.711-2.408.064-3.531l-.004-.008c-.724-1.237-2.15-1.664-3.518-1.744-1.423-.083-3.157.178-5.038.694l-1.005.23A11.479 11.479 0 0 0 16 4.968C9.631 4.968 4.468 10.13 4.468 16.5c0 .152.003.303.009.453a65.42 65.42 0 0 0-.232.2c-.198.172-.378.329-.486.412-1.386 1.372-2.477 2.745-3.115 4.018-.614 1.223-.96 2.674-.244 3.918l.003.005c.651 1.12 1.884 1.573 3.093 1.709 1.24.138 2.736-.016 4.356-.38.483-.09 1.583-.308 2.12-.453l-2.47-2.003c-1.483.334-2.872.486-3.732.39-.885-.1-1.16-.367-1.238-.498-.083-.148-.183-.597.312-1.584.404-.807 1.114-1.771 2.12-2.833a11.52 11.52 0 0 0 2.598 4.507l.243-.052v-.002l1.201-.265c2.502-.552 5.76-1.859 9.135-3.81 3.4-1.967 6.175-4.162 7.9-6.069l.817-.904.008-.009Z" clip-rule="evenodd"/></svg>