<svg xmlns="http://www.w3.org/2000/svg" width="32" height="33" fill="none" viewBox="0 0 32 33"><path fill="#111827" fill-rule="evenodd" d="M7.166 4.022c1.729-1.689 3.816-2.74 6.293-3.17 1.164-.207 3.474-.168 4.493.063 1.936.455 3.729 1.355 5.354 2.701C24.74 4.803 26.142 6.834 26.54 8.3c.128.494.136.614.048 1.052a4.653 4.653 0 0 1-.279.852c-.335.725-1.171 1.378-1.952 1.53-.167.032-2.318.063-4.771.063l-4.462.008-.478.192c-.653.262-1.378.988-1.64 1.64l-.192.479.024 4.899c.024 4.652.016 4.947-.135 5.84-.184 1.05-.446 1.895-.813 2.628-1.45 2.876-4.11 4.772-7.241 5.154-.367.04-.773.08-.9.08h-.224l.024-10.778.024-10.77.183-.861c.534-2.526 1.634-4.549 3.41-6.286Zm20.39 6.292c.088-.438.08-.558-.048-1.052.344.78 1.017 2.75.964 4.406 0 6.622-5.367 11.99-11.989 11.99-.943 0-1.86-.11-2.741-.315.082-.684.084-1.59.064-5.366l-.024-4.9.192-.477c.262-.653.987-1.378 1.64-1.641l.479-.191 4.46-.008c2.454 0 4.605-.032 4.773-.064.78-.151 1.617-.805 1.951-1.53.096-.199.223-.59.28-.852Z" clip-rule="evenodd"/></svg>