<svg width="33" height="33" fill="none" xmlns="http://www.w3.org/2000/svg"><path d="M19.874 25.903a3.016 3.016 0 1 0 0-6.032 3.016 3.016 0 0 0 0 6.032Z" fill="#1C1B1F" stroke="#1C1B1F" stroke-width="2" stroke-linecap="round" stroke-linejoin="round"/><path fill-rule="evenodd" clip-rule="evenodd" d="M4.96 6.663a1 1 0 1 0 0 2h21.12a1 1 0 1 0 0-2H4.96Zm0 7.68a1 1 0 1 0 0 2h13.4a1 1 0 1 0 0-2H4.96Zm-1 8.68a1 1 0 0 1 1-1h7.64a1 1 0 0 1 0 2H4.96a1 1 0 0 1-1-1Zm19.227-11.97a1 1 0 0 0-1.297.955v10.996a1 1 0 0 0 2 0v-9.638l4.773 1.484a1 1 0 0 0 .594-1.91l-6.07-1.887Z" fill="#1C1B1F"/></svg>