<svg xmlns="http://www.w3.org/2000/svg" width="32" height="33" fill="none" viewBox="0 0 32 33"><path fill="#111827" fill-rule="evenodd" d="M16 .5c-.351 0-.7.012-1.046.034l.129 1.996a14.228 14.228 0 0 1 1.472-.018c3.319.129 6.34 1.413 8.675 3.462.46.404.892.836 1.296 1.296a13.943 13.943 0 0 1 3.462 9.79 13.942 13.942 0 0 1-3.462 8.67c-.404.46-.837.892-1.296 1.295A13.942 13.942 0 0 1 16 30.5c-.308 0-.614-.01-.917-.03l-.13 1.996a16.2 16.2 0 0 0 1.678.022 15.934 15.934 0 0 0 9.918-3.959 16.1 16.1 0 0 0 1.48-1.479 15.934 15.934 0 0 0 3.958-11.177 15.934 15.934 0 0 0-3.958-9.921 16.101 16.101 0 0 0-1.48-1.48A15.938 15.938 0 0 0 16 .501ZM12.88.806c-.692.137-1.367.318-2.023.541l.642 1.894a13.887 13.887 0 0 1 1.769-.473L12.879.805ZM8.922 2.148c-.629.31-1.234.661-1.812 1.048l1.113 1.662a13.981 13.981 0 0 1 1.585-.917l-.886-1.793ZM5.45 4.471c-.525.46-1.02.955-1.48 1.48L5.475 7.27c.403-.46.836-.892 1.295-1.296L5.45 4.471ZM2.696 7.61A15.985 15.985 0 0 0 1.648 9.42l1.793.886c.272-.55.578-1.078.917-1.585L2.696 7.61Zm-1.85 3.745a15.885 15.885 0 0 0-.54 2.024l1.961.388c.12-.605.279-1.195.473-1.769l-1.894-.643Zm-.811 4.098a16.227 16.227 0 0 0 0 2.093l1.996-.129a14.228 14.228 0 0 1 0-1.835l-1.996-.129Zm.27 4.168c.137.692.319 1.367.541 2.023l1.894-.642a13.884 13.884 0 0 1-.473-1.769l-1.962.388Zm1.343 3.957c.31.629.661 1.234 1.048 1.812l1.662-1.113a13.984 13.984 0 0 1-.917-1.585l-1.793.886Zm2.323 3.471c.46.525.955 1.019 1.48 1.48l1.319-1.504c-.46-.403-.892-.836-1.295-1.295L3.97 27.05Zm3.139 2.755c.578.387 1.183.737 1.812 1.048l.886-1.793a13.995 13.995 0 0 1-1.585-.917L7.11 29.804Zm3.746 1.85c.656.222 1.331.404 2.023.54l.388-1.962a13.902 13.902 0 0 1-1.769-.472l-.642 1.894Zm11.583-14.73a.5.5 0 0 0 0-.849l-10.626-6.6a.5.5 0 0 0-.764.424V23.1a.5.5 0 0 0 .764.425l10.626-6.6Z" clip-rule="evenodd"/></svg>