<svg xmlns="http://www.w3.org/2000/svg" width="32" height="32" fill="none"><path fill="#111827" fill-rule="evenodd" d="M11.95.685a1 1 0 0 0-1.898.632l1.25 3.75a1 1 0 0 0 1.897-.632L11.95.685Zm-11.897 10a1 1 0 0 1 1.265-.633l3.75 1.25a1 1 0 1 1-.633 1.897l-3.75-1.25a1 1 0 0 1-.632-1.265ZM26.3 19.433a1 1 0 0 1 1.265-.633l3.75 1.25a1 1 0 0 1-.633 1.897l-3.75-1.25a1 1 0 0 1-.632-1.264ZM19.434 26.3a1 1 0 0 1 1.264.633l1.25 3.75a1 1 0 0 1-1.897.632l-1.25-3.75a1 1 0 0 1 .633-1.265Zm-9.364-2.956a.701.701 0 0 1-.019.02l-4.66 4.659a1 1 0 0 1-1.413-1.415l4.659-4.659a1.06 1.06 0 0 1 .02-.019l-1.5-1.5a2 2 0 0 1 0-2.828l4.515-4.516-2.334-2.334a1 1 0 1 1 1.414-1.414l2.334 2.334L17.6 7.157a2 2 0 0 1 2.829 0l1.5 1.5a1.11 1.11 0 0 1 .02-.02l4.658-4.66a1 1 0 1 1 1.415 1.415l-4.66 4.66a1.221 1.221 0 0 1-.02.019l1.635 1.634a2 2 0 0 1 0 2.828l-4.516 4.516 2.2 2.199a1 1 0 0 1-1.414 1.414l-2.2-2.199-4.515 4.515a2 2 0 0 1-2.828 0l-1.635-1.634Z" clip-rule="evenodd"/></svg>