<svg xmlns="http://www.w3.org/2000/svg" width="32" height="32" fill="none" viewBox="0 0 32 32"><path fill="#111827" fill-rule="evenodd" d="M24.507.294a1 1 0 0 1 0 1.414l-5.293 5.293L25 12.786l5.292-5.293a1 1 0 1 1 1.414 1.415L26.414 14.2l4.092 4.093a1 1 0 0 1-1.414 1.414l-1.629-1.629-9.843 9.843a2 2 0 0 1-2.828 0l-4.65-4.65a1.14 1.14 0 0 1-.034.036l-8.4 8.4a1 1 0 0 1-1.414-1.415l8.4-8.4.035-.034-4.407-4.407a2 2 0 0 1 0-2.828l9.843-9.843-1.872-1.872a1 1 0 0 1 1.414-1.414L17.8 5.586 23.093.294a1 1 0 0 1 1.414 0Z" clip-rule="evenodd"/></svg>