<svg xmlns="http://www.w3.org/2000/svg" width="32" height="32" fill="none" viewBox="0 0 32 32"><path fill="#111827" fill-rule="evenodd" d="m27.027 6.41.02-.02 4.66-4.66A1 1 0 0 0 30.291.318l-4.66 4.659-.019.02-1.5-1.5a2 2 0 0 0-2.828 0L16.77 8.01 15.73 6.973a1 1 0 1 0-1.414 1.414l9.319 9.319a1 1 0 0 0 1.414-1.415l-.904-.903 4.515-4.515a2 2 0 0 0 0-2.829zm-12.672 8.633a1 1 0 0 0-1.415-1.414l-2.62 2.62-1.956-1.955A1 1 0 1 0 6.95 15.71l1.038 1.038-4.515 4.515a2 2 0 0 0 0 2.829l1.5 1.5-.02.019-4.66 4.66a1 1 0 1 0 1.415 1.413l4.66-4.659.018-.02 1.635 1.635a2 2 0 0 0 2.829 0l4.515-4.515.903.903a1 1 0 0 0 1.415-1.414l-1.956-1.956 2.621-2.62a1 1 0 0 0-1.414-1.415l-2.62 2.621-2.58-2.579z" clip-rule="evenodd"/></svg>