<svg xmlns="http://www.w3.org/2000/svg" width="32" height="32" fill="none" viewBox="0 0 32 32"><path fill="#111827" fill-rule="evenodd" d="M6.997 5.582A13.71 13.71 0 0 1 15 2.266v5.119c0 .019 0 .038.002.057a8.574 8.574 0 0 0-4.347 1.8.997.997 0 0 0-.04-.041L6.997 5.582Zm-2.159-.721A15.72 15.72 0 0 0 .231 16a15.72 15.72 0 0 0 4.613 11.145l.006.005.005.006A15.72 15.72 0 0 0 16 31.768c8.71 0 15.77-7.06 15.77-15.77a15.72 15.72 0 0 0-4.62-11.15l-.005-.005A15.72 15.72 0 0 0 16 .231 15.72 15.72 0 0 0 4.861 4.838l-.011.011-.012.012Zm20.166.721A13.71 13.71 0 0 0 17 2.266v5.119L17 7.442a8.574 8.574 0 0 1 4.346 1.8.999.999 0 0 1 .04-.041l3.619-3.619Zm-2.247 5.073a8.574 8.574 0 0 1 1.801 4.347.991.991 0 0 1 .058-.002h5.118a13.711 13.711 0 0 0-3.316-8.004l-3.619 3.619a.973.973 0 0 1-.042.04ZM24.616 17c-.02 0-.039 0-.058-.002a8.573 8.573 0 0 1-1.8 4.347.918.918 0 0 1 .041.04l3.62 3.619A13.712 13.712 0 0 0 29.733 17h-5.118Zm.388 9.418A13.71 13.71 0 0 1 17 29.733v-5.118L17 24.558a8.574 8.574 0 0 0 4.346-1.8l.04.041 3.619 3.619ZM15 24.615c0-.019 0-.038.002-.057a8.573 8.573 0 0 1-4.347-1.801 1.044 1.044 0 0 1-.04.042l-3.619 3.619A13.711 13.711 0 0 0 15 29.733v-5.118Zm-5.757-3.27a8.574 8.574 0 0 1-1.801-4.347.987.987 0 0 1-.057.002H2.267a13.71 13.71 0 0 0 3.315 8.003l3.619-3.618.042-.04ZM7.385 15c.019 0 .038 0 .057.002a8.574 8.574 0 0 1 1.801-4.347 1.059 1.059 0 0 1-.042-.04L5.582 6.996A13.71 13.71 0 0 0 2.267 15h5.118Z" clip-rule="evenodd"/></svg>