<svg xmlns="http://www.w3.org/2000/svg" width="32" height="32" fill="none" viewBox="0 0 32 32"><path fill="#111827" fill-rule="evenodd" d="M11.25 1.715a1 1 0 0 1 1-1h7.5a1 1 0 1 1 0 2h-7.5a1 1 0 0 1-1-1Zm-2.76 5a1 1 0 0 0-.821.43l-5.775 8.32h28.212l-5.775-8.32a1 1 0 0 0-.822-.43H8.49Zm-7.489 11h.893v-2H1a1 1 0 1 0 0 2Zm29.997 0h-.892v-2h.892a1 1 0 1 1 0 2Zm-.892.245H1.894v6.968h.25v5.357a1 1 0 0 0 1 1h5.892a1 1 0 0 0 1-1v-5.357h11.928v5.357a1 1 0 0 0 1 1h5.892a1 1 0 0 0 1-1v-5.357h.25V17.96ZM4.144 29.285v-4.357h3.892v4.357H4.144Zm19.82 0v-4.357h3.892v4.357h-3.893ZM6.25 20.788a1 1 0 0 1 1-1h2.5a1 1 0 1 1 0 2h-2.5a1 1 0 0 1-1-1Zm14.999 0a1 1 0 0 1 1-1h2.5a1 1 0 1 1 0 2h-2.5a1 1 0 0 1-1-1Z" clip-rule="evenodd"/></svg>