<svg xmlns="http://www.w3.org/2000/svg" width="32" height="32" fill="none" viewBox="0 0 32 32"><path fill="#111827" fill-rule="evenodd" d="M15.407 7.704c1.285 0 2.41-.681 3.035-1.702q.063.027.132.046l6.178 1.685q.069.02.137.028a3.55 3.55 0 0 0 1.485 2.834 1 1 0 0 0-.056.13l-4.744 13.44q-.023.069-.038.137a3.54 3.54 0 0 0-2.371.732 1 1 0 0 0-.108-.091L7.015 16.11a1 1 0 0 0-.12-.075c.14-.38.216-.792.216-1.221 0-.555-.127-1.08-.354-1.549q.057-.04.11-.086l6.567-5.91q.053-.048.097-.1a3.54 3.54 0 0 0 1.876.534m7.997 17.257a3.556 3.556 0 1 1-5.41 1.67 1 1 0 0 1-.12-.076l-12.042-8.83a1 1 0 0 1-.108-.092 3.556 3.556 0 1 1-.292-5.839 1 1 0 0 1 .098-.101l6.566-5.91q.053-.047.11-.086a3.556 3.556 0 1 1 6.756-1.606q.07.009.139.028l6.177 1.685q.069.018.132.046a3.556 3.556 0 1 1 2.832 5.404 1 1 0 0 1-.038.136L23.46 24.83a1 1 0 0 1-.056.13" clip-rule="evenodd"/></svg>