<svg xmlns="http://www.w3.org/2000/svg" width="32" height="32" fill="none" viewBox="0 0 32 32"><path fill="#111827" fill-rule="evenodd" d="M15.407 7.704c1.285 0 2.41-.681 3.035-1.702.042.018.086.034.132.046l6.178 1.685c.046.013.091.022.137.028a3.55 3.55 0 0 0 1.485 2.834 1.03 1.03 0 0 0-.056.13l-4.744 13.44c-.016.046-.028.091-.038.137a3.54 3.54 0 0 0-2.371.732 1.01 1.01 0 0 0-.108-.091L7.015 16.11a.999.999 0 0 0-.12-.075c.14-.38.216-.792.216-1.221 0-.555-.127-1.08-.354-1.549.038-.026.075-.055.11-.086l6.567-5.91c.035-.032.068-.066.097-.1a3.54 3.54 0 0 0 1.876.534Zm7.997 17.257a3.556 3.556 0 1 1-5.41 1.67 1 1 0 0 1-.12-.076l-12.042-8.83a1.006 1.006 0 0 1-.108-.092 3.556 3.556 0 1 1-.292-5.839.998.998 0 0 1 .098-.101l6.566-5.91c.035-.031.072-.06.11-.086a3.556 3.556 0 1 1 6.756-1.606c.046.006.093.015.139.028l6.177 1.685c.046.012.09.027.132.046a3.556 3.556 0 1 1 2.832 5.404.995.995 0 0 1-.038.136L23.46 24.83a1.017 1.017 0 0 1-.056.13Z" clip-rule="evenodd"/></svg>