<svg xmlns="http://www.w3.org/2000/svg" width="32" height="33" fill="none" viewBox="0 0 32 33"><path fill="#111827" fill-rule="evenodd" d="M16 .5A6.979 6.979 0 0 0 11.668 2a6.797 6.797 0 0 0-2.064 2.73 7.031 7.031 0 0 0-5.714.629 6.858 6.858 0 0 0-2.462 2.48 6.713 6.713 0 0 0-.9 3.357 1 1 0 0 0 .046.302l4.742 20.897a.1.1 0 0 0 .097.078h5.243l.003.027h2.674v-.027h5.413v.01h2.674l.001-.01h4.924a.1.1 0 0 0 .098-.077l5.027-21.046a.1.1 0 0 0-.003-.057c.003-.032.005-.064.005-.097 0-1.178-.31-2.335-.9-3.358a6.859 6.859 0 0 0-2.463-2.479 7.031 7.031 0 0 0-5.714-.63 6.797 6.797 0 0 0-2.064-2.729A6.979 6.979 0 0 0 16 .5Zm13.558 11.104a.995.995 0 0 1-.086-.407c0-.825-.218-1.638-.633-2.358a4.859 4.859 0 0 0-1.745-1.756 5.018 5.018 0 0 0-4.86-.125 1 1 0 0 1-1.439-.673A4.77 4.77 0 0 0 19.09 3.57 4.98 4.98 0 0 0 16 2.5a4.98 4.98 0 0 0-3.09 1.07 4.771 4.771 0 0 0-1.705 2.716 1 1 0 0 1-1.439.673 5.018 5.018 0 0 0-4.86.125A4.858 4.858 0 0 0 3.16 8.84a4.713 4.713 0 0 0-.633 2.358c0 .142-.03.277-.083.4l5.653 1.164.042.334 2.517 19.38h2.677v-.058l-2.546-19.62-.044-.187 5.04-1.794a.1.1 0 0 1 .065-.001l5.522 1.825-.03.163L18.747 32.4v.074h2.675l2.568-19.373.044-.346 5.525-1.151Zm-5.525 1.15-1.394.291a.1.1 0 0 1-.052-.002l-1.217-.403v-.006l1.24.41 1.424-.294v.005Zm-13.29-.144-.003-.01-1.222.438-1.424-.294.003.017 1.379.284a.1.1 0 0 0 .053-.004l1.214-.431Z" clip-rule="evenodd"/></svg>