<svg xmlns="http://www.w3.org/2000/svg" width="32" height="33" fill="none" viewBox="0 0 32 33"><path fill="#111827" fill-rule="evenodd" d="M16 .5A6.98 6.98 0 0 0 11.668 2a6.8 6.8 0 0 0-2.064 2.73 7.03 7.03 0 0 0-5.714.629 6.86 6.86 0 0 0-2.462 2.48 6.7 6.7 0 0 0-.9 3.358 1 1 0 0 0 .046.3l4.742 20.898a.1.1 0 0 0 .097.078h5.243l.003.027h2.674v-.027h5.413v.01h2.674l.001-.01h4.924a.1.1 0 0 0 .098-.077l5.027-21.046a.1.1 0 0 0-.003-.057q.005-.048.005-.097c0-1.178-.31-2.335-.9-3.358a6.86 6.86 0 0 0-2.463-2.479 7.031 7.031 0 0 0-5.714-.63 6.8 6.8 0 0 0-2.064-2.729A6.98 6.98 0 0 0 16 .5m13.558 11.104a1 1 0 0 1-.086-.407c0-.825-.218-1.638-.633-2.358a4.86 4.86 0 0 0-1.745-1.756 5.018 5.018 0 0 0-4.86-.125 1 1 0 0 1-1.439-.673A4.77 4.77 0 0 0 19.09 3.57 4.98 4.98 0 0 0 16 2.5a4.98 4.98 0 0 0-3.09 1.07 4.77 4.77 0 0 0-1.705 2.716 1 1 0 0 1-1.439.673 5.02 5.02 0 0 0-4.86.125A4.86 4.86 0 0 0 3.16 8.84a4.7 4.7 0 0 0-.633 2.358q-.002.214-.083.4l5.653 1.164.042.334 2.517 19.38h2.677v-.058l-2.546-19.62-.044-.187 5.04-1.794a.1.1 0 0 1 .065-.001l5.522 1.825-.03.163L18.747 32.4v.074h2.675l2.568-19.373.044-.346zm-5.525 1.15-1.394.291a.1.1 0 0 1-.052-.002l-1.217-.403v-.006l1.24.41 1.424-.294zm-13.29-.144-.003-.01-1.222.438-1.424-.294.003.017 1.379.284a.1.1 0 0 0 .053-.004z" clip-rule="evenodd"/></svg>