<svg xmlns="http://www.w3.org/2000/svg" width="32" height="33" fill="none" viewBox="0 0 32 33"><path fill="#111827" fill-rule="evenodd" d="m25.019 23.723-.008.065c-.082 3.341-.62 5.26-1.464 6.455-.967 1.386-2.172 1.754-3.527 2.043-3.486.745-4.22-1.5-4.63-2.762l-.023-.065-.049-.137c-.176-.48-.29-1.086-.367-1.769a28 28 0 0 1-.135-2.001c-.006-.114-.01-.255-.014-.407l-.012-.348a5 5 0 0 1 .021-.554 5 5 0 0 1-1.21.362c-1.066.181-2.023.01-2.597-.134-.48-.12-1.091-.398-1.469-.756a2 2 0 0 1-.176-.186c-.32.264-.651.45-.988.57-1.251.45-2.353-.021-3.31-1.087-.693-.765-1.314-1.893-1.862-3.191C1.616 16.066.571 10.65.504 9.316-.054-1.847 9.986.822 12.722 1.754c.48-.286.994-.51 1.53-.668A8.2 8.2 0 0 1 16.742.76c.465.006.926.037 1.391.083q.483.053.962.14c1.117-.32 3.735-.895 6.362-.27 1.8.43 3.642 1.382 5.131 3.28.983 1.257.973 4.117.063 7.407-.657 2.38-1.764 5.064-3.27 7.562.337-.082.87-.196 1.713-.372.657-.135 1.169-.088 1.541.093.646.31.926.822.88 1.49-.021.341-.161.677-.389.998-.377.512-1.2 1.159-2.177 1.614-.476.217-1.092.388-1.728.496a9.2 9.2 0 0 1-1.883.13h-.057l-.222-.021q-.006.076-.02.16zm-.07-4.466c-.585.165-1.423.47-1.335 2.167a99 99 0 0 1-.372 3.29 95 95 0 0 1-.409 2.917c-.155.89-.398 1.53-.838 1.981-.434.455-1.096.755-2.074.967-1.117.238-1.82.005-2.276-.383-.47-.398-.719-.972-.874-1.36-.145-.372-.253-1.365-.316-2.695a71 71 0 0 1-.034-4.714c.005-.326.01-.628-.1-.944a1.96 1.96 0 0 0-.667-.91c-.274-.197-.667-.332-1.004-.3a1 1 0 0 0-.186.03c.058-.227.14-.475.234-.738.117-.33.145-.429.18-.525.042-.114.094-.224.315-.712.56-1.247 1.273-2.84.476-6.538-.227-1.035-.806-1.578-1.536-1.806-.465-.144-.983-.155-1.495-.077a6.6 6.6 0 0 0-1.417.403 5.6 5.6 0 0 0-.786.404c.17-2.162 1.112-7.304 6.28-7.216 4.282.068 6.687 2.876 7.794 4.888.28.502.471.952.59 1.293l.001.003q.016.038.025.075c-2.53-.264-3.543.615-3.755 1.944-.3 1.868 1.22 4.594 1.99 5.975l.053.094c.156.28.273.491.315.594.305.74.683 1.215.983 1.582l.056.072q.106.135.182.239m-11.054 1.717c-.548.699-.719.91-2.42 1.262a2.7 2.7 0 0 0-.637.192c.155.108.393.206.6.258.42.104 1.117.233 1.857.104.73-.124 1.51-.496 2.147-1.381.13-.181.103-.43.036-.631a1.03 1.03 0 0 0-.341-.476c-.11-.078-.285-.145-.409-.135a.3.3 0 0 0-.202.094 8 8 0 0 0-.63.713m-3.305-2.353q.185.2.393.377a59 59 0 0 0-2.405 2.726c-.285.341-.554.548-.802.636-.455.166-.926-.082-1.386-.594-.553-.616-1.076-1.573-1.546-2.69-1.5-3.554-2.488-8.648-2.55-9.895-.425-8.545 7.35-6.647 9.755-5.855-2.664 2.617-2.545 7.298-2.54 7.334-.005.097.002.216.01.368l.006.082c.046.73.129 2.131-.089 3.688a4.7 4.7 0 0 0-.025 1.143 4.6 4.6 0 0 0 1.179 2.68m14.7-11.664c-.838-1.531-2.369-3.481-4.805-4.557 1.169-.238 3.052-.445 4.94.098a7.26 7.26 0 0 1 3.755 2.54c.63.812.512 3.067-.254 5.835-.662 2.405-1.82 5.151-3.408 7.65a3 3 0 0 1-.106-.13l-.003-.005a1 1 0 0 1-.046-.057c.92-1.51.745-2.969.579-4.34-.067-.537-.13-1.055-.114-1.546.02-.494.082-.917.142-1.324l.008-.057c.088-.549.166-1.07.145-1.707l.003-.023.002-.024c.026-.15-.03-.491-.186-.925a9 9 0 0 0-.652-1.428m-14.877 3.962a5 5 0 0 1-.01-.264c.006-.02.502-.248 1.155-.517.377-.15.796-.285 1.21-.347.393-.057.776-.057 1.101.047.43.134.782.476.921 1.138.74 3.419.094 4.857-.413 5.984-.259.568-.336.787-.433 1.063l-.079.22c-.107.296-.202.58-.27.853h-.01c-.13-.005-.267-.01-.398-.03-.745-.104-1.423-.487-1.935-1.05a3.7 3.7 0 0 1-.952-2.157c-.03-.3-.025-.616.021-.937.233-1.66.145-3.113.098-3.863q-.002-.07-.006-.14m3.72-.486a1.73 1.73 0 0 0-1.076-.15c-.23.057-.328.17-.336.304-.007.134.077.29.212.435.14.145.336.274.559.306h.005a.87.87 0 0 0 .595-.15c.165-.114.274-.27.29-.378.015-.14-.078-.27-.249-.367m8.116.408c.14-.874.93-1.433 2.979-1.179-.005.45-.067.853-.135 1.272l-.007.047c-.065.436-.133.893-.153 1.438-.015.532.049 1.08.115 1.642l.004.034c.134 1.107.274 2.276-.264 3.414a5 5 0 0 1-.238-.487 9 9 0 0 0-.409-.775c-.723-1.299-2.14-3.844-1.892-5.406m3.152 9.216.08-.024c1.054.795 2.817.467 3.983.25l.01-.002c-.279.269-.734.574-1.277.828-.528.242-1.355.408-2.131.455-.445.02-.864.01-1.18-.057-.201-.037-.335-.078-.377-.12-.052-1.06.435-1.198.746-1.286l.004-.001q.072-.024.142-.043m-1.197-9.386c.13-.135.207-.295.191-.388-.015-.109-.119-.186-.279-.223a1.4 1.4 0 0 0-.522-.015 1.6 1.6 0 0 0-.497.155c-.149.085-.209.18-.207.276.002.14.137.279.321.38a.8.8 0 0 0 .462.098.88.88 0 0 0 .531-.283m5.064 8.741c-2.344.486-3.042.181-3.249-.015a30.1 30.1 0 0 0 3.766-8.287c.838-3.031.905-5.586.098-6.62a8.1 8.1 0 0 0-4.21-2.846c-2.255-.651-4.48-.33-5.695-.046l-.063.014-.165.038c-.026.01-.486.14-.812.227a9.8 9.8 0 0 0-2.208-.274c-1.635-.026-2.897.388-3.875 1.055C11.211 2.048.871-1.37 1.398 9.222c.068 1.288 1.081 6.549 2.623 10.2.512 1.21 1.08 2.25 1.701 2.943.714.787 1.495 1.143 2.349.838.403-.145.807-.434 1.194-.905a62 62 0 0 1 2.463-2.788 4 4 0 0 0 1.774.476q-.001.03.005.062a8 8 0 0 0-.316.373c-.393.501-.517.657-1.893.94-.62.13-.993.3-1.194.492-.212.197-.28.42-.249.647a.9.9 0 0 0 .29.512c.264.248.714.45 1.076.543.497.124 1.324.274 2.23.12a4.05 4.05 0 0 0 2.053-1c-.01 1.263.01 2.479.056 3.508.068 1.412.192 2.514.383 2.984.192.476.492 1.185 1.123 1.717.641.539 1.593.88 3.041.57 1.159-.249 1.96-.626 2.535-1.221.574-.595.884-1.381 1.07-2.452.109-.63.27-1.79.414-2.958.119-.932.228-1.852.3-2.509.088.026.186.052.285.072.398.078.89.099 1.401.073.875-.052 1.832-.249 2.457-.538.843-.393 1.531-.921 1.831-1.335.13-.181.207-.357.218-.527.02-.28-.099-.492-.368-.621-.206-.098-.527-.119-.982-.026" clip-rule="evenodd"/></svg>