<svg xmlns="http://www.w3.org/2000/svg" width="32" height="32" fill="none" viewBox="0 0 32 32"><path fill="#111827" fill-rule="evenodd" d="M17 1a1 1 0 1 0-2 0v3.6H2.6a1 1 0 0 0-1 1V24a1 1 0 0 0 1 1h7.32l-4.3 5.374a1 1 0 1 0 1.561 1.25l4.8-6a.996.996 0 0 0 .22-.625h7.598c0 .22.072.44.22.625l4.8 6a1 1 0 0 0 1.56-1.25L22.08 25h7.32a1 1 0 0 0 1-1V5.601a1 1 0 0 0-1-1h-12.4V1Zm-4.8 14.4a1 1 0 1 0-2 0V19a1 1 0 1 0 2 0v-3.6ZM16 12a1 1 0 0 1 1 1v6a1 1 0 1 1-2 0v-6a1 1 0 0 1 1-1Zm5.8-1.4a1 1 0 1 0-2 0V19a1 1 0 1 0 2 0v-8.4Z" clip-rule="evenodd"/></svg>