<svg xmlns="http://www.w3.org/2000/svg" width="32" height="32" fill="none" viewBox="0 0 32 32"><path fill="#111827" fill-rule="evenodd" d="M4.76 3.595a1 1 0 0 1 1-1h20.48a1 1 0 0 1 1 1v6.4H31a1 1 0 0 1 1 1v13.36a1 1 0 0 1-1 1h-3.621a.997.997 0 0 1-.14-.01v3.06a1 1 0 0 1-1 1H5.76a1 1 0 0 1-1-1v-3.053a1.031 1.031 0 0 1-.08.003H1a1 1 0 0 1-1-1v-13.36a1 1 0 0 1 1-1h3.76v-6.4Zm2 1v4.4h18.48v-4.4H6.76Zm20.761 11.16a1.92 1.92 0 1 1-3.84 0 1.92 1.92 0 0 1 3.84 0ZM6.76 27.405v-4.89h18.48v4.89H6.76Z" clip-rule="evenodd"/></svg>