<svg xmlns="http://www.w3.org/2000/svg" width="29" height="33" fill="none" viewBox="0 0 29 33"><path fill="#111827" fill-rule="evenodd" d="M14.139 4.804a2.152 2.152 0 1 0 0-4.304 2.152 2.152 0 0 0 0 4.304Zm0 27.696a2.152 2.152 0 1 0 0-4.304 2.152 2.152 0 0 0 0 4.304ZM28.315 9.55a2.152 2.152 0 1 1-4.304 0 2.152 2.152 0 0 1 4.304 0ZM2.152 11.704a2.152 2.152 0 1 0 0-4.304 2.152 2.152 0 0 0 0 4.304Zm26.163 11.696a2.152 2.152 0 1 1-4.303 0 2.152 2.152 0 0 1 4.303 0ZM2.152 25.55a2.152 2.152 0 1 0 0-4.303 2.152 2.152 0 0 0 0 4.303ZM16.259 5.087a3.226 3.226 0 0 0 1.028-1.716l6.652 3.84a3.222 3.222 0 0 0-.952 1.76L16.26 5.087Zm8.904 15.242a3.224 3.224 0 0 1 2 0V12.62a3.225 3.225 0 0 1-2 0v7.708Zm-14.205 9.467a3.221 3.221 0 0 1 .937-1.768l-6.617-3.82A3.23 3.23 0 0 1 4.2 25.893l6.758 3.902ZM24.1 25.881l-6.78 3.915a3.222 3.222 0 0 0-.937-1.769l6.65-3.839c.169.673.55 1.263 1.067 1.693Zm-21.948-5.71c-.363 0-.712.06-1.038.17v-7.733a3.225 3.225 0 0 0 2 .025v7.684a3.226 3.226 0 0 0-.962-.146Zm9.867-15.085L5.324 8.952a3.222 3.222 0 0 0-.962-1.754l6.63-3.828a3.227 3.227 0 0 0 1.027 1.716Zm-4.65 7.468a.1.1 0 0 1 0-.174l6.4-3.582a.1.1 0 0 1 .098 0l6.459 3.614a.1.1 0 0 1 0 .174l-6.263 3.559a.112.112 0 0 1-.074.011.512.512 0 0 0-.123-.005.112.112 0 0 1-.063-.013L7.37 12.554Zm13.672.777a.1.1 0 0 1 .15.087v7.667a.1.1 0 0 1-.052.087l-6.585 3.685a.1.1 0 0 1-.149-.087v-7.611a.1.1 0 0 1 .05-.087l6.586-3.741Zm-7.636 11.536a.1.1 0 0 1-.149.087l-6.758-3.782a.1.1 0 0 1-.051-.087v-7.73a.1.1 0 0 1 .148-.087l6.759 3.764a.1.1 0 0 1 .051.088v7.747Z" clip-rule="evenodd"/></svg>