<svg xmlns="http://www.w3.org/2000/svg" width="32" height="32" fill="none"><path fill="#111827" fill-rule="evenodd" d="M1.692 0a1 1 0 0 0-1 1v4.77a1 1 0 0 0 1 1h2.386V21.46H1.692a1 1 0 1 0 0 2H15v3.77c0 .071.008.141.022.209a2.385 2.385 0 1 0 1.956 0 1 1 0 0 0 .022-.21v-3.769h13.308a1 1 0 1 0 0-2h-2.384V6.77h2.384a1 1 0 0 0 1-1V1a1 1 0 0 0-1-1H1.692Zm1 4.77V2h26.616v2.77H2.692Zm9.143 9.147a1 1 0 1 0-2 0v2.582a1 1 0 1 0 2 0v-2.582ZM16 11.625a1 1 0 0 1 1 1V16.5a1 1 0 1 1-2 0v-3.875a1 1 0 0 1 1-1Zm6.167-.291a1 1 0 1 0-2 0V16.5a1 1 0 1 0 2 0v-5.166Z" clip-rule="evenodd"/></svg>