<svg xmlns="http://www.w3.org/2000/svg" width="32" height="32" fill="none" viewBox="0 0 32 32"><path fill="#111827" fill-rule="evenodd" d="m21.695.293 10.012 10.009a1 1 0 0 1 0 1.414l-5.41 5.407a1 1 0 0 1-1.43-.018L15.11 6.841a1 1 0 0 1 .018-1.396L20.281.293a1 1 0 0 1 1.414 0M9.127 23.543a1 1 0 0 0 .286-.59l8.755 8.754a1 1 0 0 0 1.414 0l1.287-1.287a6.47 6.47 0 0 0 1.59-6.548l7.357 7.358a1 1 0 0 0 1.415-1.414L2.184.77A1 1 0 0 0 .77 2.184l7.365 7.365a6.47 6.47 0 0 0-6.555 1.587L.293 12.422a1 1 0 0 0 0 1.415l8.008 8.005a1 1 0 0 0-.588.286l-6.472 6.47a1 1 0 1 0 1.414 1.415z" clip-rule="evenodd"/></svg>