<svg xmlns="http://www.w3.org/2000/svg" width="32" height="32" fill="none" viewBox="0 0 32 32"><path fill="#111827" d="M31.413 12.035c-.55-2.207-1.593-3.87-3.814-3.87h-2.864v3.385c0 2.628-2.229 4.842-4.771 4.842h-7.629c-2.085 0-3.814 1.786-3.814 3.879v7.271c0 2.071 1.8 3.286 3.814 3.878 2.415.708 4.736.836 7.629 0 1.921-.557 3.814-1.678 3.814-3.878v-2.907h-7.621v-.971h11.442c2.221 0 3.043-1.55 3.814-3.872.8-2.393.765-4.692 0-7.757m-10.97 14.536c.792 0 1.435.65 1.435 1.45 0 .807-.643 1.457-1.436 1.457-.785 0-1.435-.657-1.435-1.457.007-.808.65-1.45 1.435-1.45m-8.458-11.136h7.629c2.121 0 3.814-1.75 3.814-3.878V4.279c0-2.072-1.743-3.622-3.814-3.972-2.557-.421-5.336-.4-7.629.007C8.757.886 8.171 2.08 8.171 4.286v2.907h7.636v.971h-10.5c-2.221 0-4.164 1.336-4.771 3.871-.7 2.908-.729 4.722 0 7.757.543 2.257 1.835 3.872 4.057 3.872h2.621v-3.486c0-2.521 2.179-4.743 4.771-4.743M11.507 5.25c-.793 0-1.436-.65-1.436-1.45.007-.807.643-1.457 1.436-1.457.786 0 1.436.657 1.436 1.457s-.643 1.45-1.436 1.45"/></svg>