<svg xmlns="http://www.w3.org/2000/svg" width="32" height="33" fill="none" viewBox="0 0 32 33"><g clip-path="url(#a)"><path fill="#111827" d="M25.337 9.601c5.2 5.201 5.2 13.544 0 18.781-5.093 5.201-13.472 5.201-18.673 0-5.201-5.2-5.201-13.58 0-18.78L15.982.282v4.66l-.867.866-6.176 6.176c-3.9 3.828-3.9 10.113 0 14.014 3.829 3.9 10.113 3.9 14.014 0 3.9-3.829 3.9-10.113 0-14.014l2.384-2.384Zm-4.66-.578a1.734 1.734 0 1 1 0-3.467 1.734 1.734 0 0 1 0 3.467Z"/></g><defs><clipPath id="a"><path fill="#fff" d="M0 .283h32v32H0z"/></clipPath></defs></svg>