<svg xmlns="http://www.w3.org/2000/svg" width="32" height="33" fill="none" viewBox="0 0 32 33"><g clip-path="url(#a)"><path fill="#111827" fill-rule="evenodd" d="M12.544 4.309A1711 1711 0 0 0 16.595.283l-.085 5.813c-.689.688-1.791 1.792-2.91 2.913l-3.085 3.088C8.94 13.52 7.704 15.233 7.242 17.29a8.976 8.976 0 1 0 14.853-4.623l2.75-2.973A13.025 13.025 0 1 1 3.29 16.403c.67-2.986 2.411-5.42 4.703-7.572 1.12-1.12 2.862-2.848 4.55-4.522m7.933 5.905a2.095 2.095 0 1 1 0-4.189 2.095 2.095 0 0 1 0 4.19" clip-rule="evenodd"/></g><defs><clipPath id="a"><path fill="#fff" d="M0 .283h32v32H0z"/></clipPath></defs></svg>