<svg xmlns="http://www.w3.org/2000/svg" width="32" height="32" fill="none" viewBox="0 0 32 32"><path fill="#111827" fill-rule="evenodd" d="M1 0a1 1 0 0 0-1 1v10.4a1 1 0 0 0 1 1h10.4a1 1 0 0 0 1-1V1a1 1 0 0 0-1-1zm17.6 17.6a1 1 0 0 1 1 1v6.2a1 1 0 1 1-2 0v-6.2a1 1 0 0 1 1-1m6.2 0a1 1 0 0 1 1 1v2.1H31a1 1 0 0 1 0 2h-5.2V31a1 1 0 0 1-1 1h-6.2a1 1 0 1 1 0-2h5.2V18.6a1 1 0 0 1 1-1m6.2 9.3a1 1 0 0 1 1 1v3.099a1 1 0 1 1-2 0v-3.1a1 1 0 0 1 1-1M0 19.6a1 1 0 0 1 1-1h10.4a1 1 0 0 1 1 1V30a1 1 0 0 1-1 1H1a1 1 0 0 1-1-1zM19.6 0a1 1 0 0 0-1 1v10.4a1 1 0 0 0 1 1H30a1 1 0 0 0 1-1V1a1 1 0 0 0-1-1z" clip-rule="evenodd"/></svg>