<svg xmlns="http://www.w3.org/2000/svg" width="32" height="33" fill="none" viewBox="0 0 32 33"><g clip-path="url(#a)"><path fill="#111827" fill-rule="evenodd" d="M1.873.566a1 1 0 0 0-1 1v30a1 1 0 0 0 1 1h28.254a1 1 0 0 0 1-1V14.42a1 1 0 0 0-1-1h-10.25a1 1 0 0 1-1-1V1.566a1 1 0 0 0-1-1H13.51a1 1 0 0 0-1 1V12.42a1 1 0 0 1-1 1H8.238a1 1 0 0 1-1-1V1.566a1 1 0 0 0-1-1H1.873Zm18.186 19.36a1 1 0 0 0-1 1v4.083a1 1 0 0 0 1 1h4.097a1 1 0 0 0 1-1v-4.082a1 1 0 0 0-1-1h-4.097Z" clip-rule="evenodd"/></g><defs><clipPath id="a"><path fill="#fff" d="M0 .566h32v32H0z"/></clipPath></defs></svg>