<svg xmlns="http://www.w3.org/2000/svg" width="32" height="32" fill="none" viewBox="0 0 32 32"><path fill="#111827" fill-rule="evenodd" d="M1 8a1 1 0 0 0-1 1v19.333a1 1 0 0 0 1 1h30a1 1 0 0 0 1-1V9a1 1 0 0 0-1-1H1Zm3.333 5.333a1 1 0 0 1 1-1h5.334a1 1 0 1 1 0 2H5.333a1 1 0 0 1-1-1Zm17 1a4.333 4.333 0 1 0 0 8.667 4.333 4.333 0 0 0 0-8.667ZM15 18.667a6.333 6.333 0 1 1 12.667 0 6.333 6.333 0 0 1-12.667 0Zm-9.667-1a1 1 0 0 0 0 2h5.334a1 1 0 1 0 0-2H5.333Zm-1 6.333a1 1 0 0 1 1-1h5.334a1 1 0 1 1 0 2H5.333a1 1 0 0 1-1-1Z" clip-rule="evenodd"/><path stroke="#111827" stroke-linejoin="round" stroke-width="2" d="M4.663 2.667h22.675V8H4.663z"/></svg>