<svg xmlns="http://www.w3.org/2000/svg" width="32" height="33" fill="none" viewBox="0 0 32 33"><path fill="#111827" fill-rule="evenodd" d="M16 6.929A16 16 0 0 0 .001 22.928v2.143a1 1 0 1 0 2 0v-2.143a14 14 0 0 1 27.998 0v2.143a1 1 0 0 0 2 0v-2.143A16 16 0 0 0 16 6.929m-8.283 7.716a11.714 11.714 0 0 1 19.996 8.283v2.143a1 1 0 1 1-2 0v-2.143a9.714 9.714 0 0 0-19.427 0v2.143a1 1 0 1 1-2 0v-2.143c0-3.107 1.234-6.086 3.431-8.283m3.03 3.03a7.428 7.428 0 0 1 12.681 5.253v2.143a1 1 0 0 1-2 0v-2.143a5.428 5.428 0 0 0-10.856 0v2.143a1 1 0 1 1-2 0v-2.143c0-1.97.782-3.86 2.176-5.252" clip-rule="evenodd"/></svg>