<svg xmlns="http://www.w3.org/2000/svg" width="32" height="33" fill="none" viewBox="0 0 32 33"><path fill="#111827" fill-rule="evenodd" d="M9.507 9.476a12.29 12.29 0 0 1 13.342 2.507 1 1 0 1 0 1.393-1.435A14.286 14.286 0 0 0 0 20.787v2.215a1 1 0 1 0 2 0v-2.214A12.29 12.29 0 0 1 9.507 9.475m1.23 4.297a7.86 7.86 0 0 1 8.202.678 1 1 0 0 0 1.185-1.611 9.857 9.857 0 0 0-15.695 7.947V23a1 1 0 1 0 2 0v-2.214a7.86 7.86 0 0 1 4.308-7.014m3.835 3.582-.282.003h-.003a3.43 3.43 0 0 0-3.43 3.43v2.214a1 1 0 1 1-1.999 0v-2.215a5.43 5.43 0 0 1 5.427-5.429c.037 0 .102 0 .184-.002.178-.003.431-.007.64-.006.29.002.74.01 1.047.086a1 1 0 1 1-.486 1.94h-.003c-.014-.002-.064-.009-.16-.015a8 8 0 0 0-.408-.01c-.204-.002-.374.001-.527.004m4.19.853a4.2 4.2 0 0 1 1.755.067c.43-.841 1.269-2.03 2.035-2.582a5.961 5.961 0 0 1 8.256 8.414c-.305.392-.648.759-.987 1.085-.971.932-2.315 1.3-3.662 1.3h-6.68a4.173 4.173 0 0 1-.716-8.284" clip-rule="evenodd"/></svg>