<svg xmlns="http://www.w3.org/2000/svg" width="32" height="32" fill="none" viewBox="0 0 32 32"><path fill="#111827" fill-rule="evenodd" d="M8.5 28.99c-.486-.28-.848-.854-1.016-1.787-.166-.93-.124-2.146.137-3.578.134-.732.323-1.514.567-2.332 1.357.279 2.838.486 4.403.61a36.24 36.24 0 0 0 2.73 3.508 22.221 22.221 0 0 1-1.736 1.657c-1.11.943-2.141 1.587-3.03 1.908-.892.321-1.57.294-2.056.014ZM16 24.67a34.502 34.502 0 0 1-2.13-2.684 43.974 43.974 0 0 0 4.258 0 34.52 34.52 0 0 1-2.129 2.684Zm-1.767 3.161a23.093 23.093 0 0 0 1.766-1.68 23.115 23.115 0 0 0 1.767 1.68c1.16.986 2.296 1.71 3.339 2.086 1.04.375 2.056.425 2.895-.06.838-.484 1.303-1.389 1.499-2.476.196-1.091.136-2.437-.138-3.935a23.116 23.116 0 0 0-.572-2.37 23.12 23.12 0 0 0 2.34-.69c1.433-.512 2.629-1.133 3.475-1.848C31.45 17.824 32 16.969 32 16c0-.969-.551-1.824-1.396-2.537-.846-.715-2.042-1.336-3.476-1.848-.717-.256-1.5-.487-2.339-.69.244-.827.435-1.62.572-2.37.273-1.497.333-2.843.137-3.934-.195-1.088-.66-1.993-1.499-2.477-.839-.484-1.855-.435-2.894-.06-1.043.376-2.179 1.1-3.34 2.086A23.126 23.126 0 0 0 16 5.85a23.09 23.09 0 0 0-1.766-1.68c-1.16-.985-2.296-1.71-3.339-2.086C9.854 1.71 8.84 1.66 8 2.144s-1.304 1.39-1.5 2.477c-.195 1.09-.136 2.437.138 3.935.137.748.328 1.542.572 2.37-.839.202-1.622.433-2.338.689-1.434.512-2.63 1.133-3.476 1.848C.55 14.176 0 15.032 0 16c0 .969.551 1.824 1.396 2.537.846.715 2.042 1.336 3.476 1.848.716.256 1.5.487 2.338.69a23.108 23.108 0 0 0-.572 2.37c-.274 1.498-.334 2.844-.138 3.934.196 1.088.66 1.993 1.5 2.477.838.485 1.854.435 2.894.06 1.043-.375 2.178-1.1 3.339-2.086Zm10.145-4.205a22.221 22.221 0 0 0-.567-2.332 36.248 36.248 0 0 1-4.404.61 36.253 36.253 0 0 1-2.73 3.508c.588.62 1.17 1.175 1.736 1.657 1.11.943 2.142 1.587 3.031 1.908.892.321 1.57.294 2.056.015.485-.28.847-.855 1.015-1.788.166-.93.124-2.146-.137-3.578Zm2.414-4.181c-.7.25-1.472.476-2.303.675a36.224 36.224 0 0 0-1.673-4.12 36.252 36.252 0 0 0 1.673-4.117c.83.198 1.602.424 2.303.675 1.371.49 2.445 1.06 3.167 1.67C30.683 14.84 31 15.44 31 16c0 .56-.316 1.161-1.04 1.773-.722.61-1.796 1.18-3.167 1.67Zm-3.285.89a34.516 34.516 0 0 0-1.26-3.185 44.064 44.064 0 0 1-2.13 3.687 34.512 34.512 0 0 0 3.39-.502Zm-3.147-1.816c.488-.845.937-1.688 1.345-2.518a42.536 42.536 0 0 0-2.853-4.94 42.542 42.542 0 0 0-5.705 0A42.56 42.56 0 0 0 10.294 16a42.569 42.569 0 0 0 2.853 4.941 42.5 42.5 0 0 0 5.705 0 42.592 42.592 0 0 0 1.508-2.423Zm3.147-6.852a34.502 34.502 0 0 1-1.26 3.185 44.075 44.075 0 0 0-2.13-3.687 34.47 34.47 0 0 1 3.39.502Zm.304-.959a36.22 36.22 0 0 0-4.403-.61 36.231 36.231 0 0 0-2.73-3.508 22.224 22.224 0 0 1 1.735-1.657c1.11-.942 2.142-1.587 3.03-1.907.892-.322 1.571-.295 2.056-.015.485.28.848.855 1.015 1.788.167.93.125 2.146-.137 3.578a22.247 22.247 0 0 1-.566 2.331ZM13.586 4.933a22.225 22.225 0 0 1 1.735 1.656 36.247 36.247 0 0 0-2.73 3.508 36.236 36.236 0 0 0-4.403.61c-.243-.818-.433-1.6-.566-2.331-.262-1.432-.304-2.648-.137-3.578.167-.933.53-1.508 1.015-1.788.485-.28 1.164-.307 2.055.015.89.32 1.921.965 3.03 1.908Zm-8.378 7.624c.7-.25 1.472-.477 2.302-.675.438 1.315.998 2.7 1.673 4.118a36.243 36.243 0 0 0-1.673 4.118 22.212 22.212 0 0 1-2.302-.674c-1.371-.49-2.445-1.062-3.167-1.671C1.317 17.16 1 16.56 1 16c0-.56.316-1.161 1.04-1.773.722-.61 1.796-1.18 3.167-1.67Zm3.284-.891c.344 1.02.765 2.089 1.26 3.185a44.02 44.02 0 0 1 2.129-3.687c-1.197.12-2.333.29-3.389.502Zm0 8.668a34.5 34.5 0 0 1 1.26-3.185 43.974 43.974 0 0 0 2.13 3.687 34.505 34.505 0 0 1-3.39-.502Zm9.636-10.318A34.502 34.502 0 0 0 16 7.33a34.518 34.518 0 0 0-2.128 2.685 43.93 43.93 0 0 1 4.257 0ZM16 19.322a3.321 3.321 0 1 0 0-6.643 3.321 3.321 0 0 0 0 6.643Z" clip-rule="evenodd"/></svg>