<svg width="33" height="33" fill="none" xmlns="http://www.w3.org/2000/svg"><path fill-rule="evenodd" clip-rule="evenodd" d="M10 12.159c-.26.074-.517.155-.773.242-2.592.889-4.267 2.28-4.267 3.72 0 1.502 1.79 2.97 4.541 3.877.146.048.295.094.447.139-.054.217-.103.43-.144.639-.543 2.732-.125 4.978 1.162 5.72 1.247.719 3.261.013 5.3-1.735.223-.19.439-.387.65-.59.167.161.334.315.5.46 2.106 1.833 4.269 2.594 5.557 1.854 1.248-.717 1.64-2.807 1.138-5.44-.055-.286-.118-.571-.189-.854.218-.062.435-.129.65-.202 2.646-.9 4.388-2.386 4.388-3.868 0-1.434-1.623-2.817-4.164-3.699-.284-.099-.58-.191-.888-.278.066-.262.125-.526.177-.792.527-2.68.156-4.82-1.094-5.542-1.305-.752-3.477.056-5.645 1.972-.134.12-.267.242-.397.366-.195-.187-.394-.369-.598-.546-2.068-1.792-4.115-2.542-5.367-1.823-1.306.75-1.689 3.028-1.104 5.855.037.176.077.35.12.525Zm.479 6.882c-.132-.038-.262-.079-.388-.12-2.287-.755-3.695-1.91-3.695-2.799 0-.835 1.304-1.919 3.442-2.651.22-.076.45-.148.686-.216.285.916.664 1.883 1.125 2.872a23.027 23.027 0 0 0-1.17 2.915Zm.45 4.789c-.154-.822-.12-1.874.11-3.037.037-.181.079-.367.126-.556.957.22 2.012.381 3.129.48.634.915 1.285 1.74 1.936 2.449-.195.186-.389.362-.581.527-1.679 1.439-3.236 1.984-3.964 1.565-.342-.197-.619-.69-.756-1.428Zm11.326 1.416c-.342.197-.909.19-1.62-.06-.792-.28-1.69-.833-2.586-1.613a12.09 12.09 0 0 1-.44-.404 23.937 23.937 0 0 0 1.982-2.44c1.12-.09 2.167-.24 3.114-.448.063.253.12.507.168.763.413 2.168.11 3.784-.618 4.202Zm4.406-7.756c-.637.543-1.568 1.042-2.694 1.425-.189.064-.379.123-.57.178a23.855 23.855 0 0 0-1.14-2.947c.457-.99.836-1.97 1.126-2.906.267.076.532.159.795.25 2.091.726 3.346 1.794 3.346 2.632 0 .394-.29.879-.863 1.368Zm-4.39-10.442c.725.418 1.013 2.085.579 4.295-.047.237-.1.474-.159.709a24.216 24.216 0 0 0-3.083-.478 23.563 23.563 0 0 0-1.967-2.425c.115-.11.231-.217.346-.319 1.801-1.592 3.51-2.228 4.283-1.782Zm-8.683 5.595c-.243.378-.477.762-.703 1.15-.23.395-.451.794-.665 1.198a20.9 20.9 0 0 1-.739-1.982c.663-.15 1.37-.274 2.107-.366Zm2.001-1.157c.449-.595.905-1.144 1.36-1.635.462.497.922 1.045 1.37 1.634a29.18 29.18 0 0 0-2.73 0Zm6.101 3.504a28.876 28.876 0 0 0-1.36-2.35 22.35 22.35 0 0 1 2.095.359c-.201.644-.447 1.312-.735 1.99Zm.748 4.342c-.659.143-1.372.257-2.129.341a29.073 29.073 0 0 0 1.38-2.372c.294.694.545 1.376.75 2.031Zm-4.127 1.473a22.08 22.08 0 0 1-1.39 1.657 20.933 20.933 0 0 1-1.356-1.661 34.595 34.595 0 0 0 2.746.005Zm-6.876-1.515c.207-.645.467-1.323.776-2.024.214.411.438.818.67 1.219.229.395.465.785.71 1.17a21.016 21.016 0 0 1-2.156-.365Zm3.41.485a32.153 32.153 0 0 1-1.109-1.781 29.508 29.508 0 0 1-.993-1.862c.312-.626.644-1.242.996-1.846a29.58 29.58 0 0 1 1.113-1.77 27.912 27.912 0 0 1 4.211 0 27.784 27.784 0 0 1 2.103 3.63 27.588 27.588 0 0 1-2.115 3.637c-.673.043-1.372.066-2.091.066-.722 0-1.43-.025-2.116-.074Zm-3.733-8.17c-.486-2.35-.185-4.142.588-4.586.726-.418 2.32.166 4.026 1.644.181.158.358.32.531.486a23.1 23.1 0 0 0-1.953 2.427c-1.09.102-2.13.265-3.088.486a12.977 12.977 0 0 1-.104-.458Z" fill="#1C1B1F"/><path d="M16.96 13.987a2.139 2.139 0 0 0-2.143 2.134c0 1.179.96 2.135 2.143 2.135a2.139 2.139 0 0 0 2.143-2.135c0-1.178-.96-2.134-2.143-2.134Z" fill="#1C1B1F"/></svg>