<svg xmlns="http://www.w3.org/2000/svg" width="32" height="33" fill="none" viewBox="0 0 32 33"><path fill="#111827" fill-rule="evenodd" d="M.724 29.501A.5.5 0 0 1 0 29.054V4.53a1.333 1.333 0 0 1 1.333-1.334h29.334A1.333 1.333 0 0 1 32 4.53v24.524a.5.5 0 0 1-.724.447l-4.386-2.193a.5.5 0 0 0-.447 0l-4.886 2.443a.5.5 0 0 1-.447 0l-4.886-2.443a.5.5 0 0 0-.448 0l-4.886 2.443a.5.5 0 0 1-.447 0l-4.886-2.443a.5.5 0 0 0-.447 0zm5.61-16.971a1 1 0 0 1 1-1h17.333a1 1 0 1 1 0 2H7.333a1 1 0 0 1-1-1m1 4.333a1 1 0 1 0 0 2h17.333a1 1 0 0 0 0-2z" clip-rule="evenodd"/></svg>