<svg xmlns="http://www.w3.org/2000/svg" width="32" height="33" fill="none" viewBox="0 0 32 33"><path fill="#111827" fill-rule="evenodd" d="M14.348.942a3.31 3.31 0 0 1 4.515 1.208l-.798.462.798-.462L24 11.025l.644-2.4a1 1 0 0 1 1.932.517l-1.26 4.697a.997.997 0 0 1-1.257.733l-4.703-1.261a1 1 0 1 1 .518-1.932l2.391.641-5.133-8.868a1.308 1.308 0 0 0-2.264 0L11.414 9.12a1 1 0 1 1-1.731-1.002l3.454-5.968.866.501-.866-.501c.29-.502.708-.919 1.21-1.208M8.632 13.388a1 1 0 0 0-1.234-.741l-4.727 1.267a1 1 0 1 0 .518 1.932l2.392-.641-5.134 8.868a3.308 3.308 0 0 0 2.863 4.965h6.92a1 1 0 1 0 0-2H3.31a1.308 1.308 0 0 1-1.132-1.963L7.316 16.2l.643 2.4a1 1 0 0 0 1.932-.517zm19.466 4.717a1 1 0 0 0-1.731 1.002l3.455 5.969a1.308 1.308 0 0 1-1.132 1.962H18.414l1.754-1.753a1 1 0 0 0-1.414-1.414l-3.461 3.46a1 1 0 0 0-.293.707c0 .284.118.54.308.722l3.446 3.448a1 1 0 0 0 1.415-1.414l-1.755-1.756H28.69a3.308 3.308 0 0 0 2.863-4.965z" clip-rule="evenodd"/></svg>