<svg xmlns="http://www.w3.org/2000/svg" width="32" height="32" fill="none" viewBox="0 0 32 32"><path fill="#111827" fill-rule="evenodd" d="M24.572 6.286a2.286 2.286 0 1 0-1.895-3.565 1 1 0 0 0-.213-.057l-5.17-.795a1 1 0 0 0-1.137.824L15.014 9.55a1 1 0 0 0-.014.187c-3.362.155-6.417 1.084-8.799 2.531a3.428 3.428 0 1 0-4.516 4.97A7.4 7.4 0 0 0 1.143 20c0 5.68 6.652 10.286 14.857 10.286S30.857 25.68 30.857 20a7.4 7.4 0 0 0-.541-2.762 3.429 3.429 0 1 0-4.517-4.97c-2.38-1.446-5.431-2.374-8.79-2.53l.958-5.742 4.193.645q.112.016.22.01a2.29 2.29 0 0 0 2.192 1.635M10.286 20.57a2.286 2.286 0 1 0 0-4.57 2.286 2.286 0 0 0 0 4.57m11.321 3.543a1 1 0 0 1-.431 1.347 11.31 11.31 0 0 1-10.351 0 1 1 0 1 1 .915-1.779 9.31 9.31 0 0 0 8.52 0 1 1 0 0 1 1.347.432M24 18.286a2.286 2.286 0 1 1-4.571 0 2.286 2.286 0 0 1 4.571 0" clip-rule="evenodd"/></svg>