<svg xmlns="http://www.w3.org/2000/svg" width="32" height="33" fill="none" viewBox="0 0 32 33"><path fill="#111827" fill-rule="evenodd" d="M8.72 14.913c.215 0 .388.173.388.387a7.84 7.84 0 0 0 3.742 6.687.387.387 0 1 1-.405.66A8.61 8.61 0 0 1 8.334 15.3c0-.214.173-.387.387-.387M16.95 7.458c-.87 0-1.707.141-2.489.403a.387.387 0 0 1-.246-.735 8.6 8.6 0 0 1 2.736-.443 8.62 8.62 0 0 1 7.819 4.99.387.387 0 0 1-.703.327 7.84 7.84 0 0 0-7.116-4.542m-5.519 1.725c.15.152.15.398-.002.548a7.9 7.9 0 0 0-1.573 2.221.387.387 0 1 1-.7-.33 8.6 8.6 0 0 1 1.727-2.44.387.387 0 0 1 .548.001" clip-rule="evenodd"/><path fill="#111827" fill-rule="evenodd" d="M16.733 6.097c-5.084 0-9.082 4.163-9.082 9.257 0 5.091 4.169 9.35 9.255 9.35 5.091 0 9.352-4.199 9.352-9.286 0-.554-.06-1.258-.154-1.784l-.017-.096 2.96-3.14.28.265-2.825 3c.088.535.143 1.212.143 1.755 0 5.305-4.438 9.673-9.739 9.673-5.305 0-9.642-4.437-9.642-9.737 0-5.298 4.162-9.644 9.47-9.644 3.814 0 7.4 2.24 8.963 5.477L28.18 8.41l.29.258-2.881 3.22-.121-.274c-1.426-3.234-4.961-5.517-8.735-5.517" clip-rule="evenodd"/><path fill="#111827" fill-rule="evenodd" d="M16.93 2.799c-6.857 0-12.416 5.558-12.416 12.415 0 2.472.722 4.774 1.967 6.708l.368.572-4.685 3.95A1.708 1.708 0 1 0 4.57 28.85l.004-.005 3.852-4.552.59.488a12.36 12.36 0 0 0 7.914 2.848c6.856 0 12.415-5.558 12.415-12.415 0-1.625-.133-2.997-.7-4.418l1.128-1.15c.638 1.6 1.121 3.743 1.121 5.568 0 7.712-6.252 13.964-13.964 13.964a13.9 13.9 0 0 1-8.298-2.73L5.761 29.84l-.002.003a3.257 3.257 0 1 1-4.588-4.588l.002-.002 3.65-3.077a13.9 13.9 0 0 1-1.858-6.963C2.965 7.502 9.217 1.25 16.93 1.25c5.196 0 9.728 2.838 12.133 7.046l-1.138.975C25.785 5.527 21.548 2.8 16.93 2.8" clip-rule="evenodd"/><path fill="#111827" d="M13.234 22.208A7.84 7.84 0 0 1 9.108 15.3h-.774a8.62 8.62 0 0 0 4.9 7.777z"/><path fill="#111827" fill-rule="evenodd" d="M20.077 9.317v8.02a.9.9 0 0 0-.366.16l-.744-.427.001-.052a.89.89 0 0 0-1.5-.649V9.317zm-2 8.592a.9.9 0 0 1-.328-.063l-.282.263v5.793a8.6 8.6 0 0 0 2.61-.57V19.09a.89.89 0 0 1-.727-.906l-.76-.436a.9.9 0 0 1-.512.162m3.054.305a.9.9 0 0 1-.24.608v4.139c.157-.078.357-.187.582-.328l.04-.021a8.7 8.7 0 0 0 1.092-.81c.302-.258.605-.553.886-.882v-.01q.532-.62.942-1.333a.387.387 0 1 0-.672-.385 8 8 0 0 1-.27.437v-3.253a.89.89 0 0 1-1.091.254l-1.3 1.35a1 1 0 0 1 .031.233m1.81-3.263a.89.89 0 0 0-1.023 1.063l-1.027 1.067v-2.91h2.6v.208zm-6.26-3.766v6.598l-.847.79a.89.89 0 0 0-.833.123l-.93-.568v-6.943zm-2.04 8.2-.57-.35v4.39c.82.29 1.698.46 2.61.488v-5.07l-.305.284a.89.89 0 0 1-.844 1.176.89.89 0 0 1-.89-.919m-2.352-1.087-1.03 1.032a.9.9 0 0 0-.568-.017v-5.086h2.543v2.961a.893.893 0 0 0-.945 1.11m.504.593-.997.997a.89.89 0 0 1-1.105 1.13v.252c.43.435 1.45 1.307 2.543 1.77v-4.078a.9.9 0 0 1-.441-.072" clip-rule="evenodd"/><path fill="#111827" fill-rule="evenodd" d="M25.654 12.443a.393.393 0 1 0 0 .786.393.393 0 0 0 0-.786m-.703.393a.703.703 0 1 1 1.406 0 .703.703 0 0 1-1.406 0m-2.162 2.6a.393.393 0 1 0 0 .786.393.393 0 0 0 0-.787m-.703.392a.703.703 0 1 1 1.406 0 .703.703 0 0 1-1.406 0m-4.009.797a.393.393 0 1 0 0 .786.393.393 0 0 0 0-.786m-.703.393a.703.703 0 1 1 1.406 0 .703.703 0 0 1-1.406 0m-4.222.664a.393.393 0 1 0 0 .786.393.393 0 0 0 0-.786m-.703.393a.703.703 0 1 1 1.406 0 .703.703 0 0 1-1.406 0m7.791-.255a.393.393 0 1 0 0 .786.393.393 0 0 0 0-.786m-.703.393a.703.703 0 1 1 1.406 0 .703.703 0 0 1-1.406 0m-4.005.806a.393.393 0 1 0 0 .786.393.393 0 0 0 0-.786m-.703.393a.703.703 0 1 1 1.406 0 .703.703 0 0 1-1.406 0m-3.88.36a.393.393 0 1 0 0 .786.393.393 0 0 0 0-.786m-.703.393a.703.703 0 1 1 1.406 0 .703.703 0 0 1-1.406 0" clip-rule="evenodd"/><path fill="#111827" d="m32 6.097-2.148.62.666.64-4.756 4.942a.55.55 0 0 1 .333.212l4.702-4.885.666.641zM25.346 13.29a.55.55 0 0 1-.225-.325l-2.236 2.324c.137.024.257.1.338.206zM20.522 17.743l1.73-1.798c.03.136.11.253.22.33l-1.709 1.776a.55.55 0 0 0-.241-.308M19.694 18.158a.55.55 0 0 1 .174-.347l-1.248-.716a.55.55 0 0 1-.186.34zM17.83 17.507l-1.8 1.678a.55.55 0 0 0-.275-.273l1.813-1.69a.55.55 0 0 0 .261.285M13.526 18.475a.55.55 0 0 0 .171-.349l1.455.89a.55.55 0 0 0-.167.352zM12.627 18.235c.04.13.126.239.24.308l-1.412 1.412a.55.55 0 0 0-.266-.282z"/></svg>