<svg xmlns="http://www.w3.org/2000/svg" width="32" height="33" fill="none" viewBox="0 0 32 33"><g clip-path="url(#a)"><path fill="#111827" fill-rule="evenodd" d="M8.72 16.03c.215 0 .388.174.388.387a7.838 7.838 0 0 0 3.742 6.687.387.387 0 1 1-.405.66 8.612 8.612 0 0 1-4.111-7.346c0-.214.173-.388.387-.388ZM16.95 8.575c-.87 0-1.707.142-2.489.403a.387.387 0 0 1-.246-.734 8.608 8.608 0 0 1 2.736-.443 8.618 8.618 0 0 1 7.819 4.99.387.387 0 0 1-.703.326 7.844 7.844 0 0 0-7.116-4.542Zm-5.519 1.726c.15.152.15.397-.002.548a7.864 7.864 0 0 0-1.573 2.22.387.387 0 1 1-.7-.33 8.64 8.64 0 0 1 1.727-2.44.387.387 0 0 1 .548.002Z" clip-rule="evenodd"/><path fill="#111827" fill-rule="evenodd" d="M16.733 7.214c-5.084 0-9.082 4.164-9.082 9.257 0 5.092 4.169 9.35 9.255 9.35 5.091 0 9.352-4.199 9.352-9.286 0-.553-.06-1.258-.154-1.784l-.017-.095 2.96-3.141.28.266-2.825 2.999c.088.536.143 1.213.143 1.755 0 5.305-4.438 9.673-9.739 9.673-5.305 0-9.642-4.436-9.642-9.737 0-5.298 4.162-9.644 9.47-9.644 3.814 0 7.4 2.241 8.963 5.477l2.483-2.777.29.259-2.881 3.22-.121-.275c-1.426-3.234-4.961-5.517-8.735-5.517Z" clip-rule="evenodd"/><path fill="#111827" fill-rule="evenodd" d="M16.93 3.916c-6.857 0-12.416 5.559-12.416 12.415 0 2.473.722 4.774 1.967 6.709l.368.572-4.685 3.95a1.708 1.708 0 1 0 2.406 2.405l.004-.004 3.852-4.553.59.489a12.362 12.362 0 0 0 7.914 2.848c6.856 0 12.415-5.559 12.415-12.416 0-1.625-.133-2.997-.7-4.417l1.128-1.151c.638 1.6 1.121 3.743 1.121 5.568 0 7.713-6.252 13.965-13.964 13.965a13.905 13.905 0 0 1-8.298-2.731l-2.871 3.394-.002.002a3.257 3.257 0 1 1-4.588-4.588l.002-.002 3.65-3.077a13.904 13.904 0 0 1-1.858-6.963c0-7.712 6.252-13.964 13.965-13.964 5.196 0 9.728 2.839 12.133 7.046l-1.138.976c-2.14-3.745-6.377-6.473-10.995-6.473Z" clip-rule="evenodd"/><path fill="#111827" d="M13.234 23.325a7.841 7.841 0 0 1-4.126-6.907h-.774a8.618 8.618 0 0 0 4.9 7.776v-.869ZM23.491 15.496v-.208h-2.6v2.91l2.6-2.702ZM20.077 18.825v-8.39h-2.61v7.732l.558-.52 2.052 1.178ZM17.467 19.227l.668-.624 1.942 1.115v4.732a8.577 8.577 0 0 1-2.61.57v-5.793ZM16.681 18.9v-6.598h-2.61v6.943l1.353.828 1.257-1.172Z"/><path fill="#111827" d="m14.071 20.153 1.451.888 1.159-1.081v5.07a8.594 8.594 0 0 1-2.61-.488v-4.389ZM13.234 18.733l-.163-.1-2.188 2.19.547.547 1.758-1.757.046.028v4.517c-1.094-.463-2.113-1.335-2.544-1.77v-7.044h2.544v3.39ZM20.89 19.315l2.601-2.702v4.134c.095-.143.184-.288.27-.437a.387.387 0 1 1 .672.385 8.637 8.637 0 0 1-.942 1.333v.01a8.133 8.133 0 0 1-.886.882 8.64 8.64 0 0 1-1.092.809.406.406 0 0 1-.04.022c-.226.14-.425.25-.582.327v-4.763Z"/><circle cx="10.949" cy="21.283" r=".891" fill="#fff"/><circle cx="15.532" cy="20.529" r=".891" fill="#fff"/><circle cx="20.24" cy="19.331" r=".891" fill="#fff"/><circle cx="13.152" cy="19.193" r=".891" fill="#fff"/><circle cx="18.077" cy="18.135" r=".891" fill="#fff"/><circle cx="22.789" cy="16.946" r=".891" fill="#fff"/><path fill="#111827" fill-rule="evenodd" d="M25.654 13.56a.393.393 0 1 0 0 .787.393.393 0 0 0 0-.787Zm-.703.394a.703.703 0 1 1 1.406 0 .703.703 0 0 1-1.406 0Zm-2.162 2.598a.393.393 0 1 0 0 .787.393.393 0 0 0 0-.787Zm-.703.394a.703.703 0 1 1 1.406 0 .703.703 0 0 1-1.406 0Zm-4.009.796a.393.393 0 1 0 0 .787.393.393 0 0 0 0-.787Zm-.703.393a.703.703 0 1 1 1.406 0 .703.703 0 0 1-1.406 0Zm-4.222.664a.393.393 0 1 0 0 .787.393.393 0 0 0 0-.787Zm-.703.393a.703.703 0 1 1 1.406 0 .703.703 0 0 1-1.406 0Zm7.791-.255a.393.393 0 1 0 0 .787.393.393 0 0 0 0-.787Zm-.703.394a.703.703 0 1 1 1.406 0 .703.703 0 0 1-1.406 0Zm-4.005.805a.393.393 0 1 0 0 .787.393.393 0 0 0 0-.787Zm-.703.393a.703.703 0 1 1 1.406 0 .703.703 0 0 1-1.406 0Zm-3.88.36a.393.393 0 1 0 0 .787.393.393 0 0 0 0-.786Zm-.703.394a.703.703 0 1 1 1.406 0 .703.703 0 0 1-1.406 0Z" clip-rule="evenodd"/><path fill="#111827" d="m32 7.214-2.148.62.666.641-4.756 4.941a.548.548 0 0 1 .333.213l4.702-4.885.666.64.537-2.17ZM25.346 14.407a.55.55 0 0 1-.225-.325l-2.237 2.324c.138.024.258.1.34.206l2.122-2.205ZM20.522 18.86l1.73-1.798c.03.136.11.253.22.331l-1.709 1.775a.55.55 0 0 0-.241-.307ZM19.694 19.276a.547.547 0 0 1 .173-.348l-1.247-.716a.548.548 0 0 1-.187.34l1.261.724ZM17.829 18.624l-1.799 1.678a.55.55 0 0 0-.275-.273l1.812-1.69a.55.55 0 0 0 .262.285ZM13.526 19.593a.547.547 0 0 0 .171-.35l1.455.89a.547.547 0 0 0-.167.352l-1.46-.892ZM12.627 19.352c.04.13.125.24.239.309l-1.411 1.411a.55.55 0 0 0-.266-.282l1.438-1.438Z"/></g><defs><clipPath id="a"><path fill="#fff" d="M0 .132h32v32H0z"/></clipPath></defs></svg>