<svg xmlns="http://www.w3.org/2000/svg" width="32" height="33" fill="none"><path fill="#111827" fill-rule="evenodd" d="M26.403 1.115A1 1 0 1 0 24.99 2.53l3.596 3.595H11a11 11 0 0 0-10.999 11 1 1 0 1 0 2 0 9 9 0 0 1 9-9h17.584l-3.596 3.596a1 1 0 0 0 1.414 1.415l5.303-5.303a1 1 0 0 0 0-1.415l-5.303-5.303ZM31.999 15.875a1 1 0 0 0-2 0 9 9 0 0 1-9 9H3.416l3.596-3.596a1 1 0 1 0-1.414-1.414l-5.29 5.29a.997.997 0 0 0-.001 1.438l5.291 5.292a1 1 0 0 0 1.414-1.415l-3.596-3.595H21a11 11 0 0 0 10.999-11Z" clip-rule="evenodd"/></svg>