<svg xmlns="http://www.w3.org/2000/svg" width="32" height="33" fill="none" viewBox="0 0 32 33"><path fill="#111827" fill-rule="evenodd" d="M13.604 4.058a1 1 0 1 0 0 2h4.902a1 1 0 1 0 0-2zm-4.002 4.2a1 1 0 0 1 1-1h10.905a1 1 0 0 1 0 2H10.602a1 1 0 0 1-1-1m-6.44 4.134a2 2 0 0 1 2-2h21.677a2 2 0 0 1 2 2v14.55a2 2 0 0 1-2 2H5.162a2 2 0 0 1-2-2zm7.517 10.624a3.2 3.2 0 1 0 0-6.4 3.2 3.2 0 0 0 0 6.4m13.59-3.2a3.2 3.2 0 1 1-6.4 0 3.2 3.2 0 0 1 6.4 0m5.215 3.104v-6.21A2.527 2.527 0 0 1 32 19.239v1.166a2.516 2.516 0 0 1-2.516 2.516M2.516 16.71v6.21A2.516 2.516 0 0 1 0 20.404v-1.166a2.527 2.527 0 0 1 2.516-2.527" clip-rule="evenodd"/></svg>