<svg xmlns="http://www.w3.org/2000/svg" width="32" height="34" fill="none" viewBox="0 0 32 34"><path fill="#111827" fill-rule="evenodd" d="m3.175 33.071 7.543-5.455h10.59V27.6l7.516 5.446a1 1 0 0 0 1.587-.81v-9.32a1 1 0 0 0-.283-.698l-8.82-9.058v-2.745c-.105-5.08-2.978-8.282-4.764-9.524a.86.86 0 0 0-.946-.019c-4.176 2.566-5.013 7.384-4.897 9.543v2.74l-8.829 9.08a1 1 0 0 0-.283.697v9.33a1 1 0 0 0 1.586.81m18.134-17.045v9.103l7.102 5.147V23.32zM3.589 30.304 10.7 25.16v-9.137L3.59 23.337zm9.603.436a1 1 0 1 0 0 2h4.936a1 1 0 1 0 0-2z" clip-rule="evenodd"/></svg>