<svg xmlns="http://www.w3.org/2000/svg" width="32" height="32" fill="none" viewBox="0 0 32 32"><path fill="#111827" fill-rule="evenodd" d="M.477 1.001a1 1 0 0 1 1-1 30.52 30.52 0 0 1 30.522 30.522 1 1 0 1 1-2 0A28.52 28.52 0 0 0 1.477 2a1 1 0 0 1-1-1m1 7.857a1 1 0 1 0 0 2 19.665 19.665 0 0 1 19.665 19.665 1 1 0 1 0 2 0A21.665 21.665 0 0 0 1.477 8.858m0 8.856a1 1 0 1 0 0 2 10.81 10.81 0 0 1 10.809 10.809 1 1 0 1 0 2 0A12.81 12.81 0 0 0 1.477 17.714m2.952 12.07a2.214 2.214 0 1 1-4.428 0 2.214 2.214 0 0 1 4.428 0" clip-rule="evenodd"/></svg>