<svg xmlns="http://www.w3.org/2000/svg" width="33" height="33" fill="none" viewBox="0 0 33 33"><g clip-path="url(#a)"><path fill="#111827" fill-rule="evenodd" d="m15.774 28.729-5.971-14.63h11.943l-5.972 14.63Zm-2.859-1.713L7.642 14.098H.54l12.376 12.918Zm5.712.016L31.02 14.098h-7.113l-5.279 12.934Zm13.413-14Zm-.588-.934-4.14-6.341-2.59 6.341h6.73Zm-5.625-7.997h-7.552l5.085 6.044L25.827 4.1Zm-12.17 0H5.722l2.592 6.35 5.343-6.35ZM4.216 5.703.04 12.098h6.786l-2.61-6.395Zm11.75-1.24 6.424 7.635H9.542l6.424-7.635Z" clip-rule="evenodd"/></g><defs><clipPath id="a"><path fill="#fff" d="M.04.415h32v32h-32z"/></clipPath></defs></svg>