<svg width="33" height="33" fill="none" xmlns="http://www.w3.org/2000/svg"><path d="M8.652 7.052V4.283M14.19 7.052V4.283M25.268 7.052V4.283M8.652 28.283v-2.77M14.19 28.283v-2.77M19.73 7.052V4.283M19.73 28.283v-2.77M25.268 28.283v-2.77" stroke="#1C1B1F" stroke-width="2" stroke-linecap="round" stroke-linejoin="round"/><rect x="8.652" y="7.052" width="16.615" height="18.462" rx=".5" stroke="#1C1B1F" stroke-width="2"/><path d="m14.157 15.932 2.596-4.182a.1.1 0 0 1 .168-.004l2.837 4.183a.1.1 0 0 1 .003.107l-2.837 4.76a.1.1 0 0 1-.174-.003l-2.596-4.76a.1.1 0 0 1 .003-.1Z" fill="#1C1B1F" stroke="#1C1B1F" stroke-width="2" stroke-linecap="round" stroke-linejoin="round"/></svg>