<svg xmlns="http://www.w3.org/2000/svg" width="32" height="33" fill="none" viewBox="0 0 32 33"><path fill="#111827" fill-rule="evenodd" d="M13.538 1.5a1 1 0 1 0-2 0v2.46H6.615V1.5a1 1 0 1 0-2 0v3.462c0 .077.009.151.025.223-.016.09-.025.182-.025.276v22.077c0 .094.009.186.025.276a1.003 1.003 0 0 0-.025.224V31.5a1 1 0 1 0 2 0v-2.462h4.923V31.5a1 1 0 1 0 2 0v-2.462h4.924V31.5a1 1 0 1 0 2 0v-2.462h4.923V31.5a1 1 0 1 0 2 0v-3.462a1 1 0 0 0-.026-.224c.017-.09.026-.182.026-.276V5.461a1.51 1.51 0 0 0-.026-.275c.017-.072.026-.147.026-.224V1.499a1 1 0 1 0-2 0v2.462h-4.923V1.499a1 1 0 1 0-2 0v2.462h-4.924V1.499ZM6.615 5.96h5.883a1.019 1.019 0 0 0 .08 0h6.844a1.028 1.028 0 0 0 .08 0h5.883v21.078H6.615V5.961Zm8.821 5.364-2.825 4.552a.5.5 0 0 0-.014.503l2.826 5.18a.5.5 0 0 0 .868.017l3.087-5.18a.5.5 0 0 0-.015-.536l-3.088-4.553a.5.5 0 0 0-.839.017Z" clip-rule="evenodd"/></svg>