<svg xmlns="http://www.w3.org/2000/svg" width="32" height="33" fill="none" viewBox="0 0 32 33"><path fill="#111827" fill-rule="evenodd" d="M13.538 1.5a1 1 0 1 0-2 0v2.46H6.615V1.5a1 1 0 1 0-2 0v3.462q0 .115.025.223-.024.135-.025.276v22.077q0 .141.025.276a1 1 0 0 0-.025.224V31.5a1 1 0 1 0 2 0v-2.462h4.923V31.5a1 1 0 1 0 2 0v-2.462h4.924V31.5a1 1 0 1 0 2 0v-2.462h4.923V31.5a1 1 0 1 0 2 0v-3.462a1 1 0 0 0-.026-.224q.026-.135.026-.276V5.461a1.5 1.5 0 0 0-.026-.275q.026-.108.026-.224V1.499a1 1 0 1 0-2 0v2.462h-4.923V1.499a1 1 0 1 0-2 0v2.462h-4.924zM6.615 5.96h18.77v21.078H6.615zm8.821 5.364-2.825 4.552a.5.5 0 0 0-.014.503l2.826 5.18a.5.5 0 0 0 .868.017l3.087-5.18a.5.5 0 0 0-.015-.536l-3.088-4.553a.5.5 0 0 0-.839.017" clip-rule="evenodd"/></svg>