<svg xmlns="http://www.w3.org/2000/svg" width="32" height="33" fill="none" viewBox="0 0 32 33"><path fill="#111827" fill-rule="evenodd" d="M30.887 17.406 32 16.717l-1.113-.69a15 15 0 0 0-.15-1.539l.954-.892-1.223-.459a15 15 0 0 0-.45-1.478l.765-1.065-1.296-.211q-.33-.7-.729-1.358l.546-1.199-1.319.047q-.457-.617-.973-1.184l.303-1.287-1.287.303q-.567-.516-1.184-.973l.047-1.32-1.2.547a15 15 0 0 0-1.357-.73l-.211-1.295-1.065.765a15 15 0 0 0-1.479-.45l-.458-1.223-.892.955a15 15 0 0 0-1.54-.151L16 .717l-.69 1.113q-.78.036-1.539.15l-.892-.954-.458 1.223q-.756.188-1.48.45l-1.064-.765-.21 1.295q-.701.33-1.36.73L7.11 3.413l.047 1.318q-.618.457-1.185.974l-1.286-.303.303 1.286q-.517.567-.974 1.185l-1.318-.047.546 1.198q-.4.66-.73 1.36l-1.295.21.765 1.065q-.262.723-.45 1.479l-1.223.458.955.892q-.115.76-.151 1.54L0 16.717l1.113.69q.036.78.15 1.539l-.954.892 1.223.459q.188.755.45 1.478l-.765 1.065 1.296.211q.33.7.729 1.358l-.546 1.199 1.319-.047q.457.617.973 1.184l-.303 1.287 1.287-.303q.567.517 1.184.973l-.047 1.32 1.2-.547q.657.4 1.357.73l.211 1.295 1.065-.765q.723.262 1.479.45l.458 1.223.892-.955q.76.115 1.54.151L16 32.717l.69-1.113q.78-.036 1.539-.15l.892.954.459-1.223q.755-.187 1.478-.45l1.065.765.211-1.296q.7-.33 1.358-.729l1.199.546-.047-1.319q.617-.456 1.184-.973l1.287.303-.303-1.287q.517-.567.973-1.184l1.32.047-.547-1.199q.4-.658.73-1.358l1.295-.211-.765-1.065q.262-.723.45-1.478l1.223-.459-.955-.892q.115-.76.151-1.54M16.653 3.434a.98.98 0 0 0-1.059-.23.981.981 0 1 0 1.059.23M23 6.784a12.1 12.1 0 0 0-4.778-2.031l-1.69 1.61a.89.89 0 0 1-1.261-.028l-1.51-1.582a12.07 12.07 0 0 0-6.75 3.808h12.8c.321 0 1.513.142 2.591.851.766.508 1.892 1.542 1.892 3.185 0 1.52-1.261 2.657-2.475 3.426l.068.054c.938.74 1.536 1.212 1.9 3.254.087.384.784.722 1.415.65.662-.073 1.415-.367 1.415-1.703v-.568c0-.12.05-.202.174-.202h1.239q.078-1.047-.025-2.093l-2.226-.987a.9.9 0 0 1-.454-1.182l1.157-2.61A12.1 12.1 0 0 0 23 6.784M4.963 12.307a.98.98 0 1 0-1.407 1.366.98.98 0 0 0 1.407-1.366m23.377.044a.98.98 0 1 0-1.407 1.367.98.98 0 0 0 1.407-1.367m-20.496-.14H6.135l.435.981a.893.893 0 0 1-.454 1.18l-2.112.939a12.1 12.1 0 0 0 .39 4.606h3.45zm9.493.083h-4.07l-.003 2.273h3.776c.804 0 1.782-.284 1.782-1.075 0-.955-1.274-1.198-1.485-1.198m-.952 5.536h-3.118l-.003 2.21h2.884c.11 0 .186.022.186.123v3.487c0 .104-.075.123-.186.123H6.29q.481.653 1.046 1.236l2.028-.435a.893.893 0 0 1 1.059.687l.492 2.295a12.07 12.07 0 0 0 10.06.047l.492-2.295a.896.896 0 0 1 1.062-.687l2.072.444q.604-.606 1.116-1.292h-5.089c-.804 0-1.557-1.135-1.743-1.703-.12-.328-.278-1.106-.407-1.747-.07-.349-.133-.657-.177-.828-.394-1.583-1.633-1.665-1.916-1.665m-6.993 8.283a.98.98 0 1 0-1.406 1.366.98.98 0 0 0 1.406-1.366m14.519.044a.98.98 0 1 0-1.407 1.366.98.98 0 0 0 1.406-1.366" clip-rule="evenodd"/></svg>