<svg xmlns="http://www.w3.org/2000/svg" width="32" height="33" fill="none" viewBox="0 0 32 33"><path fill="#111827" fill-rule="evenodd" d="M15.996 2.535a1 1 0 0 1 1 1v3.468l9.39-2.087a1 1 0 0 1 1.21.852L32 16.778c0 2.604-2.947 3.536-4.715 3.536s-4.714-.932-4.714-3.536l3.936-9.84-9.511 2.114v19.413h2.536a1 1 0 1 1 0 2H12.46a1 1 0 1 1 0-2h2.536V9.496l-9.391 2.087a1 1 0 0 1-.161.022l3.985 10.573c0 2.762-2.946 3.751-4.714 3.751S0 24.94 0 22.178L4.39 10.53a1 1 0 0 1 .781-.9l9.825-2.184V3.535a1 1 0 0 1 1-1" clip-rule="evenodd"/></svg>