<svg xmlns="http://www.w3.org/2000/svg" width="32" height="32" fill="none" viewBox="0 0 32 32"><path fill="#111827" fill-rule="evenodd" d="M1.001 0a1 1 0 0 0-1 1v7.5a1 1 0 0 0 2 0V2h6.5a1 1 0 1 0 0-2H1ZM23.5 0a1 1 0 1 0 0 2H30v6.5a1 1 0 0 0 2 0V1a1 1 0 0 0-1-1h-7.5ZM2 23.5a1 1 0 1 0-2 0v7.499a1 1 0 0 0 1 1h7.5a1 1 0 1 0 0-2H2v-6.5Zm29.998 0a1 1 0 1 0-2 0v6.499h-6.5a1 1 0 1 0 0 2H31a1 1 0 0 0 1-1v-7.5ZM8.82 7.819a1 1 0 0 0-1 1V23.18a1 1 0 0 0 1 1H23.18a1 1 0 0 0 1-1V8.82a1 1 0 0 0-1-1H8.82Z" clip-rule="evenodd"/></svg>