<svg xmlns="http://www.w3.org/2000/svg" width="32" height="32" fill="none" viewBox="0 0 32 32"><path fill="#111827" fill-rule="evenodd" d="M8.389 9.506a4.34 4.34 0 1 0-1.123 1.64q.043.036.09.07L14.35 16l-6.992 4.784a1 1 0 0 0-.091.07 4.34 4.34 0 1 0 1.123 1.64q.05-.027.097-.06l7.634-5.222 14.315 9.794a1 1 0 0 0 1.13-1.65L16.7 15.186l-.03-.022-8.184-5.599a1 1 0 0 0-.097-.059m23.436-4.251a1 1 0 0 1-.26 1.39L21.075 13.82a1 1 0 1 1-1.13-1.65l10.489-7.176a1 1 0 0 1 1.39.26" clip-rule="evenodd"/></svg>