<svg xmlns="http://www.w3.org/2000/svg" width="32" height="33" fill="none" viewBox="0 0 32 33"><path fill="#111827" fill-rule="evenodd" d="M.5 3.167a.5.5 0 0 0-.5.5v7.2c0 .27.216.491.486.507 9.66.543 17.393 8.3 17.9 17.971.013.27.234.488.505.488H31.5a.5.5 0 0 0 .5-.5V3.667a.5.5 0 0 0-.5-.5zM0 16.5a1 1 0 0 1 1-1 13.33 13.33 0 0 1 13.331 13.33 1 1 0 1 1-2 0A11.33 11.33 0 0 0 1.001 17.5a1 1 0 0 1-1-1m1 3.932a1 1 0 1 0 0 2 6.4 6.4 0 0 1 6.4 6.399 1 1 0 1 0 2 0A8.4 8.4 0 0 0 1 20.432m0 4.933a1 1 0 1 0 0 2 1.466 1.466 0 0 1 1.466 1.465 1 1 0 1 0 2 0 3.466 3.466 0 0 0-3.465-3.465" clip-rule="evenodd"/></svg>