<svg xmlns="http://www.w3.org/2000/svg" width="34" height="34" fill="none" viewBox="0 0 34 34"><path stroke="#111827" stroke-linecap="round" stroke-linejoin="round" stroke-width="2" d="M6.628 9.14h-4.97V4.96a3 3 0 0 1 3-3h1.97"/><path fill="#111827" fill-rule="evenodd" d="M6.57 1h20.61a2 2 0 0 1 2 2v21.175c0 .759.615 1.374 1.374 1.374.73 0 1.343.576 1.313 1.306C31.669 31.663 28.8 32.97 27.01 33H8.57a2 2 0 0 1-2-2V1Zm5.672 11.546a1 1 0 0 1 1-1h10.626a1 1 0 1 1 0 2H13.242a1 1 0 0 1-1-1Zm0 5.773a1 1 0 0 1 1-1h10.626a1 1 0 1 1 0 2H13.242a1 1 0 0 1-1-1Z" clip-rule="evenodd"/><path fill="#111827" fill-rule="evenodd" d="M32.344 24.86a.01.01 0 0 0-.01-.01H10.59a.01.01 0 0 0-.01.01v.434c1.755 0 3.179 1.512 3.179 3.376 0 1.846-1.397 3.347-3.13 3.374h18.715a3 3 0 0 0 3-3V24.86Z" clip-rule="evenodd"/><path fill="#111827" d="m10.629 32.044-.016-1a1 1 0 0 0 .016 2v-1Zm-.039-6.195h21.744v-2H10.59v2Zm.99-.555v-.435h-2v.435h2Zm-1 1c1.147 0 2.179 1.006 2.179 2.376h2c0-2.36-1.816-4.376-4.179-4.376v2Zm2.179 2.376c0 1.356-1.013 2.356-2.146 2.375l.032 2c2.332-.038 4.114-2.038 4.114-4.375h-2Zm8.703 2.374H10.629v2h10.833v-2Zm7.882 0h-7.882v2h7.882v-2Zm2-2a2 2 0 0 1-2 2v2a4 4 0 0 0 4-4h-2Zm0-4.185v4.185h2V24.86h-2Zm-21.764.435a1 1 0 0 0 1 1v-2a1 1 0 0 1 1 1h-2Zm22.754.555a.99.99 0 0 1-.99-.99h2a1.01 1.01 0 0 0-1.01-1.01v2Zm-21.744-2a1.01 1.01 0 0 0-1.01 1.01h2a.99.99 0 0 1-.99.99v-2Z"/></svg>