<svg xmlns="http://www.w3.org/2000/svg" width="32" height="32" fill="none" viewBox="0 0 32 32"><path fill="#111827" fill-rule="evenodd" d="M9.182 0a1 1 0 0 0-1 1v7.182H6.456a1 1 0 1 0 0 2h2.466a1 1 0 0 0 .52 0h.65a1 1 0 0 0 .09-1.996V2.001H30v19.817h-6.185a1 1 0 0 0-1.996.09v.83a1 1 0 0 0 0 .16v2.647a1 1 0 1 0 2 0v-1.727H31a1 1 0 0 0 1-1V1a1 1 0 0 0-1-1zm-8.18 8.182a1 1 0 0 0-1 1V11a1 1 0 1 0 2 0v-.818h.818a1 1 0 0 0 0-2zm12.726 0a1 1 0 1 0 0 2h3.636a1 1 0 0 0 0-2zm7.272 0a1 1 0 1 0 0 2h.818V11a1 1 0 1 0 2 0V9.182a1 1 0 0 0-1-1zM2.001 14.636a1 1 0 1 0-2 0v3.637a1 1 0 1 0 2 0zm21.817 0a1 1 0 0 0-2 0v3.637a1 1 0 1 0 2 0zM2.001 21.91a1 1 0 1 0-2 0v3.636a1 1 0 1 0 2 0zm0 7.272a1 1 0 1 0-2 0v1.818a1 1 0 0 0 1 1H2.82a1 1 0 0 0 0-2H2zm21.817 0a1 1 0 0 0-2 0v.818H21a1 1 0 1 0 0 2h1.818a1 1 0 0 0 1-1zm-17.362.818a1 1 0 1 0 0 2h3.636a1 1 0 0 0 0-2zm7.272 0a1 1 0 1 0 0 2h3.636a1 1 0 0 0 0-2z" clip-rule="evenodd"/></svg>