<svg xmlns="http://www.w3.org/2000/svg" width="32" height="32" fill="none" viewBox="0 0 32 32"><path fill="#111827" fill-rule="evenodd" d="M1.001 0a1 1 0 0 0-1 1v2.183a1 1 0 0 0 2 0V2h1.182a1 1 0 1 0 0-2H1Zm6.545 0a1 1 0 1 0 0 2h4.363a1 1 0 1 0 0-2H7.546Zm8.727 0a1 1 0 1 0 0 2h4.363a1 1 0 1 0 0-2h-4.363ZM25 0a1 1 0 1 0 0 2h1.181v1.183a1 1 0 1 0 2 0V1a1 1 0 0 0-1-1H25ZM2 7.547a1 1 0 1 0-2 0v4.363a1 1 0 1 0 2 0V7.546Zm26.18 0a1 1 0 1 0-2 0v4.363a1 1 0 1 0 2 0V7.546Zm-26.18 8.727a1 1 0 1 0-2 0v4.363a1 1 0 1 0 2 0v-4.363Zm26.18 0a1 1 0 1 0-2 0v4.363a1 1 0 1 0 2 0v-4.363ZM2.001 25a1 1 0 1 0-2 0v2.181a1 1 0 0 0 1 1h2.182a1 1 0 1 0 0-2H2V25Zm22.987 3.181h-1.624a1 1 0 0 1 0-2h2.817v-2.818a1 1 0 1 1 2 0v2.818H31a1 1 0 0 1 0 2H28.18V31a1 1 0 1 1-2 0v-2.818h-1.193Zm-17.442-2a1 1 0 0 0 0 2h4.363a1 1 0 1 0 0-2H7.546Zm8.727 0a1 1 0 0 0 0 2h4.363a1 1 0 1 0 0-2h-4.363Z" clip-rule="evenodd"/></svg>