<svg xmlns="http://www.w3.org/2000/svg" width="32" height="32" fill="none" viewBox="0 0 32 32"><path fill="#111827" fill-rule="evenodd" d="M1.708.294A1 1 0 1 0 .294 1.708l29.998 29.998a1 1 0 1 0 1.414-1.414zM11.122 2.5a1 1 0 0 0 0 2h2.172a1 1 0 1 0 0-2zm6.517 0a1 1 0 1 0 0 2h4.344a1 1 0 1 0 0-2zm8.688 0a1 1 0 0 0 0 2H27.5v1.173a1 1 0 1 0 2 0V3.501a1 1 0 0 0-1-1zm3.172 7.52a1 1 0 1 0-2 0v4.346a1 1 0 1 0 2 0zM4.501 11.114a1 1 0 0 0-2 0v2.173a1 1 0 1 0 2 0zm0 6.52a1 1 0 1 0-2 0v4.346a1 1 0 1 0 2 0zm24.998 1.08a1 1 0 1 0-2 0v2.173a1 1 0 1 0 2 0zM4.501 26.326a1 1 0 1 0-2 0v2.173a1 1 0 0 0 1 1h2.173a1 1 0 1 0 0-2H4.501zm5.52 1.173a1 1 0 1 0 0 2h4.346a1 1 0 1 0 0-2zm8.693 0a1 1 0 1 0 0 2h2.174a1 1 0 0 0 0-2z" clip-rule="evenodd"/></svg>