<svg xmlns="http://www.w3.org/2000/svg" width="32" height="32" fill="none" viewBox="0 0 32 32"><path fill="#111827" fill-rule="evenodd" d="M1.001 0a1 1 0 0 0-1 1v2.183a1 1 0 0 0 2 0V2h1.182a1 1 0 1 0 0-2zm6.545 0a1 1 0 1 0 0 2h4.363a1 1 0 1 0 0-2zm8.727 0a1 1 0 1 0 0 2h4.363a1 1 0 1 0 0-2zM25 0a1 1 0 1 0 0 2h1.181v1.183a1 1 0 1 0 2 0V1a1 1 0 0 0-1-1zM2 7.547a1 1 0 1 0-2 0v4.363a1 1 0 1 0 2 0zm26.18 0a1 1 0 1 0-2 0v4.363a1 1 0 1 0 2 0zm-26.18 8.727a1 1 0 1 0-2 0v4.363a1 1 0 1 0 2 0zm26.18 0a1 1 0 1 0-2 0v4.363a1 1 0 1 0 2 0zM2.001 25a1 1 0 1 0-2 0v2.181a1 1 0 0 0 1 1h2.182a1 1 0 1 0 0-2H2zm22.987 3.181h-1.624a1 1 0 0 1 0-2h2.817v-2.818a1 1 0 1 1 2 0v2.818H31a1 1 0 0 1 0 2H28.18V31a1 1 0 1 1-2 0v-2.818h-1.193m-17.442-2a1 1 0 0 0 0 2h4.363a1 1 0 1 0 0-2zm8.727 0a1 1 0 0 0 0 2h4.363a1 1 0 1 0 0-2z" clip-rule="evenodd"/></svg>