<svg xmlns="http://www.w3.org/2000/svg" width="32" height="32" fill="none" viewBox="0 0 32 32"><path fill="#111827" fill-rule="evenodd" d="M1.001.001a1 1 0 0 0-1 1v1.875a1 1 0 0 0 2 0v-.875h.875a1 1 0 1 0 0-2H1.001Zm5.625 0a1 1 0 0 0 0 2h3.75a1 1 0 1 0 0-2h-3.75Zm7.5 0a1 1 0 1 0 0 2h3.749a1 1 0 1 0 0-2h-3.75Zm7.499 0a1 1 0 1 0 0 2h3.75a1 1 0 1 0 0-2h-3.75Zm7.499 0a1 1 0 1 0 0 2h.875v.875a1 1 0 0 0 2 0V1.001a1 1 0 0 0-1-1h-1.875Zm2.875 6.625a1 1 0 1 0-2 0v3.75a1 1 0 0 0 2 0v-3.75ZM2 6.626a1 1 0 1 0-2 0v3.75a1 1 0 0 0 2 0v-3.75ZM32 14.126a1 1 0 1 0-2 0v3.749a1 1 0 0 0 2 0v-3.75ZM2 14.125a1 1 0 1 0-2 0v3.749a1 1 0 0 0 2 0v-3.75ZM32 21.623a1 1 0 1 0-2 0v3.75a1 1 0 0 0 2 0v-3.75ZM2 21.624a1 1 0 1 0-2 0v3.75a1 1 0 0 0 2 0v-3.75ZM32 29.124a1 1 0 1 0-2 0v.875h-.875a1 1 0 1 0 0 2h1.875a1 1 0 0 0 1-1v-1.875ZM2 29.124a1 1 0 1 0-2 0v1.875a1 1 0 0 0 1 1h1.875a1 1 0 1 0 0-2h-.875v-.875Zm4.625.875a1 1 0 1 0 0 2h3.75a1 1 0 1 0 0-2h-3.75Zm7.5 0a1 1 0 1 0 0 2h3.749a1 1 0 1 0 0-2h-3.75Zm7.499 0a1 1 0 1 0 0 2h3.75a1 1 0 1 0 0-2h-3.75ZM9.5 8.5a1 1 0 0 0-1 1v12.998a1 1 0 0 0 1 1H22.5a1 1 0 0 0 1-1V9.501a1 1 0 0 0-1-1h-13Z" clip-rule="evenodd"/></svg>