<svg xmlns="http://www.w3.org/2000/svg" width="32" height="32" fill="none" viewBox="0 0 32 32"><path fill="#111827" fill-rule="evenodd" d="M6.105.293a1 1 0 0 1-.002 1.415 13.98 13.98 0 0 0 0 19.789 1 1 0 1 1-1.413 1.415 15.98 15.98 0 0 1 0-22.62 1 1 0 0 1 1.415.001M9.89 5.494A1 1 0 1 0 8.477 4.08a10.63 10.63 0 0 0 0 15.047A1 1 0 0 0 9.89 17.71a8.63 8.63 0 0 1 0-12.216M23.52 4.08a1 1 0 1 0-1.413 1.415 8.63 8.63 0 0 1 0 12.216 1 1 0 0 0 1.413 1.416 10.63 10.63 0 0 0 0-15.047M27.308.292a1 1 0 1 0-1.413 1.416 13.98 13.98 0 0 1 0 19.789 1 1 0 0 0 1.413 1.415 15.98 15.98 0 0 0 0-22.62M16 18a1 1 0 0 1 1 1v12a1 1 0 1 1-2 0V19a1 1 0 0 1 1-1m5-7a5 5 0 1 1-10 0 5 5 0 0 1 10 0" clip-rule="evenodd"/></svg>