<svg xmlns="http://www.w3.org/2000/svg" width="32" height="32" fill="none" viewBox="0 0 32 32"><path fill="#111827" fill-rule="evenodd" d="M29.539 4.923a4.923 4.923 0 0 1-8.441 3.444q-.04.03-.083.06l-8.95 5.752a1 1 0 0 1-.085.05A4.9 4.9 0 0 1 12.308 16a4.9 4.9 0 0 1-.328 1.771q.044.022.086.05l8.95 5.753q.042.027.082.059a4.923 4.923 0 1 1-1.077 1.673 1 1 0 0 1-.087-.05l-8.95-5.753a1 1 0 0 1-.082-.059 4.923 4.923 0 1 1 0-6.889q.04-.03.082-.058l8.95-5.753q.042-.027.086-.05a4.923 4.923 0 1 1 9.518-1.77" clip-rule="evenodd"/></svg>