<svg xmlns="http://www.w3.org/2000/svg" width="33" height="33" fill="none"><path fill="#1C1B1F" d="M13.046 27.513a1.797 1.797 0 1 0 0-3.594 1.797 1.797 0 0 0 0 3.594ZM24.725 27.513a1.797 1.797 0 1 0 0-3.594 1.797 1.797 0 0 0 0 3.594Z"/><path fill="#1C1B1F" stroke="#1C1B1F" stroke-linecap="round" stroke-linejoin="round" stroke-width="2" d="M28.96 9.545H8.81l2.965 10.376a1.797 1.797 0 0 0 1.728 1.303h10.765a1.797 1.797 0 0 0 1.728-1.303L28.96 9.545Z"/><path stroke="#1C1B1F" stroke-linecap="round" stroke-linejoin="round" stroke-width="2" d="M4.96 5.053h1.857c.192 0 .378.064.531.181a.899.899 0 0 1 .318.47l1.256 4.202"/></svg>