<svg xmlns="http://www.w3.org/2000/svg" width="32" height="32" fill="none" viewBox="0 0 32 32"><path fill="#111827" fill-rule="evenodd" d="M1.124.001a1 1 0 1 0 0 2h2.473q.052 0 .1.035.047.036.068.103l.005.017 1.59 5.317a.5.5 0 0 0 .018.096l3.767 13.185a2.394 2.394 0 0 0 2.302 1.736h14.34a2.39 2.39 0 0 0 2.302-1.736l3.767-13.185a.5.5 0 0 0-.48-.638H7.285L5.688 1.59c-.13-.452-.4-.852-.774-1.14A2.16 2.16 0 0 0 3.597.001zm13.882 28.365a3.633 3.633 0 1 1-7.266 0 3.633 3.633 0 0 1 7.266 0m14.532 0a3.633 3.633 0 1 1-7.266 0 3.633 3.633 0 0 1 7.267 0" clip-rule="evenodd"/></svg>