<svg xmlns="http://www.w3.org/2000/svg" width="32" height="32" fill="none"><path fill="#111827" fill-rule="evenodd" d="M1 .513a1 1 0 0 0 0 2h2.478c.035 0 .07.011.1.035a.2.2 0 0 1 .07.105l.005.016 1.623 5.426 3.789 13.26a2.398 2.398 0 0 0 2.305 1.74h14.368a2.398 2.398 0 0 0 2.305-1.74l3.592-12.572a1 1 0 0 0-.961-1.275H7.188L5.571 2.103A2.2 2.2 0 0 0 4.797.96 2.165 2.165 0 0 0 3.478.513H1ZM13.16 29.089a2.398 2.398 0 1 1-4.796 0 2.398 2.398 0 0 1 4.796 0Zm15.586 0a2.398 2.398 0 1 1-4.796 0 2.398 2.398 0 0 1 4.796 0Z" clip-rule="evenodd"/></svg>