<svg width="33" height="33" fill="none" xmlns="http://www.w3.org/2000/svg"><path d="M13.716 28.283a2.519 2.519 0 1 0 0-5.037 2.519 2.519 0 0 0 0 5.037ZM23.79 28.283a2.519 2.519 0 1 0 0-5.037 2.519 2.519 0 0 0 0 5.037ZM28.041 8.431H9.434l2.738 9.582a1.66 1.66 0 0 0 1.595 1.203h9.941a1.659 1.659 0 0 0 1.596-1.203l2.738-9.582Z" fill="#1C1B1F" stroke="#1C1B1F" stroke-width="2" stroke-linecap="round" stroke-linejoin="round"/><path d="M5.878 4.283h1.715c.177 0 .35.059.49.167a.83.83 0 0 1 .294.435l1.16 3.88" stroke="#1C1B1F" stroke-width="2" stroke-linecap="round" stroke-linejoin="round"/></svg>