<svg xmlns="http://www.w3.org/2000/svg" width="32" height="33" fill="none"><path fill="#111827" fill-rule="evenodd" d="M25.111 3.414a1 1 0 1 0-1.414 1.414l2.875 2.875H25.7a9 9 0 0 0-7.271 3.696l-.442.606a1 1 0 1 0 1.616 1.178l.442-.606A7 7 0 0 1 25.7 9.703h.901l-2.904 2.904a1 1 0 0 0 1.414 1.414l4.597-4.597A.997.997 0 0 0 30 8.693a.999.999 0 0 0-.401-.791l-4.488-4.488Zm0 15.565a1 1 0 0 0-1.414 1.415l2.889 2.889H25.7a7 7 0 0 1-5.655-2.875l-6.561-8.995a9 9 0 0 0-7.271-3.696H2.999a1 1 0 0 0 0 2h3.214a7 7 0 0 1 5.655 2.875l6.56 8.995a9 9 0 0 0 7.272 3.696h.887l-2.89 2.89a1 1 0 0 0 1.414 1.414l4.597-4.597a1 1 0 0 0 0-1.414l-4.597-4.597ZM3 25.268a1 1 0 1 1 0-2h3.214a7 7 0 0 0 5.655-2.875l.442-.606a1 1 0 1 1 1.616 1.179l-.442.606a9 9 0 0 1-7.271 3.696H2.999Z" clip-rule="evenodd"/></svg>