<svg xmlns="http://www.w3.org/2000/svg" width="32" height="33" fill="none" viewBox="0 0 32 33"><path fill="#111827" fill-rule="evenodd" d="M21.475 29.401a1 1 0 0 0 1 1h6.476a1 1 0 0 0 1-1.023v-6.452a1 1 0 0 0-2 0v4.06L3.756 2.793a1 1 0 0 0-1.414 1.414l24.195 24.195h-4.062a1 1 0 0 0-1 1Zm1-26.802a1 1 0 0 0 0 2h4.061l-6.94 6.94a1 1 0 1 0 1.415 1.414l6.94-6.94v4.061a1 1 0 1 0 2 0V3.6a1 1 0 0 0-1-1h-6.476ZM2.342 30.208a1 1 0 0 0 1.414 0l8.845-8.845a1 1 0 1 0-1.414-1.415l-8.845 8.845a1 1 0 0 0 0 1.415Z" clip-rule="evenodd"/></svg>