<svg xmlns="http://www.w3.org/2000/svg" width="32" height="33" fill="none" viewBox="0 0 32 33"><path fill="#111827" fill-rule="evenodd" d="M25.112 3.413a1 1 0 1 0-1.414 1.415l2.874 2.874h-4.938a1 1 0 0 0-.808.411l-2.839 3.891a1 1 0 0 0 1.616 1.179l2.54-3.48h4.459l-2.904 2.903a1 1 0 0 0 1.414 1.415l4.596-4.597a.997.997 0 0 0 .293-.732.999.999 0 0 0-.402-.79l-4.487-4.489Zm0 15.566a1 1 0 0 0-1.414 1.414l2.889 2.89h-4.445L11.088 8.127a1 1 0 0 0-.808-.41H3a1 1 0 1 0 0 2h6.772l11.054 15.154a1 1 0 0 0 .808.41h4.953l-2.89 2.89a1 1 0 0 0 1.415 1.414l4.596-4.596a1 1 0 0 0 0-1.414l-4.596-4.597ZM3 25.268a1 1 0 1 1 0-2h6.772l2.538-3.481a1 1 0 0 1 1.616 1.179l-2.838 3.891a1 1 0 0 1-.808.41H3Z" clip-rule="evenodd"/></svg>