<svg xmlns="http://www.w3.org/2000/svg" width="32" height="32" fill="none" viewBox="0 0 32 32"><path fill="#111827" fill-rule="evenodd" d="M9.772 2.5H1a1 1 0 0 0-1 1v25a1 1 0 0 0 1 1h30a1 1 0 0 0 1-1v-25a1 1 0 0 0-1-1H9.773m1.028 2v23H30v-23zm2.85 6.745a1.5 1.5 0 0 1 1.5-1.5h7.696a1.5 1.5 0 0 1 1.5 1.5v1.981h1.982a1.5 1.5 0 0 1 1.5 1.5v7.722a1.5 1.5 0 0 1-1.5 1.5h-7.696a1.5 1.5 0 0 1-1.5-1.5v-1.982H15.15a1.5 1.5 0 0 1-1.5-1.5zm3.482 7.222v-3.74a1.5 1.5 0 0 1 1.5-1.5h3.714v-1.482H15.65v6.722zm2 3.481v-6.722h6.696v6.722z" clip-rule="evenodd"/></svg>