<svg xmlns="http://www.w3.org/2000/svg" width="32" height="32" fill="none" viewBox="0 0 32 32"><path fill="#111827" fill-rule="evenodd" d="M26.968 2.051a.2.2 0 0 1 .38 0l.938 2.885a.2.2 0 0 0 .19.138h3.032a.2.2 0 0 1 .118.362l-2.454 1.782a.2.2 0 0 0-.072.224l.937 2.884a.2.2 0 0 1-.308.223l-2.453-1.782a.2.2 0 0 0-.235 0l-2.454 1.782a.2.2 0 0 1-.308-.223l.938-2.884a.2.2 0 0 0-.073-.224l-2.453-1.782a.2.2 0 0 1 .117-.362h3.033a.2.2 0 0 0 .19-.138zM.999 30.087a1 1 0 0 1-1-1V4.085a1 1 0 0 1 1-1h18.965a1 1 0 1 1 0 2H10.8v23.002h19.201v-14.99a1 1 0 1 1 2 0v15.99a1 1 0 0 1-1 1H1M19.247 12.05a.2.2 0 0 0-.38 0l-.779 2.395a.2.2 0 0 1-.19.138H15.38a.2.2 0 0 0-.118.362l2.038 1.48a.2.2 0 0 1 .072.224l-.778 2.396a.2.2 0 0 0 .308.223l2.037-1.48a.2.2 0 0 1 .236 0l2.037 1.48a.2.2 0 0 0 .308-.223l-.778-2.396a.2.2 0 0 1 .072-.223l2.038-1.48a.2.2 0 0 0-.118-.363h-2.518a.2.2 0 0 1-.19-.138z" clip-rule="evenodd"/></svg>