<svg xmlns="http://www.w3.org/2000/svg" width="32" height="32" fill="none" viewBox="0 0 32 32"><path fill="#111827" fill-rule="evenodd" d="M1 2.554a1 1 0 0 0-1 1v24.89a1 1 0 0 0 1 1h8.714a1 1 0 0 0 .096 0h10.07a1 1 0 1 0 0-2h-9.118V4.555h19.107v14.918a1 1 0 1 0 2 0V3.554a1 1 0 0 0-1-1zM14.778 14.31a.5.5 0 0 1-.183-.684l2.714-4.7a.5.5 0 0 1 .683-.183l4.7 2.714a.5.5 0 0 1 .183.683l-2.713 4.7a.5.5 0 0 1-.683.183zm9.908 5.104a.5.5 0 0 1 .837-.224l6.33 6.33a.5.5 0 0 1-.224.837l-8.648 2.317a.5.5 0 0 1-.612-.612z" clip-rule="evenodd"/></svg>