<svg xmlns="http://www.w3.org/2000/svg" width="32" height="32" fill="none"><path fill="#111827" fill-rule="evenodd" d="M28.358 32H3.642a1 1 0 0 1-1-1V1a1 1 0 0 1 1-1h15.95a1 1 0 0 1 .708.293l8.765 8.765a1 1 0 0 1 .293.707V31a1 1 0 0 1-1 1ZM7.986 13.635h16.029a1 1 0 0 1 1 1v12.022a1 1 0 0 1-1 1H7.986a1 1 0 0 1-1-1v-5.96a1.023 1.023 0 0 1 0-.102v-5.96a1 1 0 0 1 1-1Zm15.029 2v4.011H17v-4.01h6.015ZM17 21.646h6.015v4.011H17v-4.01Zm-2 0v4.011H8.986v-4.01H15Zm0-2H8.986v-4.01H15v4.01Z" clip-rule="evenodd"/></svg>