<svg xmlns="http://www.w3.org/2000/svg" width="33" height="33" fill="none"><path stroke="#1C1B1F" stroke-linecap="round" stroke-linejoin="round" stroke-width="2" d="M5.22 13.245h23.433"/><path fill="#1C1B1F" stroke="#1C1B1F" stroke-linecap="round" stroke-width="2" d="m11.855 12.98 4.617-6.05a.5.5 0 0 1 .794-.001l4.656 6.05a.5.5 0 0 1 .067.495l-4.657 11.342a.5.5 0 0 1-.925 0L11.79 13.471a.5.5 0 0 1 .065-.492Z"/><path stroke="#1C1B1F" stroke-linecap="round" stroke-width="2" d="M22.966 6.477H10.91a.5.5 0 0 0-.382.177l-5.28 6.236a.5.5 0 0 0 .018.666l11.526 12.207a.5.5 0 0 0 .733-.007l11.137-12.199a.5.5 0 0 0 .01-.662l-5.327-6.243a.5.5 0 0 0-.38-.175Z"/></svg>