<svg xmlns="http://www.w3.org/2000/svg" width="32" height="32" fill="none" viewBox="0 0 32 32"><path fill="#111827" fill-rule="evenodd" d="M24.214 26.604a.51.51 0 0 0-.224.42V31.5a.5.5 0 0 1-.5.5h-3.956v-5.557a1 1 0 1 0-2 0V32h-3.068v-5.557a1 1 0 0 0-2 0V32H8.758a.5.5 0 0 1-.5-.5v-4.31a.51.51 0 0 0-.233-.425C4.053 24.163 1.43 19.672 1.43 14.57 1.43 6.523 7.953 0 16 0c8.046 0 14.57 6.523 14.57 14.57 0 4.999-2.519 9.41-6.356 12.034M10.3 14.774a2.167 2.167 0 1 0 0 4.334 2.167 2.167 0 0 0 0-4.334M6.132 16.94a4.167 4.167 0 1 1 8.334 0 4.167 4.167 0 0 1-8.334 0m15.57-2.167a2.167 2.167 0 1 0 0 4.334 2.167 2.167 0 0 0 0-4.334m-4.168 2.167a4.167 4.167 0 1 1 8.334 0 4.167 4.167 0 0 1-8.334 0" clip-rule="evenodd"/></svg>