<svg xmlns="http://www.w3.org/2000/svg" width="32" height="32" fill="none" viewBox="0 0 32 32"><path fill="#111827" fill-rule="evenodd" d="M12.25 0c1.747 0 3.274.943 4.099 2.348a4.108 4.108 0 0 1 7.151 2.76V9.16a5 5 0 0 1 2.488-.66h1.262a3.75 3.75 0 0 1 1.984 6.933A4.75 4.75 0 0 1 27.25 24.5h-3.626a4.75 4.75 0 1 1-8.004 5.096A4.052 4.052 0 0 1 8.5 26.948v-4.215a4.85 4.85 0 0 1-2.628.768H4.75a3.75 3.75 0 0 1-1.984-6.933A4.75 4.75 0 0 1 4.75 7.5h3.626A4.75 4.75 0 0 1 12.25 0m0 2A2.75 2.75 0 0 1 15 4.75V7.5h-2.75a2.75 2.75 0 0 1 0-5.5m7.5 28A2.75 2.75 0 0 1 17 27.25V24.5h2.75a2.75 2.75 0 1 1 0 5.5M30 19.75A2.75 2.75 0 0 0 27.25 17H17v1.5a4 4 0 0 0 4 4h6.25A2.75 2.75 0 0 0 30 19.75M4.75 15a2.75 2.75 0 0 1 0-5.5H11a4 4 0 0 1 4 4V15z" clip-rule="evenodd"/></svg>