<svg xmlns="http://www.w3.org/2000/svg" width="33" height="33" fill="none"><path fill="#1C1B1F" d="M16.96 7.283a3 3 0 0 1 6 0v5a4 4 0 0 1-4 4h-1.94a.06.06 0 0 1-.06-.06v-8.94Z"/><path stroke="#1C1B1F" stroke-width="2" d="M16.96 7.283a3 3 0 0 1 6 0v5a4 4 0 0 1-4 4h-1.94a.06.06 0 0 1-.06-.06v-8.94Z"/><path fill="#1C1B1F" d="M22.96 13.283a3 3 0 1 1 3 3h-2.97a.03.03 0 0 1-.03-.03v-2.97Z"/><path stroke="#1C1B1F" stroke-width="2" d="M22.96 13.283a3 3 0 1 1 3 3h-2.97a.03.03 0 0 1-.03-.03v-2.97ZM16.96 25.283a3 3 0 0 0 6 0 3 3 0 0 0-3-3h-2.97a.03.03 0 0 0-.03.03v2.97Z"/><path fill="#1C1B1F" d="M10.96 19.283a3 3 0 1 1-3-3h2.97a.03.03 0 0 1 .03.03v2.97Z"/><path stroke="#1C1B1F" stroke-width="2" d="M10.96 19.283a3 3 0 1 1-3-3h2.97a.03.03 0 0 1 .03.03v2.97ZM16.96 7.283a3 3 0 0 0-6 0 3 3 0 0 0 3 3h2.97a.03.03 0 0 0 .03-.03v-2.97Z"/><path fill="#1C1B1F" d="M16.96 25.283a3 3 0 0 1-6 0v-5a4 4 0 0 1 4-4h1.94a.06.06 0 0 1 .06.06v8.94Z"/><path stroke="#1C1B1F" stroke-width="2" d="M16.96 25.283a3 3 0 0 1-6 0v-5a4 4 0 0 1 4-4h1.94a.06.06 0 0 1 .06.06v8.94ZM25.96 16.283a3 3 0 0 1 0 6h-5a4 4 0 0 1-4-4v-1.94a.06.06 0 0 1 .06-.06h8.94ZM7.96 16.283a3 3 0 1 1 0-6h5a4 4 0 0 1 4 4v1.94a.06.06 0 0 1-.06.06H7.96Z"/></svg>