<svg width="33" height="33" fill="none" xmlns="http://www.w3.org/2000/svg"><path d="M16.96 7.424a3 3 0 0 1 6 0v5a4 4 0 0 1-4 4h-1.94a.06.06 0 0 1-.06-.059v-8.94Z" fill="#1C1B1F"/><path d="M16.96 7.424a3 3 0 0 1 6 0v5a4 4 0 0 1-4 4h-1.94a.06.06 0 0 1-.06-.059v-8.94Z" stroke="#1C1B1F" stroke-width="2"/><path d="M22.96 13.424a3 3 0 1 1 3 3h-2.97a.03.03 0 0 1-.03-.03v-2.97Z" fill="#1C1B1F"/><path d="M22.96 13.424a3 3 0 1 1 3 3h-2.97a.03.03 0 0 1-.03-.03v-2.97ZM16.96 25.424a3 3 0 1 0 6 0 3 3 0 0 0-3-3h-2.97a.03.03 0 0 0-.03.03v2.97Z" stroke="#1C1B1F" stroke-width="2"/><path d="M10.96 19.424a3 3 0 1 1-3-3h2.97a.03.03 0 0 1 .03.03v2.97Z" fill="#1C1B1F"/><path d="M10.96 19.424a3 3 0 1 1-3-3h2.97a.03.03 0 0 1 .03.03v2.97ZM16.96 7.424a3 3 0 0 0-6 0 3 3 0 0 0 3 3h2.97a.03.03 0 0 0 .03-.03v-2.97Z" stroke="#1C1B1F" stroke-width="2"/><path d="M16.96 25.424a3 3 0 1 1-6 0v-5a4 4 0 0 1 4-4h1.94a.06.06 0 0 1 .06.06v8.94Z" fill="#1C1B1F"/><path d="M16.96 25.424a3 3 0 1 1-6 0v-5a4 4 0 0 1 4-4h1.94a.06.06 0 0 1 .06.06v8.94ZM25.96 16.424a3 3 0 1 1 0 6h-5a4 4 0 0 1-4-4v-1.94a.06.06 0 0 1 .06-.06h8.94Z" stroke="#1C1B1F" stroke-width="2"/><path d="M7.96 16.424a3 3 0 0 1 0-6h5a4 4 0 0 1 4 4v1.941a.06.06 0 0 1-.06.06H7.96Z" stroke="#1C1B1F" stroke-width="2"/></svg>