<svg xmlns="http://www.w3.org/2000/svg" width="32" height="33" fill="none" viewBox="0 0 32 33"><path fill="#111827" fill-rule="evenodd" d="M16 .501a1 1 0 0 1 1 1v4.773c0 .05-.004.098-.01.145a3.41 3.41 0 0 1 0 6.526c.006.048.01.096.01.146V31.5a1 1 0 1 1-2 0V13.09c0-.05.004-.098.01-.146a3.41 3.41 0 0 1 0-6.526 1.013 1.013 0 0 1-.01-.145V1.5a1 1 0 0 1 1-1Zm8.863 22.816a3.41 3.41 0 0 0 2.42 3.263c-.008.048-.011.097-.011.147v4.772a1 1 0 1 0 2 0v-4.772c0-.05-.004-.099-.011-.146a3.41 3.41 0 0 0 0-6.527 1.01 1.01 0 0 0 .01-.145V1.5a1 1 0 0 0-2 0V19.91c0 .05.004.098.011.146a3.41 3.41 0 0 0-2.419 3.262Zm-22.124-2.19c-.007.047-.011.096-.011.145V31.5a1 1 0 0 0 2 0V21.272c0-.05-.004-.098-.01-.145a3.41 3.41 0 0 0 0-6.526c.006-.048.01-.097.01-.146V1.5a1 1 0 1 0-2 0v12.954c0 .05.004.098.01.146a3.41 3.41 0 0 0 0 6.525Z" clip-rule="evenodd"/></svg>