<svg xmlns="http://www.w3.org/2000/svg" width="32" height="33" fill="none" viewBox="0 0 32 33"><path fill="#111827" fill-rule="evenodd" d="M29.272 1.501a1 1 0 0 0-2 0V19.91q0 .075.01.146a3.41 3.41 0 0 0 0 6.525q-.01.072-.01.147v4.772a1 1 0 1 0 2 0v-4.772q0-.075-.011-.146a3.41 3.41 0 0 0 0-6.527 1 1 0 0 0 .01-.145zM16 .501a1 1 0 0 1 1 1v4.773q0 .075-.01.145a3.41 3.41 0 0 1 0 6.526q.01.071.01.146V31.5a1 1 0 1 1-2 0V13.09q0-.075.01-.146a3.41 3.41 0 0 1 0-6.526 1 1 0 0 1-.01-.145V1.5a1 1 0 0 1 1-1M2.739 21.127a3.41 3.41 0 0 1 0-6.526 1 1 0 0 1-.011-.146V1.5a1 1 0 0 1 2 0v12.954q0 .075-.01.146a3.41 3.41 0 0 1 0 6.526q.01.071.01.145V31.5a1 1 0 0 1-2 0V21.272q0-.075.01-.145" clip-rule="evenodd"/></svg>