<svg xmlns="http://www.w3.org/2000/svg" width="32" height="33" fill="none" viewBox="0 0 32 33"><path fill="#111827" fill-rule="evenodd" d="M15.172 9.99a3.41 3.41 0 0 1-6.526 0q-.07.01-.146.01H1.001a1 1 0 1 1 0-2h7.5q.074 0 .145.011a3.41 3.41 0 0 1 6.526 0 1 1 0 0 1 .147-.01h15.68a1 1 0 1 1 0 2H15.32q-.075 0-.147-.011m7.645 17.419a3.41 3.41 0 0 0 3.263-2.42q.072.01.146.01h4.772a1 1 0 1 0 0-2h-4.772q-.075 0-.146.011a3.41 3.41 0 0 0-6.526 0 1 1 0 0 0-.145-.01H1a1 1 0 0 0 0 2h18.408q.075 0 .145-.01a3.41 3.41 0 0 0 3.263 2.419" clip-rule="evenodd"/></svg>