<svg xmlns="http://www.w3.org/2000/svg" width="32" height="33" fill="none" viewBox="0 0 32 33"><path fill="#111827" fill-rule="evenodd" d="M15.172 9.99a3.41 3.41 0 0 1-6.526 0C8.6 9.997 8.55 10 8.5 10H1.001a1 1 0 1 1 0-2h7.5c.049 0 .098.004.145.011a3.41 3.41 0 0 1 6.526 0 1.01 1.01 0 0 1 .147-.01h15.68a1 1 0 1 1 0 2H15.32c-.05 0-.099-.004-.147-.011Zm7.645 17.419a3.41 3.41 0 0 0 3.263-2.42c.048.007.097.01.146.01h4.772a1 1 0 1 0 0-2h-4.772c-.05 0-.098.004-.146.011a3.41 3.41 0 0 0-6.526 0 1.008 1.008 0 0 0-.145-.01H1a1 1 0 0 0 0 2h18.408c.05 0 .098-.004.145-.01a3.41 3.41 0 0 0 3.263 2.419Z" clip-rule="evenodd"/></svg>