<svg xmlns="http://www.w3.org/2000/svg" width="32" height="33" fill="none" viewBox="0 0 32 33"><path fill="#111827" fill-rule="evenodd" d="M32 16.5c0 8.837-7.163 16-16 16s-16-7.163-16-16S7.163.5 16 .5s16 7.163 16 16m-19.293-4.626a1 1 0 1 0-1.414-1.415l-1.96 1.96-1.96-1.96a1 1 0 0 0-1.414 1.415l1.96 1.96-1.96 1.959a1 1 0 1 0 1.415 1.414l1.96-1.96 1.959 1.96a1 1 0 0 0 1.414-1.414l-1.96-1.96zm13.333 0a1 1 0 0 0-1.414-1.415l-1.96 1.96-1.96-1.96a1 1 0 0 0-1.413 1.415l1.96 1.96-1.96 1.959a1 1 0 0 0 1.414 1.414l1.96-1.96 1.96 1.96a1 1 0 0 0 1.413-1.414l-1.96-1.96zM18 25.167a2 2 0 1 1-4 0 2 2 0 0 1 4 0" clip-rule="evenodd"/></svg>