<svg xmlns="http://www.w3.org/2000/svg" width="32" height="33" fill="none" viewBox="0 0 32 33"><path fill="#111827" fill-rule="evenodd" d="M16 32.5c-8.837 0-16-7.163-16-16S7.163.5 16 .5s16 7.163 16 16c0 1.537-.217 3.023-.621 4.43a.5.5 0 0 1-.131.218l-11.1 10.743a.5.5 0 0 1-.221.124A16 16 0 0 1 16 32.5m-4-19.333a2 2 0 1 1-4 0 2 2 0 0 1 4 0m12 0a2 2 0 1 1-4 0 2 2 0 0 1 4 0m-.57 6.467A1 1 0 0 1 23.797 21a9.002 9.002 0 0 1-15.591 0 1 1 0 0 1 1.731-1 7.003 7.003 0 0 0 12.128 0 1 1 0 0 1 1.366-.366" clip-rule="evenodd"/></svg>