<svg width="33" height="33" fill="none" xmlns="http://www.w3.org/2000/svg"><path fill-rule="evenodd" clip-rule="evenodd" d="M16.96 28.783c-6.628 0-12-5.373-12-12 0-6.628 5.372-12 12-12 6.627 0 12 5.372 12 12 0 1.141-.16 2.245-.457 3.291a.49.49 0 0 1-.13.217l-8.278 8.012a.488.488 0 0 1-.222.124c-.933.233-1.908.356-2.913.356Zm-3-14.5a1.5 1.5 0 1 1-3 0 1.5 1.5 0 0 1 3 0Zm9 0a1.5 1.5 0 1 1-3 0 1.5 1.5 0 0 1 3 0Zm-.302 4.634a1 1 0 0 1 .366 1.366 7.002 7.002 0 0 1-12.127 0 1 1 0 0 1 1.732-1 5.002 5.002 0 0 0 8.663 0 1 1 0 0 1 1.366-.366Z" fill="#1C1B1F"/></svg>