<svg xmlns="http://www.w3.org/2000/svg" width="32" height="33" fill="none" viewBox="0 0 32 33"><path fill="#111827" fill-rule="evenodd" d="M32 16.5c0 8.837-7.163 16-16 16s-16-7.163-16-16S7.163.5 16 .5s16 7.163 16 16Zm-20-3.333a2 2 0 1 1-4 0 2 2 0 0 1 4 0Zm12 0a2 2 0 1 1-4 0 2 2 0 0 1 4 0Zm-2.748 9.015 2.116 2.469a1 1 0 0 0 1.518-1.302l-2.845-3.319a1.1 1.1 0 0 0-1.714.055l-1.72 2.287-1.862-2.314a1.1 1.1 0 0 0-1.722.009l-1.805 2.293-1.708-2.27a1.1 1.1 0 0 0-1.751-.008l-2.54 3.309a1 1 0 1 0 1.587 1.218l1.818-2.37 1.698 2.258a1.1 1.1 0 0 0 1.744.02l1.83-2.325 1.878 2.335a1.1 1.1 0 0 0 1.736-.029l1.742-2.316Z" clip-rule="evenodd"/></svg>