<svg xmlns="http://www.w3.org/2000/svg" width="32" height="33" fill="none" viewBox="0 0 32 33"><path fill="#111827" fill-rule="evenodd" d="M11.211.828a1 1 0 0 1 1.415 0L16 4.202 19.374.828a1 1 0 1 1 1.414 1.414L17 6.032v8.735l7.563-4.368 1.39-5.178a1 1 0 1 1 1.931.518l-1.237 4.612 4.612 1.238a1 1 0 0 1-.519 1.931l-5.177-1.389-7.564 4.37 7.564 4.368 5.177-1.39a1 1 0 0 1 .519 1.932l-4.612 1.238 1.237 4.612a1 1 0 1 1-1.932.518L24.562 22.6 17 18.233v8.736l3.79 3.789a1 1 0 0 1-1.415 1.414L16 28.798l-3.374 3.374a1 1 0 0 1-1.415-1.414L15 26.97v-8.738L7.438 22.6l-1.39 5.179a1 1 0 1 1-1.931-.518l1.237-4.612L.742 21.41a1 1 0 0 1 .518-1.931l5.177 1.389L14 16.5l-7.563-4.368L1.26 13.52a1 1 0 0 1-.518-1.931l4.612-1.238L4.117 5.74a1 1 0 1 1 1.931-.518l1.39 5.18 7.561 4.367V6.03l-3.788-3.788a1 1 0 0 1 0-1.414Z" clip-rule="evenodd"/></svg>