<svg xmlns="http://www.w3.org/2000/svg" width="32" height="32" fill="none"><path fill="#111827" fill-rule="evenodd" d="M11.544 2.725a14.032 14.032 0 0 0-6.93 5.128l1.25 3.838 4.707 1.523 4.336-3.137V5.155l-3.363-2.43ZM2.001 15.94V16c0 3.05.976 5.872 2.632 8.172l4.066.002 2.907-3.984-1.656-5.075-4.706-1.523L2 15.942Zm9.61 13.356c1.38.456 2.856.702 4.39.702 1.455 0 2.859-.222 4.179-.635l1.313-4.018-2.907-3.984h-5.36l-2.906 3.984 1.291 3.951Zm15.757-5.125a13.934 13.934 0 0 0 2.63-8.095l-3.305-2.395-.016.005-4.863 1.574-1.608 4.928 2.908 3.985 4.254-.002Zm-.112-16.496a14.028 14.028 0 0 0-6.929-4.994l-3.42 2.472v4.924l4.458 3.226 4.536-1.467 1.355-4.161ZM16 0C7.164 0 .001 7.164.001 16s7.163 15.999 16 15.999c8.835 0 15.998-7.163 15.998-16C32 7.165 24.836.002 16 .002Z" clip-rule="evenodd"/></svg>