<svg xmlns="http://www.w3.org/2000/svg" width="33" height="32" fill="none" viewBox="0 0 33 32"><path fill="#111827" fill-rule="evenodd" d="M17.97 10.249a1 1 0 0 0 1.414 0l4.453-4.453v15.01a1 1 0 0 0 2 0V5.796l4.454 4.453a1 1 0 0 0 1.414-1.414l-6.16-6.16a.995.995 0 0 0-.818-.288.996.996 0 0 0-.597.287l-6.16 6.16a1 1 0 0 0 0 1.415ZM1.002 16.402a1 1 0 1 0 0 2h12.62a1 1 0 1 0 0-2H1.001Zm-1-10.217a1 1 0 0 1 1-1h9.815a1 1 0 1 1 0 2H1.002a1 1 0 0 1-1-1Zm1 21.434a1 1 0 0 0 0 2h30a1 1 0 1 0 0-2h-30Z" clip-rule="evenodd"/></svg>