<svg xmlns="http://www.w3.org/2000/svg" width="32" height="33" fill="none" viewBox="0 0 32 33"><path fill="#111827" fill-rule="evenodd" d="M21.536.5a1 1 0 0 1 1 1v2.549h2.55a1 1 0 0 1 0 2h-2.55v2.549a1 1 0 1 1-2 0V6.049h-2.549a1 1 0 1 1 0-2h2.549V1.5a1 1 0 0 1 1-1m8.098 9.28a1 1 0 1 0-2 0v1.367h-1.366a1 1 0 1 0 0 2h1.366v1.366a1 1 0 1 0 2 0v-1.366H31a1 1 0 1 0 0-2h-1.366zM12.541 8.683a.5.5 0 0 0-.938 0l-2.966 8.015a.5.5 0 0 1-.295.296L.326 19.959a.5.5 0 0 0 0 .938l8.016 2.966a.5.5 0 0 1 .295.295l2.966 8.015a.5.5 0 0 0 .938 0l2.966-8.015a.5.5 0 0 1 .296-.295l8.015-2.966a.5.5 0 0 0 0-.938l-8.016-2.966a.5.5 0 0 1-.295-.296z" clip-rule="evenodd"/></svg>