<svg xmlns="http://www.w3.org/2000/svg" width="32" height="33" fill="none" viewBox="0 0 32 33"><path fill="#111827" fill-rule="evenodd" d="M18.261 29.226V3.774a.5.5 0 0 0-.813-.39l-8.609 6.912v12.785l8.62 6.544a.5.5 0 0 0 .802-.399M6.84 22.482V10.93H5.777a5.776 5.776 0 0 0 0 11.552zm24.868-9.936a1 1 0 0 1 0 1.414l-2.522 2.522 2.522 2.522a1 1 0 1 1-1.414 1.414l-2.522-2.522-2.523 2.522a1 1 0 0 1-1.414-1.414l2.522-2.522-2.522-2.522a1 1 0 0 1 1.415-1.415l2.522 2.523 2.522-2.522a1 1 0 0 1 1.414 0" clip-rule="evenodd"/></svg>