<svg xmlns="http://www.w3.org/2000/svg" width="32" height="33" fill="none" viewBox="0 0 32 33"><path fill="#111827" fill-rule="evenodd" d="M18.26 29.227V3.774a.5.5 0 0 0-.813-.39L8.84 10.296v12.786l8.62 6.543a.5.5 0 0 0 .802-.398ZM6.84 22.483V10.93H5.775a5.776 5.776 0 1 0 0 11.553H6.84ZM27.238 8.365a1 1 0 0 1 1.414 0 11.427 11.427 0 0 1 0 16.157 1 1 0 0 1-1.414-1.414 9.423 9.423 0 0 0 0-13.328 1 1 0 0 1 0-1.415Zm-4.095 4.095a1 1 0 0 1 1.414 0 5.634 5.634 0 0 1 0 7.967 1 1 0 0 1-1.414-1.414 3.635 3.635 0 0 0 0-5.138 1 1 0 0 1 0-1.415Z" clip-rule="evenodd"/></svg>