<svg xmlns="http://www.w3.org/2000/svg" width="32" height="32" fill="none"><path fill="#111827" fill-rule="evenodd" d="M16 0a1 1 0 0 1 1 1v5a1 1 0 1 1-2 0V1a1 1 0 0 1 1-1Zm9 16a1 1 0 0 1 1-1h5a1 1 0 0 1 0 2h-5a1 1 0 0 1-1-1Zm-1.222 6.364a1 1 0 0 0-1.415 1.414l3.536 3.535a1 1 0 1 0 1.414-1.414l-3.535-3.535ZM16 24.999a1 1 0 0 1 1 1v5a1 1 0 1 1-2 0v-5a1 1 0 0 1 1-1Zm-6.363-1.221a1 1 0 0 0-1.415-1.414l-3.535 3.535a1 1 0 1 0 1.414 1.414l3.536-3.535ZM0 16a1 1 0 0 1 1-1h5a1 1 0 1 1 0 2H1a1 1 0 0 1-1-1Zm6.1-11.313a1 1 0 0 0-1.414 1.414l3.535 3.536a1 1 0 0 0 1.415-1.415L6.1 4.687Z" clip-rule="evenodd"/></svg>