<svg width="33" height="33" fill="none" xmlns="http://www.w3.org/2000/svg"><path fill-rule="evenodd" clip-rule="evenodd" d="M16.96 3.283a1 1 0 0 1 1 1v4a1 1 0 0 1-2 0v-4a1 1 0 0 1 1-1Zm7 13a1 1 0 0 1 1-1h4a1 1 0 0 1 0 2h-4a1 1 0 0 1-1-1Zm-.636 4.95a1 1 0 0 0-1.414 1.414l2.828 2.828a1 1 0 0 0 1.414-1.414l-2.828-2.828Zm-6.364 2.05a1 1 0 0 1 1 1v4a1 1 0 0 1-2 0v-4a1 1 0 0 1 1-1Zm-4.95-.636a1 1 0 1 0-1.414-1.414L7.767 24.06a1 1 0 0 0 1.415 1.414l2.828-2.828Zm-8.05-6.364a1 1 0 0 1 1-1h4a1 1 0 1 1 0 2h-4a1 1 0 0 1-1-1Zm5.222-9.192a1 1 0 0 0-1.415 1.414l2.829 2.828A1 1 0 0 0 12.01 9.92L9.182 7.091Z" fill="#1C1B1F"/></svg>