<svg xmlns="http://www.w3.org/2000/svg" width="32" height="33" fill="none" viewBox="0 0 32 33"><path fill="#111827" fill-rule="evenodd" d="M16 .5a1 1 0 0 1 1 1v1.864h.91a5.775 5.775 0 0 1 5.774 5.775 1 1 0 1 1-2 0 3.775 3.775 0 0 0-3.774-3.775H17v7.55h1.865a5.774 5.774 0 1 1 0 11.55H17v4.622l3.029-3.029a1 1 0 0 1 1.414 1.415l-4.732 4.731A1 1 0 0 1 16 32.5a1 1 0 0 1-.713-.298l-4.73-4.73a1 1 0 0 1 1.414-1.415L15 29.087v-4.624h-1.865a5.775 5.775 0 0 1-5.775-5.775 1 1 0 1 1 2 0 3.775 3.775 0 0 0 3.775 3.775H15v-7.55h-1.387a5.775 5.775 0 0 1 0-11.549H15V1.5a1 1 0 0 1 1-1m-2.387 4.864H15v7.55h-1.387a3.775 3.775 0 0 1 0-7.55m5.252 17.1H17v-7.55h1.865a3.775 3.775 0 0 1 0 7.55" clip-rule="evenodd"/></svg>