<svg xmlns="http://www.w3.org/2000/svg" width="32" height="32" fill="none" viewBox="0 0 32 32"><path fill="#111827" fill-rule="evenodd" d="M32 16c0 8.837-7.163 16-16 16S0 24.837 0 16 7.163 0 16 0s16 7.163 16 16m-7.022-4.168a19.7 19.7 0 0 0-17.972.008 1 1 0 0 0 .913 1.78 17.7 17.7 0 0 1 16.147-.008 1 1 0 0 0 .912-1.78M15.99 15a14.3 14.3 0 0 1 6.512 1.561 1 1 0 0 1-.908 1.782 12.32 12.32 0 0 0-11.204.008 1 1 0 1 1-.91-1.781A14.3 14.3 0 0 1 15.99 15m4.035 6.285a9 9 0 0 0-8.07.008 1 1 0 1 0 .9 1.787 7 7 0 0 1 6.275-.007 1 1 0 1 0 .895-1.788" clip-rule="evenodd"/></svg>