<svg xmlns="http://www.w3.org/2000/svg" width="32" height="33" fill="none" viewBox="0 0 32 33"><path fill="#111827" fill-rule="evenodd" d="M0 1.5a1 1 0 0 1 1-1h30a1 1 0 0 1 1 1v30a1 1 0 0 1-1 1H1a1 1 0 0 1-1-1v-30Zm17 6.483a8.67 8.67 0 0 1 1.133-.074h3.326a1 1 0 1 1 0 2h-3.326c-.387 0-.765.033-1.133.097v12.988c.368.064.746.097 1.133.097h3.326a1 1 0 1 1 0 2h-3.326c-.384 0-.762-.025-1.133-.074v2.663a1 1 0 0 1-2 0v-3.178a8.594 8.594 0 0 1 0-16.004V5.32a1 1 0 1 1 2 0v2.663Zm-2 2.716A6.59 6.59 0 0 0 11.54 16.5 6.59 6.59 0 0 0 15 22.3V10.7Z" clip-rule="evenodd"/></svg>