<svg xmlns="http://www.w3.org/2000/svg" width="32" height="32" fill="none" viewBox="0 0 32 32"><path fill="#111827" fill-rule="evenodd" d="M32 16c0 8.837-7.163 16-16 16S0 24.837 0 16 7.163 0 16 0s16 7.163 16 16Zm-7.022-4.168a19.698 19.698 0 0 0-17.972.008 1 1 0 0 0 .913 1.78 17.698 17.698 0 0 1 16.147-.008 1 1 0 0 0 .912-1.78ZM15.99 15a14.323 14.323 0 0 1 6.512 1.561 1 1 0 0 1-.908 1.782 12.323 12.323 0 0 0-11.204.008 1 1 0 1 1-.91-1.781A14.324 14.324 0 0 1 15.99 15Zm4.035 6.285a8.997 8.997 0 0 0-8.07.008 1 1 0 1 0 .9 1.787 6.997 6.997 0 0 1 6.275-.007 1 1 0 1 0 .895-1.788Z" clip-rule="evenodd"/></svg>