<svg xmlns="http://www.w3.org/2000/svg" width="32" height="32" fill="none" viewBox="0 0 32 32"><path fill="#111827" fill-rule="evenodd" d="m16.256 15.076 12.251-7.29a.5.5 0 0 0-.012-.867L16.246.064a.5.5 0 0 0-.489 0L3.505 6.919a.5.5 0 0 0-.012.866l12.252 7.29a.5.5 0 0 0 .511 0m-14.366-.36a1 1 0 0 1 1.37-.347L16 21.95l12.74-7.581a1 1 0 1 1 1.023 1.718l-13.251 7.886a1 1 0 0 1-1.023 0L2.238 16.087a1 1 0 0 1-.348-1.37m1.37 7.539a1 1 0 1 0-1.022 1.718l13.25 7.886a1 1 0 0 0 1.024 0l13.25-7.886a1 1 0 0 0-1.022-1.718L16 29.836z" clip-rule="evenodd"/></svg>