<svg xmlns="http://www.w3.org/2000/svg" width="32" height="32" fill="none" viewBox="0 0 32 32"><path fill="#111827" fill-rule="evenodd" d="m4.053 4.001.004-.006a2.53 2.53 0 0 1 1.747-.7h20.392a2.53 2.53 0 0 1 1.747.7l.004.006c.026.048.063.126.11.24.092.226.2.537.32.92.24.76.501 1.738.746 2.737.244.996.467 2 .629 2.807.08.405.145.754.189 1.027.021.136.037.248.047.334.011.093.012.13.012.13v1.96c0 2.27-1.86 4.141-4.078 4.099a4 4 0 0 1-3.922-4 1 1 0 0 0-2 0 4 4 0 0 1-8 0 1 1 0 1 0-2 0 4 4 0 0 1-3.922 4C3.86 18.297 2 16.425 2 14.157v-1.96c0-.003.001-.041.012-.131a8.23 8.23 0 0 1 .047-.334c.044-.273.108-.622.189-1.027.162-.808.385-1.811.629-2.807.245-.999.507-1.976.745-2.737.12-.383.229-.694.322-.92.046-.114.083-.192.11-.24Zm23.874-.034.002.004-.002-.004Zm.796 15.617A6.155 6.155 0 0 0 32 14.157v-1.96c0-.208-.04-.499-.084-.781a29.733 29.733 0 0 0-.203-1.103c-.168-.84-.397-1.87-.648-2.891a49.25 49.25 0 0 0-.779-2.86 13.9 13.9 0 0 0-.38-1.08 4.56 4.56 0 0 0-.199-.43 1.85 1.85 0 0 0-.308-.43 4.53 4.53 0 0 0-3.203-1.328H5.804A4.53 4.53 0 0 0 2.6 2.621a1.85 1.85 0 0 0-.308.431c-.071.132-.138.279-.2.43-.123.3-.251.673-.38 1.08-.255.818-.529 1.84-.779 2.86a71.826 71.826 0 0 0-.647 2.891c-.084.419-.154.796-.203 1.103a5.557 5.557 0 0 0-.084.78v1.96a6.154 6.154 0 0 0 3.278 5.428v11.122h25.445V19.584ZM4.07 3.971a.049.049 0 0 1 .002-.004l-.002.004Z" clip-rule="evenodd"/></svg>