<svg xmlns="http://www.w3.org/2000/svg" width="32" height="32" fill="none" viewBox="0 0 32 32"><path fill="#111827" fill-rule="evenodd" d="m4.053 4.001.004-.006a2.53 2.53 0 0 1 1.747-.7h20.392a2.53 2.53 0 0 1 1.747.7l.004.006q.04.07.11.24c.092.226.2.537.32.92.24.76.501 1.738.746 2.737.244.996.467 2 .629 2.807.08.405.145.754.189 1.027q.032.204.047.334c.011.093.012.13.012.13v1.96c0 2.27-1.86 4.141-4.078 4.099a4 4 0 0 1-3.922-4 1 1 0 0 0-2 0 4 4 0 0 1-8 0 1 1 0 1 0-2 0 4 4 0 0 1-3.922 4C3.86 18.297 2 16.425 2 14.157v-1.96c0-.003.001-.041.012-.131a8 8 0 0 1 .047-.334c.044-.273.108-.622.189-1.027.162-.808.385-1.811.629-2.807.245-.999.507-1.976.745-2.737.12-.383.229-.694.322-.92q.07-.17.11-.24m23.874-.034.002.004zm.796 15.617A6.16 6.16 0 0 0 32 14.157v-1.96c0-.208-.04-.499-.084-.781a30 30 0 0 0-.203-1.103c-.168-.84-.397-1.87-.648-2.891a49 49 0 0 0-.779-2.86 14 14 0 0 0-.38-1.08 5 5 0 0 0-.199-.43 1.9 1.9 0 0 0-.308-.43 4.53 4.53 0 0 0-3.203-1.328H5.804A4.53 4.53 0 0 0 2.6 2.621a1.9 1.9 0 0 0-.308.431c-.071.132-.138.279-.2.43-.123.3-.251.673-.38 1.08-.255.818-.529 1.84-.779 2.86a72 72 0 0 0-.647 2.891c-.084.419-.154.796-.203 1.103a5.6 5.6 0 0 0-.084.78v1.96a6.15 6.15 0 0 0 3.278 5.428v11.122h25.445zM4.07 3.971l.002-.004z" clip-rule="evenodd"/></svg>