<svg xmlns="http://www.w3.org/2000/svg" width="32" height="32" fill="none" viewBox="0 0 32 32"><path fill="#111827" fill-rule="evenodd" d="M19.293 8.78a1 1 0 0 1 0-1.413l5.43-5.43a1 1 0 0 1 1.414 0l5.43 5.43a1 1 0 0 1-1.414 1.414L26.46 5.089v10.205a1 1 0 0 1-1 1H4.397v6.52a1 1 0 0 1-.048.305 3.201 3.201 0 0 1-1.01 6.237 3.2 3.2 0 0 1-.905-6.27 1 1 0 0 1-.037-.271v-7.52a1 1 0 0 1 1-1H24.46V5.026L20.707 8.78a1 1 0 0 1-1.414 0M7.179 1.645a1 1 0 0 1 1 1v2.84h2.84a1 1 0 1 1 0 2h-2.84v2.84a1 1 0 1 1-2 0v-2.84h-2.84a1 1 0 0 1 0-2h2.84v-2.84a1 1 0 0 1 1-1M19.738 22.25a1 1 0 0 0-1.415 1.414l2.493 2.492-2.492 2.493a1 1 0 0 0 1.414 1.414l2.492-2.492 2.493 2.492a1 1 0 0 0 1.414-1.414l-2.492-2.493 2.492-2.492a1 1 0 0 0-1.414-1.414l-2.493 2.492z" clip-rule="evenodd"/></svg>