<svg xmlns="http://www.w3.org/2000/svg" width="32" height="32" fill="none" viewBox="0 0 32 32"><path fill="#111827" fill-rule="evenodd" d="M1 0a1 1 0 0 0-1 1v30a1 1 0 0 0 1 1h30a1 1 0 0 0 1-1V1a1 1 0 0 0-1-1zm9.244 11.24c0-.929.49-1.84 1.481-2.555.997-.718 2.472-1.206 4.275-1.206 2.735 0 4.648 1.106 5.388 2.403a1 1 0 0 0 1.737-.99C21.916 6.771 19.192 5.478 16 5.478c-2.147 0-4.05.579-5.444 1.583-1.4 1.009-2.312 2.477-2.312 4.178 0 1.934 1.264 3.096 2.723 3.83 1.32.665 3.02 1.1 4.606 1.505l.377.096c1.766.453 3.365.895 4.529 1.57 1.109.643 1.675 1.403 1.675 2.52 0 .875-.533 1.79-1.65 2.533-1.108.738-2.698 1.227-4.504 1.227s-3.395-.49-4.504-1.227c-1.116-.743-1.65-1.658-1.65-2.534a1 1 0 1 0-2 0c0 1.754 1.069 3.219 2.542 4.199 1.48.985 3.467 1.562 5.612 1.562s4.133-.577 5.613-1.562c1.473-.98 2.541-2.445 2.541-4.199 0-2.057-1.172-3.38-2.672-4.25-1.444-.837-3.322-1.337-5.034-1.776l-.307-.079c-1.664-.426-3.158-.808-4.274-1.37-1.15-.58-1.623-1.203-1.623-2.045" clip-rule="evenodd"/></svg>