<svg width="33" height="33" fill="none" xmlns="http://www.w3.org/2000/svg"><path fill-rule="evenodd" clip-rule="evenodd" d="M5.96 4.424a1 1 0 0 0-1 1v22a1 1 0 0 0 1 1h22a1 1 0 0 0 1-1v-22a1 1 0 0 0-1-1h-22Zm6.933 8.43c0-.6.314-1.214 1.007-1.713.698-.503 1.75-.857 3.06-.857 1.995 0 3.328.806 3.824 1.676a1 1 0 1 0 1.737-.99c-.965-1.694-3.11-2.686-5.56-2.686-1.654 0-3.135.445-4.23 1.234-1.1.793-1.838 1.964-1.838 3.336 0 1.587 1.047 2.526 2.18 3.097 1.015.511 2.317.843 3.5 1.145l.288.074c1.33.341 2.495.666 3.333 1.151.783.454 1.132.954 1.132 1.674 0 .546-.333 1.164-1.126 1.692-.785.522-1.927.878-3.24.878-1.312 0-2.454-.356-3.24-.878-.792-.528-1.125-1.146-1.125-1.692a1 1 0 1 0-2 0c0 1.425.868 2.592 2.018 3.357 1.156.77 2.696 1.213 4.347 1.213 1.651 0 3.192-.444 4.348-1.213 1.15-.765 2.018-1.932 2.018-3.357 0-1.661-.955-2.723-2.129-3.404-1.118-.648-2.562-1.03-3.839-1.358l-.217-.056c-1.261-.323-2.356-.604-3.168-1.012-.823-.415-1.08-.815-1.08-1.31Z" fill="#1C1B1F"/></svg>