<svg xmlns="http://www.w3.org/2000/svg" width="33" height="18" fill="none" viewBox="0 0 33 18"><path fill="#111827" fill-rule="evenodd" d="M15.402 15.832c-.386.08-.82.094-1.116-.214-.088.201-.269.156-.438.113a2 2 0 0 0-.121-.027c-.018.05-.034.095-.05.146-.653.044-1.142-.62-1.453-1.12a10 10 0 0 0-.939-.425 10 10 0 0 1-1.009-.46q-.009.168-.009.347c-.004.491-.008 1.011-.45 1.31-.014.592.469.586.944.58.41-.004.815-.009.887.373a1 1 0 0 1-.099.004c-.09 0-.182.001-.253.07-.23.224-.48.126-.737.025-.238-.093-.483-.189-.728-.039-.222.112-.38.216-.52.31-.293.195-.51.34-1.087.389-.047-.072-.028-.119.012-.162.08-.091.134-.188.187-.281.107-.19.205-.363.479-.442-.367-.058-.681.11-.99.276q-.069.038-.138.073c-.193.079-.305.017-.422-.048-.161-.09-.333-.185-.744.08-.079-.063-.041-.121.003-.17.18-.22.418-.253.685-.24-.697-.389-1.198-.114-1.606.11-.362.197-.65.355-.936-.025-.13.034-.202.127-.274.219q-.044.057-.092.109c-.07-.077-.053-.166-.036-.256q.013-.057.016-.112l-.054-.024c-.105-.043-.21-.086-.18-.248-.219-.074-.376.045-.539.168l-.028.022c-.107-.083-.018-.191.064-.292a.6.6 0 0 0 .09-.13c.075-.131.203-.135.33-.138.107-.003.213-.006.287-.086.264-.15.59-.072.917.006.24.057.48.115.7.085.404.05.902-.362.7-.774-.368-.47-.366-1.062-.364-1.635v-.288c-.03-.217-.34-.468-.65-.72-.238-.192-.475-.384-.59-.563-.317-.357-.566-.769-.813-1.176l-.03-.05c-.42-.811-.59-1.728-.758-2.642-.203-1.1-.405-2.195-1.042-3.1-.527.29-1.215.153-1.67-.237-.238.217-.255.498-.274.798l-.001.028C-.127 4.76-.053 3.65.418 2.997c.192-.258.422-.47.679-.658.058-.042.077-.083.076-.148C1.639.1 4.816.504 5.82 1.985c.331.414.558.89.783 1.364.271.569.542 1.137.992 1.598.436.476.897.93 1.357 1.384.712.703 1.424 1.406 2.048 2.191.97 1.182 1.663 2.567 2.268 3.963.099.185.159.387.218.588.09.302.178.602.397.84.053.07.167.175.296.296.31.289.709.66.574.823.041.09.184.193.33.298.242.175.495.358.317.502zm15.43-7.129-1.789 1.785a4.1 4.1 0 0 1-1.704 1.024l-.033.01-.012.031a4.1 4.1 0 0 1-.94 1.45l-1.79 1.785a4.11 4.11 0 0 1-2.924 1.207 4.12 4.12 0 0 1-2.924-7.04l1.789-1.784a4.1 4.1 0 0 1 1.702-1.021l.033-.01.012-.031a4.1 4.1 0 0 1 .943-1.455l1.789-1.785a4.11 4.11 0 0 1 2.924-1.207c1.106 0 2.144.429 2.925 1.207a4.1 4.1 0 0 1 1.21 2.917c0 1.102-.43 2.139-1.21 2.916zM27.91 3.441c-.63 0-1.22.244-1.664.687l-1.789 1.784a2.34 2.34 0 0 0-.68 1.836l.01.113c.065.526.296 1 .67 1.372.258.257.542.42.887.533q.027.157.028.314c0 .473-.184.917-.518 1.25l-.11.11a3.9 3.9 0 0 1-1.547-.95 4.1 4.1 0 0 1-1.142-2.176l-.02-.115-.091.074q-.093.074-.174.156l-1.79 1.785a2.346 2.346 0 0 0 1.665 4.006c.604 0 1.205-.23 1.664-.687l1.79-1.784a2.346 2.346 0 0 0 0-3.32 2.3 2.3 0 0 0-.867-.545 1.929 1.929 0 0 1 .548-1.693c.599.204 1.13.535 1.579.982.596.595.99 1.347 1.142 2.176l.02.114.091-.073q.092-.075.176-.158l1.79-1.785a2.345 2.345 0 0 0-1.666-4.006zM8.048 14.012c.024-.12.048-.236.075-.34q.063.145.121.291c.228.562.454 1.12 1.004 1.436-.024.51-.663.717-1.095.654-.095-.228-.228-.457-.507-.33-.283.114-.593-.019-.528-.371.662-.025.809-.746.93-1.34" clip-rule="evenodd"/></svg>