<svg xmlns="http://www.w3.org/2000/svg" width="32" height="33" fill="none" viewBox="0 0 32 33"><path fill="#111827" fill-rule="evenodd" d="M16 .5a1 1 0 0 1 1 1v1.2a1 1 0 1 1-2 0V1.5a1 1 0 0 1 1-1m0 25a9 9 0 1 0 0-18 9 9 0 0 0 0 18M6.102 5.188A1 1 0 0 0 4.69 6.603l.84.839a1 1 0 0 0 1.413-1.414zM.001 16.499a1 1 0 0 1 1-1h1.2a1 1 0 1 1 0 2H1a1 1 0 0 1-1-1m6.941 10.473a1 1 0 0 0-1.414-1.415l-.839.84a1 1 0 1 0 1.414 1.414zM16 29.298a1 1 0 0 1 1 1v1.2a1 1 0 0 1-2 0v-1.2a1 1 0 0 1 1-1m10.471-3.742a1 1 0 0 0-1.414 1.415l.84.839a1 1 0 1 0 1.414-1.415zM28.8 16.5a1 1 0 0 1 1-1H31a1 1 0 1 1 0 2h-1.2a1 1 0 0 1-1-1m-1.488-9.897a1 1 0 1 0-1.415-1.414l-.839.839a1 1 0 0 0 1.415 1.414z" clip-rule="evenodd"/></svg>