<svg xmlns="http://www.w3.org/2000/svg" width="32" height="33" fill="none" viewBox="0 0 32 33"><path fill="#111827" fill-rule="evenodd" d="M16 .501a1 1 0 0 1 1 1v2.678a1 1 0 1 1-2 0V1.501a1 1 0 0 1 1-1m0 24.034a8.035 8.035 0 1 0 0-16.07 8.035 8.035 0 0 0 0 16.07M6.1 5.187A1 1 0 1 0 4.688 6.6l1.888 1.888a1 1 0 1 0 1.414-1.414zM.002 16.5a1 1 0 0 1 1-1h2.678a1 1 0 0 1 0 2H1.001a1 1 0 0 1-1-1m7.988 9.425a1 1 0 1 0-1.414-1.414l-1.888 1.888A1 1 0 1 0 6.1 27.813zM16 27.821a1 1 0 0 1 1 1v2.678a1 1 0 1 1-2 0v-2.678a1 1 0 0 1 1-1m9.426-3.31a1 1 0 1 0-1.415 1.414l1.889 1.888a1 1 0 1 0 1.414-1.414zM27.32 16.5a1 1 0 0 1 1-1H31a1 1 0 0 1 0 2H28.32a1 1 0 0 1-1-1m-.006-9.9A1 1 0 1 0 25.9 5.188L24.01 7.075a1 1 0 1 0 1.415 1.414z" clip-rule="evenodd"/></svg>