<svg xmlns="http://www.w3.org/2000/svg" width="32" height="33" fill="none" viewBox="0 0 32 33"><path fill="#111827" fill-rule="evenodd" d="M26.001 3.348a6 6 0 0 1 6 6v14.544a1 1 0 0 1-.035.265A5.993 5.993 0 0 1 20 23.66v-2.995h-7.99v2.954a5.993 5.993 0 0 1-11.932.806.997.997 0 0 1-.08-.39V9.49a6 6 0 0 1 6-6h1.816a1 1 0 1 1 0 2H5.999a4 4 0 0 0-4 4v9.173H30V9.348a4 4 0 0 0-4-4h-.772a1 1 0 0 1 0-2h.772ZM26.235 22a1 1 0 1 0-1.396 1.433l2.144 2.09a1 1 0 1 0 1.396-1.433L26.235 22Zm-21.39-.024a1 1 0 0 1 1.414-.018l2.144 2.09a1 1 0 0 1-1.396 1.432l-2.144-2.09a1 1 0 0 1-.018-1.414Z" clip-rule="evenodd"/></svg>