<svg xmlns="http://www.w3.org/2000/svg" width="32" height="33" fill="none" viewBox="0 0 32 33"><path fill="#111827" fill-rule="evenodd" d="M9.87 4.897a1 1 0 0 1 1.308.539l1.031 2.477a1 1 0 0 1-1.846.769L9.332 6.204a1 1 0 0 1 .539-1.307M1.217 13.55a1 1 0 0 1 1.307-.539l2.478 1.031a1 1 0 1 1-.769 1.847l-2.477-1.031a1 1 0 0 1-.539-1.308m29.029 1.308a1 1 0 1 0-.769-1.847L27 14.043a1 1 0 1 0 .768 1.847zM22.13 4.897a1 1 0 0 1 .539 1.307l-1.032 2.478a1 1 0 1 1-1.846-.769l1.031-2.477a1 1 0 0 1 1.308-.54M1 20.823a1 1 0 0 0 0 2h29.998a1 1 0 1 0 0-2h-7.047A8.037 8.037 0 0 0 16 11.633a8.035 8.035 0 0 0-7.952 9.19zm3.285 6.357a1 1 0 0 1 1-1h21.427a1 1 0 1 1 0 2H5.286a1 1 0 0 1-1-1" clip-rule="evenodd"/></svg>