<svg xmlns="http://www.w3.org/2000/svg" width="32" height="32" fill="none"><path fill="#111827" fill-rule="evenodd" d="M10.486 1.5a1 1 0 0 0-1-1H1a1 1 0 0 0-1 1v24.756a5.243 5.243 0 0 0 7.009 4.94h23.99a1 1 0 0 0 1-1V19.708a1 1 0 0 0-1-1h-6.832l5.68-4.12a1 1 0 0 0 .221-1.397l-6.157-8.488a1 1 0 0 0-1.397-.222l-12.027 8.725V1.5Zm0 14.177v10.485l17.376-12.605-4.983-6.87-12.393 8.99Zm-.78 13.518H30V20.71h-8.59L9.903 29.056l-.01.007-.187.132Zm-2.47-3.672a1.992 1.992 0 1 1-3.985 0 1.992 1.992 0 0 1 3.984 0Z" clip-rule="evenodd"/></svg>