<svg xmlns="http://www.w3.org/2000/svg" width="32" height="32" fill="none" viewBox="0 0 32 32"><path fill="#111827" fill-rule="evenodd" d="M10.487 1.5a1 1 0 0 0-1-1H1a1 1 0 0 0-1 1v24.757a5.243 5.243 0 0 0 7.009 4.938h23.99a1 1 0 0 0 1-1V19.71a1 1 0 0 0-1-1h-6.832l5.68-4.12a1 1 0 0 0 .221-1.397l-6.157-8.488a1 1 0 0 0-1.397-.222l-12.027 8.725zm0 14.177v10.485l17.375-12.605-4.983-6.87zm-.781 13.518H30V20.71h-8.59L9.903 29.056l-.01.007zm-2.47-3.672a1.992 1.992 0 1 1-3.985 0 1.992 1.992 0 0 1 3.984 0" clip-rule="evenodd"/></svg>