<svg xmlns="http://www.w3.org/2000/svg" width="34" height="32" fill="none" viewBox="0 0 34 32"><path fill="#111827" fill-rule="evenodd" d="M24.463.294a1 1 0 0 1 1.415 0l3.436 3.436.017.017.017.017L32.784 7.2a1 1 0 0 1-1.414 1.414L28.624 5.87l-4.341 4.34 5.048 5.049a1 1 0 0 1-1.414 1.414l-1.902-1.902-12.817 12.816a.5.5 0 0 1-.366.146l-6.077-.15-4.125 4.124a1 1 0 0 1-1.414-1.414l4.114-4.115-.152-6.099a.5.5 0 0 1 .147-.366l3.32-3.32 3.732 3.733a1 1 0 1 0 1.414-1.415l-3.732-3.732 2.614-2.614 3.733 3.732a1 1 0 0 0 1.414-1.414l-3.732-3.733 4.053-4.053-1.735-1.735a1 1 0 0 1 1.415-1.414l5.048 5.048 4.34-4.34-2.746-2.747a1 1 0 0 1 0-1.414Z" clip-rule="evenodd"/></svg>