<svg xmlns="http://www.w3.org/2000/svg" width="32" height="32" fill="none"><path fill="#111827" fill-rule="evenodd" d="M12.406 1.97a1 1 0 0 1 .931-.635h5.325a1 1 0 0 1 .931.636L21.6 7.095h2.422l6.069 8.759H1.897l6.07-8.76H10.4l2.005-5.123Zm1.614 1.365L12.79 6.48h6.42l-1.23-3.145h-3.96Zm16.07 15.03H1.897v11.3a1 1 0 0 0 1 1h5.139a1 1 0 0 0 1-1v-4.357h13.927v4.357a1 1 0 0 0 1 1h5.127a1 1 0 0 0 1-1V18.366ZM6.25 21.169a1 1 0 0 1 1-1h2.5a1 1 0 0 1 0 2h-2.5a1 1 0 0 1-1-1Zm15 0a1 1 0 0 1 1-1h2.5a1 1 0 0 1 0 2h-2.5a1 1 0 0 1-1-1Zm9.748-2.954h-.892v-2h.892a1 1 0 1 1 0 2Zm-29.104-.109H1a1 1 0 1 1 0-2h.893v2Z" clip-rule="evenodd"/></svg>