<svg xmlns="http://www.w3.org/2000/svg" width="32" height="32" fill="none" viewBox="0 0 32 32"><path fill="#111827" fill-rule="evenodd" d="M11.404 1.392A1 1 0 0 0 9.99 2.806l3.596 3.596H1a1 1 0 0 0-1 1v22.499a1 1 0 0 0 1 1h29.998a1 1 0 0 0 1-1V7.402a1 1 0 0 0-1-1H18.414l3.596-3.596a1 1 0 0 0-1.414-1.414L16 5.988zM22.25 28.901V8.402H30v20.499zM26 10.557a1 1 0 0 0 0 2h1.25a1 1 0 0 0 0-2zm0 6.25a1 1 0 1 0 0 2h1.25a1 1 0 0 0 0-2zm-1 7.25a1 1 0 0 1 1-1h1.25a1 1 0 0 1 0 2H26a1 1 0 0 1-1-1" clip-rule="evenodd"/></svg>