<svg xmlns="http://www.w3.org/2000/svg" width="32" height="32" fill="none" viewBox="0 0 32 32"><path fill="#111827" fill-rule="evenodd" d="m15.008 17.196-3.176-5.91-3.15 5.91zm2.495.417-4.352-8.098c-.567-1.055-2.082-1.052-2.645.005L4.119 21.505a1 1 0 0 0 1.765.94l1.732-3.25h8.467l1.748 3.254a1 1 0 1 0 1.762-.947l-1.968-3.662a1 1 0 0 0-.122-.227m3.171-4.086a1 1 0 0 1 1-1H24a4 4 0 0 1 4 4v5.747a1 1 0 0 1-1.898.44c-.636.36-1.38.56-2.144.56-2.104 0-4.043-1.518-4.043-3.662s1.94-3.662 4.043-3.662c.723 0 1.428.18 2.04.503A2 2 0 0 0 24 14.527h-2.325a1 1 0 0 1-1-1m3.283 7.748c1.254 0 2.038-.861 2.042-1.656v-.013c-.004-.795-.788-1.656-2.042-1.656-1.258 0-2.043.865-2.043 1.662s.785 1.663 2.043 1.663" clip-rule="evenodd"/></svg>