<svg xmlns="http://www.w3.org/2000/svg" width="32" height="32" fill="none" viewBox="0 0 32 32"><path fill="#111827" fill-rule="evenodd" d="M16 7.001c-3.568 0-5.61 2.014-5.61 4v.007c-.003.233.033.465.104.687a1 1 0 0 1-1.904.612 4.2 4.2 0 0 1-.2-1.31C8.391 7.462 11.836 5 16 5c3.237 0 5.967 1.447 7.09 3.752a1 1 0 1 1-1.799.876C20.595 8.2 18.706 7 16 7M4 16a1 1 0 0 1 1-1H27a1 1 0 1 1 0 2h-5.012C23.18 17.916 24 19.2 24 21c0 1.787-1.016 3.31-2.469 4.348-1.455 1.04-3.413 1.65-5.53 1.65s-4.076-.61-5.53-1.65C9.016 24.311 8 22.787 8 21a1 1 0 1 1 2 0c0 .973.551 1.95 1.632 2.72C12.71 24.492 14.253 25 16 25s3.29-.508 4.368-1.278c1.08-.772 1.63-1.748 1.63-2.721 0-1.112-.474-1.862-1.316-2.478-.869-.636-2.093-1.096-3.526-1.522H5a1 1 0 0 1-1-1" clip-rule="evenodd"/></svg>