<svg xmlns="http://www.w3.org/2000/svg" width="32" height="32" fill="none" viewBox="0 0 32 32"><path fill="#111827" fill-rule="evenodd" d="M6.001 7.69a1 1 0 1 0-2 0v13.198a1 1 0 1 0 2 0V15.29h9.439v5.6a1 1 0 1 0 2 0v-13.2a1 1 0 1 0-2 0v5.6H6zm15.718 4.718a1 1 0 0 0 0 2h3.375l-2.344 3.397a1 1 0 0 0 .823 1.568c.566 0 1.201.236 1.692.64.49.405.734.886.734 1.328a1.969 1.969 0 0 1-3.502 1.236 1 1 0 1 0-1.556 1.256 3.969 3.969 0 0 0 7.058-2.491c0-1.198-.65-2.201-1.462-2.871a4.9 4.9 0 0 0-1.29-.764l2.575-3.73a1 1 0 0 0-.823-1.569z" clip-rule="evenodd"/></svg>