<svg xmlns="http://www.w3.org/2000/svg" width="32" height="32" fill="none" viewBox="0 0 32 32"><path fill="#111827" fill-rule="evenodd" d="M6.001 8.08a1 1 0 1 0-2 0v13.2a1 1 0 1 0 2 0v-5.6h9.44v5.6a1 1 0 1 0 2 0V8.08a1 1 0 0 0-2 0v5.6H6v-5.6Zm16.566 7.19a1.858 1.858 0 0 1 3.433.986c0 .215-.022.333-.179.601l-.005.008c-.02.027-.085.122-.221.307-.15.203-.351.474-.589.79-.474.631-1.086 1.436-1.69 2.229a1118.19 1118.19 0 0 1-2.186 2.854l-.15.196-.04.051-.01.013-.002.003v.001h-.001l.793.61-.793-.61a1 1 0 0 0 .793 1.61H27a1 1 0 0 0 0-2h-3.253l1.159-1.515a439.06 439.06 0 0 0 1.699-2.24c.24-.319.446-.596.602-.809.137-.186.277-.379.34-.487.33-.565.452-1.03.452-1.612a3.858 3.858 0 0 0-7.126-2.05 1 1 0 1 0 1.694 1.064Z" clip-rule="evenodd"/></svg>