<svg xmlns="http://www.w3.org/2000/svg" width="32" height="33" fill="none"><path fill="#111827" fill-rule="evenodd" d="M6.416 4.317v14.119a7.648 7.648 0 0 0-3.48 6.421 7.643 7.643 0 1 0 11.79-6.421V4.317C14.726 2.21 12.866.5 10.57.5S6.416 2.21 6.416 4.317Zm5.162 11.041a1 1 0 1 0-2 0v5.988a3.86 3.86 0 0 0 1 7.584 3.857 3.857 0 0 0 1-7.584v-5.988Zm-1.01 7.858H10.588a1.857 1.857 0 1 1-.022 0ZM24.72 5.072a1 1 0 1 0-2 0v3.194l-3.033-.988a1 1 0 0 0-.62 1.902l3.037.988-1.879 2.588a1 1 0 1 0 1.619 1.175l1.876-2.585 1.877 2.585a1 1 0 0 0 1.618-1.175l-1.878-2.588 3.036-.988a1 1 0 1 0-.62-1.902l-3.033.988V5.072Z" clip-rule="evenodd"/></svg>