<svg xmlns="http://www.w3.org/2000/svg" width="32" height="33" fill="none" viewBox="0 0 32 33"><path fill="#111827" fill-rule="evenodd" d="M7.155 4.317v14.119a7.65 7.65 0 0 0-3.48 6.421 7.643 7.643 0 1 0 11.79-6.421V4.317C15.465 2.21 13.605.5 11.31.5S7.155 2.21 7.155 4.317m5.17 6.47a1 1 0 1 0-2 0v10.56a3.859 3.859 0 0 0 1 7.583 3.857 3.857 0 0 0 1-7.584zM9.467 25.072a1.857 1.857 0 1 1 3.715 0 1.857 1.857 0 0 1-3.715 0m13.144-15.43a1.857 1.857 0 1 1 3.715 0 1.857 1.857 0 0 1-3.715 0m1.857-3.857a3.857 3.857 0 1 0 0 7.715 3.857 3.857 0 0 0 0-7.715" clip-rule="evenodd"/></svg>