<svg xmlns="http://www.w3.org/2000/svg" width="32" height="33" fill="none" viewBox="0 0 32 33"><path fill="#111827" fill-rule="evenodd" d="M6.566 18.436V4.317C6.566 2.21 8.426.5 10.72.5s4.155 1.71 4.155 3.817v14.119a7.643 7.643 0 1 1-11.79 6.421 7.65 7.65 0 0 1 3.48-6.421m4.162-14.364a1 1 0 0 1 1 1v16.274a3.859 3.859 0 0 1-1 7.584 3.857 3.857 0 0 1-1-7.584V5.072a1 1 0 0 1 1-1m0 19.144a1.857 1.857 0 1 0 0 3.714 1.857 1.857 0 0 0 0-3.715m9.645-15.117a3.86 3.86 0 0 1 4.206.838 1.857 1.857 0 0 0 2.628 0 1 1 0 0 1 1.415 1.413 3.857 3.857 0 0 1-5.458 0 1.86 1.86 0 0 0-2.628 0 1 1 0 1 1-1.415-1.413 3.9 3.9 0 0 1 1.252-.838m1.477 5.42a3.86 3.86 0 0 0-2.73 1.132 1 1 0 0 0 1.416 1.414 1.86 1.86 0 0 1 2.628 0 3.857 3.857 0 0 0 5.458 0 1 1 0 1 0-1.415-1.414 1.856 1.856 0 0 1-2.628 0 3.86 3.86 0 0 0-2.73-1.131" clip-rule="evenodd"/></svg>