<svg xmlns="http://www.w3.org/2000/svg" width="32" height="32" fill="none" viewBox="0 0 32 32"><path fill="#111827" fill-rule="evenodd" d="M6.158 26.648c2.16 0 4.059-2.222 5.158-5.584v7.92a1 1 0 0 0 1 1H31a1 1 0 0 0 1-1V11.028a9 9 0 0 0-9-9H6.425a3 3 0 0 0-.267-.012C2.758 2.016 0 7.53 0 14.332s2.757 12.316 6.158 12.316m1.847-12.316a1.847 1.847 0 1 1-3.694 0 1.847 1.847 0 0 1 3.694 0M23 4.028H10.24c.419.481.798 1.028 1.13 1.616 1.195 2.111 1.946 4.993 1.946 8.213v.019h1.377a1 1 0 1 1 0 2h-1.377v12.108H30V15.876h-1.516a1 1 0 0 1 0-2H30v-2.848a7 7 0 0 0-7-7m-3.71 9.848a1 1 0 1 0 0 2h4.597a1 1 0 1 0 0-2z" clip-rule="evenodd"/></svg>