<svg width="33" height="33" fill="none" xmlns="http://www.w3.org/2000/svg"><path d="M12.303 13.954v-3.726a4.657 4.657 0 1 1 9.314 0v3.726" stroke="#1C1B1F" stroke-width="2" stroke-linecap="round" stroke-linejoin="round"/><path d="M6.823 26.995h20.274l1.863-16.767h-24l1.863 16.767Z" fill="#1C1B1F" stroke="#1C1B1F" stroke-width="2" stroke-linejoin="round"/><path d="M22.514 10.228v-1h-2v1h2Zm-2 4.446a1 1 0 1 0 2 0h-2Zm0-4.446v4.446h2v-4.446h-2ZM11.406 14.674a1 1 0 0 0 2 0h-2Zm2-4.446v-1h-2v1h2Zm0 4.446v-4.446h-2v4.446h2Z" fill="#fff"/></svg>