<svg xmlns="http://www.w3.org/2000/svg" width="32" height="32" fill="none" viewBox="0 0 32 32"><path fill="#111827" fill-rule="evenodd" d="m15.891 14.612 13.01-2.164L25.16.697A1 1 0 0 0 24.21 0H7.787a1 1 0 0 0-.953.697L3.099 12.435zm1.107 1.843 11.67-1.94-3.506 11.019a1 1 0 0 1-.953.697h-2.192l3.127 4.169a1 1 0 0 1-1.6 1.2l-4.027-5.37h-2.519zm-2 .033v9.743h-2.52L8.453 31.6a1 1 0 0 1-1.6-1.2l3.127-4.17H7.787a1 1 0 0 1-.953-.696l-3.51-11.032zM10.23 8.346a1 1 0 0 1 1-1h9.539a1 1 0 1 1 0 2h-9.539a1 1 0 0 1-1-1" clip-rule="evenodd"/></svg>