<svg xmlns="http://www.w3.org/2000/svg" width="32" height="33" fill="none" viewBox="0 0 32 33"><path fill="#111827" fill-rule="evenodd" d="M11.886 1a1 1 0 0 1 1.367-.366l3.222 1.86a1.002 1.002 0 0 1 .392 1.381l-1.876 3.249a1 1 0 0 1-1.732-1l.94-1.626c-6.362.878-11.261 6.336-11.261 12.939 0 3.4 1.298 6.496 3.428 8.82a1 1 0 0 1-1.475 1.352A15.012 15.012 0 0 1 .938 17.437c0-7.235 5.102-13.28 11.904-14.73l-.59-.341A1 1 0 0 1 11.886 1Zm9.842 3.551a1 1 0 0 1 1.353-.411c4.747 2.532 7.982 7.536 7.982 13.297 0 3.75-1.372 7.183-3.64 9.82a1 1 0 0 1-1.517-1.305 13.007 13.007 0 0 0 3.157-8.515A13.06 13.06 0 0 0 22.14 5.904a1 1 0 0 1-.412-1.353Zm3.224 12.895a8.952 8.952 0 0 1-5.004 8.036v2.582a1 1 0 0 1-1 1h-5.905a1 1 0 0 1-1-1v-2.586a8.952 8.952 0 1 1 12.909-8.032Zm-7.876-6.303a1 1 0 1 0-.335 1.972 4.362 4.362 0 0 1 3.57 3.564 1 1 0 0 0 1.97-.337 6.362 6.362 0 0 0-5.204-5.199ZM11.05 31.75a1 1 0 0 1 1-1h7.904a1 1 0 1 1 0 2h-7.904a1 1 0 0 1-1-1Z" clip-rule="evenodd"/></svg>