<svg xmlns="http://www.w3.org/2000/svg" width="32" height="32" fill="none" viewBox="0 0 32 32"><path fill="#111827" fill-rule="evenodd" d="M10.23 1.731a1 1 0 0 1 1 1v2.462h8.231a1 1 0 1 1 0 2h-3.649a14.85 14.85 0 0 1-4.08 9.257q.154.116.312.228a12.85 12.85 0 0 0 6.81 2.341l3.175-6.35a1 1 0 0 1 1.788 0l8.077 16.153a1 1 0 1 1-1.789.894l-2.031-4.063H17.772l-2.031 4.063a1 1 0 0 1-1.79-.895l2.292-4.581.033-.066 1.612-3.224a14.85 14.85 0 0 1-7.656-3.131A14.85 14.85 0 0 1 1 21.039a1 1 0 1 1 0-2c2.806 0 5.517-.919 7.731-2.588a14.85 14.85 0 0 1-3.27-5.31 1 1 0 0 1 1.886-.667 12.85 12.85 0 0 0 2.884 4.652 12.85 12.85 0 0 0 3.576-7.933H1a1 1 0 0 1 0-2h8.23V2.73a1 1 0 0 1 1-1m16.844 21.922-4.151-8.301-4.15 8.301z" clip-rule="evenodd"/></svg>