<svg xmlns="http://www.w3.org/2000/svg" width="32" height="32" fill="none"><path fill="#111827" fill-rule="evenodd" d="M21.76 2.42a.5.5 0 0 1 .5-.5h9.24a.5.5 0 0 1 .5.5v9.24a.5.5 0 0 1-.5.5h-9.24a.5.5 0 0 1-.5-.5V7.993h-4.863v15.959h4.863V20.34a.5.5 0 0 1 .5-.5h9.24a.5.5 0 0 1 .5.5v9.24a.5.5 0 0 1-.5.5h-9.24a.5.5 0 0 1-.5-.5v-3.628h-5.863a1 1 0 0 1-1-1V17H8.96v2.98a.5.5 0 0 1-.5.5H.5a.5.5 0 0 1-.5-.5v-7.96a.5.5 0 0 1 .5-.5h7.96a.5.5 0 0 1 .5.5V15h5.937V6.993a1 1 0 0 1 1-1h5.863V2.42Z" clip-rule="evenodd"/></svg>