<svg xmlns="http://www.w3.org/2000/svg" width="32" height="33" fill="none" viewBox="0 0 32 33"><path fill="#111827" fill-rule="evenodd" d="M21.76 2.92a.5.5 0 0 1 .5-.5h9.24a.5.5 0 0 1 .5.5v9.24a.5.5 0 0 1-.5.5h-9.24a.5.5 0 0 1-.5-.5V8.493h-4.863v15.959h4.863V20.84a.5.5 0 0 1 .5-.5h9.24a.5.5 0 0 1 .5.5v9.24a.5.5 0 0 1-.5.5h-9.24a.5.5 0 0 1-.5-.5v-3.628h-5.863a1 1 0 0 1-1-1V17.5H8.96v2.98a.5.5 0 0 1-.5.5H.5a.5.5 0 0 1-.5-.5v-7.96a.5.5 0 0 1 .5-.5h7.96a.5.5 0 0 1 .5.5v2.98h5.937V7.493a1 1 0 0 1 1-1h5.863z" clip-rule="evenodd"/></svg>