<svg xmlns="http://www.w3.org/2000/svg" width="32" height="32" fill="none" viewBox="0 0 32 32"><path fill="#111827" fill-rule="evenodd" d="M.001 5.822a1 1 0 0 1 1-1h21.427a1 1 0 0 1 1 1v1.143h5.428a1 1 0 0 1 .928.626l2.142 5.314a1 1 0 0 1 .073.374v9.685a1 1 0 0 1-1 1h-2.87a4.216 4.216 0 0 1-8.19 0h-7.88a4.216 4.216 0 0 1-8.19 0H1.002a1 1 0 0 1-1-1zm21.82 17.216a2.214 2.214 0 1 0 .45-1.413 2.3 2.3 0 0 0-.447 1.339q0 .038-.003.074m6.36-14.073 1.74 4.314h-6.493V8.965zm-6.753-2.143v9.792H2.001V6.822zM7.965 20.75a2.214 2.214 0 1 0 0 4.428 2.214 2.214 0 0 0 0-4.428" clip-rule="evenodd"/></svg>