<svg xmlns="http://www.w3.org/2000/svg" width="32" height="32" fill="none"><path fill="#111827" fill-rule="evenodd" d="M.001 5.822a1 1 0 0 1 1-1h21.427a1 1 0 0 1 1 1v1.143h5.428a1 1 0 0 1 .928.626l2.142 5.314a.999.999 0 0 1 .073.374v9.685a1 1 0 0 1-1 1h-2.87a4.216 4.216 0 0 1-8.19 0h-7.88a4.216 4.216 0 0 1-8.19 0H1.002a1 1 0 0 1-1-1V5.822Zm21.82 17.216a2.214 2.214 0 1 0 .45-1.413 2.304 2.304 0 0 0-.447 1.339c0 .025 0 .05-.003.074Zm6.36-14.073 1.74 4.314h-6.493V8.965h4.753Zm-6.753-2.143v9.792H2.001V6.822h19.427ZM7.965 20.75a2.214 2.214 0 1 0 0 4.428 2.214 2.214 0 0 0 0-4.428Z" clip-rule="evenodd"/></svg>