<svg xmlns="http://www.w3.org/2000/svg" width="32" height="32" fill="none" viewBox="0 0 32 32"><path fill="#111827" fill-rule="evenodd" d="M.471 9.125a1 1 0 0 1 .435-1.357l6.812-3.436h4.09v.05a4.243 4.243 0 0 0 8.485 0v-.05h3.99l6.81 3.436a1 1 0 0 1 .436 1.357l-3.142 5.997a1 1 0 0 1-.886.536h-3.91c.046 3.153.275 6.296.554 10.117l.06.82a1 1 0 0 1-.997 1.073H8.813a1 1 0 0 1-.996-1.093c.38-4.173.676-7.512.717-10.917H4.5a1 1 0 0 1-.886-.536zm23.81-4.783q-.053.465-.113.904.053-.445.113-.904" clip-rule="evenodd"/></svg>