<svg xmlns="http://www.w3.org/2000/svg" width="32" height="32" fill="none"><path fill="#111827" d="M14.307 8.418A6.32 6.32 0 0 1 26.366 5.77c.033.073.105.12.184.12h4.967a.2.2 0 0 1 .142.341l-4.702 4.702a.202.202 0 0 0-.059.129 20.222 20.222 0 0 1-20.173 18.84c-4.066 0-5.68-1.227-6.155-1.707-.09-.091-.05-.233.069-.282 1-.416 4.99-2.218 7.221-5.407a.201.201 0 0 0-.065-.292c-1.373-.78-9.542-5.99-7.456-18.47.027-.158.223-.23.341-.119 1.275 1.193 6.84 6.094 13.392 7.28a.198.198 0 0 0 .233-.196l.002-2.291Z"/></svg>