<svg xmlns="http://www.w3.org/2000/svg" width="32" height="33" fill="none"><path fill="#111827" fill-rule="evenodd" d="M.001 17.171c0-8.836 7.163-15.999 16-15.999 8.835 0 15.998 7.163 15.998 16v.913a1 1 0 0 1-1 1H17.013v8.283a2.46 2.46 0 1 0 4.92 0v-.315a1 1 0 1 1 2 0v.315a4.46 4.46 0 1 1-8.92 0v-8.283H1a1 1 0 0 1-1-1v-.914Zm2-.086h8.229c.316-8.717 4.71-13.102 5.61-13.912C8.21 3.26 2.047 9.447 2 17.085Zm27.998 0H21.77c-.317-8.717-4.71-13.102-5.61-13.912C23.79 3.26 29.953 9.447 30 17.085Z" clip-rule="evenodd"/></svg>