<svg xmlns="http://www.w3.org/2000/svg" width="32" height="33" fill="none" viewBox="0 0 32 33"><path fill="#111827" fill-rule="evenodd" d="M9.802 7.85a.982.982 0 0 0 1.404 0l3.846-3.903v13.485a1 1 0 0 0 2 0V3.947l3.846 3.903a.982.982 0 0 0 1.404 0 1.018 1.018 0 0 0 0-1.424L16.754.796a.982.982 0 0 0-1.435.03l-5.517 5.6a1.018 1.018 0 0 0 0 1.424Zm21.89 23.65v-9.956a1 1 0 0 0-1-1H1.308a1 1 0 0 0-1 1V31.5a1 1 0 0 0 1 1h29.384a1 1 0 0 0 1-1Zm-6.639-3.185c1 0 1.81-.803 1.81-1.793 0-.99-.81-1.793-1.81-1.793s-1.81.803-1.81 1.793c0 .99.81 1.793 1.81 1.793Z" clip-rule="evenodd"/></svg>