<svg xmlns="http://www.w3.org/2000/svg" width="32" height="33" fill="none" viewBox="0 0 32 33"><path fill="#111827" fill-rule="evenodd" d="M9.802 7.85a.98.98 0 0 0 1.404 0l3.846-3.903v13.485a1 1 0 0 0 2 0V3.947l3.846 3.903a.98.98 0 0 0 1.404 0 1.02 1.02 0 0 0 0-1.424L16.754.796a.98.98 0 0 0-1.435.03l-5.517 5.6a1.02 1.02 0 0 0 0 1.424m21.89 23.65v-9.956a1 1 0 0 0-1-1H1.308a1 1 0 0 0-1 1V31.5a1 1 0 0 0 1 1h29.384a1 1 0 0 0 1-1m-6.639-3.185c1 0 1.81-.803 1.81-1.793s-.81-1.793-1.81-1.793-1.81.803-1.81 1.793.81 1.793 1.81 1.793" clip-rule="evenodd"/></svg>