<svg xmlns="http://www.w3.org/2000/svg" width="32" height="33" fill="none" viewBox="0 0 32 33"><path fill="#111827" fill-rule="evenodd" d="M10.538 1.5a1 1 0 0 0-1-1H1.001a1 1 0 0 0-1 1v8.538a1 1 0 1 0 2 0V2.5h7.537a1 1 0 0 0 1-1m10.924 0a1 1 0 0 1 1-1h8.537a1 1 0 0 1 1 1v8.538a1 1 0 1 1-2 0V2.5h-7.537a1 1 0 0 1-1-1m-.177 11.47a5.285 5.285 0 0 1-5.28 5.286 7.06 7.06 0 0 1 6.983 6.061c.077.547-.378.997-.93.997H9.942c-.552 0-1.008-.45-.93-.997a7.06 7.06 0 0 1 6.983-6.061 5.285 5.285 0 1 1 5.29-5.285M22.462 32.5a1 1 0 1 1 0-2h7.537v-7.537a1 1 0 0 1 2 0v8.537a1 1 0 0 1-1 1zm-12.924 0a1 1 0 1 0 0-2H2.001v-7.537a1 1 0 1 0-2 0v8.537a1 1 0 0 0 1 1z" clip-rule="evenodd"/></svg>