<svg xmlns="http://www.w3.org/2000/svg" width="32" height="33" fill="none" viewBox="0 0 32 33"><path fill="#111827" fill-rule="evenodd" d="M10.12 19.017a7.574 7.574 0 1 0-.1 0C4.795 19.042.505 23.03.005 28.133c-.054.55.4.998.952.998h18.23c.552 0 1.005-.449.95-.998-.5-5.102-4.789-9.091-10.016-9.116Zm10.194.019a7.309 7.309 0 0 1-.128-.048c2.927-1.13 3.589-3.972 3.589-7.299a7.824 7.824 0 0 0-5.005-7.298 7.82 7.82 0 0 1 10.637 7.298c0 3.362-1.263 6.229-3.86 7.334 3.883 1.088 6.154 4.699 6.45 9.108.038.552-.414 1-.966 1h-4.633c0-4.792-1.812-8.83-6.212-10.06l.128-.035Z" clip-rule="evenodd"/></svg>