<svg xmlns="http://www.w3.org/2000/svg" width="32" height="33" fill="none"><path fill="#111827" fill-rule="evenodd" d="M19.299 10.971a8.28 8.28 0 0 1-8.238 8.28c5.75.022 10.467 4.434 10.97 10.059.05.55-.403 1-.955 1H.96c-.553 0-1.005-.45-.956-1 .504-5.625 5.22-10.037 10.972-10.059a8.28 8.28 0 1 1 8.323-8.28Zm8.829 1.058a1 1 0 0 0-2 0v1.059a3.551 3.551 0 0 0-1.454.84l-.918-.53a1 1 0 1 0-1 1.732l.917.53a3.566 3.566 0 0 0 0 1.68l-.917.529a1 1 0 0 0 1 1.732l.917-.53c.406.387.902.68 1.455.841v1.058a1 1 0 0 0 2 0v-1.058a3.55 3.55 0 0 0 1.454-.84l.917.53a1 1 0 0 0 1-1.733l-.916-.529a3.56 3.56 0 0 0 0-1.68l.916-.53a1 1 0 1 0-1-1.732l-.917.53a3.55 3.55 0 0 0-1.454-.84v-1.059Zm-1 6.026h.017a1.554 1.554 0 0 0 1.318-.757l.011-.02.013-.022a1.548 1.548 0 0 0-.006-1.522l-.007-.012-.006-.01a1.554 1.554 0 1 0-1.357 2.343h.017Z" clip-rule="evenodd"/></svg>