<svg xmlns="http://www.w3.org/2000/svg" width="32" height="33" fill="none" viewBox="0 0 32 33"><path fill="#111827" fill-rule="evenodd" d="M6.857 14.769q.21 0 .414-.019a10.34 10.34 0 0 1 4.435-6.839A5.163 5.163 0 0 0 1.67 9.608a5.16 5.16 0 0 0 5.134 5.16 6.894 6.894 0 0 0-6.795 5.896c-.079.546.377.997.929.997h7.564a10.3 10.3 0 0 1-1.379-5.16q.001-.88.142-1.719a7 7 0 0 0-.408-.013m9.17 6.892a5.16 5.16 0 1 0-.053 0 6.894 6.894 0 0 0-6.794 5.895c-.079.546.376.996.929.996h11.784c.552 0 1.007-.45.928-.996a6.89 6.89 0 0 0-6.793-5.895m7.474 0h7.562c.552 0 1.007-.45.928-.997a6.894 6.894 0 0 0-6.773-5.895 5.16 5.16 0 1 0-4.922-6.858 10.34 10.34 0 0 1 4.435 6.84q.195.016.393.018-.195 0-.387.013.142.84.143 1.718c0 1.88-.502 3.642-1.379 5.16" clip-rule="evenodd"/></svg>