<svg width="33" height="33" fill="none" xmlns="http://www.w3.org/2000/svg"><path fill-rule="evenodd" clip-rule="evenodd" d="M5.96 16.783c0-6.075 4.925-11 11-11a1 1 0 0 0 0-2c-7.18 0-13 5.82-13 13s5.82 13 13 13 13-5.82 13-13a1 1 0 0 0-2 0c0 3.723-1.85 7.015-4.681 9.005a6.39 6.39 0 0 0-12.638 0 10.987 10.987 0 0 1-4.681-9.005Zm20-13a1 1 0 0 1 1 1v2h2a1 1 0 0 1 0 2h-2v2a1 1 0 0 1-2 0v-2h-2a1 1 0 1 1 0-2h2v-2a1 1 0 0 1 1-1Zm-9 16.568a4.784 4.784 0 1 0 0-9.568 4.784 4.784 0 0 0 0 9.568Z" fill="#1C1B1F"/></svg>