<svg xmlns="http://www.w3.org/2000/svg" width="32" height="33" fill="none" viewBox="0 0 32 33"><path fill="#111827" fill-rule="evenodd" d="M19.574 4.365A12.639 12.639 0 0 0 5.375 9.642a1.23 1.23 0 1 0 2.07 1.333 10.177 10.177 0 0 1 18.732 5.405l-1.26-1.26a1.23 1.23 0 0 0-1.74 1.741l3.345 3.345a1.227 1.227 0 0 0 1.756.016l3.362-3.36a1.23 1.23 0 1 0-1.741-1.741l-1.26 1.26a12.639 12.639 0 0 0-9.065-12.016ZM27.408 16.5l1.11.001.002-.001h-1.112Z" clip-rule="evenodd"/><path fill="#111827" fill-rule="evenodd" d="M5.088 12.521a1.228 1.228 0 0 0-1.374.264L.36 16.14a1.23 1.23 0 0 0 1.741 1.74l1.26-1.26a12.639 12.639 0 0 0 23.264 6.739 1.23 1.23 0 0 0-2.07-1.333 10.175 10.175 0 0 1-2.625 2.759 6.076 6.076 0 0 0-5.918-4.753 4.548 4.548 0 1 0-.024 0 6.076 6.076 0 0 0-5.918 4.753 10.177 10.177 0 0 1-4.247-8.164l1.26 1.26a1.23 1.23 0 1 0 1.74-1.741L5.465 12.78a1.228 1.228 0 0 0-.376-.259ZM3.481 16.5v-.001l1.11.001h-1.11Z" clip-rule="evenodd"/></svg>