<svg xmlns="http://www.w3.org/2000/svg" width="32" height="33" fill="none" viewBox="0 0 32 33"><path fill="#111827" fill-rule="evenodd" d="M12.715 8.227a4.176 4.176 0 1 0-4.394 0 6.58 6.58 0 0 0-4.38 6.2 1 1 0 1 0 2 0 4.576 4.576 0 0 1 9.153-.033v.034a1 1 0 0 0 1 1 1 1 0 0 0 1-1v-.034a4.576 4.576 0 0 1 9.153.034 1 1 0 0 0 2 0 6.58 6.58 0 0 0-4.379-6.2 4.176 4.176 0 1 0-4.394 0 6.596 6.596 0 0 0-3.38 2.712 6.597 6.597 0 0 0-3.379-2.713Zm1.816 13.382a4.663 4.663 0 1 1-9.327 0 4.663 4.663 0 0 1 9.327 0Zm12.29-.07a4.593 4.593 0 0 1-4.575 4.592 6.135 6.135 0 0 1 6.035 5.138c.089.545-.367.996-.92.996H17.094c-.552 0-1.008-.451-.92-.996a6.135 6.135 0 0 1 6.037-5.138 4.593 4.593 0 1 1 4.61-4.593ZM9.868 26.271a6.23 6.23 0 0 0-6.148 5.232c-.088.545.368.996.92.996h10.456c.552 0 1.008-.45.92-.996a6.23 6.23 0 0 0-6.148-5.232Z" clip-rule="evenodd"/></svg>