<svg xmlns="http://www.w3.org/2000/svg" width="32" height="33" fill="none" viewBox="0 0 32 33"><path fill="#111827" fill-rule="evenodd" d="M2.001 16.5c0-7.732 6.268-14 14-14a1 1 0 0 0 0-2C7.163.5 0 7.665 0 16.5s7.163 15.999 16 15.999c8.835 0 15.998-7.163 15.998-16a1 1 0 0 0-2 0c0 4.786-2.401 9.011-6.064 11.536a7.987 7.987 0 0 0-15.87 0A13.984 13.984 0 0 1 2.002 16.5ZM27.25.5a1 1 0 0 1 1 1v2.75H31a1 1 0 1 1 0 2h-2.75V9a1 1 0 1 1-2 0V6.25H23.5a1 1 0 1 1 0-2h2.75V1.5a1 1 0 0 1 1-1ZM16 20.96A5.98 5.98 0 1 0 16 9a5.98 5.98 0 0 0 0 11.96Z" clip-rule="evenodd"/></svg>