<svg width="33" height="33" fill="none" xmlns="http://www.w3.org/2000/svg"><path fill-rule="evenodd" clip-rule="evenodd" d="M4.96 6.783a1 1 0 0 1 1-1h22a1 1 0 0 1 1 1v16a1 1 0 0 1-1 1h-2v3a1 1 0 0 1-2 0v-3h-14v3a1 1 0 0 1-2 0v-3h-2a1 1 0 0 1-1-1v-16Zm12.851 8a3.074 3.074 0 1 1 6.149 0 3.074 3.074 0 0 1-6.149 0Zm3.075-5.074a5.075 5.075 0 1 0 0 10.149 5.075 5.075 0 0 0 0-10.15ZM9.81 11.81a1 1 0 1 1-2 0 1 1 0 0 1 2 0Zm12.704 2.973a1.63 1.63 0 1 1-3.26 0 1.63 1.63 0 0 1 3.26 0Zm-13.704.972a1 1 0 1 0 0-2 1 1 0 0 0 0 2Zm1 2a1 1 0 1 1-2 0 1 1 0 0 1 2 0Zm2-4.945a1 1 0 1 0 0-2 1 1 0 0 0 0 2Zm1 1.945a1 1 0 1 1-2 0 1 1 0 0 1 2 0Zm-1 4a1 1 0 1 0 0-2 1 1 0 0 0 0 2Z" fill="#1C1B1F"/></svg>