<svg xmlns="http://www.w3.org/2000/svg" width="32" height="32" fill="none" viewBox="0 0 32 32"><path fill="#111827" fill-rule="evenodd" d="M15.327 0c-2.4.1-4.665.73-6.678 1.776l3.687 6.386a.978.978 0 0 1 .037.065l3.991 6.912h7.072A17.322 17.322 0 0 0 15.327 0ZM6.934 2.806l3.162 5.477A19.323 19.323 0 0 0 .633 20.451a16.015 16.015 0 0 1-.63-4.458c0-5.47 2.745-10.3 6.931-13.187Zm.122 26.456a16.087 16.087 0 0 1-4.974-5.376 17.322 17.322 0 0 1 9.015-13.87l3.535 6.124-7.576 13.122ZM24.363 17.14h7.615a15.908 15.908 0 0 1-2 6.68 17.322 17.322 0 0 1-17.15-.556l3.536-6.124h7.999Zm-12.534 7.857-3.05 5.281A15.94 15.94 0 0 0 16.011 32c4.612 0 8.768-1.95 11.689-5.071a19.322 19.322 0 0 1-15.871-1.933Zm13.607-9.857A19.322 19.322 0 0 0 18.992.263C26.137 1.609 31.605 7.7 31.996 15.139h-6.56Z" clip-rule="evenodd"/></svg>