<svg xmlns="http://www.w3.org/2000/svg" width="32" height="33" fill="none" viewBox="0 0 32 33"><path fill="#111827" d="M30.863 4.147 24.28.98a1.99 1.99 0 0 0-2.276.385L9.396 12.87 3.9 8.703a1.33 1.33 0 0 0-1.703.073L.438 10.38a1.33 1.33 0 0 0-.005 1.969l4.766 4.349-4.766 4.349a1.33 1.33 0 0 0 .005 1.969l1.76 1.604a1.33 1.33 0 0 0 1.703.073l5.495-4.172L22.01 32.03a1.98 1.98 0 0 0 2.271.384l6.589-3.172A1.99 1.99 0 0 0 32 27.442V5.947c0-.766-.443-1.469-1.135-1.802zm-6.86 19.818-9.572-7.266 9.572-7.266z"/></svg>