<svg xmlns="http://www.w3.org/2000/svg" width="33" height="33" fill="none" viewBox="0 0 33 33"><path fill="#111827" fill-rule="evenodd" d="M3.997 5.382a2.117 2.117 0 1 0 0-4.234 2.117 2.117 0 0 0 0 4.234m28.543 6.04a3.555 3.555 0 1 1-7.11 0 3.555 3.555 0 0 1 7.11 0m-28.445 3.83a3.555 3.555 0 1 0 0-7.111 3.555 3.555 0 0 0 0 7.11M16.54 26.183a3.555 3.555 0 1 0 0-7.11 3.555 3.555 0 0 0 0 7.11M4.095 31.251a3.555 3.555 0 1 0 0-7.11 3.555 3.555 0 0 0 0 7.11m2.019-11.67a2.117 2.117 0 1 1-4.234 0 2.117 2.117 0 0 1 4.234 0M18.657 6.403a2.117 2.117 0 1 1-4.234 0 2.117 2.117 0 0 1 4.234 0m10.426-1.021a2.117 2.117 0 1 0 0-4.234 2.117 2.117 0 0 0 0 4.234M31.2 19.58a2.117 2.117 0 1 1-4.233 0 2.117 2.117 0 0 1 4.233 0m-2.117 10.233a2.117 2.117 0 1 0 0-4.233 2.117 2.117 0 0 0 0 4.233M18.657 14.56a2.117 2.117 0 1 1-4.234 0 2.117 2.117 0 0 1 4.234 0M16.54 32.813a2.117 2.117 0 1 0 0-4.233 2.117 2.117 0 0 0 0 4.233" clip-rule="evenodd"/></svg>