<svg width="33" height="33" fill="none" xmlns="http://www.w3.org/2000/svg"><path fill-rule="evenodd" clip-rule="evenodd" d="M28.667 11.035a1 1 0 0 1 .292.708l-.01 9.108a1 1 0 0 1-.294.706l-6.447 6.433a1 1 0 0 1-.708.293l-9.108-.01a1 1 0 0 1-.706-.295l-6.433-6.447a1 1 0 0 1-.293-.708l.01-9.108a1 1 0 0 1 .294-.706l6.448-6.433a1 1 0 0 1 .708-.293l9.108.01a1 1 0 0 1 .706.294l6.433 6.448ZM16.96 9.283a1 1 0 0 1 1 1v7a1 1 0 0 1-2 0v-7a1 1 0 0 1 1-1Zm1.5 12.5a1.5 1.5 0 1 1-3 0 1.5 1.5 0 0 1 3 0Z" fill="#1C1B1F"/></svg>