<svg xmlns="http://www.w3.org/2000/svg" width="32" height="33" fill="none" viewBox="0 0 32 33"><path fill="#111827" fill-rule="evenodd" d="M10.396 1.351a1 1 0 0 1 .989-.85h9.23a1 1 0 0 1 .989.85l1.093 7.213a10.36 10.36 0 0 1 3.687 7.936c0 3.183-1.432 6.032-3.687 7.936l-1.093 7.213a1 1 0 0 1-.989.85h-9.23a1 1 0 0 1-.989-.85l-1.093-7.213A10.36 10.36 0 0 1 5.616 16.5c0-3.183 1.432-6.032 3.687-7.936zm1.15 24.531.699 4.617h7.51l.7-4.616a10.34 10.34 0 0 1-4.455 1c-1.594 0-3.105-.358-4.455-1m8.21-23.381.699 4.616A10.34 10.34 0 0 0 16 6.116c-1.594 0-3.105.36-4.455 1.001l.7-4.616zM17 10.73a1 1 0 1 0-2 0V16.5a1 1 0 0 0 1 1h5.769a1 1 0 1 0 0-2h-4.77z" clip-rule="evenodd"/></svg>