<svg width="33" height="33" fill="none" xmlns="http://www.w3.org/2000/svg"><path fill-rule="evenodd" clip-rule="evenodd" d="M6.582 10.566Zm-1.403-.158a1 1 0 0 0 1.403.158l.004-.003.028-.022c.028-.02.074-.054.137-.097.126-.086.318-.21.57-.35a8.849 8.849 0 0 1 2.132-.84c1.77-.443 4.221-.46 6.952 1.361 3.27 2.18 6.317 2.196 8.547 1.638a10.85 10.85 0 0 0 2.619-1.033 9.293 9.293 0 0 0 .928-.59l.058-.044.017-.014.006-.005.003-.002c.001 0 .002-.001-.623-.782l.625.78A1 1 0 0 0 27.338 9h-.001v.001l-.003.002a2.544 2.544 0 0 1-.165.119c-.126.086-.318.21-.57.35a8.851 8.851 0 0 1-2.131.84c-1.77.443-4.222.46-6.953-1.361-3.27-2.18-6.318-2.196-8.548-1.638A10.85 10.85 0 0 0 6.35 8.346a9.252 9.252 0 0 0-.928.59 3.931 3.931 0 0 0-.058.044l-.017.014-.006.005L5.337 9c-.001 0-.002.001.623.782l-.625-.78a1 1 0 0 0-.156 1.405Zm1.403 7.158.004-.003.028-.022c.028-.02.074-.054.137-.097.126-.086.318-.21.57-.35a8.848 8.848 0 0 1 2.132-.84c1.77-.443 4.221-.46 6.952 1.361 3.27 2.18 6.317 2.196 8.547 1.638a10.85 10.85 0 0 0 2.619-1.033 9.293 9.293 0 0 0 .928-.59l.058-.044.017-.014.006-.005.003-.002c.001 0 .002-.001-.623-.782l.625.78A1 1 0 0 0 27.338 16h-.001v.001l-.003.002-.028.021c-.029.021-.074.055-.137.098-.126.086-.318.21-.57.35a8.853 8.853 0 0 1-2.131.84c-1.77.443-4.222.46-6.953-1.361-3.27-2.18-6.318-2.196-8.548-1.638a10.847 10.847 0 0 0-2.618 1.033 9.23 9.23 0 0 0-.928.59 3.807 3.807 0 0 0-.058.044l-.017.014-.006.005-.003.002c-.001 0-.002.001.623.782l-.625-.78a1 1 0 0 0 1.247 1.563Zm0 7a1 1 0 0 1-1.247-1.564l.625.78-.624-.78.001-.001.003-.002.006-.005.017-.014.058-.044a9.23 9.23 0 0 1 .928-.59c.621-.345 1.516-.758 2.618-1.033 2.23-.558 5.279-.542 8.548 1.638 2.73 1.82 5.183 1.804 6.953 1.362a8.853 8.853 0 0 0 2.131-.842 7.267 7.267 0 0 0 .707-.447l.02-.015.008-.006.002-.002.002-.001a1 1 0 0 1 1.247 1.564l-.625-.781c.625.78.624.781.624.781l-.001.001-.002.002-.007.005-.017.014a2.75 2.75 0 0 1-.058.043 9.293 9.293 0 0 1-.928.59 10.85 10.85 0 0 1-2.618 1.034c-2.23.558-5.279.541-8.548-1.638-2.73-1.82-5.183-1.804-6.952-1.362a8.848 8.848 0 0 0-2.132.842 7.232 7.232 0 0 0-.735.468l-.003.002Z" fill="#1C1B1F"/></svg>