<svg xmlns="http://www.w3.org/2000/svg" width="32" height="33" fill="none"><path fill="#111827" fill-rule="evenodd" d="m1.021 6.968-.638-.797a1.021 1.021 0 0 0 1.274 1.596l.008-.006.044-.033c.042-.031.108-.08.198-.14.179-.123.45-.297.802-.493a12.39 12.39 0 0 1 2.986-1.179c2.488-.622 5.928-.638 9.739 1.902 4.36 2.907 8.409 2.923 11.367 2.184a14.432 14.432 0 0 0 3.482-1.375c.414-.23.739-.438.964-.593a8.213 8.213 0 0 0 .336-.242l.022-.017.007-.006.003-.002c.001-.001.002-.001-.636-.799l.638.798A1.021 1.021 0 0 0 30.34 6.17l-.006.005a6.224 6.224 0 0 1-.241.173c-.18.123-.45.298-.803.493-.706.393-1.729.865-2.986 1.179-2.488.622-5.928.639-9.738-1.902-4.36-2.906-8.41-2.923-11.368-2.183a14.433 14.433 0 0 0-3.482 1.374c-.414.23-.739.439-.964.593a8.257 8.257 0 0 0-.336.242l-.022.017-.007.006-.003.002v.001c-.001 0-.002 0 .636.798Zm.636.8ZM1.021 16.5l-.638-.797a1.021 1.021 0 0 0 1.274 1.596h.001l.007-.006.044-.033a10.21 10.21 0 0 1 1-.633c.706-.393 1.729-.865 2.986-1.179 2.488-.622 5.928-.638 9.739 1.902 4.36 2.906 8.409 2.923 11.367 2.183a14.429 14.429 0 0 0 3.482-1.374c.414-.23.739-.438.964-.593a8.227 8.227 0 0 0 .336-.242l.022-.017.007-.006.003-.002c.001-.001.002-.001-.636-.799l.638.798a1.021 1.021 0 0 0-1.276-1.596l-.006.005a6.12 6.12 0 0 1-.241.173c-.18.123-.45.298-.803.493-.706.393-1.729.865-2.986 1.179-2.488.622-5.928.639-9.738-1.902-4.36-2.906-8.41-2.923-11.368-2.183a14.433 14.433 0 0 0-3.482 1.374c-.414.23-.739.439-.964.593a8.257 8.257 0 0 0-.336.242l-.022.017-.007.006-.003.002c-.001.001-.002.002.636.8Z" clip-rule="evenodd"/><path fill="#111827" d="m.383 25.235.638.797.636.8a1.021 1.021 0 0 1-1.274-1.598Z"/><path fill="#111827" d="m1.659 26.83-.002.001-.636-.799c-.638-.797-.637-.798-.637-.798l.001-.001.003-.002.007-.006.022-.017.073-.055a12.27 12.27 0 0 1 1.226-.78A14.428 14.428 0 0 1 5.2 23c2.958-.74 7.008-.723 11.368 2.183 3.81 2.54 7.25 2.524 9.738 1.902a12.392 12.392 0 0 0 2.986-1.179 10.213 10.213 0 0 0 1-.633l.044-.033.006-.005a1.021 1.021 0 0 1 1.276 1.595l-.638-.797c.638.797.637.798.637.798l-.001.001-.003.002-.007.006-.022.017a5.724 5.724 0 0 1-.336.242c-.225.154-.55.363-.964.593a14.433 14.433 0 0 1-3.482 1.374c-2.958.74-7.007.723-11.367-2.183-3.81-2.54-7.251-2.524-9.74-1.902-1.256.314-2.279.786-2.985 1.179a10.21 10.21 0 0 0-1 .633l-.044.033-.006.005Z"/></svg>