<svg xmlns="http://www.w3.org/2000/svg" width="32" height="33" fill="none" viewBox="0 0 32 33"><path fill="#111827" fill-rule="evenodd" d="m1.021 6.968-.638-.797a1.021 1.021 0 0 0 1.274 1.596l.008-.006.044-.033q.063-.048.198-.14c.179-.123.45-.297.802-.493a12.4 12.4 0 0 1 2.986-1.179c2.488-.622 5.928-.638 9.739 1.902 4.36 2.907 8.409 2.923 11.367 2.184a14.4 14.4 0 0 0 3.482-1.375c.414-.23.739-.438.964-.593a8 8 0 0 0 .336-.242l.022-.017.007-.006.003-.002c.001-.001.002-.001-.636-.799l.638.798A1.021 1.021 0 0 0 30.34 6.17l-.006.005-.044.034a10.227 10.227 0 0 1-1 .633c-.706.392-1.729.864-2.986 1.178-2.488.622-5.928.639-9.738-1.902-4.36-2.906-8.41-2.923-11.368-2.183a14.4 14.4 0 0 0-3.482 1.374c-.414.23-.739.439-.964.593a8 8 0 0 0-.336.242l-.022.017-.007.006-.003.002v.001c-.001 0-.002 0 .636.798M1.021 16.5l-.638-.797a1.021 1.021 0 0 0 1.274 1.596h.001l.007-.006.044-.033a10.21 10.21 0 0 1 1-.633c.706-.393 1.729-.865 2.986-1.179 2.488-.622 5.928-.638 9.739 1.902 4.36 2.906 8.409 2.923 11.367 2.183a14.4 14.4 0 0 0 3.482-1.374c.414-.23.739-.438.964-.593a8 8 0 0 0 .336-.242l.022-.017.007-.006.003-.002c.001-.001.002-.001-.636-.799l.638.798a1.021 1.021 0 0 0-1.276-1.596l-.006.005-.044.033a10.213 10.213 0 0 1-1 .633c-.706.393-1.729.865-2.986 1.179-2.488.622-5.928.639-9.738-1.902-4.36-2.906-8.41-2.923-11.368-2.183a14.4 14.4 0 0 0-3.482 1.374c-.414.23-.739.439-.964.593a8 8 0 0 0-.336.242l-.022.017-.007.006-.003.002c-.001.001-.002.002.636.8" clip-rule="evenodd"/><path fill="#111827" d="m.383 25.235.638.797.636.8a1.021 1.021 0 0 1-1.274-1.598"/><path fill="#111827" d="m1.659 26.83-.002.001-.636-.799c-.638-.797-.637-.798-.637-.798l.001-.001.003-.002.007-.006.022-.017.073-.055q.093-.07.263-.187c.225-.154.55-.363.964-.593A14.4 14.4 0 0 1 5.199 23c2.958-.74 7.008-.723 11.368 2.183 3.81 2.54 7.25 2.524 9.738 1.902a12.4 12.4 0 0 0 2.986-1.179 10 10 0 0 0 1-.633l.044-.033.006-.005a1.021 1.021 0 0 1 1.276 1.595l-.638-.797c.638.797.637.798.637.798l-.001.001-.003.002-.007.006-.022.017a6 6 0 0 1-.336.242c-.225.154-.55.363-.964.593a14.4 14.4 0 0 1-3.482 1.374c-2.958.74-7.007.723-11.367-2.183-3.81-2.54-7.251-2.524-9.74-1.902-1.256.314-2.279.786-2.985 1.179a10 10 0 0 0-1 .633l-.044.033z"/></svg>