<svg xmlns="http://www.w3.org/2000/svg" width="32" height="33" fill="none" viewBox="0 0 32 33"><path fill="#111827" fill-rule="evenodd" d="M18.142 3.777a5.362 5.362 0 0 0-4.25 9.692 1 1 0 0 1 .203 1.504l-4.313 7.115a3.048 3.048 0 1 1-1.71-1.037l3.938-6.498a7.363 7.363 0 1 1 11.658-2.912 1 1 0 1 1-1.863-.725 5.362 5.362 0 0 0-3.663-7.14Zm3.632 15.53a1 1 0 0 1-.85-.527l-3.64-6.8a3.047 3.047 0 1 1 1.763-.944l3.225 6.023A7.363 7.363 0 1 1 19.3 29.1a1 1 0 1 1 1.45-1.377 5.362 5.362 0 1 0 1.54-8.512.996.996 0 0 1-.516.098Zm.709 6.879a3.035 3.035 0 0 1-.725-1.155h-7.112a7.362 7.362 0 1 1-9.292-8.15 1 1 0 0 1 .546 1.924 5.362 5.362 0 1 0 3.742 10.01l.425.906-.425-.905a5.361 5.361 0 0 0 3.08-4.692.998.998 0 0 1 .07-.343 1 1 0 0 1 .97-.75h7.996a3.047 3.047 0 1 1 .725 3.155Z" clip-rule="evenodd"/></svg>