<svg xmlns="http://www.w3.org/2000/svg" width="32" height="33" fill="none"><path fill="#111827" fill-rule="evenodd" d="M10.502 6.503a2.995 2.995 0 1 0-1.957.095c-.007.051-.012.103-.012.155v4.555a10.582 10.582 0 1 0 12.61 11.042 1 1 0 0 0-1.995-.125 8.582 8.582 0 1 1-10.615-8.87v4.26a1 1 0 0 0 1 1h12.243l4.541 8.84a1 1 0 0 0 1.21.49l3.793-1.286a1 1 0 1 0-.643-1.894l-2.975 1.009-4.426-8.616a1 1 0 0 0-.89-.543H10.534v-3.507h8.433a1 1 0 1 0 0-2h-8.433V6.752c0-.086-.01-.17-.031-.25Z" clip-rule="evenodd"/></svg>