<svg xmlns="http://www.w3.org/2000/svg" width="32" height="32" fill="none" viewBox="0 0 32 32"><path fill="#111827" fill-rule="evenodd" d="M3.67 2.437a1 1 0 0 1 1.413.067L8.625 6.4l.035.038 5.148 5.663q.022.022.043.047l7.608 8.37.036.039L28.4 28.15a1 1 0 1 1-1.48 1.345l-6.875-7.562a6.405 6.405 0 0 0-8.464.336 1 1 0 1 1-1.381-1.447 8.4 8.4 0 0 1 6.772-2.27l-4.23-4.653a13.27 13.27 0 0 0-6.096 3.414 1 1 0 0 1-1.403-1.427 15.3 15.3 0 0 1 5.999-3.637L7.642 8.292a20.3 20.3 0 0 0-5.938 4.073 1 1 0 0 1-1.406-1.421 22.3 22.3 0 0 1 5.936-4.202L3.604 3.85a1 1 0 0 1 .067-1.412m26.626 9.928a20.26 20.26 0 0 0-14.294-5.857H16c-.97 0-1.94.068-2.9.204a1 1 0 1 1-.28-1.98A23 23 0 0 1 16 4.508h-.002l.002 1v-1a22.26 22.26 0 0 1 15.703 6.436 1 1 0 0 1-1.407 1.421m-11.75.326a1 1 0 0 1 1.212-.727 15.26 15.26 0 0 1 7 3.923 1 1 0 1 1-1.402 1.427 13.26 13.26 0 0 0-6.083-3.41 1 1 0 0 1-.727-1.213m-.796 13.801a1.749 1.749 0 1 1-3.497 0 1.749 1.749 0 0 1 3.497 0" clip-rule="evenodd"/></svg>