<svg xmlns="http://www.w3.org/2000/svg" width="32" height="32" fill="none" viewBox="0 0 32 32"><path fill="#111827" fill-rule="evenodd" d="m16.522 5.74.515-.001c.74-.005 1.548-.01 2.139.055a1 1 0 0 0 .215-1.989c-.718-.077-1.683-.071-2.424-.066l-.444.002A23 23 0 0 0 .298 10.39a1 1 0 1 0 1.406 1.422A21 21 0 0 1 16.52 5.74zm15.184-.293a1 1 0 0 0-1.414-1.414L27.38 6.945l-2.912-2.912a1 1 0 1 0-1.414 1.414l2.912 2.912-2.912 2.912a1 1 0 0 0 1.414 1.414l2.912-2.911 2.912 2.912a1 1 0 0 0 1.414-1.415L28.794 8.36zM11.924 22.06a6.657 6.657 0 0 1 9.196 0 1 1 0 0 0 1.381-1.446 8.657 8.657 0 0 0-11.959 0 1 1 0 1 0 1.382 1.446m5.122-9.085q-.25.003-.524.004h-.003a13.8 13.8 0 0 0-9.703 3.953 1 1 0 1 1-1.402-1.427 15.8 15.8 0 0 1 11.109-4.526q.205 0 .426-.004c.653-.007 1.402-.015 2.139.104a1 1 0 0 1-.32 1.974c-.55-.09-1.086-.084-1.722-.078m1.287 13.48a1.81 1.81 0 1 1-3.62 0 1.81 1.81 0 0 1 3.62 0" clip-rule="evenodd"/></svg>