<svg xmlns="http://www.w3.org/2000/svg" width="32" height="32" fill="none" viewBox="0 0 32 32"><path fill="#111827" fill-rule="evenodd" d="M16 6.134a20.375 20.375 0 0 0-14.297 5.858 1 1 0 0 1-1.404-1.425 22.375 22.375 0 0 1 31.402 0 1 1 0 0 1-1.404 1.425A20.375 20.375 0 0 0 16 6.134ZM6.642 16.94a13.39 13.39 0 0 1 18.716 0 1 1 0 0 0 1.398-1.43 15.39 15.39 0 0 0-21.511 0 1 1 0 0 0 1.397 1.43Zm4.938 4.954a6.4 6.4 0 0 1 8.84 0 1 1 0 1 0 1.382-1.446 8.4 8.4 0 0 0-11.603 0 1 1 0 1 0 1.381 1.446Zm6.17 4.223a1.749 1.749 0 1 1-3.497 0 1.749 1.749 0 0 1 3.497 0Z" clip-rule="evenodd"/></svg>