<svg xmlns="http://www.w3.org/2000/svg" width="32" height="32" fill="none" viewBox="0 0 32 32"><path fill="#111827" fill-rule="evenodd" d="M32 1.2a1 1 0 0 0-1.18-.984l-12.546 2.3a1 1 0 0 0-.82.984v8.591a1 1 0 0 0 1 1H31a1 1 0 0 0 1-1V1.2Zm0 18.71a1 1 0 0 0-1-1H18.455a1 1 0 0 0-1 1v8.59a1 1 0 0 0 .82.984l12.545 2.3A1 1 0 0 0 32 30.8V19.91Zm-32 0a1 1 0 0 1 1-1h9.636a1 1 0 0 1 1 1v7.132a1 1 0 0 1-1.223.975L.777 25.81A1 1 0 0 1 0 24.834v-4.925ZM11.636 4.957a1 1 0 0 0-1.223-.975L.777 6.191A1 1 0 0 0 0 7.166v4.925a1 1 0 0 0 1 1h9.636a1 1 0 0 0 1-1V4.958Z" clip-rule="evenodd"/></svg>