<svg xmlns="http://www.w3.org/2000/svg" width="32" height="35" fill="none" viewBox="0 0 32 35"><path stroke="#111827" stroke-linecap="round" stroke-linejoin="round" stroke-width="2" d="M15.868 24.833V33.5M9.677 33.5H22.06"/><path fill="#111827" fill-rule="evenodd" d="M4.82 13.331q-.03.408-.03.824c0 6.199 5.026 11.224 11.224 11.224 6.2 0 11.224-5.025 11.224-11.224q0-.53-.048-1.048l-.004.002c-2.047.845-7.558 2.672-11.317 0-4.166-2.962-9.028-.727-11.048.222" clip-rule="evenodd"/><path fill="#111827" d="m4.82 13.331-.425-.905a1 1 0 0 0-.572.833zm22.37-.224.995-.093a1 1 0 0 0-1.467-.79zm-.004.002.382.924.09-.042zm-11.317 0-.58.815zM5.79 14.155q0-.38.027-.751l-1.995-.145q-.032.444-.032.896zm10.223 10.224c-5.646 0-10.223-4.578-10.223-10.224h-2c0 6.75 5.472 12.224 12.223 12.224zm10.224-10.224c0 5.646-4.577 10.224-10.224 10.224v2c6.751 0 12.224-5.473 12.224-12.224zm-.044-.956q.044.471.044.956h2q0-.577-.052-1.14zm.524-.974-.003.002.942 1.764.004-.002zm.086-.04c-.977.403-2.77 1.034-4.743 1.249-1.984.215-4.015-.005-5.613-1.14l-1.159 1.63c2.162 1.536 4.765 1.74 6.988 1.498 2.234-.242 4.221-.947 5.29-1.39zm-10.356.108c-2.356-1.674-4.898-1.862-7.06-1.528-2.144.331-3.979 1.185-4.993 1.661l.85 1.81c1.008-.473 2.614-1.211 4.448-1.494 1.815-.28 3.786-.106 5.596 1.182z"/><path stroke="#111827" stroke-linecap="round" stroke-width="2" d="M22.806 1.5H8.846a.5.5 0 0 0-.475.346L4.354 14.28l-.003.016c0 5.82 4.718 10.538 10.538 10.538h2.223c5.819 0 10.537-4.718 10.537-10.537l-.003-.018-4.368-12.444a.5.5 0 0 0-.472-.334Z"/></svg>