<svg xmlns="http://www.w3.org/2000/svg" width="32" height="32" fill="none" viewBox="0 0 32 32"><path fill="#111827" fill-rule="evenodd" d="M2 0a2 2 0 0 0-2 2v28a2 2 0 0 0 2 2h28a2 2 0 0 0 2-2V2a2 2 0 0 0-2-2H2Zm15.502 3.766-2.19-.5c.164 0 .34-.013.538-.026.255-.018.548-.037.901-.037 1.314 0 2.378.438 3.38 1 .138.07.257.216.378.364.099.12.198.241.31.325.5.188 1.001.313 1.502.25v-.187c.563.125 1.126.75 1.126 1.189h-2.566a.474.474 0 0 0-.25.125c.063.063.188.188.25.188.119 0 .247-.004.383-.007.44-.012.954-.026 1.432.07l-.027.045c-.195.329-.556.935-.974.518 0-.126-2.44-.063-3.067.062-.125 0-.25.25-.187.376.28.68.944 1.105 1.567 1.502.35.224.688.44.936.688 1.752 1.377 2.315 2.628 1.94 5.006-.94 3.707-2.419 4.332-5.3 5.551-.378.16-.78.33-1.208.52-1.064.5-1.69 1.69-1.502 2.878.438 2.566 4.505 3.254 5.319.25.25-1.188-.063-2.878-2.316-3.379a20.074 20.074 0 0 0 2.817-1.502c.125-.125.25-.125.375 0 2.503 2.316 3.13 6.571-1.001 9.074-2.941 1.627-6.634.25-7.823-2.878-1.189-3.192.689-6.634 4.005-7.322 2.378-.376 4.82-2.879 3.755-5.194-.472-1.04-1.835-2.078-2.987-2.956A28.11 28.11 0 0 1 16 8.96c-.165-.099-.434-.076-.734-.051-.27.023-.564.048-.83-.012.125-.093.344-.203.563-.313.219-.109.438-.219.563-.312-.525-.323-1.101-.36-1.663-.395-.31-.02-.614-.04-.903-.106.188-.376 1.127-.939 1.69-1.001-.059-.557-.076-.825-.206-1.018-.148-.219-.442-.339-1.108-.672.642-.428 1.21-.333 1.76-.241.577.096 1.136.19 1.744-.322-.75-.25-1.502-.5-2.19-.939.361.024.722.095 1.083.165.578.112 1.155.225 1.733.148v-.125ZM20.13 5.33l-.187-.187c-.063-.063-.438.062-.313.25.062.062.125.125.25.062l.25-.125ZM12.245 19.85c-3.003-1.878-3.191-6.634.188-8.699 2.503-1.564 5.32-1.001 7.197 1.752.25.439.25 1.127.125 1.628-.5 1.69-1.752 2.628-3.442 3.003.5-.375.876-.938 1.001-1.564.564-3.505-4.88-3.88-4.63-.125-.063 1.064.75 1.815 2.315 2.065-.814.5-1.502.939-2.253 1.877-.125.188-.25.188-.5.063Zm-.754 2.715c-.964.18-1.98.37-2.938.79.438-1.816 2.003-3.067 3.88-3.067-.5.626-.75 1.44-.813 2.253l-.13.024Z" clip-rule="evenodd"/></svg>