<svg xmlns="http://www.w3.org/2000/svg" width="32" height="33" fill="none" viewBox="0 0 32 33"><path fill="#111827" fill-rule="evenodd" d="M1 .5a1 1 0 0 0-1 1v30a1 1 0 0 0 1 1h30a1 1 0 0 0 1-1v-30a1 1 0 0 0-1-1H1Zm4.3 4.267a.5.5 0 0 0-1 0v3.264a.5.5 0 1 0 1 0V4.767Zm20.563 11.556a1 1 0 0 0-1.717-1.025l-3.733 6.251a4.312 4.312 0 1 0 3.526-2.005l1.924-3.22Zm-4.117 7.532c0-.408.105-.791.29-1.124l.012-.019.063-.105a2.312 2.312 0 1 1-.366 1.248Zm-7.68-6.774a1.602 1.602 0 0 1 2.024.2 1.595 1.595 0 0 1 .47 1.131v.002a1.603 1.603 0 0 1-1.581 1.602h-.044a1.602 1.602 0 0 1-.869-2.935Zm.893 4.935h-.026a2.075 2.075 0 1 0 2.1 2.076v-.002a2.066 2.066 0 0 0-.608-1.465v-.001a2.076 2.076 0 0 0-1.445-.608h-.02Zm-3.33-2.224c.177.428.433.814.752 1.14a4.075 4.075 0 1 0 6.651 3.16h-1 1a4.066 4.066 0 0 0-1.5-3.16 3.602 3.602 0 0 0 1.027-2.518h-1 1a3.592 3.592 0 0 0-1.055-2.548 3.603 3.603 0 0 0-5.875 3.926Zm-7.567-.04a1 1 0 0 1 1.391.257l1.446 2.1 1.445-2.1a1 1 0 0 1 1.648 1.134l-1.88 2.729 1.88 2.728a1 1 0 1 1-1.648 1.134L6.9 25.636l-1.446 2.1A1 1 0 0 1 3.806 26.6l1.879-2.728-1.88-2.73a1 1 0 0 1 .257-1.39ZM8 4.267a.5.5 0 0 1 .5.5v3.264a.5.5 0 1 1-1 0V4.767a.5.5 0 0 1 .5-.5Zm3.7.5a.5.5 0 0 0-1 0v3.264a.5.5 0 1 0 1 0V4.767Zm2.7-.5a.5.5 0 0 1 .5.5v3.264a.5.5 0 1 1-1 0V4.767a.5.5 0 0 1 .5-.5Zm3.7.5a.5.5 0 0 0-1 0v3.264a.5.5 0 1 0 1 0V4.767Zm2.701-.5a.5.5 0 0 1 .5.5v3.264a.5.5 0 1 1-1 0V4.767a.5.5 0 0 1 .5-.5Zm3.7.5a.5.5 0 0 0-1 0v3.264a.5.5 0 1 0 1 0V4.767Zm2.7-.5a.5.5 0 0 1 .5.5v3.264a.5.5 0 1 1-1 0V4.767a.5.5 0 0 1 .5-.5Z" clip-rule="evenodd"/></svg>