<svg xmlns="http://www.w3.org/2000/svg" width="32" height="33" fill="none" viewBox="0 0 32 33"><path fill="#111827" fill-rule="evenodd" d="M1 .5a1 1 0 0 0-1 1v30a1 1 0 0 0 1 1h30a1 1 0 0 0 1-1v-30a1 1 0 0 0-1-1zm4.3 4.267a.5.5 0 0 0-1 0v3.264a.5.5 0 1 0 1 0zm20.563 11.556a1 1 0 0 0-1.717-1.025l-3.733 6.251a4.312 4.312 0 1 0 3.526-2.005zm-4.117 7.532c0-.408.105-.791.29-1.124l.012-.019.063-.105a2.312 2.312 0 1 1-.366 1.248m-7.68-6.774a1.6 1.6 0 0 1 2.024.2 1.6 1.6 0 0 1 .47 1.131v.002a1.603 1.603 0 0 1-1.581 1.602h-.044a1.602 1.602 0 0 1-.869-2.935m.893 4.935h-.026a2.075 2.075 0 1 0 2.1 2.076v-.002a2.07 2.07 0 0 0-.608-1.465v-.001a2.08 2.08 0 0 0-1.445-.608zm-3.33-2.224c.177.428.433.814.752 1.14a4.075 4.075 0 1 0 6.651 3.16h-1 1a4.07 4.07 0 0 0-1.5-3.16q.11-.111.21-.233a3.6 3.6 0 0 0 .817-2.284l-1-.001h1a3.6 3.6 0 0 0-1.055-2.548 3.603 3.603 0 0 0-5.875 3.926m-7.567-.04a1 1 0 0 1 1.391.257l1.446 2.1 1.445-2.1a1 1 0 0 1 1.648 1.134l-1.88 2.729 1.88 2.728a1 1 0 1 1-1.648 1.134L6.9 25.636l-1.446 2.1A1 1 0 0 1 3.806 26.6l1.879-2.728-1.88-2.73a1 1 0 0 1 .257-1.39M8 4.267a.5.5 0 0 1 .5.5v3.264a.5.5 0 1 1-1 0V4.767a.5.5 0 0 1 .5-.5m3.7.5a.5.5 0 0 0-1 0v3.264a.5.5 0 1 0 1 0zm2.7-.5a.5.5 0 0 1 .5.5v3.264a.5.5 0 1 1-1 0V4.767a.5.5 0 0 1 .5-.5m3.7.5a.5.5 0 0 0-1 0v3.264a.5.5 0 1 0 1 0zm2.701-.5a.5.5 0 0 1 .5.5v3.264a.5.5 0 1 1-1 0V4.767a.5.5 0 0 1 .5-.5m3.7.5a.5.5 0 0 0-1 0v3.264a.5.5 0 1 0 1 0zm2.7-.5a.5.5 0 0 1 .5.5v3.264a.5.5 0 1 1-1 0V4.767a.5.5 0 0 1 .5-.5" clip-rule="evenodd"/></svg>