<svg xmlns="http://www.w3.org/2000/svg" width="32" height="32" fill="none" viewBox="0 0 32 32"><path fill="#111827" fill-rule="evenodd" d="M16 2C8.268 2 2 8.268 2 16c0 5.964 3.729 11.056 8.982 13.074A7.5 7.5 0 0 1 16 16h.011A7.5 7.5 0 0 0 21.02 2.926 13.967 13.967 0 0 0 16 2ZM0 16C0 7.163 7.164 0 16 0c8.837 0 16 7.163 16 16s-7.163 16-16 16C7.164 32 0 24.837 0 16Zm16-5.624a1.875 1.875 0 1 0 0-3.751 1.875 1.875 0 0 0 0 3.75Zm0 15a1.875 1.875 0 1 0 0-3.751 1.875 1.875 0 0 0 0 3.75Z" clip-rule="evenodd"/></svg>