<svg width="33" height="33" fill="none" xmlns="http://www.w3.org/2000/svg"><path d="M16.96 28.283c6.627 0 12-5.373 12-12 0-6.628-5.373-12-12-12-6.628 0-12 5.372-12 12 0 6.627 5.372 12 12 12Z" stroke="#1C1B1F" stroke-width="2" stroke-linecap="round" stroke-linejoin="round"/><path d="M16.96 11.783a1.5 1.5 0 1 0 0-3 1.5 1.5 0 0 0 0 3Z" fill="#1C1B1F"/><path fill-rule="evenodd" clip-rule="evenodd" d="M22.96 10.283a6 6 0 0 1-6 6 6 6 0 0 0 0 12c6.627 0 12-5.373 12-12 0-6.628-5.373-12-12-12a6 6 0 0 1 6 6Zm-4.5 12a1.5 1.5 0 1 1-3 0 1.5 1.5 0 0 1 3 0Z" fill="#1C1B1F"/></svg>