<svg xmlns="http://www.w3.org/2000/svg" width="32" height="32" fill="none" viewBox="0 0 32 32"><path fill="#111827" fill-rule="evenodd" d="M.832 24.644C.472 23.264 0 20.578 0 16s.473-7.264.833-8.644A2.449 2.449 0 0 1 2.314 5.68C7.464 3.7 16 3.755 16 3.755s8.535-.054 13.686 1.925a2.448 2.448 0 0 1 1.482 1.676c.36 1.38.832 4.066.832 8.644s-.473 7.264-.832 8.644a2.448 2.448 0 0 1-1.482 1.676C24.535 28.3 16 28.245 16 28.245s-8.535.054-13.686-1.925a2.449 2.449 0 0 1-1.482-1.676ZM13.54 11.077 21.428 16l-7.89 4.923v-9.846Z" clip-rule="evenodd"/></svg>