<svg width="33" height="33" fill="none" xmlns="http://www.w3.org/2000/svg"><path fill-rule="evenodd" clip-rule="evenodd" d="M5.585 22.907c-.27-1.035-.625-3.05-.625-6.483s.355-5.447.625-6.483a1.837 1.837 0 0 1 1.111-1.257C10.56 7.2 16.96 7.241 16.96 7.241s6.402-.041 10.264 1.443a1.837 1.837 0 0 1 1.112 1.257c.27 1.036.624 3.05.624 6.483 0 3.434-.355 5.448-.624 6.484a1.837 1.837 0 0 1-1.112 1.257c-3.862 1.484-10.264 1.443-10.264 1.443s-6.401.041-10.264-1.443a1.837 1.837 0 0 1-1.111-1.258Zm9.53-10.175 5.917 3.692-5.918 3.693v-7.385Z" fill="#1C1B1F"/></svg>