<svg width="33" height="32" viewBox="0 0 33 32" fill="none" xmlns="http://www.w3.org/2000/svg">
<path fill-rule="evenodd" clip-rule="evenodd" d="M16.8263 7.05421C16.724 7.01886 16.6141 6.99966 16.4998 6.99966C16.2178 6.99966 15.9631 7.11635 15.7813 7.30406L9.95891 13.1265C9.56838 13.517 9.56838 14.1502 9.95891 14.5407C10.3494 14.9312 10.9826 14.9312 11.3731 14.5407L15.4998 10.4141V24.0003C15.4998 24.5526 15.9475 25.0003 16.4998 25.0003C17.052 25.0003 17.4998 24.5526 17.4998 24.0003V10.4137L21.6267 14.5407C22.0173 14.9312 22.6504 14.9312 23.0409 14.5407C23.4315 14.1502 23.4315 13.517 23.0409 13.1265L17.207 7.29257C17.096 7.18156 16.9654 7.10211 16.8263 7.05421Z" fill="#111827"/>
</svg>
