<svg width="33" height="32" viewBox="0 0 33 32" fill="none" xmlns="http://www.w3.org/2000/svg">
<path fill-rule="evenodd" clip-rule="evenodd" d="M16.8112 10.0473C16.7132 10.0153 16.6085 9.99789 16.4998 9.99789C16.2173 9.99789 15.9622 10.115 15.7804 10.3033L11.5502 14.5334C11.1597 14.924 11.1597 15.5571 11.5502 15.9477C11.9407 16.3382 12.5739 16.3382 12.9644 15.9477L15.4998 13.4123V21.0021C15.4998 21.5544 15.9475 22.0021 16.4998 22.0021C17.052 22.0021 17.4998 21.5544 17.4998 21.0021V13.4119L20.0355 15.9477C20.426 16.3382 21.0592 16.3382 21.4497 15.9477C21.8402 15.5571 21.8402 14.924 21.4497 14.5334L17.2071 10.2908C17.092 10.1758 16.9559 10.0946 16.8112 10.0473Z" fill="#111827"/>
</svg>
