<svg xmlns="http://www.w3.org/2000/svg" width="32" height="32" fill="none"><path fill="#111827" d="M2.031 24.889v5.078h5.08V32l-5.079-.001v-2.032H0L0 24.887zm11.429 0v5.078h5.08V32l-5.08-.001v-2.032h-2.031l-.001-5.08zm11.428 0v5.078h5.079V32l-5.08-.001v-2.032h-2.03l-.002-5.08zM9.144 29.968l-2.032-.001v-5.08h2.03zm11.428 0-2.032-.001v-5.08h2.03zm11.428 0-2.032-.001-.001-5.08h2.032zM5.161 22.856h1.95v2.032h-5.08v-2.032h1.13V17h2zM18.54 7.112v2.032L17 9.143V15h9.839v2H17v5.856h1.54v2.032h-5.08v-2.032H15V17H5.161v-2H15V9.143h-1.54V7.11zm10.332 15.744h1.096v2.032h-5.08v-2.032h1.984V17h2zM13.461 7.111h-2.032l-.001-5.079h2.032zm7.11-5.079.001 5.08H18.54v-5.08zm-2.032 0H13.46V0h5.08z"/></svg>