<svg width="33" height="32" viewBox="0 0 33 32" fill="none" xmlns="http://www.w3.org/2000/svg">
<path fill-rule="evenodd" clip-rule="evenodd" d="M20.5012 18.9986C20.5012 19.5509 20.9489 19.9986 21.5012 19.9986C22.0535 19.9986 22.5012 19.5509 22.5012 18.9986V11.0189C22.5065 10.7563 22.409 10.4919 22.2085 10.2915C22.0935 10.1764 21.9574 10.0953 21.8127 10.048C21.7146 10.0159 21.61 9.99857 21.5012 9.99857H13.5012C12.9489 9.99857 12.5012 10.4463 12.5012 10.9986C12.5012 11.5509 12.9489 11.9986 13.5012 11.9986H19.0872L10.7914 20.2944C10.4009 20.6849 10.4009 21.318 10.7914 21.7086C11.182 22.0991 11.8151 22.0991 12.2056 21.7086L20.5012 13.413V18.9986Z" fill="#111827"/>
</svg>
