<svg xmlns="http://www.w3.org/2000/svg" width="32" height="32" fill="none"><path fill="#111827" d="M29.214 2.858a3.94 3.94 0 0 0-5.573 0l-5.347 5.347a.058.058 0 0 1-.058.014L4.314 3.616a.5.5 0 0 0-.51.12L.6 6.94a.5.5 0 0 0 .074.768l10.313 6.963a.5.5 0 0 1 .073.768l-2.958 2.958a.5.5 0 0 1-.353.146H4.142a.5.5 0 0 0-.353.147L.575 21.902a.5.5 0 0 0 .198.83l6.166 2.021a.5.5 0 0 1 .32.323l1.942 6.071a.5.5 0 0 0 .83.201l3.209-3.209a.5.5 0 0 0 .146-.353v-3.32a.5.5 0 0 1 .146-.354l3.102-3.102a.5.5 0 0 1 .768.074l6.962 10.313a.5.5 0 0 0 .768.074l3.203-3.203a.5.5 0 0 0 .121-.51l-4.603-13.922a.057.057 0 0 1 .014-.059l5.347-5.346a3.94 3.94 0 0 0 0-5.573Z"/></svg>