<svg xmlns="http://www.w3.org/2000/svg" width="32" height="32" fill="none"><path fill="#111827" fill-rule="evenodd" d="M9.956 22.938a5 5 0 0 1-6.937-1.367L.085 17.197a.5.5 0 0 1 .137-.694l2.957-1.983a.5.5 0 0 1 .454-.053l3.13 1.177a.5.5 0 0 0 .455-.053l2.88-1.931a.5.5 0 0 0 .02-.816L5.965 9.738a.5.5 0 0 1 .02-.815l2.72-1.824a.5.5 0 0 1 .406-.069l7.595 1.994a.5.5 0 0 0 .405-.069l7.979-5.351a2 2 0 0 1 2.775.547l2.856 4.257a.5.5 0 0 1-.137.694L9.956 22.938Zm-4.982 3.797a1 1 0 1 0 0 2H31a1 1 0 1 0 0-2H4.974Z" clip-rule="evenodd"/></svg>