<svg xmlns="http://www.w3.org/2000/svg" width="32" height="32" fill="none"><path fill="#111827" fill-rule="evenodd" d="M4.238 27.391a1 1 0 0 0 1 1h7.148a1 1 0 0 0 1-1V16.992c.041.005.083.008.126.008h4.956a1 1 0 0 0 .145-.01v7.14a1 1 0 0 0 1 1h7.148a1 1 0 0 0 1-1v-7.158a1 1 0 0 0 .236.028H31a1 1 0 0 0 0-2h-3.003c-.081 0-.16.01-.236.028V7.87a1 1 0 0 0-1-1h-7.148a1 1 0 0 0-1 1v7.14a1.015 1.015 0 0 0-.145-.01h-4.956a1.01 1.01 0 0 0-.126.008v-10.4a1 1 0 0 0-1-1H5.238a1 1 0 0 0-1 1v10.405A1.01 1.01 0 0 0 4.074 15H1a1 1 0 1 0 0 2h3.074c.056 0 .11-.005.164-.014v10.405Z" clip-rule="evenodd"/></svg>