<svg xmlns="http://www.w3.org/2000/svg" width="32" height="32" fill="none"><path fill="#111827" fill-rule="evenodd" d="M1.001 0a1 1 0 0 0-1 1v30a1 1 0 0 0 1 1h29.998a1 1 0 0 0 1-1V1a1 1 0 0 0-1-1H1.001Zm1 21.41V30h27.998v-8.59h-5.646a.5.5 0 0 0-.354.147l-4.123 4.123a.5.5 0 0 1-.353.146H12.28a.5.5 0 0 1-.353-.146l-4.123-4.123a.5.5 0 0 0-.353-.146H2ZM17.002 6.456a1 1 0 1 0-2 0v11.221l-4.604-4.603a1 1 0 1 0-1.414 1.414l6.31 6.31.012.012a.996.996 0 0 0 1.03.224.995.995 0 0 0 .373-.235l6.311-6.311a1 1 0 0 0-1.414-1.414l-4.604 4.604V6.455Z" clip-rule="evenodd"/></svg>