<svg xmlns="http://www.w3.org/2000/svg" width="32" height="32" fill="none"><path fill="#111827" fill-rule="evenodd" d="M17 4a1 1 0 1 0-2 0v6.313l-2.92-2.92a1 1 0 1 0-1.415 1.413l4.613 4.614a.998.998 0 0 0 1.43.015l4.628-4.629a1 1 0 0 0-1.415-1.414L17 10.314V4ZM4.09 16a1 1 0 0 1 1-1H26.91a1 1 0 1 1 0 2H5.09a1 1 0 0 1-1-1ZM15 21.687V28a1 1 0 1 0 2 0v-6.314l2.921 2.922a1 1 0 0 0 1.415-1.414l-4.629-4.628a.996.996 0 0 0-.707-.293.997.997 0 0 0-.723.309l-4.612 4.612a1 1 0 0 0 1.414 1.414L15 21.688Z" clip-rule="evenodd"/></svg>