<svg xmlns="http://www.w3.org/2000/svg" width="32" height="33" fill="none"><path fill="#111827" fill-rule="evenodd" d="M4.063 6.76a2.049 2.049 0 0 0-1.366 3.575A7.825 7.825 0 0 1 6.28 8.29a147.257 147.257 0 0 0-.853-.917 12.895 12.895 0 0 0-.158-.164c-.032-.033-.05-.05-.055-.054l-.001-.002a1.746 1.746 0 0 0-.494-.256 2.078 2.078 0 0 0-.656-.137ZM.015 8.808a4.04 4.04 0 0 0 1.458 3.112 7.825 7.825 0 1 0 14.348 5.84 1 1 0 0 0-1.94-.483 5.825 5.825 0 0 1-4.66 4.33l.007-6.524a1 1 0 0 0-2-.002l-.006 6.524a5.82 5.82 0 0 1-4.786-5.128 5.825 5.825 0 0 1 5.451-6.424c.74.816 1.362 1.506 1.455 1.61l.6-.542-.6.541c.022.025.044.048.067.07l.143.142.032.03.034.028a4.049 4.049 0 1 0 2.575-7.173 1 1 0 1 0 0 2 2.049 2.049 0 1 1-1.272 3.655l-.101-.1a697.834 697.834 0 0 0-2.052-2.266c-.49-.537-.984-1.079-1.38-1.507-.371-.4-.71-.762-.849-.885-.315-.279-.74-.494-1.136-.638a4.042 4.042 0 0 0-1.34-.258A4.049 4.049 0 0 0 .015 8.808Zm18.597 4.785a1 1 0 0 1 1-1h11.373a1 1 0 0 1 0 2H19.612a1 1 0 0 1-1-1Zm0 4.549a1 1 0 0 1 1-1h11.373a1 1 0 1 1 0 2H19.612a1 1 0 0 1-1-1Zm1 3.549a1 1 0 1 0 0 2h11.373a1 1 0 1 0 0-2H19.612Zm-13.51 5.55a1 1 0 0 1 1-1h23.883a1 1 0 0 1 0 2H7.101a1 1 0 0 1-1-1Z" clip-rule="evenodd"/></svg>