<svg xmlns="http://www.w3.org/2000/svg" width="32" height="32" fill="none"><path fill="#111827" fill-rule="evenodd" d="M12.327 4.141c1.012-1.012 2.12-1.581 3.551-1.581a5.398 5.398 0 0 1 5.398 5.398h-10.53c0-1.432.569-2.805 1.581-3.817Zm-1.881 3.817h-2v5.343a1 1 0 1 0 2 0V7.958Zm-2.26 0c0-2.11.838-4.135 2.33-5.627C12.01.838 13.768 0 15.879 0a7.958 7.958 0 0 1 7.958 7.958h5.856a1 1 0 0 1 1 1V31a1 1 0 0 1-1 1H2.308a1 1 0 0 1-1-1V8.958a1 1 0 0 1 1-1h5.878Zm15.37 0h-2v5.343a1 1 0 1 0 2 0V7.958Z" clip-rule="evenodd"/></svg>