<svg xmlns="http://www.w3.org/2000/svg" width="32" height="32" fill="none"><path stroke="#111827" stroke-linecap="round" stroke-linejoin="round" stroke-width="2" d="M8 25.714v3.429M24 25.714v3.429"/><path fill="#111827" fill-rule="evenodd" d="M.5 13.143a.5.5 0 0 0-.5.5v7.072a5 5 0 0 0 5 5h22a5 5 0 0 0 5-5v-7.072a.5.5 0 0 0-.5-.5H.5Zm23.953.664h-5.477v3.268h5.477v-3.268Z" clip-rule="evenodd"/><path stroke="#111827" stroke-linecap="round" stroke-width="2" d="M5.714 13.143V4.857a2 2 0 0 1 2-2H9.43a2 2 0 0 1 2 2v.857"/></svg>