<svg xmlns="http://www.w3.org/2000/svg" width="32" height="32" fill="none"><path fill="#111827" fill-rule="evenodd" d="M2.917 24.636a.519.519 0 0 1-.428-.8c.962-1.482 2.922-4.723 3.34-7.12.187-1.068.226-2.2.159-3.351C5.614 6.989 9.614 0 16 0c6.387 0 10.386 6.99 10.013 13.365-.068 1.151-.028 2.283.158 3.352.419 2.396 2.378 5.637 3.34 7.119.22.34-.023.8-.428.8H2.917Zm8.854-14.303a1 1 0 0 1 1-1h6.459a1 1 0 0 1 .768 1.64l-5.092 6.11h4.324a1 1 0 1 1 0 2H12.77a1 1 0 0 1-.768-1.64l5.091-6.11h-4.323a1 1 0 0 1-1-1ZM10.834 30a1 1 0 1 0 0 2h10.334a1 1 0 0 0 0-2H10.834Z" clip-rule="evenodd"/></svg>