<svg xmlns="http://www.w3.org/2000/svg" width="32" height="32" fill="none"><path fill="#111827" fill-rule="evenodd" d="M24.848.155a1 1 0 1 0-1.068 1.692 14.669 14.669 0 0 1 5.324 5.913 1 1 0 1 0 1.794-.885 16.668 16.668 0 0 0-6.05-6.72ZM10.2 25.087H3.916a.519.519 0 0 1-.43-.799c.906-1.4 2.683-4.36 3.066-6.557.174-.992.21-2.044.147-3.114C6.353 8.695 10.068 2.204 16 2.204c5.933 0 9.648 6.492 9.301 12.415-.062 1.069-.026 2.12.148 3.113.383 2.196 2.16 5.156 3.066 6.557a.519.519 0 0 1-.43.8H21.8v1.182a5.695 5.695 0 0 1-1.704 4.056A5.835 5.835 0 0 1 16 32c-1.533 0-3.007-.6-4.095-1.673A5.695 5.695 0 0 1 10.2 26.27v-1.183Zm2 0v1.183c0 .984.397 1.931 1.108 2.632A3.836 3.836 0 0 0 16 29.999c1.013 0 1.98-.396 2.692-1.097A3.695 3.695 0 0 0 19.8 26.27v-1.183H12.2ZM8.531.467a1 1 0 0 1-.311 1.38A14.668 14.668 0 0 0 2.896 7.76a1 1 0 1 1-1.794-.885 16.668 16.668 0 0 1 6.05-6.72 1 1 0 0 1 1.38.312Z" clip-rule="evenodd"/></svg>