<svg xmlns="http://www.w3.org/2000/svg" width="32" height="33" fill="none"><path stroke="#111827" stroke-linecap="round" stroke-linejoin="round" stroke-width="2" d="M10.667 25.43v1.314c0 1.394.562 2.731 1.562 3.717C13.23 31.446 14.586 32 16 32a5.373 5.373 0 0 0 3.772-1.54 5.217 5.217 0 0 0 1.562-3.716V25.43"/><path fill="#111827" fill-rule="evenodd" d="M2.037 24.631c-.221.34.022.8.427.8h27.073c.405 0 .648-.46.427-.8-.987-1.518-3.03-4.887-3.465-7.375-.192-1.103-.233-2.272-.163-3.46C26.72 7.215 22.593 0 16 0 9.408 0 5.28 7.215 5.665 13.796c.07 1.188.029 2.357-.164 3.46-.434 2.488-2.478 5.857-3.464 7.375ZM12.308 9.667a1 1 0 1 0 0 2h4.389l-5.172 6.522a1 1 0 0 0 .783 1.622h6.458a1 1 0 0 0 0-2h-4.389l5.172-6.523a1 1 0 0 0-.783-1.621h-6.458Z" clip-rule="evenodd"/></svg>