<svg xmlns="http://www.w3.org/2000/svg" width="32" height="32" fill="none"><path fill="#111827" fill-rule="evenodd" d="M24.848.155a1 1 0 1 0-1.068 1.692 14.668 14.668 0 0 1 5.324 5.913 1 1 0 0 0 1.794-.885 16.668 16.668 0 0 0-6.05-6.72ZM11.2 30a1 1 0 1 0 0 2H20.8a1 1 0 1 0 0-2H11.2ZM8.531.467a1 1 0 0 1-.311 1.38A14.668 14.668 0 0 0 2.896 7.76a1 1 0 1 1-1.794-.885 16.668 16.668 0 0 1 6.05-6.72 1 1 0 0 1 1.38.312ZM3.486 24.288c-.22.34.025.8.43.8h24.169c.405 0 .65-.46.43-.8-.906-1.4-2.683-4.36-3.067-6.557-.173-.993-.21-2.044-.147-3.114.347-5.922-3.368-12.414-9.3-12.414-5.933 0-9.648 6.492-9.302 12.414.063 1.07.027 2.121-.147 3.114-.383 2.196-2.16 5.156-3.066 6.557Z" clip-rule="evenodd"/></svg>