<svg xmlns="http://www.w3.org/2000/svg" width="32" height="32" fill="none"><path fill="#111827" fill-rule="evenodd" d="M16 12.786a3.214 3.214 0 0 0 2.895-1.816l.022.007a10.799 10.799 0 0 1 7.698 8.42l.005.025c0 .003 0 .006.002.009a3.215 3.215 0 1 0 1.97-.114 1 1 0 0 0-.011-.286 12.799 12.799 0 0 0-5.717-8.46h8.135a1 1 0 1 0 0-2H19.214c-.053 0-.104.005-.155.013a3.215 3.215 0 0 0-6.119 0 1.005 1.005 0 0 0-.154-.012H1a1 1 0 0 0 0 2h8.136a12.796 12.796 0 0 0-5.717 8.46 1 1 0 0 0-.012.284 3.215 3.215 0 0 0 .808 6.326 3.214 3.214 0 0 0 1.163-6.21 10.798 10.798 0 0 1 7.727-8.461A3.214 3.214 0 0 0 16 12.785Z" clip-rule="evenodd"/></svg>