<svg xmlns="http://www.w3.org/2000/svg" width="32" height="32" fill="none"><path fill="#111827" fill-rule="evenodd" d="M8.728 1.09a1 1 0 0 0-1 1V29.91a1 1 0 0 0 1 1h7.586a1 1 0 0 0 1-1V2.091a1 1 0 0 0-1-1H8.728Zm6.586 21.497V3.09H9.728v19.496h5.586Zm-5.586 2h5.586v4.322H9.728v-4.322Z" clip-rule="evenodd"/><path fill="#111827" d="m16.29 3.27 7.353-1.91 7.217 26.95-7.345 1.883L16.29 3.27Z"/><path fill="#111827" d="m29.246 22.274-7.328 1.963 1.597 5.956 7.345-1.883-1.614-6.036ZM25.286 7.466 17.958 9.43 16.29 3.27l7.353-1.91 1.643 6.106Z"/><path stroke="#111827" stroke-linecap="round" stroke-linejoin="round" stroke-width="2" d="m16.29 3.27 7.353-1.91M16.29 3.27l7.225 26.923M16.29 3.27l1.668 6.16 7.328-1.964-1.643-6.107m0 0L30.86 28.31m0 0-7.345 1.883m7.345-1.883-1.614-6.036-7.328 1.963 1.597 5.956"/><path fill="#111827" fill-rule="evenodd" d="M8.727 2.09H1.141v27.82h7.586V8.412H1.184V2.091h7.543Z" clip-rule="evenodd"/><path fill="#111827" d="M1.14 2.09v-1a1 1 0 0 0-1 1h1Zm7.587 0h1a1 1 0 0 0-1-1v1ZM1.141 29.91h-1a1 1 0 0 0 1 1v-1Zm7.586 0v1a1 1 0 0 0 1-1h-1Zm0-21.497h1a1 1 0 0 0-1-1v1Zm-7.543 0h-1a1 1 0 0 0 1 1v-1Zm0-6.322v-1a1 1 0 0 0-1 1h1Zm7.543 0v1a1 1 0 0 0 1-1h-1Zm-7.586 1h7.586v-2H1.141v2Zm1 26.818V2.091h-2v27.818h2Zm6.586-1H1.141v2h7.586v-2Zm-1-20.496V29.91h2V8.413h-2Zm1-1H1.184v2h7.543v-2Zm-6.543 1V2.091h-2v6.322h2Zm-1-5.322h7.543v-2H1.184v2Zm6.543-1h2-2Z"/></svg>