<svg xmlns="http://www.w3.org/2000/svg" width="32" height="32" fill="none"><path fill="#111827" fill-rule="evenodd" d="M10.194 6.484c-.883 0-1.64.15-2.262.484-.64.342-1.072.84-1.348 1.41-.489 1.009-.488 2.275-.487 3.25v.114c0 1.139-.021 1.942-.287 2.491-.111.229-.26.396-.491.52C5.07 14.884 4.666 15 4 15a1 1 0 1 0 0 2c.666 0 1.071.115 1.319.248.23.123.38.29.49.519.267.549.288 1.352.288 2.491v.113c-.001.977-.002 2.242.487 3.25.276.57.708 1.069 1.348 1.411.623.333 1.38.484 2.261.484a1 1 0 1 0 0-2c-.665 0-1.07-.115-1.318-.248-.231-.123-.38-.29-.491-.519-.266-.548-.287-1.352-.287-2.49v-.114c0-.976.002-2.242-.488-3.25A3.17 3.17 0 0 0 6.97 16c.271-.264.481-.567.64-.894.489-1.01.488-2.275.487-3.25v-.114c0-1.14.02-1.943.287-2.491.11-.229.26-.396.49-.52.249-.132.654-.247 1.32-.247a1 1 0 1 0 0-2Zm11.613 0a1 1 0 0 0 0 2c.666 0 1.07.115 1.318.248.231.123.38.29.491.519.267.548.287 1.352.287 2.491v.113c0 .976-.001 2.242.488 3.25.158.328.368.631.639.895-.271.264-.48.567-.64.894-.488 1.01-.487 2.275-.487 3.25v.114c0 1.14-.02 1.943-.287 2.491-.11.229-.26.396-.49.52-.248.132-.653.247-1.32.247a1 1 0 0 0 0 2c.883 0 1.64-.15 2.262-.484a3.094 3.094 0 0 0 1.348-1.41c.49-1.009.488-2.274.488-3.25v-.114c0-1.139.02-1.942.286-2.491.111-.229.26-.396.491-.52.248-.132.653-.247 1.32-.247a1 1 0 1 0 0-2c-.667 0-1.072-.115-1.32-.248-.23-.123-.38-.29-.49-.519-.267-.549-.288-1.352-.288-2.491v-.113c.001-.976.002-2.242-.487-3.25a3.094 3.094 0 0 0-1.348-1.411c-.623-.333-1.379-.484-2.261-.484Z" clip-rule="evenodd"/></svg>