<svg xmlns="http://www.w3.org/2000/svg" width="32" height="32" fill="none"><path fill="#111827" fill-rule="evenodd" d="M27.31 4.69a1 1 0 0 0-1.414 1.415 13.98 13.98 0 0 1 0 19.79 1 1 0 0 0 1.413 1.416 15.984 15.984 0 0 0 0-22.622Zm-21.205 0a1 1 0 0 1-.001 1.415 13.982 13.982 0 0 0 0 19.79 1 1 0 1 1-1.413 1.416 15.982 15.982 0 0 1 0-22.622 1 1 0 0 1 1.414.002ZM9.89 8.478a1 1 0 0 1 0 1.414 8.632 8.632 0 0 0 0 12.217 1 1 0 1 1-1.414 1.416 10.63 10.63 0 0 1 0-15.048 1 1 0 0 1 1.414.001ZM16 20.284a4.284 4.284 0 1 0 0-8.568 4.284 4.284 0 0 0 0 8.568Zm7.523-11.808a1 1 0 1 0-1.413 1.415 8.632 8.632 0 0 1 0 12.217 1 1 0 1 0 1.413 1.416 10.632 10.632 0 0 0 0-15.048Z" clip-rule="evenodd"/></svg>