<svg xmlns="http://www.w3.org/2000/svg" width="32" height="33" fill="none"><path fill="#111827" fill-rule="evenodd" d="M1 30.498h30a1 1 0 0 0 1-1v-22a1 1 0 0 0-1-1h-6.402a1 1 0 0 1-.828-.438l-2.113-3.12a1 1 0 0 0-.828-.439h-9.605a1 1 0 0 0-.828.44L8.288 6.06a1 1 0 0 1-.829.44H1a1 1 0 0 0-1 1v22a1 1 0 0 0 1 1ZM15.35 12.41a6.007 6.007 0 0 0-4.248 1.76 1 1 0 0 1-1.414-1.414 8.006 8.006 0 0 1 11.324 0l.995.995v-1.407a1 1 0 1 1 2 0v3.793a.997.997 0 0 1-1 1.029h-3.822a1 1 0 1 1 0-2h1.408l-.995-.996a6.008 6.008 0 0 0-4.248-1.76Zm-6.357 7.26a.999.999 0 0 0-.7.286l-.014.013a.997.997 0 0 0-.286.701v3.822a1 1 0 1 0 2 0v-1.408l.995.996a8.007 8.007 0 0 0 11.324 0 1 1 0 0 0-1.414-1.414 6.007 6.007 0 0 1-8.496 0l-.995-.996h1.408a1 1 0 1 0 0-2H8.993Z" clip-rule="evenodd"/></svg>