<svg xmlns="http://www.w3.org/2000/svg" width="32" height="33" fill="none"><path fill="#111827" fill-rule="evenodd" d="M15 1.28a9.984 9.984 0 0 0-3.333.936v6.838a1 1 0 1 1-2 0v-5.59l-3 2.143L.757 2.06A.5.5 0 0 0 0 2.49V21.72c0 5.523 4.477 10 10 10h5v-4.92l-2.374-2.373a1 1 0 0 1 1.415-1.414l1.96 1.96 1.959-1.96a1 1 0 0 1 1.414 1.414L17 26.802v4.92h5c5.523 0 10-4.478 10-10V2.49a.5.5 0 0 0-.757-.429l-5.91 3.546-3-2.143v5.59a1 1 0 0 1-2 0V2.216A9.984 9.984 0 0 0 17 1.28v7.775a1 1 0 1 1-2 0V1.28ZM10.667 17.72a2 2 0 1 1-4 0 2 2 0 0 1 4 0Zm12.666 2a2 2 0 1 0 0-4 2 2 0 0 0 0 4Z" clip-rule="evenodd"/></svg>