<svg xmlns="http://www.w3.org/2000/svg" width="32" height="32" fill="none"><path stroke="#111827" stroke-linecap="round" stroke-linejoin="round" stroke-width="2" d="M3.99 29.333v-1.289c.203-1.317 2.08-3.968 7.969-4.043 5.888-.074 7.803 2.664 8.025 4.043v1.29"/><path fill="#111827" fill-rule="evenodd" d="M1 2.667h30a1 1 0 0 1 1 1v24.666a1 1 0 0 1-1 1H20.87c-.506 0-.926-.38-1.087-.86-.498-1.483-1.902-3.425-4.898-4.167a6.333 6.333 0 1 0-5.692.04c-3.068.77-4.494 2.676-4.998 4.124-.167.48-.588.863-1.095.863H1a1 1 0 0 1-1-1V3.667a1 1 0 0 1 1-1ZM4.333 8a1 1 0 0 1 1-1h21.334a1 1 0 0 1 1 1v16.009a1 1 0 0 1-1 1h-3.132a1 1 0 0 1 0-2h2.132V8.999H6.333v1.994a1 1 0 1 1-2 0V8ZM12 14.333A4.333 4.333 0 1 0 12 23a4.333 4.333 0 0 0 0-8.667Z" clip-rule="evenodd"/></svg>