<svg xmlns="http://www.w3.org/2000/svg" width="32" height="33" fill="none"><path fill="#111827" fill-rule="evenodd" d="M10.736 3.069a1 1 0 0 0-1.97.35l.462 2.595a7.685 7.685 0 0 0-3.862 2.348L3.092 6.769a1 1 0 1 0-1.148 1.638l2.3 1.61a7.683 7.683 0 0 0-.76 4.373l-2.659.474a1 1 0 0 0 .35 1.969l2.811-.5a7.836 7.836 0 0 0 1.32 2.177 7.191 7.191 0 0 0-.277 9.808 7.194 7.194 0 0 0 5.39 2.438h11.514c2.32 0 4.637-.633 6.311-2.24a17.675 17.675 0 0 0 1.701-1.87A10.276 10.276 0 0 0 18.21 10.824a.996.996 0 0 0-.084-.494 7.682 7.682 0 0 0-1.317-2.021l1.82-2.6a1 1 0 1 0-1.638-1.147l-1.713 2.446a7.686 7.686 0 0 0-4.06-1.227l-.482-2.712Zm5.899 8.484a.995.995 0 0 1-.335-.408 5.683 5.683 0 0 0-10.786 3.302A5.836 5.836 0 0 0 6.81 17.19c.029.035.056.07.08.108a7.197 7.197 0 0 1 5.318-.706c.742-1.449 2.187-3.497 3.508-4.45.296-.213.603-.41.919-.59Z" clip-rule="evenodd"/></svg>