<svg xmlns="http://www.w3.org/2000/svg" width="32" height="33" fill="none"><path fill="#111827" fill-rule="evenodd" d="M7.276 6.99a7.441 7.441 0 0 1 3.128.12c.768-1.5 2.263-3.619 3.63-4.603a10.631 10.631 0 0 1 14.72 15.002 18.293 18.293 0 0 1-1.76 1.934c-1.731 1.663-4.128 2.318-6.529 2.318H8.555A7.441 7.441 0 0 1 7.276 6.99Zm.044 18.55a1 1 0 0 0 0 2h7.44a1 1 0 1 0 0-2H7.32Zm13.64 0a1 1 0 0 0 0 2h3.72a1 1 0 0 0 0-2h-3.72Zm-9.68 5.96a1 1 0 0 1 1-1h8.68a1 1 0 0 1 0 2h-8.68a1 1 0 0 1-1-1Z" clip-rule="evenodd"/></svg>