<svg xmlns="http://www.w3.org/2000/svg" width="32" height="32" fill="none"><path fill="#111827" fill-rule="evenodd" d="M32 15.912a15.952 15.952 0 0 1-4.696 11.422c-6.158 6.147-16.218 6.216-22.455.15A16 16 0 0 1 16.096.011a1.336 1.336 0 0 1 1.301 1.627 5.332 5.332 0 0 0 5.144 6.505 1.338 1.338 0 0 1 1.326 1.327 5.333 5.333 0 0 0 6.506 5.143 1.336 1.336 0 0 1 1.627 1.3Zm-11.333 9.432a2 2 0 1 0 0-4 2 2 0 0 0 0 4ZM12 22.01a2 2 0 1 1-4 0 2 2 0 0 1 4 0Zm-3.333-7.333a2 2 0 1 0 0-4 2 2 0 0 0 0 4Zm10.667.667a2 2 0 1 1-4 0 2 2 0 0 1 4 0Z" clip-rule="evenodd"/></svg>