<svg xmlns="http://www.w3.org/2000/svg" width="32" height="32" fill="none"><path fill="#111827" fill-rule="evenodd" d="M17 1a1 1 0 0 0-2 0v1.816C8.495 3.302 3.302 8.496 2.816 15H1a1 1 0 1 0 0 2h1.815C3.302 23.505 8.496 28.698 15 29.184V31a1 1 0 1 0 2 0v-1.815c6.505-.486 11.698-5.68 12.184-12.184H31a1 1 0 1 0 0-2h-1.815C28.698 8.495 23.504 3.302 17 2.816V1Zm8.444 14h1.733C26.701 9.6 22.4 5.3 17 4.822v1.734a1 1 0 0 1-2 0V4.822C9.6 5.3 5.3 9.6 4.822 15h1.734a1 1 0 1 1 0 2H4.822C5.3 22.4 9.6 26.7 15 27.178v-1.734a1 1 0 1 1 2 0v1.734C22.4 26.7 26.7 22.399 27.177 17h-1.733a1 1 0 1 1 0-2Zm-5 1a4.444 4.444 0 1 1-8.888 0 4.444 4.444 0 0 1 8.888 0Z" clip-rule="evenodd"/></svg>