<svg xmlns="http://www.w3.org/2000/svg" width="32" height="32" fill="none"><path fill="#111827" fill-rule="evenodd" d="M7.225 3.334a1 1 0 0 0-1.783.622v8.725H3a1 1 0 1 0 0 2h2.442v2.728H3a1 1 0 1 0 0 2h2.442v8.636a1 1 0 1 0 2 0v-8.636h9.995l7.351 9.258a1 1 0 0 0 1.783-.622v-8.636h2.43a1 1 0 1 0 0-2h-2.43v-2.728h2.43a1 1 0 1 0 0-2h-2.43V3.956a1 1 0 0 0-2 0v8.725h-9.923L7.225 3.334Zm4.869 9.347L7.442 6.823v5.858h4.652Zm-4.652 2h6.24l2.166 2.728H7.442v-2.728Zm10.96 2.728-2.166-2.728h8.335v2.728h-6.169Zm1.588 2 4.581 5.768V19.41h-4.58Z" clip-rule="evenodd"/></svg>