<svg xmlns="http://www.w3.org/2000/svg" width="32" height="32" fill="none"><path fill="#1C1B1F" fill-rule="evenodd" d="M24.485 7.515a12 12 0 1 0-16.97 16.97 12 12 0 0 0 16.97-16.97ZM10.01 8.03a.59.59 0 0 0-.712.399l-.005.014-.797 2.953-.004.014a.586.586 0 0 0 1.13.31l.004-.015.797-2.953.005-.019a.586.586 0 0 0-.418-.703Zm10.243.558a.594.594 0 0 0-.718.399l-.004.014-.535 1.987c.347.17.678.371.99.6l.051.042.628-2.32v-.014a.59.59 0 0 0-.412-.708Zm-5.213-3.328c-.374.034-.747.087-1.115.16l-.08.013-.74 2.752-.005.014a.586.586 0 0 0 1.13.305l.004-.014.797-2.954.004-.014a.58.58 0 0 0 .005-.262ZM22.37 7.3l-.154.581-.005.014a.586.586 0 0 0 1.13.305l.004-.014.02-.061a10.835 10.835 0 0 0-.924-.773l-.07-.052Zm-4.636-1.94-.28 1.045-.006.014a.586.586 0 0 0 1.13.304l.005-.014.295-1.101a10.71 10.71 0 0 0-1.06-.235l-.084-.014ZM9.325 15.722c0-2.732 2.719-4.93 6.206-4.93 1.678 0 3.117.463 4.252 1.35a6.041 6.041 0 0 1 2.039 2.971l.01.028.009.033.018.06.028.113.075.263.08.3.136.497.216.787.347 1.294.393 1.472.633 2.367.24.89-.052.057a10.772 10.772 0 0 1-6.53 3.413l-.023-.155-.043-.31-.037-.225-.042-.295-.057-.36-.023-.141-.052-.343-.032-.201-.043-.263-.042-.253-.042-.244-.042-.239-.038-.234-.042-.225-.037-.216-.028-.159-.033-.155-.019-.098-.038-.197-.028-.14-.032-.174-.029-.122-.023-.117-.023-.113-.015-.075-.032-.14-.024-.103-.023-.103-.019-.066-.023-.094-.02-.089-.023-.089-.023-.084-.014-.052-.024-.08-.018-.075-.014-.051-.02-.047-.013-.042-.019-.066-.014-.047-.01-.028a3.172 3.172 0 0 0-.084-.22l-.014-.028.108-.282-.427.015-.117.004c-3.872.08-6.37-1.565-6.37-4.144Zm2.428 7.979a.583.583 0 0 1 .713-.399c.309.08.492.394.417.703l-.005.014-.567 2.114-.08-.032c-.343-.128-.68-.274-1.008-.436l.525-1.95.005-.014Zm3.263-1.43a.586.586 0 0 1 1.082-.103l.02.084.027.136.02.099-.006.023-.014.066v.014l-.797 2.953-.004.014a.586.586 0 0 1-1.13-.305v-.014l.797-2.953.005-.014ZM10.14 18.92l.037-.089c.295.258.638.492 1.013.69l-.722 2.68-.005.015a.586.586 0 0 1-1.13-.31l.005-.014.797-2.953.005-.019Zm-2.579-3.089c.09-.3.408-.478.718-.398a.59.59 0 0 1 .412.708v.014l-.797 2.953-.004.014a.586.586 0 0 1-1.13-.31v-.014l.797-2.953.005-.014Zm17.87-.67a.59.59 0 0 1 .712-.399c.31.085.492.399.417.704v.018l-.802 2.954v.014a.588.588 0 0 1-1.134-.31l.005-.014.797-2.953.004-.014Zm-20.143-.413a10.706 10.706 0 0 1 1.252-3.928.589.589 0 0 1 .558.727l-.005.014-.797 2.953-.005.014a.59.59 0 0 1-1.003.22Zm18.122-3.51a.596.596 0 0 1 .717-.399.593.593 0 0 1 .417.708l-.004.014-.797 2.953-.005.014a.586.586 0 0 1-1.13-.31l.005-.013.797-2.953v-.014Zm-6.6 1.747a.75.75 0 1 0-1.06 1.061.75.75 0 0 0 1.06-1.06Z" clip-rule="evenodd"/></svg>