<svg xmlns="http://www.w3.org/2000/svg" width="32" height="32" fill="none"><path fill="#111827" fill-rule="evenodd" d="M.284 1a1 1 0 0 1 1-1h1.75a1 1 0 0 1 0 2h-.75v.751a1 1 0 1 1-2 0v-1.75Zm5.252 0a1 1 0 0 1 1-1h3.5a1 1 0 1 1 0 2h-3.5a1 1 0 0 1-1-1Zm7.001 0a1 1 0 0 1 1-1h3.501a1 1 0 1 1 0 2h-3.5a1 1 0 0 1-1-1Zm7.002 0a1 1 0 0 1 1-1h3.501a1 1 0 1 1 0 2h-3.5a1 1 0 0 1-1-1Zm7.002 0a1 1 0 0 1 1-1h1.75a1 1 0 0 1 1 1v1.724a1 1 0 1 1-2 0v-.723h-.75a1 1 0 0 1-1-1Zm2.75 4.171a1 1 0 0 1 1 1v3.447a1 1 0 0 1-2 0V6.17a1 1 0 0 1 1-1Zm-28.007.081a1 1 0 0 1 1 1v3.501a1 1 0 0 1-2 0v-3.5a1 1 0 0 1 1-1Zm28.008 6.813a1 1 0 0 1 1 1v1.723a1 1 0 0 1-2 0v-1.723a1 1 0 0 1 1-1Zm-28.008.19a1 1 0 0 1 1 1v3.5a1 1 0 1 1-2 0v-3.5a1 1 0 0 1 1-1Zm0 7a1 1 0 0 1 1 1v3.502a1 1 0 1 1-2 0v-3.501a1 1 0 0 1 1-1Zm0 7.003a1 1 0 0 1 1 1v.75h.699a1 1 0 1 1 0 2H1.284a1 1 0 0 1-1-1v-1.75a1 1 0 0 1 1-1Zm4.097 2.75a1 1 0 0 1 1-1h3.397a1 1 0 0 1 0 2H6.381a1 1 0 0 1-1-1Zm6.795 0a1 1 0 0 1 1-1h1.699a1 1 0 1 1 0 2h-1.699a1 1 0 0 1-1-1Zm5.746-5.85-.975.532a2.416 2.416 0 0 0-.884 3.3l.302.524c2.25 3.896 6.638 5.933 11.204 3.297 4.267-2.464 5.215-7.075 2.966-10.972l-1.63-2.82a2.005 2.005 0 0 0-1.006-.868 1.884 1.884 0 0 0-1.958 2.787l.514.89a.5.5 0 0 1-.866.5l-.508-.879-.008-.013-.766-1.328a1.514 1.514 0 0 0-2.635 1.49l.927 1.607.008.014.36.623a.5.5 0 1 1-.866.5l-1.282-2.22-.017-.031-2.462-4.263a1.514 1.514 0 1 0-2.621 1.513l4.566 7.91a.5.5 0 1 1-.866.5l-1.497-2.594ZM8.24 6.957h14.093a1 1 0 0 1 1 1v8.024a2.548 2.548 0 0 0-1.734.303 2.55 2.55 0 0 0-.712.61l-1.183-2.047a2.934 2.934 0 0 0-5.08 2.938l3.038 5.252-9.42.012a1 1 0 0 1-1.002-1V7.958a1 1 0 0 1 1-1Z" clip-rule="evenodd"/></svg>