<svg xmlns="http://www.w3.org/2000/svg" width="32" height="32" fill="none"><path fill="#111827" fill-rule="evenodd" d="M20.25 31.43A16.02 16.02 0 0 1 16 32a15.93 15.93 0 0 1-9.793-3.346c.423.325.82.598 1.383.958a25.596 25.596 0 0 1 9.292-9.012c1.103-.71 2.304-1.275 3.538-1.72-.079.029-.157.057-.235.087.422 1.845.636 3.74.636 5.648v.001a25.389 25.389 0 0 1-.734 6.078l-.153.43v.002c-.075.207-.15.414-.152.424.173-.043.325-.082.468-.12Zm.56-.165Zm0 0Zm.558-.188-.003.001-.005.002.008-.002Zm0 0c.357-.127.708-.266 1.053-.418-.345.146-.79.318-1.053.419Zm1.481-.613a5.367 5.367 0 0 1-.428.195c.144-.063.287-.128.428-.195ZM21.3 18.584c.479-.15.96-.284 1.44-.402.495 2.1.748 4.258.747 6.433a28.062 28.062 0 0 1-.608 5.832.657.657 0 0 1-.03.017C28.26 27.898 32 22.386 32 16c0-.287-.008-.573-.023-.857a34.912 34.912 0 0 0-.004-.228l-.01-.002A15.98 15.98 0 0 0 25.507 3.13c-.174-.132-.363-.27-.578-.425l-.009.01A15.926 15.926 0 0 0 16 0c-2.062 0-4.032.39-5.842 1.1a8.395 8.395 0 0 0-1.165.512c-.267.13-.53.268-.788.412-.177.097-.36.2-.585.326l.014.009a16.036 16.036 0 0 0-7.016 9.223H.61c-.044.168-.083.324-.12.472A16.032 16.032 0 0 0 0 16c0 4.797 2.111 9.101 5.455 12.034l-.006.01c.282.235.524.43.758.61a16.111 16.111 0 0 1-.752-.62c2.492-4.123 5.92-7.39 10.116-9.757.923-.525 2.286-1.156 3.93-1.738a25.313 25.313 0 0 0-2.026-4.514l-.054-.095c.806-.385 1.59-.807 2.35-1.264l.019.034a27.987 27.987 0 0 1 2.26 5.05c2.995-.8 6.513-1.286 9.914-.837l.014.23c.01.68.01 1.82-.055 2.316-2.124-.223-6.47-.177-10.623 1.125Zm-5.349-8.91a25.32 25.32 0 0 0-7.534-6.849l-.25-.149-.002-.001-.53-.316A15.996 15.996 0 0 1 10.157 1.1c.108-.038.224-.077.352-.118a27.99 27.99 0 0 1 7.823 7.436 25.311 25.311 0 0 1-2.382 1.256Zm0 0 .256-.12a25.05 25.05 0 0 0 8.712-6.84c.199.134.395.272.587.415.543.41.934.747 1.495 1.261a27.72 27.72 0 0 1-9.65 7.573 27.947 27.947 0 0 1-12.017 2.703c-1.77.001-3.49-.14-5.229-.47a15.891 15.891 0 0 1 .513-2.614c1.571.299 3.116.418 4.716.418h.002A25.28 25.28 0 0 0 15.95 9.674Z" clip-rule="evenodd"/></svg>