<svg xmlns="http://www.w3.org/2000/svg" width="33" height="33" fill="none"><path fill="#1C1B1F" fill-rule="evenodd" d="M20.148 27.855a12.013 12.013 0 0 1-3.188.428c-2.767 0-5.315-.937-7.345-2.51.317.244.615.45 1.037.72a19.198 19.198 0 0 1 6.97-6.76 13.007 13.007 0 0 1 2.477-1.225 18.99 18.99 0 0 1 .477 4.236v.001a19.043 19.043 0 0 1-.55 4.558l-.116.324v.003l-.113.316c.13-.033.244-.062.35-.091Zm.42-.124Zm0 0Zm.418-.14h-.002l-.004.002.006-.002Zm0 0c.268-.095.531-.2.79-.314-.259.11-.592.239-.79.314Zm1.111-.46c-.063.035-.18.088-.32.146.107-.047.214-.096.32-.146Zm-.081-9.211c.37 1.574.56 3.193.56 4.824a21.042 21.042 0 0 1-.457 4.374 12.001 12.001 0 0 0 6.824-11.478c0-.063-.002-.12-.003-.171l-.007-.001a11.986 11.986 0 0 0-4.843-8.839 21.89 21.89 0 0 0-.434-.318l-.006.008a11.944 11.944 0 0 0-6.69-2.036 11.97 11.97 0 0 0-4.381.825 6.293 6.293 0 0 0-.874.384c-.2.098-.397.2-.591.309l-.439.244a.853.853 0 0 1 .01.007 12.027 12.027 0 0 0-5.262 6.918l-.005-.001c-.033.126-.063.244-.09.355-.24.946-.368 1.938-.368 2.959 0 3.598 1.584 6.826 4.092 9.025l-.005.008c.212.176.393.322.568.457-.192-.15-.38-.304-.563-.465 1.868-3.092 4.44-5.542 7.587-7.317.692-.394 1.714-.867 2.948-1.304a18.985 18.985 0 0 0-1.52-3.385l-.041-.071c.604-.29 1.192-.606 1.762-.948l.014.025a20.98 20.98 0 0 1 1.695 3.787c2.247-.599 4.886-.964 7.436-.627l.01.173c.008.51.008 1.365-.04 1.736-1.41-.148-4.123-.138-6.887.543Zm-5.092-6.381a18.991 18.991 0 0 0-5.65-5.137l-.188-.112h-.001l-.4-.238a12.043 12.043 0 0 1 1.016-.558l.004-.002c.285-.14.576-.267.874-.384.08-.028.167-.058.264-.089a20.991 20.991 0 0 1 5.867 5.578 19.015 19.015 0 0 1-1.786.942Zm0 0 .191-.09a18.787 18.787 0 0 0 6.534-5.13c.15.1.296.204.44.31.408.308.702.561 1.122.947a20.79 20.79 0 0 1-7.238 5.68 20.961 20.961 0 0 1-9.012 2.027c-1.328 0-2.618-.105-3.922-.353a11.918 11.918 0 0 1 .384-1.96 18.69 18.69 0 0 0 3.538.313h.001c2.75.002 5.466-.593 7.962-1.744Z" clip-rule="evenodd"/></svg>