<svg xmlns="http://www.w3.org/2000/svg" width="32" height="33" fill="none"><path fill="#111827" fill-rule="evenodd" d="M8.548 5.586a10.539 10.539 0 0 1 17.99 7.452 1 1 0 1 0 2 0 12.538 12.538 0 1 0-25.077 0c0 2.128.343 3.672.905 4.881.563 1.212 1.315 2.013 1.992 2.676l.312.303c.549.531.98.948 1.323 1.501.375.606.66 1.42.66 2.755a7.346 7.346 0 0 0 13.014 4.675 1 1 0 0 0-1.543-1.272 5.347 5.347 0 0 1-9.47-3.403c0-1.656-.364-2.844-.962-3.809-.485-.783-1.119-1.392-1.665-1.918l-.27-.26c-.62-.609-1.167-1.209-1.577-2.091-.412-.885-.719-2.127-.719-4.038 0-2.795 1.11-5.475 3.087-7.452Zm7.454.685a6.77 6.77 0 0 0-6.77 6.77 1 1 0 1 0 2 0 4.77 4.77 0 0 1 9.54 0c0 1.227-.644 1.822-1.67 2.702l-.056.047c-.988.846-2.313 1.98-2.313 4.173a3.885 3.885 0 0 0 7.77 0 1 1 0 0 0-2 0 1.885 1.885 0 0 1-3.77 0c0-1.228.644-1.822 1.67-2.702l.055-.047c.988-.846 2.314-1.981 2.314-4.174a6.77 6.77 0 0 0-6.77-6.77Z" clip-rule="evenodd"/></svg>