<svg xmlns="http://www.w3.org/2000/svg" width="32" height="32" fill="none"><path fill="#111827" fill-rule="evenodd" d="m26.554 14.059-.85-.85 4.87-4.87a4.872 4.872 0 0 0-.098-6.984c-1.927-1.824-4.985-1.71-6.861.167l-4.799 4.799-.85-.85a2.784 2.784 0 0 0-3.936 0l-1.223 1.223a1.392 1.392 0 0 0 0 1.968l.635.634-9.74 9.741a6.564 6.564 0 0 0-1.785 5.99l-1.75 4.01.91.398-.91-.398a2 2 0 0 0 .418 2.213l.002.003a2.391 2.391 0 0 0 2.646.498l-.4-.916.4.916 3.764-1.643a6.562 6.562 0 0 0 5.99-1.785l9.741-9.74.635.634a1.391 1.391 0 0 0 1.968 0l1.223-1.222a2.783 2.783 0 0 0 0-3.936Zm-5.24 3.11-6.457-6.458-9.741 9.74a4.563 4.563 0 0 0-1.183 4.411 1 1 0 0 1-.05.66L2 29.836a.392.392 0 0 0 .433.081l4.07-1.777a1 1 0 0 1 .66-.05 4.563 4.563 0 0 0 4.41-1.182l9.74-9.74h.001Z" clip-rule="evenodd"/></svg>