<svg xmlns="http://www.w3.org/2000/svg" width="32" height="32" fill="none"><path fill="#111827" fill-rule="evenodd" d="M26 2.849a6 6 0 0 1 6 6v14.2a6.942 6.942 0 0 1 0 .204v.163c0 .059-.006.116-.016.172a6 6 0 0 1-11.975-.103H11.99a6 6 0 0 1-11.984-.601V8.849a6 6 0 0 1 6-6h1.823a1 1 0 1 1 0 2H6.006a4 4 0 0 0-4 4v9.825a6.003 6.003 0 0 1 9.767 2.837 1 1 0 0 1 .227-.026h8c.078 0 .154.009.227.026a6.003 6.003 0 0 1 9.772-2.833v-9.83a4 4 0 0 0-4-4h-1.823a1 1 0 1 1 0-2h1.823Z" clip-rule="evenodd"/></svg>