<svg xmlns="http://www.w3.org/2000/svg" width="33" height="33" fill="none"><path fill="#1C1B1F" fill-rule="evenodd" d="M17.96 28.242c6.16-.508 11-5.668 11-11.959 0-6.627-5.372-12-12-12-6.627 0-12 5.373-12 12 0 6.29 4.84 11.45 11 11.959v.002l.131.008a12.188 12.188 0 0 0 1.766-.002l.103-.006v-.002Zm0 0v-8.959h3a1 1 0 0 0 0-2h-3v-3.174c0-.518.215-1.013.592-1.375a2.034 2.034 0 0 1 1.408-.561h2c.552 0 1-.423 1-.945s-.448-.945-1-.945h-2a4.094 4.094 0 0 0-2.834 1.126 3.743 3.743 0 0 0-1.166 2.7v3.174h-3a1 1 0 1 0 0 2h3v8.959l.131.01a13.524 13.524 0 0 0 1.87-.01Z" clip-rule="evenodd"/></svg>