<svg xmlns="http://www.w3.org/2000/svg" width="33" height="33" fill="none"><path stroke="#1C1B1F" stroke-linecap="round" stroke-linejoin="round" stroke-width="2" d="M20.96 20.283a4 4 0 1 0 0-8 4 4 0 0 0 0 8Z"/><path fill="#1C1B1F" stroke="#1C1B1F" stroke-linecap="round" stroke-linejoin="round" stroke-width="2" d="M16.96 12.283v-8h-4a4 4 0 0 0 0 8h4ZM16.96 20.283v-8h-4a4 4 0 0 0 0 8h4Z"/><path stroke="#1C1B1F" stroke-linecap="round" stroke-linejoin="round" stroke-width="2" d="M16.96 12.283v-8h4a4 4 0 0 1 0 8h-4Z"/><path fill="#1C1B1F" stroke="#1C1B1F" stroke-linecap="round" stroke-linejoin="round" stroke-width="2" d="M16.96 20.283v4a3.999 3.999 0 0 1-7.923.78 4 4 0 0 1 3.923-4.78h4Z"/></svg>