<svg xmlns="http://www.w3.org/2000/svg" width="32" height="32" fill="none"><path fill="#111827" fill-rule="evenodd" d="M28.334 32H3.667a1 1 0 0 1-1-1V1a1 1 0 0 1 1-1h15.946a1 1 0 0 1 .709.294l8.72 8.758a1 1 0 0 1 .292.706V31a1 1 0 0 1-1 1ZM19.978 1.912v7.126a.5.5 0 0 0 .5.5h7.134l-7.634-7.626ZM17 25.072a1 1 0 1 1-2 0V17.08l-3.108 3.108a1 1 0 0 1-1.414-1.414l4.815-4.815a.994.994 0 0 1 1.139-.196c.107.052.204.121.285.206l4.806 4.805a1 1 0 0 1-1.414 1.414L17 17.081v7.99Z" clip-rule="evenodd"/></svg>