<svg xmlns="http://www.w3.org/2000/svg" width="32" height="32" fill="none"><path fill="#111827" fill-rule="evenodd" d="M19.613 0H3.667a1 1 0 0 0-1 1v13.976a1 1 0 0 0 1 1h17.998a1 1 0 0 1 1 1V31a1 1 0 0 0 1 1h4.669a1 1 0 0 0 1-1V9.758a1 1 0 0 0-.292-.706L20.322.294A1 1 0 0 0 19.613 0Zm.506 9.514V1.888l7.634 7.626h-7.634Zm-4.73 9.335a1 1 0 0 0-1.733-.035L10.714 23.7l-1.326-2.038a1 1 0 0 0-1.713.06l-4.864 8.754a1 1 0 0 0 .874 1.486h17.209a1 1 0 0 0 .876-1.481l-6.38-11.632Zm-3.786 7.25 2.869-4.763 4.732 8.626H5.384l3.233-5.818 1.291 1.985a1 1 0 0 0 1.695-.03Z" clip-rule="evenodd"/></svg>