<svg xmlns="http://www.w3.org/2000/svg" width="32" height="32" fill="none"><path fill="#111827" fill-rule="evenodd" d="M2.501 1.001a1 1 0 0 1 1-1h16.276a1 1 0 0 1 .708.295l8.723 8.76a1 1 0 0 1 .291.705V31a1 1 0 0 1-1 1h-6.251a1 1 0 1 1 0-2h5.251V10.677h-7.637a1 1 0 0 1-1-1V2H4.502v13.977a1 1 0 1 1-2 0V1Zm18.36 2.573v5.102h5.107l-5.106-5.102Zm-2.008 15.629a1 1 0 1 0-1.414 1.414 4.463 4.463 0 0 1 0 6.311 1 1 0 0 0 1.414 1.414 6.462 6.462 0 0 0 0-9.14ZM6.61 21.883h-.08a2.027 2.027 0 0 0 0 4.054h.08v-4.054Zm2 4.474V21.45l3.461-2.78v10.313l-3.46-2.627Zm5.461-9.77a1 1 0 0 0-1.626-.78l-5.076 4.076h-.84a4.027 4.027 0 0 0 0 8.054h.855l5.083 3.858A1 1 0 0 0 14.07 31V16.587Z" clip-rule="evenodd"/></svg>