<svg xmlns="http://www.w3.org/2000/svg" width="32" height="32" fill="none"><path fill="#111827" fill-rule="evenodd" d="M2.717 18.197h26.562a1 1 0 0 0 1-1V8.858a1 1 0 0 0-.291-.705L22.163.295A1 1 0 0 0 21.454 0H2.717a1 1 0 0 0-1 1v16.197a1 1 0 0 0 1 1ZM21.952 7.864V1.469l6.902 6.895h-6.402a.5.5 0 0 1-.5-.5Zm-8.914 13.915c-.567 0-1.027.46-1.027 1.027V31a1 1 0 1 0 2 0v-2.487h2.002a3.367 3.367 0 0 0 0-6.734h-2.975Zm2.974 4.734h-2V23.78h2a1.367 1.367 0 0 1 0 2.734ZM8.34 22.79a1 1 0 1 0-2 0v6.21a1 1 0 0 1-1 1h-.634a1 1 0 0 1-1-1v-.764a1 1 0 1 0-2 0V29a3 3 0 0 0 3 3h.634a3 3 0 0 0 3-3v-6.21Zm13.523 4.1a5.11 5.11 0 0 1 5.11-5.11h2.324a1 1 0 0 1 0 2h-2.324a3.11 3.11 0 0 0 0 6.221h1.324v-1.956H26.76a1 1 0 1 1 0-2h2.036a1.5 1.5 0 0 1 1.5 1.5v3.424c0 .57-.462 1.032-1.032 1.032h-2.292a5.11 5.11 0 0 1-5.11-5.11Z" clip-rule="evenodd"/></svg>