<svg xmlns="http://www.w3.org/2000/svg" width="34" height="34" fill="none"><path stroke="#111827" stroke-linecap="round" stroke-linejoin="round" stroke-width="2" d="M25.347 17.24a38.153 38.153 0 0 1-2.86 14.541m.91-19.643a7.653 7.653 0 0 0-13.356 5.103c.006 3.89-.98 7.716-2.867 11.118m5.418-25.553A15.317 15.317 0 0 1 33 17.24a46.07 46.07 0 0 1-1.138 10.204M1 23.618c.917-2 1.39-4.176 1.388-6.378A15.267 15.267 0 0 1 7.49 5.832m7.426 24.164a30.413 30.413 0 0 1-1.046 2.069m3.822-14.825a30.668 30.668 0 0 1-.964 7.653"/></svg>