<svg xmlns="http://www.w3.org/2000/svg" width="32" height="32" fill="none"><path fill="#111827" fill-rule="evenodd" d="M24.009 12.727a.478.478 0 0 1-.304.339c-5.277 1.918-10.609 1.764-15.507-.002a.478.478 0 0 1-.306-.34 8.3 8.3 0 0 1-.03-3.642c-1.608.466-2.948 1.06-3.945 1.727C2.538 11.73 2 12.656 2 13.438c0 .55.255 1.156.89 1.8.638.647 1.612 1.276 2.895 1.826 2.562 1.099 6.172 1.803 10.215 1.803s7.653-.704 10.215-1.803c1.282-.55 2.256-1.179 2.895-1.826.635-.644.89-1.25.89-1.8 0-.785-.535-1.706-1.903-2.625-1.02-.685-2.402-1.295-4.066-1.77a8.302 8.302 0 0 1-.022 3.684Zm-.856-5.97c2.414.54 4.515 1.358 6.06 2.396C30.813 10.229 32 11.678 32 13.438c0 1.225-.583 2.31-1.466 3.204-.878.89-2.1 1.647-3.531 2.26-2.866 1.229-6.756 1.965-11.003 1.965-4.248 0-8.138-.736-11.003-1.965-1.431-.613-2.653-1.37-3.531-2.26C.583 15.747 0 14.663 0 13.438c0-1.763 1.195-3.215 2.806-4.292C4.323 8.132 6.373 7.33 8.728 6.794a8.273 8.273 0 0 1 7.223-4.233c3.087 0 5.78 1.69 7.202 4.196Zm-11.63 17.116a1 1 0 1 0-1.974-.326l-.522 3.162a1 1 0 1 0 1.973.326l.523-3.162Zm9.778-1.15a1 1 0 0 1 1.15.824l.522 3.162a1 1 0 1 1-1.973.326l-.523-3.162a1 1 0 0 1 .824-1.15Zm-5.301.43a1 1 0 0 1 1 1v4.286a1 1 0 1 1-2 0v-4.287a1 1 0 0 1 1-1Z" clip-rule="evenodd"/></svg>