<svg xmlns="http://www.w3.org/2000/svg" width="32" height="32" fill="none"><path fill="#111827" fill-rule="evenodd" d="M1 2.794a1 1 0 0 0-1 1V28.048a1 1 0 0 0 1 1h12.117a1 1 0 1 0 0-2H2V9.645h27.106v2.657a1 1 0 1 0 2 0V8.645a1 1 0 0 0-1-1H15.967L11.41 3.087a1 1 0 0 0-.707-.293H1Zm1 4.85v-2.85h8.288l2.85 2.85H2Zm15.296 13.577a1 1 0 0 1 1-1h2.32v-.662a4.032 4.032 0 0 1 8.064 0v.662H31a1 1 0 0 1 1 1v6.985a1 1 0 0 1-1 1H18.296a1 1 0 0 1-1-1v-6.985Zm9.384-1v-.662a2.032 2.032 0 1 0-4.063 0v.662h4.063Z" clip-rule="evenodd"/></svg>