<svg xmlns="http://www.w3.org/2000/svg" width="32" height="33" fill="none"><path fill="#111827" fill-rule="evenodd" d="M16 32.717c8.837 0 16-7.163 16-16s-7.163-16-16-16-16 7.163-16 16 7.163 16 16 16Zm-.12-3.598L3.737 17.087l-.283-.28c.128 6.774 5.623 12.235 12.411 12.306l-.004-.004.019.01ZM16 4.017c-5.982 0-10.987 4.186-12.244 9.79l1.93 1.93v-.004l12.901 12.901.003-.003.177.177c5.551-1.25 9.71-6.178 9.781-12.09h-7.93v2.137h5.474a10.366 10.366 0 0 1-6.754 7.506L6.204 13.227C7.593 9.151 11.454 6.22 16 6.22c3.54 0 6.666 1.778 8.531 4.49l1.64-1.436h.043A12.533 12.533 0 0 0 16 4.017Z" clip-rule="evenodd"/></svg>