<svg xmlns="http://www.w3.org/2000/svg" width="32" height="32" fill="none"><path fill="#111827" fill-rule="evenodd" d="M30.68 31.25a.5.5 0 0 0 .854-.354V15.637C31.534 7.058 24.579.104 16 .104S.467 7.058.467 15.637v15.26a.5.5 0 0 0 .853.353l3.971-3.97a.5.5 0 0 1 .707 0l4.47 4.47a.5.5 0 0 0 .708 0l4.47-4.47a.5.5 0 0 1 .708 0l4.47 4.47a.5.5 0 0 0 .708 0l4.47-4.47a.5.5 0 0 1 .707 0l3.971 3.97ZM11.303 16.103a2.013 2.013 0 1 0 0-4.026 2.013 2.013 0 0 0 0 4.026ZM22.71 14.09a2.013 2.013 0 1 1-4.026 0 2.013 2.013 0 0 1 4.026 0Z" clip-rule="evenodd"/></svg>