<svg xmlns="http://www.w3.org/2000/svg" width="32" height="32" fill="none"><path fill="#111827" fill-rule="evenodd" d="M3.537 11.44H9.64L5.12 2.398l-2.51 8.779a.5.5 0 0 0-.052.117L.54 17.91a.5.5 0 0 0 .183.55l15.112 11.044a.5.5 0 0 0 .593-.002l14.854-11.045a.5.5 0 0 0 .184-.534l-1.819-6.617a.5.5 0 0 0-.065-.143l-2.504-8.766-4.521 9.042h6.108c0 .043.006.088.018.132l1.728 6.288-13.815 10.272 5.961-16.692H9.64l5.945 16.644L1.599 17.863l1.916-6.277a.5.5 0 0 0 .022-.146Z" clip-rule="evenodd"/><path fill="#111827" d="M9.64 11.44v.5a.5.5 0 0 0 .447-.724l-.447.224Zm-6.103 0v-.5a.5.5 0 0 0-.5.5h.5Zm1.582-9.042.447-.223a.5.5 0 0 0-.928.086l.481.137Zm-2.508 8.779.425.263a.5.5 0 0 0 .056-.126l-.481-.137Zm-.053.117.478.146-.478-.146ZM.54 17.91l.478.146-.478-.146Zm.183.55.295-.404-.295.403Zm15.112 11.044.295-.403-.295.403Zm.593-.002-.298-.401.298.4Zm14.854-11.045-.299-.401.299.4Zm.184-.534.482-.132-.482.132Zm-1.819-6.617.482-.132-.482.132Zm-.065-.143-.48.137c.013.05.035.096.063.139l.417-.276Zm-2.504-8.766.48-.137a.5.5 0 0 0-.928-.086l.448.223Zm-4.521 9.042-.447-.224a.5.5 0 0 0 .447.724v-.5Zm6.108 0h.5a.5.5 0 0 0-.5-.5v.5Zm.018.132.482-.132-.482.132Zm1.728 6.288.298.4a.5.5 0 0 0 .184-.533l-.482.133ZM16.595 28.132l-.471-.168a.5.5 0 0 0 .77.57l-.3-.402Zm5.961-16.692.471.168a.5.5 0 0 0-.47-.668v.5Zm-12.916 0v-.5a.5.5 0 0 0-.47.668l.47-.168Zm5.945 16.644-.295.404a.5.5 0 0 0 .765-.572l-.47.168ZM1.599 17.863l-.478-.146a.5.5 0 0 0 .183.55l.295-.404Zm1.916-6.277.478.146-.478-.146Zm6.125-.646H3.537v1H9.64v-1ZM4.672 2.622l4.52 9.041.895-.447-4.52-9.041-.895.447Zm-1.58 8.692L5.6 2.536l-.962-.275L2.13 11.04l.962.274Zm-.056.126-.85-.525a.999.999 0 0 0-.106.233l.956.292Zm-2.019 6.617 2.02-6.617-.957-.292-2.02 6.617.957.292Zm0 0-.956-.292a1 1 0 0 0 .366 1.099l.59-.807ZM16.13 29.102 1.017 18.057l-.59.807L15.54 29.909l.59-.807Zm0 0-.59.807a1 1 0 0 0 1.187-.005l-.597-.802Zm14.853-11.045L16.13 29.102l.597.802L31.579 18.86l-.597-.802Zm0 0 .597.802a1 1 0 0 0 .368-1.067l-.965.265Zm-1.818-6.617 1.818 6.617.965-.265-1.819-6.617-.964.265Zm0 0 .964-.265a1 1 0 0 0-.13-.287l-.834.552Zm-2.568-8.904L29.1 11.3l.962-.274-2.505-8.766-.961.275Zm-3.593 9.127 4.52-9.041-.894-.447-4.52 9.041.894.447Zm5.66-.723h-6.107v1h6.108v-1Zm.5.5h-1c0 .088.012.177.037.265l.964-.265Zm1.729 6.287-1.728-6.287-.964.265 1.727 6.287.965-.265ZM16.893 28.533l13.815-10.272-.597-.803-13.815 10.273.597.802Zm.173-.233 5.961-16.692-.942-.336-5.961 16.692.942.337Zm5.49-17.36H9.64v1h12.916v-1Zm-13.387.668 5.945 16.645.941-.337-5.944-16.644-.942.336Zm-7.865 6.658L15.29 28.488l.59-.807L1.894 17.459l-.59.807Zm1.732-6.826-1.915 6.277.957.292 1.915-6.277-.957-.292Zm0 0 .957.292c.03-.097.044-.195.044-.292h-1Z"/></svg>