<svg xmlns="http://www.w3.org/2000/svg" width="32" height="32" fill="none"><path fill="#111827" fill-rule="evenodd" d="M10.818 9.667c.328-2.049.809-3.88 1.4-5.394.576-1.48 1.238-2.608 1.922-3.35.445-.483.867-.77 1.259-.912a16.283 16.283 0 0 1 1.202 0c.392.142.814.429 1.259.912.684.742 1.346 1.87 1.922 3.35.591 1.515 1.072 3.345 1.4 5.394H10.818Zm-2.024 0H1.302A16.038 16.038 0 0 1 11.907.528c-.588.851-1.107 1.874-1.553 3.018-.679 1.742-1.212 3.821-1.56 6.12Zm11.3-9.139c.587.851 1.106 1.874 1.552 3.018.679 1.742 1.212 3.821 1.56 6.12h7.492A16.038 16.038 0 0 0 20.093.529Zm1.351 11.139h-10.89A41.803 41.803 0 0 0 10.333 16c0 1.504.078 2.956.222 4.333h10.89c.144-1.377.222-2.83.222-4.333 0-1.504-.078-2.956-.222-4.333Zm2.01 8.666c.139-1.39.212-2.842.212-4.333s-.073-2.943-.211-4.333h7.95C31.793 13.045 32 14.498 32 16c0 1.502-.207 2.955-.594 4.333h-7.95Zm-2.273 2H10.818c.328 2.049.809 3.88 1.4 5.394.576 1.48 1.238 2.608 1.922 3.35.445.483.867.77 1.259.912a16.209 16.209 0 0 0 1.202 0c.392-.142.814-.429 1.259-.912.684-.742 1.346-1.87 1.922-3.35.591-1.515 1.072-3.345 1.4-5.394Zm-1.089 9.139c.588-.851 1.107-1.875 1.553-3.018.679-1.742 1.212-3.821 1.56-6.12h7.492a16.038 16.038 0 0 1-10.605 9.138Zm-8.186 0c-.588-.851-1.107-1.875-1.553-3.018-.679-1.742-1.212-3.821-1.56-6.12H1.302a16.038 16.038 0 0 0 10.605 9.138ZM8.544 20.333H.594A16.012 16.012 0 0 1 0 16c0-1.502.207-2.955.594-4.333h7.95A43.94 43.94 0 0 0 8.334 16c0 1.491.072 2.943.21 4.333Z" clip-rule="evenodd"/></svg>