<svg xmlns="http://www.w3.org/2000/svg" width="32" height="32" fill="none"><path fill="#111827" fill-rule="evenodd" d="M29.596 9.97a2.404 2.404 0 1 0-1.796-.805 1 1 0 0 0-.187.294l-5.164 12.458c-.017.04-.03.081-.042.122a2.406 2.406 0 0 0-1.727.194.996.996 0 0 0-.156-.201l-6.138-6.139a.998.998 0 0 0-.275-.195 2.404 2.404 0 1 0-4.385.13.997.997 0 0 0-.316.213l-5.99 5.99a1.002 1.002 0 0 0-.134.166 2.404 2.404 0 1 0 1.37 1.391c.062-.04.122-.087.177-.142l5.991-5.99a.996.996 0 0 0 .25-.415 2.4 2.4 0 0 0 1.695-.025.998.998 0 0 0 .203.292l6.138 6.138c.11.11.24.189.377.237a2.404 2.404 0 1 0 4.39-.52.995.995 0 0 0 .42-.48l5.163-12.458a.998.998 0 0 0 .069-.256l.067.001Z" clip-rule="evenodd"/></svg>