<svg xmlns="http://www.w3.org/2000/svg" width="33" height="33" fill="none"><path stroke="#1C1B1F" stroke-linecap="round" stroke-linejoin="round" stroke-width="2" d="M4.96 16.744h24"/><path stroke="#1C1B1F" stroke-linecap="round" stroke-width="2" d="m5.378 22.12 4.447-2.017a.1.1 0 0 1 .08-.001l4.824 2.001a.1.1 0 0 0 .08 0l4.459-2a.1.1 0 0 1 .08 0l4.615 2a.1.1 0 0 0 .08-.001l4.5-2.017"/><path fill="#1C1B1F" d="M12.73 26.898h8.624a4.837 4.837 0 0 0 4.837-4.837.484.484 0 0 0-.656-.452l-1.384.527a.5.5 0 0 1-.376-.008l-4.388-1.89a.5.5 0 0 0-.412.007l-3.958 1.868a.5.5 0 0 1-.406.01l-4.492-1.88a.5.5 0 0 0-.437.024l-1.697.95a.5.5 0 0 0-.256.436v.245a5 5 0 0 0 5 5Z"/><path stroke="#1C1B1F" stroke-linecap="round" stroke-width="2" d="M12.73 26.898h8.624a4.837 4.837 0 0 0 4.837-4.837.484.484 0 0 0-.656-.452l-1.384.527a.5.5 0 0 1-.376-.008l-4.388-1.89a.5.5 0 0 0-.412.007l-3.958 1.868a.5.5 0 0 1-.406.01l-4.492-1.88a.5.5 0 0 0-.437.024l-1.697.95a.5.5 0 0 0-.256.436v.245a5 5 0 0 0 5 5Z"/><path fill="#1C1B1F" d="M14.248 5.667h5.424a7.348 7.348 0 0 1 7.348 7.348c0 .02-.017.037-.037.037H6.937a.037.037 0 0 1-.036-.037 7.348 7.348 0 0 1 7.348-7.348Z"/><path stroke="#1C1B1F" stroke-linecap="round" stroke-width="2" d="M14.248 5.667h5.424a7.348 7.348 0 0 1 7.348 7.348c0 .02-.017.037-.037.037H6.937a.037.037 0 0 1-.036-.037 7.348 7.348 0 0 1 7.348-7.348Z"/></svg>