<svg xmlns="http://www.w3.org/2000/svg" width="32" height="33" fill="none"><path fill="#111827" fill-rule="evenodd" d="M7.029 4.945c-.078 0-.155.003-.23.009a3.01 3.01 0 0 0-2.51 2.967V20.68c0 6.528 5.343 11.82 11.934 11.82 4.574 0 8.85-3.332 10.167-6.003 1.314-2.666 1.316-8.393 1.316-8.411 0-.193.001-.379.003-.558.013-1.726.022-2.806-1.32-3.489a3.01 3.01 0 0 0-3.338.41v2.901a.5.5 0 1 1-1 0V5.24c0-.508-.15-.98-.41-1.374a3.002 3.002 0 0 0-2.79-1.04 2.51 2.51 0 0 0-1.818 2.38v9.613a.5.5 0 1 1-1 0V3.01a2.509 2.509 0 0 0-5.018 0V14.444a.5.5 0 0 1-1 0V7.896a2.986 2.986 0 0 0-2.986-2.951ZM16 18.168c-3.5 0-5.614 2.668-6.381 3.852l-.002.004a1.577 1.577 0 0 0 0 1.692l.002.003c.767 1.185 2.88 3.853 6.381 3.853 3.501 0 5.614-2.668 6.381-3.853l.003-.003a1.576 1.576 0 0 0 0-1.692l-.003-.004c-.767-1.184-2.88-3.852-6.38-3.852Zm-5.63 4.702c0-.11.031-.216.09-.308.73-1.128 2.582-3.394 5.54-3.394s4.81 2.266 5.54 3.394a.577.577 0 0 1 0 .616c-.73 1.127-2.582 3.394-5.54 3.394s-4.81-2.267-5.54-3.394a.576.576 0 0 1-.09-.308ZM16 24.445a1.576 1.576 0 1 0 0-3.151 1.576 1.576 0 0 0 0 3.151Z" clip-rule="evenodd"/></svg>