<svg xmlns="http://www.w3.org/2000/svg" width="32" height="33" fill="none"><path fill="#111827" fill-rule="evenodd" d="M22.833.535a1 1 0 0 1 .707 1.225l-.529 1.973a1 1 0 1 1-1.932-.517l.53-1.974a1 1 0 0 1 1.224-.707Zm4.174 1.946a1 1 0 0 1 .245 1.393L26.08 5.547A1 1 0 0 1 24.442 4.4l1.172-1.673a1 1 0 0 1 1.392-.246Zm3.01 4.649a1 1 0 1 0-1.148-1.639l-1.673 1.172a1 1 0 1 0 1.147 1.638l1.673-1.171Zm-22.01 4.347a1.27 1.27 0 1 0-2.2 1.27l4.768 8.257a1 1 0 0 1-1.733 1l-2.915-5.048a1.27 1.27 0 1 0-2.2 1.27l4.813 8.335c2.182 3.779 7.053 5.069 10.89 2.854a8.014 8.014 0 0 0 4.02-7.188v-.001l-.235-6.93a1.27 1.27 0 0 0-2.535.142v.004l.171 3.494c.078 1.583-2.024 2.202-2.817.83l-5.045-8.738a1.27 1.27 0 0 0-2.222 1.23l3.74 6.476a1 1 0 0 1-1.733 1l-3.717-6.437a3.16 3.16 0 0 1-.035-.063l-1.015-1.757Zm-3.602-4.01 1.1 1.691a3.27 3.27 0 0 0-1.43 4.59l.346.598a3.27 3.27 0 0 0-2.425 4.88l4.812 8.335c2.743 4.751 8.845 6.344 13.621 3.587a10.014 10.014 0 0 0 5.02-8.986v-.002l-.235-6.942v-.02a3.254 3.254 0 0 0-.51-1.586l-.175-4.498c-.069-1.288-.956-2.174-2.262-2.106-1.305.068-2.308 1.168-2.239 2.456l.157 3.153a3.285 3.285 0 0 0-.889.84.567.567 0 0 1-.083-.109l-5.261-8.991a2.385 2.385 0 0 0-3.234-.855 2.319 2.319 0 0 0-.867 3.19l1.064 1.848a3.26 3.26 0 0 0-.317.118l-1.942-3.59a2.441 2.441 0 0 0-4.251 2.398Z" clip-rule="evenodd"/></svg>