<svg xmlns="http://www.w3.org/2000/svg" width="32" height="35" fill="none"><path stroke="#111827" stroke-linecap="round" stroke-linejoin="round" stroke-width="2" d="M8.951 33.5a17.08 17.08 0 0 1-5.067-5.514M23.482 1.5a7.957 7.957 0 0 1 6.894 3.981"/><path fill="#111827" fill-rule="evenodd" d="M3.665 10.905a2.963 2.963 0 0 0-1.644 4.298l6.282 10.88c3.214 5.567 10.376 7.449 15.996 4.203A11.766 11.766 0 0 0 30.2 19.73l-.307-9.062a2.963 2.963 0 1 0-5.918.312l.258 5.25a.487.487 0 0 1-.326.493c-.973.563-1.634 1.52-1.935 2.549-.302 1.038-.22 2.088.207 2.83a.5.5 0 0 1-.865.5c-.597-1.033-.66-2.378-.302-3.61.326-1.116 1.012-2.19 2.044-2.912L16.371 4.503a2.963 2.963 0 0 0-4.23-.971 2.836 2.836 0 0 0-.765 3.17l5.147 8.915a.5.5 0 0 1-.183.683l-.009.006-.01.005-.007.005a.5.5 0 0 1-.683-.183l-4.94-8.555a3.852 3.852 0 0 1-.215-.435L9.435 5.339a2.463 2.463 0 0 0-4.266 2.463l2.162 3.744c.046.07.091.142.134.216l3.933 6.813 2.678-1.546-2.678 1.546a.5.5 0 0 1-.19.687.5.5 0 0 1-.683-.183l-4.042-7.002a2.806 2.806 0 0 0-2.818-1.172Z" clip-rule="evenodd"/></svg>