<svg xmlns="http://www.w3.org/2000/svg" width="32" height="35" fill="none"><path fill="#111827" d="M30.724 16.113V27.228H23.22V16.114h7.505A14.614 14.614 0 0 0 16 1.5 14.613 14.613 0 0 0 1.276 16.113H8.56V27.23H1.276V16.113A14.613 14.613 0 0 1 16 1.5a14.613 14.613 0 0 1 14.724 14.613Z"/><path stroke="#111827" stroke-linecap="round" stroke-linejoin="round" stroke-width="2" d="M30.724 16.113V27.228H23.22V16.114h7.505Zm0 0A14.614 14.614 0 0 0 16 1.5 14.613 14.613 0 0 0 1.276 16.113m0 0V27.228H8.56V16.114H1.276Z"/><path stroke="#111827" stroke-linecap="round" stroke-linejoin="round" stroke-width="2" d="M17.052 33.5h10.672a3 3 0 0 0 3-3v-6.47"/></svg>