<svg xmlns="http://www.w3.org/2000/svg" width="32" height="33" fill="none"><path fill="#111827" fill-rule="evenodd" d="M4.688 1.5a1 1 0 0 1 1-1h20.625a1 1 0 0 1 1 1v2.266a11 11 0 0 1-4.4 8.8L17.667 16.5l5.246 3.934a11 11 0 0 1 4.4 8.8V31.5a1 1 0 0 1-1 1H5.688a1 1 0 0 1-1-1v-2.265a11 11 0 0 1 4.4-8.8l5.245-3.934-5.245-3.934a11 11 0 0 1-4.4-8.8V1.5Zm2 1v1.266c0 .939.146 1.86.425 2.734h17.774a8.994 8.994 0 0 0 .426-2.734V2.5H6.688Zm0 26.734V30.5h18.625v-1.265a9 9 0 0 0-3.6-7.2L16 17.75l-5.713 4.284a9 9 0 0 0-3.6 7.2Z" clip-rule="evenodd"/></svg>