<svg xmlns="http://www.w3.org/2000/svg" width="32" height="33" fill="none"><path fill="#111827" fill-rule="evenodd" d="M5.688.5a1 1 0 0 0-1 1V6a11 11 0 0 0 4.81 9.094l2.068 1.407-2.068 1.407a11 11 0 0 0-4.81 9.094v4.498a1 1 0 0 0 1 1h20.625a1 1 0 0 0 1-1v-4.498a11 11 0 0 0-4.811-9.094L20.434 16.5l2.068-1.407a11 11 0 0 0 4.81-9.094V1.5a1 1 0 0 0-1-1H5.688Zm12.23 16.674c.06.066.126.122.199.168l3.26 2.219a9 9 0 0 1 3.764 5.688H6.859a9 9 0 0 1 3.765-5.688l3.26-2.219a.99.99 0 0 0 .353-.392.993.993 0 0 0 0-.9.998.998 0 0 0-.354-.392l-3.26-2.219A9 9 0 0 1 6.689 6V2.5h18.625v3.498a9 9 0 0 1-3.937 7.44l-3.26 2.219a1 1 0 0 0-.199 1.516Z" clip-rule="evenodd"/></svg>