<svg xmlns="http://www.w3.org/2000/svg" width="33" height="32" fill="none"><path stroke="#111827" stroke-linecap="round" stroke-linejoin="round" stroke-width="2" d="m14.104 11.08 4.918 4.918-4.917 4.917M19.023 15.997H1.909"/><path fill="#111827" fill-rule="evenodd" d="M20.504 31.75a.5.5 0 0 0 .683.182l5.115-2.953a.5.5 0 0 0 .183-.683l-1.643-2.846a.513.513 0 0 1 .073-.605 12.978 12.978 0 0 0 2.905-5.026.513.513 0 0 1 .488-.366h3.282a.5.5 0 0 0 .5-.5v-5.906a.5.5 0 0 0-.5-.5h-3.282a.513.513 0 0 1-.488-.366 12.978 12.978 0 0 0-2.905-5.026.513.513 0 0 1-.073-.605l1.643-2.846a.5.5 0 0 0-.183-.683L21.187.068a.5.5 0 0 0-.684.183l-1.64 2.843a.513.513 0 0 1-.56.24 13.034 13.034 0 0 0-2.905-.326c-.998 0-1.97.112-2.903.326a.513.513 0 0 1-.56-.24L10.294.251A.5.5 0 0 0 9.61.068L4.495 3.02a.5.5 0 0 0-.183.683L5.955 6.55c.113.195.08.44-.073.605a12.999 12.999 0 0 0-2.564 4.055h5.246a8.346 8.346 0 1 1-.053 9.505H3.287c.6 1.54 1.487 2.94 2.594 4.13.153.165.185.41.073.605l-1.643 2.846a.5.5 0 0 0 .183.683l5.115 2.953a.5.5 0 0 0 .683-.183l1.642-2.843a.513.513 0 0 1 .56-.24c.934.214 1.905.326 2.904.326.998 0 1.97-.113 2.903-.326.22-.05.448.045.56.24l1.642 2.843Z" clip-rule="evenodd"/></svg>