<svg xmlns="http://www.w3.org/2000/svg" width="32" height="32" fill="none"><path fill="#111827" fill-rule="evenodd" d="M1 4.923a1 1 0 0 0-1 1v20.154a1 1 0 0 0 1 1h30a1 1 0 0 0 1-1V5.923a1 1 0 0 0-1-1H1Zm3.923 5.154a1 1 0 1 0 0 2h22.154a1 1 0 1 0 0-2H4.923Zm0 4.923a1 1 0 1 0 0 2h22.154a1 1 0 1 0 0-2H4.923Zm-1 5.923a1 1 0 0 1 1-1h1.231a1 1 0 1 1 0 2h-1.23a1 1 0 0 1-1-1Zm7.154-1a1 1 0 1 0 0 2h9.846a1 1 0 1 0 0-2h-9.846Zm13.77 1a1 1 0 0 1 1-1h1.23a1 1 0 1 1 0 2h-1.23a1 1 0 0 1-1-1Z" clip-rule="evenodd"/></svg>