<svg xmlns="http://www.w3.org/2000/svg" width="32" height="32" fill="none"><path fill="#111827" fill-rule="evenodd" d="M22.206 15.844a1.052 1.052 0 0 1-.058-.058l-3.473-3.474L3.023 28.351c6.355.89 11.766-1.394 15.733-4.082a32.7 32.7 0 0 0 5.054-4.25c.52-.535.933-.998 1.228-1.344l-2.819-2.819-.013-.012Zm-4.253-5.655-.005.005-17.664 18.1a1 1 0 0 0 .49 1.672c7.866 1.815 14.498-.92 19.104-4.04a34.707 34.707 0 0 0 5.367-4.513 30.358 30.358 0 0 0 1.428-1.573 19.968 19.968 0 0 0 .473-.583l.027-.035.007-.01.003-.003v-.001c.001 0 .001-.001-.799-.601l.8.6a1 1 0 0 0-.093-1.307l-2.808-2.808 6.59-7.02a3.885 3.885 0 0 0-5.505-5.48l-.008.008-7.407 7.589Z" clip-rule="evenodd"/></svg>