<svg xmlns="http://www.w3.org/2000/svg" width="32" height="32" fill="none"><path fill="#111827" fill-rule="evenodd" d="M23.279.002a8.72 8.72 0 0 0-6.166 2.553l-4.549 4.55a1 1 0 0 0 1.414 1.414l4.55-4.55a6.72 6.72 0 0 1 9.503 9.504l-4.55 4.549a1 1 0 0 0 1.415 1.414l4.549-4.549A8.72 8.72 0 0 0 23.279.002Zm-1.113 9.831a1 1 0 0 1 0 1.415L11.248 22.165a1 1 0 0 1-1.414-1.414L20.752 9.833a1 1 0 0 1 1.414 0Zm-13.647 2.73a1 1 0 0 1 0 1.415l-4.55 4.549a6.72 6.72 0 0 0 9.504 9.503l4.549-4.549a1 1 0 0 1 1.414 1.415l-4.549 4.549A8.72 8.72 0 0 1 2.555 17.113l4.55-4.55a1 1 0 0 1 1.414 0Z" clip-rule="evenodd"/></svg>