<svg xmlns="http://www.w3.org/2000/svg" width="32" height="32" fill="none"><path fill="#111827" fill-rule="evenodd" d="M22.843 21.43a11.767 11.767 0 0 0 2.784-7.618c0-6.525-5.29-11.814-11.814-11.814-6.525 0-11.814 5.29-11.814 11.814 0 6.525 5.289 11.815 11.814 11.815 2.902 0 5.56-1.047 7.617-2.784l.03.03 6.835 6.836a1 1 0 0 0 1.414-1.414l-6.835-6.835a.829.829 0 0 0-.03-.03Zm-8.03-12.118a1 1 0 1 0-2 0v3.5h-3.5a1 1 0 1 0 0 2h3.5v3.501a1 1 0 1 0 2 0v-3.5h3.5a1 1 0 1 0 0-2h-3.5V9.312Z" clip-rule="evenodd"/></svg>