<svg xmlns="http://www.w3.org/2000/svg" width="32" height="32" fill="none"><path fill="#111827" fill-rule="evenodd" d="M11.146.918A15.878 15.878 0 0 1 31.995 15.91a1.007 1.007 0 0 1 0 .178 15.88 15.88 0 0 1-20.849 14.993c-3.21-1.058-6.415-3.541-8.364-6.255a1.01 1.01 0 0 1-.088-.147H1a1 1 0 0 1-1-1V8.32a1 1 0 0 1 1-1h1.673c.02-.035.041-.07.066-.104 1.948-2.713 5.196-5.24 8.407-6.298ZM5.211 7.32h9.909V2.156a13.878 13.878 0 0 0-3.348.661c-2.357.777-4.816 2.52-6.56 4.503Zm11.908 0h.48a1 1 0 0 1 1 1V15h11.36A13.88 13.88 0 0 0 17.12 2.157V7.32ZM18.6 17v6.68a1 1 0 0 1-1 1h-.48v5.163A13.88 13.88 0 0 0 29.96 17H18.6Zm-3.48 7.68H5.216c1.737 1.99 4.182 3.72 6.556 4.503 1.091.359 2.215.58 3.348.66V24.68Zm-9.3-12.585c0-.566.46-1.024 1.026-1.024h2.387a3.547 3.547 0 0 1 3.548 3.547v.068a3.48 3.48 0 0 1-3.48 3.48H7.82v1.764a1 1 0 0 1-2 0v-7.834Zm2 4.07H9.3a1.48 1.48 0 0 0 1.48-1.48v-.067c0-.854-.692-1.547-1.547-1.547H7.82v3.095Z" clip-rule="evenodd"/></svg>