<svg xmlns="http://www.w3.org/2000/svg" width="32" height="33" fill="none"><path fill="#111827" fill-rule="evenodd" d="M22.233 20.48a9.724 9.724 0 0 0 5.922-2L14.466 4.792a9.724 9.724 0 0 0-1.999 5.921c0 .634.06 1.254.176 1.854L0 28.692l3.36 3.36 16.977-11.757c.613.121 1.247.184 1.896.184ZM15.836 3.332 29.613 17.11A9.729 9.729 0 0 0 32 10.713C32 5.32 27.627.947 22.233.947c-2.446 0-4.683.9-6.397 2.386Zm-3.488 17.265a1 1 0 0 1 0 1.415l-1.83 1.83a1 1 0 0 1-1.415-1.413l1.831-1.832a1 1 0 0 1 1.414 0Z" clip-rule="evenodd"/></svg>