<svg xmlns="http://www.w3.org/2000/svg" width="32" height="32" fill="none"><path fill="#111827" fill-rule="evenodd" d="M21.757 1.274 31 10.518 10.824 30.694 1.58 21.451 21.757 1.274Zm.18.23 9.013 9.014-4.769 4.768-9.013-9.013 4.768-4.769ZM10.753 30.726 1 30.485l.598-8.95 9.156 9.19Z" clip-rule="evenodd"/><path fill="#111827" d="m31 10.518.707.707a1 1 0 0 0 0-1.414l-.707.707Zm-9.243-9.244.707-.707a1 1 0 0 0-1.414 0l.707.707Zm-10.933 29.42-.708.707a1 1 0 0 0 1.415 0l-.707-.707ZM1.58 21.451l-.707-.707a1 1 0 0 0 0 1.414l.707-.707Zm29.37-10.933.707.707a1 1 0 0 0 0-1.415l-.707.708Zm-9.014-9.014.707-.707a1 1 0 0 0-1.414 0l.707.707Zm4.245 13.782-.707.707a1 1 0 0 0 1.414 0l-.707-.707Zm-9.013-9.013-.707-.708a1 1 0 0 0 0 1.415l.707-.707ZM1 30.485l-.998-.067a1 1 0 0 0 .973 1.067l.025-1Zm9.754.24-.024 1a1 1 0 0 0 .733-1.705l-.709.706Zm-9.156-9.19.709-.707a1 1 0 0 0-1.706.64l.997.066ZM31.708 9.81 22.463.567 21.05 1.981l9.243 9.244 1.414-1.414ZM11.53 31.4l20.176-20.176-1.414-1.414-20.177 20.176 1.415 1.414ZM.873 22.158l9.243 9.243 1.415-1.414-9.244-9.243-1.414 1.414ZM21.05.568.873 20.743l1.414 1.414L22.464 1.98 21.05.567ZM31.657 9.81 22.643.797 21.23 2.21l9.014 9.014 1.414-1.415Zm-4.769 6.183 4.769-4.768-1.414-1.415-4.769 4.769 1.414 1.414ZM16.46 6.98l9.014 9.013 1.414-1.414-9.013-9.014L16.46 6.98ZM21.23.797l-4.768 4.768 1.414 1.415 4.768-4.769L21.23.797ZM.975 31.485l9.755.24.05-1.999-9.755-.24-.05 1.998ZM.601 21.468l-.599 8.95 1.996.134.598-8.951-1.995-.133Zm10.862 8.552-9.156-9.192L.89 22.24l9.156 9.191 1.417-1.411Z"/></svg>