<svg xmlns="http://www.w3.org/2000/svg" width="32" height="32" fill="none"><path fill="#111827" fill-rule="evenodd" d="M19.723.325a1 1 0 0 0-1.415 0l-5.233 5.233c-.034.034-.065.07-.093.108L4.089 8.449a.767.767 0 0 0-.528.607L0 30.554l10.619-10.618a4.053 4.053 0 0 1 6.335-4.957 4.051 4.051 0 0 1-4.912 6.362L1.415 31.968l21.084-4.017c.26-.05.477-.231.572-.479l3.215-8.367c.067-.041.13-.09.188-.148l5.233-5.234a1 1 0 0 0 0-1.414L19.723.325Zm-4.526 5.94 3.819-3.819 10.57 10.57-3.82 3.82-10.57-10.57Zm-2.558 10.128a2.052 2.052 0 1 1 2.9 2.901 2.052 2.052 0 0 1-2.9-2.901Z" clip-rule="evenodd"/></svg>