<svg xmlns="http://www.w3.org/2000/svg" width="32" height="33" fill="none"><path fill="#111827" fill-rule="evenodd" d="M19.935 4.454a3.954 3.954 0 1 1-7.908 0 3.954 3.954 0 0 1 7.908 0Zm-8.18 6.386h8.988a.3.3 0 0 1 .233.11l6.728 8.24a.3.3 0 0 1-.02.402l-1.932 1.932a.3.3 0 0 1-.404.02l-4.47-3.7c-.23-.19-.566.036-.478.321l3.73 11.98a.3.3 0 0 1-.074.3l-1.961 1.962a.3.3 0 0 1-.467-.053l-5.048-8.078a.3.3 0 0 0-.506-.005l-5.275 8.093a.3.3 0 0 1-.463.048L8.68 30.757a.3.3 0 0 1-.076-.296l3.625-12.398a.3.3 0 0 0-.467-.324l-5.12 3.823a.3.3 0 0 1-.392-.028l-1.935-1.935a.3.3 0 0 1-.013-.41l7.225-8.247a.3.3 0 0 1 .226-.102Z" clip-rule="evenodd"/></svg>