<svg xmlns="http://www.w3.org/2000/svg" width="32" height="32" fill="none"><path fill="#111827" fill-rule="evenodd" d="M1 4.635a1 1 0 0 0-1 1v10.66a1 1 0 0 0 1 1h9.675c-.006 1.314-.07 3.202-.758 4.837-.366.87-.894 1.632-1.659 2.195-.76.56-1.817.972-3.322 1.039a1 1 0 1 0 .09 1.998c1.842-.082 3.296-.599 4.419-1.427 1.118-.824 1.845-1.909 2.316-3.03.915-2.177.915-4.618.915-5.9v-2.119c0-.06-.006-.12-.016-.177V5.635a1 1 0 0 0-1-1H1Zm18.339 1a1 1 0 0 1 1-1h10.66a1 1 0 0 1 1 1v9.225l.001.028v2.12c0 1.28 0 3.722-.915 5.9-.471 1.12-1.198 2.205-2.316 3.03-1.123.827-2.576 1.344-4.419 1.426a1 1 0 0 1-.09-1.998c1.506-.067 2.563-.479 3.322-1.038.765-.564 1.294-1.326 1.66-2.196.687-1.635.752-3.523.758-4.836h-9.661a1 1 0 0 1-1-1V5.636Z" clip-rule="evenodd"/></svg>