<svg xmlns="http://www.w3.org/2000/svg" width="32" height="32" fill="none"><path fill="#111827" fill-rule="evenodd" d="M8.5 28.99c-.486-.28-.848-.854-1.016-1.787-.167-.93-.124-2.146.137-3.579.134-.732.323-1.513.567-2.331a36.24 36.24 0 0 0 4.403.61 36.225 36.225 0 0 0 2.73 3.508 22.204 22.204 0 0 1-1.736 1.657c-1.11.942-2.142 1.587-3.03 1.907-.892.322-1.57.295-2.056.015Zm7.5-4.322a34.503 34.503 0 0 1-2.13-2.684 43.974 43.974 0 0 0 4.258 0 34.543 34.543 0 0 1-2.129 2.684Zm-1.767 3.162a23.13 23.13 0 0 0 1.766-1.68 23.092 23.092 0 0 0 1.767 1.68c1.16.986 2.296 1.71 3.339 2.086 1.04.375 2.056.425 2.894-.06.84-.484 1.304-1.389 1.5-2.477.195-1.09.136-2.437-.138-3.934a23.117 23.117 0 0 0-.572-2.37 23.094 23.094 0 0 0 2.339-.69c1.434-.512 2.63-1.133 3.476-1.848C31.45 17.824 32 16.968 32 16c0-.969-.551-1.824-1.396-2.537-.847-.715-2.042-1.336-3.476-1.848a23.1 23.1 0 0 0-2.34-.69c.245-.828.436-1.621.573-2.37.273-1.497.333-2.844.137-3.934-.195-1.088-.66-1.993-1.499-2.477-.839-.485-1.855-.435-2.895-.06-1.042.376-2.178 1.1-3.338 2.086a23.109 23.109 0 0 0-1.767 1.68 23.109 23.109 0 0 0-1.766-1.68c-1.16-.985-2.296-1.71-3.339-2.086-1.04-.375-2.056-.424-2.894.06-.84.484-1.304 1.389-1.5 2.477-.195 1.09-.136 2.437.138 3.934.136.75.328 1.543.572 2.37-.839.203-1.622.434-2.338.69-1.434.512-2.63 1.133-3.477 1.848C.551 14.176 0 15.031 0 16c0 .968.551 1.824 1.395 2.537.847.715 2.043 1.336 3.477 1.848.716.256 1.499.487 2.337.69a23.108 23.108 0 0 0-.572 2.37c-.273 1.497-.333 2.843-.137 3.934.195 1.088.66 1.993 1.5 2.477.838.484 1.854.435 2.894.06 1.042-.376 2.178-1.1 3.339-2.086Zm10.145-4.206a22.229 22.229 0 0 0-.567-2.331 36.245 36.245 0 0 1-4.404.61 36.239 36.239 0 0 1-2.73 3.508c.588.62 1.17 1.175 1.736 1.657 1.11.942 2.142 1.587 3.03 1.907.893.322 1.571.295 2.056.015.485-.28.848-.854 1.015-1.787.167-.93.125-2.146-.136-3.579Zm2.414-4.18c-.701.25-1.472.476-2.303.674A36.244 36.244 0 0 0 22.815 16a36.241 36.241 0 0 0 1.674-4.119c.83.199 1.602.425 2.303.675 1.37.49 2.445 1.062 3.167 1.671.724.612 1.04 1.213 1.04 1.773 0 .56-.316 1.161-1.04 1.773-.722.61-1.796 1.18-3.167 1.67Zm-3.285.89a34.515 34.515 0 0 0-1.26-3.186 43.951 43.951 0 0 1-2.13 3.688 34.51 34.51 0 0 0 3.39-.502Zm-3.147-1.816c.488-.846.937-1.688 1.345-2.518a42.538 42.538 0 0 0-2.853-4.941 42.542 42.542 0 0 0-5.706 0 42.63 42.63 0 0 0-2.852 4.94 42.569 42.569 0 0 0 2.853 4.942 42.57 42.57 0 0 0 5.705 0 42.592 42.592 0 0 0 1.508-2.423Zm3.146-6.853a34.492 34.492 0 0 1-1.26 3.186 44.027 44.027 0 0 0-2.128-3.687 34.53 34.53 0 0 1 3.388.501Zm.305-.958a36.24 36.24 0 0 0-4.404-.61 36.23 36.23 0 0 0-2.73-3.509 22.22 22.22 0 0 1 1.736-1.656c1.11-.942 2.142-1.587 3.03-1.907.892-.322 1.571-.295 2.056-.015.485.28.847.854 1.015 1.787.167.93.125 2.146-.137 3.579a22.215 22.215 0 0 1-.566 2.33ZM13.586 4.932a22.24 22.24 0 0 1 1.735 1.656 36.256 36.256 0 0 0-2.73 3.509 36.275 36.275 0 0 0-4.403.61c-.243-.819-.433-1.6-.567-2.331-.261-1.433-.303-2.649-.136-3.579.167-.933.53-1.507 1.015-1.787.485-.28 1.163-.307 2.055.015.889.32 1.921.965 3.03 1.907Zm-8.378 7.624c.7-.25 1.471-.476 2.302-.674A36.24 36.24 0 0 0 9.183 16a36.243 36.243 0 0 0-1.673 4.118 22.237 22.237 0 0 1-2.302-.675c-1.371-.49-2.445-1.06-3.167-1.67C1.316 17.16 1 16.56 1 16c0-.56.316-1.161 1.04-1.773.723-.61 1.797-1.18 3.168-1.67Zm3.284-.89c.344 1.02.765 2.088 1.26 3.185a43.952 43.952 0 0 1 2.129-3.687c-1.197.12-2.333.289-3.389.502Zm0 8.668c.343-1.02.765-2.09 1.26-3.186a44.023 44.023 0 0 0 2.129 3.688 34.471 34.471 0 0 1-3.39-.502Zm9.636-10.319a34.524 34.524 0 0 0-2.129-2.684 34.511 34.511 0 0 0-2.129 2.684 44.047 44.047 0 0 1 4.258 0ZM16 19.321a3.321 3.321 0 1 0 0-6.642 3.321 3.321 0 0 0 0 6.642Z" clip-rule="evenodd"/></svg>