<svg xmlns="http://www.w3.org/2000/svg" width="33" height="32" fill="none"><path fill="#1C1B1F" fill-rule="evenodd" d="M9.227 12.26c.256-.088.513-.168.773-.243-.043-.174-.083-.349-.12-.525-.585-2.827-.202-5.105 1.104-5.854 1.252-.72 3.3.03 5.367 1.823.204.177.403.359.598.546.13-.125.263-.247.397-.366 2.168-1.917 4.34-2.724 5.645-1.972 1.25.72 1.62 2.862 1.094 5.542-.052.265-.111.53-.177.791.307.087.604.18.888.279 2.541.882 4.164 2.265 4.164 3.699 0 1.481-1.742 2.967-4.389 3.868-.214.073-.43.14-.649.202.071.282.134.567.189.853.502 2.633.11 4.724-1.138 5.44-1.288.74-3.45-.02-5.556-1.853a13.52 13.52 0 0 1-.501-.46c-.211.202-.427.399-.65.59-2.039 1.747-4.053 2.453-5.3 1.735-1.287-.742-1.705-2.988-1.162-5.72.041-.21.09-.423.144-.64-.152-.044-.301-.09-.447-.139C6.75 18.95 4.96 17.482 4.96 15.98c0-1.44 1.675-2.832 4.267-3.72Zm.864 6.52c.126.04.256.081.388.12.292-.922.687-1.902 1.17-2.915a22.99 22.99 0 0 1-1.125-2.872c-.236.069-.465.14-.686.216-2.138.733-3.442 1.817-3.442 2.651 0 .89 1.408 2.045 3.695 2.8Zm.949 1.872c-.231 1.163-.264 2.214-.111 3.036.137.739.414 1.231.756 1.428.728.42 2.285-.125 3.964-1.564.193-.165.386-.342.58-.528a23.104 23.104 0 0 1-1.935-2.449 23.124 23.124 0 0 1-3.13-.48c-.046.19-.088.375-.124.557Zm9.595 4.392c.711.25 1.277.257 1.62.06.729-.418 1.031-2.034.618-4.201-.049-.256-.105-.511-.168-.764-.947.208-1.994.358-3.113.449-.64.896-1.309 1.719-1.983 2.44.143.138.29.273.44.404.896.78 1.794 1.333 2.586 1.612Zm3.332-6.27c1.126-.384 2.057-.882 2.694-1.426.573-.488.863-.974.863-1.367 0-.838-1.255-1.907-3.346-2.633-.263-.09-.528-.174-.795-.25-.29.937-.669 1.916-1.126 2.906.463 1.005.848 2 1.14 2.947.191-.054.381-.113.57-.177ZM22.85 11.2c.434-2.21.146-3.876-.58-4.295-.773-.445-2.482.19-4.283 1.783-.115.102-.23.208-.346.319a23.563 23.563 0 0 1 1.967 2.425c1.087.1 2.127.261 3.083.477.059-.235.112-.471.159-.709Zm-9.965 2.45c.226-.388.46-.771.703-1.15-.738.093-1.444.216-2.107.367.2.635.447 1.3.74 1.981.213-.403.435-.803.664-1.197ZM16.95 9.71c-.455.491-.911 1.04-1.36 1.634a29.18 29.18 0 0 1 2.73 0 21.703 21.703 0 0 0-1.37-1.634Zm4.09 3.948c.226.392.444.789.651 1.19.288-.679.534-1.346.735-1.99a22.35 22.35 0 0 0-2.095-.359c.245.381.482.768.708 1.16Zm-.73 5.874c.757-.084 1.47-.198 2.13-.341a21.992 21.992 0 0 0-.75-2.031 28.714 28.714 0 0 1-1.38 2.372Zm-3.388 2.789a22.08 22.08 0 0 0 1.39-1.657 34.592 34.592 0 0 1-2.746-.005c.45.61.904 1.166 1.356 1.662Zm-4.71-5.197c-.309.701-.569 1.38-.776 2.024.67.153 1.393.275 2.155.366-.244-.385-.48-.776-.709-1.17a31.134 31.134 0 0 1-.67-1.22Zm1.525.729c.35.605.72 1.199 1.108 1.78.686.05 1.394.074 2.116.074.719 0 1.418-.022 2.091-.066a27.88 27.88 0 0 0 2.115-3.637 27.595 27.595 0 0 0-2.103-3.63 28.088 28.088 0 0 0-4.21 0 29.578 29.578 0 0 0-1.114 1.77c-.352.605-.684 1.22-.996 1.846.309.632.64 1.254.993 1.862ZM11.7 6.876c-.773.444-1.074 2.236-.588 4.586.032.153.066.305.104.457.958-.22 1.999-.384 3.088-.486.635-.9 1.293-1.718 1.953-2.427-.173-.166-.35-.328-.531-.485-1.706-1.478-3.3-2.062-4.026-1.645Zm3.117 9.103c0-1.179.96-2.135 2.143-2.135 1.183 0 2.143.956 2.143 2.135 0 1.178-.96 2.134-2.143 2.134a2.139 2.139 0 0 1-2.143-2.134Z" clip-rule="evenodd"/></svg>