<svg xmlns="http://www.w3.org/2000/svg" width="33" height="33" fill="none"><path fill="#1C1B1F" stroke="#1C1B1F" stroke-linecap="round" stroke-linejoin="round" stroke-width="2" d="M23.389 8.997a1.714 1.714 0 1 0 0-3.428 1.714 1.714 0 0 0 0 3.428Z"/><path stroke="#1C1B1F" stroke-linecap="round" stroke-linejoin="round" stroke-width="2" d="m16.96 11.569.857-5.143 3.877.596"/><path fill="#1C1B1F" fill-rule="evenodd" d="M16.96 11.569c-2.815 0-5.387.723-7.349 1.915a2.57 2.57 0 0 0-4.622 1.897 2.571 2.571 0 0 0 1.235 1.83 5.53 5.53 0 0 0-.407 2.072c0 4.26 4.99 7.714 11.143 7.714 6.154 0 11.143-3.454 11.143-7.714a5.53 5.53 0 0 0-.406-2.071 2.573 2.573 0 0 0-1.448-4.782 2.57 2.57 0 0 0-1.94 1.055c-1.961-1.193-4.533-1.916-7.349-1.916Zm-2.571 6.428a1.714 1.714 0 1 1-3.429 0 1.714 1.714 0 0 1 3.429 0Zm6.567 5.604a1 1 0 0 0-.915-1.779 6.733 6.733 0 0 1-6.162 0 1 1 0 0 0-.915 1.779 8.733 8.733 0 0 0 7.992 0Zm.29-3.89a1.714 1.714 0 1 0 0-3.428 1.714 1.714 0 0 0 0 3.428Z" clip-rule="evenodd"/></svg>