<svg xmlns="http://www.w3.org/2000/svg" width="34" height="34" fill="none"><path fill="#111827" fill-rule="evenodd" d="m10.504 16.035.005-.005-8.943-1.699a1 1 0 0 1-.52-1.69L7.71 5.977a1 1 0 0 1 .688-.292l12.706-.25L22.39 4.15c1.41-1.575 5.333-4.314 10.059-3.132.327.082.582.339.645.67.405 2.118.226 6.364-3.213 9.954l-1.503 1.504-.255 12.47a1 1 0 0 1-.292.687l-6.675 6.674a1 1 0 0 1-1.693-.545l-1.467-8.906-7.491-7.491Zm9.232 5.751 1.383 8.4 5.012-5.013.203-9.985-6.598 6.598ZM3.796 12.72l8.424 1.6 6.844-6.844-10.224.2-5.044 5.044Zm-.635 16.994a1 1 0 0 0 .855.874c2.208.309 4.344-.393 6.058-1.313 1.72-.924 3.12-2.122 3.905-2.969a1 1 0 0 0-1.468-1.358c-.648.7-1.875 1.755-3.383 2.565-1.25.671-2.624 1.136-3.982 1.148.127-1.567.936-4.473 3.766-7.389a1 1 0 1 0-1.436-1.393c-3.828 3.945-4.522 8.065-4.315 9.835Z" clip-rule="evenodd"/></svg>