<svg xmlns="http://www.w3.org/2000/svg" width="32" height="32" fill="none"><path fill="#111827" fill-rule="evenodd" d="M8.389 9.506a4.34 4.34 0 1 0-1.123 1.64c.028.024.059.048.09.07L14.35 16l-6.992 4.784a1.03 1.03 0 0 0-.091.07 4.34 4.34 0 1 0 1.123 1.64c.033-.018.066-.038.097-.06l7.634-5.222 14.315 9.794a1 1 0 0 0 1.13-1.65L16.7 15.186a1.053 1.053 0 0 0-.03-.022L8.485 9.565a1.013 1.013 0 0 0-.097-.059Zm23.436-4.251a1 1 0 0 1-.26 1.39L21.075 13.82a1 1 0 1 1-1.13-1.65l10.489-7.176a1 1 0 0 1 1.39.26Z" clip-rule="evenodd"/></svg>