<svg xmlns="http://www.w3.org/2000/svg" width="32" height="32" fill="none"><path fill="#111827" fill-rule="evenodd" d="M8.454 0a1 1 0 0 0-1 1v2.123a1 1 0 1 0 2 0V2h.88a1 1 0 1 0 0-2h-1.88Zm5.637 0a1 1 0 1 0 0 2h3.757a1 1 0 1 0 0-2h-3.757Zm7.515 0a1 1 0 1 0 0 2h3.757a1 1 0 1 0 0-2h-3.757Zm7.515 0a1 1 0 1 0 0 2H30v.879a1 1 0 0 0 2 0V1a1 1 0 0 0-1-1H29.12ZM32 6.636a1 1 0 1 0-2 0v3.758a1 1 0 0 0 2 0V6.636Zm-22.546.732a1 1 0 1 0-2 0v2.087H1a1 1 0 0 0-1 1V31a1 1 0 0 0 1 1h20.546a1 1 0 0 0 1-1v-6.455h2.11a1 1 0 1 0 0-2h-2.11v-12.09a1 1 0 0 0-1-1H9.454V7.368ZM32 14.152a1 1 0 1 0-2 0v3.757a1 1 0 0 0 2 0v-3.757Zm0 7.515a1 1 0 1 0-2 0v.878h-1.114a1 1 0 1 0 0 2H31a1 1 0 0 0 1-1v-1.878Z" clip-rule="evenodd"/></svg>