<svg xmlns="http://www.w3.org/2000/svg" width="32" height="32" fill="none"><path fill="#111827" fill-rule="evenodd" d="M1 0h30a1 1 0 0 1 1 1v30l-.28-.28a1 1 0 0 1-.96 1.28H28.9a1 1 0 0 1 0-2h1.86c.097 0 .19.014.28.04L1.96.96a1 1 0 0 1 .04.28V3.1a1 1 0 0 1-2 0V1.24A1 1 0 0 1 1.28.28L1 0Zm1 6.82a1 1 0 1 0-2 0v3.72a1 1 0 1 0 2 0V6.82Zm0 7.44a1 1 0 1 0-2 0v3.72a1 1 0 1 0 2 0v-3.72Zm0 7.44a1 1 0 1 0-2 0v3.72a1 1 0 1 0 2 0V21.7Zm0 7.44a1 1 0 1 0-2 0V31a1 1 0 0 0 1 1h1.86a1 1 0 1 0 0-2H2v-.86Zm4.58.86a1 1 0 1 0 0 2h3.72a1 1 0 1 0 0-2H6.58Zm7.44 0a1 1 0 1 0 0 2h3.72a1 1 0 1 0 0-2h-3.72Zm7.44 0a1 1 0 1 0 0 2h3.72a1 1 0 0 0 0-2h-3.72Z" clip-rule="evenodd"/></svg>