<svg xmlns="http://www.w3.org/2000/svg" width="32" height="32" fill="none"><path fill="#111827" fill-rule="evenodd" d="M9.182 0a1 1 0 0 0-1 1v7.182H6.456a1 1 0 1 0 0 2h2.466a1.004 1.004 0 0 0 .52 0h.65a1 1 0 0 0 .09-1.996V2.001H30v19.817h-6.185a1 1 0 0 0-1.996.09v.83a.996.996 0 0 0 0 .16v2.647a1 1 0 1 0 2 0v-1.727H31a1 1 0 0 0 1-1V1a1 1 0 0 0-1-1H9.182Zm-8.18 8.182a1 1 0 0 0-1 1V11a1 1 0 1 0 2 0v-.818h.818a1 1 0 0 0 0-2H1Zm12.726 0a1 1 0 1 0 0 2h3.636a1 1 0 0 0 0-2h-3.636Zm7.272 0a1 1 0 1 0 0 2h.818V11a1 1 0 1 0 2 0V9.182a1 1 0 0 0-1-1H21ZM2.001 14.636a1 1 0 1 0-2 0v3.637a1 1 0 1 0 2 0v-3.637Zm21.817 0a1 1 0 0 0-2 0v3.637a1 1 0 1 0 2 0v-3.637ZM2.001 21.91a1 1 0 1 0-2 0v3.636a1 1 0 1 0 2 0v-3.636Zm0 7.272a1 1 0 1 0-2 0v1.818a1 1 0 0 0 1 1H2.82a1 1 0 0 0 0-2H2v-.818Zm21.817 0a1 1 0 0 0-2 0v.818H21a1 1 0 1 0 0 2h1.818a1 1 0 0 0 1-1v-1.818Zm-17.362.818a1 1 0 1 0 0 2h3.636a1 1 0 0 0 0-2H6.456Zm7.272 0a1 1 0 1 0 0 2h3.636a1 1 0 0 0 0-2h-3.636Z" clip-rule="evenodd"/></svg>