<svg xmlns="http://www.w3.org/2000/svg" width="32" height="32" fill="none"><path fill="#111827" fill-rule="evenodd" d="M29.539 4.923a4.923 4.923 0 0 1-8.441 3.444c-.026.021-.054.04-.083.06l-8.95 5.752a1.002 1.002 0 0 1-.085.05A4.91 4.91 0 0 1 12.308 16a4.91 4.91 0 0 1-.328 1.771c.029.015.058.031.086.05l8.95 5.753c.028.018.056.038.082.059a4.923 4.923 0 1 1-1.077 1.673 1.022 1.022 0 0 1-.087-.05l-8.95-5.753a1.014 1.014 0 0 1-.082-.059 4.923 4.923 0 1 1 0-6.889c.027-.02.054-.04.082-.058l8.95-5.753c.028-.018.057-.035.086-.05a4.923 4.923 0 1 1 9.518-1.77Z" clip-rule="evenodd"/></svg>