<svg xmlns="http://www.w3.org/2000/svg" width="32" height="32" fill="none"><path fill="#111827" fill-rule="evenodd" d="M27.167 2.138a2.069 2.069 0 0 0-1.463.606l-3.963 3.963a1.003 1.003 0 0 0-.051.055L5.3 9.494a1.124 1.124 0 0 0-.61 1.903l13.774 13.774a1.124 1.124 0 0 0 1.903-.61L23.1 8.173l.056-.052 3.962-3.963a.07.07 0 0 1 .05-.02H31a1 1 0 1 0 0-2h-3.833ZM6.948 20.242a1.603 1.603 0 1 1-3.207 0 1.603 1.603 0 0 1 3.207 0Zm-5.345 5.345a1.604 1.604 0 1 0 0-3.208 1.604 1.604 0 0 0 0 3.207Zm9.62-1.07a1.603 1.603 0 1 1-3.206 0 1.603 1.603 0 0 1 3.207 0Zm-3.74 3.742a1.603 1.603 0 1 1-3.208 0 1.603 1.603 0 0 1 3.207 0Z" clip-rule="evenodd"/></svg>