<svg xmlns="http://www.w3.org/2000/svg" width="34" height="32" fill="none"><path fill="#111827" fill-rule="evenodd" d="M9.289 2.68a1.5 1.5 0 0 0-1.145.53l-6.791 8.02a1.5 1.5 0 0 0 .054 2l14.75 15.62a1.5 1.5 0 0 0 2.199-.018L32.61 13.218a1.5 1.5 0 0 0 .033-1.985l-6.85-8.028a1.5 1.5 0 0 0-1.141-.526H9.289Zm-5.32 8.556L9.52 4.679h6.535l-5.004 6.557H3.97Zm.195 2 11.578 12.262-4.99-12.262H4.163Zm13.324 13.58 12.398-13.58h-6.823l-5.575 13.58Zm12.528-15.58-5.595-6.557h-6.707l5.046 6.557h7.256Z" clip-rule="evenodd"/></svg>