<svg xmlns="http://www.w3.org/2000/svg" width="32" height="33" fill="none"><path fill="#111827" fill-rule="evenodd" d="M1.911 1.552a1 1 0 0 1 1.413.067l25.833 28.417a1 1 0 1 1-1.48 1.345l-9.416-10.358v8.22a.5.5 0 0 1-.802.4l-8.62-6.544V10.947h.262L1.844 2.965a1 1 0 0 1 .067-1.413Zm26.743 6.831a1 1 0 1 0-1.414 1.415 9.425 9.425 0 0 1 0 13.328 1 1 0 1 0 1.414 1.414 11.427 11.427 0 0 0 2.477-12.45 11.427 11.427 0 0 0-2.477-3.707ZM24.56 12.48a1 1 0 1 0-1.414 1.414 3.633 3.633 0 0 1 0 5.138 1 1 0 0 0 1.414 1.414 5.632 5.632 0 0 0 0-7.966Zm-7.112-9.077-4.292 3.446 5.106 5.812V3.792a.5.5 0 0 0-.814-.39ZM6.84 10.947H5.777a5.776 5.776 0 1 0 0 11.553h1.062V10.947Z" clip-rule="evenodd"/></svg>