<svg xmlns="http://www.w3.org/2000/svg" width="32" height="33" fill="none"><path fill="#111827" fill-rule="evenodd" d="M1.913 1.551a1 1 0 0 1 1.413.067L29.16 30.037a1 1 0 0 1-1.48 1.345l-9.418-10.36v8.223a.5.5 0 0 1-.803.398L8.05 22.5H5.777a5.777 5.777 0 0 1 0-11.553h3.327L1.846 2.964a1 1 0 0 1 .067-1.413Zm23.92 10.074a1 1 0 0 1 1 1v7.75a1 1 0 1 1-2 0v-7.75a1 1 0 0 1 1-1ZM32 10.041a1 1 0 0 0-2 0V22.96a1 1 0 1 0 2 0V10.04ZM13.156 6.848 17.45 3.4a.5.5 0 0 1 .813.39v8.868l-5.106-5.811Z" clip-rule="evenodd"/></svg>