<svg xmlns="http://www.w3.org/2000/svg" width="32" height="32" fill="none"><path fill="#111827" fill-rule="evenodd" d="M17 1a1 1 0 0 0-2 0v5a1 1 0 1 0 2 0V1Zm10.313 5.101a1 1 0 0 0-1.414-1.414l-3.536 3.535a1 1 0 0 0 1.415 1.415L27.313 6.1Zm-2.314 9.9a1 1 0 0 1 1-1h5a1 1 0 1 1 0 2h-5a1 1 0 0 1-1-1Zm-1.221 6.362a1 1 0 0 0-1.415 1.415l3.536 3.535a1 1 0 1 0 1.414-1.414l-3.535-3.536ZM16 25a1 1 0 0 1 1 1v5a1 1 0 0 1-2 0v-5a1 1 0 0 1 1-1Zm-6.363-1.221a1 1 0 0 0-1.415-1.415L4.687 25.9a1 1 0 1 0 1.414 1.414l3.536-3.535ZM0 16a1 1 0 0 1 1-1h5a1 1 0 1 1 0 2H1a1 1 0 0 1-1-1Zm6.1-11.313a1 1 0 0 0-1.414 1.414l3.535 3.536a1 1 0 0 0 1.415-1.415L6.1 4.687Z" clip-rule="evenodd"/></svg>