<svg xmlns="http://www.w3.org/2000/svg" width="32" height="32" fill="none"><path fill="#111827" fill-rule="evenodd" d="M30.095 5.473 23.328 7.8a9.774 9.774 0 0 1 2.322 6.338c0 3.59-1.928 6.729-4.805 8.44 2.036.568 3.625 1.496 4.837 2.587 2.058 1.85 2.97 4.118 3.165 5.715a1 1 0 0 1-1.985.242c-.139-1.139-.834-2.956-2.517-4.47-1.66-1.493-4.341-2.744-8.551-2.674-8.368.14-10.77 5.032-11.016 7.14a1 1 0 1 1-1.986-.233c.293-2.507 2.452-6.64 8.149-8.244a9.807 9.807 0 0 1-4.913-8.503c0-2.457.904-4.704 2.395-6.424L4.188 6.258v11.815a1 1 0 1 1-2 0V5.57l-.282-.097a.5.5 0 0 1 .009-.948L15.847.024a.5.5 0 0 1 .307 0l13.932 4.5a.5.5 0 0 1 .009.95ZM16.163 10.26l5.093-1.75a7.811 7.811 0 1 1-10.75-.082l5.332 1.832a.5.5 0 0 0 .325 0Z" clip-rule="evenodd"/></svg>