<svg xmlns="http://www.w3.org/2000/svg" width="32" height="32" fill="none"><path fill="#111827" fill-rule="evenodd" d="M31.707.916a1 1 0 0 1 .291.765l-.605 10.395a1 1 0 0 1-.342.696L18.28 23.88l1.73 1.73a.5.5 0 0 1 0 .707l-3.753 3.753a.5.5 0 0 1-.707 0L11 25.521a.5.5 0 0 0-.707 0l-5.709 5.71a.5.5 0 0 1-.707 0L.147 27.5a.5.5 0 0 1 0-.708l5.709-5.709a.5.5 0 0 0 0-.707l-3.914-3.914a.5.5 0 0 1 0-.707l3.753-3.753a.5.5 0 0 1 .707 0l2.34 2.34L19.851 1.572a1 1 0 0 1 .696-.342L30.942.624a1 1 0 0 1 .765.292ZM12.582 18.184 10.16 15.76l10.924-12.56 8.852-.515-.515 8.853-12.56 10.924-2.865-2.865 8.818-8.818A1 1 0 0 0 21.4 9.366l-8.818 8.818Z" clip-rule="evenodd"/></svg>