<svg xmlns="http://www.w3.org/2000/svg" width="33" height="33" fill="none"><path stroke="#1C1B1F" stroke-linecap="round" stroke-linejoin="round" stroke-width="2" d="m12.11 17.353 10.76 9.47a.958.958 0 0 0 1.565-.506l4.501-19.64a.957.957 0 0 0-1.283-1.106L5.567 14.248a.957.957 0 0 0 .163 1.83l6.38 1.275Z"/><path fill="#1C1B1F" d="m17.483 22.082-3.74 3.74a.957.957 0 0 1-1.634-.677v-7.792"/><path stroke="#1C1B1F" stroke-linecap="round" stroke-linejoin="round" stroke-width="2" d="m17.483 22.082-3.74 3.74a.957.957 0 0 1-1.634-.677v-7.792l5.374 4.73Z"/><path fill="#1C1B1F" d="M28 6.5 4.5 15l7.5 2.5 16-11Z"/></svg>