<svg xmlns="http://www.w3.org/2000/svg" width="32" height="32" fill="none"><path fill="#111827" fill-rule="evenodd" d="M6.001 7.861a1 1 0 1 0-2 0v13.198a1 1 0 1 0 2 0V15.46h9.44v5.6a1 1 0 1 0 2 0V7.86a1 1 0 1 0-2 0v5.6H6v-5.6Zm16.575 4.72a1 1 0 0 0-.986.829l-1 5.778a1 1 0 0 0 1.701.868c.067-.068.139-.132.217-.192a2.26 2.26 0 0 1 1.382-.458c1.243 0 2.109.911 2.109 1.867 0 .955-.866 1.866-2.11 1.866-.706 0-1.312-.306-1.688-.75a1 1 0 0 0-1.525 1.294c.762.899 1.928 1.456 3.214 1.456 2.19 0 4.109-1.656 4.109-3.866s-1.918-3.867-4.11-3.867c-.336 0-.665.039-.98.111l.508-2.937H27a1 1 0 1 0 0-2h-4.423Z" clip-rule="evenodd"/></svg>