<svg xmlns="http://www.w3.org/2000/svg" width="32" height="32" fill="none"><path fill="#111827" fill-rule="evenodd" d="M3.481 1a1 1 0 0 1 1-1h23.038a1 1 0 0 1 1 1v3.962H3.481V1Zm0 5.962h25.038v6.346H3.481V6.962Zm0 8.346h25.038v9.923a1 1 0 0 1-1 1h-5.5l3.127 4.169a1 1 0 1 1-1.6 1.2l-3.577-4.77a.996.996 0 0 1-.2-.6h-7.538c0 .21-.065.42-.2.6L8.454 31.6a1 1 0 0 1-1.6-1.2l3.127-4.17h-5.5a1 1 0 0 1-1-1v-9.922Zm5.961 7.345a1.788 1.788 0 1 0 0-3.576 1.788 1.788 0 0 0 0 3.576Zm14.904-1.788a1.788 1.788 0 1 1-3.576 0 1.788 1.788 0 0 1 3.576 0Z" clip-rule="evenodd"/></svg>