<svg xmlns="http://www.w3.org/2000/svg" width="32" height="33" fill="none"><path fill="#111827" fill-rule="evenodd" d="M28 1.5a1 1 0 1 0-2 0v.985a3.445 3.445 0 0 0-1.358.785l-.853-.493a1 1 0 1 0-1 1.733l.852.492a3.459 3.459 0 0 0 0 1.569l-.852.492a1 1 0 1 0 1 1.732l.853-.493c.382.358.845.63 1.359.786v.984a1 1 0 0 0 2 0v-.984a3.445 3.445 0 0 0 1.358-.785l.853.492a1 1 0 1 0 1-1.732l-.852-.492a3.459 3.459 0 0 0 0-1.57l.852-.491a1 1 0 1 0-1-1.733l-.853.493a3.446 3.446 0 0 0-1.358-.785V1.5Zm-2.448 4.286c0-.798.645-1.445 1.442-1.449h.014a1.448 1.448 0 0 1 1.247.725l.005.008.01.016a1.443 1.443 0 0 1-.001 1.401l-.006.01-.008.014a1.448 1.448 0 0 1-2.703-.724ZM2.288 16.806c0-7.562 6.13-13.693 13.693-13.693a1 1 0 1 0 0-2C7.314 1.113.288 8.139.288 16.806S7.314 32.499 15.98 32.499s15.693-7.026 15.693-15.693a1 1 0 0 0-2 0c0 4.665-2.333 8.785-5.895 11.257a7.824 7.824 0 0 0-7.786-7.194 5.858 5.858 0 1 0-.024 0 7.824 7.824 0 0 0-7.787 7.194 13.678 13.678 0 0 1-5.894-11.257Z" clip-rule="evenodd"/></svg>