<svg xmlns="http://www.w3.org/2000/svg" width="32" height="32" fill="none"><path fill="#111827" fill-rule="evenodd" d="M0 2.5a1 1 0 0 1 1-1h30a1 1 0 0 1 1 1v22a1 1 0 0 1-1 1h-3.333v4a1 1 0 1 1-2 0v-4H6.333v4a1 1 0 1 1-2 0v-4H1a1 1 0 0 1-1-1v-22Zm16.802 11a4.433 4.433 0 1 1 8.865 0 4.433 4.433 0 0 1-8.865 0Zm4.432-6.433a6.433 6.433 0 1 0 0 12.866 6.433 6.433 0 0 0 0-12.866ZM6.468 9.537a1.333 1.333 0 1 1-2.666 0 1.333 1.333 0 0 1 2.666 0Zm16.94 3.963a2.173 2.173 0 1 1-4.347 0 2.173 2.173 0 0 1 4.346 0ZM5.134 14.796a1.333 1.333 0 1 0 0-2.666 1.333 1.333 0 0 0 0 2.666Zm1.333 2.667a1.333 1.333 0 1 1-2.666 0 1.333 1.333 0 0 1 2.666 0Zm2.667-6.593a1.333 1.333 0 1 0 0-2.667 1.333 1.333 0 0 0 0 2.667Zm1.333 2.593a1.333 1.333 0 1 1-2.666 0 1.333 1.333 0 0 1 2.666 0Zm-1.333 5.333a1.333 1.333 0 1 0 0-2.667 1.333 1.333 0 0 0 0 2.667Z" clip-rule="evenodd"/></svg>