<svg xmlns="http://www.w3.org/2000/svg" width="32" height="33" fill="none"><path fill="#111827" fill-rule="evenodd" d="M.001 9.922a1 1 0 0 1 1-1h13.41a2.33 2.33 0 0 0 2.32-2.332 2.309 2.309 0 0 0-2.299-2.31 2.3 2.3 0 0 0-2.3 2.3v.044a1 1 0 1 1-2 0V6.58a4.3 4.3 0 0 1 4.3-4.3c2.379 0 4.3 1.94 4.3 4.31 0 2.383-1.93 4.332-4.321 4.332H1a1 1 0 0 1-1-1Zm0 6.642a1 1 0 0 1 1-1h26.677a2.33 2.33 0 0 0 2.32-2.332 2.309 2.309 0 0 0-2.299-2.31 2.3 2.3 0 0 0-2.3 2.3v.044a1 1 0 0 1-2 0v-.045a4.3 4.3 0 0 1 4.3-4.3c2.379 0 4.3 1.94 4.3 4.311 0 2.382-1.93 4.332-4.321 4.332H1a1 1 0 0 1-1-1Zm1 7.514a1 1 0 1 1 0-2h13.41c2.39 0 4.32 1.95 4.32 4.332 0 2.37-1.92 4.31-4.299 4.31a4.3 4.3 0 0 1-4.3-4.3v-.044a1 1 0 0 1 2 0v.044a2.3 2.3 0 0 0 2.3 2.3c1.266 0 2.3-1.036 2.3-2.31a2.33 2.33 0 0 0-2.321-2.332H1Z" clip-rule="evenodd"/></svg>