<svg width="32" height="32" viewBox="0 0 32 32" fill="none" xmlns="http://www.w3.org/2000/svg">
<path fill-rule="evenodd" clip-rule="evenodd" d="M29.3337 -3.05176e-05C29.8859 -3.05176e-05 30.3337 0.447685 30.3337 0.999969V31C30.3337 31.5523 29.8859 32 29.3337 32H4.66699C4.11471 32 3.66699 31.5523 3.66699 31V27H1.66699C1.11471 27 0.666992 26.5523 0.666992 26C0.666992 25.4477 1.11471 25 1.66699 25H3.66699V20.3333H1.66699C1.11471 20.3333 0.666992 19.8856 0.666992 19.3333C0.666992 18.781 1.11471 18.3333 1.66699 18.3333H3.66699V13.6666H1.66699C1.11471 13.6666 0.666992 13.2189 0.666992 12.6666C0.666992 12.1143 1.11471 11.6666 1.66699 11.6666H3.66699V6.99997H1.66699C1.11471 6.99997 0.666992 6.55225 0.666992 5.99997C0.666992 5.44768 1.11471 4.99997 1.66699 4.99997H3.66699V0.999969C3.66699 0.447685 4.11471 -3.05176e-05 4.66699 -3.05176e-05H29.3337ZM12.6668 13.3333C12.6668 10.9401 14.6069 8.99998 17.0002 8.99998C19.3934 8.99998 21.3335 10.9401 21.3335 13.3333C21.3335 15.7265 19.3934 17.6666 17.0002 17.6666C14.6069 17.6666 12.6668 15.7265 12.6668 13.3333ZM17.0002 6.99998C13.5024 6.99998 10.6668 9.83551 10.6668 13.3333C10.6668 14.9631 11.2825 16.4492 12.2939 17.5716C12.6339 17.9488 12.5347 18.6008 12.0804 18.8279C10.553 19.5915 9.22434 20.7002 8.19958 22.0662C7.86816 22.508 7.95763 23.1348 8.39942 23.4662C8.84121 23.7977 9.46802 23.7082 9.79944 23.2664C10.6379 22.1487 11.725 21.2416 12.9748 20.6168C14.2245 19.992 15.6026 19.6667 16.9998 19.6666C18.397 19.6666 19.775 19.9918 21.0248 20.6166C22.2746 21.2413 23.3618 22.1484 24.2003 23.2661C24.5317 23.7078 25.1585 23.7973 25.6003 23.4658C26.0421 23.1344 26.1315 22.5076 25.8001 22.0658C24.7753 20.6998 23.4465 19.5912 21.9191 18.8276C21.4651 18.6007 21.366 17.9492 21.7058 17.5722C22.7176 16.4498 23.3335 14.9635 23.3335 13.3333C23.3335 9.83551 20.498 6.99998 17.0002 6.99998Z" fill="#111827"/>
</svg>
