<svg width="33" height="33" viewBox="0 0 33 33" fill="none" xmlns="http://www.w3.org/2000/svg">
<path d="M6.20996 13.7829H9.20996" stroke="#1C1B1F" stroke-width="2" stroke-linecap="round" stroke-linejoin="round"/>
<path d="M6.20996 8.7829H9.20996" stroke="#1C1B1F" stroke-width="2" stroke-linecap="round" stroke-linejoin="round"/>
<path d="M6.20996 18.7829H9.20996" stroke="#1C1B1F" stroke-width="2" stroke-linecap="round" stroke-linejoin="round"/>
<path d="M6.20996 23.7829H9.20996" stroke="#1C1B1F" stroke-width="2" stroke-linecap="round" stroke-linejoin="round"/>
<path fill-rule="evenodd" clip-rule="evenodd" d="M27.71 5.2829C27.71 4.73061 27.2622 4.2829 26.71 4.2829H8.70996C8.15768 4.2829 7.70996 4.73061 7.70996 5.2829V27.2829C7.70996 27.8352 8.15768 28.2829 8.70996 28.2829H26.71C27.2622 28.2829 27.71 27.8352 27.71 27.2829V5.2829ZM17.71 11.2829C16.0532 11.2829 14.71 12.626 14.71 14.2829C14.71 15.9396 16.053 17.2827 17.7097 17.2829H17.71C19.3669 17.2829 20.71 15.9398 20.71 14.2829C20.71 12.626 19.3669 11.2829 17.71 11.2829ZM22.71 14.2829C22.71 15.5752 22.2198 16.7529 21.4151 17.6404C21.2646 17.8063 21.3106 18.0799 21.511 18.18C22.6913 18.77 23.718 19.6267 24.5099 20.6822C24.8414 21.124 24.7519 21.7508 24.3102 22.0823C23.8684 22.4137 23.2416 22.3243 22.9101 21.8825C22.3045 21.0753 21.5193 20.4202 20.6167 19.969C19.7141 19.5178 18.7189 19.2829 17.7099 19.2829H17.7097C16.7006 19.2829 15.7054 19.5179 14.8028 19.9691C13.9002 20.4203 13.115 21.0755 12.5095 21.8827C12.178 22.3245 11.5512 22.414 11.1094 22.0826C10.6676 21.7511 10.5782 21.1243 10.9096 20.6825C11.7015 19.627 12.7282 18.7703 13.9084 18.1802C14.109 18.0799 14.1551 17.806 14.0045 17.6399C13.2001 16.7525 12.71 15.5749 12.71 14.2829C12.71 11.5215 14.9486 9.2829 17.71 9.2829C20.4714 9.2829 22.71 11.5215 22.71 14.2829Z" fill="#1C1B1F"/>
</svg>
