<svg width="32" height="33" viewBox="0 0 32 33" fill="none" xmlns="http://www.w3.org/2000/svg">
<path fill-rule="evenodd" clip-rule="evenodd" d="M2.40986 16.5C2.40986 8.88099 8.58627 2.70459 16.2052 2.70459C19.8611 2.70459 23.1849 4.12668 25.6535 6.44787C25.3945 6.87843 25.2456 7.38268 25.2456 7.92172C25.2456 9.50323 26.5276 10.7853 28.1091 10.7853C28.3236 10.7853 28.5326 10.7617 28.7337 10.717C29.5469 12.4758 30.0006 14.4349 30.0006 16.5C30.0006 20.4377 28.3508 23.9902 25.7047 26.5037H17.2382C17.2419 26.4686 17.2438 26.4329 17.2438 26.3968V21.6441C18.1434 22.3452 19.2747 22.7629 20.5035 22.7629C23.4346 22.7629 25.8107 20.3867 25.8107 17.4557C25.8107 14.8632 23.952 12.7049 21.4945 12.2408C21.2765 9.50986 18.9913 7.3616 16.2043 7.3616C13.4118 7.3616 11.1231 9.51825 10.9128 12.2568C8.49565 12.7526 6.67768 14.8918 6.67768 17.4557C6.67768 20.3867 9.0538 22.7629 11.9849 22.7629C13.2132 22.7629 14.344 22.3456 15.2434 21.645V19.6923L11.4019 17.7715C10.9079 17.5245 10.7077 16.9239 10.9547 16.4299C11.2017 15.9359 11.8024 15.7357 12.2963 15.9827L15.2434 17.4562V16.8991C15.2431 16.8852 15.2431 16.8713 15.2434 16.8574V13.2165C15.2434 12.6642 15.6911 12.2165 16.2434 12.2165C16.7957 12.2165 17.2434 12.6642 17.2434 13.2165V15.2594L20.1901 13.7861C20.6841 13.5391 21.2848 13.7393 21.5318 14.2333C21.7788 14.7273 21.5785 15.328 21.0846 15.5749L17.2434 17.4955V21.4648H15.2438V26.3968C15.2438 26.4329 15.2458 26.4686 15.2495 26.5037H6.70584C5.97923 25.8135 5.32774 25.045 4.76491 24.2116C5.35466 23.6871 5.72617 22.9226 5.72617 22.0712C5.72617 20.4897 4.44411 19.2076 2.8626 19.2076C2.80013 19.2076 2.73814 19.2097 2.67667 19.2136C2.50166 18.3362 2.40986 17.4288 2.40986 16.5ZM0.814874 20.0695C0.5499 18.9224 0.409862 17.7276 0.409862 16.5C0.409862 7.77643 7.4817 0.70459 16.2052 0.70459C20.4969 0.70459 24.3887 2.41613 27.2355 5.19386C27.5109 5.10573 27.8045 5.05814 28.1091 5.05814C29.6906 5.05814 30.9727 6.34021 30.9727 7.92172C30.9727 8.55289 30.7685 9.13636 30.4226 9.60968C31.4336 11.692 32.0006 14.0297 32.0006 16.5C32.0006 25.2235 24.9288 32.2954 16.2052 32.2954C10.5833 32.2954 5.64732 29.3582 2.84811 24.9348C1.27327 24.927 -0.000976562 23.6479 -0.000976562 22.0712C-0.000976562 21.2922 0.310126 20.5858 0.814874 20.0695ZM27.2456 7.92172C27.2456 7.44478 27.6322 7.05814 28.1091 7.05814C28.5861 7.05814 28.9727 7.44478 28.9727 7.92172C28.9727 8.39866 28.5861 8.78529 28.1091 8.78529C27.6322 8.78529 27.2456 8.39866 27.2456 7.92172ZM2.8626 21.2076C2.38566 21.2076 1.99902 21.5943 1.99902 22.0712C1.99902 22.5482 2.38566 22.9348 2.8626 22.9348C3.33954 22.9348 3.72617 22.5482 3.72617 22.0712C3.72617 21.5943 3.33954 21.2076 2.8626 21.2076Z" fill="#111827"/>
</svg>
