<svg width="32" height="32" viewBox="0 0 32 32" fill="none" xmlns="http://www.w3.org/2000/svg">
<path fill-rule="evenodd" clip-rule="evenodd" d="M31.5 19.3628H4C1.79086 19.3628 0 17.5719 0 15.3628V8.50603C0 8.22989 0.223858 8.00603 0.5 8.00603H4.2972C4.45867 8.00603 4.61021 8.08401 4.70407 8.21541L6.77094 11.109C6.8648 11.2404 7.01633 11.3184 7.17781 11.3184H10.8877C11.2324 11.3184 11.4737 10.9779 11.3594 10.6527L9.52039 5.41855C9.40614 5.09336 9.64745 4.75281 9.99212 4.75281H13.4972C13.6406 4.75281 13.7771 4.81438 13.872 4.92189L19.3701 11.1493C19.465 11.2568 19.6015 11.3184 19.7449 11.3184H29C30.6569 11.3184 32 12.6616 32 14.3184V18.8628C32 19.1389 31.7761 19.3628 31.5 19.3628ZM5.67318 25.2471C5.12089 25.2471 4.67318 25.6948 4.67318 26.2471C4.67318 26.7994 5.12089 27.2471 5.67318 27.2471H26.3263C26.8786 27.2471 27.3263 26.7994 27.3263 26.2471C27.3263 25.6948 26.8786 25.2471 26.3263 25.2471H5.67318Z" fill="#111827"/>
</svg>
