<svg width="32" height="33" viewBox="0 0 32 33" fill="none" xmlns="http://www.w3.org/2000/svg">
<path fill-rule="evenodd" clip-rule="evenodd" d="M1.23047 3.0769C0.678184 3.0769 0.230469 3.52462 0.230469 4.0769V26.2307C0.230469 26.783 0.678184 27.2307 1.23047 27.2307H4.91385C5.46613 27.2307 5.91385 26.783 5.91385 26.2307C5.91385 25.6785 5.46613 25.2307 4.91385 25.2307H2.23047V5.0769H29.7689V25.2307H27.1393C26.5871 25.2307 26.1393 25.6785 26.1393 26.2307C26.1393 26.783 26.5871 27.2307 27.1393 27.2307H30.7689C31.3212 27.2307 31.7689 26.783 31.7689 26.2307V4.0769C31.7689 3.52462 31.3212 3.0769 30.7689 3.0769H1.23047ZM16.3793 21.7506C16.1798 21.5178 15.8196 21.5178 15.6201 21.7506L9.32257 29.0976C9.04457 29.4219 9.27502 29.923 9.7022 29.923H22.2972C22.7244 29.923 22.9548 29.4219 22.6768 29.0976L16.3793 21.7506Z" fill="#111827"/>
</svg>
