<svg width="32" height="32" viewBox="0 0 32 32" fill="none" xmlns="http://www.w3.org/2000/svg">
<path fill-rule="evenodd" clip-rule="evenodd" d="M9.95637 22.938C7.66306 24.4762 4.55697 23.8641 3.01873 21.5708L0.0848116 17.1968C-0.069013 16.9674 -0.00780274 16.6568 0.221528 16.503L3.17857 14.5196C3.31267 14.4296 3.48196 14.41 3.6331 14.4668L6.7636 15.6441C6.91474 15.701 7.08403 15.6813 7.21813 15.5914L10.0975 13.66C10.3838 13.468 10.3945 13.0508 10.1185 12.8443L5.965 9.73839C5.68896 9.53197 5.69966 9.11473 5.98591 8.92272L8.70542 7.0986C8.82452 7.01872 8.97218 6.99381 9.11089 7.03022L16.706 9.0238C16.8447 9.06021 16.9923 9.03531 17.1114 8.95542L25.0897 3.60396C26.007 2.98866 27.2495 3.2335 27.8648 4.15082L30.7205 8.40832C30.8743 8.63765 30.8131 8.94826 30.5838 9.10208L9.95637 22.938ZM4.97374 26.7351C4.42146 26.7351 3.97374 27.1828 3.97374 27.7351C3.97374 28.2874 4.42146 28.7351 4.97374 28.7351H30.9999C31.5522 28.7351 31.9999 28.2874 31.9999 27.7351C31.9999 27.1828 31.5522 26.7351 30.9999 26.7351H4.97374Z" fill="#111827"/>
</svg>
