<svg width="33" height="33" viewBox="0 0 33 33" fill="none" xmlns="http://www.w3.org/2000/svg">
<path fill-rule="evenodd" clip-rule="evenodd" d="M9.34669 15.1601C6.86788 13.9432 5.84492 10.9472 7.06186 8.46839L8.36027 5.82365C8.48196 5.57577 8.78156 5.47347 9.02944 5.59517L11.3903 6.75418C11.5352 6.82534 11.6369 6.96212 11.6632 7.12144L12.0732 9.60055C12.0995 9.75987 12.2012 9.89665 12.3461 9.96781L14.6013 11.075C14.9107 11.2269 15.2774 11.0275 15.3182 10.6853L15.7632 6.94731C15.8039 6.60505 16.1706 6.40569 16.48 6.55759L18.6058 7.60121C18.7345 7.66441 18.8299 7.77984 18.8677 7.91817L20.4668 13.7662C20.5046 13.9045 20.6 14.0199 20.7287 14.0831L26.1654 16.7522C27.6527 17.4824 28.2665 19.28 27.5363 20.7673L26.4422 22.9959C26.3205 23.2438 26.0209 23.3461 25.773 23.2244L9.34669 15.1601ZM5.97217 26.0084C5.41988 26.0084 4.97217 26.4561 4.97217 27.0084C4.97217 27.5606 5.41988 28.0084 5.97217 28.0084H25.5975C26.1498 28.0084 26.5975 27.5606 26.5975 27.0084C26.5975 26.4561 26.1498 26.0084 25.5975 26.0084H5.97217Z" fill="#1C1B1F"/>
</svg>
