<svg width="32" height="32" viewBox="0 0 32 32" fill="none" xmlns="http://www.w3.org/2000/svg">
<path d="M12.3653 3.70963V10.6839C12.3653 10.704 12.354 10.7223 12.3361 10.7313L0.275312 16.7983C0.106514 16.8832 0 17.056 0 17.2449V21.3515C0 21.6659 0.286612 21.9022 0.595196 21.8424L11.7701 19.6751C12.0787 19.6153 12.3653 19.8517 12.3653 20.166V23.9615C12.3653 24.0941 12.3126 24.2213 12.2189 24.3151L9.88887 26.6451C9.7951 26.7389 9.74242 26.866 9.74242 26.9986V31.1116C9.74242 31.4844 10.1356 31.7261 10.4682 31.5578L15.7347 28.8928C15.8778 28.8204 16.047 28.821 16.1895 28.8944L21.3412 31.5493C21.674 31.7208 22.0703 31.4792 22.0703 31.1049V26.9986C22.0703 26.866 22.0176 26.7389 21.9238 26.6451L19.7811 24.5024C19.6874 24.4086 19.6347 24.2814 19.6347 24.1488V20.166C19.6347 19.8517 19.9213 19.6153 20.2299 19.6751L31.4048 21.8424C31.7134 21.9022 32 21.6659 32 21.3515V17.2449C32 17.056 31.8935 16.8832 31.7247 16.7983L19.6639 10.7313C19.646 10.7223 19.6347 10.704 19.6347 10.6839V3.70963C19.6347 1.70225 18.0074 0.0749512 16 0.0749512C13.9926 0.0749512 12.3653 1.70225 12.3653 3.70963Z" fill="#111827"/>
</svg>
