<svg width="33" height="33" viewBox="0 0 33 33" fill="none" xmlns="http://www.w3.org/2000/svg">
<path d="M26.8702 6.42651C25.716 5.27236 23.8448 5.27236 22.6906 6.42651L18.6807 10.4364C18.6692 10.448 18.6521 10.452 18.6367 10.4469L8.26869 7.01876C8.0893 6.95944 7.89178 7.00632 7.75818 7.13993L5.51791 9.3802C5.29564 9.60246 5.33117 9.97227 5.59169 10.1481L13.075 15.2004C13.3356 15.3762 13.3711 15.746 13.1488 15.9683L11.074 18.0431C10.9803 18.1369 10.8531 18.1895 10.7205 18.1895H8.11859C7.98599 18.1895 7.85881 18.2422 7.76504 18.336L5.53511 20.5659C5.27154 20.8295 5.37865 21.2784 5.73283 21.3946L10.1033 22.8281C10.2557 22.8781 10.3749 22.9981 10.4237 23.1509L11.7981 27.4479C11.9121 27.8044 12.3632 27.9138 12.6279 27.6491L14.853 25.424C14.9468 25.3302 14.9995 25.203 14.9995 25.0704V22.6839C14.9995 22.5513 15.0521 22.4241 15.1459 22.3303L17.3284 20.1479C17.5506 19.9256 17.9204 19.9611 18.0963 20.2217L23.1485 27.705C23.3244 27.9655 23.6942 28.0011 23.9165 27.7788L26.1568 25.5385C26.2904 25.4049 26.3373 25.2074 26.2779 25.028L22.8498 14.66C22.8447 14.6446 22.8487 14.6275 22.8603 14.616L26.8702 10.6061C28.0243 9.45192 28.0243 7.58067 26.8702 6.42651Z" fill="#1C1B1F"/>
</svg>
