<svg width="33" height="33" viewBox="0 0 33 33" fill="none" xmlns="http://www.w3.org/2000/svg">
<path fill-rule="evenodd" clip-rule="evenodd" d="M4.95996 5.28296C4.40768 5.28296 3.95996 5.73067 3.95996 6.28296V24.283C3.95996 24.8352 4.40768 25.283 4.95996 25.283H7.95271C8.50499 25.283 8.95271 24.8352 8.95271 24.283C8.95271 23.7307 8.50499 23.283 7.95271 23.283H5.95996V7.28296H27.96V23.283H26.0109C25.4586 23.283 25.0109 23.7307 25.0109 24.283C25.0109 24.8352 25.4586 25.283 26.0109 25.283H28.96C29.5122 25.283 29.96 24.8352 29.96 24.283V6.28296C29.96 5.73067 29.5122 5.28296 28.96 5.28296H4.95996ZM17.3396 20.7259C17.14 20.4931 16.7799 20.493 16.5803 20.7259L11.6674 26.4575C11.3894 26.7818 11.6199 27.2829 12.0471 27.2829H21.8728C22.3 27.2829 22.5305 26.7818 22.2525 26.4575L17.3396 20.7259Z" fill="#1C1B1F"/>
</svg>
