<svg width="32" height="32" viewBox="0 0 32 32" fill="none" xmlns="http://www.w3.org/2000/svg">
<path fill-rule="evenodd" clip-rule="evenodd" d="M3.93046 13.0939C1.45165 11.877 0.4287 8.88095 1.64564 6.40214L4.42864 0.733379C4.55034 0.485498 4.84994 0.383203 5.09782 0.504897L8.67138 2.25929C8.81633 2.33045 8.91799 2.46724 8.94434 2.62655L9.55128 6.29696C9.57762 6.45627 9.67928 6.59306 9.82423 6.66422L13.3237 8.38224C13.6331 8.53413 13.9998 8.33478 14.0405 7.99252L14.7296 2.20476C14.7703 1.8625 15.137 1.66314 15.4464 1.81504L18.7534 3.43858C18.8822 3.50178 18.9776 3.6172 19.0154 3.75553L21.2996 12.1096C21.3375 12.2479 21.4329 12.3633 21.5616 12.4265L30.3216 16.7271C31.8089 17.4573 32.4226 19.2549 31.6925 20.7422L29.5467 25.1129C29.425 25.3607 29.1254 25.463 28.8776 25.3413L3.93046 13.0939ZM1 29.5466C0.447715 29.5466 0 29.9943 0 30.5466C0 31.0989 0.447715 31.5466 1 31.5466H28.4529C29.0052 31.5466 29.4529 31.0989 29.4529 30.5466C29.4529 29.9943 29.0052 29.5466 28.4529 29.5466H1Z" fill="#111827"/>
</svg>
