<svg width="33" height="33" viewBox="0 0 33 33" fill="none" xmlns="http://www.w3.org/2000/svg">
<path fill-rule="evenodd" clip-rule="evenodd" d="M13.6621 19.5128C11.3688 21.051 8.2627 20.4389 6.72445 18.1456L5.17354 15.8334C5.01972 15.6041 5.08093 15.2935 5.31026 15.1397L7.44041 13.7109C7.57451 13.6209 7.7438 13.6013 7.89494 13.6581L10.1925 14.5222C10.3436 14.579 10.5129 14.5594 10.647 14.4694L12.6781 13.1071C12.9643 12.9151 12.975 12.4979 12.699 12.2914L9.7639 10.0966C9.48786 9.89016 9.49856 9.47292 9.78481 9.28092L11.6989 7.99703C11.818 7.91715 11.9657 7.89225 12.1044 7.92865L17.8475 9.43612C17.9862 9.47253 18.1339 9.44763 18.253 9.36774L23.9653 5.53615C24.8827 4.92085 26.1251 5.16569 26.7404 6.08301L28.6165 8.88002C28.7703 9.10935 28.7091 9.41996 28.4798 9.57378L13.6621 19.5128ZM8.87061 22.846C8.31832 22.846 7.87061 23.2937 7.87061 23.846C7.87061 24.3983 8.31832 24.846 8.87061 24.846H28.8954C29.4477 24.846 29.8954 24.3983 29.8954 23.846C29.8954 23.2937 29.4477 22.846 28.8954 22.846H8.87061Z" fill="#1C1B1F"/>
</svg>
