<svg width="32" height="32" viewBox="0 0 32 32" fill="none" xmlns="http://www.w3.org/2000/svg">
<path d="M29.2136 2.85815C27.6748 1.31928 25.1798 1.31928 23.6409 2.85815L18.2943 8.20472C18.2789 8.22008 18.2562 8.22548 18.2356 8.21865L4.31411 3.61557C4.13471 3.55625 3.9372 3.60313 3.80359 3.73674L0.601027 6.9393C0.378759 7.16157 0.414287 7.53137 0.674807 7.70725L10.9876 14.6697C11.2481 14.8456 11.2836 15.2154 11.0614 15.4376L8.10328 18.3957C8.00951 18.4895 7.88234 18.5422 7.74973 18.5422H4.14247C4.00987 18.5422 3.88269 18.5949 3.78892 18.6886L0.575149 21.9024C0.31158 22.166 0.418695 22.6149 0.772871 22.7311L6.93871 24.7535C7.0911 24.8034 7.21026 24.9235 7.25911 25.0762L9.20078 31.147C9.31482 31.5036 9.76586 31.613 10.0306 31.3482L13.2396 28.1393C13.3333 28.0455 13.386 27.9183 13.386 27.7857V24.4656C13.386 24.333 13.4387 24.2058 13.5324 24.1121L16.6341 21.0104C16.8564 20.7881 17.2262 20.8237 17.4021 21.0842L24.3645 31.397C24.5404 31.6575 24.9102 31.693 25.1325 31.4708L28.335 28.2682C28.4687 28.1346 28.5155 27.9371 28.4562 27.7577L23.8531 13.8362C23.8463 13.8155 23.8517 13.7928 23.8671 13.7775L29.2136 8.4309C30.7525 6.89203 30.7525 4.39702 29.2136 2.85815Z" fill="#111827"/>
</svg>
