<svg width="33" height="33" viewBox="0 0 33 33" fill="none" xmlns="http://www.w3.org/2000/svg">
<path fill-rule="evenodd" clip-rule="evenodd" d="M28.46 19.18H8.95996C6.75082 19.18 4.95996 17.3892 4.95996 15.18V11.1624C4.95996 10.8863 5.18382 10.6624 5.45996 10.6624H8.11853C8.28001 10.6624 8.43154 10.7404 8.5254 10.8718L10.0008 12.9374C10.0946 13.0688 10.2462 13.1467 10.4076 13.1467H12.9493C13.294 13.1467 13.5353 12.8062 13.421 12.481L12.1587 8.88828C12.0445 8.56309 12.2858 8.22253 12.6305 8.22253H15.0265C15.1699 8.22253 15.3064 8.28411 15.4013 8.39161L19.4502 12.9777C19.5451 13.0852 19.6816 13.1467 19.825 13.1467H25.96C27.6168 13.1467 28.96 14.4899 28.96 16.1467V18.68C28.96 18.9562 28.7361 19.18 28.46 19.18ZM9.21484 23.3433C8.66256 23.3433 8.21484 23.791 8.21484 24.3433C8.21484 24.8955 8.66256 25.3433 9.21484 25.3433H24.7047C25.257 25.3433 25.7047 24.8955 25.7047 24.3433C25.7047 23.791 25.257 23.3433 24.7047 23.3433H9.21484Z" fill="#1C1B1F"/>
</svg>
