<svg width="32" height="32" viewBox="0 0 32 32" fill="none" xmlns="http://www.w3.org/2000/svg">
<path fill-rule="evenodd" clip-rule="evenodd" d="M15.9999 32C20.923 32 29.5383 21.0154 29.5383 13.5385C29.5383 9.94784 28.112 6.50428 25.573 3.96532C23.0341 1.42637 19.5905 0 15.9999 0C12.4093 0 8.9657 1.42637 6.42675 3.96532C3.8878 6.50428 2.46143 9.94784 2.46143 13.5385C2.46143 21.0154 11.0768 32 15.9999 32ZM12.2334 18.2794C12.1695 18.3433 12.0828 18.3792 11.9924 18.3792C10.8353 18.3792 9.72551 17.9196 8.90729 17.1013C8.08906 16.2831 7.62938 15.1734 7.62938 14.0162V13.3458C7.62938 13.2555 7.66529 13.1688 7.72919 13.1049C7.79309 13.041 7.87977 13.0051 7.97014 13.0051C9.12729 13.0051 10.237 13.4647 11.0553 14.283C11.8735 15.1012 12.3332 16.211 12.3332 17.3681V18.0385C12.3332 18.1288 12.2973 18.2155 12.2334 18.2794ZM11.9924 20.3792C12.6132 20.3792 13.2086 20.1326 13.6476 19.6936C14.0866 19.2547 14.3332 18.6593 14.3332 18.0385V17.3681C14.3332 15.6805 13.6628 14.0621 12.4695 12.8688C11.2762 11.6755 9.65772 11.0051 7.97014 11.0051C7.34934 11.0051 6.75395 11.2517 6.31498 11.6907C5.876 12.1296 5.62938 12.725 5.62938 13.3458V14.0162C5.62938 15.7038 6.29977 17.3222 7.49307 18.5155C8.68637 19.7088 10.3048 20.3792 11.9924 20.3792ZM24.0295 13.0052C22.8724 13.0052 21.7626 13.4649 20.9444 14.2831C20.1262 15.1013 19.6665 16.2111 19.6665 17.3682V18.0386C19.6665 18.129 19.7024 18.2157 19.7663 18.2796C19.8302 18.3435 19.9169 18.3794 20.0073 18.3794C21.1644 18.3794 22.2742 17.9197 23.0924 17.1015C23.9106 16.2832 24.3703 15.1735 24.3703 14.0163V13.346C24.3703 13.2556 24.3344 13.1689 24.2705 13.105C24.2066 13.0411 24.1199 13.0052 24.0295 13.0052ZM19.5302 12.8689C20.7235 11.6756 22.342 11.0052 24.0295 11.0052C24.6503 11.0052 25.2457 11.2518 25.6847 11.6908C26.1237 12.1298 26.3703 12.7252 26.3703 13.346V14.0163C26.3703 15.7039 25.6999 17.3224 24.5066 18.5157C23.3133 19.709 21.6948 20.3794 20.0073 20.3794C19.3865 20.3794 18.7911 20.1328 18.3521 19.6938C17.9131 19.2548 17.6665 18.6594 17.6665 18.0386V17.3682C17.6665 15.6807 18.3369 14.0622 19.5302 12.8689ZM19.0003 25.4575C19.4655 25.1599 19.6013 24.5414 19.3036 24.0762C19.0059 23.611 18.3875 23.4752 17.9223 23.7729C17.0194 24.3507 16.4628 24.5361 15.9962 24.5365C15.5311 24.5369 14.9773 24.3536 14.0804 23.7749C13.6163 23.4755 12.9973 23.609 12.6979 24.0731C12.3985 24.5372 12.532 25.1561 12.9961 25.4555C14.0072 26.1078 14.9573 26.5374 15.9979 26.5365C17.0371 26.5355 17.9879 26.1054 19.0003 25.4575Z" fill="#111827"/>
</svg>
