<svg width="32" height="33" viewBox="0 0 32 33" fill="none" xmlns="http://www.w3.org/2000/svg">
<path fill-rule="evenodd" clip-rule="evenodd" d="M15.9999 32.5C20.923 32.5 29.5383 21.5154 29.5383 14.0385C29.5383 10.4478 28.112 7.00428 25.573 4.46532C23.0341 1.92637 19.5905 0.5 15.9999 0.5C12.4093 0.5 8.9657 1.92637 6.42675 4.46532C3.8878 7.00428 2.46143 10.4478 2.46143 14.0385C2.46143 21.5154 11.0768 32.5 15.9999 32.5ZM12.2334 18.7794C12.1695 18.8433 12.0828 18.8792 11.9924 18.8792C10.8353 18.8792 9.72551 18.4196 8.90729 17.6013C8.08906 16.7831 7.62938 15.6734 7.62938 14.5162V13.8458C7.62938 13.7555 7.66529 13.6688 7.72919 13.6049C7.79309 13.541 7.87977 13.5051 7.97014 13.5051C9.12729 13.5051 10.237 13.9647 11.0553 14.783C11.8735 15.6012 12.3332 16.711 12.3332 17.8681V18.5385C12.3332 18.6288 12.2973 18.7155 12.2334 18.7794ZM11.9924 20.8792C12.6132 20.8792 13.2086 20.6326 13.6476 20.1936C14.0866 19.7547 14.3332 19.1593 14.3332 18.5385V17.8681C14.3332 16.1805 13.6628 14.5621 12.4695 13.3688C11.2762 12.1755 9.65772 11.5051 7.97014 11.5051C7.34934 11.5051 6.75395 11.7517 6.31498 12.1907C5.876 12.6296 5.62938 13.225 5.62938 13.8458V14.5162C5.62938 16.2038 6.29977 17.8222 7.49307 19.0155C8.68637 20.2088 10.3048 20.8792 11.9924 20.8792ZM24.0295 13.5052C22.8724 13.5052 21.7626 13.9649 20.9444 14.7831C20.1262 15.6013 19.6665 16.7111 19.6665 17.8682V18.5386C19.6665 18.629 19.7024 18.7157 19.7663 18.7796C19.8302 18.8435 19.9169 18.8794 20.0073 18.8794C21.1644 18.8794 22.2742 18.4197 23.0924 17.6015C23.9106 16.7832 24.3703 15.6735 24.3703 14.5163V13.846C24.3703 13.7556 24.3344 13.6689 24.2705 13.605C24.2066 13.5411 24.1199 13.5052 24.0295 13.5052ZM19.5302 13.3689C20.7235 12.1756 22.342 11.5052 24.0295 11.5052C24.6503 11.5052 25.2457 11.7518 25.6847 12.1908C26.1237 12.6298 26.3703 13.2252 26.3703 13.846V14.5163C26.3703 16.2039 25.6999 17.8224 24.5066 19.0157C23.3133 20.209 21.6948 20.8794 20.0073 20.8794C19.3865 20.8794 18.7911 20.6328 18.3521 20.1938C17.9131 19.7548 17.6665 19.1594 17.6665 18.5386V17.8682C17.6665 16.1807 18.3369 14.5622 19.5302 13.3689ZM19.0003 25.9575C19.4655 25.6599 19.6013 25.0414 19.3036 24.5762C19.0059 24.111 18.3875 23.9752 17.9223 24.2729C17.0194 24.8507 16.4628 25.0361 15.9962 25.0365C15.5311 25.0369 14.9773 24.8536 14.0804 24.2749C13.6163 23.9755 12.9973 24.109 12.6979 24.5731C12.3985 25.0372 12.532 25.6561 12.9961 25.9555C14.0072 26.6078 14.9573 27.0374 15.9979 27.0365C17.0371 27.0355 17.9879 26.6054 19.0003 25.9575Z" fill="#111827"/>
</svg>
