<svg width="33" height="33" viewBox="0 0 33 33" fill="none" xmlns="http://www.w3.org/2000/svg">
<path fill-rule="evenodd" clip-rule="evenodd" d="M16.96 28.283C20.6523 28.283 27.1138 20.0445 27.1138 14.4368C27.1138 11.7438 26.0441 9.16117 24.1399 7.25695C22.2356 5.35274 19.653 4.28296 16.96 4.28296C14.267 4.28296 11.6844 5.35274 9.78014 7.25695C7.87593 9.16117 6.80615 11.7438 6.80615 14.4368C6.80615 20.0445 13.2677 28.283 16.96 28.283ZM13.9583 17.8158C13.9573 17.8168 13.9559 17.8174 13.9544 17.8174C13.1528 17.8174 12.3841 17.499 11.8173 16.9322C11.2505 16.3654 10.9321 15.5967 10.9321 14.7951V14.2923C10.9321 14.2909 10.9327 14.2894 10.9338 14.2884C10.9348 14.2873 10.9362 14.2868 10.9377 14.2868C11.7392 14.2868 12.508 14.6052 13.0748 15.172C13.6415 15.7387 13.96 16.5075 13.96 17.309V17.8118C13.96 17.8133 13.9594 17.8147 13.9583 17.8158ZM13.9544 19.8174C14.4863 19.8174 14.9964 19.6061 15.3725 19.23C15.7487 18.8538 15.96 18.3437 15.96 17.8118V17.309C15.96 15.977 15.4308 14.6996 14.489 13.7578C13.5471 12.8159 12.2697 12.2868 10.9377 12.2868C10.4058 12.2868 9.89566 12.4981 9.51954 12.8742C9.14342 13.2503 8.93212 13.7604 8.93212 14.2923V14.7951C8.93212 16.1271 9.46125 17.4045 10.4031 18.3464C11.345 19.2883 12.6224 19.8174 13.9544 19.8174ZM22.9822 14.2869C22.1807 14.2869 21.412 14.6053 20.8452 15.1721C20.2784 15.7389 19.96 16.5076 19.96 17.3091V17.8119C19.96 17.8127 19.9601 17.8135 19.9605 17.8143C19.9608 17.8149 19.9611 17.8154 19.9616 17.8159C19.9626 17.8169 19.964 17.8175 19.9655 17.8175C20.7671 17.8175 21.5358 17.4991 22.1026 16.9323C22.6694 16.3655 22.9878 15.5968 22.9878 14.7952V14.2924C22.9878 14.291 22.9872 14.2895 22.9862 14.2885C22.9855 14.2879 22.9847 14.2874 22.9839 14.2871C22.9834 14.287 22.9828 14.2869 22.9822 14.2869ZM19.431 13.7579C20.3728 12.816 21.6502 12.2869 22.9822 12.2869C23.5141 12.2869 24.0243 12.4982 24.4004 12.8743C24.7765 13.2504 24.9878 13.7605 24.9878 14.2924V14.7952C24.9878 16.1272 24.4587 17.4046 23.5168 18.3465C22.575 19.2884 21.2975 19.8175 19.9655 19.8175C19.4336 19.8175 18.9235 19.6062 18.5474 19.2301C18.1713 18.854 17.96 18.3438 17.96 17.8119V17.3091C17.96 15.9771 18.4891 14.6997 19.431 13.7579ZM19.3451 23.5867C19.8103 23.289 19.9461 22.6706 19.6484 22.2054C19.3507 21.7402 18.7323 21.6044 18.2671 21.9021C17.6036 22.3267 17.2354 22.4351 16.957 22.4353C16.6801 22.4356 16.3143 22.3289 15.6559 21.9041C15.1918 21.6047 14.5729 21.7382 14.2735 22.2023C13.9741 22.6664 14.1076 23.2853 14.5717 23.5847C15.3442 24.0831 16.1063 24.4361 16.9588 24.4353C17.8097 24.4346 18.5721 24.0813 19.3451 23.5867Z" fill="#1C1B1F"/>
</svg>
