<svg width="32" height="32" viewBox="0 0 32 32" fill="none" xmlns="http://www.w3.org/2000/svg">
<path fill-rule="evenodd" clip-rule="evenodd" d="M4.23754 24.282C4.23754 24.8342 4.68526 25.282 5.23754 25.282H12.3854C12.9377 25.282 13.3854 24.8342 13.3854 24.282V1.49976C13.3854 0.94747 12.9377 0.499756 12.3854 0.499756H5.23754C4.68526 0.499756 4.23754 0.947471 4.23754 1.49976V24.282ZM-0.000488281 30.5002C-0.000488281 31.0525 0.447227 31.5002 0.999512 31.5002H31C31.5523 31.5002 32 31.0525 32 30.5002C32 29.948 31.5523 29.5002 31 29.5002H0.999512C0.447227 29.5002 -0.000488281 29.948 -0.000488281 30.5002ZM19.6127 25.282C19.0604 25.282 18.6127 24.8342 18.6127 24.282V8.02139C18.6127 7.4691 19.0604 7.02139 19.6127 7.02139H26.7605C27.3128 7.02139 27.7605 7.4691 27.7605 8.02139V24.282C27.7605 24.8342 27.3128 25.282 26.7605 25.282H19.6127Z" fill="#111827"/>
</svg>
