<svg width="33" height="33" viewBox="0 0 33 33" fill="none" xmlns="http://www.w3.org/2000/svg">
<path fill-rule="evenodd" clip-rule="evenodd" d="M27.96 24.9229C27.96 25.4752 28.4077 25.9229 28.96 25.9229C29.5122 25.9229 29.96 25.4752 29.96 24.9229V7.64294C29.96 7.09066 29.5122 6.64294 28.96 6.64294C28.4077 6.64294 27.96 7.09066 27.96 7.64294V24.9229ZM4.95996 20.083C4.95996 20.6353 5.40768 21.083 5.95996 21.083H24.12C24.6722 21.083 25.12 20.6353 25.12 20.083V12.483C25.12 11.9307 24.6722 11.483 24.12 11.483H5.95996C5.40768 11.483 4.95996 11.9307 4.95996 12.483V20.083Z" fill="#1C1B1F"/>
</svg>
