<svg width="32" height="32" viewBox="0 0 32 32" fill="none" xmlns="http://www.w3.org/2000/svg">
<path fill-rule="evenodd" clip-rule="evenodd" d="M16 0.454468C16.5523 0.454468 17 0.902183 17 1.45447V8.72717H31C31.5523 8.72717 32 9.17489 32 9.72717V22.2727C32 22.8249 31.5523 23.2727 31 23.2727H17V30.5454C17 31.0977 16.5523 31.5454 16 31.5454C15.4477 31.5454 15 31.0977 15 30.5454V23.2727H1C0.447715 23.2727 0 22.8249 0 22.2727V9.72717C0 9.17489 0.447715 8.72717 1 8.72717H15V1.45447C15 0.902183 15.4477 0.454468 16 0.454468Z" fill="#111827"/>
</svg>
