<svg width="33" height="33" viewBox="0 0 33 33" fill="none" xmlns="http://www.w3.org/2000/svg">
<path fill-rule="evenodd" clip-rule="evenodd" d="M7.31982 5.28296C6.76754 5.28296 6.31982 4.83524 6.31982 4.28296C6.31982 3.73067 6.76754 3.28296 7.31982 3.28296H24.5998C25.1521 3.28296 25.5998 3.73067 25.5998 4.28296C25.5998 4.83524 25.1521 5.28296 24.5998 5.28296H7.31982ZM12.1597 28.283C11.6074 28.283 11.1597 27.8352 11.1597 27.283V9.12296C11.1597 8.57067 11.6074 8.12296 12.1597 8.12296H19.7597C20.312 8.12296 20.7597 8.57068 20.7597 9.12296V27.283C20.7597 27.8352 20.312 28.283 19.7597 28.283H12.1597Z" fill="#1C1B1F"/>
</svg>
