<svg width="33" height="32" viewBox="0 0 33 32" fill="none" xmlns="http://www.w3.org/2000/svg">
<path fill-rule="evenodd" clip-rule="evenodd" d="M5.34033 2.00024C4.78805 2.00024 4.34033 1.55253 4.34033 1.00024C4.34033 0.447959 4.78805 0.000244141 5.34033 0.000244141H27.6602C28.2124 0.000244141 28.6602 0.447959 28.6602 1.00024C28.6602 1.55253 28.2124 2.00024 27.6602 2.00024H5.34033ZM11.3002 31.9999C10.7479 31.9999 10.3002 31.5522 10.3002 30.9999V6.96012C10.3002 6.40784 10.7479 5.96012 11.3002 5.96012H21.7001C22.2524 5.96012 22.7001 6.40784 22.7001 6.96012V30.9999C22.7001 31.5522 22.2524 31.9999 21.7001 31.9999H11.3002Z" fill="#111827"/>
</svg>
