<svg width="32" height="32" viewBox="0 0 32 32" fill="none" xmlns="http://www.w3.org/2000/svg">
<path fill-rule="evenodd" clip-rule="evenodd" d="M1.5 32.0002C0.947715 32.0002 0.5 31.5525 0.5 31.0002V0.999756C0.5 0.44747 0.947715 -0.000244141 1.5 -0.000244141C2.05228 -0.000244141 2.5 0.44747 2.5 0.999756V31.0002C2.5 31.5525 2.05228 32.0002 1.5 32.0002ZM7.71853 27.7624C7.16625 27.7624 6.71853 27.3147 6.71853 26.7624V19.6146C6.71853 19.0623 7.16625 18.6146 7.71853 18.6146H30.5007C31.053 18.6146 31.5007 19.0623 31.5007 19.6146V26.7624C31.5007 27.3147 31.053 27.7624 30.5007 27.7624H7.71853ZM6.71853 12.3873C6.71853 12.9396 7.16625 13.3873 7.71853 13.3873H23.9791C24.5314 13.3873 24.9791 12.9396 24.9791 12.3873V5.23944C24.9791 4.68715 24.5314 4.23944 23.9791 4.23944H7.71853C7.16625 4.23944 6.71853 4.68715 6.71853 5.23944V12.3873Z" fill="#111827"/>
</svg>
