<svg width="32" height="32" viewBox="0 0 32 32" fill="none" xmlns="http://www.w3.org/2000/svg">
<path fill-rule="evenodd" clip-rule="evenodd" d="M22.2725 32C22.8247 32 23.2725 31.5523 23.2725 31V17H30.5452C31.0975 17 31.5452 16.5523 31.5452 16C31.5452 15.4477 31.0975 15 30.5452 15H23.2725V1C23.2725 0.447715 22.8247 0 22.2725 0H9.72697C9.17468 0 8.72697 0.447715 8.72697 1V15C8.72692 15 8.72688 15 8.72683 15H1.4541C0.901817 15 0.454102 15.4477 0.454102 16C0.454102 16.5523 0.901817 17 1.4541 17H8.72683C8.72688 17 8.72692 17 8.72697 17V31C8.72697 31.5523 9.17468 32 9.72697 32H22.2725Z" fill="#111827"/>
</svg>
