<svg width="32" height="32" viewBox="0 0 32 32" fill="none" xmlns="http://www.w3.org/2000/svg">
<path fill-rule="evenodd" clip-rule="evenodd" d="M30.5002 32.0002C31.0525 32.0002 31.5002 31.5525 31.5002 31.0002V0.999756C31.5002 0.44747 31.0525 -0.000244141 30.5002 -0.000244141C29.948 -0.000244141 29.5002 0.44747 29.5002 0.999756V31.0002C29.5002 31.5525 29.948 32.0002 30.5002 32.0002ZM24.2822 27.7624C24.8345 27.7624 25.2822 27.3147 25.2822 26.7624V19.6146C25.2822 19.0623 24.8345 18.6146 24.2822 18.6146H1.5C0.947714 18.6146 0.5 19.0623 0.5 19.6146V26.7624C0.5 27.3147 0.947715 27.7624 1.5 27.7624H24.2822ZM25.2822 12.3872C25.2822 12.9395 24.8345 13.3872 24.2822 13.3872H8.02163C7.46935 13.3872 7.02163 12.9395 7.02163 12.3872V5.23931C7.02163 4.68703 7.46935 4.23931 8.02163 4.23931H24.2822C24.8345 4.23931 25.2822 4.68703 25.2822 5.23931V12.3872Z" fill="#111827"/>
</svg>
