<svg width="32" height="32" viewBox="0 0 32 32" fill="none" xmlns="http://www.w3.org/2000/svg">
<path fill-rule="evenodd" clip-rule="evenodd" d="M0 1.49988C0 0.947593 0.447715 0.499878 1 0.499878H31.0005C31.5527 0.499878 32.0005 0.947593 32.0005 1.49988C32.0005 2.05216 31.5527 2.49988 31.0005 2.49988H1C0.447715 2.49988 0 2.05216 0 1.49988ZM4.2378 7.71794C4.2378 7.16565 4.68551 6.71794 5.2378 6.71794H12.3857C12.9379 6.71794 13.3857 7.16565 13.3857 7.71794V30.5001C13.3857 31.0524 12.938 31.5001 12.3857 31.5001H5.2378C4.68552 31.5001 4.2378 31.0524 4.2378 30.5001V7.71794ZM19.6129 6.71794C19.0606 6.71794 18.6129 7.16565 18.6129 7.71794V23.9785C18.6129 24.5308 19.0606 24.9785 19.6129 24.9785H26.7608C27.3131 24.9785 27.7608 24.5308 27.7608 23.9785V7.71794C27.7608 7.16565 27.3131 6.71794 26.7608 6.71794H19.6129Z" fill="#111827"/>
</svg>
