<svg width="33" height="33" viewBox="0 0 33 33" fill="none" xmlns="http://www.w3.org/2000/svg">
<path fill-rule="evenodd" clip-rule="evenodd" d="M21.4146 28.283C21.9668 28.283 22.4146 27.8352 22.4146 27.283V17.283H27.8691C28.4214 17.283 28.8691 16.8352 28.8691 16.283C28.8691 15.7307 28.4214 15.283 27.8691 15.283H22.4146V5.28296C22.4146 4.73067 21.9668 4.28296 21.4146 4.28296H12.5054C11.9531 4.28296 11.5054 4.73067 11.5054 5.28296V15.283C11.5054 15.283 11.5054 15.283 11.5053 15.283H6.05078C5.4985 15.283 5.05078 15.7307 5.05078 16.283C5.05078 16.8352 5.4985 17.283 6.05078 17.283H11.5053C11.5054 17.283 11.5054 17.283 11.5054 17.283V27.283C11.5054 27.8352 11.9531 28.283 12.5054 28.283H21.4146Z" fill="#1C1B1F"/>
</svg>
