<svg width="33" height="33" viewBox="0 0 33 33" fill="none" xmlns="http://www.w3.org/2000/svg">
<path fill-rule="evenodd" clip-rule="evenodd" d="M16.96 4.37378C17.5122 4.37378 17.96 4.82149 17.96 5.37378V10.8283H27.96C28.5122 10.8283 28.96 11.276 28.96 11.8283V20.7374C28.96 21.2897 28.5122 21.7374 27.96 21.7374H17.96V27.192C17.96 27.7443 17.5122 28.192 16.96 28.192C16.4077 28.192 15.96 27.7443 15.96 27.192V21.7374H5.95996C5.40768 21.7374 4.95996 21.2897 4.95996 20.7374V11.8283C4.95996 11.276 5.40768 10.8283 5.95996 10.8283H15.96V5.37378C15.96 4.82149 16.4077 4.37378 16.96 4.37378Z" fill="#1C1B1F"/>
</svg>
