<svg width="32" height="32" viewBox="0 0 32 32" fill="none" xmlns="http://www.w3.org/2000/svg">
<path fill-rule="evenodd" clip-rule="evenodd" d="M2.14014 27.0592C2.14014 27.6115 1.69242 28.0592 1.14014 28.0592C0.587852 28.0592 0.140137 27.6115 0.140137 27.0592V4.9408C0.140137 4.38851 0.587852 3.9408 1.14014 3.9408C1.69242 3.9408 2.14014 4.38851 2.14014 4.9408V27.0592ZM31.8601 21.144C31.8601 21.6963 31.4124 22.144 30.8601 22.144H7.05534C6.50305 22.144 6.05534 21.6963 6.05534 21.144V10.856C6.05534 10.3038 6.50305 9.85604 7.05534 9.85604H30.8601C31.4124 9.85604 31.8601 10.3038 31.8601 10.856V21.144Z" fill="#111827"/>
</svg>
