<svg width="32" height="32" viewBox="0 0 32 32" fill="none" xmlns="http://www.w3.org/2000/svg">
<path fill-rule="evenodd" clip-rule="evenodd" d="M4.23803 27.3911C4.23803 27.9434 4.68574 28.3911 5.23803 28.3911H12.3859C12.9382 28.3911 13.3859 27.9434 13.3859 27.3911V16.992C13.4272 16.9972 13.4694 16.9999 13.5121 16.9999H18.4675C18.517 16.9999 18.5656 16.9963 18.6132 16.9893V24.1304C18.6132 24.6826 19.0609 25.1304 19.6132 25.1304H26.761C27.3133 25.1304 27.761 24.6826 27.761 24.1304V16.9718C27.8368 16.9902 27.9158 16.9999 27.9972 16.9999H31.0005C31.5527 16.9999 32.0005 16.5522 32.0005 15.9999C32.0005 15.4476 31.5527 14.9999 31.0005 14.9999H27.9972C27.9158 14.9999 27.8368 15.0096 27.761 15.0279V7.86979C27.761 7.3175 27.3133 6.86979 26.761 6.86979H19.6132C19.0609 6.86979 18.6132 7.3175 18.6132 7.86979V15.0104C18.5656 15.0035 18.517 14.9999 18.4675 14.9999H13.5121C13.4694 14.9999 13.4272 15.0026 13.3859 15.0078V4.60889C13.3859 4.0566 12.9382 3.60889 12.3859 3.60889H5.23803C4.68574 3.60889 4.23803 4.0566 4.23803 4.60889V15.0133C4.1846 15.0045 4.12974 14.9999 4.07381 14.9999H1C0.447715 14.9999 0 15.4476 0 15.9999C0 16.5522 0.447715 16.9999 1 16.9999H4.07381C4.12974 16.9999 4.1846 16.9953 4.23803 16.9865V27.3911Z" fill="#111827"/>
</svg>
