<svg width="33" height="33" viewBox="0 0 33 33" fill="none" xmlns="http://www.w3.org/2000/svg">
<path fill-rule="evenodd" clip-rule="evenodd" d="M5.95996 24.9229C5.95996 25.4752 5.51225 25.9229 4.95996 25.9229C4.40768 25.9229 3.95996 25.4752 3.95996 24.9229V7.64294C3.95996 7.09066 4.40768 6.64294 4.95996 6.64294C5.51225 6.64294 5.95996 7.09066 5.95996 7.64294V24.9229ZM28.96 20.083C28.96 20.6353 28.5122 21.083 27.96 21.083H9.79996C9.24768 21.083 8.79996 20.6353 8.79996 20.083V12.483C8.79996 11.9307 9.24768 11.483 9.79996 11.483H27.96C28.5122 11.483 28.96 11.9307 28.96 12.483V20.083Z" fill="#1C1B1F"/>
</svg>
