<svg width="33" height="33" viewBox="0 0 33 33" fill="none" xmlns="http://www.w3.org/2000/svg">
<path fill-rule="evenodd" clip-rule="evenodd" d="M13.1602 4.28296C12.6079 4.28296 12.1602 4.73068 12.1602 5.28296V23.443C12.1602 23.9952 12.6079 24.443 13.1602 24.443H20.7602C21.3124 24.443 21.7602 23.9952 21.7602 23.443V5.28296C21.7602 4.73067 21.3124 4.28296 20.7602 4.28296H13.1602ZM8.31982 27.283C7.76754 27.283 7.31982 27.7307 7.31982 28.283C7.31982 28.8352 7.76754 29.283 8.31982 29.283H25.5998C26.1521 29.283 26.5998 28.8352 26.5998 28.283C26.5998 27.7307 26.1521 27.283 25.5998 27.283H8.31982Z" fill="#1C1B1F"/>
</svg>
