<svg width="32" height="32" viewBox="0 0 32 32" fill="none" xmlns="http://www.w3.org/2000/svg">
<path fill-rule="evenodd" clip-rule="evenodd" d="M29.9996 27.1597C29.9996 27.712 30.4473 28.1597 30.9996 28.1597C31.5518 28.1597 31.9996 27.712 31.9996 27.1597V4.84009C31.9996 4.2878 31.5518 3.84009 30.9996 3.84009C30.4473 3.84009 29.9996 4.2878 29.9996 4.84009V27.1597ZM0 21.1999C0 21.7522 0.447715 22.1999 0.999999 22.1999H25.0396C25.5919 22.1999 26.0396 21.7522 26.0396 21.1999V10.8001C26.0396 10.2478 25.5919 9.8001 25.0396 9.8001H1C0.447715 9.8001 0 10.2478 0 10.8001V21.1999Z" fill="#111827"/>
</svg>
