<svg width="32" height="32" viewBox="0 0 32 32" fill="none" xmlns="http://www.w3.org/2000/svg">
<path fill-rule="evenodd" clip-rule="evenodd" d="M10.8007 0.000244141C10.2484 0.000244141 9.80069 0.447959 9.80069 1.00024V25.04C9.80069 25.5923 10.2484 26.04 10.8007 26.04H21.2006C21.7529 26.04 22.2006 25.5923 22.2006 25.04V1.00024C22.2006 0.447959 21.7529 0.000244141 21.2006 0.000244141H10.8007ZM4.84033 29.9999C4.28805 29.9999 3.84033 30.4476 3.84033 30.9999C3.84033 31.5522 4.28805 31.9999 4.84033 31.9999H27.1602C27.7124 31.9999 28.1602 31.5522 28.1602 30.9999C28.1602 30.4476 27.7124 29.9999 27.1602 29.9999H4.84033Z" fill="#111827"/>
</svg>
