<svg width="33" height="32" viewBox="0 0 33 32" fill="none" xmlns="http://www.w3.org/2000/svg">
<path fill-rule="evenodd" clip-rule="evenodd" d="M13.2662 7.7924L9.93101 7.31122C9.67287 7.27398 9.48467 7.04368 9.51824 6.78504C10.077 2.47965 14.4527 0.785899 19.1708 1.66805C23.1461 2.41135 23.9117 5.62473 23.8064 7.09385V11.7119C23.6097 14.1702 23.9352 15.6744 24.1225 16.1193C24.2551 16.4773 24.5102 16.8521 24.7828 17.1818C25.1789 17.6611 25.1766 18.3978 24.6985 18.7955L22.1996 20.8739C22.0544 20.9947 21.8528 21.0225 21.7037 20.9064C21.0903 20.4286 20.1025 19.197 19.6273 18.56C17.6782 20.3335 16.6949 20.8603 14.3244 21.0885C11.9539 21.3168 8.49465 19.2975 8.88095 15.5398C9.26725 11.7822 11.3392 10.7286 12.9371 10.0087C14.2154 9.43273 17.4967 9.07804 18.9775 8.97268C19.3287 6.20535 18.0469 5.26761 17.3621 5.14466C15.1006 4.5256 14.0615 6.24625 13.739 7.46318C13.683 7.67474 13.4828 7.82366 13.2662 7.7924ZM13.8599 14.6089C14.1946 11.9764 17.4106 11.5601 18.9768 11.681C19.3277 15.8259 17.6392 16.9639 16.975 17.4116L16.9133 17.4533C16.2998 17.8716 13.4416 17.8994 13.8599 14.6089ZM26.3978 24.7958C27.2237 24.6971 29.0562 24.534 29.7792 24.6712C30.683 24.8426 30.6207 25.4815 30.4493 26.1048C30.2779 26.7281 29.8104 28.1773 29.5611 28.8473C29.3616 29.3834 29.7896 29.2577 30.0285 29.1278C30.7194 28.411 32.0886 26.4445 32.0387 24.3128C32.0491 24.0582 31.8673 23.5274 31.057 23.4401C30.0441 23.3311 27.7223 23.3311 26.3978 24.2505C26.1537 24.4166 25.8119 24.7583 26.3978 24.7958ZM0.396972 23.9914C4.28717 26.7669 15.3702 31.001 28.5805 25.7335C28.9054 25.7424 29.4504 25.9012 29.0315 26.4657C24.1006 29.9512 11.4375 34.4367 0.232262 24.495C0.0559028 24.3469 -0.158057 24.039 0.396972 23.9914Z" fill="#111827"/>
</svg>
