<svg width="33" height="33" viewBox="0 0 33 33" fill="none" xmlns="http://www.w3.org/2000/svg">
<path fill-rule="evenodd" clip-rule="evenodd" d="M19.9598 8.2829C19.9598 9.59423 19.1184 10.7091 17.9461 11.117C17.9551 11.171 17.9598 11.2264 17.9598 11.2829V26.2374C20.5105 26.0046 22.9121 24.8869 24.738 23.0611C26.5638 21.2352 27.6815 18.8335 27.9143 16.2829H25.9598C25.4075 16.2829 24.9598 15.8352 24.9598 15.2829C24.9598 14.7306 25.4075 14.2829 25.9598 14.2829H28.4598C29.2769 14.2829 29.9848 14.9532 29.9485 15.8245C29.8131 19.0754 28.4622 22.1653 26.1522 24.4753C23.7142 26.9133 20.4076 28.2829 16.9598 28.2829C13.512 28.2829 10.2054 26.9133 7.7674 24.4753C5.45738 22.1653 4.1065 19.0754 3.97106 15.8245C3.93477 14.9532 4.64267 14.2829 5.45979 14.2829H7.95979C8.51207 14.2829 8.95979 14.7306 8.95979 15.2829C8.95979 15.8352 8.51207 16.2829 7.95979 16.2829H6.0053C6.23805 18.8335 7.35575 21.2352 9.18161 23.0611C11.0075 24.8869 13.4091 26.0046 15.9598 26.2374V11.2829C15.9598 11.2264 15.9645 11.171 15.9735 11.117C14.8011 10.7091 13.9598 9.59423 13.9598 8.2829C13.9598 6.62604 15.3029 5.2829 16.9598 5.2829C18.6166 5.2829 19.9598 6.62604 19.9598 8.2829Z" fill="#1C1B1F"/>
</svg>
