<svg width="32" height="32" viewBox="0 0 32 32" fill="none" xmlns="http://www.w3.org/2000/svg">
<path fill-rule="evenodd" clip-rule="evenodd" d="M17.0017 5.90784C18.1942 5.49839 19.0512 4.36722 19.0512 3.0359C19.0512 1.35929 17.692 0.00012207 16.0154 0.00012207C14.3388 0.00012207 12.9796 1.35929 12.9796 3.0359C12.9796 4.36703 13.8363 5.49807 15.0285 5.90766C15.0197 5.96103 15.0151 6.01582 15.0151 6.07169V11.1432H9.9436C9.39132 11.1432 8.9436 11.5909 8.9436 12.1432C8.9436 12.6955 9.39132 13.1432 9.9436 13.1432H15.0151V25.6148C14.1746 24.5221 12.9292 24.0079 11.0814 23.7812C8.4977 23.3525 6.93438 22.792 5.87748 21.8365C4.83391 20.8931 4.13657 19.4274 3.63982 16.8137C3.5367 16.2711 3.01326 15.9149 2.47069 16.018C1.92812 16.1211 1.57187 16.6446 1.675 17.1871C2.20154 19.9576 3.01157 21.9418 4.53628 23.3202C6.04483 24.6839 8.10514 25.3163 10.776 25.7579C10.7902 25.7602 10.8045 25.7623 10.8189 25.764C12.582 25.9776 13.1824 26.4165 13.5665 27.0317C13.7962 27.3996 13.9859 27.8952 14.189 28.6126C14.3155 29.0592 14.4345 29.5423 14.5712 30.0971C14.6578 30.449 14.7516 30.8296 14.8589 31.2482C14.971 31.6852 15.3619 31.9931 15.8131 31.9997C16.2642 32.0063 16.6639 31.7099 16.7886 31.2762C16.8491 31.0659 16.9079 30.864 16.9654 30.6702C16.9713 30.6522 16.9767 30.6339 16.9816 30.6155C17.4855 28.9209 17.8853 27.8523 18.412 27.1293C18.9319 26.4155 19.6205 25.9846 20.9915 25.7583C23.8546 25.3001 25.9621 24.6047 27.4774 23.2125C29.0038 21.8099 29.7804 19.8386 30.3224 17.2018C30.4336 16.6608 30.0852 16.1321 29.5442 16.0209C29.0032 15.9097 28.4746 16.2581 28.3634 16.7991C27.8487 19.3031 27.1828 20.7671 26.1242 21.7398C25.0548 22.7223 23.4356 23.3419 20.6732 23.7838L20.6685 23.7846C19.0633 24.0492 17.8987 24.6077 17.0151 25.6694V13.1432H22.0867C22.639 13.1432 23.0867 12.6955 23.0867 12.1432C23.0867 11.5909 22.639 11.1432 22.0867 11.1432H17.0151V6.07169C17.0151 6.01588 17.0105 5.96115 17.0017 5.90784Z" fill="#111827"/>
</svg>
