<svg width="33" height="33" viewBox="0 0 33 33" fill="none" xmlns="http://www.w3.org/2000/svg">
<path fill-rule="evenodd" clip-rule="evenodd" d="M17.9488 8.77133C18.759 8.40042 19.3219 7.58254 19.3219 6.6332C19.3219 5.33516 18.2696 4.2829 16.9716 4.2829C15.6735 4.2829 14.6213 5.33516 14.6213 6.6332C14.6213 7.5824 15.184 8.40017 15.994 8.77116C15.9792 8.8396 15.9714 8.91065 15.9714 8.98352V12.6841H12.2707C11.7184 12.6841 11.2707 13.1318 11.2707 13.6841C11.2707 14.2364 11.7184 14.6841 12.2707 14.6841H15.9714V23.5363C15.2958 22.925 14.3846 22.6185 13.1842 22.4707C11.1954 22.1403 10.0416 21.7147 9.27447 21.0212C8.52086 20.3399 7.9937 19.2636 7.61248 17.2579C7.50936 16.7153 6.98592 16.359 6.44335 16.4622C5.90077 16.5653 5.54453 17.0887 5.64765 17.6313C6.05867 19.7939 6.69852 21.3886 7.93327 22.5048C9.15186 23.6064 10.8024 24.1041 12.8786 24.4474C12.8929 24.4497 12.9072 24.4518 12.9215 24.4535C14.254 24.6149 14.6385 24.9366 14.8844 25.3304C15.045 25.5876 15.185 25.9465 15.3406 26.4962C15.4376 26.839 15.5281 27.2064 15.633 27.6322L15.6331 27.6325C15.7002 27.9052 15.7733 28.2018 15.8578 28.5312C15.9698 28.9683 16.3607 29.2762 16.8119 29.2828C17.2631 29.2894 17.6627 28.993 17.7875 28.5593C17.8349 28.3944 17.8809 28.2367 17.9256 28.0858C17.9287 28.076 17.9316 28.0662 17.9344 28.0563C18.3256 26.7407 18.6256 25.9466 19.0098 25.4193C19.3684 24.9269 19.8412 24.6162 20.8606 24.4478C23.0885 24.0912 24.7751 23.5443 25.9985 22.4202C27.2331 21.2858 27.8468 19.7023 28.2695 17.6459C28.3807 17.1049 28.0323 16.5763 27.4913 16.4651C26.9503 16.3539 26.4216 16.7023 26.3104 17.2432C25.9151 19.1669 25.412 20.243 24.6453 20.9475C23.8678 21.6619 22.6693 22.133 20.5422 22.4733L20.5375 22.4741C19.4776 22.6488 18.6404 22.9885 17.9714 23.5945V14.6841H21.6719C22.2242 14.6841 22.6719 14.2364 22.6719 13.6841C22.6719 13.1318 22.2242 12.6841 21.6719 12.6841H17.9714V8.98352C17.9714 8.91071 17.9636 8.83972 17.9488 8.77133Z" fill="#1C1B1F"/>
</svg>
