<svg width="33" height="33" viewBox="0 0 33 33" fill="none" xmlns="http://www.w3.org/2000/svg">
<path fill-rule="evenodd" clip-rule="evenodd" d="M4.96021 23.6677V21.0287C4.96021 14.3965 10.2856 8.92146 16.9178 8.89851C18.4972 8.89293 20.0622 9.19919 21.523 9.79974C22.9838 10.4003 24.3117 11.2833 25.4305 12.3982C26.5493 13.513 27.437 14.8378 28.0427 16.2964C28.6484 17.7551 28.9602 19.319 28.9602 20.8984V23.6677C28.9602 23.9125 28.863 24.1473 28.6898 24.3204C28.5167 24.4935 28.2819 24.5907 28.0371 24.5907H5.88328C5.63847 24.5907 5.40368 24.4935 5.23057 24.3204C5.05746 24.1473 4.96021 23.9125 4.96021 23.6677ZM21.1141 20.8984C21.8788 20.8984 22.4987 20.2785 22.4987 19.5138C22.4987 18.7491 21.8788 18.1292 21.1141 18.1292C20.3494 18.1292 19.7295 18.7491 19.7295 19.5138C19.7295 20.2785 20.3494 20.8984 21.1141 20.8984ZM14.1909 19.5138C14.1909 20.2785 13.5709 20.8984 12.8062 20.8984C12.0415 20.8984 11.4216 20.2785 11.4216 19.5138C11.4216 18.7491 12.0415 18.1292 12.8062 18.1292C13.5709 18.1292 14.1909 18.7491 14.1909 19.5138Z" fill="#1C1B1F"/>
<path d="M5.8833 7.97534L9.46861 11.5606" stroke="#1C1B1F" stroke-width="2" stroke-linecap="round" stroke-linejoin="round"/>
<path d="M28.0372 7.97534L24.4722 11.5403" stroke="#1C1B1F" stroke-width="2" stroke-linecap="round" stroke-linejoin="round"/>
</svg>
