<svg width="32" height="32" viewBox="0 0 32 32" fill="none" xmlns="http://www.w3.org/2000/svg">
<path fill-rule="evenodd" clip-rule="evenodd" d="M0.523606 4.21599C0.91413 3.82546 1.5473 3.82546 1.93782 4.21599L6.71823 8.9964C6.7504 9.02857 6.77993 9.0624 6.8068 9.0976C9.3897 7.25601 12.5373 6.16569 15.9434 6.15391C18.0493 6.14646 20.136 6.55481 22.0837 7.35554C23.1916 7.81102 24.2422 8.38835 25.2167 9.07511C25.2445 9.03826 25.2752 9.00289 25.3088 8.96932L30.0621 4.21599C30.4526 3.82546 31.0858 3.82546 31.4763 4.21599C31.8668 4.60651 31.8668 5.23968 31.4763 5.6302L26.7779 10.3286C26.9533 10.4884 27.1253 10.6523 27.2937 10.8201C28.7854 12.3066 29.969 14.0729 30.7767 16.0178C31.5843 17.9627 32 20.0479 32 22.1538V25.8461C32 26.1725 31.8703 26.4856 31.6395 26.7164C31.4087 26.9472 31.0957 27.0769 30.7692 27.0769H1.23077C0.904349 27.0769 0.591298 26.9472 0.360484 26.7164C0.12967 26.4856 0 26.1725 0 25.8461V22.3275C0 17.6084 2.02216 13.3287 5.25214 10.3587L0.523606 5.6302C0.133082 5.23968 0.133082 4.60651 0.523606 4.21599ZM21.5385 22.1537C22.5581 22.1537 23.3847 21.3271 23.3847 20.3075C23.3847 19.2879 22.5581 18.4614 21.5385 18.4614C20.5189 18.4614 19.6924 19.2879 19.6924 20.3075C19.6924 21.3271 20.5189 22.1537 21.5385 22.1537ZM12.3075 20.3075C12.3075 21.3271 11.481 22.1537 10.4614 22.1537C9.44179 22.1537 8.61523 21.3271 8.61523 20.3075C8.61523 19.2879 9.44179 18.4614 10.4614 18.4614C11.481 18.4614 12.3075 19.2879 12.3075 20.3075Z" fill="#111827"/>
</svg>
