<svg width="32" height="34" viewBox="0 0 32 34" fill="none" xmlns="http://www.w3.org/2000/svg">
<path fill-rule="evenodd" clip-rule="evenodd" d="M0.840426 7.56693L15.8645 1.02413C15.9923 0.968476 16.1375 0.968692 16.2652 1.02472L31.1607 7.56432C31.3657 7.65433 31.4859 7.8697 31.4548 8.09146L28.9069 26.2908C28.8843 26.4524 28.7842 26.5928 28.6388 26.667L16.2888 32.9631C16.148 33.0349 15.9815 33.0359 15.8398 32.9657L3.12274 26.6678C2.97259 26.5934 2.86966 26.4488 2.8486 26.2825L0.544024 8.08818C0.516121 7.86789 0.636844 7.65559 0.840426 7.56693ZM16.0342 12.1744L18.4614 16.8407H13.6948L16.0342 12.1744ZM21.2042 22.1135L19.8546 19.5191H12.352L11.058 22.1002C10.8105 22.5939 10.2096 22.7935 9.71591 22.5459C9.2222 22.2984 9.02262 21.6975 9.27013 21.2038L15.0361 9.70277C15.4384 8.90017 16.5809 8.89163 16.9953 9.68814L22.9785 21.1905C23.2333 21.6805 23.0427 22.2843 22.5528 22.5391C22.0628 22.794 21.459 22.6034 21.2042 22.1135Z" fill="#111827"/>
</svg>
