<svg width="33" height="33" viewBox="0 0 33 33" fill="none" xmlns="http://www.w3.org/2000/svg">
<path fill-rule="evenodd" clip-rule="evenodd" d="M5.72556 9.33741L16.8067 4.51173C16.9345 4.45608 17.0797 4.4563 17.2073 4.51233L28.1916 9.33479C28.3967 9.42481 28.5168 9.64017 28.4858 9.86194L26.6056 23.2916C26.583 23.4532 26.4829 23.5936 26.3376 23.6677L17.231 28.3103C17.0901 28.3821 16.9236 28.3831 16.782 28.3129L7.40372 23.6685C7.25356 23.5941 7.15064 23.4495 7.12958 23.2833L5.42916 9.85866C5.40125 9.63837 5.52198 9.42607 5.72556 9.33741ZM16.9883 13.3729L18.5111 16.3004H15.5206L16.9883 13.3729ZM20.62 20.3546L19.5515 18.3004H14.5197L15.3884 16.5641L13.4948 20.3413C13.2472 20.835 12.6463 21.0346 12.1526 20.7871C11.6589 20.5396 11.4593 19.9387 11.7069 19.445L15.9902 10.9012C16.3926 10.0986 17.5351 10.0901 17.9494 10.8866L22.3943 19.4317C22.6492 19.9216 22.4586 20.5254 21.9686 20.7803C21.4787 21.0352 20.8749 20.8446 20.62 20.3546Z" fill="#1C1B1F"/>
</svg>
