<svg width="33" height="33" viewBox="0 0 33 33" fill="none" xmlns="http://www.w3.org/2000/svg">
<path fill-rule="evenodd" clip-rule="evenodd" d="M5.72556 9.19593L16.8067 4.37025C16.9345 4.3146 17.0797 4.31482 17.2073 4.37085L28.1916 9.19331C28.3967 9.28333 28.5168 9.49869 28.4858 9.72046L26.6056 23.1501C26.583 23.3117 26.4829 23.4521 26.3376 23.5262L17.231 28.1688C17.0901 28.2406 16.9236 28.2416 16.782 28.1715L7.40372 23.527C7.25356 23.4527 7.15064 23.308 7.12958 23.1418L5.42916 9.71718C5.40125 9.49689 5.52198 9.28459 5.72556 9.19593ZM16.9883 13.2314L18.5111 16.159H15.5206L16.9883 13.2314ZM20.62 20.2131L19.5515 18.159H14.5197L15.3884 16.4227L13.4948 20.1998C13.2472 20.6936 12.6463 20.8931 12.1526 20.6456C11.6589 20.3981 11.4593 19.7972 11.7069 19.3035L15.9902 10.7597C16.3926 9.95712 17.5351 9.94859 17.9494 10.7451L22.3943 19.2902C22.6492 19.7802 22.4586 20.384 21.9686 20.6388C21.4787 20.8937 20.8749 20.7031 20.62 20.2131Z" fill="#1C1B1F"/>
</svg>
