<svg width="32" height="33" viewBox="0 0 32 33" fill="none" xmlns="http://www.w3.org/2000/svg">
<path fill-rule="evenodd" clip-rule="evenodd" d="M17.014 2.40503C17.1927 2.40503 17.3577 2.50033 17.447 2.65503L31.8775 27.6492C31.967 27.8043 31.9668 27.9953 31.8769 28.1502L31.03 29.6096C30.9406 29.7638 30.7758 29.8587 30.5976 29.8587H18.9017C18.6255 29.8587 18.4017 29.6348 18.4017 29.3587V24.6412C18.4017 24.3651 18.6255 24.1412 18.9017 24.1412H21.8452C22.2301 24.1412 22.4706 23.7246 22.2782 23.3912L16.6778 13.6911C16.4854 13.3578 16.0042 13.3578 15.8118 13.6911L10.2114 23.3912C10.019 23.7246 10.2595 24.1412 10.6444 24.1412H13.5268C13.8029 24.1412 14.0268 24.3651 14.0268 24.6412V29.3587C14.0268 29.6348 13.8029 29.8587 13.5268 29.8587H1.58268C1.418 29.8587 1.26388 29.7776 1.17061 29.6418L0.143593 28.1474C0.0344324 27.9886 0.0262855 27.7812 0.122652 27.6142L14.5329 2.65503C14.6222 2.50033 14.7872 2.40503 14.9659 2.40503H17.014Z" fill="#111827"/>
</svg>
