<svg width="32" height="33" viewBox="0 0 32 33" fill="none" xmlns="http://www.w3.org/2000/svg">
<path fill-rule="evenodd" clip-rule="evenodd" d="M3.24538 6.83834C6.13388 3.03108 10.6879 0.556857 15.8223 0.500977L19.1207 9.73659L13.778 8.76122L13.7557 8.75713L3.24538 6.83834ZM2.05276 8.65367L11.7029 10.4154L1.25295 22.7175C0.446089 20.8061 0 18.7051 0 16.5C0 13.6489 0.745723 10.972 2.05276 8.65367ZM8.58215 17.1786L2.23132 24.655C4.69853 28.8116 8.99445 31.7554 14.0103 32.3775L8.58215 17.1786ZM10.0773 15.4185L12.1023 21.0886L18.024 22.1697L21.9222 17.5807L19.8974 11.9115L13.9748 10.8302L10.0773 15.4185ZM23.7948 18.4654C23.812 18.4466 23.8284 18.4273 23.8441 18.4074L30.7466 10.2815C31.5537 12.1932 32 14.2945 32 16.5C32 19.3511 31.2543 22.0281 29.9472 24.3464L20.2959 22.5844L23.7948 18.4654ZM29.7681 8.34411L23.4173 15.8205L17.9894 0.622478C23.005 1.24452 27.3008 4.1879 29.7681 8.34411ZM16.1775 32.499L12.879 23.2634L28.7546 26.1617C25.866 29.969 21.3119 32.4432 16.1775 32.499Z" fill="#111827"/>
</svg>
