<svg width="33" height="33" viewBox="0 0 33 33" fill="none" xmlns="http://www.w3.org/2000/svg">
<path d="M18.7097 6.69543C18.9832 5.98532 19.4654 5.37472 20.0928 4.94407C20.7202 4.51342 21.4633 4.28293 22.2243 4.28296" stroke="#1C1B1F" stroke-width="2" stroke-linecap="round" stroke-linejoin="round"/>
<path d="M28.1669 22.0399C26.6873 25.6538 24.0014 28.283 21.7537 28.283H13.2831C9.98896 28.283 5.75366 22.6359 5.75366 16.5183C5.75368 15.1556 6.14811 13.8221 6.88934 12.6786C7.63057 11.5352 8.68692 10.6308 9.93087 10.0745C11.1748 9.51818 12.5532 9.33383 13.8996 9.54368C15.246 9.75353 16.5029 10.3486 17.5186 11.2571L17.5184 11.2569C18.2374 10.6138 19.0807 10.1249 19.996 9.8204C20.9114 9.51589 21.8794 9.40223 22.8404 9.48641C23.8014 9.57059 24.7349 9.85083 25.5834 10.3098C26.4318 10.7689 27.1772 11.3969 27.7735 12.1552L27.7735 12.1552C26.9091 12.678 26.2006 13.423 25.722 14.3126C25.2434 15.2023 25.0121 16.204 25.0522 17.2134C25.0924 18.2228 25.4024 19.203 25.9501 20.0518C26.4978 20.9007 27.2632 21.5871 28.1663 22.0396L28.1669 22.0399Z" fill="#1C1B1F"/>
</svg>
