<svg width="32" height="32" viewBox="0 0 32 32" fill="none" xmlns="http://www.w3.org/2000/svg">
<path fill-rule="evenodd" clip-rule="evenodd" d="M16 2.49988C12.9705 2.49988 10.0229 3.48223 7.59941 5.29941C5.17597 7.1166 3.40753 9.67056 2.55951 12.5779C1.71149 15.4852 1.82962 18.5891 2.89618 21.4236C3.96273 24.2581 5.92019 26.6703 8.47476 28.2982C8.94052 28.595 9.07749 29.2131 8.78069 29.6789C8.4839 30.1447 7.86573 30.2816 7.39997 29.9848C4.48048 28.1245 2.2433 25.3676 1.02431 22.1279C-0.194692 18.8883 -0.329711 15.3407 0.639522 12.0179C1.60875 8.69497 3.62993 5.77607 6.39958 3.69929C9.16922 1.62251 12.5379 0.499878 16 0.499878C19.4621 0.499878 22.8307 1.62251 25.6004 3.69929C28.37 5.77607 30.3912 8.69497 31.3604 12.0179C32.3297 15.3407 32.1947 18.8883 30.9757 22.1279C29.7567 25.3676 27.5195 28.1245 24.6 29.9848C24.1342 30.2816 23.5161 30.1447 23.2193 29.6789C22.9225 29.2131 23.0595 28.595 23.5252 28.2982C26.0798 26.6703 28.0372 24.2581 29.1038 21.4236C30.1703 18.5891 30.2885 15.4852 29.4405 12.5779C28.5924 9.67056 26.824 7.1166 24.4006 5.29941C21.9771 3.48223 19.0294 2.49988 16 2.49988ZM11.8048 8.56526C13.0981 7.88412 14.5379 7.52816 15.9998 7.52816C17.4616 7.52816 18.9014 7.88412 20.1947 8.56526C21.488 9.2464 22.5959 10.2322 23.4225 11.4374C24.2492 12.6426 24.7697 14.0309 24.9392 15.4823C25.1087 16.9338 24.922 18.4046 24.3952 19.7677C24.1962 20.2829 24.4524 20.8619 24.9676 21.061C25.4827 21.26 26.0617 21.0038 26.2608 20.4886C26.9047 18.8225 27.1329 17.0245 26.9257 15.2504C26.7186 13.4762 26.0823 11.7792 25.0718 10.3061C24.0614 8.83302 22.7074 7.62815 21.1267 6.79568C19.546 5.9632 17.7863 5.52816 15.9998 5.52816C14.2132 5.52816 12.4535 5.9632 10.8728 6.79568C9.29216 7.62815 7.93807 8.83302 6.92767 10.3061C5.91726 11.7792 5.28096 13.4762 5.0738 15.2504C4.86664 17.0245 5.09486 18.8225 5.73871 20.4886C5.93778 21.0038 6.51678 21.26 7.03194 21.061C7.5471 20.8619 7.80334 20.2829 7.60427 19.7677C7.07753 18.4046 6.89083 16.9338 7.0603 15.4823C7.22978 14.0309 7.75033 12.6426 8.57698 11.4374C9.40363 10.2322 10.5115 9.2464 11.8048 8.56526ZM19.75 15.2543C19.75 17.3248 18.071 19.0033 15.9999 19.0033C13.9288 19.0033 12.2499 17.3248 12.2499 15.2543C12.2499 13.1838 13.9288 11.5053 15.9999 11.5053C18.071 11.5053 19.75 13.1838 19.75 15.2543ZM13.9857 19.0035C12.7235 19.0035 11.7769 20.1582 12.0245 21.3958L13.7244 29.8925C13.9114 30.8273 14.7322 31.5001 15.6855 31.5001H16.3138C17.2671 31.5001 18.0879 30.8273 18.2749 29.8925L19.9747 21.3958C20.2223 20.1582 19.2757 19.0035 18.0136 19.0035H13.9857Z" fill="#111827"/>
</svg>
