<svg width="33" height="33" viewBox="0 0 33 33" fill="none" xmlns="http://www.w3.org/2000/svg">
<path d="M16.9602 18.2857C18.6171 18.2857 19.9602 16.9429 19.9602 15.2865C19.9602 13.6301 18.6171 12.2874 16.9602 12.2874C15.3034 12.2874 13.9602 13.6301 13.9602 15.2865C13.9602 16.9429 15.3034 18.2857 16.9602 18.2857Z" fill="#1C1B1F"/>
<path d="M9.49771 19.1855C9.02947 17.9738 8.86351 16.6663 9.01416 15.3761C9.16482 14.0859 9.62755 12.8518 10.3624 11.7805C11.0972 10.7092 12.0819 9.83293 13.2315 9.2275C14.3811 8.62206 15.6609 8.30566 16.9602 8.30566C18.2595 8.30566 19.5393 8.62206 20.6889 9.2275C21.8385 9.83293 22.8232 10.7092 23.5581 11.7805C24.2929 12.8518 24.7556 14.0859 24.9063 15.3761C25.0569 16.6663 24.8909 17.9738 24.4227 19.1855" stroke="#1C1B1F" stroke-width="2" stroke-linecap="round" stroke-linejoin="round"/>
<path d="M10.5102 26.3959C8.32062 25.0007 6.64279 22.933 5.72858 20.5034C4.81438 18.0738 4.71312 15.4133 5.44001 12.9212C6.1669 10.4292 7.68272 8.24007 9.75992 6.6825C11.8371 5.12494 14.3636 4.28296 16.9602 4.28296C19.5568 4.28296 22.0833 5.12494 24.1605 6.6825C26.2377 8.24007 27.7535 10.4292 28.4804 12.9212C29.2073 15.4133 29.106 18.0738 28.1918 20.5034C27.2776 22.933 25.5998 25.0007 23.4102 26.3959" stroke="#1C1B1F" stroke-width="2" stroke-linecap="round" stroke-linejoin="round"/>
<path d="M13.8758 20.6781C13.6282 19.4405 14.5748 18.2858 15.837 18.2858H18.0833C19.3454 18.2858 20.292 19.4405 20.0444 20.6781L18.8296 26.7504C18.6513 27.6415 17.8689 28.283 16.9601 28.283C16.0513 28.283 15.2689 27.6416 15.0906 26.7504L13.8758 20.6781Z" fill="#1C1B1F"/>
</svg>
