<svg width="33" height="33" viewBox="0 0 33 33" fill="none" xmlns="http://www.w3.org/2000/svg">
<path d="M18.7097 6.83691C18.9832 6.1268 19.4654 5.5162 20.0928 5.08555C20.7202 4.6549 21.4633 4.42441 22.2243 4.42444" stroke="#1C1B1F" stroke-width="2" stroke-linecap="round" stroke-linejoin="round"/>
<path d="M28.1669 22.1813C26.6873 25.7953 24.0014 28.4245 21.7537 28.4245H13.2831C9.98896 28.4245 5.75366 22.7774 5.75366 16.6598C5.75368 15.2971 6.14811 13.9636 6.88934 12.8201C7.63057 11.6767 8.68692 10.7722 9.93087 10.2159C11.1748 9.65966 12.5532 9.47531 13.8996 9.68516C15.246 9.89501 16.5029 10.4901 17.5186 11.3985L17.5184 11.3983C18.2374 10.7553 19.0807 10.2664 19.996 9.96188C20.9114 9.65737 21.8794 9.5437 22.8404 9.62789C23.8014 9.71207 24.7349 9.99231 25.5834 10.4513C26.4318 10.9103 27.1772 11.5384 27.7735 12.2967L27.7735 12.2967C26.9091 12.8195 26.2006 13.5645 25.722 14.4541C25.2434 15.3437 25.0121 16.3454 25.0522 17.3549C25.0924 18.3643 25.4024 19.3445 25.9501 20.1933C26.4978 21.0421 27.2632 21.7286 28.1663 22.1811L28.1669 22.1813Z" fill="#1C1B1F"/>
</svg>
