<svg width="32" height="32" viewBox="0 0 32 32" fill="none" xmlns="http://www.w3.org/2000/svg">
<path fill-rule="evenodd" clip-rule="evenodd" d="M20.6123 2.67793C21.2561 2.23601 22.0186 1.99948 22.7995 1.99951C23.3518 1.99953 23.7995 1.55183 23.7996 0.999547C23.7996 0.447262 23.3519 -0.000468727 22.7996 -0.000488278C21.6146 -0.000530239 20.4574 0.358401 19.4804 1.02902C18.5034 1.69964 17.7525 2.65048 17.3266 3.75629C17.1281 4.27167 17.385 4.85038 17.9004 5.04889C18.4157 5.24739 18.9945 4.99051 19.193 4.47514C19.4736 3.74644 19.9685 3.11985 20.6123 2.67793ZM22.1917 32.0005C25.0951 32.0005 28.5645 28.6043 30.4757 23.9362L30.475 23.9359C29.3083 23.3514 28.3198 22.4647 27.6123 21.3682C26.9048 20.2718 26.5043 19.0057 26.4525 17.7018C26.4007 16.3979 26.6994 15.104 27.3177 13.9549C27.9359 12.8057 28.851 11.8434 29.9676 11.1681L29.9676 11.1681C29.1973 10.1886 28.2345 9.37739 27.1386 8.78448C26.0426 8.19157 24.8367 7.82958 23.5954 7.72084C22.3541 7.6121 21.1037 7.75893 19.9213 8.15226C18.739 8.54559 17.6498 9.17707 16.721 10.0077L16.7212 10.008C15.4093 8.83454 13.7858 8.06588 12.0466 7.79482C10.3074 7.52376 8.52695 7.76188 6.92013 8.48044C5.31332 9.19901 3.94883 10.3673 2.99137 11.8443C2.03392 13.3213 1.52443 15.0438 1.52441 16.804C1.52441 24.7062 6.99516 32.0005 11.2502 32.0005H22.1917Z" fill="#111827"/>
</svg>
