<svg width="32" height="32" viewBox="0 0 32 32" fill="none" xmlns="http://www.w3.org/2000/svg">
<path fill-rule="evenodd" clip-rule="evenodd" d="M20.3227 3.81583C20.6035 3.3403 20.4457 2.72712 19.9702 2.44625C19.4946 2.16539 18.8815 2.3232 18.6006 2.79874L16.0011 7.19997L13.3992 2.79841C13.1182 2.32298 12.5049 2.1654 12.0295 2.44644C11.5541 2.72749 11.3965 3.34073 11.6775 3.81616L14.84 9.16594L7.98676 20.7693H0.999756C0.447471 20.7693 -0.000244141 21.217 -0.000244141 21.7693C-0.000244141 22.3216 0.447471 22.7693 0.999756 22.7693H8.54776C8.5537 22.7693 8.55963 22.7693 8.56556 22.7693H18.0914C18.6437 22.7693 19.0914 22.3216 19.0914 21.7693C19.0914 21.217 18.6437 20.7693 18.0914 20.7693H10.3096L20.3227 3.81583ZM19.5436 13.1978C19.2627 12.7223 18.6495 12.5646 18.174 12.8456C17.6985 13.1266 17.5408 13.7398 17.8218 14.2153L22.5366 22.1935C22.5636 22.2511 22.5959 22.3057 22.633 22.3566L26.6778 29.2011C26.9587 29.6766 27.572 29.8343 28.0474 29.5533C28.5229 29.2723 28.6806 28.6591 28.3996 28.1836L25.2 22.7693H31.0002C31.5525 22.7693 32.0002 22.3216 32.0002 21.7693C32.0002 21.217 31.5525 20.7693 31.0002 20.7693H24.018L19.5436 13.1978ZM6.34244 25.5247C6.81732 25.8067 6.97372 26.4202 6.69175 26.8951L5.32122 29.2033C5.03926 29.6782 4.42572 29.8346 3.95083 29.5527C3.47595 29.2707 3.31955 28.6572 3.60152 28.1823L4.97204 25.874C5.25401 25.3991 5.86755 25.2427 6.34244 25.5247Z" fill="#111827"/>
</svg>
