<svg width="33" height="33" viewBox="0 0 33 33" fill="none" xmlns="http://www.w3.org/2000/svg">
<path fill-rule="evenodd" clip-rule="evenodd" d="M4.95996 5.2829C4.40768 5.2829 3.95996 5.73061 3.95996 6.2829V26.2829C3.95996 26.8352 4.40768 27.2829 4.95996 27.2829H28.96C29.5122 27.2829 29.96 26.8352 29.96 26.2829V6.2829C29.96 5.73061 29.5122 5.2829 28.96 5.2829H4.95996ZM5.95996 13.2829V25.2829H27.96V13.2829L5.95996 13.2829ZM10.96 9.7829C10.96 10.6113 10.2884 11.2829 9.45996 11.2829C8.63153 11.2829 7.95996 10.6113 7.95996 9.7829C7.95996 8.95447 8.63153 8.2829 9.45996 8.2829C10.2884 8.2829 10.96 8.95447 10.96 9.7829ZM14.46 11.2829C15.2884 11.2829 15.96 10.6113 15.96 9.7829C15.96 8.95447 15.2884 8.2829 14.46 8.2829C13.6315 8.2829 12.96 8.95447 12.96 9.7829C12.96 10.6113 13.6315 11.2829 14.46 11.2829Z" fill="#1C1B1F"/>
</svg>
