<svg width="32" height="32" viewBox="0 0 32 32" fill="none" xmlns="http://www.w3.org/2000/svg">
<path fill-rule="evenodd" clip-rule="evenodd" d="M1.00098 0.00088501C0.448692 0.00088501 0.000976562 0.4486 0.000976562 1.00089V30.9991C0.000976562 31.5513 0.448692 31.9991 1.00098 31.9991H30.9991C31.5514 31.9991 31.9991 31.5513 31.9991 30.9991V1.00089C31.9991 0.4486 31.5514 0.00088501 30.9991 0.00088501H1.00098ZM2.00098 21.4107V29.9991H29.9991V21.4107H24.3527C24.2201 21.4107 24.0929 21.4634 23.9991 21.5572L19.8763 25.68C19.7826 25.7737 19.6554 25.8264 19.5228 25.8264H12.2814C12.1488 25.8264 12.0217 25.7737 11.9279 25.68L7.80511 21.5572C7.71134 21.4634 7.58416 21.4107 7.45155 21.4107H2.00098ZM17.0021 6.45514C17.0021 5.90286 16.5544 5.45514 16.0021 5.45514C15.4498 5.45514 15.0021 5.90286 15.0021 6.45514V17.6764L10.3983 13.0726C10.0077 12.682 9.37456 12.682 8.98404 13.0726C8.59352 13.4631 8.59352 14.0963 8.98404 14.4868L15.2934 20.7962L15.306 20.8086C15.4039 20.9036 15.5165 20.9746 15.6363 21.0216C15.7286 21.0579 15.8275 21.0809 15.9309 21.0881C15.9814 21.0917 16.0322 21.0915 16.0827 21.0874C16.1711 21.0804 16.2562 21.0619 16.3365 21.0333C16.4726 20.9852 16.6004 20.9066 16.7092 20.7978L23.0202 14.4868C23.4107 14.0963 23.4107 13.4631 23.0202 13.0726C22.6297 12.682 21.9965 12.682 21.606 13.0726L17.0021 17.6765V6.45514Z" fill="#111827"/>
</svg>
