<svg width="33" height="33" viewBox="0 0 33 33" fill="none" xmlns="http://www.w3.org/2000/svg">
<path fill-rule="evenodd" clip-rule="evenodd" d="M4.95996 6.97522C4.40768 6.97522 3.95996 7.42293 3.95996 7.97522V13.2853C3.95996 13.8375 4.40768 14.2853 4.95996 14.2853H6.52197V23.5906C6.52197 24.1429 6.96969 24.5906 7.52197 24.5906H26.1136C26.6659 24.5906 27.1136 24.1429 27.1136 23.5906V14.2853H28.96C29.5122 14.2853 29.96 13.8375 29.96 13.2853V7.97522C29.96 7.42293 29.5122 6.97522 28.96 6.97522H4.95996ZM5.95996 12.2853V8.97522H27.96V12.2853H5.95996ZM13.1909 17.206C13.1909 16.6537 13.6386 16.206 14.1909 16.206H19.7294C20.2817 16.206 20.7294 16.6537 20.7294 17.206C20.7294 17.7582 20.2817 18.206 19.7294 18.206H14.1909C13.6386 18.206 13.1909 17.7582 13.1909 17.206Z" fill="#1C1B1F"/>
</svg>
