<svg width="33" height="33" viewBox="0 0 33 33" fill="none" xmlns="http://www.w3.org/2000/svg">
<path fill-rule="evenodd" clip-rule="evenodd" d="M4.95996 3.2829C4.40768 3.2829 3.95996 3.73061 3.95996 4.2829V28.2829C3.95996 28.8352 4.40768 29.2829 4.95996 29.2829H28.96C29.5122 29.2829 29.96 28.8352 29.96 28.2829V4.2829C29.96 3.73061 29.5122 3.2829 28.96 3.2829H4.95996ZM5.95996 20.6118V27.2829H27.96V20.6118H23.6837C23.5511 20.6118 23.4239 20.6645 23.3301 20.7582L20.0902 23.9981C19.9965 24.0918 19.8693 24.1445 19.7367 24.1445H14.0261C13.8935 24.1445 13.7663 24.0918 13.6725 23.9981L10.4327 20.7582C10.3389 20.6645 10.2117 20.6118 10.0791 20.6118H5.95996ZM17.9609 8.64655C17.9609 8.09426 17.5132 7.64655 16.9609 7.64655C16.4087 7.64655 15.9609 8.09426 15.9609 8.64655V17.1416L12.6187 13.7994C12.2282 13.4089 11.595 13.4089 11.2045 13.7994C10.814 14.1899 10.814 14.8231 11.2045 15.2136L16.2536 20.2627C16.3794 20.3885 16.5304 20.4738 16.6904 20.5186C16.7476 20.5346 16.807 20.5457 16.8679 20.5513C16.9122 20.5554 16.9567 20.5566 17.0011 20.5548C17.2674 20.5443 17.5069 20.4297 17.68 20.2505L22.7169 15.2136C23.1074 14.8231 23.1074 14.1899 22.7169 13.7994C22.3264 13.4089 21.6932 13.4089 21.3027 13.7994L17.9609 17.1412V8.64655Z" fill="#1C1B1F"/>
</svg>
