<svg width="32" height="32" viewBox="0 0 32 32" fill="none" xmlns="http://www.w3.org/2000/svg">
<path fill-rule="evenodd" clip-rule="evenodd" d="M1.00098 5.11603C0.448692 5.11603 0.000976562 5.56374 0.000976562 6.11603V12.7532C0.000976562 13.3054 0.448692 13.7532 1.00098 13.7532H2.95345V25.8839C2.95345 26.4362 3.40116 26.8839 3.95345 26.8839H27.6914C28.2437 26.8839 28.6914 26.4362 28.6914 25.8839V13.7532H30.9991C31.5514 13.7532 31.9991 13.3054 31.9991 12.7532V6.11603C31.9991 5.56374 31.5514 5.11603 30.9991 5.11603H1.00098ZM2.00098 11.7532V7.11603H29.9991V11.7532H2.00098ZM11.5382 17.6537C11.5382 17.1015 11.9859 16.6537 12.5382 16.6537H19.4608C20.0131 16.6537 20.4608 17.1015 20.4608 17.6537C20.4608 18.206 20.0131 18.6537 19.4608 18.6537H12.5382C11.9859 18.6537 11.5382 18.206 11.5382 17.6537Z" fill="#111827"/>
</svg>
