<svg width="33" height="33" viewBox="0 0 33 33" fill="none" xmlns="http://www.w3.org/2000/svg">
<path fill-rule="evenodd" clip-rule="evenodd" d="M6.24735 3.83568C6.41675 3.4969 6.76301 3.2829 7.14178 3.2829H26.7781C27.1569 3.2829 27.5032 3.4969 27.6726 3.83568L29.8455 8.18158C29.9164 8.31621 29.9574 8.46898 29.9598 8.63109C29.9599 8.63677 29.96 8.64245 29.96 8.64813V28.2829C29.96 28.8352 29.5122 29.2829 28.96 29.2829H4.95996C4.40768 29.2829 3.95996 28.8352 3.95996 28.2829V8.64655C3.95996 8.64554 3.95996 8.64455 3.95997 8.64354C3.96046 8.47677 4.00177 8.31961 4.07444 8.18152L6.24735 3.83568ZM7.75981 5.2829L6.578 7.64653H27.3419L26.1601 5.2829H7.75981ZM16.96 12.0102C17.5122 12.0102 17.96 12.4579 17.96 13.0102V21.505L20.8811 18.5838C21.2716 18.1933 21.9048 18.1933 22.2953 18.5838C22.6858 18.9744 22.6858 19.6075 22.2953 19.9981L17.6728 24.6206C17.6542 24.6395 17.6349 24.6576 17.6149 24.675C17.4481 24.8198 17.2447 24.9003 17.0373 24.9163C16.9787 24.9208 16.9196 24.9202 16.861 24.9144C16.7901 24.9075 16.7213 24.8931 16.6555 24.872C16.5082 24.8251 16.3696 24.7432 16.2528 24.6264L11.6244 19.9981C11.2339 19.6075 11.2339 18.9744 11.6244 18.5838C12.015 18.1933 12.6481 18.1933 13.0387 18.5838L15.96 21.5052V13.0102C15.96 12.4579 16.4077 12.0102 16.96 12.0102Z" fill="#1C1B1F"/>
</svg>
