<svg width="32" height="32" viewBox="0 0 32 32" fill="none" xmlns="http://www.w3.org/2000/svg">
<path fill-rule="evenodd" clip-rule="evenodd" d="M2.83198 0.552146C3.00138 0.213362 3.34764 -0.000640869 3.72641 -0.000640869H28.2729C28.6517 -0.000640869 28.9979 0.213362 29.1673 0.552146L31.8858 5.98912C31.9589 6.12804 32.0003 6.28626 32.0003 6.45414V31.0006C32.0003 31.5529 31.5526 32.0006 31.0003 32.0006H0.999025C0.44674 32.0006 -0.000975492 31.5529 -0.000975492 31.0006V6.45555C-0.000983095 6.45035 -0.000950202 6.44515 -0.00087679 6.43995C0.00121499 6.29182 0.0362036 6.14371 0.104597 6.00692L0.113483 5.98915C0.0424524 6.12414 0.00138469 6.27736 -0.00087679 6.43995M4.34444 1.99936L2.61706 5.45413H29.3822L27.6549 1.99936H4.34444ZM14.9989 11.9089C14.9989 11.3566 15.4466 10.9089 15.9989 10.9089C16.5512 10.9089 16.9989 11.3566 16.9989 11.9089V23.1318L21.0777 19.0531C21.4682 18.6626 22.1014 18.6626 22.4919 19.0531C22.8824 19.4436 22.8824 20.0768 22.4919 20.4673L16.7062 26.253C16.5782 26.381 16.4241 26.467 16.261 26.5111C16.2101 26.5249 16.1577 26.5347 16.104 26.5404C16.0521 26.5458 15.9998 26.5472 15.9476 26.5445C15.6861 26.5313 15.4511 26.4177 15.2804 26.2414L9.50635 20.4673C9.11582 20.0768 9.11582 19.4436 9.50635 19.0531C9.89687 18.6626 10.53 18.6626 10.9206 19.0531L14.9989 23.1314V11.9089Z" fill="#111827"/>
</svg>
