<svg width="32" height="33" viewBox="0 0 32 33" fill="none" xmlns="http://www.w3.org/2000/svg">
<path fill-rule="evenodd" clip-rule="evenodd" d="M6.57129 4.5H25.4284C26.533 4.5 27.4284 5.39543 27.4284 6.5V11.3032C24.618 12.3116 22.4998 14.846 21.9764 17.6435H10.571C10.2586 15.8712 9.32714 14.0212 7.71859 12.6961C6.84438 11.976 5.79347 11.4294 4.57129 11.1282V6.5C4.57129 5.39543 5.46672 4.5 6.57129 4.5ZM2.75507 12.8765C2.22924 13.1041 1.74819 13.4298 1.33894 13.8391C0.699617 14.4784 0.26423 15.2929 0.0878408 16.1797C-0.0885488 17.0665 0.00198071 17.9856 0.347981 18.821C0.693982 19.6563 1.27991 20.3702 2.03168 20.8726C2.78345 21.3749 3.66729 21.643 4.57143 21.643V27.3573C4.57143 27.6604 4.69184 27.9511 4.90617 28.1654C5.12049 28.3797 5.41118 28.5001 5.71429 28.5001H9.69775V28.5001H22.8573V28.5001H26.2857C26.5888 28.5001 26.8795 28.3797 27.0938 28.1654C27.3082 27.9511 27.4286 27.6604 27.4286 27.3573V21.643C28.3327 21.643 29.2166 21.3749 29.9683 20.8726C30.7201 20.3702 31.306 19.6563 31.652 18.821C31.998 17.9856 32.0886 17.0665 31.9122 16.1797C31.7358 15.2929 31.3004 14.4784 30.6611 13.8391C30.2694 13.4474 29.8119 13.1322 29.3123 12.9063C26.2954 13.3105 23.9323 15.998 23.8534 18.831C23.8558 18.8596 23.8571 18.8885 23.8571 18.9178V23.68C23.8571 24.2322 23.4094 24.68 22.8571 24.68V24.6862C22.3049 24.6861 21.8573 24.2384 21.8573 23.6862V19.3398H10.6978V23.6862C10.6978 24.2251 10.2714 24.6644 9.73766 24.6854V24.6792C9.72437 24.6797 9.71101 24.68 9.69759 24.68C9.14531 24.68 8.69759 24.2323 8.69759 23.68V19.0984C8.69278 19.0586 8.6903 19.0181 8.6903 18.977C8.6903 17.3884 7.96064 15.4872 6.44698 14.2404C5.55433 13.5051 4.34177 12.9598 2.75507 12.8765Z" fill="#111827"/>
</svg>
