<svg width="32" height="32" viewBox="0 0 32 32" fill="none" xmlns="http://www.w3.org/2000/svg">
<path fill-rule="evenodd" clip-rule="evenodd" d="M6.57129 4H25.4284C26.533 4 27.4284 4.89543 27.4284 6V10.8032C24.618 11.8116 22.4998 14.346 21.9764 17.1435H10.571C10.2586 15.3712 9.32714 13.5212 7.71859 12.1961C6.84438 11.476 5.79347 10.9294 4.57129 10.6282V6C4.57129 4.89543 5.46672 4 6.57129 4ZM2.75507 12.3765C2.22924 12.6041 1.74819 12.9298 1.33894 13.3391C0.699617 13.9784 0.26423 14.7929 0.0878408 15.6797C-0.0885488 16.5665 0.00198071 17.4856 0.347981 18.321C0.693982 19.1563 1.27991 19.8702 2.03168 20.3726C2.78345 20.8749 3.66729 21.143 4.57143 21.143V26.8573C4.57143 27.1604 4.69184 27.4511 4.90617 27.6654C5.12049 27.8797 5.41118 28.0001 5.71429 28.0001H9.69775V28.0001H22.8573V28.0001H26.2857C26.5888 28.0001 26.8795 27.8797 27.0938 27.6654C27.3082 27.4511 27.4286 27.1604 27.4286 26.8573V21.143C28.3327 21.143 29.2166 20.8749 29.9683 20.3726C30.7201 19.8702 31.306 19.1563 31.652 18.321C31.998 17.4856 32.0886 16.5665 31.9122 15.6797C31.7358 14.7929 31.3004 13.9784 30.6611 13.3391C30.2694 12.9474 29.8119 12.6322 29.3123 12.4063C26.2954 12.8105 23.9323 15.498 23.8534 18.331C23.8558 18.3596 23.8571 18.3885 23.8571 18.4178V23.18C23.8571 23.7322 23.4094 24.18 22.8571 24.18V24.1862C22.3049 24.1861 21.8573 23.7384 21.8573 23.1862V18.8398H10.6978V23.1862C10.6978 23.7251 10.2714 24.1644 9.73766 24.1854V24.1792C9.72437 24.1797 9.71101 24.18 9.69759 24.18C9.14531 24.18 8.69759 23.7323 8.69759 23.18V18.5984C8.69278 18.5586 8.6903 18.5181 8.6903 18.477C8.6903 16.8884 7.96064 14.9872 6.44698 13.7404C5.55433 13.0051 4.34177 12.4598 2.75507 12.3765Z" fill="#111827"/>
</svg>
