<svg width="32" height="33" viewBox="0 0 32 33" fill="none" xmlns="http://www.w3.org/2000/svg">
<path fill-rule="evenodd" clip-rule="evenodd" d="M26.7105 4.50043C26.7105 3.94814 26.2628 3.50043 25.7105 3.50043C25.1582 3.50043 24.7105 3.94814 24.7105 4.50043V22.9219H8.70332L11.5738 20.0513C11.9644 19.6608 11.9644 19.0277 11.5738 18.6371C11.1833 18.2466 10.5502 18.2466 10.1596 18.6371L5.58664 23.2101C5.57138 23.2252 5.5566 23.2407 5.54234 23.2567C5.46662 23.3416 5.40788 23.4362 5.36612 23.5363C5.32243 23.6407 5.29596 23.7542 5.29025 23.8731C5.28851 23.9088 5.28868 23.9446 5.29076 23.9803C5.29652 24.0804 5.31703 24.1766 5.35015 24.2668C5.3986 24.3989 5.47587 24.5229 5.58196 24.629L10.1596 29.2067C10.5502 29.5972 11.1833 29.5972 11.5738 29.2067C11.9644 28.8162 11.9644 28.183 11.5738 27.7925L8.70323 24.9219H25.7105C26.2628 24.9219 26.7105 24.4742 26.7105 23.9219V4.50043Z" fill="#111827"/>
</svg>
