<svg width="33" height="33" viewBox="0 0 33 33" fill="none" xmlns="http://www.w3.org/2000/svg">
<path fill-rule="evenodd" clip-rule="evenodd" d="M28.96 16.2829C28.96 22.9103 23.5874 28.2829 16.96 28.2829C10.3325 28.2829 4.95996 22.9103 4.95996 16.2829C4.95996 9.65548 10.3325 4.2829 16.96 4.2829C23.5874 4.2829 28.96 9.65548 28.96 16.2829ZM12.6482 13.8515C13.1817 13.7086 13.73 14.0252 13.8729 14.5586L14.801 18.0222L18.5939 11.4528C18.87 10.9745 19.4816 10.8106 19.9599 11.0868C20.4382 11.3629 20.6021 11.9745 20.3259 12.4528L16.5331 19.0222L19.9967 18.0942C20.5301 17.9512 21.0785 18.2678 21.2214 18.8013C21.3644 19.3347 21.0478 19.8831 20.5143 20.026L14.726 21.577C14.6991 21.5844 14.6719 21.5907 14.6445 21.5959C14.5538 21.613 14.4632 21.6172 14.3748 21.6096C14.2329 21.5976 14.0914 21.555 13.9599 21.4791C13.8303 21.4042 13.7238 21.3048 13.6429 21.19C13.5885 21.1131 13.5444 21.0273 13.5129 20.9342C13.5052 20.9115 13.4983 20.8886 13.4923 20.8655L11.9411 15.0763C11.7982 14.5428 12.1147 13.9945 12.6482 13.8515Z" fill="#1C1B1F"/>
</svg>
