<svg width="32" height="33" viewBox="0 0 32 33" fill="none" xmlns="http://www.w3.org/2000/svg">
<path fill-rule="evenodd" clip-rule="evenodd" d="M10.4507 2.5241C10.8459 2.90992 10.8459 3.53545 10.4507 3.92126L6.46795 7.80969H27.9888C28.5411 7.80969 28.9888 8.2574 28.9888 8.80969C28.9888 9.36197 28.5411 9.80969 27.9888 9.80969H6.46458L10.4507 13.7014C10.8459 14.0872 10.8459 14.7127 10.4507 15.0986C10.0555 15.4844 9.41483 15.4844 9.01966 15.0986L3.29541 9.50991C2.91253 9.1361 2.90061 8.53727 3.25966 8.14945C3.28899 8.11612 3.3205 8.08475 3.35397 8.05557L9.01966 2.5241C9.41483 2.13829 10.0555 2.13829 10.4507 2.5241ZM4.01074 23.1787C3.45845 23.1787 3.01074 23.6264 3.01074 24.1787C3.01074 24.731 3.45845 25.1787 4.01074 25.1787H25.5435L21.5488 29.0788C21.1536 29.4646 21.1536 30.0902 21.5488 30.476C21.9439 30.8618 22.5847 30.8618 22.9798 30.476L28.7041 24.8873C29.043 24.5565 29.0912 24.0493 28.8489 23.6682C28.7828 23.5571 28.6958 23.4599 28.5933 23.382L22.9798 17.9015C22.5847 17.5157 21.9439 17.5157 21.5488 17.9015C21.1536 18.2873 21.1536 18.9129 21.5488 19.2987L25.5229 23.1787H4.01074Z" fill="#111827"/>
</svg>
