<svg width="32" height="33" viewBox="0 0 32 33" fill="none" xmlns="http://www.w3.org/2000/svg">
<path fill-rule="evenodd" clip-rule="evenodd" d="M24.6713 7.75443C24.6982 7.77867 24.7238 7.80435 24.748 7.83135C24.8184 7.91001 24.8742 7.99714 24.9154 8.08922C24.9713 8.21397 25.0024 8.35228 25.0024 8.49783V16.4978C25.0024 17.0501 24.5547 17.4978 24.0024 17.4978C23.4502 17.4978 23.0024 17.0501 23.0024 16.4978V10.912L8.70515 25.2093C8.31463 25.5998 7.68146 25.5998 7.29094 25.2093C6.90042 24.8188 6.90042 24.1856 7.29094 23.7951L21.5882 9.49783H16.0024C15.4502 9.49783 15.0024 9.05012 15.0024 8.49783C15.0024 7.94555 15.4502 7.49783 16.0024 7.49783H24.0022C24.0023 7.49783 24.0024 7.49783 24.0024 7.49783C24.2596 7.49783 24.4941 7.59491 24.6713 7.75443Z" fill="#111827"/>
</svg>
