<svg width="32" height="33" viewBox="0 0 32 33" fill="none" xmlns="http://www.w3.org/2000/svg">
<path fill-rule="evenodd" clip-rule="evenodd" d="M2 0.5C0.895431 0.5 0 1.39543 0 2.5V30.5C0 31.6046 0.895431 32.5 2 32.5H30C31.1046 32.5 32 31.6046 32 30.5V2.5C32 1.39543 31.1046 0.5 30 0.5H2ZM9.63599 16.8027C9.24547 17.1933 9.24547 17.8264 9.63599 18.217L15.2928 23.8738C15.4048 23.9858 15.5367 24.0656 15.6771 24.1134C15.8066 24.1575 15.9435 24.1742 16.0785 24.1636C16.1782 24.1559 16.2737 24.1336 16.363 24.0988C16.4789 24.0537 16.5881 23.9861 16.684 23.8962C16.6928 23.8879 16.7015 23.8794 16.71 23.8708L22.3639 18.217C22.7544 17.8264 22.7544 17.1933 22.3639 16.8027C21.9734 16.4122 21.3402 16.4122 20.9497 16.8027L17 20.7524V9.83333C17 9.28105 16.5523 8.83333 16 8.83333C15.4477 8.83333 15 9.28105 15 9.83333V20.7525L11.0502 16.8027C10.6597 16.4122 10.0265 16.4122 9.63599 16.8027Z" fill="#111827"/>
</svg>
