<svg width="32" height="33" viewBox="0 0 32 33" fill="none" xmlns="http://www.w3.org/2000/svg">
<path fill-rule="evenodd" clip-rule="evenodd" d="M32 17C32 25.8366 24.8366 33 16 33C7.16344 33 0 25.8366 0 17C0 8.16344 7.16344 1 16 1C24.8366 1 32 8.16344 32 17ZM22.364 16.6973C21.9735 17.0879 21.3403 17.0879 20.9498 16.6973L17 12.7475V23.6667C17 24.219 16.5523 24.6667 16 24.6667C15.4477 24.6667 15 24.219 15 23.6667L15 12.7476L11.0503 16.6973C10.6598 17.0879 10.0266 17.0879 9.63609 16.6973C9.24556 16.3068 9.24556 15.6737 9.63609 15.2831L15.2848 9.63446C15.3191 9.59929 15.3561 9.56665 15.3953 9.53683C15.4405 9.5024 15.488 9.47234 15.5372 9.44665C15.6756 9.37427 15.833 9.33333 16 9.33333C16.1464 9.33333 16.2855 9.36479 16.4108 9.42132C16.5182 9.46969 16.6189 9.53801 16.7072 9.62627L22.364 15.2831C22.7545 15.6737 22.7545 16.3068 22.364 16.6973Z" fill="#111827"/>
</svg>
