<svg width="32" height="33" viewBox="0 0 32 33" fill="none" xmlns="http://www.w3.org/2000/svg">
<path fill-rule="evenodd" clip-rule="evenodd" d="M26.7105 28.4996C26.7105 29.0519 26.2628 29.4996 25.7105 29.4996C25.1582 29.4996 24.7105 29.0519 24.7105 28.4996V10.0781H8.70332L11.5738 12.9487C11.9644 13.3392 11.9644 13.9723 11.5738 14.3629C11.1833 14.7534 10.5502 14.7534 10.1596 14.3629L5.58664 9.78987C5.57138 9.77481 5.5566 9.75927 5.54234 9.74326C5.46662 9.65841 5.40788 9.56377 5.36612 9.46371C5.32243 9.35926 5.29596 9.24582 5.29025 9.12694C5.28851 9.09123 5.28868 9.05544 5.29076 9.01975C5.29652 8.91958 5.31703 8.82337 5.35015 8.73324C5.3986 8.60106 5.47587 8.47707 5.58196 8.37098L10.1596 3.7933C10.5502 3.40277 11.1833 3.40277 11.5738 3.7933C11.9644 4.18382 11.9644 4.81699 11.5738 5.20751L8.70323 8.07813H25.7105C26.2628 8.07813 26.7105 8.52585 26.7105 9.07813V28.4996Z" fill="#111827"/>
</svg>
