<svg width="32" height="32" viewBox="0 0 32 32" fill="none" xmlns="http://www.w3.org/2000/svg">
<path fill-rule="evenodd" clip-rule="evenodd" d="M2 0C0.895431 0 0 0.895431 0 2V30C0 31.1046 0.895431 32 2 32H30C31.1046 32 32 31.1046 32 30V2C32 0.895431 31.1046 0 30 0H2ZM23.6667 15.9999C23.6667 15.8329 23.6257 15.6755 23.5534 15.5371C23.5042 15.4432 23.4406 15.3581 23.3655 15.2847L17.7169 9.63598C17.3263 9.24546 16.6932 9.24546 16.3027 9.63598C15.9121 10.0265 15.9121 10.6597 16.3027 11.0502L20.2524 14.9999L9.33333 14.9999C8.78105 14.9999 8.33333 15.4476 8.33333 15.9999C8.33333 16.5522 8.78105 16.9999 9.33333 16.9999H20.2525L16.3027 20.9497C15.9121 21.3402 15.9121 21.9734 16.3027 22.3639C16.6932 22.7544 17.3263 22.7544 17.7169 22.3639L23.3737 16.7071L23.377 16.7038C23.4637 16.6163 23.5309 16.5168 23.5787 16.4107C23.6352 16.2854 23.6667 16.1463 23.6667 15.9999Z" fill="#111827"/>
</svg>
