<svg width="32" height="33" viewBox="0 0 32 33" fill="none" xmlns="http://www.w3.org/2000/svg">
<path fill-rule="evenodd" clip-rule="evenodd" d="M8.57838 5.78925C8.02609 5.78925 7.57838 6.23696 7.57838 6.78925V23.7967L4.7076 20.9259C4.31707 20.5354 3.68391 20.5354 3.29338 20.9259C2.90286 21.3164 2.90286 21.9496 3.29338 22.3401L7.87104 26.9178C8.01482 27.0616 8.1915 27.1524 8.37684 27.1903C8.39314 27.1936 8.40958 27.1966 8.42616 27.1991C8.50522 27.2112 8.58545 27.2138 8.66502 27.2069C8.79554 27.1957 8.9189 27.1594 9.03026 27.1029C9.07708 27.0792 9.12178 27.0518 9.164 27.0213C9.21149 26.9869 9.25585 26.9485 9.29655 26.9065L13.8629 22.3401C14.2534 21.9496 14.2534 21.3164 13.8629 20.9259C13.4724 20.5354 12.8392 20.5354 12.4487 20.9259L9.57838 23.7962V7.78925H27.9998C28.552 7.78925 28.9998 7.34153 28.9998 6.78925C28.9998 6.23696 28.552 5.78925 27.9998 5.78925H8.57838Z" fill="#111827"/>
</svg>
