<svg width="32" height="33" viewBox="0 0 32 33" fill="none" xmlns="http://www.w3.org/2000/svg">
<path fill-rule="evenodd" clip-rule="evenodd" d="M20.2282 3.56057C20.1196 3.52014 20.0021 3.49805 19.8794 3.49805C19.5981 3.49805 19.3439 3.61422 19.1622 3.80121L14.9291 8.03429C14.5386 8.42481 14.5386 9.05798 14.9291 9.4485C15.3196 9.83903 15.9528 9.83903 16.3433 9.4485L18.8794 6.91241V16.5C18.8794 19.4179 17.7203 22.2163 15.657 24.2795C13.5937 26.3428 10.7953 27.5019 7.87744 27.5019C7.32516 27.5019 6.87744 27.9497 6.87744 28.5019C6.87744 29.0542 7.32516 29.5019 7.87744 29.5019C11.3258 29.5019 14.6329 28.1321 17.0712 25.6938C19.5095 23.2554 20.8794 19.9483 20.8794 16.5V6.91215L23.4157 9.4485C23.8063 9.83903 24.4394 9.83903 24.83 9.4485C25.2205 9.05798 25.2205 8.42481 24.83 8.03429L20.5866 3.79096C20.4816 3.6859 20.3589 3.6091 20.2282 3.56057Z" fill="#111827"/>
</svg>
