<svg width="32" height="33" viewBox="0 0 32 33" fill="none" xmlns="http://www.w3.org/2000/svg">
<path fill-rule="evenodd" clip-rule="evenodd" d="M13.1264 9.95909C13.5169 9.56857 14.1501 9.56857 14.5406 9.95909C14.9311 10.3496 14.9311 10.9828 14.5406 11.3733L10.4138 15.5001L24.0002 15.5001C24.5525 15.5001 25.0002 15.9478 25.0002 16.5001C25.0002 17.0524 24.5525 17.5001 24.0002 17.5001L10.4138 17.5001L14.5406 21.6269C14.9311 22.0174 14.9311 22.6506 14.5406 23.0411C14.1501 23.4317 13.5169 23.4317 13.1264 23.0411L7.30015 17.2149C7.26517 17.1807 7.2327 17.1439 7.20302 17.1049C7.07532 16.9369 6.99951 16.7274 6.99951 16.5001C6.99951 16.3353 7.03939 16.1798 7.11003 16.0427C7.14046 15.9835 7.17719 15.9268 7.2202 15.8734C7.24477 15.8429 7.2711 15.8139 7.29903 15.7865L13.1264 9.95909Z" fill="#111827"/>
</svg>
