<svg width="33" height="33" viewBox="0 0 33 33" fill="none" xmlns="http://www.w3.org/2000/svg">
<path fill-rule="evenodd" clip-rule="evenodd" d="M28.9602 16.2829C28.9602 22.9103 23.5876 28.2829 16.9602 28.2829C10.3328 28.2829 4.96021 22.9103 4.96021 16.2829C4.96021 9.65548 10.3328 4.2829 16.9602 4.2829C23.5876 4.2829 28.9602 9.65548 28.9602 16.2829ZM21.91 16.2327C21.5194 16.6232 20.8863 16.6232 20.4957 16.2327L17.9602 13.6971V21.2829C17.9602 21.8352 17.5125 22.2829 16.9602 22.2829C16.4079 22.2829 15.9602 21.8352 15.9602 21.2829V13.6971L13.4247 16.2327C13.0341 16.6232 12.401 16.6232 12.0105 16.2327C11.6199 15.8422 11.6199 15.209 12.0105 14.8185L16.2478 10.5811C16.2674 10.5613 16.2878 10.5422 16.3089 10.524C16.3789 10.4638 16.4553 10.4149 16.5356 10.3772C16.6645 10.3167 16.8084 10.2829 16.9602 10.2829C17.1098 10.2829 17.2518 10.3158 17.3793 10.3747C17.4648 10.4141 17.546 10.4663 17.6198 10.5313C17.6378 10.547 17.6552 10.5635 17.672 10.5805L21.91 14.8185C22.3005 15.209 22.3005 15.8422 21.91 16.2327Z" fill="#1C1B1F"/>
</svg>
