<svg width="32" height="33" viewBox="0 0 32 33" fill="none" xmlns="http://www.w3.org/2000/svg">
<path fill-rule="evenodd" clip-rule="evenodd" d="M8.69827 4.50061C8.69827 3.94833 9.14599 3.50061 9.69827 3.50061H22.3012C22.8535 3.50061 23.3012 3.94833 23.3012 4.50061C23.3012 5.0529 22.8535 5.50061 22.3012 5.50061H9.69827C9.14599 5.50061 8.69827 5.0529 8.69827 4.50061ZM4.60403 17.1036C4.15858 17.1036 3.93549 17.6422 4.25048 17.9572L15.6463 29.353C15.8416 29.5483 16.1582 29.5483 16.3534 29.353L27.7493 17.9572C28.0643 17.6422 27.8412 17.1036 27.3957 17.1036H22.8014C22.5252 17.1036 22.3014 16.8797 22.3014 16.6036V13.4026C22.3014 13.1265 22.0775 12.9026 21.8014 12.9026H10.1984C9.92226 12.9026 9.69841 13.1265 9.69841 13.4026V16.6036C9.69841 16.8797 9.47455 17.1036 9.19841 17.1036H4.60403ZM9.69827 7.70161C9.14599 7.70161 8.69827 8.14933 8.69827 8.70161C8.69827 9.2539 9.14599 9.70161 9.69827 9.70161H22.3012C22.8535 9.70161 23.3012 9.2539 23.3012 8.70161C23.3012 8.14933 22.8535 7.70161 22.3012 7.70161H9.69827Z" fill="#111827"/>
</svg>
