<svg width="33" height="33" viewBox="0 0 33 33" fill="none" xmlns="http://www.w3.org/2000/svg">
<path fill-rule="evenodd" clip-rule="evenodd" d="M28.9602 16.2829C28.9602 22.9103 23.5876 28.2829 16.9602 28.2829C10.3328 28.2829 4.96021 22.9103 4.96021 16.2829C4.96021 9.65548 10.3328 4.2829 16.9602 4.2829C23.5876 4.2829 28.9602 9.65548 28.9602 16.2829ZM20.4957 19.7474C19.9434 19.7474 19.4957 19.2997 19.4957 18.7474V15.1616L14.1317 20.5255C13.7412 20.9161 13.108 20.9161 12.7175 20.5255C12.327 20.135 12.327 19.5019 12.7175 19.1113L18.0815 13.7474H14.4957C13.9434 13.7474 13.4957 13.2997 13.4957 12.7474C13.4957 12.1951 13.9434 11.7474 14.4957 11.7474L20.4882 11.7474C20.5161 11.7472 20.544 11.7481 20.5718 11.7503C20.6638 11.7572 20.7524 11.7766 20.8359 11.8067C20.9698 11.8551 21.0955 11.9329 21.2028 12.0403C21.3086 12.1461 21.3858 12.2697 21.4342 12.4015C21.4668 12.4899 21.4873 12.5842 21.4936 12.6823C21.4951 12.7062 21.4958 12.7301 21.4957 12.754V18.7474C21.4957 19.2997 21.048 19.7474 20.4957 19.7474Z" fill="#1C1B1F"/>
</svg>
