<svg width="32" height="32" viewBox="0 0 32 32" fill="none" xmlns="http://www.w3.org/2000/svg">
<path fill-rule="evenodd" clip-rule="evenodd" d="M32 16C32 24.8366 24.8366 32 16 32C7.16344 32 0 24.8366 0 16C0 7.16344 7.16344 0 16 0C24.8366 0 32 7.16344 32 16ZM11.2861 20.286C11.8384 20.286 12.2861 19.8383 12.2861 19.286V13.7002L20.0071 21.4212C20.3976 21.8117 21.0308 21.8117 21.4213 21.4212C21.8119 21.0306 21.8119 20.3975 21.4213 20.0069L13.7004 12.286L19.2861 12.286C19.8384 12.286 20.2861 11.8383 20.2861 11.286C20.2861 10.7337 19.8384 10.286 19.2861 10.286H11.2952C11.2612 10.2857 11.2272 10.2871 11.1933 10.2903C11.1093 10.298 11.0284 10.3161 10.9517 10.3433C10.8156 10.3915 10.6879 10.47 10.579 10.5789C10.4786 10.6793 10.4039 10.7958 10.3552 10.9201C10.3106 11.0335 10.2861 11.1569 10.2861 11.286V19.286C10.2861 19.8383 10.7338 20.286 11.2861 20.286Z" fill="#111827"/>
</svg>
