<svg width="32" height="32" viewBox="0 0 32 32" fill="none" xmlns="http://www.w3.org/2000/svg">
<path fill-rule="evenodd" clip-rule="evenodd" d="M6.70711 5.29283C6.31658 4.90231 5.68342 4.90231 5.29289 5.29283C4.90237 5.68336 4.90237 6.31652 5.29289 6.70705L23.5858 24.9999H18.5C17.9477 24.9999 17.5 25.4476 17.5 25.9999C17.5 26.5522 17.9477 26.9999 18.5 26.9999H26C26.1442 26.9999 26.2813 26.9694 26.4052 26.9144C26.4967 26.8739 26.5834 26.819 26.6618 26.7496C26.6929 26.7222 26.7222 26.6928 26.7496 26.6618C26.819 26.5834 26.874 26.4967 26.9145 26.4051C26.9695 26.2813 27 26.1442 27 25.9999V18.4999C27 17.9477 26.5523 17.4999 26 17.4999C25.4477 17.4999 25 17.9477 25 18.4999V23.5857L6.70711 5.29283Z" fill="#111827"/>
</svg>
