<svg width="32" height="33" viewBox="0 0 32 33" fill="none" xmlns="http://www.w3.org/2000/svg">
<path fill-rule="evenodd" clip-rule="evenodd" d="M17.4571 4.7506C17.1421 4.43562 16.6035 4.6587 16.6035 5.10415V9.69853C16.6035 9.97467 16.3797 10.1985 16.1035 10.1985H8.70155C8.42541 10.1985 8.20155 10.4224 8.20155 10.6985V22.3015C8.20155 22.5776 8.42541 22.8015 8.70155 22.8015H16.1035C16.3797 22.8015 16.6035 23.0253 16.6035 23.3015V27.8959C16.6035 28.3413 17.1421 28.5644 17.4571 28.2494L28.8529 16.8536C29.0482 16.6583 29.0482 16.3417 28.8529 16.1465L17.4571 4.7506ZM5.00049 10.1985C5.00049 9.64623 4.55277 9.19851 4.00049 9.19851C3.4482 9.19851 3.00049 9.64623 3.00049 10.1985V22.8015C3.00049 23.3538 3.4482 23.8015 4.00049 23.8015C4.55277 23.8015 5.00049 23.3538 5.00049 22.8015V10.1985Z" fill="#111827"/>
</svg>
