<svg width="32" height="33" viewBox="0 0 32 33" fill="none" xmlns="http://www.w3.org/2000/svg">
<path fill-rule="evenodd" clip-rule="evenodd" d="M24.4644 7.67156C24.0739 7.28103 23.4407 7.28103 23.0502 7.67156C22.6597 8.06208 22.6597 8.69524 23.0502 9.08577L25.5858 11.6213H16C12.5522 11.6213 9.24558 12.991 6.80761 15.429C4.36964 17.8669 3 21.1735 3 24.6213C3 25.1736 3.44772 25.6213 4 25.6213C4.55228 25.6213 5 25.1736 5 24.6213C5 21.704 6.15893 18.9061 8.22183 16.8432C10.2847 14.7803 13.0826 13.6213 16 13.6213H25.5857L23.0502 16.1568C22.6597 16.5474 22.6597 17.1805 23.0502 17.571C23.4407 17.9616 24.0739 17.9616 24.4644 17.571L28.7 13.3355C28.7289 13.3072 28.7561 13.2771 28.7814 13.2455C28.8274 13.188 28.8662 13.1265 28.8977 13.0624C28.9632 12.9294 29 12.7796 29 12.6213C29 12.4775 28.9696 12.3407 28.9149 12.2171C28.8676 12.1099 28.8005 12.0093 28.7136 11.9208C28.7113 11.9185 28.7091 11.9162 28.7068 11.9139M24.4644 7.67156L28.7068 11.9139L24.4644 7.67156Z" fill="#111827"/>
</svg>
