<svg width="32" height="32" viewBox="0 0 32 32" fill="none" xmlns="http://www.w3.org/2000/svg">
<path fill-rule="evenodd" clip-rule="evenodd" d="M11.0714 10.3431C11.4619 9.95257 11.4619 9.3194 11.0714 8.92888C10.6808 8.53836 10.0477 8.53836 9.65715 8.92888L3.30779 15.2782C3.11809 15.4602 3 15.7163 3 15.9999C3 16.2834 3.11791 16.5393 3.30736 16.7212L9.65715 23.071C10.0477 23.4615 10.6808 23.4615 11.0714 23.071C11.4619 22.6805 11.4619 22.0473 11.0714 21.6568L6.4145 16.9999H28C28.5523 16.9999 29 16.5522 29 15.9999C29 15.4477 28.5523 14.9999 28 14.9999H6.41452L11.0714 10.3431Z" fill="#111827"/>
</svg>
