<svg width="32" height="33" viewBox="0 0 32 33" fill="none" xmlns="http://www.w3.org/2000/svg">
<path fill-rule="evenodd" clip-rule="evenodd" d="M13.8628 10.6598C14.2533 11.0503 14.2533 11.6835 13.8628 12.074C13.4723 12.4646 12.8391 12.4646 12.4486 12.074L9.57804 9.20347V25.2108H27.9995C28.5518 25.2108 28.9995 25.6585 28.9995 26.2108C28.9995 26.763 28.5518 27.2108 27.9995 27.2108H8.57804C8.02575 27.2108 7.57804 26.763 7.57804 26.2108V9.20345L4.70745 12.074C4.31693 12.4646 3.68377 12.4646 3.29324 12.074C2.90272 11.6835 2.90272 11.0503 3.29324 10.6598L7.87093 6.08214C7.97674 5.97633 8.10036 5.89919 8.23214 5.85071C8.31684 5.81949 8.40691 5.7994 8.50061 5.79223C8.64534 5.78106 8.79203 5.80126 8.92964 5.85284C9.05928 5.90143 9.18086 5.97786 9.28514 6.08214L13.8628 10.6598Z" fill="#111827"/>
</svg>
