<svg width="32" height="32" viewBox="0 0 32 32" fill="none" xmlns="http://www.w3.org/2000/svg">
<path fill-rule="evenodd" clip-rule="evenodd" d="M10.2559 11.6702C10.6465 12.0608 11.2796 12.0608 11.6701 11.6702C12.0607 11.2797 12.0607 10.6465 11.6701 10.256L3.41395 1.99982H8.55508C9.10736 1.99982 9.55508 1.55211 9.55508 0.999824C9.55508 0.447539 9.10736 -0.000176464 8.55508 -0.000176464L1.01134 -0.000176491C0.751544 -0.00318914 0.490797 0.0944195 0.292567 0.292649C0.0909345 0.494282 -0.00659273 0.760596 -1.48174e-05 1.0248L-1.48031e-05 8.55492C-1.48031e-05 9.1072 0.4477 9.55492 0.999985 9.55492C1.55227 9.55492 1.99999 9.1072 1.99999 8.55492V3.41428L10.2559 11.6702ZM22.4449 0.999859C22.4449 0.447574 22.8926 -0.000141156 23.4449 -0.000141156H31C31.0335 -0.000141156 31.0666 0.00150969 31.0993 0.00473454C31.3214 0.0266381 31.5376 0.122651 31.7077 0.292773C31.9122 0.49724 32.0096 0.76822 32 1.03607V8.55495C32 9.10724 31.5522 9.55495 31 9.55495C30.4477 9.55495 30 9.10724 30 8.55495V3.41475L21.7443 11.6704C21.3538 12.0609 20.7206 12.0609 20.3301 11.6704C19.9396 11.2799 19.9396 10.6467 20.3301 10.2562L28.5864 1.99986H23.4449C22.8926 1.99986 22.4449 1.55214 22.4449 0.999859ZM0.999512 22.4451C1.5518 22.4451 1.99951 22.8928 1.99951 23.4451V28.586L10.2559 20.3296C10.6465 19.9391 11.2796 19.9391 11.6702 20.3296C12.0607 20.7201 12.0607 21.3533 11.6702 21.7438L3.41379 30.0002H8.5546C9.10689 30.0002 9.5546 30.4479 9.5546 31.0002C9.5546 31.5525 9.10689 32.0002 8.5546 32.0002H0.999512C0.447227 32.0002 -0.000488281 31.5525 -0.000488281 31.0002V23.4451C-0.000488281 22.8928 0.447227 22.4451 0.999512 22.4451ZM31 22.445C31.5522 22.445 32 22.8927 32 23.445V30.9657C32.0091 31.2329 31.9116 31.5031 31.7077 31.7071C31.5638 31.851 31.387 31.9419 31.2015 31.9797C31.1364 31.9931 31.069 32.0001 31 32.0001H23.4449C22.8926 32.0001 22.4449 31.5523 22.4449 31.0001C22.4449 30.4478 22.8926 30.0001 23.4449 30.0001H28.5864L20.33 21.7437C19.9395 21.3532 19.9395 20.7201 20.33 20.3295C20.7206 19.939 21.3537 19.939 21.7443 20.3295L30 28.5852V23.445C30 22.8927 30.4477 22.445 31 22.445Z" fill="#111827"/>
</svg>
