<svg width="32" height="33" viewBox="0 0 32 33" fill="none" xmlns="http://www.w3.org/2000/svg">
<path fill-rule="evenodd" clip-rule="evenodd" d="M21.7085 12.2056C22.0991 11.8151 22.0991 11.182 21.7085 10.7914C21.318 10.4009 20.6848 10.4009 20.2943 10.7914L11.9987 19.087V13.5015C11.9987 12.9492 11.551 12.5015 10.9987 12.5015C10.4465 12.5015 9.99874 12.9492 9.99874 13.5015L9.99874 21.4811C9.99344 21.7438 10.091 22.0081 10.2914 22.2085C10.3988 22.3159 10.5245 22.3938 10.6585 22.4421C10.7647 22.4805 10.8793 22.5015 10.9987 22.5015H18.9987C19.551 22.5015 19.9987 22.0538 19.9987 21.5015C19.9987 20.9492 19.551 20.5015 18.9987 20.5015H13.4127L21.7085 12.2056Z" fill="#111827"/>
</svg>
