<svg width="32" height="32" viewBox="0 0 32 32" fill="none" xmlns="http://www.w3.org/2000/svg">
<path fill-rule="evenodd" clip-rule="evenodd" d="M4.25048 14.5429C3.93549 14.8579 4.15858 15.3965 4.60403 15.3965H9.1984C9.47455 15.3965 9.6984 15.6203 9.6984 15.8965V23.2984C9.6984 23.5746 9.92226 23.7984 10.1984 23.7984H21.8014C22.0775 23.7984 22.3014 23.5746 22.3014 23.2984V15.8965C22.3014 15.6203 22.5252 15.3965 22.8014 15.3965H27.3957C27.8412 15.3965 28.0643 14.8579 27.7493 14.5429L16.3534 3.14706C16.1582 2.9518 15.8416 2.95179 15.6463 3.14706L4.25048 14.5429ZM9.69827 26.9994C9.14599 26.9994 8.69827 27.4472 8.69827 27.9994C8.69827 28.5517 9.14599 28.9994 9.69827 28.9994H22.3012C22.8535 28.9994 23.3012 28.5517 23.3012 27.9994C23.3012 27.4472 22.8535 26.9994 22.3012 26.9994H9.69827Z" fill="#111827"/>
</svg>
