<svg width="32" height="32" viewBox="0 0 32 32" fill="none" xmlns="http://www.w3.org/2000/svg">
<path fill-rule="evenodd" clip-rule="evenodd" d="M3.46532 8.15606C3.38594 8.20652 3.31416 8.26786 3.25207 8.33799C3.19898 8.39786 3.15425 8.46272 3.11794 8.53101C3.04333 8.67103 3.00104 8.83088 3.00104 9.00061V15.0001C3.00104 15.5524 3.44876 16.0001 4.00104 16.0001C4.55333 16.0001 5.00104 15.5524 5.00104 15.0001V11.5582L16.1883 23.6777C16.3776 23.8827 16.644 23.9994 16.9231 23.9994C17.2022 23.9994 17.4686 23.8827 17.6579 23.6777L28.7338 11.6787C29.1084 11.2729 29.0831 10.6402 28.6773 10.2656C28.2715 9.89103 27.6388 9.91633 27.2642 10.3222L16.9231 21.5251L6.28511 10.0006H10.0005C10.5528 10.0006 11.0005 9.5529 11.0005 9.00061C11.0005 8.44833 10.5528 8.00061 10.0005 8.00061H4.00405H4.00104C3.98643 8.00061 3.97191 8.00092 3.95745 8.00154" fill="#111827"/>
</svg>
