<svg width="32" height="33" viewBox="0 0 32 33" fill="none" xmlns="http://www.w3.org/2000/svg">
<path fill-rule="evenodd" clip-rule="evenodd" d="M11 6.37866C8.87827 6.37866 6.84344 7.22152 5.34315 8.72181C3.84285 10.2221 3 12.2569 3 14.3787V14.3787C3 15.4292 3.20693 16.4695 3.60896 17.4401C4.011 18.4107 4.60027 19.2927 5.34314 20.0355C6.08601 20.7784 6.96792 21.3677 7.93852 21.7697C8.90913 22.1717 9.94941 22.3787 11 22.3787H25.5858L23.0502 24.9142C22.6597 25.3047 22.6597 25.9379 23.0502 26.3284C23.4407 26.719 24.0739 26.719 24.4644 26.3284L28.7045 22.0884C28.7142 22.0788 28.7237 22.0689 28.733 22.0589C28.8094 21.9767 28.8694 21.8848 28.913 21.7873C28.9689 21.6625 29 21.5242 29 21.3787C29 21.2225 28.9642 21.0747 28.9004 20.9431C28.8667 20.8734 28.8244 20.8068 28.7736 20.7449C28.7507 20.717 28.7262 20.6903 28.7005 20.665L24.4644 16.4289C24.0739 16.0384 23.4407 16.0384 23.0502 16.4289C22.6597 16.8195 22.6597 17.4526 23.0502 17.8432L25.5857 20.3787H11C10.2121 20.3787 9.43184 20.2235 8.70389 19.9219C7.97594 19.6204 7.3145 19.1785 6.75735 18.6213C6.2002 18.0642 5.75825 17.4027 5.45672 16.6748C5.15519 15.9468 5 15.1666 5 14.3787V14.3787C5 12.7874 5.63214 11.2612 6.75736 10.136C7.88258 9.0108 9.4087 8.37866 11 8.37866H22C22.5523 8.37866 23 7.93095 23 7.37866C23 6.82638 22.5523 6.37866 22 6.37866H11Z" fill="#111827"/>
</svg>
