<svg width="33" height="33" viewBox="0 0 33 33" fill="none" xmlns="http://www.w3.org/2000/svg">
<path d="M6.16731 16.2829C5.72186 16.2829 5.49878 15.7443 5.81376 15.4293L16.6067 4.63645C16.8019 4.44119 17.1185 4.44119 17.3138 4.63645L28.1067 15.4293C28.4216 15.7443 28.1986 16.2829 27.7531 16.2829H23.4602C23.1841 16.2829 22.9602 16.5068 22.9602 16.7829V27.2829C22.9602 27.5481 22.8548 27.8025 22.6673 27.99C22.4798 28.1775 22.2254 28.2829 21.9602 28.2829H11.9602C11.695 28.2829 11.4406 28.1775 11.2531 27.99C11.0656 27.8025 10.9602 27.5481 10.9602 27.2829V16.7829C10.9602 16.5068 10.7363 16.2829 10.4602 16.2829H6.16731Z" fill="#1C1B1F"/>
</svg>
