<svg width="33" height="33" viewBox="0 0 33 33" fill="none" xmlns="http://www.w3.org/2000/svg">
<path fill-rule="evenodd" clip-rule="evenodd" d="M6.96021 4.2829C5.85564 4.2829 4.96021 5.17833 4.96021 6.2829V26.2829C4.96021 27.3875 5.85564 28.2829 6.9602 28.2829H26.9602C28.0648 28.2829 28.9602 27.3875 28.9602 26.2829V6.2829C28.9602 5.17833 28.0648 4.2829 26.9602 4.2829H6.96021ZM10.9602 16.2829C10.9602 16.139 10.9906 16.0022 11.0453 15.8786C11.0847 15.7894 11.1377 15.7048 11.2045 15.6279C11.2217 15.6081 11.2397 15.5889 11.2584 15.5705L15.4957 11.3332C15.8862 10.9426 16.5194 10.9426 16.9099 11.3332C17.3004 11.7237 17.3004 12.3568 16.9099 12.7474L14.3744 15.2829H21.9602C22.5125 15.2829 22.9602 15.7306 22.9602 16.2829C22.9602 16.8351 22.5125 17.2829 21.9602 17.2829H14.3744L16.9099 19.8184C17.3004 20.209 17.3004 20.8421 16.9099 21.2326C16.5194 21.6232 15.8862 21.6232 15.4957 21.2326L11.2531 16.99C11.1544 16.8914 11.0807 16.7772 11.0319 16.6555C10.9856 16.5403 10.9602 16.4146 10.9602 16.2829Z" fill="#1C1B1F"/>
</svg>
