<svg width="32" height="33" viewBox="0 0 32 33" fill="none" xmlns="http://www.w3.org/2000/svg">
<path fill-rule="evenodd" clip-rule="evenodd" d="M2 0.5C0.895431 0.5 0 1.39543 0 2.5V30.5C0 31.6046 0.895431 32.5 2 32.5H30C31.1046 32.5 32 31.6046 32 30.5V2.5C32 1.39543 31.1046 0.5 30 0.5H2ZM21.4211 21.9211C21.5392 21.803 21.6215 21.6628 21.6682 21.5137C21.6999 21.4126 21.7151 21.3075 21.7139 21.2024V13.214C21.7139 12.6617 21.2662 12.214 20.7139 12.214C20.1616 12.214 19.7139 12.6617 19.7139 13.214V18.7997L11.993 11.0788C11.6025 10.6883 10.9693 10.6883 10.5788 11.0788C10.1882 11.4693 10.1882 12.1025 10.5788 12.493L18.2998 20.214H12.7139C12.1616 20.214 11.7139 20.6617 11.7139 21.214C11.7139 21.7663 12.1616 22.214 12.7139 22.214H20.7139L20.7186 22.214C20.8417 22.2134 20.9596 22.1906 21.0684 22.1494C21.197 22.1007 21.3176 22.0246 21.4211 21.9211Z" fill="#111827"/>
</svg>
