<svg width="32" height="33" viewBox="0 0 32 33" fill="none" xmlns="http://www.w3.org/2000/svg">
<path fill-rule="evenodd" clip-rule="evenodd" d="M18.8143 12.2713C18.4238 12.6619 18.4238 13.295 18.8143 13.6856C19.2048 14.0761 19.838 14.0761 20.2285 13.6856L26.9979 6.91615V10.5383C26.9979 11.0906 27.4456 11.5383 27.9979 11.5383C28.5502 11.5383 28.9979 11.0906 28.9979 10.5383V4.52803C29.0049 4.26337 28.9074 3.99647 28.7054 3.79448C28.5065 3.59562 28.2447 3.49802 27.9841 3.50169L21.9613 3.50169C21.409 3.50169 20.9613 3.9494 20.9613 4.50169C20.9613 5.05397 21.409 5.50169 21.9613 5.50169H25.584L18.8143 12.2713ZM4.00171 21.4616C4.55399 21.4616 5.00171 21.9093 5.00171 22.4616V26.0844L11.7716 19.3145C12.1621 18.924 12.7953 18.924 13.1858 19.3145C13.5763 19.705 13.5763 20.3382 13.1858 20.7287L6.41629 27.4983H10.0384C10.5907 27.4983 11.0384 27.946 11.0384 28.4983C11.0384 29.0506 10.5907 29.4983 10.0384 29.4983H4.02072C3.76817 29.503 3.51417 29.4126 3.31704 29.2271C3.24606 29.1604 3.18483 29.0835 3.1357 28.9986C3.05049 28.8515 3.00171 28.6806 3.00171 28.4983V22.4616C3.00171 21.9093 3.44942 21.4616 4.00171 21.4616Z" fill="#111827"/>
</svg>
