<svg width="33" height="33" viewBox="0 0 33 33" fill="none" xmlns="http://www.w3.org/2000/svg">
<path fill-rule="evenodd" clip-rule="evenodd" d="M6.96021 4.2829C5.85564 4.2829 4.96021 5.17833 4.96021 6.2829V26.2829C4.96021 27.3875 5.85564 28.2829 6.9602 28.2829H26.9602C28.0648 28.2829 28.9602 27.3875 28.9602 26.2829V6.2829C28.9602 5.17833 28.0648 4.2829 26.9602 4.2829H6.96021ZM16.9602 10.2829C17.1041 10.2829 17.2409 10.3133 17.3645 10.368C17.4537 10.4074 17.5383 10.4604 17.6151 10.5272C17.635 10.5444 17.6542 10.5624 17.6726 10.5811L21.9099 14.8184C22.3004 15.209 22.3004 15.8421 21.9099 16.2326C21.5194 16.6232 20.8862 16.6232 20.4957 16.2326L17.9602 13.6972V21.2829C17.9602 21.8352 17.5125 22.2829 16.9602 22.2829C16.4079 22.2829 15.9602 21.8352 15.9602 21.2829V13.6971L13.4246 16.2326C13.0341 16.6232 12.4009 16.6232 12.0104 16.2326C11.6199 15.8421 11.6199 15.209 12.0104 14.8184L16.2531 10.5758C16.3517 10.4772 16.4658 10.4034 16.5876 10.3546C16.7028 10.3084 16.8285 10.2829 16.9602 10.2829Z" fill="#1C1B1F"/>
</svg>
