<svg width="32" height="32" viewBox="0 0 32 32" fill="none" xmlns="http://www.w3.org/2000/svg">
<path fill-rule="evenodd" clip-rule="evenodd" d="M4.00049 4.09155C4.55277 4.09155 5.00049 4.53927 5.00049 5.09155V26.9084C5.00049 27.4607 4.55277 27.9084 4.00049 27.9084C3.4482 27.9084 3.00049 27.4607 3.00049 26.9084V5.09155C3.00049 4.53927 3.4482 4.09155 4.00049 4.09155ZM13.6996 10.6649C14.0901 11.0554 14.0901 11.6885 13.6996 12.0791L10.7787 15H27.9994C28.5517 15 28.9994 15.4477 28.9994 16C28.9994 16.5523 28.5517 17 27.9994 17H10.7787L13.6996 19.9209C14.0901 20.3115 14.0901 20.9446 13.6996 21.3352C13.3091 21.7257 12.6759 21.7257 12.2854 21.3352L7.66976 16.7195C7.48138 16.5377 7.36423 16.2825 7.36423 16C7.36423 15.7171 7.48166 15.4617 7.67043 15.2798L12.2854 10.6649C12.6759 10.2743 13.3091 10.2743 13.6996 10.6649Z" fill="#111827"/>
</svg>
