<svg width="32" height="33" viewBox="0 0 32 33" fill="none" xmlns="http://www.w3.org/2000/svg">
<path fill-rule="evenodd" clip-rule="evenodd" d="M28.0004 4.59082C28.5527 4.59082 29.0004 5.03854 29.0004 5.59082V27.4093C29.0004 27.9616 28.5527 28.4093 28.0004 28.4093C27.4482 28.4093 27.0004 27.9616 27.0004 27.4093V5.59082C27.0004 5.03854 27.4482 4.59082 28.0004 4.59082ZM17.2724 10.1362C17.6629 9.74563 18.2961 9.74563 18.6866 10.1362L24.2814 15.7309C24.4902 15.9075 24.6256 16.168 24.6356 16.4604C24.6462 16.7294 24.5488 17.0019 24.3435 17.2072L18.6866 22.8641C18.2961 23.2546 17.6629 23.2546 17.2724 22.8641C16.8819 22.4736 16.8819 21.8404 17.2724 21.4499L21.2273 17.4949H3.99951C3.44723 17.4949 2.99951 17.0472 2.99951 16.4949C2.99951 15.9427 3.44723 15.4949 3.99951 15.4949H21.217L17.2724 11.5504C16.8819 11.1598 16.8819 10.5267 17.2724 10.1362Z" fill="#111827"/>
</svg>
