<svg width="32" height="32" viewBox="0 0 32 32" fill="none" xmlns="http://www.w3.org/2000/svg">
<path fill-rule="evenodd" clip-rule="evenodd" d="M9.69827 3.00061C9.14599 3.00061 8.69827 3.44833 8.69827 4.00061C8.69827 4.5529 9.14599 5.00061 9.69827 5.00061H22.3012C22.8535 5.00061 23.3012 4.5529 23.3012 4.00061C23.3012 3.44833 22.8535 3.00061 22.3012 3.00061H9.69827ZM4.25048 17.4571C3.93549 17.1422 4.15858 16.6036 4.60403 16.6036H9.19841C9.47455 16.6036 9.69841 16.3797 9.69841 16.1036V8.70161C9.69841 8.42547 9.92226 8.20161 10.1984 8.20161H21.8014C22.0775 8.20161 22.3014 8.42547 22.3014 8.70161V16.1036C22.3014 16.3797 22.5252 16.6036 22.8014 16.6036H27.3957C27.8412 16.6036 28.0643 17.1422 27.7493 17.4571L16.3534 28.853C16.1582 29.0483 15.8416 29.0483 15.6463 28.853L4.25048 17.4571Z" fill="#111827"/>
</svg>
