<svg width="32" height="32" viewBox="0 0 32 32" fill="none" xmlns="http://www.w3.org/2000/svg">
<path fill-rule="evenodd" clip-rule="evenodd" d="M28.5295 8.15279C28.6118 8.20441 28.6861 8.26768 28.75 8.3403C28.8014 8.39862 28.8449 8.46164 28.8804 8.52791C28.956 8.66866 28.999 8.82963 28.999 9.00061V15.0001C28.999 15.5524 28.5512 16.0001 27.999 16.0001C27.4467 16.0001 26.999 15.5524 26.999 15.0001V11.5582L15.8117 23.6777C15.6224 23.8827 15.356 23.9994 15.0769 23.9994C14.7978 23.9994 14.5314 23.8827 14.3421 23.6777L3.26618 11.6787C2.89157 11.2729 2.91688 10.6402 3.3227 10.2656C3.72852 9.89103 4.36118 9.91633 4.73579 10.3222L15.0769 21.5251L25.7149 10.0006H21.9995C21.4472 10.0006 20.9995 9.5529 20.9995 9.00061C20.9995 8.44833 21.4472 8.00061 21.9995 8.00061H27.996H27.999C28.0135 8.00061 28.0279 8.00092 28.0422 8.00153" fill="#111827"/>
</svg>
