<svg width="32" height="32" viewBox="0 0 32 32" fill="none" xmlns="http://www.w3.org/2000/svg">
<path fill-rule="evenodd" clip-rule="evenodd" d="M32 16C32 24.8366 24.8366 32 16 32C7.16344 32 0 24.8366 0 16C0 7.16344 7.16344 0 16 0C24.8366 0 32 7.16344 32 16ZM22.364 15.6973C21.9735 16.0879 21.3403 16.0879 20.9498 15.6973L17 11.7475V22.6667C17 23.219 16.5523 23.6667 16 23.6667C15.4477 23.6667 15 23.219 15 22.6667L15 11.7476L11.0503 15.6973C10.6598 16.0879 10.0266 16.0879 9.63609 15.6973C9.24556 15.3068 9.24556 14.6737 9.63609 14.2831L15.2848 8.63445C15.3191 8.59929 15.3561 8.56664 15.3953 8.53683C15.4405 8.5024 15.488 8.47234 15.5372 8.44665C15.6756 8.37427 15.833 8.33333 16 8.33333C16.1461 8.33333 16.2848 8.36465 16.4099 8.42095C16.5177 8.46933 16.6187 8.53778 16.7072 8.62627L22.364 14.2831C22.7545 14.6737 22.7545 15.3068 22.364 15.6973Z" fill="#111827"/>
</svg>
