<svg width="32" height="33" viewBox="0 0 32 33" fill="none" xmlns="http://www.w3.org/2000/svg">
<path fill-rule="evenodd" clip-rule="evenodd" d="M17.3843 10.9017C16.9961 10.5089 16.9961 9.87194 17.3843 9.4791L23.0073 3.78865C23.3845 3.40699 23.9893 3.39613 24.3794 3.75607C24.4033 3.77756 24.4262 3.8002 24.4479 3.82388L30.0362 9.4791C30.4243 9.87194 30.4243 10.5089 30.0362 10.9017C29.648 11.2946 29.0186 11.2946 28.6304 10.9017L24.7111 6.93544V28.5C24.7111 29.0523 24.2634 29.5 23.7111 29.5C23.1588 29.5 22.7111 29.0523 22.7111 28.5V6.93367L18.79 10.9017C18.4018 11.2946 17.7725 11.2946 17.3843 10.9017ZM9.27652 4.49998C9.27652 3.9477 8.82881 3.49998 8.27652 3.49998C7.72424 3.49998 7.27652 3.9477 7.27652 4.49998V26.0524L3.36927 22.0983C2.98108 21.7055 2.3517 21.7055 1.96351 22.0983C1.57532 22.4911 1.57532 23.1281 1.96351 23.5209L7.47629 29.0998C7.59191 29.2538 7.75096 29.3733 7.93526 29.4402C8.29002 29.5769 8.70654 29.5006 8.99233 29.2114L14.6154 23.5209C15.0036 23.1281 15.0036 22.4911 14.6154 22.0983C14.2272 21.7055 13.5978 21.7055 13.2096 22.0983L9.27652 26.0785V4.49998Z" fill="#111827"/>
</svg>
