<svg width="32" height="32" viewBox="0 0 32 32" fill="none" xmlns="http://www.w3.org/2000/svg">
<path fill-rule="evenodd" clip-rule="evenodd" d="M26.711 4.00043C26.711 3.44814 26.2633 3.00043 25.711 3.00043C25.1587 3.00043 24.711 3.44814 24.711 4.00043V22.4219H8.70381L11.5743 19.5513C11.9649 19.1608 11.9649 18.5277 11.5743 18.1371C11.1838 17.7466 10.5506 17.7466 10.1601 18.1371L5.58712 22.7101C5.5719 22.7252 5.55716 22.7407 5.54292 22.7566C5.46716 22.8415 5.40839 22.9362 5.36661 23.0363C5.32298 23.1406 5.29652 23.2539 5.29076 23.3726C5.289 23.4085 5.28916 23.4444 5.29124 23.4803C5.29701 23.5804 5.3175 23.6765 5.35058 23.7666C5.39903 23.8988 5.47632 24.0229 5.58244 24.129L10.1601 28.7067C10.5506 29.0972 11.1838 29.0972 11.5743 28.7067C11.9649 28.3162 11.9649 27.683 11.5743 27.2925L8.70372 24.4219H25.711C26.2633 24.4219 26.711 23.9742 26.711 23.4219V4.00043Z" fill="#111827"/>
</svg>
