<svg width="32" height="33" viewBox="0 0 32 33" fill="none" xmlns="http://www.w3.org/2000/svg">
<path fill-rule="evenodd" clip-rule="evenodd" d="M24.4644 6.67156C24.0739 6.28103 23.4407 6.28103 23.0502 6.67156C22.6597 7.06208 22.6597 7.69524 23.0502 8.08577L25.5858 10.6213H11C9.94941 10.6213 8.90913 10.8283 7.93852 11.2303C6.96792 11.6323 6.08601 12.2216 5.34314 12.9645C4.60027 13.7073 4.011 14.5893 3.60896 15.5599C3.20693 16.5305 3 17.5708 3 18.6213V18.6213C3 20.7431 3.84285 22.7779 5.34315 24.2782C6.84344 25.7785 8.87827 26.6213 11 26.6213H22C22.5523 26.6213 23 26.1736 23 25.6213C23 25.0691 22.5523 24.6213 22 24.6213H11C9.4087 24.6213 7.88258 23.9892 6.75736 22.864C5.63214 21.7388 5 20.2126 5 18.6213V18.6213C5 17.8334 5.15519 17.0532 5.45672 16.3252C5.75825 15.5973 6.2002 14.9358 6.75735 14.3787C7.31451 13.8215 7.97594 13.3796 8.70389 13.0781C9.43184 12.7765 10.2121 12.6213 11 12.6213H25.5857L23.0502 15.1568C22.6597 15.5474 22.6597 16.1805 23.0502 16.571C23.4407 16.9616 24.0739 16.9616 24.4644 16.571L28.7 12.3355C28.7289 12.3072 28.7561 12.2771 28.7814 12.2455C28.8274 12.188 28.8662 12.1265 28.8977 12.0624C28.9632 11.9294 29 11.7796 29 11.6213C29 11.4775 28.9696 11.3407 28.9149 11.2171C28.8676 11.1099 28.8005 11.0093 28.7136 10.9208C28.7113 10.9185 28.7091 10.9162 28.7068 10.9139M24.4644 6.67156L28.7068 10.9139L24.4644 6.67156Z" fill="#111827"/>
</svg>
