<svg width="32" height="33" viewBox="0 0 32 33" fill="none" xmlns="http://www.w3.org/2000/svg">
<path fill-rule="evenodd" clip-rule="evenodd" d="M7.1718 8.03553C6.78128 8.42606 6.78128 9.05922 7.1718 9.44975C7.56232 9.84027 8.19549 9.84027 8.58601 9.44975L11.1216 6.91418V16.5C11.1216 19.9478 12.4912 23.2544 14.9292 25.6924C17.3672 28.1304 20.6738 29.5 24.1216 29.5C24.6739 29.5 25.1216 29.0523 25.1216 28.5C25.1216 27.9477 24.6739 27.5 24.1216 27.5C21.2042 27.5 18.4063 26.3411 16.3434 24.2782C14.2805 22.2153 13.1216 19.4174 13.1216 16.5V6.91425L15.6571 9.44975C16.0476 9.84027 16.6808 9.84027 17.0713 9.44975C17.4618 9.05922 17.4618 8.42606 17.0713 8.03553L12.8313 3.79554C12.8239 3.78806 12.8163 3.7807 12.8087 3.77345C12.7137 3.6835 12.6053 3.61574 12.4902 3.57017C12.3955 3.53258 12.2937 3.50905 12.1873 3.50215C12.1407 3.4991 12.094 3.4993 12.0474 3.50273C11.9552 3.5095 11.8664 3.52878 11.7827 3.5589C11.6483 3.60719 11.5221 3.68519 11.4144 3.79289L7.1718 8.03553Z" fill="#111827"/>
</svg>
