<svg width="32" height="33" viewBox="0 0 32 33" fill="none" xmlns="http://www.w3.org/2000/svg">
<path fill-rule="evenodd" clip-rule="evenodd" d="M24.1216 3.5C20.6738 3.5 17.3672 4.86964 14.9292 7.30761C12.4912 9.74558 11.1216 13.0522 11.1216 16.5V26.0858L8.58601 23.5503C8.19549 23.1598 7.56232 23.1598 7.1718 23.5503C6.78128 23.9408 6.78128 24.574 7.1718 24.9645L11.4144 29.2071C11.522 29.3147 11.648 29.3926 11.7822 29.4409C11.8659 29.4711 11.9548 29.4905 12.0471 29.4973C12.0936 29.5007 12.1402 29.5009 12.1866 29.4979C12.4118 29.4833 12.633 29.3929 12.8087 29.2266C12.8163 29.2193 12.8239 29.212 12.8313 29.2045L17.0713 24.9645C17.4618 24.574 17.4618 23.9408 17.0713 23.5503C16.6808 23.1598 16.0476 23.1598 15.6571 23.5503L13.1216 26.0858V16.5C13.1216 13.5826 14.2805 10.7847 16.3434 8.72183C18.4063 6.65893 21.2042 5.5 24.1216 5.5C24.6739 5.5 25.1216 5.05228 25.1216 4.5C25.1216 3.94772 24.6739 3.5 24.1216 3.5Z" fill="#111827"/>
</svg>
