<svg width="32" height="32" viewBox="0 0 32 32" fill="none" xmlns="http://www.w3.org/2000/svg">
<path fill-rule="evenodd" clip-rule="evenodd" d="M7.26606 3.05843C7.37066 3.02131 7.48328 3.0011 7.60061 3.0011H14.8001C15.3524 3.0011 15.8001 3.44881 15.8001 4.0011C15.8001 4.55338 15.3524 5.0011 14.8001 5.0011L10.0145 5.0011L25.1063 20.0929C25.4969 20.4834 25.4969 21.1166 25.1063 21.5071C24.7158 21.8977 24.0826 21.8977 23.6921 21.5071L8.60061 6.41562V11.2006C8.60061 11.7529 8.1529 12.2006 7.60061 12.2006C7.04833 12.2006 6.60061 11.7529 6.60061 11.2006V4.02386C6.59466 3.76042 6.69221 3.49508 6.89325 3.29404C7.00216 3.18513 7.12993 3.1066 7.26606 3.05843ZM3.00073 27.9989C3.00073 27.4466 3.44845 26.9989 4.00073 26.9989H27.9992C28.5514 26.9989 28.9992 27.4466 28.9992 27.9989C28.9992 28.5512 28.5514 28.9989 27.9992 28.9989H4.00073C3.44845 28.9989 3.00073 28.5512 3.00073 27.9989Z" fill="#111827"/>
</svg>
