<svg width="32" height="33" viewBox="0 0 32 33" fill="none" xmlns="http://www.w3.org/2000/svg">
<path fill-rule="evenodd" clip-rule="evenodd" d="M32 16.5C32 25.3366 24.8366 32.5 16 32.5C7.16344 32.5 0 25.3366 0 16.5C0 7.66344 7.16344 0.5 16 0.5C24.8366 0.5 32 7.66344 32 16.5ZM16.3027 10.136C15.9121 10.5266 15.9121 11.1597 16.3027 11.5503L20.2524 15.5H9.33333C8.78105 15.5 8.33333 15.9477 8.33333 16.5C8.33333 17.0523 8.78105 17.5 9.33333 17.5H20.2524L16.3027 21.4498C15.9121 21.8403 15.9121 22.4734 16.3027 22.864C16.6932 23.2545 17.3263 23.2545 17.7169 22.864L23.3676 17.2132C23.3918 17.1895 23.4147 17.1645 23.4364 17.1384C23.4886 17.0756 23.532 17.0078 23.5665 16.9369C23.6307 16.8049 23.6667 16.6566 23.6667 16.5C23.6667 16.346 23.6319 16.2002 23.5697 16.0699C23.533 15.9929 23.486 15.9196 23.4285 15.8522C23.4094 15.8297 23.3893 15.8082 23.3684 15.7875L17.7169 10.136C17.3263 9.74552 16.6932 9.74552 16.3027 10.136Z" fill="#111827"/>
</svg>
