<svg width="32" height="32" viewBox="0 0 32 32" fill="none" xmlns="http://www.w3.org/2000/svg">
<path fill-rule="evenodd" clip-rule="evenodd" d="M14.9998 6.41446V12.3586C14.9998 12.9109 15.4476 13.3586 15.9998 13.3586C16.5521 13.3586 16.9998 12.9109 16.9998 12.3586V6.41453L19.7254 9.14006C20.1159 9.53058 20.7491 9.53058 21.1396 9.14006C21.5301 8.74953 21.5301 8.11637 21.1396 7.72585L16.714 3.30022C16.6864 3.27214 16.6573 3.24568 16.6266 3.22099C16.5683 3.17399 16.506 3.1345 16.4409 3.10252C16.3079 3.03703 16.1581 3.00024 15.9998 3.00024C15.8562 3.00024 15.7196 3.03054 15.5961 3.08509C15.486 3.13362 15.3829 3.20298 15.2927 3.29317L10.86 7.72585C10.4695 8.11637 10.4695 8.74954 10.86 9.14006C11.2506 9.53058 11.8837 9.53058 12.2742 9.14006L14.9998 6.41446ZM4.552 16C4.552 15.4477 4.99972 15 5.552 15H26.4478C27.0001 15 27.4478 15.4477 27.4478 16C27.4478 16.5522 27.0001 17 26.4478 17H5.552C4.99972 17 4.552 16.5522 4.552 16ZM10.86 22.8598C11.2505 22.4693 11.8837 22.4693 12.2742 22.8598L14.9998 25.5854V19.6414C14.9998 19.0892 15.4475 18.6414 15.9998 18.6414C16.5521 18.6414 16.9998 19.0892 16.9998 19.6414V25.5854L19.7253 22.8598C20.1158 22.4693 20.749 22.4693 21.1395 22.8598C21.5301 23.2504 21.5301 23.8835 21.1395 24.2741L16.7183 28.6953C16.5365 28.8831 16.2818 28.9998 15.9998 28.9998C15.7191 28.9998 15.4653 28.8841 15.2837 28.6978L10.86 24.2741C10.4695 23.8835 10.4695 23.2504 10.86 22.8598Z" fill="#111827"/>
</svg>
