<svg width="32" height="33" viewBox="0 0 32 33" fill="none" xmlns="http://www.w3.org/2000/svg">
<path fill-rule="evenodd" clip-rule="evenodd" d="M16.3112 10.5473C16.2132 10.5153 16.1085 10.4979 15.9998 10.4979C15.7173 10.4979 15.4622 10.615 15.2804 10.8033L11.0502 15.0334C10.6597 15.424 10.6597 16.0571 11.0502 16.4477C11.4407 16.8382 12.0739 16.8382 12.4644 16.4477L14.9998 13.9123V21.5021C14.9998 22.0544 15.4475 22.5021 15.9998 22.5021C16.552 22.5021 16.9998 22.0544 16.9998 21.5021V13.9119L19.5355 16.4477C19.926 16.8382 20.5592 16.8382 20.9497 16.4477C21.3402 16.0571 21.3402 15.424 20.9497 15.0334L16.7071 10.7908C16.592 10.6758 16.4559 10.5946 16.3112 10.5473Z" fill="#111827"/>
</svg>
