<svg width="32" height="32" viewBox="0 0 32 32" fill="none" xmlns="http://www.w3.org/2000/svg">
<path fill-rule="evenodd" clip-rule="evenodd" d="M24.4644 6.17156C24.0739 5.78103 23.4407 5.78103 23.0502 6.17156C22.6597 6.56208 22.6597 7.19524 23.0502 7.58577L25.5858 10.1213H11C9.94941 10.1213 8.90913 10.3283 7.93852 10.7303C6.96792 11.1323 6.08601 11.7216 5.34314 12.4645C4.60027 13.2073 4.011 14.0893 3.60896 15.0599C3.20693 16.0305 3 17.0708 3 18.1213V18.1213C3 20.2431 3.84285 22.2779 5.34315 23.7782C6.84344 25.2785 8.87827 26.1213 11 26.1213H22C22.5523 26.1213 23 25.6736 23 25.1213C23 24.5691 22.5523 24.1213 22 24.1213H11C9.4087 24.1213 7.88258 23.4892 6.75736 22.364C5.63214 21.2388 5 19.7126 5 18.1213V18.1213C5 17.3334 5.15519 16.5532 5.45672 15.8252C5.75825 15.0973 6.2002 14.4358 6.75735 13.8787C7.31451 13.3215 7.97594 12.8796 8.70389 12.5781C9.43184 12.2765 10.2121 12.1213 11 12.1213H25.5857L23.0502 14.6568C22.6597 15.0474 22.6597 15.6805 23.0502 16.071C23.4407 16.4616 24.0739 16.4616 24.4644 16.071L28.7 11.8355C28.7289 11.8072 28.7561 11.7771 28.7814 11.7455C28.8274 11.688 28.8662 11.6265 28.8977 11.5624C28.9632 11.4294 29 11.2796 29 11.1213C29 10.9775 28.9696 10.8407 28.9149 10.7171C28.8676 10.6099 28.8005 10.5093 28.7136 10.4208C28.7113 10.4185 28.7091 10.4162 28.7068 10.4139M24.4644 6.17156L28.7068 10.4139L24.4644 6.17156Z" fill="#111827"/>
</svg>
