<svg width="32" height="33" viewBox="0 0 32 33" fill="none" xmlns="http://www.w3.org/2000/svg">
<path fill-rule="evenodd" clip-rule="evenodd" d="M17.0498 7.67168C17.4403 7.28115 18.0734 7.28115 18.464 7.67168L22.6967 11.9044C22.8836 12.0861 22.9997 12.3402 22.9997 12.6214C22.9997 12.9053 22.8813 13.1616 22.6913 13.3436L18.464 17.571C18.0734 17.9615 17.4403 17.9615 17.0498 17.571C16.6592 17.1805 16.6592 16.5473 17.0498 16.1568L19.5851 13.6214H15.9998C13.0824 13.6214 10.2846 14.7803 8.22176 16.8432C6.1589 18.9061 5 21.7039 5 24.6212C5 25.1735 4.55228 25.6212 4 25.6212C3.44772 25.6212 3 25.1735 3 24.6212C3 21.1735 4.36961 17.8669 6.80754 15.429C9.24547 12.9911 12.552 11.6214 15.9998 11.6214H19.5853L17.0498 9.08589C16.6592 8.69537 16.6592 8.0622 17.0498 7.67168ZM24.4641 7.67168C24.0736 7.28115 23.4404 7.28115 23.0499 7.67168C22.6594 8.0622 22.6594 8.69537 23.0499 9.08589L26.5853 12.6213L23.0499 16.1568C22.6594 16.5473 22.6594 17.1805 23.0499 17.571C23.4404 17.9615 24.0736 17.9615 24.4641 17.571L28.7067 13.3285C29.0972 12.9379 29.0972 12.3048 28.7067 11.9142L24.4641 7.67168Z" fill="#111827"/>
</svg>
