<svg width="32" height="33" viewBox="0 0 32 33" fill="none" xmlns="http://www.w3.org/2000/svg">
<path fill-rule="evenodd" clip-rule="evenodd" d="M4.5 4.50024C4.5 3.94796 4.94772 3.50024 5.5 3.50024H26.4999C27.0522 3.50024 27.4999 3.94796 27.4999 4.50024C27.4999 5.05253 27.0522 5.50024 26.4999 5.50024H5.5C4.94772 5.50024 4.5 5.05253 4.5 4.50024ZM14.9999 11.115V28.4997C14.9999 29.052 15.4476 29.4997 15.9999 29.4997C16.5522 29.4997 16.9999 29.052 16.9999 28.4997V11.1147L20.9499 15.0646C21.3404 15.4551 21.9736 15.4551 22.3641 15.0646C22.7546 14.6741 22.7546 14.0409 22.3641 13.6504L16.7072 7.99352C16.4727 7.75898 16.1506 7.6653 15.8462 7.71248C15.7818 7.72241 15.7195 7.73847 15.6599 7.76004C15.5171 7.81166 15.3894 7.89486 15.2853 8.00119L9.63616 13.6504C9.24563 14.0409 9.24563 14.6741 9.63616 15.0646C10.0267 15.4551 10.6598 15.4551 11.0504 15.0646L14.9999 11.115Z" fill="#111827"/>
</svg>
