<svg width="32" height="32" viewBox="0 0 32 32" fill="none" xmlns="http://www.w3.org/2000/svg">
<path fill-rule="evenodd" clip-rule="evenodd" d="M8.69827 4.00061C8.69827 3.44833 9.14599 3.00061 9.69827 3.00061H22.3012C22.8535 3.00061 23.3012 3.44833 23.3012 4.00061C23.3012 4.5529 22.8535 5.00061 22.3012 5.00061H9.69827C9.14599 5.00061 8.69827 4.5529 8.69827 4.00061ZM4.60403 16.6036C4.15858 16.6036 3.93549 17.1422 4.25048 17.4572L15.6463 28.853C15.8416 29.0483 16.1582 29.0483 16.3534 28.853L27.7493 17.4572C28.0643 17.1422 27.8412 16.6036 27.3957 16.6036H22.8014C22.5252 16.6036 22.3014 16.3797 22.3014 16.1036V12.9026C22.3014 12.6265 22.0775 12.4026 21.8014 12.4026H10.1984C9.92226 12.4026 9.69841 12.6265 9.69841 12.9026V16.1036C9.69841 16.3797 9.47455 16.6036 9.19841 16.6036H4.60403ZM9.69827 7.20161C9.14599 7.20161 8.69827 7.64933 8.69827 8.20161C8.69827 8.7539 9.14599 9.20161 9.69827 9.20161H22.3012C22.8535 9.20161 23.3012 8.7539 23.3012 8.20161C23.3012 7.64933 22.8535 7.20161 22.3012 7.20161H9.69827Z" fill="#111827"/>
</svg>
