<svg width="32" height="32" viewBox="0 0 32 32" fill="none" xmlns="http://www.w3.org/2000/svg">
<path fill-rule="evenodd" clip-rule="evenodd" d="M2 0C0.895431 0 0 0.895431 0 2V30C0 31.1046 0.895431 32 2 32H30C31.1046 32 32 31.1046 32 30V2C32 0.895431 31.1046 0 30 0H2ZM21.4211 10.5788C21.5392 10.6969 21.6215 10.8372 21.6682 10.9862C21.6999 11.0873 21.7151 11.1925 21.7139 11.2975V19.2859C21.7139 19.8382 21.2662 20.2859 20.7139 20.2859C20.1616 20.2859 19.7139 19.8382 19.7139 19.2859V13.7002L11.993 21.4211C11.6025 21.8116 10.9693 21.8116 10.5788 21.4211C10.1882 21.0306 10.1882 20.3974 10.5788 20.0069L18.2998 12.2859H12.7139C12.1616 12.2859 11.7139 11.8382 11.7139 11.2859C11.7139 10.7336 12.1616 10.2859 12.7139 10.2859H20.7139L20.7186 10.2859C20.8417 10.2865 20.9596 10.3093 21.0684 10.3506C21.197 10.3992 21.3176 10.4753 21.4211 10.5788Z" fill="#111827"/>
</svg>
