<svg width="33" height="33" viewBox="0 0 33 33" fill="none" xmlns="http://www.w3.org/2000/svg">
<path fill-rule="evenodd" clip-rule="evenodd" d="M28.9602 16.2829C28.9602 22.9103 23.5876 28.2829 16.9602 28.2829C10.3328 28.2829 4.96021 22.9103 4.96021 16.2829C4.96021 9.65548 10.3328 4.2829 16.9602 4.2829C23.5876 4.2829 28.9602 9.65548 28.9602 16.2829ZM12.0105 16.3331C12.401 15.9426 13.0341 15.9426 13.4247 16.3331L15.9602 18.8686V11.2829C15.9602 10.7306 16.4079 10.2829 16.9602 10.2829C17.5125 10.2829 17.9602 10.7306 17.9602 11.2829V18.8686L20.4957 16.3331C20.8863 15.9426 21.5194 15.9426 21.91 16.3331C22.3005 16.7236 22.3005 17.3568 21.91 17.7473L17.6726 21.9847C17.653 22.0045 17.6326 22.0236 17.6115 22.0418C17.5415 22.102 17.4651 22.1509 17.3848 22.1885C17.2559 22.2491 17.112 22.2829 16.9602 22.2829C16.8106 22.2829 16.6686 22.25 16.5411 22.1911C16.4556 22.1516 16.3744 22.0995 16.3006 22.0345C16.2826 22.0187 16.2652 22.0023 16.2484 21.9853L12.0105 17.7473C11.6199 17.3568 11.6199 16.7236 12.0105 16.3331Z" fill="#1C1B1F"/>
</svg>
