<svg width="32" height="33" viewBox="0 0 32 33" fill="none" xmlns="http://www.w3.org/2000/svg">
<path fill-rule="evenodd" clip-rule="evenodd" d="M32 16.5C32 25.3366 24.8366 32.5 16 32.5C7.16344 32.5 0 25.3366 0 16.5C0 7.66344 7.16344 0.5 16 0.5C24.8366 0.5 32 7.66344 32 16.5ZM20.7142 20.786C20.1619 20.786 19.7142 20.3383 19.7142 19.786V14.2002L11.9932 21.9212C11.6027 22.3117 10.9695 22.3117 10.579 21.9212C10.1885 21.5306 10.1885 20.8975 10.579 20.5069L18.2999 12.786H12.7142C12.1619 12.786 11.7142 12.3383 11.7142 11.786C11.7142 11.2337 12.1619 10.786 12.7142 10.786H20.7051C20.7397 10.7857 20.7743 10.7872 20.8088 10.7904C20.8921 10.7982 20.9725 10.8163 21.0486 10.8433C21.1847 10.8915 21.3124 10.97 21.4213 11.0789C21.5218 11.1793 21.5964 11.2958 21.6452 11.4201C21.6897 11.5335 21.7142 11.6569 21.7142 11.786V19.786C21.7142 20.3383 21.2665 20.786 20.7142 20.786Z" fill="#111827"/>
</svg>
