<svg width="32" height="33" viewBox="0 0 32 33" fill="none" xmlns="http://www.w3.org/2000/svg">
<path fill-rule="evenodd" clip-rule="evenodd" d="M9.69827 3.50061C9.14599 3.50061 8.69827 3.94833 8.69827 4.50061C8.69827 5.0529 9.14599 5.50061 9.69827 5.50061H22.3012C22.8535 5.50061 23.3012 5.0529 23.3012 4.50061C23.3012 3.94833 22.8535 3.50061 22.3012 3.50061H9.69827ZM4.25048 17.9571C3.93549 17.6422 4.15858 17.1036 4.60403 17.1036H9.19841C9.47455 17.1036 9.69841 16.8797 9.69841 16.6036V9.20161C9.69841 8.92547 9.92226 8.70161 10.1984 8.70161H21.8014C22.0775 8.70161 22.3014 8.92547 22.3014 9.20161V16.6036C22.3014 16.8797 22.5252 17.1036 22.8014 17.1036H27.3957C27.8412 17.1036 28.0643 17.6422 27.7493 17.9571L16.3534 29.353C16.1582 29.5483 15.8416 29.5483 15.6463 29.353L4.25048 17.9571Z" fill="#111827"/>
</svg>
