<svg width="32" height="32" viewBox="0 0 32 32" fill="none" xmlns="http://www.w3.org/2000/svg">
<path fill-rule="evenodd" clip-rule="evenodd" d="M9.01573 3.42925C9.41091 3.81507 9.41091 4.4406 9.01573 4.82642L6.46634 7.31541H27.989C28.5413 7.31541 28.989 7.76313 28.989 8.31541C28.989 8.8677 28.5413 9.31541 27.989 9.31541H6.46618L9.01573 11.8046C9.41091 12.1904 9.41091 12.8159 9.01573 13.2017C8.62056 13.5875 7.97985 13.5875 7.58467 13.2017L3.32861 9.04649C3.31768 9.03628 3.30697 9.02583 3.29651 9.01515L3.29541 9.01407C2.90096 8.62897 2.90023 8.00505 3.2932 7.61907C3.30578 7.60611 3.3187 7.59349 3.33195 7.58123L7.58467 3.42925C7.97985 3.04344 8.62056 3.04344 9.01573 3.42925ZM4.01091 22.6844C3.45863 22.6844 3.01091 23.1321 3.01091 23.6844C3.01091 24.2367 3.45863 24.6844 4.01091 24.6844H25.5337L22.9842 27.1736C22.589 27.5594 22.589 28.1849 22.9842 28.5707C23.3793 28.9565 24.02 28.9565 24.4152 28.5707L28.6713 24.4155C28.6822 24.4053 28.6929 24.3948 28.7034 24.3842L28.7045 24.3831C29.0989 23.998 29.0997 23.3741 28.7067 22.9881C28.6941 22.9751 28.6812 22.9625 28.6679 22.9502L24.4152 18.7983C24.02 18.4124 23.3793 18.4124 22.9842 18.7983C22.589 19.1841 22.589 19.8096 22.9842 20.1954L25.5336 22.6844H4.01091Z" fill="#111827"/>
</svg>
