<svg width="32" height="32" viewBox="0 0 32 32" fill="none" xmlns="http://www.w3.org/2000/svg">
<path fill-rule="evenodd" clip-rule="evenodd" d="M21.5958 3.30609C21.414 3.11867 21.1595 3.0022 20.8778 3.0022C20.7605 3.0022 20.6479 3.0224 20.5433 3.05951C20.4072 3.10768 20.2795 3.18621 20.1706 3.2951L15.9287 7.53697C15.5382 7.9275 15.5382 8.56066 15.9287 8.95119C16.3192 9.34171 16.9524 9.34171 17.3429 8.95119L19.8778 6.41627V20.9991C19.8778 21.7869 19.7227 22.5669 19.4212 23.2947C19.1197 24.0225 18.6779 24.6838 18.1208 25.2409C17.5638 25.7979 16.9025 26.2398 16.1747 26.5412C15.4469 26.8427 14.6669 26.9978 13.8791 26.9978C12.2881 26.9978 10.7623 26.3658 9.63736 25.2409C8.51238 24.1159 7.88037 22.5901 7.88037 20.9991V10.0011C7.88037 9.44882 7.43266 9.00111 6.88037 9.00111C6.32809 9.00111 5.88037 9.44882 5.88037 10.0011V20.9991C5.88037 23.1205 6.72309 25.155 8.22315 26.6551C9.7232 28.1551 11.7577 28.9978 13.8791 28.9978C14.9295 28.9978 15.9696 28.7909 16.9401 28.389C17.9105 27.987 18.7923 27.3978 19.5351 26.6551C20.2778 25.9123 20.867 25.0306 21.269 24.0601C21.6709 23.0897 21.8778 22.0495 21.8778 20.9991V6.41658L24.4124 8.95119C24.803 9.34171 25.4361 9.34171 25.8267 8.95119C26.2172 8.56066 26.2172 7.9275 25.8267 7.53697L21.5958 3.30609Z" fill="#111827"/>
</svg>
