<svg width="32" height="33" viewBox="0 0 32 33" fill="none" xmlns="http://www.w3.org/2000/svg">
<path fill-rule="evenodd" clip-rule="evenodd" d="M20.0012 19.4986C20.0012 20.0509 20.4489 20.4986 21.0012 20.4986C21.5535 20.4986 22.0012 20.0509 22.0012 19.4986V11.5189C22.0065 11.2563 21.909 10.9919 21.7085 10.7915C21.5935 10.6764 21.4574 10.5953 21.3127 10.548C21.2146 10.5159 21.11 10.4986 21.0012 10.4986H13.0012C12.4489 10.4986 12.0012 10.9463 12.0012 11.4986C12.0012 12.0509 12.4489 12.4986 13.0012 12.4986H18.5872L10.2914 20.7944C9.9009 21.1849 9.9009 21.818 10.2914 22.2086C10.682 22.5991 11.3151 22.5991 11.7056 22.2086L20.0012 13.913V19.4986Z" fill="#111827"/>
</svg>
