<svg width="32" height="33" viewBox="0 0 32 33" fill="none" xmlns="http://www.w3.org/2000/svg">
<path fill-rule="evenodd" clip-rule="evenodd" d="M4.60403 15.8965C4.15858 15.8965 3.93549 15.3579 4.25048 15.0429L15.6463 3.64706C15.8416 3.45179 16.1582 3.4518 16.3534 3.64706L27.7493 15.0429C28.0643 15.3579 27.8412 15.8965 27.3957 15.8965H22.8014C22.5252 15.8965 22.3014 16.1203 22.3014 16.3965V19.5975C22.3014 19.8736 22.0775 20.0975 21.8014 20.0975H10.1984C9.92226 20.0975 9.6984 19.8736 9.6984 19.5975V16.3965C9.6984 16.1203 9.47455 15.8965 9.1984 15.8965H4.60403ZM8.69827 28.4994C8.69827 27.9472 9.14599 27.4994 9.69827 27.4994H22.3012C22.8535 27.4994 23.3012 27.9472 23.3012 28.4994C23.3012 29.0517 22.8535 29.4994 22.3012 29.4994H9.69827C9.14599 29.4994 8.69827 29.0517 8.69827 28.4994ZM9.69827 23.2984C9.14599 23.2984 8.69827 23.7462 8.69827 24.2984C8.69827 24.8507 9.14599 25.2984 9.69827 25.2984H22.3012C22.8535 25.2984 23.3012 24.8507 23.3012 24.2984C23.3012 23.7462 22.8535 23.2984 22.3012 23.2984H9.69827Z" fill="#111827"/>
</svg>
