<svg width="32" height="33" viewBox="0 0 32 33" fill="none" xmlns="http://www.w3.org/2000/svg">
<path fill-rule="evenodd" clip-rule="evenodd" d="M14.5428 4.7506C14.8578 4.43562 15.3963 4.6587 15.3963 5.10415V9.69853C15.3963 9.97467 15.6202 10.1985 15.8963 10.1985H23.2983C23.5745 10.1985 23.7983 10.4224 23.7983 10.6985V22.3015C23.7983 22.5776 23.5745 22.8015 23.2983 22.8015H15.8963C15.6202 22.8015 15.3963 23.0253 15.3963 23.3015V27.8959C15.3963 28.3413 14.8578 28.5644 14.5428 28.2494L3.14694 16.8536C2.95167 16.6583 2.95167 16.3417 3.14693 16.1465L14.5428 4.7506ZM28.9993 10.1985C28.9993 9.64623 28.5515 9.19852 27.9993 9.19852C27.447 9.19852 26.9993 9.64623 26.9993 10.1985V22.8015C26.9993 23.3538 27.447 23.8015 27.9993 23.8015C28.5515 23.8015 28.9993 23.3538 28.9993 22.8015V10.1985Z" fill="#111827"/>
</svg>
