<svg width="33" height="33" viewBox="0 0 33 33" fill="none" xmlns="http://www.w3.org/2000/svg">
<path d="M6.16731 16.2829C5.72186 16.2829 5.49878 15.7443 5.81376 15.4293L16.6067 4.63645C16.8019 4.44119 17.1185 4.44119 17.3138 4.63645L28.1067 15.4293C28.4216 15.7443 28.1986 16.2829 27.7531 16.2829H23.4602C23.1841 16.2829 22.9602 16.5068 22.9602 16.7829V19.7829C22.9602 20.059 22.7363 20.2829 22.4602 20.2829H11.4602C11.1841 20.2829 10.9602 20.059 10.9602 19.7829V16.7829C10.9602 16.5068 10.7363 16.2829 10.4602 16.2829H6.16731Z" fill="#1C1B1F"/>
<path d="M22.9602 28.2829H10.9602" stroke="#1C1B1F" stroke-width="2" stroke-linecap="round" stroke-linejoin="round"/>
<path d="M22.9602 24.2829H10.9602" stroke="#1C1B1F" stroke-width="2" stroke-linecap="round" stroke-linejoin="round"/>
</svg>
