<svg width="32" height="33" viewBox="0 0 32 33" fill="none" xmlns="http://www.w3.org/2000/svg">
<path fill-rule="evenodd" clip-rule="evenodd" d="M9.63602 7.25736C10.7612 6.13214 12.2874 5.5 13.8787 5.5H13.8787C14.6666 5.5 15.4468 5.65519 16.1748 5.95672C16.9027 6.25825 17.5642 6.7002 18.1213 7.25735C18.6785 7.8145 19.1204 8.47594 19.4219 9.20389C19.7235 9.93184 19.8787 10.7121 19.8787 11.5V26.0858L17.3431 23.5503C16.9526 23.1598 16.3194 23.1598 15.9289 23.5503C15.5384 23.9408 15.5384 24.574 15.9289 24.9645L20.1715 29.2071C20.2791 29.3147 20.405 29.3926 20.5392 29.4409C20.6229 29.4711 20.7118 29.4905 20.8042 29.4973C20.8506 29.5007 20.8973 29.5009 20.9437 29.4979C21.1689 29.4833 21.3901 29.3929 21.5658 29.2266C21.5734 29.2193 21.581 29.2119 21.5884 29.2045L25.8284 24.9645C26.2189 24.574 26.2189 23.9408 25.8284 23.5503C25.4379 23.1598 24.8047 23.1598 24.4142 23.5503L21.8787 26.0858V11.5C21.8787 10.4494 21.6717 9.40913 21.2697 8.43852C20.8677 7.46792 20.2784 6.58601 19.5355 5.84314C18.7927 5.10027 17.9107 4.511 16.9401 4.10896C15.9695 3.70693 14.9292 3.5 13.8787 3.5H13.8787C11.7569 3.5 9.7221 4.34285 8.22181 5.84315C6.72152 7.34344 5.87866 9.37827 5.87866 11.5V22.5C5.87866 23.0523 6.32638 23.5 6.87866 23.5C7.43095 23.5 7.87866 23.0523 7.87866 22.5V11.5C7.87866 9.9087 8.5108 8.38258 9.63602 7.25736Z" fill="#111827"/>
</svg>
