<svg width="32" height="33" viewBox="0 0 32 33" fill="none" xmlns="http://www.w3.org/2000/svg">
<path fill-rule="evenodd" clip-rule="evenodd" d="M3.46532 8.65606C3.38594 8.70652 3.31416 8.76786 3.25207 8.83799C3.19898 8.89786 3.15425 8.96272 3.11794 9.03101C3.04333 9.17103 3.00104 9.33088 3.00104 9.50061V15.5001C3.00104 16.0524 3.44876 16.5001 4.00104 16.5001C4.55333 16.5001 5.00104 16.0524 5.00104 15.5001V12.0582L16.1883 24.1777C16.3776 24.3827 16.644 24.4994 16.9231 24.4994C17.2022 24.4994 17.4686 24.3827 17.6579 24.1777L28.7338 12.1787C29.1084 11.7729 29.0831 11.1402 28.6773 10.7656C28.2715 10.391 27.6388 10.4163 27.2642 10.8222L16.9231 22.0251L6.28511 10.5006H10.0005C10.5528 10.5006 11.0005 10.0529 11.0005 9.50061C11.0005 8.94833 10.5528 8.50061 10.0005 8.50061H4.00405H4.00104C3.98643 8.50061 3.97191 8.50092 3.95745 8.50154" fill="#111827"/>
</svg>
