<svg width="32" height="32" viewBox="0 0 32 32" fill="none" xmlns="http://www.w3.org/2000/svg">
<path fill-rule="evenodd" clip-rule="evenodd" d="M18.1213 3C17.0708 3 16.0305 3.20693 15.0599 3.60896C14.0893 4.011 13.2073 4.60027 12.4645 5.34314C11.7216 6.08601 11.1323 6.96792 10.7303 7.93852C10.3283 8.90913 10.1213 9.94941 10.1213 11V25.5858L7.58577 23.0503C7.19524 22.6598 6.56208 22.6598 6.17156 23.0503C5.78103 23.4408 5.78103 24.074 6.17156 24.4645L10.4142 28.7071C10.5218 28.8147 10.6477 28.8926 10.7819 28.9409C10.8656 28.9711 10.9545 28.9905 11.0469 28.9973C11.0933 29.0007 11.1399 29.0009 11.1864 28.9979C11.4116 28.9833 11.6328 28.8929 11.8084 28.7266C11.8161 28.7193 11.8236 28.712 11.8311 28.7045L16.071 24.4645C16.4616 24.074 16.4616 23.4408 16.071 23.0503C15.6805 22.6598 15.0474 22.6598 14.6568 23.0503L12.1213 25.5858V11C12.1213 10.2121 12.2765 9.43184 12.5781 8.70389C12.8796 7.97594 13.3215 7.31451 13.8787 6.75735C14.4358 6.2002 15.0973 5.75825 15.8252 5.45672C16.5532 5.15519 17.3334 5 18.1213 5H18.1213C19.7126 5 21.2388 5.63214 22.364 6.75736C23.4892 7.88258 24.1213 9.4087 24.1213 11V22C24.1213 22.5523 24.5691 23 25.1213 23C25.6736 23 26.1213 22.5523 26.1213 22V11C26.1213 8.87827 25.2785 6.84344 23.7782 5.34315C22.2779 3.84285 20.2431 3 18.1213 3H18.1213Z" fill="#111827"/>
</svg>
