<svg width="32" height="32" viewBox="0 0 32 32" fill="none" xmlns="http://www.w3.org/2000/svg">
<path fill-rule="evenodd" clip-rule="evenodd" d="M18.1369 10.1598C17.7464 10.5503 17.7464 11.1835 18.1369 11.574C18.5275 11.9646 19.1606 11.9646 19.5511 11.574L22.4217 8.70347V24.7108H4.00024C3.44796 24.7108 3.00024 25.1585 3.00024 25.7108C3.00024 26.263 3.44796 26.7108 4.00024 26.7108H23.4217C23.974 26.7108 24.4217 26.263 24.4217 25.7108V8.70345L27.2923 11.574C27.6828 11.9646 28.316 11.9646 28.7065 11.574C29.097 11.1835 29.097 10.5503 28.7065 10.1598L24.1288 5.58214C24.023 5.47633 23.8994 5.39919 23.7676 5.35071C23.683 5.31952 23.593 5.29944 23.4994 5.29225C23.3546 5.28103 23.2078 5.30123 23.0701 5.35284C22.9405 5.40143 22.8189 5.47786 22.7146 5.58214L18.1369 10.1598Z" fill="#111827"/>
</svg>
