<svg width="32" height="33" viewBox="0 0 32 33" fill="none" xmlns="http://www.w3.org/2000/svg">
<path fill-rule="evenodd" clip-rule="evenodd" d="M21.1025 5.41345C18.9098 4.5052 16.497 4.26756 14.1692 4.73058C11.8415 5.1936 9.70327 6.33649 8.02503 8.01472L5.48926 10.5505V6.96448C5.48926 6.41219 5.04154 5.96448 4.48926 5.96448C3.93697 5.96448 3.48926 6.41219 3.48926 6.96448V12.9645C3.48926 13.5168 3.93697 13.9645 4.48926 13.9645H10.4893C11.0415 13.9645 11.4893 13.5168 11.4893 12.9645C11.4893 12.4122 11.0415 11.9645 10.4893 11.9645H6.90371L9.43925 9.42894C10.8378 8.03041 12.6196 7.078 14.5594 6.69215C16.4992 6.3063 18.5099 6.50433 20.3372 7.26121C22.1644 8.01809 23.7262 9.29981 24.825 10.9443C25.9238 12.5888 26.5103 14.5222 26.5103 16.5C26.5103 18.4778 25.9238 20.4112 24.825 22.0557C23.7262 23.7002 22.1644 24.9819 20.3372 25.7388C18.5099 26.4957 16.4992 26.6937 14.5594 26.3079C12.6196 25.922 10.8378 24.9696 9.43925 23.5711C9.04872 23.1805 8.41556 23.1805 8.02503 23.5711C7.63451 23.9616 7.63451 24.5948 8.02503 24.9853C9.70326 26.6635 11.8415 27.8064 14.1692 28.2694C16.497 28.7325 18.9098 28.4948 21.1025 27.5866C23.2952 26.6783 25.1694 25.1402 26.488 23.1668C27.8065 21.1935 28.5103 18.8734 28.5103 16.5C28.5103 14.1266 27.8065 11.8066 26.488 9.83316C25.1694 7.85977 23.2952 6.3217 21.1025 5.41345Z" fill="#111827"/>
</svg>
