<svg width="32" height="32" viewBox="0 0 32 32" fill="none" xmlns="http://www.w3.org/2000/svg">
<path fill-rule="evenodd" clip-rule="evenodd" d="M16.6036 4.60415C16.6036 4.1587 17.1422 3.93562 17.4572 4.2506L28.853 15.6465C29.0483 15.8417 29.0483 16.1583 28.853 16.3536L17.4572 27.7494C17.1422 28.0644 16.6036 27.8413 16.6036 27.3959V22.8015C16.6036 22.5253 16.3797 22.3015 16.1036 22.3015H12.9026C12.6265 22.3015 12.4026 22.0776 12.4026 21.8015V10.1985C12.4026 9.92239 12.6265 9.69853 12.9026 9.69853H16.1036C16.3797 9.69853 16.6036 9.47467 16.6036 9.19853V4.60415ZM4.00049 8.69852C4.55277 8.69852 5.00049 9.14623 5.00049 9.69852V22.3015C5.00049 22.8538 4.55277 23.3015 4.00049 23.3015C3.4482 23.3015 3.00049 22.8538 3.00049 22.3015V9.69852C3.00049 9.14623 3.4482 8.69852 4.00049 8.69852ZM9.20155 9.69852C9.20155 9.14623 8.75383 8.69852 8.20155 8.69852C7.64927 8.69852 7.20155 9.14623 7.20155 9.69852V22.3015C7.20155 22.8538 7.64927 23.3015 8.20155 23.3015C8.75383 23.3015 9.20155 22.8538 9.20155 22.3015V9.69852Z" fill="#111827"/>
</svg>
