<svg width="32" height="33" viewBox="0 0 32 33" fill="none" xmlns="http://www.w3.org/2000/svg">
<path d="M5.20711 16.5C4.76165 16.5 4.53857 17.0386 4.85355 17.3536L15.6464 28.1464C15.8417 28.3417 16.1583 28.3417 16.3536 28.1464L27.1464 17.3536C27.4614 17.0386 27.2383 16.5 26.7929 16.5H22.5C22.2239 16.5 22 16.2761 22 16V5.5C22 5.23478 21.8946 4.98043 21.7071 4.79289C21.5196 4.60536 21.2652 4.5 21 4.5H11C10.7348 4.5 10.4804 4.60536 10.2929 4.79289C10.1054 4.98043 10 5.23478 10 5.5V16C10 16.2761 9.77614 16.5 9.5 16.5H5.20711Z" fill="#111827"/>
</svg>
