<svg width="32" height="33" viewBox="0 0 32 33" fill="none" xmlns="http://www.w3.org/2000/svg">
<path fill-rule="evenodd" clip-rule="evenodd" d="M21.8738 9.95903C21.4833 9.56851 20.8501 9.56851 20.4596 9.95903C20.069 10.3496 20.069 10.9827 20.4596 11.3732L24.5806 15.4943H4.99951C4.44723 15.4943 3.99951 15.942 3.99951 16.4943C3.99951 17.0466 4.44723 17.4943 4.99951 17.4943H24.592L20.4596 21.6267C20.069 22.0173 20.069 22.6504 20.4596 23.0409C20.8501 23.4315 21.4833 23.4315 21.8738 23.0409L27.7076 17.2071C27.9115 17.0032 28.0089 16.7332 27.9999 16.4661C27.9917 16.1694 27.8543 15.905 27.642 15.7272L21.8738 9.95903Z" fill="#111827"/>
</svg>
