<svg width="32" height="32" viewBox="0 0 32 32" fill="none" xmlns="http://www.w3.org/2000/svg">
<path d="M16 5.20711C16 4.76165 16.5386 4.53857 16.8536 4.85355L27.6464 15.6464C27.8417 15.8417 27.8417 16.1583 27.6464 16.3536L16.8536 27.1464C16.5386 27.4614 16 27.2383 16 26.7929V22.5C16 22.2239 15.7761 22 15.5 22H5C4.73478 22 4.48043 21.8946 4.29289 21.7071C4.10536 21.5196 4 21.2652 4 21V11C4 10.7348 4.10536 10.4804 4.29289 10.2929C4.48043 10.1054 4.73478 10 5 10H15.5C15.7761 10 16 9.77614 16 9.5V5.20711Z" fill="#111827"/>
</svg>
