<svg width="32" height="32" viewBox="0 0 32 32" fill="none" xmlns="http://www.w3.org/2000/svg">
<path fill-rule="evenodd" clip-rule="evenodd" d="M7.28931 4.00043C7.28931 3.44814 6.84159 3.00043 6.28931 3.00043C5.73702 3.00043 5.28931 3.44814 5.28931 4.00043V23.4219C5.28931 23.9742 5.73702 24.4219 6.28931 24.4219H23.2966L20.426 27.2925C20.0355 27.683 20.0355 28.3162 20.426 28.7067C20.8165 29.0972 21.4497 29.0972 21.8402 28.7067L26.4179 24.129C26.536 24.0109 26.6184 23.8707 26.665 23.7216C26.6835 23.6629 26.6966 23.6019 26.7039 23.5392C26.7124 23.4674 26.713 23.3949 26.7059 23.323C26.6975 23.237 26.6781 23.1542 26.6493 23.076C26.6008 22.9442 26.5237 22.8206 26.4179 22.7148L21.8402 18.1371C21.4497 17.7466 20.8165 17.7466 20.426 18.1371C20.0355 18.5277 20.0355 19.1608 20.426 19.5513L23.2965 22.4219H7.28931V4.00043Z" fill="#111827"/>
</svg>
