<svg width="32" height="32" viewBox="0 0 32 32" fill="none" xmlns="http://www.w3.org/2000/svg">
<path fill-rule="evenodd" clip-rule="evenodd" d="M32 16C32 24.8366 24.8366 32 16 32C7.16344 32 0 24.8366 0 16C0 7.16344 7.16344 0 16 0C24.8366 0 32 7.16344 32 16ZM20.7137 11.7141C20.1615 11.7141 19.7137 12.1618 19.7137 12.7141V18.2999L11.9928 10.5789C11.6022 10.1884 10.9691 10.1884 10.5785 10.5789C10.188 10.9695 10.188 11.6026 10.5785 11.9931L18.2995 19.7141H12.7137C12.1615 19.7141 11.7137 20.1618 11.7137 20.7141C11.7137 21.2663 12.1615 21.7141 12.7137 21.7141H20.7023C20.7514 21.7146 20.8006 21.7116 20.8493 21.7049C20.9057 21.6973 20.9605 21.685 21.0135 21.6684C21.1625 21.6217 21.3028 21.5393 21.4208 21.4212C21.5241 21.318 21.6 21.1978 21.6487 21.0696C21.6907 20.9591 21.7137 20.8393 21.7137 20.7141V12.7141C21.7137 12.1618 21.266 11.7141 20.7137 11.7141Z" fill="#111827"/>
</svg>
