<svg width="32" height="32" viewBox="0 0 32 32" fill="none" xmlns="http://www.w3.org/2000/svg">
<path fill-rule="evenodd" clip-rule="evenodd" d="M28.7067 4.70747C29.0972 4.31695 29.0972 3.68378 28.7067 3.29326C28.3161 2.90274 27.683 2.90274 27.2924 3.29326L20.5218 10.0639V6.44071C20.5218 5.88843 20.0741 5.44071 19.5218 5.44071C18.9695 5.44071 18.5218 5.88843 18.5218 6.44071V12.4655C18.5185 12.7256 18.6161 12.9868 18.8146 13.1853C19.0136 13.3843 19.2756 13.4819 19.5365 13.4781H25.5592C26.1115 13.4781 26.5592 13.0304 26.5592 12.4781C26.5592 11.9258 26.1115 11.4781 25.5592 11.4781H21.936L28.7067 4.70747ZM6.4412 18.5218C5.88892 18.5218 5.4412 18.9695 5.4412 19.5218C5.4412 20.0741 5.88892 20.5218 6.4412 20.5218H10.0643L3.29338 27.2927C2.90286 27.6832 2.90286 28.3164 3.29338 28.7069C3.68391 29.0974 4.31707 29.0974 4.70759 28.7069L11.4786 21.9359V25.5592C11.4786 26.1115 11.9263 26.5592 12.4786 26.5592C13.0309 26.5592 13.4786 26.1115 13.4786 25.5592V19.5218C13.4786 18.9695 13.0309 18.5218 12.4786 18.5218H6.4412Z" fill="#111827"/>
</svg>
