<svg width="32" height="33" viewBox="0 0 32 33" fill="none" xmlns="http://www.w3.org/2000/svg">
<path fill-rule="evenodd" clip-rule="evenodd" d="M4.25048 15.0429C3.93549 15.3579 4.15858 15.8965 4.60403 15.8965H9.1984C9.47455 15.8965 9.6984 16.1203 9.6984 16.3965V23.7984C9.6984 24.0746 9.92226 24.2984 10.1984 24.2984H21.8014C22.0775 24.2984 22.3014 24.0746 22.3014 23.7984V16.3965C22.3014 16.1203 22.5252 15.8965 22.8014 15.8965H27.3957C27.8412 15.8965 28.0643 15.3579 27.7493 15.0429L16.3534 3.64706C16.1582 3.4518 15.8416 3.45179 15.6463 3.64706L4.25048 15.0429ZM9.69827 27.4994C9.14599 27.4994 8.69827 27.9472 8.69827 28.4994C8.69827 29.0517 9.14599 29.4994 9.69827 29.4994H22.3012C22.8535 29.4994 23.3012 29.0517 23.3012 28.4994C23.3012 27.9472 22.8535 27.4994 22.3012 27.4994H9.69827Z" fill="#111827"/>
</svg>
