<svg width="32" height="33" viewBox="0 0 32 33" fill="none" xmlns="http://www.w3.org/2000/svg">
<path fill-rule="evenodd" clip-rule="evenodd" d="M16.6036 5.10415C16.6036 4.6587 17.1422 4.43562 17.4572 4.7506L28.853 16.1465C29.0483 16.3417 29.0483 16.6583 28.853 16.8536L17.4572 28.2494C17.1422 28.5644 16.6036 28.3413 16.6036 27.8959V23.3015C16.6036 23.0253 16.3797 22.8015 16.1036 22.8015H12.9026C12.6265 22.8015 12.4026 22.5776 12.4026 22.3015V10.6985C12.4026 10.4224 12.6265 10.1985 12.9026 10.1985H16.1036C16.3797 10.1985 16.6036 9.97467 16.6036 9.69853V5.10415ZM4.00049 9.19852C4.55277 9.19852 5.00049 9.64623 5.00049 10.1985V22.8015C5.00049 23.3538 4.55277 23.8015 4.00049 23.8015C3.4482 23.8015 3.00049 23.3538 3.00049 22.8015V10.1985C3.00049 9.64623 3.4482 9.19852 4.00049 9.19852ZM9.20155 10.1985C9.20155 9.64623 8.75383 9.19852 8.20155 9.19852C7.64927 9.19852 7.20155 9.64623 7.20155 10.1985V22.8015C7.20155 23.3538 7.64927 23.8015 8.20155 23.8015C8.75383 23.8015 9.20155 23.3538 9.20155 22.8015V10.1985Z" fill="#111827"/>
</svg>
