<svg width="32" height="32" viewBox="0 0 32 32" fill="none" xmlns="http://www.w3.org/2000/svg">
<path fill-rule="evenodd" clip-rule="evenodd" d="M4.5 4.00031C4.5 3.44802 4.94772 3.00031 5.5 3.00031H26.4999C27.0522 3.00031 27.4999 3.44802 27.4999 4.00031C27.4999 4.55259 27.0522 5.00031 26.4999 5.00031H5.5C4.94772 5.00031 4.5 4.55259 4.5 4.00031ZM14.9999 10.6149V27.9997C14.9999 28.552 15.4476 28.9997 15.9999 28.9997C16.5522 28.9997 16.9999 28.552 16.9999 27.9997V10.6151L19.7475 13.3627C20.138 13.7532 20.7712 13.7532 21.1617 13.3627C21.5523 12.9721 21.5523 12.339 21.1617 11.9485L16.7141 7.50083C16.6879 7.4741 16.6602 7.44884 16.6312 7.42517C16.5659 7.37191 16.4955 7.32813 16.4217 7.29384C16.2936 7.23413 16.1506 7.20079 15.9999 7.20079C15.873 7.20079 15.7515 7.22446 15.6397 7.26762C15.5133 7.31634 15.3948 7.3917 15.2928 7.49369L10.838 11.9485C10.4475 12.339 10.4475 12.9721 10.838 13.3627C11.2285 13.7532 11.8617 13.7532 12.2522 13.3627L14.9999 10.6149Z" fill="#111827"/>
</svg>
