<svg width="33" height="33" viewBox="0 0 33 33" fill="none" xmlns="http://www.w3.org/2000/svg">
<path d="M17.7175 12.0403L21.9602 16.2829L17.7175 20.5255" stroke="white" stroke-width="2" stroke-linecap="round" stroke-linejoin="round"/>
<path d="M21.9602 16.2803H11.9602" stroke="white" stroke-width="2" stroke-linecap="round" stroke-linejoin="round"/>
<path fill-rule="evenodd" clip-rule="evenodd" d="M28.9602 16.2829C28.9602 22.9103 23.5876 28.2829 16.9602 28.2829C10.3328 28.2829 4.96021 22.9103 4.96021 16.2829C4.96021 9.65548 10.3328 4.2829 16.9602 4.2829C23.5876 4.2829 28.9602 9.65548 28.9602 16.2829ZM17.0104 11.3331C16.6199 11.7237 16.6199 12.3568 17.0104 12.7474L19.546 15.2829H11.9602C11.4079 15.2829 10.9602 15.7306 10.9602 16.2829C10.9602 16.8352 11.4079 17.2829 11.9602 17.2829H19.546L17.0104 19.8184C16.6199 20.209 16.6199 20.8421 17.0104 21.2326C17.4009 21.6232 18.0341 21.6232 18.4246 21.2326L22.662 16.9953C22.6818 16.9757 22.7009 16.9553 22.7191 16.9342C22.7793 16.8642 22.8282 16.7878 22.8659 16.7075C22.9264 16.5786 22.9602 16.4347 22.9602 16.2829C22.9602 16.1333 22.9273 15.9913 22.8684 15.8638C22.829 15.7783 22.7768 15.6971 22.7118 15.6233C22.6961 15.6053 22.6796 15.5879 22.6626 15.5711L18.4246 11.3331C18.0341 10.9426 17.4009 10.9426 17.0104 11.3331Z" fill="#1C1B1F"/>
</svg>
