<svg width="32" height="32" viewBox="0 0 32 32" fill="none" xmlns="http://www.w3.org/2000/svg">
<path fill-rule="evenodd" clip-rule="evenodd" d="M16.2 27.9989C16.2 28.5512 16.6477 28.9989 17.2 28.9989H24.3995C24.5312 28.9989 24.6571 28.9734 24.7723 28.9271C24.894 28.8783 25.0081 28.8046 25.1068 28.7059C25.3068 28.506 25.4043 28.2423 25.3995 27.9803V20.7994C25.3995 20.2471 24.9518 19.7994 24.3995 19.7994C23.8472 19.7994 23.3995 20.2471 23.3995 20.7994V25.5845L8.30796 10.4929C7.91744 10.1024 7.28427 10.1024 6.89375 10.4929C6.50322 10.8835 6.50322 11.5166 6.89375 11.9071L21.9855 26.9989H17.2C16.6477 26.9989 16.2 27.4466 16.2 27.9989ZM3.00098 4.00108C3.00098 4.55336 3.44869 5.00108 4.00098 5.00108H27.9994C28.5517 5.00108 28.9994 4.55336 28.9994 4.00108C28.9994 3.44879 28.5517 3.00108 27.9994 3.00108H4.00098C3.44869 3.00108 3.00098 3.44879 3.00098 4.00108Z" fill="#111827"/>
</svg>
