<svg width="32" height="33" viewBox="0 0 32 33" fill="none" xmlns="http://www.w3.org/2000/svg">
<path fill-rule="evenodd" clip-rule="evenodd" d="M29 24.6213C29 25.1736 28.5523 25.6213 28 25.6213C27.4477 25.6213 27 25.1736 27 24.6213C27 21.704 25.8411 18.9061 23.7782 16.8432C21.7153 14.7803 18.9174 13.6213 16 13.6213H6.41427L8.94978 16.1568C9.34031 16.5474 9.34031 17.1805 8.94978 17.5711C8.55926 17.9616 7.92609 17.9616 7.53557 17.5711L3.29953 13.335C3.27375 13.3097 3.24934 13.283 3.22642 13.2551C3.17559 13.1932 3.13331 13.1266 3.0996 13.0569C3.03578 12.9253 3 12.7775 3 12.6213C3 12.476 3.031 12.3379 3.08674 12.2134C3.13037 12.1156 3.19046 12.0235 3.26701 11.9411C3.27632 11.9311 3.28583 11.9212 3.29554 11.9116L7.53557 7.67156C7.92609 7.28104 8.55926 7.28104 8.94978 7.67156C9.34031 8.06209 9.34031 8.69525 8.94978 9.08578L6.41422 11.6213H16C19.4478 11.6213 22.7544 12.991 25.1924 15.429C27.6304 17.8669 29 21.1735 29 24.6213Z" fill="#111827"/>
</svg>
