<svg width="32" height="32" viewBox="0 0 32 32" fill="none" xmlns="http://www.w3.org/2000/svg">
<path fill-rule="evenodd" clip-rule="evenodd" d="M16.9998 4.00049C16.9998 3.4482 16.5521 3.00049 15.9998 3.00049C15.4475 3.00049 14.9998 3.4482 14.9998 4.00049V10.3129L12.0791 7.39222C11.6886 7.0017 11.0555 7.0017 10.6649 7.39222C10.2744 7.78275 10.2744 8.41591 10.6649 8.80644L15.2783 13.4198C15.4423 13.5906 15.6663 13.7033 15.9164 13.724C16.1995 13.7476 16.4907 13.6512 16.7073 13.4346L21.3355 8.80644C21.726 8.41591 21.726 7.78275 21.3355 7.39222C20.9449 7.0017 20.3118 7.0017 19.9212 7.39222L16.9998 10.3136V4.00049ZM4.09131 16C4.09131 15.4477 4.53902 15 5.09131 15H26.9086C27.4609 15 27.9086 15.4477 27.9086 16C27.9086 16.5523 27.4609 17 26.9086 17H5.09131C4.53902 17 4.09131 16.5523 4.09131 16ZM15 21.6872V27.9996C15 28.5519 15.4477 28.9996 16 28.9996C16.5523 28.9996 17 28.5519 17 27.9996V21.6865L19.9214 24.6079C20.3119 24.9984 20.9451 24.9984 21.3356 24.6079C21.7261 24.2174 21.7261 23.5842 21.3356 23.1937L16.7074 18.5655C16.5755 18.4336 16.4158 18.3462 16.2471 18.3034C16.1926 18.2896 16.1362 18.2802 16.0785 18.2757C16.0526 18.2737 16.0264 18.2727 16 18.2727C15.7156 18.2727 15.459 18.3913 15.2769 18.5819L10.6651 23.1937C10.2746 23.5842 10.2746 24.2174 10.6651 24.6079C11.0556 24.9984 11.6888 24.9984 12.0793 24.6079L15 21.6872Z" fill="#111827"/>
</svg>
