<svg width="32" height="33" viewBox="0 0 32 33" fill="none" xmlns="http://www.w3.org/2000/svg">
<path fill-rule="evenodd" clip-rule="evenodd" d="M21.84 3.79332C21.4494 3.4028 20.8163 3.4028 20.4258 3.79332C20.0352 4.18384 20.0352 4.81701 20.4258 5.20753L23.2964 8.07815H6.28906C5.73678 8.07815 5.28906 8.52586 5.28906 9.07815V28.4996C5.28906 29.0518 5.73678 29.4996 6.28906 29.4996C6.84135 29.4996 7.28906 29.0518 7.28906 28.4996V10.0781H23.2963L20.4258 12.9487C20.0352 13.3392 20.0352 13.9724 20.4258 14.3629C20.8163 14.7534 21.4494 14.7534 21.84 14.3629L26.4176 9.78521C26.525 9.67787 26.6028 9.55221 26.6511 9.41829C26.6781 9.34364 26.6965 9.26485 26.705 9.18314C26.713 9.10721 26.7123 9.03053 26.7029 8.95472C26.6957 8.89618 26.6835 8.83919 26.6666 8.78423C26.6203 8.63302 26.5373 8.49062 26.4176 8.37099L21.84 3.79332Z" fill="#111827"/>
</svg>
