<svg width="32" height="33" viewBox="0 0 32 33" fill="none" xmlns="http://www.w3.org/2000/svg">
<path fill-rule="evenodd" clip-rule="evenodd" d="M8.95051 8.08644C9.34103 7.69592 9.34103 7.06275 8.95051 6.67223C8.55998 6.2817 7.92682 6.2817 7.53629 6.67223L3.30051 10.908C3.27181 10.9362 3.2448 10.9661 3.21965 10.9975C3.17947 11.0477 3.14482 11.1009 3.11572 11.1562C3.04245 11.2952 3.00098 11.4536 3.00098 11.6217C3.00098 11.8127 3.05451 11.9911 3.14738 12.1429C3.15481 12.155 3.16252 12.1671 3.17051 12.179C3.2091 12.2363 3.25349 12.2895 3.30283 12.3377L7.53629 16.5711C7.92682 16.9616 8.55998 16.9616 8.95051 16.5711C9.34103 16.1806 9.34103 15.5474 8.95051 15.1569L6.4153 12.6217H20.9998C21.7876 12.6217 22.5678 12.7769 23.2957 13.0784C24.0236 13.3799 24.6849 13.8218 25.242 14.3789C25.7991 14.936 26.2411 15.5974 26.5426 16.3253C26.8441 17.0532 26.9993 17.8333 26.9993 18.6212C26.9993 20.2124 26.3672 21.7384 25.242 22.8635C24.1169 23.9886 22.5909 24.6207 20.9998 24.6207H10.0005C9.44826 24.6207 9.00055 25.0684 9.00055 25.6207C9.00055 26.173 9.44826 26.6207 10.0005 26.6207H20.9998C23.1214 26.6207 25.1561 25.7779 26.6563 24.2777C28.1565 22.7775 28.9993 20.7428 28.9993 18.6212C28.9993 17.5707 28.7923 16.5305 28.3903 15.5599C27.9883 14.5894 27.3991 13.7075 26.6563 12.9647C25.9134 12.2219 25.0316 11.6326 24.061 11.2306C23.0905 10.8286 22.0503 10.6217 20.9998 10.6217H6.41525L8.95051 8.08644Z" fill="#111827"/>
</svg>
