<svg width="32" height="32" viewBox="0 0 32 32" fill="none" xmlns="http://www.w3.org/2000/svg">
<path fill-rule="evenodd" clip-rule="evenodd" d="M28.0004 4.09076C28.5527 4.09076 29.0004 4.53847 29.0004 5.09076V26.9092C29.0004 27.4615 28.5527 27.9092 28.0004 27.9092C27.4482 27.9092 27.0004 27.4615 27.0004 26.9092V5.09076C27.0004 4.53847 27.4482 4.09076 28.0004 4.09076ZM18.3005 10.6595C18.691 10.2689 19.3242 10.2689 19.7147 10.6595L24.3312 15.2759C24.5192 15.4577 24.6361 15.7126 24.6361 15.9949C24.6361 16.1605 24.5959 16.3168 24.5246 16.4544C24.4893 16.5224 24.4458 16.5873 24.3939 16.6475C24.3764 16.6678 24.358 16.6874 24.3389 16.7063L19.7147 21.3305C19.3242 21.721 18.691 21.721 18.3005 21.3305C17.91 20.9399 17.91 20.3068 18.3005 19.9163L21.2219 16.9949H3.99951C3.44723 16.9949 2.99951 16.5472 2.99951 15.9949C2.99951 15.4426 3.44723 14.9949 3.99951 14.9949H21.2217L18.3005 12.0737C17.91 11.6832 17.91 11.05 18.3005 10.6595Z" fill="#111827"/>
</svg>
