<svg width="32" height="33" viewBox="0 0 32 33" fill="none" xmlns="http://www.w3.org/2000/svg">
<path fill-rule="evenodd" clip-rule="evenodd" d="M32 16.5C32 25.3366 24.8366 32.5 16 32.5C7.16344 32.5 0 25.3366 0 16.5C0 7.66344 7.16344 0.5 16 0.5C24.8366 0.5 32 7.66344 32 16.5ZM20.7137 12.2141C20.1615 12.2141 19.7137 12.6618 19.7137 13.2141V18.7999L11.9928 11.0789C11.6022 10.6884 10.9691 10.6884 10.5785 11.0789C10.188 11.4695 10.188 12.1026 10.5785 12.4931L18.2995 20.2141H12.7137C12.1615 20.2141 11.7137 20.6618 11.7137 21.2141C11.7137 21.7663 12.1615 22.2141 12.7137 22.2141H20.7023C20.7514 22.2146 20.8006 22.2116 20.8493 22.2049C20.9057 22.1973 20.9605 22.185 21.0135 22.1684C21.1625 22.1217 21.3028 22.0393 21.4208 21.9212C21.5241 21.818 21.6 21.6978 21.6487 21.5696C21.6907 21.4591 21.7137 21.3393 21.7137 21.2141V13.2141C21.7137 12.6618 21.266 12.2141 20.7137 12.2141Z" fill="#111827"/>
</svg>
