<svg width="32" height="32" viewBox="0 0 32 32" fill="none" xmlns="http://www.w3.org/2000/svg">
<path fill-rule="evenodd" clip-rule="evenodd" d="M32 16C32 24.8366 24.8366 32 16 32C7.16344 32 0 24.8366 0 16C0 7.16344 7.16344 0 16 0C24.8366 0 32 7.16344 32 16ZM15.6973 9.63604C16.0879 10.0266 16.0879 10.6597 15.6973 11.0503L11.7476 15H22.6667C23.219 15 23.6667 15.4477 23.6667 16C23.6667 16.5523 23.219 17 22.6667 17H11.7476L15.6973 20.9498C16.0879 21.3403 16.0879 21.9734 15.6973 22.364C15.3068 22.7545 14.6737 22.7545 14.2831 22.364L8.63241 16.7132C8.60824 16.6895 8.58527 16.6645 8.5636 16.6384C8.51136 16.5756 8.46801 16.5078 8.43355 16.4369C8.36935 16.3049 8.33333 16.1566 8.33333 16C8.33333 15.846 8.36813 15.7002 8.4303 15.5699C8.46697 15.4929 8.51405 15.4196 8.57153 15.3522C8.59062 15.3297 8.61067 15.3082 8.63164 15.2875L14.2831 9.63604C14.6737 9.24552 15.3068 9.24552 15.6973 9.63604Z" fill="#111827"/>
</svg>
