<svg width="32" height="33" viewBox="0 0 32 33" fill="none" xmlns="http://www.w3.org/2000/svg">
<path fill-rule="evenodd" clip-rule="evenodd" d="M8.94975 9.08577C9.34027 8.69524 9.34027 8.06208 8.94975 7.67156C8.55922 7.28103 7.92606 7.28103 7.53553 7.67156L3.29289 11.9142C2.90237 12.3047 2.90237 12.9379 3.29289 13.3284L7.53553 17.571C7.92606 17.9616 8.55922 17.9616 8.94975 17.571C9.34027 17.1805 9.34027 16.5474 8.94975 16.1568L5.41421 12.6213L8.94975 9.08577ZM14.9497 7.67156C15.3403 8.06208 15.3403 8.69524 14.9497 9.08577L12.4142 11.6213H16C19.4478 11.6213 22.7544 12.991 25.1924 15.429C27.6303 17.8669 29 21.1735 29 24.6213C29 25.1736 28.5522 25.6213 28 25.6213C27.4477 25.6213 27 25.1736 27 24.6213C27 21.704 25.841 18.9061 23.7781 16.8432C21.7152 14.7803 18.9173 13.6213 16 13.6213H12.4142L14.9497 16.1568C15.3403 16.5474 15.3403 17.1805 14.9497 17.571C14.5592 17.9616 13.9261 17.9616 13.5355 17.571L9.29997 13.3355C9.27177 13.3078 9.2452 13.2785 9.22042 13.2477C9.17355 13.1896 9.13416 13.1274 9.10224 13.0624C9.03675 12.9294 8.99996 12.7796 8.99996 12.6213C8.99996 12.4777 9.03027 12.341 9.08483 12.2176C9.13336 12.1075 9.20272 12.0044 9.29289 11.9142L13.5355 7.67156C13.9261 7.28103 14.5592 7.28103 14.9497 7.67156Z" fill="#111827"/>
</svg>
