<svg width="32" height="33" viewBox="0 0 32 33" fill="none" xmlns="http://www.w3.org/2000/svg">
<path fill-rule="evenodd" clip-rule="evenodd" d="M16.0745 5.56104C16.6268 5.56104 17.0745 6.00875 17.0745 6.56104V26.4391C17.0745 26.9914 16.6268 27.4391 16.0745 27.4391C15.5222 27.4391 15.0745 26.9914 15.0745 26.4391V6.56104C15.0745 6.00875 15.5222 5.56104 16.0745 5.56104ZM6.4119 15.5L8.92351 12.9884C9.31403 12.5978 9.31403 11.9647 8.92351 11.5742C8.53299 11.1836 7.89982 11.1836 7.5093 11.5742L3.29252 15.7909C3.11538 15.9681 3.01859 16.1951 3.00215 16.4268C3.0004 16.451 2.99951 16.4754 2.99951 16.5C2.99951 16.7956 3.12776 17.0612 3.33164 17.2443L7.5093 21.4219C7.89982 21.8125 8.53299 21.8125 8.92351 21.4219C9.31403 21.0314 9.31403 20.3982 8.92351 20.0077L6.41578 17.5H11.9507C12.503 17.5 12.9507 17.0523 12.9507 16.5C12.9507 15.9477 12.503 15.5 11.9507 15.5H6.4119ZM23.0478 11.5741C23.4603 11.2069 24.1113 11.2258 24.5018 11.6163L28.7186 15.8331C29.1091 16.2236 29.0913 16.8379 28.6788 17.2051L24.2245 21.1703C23.812 21.5375 23.161 21.5186 22.7705 21.1281C22.38 20.7376 22.3978 20.1233 22.8103 19.7561L25.3469 17.498H19.7793C19.227 17.498 18.7793 17.0503 18.7793 16.498C18.7793 15.9457 19.227 15.498 19.7793 15.498H25.5598L23.0079 12.9461C22.6174 12.5556 22.6352 11.9413 23.0478 11.5741Z" fill="#111827"/>
</svg>
