<svg width="32" height="33" viewBox="0 0 32 33" fill="none" xmlns="http://www.w3.org/2000/svg">
<path fill-rule="evenodd" clip-rule="evenodd" d="M21.1283 10.4923C18.7938 9.50581 16.2239 9.24736 13.7443 9.75056C11.2648 10.2537 8.99005 11.4952 7.20657 13.3147L5 15.5659V12.0148C5 11.4625 4.55229 11.0148 4 11.0148C3.44772 11.0148 3 11.4625 3 12.0148L3 18.0147L3 18.0148C3 18.1608 3.03128 18.2994 3.08752 18.4245C3.12771 18.5141 3.18173 18.5989 3.24955 18.6757C3.2871 18.7183 3.32823 18.7577 3.37246 18.7934C3.43396 18.8431 3.49995 18.8844 3.56891 18.9173C3.69944 18.9798 3.84564 19.0148 4 19.0148H10C10.5523 19.0148 11 18.5671 11 18.0148C11 17.4625 10.5523 17.0148 10 17.0148H6.3804L8.63487 14.7147C10.1413 13.1778 12.0582 12.1335 14.142 11.7106C16.2257 11.2878 18.3857 11.5046 20.3498 12.3346C22.314 13.1647 23.9962 14.5718 25.1812 16.3811C26.3663 18.1906 27 20.32 27 22.5C27 23.0523 27.4477 23.5 28 23.5C28.5523 23.5 29 23.0523 29 22.5C29 19.9333 28.254 17.4226 26.8543 15.2853C25.4543 13.1478 23.4625 11.4787 21.1283 10.4923Z" fill="#111827"/>
</svg>
