<svg width="32" height="33" viewBox="0 0 32 33" fill="none" xmlns="http://www.w3.org/2000/svg">
<path fill-rule="evenodd" clip-rule="evenodd" d="M16.0747 4.5011C16.0747 3.94881 15.627 3.5011 15.0747 3.5011H7.0747C6.52241 3.5011 6.0747 3.94881 6.0747 4.5011V12.5011C6.0747 13.0534 6.52241 13.5011 7.0747 13.5011C7.62698 13.5011 8.0747 13.0534 8.0747 12.5011V6.88974L23.192 22.0071C23.5826 22.3976 24.2157 22.3976 24.6063 22.0071C24.9968 21.6166 24.9968 20.9834 24.6063 20.5929L9.51448 5.5011H15.0747C15.627 5.5011 16.0747 5.05338 16.0747 4.5011ZM28.499 28.4989C28.499 27.9467 28.0513 27.4989 27.499 27.4989H3.5006C2.94832 27.4989 2.5006 27.9467 2.5006 28.4989C2.5006 29.0512 2.94832 29.4989 3.5006 29.4989H27.499C28.0513 29.4989 28.499 29.0512 28.499 28.4989Z" fill="#111827"/>
</svg>
