<svg width="32" height="32" viewBox="0 0 32 32" fill="none" xmlns="http://www.w3.org/2000/svg">
<path fill-rule="evenodd" clip-rule="evenodd" d="M16.9142 0.500152C16.7413 0.2011 16.4181 -0.00012207 16.0478 -0.00012207C16.0387 -0.00012207 16.0297 -1.84883e-06 16.0207 0.000237084C15.7577 -0.00528907 15.493 0.0922889 15.2923 0.292962L9.98895 5.59631C9.59843 5.98683 9.59851 6.61991 9.98914 7.01034C10.3798 7.40076 11.013 7.40067 11.4035 7.01015L15.0478 3.36589V11C15.0478 11.5522 15.4955 12 16.0478 12C16.6001 12 17.0478 11.5522 17.0478 11V3.46139L20.5972 7.00895C20.9878 7.39937 21.6211 7.39929 22.0116 7.00876C22.4021 6.61824 22.4021 5.98516 22.0114 5.59474L16.9142 0.500152ZM9.98895 24.9914C10.3795 24.6008 11.0127 24.6007 11.4033 24.9912L15.0478 28.6337V21.0001C15.0478 20.4478 15.4955 20.0001 16.0478 20.0001C16.6001 20.0001 17.0478 20.4478 17.0478 21.0001V28.5392L20.597 24.99C20.9876 24.5994 21.6208 24.5994 22.0114 24.9898C22.4021 25.3802 22.4021 26.0133 22.0116 26.4038L16.9124 31.503C16.7391 31.8004 16.4168 32.0002 16.0478 32.0002L16.0325 32.0001L16.0218 31.9999C15.759 32.0053 15.4945 31.9078 15.2939 31.7073L9.98914 26.4054C9.59851 26.015 9.59843 25.3819 9.98895 24.9914ZM3.41446 15.0478L7.01058 11.4517C7.4011 11.0611 7.4011 10.428 7.01058 10.0375C6.62006 9.64693 5.98689 9.64693 5.59637 10.0375L0.306213 15.3276C0.117437 15.5095 0 15.7649 0 16.0478C0 16.2135 0.040284 16.3697 0.111591 16.5073C0.149542 16.5807 0.197185 16.6503 0.25452 16.7143C0.267849 16.7292 0.281618 16.7437 0.295807 16.7578L5.59637 22.0584C5.98689 22.4489 6.62006 22.4489 7.01058 22.0584C7.4011 21.6678 7.4011 21.0347 7.01058 20.6441L3.41423 17.0478H11.0001C11.5524 17.0478 12.0001 16.6001 12.0001 16.0478C12.0001 15.4955 11.5524 15.0478 11.0001 15.0478H3.41446ZM24.9898 9.98804C25.3802 9.59741 26.0133 9.59733 26.4039 9.98785L31.7072 15.2912C31.9073 15.4913 32.0049 15.7551 32 16.0174C32.0002 16.0265 32.0003 16.0357 32.0003 16.0449C32.0003 16.4134 31.801 16.7353 31.5043 16.9088L26.4054 22.0103C26.015 22.401 25.3819 22.401 24.9914 22.0105C24.6009 21.62 24.6008 20.9867 24.9912 20.5961L28.5406 17.0449H21.0003C20.448 17.0449 20.0003 16.5972 20.0003 16.0449C20.0003 15.4926 20.448 15.0449 21.0003 15.0449H28.6324L24.99 11.4024C24.5995 11.0119 24.5994 10.3787 24.9898 9.98804Z" fill="#111827"/>
</svg>
