<svg width="32" height="32" viewBox="0 0 32 32" fill="none" xmlns="http://www.w3.org/2000/svg">
<path fill-rule="evenodd" clip-rule="evenodd" d="M26.7105 27.9996C26.7105 28.5519 26.2628 28.9996 25.7105 28.9996C25.1582 28.9996 24.7105 28.5519 24.7105 27.9996V9.57813H8.70332L11.5738 12.4487C11.9644 12.8392 11.9644 13.4723 11.5738 13.8629C11.1833 14.2534 10.5502 14.2534 10.1596 13.8629L5.58664 9.28987C5.57138 9.27481 5.5566 9.25927 5.54234 9.24326C5.46662 9.15841 5.40788 9.06377 5.36612 8.96371C5.32243 8.85926 5.29596 8.74582 5.29025 8.62694C5.28851 8.59123 5.28868 8.55544 5.29076 8.51975C5.29652 8.41958 5.31703 8.32337 5.35015 8.23324C5.3986 8.10106 5.47587 7.97707 5.58196 7.87098L10.1596 3.2933C10.5502 2.90277 11.1833 2.90277 11.5738 3.2933C11.9644 3.68382 11.9644 4.31699 11.5738 4.70751L8.70323 7.57813H25.7105C26.2628 7.57813 26.7105 8.02585 26.7105 8.57813V27.9996Z" fill="#111827"/>
</svg>
