<svg width="32" height="33" viewBox="0 0 32 33" fill="none" xmlns="http://www.w3.org/2000/svg">
<path fill-rule="evenodd" clip-rule="evenodd" d="M16.6137 5.50055C18.0582 5.50055 19.4886 5.78506 20.8231 6.33784C22.1576 6.89062 23.3702 7.70083 24.3916 8.72223C24.7821 9.11276 25.4153 9.11276 25.8058 8.72223C26.1963 8.33171 26.1963 7.69855 25.8058 7.30802C24.5987 6.1009 23.1656 5.14337 21.5884 4.49008C20.0113 3.83679 18.3209 3.50055 16.6137 3.50055C14.9066 3.50055 13.2162 3.83679 11.639 4.49008C10.0619 5.14337 8.62881 6.1009 7.42169 7.30802L4.5006 10.2291V6.09815C4.5006 5.54586 4.05289 5.09815 3.5006 5.09815C2.94832 5.09815 2.5006 5.54586 2.5006 6.09815V12.6433C2.5006 12.8068 2.53981 12.961 2.60933 13.0972C2.63237 13.1425 2.65908 13.1863 2.68945 13.2283C2.74743 13.3086 2.81704 13.3799 2.89579 13.4398C2.94038 13.4737 2.98717 13.5034 3.03561 13.5289C3.17452 13.602 3.33273 13.6433 3.5006 13.6433H10.0458C10.5981 13.6433 11.0458 13.1956 11.0458 12.6433C11.0458 12.0911 10.5981 11.6433 10.0458 11.6433H5.9148L8.83591 8.72223C9.85731 7.70083 11.0699 6.89062 12.4044 6.33784C13.7389 5.78506 15.1693 5.50055 16.6137 5.50055ZM28.4995 20.3568C28.4995 20.2212 28.4725 20.092 28.4236 19.974C28.3748 19.8561 28.3025 19.7456 28.2066 19.6497C28.0257 19.4688 27.7757 19.3568 27.4995 19.3568H27.4991H20.9543C20.402 19.3568 19.9543 19.8045 19.9543 20.3568C19.9543 20.9091 20.402 21.3568 20.9543 21.3568H25.0853L22.1643 24.2779C21.1429 25.2993 19.9303 26.1095 18.5958 26.6623C17.2612 27.215 15.8309 27.4996 14.3864 27.4996C12.9419 27.4996 11.5116 27.215 10.1771 26.6623C8.84256 26.1095 7.62998 25.2993 6.60858 24.2779C6.21806 23.8873 5.58489 23.8873 5.19437 24.2779C4.80384 24.6684 4.80384 25.3016 5.19437 25.6921C6.40149 26.8992 7.83454 27.8567 9.41172 28.51C10.9889 29.1633 12.6793 29.4996 14.3864 29.4996C16.0935 29.4996 17.7839 29.1633 19.3611 28.51C20.9383 27.8567 22.3714 26.8992 23.5785 25.6921L26.4995 22.771V26.902C26.4995 27.4543 26.9472 27.902 27.4995 27.902C28.0518 27.902 28.4995 27.4543 28.4995 26.902V20.3572V20.3568Z" fill="#111827"/>
</svg>
