<svg width="32" height="32" viewBox="0 0 32 32" fill="none" xmlns="http://www.w3.org/2000/svg">
<path d="M5.20711 16C4.76165 16 4.53857 15.4614 4.85355 15.1464L15.6464 4.35355C15.8417 4.15829 16.1583 4.15829 16.3536 4.35355L27.1464 15.1464C27.4614 15.4614 27.2383 16 26.7929 16H22.5C22.2239 16 22 16.2239 22 16.5V27C22 27.2652 21.8946 27.5196 21.7071 27.7071C21.5196 27.8946 21.2652 28 21 28H11C10.7348 28 10.4804 27.8946 10.2929 27.7071C10.1054 27.5196 10 27.2652 10 27V16.5C10 16.2239 9.77614 16 9.5 16H5.20711Z" fill="#111827"/>
</svg>
