<svg width="32" height="32" viewBox="0 0 32 32" fill="none" xmlns="http://www.w3.org/2000/svg">
<path fill-rule="evenodd" clip-rule="evenodd" d="M2 0C0.895431 0 0 0.895431 0 2V30C0 31.1046 0.895431 32 2 32H30C31.1046 32 32 31.1046 32 30V2C32 0.895431 31.1046 0 30 0H2ZM9.63599 16.3027C9.24547 16.6933 9.24547 17.3264 9.63599 17.717L15.2928 23.3738C15.4048 23.4858 15.5367 23.5656 15.6771 23.6134C15.8066 23.6575 15.9435 23.6742 16.0785 23.6636C16.1782 23.6559 16.2737 23.6336 16.363 23.5988C16.4789 23.5537 16.5881 23.4861 16.684 23.3962C16.6928 23.3879 16.7015 23.3794 16.71 23.3708L22.3639 17.717C22.7544 17.3264 22.7544 16.6933 22.3639 16.3027C21.9734 15.9122 21.3402 15.9122 20.9497 16.3027L17 20.2524V9.33333C17 8.78105 16.5523 8.33333 16 8.33333C15.4477 8.33333 15 8.78105 15 9.33333V20.2525L11.0502 16.3027C10.6597 15.9122 10.0265 15.9122 9.63599 16.3027Z" fill="#111827"/>
</svg>
