<svg width="32" height="33" viewBox="0 0 32 33" fill="none" xmlns="http://www.w3.org/2000/svg">
<path fill-rule="evenodd" clip-rule="evenodd" d="M18.1216 3.5C17.071 3.5 16.0307 3.70693 15.0601 4.10896C14.0895 4.511 13.2076 5.10027 12.4647 5.84314C11.7219 6.58601 11.1326 7.46792 10.7305 8.43852C10.3285 9.40913 10.1216 10.4494 10.1216 11.5V26.0858L7.58601 23.5503C7.19549 23.1598 6.56232 23.1598 6.1718 23.5503C5.78128 23.9408 5.78128 24.574 6.1718 24.9645L10.4144 29.2071C10.522 29.3147 10.648 29.3926 10.7822 29.4409C10.8659 29.4711 10.9548 29.4905 11.0471 29.4973C11.0936 29.5007 11.1402 29.5009 11.1866 29.4979C11.4118 29.4833 11.633 29.3929 11.8087 29.2266C11.8163 29.2193 11.8239 29.212 11.8313 29.2045L16.0713 24.9645C16.4618 24.574 16.4618 23.9408 16.0713 23.5503C15.6808 23.1598 15.0476 23.1598 14.6571 23.5503L12.1216 26.0858V11.5C12.1216 10.7121 12.2768 9.93184 12.5783 9.20389C12.8798 8.47594 13.3218 7.81451 13.8789 7.25735C14.4361 6.7002 15.0975 6.25825 15.8255 5.95672C16.5534 5.65519 17.3336 5.5 18.1216 5.5H18.1216C19.7129 5.5 21.239 6.13214 22.3642 7.25736C23.4894 8.38258 24.1216 9.9087 24.1216 11.5V22.5C24.1216 23.0523 24.5693 23.5 25.1216 23.5C25.6739 23.5 26.1216 23.0523 26.1216 22.5V11.5C26.1216 9.37827 25.2787 7.34344 23.7784 5.84315C22.2781 4.34285 20.2433 3.5 18.1216 3.5H18.1216Z" fill="#111827"/>
</svg>
