<svg width="32" height="32" viewBox="0 0 32 32" fill="none" xmlns="http://www.w3.org/2000/svg">
<path fill-rule="evenodd" clip-rule="evenodd" d="M17 3.99997C17 3.44768 16.5523 2.99997 16 2.99997C15.4477 2.99997 15 3.44768 15 3.99997V25.5858L10.3431 20.9289C9.95257 20.5384 9.3194 20.5384 8.92888 20.9289C8.53836 21.3194 8.53836 21.9526 8.92888 22.3431L15.2928 28.7071C15.388 28.8022 15.4975 28.8741 15.6144 28.9229C15.733 28.9725 15.8633 29 16 29C16.1561 29 16.3039 28.9642 16.4356 28.9004C16.5017 28.8684 16.565 28.8287 16.6241 28.7813C16.6559 28.756 16.686 28.7287 16.7144 28.6997L23.071 22.3431C23.4615 21.9526 23.4615 21.3194 23.071 20.9289C22.6805 20.5384 22.0473 20.5384 21.6568 20.9289L17 25.5857V3.99997Z" fill="#111827"/>
</svg>
