<svg width="32" height="33" viewBox="0 0 32 33" fill="none" xmlns="http://www.w3.org/2000/svg">
<path fill-rule="evenodd" clip-rule="evenodd" d="M20.289 11.5409C20.4424 11.5869 20.587 11.6705 20.7082 11.7917C20.9091 11.9926 21.0066 12.2577 21.0008 12.521V18.4988C21.0008 19.0511 20.5531 19.4988 20.0008 19.4988C19.4485 19.4988 19.0008 19.0511 19.0008 18.4988V14.9132L12.7056 21.2084C12.3151 21.5989 11.682 21.5989 11.2914 21.2084C10.9009 20.8179 10.9009 20.1847 11.2914 19.7942L17.5869 13.4988H14.0008C13.4485 13.4988 13.0008 13.0511 13.0008 12.4988C13.0008 11.9465 13.4485 11.4988 14.0008 11.4988H20.0008C20.0137 11.4988 20.0266 11.499 20.0395 11.4995C20.1259 11.5028 20.2095 11.5171 20.289 11.5409Z" fill="#111827"/>
</svg>
