<svg width="33" height="33" viewBox="0 0 33 33" fill="none" xmlns="http://www.w3.org/2000/svg">
<path fill-rule="evenodd" clip-rule="evenodd" d="M6.95996 4.2829C5.85539 4.2829 4.95996 5.17833 4.95996 6.2829V26.2829C4.95996 27.3875 5.85539 28.2829 6.95996 28.2829H26.96C28.0645 28.2829 28.96 27.3875 28.96 26.2829V6.2829C28.96 5.17833 28.0645 4.2829 26.96 4.2829H6.95996ZM21.2025 20.5256C21.1008 20.6273 20.9825 20.7026 20.8564 20.7513C20.7655 20.7865 20.6682 20.8088 20.5667 20.8159C20.5404 20.8178 20.5142 20.8186 20.4879 20.8184H14.4954C13.9431 20.8184 13.4954 20.3707 13.4954 19.8184C13.4954 19.2662 13.9431 18.8184 14.4954 18.8184L18.0811 18.8184L12.7172 13.4545C12.3267 13.064 12.3267 12.4308 12.7172 12.0403C13.1077 11.6498 13.7409 11.6498 14.1314 12.0403L19.4954 17.4043V13.8184C19.4954 13.2662 19.9431 12.8184 20.4954 12.8184C21.0477 12.8184 21.4954 13.2662 21.4954 13.8184V19.8184C21.4954 19.9579 21.4668 20.0908 21.4152 20.2114C21.3665 20.3255 21.2956 20.4325 21.2025 20.5256Z" fill="#1C1B1F"/>
</svg>
