<svg width="32" height="32" viewBox="0 0 32 32" fill="none" xmlns="http://www.w3.org/2000/svg">
<path fill-rule="evenodd" clip-rule="evenodd" d="M8.92888 9.65682C8.53836 10.0473 8.53836 10.6805 8.92888 11.071C9.3194 11.4616 9.95257 11.4616 10.3431 11.071L15 6.41413V28C15 28.5523 15.4477 29 16 29C16.5523 29 17 28.5523 17 28V6.41424L21.6568 11.071C22.0473 11.4616 22.6805 11.4616 23.071 11.071C23.4615 10.6805 23.4615 10.0473 23.071 9.65682L16.7127 3.29852C16.6934 3.27893 16.6733 3.26013 16.6525 3.24217C16.4849 3.09769 16.2688 3.0079 16.0319 3.00048C15.9021 2.99635 15.7716 3.01738 15.6484 3.06355C15.5187 3.11214 15.3971 3.18858 15.2928 3.29286L8.92888 9.65682Z" fill="#111827"/>
</svg>
