<svg width="32" height="33" viewBox="0 0 32 33" fill="none" xmlns="http://www.w3.org/2000/svg">
<path fill-rule="evenodd" clip-rule="evenodd" d="M32 16.5C32 25.3366 24.8366 32.5 16 32.5C7.16344 32.5 0 25.3366 0 16.5C0 7.66344 7.16344 0.5 16 0.5C24.8366 0.5 32 7.66344 32 16.5ZM15.6973 10.136C16.0879 10.5266 16.0879 11.1597 15.6973 11.5503L11.7476 15.5H22.6667C23.219 15.5 23.6667 15.9477 23.6667 16.5C23.6667 17.0523 23.219 17.5 22.6667 17.5H11.7476L15.6973 21.4498C16.0879 21.8403 16.0879 22.4734 15.6973 22.864C15.3068 23.2545 14.6737 23.2545 14.2831 22.864L8.63241 17.2132C8.60824 17.1895 8.58527 17.1645 8.5636 17.1384C8.51136 17.0756 8.46801 17.0078 8.43355 16.9369C8.36935 16.8049 8.33333 16.6566 8.33333 16.5C8.33333 16.346 8.36813 16.2002 8.4303 16.0699C8.46697 15.9929 8.51405 15.9196 8.57153 15.8522C8.59062 15.8297 8.61067 15.8082 8.63164 15.7875L14.2831 10.136C14.6737 9.74552 15.3068 9.74552 15.6973 10.136Z" fill="#111827"/>
</svg>
