<svg width="32" height="33" viewBox="0 0 32 33" fill="none" xmlns="http://www.w3.org/2000/svg">
<path fill-rule="evenodd" clip-rule="evenodd" d="M10 6.37866C9.44772 6.37866 9 6.82638 9 7.37866C9 7.93095 9.44772 8.37866 10 8.37866H21C22.5913 8.37866 24.1174 9.0108 25.2426 10.136C26.3679 11.2612 27 12.7874 27 14.3787C27 15.1666 26.8448 15.9468 26.5433 16.6748C26.2418 17.4027 25.7998 18.0642 25.2426 18.6213C24.6855 19.1785 24.0241 19.6204 23.2961 19.9219C22.5682 20.2235 21.7879 20.3787 21 20.3787H6.41427L8.94978 17.8432C9.34031 17.4526 9.34031 16.8195 8.94978 16.4289C8.55926 16.0384 7.92609 16.0384 7.53557 16.4289L3.29953 20.665C3.27375 20.6903 3.24934 20.717 3.22642 20.7449C3.17559 20.8068 3.13331 20.8734 3.0996 20.9431C3.03578 21.0747 3 21.2225 3 21.3787C3 21.524 3.031 21.6621 3.08674 21.7866C3.13037 21.8844 3.19046 21.9765 3.26701 22.0589C3.27632 22.0689 3.28583 22.0788 3.29554 22.0884L7.53557 26.3284C7.92609 26.719 8.55926 26.719 8.94978 26.3284C9.34031 25.9379 9.34031 25.3047 8.94978 24.9142L6.41422 22.3787H21C22.0506 22.3787 23.0909 22.1717 24.0615 21.7697C25.0321 21.3677 25.914 20.7784 26.6569 20.0355C27.3997 19.2927 27.989 18.4107 28.391 17.4401C28.7931 16.4695 29 15.4292 29 14.3787C29 12.2569 28.1571 10.2221 26.6569 8.72181C25.1566 7.22152 23.1217 6.37866 21 6.37866H10Z" fill="#111827"/>
</svg>
