<svg width="32" height="32" viewBox="0 0 32 32" fill="none" xmlns="http://www.w3.org/2000/svg">
<path fill-rule="evenodd" clip-rule="evenodd" d="M21.1283 9.99232C18.7938 9.00581 16.2239 8.74736 13.7443 9.25056C11.2648 9.75373 8.99005 10.9952 7.20657 12.8147L5 15.0659V11.5148C5 10.9625 4.55229 10.5148 4 10.5148C3.44772 10.5148 3 10.9625 3 11.5148L3 17.5147L3 17.5148C3 17.6608 3.03128 17.7994 3.08752 17.9245C3.12771 18.0141 3.18173 18.0989 3.24955 18.1757C3.2871 18.2183 3.32823 18.2577 3.37246 18.2934C3.43396 18.3431 3.49995 18.3844 3.56891 18.4173C3.69944 18.4798 3.84564 18.5148 4 18.5148H10C10.5523 18.5148 11 18.0671 11 17.5148C11 16.9625 10.5523 16.5148 10 16.5148H6.3804L8.63487 14.2147C10.1413 12.6778 12.0582 11.6335 14.142 11.2106C16.2257 10.7878 18.3857 11.0046 20.3498 11.8346C22.314 12.6647 23.9962 14.0718 25.1812 15.8811C26.3663 17.6906 27 19.82 27 22C27 22.5523 27.4477 23 28 23C28.5523 23 29 22.5523 29 22C29 19.4333 28.254 16.9226 26.8543 14.7853C25.4543 12.6478 23.4625 10.9787 21.1283 9.99232Z" fill="#111827"/>
</svg>
