<svg width="32" height="32" viewBox="0 0 32 32" fill="none" xmlns="http://www.w3.org/2000/svg">
<path fill-rule="evenodd" clip-rule="evenodd" d="M2 0C0.895431 0 0 0.895431 0 2V30C0 31.1046 0.895431 32 2 32H30C31.1046 32 32 31.1046 32 30V2C32 0.895431 31.1046 0 30 0H2ZM21.4211 21.4211C21.5392 21.303 21.6215 21.1628 21.6682 21.0137C21.6999 20.9126 21.7151 20.8075 21.7139 20.7024V12.714C21.7139 12.1617 21.2662 11.714 20.7139 11.714C20.1616 11.714 19.7139 12.1617 19.7139 12.714V18.2997L11.993 10.5788C11.6025 10.1883 10.9693 10.1883 10.5788 10.5788C10.1882 10.9693 10.1882 11.6025 10.5788 11.993L18.2998 19.714H12.7139C12.1616 19.714 11.7139 20.1617 11.7139 20.714C11.7139 21.2663 12.1616 21.714 12.7139 21.714H20.7139L20.7186 21.714C20.8417 21.7134 20.9596 21.6906 21.0684 21.6494C21.197 21.6007 21.3176 21.5246 21.4211 21.4211Z" fill="#111827"/>
</svg>
