<svg width="32" height="33" viewBox="0 0 32 33" fill="none" xmlns="http://www.w3.org/2000/svg">
<path fill-rule="evenodd" clip-rule="evenodd" d="M9.49748 23.0242C9.10696 22.6337 9.10696 22.0005 9.49748 21.61L24.7285 6.37903H19.2578C18.7055 6.37903 18.2578 5.93131 18.2578 5.37903C18.2578 4.82674 18.7055 4.37903 19.2578 4.37903L27.1393 4.37903L27.1461 4.37903L27.2578 4.37903C27.8101 4.37903 28.2578 4.82674 28.2578 5.37903V13.379C28.2578 13.9313 27.8101 14.379 27.2578 14.379C26.7055 14.379 26.2578 13.9313 26.2578 13.379V7.67812L10.9117 23.0242C10.5212 23.4148 9.88801 23.4148 9.49748 23.0242ZM4.85718 9.90718C4.30489 9.90718 3.85718 10.3549 3.85718 10.9072V27.621C3.85718 28.1732 4.30489 28.621 4.85718 28.621H21.571C22.1232 28.621 22.571 28.1732 22.571 27.621V17.3929C22.571 16.8406 22.1232 16.3929 21.571 16.3929C21.0187 16.3929 20.571 16.8406 20.571 17.3929V26.621H5.85718V11.9072H15.1275C15.6798 11.9072 16.1275 11.4595 16.1275 10.9072C16.1275 10.3549 15.6798 9.90718 15.1275 9.90718H4.85718Z" fill="#111827"/>
</svg>
