<svg width="32" height="32" viewBox="0 0 32 32" fill="none" xmlns="http://www.w3.org/2000/svg">
<path d="M5.20711 16C4.76165 16 4.53857 16.5386 4.85355 16.8536L15.6464 27.6464C15.8417 27.8417 16.1583 27.8417 16.3536 27.6464L27.1464 16.8536C27.4614 16.5386 27.2383 16 26.7929 16H22.5C22.2239 16 22 15.7761 22 15.5V5C22 4.73478 21.8946 4.48043 21.7071 4.29289C21.5196 4.10536 21.2652 4 21 4H11C10.7348 4 10.4804 4.10536 10.2929 4.29289C10.1054 4.48043 10 4.73478 10 5V15.5C10 15.7761 9.77614 16 9.5 16H5.20711Z" fill="#111827"/>
</svg>
