<svg width="32" height="32" viewBox="0 0 32 32" fill="none" xmlns="http://www.w3.org/2000/svg">
<path fill-rule="evenodd" clip-rule="evenodd" d="M11.6502 11.8346C13.6143 11.0046 15.7743 10.7878 17.858 11.2106C19.9418 11.6335 21.8587 12.6778 23.3651 14.2147L25.6196 16.5148H22C21.4477 16.5148 21 16.9625 21 17.5148C21 18.0671 21.4477 18.5148 22 18.5148H28C28.1565 18.5148 28.3047 18.4788 28.4366 18.4147C28.5026 18.3826 28.5659 18.3429 28.6251 18.2954C28.6702 18.2592 28.7122 18.2191 28.7504 18.1757C28.8183 18.0989 28.8723 18.0141 28.9125 17.9245C28.9687 17.7994 29 17.6608 29 17.5148V11.5148C29 10.9625 28.5523 10.5148 28 10.5148C27.4477 10.5148 27 10.9625 27 11.5148V15.0659L24.7934 12.8147C23.0099 10.9952 20.7352 9.75373 18.2557 9.25056C15.7761 8.74736 13.2062 9.00581 10.8717 9.99232C8.5375 10.9787 6.54565 12.6478 5.14573 14.7853C3.74595 16.9226 3 19.4333 3 22C3 22.5523 3.44772 23 4 23C4.55229 23 5 22.5523 5 22C5 19.82 5.63372 17.6906 6.81883 15.8811C8.0038 14.0718 9.68595 12.6647 11.6502 11.8346Z" fill="#111827"/>
</svg>
