<svg width="32" height="33" viewBox="0 0 32 33" fill="none" xmlns="http://www.w3.org/2000/svg">
<path fill-rule="evenodd" clip-rule="evenodd" d="M29 8.37866C29 7.82638 28.5523 7.37866 28 7.37866C27.4477 7.37866 27 7.82638 27 8.37866C27 11.296 25.8411 14.0939 23.7782 16.1568C21.7153 18.2197 18.9174 19.3787 16 19.3787H6.41427L8.94978 16.8432C9.34031 16.4526 9.34031 15.8195 8.94978 15.4289C8.55926 15.0384 7.92609 15.0384 7.53557 15.4289L3.29953 19.665C3.27375 19.6903 3.24934 19.717 3.22642 19.7449C3.17559 19.8068 3.13331 19.8734 3.0996 19.9431C3.03578 20.0747 3 20.2225 3 20.3787C3 20.524 3.031 20.6621 3.08674 20.7866C3.13037 20.8844 3.19046 20.9765 3.26701 21.0589C3.27632 21.0689 3.28583 21.0788 3.29554 21.0884L7.53557 25.3284C7.92609 25.719 8.55926 25.719 8.94978 25.3284C9.34031 24.9379 9.34031 24.3047 8.94978 23.9142L6.41422 21.3787H16C19.4478 21.3787 22.7544 20.009 25.1924 17.571C27.6304 15.1331 29 11.8265 29 8.37866Z" fill="#111827"/>
</svg>
