<svg width="32" height="33" viewBox="0 0 32 33" fill="none" xmlns="http://www.w3.org/2000/svg">
<path fill-rule="evenodd" clip-rule="evenodd" d="M32 16.5C32 25.3366 24.8366 32.5 16 32.5C7.16344 32.5 0 25.3366 0 16.5C0 7.66344 7.16344 0.5 16 0.5C24.8366 0.5 32 7.66344 32 16.5ZM9.63599 16.8027C10.0265 16.4121 10.6597 16.4121 11.0502 16.8027L15 20.7525V9.83333C15 9.28105 15.4477 8.83333 16 8.83333C16.5523 8.83333 17 9.28105 17 9.83333V20.7524L20.9497 16.8027C21.3402 16.4121 21.9734 16.4121 22.3639 16.8027C22.7544 17.1932 22.7544 17.8263 22.3639 18.2169L16.7152 23.8656C16.6809 23.9007 16.6439 23.9334 16.6047 23.9632C16.5595 23.9976 16.512 24.0277 16.4628 24.0534C16.3244 24.1257 16.167 24.1667 16 24.1667C15.8536 24.1667 15.7145 24.1352 15.5892 24.0787C15.4818 24.0303 15.3811 23.962 15.2928 23.8737L9.63599 18.2169C9.24547 17.8263 9.24547 17.1932 9.63599 16.8027Z" fill="#111827"/>
</svg>
