<svg width="32" height="32" viewBox="0 0 32 32" fill="none" xmlns="http://www.w3.org/2000/svg">
<path fill-rule="evenodd" clip-rule="evenodd" d="M2 0C0.895431 0 0 0.895431 0 2V30C0 31.1046 0.895431 32 2 32H30C31.1046 32 32 31.1046 32 30V2C32 0.895431 31.1046 0 30 0H2ZM9.63599 15.6973C9.24547 15.3067 9.24547 14.6736 9.63599 14.283L15.2928 8.62619C15.4048 8.51425 15.5367 8.43439 15.6771 8.38662C15.8066 8.34254 15.9435 8.32579 16.0785 8.33637C16.1782 8.34411 16.2737 8.36645 16.363 8.40125C16.4789 8.44633 16.5881 8.51385 16.684 8.60381C16.6928 8.61211 16.7015 8.62056 16.71 8.62917L22.3639 14.283C22.7544 14.6736 22.7544 15.3067 22.3639 15.6973C21.9734 16.0878 21.3402 16.0878 20.9497 15.6973L17 11.7476V22.6667C17 23.219 16.5523 23.6667 16 23.6667C15.4477 23.6667 15 23.219 15 22.6667V11.7475L11.0502 15.6973C10.6597 16.0878 10.0265 16.0878 9.63599 15.6973Z" fill="#111827"/>
</svg>
