<svg width="32" height="33" viewBox="0 0 32 33" fill="none" xmlns="http://www.w3.org/2000/svg">
<path fill-rule="evenodd" clip-rule="evenodd" d="M20.5217 4.97827C20.5217 4.42599 20.074 3.97827 19.5217 3.97827C18.9694 3.97827 18.5217 4.42599 18.5217 4.97827V12.9783C18.5217 13.5306 18.9694 13.9783 19.5217 13.9783H27.5217C28.074 13.9783 28.5217 13.5306 28.5217 12.9783C28.5217 12.426 28.074 11.9783 27.5217 11.9783H20.5217V4.97827ZM4.47852 19.0219C3.92623 19.0219 3.47852 19.4696 3.47852 20.0219C3.47852 20.5741 3.92623 21.0219 4.47852 21.0219H11.4785V28.0219C11.4785 28.5741 11.9262 29.0219 12.4785 29.0219C13.0308 29.0219 13.4785 28.5741 13.4785 28.0219V20.0219C13.4785 19.4696 13.0308 19.0219 12.4785 19.0219H4.47852Z" fill="#111827"/>
<path fill-rule="evenodd" clip-rule="evenodd" d="M28.7066 5.20747C29.0971 4.81695 29.0971 4.18378 28.7066 3.79326C28.3161 3.40274 27.6829 3.40274 27.2924 3.79326L18.8145 12.2711C18.424 12.6616 18.424 13.2948 18.8145 13.6853C19.2051 14.0759 19.8382 14.0759 20.2288 13.6853L28.7066 5.20747ZM3.29338 27.7926C2.90286 28.1832 2.90286 28.8163 3.29338 29.2069C3.68391 29.5974 4.31707 29.5974 4.70759 29.2069L13.1855 20.729C13.576 20.3384 13.576 19.7053 13.1855 19.3147C12.795 18.9242 12.1618 18.9242 11.7713 19.3147L3.29338 27.7926Z" fill="#111827"/>
</svg>
