<svg width="32" height="32" viewBox="0 0 32 32" fill="none" xmlns="http://www.w3.org/2000/svg">
<path fill-rule="evenodd" clip-rule="evenodd" d="M8.95119 8.58723C9.34171 8.19671 9.34171 7.56354 8.95119 7.17302C8.56067 6.7825 7.9275 6.7825 7.53698 7.17302L3.2951 11.4149C3.20151 11.5085 3.13035 11.616 3.08162 11.7308C3.03049 11.851 3.0022 11.9832 3.0022 12.122C3.0022 12.2652 3.03228 12.4013 3.08646 12.5244C3.12779 12.6185 3.18432 12.7076 3.25606 12.7878C3.27003 12.8035 3.28449 12.8187 3.29941 12.8334L7.53698 17.071C7.9275 17.4615 8.56067 17.4615 8.95119 17.071C9.34171 16.6805 9.34171 16.0473 8.95119 15.6568L6.41644 13.122H16C18.9168 13.122 21.7142 14.2807 23.7767 16.3432C25.8392 18.4057 26.9979 21.203 26.9979 24.1198C26.9979 24.6721 27.4456 25.1198 27.9979 25.1198C28.5501 25.1198 28.9979 24.6721 28.9979 24.1198C28.9979 20.6726 27.6284 17.3666 25.1909 14.929C22.7533 12.4914 19.4473 11.122 16 11.122H6.41641L8.95119 8.58723Z" fill="#111827"/>
</svg>
