<svg width="32" height="32" viewBox="0 0 32 32" fill="none" xmlns="http://www.w3.org/2000/svg">
<path fill-rule="evenodd" clip-rule="evenodd" d="M20.2983 3.09098C20.1708 3.03207 20.0289 2.99921 19.8792 2.99921C19.7479 2.99921 19.6226 3.02451 19.5077 3.0705C19.3855 3.1193 19.271 3.19317 19.1721 3.29211L14.9291 7.53504C14.5386 7.92556 14.5386 8.55872 14.9291 8.94925C15.3197 9.33977 15.9528 9.33977 16.3434 8.94925L18.8792 6.41338V16C18.8792 18.9176 17.7202 21.7157 15.6572 23.7788C13.5941 25.8418 10.796 27.0008 7.87842 27.0008C7.32613 27.0008 6.87842 27.4485 6.87842 28.0008C6.87842 28.5531 7.32613 29.0008 7.87842 29.0008C11.3264 29.0008 14.6332 27.6311 17.0714 25.193C19.5095 22.7548 20.8792 19.448 20.8792 16V6.41348L23.415 8.94925C23.8055 9.33977 24.4387 9.33977 24.8292 8.94925C25.2197 8.55872 25.2197 7.92556 24.8292 7.53504L20.5929 3.29877C20.5086 3.21286 20.4089 3.14211 20.2983 3.09098Z" fill="#111827"/>
</svg>
