<svg width="32" height="33" viewBox="0 0 32 33" fill="none" xmlns="http://www.w3.org/2000/svg">
<path fill-rule="evenodd" clip-rule="evenodd" d="M21 2.49988C21.5523 2.49988 22 2.94759 22 3.49988V10.4999H29C29.5523 10.4999 30 10.9476 30 11.4999C30 12.0522 29.5523 12.4999 29 12.4999H21C20.4477 12.4999 20 12.0522 20 11.4999V3.49988C20 2.94759 20.4477 2.49988 21 2.49988ZM21.0002 20.5C20.448 20.5 20.0002 20.9477 20.0002 21.5V29.5C20.0002 30.0523 20.448 30.5 21.0002 30.5C21.5525 30.5 22.0002 30.0523 22.0002 29.5V22.5H29.0002C29.5525 22.5 30.0002 22.0523 30.0002 21.5C30.0002 20.9477 29.5525 20.5 29.0002 20.5H21.0002ZM3 20.5001C2.44772 20.5001 2 20.9478 2 21.5001C2 22.0524 2.44772 22.5001 3 22.5001H10V29.5001C10 30.0524 10.4477 30.5001 11 30.5001C11.5523 30.5001 12 30.0524 12 29.5001V21.5001C12 20.9478 11.5523 20.5001 11 20.5001H3ZM12.0002 3.50012C12.0002 2.94784 11.5525 2.50012 11.0002 2.50012C10.448 2.50012 10.0002 2.94784 10.0002 3.50012V10.5001H3.00024C2.44796 10.5001 2.00024 10.9478 2.00024 11.5001C2.00024 12.0524 2.44796 12.5001 3.00024 12.5001H11.0002C11.5525 12.5001 12.0002 12.0524 12.0002 11.5001V3.50012Z" fill="#111827"/>
<path fill-rule="evenodd" clip-rule="evenodd" d="M31.7073 0.792649C32.0978 1.18317 32.0978 1.81634 31.7073 2.20686L21.7071 12.207C21.3166 12.5975 20.6834 12.5975 20.2929 12.207C19.9024 11.8165 19.9024 11.1833 20.2929 10.7928L30.2931 0.792649C30.6836 0.402125 31.3167 0.402125 31.7073 0.792649ZM11.7068 22.2071C12.0973 21.8166 12.0973 21.1834 11.7068 20.7929C11.3163 20.4024 10.6831 20.4024 10.2926 20.7929L0.292405 30.7931C-0.0981194 31.1836 -0.0981194 31.8167 0.292405 32.2073C0.682929 32.5978 1.31609 32.5978 1.70662 32.2073L11.7068 22.2071ZM21.7071 20.793C21.3166 20.4025 20.6834 20.4025 20.2929 20.793C19.9024 21.1835 19.9024 21.8167 20.2929 22.2072L30.293 32.2074C30.6836 32.5979 31.3167 32.5979 31.7073 32.2074C32.0978 31.8169 32.0978 31.1837 31.7073 30.7932L21.7071 20.793ZM1.70686 0.792893C1.31634 0.402369 0.683173 0.402369 0.292649 0.792893C-0.0978752 1.18342 -0.0978752 1.81658 0.292649 2.20711L10.2928 12.2073C10.6833 12.5978 11.3165 12.5978 11.707 12.2073C12.0975 11.8167 12.0975 11.1836 11.707 10.7931L1.70686 0.792893Z" fill="#111827"/>
</svg>
