<svg width="32" height="32" viewBox="0 0 32 32" fill="none" xmlns="http://www.w3.org/2000/svg">
<path fill-rule="evenodd" clip-rule="evenodd" d="M8.57813 5.28925C8.02585 5.28925 7.57813 5.73696 7.57813 6.28925V23.2967L4.70735 20.4259C4.31683 20.0354 3.68366 20.0354 3.29314 20.4259C2.90261 20.8164 2.90261 21.4496 3.29314 21.8401L7.8708 26.4178C8.01458 26.5616 8.19126 26.6524 8.3766 26.6903C8.3929 26.6936 8.40934 26.6966 8.42592 26.6991C8.50498 26.7112 8.58521 26.7138 8.66477 26.7069C8.79529 26.6957 8.91865 26.6594 9.03001 26.6029C9.07684 26.5792 9.12154 26.5518 9.16376 26.5213C9.21125 26.4869 9.2556 26.4485 9.2963 26.4065L13.8627 21.8401C14.2532 21.4496 14.2532 20.8164 13.8627 20.4259C13.4721 20.0354 12.839 20.0354 12.4485 20.4259L9.57813 23.2962V7.28925H27.9995C28.5518 7.28925 28.9995 6.84153 28.9995 6.28925C28.9995 5.73696 28.5518 5.28925 27.9995 5.28925H8.57813Z" fill="#111827"/>
</svg>
