<svg width="32" height="33" viewBox="0 0 32 33" fill="none" xmlns="http://www.w3.org/2000/svg">
<path fill-rule="evenodd" clip-rule="evenodd" d="M14.9251 28.4989C14.9251 29.0512 15.3728 29.4989 15.9251 29.4989H23.9251C24.4773 29.4989 24.9251 29.0512 24.9251 28.4989V20.4989C24.9251 19.9466 24.4773 19.4989 23.9251 19.4989C23.3728 19.4989 22.9251 19.9466 22.9251 20.4989V26.1103L7.80772 10.9929C7.41719 10.6024 6.78403 10.6024 6.3935 10.9929C6.00298 11.3834 6.00298 12.0166 6.3935 12.4071L21.4853 27.4989H15.9251C15.3728 27.4989 14.9251 27.9466 14.9251 28.4989ZM2.50073 4.50106C2.50073 5.05334 2.94845 5.50106 3.50073 5.50106H27.4992C28.0514 5.50106 28.4992 5.05334 28.4992 4.50106C28.4992 3.94878 28.0514 3.50106 27.4992 3.50106H3.50073C2.94845 3.50106 2.50073 3.94878 2.50073 4.50106Z" fill="#111827"/>
</svg>
