<svg width="32" height="33" viewBox="0 0 32 33" fill="none" xmlns="http://www.w3.org/2000/svg">
<path fill-rule="evenodd" clip-rule="evenodd" d="M11.9987 19.4986C11.9987 20.0509 11.551 20.4986 10.9987 20.4986C10.4465 20.4986 9.99874 20.0509 9.99874 19.4986V11.5189C9.99344 11.2562 10.091 10.9919 10.2914 10.7915C10.4065 10.6764 10.5426 10.5953 10.6873 10.548C10.7853 10.5159 10.89 10.4986 10.9987 10.4986H18.9987C19.551 10.4986 19.9987 10.9463 19.9987 11.4986C19.9987 12.0509 19.551 12.4986 18.9987 12.4986H13.4127L21.7085 20.7944C22.0991 21.1849 22.0991 21.818 21.7085 22.2086C21.318 22.5991 20.6848 22.5991 20.2943 22.2086L11.9987 13.913V19.4986Z" fill="#111827"/>
</svg>
