<svg width="32" height="33" viewBox="0 0 32 33" fill="none" xmlns="http://www.w3.org/2000/svg">
<path fill-rule="evenodd" clip-rule="evenodd" d="M2 0.5C0.895431 0.5 0 1.39543 0 2.5V30.5C0 31.6046 0.895431 32.5 2 32.5H30C31.1046 32.5 32 31.6046 32 30.5V2.5C32 1.39543 31.1046 0.5 30 0.5H2ZM8.33341 16.4999C8.33341 16.3329 8.37435 16.1755 8.44673 16.0371C8.49584 15.9432 8.55943 15.8581 8.63454 15.7847L14.2832 10.136C14.6737 9.74546 15.3069 9.74546 15.6974 10.136C16.0879 10.5265 16.0879 11.1597 15.6974 11.5502L11.7477 15.4999L22.6667 15.4999C23.219 15.4999 23.6667 15.9476 23.6667 16.4999C23.6667 17.0522 23.219 17.4999 22.6667 17.4999H11.7476L15.6974 21.4497C16.0879 21.8402 16.0879 22.4734 15.6974 22.8639C15.3069 23.2544 14.6737 23.2544 14.2832 22.8639L8.62635 17.2071L8.62308 17.2038C8.53639 17.1163 8.46917 17.0168 8.4214 16.9107C8.36487 16.7854 8.33341 16.6463 8.33341 16.4999Z" fill="#111827"/>
</svg>
