<svg width="33" height="33" viewBox="0 0 33 33" fill="none" xmlns="http://www.w3.org/2000/svg">
<path fill-rule="evenodd" clip-rule="evenodd" d="M28.9602 16.2829C28.9602 22.9103 23.5876 28.2829 16.9602 28.2829C10.3328 28.2829 4.96021 22.9103 4.96021 16.2829C4.96021 9.65548 10.3328 4.2829 16.9602 4.2829C23.5876 4.2829 28.9602 9.65548 28.9602 16.2829ZM16.91 11.3331C17.3005 11.7237 17.3005 12.3568 16.91 12.7474L14.3744 15.2829H21.9602C22.5125 15.2829 22.9602 15.7306 22.9602 16.2829C22.9602 16.8352 22.5125 17.2829 21.9602 17.2829H14.3745L16.91 19.8184C17.3005 20.209 17.3005 20.8421 16.91 21.2326C16.5195 21.6232 15.8863 21.6232 15.4958 21.2326L11.2584 16.9953C11.2386 16.9757 11.2195 16.9553 11.2013 16.9342C11.1411 16.8642 11.0922 16.7878 11.0546 16.7075C10.994 16.5786 10.9602 16.4347 10.9602 16.2829C10.9602 16.1333 10.9931 15.9913 11.052 15.8638C11.0915 15.7783 11.1436 15.6971 11.2086 15.6233C11.2244 15.6053 11.2408 15.5879 11.2578 15.5711L15.4958 11.3331C15.8863 10.9426 16.5195 10.9426 16.91 11.3331Z" fill="#1C1B1F"/>
</svg>
