<svg width="32" height="33" viewBox="0 0 32 33" fill="none" xmlns="http://www.w3.org/2000/svg">
<path fill-rule="evenodd" clip-rule="evenodd" d="M16.3543 4.56411C16.2442 4.52232 16.1247 4.49945 15.9998 4.49945C15.8394 4.49945 15.6877 4.53725 15.5533 4.60442C15.4983 4.63187 15.4453 4.66471 15.3951 4.70293C15.3557 4.73288 15.3186 4.76569 15.2841 4.80104L9.45891 10.6263C9.06838 11.0168 9.06838 11.65 9.45891 12.0405C9.84943 12.431 10.4826 12.431 10.8731 12.0405L14.9998 7.91377V27.5005C14.9998 28.0528 15.4475 28.5005 15.9998 28.5005C16.5521 28.5005 16.9998 28.0528 16.9998 27.5005V7.91358L21.1267 12.0405C21.5173 12.431 22.1504 12.431 22.5409 12.0405C22.9315 11.65 22.9315 11.0168 22.5409 10.6263L16.707 4.79235C16.6035 4.68883 16.4829 4.61275 16.3543 4.56411Z" fill="#111827"/>
</svg>
