<svg width="32" height="32" viewBox="0 0 32 32" fill="none" xmlns="http://www.w3.org/2000/svg">
<path fill-rule="evenodd" clip-rule="evenodd" d="M3.29314 10.1599C2.90261 10.5504 2.90261 11.1836 3.29314 11.5741C3.68366 11.9646 4.31683 11.9646 4.70735 11.5741L7.57813 8.70329V25.7107C7.57813 26.263 8.02585 26.7107 8.57813 26.7107H27.9995C28.5518 26.7107 28.9995 26.263 28.9995 25.7107C28.9995 25.1584 28.5518 24.7107 27.9995 24.7107H9.57813V8.70375L12.4485 11.5741C12.839 11.9646 13.4721 11.9646 13.8627 11.5741C14.2532 11.1835 14.2532 10.5504 13.8627 10.1599L9.29747 5.59466C9.12295 5.41398 8.88098 5.29887 8.61213 5.28989C8.57289 5.28855 8.53358 5.28952 8.49443 5.29278C8.43023 5.2981 8.36774 5.30948 8.30756 5.32636C8.1476 5.37111 7.99661 5.45639 7.8708 5.5822L3.29314 10.1599Z" fill="#111827"/>
</svg>
