<svg width="32" height="33" viewBox="0 0 32 33" fill="none" xmlns="http://www.w3.org/2000/svg">
<path fill-rule="evenodd" clip-rule="evenodd" d="M18.8733 9.95909C18.4828 9.56857 17.8496 9.56857 17.4591 9.95909C17.0686 10.3496 17.0686 10.9828 17.4591 11.3733L21.5859 15.5001L7.99951 15.5001C7.44723 15.5001 6.99951 15.9478 6.99951 16.5001C6.99951 17.0524 7.44723 17.5001 7.99951 17.5001L21.5859 17.5001L17.4591 21.6269C17.0686 22.0174 17.0686 22.6506 17.4591 23.0411C17.8496 23.4317 18.4828 23.4317 18.8733 23.0411L24.6996 17.2149C24.7339 17.1812 24.7658 17.1452 24.7951 17.107C24.9237 16.9387 25.0002 16.7283 25.0002 16.5001C25.0002 16.3353 24.9603 16.1798 24.8897 16.0427C24.8588 15.9827 24.8214 15.9252 24.7776 15.8711C24.7536 15.8415 24.7279 15.8132 24.7007 15.7865L18.8733 9.95909Z" fill="#111827"/>
</svg>
