<svg width="32" height="33" viewBox="0 0 32 33" fill="none" xmlns="http://www.w3.org/2000/svg">
<path d="M16 5.70711C16 5.26165 15.4614 5.03857 15.1464 5.35355L4.35355 16.1464C4.15829 16.3417 4.15829 16.6583 4.35355 16.8536L15.1464 27.6464C15.4614 27.9614 16 27.7383 16 27.2929V23C16 22.7239 16.2239 22.5 16.5 22.5H27C27.2652 22.5 27.5196 22.3946 27.7071 22.2071C27.8946 22.0196 28 21.7652 28 21.5V11.5C28 11.2348 27.8946 10.9804 27.7071 10.7929C27.5196 10.6054 27.2652 10.5 27 10.5H16.5C16.2239 10.5 16 10.2761 16 10V5.70711Z" fill="#111827"/>
</svg>
