<svg width="32" height="32" viewBox="0 0 32 32" fill="none" xmlns="http://www.w3.org/2000/svg">
<path fill-rule="evenodd" clip-rule="evenodd" d="M7.17156 7.53553C6.78103 7.92606 6.78103 8.55922 7.17156 8.94975C7.56208 9.34027 8.19524 9.34027 8.58577 8.94975L11.1213 6.41418V16C11.1213 19.4478 12.491 22.7544 14.929 25.1924C17.3669 27.6304 20.6735 29 24.1213 29C24.6736 29 25.1213 28.5523 25.1213 28C25.1213 27.4477 24.6736 27 24.1213 27C21.204 27 18.4061 25.8411 16.3432 23.7782C14.2803 21.7153 13.1213 18.9174 13.1213 16V6.41425L15.6568 8.94975C16.0474 9.34027 16.6805 9.34027 17.071 8.94975C17.4616 8.55922 17.4616 7.92606 17.071 7.53553L12.8311 3.29554C12.8236 3.28806 12.8161 3.2807 12.8084 3.27345C12.7134 3.1835 12.6051 3.11574 12.49 3.07017C12.3952 3.03258 12.2934 3.00905 12.187 3.00215C12.1405 2.9991 12.0937 2.9993 12.0472 3.00273C11.9549 3.0095 11.8661 3.02878 11.7825 3.0589C11.6481 3.10719 11.5219 3.18519 11.4142 3.29289L7.17156 7.53553Z" fill="#111827"/>
</svg>
