<svg width="32" height="32" viewBox="0 0 32 32" fill="none" xmlns="http://www.w3.org/2000/svg">
<path fill-rule="evenodd" clip-rule="evenodd" d="M32 16C32 24.8366 24.8366 32 16 32C7.16344 32 0 24.8366 0 16C0 7.16344 7.16344 0 16 0C24.8366 0 32 7.16344 32 16ZM10.337 13.0801C10.8705 12.9372 11.4188 13.2538 11.5618 13.7872L13.0074 19.1824L18.4668 9.72651C18.743 9.24822 19.3546 9.08434 19.8328 9.36049C20.3111 9.63663 20.475 10.2482 20.1989 10.7265L14.7393 20.1828L20.135 18.737C20.6685 18.594 21.2168 18.9106 21.3598 19.4441C21.5027 19.9776 21.1861 20.5259 20.6526 20.6688L12.9252 22.7394C12.8243 22.7664 12.7229 22.777 12.6238 22.7728C12.4677 22.7663 12.3108 22.7231 12.1662 22.6395C11.9201 22.4975 11.7573 22.2666 11.6947 22.0108L9.62994 14.3049C9.487 13.7714 9.80358 13.2231 10.337 13.0801Z" fill="#111827"/>
</svg>
