<svg width="32" height="32" viewBox="0 0 32 32" fill="none" xmlns="http://www.w3.org/2000/svg">
<path fill-rule="evenodd" clip-rule="evenodd" d="M16.0747 5.06104C16.627 5.06104 17.0747 5.50875 17.0747 6.06104V25.9391C17.0747 26.4914 16.627 26.9391 16.0747 26.9391C15.5224 26.9391 15.0747 26.4914 15.0747 25.9391V6.06104C15.0747 5.50875 15.5224 5.06104 16.0747 5.06104ZM6.41214 15L8.92375 12.4884C9.31428 12.0978 9.31428 11.4647 8.92375 11.0742C8.53323 10.6836 7.90007 10.6836 7.50954 11.0742L3.29276 15.2909C3.11562 15.4681 3.01883 15.6951 3.00239 15.9268C3.00064 15.951 2.99976 15.9754 2.99976 16C2.99976 16.2956 3.128 16.5612 3.33189 16.7443L7.50954 20.9219C7.90007 21.3125 8.53323 21.3125 8.92375 20.9219C9.31428 20.5314 9.31428 19.8982 8.92375 19.5077L6.41602 17H11.951C12.5033 17 12.951 16.5523 12.951 16C12.951 15.4477 12.5033 15 11.951 15H6.41214ZM23.048 11.0741C23.4605 10.7069 24.1115 10.7258 24.502 11.1163L28.7188 15.3331C29.1093 15.7236 29.0915 16.3379 28.679 16.7051L24.2248 20.6703C23.8123 21.0375 23.1613 21.0186 22.7708 20.6281C22.3802 20.2376 22.3981 19.6233 22.8106 19.2561L25.3471 16.998H19.7796C19.2273 16.998 18.7796 16.5503 18.7796 15.998C18.7796 15.4457 19.2273 14.998 19.7796 14.998H25.56L23.0082 12.4461C22.6177 12.0556 22.6355 11.4413 23.048 11.0741Z" fill="#111827"/>
</svg>
