<svg width="33" height="33" viewBox="0 0 33 33" fill="none" xmlns="http://www.w3.org/2000/svg">
<path d="M20.4951 13.8185V19.8185H14.4951" stroke="white" stroke-width="2" stroke-linecap="round" stroke-linejoin="round"/>
<path d="M13.4243 12.7474L20.4954 19.8184" stroke="white" stroke-width="2" stroke-linecap="round" stroke-linejoin="round"/>
<path fill-rule="evenodd" clip-rule="evenodd" d="M28.96 16.2829C28.96 22.9103 23.5874 28.2829 16.96 28.2829C10.3325 28.2829 4.95996 22.9103 4.95996 16.2829C4.95996 9.65548 10.3325 4.2829 16.96 4.2829C23.5874 4.2829 28.96 9.65548 28.96 16.2829ZM20.4954 12.8184C19.9431 12.8184 19.4954 13.2661 19.4954 13.8184V17.4042L14.1315 12.0403C13.741 11.6498 13.1078 11.6498 12.7173 12.0403C12.3268 12.4308 12.3268 13.064 12.7173 13.4545L18.0812 18.8184H14.4954C13.9431 18.8184 13.4954 19.2661 13.4954 19.8184C13.4954 20.3707 13.9431 20.8184 14.4954 20.8184H20.4879C20.5158 20.8186 20.5437 20.8177 20.5715 20.8156C20.6636 20.8086 20.7522 20.7893 20.8356 20.7591C20.9695 20.7107 21.0952 20.6329 21.2026 20.5256C21.3084 20.4197 21.3855 20.2961 21.434 20.1643C21.4666 20.0759 21.487 19.9817 21.4933 19.8835C21.4949 19.8597 21.4956 19.8358 21.4954 19.8119V13.8184C21.4954 13.2661 21.0477 12.8184 20.4954 12.8184Z" fill="#1C1B1F"/>
</svg>
