<svg width="32" height="33" viewBox="0 0 32 33" fill="none" xmlns="http://www.w3.org/2000/svg">
<path fill-rule="evenodd" clip-rule="evenodd" d="M2 0.5C0.895431 0.5 0 1.39543 0 2.5V30.5C0 31.6046 0.895431 32.5 2 32.5H30C31.1046 32.5 32 31.6046 32 30.5V2.5C32 1.39543 31.1046 0.5 30 0.5H2ZM23.6667 16.4999C23.6667 16.3329 23.6257 16.1755 23.5534 16.0371C23.5042 15.9432 23.4406 15.8581 23.3655 15.7847L17.7169 10.136C17.3263 9.74546 16.6932 9.74546 16.3027 10.136C15.9121 10.5265 15.9121 11.1597 16.3027 11.5502L20.2524 15.4999L9.33333 15.4999C8.78105 15.4999 8.33333 15.9476 8.33333 16.4999C8.33333 17.0522 8.78105 17.4999 9.33333 17.4999H20.2525L16.3027 21.4497C15.9121 21.8402 15.9121 22.4734 16.3027 22.8639C16.6932 23.2544 17.3263 23.2544 17.7169 22.8639L23.3737 17.2071L23.377 17.2038C23.4637 17.1163 23.5309 17.0168 23.5787 16.9107C23.6352 16.7854 23.6667 16.6463 23.6667 16.4999Z" fill="#111827"/>
</svg>
