<svg width="32" height="32" viewBox="0 0 32 32" fill="none" xmlns="http://www.w3.org/2000/svg">
<path fill-rule="evenodd" clip-rule="evenodd" d="M16.1997 4.0011C16.1997 3.44881 16.6474 3.0011 17.1997 3.0011H24.3992C24.5309 3.0011 24.6566 3.02653 24.7717 3.07276C24.8936 3.12157 25.0078 3.19533 25.1065 3.29405C25.3065 3.49405 25.4041 3.75768 25.3992 4.01977V11.2006C25.3992 11.7529 24.9515 12.2006 24.3992 12.2006C23.847 12.2006 23.3992 11.7529 23.3992 11.2006V6.41554L8.30772 21.5071C7.91719 21.8976 7.28403 21.8976 6.8935 21.5071C6.50298 21.1165 6.50298 20.4834 6.8935 20.0929L21.9853 5.0011L17.1997 5.0011C16.6474 5.0011 16.1997 4.55338 16.1997 4.0011ZM3.00073 27.9989C3.00073 27.4466 3.44845 26.9989 4.00073 26.9989H27.9992C28.5514 26.9989 28.9992 27.4466 28.9992 27.9989C28.9992 28.5512 28.5514 28.9989 27.9992 28.9989H4.00073C3.44845 28.9989 3.00073 28.5512 3.00073 27.9989Z" fill="#111827"/>
</svg>
