<svg width="32" height="33" viewBox="0 0 32 33" fill="none" xmlns="http://www.w3.org/2000/svg">
<path fill-rule="evenodd" clip-rule="evenodd" d="M10.038 6.09687C9.64752 6.4874 9.6476 7.12048 10.0382 7.5109C10.4289 7.90132 11.0621 7.90124 11.4526 7.51072L16.0485 2.91487L20.6455 7.50952C21.0361 7.89994 21.6694 7.89986 22.0599 7.50933C22.4504 7.11881 22.4504 6.48572 22.0597 6.0953L16.7554 0.793739C16.3648 0.403317 15.7315 0.4034 15.341 0.793924L10.038 6.09687ZM11.4524 25.4905C11.0618 25.1001 10.4286 25.1001 10.038 25.4907C9.64752 25.8812 9.6476 26.5143 10.0382 26.9047L15.3426 32.2063C15.7332 32.5967 16.3664 32.5966 16.757 32.2061L22.0599 26.9031C22.4504 26.5126 22.4504 25.8795 22.0597 25.4891C21.6691 25.0987 21.0359 25.0988 20.6453 25.4893L16.0495 30.0851L11.4524 25.4905ZM7.01128 10.5389C7.4018 10.9295 7.4018 11.5626 7.01128 11.9532L2.41543 16.549L7.01128 21.1448C7.4018 21.5354 7.4018 22.1685 7.01128 22.5591C6.62075 22.9496 5.98759 22.9496 5.59706 22.5591L0.294114 17.2561C-0.0964106 16.8656 -0.0964102 16.2324 0.294114 15.8419L5.59706 10.5389C5.98759 10.1484 6.62075 10.1484 7.01128 10.5389ZM26.4029 10.5374C26.0124 10.1469 25.3793 10.147 24.9889 10.5376C24.5985 10.9282 24.5986 11.5615 24.9891 11.952L29.5849 16.5478L24.9903 21.1449C24.5999 21.5355 24.6 22.1688 24.9905 22.5593C25.381 22.9498 26.0141 22.9497 26.4045 22.5591L31.7061 17.2548C32.0965 16.8641 32.0964 16.2309 31.7059 15.8404L26.4029 10.5374Z" fill="#111827"/>
<path fill-rule="evenodd" clip-rule="evenodd" d="M17.0483 1.50085C17.0483 0.94857 16.6006 0.500854 16.0483 0.500854C15.4961 0.500854 15.0483 0.94857 15.0483 1.50085V11.5002C15.0483 12.0525 15.4961 12.5002 16.0483 12.5002C16.6006 12.5002 17.0483 12.0525 17.0483 11.5002V1.50085ZM17.0483 21.4998C17.0483 20.9475 16.6006 20.4998 16.0483 20.4998C15.4961 20.4998 15.0483 20.9475 15.0483 21.4998V31.4991C15.0483 32.0514 15.4961 32.4991 16.0483 32.4991C16.6006 32.4991 17.0483 32.0514 17.0483 31.4991V21.4998ZM0.000976562 16.5476C0.000976562 15.9953 0.448692 15.5476 1.00098 15.5476H11.0003C11.5526 15.5476 12.0003 15.9953 12.0003 16.5476C12.0003 17.0999 11.5526 17.5476 11.0003 17.5476H1.00098C0.448692 17.5476 0.000976562 17.0999 0.000976562 16.5476ZM20.9995 15.5449C20.4472 15.5449 19.9995 15.9926 19.9995 16.5449C19.9995 17.0972 20.4472 17.5449 20.9995 17.5449H30.9988C31.5511 17.5449 31.9988 17.0972 31.9988 16.5449C31.9988 15.9926 31.5511 15.5449 30.9988 15.5449H20.9995Z" fill="#111827"/>
</svg>
