<svg width="32" height="33" viewBox="0 0 32 33" fill="none" xmlns="http://www.w3.org/2000/svg">
<path fill-rule="evenodd" clip-rule="evenodd" d="M2 0.5C0.895431 0.5 0 1.39543 0 2.5V30.5C0 31.6046 0.895431 32.5 2 32.5H30C31.1046 32.5 32 31.6046 32 30.5V2.5C32 1.39543 31.1046 0.5 30 0.5H2ZM9.63599 16.1973C9.24547 15.8067 9.24547 15.1736 9.63599 14.783L15.2928 9.12619C15.4048 9.01425 15.5367 8.93439 15.6771 8.88662C15.8066 8.84254 15.9435 8.82579 16.0785 8.83637C16.1782 8.84411 16.2737 8.86645 16.363 8.90125C16.4789 8.94633 16.5881 9.01385 16.684 9.10381C16.6928 9.11211 16.7015 9.12056 16.71 9.12917L22.3639 14.783C22.7544 15.1736 22.7544 15.8067 22.3639 16.1973C21.9734 16.5878 21.3402 16.5878 20.9497 16.1973L17 12.2476V23.1667C17 23.719 16.5523 24.1667 16 24.1667C15.4477 24.1667 15 23.719 15 23.1667V12.2475L11.0502 16.1973C10.6597 16.5878 10.0265 16.5878 9.63599 16.1973Z" fill="#111827"/>
</svg>
