<svg width="33" height="33" viewBox="0 0 33 33" fill="none" xmlns="http://www.w3.org/2000/svg">
<path fill-rule="evenodd" clip-rule="evenodd" d="M6.96021 4.2829C5.85564 4.2829 4.96021 5.17833 4.96021 6.2829V26.2829C4.96021 27.3875 5.85564 28.2829 6.9602 28.2829H26.9602C28.0648 28.2829 28.9602 27.3875 28.9602 26.2829V6.2829C28.9602 5.17833 28.0648 4.2829 26.9602 4.2829H6.96021ZM21.2027 12.0402C21.101 11.9385 20.9828 11.8633 20.8567 11.8145C20.7658 11.7793 20.6684 11.757 20.5669 11.7499C20.5407 11.748 20.5144 11.7472 20.4881 11.7474L14.4957 11.7474C13.9434 11.7474 13.4957 12.1951 13.4957 12.7474C13.4957 13.2997 13.9434 13.7474 14.4957 13.7474L18.0814 13.7474L12.7175 19.1113C12.3269 19.5018 12.3269 20.135 12.7175 20.5255C13.108 20.916 13.7411 20.916 14.1317 20.5255L19.4957 15.1615V18.7474C19.4957 19.2997 19.9434 19.7474 20.4957 19.7474C21.0479 19.7474 21.4957 19.2997 21.4957 18.7474V12.7474C21.4957 12.6079 21.4671 12.475 21.4155 12.3544C21.3668 12.2403 21.2959 12.1334 21.2027 12.0402Z" fill="#1C1B1F"/>
</svg>
