<svg width="32" height="32" viewBox="0 0 32 32" fill="none" xmlns="http://www.w3.org/2000/svg">
<path fill-rule="evenodd" clip-rule="evenodd" d="M15.8003 27.9989C15.8003 28.5512 15.3526 28.9989 14.8003 28.9989H7.60076C7.469 28.9989 7.34319 28.9734 7.22799 28.9271C7.10622 28.8783 6.99211 28.8046 6.89348 28.7059C6.69349 28.506 6.59592 28.2423 6.60076 27.9803V20.7994C6.60076 20.2471 7.04847 19.7994 7.60076 19.7994C8.15304 19.7994 8.60076 20.2471 8.60076 20.7994V25.5845L23.6923 10.4929C24.0828 10.1024 24.716 10.1024 25.1065 10.4929C25.497 10.8835 25.497 11.5166 25.1065 11.9071L10.0147 26.9989H14.8003C15.3526 26.9989 15.8003 27.4466 15.8003 27.9989ZM28.9993 4.00108C28.9993 4.55336 28.5516 5.00108 27.9993 5.00108H4.00085C3.44856 5.00108 3.00085 4.55336 3.00085 4.00108C3.00085 3.44879 3.44856 3.00108 4.00085 3.00108H27.9993C28.5516 3.00108 28.9993 3.44879 28.9993 4.00108Z" fill="#111827"/>
</svg>
