<svg width="32" height="32" viewBox="0 0 32 32" fill="none" xmlns="http://www.w3.org/2000/svg">
<path fill-rule="evenodd" clip-rule="evenodd" d="M32 16C32 24.8366 24.8366 32 16 32C7.16344 32 0 24.8366 0 16C0 7.16344 7.16344 0 16 0C24.8366 0 32 7.16344 32 16ZM9.63599 16.3027C10.0265 15.9121 10.6597 15.9121 11.0502 16.3027L15 20.2525V9.33333C15 8.78105 15.4477 8.33333 16 8.33333C16.5523 8.33333 17 8.78105 17 9.33333V20.2524L20.9497 16.3027C21.3402 15.9121 21.9734 15.9121 22.3639 16.3027C22.7544 16.6932 22.7544 17.3263 22.3639 17.7169L16.7152 23.3656C16.6809 23.4007 16.6439 23.4334 16.6047 23.4632C16.5595 23.4976 16.512 23.5277 16.4628 23.5534C16.3244 23.6257 16.167 23.6667 16 23.6667C15.8536 23.6667 15.7145 23.6352 15.5892 23.5787C15.4818 23.5303 15.3811 23.462 15.2928 23.3737L9.63599 17.7169C9.24547 17.3263 9.24547 16.6932 9.63599 16.3027Z" fill="#111827"/>
</svg>
