<svg width="32" height="32" viewBox="0 0 32 32" fill="none" xmlns="http://www.w3.org/2000/svg">
<path fill-rule="evenodd" clip-rule="evenodd" d="M17.5497 4.62177C17.5497 4.06948 17.102 3.62177 16.5497 3.62177C15.9975 3.62177 15.5497 4.06948 15.5497 4.62177V22.0065L12.8025 19.2592C12.412 18.8687 11.7788 18.8687 11.3883 19.2592C10.9978 19.6498 10.9978 20.2829 11.3883 20.6735L15.8254 25.1106C15.9876 25.281 16.2094 25.3942 16.4573 25.4169C16.7432 25.4435 17.0384 25.3473 17.2574 25.1283L21.7122 20.6735C22.1027 20.2829 22.1027 19.6498 21.7122 19.2592C21.3217 18.8687 20.6885 18.8687 20.298 19.2592L17.5497 22.0075V4.62177ZM5.0498 28.6213C5.0498 28.069 5.49752 27.6213 6.0498 27.6213H27.0502C27.6025 27.6213 28.0502 28.069 28.0502 28.6213C28.0502 29.1735 27.6025 29.6213 27.0502 29.6213H6.0498C5.49752 29.6213 5.0498 29.1735 5.0498 28.6213Z" fill="#111827"/>
</svg>
