<svg width="32" height="32" viewBox="0 0 32 32" fill="none" xmlns="http://www.w3.org/2000/svg">
<path fill-rule="evenodd" clip-rule="evenodd" d="M17.0004 0.999634C17.0004 0.447349 16.5527 -0.000366211 16.0004 -0.000366211C15.4481 -0.000366211 15.0004 0.447349 15.0004 0.999634V8.58594L11.4038 4.9893C11.0133 4.59878 10.3801 4.59878 9.98957 4.9893C9.59905 5.37983 9.59905 6.01299 9.98957 6.40352L15.293 11.707C15.4056 11.8195 15.5384 11.8997 15.6797 11.9473C15.7803 11.9814 15.8882 11.9999 16.0004 11.9999C16.2846 11.9999 16.5411 11.8813 16.7232 11.691L22.0107 6.40352C22.4012 6.01299 22.4012 5.37983 22.0107 4.9893C21.6201 4.59878 20.987 4.59878 20.5965 4.9893L17.0004 8.58533V0.999634ZM9.98957 25.5964C9.59905 25.987 9.59905 26.6201 9.98957 27.0106C10.3801 27.4012 11.0133 27.4012 11.4038 27.0106L15.0004 23.414V31.0004C15.0004 31.5527 15.4481 32.0004 16.0004 32.0004C16.5527 32.0004 17.0004 31.5527 17.0004 31.0004V23.4146L20.5965 27.0106C20.987 27.4012 21.6201 27.4012 22.0107 27.0106C22.4012 26.6201 22.4012 25.987 22.0107 25.5964L16.7205 20.3063C16.5574 20.137 16.3351 20.0251 16.087 20.0039C15.803 19.9792 15.5104 20.0756 15.293 20.293L9.98957 25.5964ZM23.4146 14.4405L27.011 10.8441C27.4015 10.4536 27.4015 9.82044 27.011 9.42992C26.6204 9.0394 25.9873 9.0394 25.5968 9.42992L20.2942 14.7325L20.2799 14.747C20.2004 14.8296 20.1378 14.9226 20.0922 15.0214C20.0332 15.1489 20.0004 15.2909 20.0004 15.4405C20.0004 15.6096 20.0423 15.7688 20.1164 15.9084C20.133 15.9399 20.1513 15.9703 20.1711 15.9996C20.2095 16.0564 20.2536 16.1091 20.3025 16.1568L25.5968 21.451C25.9873 21.8415 26.6204 21.8415 27.011 21.451C27.4015 21.0605 27.4015 20.4273 27.011 20.0368L23.4147 16.4405H31.0006C31.5529 16.4405 32.0006 15.9928 32.0006 15.4405C32.0006 14.8882 31.5529 14.4405 31.0006 14.4405H23.4146ZM4.98906 9.42736C5.40157 9.06014 6.05256 9.07903 6.44309 9.46955L11.6625 14.6889C11.6929 14.7159 11.7218 14.7447 11.7487 14.7752C12.1367 15.1655 12.1185 15.7775 11.7077 16.1441C11.6797 16.1722 11.65 16.1986 11.6189 16.2232L6.10466 21.132C5.69214 21.4992 5.04115 21.4803 4.65063 21.0898C4.2601 20.6993 4.27793 20.085 4.69044 19.7178L8.37491 16.4378H0.999512C0.447227 16.4378 -0.000488281 15.9901 -0.000488281 15.4378C-0.000488281 14.8856 0.447227 14.4378 0.999512 14.4378H8.58771L4.94924 10.7994C4.55872 10.4089 4.57655 9.79458 4.98906 9.42736Z" fill="#111827"/>
</svg>
