<svg width="32" height="32" viewBox="0 0 32 32" fill="none" xmlns="http://www.w3.org/2000/svg">
<path fill-rule="evenodd" clip-rule="evenodd" d="M21.8402 3.29332C21.4497 2.9028 20.8165 2.9028 20.426 3.29332C20.0355 3.68384 20.0355 4.31701 20.426 4.70753L23.2966 7.57815H6.28931C5.73702 7.57815 5.28931 8.02586 5.28931 8.57815V27.9996C5.28931 28.5518 5.73702 28.9996 6.28931 28.9996C6.84159 28.9996 7.28931 28.5518 7.28931 27.9996V9.57815H23.2965L20.426 12.4487C20.0355 12.8392 20.0355 13.4724 20.426 13.8629C20.8165 14.2534 21.4497 14.2534 21.8402 13.8629L26.4179 9.28521C26.5252 9.17787 26.6031 9.05221 26.6514 8.91829C26.6784 8.84364 26.6968 8.76485 26.7053 8.68314C26.7133 8.60721 26.7126 8.53053 26.7032 8.45472C26.696 8.39618 26.6837 8.33919 26.6668 8.28423C26.6205 8.13302 26.5375 7.99062 26.4179 7.87099L21.8402 3.29332Z" fill="#111827"/>
</svg>
