<svg width="32" height="33" viewBox="0 0 32 33" fill="none" xmlns="http://www.w3.org/2000/svg">
<path fill-rule="evenodd" clip-rule="evenodd" d="M32 16.5C32 25.3366 24.8366 32.5 16 32.5C7.16344 32.5 0 25.3366 0 16.5C0 7.66344 7.16344 0.5 16 0.5C24.8366 0.5 32 7.66344 32 16.5ZM10.337 13.5801C10.8705 13.4372 11.4188 13.7538 11.5618 14.2872L13.0074 19.6824L18.4668 10.2265C18.743 9.74822 19.3546 9.58434 19.8328 9.86049C20.3111 10.1366 20.475 10.7482 20.1989 11.2265L14.7393 20.6828L20.135 19.237C20.6685 19.094 21.2168 19.4106 21.3598 19.9441C21.5027 20.4776 21.1861 21.0259 20.6526 21.1688L12.9252 23.2394C12.8243 23.2664 12.7229 23.277 12.6238 23.2728C12.4677 23.2663 12.3108 23.2231 12.1662 23.1395C11.9201 22.9975 11.7573 22.7666 11.6947 22.5108L9.62994 14.8049C9.487 14.2714 9.80358 13.7231 10.337 13.5801Z" fill="#111827"/>
</svg>
