<svg width="33" height="33" viewBox="0 0 33 33" fill="none" xmlns="http://www.w3.org/2000/svg">
<path d="M6.16731 16.2829C5.72186 16.2829 5.49878 16.8215 5.81376 17.1365L16.6067 27.9293C16.8019 28.1246 17.1185 28.1246 17.3138 27.9293L28.1067 17.1365C28.4216 16.8215 28.1986 16.2829 27.7531 16.2829H23.4602C23.1841 16.2829 22.9602 16.059 22.9602 15.7829V5.2829C22.9602 5.01768 22.8548 4.76333 22.6673 4.57579C22.4798 4.38825 22.2254 4.2829 21.9602 4.2829H11.9602C11.695 4.2829 11.4406 4.38825 11.2531 4.57579C11.0656 4.76333 10.9602 5.01768 10.9602 5.2829V15.7829C10.9602 16.059 10.7363 16.2829 10.4602 16.2829H6.16731Z" fill="#1C1B1F"/>
</svg>
