<svg width="32" height="32" viewBox="0 0 32 32" fill="none" xmlns="http://www.w3.org/2000/svg">
<path fill-rule="evenodd" clip-rule="evenodd" d="M20.9286 10.3431C20.5381 9.95257 20.5381 9.3194 20.9286 8.92888C21.3192 8.53836 21.9523 8.53836 22.3428 8.92888L28.6922 15.2782C28.8819 15.4602 29 15.7163 29 15.9999C29 16.2834 28.8821 16.5393 28.6926 16.7212L22.3428 23.071C21.9523 23.4615 21.3192 23.4615 20.9286 23.071C20.5381 22.6805 20.5381 22.0473 20.9286 21.6568L25.5855 16.9999H4C3.44772 16.9999 3 16.5522 3 15.9999C3 15.4477 3.44772 14.9999 4 14.9999H25.5855L20.9286 10.3431Z" fill="#111827"/>
</svg>
