<svg width="32" height="32" viewBox="0 0 32 32" fill="none" xmlns="http://www.w3.org/2000/svg">
<path fill-rule="evenodd" clip-rule="evenodd" d="M17.0505 7.17168C17.441 6.78115 18.0742 6.78115 18.4647 7.17168L22.7073 11.4142C22.8108 11.5178 22.8869 11.6383 22.9355 11.7669C22.971 11.8605 22.9928 11.9608 22.9986 12.0655C23.0006 12.1006 23.0007 12.1359 22.9989 12.1711C22.9876 12.4005 22.8976 12.6268 22.7289 12.8061C22.7209 12.8146 22.7128 12.823 22.7046 12.8312L18.4647 17.071C18.0742 17.4615 17.441 17.4615 17.0505 17.071C16.66 16.6805 16.66 16.0473 17.0505 15.6568L19.5859 13.1214H16.0003C13.0829 13.1214 10.2851 14.2803 8.22225 16.3431C6.15939 18.406 5.00049 21.2038 5.00049 24.1211C5.00049 24.6734 4.55277 25.1211 4.00049 25.1211C3.4482 25.1211 3.00049 24.6734 3.00049 24.1211C3.00049 20.6734 4.3701 17.3668 6.80803 14.9289C9.24596 12.491 12.5525 11.1214 16.0003 11.1214H19.586L17.0505 8.58589C16.66 8.19537 16.66 7.5622 17.0505 7.17168ZM24.4642 7.17168C24.0737 6.78115 23.4406 6.78115 23.05 7.17168C22.6595 7.5622 22.6595 8.19537 23.05 8.58589L26.5855 12.1213L23.05 15.6568C22.6595 16.0473 22.6595 16.6805 23.05 17.071C23.4406 17.4615 24.0737 17.4615 24.4642 17.071L28.7068 12.8285C29.0973 12.4379 29.0973 11.8048 28.7068 11.4142L24.4642 7.17168Z" fill="#111827"/>
</svg>
