<svg width="32" height="33" viewBox="0 0 32 33" fill="none" xmlns="http://www.w3.org/2000/svg">
<path fill-rule="evenodd" clip-rule="evenodd" d="M2 0.5C0.895431 0.5 0 1.39543 0 2.5V30.5C0 31.6046 0.895431 32.5 2 32.5H30C31.1046 32.5 32 31.6046 32 30.5V2.5C32 1.39543 31.1046 0.5 30 0.5H2ZM10.5788 21.9211C10.4607 21.803 10.3783 21.6628 10.3316 21.5137C10.3 21.4126 10.2847 21.3075 10.2859 21.2024V13.214C10.2859 12.6617 10.7337 12.214 11.2859 12.214C11.8382 12.214 12.2859 12.6617 12.2859 13.214L12.2859 18.7997L20.0069 11.0788C20.3974 10.6883 21.0305 10.6883 21.4211 11.0788C21.8116 11.4693 21.8116 12.1025 21.4211 12.493L13.7001 20.214H19.2859C19.8382 20.214 20.2859 20.6617 20.2859 21.214C20.2859 21.7663 19.8382 22.214 19.2859 22.214H11.2859L11.2813 22.214C11.1581 22.2134 11.0403 22.1906 10.9314 22.1494C10.8029 22.1007 10.6823 22.0246 10.5788 21.9211Z" fill="#111827"/>
</svg>
