<svg width="32" height="33" viewBox="0 0 32 33" fill="none" xmlns="http://www.w3.org/2000/svg">
<path fill-rule="evenodd" clip-rule="evenodd" d="M14.9251 4.5011C14.9251 3.94881 15.3728 3.5011 15.9251 3.5011H23.9251C24.4773 3.5011 24.9251 3.94881 24.9251 4.5011V12.5011C24.9251 13.0534 24.4773 13.5011 23.9251 13.5011C23.3728 13.5011 22.9251 13.0534 22.9251 12.5011V6.88974L7.80772 22.0071C7.41719 22.3976 6.78403 22.3976 6.3935 22.0071C6.00298 21.6166 6.00298 20.9834 6.3935 20.5929L21.4853 5.5011H15.9251C15.3728 5.5011 14.9251 5.05338 14.9251 4.5011ZM2.50073 28.4989C2.50073 27.9467 2.94845 27.4989 3.50073 27.4989H27.4992C28.0514 27.4989 28.4992 27.9467 28.4992 28.4989C28.4992 29.0512 28.0514 29.4989 27.4992 29.4989H3.50073C2.94845 29.4989 2.50073 29.0512 2.50073 28.4989Z" fill="#111827"/>
</svg>
