<svg width="32" height="32" viewBox="0 0 32 32" fill="none" xmlns="http://www.w3.org/2000/svg">
<path fill-rule="evenodd" clip-rule="evenodd" d="M9.63602 6.75736C10.7612 5.63214 12.2874 5 13.8787 5H13.8787C14.6666 5 15.4468 5.15519 16.1748 5.45672C16.9027 5.75825 17.5642 6.2002 18.1213 6.75735C18.6785 7.3145 19.1204 7.97594 19.4219 8.70389C19.7235 9.43184 19.8787 10.2121 19.8787 11V25.5858L17.3431 23.0503C16.9526 22.6598 16.3194 22.6598 15.9289 23.0503C15.5384 23.4408 15.5384 24.074 15.9289 24.4645L20.1715 28.7071C20.2791 28.8147 20.405 28.8926 20.5392 28.9409C20.6229 28.9711 20.7118 28.9905 20.8042 28.9973C20.8506 29.0007 20.8973 29.0009 20.9437 28.9979C21.1689 28.9833 21.3901 28.8929 21.5658 28.7266C21.5734 28.7193 21.581 28.7119 21.5884 28.7045L25.8284 24.4645C26.2189 24.074 26.2189 23.4408 25.8284 23.0503C25.4379 22.6598 24.8047 22.6598 24.4142 23.0503L21.8787 25.5858V11C21.8787 9.94941 21.6717 8.90913 21.2697 7.93852C20.8677 6.96792 20.2784 6.08601 19.5355 5.34314C18.7927 4.60027 17.9107 4.011 16.9401 3.60896C15.9695 3.20693 14.9292 3 13.8787 3H13.8787C11.7569 3 9.7221 3.84285 8.22181 5.34315C6.72152 6.84344 5.87866 8.87827 5.87866 11V22C5.87866 22.5523 6.32638 23 6.87866 23C7.43095 23 7.87866 22.5523 7.87866 22V11C7.87866 9.4087 8.5108 7.88258 9.63602 6.75736Z" fill="#111827"/>
</svg>
