<svg width="32" height="33" viewBox="0 0 32 33" fill="none" xmlns="http://www.w3.org/2000/svg">
<path fill-rule="evenodd" clip-rule="evenodd" d="M11.4039 5.4893C11.0134 5.09878 10.3802 5.09878 9.98968 5.4893C9.59915 5.87983 9.59915 6.51299 9.98968 6.90352L15.2931 12.207C15.6836 12.5975 16.3168 12.5975 16.7073 12.207L22.0108 6.90352C22.4013 6.51299 22.4013 5.87983 22.0108 5.4893C21.6203 5.09878 20.9871 5.09878 20.5966 5.4893L16.0002 10.0856L11.4039 5.4893ZM9.98968 26.0965C9.59915 26.487 9.59915 27.1202 9.98968 27.5107C10.3802 27.9012 11.0134 27.9012 11.4039 27.5107L16.0002 22.9144L20.5966 27.5107C20.9871 27.9012 21.6203 27.9012 22.0108 27.5107C22.4013 27.1202 22.4013 26.487 22.0108 26.0965L16.7073 20.793C16.3168 20.4025 15.6836 20.4025 15.2931 20.793L9.98968 26.0965ZM27.0111 9.92998C27.4016 10.3205 27.4016 10.9537 27.0111 11.3442L22.4147 15.9405L27.0111 20.5369C27.4016 20.9274 27.4016 21.5605 27.0111 21.9511C26.6205 22.3416 25.9874 22.3416 25.5969 21.9511L20.2934 16.6476C19.9029 16.2571 19.9029 15.6239 20.2934 15.2334L25.5969 9.92998C25.9874 9.53945 26.6205 9.53945 27.0111 9.92998ZM6.44322 9.96961C6.05269 9.57908 5.4017 9.56019 4.98919 9.92741C4.57668 10.2946 4.55885 10.9089 4.94938 11.2994L9.54571 15.8958L4.69057 20.2178C4.27806 20.5851 4.26024 21.1993 4.65076 21.5899C5.04128 21.9804 5.69228 21.9993 6.10479 21.632L11.7068 16.6451C12.1194 16.2778 12.1372 15.6636 11.7467 15.2731L6.44322 9.96961Z" fill="#111827"/>
<path fill-rule="evenodd" clip-rule="evenodd" d="M17.0002 1.49963C17.0002 0.947349 16.5525 0.499634 16.0002 0.499634C15.448 0.499634 15.0002 0.947349 15.0002 1.49963V11.4999C15.0002 12.0522 15.448 12.4999 16.0002 12.4999C16.5525 12.4999 17.0002 12.0522 17.0002 11.4999V1.49963ZM17.0002 21.5001C17.0002 20.9478 16.5525 20.5001 16.0002 20.5001C15.448 20.5001 15.0002 20.9478 15.0002 21.5001V31.5004C15.0002 32.0527 15.448 32.5004 16.0002 32.5004C16.5525 32.5004 17.0002 32.0527 17.0002 31.5004V21.5001ZM20.0002 15.9406C20.0002 15.3883 20.448 14.9406 21.0002 14.9406H31.0005C31.5528 14.9406 32.0005 15.3883 32.0005 15.9406C32.0005 16.4928 31.5528 16.9406 31.0005 16.9406H21.0002C20.448 16.9406 20.0002 16.4928 20.0002 15.9406ZM0.999512 14.9379C0.447227 14.9379 -0.000488281 15.3856 -0.000488281 15.9379C-0.000488281 16.4902 0.447227 16.9379 0.999512 16.9379H10.9998C11.5521 16.9379 11.9998 16.4902 11.9998 15.9379C11.9998 15.3856 11.5521 14.9379 10.9998 14.9379H0.999512Z" fill="#111827"/>
</svg>
