<svg width="33" height="33" viewBox="0 0 33 33" fill="none" xmlns="http://www.w3.org/2000/svg">
<path d="M16.9602 5.49C16.9602 5.04455 16.4216 4.82147 16.1067 5.13645L5.31376 15.9293C5.1185 16.1246 5.1185 16.4412 5.31376 16.6365L16.1067 27.4293C16.4216 27.7443 16.9602 27.5212 16.9602 27.0758V22.7829C16.9602 22.5068 17.1841 22.2829 17.4602 22.2829H20.4602C20.7363 22.2829 20.9602 22.059 20.9602 21.7829V10.7829C20.9602 10.5068 20.7363 10.2829 20.4602 10.2829H17.4602C17.1841 10.2829 16.9602 10.059 16.9602 9.7829V5.49Z" fill="#1C1B1F"/>
<path d="M28.9602 22.2829V10.2829" stroke="#1C1B1F" stroke-width="2" stroke-linecap="round" stroke-linejoin="round"/>
<path d="M24.9602 22.2829V10.2829" stroke="#1C1B1F" stroke-width="2" stroke-linecap="round" stroke-linejoin="round"/>
</svg>
