<svg width="32" height="33" viewBox="0 0 32 33" fill="none" xmlns="http://www.w3.org/2000/svg">
<path d="M16 5.70711C16 5.26165 16.5386 5.03857 16.8536 5.35355L27.6464 16.1464C27.8417 16.3417 27.8417 16.6583 27.6464 16.8536L16.8536 27.6464C16.5386 27.9614 16 27.7383 16 27.2929V23C16 22.7239 15.7761 22.5 15.5 22.5H5C4.73478 22.5 4.48043 22.3946 4.29289 22.2071C4.10536 22.0196 4 21.7652 4 21.5V11.5C4 11.2348 4.10536 10.9804 4.29289 10.7929C4.48043 10.6054 4.73478 10.5 5 10.5H15.5C15.7761 10.5 16 10.2761 16 10V5.70711Z" fill="#111827"/>
</svg>
