<svg width="32" height="32" viewBox="0 0 32 32" fill="none" xmlns="http://www.w3.org/2000/svg">
<path fill-rule="evenodd" clip-rule="evenodd" d="M17.1136 5.00055C18.5581 5.00055 19.9884 5.28506 21.323 5.83784C22.6575 6.39062 23.8701 7.20083 24.8915 8.22223C25.282 8.61276 25.9152 8.61276 26.3057 8.22223C26.6962 7.83171 26.6962 7.19855 26.3057 6.80802C25.0986 5.6009 23.6655 4.64337 22.0883 3.99008C20.5112 3.33679 18.8208 3.00055 17.1136 3.00055C15.4065 3.00055 13.7161 3.33679 12.1389 3.99008C10.5618 4.64337 9.1287 5.6009 7.92158 6.80802L5.00049 9.72911V5.59815C5.00049 5.04586 4.55277 4.59815 4.00049 4.59815C3.4482 4.59815 3.00049 5.04586 3.00049 5.59815V12.1433C3.00049 12.3068 3.0397 12.461 3.10921 12.5972C3.13226 12.6425 3.15896 12.6863 3.18934 12.7283C3.24732 12.8086 3.31692 12.8799 3.39567 12.9398C3.44026 12.9737 3.48705 13.0034 3.53549 13.0289C3.67441 13.102 3.83261 13.1433 4.00049 13.1433H10.5457C11.098 13.1433 11.5457 12.6956 11.5457 12.1433C11.5457 11.5911 11.098 11.1433 10.5457 11.1433H6.41469L9.33579 8.22223C10.3572 7.20083 11.5698 6.39062 12.9043 5.83784C14.2388 5.28506 15.6692 5.00055 17.1136 5.00055ZM28.9994 19.8568C28.9994 19.7212 28.9724 19.592 28.9235 19.474C28.8747 19.3561 28.8024 19.2456 28.7065 19.1497C28.5255 18.9688 28.2755 18.8568 27.9994 18.8568H27.999H21.4542C20.9019 18.8568 20.4542 19.3045 20.4542 19.8568C20.4542 20.4091 20.9019 20.8568 21.4542 20.8568H25.5852L22.6641 23.7779C21.6427 24.7993 20.4302 25.6095 19.0956 26.1623C17.7611 26.715 16.3308 26.9996 14.8863 26.9996C13.4418 26.9996 12.0115 26.715 10.677 26.1623C9.34245 25.6095 8.12987 24.7993 7.10847 23.7779C6.71794 23.3873 6.08478 23.3873 5.69425 23.7779C5.30373 24.1684 5.30373 24.8016 5.69425 25.1921C6.90137 26.3992 8.33443 27.3567 9.9116 28.01C11.4888 28.6633 13.1792 28.9996 14.8863 28.9996C16.5934 28.9996 18.2838 28.6633 19.861 28.01C21.4382 27.3567 22.8712 26.3992 24.0784 25.1921L26.9994 22.271V26.402C26.9994 26.9543 27.4471 27.402 27.9994 27.402C28.5517 27.402 28.9994 26.9543 28.9994 26.402V19.8572V19.8568Z" fill="#111827"/>
</svg>
