<svg width="32" height="32" viewBox="0 0 32 32" fill="none" xmlns="http://www.w3.org/2000/svg">
<path fill-rule="evenodd" clip-rule="evenodd" d="M16.0001 4.09119C16.5524 4.09119 17.0001 4.5389 17.0001 5.09119V26.9087C17.0001 27.461 16.5524 27.9087 16.0001 27.9087C15.4478 27.9087 15.0001 27.461 15.0001 26.9087V5.09119C15.0001 4.5389 15.4478 4.09119 16.0001 4.09119ZM21.6844 15.0001L24.6078 12.0767C24.9983 11.6862 24.9983 11.053 24.6078 10.6625C24.2172 10.2719 23.5841 10.2719 23.1936 10.6625L18.5654 15.2907C18.3368 15.5192 18.242 15.8309 18.281 16.1284C18.3121 16.3716 18.4307 16.5875 18.6041 16.7436L23.1936 21.3331C23.5841 21.7236 24.2172 21.7236 24.6078 21.3331C24.9983 20.9425 24.9983 20.3094 24.6078 19.9189L21.689 17.0001H27.9998C28.5521 17.0001 28.9998 16.5524 28.9998 16.0001C28.9998 15.4478 28.5521 15.0001 27.9998 15.0001H21.6844ZM7.39214 10.6626C7.80465 10.2954 8.45564 10.3143 8.84617 10.7048L13.3918 15.2505C13.4211 15.2765 13.4489 15.3043 13.475 15.3337C13.8647 15.724 13.8469 16.3375 13.4351 16.7045C13.4073 16.7324 13.3778 16.7586 13.3469 16.7831L8.54576 21.0571C8.13324 21.4243 7.48225 21.4054 7.09173 21.0149C6.70121 20.6243 6.71903 20.0101 7.13154 19.6429L10.1027 16.9979H4.00049C3.4482 16.9979 3.00049 16.5502 3.00049 15.9979C3.00049 15.4457 3.4482 14.9979 4.00049 14.9979H10.3156L7.35232 12.0347C6.9618 11.6441 6.97963 11.0299 7.39214 10.6626Z" fill="#111827"/>
</svg>
