<svg width="33" height="33" viewBox="0 0 33 33" fill="none" xmlns="http://www.w3.org/2000/svg">
<path fill-rule="evenodd" clip-rule="evenodd" d="M6.96021 4.2829C5.85564 4.2829 4.96021 5.17833 4.96021 6.2829V26.2829C4.96021 27.3875 5.85564 28.2829 6.9602 28.2829H26.9602C28.0648 28.2829 28.9602 27.3875 28.9602 26.2829V6.2829C28.9602 5.17833 28.0648 4.2829 26.9602 4.2829H6.96021ZM22.9602 16.2829C22.9602 16.139 22.9298 16.0022 22.8751 15.8786C22.8357 15.7894 22.7826 15.7048 22.7159 15.6279C22.6987 15.6081 22.6807 15.5889 22.6619 15.5705L18.4246 11.3332C18.0341 10.9426 17.4009 10.9426 17.0104 11.3332C16.6199 11.7237 16.6199 12.3568 17.0104 12.7474L19.5459 15.2829H11.9602C11.4079 15.2829 10.9602 15.7306 10.9602 16.2829C10.9602 16.8351 11.4079 17.2829 11.9602 17.2829H19.546L17.0104 19.8184C16.6199 20.209 16.6199 20.8421 17.0104 21.2326C17.4009 21.6232 18.0341 21.6232 18.4246 21.2326L22.6673 16.99C22.7659 16.8914 22.8396 16.7772 22.8885 16.6555C22.9347 16.5403 22.9602 16.4146 22.9602 16.2829Z" fill="#1C1B1F"/>
</svg>
