<svg width="32" height="33" viewBox="0 0 32 33" fill="none" xmlns="http://www.w3.org/2000/svg">
<path fill-rule="evenodd" clip-rule="evenodd" d="M8.9978 16.5022C8.9978 15.9499 8.55009 15.5022 7.9978 15.5022C7.44552 15.5022 6.9978 15.9499 6.9978 16.5022V24.5022C6.9978 24.7701 7.10317 25.0134 7.27473 25.193C7.28525 25.204 7.29602 25.2147 7.30703 25.2253C7.398 25.3123 7.50136 25.3788 7.61127 25.4248C7.73018 25.4746 7.86077 25.5022 7.9978 25.5022H15.9978C16.5501 25.5022 16.9978 25.0545 16.9978 24.5022C16.9978 23.9499 16.5501 23.5022 15.9978 23.5022H10.412L24.7093 9.20491C25.0998 8.81438 25.0998 8.18122 24.7093 7.7907C24.3188 7.40017 23.6856 7.40017 23.2951 7.7907L8.9978 22.088V16.5022Z" fill="#111827"/>
</svg>
