<svg width="32" height="32" viewBox="0 0 32 32" fill="none" xmlns="http://www.w3.org/2000/svg">
<path fill-rule="evenodd" clip-rule="evenodd" d="M17.4571 4.2506C17.1421 3.93562 16.6035 4.1587 16.6035 4.60415V9.19853C16.6035 9.47467 16.3797 9.69853 16.1035 9.69853H8.70155C8.42541 9.69853 8.20155 9.92238 8.20155 10.1985V21.8015C8.20155 22.0776 8.42541 22.3015 8.70155 22.3015H16.1035C16.3797 22.3015 16.6035 22.5253 16.6035 22.8015V27.3959C16.6035 27.8413 17.1421 28.0644 17.4571 27.7494L28.8529 16.3536C29.0482 16.1583 29.0482 15.8417 28.8529 15.6465L17.4571 4.2506ZM5.00049 9.69851C5.00049 9.14623 4.55277 8.69851 4.00049 8.69851C3.4482 8.69851 3.00049 9.14623 3.00049 9.69851V22.3015C3.00049 22.8538 3.4482 23.3015 4.00049 23.3015C4.55277 23.3015 5.00049 22.8538 5.00049 22.3015V9.69851Z" fill="#111827"/>
</svg>
