<svg width="32" height="32" viewBox="0 0 32 32" fill="none" xmlns="http://www.w3.org/2000/svg">
<path fill-rule="evenodd" clip-rule="evenodd" d="M32 16C32 24.8366 24.8366 32 16 32C7.16344 32 0 24.8366 0 16C0 7.16344 7.16344 0 16 0C24.8366 0 32 7.16344 32 16ZM20.7142 20.286C20.1619 20.286 19.7142 19.8383 19.7142 19.286V13.7002L11.9932 21.4212C11.6027 21.8117 10.9695 21.8117 10.579 21.4212C10.1885 21.0306 10.1885 20.3975 10.579 20.0069L18.2999 12.286H12.7142C12.1619 12.286 11.7142 11.8383 11.7142 11.286C11.7142 10.7337 12.1619 10.286 12.7142 10.286H20.7051C20.7397 10.2857 20.7743 10.2872 20.8088 10.2904C20.8921 10.2982 20.9725 10.3163 21.0486 10.3433C21.1847 10.3915 21.3124 10.47 21.4213 10.5789C21.5218 10.6793 21.5964 10.7958 21.6452 10.9201C21.6897 11.0335 21.7142 11.1569 21.7142 11.286V19.286C21.7142 19.8383 21.2665 20.286 20.7142 20.286Z" fill="#111827"/>
</svg>
