<svg width="32" height="33" viewBox="0 0 32 33" fill="none" xmlns="http://www.w3.org/2000/svg">
<path fill-rule="evenodd" clip-rule="evenodd" d="M5 8.37866C5 7.82638 4.55228 7.37866 4 7.37866C3.44772 7.37866 3 7.82638 3 8.37866C3 11.8265 4.36964 15.1331 6.80761 17.571C9.24558 20.009 12.5522 21.3787 16 21.3787H25.5858L23.0502 23.9142C22.6597 24.3047 22.6597 24.9379 23.0502 25.3284C23.4407 25.719 24.0739 25.719 24.4644 25.3284L28.7045 21.0884C28.7142 21.0788 28.7237 21.0689 28.733 21.0589C28.8094 20.9767 28.8694 20.8848 28.913 20.7873C28.9689 20.6625 29 20.5242 29 20.3787C29 20.2225 28.9642 20.0747 28.9004 19.9431C28.8667 19.8734 28.8244 19.8068 28.7736 19.7449C28.7507 19.717 28.7262 19.6903 28.7005 19.665L24.4644 15.4289C24.0739 15.0384 23.4407 15.0384 23.0502 15.4289C22.6597 15.8195 22.6597 16.4526 23.0502 16.8432L25.5857 19.3787H16C13.0826 19.3787 10.2847 18.2197 8.22183 16.1568C6.15893 14.0939 5 11.296 5 8.37866Z" fill="#111827"/>
</svg>
