<svg width="32" height="32" viewBox="0 0 32 32" fill="none" xmlns="http://www.w3.org/2000/svg">
<path fill-rule="evenodd" clip-rule="evenodd" d="M2 0C0.895431 0 0 0.895431 0 2V30C0 31.1046 0.895431 32 2 32H30C31.1046 32 32 31.1046 32 30V2C32 0.895431 31.1046 0 30 0H2ZM10.5788 21.4211C10.4607 21.303 10.3783 21.1628 10.3316 21.0137C10.3 20.9126 10.2847 20.8075 10.2859 20.7024V12.714C10.2859 12.1617 10.7337 11.714 11.2859 11.714C11.8382 11.714 12.2859 12.1617 12.2859 12.714L12.2859 18.2997L20.0069 10.5788C20.3974 10.1883 21.0305 10.1883 21.4211 10.5788C21.8116 10.9693 21.8116 11.6025 21.4211 11.993L13.7001 19.714H19.2859C19.8382 19.714 20.2859 20.1617 20.2859 20.714C20.2859 21.2663 19.8382 21.714 19.2859 21.714H11.2859L11.2813 21.714C11.1581 21.7134 11.0403 21.6906 10.9314 21.6494C10.8029 21.6007 10.6823 21.5246 10.5788 21.4211Z" fill="#111827"/>
</svg>
