<svg width="32" height="33" viewBox="0 0 32 33" fill="none" xmlns="http://www.w3.org/2000/svg">
<path fill-rule="evenodd" clip-rule="evenodd" d="M28.5347 8.65606C28.6141 8.70652 28.6858 8.76786 28.7479 8.83799C28.801 8.89786 28.8458 8.96272 28.8821 9.03101C28.9567 9.17103 28.999 9.33088 28.999 9.50061V15.5001C28.999 16.0524 28.5512 16.5001 27.999 16.5001C27.4467 16.5001 26.999 16.0524 26.999 15.5001V12.0582L15.8117 24.1777C15.6224 24.3827 15.356 24.4994 15.0769 24.4994C14.7978 24.4994 14.5314 24.3827 14.3421 24.1777L3.26618 12.1787C2.89157 11.7729 2.91688 11.1402 3.3227 10.7656C3.72852 10.391 4.36118 10.4163 4.73579 10.8222L15.0769 22.0251L25.7149 10.5006H21.9995C21.4472 10.5006 20.9995 10.0529 20.9995 9.50061C20.9995 8.94833 21.4472 8.50061 21.9995 8.50061H27.996H27.999C28.0136 8.50061 28.0281 8.50092 28.0425 8.50154" fill="#111827"/>
</svg>
