<svg width="32" height="32" viewBox="0 0 32 32" fill="none" xmlns="http://www.w3.org/2000/svg">
<path fill-rule="evenodd" clip-rule="evenodd" d="M4.00049 5.28912C3.4482 5.28912 3.00049 5.73684 3.00049 6.28912C3.00049 6.84141 3.4482 7.28912 4.00049 7.28912H22.4221V23.2971L19.551 20.426C19.1605 20.0355 18.5274 20.0355 18.1368 20.426C17.7463 20.8165 17.7463 21.4497 18.1368 21.8402L22.7146 26.418C22.9295 26.6329 23.2179 26.7295 23.4989 26.7079C23.753 26.6886 23.9806 26.5743 24.1462 26.4005L28.7065 21.8402C29.097 21.4497 29.097 20.8165 28.7065 20.426C28.316 20.0355 27.6828 20.0355 27.2923 20.426L24.4221 23.2962V6.28912C24.4221 5.73684 23.9744 5.28912 23.4221 5.28912H4.00049Z" fill="#111827"/>
</svg>
