<svg width="32" height="32" viewBox="0 0 32 32" fill="none" xmlns="http://www.w3.org/2000/svg">
<path fill-rule="evenodd" clip-rule="evenodd" d="M29 7.87866C29 7.32638 28.5523 6.87866 28 6.87866C27.4477 6.87866 27 7.32638 27 7.87866C27 10.796 25.8411 13.5939 23.7782 15.6568C21.7153 17.7197 18.9174 18.8787 16 18.8787H6.41427L8.94978 16.3432C9.34031 15.9526 9.34031 15.3195 8.94978 14.9289C8.55926 14.5384 7.92609 14.5384 7.53557 14.9289L3.29953 19.165C3.27375 19.1903 3.24934 19.217 3.22642 19.2449C3.17559 19.3068 3.13331 19.3734 3.0996 19.4431C3.03578 19.5747 3 19.7225 3 19.8787C3 20.024 3.031 20.1621 3.08674 20.2866C3.13037 20.3844 3.19046 20.4765 3.26701 20.5589C3.27632 20.5689 3.28583 20.5788 3.29554 20.5884L7.53557 24.8284C7.92609 25.219 8.55926 25.219 8.94978 24.8284C9.34031 24.4379 9.34031 23.8047 8.94978 23.4142L6.41422 20.8787H16C19.4478 20.8787 22.7544 19.509 25.1924 17.071C27.6304 14.6331 29 11.3265 29 7.87866Z" fill="#111827"/>
</svg>
