<svg width="32" height="33" viewBox="0 0 32 33" fill="none" xmlns="http://www.w3.org/2000/svg">
<path fill-rule="evenodd" clip-rule="evenodd" d="M17.0003 4.50049C17.0003 3.9482 16.5526 3.50049 16.0003 3.50049C15.448 3.50049 15.0003 3.9482 15.0003 4.50049V10.8136L12.0789 7.89222C11.6884 7.5017 11.0552 7.5017 10.6647 7.89222C10.2742 8.28275 10.2742 8.91591 10.6647 9.30644L15.2928 13.9346C15.5094 14.1512 15.8007 14.2476 16.0837 14.224C16.3339 14.2033 16.558 14.0905 16.722 13.9196L21.3352 9.30644C21.7257 8.91591 21.7257 8.28275 21.3352 7.89222C20.9447 7.5017 20.3115 7.5017 19.921 7.89222L17.0003 10.8129V4.50049ZM4.09131 16.5C4.09131 15.9477 4.53902 15.5 5.09131 15.5H26.9086C27.4609 15.5 27.9086 15.9477 27.9086 16.5C27.9086 17.0523 27.4609 17.5 26.9086 17.5H5.09131C4.53902 17.5 4.09131 17.0523 4.09131 16.5ZM15.0002 22.1865V28.4996C15.0002 29.0519 15.4479 29.4996 16.0002 29.4996C16.5525 29.4996 17.0002 29.0519 17.0002 28.4996V22.1872L19.9209 25.1079C20.3114 25.4984 20.9446 25.4984 21.3351 25.1079C21.7256 24.7174 21.7256 24.0842 21.3351 23.6937L16.7235 19.082C16.5414 18.8914 16.2847 18.7727 16.0002 18.7727C15.983 18.7727 15.9658 18.7731 15.9488 18.774C15.8837 18.7773 15.8202 18.7868 15.759 18.8019C15.5882 18.8441 15.4263 18.932 15.2927 19.0655L10.6646 23.6937C10.2741 24.0842 10.2741 24.7174 10.6646 25.1079C11.0551 25.4984 11.6883 25.4984 12.0788 25.1079L15.0002 22.1865Z" fill="#111827"/>
</svg>
