<svg width="32" height="33" viewBox="0 0 32 33" fill="none" xmlns="http://www.w3.org/2000/svg">
<path fill-rule="evenodd" clip-rule="evenodd" d="M15.3966 5.10415C15.3966 4.6587 14.858 4.43562 14.543 4.7506L3.14718 16.1465C2.95192 16.3417 2.95192 16.6583 3.14718 16.8536L14.543 28.2494C14.858 28.5644 15.3966 28.3413 15.3966 27.8959V23.3015C15.3966 23.0253 15.6204 22.8015 15.8966 22.8015H19.0976C19.3737 22.8015 19.5976 22.5776 19.5976 22.3015V10.6985C19.5976 10.4224 19.3737 10.1985 19.0976 10.1985H15.8966C15.6204 10.1985 15.3966 9.97467 15.3966 9.69853V5.10415ZM27.9995 9.19852C28.5518 9.19852 28.9995 9.64623 28.9995 10.1985V22.8015C28.9995 23.3538 28.5518 23.8015 27.9995 23.8015C27.4472 23.8015 26.9995 23.3538 26.9995 22.8015V10.1985C26.9995 9.64623 27.4472 9.19852 27.9995 9.19852ZM24.7984 10.1985C24.7984 9.64623 24.3507 9.19852 23.7984 9.19852C23.2462 9.19852 22.7984 9.64623 22.7984 10.1985V22.8015C22.7984 23.3538 23.2462 23.8015 23.7984 23.8015C24.3507 23.8015 24.7984 23.3538 24.7984 22.8015V10.1985Z" fill="#111827"/>
</svg>
