<svg width="32" height="32" viewBox="0 0 32 32" fill="none" xmlns="http://www.w3.org/2000/svg">
<path fill-rule="evenodd" clip-rule="evenodd" d="M9.49753 21.11C9.10701 21.5006 9.10701 22.1337 9.49753 22.5242C9.88805 22.9148 10.5212 22.9148 10.9117 22.5242L26.1428 7.29323V12.1221C26.1428 12.6744 26.5905 13.1221 27.1428 13.1221C27.695 13.1221 28.1428 12.6744 28.1428 12.1221V4.87919C28.1428 4.76402 28.1233 4.6534 28.0875 4.55043C28.0395 4.41218 27.9603 4.28235 27.8498 4.17192C27.65 3.9721 27.3867 3.87452 27.1248 3.87919L19.8999 3.87919C19.3476 3.87919 18.8999 4.3269 18.8999 4.87919C18.8999 5.43147 19.3476 5.87919 19.8999 5.87919H24.7284L9.49753 21.11ZM3.85718 10.4072C3.85718 9.85491 4.30489 9.40719 4.85718 9.40719H9.99236H15.1275C15.6798 9.40719 16.1275 9.85491 16.1275 10.4072C16.1275 10.9595 15.6798 11.4072 15.1275 11.4072H9.99236H5.85718V26.121H20.571V16.8929C20.571 16.3406 21.0187 15.8929 21.571 15.8929C22.1232 15.8929 22.571 16.3406 22.571 16.8929V27.121C22.571 27.6733 22.1232 28.121 21.571 28.121H4.85718C4.30489 28.121 3.85718 27.6733 3.85718 27.121V10.4072Z" fill="#111827"/>
</svg>
