<svg width="32" height="32" viewBox="0 0 32 32" fill="none" xmlns="http://www.w3.org/2000/svg">
<path fill-rule="evenodd" clip-rule="evenodd" d="M8.95026 7.58644C9.34079 7.19592 9.34079 6.56275 8.95026 6.17223C8.55974 5.7817 7.92657 5.7817 7.53605 6.17223L3.30028 10.408C3.27158 10.4362 3.24456 10.4661 3.21941 10.4975C3.17922 10.5477 3.14458 10.6009 3.11547 10.6562C3.0422 10.7952 3.00073 10.9536 3.00073 11.1217C3.00073 11.3127 3.05426 11.4911 3.14713 11.6429C3.1551 11.6559 3.16339 11.6688 3.17201 11.6815C3.21019 11.7379 3.25398 11.7902 3.30258 11.8376L7.53605 16.0711C7.92657 16.4616 8.55974 16.4616 8.95026 16.0711C9.34079 15.6806 9.34079 15.0474 8.95026 14.6569L6.41506 12.1217H20.9995C21.7874 12.1217 22.5675 12.2769 23.2954 12.5784C24.0233 12.8799 24.6847 13.3218 25.2418 13.8789C25.7989 14.436 26.2408 15.0974 26.5423 15.8253C26.8438 16.5532 26.999 17.3333 26.999 18.1212C26.999 19.7124 26.3669 21.2384 25.2418 22.3635C24.1167 23.4886 22.5907 24.1207 20.9995 24.1207H10.0003C9.44802 24.1207 9.0003 24.5684 9.0003 25.1207C9.0003 25.673 9.44802 26.1207 10.0003 26.1207H20.9995C23.1211 26.1207 25.1558 25.2779 26.656 23.7777C28.1562 22.2775 28.999 20.2428 28.999 18.1212C28.999 17.0707 28.7921 16.0305 28.3901 15.0599C27.9881 14.0894 27.3988 13.2075 26.656 12.4647C25.9132 11.7219 25.0313 11.1326 24.0608 10.7306C23.0903 10.3286 22.05 10.1217 20.9995 10.1217H6.41501L8.95026 7.58644Z" fill="#111827"/>
</svg>
