<svg width="32" height="33" viewBox="0 0 32 33" fill="none" xmlns="http://www.w3.org/2000/svg">
<path fill-rule="evenodd" clip-rule="evenodd" d="M2 0.5C0.895431 0.5 0 1.39543 0 2.5V30.5C0 31.6046 0.895431 32.5 2 32.5H30C31.1046 32.5 32 31.6046 32 30.5V2.5C32 1.39543 31.1046 0.5 30 0.5H2ZM21.4211 11.0788C21.5392 11.1969 21.6215 11.3372 21.6682 11.4862C21.6999 11.5873 21.7151 11.6925 21.7139 11.7975V19.7859C21.7139 20.3382 21.2662 20.7859 20.7139 20.7859C20.1616 20.7859 19.7139 20.3382 19.7139 19.7859V14.2002L11.993 21.9211C11.6025 22.3116 10.9693 22.3116 10.5788 21.9211C10.1882 21.5306 10.1882 20.8974 10.5788 20.5069L18.2998 12.7859H12.7139C12.1616 12.7859 11.7139 12.3382 11.7139 11.7859C11.7139 11.2336 12.1616 10.7859 12.7139 10.7859H20.7139L20.7186 10.7859C20.8417 10.7865 20.9596 10.8093 21.0684 10.8506C21.197 10.8992 21.3176 10.9753 21.4211 11.0788Z" fill="#111827"/>
</svg>
