<svg width="32" height="33" viewBox="0 0 32 33" fill="none" xmlns="http://www.w3.org/2000/svg">
<path fill-rule="evenodd" clip-rule="evenodd" d="M6.1718 8.03553C5.78128 8.42606 5.78128 9.05922 6.1718 9.44975C6.56232 9.84027 7.19549 9.84027 7.58601 9.44975L10.1216 6.91418V21.5C10.1216 22.5506 10.3285 23.5909 10.7305 24.5615C11.1326 25.5321 11.7219 26.414 12.4647 27.1569C13.2076 27.8998 14.0895 28.489 15.0601 28.8911C16.0307 29.2931 17.071 29.5 18.1216 29.5C20.2433 29.5 22.2781 28.6572 23.7784 27.1569C25.2787 25.6566 26.1216 23.6218 26.1216 21.5V10.5C26.1216 9.94774 25.6739 9.50003 25.1216 9.50003C24.5693 9.50003 24.1216 9.94774 24.1216 10.5V21.5C24.1216 23.0913 23.4894 24.6174 22.3642 25.7427C21.239 26.8679 19.7129 27.5 18.1216 27.5C17.3336 27.5 16.5534 27.3448 15.8255 27.0433C15.0975 26.7418 14.4361 26.2998 13.8789 25.7427C13.3218 25.1855 12.8798 24.5241 12.5783 23.7961C12.2768 23.0682 12.1216 22.288 12.1216 21.5V6.91425L14.6571 9.44975C15.0476 9.84027 15.6808 9.84027 16.0713 9.44975C16.4618 9.05922 16.4618 8.42606 16.0713 8.03553L11.8313 3.79554C11.8239 3.78806 11.8163 3.7807 11.8087 3.77345C11.7137 3.6835 11.6053 3.61574 11.4902 3.57017C11.3955 3.53258 11.2937 3.50905 11.1873 3.50215C11.1407 3.4991 11.094 3.4993 11.0474 3.50273C10.9552 3.5095 10.8664 3.52878 10.7827 3.5589C10.6483 3.60719 10.5221 3.68519 10.4144 3.79289L6.1718 8.03553Z" fill="#111827"/>
</svg>
