<svg width="32" height="33" viewBox="0 0 32 33" fill="none" xmlns="http://www.w3.org/2000/svg">
<path fill-rule="evenodd" clip-rule="evenodd" d="M21.3212 3.60344C21.1877 3.53734 21.0373 3.50018 20.8782 3.50018C20.5931 3.50018 20.336 3.61943 20.1538 3.81077L15.9288 8.03582C15.5382 8.42635 15.5382 9.05951 15.9288 9.45004C16.3193 9.84056 16.9524 9.84056 17.343 9.45004L19.8782 6.91483V21.4999C19.8782 22.2878 19.723 23.068 19.4215 23.796C19.1199 24.5239 18.678 25.1853 18.1209 25.7425C17.5637 26.2996 16.9023 26.7415 16.1744 27.0431C15.4464 27.3446 14.6662 27.4998 13.8783 27.4998C12.287 27.4998 10.7609 26.8676 9.63574 25.7425C8.51055 24.6173 7.87842 23.0912 7.87842 21.4999V10.5001C7.87842 9.9478 7.4307 9.50008 6.87842 9.50008C6.32613 9.50008 5.87842 9.9478 5.87842 10.5001V21.4999C5.87842 23.6216 6.72126 25.6564 8.22153 27.1567C9.7218 28.6569 11.7566 29.4998 13.8783 29.4998C14.9289 29.4998 15.9691 29.2929 16.9397 28.8908C17.9103 28.4888 18.7922 27.8995 19.5351 27.1567C20.2779 26.4138 20.8672 25.5319 21.2692 24.5613C21.6713 23.5907 21.8782 22.5505 21.8782 21.4999V6.91433L24.4139 9.45004C24.8044 9.84056 25.4376 9.84056 25.8281 9.45004C26.2186 9.05951 26.2186 8.42635 25.8281 8.03582L21.5855 3.79326C21.5061 3.71383 21.4167 3.65056 21.3212 3.60344Z" fill="#111827"/>
</svg>
