<svg width="32" height="32" viewBox="0 0 32 32" fill="none" xmlns="http://www.w3.org/2000/svg">
<path fill-rule="evenodd" clip-rule="evenodd" d="M15.3966 4.60415C15.3966 4.1587 14.858 3.93562 14.543 4.2506L3.14718 15.6465C2.95192 15.8417 2.95192 16.1583 3.14718 16.3536L14.543 27.7494C14.858 28.0644 15.3966 27.8413 15.3966 27.3959V22.8015C15.3966 22.5253 15.6204 22.3015 15.8966 22.3015H19.0976C19.3737 22.3015 19.5976 22.0776 19.5976 21.8015V10.1985C19.5976 9.92238 19.3737 9.69853 19.0976 9.69853H15.8966C15.6204 9.69853 15.3966 9.47467 15.3966 9.19853V4.60415ZM27.9995 8.69852C28.5518 8.69852 28.9995 9.14623 28.9995 9.69852V22.3015C28.9995 22.8538 28.5518 23.3015 27.9995 23.3015C27.4472 23.3015 26.9995 22.8538 26.9995 22.3015V9.69852C26.9995 9.14623 27.4472 8.69852 27.9995 8.69852ZM24.7984 9.69852C24.7984 9.14623 24.3507 8.69852 23.7984 8.69852C23.2462 8.69852 22.7984 9.14623 22.7984 9.69852V22.3015C22.7984 22.8538 23.2462 23.3015 23.7984 23.3015C24.3507 23.3015 24.7984 22.8538 24.7984 22.3015V9.69852Z" fill="#111827"/>
</svg>
