<svg width="32" height="32" viewBox="0 0 32 32" fill="none" xmlns="http://www.w3.org/2000/svg">
<path fill-rule="evenodd" clip-rule="evenodd" d="M24.1211 3C20.6733 3 17.3667 4.36964 14.9287 6.80761C12.4907 9.24558 11.1211 12.5522 11.1211 16V25.5854L8.58601 23.0503C8.19549 22.6598 7.56232 22.6598 7.1718 23.0503C6.78128 23.4408 6.78128 24.074 7.1718 24.4645L11.3968 28.6895C11.571 28.8725 11.814 28.9896 12.0843 28.9993C12.3525 29.0093 12.6239 28.9119 12.8287 28.7071L17.0713 24.4645C17.4618 24.074 17.4618 23.4408 17.0713 23.0503C16.6808 22.6598 16.0476 22.6598 15.6571 23.0503L13.1211 25.5863V16C13.1211 13.0826 14.28 10.2847 16.3429 8.22183C18.4058 6.15893 21.2037 5 24.1211 5C24.6734 5 25.1211 4.55228 25.1211 4C25.1211 3.44772 24.6734 3 24.1211 3Z" fill="#111827"/>
</svg>
