<svg width="32" height="33" viewBox="0 0 32 33" fill="none" xmlns="http://www.w3.org/2000/svg">
<path fill-rule="evenodd" clip-rule="evenodd" d="M11.6624 7.26121C13.4897 6.50433 15.5004 6.3063 17.4402 6.69215C19.38 7.078 21.1618 8.03041 22.5603 9.42894L25.0959 11.9645H21.5103C20.958 11.9645 20.5103 12.4122 20.5103 12.9645C20.5103 13.5168 20.958 13.9645 21.5103 13.9645H27.5103C28.0625 13.9645 28.5103 13.5168 28.5103 12.9645V6.96448C28.5103 6.41219 28.0625 5.96448 27.5103 5.96448C26.958 5.96448 26.5103 6.41219 26.5103 6.96448V10.5504L23.9745 8.01472C22.2963 6.33649 20.1581 5.1936 17.8303 4.73058C15.5026 4.26756 13.0898 4.5052 10.8971 5.41345C8.70434 6.3217 6.8302 7.85977 5.51162 9.83316C4.19305 11.8066 3.48926 14.1266 3.48926 16.5C3.48926 18.8734 4.19305 21.1935 5.51162 23.1668C6.8302 25.1402 8.70434 26.6783 10.8971 27.5866C13.0898 28.4948 15.5026 28.7325 17.8303 28.2694C20.1581 27.8064 22.2963 26.6635 23.9745 24.9853C24.3651 24.5948 24.3651 23.9616 23.9745 23.5711C23.584 23.1805 22.9509 23.1805 22.5603 23.5711C21.1618 24.9696 19.38 25.922 17.4402 26.3079C15.5004 26.6937 13.4897 26.4957 11.6624 25.7388C9.83516 24.9819 8.27338 23.7002 7.17456 22.0557C6.07575 20.4112 5.48926 18.4778 5.48926 16.5C5.48926 14.5222 6.07575 12.5888 7.17456 10.9443C8.27338 9.29981 9.83516 8.01809 11.6624 7.26121Z" fill="#111827"/>
</svg>
