<svg width="32" height="32" viewBox="0 0 32 32" fill="none" xmlns="http://www.w3.org/2000/svg">
<path fill-rule="evenodd" clip-rule="evenodd" d="M14.8863 5.00055C13.4418 5.00055 12.0114 5.28506 10.6769 5.83784C9.3424 6.39062 8.12982 7.20083 7.10842 8.22223C6.71789 8.61276 6.08473 8.61276 5.69421 8.22223C5.30368 7.83171 5.30368 7.19854 5.69421 6.80802C6.90132 5.6009 8.33438 4.64337 9.91155 3.99008C11.4887 3.33679 13.1791 3.00055 14.8863 3.00055C16.5934 3.00055 18.2838 3.33679 19.861 3.99008C21.4381 4.64337 22.8712 5.6009 24.0783 6.80802L26.9994 9.72911V5.59815C26.9994 5.04586 27.4471 4.59815 27.9994 4.59815C28.5517 4.59815 28.9994 5.04586 28.9994 5.59815V12.1433C28.9994 12.3066 28.9603 12.4606 28.8909 12.5967C28.8678 12.6421 28.841 12.6861 28.8106 12.7283C28.7526 12.8085 28.6831 12.8797 28.6044 12.9396C28.5598 12.9736 28.5129 13.0034 28.4644 13.0289C28.3255 13.102 28.1673 13.1433 27.9994 13.1433H21.4542C20.9019 13.1433 20.4542 12.6956 20.4542 12.1433C20.4542 11.5911 20.9019 11.1433 21.4542 11.1433H25.5852L22.6641 8.22223C21.6427 7.20083 20.4301 6.39062 19.0956 5.83784C17.7611 5.28506 16.3307 5.00055 14.8863 5.00055ZM3.00049 19.8568C3.00049 19.7212 3.02747 19.592 3.07637 19.474C3.12517 19.3561 3.19751 19.2456 3.29338 19.1497C3.47435 18.9688 3.72435 18.8568 4.00049 18.8568H10.5457C11.098 18.8568 11.5457 19.3045 11.5457 19.8568C11.5457 20.4091 11.098 20.8568 10.5457 20.8568H6.4147L9.33574 23.7779C10.3571 24.7993 11.5697 25.6095 12.9042 26.1623C14.2388 26.715 15.6691 26.9996 17.1136 26.9996C18.5581 26.9996 19.9884 26.715 21.3229 26.1623C22.6574 25.6095 23.87 24.7993 24.8914 23.7779C25.2819 23.3873 25.9151 23.3873 26.3056 23.7779C26.6962 24.1684 26.6962 24.8016 26.3056 25.1921C25.0985 26.3992 23.6655 27.3567 22.0883 28.01C20.5111 28.6633 18.8207 28.9996 17.1136 28.9996C15.4065 28.9996 13.7161 28.6633 12.1389 28.01C10.5617 27.3567 9.12865 26.3992 7.92153 25.1921L5.00049 22.271V26.402C5.00049 26.9543 4.55277 27.402 4.00049 27.402C3.4482 27.402 3.00049 26.9543 3.00049 26.402V19.8568Z" fill="#111827"/>
</svg>
