<svg width="33" height="33" viewBox="0 0 33 33" fill="none" xmlns="http://www.w3.org/2000/svg">
<path d="M16.9602 5.49C16.9602 5.04455 16.4216 4.82147 16.1067 5.13645L5.31376 15.9293C5.1185 16.1246 5.1185 16.4412 5.31376 16.6365L16.1067 27.4293C16.4216 27.7443 16.9602 27.5212 16.9602 27.0758V22.7829C16.9602 22.5068 17.1841 22.2829 17.4602 22.2829H27.9602C28.2254 22.2829 28.4798 22.1775 28.6673 21.99C28.8548 21.8025 28.9602 21.5481 28.9602 21.2829V11.2829C28.9602 11.0177 28.8548 10.7633 28.6673 10.5758C28.4798 10.3883 28.2254 10.2829 27.9602 10.2829H17.4602C17.1841 10.2829 16.9602 10.059 16.9602 9.7829V5.49Z" fill="#1C1B1F"/>
</svg>
