<svg width="32" height="32" viewBox="0 0 32 32" fill="none" xmlns="http://www.w3.org/2000/svg">
<path fill-rule="evenodd" clip-rule="evenodd" d="M11.6629 6.76121C13.4902 6.00433 15.5008 5.8063 17.4406 6.19215C19.3805 6.578 21.1623 7.53041 22.5608 8.92894L25.0964 11.4645H21.5103C20.958 11.4645 20.5103 11.9122 20.5103 12.4645C20.5103 13.0168 20.958 13.4645 21.5103 13.4645H27.5103C27.604 13.4645 27.6948 13.4516 27.7809 13.4274C27.9408 13.3827 28.0918 13.2974 28.2177 13.1716C28.4192 12.97 28.5168 12.7038 28.5103 12.4397V6.46448C28.5103 5.91219 28.0625 5.46448 27.5103 5.46448C26.958 5.46448 26.5103 5.91219 26.5103 6.46448V10.05L23.975 7.51472C22.2968 5.83649 20.1586 4.6936 17.8308 4.23058C15.5031 3.76756 13.0903 4.0052 10.8975 4.91345C8.70483 5.8217 6.83069 7.35977 5.51211 9.33316C4.19353 11.3066 3.48975 13.6266 3.48975 16C3.48975 18.3734 4.19353 20.6935 5.51211 22.6668C6.83069 24.6402 8.70483 26.1783 10.8975 27.0866C13.0903 27.9948 15.5031 28.2325 17.8308 27.7694C20.1586 27.3064 22.2968 26.1635 23.975 24.4853C24.3656 24.0948 24.3656 23.4616 23.975 23.0711C23.5845 22.6805 22.9513 22.6805 22.5608 23.0711C21.1623 24.4696 19.3805 25.422 17.4406 25.8079C15.5008 26.1937 13.4902 25.9957 11.6629 25.2388C9.83565 24.4819 8.27386 23.2002 7.17505 21.5557C6.07624 19.9112 5.48975 17.9778 5.48975 16C5.48975 14.0222 6.07624 12.0888 7.17505 10.4443C8.27386 8.79981 9.83565 7.51809 11.6629 6.76121Z" fill="#111827"/>
</svg>
