<svg width="32" height="33" viewBox="0 0 32 33" fill="none" xmlns="http://www.w3.org/2000/svg">
<path fill-rule="evenodd" clip-rule="evenodd" d="M14.5336 21.4498C14.9241 21.8403 15.5573 21.8403 15.9478 21.4498C16.3384 21.0592 16.3384 20.4261 15.9478 20.0356L13.4125 17.5002L21.0023 17.5002C21.5545 17.5002 22.0023 17.0525 22.0023 16.5002C22.0023 15.9479 21.5545 15.5002 21.0023 15.5002L13.4121 15.5002L15.9478 12.9645C16.3384 12.574 16.3384 11.9408 15.9478 11.5503C15.5573 11.1598 14.9241 11.1598 14.5336 11.5503L10.291 15.7929C10.1828 15.9011 10.1047 16.0278 10.0564 16.1628C10.0186 16.2682 9.99805 16.3818 9.99805 16.5002C9.99805 16.7831 10.1155 17.0385 10.3042 17.2204L14.5336 21.4498Z" fill="#111827"/>
</svg>
