<svg width="32" height="33" viewBox="0 0 32 33" fill="none" xmlns="http://www.w3.org/2000/svg">
<path fill-rule="evenodd" clip-rule="evenodd" d="M7.28931 4.50049C7.28931 3.9482 6.84159 3.50049 6.28931 3.50049C5.73702 3.50049 5.28931 3.9482 5.28931 4.50049V23.9219C5.28931 24.4742 5.73702 24.9219 6.28931 24.9219H23.2966L20.426 27.7925C20.0355 28.1831 20.0355 28.8162 20.426 29.2068C20.8165 29.5973 21.4497 29.5973 21.8402 29.2068L26.4179 24.6291C26.5349 24.5121 26.6169 24.3733 26.6638 24.2257C26.6828 24.1658 26.6964 24.1035 26.7039 24.0392C26.7124 23.9675 26.713 23.895 26.7059 23.8231C26.6975 23.7371 26.6781 23.6543 26.6493 23.5761C26.6008 23.4443 26.5237 23.3207 26.4179 23.2149L21.8402 18.6372C21.4497 18.2467 20.8165 18.2467 20.426 18.6372C20.0355 19.0277 20.0355 19.6609 20.426 20.0514L23.2965 22.9219H7.28931V4.50049Z" fill="#111827"/>
</svg>
