<svg width="32" height="33" viewBox="0 0 32 33" fill="none" xmlns="http://www.w3.org/2000/svg">
<path fill-rule="evenodd" clip-rule="evenodd" d="M24.671 25.2456C24.698 25.2214 24.7236 25.1957 24.7477 25.1687C24.8182 25.09 24.874 25.0029 24.9152 24.9108C24.9711 24.7861 25.0022 24.6478 25.0022 24.5022V16.5022C25.0022 15.9499 24.5545 15.5022 24.0022 15.5022C23.4499 15.5022 23.0022 15.9499 23.0022 16.5022V22.088L8.70491 7.79072C8.31439 7.4002 7.68122 7.4002 7.2907 7.79072C6.90017 8.18125 6.90017 8.81441 7.2907 9.20493L21.588 23.5022H16.0022C15.4499 23.5022 15.0022 23.9499 15.0022 24.5022C15.0022 25.0545 15.4499 25.5022 16.0022 25.5022H24.002C24.0021 25.5022 24.0021 25.5022 24.0022 25.5022C24.2594 25.5022 24.4939 25.4051 24.671 25.2456Z" fill="#111827"/>
</svg>
