<svg width="32" height="33" viewBox="0 0 32 33" fill="none" xmlns="http://www.w3.org/2000/svg">
<path fill-rule="evenodd" clip-rule="evenodd" d="M4.00049 5.78912C3.4482 5.78912 3.00049 6.23684 3.00049 6.78912C3.00049 7.34141 3.4482 7.78912 4.00049 7.78912H22.4221V23.7971L19.551 20.926C19.1605 20.5355 18.5274 20.5355 18.1368 20.926C17.7463 21.3165 17.7463 21.9497 18.1368 22.3402L22.7146 26.918C22.9295 27.1329 23.2179 27.2295 23.4989 27.2079C23.753 27.1886 23.9806 27.0743 24.1462 26.9005L28.7065 22.3402C29.097 21.9497 29.097 21.3165 28.7065 20.926C28.316 20.5355 27.6828 20.5355 27.2923 20.926L24.4221 23.7962V6.78912C24.4221 6.23684 23.9744 5.78912 23.4221 5.78912H4.00049Z" fill="#111827"/>
</svg>
