<svg width="32" height="32" viewBox="0 0 32 32" fill="none" xmlns="http://www.w3.org/2000/svg">
<path fill-rule="evenodd" clip-rule="evenodd" d="M14.543 4.2506C14.858 3.93562 15.3966 4.1587 15.3966 4.60415V9.19853C15.3966 9.47467 15.6204 9.69853 15.8966 9.69853H23.2986C23.5747 9.69853 23.7986 9.92238 23.7986 10.1985V21.8015C23.7986 22.0776 23.5747 22.3015 23.2986 22.3015H15.8966C15.6204 22.3015 15.3966 22.5253 15.3966 22.8015V27.3959C15.3966 27.8413 14.858 28.0644 14.543 27.7494L3.14718 16.3536C2.95192 16.1583 2.95192 15.8417 3.14718 15.6465L14.543 4.2506ZM28.9995 9.69852C28.9995 9.14623 28.5518 8.69852 27.9995 8.69852C27.4472 8.69852 26.9995 9.14623 26.9995 9.69852V22.3015C26.9995 22.8538 27.4472 23.3015 27.9995 23.3015C28.5518 23.3015 28.9995 22.8538 28.9995 22.3015V9.69852Z" fill="#111827"/>
</svg>
