<svg width="32" height="33" viewBox="0 0 32 33" fill="none" xmlns="http://www.w3.org/2000/svg">
<path fill-rule="evenodd" clip-rule="evenodd" d="M18.1372 10.6598C17.7467 11.0503 17.7467 11.6835 18.1372 12.074C18.5277 12.4646 19.1609 12.4646 19.5514 12.074L22.422 9.20347V25.2108H4.00049C3.4482 25.2108 3.00049 25.6585 3.00049 26.2108C3.00049 26.763 3.4482 27.2108 4.00049 27.2108H23.422C23.9742 27.2108 24.422 26.763 24.422 26.2108V9.20345L27.2925 12.074C27.6831 12.4646 28.3162 12.4646 28.7068 12.074C29.0973 11.6835 29.0973 11.0503 28.7068 10.6598L24.1291 6.08214C24.0233 5.97633 23.8996 5.89919 23.7679 5.85071C23.6832 5.81949 23.5931 5.7994 23.4994 5.79223C23.3547 5.78106 23.208 5.80126 23.0704 5.85284C22.9407 5.90143 22.8191 5.97786 22.7149 6.08214L18.1372 10.6598Z" fill="#111827"/>
</svg>
