<svg width="32" height="33" viewBox="0 0 32 33" fill="none" xmlns="http://www.w3.org/2000/svg">
<path fill-rule="evenodd" clip-rule="evenodd" d="M16.3257 25.446C16.2235 25.4812 16.1139 25.5003 15.9998 25.5003C15.7178 25.5003 15.4631 25.3837 15.2813 25.196L9.45891 19.3735C9.06838 18.983 9.06838 18.3498 9.45891 17.9593C9.84943 17.5688 10.4826 17.5688 10.8731 17.9593L14.9998 22.0859V8.49966C14.9998 7.94738 15.4475 7.49966 15.9998 7.49966C16.552 7.49966 16.9998 7.94738 16.9998 8.49966V22.0863L21.1267 17.9593C21.5173 17.5688 22.1504 17.5688 22.5409 17.9593C22.9315 18.3498 22.9315 18.983 22.5409 19.3735L16.707 25.2074C16.5958 25.3186 16.465 25.3981 16.3257 25.446Z" fill="#111827"/>
</svg>
