<svg width="32" height="32" viewBox="0 0 32 32" fill="none" xmlns="http://www.w3.org/2000/svg">
<path fill-rule="evenodd" clip-rule="evenodd" d="M21.1028 4.91345C18.91 4.0052 16.4972 3.76756 14.1695 4.23058C11.8417 4.6936 9.70351 5.83649 8.02528 7.51472L5.48975 10.0503V6.46448C5.48975 5.91219 5.04203 5.46448 4.48975 5.46448C3.93746 5.46448 3.48975 5.91219 3.48975 6.46448L3.48975 12.4641L3.48975 12.4645C3.48975 12.6014 3.51728 12.732 3.56711 12.8508C3.6125 12.9593 3.67786 13.0614 3.76318 13.1516C3.77597 13.1651 3.78913 13.1783 3.80264 13.191C3.98181 13.3605 4.22364 13.4645 4.48975 13.4645H10.4897C11.042 13.4645 11.4897 13.0168 11.4897 12.4645C11.4897 11.9122 11.042 11.4645 10.4897 11.4645H6.90395L9.43949 8.92894C10.838 7.53041 12.6198 6.578 14.5597 6.19215C16.4995 5.8063 18.5101 6.00433 20.3374 6.76121C22.1647 7.51809 23.7264 8.79981 24.8253 10.4443C25.9241 12.0888 26.5106 14.0222 26.5106 16C26.5106 17.9778 25.9241 19.9112 24.8253 21.5557C23.7264 23.2002 22.1647 24.4819 20.3374 25.2388C18.5101 25.9957 16.4995 26.1937 14.5597 25.8079C12.6198 25.422 10.838 24.4696 9.43949 23.0711C9.04897 22.6805 8.4158 22.6805 8.02528 23.0711C7.63475 23.4616 7.63475 24.0948 8.02528 24.4853C9.70351 26.1635 11.8417 27.3064 14.1695 27.7694C16.4972 28.2325 18.91 27.9948 21.1028 27.0866C23.2955 26.1783 25.1696 24.6402 26.4882 22.6668C27.8068 20.6935 28.5106 18.3734 28.5106 16C28.5106 13.6266 27.8068 11.3066 26.4882 9.33316C25.1696 7.35977 23.2955 5.8217 21.1028 4.91345Z" fill="#111827"/>
</svg>
