<svg width="32" height="32" viewBox="0 0 32 32" fill="none" xmlns="http://www.w3.org/2000/svg">
<path fill-rule="evenodd" clip-rule="evenodd" d="M2 0C0.895431 0 0 0.895431 0 2V30C0 31.1046 0.895431 32 2 32H30C31.1046 32 32 31.1046 32 30V2C32 0.895431 31.1046 0 30 0H2ZM10.5788 10.5788C10.4607 10.6969 10.3783 10.8372 10.3316 10.9862C10.3 11.0873 10.2847 11.1925 10.2859 11.2975V19.2859C10.2859 19.8382 10.7337 20.2859 11.2859 20.2859C11.8382 20.2859 12.2859 19.8382 12.2859 19.2859L12.2859 13.7002L20.0069 21.4211C20.3974 21.8116 21.0305 21.8116 21.4211 21.4211C21.8116 21.0306 21.8116 20.3974 21.4211 20.0069L13.7001 12.2859H19.2859C19.8382 12.2859 20.2859 11.8382 20.2859 11.2859C20.2859 10.7336 19.8382 10.2859 19.2859 10.2859H11.2859L11.2813 10.2859C11.1581 10.2865 11.0403 10.3093 10.9314 10.3506C10.8029 10.3992 10.6823 10.4753 10.5788 10.5788Z" fill="#111827"/>
</svg>
