<svg width="32" height="32" viewBox="0 0 32 32" fill="none" xmlns="http://www.w3.org/2000/svg">
<path fill-rule="evenodd" clip-rule="evenodd" d="M8.94975 8.58577C9.34027 8.19524 9.34027 7.56208 8.94975 7.17156C8.55922 6.78103 7.92606 6.78103 7.53553 7.17156L3.29289 11.4142C2.90237 11.8047 2.90237 12.4379 3.29289 12.8284L7.53553 17.071C7.92606 17.4616 8.55922 17.4616 8.94975 17.071C9.34027 16.6805 9.34027 16.0474 8.94975 15.6568L5.41421 12.1213L8.94975 8.58577ZM14.9497 7.17156C15.3403 7.56208 15.3403 8.19524 14.9497 8.58577L12.4142 11.1213H16C19.4478 11.1213 22.7544 12.491 25.1924 14.929C27.6303 17.3669 29 20.6735 29 24.1213C29 24.6736 28.5522 25.1213 28 25.1213C27.4477 25.1213 27 24.6736 27 24.1213C27 21.204 25.841 18.4061 23.7781 16.3432C21.7152 14.2803 18.9173 13.1213 16 13.1213H12.4142L14.9497 15.6568C15.3403 16.0474 15.3403 16.6805 14.9497 17.071C14.5592 17.4616 13.9261 17.4616 13.5355 17.071L9.29997 12.8355C9.27177 12.8078 9.2452 12.7785 9.22042 12.7477C9.17355 12.6896 9.13416 12.6274 9.10224 12.5624C9.03675 12.4294 8.99996 12.2796 8.99996 12.1213C8.99996 11.9777 9.03027 11.841 9.08483 11.7176C9.13336 11.6075 9.20272 11.5044 9.29289 11.4142L13.5355 7.17156C13.9261 6.78103 14.5592 6.78103 14.9497 7.17156Z" fill="#111827"/>
</svg>
