<svg width="33" height="33" viewBox="0 0 33 33" fill="none" xmlns="http://www.w3.org/2000/svg">
<path d="M12.7175 17.0403L16.9602 21.2829L21.2028 17.0403" stroke="white" stroke-width="2" stroke-linecap="round" stroke-linejoin="round"/>
<path d="M16.9602 11.2829V21.2829" stroke="white" stroke-width="2" stroke-linecap="round" stroke-linejoin="round"/>
<path fill-rule="evenodd" clip-rule="evenodd" d="M6.96021 4.2829C5.85564 4.2829 4.96021 5.17833 4.96021 6.2829V26.2829C4.96021 27.3875 5.85564 28.2829 6.9602 28.2829H26.9602C28.0648 28.2829 28.9602 27.3875 28.9602 26.2829V6.2829C28.9602 5.17833 28.0648 4.2829 26.9602 4.2829H6.96021ZM16.9602 22.2829C17.1041 22.2829 17.2409 22.2525 17.3645 22.1978C17.4537 22.1584 17.5383 22.1053 17.6151 22.0386C17.635 22.0214 17.6542 22.0034 17.6726 21.9847L21.9099 17.7474C22.3004 17.3568 22.3004 16.7237 21.9099 16.3331C21.5194 15.9426 20.8862 15.9426 20.4957 16.3331L17.9602 18.8686V11.2829C17.9602 10.7306 17.5125 10.2829 16.9602 10.2829C16.4079 10.2829 15.9602 10.7306 15.9602 11.2829V18.8687L13.4246 16.3331C13.0341 15.9426 12.4009 15.9426 12.0104 16.3331C11.6199 16.7237 11.6199 17.3568 12.0104 17.7474L16.2531 21.99C16.3517 22.0886 16.4658 22.1624 16.5876 22.2112C16.7028 22.2574 16.8285 22.2829 16.9602 22.2829Z" fill="#1C1B1F"/>
</svg>
