<svg width="32" height="32" viewBox="0 0 32 32" fill="none" xmlns="http://www.w3.org/2000/svg">
<path fill-rule="evenodd" clip-rule="evenodd" d="M4.60403 15.3965C4.15858 15.3965 3.93549 14.8579 4.25048 14.5429L15.6463 3.14706C15.8416 2.95179 16.1582 2.9518 16.3534 3.14706L27.7493 14.5429C28.0643 14.8579 27.8412 15.3965 27.3957 15.3965H22.8014C22.5252 15.3965 22.3014 15.6203 22.3014 15.8965V19.0975C22.3014 19.3736 22.0775 19.5975 21.8014 19.5975H10.1984C9.92226 19.5975 9.6984 19.3736 9.6984 19.0975V15.8965C9.6984 15.6203 9.47455 15.3965 9.1984 15.3965H4.60403ZM8.69827 27.9994C8.69827 27.4472 9.14599 26.9994 9.69827 26.9994H22.3012C22.8535 26.9994 23.3012 27.4472 23.3012 27.9994C23.3012 28.5517 22.8535 28.9994 22.3012 28.9994H9.69827C9.14599 28.9994 8.69827 28.5517 8.69827 27.9994ZM9.69827 22.7984C9.14599 22.7984 8.69827 23.2462 8.69827 23.7984C8.69827 24.3507 9.14599 24.7984 9.69827 24.7984H22.3012C22.8535 24.7984 23.3012 24.3507 23.3012 23.7984C23.3012 23.2462 22.8535 22.7984 22.3012 22.7984H9.69827Z" fill="#111827"/>
</svg>
