<svg width="32" height="33" viewBox="0 0 32 33" fill="none" xmlns="http://www.w3.org/2000/svg">
<path fill-rule="evenodd" clip-rule="evenodd" d="M32 16.5C32 25.3366 24.8366 32.5 16 32.5C7.16344 32.5 0 25.3366 0 16.5C0 7.66344 7.16344 0.5 16 0.5C24.8366 0.5 32 7.66344 32 16.5ZM11.2861 20.786C11.8384 20.786 12.2861 20.3383 12.2861 19.786V14.2002L20.0071 21.9212C20.3976 22.3117 21.0308 22.3117 21.4213 21.9212C21.8119 21.5306 21.8119 20.8975 21.4213 20.5069L13.7004 12.786L19.2861 12.786C19.8384 12.786 20.2861 12.3383 20.2861 11.786C20.2861 11.2337 19.8384 10.786 19.2861 10.786H11.2952C11.2612 10.7857 11.2272 10.7871 11.1933 10.7903C11.1093 10.798 11.0284 10.8161 10.9517 10.8433C10.8156 10.8915 10.6879 10.97 10.579 11.0789C10.4786 11.1793 10.4039 11.2958 10.3552 11.4201C10.3106 11.5335 10.2861 11.6569 10.2861 11.786V19.786C10.2861 20.3383 10.7338 20.786 11.2861 20.786Z" fill="#111827"/>
</svg>
