<svg width="32" height="32" viewBox="0 0 32 32" fill="none" xmlns="http://www.w3.org/2000/svg">
<path fill-rule="evenodd" clip-rule="evenodd" d="M26.7071 6.70708C27.0976 6.31655 27.0976 5.68339 26.7071 5.29286C26.3166 4.90234 25.6834 4.90234 25.2929 5.29286L7 23.5858V18.5C7 17.9477 6.55228 17.5 6 17.5C5.44772 17.5 5 17.9477 5 18.5V26C5 26.1356 5.02699 26.2648 5.07588 26.3828C5.12357 26.498 5.19374 26.6062 5.2864 26.7005C5.29071 26.7049 5.29506 26.7093 5.29945 26.7136C5.49387 26.9045 5.74693 27 6 27H13.5C14.0523 27 14.5 26.5523 14.5 26C14.5 25.4477 14.0523 25 13.5 25H8.41421L26.7071 6.70708Z" fill="#111827"/>
</svg>
