<svg width="32" height="33" viewBox="0 0 32 33" fill="none" xmlns="http://www.w3.org/2000/svg">
<path fill-rule="evenodd" clip-rule="evenodd" d="M16.0749 28.4989C16.0749 29.0512 15.6272 29.4989 15.0749 29.4989H7.07494C6.52266 29.4989 6.07494 29.0512 6.07494 28.4989V20.4989C6.07494 19.9466 6.52266 19.4989 7.07494 19.4989C7.62723 19.4989 8.07494 19.9466 8.07494 20.4989V26.1103L23.1923 10.9929C23.5828 10.6024 24.216 10.6024 24.6065 10.9929C24.997 11.3834 24.997 12.0166 24.6065 12.4071L9.51472 27.4989H15.0749C15.6272 27.4989 16.0749 27.9466 16.0749 28.4989ZM28.4993 4.50106C28.4993 5.05334 28.0516 5.50106 27.4993 5.50106H3.50085C2.94856 5.50106 2.50085 5.05334 2.50085 4.50106C2.50085 3.94878 2.94856 3.50106 3.50085 3.50106H27.4993C28.0516 3.50106 28.4993 3.94878 28.4993 4.50106Z" fill="#111827"/>
</svg>
