<svg width="33" height="33" viewBox="0 0 33 33" fill="none" xmlns="http://www.w3.org/2000/svg">
<path d="M16.9602 5.49C16.9602 5.04455 17.4988 4.82147 17.8138 5.13645L28.6067 15.9293C28.8019 16.1246 28.8019 16.4412 28.6067 16.6365L17.8138 27.4293C17.4988 27.7443 16.9602 27.5212 16.9602 27.0758V22.7829C16.9602 22.5068 16.7363 22.2829 16.4602 22.2829H13.4602C13.1841 22.2829 12.9602 22.059 12.9602 21.7829V10.7829C12.9602 10.5068 13.1841 10.2829 13.4602 10.2829H16.4602C16.7363 10.2829 16.9602 10.059 16.9602 9.7829V5.49Z" fill="#1C1B1F"/>
<path d="M4.96021 22.2829V10.2829" stroke="#1C1B1F" stroke-width="2" stroke-linecap="round" stroke-linejoin="round"/>
<path d="M8.96021 22.2829V10.2829" stroke="#1C1B1F" stroke-width="2" stroke-linecap="round" stroke-linejoin="round"/>
</svg>
