<svg width="32" height="33" viewBox="0 0 32 33" fill="none" xmlns="http://www.w3.org/2000/svg">
<path fill-rule="evenodd" clip-rule="evenodd" d="M2 0.5C0.895431 0.5 0 1.39543 0 2.5V30.5C0 31.6046 0.895431 32.5 2 32.5H30C31.1046 32.5 32 31.6046 32 30.5V2.5C32 1.39543 31.1046 0.5 30 0.5H2ZM10.5788 11.0788C10.4607 11.1969 10.3783 11.3372 10.3316 11.4862C10.3 11.5873 10.2847 11.6925 10.2859 11.7975V19.7859C10.2859 20.3382 10.7337 20.7859 11.2859 20.7859C11.8382 20.7859 12.2859 20.3382 12.2859 19.7859L12.2859 14.2002L20.0069 21.9211C20.3974 22.3116 21.0305 22.3116 21.4211 21.9211C21.8116 21.5306 21.8116 20.8974 21.4211 20.5069L13.7001 12.7859H19.2859C19.8382 12.7859 20.2859 12.3382 20.2859 11.7859C20.2859 11.2336 19.8382 10.7859 19.2859 10.7859H11.2859L11.2813 10.7859C11.1581 10.7865 11.0403 10.8093 10.9314 10.8506C10.8029 10.8992 10.6823 10.9753 10.5788 11.0788Z" fill="#111827"/>
</svg>
