<svg width="32" height="33" viewBox="0 0 32 33" fill="none" xmlns="http://www.w3.org/2000/svg">
<path fill-rule="evenodd" clip-rule="evenodd" d="M16.3112 22.4527C16.2132 22.4848 16.1085 22.5021 15.9998 22.5021C15.7173 22.5021 15.4622 22.385 15.2804 22.1967L11.0502 17.9666C10.6597 17.5761 10.6597 16.9429 11.0502 16.5524C11.4407 16.1619 12.0739 16.1619 12.4644 16.5524L14.9998 19.0877V11.4979C14.9998 10.9456 15.4475 10.4979 15.9998 10.4979C16.552 10.4979 16.9998 10.9456 16.9998 11.4979V19.0881L19.5355 16.5524C19.926 16.1619 20.5592 16.1619 20.9497 16.5524C21.3402 16.9429 21.3402 17.5761 20.9497 17.9666L16.7071 22.2092C16.592 22.3243 16.4559 22.4054 16.3112 22.4527Z" fill="#111827"/>
</svg>
