<svg width="33" height="33" viewBox="0 0 33 33" fill="none" xmlns="http://www.w3.org/2000/svg">
<path fill-rule="evenodd" clip-rule="evenodd" d="M6.96021 4.2829C5.85564 4.2829 4.96021 5.17833 4.96021 6.2829V26.2829C4.96021 27.3875 5.85564 28.2829 6.9602 28.2829H26.9602C28.0648 28.2829 28.9602 27.3875 28.9602 26.2829V6.2829C28.9602 5.17833 28.0648 4.2829 26.9602 4.2829H6.96021ZM12.7176 12.0402C12.8193 11.9385 12.9375 11.8633 13.0636 11.8145C13.1546 11.7793 13.2519 11.757 13.3534 11.7499C13.3796 11.748 13.4059 11.7472 13.4322 11.7474L19.4247 11.7474C19.977 11.7474 20.4247 12.1951 20.4247 12.7474C20.4247 13.2997 19.977 13.7474 19.4247 13.7474L15.8389 13.7474L21.2029 19.1113C21.5934 19.5018 21.5934 20.135 21.2029 20.5255C20.8123 20.916 20.1792 20.916 19.7887 20.5255L14.4247 15.1615V18.7474C14.4247 19.2997 13.977 19.7474 13.4247 19.7474C12.8724 19.7474 12.4247 19.2997 12.4247 18.7474L12.4247 12.7474C12.4247 12.6079 12.4532 12.475 12.5048 12.3544C12.5535 12.2403 12.6245 12.1334 12.7176 12.0402Z" fill="#1C1B1F"/>
</svg>
