<svg width="32" height="32" viewBox="0 0 32 32" fill="none" xmlns="http://www.w3.org/2000/svg">
<path fill-rule="evenodd" clip-rule="evenodd" d="M5 7.87866C5 7.32638 4.55228 6.87866 4 6.87866C3.44772 6.87866 3 7.32638 3 7.87866C3 11.3265 4.36964 14.6331 6.80761 17.071C9.24558 19.509 12.5522 20.8787 16 20.8787H25.5858L23.0502 23.4142C22.6597 23.8047 22.6597 24.4379 23.0502 24.8284C23.4407 25.219 24.0739 25.219 24.4644 24.8284L28.7045 20.5884C28.7142 20.5788 28.7237 20.5689 28.733 20.5589C28.8094 20.4767 28.8694 20.3848 28.913 20.2873C28.9689 20.1625 29 20.0242 29 19.8787C29 19.7225 28.9642 19.5747 28.9004 19.4431C28.8667 19.3734 28.8244 19.3068 28.7736 19.2449C28.7507 19.217 28.7262 19.1903 28.7005 19.165L24.4644 14.9289C24.0739 14.5384 23.4407 14.5384 23.0502 14.9289C22.6597 15.3195 22.6597 15.9526 23.0502 16.3432L25.5857 18.8787H16C13.0826 18.8787 10.2847 17.7197 8.22183 15.6568C6.15893 13.5939 5 10.796 5 7.87866Z" fill="#111827"/>
</svg>
