<svg width="32" height="32" viewBox="0 0 32 32" fill="none" xmlns="http://www.w3.org/2000/svg">
<path fill-rule="evenodd" clip-rule="evenodd" d="M8.53169 22.0793C8.14116 22.4699 8.14116 23.103 8.53169 23.4935C8.92221 23.8841 9.55538 23.8841 9.9459 23.4935L27.9995 5.44V11.4759C27.9995 12.0281 28.4472 12.4759 28.9995 12.4759C29.5517 12.4759 29.9995 12.0281 29.9995 11.4759V3.02606C29.9995 2.88456 29.9701 2.74993 29.9171 2.62793C29.8684 2.51568 29.7982 2.41053 29.7065 2.31877C29.5063 2.1186 29.2424 2.02103 28.98 2.02606L20.5497 2.02606C19.9974 2.02606 19.5497 2.47378 19.5497 3.02606C19.5497 3.57835 19.9974 4.02606 20.5497 4.02606H26.585L8.53169 22.0793ZM2.00024 9.47521C2.00024 8.92292 2.44796 8.47521 3.00024 8.47521H8.99112H14.982C15.5343 8.47521 15.982 8.92292 15.982 9.47521C15.982 10.0275 15.5343 10.4752 14.982 10.4752H8.99112H4.00024V27.9741H21.4991V17.0417C21.4991 16.4894 21.9468 16.0417 22.4991 16.0417C23.0514 16.0417 23.4991 16.4894 23.4991 17.0417V28.9741C23.4991 29.5263 23.0514 29.9741 22.4991 29.9741H3.00024C2.44796 29.9741 2.00024 29.5263 2.00024 28.9741V9.47521Z" fill="#111827"/>
</svg>
