<svg width="32" height="32" viewBox="0 0 32 32" fill="none" xmlns="http://www.w3.org/2000/svg">
<path fill-rule="evenodd" clip-rule="evenodd" d="M7.87891 3C7.32662 3 6.87891 3.44772 6.87891 4C6.87891 4.55228 7.32662 5 7.87891 5C10.7963 5 13.5942 6.15893 15.6571 8.22183C17.72 10.2847 18.8789 13.0826 18.8789 16V25.5858L16.3433 23.0503C15.9528 22.6598 15.3196 22.6598 14.9291 23.0503C14.5386 23.4408 14.5386 24.074 14.9291 24.4645L19.1718 28.7071C19.2793 28.8147 19.4052 28.8926 19.5394 28.9409C19.6232 28.9711 19.7121 28.9905 19.8045 28.9973C19.8509 29.0007 19.8975 29.0009 19.944 28.9979C20.1692 28.9833 20.3903 28.8929 20.566 28.7266C20.5737 28.7193 20.5812 28.7119 20.5887 28.7045L24.8286 24.4645C25.2191 24.074 25.2191 23.4408 24.8286 23.0503C24.4381 22.6598 23.8049 22.6598 23.4144 23.0503L20.8789 25.5858V16C20.8789 12.5522 19.5093 9.24558 17.0713 6.80761C14.6333 4.36964 11.3267 3 7.87891 3Z" fill="#111827"/>
</svg>
