<svg width="32" height="32" viewBox="0 0 32 32" fill="none" xmlns="http://www.w3.org/2000/svg">
<path fill-rule="evenodd" clip-rule="evenodd" d="M24.4644 7.17156C24.0739 6.78103 23.4407 6.78103 23.0502 7.17156C22.6597 7.56208 22.6597 8.19524 23.0502 8.58577L25.5858 11.1213H16C12.5522 11.1213 9.24558 12.491 6.80761 14.929C4.36964 17.3669 3 20.6735 3 24.1213C3 24.6736 3.44772 25.1213 4 25.1213C4.55228 25.1213 5 24.6736 5 24.1213C5 21.204 6.15893 18.4061 8.22183 16.3432C10.2847 14.2803 13.0826 13.1213 16 13.1213H25.5857L23.0502 15.6568C22.6597 16.0474 22.6597 16.6805 23.0502 17.071C23.4407 17.4616 24.0739 17.4616 24.4644 17.071L28.7 12.8355C28.7289 12.8072 28.7561 12.7771 28.7814 12.7455C28.8274 12.688 28.8662 12.6265 28.8977 12.5624C28.9632 12.4294 29 12.2796 29 12.1213C29 11.9775 28.9696 11.8407 28.9149 11.7171C28.8676 11.6099 28.8005 11.5093 28.7136 11.4208C28.7113 11.4185 28.7091 11.4162 28.7068 11.4139M24.4644 7.17156L28.7068 11.4139L24.4644 7.17156Z" fill="#111827"/>
</svg>
