<svg width="32" height="32" viewBox="0 0 32 32" fill="none" xmlns="http://www.w3.org/2000/svg">
<path fill-rule="evenodd" clip-rule="evenodd" d="M6.1718 7.53553C5.78128 7.92606 5.78128 8.55922 6.1718 8.94975C6.56232 9.34027 7.19549 9.34027 7.58601 8.94975L10.1211 6.41467V21C10.1211 22.0506 10.328 23.0909 10.7301 24.0615C11.1321 25.0321 11.7214 25.914 12.4642 26.6569C13.2071 27.3998 14.089 27.989 15.0596 28.3911C16.0302 28.7931 17.0705 29 18.1211 29C20.2428 29 22.2777 28.1572 23.7779 26.6569C25.2782 25.1566 26.1211 23.1218 26.1211 21V10C26.1211 9.44774 25.6734 9.00003 25.1211 9.00003C24.5688 9.00003 24.1211 9.44774 24.1211 10V21C24.1211 22.5913 23.489 24.1174 22.3637 25.2427C21.2385 26.3679 19.7124 27 18.1211 27C17.3332 27 16.5529 26.8448 15.825 26.5433C15.097 26.2418 14.4356 25.7998 13.8784 25.2427C13.3213 24.6855 12.8793 24.0241 12.5778 23.2961C12.2763 22.5682 12.1211 21.788 12.1211 21V6.41376L14.6571 8.94975C15.0476 9.34027 15.6808 9.34027 16.0713 8.94975C16.4618 8.55922 16.4618 7.92606 16.0713 7.53553L11.8287 3.29289C11.6237 3.08795 11.3519 2.99056 11.0835 3.00072C10.8135 3.0107 10.5709 3.12771 10.3968 3.31057L6.1718 7.53553Z" fill="#111827"/>
</svg>
