<svg width="32" height="32" viewBox="0 0 32 32" fill="none" xmlns="http://www.w3.org/2000/svg">
<path fill-rule="evenodd" clip-rule="evenodd" d="M31.7074 1.70686C32.0979 1.31634 32.0979 0.683173 31.7074 0.292649C31.3169 -0.0978752 30.6837 -0.0978752 30.2932 0.292649L22.0002 8.5857V3.4998C22.0002 2.94751 21.5524 2.4998 21.0002 2.4998C20.4479 2.4998 20.0002 2.94751 20.0002 3.4998V10.9977L20.0003 11.0185C20.0026 11.1462 20.0289 11.2681 20.0749 11.3799C20.1237 11.4989 20.1964 11.6104 20.293 11.707C20.3889 11.8029 20.4994 11.8752 20.6174 11.924C20.7353 11.9729 20.8646 11.9999 21.0002 11.9999H28.5003C29.0526 11.9999 29.5003 11.5522 29.5003 10.9999C29.5003 10.4476 29.0526 9.99992 28.5003 9.99992H23.4144L31.7074 1.70686ZM0.292649 30.2931C-0.0978752 30.6836 -0.0978752 31.3168 0.292649 31.7073C0.683173 32.0978 1.31634 32.0978 1.70686 31.7073L10 23.4141V28.5003C10 29.0526 10.4478 29.5003 11 29.5003C11.5523 29.5003 12 29.0526 12 28.5003V21.0002C12 20.8386 11.9617 20.6859 11.8937 20.5508C11.8469 20.4578 11.7847 20.3706 11.707 20.2929C11.585 20.1709 11.4393 20.087 11.2846 20.0412C11.253 20.0319 11.221 20.0241 11.1888 20.0179C11.1213 20.005 11.0526 19.9991 10.9841 20.0002H3.49992C2.94763 20.0002 2.49992 20.4479 2.49992 21.0002C2.49992 21.5524 2.94763 22.0002 3.49992 22.0002H8.58558L0.292649 30.2931ZM30.2932 31.7073C30.6837 32.0978 31.3169 32.0978 31.7074 31.7073C32.0979 31.3168 32.0979 30.6836 31.7074 30.2931L23.4145 22.0001H28.5002C29.0525 22.0001 29.5002 21.5524 29.5002 21.0001C29.5002 20.4478 29.0525 20.0001 28.5002 20.0001H21.0131C20.9614 19.9995 20.9097 20.0028 20.8584 20.0101C20.7949 20.0191 20.7334 20.034 20.6743 20.0544C20.5451 20.0988 20.4232 20.1704 20.3175 20.2693C20.2949 20.2904 20.2732 20.3127 20.2526 20.3358C20.1928 20.403 20.1436 20.4763 20.1051 20.5535C20.0379 20.688 20.0001 20.8396 20.0001 21.0001V28.5002C20.0001 29.0525 20.4478 29.5002 21.0001 29.5002C21.5523 29.5002 22.0001 29.0525 22.0001 28.5002V23.4142L30.2932 31.7073ZM11 2.49978C11.5523 2.49978 12 2.9475 12 3.49978V10.9856C12.0038 11.2463 11.9062 11.5083 11.7072 11.7072C11.5065 11.9079 11.2417 12.0055 10.9787 11.9999H3.4999C2.94762 11.9999 2.4999 11.5522 2.4999 10.9999C2.4999 10.4476 2.94762 9.9999 3.4999 9.9999H8.58569L0.292862 1.70708C-0.0976624 1.31655 -0.0976624 0.683386 0.292862 0.292862C0.683386 -0.0976624 1.31655 -0.0976624 1.70708 0.292862L10 8.58581V3.49978C10 2.9475 10.4477 2.49978 11 2.49978Z" fill="#111827"/>
</svg>
