<svg width="32" height="32" viewBox="0 0 32 32" fill="none" xmlns="http://www.w3.org/2000/svg">
<path fill-rule="evenodd" clip-rule="evenodd" d="M32 16C32 24.8366 24.8366 32 16 32C7.16344 32 0 24.8366 0 16C0 7.16344 7.16344 0 16 0C24.8366 0 32 7.16344 32 16ZM16.3027 9.63604C15.9121 10.0266 15.9121 10.6597 16.3027 11.0503L20.2524 15H9.33333C8.78105 15 8.33333 15.4477 8.33333 16C8.33333 16.5523 8.78105 17 9.33333 17H20.2524L16.3027 20.9498C15.9121 21.3403 15.9121 21.9734 16.3027 22.364C16.6932 22.7545 17.3263 22.7545 17.7169 22.364L23.3676 16.7132C23.3918 16.6895 23.4147 16.6645 23.4364 16.6384C23.4886 16.5756 23.532 16.5078 23.5665 16.4369C23.6307 16.3049 23.6667 16.1566 23.6667 16C23.6667 15.846 23.6319 15.7002 23.5697 15.5699C23.533 15.4929 23.486 15.4196 23.4285 15.3522C23.4094 15.3297 23.3893 15.3082 23.3684 15.2875L17.7169 9.63604C17.3263 9.24552 16.6932 9.24552 16.3027 9.63604Z" fill="#111827"/>
</svg>
