<svg width="32" height="33" viewBox="0 0 32 33" fill="none" xmlns="http://www.w3.org/2000/svg">
<path fill-rule="evenodd" clip-rule="evenodd" d="M11.6502 12.3346C13.6143 11.5046 15.7743 11.2878 17.858 11.7106C19.9418 12.1335 21.8587 13.1778 23.3651 14.7147L25.6196 17.0148H22C21.4477 17.0148 21 17.4625 21 18.0148C21 18.5671 21.4477 19.0148 22 19.0148H28C28.1565 19.0148 28.3047 18.9788 28.4366 18.9147C28.5026 18.8826 28.5659 18.8429 28.6251 18.7954C28.6702 18.7592 28.7122 18.7191 28.7504 18.6757C28.8183 18.5989 28.8723 18.5141 28.9125 18.4245C28.9687 18.2994 29 18.1608 29 18.0148V12.0148C29 11.4625 28.5523 11.0148 28 11.0148C27.4477 11.0148 27 11.4625 27 12.0148V15.5659L24.7934 13.3147C23.0099 11.4952 20.7352 10.2537 18.2557 9.75056C15.7761 9.24736 13.2062 9.50581 10.8717 10.4923C8.5375 11.4787 6.54565 13.1478 5.14573 15.2853C3.74595 17.4226 3 19.9333 3 22.5C3 23.0523 3.44772 23.5 4 23.5C4.55229 23.5 5 23.0523 5 22.5C5 20.32 5.63372 18.1906 6.81883 16.3811C8.0038 14.5718 9.68595 13.1647 11.6502 12.3346Z" fill="#111827"/>
</svg>
