<svg width="32" height="33" viewBox="0 0 32 33" fill="none" xmlns="http://www.w3.org/2000/svg">
<path d="M5.20711 16.5C4.76165 16.5 4.53857 15.9614 4.85355 15.6464L15.6464 4.85355C15.8417 4.65829 16.1583 4.65829 16.3536 4.85355L27.1464 15.6464C27.4614 15.9614 27.2383 16.5 26.7929 16.5H22.5C22.2239 16.5 22 16.7239 22 17V27.5C22 27.7652 21.8946 28.0196 21.7071 28.2071C21.5196 28.3946 21.2652 28.5 21 28.5H11C10.7348 28.5 10.4804 28.3946 10.2929 28.2071C10.1054 28.0196 10 27.7652 10 27.5V17C10 16.7239 9.77614 16.5 9.5 16.5H5.20711Z" fill="#111827"/>
</svg>
