<svg width="33" height="33" viewBox="0 0 33 33" fill="none" xmlns="http://www.w3.org/2000/svg">
<path fill-rule="evenodd" clip-rule="evenodd" d="M28.9602 16.2829C28.9602 22.9103 23.5876 28.2829 16.9602 28.2829C10.3328 28.2829 4.96021 22.9103 4.96021 16.2829C4.96021 9.65548 10.3328 4.2829 16.9602 4.2829C23.5876 4.2829 28.9602 9.65548 28.9602 16.2829ZM13.4247 19.7474C13.977 19.7474 14.4247 19.2997 14.4247 18.7474V15.1616L19.7887 20.5255C20.1792 20.9161 20.8124 20.9161 21.2029 20.5255C21.5934 20.135 21.5934 19.5019 21.2029 19.1113L15.839 13.7474H19.4247C19.977 13.7474 20.4247 13.2997 20.4247 12.7474C20.4247 12.1951 19.977 11.7474 19.4247 11.7474L13.4322 11.7474C13.4043 11.7472 13.3765 11.7481 13.3486 11.7503C13.2566 11.7572 13.168 11.7766 13.0846 11.8067C12.9506 11.8551 12.825 11.9329 12.7176 12.0403C12.6118 12.1461 12.5347 12.2697 12.4862 12.4015C12.4536 12.4899 12.4331 12.5842 12.4268 12.6823C12.4253 12.7062 12.4246 12.7301 12.4247 12.754L12.4247 18.7474C12.4247 19.2997 12.8725 19.7474 13.4247 19.7474Z" fill="#1C1B1F"/>
</svg>
