<svg width="32" height="32" viewBox="0 0 32 32" fill="none" xmlns="http://www.w3.org/2000/svg">
<path fill-rule="evenodd" clip-rule="evenodd" d="M11 5.87866C8.87827 5.87866 6.84344 6.72152 5.34315 8.22181C3.84285 9.7221 3 11.7569 3 13.8787V13.8787C3 14.9292 3.20693 15.9695 3.60896 16.9401C4.011 17.9107 4.60027 18.7927 5.34314 19.5355C6.08601 20.2784 6.96792 20.8677 7.93852 21.2697C8.90913 21.6717 9.94941 21.8787 11 21.8787H25.5858L23.0502 24.4142C22.6597 24.8047 22.6597 25.4379 23.0502 25.8284C23.4407 26.219 24.0739 26.219 24.4644 25.8284L28.7045 21.5884C28.7142 21.5788 28.7237 21.5689 28.733 21.5589C28.8094 21.4767 28.8694 21.3848 28.913 21.2873C28.9689 21.1625 29 21.0242 29 20.8787C29 20.7225 28.9642 20.5747 28.9004 20.4431C28.8667 20.3734 28.8244 20.3068 28.7736 20.2449C28.7507 20.217 28.7262 20.1903 28.7005 20.165L24.4644 15.9289C24.0739 15.5384 23.4407 15.5384 23.0502 15.9289C22.6597 16.3195 22.6597 16.9526 23.0502 17.3432L25.5857 19.8787H11C10.2121 19.8787 9.43184 19.7235 8.70389 19.4219C7.97594 19.1204 7.3145 18.6785 6.75735 18.1213C6.2002 17.5642 5.75825 16.9027 5.45672 16.1748C5.15519 15.4468 5 14.6666 5 13.8787V13.8787C5 12.2874 5.63214 10.7612 6.75736 9.63602C7.88258 8.5108 9.4087 7.87866 11 7.87866H22C22.5523 7.87866 23 7.43095 23 6.87866C23 6.32638 22.5523 5.87866 22 5.87866H11Z" fill="#111827"/>
</svg>
