<svg width="33" height="33" viewBox="0 0 33 33" fill="none" xmlns="http://www.w3.org/2000/svg">
<path fill-rule="evenodd" clip-rule="evenodd" d="M7.40119 9.18213C6.60522 9.18214 5.95996 9.82741 5.95996 10.6234C5.95996 10.9828 6.09144 11.3122 6.31009 11.5653C6.61627 11.2776 6.9511 11.0192 7.31055 10.7945C7.78132 10.5003 8.28562 10.2694 8.81045 10.1055L8.74189 10.0314C8.5857 9.86263 8.45173 9.71923 8.34907 9.61131C8.25311 9.51042 8.2057 9.46314 8.19344 9.45092L8.19344 9.45091L8.19342 9.4509L8.19341 9.45089C8.19083 9.44831 8.18982 9.4473 8.19026 9.4477C8.19053 9.44793 8.18852 9.44615 8.18381 9.44253C8.17913 9.43894 8.17243 9.43404 8.1635 9.42798C8.14534 9.41566 8.12079 9.40049 8.08959 9.38344C8.0264 9.3489 7.94721 9.31282 7.85816 9.28039C7.66859 9.21134 7.49955 9.18214 7.40122 9.18213H7.40119ZM3.95996 10.6234C3.95996 11.6273 4.38995 12.5298 5.07395 13.1582C5.02236 13.2518 4.97302 13.3469 4.926 13.4434C4.39503 14.5323 4.18071 15.7485 4.30746 16.9533C4.43421 18.1582 4.89694 19.3032 5.6429 20.2578C6.38885 21.2123 7.38802 21.9381 8.52648 22.3524C9.66494 22.7666 10.8969 22.8527 12.0819 22.6007C13.2669 22.3487 14.3572 21.7688 15.2286 20.9272C16.1 20.0855 16.7174 19.016 17.0104 17.8405C17.1439 17.3046 16.8178 16.7619 16.2819 16.6283C15.746 16.4947 15.2033 16.8209 15.0697 17.3568C14.8674 18.1687 14.441 18.9073 13.8392 19.4886C13.2535 20.0543 12.5246 20.4488 11.7316 20.6299L11.7367 15.6485C11.7373 15.0962 11.29 14.648 10.7377 14.6475C10.1854 14.6469 9.73727 15.0942 9.73671 15.6464L9.7316 20.6274C9.55546 20.5867 9.38137 20.5352 9.21034 20.4729C8.42407 20.1868 7.734 19.6856 7.2188 19.0263C6.70361 18.367 6.38402 17.5762 6.29648 16.7441C6.20894 15.912 6.35696 15.072 6.72368 14.3199C7.09039 13.5679 7.66104 12.934 8.37057 12.4905C8.97915 12.1101 9.6689 11.883 10.3808 11.826C10.9439 12.4471 11.4084 12.9625 11.4803 13.0422L12.1595 12.4303L11.4803 13.0422C11.5011 13.0653 11.5215 13.0866 11.5421 13.1068L11.5421 13.1069L11.6572 13.2201L11.6884 13.2509L11.7222 13.2788C12.3167 13.7692 13.0808 14.0646 13.9112 14.0646C15.8118 14.0646 17.3525 12.5239 17.3525 10.6234C17.3525 8.72283 15.8118 7.18213 13.9112 7.18213C13.3589 7.18213 12.9112 7.62984 12.9112 8.18213C12.9112 8.73441 13.3589 9.18213 13.9112 9.18213C14.7072 9.18213 15.3525 9.8274 15.3525 10.6234C15.3525 11.4194 14.7072 12.0646 13.9112 12.0646C13.5759 12.0646 13.2695 11.9513 13.0248 11.7599L12.9557 11.6919C12.8249 11.5468 12.0766 10.7168 11.316 9.88082C10.9241 9.45009 10.5274 9.01607 10.2096 8.6728C9.91691 8.35655 9.63643 8.05684 9.51595 7.95019C9.23799 7.70411 8.87251 7.5213 8.54259 7.40114C8.20532 7.27831 7.7987 7.18214 7.40125 7.18213H7.40122C5.50066 7.18213 3.95996 8.72283 3.95996 10.6234ZM18.8525 14.4548C18.8525 13.9025 19.3003 13.4548 19.8525 13.4548H28.9602C29.5124 13.4548 29.9602 13.9025 29.9602 14.4548C29.9602 15.0071 29.5124 15.4548 28.9602 15.4548H19.8525C19.3003 15.4548 18.8525 15.0071 18.8525 14.4548ZM18.8525 18.0979C18.8525 17.5456 19.3003 17.0979 19.8525 17.0979H28.9602C29.5124 17.0979 29.9602 17.5456 29.9602 18.0979C29.9602 18.6502 29.5124 19.0979 28.9602 19.0979H19.8525C19.3003 19.0979 18.8525 18.6502 18.8525 18.0979ZM19.8525 20.7407C19.3003 20.7407 18.8525 21.1884 18.8525 21.7407C18.8525 22.293 19.3003 22.7407 19.8525 22.7407H28.9602C29.5124 22.7407 29.9602 22.293 29.9602 21.7407C29.9602 21.1884 29.5124 20.7407 28.9602 20.7407H19.8525ZM8.83398 25.3838C8.83398 24.8315 9.2817 24.3838 9.83398 24.3838H28.96C29.5123 24.3838 29.96 24.8315 29.96 25.3838C29.96 25.9361 29.5123 26.3838 28.96 26.3838H9.83398C9.2817 26.3838 8.83398 25.9361 8.83398 25.3838Z" fill="#1C1B1F"/>
</svg>
