<svg width="32" height="33" viewBox="0 0 32 33" fill="none" xmlns="http://www.w3.org/2000/svg">
<path fill-rule="evenodd" clip-rule="evenodd" d="M2.27355 7.50057H1.00098C0.448692 7.50057 0.000976562 7.05286 0.000976562 6.50057C0.000976562 5.94829 0.448692 5.50057 1.00098 5.50057H3.22303C3.23096 5.50057 3.23887 5.50067 3.24675 5.50085C3.59561 5.49146 3.93206 5.66584 4.12276 5.97252L8.73863 13.3958L13.4436 5.96559C13.6347 5.66376 13.9675 5.49248 14.3124 5.50078C14.3193 5.50064 14.3261 5.50057 14.3329 5.50057H16.555C17.1073 5.50057 17.555 5.94829 17.555 6.50057C17.555 7.05286 17.1073 7.50057 16.555 7.50057H15.2885V16.611H15.9999C16.5522 16.611 16.9999 17.0587 16.9999 17.611C16.9999 18.1633 16.5522 18.611 15.9999 18.611H12.6668C12.1146 18.611 11.6668 18.1633 11.6668 17.611C11.6668 17.0587 12.1146 16.611 12.6668 16.611H13.2885V9.94902L9.57579 15.8122C9.39167 16.103 9.07098 16.2786 8.72683 16.2772C8.38268 16.2758 8.06344 16.0975 7.88171 15.8053L4.27355 10.0026V16.611H4.88926C5.44154 16.611 5.88926 17.0587 5.88926 17.611C5.88926 18.1633 5.44154 18.611 4.88926 18.611H1.55617C1.00388 18.611 0.556168 18.1633 0.556168 17.611C0.556168 17.0587 1.00388 16.611 1.55617 16.611H2.27355V7.50057ZM19.9996 13.1668C19.9996 12.6145 20.4473 12.1668 20.9996 12.1668H30.9989C31.5512 12.1668 31.9989 12.6145 31.9989 13.1668C31.9989 13.7191 31.5512 14.1668 30.9989 14.1668H20.9996C20.4473 14.1668 19.9996 13.7191 19.9996 13.1668ZM20.9996 16.611C20.4473 16.611 19.9996 17.0587 19.9996 17.611C19.9996 18.1633 20.4473 18.611 20.9996 18.611H30.9989C31.5512 18.611 31.9989 18.1633 31.9989 17.611C31.9989 17.0587 31.5512 16.611 30.9989 16.611H20.9996ZM6.66768 22.055C6.66768 21.5027 7.11539 21.055 7.66768 21.055H30.9993C31.5516 21.055 31.9993 21.5027 31.9993 22.055C31.9993 22.6073 31.5516 23.055 30.9993 23.055H7.66768C7.11539 23.055 6.66768 22.6073 6.66768 22.055ZM7.66768 25.4995C7.11539 25.4995 6.66768 25.9472 6.66768 26.4995C6.66768 27.0517 7.11539 27.4995 7.66768 27.4995H30.9993C31.5516 27.4995 31.9993 27.0517 31.9993 26.4995C31.9993 25.9472 31.5516 25.4995 30.9993 25.4995H7.66768Z" fill="#111827"/>
</svg>
