<svg width="33" height="33" viewBox="0 0 33 33" fill="none" xmlns="http://www.w3.org/2000/svg">
<path fill-rule="evenodd" clip-rule="evenodd" d="M5.77832 9.78304H4.95996C4.40768 9.78304 3.95996 9.33533 3.95996 8.78304C3.95996 8.23076 4.40768 7.78304 4.95996 7.78304H6.73774C6.74386 7.78304 6.74996 7.7831 6.75605 7.78321C7.10329 7.77545 7.43766 7.94964 7.62753 8.255L11.1522 13.9235L14.746 8.24806C14.9364 7.94739 15.2674 7.77626 15.6109 7.78316C15.6161 7.78308 15.6213 7.78304 15.6265 7.78304H17.4042C17.9565 7.78304 18.4042 8.23076 18.4042 8.78304C18.4042 9.33533 17.9565 9.78304 17.4042 9.78304H16.5909V16.672H16.9601C17.5124 16.672 17.9601 17.1197 17.9601 17.672C17.9601 18.2242 17.5124 18.672 16.9601 18.672H14.2935C13.7412 18.672 13.2935 18.2242 13.2935 17.672C13.2935 17.1197 13.7412 16.672 14.2935 16.672H14.5909V12.2315L11.9894 16.3399C11.8053 16.6306 11.4846 16.8063 11.1405 16.8049C10.7963 16.8035 10.4771 16.6252 10.2953 16.3329L7.77832 12.285V16.672H8.07096C8.62325 16.672 9.07096 17.1197 9.07096 17.672C9.07096 18.2242 8.62325 18.672 8.07096 18.672H5.4043C4.85201 18.672 4.4043 18.2242 4.4043 17.672C4.4043 17.1197 4.85201 16.672 5.4043 16.672H5.77832V9.78304ZM19.96 14.1163C19.96 13.564 20.4077 13.1163 20.96 13.1163H28.96C29.5122 13.1163 29.96 13.564 29.96 14.1163C29.96 14.6686 29.5122 15.1163 28.96 15.1163H20.96C20.4077 15.1163 19.96 14.6686 19.96 14.1163ZM20.96 16.672C20.4077 16.672 19.96 17.1197 19.96 17.672C19.96 18.2242 20.4077 18.672 20.96 18.672H28.96C29.5122 18.672 29.96 18.2242 29.96 17.672C29.96 17.1197 29.5122 16.672 28.96 16.672H20.96ZM9.29346 21.2274C9.29346 20.6751 9.74117 20.2274 10.2935 20.2274H28.9601C29.5124 20.2274 29.9601 20.6751 29.9601 21.2274C29.9601 21.7797 29.5124 22.2274 28.9601 22.2274H10.2935C9.74117 22.2274 9.29346 21.7797 9.29346 21.2274ZM10.2935 23.783C9.74117 23.783 9.29346 24.2308 9.29346 24.783C9.29346 25.3353 9.74117 25.783 10.2935 25.783H28.9601C29.5124 25.783 29.9601 25.3353 29.9601 24.783C29.9601 24.2308 29.5124 23.783 28.9601 23.783H10.2935Z" fill="#1C1B1F"/>
</svg>
