<svg width="33" height="33" viewBox="0 0 33 33" fill="none" xmlns="http://www.w3.org/2000/svg">
<path fill-rule="evenodd" clip-rule="evenodd" d="M28.96 7.78296C28.96 7.23067 28.5122 6.78296 27.96 6.78296H5.95996C5.40768 6.78296 4.95996 7.23067 4.95996 7.78296V25.783C4.95996 26.3352 5.40768 26.783 5.95996 26.783H27.96C28.5122 26.783 28.96 26.3352 28.96 25.783V7.78296ZM10.46 11.783C9.90768 11.783 9.45996 12.2307 9.45996 12.783C9.45996 13.3352 9.90768 13.783 10.46 13.783H23.46C24.0122 13.783 24.46 13.3352 24.46 12.783C24.46 12.2307 24.0122 11.783 23.46 11.783H10.46ZM9.45996 16.783C9.45996 16.2307 9.90768 15.783 10.46 15.783H23.46C24.0122 15.783 24.46 16.2307 24.46 16.783C24.46 17.3352 24.0122 17.783 23.46 17.783H10.46C9.90768 17.783 9.45996 17.3352 9.45996 16.783ZM10.46 19.783C9.90768 19.783 9.45996 20.2307 9.45996 20.783C9.45996 21.3352 9.90768 21.783 10.46 21.783H23.46C24.0122 21.783 24.46 21.3352 24.46 20.783C24.46 20.2307 24.0122 19.783 23.46 19.783H10.46Z" fill="#1C1B1F"/>
</svg>
