<svg width="32" height="33" viewBox="0 0 32 33" fill="none" xmlns="http://www.w3.org/2000/svg">
<path fill-rule="evenodd" clip-rule="evenodd" d="M4.06319 6.75952C2.93181 6.75954 2.01465 7.67671 2.01465 8.80809C2.01465 9.41357 2.27724 9.95875 2.6967 10.3345C3.11332 9.918 3.57756 9.54792 4.08185 9.23274C4.76514 8.80567 5.50683 8.48883 6.27972 8.29002C6.15313 8.15225 6.0324 8.02127 5.91998 7.89981C5.72463 7.68877 5.55645 7.50875 5.42712 7.37278C5.36232 7.30465 5.30948 7.24992 5.26907 7.20897C5.23661 7.17608 5.21977 7.15986 5.21446 7.15474C5.21259 7.15294 5.21215 7.15252 5.21296 7.15323C5.15255 7.09999 4.98073 6.99258 4.71896 6.89724C4.46386 6.80433 4.22322 6.75953 4.06322 6.75952H4.06319ZM0.0146484 8.80809C0.0146484 10.06 0.582938 11.178 1.47339 11.9199C1.37463 12.0889 1.28203 12.2619 1.19584 12.4386C0.553216 13.7566 0.293819 15.2285 0.447227 16.6867C0.600635 18.1449 1.16067 19.5307 2.0635 20.686C2.96632 21.8414 4.1756 22.7198 5.55347 23.2211C6.93134 23.7225 8.42236 23.8266 9.85654 23.5216C11.2907 23.2167 12.6104 22.5148 13.665 21.4962C14.7196 20.4776 15.4669 19.1831 15.8215 17.7604C15.955 17.2245 15.6289 16.6818 15.093 16.5482C14.5571 16.4147 14.0144 16.7408 13.8808 17.2767C13.6169 18.3358 13.0606 19.2994 12.2756 20.0577C11.4905 20.8159 10.5081 21.3384 9.44054 21.5654C9.3678 21.5808 9.29487 21.5949 9.22178 21.6075L9.22847 15.083C9.22904 14.5308 8.78178 14.0826 8.2295 14.082C7.67721 14.0815 7.22904 14.5287 7.22847 15.081L7.22178 21.605C6.88797 21.5464 6.55852 21.4586 6.23734 21.3417C5.21165 20.9685 4.31146 20.3146 3.6394 19.4545C2.96734 18.5945 2.55045 17.563 2.43625 16.4775C2.32205 15.392 2.51515 14.2963 2.99352 13.3152C3.47189 12.3341 4.2163 11.5072 5.14186 10.9287C5.97077 10.4107 6.9151 10.1105 7.88729 10.0534C8.62675 10.8687 9.24864 11.5587 9.34183 11.6622L9.94241 11.121L9.34183 11.6622C9.3643 11.6871 9.38638 11.71 9.40874 11.7321L9.40875 11.7321L9.55242 11.8735L9.58367 11.9042L9.6175 11.9322C10.317 12.5092 11.2156 12.8567 12.1927 12.8567C14.4287 12.8567 16.2413 11.0441 16.2413 8.80809C16.2413 6.57213 14.4287 4.75952 12.1927 4.75952C11.6404 4.75952 11.1927 5.20724 11.1927 5.75952C11.1927 6.31181 11.6404 6.75952 12.1927 6.75952C13.3241 6.75952 14.2413 7.6767 14.2413 8.80809C14.2413 9.93948 13.3241 10.8567 12.1927 10.8567C11.7112 10.8567 11.2707 10.6917 10.921 10.4143L10.8197 10.3146C10.6715 10.1501 9.7275 9.10292 8.76787 8.04821C8.27863 7.5105 7.78378 6.96912 7.38773 6.54125C7.01668 6.14038 6.6777 5.7788 6.53914 5.65615C6.22379 5.37698 5.79885 5.16203 5.4034 5.018C5.00059 4.87129 4.52237 4.75953 4.06324 4.75952H4.06322C1.82725 4.75952 0.0146484 6.57213 0.0146484 8.80809ZM18.6121 13.5926C18.6121 13.0404 19.0598 12.5926 19.6121 12.5926H30.9854C31.5377 12.5926 31.9854 13.0404 31.9854 13.5926C31.9854 14.1449 31.5377 14.5926 30.9854 14.5926H19.6121C19.0598 14.5926 18.6121 14.1449 18.6121 13.5926ZM18.6121 18.142C18.6121 17.5897 19.0598 17.142 19.6121 17.142H30.9854C31.5377 17.142 31.9854 17.5897 31.9854 18.142C31.9854 18.6943 31.5377 19.142 30.9854 19.142H19.6121C19.0598 19.142 18.6121 18.6943 18.6121 18.142ZM19.6121 21.691C19.0598 21.691 18.6121 22.1387 18.6121 22.691C18.6121 23.2433 19.0598 23.691 19.6121 23.691H30.9854C31.5377 23.691 31.9854 23.2433 31.9854 22.691C31.9854 22.1387 31.5377 21.691 30.9854 21.691H19.6121ZM6.10118 27.2404C6.10118 26.6881 6.5489 26.2404 7.10118 26.2404H30.9852C31.5374 26.2404 31.9852 26.6881 31.9852 27.2404C31.9852 27.7927 31.5374 28.2404 30.9852 28.2404H7.10118C6.5489 28.2404 6.10118 27.7927 6.10118 27.2404Z" fill="#111827"/>
</svg>
