<svg width="32" height="32" viewBox="0 0 32 32" fill="none" xmlns="http://www.w3.org/2000/svg">
<path fill-rule="evenodd" clip-rule="evenodd" d="M16.0017 2.00037C16.554 2.00037 17.0017 2.44808 17.0017 3.00037V14.2672L26.7583 8.63416C27.2366 8.35802 27.8482 8.52189 28.1244 9.00019C28.4005 9.47848 28.2366 10.0901 27.7583 10.3662L18.0003 16L27.7583 21.6338C28.2366 21.9099 28.4005 22.5215 28.1244 22.9998C27.8482 23.4781 27.2366 23.642 26.7583 23.3658L17.0017 17.7328V28.9996C17.0017 29.5519 16.554 29.9996 16.0017 29.9996C15.4494 29.9996 15.0017 29.5519 15.0017 28.9996V17.7313L5.24235 23.3658C4.76406 23.642 4.15247 23.4781 3.87633 22.9998C3.60019 22.5215 3.76406 21.9099 4.24235 21.6338L14.0003 16L4.24235 10.3662C3.76406 10.0901 3.60019 9.47848 3.87633 9.00019C4.15247 8.52189 4.76406 8.35802 5.24235 8.63416L15.0017 14.2687V3.00037C15.0017 2.44808 15.4494 2.00037 16.0017 2.00037Z" fill="#111827"/>
</svg>
