<svg width="32" height="32" viewBox="0 0 32 32" fill="none" xmlns="http://www.w3.org/2000/svg">
<path fill-rule="evenodd" clip-rule="evenodd" d="M15.9999 2.63245C16.5522 2.63245 16.9999 3.08016 16.9999 3.63245V15.9286L28.6953 12.1279C29.2206 11.9572 29.7847 12.2446 29.9554 12.7699C30.1261 13.2951 29.8387 13.8593 29.3135 14.03L17.6174 17.8309L24.8417 27.7799C25.1662 28.2268 25.0669 28.8521 24.62 29.1766C24.1732 29.5012 23.5478 29.4019 23.2233 28.955L15.9999 19.0071L8.77648 28.9551C8.45198 29.402 7.82664 29.5012 7.37974 29.1767C6.93284 28.8522 6.83362 28.2268 7.15813 27.7799L14.3824 17.8308L2.68633 14.03C2.16108 13.8593 1.87366 13.2951 2.04434 12.7699C2.21503 12.2446 2.7792 11.9572 3.30445 12.1279L14.9999 15.9286V3.63245C14.9999 3.08016 15.4476 2.63245 15.9999 2.63245Z" fill="#111827"/>
</svg>
