<svg width="33" height="33" viewBox="0 0 33 33" fill="none" xmlns="http://www.w3.org/2000/svg">
<path fill-rule="evenodd" clip-rule="evenodd" d="M20.5478 4.88431C20.7459 5.12767 20.8468 5.45604 21.0488 6.11279L25.4609 20.46C23.8296 19.6223 22.0562 19.0182 20.186 18.6922L17.3133 9.08258C17.2663 8.92534 17.1204 8.81748 16.9548 8.81748C16.7887 8.81748 16.6425 8.92591 16.5959 9.08369L13.758 18.6873C11.8791 19.0118 10.0977 19.6171 8.45947 20.4578L12.8932 6.10946C13.0958 5.45384 13.1971 5.12604 13.3951 4.88313C13.5699 4.66869 13.7973 4.50214 14.0556 4.39937C14.3482 4.28296 14.6945 4.28296 15.3871 4.28296H18.5539C19.2474 4.28296 19.5941 4.28296 19.887 4.39961C20.1455 4.50324 20.373 4.66948 20.5478 4.88431Z" fill="#1C1B1F"/>
<path fill-rule="evenodd" clip-rule="evenodd" d="M21.0756 21.1428C20.3482 21.7585 18.8965 22.1783 17.2243 22.1783C15.1719 22.1783 13.4516 21.5458 12.9951 20.6952C12.8319 21.1827 12.7954 21.7407 12.7954 22.0971C12.7954 22.0971 12.6878 23.8474 13.9176 25.0646C13.9176 24.4325 14.4352 23.9202 15.0737 23.9202C16.1682 23.9202 16.1669 24.8653 16.1659 25.6322C16.1659 25.6551 16.1659 25.6779 16.1659 25.7005C16.1659 26.8645 16.8845 27.8622 17.9065 28.283C17.7539 27.9722 17.6683 27.623 17.6683 27.2544C17.6683 26.1442 18.3266 25.7308 19.0918 25.2504C19.7006 24.8681 20.377 24.4436 20.8432 23.5916C21.0865 23.1471 21.2246 22.6381 21.2246 22.0971C21.2246 21.7644 21.1724 21.4438 21.0756 21.1428Z" fill="#1C1B1F"/>
</svg>
