<svg width="32" height="32" viewBox="0 0 32 32" fill="none" xmlns="http://www.w3.org/2000/svg">
<path fill-rule="evenodd" clip-rule="evenodd" d="M20.7838 0.801803C21.0479 1.12628 21.1825 1.56411 21.4518 2.43977L27.3345 21.5694C25.1596 20.4525 22.795 19.6469 20.3014 19.2123L16.4712 6.39949C16.4085 6.18984 16.214 6.04602 15.9931 6.04602C15.7717 6.04602 15.5768 6.1906 15.5146 6.40097L11.7308 19.2059C9.22558 19.6385 6.85034 20.4455 4.66602 21.5665L10.5776 2.43533C10.8477 1.56118 10.9828 1.1241 11.2468 0.800225C11.4799 0.514303 11.7831 0.292247 12.1275 0.155216C12.5176 0 12.9794 0 13.9028 0H18.1252C19.0499 0 19.5122 0 19.9027 0.155541C20.2474 0.293702 20.5507 0.51536 20.7838 0.801803Z" fill="#111827"/>
<path fill-rule="evenodd" clip-rule="evenodd" d="M21.4873 22.4798C20.5175 23.3006 18.5819 23.8605 16.3522 23.8605C13.6157 23.8605 11.322 23.0171 10.7134 21.8829C10.4958 22.533 10.447 23.2769 10.447 23.7521C10.447 23.7521 10.3037 26.0859 11.9433 27.7088C11.9433 26.866 12.6335 26.183 13.4849 26.183C14.9441 26.183 14.9425 27.4431 14.9411 28.4656C14.9411 28.4962 14.9411 28.5266 14.9411 28.5567C14.9411 30.1087 15.8993 31.439 17.262 32C17.0584 31.5856 16.9442 31.1201 16.9442 30.6285C16.9442 29.1483 17.8221 28.5971 18.8423 27.9565C19.654 27.4469 20.5559 26.8808 21.1775 25.7449C21.5018 25.1522 21.686 24.4735 21.686 23.7521C21.686 23.3085 21.6164 22.881 21.4873 22.4798Z" fill="#111827"/>
</svg>
