<svg width="33" height="33" viewBox="0 0 33 33" fill="none" xmlns="http://www.w3.org/2000/svg">
<path fill-rule="evenodd" clip-rule="evenodd" d="M20.5478 5.02579C20.7459 5.26915 20.8468 5.59752 21.0488 6.25427L25.4609 20.6015C23.8296 19.7638 22.0562 19.1596 20.186 18.8337L17.3133 9.22406C17.2663 9.06682 17.1204 8.95896 16.9548 8.95896C16.7887 8.95896 16.6425 9.06739 16.5959 9.22517L13.758 18.8288C11.8791 19.1533 10.0977 19.7586 8.45947 20.5993L12.8932 6.25094C13.0958 5.59532 13.1971 5.26752 13.3951 5.02461C13.5699 4.81017 13.7973 4.64362 14.0556 4.54085C14.3482 4.42444 14.6945 4.42444 15.3871 4.42444H18.5539C19.2474 4.42444 19.5941 4.42444 19.887 4.54109C20.1455 4.64471 20.373 4.81096 20.5478 5.02579Z" fill="#1C1B1F"/>
<path fill-rule="evenodd" clip-rule="evenodd" d="M21.0756 21.2843C20.3482 21.8999 18.8965 22.3198 17.2243 22.3198C15.1719 22.3198 13.4516 21.6873 12.9951 20.8367C12.8319 21.3242 12.7954 21.8822 12.7954 22.2386C12.7954 22.2386 12.6878 23.9889 13.9176 25.2061C13.9176 24.574 14.4352 24.0617 15.0737 24.0617C16.1682 24.0617 16.1669 25.0068 16.1659 25.7736C16.1659 25.7966 16.1659 25.8194 16.1659 25.842C16.1659 27.006 16.8845 28.0037 17.9065 28.4245C17.7539 28.1136 17.6683 27.7645 17.6683 27.3958C17.6683 26.2857 18.3266 25.8723 19.0918 25.3918C19.7006 25.0096 20.377 24.5851 20.8432 23.7331C21.0865 23.2886 21.2246 22.7796 21.2246 22.2386C21.2246 21.9059 21.1724 21.5852 21.0756 21.2843Z" fill="#1C1B1F"/>
</svg>
