<svg width="32" height="32" viewBox="0 0 32 32" fill="none" xmlns="http://www.w3.org/2000/svg">
<path fill-rule="evenodd" clip-rule="evenodd" d="M29.8129 24.0799C27.0352 28.8182 21.8892 32 16 32C7.16344 32 0 24.8365 0 16C0 7.16341 7.16344 -3.05176e-05 16 -3.05176e-05C24.8366 -3.05176e-05 32 7.16341 32 16C32 17.6547 31.7488 19.2507 31.2825 20.752C30.6432 21.6917 29.7126 22.2518 28.3323 22.2518C26.8788 22.2518 25.924 21.6307 25.2829 20.5994C24.6045 19.5081 24.2549 17.9061 24.2549 15.9985V8.74507C24.2549 8.19278 23.8072 7.74507 23.2549 7.74507C22.7026 7.74507 22.2549 8.19278 22.2549 8.74507V10.6123C20.7414 8.85653 18.5011 7.74506 16.0012 7.74506C11.4429 7.74506 7.74778 11.4402 7.74778 15.9984C7.74778 20.5567 11.4429 24.2518 16.0012 24.2518C18.934 24.2518 21.5095 22.7221 22.9734 20.417C23.1429 20.8562 23.3455 21.2712 23.5843 21.6553C24.5752 23.2492 26.1591 24.2518 28.3323 24.2518C28.8607 24.2518 29.3543 24.1926 29.8129 24.0799ZM16.0012 9.74506C12.5475 9.74506 9.74778 12.5448 9.74778 15.9984C9.74778 19.4521 12.5475 22.2518 16.0012 22.2518C19.4548 22.2518 22.2546 19.4521 22.2546 15.9984C22.2546 12.5448 19.4548 9.74506 16.0012 9.74506Z" fill="#111827"/>
</svg>
