<svg width="33" height="33" viewBox="0 0 33 33" fill="none" xmlns="http://www.w3.org/2000/svg">
<path fill-rule="evenodd" clip-rule="evenodd" d="M27.1423 22.6379C25.0215 26.0287 21.254 28.2842 16.9598 28.2842C10.3316 28.2842 4.9585 22.911 4.9585 16.2829C4.9585 9.6548 10.3316 4.28165 16.9598 4.28165C23.5879 4.28165 28.961 9.6548 28.961 16.2829C28.961 17.0158 28.8953 17.7333 28.7695 18.4299C28.6491 18.8832 28.4865 19.2768 28.285 19.6009C27.8478 20.3042 27.2103 20.7224 26.21 20.7224C25.2097 20.7224 24.5721 20.3042 24.1349 19.6009C23.6604 18.8377 23.4016 17.6888 23.4016 16.2818V10.8412C23.4016 10.2889 22.9538 9.84118 22.4016 9.84118C21.8493 9.84118 21.4016 10.2889 21.4016 10.8412V11.6169C20.2461 10.5166 18.6823 9.84117 16.9608 9.84117C13.4037 9.84117 10.5202 12.7247 10.5202 16.2818C10.5202 19.8388 13.4037 22.7224 16.9608 22.7224C19.0834 22.7224 20.9663 21.6955 22.1396 20.1115C22.2292 20.3002 22.3279 20.4824 22.4364 20.6568C23.2233 21.9227 24.49 22.7224 26.21 22.7224C26.5372 22.7224 26.848 22.6935 27.1423 22.6379ZM16.9608 11.8412C14.5083 11.8412 12.5202 13.8293 12.5202 16.2818C12.5202 18.7343 14.5083 20.7224 16.9608 20.7224C19.4133 20.7224 21.4014 18.7343 21.4014 16.2818C21.4014 13.8293 19.4133 11.8412 16.9608 11.8412Z" fill="#1C1B1F"/>
</svg>
