<svg width="33" height="33" viewBox="0 0 33 33" fill="none" xmlns="http://www.w3.org/2000/svg">
<path fill-rule="evenodd" clip-rule="evenodd" d="M9.38671 12.5541C9.7465 13.3536 10.2312 14.2167 10.8289 15.1118C11.4755 14.3263 12.1862 13.5425 12.9529 12.7758C13.7197 12.009 14.5035 11.2983 15.289 10.6517C14.3939 10.0539 13.5308 9.56925 12.7313 9.20947C11.7102 8.74998 10.8428 8.51693 10.1739 8.48053C9.5044 8.4441 9.15119 8.60593 8.96718 8.78993C8.78317 8.97394 8.62135 9.32715 8.65778 9.99669C8.69418 10.6656 8.92722 11.533 9.38671 12.5541ZM7.56287 13.3748C8.049 14.4551 8.72083 15.6085 9.55087 16.7828C8.72083 17.9571 8.049 19.1106 7.56287 20.1909C7.04515 21.3414 6.71521 22.4591 6.66073 23.4603C6.60629 24.4609 6.82571 25.4627 7.55297 26.19C8.28023 26.9172 9.28204 27.1366 10.2826 27.0822C11.2838 27.0277 12.4016 26.6978 13.552 26.1801C14.6323 25.6939 15.7858 25.0221 16.9601 24.192C18.1344 25.022 19.2878 25.6938 20.368 26.18C21.5185 26.6977 22.6363 27.0276 23.6375 27.0821C24.638 27.1365 25.6399 26.9171 26.3671 26.1899C27.0944 25.4626 27.3138 24.4608 27.2593 23.4602C27.2049 22.459 26.8749 21.3413 26.3572 20.1908C25.8711 19.1105 25.1993 17.9571 24.3693 16.7828C25.1993 15.6086 25.8711 14.4552 26.3572 13.3749C26.8749 12.2244 27.2049 11.1066 27.2593 10.1054C27.3138 9.10488 27.0944 8.10307 26.3671 7.37581C25.6399 6.64855 24.638 6.42913 23.6375 6.48358C22.6363 6.53805 21.5185 6.868 20.368 7.38571C19.2878 7.87183 18.1344 8.54363 16.9601 9.37364C15.7858 8.54359 14.6323 7.87176 13.552 7.38562C12.4016 6.86791 11.2838 6.53797 10.2826 6.48349C9.28204 6.42904 8.28023 6.64846 7.55297 7.37572C6.82571 8.10298 6.60629 9.10479 6.66073 10.1054C6.71521 11.1066 7.04515 12.2243 7.56287 13.3748ZM12.7313 24.3562C13.5308 23.9964 14.3939 23.5117 15.289 22.914C14.5035 22.2674 13.7197 21.5567 12.9529 20.7899C12.1862 20.0232 11.4755 19.2394 10.8289 18.4539C10.2312 19.349 9.7465 20.2121 9.38671 21.0116C8.92722 22.0327 8.69418 22.9001 8.65778 23.569C8.62135 24.2385 8.78317 24.5917 8.96718 24.7757C9.15119 24.9598 9.5044 25.1216 10.1739 25.0851C10.8428 25.0487 11.7102 24.8157 12.7313 24.3562ZM14.3672 19.3757C15.2255 20.234 16.0984 21.0097 16.9601 21.6931C17.8218 21.0098 18.6946 20.2341 19.5529 19.3758C20.4113 18.5174 21.187 17.6445 21.8703 16.7828C21.187 15.9211 20.4113 15.0483 19.5529 14.1899C18.6946 13.3316 17.8218 12.5559 16.9601 11.8726C16.0984 12.5559 15.2255 13.3316 14.3672 14.19C13.5088 15.0483 12.7332 15.9212 12.0498 16.7828C12.7332 17.6445 13.5088 18.5173 14.3672 19.3757ZM21.1888 24.3561C20.3893 23.9964 19.5262 23.5117 18.6312 22.914C19.4166 22.2674 20.2004 21.5567 20.9671 20.79C21.7339 20.0232 22.4446 19.2394 23.0912 18.4539C23.6889 19.349 24.1736 20.212 24.5334 21.0115C24.9929 22.0326 25.2259 22.9 25.2623 23.5689C25.2987 24.2384 25.1369 24.5917 24.9529 24.7757C24.7689 24.9597 24.4157 25.1215 23.7462 25.0851C23.0773 25.0487 22.2099 24.8156 21.1888 24.3561ZM24.5334 12.5542C24.1736 13.3537 23.6889 14.2167 23.0912 15.1118C22.4446 14.3263 21.7339 13.5425 20.9671 12.7757C20.2004 12.009 19.4166 11.2983 18.6312 10.6517C19.5262 10.054 20.3893 9.56933 21.1888 9.20956C22.2099 8.75007 23.0773 8.51702 23.7462 8.48062C24.4157 8.44419 24.7689 8.60602 24.9529 8.79002C25.1369 8.97403 25.2987 9.32724 25.2623 9.99678C25.2259 10.6657 24.9929 11.5331 24.5334 12.5542ZM18.2308 16.7828C18.2308 17.4857 17.6609 18.0556 16.958 18.0556C16.255 18.0556 15.6852 17.4857 15.6852 16.7828C15.6852 16.0799 16.255 15.51 16.958 15.51C17.6609 15.51 18.2308 16.0799 18.2308 16.7828Z" fill="#1C1B1F"/>
</svg>
