<svg width="32" height="33" viewBox="0 0 32 33" fill="none" xmlns="http://www.w3.org/2000/svg">
<path fill-rule="evenodd" clip-rule="evenodd" d="M3.23894 9.93664C3.92541 11.4621 4.88266 13.1193 6.07921 14.8302C7.24007 13.3702 8.54537 11.9054 9.97545 10.4753C11.4056 9.04519 12.8704 7.73986 14.3304 6.57898C12.6195 5.38242 10.9624 4.42517 9.43688 3.73869C7.75195 2.98047 6.27768 2.57532 5.09823 2.51114C3.91815 2.44693 3.15071 2.7253 2.68813 3.18788C2.22554 3.65046 1.94717 4.4179 2.01138 5.59799C2.07556 6.77743 2.48072 8.2517 3.23894 9.93664ZM1.41509 10.7574C2.22913 12.5663 3.3784 14.5144 4.81244 16.5C3.3784 18.4855 2.22913 20.4336 1.41509 22.2426C0.598647 24.0569 0.0965958 25.7815 0.0143373 27.2933C-0.0678861 28.8044 0.268077 30.2204 1.27391 31.2263C2.27975 32.2321 3.69579 32.5681 5.2069 32.4859C6.71865 32.4036 8.44329 31.9015 10.2576 31.0851C12.0666 30.2711 14.0147 29.1218 16.0002 27.6877C17.9858 29.1217 19.9338 30.271 21.7427 31.085C23.557 31.9014 25.2817 32.4035 26.7934 32.4858C28.3045 32.568 29.7206 32.232 30.7264 31.2262C31.7323 30.2203 32.0682 28.8043 31.986 27.2932C31.9037 25.7814 31.4017 24.0568 30.5852 22.2425C29.7712 20.4335 28.622 18.4855 27.188 16.5C28.622 14.5144 29.7712 12.5664 30.5852 10.7575C31.4017 8.94314 31.9037 7.2185 31.986 5.70675C32.0682 4.19564 31.7323 2.7796 30.7264 1.77376C29.7206 0.767928 28.3045 0.431966 26.7934 0.51419C25.2817 0.596449 23.557 1.0985 21.7427 1.91495C19.9338 2.72897 17.9858 3.87821 16.0002 5.31221C14.0147 3.87816 12.0666 2.72889 10.2576 1.91485C8.44329 1.0984 6.71865 0.596351 5.2069 0.514093C3.69579 0.43187 2.27975 0.767832 1.27391 1.77367C0.268077 2.7795 -0.0678861 4.19555 0.0143373 5.70665C0.0965958 7.21841 0.598647 8.94304 1.41509 10.7574ZM9.43688 29.2613C10.9624 28.5748 12.6195 27.6175 14.3304 26.421C12.8704 25.2601 11.4056 23.9548 9.97545 22.5246C8.54537 21.0946 7.24007 19.6297 6.07921 18.1698C4.88266 19.8807 3.92541 21.5378 3.23894 23.0633C2.48072 24.7482 2.07556 26.2225 2.01138 27.402C1.94717 28.582 2.22554 29.3495 2.68813 29.8121C3.15071 30.2746 3.91815 30.553 5.09823 30.4888C6.27768 30.4246 7.75195 30.0195 9.43688 29.2613ZM11.3897 21.1104C12.9132 22.634 14.4679 24.0008 16.0002 25.1894C17.5326 24.0008 19.0872 22.634 20.6107 21.1105C22.1342 19.587 23.501 18.0323 24.6896 16.5C23.501 14.9676 22.1342 13.4129 20.6107 11.8894C19.0872 10.3659 17.5326 8.99912 16.0002 7.81056C14.4679 8.99914 12.9132 10.366 11.3897 11.8895C9.86617 13.413 8.49936 14.9676 7.31079 16.5C8.49936 18.0323 9.86617 19.5869 11.3897 21.1104ZM22.5635 29.2612C21.038 28.5747 19.3809 27.6175 17.6701 26.421C19.13 25.2601 20.5948 23.9548 22.0249 22.5247C23.455 21.0946 24.7603 19.6298 25.9212 18.1698C27.1177 19.8806 28.0749 21.5377 28.7614 23.0632C29.5196 24.7481 29.9248 26.2224 29.989 27.4019C30.0532 28.5819 29.7748 29.3494 29.3122 29.812C28.8496 30.2745 28.0822 30.5529 26.9021 30.4887C25.7227 30.4245 24.2484 30.0194 22.5635 29.2612ZM28.7614 9.93674C28.0749 11.4622 27.1177 13.1193 25.9212 14.8301C24.7603 13.3702 23.455 11.9053 22.0249 10.4752C20.5948 9.04514 19.13 7.73984 17.6701 6.57898C19.3809 5.38247 21.038 4.42525 22.5635 3.73879C24.2484 2.98057 25.7227 2.57541 26.9021 2.51124C28.0822 2.44703 28.8496 2.7254 29.3122 3.18798C29.7748 3.65056 30.0532 4.418 29.989 5.59809C29.9248 6.77753 29.5196 8.2518 28.7614 9.93674ZM18.0472 16.4998C18.0472 17.6326 17.1289 18.5508 15.9962 18.5508C14.8635 18.5508 13.9452 17.6326 13.9452 16.4998C13.9452 15.3671 14.8635 14.4489 15.9962 14.4489C17.1289 14.4489 18.0472 15.3671 18.0472 16.4998Z" fill="#111827"/>
</svg>
