<svg width="32" height="33" viewBox="0 0 32 33" fill="none" xmlns="http://www.w3.org/2000/svg">
<path fill-rule="evenodd" clip-rule="evenodd" d="M4.74951 4.25C4.19723 4.25 3.74951 4.69772 3.74951 5.25V11.2499C3.74951 11.8022 4.19723 12.2499 4.74951 12.2499C5.3018 12.2499 5.74951 11.8022 5.74951 11.2499V6.25H10.7494C11.3017 6.25 11.7494 5.80228 11.7494 5.25C11.7494 4.69772 11.3017 4.25 10.7494 4.25H4.74951ZM21.2495 4.25009C20.6972 4.25009 20.2495 4.69781 20.2495 5.25009C20.2495 5.80238 20.6972 6.25009 21.2495 6.25009H26.2494V11.25C26.2494 11.8023 26.6972 12.25 27.2494 12.25C27.8017 12.25 28.2494 11.8023 28.2494 11.25V5.25009C28.2494 4.69781 27.8017 4.25009 27.2494 4.25009H21.2495ZM4.74951 20.7501C5.3018 20.7501 5.74951 21.1978 5.74951 21.7501V26.75H10.7494C11.3017 26.75 11.7494 27.1977 11.7494 27.75C11.7494 28.3023 11.3017 28.75 10.7494 28.75H4.74951C4.19723 28.75 3.74951 28.3023 3.74951 27.75V21.7501C3.74951 21.1978 4.19723 20.7501 4.74951 20.7501ZM28.2498 21.75C28.2498 21.1977 27.8021 20.75 27.2498 20.75C26.6975 20.75 26.2498 21.1977 26.2498 21.75V26.7499H21.2499C20.6976 26.7499 20.2499 27.1976 20.2499 27.7499C20.2499 28.3022 20.6976 28.7499 21.2499 28.7499H27.2498C27.8021 28.7499 28.2498 28.3022 28.2498 27.7499V21.75Z" fill="#111827"/>
<path fill-rule="evenodd" clip-rule="evenodd" d="M15.9998 17.9139L5.45664 28.4571C5.06612 28.8476 4.43295 28.8476 4.04243 28.4571C3.6519 28.0666 3.6519 27.4334 4.04243 27.0429L14.5853 16.5L4.04241 5.95713C3.65188 5.56661 3.65188 4.93344 4.0424 4.54292C4.43293 4.15239 5.06609 4.15239 5.45662 4.54292L15.9998 15.0861L26.543 4.54289C26.9335 4.15237 27.5667 4.15237 27.9572 4.54289C28.3477 4.93342 28.3477 5.56658 27.9572 5.95711L17.4143 16.5L27.9571 27.0428C28.3477 27.4333 28.3477 28.0665 27.9571 28.457C27.5666 28.8475 26.9334 28.8475 26.5429 28.457L15.9998 17.9139Z" fill="#111827"/>
</svg>
