<svg width="32" height="33" viewBox="0 0 32 33" fill="none" xmlns="http://www.w3.org/2000/svg">
<path fill-rule="evenodd" clip-rule="evenodd" d="M16.3905 25.8115C16.1334 28.6211 13.6466 30.8255 10.6169 30.8255C7.48845 30.8255 4.93897 28.4752 4.82525 25.5352C5.82134 25.4955 6.78987 25.155 7.59801 24.5479C8.64646 23.7603 9.33908 22.5884 9.52351 21.2901C9.60119 20.7433 9.22089 20.2371 8.67409 20.1594C8.1273 20.0817 7.62107 20.462 7.54339 21.0088C7.43356 21.782 7.02111 22.4798 6.39675 22.9489C5.77501 23.4159 4.99384 23.618 4.22383 23.5112C1.75133 22.5167 0.000976562 20.0508 0.000976562 17.1663C0.000976562 14.3188 1.70669 11.8792 4.12898 10.8603C3.74357 10.0768 3.52833 9.20285 3.52833 8.28125C3.52833 4.90754 6.4127 2.17261 9.97075 2.17261C13.423 2.17261 16.241 4.74725 16.4056 7.98193H16.4136V19.3331C15.1602 18.0878 13.4648 17.3885 11.6974 17.3885C11.1451 17.3885 10.6974 17.8362 10.6974 18.3885C10.6974 18.9408 11.1451 19.3885 11.6974 19.3885C12.9416 19.3885 14.1348 19.8827 15.0146 20.7625C15.8944 21.6423 16.3886 22.8355 16.3886 24.0797V25.7058C16.3886 25.7415 16.3905 25.7768 16.3941 25.8115H16.3905ZM11.1674 9.40796C11.7197 9.40796 12.1674 9.85567 12.1674 10.408V11.4726C12.1674 12.7261 11.6694 13.9283 10.7831 14.8147C9.8967 15.701 8.69453 16.199 7.44102 16.199C6.88873 16.199 6.44102 15.7513 6.44102 15.199C6.44102 14.6467 6.88873 14.199 7.44102 14.199C8.16409 14.199 8.85756 13.9118 9.36885 13.4005C9.88014 12.8892 10.1674 12.1957 10.1674 11.4726V10.408C10.1674 9.85567 10.6151 9.40796 11.1674 9.40796ZM25.0261 8.25617C25.0261 9.05376 24.3795 9.70033 23.582 9.70033C23.1724 9.70033 22.8027 9.52988 22.5399 9.25606H18.6012C18.0489 9.25606 17.6012 8.80835 17.6012 8.25606C17.6012 7.70378 18.0489 7.25606 18.6012 7.25606H22.5401C22.8029 6.98237 23.1726 6.81202 23.582 6.81202C24.3795 6.81202 25.0261 7.45859 25.0261 8.25617ZM23.252 10.4552C23.4313 10.1483 23.76 9.95961 24.1155 9.95961H27.6617C27.9244 9.68621 28.2938 9.51606 28.703 9.51606C29.5006 9.51606 30.1471 10.1626 30.1471 10.9602C30.1471 11.7578 29.5006 12.4044 28.703 12.4044C28.2932 12.4044 27.9233 12.2337 27.6605 11.9596H24.6895L23.176 14.5507C22.9967 14.8576 22.668 15.0463 22.3125 15.0463H18.6012C18.0489 15.0463 17.6012 14.5986 17.6012 14.0463C17.6012 13.494 18.0489 13.0463 18.6012 13.0463H21.7385L23.252 10.4552ZM18.6012 17.2745C18.0489 17.2745 17.6012 17.7223 17.6012 18.2745C17.6012 18.8268 18.0489 19.2745 18.6012 19.2745H22.5399C22.8027 19.5484 23.1724 19.7188 23.582 19.7188C24.3795 19.7188 25.0261 19.0722 25.0261 18.2747C25.0261 17.4771 24.3795 16.8305 23.582 16.8305C23.1726 16.8305 22.8029 17.0009 22.5401 17.2745H18.6012ZM29.111 20.0312L27.6502 21.4675H18.6012C18.0489 21.4675 17.6012 21.9153 17.6012 22.4675C17.6012 23.0198 18.0489 23.4675 18.6012 23.4675H28.0595C28.3218 23.4675 28.5735 23.3645 28.7606 23.1806L30.5021 21.4682C30.5197 21.4689 30.5374 21.4692 30.5552 21.4692C31.3527 21.4692 31.9993 20.8226 31.9993 20.025C31.9993 19.2275 31.3527 18.5809 30.5552 18.5809C29.7576 18.5809 29.111 19.2275 29.111 20.025L29.111 20.0312ZM18.6012 24.7284C18.0489 24.7284 17.6012 25.1761 17.6012 25.7284C17.6012 26.2807 18.0489 26.7284 18.6012 26.7284H24.5439C24.8068 27.0023 25.1766 27.1729 25.5862 27.1729C26.3838 27.1729 27.0303 26.5263 27.0303 25.7287C27.0303 24.9311 26.3838 24.2846 25.5862 24.2846C25.1769 24.2846 24.8074 24.4548 24.5446 24.7284H18.6012Z" fill="#111827"/>
</svg>
