<svg width="32" height="32" viewBox="0 0 32 32" fill="none" xmlns="http://www.w3.org/2000/svg">
<path fill-rule="evenodd" clip-rule="evenodd" d="M9.01803 13.3819C9.01803 13.7757 9.06061 14.095 9.13511 14.3291C9.22025 14.5633 9.32668 14.8187 9.47568 15.0954C9.52889 15.1806 9.55018 15.2657 9.55018 15.3402C9.55018 15.4466 9.48632 15.5531 9.34796 15.6595L8.67746 16.1065C8.58168 16.1704 8.48589 16.2023 8.40075 16.2023C8.29432 16.2023 8.18789 16.1491 8.08146 16.0533C7.93246 15.8936 7.80475 15.7233 7.69832 15.5531C7.59189 15.3721 7.48546 15.1699 7.36839 14.9251C6.53825 15.9043 5.49524 16.3939 4.23939 16.3939C3.34539 16.3939 2.63231 16.1384 2.11081 15.6276C1.58931 15.1167 1.32324 14.4356 1.32324 13.5841C1.32324 12.6795 1.64253 11.9451 2.29174 11.3917C2.94096 10.8383 3.80303 10.5616 4.89924 10.5616C5.2611 10.5616 5.6336 10.5935 6.02739 10.6467C6.42117 10.6999 6.8256 10.7851 7.25132 10.8808V10.1039C7.25132 9.29506 7.08103 8.73099 6.7511 8.40106C6.41053 8.07113 5.83582 7.91149 5.01632 7.91149C4.64382 7.91149 4.26067 7.95406 3.86689 8.04984C3.4731 8.14563 3.08996 8.2627 2.71746 8.4117C2.54717 8.4862 2.41946 8.52877 2.34496 8.55006C2.27046 8.57134 2.21724 8.58199 2.17467 8.58199C2.02567 8.58199 1.95117 8.47556 1.95117 8.25206V7.73056C1.95117 7.56027 1.97246 7.43256 2.02567 7.35806C2.07889 7.28356 2.17467 7.20906 2.32367 7.13456C2.69617 6.94299 3.14317 6.78334 3.66467 6.65563C4.18617 6.51727 4.7396 6.45341 5.32496 6.45341C6.59146 6.45341 7.51739 6.74077 8.11339 7.31549C8.69875 7.8902 8.99675 8.76292 8.99675 9.93363V13.3819H9.01803ZM4.69703 14.9996C5.04824 14.9996 5.4101 14.9358 5.79325 14.8081C6.17639 14.6803 6.51696 14.4462 6.80432 14.1269C6.9746 13.9247 7.10232 13.7012 7.16617 13.4458C7.23003 13.1903 7.2726 12.8817 7.2726 12.5198V12.0728C6.96396 11.9983 6.63403 11.9345 6.29346 11.8919C5.95289 11.8493 5.62296 11.8281 5.29303 11.8281C4.57996 11.8281 4.05846 11.9664 3.70724 12.2538C3.35603 12.5411 3.18574 12.9456 3.18574 13.4777C3.18574 13.9779 3.31346 14.3504 3.57953 14.6058C3.83496 14.8719 4.20746 14.9996 4.69703 14.9996ZM13.2433 16.1491C13.0517 16.1491 12.924 16.1171 12.8388 16.0426C12.7537 15.9788 12.6792 15.8298 12.6153 15.6276L10.1142 7.40063C10.0504 7.18777 10.0185 7.04942 10.0185 6.97491C10.0185 6.80463 10.1036 6.70884 10.2739 6.70884H11.3169C11.5191 6.70884 11.6575 6.74077 11.732 6.81527C11.8171 6.87913 11.881 7.02813 11.9448 7.23034L13.7328 14.2759L15.3931 7.23034C15.4463 7.01749 15.5102 6.87913 15.5953 6.81527C15.6805 6.75141 15.8295 6.70884 16.021 6.70884H16.8725C17.0747 6.70884 17.213 6.74077 17.2982 6.81527C17.3833 6.87913 17.4578 7.02813 17.5004 7.23034L19.182 14.3611L21.0232 7.23034C21.087 7.01749 21.1615 6.87913 21.236 6.81527C21.3212 6.75141 21.4595 6.70884 21.6511 6.70884H22.6409C22.8112 6.70884 22.907 6.79399 22.907 6.97491C22.907 7.02037 22.8992 7.06583 22.8903 7.11792L22.8857 7.1452C22.875 7.20906 22.8538 7.2942 22.8112 7.41127L20.2463 15.6382C20.1824 15.8511 20.1079 15.9894 20.0228 16.0533C19.9376 16.1171 19.7993 16.1597 19.6183 16.1597H18.703C18.5008 16.1597 18.3625 16.1278 18.2773 16.0533C18.1922 15.9788 18.1177 15.8404 18.0751 15.6276L16.4255 8.76292L14.7865 15.6169C14.7333 15.8298 14.6694 15.9681 14.5843 16.0426C14.4991 16.1171 14.3501 16.1491 14.1585 16.1491H13.2433ZM26.9193 16.4364C26.3659 16.4364 25.8125 16.3726 25.2803 16.2449C24.7482 16.1171 24.3331 15.9788 24.0564 15.8191C23.8861 15.7233 23.769 15.6169 23.7265 15.5211C23.6839 15.4253 23.6626 15.3189 23.6626 15.2231V14.6803C23.6626 14.4568 23.7478 14.3504 23.9074 14.3504C23.9713 14.3504 24.0351 14.3611 24.099 14.3823C24.1402 14.3961 24.1948 14.4187 24.2569 14.4445L24.2571 14.4446C24.2911 14.4587 24.3274 14.4737 24.365 14.4888C24.7269 14.6484 25.1207 14.7761 25.5358 14.8613C25.9615 14.9464 26.3765 14.989 26.8023 14.989C27.4728 14.989 27.9943 14.8719 28.3561 14.6378C28.718 14.4036 28.9095 14.0631 28.9095 13.6267C28.9095 13.3287 28.8138 13.0839 28.6222 12.8817C28.4306 12.6795 28.0688 12.4986 27.5473 12.3283L26.004 11.8493C25.2271 11.6046 24.6524 11.2427 24.3012 10.7638C23.95 10.2955 23.769 9.77399 23.769 9.22056C23.769 8.77356 23.8648 8.37977 24.0564 8.0392C24.248 7.69863 24.5034 7.40063 24.8227 7.16649C25.142 6.9217 25.5038 6.74077 25.9295 6.61306C26.3553 6.48534 26.8023 6.43213 27.2705 6.43213C27.5047 6.43213 27.7495 6.44277 27.9836 6.4747C28.2284 6.50663 28.4519 6.5492 28.6754 6.59177C28.8883 6.64499 29.0905 6.6982 29.282 6.76206C29.4736 6.82591 29.6226 6.88977 29.729 6.95363C29.878 7.03877 29.9845 7.12392 30.0483 7.2197C30.1122 7.30484 30.1441 7.42192 30.1441 7.57092V8.07113C30.1441 8.29463 30.059 8.4117 29.8993 8.4117C29.8142 8.4117 29.6758 8.36913 29.4949 8.28399C28.8883 8.00727 28.2071 7.86892 27.4515 7.86892C26.8448 7.86892 26.3659 7.9647 26.036 8.16692C25.706 8.36913 25.5358 8.67777 25.5358 9.11413C25.5358 9.41213 25.6422 9.66756 25.855 9.86977C26.0679 10.072 26.4617 10.2742 27.0258 10.4551L28.537 10.9341C29.3033 11.1788 29.8568 11.5194 30.1867 11.9558C30.5166 12.3921 30.6763 12.8923 30.6763 13.4458C30.6763 13.9034 30.5805 14.3185 30.3995 14.6803C30.208 15.0422 29.9525 15.3615 29.6226 15.6169C29.2927 15.883 28.8989 16.0746 28.4413 16.2129C27.9623 16.3619 27.4621 16.4364 26.9193 16.4364ZM28.9307 21.6087C25.4292 24.1949 20.3419 25.5678 15.9677 25.5678C9.83741 25.5678 4.31377 23.3009 0.141765 19.5333C-0.188164 19.2353 0.109836 18.8309 0.503622 19.065C5.0162 21.6832 10.5824 23.269 16.3402 23.269C20.2249 23.269 24.4926 22.4601 28.4199 20.7998C29.0052 20.5338 29.5054 21.183 28.9307 21.6087ZM26.2912 19.8101C27.43 19.6717 29.9417 19.3737 30.3887 19.9484C30.8357 20.5125 29.8885 22.8859 29.4628 23.9395C29.3351 24.2588 29.6118 24.3865 29.8992 24.1417C31.7723 22.5666 32.2619 19.2779 31.8787 18.799C31.4956 18.3307 28.2069 17.9263 26.2061 19.3311C25.8974 19.5546 25.9506 19.8526 26.2912 19.8101Z" fill="#111827"/>
</svg>
