<svg width="33" height="33" viewBox="0 0 33 33" fill="none" xmlns="http://www.w3.org/2000/svg">
<path fill-rule="evenodd" clip-rule="evenodd" d="M14.1569 5.11211C8.88158 6.3745 4.95996 11.1208 4.95996 16.783C4.95996 23.4104 10.3325 28.783 16.96 28.783C23.5874 28.783 28.96 23.4104 28.96 16.783C28.96 10.1555 23.5874 4.78296 16.96 4.78296C16.7754 4.78296 16.5918 4.78713 16.4092 4.79537C15.8879 6.06349 15.5275 7.44587 15.2229 8.85123C15.0431 9.68102 15.6941 10.4963 16.5812 10.4963C17.3428 10.4963 17.9602 9.87893 17.9602 9.11735V8.84859C17.9602 8.29631 18.4079 7.84859 18.9602 7.84859C19.5125 7.84859 19.9602 8.29631 19.9602 8.84859V9.11735C19.9602 10.9835 18.4474 12.4963 16.5812 12.4963C14.4571 12.4963 12.8103 10.5407 13.2683 8.42762C13.5032 7.34368 13.7815 6.21651 14.1569 5.11211ZM12.46 18.2829C13.2884 18.2829 13.96 17.6113 13.96 16.7829C13.96 15.9545 13.2884 15.2829 12.46 15.2829C11.6315 15.2829 10.96 15.9545 10.96 16.7829C10.96 17.6113 11.6315 18.2829 12.46 18.2829ZM21.46 18.2829C22.2884 18.2829 22.96 17.6113 22.96 16.7829C22.96 15.9545 22.2884 15.2829 21.46 15.2829C20.6315 15.2829 19.96 15.9545 19.96 16.7829C19.96 17.6113 20.6315 18.2829 21.46 18.2829ZM20.8301 22.6168C21.2904 22.3117 21.4162 21.6911 21.111 21.2308C20.8059 20.7705 20.1853 20.6447 19.725 20.9498C18.9054 21.4932 17.9438 21.783 16.9604 21.783C15.977 21.783 15.0153 21.4933 14.1957 20.9499C13.7353 20.6448 13.1148 20.7706 12.8097 21.231C12.5045 21.6913 12.6303 22.3118 13.0907 22.617C14.238 23.3775 15.5839 23.783 16.9604 23.783C18.3369 23.7829 19.6828 23.3773 20.8301 22.6168Z" fill="#1C1B1F"/>
</svg>
