<svg width="32" height="33" viewBox="0 0 32 33" fill="none" xmlns="http://www.w3.org/2000/svg">
<path fill-rule="evenodd" clip-rule="evenodd" d="M12.6448 0.852365C5.4191 2.39422 0 8.81426 0 16.5C0 25.3366 7.16344 32.5 16 32.5C24.8366 32.5 32 25.3366 32 16.5C32 7.66344 24.8366 0.5 16 0.5C15.6294 0.5 15.2617 0.512602 14.8974 0.537399C14.2231 2.21537 13.7538 4.02789 13.3582 5.85369C13.072 7.17396 14.1061 8.45107 15.495 8.45107C16.6946 8.45107 17.667 7.47866 17.667 6.27913V5.92078C17.667 5.36849 18.1147 4.92078 18.667 4.92078C19.2193 4.92078 19.667 5.36849 19.667 5.92078V6.27913C19.667 8.58323 17.7992 10.4511 15.495 10.4511C12.8691 10.4511 10.8393 8.03367 11.4035 5.43008C11.7297 3.92513 12.1168 2.36751 12.6448 0.852365ZM10 18.4998C11.1046 18.4998 12 17.6044 12 16.4998C12 15.3953 11.1046 14.4998 10 14.4998C8.89543 14.4998 8 15.3953 8 16.4998C8 17.6044 8.89543 18.4998 10 18.4998ZM22 18.4998C23.1046 18.4998 24 17.6044 24 16.4998C24 15.3953 23.1046 14.4998 22 14.4998C20.8954 14.4998 20 15.3953 20 16.4998C20 17.6044 20.8954 18.4998 22 18.4998ZM21.1601 24.2785C21.7739 23.8716 21.9416 23.0442 21.5348 22.4304C21.1279 21.8167 20.3005 21.6489 19.6867 22.0558C18.5939 22.7803 17.3117 23.1667 16.0005 23.1667C14.6893 23.1667 13.4072 22.7804 12.3143 22.056C11.7005 21.6491 10.8731 21.8169 10.4663 22.4307C10.0594 23.0445 10.2272 23.8719 10.841 24.2787C12.3707 25.2927 14.1653 25.8334 16.0006 25.8334C17.8359 25.8333 19.6304 25.2925 21.1601 24.2785Z" fill="#111827"/>
</svg>
