<svg width="34" height="32" viewBox="0 0 34 32" fill="none" xmlns="http://www.w3.org/2000/svg">
<path d="M5.57153 10.7144C5.57153 7.95293 7.81011 5.71436 10.5715 5.71436H23.4287C26.1901 5.71436 28.4287 7.95293 28.4287 10.7144V30.3573C28.4287 30.6334 28.2049 30.8573 27.9287 30.8573H6.07153C5.79539 30.8573 5.57153 30.6334 5.57153 30.3573V10.7144Z" fill="#111827" stroke="#111827" stroke-width="2"/>
<path d="M21.5716 5.71426V3.14282C21.5716 2.03825 20.6762 1.14282 19.5716 1.14282H14.4287C13.3241 1.14282 12.4287 2.03825 12.4287 3.14282V5.71426" stroke="#111827" stroke-width="2" stroke-linecap="round"/>
<path d="M5.57144 20.0212L3 20.0212C1.89543 20.0212 1 20.9166 1 22.0212L1 27.1641C1 28.2686 1.89543 29.1641 3 29.1641L5.57144 29.1641" stroke="#111827" stroke-width="2" stroke-linecap="round"/>
<path d="M28.4286 20.0212L31 20.0212C32.1046 20.0212 33 20.9166 33 22.0212L33 27.1641C33 28.2686 32.1046 29.1641 31 29.1641L28.4286 29.1641" stroke="#111827" stroke-width="2" stroke-linecap="round"/>
<path d="M24.0896 21.8721V20.8721H22.0896V21.8721H24.0896ZM22.0896 22.2115C22.0896 22.7638 22.5373 23.2115 23.0896 23.2115C23.6419 23.2115 24.0896 22.7638 24.0896 22.2115H22.0896ZM22.0896 21.8721V22.2115H24.0896V21.8721H22.0896Z" fill="#111827"/>
<path fill-rule="evenodd" clip-rule="evenodd" d="M12.1344 20.5548C15.2848 21.2407 18.8872 21.2552 22.0895 20.5124V22.2121C22.0895 22.7644 22.5372 23.2121 23.0895 23.2121C23.6418 23.2121 24.0895 22.7644 24.0895 22.2121V19.928C25.0386 19.5878 25.9289 19.1695 26.7333 18.6704C27.8947 17.9497 28.4287 16.5965 28.4287 15.2296V11.4144V10.7144C28.4287 7.95293 26.1901 5.71436 23.4287 5.71436H10.5715C7.81011 5.71436 5.57153 7.95293 5.57153 10.7144V11.4144V15.3168C5.57153 16.6323 6.06398 17.9398 7.17772 18.6397C8.04378 19.184 9.04428 19.6413 10.1344 20.007V22.2121C10.1344 22.7644 10.5822 23.2121 11.1344 23.2121C11.6867 23.2121 12.1344 22.7644 12.1344 22.2121V20.5548ZM12.1344 20.5548V17.831C12.1344 17.2787 11.6867 16.831 11.1344 16.831C10.5822 16.831 10.1344 17.2787 10.1344 17.831V20.007C10.7733 20.2214 11.443 20.4042 12.1344 20.5548ZM24.0895 19.928V17.831C24.0895 17.2787 23.6418 16.831 23.0895 16.831C22.5372 16.831 22.0895 17.2787 22.0895 17.831V20.5124C22.7775 20.3528 23.447 20.1583 24.0895 19.928Z" fill="#111827"/>
<path d="M12.1345 21.8721V20.8721H10.1345V21.8721H12.1345ZM10.1345 22.2115C10.1345 22.7638 10.5822 23.2115 11.1345 23.2115C11.6868 23.2115 12.1345 22.7638 12.1345 22.2115H10.1345ZM10.1345 21.8721V22.2115H12.1345V21.8721H10.1345Z" fill="#111827"/>
</svg>
