<svg width="33" height="33" viewBox="0 0 33 33" fill="none" xmlns="http://www.w3.org/2000/svg">
<path fill-rule="evenodd" clip-rule="evenodd" d="M27.96 7.00818H11.2313C10.885 7.00818 10.5633 7.18736 10.3811 7.48182L5.28426 15.7151C5.08542 16.0363 5.08456 16.4421 5.28204 16.7642L10.3816 25.0804C10.5634 25.3769 10.8863 25.5576 11.2341 25.5576H27.96C28.5122 25.5576 28.96 25.1099 28.96 24.5576V8.00818C28.96 7.45589 28.5122 7.00818 27.96 7.00818ZM22.265 12.7018C22.6555 13.0924 22.6555 13.7255 22.265 14.116L20.1944 16.1867L22.265 18.2573C22.6555 18.6478 22.6555 19.281 22.265 19.6715C21.8745 20.062 21.2413 20.062 20.8508 19.6715L18.7802 17.6009L16.7095 19.6715C16.319 20.062 15.6859 20.062 15.2953 19.6715C14.9048 19.281 14.9048 18.6478 15.2953 18.2573L17.366 16.1867L15.2953 14.116C14.9048 13.7255 14.9048 13.0924 15.2953 12.7018C15.6859 12.3113 16.319 12.3113 16.7095 12.7018L18.7802 14.7725L20.8508 12.7018C21.2413 12.3113 21.8745 12.3113 22.265 12.7018Z" fill="#1C1B1F"/>
</svg>
