<svg width="32" height="33" viewBox="0 0 32 33" fill="none" xmlns="http://www.w3.org/2000/svg">
<path fill-rule="evenodd" clip-rule="evenodd" d="M9.97923 2.89795H8.97923V3.89795V5.74762C8.97923 6.2999 9.42695 6.74762 9.97923 6.74762C10.5315 6.74762 10.9792 6.2999 10.9792 5.74762V4.89795H22.8941C23.4464 4.89795 23.8941 4.45023 23.8941 3.89795C23.8941 3.34566 23.4464 2.89795 22.8941 2.89795H9.97923ZM18.9035 16.9989C17.0024 18.4201 13.9256 19.3435 10.4533 19.3435C6.981 19.3435 3.90413 18.4201 2.00311 16.9989V18.7964V18.7965C2.00311 19.6824 2.67524 20.7046 4.24985 21.5634C5.78666 22.4017 7.97804 22.9511 10.4533 22.9511C12.9285 22.9511 15.1199 22.4017 16.6567 21.5634C18.2313 20.7046 18.9035 19.6824 18.9035 18.7965V18.7964V16.9989ZM0.00310898 13.7822V18.7964V18.7965V23.9511C0.00310898 25.912 1.44648 27.4671 3.29215 28.4739C5.17564 29.5012 7.70934 30.1057 10.4533 30.1057C13.1972 30.1057 15.7309 29.5012 17.6144 28.4739C19.4601 27.4671 20.9035 25.912 20.9035 23.9511V18.7965V18.7964V13.7823C20.9055 13.7356 20.9066 13.6887 20.9066 13.6418C20.9066 10.4927 16.2265 7.93996 10.4533 7.93996C4.6801 7.93996 0 10.4927 0 13.6418C0 13.6887 0.00104029 13.7355 0.00310898 13.7822ZM2.00311 23.9511V22.4664C2.39705 22.7833 2.8321 23.0683 3.29215 23.3192C5.17564 24.3466 7.70934 24.9511 10.4533 24.9511C13.1972 24.9511 15.7309 24.3466 17.6144 23.3192C18.0745 23.0683 18.5095 22.7833 18.9035 22.4664V23.9511C18.9035 24.837 18.2313 25.8592 16.6567 26.7181C15.1199 27.5563 12.9285 28.1057 10.4533 28.1057C7.97804 28.1057 5.78666 27.5563 4.24985 26.7181C2.67524 25.8592 2.00311 24.837 2.00311 23.9511ZM28.0693 12.9434C28.6216 12.9434 29.0693 13.3911 29.0693 13.9434V23.8863V24.8863H28.0693H22.8863C22.334 24.8863 21.8863 24.4386 21.8863 23.8863C21.8863 23.334 22.334 22.8863 22.8863 22.8863H27.0693V13.9434C27.0693 13.3911 27.517 12.9434 28.0693 12.9434ZM23.2833 6.23386C23.6672 6.16652 24.061 6.18159 24.4386 6.27809C24.7221 5.72439 25.274 4.94194 25.7787 4.57825C26.2834 4.21456 26.8672 3.97599 27.4822 3.88221C28.0971 3.78842 28.7255 3.8421 29.3156 4.03883C29.9058 4.23555 30.4407 4.56969 30.8764 5.0137C31.312 5.45771 31.6359 5.99889 31.8214 6.59265C32.0069 7.1864 32.0486 7.81573 31.9432 8.42878C31.8378 9.04183 31.5882 9.62105 31.2149 10.1187C31.0142 10.3767 30.7883 10.6183 30.5651 10.8327C29.9256 11.4468 29.0405 11.6889 28.1539 11.6889H23.7555C23.3658 11.6885 22.9806 11.6052 22.6255 11.4446C22.2704 11.284 21.9535 11.0496 21.6959 10.7572C21.4383 10.4647 21.2459 10.1208 21.1313 9.7483C21.0168 9.37577 20.9828 8.98315 21.0316 8.59649C21.0805 8.20983 21.211 7.83797 21.4145 7.5056C21.618 7.17322 21.8899 6.88794 22.2121 6.66868C22.5343 6.44942 22.8994 6.3012 23.2833 6.23386Z" fill="#111827"/>
</svg>
