<svg width="34" height="33" viewBox="0 0 34 33" fill="none" xmlns="http://www.w3.org/2000/svg">
<path d="M5.57153 11.2144C5.57153 8.45293 7.81011 6.21436 10.5715 6.21436H23.4287C26.1901 6.21436 28.4287 8.45293 28.4287 11.2144V30.8573C28.4287 31.1334 28.2049 31.3573 27.9287 31.3573H6.07153C5.79539 31.3573 5.57153 31.1334 5.57153 30.8573V11.2144Z" fill="#111827" stroke="#111827" stroke-width="2"/>
<path d="M21.5716 6.21426V3.64282C21.5716 2.53825 20.6762 1.64282 19.5716 1.64282H14.4287C13.3241 1.64282 12.4287 2.53825 12.4287 3.64282V6.21426" stroke="#111827" stroke-width="2" stroke-linecap="round"/>
<path d="M5.57144 20.5212L3 20.5212C1.89543 20.5212 1 21.4166 1 22.5212L1 27.6641C1 28.7686 1.89543 29.6641 3 29.6641L5.57144 29.6641" stroke="#111827" stroke-width="2" stroke-linecap="round"/>
<path d="M28.4286 20.5212L31 20.5212C32.1046 20.5212 33 21.4166 33 22.5212L33 27.6641C33 28.7686 32.1046 29.6641 31 29.6641L28.4286 29.6641" stroke="#111827" stroke-width="2" stroke-linecap="round"/>
<path d="M24.0896 22.3721V21.3721H22.0896V22.3721H24.0896ZM22.0896 22.7115C22.0896 23.2638 22.5373 23.7115 23.0896 23.7115C23.6419 23.7115 24.0896 23.2638 24.0896 22.7115H22.0896ZM22.0896 22.3721V22.7115H24.0896V22.3721H22.0896Z" fill="#111827"/>
<path fill-rule="evenodd" clip-rule="evenodd" d="M12.1344 21.0548C15.2848 21.7407 18.8872 21.7552 22.0895 21.0124V22.7121C22.0895 23.2644 22.5372 23.7121 23.0895 23.7121C23.6418 23.7121 24.0895 23.2644 24.0895 22.7121V20.428C25.0386 20.0878 25.9289 19.6695 26.7333 19.1704C27.8947 18.4497 28.4287 17.0965 28.4287 15.7296V11.9144V11.2144C28.4287 8.45293 26.1901 6.21436 23.4287 6.21436H10.5715C7.81011 6.21436 5.57153 8.45293 5.57153 11.2144V11.9144V15.8168C5.57153 17.1323 6.06398 18.4398 7.17772 19.1397C8.04378 19.684 9.04428 20.1413 10.1344 20.507V22.7121C10.1344 23.2644 10.5822 23.7121 11.1344 23.7121C11.6867 23.7121 12.1344 23.2644 12.1344 22.7121V21.0548ZM12.1344 21.0548V18.331C12.1344 17.7787 11.6867 17.331 11.1344 17.331C10.5822 17.331 10.1344 17.7787 10.1344 18.331V20.507C10.7733 20.7214 11.443 20.9042 12.1344 21.0548ZM24.0895 20.428V18.331C24.0895 17.7787 23.6418 17.331 23.0895 17.331C22.5372 17.331 22.0895 17.7787 22.0895 18.331V21.0124C22.7775 20.8528 23.447 20.6583 24.0895 20.428Z" fill="#111827"/>
<path d="M12.1345 22.3721V21.3721H10.1345V22.3721H12.1345ZM10.1345 22.7115C10.1345 23.2638 10.5822 23.7115 11.1345 23.7115C11.6868 23.7115 12.1345 23.2638 12.1345 22.7115H10.1345ZM10.1345 22.3721V22.7115H12.1345V22.3721H10.1345Z" fill="#111827"/>
</svg>
