<svg width="32" height="32" viewBox="0 0 32 32" fill="none" xmlns="http://www.w3.org/2000/svg">
<path fill-rule="evenodd" clip-rule="evenodd" d="M31.0005 3.56586H8.04286C7.69654 3.56586 7.37488 3.74504 7.19259 4.0395L0.149247 15.4172C-0.0495973 15.7384 -0.0504568 16.1442 0.147027 16.4663L7.19315 27.9569C7.37498 28.2534 7.69781 28.4341 8.04564 28.4341H31.0005C31.5528 28.4341 32.0005 27.9864 32.0005 27.4341V4.56586C32.0005 4.01357 31.5528 3.56586 31.0005 3.56586ZM22.7844 11.4399C23.1749 11.8304 23.1749 12.4636 22.7844 12.8541L19.7675 15.871L22.7844 18.8878C23.1749 19.2783 23.1749 19.9115 22.7844 20.302C22.3939 20.6926 21.7607 20.6926 21.3702 20.302L18.3533 17.2852L15.3364 20.302C14.9459 20.6926 14.3128 20.6926 13.9222 20.302C13.5317 19.9115 13.5317 19.2783 13.9222 18.8878L16.9391 15.871L13.9222 12.8541C13.5317 12.4636 13.5317 11.8304 13.9222 11.4399C14.3128 11.0494 14.9459 11.0494 15.3364 11.4399L18.3533 14.4568L21.3702 11.4399C21.7607 11.0494 22.3939 11.0494 22.7844 11.4399Z" fill="#111827"/>
</svg>
