<svg width="33" height="33" viewBox="0 0 33 33" fill="none" xmlns="http://www.w3.org/2000/svg">
<path d="M8.38892 13.5688C8.38892 10.8074 10.6275 8.56885 13.3889 8.56885H20.5318C23.2932 8.56885 25.5318 10.8074 25.5318 13.5688V26.926C25.5318 27.2022 25.3079 27.426 25.0318 27.426H8.88892C8.61277 27.426 8.38892 27.2022 8.38892 26.926V13.5688Z" fill="white" stroke="#1C1B1F" stroke-width="2"/>
<path d="M20.3889 8.56871V7.14014C20.3889 6.03557 19.4935 5.14014 18.3889 5.14014H15.5317C14.4272 5.14014 13.5317 6.03557 13.5317 7.14014V8.56871" stroke="#1C1B1F" stroke-width="2" stroke-linecap="round"/>
<path d="M8.38878 19.2989L6.9602 19.2989C5.85563 19.2989 4.9602 20.1943 4.9602 21.2989L4.9602 24.156C4.96021 25.2606 5.85564 26.156 6.96021 26.156L8.38878 26.156" stroke="#1C1B1F" stroke-width="2" stroke-linecap="round"/>
<path d="M25.5316 19.2989L26.9602 19.2989C28.0648 19.2989 28.9602 20.1943 28.9602 21.2989L28.9602 24.156C28.9602 25.2606 28.0648 26.156 26.9602 26.156L25.5316 26.156" stroke="#1C1B1F" stroke-width="2" stroke-linecap="round"/>
<path d="M22.5273 20.687V19.687H20.5273V20.687H22.5273ZM20.5273 20.9416C20.5273 21.4939 20.9751 21.9416 21.5273 21.9416C22.0796 21.9416 22.5273 21.4939 22.5273 20.9416H20.5273ZM20.5273 20.687V20.9416H22.5273V20.687H20.5273Z" fill="#1C1B1F"/>
<path fill-rule="evenodd" clip-rule="evenodd" d="M13.561 19.7515C15.7806 20.1971 18.2743 20.205 20.5273 19.7231V20.9421C20.5273 21.4944 20.9751 21.9421 21.5273 21.9421C22.0796 21.9421 22.5273 21.4944 22.5273 20.9421V19.1364C22.9711 18.9661 23.3963 18.7723 23.7976 18.5544C24.9989 17.9023 25.5318 16.5371 25.5318 15.1702V12.8439C25.5318 10.4828 23.6178 8.56885 21.2568 8.56885H12.6639C10.3029 8.56885 8.38892 10.4828 8.38892 12.8439V15.2574C8.38892 16.5729 8.88268 17.8905 10.0363 18.5226C10.5051 18.7796 11.0169 19.0062 11.561 19.2016V20.9421C11.561 21.4944 12.0088 21.9421 12.561 21.9421C13.1133 21.9421 13.561 21.4944 13.561 20.9421V19.7515ZM13.561 19.7515V17.6562C13.561 17.104 13.1133 16.6562 12.561 16.6562C12.0088 16.6562 11.561 17.104 11.561 17.6562V19.2016C12.1898 19.4272 12.8618 19.6111 13.561 19.7515ZM22.5273 19.1364V17.6562C22.5273 17.104 22.0796 16.6562 21.5273 16.6562C20.9751 16.6562 20.5273 17.104 20.5273 17.6562V19.7231C21.2219 19.5746 21.8936 19.3795 22.5273 19.1364Z" fill="#1C1B1F"/>
<path d="M13.561 20.687V19.687H11.561V20.687H13.561ZM11.561 20.9416C11.561 21.4939 12.0088 21.9416 12.561 21.9416C13.1133 21.9416 13.561 21.4939 13.561 20.9416H11.561ZM11.561 20.687V20.9416H13.561V20.687H11.561Z" fill="#1C1B1F"/>
</svg>
