<svg width="32" height="32" viewBox="0 0 32 32" fill="none" xmlns="http://www.w3.org/2000/svg">
<path fill-rule="evenodd" clip-rule="evenodd" d="M12.327 4.14111C13.3394 3.12874 14.4464 2.56 15.8781 2.56C17.3098 2.56 18.6829 3.12874 19.6952 4.14111C20.7076 5.15342 21.2763 6.5264 21.2764 7.95802L10.7459 7.95801C10.7459 6.52639 11.3147 5.15342 12.327 4.14111ZM10.4456 7.95826L8.44557 7.95826V13.3007C8.44557 13.853 8.89328 14.3007 9.44557 14.3007C9.99785 14.3007 10.4456 13.853 10.4456 13.3007V7.95826ZM8.18587 7.95801C8.18594 5.84744 9.02439 3.82332 10.5168 2.33092C12.0093 0.838457 13.7674 0 15.8781 0C17.9888 0 20.013 0.838457 21.5054 2.33092C22.9978 3.82333 23.8363 5.84744 23.8364 7.95802L29.6922 7.95801C30.2445 7.95801 30.6922 8.40572 30.6922 8.95801V30.9997C30.6922 31.552 30.2445 31.9997 29.6922 31.9997H2.30786C1.75558 31.9997 1.30786 31.552 1.30786 30.9997V8.95801C1.30786 8.40572 1.75558 7.95801 2.30786 7.95801H8.18587ZM23.5565 7.95826H21.5565V13.3007C21.5565 13.853 22.0042 14.3007 22.5565 14.3007C23.1088 14.3007 23.5565 13.853 23.5565 13.3007V7.95826Z" fill="#111827"/>
</svg>
