<svg width="32" height="33" viewBox="0 0 32 33" fill="none" xmlns="http://www.w3.org/2000/svg">
<path fill-rule="evenodd" clip-rule="evenodd" d="M12.327 4.64111C13.3394 3.62874 14.4464 3.06 15.8781 3.06C17.3098 3.06 18.6829 3.62874 19.6952 4.64111C20.7076 5.65342 21.2763 7.0264 21.2764 8.45802L10.7459 8.45801C10.7459 7.02639 11.3147 5.65342 12.327 4.64111ZM10.4456 8.45826L8.44557 8.45826V13.8007C8.44557 14.353 8.89328 14.8007 9.44557 14.8007C9.99785 14.8007 10.4456 14.353 10.4456 13.8007V8.45826ZM8.18587 8.45801C8.18594 6.34744 9.02439 4.32332 10.5168 2.83092C12.0093 1.33846 13.7674 0.5 15.8781 0.5C17.9888 0.5 20.013 1.33846 21.5054 2.83092C22.9978 4.32333 23.8363 6.34744 23.8364 8.45802L29.6922 8.45801C30.2445 8.45801 30.6922 8.90572 30.6922 9.45801V31.4997C30.6922 32.052 30.2445 32.4997 29.6922 32.4997H2.30786C1.75558 32.4997 1.30786 32.052 1.30786 31.4997V9.45801C1.30786 8.90572 1.75558 8.45801 2.30786 8.45801H8.18587ZM23.5565 8.45826H21.5565V13.8007C21.5565 14.353 22.0042 14.8007 22.5565 14.8007C23.1088 14.8007 23.5565 14.353 23.5565 13.8007V8.45826Z" fill="#111827"/>
</svg>
