<svg width="33" height="33" viewBox="0 0 33 33" fill="none" xmlns="http://www.w3.org/2000/svg">
<path fill-rule="evenodd" clip-rule="evenodd" d="M13.9782 6.5182C14.7691 5.72729 15.8418 5.28296 16.9603 5.28296C18.0788 5.28296 19.1515 5.72729 19.9425 6.5182C20.7334 7.30912 21.1777 8.38183 21.1777 9.50035C21.1777 9.50036 21.1777 9.50036 21.1777 9.50037H12.7429C12.7429 9.50036 12.7429 9.50036 12.7429 9.50035C12.7429 8.38183 13.1873 7.30912 13.9782 6.5182ZM10.7429 9.50037C10.7429 9.50036 10.7429 9.50036 10.7429 9.50035C10.7429 7.8514 11.398 6.26998 12.564 5.10399C13.7299 3.938 15.3114 3.28296 16.9603 3.28296C18.6093 3.28296 20.1907 3.938 21.3567 5.10399C22.5227 6.26998 23.1777 7.8514 23.1777 9.50035C23.1777 9.50036 23.1777 9.50036 23.1777 9.50037H27.4385C27.9907 9.50037 28.4385 9.94808 28.4385 10.5004V27.283C28.4385 27.8353 27.9907 28.283 27.4385 28.283H6.48193C5.92965 28.283 5.48193 27.8353 5.48193 27.283V10.5004C5.48193 9.94808 5.92965 9.50037 6.48193 9.50037H10.7429Z" fill="#1C1B1F"/>
</svg>
