<svg width="32" height="32" viewBox="0 0 32 32" fill="none" xmlns="http://www.w3.org/2000/svg">
<path fill-rule="evenodd" clip-rule="evenodd" d="M12.183 4.14111C13.1954 3.12874 14.5685 2.56 16.0002 2.56C17.4319 2.56 18.805 3.12874 19.8173 4.14111C20.8297 5.15345 21.3984 6.52647 21.3984 7.95813H10.6019C10.602 6.52647 11.1707 5.15345 12.183 4.14111ZM8.04192 7.95813C8.04196 5.84751 8.88041 3.82335 10.3728 2.33092C11.8653 0.838457 13.8895 0 16.0002 0C18.1108 0 20.1351 0.838457 21.6275 2.33092C23.12 3.82335 23.9584 5.84751 23.9584 7.95813H29.6922C30.2445 7.95813 30.6922 8.40584 30.6922 8.95813V30.9999C30.6922 31.5521 30.2445 31.9999 29.6922 31.9999H2.30786C1.75558 31.9999 1.30786 31.5521 1.30786 30.9999V8.95813C1.30786 8.40584 1.75558 7.95813 2.30786 7.95813H8.04192Z" fill="#111827"/>
</svg>
