<svg width="32" height="33" viewBox="0 0 32 33" fill="none" xmlns="http://www.w3.org/2000/svg">
<path fill-rule="evenodd" clip-rule="evenodd" d="M12.183 4.64111C13.1954 3.62874 14.5685 3.06 16.0002 3.06C17.4319 3.06 18.805 3.62874 19.8173 4.64111C20.8297 5.65345 21.3984 7.02647 21.3984 8.45813H10.6019C10.602 7.02647 11.1707 5.65345 12.183 4.64111ZM8.04192 8.45813C8.04196 6.34751 8.88041 4.32335 10.3728 2.83092C11.8653 1.33846 13.8895 0.5 16.0002 0.5C18.1108 0.5 20.1351 1.33846 21.6275 2.83092C23.12 4.32335 23.9584 6.34751 23.9584 8.45813H29.6922C30.2445 8.45813 30.6922 8.90584 30.6922 9.45813V31.4999C30.6922 32.0521 30.2445 32.4999 29.6922 32.4999H2.30786C1.75558 32.4999 1.30786 32.0521 1.30786 31.4999V9.45813C1.30786 8.90584 1.75558 8.45813 2.30786 8.45813H8.04192Z" fill="#111827"/>
</svg>
