<svg width="32" height="33" viewBox="0 0 32 33" fill="none" xmlns="http://www.w3.org/2000/svg">
<path fill-rule="evenodd" clip-rule="evenodd" d="M28.3118 12.8119C28.3118 19.6142 22.8022 27.5862 15.9999 27.5862C9.19757 27.5862 3.68799 19.6142 3.68799 12.8119C3.68799 9.54659 4.98513 6.41501 7.29406 4.10607C9.60299 1.79714 12.7346 0.5 15.9999 0.5C19.2652 0.5 22.3968 1.79714 24.7057 4.10607C27.0147 6.41501 28.3118 9.54659 28.3118 12.8119ZM16.2446 5.368C16.3353 4.82322 16.8505 4.45512 17.3953 4.54583C19.1137 4.83196 20.6998 5.64802 21.9316 6.87987C23.1635 8.11173 23.9795 9.69778 24.2657 11.4162C24.3564 11.961 23.9883 12.4762 23.4435 12.5669C22.8987 12.6576 22.3835 12.2895 22.2928 11.7447C22.0752 10.4376 21.4544 9.23111 20.5174 8.29408C19.5804 7.35706 18.3739 6.73632 17.0668 6.51867C16.522 6.42796 16.1539 5.91279 16.2446 5.368ZM14.3769 28.0353L12.7348 31.8001C12.5908 32.1304 12.8328 32.5 13.1931 32.5H18.725C19.0808 32.5 19.3227 32.1389 19.1875 31.8099L17.6397 28.045C17.5626 27.8575 17.3799 27.7351 17.1772 27.7351H14.8352C14.6363 27.7351 14.4564 27.853 14.3769 28.0353Z" fill="#111827"/>
</svg>
