<svg width="32" height="32" viewBox="0 0 32 32" fill="none" xmlns="http://www.w3.org/2000/svg">
<path fill-rule="evenodd" clip-rule="evenodd" d="M28.3118 12.3119C28.3118 19.1142 22.8022 27.0862 15.9999 27.0862C9.19757 27.0862 3.68799 19.1142 3.68799 12.3119C3.68799 9.04659 4.98513 5.91501 7.29406 3.60607C9.60299 1.29714 12.7346 0 15.9999 0C19.2652 0 22.3968 1.29714 24.7057 3.60607C27.0147 5.91501 28.3118 9.04659 28.3118 12.3119ZM16.2446 4.868C16.3353 4.32322 16.8505 3.95512 17.3953 4.04583C19.1137 4.33196 20.6998 5.14802 21.9316 6.37987C23.1635 7.61173 23.9795 9.19778 24.2657 10.9162C24.3564 11.461 23.9883 11.9762 23.4435 12.0669C22.8987 12.1576 22.3835 11.7895 22.2928 11.2447C22.0752 9.93756 21.4544 8.73111 20.5174 7.79408C19.5804 6.85706 18.3739 6.23632 17.0668 6.01867C16.522 5.92796 16.1539 5.41279 16.2446 4.868ZM14.3769 27.5353L12.7348 31.3001C12.5908 31.6304 12.8328 32 13.1931 32H18.725C19.0808 32 19.3227 31.6389 19.1875 31.3099L17.6397 27.545C17.5626 27.3575 17.3799 27.2351 17.1772 27.2351H14.8352C14.6363 27.2351 14.4564 27.353 14.3769 27.5353Z" fill="#111827"/>
</svg>
