<svg width="33" height="33" viewBox="0 0 33 33" fill="none" xmlns="http://www.w3.org/2000/svg">
<path fill-rule="evenodd" clip-rule="evenodd" d="M26.1941 13.5168C26.1941 18.6186 22.0619 24.5975 16.9602 24.5975C11.8585 24.5975 7.72632 18.6186 7.72632 13.5168C7.72632 11.0679 8.69917 8.71919 10.4309 6.9875C12.1626 5.25581 14.5112 4.28296 16.9602 4.28296C19.4092 4.28296 21.7579 5.25581 23.4896 6.9875C25.2212 8.71919 26.1941 11.0679 26.1941 13.5168ZM16.8971 7.89288C16.9878 7.3481 17.503 6.98 18.0478 7.07071C19.388 7.29387 20.625 7.93032 21.5858 8.89106C22.5465 9.8518 23.183 11.0888 23.4061 12.429C23.4968 12.9738 23.1287 13.489 22.5839 13.5797C22.0392 13.6704 21.524 13.3023 21.4333 12.7575C21.2786 11.8286 20.8375 10.9712 20.1715 10.3053C19.5056 9.63936 18.6483 9.19822 17.7193 9.04355C17.1745 8.95284 16.8064 8.43767 16.8971 7.89288ZM15.7105 25.0093L14.588 27.583C14.4439 27.9132 14.6859 28.2829 15.0463 28.2829H18.8177C19.1735 28.2829 19.4155 27.9218 19.2802 27.5927L18.2221 25.0191C18.145 24.8316 17.9624 24.7092 17.7597 24.7092H16.1688C15.9699 24.7092 15.79 24.8271 15.7105 25.0093Z" fill="#1C1B1F"/>
</svg>
