<svg width="33" height="33" viewBox="0 0 33 33" fill="none" xmlns="http://www.w3.org/2000/svg">
<path fill-rule="evenodd" clip-rule="evenodd" d="M26.9243 13.2186C28.8296 11.3132 28.8296 8.224 26.9243 6.31864C25.0189 4.41328 21.9297 4.41328 20.0243 6.31864L16.253 10.09L13.1888 7.02576C11.674 5.51093 9.21791 5.51093 7.70307 7.02577C6.18824 8.5406 6.18823 10.9966 7.70307 12.5115L10.7674 15.5758L6.99592 19.3472C5.09055 21.2526 5.09055 24.3418 6.99592 26.2472C8.90128 28.1525 11.9905 28.1525 13.8958 26.2472L17.6673 22.4757L20.7316 25.5401C22.2465 27.0549 24.7025 27.0549 26.2174 25.5401C27.7322 24.0252 27.7322 21.5692 26.2174 20.0543L23.1529 16.9899L26.9243 13.2186ZM21.7387 15.5757L25.51 11.8044C26.6344 10.68 26.6344 8.85717 25.51 7.73285C24.3857 6.60854 22.5629 6.60854 21.4385 7.73285L17.6672 11.5042L21.7387 15.5757ZM16.2531 21.0615L12.1816 16.99L8.41013 20.7615C7.28582 21.8858 7.28582 23.7086 8.41013 24.833C9.53444 25.9573 11.3573 25.9573 12.4816 24.833L16.2531 21.0615ZM16.9602 12.7436L13.4209 16.2829L16.9599 19.8218L20.4992 16.2826L16.9602 12.7436ZM18.4149 16.2829C18.4149 17.0863 17.7636 17.7376 16.9602 17.7376C16.1569 17.7376 15.5056 17.0863 15.5056 16.2829C15.5056 15.4796 16.1569 14.8283 16.9602 14.8283C17.7636 14.8283 18.4149 15.4796 18.4149 16.2829Z" fill="#1C1B1F"/>
</svg>
