<svg width="32" height="32" viewBox="0 0 32 32" fill="none" xmlns="http://www.w3.org/2000/svg">
<path fill-rule="evenodd" clip-rule="evenodd" d="M29.707 11.4107C32.2248 8.89286 32.2248 4.81059 29.707 2.29273C27.1891 -0.225139 23.1068 -0.225139 20.589 2.29273L15.2926 7.58908L10.7034 2.99987C8.57607 0.872525 5.12697 0.872524 2.99962 2.99987C0.872282 5.12721 0.872288 8.57632 2.99963 10.7037L7.58896 15.293L2.2927 20.5893C-0.225169 23.1071 -0.22517 27.1894 2.2927 29.7073C4.81056 32.2251 8.89283 32.2251 11.4107 29.7073L16.707 24.411L21.2961 29.0001C23.4235 31.1275 26.8726 31.1275 28.9999 29.0001C31.1272 26.8728 31.1272 23.4237 28.9999 21.2963L24.4106 16.7071L29.707 11.4107ZM22.9964 15.2929L28.2928 9.99651C30.0296 8.25969 30.0296 5.44376 28.2928 3.70694C26.5559 1.97012 23.74 1.97012 22.0032 3.70694L16.7068 9.00329L22.9964 15.2929ZM15.2927 22.9968L9.00317 16.7072L3.70691 22.0035C1.97009 23.7403 1.97009 26.5562 3.70691 28.293C5.44373 30.0299 8.25966 30.0299 9.99648 28.293L15.2927 22.9968ZM16.0001 11.0295L11.0297 15.9999L15.9997 20.9698L20.97 15.9995L16.0001 11.0295ZM18.0426 16C18.0426 17.1282 17.128 18.0428 15.9998 18.0428C14.8716 18.0428 13.957 17.1282 13.957 16C13.957 14.8718 14.8716 13.9572 15.9998 13.9572C17.128 13.9572 18.0426 14.8718 18.0426 16Z" fill="#111827"/>
</svg>
