<svg width="32" height="32" viewBox="0 0 32 32" fill="none" xmlns="http://www.w3.org/2000/svg">
<path fill-rule="evenodd" clip-rule="evenodd" d="M15.718 3.7754C15.5537 3.67024 15.3433 3.67024 15.179 3.7754L2.35667 11.9817C1.93591 12.251 2.12665 12.9029 2.6262 12.9029H4.82179V22.0179H3.14356C2.59128 22.0179 2.14356 22.4656 2.14356 23.0179C2.14356 23.5702 2.59128 24.0179 3.14356 24.0179H28.8563C29.4086 24.0179 29.8563 23.5702 29.8563 23.0179C29.8563 22.4656 29.4086 22.0179 28.8563 22.0179H26.1065V12.9029H28.2708C28.7704 12.9029 28.9611 12.251 28.5404 11.9817L15.718 3.7754ZM24.1065 12.9029H19.6788V22.0179H24.1065V12.9029ZM17.6788 12.9029H13.2505V22.0179H17.6788V12.9029ZM11.2505 12.9029H6.82179V22.0179H11.2505V12.9029ZM0.000976562 27.3034C0.000976562 26.7511 0.448692 26.3034 1.00098 26.3034H30.9991C31.5514 26.3034 31.9991 26.7511 31.9991 27.3034C31.9991 27.8557 31.5514 28.3034 30.9991 28.3034H1.00098C0.448692 28.3034 0.000976562 27.8557 0.000976562 27.3034Z" fill="#111827"/>
</svg>
