<svg width="33" height="33" viewBox="0 0 33 33" fill="none" xmlns="http://www.w3.org/2000/svg">
<path fill-rule="evenodd" clip-rule="evenodd" d="M16.7882 6.42786C16.6239 6.32271 16.4134 6.32271 16.2491 6.42786L6.33233 12.7746C5.91158 13.0439 6.10231 13.6958 6.60186 13.6958H7.81689V20.7883H6.67432C6.12203 20.7883 5.67432 21.236 5.67432 21.7883C5.67432 22.3406 6.12203 22.7883 6.67432 22.7883H8.81131L8.81689 22.7883L8.82248 22.7883H13.9544L13.96 22.7883L13.9655 22.7883H19.0974L19.103 22.7883L19.1086 22.7883H24.24L24.2456 22.7883L24.2512 22.7883H27.2457C27.798 22.7883 28.2457 22.3406 28.2457 21.7883C28.2457 21.236 27.798 20.7883 27.2457 20.7883H25.2456V13.6958H26.4355C26.935 13.6958 27.1258 13.0439 26.705 12.7746L16.7882 6.42786ZM23.2456 13.6958H20.103V20.7883H23.2456V13.6958ZM18.103 13.6958H14.96V20.7883H18.103V13.6958ZM12.96 13.6958H9.81689V20.7883H12.96V13.6958ZM3.95996 25.2169C3.95996 24.6646 4.40768 24.2169 4.95996 24.2169H28.96C29.5122 24.2169 29.96 24.6646 29.96 25.2169C29.96 25.7691 29.5122 26.2169 28.96 26.2169H4.95996C4.40768 26.2169 3.95996 25.7691 3.95996 25.2169Z" fill="#1C1B1F"/>
</svg>
