<svg width="32" height="32" viewBox="0 0 32 32" fill="none" xmlns="http://www.w3.org/2000/svg">
<path fill-rule="evenodd" clip-rule="evenodd" d="M6.00058 7.00052C6.00058 6.44823 6.4483 6.00052 7.00058 6.00052H12.0003C12.5526 6.00052 13.0003 6.44823 13.0003 7.00052V15H19.0002V7.00052C19.0002 6.44823 19.4479 6.00052 20.0002 6.00052H24.9999C25.5522 6.00052 25.9999 6.44823 25.9999 7.00052V10.0004H27.9992C28.5514 10.0004 28.9992 10.4481 28.9992 11.0004V15H30.999C31.5513 15 31.999 15.4477 31.999 16C31.999 16.5522 31.5513 17 30.999 17H28.9992V20.9996C28.9992 21.5519 28.5514 21.9996 27.9992 21.9996H25.9999V24.9994C25.9999 25.5517 25.5522 25.9994 24.9999 25.9994H20.0002C19.4479 25.9994 19.0002 25.5517 19.0002 24.9994V17H13.0003V24.9994C13.0003 25.5517 12.5526 25.9994 12.0003 25.9994H7.00058C6.4483 25.9994 6.00058 25.5517 6.00058 24.9994V21.9996H4.00084C3.44856 21.9996 3.00084 21.5519 3.00084 20.9996V17H1.00098C0.448692 17 0.000976562 16.5522 0.000976562 16C0.000976562 15.4477 0.448692 15 1.00098 15H3.00084V11.0004C3.00084 10.4481 3.44856 10.0004 4.00084 10.0004H6.00058V7.00052ZM11.0003 8.00052V15.9928L11.0003 16L11.0003 16.0071V23.9994H8.00058V8.00052H11.0003ZM21.0002 23.9994V8.00052H23.9999V23.9994H21.0002Z" fill="#111827"/>
</svg>
