<svg width="33" height="33" viewBox="0 0 33 33" fill="none" xmlns="http://www.w3.org/2000/svg">
<path fill-rule="evenodd" clip-rule="evenodd" d="M8.75977 9.08289C8.75977 8.5306 9.20748 8.08289 9.75977 8.08289H13.7598C14.312 8.08289 14.7598 8.5306 14.7598 9.08289V15.2829H19.1602V9.08289C19.1602 8.5306 19.6079 8.08289 20.1602 8.08289H24.1602C24.7124 8.08289 25.1602 8.5306 25.1602 9.08289V11.4829H26.3602C26.9124 11.4829 27.3602 11.9306 27.3602 12.4829V15.2829H28.9599C29.5121 15.2829 29.9599 15.7306 29.9599 16.2829C29.9599 16.8352 29.5121 17.2829 28.9599 17.2829H27.3602V20.0829C27.3602 20.6352 26.9124 21.0829 26.3602 21.0829H25.1602L25.1602 23.4829C25.1602 24.0352 24.7124 24.4829 24.1602 24.4829H20.1602C19.6079 24.4829 19.1602 24.0352 19.1602 23.4829V17.2829H14.7598V23.4829C14.7598 24.0352 14.312 24.4829 13.7598 24.4829H9.75977C9.20748 24.4829 8.75977 24.0352 8.75977 23.4829V21.0829H7.56006C7.00777 21.0829 6.56006 20.6352 6.56006 20.0829V17.2829C6.56003 17.2829 6.55999 17.2829 6.55996 17.2829H4.95996C4.40768 17.2829 3.95996 16.8352 3.95996 16.2829C3.95996 15.7306 4.40768 15.2829 4.95996 15.2829H6.55996C6.55999 15.2829 6.56003 15.2829 6.56006 15.2829V12.4829C6.56006 11.9306 7.00777 11.4829 7.56006 11.4829H8.75977V9.08289ZM12.7598 10.0829V16.2829V22.4829H10.7598V10.0829H12.7598ZM21.1602 22.4829V10.0829H23.1602V22.4829H21.1602Z" fill="#1C1B1F"/>
</svg>
