<svg width="32" height="33" viewBox="0 0 32 33" fill="none" xmlns="http://www.w3.org/2000/svg">
<path fill-rule="evenodd" clip-rule="evenodd" d="M23.5 3C22.9478 3 22.5 3.44772 22.5 4C22.5 4.55228 22.9478 5 23.5 5H30.0002V11.5001C30.0002 12.0524 30.4479 12.5001 31.0002 12.5001C31.5525 12.5001 32.0002 12.0524 32.0002 11.5001V4C32.0002 3.44772 31.5525 3 31.0002 3H23.5ZM-1.84178e-05 4.00023C-1.84178e-05 3.44794 0.447697 3.00023 0.999982 3.00023H8.50012C9.05241 3.00023 9.50012 3.44794 9.50012 4.00023C9.50012 4.55251 9.05241 5.00023 8.50012 5.00023H1.99998V11.5004C1.99998 12.0526 1.55227 12.5004 0.999982 12.5004C0.447697 12.5004 -1.84178e-05 12.0526 -1.84178e-05 11.5004V4.00023ZM9.49977 10.2503C9.49977 9.69801 9.05206 9.2503 8.49977 9.2503C7.94749 9.2503 7.49977 9.69801 7.49977 10.2503V22.7505C7.49977 23.3028 7.94749 23.7505 8.49977 23.7505C9.05206 23.7505 9.49977 23.3028 9.49977 22.7505V10.2503ZM24.5 10.2503C24.5 9.69801 24.0523 9.2503 23.5 9.2503C22.9478 9.2503 22.5 9.69801 22.5 10.2503V22.7505C22.5 23.3028 22.9478 23.7505 23.5 23.7505C24.0523 23.7505 24.5 23.3028 24.5 22.7505V10.2503ZM18.5 9.2503C19.0522 9.2503 19.5 9.69801 19.5 10.2503V22.7505C19.5 23.3028 19.0522 23.7505 18.5 23.7505C17.9477 23.7505 17.5 23.3028 17.5 22.7505V10.2503C17.5 9.69801 17.9477 9.2503 18.5 9.2503ZM14.4999 10.2503C14.4999 9.69801 14.0521 9.2503 13.4999 9.2503C12.9476 9.2503 12.4999 9.69801 12.4999 10.2503V22.7505C12.4999 23.3028 12.9476 23.7505 13.4999 23.7505C14.0521 23.7505 14.4999 23.3028 14.4999 22.7505V10.2503ZM31.0002 20.5002C31.5525 20.5002 32.0002 20.9479 32.0002 21.5002V29.0003C32.0002 29.5526 31.5525 30.0003 31.0002 30.0003H23.5C22.9478 30.0003 22.5 29.5526 22.5 29.0003C22.5 28.4481 22.9478 28.0003 23.5 28.0003H30.0002V21.5002C30.0002 20.9479 30.4479 20.5002 31.0002 20.5002ZM1.99976 21.5002C1.99976 20.9479 1.55204 20.5002 0.999756 20.5002C0.447471 20.5002 -0.000244141 20.9479 -0.000244141 21.5002V29.0003C-0.000244141 29.5526 0.447471 30.0003 0.999756 30.0003H8.4999C9.05218 30.0003 9.4999 29.5526 9.4999 29.0003C9.4999 28.4481 9.05218 28.0003 8.4999 28.0003H1.99976V21.5002Z" fill="#111827"/>
</svg>
