<svg width="32" height="32" viewBox="0 0 32 32" fill="none" xmlns="http://www.w3.org/2000/svg">
<path fill-rule="evenodd" clip-rule="evenodd" d="M23.5 2.5C22.9478 2.5 22.5 2.94772 22.5 3.5C22.5 4.05228 22.9478 4.5 23.5 4.5H30.0002V11.0001C30.0002 11.5524 30.4479 12.0001 31.0002 12.0001C31.5525 12.0001 32.0002 11.5524 32.0002 11.0001V3.5C32.0002 2.94772 31.5525 2.5 31.0002 2.5H23.5ZM-1.84178e-05 3.50023C-1.84178e-05 2.94794 0.447697 2.50023 0.999982 2.50023H8.50012C9.05241 2.50023 9.50012 2.94794 9.50012 3.50023C9.50012 4.05251 9.05241 4.50023 8.50012 4.50023H1.99998V11.0004C1.99998 11.5526 1.55227 12.0004 0.999982 12.0004C0.447697 12.0004 -1.84178e-05 11.5526 -1.84178e-05 11.0004V3.50023ZM9.49977 9.7503C9.49977 9.19801 9.05206 8.7503 8.49977 8.7503C7.94749 8.7503 7.49977 9.19801 7.49977 9.7503V22.2505C7.49977 22.8028 7.94749 23.2505 8.49977 23.2505C9.05206 23.2505 9.49977 22.8028 9.49977 22.2505V9.7503ZM24.5 9.7503C24.5 9.19801 24.0523 8.7503 23.5 8.7503C22.9478 8.7503 22.5 9.19801 22.5 9.7503V22.2505C22.5 22.8028 22.9478 23.2505 23.5 23.2505C24.0523 23.2505 24.5 22.8028 24.5 22.2505V9.7503ZM18.5 8.7503C19.0522 8.7503 19.5 9.19801 19.5 9.7503V22.2505C19.5 22.8028 19.0522 23.2505 18.5 23.2505C17.9477 23.2505 17.5 22.8028 17.5 22.2505V9.7503C17.5 9.19801 17.9477 8.7503 18.5 8.7503ZM14.4999 9.7503C14.4999 9.19801 14.0521 8.7503 13.4999 8.7503C12.9476 8.7503 12.4999 9.19801 12.4999 9.7503V22.2505C12.4999 22.8028 12.9476 23.2505 13.4999 23.2505C14.0521 23.2505 14.4999 22.8028 14.4999 22.2505V9.7503ZM31.0002 20.0002C31.5525 20.0002 32.0002 20.4479 32.0002 21.0002V28.5003C32.0002 29.0526 31.5525 29.5003 31.0002 29.5003H23.5C22.9478 29.5003 22.5 29.0526 22.5 28.5003C22.5 27.9481 22.9478 27.5003 23.5 27.5003H30.0002V21.0002C30.0002 20.4479 30.4479 20.0002 31.0002 20.0002ZM1.99976 21.0002C1.99976 20.4479 1.55204 20.0002 0.999756 20.0002C0.447471 20.0002 -0.000244141 20.4479 -0.000244141 21.0002V28.5003C-0.000244141 29.0526 0.447471 29.5003 0.999756 29.5003H8.4999C9.05218 29.5003 9.4999 29.0526 9.4999 28.5003C9.4999 27.9481 9.05218 27.5003 8.4999 27.5003H1.99976V21.0002Z" fill="#111827"/>
</svg>
