<svg width="33" height="33" viewBox="0 0 33 33" fill="none" xmlns="http://www.w3.org/2000/svg">
<path fill-rule="evenodd" clip-rule="evenodd" d="M4.95996 7.89832C4.40768 7.89832 3.95996 8.34603 3.95996 8.89832V19.0522C3.95996 19.6044 4.40768 20.0522 4.95996 20.0522H8.5752V23.6675C8.5752 24.2198 9.02291 24.6675 9.5752 24.6675C10.1275 24.6675 10.5752 24.2198 10.5752 23.6675V20.0522H23.3447V23.6675C23.3447 24.2198 23.7924 24.6675 24.3447 24.6675C24.897 24.6675 25.3447 24.2198 25.3447 23.6675V20.0522H28.96C29.5122 20.0522 29.96 19.6044 29.96 19.0522V8.89832C29.96 8.34603 29.5122 7.89832 28.96 7.89832H4.95996ZM24.3534 18.0522H27.96V17.894L21.0546 9.89832H12.883L21.0369 18.0522H24.336C24.3389 18.0521 24.3418 18.0521 24.3447 18.0521C24.3476 18.0521 24.3505 18.0521 24.3534 18.0522ZM12.7292 18.0522L5.95996 11.2829V18.0522H9.56648C9.56938 18.0521 9.57229 18.0521 9.5752 18.0521C9.5781 18.0521 9.58101 18.0521 9.58391 18.0522H12.7292Z" fill="#1C1B1F"/>
</svg>
