<svg width="32" height="32" viewBox="0 0 32 32" fill="none" xmlns="http://www.w3.org/2000/svg">
<path fill-rule="evenodd" clip-rule="evenodd" d="M1.00098 5.76978C0.448692 5.76978 0.000976562 6.21749 0.000976562 6.76978V19.4613C0.000976562 20.0136 0.448692 20.4613 1.00098 20.4613H5.76944V25.2301C5.76944 25.7824 6.21715 26.2301 6.76944 26.2301C7.32172 26.2301 7.76944 25.7824 7.76944 25.2301V20.4613H24.2307V25.2301C24.2307 25.7824 24.6784 26.2301 25.2307 26.2301C25.7829 26.2301 26.2307 25.7824 26.2307 25.2301V20.4613H30.9991C31.5514 20.4613 31.9991 20.0136 31.9991 19.4613V6.76978C31.9991 6.21749 31.5514 5.76978 30.9991 5.76978H1.00098ZM25.2461 18.4613H29.9991V18.3032L20.902 7.76978H10.6543L21.3458 18.4613H25.2152C25.2204 18.4612 25.2255 18.4612 25.2307 18.4612C25.2358 18.4612 25.2409 18.4612 25.2461 18.4613ZM10.9618 18.4613L2.00098 9.50044V18.4613H6.75402C6.75915 18.4612 6.76429 18.4612 6.76944 18.4612C6.77458 18.4612 6.77972 18.4612 6.78485 18.4613H10.9618Z" fill="#111827"/>
</svg>
