<svg width="33" height="33" viewBox="0 0 33 33" fill="none" xmlns="http://www.w3.org/2000/svg">
<path fill-rule="evenodd" clip-rule="evenodd" d="M16.96 28.283C19.9409 28.283 22.668 27.196 24.7665 25.3969C24.4275 24.9935 24.1124 24.5729 23.8222 24.1374C23.516 23.6778 23.6403 23.0569 24.1 22.7507C24.5596 22.4445 25.1804 22.5688 25.4866 23.0284C25.7015 23.3509 25.9322 23.6638 26.1783 23.966C27.915 21.8845 28.96 19.2058 28.96 16.283C28.96 13.3602 27.915 10.6815 26.1784 8.60003C25.9323 8.90218 25.7015 9.21509 25.4867 9.53753C25.1805 9.99714 24.5596 10.1215 24.1 9.81525C23.6404 9.50902 23.5161 8.88819 23.8223 8.42858C24.1125 7.99307 24.4275 7.5725 24.7666 7.16913C22.6681 5.36992 19.941 4.28296 16.96 4.28296C13.979 4.28296 11.2519 5.36992 9.15334 7.16913C9.49238 7.5725 9.80745 7.99307 10.0976 8.42858C10.4038 8.88819 10.2795 9.50902 9.8199 9.81525C9.36029 10.1215 8.73945 9.99714 8.43322 9.53753C8.21839 9.21509 7.98765 8.90218 7.74151 8.60003C6.00487 10.6815 4.95996 13.3602 4.95996 16.283C4.95996 19.2058 6.0049 21.8845 7.74158 23.966C7.98772 23.6638 8.21846 23.3509 8.43329 23.0284C8.73952 22.5688 9.36035 22.4445 9.81997 22.7507C10.2796 23.0569 10.4039 23.6778 10.0977 24.1374C9.80753 24.5729 9.49246 24.9935 9.15342 25.3969C11.2519 27.196 13.979 28.283 16.96 28.283ZM22.8918 12.7393C23.4335 12.8468 23.7855 13.3731 23.678 13.9149C23.5243 14.6891 23.4453 15.4819 23.4453 16.283C23.4453 17.084 23.5243 17.8768 23.678 18.6511C23.7855 19.1928 23.4335 19.7191 22.8918 19.8266C22.35 19.9342 21.8237 19.5822 21.7162 19.0405C21.5373 18.1388 21.4453 17.2156 21.4453 16.283C21.4453 15.3504 21.5373 14.4271 21.7163 13.5255C21.8238 12.9838 22.3501 12.6318 22.8918 12.7393ZM10.2419 13.9149C10.1344 13.3731 10.4864 12.8468 11.0281 12.7393C11.5698 12.6318 12.0961 12.9838 12.2037 13.5255C12.3826 14.4271 12.4746 15.3504 12.4746 16.283C12.4746 17.2156 12.3826 18.1388 12.2037 19.0405C12.0962 19.5822 11.5699 19.9342 11.0282 19.8266C10.4864 19.7191 10.1344 19.1928 10.242 18.6511C10.3956 17.8768 10.4746 17.084 10.4746 16.283C10.4746 15.4819 10.3956 14.6891 10.2419 13.9149Z" fill="#1C1B1F"/>
</svg>
