<svg width="32" height="32" viewBox="0 0 32 32" fill="none" xmlns="http://www.w3.org/2000/svg">
<path fill-rule="evenodd" clip-rule="evenodd" d="M16 32C20.0945 32 23.8297 30.462 26.6596 27.9322C26.6084 27.8713 26.5576 27.8101 26.5073 27.7485C26.1575 27.3211 26.2206 26.6911 26.648 26.3413C27.0754 25.9916 27.7055 26.0546 28.0552 26.482L28.0714 26.5018C30.5183 23.6916 32 20.0188 32 16C32 11.9812 30.5183 8.30848 28.0715 5.49827L28.0553 5.51803C27.7056 5.94548 27.0756 6.00847 26.6481 5.65874C26.2207 5.30901 26.1577 4.67899 26.5074 4.25155C26.5577 4.19002 26.6085 4.12878 26.6597 4.06785C23.8298 1.53802 20.0945 0 16 0C11.9055 0 8.17018 1.53802 5.34032 4.06785C5.3915 4.12878 5.44226 4.19002 5.4926 4.25155C5.84233 4.67899 5.77934 5.30901 5.35189 5.65874C4.92445 6.00847 4.29443 5.94548 3.9447 5.51803C3.9393 5.51144 3.9339 5.50485 3.9285 5.49827C1.48165 8.30848 0 11.9812 0 16C0 20.0188 1.48169 23.6916 3.92859 26.5018C3.934 26.4952 3.93941 26.4886 3.94481 26.482C4.29453 26.0546 4.92456 25.9916 5.352 26.3413C5.77945 26.6911 5.84245 27.3211 5.49273 27.7485C5.44238 27.8101 5.39161 27.8713 5.34042 27.9322C8.17028 30.462 11.9055 32 16 32ZM25.848 6.85969C26.3353 7.1195 26.5198 7.72519 26.26 8.21255C25.7511 9.16724 25.3369 10.1696 25.0235 11.2051C24.8635 11.7337 24.3052 12.0325 23.7766 11.8725C23.248 11.7126 22.9492 11.1543 23.1092 10.6257C23.4605 9.46519 23.9247 8.34172 24.4951 7.27172C24.7549 6.78436 25.3606 6.59989 25.848 6.85969ZM23.4957 13.288C24.0453 13.342 24.4471 13.8314 24.3931 14.381C24.3405 14.9167 24.3138 15.457 24.3138 16C24.3138 16.5431 24.3405 17.0833 24.3931 17.619C24.4471 18.1687 24.0453 18.658 23.4957 18.712C22.946 18.766 22.4567 18.3642 22.4027 17.8146C22.3437 17.2141 22.3138 16.6086 22.3138 16C22.3138 15.3915 22.3437 14.786 22.4027 14.1855C22.4567 13.6358 22.946 13.234 23.4957 13.288ZM23.7766 20.1275C24.3052 19.9675 24.8634 20.2663 25.0234 20.7949C25.3368 21.8304 25.751 22.8328 26.2599 23.7875C26.5197 24.2749 26.3352 24.8806 25.8479 25.1404C25.3605 25.4002 24.7548 25.2157 24.495 24.7283C23.9246 23.6583 23.4604 22.5348 23.1092 21.3743C22.9492 20.8457 23.248 20.2875 23.7766 20.1275ZM5.74002 8.21255C5.48022 7.72519 5.66469 7.1195 6.15205 6.85969C6.63941 6.59989 7.24511 6.78436 7.50491 7.27172C8.07531 8.34172 8.53953 9.46519 8.89079 10.6257C9.05078 11.1543 8.75196 11.7126 8.22336 11.8725C7.69476 12.0325 7.13654 11.7337 6.97655 11.2051C6.66314 10.1696 6.24895 9.16724 5.74002 8.21255ZM7.60688 14.381C7.55288 13.8314 7.95468 13.342 8.50431 13.288C9.05395 13.234 9.5433 13.6358 9.5973 14.1855C9.65629 14.786 9.6862 15.3915 9.6862 16C9.6862 16.6086 9.65631 17.2141 9.59732 17.8146C9.54332 18.3642 9.05398 18.766 8.50434 18.712C7.9547 18.658 7.5529 18.1687 7.6069 17.619C7.65952 17.0833 7.6862 16.5431 7.6862 16C7.6862 15.457 7.65951 14.9167 7.60688 14.381ZM6.9766 20.7949C7.13658 20.2663 7.6948 19.9675 8.2234 20.1275C8.75201 20.2875 9.05083 20.8457 8.89085 21.3743C8.53959 22.5348 8.07539 23.6583 7.505 24.7283C7.2452 25.2157 6.63951 25.4002 6.15214 25.1404C5.66478 24.8806 5.4803 24.2749 5.7401 23.7875C6.24902 22.8328 6.6632 21.8304 6.9766 20.7949Z" fill="#111827"/>
</svg>
