<svg width="32" height="33" viewBox="0 0 32 33" fill="none" xmlns="http://www.w3.org/2000/svg">
<path fill-rule="evenodd" clip-rule="evenodd" d="M16 32.5C20.0945 32.5 23.8297 30.962 26.6596 28.4322C26.6084 28.3713 26.5576 28.3101 26.5073 28.2485C26.1575 27.8211 26.2206 27.1911 26.648 26.8413C27.0754 26.4916 27.7055 26.5546 28.0552 26.982L28.0714 27.0018C30.5183 24.1916 32 20.5188 32 16.5C32 12.4812 30.5183 8.80848 28.0715 5.99827L28.0553 6.01803C27.7056 6.44548 27.0756 6.50847 26.6481 6.15874C26.2207 5.80901 26.1577 5.17899 26.5074 4.75155C26.5577 4.69002 26.6085 4.62878 26.6597 4.56785C23.8298 2.03802 20.0945 0.5 16 0.5C11.9055 0.5 8.17018 2.03802 5.34032 4.56785C5.3915 4.62878 5.44226 4.69002 5.4926 4.75155C5.84233 5.17899 5.77934 5.80901 5.35189 6.15874C4.92445 6.50847 4.29443 6.44548 3.9447 6.01803C3.9393 6.01144 3.9339 6.00485 3.9285 5.99827C1.48165 8.80848 0 12.4812 0 16.5C0 20.5188 1.48169 24.1916 3.92859 27.0018C3.934 26.9952 3.93941 26.9886 3.94481 26.982C4.29453 26.5546 4.92456 26.4916 5.352 26.8413C5.77945 27.1911 5.84245 27.8211 5.49273 28.2485C5.44238 28.3101 5.39161 28.3713 5.34042 28.4322C8.17028 30.962 11.9055 32.5 16 32.5ZM25.848 7.35969C26.3353 7.6195 26.5198 8.22519 26.26 8.71255C25.7511 9.66724 25.3369 10.6696 25.0235 11.7051C24.8635 12.2337 24.3052 12.5325 23.7766 12.3725C23.248 12.2126 22.9492 11.6543 23.1092 11.1257C23.4605 9.96519 23.9247 8.84172 24.4951 7.77172C24.7549 7.28436 25.3606 7.09989 25.848 7.35969ZM23.4957 13.788C24.0453 13.842 24.4471 14.3314 24.3931 14.881C24.3405 15.4167 24.3138 15.957 24.3138 16.5C24.3138 17.0431 24.3405 17.5833 24.3931 18.119C24.4471 18.6687 24.0453 19.158 23.4957 19.212C22.946 19.266 22.4567 18.8642 22.4027 18.3146C22.3437 17.7141 22.3138 17.1086 22.3138 16.5C22.3138 15.8915 22.3437 15.286 22.4027 14.6855C22.4567 14.1358 22.946 13.734 23.4957 13.788ZM23.7766 20.6275C24.3052 20.4675 24.8634 20.7663 25.0234 21.2949C25.3368 22.3304 25.751 23.3328 26.2599 24.2875C26.5197 24.7749 26.3352 25.3806 25.8479 25.6404C25.3605 25.9002 24.7548 25.7157 24.495 25.2283C23.9246 24.1583 23.4604 23.0348 23.1092 21.8743C22.9492 21.3457 23.248 20.7875 23.7766 20.6275ZM5.74002 8.71255C5.48022 8.22519 5.66469 7.6195 6.15205 7.35969C6.63941 7.09989 7.24511 7.28436 7.50491 7.77172C8.07531 8.84172 8.53953 9.96519 8.89079 11.1257C9.05078 11.6543 8.75196 12.2126 8.22336 12.3725C7.69476 12.5325 7.13654 12.2337 6.97655 11.7051C6.66314 10.6696 6.24895 9.66724 5.74002 8.71255ZM7.60688 14.881C7.55288 14.3314 7.95468 13.842 8.50431 13.788C9.05395 13.734 9.5433 14.1358 9.5973 14.6855C9.65629 15.286 9.6862 15.8915 9.6862 16.5C9.6862 17.1086 9.65631 17.7141 9.59732 18.3146C9.54332 18.8642 9.05398 19.266 8.50434 19.212C7.9547 19.158 7.5529 18.6687 7.6069 18.119C7.65952 17.5833 7.6862 17.0431 7.6862 16.5C7.6862 15.957 7.65951 15.4167 7.60688 14.881ZM6.9766 21.2949C7.13658 20.7663 7.6948 20.4675 8.2234 20.6275C8.75201 20.7875 9.05083 21.3457 8.89085 21.8743C8.53959 23.0348 8.07539 24.1583 7.505 25.2283C7.2452 25.7157 6.63951 25.9002 6.15214 25.6404C5.66478 25.3806 5.4803 24.7749 5.7401 24.2875C6.24902 23.3328 6.6632 22.3304 6.9766 21.2949Z" fill="#111827"/>
</svg>
