<svg width="34" height="33" viewBox="0 0 34 33" fill="none" xmlns="http://www.w3.org/2000/svg">
<path fill-rule="evenodd" clip-rule="evenodd" d="M15.9999 0.475586C12.2914 0.703486 8.9234 2.19031 6.3179 4.51401C7.59932 5.99601 8.63624 7.67651 9.38659 9.49247C10.1772 11.4059 10.6363 13.4374 10.7467 15.4999H15.9999V0.475586ZM15.9999 17.4999H10.7467C10.6363 19.5625 10.1773 21.594 9.38663 23.5074C8.6363 25.3234 7.5994 27.0039 6.31799 28.4859C8.92348 30.8095 12.2915 32.2963 15.9999 32.5242V17.4999ZM17.9999 32.5242V17.4999H23.255C23.4761 21.5527 25.0356 25.416 27.6833 28.4845C25.0776 30.809 21.7091 32.2963 17.9999 32.5242ZM17.9999 15.4999V0.475586C21.7091 0.703531 25.0777 2.19089 27.6834 4.51537C25.0357 7.58382 23.4761 11.4472 23.255 15.4999H17.9999ZM29.0951 27.0581C31.3561 24.4701 32.7999 21.1499 33.0242 17.4999H25.2583C25.4739 21.0185 26.8217 24.3714 29.0951 27.0581ZM29.0952 5.94184C31.3561 8.52981 32.7999 11.85 33.0242 15.4999H25.2584C25.4739 11.9813 26.8218 8.62844 29.0952 5.94184ZM7.53821 22.7437C8.22872 21.0725 8.6353 19.3002 8.7435 17.4999H0.975586C1.19994 21.1507 2.64435 24.4715 4.90617 27.0597C6.001 25.7688 6.88976 24.3131 7.53821 22.7437ZM7.53817 10.2562C8.22868 11.9274 8.63526 13.6996 8.74348 15.4999H0.975586C1.19994 11.8492 2.64432 8.52836 4.90608 5.94015C6.00093 7.23106 6.88971 8.68685 7.53817 10.2562Z" fill="#111827"/>
</svg>
