<svg width="34" height="34" viewBox="0 0 34 34" fill="none" xmlns="http://www.w3.org/2000/svg">
<path fill-rule="evenodd" clip-rule="evenodd" d="M15.9999 0.975586C12.2914 1.20349 8.9234 2.69031 6.3179 5.01401C7.59932 6.49601 8.63624 8.17651 9.38659 9.99247C10.1772 11.9059 10.6363 13.9374 10.7467 15.9999H15.9999V0.975586ZM15.9999 17.9999H10.7467C10.6363 20.0625 10.1773 22.094 9.38663 24.0074C8.6363 25.8234 7.5994 27.5039 6.318 28.9859C8.92348 31.3095 12.2915 32.7963 15.9999 33.0242V17.9999ZM17.9999 33.0242V17.9999H23.255C23.4761 22.0527 25.0356 25.916 27.6833 28.9845C25.0776 31.309 21.7091 32.7963 17.9999 33.0242ZM17.9999 15.9999V0.975586C21.7091 1.20353 25.0777 2.69089 27.6834 5.01537C25.0357 8.08382 23.4761 11.9472 23.255 15.9999H17.9999ZM29.0951 27.5581C31.3561 24.9701 32.7999 21.6499 33.0242 17.9999H25.2583C25.4739 21.5185 26.8217 24.8714 29.0951 27.5581ZM29.0952 6.44184C31.3561 9.02981 32.7999 12.35 33.0242 15.9999H25.2584C25.4739 12.4813 26.8218 9.12844 29.0952 6.44184ZM7.53821 23.2437C8.22872 21.5725 8.6353 19.8002 8.7435 17.9999H0.975586C1.19994 21.6507 2.64435 24.9715 4.90617 27.5597C6.001 26.2688 6.88976 24.8131 7.53821 23.2437ZM7.53817 10.7562C8.22868 12.4274 8.63526 14.1996 8.74348 15.9999H0.975586C1.19994 12.3492 2.64432 9.02836 4.90608 6.44015C6.00093 7.73106 6.88971 9.18685 7.53817 10.7562Z" fill="#111827"/>
</svg>
