<svg width="33" height="33" viewBox="0 0 33 33" fill="none" xmlns="http://www.w3.org/2000/svg">
<path fill-rule="evenodd" clip-rule="evenodd" d="M15.9599 4.32397C13.3767 4.53708 11.0255 5.56838 9.16607 7.15812C10.1419 8.28651 10.9315 9.5661 11.5029 10.9489C12.0742 12.3314 12.4181 13.795 12.5234 15.2829H15.9599V4.32397ZM15.9599 17.2829H12.5234C12.4181 18.7708 12.0742 20.2344 11.5029 21.617C10.9316 22.9998 10.142 24.2794 9.16614 25.4077C11.0256 26.9974 13.3767 28.0287 15.9599 28.2418V17.2829ZM17.9599 28.2418V17.2829H21.3981C21.6132 20.2811 22.7908 23.1312 24.7548 25.4067C22.8952 26.997 20.5436 28.0287 17.9599 28.2418ZM17.9599 15.2829V4.32397C20.5436 4.53713 22.8953 5.56881 24.7549 7.15912C22.7909 9.43467 21.6132 12.2847 21.3981 15.2829H17.9599ZM26.1666 23.9799C27.7098 22.1359 28.7094 19.8214 28.9188 17.2829H23.4041C23.6106 19.7468 24.5761 22.0871 26.1666 23.9799ZM26.1667 8.58599C27.7099 10.4299 28.7094 12.7444 28.9188 15.2829H23.4041C23.6107 12.8191 24.5762 10.4787 26.1667 8.58599ZM9.65449 20.8533C10.1256 19.713 10.4162 18.5085 10.5176 17.2829H5.00098C5.21045 19.8221 6.21046 22.1371 7.75431 23.9812C8.5436 23.0441 9.18507 21.9893 9.65449 20.8533ZM9.65447 11.7126C10.1256 12.8528 10.4162 14.0574 10.5176 15.2829H5.00098C5.21045 12.7438 6.21043 10.4288 7.75425 8.58466C8.54355 9.52177 9.18504 10.5765 9.65447 11.7126Z" fill="#1C1B1F"/>
</svg>
