<svg width="33" height="33" viewBox="0 0 33 33" fill="none" xmlns="http://www.w3.org/2000/svg">
<path d="M10.96 23.5686V26.14" stroke="#1C1B1F" stroke-width="2" stroke-linecap="round" stroke-linejoin="round"/>
<path d="M22.96 23.5686V26.14" stroke="#1C1B1F" stroke-width="2" stroke-linecap="round" stroke-linejoin="round"/>
<path fill-rule="evenodd" clip-rule="evenodd" d="M5.45996 14.1401C5.18382 14.1401 4.95996 14.364 4.95996 14.6401V18.5687C4.95996 21.3301 7.19854 23.5687 9.95996 23.5687H23.96C26.7214 23.5687 28.96 21.3301 28.96 18.5687V14.6401C28.96 14.364 28.7361 14.1401 28.46 14.1401H5.45996ZM23.3 14.6382H19.1919V17.0893H23.3V14.6382Z" fill="#1C1B1F"/>
<path d="M9.24561 14.14V8.42578C9.24561 7.32121 10.141 6.42578 11.2456 6.42578H11.5313C12.6359 6.42578 13.5313 7.32121 13.5313 8.42578V8.5686" stroke="#1C1B1F" stroke-width="2" stroke-linecap="round"/>
</svg>
