<svg width="33" height="33" viewBox="0 0 33 33" fill="none" xmlns="http://www.w3.org/2000/svg">
<path fill-rule="evenodd" clip-rule="evenodd" d="M4.95996 9.42835C4.95996 8.87606 5.40768 8.42834 5.95996 8.42834H24.0327C24.585 8.42834 25.0327 8.87606 25.0327 9.42834V23.1374C25.0327 23.6897 24.585 24.1374 24.0327 24.1374H5.95996C5.40768 24.1374 4.95996 23.6897 4.95996 23.1374V9.42835ZM16.96 10.283C17.5122 10.283 17.96 10.7307 17.96 11.283V21.283C17.96 21.8352 17.5122 22.283 16.96 22.283C16.4077 22.283 15.96 21.8352 15.96 21.283V11.283C15.96 10.7307 16.4077 10.283 16.96 10.283ZM13.96 11.283C13.96 10.7307 13.5122 10.283 12.96 10.283C12.4077 10.283 11.96 10.7307 11.96 11.283V21.283C11.96 21.8352 12.4077 22.283 12.96 22.283C13.5122 22.283 13.96 21.8352 13.96 21.283V11.283ZM8.95996 10.283C9.51225 10.283 9.95996 10.7307 9.95996 11.283V21.283C9.95996 21.8352 9.51225 22.283 8.95996 22.283C8.40768 22.283 7.95996 21.8352 7.95996 21.283V11.283C7.95996 10.7307 8.40768 10.283 8.95996 10.283ZM29.96 12.792C29.96 12.2397 29.5122 11.792 28.96 11.792C28.4077 11.792 27.96 12.2397 27.96 12.792V19.7738C27.96 20.3261 28.4077 20.7738 28.96 20.7738C29.5122 20.7738 29.96 20.3261 29.96 19.7738V12.792Z" fill="#1C1B1F"/>
</svg>
