<svg width="33" height="33" viewBox="0 0 33 33" fill="none" xmlns="http://www.w3.org/2000/svg">
<path fill-rule="evenodd" clip-rule="evenodd" d="M13.4692 3.2829C12.917 3.2829 12.4692 3.73061 12.4692 4.2829C12.4692 4.83518 12.917 5.2829 13.4692 5.2829H20.4511C21.0033 5.2829 21.4511 4.83518 21.4511 4.2829C21.4511 3.73061 21.0033 3.2829 20.4511 3.2829H13.4692ZM10.1055 28.2829C9.55318 28.2829 9.10547 27.8352 9.10547 27.2829V9.21018C9.10547 8.6579 9.55318 8.21018 10.1055 8.21018H23.8146C24.3668 8.21018 24.8146 8.6579 24.8146 9.21018V27.2829C24.8146 27.8352 24.3668 28.2829 23.8146 28.2829H10.1055ZM18.96 22.2466C18.96 23.075 18.2884 23.7466 17.46 23.7466C16.6315 23.7466 15.96 23.075 15.96 22.2466C15.96 21.4181 16.6315 20.7466 17.46 20.7466C18.2884 20.7466 18.96 21.4181 18.96 22.2466ZM18.46 12.7466C18.46 12.1943 18.0122 11.7466 17.46 11.7466C16.9077 11.7466 16.46 12.1943 16.46 12.7466V17.7466C16.46 18.2988 16.9077 18.7466 17.46 18.7466C18.0122 18.7466 18.46 18.2988 18.46 17.7466V12.7466Z" fill="#1C1B1F"/>
</svg>
