<svg width="32" height="32" viewBox="0 0 32 32" fill="none" xmlns="http://www.w3.org/2000/svg">
<path fill-rule="evenodd" clip-rule="evenodd" d="M11.4908 0.00012207C10.9385 0.00012207 10.4908 0.447837 10.4908 1.00012C10.4908 1.55241 10.9385 2.00012 11.4908 2.00012H20.5089C21.0612 2.00012 21.5089 1.55241 21.5089 1.00012C21.5089 0.447837 21.0612 0.00012207 20.5089 0.00012207H11.4908ZM6.85449 31.9998C6.30221 31.9998 5.85449 31.5521 5.85449 30.9998V7.07283C5.85449 6.52054 6.30221 6.07283 6.85449 6.07283H25.1452C25.6975 6.07283 26.1452 6.52054 26.1452 7.07283V30.9998C26.1452 31.5521 25.6975 31.9998 25.1452 31.9998H6.85449ZM16.371 12.2936C16.8833 12.4998 17.1315 13.0823 16.9253 13.5946L15.1803 17.9308H18.2257C18.5553 17.9308 18.8638 18.0932 19.0502 18.365C19.2367 18.6367 19.2773 18.983 19.1588 19.2905L16.9307 25.0696C16.732 25.5849 16.1532 25.8416 15.6379 25.643C15.1226 25.4443 14.8659 24.8655 15.0646 24.3502L16.7684 19.9308H13.6999C13.3677 19.9308 13.0572 19.7658 12.8713 19.4905C12.6853 19.2153 12.6482 18.8656 12.7722 18.5574L15.07 12.848C15.2761 12.3356 15.8586 12.0874 16.371 12.2936Z" fill="#111827"/>
</svg>
