<svg width="32" height="32" viewBox="0 0 32 32" fill="none" xmlns="http://www.w3.org/2000/svg">
<path fill-rule="evenodd" clip-rule="evenodd" d="M0 6.85467C0 6.30239 0.447715 5.85468 1 5.85468H24.9269C25.4791 5.85468 25.9269 6.30239 25.9269 6.85468V25.1453C25.9269 25.6975 25.4791 26.1453 24.9269 26.1453H0.999998C0.447714 26.1453 0 25.6975 0 25.1453V6.85467ZM15.4998 8.54182C16.0521 8.54182 16.4998 8.98954 16.4998 9.54182V22.4583C16.4998 23.0106 16.0521 23.4583 15.4998 23.4583C14.9475 23.4583 14.4998 23.0106 14.4998 22.4583V9.54182C14.4998 8.98954 14.9475 8.54182 15.4998 8.54182ZM11.3333 9.54182C11.3333 8.98954 10.8856 8.54182 10.3333 8.54182C9.78106 8.54182 9.33335 8.98954 9.33335 9.54182V22.4583C9.33335 23.0106 9.78106 23.4583 10.3333 23.4583C10.8856 23.4583 11.3333 23.0106 11.3333 22.4583V9.54182ZM5.16692 8.54182C5.7192 8.54182 6.16692 8.98954 6.16692 9.54182V22.4583C6.16692 23.0106 5.7192 23.4583 5.16692 23.4583C4.61463 23.4583 4.16692 23.0106 4.16692 22.4583V9.54182C4.16692 8.98954 4.61463 8.54182 5.16692 8.54182ZM31.9996 11.491C31.9996 10.9387 31.5518 10.491 30.9996 10.491C30.4473 10.491 29.9996 10.9387 29.9996 11.491V20.509C29.9996 21.0613 30.4473 21.509 30.9996 21.509C31.5518 21.509 31.9996 21.0613 31.9996 20.509V11.491Z" fill="#111827"/>
</svg>
