<svg width="32" height="32" viewBox="0 0 32 32" fill="none" xmlns="http://www.w3.org/2000/svg">
<path fill-rule="evenodd" clip-rule="evenodd" d="M1 5.85471C0.447715 5.85471 0 6.30242 0 6.85471V25.1453C0 25.6976 0.447714 26.1453 0.999998 26.1453H24.9269C25.4791 26.1453 25.9269 25.6976 25.9269 25.1453V6.85471C25.9269 6.30242 25.4791 5.85471 24.9269 5.85471H1ZM31.9996 11.491C31.9996 10.9387 31.5518 10.491 30.9996 10.491C30.4473 10.491 29.9996 10.9387 29.9996 11.491V20.5091C29.9996 21.0613 30.4473 21.5091 30.9996 21.5091C31.5518 21.5091 31.9996 21.0613 31.9996 20.5091V11.491Z" fill="#111827"/>
</svg>
