<svg width="32" height="32" viewBox="0 0 32 32" fill="none" xmlns="http://www.w3.org/2000/svg">
<path fill-rule="evenodd" clip-rule="evenodd" d="M11.4908 0.000152588C10.9385 0.000152588 10.4908 0.447868 10.4908 1.00015C10.4908 1.55244 10.9385 2.00015 11.4908 2.00015H20.5089C21.0612 2.00015 21.5089 1.55244 21.5089 1.00015C21.5089 0.447868 21.0612 0.000152588 20.5089 0.000152588H11.4908ZM6.85449 31.9998C6.30221 31.9998 5.85449 31.5521 5.85449 30.9998V7.07283C5.85449 6.52054 6.30221 6.07283 6.85449 6.07283H25.1452C25.6975 6.07283 26.1452 6.52054 26.1452 7.07283V30.9998C26.1452 31.5521 25.6975 31.9998 25.1452 31.9998H6.85449ZM18.5835 24.2029C18.5835 25.273 17.716 26.1404 16.646 26.1404C15.5759 26.1404 14.7085 25.273 14.7085 24.2029C14.7085 23.1329 15.5759 22.2655 16.646 22.2655C17.716 22.2655 18.5835 23.1329 18.5835 24.2029ZM17.6456 11.9322C17.6456 11.3799 17.1978 10.9322 16.6456 10.9322C16.0933 10.9322 15.6456 11.3799 15.6456 11.9322V18.3905C15.6456 18.9428 16.0933 19.3905 16.6456 19.3905C17.1978 19.3905 17.6456 18.9428 17.6456 18.3905V11.9322Z" fill="#111827"/>
</svg>
