<svg width="33" height="33" viewBox="0 0 33 33" fill="none" xmlns="http://www.w3.org/2000/svg">
<path fill-rule="evenodd" clip-rule="evenodd" d="M5.95996 8.42834C5.40768 8.42834 4.95996 8.87606 4.95996 9.42835V23.1374C4.95996 23.6897 5.40768 24.1374 5.95996 24.1374H24.0327C24.585 24.1374 25.0327 23.6897 25.0327 23.1374V9.42834C25.0327 8.87606 24.585 8.42834 24.0327 8.42834H5.95996ZM17.96 11.283C17.96 10.7307 17.5122 10.283 16.96 10.283C16.4077 10.283 15.96 10.7307 15.96 11.283V21.283C15.96 21.8352 16.4077 22.283 16.96 22.283C17.5122 22.283 17.96 21.8352 17.96 21.283V11.283ZM12.96 10.283C13.5122 10.283 13.96 10.7307 13.96 11.283V21.283C13.96 21.8352 13.5122 22.283 12.96 22.283C12.4077 22.283 11.96 21.8352 11.96 21.283V11.283C11.96 10.7307 12.4077 10.283 12.96 10.283ZM9.95996 11.283C9.95996 10.7307 9.51225 10.283 8.95996 10.283C8.40768 10.283 7.95996 10.7307 7.95996 11.283V21.283C7.95996 21.8352 8.40768 22.283 8.95996 22.283C9.51225 22.283 9.95996 21.8352 9.95996 21.283V11.283ZM20.96 10.283C21.5122 10.283 21.96 10.7307 21.96 11.283V21.283C21.96 21.8352 21.5122 22.283 20.96 22.283C20.4077 22.283 19.96 21.8352 19.96 21.283V11.283C19.96 10.7307 20.4077 10.283 20.96 10.283ZM29.96 12.792C29.96 12.2397 29.5122 11.792 28.96 11.792C28.4077 11.792 27.96 12.2397 27.96 12.792V19.7738C27.96 20.3261 28.4077 20.7738 28.96 20.7738C29.5122 20.7738 29.96 20.3261 29.96 19.7738V12.792Z" fill="#1C1B1F"/>
</svg>
