<svg width="33" height="33" viewBox="0 0 33 33" fill="none" xmlns="http://www.w3.org/2000/svg">
<path fill-rule="evenodd" clip-rule="evenodd" d="M5.95996 8.42834C5.40768 8.42834 4.95996 8.87606 4.95996 9.42835V23.1374C4.95996 23.6897 5.40768 24.1374 5.95996 24.1374H24.0327C24.585 24.1374 25.0327 23.6897 25.0327 23.1374V9.42834C25.0327 8.87606 24.585 8.42834 24.0327 8.42834H5.95996ZM29.96 12.792C29.96 12.2397 29.5122 11.792 28.96 11.792C28.4077 11.792 27.96 12.2397 27.96 12.792V19.7738C27.96 20.3261 28.4077 20.7738 28.96 20.7738C29.5122 20.7738 29.96 20.3261 29.96 19.7738V12.792Z" fill="#1C1B1F"/>
</svg>
