<svg width="32" height="32" viewBox="0 0 32 32" fill="none" xmlns="http://www.w3.org/2000/svg">
<path fill-rule="evenodd" clip-rule="evenodd" d="M0 6.85471C0 6.30242 0.447715 5.85471 1 5.85471H24.9269C25.4791 5.85471 25.9269 6.30242 25.9269 6.85471V25.1453C25.9269 25.6976 25.4791 26.1453 24.9269 26.1453H0.999998C0.447714 26.1453 0 25.6976 0 25.1453V6.85471ZM13.963 9.54172C13.963 8.98944 13.5153 8.54172 12.963 8.54172C12.4107 8.54172 11.963 8.98944 11.963 9.54172V16C11.963 16.5522 12.4107 17 12.963 17C13.5153 17 13.963 16.5522 13.963 16V9.54172ZM14.9004 21.8124C14.9004 22.8824 14.033 23.7498 12.9629 23.7498C11.8929 23.7498 11.0255 22.8824 11.0255 21.8124C11.0255 20.7423 11.8929 19.8749 12.9629 19.8749C14.033 19.8749 14.9004 20.7423 14.9004 21.8124ZM31.9996 11.491C31.9996 10.9387 31.5518 10.491 30.9996 10.491C30.4473 10.491 29.9996 10.9387 29.9996 11.491V20.5091C29.9996 21.0613 30.4473 21.5091 30.9996 21.5091C31.5518 21.5091 31.9996 21.0613 31.9996 20.5091V11.491Z" fill="#111827"/>
</svg>
