<svg width="32" height="32" viewBox="0 0 32 32" fill="none" xmlns="http://www.w3.org/2000/svg">
<path fill-rule="evenodd" clip-rule="evenodd" d="M1 5.85468C0.447715 5.85468 0 6.30239 0 6.85467V25.1453C0 25.6975 0.447714 26.1453 0.999998 26.1453H24.9269C25.4791 26.1453 25.9269 25.6975 25.9269 25.1453V6.85468C25.9269 6.30239 25.4791 5.85468 24.9269 5.85468H1ZM16.4998 9.54182C16.4998 8.98954 16.0521 8.54182 15.4998 8.54182C14.9475 8.54182 14.4998 8.98954 14.4998 9.54182V22.4583C14.4998 23.0106 14.9475 23.4583 15.4998 23.4583C16.0521 23.4583 16.4998 23.0106 16.4998 22.4583V9.54182ZM10.3333 8.54182C10.8856 8.54182 11.3333 8.98954 11.3333 9.54182V22.4583C11.3333 23.0106 10.8856 23.4583 10.3333 23.4583C9.78106 23.4583 9.33335 23.0106 9.33335 22.4583V9.54182C9.33335 8.98954 9.78106 8.54182 10.3333 8.54182ZM6.16692 9.54182C6.16692 8.98954 5.7192 8.54182 5.16692 8.54182C4.61463 8.54182 4.16692 8.98954 4.16692 9.54182V22.4583C4.16692 23.0106 4.61463 23.4583 5.16692 23.4583C5.7192 23.4583 6.16692 23.0106 6.16692 22.4583V9.54182ZM20.6662 8.54182C21.2185 8.54182 21.6662 8.98954 21.6662 9.54182V22.4583C21.6662 23.0106 21.2185 23.4583 20.6662 23.4583C20.1139 23.4583 19.6662 23.0106 19.6662 22.4583V9.54182C19.6662 8.98954 20.1139 8.54182 20.6662 8.54182ZM31.9996 11.491C31.9996 10.9387 31.5518 10.491 30.9996 10.491C30.4473 10.491 29.9996 10.9387 29.9996 11.491V20.509C29.9996 21.0613 30.4473 21.509 30.9996 21.509C31.5518 21.509 31.9996 21.0613 31.9996 20.509V11.491Z" fill="#111827"/>
</svg>
