<svg width="33" height="33" viewBox="0 0 33 33" fill="none" xmlns="http://www.w3.org/2000/svg">
<path fill-rule="evenodd" clip-rule="evenodd" d="M13.4692 3.2829C12.917 3.2829 12.4692 3.73061 12.4692 4.2829C12.4692 4.83518 12.917 5.2829 13.4692 5.2829H20.4511C21.0033 5.2829 21.4511 4.83518 21.4511 4.2829C21.4511 3.73061 21.0033 3.2829 20.4511 3.2829H13.4692ZM10.1055 28.2829C9.55318 28.2829 9.10547 27.8352 9.10547 27.2829V9.21018C9.10547 8.6579 9.55318 8.21018 10.1055 8.21018H23.8146C24.3668 8.21018 24.8146 8.6579 24.8146 9.21018V27.2829C24.8146 27.8352 24.3668 28.2829 23.8146 28.2829H10.1055ZM17.3314 12.8168C17.8438 13.023 18.092 13.6055 17.8858 14.1179L16.6596 17.1648H18.6831C19.0127 17.1648 19.3211 17.3272 19.5076 17.599C19.6941 17.8708 19.7347 18.217 19.6161 18.5245L17.8912 22.9987C17.6925 23.5141 17.1137 23.7708 16.5984 23.5721C16.0831 23.3734 15.8264 22.7946 16.025 22.2793L17.2258 19.1648H15.1792C14.847 19.1648 14.5365 18.9999 14.3505 18.7246C14.1646 18.4493 14.1275 18.0997 14.2515 17.7915L16.0304 13.3712C16.2366 12.8588 16.8191 12.6107 17.3314 12.8168Z" fill="#1C1B1F"/>
</svg>
