<svg width="33" height="33" viewBox="0 0 33 33" fill="none" xmlns="http://www.w3.org/2000/svg">
<path fill-rule="evenodd" clip-rule="evenodd" d="M4.95996 9.42835C4.95996 8.87606 5.40768 8.42834 5.95996 8.42834H24.0327C24.585 8.42834 25.0327 8.87606 25.0327 9.42834V23.1374C25.0327 23.6897 24.585 24.1374 24.0327 24.1374H5.95996C5.40768 24.1374 4.95996 23.6897 4.95996 23.1374V9.42835ZM15.9961 11.2829C15.9961 10.7306 15.5484 10.2829 14.9961 10.2829C14.4438 10.2829 13.9961 10.7306 13.9961 11.2829V16.2829C13.9961 16.8352 14.4438 17.2829 14.9961 17.2829C15.5484 17.2829 15.9961 16.8352 15.9961 16.2829V11.2829ZM16.4961 20.7829C16.4961 21.6113 15.8245 22.2829 14.9961 22.2829C14.1677 22.2829 13.4961 21.6113 13.4961 20.7829C13.4961 19.9545 14.1677 19.2829 14.9961 19.2829C15.8245 19.2829 16.4961 19.9545 16.4961 20.7829ZM29.96 12.792C29.96 12.2397 29.5122 11.792 28.96 11.792C28.4077 11.792 27.96 12.2397 27.96 12.792V19.7738C27.96 20.3261 28.4077 20.7738 28.96 20.7738C29.5122 20.7738 29.96 20.3261 29.96 19.7738V12.792Z" fill="#1C1B1F"/>
</svg>
