<svg width="32" height="32" viewBox="0 0 32 32" fill="none" xmlns="http://www.w3.org/2000/svg">
<path fill-rule="evenodd" clip-rule="evenodd" d="M0 6.85492C0 6.30263 0.447715 5.85492 1 5.85492H24.9262C25.4785 5.85492 25.9262 6.30263 25.9262 6.85492V25.145C25.9262 25.6973 25.4785 26.145 24.9262 26.145H1C0.447715 26.145 0 25.6973 0 25.145V6.85492ZM13.4393 9.29108C13.9516 9.49728 14.1998 10.0798 13.9936 10.5921L12.2486 14.9281H15.2939C15.6235 14.9281 15.9319 15.0905 16.1184 15.3623C16.3049 15.634 16.3455 15.9803 16.227 16.2878L13.999 22.0667C13.8003 22.5821 13.2215 22.8388 12.7062 22.6401C12.1909 22.4414 11.9342 21.8626 12.1329 21.3473L13.8366 16.9281H10.7683C10.4361 16.9281 10.1255 16.7631 9.9396 16.4878C9.75365 16.2126 9.71654 15.8629 9.84056 15.5547L12.1382 9.84544C12.3444 9.33308 12.9269 9.08489 13.4393 9.29108ZM31.9998 11.4911C31.9998 10.9388 31.552 10.4911 30.9998 10.4911C30.4475 10.4911 29.9998 10.9388 29.9998 11.4911V20.5089C29.9998 21.0612 30.4475 21.5089 30.9998 21.5089C31.552 21.5089 31.9998 21.0612 31.9998 20.5089V11.4911Z" fill="#111827"/>
</svg>
