<svg width="32" height="32" viewBox="0 0 32 32" fill="none" xmlns="http://www.w3.org/2000/svg">
<path fill-rule="evenodd" clip-rule="evenodd" d="M1.23047 4.45053C1.78275 4.45053 2.23047 4.89825 2.23047 5.45053V8.67026H25.7689C29.0826 8.67026 31.7689 11.3565 31.7689 14.6703V20.7747C31.7689 20.8688 31.7603 20.9609 31.7437 21.0503C31.7602 21.1224 31.7689 21.1975 31.7689 21.2747V26.5494C31.7689 27.1017 31.3212 27.5494 30.7689 27.5494C30.2166 27.5494 29.7689 27.1017 29.7689 26.5494V22.2747H12.841C12.839 22.2747 12.837 22.2747 12.835 22.2747C12.8331 22.2747 12.8311 22.2747 12.8291 22.2747H2.23047V26.5494C2.23047 27.1017 1.78275 27.5494 1.23047 27.5494C0.678184 27.5494 0.230469 27.1017 0.230469 26.5494V21.2747C0.230469 21.1975 0.239204 21.1224 0.25574 21.0503C0.239144 20.9609 0.230469 20.8688 0.230469 20.7747V9.67031V9.67026V5.45053C0.230469 4.89825 0.678184 4.45053 1.23047 4.45053ZM11.835 10.6703V20.2747H2.23047V10.6703H11.835Z" fill="#111827"/>
</svg>
