<svg width="33" height="33" viewBox="0 0 33 33" fill="none" xmlns="http://www.w3.org/2000/svg">
<path fill-rule="evenodd" clip-rule="evenodd" d="M4.95996 6.71149C5.51225 6.71149 5.95996 7.1592 5.95996 7.71149V10.14H23.96C27.2737 10.14 29.96 12.8263 29.96 16.14V20.0686C29.96 20.1627 29.9513 20.2549 29.9347 20.3442C29.9512 20.4164 29.96 20.4915 29.96 20.5686V24.8543C29.96 25.4066 29.5122 25.8543 28.96 25.8543C28.4077 25.8543 27.96 25.4066 27.96 24.8543V21.5686H14.3939C14.3922 21.5686 14.3904 21.5686 14.3887 21.5686C14.3869 21.5686 14.3852 21.5686 14.3834 21.5686H5.95996V24.8543C5.95996 25.4066 5.51225 25.8543 4.95996 25.8543C4.40768 25.8543 3.95996 25.4066 3.95996 24.8543V20.5686C3.95996 20.4915 3.9687 20.4164 3.98523 20.3442C3.96864 20.2549 3.95996 20.1627 3.95996 20.0686V11.1401V11.14V7.71149C3.95996 7.1592 4.40768 6.71149 4.95996 6.71149ZM13.3887 12.14V19.5686H5.95996V12.14H13.3887Z" fill="#1C1B1F"/>
</svg>
