<svg width="33" height="33" viewBox="0 0 33 33" fill="none" xmlns="http://www.w3.org/2000/svg">
<path d="M19.7295 19.0563C19.7295 21.6053 21.7959 23.6717 24.3449 23.6717C25.5789 23.6717 26.6997 23.1875 27.5278 22.3987M19.7295 19.0563C19.7295 16.5073 21.7959 14.4409 24.3449 14.4409C26.7253 14.4409 28.6847 16.2429 28.9336 18.5571C28.9632 18.8317 28.7365 19.0563 28.4603 19.0563H19.7295Z" stroke="#1C1B1F" stroke-width="2" stroke-linecap="round"/>
<path d="M20.6523 10.7404H28.0369" stroke="#1C1B1F" stroke-width="2" stroke-linecap="round" stroke-linejoin="round"/>
<path d="M4.96021 8.94235C4.96021 8.91574 4.98178 8.89417 5.00839 8.89417H11.195C13.1011 8.89417 14.6463 10.4394 14.6463 12.3455V12.3455C14.6463 14.2517 13.1011 15.7969 11.195 15.7969H5.00839C4.98178 15.7969 4.96021 15.7753 4.96021 15.7487V8.94235Z" stroke="#1C1B1F" stroke-width="2"/>
<path d="M4.96021 15.8544C4.96021 15.8227 4.98591 15.797 5.01761 15.797H12.5654C14.7377 15.797 16.4986 17.558 16.4986 19.7302V19.7302C16.4986 21.9025 14.7377 23.6634 12.5654 23.6634H5.01761C4.98591 23.6634 4.96021 23.6377 4.96021 23.606V15.8544Z" stroke="#1C1B1F" stroke-width="2"/>
</svg>
