<svg width="32" height="32" viewBox="0 0 32 32" fill="none" xmlns="http://www.w3.org/2000/svg">
<path fill-rule="evenodd" clip-rule="evenodd" d="M0.000220716 6.81833C0.000220716 6.23275 0.474933 5.75806 1.0605 5.75806H8.79875C11.7353 5.75806 14.1158 8.13857 14.1158 11.0751C14.1158 12.5139 13.5443 13.8193 12.6158 14.7765C14.8469 15.6247 16.4324 17.7831 16.4324 20.3118C16.4324 23.5811 13.7821 26.2315 10.5127 26.2315H1.0718C0.479867 26.2315 0 25.7516 0 25.1597V15.4638C0 15.441 0.000714395 15.4183 0.00212206 15.3958C0.000860498 15.3747 0.000220716 15.3533 0.000220716 15.3318V6.81833ZM8.81828 14.392H2.00022V7.75806H8.79875C10.6307 7.75806 12.1158 9.24314 12.1158 11.0751C12.1158 12.9005 10.6412 14.3815 8.81828 14.392ZM2 16.3921V24.2315H10.5127C12.6775 24.2315 14.4324 22.4765 14.4324 20.3118C14.4324 18.147 12.6775 16.392 10.5127 16.392H8.82348C8.81524 16.3921 8.807 16.3921 8.79876 16.3921H2ZM20.628 8.06702C20.0757 8.06702 19.628 8.51473 19.628 9.06702C19.628 9.6193 20.0757 10.067 20.628 10.067H29.8647C30.417 10.067 30.8647 9.6193 30.8647 9.06702C30.8647 8.51473 30.417 8.06702 29.8647 8.06702H20.628ZM30.5198 20.4688H20.5786C21.0382 22.6248 22.9536 24.2418 25.2467 24.2418C26.5233 24.2418 27.6809 23.742 28.5382 22.9254C28.9381 22.5444 29.5711 22.5598 29.952 22.9597C30.333 23.3596 30.3176 23.9925 29.9177 24.3735C28.7034 25.5302 27.0571 26.2418 25.2467 26.2418C21.5061 26.2418 18.4737 23.2094 18.4737 19.4688C18.4737 15.7281 21.5061 12.6958 25.2467 12.6958C28.7904 12.6958 31.6975 15.4164 31.9948 18.8836C32.0732 19.7989 31.3238 20.4688 30.5198 20.4688ZM20.5786 18.4688C21.0382 16.3128 22.9536 14.6958 25.2467 14.6958C27.5396 14.6958 29.4557 16.3132 29.915 18.4688H20.5786Z" fill="#111827"/>
</svg>
