<svg width="33" height="33" viewBox="0 0 33 33" fill="none" xmlns="http://www.w3.org/2000/svg">
<path d="M19.7295 19.1978C19.7295 21.7468 21.7959 23.8132 24.3449 23.8132C25.5789 23.8132 26.6997 23.329 27.5278 22.5401M19.7295 19.1978C19.7295 16.6488 21.7959 14.5824 24.3449 14.5824C26.7253 14.5824 28.6847 16.3844 28.9336 18.6986C28.9632 18.9732 28.7365 19.1978 28.4603 19.1978H19.7295Z" stroke="#1C1B1F" stroke-width="2" stroke-linecap="round"/>
<path d="M20.6523 10.8818H28.0369" stroke="#1C1B1F" stroke-width="2" stroke-linecap="round" stroke-linejoin="round"/>
<path d="M4.96021 9.08383C4.96021 9.05722 4.98178 9.03564 5.00839 9.03564H11.195C13.1011 9.03564 14.6463 10.5809 14.6463 12.487V12.487C14.6463 14.3931 13.1011 15.9384 11.195 15.9384H5.00839C4.98178 15.9384 4.96021 15.9168 4.96021 15.8902V9.08383Z" stroke="#1C1B1F" stroke-width="2"/>
<path d="M4.96021 15.9959C4.96021 15.9642 4.98591 15.9385 5.01761 15.9385H12.5654C14.7377 15.9385 16.4986 17.6994 16.4986 19.8717V19.8717C16.4986 22.0439 14.7377 23.8049 12.5654 23.8049H5.01761C4.98591 23.8049 4.96021 23.7792 4.96021 23.7475V15.9959Z" stroke="#1C1B1F" stroke-width="2"/>
</svg>
