<svg width="33" height="33" viewBox="0 0 33 33" fill="none" xmlns="http://www.w3.org/2000/svg">
<path fill-rule="evenodd" clip-rule="evenodd" d="M24.1454 3.43731C23.6784 3.14249 23.0608 3.28207 22.766 3.74908C22.4711 4.21609 22.6107 4.83368 23.0777 5.1285C24.8752 6.26325 26.3242 7.87261 27.2647 9.77893C27.5091 10.2742 28.1087 10.4776 28.6039 10.2333C29.0992 9.98892 29.3027 9.38932 29.0583 8.89403C27.9547 6.6572 26.2545 4.7688 24.1454 3.43731ZM13.1203 27.2829C12.5681 27.2829 12.1203 27.7306 12.1203 28.2829C12.1203 28.8352 12.5681 29.2829 13.1203 29.2829H20.7999C21.3522 29.2829 21.7999 28.8352 21.7999 28.2829C21.7999 27.7306 21.3522 27.2829 20.7999 27.2829H13.1203ZM11.1541 3.74908C11.4489 4.21609 11.3093 4.83368 10.8423 5.1285C9.04481 6.26325 7.59583 7.87261 6.65532 9.77893C6.41096 10.2742 5.81136 10.4776 5.31608 10.2333C4.82079 9.98892 4.61737 9.38932 4.86173 8.89404C5.96531 6.6572 7.66551 4.7688 9.77465 3.43731C10.2417 3.14249 10.8593 3.28207 11.1541 3.74908ZM7.05202 22.7518C6.83439 23.0934 7.07911 23.553 7.48412 23.553H26.4359C26.8409 23.553 27.0856 23.0934 26.868 22.7518C26.1193 21.5769 24.8116 19.3444 24.5189 17.668C24.3802 16.8737 24.3511 16.0323 24.4012 15.1767C24.6787 10.4387 21.7062 5.24431 16.96 5.24431C12.2138 5.24431 9.24126 10.4387 9.5188 15.1767C9.56891 16.0323 9.53974 16.8737 9.40105 17.668C9.10834 19.3444 7.80065 21.5769 7.05202 22.7518Z" fill="#1C1B1F"/>
</svg>
