<svg width="32" height="32" viewBox="0 0 32 32" fill="none" xmlns="http://www.w3.org/2000/svg">
<path fill-rule="evenodd" clip-rule="evenodd" d="M2.91721 24.6356C2.5122 24.6356 2.26902 24.1757 2.48949 23.836C3.45125 22.3539 5.41087 19.1132 5.82928 16.7169C6.01589 15.6482 6.05515 14.516 5.98772 13.3648C5.61427 6.98947 9.61401 0.000183105 16.0002 0.000183105C22.3865 0.000183105 26.3862 6.98947 26.0128 13.3648C25.9453 14.516 25.9846 15.6482 26.1712 16.7169C26.5896 19.1132 28.5492 22.3539 29.511 23.836C29.7315 24.1757 29.4883 24.6356 29.0833 24.6356H2.91721ZM11.7713 10.3334C11.7713 9.78115 12.219 9.33343 12.7713 9.33343H19.2295C19.6176 9.33343 19.9706 9.55789 20.1351 9.90928C20.2997 10.2607 20.2462 10.6755 19.9978 10.9736L14.9063 17.0834H19.2295C19.7818 17.0834 20.2295 17.5311 20.2295 18.0834C20.2295 18.6357 19.7818 19.0834 19.2295 19.0834H12.7713C12.3832 19.0834 12.0302 18.8589 11.8657 18.5075C11.7011 18.1561 11.7546 17.7413 12.003 17.4432L17.0945 11.3334H12.7713C12.219 11.3334 11.7713 10.8857 11.7713 10.3334ZM10.8342 29.9999C10.2819 29.9999 9.8342 30.4476 9.8342 30.9999C9.8342 31.5522 10.2819 31.9999 10.8342 31.9999H21.1675C21.7197 31.9999 22.1675 31.5522 22.1675 30.9999C22.1675 30.4476 21.7197 29.9999 21.1675 29.9999H10.8342Z" fill="#111827"/>
</svg>
