<svg width="33" height="33" viewBox="0 0 33 33" fill="none" xmlns="http://www.w3.org/2000/svg">
<path fill-rule="evenodd" clip-rule="evenodd" d="M6.617 22.5545C6.39893 22.8958 6.64334 23.3556 7.04835 23.3556H26.8713C27.2763 23.3556 27.5207 22.8958 27.3026 22.5545C26.5265 21.3399 25.1419 18.9875 24.8342 17.225C24.6897 16.3976 24.6593 15.5211 24.7115 14.6298C25.0006 9.69403 21.904 4.28293 16.9598 4.28293C12.0156 4.28293 8.91899 9.69403 9.20811 14.6298C9.26032 15.5211 9.22992 16.3976 9.08545 17.225C8.77771 18.9875 7.39308 21.3399 6.617 22.5545ZM12.96 27.2829C12.4077 27.2829 11.96 27.7306 11.96 28.2829C11.96 28.8352 12.4077 29.2829 12.96 29.2829H20.96C21.5122 29.2829 21.96 28.8352 21.96 28.2829C21.96 27.7306 21.5122 27.2829 20.96 27.2829H12.96Z" fill="#1C1B1F"/>
</svg>
