<svg width="32" height="32" viewBox="0 0 32 32" fill="none" xmlns="http://www.w3.org/2000/svg">
<path fill-rule="evenodd" clip-rule="evenodd" d="M2.489 23.836C2.26854 24.1757 2.51171 24.6356 2.91672 24.6356H29.0828C29.4878 24.6356 29.731 24.1757 29.5105 23.836C28.5488 22.3539 26.5892 19.1132 26.1707 16.7169C25.9841 15.6482 25.9449 14.516 26.0123 13.3648C26.3858 6.98945 22.386 0.000152588 15.9998 0.000152588C9.61353 0.000152588 5.61379 6.98945 5.98723 13.3648C6.05467 14.516 6.01541 15.6482 5.8288 16.7169C5.41039 19.1132 3.45076 22.3539 2.489 23.836ZM10.8337 29.9999C10.2814 29.9999 9.83372 30.4476 9.83372 30.9999C9.83372 31.5522 10.2814 31.9999 10.8337 31.9999H21.167C21.7193 31.9999 22.167 31.5522 22.167 30.9999C22.167 30.4476 21.7193 29.9999 21.167 29.9999H10.8337Z" fill="#111827"/>
</svg>
