<svg width="32" height="32" viewBox="0 0 32 32" fill="none" xmlns="http://www.w3.org/2000/svg">
<path fill-rule="evenodd" clip-rule="evenodd" d="M2.489 23.836C2.26854 24.1758 2.51171 24.6356 2.91673 24.6356H9.83371V25.9085C9.83371 27.5288 10.487 29.0797 11.6451 30.2209C12.8026 31.3616 14.3696 31.9999 16.0004 31.9999C17.6312 31.9999 19.1981 31.3616 20.3556 30.2209C21.5137 29.0797 22.167 27.5288 22.167 25.9085V24.6356H29.0829C29.4879 24.6356 29.7311 24.1758 29.5106 23.836C28.5488 22.3539 26.5892 19.1132 26.1708 16.7169C25.9842 15.6482 25.9449 14.516 26.0124 13.3648C26.3858 6.98946 22.386 0.000152588 15.9998 0.000152588C9.61354 0.000152588 5.61379 6.98946 5.98724 13.3648C6.05467 14.516 6.01541 15.6482 5.8288 16.7169C5.41039 19.1132 3.45077 22.3539 2.489 23.836ZM20.167 24.6356H11.8337V25.9085C11.8337 26.9888 12.2691 28.0279 13.0489 28.7964C13.8292 29.5653 14.8906 29.9999 16.0004 29.9999C17.1101 29.9999 18.1715 29.5653 18.9518 28.7964C19.7316 28.0279 20.167 26.9888 20.167 25.9085V24.6356Z" fill="#111827"/>
</svg>
