<svg width="32" height="32" viewBox="0 0 32 32" fill="none" xmlns="http://www.w3.org/2000/svg">
<path fill-rule="evenodd" clip-rule="evenodd" d="M1.59291 24.2138C1.36867 24.5327 1.3407 24.95 1.52039 25.2961C1.7001 25.6422 2.05761 25.8594 2.44758 25.8594H9.97014V26.0427C9.97014 27.6277 10.6092 29.1446 11.7417 30.2606C12.8736 31.376 14.4057 32 16 32C17.5943 32 19.1263 31.376 20.2583 30.2606C21.3908 29.1446 22.0298 27.6277 22.0298 26.0427V25.8594H29.5525C29.9425 25.8594 30.3 25.6422 30.4797 25.2961C30.6594 24.95 30.6313 24.5326 30.407 24.2136L30.4002 24.2038L30.3757 24.1685C30.3538 24.1368 30.3209 24.089 30.2784 24.0264C30.1934 23.9012 30.0703 23.7173 29.9204 23.4865C29.6201 23.0242 29.2146 22.3769 28.7935 21.637C27.9306 20.121 27.079 18.3471 26.8428 16.9944C26.6796 16.0598 26.6423 15.0506 26.7037 14.0009C26.7973 12.4045 26.6269 10.7711 26.219 9.20966C25.3084 9.98175 24.1299 10.4474 22.8425 10.4474C19.9575 10.4474 17.6188 8.1087 17.6188 5.22372C17.6188 3.41727 18.5358 1.82499 19.9296 0.886925C18.7498 0.322823 17.4341 0 16 0C12.4957 0 9.69828 1.92764 7.8633 4.5931C6.03608 7.24728 5.10314 10.7029 5.29632 14.0009C5.35781 15.0506 5.32043 16.0598 5.15724 16.9944C4.92105 18.3471 4.06948 20.121 3.20658 21.637C2.78546 22.3769 2.37993 23.0242 2.07969 23.4865C1.92978 23.7173 1.80667 23.9012 1.72168 24.0264C1.6792 24.089 1.64628 24.1368 1.62436 24.1685L1.5999 24.2038L1.59419 24.2119L1.59291 24.2138ZM12.0596 26.0427V25.8594H19.9403V26.0427C19.9403 27.0636 19.529 28.0457 18.7917 28.7723C18.0539 29.4993 17.0499 29.9105 16 29.9105C14.95 29.9105 13.9461 29.4993 13.2083 28.7723C12.471 28.0457 12.0596 27.0636 12.0596 26.0427Z" fill="#111827"/>
<path d="M22.8423 9.22372C25.0514 9.22372 26.8423 7.43286 26.8423 5.22372C26.8423 3.01459 25.0514 1.22372 22.8423 1.22372C20.6331 1.22372 18.8423 3.01459 18.8423 5.22372C18.8423 7.43286 20.6331 9.22372 22.8423 9.22372Z" fill="#ED6561"/>
</svg>
