<svg width="33" height="33" viewBox="0 0 33 33" fill="none" xmlns="http://www.w3.org/2000/svg">
<path d="M12.96 23.3557V24.3411C12.96 25.3865 13.3814 26.3891 14.1315 27.1284C14.8817 27.8676 15.8991 28.2829 16.96 28.2829C18.0208 28.2829 19.0382 27.8676 19.7884 27.1284C20.5385 26.3891 20.96 25.3865 20.96 24.3411V23.3557" stroke="#1C1B1F" stroke-width="2" stroke-linecap="round" stroke-linejoin="round"/>
<path fill-rule="evenodd" clip-rule="evenodd" d="M6.617 22.5546C6.39893 22.8959 6.64334 23.3557 7.04835 23.3557H26.8713C27.2763 23.3557 27.5207 22.8959 27.3026 22.5546C26.5265 21.34 25.1419 18.9875 24.8342 17.225C24.6897 16.3976 24.6593 15.5211 24.7115 14.6298C25.0006 9.69407 21.904 4.28297 16.9598 4.28297C12.0156 4.28297 8.91899 9.69407 9.20811 14.6298C9.26032 15.5211 9.22992 16.3976 9.08545 17.225C8.77771 18.9875 7.39308 21.34 6.617 22.5546ZM14.1909 11.2829C13.6386 11.2829 13.1909 11.7306 13.1909 12.2829C13.1909 12.8352 13.6386 13.2829 14.1909 13.2829H16.9648L13.4073 17.7695C13.169 18.0701 13.1236 18.4806 13.2906 18.826C13.4575 19.1714 13.8073 19.3908 14.1909 19.3908H19.0339C19.5862 19.3908 20.0339 18.9431 20.0339 18.3908C20.0339 17.8385 19.5862 17.3908 19.0339 17.3908H16.26L19.8175 12.9042C20.0558 12.6036 20.1012 12.1931 19.9342 11.8478C19.7673 11.5024 19.4175 11.2829 19.0339 11.2829H14.1909Z" fill="#1C1B1F"/>
</svg>
