<svg width="33" height="33" viewBox="0 0 33 33" fill="none" xmlns="http://www.w3.org/2000/svg">
<path fill-rule="evenodd" clip-rule="evenodd" d="M6.2873 4.54296C6.69595 4.17146 7.3284 4.20157 7.69991 4.61023L27.6999 26.6102C28.0714 27.0189 28.0413 27.6513 27.6326 28.0228C27.224 28.3944 26.5915 28.3642 26.22 27.9556L22.0383 23.3557H7.04885C6.64384 23.3557 6.39942 22.8959 6.61749 22.5546C7.39357 21.34 8.77821 18.9875 9.08594 17.225C9.23042 16.3976 9.26081 15.5211 9.2086 14.6298C9.11739 13.0726 9.36319 11.468 9.89771 10.001L6.22003 5.95558C5.84852 5.54692 5.87864 4.91447 6.2873 4.54296ZM11.96 28.2803C11.96 27.728 12.4077 27.2803 12.96 27.2803H20.96C21.5123 27.2803 21.96 27.728 21.96 28.2803C21.96 28.8326 21.5123 29.2803 20.96 29.2803H12.96C12.4077 29.2803 11.96 28.8326 11.96 28.2803ZM24.8346 17.225C24.6901 16.3976 24.6597 15.5211 24.7119 14.6298C25.001 9.69407 21.9044 4.28297 16.9602 4.28297C15.0066 4.28297 13.3414 5.12783 12.0596 6.45438L26.8129 22.6137C26.8946 22.7031 27.0545 22.5871 26.9957 22.4812C26.3043 21.2339 25.1345 18.9426 24.8346 17.225Z" fill="#1C1B1F"/>
</svg>
