<svg width="32" height="32" viewBox="0 0 32 32" fill="none" xmlns="http://www.w3.org/2000/svg">
<path fill-rule="evenodd" clip-rule="evenodd" d="M24.8479 0.155448C24.3809 -0.139374 23.7633 0.000212917 23.4685 0.467223C23.1737 0.934234 23.3132 1.55182 23.7803 1.84664C26.0659 3.28957 27.9084 5.33601 29.1043 7.76005C29.3487 8.25533 29.9483 8.45875 30.4436 8.21439C30.9389 7.97004 31.1423 7.37044 30.8979 6.87515C29.5389 4.12059 27.4452 1.79512 24.8479 0.155448ZM11.201 29.9991C10.6487 29.9991 10.201 30.4468 10.201 30.9991C10.201 31.5514 10.6487 31.9991 11.201 31.9991H20.7998C21.3521 31.9991 21.7998 31.5514 21.7998 30.9991C21.7998 30.4468 21.3521 29.9991 20.7998 29.9991H11.201ZM8.53142 0.467224C8.82624 0.934234 8.68666 1.55182 8.21964 1.84664C5.93399 3.28957 4.09149 5.33601 2.89555 7.76005C2.6512 8.25534 2.0516 8.45875 1.55631 8.2144C1.06103 7.97004 0.857607 7.37044 1.10196 6.87516C2.46097 4.12059 4.55469 1.79512 7.152 0.155448C7.61901 -0.139374 8.2366 0.000213156 8.53142 0.467224ZM3.48621 24.2883C3.26636 24.6285 3.51065 25.0872 3.91566 25.0872H28.085C28.4901 25.0872 28.7343 24.6285 28.5145 24.2883C27.609 22.8873 25.8319 19.9275 25.4484 17.7313C25.2751 16.7385 25.2386 15.6869 25.3012 14.6174C25.6481 8.69526 21.9327 2.20274 16.0004 2.20274C10.068 2.20274 6.35258 8.69526 6.69948 14.6174C6.76212 15.6869 6.72565 16.7385 6.55231 17.7313C6.16883 19.9275 4.3917 22.8873 3.48621 24.2883Z" fill="#111827"/>
</svg>
