<svg width="32" height="33" viewBox="0 0 32 33" fill="none" xmlns="http://www.w3.org/2000/svg">
<path d="M10.667 25.4304V26.7443C10.667 28.1382 11.2289 29.475 12.2291 30.4606C13.2293 31.4463 14.5859 32 16.0003 32C17.4148 32 18.7714 31.4463 19.7716 30.4606C20.7718 29.475 21.3337 28.1382 21.3337 26.7443V25.4304" stroke="#111827" stroke-width="2" stroke-linecap="round" stroke-linejoin="round"/>
<path fill-rule="evenodd" clip-rule="evenodd" d="M2.03654 24.631C1.81581 24.9706 2.0589 25.4304 2.46392 25.4304H29.5365C29.9415 25.4304 30.1846 24.9706 29.9639 24.631C28.9773 23.1133 26.9338 19.7439 26.4994 17.2562C26.3068 16.1529 26.2662 14.9843 26.3358 13.7959C26.7213 7.21483 22.5925 0 16.0002 0C9.40789 0 5.27908 7.21483 5.66458 13.7959C5.73419 14.9843 5.69366 16.1529 5.50103 17.2562C5.06665 19.7439 3.02308 23.1133 2.03654 24.631ZM12.3084 9.66662C11.7561 9.66662 11.3084 10.1143 11.3084 10.6666C11.3084 11.2189 11.7561 11.6666 12.3084 11.6666H16.6966L11.5248 18.1892C11.2864 18.4898 11.2411 18.9003 11.408 19.2457C11.5749 19.5911 11.9247 19.8105 12.3084 19.8105H18.7657C19.3179 19.8105 19.7657 19.3628 19.7657 18.8105C19.7657 18.2583 19.3179 17.8105 18.7657 17.8105H14.3774L19.5492 11.2879C19.7876 10.9873 19.8329 10.5769 19.666 10.2315C19.4991 9.88608 19.1493 9.66662 18.7657 9.66662H12.3084Z" fill="#111827"/>
</svg>
