<svg width="33" height="33" viewBox="0 0 33 33" fill="none" xmlns="http://www.w3.org/2000/svg">
<path fill-rule="evenodd" clip-rule="evenodd" d="M7.69991 4.61023C7.3284 4.20157 6.69595 4.17146 6.2873 4.54296C5.87864 4.91447 5.84852 5.54692 6.22003 5.95558L9.8977 10.001C9.36319 11.468 9.11739 13.0726 9.2086 14.6298C9.26081 15.5211 9.23042 16.3976 9.08594 17.225C8.77821 18.9875 7.39357 21.34 6.61749 22.5546C6.39942 22.8959 6.64384 23.3557 7.04885 23.3557L11.96 23.3557V24.3411C11.96 25.6565 12.4904 26.915 13.4296 27.8406C14.3684 28.7657 15.6386 29.2828 16.96 29.2828C18.2814 29.2828 19.5515 28.7657 20.4903 27.8406C21.4296 26.915 21.96 25.6565 21.96 24.3411V23.3557L22.0383 23.3557L26.22 27.9556C26.5915 28.3642 27.224 28.3944 27.6326 28.0228C28.0413 27.6513 28.0714 27.0189 27.6999 26.6102L7.69991 4.61023ZM19.96 23.3557H13.96V24.3411C13.96 25.1165 14.2724 25.8632 14.8334 26.4161C15.395 26.9694 16.1596 27.2828 16.96 27.2828C17.7603 27.2828 18.525 26.9694 19.0865 26.4161C19.6475 25.8632 19.96 25.1165 19.96 24.3411V23.3557ZM24.8341 17.225C24.6896 16.3976 24.6592 15.5211 24.7114 14.6298C25.0005 9.69407 21.9039 4.28297 16.9597 4.28297C15.0061 4.28297 13.3409 5.12783 12.0591 6.45438L26.6445 22.6556C26.7238 22.7437 26.8757 22.6388 26.8228 22.5328C26.233 21.3501 25.1449 19.0051 24.8341 17.225Z" fill="#1C1B1F"/>
</svg>
