<svg width="33" height="33" viewBox="0 0 33 33" fill="none" xmlns="http://www.w3.org/2000/svg">
<path fill-rule="evenodd" clip-rule="evenodd" d="M7.04813 23.3556C6.64312 23.3556 6.3987 22.8958 6.61677 22.5545C7.39285 21.3399 8.77749 18.9875 9.08522 17.225C9.2297 16.3976 9.26009 15.5211 9.20788 14.6298C8.91877 9.69403 12.0154 4.28293 16.9596 4.28293C21.9038 4.28293 25.0004 9.69403 24.7113 14.6298C24.6591 15.5211 24.6895 16.3976 24.8339 17.225C25.1417 18.9875 26.5263 21.3399 27.3024 22.5545C27.5205 22.8958 27.276 23.3556 26.871 23.3556H7.04813ZM13.4597 12.2829C13.4597 11.7306 13.9075 11.2829 14.4597 11.2829H19.4597C19.8478 11.2829 20.2007 11.5073 20.3653 11.8587C20.5299 12.2101 20.4764 12.625 20.228 12.9231L16.5948 17.2829H19.4597C20.012 17.2829 20.4597 17.7306 20.4597 18.2829C20.4597 18.8352 20.012 19.2829 19.4597 19.2829H14.4597C14.0717 19.2829 13.7187 19.0584 13.5541 18.707C13.3896 18.3557 13.4431 17.9408 13.6915 17.6427L17.3247 13.2829H14.4597C13.9075 13.2829 13.4597 12.8352 13.4597 12.2829ZM12.9597 27.2829C12.4075 27.2829 11.9597 27.7306 11.9597 28.2829C11.9597 28.8352 12.4075 29.2829 12.9597 29.2829H20.9597C21.512 29.2829 21.9597 28.8352 21.9597 28.2829C21.9597 27.7306 21.512 27.2829 20.9597 27.2829H12.9597Z" fill="#1C1B1F"/>
</svg>
