<svg width="33" height="33" viewBox="0 0 33 33" fill="none" xmlns="http://www.w3.org/2000/svg">
<path fill-rule="evenodd" clip-rule="evenodd" d="M16.9601 13.7115C17.9069 13.7115 18.7342 13.1997 19.1805 12.4378C19.2 12.4445 19.2198 12.4508 19.24 12.4564C20.7571 12.8823 22.1247 13.7245 23.1879 14.8876C24.251 16.0507 24.9674 17.4882 25.2557 19.0373C25.2602 19.0615 25.2656 19.0854 25.2717 19.1088C24.4108 19.5245 23.8169 20.4058 23.8169 21.4258C23.8169 22.846 24.9682 23.9972 26.3883 23.9972C27.8085 23.9972 28.9598 22.846 28.9598 21.4258C28.9598 20.3001 28.2364 19.3433 27.2292 18.995C27.244 18.8902 27.2424 18.7812 27.2219 18.6714C26.8653 16.7551 25.9792 14.9769 24.664 13.5382C24.189 13.0185 23.6649 12.5507 23.1006 12.1401H28.9598C29.5121 12.1401 29.9598 11.6924 29.9598 11.1401C29.9598 10.5879 29.5121 10.1401 28.9598 10.1401H19.5312C19.465 10.1401 19.4003 10.1466 19.3377 10.1589C18.9521 9.22544 18.0328 8.5686 16.9601 8.5686C15.8874 8.5686 14.9681 9.22547 14.5825 10.1589C14.5197 10.1466 14.4549 10.1401 14.3885 10.1401H4.95996C4.40768 10.1401 3.95996 10.5879 3.95996 11.1401C3.95996 11.6924 4.40768 12.1401 4.95996 12.1401H10.8199C10.2556 12.5507 9.73145 13.0185 9.25642 13.5382C7.94128 14.9769 7.0552 16.7551 6.69852 18.6714C6.6781 18.7811 6.67644 18.89 6.69127 18.9947C5.68365 19.3429 4.95996 20.2998 4.95996 21.4258C4.95996 22.846 6.11123 23.9972 7.53139 23.9972C8.95155 23.9972 10.1028 22.846 10.1028 21.4258C10.1028 20.406 9.50921 19.5249 8.64868 19.1091C8.65486 19.0856 8.66023 19.0617 8.66476 19.0373C8.9531 17.4882 9.66942 16.0507 10.7326 14.8876C11.7958 13.7245 13.1634 12.8823 14.6805 12.4564C14.7006 12.4508 14.7203 12.4446 14.7397 12.4378C15.186 13.1998 16.0133 13.7115 16.9601 13.7115Z" fill="#1C1B1F"/>
</svg>
