<svg width="32" height="32" viewBox="0 0 32 32" fill="none" xmlns="http://www.w3.org/2000/svg">
<path fill-rule="evenodd" clip-rule="evenodd" d="M15.9997 12.7859C17.2737 12.7859 18.3746 12.0447 18.8946 10.97L18.9172 10.9766C20.8584 11.5216 22.6083 12.5992 23.9687 14.0874C25.3291 15.5756 26.2456 17.4149 26.6146 19.3972C26.6161 19.4054 26.6178 19.4136 26.6195 19.4218C26.6201 19.4249 26.6208 19.4279 26.6215 19.431C25.4212 19.897 24.5703 21.0632 24.5703 22.4282C24.5703 24.2033 26.0093 25.6423 27.7844 25.6423C29.5595 25.6423 30.9985 24.2033 30.9985 22.4282C30.9985 20.9323 29.9766 19.6751 28.5927 19.3166C28.6022 19.2236 28.5988 19.1278 28.5808 19.0312C28.1435 16.6818 27.0572 14.5018 25.4449 12.738C24.6801 11.9013 23.8114 11.1741 22.8639 10.5719H30.9989C31.5512 10.5719 31.9989 10.1242 31.9989 9.5719C31.9989 9.01962 31.5512 8.5719 30.9989 8.5719H19.2139C19.1612 8.5719 19.1096 8.57597 19.0591 8.5838C18.6423 7.29208 17.4302 6.35767 15.9997 6.35767C14.5693 6.35767 13.3572 7.29209 12.9403 8.58382C12.8899 8.57597 12.8382 8.5719 12.7855 8.5719H1.00049C0.448204 8.5719 0.000488281 9.01962 0.000488281 9.5719C0.000488281 10.1242 0.448204 10.5719 1.00049 10.5719H9.13585C8.18836 11.1741 7.31968 11.9013 6.55486 12.738C4.94251 14.5018 3.85619 16.6818 3.41891 19.0312C3.40095 19.1277 3.3975 19.2235 3.40701 19.3164C2.0228 19.6746 1.00049 20.932 1.00049 22.4282C1.00049 24.2033 2.43949 25.6423 4.21459 25.6423C5.98969 25.6423 7.42869 24.2033 7.42869 22.4282C7.42869 21.0635 6.57813 19.8974 5.3782 19.4312C5.3807 19.42 5.38302 19.4086 5.38514 19.3972C5.75409 17.4149 6.67065 15.5756 8.03104 14.0874C9.39143 12.5992 11.1413 11.5216 13.0825 10.9766C13.09 10.9745 13.0975 10.9723 13.1049 10.97C13.625 12.0447 14.7258 12.7859 15.9997 12.7859Z" fill="#111827"/>
</svg>
