<svg width="33" height="33" viewBox="0 0 33 33" fill="none" xmlns="http://www.w3.org/2000/svg">
<path fill-rule="evenodd" clip-rule="evenodd" d="M7.94531 9.49658C7.94531 8.9443 8.39303 8.49658 8.94531 8.49658H12.0512C12.4178 8.49658 12.755 8.69721 12.93 9.0194L14.385 11.6991H19.4702L18.4954 10.0489C18.3128 9.7398 18.31 9.35649 18.4879 9.04466C18.6659 8.73283 18.9974 8.54034 19.3564 8.54034H24.9996C25.5519 8.54034 25.9996 8.98806 25.9996 9.54034V11.0703C25.9996 11.6226 25.5519 12.0703 24.9996 12.0703C24.4473 12.0703 23.9996 11.6226 23.9996 11.0703V10.5403H21.1086L23.3329 14.306L21.6109 15.3232L20.6516 13.6991H15.471L18.1795 18.6872C18.443 19.1725 18.2632 19.7796 17.7778 20.0432C17.2925 20.3067 16.6854 20.1269 16.4219 19.6415L13.6376 14.5138L12.7258 15.7117L11.1437 14.5075L8.12224 18.5235C7.78992 18.9646 7.87813 19.5916 8.31925 19.9239C8.76037 20.2563 9.38736 20.168 9.71968 19.7269L12.7429 15.7086C13.5373 16.6023 14.0199 17.7794 14.0199 19.0692C14.0199 21.8637 11.7545 24.1292 8.95991 24.1292C6.16534 24.1292 3.8999 21.8637 3.8999 19.0692C3.8999 16.2746 6.16534 14.0092 8.95991 14.0092C9.7386 14.0092 10.4762 14.185 11.1352 14.4993L12.5911 12.5865L11.4563 10.4966H8.94531C8.39303 10.4966 7.94531 10.0489 7.94531 9.49658ZM21.6124 15.3315C20.5873 16.2502 19.9424 17.5844 19.9424 19.0692C19.9424 21.8403 22.1888 24.0868 24.96 24.0868C27.7311 24.0868 29.9775 21.8403 29.9775 19.0692C29.9775 16.2981 27.7311 14.0516 24.96 14.0516C24.3922 14.0516 23.8465 14.1459 23.3376 14.3197L25.861 18.6131C26.1413 19.0889 25.9828 19.7019 25.507 19.9822C25.0311 20.2625 24.4181 20.104 24.1378 19.6281L21.6124 15.3315Z" fill="#1C1B1F"/>
</svg>
