<svg width="32" height="32" viewBox="0 0 32 32" fill="none" xmlns="http://www.w3.org/2000/svg">
<path fill-rule="evenodd" clip-rule="evenodd" d="M5.19104 7.52216C5.19104 6.96987 5.63875 6.52216 6.19104 6.52216H10.0023C10.3689 6.52216 10.7061 6.72278 10.8811 7.04497L12.731 10.452H19.5041L18.1056 8.08445C17.923 7.77531 17.9201 7.392 18.0981 7.08017C18.2761 6.76834 18.6075 6.57586 18.9666 6.57586H25.8913C26.4436 6.57586 26.8913 7.02357 26.8913 7.57586V9.45326C26.8913 10.0055 26.4436 10.4533 25.8913 10.4533C25.3391 10.4533 24.8913 10.0055 24.8913 9.45326V8.57586H20.7187L23.6506 13.5394L21.9286 14.5566L20.6855 12.452H13.817L17.3227 18.9083C17.5863 19.3937 17.4065 20.0008 16.9211 20.2643C16.4358 20.5279 15.8287 20.3481 15.5651 19.8627L11.9809 13.2618L10.6494 15.0112L9.05791 13.7999L10.9344 11.3345L9.40733 8.52216H6.19104C5.63875 8.52216 5.19104 8.07444 5.19104 7.52216ZM21.735 14.6823C20.4772 15.8097 19.6858 17.4468 19.6858 19.2688C19.6858 22.6692 22.4424 25.4259 25.8429 25.4259C29.2434 25.4259 32 22.6692 32 19.2688C32 15.8683 29.2434 13.1117 25.8429 13.1117C25.1462 13.1117 24.4764 13.2274 23.8519 13.4407L26.9484 18.709C27.2924 19.2929 27.0978 20.0452 26.5139 20.3891C25.93 20.7331 25.1778 20.5385 24.8338 19.9546L21.735 14.6823ZM6.20916 25.4779C9.63838 25.4779 12.4183 22.6979 12.4183 19.2687C12.4183 17.686 11.8261 16.2416 10.8513 15.145L7.14147 20.0758C6.73369 20.6171 5.96431 20.7254 5.42301 20.3176C4.88171 19.9098 4.77347 19.1404 5.18125 18.5991L8.89173 13.6674C8.07975 13.2778 7.16994 13.0596 6.20916 13.0596C2.77993 13.0596 0 15.8395 0 19.2687C0 22.6979 2.77993 25.4779 6.20916 25.4779Z" fill="#111827"/>
</svg>
