<svg width="32" height="33" viewBox="0 0 32 33" fill="none" xmlns="http://www.w3.org/2000/svg">
<g clip-path="url(#clip0_303_26)">
<path fill-rule="evenodd" clip-rule="evenodd" d="M24 30.1393L32 16.2829L24 2.42651L8 2.42651L0 16.2829L8 30.1393H24ZM12.1743 17.4722V15.4066L13.5098 15.394V18.8289C12.9529 18.5022 12.4925 18.0337 12.1743 17.4722ZM14.6735 19.2762V13.694H16.0091V19.2762C15.5676 19.3576 15.115 19.3576 14.6735 19.2762ZM18.5374 17.4639V17.4676L18.5386 17.4619L18.5374 17.4639ZM18.5374 16.244V17.4639C18.2187 18.0233 17.7585 18.4891 17.203 18.8146V16.244H18.5374ZM15.2192 10.4279C12.4167 10.4279 10.1449 12.6997 10.1449 15.502C10.1449 18.3044 12.4167 20.5762 15.2192 20.5762C18.0216 20.5762 20.2934 18.3044 20.2934 15.502C20.2934 12.6997 18.0216 10.4279 15.2192 10.4279ZM8.14493 15.502C8.14493 11.5951 11.3122 8.4279 15.2192 8.4279C19.1262 8.4279 22.2934 11.5951 22.2934 15.502C22.2934 17.095 21.7669 18.565 20.8784 19.7474L23.5606 22.4296C23.9511 22.8201 23.9511 23.4532 23.5606 23.8438C23.17 24.2343 22.5369 24.2343 22.1463 23.8438L19.4641 21.1616C18.2817 22.0498 16.8119 22.5762 15.2192 22.5762C11.3122 22.5762 8.14493 19.409 8.14493 15.502Z" fill="#111827"/>
</g>
<defs>
<clipPath id="clip0_303_26">
<rect width="32" height="32" fill="white" transform="translate(0 0.282959)"/>
</clipPath>
</defs>
</svg>
