<svg width="32" height="33" viewBox="0 0 32 33" fill="none" xmlns="http://www.w3.org/2000/svg">
<path fill-rule="evenodd" clip-rule="evenodd" d="M0.279 17.3238L7.24 29.3808H7.2385C7.61 30.0228 8.2935 30.4193 9.035 30.4218H22.96C23.7025 30.4208 24.3885 30.0243 24.76 29.3808L31.721 17.3238C32.093 16.6798 32.093 15.8858 31.721 15.2418L24.761 3.18529C24.391 2.54429 23.7085 2.14779 22.9685 2.14429H9.04C8.2975 2.14529 7.6115 2.54179 7.24 3.18529L0.279 15.2418C-0.093 15.8858 -0.093 16.6798 0.279 17.3238ZM20.5 19.7593L22.6334 21.8978C22.6962 21.9607 22.7314 22.0458 22.7314 22.1346C22.7314 22.2234 22.6962 22.3085 22.6334 22.3713L22.0735 22.9313C22.0106 22.9941 21.9255 23.0293 21.8367 23.0293C21.7479 23.0293 21.6628 22.9941 21.6 22.9313L19.4615 20.7928C19.4392 20.7706 19.4202 20.7454 19.405 20.7178C18.2383 21.6282 16.7684 22.0595 15.2947 21.9239C13.8211 21.7882 12.4546 21.0959 11.4737 19.9878C10.4928 18.8798 9.97122 17.4394 10.0153 15.9602C10.0593 14.481 10.6657 13.0743 11.7108 12.0266C12.7559 10.9789 14.1612 10.3691 15.6403 10.3214C17.1194 10.2737 18.561 10.7917 19.6715 11.7699C20.7819 12.7481 21.4776 14.1129 21.6169 15.5862C21.7561 17.0595 21.3285 18.5304 20.4209 19.6993C20.4501 19.7153 20.4767 19.7355 20.5 19.7593ZM13.3891 19.7777C14.1087 20.2584 14.9546 20.5149 15.82 20.5148C16.9801 20.5147 18.0927 20.0538 18.913 19.2334C19.7334 18.4131 20.1943 17.3005 20.1945 16.1403C20.1945 15.275 19.938 14.4291 19.4573 13.7095C18.9766 12.99 18.2934 12.4292 17.4939 12.098C16.6945 11.7668 15.8148 11.6801 14.9661 11.8489C14.1173 12.0177 13.3377 12.4344 12.7259 13.0462C12.114 13.6581 11.6973 14.4377 11.5285 15.2864C11.3597 16.1352 11.4464 17.0149 11.7776 17.8143C12.1088 18.6138 12.6696 19.297 13.3891 19.7777ZM13.0235 17.7148V15.9068L14.1925 15.8958V18.9023C13.705 18.6163 13.302 18.2063 13.0235 17.7148ZM15.211 19.2938V14.4078H16.38V19.2938C15.9935 19.3651 15.5974 19.3651 15.211 19.2938ZM18.593 17.7076V17.7108L18.594 17.7058C18.5936 17.7064 18.5933 17.707 18.593 17.7076ZM18.593 16.6398V17.7076C18.314 18.1972 17.9112 18.6049 17.425 18.8898V16.6398H18.593Z" fill="#111827"/>
</svg>
