<svg width="32" height="32" viewBox="0 0 32 32" fill="none" xmlns="http://www.w3.org/2000/svg">
<path fill-rule="evenodd" clip-rule="evenodd" d="M7.42332 4.89249L1.22252 17.3506C0.451972 18.4496 -0.000244141 19.7881 -0.000244141 21.2323C-0.000244141 24.9709 3.03048 28.0016 6.76907 28.0016C10.5077 28.0016 13.5384 24.9709 13.5384 21.2323C13.5384 20.6072 13.4537 20.0019 13.2951 19.4273L12.882 11.2705H19.0942L18.6325 19.7141C18.5207 20.2021 18.4616 20.7103 18.4616 21.2323C18.4616 24.9709 21.4923 28.0016 25.2309 28.0016C28.9695 28.0016 32.0002 24.9709 32.0002 21.2323C32.0002 19.7629 31.532 18.4028 30.7367 17.2931L24.5799 4.89315C24.4729 4.67768 24.2926 4.50607 24.0676 4.42079C22.5818 3.85753 21.5708 3.88334 20.0918 4.3466C19.7074 4.46699 19.4469 4.82073 19.4249 5.22291L19.2036 9.27054H12.7807L12.5759 5.22595C12.5554 4.82223 12.2945 4.46648 11.9088 4.34574C10.4311 3.88325 9.42037 3.85787 7.93516 4.42099C7.71053 4.50616 7.53036 4.67743 7.42332 4.89249ZM6.76907 16.463C4.13505 16.463 1.99976 18.5983 1.99976 21.2323C1.99976 23.8663 4.13505 26.0016 6.76907 26.0016C9.40308 26.0016 11.5384 23.8663 11.5384 21.2323C11.5384 18.5983 9.40308 16.463 6.76907 16.463ZM20.4616 21.2323C20.4616 18.5983 22.5969 16.463 25.2309 16.463C27.8649 16.463 30.0002 18.5983 30.0002 21.2323C30.0002 23.8663 27.8649 26.0016 25.2309 26.0016C22.5969 26.0016 20.4616 23.8663 20.4616 21.2323Z" fill="#111827"/>
</svg>
