<svg width="32" height="33" viewBox="0 0 32 33" fill="none" xmlns="http://www.w3.org/2000/svg">
<path fill-rule="evenodd" clip-rule="evenodd" d="M7.42332 5.39249L1.22252 17.8506C0.451972 18.9496 -0.000244141 20.2881 -0.000244141 21.7323C-0.000244141 25.4709 3.03048 28.5016 6.76907 28.5016C10.5077 28.5016 13.5384 25.4709 13.5384 21.7323C13.5384 21.1072 13.4537 20.5019 13.2951 19.9273L12.882 11.7705H19.0942L18.6325 20.2141C18.5207 20.7021 18.4616 21.2103 18.4616 21.7323C18.4616 25.4709 21.4923 28.5016 25.2309 28.5016C28.9695 28.5016 32.0002 25.4709 32.0002 21.7323C32.0002 20.2629 31.532 18.9028 30.7367 17.7931L24.5799 5.39315C24.4729 5.17768 24.2926 5.00607 24.0676 4.92079C22.5818 4.35753 21.5708 4.38334 20.0918 4.8466C19.7074 4.96699 19.4469 5.32073 19.4249 5.72291L19.2036 9.77054H12.7807L12.5759 5.72595C12.5554 5.32223 12.2945 4.96648 11.9088 4.84574C10.4311 4.38325 9.42037 4.35787 7.93516 4.92099C7.71053 5.00616 7.53036 5.17743 7.42332 5.39249ZM6.76907 16.963C4.13505 16.963 1.99976 19.0983 1.99976 21.7323C1.99976 24.3663 4.13505 26.5016 6.76907 26.5016C9.40308 26.5016 11.5384 24.3663 11.5384 21.7323C11.5384 19.0983 9.40308 16.963 6.76907 16.963ZM20.4616 21.7323C20.4616 19.0983 22.5969 16.963 25.2309 16.963C27.8649 16.963 30.0002 19.0983 30.0002 21.7323C30.0002 24.3663 27.8649 26.5016 25.2309 26.5016C22.5969 26.5016 20.4616 24.3663 20.4616 21.7323Z" fill="#111827"/>
</svg>
