<svg width="33" height="33" viewBox="0 0 33 33" fill="none" xmlns="http://www.w3.org/2000/svg">
<path d="M14.1909 12.0994H19.7294" stroke="#1C1B1F" stroke-width="2" stroke-linecap="round" stroke-linejoin="round"/>
<path d="M9.57559 25.4839C12.1246 25.4839 14.191 23.4176 14.191 20.8686C14.191 18.3196 12.1246 16.2532 9.57559 16.2532C7.02658 16.2532 4.96021 18.3196 4.96021 20.8686C4.96021 23.4176 7.02658 25.4839 9.57559 25.4839Z" stroke="#1C1B1F" stroke-width="2" stroke-linecap="round" stroke-linejoin="round"/>
<path d="M24.3449 25.4839C26.8939 25.4839 28.9603 23.4176 28.9603 20.8686C28.9603 18.3196 26.8939 16.2532 24.3449 16.2532C21.7959 16.2532 19.7295 18.3196 19.7295 20.8686C19.7295 23.4176 21.7959 25.4839 24.3449 25.4839Z" stroke="#1C1B1F" stroke-width="2" stroke-linecap="round" stroke-linejoin="round"/>
<path d="M10.2318 7.53021L5.61792 18.4868C7.4019 15.8119 12.1329 13.3499 14.1273 20.1042L14.194 7.53021C12.6205 6.96881 11.7469 6.8969 10.2318 7.53021Z" fill="#1C1B1F" stroke="#1C1B1F" stroke-width="2" stroke-linecap="round" stroke-linejoin="round"/>
<path d="M23.6916 7.53021L28.3054 18.4868C23.6916 12.5533 20.4122 16.4395 19.7961 20.1042L19.7294 7.53021C21.3028 6.96881 22.1765 6.8969 23.6916 7.53021Z" fill="#1C1B1F" stroke="#1C1B1F" stroke-width="2" stroke-linecap="round" stroke-linejoin="round"/>
</svg>
