<svg width="32" height="33" viewBox="0 0 32 33" fill="none" xmlns="http://www.w3.org/2000/svg">
<path fill-rule="evenodd" clip-rule="evenodd" d="M28.8723 13.2318C28.8723 13.0647 28.9559 12.9086 29.095 12.8158L31.777 11.0278C32.074 10.8298 32.0738 10.3932 31.7766 10.1955L28.7807 8.20212C28.6787 8.13422 28.6058 8.031 28.5718 7.91324C28.0749 6.19346 26.9895 4.70027 25.5021 3.69684C23.9622 2.65789 22.0967 2.21504 20.2541 2.45099C18.4115 2.68695 16.7178 3.58557 15.4893 4.97903C14.2608 6.37249 13.5816 8.16549 13.5785 10.0231V12.7889C13.5785 12.9024 13.5398 13.0126 13.4689 13.1012L0.110992 29.7986C-0.150913 30.126 0.082174 30.611 0.501427 30.611H14.7549C18.4991 30.611 22.0899 29.1236 24.7374 26.4761C27.3849 23.8286 28.8723 20.2378 28.8723 16.4936V13.2318ZM22.4024 10.6112C23.377 10.6112 24.1671 9.82111 24.1671 8.84651C24.1671 7.87191 23.377 7.08184 22.4024 7.08184C21.4278 7.08184 20.6378 7.87191 20.6378 8.84651C20.6378 9.82111 21.4278 10.6112 22.4024 10.6112ZM16.572 18.0782C16.9963 18.4317 17.0536 19.0623 16.7 19.4866L10.8178 26.5452C10.4642 26.9695 9.83365 27.0268 9.40938 26.6733C8.9851 26.3197 8.92778 25.6892 9.28134 25.2649L15.1636 18.2062C15.5171 17.7819 16.1477 17.7246 16.572 18.0782Z" fill="#111827"/>
</svg>
