<svg width="33" height="33" viewBox="0 0 33 33" fill="none" xmlns="http://www.w3.org/2000/svg">
<path fill-rule="evenodd" clip-rule="evenodd" d="M26.3885 14.4745C26.3885 14.3073 26.4721 14.1512 26.6112 14.0585L28.3353 12.9091C28.6323 12.711 28.6321 12.2745 28.3349 12.0768L26.3648 10.7659C26.2628 10.698 26.1901 10.5947 26.155 10.4772C25.7866 9.24512 25.0024 8.17623 23.9331 7.4548C22.8111 6.69784 21.4519 6.37518 20.1094 6.54709C18.7669 6.71901 17.5329 7.37373 16.6379 8.38899C15.7428 9.40424 15.2479 10.7106 15.2457 12.0641V14.0315C15.2457 14.1451 15.207 14.2552 15.1361 14.3439L5.60984 26.2517C5.34793 26.5791 5.58102 27.0641 6.00027 27.0641H16.1028C18.8308 27.0641 21.447 25.9804 23.3759 24.0514C25.3049 22.1225 26.3885 19.5063 26.3885 16.7783V14.4745ZM21.6744 12.4926C22.3845 12.4926 22.9601 11.9169 22.9601 11.2069C22.9601 10.4968 22.3845 9.92114 21.6744 9.92114C20.9643 9.92114 20.3887 10.4968 20.3887 11.2069C20.3887 11.9169 20.9643 12.4926 21.6744 12.4926ZM17.6002 17.7243C18.0245 18.0779 18.0818 18.7085 17.7283 19.1327L13.4426 24.2756C13.089 24.6999 12.4584 24.7572 12.0342 24.4036C11.6099 24.0501 11.5526 23.4195 11.9061 22.9952L16.1918 17.8524C16.5454 17.4281 17.176 17.3708 17.6002 17.7243Z" fill="#1C1B1F"/>
</svg>
