<svg width="32" height="33" viewBox="0 0 32 33" fill="none" xmlns="http://www.w3.org/2000/svg">
<path fill-rule="evenodd" clip-rule="evenodd" d="M27.9937 6.17283C28.042 5.86916 27.8074 5.59424 27.4999 5.59424H4.50012C4.19206 5.59424 3.95728 5.87012 4.00656 6.17422L7.37887 26.9858C7.4181 27.2279 7.62716 27.4058 7.87243 27.4058H24.1875C24.4333 27.4058 24.6426 27.2272 24.6812 26.9844L27.9937 6.17283ZM12.565 13.6796C12.5039 13.3705 12.7405 13.0827 13.0555 13.0827L19.0077 13.0826C19.3189 13.0826 19.5545 13.3638 19.5 13.6702L18.4624 19.5051C18.4199 19.7437 18.2125 19.9176 17.9701 19.9176H14.2084C13.9696 19.9176 13.7642 19.7487 13.7179 19.5145L12.565 13.6796Z" fill="#1C1B1F"/>
</svg>
