<svg width="32" height="30" viewBox="0 0 32 30" fill="none" xmlns="http://www.w3.org/2000/svg">
<path fill-rule="evenodd" clip-rule="evenodd" d="M27.9942 4.72008C28.0425 4.41641 27.8079 4.14148 27.5004 4.14148H4.49939C4.19133 4.14148 3.95655 4.41737 4.00582 4.72146L7.37832 25.5331C7.41755 25.7752 7.62661 25.9531 7.87188 25.9531H24.1878C24.4336 25.9531 24.643 25.7744 24.6816 25.5317L27.9942 4.72008ZM12.5648 12.2268C12.5037 11.9177 12.7402 11.6299 13.0553 11.6299L19.0075 11.6298C19.3186 11.6298 19.5542 11.911 19.4997 12.2174L18.4621 18.0523C18.4197 18.2909 18.2122 18.4648 17.9699 18.4648H14.2082C13.9694 18.4648 13.7639 18.2959 13.7177 18.0617L12.5648 12.2268Z" fill="#1C1B1F"/>
</svg>
