<svg width="33" height="33" viewBox="0 0 33 33" fill="none" xmlns="http://www.w3.org/2000/svg">
<path fill-rule="evenodd" clip-rule="evenodd" d="M32.0334 2.28074C32.0817 1.97707 31.8471 1.70215 31.5396 1.70215H0.540157C0.232099 1.70215 -0.00268054 1.97803 0.0465945 2.28213L4.58854 30.3119C4.62777 30.554 4.83683 30.7319 5.0821 30.7319H27.0783C27.3241 30.7319 27.5335 30.5532 27.5721 30.3105L32.0334 2.28074ZM11.4294 12.2656C11.3683 11.9565 11.6049 11.6687 11.9199 11.6687L20.2407 11.6687C20.5519 11.6687 20.7875 11.9498 20.733 12.2562L19.2931 20.353C19.2507 20.5916 19.0432 20.7655 18.8009 20.7655H13.5197C13.2809 20.7655 13.0755 20.5966 13.0292 20.3624L11.4294 12.2656Z" fill="#111827"/>
</svg>
