<svg width="33" height="33" viewBox="0 0 33 33" fill="none" xmlns="http://www.w3.org/2000/svg">
<path fill-rule="evenodd" clip-rule="evenodd" d="M25.46 10.2829C25.46 9.96811 25.3118 9.67173 25.06 9.48287L17.06 3.4829C16.7569 3.25564 16.3515 3.21908 16.0128 3.38848C15.674 3.55787 15.46 3.90413 15.46 4.2829V14.2828L9.05996 9.48284C8.61813 9.15147 7.99133 9.24101 7.65996 9.68284C7.32859 10.1247 7.41813 10.7515 7.85996 11.0828L14.7933 16.2828L7.85996 21.4828C7.41813 21.8142 7.32859 22.441 7.65996 22.8828C7.99133 23.3247 8.61813 23.4142 9.05996 23.0828L15.46 18.2828V28.2829C15.46 28.6617 15.674 29.0079 16.0128 29.1773C16.3515 29.3467 16.7569 29.3102 17.06 29.0829L25.06 23.0829C25.3118 22.8941 25.46 22.5977 25.46 22.2829C25.46 21.9682 25.3118 21.6718 25.06 21.4829L18.1266 16.2829L25.06 11.0829C25.3118 10.894 25.46 10.5976 25.46 10.2829ZM17.46 14.2828V6.2829L22.7933 10.2829L17.46 14.2828ZM7.95996 17.7829C8.78839 17.7829 9.45996 17.1113 9.45996 16.2829C9.45996 15.4545 8.78839 14.7829 7.95996 14.7829C7.13153 14.7829 6.45996 15.4545 6.45996 16.2829C6.45996 17.1113 7.13153 17.7829 7.95996 17.7829ZM27.46 16.2829C27.46 17.1113 26.7884 17.7829 25.96 17.7829C25.1315 17.7829 24.46 17.1113 24.46 16.2829C24.46 15.4545 25.1315 14.7829 25.96 14.7829C26.7884 14.7829 27.46 15.4545 27.46 16.2829ZM22.7933 22.2829L17.46 18.283V26.2829L22.7933 22.2829Z" fill="#1C1B1F"/>
</svg>
