<svg width="32" height="32" viewBox="0 0 32 32" fill="none" xmlns="http://www.w3.org/2000/svg">
<path fill-rule="evenodd" clip-rule="evenodd" d="M18.0496 11.6502C17.7183 11.2084 17.0915 11.1188 16.6496 11.4502L13.2499 13.9999V3.00092L16.6496 5.55067C17.0915 5.88205 17.7183 5.7925 18.0496 5.35067C18.381 4.90884 18.2914 4.28204 17.8496 3.95067L12.8499 0.20092C12.5469 -0.026342 12.1415 -0.0628983 11.8027 0.106495C11.4639 0.275887 11.2499 0.62215 11.2499 1.00092V13.9999L2.85055 7.70033C2.40872 7.36896 1.78192 7.4585 1.45055 7.90033C1.11918 8.34216 1.20872 8.96896 1.65055 9.30033L10.5833 15.9999L1.65055 22.6995C1.20872 23.0308 1.11918 23.6576 1.45055 24.0995C1.78192 24.5413 2.40872 24.6308 2.85055 24.2995L11.2499 17.9999V30.9991C11.2499 31.3778 11.4639 31.7241 11.8027 31.8935C12.1415 32.0629 12.5469 32.0263 12.8499 31.7991L22.8493 24.2996C23.1011 24.1107 23.2493 23.8143 23.2493 23.4996C23.2493 23.1848 23.1011 22.8884 22.8493 22.6996L13.9165 16L17.8496 13.0502C18.2914 12.7188 18.381 12.092 18.0496 11.6502ZM30.456 4.04358C30.8465 4.4341 30.8465 5.06727 30.456 5.45779L27.4133 8.50045L30.456 11.5431C30.8465 11.9336 30.8465 12.5668 30.456 12.9573C30.0654 13.3479 29.4323 13.3479 29.0417 12.9573L25.9991 9.91467L22.9564 12.9573C22.5659 13.3479 21.9327 13.3479 21.5422 12.9573C21.1517 12.5668 21.1517 11.9336 21.5422 11.5431L24.5849 8.50045L21.5422 5.45779C21.1517 5.06727 21.1517 4.4341 21.5422 4.04358C21.9327 3.65305 22.5659 3.65305 22.9564 4.04358L25.9991 7.08624L29.0417 4.04358C29.4323 3.65305 30.0654 3.65305 30.456 4.04358ZM20.5826 23.4996L13.2499 18.0001V28.9991L20.5826 23.4996Z" fill="#111827"/>
</svg>
