<svg width="32" height="32" viewBox="0 0 32 32" fill="none" xmlns="http://www.w3.org/2000/svg">
<path fill-rule="evenodd" clip-rule="evenodd" d="M26.3746 8.50043C26.3746 8.18567 26.2264 7.88928 25.9746 7.70042L15.9752 0.20092C15.6722 -0.0263428 15.2668 -0.0628972 14.928 0.106494C14.5892 0.275886 14.3752 0.622149 14.3752 1.00092V13.9999L5.97582 7.70033C5.53399 7.36896 4.90719 7.4585 4.57582 7.90033C4.24445 8.34216 4.33399 8.96896 4.77582 9.30033L13.7086 15.9999L4.77582 22.6995C4.33399 23.0308 4.24445 23.6576 4.57582 24.0995C4.90719 24.5413 5.53399 24.6308 5.97582 24.2995L14.3752 17.9999V30.9991C14.3752 31.3778 14.5892 31.7241 14.928 31.8935C15.2668 32.0629 15.6722 32.0263 15.9752 31.7991L25.9746 24.2996C26.2264 24.1107 26.3746 23.8143 26.3746 23.4996C26.3746 23.1848 26.2264 22.8884 25.9746 22.6996L17.0418 16L25.9746 9.30043C26.2264 9.11157 26.3746 8.81518 26.3746 8.50043ZM16.3752 13.9999V3.00092L23.7079 8.50043L16.3752 13.9999ZM4.75086 17.8749C5.78633 17.8749 6.62575 17.0355 6.62575 16C6.62575 14.9645 5.78633 14.1251 4.75086 14.1251C3.71539 14.1251 2.87598 14.9645 2.87598 16C2.87598 17.0355 3.71539 17.8749 4.75086 17.8749ZM29.1244 16C29.1244 17.0355 28.2849 17.8749 27.2495 17.8749C26.214 17.8749 25.3746 17.0355 25.3746 16C25.3746 14.9645 26.214 14.1251 27.2495 14.1251C28.2849 14.1251 29.1244 14.9645 29.1244 16ZM23.7079 23.4996L16.3752 18.0001V28.9991L23.7079 23.4996Z" fill="#111827"/>
</svg>
