<svg width="32" height="32" viewBox="0 0 32 32" fill="none" xmlns="http://www.w3.org/2000/svg">
<path fill-rule="evenodd" clip-rule="evenodd" d="M25.7945 8.47532C25.7868 8.1695 25.6396 7.88403 25.3949 7.70048L15.3955 0.200981C15.0925 -0.0262814 14.6871 -0.0628367 14.3483 0.106556C14.0095 0.275948 13.7955 0.62221 13.7955 1.00098V11.0003C13.7955 11.5526 14.2432 12.0003 14.7955 12.0003C15.3478 12.0003 15.7955 11.5526 15.7955 11.0003V3.00098L23.1823 8.54107L18.4874 12.4464C18.0628 12.7995 18.0049 13.4301 18.3581 13.8547C18.7112 14.2792 19.3418 14.3371 19.7663 13.984L25.4344 9.26928C25.6695 9.07365 25.8022 8.78113 25.7945 8.47532ZM4.17339 6.81981C3.73099 6.4892 3.10434 6.57982 2.77374 7.02222C2.44313 7.46462 2.53375 8.09127 2.97615 8.42188L13.1227 16.0045L4.1961 22.6995C3.75427 23.0309 3.66473 23.6577 3.9961 24.0995C4.32747 24.5413 4.95427 24.6309 5.3961 24.2995L13.7955 18V30.9991C13.7955 31.3779 14.0095 31.7241 14.3483 31.8935C14.6871 32.0629 15.0925 32.0264 15.3955 31.7991L24.8098 24.7384L27.8261 26.9926C28.2685 27.3232 28.8952 27.2326 29.2258 26.7902C29.5564 26.3478 29.4658 25.7211 29.0234 25.3905L17.676 16.9105L15.4166 15.2159C15.3821 15.1886 15.3462 15.1638 15.3089 15.1415L4.17339 6.81981ZM15.7955 18.0019L16.4774 18.5115L23.1282 23.4996L15.7955 28.9991V18.0019Z" fill="#111827"/>
</svg>
