<svg width="33" height="33" viewBox="0 0 33 33" fill="none" xmlns="http://www.w3.org/2000/svg">
<path fill-rule="evenodd" clip-rule="evenodd" d="M25.96 10.2829C25.96 9.96811 25.8118 9.67173 25.56 9.48287L17.56 3.4829C17.257 3.25564 16.8516 3.21908 16.5128 3.38848C16.174 3.55787 15.96 3.90413 15.96 4.2829V14.2828L9.56002 9.48284C9.11819 9.15147 8.49139 9.24101 8.16002 9.68284C7.82865 10.1247 7.91819 10.7515 8.36002 11.0828L15.2934 16.2828L8.36002 21.4828C7.91819 21.8142 7.82865 22.441 8.16002 22.8828C8.49139 23.3247 9.11819 23.4142 9.56002 23.0828L15.96 18.2828V28.2829C15.96 28.6617 16.174 29.0079 16.5128 29.1773C16.8516 29.3467 17.257 29.3102 17.56 29.0829L25.56 23.0829C25.8118 22.8941 25.96 22.5977 25.96 22.2829C25.96 21.9682 25.8118 21.6718 25.56 21.4829L18.6266 16.2829L25.56 11.0829C25.8118 10.894 25.96 10.5976 25.96 10.2829ZM17.96 14.2828V6.2829L23.2933 10.2829L17.96 14.2828ZM23.2933 22.2829L17.96 18.283V26.2829L23.2933 22.2829Z" fill="#1C1B1F"/>
</svg>
