<svg width="33" height="33" viewBox="0 0 33 33" fill="none" xmlns="http://www.w3.org/2000/svg">
<path fill-rule="evenodd" clip-rule="evenodd" d="M18.76 12.6829C18.4287 12.241 17.8019 12.1515 17.36 12.4829L14.96 14.2828V6.2829L17.36 8.08289C17.8019 8.41426 18.4287 8.32472 18.76 7.88289C19.0914 7.44106 19.0018 6.81426 18.56 6.48289L14.56 3.4829C14.257 3.25564 13.8516 3.21908 13.5128 3.38848C13.174 3.55787 12.96 3.90413 12.96 4.2829V14.2828L6.56002 9.48284C6.11819 9.15147 5.49139 9.24101 5.16002 9.68284C4.82865 10.1247 4.91819 10.7515 5.36002 11.0828L12.2934 16.2828L5.36002 21.4828C4.91819 21.8142 4.82865 22.441 5.16002 22.8828C5.49139 23.3247 6.11819 23.4142 6.56002 23.0828L12.96 18.2828V28.2829C12.96 28.6617 13.174 29.0079 13.5128 29.1773C13.8516 29.3467 14.257 29.3102 14.56 29.0829L22.56 23.0829C22.8118 22.8941 22.96 22.5977 22.96 22.2829C22.96 21.9682 22.8118 21.6718 22.56 21.4829L15.6266 16.2829L18.56 14.0829C19.0018 13.7515 19.0914 13.1247 18.76 12.6829ZM28.6671 6.5758C29.0577 6.96632 29.0577 7.59949 28.6671 7.99001L26.3742 10.2829L28.6671 12.5758C29.0577 12.9663 29.0577 13.5995 28.6671 13.99C28.2766 14.3805 27.6434 14.3805 27.2529 13.99L24.96 11.6971L22.6671 13.99C22.2766 14.3805 21.6434 14.3805 21.2529 13.99C20.8624 13.5995 20.8624 12.9663 21.2529 12.5758L23.5458 10.2829L21.2529 7.99001C20.8624 7.59949 20.8624 6.96632 21.2529 6.5758C21.6434 6.18527 22.2766 6.18527 22.6671 6.5758L24.96 8.86869L27.2529 6.5758C27.6434 6.18527 28.2766 6.18527 28.6671 6.5758ZM20.2933 22.2829L14.96 18.283V26.2829L20.2933 22.2829Z" fill="#1C1B1F"/>
</svg>
