<svg width="33" height="33" viewBox="0 0 33 33" fill="none" xmlns="http://www.w3.org/2000/svg">
<path fill-rule="evenodd" clip-rule="evenodd" d="M24.9963 10.2577C24.9886 9.95186 24.8414 9.66639 24.5966 9.48284L16.5966 3.48287C16.2936 3.25561 15.8882 3.21905 15.5494 3.38845C15.2107 3.55784 14.9966 3.9041 14.9966 4.28287V12.2828C14.9966 12.8351 15.4444 13.2828 15.9966 13.2828C16.5489 13.2828 16.9966 12.8351 16.9966 12.2828V6.28287L22.3841 10.3234L18.8225 13.286C18.3979 13.6392 18.34 14.2697 18.6932 14.6943C19.0463 15.1189 19.6769 15.1768 20.1014 14.8236L24.6361 11.0516C24.8713 10.856 25.004 10.5635 24.9963 10.2577ZM7.61821 8.77806C7.17581 8.44745 6.54917 8.53807 6.21856 8.98047C5.88795 9.42287 5.97857 10.0495 6.42097 10.3801L14.3248 16.2867L7.39664 21.4828C6.95481 21.8142 6.86527 22.441 7.19664 22.8828C7.52801 23.3247 8.15481 23.4142 8.59664 23.0828L14.9966 18.2828V28.2829C14.9966 28.6617 15.2107 29.0079 15.5494 29.1773C15.8882 29.3467 16.2936 29.3102 16.5966 29.0829L24.0088 23.5238L26.3022 25.2376C26.7446 25.5682 27.3712 25.4776 27.7018 25.0352C28.0324 24.5928 27.9418 23.9661 27.4994 23.6355L18.3877 16.8262L16.6174 15.4985C16.586 15.4736 16.5532 15.4508 16.5194 15.4301L7.61821 8.77806ZM16.9966 18.2835L17.1894 18.4275L22.33 22.2829L16.9966 26.2829V18.2835Z" fill="#1C1B1F"/>
</svg>
