<svg width="32" height="32" viewBox="0 0 32 32" fill="none" xmlns="http://www.w3.org/2000/svg">
<path fill-rule="evenodd" clip-rule="evenodd" d="M26.9993 8.50043C26.9993 8.18567 26.8511 7.88928 26.5993 7.70042L16.5999 0.20092C16.2969 -0.0263428 15.8915 -0.0628972 15.5527 0.106494C15.2139 0.275886 14.9999 0.622149 14.9999 1.00092V13.9999L6.60055 7.70033C6.15872 7.36896 5.53192 7.4585 5.20055 7.90033C4.86918 8.34216 4.95872 8.96896 5.40055 9.30033L14.3333 15.9999L5.40055 22.6995C4.95872 23.0308 4.86918 23.6576 5.20055 24.0995C5.53192 24.5413 6.15872 24.6308 6.60055 24.2995L14.9999 17.9999V30.9991C14.9999 31.3778 15.2139 31.7241 15.5527 31.8935C15.8915 32.0629 16.2969 32.0263 16.5999 31.7991L26.5993 24.2996C26.8511 24.1107 26.9993 23.8143 26.9993 23.4996C26.9993 23.1848 26.8511 22.8884 26.5993 22.6996L17.6665 16L26.5993 9.30043C26.8511 9.11157 26.9993 8.81518 26.9993 8.50043ZM16.9999 13.9999V3.00092L24.3326 8.50043L16.9999 13.9999ZM24.3326 23.4996L16.9999 18.0001V28.9991L24.3326 23.4996Z" fill="#111827"/>
</svg>
