<svg width="33" height="33" viewBox="0 0 33 33" fill="none" xmlns="http://www.w3.org/2000/svg">
<path fill-rule="evenodd" clip-rule="evenodd" d="M16.96 3.2829C17.5122 3.2829 17.96 3.73061 17.96 4.2829V6.05469H25.2753C25.8276 6.05469 26.2753 6.5024 26.2753 7.05469V14.933L27.3746 15.3137C27.7773 15.4531 28.0473 15.8314 28.0473 16.2576V20.276C28.0473 24.5491 22.9595 26.5185 17.2961 28.1982C17.1092 28.2536 16.9092 28.2525 16.7227 28.1959C10.995 26.4562 6.03925 24.9062 5.87298 20.276C5.74927 16.8312 5.80663 15.8955 5.84629 15.6413C5.85659 15.5754 5.90479 15.5357 5.96794 15.514L7.64453 14.9386V7.05469C7.64453 6.5024 8.09225 6.05469 8.64453 6.05469H15.96V4.2829C15.96 3.73061 16.4077 3.2829 16.96 3.2829ZM9.64453 14.2521L15.9599 12.0844V20.9136C15.9599 21.4659 16.4077 21.9136 16.9599 21.9136C17.5122 21.9136 17.9599 21.4659 17.9599 20.9136V12.0535L24.2753 14.2404V8.05469H16.9628L16.96 8.05469L16.9572 8.05469H9.64453V14.2521Z" fill="#1C1B1F"/>
</svg>
