<svg width="32" height="32" viewBox="0 0 32 32" fill="none" xmlns="http://www.w3.org/2000/svg">
<path fill-rule="evenodd" clip-rule="evenodd" d="M16.0481 0C16.6004 0 17.0481 0.447715 17.0481 1V3.58527H26.8041C27.3564 3.58527 27.8041 4.03298 27.8041 4.58527V14.6742L29.717 15.3366C30.1197 15.476 30.3898 15.8538 30.3898 16.2799V21.687C30.3898 27.2353 23.7583 29.7809 16.3991 31.9591C16.2122 32.0144 16.012 32.0134 15.8254 31.9567C8.38129 29.6961 1.92341 27.6987 1.70753 21.687C1.54248 17.091 1.6266 15.9478 1.67777 15.6636C1.6896 15.5979 1.73934 15.5586 1.80249 15.537L4.29244 14.6823V4.58527C4.29244 4.03298 4.74016 3.58527 5.29244 3.58527H15.0481V1C15.0481 0.447715 15.4958 0 16.0481 0ZM6.29244 13.9959L15.0481 10.9906L15.0481 22.5116C15.0481 23.0639 15.4958 23.5116 16.0481 23.5116C16.6004 23.5116 17.0481 23.0639 17.0481 22.5116L17.0481 10.9496L25.8041 13.9816V5.58527H6.29244V13.9959Z" fill="#111827"/>
</svg>
