<svg width="32" height="33" viewBox="0 0 32 33" fill="none" xmlns="http://www.w3.org/2000/svg">
<g clip-path="url(#clip0_754_72)">
<path fill-rule="evenodd" clip-rule="evenodd" d="M29.8564 8.13184L16 0.131836L12.2336 2.30635V11.1196C13.4401 10.3378 14.8788 9.88392 16.4235 9.88392C20.6847 9.88392 24.139 13.3383 24.139 17.5995C24.139 21.8607 20.6847 25.3151 16.4235 25.3151C12.2364 25.3151 8.82826 21.9798 8.71098 17.8211H8.70769V4.34203L2.14355 8.13184V24.1318L16 32.1318L29.8564 24.1318V8.13184ZM20.5282 17.5996C20.5282 18.3406 20.3318 19.0357 19.9883 19.6358V18.4734C20.0098 18.4156 20.0215 18.3531 20.0215 18.2878C20.0215 18.2225 20.0098 18.1599 19.9883 18.1021V17.9696L19.8291 17.8777C19.7828 17.8391 19.7299 17.8083 19.6722 17.7871L17.4651 16.5128L17.2151 16.3685L16.9651 16.5128L14.7581 17.787C14.7004 17.8082 14.6473 17.8392 14.6009 17.8778L14.442 17.9696V18.1019C14.4204 18.1598 14.4087 18.2224 14.4087 18.2878C14.4087 18.3531 14.4204 18.4158 14.442 18.4736V20.5932C14.4204 20.6511 14.4087 20.7137 14.4087 20.779C14.4087 20.8444 14.4204 20.907 14.442 20.9649V21.1717L14.692 21.3161L14.7402 21.3439C13.313 20.7012 12.3194 19.2664 12.3194 17.5996C12.3194 15.3328 14.157 13.4952 16.4238 13.4952C18.6906 13.4952 20.5282 15.3328 20.5282 17.5996ZM15.442 20.5932L15.4425 20.5947L17.2151 21.6181L18.9883 20.5944V18.5469L17.2151 17.5232L15.442 18.5469V20.5932Z" fill="#111827"/>
</g>
<defs>
<clipPath id="clip0_754_72">
<rect width="32" height="32" fill="white" transform="translate(0 0.131836)"/>
</clipPath>
</defs>
</svg>
