<svg width="32" height="33" viewBox="0 0 32 33" fill="none" xmlns="http://www.w3.org/2000/svg">
<g clip-path="url(#clip0_568_173)">
<path d="M9.21069 15.3344L12.0034 10.4973L17.5887 10.4973L20.3814 15.3344L17.5887 20.1714H12.0034L9.21069 15.3344Z" stroke="#111827"/>
<path d="M5.39648 15.3379L9.43936 15.3379" stroke="#111827"/>
<path d="M20.166 15.3564H25.7394" stroke="#111827"/>
<path d="M5.27051 24.698L7.7949 24.698" stroke="#111827"/>
<path d="M12.1101 19.9668L10.6597 23.1743" stroke="#111827"/>
<path d="M17.4878 19.9709L19.7087 24.5494" stroke="#111827"/>
<path d="M10.9937 15.3349L12.8948 12.042L16.6972 12.042L18.5983 15.3349L16.6972 18.6278H12.8948L10.9937 15.3349Z" fill="#111827"/>
<path d="M25.1643 15.3349L26.5606 12.9165L29.3531 12.9165L30.7493 15.3349L29.3531 17.7533H26.5606L25.1643 15.3349Z" fill="#111827"/>
<path d="M18.4446 3.14734L20.1856 0.131836L23.6676 0.131836L25.4086 3.14734L23.6676 6.16283H20.1856L18.4446 3.14734Z" fill="#111827"/>
<path d="M5.32812 3.67442L6.76465 1.18628L9.63771 1.18628L11.0742 3.67442L9.63771 6.16256H6.76465L5.32812 3.67442Z" fill="#111827"/>
<path d="M1.25049 15.3343L2.382 13.3745L4.64501 13.3745L5.77652 15.3343L4.64501 17.2942H2.382L1.25049 15.3343Z" fill="#111827"/>
<path d="M7.44678 24.7169L8.57829 22.7571L10.8413 22.7571L11.9728 24.7169L10.8413 26.6767H8.57829L7.44678 24.7169Z" fill="#111827"/>
<path d="M2.10156 24.717L2.99108 23.1763L4.77011 23.1763L5.65962 24.717L4.77011 26.2576H2.99108L2.10156 24.717Z" fill="#111827"/>
<path d="M4.71289 30.5912L5.60241 29.0505L7.38143 29.0505L8.27095 30.5912L7.38143 32.1319H5.60241L4.71289 30.5912Z" fill="#111827"/>
<path d="M11.1475 30.5912L12.037 29.0505L13.816 29.0505L14.7055 30.5912L13.816 32.1319H12.037L11.1475 30.5912Z" fill="#111827"/>
<path d="M18.4915 26.1898L19.5845 24.2966L21.7706 24.2966L22.8636 26.1898L21.7706 28.083H19.5845L18.4915 26.1898Z" fill="#111827"/>
<path d="M17.4346 10.7656L20.3813 5.84009" stroke="#111827"/>
<path d="M9.39185 5.69653L12.1309 10.7214" stroke="#111827"/>
<path d="M10.6667 26.3362L12.3441 29.7508" stroke="#111827"/>
<path d="M8.75163 26.2322L7.21606 29.4785" stroke="#111827"/>
</g>
<defs>
<clipPath id="clip0_568_173">
<rect width="32" height="32" fill="white" transform="translate(0 0.131836)"/>
</clipPath>
</defs>
</svg>
