<svg width="32" height="33" viewBox="0 0 32 33" fill="none" xmlns="http://www.w3.org/2000/svg">
<path fill-rule="evenodd" clip-rule="evenodd" d="M7.39574 0.5L12.2729 0.500002C12.2681 0.544212 12.2656 0.589127 12.2656 0.634618V16.442C12.2656 16.9078 12.5286 17.3337 12.9451 17.5424C13.172 17.6561 13.4232 17.6947 13.6653 17.6611C13.8674 17.6331 14.0631 17.5548 14.2329 17.4279L18.4684 14.262L18.4686 14.2621L18.4688 14.262L22.6568 17.4242C22.9209 17.6237 23.2489 17.705 23.5664 17.6613C23.6966 17.6433 23.8251 17.6043 23.9467 17.5438C24.3646 17.3357 24.6288 16.909 24.6288 16.4421V1.73082H24.6292V0.634618C24.6292 0.589127 24.6268 0.544213 24.622 0.500002H28.2963C28.976 0.500002 29.5271 1.05104 29.5271 1.73077V26.3026C29.5271 26.9823 28.976 27.5334 28.2963 27.5334L7.39574 27.5334C6.0374 27.5334 4.93603 28.6336 4.9342 29.9915L4.93419 29.9949L4.9342 30.0385H25.8443C26.524 30.0385 27.0751 30.5895 27.0751 31.2692C27.0751 31.949 26.524 32.5 25.8443 32.5H3.70343C3.377 32.5 3.06395 32.3703 2.83314 32.1395C2.60233 31.9087 2.47266 31.5957 2.47266 31.2692L2.47266 29.9949L2.47266 29.9901L2.47266 5.42308C2.47266 2.70414 4.6768 0.5 7.39574 0.5ZM14.7199 0.500002H22.175C22.1702 0.544213 22.1677 0.589127 22.1677 0.634618V13.9705L22.1673 13.9701V13.9705L19.2138 11.7404C18.9483 11.54 18.6218 11.4607 18.3081 11.5028C18.1053 11.5301 17.9079 11.608 17.7357 11.7367L14.7272 13.9855V13.9852L14.7268 13.9855V1.73082H14.7272V0.634618C14.7272 0.589127 14.7247 0.544212 14.7199 0.500002Z" fill="#111827"/>
</svg>
