<svg width="32" height="33" viewBox="0 0 32 33" fill="none" xmlns="http://www.w3.org/2000/svg">
<path fill-rule="evenodd" clip-rule="evenodd" d="M8.86682 0.5C8.31454 0.5 7.86682 0.947715 7.86682 1.5V6.75359C7.86682 6.77135 7.86729 6.78899 7.8682 6.80652H4.06055C3.7844 6.80652 3.56055 7.03038 3.56055 7.30652V31.999C3.56055 32.4098 4.02848 32.6453 4.35843 32.4006L12.5945 26.2914C12.7721 26.1596 13.0152 26.1602 13.1922 26.2928L21.3331 32.3931C21.6628 32.6401 22.1329 32.4049 22.1329 31.993V24.901L26.8333 28.4814C27.1356 28.7118 27.5425 28.7507 27.8831 28.582C28.2237 28.4133 28.4392 28.066 28.4392 27.6859V1.5C28.4392 0.947715 27.9915 0.5 27.4392 0.5H8.86682ZM22.1329 22.6638C22.3528 22.658 22.5761 22.7244 22.7647 22.868L26.4392 25.6671V2.5H9.86682V6.75359C9.86682 6.77135 9.86636 6.78899 9.86545 6.80652H21.6329C21.9091 6.80652 22.1329 7.03038 22.1329 7.30652V22.6638Z" fill="#111827"/>
</svg>
