<svg width="32" height="33" viewBox="0 0 32 33" fill="none" xmlns="http://www.w3.org/2000/svg">
<path fill-rule="evenodd" clip-rule="evenodd" d="M12 3.27271H0.5C0.223858 3.27271 0 3.49656 0 3.77271V25.0995C0 25.3757 0.223858 25.5995 0.5 25.5995H10.9907C12.49 25.5995 13.8634 26.438 14.5486 27.7716L15.5532 29.727L15.5532 5.43389C14.8874 4.14996 13.5462 3.27271 12 3.27271ZM16.5532 5.24175L16.5532 29.5198L17.4514 27.7716C18.1366 26.438 19.51 25.5995 21.0093 25.5995H31.5C31.7761 25.5995 32 25.3757 32 25.0995V3.77271C32 3.49656 31.7761 3.27271 31.5 3.27271H20C18.5323 3.27271 17.2491 4.06324 16.5532 5.24175Z" fill="#111827"/>
</svg>
