<svg width="33" height="33" viewBox="0 0 33 33" fill="none" xmlns="http://www.w3.org/2000/svg">
<path fill-rule="evenodd" clip-rule="evenodd" d="M11.9053 3.28296C11.353 3.28296 10.9053 3.73067 10.9053 4.28296V8.28667C10.9053 8.30015 10.9055 8.31356 10.9061 8.3269H8.36133C8.08519 8.3269 7.86133 8.55076 7.86133 8.8269V27.2895C7.86133 27.7003 8.32926 27.9358 8.65921 27.6911L14.6748 23.229C14.8524 23.0972 15.0955 23.0978 15.2725 23.2304L21.2153 27.6836C21.545 27.9306 22.0152 27.6954 22.0152 27.2835V22.4156L25.4532 25.0345C25.7555 25.2648 26.1624 25.3038 26.503 25.1351C26.8436 24.9664 27.0591 24.6191 27.0591 24.239V4.28296C27.0591 3.73067 26.6114 3.28296 26.0591 3.28296H11.9053ZM22.0152 20.1737C22.2331 20.1693 22.454 20.2357 22.6409 20.3781L25.0591 22.2202V5.28296H12.9053V8.28667C12.9053 8.30015 12.905 8.31356 12.9045 8.3269H21.5152C21.7913 8.3269 22.0152 8.55076 22.0152 8.8269V20.1737Z" fill="#1C1B1F"/>
</svg>
