<svg width="33" height="33" viewBox="0 0 33 33" fill="none" xmlns="http://www.w3.org/2000/svg">
<path fill-rule="evenodd" clip-rule="evenodd" d="M11.9053 3.28296C11.353 3.28296 10.9053 3.73067 10.9053 4.28296C10.9053 4.83524 11.353 5.28296 11.9053 5.28296H25.0591V24.239C25.0591 24.7913 25.5068 25.239 26.0591 25.239C26.6114 25.239 27.0591 24.7913 27.0591 24.239V4.28296C27.0591 3.73067 26.6114 3.28296 26.0591 3.28296H11.9053ZM7.86133 8.8269V27.2895C7.86133 27.7003 8.32926 27.9358 8.65921 27.6911L14.6748 23.229C14.8524 23.0972 15.0955 23.0978 15.2725 23.2304L21.2153 27.6836C21.545 27.9306 22.0152 27.6954 22.0152 27.2835V8.8269C22.0152 8.55076 21.7913 8.3269 21.5152 8.3269H8.36133C8.08519 8.3269 7.86133 8.55076 7.86133 8.8269Z" fill="#1C1B1F"/>
</svg>
