<svg width="33" height="33" viewBox="0 0 33 33" fill="none" xmlns="http://www.w3.org/2000/svg">
<path fill-rule="evenodd" clip-rule="evenodd" d="M12.96 6.48389H5.45996C5.18382 6.48389 4.95996 6.70774 4.95996 6.98389V22.729C4.95996 23.0051 5.18382 23.229 5.45996 23.229H12.5925C14.0918 23.229 15.4652 24.0675 16.1504 25.4011L16.5 26.0816L16.5 8.61987C15.8298 7.34967 14.496 6.48389 12.96 6.48389ZM17.5 8.47542L17.5 25.9257L17.7695 25.4011C18.4547 24.0675 19.8281 23.229 21.3274 23.229H28.46C28.7361 23.229 28.96 23.0051 28.96 22.729V6.98389C28.96 6.70774 28.7361 6.48389 28.46 6.48389H20.96C19.4829 6.48389 18.1928 7.28449 17.5 8.47542Z" fill="#1C1B1F"/>
</svg>
