<svg width="33" height="33" viewBox="0 0 33 33" fill="none" xmlns="http://www.w3.org/2000/svg">
<path fill-rule="evenodd" clip-rule="evenodd" d="M9.96973 3.28296H13.9324C13.9285 3.31888 13.9265 3.35537 13.9265 3.39233V16.2358C13.9265 16.6143 14.1402 16.9604 14.4786 17.1299C14.6199 17.2007 14.7729 17.2357 14.9253 17.2358C15.1375 17.236 15.3484 17.1687 15.5247 17.0368L18.9661 14.4645L18.9664 14.4647L18.9666 14.4645L22.3693 17.0339C22.5455 17.1669 22.7566 17.2352 22.9692 17.2358C23.1219 17.2362 23.2754 17.2016 23.4172 17.131C23.7568 16.9619 23.9715 16.6152 23.9715 16.2358V4.28296H23.9719V3.39233C23.9719 3.35537 23.9699 3.31888 23.966 3.28296H26.9514C27.5037 3.28296 27.9514 3.73067 27.9514 4.28296V24.2476C27.9514 24.7999 27.5037 25.2476 26.9514 25.2476H9.96973C8.86608 25.2476 7.97121 26.1415 7.96973 27.2448L7.96973 27.2476L7.96973 27.283L24.9592 27.283C25.5115 27.283 25.9592 27.7307 25.9592 28.283C25.9592 28.8352 25.5115 29.283 24.9592 29.283H6.96973C6.70451 29.283 6.45016 29.1776 6.26262 28.9901C6.07508 28.8025 5.96973 28.5482 5.96973 28.283V27.2476L5.96973 27.2437L5.96973 7.28296C5.96973 5.07382 7.76059 3.28296 9.96973 3.28296ZM15.9206 3.28296H21.9779C21.9739 3.31888 21.9719 3.35537 21.9719 3.39233V14.2277L21.9715 14.2273V14.2277L19.5718 12.4157C19.3935 12.2812 19.1815 12.2138 18.9694 12.2138C18.7589 12.2138 18.5484 12.2802 18.371 12.4128L15.9265 14.2399V14.2395L15.926 14.2399V4.28296H15.9265V3.39233C15.9265 3.35537 15.9245 3.31888 15.9206 3.28296Z" fill="#1C1B1F"/>
</svg>
