<svg width="32" height="33" viewBox="0 0 32 33" fill="none" xmlns="http://www.w3.org/2000/svg">
<path fill-rule="evenodd" clip-rule="evenodd" d="M8.86682 0.5C8.31454 0.5 7.86682 0.947715 7.86682 1.5C7.86682 2.05228 8.31454 2.5 8.86682 2.5H26.4392V27.6859C26.4392 28.2382 26.8869 28.6859 27.4392 28.6859C27.9915 28.6859 28.4392 28.2382 28.4392 27.6859V1.5C28.4392 0.947715 27.9915 0.5 27.4392 0.5H8.86682ZM3.56055 7.30652V31.999C3.56055 32.4098 4.02848 32.6453 4.35843 32.4006L12.5945 26.2914C12.7721 26.1596 13.0152 26.1602 13.1922 26.2928L21.3331 32.3931C21.6628 32.6401 22.1329 32.4049 22.1329 31.993V7.30652C22.1329 7.03038 21.9091 6.80652 21.6329 6.80652H4.06055C3.7844 6.80652 3.56055 7.03038 3.56055 7.30652Z" fill="#111827"/>
</svg>
