<svg width="33" height="33" viewBox="0 0 33 33" fill="none" xmlns="http://www.w3.org/2000/svg">
<path fill-rule="evenodd" clip-rule="evenodd" d="M8.64018 3.28052C8.08835 3.28052 7.64083 3.72753 7.64018 4.27936L7.6123 28.2819C7.61188 28.6452 7.80858 28.9802 8.12609 29.1568C8.44359 29.3335 8.83194 29.3241 9.14047 29.1322L16.9998 24.2436L24.7759 29.1297C25.0839 29.3233 25.4727 29.3343 25.7912 29.1585C26.1096 28.9828 26.3075 28.6479 26.308 28.2842L26.3358 4.28168C26.3361 4.01626 26.2309 3.76161 26.0434 3.57382C25.8558 3.38603 25.6013 3.28052 25.3358 3.28052H8.64018ZM9.62031 21.3952L9.6144 26.482L16.4743 22.2151C16.7991 22.0131 17.2107 22.0141 17.5345 22.2176L24.3101 26.475L24.316 21.3989L17.0025 16.8035L9.62031 21.3952Z" fill="#1C1B1F"/>
</svg>
