<svg width="32" height="32" viewBox="0 0 32 32" fill="none" xmlns="http://www.w3.org/2000/svg">
<path fill-rule="evenodd" clip-rule="evenodd" d="M8.86682 0C8.31454 0 7.86682 0.447715 7.86682 1V6.25359C7.86682 6.27135 7.86729 6.28899 7.8682 6.30652H4.06055C3.7844 6.30652 3.56055 6.53038 3.56055 6.80652V31.499C3.56055 31.9098 4.02848 32.1453 4.35843 31.9006L12.5945 25.7914C12.7721 25.6596 13.0152 25.6602 13.1922 25.7928L21.3331 31.8931C21.6628 32.1401 22.1329 31.9049 22.1329 31.493V24.401L26.8333 27.9814C27.1356 28.2118 27.5425 28.2507 27.8831 28.082C28.2237 27.9133 28.4392 27.566 28.4392 27.1859V1C28.4392 0.447715 27.9915 0 27.4392 0H8.86682ZM22.1329 22.1638C22.3528 22.158 22.5761 22.2244 22.7647 22.368L26.4392 25.1671V2H9.86682V6.25359C9.86682 6.27135 9.86636 6.28899 9.86545 6.30652H21.6329C21.9091 6.30652 22.1329 6.53038 22.1329 6.80652V22.1638Z" fill="#111827"/>
</svg>
