<svg width="32" height="33" viewBox="0 0 32 33" fill="none" xmlns="http://www.w3.org/2000/svg">
<path fill-rule="evenodd" clip-rule="evenodd" d="M8.72754 1.59082C8.17525 1.59082 7.72754 2.03854 7.72754 2.59082V24.0868V30.4093C7.72754 30.9616 8.17525 31.4093 8.72754 31.4093H16.3144C16.8667 31.4093 17.3144 30.9616 17.3144 30.4093V24.0868V2.59082C17.3144 2.03854 16.8667 1.59082 16.3144 1.59082H8.72754ZM15.3144 23.0868V3.59082H9.72754V23.0868H15.3144ZM9.72754 25.0868H15.3144V29.4093H9.72754V25.0868Z" fill="#111827"/>
<path d="M16.29 3.77017L23.6434 1.85913L30.8598 28.8104L23.515 30.6933L16.29 3.77017Z" fill="#111827"/>
<path d="M29.2464 22.7736L21.9181 24.7373L23.515 30.6933L30.8598 28.8104L29.2464 22.7736Z" fill="#111827"/>
<path d="M25.2864 7.96595L17.958 9.92957L16.29 3.77017L23.6434 1.85913L25.2864 7.96595Z" fill="#111827"/>
<path d="M16.29 3.77017L23.6434 1.85913M16.29 3.77017L23.515 30.6933M16.29 3.77017L17.958 9.92957L25.2864 7.96595L23.6434 1.85913M23.6434 1.85913L30.8598 28.8104M30.8598 28.8104L23.515 30.6933M30.8598 28.8104L29.2464 22.7736L21.9181 24.7373L23.515 30.6933" stroke="#111827" stroke-width="2" stroke-linecap="round" stroke-linejoin="round"/>
<path fill-rule="evenodd" clip-rule="evenodd" d="M8.72747 2.59082H1.14062V30.4093H8.72747V8.91317H1.18436V2.59103H8.72747V2.59082Z" fill="#111827"/>
<path d="M1.14062 2.59082V1.59082C0.58834 1.59082 0.140625 2.03854 0.140625 2.59082H1.14062ZM8.72747 2.59082H9.72747C9.72747 2.03854 9.27976 1.59082 8.72747 1.59082V2.59082ZM1.14062 30.4093H0.140625C0.140625 30.9616 0.58834 31.4093 1.14063 31.4093L1.14062 30.4093ZM8.72747 30.4093V31.4093C9.27976 31.4093 9.72747 30.9616 9.72747 30.4093H8.72747ZM8.72747 8.91317H9.72747C9.72747 8.36089 9.27976 7.91317 8.72747 7.91317V8.91317ZM1.18436 8.91317H0.184363C0.184363 9.46546 0.632078 9.91317 1.18436 9.91317V8.91317ZM1.18436 2.59103V1.59103C0.632078 1.59103 0.184363 2.03874 0.184363 2.59103H1.18436ZM8.72747 2.59103V3.59103C9.27976 3.59103 9.72747 3.14331 9.72747 2.59103H8.72747ZM1.14062 3.59082H8.72747V1.59082H1.14062V3.59082ZM2.14062 30.4093V2.59082H0.140625V30.4093H2.14062ZM8.72747 29.4093H1.14062V31.4093H8.72747V29.4093ZM7.72747 8.91317V30.4093H9.72747V8.91317H7.72747ZM8.72747 7.91317H1.18436V9.91317H8.72747V7.91317ZM2.18436 8.91317V2.59103H0.184363V8.91317H2.18436ZM1.18436 3.59103H8.72747V1.59103H1.18436V3.59103ZM7.72747 2.59082V2.59103H9.72747V2.59082H7.72747Z" fill="#111827"/>
</svg>
