<svg width="32" height="32" viewBox="0 0 32 32" fill="none" xmlns="http://www.w3.org/2000/svg">
<path fill-rule="evenodd" clip-rule="evenodd" d="M7.39574 0L12.2729 2.15948e-06C12.2681 0.044212 12.2656 0.0891266 12.2656 0.134618V15.942C12.2656 16.4078 12.5286 16.8337 12.9451 17.0424C13.172 17.1561 13.4232 17.1947 13.6653 17.1611C13.8674 17.1331 14.0631 17.0548 14.2329 16.9279L18.4684 13.762L18.4686 13.7621L18.4688 13.762L22.6568 16.9242C22.9209 17.1237 23.2489 17.205 23.5664 17.1613C23.6966 17.1433 23.8251 17.1043 23.9467 17.0438C24.3646 16.8357 24.6288 16.409 24.6288 15.9421V1.23082H24.6292V0.134618C24.6292 0.089127 24.6268 0.0442129 24.622 2.15948e-06H28.2963C28.976 2.15948e-06 29.5271 0.551036 29.5271 1.23077V25.8026C29.5271 26.4823 28.976 27.0334 28.2963 27.0334L7.39574 27.0334C6.0374 27.0334 4.93603 28.1336 4.9342 29.4915L4.93419 29.4949L4.9342 29.5385H25.8443C26.524 29.5385 27.0751 30.0895 27.0751 30.7692C27.0751 31.449 26.524 32 25.8443 32H3.70343C3.377 32 3.06395 31.8703 2.83314 31.6395C2.60233 31.4087 2.47266 31.0957 2.47266 30.7692L2.47266 29.4949L2.47266 29.4901L2.47266 4.92308C2.47266 2.20414 4.6768 -1.18849e-07 7.39574 0ZM14.7199 2.15948e-06H22.175C22.1702 0.0442127 22.1677 0.0891269 22.1677 0.134618V13.4705L22.1673 13.4701V13.4705L19.2138 11.2404C18.9483 11.04 18.6218 10.9607 18.3081 11.0028C18.1053 11.0301 17.9079 11.108 17.7357 11.2367L14.7272 13.4855V13.4852L14.7268 13.4855V1.23082H14.7272V0.134618C14.7272 0.0891267 14.7247 0.0442122 14.7199 2.15948e-06Z" fill="#111827"/>
</svg>
