<svg width="32" height="32" viewBox="0 0 32 32" fill="none" xmlns="http://www.w3.org/2000/svg">
<path fill-rule="evenodd" clip-rule="evenodd" d="M12 2.77271H0.5C0.223858 2.77271 0 2.99656 0 3.27271V24.5995C0 24.8757 0.223858 25.0995 0.5 25.0995H10.9907C12.49 25.0995 13.8634 25.938 14.5486 27.2716L15.5532 29.227L15.5532 4.93389C14.8874 3.64996 13.5462 2.77271 12 2.77271ZM16.5532 4.74175L16.5532 29.0198L17.4514 27.2716C18.1366 25.938 19.51 25.0995 21.0093 25.0995H31.5C31.7761 25.0995 32 24.8757 32 24.5995V3.27271C32 2.99656 31.7761 2.77271 31.5 2.77271H20C18.5323 2.77271 17.2491 3.56324 16.5532 4.74175Z" fill="#111827"/>
</svg>
