<svg width="32" height="32" viewBox="0 0 32 32" fill="none" xmlns="http://www.w3.org/2000/svg">
<path fill-rule="evenodd" clip-rule="evenodd" d="M5.74378 0.230713C5.19195 0.230713 4.74442 0.677721 4.74378 1.22955L4.70947 30.7682C4.70905 31.1316 4.90575 31.4666 5.22325 31.6432C5.54076 31.8199 5.92911 31.8105 6.23764 31.6185L16.0322 25.5263L25.724 31.6161C26.0319 31.8097 26.4207 31.8207 26.7392 31.6449C27.0577 31.4691 27.2556 31.1343 27.256 30.7706L27.2903 1.23187C27.2906 0.966457 27.1854 0.711805 26.9978 0.524017C26.8103 0.336229 26.5557 0.230713 26.2903 0.230713H5.74378ZM6.71915 22.4365L6.71157 28.9684L15.5067 23.4978C15.8315 23.2958 16.2431 23.2968 16.5669 23.5003L25.2581 28.9614L25.2657 22.4423L16.0349 16.6421L6.71915 22.4365Z" fill="#111827"/>
</svg>
