<svg width="33" height="33" viewBox="0 0 33 33" fill="none" xmlns="http://www.w3.org/2000/svg">
<path fill-rule="evenodd" clip-rule="evenodd" d="M11.0903 4.2251C10.538 4.2251 10.0903 4.67281 10.0903 5.2251V22.5945V27.7032C10.0903 28.2554 10.538 28.7032 11.0903 28.7032H17.2207C17.773 28.7032 18.2207 28.2554 18.2207 27.7032V22.5945V5.2251C18.2207 4.67281 17.773 4.2251 17.2207 4.2251H11.0903ZM16.2207 21.5945V6.2251H12.0903V21.5945H16.2207ZM12.0903 23.5945H16.2207V26.7032H12.0903V23.5945Z" fill="#1C1B1F"/>
<path d="M17.2007 6.17796L23.1424 4.63379L28.9735 26.4111L23.0387 27.9326L17.2007 6.17796Z" fill="#1C1B1F"/>
<path d="M27.6698 21.5333L21.7483 23.1199L23.0387 27.9326L28.9735 26.4111L27.6698 21.5333Z" fill="white"/>
<path d="M24.47 9.56826L18.5485 11.1549L17.2007 6.17796L23.1424 4.63379L24.47 9.56826Z" fill="white"/>
<path d="M17.2007 6.17796L23.1424 4.63379M17.2007 6.17796L23.0387 27.9326M17.2007 6.17796L18.5485 11.1549L24.47 9.56826L23.1424 4.63379M23.1424 4.63379L28.9735 26.4111M28.9735 26.4111L23.0387 27.9326M28.9735 26.4111L27.6698 21.5333L21.7483 23.1199L23.0387 27.9326" stroke="#1C1B1F" stroke-width="2" stroke-linecap="round" stroke-linejoin="round"/>
<path fill-rule="evenodd" clip-rule="evenodd" d="M11.0903 5.2251H4.95996V27.7032H11.0903V10.3338H4.99536V5.22534H11.0903V5.2251Z" fill="#1C1B1F"/>
<path d="M4.95996 5.2251V4.2251C4.40768 4.2251 3.95996 4.67281 3.95996 5.2251H4.95996ZM11.0903 5.2251H12.0903C12.0903 4.67281 11.6426 4.2251 11.0903 4.2251V5.2251ZM4.95996 27.7032H3.95996C3.95996 28.2554 4.40768 28.7032 4.95996 28.7032V27.7032ZM11.0903 27.7032V28.7032C11.6426 28.7032 12.0903 28.2554 12.0903 27.7032H11.0903ZM11.0903 10.3338H12.0903C12.0903 9.78152 11.6426 9.33381 11.0903 9.33381V10.3338ZM4.99536 10.3338H3.99536C3.99536 10.8861 4.44307 11.3338 4.99536 11.3338V10.3338ZM4.99536 5.22534V4.22534C4.44307 4.22534 3.99536 4.67306 3.99536 5.22534H4.99536ZM11.0903 5.22534V6.22534C11.6426 6.22534 12.0903 5.77763 12.0903 5.22534H11.0903ZM4.95996 6.2251H11.0903V4.2251H4.95996V6.2251ZM5.95996 27.7032V5.2251H3.95996V27.7032H5.95996ZM11.0903 26.7032H4.95996V28.7032H11.0903V26.7032ZM10.0903 10.3338V27.7032H12.0903V10.3338H10.0903ZM11.0903 9.33381H4.99536V11.3338H11.0903V9.33381ZM5.99536 10.3338V5.22534H3.99536V10.3338H5.99536ZM4.99536 6.22534H11.0903V4.22534H4.99536V6.22534ZM10.0903 5.2251V5.22534H12.0903V5.2251H10.0903Z" fill="#1C1B1F"/>
</svg>
