<svg width="32" height="32" viewBox="0 0 32 32" fill="none" xmlns="http://www.w3.org/2000/svg">
<path fill-rule="evenodd" clip-rule="evenodd" d="M0 0.500001C0 0.223858 0.223858 0 0.5 0H8.22727C8.50342 0 8.72727 0.223858 8.72727 0.5V3.36365H23.2725H23.2729V0.500001C23.2729 0.223858 23.4968 0 23.7729 0H31.5002C31.7764 0 32.0002 0.223858 32.0002 0.5V8.22727C32.0002 8.50342 31.7764 8.72727 31.5002 8.72727H28.6362V23.2726C28.6362 23.2727 28.6362 23.2728 28.6362 23.2728H31.5002C31.7764 23.2728 32.0002 23.4967 32.0002 23.7728V31.5001C32.0002 31.7762 31.7764 32.0001 31.5002 32.0001H23.7729C23.4968 32.0001 23.2729 31.7762 23.2729 31.5001V28.6364C23.2728 28.6364 23.2727 28.6364 23.2725 28.6364H8.72727V31.5001C8.72727 31.7762 8.50342 32.0001 8.22727 32.0001H0.500001C0.223858 32.0001 0 31.7762 0 31.5001V23.7728C0 23.4967 0.223858 23.2728 0.5 23.2728H3.36377V23.2726V8.72727H0.500001C0.223858 8.72727 0 8.50342 0 8.22727V0.500001ZM23.2729 26.6364V23.7728C23.2729 23.4967 23.4968 23.2728 23.7729 23.2728H26.6362C26.6362 23.2728 26.6362 23.2727 26.6362 23.2726V8.72727H23.7729C23.4968 8.72727 23.2729 8.50342 23.2729 8.22727V5.36365H23.2725H8.72727V8.22727C8.72727 8.50342 8.50342 8.72727 8.22727 8.72727H5.36377V23.2726V23.2728H8.22727C8.50342 23.2728 8.72727 23.4967 8.72727 23.7728V26.6364H23.2725C23.2727 26.6364 23.2728 26.6364 23.2729 26.6364Z" fill="#111827"/>
</svg>
