<svg width="32" height="32" viewBox="0 0 32 32" fill="none" xmlns="http://www.w3.org/2000/svg">
<path fill-rule="evenodd" clip-rule="evenodd" d="M10.1935 6.48389C9.31117 6.48389 8.55488 6.63473 7.93168 6.96797C7.29165 7.31021 6.86024 7.80864 6.58406 8.37826C6.09495 9.38704 6.09595 10.6526 6.09671 11.6288L6.09677 11.742C6.09677 12.881 6.07583 13.6845 5.80986 14.2331C5.69895 14.4619 5.54972 14.6288 5.31878 14.7522C5.07101 14.8847 4.66601 15 4 15C3.44772 15 3 15.4477 3 16C3 16.5523 3.44772 17 4 17C4.66601 17 5.07101 17.1153 5.31878 17.2478C5.54972 17.3713 5.69895 17.5382 5.80986 17.7669C6.07583 18.3155 6.09677 19.1191 6.09677 20.2581L6.09671 20.3712C6.09595 21.3475 6.09495 22.613 6.58406 23.6218C6.86024 24.1914 7.29165 24.6898 7.93168 25.0321C8.55488 25.3653 9.31117 25.5161 10.1935 25.5161C10.7458 25.5161 11.1935 25.0684 11.1935 24.5161C11.1935 23.9639 10.7458 23.5161 10.1935 23.5161C9.52754 23.5161 9.12253 23.4009 8.87477 23.2684C8.64383 23.1449 8.4946 22.978 8.38368 22.7492C8.11772 22.2007 8.09677 21.3971 8.09677 20.2581L8.09683 20.1449C8.0976 19.1687 8.0986 17.9032 7.60949 16.8944C7.45098 16.5675 7.24133 16.264 6.97045 16C7.24133 15.7361 7.45098 15.4326 7.60949 15.1056C8.0986 14.0969 8.0976 12.8313 8.09683 11.8551L8.09677 11.742C8.09677 10.6029 8.11772 9.79936 8.38368 9.25081C8.4946 9.02204 8.64383 8.85515 8.87477 8.73166C9.12253 8.59917 9.52754 8.48389 10.1935 8.48389C10.7458 8.48389 11.1935 8.03617 11.1935 7.48389C11.1935 6.9316 10.7458 6.48389 10.1935 6.48389ZM21.8066 6.48389C21.2544 6.48389 20.8066 6.9316 20.8066 7.48389C20.8066 8.03617 21.2544 8.48389 21.8066 8.48389C22.4726 8.48389 22.8777 8.59917 23.1254 8.73166C23.3564 8.85515 23.5056 9.02204 23.6165 9.25081C23.8825 9.79936 23.9034 10.6029 23.9034 11.742L23.9034 11.8551C23.9026 12.8313 23.9016 14.0969 24.3907 15.1056C24.5492 15.4326 24.7589 15.7361 25.0297 16C24.7589 16.264 24.5492 16.5675 24.3907 16.8944C23.9016 17.9032 23.9026 19.1687 23.9034 20.1449L23.9034 20.2581C23.9034 21.3971 23.8825 22.2007 23.6165 22.7492C23.5056 22.978 23.3564 23.1449 23.1254 23.2684C22.8777 23.4009 22.4726 23.5161 21.8066 23.5161C21.2544 23.5161 20.8066 23.9639 20.8066 24.5161C20.8066 25.0684 21.2544 25.5161 21.8066 25.5161C22.689 25.5161 23.4453 25.3653 24.0685 25.0321C24.7085 24.6898 25.14 24.1914 25.4161 23.6218C25.9052 22.613 25.9042 21.3475 25.9035 20.3712L25.9034 20.2581C25.9034 19.1191 25.9244 18.3155 26.1903 17.7669C26.3012 17.5382 26.4505 17.3713 26.6814 17.2478C26.9292 17.1153 27.3342 17 28.0002 17C28.5525 17 29.0002 16.5523 29.0002 16C29.0002 15.4477 28.5525 15 28.0002 15C27.3342 15 26.9292 14.8847 26.6814 14.7522C26.4505 14.6288 26.3012 14.4619 26.1903 14.2331C25.9244 13.6845 25.9034 12.881 25.9034 11.742L25.9035 11.6288C25.9042 10.6526 25.9052 9.38704 25.4161 8.37826C25.14 7.80864 24.7085 7.31021 24.0685 6.96797C23.4453 6.63473 22.689 6.48389 21.8066 6.48389Z" fill="#111827"/>
</svg>
