<svg width="32" height="32" viewBox="0 0 32 32" fill="none" xmlns="http://www.w3.org/2000/svg">
<path fill-rule="evenodd" clip-rule="evenodd" d="M5.01025 3C4.45797 3 4.01025 3.44772 4.01025 4V28C4.01025 28.5523 4.45797 29 5.01025 29H9.99143C10.5437 29 10.9914 28.5523 10.9914 28C10.9914 27.4477 10.5437 27 9.99143 27H6.01025V5H9.99305C10.5453 5 10.993 4.55228 10.993 4C10.993 3.44772 10.5453 3 9.99305 3H5.01025ZM22.0263 3C21.474 3 21.0263 3.44772 21.0263 4C21.0263 4.55228 21.474 5 22.0263 5H25.9895V27H21.9932C21.4409 27 20.9932 27.4477 20.9932 28C20.9932 28.5523 21.4409 29 21.9932 29H26.9895C27.5417 29 27.9895 28.5523 27.9895 28V4C27.9895 3.44772 27.5417 3 26.9895 3H22.0263Z" fill="#111827"/>
</svg>
