<svg width="32" height="33" viewBox="0 0 32 33" fill="none" xmlns="http://www.w3.org/2000/svg">
<path fill-rule="evenodd" clip-rule="evenodd" d="M5.01025 3.5C4.45797 3.5 4.01025 3.94772 4.01025 4.5V28.5C4.01025 29.0523 4.45797 29.5 5.01025 29.5H9.99143C10.5437 29.5 10.9914 29.0523 10.9914 28.5C10.9914 27.9477 10.5437 27.5 9.99143 27.5H6.01025V5.5H9.99305C10.5453 5.5 10.993 5.05228 10.993 4.5C10.993 3.94772 10.5453 3.5 9.99305 3.5H5.01025ZM22.0263 3.5C21.474 3.5 21.0263 3.94772 21.0263 4.5C21.0263 5.05228 21.474 5.5 22.0263 5.5H25.9895V27.5H21.9932C21.4409 27.5 20.9932 27.9477 20.9932 28.5C20.9932 29.0523 21.4409 29.5 21.9932 29.5H26.9895C27.5417 29.5 27.9895 29.0523 27.9895 28.5V4.5C27.9895 3.94772 27.5417 3.5 26.9895 3.5H22.0263Z" fill="#111827"/>
</svg>
