<svg width="32" height="32" viewBox="0 0 32 32" fill="none" xmlns="http://www.w3.org/2000/svg">
<path fill-rule="evenodd" clip-rule="evenodd" d="M15.9987 24.9762C15.9224 27.6581 13.7244 29.8088 11.024 29.8088C8.27547 29.8088 6.04733 27.5806 6.04733 24.8321C6.04733 24.692 6.05312 24.5532 6.06448 24.416C6.8515 24.372 7.61459 24.097 8.25411 23.6166C9.10624 22.9764 9.66918 22.024 9.81907 20.9688C9.89675 20.422 9.51645 19.9158 8.96965 19.8381C8.42286 19.7604 7.91663 20.1407 7.83895 20.6875C7.76366 21.2176 7.48089 21.696 7.05285 22.0175C6.62482 22.3391 6.08658 22.4774 5.55654 22.4021L4.74347 22.2866C2.54518 21.3701 1 19.2005 1 16.6701C1 13.804 2.98222 11.4009 5.6505 10.757C5.11217 9.89681 4.801 8.87993 4.801 7.79038C4.801 4.6977 7.30811 2.19058 10.4008 2.19058C13.479 2.19058 15.9771 4.6743 16.0004 7.74703C16.0237 4.67432 18.5218 2.19061 21.6001 2.19061C24.6927 2.19061 27.1998 4.69773 27.1998 7.79041C27.1998 8.87996 26.8887 9.89684 26.3503 10.757C29.0186 11.401 31.0008 13.804 31.0008 16.6701C31.0008 19.6419 28.8696 22.116 26.0521 22.6472C25.7842 22.585 25.5288 22.4693 25.3023 22.304C24.8595 21.9811 24.5631 21.4956 24.4784 20.9541L24.3429 20.0886C24.2575 19.543 23.7459 19.1699 23.2002 19.2553C22.6546 19.3407 22.2815 19.8523 22.3669 20.3979L22.5024 21.2635C22.6692 22.3289 23.2525 23.2845 24.1238 23.92C24.6678 24.3167 25.2964 24.5684 25.9511 24.6609C25.953 24.7177 25.954 24.7748 25.954 24.8321C25.954 27.5807 23.7259 29.8088 20.9773 29.8088C18.2769 29.8088 16.0789 27.6581 16.0027 24.9762H16.0001V24.9762H15.9987ZM11.5649 8.66774C12.1172 8.66774 12.5649 9.11546 12.5649 9.66774V10.7739C12.5649 12.0659 12.0517 13.305 11.1381 14.2186C10.2245 15.1322 8.98538 15.6454 7.69337 15.6454C7.14109 15.6454 6.69337 15.1977 6.69337 14.6454C6.69337 14.0931 7.14109 13.6454 7.69337 13.6454C8.45495 13.6454 9.18533 13.3429 9.72385 12.8044C10.2624 12.2659 10.5649 11.5355 10.5649 10.7739V9.66774C10.5649 9.11546 11.0126 8.66774 11.5649 8.66774ZM19.8858 18.9595C19.1205 18.9595 18.3865 19.2635 17.8454 19.8046C17.3086 20.3414 17.0052 21.0678 17.0003 21.8264L17.0003 21.845V22.9552C17.0003 23.5075 16.5526 23.9552 16.0003 23.9552C15.9604 23.9552 15.921 23.9528 15.8823 23.9483C15.3856 23.8899 15.0002 23.4675 15.0002 22.9552V21.845L15.0003 21.8264C14.9954 21.0678 14.6919 20.3414 14.1552 19.8046C13.614 19.2635 12.8801 18.9595 12.1148 18.9595C11.5625 18.9595 11.1148 18.5118 11.1148 17.9595C11.1148 17.4072 11.5625 16.9595 12.1148 16.9595C13.4105 16.9595 14.6532 17.4742 15.5694 18.3904C15.7247 18.5458 15.8685 18.7105 16.0003 18.8833C16.132 18.7105 16.2758 18.5458 16.4312 18.3904C17.3474 17.4742 18.59 16.9595 19.8858 16.9595C20.438 16.9595 20.8858 17.4072 20.8858 17.9595C20.8858 18.5118 20.438 18.9595 19.8858 18.9595ZM21.3653 9.66774C21.3653 9.11546 20.9176 8.66774 20.3653 8.66774C19.813 8.66774 19.3653 9.11546 19.3653 9.66774V10.7739C19.3653 12.0659 19.8785 13.305 20.7921 14.2186C21.7057 15.1322 22.9448 15.6454 24.2368 15.6454C24.7891 15.6454 25.2368 15.1977 25.2368 14.6454C25.2368 14.0931 24.7891 13.6454 24.2368 13.6454C23.4753 13.6454 22.7449 13.3429 22.2063 12.8044C21.6678 12.2659 21.3653 11.5355 21.3653 10.7739V9.66774Z" fill="#111827"/>
</svg>
