<svg width="33" height="33" viewBox="0 0 33 33" fill="none" xmlns="http://www.w3.org/2000/svg">
<path fill-rule="evenodd" clip-rule="evenodd" d="M12.4802 6.23584C10.5584 6.23584 9.00046 7.79378 9.00046 9.71559C9.00046 10.3942 9.19372 11.0246 9.52777 11.5584C9.69836 11.831 9.72747 12.1689 9.606 12.4667C9.48454 12.7644 9.22731 12.9855 8.91473 13.061C7.21888 13.4703 5.95996 14.999 5.95996 16.8192C5.95996 18.6005 7.16529 20.1012 8.80437 20.549C8.83997 20.5502 8.87587 20.5534 8.91194 20.5585L9.40237 20.6282C9.59503 20.6555 9.79068 20.6052 9.94626 20.4884C10.1018 20.3715 10.2046 20.1976 10.232 20.0049C10.3097 19.4581 10.8159 19.0778 11.3627 19.1555C11.9095 19.2332 12.2898 19.7394 12.2121 20.2862C12.1101 21.004 11.7272 21.6519 11.1475 22.0874C10.8336 22.3233 10.4759 22.4863 10.0998 22.5701C10.0331 22.8177 9.9974 23.0785 9.9974 23.3487C9.9974 24.9952 11.3322 26.33 12.9787 26.33C14.5961 26.33 15.913 25.0416 15.9587 23.4356C15.959 23.4259 15.9594 23.4163 15.96 23.4067V23.3487V21.8657L15.9598 21.8471V20.9592C15.9598 20.4002 15.7377 19.8641 15.3425 19.4688C14.9472 19.0735 14.4111 18.8515 13.8521 18.8515C13.2998 18.8515 12.8521 18.4038 12.8521 17.8515C12.8521 17.2992 13.2998 16.8515 13.8521 16.8515C14.6006 16.8515 15.3281 17.0558 15.96 17.4335V9.71977L15.96 9.71837L15.96 9.71559C15.96 9.71423 15.96 9.71288 15.96 9.71152C15.9578 7.79158 14.4007 6.23584 12.4802 6.23584ZM16.96 6.55893C15.9679 5.15361 14.3312 4.23584 12.4802 4.23584C9.45383 4.23584 7.00046 6.68921 7.00046 9.71559C7.00046 10.3475 7.10776 10.9553 7.30522 11.5213C5.32728 12.464 3.95996 14.4811 3.95996 16.8192C3.95996 19.4524 5.69442 21.6797 8.08363 22.4219C8.02699 22.7226 7.9974 23.0324 7.9974 23.3487C7.9974 26.0998 10.2276 28.33 12.9787 28.33C14.606 28.33 16.051 27.5497 16.96 26.3428C17.869 27.5497 19.3139 28.33 20.9412 28.33C23.6923 28.33 25.9225 26.0998 25.9225 23.3487C25.9225 23.0324 25.8929 22.7226 25.8363 22.4219C28.2255 21.6797 29.96 19.4524 29.96 16.8192C29.96 14.4811 28.5926 12.464 26.6147 11.5213C26.8122 10.9553 26.9195 10.3475 26.9195 9.71559C26.9195 6.68921 24.4661 4.23584 21.4397 4.23584C19.5887 4.23584 17.952 5.15361 16.96 6.55893ZM17.96 9.71152C17.96 9.71288 17.96 9.71423 17.96 9.71559L17.96 9.71837L17.96 9.71977V17.4335C18.5918 17.0558 19.3193 16.8515 20.0679 16.8515C20.6202 16.8515 21.0679 17.2992 21.0679 17.8515C21.0679 18.4038 20.6202 18.8515 20.0679 18.8515C19.5089 18.8515 18.9728 19.0735 18.5775 19.4688C18.1822 19.8641 17.9601 20.4002 17.9601 20.9592V21.8471L17.96 21.8657V23.3487V23.4067C17.9605 23.4163 17.9609 23.4259 17.9612 23.4356C18.0069 25.0416 19.3238 26.33 20.9412 26.33C22.5878 26.33 23.9225 24.9952 23.9225 23.3487C23.9225 23.0539 23.88 22.7703 23.8011 22.5029C23.5246 22.4145 23.2614 22.2819 23.0225 22.1077C22.4367 21.6804 22.0446 21.038 21.9324 20.3217L21.8558 19.8323C21.7704 19.2867 22.1435 18.7751 22.6891 18.6897C23.2347 18.6043 23.7463 18.9774 23.8317 19.523L23.9084 20.0124C23.9385 20.2046 24.0437 20.3771 24.2009 20.4917C24.3581 20.6064 24.5545 20.6539 24.7467 20.6238C24.7777 20.619 24.8085 20.6156 24.8391 20.6136C26.6173 20.2668 27.96 18.6993 27.96 16.8192C27.96 14.999 26.701 13.4703 25.0052 13.061C24.6926 12.9855 24.4354 12.7644 24.3139 12.4667C24.1925 12.1689 24.2216 11.831 24.3922 11.5584C24.7262 11.0246 24.9195 10.3942 24.9195 9.71559C24.9195 7.79378 23.3615 6.23584 21.4397 6.23584C19.5193 6.23584 17.9622 7.79158 17.96 9.71152ZM13.411 10.2174C13.9633 10.2174 14.411 10.6652 14.411 11.2174V12.1022C14.411 13.1886 13.9794 14.2306 13.2112 14.9989C12.4429 15.7671 11.4009 16.1987 10.3145 16.1987C9.76217 16.1987 9.31445 15.751 9.31445 15.1987C9.31445 14.6464 9.76217 14.1987 10.3145 14.1987C10.8705 14.1987 11.4038 13.9778 11.7969 13.5847C12.1901 13.1915 12.411 12.6582 12.411 12.1022V11.2174C12.411 10.6652 12.8587 10.2174 13.411 10.2174ZM19.4528 11.2174C19.4528 10.6652 19.9005 10.2174 20.4528 10.2174C21.0051 10.2174 21.4528 10.6652 21.4528 11.2174V12.1022C21.4528 12.6582 21.6737 13.1915 22.0668 13.5847C22.46 13.9778 22.9933 14.1987 23.5493 14.1987C24.1016 14.1987 24.5493 14.6464 24.5493 15.1987C24.5493 15.751 24.1016 16.1987 23.5493 16.1987C22.4628 16.1987 21.4209 15.7671 20.6526 14.9989C19.8844 14.2306 19.4528 13.1886 19.4528 12.1022V11.2174Z" fill="#1C1B1F"/>
</svg>
