<svg width="32" height="32" viewBox="0 0 32 32" fill="none" xmlns="http://www.w3.org/2000/svg">
<path fill-rule="evenodd" clip-rule="evenodd" d="M26.1992 7.79056C26.1992 5.25016 24.1398 3.19077 21.5994 3.19077C19.084 3.19077 17.0402 5.2098 17.0002 7.71565C17.0003 7.72738 17.0004 7.73913 17.0005 7.75088C17.001 7.7641 17.0012 7.77739 17.0012 7.79074V17.9018C17.8331 17.2934 18.842 16.9596 19.8854 16.9596C20.4377 16.9596 20.8854 17.4074 20.8854 17.9596C20.8854 18.5119 20.4377 18.9596 19.8854 18.9596C19.1201 18.9596 18.3862 19.2637 17.845 19.8048C17.3248 20.325 17.0238 21.0233 17.0012 21.7564V24.9383C17.0014 24.9415 17.0015 24.9447 17.0016 24.9479C17.0625 27.0904 18.819 28.809 20.9766 28.809C23.1729 28.809 24.9533 27.0285 24.9533 24.8323C24.9533 24.3913 24.8819 23.9684 24.7503 23.5738C24.3852 23.4731 24.0376 23.3069 23.7257 23.0794C23.0469 22.5844 22.5926 21.84 22.4626 21.01L22.3669 20.3981C22.2814 19.8525 22.6545 19.3409 23.2002 19.2555C23.7458 19.17 24.2574 19.5431 24.3428 20.0888L24.4386 20.7006C24.4865 21.0066 24.654 21.281 24.9042 21.4634C25.1544 21.6459 25.4668 21.7215 25.7728 21.6736C25.8072 21.6682 25.8415 21.6647 25.8756 21.6629C28.2242 21.2152 30.0002 19.1496 30.0002 16.6702C30.0002 14.2767 28.3447 12.2674 26.1151 11.7293C25.8025 11.6538 25.5452 11.4327 25.4238 11.135C25.3023 10.8372 25.3314 10.4992 25.502 10.2267C25.9437 9.52089 26.1992 8.68709 26.1992 7.79056ZM16.0004 28.1436C17.0717 29.7505 18.9005 30.809 20.9766 30.809C24.2775 30.809 26.9533 28.1331 26.9533 24.8323C26.9533 24.3745 26.9017 23.928 26.8038 23.4987C29.8001 22.6728 32.0002 19.9289 32.0002 16.6702C32.0002 13.7662 30.2532 11.2721 27.7536 10.1786C28.0413 9.43745 28.1992 8.63178 28.1992 7.79056C28.1992 4.14559 25.2443 1.19077 21.5994 1.19077C19.238 1.19077 17.1663 2.43089 16 4.29538C14.8337 2.431 12.7621 1.19097 10.4008 1.19097C6.75583 1.19097 3.801 4.14579 3.801 7.79076C3.801 8.63198 3.95882 9.43765 4.24658 10.1788C1.74701 11.2723 0 13.7664 0 16.6704C0 19.9293 2.20032 22.6733 5.19685 23.4991C5.09897 23.9283 5.04733 24.3747 5.04733 24.8325C5.04733 28.1333 7.72319 30.8092 11.024 30.8092C13.1002 30.8092 14.9291 29.7506 16.0004 28.1436ZM15 7.71564C14.9998 7.73374 14.9997 7.75186 14.9996 7.76999L14.9994 7.79054V24.9386C14.9993 24.9417 14.9992 24.9449 14.9991 24.9481C14.9382 27.0906 13.1816 28.8092 11.024 28.8092C8.82776 28.8092 7.04733 27.0287 7.04733 24.8325C7.04733 24.4174 7.11061 24.0184 7.22774 23.6438C7.71565 23.5585 8.18144 23.3592 8.58484 23.0561C9.25653 22.5515 9.70026 21.8008 9.81842 20.969C9.89609 20.4222 9.51579 19.916 8.969 19.8383C8.4222 19.7606 7.91597 20.1409 7.83829 20.6877C7.79474 20.9943 7.63118 21.271 7.38358 21.457C7.13599 21.643 6.82465 21.7231 6.51805 21.6795L5.90488 21.5924C5.85987 21.586 5.81514 21.5827 5.7709 21.5824C3.59993 21.0043 2 19.0237 2 16.6704C2 14.2769 3.65547 12.2676 5.8851 11.7295C6.19768 11.654 6.45492 11.4329 6.5764 11.1352C6.69787 10.8374 6.66877 10.4994 6.49818 10.2269C6.05648 9.52109 5.801 8.68729 5.801 7.79076C5.801 5.25036 7.8604 3.19097 10.4008 3.19097C12.9161 3.19097 14.9599 5.20989 15 7.71564ZM11.5648 8.66791C12.1171 8.66791 12.5648 9.11563 12.5648 9.66791V10.7741C12.5648 12.0661 12.0516 13.3052 11.138 14.2188C10.2244 15.1323 8.9853 15.6456 7.69329 15.6456C7.141 15.6456 6.69329 15.1979 6.69329 14.6456C6.69329 14.0933 7.141 13.6456 7.69329 13.6456C8.45487 13.6456 9.18525 13.3431 9.72377 12.8045C10.2623 12.266 10.5648 11.5356 10.5648 10.7741V9.66791C10.5648 9.11563 11.0125 8.66791 11.5648 8.66791ZM19.3653 9.66791C19.3653 9.11563 19.813 8.66791 20.3653 8.66791C20.9176 8.66791 21.3653 9.11563 21.3653 9.66791V10.7741C21.3653 11.5356 21.6679 12.266 22.2064 12.8045C22.7449 13.3431 23.4753 13.6456 24.2369 13.6456C24.7891 13.6456 25.2369 14.0933 25.2369 14.6456C25.2369 15.1979 24.7891 15.6456 24.2369 15.6456C22.9448 15.6456 21.7058 15.1323 20.7922 14.2188C19.8786 13.3052 19.3653 12.0661 19.3653 10.7741V9.66791Z" fill="#111827"/>
</svg>
