<svg width="32" height="32" viewBox="0 0 32 32" fill="none" xmlns="http://www.w3.org/2000/svg">
<path fill-rule="evenodd" clip-rule="evenodd" d="M15.9985 24.9762C15.9222 27.6581 13.7242 29.8088 11.0238 29.8088C8.27527 29.8088 6.04713 27.5806 6.04713 24.8321C6.04713 24.6919 6.05292 24.5532 6.06428 24.416C6.85132 24.372 7.61443 24.097 8.25396 23.6166C9.10609 22.9764 9.66902 22.024 9.81892 20.9688C9.89659 20.422 9.5163 19.9158 8.9695 19.8381C8.42271 19.7604 7.91647 20.1407 7.8388 20.6875C7.7635 21.2175 7.48074 21.696 7.0527 22.0175C6.62467 22.3391 6.08642 22.4774 5.55639 22.4021L4.74324 22.2866C2.54497 21.37 0.9998 19.2005 0.9998 16.67C0.9998 13.804 2.98202 11.4009 5.6503 10.757C5.11197 9.8968 4.8008 8.87992 4.8008 7.79036C4.8008 4.69768 7.30791 2.19057 10.4006 2.19057C13.4757 2.19057 15.9718 4.66923 16.0001 7.73763C16.0285 4.66924 18.5246 2.19058 21.5997 2.19058C24.6924 2.19058 27.1995 4.6977 27.1995 7.79038C27.1995 8.87993 26.8883 9.89681 26.35 10.757C29.0183 11.4009 31.0005 13.804 31.0005 16.6701C31.0005 19.6419 28.8693 22.1159 26.0518 22.6472C25.784 22.5849 25.5286 22.4692 25.3021 22.304C24.8594 21.9811 24.563 21.4955 24.4782 20.9541L24.3427 20.0886C24.2573 19.5429 23.7457 19.1699 23.2001 19.2553C22.6545 19.3407 22.2814 19.8523 22.3668 20.3979L22.5023 21.2635C22.6691 22.3289 23.2523 23.2845 24.1237 23.92C24.6676 24.3167 25.2961 24.5683 25.9508 24.6608C25.9527 24.7177 25.9536 24.7748 25.9536 24.8321C25.9536 27.5806 23.7255 29.8088 20.9769 29.8088C18.2766 29.8088 16.0786 27.6581 16.0023 24.9762H15.9997V24.9762H15.9985ZM11.5648 8.66772C12.117 8.66772 12.5648 9.11544 12.5648 9.66772V10.7739C12.5648 12.0659 12.0515 13.305 11.1379 14.2186C10.2243 15.1322 8.98523 15.6454 7.69322 15.6454C7.14093 15.6454 6.69322 15.1977 6.69322 14.6454C6.69322 14.0931 7.14093 13.6454 7.69322 13.6454C8.45479 13.6454 9.18518 13.3429 9.7237 12.8044C10.2622 12.2658 10.5648 11.5355 10.5648 10.7739V9.66772C10.5648 9.11544 11.0125 8.66772 11.5648 8.66772ZM11.1156 17.9595C11.1156 17.4072 11.5633 16.9595 12.1156 16.9595C13.4113 16.9595 14.654 17.4742 15.5702 18.3904C15.7253 18.5456 15.869 18.7101 16.0006 18.8827C16.1322 18.7101 16.2758 18.5456 16.431 18.3904C17.3472 17.4742 18.5899 16.9595 19.8856 16.9595C20.4379 16.9595 20.8856 17.4072 20.8856 17.9595C20.8856 18.5117 20.4379 18.9595 19.8856 18.9595C19.1203 18.9595 18.3864 19.2635 17.8452 19.8046C17.3185 20.3313 17.0165 21.0406 17.0007 21.7837C17.001 21.8041 17.0011 21.8245 17.0011 21.845V22.9551C17.0011 23.5074 16.5534 23.9551 16.0011 23.9551C15.4488 23.9551 15.0011 23.5074 15.0011 22.9551V21.845C15.0011 21.8245 15.0009 21.8041 15.0005 21.7837L11.1156 17.9595ZM20.3651 8.66772C20.9174 8.66772 21.3651 9.11544 21.3651 9.66772V10.7739C21.3651 11.5355 21.6677 12.2658 22.2062 12.8044C22.7447 13.3429 23.4751 13.6454 24.2367 13.6454C24.789 13.6454 25.2367 14.0931 25.2367 14.6454C25.2367 15.1977 24.789 15.6454 24.2367 15.6454C22.9447 15.6454 21.7056 15.1322 20.792 14.2186C19.8784 13.305 19.3651 12.0659 19.3651 10.7739V9.66772C19.3651 9.11544 19.8129 8.66772 20.3651 8.66772Z" fill="#111827"/>
</svg>
