<svg width="32" height="33" viewBox="0 0 32 33" fill="none" xmlns="http://www.w3.org/2000/svg">
<path fill-rule="evenodd" clip-rule="evenodd" d="M3.13476 0.954723C3.31926 0.671095 3.63466 0.5 3.97302 0.5L28.0273 0.500078C28.3657 0.500079 28.6811 0.671178 28.8656 0.954807C30.3723 3.27112 31.2257 5.95125 31.3357 8.7123C31.4458 11.4734 30.8084 14.2129 29.4908 16.6418C28.1732 19.0707 26.2243 21.0988 23.8498 22.512C21.7626 23.7544 19.4145 24.4811 17.0001 24.6387V30.5002H22.5216C23.0739 30.5002 23.5216 30.9479 23.5216 31.5002C23.5216 32.0525 23.0739 32.5002 22.5216 32.5002H9.4782C8.92591 32.5002 8.4782 32.0525 8.4782 31.5002C8.4782 30.9479 8.92591 30.5002 9.4782 30.5002H15.0001V24.6387C12.5857 24.4811 10.2376 23.7543 8.15037 22.512C5.7759 21.0987 3.82702 19.0706 2.50944 16.6417C1.19186 14.2128 0.554464 11.4733 0.664526 8.7122C0.774587 5.95115 1.62803 3.27103 3.13476 0.954723ZM4.52829 2.5C3.39403 4.40692 2.75154 6.56924 2.66294 8.79187C2.59989 10.3735 2.81887 11.9471 3.30317 13.4406H28.6971C29.1814 11.9471 29.4004 10.3736 29.3373 8.79195C29.2487 6.56933 28.6063 4.407 27.472 2.50008L4.52829 2.5Z" fill="#111827"/>
</svg>
