<svg width="33" height="33" viewBox="0 0 33 33" fill="none" xmlns="http://www.w3.org/2000/svg">
<path d="M16.9602 22.0222V28.283" stroke="#1C1B1F" stroke-width="2" stroke-linecap="round" stroke-linejoin="round"/>
<path d="M11.7429 28.283H22.1775" stroke="#1C1B1F" stroke-width="2" stroke-linecap="round" stroke-linejoin="round"/>
<path d="M26.5819 4.28302C27.7087 6.01531 28.3469 8.01969 28.4292 10.0846C28.5115 12.1495 28.0348 14.1983 27.0494 16.0148C26.0641 17.8312 24.6065 19.348 22.8308 20.4049C21.055 21.4619 19.0268 22.0198 16.9602 22.0198C14.8937 22.0198 12.8655 21.4618 11.0897 20.4049C9.31391 19.3479 7.85641 17.8312 6.87103 16.0147C5.88566 14.1982 5.40898 12.1494 5.49129 10.0845C5.5736 8.01962 6.21186 6.01524 7.33869 4.28296L26.5819 4.28302Z" stroke="#1C1B1F" stroke-width="2" stroke-linecap="round" stroke-linejoin="round"/>
<path fill-rule="evenodd" clip-rule="evenodd" d="M5.95483 13.8354C7.21792 18.6446 11.6663 22.1976 16.9601 22.1976C22.2538 22.1976 26.7022 18.6446 27.9653 13.8354H5.95483Z" fill="#1C1B1F"/>
<path d="M5.95483 13.8354V12.8354C5.64482 12.8354 5.35233 12.9792 5.16299 13.2247C4.97366 13.4702 4.90888 13.7896 4.98764 14.0895L5.95483 13.8354ZM27.9653 13.8354L28.9325 14.0895C29.0112 13.7896 28.9465 13.4702 28.7571 13.2247C28.5678 12.9792 28.2753 12.8354 27.9653 12.8354V13.8354ZM16.9601 21.1976C12.1205 21.1976 8.06961 17.9508 6.92203 13.5814L4.98764 14.0895C6.36623 19.3384 11.2121 23.1976 16.9601 23.1976V21.1976ZM26.9981 13.5814C25.8505 17.9508 21.7997 21.1976 16.9601 21.1976V23.1976C22.708 23.1976 27.5539 19.3384 28.9325 14.0895L26.9981 13.5814ZM27.9653 12.8354H5.95483V14.8354H27.9653V12.8354Z" fill="#1C1B1F"/>
</svg>
