<svg width="32" height="32" viewBox="0 0 32 32" fill="none" xmlns="http://www.w3.org/2000/svg">
<path fill-rule="evenodd" clip-rule="evenodd" d="M3.13476 0.454723C3.31926 0.171095 3.63466 0 3.97302 0L28.0273 7.83801e-05C28.3657 7.9453e-05 28.6811 0.171178 28.8656 0.454807C30.3723 2.77112 31.2257 5.45125 31.3357 8.2123C31.4458 10.9734 30.8084 13.7129 29.4908 16.1418C28.1732 18.5707 26.2243 20.5988 23.8498 22.012C21.7626 23.2544 19.4145 23.9811 17.0001 24.1387V30.0002H22.5216C23.0739 30.0002 23.5216 30.4479 23.5216 31.0002C23.5216 31.5525 23.0739 32.0002 22.5216 32.0002H9.4782C8.92591 32.0002 8.4782 31.5525 8.4782 31.0002C8.4782 30.4479 8.92591 30.0002 9.4782 30.0002H15.0001V24.1387C12.5857 23.9811 10.2376 23.2543 8.15037 22.012C5.7759 20.5987 3.82702 18.5706 2.50944 16.1417C1.19186 13.7128 0.554464 10.9733 0.664526 8.2122C0.774587 5.45115 1.62803 2.77103 3.13476 0.454723ZM4.52829 2C3.39403 3.90692 2.75154 6.06924 2.66294 8.29187C2.59989 9.87352 2.81887 11.4471 3.30317 12.9406H28.6971C29.1814 11.4471 29.4004 9.87358 29.3373 8.29195C29.2487 6.06933 28.6063 3.907 27.472 2.00008L4.52829 2Z" fill="#111827"/>
</svg>
