<svg width="33" height="33" viewBox="0 0 33 33" fill="none" xmlns="http://www.w3.org/2000/svg">
<path fill-rule="evenodd" clip-rule="evenodd" d="M11.96 4.2829C11.4077 4.2829 10.96 4.73061 10.96 5.2829V9.2829H5.95996C5.40768 9.2829 4.95996 9.73061 4.95996 10.2829V13.2829H28.96V10.2829C28.96 9.73061 28.5122 9.2829 27.96 9.2829H22.96V5.2829C22.96 4.73061 22.5122 4.2829 21.96 4.2829H11.96ZM12.96 9.02252V6.2829H20.96V9.02252H12.96ZM4.95996 21.2829V15.2829H28.96V21.2829H4.95996ZM28.96 23.2829H4.95996V26.2829C4.95996 26.8352 5.40768 27.2829 5.95996 27.2829H27.96C28.5122 27.2829 28.96 26.8352 28.96 26.2829V23.2829Z" fill="#1C1B1F"/>
</svg>
