<svg width="32" height="32" viewBox="0 0 32 32" fill="none" xmlns="http://www.w3.org/2000/svg">
<path fill-rule="evenodd" clip-rule="evenodd" d="M9.33333 0.833282C8.78105 0.833282 8.33333 1.281 8.33333 1.83328V7.16662H1C0.447715 7.16662 0 7.61433 0 8.16662V12.8333H32V8.16662C32 7.61433 31.5523 7.16662 31 7.16662H23.6667V1.83328C23.6667 1.281 23.219 0.833282 22.6667 0.833282H9.33333ZM10.3333 7.15278V2.83328H21.6667V7.15278H10.3333ZM0 23.5V14.8333H32V23.5H0ZM32 25.5H0V30.1666C0 30.7189 0.447715 31.1666 1 31.1666H31C31.5523 31.1666 32 30.7189 32 30.1666V25.5Z" fill="#111827"/>
</svg>
