<svg width="32" height="32" viewBox="0 0 32 32" fill="none" xmlns="http://www.w3.org/2000/svg">
<path fill-rule="evenodd" clip-rule="evenodd" d="M9.74921 1.25082C9.19693 1.25082 8.74921 1.69854 8.74921 2.25082V6.25051H1.00098C0.448692 6.25051 0.000976562 6.69823 0.000976562 7.25051V29.7491C0.000976562 30.3014 0.448692 30.7491 1.00098 30.7491H30.9991C31.5514 30.7491 31.9991 30.3014 31.9991 29.7491V7.25051C31.9991 6.69823 31.5514 6.25051 30.9991 6.25051H23.2485V2.25082C23.2485 1.69854 22.8007 1.25082 22.2485 1.25082H9.74921ZM9.74609 8.25051C9.74713 8.25052 9.74817 8.25052 9.74921 8.25052H22.2485C22.2495 8.25052 22.2505 8.25052 22.2516 8.25051H29.9991V16.2821C19.1624 22.1036 12.6755 22.0401 2.00098 16.2851V8.25051H9.74609ZM21.2485 6.25052V3.25082H10.7492V6.25052H21.2485ZM14.1238 13.75C13.5715 13.75 13.1238 14.1978 13.1238 14.75C13.1238 15.3023 13.5715 15.75 14.1238 15.75H17.8736C18.4259 15.75 18.8736 15.3023 18.8736 14.75C18.8736 14.1978 18.4259 13.75 17.8736 13.75H14.1238Z" fill="#111827"/>
</svg>
