<svg width="33" height="33" viewBox="0 0 33 33" fill="none" xmlns="http://www.w3.org/2000/svg">
<path fill-rule="evenodd" clip-rule="evenodd" d="M11.959 4.2829C11.4067 4.2829 10.959 4.73061 10.959 5.2829V8.2829H4.95996C4.40768 8.2829 3.95996 8.73061 3.95996 9.2829V27.2829C3.95996 27.8352 4.40768 28.2829 4.95996 28.2829H28.96C29.5122 28.2829 29.96 27.8352 29.96 27.2829V9.2829C29.96 8.73061 29.5122 8.2829 28.96 8.2829H22.959V5.2829C22.959 4.73061 22.5113 4.2829 21.959 4.2829H11.959ZM20.959 8.2829V6.2829H12.959V8.2829H20.959ZM11.959 10.2829H5.95996V16.6184C14.3161 21.0809 19.4772 21.1291 27.96 16.6154V10.2829H21.959H11.959ZM15.459 14.2829C14.9067 14.2829 14.459 14.7306 14.459 15.2829C14.459 15.8352 14.9067 16.2829 15.459 16.2829H18.459C19.0113 16.2829 19.459 15.8352 19.459 15.2829C19.459 14.7306 19.0113 14.2829 18.459 14.2829H15.459Z" fill="#1C1B1F"/>
</svg>
