<svg width="32" height="32" viewBox="0 0 32 32" fill="none" xmlns="http://www.w3.org/2000/svg">
<path fill-rule="evenodd" clip-rule="evenodd" d="M27.3095 4.6892C26.9186 4.29901 26.2854 4.29955 25.8952 4.69041C25.505 5.08127 25.5056 5.71443 25.8964 6.10462C27.1973 7.40329 28.2294 8.94572 28.9335 10.6437C29.6377 12.3416 30.0001 14.1617 30.0001 15.9999C30.0001 17.838 29.6377 19.6582 28.9335 21.3561C28.2294 23.054 27.1973 24.5965 25.8964 25.8951C25.5056 26.2853 25.505 26.9185 25.8952 27.3093C26.2854 27.7002 26.9186 27.7007 27.3095 27.3106C28.7964 25.8261 29.9761 24.0631 30.781 22.1223C31.5859 20.1814 32.0001 18.101 32.0001 15.9999C32.0001 13.8988 31.5859 11.8183 30.781 9.8775C29.9761 7.93669 28.7964 6.17363 27.3095 4.6892ZM6.10491 4.69063C6.4951 5.08149 6.49456 5.71465 6.1037 6.10485C4.80282 7.40351 3.77077 8.94594 3.06661 10.6439C2.36245 12.3418 2 14.1619 2 16.0001C2 17.8383 2.36245 19.6584 3.06661 21.3563C3.77077 23.0543 4.80282 24.5967 6.1037 25.8954C6.49456 26.2855 6.4951 26.9187 6.10491 27.3096C5.71472 27.7004 5.08155 27.701 4.6907 27.3108C3.20373 25.8264 2.02406 24.0633 1.21918 22.1225C0.414294 20.1817 0 18.1012 0 16.0001C0 13.899 0.414294 11.8185 1.21918 9.87772C2.02406 7.93691 3.20373 6.17385 4.6907 4.68942C5.08155 4.29923 5.71472 4.29977 6.10491 4.69063ZM9.89146 8.47722C10.2817 8.86808 10.2811 9.50125 9.89025 9.89144C9.0872 10.6931 8.4501 11.6453 8.01541 12.6934C7.58072 13.7416 7.35698 14.8652 7.35698 15.9999C7.35698 17.1346 7.58072 18.2582 8.01541 19.3064C8.4501 20.3546 9.0872 21.3067 9.89025 22.1084C10.2811 22.4986 10.2817 23.1318 9.89146 23.5226C9.50127 23.9135 8.86811 23.914 8.47725 23.5238C7.48811 22.5364 6.70339 21.3636 6.16798 20.0725C5.63257 18.7815 5.35698 17.3976 5.35698 15.9999C5.35698 14.6023 5.63257 13.2183 6.16798 11.9273C6.70339 10.6363 7.48811 9.46346 8.47725 8.47601C8.86811 8.08582 9.50127 8.08637 9.89146 8.47722ZM15.9999 20.2841C18.366 20.2841 20.2841 18.366 20.2841 15.9999C20.2841 13.6338 18.366 11.7156 15.9999 11.7156C13.6338 11.7156 11.7156 13.6338 11.7156 15.9999C11.7156 18.366 13.6338 20.2841 15.9999 20.2841ZM23.5232 8.47602C23.1323 8.08582 22.4992 8.08637 22.109 8.47722C21.7188 8.86808 21.7193 9.50125 22.1102 9.89144C22.9132 10.6931 23.5503 11.6453 23.985 12.6934C24.4197 13.7416 24.6435 14.8652 24.6435 15.9999C24.6435 17.1346 24.4197 18.2582 23.985 19.3064C23.5503 20.3546 22.9132 21.3067 22.1102 22.1084C21.7193 22.4986 21.7188 23.1318 22.109 23.5226C22.4992 23.9135 23.1323 23.914 23.5232 23.5238C24.5123 22.5364 25.297 21.3636 25.8325 20.0725C26.3679 18.7815 26.6435 17.3976 26.6435 15.9999C26.6435 14.6023 26.3679 13.2183 25.8325 11.9273C25.297 10.6363 24.5123 9.46346 23.5232 8.47602Z" fill="#111827"/>
</svg>
