<svg width="32" height="32" viewBox="0 0 32 32" fill="none" xmlns="http://www.w3.org/2000/svg">
<path fill-rule="evenodd" clip-rule="evenodd" d="M5.90977 2.50073C5.35749 2.50073 4.90977 2.94845 4.90977 3.50073V7.50043H1.00098C0.448692 7.50043 0.000976562 7.94815 0.000976562 8.50043V28.4993C0.000976562 29.0516 0.448692 29.4993 1.00098 29.4993H26.0904C26.6427 29.4993 27.0904 29.0516 27.0904 28.4993V24.4996H30.9992C31.5515 24.4996 31.9992 24.0519 31.9992 23.4996V3.50073C31.9992 2.94845 31.5515 2.50073 30.9992 2.50073H5.90977ZM27.0904 22.4996H29.9992V4.50073H6.90977V7.50043H26.0904C26.6427 7.50043 27.0904 7.94815 27.0904 8.50043V22.4996ZM2.00098 9.50043V13.5002H25.0904V9.50043H2.00098Z" fill="#111827"/>
</svg>
