<svg width="33" height="33" viewBox="0 0 33 33" fill="none" xmlns="http://www.w3.org/2000/svg">
<path fill-rule="evenodd" clip-rule="evenodd" d="M8.68408 14.3786C8.68408 13.7947 8.74644 13.2253 8.86485 12.6768C8.73874 12.6601 8.61374 12.6189 8.49672 12.5513L5.70947 10.9421C5.23118 10.6659 5.0673 10.0543 5.34345 9.57605C5.61959 9.09776 6.23118 8.93388 6.70947 9.21002L9.49672 10.8192L9.51044 10.8273C10.8208 8.17563 13.5528 6.35193 16.7108 6.35193C19.9694 6.35193 22.7745 8.29375 24.032 11.0834C24.092 11.0238 24.1606 10.9709 24.2373 10.9266L27.2105 9.21002C27.6888 8.93388 28.3004 9.09776 28.5766 9.57605C28.8527 10.0543 28.6888 10.6659 28.2105 10.9421L25.2373 12.6587C25.0299 12.7784 24.7975 12.8154 24.5782 12.7799C24.6826 13.2966 24.7374 13.8312 24.7374 14.3786V15.283L28.96 15.283C29.5122 15.283 29.96 15.7307 29.96 16.283C29.96 16.8352 29.5122 17.283 28.96 17.283L24.7373 17.283V15.283H17.96H15.96H8.68408V14.3786ZM8.68408 17.283H4.95996C4.40768 17.283 3.95996 16.8352 3.95996 16.283C3.95996 15.7307 4.40768 15.283 4.95996 15.283H8.68408V17.283ZM9.50892 21.7355C10.7137 24.1762 13.1227 25.9162 15.96 26.1793V17.283L8.68408 17.283V18.1873C8.68408 18.7813 8.74859 19.3602 8.87099 19.9173C8.72262 19.927 8.57413 19.97 8.43665 20.0494L5.70947 21.6239C5.23118 21.9001 5.0673 22.5116 5.34345 22.9899C5.61959 23.4682 6.23118 23.6321 6.70947 23.356L9.43665 21.7814C9.4616 21.767 9.4857 21.7517 9.50892 21.7355ZM17.96 17.283L24.7374 17.283V18.1873C24.7374 18.7347 24.6826 19.2694 24.5782 19.786C24.7975 19.7506 25.0299 19.7876 25.2373 19.9073L28.2105 21.6239C28.6888 21.9 28.8527 22.5116 28.5765 22.9899C28.3004 23.4682 27.6888 23.6321 27.2105 23.3559L24.2373 21.6393C24.1606 21.5951 24.092 21.5422 24.032 21.4826C22.9384 23.9084 20.6746 25.6932 17.96 26.1174V17.283ZM15.305 12.5589C15.305 13.2445 14.7492 13.8003 14.0636 13.8003C13.378 13.8003 12.8223 13.2445 12.8223 12.5589C12.8223 11.8733 13.378 11.3175 14.0636 11.3175C14.7492 11.3175 15.305 11.8733 15.305 12.5589ZM21.098 12.5589C21.098 13.2445 20.5422 13.8003 19.8566 13.8003C19.171 13.8003 18.6152 13.2445 18.6152 12.5589C18.6152 11.8733 19.171 11.3175 19.8566 11.3175C20.5422 11.3175 21.098 11.8733 21.098 12.5589Z" fill="#1C1B1F"/>
</svg>
