<svg width="32" height="32" viewBox="0 0 32 32" fill="none" xmlns="http://www.w3.org/2000/svg">
<path fill-rule="evenodd" clip-rule="evenodd" d="M5.65514 13.6314C5.65514 12.8141 5.75286 12.0197 5.93725 11.2591C5.80343 11.2445 5.67038 11.2025 5.54631 11.1308L2.06247 9.11943C1.58417 8.84329 1.4203 8.2317 1.69644 7.75341C1.97258 7.27512 2.58417 7.11124 3.06247 7.38738L6.54631 9.39878C6.55761 9.40531 6.56873 9.41202 6.57968 9.41891C8.17171 5.98236 11.6514 3.59863 15.6879 3.59863C19.8581 3.59863 23.434 6.14296 24.9481 9.76395C25.0223 9.67363 25.1137 9.59489 25.2209 9.53299L28.9372 7.38738C29.4155 7.11124 30.0271 7.27512 30.3032 7.75341C30.5794 8.2317 30.4155 8.84329 29.9372 9.11943L26.2209 11.265C25.9823 11.4028 25.7104 11.4311 25.4637 11.3654C25.6318 12.0936 25.7206 12.8521 25.7206 13.6314V15.0116L16.9994 15.0116H14.9994H5.65514V13.6314ZM6.57667 22.598C8.0762 25.8409 11.2561 28.1478 14.9994 28.4015V17.0116H5.65536L5.65536 15.0116L5.65514 15.0116H1.00049C0.448204 15.0116 0.00048846 15.4593 0.000488281 16.0116C0.000488043 16.5639 0.448203 17.0116 1.00049 17.0116H5.65514V18.392C5.65514 19.2228 5.75613 20.03 5.9465 20.8021C5.78461 20.8059 5.62135 20.8493 5.47123 20.9359L2.06247 22.904C1.58417 23.1801 1.4203 23.7917 1.69644 24.27C1.97258 24.7483 2.58417 24.9122 3.06247 24.636L6.47123 22.668C6.50829 22.6466 6.54345 22.6232 6.57667 22.598ZM16.9994 17.0116L25.7206 17.0116V18.392C25.7206 19.1713 25.6318 19.9298 25.4637 20.6579C25.7104 20.5923 25.9823 20.6205 26.2209 20.7583L29.9372 22.9039C30.4155 23.18 30.5793 23.7916 30.3032 24.2699C30.0271 24.7482 29.4155 24.9121 28.9372 24.6359L25.2209 22.4903C25.1137 22.4284 25.0223 22.3497 24.9481 22.2594C23.5955 25.4944 20.597 27.8701 16.9994 28.3398V17.0116ZM13.9304 11.3569C13.9304 12.2138 13.2357 12.9085 12.3788 12.9085C11.5219 12.9085 10.8272 12.2138 10.8272 11.3569C10.8272 10.4999 11.5219 9.80524 12.3788 9.80524C13.2357 9.80524 13.9304 10.4999 13.9304 11.3569ZM21.1714 11.3569C21.1714 12.2138 20.4767 12.9085 19.6198 12.9085C18.7629 12.9085 18.0682 12.2138 18.0682 11.3569C18.0682 10.4999 18.7629 9.80524 19.6198 9.80524C20.4767 9.80524 21.1714 10.4999 21.1714 11.3569ZM25.7209 15.0116L30.9989 15.0116C31.5512 15.0116 31.9989 15.4593 31.9989 16.0116C31.9989 16.5639 31.5512 17.0116 30.9989 17.0116L25.7209 17.0116V15.0116Z" fill="#111827"/>
</svg>
