<svg width="32" height="33" viewBox="0 0 32 33" fill="none" xmlns="http://www.w3.org/2000/svg">
<path fill-rule="evenodd" clip-rule="evenodd" d="M5.65514 14.1314C5.65514 13.3141 5.75286 12.5197 5.93725 11.7591C5.80343 11.7445 5.67038 11.7025 5.54631 11.6308L2.06247 9.61943C1.58417 9.34329 1.4203 8.7317 1.69644 8.25341C1.97258 7.77512 2.58417 7.61124 3.06247 7.88738L6.54631 9.89878C6.55761 9.90531 6.56873 9.91202 6.57968 9.91891C8.17171 6.48236 11.6514 4.09863 15.6879 4.09863C19.8581 4.09863 23.434 6.64296 24.9481 10.2639C25.0223 10.1736 25.1137 10.0949 25.2209 10.033L28.9372 7.88738C29.4155 7.61124 30.0271 7.77512 30.3032 8.25341C30.5794 8.7317 30.4155 9.34329 29.9372 9.61943L26.2209 11.765C25.9823 11.9028 25.7104 11.9311 25.4637 11.8654C25.6318 12.5936 25.7206 13.3521 25.7206 14.1314V15.5116L16.9994 15.5116H14.9994H5.65514V14.1314ZM6.57667 23.098C8.0762 26.3409 11.2561 28.6478 14.9994 28.9015V17.5116H5.65536L5.65536 15.5116L5.65514 15.5116H1.00049C0.448204 15.5116 0.00048846 15.9593 0.000488281 16.5116C0.000488043 17.0639 0.448203 17.5116 1.00049 17.5116H5.65514V18.892C5.65514 19.7228 5.75613 20.53 5.9465 21.3021C5.78461 21.3059 5.62135 21.3493 5.47123 21.4359L2.06247 23.404C1.58417 23.6801 1.4203 24.2917 1.69644 24.77C1.97258 25.2483 2.58417 25.4122 3.06247 25.136L6.47123 23.168C6.50829 23.1466 6.54345 23.1232 6.57667 23.098ZM16.9994 17.5116L25.7206 17.5116V18.892C25.7206 19.6713 25.6318 20.4298 25.4637 21.1579C25.7104 21.0923 25.9823 21.1205 26.2209 21.2583L29.9372 23.4039C30.4155 23.68 30.5793 24.2916 30.3032 24.7699C30.0271 25.2482 29.4155 25.4121 28.9372 25.1359L25.2209 22.9903C25.1137 22.9284 25.0223 22.8497 24.9481 22.7594C23.5955 25.9944 20.597 28.3701 16.9994 28.8398V17.5116ZM13.9304 11.8569C13.9304 12.7138 13.2357 13.4085 12.3788 13.4085C11.5219 13.4085 10.8272 12.7138 10.8272 11.8569C10.8272 10.9999 11.5219 10.3052 12.3788 10.3052C13.2357 10.3052 13.9304 10.9999 13.9304 11.8569ZM21.1714 11.8569C21.1714 12.7138 20.4767 13.4085 19.6198 13.4085C18.7629 13.4085 18.0682 12.7138 18.0682 11.8569C18.0682 10.9999 18.7629 10.3052 19.6198 10.3052C20.4767 10.3052 21.1714 10.9999 21.1714 11.8569ZM25.7209 15.5116L30.9989 15.5116C31.5512 15.5116 31.9989 15.9593 31.9989 16.5116C31.9989 17.0639 31.5512 17.5116 30.9989 17.5116L25.7209 17.5116V15.5116Z" fill="#111827"/>
</svg>
