<svg width="32" height="32" viewBox="0 0 32 32" fill="none" xmlns="http://www.w3.org/2000/svg">
<path fill-rule="evenodd" clip-rule="evenodd" d="M6.46486 2.0645C6.07433 1.67398 5.44117 1.67398 5.05064 2.0645C4.66012 2.45502 4.66012 3.08819 5.05064 3.47871L9.14101 7.56908C7.64944 8.91484 6.55567 10.6931 6.05736 12.7062L6.06992 12.6056H1.32964C0.639333 12.6056 0.0797278 13.1652 0.0797278 13.8556C0.0797278 14.5459 0.639333 15.1055 1.32964 15.1055H5.75787L5.75799 15.1045C5.75783 15.1281 5.75775 15.1517 5.75775 15.1754V17.8553H1.00049C0.448204 17.8553 0.000488281 18.3031 0.000488281 18.8553C0.000488281 19.4076 0.448204 19.8553 1.00049 19.8553H5.75775V20.0351C5.75775 21.0131 5.89484 21.9591 6.15084 22.8549H1.00049C0.448204 22.8549 0.000488281 23.3026 0.000488281 23.8549C0.000488281 24.4072 0.448204 24.8549 1.00049 24.8549H6.96048C8.53594 27.8033 11.5118 29.8906 14.9996 30.2285V18.8551C14.9996 18.3029 15.4473 17.8551 15.9996 17.8551C16.5519 17.8551 16.9996 18.3029 16.9996 18.8551V30.2285C20.4872 29.8904 23.4629 27.8031 25.0382 24.8549H30.9985C31.5508 24.8549 31.9985 24.4072 31.9985 23.8549C31.9985 23.3026 31.5508 22.8549 30.9985 22.8549H25.8479C26.1039 21.9591 26.241 21.0131 26.241 20.0351V19.8553H30.9988C31.5511 19.8553 31.9988 19.4076 31.9988 18.8553C31.9988 18.3031 31.5511 17.8553 30.9988 17.8553H26.241V15.1753C26.241 15.1504 26.2409 15.1255 26.2407 15.1006L26.2413 15.1055H30.6692C31.3595 15.1055 31.9191 14.5459 31.9191 13.8556C31.9191 13.1652 31.3595 12.6056 30.6692 12.6056H25.9319L25.9473 12.7304C25.4545 10.7185 24.3673 8.93987 22.8824 7.59138L26.995 3.47871C27.3856 3.08819 27.3856 2.45502 26.995 2.0645C26.6045 1.67398 25.9713 1.67398 25.5808 2.0645L21.2594 6.3859C19.722 5.46384 17.9226 4.93373 15.9994 4.93373C14.0884 4.93373 12.2997 5.45711 10.7687 6.36834L6.46486 2.0645ZM25.9628 12.8555H25.9235L6.07455 12.8555H6.03873L5.78907 14.8555H6.07454L25.9235 14.8555H26.2104L25.9628 12.8555Z" fill="#111827"/>
</svg>
