<svg width="32" height="33" viewBox="0 0 32 33" fill="none" xmlns="http://www.w3.org/2000/svg">
<path fill-rule="evenodd" clip-rule="evenodd" d="M6.46486 2.56438C6.07433 2.17385 5.44117 2.17385 5.05064 2.56438C4.66012 2.9549 4.66012 3.58807 5.05064 3.97859L9.14101 8.06896C7.64944 9.41472 6.55567 11.193 6.05736 13.2061L6.06992 13.1055H1.32964C0.639333 13.1055 0.0797278 13.6651 0.0797278 14.3554C0.0797278 15.0457 0.639333 15.6053 1.32964 15.6053H5.75787L5.75799 15.6043C5.75783 15.628 5.75775 15.6516 5.75775 15.6752V18.3552H1.00049C0.448204 18.3552 0.000488281 18.8029 0.000488281 19.3552C0.000488281 19.9075 0.448204 20.3552 1.00049 20.3552H5.75775V20.535C5.75775 21.513 5.89484 22.459 6.15084 23.3548H1.00049C0.448204 23.3548 0.000488281 23.8025 0.000488281 24.3548C0.000488281 24.9071 0.448204 25.3548 1.00049 25.3548H6.96048C8.53594 28.3032 11.5118 30.3905 14.9996 30.7284V19.355C14.9996 18.8027 15.4473 18.355 15.9996 18.355C16.5519 18.355 16.9996 18.8027 16.9996 19.355V30.7284C20.4872 30.3903 23.4629 28.303 25.0382 25.3548H30.9985C31.5508 25.3548 31.9985 24.9071 31.9985 24.3548C31.9985 23.8025 31.5508 23.3548 30.9985 23.3548H25.8479C26.1039 22.459 26.241 21.513 26.241 20.535V20.3552H30.9988C31.5511 20.3552 31.9988 19.9075 31.9988 19.3552C31.9988 18.8029 31.5511 18.3552 30.9988 18.3552H26.241V15.6752C26.241 15.6503 26.2409 15.6254 26.2407 15.6005L26.2413 15.6053H30.6692C31.3595 15.6053 31.9191 15.0457 31.9191 14.3554C31.9191 13.6651 31.3595 13.1055 30.6692 13.1055H25.9319L25.9473 13.2303C25.4545 11.2184 24.3673 9.43974 22.8824 8.09126L26.995 3.97859C27.3856 3.58807 27.3856 2.9549 26.995 2.56438C26.6045 2.17385 25.9713 2.17385 25.5808 2.56438L21.2594 6.88578C19.722 5.96371 17.9226 5.43361 15.9994 5.43361C14.0884 5.43361 12.2997 5.95699 10.7687 6.86822L6.46486 2.56438ZM25.9628 13.3553H25.9235L6.07455 13.3553H6.03873L5.78907 15.3553H6.07454L25.9235 15.3553H26.2104L25.9628 13.3553Z" fill="#111827"/>
</svg>
