<svg width="32" height="32" viewBox="0 0 32 32" fill="none" xmlns="http://www.w3.org/2000/svg">
<path fill-rule="evenodd" clip-rule="evenodd" d="M28.2882 4.3338C28.7218 3.9917 28.7959 3.36289 28.4538 2.92932C28.1117 2.49575 27.4829 2.42159 27.0493 2.76369L21.8128 6.8955C20.1817 5.70675 18.1728 5.00534 16.0001 5.00534C13.8684 5.00534 11.8943 5.68053 10.2802 6.82872L5.12805 2.76368C4.69447 2.42159 4.06566 2.49575 3.72357 2.92933C3.38147 3.36291 3.45564 3.99172 3.88922 4.33381L8.75256 8.17099C7.11938 9.93326 6.12103 12.2922 6.12103 14.8844V16.2282H25.8784H25.8792V14.8844C25.8792 12.3319 24.9111 10.0054 23.3221 8.2522L28.2882 4.3338ZM25.8792 18.2283H30.7694C31.3217 18.2283 31.7694 17.7805 31.7694 17.2283C31.7694 16.676 31.3217 16.2283 30.7694 16.2283H25.879V18.2282H25.8784H6.12103V16.2283H1.23096C0.678672 16.2283 0.230957 16.676 0.230957 17.2283C0.230957 17.7805 0.678672 18.2283 1.23096 18.2283H6.12103V19.5721C6.12103 25.0282 10.544 29.4512 16.0001 29.4512C21.4562 29.4512 25.8792 25.0282 25.8792 19.5721V18.2283ZM20.3077 13.5359C21.3274 13.5359 22.1539 12.7093 22.1539 11.6897C22.1539 10.6701 21.3274 9.84355 20.3077 9.84355C19.2881 9.84355 18.4616 10.6701 18.4616 11.6897C18.4616 12.7093 19.2881 13.5359 20.3077 13.5359ZM13.5385 11.6897C13.5385 12.7093 12.7119 13.5359 11.6923 13.5359C10.6727 13.5359 9.84611 12.7093 9.84611 11.6897C9.84611 10.6701 10.6727 9.84355 11.6923 9.84355C12.7119 9.84355 13.5385 10.6701 13.5385 11.6897Z" fill="#111827"/>
</svg>
