<svg width="32" height="33" viewBox="0 0 32 33" fill="none" xmlns="http://www.w3.org/2000/svg">
<path fill-rule="evenodd" clip-rule="evenodd" d="M28.2882 4.83392C28.7218 4.49182 28.7959 3.86301 28.4538 3.42944C28.1117 2.99587 27.4829 2.92172 27.0493 3.26382L21.8128 7.39562C20.1817 6.20687 18.1728 5.50546 16.0001 5.50546C13.8684 5.50546 11.8943 6.18065 10.2802 7.32884L5.12805 3.26381C4.69447 2.92171 4.06566 2.99588 3.72357 3.42945C3.38147 3.86303 3.45564 4.49184 3.88922 4.83393L8.75256 8.67111C7.11938 10.4334 6.12103 12.7924 6.12103 15.3845V16.7284H25.8784H25.8792V15.3845C25.8792 12.832 24.9111 10.5055 23.3221 8.75232L28.2882 4.83392ZM25.8792 18.7284H30.7694C31.3217 18.7284 31.7694 18.2807 31.7694 17.7284C31.7694 17.1761 31.3217 16.7284 30.7694 16.7284H25.879V18.7284H25.8784H6.12103V16.7284H1.23096C0.678672 16.7284 0.230957 17.1761 0.230957 17.7284C0.230957 18.2807 0.678672 18.7284 1.23096 18.7284H6.12103V20.0722C6.12103 25.5283 10.544 29.9513 16.0001 29.9513C21.4562 29.9513 25.8792 25.5283 25.8792 20.0722V18.7284ZM20.3077 14.036C21.3274 14.036 22.1539 13.2095 22.1539 12.1898C22.1539 11.1702 21.3274 10.3437 20.3077 10.3437C19.2881 10.3437 18.4616 11.1702 18.4616 12.1898C18.4616 13.2095 19.2881 14.036 20.3077 14.036ZM13.5385 12.1898C13.5385 13.2095 12.7119 14.036 11.6923 14.036C10.6727 14.036 9.84611 13.2095 9.84611 12.1898C9.84611 11.1702 10.6727 10.3437 11.6923 10.3437C12.7119 10.3437 13.5385 11.1702 13.5385 12.1898Z" fill="#111827"/>
</svg>
