<svg width="33" height="33" viewBox="0 0 33 33" fill="none" xmlns="http://www.w3.org/2000/svg">
<path fill-rule="evenodd" clip-rule="evenodd" d="M27.0599 6.54523C27.4935 6.20313 27.5676 5.57432 27.2255 5.14075C26.8834 4.70717 26.2546 4.63302 25.8211 4.97512L21.5232 8.36622C20.2275 7.46918 18.655 6.94364 16.9598 6.94364C15.2981 6.94364 13.7543 7.4486 12.4735 8.31343L8.24246 4.97511C7.80888 4.63302 7.18008 4.70718 6.83798 5.14076C6.49589 5.57434 6.57005 6.20314 7.00363 6.54524L10.9451 9.65503C9.69304 11.0707 8.93311 12.9318 8.93311 14.9703V15.8747H4.95996C4.40768 15.8747 3.95996 16.3224 3.95996 16.8747C3.95996 17.427 4.40768 17.8747 4.95996 17.8747H8.93311V18.779C8.93311 23.212 12.5268 26.8057 16.9598 26.8057C21.3928 26.8057 24.9865 23.212 24.9865 18.779V17.8747H28.9597C29.512 17.8747 29.9597 17.427 29.9597 16.8747C29.9597 16.3224 29.512 15.8747 28.9597 15.8747H24.9865V14.9703C24.9865 12.9639 24.2503 11.1295 23.0333 9.72231L27.0599 6.54523ZM8.93311 17.8747H24.9861H24.9863V15.8747H24.9861H8.93311V17.8747ZM20.46 13.8747C21.2884 13.8747 21.96 13.2031 21.96 12.3747C21.96 11.5462 21.2884 10.8747 20.46 10.8747C19.6315 10.8747 18.96 11.5462 18.96 12.3747C18.96 13.2031 19.6315 13.8747 20.46 13.8747ZM14.96 12.3747C14.96 13.2031 14.2884 13.8747 13.46 13.8747C12.6315 13.8747 11.96 13.2031 11.96 12.3747C11.96 11.5462 12.6315 10.8747 13.46 10.8747C14.2884 10.8747 14.96 11.5462 14.96 12.3747Z" fill="#1C1B1F"/>
</svg>
