<svg width="32" height="32" viewBox="0 0 32 32" fill="none" xmlns="http://www.w3.org/2000/svg">
<path fill-rule="evenodd" clip-rule="evenodd" d="M4.14184 3.20166C3.58956 3.20166 3.14184 3.64938 3.14184 4.20166V26.7983V26.7986H0.999756C0.447471 26.7986 -0.000244141 27.2463 -0.000244141 27.7986C-0.000244141 28.3509 0.447471 28.7986 0.999756 28.7986H31.0002C31.5525 28.7986 32.0002 28.3509 32.0002 27.7986C32.0002 27.2463 31.5525 26.7986 31.0002 26.7986H29.8569V11.7268C29.8569 11.1745 29.4092 10.7268 28.8569 10.7268H18.1423C18.1422 10.7268 18.1422 10.7268 18.1421 10.7268V4.20166C18.1421 3.64938 17.6944 3.20166 17.1421 3.20166H4.14184ZM8.49927 7.51246C7.94699 7.51246 7.49927 7.96017 7.49927 8.51246C7.49927 9.06474 7.94699 9.51246 8.49927 9.51246H12.786C13.3383 9.51246 13.786 9.06474 13.786 8.51246C13.786 7.96017 13.3383 7.51246 12.786 7.51246H8.49927ZM7.49927 14.9409C7.49927 14.3886 7.94699 13.9409 8.49927 13.9409H12.786C13.3383 13.9409 13.786 14.3886 13.786 14.9409C13.786 15.4932 13.3383 15.9409 12.786 15.9409H8.49927C7.94699 15.9409 7.49927 15.4932 7.49927 14.9409ZM8.49927 20.3696C7.94699 20.3696 7.49927 20.8173 7.49927 21.3696C7.49927 21.9219 7.94699 22.3696 8.49927 22.3696H12.786C13.3383 22.3696 13.786 21.9219 13.786 21.3696C13.786 20.8173 13.3383 20.3696 12.786 20.3696H8.49927ZM22.4275 16.084C21.8752 16.084 21.4275 16.5317 21.4275 17.084C21.4275 17.6363 21.8752 18.084 22.4275 18.084H24.5709C25.1231 18.084 25.5709 17.6363 25.5709 17.084C25.5709 16.5317 25.1231 16.084 24.5709 16.084H22.4275ZM21.4275 22.4412C21.4275 21.8889 21.8752 21.4412 22.4275 21.4412H24.5709C25.1231 21.4412 25.5709 21.8889 25.5709 22.4412C25.5709 22.9934 25.1231 23.4412 24.5709 23.4412H22.4275C21.8752 23.4412 21.4275 22.9934 21.4275 22.4412ZM19.1423 26.7984V12.7268H27.8569V26.7984H19.1423Z" fill="#111827"/>
</svg>
