<svg width="33" height="33" viewBox="0 0 33 33" fill="none" xmlns="http://www.w3.org/2000/svg">
<path d="M4.96021 26.1401H28.9602" stroke="#1C1B1F" stroke-width="2" stroke-linecap="round" stroke-linejoin="round"/>
<path d="M22.1025 21.8545H23.8168" stroke="#1C1B1F" stroke-width="2" stroke-linecap="round" stroke-linejoin="round"/>
<path d="M22.1025 17.5688H23.8168" stroke="#1C1B1F" stroke-width="2" stroke-linecap="round" stroke-linejoin="round"/>
<path fill-rule="evenodd" clip-rule="evenodd" d="M7.67383 6.46313C7.12154 6.46313 6.67383 6.91085 6.67383 7.46314V25.1401C6.67383 25.6924 7.12154 26.1401 7.67383 26.1401H17.6738C18.2261 26.1401 18.6738 25.6924 18.6738 25.1401V7.46313C18.6738 6.91085 18.2261 6.46313 17.6738 6.46313H7.67383ZM10.9595 9.71167C10.4072 9.71167 9.95947 10.1594 9.95947 10.7117C9.95947 11.264 10.4072 11.7117 10.9595 11.7117H14.388C14.9403 11.7117 15.388 11.264 15.388 10.7117C15.388 10.1594 14.9403 9.71167 14.388 9.71167H10.9595ZM9.95947 15.8545C9.95947 15.3022 10.4072 14.8545 10.9595 14.8545H14.388C14.9403 14.8545 15.388 15.3022 15.388 15.8545C15.388 16.4068 14.9403 16.8545 14.388 16.8545H10.9595C10.4072 16.8545 9.95947 16.4068 9.95947 15.8545ZM10.9595 19.9973C10.4072 19.9973 9.95947 20.445 9.95947 20.9973C9.95947 21.5496 10.4072 21.9973 10.9595 21.9973H14.388C14.9403 21.9973 15.388 21.5496 15.388 20.9973C15.388 20.445 14.9403 19.9973 14.388 19.9973H10.9595Z" fill="#1C1B1F"/>
<rect x="18.6738" y="13.2832" width="8.57153" height="12.8571" stroke="#1C1B1F" stroke-width="2" stroke-linejoin="round"/>
</svg>
