<svg width="32" height="33" viewBox="0 0 32 33" fill="none" xmlns="http://www.w3.org/2000/svg">
<path fill-rule="evenodd" clip-rule="evenodd" d="M4.14184 3.70166C3.58956 3.70166 3.14184 4.14938 3.14184 4.70166V27.2983V27.2986H0.999756C0.447471 27.2986 -0.000244141 27.7463 -0.000244141 28.2986C-0.000244141 28.8509 0.447471 29.2986 0.999756 29.2986H31.0002C31.5525 29.2986 32.0002 28.8509 32.0002 28.2986C32.0002 27.7463 31.5525 27.2986 31.0002 27.2986H29.8569V12.2268C29.8569 11.6745 29.4092 11.2268 28.8569 11.2268H18.1423C18.1422 11.2268 18.1422 11.2268 18.1421 11.2268V4.70166C18.1421 4.14938 17.6944 3.70166 17.1421 3.70166H4.14184ZM8.49927 8.01246C7.94699 8.01246 7.49927 8.46017 7.49927 9.01246C7.49927 9.56474 7.94699 10.0125 8.49927 10.0125H12.786C13.3383 10.0125 13.786 9.56474 13.786 9.01246C13.786 8.46017 13.3383 8.01246 12.786 8.01246H8.49927ZM7.49927 15.4409C7.49927 14.8886 7.94699 14.4409 8.49927 14.4409H12.786C13.3383 14.4409 13.786 14.8886 13.786 15.4409C13.786 15.9932 13.3383 16.4409 12.786 16.4409H8.49927C7.94699 16.4409 7.49927 15.9932 7.49927 15.4409ZM8.49927 20.8696C7.94699 20.8696 7.49927 21.3173 7.49927 21.8696C7.49927 22.4219 7.94699 22.8696 8.49927 22.8696H12.786C13.3383 22.8696 13.786 22.4219 13.786 21.8696C13.786 21.3173 13.3383 20.8696 12.786 20.8696H8.49927ZM22.4275 16.584C21.8752 16.584 21.4275 17.0317 21.4275 17.584C21.4275 18.1363 21.8752 18.584 22.4275 18.584H24.5709C25.1231 18.584 25.5709 18.1363 25.5709 17.584C25.5709 17.0317 25.1231 16.584 24.5709 16.584H22.4275ZM21.4275 22.9412C21.4275 22.3889 21.8752 21.9412 22.4275 21.9412H24.5709C25.1231 21.9412 25.5709 22.3889 25.5709 22.9412C25.5709 23.4934 25.1231 23.9412 24.5709 23.9412H22.4275C21.8752 23.9412 21.4275 23.4934 21.4275 22.9412ZM19.1423 27.2984V13.2268H27.8569V27.2984H19.1423Z" fill="#111827"/>
</svg>
