<svg width="33" height="33" viewBox="0 0 33 33" fill="none" xmlns="http://www.w3.org/2000/svg">
<path fill-rule="evenodd" clip-rule="evenodd" d="M9.76172 4.2829C7.0003 4.2829 4.76172 6.52147 4.76172 9.28289V13.7177H29.1633V9.2829C29.1633 6.52147 26.9247 4.2829 24.1633 4.2829H9.76172ZM29.1633 15.7177H4.76172V23.2752C4.74923 23.3383 4.74268 23.4036 4.74268 23.4704V28.2829C4.74268 28.8352 5.19039 29.2829 5.74268 29.2829H10.9601C11.5124 29.2829 11.9601 28.8352 11.9601 28.2829V24.109H21.96V28.2829C21.96 28.8352 22.4077 29.2829 22.96 29.2829H28.1774C28.7296 29.2829 29.1774 28.8352 29.1774 28.2829V23.4704C29.1774 23.4131 29.1725 23.3569 29.1633 23.3023V15.7177ZM27.1774 24.109H23.96V27.2829H27.1774V24.109ZM6.74268 27.2829V24.109H9.96007V27.2829H6.74268ZM12.4225 19.4134C12.4225 20.2778 11.6603 20.9786 10.7201 20.9786C9.77983 20.9786 9.01763 20.2778 9.01763 19.4134C9.01763 18.5489 9.77983 17.8481 10.7201 17.8481C11.6603 17.8481 12.4225 18.5489 12.4225 19.4134ZM23.205 20.9786C24.1452 20.9786 24.9074 20.2778 24.9074 19.4134C24.9074 18.5489 24.1452 17.8481 23.205 17.8481C22.2648 17.8481 21.5026 18.5489 21.5026 19.4134C21.5026 20.2778 22.2648 20.9786 23.205 20.9786Z" fill="#1C1B1F"/>
</svg>
