<svg width="33" height="33" viewBox="0 0 33 33" fill="none" xmlns="http://www.w3.org/2000/svg">
<path fill-rule="evenodd" clip-rule="evenodd" d="M12.5534 3.98907C12.1149 3.65328 11.4872 3.73653 11.1514 4.17502C10.8156 4.6135 10.8989 5.24116 11.3374 5.57695L12.4319 6.41516C13.9237 7.55751 15.0016 9.12206 15.5496 10.8738C14.5393 9.74792 13.0729 9.03967 11.441 9.03967C8.39316 9.03967 5.92236 11.5105 5.92236 14.5584C5.92236 17.6062 8.39316 20.077 11.441 20.077H12.5769C10.1865 20.0931 8.25369 22.0358 8.25369 24.4299C8.25369 26.834 10.2026 28.783 12.6067 28.783C13.9558 28.783 15.1615 28.1693 15.96 27.2058L15.96 13.7434C15.96 13.7459 15.9601 13.7485 15.9602 13.751V11.9831C15.9608 11.958 15.9622 11.933 15.9646 11.9083H17.9553C17.9584 11.9403 17.96 11.9727 17.96 12.0055L17.96 27.2064C18.7584 28.1695 19.9639 28.783 21.3127 28.783C23.7168 28.783 25.6657 26.834 25.6657 24.4299C25.6657 22.0358 23.7329 20.0931 21.3426 20.077H22.4784C25.5263 20.077 27.9971 17.6062 27.9971 14.5584C27.9971 11.5105 25.5263 9.03967 22.4784 9.03967C20.8467 9.03967 19.3803 9.74786 18.37 10.8736C18.918 9.12196 19.9959 7.55748 21.4876 6.41516L22.5822 5.57695C23.0206 5.24116 23.1039 4.6135 22.7681 4.17502C22.4323 3.73653 21.8047 3.65328 21.3662 3.98907L20.2716 4.82728C18.8263 5.93412 17.6988 7.36526 16.9598 8.97759C16.2208 7.36526 15.0933 5.93412 13.6479 4.82728L12.5534 3.98907Z" fill="#1C1B1F"/>
</svg>
