<svg width="32" height="33" viewBox="0 0 32 33" fill="none" xmlns="http://www.w3.org/2000/svg">
<path fill-rule="evenodd" clip-rule="evenodd" d="M10.1309 0.706111C9.69243 0.370324 9.06476 0.453575 8.72897 0.892056C8.39319 1.33054 8.47644 1.95821 8.91492 2.29399L11.472 4.2522C13.4271 5.74939 14.6714 7.97181 14.9436 10.3904C13.6885 8.35509 11.4386 6.99849 8.87188 6.99849C4.93507 6.99849 1.74365 10.1899 1.74365 14.1267C1.74365 18.0635 4.93507 21.2549 8.87187 21.2549H10.3434C7.25385 21.2733 4.75492 23.7835 4.75492 26.8774C4.75492 29.9827 7.27224 32.5 10.3775 32.5C12.293 32.5 13.9848 31.5421 15 30.0792L15 13.0638C15.0001 13.0679 15.0003 13.0721 15.0004 13.0762V10.8006C15.0013 10.7679 15.0038 10.7356 15.0078 10.7038H16.9922C16.9974 10.7449 17 10.7868 17 10.8293L17 30.079C18.0152 31.542 19.7071 32.5 21.6227 32.5C24.728 32.5 27.2453 29.9827 27.2453 26.8774C27.2453 23.7835 24.7464 21.2733 21.6568 21.2549H23.1283C27.0651 21.2549 30.2566 18.0635 30.2566 14.1267C30.2566 10.1899 27.0651 6.99849 23.1283 6.99849C20.5612 6.99849 18.3111 8.35548 17.0561 10.3913C17.3281 7.97244 18.5725 5.74976 20.5277 4.25243L23.0848 2.29422C23.5233 1.95843 23.6065 1.33076 23.2708 0.89228C22.935 0.453799 22.3073 0.370548 21.8688 0.706335L19.3117 2.66454C17.8664 3.77137 16.7389 5.20248 15.9999 6.81478C15.2609 5.20239 14.1334 3.7712 12.688 2.66432L10.1309 0.706111Z" fill="#111827"/>
</svg>
