<svg width="32" height="33" viewBox="0 0 32 33" fill="none" xmlns="http://www.w3.org/2000/svg">
<path fill-rule="evenodd" clip-rule="evenodd" d="M20.9231 29.7691H29.5385C30.0908 29.7691 30.5385 30.2168 30.5385 30.7691C30.5385 31.3214 30.0908 31.7691 29.5385 31.7691H2.46159C1.9093 31.7691 1.46159 31.3214 1.46159 30.7691C1.46159 30.2168 1.9093 29.7691 2.46159 29.7691H11.0769V17.8461H9.23077C6.78262 17.8461 4.43473 16.8736 2.70363 15.1425C0.972525 13.4114 0 11.0635 0 8.61533C0.00404377 7.80052 0.329517 7.02024 0.905678 6.44408C1.48184 5.86792 2.26212 5.54245 3.07692 5.53841C3.89173 5.54245 4.67201 5.86792 5.24817 6.44408C5.82433 7.02024 6.1498 7.80052 6.15385 8.61533C6.15789 9.43013 6.48336 10.2104 7.05953 10.7866C7.63569 11.3627 8.41597 11.6882 9.23077 11.6923H11.0769V6.15379C11.0769 4.84811 11.5956 3.5959 12.5189 2.67265C13.4421 1.74939 14.6943 1.23071 16 1.23071C17.3057 1.23071 18.5579 1.74939 19.4811 2.67265C20.4044 3.5959 20.9231 4.84811 20.9231 6.15379V17.8461H22.7692C23.584 17.8421 24.3643 17.5166 24.9405 16.9404C25.5166 16.3643 25.8421 15.584 25.8462 14.7692C25.8502 13.9544 26.1757 13.1741 26.7518 12.5979C27.328 12.0218 28.1083 11.6963 28.9231 11.6923C29.7379 11.6963 30.5182 12.0218 31.0943 12.5979C31.6705 13.1741 31.996 13.9544 32 14.7692C32 17.2173 31.0275 19.5652 29.2964 21.2963C27.5653 23.0274 25.2174 23.9999 22.7692 23.9999H20.9231V29.7691Z" fill="#111827"/>
</svg>
