<svg width="33" height="33" viewBox="0 0 33 33" fill="none" xmlns="http://www.w3.org/2000/svg">
<path fill-rule="evenodd" clip-rule="evenodd" d="M20.6523 26.8599H27.1138C27.6661 26.8599 28.1138 27.3076 28.1138 27.8599C28.1138 28.4121 27.6661 28.8599 27.1138 28.8599H6.80615C6.25387 28.8599 5.80615 28.4121 5.80615 27.8599C5.80615 27.3076 6.25387 26.8599 6.80615 26.8599H13.2677V18.1676H11.883C10.0469 18.1676 8.28601 17.4382 6.98768 16.1399C5.68935 14.8415 4.95996 13.0806 4.95996 11.2445C4.96299 10.6334 5.2071 10.0482 5.63922 9.61608C6.07134 9.18396 6.65655 8.93986 7.26765 8.93682C7.87876 8.93986 8.46397 9.18396 8.89609 9.61608C9.32821 10.0482 9.57231 10.6334 9.57535 11.2445C9.57838 11.8556 9.82248 12.4408 10.2546 12.8729C10.6867 13.3051 11.2719 13.5492 11.883 13.5522H13.2677V9.39836C13.2677 8.4191 13.6567 7.47995 14.3491 6.78751C15.0415 6.09506 15.9807 5.70605 16.96 5.70605C17.9392 5.70605 18.8784 6.09506 19.5708 6.78751C20.2633 7.47995 20.6523 8.4191 20.6523 9.39836V18.1676H22.0369C22.648 18.1646 23.2332 17.9205 23.6653 17.4883C24.0974 17.0562 24.3415 16.471 24.3446 15.8599C24.3476 15.2488 24.5917 14.6636 25.0238 14.2315C25.456 13.7993 26.0412 13.5552 26.6523 13.5522C27.2634 13.5552 27.8486 13.7993 28.2807 14.2315C28.7128 14.6636 28.9569 15.2488 28.96 15.8599C28.96 17.696 28.2306 19.4569 26.9322 20.7553C25.6339 22.0536 23.873 22.783 22.0369 22.783H20.6523V26.8599Z" fill="#1C1B1F"/>
</svg>
