<svg width="32" height="33" viewBox="0 0 32 33" fill="none" xmlns="http://www.w3.org/2000/svg">
<path fill-rule="evenodd" clip-rule="evenodd" d="M16.9258 8.46621C22.224 5.88504 16.0007 0.499512 16.0007 0.499512C16.0007 0.499512 9.51525 5.90405 15.0693 8.47983C15.0247 8.59312 15.0002 8.71651 15.0002 8.84561V12.4226V12.4228H4.37437C3.42569 12.4228 2.51586 12.7997 1.84504 13.4705C1.17423 14.1413 0.797363 15.0511 0.797363 15.9998V17.9863C0.797363 19.1741 1.20373 20.2812 1.88425 21.1635V30.1806C1.88425 30.7649 2.09303 31.3432 2.49146 31.7842C2.89293 32.2286 3.4605 32.5004 4.07659 32.5004H27.9233C28.5394 32.5004 29.107 32.2286 29.5084 31.7842C29.9069 31.3432 30.1156 30.7649 30.1156 30.1806V21.1627C30.7958 20.2806 31.2019 19.1738 31.2019 17.9863V15.9998C31.2019 15.0511 30.8251 14.1413 30.1542 13.4705C29.4834 12.7997 28.5736 12.4228 27.6249 12.4228H17.0002V12.4226V8.84561C17.0002 8.71131 16.9738 8.5832 16.9258 8.46621ZM28.1156 22.7361C27.4784 23.0165 26.7745 23.167 26.0357 23.1529C24.7091 23.127 23.4456 22.5818 22.5165 21.6345C21.5875 20.6872 21.0671 19.4132 21.0671 18.0864C21.0671 19.4304 20.5332 20.7193 19.5829 21.6696C18.6325 22.6199 17.3436 23.1538 15.9996 23.1538C14.6557 23.1538 13.3668 22.6199 12.4164 21.6696C11.4661 20.7193 10.9322 19.4304 10.9322 18.0864C10.9322 19.4132 10.4118 20.6872 9.48277 21.6345C8.55374 22.5818 7.29021 23.127 5.9636 23.1529C5.22504 23.167 4.52133 23.0166 3.88425 22.7364V30.1806C3.88425 30.2963 3.92672 30.3894 3.9755 30.4434C4.02124 30.4941 4.06023 30.5004 4.07659 30.5004H27.9233C27.9397 30.5004 27.9787 30.4941 28.0244 30.4434C28.0732 30.3894 28.1156 30.2963 28.1156 30.1806V22.7361Z" fill="#111827"/>
</svg>
