<svg width="33" height="33" viewBox="0 0 33 33" fill="none" xmlns="http://www.w3.org/2000/svg">
<path d="M16.96 13.5136V10.7444" stroke="#1C1B1F" stroke-width="2" stroke-linecap="round" stroke-linejoin="round"/>
<path d="M16.9601 10.7445C22.2934 8.89834 16.9601 4.28296 16.9601 4.28296C16.9601 4.28296 11.4216 8.89834 16.9601 10.7445Z" fill="#1C1B1F" stroke="#1C1B1F" stroke-width="2" stroke-linecap="round" stroke-linejoin="round"/>
<path d="M20.8827 17.8983C20.8827 18.9388 20.4694 19.9366 19.7337 20.6723C18.998 21.408 18.0001 21.8214 16.9597 21.8214C15.9192 21.8214 14.9213 21.408 14.1856 20.6723C13.4499 19.9366 13.0366 18.9388 13.0366 17.8983" fill="#2B2962"/>
<path d="M13.0366 17.8983C13.0366 18.9255 12.6337 19.9117 11.9145 20.6451C11.1952 21.3785 10.217 21.8006 9.19001 21.8206C6.99065 21.8627 5.19043 20.0206 5.19043 17.8208V16.2829C5.19043 15.5485 5.48219 14.8441 6.00152 14.3248C6.52085 13.8054 7.22521 13.5137 7.95966 13.5137H25.9597C26.6941 13.5137 27.3985 13.8054 27.9178 14.3248C28.4371 14.8441 28.7289 15.5485 28.7289 16.2829V17.8208C28.7289 20.0206 26.9287 21.8627 24.7293 21.8206C23.7023 21.8006 22.7241 21.3785 22.0049 20.6451C21.2856 19.9117 20.8827 18.9255 20.8827 17.8983" fill="#2B2962"/>
<path d="M20.8827 17.8983C20.8827 18.9388 20.4694 19.9366 19.7337 20.6723C18.998 21.408 18.0001 21.8214 16.9597 21.8214C15.9192 21.8214 14.9213 21.408 14.1856 20.6723C13.4499 19.9366 13.0366 18.9388 13.0366 17.8983C13.0366 18.9255 12.6337 19.9117 11.9145 20.6451C11.1952 21.3785 10.217 21.8006 9.19001 21.8206C6.99065 21.8627 5.19043 20.0206 5.19043 17.8208V16.2829C5.19043 15.5485 5.48219 14.8441 6.00152 14.3248C6.52085 13.8054 7.22521 13.5137 7.95966 13.5137H25.9597C26.6941 13.5137 27.3985 13.8054 27.9178 14.3248C28.4371 14.8441 28.7289 15.5485 28.7289 16.2829V17.8208C28.7289 20.0206 26.9287 21.8627 24.7293 21.8206C23.7023 21.8006 22.7241 21.3785 22.0049 20.6451C21.2856 19.9117 20.8827 18.9255 20.8827 17.8983Z" stroke="#1C1B1F" stroke-width="2" stroke-linecap="round" stroke-linejoin="round"/>
<path d="M27.1138 21.0449V27.36C27.1138 27.6048 27.0166 27.8396 26.8435 28.0127C26.6704 28.1858 26.4356 28.2831 26.1908 28.2831H7.72923C7.48441 28.2831 7.24963 28.1858 7.07652 28.0127C6.9034 27.8396 6.80615 27.6048 6.80615 27.36V21.045" stroke="#1C1B1F" stroke-width="2" stroke-linecap="round" stroke-linejoin="round"/>
</svg>
