<svg width="32" height="32" viewBox="0 0 32 32" fill="none" xmlns="http://www.w3.org/2000/svg">
<path fill-rule="evenodd" clip-rule="evenodd" d="M16.9258 7.96621C22.224 5.38504 16.0007 -0.000488281 16.0007 -0.000488281C16.0007 -0.000488281 9.51525 5.40405 15.0693 7.97983C15.0247 8.09312 15.0002 8.21651 15.0002 8.34561V11.9226V11.9228H4.37437C3.42569 11.9228 2.51586 12.2997 1.84504 12.9705C1.17423 13.6413 0.797363 14.5511 0.797363 15.4998V17.4863C0.797363 18.6741 1.20373 19.7812 1.88425 20.6635V29.6806C1.88425 30.2649 2.09303 30.8432 2.49146 31.2842C2.89293 31.7286 3.4605 32.0004 4.07659 32.0004H27.9233C28.5394 32.0004 29.107 31.7286 29.5084 31.2842C29.9069 30.8432 30.1156 30.2649 30.1156 29.6806V20.6627C30.7958 19.7806 31.2019 18.6738 31.2019 17.4863V15.4998C31.2019 14.5511 30.8251 13.6413 30.1542 12.9705C29.4834 12.2997 28.5736 11.9228 27.6249 11.9228H17.0002V11.9226V8.34561C17.0002 8.21131 16.9738 8.0832 16.9258 7.96621ZM28.1156 22.2361C27.4784 22.5165 26.7745 22.667 26.0357 22.6529C24.7091 22.627 23.4456 22.0818 22.5165 21.1345C21.5875 20.1872 21.0671 18.9132 21.0671 17.5864C21.0671 18.9304 20.5332 20.2193 19.5829 21.1696C18.6325 22.1199 17.3436 22.6538 15.9996 22.6538C14.6557 22.6538 13.3668 22.1199 12.4164 21.1696C11.4661 20.2193 10.9322 18.9304 10.9322 17.5864C10.9322 18.9132 10.4118 20.1872 9.48277 21.1345C8.55374 22.0818 7.29021 22.627 5.9636 22.6529C5.22504 22.667 4.52133 22.5166 3.88425 22.2364V29.6806C3.88425 29.7963 3.92672 29.8894 3.9755 29.9434C4.02124 29.9941 4.06023 30.0004 4.07659 30.0004H27.9233C27.9397 30.0004 27.9787 29.9941 28.0244 29.9434C28.0732 29.8894 28.1156 29.7963 28.1156 29.6806V22.2361Z" fill="#111827"/>
</svg>
