<svg width="33" height="33" viewBox="0 0 33 33" fill="none" xmlns="http://www.w3.org/2000/svg">
<path fill-rule="evenodd" clip-rule="evenodd" d="M7.95996 4.28296C7.40768 4.28296 6.95996 4.73067 6.95996 5.28296V27.283C6.95996 27.8352 7.40768 28.283 7.95996 28.283H25.96C26.5122 28.283 26.96 27.8352 26.96 27.283V5.28296C26.96 4.73067 26.5122 4.28296 25.96 4.28296H7.95996ZM9.95996 8.28296C9.95996 7.73067 10.4077 7.28296 10.96 7.28296H22.96C23.5122 7.28296 23.96 7.73067 23.96 8.28296V14.283C23.96 14.8352 23.5122 15.283 22.96 15.283H10.96C10.4077 15.283 9.95996 14.8352 9.95996 14.283V8.28296ZM11.96 9.28296V13.283H21.96V9.28296H11.96ZM13.46 18.783C13.46 19.6114 12.7884 20.283 11.96 20.283C11.1315 20.283 10.46 19.6114 10.46 18.783C10.46 17.9545 11.1315 17.283 11.96 17.283C12.7884 17.283 13.46 17.9545 13.46 18.783ZM18.46 18.783C18.46 19.6114 17.7884 20.283 16.96 20.283C16.1315 20.283 15.46 19.6114 15.46 18.783C15.46 17.9545 16.1315 17.283 16.96 17.283C17.7884 17.283 18.46 17.9545 18.46 18.783ZM21.96 20.283C22.7884 20.283 23.46 19.6114 23.46 18.783C23.46 17.9545 22.7884 17.283 21.96 17.283C21.1315 17.283 20.46 17.9545 20.46 18.783C20.46 19.6114 21.1315 20.283 21.96 20.283ZM13.46 23.783C13.46 24.6114 12.7884 25.283 11.96 25.283C11.1315 25.283 10.46 24.6114 10.46 23.783C10.46 22.9545 11.1315 22.283 11.96 22.283C12.7884 22.283 13.46 22.9545 13.46 23.783ZM16.96 25.283C17.7884 25.283 18.46 24.6114 18.46 23.783C18.46 22.9545 17.7884 22.283 16.96 22.283C16.1315 22.283 15.46 22.9545 15.46 23.783C15.46 24.6114 16.1315 25.283 16.96 25.283ZM23.46 23.783C23.46 24.6114 22.7884 25.283 21.96 25.283C21.1315 25.283 20.46 24.6114 20.46 23.783C20.46 22.9545 21.1315 22.283 21.96 22.283C22.7884 22.283 23.46 22.9545 23.46 23.783Z" fill="#1C1B1F"/>
</svg>
