<svg width="32" height="32" viewBox="0 0 32 32" fill="none" xmlns="http://www.w3.org/2000/svg">
<path fill-rule="evenodd" clip-rule="evenodd" d="M3.66699 0C3.11471 0 2.66699 0.447715 2.66699 1V31C2.66699 31.5523 3.11471 32 3.66699 32H28.3337C28.8859 32 29.3337 31.5523 29.3337 31V1C29.3337 0.447715 28.8859 0 28.3337 0H3.66699ZM7.00033 5.33333C7.00033 4.78105 7.44804 4.33333 8.00033 4.33333H24.0003C24.5526 4.33333 25.0003 4.78105 25.0003 5.33333V13.3333C25.0003 13.8856 24.5526 14.3333 24.0003 14.3333H8.00033C7.44804 14.3333 7.00033 13.8856 7.00033 13.3333V5.33333ZM9.00033 6.33333V12.3333H23.0003V6.33333H9.00033ZM11.3337 19.3333C11.3337 20.4379 10.4382 21.3333 9.33366 21.3333C8.22909 21.3333 7.33366 20.4379 7.33366 19.3333C7.33366 18.2288 8.22909 17.3333 9.33366 17.3333C10.4382 17.3333 11.3337 18.2288 11.3337 19.3333ZM18.0003 19.3333C18.0003 20.4379 17.1049 21.3333 16.0003 21.3333C14.8958 21.3333 14.0003 20.4379 14.0003 19.3333C14.0003 18.2288 14.8958 17.3333 16.0003 17.3333C17.1049 17.3333 18.0003 18.2288 18.0003 19.3333ZM22.667 21.3333C23.7716 21.3333 24.667 20.4379 24.667 19.3333C24.667 18.2288 23.7716 17.3333 22.667 17.3333C21.5624 17.3333 20.667 18.2288 20.667 19.3333C20.667 20.4379 21.5624 21.3333 22.667 21.3333ZM11.3337 26C11.3337 27.1046 10.4382 28 9.33366 28C8.22909 28 7.33366 27.1046 7.33366 26C7.33366 24.8954 8.22909 24 9.33366 24C10.4382 24 11.3337 24.8954 11.3337 26ZM16.0003 28C17.1049 28 18.0003 27.1046 18.0003 26C18.0003 24.8954 17.1049 24 16.0003 24C14.8958 24 14.0003 24.8954 14.0003 26C14.0003 27.1046 14.8958 28 16.0003 28ZM24.667 26C24.667 27.1046 23.7716 28 22.667 28C21.5624 28 20.667 27.1046 20.667 26C20.667 24.8954 21.5624 24 22.667 24C23.7716 24 24.667 24.8954 24.667 26Z" fill="#111827"/>
</svg>
