<svg width="33" height="33" viewBox="0 0 33 33" fill="none" xmlns="http://www.w3.org/2000/svg">
<path fill-rule="evenodd" clip-rule="evenodd" d="M10.96 3.78296C11.5122 3.78296 11.96 4.23067 11.96 4.78296V6.78296H21.96V4.78296C21.96 4.23067 22.4077 3.78296 22.96 3.78296C23.5122 3.78296 23.96 4.23067 23.96 4.78296V6.78296H26.96C27.5122 6.78296 27.96 7.23067 27.96 7.78296V11.783H5.95996V7.78296C5.95996 7.23067 6.40768 6.78296 6.95996 6.78296H9.95996V4.78296C9.95996 4.23067 10.4077 3.78296 10.96 3.78296ZM5.95996 13.783H27.96V27.783C27.96 28.3352 27.5122 28.783 26.96 28.783H6.95996C6.40768 28.783 5.95996 28.3352 5.95996 27.783V13.783Z" fill="#1C1B1F"/>
</svg>
