<svg width="32" height="33" viewBox="0 0 32 33" fill="none" xmlns="http://www.w3.org/2000/svg">
<path fill-rule="evenodd" clip-rule="evenodd" d="M8.2503 0.500122C8.80259 0.500122 9.2503 0.947837 9.2503 1.50012V4.08347H22.7497V1.50012C22.7497 0.947837 23.1974 0.500122 23.7497 0.500122C24.302 0.500122 24.7497 0.947837 24.7497 1.50012V4.08347H29.2084C29.7606 4.08347 30.2084 4.53119 30.2084 5.08347V10.8335H1.79199V5.08347C1.79199 4.53119 2.23971 4.08347 2.79199 4.08347H7.2503V1.50012C7.2503 0.947837 7.69802 0.500122 8.2503 0.500122ZM1.79199 12.8335H30.2084V31.4998C30.2084 32.0521 29.7606 32.4998 29.2084 32.4998H2.79199C2.23971 32.4998 1.79199 32.0521 1.79199 31.4998V12.8335ZM10.4791 22.1667C10.4791 21.6144 10.9268 21.1667 11.4791 21.1667H14.9999V17.6461C14.9999 17.0938 15.4476 16.6461 15.9999 16.6461C16.5522 16.6461 16.9999 17.0938 16.9999 17.6461V21.1667H20.5207C21.073 21.1667 21.5207 21.6144 21.5207 22.1667C21.5207 22.719 21.073 23.1667 20.5207 23.1667H16.9999V26.6876C16.9999 27.2399 16.5522 27.6876 15.9999 27.6876C15.4476 27.6876 14.9999 27.2399 14.9999 26.6876V23.1667H11.4791C10.9268 23.1667 10.4791 22.719 10.4791 22.1667Z" fill="#111827"/>
</svg>
