<svg width="32" height="33" viewBox="0 0 32 33" fill="none" xmlns="http://www.w3.org/2000/svg">
<path fill-rule="evenodd" clip-rule="evenodd" d="M8.2503 0.500122C8.80259 0.500122 9.2503 0.947837 9.2503 1.50012V4.08347H22.7497V1.50012C22.7497 0.947837 23.1974 0.500122 23.7497 0.500122C24.302 0.500122 24.7497 0.947837 24.7497 1.50012V4.08347H29.2084C29.7606 4.08347 30.2084 4.53119 30.2084 5.08347V10.8335H1.79199V5.08347C1.79199 4.53119 2.23971 4.08347 2.79199 4.08347H7.2503V1.50012C7.2503 0.947837 7.69802 0.500122 8.2503 0.500122ZM30.2084 12.8335H1.79199V31.4998C1.79199 32.0521 2.23971 32.4998 2.79199 32.4998H29.2084C29.7606 32.4998 30.2084 32.0521 30.2084 31.4998V12.8335ZM22.5388 17.6058C22.9177 18.0077 22.8991 18.6406 22.4973 19.0194L14.9626 26.1235C14.5767 26.4874 13.9738 26.4866 13.5888 26.1219L9.49863 22.2469C9.0977 21.8671 9.0806 21.2341 9.46043 20.8332C9.84027 20.4323 10.4732 20.4152 10.8741 20.795L14.2782 24.02L21.1252 17.5642C21.5271 17.1854 22.16 17.204 22.5388 17.6058Z" fill="#111827"/>
</svg>
