<svg width="33" height="33" viewBox="0 0 33 33" fill="none" xmlns="http://www.w3.org/2000/svg">
<path fill-rule="evenodd" clip-rule="evenodd" d="M10.96 3.78296C11.5122 3.78296 11.96 4.23067 11.96 4.78296V6.78296H21.96V4.78296C21.96 4.23067 22.4077 3.78296 22.96 3.78296C23.5122 3.78296 23.96 4.23067 23.96 4.78296V6.78296H26.96C27.5122 6.78296 27.96 7.23067 27.96 7.78296V11.6046L5.95996 11.9687V7.78296C5.95996 7.23067 6.40768 6.78296 6.95996 6.78296H9.95996V4.78296C9.95996 4.23067 10.4077 3.78296 10.96 3.78296ZM5.95996 13.9689L27.96 13.6048V27.783C27.96 28.3352 27.5122 28.783 26.96 28.783H6.95996C6.40768 28.783 5.95996 28.3352 5.95996 27.783V13.9689ZM20.6671 17.0759C21.0576 17.4664 21.0576 18.0996 20.6671 18.4901L18.3742 20.783L20.6671 23.0759C21.0576 23.4664 21.0576 24.0996 20.6671 24.4901C20.2765 24.8806 19.6434 24.8806 19.2529 24.4901L16.96 22.1972L14.6671 24.4901C14.2765 24.8806 13.6434 24.8806 13.2529 24.4901C12.8623 24.0996 12.8623 23.4664 13.2529 23.0759L15.5458 20.783L13.2529 18.4901C12.8623 18.0996 12.8623 17.4664 13.2529 17.0759C13.6434 16.6853 14.2765 16.6853 14.6671 17.0759L16.96 19.3688L19.2529 17.0759C19.6434 16.6853 20.2765 16.6853 20.6671 17.0759Z" fill="#1C1B1F"/>
</svg>
