<svg width="32" height="33" viewBox="0 0 32 33" fill="none" xmlns="http://www.w3.org/2000/svg">
<path fill-rule="evenodd" clip-rule="evenodd" d="M8.2503 0.500122C8.80259 0.500122 9.2503 0.947837 9.2503 1.50012V4.08347H22.7497V1.50012C22.7497 0.947837 23.1974 0.500122 23.7497 0.500122C24.302 0.500122 24.7497 0.947837 24.7497 1.50012V4.08347H29.2084C29.7606 4.08347 30.2084 4.53119 30.2084 5.08347V10.603L1.79199 11.0733V5.08347C1.79199 4.53119 2.23971 4.08347 2.79199 4.08347H7.2503V1.50012C7.2503 0.947837 7.69802 0.500122 8.2503 0.500122ZM1.79199 13.0735L30.2084 12.6033V31.4998C30.2084 32.0521 29.7606 32.4998 29.2084 32.4998H2.79199C2.23971 32.4998 1.79199 32.0521 1.79199 31.4998V13.0735ZM20.5825 17.5846C20.973 17.9751 20.973 18.6082 20.5825 18.9988L17.4146 22.1666L20.5825 25.3345C20.973 25.725 20.973 26.3582 20.5825 26.7487C20.1919 27.1392 19.5588 27.1392 19.1682 26.7487L16.0004 23.5808L12.8325 26.7487C12.442 27.1392 11.8088 27.1392 11.4183 26.7487C11.0278 26.3582 11.0278 25.725 11.4183 25.3345L14.5862 22.1666L11.4183 18.9988C11.0278 18.6082 11.0278 17.9751 11.4183 17.5846C11.8088 17.194 12.442 17.194 12.8325 17.5846L16.0004 20.7524L19.1682 17.5846C19.5588 17.194 20.1919 17.194 20.5825 17.5846Z" fill="#111827"/>
</svg>
