<svg width="33" height="33" viewBox="0 0 33 33" fill="none" xmlns="http://www.w3.org/2000/svg">
<path fill-rule="evenodd" clip-rule="evenodd" d="M10.96 3.78235C11.5122 3.78235 11.96 4.23006 11.96 4.78235V6.78235H21.96V4.78235C21.96 4.23006 22.4077 3.78235 22.96 3.78235C23.5122 3.78235 23.96 4.23006 23.96 4.78235V6.78235H26.96C27.5122 6.78235 27.96 7.23006 27.96 7.78235V11.7823H5.95996V7.78235C5.95996 7.23006 6.40768 6.78235 6.95996 6.78235H9.95996V4.78235C9.95996 4.23006 10.4077 3.78235 10.96 3.78235ZM27.96 13.7823H5.95996V27.7823C5.95996 28.3346 6.40768 28.7823 6.95996 28.7823H26.96C27.5122 28.7823 27.96 28.3346 27.96 27.7823V13.7823ZM22.1866 17.0963C22.5654 17.4982 22.5468 18.1311 22.145 18.5099L16.3116 24.0099C15.9257 24.3738 15.3229 24.3731 14.9379 24.0083L11.7712 21.0083C11.3703 20.6285 11.3532 19.9955 11.733 19.5946C12.1129 19.1937 12.7458 19.1766 13.1467 19.5564L15.6273 21.9064L20.773 17.0548C21.1748 16.6759 21.8077 16.6945 22.1866 17.0963Z" fill="#1C1B1F"/>
</svg>
