<svg width="33" height="33" viewBox="0 0 33 33" fill="none" xmlns="http://www.w3.org/2000/svg">
<path fill-rule="evenodd" clip-rule="evenodd" d="M10.96 3.78296C11.5122 3.78296 11.96 4.23067 11.96 4.78296V6.78296H21.96V4.78296C21.96 4.23067 22.4077 3.78296 22.96 3.78296C23.5122 3.78296 23.96 4.23067 23.96 4.78296V6.78296H26.96C27.5122 6.78296 27.96 7.23067 27.96 7.78296V11.783H5.95996V7.78296C5.95996 7.23067 6.40768 6.78296 6.95996 6.78296H9.95996V4.78296C9.95996 4.23067 10.4077 3.78296 10.96 3.78296ZM5.95996 13.783H27.96V27.783C27.96 28.3352 27.5122 28.783 26.96 28.783H6.95996C6.40768 28.783 5.95996 28.3352 5.95996 27.783V13.783ZM12.46 20.783C12.46 20.2307 12.9077 19.783 13.46 19.783H15.96V17.283C15.96 16.7307 16.4077 16.283 16.96 16.283C17.5122 16.283 17.96 16.7307 17.96 17.283V19.783H20.46C21.0122 19.783 21.46 20.2307 21.46 20.783C21.46 21.3352 21.0122 21.783 20.46 21.783H17.96V24.283C17.96 24.8352 17.5122 25.283 16.96 25.283C16.4077 25.283 15.96 24.8352 15.96 24.283V21.783H13.46C12.9077 21.783 12.46 21.3352 12.46 20.783Z" fill="#1C1B1F"/>
</svg>
