<svg width="33" height="33" viewBox="0 0 33 33" fill="none" xmlns="http://www.w3.org/2000/svg">
<path fill-rule="evenodd" clip-rule="evenodd" d="M10.96 3.78296C11.5122 3.78296 11.96 4.23067 11.96 4.78296V6.78296H21.96V4.78296C21.96 4.23067 22.4077 3.78296 22.96 3.78296C23.5122 3.78296 23.96 4.23067 23.96 4.78296V6.78296H26.96C27.5122 6.78296 27.96 7.23067 27.96 7.78296V11.783H5.95996V7.78296C5.95996 7.23067 6.40768 6.78296 6.95996 6.78296H9.95996V4.78296C9.95996 4.23067 10.4077 3.78296 10.96 3.78296ZM5.95996 13.783H27.96V27.783C27.96 28.3352 27.5122 28.783 26.96 28.783H6.95996C6.40768 28.783 5.95996 28.3352 5.95996 27.783V13.783ZM11.46 17.7826C11.46 17.2303 11.9077 16.7826 12.46 16.7826H15.4176C16.3041 16.7826 16.8264 17.7776 16.3229 18.5073L15.1616 20.1905C15.3541 20.3034 15.5342 20.4351 15.6972 20.5822C16.1968 21.0331 16.6081 21.7021 16.6081 22.5125C16.6081 24.0424 15.3679 25.2826 13.838 25.2826C12.9662 25.2826 12.188 24.8787 11.6818 24.2516C11.3349 23.8219 11.4021 23.1923 11.8318 22.8454C12.2616 22.4985 12.8912 22.5657 13.2381 22.9954C13.3809 23.1723 13.5962 23.2826 13.838 23.2826C14.2633 23.2826 14.6081 22.9378 14.6081 22.5125C14.6081 22.4085 14.5535 22.2441 14.3571 22.0668C14.16 21.8889 13.8941 21.7714 13.6549 21.7471C12.9009 21.6706 12.3266 20.7775 12.8508 20.0178L13.7031 18.7826H12.46C11.9077 18.7826 11.46 18.3349 11.46 17.7826ZM21.9598 18.6939C21.9598 17.51 20.6524 16.7927 19.6539 17.4288L18.7606 17.9979C18.2948 18.2946 18.1577 18.9128 18.4544 19.3786C18.7512 19.8444 19.3693 19.9814 19.8351 19.6847L19.9598 19.6053V24.2826C19.9598 24.8349 20.4075 25.2826 20.9598 25.2826C21.5121 25.2826 21.9598 24.8349 21.9598 24.2826V18.6939Z" fill="#1C1B1F"/>
</svg>
