<svg width="32" height="33" viewBox="0 0 32 33" fill="none" xmlns="http://www.w3.org/2000/svg">
<path fill-rule="evenodd" clip-rule="evenodd" d="M1 6.4985C0.447715 6.4985 0 6.94622 0 7.4985V29.4985C0 30.0508 0.447715 30.4985 1 30.4985H31C31.5523 30.4985 32 30.0508 32 29.4985V7.4985C32 6.94622 31.5523 6.4985 31 6.4985H24.5982C24.2666 6.4985 23.9565 6.33407 23.7704 6.05952L21.6566 2.94045C21.4705 2.6659 21.1604 2.50146 20.8288 2.50146H11.2244C10.8924 2.50146 10.5821 2.66624 10.3961 2.94125L8.28776 6.05871C8.10177 6.33373 7.79141 6.4985 7.45941 6.4985H1ZM11 17.8318C11 15.0704 13.2386 12.8318 16 12.8318C18.7614 12.8318 21 15.0704 21 17.8318C21 20.5933 18.7614 22.8318 16 22.8318C13.2386 22.8318 11 20.5933 11 17.8318ZM16 10.8318C12.134 10.8318 9 13.9658 9 17.8318C9 21.6978 12.134 24.8318 16 24.8318C19.866 24.8318 23 21.6978 23 17.8318C23 13.9658 19.866 10.8318 16 10.8318Z" fill="#111827"/>
</svg>
