<svg width="33" height="33" viewBox="0 0 33 33" fill="none" xmlns="http://www.w3.org/2000/svg">
<path fill-rule="evenodd" clip-rule="evenodd" d="M7.50117 4.32147C7.12966 3.91282 6.49722 3.8827 6.08856 4.25421C5.6799 4.62571 5.64978 5.25816 6.02129 5.66682L9.30759 9.28175H5.95996C5.40768 9.28175 4.95996 9.72946 4.95996 10.2817V26.2817C4.95996 26.834 5.40768 27.2817 5.95996 27.2817H25.6712L27.8395 29.6668C28.211 30.0755 28.8434 30.1056 29.2521 29.7341C29.6607 29.3626 29.6909 28.7301 29.3194 28.3215L7.50117 4.32147ZM20.0277 21.0739L13.9741 14.4149C13.0453 15.2393 12.46 16.4421 12.46 17.7817C12.46 20.267 14.4747 22.2817 16.96 22.2817C18.1455 22.2817 19.224 21.8232 20.0277 21.0739ZM23.5411 9.28173H27.9599C28.5121 9.28173 28.9599 9.72945 28.9599 10.2817V23.759L12.98 6.28395H20.4489C20.7805 6.28395 21.0906 6.44839 21.2767 6.72293L22.7133 8.84275C22.8994 9.1173 23.2094 9.28173 23.5411 9.28173Z" fill="#1C1B1F"/>
</svg>
