<svg width="32" height="33" viewBox="0 0 32 33" fill="none" xmlns="http://www.w3.org/2000/svg">
<path fill-rule="evenodd" clip-rule="evenodd" d="M1 30.4985H31C31.5523 30.4985 32 30.0508 32 29.4985V7.4985C32 6.94622 31.5523 6.4985 31 6.4985H24.5982C24.2666 6.4985 23.9565 6.33407 23.7704 6.05952L21.6566 2.94044C21.4705 2.6659 21.1604 2.50146 20.8288 2.50146H11.2244C10.8924 2.50146 10.5821 2.66624 10.3961 2.94126L8.28776 6.05871C8.10176 6.33373 7.79141 6.4985 7.45941 6.4985H1C0.447716 6.4985 0 6.94622 0 7.4985V29.4985C0 30.0508 0.447715 30.4985 1 30.4985ZM15.3498 12.4105C14.5609 12.4105 13.7798 12.5659 13.051 12.8678C12.3222 13.1697 11.6599 13.6122 11.1021 14.17C10.7116 14.5605 10.0784 14.5605 9.68791 14.17C9.29739 13.7795 9.29739 13.1463 9.68791 12.7558C10.4314 12.0122 11.3141 11.4224 12.2856 11.02C13.2571 10.6176 14.2983 10.4105 15.3498 10.4105C16.4013 10.4105 17.4425 10.6176 18.414 11.02C19.3855 11.4224 20.2682 12.0122 21.0117 12.7558L22.0068 13.7509V12.3435C22.0068 11.7912 22.4545 11.3435 23.0068 11.3435C23.5591 11.3435 24.0068 11.7912 24.0068 12.3435V16.1374C24.0142 16.4026 23.9167 16.6702 23.7143 16.8726C23.5973 16.9896 23.4585 17.0715 23.311 17.1184C23.2151 17.149 23.1129 17.1655 23.0068 17.1655H19.1847C18.6324 17.1655 18.1847 16.7178 18.1847 16.1655C18.1847 15.6133 18.6324 15.1655 19.1847 15.1655H20.593L19.5975 14.17C19.0397 13.6122 18.3774 13.1697 17.6486 12.8678C16.9198 12.5659 16.1387 12.4105 15.3498 12.4105ZM8.99268 19.67C8.85709 19.67 8.7278 19.697 8.60989 19.7458C8.49463 19.7935 8.38647 19.8637 8.29213 19.9564L8.27907 19.9694C8.10193 20.1498 7.99268 20.3971 7.99268 20.67V20.6703V24.492C7.99268 25.0443 8.44039 25.492 8.99268 25.492C9.54496 25.492 9.99268 25.0443 9.99268 24.492V23.0842L10.9882 24.0797C11.7317 24.8232 12.6144 25.413 13.5859 25.8154C14.5573 26.2178 15.5986 26.4249 16.6501 26.4249C17.7016 26.4249 18.7428 26.2178 19.7143 25.8154C20.6857 25.413 21.5684 24.8232 22.312 24.0797C22.7025 23.6892 22.7025 23.056 22.312 22.6655C21.9214 22.2749 21.2883 22.2749 20.8977 22.6655C20.3399 23.2233 19.6777 23.6658 18.9489 23.9677C18.2201 24.2695 17.4389 24.4249 16.6501 24.4249C15.8612 24.4249 15.0801 24.2695 14.3512 23.9677C13.6224 23.6658 12.9602 23.2233 12.4024 22.6655L11.4069 21.67H12.8147C13.367 21.67 13.8147 21.2223 13.8147 20.67C13.8147 20.1177 13.367 19.67 12.8147 19.67H8.99268Z" fill="#111827"/>
</svg>
