<svg width="32" height="33" viewBox="0 0 32 33" fill="none" xmlns="http://www.w3.org/2000/svg">
<path fill-rule="evenodd" clip-rule="evenodd" d="M3.73028 0.828311C3.35877 0.419653 2.72632 0.389537 2.31767 0.761044C1.90901 1.13255 1.87889 1.765 2.2504 2.17366L6.51083 6.86013H1.73926C1.18697 6.86013 0.739258 7.30785 0.739258 7.86013V28.3587C0.739258 28.911 1.18697 29.3587 1.73926 29.3587H26.9641L29.5215 32.1718C29.893 32.5805 30.5254 32.6106 30.9341 32.2391C31.3427 31.8676 31.3728 31.2351 31.0013 30.8265L3.73028 0.828311ZM19.752 21.4254L12.1969 13.1148C10.9261 14.1461 10.114 15.7204 10.114 17.4845C10.114 20.5909 12.6323 23.1092 15.7387 23.1092C17.3103 23.1092 18.7314 22.4646 19.752 21.4254ZM23.8316 6.86002H29.7372C30.2895 6.86002 30.7372 7.30773 30.7372 7.86002V24.9555L10.7636 3.11303H20.2316C20.5633 3.11303 20.8733 3.27746 21.0594 3.55201L23.0038 6.42104C23.1899 6.69558 23.5 6.86002 23.8316 6.86002Z" fill="#111827"/>
</svg>
