<svg width="33" height="33" viewBox="0 0 33 33" fill="none" xmlns="http://www.w3.org/2000/svg">
<path fill-rule="evenodd" clip-rule="evenodd" d="M5.95996 9.28171C5.40768 9.28171 4.95996 9.72943 4.95996 10.2817V26.2817C4.95996 26.834 5.40768 27.2817 5.95996 27.2817H27.96C28.5122 27.2817 28.96 26.834 28.96 26.2817V10.2817C28.96 9.72943 28.5122 9.28171 27.96 9.28171H23.5412C23.2096 9.28171 22.8995 9.11728 22.7134 8.84273L21.2768 6.72292C21.0907 6.44837 20.7806 6.28394 20.449 6.28394H13.511C13.179 6.28394 12.8687 6.44871 12.6827 6.72373L11.2501 8.84192C11.0641 9.11694 10.7538 9.28171 10.4218 9.28171H5.95996ZM13.46 17.7817C13.46 15.8487 15.027 14.2817 16.96 14.2817C18.893 14.2817 20.46 15.8487 20.46 17.7817C20.46 19.7147 18.893 21.2817 16.96 21.2817C15.027 21.2817 13.46 19.7147 13.46 17.7817ZM16.96 12.2817C13.9224 12.2817 11.46 14.7441 11.46 17.7817C11.46 20.8193 13.9224 23.2817 16.96 23.2817C19.9975 23.2817 22.46 20.8193 22.46 17.7817C22.46 14.7441 19.9975 12.2817 16.96 12.2817Z" fill="#1C1B1F"/>
</svg>
