<svg width="33" height="33" viewBox="0 0 33 33" fill="none" xmlns="http://www.w3.org/2000/svg">
<path fill-rule="evenodd" clip-rule="evenodd" d="M5.95996 27.2817H27.96C28.5122 27.2817 28.96 26.834 28.96 26.2817V10.2817C28.96 9.72943 28.5122 9.28171 27.96 9.28171H23.5412C23.2096 9.28171 22.8995 9.11728 22.7134 8.84273L21.2768 6.72292C21.0907 6.44837 20.7806 6.28394 20.449 6.28394H13.511C13.179 6.28394 12.8687 6.44871 12.6827 6.72373L11.2501 8.84192C11.0641 9.11694 10.7538 9.28171 10.4218 9.28171H5.95996C5.40768 9.28171 4.95996 9.72943 4.95996 10.2817V26.2817C4.95996 26.834 5.40768 27.2817 5.95996 27.2817ZM16.4724 13.9658C15.9136 13.9658 15.3603 14.0759 14.844 14.2897C14.3277 14.5036 13.8586 14.817 13.4635 15.2122C13.0729 15.6027 12.4398 15.6027 12.0492 15.2122C11.6587 14.8216 11.6587 14.1885 12.0492 13.7979C12.6301 13.2171 13.3197 12.7563 14.0786 12.442C14.8376 12.1276 15.651 11.9658 16.4724 11.9658C17.2939 11.9658 18.1073 12.1276 18.8662 12.442C19.6252 12.7563 20.3148 13.2171 20.8956 13.7979L21.2152 14.1175V13.6655C21.2152 13.1132 21.6629 12.6655 22.2152 12.6655C22.7675 12.6655 23.2152 13.1132 23.2152 13.6655V16.5077C23.2216 16.7717 23.124 17.0377 22.9226 17.2391C22.8098 17.3519 22.6769 17.432 22.5354 17.4797C22.4348 17.5136 22.3272 17.5321 22.2152 17.5321H19.3486C18.7963 17.5321 18.3486 17.0843 18.3486 16.5321C18.3486 15.9798 18.7963 15.5321 19.3486 15.5321H19.8013L19.4814 15.2122C19.0863 14.817 18.6172 14.5036 18.1009 14.2897C17.5846 14.0759 17.0313 13.9658 16.4724 13.9658ZM11.7046 18.9104C11.569 18.9104 11.4397 18.9374 11.3218 18.9863C11.2039 19.0351 11.0934 19.1074 10.9975 19.2033C10.9016 19.2991 10.8293 19.4096 10.7805 19.5276C10.7316 19.6455 10.7046 19.7748 10.7046 19.9104V19.9108V22.7769C10.7046 23.3292 11.1523 23.7769 11.7046 23.7769C12.2569 23.7769 12.7046 23.3292 12.7046 22.7769V22.3246L13.0244 22.6444C13.6053 23.2253 14.2949 23.6861 15.0538 24.0004C15.8127 24.3148 16.6262 24.4766 17.4476 24.4766C18.2691 24.4766 19.0825 24.3148 19.8414 24.0004C20.6004 23.6861 21.29 23.2253 21.8708 22.6444C22.2613 22.2539 22.2613 21.6207 21.8708 21.2302C21.4803 20.8397 20.8471 20.8397 20.4566 21.2302C20.0615 21.6254 19.5924 21.9388 19.0761 22.1527C18.5598 22.3665 18.0065 22.4766 17.4476 22.4766C16.8888 22.4766 16.3355 22.3665 15.8192 22.1527C15.3029 21.9388 14.8338 21.6254 14.4387 21.2302L14.1188 20.9104H14.5711C15.1234 20.9104 15.5711 20.4627 15.5711 19.9104C15.5711 19.3581 15.1234 18.9104 14.5711 18.9104H11.7046Z" fill="#1C1B1F"/>
</svg>
