<svg width="33" height="33" viewBox="0 0 33 33" fill="none" xmlns="http://www.w3.org/2000/svg">
<path fill-rule="evenodd" clip-rule="evenodd" d="M24.4542 7.2829H9.45263L5.70224 13.9765H28.2046L24.4542 7.2829ZM5.70273 16.0287H28.2055V21.8543H5.70273V16.0287ZM10.1031 17.4258C9.55083 17.4258 9.10312 17.8735 9.10312 18.4258C9.10312 18.9781 9.55083 19.4258 10.1031 19.4258H11.8174C12.3697 19.4258 12.8174 18.9781 12.8174 18.4258C12.8174 17.8735 12.3697 17.4258 11.8174 17.4258H10.1031ZM22.1031 17.4258C21.5508 17.4258 21.1031 17.8735 21.1031 18.4258C21.1031 18.9781 21.5508 19.4258 22.1031 19.4258H23.8174C24.3697 19.4258 24.8174 18.9781 24.8174 18.4258C24.8174 17.8735 24.3697 17.4258 23.8174 17.4258H22.1031ZM10.3767 21.8543V24.2829C10.3767 24.8352 9.92897 25.2829 9.37668 25.2829H6.70273C6.15044 25.2829 5.70273 24.8352 5.70273 24.2829V21.8543H10.3767ZM28.2051 24.2829V21.8543H23.5245V24.2829C23.5245 24.8352 23.9722 25.2829 24.5245 25.2829H27.2051C27.7574 25.2829 28.2051 24.8352 28.2051 24.2829ZM28.9538 15.9972H28.2393V13.9972H28.9538C29.5061 13.9972 29.9538 14.4449 29.9538 14.9972C29.9538 15.5495 29.5061 15.9972 28.9538 15.9972ZM5.66757 15.9972H4.95312C4.40084 15.9972 3.95312 15.5495 3.95312 14.9972C3.95312 14.4449 4.40084 13.9972 4.95313 13.9972H5.66757L5.66757 15.9972Z" fill="#1C1B1F"/>
</svg>
