<svg width="32" height="32" viewBox="0 0 32 32" fill="none" xmlns="http://www.w3.org/2000/svg">
<path fill-rule="evenodd" clip-rule="evenodd" d="M25.3746 4.75098H6.62423L1.93663 13.1172H30.0622L25.3746 4.75098ZM1.93729 15.6823H30.0634V22.9637H30.0622V26.2491C30.0622 26.8013 29.6145 27.2491 29.0622 27.2491H25.212C24.6597 27.2491 24.212 26.8013 24.212 26.2491V22.9637H7.77907V26.2491C7.77907 26.8013 7.33136 27.2491 6.77907 27.2491H2.93712C2.38484 27.2491 1.93712 26.8013 1.93712 26.2491V22.9637H1.93729V15.6823ZM7.43687 17.6784C6.88458 17.6784 6.43687 18.1261 6.43687 18.6784C6.43687 19.2307 6.88458 19.6784 7.43687 19.6784H9.57954C10.1318 19.6784 10.5795 19.2307 10.5795 18.6784C10.5795 18.1261 10.1318 17.6784 9.57954 17.6784H7.43687ZM22.436 17.6784C21.8837 17.6784 21.436 18.1261 21.436 18.6784C21.436 19.2307 21.8837 19.6784 22.436 19.6784H24.5787C25.131 19.6784 25.5787 19.2307 25.5787 18.6784C25.5787 18.1261 25.131 17.6784 24.5787 17.6784H22.436ZM30.9982 15.393H30.1061V13.393H30.9982C31.5505 13.393 31.9982 13.8407 31.9982 14.393C31.9982 14.9453 31.5505 15.393 30.9982 15.393ZM1.89363 15.393H1.00146C0.44918 15.393 0.0014648 14.9453 0.00146484 14.393C0.00146489 13.8407 0.44918 13.393 1.00146 13.393H1.89363L1.89363 15.393Z" fill="#111827"/>
</svg>
