<svg width="32" height="32" viewBox="0 0 32 32" fill="none" xmlns="http://www.w3.org/2000/svg">
<path fill-rule="evenodd" clip-rule="evenodd" d="M5.16693 2.58347C4.61465 2.58347 4.16693 3.03118 4.16693 3.58347C4.16693 4.13575 4.61465 4.58347 5.16693 4.58347H29.9999V24.2499C29.9999 24.8022 30.4477 25.2499 30.9999 25.2499C31.5522 25.2499 31.9999 24.8022 31.9999 24.2499V3.58347C31.9999 3.03118 31.5522 2.58347 30.9999 2.58347H5.16693ZM1 8.75006C0.447715 8.75006 0 9.19778 0 9.75006V28.4165C0 28.9688 0.447716 29.4165 1 29.4165H24.833C25.3853 29.4165 25.833 28.9688 25.833 28.4165V9.75006C25.833 9.19778 25.3853 8.75006 24.833 8.75006H1Z" fill="#111827"/>
</svg>
