<svg width="32" height="32" viewBox="0 0 32 32" fill="none" xmlns="http://www.w3.org/2000/svg">
<path fill-rule="evenodd" clip-rule="evenodd" d="M1.00023 3.75C0.447944 3.75 0.000228822 4.19772 0.000228822 4.75V9.72824C7.65297e-05 9.73542 0 9.74263 0 9.74985C0 9.75707 7.65297e-05 9.76427 0.000228822 9.77145V27.2503C0.000228822 27.8026 0.447944 28.2503 1.00023 28.2503H31.0007C31.553 28.2503 32.0007 27.8026 32.0007 27.2503V4.75C32.0007 4.19772 31.553 3.75 31.0007 3.75H1.00023ZM2.00023 10.7498V14.7499H10.9959C11.0287 16.5002 13.2526 17.9125 15.9913 17.9125C18.7299 17.9125 20.9539 16.5002 20.9867 14.7499H30.0007V10.7498H2.00023ZM30.0007 8.74985V5.75H2.00023V8.74985H30.0007Z" fill="#111827"/>
</svg>
