<svg width="33" height="33" viewBox="0 0 33 33" fill="none" xmlns="http://www.w3.org/2000/svg">
<path fill-rule="evenodd" clip-rule="evenodd" d="M8.95996 5.2829C8.40768 5.2829 7.95996 5.73061 7.95996 6.2829C7.95996 6.83518 8.40768 7.2829 8.95996 7.2829H27.96V22.2829C27.96 22.8352 28.4077 23.2829 28.96 23.2829C29.5122 23.2829 29.96 22.8352 29.96 22.2829V6.2829C29.96 5.73061 29.5122 5.2829 28.96 5.2829H8.95996ZM5.95996 10.2829C5.40768 10.2829 4.95996 10.7306 4.95996 11.2829V25.2829C4.95996 25.8352 5.40768 26.2829 5.95996 26.2829H23.96C24.5122 26.2829 24.96 25.8352 24.96 25.2829V11.2829C24.96 10.7306 24.5122 10.2829 23.96 10.2829H5.95996Z" fill="#1C1B1F"/>
</svg>
