<svg width="32" height="33" viewBox="0 0 32 33" fill="none" xmlns="http://www.w3.org/2000/svg">
<path fill-rule="evenodd" clip-rule="evenodd" d="M1.00023 4.25C0.447944 4.25 0.000228822 4.69772 0.000228822 5.25V10.2282C7.65297e-05 10.2354 0 10.2426 0 10.2498C0 10.2571 7.65297e-05 10.2643 0.000228822 10.2715V27.7503C0.000228822 28.3026 0.447944 28.7503 1.00023 28.7503H31.0007C31.553 28.7503 32.0007 28.3026 32.0007 27.7503V5.25C32.0007 4.69772 31.553 4.25 31.0007 4.25H1.00023ZM2.00023 11.2498V15.2499H10.9959C11.0287 17.0002 13.2526 18.4125 15.9913 18.4125C18.7299 18.4125 20.9539 17.0002 20.9867 15.2499H30.0007V11.2498H2.00023ZM30.0007 9.24985V6.25H2.00023V9.24985H30.0007Z" fill="#111827"/>
</svg>
