<svg width="32" height="32" viewBox="0 0 32 32" fill="none" xmlns="http://www.w3.org/2000/svg">
<path fill-rule="evenodd" clip-rule="evenodd" d="M26.3417 2C26.5393 2 26.7184 2.11637 26.7986 2.29693L32 14L32 29.5C32 29.7761 31.7761 30 31.5 30H25.5394C25.2633 30 25.0394 29.7761 25.0394 29.5V25.1666C25.0394 24.8905 24.8156 24.6666 24.5394 24.6666H7.38099C7.10485 24.6666 6.88099 24.8905 6.88099 25.1666V29.5C6.88099 29.7761 6.65713 30 6.38099 30H0.500032C0.22389 30 3.15585e-05 29.7761 3.15579e-05 29.5L3.15242e-05 14L5.20139 2.29693C5.28164 2.11637 5.4607 2 5.6583 2H26.3417ZM6.25803 12.4444C5.39892 12.4444 4.70247 13.1409 4.70247 14C4.70247 14.8591 5.39892 15.5555 6.25803 15.5555H25.7426C26.6017 15.5555 27.2981 14.8591 27.2981 14C27.2981 13.1409 26.6017 12.4444 25.7426 12.4444H6.25803Z" fill="#111827"/>
</svg>
