<svg width="33" height="33" viewBox="0 0 33 33" fill="none" xmlns="http://www.w3.org/2000/svg">
<path fill-rule="evenodd" clip-rule="evenodd" d="M24.635 5.7829C24.8326 5.7829 25.0117 5.89926 25.0919 6.07983L28.96 14.7829L28.96 26.2829C28.96 26.559 28.7361 26.7829 28.46 26.7829H24.2395C23.9634 26.7829 23.7395 26.559 23.7395 26.2829V23.2829C23.7395 23.0067 23.5157 22.7829 23.2395 22.7829H10.6207C10.3446 22.7829 10.1207 23.0067 10.1207 23.2829V26.2829C10.1207 26.559 9.89684 26.7829 9.6207 26.7829H5.45998C5.18384 26.7829 4.95998 26.559 4.95998 26.2829L4.95998 14.7829L8.82801 6.07983C8.90826 5.89926 9.08732 5.7829 9.28492 5.7829H24.635ZM9.6534 13.6162C9.00907 13.6162 8.48673 14.1386 8.48673 14.7829C8.48673 15.4272 9.00907 15.9496 9.6534 15.9496H24.2668C24.9111 15.9496 25.4335 15.4272 25.4335 14.7829C25.4335 14.1386 24.9111 13.6162 24.2668 13.6162H9.6534Z" fill="#1C1B1F"/>
</svg>
