<svg width="33" height="33" viewBox="0 0 33 33" fill="none" xmlns="http://www.w3.org/2000/svg">
<path fill-rule="evenodd" clip-rule="evenodd" d="M15.96 7.12207C15.3171 7.18656 14.6792 7.31337 14.0557 7.5025V12.188C14.0557 12.7403 13.6079 13.188 13.0557 13.188C12.5034 13.188 12.0557 12.7403 12.0557 12.188V8.35701C11.7454 8.53175 11.4423 8.72432 11.1478 8.93471L10.127 9.66387L6.00334 7.1897C5.67008 6.98974 5.24609 7.2298 5.24609 7.61845V18.783C5.24609 24.3059 9.72325 28.783 15.2461 28.783H15.96V25.2923L14.3007 23.6331C13.9102 23.2425 13.9102 22.6094 14.3007 22.2188C14.6912 21.8283 15.3244 21.8283 15.7149 22.2188L16.9602 23.4641L18.2054 22.2188C18.5959 21.8283 19.2291 21.8283 19.6196 22.2188C20.0101 22.6094 20.0101 23.2425 19.6196 23.6331L17.96 25.2927V28.783H18.6742C24.1971 28.783 28.6742 24.3059 28.6742 18.783V7.61845C28.6742 7.2298 28.2502 6.98974 27.917 7.1897L23.7934 9.66387L22.7725 8.93471C22.478 8.72434 22.1749 8.53179 21.8647 8.35706V12.188C21.8647 12.7403 21.417 13.188 20.8647 13.188C20.3125 13.188 19.8647 12.7403 19.8647 12.188V7.50253C19.2411 7.31334 18.603 7.18651 17.96 7.12203V12.188C17.96 12.7403 17.5122 13.188 16.96 13.188C16.4077 13.188 15.96 12.7403 15.96 12.188V7.12207ZM13.0555 18.5332C13.0555 19.3418 12.3999 19.9974 11.5912 19.9974C10.7825 19.9974 10.127 19.3418 10.127 18.5332C10.127 17.7245 10.7825 17.0689 11.5912 17.0689C12.3999 17.0689 13.0555 17.7245 13.0555 18.5332ZM22.329 19.9974C23.1377 19.9974 23.7933 19.3418 23.7933 18.5332C23.7933 17.7245 23.1377 17.0689 22.329 17.0689C21.5203 17.0689 20.8647 17.7245 20.8647 18.5332C20.8647 19.3418 21.5203 19.9974 22.329 19.9974Z" fill="#1C1B1F"/>
</svg>
