<svg width="32" height="33" viewBox="0 0 32 33" fill="none" xmlns="http://www.w3.org/2000/svg">
<path fill-rule="evenodd" clip-rule="evenodd" d="M14.9999 1.27907C13.8555 1.39385 12.7268 1.70614 11.6671 2.21593V9.05436C11.6671 9.60665 11.2194 10.0544 10.6671 10.0544C10.1148 10.0544 9.66709 9.60665 9.66709 9.05436V3.46352L6.66667 5.60668L0.757248 2.06103C0.423986 1.86107 0 2.10113 0 2.48978V21.7211C0 27.244 4.47715 31.7211 10 31.7211H14.9999V26.8017L12.6264 24.4282C12.2359 24.0377 12.2359 23.4045 12.6264 23.014C13.0169 22.6235 13.6501 22.6235 14.0406 23.014L16.0002 24.9735L17.9597 23.014C18.3502 22.6235 18.9834 22.6235 19.3739 23.014C19.7645 23.4045 19.7645 24.0377 19.3739 24.4282L16.9999 26.8022V31.7211H22C27.5228 31.7211 32 27.244 32 21.7211V2.48978C32 2.10113 31.576 1.86107 31.2428 2.06103L25.3333 5.60668L22.3334 3.46384V9.05436C22.3334 9.60665 21.8856 10.0544 21.3334 10.0544C20.7811 10.0544 20.3334 9.60665 20.3334 9.05436V2.21615C19.2735 1.70619 18.1445 1.39383 16.9999 1.27905V9.05431C16.9999 9.6066 16.5522 10.0543 15.9999 10.0543C15.4476 10.0543 14.9999 9.6066 14.9999 9.05431V1.27907ZM10.6668 17.7211C10.6668 18.8256 9.7714 19.7211 8.66683 19.7211C7.56226 19.7211 6.66683 18.8256 6.66683 17.7211C6.66683 16.6165 7.56226 15.7211 8.66683 15.7211C9.7714 15.7211 10.6668 16.6165 10.6668 17.7211ZM23.3334 19.7211C24.4379 19.7211 25.3334 18.8256 25.3334 17.7211C25.3334 16.6165 24.4379 15.7211 23.3334 15.7211C22.2288 15.7211 21.3334 16.6165 21.3334 17.7211C21.3334 18.8256 22.2288 19.7211 23.3334 19.7211Z" fill="#111827"/>
</svg>
