<svg width="33" height="33" viewBox="0 0 33 33" fill="none" xmlns="http://www.w3.org/2000/svg">
<path fill-rule="evenodd" clip-rule="evenodd" d="M6.16707 26.9495H25.7933C26.0694 26.9495 26.2933 26.7257 26.2933 26.4495V21.6162V19.1111L25.0407 20.3638C24.2596 21.1448 22.9933 21.1448 22.2123 20.3638C21.4312 19.5827 21.4312 18.3164 22.2123 17.5353L23.4649 16.2826L22.2127 15.0304C21.4317 14.2494 21.4317 12.983 22.2127 12.202C22.9938 11.4209 24.2601 11.4209 25.0412 12.202L26.2933 13.4541V6.82332C26.2933 6.37787 25.7547 6.15478 25.4397 6.46977L5.81351 26.096C5.49853 26.411 5.72162 26.9495 6.16707 26.9495Z" fill="#1C1B1F"/>
<path d="M28.9603 13.6162L23.627 18.9495" stroke="#1C1B1F" stroke-width="2" stroke-linecap="round" stroke-linejoin="round"/>
<path d="M28.9603 18.9495L23.627 13.6162" stroke="#1C1B1F" stroke-width="2" stroke-linecap="round" stroke-linejoin="round"/>
</svg>
