<svg width="33" height="32" viewBox="0 0 33 32" fill="none" xmlns="http://www.w3.org/2000/svg">
<path fill-rule="evenodd" clip-rule="evenodd" d="M0.501003 30.1829H27.8656C28.1417 30.1829 28.3656 29.959 28.3656 29.6829V22.9149V18.475L28.3654 18.4748L26.1451 20.6951C25.3641 21.4761 24.0978 21.4761 23.3167 20.6951C22.5357 19.914 22.5357 18.6477 23.3167 17.8666L25.537 15.6464L23.3177 13.4271C22.5366 12.6461 22.5366 11.3797 23.3177 10.5987C24.0987 9.81765 25.3651 9.81765 26.1461 10.5987L28.3654 12.818L28.3656 12.8177V2.31826C28.3656 1.87281 27.827 1.64973 27.512 1.96471L0.147449 29.3293C-0.167534 29.6443 0.0555503 30.1829 0.501003 30.1829Z" fill="#111827"/>
<path d="M31.9999 12.013L24.7319 19.2809" stroke="#111827" stroke-width="2" stroke-linecap="round" stroke-linejoin="round"/>
<path d="M31.9999 19.2809L24.7319 12.013" stroke="#111827" stroke-width="2" stroke-linecap="round" stroke-linejoin="round"/>
</svg>
