<svg width="32" height="32" viewBox="0 0 32 32" fill="none" xmlns="http://www.w3.org/2000/svg">
<path fill-rule="evenodd" clip-rule="evenodd" d="M25.5489 5.74534L20.7354 10.5588L20.7354 31.9998H25.5489V5.74534ZM27.5489 31.9998H31.5001C31.7763 31.9998 32.0001 31.776 32.0001 31.4998V0.501186C32.0001 0.0557333 31.4616 -0.16735 31.1466 0.147632L27.5489 3.74534V31.9998ZM18.7354 31.9998L18.7354 12.5588L13.9219 17.3723L13.9219 31.9998H18.7354ZM11.9219 31.9998L11.9219 19.3723L7.10789 24.1863L7.10789 31.9998H11.9219ZM5.10789 31.9998L5.10789 26.1863L0.147938 31.1463C-0.167045 31.4613 0.0560368 31.9998 0.501489 31.9998H5.10789Z" fill="#111827"/>
</svg>
