<svg width="33" height="33" viewBox="0 0 33 33" fill="none" xmlns="http://www.w3.org/2000/svg">
<path d="M7.95215 27.5579V26.2829C8.10439 24.9807 9.51289 22.358 13.9289 22.2844C18.3449 22.2108 19.7817 24.9194 19.948 26.2829V27.5579" stroke="white" stroke-width="2" stroke-linecap="round" stroke-linejoin="round"/>
<path fill-rule="evenodd" clip-rule="evenodd" d="M5.95996 6.28296H27.96C28.5122 6.28296 28.96 6.73067 28.96 7.28296V25.283C28.96 25.8352 28.5122 26.283 27.96 26.283H20.8336C20.3282 26.283 19.9084 25.8995 19.721 25.4301C19.3142 24.411 18.3498 23.1823 16.47 22.6082C17.9589 21.7423 18.96 20.1295 18.96 18.283C18.96 15.5215 16.7214 13.283 13.96 13.283C11.1985 13.283 8.95996 15.5215 8.95996 18.283C8.95996 20.152 9.98554 21.7816 11.5046 22.6396C9.58053 23.227 8.5992 24.4323 8.18594 25.4273C7.99133 25.8958 7.56981 26.283 7.06245 26.283H5.95996C5.40768 26.283 4.95996 25.8352 4.95996 25.283V7.28296C4.95996 6.73067 5.40768 6.28296 5.95996 6.28296ZM7.95996 10.283C7.95996 9.73067 8.40768 9.28296 8.95996 9.28296H24.96C25.5122 9.28296 25.96 9.73067 25.96 10.283V22.2897C25.96 22.842 25.5122 23.2897 24.96 23.2897H22.6111C22.0588 23.2897 21.6111 22.842 21.6111 22.2897C21.6111 21.7375 22.0588 21.2897 22.6111 21.2897H23.96V11.283H9.95996V12.5279C9.95996 13.0801 9.51225 13.5279 8.95996 13.5279C8.40768 13.5279 7.95996 13.0801 7.95996 12.5279V10.283ZM13.96 15.283C12.3031 15.283 10.96 16.6261 10.96 18.283C10.96 19.9398 12.3031 21.283 13.96 21.283C15.6168 21.283 16.96 19.9398 16.96 18.283C16.96 16.6261 15.6168 15.283 13.96 15.283Z" fill="#1C1B1F"/>
</svg>
