<svg width="33" height="33" viewBox="0 0 33 33" fill="none" xmlns="http://www.w3.org/2000/svg">
<path fill-rule="evenodd" clip-rule="evenodd" d="M7.67432 8.14014C7.12203 8.14014 6.67432 8.58785 6.67432 9.14014V23.4258H4.95996C4.40768 23.4258 3.95996 23.8735 3.95996 24.4258C3.95996 24.9781 4.40768 25.4258 4.95996 25.4258H28.96C29.5122 25.4258 29.96 24.9781 29.96 24.4258C29.96 23.8735 29.5122 23.4258 28.96 23.4258H27.2457V9.14014C27.2457 8.58785 26.798 8.14014 26.2457 8.14014H7.67432ZM23.9602 23.4258V20.9973C23.9602 20.445 23.5125 19.9973 22.9602 19.9973H16.103C15.5507 19.9973 15.103 20.445 15.103 20.9973V23.4258H17.103V22.9973C17.103 22.445 17.5507 21.9973 18.103 21.9973H20.9602C21.5125 21.9973 21.9602 22.445 21.9602 22.9973V23.4258H23.9602Z" fill="#1C1B1F"/>
</svg>
