<svg width="32" height="33" viewBox="0 0 32 33" fill="none" xmlns="http://www.w3.org/2000/svg">
<path d="M3.98975 29.8333V28.5441C4.19274 27.2275 6.07073 24.5757 11.9588 24.5012C17.8468 24.4268 19.7624 27.1654 19.9842 28.5441V29.8333" stroke="#111827" stroke-width="2" stroke-linecap="round" stroke-linejoin="round"/>
<path fill-rule="evenodd" clip-rule="evenodd" d="M1 3.1665H31C31.5523 3.1665 32 3.61422 32 4.1665V28.8332C32 29.3855 31.5523 29.8332 31 29.8332H20.8697C20.3643 29.8332 19.9444 29.4526 19.7834 28.9735C19.2845 27.4895 17.8805 25.5479 14.8849 24.8061C16.9323 23.7567 18.3333 21.6252 18.3333 19.1665C18.3333 15.6687 15.4978 12.8332 12 12.8332C8.5022 12.8332 5.66667 15.6687 5.66667 19.1665C5.66667 21.6565 7.10356 23.8108 9.19338 24.8456C6.12503 25.6165 4.69925 27.5222 4.19526 28.97C4.02847 29.4492 3.60731 29.8332 3.09994 29.8332H1C0.447715 29.8332 0 29.3855 0 28.8332V4.1665C0 3.61422 0.447715 3.1665 1 3.1665ZM4.33333 8.49984C4.33333 7.94755 4.78105 7.49984 5.33333 7.49984H26.6667C27.219 7.49984 27.6667 7.94755 27.6667 8.49984V24.5089C27.6667 25.0612 27.219 25.5089 26.6667 25.5089H23.5348C22.9826 25.5089 22.5348 25.0612 22.5348 24.5089C22.5348 23.9566 22.9826 23.5089 23.5348 23.5089H25.6667V9.49984H6.33333V11.493C6.33333 12.0453 5.88562 12.493 5.33333 12.493C4.78105 12.493 4.33333 12.0453 4.33333 11.493V8.49984ZM12 14.8332C9.60677 14.8332 7.66667 16.7733 7.66667 19.1665C7.66667 21.5597 9.60677 23.4998 12 23.4998C14.3932 23.4998 16.3333 21.5597 16.3333 19.1665C16.3333 16.7733 14.3932 14.8332 12 14.8332Z" fill="#111827"/>
</svg>
