<svg width="32" height="33" viewBox="0 0 32 33" fill="none" xmlns="http://www.w3.org/2000/svg">
<path fill-rule="evenodd" clip-rule="evenodd" d="M3.14356 6.32227C3.14356 6.04612 3.36742 5.82227 3.64356 5.82227H28.3563C28.6324 5.82227 28.8563 6.04612 28.8563 6.32227V25.178H30.9991C31.5514 25.178 31.9991 25.6258 31.9991 26.178C31.9991 26.7303 31.5514 27.178 30.9991 27.178H1.00098C0.448692 27.178 0.000976562 26.7303 0.000976562 26.178C0.000976562 25.6258 0.448692 25.178 1.00098 25.178H3.14356V6.32227ZM8.4287 25.178H6.4287V24.9283V10.1078C6.4287 9.55547 6.87641 9.10775 7.4287 9.10775H24.5705C25.1228 9.10775 25.5705 9.55547 25.5705 10.1078V16.606C25.5705 17.1583 25.1228 17.606 24.5705 17.606C24.0182 17.606 23.5705 17.1583 23.5705 16.606V11.1078H8.4287V24.9283V25.178ZM13.9282 25.178H15.9282V22.8929H23.5705V25.178H25.5705V21.8929C25.5705 21.3407 25.1228 20.8929 24.5705 20.8929H14.9282C14.3759 20.8929 13.9282 21.3407 13.9282 21.8929V25.178Z" fill="#111827"/>
</svg>
