<svg width="32" height="32" viewBox="0 0 32 32" fill="none" xmlns="http://www.w3.org/2000/svg">
<path d="M3.98975 29.3333V28.0441C4.19274 26.7275 6.07073 24.0757 11.9588 24.0012C17.8468 23.9268 19.7624 26.6654 19.9842 28.0441V29.3333" stroke="#111827" stroke-width="2" stroke-linecap="round" stroke-linejoin="round"/>
<path fill-rule="evenodd" clip-rule="evenodd" d="M1 2.6665H31C31.5523 2.6665 32 3.11422 32 3.6665V28.3332C32 28.8855 31.5523 29.3332 31 29.3332H20.8697C20.3643 29.3332 19.9444 28.9526 19.7834 28.4735C19.2845 26.9895 17.8805 25.0479 14.8849 24.3061C16.9323 23.2567 18.3333 21.1252 18.3333 18.6665C18.3333 15.1687 15.4978 12.3332 12 12.3332C8.5022 12.3332 5.66667 15.1687 5.66667 18.6665C5.66667 21.1565 7.10356 23.3108 9.19338 24.3456C6.12503 25.1165 4.69925 27.0222 4.19526 28.47C4.02847 28.9492 3.60731 29.3332 3.09994 29.3332H1C0.447715 29.3332 0 28.8855 0 28.3332V3.6665C0 3.11422 0.447715 2.6665 1 2.6665ZM4.33333 7.99984C4.33333 7.44755 4.78105 6.99984 5.33333 6.99984H26.6667C27.219 6.99984 27.6667 7.44755 27.6667 7.99984V24.0089C27.6667 24.5612 27.219 25.0089 26.6667 25.0089H23.5348C22.9826 25.0089 22.5348 24.5612 22.5348 24.0089C22.5348 23.4566 22.9826 23.0089 23.5348 23.0089H25.6667V8.99984H6.33333V10.993C6.33333 11.5453 5.88562 11.993 5.33333 11.993C4.78105 11.993 4.33333 11.5453 4.33333 10.993V7.99984ZM12 14.3332C9.60677 14.3332 7.66667 16.2733 7.66667 18.6665C7.66667 21.0597 9.60677 22.9998 12 22.9998C14.3932 22.9998 16.3333 21.0597 16.3333 18.6665C16.3333 16.2733 14.3932 14.3332 12 14.3332Z" fill="#111827"/>
</svg>
