<svg width="32" height="33" viewBox="0 0 32 33" fill="none" xmlns="http://www.w3.org/2000/svg">
<path fill-rule="evenodd" clip-rule="evenodd" d="M4.14356 5.82227C3.59128 5.82227 3.14356 6.26998 3.14356 6.82227V25.178H1.00098C0.448692 25.178 0.000976562 25.6258 0.000976562 26.178C0.000976562 26.7303 0.448692 27.178 1.00098 27.178H30.9991C31.5514 27.178 31.9991 26.7303 31.9991 26.178C31.9991 25.6258 31.5514 25.178 30.9991 25.178H28.8563V6.82226C28.8563 6.26998 28.4086 5.82227 27.8563 5.82227H4.14356ZM24.4996 25.178V21.8929C24.4996 21.3406 24.0519 20.8929 23.4996 20.8929H14.9287C14.3764 20.8929 13.9287 21.3406 13.9287 21.8929V25.178H15.9287V23.8929C15.9287 23.3406 16.3764 22.8929 16.9287 22.8929H21.4996C22.0519 22.8929 22.4996 23.3406 22.4996 23.8929V25.178H24.4996Z" fill="#111827"/>
</svg>
