<svg width="32" height="32" viewBox="0 0 32 32" fill="none" xmlns="http://www.w3.org/2000/svg">
<path fill-rule="evenodd" clip-rule="evenodd" d="M3.14356 5.82227C3.14356 5.54612 3.36742 5.32227 3.64356 5.32227H28.3563C28.6324 5.32227 28.8563 5.54612 28.8563 5.82227V24.678H30.9991C31.5514 24.678 31.9991 25.1258 31.9991 25.678C31.9991 26.2303 31.5514 26.678 30.9991 26.678H1.00098C0.448692 26.678 0.000976562 26.2303 0.000976562 25.678C0.000976562 25.1258 0.448692 24.678 1.00098 24.678H3.14356V5.82227ZM8.4287 24.678H6.4287V24.4283V9.60775C6.4287 9.05547 6.87641 8.60775 7.4287 8.60775H24.5705C25.1228 8.60775 25.5705 9.05547 25.5705 9.60775V16.106C25.5705 16.6583 25.1228 17.106 24.5705 17.106C24.0182 17.106 23.5705 16.6583 23.5705 16.106V10.6078H8.4287V24.4283V24.678ZM13.9282 24.678H15.9282V22.3929H23.5705V24.678H25.5705V21.3929C25.5705 20.8407 25.1228 20.3929 24.5705 20.3929H14.9282C14.3759 20.3929 13.9282 20.8407 13.9282 21.3929V24.678Z" fill="#111827"/>
</svg>
