<svg width="32" height="32" viewBox="0 0 32 32" fill="none" xmlns="http://www.w3.org/2000/svg">
<path fill-rule="evenodd" clip-rule="evenodd" d="M4.14356 5.32227C3.59128 5.32227 3.14356 5.76998 3.14356 6.32227V24.678H1.00098C0.448692 24.678 0.000976562 25.1258 0.000976562 25.678C0.000976562 26.2303 0.448692 26.678 1.00098 26.678H30.9991C31.5514 26.678 31.9991 26.2303 31.9991 25.678C31.9991 25.1258 31.5514 24.678 30.9991 24.678H28.8563V6.32226C28.8563 5.76998 28.4086 5.32227 27.8563 5.32227H4.14356ZM24.4996 24.678V21.3929C24.4996 20.8406 24.0519 20.3929 23.4996 20.3929H14.9287C14.3764 20.3929 13.9287 20.8406 13.9287 21.3929V24.678H15.9287V23.3929C15.9287 22.8406 16.3764 22.3929 16.9287 22.3929H21.4996C22.0519 22.3929 22.4996 22.8406 22.4996 23.3929V24.678H24.4996Z" fill="#111827"/>
</svg>
