<svg width="33" height="33" viewBox="0 0 33 33" fill="none" xmlns="http://www.w3.org/2000/svg">
<path fill-rule="evenodd" clip-rule="evenodd" d="M6.67432 8.64014C6.67432 8.36399 6.89817 8.14014 7.17432 8.14014H26.7457C27.0219 8.14014 27.2457 8.36399 27.2457 8.64014V23.4258H28.96C29.5122 23.4258 29.96 23.8735 29.96 24.4258C29.96 24.9781 29.5122 25.4258 28.96 25.4258H4.95996C4.40768 25.4258 3.95996 24.9781 3.95996 24.4258C3.95996 23.8735 4.40768 23.4258 4.95996 23.4258H6.67432V8.64014ZM11.103 23.4258H9.10303V23.4257V11.5686C9.10303 11.0163 9.55074 10.5686 10.103 10.5686H23.8173C24.3696 10.5686 24.8173 11.0163 24.8173 11.5686V16.7675C24.8173 17.3198 24.3696 17.7675 23.8173 17.7675C23.265 17.7675 22.8173 17.3198 22.8173 16.7675V12.5686H11.103V23.4257V23.4258ZM15.103 23.4258H17.103V21.9973H22.8173V23.4258H24.8173V20.9973C24.8173 20.445 24.3696 19.9973 23.8173 19.9973H16.103C15.5507 19.9973 15.103 20.445 15.103 20.9973V23.4258Z" fill="#1C1B1F"/>
</svg>
