<svg width="33" height="33" viewBox="0 0 33 33" fill="none" xmlns="http://www.w3.org/2000/svg">
<path fill-rule="evenodd" clip-rule="evenodd" d="M6.88331 6.95337C6.88331 6.40108 6.4356 5.95337 5.88331 5.95337C5.33103 5.95337 4.88331 6.40108 4.88331 6.95337V19.9291C4.8833 19.9324 4.8833 19.9358 4.88331 19.9391V25.6126C4.88331 26.1649 5.33103 26.6126 5.88331 26.6126H28.0371C28.5894 26.6126 29.0371 26.1649 29.0371 25.6126C29.0371 25.0603 28.5894 24.6126 28.0371 24.6126H6.88331V20.3856L13.1984 14.8263L20.1531 20.6978C20.3608 20.8732 20.6309 20.9564 20.9013 20.9284C21.1717 20.9003 21.4191 20.7634 21.5864 20.5491L28.817 11.2879C29.1569 10.8525 29.0795 10.2241 28.6442 9.88424C28.2089 9.54436 27.5804 9.62174 27.2406 10.0571L20.6493 18.4993L13.8299 12.7419C13.4513 12.4224 12.8958 12.4281 12.524 12.7555L6.88331 17.7211V6.95337Z" fill="#1C1B1F"/>
</svg>
