<svg width="32" height="32" viewBox="0 0 32 32" fill="none" xmlns="http://www.w3.org/2000/svg">
<path fill-rule="evenodd" clip-rule="evenodd" d="M2.00148 3.36731C2.00148 2.81502 1.55376 2.36731 1.00148 2.36731C0.449193 2.36731 0.00147733 2.81502 0.00147733 3.36731V20.9386C0.00146068 20.942 0.00146068 20.9453 0.00147733 20.9487V28.6328C0.00147733 29.1851 0.449193 29.6328 1.00148 29.6328H30.9989C31.5512 29.6328 31.9989 29.1851 31.9989 28.6328C31.9989 28.0805 31.5512 27.6328 30.9989 27.6328H2.00148V21.3952L10.9017 13.5602L20.5518 21.7074C20.7595 21.8827 21.0297 21.966 21.3001 21.9379C21.5705 21.9099 21.8178 21.7729 21.9851 21.5587L31.7758 9.01847C32.1156 8.58315 32.0382 7.95473 31.6029 7.61486C31.1676 7.27499 30.5392 7.35236 30.1993 7.78768L21.0481 19.5089L11.5331 11.4758C11.1546 11.1562 10.5991 11.162 10.2272 11.4893L2.00148 18.7306V3.36731Z" fill="#111827"/>
</svg>
