<svg width="32" height="32" viewBox="0 0 32 32" fill="none" xmlns="http://www.w3.org/2000/svg">
<path fill-rule="evenodd" clip-rule="evenodd" d="M1.00146 1.3147C1.55375 1.3147 2.00146 1.76241 2.00146 2.3147V19.0195L10.1978 11.2028C10.5783 10.8399 11.1748 10.8337 11.5628 11.1885L21.0424 19.8587L29.0318 8.77292H23.3306C22.7783 8.77292 22.3306 8.32521 22.3306 7.77292C22.3306 7.22064 22.7783 6.77292 23.3306 6.77292H30.9097C31.0212 6.7642 31.1345 6.77405 31.2445 6.8033C31.678 6.91276 31.9989 7.30537 31.9989 7.77292V16.0802C31.9989 16.6325 31.5512 17.0802 30.9989 17.0802C30.4466 17.0802 29.9989 16.6325 29.9989 16.0802V10.8517L22.008 21.9397C21.8411 22.1712 21.5832 22.3205 21.2993 22.3497C21.0154 22.379 20.7324 22.2856 20.5218 22.0929L10.9022 13.2947L2.00146 21.7832V28.6854H30.9986C31.5509 28.6854 31.9986 29.1332 31.9986 29.6854C31.9986 30.2377 31.5509 30.6854 30.9986 30.6854H1.00146C0.44918 30.6854 0.00146484 30.2377 0.00146484 29.6854V21.357V21.3533V2.3147C0.00146484 1.76241 0.44918 1.3147 1.00146 1.3147Z" fill="#111827"/>
</svg>
