<svg width="33" height="33" viewBox="0 0 33 33" fill="none" xmlns="http://www.w3.org/2000/svg">
<path fill-rule="evenodd" clip-rule="evenodd" d="M13.947 4.97034C13.947 4.64479 13.7886 4.33961 13.5223 4.15235C13.256 3.96508 12.9152 3.91917 12.6088 4.02928C7.56393 5.84248 3.95996 10.7147 3.95996 16.4318C3.95996 17.1842 4.02244 17.9225 4.14266 18.6416C4.19668 18.9648 4.40561 19.241 4.70188 19.381C4.99816 19.5209 5.3442 19.5068 5.62812 19.3433L13.4462 14.8397C13.7561 14.6612 13.947 14.3308 13.947 13.9732V4.97034ZM5.95996 16.4318C5.95996 12.0969 8.39578 8.34475 11.947 6.49703V13.3952L5.96717 16.8399C5.96238 16.7045 5.95996 16.5685 5.95996 16.4318ZM17.093 16.1818V4.2837C23.659 4.35515 28.9597 9.70004 28.9597 16.283C28.9597 22.9104 23.5872 28.283 16.9597 28.283C12.5304 28.283 8.66161 25.8832 6.58252 22.3129L17.093 16.1818Z" fill="#1C1B1F"/>
</svg>
