<svg width="33" height="33" viewBox="0 0 33 33" fill="none" xmlns="http://www.w3.org/2000/svg">
<path fill-rule="evenodd" clip-rule="evenodd" d="M17.96 5.3278V14.5508L25.9475 9.93914C24.1364 7.37794 21.2581 5.62501 17.96 5.3278ZM17.4804 17.137C17.4664 17.1456 17.4522 17.1538 17.4377 17.1617L7.97226 22.6266C9.96423 25.4437 13.2473 27.283 16.96 27.283C23.0351 27.283 27.96 22.3581 27.96 16.283C27.96 14.6358 27.5979 13.0731 26.949 11.6703L17.4804 17.137ZM16.96 3.28296C9.78026 3.28296 3.95996 9.10326 3.95996 16.283C3.95996 23.4627 9.78026 29.283 16.96 29.283C24.1397 29.283 29.96 23.4627 29.96 16.283C29.96 9.10326 24.1397 3.28296 16.96 3.28296Z" fill="#1C1B1F"/>
</svg>
