<svg width="32" height="32" viewBox="0 0 32 32" fill="none" xmlns="http://www.w3.org/2000/svg">
<path fill-rule="evenodd" clip-rule="evenodd" d="M4.90041 30.999C4.90041 31.5513 4.45269 31.999 3.90041 31.999C3.34812 31.999 2.90041 31.5513 2.90041 30.999V11.8059L2.90039 11.8003V3.40086L2.90041 3.39527V1.00085C2.90041 0.44857 3.34812 0.000854492 3.90041 0.000854492C4.45269 0.000854492 4.90041 0.44857 4.90041 1.00085V2.40086H21.8993C22.4516 2.40086 22.8993 2.84857 22.8993 3.40086V10.6394H28.0992C28.6515 10.6394 29.0992 11.0872 29.0992 11.6394V20.3906C29.0992 20.9429 28.6515 21.3906 28.0992 21.3906H15.7003V28.5994C15.7003 29.1517 15.2526 29.5994 14.7003 29.5994H4.90041V30.999ZM4.90098 21.3906V27.5994H13.7003V21.3906H4.90098ZM4.90077 10.6394H20.8993V4.40086H4.90041V10.6394H4.90077Z" fill="#111827"/>
</svg>
