<svg width="32" height="32" viewBox="0 0 32 32" fill="none" xmlns="http://www.w3.org/2000/svg">
<path fill-rule="evenodd" clip-rule="evenodd" d="M12.317 1.4441C12.317 1.11854 12.1586 0.813369 11.8923 0.626103C11.626 0.438837 11.2852 0.392923 10.9788 0.503036C4.57656 2.8041 0.000488281 8.98878 0.000488281 16.2484C0.000488281 17.204 0.0798502 18.1416 0.232478 19.0546C0.286503 19.3778 0.495427 19.654 0.791703 19.794C1.08798 19.9339 1.43402 19.9198 1.71794 19.7563L11.8162 13.9392C12.1261 13.7607 12.317 13.4303 12.317 13.0727V1.4441ZM2.00049 16.2484C2.00049 10.3662 5.40536 5.29632 10.317 2.94444V12.4947L2.03461 17.2657C2.01199 16.9297 2.00049 16.5905 2.00049 16.2484ZM16.6725 15.9255V0.557249C25.1535 0.64958 32.0001 7.55332 32.0001 16.0562C32.0001 24.6165 25.0606 31.5561 16.5002 31.5561C10.7791 31.5561 5.78193 28.4564 3.09645 23.8449L16.6725 15.9255Z" fill="#111827"/>
</svg>
