<svg width="32" height="32" viewBox="0 0 32 32" fill="none" xmlns="http://www.w3.org/2000/svg">
<path fill-rule="evenodd" clip-rule="evenodd" d="M20.0346 2.90076C19.4823 2.90076 19.0346 3.34847 19.0346 3.90076V9.10033H11.8004C11.2481 9.10033 10.8004 9.54805 10.8004 10.1003V16.2999H3.40063C2.84835 16.2999 2.40063 16.7476 2.40063 17.2999V27.0993H1.00098C0.448692 27.0993 0.000976562 27.5471 0.000976562 28.0993C0.000976562 28.6516 0.448692 29.0993 1.00098 29.0993H30.9991C31.5514 29.0993 31.9991 28.6516 31.9991 28.0993C31.9991 27.5471 31.5514 27.0993 30.9991 27.0993H28.5988V27.0992V3.90076C28.5988 3.34847 28.1511 2.90076 27.5988 2.90076H20.0346ZM12.8004 11.1003H19.0346V27.0992V27.0992H12.8004V11.1003ZM4.40063 27.0993V18.2999H10.8001V27.0993H4.40063Z" fill="#111827"/>
</svg>
