<svg width="33" height="33" viewBox="0 0 33 33" fill="none" xmlns="http://www.w3.org/2000/svg">
<path fill-rule="evenodd" clip-rule="evenodd" d="M8.37998 28.283C8.37998 28.8352 7.93226 29.283 7.37998 29.283C6.8277 29.283 6.37998 28.8352 6.37998 28.283V12.9371L6.37988 12.923V6.203L6.37998 6.18891V4.28296C6.37998 3.73067 6.8277 3.28296 7.37998 3.28296C7.93226 3.28296 8.37998 3.73067 8.37998 4.28296V5.203H21.7799C22.3322 5.203 22.7799 5.65072 22.7799 6.203V11.9942H26.5401C27.0924 11.9942 27.5401 12.442 27.5401 12.9942V19.5957C27.5401 20.148 27.0924 20.5957 26.5401 20.5957H17.0201V26.363C17.0201 26.9153 16.5724 27.363 16.0201 27.363H8.37998V28.283ZM8.37998 7.203V11.923H20.7799V7.203H8.37998ZM8.38012 25.363H15.0201V20.6431H8.38012V25.363Z" fill="#1C1B1F"/>
</svg>
