<svg width="33" height="33" viewBox="0 0 33 33" fill="none" xmlns="http://www.w3.org/2000/svg">
<path fill-rule="evenodd" clip-rule="evenodd" d="M5.8833 5.1759C6.43559 5.1759 6.8833 5.62362 6.8833 6.1759V17.9023L12.4946 12.5509C12.8751 12.188 13.4717 12.1817 13.8597 12.5366L20.6439 18.7415L26.0738 11.207H22.3738C21.8216 11.207 21.3738 10.7593 21.3738 10.207C21.3738 9.65475 21.8216 9.20703 22.3738 9.20703H27.9615C28.0728 9.19947 28.1856 9.2104 28.2951 9.24062C28.7223 9.35438 29.0371 9.74395 29.0371 10.207V16.3422C29.0371 16.8945 28.5894 17.3422 28.0371 17.3422C27.4848 17.3422 27.0371 16.8945 27.0371 16.3422V13.2912L21.6094 20.8225C21.4425 21.054 21.1846 21.2033 20.9007 21.2325C20.6168 21.2618 20.3339 21.1684 20.1232 20.9757L13.199 14.6428L6.8833 20.666V25.3901H28.0371C28.5894 25.3901 29.0371 25.8378 29.0371 26.3901C29.0371 26.9424 28.5894 27.3901 28.0371 27.3901H5.8833C5.33102 27.3901 4.8833 26.9424 4.8833 26.3901V20.2398V20.2361V6.1759C4.8833 5.62362 5.33102 5.1759 5.8833 5.1759Z" fill="#1C1B1F"/>
</svg>
