<svg width="32" height="32" viewBox="0 0 32 32" fill="none" xmlns="http://www.w3.org/2000/svg">
<path fill-rule="evenodd" clip-rule="evenodd" d="M17 2.03602V14.2677L27.5938 8.15141C25.2517 4.69848 21.4075 2.34709 17 2.03602ZM16.5215 16.8534C16.5069 16.8624 16.492 16.871 16.4768 16.8792L4.40616 23.8482C6.92373 27.56 11.1771 29.999 16.0001 29.999C23.7315 29.999 29.9991 23.7314 29.9991 15.9999C29.9991 13.8064 29.4946 11.7307 28.5953 9.88255L16.5215 16.8534ZM16.0001 0.000854492C7.16401 0.000854492 0.000976562 7.16389 0.000976562 15.9999C0.000976562 24.836 7.16401 31.999 16.0001 31.999C24.8361 31.999 31.9991 24.836 31.9991 15.9999C31.9991 7.16389 24.8361 0.000854492 16.0001 0.000854492Z" fill="#111827"/>
</svg>
