<svg width="33" height="33" viewBox="0 0 33 33" fill="none" xmlns="http://www.w3.org/2000/svg">
<path fill-rule="evenodd" clip-rule="evenodd" d="M20.3879 5.70288C19.8356 5.70288 19.3879 6.1506 19.3879 6.70288V10.4629H13.6001C13.0478 10.4629 12.6001 10.9106 12.6001 11.4629V16.2229H6.87988C6.3276 16.2229 5.87988 16.6706 5.87988 17.2229V24.8629H4.95996C4.40768 24.8629 3.95996 25.3106 3.95996 25.8629C3.95996 26.4152 4.40768 26.8629 4.95996 26.8629H28.96C29.5122 26.8629 29.96 26.4152 29.96 25.8629C29.96 25.3106 29.5122 24.8629 28.96 24.8629H27.0398V24.8629V6.70288C27.0398 6.1506 26.5921 5.70288 26.0398 5.70288H20.3879ZM14.6001 12.4629V24.8629H19.3201V12.4629H14.6001ZM7.87988 24.8629V18.2229H12.5999V24.8629H7.87988Z" fill="#1C1B1F"/>
</svg>
