<svg width="33" height="33" viewBox="0 0 33 33" fill="none" xmlns="http://www.w3.org/2000/svg">
<path fill-rule="evenodd" clip-rule="evenodd" d="M28.96 16.2829C28.96 22.9103 23.5874 28.2829 16.96 28.2829C14.8868 28.2829 12.9365 27.7572 11.235 26.8318C11.1218 26.7702 10.9897 26.7521 10.8649 26.7838L5.75781 28.0803C5.39427 28.1726 5.06232 27.8467 5.148 27.4815L6.38219 22.2215C6.41034 22.1015 6.3928 21.9755 6.33538 21.8665C5.45706 20.1987 4.95996 18.2988 4.95996 16.2829C4.95996 9.65548 10.3325 4.2829 16.96 4.2829C23.5874 4.2829 28.96 9.65548 28.96 16.2829ZM11.96 14.2829C11.96 13.7306 12.4077 13.2829 12.96 13.2829H20.96C21.5122 13.2829 21.96 13.7306 21.96 14.2829C21.96 14.8352 21.5122 15.2829 20.96 15.2829H12.96C12.4077 15.2829 11.96 14.8352 11.96 14.2829ZM11.96 18.2829C11.96 17.7306 12.4077 17.2829 12.96 17.2829H20.96C21.5122 17.2829 21.96 17.7306 21.96 18.2829C21.96 18.8352 21.5122 19.2829 20.96 19.2829H12.96C12.4077 19.2829 11.96 18.8352 11.96 18.2829Z" fill="#1C1B1F"/>
</svg>
