<svg width="34" height="34" viewBox="0 0 34 34" fill="none" xmlns="http://www.w3.org/2000/svg">
<path fill-rule="evenodd" clip-rule="evenodd" d="M1 0.913879H24C24.2761 0.913879 24.5 1.13774 24.5 1.41388V8.08237H32.5C33.0523 8.08237 33.5 8.53008 33.5 9.08237V25.6064V32.0861C33.5 32.4717 33.2782 32.823 32.9301 32.9889C32.5819 33.1547 32.1694 33.1056 31.8699 32.8626L25.8414 27.9708H8.5C7.94771 27.9708 7.5 27.5231 7.5 26.9708V18.8023H6.98126C6.86654 18.8023 6.7553 18.8418 6.66622 18.9141L1.31505 23.2562C0.988236 23.5214 0.5 23.2888 0.5 22.868V17.4379V1.41388C0.5 1.13774 0.723858 0.913879 1 0.913879ZM9.5 18.8023V25.9708H26.1961C26.4255 25.9708 26.648 26.0497 26.8262 26.1943L31.5 29.9868V25.6064V10.0824H24.5V18.3023C24.5 18.5785 24.2761 18.8023 24 18.8023H9.5Z" fill="#111827"/>
</svg>
