<svg width="32" height="32" viewBox="0 0 32 32" fill="none" xmlns="http://www.w3.org/2000/svg">
<path fill-rule="evenodd" clip-rule="evenodd" d="M11.2026 22.6472C12.6285 26.2602 16.1549 28.8154 20.2774 28.8154H30.0004V18.3482C29.8635 16.5025 29.2116 14.8007 28.1867 13.3839C26.5778 11.16 24.0545 9.64366 21.1704 9.38247C21.3679 10.1964 21.4726 11.0465 21.4726 11.9211C21.4726 17.6901 16.9169 22.3964 11.2026 22.6472ZM20.5661 7.59901C18.9009 3.82175 15.1201 1.18457 10.7226 1.18457C7.13372 1.18457 3.95562 2.941 2.00305 5.64011C0.865879 7.21205 0.144386 9.10373 -0.000488281 11.1544V22.1577C-0.000488281 22.4338 0.223369 22.6577 0.499512 22.6577H9.2354C9.19734 22.838 9.20865 23.031 9.27852 23.2162C10.9531 27.6557 15.245 30.8154 20.2774 30.8154H31.0004C31.5527 30.8154 32.0004 30.3676 32.0004 29.8154V18.3121C32.0004 18.2886 31.9996 18.2651 31.9979 18.2416C31.8395 15.9992 31.0501 13.9299 29.8071 12.2117C27.8572 9.51621 24.7862 7.67884 21.2738 7.3839C21.0085 7.36163 20.7588 7.44502 20.5661 7.59901Z" fill="#111827"/>
</svg>
