<svg width="32" height="32" viewBox="0 0 32 32" fill="none" xmlns="http://www.w3.org/2000/svg">
<path fill-rule="evenodd" clip-rule="evenodd" d="M32 16C32 24.8366 24.8276 32 15.9799 32H1C0.447715 32 0 31.5523 0 31V14.8574C0.215897 11.8014 1.29109 8.98237 2.98574 6.63981C5.89554 2.61749 10.6317 0 15.9799 0C24.8276 0 32 7.16344 32 16ZM11.1117 11.1116C11.5023 10.7211 12.1354 10.7211 12.526 11.1116L16.0001 14.5858L19.4743 11.1116C19.8648 10.7211 20.4979 10.7211 20.8885 11.1116C21.279 11.5021 21.279 12.1353 20.8885 12.5258L17.4143 16L20.8885 19.4741C21.279 19.8647 21.279 20.4978 20.8885 20.8883C20.4979 21.2789 19.8648 21.2789 19.4743 20.8883L16.0001 17.4142L12.526 20.8883C12.1354 21.2789 11.5023 21.2789 11.1117 20.8883C10.7212 20.4978 10.7212 19.8647 11.1117 19.4741L14.5859 16L11.1117 12.5258C10.7212 12.1353 10.7212 11.5021 11.1117 11.1116Z" fill="#1C1B1F"/>
</svg>
