<svg width="32" height="32" viewBox="0 0 32 32" fill="none" xmlns="http://www.w3.org/2000/svg">
<path fill-rule="evenodd" clip-rule="evenodd" d="M32 16C32 24.8366 24.8366 32 16 32C13.2835 32 10.7252 31.323 8.48445 30.1286C8.2571 30.0074 7.99325 29.9708 7.74354 30.0341L1.59569 31.5949C0.868617 31.7795 0.204714 31.1275 0.376069 30.3972L1.86716 24.0423C1.92346 23.8023 1.888 23.5507 1.7749 23.3317C0.64057 21.1353 0 18.6424 0 16C0 7.16344 7.16344 0 16 0C24.8366 0 32 7.16344 32 16ZM11.1117 11.1116C11.5023 10.7211 12.1354 10.7211 12.526 11.1116L16.0001 14.5858L19.4743 11.1116C19.8648 10.7211 20.4979 10.7211 20.8885 11.1116C21.279 11.5021 21.279 12.1353 20.8885 12.5258L17.4143 16L20.8885 19.4741C21.279 19.8647 21.279 20.4978 20.8885 20.8883C20.4979 21.2789 19.8648 21.2789 19.4743 20.8883L16.0001 17.4142L12.526 20.8883C12.1354 21.2789 11.5023 21.2789 11.1117 20.8883C10.7212 20.4978 10.7212 19.8647 11.1117 19.4741L14.5859 16L11.1117 12.5258C10.7212 12.1353 10.7212 11.5021 11.1117 11.1116Z" fill="#111827"/>
</svg>
