<svg width="32" height="32" viewBox="0 0 32 32" fill="none" xmlns="http://www.w3.org/2000/svg">
<path fill-rule="evenodd" clip-rule="evenodd" d="M1 1.21286H31C31.5523 1.21286 32 1.66058 32 2.21286V24.0641C32 24.6164 31.5523 25.0641 31 25.0641H8.75991C8.53046 25.0641 8.30799 25.143 8.12982 25.2876L1.6301 30.5617C0.976473 31.0921 0 30.627 0 29.7852V23.2449V2.21286C0 1.66057 0.447715 1.21286 1 1.21286ZM10 13.2128C10 14.3173 9.10457 15.2128 8 15.2128C6.89543 15.2128 6 14.3173 6 13.2128C6 12.1082 6.89543 11.2128 8 11.2128C9.10457 11.2128 10 12.1082 10 13.2128ZM18 13.2128C18 14.3174 17.1046 15.2128 16 15.2128C14.8954 15.2128 14 14.3174 14 13.2128C14 12.1082 14.8954 11.2128 16 11.2128C17.1046 11.2128 18 12.1082 18 13.2128ZM24 15.2128C25.1046 15.2128 26 14.3174 26 13.2128C26 12.1082 25.1046 11.2128 24 11.2128C22.8954 11.2128 22 12.1082 22 13.2128C22 14.3174 22.8954 15.2128 24 15.2128Z" fill="#111827"/>
</svg>
