<svg width="32" height="32" viewBox="0 0 32 32" fill="none" xmlns="http://www.w3.org/2000/svg">
<path fill-rule="evenodd" clip-rule="evenodd" d="M1 0.409393H31C31.5523 0.409393 32 0.857109 32 1.40939V23.3227C32 23.8749 31.5523 24.3227 31 24.3227H21.8906C21.5554 24.3227 21.2425 24.4906 21.0573 24.7699L16.8292 31.1434C16.432 31.7422 15.5516 31.7391 15.1586 31.1374L11.0038 24.7758C10.8192 24.4931 10.5043 24.3227 10.1666 24.3227H1C0.447716 24.3227 0 23.8749 0 23.3227V1.40939C0 0.857109 0.447715 0.409393 1 0.409393ZM10 12.4094C10 13.514 9.10457 14.4094 8 14.4094C6.89543 14.4094 6 13.514 6 12.4094C6 11.3048 6.89543 10.4094 8 10.4094C9.10457 10.4094 10 11.3048 10 12.4094ZM18 12.4094C18 13.514 17.1046 14.4094 16 14.4094C14.8954 14.4094 14 13.514 14 12.4094C14 11.3048 14.8954 10.4094 16 10.4094C17.1046 10.4094 18 11.3048 18 12.4094ZM24 14.4094C25.1046 14.4094 26 13.514 26 12.4094C26 11.3048 25.1046 10.4094 24 10.4094C22.8954 10.4094 22 11.3048 22 12.4094C22 13.514 22.8954 14.4094 24 14.4094Z" fill="#111827"/>
</svg>
