<svg width="33" height="33" viewBox="0 0 33 33" fill="none" xmlns="http://www.w3.org/2000/svg">
<path fill-rule="evenodd" clip-rule="evenodd" d="M5.95996 4.2829H27.96C28.5122 4.2829 28.96 4.73061 28.96 5.2829V21.2178C28.96 21.7701 28.5122 22.2178 27.96 22.2178H21.5121C21.1769 22.2178 20.864 22.3858 20.6787 22.665L17.7918 27.0169C17.3946 27.6157 16.5142 27.6126 16.1213 27.0109L13.2868 22.671C13.1022 22.3883 12.7873 22.2178 12.4496 22.2178H5.95996C5.40768 22.2178 4.95996 21.7701 4.95996 21.2178V5.2829C4.95996 4.73061 5.40768 4.2829 5.95996 4.2829ZM12.46 13.2829C12.46 14.1113 11.7884 14.7829 10.96 14.7829C10.1315 14.7829 9.45996 14.1113 9.45996 13.2829C9.45996 12.4545 10.1315 11.7829 10.96 11.7829C11.7884 11.7829 12.46 12.4545 12.46 13.2829ZM18.46 13.2829C18.46 14.1113 17.7884 14.7829 16.96 14.7829C16.1315 14.7829 15.46 14.1113 15.46 13.2829C15.46 12.4545 16.1315 11.7829 16.96 11.7829C17.7884 11.7829 18.46 12.4545 18.46 13.2829ZM22.96 14.7829C23.7884 14.7829 24.46 14.1113 24.46 13.2829C24.46 12.4545 23.7884 11.7829 22.96 11.7829C22.1315 11.7829 21.46 12.4545 21.46 13.2829C21.46 14.1113 22.1315 14.7829 22.96 14.7829Z" fill="#1C1B1F"/>
</svg>
