<svg width="32" height="32" viewBox="0 0 32 32" fill="none" xmlns="http://www.w3.org/2000/svg">
<path fill-rule="evenodd" clip-rule="evenodd" d="M32 16C32 24.8366 24.8276 32 15.9799 32H1C0.447715 32 0 31.5523 0 31V14.8574C0.215897 11.8014 1.29109 8.98237 2.98574 6.63981C5.89554 2.61749 10.6317 0 15.9799 0C24.8276 0 32 7.16344 32 16ZM9.6665 13.332C9.6665 12.7797 10.1142 12.332 10.6665 12.332H20.6665C21.2188 12.332 21.6665 12.7797 21.6665 13.332C21.6665 13.8843 21.2188 14.332 20.6665 14.332H10.6665C10.1142 14.332 9.6665 13.8843 9.6665 13.332ZM9.6665 18.6653C9.6665 18.1131 10.1142 17.6653 10.6665 17.6653H20.6665C21.2188 17.6653 21.6665 18.1131 21.6665 18.6653C21.6665 19.2176 21.2188 19.6653 20.6665 19.6653H10.6665C10.1142 19.6653 9.6665 19.2176 9.6665 18.6653Z" fill="#111827"/>
</svg>
