<svg width="33" height="33" viewBox="0 0 33 33" fill="none" xmlns="http://www.w3.org/2000/svg">
<path fill-rule="evenodd" clip-rule="evenodd" d="M5.95996 4.78107H27.96C28.5122 4.78107 28.96 5.22878 28.96 5.78107V21.6695C28.96 22.2218 28.5122 22.6695 27.96 22.6695H11.6186C11.3891 22.6695 11.1666 22.7484 10.9885 22.893L6.59006 26.462C5.93643 26.9924 4.95996 26.5273 4.95996 25.6855V21.3051V5.78107C4.95996 5.22878 5.40768 4.78107 5.95996 4.78107ZM11.96 12.3564C11.96 11.8041 12.4077 11.3564 12.96 11.3564H20.96C21.5122 11.3564 21.96 11.8041 21.96 12.3564C21.96 12.9087 21.5122 13.3564 20.96 13.3564H12.96C12.4077 13.3564 11.96 12.9087 11.96 12.3564ZM11.96 16.3564C11.96 15.8041 12.4077 15.3564 12.96 15.3564H20.96C21.5122 15.3564 21.96 15.8041 21.96 16.3564C21.96 16.9087 21.5122 17.3564 20.96 17.3564H12.96C12.4077 17.3564 11.96 16.9087 11.96 16.3564Z" fill="#1C1B1F"/>
</svg>
