<svg width="32" height="32" viewBox="0 0 32 32" fill="none" xmlns="http://www.w3.org/2000/svg">
<path fill-rule="evenodd" clip-rule="evenodd" d="M32 16C32 24.8366 24.8366 32 16 32C13.2119 32 10.5904 31.2869 8.30793 30.0331C8.19503 29.9711 8.06294 29.9531 7.93809 29.9848L0.797847 31.7975C0.434308 31.8897 0.102357 31.5638 0.188035 31.1986L1.91088 23.856C1.93903 23.736 1.92159 23.61 1.86374 23.5012C0.674072 21.2639 0 18.7107 0 16C0 7.16344 7.16344 0 16 0C24.8366 0 32 7.16344 32 16ZM10 16C10 17.1046 9.10457 18 8 18C6.89543 18 6 17.1046 6 16C6 14.8954 6.89543 14 8 14C9.10457 14 10 14.8954 10 16ZM18 16C18 17.1046 17.1046 18 16 18C14.8954 18 14 17.1046 14 16C14 14.8954 14.8954 14 16 14C17.1046 14 18 14.8954 18 16ZM24 18C25.1046 18 26 17.1046 26 16C26 14.8954 25.1046 14 24 14C22.8954 14 22 14.8954 22 16C22 17.1046 22.8954 18 24 18Z" fill="#111827"/>
</svg>
