<svg width="32" height="32" viewBox="0 0 32 32" fill="none" xmlns="http://www.w3.org/2000/svg">
<path fill-rule="evenodd" clip-rule="evenodd" d="M1 0.409393H31C31.5523 0.409393 32 0.857109 32 1.40939V23.3227C32 23.8749 31.5523 24.3227 31 24.3227H21.8906C21.5554 24.3227 21.2425 24.4906 21.0573 24.7699L16.8292 31.1434C16.432 31.7422 15.5516 31.7391 15.1586 31.1374L11.0038 24.7758C10.8192 24.4931 10.5043 24.3227 10.1666 24.3227H1C0.447716 24.3227 0 23.8749 0 23.3227V1.40939C0 0.857109 0.447715 0.409393 1 0.409393ZM9.6665 9.74265C9.6665 9.19037 10.1142 8.74265 10.6665 8.74265H21.3332C21.8855 8.74265 22.3332 9.19037 22.3332 9.74265C22.3332 10.2949 21.8855 10.7427 21.3332 10.7427H10.6665C10.1142 10.7427 9.6665 10.2949 9.6665 9.74265ZM9.6665 15.076C9.6665 14.5237 10.1142 14.076 10.6665 14.076H21.3332C21.8855 14.076 22.3332 14.5237 22.3332 15.076C22.3332 15.6283 21.8855 16.076 21.3332 16.076H10.6665C10.1142 16.076 9.6665 15.6283 9.6665 15.076Z" fill="#111827"/>
</svg>
