<svg width="33" height="33" viewBox="0 0 33 33" fill="none" xmlns="http://www.w3.org/2000/svg">
<path fill-rule="evenodd" clip-rule="evenodd" d="M5.95996 4.2829H27.96C28.5122 4.2829 28.96 4.73061 28.96 5.2829V21.2178C28.96 21.7701 28.5122 22.2178 27.96 22.2178H21.5121C21.1769 22.2178 20.864 22.3858 20.6787 22.665L17.7918 27.0169C17.3946 27.6157 16.5142 27.6126 16.1213 27.0109L13.2868 22.671C13.1022 22.3883 12.7873 22.2178 12.4496 22.2178H5.95996C5.40768 22.2178 4.95996 21.7701 4.95996 21.2178V5.2829C4.95996 4.73061 5.40768 4.2829 5.95996 4.2829ZM11.96 11.2828C11.96 10.7306 12.4077 10.2828 12.96 10.2828H20.96C21.5122 10.2828 21.96 10.7306 21.96 11.2828C21.96 11.8351 21.5122 12.2828 20.96 12.2828H12.96C12.4077 12.2828 11.96 11.8351 11.96 11.2828ZM11.96 15.2828C11.96 14.7306 12.4077 14.2828 12.96 14.2828H20.96C21.5122 14.2828 21.96 14.7306 21.96 15.2828C21.96 15.8351 21.5122 16.2828 20.96 16.2828H12.96C12.4077 16.2828 11.96 15.8351 11.96 15.2828Z" fill="#1C1B1F"/>
</svg>
