<svg width="33" height="32" viewBox="0 0 33 32" fill="none" xmlns="http://www.w3.org/2000/svg">
<path d="M11.0723 23.3765C17.1874 23.3765 22.1446 18.4193 22.1446 12.3042C22.1446 6.18912 17.1874 1.23187 11.0723 1.23187C4.95725 1.23187 0 6.18912 0 12.3042C0 14.159 0.456077 15.9073 1.2622 17.443C1.31948 17.5522 1.33705 17.6781 1.3089 17.7981L0.188035 22.5751C0.102357 22.9403 0.434308 23.2663 0.797847 23.174L5.4334 21.9971C5.55825 21.9654 5.69027 21.9836 5.80352 22.045C7.37029 22.8942 9.16498 23.3765 11.0723 23.3765Z" fill="#111827"/>
<path d="M10.4984 23.4233C12.0287 27.7046 16.1204 30.7682 20.9277 30.7682C22.835 30.7682 24.6297 30.2859 26.1965 29.4367C26.3097 29.3753 26.4417 29.3571 26.5666 29.3888L31.2022 30.5656C31.5657 30.6579 31.8976 30.332 31.812 29.9668L30.6911 25.1897C30.6629 25.0698 30.6805 24.9438 30.7378 24.8347C31.5439 23.299 32 21.5507 32 19.6959C32 13.9157 27.5709 9.17002 21.9213 8.66754" stroke="#111827" stroke-width="2" stroke-linecap="round"/>
</svg>
