<svg width="32" height="32" viewBox="0 0 32 32" fill="none" xmlns="http://www.w3.org/2000/svg">
<path fill-rule="evenodd" clip-rule="evenodd" d="M32 16C32 24.8366 24.8366 32 16 32C13.2119 32 10.5904 31.2869 8.30793 30.0331C8.19503 29.9711 8.06294 29.9531 7.93809 29.9848L0.797847 31.7975C0.434308 31.8897 0.102357 31.5638 0.188035 31.1986L1.91088 23.856C1.93903 23.736 1.92159 23.61 1.86374 23.5012C0.674072 21.2639 0 18.7107 0 16C0 7.16344 7.16344 0 16 0C24.8366 0 32 7.16344 32 16ZM9.6665 13.3333C9.6665 12.781 10.1142 12.3333 10.6665 12.3333H21.3332C21.8855 12.3333 22.3332 12.781 22.3332 13.3333C22.3332 13.8856 21.8855 14.3333 21.3332 14.3333H10.6665C10.1142 14.3333 9.6665 13.8856 9.6665 13.3333ZM9.6665 18.6667C9.6665 18.1144 10.1142 17.6667 10.6665 17.6667H21.3332C21.8855 17.6667 22.3332 18.1144 22.3332 18.6667C22.3332 19.219 21.8855 19.6667 21.3332 19.6667H10.6665C10.1142 19.6667 9.6665 19.219 9.6665 18.6667Z" fill="#111827"/>
</svg>
