<svg width="33" height="33" viewBox="0 0 33 33" fill="none" xmlns="http://www.w3.org/2000/svg">
<path d="M13.2642 21.8153C17.8505 21.8153 21.5684 18.0973 21.5684 13.511C21.5684 8.92472 17.8505 5.20679 13.2642 5.20679C8.6779 5.20679 4.95996 8.92472 4.95996 13.511C4.95996 14.8851 5.29368 16.1812 5.8845 17.3227C5.94115 17.4322 5.95886 17.558 5.93071 17.678L5.148 21.0139C5.06232 21.379 5.39427 21.705 5.75781 21.6127L8.98637 20.7931C9.11123 20.7614 9.24316 20.7797 9.35678 20.8404C10.5214 21.4626 11.8516 21.8153 13.2642 21.8153Z" fill="#1C1B1F"/>
<path d="M12.8338 21.8504C13.9815 25.0613 17.0503 27.359 20.6557 27.359C22.0683 27.359 23.3986 27.0063 24.5631 26.3842C24.6768 26.3235 24.8087 26.3051 24.9336 26.3368L28.1621 27.1565C28.5257 27.2488 28.8576 26.9228 28.7719 26.5576L27.9892 23.2218C27.9611 23.1018 27.9788 22.976 28.0354 22.8665C28.6262 21.725 28.96 20.4289 28.96 19.0548C28.96 14.7197 25.6381 11.1604 21.401 10.7835" stroke="#1C1B1F" stroke-width="2" stroke-linecap="round"/>
</svg>
