<svg width="32" height="32" viewBox="0 0 32 32" fill="none" xmlns="http://www.w3.org/2000/svg">
<path fill-rule="evenodd" clip-rule="evenodd" d="M32.0001 4.93963C32.0001 7.01882 30.3145 8.70434 28.2354 8.70434C26.1562 8.70434 24.4707 7.01882 24.4707 4.93963C24.4707 2.86044 26.1562 1.17493 28.2354 1.17493C30.3145 1.17493 32.0001 2.86044 32.0001 4.93963ZM28.2353 9.88034C28.9027 9.88034 29.5392 9.748 30.12 9.50813V24.6294C30.12 25.1817 29.6723 25.6294 29.12 25.6294H8.26611C8.03665 25.6294 7.81418 25.7083 7.63601 25.8529L1.6301 30.7263C0.976473 31.2567 0 30.7915 0 29.9498V23.917V4.17939C0 3.62711 0.447715 3.17939 1 3.17939H23.6174C23.4088 3.7262 23.2946 4.31959 23.2946 4.93966C23.2946 7.66832 25.5066 9.88034 28.2353 9.88034Z" fill="#111827"/>
</svg>
