<svg width="32" height="32" viewBox="0 0 32 32" fill="none" xmlns="http://www.w3.org/2000/svg">
<path fill-rule="evenodd" clip-rule="evenodd" d="M1 0.664185H31C31.5523 0.664185 32 1.1119 32 1.66418V23.5155C32 24.0678 31.5523 24.5155 31 24.5155H8.75991C8.53046 24.5155 8.30799 24.5944 8.12982 24.739L1.6301 30.0131C0.976473 30.5434 0 30.0783 0 29.2365V22.6962V1.66418C0 1.1119 0.447715 0.664185 1 0.664185ZM12.1171 8.41246C12.5076 8.02194 13.1408 8.02194 13.5313 8.41246L16.4998 11.3809L19.4683 8.41246C19.8588 8.02194 20.492 8.02194 20.8825 8.41246C21.273 8.80299 21.273 9.43615 20.8825 9.82667L17.914 12.7952L20.8825 15.7636C21.273 16.1542 21.273 16.7873 20.8825 17.1779C20.492 17.5684 19.8588 17.5684 19.4683 17.1779L16.4998 14.2094L13.5313 17.1779C13.1408 17.5684 12.5076 17.5684 12.1171 17.1779C11.7266 16.7873 11.7266 16.1542 12.1171 15.7636L15.0856 12.7952L12.1171 9.82667C11.7266 9.43615 11.7266 8.80299 12.1171 8.41246Z" fill="#111827"/>
</svg>
