<svg width="33" height="33" viewBox="0 0 33 33" fill="none" xmlns="http://www.w3.org/2000/svg">
<path fill-rule="evenodd" clip-rule="evenodd" d="M28.96 16.2829C28.96 22.9103 23.5806 28.2829 16.9449 28.2829H5.95996C5.40768 28.2829 4.95996 27.8352 4.95996 27.2829V15.426C5.12188 13.134 5.92828 11.0197 7.19926 9.26275C9.38161 6.24602 12.9337 4.2829 16.9449 4.2829C23.5806 4.2829 28.96 9.65548 28.96 16.2829ZM11.96 14.2819C11.96 13.7296 12.4077 13.2819 12.96 13.2819H20.46C21.0122 13.2819 21.46 13.7296 21.46 14.2819C21.46 14.8342 21.0122 15.2819 20.46 15.2819H12.96C12.4077 15.2819 11.96 14.8342 11.96 14.2819ZM11.96 18.2819C11.96 17.7296 12.4077 17.2819 12.96 17.2819H20.46C21.0122 17.2819 21.46 17.7296 21.46 18.2819C21.46 18.8342 21.0122 19.2819 20.46 19.2819H12.96C12.4077 19.2819 11.96 18.8342 11.96 18.2819Z" fill="#1C1B1F"/>
</svg>
