<svg width="33" height="33" viewBox="0 0 33 33" fill="none" xmlns="http://www.w3.org/2000/svg">
<path fill-rule="evenodd" clip-rule="evenodd" d="M5.95996 4.78107H27.96C28.5122 4.78107 28.96 5.22878 28.96 5.78107V21.6695C28.96 22.2218 28.5122 22.6695 27.96 22.6695H11.6186C11.3891 22.6695 11.1666 22.7484 10.9885 22.893L6.59006 26.462C5.93643 26.9924 4.95996 26.5273 4.95996 25.6855V21.3051V5.78107C4.95996 5.22878 5.40768 4.78107 5.95996 4.78107ZM12.46 13.781C12.46 14.6094 11.7884 15.281 10.96 15.281C10.1315 15.281 9.45996 14.6094 9.45996 13.781C9.45996 12.9526 10.1315 12.281 10.96 12.281C11.7884 12.281 12.46 12.9526 12.46 13.781ZM18.46 13.781C18.46 14.6094 17.7884 15.281 16.96 15.281C16.1315 15.281 15.46 14.6094 15.46 13.781C15.46 12.9526 16.1315 12.281 16.96 12.281C17.7884 12.281 18.46 12.9526 18.46 13.781ZM22.96 15.281C23.7884 15.281 24.46 14.6094 24.46 13.781C24.46 12.9526 23.7884 12.281 22.96 12.281C22.1315 12.281 21.46 12.9526 21.46 13.781C21.46 14.6094 22.1315 15.281 22.96 15.281Z" fill="#1C1B1F"/>
</svg>
