<svg width="33" height="33" viewBox="0 0 33 33" fill="none" xmlns="http://www.w3.org/2000/svg">
<path fill-rule="evenodd" clip-rule="evenodd" d="M28.96 16.2829C28.96 22.9103 23.5874 28.2829 16.96 28.2829C14.8868 28.2829 12.9365 27.7572 11.235 26.8318C11.1218 26.7702 10.9897 26.7521 10.8649 26.7838L5.75781 28.0803C5.39427 28.1726 5.06232 27.8467 5.148 27.4815L6.38219 22.2215C6.41034 22.1015 6.3928 21.9755 6.33538 21.8665C5.45706 20.1987 4.95996 18.2988 4.95996 16.2829C4.95996 9.65548 10.3325 4.2829 16.96 4.2829C23.5874 4.2829 28.96 9.65548 28.96 16.2829ZM12.46 16.2829C12.46 17.1113 11.7884 17.7829 10.96 17.7829C10.1315 17.7829 9.45996 17.1113 9.45996 16.2829C9.45996 15.4545 10.1315 14.7829 10.96 14.7829C11.7884 14.7829 12.46 15.4545 12.46 16.2829ZM18.46 16.2829C18.46 17.1113 17.7884 17.7829 16.96 17.7829C16.1315 17.7829 15.46 17.1113 15.46 16.2829C15.46 15.4545 16.1315 14.7829 16.96 14.7829C17.7884 14.7829 18.46 15.4545 18.46 16.2829ZM22.96 17.7829C23.7884 17.7829 24.46 17.1113 24.46 16.2829C24.46 15.4545 23.7884 14.7829 22.96 14.7829C22.1315 14.7829 21.46 15.4545 21.46 16.2829C21.46 17.1113 22.1315 17.7829 22.96 17.7829Z" fill="#1C1B1F"/>
</svg>
