<svg width="33" height="33" viewBox="0 0 33 33" fill="none" xmlns="http://www.w3.org/2000/svg">
<path fill-rule="evenodd" clip-rule="evenodd" d="M28.96 16.2829C28.96 22.9103 23.5806 28.2829 16.9449 28.2829H5.95996C5.40768 28.2829 4.95996 27.8352 4.95996 27.2829V15.426C5.12188 13.134 5.92828 11.0197 7.19926 9.26275C9.38161 6.24602 12.9337 4.2829 16.9449 4.2829C23.5806 4.2829 28.96 9.65548 28.96 16.2829ZM12.46 16.2829C12.46 17.1113 11.7884 17.7829 10.96 17.7829C10.1315 17.7829 9.45996 17.1113 9.45996 16.2829C9.45996 15.4545 10.1315 14.7829 10.96 14.7829C11.7884 14.7829 12.46 15.4545 12.46 16.2829ZM18.46 16.2829C18.46 17.1113 17.7884 17.7829 16.96 17.7829C16.1315 17.7829 15.46 17.1113 15.46 16.2829C15.46 15.4545 16.1315 14.7829 16.96 14.7829C17.7884 14.7829 18.46 15.4545 18.46 16.2829ZM22.96 17.7829C23.7884 17.7829 24.46 17.1113 24.46 16.2829C24.46 15.4545 23.7884 14.7829 22.96 14.7829C22.1315 14.7829 21.46 15.4545 21.46 16.2829C21.46 17.1113 22.1315 17.7829 22.96 17.7829Z" fill="#1C1B1F"/>
</svg>
