<svg width="32" height="32" viewBox="0 0 32 32" fill="none" xmlns="http://www.w3.org/2000/svg">
<path fill-rule="evenodd" clip-rule="evenodd" d="M1 1.21283H31C31.5523 1.21283 32 1.66054 32 2.21283V24.0641C32 24.6164 31.5523 25.0641 31 25.0641H8.75991C8.53046 25.0641 8.30799 25.143 8.12982 25.2876L1.6301 30.5617C0.976473 31.0921 0 30.6269 0 29.7852V23.2448V2.21283C0 1.66054 0.447715 1.21283 1 1.21283ZM9.6665 11.3133C9.6665 10.761 10.1142 10.3133 10.6665 10.3133H21.3332C21.8855 10.3133 22.3332 10.761 22.3332 11.3133C22.3332 11.8655 21.8855 12.3133 21.3332 12.3133H10.6665C10.1142 12.3133 9.6665 11.8655 9.6665 11.3133ZM9.6665 16.6466C9.6665 16.0943 10.1142 15.6466 10.6665 15.6466H21.3332C21.8855 15.6466 22.3332 16.0943 22.3332 16.6466C22.3332 17.1989 21.8855 17.6466 21.3332 17.6466H10.6665C10.1142 17.6466 9.6665 17.1989 9.6665 16.6466Z" fill="#111827"/>
</svg>
