<svg width="32" height="32" viewBox="0 0 32 32" fill="none" xmlns="http://www.w3.org/2000/svg">
<path fill-rule="evenodd" clip-rule="evenodd" d="M22.7739 10.3517C23.1644 9.96117 23.1644 9.32801 22.7739 8.93749C22.3833 8.54696 21.7502 8.54696 21.3596 8.93749L14.9741 15.323C14.5836 15.7135 14.5836 16.3467 14.9741 16.7372C15.3646 17.1277 15.9978 17.1277 16.3883 16.7372L22.7739 10.3517ZM3.70758 15.2932C3.31705 14.9027 2.68388 14.9027 2.29337 15.2932C1.90285 15.6837 1.90286 16.3169 2.2934 16.7074L8.64882 23.0626C9.03934 23.4531 9.6725 23.4531 10.063 23.0625L10.9382 22.1873C11.3288 21.7968 11.3288 21.1636 10.9382 20.7731C10.5477 20.3826 9.91455 20.3826 9.52402 20.7731L9.35589 20.9412L3.70758 15.2932ZM29.7068 10.3517C30.0973 9.96117 30.0973 9.32801 29.7068 8.93749C29.3163 8.54696 28.6831 8.54696 28.2926 8.93749L16.2888 20.9412L10.6405 15.2932C10.25 14.9027 9.61683 14.9027 9.22631 15.2932C8.8358 15.6837 8.83581 16.3169 9.22634 16.7074L15.5818 23.0626C15.9723 23.4531 16.6054 23.4531 16.996 23.0625L29.7068 10.3517Z" fill="#111827"/>
</svg>
