<svg width="32" height="32" viewBox="0 0 32 32" fill="none" xmlns="http://www.w3.org/2000/svg">
<path fill-rule="evenodd" clip-rule="evenodd" d="M1 0C0.447715 0 0 0.447715 0 1V31C0 31.5523 0.447715 32 1 32H31C31.5523 32 32 31.5523 32 31V1C32 0.447715 31.5523 0 31 0H1ZM24.6905 12.3598C25.09 11.9784 25.1047 11.3454 24.7234 10.9459C24.342 10.5464 23.709 10.5317 23.3095 10.913L13.3333 20.4358L8.69048 16.004C8.29098 15.6226 7.65799 15.6373 7.27665 16.0368C6.89531 16.4363 6.91002 17.0693 7.30952 17.4507L12.6428 22.5416C13.0292 22.9104 13.6373 22.9104 14.0237 22.5416L24.6905 12.3598Z" fill="#111827"/>
</svg>
