<svg width="33" height="33" viewBox="0 0 33 33" fill="none" xmlns="http://www.w3.org/2000/svg">
<path fill-rule="evenodd" clip-rule="evenodd" d="M5.95996 4.2829C5.40768 4.2829 4.95996 4.73061 4.95996 5.2829V27.2829C4.95996 27.8352 5.40768 28.2829 5.95996 28.2829H27.96C28.5122 28.2829 28.96 27.8352 28.96 27.2829V5.2829C28.96 4.73061 28.5122 4.2829 27.96 4.2829H5.95996ZM23.6504 13.7336C24.0499 13.3522 24.0647 12.7192 23.6833 12.3197C23.302 11.9202 22.669 11.9055 22.2695 12.2868L14.9599 19.2641L11.6504 16.105C11.2509 15.7237 10.618 15.7384 10.2366 16.1379C9.85527 16.5374 9.86999 17.1704 10.2695 17.5517L14.2694 21.3699C14.6559 21.7388 15.264 21.7388 15.6504 21.3699L23.6504 13.7336Z" fill="#1C1B1F"/>
</svg>
