<svg width="33" height="33" viewBox="0 0 33 33" fill="none" xmlns="http://www.w3.org/2000/svg">
<path fill-rule="evenodd" clip-rule="evenodd" d="M28.96 16.2829C28.96 22.9103 23.5874 28.2829 16.96 28.2829C10.3325 28.2829 4.95996 22.9103 4.95996 16.2829C4.95996 9.65548 10.3325 4.2829 16.96 4.2829C23.5874 4.2829 28.96 9.65548 28.96 16.2829ZM23.1504 14.0063C23.5499 13.6249 23.5647 12.9919 23.1833 12.5924C22.802 12.1929 22.169 12.1782 21.7695 12.5595L15.1266 18.9004L12.1504 16.0595C11.7509 15.6782 11.118 15.6929 10.7366 16.0924C10.3553 16.4919 10.37 17.1249 10.7695 17.5062L14.4361 21.0062C14.8225 21.3751 15.4306 21.3751 15.8171 21.0063L23.1504 14.0063Z" fill="#1C1B1F"/>
</svg>
