<svg width="33" height="33" viewBox="0 0 33 33" fill="none" xmlns="http://www.w3.org/2000/svg">
<path fill-rule="evenodd" clip-rule="evenodd" d="M7.72949 6.05212C7.17721 6.05212 6.72949 6.49984 6.72949 7.05212V17.0521C6.72949 17.6044 7.17721 18.0521 7.72949 18.0521C8.28178 18.0521 8.72949 17.6044 8.72949 17.0521V8.05212H25.191V24.5137H16.191C15.6387 24.5137 15.191 24.9614 15.191 25.5137C15.191 26.0659 15.6387 26.5137 16.191 26.5137H26.191C26.7433 26.5137 27.191 26.0659 27.191 25.5137V7.05212C27.191 6.49984 26.7433 6.05212 26.191 6.05212H7.72949ZM17.6674 19.2977C18.0579 18.9072 18.0579 18.274 17.6674 17.8835C17.2768 17.493 16.6437 17.493 16.2532 17.8835L10.8064 23.3302L8.4366 20.9604C8.04607 20.5699 7.41291 20.5699 7.02239 20.9604C6.63186 21.3509 6.63186 21.9841 7.02239 22.3746L10.0993 25.4515C10.4898 25.8421 11.123 25.8421 11.5135 25.4515L17.6674 19.2977Z" fill="#1C1B1F"/>
</svg>
