<svg width="32" height="32" viewBox="0 0 32 32" fill="none" xmlns="http://www.w3.org/2000/svg">
<path fill-rule="evenodd" clip-rule="evenodd" d="M32 16C32 24.8366 24.8366 32 16 32C7.16344 32 0 24.8366 0 16C0 7.16344 7.16344 0 16 0C24.8366 0 32 7.16344 32 16ZM24.0238 12.7234C24.4233 12.342 24.438 11.709 24.0567 11.3095C23.6754 10.91 23.0424 10.8953 22.6429 11.2766L13.5555 19.9509L9.35715 15.9433C8.95765 15.562 8.32466 15.5767 7.94332 15.9762C7.56197 16.3757 7.57669 17.0087 7.97619 17.39L12.865 22.0567C13.2514 22.4255 13.8595 22.4255 14.246 22.0567L24.0238 12.7234Z" fill="#111827"/>
</svg>
