<svg width="33" height="33" viewBox="0 0 33 33" fill="none" xmlns="http://www.w3.org/2000/svg">
<path fill-rule="evenodd" clip-rule="evenodd" d="M23.2671 11.1234C23.6576 10.7328 23.6576 10.0997 23.2671 9.70915C22.8765 9.31863 22.2434 9.31863 21.8529 9.70915L15.9584 15.6036C15.5679 15.9941 15.5679 16.6273 15.9584 17.0178C16.3489 17.4083 16.9821 17.4083 17.3726 17.0178L23.2671 11.1234ZM5.66705 15.5761C5.27652 15.1856 4.64335 15.1856 4.25284 15.5761C3.86232 15.9666 3.86234 16.5998 4.25287 16.9903L10.1195 22.8567C10.5101 23.2472 11.1432 23.2472 11.5337 22.8567L12.3416 22.0488C12.7322 21.6583 12.7322 21.0251 12.3416 20.6346C11.9511 20.2441 11.318 20.2441 10.9274 20.6346L10.8266 20.7354L5.66705 15.5761ZM29.667 11.1234C30.0575 10.7328 30.0575 10.0997 29.667 9.70915C29.2764 9.31863 28.6433 9.31863 28.2528 9.70915L17.2265 20.7354L12.067 15.5761C11.6764 15.1856 11.0433 15.1856 10.6527 15.5761C10.2622 15.9666 10.2622 16.5998 10.6528 16.9903L16.5194 22.8567C16.91 23.2472 17.5431 23.2472 17.9336 22.8567L29.667 11.1234Z" fill="#1C1B1F"/>
</svg>
