<svg width="32" height="32" viewBox="0 0 32 32" fill="none" xmlns="http://www.w3.org/2000/svg">
<path fill-rule="evenodd" clip-rule="evenodd" d="M1.00244 0.00231934C0.450157 0.00231934 0.00244143 0.450035 0.00244143 1.00232V17.2498C0.00244143 17.8021 0.450157 18.2498 1.00244 18.2498C1.55473 18.2498 2.00244 17.8021 2.00244 17.2498V2.00232H29.9979V29.9977H14.7503C14.1981 29.9977 13.7503 30.4455 13.7503 30.9977C13.7503 31.55 14.1981 31.9977 14.7503 31.9977H30.9979C31.5501 31.9977 31.9979 31.55 31.9979 30.9977V1.00232C31.9979 0.450035 31.5501 0.00231934 30.9979 0.00231934H1.00244ZM16.7073 20.4566C17.0978 20.066 17.0978 19.4329 16.7073 19.0424C16.3167 18.6518 15.6836 18.6518 15.293 19.0424L6.00168 28.3337L1.70955 24.0416C1.31902 23.6511 0.685859 23.6511 0.295335 24.0416C-0.0951897 24.4321 -0.0951897 25.0653 0.295335 25.4558L5.29457 30.455C5.48211 30.6426 5.73646 30.7479 6.00168 30.7479C6.26689 30.7479 6.52125 30.6426 6.70879 30.455L16.7073 20.4566Z" fill="#111827"/>
</svg>
