<svg width="32" height="33" viewBox="0 0 32 33" fill="none" xmlns="http://www.w3.org/2000/svg">
<path fill-rule="evenodd" clip-rule="evenodd" d="M16 32.5C24.8366 32.5 32 25.3366 32 16.5C32 7.66344 24.8366 0.5 16 0.5C7.16344 0.5 0 7.66344 0 16.5C0 25.3366 7.16344 32.5 16 32.5ZM15.5355 10.136C15.926 10.5265 15.926 11.1597 15.5355 11.5502L10.5858 16.5L15.5355 21.4497C15.926 21.8402 15.926 22.4734 15.5355 22.8639C15.145 23.2544 14.5118 23.2544 14.1213 22.8639L8.46444 17.2071C8.07392 16.8165 8.07392 16.1834 8.46444 15.7928L14.1213 10.136C14.5118 9.74547 15.145 9.74547 15.5355 10.136ZM23.5355 11.5502C23.926 11.1597 23.926 10.5265 23.5355 10.136C23.145 9.74547 22.5118 9.74547 22.1213 10.136L16.4644 15.7928C16.0739 16.1834 16.0739 16.8165 16.4644 17.2071L22.1213 22.8639C22.5118 23.2544 23.145 23.2544 23.5355 22.8639C23.926 22.4734 23.926 21.8402 23.5355 21.4497L18.5858 16.5L23.5355 11.5502Z" fill="#111827"/>
</svg>
