<svg width="32" height="32" viewBox="0 0 32 32" fill="none" xmlns="http://www.w3.org/2000/svg">
<path fill-rule="evenodd" clip-rule="evenodd" d="M16.7073 8.29289C16.3167 7.90237 15.6836 7.90237 15.2931 8.29289L9.49407 14.0919C9.10354 14.4824 9.10354 15.1156 9.49407 15.5061C9.88459 15.8966 10.5178 15.8966 10.9083 15.5061L16.0002 10.4142L21.092 15.5061C21.4826 15.8966 22.1157 15.8966 22.5063 15.5061C22.8968 15.1156 22.8968 14.4824 22.5063 14.0919L16.7073 8.29289ZM22.5063 22.2928L16.7073 16.4938C16.3167 16.1033 15.6836 16.1033 15.2931 16.4938L9.49407 22.2928C9.10354 22.6833 9.10354 23.3165 9.49407 23.707C9.88459 24.0975 10.5178 24.0975 10.9083 23.707L16.0002 18.6151L21.092 23.707C21.4826 24.0975 22.1157 24.0975 22.5063 23.707C22.8968 23.3165 22.8968 22.6833 22.5063 22.2928Z" fill="#111827"/>
</svg>
