<svg width="33" height="33" viewBox="0 0 33 33" fill="none" xmlns="http://www.w3.org/2000/svg">
<path fill-rule="evenodd" clip-rule="evenodd" d="M28.9602 16.283C28.9602 22.9104 23.5876 28.283 16.9602 28.283C10.3328 28.283 4.96021 22.9104 4.96021 16.283C4.96021 9.65554 10.3328 4.28296 16.9602 4.28296C23.5876 4.28296 28.9602 9.65554 28.9602 16.283ZM22.6673 15.4853L17.6673 20.4853C17.2768 20.8758 16.6436 20.8758 16.2531 20.4853L11.2531 15.4853C10.8626 15.0948 10.8626 14.4616 11.2531 14.0711C11.6436 13.6806 12.2768 13.6806 12.6673 14.0711L16.9602 18.364L21.2531 14.0711C21.6436 13.6806 22.2768 13.6806 22.6673 14.0711C23.0578 14.4616 23.0578 15.0948 22.6673 15.4853Z" fill="#1C1B1F"/>
</svg>
