<svg width="32" height="32" viewBox="0 0 32 32" fill="none" xmlns="http://www.w3.org/2000/svg">
<path fill-rule="evenodd" clip-rule="evenodd" d="M32 16C32 24.8366 24.8366 32 16 32C7.16344 32 0 24.8366 0 16C0 7.16344 7.16344 0 16 0C24.8366 0 32 7.16344 32 16ZM18.6262 8.62623L11.9596 15.2929C11.569 15.6834 11.569 16.3166 11.9596 16.7071L18.6262 23.3738C19.0168 23.7643 19.6499 23.7643 20.0404 23.3738C20.431 22.9832 20.431 22.3501 20.0404 21.9596L14.0809 16L20.0404 10.0404C20.431 9.64992 20.431 9.01675 20.0404 8.62623C19.6499 8.2357 19.0168 8.2357 18.6262 8.62623Z" fill="#111827"/>
</svg>
