<svg width="32" height="32" viewBox="0 0 32 32" fill="none" xmlns="http://www.w3.org/2000/svg">
<path fill-rule="evenodd" clip-rule="evenodd" d="M32 16C32 24.8366 24.8366 32 16 32C7.16344 32 0 24.8366 0 16C0 7.16344 7.16344 0 16 0C24.8366 0 32 7.16344 32 16ZM23.3738 18.6262L16.7071 11.9596C16.3166 11.569 15.6834 11.569 15.2929 11.9596L8.62623 18.6262C8.2357 19.0168 8.2357 19.6499 8.62623 20.0404C9.01675 20.431 9.64992 20.431 10.0404 20.0404L16 14.0809L21.9596 20.0404C22.3501 20.431 22.9832 20.431 23.3738 20.0404C23.7643 19.6499 23.7643 19.0168 23.3738 18.6262Z" fill="#111827"/>
</svg>
