<svg width="32" height="32" viewBox="0 0 32 32" fill="none" xmlns="http://www.w3.org/2000/svg">
<path fill-rule="evenodd" clip-rule="evenodd" d="M16 32C24.8366 32 32 24.8366 32 16C32 7.16344 24.8366 0 16 0C7.16344 0 0 7.16344 0 16C0 24.8366 7.16344 32 16 32ZM9.63599 16.4644C10.0265 16.0739 10.6597 16.0739 11.0502 16.4644L16 21.4142L20.9497 16.4644C21.3402 16.0739 21.9734 16.0739 22.3639 16.4644C22.7544 16.855 22.7544 17.4881 22.3639 17.8787L16.7071 23.5355C16.3165 23.926 15.6834 23.926 15.2928 23.5355L9.63599 17.8787C9.24547 17.4881 9.24547 16.855 9.63599 16.4644ZM11.0502 8.46444C10.6597 8.07392 10.0265 8.07392 9.63599 8.46444C9.24547 8.85497 9.24547 9.48813 9.63599 9.87866L15.2928 15.5355C15.6834 15.926 16.3165 15.926 16.7071 15.5355L22.3639 9.87866C22.7544 9.48813 22.7544 8.85497 22.3639 8.46444C21.9734 8.07392 21.3402 8.07392 20.9497 8.46444L16 13.4142L11.0502 8.46444Z" fill="#111827"/>
</svg>
