<svg width="32" height="32" viewBox="0 0 32 32" fill="none" xmlns="http://www.w3.org/2000/svg">
<path fill-rule="evenodd" clip-rule="evenodd" d="M8.2574 8.29289C7.86688 7.90237 7.23371 7.90237 6.84319 8.29289C6.45266 8.68342 6.45266 9.31658 6.84319 9.70711L13.1361 16L6.84319 22.2929C6.45266 22.6834 6.45266 23.3166 6.84319 23.7071C7.23371 24.0976 7.86688 24.0976 8.2574 23.7071L15.2574 16.7071C15.6479 16.3166 15.6479 15.6834 15.2574 15.2929L8.2574 8.29289ZM18.1568 8.29289C17.7663 7.90237 17.1331 7.90237 16.7426 8.29289C16.3521 8.68342 16.3521 9.31658 16.7426 9.70711L23.0355 16L16.7426 22.2929C16.3521 22.6834 16.3521 23.3166 16.7426 23.7071C17.1331 24.0976 17.7663 24.0976 18.1568 23.7071L25.1568 16.7071C25.5473 16.3166 25.5473 15.6834 25.1568 15.2929L18.1568 8.29289Z" fill="#111827"/>
</svg>
