<svg width="32" height="32" viewBox="0 0 32 32" fill="none" xmlns="http://www.w3.org/2000/svg">
<path fill-rule="evenodd" clip-rule="evenodd" d="M16 32C24.8366 32 32 24.8366 32 16C32 7.16344 24.8366 0 16 0C7.16344 0 0 7.16344 0 16C0 24.8366 7.16344 32 16 32ZM15.5355 9.63599C15.926 10.0265 15.926 10.6597 15.5355 11.0502L10.5858 16L15.5355 20.9497C15.926 21.3402 15.926 21.9734 15.5355 22.3639C15.145 22.7544 14.5118 22.7544 14.1213 22.3639L8.46444 16.7071C8.07392 16.3165 8.07392 15.6834 8.46444 15.2928L14.1213 9.63599C14.5118 9.24547 15.145 9.24547 15.5355 9.63599ZM23.5355 11.0502C23.926 10.6597 23.926 10.0265 23.5355 9.63599C23.145 9.24547 22.5118 9.24547 22.1213 9.63599L16.4644 15.2928C16.0739 15.6834 16.0739 16.3165 16.4644 16.7071L22.1213 22.3639C22.5118 22.7544 23.145 22.7544 23.5355 22.3639C23.926 21.9734 23.926 21.3402 23.5355 20.9497L18.5858 16L23.5355 11.0502Z" fill="#111827"/>
</svg>
