<svg width="32" height="33" viewBox="0 0 32 33" fill="none" xmlns="http://www.w3.org/2000/svg">
<path fill-rule="evenodd" clip-rule="evenodd" d="M16 32.5C24.8366 32.5 32 25.3366 32 16.5C32 7.66344 24.8366 0.5 16 0.5C7.16344 0.5 0 7.66344 0 16.5C0 25.3366 7.16344 32.5 16 32.5ZM9.63599 16.9644C10.0265 16.5739 10.6597 16.5739 11.0502 16.9644L16 21.9142L20.9497 16.9644C21.3402 16.5739 21.9734 16.5739 22.3639 16.9644C22.7544 17.355 22.7544 17.9881 22.3639 18.3787L16.7071 24.0355C16.3165 24.426 15.6834 24.426 15.2928 24.0355L9.63599 18.3787C9.24547 17.9881 9.24547 17.355 9.63599 16.9644ZM11.0502 8.96444C10.6597 8.57392 10.0265 8.57392 9.63599 8.96444C9.24547 9.35497 9.24547 9.98813 9.63599 10.3787L15.2928 16.0355C15.6834 16.426 16.3165 16.426 16.7071 16.0355L22.3639 10.3787C22.7544 9.98813 22.7544 9.35497 22.3639 8.96444C21.9734 8.57392 21.3402 8.57392 20.9497 8.96444L16 13.9142L11.0502 8.96444Z" fill="#111827"/>
</svg>
