<svg width="32" height="32" viewBox="0 0 32 32" fill="none" xmlns="http://www.w3.org/2000/svg">
<path fill-rule="evenodd" clip-rule="evenodd" d="M7.48103 11.9342C7.09051 12.3247 6.45734 12.3247 6.06682 11.9342C5.67629 11.5437 5.67629 10.9105 6.06682 10.52L15.2928 1.29399C15.4804 1.10646 15.7347 1.0011 15.9999 1.0011C16.2651 1.0011 16.5195 1.10646 16.707 1.29399L25.933 10.52C26.3236 10.9105 26.3236 11.5437 25.933 11.9342C25.5425 12.3247 24.9093 12.3247 24.5188 11.9342L15.9999 3.41531L7.48103 11.9342ZM7.48103 20.0657C7.09051 19.6752 6.45734 19.6752 6.06682 20.0657C5.67629 20.4562 5.67629 21.0894 6.06682 21.4799L15.2928 30.7059C15.4804 30.8934 15.7347 30.9988 15.9999 30.9988C16.2651 30.9988 16.5195 30.8934 16.707 30.7059L25.933 21.4799C26.3236 21.0894 26.3236 20.4562 25.933 20.0657C25.5425 19.6752 24.9093 19.6752 24.5188 20.0657L15.9999 28.5846L7.48103 20.0657Z" fill="#111827"/>
</svg>
