<svg width="32" height="32" viewBox="0 0 32 32" fill="none" xmlns="http://www.w3.org/2000/svg">
<path fill-rule="evenodd" clip-rule="evenodd" d="M16 32C24.8366 32 32 24.8366 32 16C32 7.16344 24.8366 0 16 0C7.16344 0 0 7.16344 0 16C0 24.8366 7.16344 32 16 32ZM15.2928 8.46444C15.6834 8.07392 16.3165 8.07392 16.7071 8.46444L22.3639 14.1213C22.7544 14.5118 22.7544 15.145 22.3639 15.5355C21.9734 15.926 21.3402 15.926 20.9497 15.5355L16 10.5858L11.0502 15.5355C10.6597 15.926 10.0265 15.926 9.63599 15.5355C9.24547 15.145 9.24547 14.5118 9.63599 14.1213L15.2928 8.46444ZM16.7071 16.4644C16.3165 16.0739 15.6834 16.0739 15.2928 16.4644L9.63599 22.1213C9.24547 22.5118 9.24547 23.145 9.63599 23.5355C10.0265 23.926 10.6597 23.926 11.0502 23.5355L16 18.5858L20.9497 23.5355C21.3402 23.926 21.9734 23.926 22.3639 23.5355C22.7544 23.145 22.7544 22.5118 22.3639 22.1213L16.7071 16.4644Z" fill="#111827"/>
</svg>
