<svg width="32" height="33" viewBox="0 0 32 33" fill="none" xmlns="http://www.w3.org/2000/svg">
<path fill-rule="evenodd" clip-rule="evenodd" d="M23.707 11.4082C24.0975 11.0176 24.0975 10.3845 23.707 9.99394C23.3165 9.60342 22.6833 9.60342 22.2928 9.99394L16.4938 15.7929C16.1033 16.1835 16.1033 16.8166 16.4938 17.2071L22.2928 23.0061C22.6833 23.3967 23.3165 23.3967 23.707 23.0061C24.0975 22.6156 24.0975 21.9824 23.707 21.5919L18.6151 16.5L23.707 11.4082ZM15.5061 11.4083C15.8966 11.0178 15.8966 10.3846 15.5061 9.99407C15.1156 9.60354 14.4824 9.60354 14.0919 9.99407L8.29289 15.7931C7.90237 16.1836 7.90237 16.8167 8.29289 17.2073L14.0919 23.0063C14.4824 23.3968 15.1156 23.3968 15.5061 23.0063C15.8966 22.6157 15.8966 21.9826 15.5061 21.592L10.4142 16.5002L15.5061 11.4083Z" fill="#111827"/>
</svg>
