<svg width="32" height="33" viewBox="0 0 32 33" fill="none" xmlns="http://www.w3.org/2000/svg">
<path fill-rule="evenodd" clip-rule="evenodd" d="M10.9083 8.79289C10.5178 8.40237 9.88459 8.40237 9.49407 8.79289C9.10354 9.18342 9.10354 9.81658 9.49407 10.2071L15.293 16.0061C15.6836 16.3966 16.3167 16.3966 16.7073 16.0061L22.5062 10.2071C22.8968 9.81658 22.8968 9.18342 22.5062 8.79289C22.1157 8.40237 21.4825 8.40237 21.092 8.79289L16.0001 13.8848L10.9083 8.79289ZM10.9083 16.9939C10.5178 16.6034 9.88459 16.6034 9.49407 16.9939C9.10354 17.3845 9.10354 18.0176 9.49407 18.4082L15.293 24.2071C15.6836 24.5977 16.3167 24.5977 16.7073 24.2071L22.5062 18.4082C22.8968 18.0176 22.8968 17.3845 22.5062 16.9939C22.1157 16.6034 21.4825 16.6034 21.092 16.9939L16.0001 22.0858L10.9083 16.9939Z" fill="#111827"/>
</svg>
