<svg width="32" height="33" viewBox="0 0 32 33" fill="none" xmlns="http://www.w3.org/2000/svg">
<path fill-rule="evenodd" clip-rule="evenodd" d="M16 32.5C24.8366 32.5 32 25.3366 32 16.5C32 7.66344 24.8366 0.5 16 0.5C7.16344 0.5 0 7.66344 0 16.5C0 25.3366 7.16344 32.5 16 32.5ZM8.46444 10.136C8.85497 9.74547 9.48813 9.74547 9.87866 10.136L15.5355 15.7928C15.926 16.1834 15.926 16.8165 15.5355 17.2071L9.87866 22.8639C9.48813 23.2544 8.85497 23.2544 8.46444 22.8639C8.07392 22.4734 8.07392 21.8402 8.46444 21.4497L13.4142 16.5L8.46444 11.5502C8.07392 11.1597 8.07392 10.5265 8.46444 10.136ZM17.8787 10.136C17.4881 9.74547 16.855 9.74547 16.4644 10.136C16.0739 10.5265 16.0739 11.1597 16.4644 11.5502L21.4142 16.5L16.4644 21.4497C16.0739 21.8402 16.0739 22.4734 16.4644 22.8639C16.855 23.2544 17.4881 23.2544 17.8787 22.8639L23.5355 17.2071C23.926 16.8165 23.926 16.1834 23.5355 15.7928L17.8787 10.136Z" fill="#111827"/>
</svg>
