<svg width="32" height="32" viewBox="0 0 32 32" fill="none" xmlns="http://www.w3.org/2000/svg">
<path fill-rule="evenodd" clip-rule="evenodd" d="M16 32C24.8366 32 32 24.8366 32 16C32 7.16344 24.8366 0 16 0C7.16344 0 0 7.16344 0 16C0 24.8366 7.16344 32 16 32ZM8.46444 9.63599C8.85497 9.24547 9.48813 9.24547 9.87866 9.63599L15.5355 15.2928C15.926 15.6834 15.926 16.3165 15.5355 16.7071L9.87866 22.3639C9.48813 22.7544 8.85497 22.7544 8.46444 22.3639C8.07392 21.9734 8.07392 21.3402 8.46444 20.9497L13.4142 16L8.46444 11.0502C8.07392 10.6597 8.07392 10.0265 8.46444 9.63599ZM17.8787 9.63599C17.4881 9.24547 16.855 9.24547 16.4644 9.63599C16.0739 10.0265 16.0739 10.6597 16.4644 11.0502L21.4142 16L16.4644 20.9497C16.0739 21.3402 16.0739 21.9734 16.4644 22.3639C16.855 22.7544 17.4881 22.7544 17.8787 22.3639L23.5355 16.7071C23.926 16.3165 23.926 15.6834 23.5355 15.2928L17.8787 9.63599Z" fill="#111827"/>
</svg>
