<svg width="32" height="32" viewBox="0 0 32 32" fill="none" xmlns="http://www.w3.org/2000/svg">
<path fill-rule="evenodd" clip-rule="evenodd" d="M10.6234 13.5598C10.2328 13.9504 9.59968 13.9504 9.20915 13.5598C8.81863 13.1693 8.81863 12.5361 9.20915 12.1456L15.2927 6.06206C15.6832 5.67153 16.3164 5.67153 16.7069 6.06206L22.7905 12.1456C23.181 12.5361 23.181 13.1693 22.7905 13.5598C22.4 13.9504 21.7668 13.9504 21.3763 13.5598L15.9998 8.18338L10.6234 13.5598ZM10.6234 18.44C10.2328 18.0495 9.59968 18.0495 9.20915 18.44C8.81863 18.8306 8.81863 19.4637 9.20915 19.8543L15.2927 25.9378C15.6832 26.3283 16.3164 26.3283 16.7069 25.9378L22.7905 19.8543C23.181 19.4637 23.181 18.8306 22.7905 18.44C22.4 18.0495 21.7668 18.0495 21.3763 18.44L15.9998 23.8165L10.6234 18.44Z" fill="#111827"/>
</svg>
