<svg width="32" height="33" viewBox="0 0 32 33" fill="none" xmlns="http://www.w3.org/2000/svg">
<path fill-rule="evenodd" clip-rule="evenodd" d="M16 32.5C24.8366 32.5 32 25.3366 32 16.5C32 7.66344 24.8366 0.5 16 0.5C7.16344 0.5 0 7.66344 0 16.5C0 25.3366 7.16344 32.5 16 32.5ZM15.2928 8.96444C15.6834 8.57392 16.3165 8.57392 16.7071 8.96444L22.3639 14.6213C22.7544 15.0118 22.7544 15.645 22.3639 16.0355C21.9734 16.426 21.3402 16.426 20.9497 16.0355L16 11.0858L11.0502 16.0355C10.6597 16.426 10.0265 16.426 9.63599 16.0355C9.24547 15.645 9.24547 15.0118 9.63599 14.6213L15.2928 8.96444ZM16.7071 16.9644C16.3165 16.5739 15.6834 16.5739 15.2928 16.9644L9.63599 22.6213C9.24547 23.0118 9.24547 23.645 9.63599 24.0355C10.0265 24.426 10.6597 24.426 11.0502 24.0355L16 19.0858L20.9497 24.0355C21.3402 24.426 21.9734 24.426 22.3639 24.0355C22.7544 23.645 22.7544 23.0118 22.3639 22.6213L16.7071 16.9644Z" fill="#111827"/>
</svg>
