<svg width="32" height="33" viewBox="0 0 32 33" fill="none" xmlns="http://www.w3.org/2000/svg">
<path fill-rule="evenodd" clip-rule="evenodd" d="M32 16.5C32 25.3366 24.8366 32.5 16 32.5C7.16344 32.5 0 25.3366 0 16.5C0 7.66344 7.16344 0.5 16 0.5C24.8366 0.5 32 7.66344 32 16.5ZM23.3738 19.1262L16.7071 12.4596C16.3166 12.069 15.6834 12.069 15.2929 12.4596L8.62623 19.1262C8.2357 19.5168 8.2357 20.1499 8.62623 20.5404C9.01675 20.931 9.64992 20.931 10.0404 20.5404L16 14.5809L21.9596 20.5404C22.3501 20.931 22.9832 20.931 23.3738 20.5404C23.7643 20.1499 23.7643 19.5168 23.3738 19.1262Z" fill="#111827"/>
</svg>
