<svg width="32" height="32" viewBox="0 0 32 32" fill="none" xmlns="http://www.w3.org/2000/svg">
<path fill-rule="evenodd" clip-rule="evenodd" d="M32 16C32 24.8366 24.8366 32 16 32C7.16344 32 0 24.8366 0 16C0 7.16344 7.16344 0 16 0C24.8366 0 32 7.16344 32 16ZM23.3738 14.7008L16.7071 21.3674C16.3166 21.7579 15.6834 21.7579 15.2929 21.3674L8.62623 14.7008C8.2357 14.3102 8.2357 13.6771 8.62623 13.2865C9.01675 12.896 9.64992 12.896 10.0404 13.2865L16 19.2461L21.9596 13.2865C22.3501 12.896 22.9832 12.896 23.3738 13.2865C23.7643 13.6771 23.7643 14.3102 23.3738 14.7008Z" fill="#111827"/>
</svg>
