<svg width="33" height="33" viewBox="0 0 33 33" fill="none" xmlns="http://www.w3.org/2000/svg">
<path fill-rule="evenodd" clip-rule="evenodd" d="M28.9602 16.283C28.9602 22.9104 23.5876 28.283 16.9602 28.283C10.3328 28.283 4.96021 22.9104 4.96021 16.283C4.96021 9.65554 10.3328 4.28296 16.9602 4.28296C23.5876 4.28296 28.9602 9.65554 28.9602 16.283ZM22.6673 18.0759L17.6673 13.0759C17.2768 12.6853 16.6436 12.6853 16.2531 13.0759L11.2531 18.0759C10.8626 18.4664 10.8626 19.0995 11.2531 19.4901C11.6436 19.8806 12.2768 19.8806 12.6673 19.4901L16.9602 15.1972L21.2531 19.4901C21.6436 19.8806 22.2768 19.8806 22.6673 19.4901C23.0578 19.0995 23.0578 18.4664 22.6673 18.0759Z" fill="#1C1B1F"/>
</svg>
