<svg width="32" height="32" viewBox="0 0 32 32" fill="none" xmlns="http://www.w3.org/2000/svg">
<path fill-rule="evenodd" clip-rule="evenodd" d="M32 16C32 24.8366 24.8366 32 16 32C7.16344 32 0 24.8366 0 16C0 7.16344 7.16344 0 16 0C24.8366 0 32 7.16344 32 16ZM13.3738 23.3738L20.0404 16.7071C20.431 16.3166 20.431 15.6834 20.0404 15.2929L13.3738 8.62623C12.9832 8.2357 12.3501 8.2357 11.9596 8.62623C11.569 9.01675 11.569 9.64992 11.9596 10.0404L17.9191 16L11.9596 21.9596C11.569 22.3501 11.569 22.9832 11.9596 23.3738C12.3501 23.7643 12.9832 23.7643 13.3738 23.3738Z" fill="#111827"/>
</svg>
