<svg width="33" height="33" viewBox="0 0 33 33" fill="none" xmlns="http://www.w3.org/2000/svg">
<path fill-rule="evenodd" clip-rule="evenodd" d="M16.9602 28.283C23.5876 28.283 28.9602 22.9104 28.9602 16.283C28.9602 9.65554 23.5876 4.28296 16.9602 4.28296C10.3328 4.28296 4.96021 9.65554 4.96021 16.283C4.96021 22.9104 10.3328 28.283 16.9602 28.283ZM16.7886 11.3332C17.1791 11.7237 17.1791 12.3569 16.7886 12.7474L13.2531 16.2829L16.7886 19.8185C17.1791 20.209 17.1791 20.8421 16.7886 21.2327C16.3981 21.6232 15.7649 21.6232 15.3744 21.2327L11.1318 16.99C10.7412 16.5995 10.7412 15.9663 11.1318 15.5758L15.3744 11.3332C15.7649 10.9427 16.3981 10.9427 16.7886 11.3332ZM22.7886 12.7474C23.1791 12.3569 23.1791 11.7237 22.7886 11.3332C22.3981 10.9427 21.7649 10.9427 21.3744 11.3332L17.1318 15.5758C16.7412 15.9663 16.7412 16.5995 17.1318 16.99L21.3744 21.2327C21.7649 21.6232 22.3981 21.6232 22.7886 21.2327C23.1791 20.8421 23.1791 20.209 22.7886 19.8185L19.2531 16.2829L22.7886 12.7474Z" fill="#1C1B1F"/>
</svg>
