<svg width="32" height="33" viewBox="0 0 32 33" fill="none" xmlns="http://www.w3.org/2000/svg">
<path fill-rule="evenodd" clip-rule="evenodd" d="M32 16.5C32 25.3366 24.8366 32.5 16 32.5C7.16344 32.5 0 25.3366 0 16.5C0 7.66344 7.16344 0.5 16 0.5C24.8366 0.5 32 7.66344 32 16.5ZM18.6262 9.12623L11.9596 15.7929C11.569 16.1834 11.569 16.8166 11.9596 17.2071L18.6262 23.8738C19.0168 24.2643 19.6499 24.2643 20.0404 23.8738C20.431 23.4832 20.431 22.8501 20.0404 22.4596L14.0809 16.5L20.0404 10.5404C20.431 10.1499 20.431 9.51675 20.0404 9.12623C19.6499 8.7357 19.0168 8.7357 18.6262 9.12623Z" fill="#111827"/>
</svg>
