<svg width="32" height="33" viewBox="0 0 32 33" fill="none" xmlns="http://www.w3.org/2000/svg">
<path fill-rule="evenodd" clip-rule="evenodd" d="M32 16.5C32 25.3366 24.8366 32.5 16 32.5C7.16344 32.5 0 25.3366 0 16.5C0 7.66344 7.16344 0.5 16 0.5C24.8366 0.5 32 7.66344 32 16.5ZM23.3738 15.2008L16.7071 21.8674C16.3166 22.2579 15.6834 22.2579 15.2929 21.8674L8.62623 15.2008C8.2357 14.8102 8.2357 14.1771 8.62623 13.7865C9.01675 13.396 9.64992 13.396 10.0404 13.7865L16 19.7461L21.9596 13.7865C22.3501 13.396 22.9832 13.396 23.3738 13.7865C23.7643 14.1771 23.7643 14.8102 23.3738 15.2008Z" fill="#111827"/>
</svg>
