<svg width="33" height="33" viewBox="0 0 33 33" fill="none" xmlns="http://www.w3.org/2000/svg">
<path fill-rule="evenodd" clip-rule="evenodd" d="M16.9602 28.283C23.5876 28.283 28.9602 22.9104 28.9602 16.283C28.9602 9.65554 23.5876 4.28296 16.9602 4.28296C10.3328 4.28296 4.96021 9.65554 4.96021 16.283C4.96021 22.9104 10.3328 28.283 16.9602 28.283ZM16.2531 10.4545C16.6436 10.064 17.2768 10.064 17.6673 10.4545L21.9099 14.6972C22.3004 15.0877 22.3004 15.7208 21.9099 16.1114C21.5194 16.5019 20.8862 16.5019 20.4957 16.1114L16.9602 12.5758L13.4246 16.1114C13.0341 16.5019 12.4009 16.5019 12.0104 16.1114C11.6199 15.7208 11.6199 15.0877 12.0104 14.6972L16.2531 10.4545ZM21.9099 22.1114C22.3004 21.7208 22.3004 21.0877 21.9099 20.6972L17.6673 16.4545C17.2768 16.064 16.6436 16.064 16.2531 16.4545L12.0104 20.6972C11.6199 21.0877 11.6199 21.7208 12.0104 22.1114C12.4009 22.5019 13.0341 22.5019 13.4246 22.1114L16.9602 18.5758L20.4957 22.1114C20.8862 22.5019 21.5194 22.5019 21.9099 22.1114Z" fill="#1C1B1F"/>
</svg>
