<svg width="33" height="33" viewBox="0 0 33 33" fill="none" xmlns="http://www.w3.org/2000/svg">
<path fill-rule="evenodd" clip-rule="evenodd" d="M28.96 16.283C28.96 22.9104 23.5874 28.283 16.96 28.283C10.3325 28.283 4.95996 22.9104 4.95996 16.283C4.95996 9.65554 10.3325 4.28296 16.96 4.28296C23.5874 4.28296 28.96 9.65554 28.96 16.283ZM18.7529 10.5759L13.7529 15.5759C13.3623 15.9664 13.3623 16.5995 13.7529 16.9901L18.7529 21.9901C19.1434 22.3806 19.7765 22.3806 20.1671 21.9901C20.5576 21.5995 20.5576 20.9664 20.1671 20.5759L15.8742 16.283L20.1671 11.9901C20.5576 11.5995 20.5576 10.9664 20.1671 10.5759C19.7765 10.1853 19.1434 10.1853 18.7529 10.5759Z" fill="#1C1B1F"/>
</svg>
