<svg width="32" height="33" viewBox="0 0 32 33" fill="none" xmlns="http://www.w3.org/2000/svg">
<path fill-rule="evenodd" clip-rule="evenodd" d="M16.7073 8.79289C16.3167 8.40237 15.6836 8.40237 15.2931 8.79289L9.49407 14.5919C9.10354 14.9824 9.10354 15.6156 9.49407 16.0061C9.88459 16.3966 10.5178 16.3966 10.9083 16.0061L16.0002 10.9142L21.092 16.0061C21.4826 16.3966 22.1157 16.3966 22.5063 16.0061C22.8968 15.6156 22.8968 14.9824 22.5063 14.5919L16.7073 8.79289ZM22.5063 22.7928L16.7073 16.9938C16.3167 16.6033 15.6836 16.6033 15.2931 16.9938L9.49407 22.7928C9.10354 23.1833 9.10354 23.8165 9.49407 24.207C9.88459 24.5975 10.5178 24.5975 10.9083 24.207L16.0002 19.1151L21.092 24.207C21.4826 24.5975 22.1157 24.5975 22.5063 24.207C22.8968 23.8165 22.8968 23.1833 22.5063 22.7928Z" fill="#111827"/>
</svg>
