<svg width="33" height="33" viewBox="0 0 33 33" fill="none" xmlns="http://www.w3.org/2000/svg">
<path fill-rule="evenodd" clip-rule="evenodd" d="M16.9602 28.283C23.5876 28.283 28.9602 22.9104 28.9602 16.283C28.9602 9.65554 23.5876 4.28296 16.9602 4.28296C10.3328 4.28296 4.96021 9.65554 4.96021 16.283C4.96021 22.9104 10.3328 28.283 16.9602 28.283ZM11.1318 11.3332C11.5223 10.9427 12.1554 10.9427 12.546 11.3332L16.7886 15.5758C17.1791 15.9663 17.1791 16.5995 16.7886 16.99L12.546 21.2327C12.1554 21.6232 11.5223 21.6232 11.1318 21.2327C10.7412 20.8421 10.7412 20.209 11.1318 19.8185L14.6673 16.2829L11.1318 12.7474C10.7412 12.3569 10.7412 11.7237 11.1318 11.3332ZM18.546 11.3332C18.1554 10.9427 17.5223 10.9427 17.1318 11.3332C16.7412 11.7237 16.7412 12.3569 17.1318 12.7474L20.6673 16.2829L17.1318 19.8185C16.7412 20.209 16.7412 20.8421 17.1318 21.2327C17.5223 21.6232 18.1554 21.6232 18.546 21.2327L22.7886 16.99C23.1791 16.5995 23.1791 15.9663 22.7886 15.5758L18.546 11.3332Z" fill="#1C1B1F"/>
</svg>
