<svg width="32" height="32" viewBox="0 0 32 32" fill="none" xmlns="http://www.w3.org/2000/svg">
<path fill-rule="evenodd" clip-rule="evenodd" d="M15.2611 0.362241L11.5607 3.24015C11.3851 3.37666 11.1691 3.45078 10.9467 3.45078H4.93799C4.3857 3.45078 3.93799 3.8985 3.93799 4.45078V9.89398C3.93799 10.1104 3.86781 10.3209 3.73799 10.494L0.199998 15.2114C-0.0812156 15.5863 -0.0642789 16.1063 0.24074 16.4622L3.69725 20.4948C3.8526 20.676 3.93799 20.9069 3.93799 21.1456V26.68C3.93799 27.2323 4.3857 27.68 4.93799 27.68H10.8756C11.1408 27.68 11.3952 27.7854 11.5827 27.9729L15.1652 31.5554C15.5637 31.9538 16.2125 31.9445 16.5994 31.5349L19.944 27.9934C20.1329 27.7934 20.3959 27.68 20.671 27.68H27.2312C27.7835 27.68 28.2312 27.2323 28.2312 26.68V21.1326C28.2312 20.9018 28.311 20.6781 28.4572 20.4994L31.7738 16.4458C32.06 16.0961 32.076 15.5979 31.813 15.2304L28.4181 10.4884C28.2965 10.3186 28.2312 10.115 28.2312 9.90626V4.45078C28.2312 3.8985 27.7835 3.45078 27.2312 3.45078H20.5988C20.3668 3.45078 20.1421 3.37016 19.9631 3.22272L16.5107 0.379672C16.1495 0.082247 15.6304 0.075006 15.2611 0.362241ZM15.989 7.79632C16.5413 7.79632 16.989 8.24404 16.989 8.79632V17.3666C16.989 17.9189 16.5413 18.3666 15.989 18.3666C15.4367 18.3666 14.989 17.9189 14.989 17.3666V8.79632C14.989 8.24404 15.4367 7.79632 15.989 7.79632ZM17.8251 22.8763C17.8251 23.8906 17.0029 24.7128 15.9886 24.7128C14.9744 24.7128 14.1521 23.8906 14.1521 22.8763C14.1521 21.8621 14.9744 21.0398 15.9886 21.0398C17.0029 21.0398 17.8251 21.8621 17.8251 22.8763Z" fill="#111827"/>
</svg>
