<svg width="33" height="33" viewBox="0 0 33 33" fill="none" xmlns="http://www.w3.org/2000/svg">
<path d="M9.86905 14.1011C12.5803 14.1011 14.7781 11.9033 14.7781 9.19205C14.7781 6.48083 12.5803 4.28296 9.86905 4.28296C7.15784 4.28296 4.95996 6.48083 4.95996 9.19205C4.95996 11.9033 7.15784 14.1011 9.86905 14.1011Z" fill="#1C1B1F"/>
<path d="M24.0507 14.1011C26.7619 14.1011 28.9598 11.9033 28.9598 9.19205C28.9598 6.48083 26.7619 4.28296 24.0507 4.28296C21.3395 4.28296 19.1416 6.48083 19.1416 9.19205C19.1416 11.9033 21.3395 14.1011 24.0507 14.1011Z" fill="#1C1B1F"/>
<path d="M9.86905 28.2829C12.5803 28.2829 14.7781 26.085 14.7781 23.3738C14.7781 20.6626 12.5803 18.4647 9.86905 18.4647C7.15784 18.4647 4.95996 20.6626 4.95996 23.3738C4.95996 26.085 7.15784 28.2829 9.86905 28.2829Z" fill="#1C1B1F"/>
<path d="M24.0507 28.2829C26.7619 28.2829 28.9598 26.085 28.9598 23.3738C28.9598 20.6626 26.7619 18.4647 24.0507 18.4647C21.3395 18.4647 19.1416 20.6626 19.1416 23.3738C19.1416 26.085 21.3395 28.2829 24.0507 28.2829Z" fill="#1C1B1F"/>
</svg>
