<svg width="33" height="33" viewBox="0 0 33 33" fill="none" xmlns="http://www.w3.org/2000/svg">
<path fill-rule="evenodd" clip-rule="evenodd" d="M16.2575 4.82143L13.7651 6.75981C13.5896 6.89633 13.3736 6.97044 13.1512 6.97044H9.07191C8.51962 6.97044 8.07191 7.41815 8.07191 7.97044V11.6352C8.07191 11.8515 8.00173 12.0621 7.87191 12.2352L5.44125 15.4761C5.16004 15.851 5.17698 16.371 5.482 16.7269L7.83117 19.4676C7.98652 19.6488 8.07191 19.8797 8.07191 20.1184V23.8408C8.07191 24.3931 8.51962 24.8408 9.07191 24.8408H13.0801C13.3453 24.8408 13.5996 24.9462 13.7872 25.1337L16.1616 27.5081C16.5601 27.9066 17.2089 27.8973 17.5958 27.4876L19.7995 25.1542C19.9884 24.9542 20.2514 24.8408 20.5266 24.8408H24.9894C25.5417 24.8408 25.9894 24.3931 25.9894 23.8408V20.1054C25.9894 19.8746 26.0693 19.6509 26.2155 19.4722L28.475 16.7105C28.7612 16.3608 28.7772 15.8626 28.5142 15.4951L26.1763 12.2296C26.0548 12.0598 25.9894 11.8562 25.9894 11.6474V7.97044C25.9894 7.41816 25.5417 6.97044 24.9894 6.97044H20.4543C20.2223 6.97044 19.9976 6.88982 19.8186 6.74238L17.5071 4.83886C17.1459 4.54144 16.6268 4.5342 16.2575 4.82143ZM16.9602 22.3518C17.7219 22.3518 18.3394 21.7344 18.3394 20.9727C18.3394 20.211 17.7219 19.5935 16.9602 19.5935C16.1985 19.5935 15.5811 20.211 15.5811 20.9727C15.5811 21.7344 16.1985 22.3518 16.9602 22.3518ZM14.8774 13.2972C14.8774 12.147 15.8099 11.2146 16.9601 11.2146C18.1103 11.2146 19.0427 12.147 19.0427 13.2972C19.0427 14.4475 18.1103 15.3799 16.9601 15.3799C16.4078 15.3799 15.9601 15.8276 15.9601 16.3799V17.8196C15.9601 18.3719 16.4078 18.8196 16.9601 18.8196C17.5124 18.8196 17.9601 18.3719 17.9601 17.8196V17.2565C19.7314 16.8105 21.0427 15.207 21.0427 13.2972C21.0427 11.0425 19.2149 9.2146 16.9601 9.2146C14.7053 9.2146 12.8774 11.0425 12.8774 13.2972C12.8774 13.8495 13.3252 14.2972 13.8774 14.2972C14.4297 14.2972 14.8774 13.8495 14.8774 13.2972Z" fill="#1C1B1F"/>
</svg>
