<svg width="33" height="33" viewBox="0 0 33 33" fill="none" xmlns="http://www.w3.org/2000/svg">
<path fill-rule="evenodd" clip-rule="evenodd" d="M13.7651 6.75981L16.2575 4.82143C16.6268 4.5342 17.1459 4.54144 17.5071 4.83886L19.8186 6.74238C19.9976 6.88982 20.2223 6.97044 20.4543 6.97044H24.9894C25.5417 6.97044 25.9894 7.41816 25.9894 7.97044V11.6474C25.9894 11.8562 26.0548 12.0598 26.1763 12.2296L28.5142 15.4951C28.7772 15.8626 28.7612 16.3608 28.475 16.7105L26.2155 19.4722C26.0693 19.6509 25.9894 19.8746 25.9894 20.1054V23.8408C25.9894 24.3931 25.5417 24.8408 24.9894 24.8408H20.5266C20.2514 24.8408 19.9884 24.9542 19.7995 25.1542L17.5958 27.4876C17.2089 27.8973 16.5601 27.9066 16.1616 27.5081L13.7872 25.1337C13.5996 24.9462 13.3453 24.8408 13.0801 24.8408H9.07191C8.51962 24.8408 8.07191 24.3931 8.07191 23.8408V20.1184C8.07191 19.8797 7.98652 19.6488 7.83117 19.4676L5.482 16.7269C5.17698 16.371 5.16004 15.851 5.44125 15.4761L7.87191 12.2352C8.00173 12.0621 8.07191 11.8515 8.07191 11.6352V7.97044C8.07191 7.41815 8.51962 6.97044 9.07191 6.97044H13.1512C13.3736 6.97044 13.5896 6.89633 13.7651 6.75981ZM21.2971 14.5303C21.6876 14.1398 21.6876 13.5067 21.2971 13.1161C20.9066 12.7256 20.2734 12.7256 19.8829 13.1161L15.6703 17.3287L14.0367 15.695C13.6462 15.3045 13.013 15.3045 12.6225 15.695C12.232 16.0855 12.232 16.7187 12.6225 17.1092L14.9632 19.45C15.3538 19.8405 15.9869 19.8405 16.3774 19.45L21.2971 14.5303Z" fill="#1C1B1F"/>
</svg>
