<svg width="32" height="32" viewBox="0 0 32 32" fill="none" xmlns="http://www.w3.org/2000/svg">
<path fill-rule="evenodd" clip-rule="evenodd" d="M11.5607 3.24015L15.2611 0.362241C15.6304 0.075006 16.1495 0.082247 16.5107 0.379672L19.9631 3.22272C20.1421 3.37016 20.3668 3.45078 20.5988 3.45078H27.2312C27.7835 3.45078 28.2312 3.8985 28.2312 4.45078V9.90626C28.2312 10.115 28.2965 10.3186 28.4181 10.4884L31.813 15.2304C32.076 15.5979 32.06 16.0961 31.7738 16.4458L28.4572 20.4994C28.311 20.6781 28.2312 20.9018 28.2312 21.1326V26.68C28.2312 27.2323 27.7835 27.68 27.2312 27.68H20.671C20.3959 27.68 20.1329 27.7934 19.944 27.9934L16.5994 31.5349C16.2125 31.9445 15.5637 31.9538 15.1652 31.5554L11.5827 27.9729C11.3952 27.7854 11.1408 27.68 10.8756 27.68H4.93799C4.3857 27.68 3.93799 27.2323 3.93799 26.68V21.1456C3.93799 20.9069 3.8526 20.676 3.69725 20.4948L0.24074 16.4622C-0.0642789 16.1063 -0.0812156 15.5863 0.199998 15.2114L3.73799 10.494C3.86781 10.3209 3.93799 10.1104 3.93799 9.89398V4.45078C3.93799 3.8985 4.3857 3.45078 4.93799 3.45078H10.9467C11.1691 3.45078 11.3851 3.37666 11.5607 3.24015ZM21.6176 13.4491C22.0081 13.0585 22.0081 12.4254 21.6176 12.0349C21.2271 11.6443 20.5939 11.6443 20.2034 12.0349L14.2403 17.9979L11.7737 15.5314C11.3832 15.1408 10.75 15.1408 10.3595 15.5314C9.96899 15.9219 9.96899 16.5551 10.3595 16.9456L13.5332 20.1193C13.9237 20.5098 14.5569 20.5098 14.9474 20.1193L21.6176 13.4491Z" fill="#111827"/>
</svg>
