<svg width="32" height="32" viewBox="0 0 32 32" fill="none" xmlns="http://www.w3.org/2000/svg">
<path fill-rule="evenodd" clip-rule="evenodd" d="M15.2611 0.362241L11.5607 3.24015C11.3851 3.37666 11.1691 3.45078 10.9467 3.45078H4.93799C4.3857 3.45078 3.93799 3.8985 3.93799 4.45078V9.89398C3.93799 10.1104 3.86781 10.3209 3.73799 10.494L0.199998 15.2114C-0.0812156 15.5863 -0.0642789 16.1063 0.24074 16.4622L3.69725 20.4948C3.8526 20.676 3.93799 20.9069 3.93799 21.1456V26.68C3.93799 27.2323 4.3857 27.68 4.93799 27.68H10.8756C11.1408 27.68 11.3952 27.7854 11.5827 27.9729L15.1652 31.5554C15.5637 31.9538 16.2125 31.9445 16.5994 31.5349L19.944 27.9934C20.1329 27.7934 20.3959 27.68 20.671 27.68H27.2312C27.7835 27.68 28.2312 27.2323 28.2312 26.68V21.1326C28.2312 20.9018 28.311 20.6781 28.4572 20.4994L31.7738 16.4458C32.06 16.0961 32.076 15.5979 31.813 15.2304L28.4181 10.4884C28.2965 10.3186 28.2312 10.115 28.2312 9.90626V4.45078C28.2312 3.8985 27.7835 3.45078 27.2312 3.45078H20.5988C20.3668 3.45078 20.1421 3.37016 19.9631 3.22272L16.5107 0.379672C16.1495 0.082247 15.6304 0.075006 15.2611 0.362241ZM15.9894 24.3054C17.0221 24.3054 17.8593 23.4683 17.8593 22.4355C17.8593 21.4028 17.0221 20.5656 15.9894 20.5656C14.9566 20.5656 14.1194 21.4028 14.1194 22.4355C14.1194 23.4683 14.9566 24.3054 15.9894 24.3054ZM12.8096 12.0289C12.8096 10.2729 14.2331 8.84933 15.9891 8.84933C17.7451 8.84933 19.1687 10.2729 19.1687 12.0289C19.1687 13.7849 17.7451 15.2084 15.9891 15.2084C15.4368 15.2084 14.9891 15.6562 14.9891 16.2084V18.1605C14.9891 18.7128 15.4368 19.1605 15.9891 19.1605C16.5414 19.1605 16.9891 18.7128 16.9891 18.1605V17.112C19.3712 16.6461 21.1687 14.5474 21.1687 12.0289C21.1687 9.1683 18.8497 6.84933 15.9891 6.84933C13.1285 6.84933 10.8096 9.1683 10.8096 12.0289C10.8096 12.5812 11.2573 13.0289 11.8096 13.0289C12.3619 13.0289 12.8096 12.5812 12.8096 12.0289Z" fill="#111827"/>
</svg>
