<svg width="32" height="32" viewBox="0 0 32 32" fill="none" xmlns="http://www.w3.org/2000/svg">
<path d="M15.2739 0.554099L11.6499 3.3726C11.4744 3.50911 11.2584 3.58323 11.036 3.58323H5.14926C4.59698 3.58323 4.14926 4.03094 4.14926 4.58323V9.91397C4.14926 10.1303 4.07909 10.3409 3.94927 10.514L0.481292 15.138C0.200078 15.513 0.217016 16.0329 0.522035 16.3888L3.90852 20.3397C4.06387 20.521 4.14926 20.7518 4.14926 20.9905V26.4104C4.14926 26.9627 4.59698 27.4104 5.14926 27.4104H10.9649C11.2301 27.4104 11.4845 27.5158 11.672 27.7033L15.1781 31.2093C15.5766 31.6078 16.2253 31.5985 16.6122 31.1888L19.8848 27.7238C20.0737 27.5238 20.3366 27.4104 20.6118 27.4104H27.0393C27.5916 27.4104 28.0393 26.9627 28.0393 26.4104V20.9776C28.0393 20.7467 28.1192 20.523 28.2653 20.3443L31.5151 16.3724C31.8012 16.0227 31.8173 15.5245 31.5542 15.1571L28.2262 10.5084C28.1046 10.3386 28.0393 10.135 28.0393 9.92624V4.58323C28.0393 4.03094 27.5916 3.58323 27.0393 3.58323H20.5395C20.3075 3.58323 20.0828 3.50261 19.9038 3.35517L16.5236 0.57153C16.1624 0.274105 15.6433 0.266864 15.2739 0.554099Z" fill="#111827"/>
</svg>
