<svg width="32" height="32" viewBox="0 0 32 32" fill="none" xmlns="http://www.w3.org/2000/svg">
<path fill-rule="evenodd" clip-rule="evenodd" d="M13.0909 6.54547C13.0909 10.1604 10.1604 13.0909 6.54547 13.0909C2.93051 13.0909 0 10.1604 0 6.54547C0 2.93051 2.93051 0 6.54547 0C10.1604 0 13.0909 2.93051 13.0909 6.54547ZM31.9998 6.54547C31.9998 10.1604 29.0693 13.0909 25.4544 13.0909C21.8394 13.0909 18.9089 10.1604 18.9089 6.54547C18.9089 2.93051 21.8394 0 25.4544 0C29.0693 0 31.9998 2.93051 31.9998 6.54547ZM6.54547 32C10.1604 32 13.0909 29.0695 13.0909 25.4545C13.0909 21.8396 10.1604 18.9091 6.54547 18.9091C2.93051 18.9091 0 21.8396 0 25.4545C0 29.0695 2.93051 32 6.54547 32ZM31.9998 25.4545C31.9998 29.0695 29.0693 32 25.4544 32C21.8394 32 18.9089 29.0695 18.9089 25.4545C18.9089 21.8396 21.8394 18.9091 25.4544 18.9091C29.0693 18.9091 31.9998 21.8396 31.9998 25.4545Z" fill="#111827"/>
</svg>
