<svg width="32" height="32" viewBox="0 0 32 32" fill="none" xmlns="http://www.w3.org/2000/svg">
<path fill-rule="evenodd" clip-rule="evenodd" d="M16.0001 14.08C19.5347 14.08 22.4001 11.2147 22.4001 7.68003C22.4001 4.14541 19.5347 1.28003 16.0001 1.28003C12.4655 1.28003 9.6001 4.14541 9.6001 7.68003C9.6001 11.2147 12.4655 14.08 16.0001 14.08ZM25.5997 30.72C29.1343 30.72 31.9997 27.8547 31.9997 24.32C31.9997 20.7854 29.1343 17.92 25.5997 17.92C22.0651 17.92 19.1997 20.7854 19.1997 24.32C19.1997 27.8547 22.0651 30.72 25.5997 30.72ZM12.8 24.32C12.8 27.8547 9.93462 30.72 6.4 30.72C2.86538 30.72 0 27.8547 0 24.32C0 20.7854 2.86538 17.92 6.4 17.92C9.93462 17.92 12.8 20.7854 12.8 24.32Z" fill="#111827"/>
</svg>
