<svg width="33" height="33" viewBox="0 0 33 33" fill="none" xmlns="http://www.w3.org/2000/svg">
<path fill-rule="evenodd" clip-rule="evenodd" d="M16.2575 4.82143L13.7651 6.75981C13.5896 6.89633 13.3736 6.97044 13.1512 6.97044H9.07191C8.51962 6.97044 8.07191 7.41815 8.07191 7.97044V11.6352C8.07191 11.8515 8.00173 12.0621 7.87191 12.2352L5.44125 15.4761C5.16004 15.851 5.17698 16.371 5.482 16.7269L7.83117 19.4676C7.98652 19.6488 8.07191 19.8797 8.07191 20.1184V23.8408C8.07191 24.3931 8.51962 24.8408 9.07191 24.8408H13.0801C13.3453 24.8408 13.5996 24.9462 13.7872 25.1337L16.1616 27.5081C16.5601 27.9066 17.2089 27.8973 17.5958 27.4876L19.7995 25.1542C19.9884 24.9542 20.2514 24.8408 20.5266 24.8408H24.9894C25.5417 24.8408 25.9894 24.3931 25.9894 23.8408V20.1054C25.9894 19.8746 26.0693 19.6509 26.2155 19.4722L28.475 16.7105C28.7612 16.3608 28.7772 15.8626 28.5142 15.4951L26.1763 12.2296C26.0548 12.0598 25.9894 11.8562 25.9894 11.6474V7.97044C25.9894 7.41816 25.5417 6.97044 24.9894 6.97044H20.4543C20.2223 6.97044 19.9976 6.88982 19.8186 6.74238L17.5071 4.83886C17.1459 4.54144 16.6268 4.5342 16.2575 4.82143ZM16.96 9.91309C17.5122 9.91309 17.96 10.3608 17.96 10.9131V17.2341C17.96 17.7864 17.5122 18.2341 16.96 18.2341C16.4077 18.2341 15.96 17.7864 15.96 17.2341V10.9131C15.96 10.3608 16.4077 9.91309 16.96 9.91309ZM18.3145 21.2979C18.3145 22.0459 17.708 22.6524 16.96 22.6524C16.2119 22.6524 15.6055 22.0459 15.6055 21.2979C15.6055 20.5498 16.2119 19.9434 16.96 19.9434C17.708 19.9434 18.3145 20.5498 18.3145 21.2979Z" fill="#1C1B1F"/>
</svg>
