<svg width="33" height="33" viewBox="0 0 33 33" fill="none" xmlns="http://www.w3.org/2000/svg">
<path d="M16.9602 14.8429C19.6111 14.8429 21.7602 12.6939 21.7602 10.0429C21.7602 7.39195 19.6111 5.24292 16.9602 5.24292C14.3092 5.24292 12.1602 7.39195 12.1602 10.0429C12.1602 12.6939 14.3092 14.8429 16.9602 14.8429Z" fill="#1C1B1F"/>
<path d="M24.1599 27.3229C26.8108 27.3229 28.9599 25.1739 28.9599 22.5229C28.9599 19.8719 26.8108 17.7229 24.1599 17.7229C21.5089 17.7229 19.3599 19.8719 19.3599 22.5229C19.3599 25.1739 21.5089 27.3229 24.1599 27.3229Z" fill="#1C1B1F"/>
<path d="M9.75996 27.3229C12.4109 27.3229 14.56 25.1739 14.56 22.5229C14.56 19.8719 12.4109 17.7229 9.75996 17.7229C7.10899 17.7229 4.95996 19.8719 4.95996 22.5229C4.95996 25.1739 7.10899 27.3229 9.75996 27.3229Z" fill="#1C1B1F"/>
</svg>
