<svg width="32" height="32" viewBox="0 0 32 32" fill="none" xmlns="http://www.w3.org/2000/svg">
<path fill-rule="evenodd" clip-rule="evenodd" d="M13.0909 6.54545C13.0909 10.1604 10.1604 13.0909 6.54545 13.0909C2.9305 13.0909 0 10.1604 0 6.54545C0 2.9305 2.9305 0 6.54545 0C10.1604 0 13.0909 2.9305 13.0909 6.54545ZM31.9996 6.54545C31.9996 10.1604 29.0691 13.0909 25.4541 13.0909C21.8392 13.0909 18.9087 10.1604 18.9087 6.54545C18.9087 2.9305 21.8392 0 25.4541 0C29.0691 0 31.9996 2.9305 31.9996 6.54545ZM6.54545 32C10.1604 32 13.0909 29.0695 13.0909 25.4545C13.0909 21.8396 10.1604 18.9091 6.54545 18.9091C2.9305 18.9091 0 21.8396 0 25.4545C0 29.0695 2.9305 32 6.54545 32ZM31.9996 25.4545C31.9996 29.0695 29.0691 32 25.4541 32C21.8392 32 18.9087 29.0695 18.9087 25.4545C18.9087 21.8396 21.8392 18.9091 25.4541 18.9091C29.0691 18.9091 31.9996 21.8396 31.9996 25.4545Z" fill="#111827"/>
</svg>
