<svg width="32" height="32" viewBox="0 0 32 32" fill="none" xmlns="http://www.w3.org/2000/svg">
<path fill-rule="evenodd" clip-rule="evenodd" d="M6.54545 13.0909C10.1604 13.0909 13.0909 10.1604 13.0909 6.54545C13.0909 2.9305 10.1604 0 6.54545 0C2.9305 0 0 2.9305 0 6.54545C0 10.1604 2.9305 13.0909 6.54545 13.0909ZM25.4541 13.0909C29.0691 13.0909 31.9996 10.1604 31.9996 6.54545C31.9996 2.9305 29.0691 0 25.4541 0C21.8392 0 18.9087 2.9305 18.9087 6.54545C18.9087 10.1604 21.8392 13.0909 25.4541 13.0909ZM13.0909 25.4545C13.0909 29.0695 10.1604 32 6.54545 32C2.9305 32 0 29.0695 0 25.4545C0 21.8396 2.9305 18.9091 6.54545 18.9091C10.1604 18.9091 13.0909 21.8396 13.0909 25.4545ZM25.4546 19.3636C26.0069 19.3636 26.4546 19.8114 26.4546 20.3636V24.4546H30.5456C31.0979 24.4546 31.5456 24.9023 31.5456 25.4546C31.5456 26.0069 31.0979 26.4546 30.5456 26.4546H26.4546V30.5455C26.4546 31.0977 26.0069 31.5455 25.4546 31.5455C24.9023 31.5455 24.4546 31.0977 24.4546 30.5455V26.4546H20.3638C19.8115 26.4546 19.3638 26.0069 19.3638 25.4546C19.3638 24.9023 19.8115 24.4546 20.3638 24.4546H24.4546V20.3636C24.4546 19.8114 24.9023 19.3636 25.4546 19.3636Z" fill="#111827"/>
</svg>
