<svg width="32" height="32" viewBox="0 0 32 32" fill="none" xmlns="http://www.w3.org/2000/svg">
<path fill-rule="evenodd" clip-rule="evenodd" d="M22.1662 3.48012H27.3999C27.9522 3.48012 28.3999 3.92783 28.3999 4.48012V30.9998C28.3999 31.5521 27.9522 31.9998 27.3999 31.9998H4.6001C4.04781 31.9998 3.6001 31.5521 3.6001 30.9998V4.48012C3.6001 3.92783 4.04781 3.48012 4.6001 3.48012H9.83473C11.0958 1.39438 13.3853 0.00012207 16.0005 0.00012207C18.6156 0.00012207 20.9052 1.39438 22.1662 3.48012ZM10.8005 7.20006C10.8005 4.32822 13.1286 2.00012 16.0005 2.00012C18.8723 2.00012 21.2004 4.32822 21.2004 7.20006V7.44005H10.8005V7.20006ZM10.8328 14.2083C10.2805 14.2083 9.83282 14.656 9.83282 15.2083C9.83282 15.7606 10.2805 16.2083 10.8328 16.2083H21.1661C21.7183 16.2083 22.1661 15.7606 22.1661 15.2083C22.1661 14.656 21.7183 14.2083 21.1661 14.2083H10.8328ZM10.8328 19.3749C10.2805 19.3749 9.83282 19.8227 9.83282 20.3749C9.83282 20.9272 10.2805 21.3749 10.8328 21.3749H21.1661C21.7183 21.3749 22.1661 20.9272 22.1661 20.3749C22.1661 19.8227 21.7183 19.3749 21.1661 19.3749H10.8328Z" fill="#111827"/>
</svg>
