<svg width="33" height="33" viewBox="0 0 33 33" fill="none" xmlns="http://www.w3.org/2000/svg">
<path fill-rule="evenodd" clip-rule="evenodd" d="M21.9957 6.20291H25.5599C26.1122 6.20291 26.5599 6.65063 26.5599 7.20291V27.2829C26.5599 27.8352 26.1121 28.2829 25.5599 28.2829H8.35986C7.80758 28.2829 7.35986 27.8352 7.35986 27.2829V7.20291C7.35986 6.65063 7.80758 6.20291 8.35986 6.20291H11.9246C12.9245 4.45826 14.8051 3.2829 16.9602 3.2829C19.1152 3.2829 20.9958 4.45826 21.9957 6.20291ZM16.9602 5.2829C19.0455 5.2829 20.7385 6.96264 20.76 9.0429H13.1604C13.1818 6.96264 14.8748 5.2829 16.9602 5.2829ZM12.96 14.2829C12.4077 14.2829 11.96 14.7306 11.96 15.2829C11.96 15.8352 12.4077 16.2829 12.96 16.2829H20.96C21.5122 16.2829 21.96 15.8352 21.96 15.2829C21.96 14.7306 21.5122 14.2829 20.96 14.2829H12.96ZM12.96 18.2829C12.4077 18.2829 11.96 18.7306 11.96 19.2829C11.96 19.8352 12.4077 20.2829 12.96 20.2829H20.96C21.5122 20.2829 21.96 19.8352 21.96 19.2829C21.96 18.7306 21.5122 18.2829 20.96 18.2829H12.96Z" fill="#1C1B1F"/>
</svg>
