<svg width="33" height="33" viewBox="0 0 33 33" fill="none" xmlns="http://www.w3.org/2000/svg">
<path fill-rule="evenodd" clip-rule="evenodd" d="M21.9953 6.20291H25.5599C26.1122 6.20291 26.5599 6.65063 26.5599 7.20291V27.2829C26.5599 27.8352 26.1121 28.2829 25.5599 28.2829H8.35986C7.80758 28.2829 7.35986 27.8352 7.35986 27.2829V7.20291C7.35986 6.65063 7.80758 6.20291 8.35986 6.20291H11.9241C12.924 4.45826 14.8046 3.2829 16.9597 3.2829C19.1147 3.2829 20.9953 4.45826 21.9953 6.20291ZM16.9597 5.2829C19.045 5.2829 20.738 6.96264 20.7595 9.0429H13.1599C13.1813 6.96264 14.8743 5.2829 16.9597 5.2829Z" fill="#1C1B1F"/>
</svg>
