<svg width="32" height="33" viewBox="0 0 32 33" fill="none" xmlns="http://www.w3.org/2000/svg">
<path fill-rule="evenodd" clip-rule="evenodd" d="M13.6737 1.46066C16.6482 0.868996 19.7313 1.17266 22.5332 2.33325C25.3351 3.49384 27.73 5.45924 29.4149 7.9809C31.0998 10.5026 31.9991 13.4672 31.9991 16.5C31.9991 19.5328 31.0998 22.4974 29.4149 25.0191C27.73 27.5408 25.3351 29.5062 22.5332 30.6667C19.7313 31.8273 16.6482 32.131 13.6737 31.5393C10.6992 30.9477 7.9669 29.4873 5.82241 27.3428C5.43188 26.9522 5.43188 26.3191 5.82241 25.9285C6.21293 25.538 6.8461 25.538 7.23662 25.9285C9.10141 27.7933 11.4773 29.0633 14.0638 29.5778C16.6504 30.0923 19.3314 29.8282 21.7679 28.819C24.2043 27.8098 26.2868 26.1007 27.752 23.908C29.2171 21.7152 29.9991 19.1372 29.9991 16.5C29.9991 13.8628 29.2171 11.2848 27.752 9.09204C26.2868 6.89928 24.2043 5.19023 21.7679 4.18101C19.3314 3.17179 16.6504 2.90774 14.0638 3.42223C11.4773 3.93673 9.10141 5.20666 7.23662 7.07145L3.41514 10.8929H9.15248C9.70476 10.8929 10.1525 11.3406 10.1525 11.8929C10.1525 12.4452 9.70476 12.8929 9.15248 12.8929H1.0014C0.905464 12.8929 0.812682 12.8794 0.724853 12.8542C0.567043 12.809 0.418166 12.7243 0.29387 12.6C0.091159 12.3973 -0.00633002 12.1292 0.00140278 11.8636L0.00140283 3.74186C0.00140283 3.18957 0.449119 2.74186 1.0014 2.74186C1.55369 2.74186 2.0014 3.18957 2.0014 3.74186V9.47824L5.82241 5.65724C7.9669 3.51274 10.6992 2.05233 13.6737 1.46066ZM17.6652 8.68137C17.6652 8.12909 17.2175 7.68137 16.6652 7.68137C16.1129 7.68137 15.6652 8.12909 15.6652 8.68137V16.4809C15.6644 16.5232 15.6664 16.5654 15.6709 16.6073C15.703 16.9023 15.8655 17.1793 16.1342 17.3475C16.1473 17.3557 16.1606 17.3636 16.1741 17.3712L22.9363 21.2753C23.4145 21.5515 24.0261 21.3876 24.3023 20.9093C24.5784 20.431 24.4145 19.8194 23.9363 19.5433L17.6652 15.9227V8.68137Z" fill="#111827"/>
</svg>
