<svg width="32" height="33" viewBox="0 0 32 33" fill="none" xmlns="http://www.w3.org/2000/svg">
<path fill-rule="evenodd" clip-rule="evenodd" d="M32 16.5C32 25.3366 24.8366 32.5 16 32.5C7.16344 32.5 0 25.3366 0 16.5C0 7.66344 7.16344 0.5 16 0.5C24.8366 0.5 32 7.66344 32 16.5ZM17 7.16667C17 6.61438 16.5523 6.16667 16 6.16667C15.4477 6.16667 15 6.61438 15 7.16667V16.5C15 17.0523 15.4477 17.5 16 17.5H25.3333C25.8856 17.5 26.3333 17.0523 26.3333 16.5C26.3333 15.9477 25.8856 15.5 25.3333 15.5H17V7.16667Z" fill="#111827"/>
</svg>
