<svg width="33" height="33" viewBox="0 0 33 33" fill="none" xmlns="http://www.w3.org/2000/svg">
<path fill-rule="evenodd" clip-rule="evenodd" d="M18.47 6.51633C16.4394 6.11242 14.3347 6.31972 12.4219 7.11201C10.5092 7.9043 8.87433 9.24599 7.72411 10.9674C6.57389 12.6888 5.95996 14.7127 5.95996 16.783C5.95996 18.8534 6.57389 20.8772 7.72411 22.5987C8.87433 24.3201 10.5092 25.6618 12.4219 26.4541C14.3347 27.2464 16.4394 27.4537 18.47 27.0498C20.5006 26.6459 22.3657 25.6489 23.8297 24.1849C24.2202 23.7944 24.8534 23.7944 25.2439 24.1849C25.6344 24.5755 25.6344 25.2086 25.2439 25.5991C23.5003 27.3428 21.2787 28.5303 18.8602 29.0113C16.4416 29.4924 13.9348 29.2455 11.6566 28.3018C9.37837 27.3582 7.43116 25.7601 6.06117 23.7098C4.69119 21.6595 3.95996 19.249 3.95996 16.783C3.95996 14.3171 4.69119 11.9066 6.06117 9.85628C7.43116 7.80595 9.37837 6.20791 11.6566 5.26425C13.9348 4.32059 16.4416 4.07368 18.8602 4.55476C21.2787 5.03583 23.5003 6.22328 25.2439 7.96694L27.9598 10.6828V6.84185C27.9598 6.28957 28.4075 5.84185 28.9598 5.84185C29.5121 5.84185 29.9598 6.28957 29.9598 6.84185V13.0819C29.9637 13.3429 29.8661 13.6051 29.667 13.8042C29.4683 14.0029 29.2068 14.1005 28.9464 14.097H22.7046C22.1523 14.097 21.7046 13.6493 21.7046 13.097C21.7046 12.5448 22.1523 12.097 22.7046 12.097H26.5456L23.8297 9.38115C22.3657 7.9172 20.5006 6.92023 18.47 6.51633ZM17.4277 10.5278C17.4277 9.97555 16.98 9.52783 16.4277 9.52783C15.8754 9.52783 15.4277 9.97555 15.4277 10.5278V16.7638C15.427 16.8029 15.4286 16.842 15.4324 16.8807C15.4472 17.0327 15.4959 17.1747 15.571 17.299C15.6349 17.4054 15.7193 17.5009 15.8225 17.5791C15.8618 17.6091 15.9034 17.6361 15.9469 17.6601L21.3449 20.7766C21.8232 21.0527 22.4348 20.8888 22.7109 20.4106C22.9871 19.9323 22.8232 19.3207 22.3449 19.0445L17.4277 16.2056V10.5278Z" fill="#1C1B1F"/>
</svg>
