<svg width="33" height="33" viewBox="0 0 33 33" fill="none" xmlns="http://www.w3.org/2000/svg">
<path fill-rule="evenodd" clip-rule="evenodd" d="M15.0597 4.55464C17.4782 4.07356 19.9851 4.32047 22.2633 5.26413C24.5415 6.20779 26.4887 7.80583 27.8587 9.85617C29.2287 11.9065 29.96 14.317 29.96 16.7829C29.96 19.2489 29.2287 21.6594 27.8587 23.7097C26.4887 25.7601 24.5415 27.3581 22.2633 28.3018C19.9851 29.2454 17.4782 29.4923 15.0597 29.0113C12.6412 28.5302 10.4196 27.3427 8.67595 25.5991C8.28543 25.2085 8.28543 24.5754 8.67595 24.1849C9.06648 23.7943 9.69964 23.7943 10.0902 24.1849C11.5541 25.6488 13.4193 26.6458 15.4499 27.0497C17.4805 27.4536 19.5852 27.2463 21.498 26.454C23.4107 25.6617 25.0456 24.32 26.1958 22.5986C27.346 20.8772 27.96 18.8533 27.96 16.7829C27.96 14.7126 27.346 12.6887 26.1958 10.9673C25.0456 9.24587 23.4107 7.90418 21.498 7.11189C19.5852 6.3196 17.4805 6.1123 15.4499 6.51621C13.4193 6.92011 11.5541 7.91708 10.0902 9.38104L7.37416 12.097H11.4814C12.0337 12.097 12.4814 12.5448 12.4814 13.097C12.4814 13.6493 12.0337 14.097 11.4814 14.097H4.96019C4.85359 14.097 4.75088 14.0804 4.65454 14.0495C4.50763 14.0025 4.36943 13.9207 4.25285 13.8041C4.05212 13.6034 3.95457 13.3386 3.96019 13.0755V6.57579C3.96019 6.02351 4.40791 5.57579 4.96019 5.57579C5.51248 5.57579 5.96019 6.02351 5.96019 6.57579V10.6826L8.67595 7.96683C10.4196 6.22316 12.6412 5.03571 15.0597 4.55464ZM18.4922 10.5277C18.4922 9.97543 18.0445 9.52771 17.4922 9.52771C16.9399 9.52771 16.4922 9.97543 16.4922 10.5277V16.7638C16.4914 16.8043 16.4932 16.8447 16.4973 16.8849C16.5115 17.025 16.5546 17.1566 16.6206 17.2736C16.6928 17.4021 16.7942 17.5161 16.9219 17.6045C16.9493 17.6235 16.9777 17.6412 17.007 17.6575L22.4094 20.7766C22.8876 21.0527 23.4992 20.8889 23.7754 20.4106C24.0515 19.9323 23.8876 19.3207 23.4094 19.0445L18.4922 16.2056V10.5277Z" fill="#1C1B1F"/>
</svg>
