<svg width="33" height="33" viewBox="0 0 33 33" fill="none" xmlns="http://www.w3.org/2000/svg">
<path fill-rule="evenodd" clip-rule="evenodd" d="M16.96 28.783C23.5874 28.783 28.96 23.4104 28.96 16.783C28.96 10.1555 23.5874 4.78296 16.96 4.78296C10.3325 4.78296 4.95996 10.1555 4.95996 16.783C4.95996 23.4104 10.3325 28.783 16.96 28.783ZM16.5772 15.8588C16.6942 15.8103 16.8225 15.7834 16.957 15.783C16.958 15.783 16.959 15.783 16.96 15.783H16.9607H23.96C24.5122 15.783 24.96 16.2307 24.96 16.783C24.96 17.3352 24.5122 17.783 23.96 17.783H19.3742L22.6168 21.0256C23.0073 21.4161 23.0073 22.0493 22.6168 22.4398C22.2263 22.8303 21.5931 22.8303 21.2026 22.4398L16.2536 17.4908C16.2512 17.4884 16.2487 17.4859 16.2464 17.4835C16.1537 17.3892 16.0835 17.281 16.0358 17.1657C15.9873 17.0487 15.9604 16.9205 15.96 16.786C15.96 16.785 15.96 16.784 15.96 16.783C15.96 16.782 15.96 16.781 15.96 16.78C15.9608 16.5083 16.0699 16.2622 16.2464 16.0824C16.2507 16.078 16.255 16.0737 16.2594 16.0694C16.3538 15.9767 16.4619 15.9065 16.5772 15.8588Z" fill="#1C1B1F"/>
</svg>
