<svg width="32" height="33" viewBox="0 0 32 33" fill="none" xmlns="http://www.w3.org/2000/svg">
<path fill-rule="evenodd" clip-rule="evenodd" d="M17.9363 3.42223C15.3497 2.90774 12.6687 3.17179 10.2323 4.18101C7.7958 5.19023 5.71331 6.89928 4.24816 9.09204C2.783 11.2848 2.00098 13.8628 2.00098 16.5C2.00098 19.1372 2.783 21.7152 4.24816 23.908C5.71331 26.1007 7.7958 27.8098 10.2323 28.819C12.6687 29.8282 15.3497 30.0923 17.9363 29.5778C20.5228 29.0633 22.8987 27.7933 24.7635 25.9285C25.154 25.538 25.7872 25.538 26.1777 25.9285C26.5682 26.3191 26.5682 26.9522 26.1777 27.3428C24.0332 29.4873 21.301 30.9477 18.3265 31.5393C15.352 32.131 12.2688 31.8273 9.4669 30.6667C6.66498 29.5062 4.27014 27.5408 2.58522 25.0191C0.900299 22.4974 0.000976562 19.5328 0.000976562 16.5C0.000976562 13.4672 0.900299 10.5026 2.58522 7.9809C4.27014 5.45924 6.66498 3.49384 9.4669 2.33325C12.2688 1.17266 15.352 0.868996 18.3265 1.46066C21.301 2.05233 24.0332 3.51274 26.1777 5.65724L29.999 9.4785V4.07427C29.999 3.52199 30.4467 3.07427 30.999 3.07427C31.5513 3.07427 31.999 3.52199 31.999 4.07427V11.8744C32.0038 12.1365 31.9062 12.4 31.7063 12.6C31.5078 12.7984 31.2467 12.896 30.9867 12.8928H23.1804C22.6282 12.8928 22.1804 12.4451 22.1804 11.8928C22.1804 11.3405 22.6282 10.8928 23.1804 10.8928H28.5849L24.7635 7.07145C22.8987 5.20666 20.5228 3.93673 17.9363 3.42223ZM16.3349 8.68137C16.3349 8.12909 15.8872 7.68137 15.3349 7.68137C14.7826 7.68137 14.3349 8.12909 14.3349 8.68137V16.4807C14.3342 16.5209 14.3358 16.5609 14.3399 16.6006C14.3542 16.7434 14.3985 16.8772 14.4664 16.9959C14.537 17.1199 14.635 17.2301 14.7576 17.3166C14.7875 17.3377 14.8186 17.3573 14.8508 17.3751L21.6059 21.2752C22.0842 21.5514 22.6958 21.3875 22.972 20.9092C23.2481 20.4309 23.0842 19.8193 22.6059 19.5432L16.3349 15.9226V8.68137Z" fill="#111827"/>
</svg>
