<svg width="33" height="33" viewBox="0 0 33 33" fill="none" xmlns="http://www.w3.org/2000/svg">
<path fill-rule="evenodd" clip-rule="evenodd" d="M28.96 16.783C28.96 23.4104 23.5874 28.783 16.96 28.783C10.3325 28.783 4.95996 23.4104 4.95996 16.783C4.95996 10.1555 10.3325 4.78296 16.96 4.78296C23.5874 4.78296 28.96 10.1555 28.96 16.783ZM17.96 9.78296C17.96 9.23067 17.5122 8.78296 16.96 8.78296C16.4077 8.78296 15.96 9.23067 15.96 9.78296V16.783C15.96 17.3352 16.4077 17.783 16.96 17.783H23.96C24.5122 17.783 24.96 17.3352 24.96 16.783C24.96 16.2307 24.5122 15.783 23.96 15.783H17.96V9.78296Z" fill="#1C1B1F"/>
</svg>
