<svg width="32" height="33" viewBox="0 0 32 33" fill="none" xmlns="http://www.w3.org/2000/svg">
<path fill-rule="evenodd" clip-rule="evenodd" d="M16 32.5C24.8366 32.5 32 25.3366 32 16.5C32 7.66344 24.8366 0.5 16 0.5C7.16344 0.5 0 7.66344 0 16.5C0 25.3366 7.16344 32.5 16 32.5ZM15.6172 15.5759C15.7343 15.5273 15.8625 15.5004 15.997 15.5C15.998 15.5 15.999 15.5 16 15.5H16.0007H25.3333C25.8856 15.5 26.3333 15.9477 26.3333 16.5C26.3333 17.0523 25.8856 17.5 25.3333 17.5H18.4142L23.3068 22.3926C23.6973 22.7831 23.6973 23.4162 23.3068 23.8068C22.9162 24.1973 22.2831 24.1973 21.8926 23.8068L15.2929 17.2071C15.197 17.1112 15.1247 17.0007 15.0759 16.8828C15.0273 16.7657 15.0004 16.6375 15 16.503C15 16.502 15 16.501 15 16.5C15 16.499 15 16.498 15 16.497C15.0008 16.2254 15.1099 15.9792 15.2864 15.7995C15.2907 15.7951 15.2951 15.7907 15.2995 15.7864C15.3938 15.6937 15.502 15.6236 15.6172 15.5759Z" fill="#111827"/>
</svg>
