<svg width="33" height="33" viewBox="0 0 33 33" fill="none" xmlns="http://www.w3.org/2000/svg">
<path fill-rule="evenodd" clip-rule="evenodd" d="M4.95996 7.28296C4.95996 7.00682 5.18382 6.78296 5.45996 6.78296H28.46C28.7361 6.78296 28.96 7.00682 28.96 7.28296V26.283C28.96 26.5591 28.7361 26.783 28.46 26.783H5.45996C5.18382 26.783 4.95996 26.5591 4.95996 26.283V7.28296ZM13.4665 14.3348C12.9801 14.2342 12.4749 14.2807 12.0151 14.4684C11.5553 14.6561 11.1618 14.9765 10.8848 15.3887C10.6079 15.8009 10.46 16.2863 10.46 16.783C10.46 17.2796 10.6079 17.765 10.8848 18.1772C11.1618 18.5894 11.5553 18.9098 12.0151 19.0975C12.4748 19.2852 12.9801 19.3317 13.4664 19.2311C13.9528 19.1305 14.3981 18.8873 14.7457 18.5326C15.1322 18.1381 15.7653 18.1316 16.1598 18.5181C16.5543 18.9047 16.5608 19.5378 16.1743 19.9323C15.5486 20.5708 14.747 21.0085 13.8716 21.1896C12.9962 21.3707 12.0867 21.287 11.2591 20.9492C10.4315 20.6113 9.72327 20.0346 9.22474 19.2926C8.7262 18.5506 8.45996 17.6769 8.45996 16.7829C8.45996 15.889 8.72621 15.0153 9.22475 14.2733C9.72329 13.5313 10.4315 12.9546 11.2591 12.6168C12.0868 12.2789 12.9963 12.1952 13.8717 12.3763C14.747 12.5574 15.5487 12.9951 16.1743 13.6336C16.5608 14.0281 16.5543 14.6613 16.1598 15.0478C15.7653 15.4343 15.1322 15.4278 14.7457 15.0333C14.3981 14.6786 13.9528 14.4354 13.4665 14.3348ZM21.0151 14.4684C21.4749 14.2807 21.9801 14.2342 22.4665 14.3348C22.9528 14.4354 23.3981 14.6786 23.7457 15.0333C24.1322 15.4278 24.7653 15.4343 25.1598 15.0478C25.5543 14.6613 25.5608 14.0281 25.1743 13.6336C24.5487 12.9951 23.747 12.5574 22.8717 12.3763C21.9963 12.1952 21.0868 12.2789 20.2591 12.6168C19.4315 12.9546 18.7233 13.5313 18.2247 14.2733C17.7262 15.0153 17.46 15.889 17.46 16.7829C17.46 17.6769 17.7262 18.5506 18.2247 19.2926C18.7233 20.0346 19.4315 20.6113 20.2591 20.9492C21.0867 21.287 21.9962 21.3707 22.8716 21.1896C23.747 21.0085 24.5486 20.5708 25.1743 19.9323C25.5608 19.5378 25.5543 18.9047 25.1598 18.5181C24.7653 18.1316 24.1322 18.1381 23.7457 18.5326C23.3981 18.8873 22.9528 19.1305 22.4664 19.2311C21.9801 19.3317 21.4748 19.2852 21.0151 19.0975C20.5553 18.9098 20.1618 18.5894 19.8848 18.1772C19.6079 17.765 19.46 17.2796 19.46 16.783C19.46 16.2863 19.6079 15.8009 19.8848 15.3887C20.1618 14.9765 20.5553 14.6561 21.0151 14.4684Z" fill="#1C1B1F"/>
</svg>
