<svg width="32" height="33" viewBox="0 0 32 33" fill="none" xmlns="http://www.w3.org/2000/svg">
<path fill-rule="evenodd" clip-rule="evenodd" d="M0 3.6665C0 3.39036 0.223858 3.1665 0.5 3.1665H31.5C31.7761 3.1665 32 3.39036 32 3.6665V29.3332C32 29.6093 31.7761 29.8332 31.5 29.8332H0.5C0.223858 29.8332 0 29.6093 0 29.3332V3.6665ZM11.4095 12.9092C10.6962 12.7616 9.95518 12.8299 9.28082 13.1052C8.60646 13.3805 8.02938 13.8504 7.62316 14.455C7.21694 15.0596 7 15.7714 7 16.4998C7 17.2282 7.21694 17.9401 7.62315 18.5447C8.02936 19.1493 8.60644 19.6192 9.2808 19.8945C9.95516 20.1698 10.6962 20.238 11.4095 20.0905C12.1228 19.9429 12.776 19.5862 13.2857 19.066C13.6722 18.6715 14.3054 18.665 14.6999 19.0515C15.0944 19.438 15.1008 20.0712 14.7143 20.4657C13.9265 21.2697 12.917 21.8209 11.8147 22.049C10.7124 22.2771 9.56706 22.1716 8.52487 21.7462C7.48269 21.3207 6.59083 20.5945 5.96305 19.6601C5.33526 18.7257 5 17.6255 5 16.4998C5 15.3741 5.33528 14.2739 5.96307 13.3396C6.59086 12.4052 7.48271 11.679 8.5249 11.2535C9.56709 10.828 10.7124 10.7226 11.8147 10.9507C12.9171 11.1788 13.9265 11.73 14.7143 12.534C15.1008 12.9285 15.0944 13.5617 14.6999 13.9482C14.3054 14.3347 13.6723 14.3282 13.2857 13.9337C12.776 13.4135 12.1228 13.0568 11.4095 12.9092ZM21.2808 13.1052C21.9552 12.8299 22.6962 12.7616 23.4095 12.9092C24.1228 13.0568 24.776 13.4135 25.2857 13.9337C25.6723 14.3282 26.3054 14.3347 26.6999 13.9482C27.0944 13.5617 27.1008 12.9285 26.7143 12.534C25.9265 11.73 24.9171 11.1788 23.8147 10.9507C22.7124 10.7226 21.5671 10.828 20.5249 11.2535C19.4827 11.679 18.5909 12.4052 17.9631 13.3396C17.3353 14.2739 17 15.3741 17 16.4998C17 17.6255 17.3353 18.7257 17.963 19.6601C18.5908 20.5945 19.4827 21.3207 20.5249 21.7462C21.5671 22.1716 22.7124 22.2771 23.8147 22.049C24.917 21.8209 25.9265 21.2697 26.7143 20.4657C27.1008 20.0712 27.0944 19.438 26.6999 19.0515C26.3054 18.665 25.6722 18.6715 25.2857 19.066C24.776 19.5862 24.1228 19.9429 23.4095 20.0905C22.6962 20.238 21.9552 20.1698 21.2808 19.8945C20.6064 19.6192 20.0294 19.1493 19.6231 18.5447C19.2169 17.9401 19 17.2282 19 16.4998C19 15.7714 19.2169 15.0596 19.6232 14.455C20.0294 13.8504 20.6065 13.3805 21.2808 13.1052Z" fill="#111827"/>
</svg>
