<svg width="32" height="33" viewBox="0 0 32 33" fill="none" xmlns="http://www.w3.org/2000/svg">
<path d="M9.98311 12.1759C8.88364 11.895 7.737 11.8511 6.61927 12.0471C5.50155 12.2432 4.43831 12.6748 3.50013 13.3132C2.56196 13.9517 1.7703 14.7823 1.17771 15.7501C0.58512 16.7179 0.205147 17.8006 0.0630143 18.9265C-0.0791187 20.0523 0.0198389 21.1956 0.353318 22.2802C0.686798 23.3649 1.24717 24.3663 1.99725 25.2178C2.74732 26.0694 3.66994 26.7517 4.70386 27.2194C5.73779 27.6871 6.85937 27.9296 7.99416 27.9307H20.8011C23.3827 27.9307 25.9599 27.2259 27.8218 25.4376C28.4718 24.8134 29.1297 24.1101 29.7141 23.3588C30.8007 21.9097 31.5275 20.2232 31.8346 18.4382C32.1416 16.6531 32.0201 14.8207 31.48 13.0918C30.9399 11.363 29.9967 9.78721 28.7282 8.49437C27.4597 7.20152 25.9021 6.22861 24.1838 5.6558C22.4655 5.08299 20.6357 4.92668 18.8452 5.19976C17.0546 5.47284 15.3546 6.16748 13.8852 7.22645C12.4158 8.28541 10.8086 10.5637 9.98311 12.1759Z" fill="#111827"/>
</svg>
