<svg width="33" height="33" viewBox="0 0 33 33" fill="none" xmlns="http://www.w3.org/2000/svg">
<path fill-rule="evenodd" clip-rule="evenodd" d="M10.7063 9.43501C11.4515 9.30429 12.2159 9.33355 12.9489 9.52085C13.4992 8.44605 14.5706 6.92718 15.5502 6.2212C16.5299 5.51522 17.6632 5.05212 18.8569 4.87007C20.0506 4.68802 21.2705 4.79222 22.416 5.1741C23.5615 5.55597 24.5999 6.20458 25.4456 7.06648C26.2913 7.92838 26.9201 8.9789 27.2801 10.1315C27.6402 11.284 27.7212 12.5057 27.5165 13.6957C27.3118 14.8857 26.8273 16.0101 26.1028 16.9761C25.7132 17.477 25.2747 17.9458 24.8414 18.362C23.6001 19.5542 21.8819 20.024 20.1609 20.024H18.0358C18.2747 20.3544 18.2955 20.812 18.0542 21.1696L14.408 26.5731C14.0991 27.0309 13.4776 27.1516 13.0198 26.8427C12.5619 26.5338 12.4412 25.9122 12.7502 25.4544L16.3963 20.0509C16.4024 20.0418 16.4087 20.0329 16.4151 20.024H11.6229C10.8664 20.0233 10.1186 19.8617 9.42937 19.5499C8.74008 19.238 8.125 18.7832 7.62495 18.2155C7.12491 17.6478 6.75132 16.9802 6.529 16.2571C6.30668 15.534 6.24071 14.7718 6.33547 14.0212C6.43022 13.2707 6.68354 12.5488 7.0786 11.9036C7.47366 11.2585 8.00143 10.7047 8.62688 10.2791C9.25233 9.85345 9.96115 9.56573 10.7063 9.43501ZM19.6211 23.332C20.0826 23.6355 20.2107 24.2555 19.9073 24.717L16.8727 29.3324C16.5693 29.7938 15.9492 29.922 15.4877 29.6186C15.0263 29.3151 14.8981 28.6951 15.2015 28.2336L18.2362 23.6182C18.5396 23.1567 19.1596 23.0286 19.6211 23.332Z" fill="#1C1B1F"/>
</svg>
