<svg width="32" height="33" viewBox="0 0 32 33" fill="none" xmlns="http://www.w3.org/2000/svg">
<path fill-rule="evenodd" clip-rule="evenodd" d="M14.8941 4.88078C15.0261 4.74881 15.1858 4.66143 15.3544 4.61866C15.4404 4.59686 15.5287 4.58664 15.6168 4.58801C15.8944 4.59218 16.1446 4.70946 16.3233 4.89583L19.0574 7.62985C19.4479 8.02038 19.4479 8.65354 19.0574 9.04407C18.6669 9.43459 18.0337 9.43459 17.6432 9.04407L16.6015 8.00242V12.6755C17.0592 12.5181 17.5316 12.4015 18.0133 12.3281C19.2803 12.1348 20.5751 12.2454 21.7909 12.6507C23.0068 13.0561 24.1089 13.7445 25.0065 14.6593C25.0366 14.69 25.0665 14.7209 25.0961 14.752L28.5994 11.2487H27.0969C26.5446 11.2487 26.0969 10.8009 26.0969 10.2487C26.0969 9.69637 26.5446 9.24865 27.0969 9.24865H30.9847C31.2499 9.24865 31.5043 9.35401 31.6918 9.54154L31.6978 9.54762L31.7063 9.556C31.945 9.79471 32.0378 10.1241 31.9847 10.4333V14.1364C31.9847 14.6887 31.537 15.1364 30.9847 15.1364C30.4324 15.1364 29.9847 14.6887 29.9847 14.1364V12.6918L26.2954 16.3812C26.566 16.8659 26.787 17.3789 26.9537 17.9125C27.3358 19.1358 27.4218 20.4324 27.2046 21.6955C26.9873 22.9586 26.473 24.152 25.7041 25.1773C25.2906 25.709 24.8251 26.2066 24.3652 26.6483C23.0477 27.9137 21.224 28.4124 19.3973 28.4124H10.3352C9.53218 28.4116 8.73855 28.24 8.00695 27.9091C7.27534 27.5781 6.6225 27.0954 6.09175 26.4928C5.561 25.8902 5.16448 25.1817 4.92851 24.4142C4.69254 23.6466 4.62252 22.8377 4.72309 22.041C4.82367 21.2444 5.09254 20.4782 5.51185 19.7934C5.81954 19.291 6.20307 18.8407 6.64776 18.4581L2.01558 13.8259L2.01558 15.2704C2.01558 15.8227 1.56787 16.2704 1.01558 16.2704C0.4633 16.2704 0.0155846 15.8227 0.0155844 15.2704L0.0155831 11.5679C-0.0377596 11.2585 0.0550025 10.9289 0.29387 10.69L0.304431 10.6796L0.308476 10.6755C0.496013 10.488 0.750367 10.3826 1.01558 10.3826H4.90335C5.45564 10.3826 5.90335 10.8303 5.90335 11.3826C5.90335 11.9349 5.45564 12.3826 4.90335 12.3826H3.40071L8.40694 17.3888C8.41661 17.3985 8.42605 17.4083 8.43524 17.4183C8.73597 17.3109 9.04604 17.2287 9.36228 17.1733C10.1532 17.0345 10.9645 17.0656 11.7425 17.2644C12.3266 16.1236 13.4639 14.5115 14.5036 13.7621C14.5361 13.7387 14.5687 13.7156 14.6015 13.6927V8.00179L13.5592 9.04407C13.1687 9.43459 12.5355 9.43459 12.145 9.04407C11.7545 8.65354 11.7545 8.02038 12.145 7.62985L14.8941 4.88078Z" fill="#111827"/>
</svg>
