<svg width="32" height="32" viewBox="0 0 32 32" fill="none" xmlns="http://www.w3.org/2000/svg">
<path fill-rule="evenodd" clip-rule="evenodd" d="M9.98311 11.676C8.88364 11.3951 7.737 11.3512 6.61927 11.5473C5.50155 11.7434 4.43831 12.1749 3.50013 12.8134C2.56196 13.4518 1.7703 14.2824 1.17771 15.2502C0.58512 16.218 0.205147 17.3007 0.0630143 18.4266C-0.0791187 19.5525 0.0198388 20.6957 0.353318 21.7804C0.686798 22.8651 1.24717 23.8664 1.99725 24.718C2.74732 25.5695 3.66994 26.2518 4.70386 26.7195C5.73779 27.1872 6.85937 27.4297 7.99416 27.4308H20.8011C23.3827 27.4308 25.9599 26.726 27.8218 24.9378C28.4718 24.3135 29.1297 23.6103 29.7141 22.8589C30.8007 21.4099 31.5275 19.7233 31.8346 17.9383C32.1416 16.1533 32.0201 14.3208 31.48 12.592C30.9399 10.8631 29.9967 9.28734 28.7282 7.99449C27.4597 6.70164 25.9021 5.72873 24.1838 5.15592C22.4655 4.58311 20.6357 4.42681 18.8452 4.69988C17.0546 4.97296 15.3546 5.6676 13.8852 6.72657C12.4158 7.78553 10.8086 10.0638 9.98311 11.676ZM13.8684 17.5565C14.2589 17.947 14.8921 17.947 15.2826 17.5565L18.4258 14.4134V23.4308C18.4258 23.9831 18.8735 24.4308 19.4258 24.4308C19.9781 24.4308 20.4258 23.9831 20.4258 23.4308V14.4141L23.5682 17.5565C23.9588 17.947 24.5919 17.947 24.9824 17.5565C25.373 17.166 25.373 16.5328 24.9824 16.1423L20.149 11.3089C19.9669 11.1182 19.7102 10.9995 19.4258 10.9995C19.3299 10.9995 19.2371 11.013 19.1493 11.0382C18.9915 11.0834 18.8426 11.1681 18.7183 11.2924L13.8684 16.1423C13.4779 16.5328 13.4779 17.166 13.8684 17.5565Z" fill="#111827"/>
</svg>
