<svg width="32" height="33" viewBox="0 0 32 33" fill="none" xmlns="http://www.w3.org/2000/svg">
<path fill-rule="evenodd" clip-rule="evenodd" d="M7.27599 6.98978C8.31547 6.80742 9.38184 6.84824 10.4043 7.10953C11.172 5.61019 12.6667 3.49139 14.0332 2.50656C15.3998 1.52173 16.9808 0.875724 18.646 0.621766C20.3112 0.367807 22.0129 0.51317 23.6109 1.04588C25.2089 1.57858 26.6574 2.48338 27.8371 3.68572C29.0169 4.88806 29.894 6.35351 30.3963 7.96133C30.8985 9.56915 31.0116 11.2733 30.726 12.9334C30.4405 14.5934 29.7646 16.1619 28.754 17.5095C28.2105 18.2082 27.5987 18.8623 26.9942 19.4428C25.2627 21.1059 22.8658 21.7613 20.465 21.7613H8.55463C7.49928 21.7603 6.45622 21.5348 5.49467 21.0998C4.53313 20.6649 3.67511 20.0303 2.97754 19.2384C2.27998 18.4465 1.75883 17.5152 1.4487 16.5065C1.13857 15.4977 1.04654 14.4345 1.17872 13.3875C1.3109 12.3405 1.66427 11.3335 2.21538 10.4335C2.76649 9.53347 3.50272 8.76095 4.37522 8.16722C5.24771 7.5735 6.23651 7.17213 7.27599 6.98978ZM7.31959 25.54C6.7673 25.54 6.31959 25.9878 6.31959 26.54C6.31959 27.0923 6.7673 27.54 7.31959 27.54H14.7595C15.3118 27.54 15.7595 27.0923 15.7595 26.54C15.7595 25.9878 15.3118 25.54 14.7595 25.54H7.31959ZM20.9596 25.54C20.4073 25.54 19.9596 25.9878 19.9596 26.54C19.9596 27.0923 20.4073 27.54 20.9596 27.54H24.6796C25.2318 27.54 25.6796 27.0923 25.6796 26.54C25.6796 25.9878 25.2318 25.54 24.6796 25.54H20.9596ZM11.2804 31.4999C11.2804 30.9476 11.7281 30.4999 12.2804 30.4999H20.9604C21.5126 30.4999 21.9604 30.9476 21.9604 31.4999C21.9604 32.0522 21.5126 32.4999 20.9604 32.4999H12.2804C11.7281 32.4999 11.2804 32.0522 11.2804 31.4999Z" fill="#111827"/>
</svg>
