<svg width="32" height="32" viewBox="0 0 32 32" fill="none" xmlns="http://www.w3.org/2000/svg">
<path fill-rule="evenodd" clip-rule="evenodd" d="M6.61927 11.5473C7.737 11.3512 8.88364 11.3951 9.98311 11.676C10.8086 10.0638 12.4158 7.78553 13.8852 6.72657C15.3546 5.6676 17.0546 4.97296 18.8452 4.69988C20.6357 4.42681 22.4655 4.58311 24.1838 5.15592C25.9021 5.72873 27.4597 6.70164 28.7282 7.99449C29.9967 9.28734 30.9399 10.8631 31.48 12.592C32.0201 14.3208 32.1416 16.1533 31.8346 17.9383C31.5275 19.7233 30.8007 21.4099 29.7141 22.8589C29.1297 23.6103 28.4718 24.3135 27.8218 24.9378C25.9599 26.726 23.3827 27.4308 20.8011 27.4308H7.99416C6.85937 27.4297 5.73779 27.1872 4.70386 26.7195C3.66994 26.2518 2.74732 25.5695 1.99725 24.718C1.24717 23.8664 0.686798 22.8651 0.353318 21.7804C0.0198388 20.6957 -0.0791187 19.5525 0.0630143 18.4266C0.205147 17.3007 0.58512 16.218 1.17771 15.2502C1.7703 14.2824 2.56196 13.4518 3.50013 12.8134C4.43831 12.1749 5.50155 11.7434 6.61927 11.5473ZM26.4353 15.3327C26.8258 14.9422 26.8258 14.309 26.4353 13.9185C26.0448 13.528 25.4116 13.528 25.0211 13.9185L18.9793 19.9603L16.3119 17.293C15.9214 16.9024 15.2882 16.9024 14.8977 17.293C14.5072 17.6835 14.5072 18.3166 14.8977 18.7072L18.2722 22.0816C18.6627 22.4722 19.2959 22.4722 19.6864 22.0816L26.4353 15.3327Z" fill="#111827"/>
</svg>
