<svg width="32" height="33" viewBox="0 0 32 33" fill="none" xmlns="http://www.w3.org/2000/svg">
<path fill-rule="evenodd" clip-rule="evenodd" d="M7.66164 6.70274C8.65517 6.52845 9.67442 6.56746 10.6517 6.8172C11.3855 5.38413 12.8141 3.35896 14.1202 2.41766C15.4264 1.47635 16.9375 0.858887 18.5291 0.616151C20.1207 0.373416 21.7472 0.512355 23.2746 1.02152C24.802 1.53068 26.1865 2.3955 27.3141 3.5447C28.4416 4.6939 29.28 6.0946 29.7601 7.63136C30.2402 9.16813 30.3482 10.797 30.0753 12.3837C29.8024 13.9704 29.1563 15.4695 28.1904 16.7576C27.6709 17.4254 27.0862 18.0505 26.5084 18.6054C24.8534 20.195 22.5625 20.8215 20.2677 20.8215H8.88376C7.87506 20.8205 6.8781 20.605 5.95905 20.1892C5.04001 19.7735 4.2199 19.167 3.55317 18.4101C2.88643 17.6531 2.38832 16.763 2.09189 15.7989C1.79547 14.8347 1.7075 13.8185 1.83384 12.8177C1.96019 11.817 2.29794 10.8545 2.82469 9.99427C3.35144 9.13402 4.05513 8.39565 4.88907 7.82816C5.723 7.26067 6.6681 6.87704 7.66164 6.70274ZM10.1059 24.8379C10.1059 25.8145 9.31426 26.6061 8.33771 26.6061C7.36116 26.6061 6.56951 25.8145 6.56951 24.8379C6.56951 23.8614 7.36116 23.0697 8.33771 23.0697C9.31426 23.0697 10.1059 23.8614 10.1059 24.8379ZM15.9998 27.1955C15.9998 28.172 15.2082 28.9637 14.2316 28.9637C13.255 28.9637 12.4634 28.172 12.4634 27.1955C12.4634 26.2189 13.255 25.4273 14.2316 25.4273C15.2082 25.4273 15.9998 26.2189 15.9998 27.1955ZM21.3045 26.6061C22.2811 26.6061 23.0727 25.8145 23.0727 24.8379C23.0727 23.8614 22.2811 23.0697 21.3045 23.0697C20.328 23.0697 19.5363 23.8614 19.5363 24.8379C19.5363 25.8145 20.328 26.6061 21.3045 26.6061ZM8.92688 30.7318C8.92688 31.7083 8.13522 32.5 7.15867 32.5C6.18212 32.5 5.39047 31.7083 5.39047 30.7318C5.39047 29.7552 6.18212 28.9636 7.15867 28.9636C8.13522 28.9636 8.92688 29.7552 8.92688 30.7318ZM20.1255 32.5C21.102 32.5 21.8937 31.7083 21.8937 30.7318C21.8937 29.7552 21.102 28.9636 20.1255 28.9636C19.1489 28.9636 18.3573 29.7552 18.3573 30.7318C18.3573 31.7083 19.1489 32.5 20.1255 32.5Z" fill="#111827"/>
</svg>
