<svg width="33" height="33" viewBox="0 0 33 33" fill="none" xmlns="http://www.w3.org/2000/svg">
<path fill-rule="evenodd" clip-rule="evenodd" d="M10.2058 9.80715C11.0106 9.66597 11.8362 9.69758 12.6278 9.89987C13.2221 8.73908 14.3793 7.09871 15.4373 6.33625C16.4953 5.5738 17.7193 5.07366 19.0085 4.87704C20.2977 4.68043 21.6151 4.79297 22.8523 5.20539C24.0895 5.61781 25.2109 6.3183 26.1243 7.24915C27.0376 8.18 27.7167 9.31456 28.1055 10.5593C28.4944 11.8041 28.5819 13.1235 28.3608 14.4087C28.1398 15.6939 27.6165 16.9082 26.8341 17.9515C26.4133 18.4925 25.9397 18.9988 25.4717 19.4483C24.1311 20.7358 22.2755 21.2433 20.4167 21.2433H11.1957C10.3787 21.2425 9.57115 21.0679 8.82672 20.7312C8.0823 20.3944 7.41801 19.9032 6.87796 19.29C6.33791 18.6769 5.93444 17.9559 5.69433 17.175C5.45423 16.394 5.38298 15.5709 5.48531 14.7603C5.58765 13.9497 5.86123 13.1701 6.28789 12.4733C6.71456 11.7765 7.28455 11.1784 7.96004 10.7187C8.63552 10.2591 9.40105 9.94833 10.2058 9.80715ZM10.2397 23.943C9.68746 23.943 9.23975 24.3907 9.23975 24.943C9.23975 25.4953 9.68746 25.943 10.2397 25.943H15.9997C16.552 25.943 16.9997 25.4953 16.9997 24.943C16.9997 24.3907 16.552 23.943 15.9997 23.943H10.2397ZM20.7998 23.943C20.2475 23.943 19.7998 24.3907 19.7998 24.943C19.7998 25.4953 20.2475 25.943 20.7998 25.943H23.6798C24.2321 25.943 24.6798 25.4953 24.6798 24.943C24.6798 24.3907 24.2321 23.943 23.6798 23.943H20.7998ZM13.0801 28.783C13.0801 28.2307 13.5278 27.783 14.0801 27.783H20.8001C21.3524 27.783 21.8001 28.2307 21.8001 28.783C21.8001 29.3352 21.3524 29.783 20.8001 29.783H14.0801C13.5278 29.783 13.0801 29.3352 13.0801 28.783Z" fill="#1C1B1F"/>
</svg>
