<svg width="33" height="33" viewBox="0 0 33 33" fill="none" xmlns="http://www.w3.org/2000/svg">
<g clip-path="url(#clip0_212_278)">
<path d="M16.6349 15.4632C17.0696 15.3085 18.0709 14.8472 18.2722 13.8232L16.0162 13.6712C16.0162 13.6712 15.4056 13.4565 15.0763 12.4179C15.0763 12.4179 13.7136 11.6846 13.8083 10.6286C13.8083 10.6286 14.0189 9.31258 15.1469 9.12458C15.1469 9.12458 16.3229 8.83391 16.5629 10.7139C16.5629 10.7139 17.1162 12.3059 16.0376 12.4179C16.0376 12.4179 15.8042 12.9312 16.6509 12.9539C16.6509 12.9539 17.6816 13.2605 18.4109 12.6486C18.4109 12.6486 18.9056 12.1939 19.4936 12.2806C19.4936 12.2806 19.6202 12.0552 19.3736 11.9152C19.3736 11.9152 17.9109 10.6632 17.6549 8.89258C17.6549 8.89258 16.4482 8.72458 16.2976 7.87125C16.2976 7.87125 16.0162 6.54859 17.1082 6.2846C17.1082 6.2846 17.8042 6.12593 18.1576 6.2846C18.1576 6.2846 19.0469 3.86194 21.5842 3.44728C21.5842 3.44728 23.6815 2.95395 24.4295 4.54061C24.4295 4.54061 24.7389 5.40327 24.5709 6.12726C24.5709 6.12726 24.3949 6.91926 24.5802 7.12192C24.5802 7.12192 25.2589 6.96192 25.5402 7.40325C25.8215 7.84325 25.9455 8.78725 25.3815 9.00724C25.3815 9.00724 25.5495 9.75657 24.9855 10.2672C24.9855 10.2672 23.1962 11.3072 22.6855 12.1872C22.6855 12.1872 22.5282 12.3886 22.4482 12.4592C22.2493 12.6339 22.0144 12.7627 21.7602 12.8366C21.7602 12.8366 21.5482 12.9299 21.3109 12.8126C21.3109 12.8126 21.2402 13.1659 21.6375 13.2272C21.6375 13.2272 22.3909 13.1232 23.2109 12.8726L29.1348 10.7526C29.1348 10.7526 28.8602 10.0126 29.0802 9.65124C29.0802 9.65124 29.2015 9.45924 29.3122 9.41791C29.5175 9.33924 29.7628 8.94858 29.7735 8.64325C29.7735 8.64325 29.7162 7.86992 30.2708 7.83525C30.2708 7.83525 30.8042 7.80325 30.7588 8.45525L30.7202 8.88325C30.7202 8.88325 31.5335 8.57658 31.8055 9.12991C31.8055 9.12991 32.3548 10.2446 31.7721 11.1432C31.7721 11.1432 30.9148 11.9872 29.7868 11.4566L29.4002 11.2179C29.4002 11.2179 22.5095 14.0712 22.4295 14.2579C22.4295 14.2579 21.8895 14.5312 21.4869 15.2619C21.4869 15.2619 20.1042 17.7285 19.3909 18.3819C19.3909 18.3819 18.9242 18.9458 18.5896 19.0858L18.6616 19.2805C19.1242 19.3298 19.4629 19.2178 19.4629 19.2178C20.7495 18.6018 20.9362 19.0765 20.9362 19.0765C21.4055 19.4125 21.2082 20.3805 21.2082 20.3805C24.8029 23.8338 20.9362 27.2178 20.9362 27.2178C20.3296 27.4818 20.0442 27.2178 20.0442 27.2178C19.9389 27.0591 20.9375 26.1965 20.9375 26.1965C22.7615 24.0098 21.1455 21.6472 21.1455 21.6472C18.4482 18.7405 15.7456 20.9098 15.7456 20.9098C14.5296 22.2672 14.7056 23.7472 14.7056 23.7472C14.4936 24.1698 14.1416 23.9938 14.1416 23.9938C13.6656 23.4298 14.1416 21.9498 14.1416 21.9498C14.8469 20.3098 16.3442 19.6405 16.3442 19.6405L16.5696 19.4592C16.8416 18.2125 16.3909 16.7099 16.3909 16.7099C15.1576 13.7685 13.0736 13.2725 12.3509 13.1899C12.3603 13.2512 12.3616 13.2659 12.3509 13.1899C12.1909 13.1726 12.0976 13.1739 12.0976 13.1739C9.00829 12.8806 7.5923 15.5592 7.5923 15.5592C6.76564 16.2925 6.81764 17.9792 6.81764 17.9792C8.84963 18.4365 9.34829 19.7058 9.34829 19.7058C9.48962 20.2338 8.88429 20.0645 8.88429 20.0645C7.0003 18.5352 6.05364 18.4619 6.05364 18.4619C4.13366 18.1152 2.835 19.3472 2.835 19.3472C2.05634 19.8872 1.36567 21.0552 1.36567 21.0552C0.249681 23.0285 0.94701 24.9111 0.94701 24.9111C1.32967 26.8218 3.60966 28.0911 3.60966 28.0911C4.69499 28.6538 5.85498 28.4871 5.85498 28.4871C6.79897 28.2711 6.58031 28.7684 6.58031 28.7684C6.31364 29.1684 5.95498 29.1738 5.95498 29.1738C3.91766 29.3084 3.00033 28.6218 3.00033 28.6218C-1.55297 25.7618 0.503012 21.0685 0.503012 21.0685C2.63633 16.9099 6.08964 17.7912 6.08964 17.7912C6.15898 16.5392 7.18164 14.7952 7.18164 14.7952C8.70163 12.9019 10.4029 12.4939 11.4229 12.4432L11.4283 12.4379C11.4283 12.4379 11.4043 11.0952 11.8149 9.95524C11.8149 9.95524 12.0283 9.37524 12.7789 8.24058C12.8976 8.06192 13.2723 7.58325 13.3896 7.14726C13.3896 7.14726 14.0243 5.15127 11.7509 4.83394C11.7509 4.83394 11.0269 4.70594 10.5536 5.08727C10.2536 5.32727 9.97095 5.4686 9.75362 5.52727C9.75362 5.52727 8.67896 5.8966 8.71363 5.20994C8.71363 5.20994 8.52029 4.18728 10.9536 3.90594C10.9536 3.90594 13.9269 3.39528 14.2736 5.7566C14.2736 5.7566 14.7589 7.20059 12.9963 9.36858C12.9963 9.36858 12.0336 10.8592 12.2536 12.4806C12.2841 12.485 12.3143 12.4908 12.3443 12.4979C15.4456 13.0366 16.6256 15.4472 16.6256 15.4472L16.6349 15.4632ZM17.0642 16.3272L18.1269 18.4632C19.9762 17.7112 20.7669 15.2179 20.7669 15.2179C21.2735 13.9619 20.4855 13.7739 20.4855 13.7739C19.9442 13.6325 19.5576 14.1739 19.5576 14.1739C18.3442 15.6459 17.3296 16.1992 17.0642 16.3272ZM22.7762 5.4566C21.0495 3.80061 19.3922 5.91393 19.3922 5.91393C18.3709 7.21792 19.4989 9.05124 19.4989 9.05124C19.0402 9.15791 18.8282 9.47391 18.8282 9.47391C18.5122 11.0606 20.3082 12.1526 20.3082 12.1526C21.6829 13.0686 22.5295 11.8699 22.5295 11.8699C22.8815 11.0592 24.7842 9.72057 24.7842 9.72057C25.4189 9.08591 24.7842 8.38192 24.7842 8.38192C24.1149 7.90592 24.0095 7.07792 24.0095 7.07792C23.9562 6.3726 24.0629 5.50993 24.0629 5.50993C23.7095 4.87527 22.7762 5.4566 22.7762 5.4566ZM17.8242 7.04326C17.7176 6.76059 17.3576 6.84859 17.3576 6.84859C16.6442 6.98059 16.7936 7.78192 16.7936 7.78192C16.8469 8.33792 17.4282 8.42591 17.4282 8.42591C17.4354 7.93767 17.5721 7.46141 17.8242 7.04326ZM24.4149 7.66725C24.3349 7.83525 24.5029 7.94992 24.5029 7.94992C24.7389 8.10592 24.9602 8.38192 24.9602 8.38192C25.0669 8.47791 25.2335 8.38192 25.2335 8.38192C25.4602 8.05258 25.0669 7.66725 25.0669 7.66725C24.8029 7.40325 24.4149 7.66725 24.4149 7.66725ZM16.2029 10.7779C16.2029 10.7779 16.0269 9.87924 15.4402 9.63124C15.4402 9.63124 15.0163 9.52057 14.7003 9.88457C14.7003 9.88457 14.1176 10.4779 14.3123 11.2006C14.3123 11.2006 14.6469 11.9939 15.5336 12.1579C15.5336 12.1579 16.0336 12.3112 16.3202 11.5526C16.3202 11.5526 16.3936 11.3179 16.2029 10.7779ZM29.3082 10.3406C29.4402 10.4926 29.5188 10.7459 29.5188 10.7459C29.5362 11.3392 30.3548 11.3059 30.3548 11.3059C31.2722 11.3459 31.5988 10.7726 31.5988 10.7726C31.8735 10.2966 31.7681 9.37391 31.4655 9.20191C31.1615 9.02858 30.4895 9.20191 30.4895 9.20191C30.6522 8.88458 30.5535 8.38192 30.5535 8.38192C30.4948 7.84059 30.0388 8.15258 30.0388 8.15258C29.7642 8.35792 29.8975 8.94591 29.8975 8.94591C29.8842 9.31924 29.4015 9.48591 29.4015 9.48591C29.0335 9.86324 29.3082 10.3406 29.3082 10.3406ZM21.4149 7.72459C21.4015 7.88458 21.2162 7.81259 21.2162 7.81259C21.1682 7.46592 20.7135 7.38192 20.7135 7.38192C20.2376 7.40192 20.2389 7.75525 20.2389 7.75525C19.9736 7.91925 19.9162 7.68059 19.9162 7.68059C20.0709 7.07792 20.7015 7.20059 20.7015 7.20059C21.3655 7.24059 21.4149 7.72459 21.4149 7.72459ZM22.4255 7.79792C22.4255 7.79792 22.4615 7.30459 22.8709 7.21126C22.8709 7.21126 23.4655 7.02059 23.7242 7.55259C23.7242 7.55259 23.8175 7.76859 23.7335 7.82859C23.7335 7.82859 23.5469 7.89658 23.4922 7.57259C23.4922 7.57259 23.3415 7.27926 23.0442 7.34192C23.0442 7.34192 22.7802 7.36992 22.7135 7.64859C22.7135 7.64859 22.7002 7.94192 22.4255 7.79792ZM20.1909 9.44457C20.3269 9.36191 20.5202 9.43257 20.6442 9.50724C20.7775 9.58991 20.9242 9.66724 21.0655 9.73391C21.3442 9.86591 21.6322 9.9499 21.9469 9.9499C22.1109 9.9499 22.2855 9.9659 22.4455 9.94324C22.5789 9.92457 22.7162 9.9099 22.8509 9.89657C23.0171 9.88447 23.1795 9.84104 23.3295 9.76857C23.4029 9.72991 23.4762 9.69924 23.5482 9.65657C23.6149 9.61524 23.6762 9.56057 23.7402 9.52057C23.7709 9.50191 23.8495 9.44324 23.8869 9.44991C23.9335 9.45791 23.9789 9.58724 23.9669 9.63124C23.8762 9.65791 23.7895 9.72991 23.7029 9.77124C23.5829 9.82991 23.4722 9.90857 23.3629 9.98457C23.2082 10.0912 23.0269 10.2406 22.9282 10.4019C22.6975 10.7792 22.4349 11.1646 22.0535 11.4006C21.8529 11.5147 21.6241 11.5697 21.3935 11.5592C21.1722 11.5592 20.8922 11.5192 20.7015 11.3992C20.5158 11.2974 20.377 11.1271 20.3149 10.9246C20.2562 10.7139 20.3149 10.5019 20.3149 10.2872C20.3149 10.1206 20.3589 9.87391 20.2802 9.72724C20.2536 9.67657 20.2429 9.69124 20.1976 9.65124C20.1629 9.62191 20.1442 9.56457 20.1616 9.50057C20.1642 9.48991 20.1802 9.44324 20.1909 9.44457ZM21.9122 8.75791C21.9117 8.7819 21.9064 8.80555 21.8968 8.82752C21.8871 8.84948 21.8732 8.86933 21.8559 8.88592C21.8386 8.90251 21.8181 8.91552 21.7958 8.92422C21.7734 8.93291 21.7495 8.93711 21.7255 8.93658C21.7016 8.93711 21.6777 8.93291 21.6553 8.92422C21.633 8.91552 21.6125 8.90251 21.5952 8.88592C21.5779 8.86933 21.564 8.84948 21.5543 8.82752C21.5446 8.80555 21.5394 8.7819 21.5389 8.75791C21.5389 8.65925 21.6215 8.57925 21.7255 8.57925C21.8282 8.57925 21.9122 8.65925 21.9122 8.75791ZM22.6789 8.72725C22.6784 8.75124 22.6731 8.77489 22.6634 8.79685C22.6538 8.81882 22.6399 8.83866 22.6226 8.85525C22.6052 8.87184 22.5848 8.88486 22.5624 8.89355C22.5401 8.90224 22.5162 8.90644 22.4922 8.90591C22.4682 8.90644 22.4444 8.90224 22.422 8.89355C22.3996 8.88486 22.3792 8.87184 22.3619 8.85525C22.3445 8.83866 22.3306 8.81882 22.321 8.79685C22.3113 8.77489 22.3061 8.75124 22.3055 8.72725C22.3055 8.62858 22.3882 8.54858 22.4922 8.54858C22.5949 8.54858 22.6789 8.62858 22.6789 8.72725Z" fill="black"/>
</g>
<defs>
<clipPath id="clip0_212_278">
<rect width="32" height="32" fill="white" transform="translate(0.0400391 0.282959)"/>
</clipPath>
</defs>
</svg>
