<svg width="32" height="33" viewBox="0 0 32 33" fill="none" xmlns="http://www.w3.org/2000/svg">
<path fill-rule="evenodd" clip-rule="evenodd" d="M7.92249 6.50892C8.88496 6.34008 9.87234 6.37787 10.8191 6.61981C11.5299 5.23154 12.9138 3.26969 14.1792 2.35782C15.4445 1.44594 16.9084 0.847787 18.4502 0.612641C19.992 0.377496 21.5677 0.51209 23.0473 1.00533C24.5269 1.49858 25.8681 2.33635 26.9604 3.44962C28.0528 4.56289 28.8649 5.91979 29.33 7.40851C29.795 8.89722 29.8997 10.4751 29.6353 12.0122C29.3709 13.5493 28.7451 15.0016 27.8094 16.2494C27.3061 16.8964 26.7397 17.5019 26.18 18.0395C24.5767 19.5793 22.3574 20.1862 20.1344 20.1862H17.3301C17.3303 20.3773 17.2759 20.5705 17.1619 20.7413L14.425 24.843H19.7744C20.1433 24.843 20.4822 25.0461 20.6562 25.3714C20.8302 25.6966 20.811 26.0912 20.6063 26.3981L16.8318 32.0548C16.5252 32.5142 15.9043 32.6381 15.4449 32.3316C14.9855 32.025 14.8616 31.4041 15.1681 30.9447L17.905 26.843H12.5556C12.1867 26.843 11.8478 26.64 11.6738 26.3147C11.4998 25.9895 11.519 25.5948 11.7237 25.288L15.1279 20.1862H9.10641C8.12924 20.1853 7.16345 19.9765 6.27314 19.5737C5.38283 19.171 4.58837 18.5835 3.94248 17.8502C3.29659 17.1169 2.81406 16.2547 2.5269 15.3206C2.23974 14.3866 2.15453 13.4022 2.27692 12.4327C2.39931 11.4632 2.7265 10.5309 3.23678 9.69753C3.74706 8.86418 4.42875 8.14889 5.23661 7.59915C6.04447 7.0494 6.96002 6.67777 7.92249 6.50892Z" fill="#111827"/>
</svg>
