<svg width="33" height="33" viewBox="0 0 33 33" fill="none" xmlns="http://www.w3.org/2000/svg">
<path fill-rule="evenodd" clip-rule="evenodd" d="M12.4473 13.0399C11.6227 12.8292 10.7627 12.7963 9.92441 12.9433C9.08612 13.0904 8.28869 13.4141 7.58506 13.8929C6.88143 14.3717 6.28769 14.9947 5.84324 15.7205C5.3988 16.4464 5.11382 17.2584 5.00722 18.1028C4.90062 18.9472 4.97484 19.8046 5.22495 20.6181C5.47506 21.4317 5.89534 22.1827 6.4579 22.8213C7.02045 23.46 7.71241 23.9717 8.48786 24.3225C9.2633 24.6733 10.1045 24.8551 10.9556 24.856H20.5608C22.497 24.856 24.4299 24.3274 25.8263 22.9862C26.3138 22.518 26.8072 21.9906 27.2455 21.4271C28.0605 20.3403 28.6056 19.0754 28.8359 17.7366C29.0662 16.3978 28.975 15.0235 28.5699 13.7268C28.1649 12.4302 27.4575 11.2484 26.5061 10.2787C25.5547 9.3091 24.3865 8.57941 23.0978 8.14981C21.8091 7.7202 20.4368 7.60297 19.0938 7.80778C17.7509 8.01259 16.4759 8.53357 15.3738 9.32779C14.2718 10.122 13.0664 11.8307 12.4473 13.0399ZM15.1845 17.5115C15.575 17.1209 16.2082 17.1209 16.5987 17.5115L18.5293 19.442V13.2825C18.5293 12.7302 18.977 12.2825 19.5293 12.2825C20.0816 12.2825 20.5293 12.7302 20.5293 13.2825V19.4415L22.4594 17.5115C22.8499 17.1209 23.483 17.1209 23.8736 17.5115C24.2641 17.902 24.2641 18.5351 23.8736 18.9257L20.2495 22.5497C20.0749 22.7309 19.8326 22.8464 19.5633 22.8554C19.5189 22.8569 19.4744 22.8555 19.4302 22.8511C19.3776 22.846 19.3262 22.8367 19.2763 22.8237C19.1099 22.7804 18.9524 22.6935 18.8219 22.5631L15.1845 18.9257C14.794 18.5351 14.794 17.902 15.1845 17.5115Z" fill="#1C1B1F"/>
</svg>
