<svg width="33" height="33" viewBox="0 0 33 33" fill="none" xmlns="http://www.w3.org/2000/svg">
<path d="M6.14947 19.5562C4.76147 18.9673 3.96497 18.2894 2.99489 17.1352C2.02481 15.9809 1.34126 14.6138 1 13.1451C1.70593 13.3007 2.4264 13.3808 3.14927 13.3839C5.68148 13.38 8.10885 12.3723 9.8994 10.5818C11.6899 8.79122 12.6976 6.36385 12.7016 3.83164C12.6984 3.10878 12.6183 2.3883 12.4628 1.68237C14.5682 2.16857 16.4466 3.35429 17.7912 5.04588C19.1358 6.73747 19.8672 8.83498 19.8658 10.9959C19.8658 11.1451 19.863 11.8614 19.8481 12.0106" stroke="#111827" stroke-width="2" stroke-linecap="round" stroke-linejoin="round"/>
<path d="M13.2834 17.3131C12.2988 17.0633 11.272 17.0243 10.271 17.1986C9.27005 17.3729 8.31789 17.7565 7.47773 18.324C6.63757 18.8915 5.92862 19.6299 5.39793 20.4902C4.86725 21.3504 4.52698 22.3129 4.39969 23.3136C4.27241 24.3144 4.36103 25.3306 4.65967 26.2948C4.95831 27.2589 5.46014 28.149 6.13185 28.906C6.80356 29.6629 7.62979 30.2694 8.5557 30.6852C9.48161 31.1009 10.486 31.3164 11.5023 31.3174H22.9712C25.2831 31.3174 27.5911 30.6909 29.2585 29.1014C29.8406 28.5465 30.4297 27.9213 30.953 27.2535C31.9262 25.9654 32.577 24.4663 32.852 22.8796C33.1269 21.2929 33.0181 19.664 32.5345 18.1272C32.0508 16.5905 31.2062 15.1898 30.0702 14.0406C28.9342 12.8914 27.5393 12.0265 26.0005 11.5174C24.4618 11.0082 22.8231 10.8693 21.2196 11.112C19.6162 11.3547 18.0937 11.9722 16.7778 12.9135C15.4619 13.8548 14.0226 15.88 13.2834 17.3131Z" fill="#111827"/>
</svg>
