<svg width="33" height="33" viewBox="0 0 33 33" fill="none" xmlns="http://www.w3.org/2000/svg">
<path d="M12.4473 13.5401C11.6227 13.3294 10.7627 13.2964 9.92441 13.4435C9.08612 13.5906 8.28869 13.9142 7.58506 14.3931C6.88143 14.8719 6.28769 15.4949 5.84324 16.2207C5.3988 16.9466 5.11382 17.7586 5.00722 18.603C4.90062 19.4474 4.97484 20.3048 5.22495 21.1183C5.47506 21.9318 5.89534 22.6829 6.4579 23.3215C7.02045 23.9602 7.71241 24.4719 8.48786 24.8227C9.2633 25.1735 10.1045 25.3553 10.9556 25.3561H20.5608C22.497 25.3561 24.4299 24.8276 25.8263 23.4864C26.3138 23.0182 26.8072 22.4907 27.2455 21.9272C28.0605 20.8404 28.6056 19.5756 28.8359 18.2368C29.0662 16.898 28.975 15.5237 28.5699 14.227C28.1649 12.9304 27.4575 11.7486 26.5061 10.7789C25.5547 9.80928 24.3865 9.0796 23.0978 8.64999C21.8091 8.22039 20.4368 8.10316 19.0938 8.30796C17.7509 8.51277 16.4759 9.03375 15.3738 9.82798C14.2718 10.6222 13.0664 12.3309 12.4473 13.5401Z" fill="#1C1B1F"/>
</svg>
