<svg width="33" height="33" viewBox="0 0 33 33" fill="none" xmlns="http://www.w3.org/2000/svg">
<path fill-rule="evenodd" clip-rule="evenodd" d="M12.7191 5.95765C12.6223 5.41391 12.1031 5.05156 11.5593 5.14833C11.0156 5.2451 10.6532 5.76433 10.75 6.30807L11.0714 8.11371C11.0407 8.12258 11.0101 8.1317 10.9795 8.14106C9.95372 8.45522 9.03491 9.02876 8.30673 9.7969L6.70819 8.6771C6.25585 8.36024 5.63228 8.47006 5.31541 8.9224C4.99854 9.37474 5.10836 9.99831 5.56071 10.3152L7.18396 11.4523C6.73285 12.4274 6.54357 13.5048 6.63648 14.5772L4.78492 14.9068C4.24118 15.0035 3.87883 15.5228 3.9756 16.0665C4.07237 16.6102 4.5916 16.9726 5.13534 16.8758L7.13263 16.5204C7.37758 17.0823 7.70438 17.6079 8.10458 18.0792C8.11545 18.092 8.12657 18.1045 8.13793 18.1166C7.90278 18.3751 7.69184 18.6559 7.50832 18.9556C7.09588 19.6292 6.83143 20.3828 6.7325 21.1664C6.63358 21.9499 6.70245 22.7456 6.93455 23.5005C7.16665 24.2555 7.55666 24.9524 8.07871 25.5451C8.60075 26.1377 9.24288 26.6126 9.96248 26.9381C10.6821 27.2636 11.4627 27.4324 12.2525 27.4332H21.166C22.9627 27.4332 24.7565 26.9426 26.0523 25.698C26.5047 25.2635 26.9626 24.7741 27.3693 24.2512C28.1256 23.2427 28.6315 22.0689 28.8451 20.8265C29.0588 19.5841 28.9742 18.3088 28.5984 17.1055C28.2225 15.9022 27.566 14.8055 26.6832 13.9057C25.8003 13.0059 24.7162 12.3288 23.5203 11.9301C22.3244 11.5314 21.0509 11.4227 19.8047 11.6127C19.3645 11.6799 18.9321 11.7836 18.5119 11.9222C18.5104 11.7897 18.4823 11.6554 18.4248 11.5267C18.1825 10.9842 17.8653 10.4839 17.4857 10.0388L18.794 8.1712C19.1109 7.71886 19.001 7.09529 18.5487 6.77842C18.0964 6.46155 17.4728 6.57138 17.1559 7.02372L15.9517 8.74286C15.7558 8.62594 15.5527 8.51948 15.3432 8.42422C14.6184 8.09463 13.8431 7.9111 13.0606 7.87645L12.7191 5.95765ZM16.8553 12.6892C16.7487 12.5966 16.6601 12.4798 16.5987 12.3423C16.1834 11.4124 15.4424 10.6664 14.5153 10.2448C13.5882 9.82324 12.539 9.75515 11.5652 10.0534C10.5914 10.3516 9.76024 10.9956 9.22823 11.864C8.69652 12.732 8.5003 13.7643 8.67644 14.7668C8.81055 15.5116 9.1392 16.2077 9.62908 16.7846C9.66238 16.8238 9.69213 16.8649 9.71837 16.9074C10.2135 16.6537 10.745 16.475 11.2956 16.3784C12.0735 16.2419 12.8716 16.2725 13.6368 16.468C14.2113 15.346 15.3299 13.7603 16.3526 13.0233C16.5162 12.9054 16.6839 12.794 16.8553 12.6892Z" fill="#1C1B1F"/>
</svg>
