<svg width="32" height="33" viewBox="0 0 32 33" fill="none" xmlns="http://www.w3.org/2000/svg">
<path fill-rule="evenodd" clip-rule="evenodd" d="M7.9225 6.50905C8.88497 6.3402 9.87234 6.378 10.8191 6.61993C11.5299 5.23166 12.9138 3.26982 14.1792 2.35794C15.4445 1.44607 16.9084 0.84791 18.4502 0.612764C19.992 0.377618 21.5677 0.512212 23.0473 1.00546C24.5269 1.4987 25.8681 2.33648 26.9605 3.44975C28.0528 4.56302 28.8649 5.91992 29.33 7.40863C29.7951 8.89735 29.8997 10.4753 29.6353 12.0124C29.371 13.5495 28.7451 15.0017 27.8094 16.2495C27.3062 16.8965 26.7397 17.502 26.18 18.0396C24.5767 19.5795 22.3574 20.1863 20.1344 20.1863H16.9964C17.3754 20.5126 17.4585 21.0781 17.1719 21.5028L12.4624 28.4823C12.1535 28.9401 11.5319 29.0608 11.0741 28.7519C10.6163 28.4429 10.4956 27.8214 10.8045 27.3636L15.5141 20.3841C15.5648 20.309 15.6239 20.2429 15.6893 20.1863H9.10641C8.12924 20.1854 7.16345 19.9766 6.27314 19.5739C5.38283 19.1711 4.58837 18.5836 3.94248 17.8503C3.29659 17.1171 2.81406 16.2548 2.5269 15.3208C2.23974 14.3867 2.15453 13.4023 2.27692 12.4328C2.39931 11.4634 2.7265 10.531 3.23678 9.69766C3.74706 8.86431 4.42875 8.14902 5.23661 7.59927C6.04448 7.04953 6.96003 6.6779 7.9225 6.50905ZM19.2767 24.7028C19.7382 25.0062 19.8663 25.6263 19.5629 26.0877L15.6432 32.0492C15.3398 32.5107 14.7197 32.6388 14.2583 32.3354C13.7968 32.032 13.6687 31.4119 13.9721 30.9504L17.8917 24.989C18.1952 24.5275 18.8152 24.3994 19.2767 24.7028Z" fill="#111827"/>
</svg>
