<svg width="33" height="33" viewBox="0 0 33 33" fill="none" xmlns="http://www.w3.org/2000/svg">
<path fill-rule="evenodd" clip-rule="evenodd" d="M10.7063 9.43501C11.4515 9.30429 12.2159 9.33355 12.9489 9.52085C13.4992 8.44605 14.5706 6.92718 15.5502 6.2212C16.5299 5.51522 17.6632 5.05212 18.8569 4.87007C20.0506 4.68802 21.2705 4.79222 22.416 5.1741C23.5615 5.55597 24.5999 6.20458 25.4456 7.06648C26.2913 7.92838 26.9201 8.9789 27.2801 10.1315C27.6402 11.284 27.7212 12.5057 27.5165 13.6957C27.3118 14.8857 26.8273 16.0101 26.1028 16.9761C25.7132 17.477 25.2747 17.9458 24.8414 18.362C23.6001 19.5542 21.8819 20.024 20.1609 20.024H18.2158C18.216 20.2151 18.1615 20.4083 18.0475 20.5791L16.1629 23.4035H19.8823C20.2512 23.4035 20.5901 23.6066 20.7641 23.9318C20.9381 24.2571 20.9189 24.6517 20.7142 24.9586L17.7919 29.338C17.4854 29.7974 16.8645 29.9214 16.4051 29.6148C15.9457 29.3083 15.8218 28.6874 16.1283 28.228L18.0129 25.4035H14.2935C13.9246 25.4035 13.5857 25.2005 13.4117 24.8752C13.2377 24.5499 13.2569 24.1553 13.4616 23.8485L16.0135 20.024H11.6229C10.8664 20.0233 10.1186 19.8617 9.42937 19.5499C8.74008 19.238 8.125 18.7832 7.62495 18.2155C7.12491 17.6478 6.75132 16.9802 6.529 16.2571C6.30668 15.534 6.24071 14.7718 6.33547 14.0212C6.43022 13.2707 6.68354 12.5488 7.0786 11.9036C7.47366 11.2585 8.00143 10.7047 8.62688 10.2791C9.25233 9.85345 9.96115 9.56573 10.7063 9.43501Z" fill="#1C1B1F"/>
</svg>
