<svg width="33" height="33" viewBox="0 0 33 33" fill="none" xmlns="http://www.w3.org/2000/svg">
<path fill-rule="evenodd" clip-rule="evenodd" d="M10.7063 9.43501C11.4515 9.30429 12.2159 9.33355 12.9489 9.52085C13.4992 8.44605 14.5706 6.92718 15.5502 6.2212C16.5299 5.51522 17.6632 5.05212 18.8569 4.87007C20.0506 4.68802 21.2705 4.79222 22.416 5.1741C23.5615 5.55597 24.5999 6.20458 25.4456 7.06648C26.2913 7.92838 26.9201 8.9789 27.2801 10.1315C27.6402 11.284 27.7212 12.5057 27.5165 13.6957C27.3118 14.8857 26.8273 16.0101 26.1028 16.9761C25.7132 17.477 25.2747 17.9458 24.8414 18.362C23.6001 19.5542 21.8819 20.024 20.1609 20.024H11.6229C10.8664 20.0233 10.1186 19.8617 9.42937 19.5499C8.74008 19.238 8.125 18.7832 7.62495 18.2155C7.12491 17.6478 6.75132 16.9802 6.529 16.2571C6.30668 15.534 6.24071 14.7718 6.33547 14.0212C6.43022 13.2707 6.68354 12.5488 7.0786 11.9036C7.47366 11.2585 8.00143 10.7047 8.62688 10.2791C9.25233 9.85345 9.96115 9.56573 10.7063 9.43501ZM12.5395 23.0364C12.5395 23.7688 11.9458 24.3625 11.2134 24.3625C10.4809 24.3625 9.88721 23.7688 9.88721 23.0364C9.88721 22.3039 10.4809 21.7102 11.2134 21.7102C11.9458 21.7102 12.5395 22.3039 12.5395 23.0364ZM16.9599 24.8045C16.9599 25.537 16.3662 26.1307 15.6338 26.1307C14.9014 26.1307 14.3076 25.537 14.3076 24.8045C14.3076 24.0721 14.9014 23.4784 15.6338 23.4784C16.3662 23.4784 16.9599 24.0721 16.9599 24.8045ZM20.9385 24.3625C21.6709 24.3625 22.2646 23.7688 22.2646 23.0364C22.2646 22.3039 21.6709 21.7102 20.9385 21.7102C20.206 21.7102 19.6123 22.3039 19.6123 23.0364C19.6123 23.7688 20.206 24.3625 20.9385 24.3625ZM11.6552 27.4568C11.6552 28.1892 11.0615 28.7829 10.3291 28.7829C9.59667 28.7829 9.00293 28.1892 9.00293 27.4568C9.00293 26.7244 9.59667 26.1306 10.3291 26.1306C11.0615 26.1306 11.6552 26.7244 11.6552 27.4568ZM20.0542 28.7829C20.7866 28.7829 21.3803 28.1892 21.3803 27.4568C21.3803 26.7244 20.7866 26.1306 20.0542 26.1306C19.3218 26.1306 18.728 26.7244 18.728 27.4568C18.728 28.1892 19.3218 28.7829 20.0542 28.7829Z" fill="#1C1B1F"/>
</svg>
