<svg width="33" height="33" viewBox="0 0 33 33" fill="none" xmlns="http://www.w3.org/2000/svg">
<path fill-rule="evenodd" clip-rule="evenodd" d="M7.85145 4.97434C8.27392 4.61861 8.90476 4.67272 9.26049 5.09519L27.8295 27.1482C28.1852 27.5707 28.1311 28.2016 27.7086 28.5573C27.2861 28.913 26.6553 28.8589 26.2996 28.4364L24.4381 26.2257L10.9424 26.2256H10.9414C9.94851 26.2246 8.96717 26.0125 8.06251 25.6033C7.15786 25.194 6.3506 24.597 5.69431 23.852C5.03801 23.1069 4.5477 22.2307 4.25592 21.2817C3.96414 20.3326 3.87755 19.3323 4.00191 18.3472C4.12628 17.3621 4.45874 16.4148 4.97724 15.568C5.49574 14.7212 6.18841 13.9944 7.00929 13.4358C7.83016 12.8772 8.76046 12.4996 9.73844 12.328C10.5681 12.1825 11.416 12.188 12.2414 12.3432C12.307 12.2126 12.371 12.0869 12.4323 11.9672L7.7306 6.38338C7.37487 5.96091 7.42898 5.33006 7.85145 4.97434ZM11.3737 14.2408C10.9443 14.2042 10.5108 14.2231 10.084 14.2979C9.38541 14.4205 8.72086 14.6902 8.13447 15.0893C7.54808 15.4883 7.05327 16.0075 6.68288 16.6124C6.3125 17.2173 6.075 17.894 5.98616 18.5977C5.89733 19.3014 5.95918 20.016 6.16761 20.6939C6.37605 21.3719 6.7263 21.9978 7.19512 22.53C7.66394 23.0623 8.2406 23.4887 8.88683 23.781C9.53307 24.0734 10.2341 24.2249 10.9434 24.2256L22.6846 24.2257L13.8051 13.6928C13.6611 13.9898 13.5178 14.2983 13.3849 14.6093C13.0161 15.472 12.7998 16.1948 12.7998 16.6522C12.7997 17.2045 12.3519 17.6522 11.7997 17.6521C11.2474 17.652 10.7997 17.2043 10.7998 16.652C10.7998 15.8903 11.0656 15.0204 11.3737 14.2408ZM15.4209 8.33031C16.4462 7.7528 17.5703 7.36395 18.7396 7.18562C20.2687 6.95242 21.8313 7.0859 23.2987 7.57507C24.766 8.06423 26.0962 8.89507 27.1795 9.99913C28.2628 11.1032 29.0682 12.4489 29.5294 13.9253C29.9906 15.4017 30.0944 16.9665 29.8322 18.4909C29.57 20.0153 28.9494 21.4555 28.0214 22.693C27.9852 22.7394 27.9488 22.7856 27.912 22.8316C27.539 23.2986 26.838 23.2832 26.4487 22.8298L15.2131 9.74246C14.8316 9.29802 14.9105 8.61776 15.4209 8.33031Z" fill="#1C1B1F"/>
</svg>
