<svg width="33" height="33" viewBox="0 0 33 33" fill="none" xmlns="http://www.w3.org/2000/svg">
<path fill-rule="evenodd" clip-rule="evenodd" d="M12.4473 13.0399C11.6227 12.8292 10.7627 12.7963 9.92441 12.9433C9.08612 13.0904 8.28869 13.4141 7.58506 13.8929C6.88143 14.3717 6.28769 14.9947 5.84324 15.7205C5.3988 16.4464 5.11382 17.2584 5.00722 18.1028C4.90062 18.9472 4.97484 19.8046 5.22495 20.6181C5.47506 21.4317 5.89534 22.1827 6.4579 22.8213C7.02045 23.46 7.71241 23.9717 8.48786 24.3225C9.2633 24.6733 10.1045 24.8551 10.9556 24.856H20.5608C22.497 24.856 24.4299 24.3274 25.8263 22.9862C26.3138 22.518 26.8072 21.9906 27.2455 21.4271C28.0605 20.3403 28.6056 19.0754 28.8359 17.7366C29.0662 16.3978 28.975 15.0235 28.5699 13.7268C28.1649 12.4302 27.4575 11.2484 26.5061 10.2787C25.5547 9.3091 24.3865 8.57941 23.0978 8.14981C21.8091 7.7202 20.4368 7.60297 19.0938 7.80778C17.7509 8.01259 16.4759 8.53357 15.3738 9.32779C14.2718 10.122 13.0664 11.8307 12.4473 13.0399ZM15.1845 17.627C15.575 18.0176 16.2082 18.0176 16.5987 17.627L18.5293 15.6964V21.856C18.5293 22.4083 18.977 22.856 19.5293 22.856C20.0816 22.856 20.5293 22.4083 20.5293 21.856V15.697L22.4594 17.627C22.8499 18.0176 23.483 18.0176 23.8736 17.627C24.2641 17.2365 24.2641 16.6033 23.8736 16.2128L20.2504 12.5896C20.0684 12.4003 19.8126 12.2825 19.5293 12.2825C19.4248 12.2825 19.3241 12.2985 19.2294 12.3282C19.0804 12.3749 18.94 12.4573 18.8219 12.5754L15.1845 16.2128C14.794 16.6033 14.794 17.2365 15.1845 17.627Z" fill="#1C1B1F"/>
</svg>
