<svg width="32" height="32" viewBox="0 0 32 32" fill="none" xmlns="http://www.w3.org/2000/svg">
<path fill-rule="evenodd" clip-rule="evenodd" d="M4.75171 1.57681C5.17418 1.22109 5.80503 1.2752 6.16075 1.69766L29.1616 29.0141C29.5173 29.4366 29.4632 30.0674 29.0407 30.4231C28.6183 30.7789 27.9874 30.7248 27.6317 30.3023L25.2545 27.479L8.42659 27.479H8.42562C7.22958 27.4778 6.04746 27.2222 4.95774 26.7293C3.86801 26.2363 2.8956 25.5172 2.10504 24.6197C1.31448 23.7222 0.723866 22.6668 0.372388 21.5236C0.0209097 20.3803 -0.0833889 19.1754 0.0664153 17.9888C0.216219 16.8022 0.6167 15.661 1.24127 14.641C1.86585 13.621 2.70023 12.7455 3.68904 12.0726C4.67785 11.3997 5.79847 10.9448 6.97652 10.7382C8.03499 10.5525 9.11806 10.571 10.1676 10.7914C10.3034 10.5188 10.4352 10.2607 10.5569 10.0238L4.63086 2.98585C4.27514 2.56339 4.32924 1.93254 4.75171 1.57681ZM9.30042 12.6699C8.64443 12.5808 7.97709 12.5932 7.32211 12.7081C6.42342 12.8657 5.56855 13.2128 4.81422 13.7261C4.0599 14.2394 3.42338 14.9073 2.94692 15.6854C2.47046 16.4635 2.16495 17.3341 2.05067 18.2393C1.93639 19.1445 2.01595 20.0637 2.28408 20.9358C2.55221 21.808 3.00277 22.6131 3.60585 23.2978C4.20894 23.9824 4.95075 24.531 5.78206 24.9071C6.61309 25.283 7.51455 25.4779 8.42665 25.479H8.42756L23.4847 25.479L11.9194 11.7603C11.6867 12.2291 11.4486 12.7295 11.2325 13.235C10.7751 14.3052 10.4886 15.2398 10.4886 15.8593C10.4885 16.4116 10.0408 16.8593 9.48847 16.8592C8.93619 16.8592 8.48852 16.4114 8.48857 15.8591C8.48867 14.8676 8.87321 13.7009 9.30042 12.6699ZM13.7491 5.68135C15.0791 4.8942 16.5506 4.36753 18.085 4.13351C19.979 3.84466 21.9146 4.01 23.7322 4.61591C25.5498 5.22182 27.1974 6.25096 28.5392 7.61852C29.881 8.98608 30.8787 10.6529 31.45 12.4817C32.0213 14.3105 32.1499 16.2488 31.8251 18.137C31.5003 20.0252 30.7315 21.8092 29.582 23.342C29.4825 23.4699 29.381 23.5965 29.2779 23.7217C28.8977 24.1828 28.1977 24.168 27.8084 23.7146L13.5476 7.10343C13.166 6.65899 13.245 5.9797 13.7491 5.68135Z" fill="#111827"/>
</svg>
