<svg width="33" height="33" viewBox="0 0 33 33" fill="none" xmlns="http://www.w3.org/2000/svg">
<path d="M8.82204 19.0184C7.78105 18.5767 7.18368 18.0683 6.45612 17.2026C5.72856 16.3369 5.21591 15.3115 4.95996 14.2101C5.4894 14.3267 6.02976 14.3868 6.5719 14.3892C8.47105 14.3862 10.2916 13.6305 11.6345 12.2876C12.9774 10.9446 13.7331 9.12413 13.7361 7.22498C13.7337 6.68283 13.6737 6.14248 13.557 5.61304C15.1361 5.97768 16.5449 6.86696 17.5533 8.13565C18.5618 9.40434 19.1103 10.9775 19.1092 12.5981C19.1092 12.7101 19.1072 13.2473 19.096 13.3592" stroke="#1C1B1F" stroke-width="2" stroke-linecap="round" stroke-linejoin="round"/>
<path d="M14.1724 17.336C13.4339 17.1487 12.6638 17.1195 11.9131 17.2502C11.1624 17.3809 10.4482 17.6686 9.81812 18.0943C9.188 18.5199 8.6563 19.0736 8.25829 19.7188C7.86028 20.364 7.60507 21.0859 7.50961 21.8364C7.41415 22.587 7.48061 23.3491 7.70459 24.0723C7.92857 24.7954 8.30494 25.463 8.80872 26.0307C9.3125 26.5984 9.93217 27.0532 10.6266 27.365C11.321 27.6769 12.0743 27.8385 12.8365 27.8392H21.4382C23.1721 27.8392 24.9031 27.3694 26.1536 26.1772C26.5902 25.761 27.032 25.2922 27.4245 24.7913C28.1544 23.8253 28.6425 22.7009 28.8487 21.5109C29.0549 20.3209 28.9733 19.0992 28.6106 17.9467C28.2478 16.7941 27.6144 15.7436 26.7624 14.8817C25.9104 14.0198 24.8642 13.3712 23.7102 12.9893C22.5561 12.6074 21.3271 12.5032 20.1245 12.6853C18.9219 12.8673 17.7801 13.3304 16.7932 14.0364C15.8062 14.7424 14.7268 16.2612 14.1724 17.336Z" fill="#1C1B1F"/>
</svg>
