<svg width="32" height="33" viewBox="0 0 32 33" fill="none" xmlns="http://www.w3.org/2000/svg">
<path d="M11.2873 31.6741L13.5697 24.5346C12.1824 26.1619 10.1176 27.1938 7.81167 27.1938C3.63467 27.1938 0.248535 23.8077 0.248535 19.6306C0.248535 15.4536 3.63467 12.0675 7.81167 12.0675C8.45825 12.0675 9.08032 12.0749 9.67938 12.2275C8.89012 11.0332 8.43062 9.60184 8.43062 8.06314C8.43062 3.88613 11.8168 0.5 15.9938 0.5C20.1708 0.5 23.5569 3.88613 23.5569 8.06314C23.5569 9.60184 23.0974 11.0332 22.3081 12.2275C22.903 12.0772 23.5466 12.0675 24.1882 12.0675C28.3653 12.0675 31.7514 15.4536 31.7514 19.6306C31.7514 23.8077 28.3653 27.1938 24.1882 27.1938C21.9707 27.1938 19.9761 26.2394 18.5927 24.719L20.7193 31.6846C20.8439 32.0898 20.5409 32.5 20.1169 32.5H11.8864C11.4579 32.5 11.1543 32.0815 11.2873 31.6741Z" fill="#111827"/>
</svg>
