<svg width="33" height="33" viewBox="0 0 33 33" fill="none" xmlns="http://www.w3.org/2000/svg">
<path d="M13.4256 27.6635L15.1373 22.3089C14.0969 23.5293 12.5483 24.3033 10.8188 24.3033C7.68608 24.3033 5.14648 21.7637 5.14648 18.6309C5.14648 15.4982 7.68608 12.9586 10.8188 12.9586C11.3038 12.9586 11.7703 12.9641 12.2196 13.0786C11.6277 12.1829 11.2831 11.1093 11.2831 9.95531C11.2831 6.82256 13.8226 4.28296 16.9554 4.28296C20.0882 4.28296 22.6278 6.82256 22.6278 9.95531C22.6278 11.1093 22.2831 12.1829 21.6912 13.0786C22.1373 12.9658 22.6201 12.9586 23.1013 12.9586C26.234 12.9586 28.7736 15.4982 28.7736 18.6309C28.7736 21.7637 26.234 24.3033 23.1013 24.3033C21.4381 24.3033 19.9421 23.5875 18.9046 22.4472L20.4996 27.6714C20.593 27.9753 20.3657 28.283 20.0478 28.283H13.8749C13.5535 28.283 13.3258 27.9691 13.4256 27.6635Z" fill="#1C1B1F"/>
</svg>
