<svg width="32" height="32" viewBox="0 0 32 32" fill="none" xmlns="http://www.w3.org/2000/svg">
<path fill-rule="evenodd" clip-rule="evenodd" d="M16.4885 0.127092C16.1851 -0.0426895 15.8153 -0.0426895 15.5119 0.127092L2.10689 7.6282C1.79093 7.805 1.59521 8.13879 1.59521 8.50086V23.4993C1.59521 23.8614 1.79093 24.1951 2.10689 24.3719L15.5119 31.8731C15.8153 32.0428 16.1851 32.0428 16.4885 31.8731L29.8935 24.3719C30.2095 24.1951 30.4052 23.8614 30.4052 23.4993V8.50086C30.4052 8.13879 30.2095 7.805 29.8935 7.6282L16.4885 0.127092ZM3.59521 10.1162V16.4034L8.59853 19.348C8.90386 19.5277 9.09132 19.8556 9.09132 20.2098V25.9884L15.1486 29.3779L15.1486 16.5514L3.59521 10.1162ZM17.1486 16.6155L17.1486 29.2119L22.8797 26.0049V19.7996C22.8797 19.4453 23.0672 19.1175 23.3725 18.9378L28.4052 15.9758V10.2205L17.1486 16.6155ZM27.3704 8.50814L22.1895 5.60902L16.2827 8.62965C15.9946 8.77702 15.6529 8.7758 15.3657 8.62635L9.69417 5.67438L4.72391 8.45561L16.2057 14.8509L27.3704 8.50814Z" fill="#111827"/>
</svg>
