<svg width="32" height="32" viewBox="0 0 32 32" fill="none" xmlns="http://www.w3.org/2000/svg">
<path fill-rule="evenodd" clip-rule="evenodd" d="M15.5197 2.43412C15.821 2.2674 16.1868 2.2674 16.4881 2.43412L31.4699 10.7247C31.7841 10.8985 31.9809 11.2274 31.9856 11.5864C31.9863 11.6351 31.9834 11.6834 31.9771 11.7308C31.9828 11.774 31.9857 11.818 31.9857 11.8627V20.5289C32.0607 21.0165 31.8372 21.5224 31.3846 21.7849L17.8358 29.6396C17.5379 29.8119 17.239 29.5234 17.239 29.1793V28.7889L17.2372 28.79V21.1202L24.1897 17.0082L29.5382 20.0011L29.9857 19.7416V13.3485L24.6262 16.5026L23.7644 17.0098L22.75 15.2862L23.6119 14.779L28.9687 11.6264L16.9545 4.97806V12.9596L21.6972 15.6135L16.0057 18.9797L10.348 15.59L14.9545 13.0123V5.03265L3.03904 11.6264L8.39589 14.779L9.25772 15.2862L8.24333 17.0098L7.3815 16.5026L2.02201 13.3485V19.6259L2.56898 19.9429L7.86365 16.9802L14.7943 21.1325L14.782 27.0232L14.7887 27.0271V29.0315C14.7887 29.3932 14.4774 29.7004 14.1642 29.5193L0.615359 21.6646C0.148944 21.3941 -0.0742059 20.865 0.0220063 20.3638V11.8627C0.0220063 11.818 0.0249406 11.774 0.0306273 11.7308C0.0243525 11.6833 0.0214486 11.6351 0.0220941 11.5864C0.0268513 11.2274 0.22369 10.8985 0.537823 10.7247L15.5197 2.43412Z" fill="#111827"/>
</svg>
