<svg width="33" height="33" viewBox="0 0 33 33" fill="none" xmlns="http://www.w3.org/2000/svg">
<path fill-rule="evenodd" clip-rule="evenodd" d="M17.4484 3.41029C17.145 3.24051 16.7752 3.24051 16.4718 3.41029L5.74801 9.41105C5.43204 9.58786 5.23633 9.92165 5.23633 10.2837V22.2822C5.23633 22.6443 5.43204 22.9781 5.74801 23.1549L16.4718 29.1556C16.7752 29.3254 17.145 29.3254 17.4484 29.1556L28.1722 23.1549C28.4882 22.9781 28.6839 22.6443 28.6839 22.2822V10.2837C28.6839 9.92165 28.4882 9.58786 28.1722 9.41105L17.4484 3.41029ZM7.23633 11.9165V16.7233L10.9403 18.9032C11.2457 19.0829 11.4331 19.4107 11.4331 19.765V24.0443L16.0791 26.6441L16.0791 16.8419L7.23633 11.9165ZM18.0791 16.8915L18.0791 26.5109L22.4638 24.0573V19.4369C22.4638 19.0826 22.6513 18.7548 22.9566 18.5751L26.6839 16.3815V12.003L18.0791 16.8915ZM25.6488 10.2908L21.6973 8.07968L17.2779 10.3397C16.9897 10.4871 16.648 10.4858 16.3609 10.3364L12.1276 8.13303L8.34944 10.2472L17.1234 15.1342L25.6488 10.2908Z" fill="#1C1B1F"/>
</svg>
