<svg width="33" height="33" viewBox="0 0 33 33" fill="none" xmlns="http://www.w3.org/2000/svg">
<path fill-rule="evenodd" clip-rule="evenodd" d="M17.4882 4.78993C17.1848 4.62015 16.815 4.62015 16.5116 4.78993L4.5116 11.5048C4.19979 11.6793 4.00477 12.0069 4.00001 12.3642C3.99947 12.4044 4.00136 12.4443 4.00556 12.4837C4.00183 12.5188 3.99992 12.5545 3.99992 12.5906V19.5187C3.99992 20.071 4.44764 20.5187 4.99992 20.5187C5.55221 20.5187 5.99992 20.071 5.99992 19.5187V14.1363L9.98852 16.5099L10.8479 17.0213L11.8707 15.3027L11.0113 14.7913L7.00012 12.4042L15.9601 7.39036V13.947C15.9601 14.4993 16.4078 14.947 16.9601 14.947C17.5124 14.947 17.9601 14.4993 17.9601 13.947V7.34582L26.9997 12.4042L22.9885 14.7913L22.1292 15.3027L23.152 17.0213L24.0113 16.5099L27.9999 14.1363V19.7149C27.9999 20.2672 28.4476 20.7149 28.9999 20.7149C29.5522 20.7149 29.9999 20.2672 29.9999 19.7149V12.5906C29.9999 12.5545 29.998 12.5188 29.9943 12.4837C29.9985 12.4443 30.0004 12.4044 29.9998 12.3642C29.9951 12.0069 29.8 11.6793 29.4882 11.5048L17.4882 4.78993Z" fill="#1C1B1F"/>
<path d="M12.381 15.6095L16.9602 13.0471L21.5733 15.6285L16.9635 18.355L12.381 15.6095Z" fill="#1C1B1F"/>
<path d="M15.9723 24.8698L15.9778 24.8729V26.4964C15.9778 26.7894 15.7256 27.0381 15.472 26.8915L4.49816 20.5296C4.02043 20.2525 3.8578 19.6406 4.13491 19.1628C4.41203 18.6851 5.02395 18.5225 5.50168 18.7996L6.08049 19.1351L10.3689 16.7355L15.9823 20.0986L15.9723 24.8698Z" fill="#1C1B1F"/>
<path d="M17.9609 20.0887V26.3008L17.9624 26.2999V26.6161C17.9624 26.8948 18.2045 27.1284 18.4458 26.9889L29.4196 20.627C29.8973 20.3499 30.06 19.738 29.7829 19.2602C29.5057 18.7825 28.8938 18.6199 28.4161 18.897L27.9241 19.1822L23.5921 16.7582L17.9609 20.0887Z" fill="#1C1B1F"/>
</svg>
