<svg width="32" height="32" viewBox="0 0 32 32" fill="none" xmlns="http://www.w3.org/2000/svg">
<path fill-rule="evenodd" clip-rule="evenodd" d="M19.3016 6.9212C19.8206 7.10994 20.0884 7.6837 19.8996 8.20273L13.9803 24.4809C13.7916 24.9999 13.2178 25.2677 12.6988 25.0789C12.1798 24.8902 11.912 24.3164 12.1007 23.7974L18.0201 7.51925C18.2088 7.00021 18.7826 6.73246 19.3016 6.9212ZM9.23554 10.7646C9.62607 11.1551 9.62607 11.7883 9.23554 12.1788L5.41421 16.0001L9.23554 19.8215C9.62607 20.212 9.62607 20.8452 9.23554 21.2357C8.84502 21.6262 8.21186 21.6262 7.82133 21.2357L3.29289 16.7073C2.90237 16.3167 2.90237 15.6836 3.29289 15.293L7.82133 10.7646C8.21186 10.3741 8.84502 10.3741 9.23554 10.7646ZM24.1788 10.7646C23.7883 10.3741 23.1551 10.3741 22.7646 10.7646C22.374 11.1551 22.374 11.7883 22.7646 12.1788L26.5859 16.0001L22.7646 19.8215C22.374 20.212 22.374 20.8452 22.7646 21.2357C23.1551 21.6262 23.7883 21.6262 24.1788 21.2357L28.7072 16.7073C29.0977 16.3167 29.0977 15.6836 28.7072 15.293L24.1788 10.7646Z" fill="#111827"/>
</svg>
