<svg width="33" height="33" viewBox="0 0 33 33" fill="none" xmlns="http://www.w3.org/2000/svg">
<path fill-rule="evenodd" clip-rule="evenodd" d="M17.4882 4.93141C17.1848 4.76163 16.815 4.76163 16.5116 4.93141L4.5116 11.6463C4.19979 11.8208 4.00477 12.1484 4.00001 12.5057C3.99947 12.5459 4.00136 12.5858 4.00556 12.6252C4.00183 12.6603 3.99992 12.696 3.99992 12.7321V19.6602C3.99992 20.2124 4.44764 20.6602 4.99992 20.6602C5.55221 20.6602 5.99992 20.2124 5.99992 19.6602V14.2778L9.98852 16.6514L10.8479 17.1628L11.8707 15.4441L11.0113 14.9327L7.00012 12.5456L15.9601 7.53184V14.0885C15.9601 14.6408 16.4078 15.0885 16.9601 15.0885C17.5124 15.0885 17.9601 14.6408 17.9601 14.0885V7.4873L26.9997 12.5456L22.9885 14.9327L22.1292 15.4441L23.152 17.1628L24.0113 16.6514L27.9999 14.2778V19.8564C27.9999 20.4087 28.4476 20.8564 28.9999 20.8564C29.5522 20.8564 29.9999 20.4087 29.9999 19.8564V12.7321C29.9999 12.696 29.998 12.6603 29.9943 12.6252C29.9985 12.5858 30.0004 12.5459 29.9998 12.5057C29.9951 12.1484 29.8 11.8208 29.4882 11.6463L17.4882 4.93141Z" fill="#1C1B1F"/>
<path d="M12.381 15.751L16.9602 13.1886L21.5733 15.77L16.9635 18.4964L12.381 15.751Z" fill="#1C1B1F"/>
<path d="M15.9723 25.0112L15.9778 25.0144V26.6378C15.9778 26.9308 15.7256 27.1796 15.472 27.0329L4.49816 20.6711C4.02043 20.394 3.8578 19.782 4.13491 19.3043C4.41203 18.8266 5.02395 18.664 5.50168 18.9411L6.08049 19.2766L10.3689 16.8769L15.9823 20.2401L15.9723 25.0112Z" fill="#1C1B1F"/>
<path d="M17.9609 20.2301V26.4423L17.9624 26.4414V26.7576C17.9624 27.0363 18.2045 27.2699 18.4458 27.1304L29.4196 20.7685C29.8973 20.4914 30.06 19.8795 29.7829 19.4017C29.5057 18.924 28.8938 18.7614 28.4161 19.0385L27.9241 19.3237L23.5921 16.8996L17.9609 20.2301Z" fill="#1C1B1F"/>
</svg>
