<svg width="32" height="33" viewBox="0 0 32 33" fill="none" xmlns="http://www.w3.org/2000/svg">
<path fill-rule="evenodd" clip-rule="evenodd" d="M19.3016 7.42107C19.8206 7.60981 20.0884 8.18358 19.8996 8.70261L13.9803 24.9808C13.7916 25.4998 13.2178 25.7676 12.6988 25.5788C12.1798 25.3901 11.912 24.8163 12.1007 24.2973L18.0201 8.01912C18.2088 7.50009 18.7826 7.23234 19.3016 7.42107ZM9.23554 11.2645C9.62607 11.655 9.62607 12.2882 9.23554 12.6787L5.41421 16.5L9.23554 20.3214C9.62607 20.7119 9.62607 21.345 9.23554 21.7356C8.84502 22.1261 8.21186 22.1261 7.82133 21.7356L3.29289 17.2071C2.90237 16.8166 2.90237 16.1834 3.29289 15.7929L7.82133 11.2645C8.21186 10.874 8.84502 10.874 9.23554 11.2645ZM24.1788 11.2645C23.7883 10.874 23.1551 10.874 22.7646 11.2645C22.374 11.655 22.374 12.2882 22.7646 12.6787L26.5859 16.5L22.7646 20.3214C22.374 20.7119 22.374 21.345 22.7646 21.7356C23.1551 22.1261 23.7883 22.1261 24.1788 21.7356L28.7072 17.2071C29.0977 16.8166 29.0977 16.1834 28.7072 15.7929L24.1788 11.2645Z" fill="#111827"/>
</svg>
