<svg width="33" height="33" viewBox="0 0 33 33" fill="none" xmlns="http://www.w3.org/2000/svg">
<path fill-rule="evenodd" clip-rule="evenodd" d="M17.4484 3.55177C17.145 3.38199 16.7752 3.38199 16.4718 3.55177L5.74801 9.55253C5.43204 9.72934 5.23633 10.0631 5.23633 10.4252V22.4237C5.23633 22.7858 5.43204 23.1195 5.74801 23.2963L16.4718 29.2971C16.7752 29.4669 17.145 29.4669 17.4484 29.2971L28.1722 23.2963C28.4882 23.1195 28.6839 22.7858 28.6839 22.4237V10.4252C28.6839 10.0631 28.4882 9.72934 28.1722 9.55253L17.4484 3.55177ZM7.23633 12.058V16.8647L10.9403 19.0447C11.2457 19.2244 11.4331 19.5522 11.4331 19.9065V24.1858L16.0791 26.7855L16.0791 16.9834L7.23633 12.058ZM18.0791 17.033L18.0791 26.6524L22.4638 24.1988V19.5784C22.4638 19.2241 22.6513 18.8963 22.9566 18.7166L26.6839 16.523V12.1445L18.0791 17.033ZM25.6488 10.4323L21.6973 8.22116L17.2779 10.4812C16.9897 10.6286 16.648 10.6273 16.3609 10.4779L12.1276 8.27451L8.34944 10.3887L17.1234 15.2757L25.6488 10.4323Z" fill="#1C1B1F"/>
</svg>
