<svg width="32" height="32" viewBox="0 0 32 32" fill="none" xmlns="http://www.w3.org/2000/svg">
<path fill-rule="evenodd" clip-rule="evenodd" d="M9.34608 1.69312C9.34608 1.14083 8.89837 0.693115 8.34608 0.693115C7.7938 0.693115 7.34608 1.14083 7.34608 1.69312V6.46215C7.34608 7.01444 7.7938 7.46215 8.34608 7.46215C8.89837 7.46215 9.34608 7.01444 9.34608 6.46215V1.69312ZM14.1153 1.69312C14.1153 1.14083 13.6676 0.693115 13.1153 0.693115C12.563 0.693115 12.1153 1.14083 12.1153 1.69312V6.46215C12.1153 7.01444 12.563 7.46215 13.1153 7.46215C13.6676 7.46215 14.1153 7.01444 14.1153 6.46215V1.69312ZM17.8845 0.693115C18.4368 0.693115 18.8845 1.14083 18.8845 1.69312V6.46215C18.8845 7.01444 18.4368 7.46215 17.8845 7.46215C17.3322 7.46215 16.8845 7.01444 16.8845 6.46215V1.69312C16.8845 1.14083 17.3322 0.693115 17.8845 0.693115ZM1.05111 29.3072C0.498826 29.3072 0.0511108 29.755 0.0511108 30.3072C0.0511107 30.8595 0.498826 31.3072 1.05111 31.3072L26.2301 31.3072C26.7824 31.3072 27.2301 30.8595 27.2301 30.3072C27.2301 29.755 26.7824 29.3072 26.2301 29.3072H20.3025C21.8402 28.2458 23.1552 26.8511 24.1554 25.2079C24.6083 24.4636 24.9904 23.6788 25.2983 22.8649C25.4282 22.9266 25.5735 22.9612 25.7269 22.9612H26.2304C27.7605 22.9612 29.2279 22.3534 30.3098 21.2715C31.3917 20.1896 31.9995 18.7222 31.9995 17.1921V15.9999C31.9995 14.4698 31.3917 13.0024 30.3098 11.9205C29.2278 10.8386 27.7605 10.2308 26.2304 10.2308C26.2304 10.2308 26.2303 10.2308 26.2302 10.2308V10.211H1.00049C0.448204 10.211 0.000488452 10.6587 0.000488452 11.211V17.7471C8.2884e-05 20.3919 0.720195 22.9813 2.07531 25.2078C3.07547 26.8511 4.39053 28.2458 5.92818 29.3072H1.05111ZM26.2302 12.2308V17.7471C26.2304 18.8349 26.1086 19.9134 25.871 20.9612H26.2304C27.23 20.9612 28.1887 20.5641 28.8955 19.8572C29.6024 19.1504 29.9995 18.1917 29.9995 17.1921V15.9999C29.9995 15.0003 29.6024 14.0416 28.8955 13.3348C28.1887 12.6279 27.23 12.2308 26.2304 12.2308C26.2304 12.2308 26.2303 12.2308 26.2302 12.2308Z" fill="#111827"/>
</svg>
