<svg width="33" height="33" viewBox="0 0 33 33" fill="none" xmlns="http://www.w3.org/2000/svg">
<path d="M11.4216 5.20581V8.89812" stroke="#1C1B1F" stroke-width="2" stroke-linecap="round" stroke-linejoin="round"/>
<path d="M15.114 5.20581V8.89812" stroke="#1C1B1F" stroke-width="2" stroke-linecap="round" stroke-linejoin="round"/>
<path d="M18.8064 5.20581V8.89812" stroke="#1C1B1F" stroke-width="2" stroke-linecap="round" stroke-linejoin="round"/>
<path d="M4.96021 27.3596H25.2679" stroke="#1C1B1F" stroke-width="2" stroke-linecap="round" stroke-linejoin="round"/>
<path d="M10.879 27.36C9.11248 26.5491 7.61575 25.2482 6.56659 23.6119C5.51742 21.9756 4.95989 20.0726 4.96021 18.1288V12.5903H25.2679V18.1288C25.2682 20.0726 24.7107 21.9756 23.6615 23.612C22.6123 25.2483 21.1156 26.5491 19.349 27.36" fill="#1C1B1F"/>
<path d="M10.879 27.36C9.11248 26.5491 7.61575 25.2482 6.56659 23.6119C5.51742 21.9756 4.95989 20.0726 4.96021 18.1288V12.5903H25.2679V18.1288C25.2682 20.0726 24.7107 21.9756 23.6615 23.612C22.6123 25.2483 21.1156 26.5491 19.349 27.36" stroke="#1C1B1F" stroke-width="2" stroke-linecap="round" stroke-linejoin="round"/>
<path d="M25.268 12.5903C26.2473 12.5903 27.1864 12.9793 27.8789 13.6718C28.5713 14.3642 28.9603 15.3034 28.9603 16.2826V17.2057C28.9603 18.185 28.5713 19.1241 27.8789 19.8166C27.1864 20.509 26.2473 20.898 25.268 20.898H24.8782" stroke="#1C1B1F" stroke-width="2" stroke-linecap="round" stroke-linejoin="round"/>
</svg>
