<svg width="32" height="33" viewBox="0 0 32 33" fill="none" xmlns="http://www.w3.org/2000/svg">
<path fill-rule="evenodd" clip-rule="evenodd" d="M9.34608 2.19312C9.34608 1.64083 8.89837 1.19312 8.34608 1.19312C7.7938 1.19312 7.34608 1.64083 7.34608 2.19312V6.96215C7.34608 7.51444 7.7938 7.96215 8.34608 7.96215C8.89837 7.96215 9.34608 7.51444 9.34608 6.96215V2.19312ZM14.1153 2.19312C14.1153 1.64083 13.6676 1.19312 13.1153 1.19312C12.563 1.19312 12.1153 1.64083 12.1153 2.19312V6.96215C12.1153 7.51444 12.563 7.96215 13.1153 7.96215C13.6676 7.96215 14.1153 7.51444 14.1153 6.96215V2.19312ZM17.8845 1.19312C18.4368 1.19312 18.8845 1.64083 18.8845 2.19312V6.96215C18.8845 7.51444 18.4368 7.96215 17.8845 7.96215C17.3322 7.96215 16.8845 7.51444 16.8845 6.96215V2.19312C16.8845 1.64083 17.3322 1.19312 17.8845 1.19312ZM1.05111 29.8072C0.498826 29.8072 0.0511108 30.255 0.0511108 30.8072C0.0511107 31.3595 0.498826 31.8072 1.05111 31.8072L26.2301 31.8072C26.7824 31.8072 27.2301 31.3595 27.2301 30.8072C27.2301 30.255 26.7824 29.8072 26.2301 29.8072H20.3025C21.8402 28.7458 23.1552 27.3511 24.1554 25.7079C24.6083 24.9636 24.9904 24.1788 25.2983 23.3649C25.4282 23.4266 25.5735 23.4612 25.7269 23.4612H26.2304C27.7605 23.4612 29.2279 22.8534 30.3098 21.7715C31.3917 20.6896 31.9995 19.2222 31.9995 17.6921V16.4999C31.9995 14.9698 31.3917 13.5024 30.3098 12.4205C29.2278 11.3386 27.7605 10.7308 26.2304 10.7308C26.2304 10.7308 26.2303 10.7308 26.2302 10.7308V10.711H1.00049C0.448204 10.711 0.000488452 11.1587 0.000488452 11.711V18.2471C8.2884e-05 20.8919 0.720195 23.4813 2.07531 25.7078C3.07547 27.3511 4.39053 28.7458 5.92818 29.8072H1.05111ZM26.2302 12.7308V18.2471C26.2304 19.3349 26.1086 20.4134 25.871 21.4612H26.2304C27.23 21.4612 28.1887 21.0641 28.8955 20.3572C29.6024 19.6504 29.9995 18.6917 29.9995 17.6921V16.4999C29.9995 15.5003 29.6024 14.5416 28.8955 13.8348C28.1887 13.1279 27.23 12.7308 26.2304 12.7308C26.2304 12.7308 26.2303 12.7308 26.2302 12.7308Z" fill="#111827"/>
</svg>
