<svg width="32" height="33" viewBox="0 0 32 33" fill="none" xmlns="http://www.w3.org/2000/svg">
<g clip-path="url(#clip0_339_37)">
<path fill-rule="evenodd" clip-rule="evenodd" d="M10.3688 19.6165C11.2299 19.6165 12.944 19.5703 15.31 18.5951C15.855 18.3709 16.5065 18.1105 17.2316 17.8207L17.2317 17.8207C20.1786 16.643 24.3416 14.9794 27.5178 13.279C30.2886 11.7985 31.5002 9.8372 31.5002 7.1995C31.5002 3.53771 28.5311 0.568604 24.8693 0.568604H9.52394C4.26214 0.568604 0 4.83346 0 10.0925C0 15.3516 3.99593 19.6165 10.3688 19.6165ZM12.9658 26.1739C12.9658 23.596 14.5169 21.2707 16.8993 20.2819L21.7319 18.2772C26.6188 16.248 32.0001 19.8418 32.0001 25.1335C32.0001 29.2327 28.6752 32.5576 24.576 32.5549H19.3441C15.8208 32.5522 12.9658 29.6972 12.9658 26.1739ZM0.00537109 26.3616C0.00537109 23.33 2.46378 20.8716 5.49535 20.8716C8.52693 20.8716 10.9853 23.33 10.9853 26.3616V27.0733C10.9853 30.1049 8.52693 32.5633 5.49535 32.5633C2.46378 32.5633 0.00537109 30.1049 0.00537109 27.0733V26.3616Z" fill="#111827"/>
</g>
<defs>
<clipPath id="clip0_339_37">
<rect width="32" height="32" fill="white" transform="translate(0 0.565918)"/>
</clipPath>
</defs>
</svg>
