<svg width="33" height="33" viewBox="0 0 33 33" fill="none" xmlns="http://www.w3.org/2000/svg">
<path d="M19.5847 16.283C19.5847 9.65554 17.1051 4.28296 14.0463 4.28296C10.9875 4.28296 8.50781 9.65554 8.50781 16.283C8.50781 22.9104 10.9875 28.283 14.0463 28.283C17.1051 28.283 19.5847 22.9104 19.5847 16.283Z" fill="#1C1B1F" stroke="#1C1B1F" stroke-width="2" stroke-linecap="round" stroke-linejoin="round"/>
<path d="M19.5847 16.283L25.1232 16.283" stroke="#1C1B1F" stroke-width="2" stroke-linecap="round" stroke-linejoin="round"/>
<path d="M14.3369 28.283L19.2433 28.283C20.4825 28.283 21.7167 27.8505 22.4466 26.8491C26.2143 21.6792 26.572 11.5123 22.4792 5.80321C21.7275 4.75458 20.4481 4.28296 19.1579 4.28296L14.3369 4.28296" stroke="#1C1B1F" stroke-width="2" stroke-linecap="round"/>
<path d="M18.4431 8.89844L23.9817 8.89844" stroke="#1C1B1F" stroke-width="2" stroke-linecap="round" stroke-linejoin="round"/>
<path d="M18.4431 23.6675L23.9816 23.6675" stroke="#1C1B1F" stroke-width="2" stroke-linecap="round" stroke-linejoin="round"/>
</svg>
