<svg width="33" height="33" viewBox="0 0 33 33" fill="none" xmlns="http://www.w3.org/2000/svg">
<path d="M13.5316 15.7352C18.2655 15.7352 22.103 13.975 22.103 11.8036C22.103 9.63229 18.2655 7.87207 13.5316 7.87207C8.79775 7.87207 4.96021 9.63229 4.96021 11.8036C4.96021 13.975 8.79775 15.7352 13.5316 15.7352Z" fill="#1C1B1F" stroke="#1C1B1F" stroke-width="2" stroke-linecap="round" stroke-linejoin="round"/>
<path d="M13.5315 15.7351V19.6667" stroke="#1C1B1F" stroke-width="2" stroke-linecap="round" stroke-linejoin="round"/>
<path d="M4.96021 12.01V14.9255C4.96021 16.1699 5.39571 17.4222 6.45169 18.0807C10.1076 20.3605 16.5555 20.5638 20.5277 18.1144C21.6305 17.4343 22.103 16.1355 22.103 14.8399V12.01" stroke="#1C1B1F" stroke-width="2" stroke-linecap="round"/>
<path d="M18.8064 14.9248V18.8564" stroke="#1C1B1F" stroke-width="2" stroke-linecap="round" stroke-linejoin="round"/>
<path d="M8.25684 14.9248V18.8564" stroke="#1C1B1F" stroke-width="2" stroke-linecap="round" stroke-linejoin="round"/>
<path d="M20.3887 20.5566C25.1226 20.5566 28.9601 18.7964 28.9601 16.625C28.9601 14.6917 25.9176 13.0842 21.9089 12.7551L22.2114 15.6969C22.1854 16.6716 20.5731 19.613 15.5415 19.868C16.9202 20.3024 18.5897 20.5566 20.3887 20.5566Z" fill="#1C1B1F" stroke="#1C1B1F" stroke-width="2" stroke-linecap="round" stroke-linejoin="round"/>
<path d="M20.3887 20.5566V24.4882" stroke="#1C1B1F" stroke-width="2" stroke-linecap="round" stroke-linejoin="round"/>
<path d="M28.9602 16.8315V19.6614C28.9602 20.957 28.4877 22.2559 27.3849 22.9359C23.3718 25.4105 16.8317 25.1776 13.1968 22.8311C12.2226 22.2023 11.8174 21.0386 11.8174 19.8791V19.8791" stroke="#1C1B1F" stroke-width="2" stroke-linecap="round"/>
<path d="M25.6633 19.7463V23.678" stroke="#1C1B1F" stroke-width="2" stroke-linecap="round" stroke-linejoin="round"/>
<path d="M15.114 19.8721L15.114 23.6779" stroke="#1C1B1F" stroke-width="2" stroke-linecap="round" stroke-linejoin="round"/>
</svg>
