<svg width="32" height="33" viewBox="0 0 32 33" fill="none" xmlns="http://www.w3.org/2000/svg">
<path fill-rule="evenodd" clip-rule="evenodd" d="M18.787 14.0389C19.5147 13.7578 20.1649 13.4357 20.7206 13.0805V14.8953C20.7206 15.905 20.3793 16.7688 19.7448 17.2625C19.4418 17.4983 19.1218 17.7173 18.787 17.9198V14.0389ZM16.787 14.6592C15.4669 14.9812 13.9927 15.1879 12.4283 15.2501L12.4285 15.2696V19.7569C13.9475 19.6684 15.4339 19.3753 16.787 18.8751V14.6592ZM22.8573 10.0278C22.8573 10.3044 22.8106 10.576 22.7206 10.841V11.3066C28.005 11.7678 32.0001 13.898 32.0001 16.4562C32.0001 16.6907 31.9665 16.9216 31.9014 17.1479V21.2744C31.9014 22.7168 31.3996 24.3002 30.0799 25.2891C27.3182 27.3587 23.5786 28.2604 19.9808 28.2126C16.3865 28.1649 12.7732 27.1674 10.2558 25.2496C9.04276 24.3256 8.57033 22.8863 8.52692 21.5622C5.96998 21.1651 3.55613 20.2401 1.73655 18.7999C0.508177 17.8276 0.0770701 16.3209 0.0770701 14.9782V10.6398C0.0261681 10.4391 0 10.2348 0 10.0278C0 7.13262 5.11677 4.78564 11.4286 4.78564C17.7405 4.78564 22.8573 7.13262 22.8573 10.0278ZM10.5427 21.7647C10.6211 22.5806 10.9397 23.2564 11.4677 23.6587C11.926 24.0077 12.436 24.3246 12.9878 24.607V21.7222C12.3823 21.772 11.7752 21.7921 11.1722 21.7838C10.9624 21.7809 10.7524 21.7745 10.5427 21.7647ZM14.9878 21.4461V25.4239C16.3996 25.8751 17.9641 26.1427 19.5714 26.2019V21.6982L19.5716 21.6785C18.2728 21.6269 17.0362 21.4756 15.8983 21.2415C15.5974 21.3179 15.2936 21.3861 14.9878 21.4461ZM21.5714 26.1671C23.057 26.0596 24.507 25.7691 25.8333 25.2937V21.1109C24.5379 21.4196 23.0975 21.6179 21.5712 21.6785L21.5714 21.6982V26.1671ZM28.8805 23.6887C28.55 23.9364 28.2 24.1657 27.8333 24.3767V20.5042C28.617 20.2081 29.3132 19.865 29.9014 19.4844V21.2744C29.9014 22.3081 29.5422 23.1928 28.8805 23.6887ZM2.07707 14.9782V13.042C2.60485 13.3859 3.22051 13.6993 3.90905 13.9755L3.90905 17.8772C3.57883 17.6764 3.26752 17.461 2.97783 17.2317C2.39058 16.7668 2.07707 15.9512 2.07707 14.9782ZM5.90905 18.8351L5.90905 14.6191C7.26992 14.964 8.80045 15.1854 10.4287 15.2501L10.4285 15.2696V19.756C8.82907 19.6618 7.28311 19.3457 5.90905 18.8351Z" fill="#111827"/>
</svg>
