<svg width="32" height="33" viewBox="0 0 32 33" fill="none" xmlns="http://www.w3.org/2000/svg">
<path fill-rule="evenodd" clip-rule="evenodd" d="M29.9863 15.704C29.1551 16.3926 28.092 17.0134 26.8459 17.5439V23.6505C27.6048 23.2144 28.3153 22.723 28.966 22.1758C29.6301 21.6174 29.9863 20.7124 29.9863 19.6959V15.704ZM16.9999 19.4853C19.8899 19.403 22.5723 18.9667 24.8459 18.2691V24.6298C22.458 25.6179 19.7514 26.1545 17 26.2531V19.4995L16.9999 19.4853ZM31.9846 12.4423C31.9948 12.3337 32 12.2246 32 12.1148C32 8.03643 24.8366 4.73022 16 4.73022C7.16344 4.73022 0 8.03643 0 12.1148C0 12.2835 0.0122552 12.4509 0.036377 12.6168V19.7797C0.036377 21.1657 0.499448 22.6534 1.67531 23.6655C5.11932 26.6302 10.3955 28.1919 15.6678 28.2669C20.9455 28.3419 26.4199 26.9301 30.2532 23.7065C31.4769 22.6775 31.9863 21.1459 31.9863 19.6959V12.5024C31.9863 12.4823 31.9857 12.4622 31.9846 12.4423ZM2.03638 15.7228V19.7797C2.03638 20.759 2.36329 21.6188 2.98009 22.1498C3.62633 22.7061 4.35638 23.2112 5.15405 23.6621L5.15405 17.5439C3.91927 17.0182 2.86425 16.4038 2.03638 15.7228ZM7.15405 18.2691L7.15405 24.6234C9.49057 25.5729 12.2021 26.1337 15 26.2479V19.4995L15.0001 19.4853C12.1101 19.403 9.42774 18.9667 7.15405 18.2691Z" fill="#111827"/>
</svg>
