<svg width="32" height="32" viewBox="0 0 32 32" fill="none" xmlns="http://www.w3.org/2000/svg">
<path fill-rule="evenodd" clip-rule="evenodd" d="M18.787 13.5389C19.5147 13.2578 20.1649 12.9357 20.7206 12.5805V14.3953C20.7206 15.405 20.3793 16.2688 19.7448 16.7625C19.4418 16.9983 19.1218 17.2173 18.787 17.4198V13.5389ZM16.787 14.1592C15.4669 14.4812 13.9927 14.6879 12.4283 14.7501L12.4285 14.7696V19.2569C13.9475 19.1684 15.4339 18.8753 16.787 18.3751V14.1592ZM22.8573 9.52777C22.8573 9.80437 22.8106 10.076 22.7206 10.341V10.8066C28.005 11.2678 32.0001 13.398 32.0001 15.9562C32.0001 16.1907 31.9665 16.4216 31.9014 16.6479V20.7744C31.9014 22.2168 31.3996 23.8002 30.0799 24.7891C27.3182 26.8587 23.5786 27.7604 19.9808 27.7126C16.3865 27.6649 12.7732 26.6674 10.2558 24.7496C9.04276 23.8256 8.57033 22.3863 8.52692 21.0622C5.96998 20.6651 3.55613 19.7401 1.73655 18.2999C0.508177 17.3276 0.0770701 15.8209 0.0770701 14.4782V10.1398C0.0261681 9.93905 0 9.73481 0 9.52777C0 6.63262 5.11677 4.28564 11.4286 4.28564C17.7405 4.28564 22.8573 6.63262 22.8573 9.52777ZM10.5427 21.2647C10.6211 22.0806 10.9397 22.7564 11.4677 23.1587C11.926 23.5077 12.436 23.8246 12.9878 24.107V21.2222C12.3823 21.272 11.7752 21.2921 11.1722 21.2838C10.9624 21.2809 10.7524 21.2745 10.5427 21.2647ZM14.9878 20.9461V24.9239C16.3996 25.3751 17.9641 25.6427 19.5714 25.7019V21.1982L19.5716 21.1785C18.2728 21.1269 17.0362 20.9756 15.8983 20.7415C15.5974 20.8179 15.2936 20.8861 14.9878 20.9461ZM21.5714 25.6671C23.057 25.5596 24.507 25.2691 25.8333 24.7937V20.6109C24.5379 20.9196 23.0975 21.1179 21.5712 21.1785L21.5714 21.1982V25.6671ZM28.8805 23.1887C28.55 23.4364 28.2 23.6657 27.8333 23.8767V20.0042C28.617 19.7081 29.3132 19.365 29.9014 18.9844V20.7744C29.9014 21.8081 29.5422 22.6928 28.8805 23.1887ZM2.07707 14.4782V12.542C2.60485 12.8859 3.22051 13.1993 3.90905 13.4755L3.90905 17.3772C3.57883 17.1764 3.26752 16.961 2.97783 16.7317C2.39058 16.2668 2.07707 15.4512 2.07707 14.4782ZM5.90905 18.3351L5.90905 14.1191C7.26992 14.464 8.80045 14.6854 10.4287 14.7501L10.4285 14.7696V19.256C8.82907 19.1618 7.28311 18.8457 5.90905 18.3351Z" fill="#111827"/>
</svg>
