<svg width="32" height="32" viewBox="0 0 32 32" fill="none" xmlns="http://www.w3.org/2000/svg">
<path fill-rule="evenodd" clip-rule="evenodd" d="M15.3329 3.02368C15.923 3.76721 16.4578 4.69428 16.9205 5.7688L22.5297 5.7688C22.1644 5.15343 21.759 4.57367 21.3134 4.03686C20.7659 3.37741 19.8675 3.02368 18.8521 3.02368L15.3329 3.02368ZM18.7656 14.9999C18.6848 12.3406 18.2842 9.8706 17.6463 7.7688L23.5289 7.7688C24.4453 9.96873 24.9477 12.4617 25.0471 14.9997H18.7805L18.7656 14.9999ZM12.2539 1.02368C12.1227 1.00764 11.9905 0.999512 11.8575 0.999512C8.03394 0.999512 4.93433 7.71534 4.93433 15.9997C4.93433 24.2841 8.03394 31 11.8575 31C12.0146 31 12.1705 30.9886 12.325 30.9663H18.9358C20.3145 30.9663 21.8048 30.5093 22.8106 29.3244C25.5525 26.0942 26.9936 21.1997 27.0629 16.3134C27.1321 11.4219 25.8295 6.34569 22.8522 2.75935C21.8295 1.52742 20.295 1.02368 18.8521 1.02368L12.2539 1.02368ZM15.3405 28.9663H18.9358C19.9142 28.9663 20.7663 28.6421 21.2859 28.0301C21.7493 27.4841 22.1742 26.8752 22.5582 26.2146H16.9274C16.4651 27.2914 15.9305 28.2207 15.3405 28.9663ZM23.5343 24.2146C24.4094 22.065 24.93 19.5735 25.0424 16.9997H18.7805L18.7656 16.9996C18.685 19.6521 18.2862 22.1163 17.6511 24.2146H23.5343Z" fill="#111827"/>
</svg>
