<svg width="32" height="33" viewBox="0 0 32 33" fill="none" xmlns="http://www.w3.org/2000/svg">
<path fill-rule="evenodd" clip-rule="evenodd" d="M15.3329 3.52368C15.923 4.26721 16.4578 5.19428 16.9205 6.2688L22.5297 6.2688C22.1644 5.65343 21.759 5.07367 21.3134 4.53686C20.7659 3.87741 19.8675 3.52368 18.8521 3.52368L15.3329 3.52368ZM18.7656 15.4999C18.6848 12.8406 18.2842 10.3706 17.6463 8.2688L23.5289 8.2688C24.4453 10.4687 24.9477 12.9617 25.0471 15.4997H18.7805L18.7656 15.4999ZM12.2539 1.52368C12.1227 1.50764 11.9905 1.49951 11.8575 1.49951C8.03394 1.49951 4.93433 8.21534 4.93433 16.4997C4.93433 24.7841 8.03394 31.5 11.8575 31.5C12.0146 31.5 12.1705 31.4886 12.325 31.4663H18.9358C20.3145 31.4663 21.8048 31.0093 22.8106 29.8244C25.5525 26.5942 26.9936 21.6997 27.0629 16.8134C27.1321 11.9219 25.8295 6.84569 22.8522 3.25935C21.8295 2.02742 20.295 1.52368 18.8521 1.52368L12.2539 1.52368ZM15.3405 29.4663H18.9358C19.9142 29.4663 20.7663 29.1421 21.2859 28.5301C21.7493 27.9841 22.1742 27.3752 22.5582 26.7146H16.9274C16.4651 27.7914 15.9305 28.7207 15.3405 29.4663ZM23.5343 24.7146C24.4094 22.565 24.93 20.0735 25.0424 17.4997H18.7805L18.7656 17.4996C18.685 20.1521 18.2862 22.6163 17.6511 24.7146H23.5343Z" fill="#111827"/>
</svg>
