<svg width="32" height="32" viewBox="0 0 32 32" fill="none" xmlns="http://www.w3.org/2000/svg">
<path fill-rule="evenodd" clip-rule="evenodd" d="M29.9863 15.204C29.1551 15.8926 28.092 16.5134 26.8459 17.0439V23.1505C27.6048 22.7144 28.3153 22.223 28.966 21.6758C29.6301 21.1174 29.9863 20.2124 29.9863 19.1959V15.204ZM16.9999 18.9853C19.8899 18.903 22.5723 18.4667 24.8459 17.7691V24.1298C22.458 25.1179 19.7514 25.6545 17 25.7531V18.9995L16.9999 18.9853ZM31.9846 11.9423C31.9948 11.8337 32 11.7246 32 11.6148C32 7.53643 24.8366 4.23022 16 4.23022C7.16344 4.23022 0 7.53643 0 11.6148C0 11.7835 0.0122552 11.9509 0.036377 12.1168V19.2797C0.036377 20.6657 0.499448 22.1534 1.67531 23.1655C5.11932 26.1302 10.3955 27.6919 15.6678 27.7669C20.9455 27.8419 26.4199 26.4301 30.2532 23.2065C31.4769 22.1775 31.9863 20.6459 31.9863 19.1959V12.0024C31.9863 11.9823 31.9857 11.9622 31.9846 11.9423ZM2.03638 15.2228V19.2797C2.03638 20.259 2.36329 21.1188 2.98009 21.6498C3.62633 22.2061 4.35638 22.7112 5.15405 23.1621L5.15405 17.0439C3.91927 16.5182 2.86425 15.9038 2.03638 15.2228ZM7.15405 17.7691L7.15405 24.1234C9.49057 25.0729 12.2021 25.6337 15 25.7479V18.9995L15.0001 18.9853C12.1101 18.903 9.42774 18.4667 7.15405 17.7691Z" fill="#111827"/>
</svg>
