<svg width="32" height="33" viewBox="0 0 32 33" fill="none" xmlns="http://www.w3.org/2000/svg">
<g clip-path="url(#clip0_257_976)">
<path d="M13.9516 0.91934C13.1031 0.070832 11.7274 0.070832 10.8789 0.91934C10.0304 1.76785 10.0304 3.14355 10.8789 3.99206L27.9495 21.0627C28.798 21.9112 30.1737 21.9112 31.0222 21.0627C31.8708 20.2142 31.8708 18.8385 31.0222 17.99L13.9516 0.91934Z" fill="black"/>
<path d="M0.636381 11.1617C1.48489 10.3132 2.86059 10.3132 3.7091 11.1617L20.7798 28.2324C21.6283 29.0809 21.6283 30.4566 20.7798 31.3051C19.9313 32.1536 18.5555 32.1536 17.707 31.3051L0.636381 14.2344C-0.212127 13.3859 -0.212127 12.0102 0.636381 11.1617Z" fill="black"/>
<path d="M11.2202 11.5032C12.0687 10.6547 13.4445 10.6547 14.293 11.5032L31.3636 28.5739C32.2121 29.4224 32.2121 30.7981 31.3636 31.6466C30.5151 32.4951 29.1394 32.4951 28.2909 31.6466L11.2202 14.5759C10.3717 13.7274 10.3717 12.3517 11.2202 11.5032Z" fill="black"/>
</g>
<defs>
<clipPath id="clip0_257_976">
<rect width="32" height="32" fill="white" transform="translate(0 0.282959)"/>
</clipPath>
</defs>
</svg>
