<svg width="33" height="33" viewBox="0 0 33 33" fill="none" xmlns="http://www.w3.org/2000/svg">
<path fill-rule="evenodd" clip-rule="evenodd" d="M11.1086 6.28125C13.4009 6.28125 15.2592 8.13953 15.2592 10.4318V12.5825H18.6602V10.4318C18.6602 8.13953 20.5185 6.28125 22.8108 6.28125C25.1031 6.28125 26.9614 8.13953 26.9614 10.4318C26.9614 12.7241 25.1031 14.5824 22.8108 14.5824H20.66V17.9834H22.8108C25.1031 17.9834 26.9614 19.8417 26.9614 22.134C26.9614 24.4263 25.1031 26.2846 22.8108 26.2846C20.5185 26.2846 18.6602 24.4263 18.6602 22.134V19.9835H15.2592V22.134C15.2592 24.4263 13.4009 26.2846 11.1086 26.2846C8.81629 26.2846 6.95801 24.4263 6.95801 22.134C6.95801 19.8417 8.81629 17.9834 11.1086 17.9834H13.259V14.5824H11.1086C8.81629 14.5824 6.95801 12.7241 6.95801 10.4318C6.95801 8.13953 8.81629 6.28125 11.1086 6.28125ZM15.259 14.5825V17.9835H18.66V14.5825H15.259Z" fill="#1C1B1F"/>
</svg>
