<svg width="32" height="32" viewBox="0 0 32 32" fill="none" xmlns="http://www.w3.org/2000/svg">
<path fill-rule="evenodd" clip-rule="evenodd" d="M6.2516 0.00244141C9.70291 0.00244141 12.5007 2.80028 12.5007 6.25159V10.5008H19.4992V6.25159C19.4992 2.80028 22.2971 0.00244141 25.7484 0.00244141C29.1997 0.00244141 31.9975 2.80028 31.9975 6.2516C31.9975 9.70291 29.1997 12.5007 25.7484 12.5007H21.4994V19.4993H25.7484C29.1997 19.4993 31.9975 22.2971 31.9975 25.7484C31.9975 29.1997 29.1997 31.9976 25.7484 31.9976C22.2971 31.9976 19.4992 29.1997 19.4992 25.7484V21.4994H12.5007V25.7484C12.5007 29.1997 9.70291 31.9976 6.2516 31.9976C2.80028 31.9976 0.00244141 29.1997 0.00244141 25.7484C0.00244141 22.2971 2.80028 19.4993 6.2516 19.4993H10.5008V12.5007H6.2516C2.80028 12.5007 0.00244141 9.70291 0.00244141 6.2516C0.00244141 2.80028 2.80028 0.00244141 6.2516 0.00244141ZM12.5008 12.5008V19.4994H19.4994V12.5008H12.5008Z" fill="#111827"/>
</svg>
