<svg width="32" height="32" viewBox="0 0 32 32" fill="none" xmlns="http://www.w3.org/2000/svg">
<path fill-rule="evenodd" clip-rule="evenodd" d="M5 0C4.44772 0 4 0.447715 4 1V31C4 31.5523 4.44772 32 5 32H27C27.5523 32 28 31.5523 28 31V1C28 0.447715 27.5523 0 27 0H5ZM10.6667 5.66667C10.1144 5.66667 9.66667 6.11438 9.66667 6.66667C9.66667 7.21895 10.1144 7.66667 10.6667 7.66667H21.3333C21.8856 7.66667 22.3333 7.21895 22.3333 6.66667C22.3333 6.11438 21.8856 5.66667 21.3333 5.66667H10.6667ZM9.66667 12C9.66667 11.4477 10.1144 11 10.6667 11H21.3333C21.8856 11 22.3333 11.4477 22.3333 12C22.3333 12.5523 21.8856 13 21.3333 13H10.6667C10.1144 13 9.66667 12.5523 9.66667 12ZM18 24.6667C18 25.7712 17.1046 26.6667 16 26.6667C14.8954 26.6667 14 25.7712 14 24.6667C14 23.5621 14.8954 22.6667 16 22.6667C17.1046 22.6667 18 23.5621 18 24.6667Z" fill="#111827"/>
</svg>
