<svg width="33" height="33" viewBox="0 0 33 33" fill="none" xmlns="http://www.w3.org/2000/svg">
<path fill-rule="evenodd" clip-rule="evenodd" d="M8.95996 4.2829C8.40768 4.2829 7.95996 4.73061 7.95996 5.2829V27.2829C7.95996 27.8352 8.40768 28.2829 8.95996 28.2829H24.96C25.5122 28.2829 25.96 27.8352 25.96 27.2829V5.2829C25.96 4.73061 25.5122 4.2829 24.96 4.2829H8.95996ZM12.96 8.2829C12.4077 8.2829 11.96 8.73061 11.96 9.2829C11.96 9.83518 12.4077 10.2829 12.96 10.2829H20.96C21.5122 10.2829 21.96 9.83518 21.96 9.2829C21.96 8.73061 21.5122 8.2829 20.96 8.2829H12.96ZM11.96 13.2829C11.96 12.7306 12.4077 12.2829 12.96 12.2829H20.96C21.5122 12.2829 21.96 12.7306 21.96 13.2829C21.96 13.8352 21.5122 14.2829 20.96 14.2829H12.96C12.4077 14.2829 11.96 13.8352 11.96 13.2829ZM18.46 22.7829C18.46 23.6113 17.7884 24.2829 16.96 24.2829C16.1315 24.2829 15.46 23.6113 15.46 22.7829C15.46 21.9545 16.1315 21.2829 16.96 21.2829C17.7884 21.2829 18.46 21.9545 18.46 22.7829Z" fill="#1C1B1F"/>
</svg>
