<svg width="32" height="32" viewBox="0 0 32 32" fill="none" xmlns="http://www.w3.org/2000/svg">
<path fill-rule="evenodd" clip-rule="evenodd" d="M2.00098 16C2.00098 8.26852 8.26858 2.00092 16.0001 2.00092C23.7315 2.00092 29.9991 8.26852 29.9991 16C29.9991 23.7315 23.7315 29.9991 16.0001 29.9991C8.26858 29.9991 2.00098 23.7315 2.00098 16ZM16.0001 0.000915527C7.16401 0.000915527 0.000976562 7.16395 0.000976562 16C0.000976562 24.8361 7.16401 31.9991 16.0001 31.9991C24.8361 31.9991 31.9991 24.8361 31.9991 16C31.9991 7.16395 24.8361 0.000915527 16.0001 0.000915527ZM18.7312 18.4745C18.6797 18.5884 18.5874 18.6789 18.4725 18.7281L10.5199 22.1363C10.105 22.3141 9.68553 21.8946 9.86333 21.4798L13.2719 13.5265C13.321 13.412 13.4111 13.3199 13.5245 13.2683L21.8305 9.49244C22.2506 9.30145 22.6831 9.73306 22.493 10.1536L18.7312 18.4745Z" fill="#111827"/>
</svg>
