<svg width="33" height="33" viewBox="0 0 33 33" fill="none" xmlns="http://www.w3.org/2000/svg">
<path fill-rule="evenodd" clip-rule="evenodd" d="M5.95996 16.2829C5.95996 10.2078 10.8848 5.2829 16.96 5.2829C23.0351 5.2829 27.96 10.2078 27.96 16.2829C27.96 22.358 23.0351 27.2829 16.96 27.2829C10.8848 27.2829 5.95996 22.358 5.95996 16.2829ZM16.96 3.2829C9.78026 3.2829 3.95996 9.1032 3.95996 16.2829C3.95996 23.4626 9.78026 29.2829 16.96 29.2829C24.1397 29.2829 29.96 23.4626 29.96 16.2829C29.96 9.1032 24.1397 3.2829 16.96 3.2829ZM19.1609 18.2272C19.1094 18.3411 19.0172 18.4316 18.9023 18.4808L12.8052 21.0938C12.3903 21.2716 11.9708 20.8521 12.1486 20.4372L14.7619 14.3396C14.811 14.225 14.9011 14.1329 15.0146 14.0814L21.3825 11.1865C21.8026 10.9955 22.2351 11.4272 22.045 11.8477L19.1609 18.2272Z" fill="#1C1B1F"/>
</svg>
