<svg width="32" height="32" viewBox="0 0 32 32" fill="none" xmlns="http://www.w3.org/2000/svg">
<path fill-rule="evenodd" clip-rule="evenodd" d="M22.2981 30.2168C22.059 30.3548 21.7532 30.2729 21.6151 30.0338L20.1941 27.5726C20.0817 27.3779 19.8534 27.2833 19.634 27.3325C18.8113 27.5174 17.9556 27.6149 17.0771 27.6149C16.1988 27.6149 15.3433 27.5174 14.5207 27.3326C14.3014 27.2834 14.073 27.378 13.9606 27.5727L12.5396 30.034C12.4015 30.2731 12.0957 30.3551 11.8566 30.217L7.37516 27.6297C7.13602 27.4916 7.05408 27.1858 7.19215 26.9466L8.61449 24.4831C8.72697 24.2882 8.69465 24.043 8.54203 23.8778C7.56511 22.8199 6.78239 21.5799 6.2505 20.2146H10.9192C12.2636 22.1754 14.5202 23.4616 17.0772 23.4616C21.1979 23.4616 24.5384 20.1211 24.5384 16.0004C24.5384 11.8797 21.1979 8.53921 17.0772 8.53921C14.5502 8.53921 12.3166 9.79549 10.9669 11.7176H6.2771C6.80839 10.3788 7.5814 9.16226 8.54226 8.12181C8.6949 7.95653 8.72722 7.71132 8.61474 7.51648L7.19266 5.05337C7.05459 4.81422 7.13652 4.50843 7.37567 4.37036L11.8571 1.78301C12.0962 1.64494 12.402 1.72688 12.5401 1.96603L13.961 4.42705C14.0734 4.62176 14.3017 4.71638 14.5211 4.66711C15.3435 4.48241 16.1989 4.38495 17.0771 4.38495C17.9555 4.38495 18.8111 4.48244 19.6337 4.66721C19.853 4.71648 20.0814 4.62187 20.1938 4.42715L21.6146 1.96626C21.7526 1.72711 22.0584 1.64517 22.2976 1.78324L26.779 4.37059C27.0181 4.50866 27.1001 4.81445 26.962 5.0536L25.5399 7.51683C25.4274 7.71165 25.4597 7.95686 25.6123 8.12213C26.768 9.37362 27.6519 10.8798 28.1703 12.547C28.2371 12.762 28.4333 12.9127 28.6584 12.9127H31.4999C31.7761 12.9127 31.9999 13.1366 31.9999 13.4127V18.5874C31.9999 18.8636 31.7761 19.0874 31.4999 19.0874H28.6583C28.4332 19.0874 28.237 19.2382 28.1702 19.4531C27.6518 21.1201 26.768 22.6261 25.6126 23.8774C25.46 24.0427 25.4276 24.2879 25.5401 24.4827L26.9625 26.9464C27.1006 27.1856 27.0187 27.4913 26.7795 27.6294L22.2981 30.2168ZM12.392 18.6374L2.6374 18.6374C1.1808 18.6374 0 17.4566 0 16C0 14.5434 1.1808 13.3626 2.6374 13.3626L12.4265 13.2954C13.4046 11.415 15.3708 10.1307 17.6369 10.1307C19.9559 10.1307 21.9608 11.4755 22.9141 13.4279C23.0066 13.6173 22.8633 13.8301 22.6525 13.8305L19.0261 13.8374C17.8317 13.8374 16.8635 14.8056 16.8635 16C16.8635 17.1943 17.8317 18.1626 19.0261 18.1626L22.6525 18.1695C22.8633 18.1699 23.0066 18.3827 22.9141 18.5721C21.9608 20.5245 19.9559 21.8693 17.6369 21.8693C15.33 21.8693 13.3513 20.5733 12.392 18.6374Z" fill="#111827"/>
</svg>
