<svg width="32" height="32" viewBox="0 0 32 32" fill="none" xmlns="http://www.w3.org/2000/svg">
<path fill-rule="evenodd" clip-rule="evenodd" d="M16.512 0.230469C17.0643 0.230469 17.512 0.678184 17.512 1.23047V4.85256C17.512 5.40484 17.0643 5.85256 16.512 5.85256C15.9597 5.85256 15.512 5.40484 15.512 4.85256V1.23047C15.512 0.678184 15.9597 0.230469 16.512 0.230469ZM27.3789 1.43771C27.9312 1.43771 28.3789 1.88542 28.3789 2.43771H27.3789C28.3789 2.43771 28.3789 2.43821 28.3789 2.43873V2.43983L28.3789 2.4423L28.3788 2.44827L28.3786 2.46422C28.3784 2.47662 28.3781 2.49252 28.3774 2.5117C28.3762 2.55002 28.3738 2.60161 28.3693 2.66459C28.3603 2.79022 28.3428 2.96316 28.3087 3.16806C28.2412 3.57312 28.1043 4.12849 27.8206 4.69597C27.5349 5.26736 27.0906 5.86917 26.4055 6.3259C25.7142 6.7868 24.8373 7.0598 23.7568 7.0598C23.0263 7.0598 22.5448 7.23956 22.2175 7.4578C21.8839 7.68021 21.649 7.98392 21.4819 8.31806C21.3129 8.6561 21.2234 9.00626 21.1777 9.28033C21.1553 9.415 21.1444 9.52504 21.1392 9.5975C21.1367 9.63356 21.1355 9.65979 21.135 9.67452L21.1347 9.68746C21.1317 10.2372 20.6851 10.6819 20.1347 10.6819C19.5824 10.6819 19.1347 10.2342 19.1347 9.68189H20.1347C19.1347 9.68189 19.1347 9.68138 19.1347 9.68087L19.1347 9.67976L19.1347 9.67729L19.1348 9.67132L19.1349 9.65537C19.1351 9.64297 19.1355 9.62707 19.1361 9.60789C19.1374 9.56957 19.1398 9.51799 19.1443 9.455C19.1533 9.32938 19.1708 9.15644 19.2049 8.95154C19.2724 8.54647 19.4093 7.9911 19.693 7.42363C19.9787 6.85224 20.423 6.25043 21.1081 5.7937C21.7994 5.3328 22.6763 5.0598 23.7568 5.0598C24.4873 5.0598 24.9688 4.88004 25.2961 4.66179C25.6297 4.43938 25.8646 4.13567 26.0317 3.80154C26.2007 3.46349 26.2902 3.11334 26.3359 2.83926C26.3583 2.70459 26.3692 2.59455 26.3744 2.5221C26.3769 2.48604 26.3781 2.45981 26.3786 2.44507L26.3789 2.43213C26.3819 1.88241 26.8285 1.43771 27.3789 1.43771ZM28.0848 15.0117C27.6942 14.6212 27.0611 14.6212 26.6705 15.0117C26.28 15.4022 26.28 16.0354 26.6705 16.4259L29.0853 18.8406C29.4758 19.2311 30.109 19.2311 30.4995 18.8406C30.89 18.4501 30.89 17.8169 30.4995 17.4264L28.0848 15.0117ZM31.9484 9.36588C32.1231 9.88983 31.8399 10.4561 31.316 10.6308L27.6939 11.8382C27.1699 12.0128 26.6036 11.7296 26.429 11.2057C26.2543 10.6818 26.5375 10.1154 27.0614 9.94079L30.6835 8.73343C31.2075 8.55878 31.7738 8.84194 31.9484 9.36588ZM8.69744 6.63929L6.7662 12.0897L19.6993 25.0228L25.2258 23.0722C25.5733 22.9496 25.6732 22.5059 25.4118 22.2461L9.5212 6.45166C9.26095 6.19299 8.81999 6.29342 8.69744 6.63929ZM3.02978 22.6347L6.02621 14.1781L17.6088 25.7606L9.14354 28.7484L3.02978 22.6347ZM2.28979 24.7231L7.05297 29.4863L0.667401 31.74C0.270934 31.88 -0.11072 31.4979 0.0296993 31.1016L2.28979 24.7231Z" fill="#111827"/>
</svg>
