<svg width="32" height="33" viewBox="0 0 32 33" fill="none" xmlns="http://www.w3.org/2000/svg">
<path fill-rule="evenodd" clip-rule="evenodd" d="M16.512 0.730469C17.0643 0.730469 17.512 1.17818 17.512 1.73047V5.35256C17.512 5.90484 17.0643 6.35256 16.512 6.35256C15.9597 6.35256 15.512 5.90484 15.512 5.35256V1.73047C15.512 1.17818 15.9597 0.730469 16.512 0.730469ZM27.3789 1.93771C27.9312 1.93771 28.3789 2.38542 28.3789 2.93771H27.3789C28.3789 2.93771 28.3789 2.93821 28.3789 2.93873V2.93983L28.3789 2.9423L28.3788 2.94827L28.3786 2.96422C28.3784 2.97662 28.3781 2.99252 28.3774 3.0117C28.3762 3.05002 28.3738 3.10161 28.3693 3.16459C28.3603 3.29022 28.3428 3.46316 28.3087 3.66806C28.2412 4.07312 28.1043 4.62849 27.8206 5.19597C27.5349 5.76736 27.0906 6.36917 26.4055 6.8259C25.7142 7.2868 24.8373 7.5598 23.7568 7.5598C23.0263 7.5598 22.5448 7.73956 22.2175 7.9578C21.8839 8.18021 21.649 8.48392 21.4819 8.81806C21.3129 9.1561 21.2234 9.50626 21.1777 9.78033C21.1553 9.915 21.1444 10.025 21.1392 10.0975C21.1367 10.1336 21.1355 10.1598 21.135 10.1745L21.1347 10.1875C21.1317 10.7372 20.6851 11.1819 20.1347 11.1819C19.5824 11.1819 19.1347 10.7342 19.1347 10.1819H20.1347C19.1347 10.1819 19.1347 10.1814 19.1347 10.1809L19.1347 10.1798L19.1347 10.1773L19.1348 10.1713L19.1349 10.1554C19.1351 10.143 19.1355 10.1271 19.1361 10.1079C19.1374 10.0696 19.1398 10.018 19.1443 9.955C19.1533 9.82938 19.1708 9.65644 19.2049 9.45154C19.2724 9.04647 19.4093 8.4911 19.693 7.92363C19.9787 7.35224 20.423 6.75043 21.1081 6.2937C21.7994 5.8328 22.6763 5.5598 23.7568 5.5598C24.4873 5.5598 24.9688 5.38004 25.2961 5.16179C25.6297 4.93938 25.8646 4.63567 26.0317 4.30154C26.2007 3.96349 26.2902 3.61334 26.3359 3.33926C26.3583 3.20459 26.3692 3.09455 26.3744 3.0221C26.3769 2.98604 26.3781 2.95981 26.3786 2.94507L26.3789 2.93213C26.3819 2.38241 26.8285 1.93771 27.3789 1.93771ZM28.0848 15.5117C27.6942 15.1212 27.0611 15.1212 26.6705 15.5117C26.28 15.9022 26.28 16.5354 26.6705 16.9259L29.0853 19.3406C29.4758 19.7311 30.109 19.7311 30.4995 19.3406C30.89 18.9501 30.89 18.3169 30.4995 17.9264L28.0848 15.5117ZM31.9484 9.86588C32.1231 10.3898 31.8399 10.9561 31.316 11.1308L27.6939 12.3382C27.1699 12.5128 26.6036 12.2296 26.429 11.7057C26.2543 11.1818 26.5375 10.6154 27.0614 10.4408L30.6835 9.23343C31.2075 9.05878 31.7738 9.34194 31.9484 9.86588ZM8.69744 7.13929L6.7662 12.5897L19.6993 25.5228L25.2258 23.5722C25.5733 23.4496 25.6732 23.0059 25.4118 22.7461L9.5212 6.95166C9.26095 6.69299 8.81999 6.79342 8.69744 7.13929ZM3.02978 23.1347L6.02621 14.6781L17.6088 26.2606L9.14354 29.2484L3.02978 23.1347ZM2.28979 25.2231L7.05297 29.9863L0.667401 32.24C0.270934 32.38 -0.11072 31.9979 0.0296993 31.6016L2.28979 25.2231Z" fill="#111827"/>
</svg>
