<svg width="32" height="33" viewBox="0 0 32 33" fill="none" xmlns="http://www.w3.org/2000/svg">
<g clip-path="url(#clip0_257_960)">
<path d="M16.0003 0.282959C17.3482 0.282959 18.441 1.37569 18.441 2.72364V11.5944L25.7074 6.50633C26.8116 5.73318 28.3335 6.00153 29.1066 7.10571C29.8798 8.20988 29.6114 9.73176 28.5072 10.5049L20.2553 16.283L28.5072 22.061C29.6114 22.8342 29.8798 24.356 29.1066 25.4602C28.3335 26.5644 26.8116 26.8327 25.7074 26.0596L18.441 20.9716V29.8423C18.441 31.1902 17.3482 32.283 16.0003 32.283C14.6523 32.283 13.5596 31.1902 13.5596 29.8423V20.9714L6.29295 26.0595C5.18878 26.8327 3.6669 26.5643 2.89375 25.4602C2.1206 24.356 2.38894 22.8341 3.49312 22.061L11.7449 16.283L3.49312 10.505C2.38894 9.73182 2.1206 8.20994 2.89375 7.10577C3.6669 6.00159 5.18878 5.73324 6.29295 6.5064L13.5596 11.5946V2.72364C13.5596 1.37569 14.6523 0.282959 16.0003 0.282959Z" fill="#111827"/>
</g>
<defs>
<clipPath id="clip0_257_960">
<rect width="32" height="32" fill="white" transform="translate(0 0.282959)"/>
</clipPath>
</defs>
</svg>
