<svg width="33" height="33" viewBox="0 0 33 33" fill="none" xmlns="http://www.w3.org/2000/svg">
<path d="M20.689 10.8561C20.689 10.8561 20.689 8.03901 23.506 8.03901C26.3231 8.03901 26.3231 5.22192 26.3231 5.22192" stroke="#1C1B1F" stroke-width="2" stroke-linecap="round" stroke-linejoin="round"/>
<path d="M17.8716 4.28296V7.10004" stroke="#1C1B1F" stroke-width="2" stroke-linecap="round" stroke-linejoin="round"/>
<path d="M26.3228 15.5513L28.2008 17.4293" stroke="#1C1B1F" stroke-width="2" stroke-linecap="round" stroke-linejoin="round"/>
<path d="M26.3228 11.7952L29.1398 10.8562" stroke="#1C1B1F" stroke-width="2" stroke-linecap="round" stroke-linejoin="round"/>
<path fill-rule="evenodd" clip-rule="evenodd" d="M10.3739 12.496L11.7348 8.65523C11.8573 8.30936 12.2983 8.20892 12.5586 8.46759L24.6676 20.5033C24.9289 20.7631 24.829 21.2067 24.4815 21.3294L20.5831 22.7053L10.3739 12.496ZM9.63388 14.5845L7.4678 20.6976L12.3732 25.603L18.4926 23.4432L9.63388 14.5845ZM10.2826 26.3409L6.7278 22.7861L5.1298 27.296C4.98938 27.6923 5.37103 28.0744 5.7675 27.9345L10.2826 26.3409Z" fill="#1C1B1F"/>
</svg>
