<svg width="32" height="32" viewBox="0 0 32 32" fill="none" xmlns="http://www.w3.org/2000/svg">
<path fill-rule="evenodd" clip-rule="evenodd" d="M0.482935 10.6896L19.7251 -0.000488281L30.747 6.50919C30.8353 6.53004 30.9215 6.5631 31.003 6.60842C31.3203 6.78484 31.5171 7.11937 31.5171 7.48242V20.3104C31.5171 20.6562 31.3385 20.9774 31.0448 21.1598L26.8266 23.7807C26.7289 23.8733 26.6126 23.9464 26.4838 23.9937L13.8393 31.8499C13.531 32.0415 13.143 32.051 12.8257 31.8745C12.7786 31.8484 12.7341 31.8187 12.6926 31.786L0.48291 24.3521V10.6896L0.482935 10.6896ZM27.1388 21.2321L29.5171 19.7544V9.28103L27.068 10.8027C27.1137 10.9172 27.1388 11.0422 27.1388 11.173V21.2321ZM25.1388 12.0013V22.4748L20.7249 25.2172V15.0461C20.7249 14.9496 20.7113 14.8563 20.6858 14.768L25.1388 12.0013ZM14.3116 18.7284V29.2019L18.7249 26.4598V15.9863L14.3116 18.7284Z" fill="#111827"/>
</svg>
