<svg width="32" height="33" viewBox="0 0 32 33" fill="none" xmlns="http://www.w3.org/2000/svg">
<path fill-rule="evenodd" clip-rule="evenodd" d="M0.482935 11.1896L19.7251 0.499512L30.747 7.00919C30.8353 7.03004 30.9215 7.0631 31.003 7.10842C31.3203 7.28484 31.5171 7.61937 31.5171 7.98242V20.8104C31.5171 21.1562 31.3385 21.4774 31.0448 21.6598L26.8266 24.2807C26.7289 24.3733 26.6126 24.4464 26.4838 24.4937L13.8393 32.3499C13.531 32.5415 13.143 32.551 12.8257 32.3745C12.7786 32.3484 12.7341 32.3187 12.6926 32.286L0.48291 24.8521V11.1896L0.482935 11.1896ZM27.1388 21.7321L29.5171 20.2544V9.78103L27.068 11.3027C27.1137 11.4172 27.1388 11.5422 27.1388 11.673V21.7321ZM25.1388 12.5013V22.9748L20.7249 25.7172V15.5461C20.7249 15.4496 20.7113 15.3563 20.6858 15.268L25.1388 12.5013ZM14.3116 19.2284V29.7019L18.7249 26.9598V16.4863L14.3116 19.2284Z" fill="#111827"/>
</svg>
