<svg width="32" height="33" viewBox="0 0 32 33" fill="none" xmlns="http://www.w3.org/2000/svg">
<path fill-rule="evenodd" clip-rule="evenodd" d="M12.9997 5C12.9997 4.44772 12.552 4 11.9997 4C11.4474 4 10.9997 4.44772 10.9997 5V9.00095C10.9997 9.55324 11.4474 10.001 11.9997 10.001C12.552 10.001 12.9997 9.55324 12.9997 9.00095V5ZM16.9995 5C16.9995 4.44772 16.5518 4 15.9995 4C15.4472 4 14.9995 4.44772 14.9995 5V9.00095C14.9995 9.55324 15.4472 10.001 15.9995 10.001C16.5518 10.001 16.9995 9.55324 16.9995 9.00095V5ZM19.9995 4C20.5518 4 20.9995 4.44772 20.9995 5V9.00095C20.9995 9.55324 20.5518 10.001 19.9995 10.001C19.4472 10.001 18.9995 9.55324 18.9995 9.00095V5C18.9995 4.44772 19.4472 4 19.9995 4ZM31.6008 15.7999C32.0426 15.4685 32.1322 14.8417 31.8008 14.3999C31.4694 13.958 30.8426 13.8685 30.4008 14.1999L26.9995 16.7508V13.9998C26.9995 13.4476 26.5517 12.9998 25.9995 12.9998H5.99937C5.44708 12.9998 4.99937 13.4476 4.99937 13.9998V16.7499L1.59933 14.1999C1.1575 13.8685 0.530697 13.958 0.199326 14.3999C-0.132044 14.8417 -0.0425013 15.4685 0.399327 15.7999L4.40028 18.8006C4.58013 18.9355 4.79062 19.0006 4.99937 19.0006V27C4.99937 28.1046 5.89479 29 6.99936 29H24.9995C26.104 29 26.9995 28.1046 26.9995 27V19.0006C27.2086 19.0009 27.4196 18.9357 27.5998 18.8006L31.6008 15.7999Z" fill="#111827"/>
</svg>
