<svg width="32" height="32" viewBox="0 0 32 32" fill="none" xmlns="http://www.w3.org/2000/svg">
<path fill-rule="evenodd" clip-rule="evenodd" d="M31.9996 15.9121C32.0154 18.0325 31.6083 20.1348 30.8021 22.096C29.9959 24.0572 28.8066 25.838 27.304 27.3341C21.1464 33.481 11.0862 33.5501 4.84893 27.4841C2.55973 25.2594 0.988338 22.4008 0.33681 19.2758C-0.314719 16.1509 -0.0165946 12.9025 1.19285 9.94833C2.40229 6.99418 4.46776 4.46934 7.12365 2.69848C9.77955 0.92761 12.9044 -0.00831946 16.0965 0.0110365C16.2964 0.0114419 16.4937 0.0567166 16.6738 0.143522C16.8539 0.230327 17.0122 0.356448 17.137 0.512584C17.2618 0.66872 17.35 0.850889 17.3951 1.04565C17.4401 1.24042 17.4409 1.44282 17.3973 1.63791C17.2224 2.41344 17.2231 3.21826 17.3994 3.99347C17.5756 4.76869 17.923 5.49468 18.4161 6.11831C18.9092 6.74194 19.5354 7.24742 20.2491 7.59776C20.9627 7.9481 21.7457 8.13443 22.5407 8.14312C22.8916 8.14603 23.2274 8.28676 23.4756 8.53496C23.7238 8.78315 23.8646 9.11895 23.8675 9.46994C23.8762 10.2649 24.0625 11.0478 24.4128 11.7615C24.7632 12.4751 25.2686 13.1014 25.8922 13.5945C26.5159 14.0875 27.2418 14.4349 28.017 14.6112C28.7922 14.7875 29.5971 14.7882 30.3726 14.6133C30.5675 14.5697 30.7698 14.5703 30.9645 14.6152C31.1591 14.6601 31.3412 14.7482 31.4974 14.8728C31.6535 14.9974 31.7797 15.1555 31.8666 15.3354C31.9535 15.5153 31.9989 15.7124 31.9996 15.9121ZM20.6671 25.3436C21.7717 25.3436 22.6671 24.4481 22.6671 23.3436C22.6671 22.239 21.7717 21.3436 20.6671 21.3436C19.5625 21.3436 18.6671 22.239 18.6671 23.3436C18.6671 24.4481 19.5625 25.3436 20.6671 25.3436ZM12.0004 22.0102C12.0004 23.1148 11.105 24.0102 10.0004 24.0102C8.89581 24.0102 8.00038 23.1148 8.00038 22.0102C8.00038 20.9057 8.89581 20.0102 10.0004 20.0102C11.105 20.0102 12.0004 20.9057 12.0004 22.0102ZM8.66705 14.6768C9.77162 14.6768 10.6671 13.7814 10.6671 12.6768C10.6671 11.5723 9.77162 10.6768 8.66705 10.6768C7.56247 10.6768 6.66703 11.5723 6.66703 12.6768C6.66703 13.7814 7.56247 14.6768 8.66705 14.6768ZM19.3338 15.3435C19.3338 16.4481 18.4383 17.3435 17.3338 17.3435C16.2292 17.3435 15.3338 16.4481 15.3338 15.3435C15.3338 14.2389 16.2292 13.3435 17.3338 13.3435C18.4383 13.3435 19.3338 14.2389 19.3338 15.3435Z" fill="#111827"/>
</svg>
