<svg width="33" height="33" viewBox="0 0 33 33" fill="none" xmlns="http://www.w3.org/2000/svg">
<path fill-rule="evenodd" clip-rule="evenodd" d="M28.9597 16.217C28.9716 17.8073 28.6663 19.384 28.0616 20.8549C27.457 22.3258 26.565 23.6613 25.4381 24.7834C20.8199 29.3935 13.2748 29.4454 8.59688 24.8959C6.87999 23.2274 5.70145 21.0834 5.21281 18.7397C4.72417 16.396 4.94776 13.9598 5.85484 11.7442C6.76191 9.52856 8.311 7.63494 10.3029 6.3068C12.2948 4.97866 14.6385 4.27672 17.0325 4.29124C17.1825 4.29154 17.3304 4.3255 17.4655 4.3906C17.6005 4.4557 17.7192 4.55029 17.8129 4.66739C17.9065 4.7845 17.9726 4.92112 18.0064 5.06719C18.0402 5.21327 18.0408 5.36506 18.0081 5.51139C17.8769 6.09302 17.8774 6.69664 18.0096 7.27805C18.1418 7.85945 18.4024 8.40394 18.7722 8.87166C19.142 9.33938 19.6117 9.71849 20.1469 9.98124C20.6822 10.244 21.2694 10.3837 21.8656 10.3903C22.1288 10.3924 22.3807 10.498 22.5668 10.6841C22.753 10.8703 22.8585 11.1221 22.8607 11.3854C22.8672 11.9816 23.007 12.5688 23.2697 13.104C23.5325 13.6392 23.9116 14.1089 24.3793 14.4787C24.847 14.8485 25.3915 15.1091 25.9729 15.2413C26.5543 15.3735 27.1579 15.374 27.7395 15.2429C27.8857 15.2101 28.0374 15.2106 28.1834 15.2443C28.3294 15.278 28.466 15.344 28.5831 15.4375C28.7002 15.531 28.7948 15.6495 28.86 15.7844C28.9252 15.9193 28.9592 16.0672 28.9597 16.217ZM20.4604 23.2905C21.2889 23.2905 21.9604 22.619 21.9604 21.7905C21.9604 20.9621 21.2889 20.2905 20.4604 20.2905C19.632 20.2905 18.9604 20.9621 18.9604 21.7905C18.9604 22.619 19.632 23.2905 20.4604 23.2905ZM13.9604 20.7905C13.9604 21.619 13.2889 22.2905 12.4604 22.2905C11.632 22.2905 10.9604 21.619 10.9604 20.7905C10.9604 19.9621 11.632 19.2905 12.4604 19.2905C13.2889 19.2905 13.9604 19.9621 13.9604 20.7905ZM11.4604 15.2905C12.2889 15.2905 12.9604 14.619 12.9604 13.7905C12.9604 12.9621 12.2889 12.2905 11.4604 12.2905C10.632 12.2905 9.96045 12.9621 9.96045 13.7905C9.96045 14.619 10.632 15.2905 11.4604 15.2905ZM19.4604 15.7905C19.4604 16.619 18.7889 17.2905 17.9604 17.2905C17.132 17.2905 16.4604 16.619 16.4604 15.7905C16.4604 14.9621 17.132 14.2905 17.9604 14.2905C18.7889 14.2905 19.4604 14.9621 19.4604 15.7905Z" fill="#1C1B1F"/>
</svg>
