<svg width="32" height="32" viewBox="0 0 32 32" fill="none" xmlns="http://www.w3.org/2000/svg">
<path fill-rule="evenodd" clip-rule="evenodd" d="M12.9997 4.5C12.9997 3.94772 12.552 3.5 11.9997 3.5C11.4474 3.5 10.9997 3.94772 10.9997 4.5V8.50095C10.9997 9.05324 11.4474 9.50095 11.9997 9.50095C12.552 9.50095 12.9997 9.05324 12.9997 8.50095V4.5ZM16.9995 4.5C16.9995 3.94772 16.5518 3.5 15.9995 3.5C15.4472 3.5 14.9995 3.94772 14.9995 4.5V8.50095C14.9995 9.05324 15.4472 9.50095 15.9995 9.50095C16.5518 9.50095 16.9995 9.05324 16.9995 8.50095V4.5ZM19.9995 3.5C20.5518 3.5 20.9995 3.94772 20.9995 4.5V8.50095C20.9995 9.05324 20.5518 9.50095 19.9995 9.50095C19.4472 9.50095 18.9995 9.05324 18.9995 8.50095V4.5C18.9995 3.94772 19.4472 3.5 19.9995 3.5ZM31.6008 15.2999C32.0426 14.9685 32.1322 14.3417 31.8008 13.8999C31.4694 13.458 30.8426 13.3685 30.4008 13.6999L26.9995 16.2508V13.4998C26.9995 12.9476 26.5517 12.4998 25.9995 12.4998H5.99937C5.44708 12.4998 4.99937 12.9476 4.99937 13.4998V16.2499L1.59933 13.6999C1.1575 13.3685 0.530697 13.458 0.199326 13.8999C-0.132044 14.3417 -0.0425013 14.9685 0.399327 15.2999L4.40028 18.3006C4.58013 18.4355 4.79062 18.5006 4.99937 18.5006V26.5C4.99937 27.6046 5.89479 28.5 6.99936 28.5H24.9995C26.104 28.5 26.9995 27.6046 26.9995 26.5V18.5006C27.2086 18.5009 27.4196 18.4357 27.5998 18.3006L31.6008 15.2999Z" fill="#111827"/>
</svg>
