<svg width="32" height="33" viewBox="0 0 32 33" fill="none" xmlns="http://www.w3.org/2000/svg">
<path fill-rule="evenodd" clip-rule="evenodd" d="M31.9996 16.4121C32.0154 18.5325 31.6083 20.6348 30.8021 22.596C29.9959 24.5572 28.8066 26.338 27.304 27.8341C21.1464 33.981 11.0862 34.0501 4.84893 27.9841C2.55973 25.7594 0.988338 22.9008 0.33681 19.7758C-0.314719 16.6509 -0.0165946 13.4025 1.19285 10.4483C2.40229 7.49418 4.46776 4.96934 7.12365 3.19848C9.77955 1.42761 12.9044 0.491681 16.0965 0.511036C16.2964 0.511442 16.4937 0.556717 16.6738 0.643522C16.8539 0.730327 17.0122 0.856448 17.137 1.01258C17.2618 1.16872 17.35 1.35089 17.3951 1.54565C17.4401 1.74042 17.4409 1.94282 17.3973 2.13791C17.2224 2.91344 17.2231 3.71826 17.3994 4.49347C17.5756 5.26869 17.923 5.99468 18.4161 6.61831C18.9092 7.24194 19.5354 7.74742 20.2491 8.09776C20.9627 8.4481 21.7457 8.63443 22.5407 8.64312C22.8916 8.64603 23.2274 8.78676 23.4756 9.03496C23.7238 9.28315 23.8646 9.61895 23.8675 9.96994C23.8762 10.7649 24.0625 11.5478 24.4128 12.2615C24.7632 12.9751 25.2686 13.6014 25.8922 14.0945C26.5159 14.5875 27.2418 14.9349 28.017 15.1112C28.7922 15.2875 29.5971 15.2882 30.3726 15.1133C30.5675 15.0697 30.7698 15.0703 30.9645 15.1152C31.1591 15.1601 31.3412 15.2482 31.4974 15.3728C31.6535 15.4974 31.7797 15.6555 31.8666 15.8354C31.9535 16.0153 31.9989 16.2124 31.9996 16.4121ZM20.6671 25.8436C21.7717 25.8436 22.6671 24.9481 22.6671 23.8436C22.6671 22.739 21.7717 21.8436 20.6671 21.8436C19.5625 21.8436 18.6671 22.739 18.6671 23.8436C18.6671 24.9481 19.5625 25.8436 20.6671 25.8436ZM12.0004 22.5102C12.0004 23.6148 11.105 24.5102 10.0004 24.5102C8.89581 24.5102 8.00038 23.6148 8.00038 22.5102C8.00038 21.4057 8.89581 20.5102 10.0004 20.5102C11.105 20.5102 12.0004 21.4057 12.0004 22.5102ZM8.66705 15.1768C9.77162 15.1768 10.6671 14.2814 10.6671 13.1768C10.6671 12.0723 9.77162 11.1768 8.66705 11.1768C7.56247 11.1768 6.66703 12.0723 6.66703 13.1768C6.66703 14.2814 7.56247 15.1768 8.66705 15.1768ZM19.3338 15.8435C19.3338 16.9481 18.4383 17.8435 17.3338 17.8435C16.2292 17.8435 15.3338 16.9481 15.3338 15.8435C15.3338 14.7389 16.2292 13.8435 17.3338 13.8435C18.4383 13.8435 19.3338 14.7389 19.3338 15.8435Z" fill="#111827"/>
</svg>
