<svg width="32" height="33" viewBox="0 0 32 33" fill="none" xmlns="http://www.w3.org/2000/svg">
<path fill-rule="evenodd" clip-rule="evenodd" d="M32 16.5C32 25.3366 24.8366 32.5 16 32.5C7.16344 32.5 0 25.3366 0 16.5C0 7.66344 7.16344 0.5 16 0.5C24.8366 0.5 32 7.66344 32 16.5ZM14.2088 11.1233C15.3369 10.7472 16.5549 10.7354 17.6901 11.0898C18.8253 11.4443 19.8202 12.1468 20.5339 13.0981C20.8654 13.5398 21.4922 13.6292 21.934 13.2978C22.3757 12.9663 22.4651 12.3395 22.1337 11.8977C21.168 10.6108 19.822 9.66022 18.2861 9.18072C16.7502 8.70123 15.1025 8.71708 13.5761 9.22605C12.0498 9.73501 10.7222 10.7113 9.78152 12.0166C8.84082 13.3219 8.33463 14.8901 8.33464 16.4991C8.33465 18.108 8.84086 19.6762 9.78158 20.9815C10.7223 22.2868 12.0498 23.2631 13.5762 23.772C15.1025 24.281 16.7503 24.2968 18.2862 23.8173C19.822 23.3378 21.1681 22.3872 22.1337 21.1002C22.4652 20.6585 22.3758 20.0317 21.934 19.7002C21.4922 19.3687 20.8654 19.4582 20.534 19.8999C19.8202 20.8512 18.8253 21.5538 17.6901 21.9082C16.5549 22.2626 15.337 22.2509 14.2088 21.8747C13.0807 21.4985 12.0994 20.777 11.4041 19.8122C10.7088 18.8474 10.3346 17.6883 10.3346 16.4991C10.3346 15.3098 10.7088 14.1507 11.4041 13.1859C12.0994 12.2211 13.0806 11.4995 14.2088 11.1233Z" fill="#111827"/>
</svg>
