<svg width="33" height="33" viewBox="0 0 33 33" fill="none" xmlns="http://www.w3.org/2000/svg">
<path fill-rule="evenodd" clip-rule="evenodd" d="M11.0054 3.7829C10.4531 3.7829 10.0054 4.23061 10.0054 4.7829V11.275C10.0054 11.293 10.0058 11.3108 10.0068 11.3285H5.45996C4.90768 11.3285 4.45996 11.7762 4.45996 12.3285V27.7829C4.45996 28.3352 4.90768 28.7829 5.45996 28.7829H20.9144C21.4667 28.7829 21.9144 28.3352 21.9144 27.7829V23.2369C21.9246 23.2372 21.9349 23.2373 21.9452 23.2373H28.4598C29.0121 23.2373 29.4598 22.7896 29.4598 22.2373V4.7829C29.4598 4.23061 29.0121 3.7829 28.4598 3.7829H11.0054ZM21.9144 21.2378C21.9246 21.2375 21.9349 21.2373 21.9452 21.2373H27.4598V5.7829H12.0054V11.275C12.0054 11.293 12.0049 11.3108 12.004 11.3285H20.9144C21.4667 11.3285 21.9144 11.7762 21.9144 12.3285V21.2378Z" fill="#1C1B1F"/>
</svg>
