<svg width="32" height="32" viewBox="0 0 32 32" fill="none" xmlns="http://www.w3.org/2000/svg">
<path fill-rule="evenodd" clip-rule="evenodd" d="M32 16C32 24.8366 24.8366 32 16 32C7.16344 32 0 24.8366 0 16C0 7.16344 7.16344 0 16 0C24.8366 0 32 7.16344 32 16ZM14.3104 10.5911C15.4456 10.2365 16.6637 10.248 17.792 10.6241C18.9203 11.0002 19.9016 11.7218 20.597 12.6866C21.2925 13.6515 21.6667 14.8107 21.6667 16C21.6667 17.1893 21.2925 18.3485 20.597 19.3134C19.9016 20.2782 18.9203 20.9998 17.792 21.3759C16.6637 21.752 15.4456 21.7635 14.3104 21.4089C13.1751 21.0543 12.1803 20.3515 11.4667 19.4C11.1353 18.9582 10.5085 18.8686 10.0667 19.2C9.62484 19.5314 9.5353 20.1582 9.86667 20.6C10.8321 21.8873 12.1781 22.8382 13.714 23.3179C15.25 23.7977 16.8979 23.7821 18.4244 23.2732C19.9509 22.7644 21.2787 21.7881 22.2195 20.4828C23.1604 19.1774 23.6667 17.6091 23.6667 16C23.6667 14.3909 23.1604 12.8226 22.2195 11.5172C21.2787 10.2119 19.9509 9.2356 18.4244 8.72676C16.8979 8.21792 15.25 8.20228 13.714 8.68206C12.1781 9.16184 10.8321 10.1127 9.86667 11.4C9.5353 11.8418 9.62484 12.4686 10.0667 12.8C10.5085 13.1314 11.1353 13.0418 11.4667 12.6C12.1803 11.6485 13.1751 10.9457 14.3104 10.5911Z" fill="#111827"/>
</svg>
