<svg width="33" height="33" viewBox="0 0 33 33" fill="none" xmlns="http://www.w3.org/2000/svg">
<path fill-rule="evenodd" clip-rule="evenodd" d="M28.96 16.283C28.96 22.9104 23.5874 28.283 16.96 28.283C10.3325 28.283 4.95996 22.9104 4.95996 16.283C4.95996 9.65554 10.3325 4.28296 16.96 4.28296C23.5874 4.28296 28.96 9.65554 28.96 16.283ZM15.7673 12.4649C16.5686 12.2146 17.4284 12.2227 18.2249 12.4882C19.0213 12.7537 19.714 13.2631 20.2049 13.9441C20.6958 14.6252 20.96 15.4434 20.96 16.283C20.96 17.1225 20.6958 17.9407 20.2049 18.6218C19.714 19.3029 19.0213 19.8122 18.2249 20.0777C17.4284 20.3432 16.5686 20.3513 15.7673 20.101C14.9659 19.8507 14.2637 19.3546 13.76 18.683C13.4286 18.2411 12.8018 18.1516 12.36 18.483C11.9181 18.8143 11.8286 19.4411 12.16 19.883C12.9155 20.8904 13.9689 21.6346 15.171 22.01C16.373 22.3855 17.6627 22.3733 18.8573 21.9751C20.052 21.5768 21.0911 20.8128 21.8274 19.7912C22.5637 18.7696 22.96 17.5423 22.96 16.283C22.96 15.0237 22.5637 13.7963 21.8274 12.7747C21.0911 11.7531 20.052 10.9891 18.8573 10.5909C17.6627 10.1926 16.373 10.1804 15.171 10.5559C13.9689 10.9314 12.9155 11.6755 12.16 12.683C11.8286 13.1248 11.9181 13.7516 12.36 14.083C12.8018 14.4143 13.4286 14.3248 13.76 13.883C14.2637 13.2113 14.9659 12.7152 15.7673 12.4649Z" fill="#1C1B1F"/>
</svg>
