<svg width="33" height="33" viewBox="0 0 33 33" fill="none" xmlns="http://www.w3.org/2000/svg">
<path fill-rule="evenodd" clip-rule="evenodd" d="M8.93457 3.7829C8.38229 3.7829 7.93457 4.23061 7.93457 4.7829C7.93457 5.33518 8.38229 5.7829 8.93457 5.7829H27.46V24.3083C27.46 24.8606 27.9077 25.3083 28.46 25.3083C29.0122 25.3083 29.46 24.8606 29.46 24.3083V4.7829C29.46 4.23061 29.0122 3.7829 28.46 3.7829H8.93457ZM5.45996 9.25748C4.90768 9.25748 4.45996 9.70519 4.45996 10.2575V27.7829C4.45996 28.3351 4.90768 28.7829 5.45996 28.7829H22.9853C23.5376 28.7829 23.9853 28.3351 23.9853 27.7829V10.2575C23.9853 9.70519 23.5376 9.25748 22.9853 9.25748H5.45996Z" fill="#1C1B1F"/>
</svg>
