<svg width="32" height="32" viewBox="0 0 32 32" fill="none" xmlns="http://www.w3.org/2000/svg">
<path fill-rule="evenodd" clip-rule="evenodd" d="M5.77991 0.00012207C5.22763 0.00012207 4.77991 0.447837 4.77991 1.00012C4.77991 1.55241 5.22763 2.00012 5.77991 2.00012H30V26.2202C30 26.7725 30.4477 27.2202 31 27.2202C31.5523 27.2202 32 26.7725 32 26.2202V1.00012C32 0.447837 31.5523 0.00012207 31 0.00012207H5.77991ZM1 6.77976C0.447715 6.77976 0 7.22748 0 7.77976V30.9999C0 31.5521 0.447715 31.9999 1 31.9999H24.2201C24.7724 31.9999 25.2201 31.5521 25.2201 30.9999V7.77976C25.2201 7.22748 24.7724 6.77976 24.2201 6.77976H1Z" fill="#111827"/>
</svg>
