<svg width="32" height="32" viewBox="0 0 32 32" fill="none" xmlns="http://www.w3.org/2000/svg">
<path fill-rule="evenodd" clip-rule="evenodd" d="M8.45448 0.000152588C7.9022 0.000152588 7.45448 0.447868 7.45448 1.00015V9.38577C7.45448 9.40896 7.45527 9.43196 7.45682 9.45476H1.00049C0.448204 9.45476 0.000488281 9.90247 0.000488281 10.4548V30.9999C0.000488281 31.5522 0.448203 31.9999 1.00049 31.9999H21.5456C22.0979 31.9999 22.5456 31.5522 22.5456 30.9999V24.5445C22.5587 24.545 22.5718 24.5453 22.585 24.5453H30.9996C31.5519 24.5453 31.9996 24.0975 31.9996 23.5453V1.00015C31.9996 0.447868 31.5519 0.000152588 30.9996 0.000152588H8.45448ZM22.5456 22.546C22.5587 22.5455 22.5718 22.5453 22.585 22.5453H29.9996V2.00015H9.45448V9.38577C9.45448 9.40896 9.45369 9.43196 9.45214 9.45476H21.5456C22.0979 9.45476 22.5456 9.90247 22.5456 10.4548V22.546Z" fill="#111827"/>
</svg>
