<svg width="32" height="33" viewBox="0 0 32 33" fill="none" xmlns="http://www.w3.org/2000/svg">
<path fill-rule="evenodd" clip-rule="evenodd" d="M23.4448 0.500732C22.8925 0.500732 22.4448 0.948448 22.4448 1.50073C22.4448 2.05302 22.8925 2.50073 23.4448 2.50073H29.9992V9.05518C29.9992 9.60747 30.447 10.0552 30.9992 10.0552C31.5515 10.0552 31.9992 9.60747 31.9992 9.05518V1.50073C31.9992 0.948448 31.5515 0.500732 30.9992 0.500732H23.4448ZM1.00146 0.500977C0.44918 0.500977 0.00146484 0.948692 0.00146484 1.50098V9.05543C0.00146484 9.60771 0.44918 10.0554 1.00146 10.0554C1.55375 10.0554 2.00146 9.60771 2.00146 9.05543L2.00146 2.50098L8.55591 2.50098C9.1082 2.50098 9.55591 2.05326 9.55591 1.50098C9.55591 0.948692 9.1082 0.500977 8.55591 0.500977H1.00146ZM1.00146 22.9445C1.55375 22.9445 2.00146 23.3923 2.00146 23.9445L2.00146 30.499H8.55591C9.1082 30.499 9.55591 30.9467 9.55591 31.499C9.55591 32.0513 9.1082 32.499 8.55591 32.499H1.00146C0.44918 32.499 0.00146484 32.0513 0.00146484 31.499V23.9445C0.00146484 23.3923 0.44918 22.9445 1.00146 22.9445ZM31.9992 23.9443C31.9992 23.392 31.5515 22.9443 30.9992 22.9443C30.447 22.9443 29.9992 23.392 29.9992 23.9443V30.4988H23.4448C22.8925 30.4988 22.4448 30.9465 22.4448 31.4988C22.4448 32.051 22.8925 32.4988 23.4448 32.4988H30.9992C31.5515 32.4988 31.9992 32.051 31.9992 31.4988V23.9443Z" fill="#111827"/>
</svg>
