<svg width="33" height="33" viewBox="0 0 33 33" fill="none" xmlns="http://www.w3.org/2000/svg">
<path fill-rule="evenodd" clip-rule="evenodd" d="M21.7603 3.78296C22.3125 3.78296 22.7603 4.23067 22.7603 4.78296V10.983H28.9603C29.5125 10.983 29.9603 11.4307 29.9603 11.983C29.9603 12.5352 29.5125 12.983 28.9603 12.983H21.7603C21.208 12.983 20.7603 12.5352 20.7603 11.983V4.78296C20.7603 4.23067 21.208 3.78296 21.7603 3.78296ZM4.95996 20.583C4.40768 20.583 3.95996 21.0307 3.95996 21.583C3.95996 22.1353 4.40768 22.583 4.95996 22.583H11.16V28.783C11.16 29.3353 11.6077 29.783 12.16 29.783C12.7122 29.783 13.16 29.3353 13.16 28.783V21.583C13.16 21.0307 12.7122 20.583 12.16 20.583H4.95996ZM21.7603 20.583C21.208 20.583 20.7603 21.0307 20.7603 21.583V28.783C20.7603 29.3353 21.208 29.783 21.7603 29.783C22.3125 29.783 22.7603 29.3353 22.7603 28.783V22.583H28.9603C29.5125 22.583 29.9603 22.1353 29.9603 21.583C29.9603 21.0307 29.5125 20.583 28.9603 20.583H21.7603ZM13.16 4.78296C13.16 4.23067 12.7122 3.78296 12.16 3.78296C11.6077 3.78296 11.16 4.23067 11.16 4.78296V10.983H4.95996C4.40768 10.983 3.95996 11.4307 3.95996 11.983C3.95996 12.5352 4.40768 12.983 4.95996 12.983H12.16C12.7122 12.983 13.16 12.5352 13.16 11.983V4.78296Z" fill="#1C1B1F"/>
</svg>
