<svg width="32" height="33" viewBox="0 0 32 33" fill="none" xmlns="http://www.w3.org/2000/svg">
<path fill-rule="evenodd" clip-rule="evenodd" d="M22.0001 0.500977C22.5524 0.500977 23.0001 0.948692 23.0001 1.50098V9.50039H30.9995C31.5518 9.50039 31.9995 9.94811 31.9995 10.5004C31.9995 11.0527 31.5518 11.5004 30.9995 11.5004H22.0001C21.4478 11.5004 21.0001 11.0527 21.0001 10.5004V1.50098C21.0001 0.948692 21.4478 0.500977 22.0001 0.500977ZM1.00098 21.4996C0.448692 21.4996 0.000976562 21.9473 0.000976562 22.4996C0.000976562 23.0519 0.448692 23.4996 1.00098 23.4996H9.0004V31.4991C9.0004 32.0513 9.44811 32.4991 10.0004 32.4991C10.5527 32.4991 11.0004 32.0513 11.0004 31.4991V22.4996C11.0004 21.9473 10.5527 21.4996 10.0004 21.4996H1.00098ZM22.0001 21.4996C21.4478 21.4996 21.0001 21.9473 21.0001 22.4996V31.4991C21.0001 32.0513 21.4478 32.4991 22.0001 32.4991C22.5524 32.4991 23.0001 32.0513 23.0001 31.4991V23.4996H30.9995C31.5518 23.4996 31.9995 23.0519 31.9995 22.4996C31.9995 21.9473 31.5518 21.4996 30.9995 21.4996H22.0001ZM11.0004 1.50098C11.0004 0.948692 10.5527 0.500977 10.0004 0.500977C9.44811 0.500977 9.0004 0.948692 9.0004 1.50098V9.50039H1.00098C0.448692 9.50039 0.000976562 9.94811 0.000976562 10.5004C0.000976562 11.0527 0.448692 11.5004 1.00098 11.5004H10.0004C10.5527 11.5004 11.0004 11.0527 11.0004 10.5004V1.50098Z" fill="#111827"/>
</svg>
