<svg width="32" height="33" viewBox="0 0 32 33" fill="none" xmlns="http://www.w3.org/2000/svg">
<path fill-rule="evenodd" clip-rule="evenodd" d="M12.2558 0.999679C12.5319 0.521386 13.1435 0.357511 13.6218 0.633653L16.339 2.20243C16.7197 2.33953 16.9932 2.70099 17 3.12724C17.0064 3.30826 16.9637 3.49322 16.8664 3.66164L15.2045 6.54025C14.9283 7.01854 14.3167 7.18241 13.8385 6.90627C13.3602 6.63013 13.1963 6.01854 13.4724 5.54025L14.2092 4.2642C7.77813 5.13801 2.82178 10.6511 2.82178 17.3218C2.82178 20.4204 3.88994 23.2668 5.67889 25.5167C6.02262 25.949 5.95082 26.5781 5.51853 26.9218C5.08624 27.2655 4.45716 27.1937 4.11344 26.7614C2.05325 24.1704 0.821777 20.8885 0.821777 17.3218C0.821777 10.0311 5.96213 3.94101 12.8163 2.478L12.6218 2.3657C12.1435 2.08956 11.9796 1.47797 12.2558 0.999679ZM17.0005 9.68606C17.0005 9.13377 16.5528 8.68606 16.0005 8.68606C15.4482 8.68606 15.0005 9.13377 15.0005 9.68606V10.448H14.5319C13.4878 10.448 12.4864 10.8628 11.7481 11.6011C11.0098 12.3394 10.595 13.3408 10.595 14.385C10.595 15.4291 11.0098 16.4305 11.7481 17.1688C12.4864 17.9071 13.4878 18.3219 14.5319 18.3219H15.0005V22.1957H14.2382C13.7245 22.1957 13.2318 21.9917 12.8686 21.6284C12.5053 21.2652 12.3013 20.7725 12.3013 20.2588C12.3013 19.7065 11.8536 19.2588 11.3013 19.2588C10.749 19.2588 10.3013 19.7065 10.3013 20.2588C10.3013 21.3029 10.7161 22.3043 11.4544 23.0426C12.1927 23.7809 13.1941 24.1957 14.2382 24.1957H15.0005V24.9581C15.0005 25.5104 15.4482 25.9581 16.0005 25.9581C16.5528 25.9581 17.0005 25.5104 17.0005 24.9581V24.1957H17.7625C18.8067 24.1957 19.808 23.7809 20.5463 23.0426C21.2847 22.3043 21.6994 21.3029 21.6994 20.2588C21.6994 19.2147 21.2847 18.2133 20.5463 17.475C19.808 16.7367 18.8067 16.3219 17.7625 16.3219H17.0005V12.448H17.1751C17.4295 12.448 17.6814 12.4981 17.9164 12.5955C18.1514 12.6928 18.3649 12.8355 18.5447 13.0153C18.7246 13.1952 18.8673 13.4087 18.9646 13.6437C19.062 13.8787 19.1121 14.1306 19.1121 14.385C19.1121 14.9372 19.5598 15.385 20.1121 15.385C20.6643 15.385 21.1121 14.9372 21.1121 14.385C21.1121 13.8679 21.0102 13.356 20.8124 12.8784C20.6145 12.4007 20.3245 11.9667 19.959 11.6011C19.5934 11.2355 19.1594 10.9456 18.6817 10.7477C18.2041 10.5499 17.6921 10.448 17.1751 10.448H17.0005V9.68606ZM15.0005 12.448H14.5319C14.0182 12.448 13.5255 12.6521 13.1623 13.0153C12.799 13.3786 12.595 13.8712 12.595 14.385C12.595 14.8987 12.799 15.3913 13.1623 15.7546C13.5255 16.1178 14.0182 16.3219 14.5319 16.3219H15.0005V12.448ZM17.0005 18.3219V22.1957H17.7625C18.2762 22.1957 18.7689 21.9917 19.1321 21.6284C19.4954 21.2652 19.6994 20.7725 19.6994 20.2588C19.6994 19.7451 19.4954 19.2524 19.1321 18.8892C18.7689 18.5259 18.2762 18.3219 17.7625 18.3219H17.0005ZM22.8673 3.78245C22.3749 3.53226 21.7729 3.72858 21.5228 4.22095C21.2726 4.71331 21.4689 5.31527 21.9613 5.56546C26.2461 7.74278 29.1784 12.1908 29.1784 17.3218C29.1784 20.3823 28.1364 23.1965 26.3872 25.4331C26.0469 25.8682 26.1238 26.4967 26.5588 26.8369C26.9938 27.1771 27.6223 27.1003 27.9626 26.6653C29.9771 24.0894 31.1784 20.8445 31.1784 17.3218C31.1784 11.4089 27.7971 6.28751 22.8673 3.78245ZM8.34944 28.0533C7.90003 27.7323 7.27547 27.8364 6.95446 28.2858C6.63345 28.7352 6.73754 29.3598 7.18695 29.6808C9.67174 31.4556 12.7154 32.5002 16.0001 32.5002C19.0579 32.5002 21.9074 31.5949 24.2914 30.0374C24.7537 29.7353 24.8837 29.1156 24.5816 28.6533C24.2796 28.1909 23.6599 28.061 23.1975 28.363C21.1289 29.7145 18.6578 30.5002 16.0001 30.5002C13.1458 30.5002 10.5062 29.5939 8.34944 28.0533Z" fill="#111827"/>
</svg>
