<svg width="32" height="33" viewBox="0 0 32 33" fill="none" xmlns="http://www.w3.org/2000/svg">
<path d="M26.0001 19.9341C26.0001 21.2602 25.3014 21.91 24 21.933V21.9341H7.99997V21.933C6.69863 21.91 5.99995 21.2602 5.99995 19.9341C5.99995 18.608 6.69863 17.9582 7.99997 17.9352V17.9341H24V17.9352C25.3014 17.9582 26.0001 18.608 26.0001 19.9341ZM24 22.9351V22.934H7.99997V22.9351C6.69863 22.9581 5.99995 23.6081 5.99995 24.9342C5.99995 26.2603 6.69863 26.9101 7.99997 26.9331V26.9342H24V26.9331C25.3013 26.9101 26.0001 26.2603 26.0001 24.9342C26.0001 23.6081 25.3014 22.9581 24 22.9351ZM29.0001 11.9364V11.9352C27.6987 11.9582 27 12.6081 27 13.9342V24.9342C27 26.2603 27.6986 26.9101 29.0001 26.9331V26.9308C30.952 26.8619 32 24.9124 32 20.934V15.9342C32.0001 13.282 30.952 11.9823 29.0001 11.9364ZM3.00003 11.9352V11.9364C1.04797 11.9823 0 13.2819 0 15.9342V20.9341C0 24.9125 1.04797 26.8619 3.00003 26.9309V26.9332C4.30137 26.9102 4.99994 26.2604 4.99994 24.9343V13.9342C4.99994 12.6081 4.30137 11.9582 3.00003 11.9352ZM29.0001 10.9341C29.0001 7.61885 27.2533 5.9943 24 5.93684V5.93408H7.99997V5.93684C4.74668 5.9943 3.00003 7.61885 3.00003 10.9341V10.9358C4.95199 10.9703 5.99995 11.945 5.99995 13.9342C5.99995 15.9232 7.04803 16.8981 8.99998 16.9325V16.9342H23V16.9325C24.9521 16.8981 26.0001 15.9232 26.0001 13.9342C26.0001 11.945 27.048 10.9703 29.0001 10.9358V10.9341Z" fill="#111827"/>
</svg>
