<svg width="33" height="33" viewBox="0 0 33 33" fill="none" xmlns="http://www.w3.org/2000/svg">
<path d="M24.46 19.4835C24.46 20.4781 23.936 20.9655 22.96 20.9827V20.9836H10.9599V20.9827C9.98394 20.9655 9.45992 20.4781 9.45992 19.4835C9.45992 18.489 9.98394 18.0016 10.9599 17.9844V17.9835H22.96V17.9844C23.936 18.0016 24.46 18.489 24.46 19.4835ZM22.96 21.7343V21.7335H10.9599V21.7343C9.98394 21.7516 9.45992 22.239 9.45992 23.2336C9.45992 24.2282 9.98394 24.7155 10.9599 24.7328V24.7336H22.96V24.7328C23.9359 24.7155 24.46 24.2282 24.46 23.2336C24.46 22.239 23.936 21.7516 22.96 21.7343ZM26.71 13.4852V13.4844C25.734 13.5016 25.2099 13.989 25.2099 14.9836V23.2336C25.2099 24.2282 25.7339 24.7155 26.71 24.7328V24.731C28.174 24.6794 28.96 23.2173 28.96 20.2335V16.4836C28.96 14.4945 28.174 13.5197 26.71 13.4852ZM7.20998 13.4844V13.4852C5.74594 13.5197 4.95996 14.4944 4.95996 16.4836V20.2336C4.95996 23.2173 5.74594 24.6794 7.20998 24.7311V24.7329C8.18599 24.7156 8.70992 24.2282 8.70992 23.2337V14.9836C8.70992 13.989 8.18599 13.5016 7.20998 13.4844ZM26.71 12.7336C26.71 10.2471 25.4 9.02869 22.96 8.98559V8.98352H10.9599V8.98559C8.51997 9.02869 7.20998 10.2471 7.20998 12.7336V12.7348C8.67395 12.7607 9.45992 13.4917 9.45992 14.9836C9.45992 16.4754 10.246 17.2065 11.7099 17.2324V17.2336H22.21V17.2324C23.674 17.2065 24.46 16.4754 24.46 14.9836C24.46 13.4917 25.246 12.7607 26.71 12.7348V12.7336Z" fill="#1C1B1F"/>
</svg>
