<svg width="33" height="33" viewBox="0 0 33 33" fill="none" xmlns="http://www.w3.org/2000/svg">
<path d="M24.46 19.3421C24.46 20.3366 23.936 20.824 22.96 20.8413V20.8421H10.9599V20.8413C9.98394 20.824 9.45992 20.3366 9.45992 19.3421C9.45992 18.3475 9.98394 17.8601 10.9599 17.8429V17.8421H22.96V17.8429C23.936 17.8601 24.46 18.3475 24.46 19.3421ZM22.96 21.5928V21.592H10.9599V21.5928C9.98394 21.6101 9.45992 22.0975 9.45992 23.0921C9.45992 24.0867 9.98394 24.5741 10.9599 24.5913V24.5921H22.96V24.5913C23.9359 24.5741 24.46 24.0867 24.46 23.0921C24.46 22.0975 23.936 21.6101 22.96 21.5928ZM26.71 13.3437V13.3429C25.734 13.3602 25.2099 13.8475 25.2099 14.8421V23.0921C25.2099 24.0867 25.7339 24.5741 26.71 24.5913V24.5896C28.174 24.5379 28.96 23.0758 28.96 20.092V16.3421C28.96 14.353 28.174 13.3782 26.71 13.3437ZM7.20998 13.3429V13.3437C5.74594 13.3782 4.95996 14.3529 4.95996 16.3421V20.0921C4.95996 23.0759 5.74594 24.5379 7.20998 24.5896V24.5914C8.18599 24.5741 8.70992 24.0868 8.70992 23.0922V14.8421C8.70992 13.8475 8.18599 13.3602 7.20998 13.3429ZM26.71 12.5921C26.71 10.1056 25.4 8.88721 22.96 8.84411V8.84204H10.9599V8.84411C8.51997 8.88721 7.20998 10.1056 7.20998 12.5921V12.5933C8.67395 12.6192 9.45992 13.3502 9.45992 14.8421C9.45992 16.3339 10.246 17.065 11.7099 17.0909V17.0921H22.21V17.0909C23.674 17.065 24.46 16.3339 24.46 14.8421C24.46 13.3502 25.246 12.6192 26.71 12.5933V12.5921Z" fill="#1C1B1F"/>
</svg>
