<svg width="32" height="32" viewBox="0 0 32 32" fill="none" xmlns="http://www.w3.org/2000/svg">
<path fill-rule="evenodd" clip-rule="evenodd" d="M20.4608 1.00098C20.4608 0.448692 20.013 0.000976562 19.4608 0.000976562C18.9085 0.000976562 18.4608 0.448692 18.4608 1.00098V4.46232C18.4608 4.46234 18.4608 4.46237 18.4608 4.4624H13.5389C13.5389 4.46237 13.5389 4.46234 13.5389 4.46232V1.00098C13.5389 0.448692 13.0912 0.000976562 12.5389 0.000976562C11.9866 0.000976562 11.5389 0.448692 11.5389 1.00098V4.46232C11.5389 4.46234 11.5389 4.46237 11.5389 4.4624H5.46167C4.90938 4.4624 4.46167 4.91011 4.46167 5.4624V11.5388H1.00049C0.448204 11.5388 0.000488281 11.9865 0.000488281 12.5388C0.000488281 13.0911 0.448204 13.5388 1.00049 13.5388H4.46167V18.4615H1.00049C0.448204 18.4615 0.000488281 18.9092 0.000488281 19.4615C0.000488281 20.0138 0.448204 20.4615 1.00049 20.4615H4.46167V26.538C4.46167 27.0903 4.90938 27.538 5.46167 27.538H11.5389V30.9992C11.5389 31.5515 11.9866 31.9992 12.5389 31.9992C13.0912 31.9992 13.5389 31.5515 13.5389 30.9992V27.538H18.4608V30.9992C18.4608 31.5515 18.9085 31.9992 19.4608 31.9992C20.013 31.9992 20.4608 31.5515 20.4608 30.9992V27.538H26.5373C27.0895 27.538 27.5373 27.0903 27.5373 26.538V20.4615C27.5373 20.4615 27.5374 20.4615 27.5375 20.4615H30.9988C31.5511 20.4615 31.9988 20.0138 31.9988 19.4615C31.9988 18.9092 31.5511 18.4615 30.9988 18.4615H27.5375C27.5374 18.4615 27.5373 18.4615 27.5373 18.4615V13.5388C27.5373 13.5388 27.5374 13.5388 27.5375 13.5388H30.9988C31.5511 13.5388 31.9988 13.0911 31.9988 12.5388C31.9988 11.9865 31.5511 11.5388 30.9988 11.5388H27.5375C27.5374 11.5388 27.5373 11.5388 27.5373 11.5388V5.4624C27.5373 4.91011 27.0896 4.4624 26.5373 4.4624H20.4608C20.4608 4.46237 20.4608 4.46234 20.4608 4.46232V1.00098ZM10.9614 12.4621C10.9614 11.6337 11.633 10.9621 12.4614 10.9621H19.5379C20.3663 10.9621 21.0379 11.6337 21.0379 12.4621V19.5386C21.0379 20.367 20.3663 21.0386 19.5379 21.0386H12.4614C11.633 21.0386 10.9614 20.367 10.9614 19.5386V12.4621ZM12.9614 12.9621V19.0386H19.0379V12.9621H12.9614Z" fill="#111827"/>
</svg>
