<svg width="33" height="33" viewBox="0 0 33 33" fill="none" xmlns="http://www.w3.org/2000/svg">
<path fill-rule="evenodd" clip-rule="evenodd" d="M20.729 4.28296C20.729 3.73067 20.2813 3.28296 19.729 3.28296C19.1767 3.28296 18.729 3.73067 18.729 4.28296V7.05219C18.729 7.05221 18.729 7.05223 18.729 7.05225H15.1909C15.1909 7.05223 15.1909 7.05221 15.1909 7.05219V4.28296C15.1909 3.73067 14.7432 3.28296 14.1909 3.28296C13.6386 3.28296 13.1909 3.73067 13.1909 4.28296V7.05219C13.1909 7.05221 13.1909 7.05223 13.1909 7.05225H8.729C8.17672 7.05225 7.729 7.49996 7.729 8.05225V12.5137H4.95996C4.40768 12.5137 3.95996 12.9614 3.95996 13.5137C3.95996 14.066 4.40768 14.5137 4.95996 14.5137H7.729V18.0522H4.95996C4.40768 18.0522 3.95996 18.5 3.95996 19.0522C3.95996 19.6045 4.40768 20.0522 4.95996 20.0522H7.729V24.5138C7.729 25.0661 8.17672 25.5138 8.729 25.5138H13.1909V28.2829C13.1909 28.8352 13.6386 29.2829 14.1909 29.2829C14.7432 29.2829 15.1909 28.8352 15.1909 28.2829V25.5138H18.729V28.2829C18.729 28.8352 19.1767 29.2829 19.729 29.2829C20.2813 29.2829 20.729 28.8352 20.729 28.2829V25.5138H25.1905C25.7428 25.5138 26.1905 25.0661 26.1905 24.5138V20.0522C26.1907 20.0522 26.1908 20.0522 26.1909 20.0522H28.9601C29.5124 20.0522 29.9601 19.6045 29.9601 19.0522C29.9601 18.5 29.5124 18.0522 28.9601 18.0522H26.1909C26.1908 18.0522 26.1907 18.0522 26.1905 18.0522V14.5137C26.1907 14.5137 26.1908 14.5137 26.1909 14.5137H28.9601C29.5124 14.5137 29.9601 14.066 29.9601 13.5137C29.9601 12.9614 29.5124 12.5137 28.9601 12.5137H26.1909C26.1908 12.5137 26.1907 12.5137 26.1905 12.5137V8.05225C26.1905 7.49996 25.7428 7.05225 25.1905 7.05225H20.729C20.729 7.05223 20.729 7.05221 20.729 7.05219V4.28296ZM12.729 13.5522C12.729 12.7238 13.4006 12.0522 14.229 12.0522H19.6905C20.519 12.0522 21.1905 12.7238 21.1905 13.5522V19.0138C21.1905 19.8422 20.519 20.5138 19.6905 20.5138H14.229C13.4006 20.5138 12.729 19.8422 12.729 19.0138V13.5522ZM14.729 14.0522V18.5138H19.1905V14.0522H14.729Z" fill="#1C1B1F"/>
</svg>
