<svg width="32" height="33" viewBox="0 0 32 33" fill="none" xmlns="http://www.w3.org/2000/svg">
<path fill-rule="evenodd" clip-rule="evenodd" d="M20.4608 1.50098C20.4608 0.948692 20.013 0.500977 19.4608 0.500977C18.9085 0.500977 18.4608 0.948692 18.4608 1.50098V4.96232C18.4608 4.96234 18.4608 4.96237 18.4608 4.9624H13.5389C13.5389 4.96237 13.5389 4.96234 13.5389 4.96232V1.50098C13.5389 0.948692 13.0912 0.500977 12.5389 0.500977C11.9866 0.500977 11.5389 0.948692 11.5389 1.50098V4.96232C11.5389 4.96234 11.5389 4.96237 11.5389 4.9624H5.46167C4.90938 4.9624 4.46167 5.41011 4.46167 5.9624V12.0388H1.00049C0.448204 12.0388 0.000488281 12.4865 0.000488281 13.0388C0.000488281 13.5911 0.448204 14.0388 1.00049 14.0388H4.46167V18.9615H1.00049C0.448204 18.9615 0.000488281 19.4092 0.000488281 19.9615C0.000488281 20.5138 0.448204 20.9615 1.00049 20.9615H4.46167V27.038C4.46167 27.5903 4.90938 28.038 5.46167 28.038H11.5389V31.4992C11.5389 32.0515 11.9866 32.4992 12.5389 32.4992C13.0912 32.4992 13.5389 32.0515 13.5389 31.4992V28.038H18.4608V31.4992C18.4608 32.0515 18.9085 32.4992 19.4608 32.4992C20.013 32.4992 20.4608 32.0515 20.4608 31.4992V28.038H26.5373C27.0895 28.038 27.5373 27.5903 27.5373 27.038V20.9615C27.5373 20.9615 27.5374 20.9615 27.5375 20.9615H30.9988C31.5511 20.9615 31.9988 20.5138 31.9988 19.9615C31.9988 19.4092 31.5511 18.9615 30.9988 18.9615H27.5375C27.5374 18.9615 27.5373 18.9615 27.5373 18.9615V14.0388C27.5373 14.0388 27.5374 14.0388 27.5375 14.0388H30.9988C31.5511 14.0388 31.9988 13.5911 31.9988 13.0388C31.9988 12.4865 31.5511 12.0388 30.9988 12.0388H27.5375C27.5374 12.0388 27.5373 12.0388 27.5373 12.0388V5.9624C27.5373 5.41011 27.0896 4.9624 26.5373 4.9624H20.4608C20.4608 4.96237 20.4608 4.96234 20.4608 4.96232V1.50098ZM10.9614 12.9621C10.9614 12.1337 11.633 11.4621 12.4614 11.4621H19.5379C20.3663 11.4621 21.0379 12.1337 21.0379 12.9621V20.0386C21.0379 20.867 20.3663 21.5386 19.5379 21.5386H12.4614C11.633 21.5386 10.9614 20.867 10.9614 20.0386V12.9621ZM12.9614 13.4621V19.5386H19.0379V13.4621H12.9614Z" fill="#111827"/>
</svg>
