<svg width="32" height="33" viewBox="0 0 32 33" fill="none" xmlns="http://www.w3.org/2000/svg">
<path fill-rule="evenodd" clip-rule="evenodd" d="M0.999756 5.11523C0.447471 5.11523 -0.000244141 5.56295 -0.000244141 6.11523V26.8848C-0.000244141 27.4371 0.447471 27.8848 0.999756 27.8848H31.0002C31.5525 27.8848 32.0002 27.4371 32.0002 26.8848V6.11523C32.0002 5.56295 31.5525 5.11523 31.0002 5.11523H0.999756ZM1.99976 12.0072V7.11523H30.0002V12.0072H1.99976ZM21.7682 21.2691C21.2159 21.2691 20.7682 21.7169 20.7682 22.2691C20.7682 22.8214 21.2159 23.2691 21.7682 23.2691H26.3837C26.936 23.2691 27.3837 22.8214 27.3837 22.2691C27.3837 21.7169 26.936 21.2691 26.3837 21.2691H21.7682ZM13.845 22.2691C13.845 21.7169 14.2927 21.2691 14.845 21.2691H17.1533C17.7055 21.2691 18.1533 21.7169 18.1533 22.2691C18.1533 22.8214 17.7055 23.2691 17.1533 23.2691H14.845C14.2927 23.2691 13.845 22.8214 13.845 22.2691Z" fill="#111827"/>
</svg>
