<svg width="33" height="33" viewBox="0 0 33 33" fill="none" xmlns="http://www.w3.org/2000/svg">
<rect x="4.96094" y="7.97559" width="23.9993" height="16.6149" stroke="#1C1B1F" stroke-width="2" stroke-linejoin="round"/>
<path fill-rule="evenodd" clip-rule="evenodd" d="M4.96094 12.6892H28.9603V24.5905H4.96094V12.6892ZM20.5752 20.8983C20.5752 20.346 21.0229 19.8983 21.5752 19.8983H25.2674C25.8197 19.8983 26.2674 20.346 26.2674 20.8983C26.2674 21.4506 25.8197 21.8983 25.2674 21.8983H21.5752C21.0229 21.8983 20.5752 21.4506 20.5752 20.8983ZM16.0369 19.8983C15.4846 19.8983 15.0369 20.346 15.0369 20.8983C15.0369 21.4506 15.4846 21.8983 16.0369 21.8983H17.883C18.4353 21.8983 18.883 21.4506 18.883 20.8983C18.883 20.346 18.4353 19.8983 17.883 19.8983H16.0369Z" fill="#1C1B1F"/>
</svg>
