<svg width="32" height="32" viewBox="0 0 32 32" fill="none" xmlns="http://www.w3.org/2000/svg">
<path fill-rule="evenodd" clip-rule="evenodd" d="M0.999756 4.61523C0.447471 4.61523 -0.000244141 5.06295 -0.000244141 5.61523V26.3848C-0.000244141 26.9371 0.447471 27.3848 0.999756 27.3848H31.0002C31.5525 27.3848 32.0002 26.9371 32.0002 26.3848V5.61523C32.0002 5.06295 31.5525 4.61523 31.0002 4.61523H0.999756ZM1.99976 11.5072V6.61523H30.0002V11.5072H1.99976ZM21.7682 20.7691C21.2159 20.7691 20.7682 21.2169 20.7682 21.7691C20.7682 22.3214 21.2159 22.7691 21.7682 22.7691H26.3837C26.936 22.7691 27.3837 22.3214 27.3837 21.7691C27.3837 21.2169 26.936 20.7691 26.3837 20.7691H21.7682ZM13.845 21.7691C13.845 21.2169 14.2927 20.7691 14.845 20.7691H17.1533C17.7055 20.7691 18.1533 21.2169 18.1533 21.7691C18.1533 22.3214 17.7055 22.7691 17.1533 22.7691H14.845C14.2927 22.7691 13.845 22.3214 13.845 21.7691Z" fill="#111827"/>
</svg>
