<svg width="32" height="33" viewBox="0 0 32 33" fill="none" xmlns="http://www.w3.org/2000/svg">
<g clip-path="url(#clip0_751_32)">
<path fill-rule="evenodd" clip-rule="evenodd" d="M28.6267 4.83137C29.0355 4.39421 29.0008 3.70184 28.5224 3.34218C25.7704 1.27349 22.4151 0.141489 18.9529 0.131897C15.4975 0.122324 12.1424 1.23129 9.38216 3.27692C8.89511 3.63788 8.86231 4.34118 9.28207 4.77857L13.3099 8.97549C13.9292 9.62084 14.9282 9.64442 15.6814 9.16195C16.6378 8.54929 17.6138 8.22417 18.9304 8.22782C20.2504 8.23147 21.3293 8.56535 22.347 9.18729C23.1205 9.66001 24.1386 9.63029 24.7578 8.96822L28.6267 4.83137ZM6.1078 25.7307C6.4757 26.2213 7.18933 26.2439 7.62163 25.8089L11.683 21.7229C12.3059 21.0963 12.3096 20.1129 11.8483 19.3593C11.2746 18.4225 11.0171 17.4735 11.0128 16.1575C11.0085 14.8334 11.2231 13.653 11.7741 12.571C12.1849 11.7643 12.1534 10.7436 11.49 10.1275L7.5578 6.47549C7.11869 6.06767 6.42546 6.10543 6.06793 6.58636C4.01172 9.35229 2.8975 12.7178 2.90878 16.1839C2.92001 19.6374 4.04793 22.9838 6.1078 25.7307ZM9.23941 28.8797C8.75153 28.5096 8.73213 27.7971 9.16788 27.3669L12.9999 23.5832C13.6296 22.9614 14.6197 22.9661 15.4103 23.3635C16.4653 23.8939 17.5912 24.0333 18.9538 24.0255C20.3162 24.0177 21.4191 23.8818 22.4554 23.3493C23.2387 22.9467 24.2221 22.9259 24.8598 23.5333L28.7669 27.255C29.2123 27.6792 29.2032 28.3958 28.7173 28.7729C25.9445 30.9245 22.5309 32.1115 19.0002 32.1317C15.467 32.1519 12.0377 31.0023 9.23941 28.8797ZM18.9085 20.9422C21.5652 20.9422 23.7188 18.7886 23.7188 16.1319C23.7188 13.4752 21.5652 11.3215 18.9085 11.3215C16.2518 11.3215 14.0981 13.4752 14.0981 16.1319C14.0981 18.7886 16.2518 20.9422 18.9085 20.9422Z" fill="#111827"/>
</g>
<defs>
<clipPath id="clip0_751_32">
<rect width="32" height="32" fill="white" transform="translate(0 0.131836)"/>
</clipPath>
</defs>
</svg>
