<svg width="32" height="32" viewBox="0 0 32 32" fill="none" xmlns="http://www.w3.org/2000/svg">
<path fill-rule="evenodd" clip-rule="evenodd" d="M7.76919 0.999756C7.76919 0.447471 7.32147 -0.000244141 6.76919 -0.000244141C6.2169 -0.000244141 5.76919 0.447471 5.76919 0.999756V5.76955H0.999023C0.446739 5.76955 -0.000976562 6.21727 -0.000976562 6.76955C-0.000976562 7.32184 0.446739 7.76955 0.999023 7.76955H5.76919V25.2315C5.76919 25.7838 6.2169 26.2315 6.76919 26.2315H24.2303V31.0002C24.2303 31.5525 24.678 32.0002 25.2303 32.0002C25.7826 32.0002 26.2303 31.5525 26.2303 31.0002V26.2315H31.0008C31.553 26.2315 32.0008 25.7838 32.0008 25.2315C32.0008 24.6792 31.553 24.2315 31.0008 24.2315H25.2678C25.2554 24.231 25.2429 24.2308 25.2303 24.2308C25.2177 24.2308 25.2052 24.231 25.1928 24.2315H7.76919V0.999756ZM10.3834 6.76955C10.3834 6.21727 10.8311 5.76955 11.3834 5.76955H25.2311C25.7834 5.76955 26.2311 6.21727 26.2311 6.76955V20.6163C26.2311 21.1686 25.7834 21.6163 25.2311 21.6163C24.6788 21.6163 24.2311 21.1686 24.2311 20.6163V7.76955H11.3834C10.8311 7.76955 10.3834 7.32184 10.3834 6.76955Z" fill="#111827"/>
</svg>
