<svg width="32" height="32" viewBox="0 0 32 32" fill="none" xmlns="http://www.w3.org/2000/svg">
<path fill-rule="evenodd" clip-rule="evenodd" d="M17.0001 1.00092C17.0001 0.448631 16.5523 0.000915527 16.0001 0.000915527C15.4478 0.000915527 15.0001 0.448631 15.0001 1.00092V2.81578C8.4952 3.30215 3.30213 8.49516 2.81567 15H1.00098C0.448692 15 0.000976562 15.4477 0.000976562 16C0.000976562 16.5523 0.448692 17 1.00098 17H2.81567C3.30209 23.5049 8.49518 28.6979 15.0001 29.1843V30.9991C15.0001 31.5514 15.4478 31.9991 16.0001 31.9991C16.5523 31.9991 17.0001 31.5514 17.0001 30.9991V29.1843C23.5048 28.6978 28.6977 23.5048 29.1842 17H30.999C31.5513 17 31.999 16.5523 31.999 16C31.999 15.4477 31.5513 15 30.999 15H29.1841C28.6977 8.49526 23.5048 3.30231 17.0001 2.8158V1.00092ZM25.4438 15H27.1774C26.7006 9.60051 22.3995 5.2994 17.0001 4.8225V6.55614C17.0001 7.10842 16.5523 7.55614 16.0001 7.55614C15.4478 7.55614 15.0001 7.10842 15.0001 6.55614V4.82248C9.60045 5.29924 5.29922 9.60041 4.82237 15H6.5562C7.10848 15 7.5562 15.4477 7.5562 16C7.5562 16.5523 7.10848 17 6.5562 17H4.82237C5.29918 22.3996 9.60042 26.7008 15.0001 27.1776V25.4439C15.0001 24.8916 15.4478 24.4439 16.0001 24.4439C16.5523 24.4439 17.0001 24.8916 17.0001 25.4439V27.1776C22.3996 26.7007 26.7006 22.3995 27.1775 17H25.4438C24.8915 17 24.4438 16.5523 24.4438 16C24.4438 15.4477 24.8915 15 25.4438 15ZM20.4439 16C20.4439 18.4545 18.4542 20.4442 15.9997 20.4442C13.5453 20.4442 11.5556 18.4545 11.5556 16C11.5556 13.5456 13.5453 11.5559 15.9997 11.5559C18.4542 11.5559 20.4439 13.5456 20.4439 16Z" fill="#111827"/>
</svg>
