<svg width="33" height="33" viewBox="0 0 33 33" fill="none" xmlns="http://www.w3.org/2000/svg">
<path fill-rule="evenodd" clip-rule="evenodd" d="M17.96 4.2829C17.96 3.73061 17.5122 3.2829 16.96 3.2829C16.4077 3.2829 15.96 3.73061 15.96 4.2829V5.5509C10.8056 6.02509 6.70212 10.1286 6.22791 15.2829H4.95996C4.40768 15.2829 3.95996 15.7306 3.95996 16.2829C3.95996 16.8352 4.40768 17.2829 4.95996 17.2829H6.22791C6.70212 22.4372 10.8056 26.5407 15.96 27.0149V28.2829C15.96 28.8352 16.4077 29.2829 16.96 29.2829C17.5122 29.2829 17.96 28.8352 17.96 28.2829V27.0149C23.1143 26.5407 27.2177 22.4372 27.6919 17.2829H28.9601C29.5124 17.2829 29.9601 16.8352 29.9601 16.2829C29.9601 15.7306 29.5124 15.2829 28.9601 15.2829H27.6919C27.2177 10.1286 23.1143 6.02514 17.96 5.55091V4.2829ZM24.5156 15.2829H25.6813C25.2222 11.2342 22.0087 8.02064 17.96 7.56147V8.72734C17.96 9.27963 17.5122 9.72734 16.96 9.72734C16.4077 9.72734 15.96 9.27963 15.96 8.72734V7.56146C11.9112 8.02058 8.69762 11.2341 8.23847 15.2829H9.40441C9.95669 15.2829 10.4044 15.7306 10.4044 16.2829C10.4044 16.8352 9.95669 17.2829 9.40441 17.2829H8.23847C8.69761 21.3317 11.9112 24.5452 15.96 25.0044V23.8384C15.96 23.2862 16.4077 22.8384 16.96 22.8384C17.5122 22.8384 17.96 23.2862 17.96 23.8384V25.0043C22.0087 24.5452 25.2222 21.3316 25.6813 17.2829H24.5156C23.9633 17.2829 23.5156 16.8352 23.5156 16.2829C23.5156 15.7306 23.9633 15.2829 24.5156 15.2829ZM20.5154 16.2829C20.5154 18.2466 18.9235 19.8385 16.9599 19.8385C14.9962 19.8385 13.4043 18.2466 13.4043 16.2829C13.4043 14.3192 14.9962 12.7274 16.9599 12.7274C18.9235 12.7274 20.5154 14.3192 20.5154 16.2829Z" fill="#1C1B1F"/>
</svg>
