<svg width="32" height="32" viewBox="0 0 32 32" fill="none" xmlns="http://www.w3.org/2000/svg">
<path d="M0.26457 9.92394L4.62124 27.6992C4.68879 27.9748 4.97195 28.1386 5.24595 28.0648C13.8503 25.7485 23.234 27.0188 27.3895 28.0689C27.6691 28.1396 27.9508 27.9657 28.0106 27.6836L31.7724 9.91949C31.8612 9.49971 31.4148 9.17032 31.04 9.37906L22.4214 14.178C22.1779 14.3137 21.8704 14.2239 21.7381 13.9785L16.6898 4.6174C16.5003 4.26607 15.9958 4.26747 15.8083 4.61984L10.8247 13.985C10.6953 14.2281 10.3938 14.3208 10.1502 14.1925L0.983266 9.36256C0.601865 9.1616 0.161945 9.50523 0.26457 9.92394Z" fill="#111827"/>
</svg>
