<svg width="32" height="32" viewBox="0 0 32 32" fill="none" xmlns="http://www.w3.org/2000/svg">
<path fill-rule="evenodd" clip-rule="evenodd" d="M5.06551 28.0227C4.79153 28.0965 4.50836 27.9327 4.44082 27.6571L0.0151122 9.60018C-0.0875126 9.18147 0.352406 8.83785 0.733808 9.0388L10.0549 13.9499C10.2984 14.0783 10.6 13.9855 10.7293 13.7424L15.7952 4.22263C15.9827 3.87026 16.4872 3.86886 16.6767 4.22019L21.8084 13.736C21.9407 13.9813 22.2482 14.0711 22.4917 13.9355L31.2561 9.05531C31.6309 8.84656 32.0774 9.17595 31.9885 9.59573L28.167 27.6415C28.1073 27.9236 27.8255 28.0974 27.546 28.0267C23.3325 26.9607 13.8021 25.6686 5.06551 28.0227ZM11.734 23.4501C14.7089 23.1371 17.7085 23.1371 20.6835 23.4501C21.2327 23.5078 21.7248 23.1094 21.7826 22.5602C21.8404 22.0109 21.442 21.5188 20.8927 21.461C17.7786 21.1334 14.6388 21.1334 11.5247 21.461C10.9755 21.5188 10.577 22.0109 10.6348 22.5602C10.6926 23.1094 11.1847 23.5078 11.734 23.4501Z" fill="#111827"/>
</svg>
