<svg width="32" height="33" viewBox="0 0 32 33" fill="none" xmlns="http://www.w3.org/2000/svg">
<path fill-rule="evenodd" clip-rule="evenodd" d="M5.06551 28.5227C4.79153 28.5965 4.50836 28.4327 4.44082 28.1571L0.0151122 10.1002C-0.0875126 9.68147 0.352406 9.33785 0.733808 9.5388L10.0549 14.4499C10.2984 14.5783 10.6 14.4855 10.7293 14.2424L15.7952 4.72263C15.9827 4.37026 16.4872 4.36886 16.6767 4.72019L21.8084 14.236C21.9407 14.4813 22.2482 14.5711 22.4917 14.4355L31.2561 9.55531C31.6309 9.34656 32.0774 9.67595 31.9885 10.0957L28.167 28.1415C28.1073 28.4236 27.8255 28.5974 27.546 28.5267C23.3325 27.4607 13.8021 26.1686 5.06551 28.5227ZM11.734 23.9501C14.7089 23.6371 17.7085 23.6371 20.6835 23.9501C21.2327 24.0078 21.7248 23.6094 21.7826 23.0602C21.8404 22.5109 21.442 22.0188 20.8927 21.961C17.7786 21.6334 14.6388 21.6334 11.5247 21.961C10.9755 22.0188 10.577 22.5109 10.6348 23.0602C10.6926 23.6094 11.1847 24.0078 11.734 23.9501Z" fill="#111827"/>
</svg>
