<svg width="32" height="33" viewBox="0 0 32 33" fill="none" xmlns="http://www.w3.org/2000/svg">
<path d="M0.26457 10.4239L4.62124 28.1992C4.68879 28.4748 4.97195 28.6386 5.24595 28.5648C13.8503 26.2485 23.234 27.5188 27.3895 28.5689C27.6691 28.6396 27.9508 28.4657 28.0106 28.1836L31.7724 10.4195C31.8612 9.99971 31.4148 9.67032 31.04 9.87906L22.4214 14.678C22.1779 14.8137 21.8704 14.7239 21.7381 14.4785L16.6898 5.1174C16.5003 4.76607 15.9958 4.76747 15.8083 5.11984L10.8247 14.485C10.6953 14.7281 10.3938 14.8208 10.1502 14.6925L0.983266 9.86256C0.601865 9.6616 0.161945 10.0052 0.26457 10.4239Z" fill="#111827"/>
</svg>
