<svg width="32" height="32" viewBox="0 0 32 32" fill="none" xmlns="http://www.w3.org/2000/svg">
<path fill-rule="evenodd" clip-rule="evenodd" d="M3.61611 6.85645C3.27461 7.04755 3.27509 7.53917 3.61697 7.7296L15.903 14.5728C15.9843 14.6182 16.0784 14.6325 16.1715 14.6325C16.1873 14.6325 16.203 14.6329 16.2186 14.6336C16.3473 14.6396 16.4795 14.6274 16.5916 14.5637L28.5063 7.7948C28.8449 7.60243 28.8433 7.1139 28.5035 6.92373L16.2438 0.0635459C16.0921 -0.0213448 15.9072 -0.0213447 15.7555 0.063546L3.61611 6.85645ZM30.6951 9.71061C30.6951 9.32725 30.2815 9.0865 29.9482 9.27587L17.4245 16.3907C17.2681 16.4796 17.1715 16.6456 17.1715 16.8254V31.3072C17.1715 31.6891 17.5824 31.93 17.9156 31.7435L30.4393 24.7356C30.5973 24.6472 30.6951 24.4803 30.6951 24.2993V9.71061ZM14.4273 31.9358C14.7606 32.1223 15.1715 31.8814 15.1715 31.4995V16.7486C15.1715 16.5672 15.0733 16.4 14.9148 16.3117L2.0475 9.14473C1.71423 8.9591 1.3042 9.20005 1.3042 9.58154V24.2993C1.3042 24.4803 1.40206 24.6472 1.56004 24.7356L14.4273 31.9358Z" fill="#111827"/>
</svg>
