<svg width="33" height="33" viewBox="0 0 33 33" fill="none" xmlns="http://www.w3.org/2000/svg">
<path fill-rule="evenodd" clip-rule="evenodd" d="M8.35131 9.06855C8.00981 9.25965 8.01029 9.75127 8.35217 9.9417L16.9385 14.7243C16.9646 14.7388 16.9942 14.7455 17.0241 14.7455C17.1098 14.7455 17.1961 14.7311 17.2706 14.6888L25.5398 9.99103C25.8784 9.79866 25.8768 9.31013 25.5369 9.11995L17.1424 4.42255C16.9907 4.33766 16.8057 4.33766 16.654 4.42255L8.35131 9.06855ZM27.6206 11.9682C27.6206 11.5848 27.207 11.3441 26.8736 11.5335L18.2771 16.4172C18.1207 16.5061 18.0241 16.6721 18.0241 16.852V26.8001C18.0241 27.182 18.435 27.423 18.7683 27.2365L27.3648 22.4261C27.5228 22.3377 27.6206 22.1708 27.6206 21.9897V11.9682ZM15.2799 27.3774C15.6132 27.5639 16.0241 27.323 16.0241 26.941V16.7981C16.0241 16.6167 15.9259 16.4495 15.7674 16.3613L6.91908 11.4328C6.58581 11.2472 6.17578 11.4881 6.17578 11.8696V21.9897C6.17578 22.1708 6.27364 22.3377 6.43162 22.4261L15.2799 27.3774Z" fill="#1C1B1F"/>
</svg>
