<svg width="32" height="33" viewBox="0 0 32 33" fill="none" xmlns="http://www.w3.org/2000/svg">
<path fill-rule="evenodd" clip-rule="evenodd" d="M4.85486 8.69493C4.647 8.18326 4.06369 7.93698 3.55202 8.14484C3.04035 8.35271 2.79406 8.93601 3.00193 9.44769L5.46076 15.5002H3C2.44772 15.5002 2 15.9479 2 16.5002C2 17.0525 2.44772 17.5002 3 17.5002H6.27326L9.0378 24.3052C9.19097 24.6822 9.55732 24.9288 9.96427 24.9288C10.3712 24.9288 10.7376 24.6822 10.8907 24.3052L13.6553 17.5002H18.345L21.1095 24.3052C21.2627 24.6822 21.6291 24.9288 22.036 24.9288C22.443 24.9288 22.8093 24.6822 22.9625 24.3052L25.727 17.5002H29.0007C29.553 17.5002 30.0007 17.0525 30.0007 16.5002C30.0007 15.9479 29.553 15.5002 29.0007 15.5002H26.5395L28.9984 9.44769C29.2062 8.93601 28.9599 8.35271 28.4483 8.14484C27.9366 7.93698 27.3533 8.18326 27.1454 8.69493L24.3808 15.5002H19.6912L16.9266 8.69493C16.7734 8.31791 16.4071 8.07131 16.0001 8.07131C15.5932 8.07131 15.2268 8.31791 15.0737 8.69493L12.309 15.5002H7.6195L4.85486 8.69493ZM8.432 17.5002L9.96427 21.2719L11.4965 17.5002H8.432ZM14.4678 15.5002H17.5325L16.0001 11.7282L14.4678 15.5002ZM20.5037 17.5002L22.036 21.2719L23.5683 17.5002H20.5037Z" fill="#111827"/>
</svg>
