<svg width="32" height="32" viewBox="0 0 32 32" fill="none" xmlns="http://www.w3.org/2000/svg">
<path fill-rule="evenodd" clip-rule="evenodd" d="M5.63068 2.36655C5.28095 1.9391 4.65093 1.8761 4.22348 2.22583C3.79604 2.57556 3.73303 3.20558 4.08276 3.63302L13.8895 15.619H8.57129C8.01901 15.619 7.57129 16.0667 7.57129 16.619C7.57129 17.1713 8.01901 17.619 8.57129 17.619H15V20.5719H8.57129C8.01901 20.5719 7.57129 21.0196 7.57129 21.5719C7.57129 22.1242 8.01901 22.5719 8.57129 22.5719H15V29.0004C15 29.5526 15.4477 30.0004 16 30.0004C16.5522 30.0004 17 29.5526 17 29.0004V22.5719H23.4289C23.9812 22.5719 24.4289 22.1242 24.4289 21.5719C24.4289 21.0196 23.9812 20.5719 23.4289 20.5719H17V17.619H23.4289C23.9812 17.619 24.4289 17.1713 24.4289 16.619C24.4289 16.0667 23.9812 15.619 23.4289 15.619H18.1104L27.9171 3.63302C28.2669 3.20558 28.2039 2.57556 27.7764 2.22583C27.349 1.8761 26.719 1.9391 26.3692 2.36655L16 15.0401L5.63068 2.36655Z" fill="#111827"/>
</svg>
