<svg width="32" height="32" viewBox="0 0 32 32" fill="none" xmlns="http://www.w3.org/2000/svg">
<path fill-rule="evenodd" clip-rule="evenodd" d="M21.2105 4.18493C19.3412 3.81309 17.4036 4.00393 15.6427 4.73331C13.8819 5.46268 12.3768 6.69783 11.3179 8.28257C10.4452 9.58867 9.90788 11.0839 9.7459 12.6363H19.3306C19.8829 12.6363 20.3306 13.084 20.3306 13.6363C20.3306 14.1886 19.8829 14.6363 19.3306 14.6363H9.69387V17.3637H16.9669C17.5192 17.3637 17.9669 17.8114 17.9669 18.3637C17.9669 18.916 17.5192 19.3637 16.9669 19.3637H9.74588C9.90783 20.9162 10.4452 22.4115 11.3179 23.7176C12.3768 25.3024 13.8819 26.5375 15.6427 27.2669C17.4036 27.9963 19.3412 28.1871 21.2105 27.8153C23.0798 27.4434 24.7969 26.5256 26.1446 25.1779C26.5352 24.7874 27.1683 24.7874 27.5588 25.1779C27.9494 25.5685 27.9494 26.2016 27.5588 26.5921C25.9314 28.2196 23.858 29.3278 21.6007 29.7768C19.3434 30.2258 17.0037 29.9954 14.8774 29.1146C12.751 28.2339 10.9336 26.7424 9.65499 24.8288C8.56229 23.1934 7.90497 21.3125 7.7369 19.3637H5.14844C4.59615 19.3637 4.14844 18.916 4.14844 18.3637C4.14844 17.8114 4.59615 17.3637 5.14844 17.3637H7.69387V14.6363H5.14844C4.59615 14.6363 4.14844 14.1886 4.14844 13.6363C4.14844 13.084 4.59615 12.6363 5.14844 12.6363H7.73692C7.90501 10.6875 8.56232 8.80673 9.65499 7.17143C10.9336 5.25779 12.751 3.7663 14.8774 2.88555C17.0037 2.0048 19.3434 1.77435 21.6007 2.22336C23.858 2.67236 25.9314 3.78064 27.5588 5.40805C27.9494 5.79857 27.9494 6.43174 27.5588 6.82226C27.1683 7.21279 26.5352 7.21279 26.1446 6.82226C24.7969 5.47456 23.0798 4.55676 21.2105 4.18493Z" fill="#111827"/>
</svg>
