<svg width="32" height="33" viewBox="0 0 32 33" fill="none" xmlns="http://www.w3.org/2000/svg">
<path fill-rule="evenodd" clip-rule="evenodd" d="M3.2998 3.49976C3.2998 2.94747 3.74752 2.49976 4.2998 2.49976H27.7003C28.2526 2.49976 28.7003 2.94747 28.7003 3.49976C28.7003 4.05204 28.2526 4.49976 27.7003 4.49976H4.2998C3.74752 4.49976 3.2998 4.05204 3.2998 3.49976ZM3.2998 9.99997C3.2998 9.44769 3.74752 8.99997 4.2998 8.99997H16.0004H27.7003C28.2526 8.99997 28.7003 9.44769 28.7003 9.99997C28.7003 10.5523 28.2526 11 27.7003 11H17.0004V29.5004C17.0004 30.0527 16.5527 30.5004 16.0004 30.5004C15.4481 30.5004 15.0004 30.0527 15.0004 29.5004V11H4.2998C3.74752 11 3.2998 10.5523 3.2998 9.99997Z" fill="#111827"/>
</svg>
