<svg width="32" height="32" viewBox="0 0 32 32" fill="none" xmlns="http://www.w3.org/2000/svg">
<path fill-rule="evenodd" clip-rule="evenodd" d="M10.0907 1.99976C9.53839 1.99976 9.09068 2.44747 9.09068 2.99976V17.3638H5.36328C4.811 17.3638 4.36328 17.8115 4.36328 18.3638C4.36328 18.9161 4.811 19.3638 5.36328 19.3638H9.09068V22.0913H5.36328C4.811 22.0913 4.36328 22.5391 4.36328 23.0913C4.36328 23.6436 4.811 24.0913 5.36328 24.0913H9.09068V29.0004C9.09068 29.5527 9.53839 30.0004 10.0907 30.0004C10.643 30.0004 11.0907 29.5527 11.0907 29.0004V24.0913H18.3636C18.9159 24.0913 19.3636 23.6436 19.3636 23.0913C19.3636 22.5391 18.9159 22.0913 18.3636 22.0913H11.0907V19.3638H18.9545C21.2572 19.3638 23.4655 18.4491 25.0937 16.8209C26.7219 15.1927 27.6366 12.9844 27.6366 10.6818C27.6366 8.37916 26.7219 6.17085 25.0937 4.54266C23.4655 2.91447 21.2572 1.99976 18.9545 1.99976H10.0907ZM18.9545 17.3638H11.0907V3.99976H18.9545C20.7267 3.99976 22.4263 4.70375 23.6794 5.95687C24.9326 7.21 25.6366 8.90959 25.6366 10.6818C25.6366 12.454 24.9326 14.1536 23.6794 15.4067C22.4263 16.6598 20.7267 17.3638 18.9545 17.3638Z" fill="#111827"/>
</svg>
