<svg width="32" height="32" viewBox="0 0 32 32" fill="none" xmlns="http://www.w3.org/2000/svg">
<path fill-rule="evenodd" clip-rule="evenodd" d="M14.3801 2.99976C14.3801 2.44747 13.9324 1.99976 13.3801 1.99976C12.8278 1.99976 12.3801 2.44747 12.3801 2.99976V5.11907L10.2594 5.1189C10.2532 5.1189 10.247 5.11895 10.2409 5.11907H8.17969C7.6274 5.11907 7.17969 5.56678 7.17969 6.11907C7.17969 6.67135 7.6274 7.11907 8.17969 7.11907H9.25928V24.8797H8.17969C7.6274 24.8797 7.17969 25.3275 7.17969 25.8797C7.17969 26.432 7.6274 26.8797 8.17969 26.8797H10.2604C10.2699 26.8797 10.2793 26.8796 10.2887 26.8793L12.3801 26.8795V29.0005C12.3801 29.5528 12.8278 30.0005 13.3801 30.0005C13.9324 30.0005 14.3801 29.5528 14.3801 29.0005V26.8796L16.5413 26.8798V29.0005C16.5413 29.5528 16.989 30.0005 17.5413 30.0005C18.0936 30.0005 18.5413 29.5528 18.5413 29.0005V26.8799L19.6202 26.88H19.6202C21.2646 26.88 22.8416 26.2268 24.0044 25.064C25.1671 23.9013 25.8204 22.3242 25.8204 20.6799C25.8204 19.0355 25.1671 17.4585 24.0044 16.2957C23.4128 15.7041 22.7139 15.2444 21.9535 14.9355C21.9951 14.8964 22.0362 14.8566 22.0767 14.8161C23.1419 13.7509 23.7403 12.3061 23.7403 10.7996C23.7403 9.29318 23.1419 7.84842 22.0767 6.7832C21.1254 5.83195 19.8715 5.25294 18.5413 5.13992V2.99976C18.5413 2.44747 18.0936 1.99976 17.5413 1.99976C16.989 1.99976 16.5413 2.44747 16.5413 2.99976V5.11941L14.3801 5.11923V2.99976ZM13.3429 7.11915C13.3552 7.1196 13.3676 7.11983 13.3801 7.11983C13.3925 7.11983 13.4048 7.1196 13.4171 7.11915L17.5149 7.11949C17.5237 7.11971 17.5325 7.11983 17.5413 7.11983C17.55 7.11983 17.5587 7.11971 17.5674 7.11949L18.0601 7.11953H18.0602C19.0362 7.11953 19.9723 7.50725 20.6624 8.19741C21.3526 8.88756 21.7403 9.82361 21.7403 10.7996C21.7403 11.7757 21.3526 12.7117 20.6624 13.4019C19.9723 14.092 19.0362 14.4797 18.0602 14.4797H11.2593V7.11898L13.3429 7.11915ZM11.2593 24.8794V16.4797H18.0602H19.6202C20.7342 16.4797 21.8025 16.9223 22.5902 17.7099C23.3779 18.4976 23.8204 19.5659 23.8204 20.6799C23.8204 21.7938 23.3779 22.8621 22.5902 23.6498C21.8025 24.4375 20.7342 24.88 19.6203 24.88H19.6202L11.2593 24.8794Z" fill="#111827"/>
</svg>
