<svg width="32" height="32" viewBox="0 0 32 32" fill="none" xmlns="http://www.w3.org/2000/svg">
<path fill-rule="evenodd" clip-rule="evenodd" d="M7.22482 3.33374C6.9603 3.00065 6.51402 2.87133 6.1124 3.0114C5.71077 3.15147 5.44171 3.53028 5.44171 3.95562V12.6813H3C2.44772 12.6813 2 13.129 2 13.6813C2 14.2336 2.44772 14.6813 3 14.6813H5.44171V17.409H3C2.44772 17.409 2 17.8567 2 18.409C2 18.9613 2.44772 19.409 3 19.409H5.44171V28.0447C5.44171 28.597 5.88942 29.0447 6.44171 29.0447C6.99399 29.0447 7.44171 28.597 7.44171 28.0447V19.409H17.4366L24.7882 28.6666C25.0528 28.9997 25.499 29.129 25.9007 28.989C26.3023 28.8489 26.5714 28.4701 26.5714 28.0447V19.409H29.0007C29.553 19.409 30.0007 18.9613 30.0007 18.409C30.0007 17.8567 29.553 17.409 29.0007 17.409H26.5714V14.6813H29.0007C29.553 14.6813 30.0007 14.2336 30.0007 13.6813C30.0007 13.129 29.553 12.6813 29.0007 12.6813H26.5714V3.95562C26.5714 3.40334 26.1236 2.95562 25.5714 2.95562C25.0191 2.95562 24.5714 3.40334 24.5714 3.95562V12.6813H14.6479L7.22482 3.33374ZM12.094 12.6813L7.44171 6.8229V12.6813H12.094ZM7.44171 14.6813H13.6822L15.8483 17.409H7.44171V14.6813ZM18.4022 17.409L16.2362 14.6813H24.5714V17.409H18.4022ZM19.9905 19.409L24.5714 25.1775V19.409H19.9905Z" fill="#111827"/>
</svg>
