<svg width="32" height="33" viewBox="0 0 32 33" fill="none" xmlns="http://www.w3.org/2000/svg">
<path fill-rule="evenodd" clip-rule="evenodd" d="M6.54592 5.45508C5.99364 5.45508 5.54592 5.90279 5.54592 6.45508C5.54592 7.00736 5.99364 7.45508 6.54592 7.45508H25.4539C26.0062 7.45508 26.4539 7.00736 26.4539 6.45508C26.4539 5.90279 26.0062 5.45508 25.4539 5.45508H6.54592ZM4.1823 13.7275C3.63002 13.7275 3.1823 14.1752 3.1823 14.7275C3.1823 15.2798 3.63002 15.7275 4.1823 15.7275H11.4547V17.091C11.4547 19.3332 10.5641 21.4835 8.97862 23.0689C7.39319 24.6543 5.24287 25.545 3.00073 25.545C2.44845 25.545 2.00073 25.9927 2.00073 26.545C2.00073 27.0973 2.44845 27.545 3.00073 27.545C5.77331 27.545 8.43233 26.4436 10.3928 24.4831C12.3533 22.5226 13.4547 19.8636 13.4547 17.091V15.7275H18.5451V22.9998C18.5451 24.2052 19.024 25.3614 19.8764 26.2138C20.7288 27.0662 21.8849 27.545 23.0904 27.545H28.9991C29.5514 27.545 29.9991 27.0973 29.9991 26.545V22.9998C29.9991 22.4475 29.5514 21.9998 28.9991 21.9998C28.4468 21.9998 27.9991 22.4475 27.9991 22.9998V25.545H23.0904C22.4153 25.545 21.7679 25.2769 21.2906 24.7995C20.8133 24.3222 20.5451 23.6748 20.5451 22.9998V15.7275H27.8173C28.3696 15.7275 28.8173 15.2798 28.8173 14.7275C28.8173 14.1752 28.3696 13.7275 27.8173 13.7275H19.5451H12.4547H4.1823Z" fill="#111827"/>
</svg>
