<svg width="32" height="32" viewBox="0 0 32 32" fill="none" xmlns="http://www.w3.org/2000/svg">
<path fill-rule="evenodd" clip-rule="evenodd" d="M16.253 4.442C17.3146 4.00227 18.4827 3.88722 19.6097 4.11139C20.7366 4.33556 21.7718 4.88888 22.5843 5.70138C22.9748 6.0919 23.608 6.0919 23.9985 5.70138C24.3891 5.31086 24.3891 4.67769 23.9985 4.28717C22.9063 3.19496 21.5148 2.45116 19.9998 2.14982C18.4849 1.84848 16.9146 2.00314 15.4876 2.59424C14.0606 3.18534 12.8409 4.18633 11.9827 5.47062C11.1246 6.75492 10.6665 8.26485 10.6665 9.80946V16.2381H6.09497C5.54269 16.2381 5.09497 16.6858 5.09497 17.2381C5.09497 17.7904 5.54269 18.2381 6.09497 18.2381H10.6665V23.4289C10.6665 24.6413 10.1849 25.8041 9.32756 26.6615C8.47022 27.5188 7.30743 28.0004 6.09497 28.0004C5.54269 28.0004 5.09497 28.4482 5.09497 29.0004C5.09497 29.5527 5.54269 30.0004 6.09497 30.0004H25.905C26.4573 30.0004 26.905 29.5527 26.905 29.0004C26.905 28.4482 26.4573 28.0004 25.905 28.0004H10.8158C12.0019 26.7757 12.6665 25.1365 12.6665 23.4289V18.2381H18.4762C19.0285 18.2381 19.4762 17.7904 19.4762 17.2381C19.4762 16.6858 19.0285 16.2381 18.4762 16.2381H12.6665V9.80946C12.6665 8.66041 13.0073 7.53716 13.6457 6.58176C14.284 5.62636 15.1914 4.88172 16.253 4.442Z" fill="#111827"/>
</svg>
