<svg width="32" height="32" viewBox="0 0 32 32" fill="none" xmlns="http://www.w3.org/2000/svg">
<path fill-rule="evenodd" clip-rule="evenodd" d="M16.0002 1.99976C16.5525 1.99976 17.0002 2.44747 17.0002 2.99976V4.99972H18.0003C18.7882 4.99972 19.5684 5.15492 20.2964 5.45645C21.0244 5.75799 21.6858 6.19995 22.243 6.75712C22.8001 7.31428 23.2421 7.97573 23.5437 8.7037C23.8452 9.43167 24.0004 10.2119 24.0004 10.9998C24.0004 11.5521 23.5527 11.9998 23.0004 11.9998C22.4481 11.9998 22.0004 11.5521 22.0004 10.9998C22.0004 10.4745 21.8969 9.95438 21.6959 9.46907C21.4949 8.98375 21.2002 8.54278 20.8288 8.17133C20.4573 7.79988 20.0164 7.50524 19.531 7.30421C19.0457 7.10319 18.5256 6.99972 18.0003 6.99972H16.0153C16.0103 6.99979 16.0053 6.99983 16.0002 6.99983C15.9952 6.99983 15.9902 6.99979 15.9852 6.99972H13.5001C12.4392 6.99972 11.4218 7.42116 10.6716 8.17133C9.92145 8.9215 9.50001 9.93895 9.50001 10.9998C9.50001 12.0607 9.92145 13.0782 10.6716 13.8284C11.4218 14.5785 12.4392 15 13.5001 15H19.0003C20.5916 15 22.1178 15.6321 23.243 16.7574C24.3683 17.8826 25.0004 19.4088 25.0004 21.0001C25.0004 22.5914 24.3683 24.1176 23.243 25.2428C22.1178 26.3681 20.5916 27.0002 19.0003 27.0002H17.0002V29.0004C17.0002 29.5527 16.5525 30.0004 16.0002 30.0004C15.4479 30.0004 15.0002 29.5527 15.0002 29.0004V27.0002H13.0001C11.4088 27.0002 9.88264 26.3681 8.7574 25.2428C7.63215 24.1176 7 22.5914 7 21.0001C7 20.4478 7.44772 20.0001 8 20.0001C8.55228 20.0001 9 20.4478 9 21.0001C9 22.061 9.42144 23.0784 10.1716 23.8286C10.9218 24.5788 11.9392 25.0002 13.0001 25.0002H19.0003C20.0612 25.0002 21.0786 24.5788 21.8288 23.8286C22.579 23.0784 23.0004 22.061 23.0004 21.0001C23.0004 19.9392 22.579 18.9218 21.8288 18.1716C21.0786 17.4214 20.0612 17 19.0003 17H13.5001C11.9088 17 10.3827 16.3678 9.25741 15.2426C8.13217 14.1173 7.50001 12.5912 7.50001 10.9998C7.50001 9.40851 8.13217 7.88236 9.25741 6.75712C10.3827 5.63187 11.9088 4.99972 13.5001 4.99972H15.0002V2.99976C15.0002 2.44747 15.4479 1.99976 16.0002 1.99976Z" fill="#111827"/>
</svg>
