<svg width="32" height="32" viewBox="0 0 32 32" fill="none" xmlns="http://www.w3.org/2000/svg">
<path fill-rule="evenodd" clip-rule="evenodd" d="M3.2998 2.99976C3.2998 2.44747 3.74752 1.99976 4.2998 1.99976H27.7003C28.2526 1.99976 28.7003 2.44747 28.7003 2.99976C28.7003 3.55204 28.2526 3.99976 27.7003 3.99976H4.2998C3.74752 3.99976 3.2998 3.55204 3.2998 2.99976ZM3.2998 9.49997C3.2998 8.94769 3.74752 8.49997 4.2998 8.49997H16.0004H27.7003C28.2526 8.49997 28.7003 8.94769 28.7003 9.49997C28.7003 10.0523 28.2526 10.5 27.7003 10.5H17.0004V29.0004C17.0004 29.5527 16.5527 30.0004 16.0004 30.0004C15.4481 30.0004 15.0004 29.5527 15.0004 29.0004V10.5H4.2998C3.74752 10.5 3.2998 10.0523 3.2998 9.49997Z" fill="#111827"/>
</svg>
