<svg width="32" height="33" viewBox="0 0 32 33" fill="none" xmlns="http://www.w3.org/2000/svg">
<path fill-rule="evenodd" clip-rule="evenodd" d="M14.3801 3.49976C14.3801 2.94747 13.9324 2.49976 13.3801 2.49976C12.8278 2.49976 12.3801 2.94747 12.3801 3.49976V5.61907L10.2594 5.6189C10.2532 5.6189 10.247 5.61895 10.2409 5.61907H8.17969C7.6274 5.61907 7.17969 6.06678 7.17969 6.61907C7.17969 7.17135 7.6274 7.61907 8.17969 7.61907H9.25928V25.3797H8.17969C7.6274 25.3797 7.17969 25.8275 7.17969 26.3797C7.17969 26.932 7.6274 27.3797 8.17969 27.3797H10.2604C10.2699 27.3797 10.2793 27.3796 10.2887 27.3793L12.3801 27.3795V29.5005C12.3801 30.0528 12.8278 30.5005 13.3801 30.5005C13.9324 30.5005 14.3801 30.0528 14.3801 29.5005V27.3796L16.5413 27.3798V29.5005C16.5413 30.0528 16.989 30.5005 17.5413 30.5005C18.0936 30.5005 18.5413 30.0528 18.5413 29.5005V27.3799L19.6202 27.38H19.6202C21.2646 27.38 22.8416 26.7268 24.0044 25.564C25.1671 24.4013 25.8204 22.8242 25.8204 21.1799C25.8204 19.5355 25.1671 17.9585 24.0044 16.7957C23.4128 16.2041 22.7139 15.7444 21.9535 15.4355C21.9951 15.3964 22.0362 15.3566 22.0767 15.3161C23.1419 14.2509 23.7403 12.8061 23.7403 11.2996C23.7403 9.79318 23.1419 8.34842 22.0767 7.2832C21.1254 6.33195 19.8715 5.75294 18.5413 5.63992V3.49976C18.5413 2.94747 18.0936 2.49976 17.5413 2.49976C16.989 2.49976 16.5413 2.94747 16.5413 3.49976V5.61941L14.3801 5.61923V3.49976ZM13.3429 7.61915C13.3552 7.6196 13.3676 7.61983 13.3801 7.61983C13.3925 7.61983 13.4048 7.6196 13.4171 7.61915L17.5149 7.61949C17.5237 7.61971 17.5325 7.61983 17.5413 7.61983C17.55 7.61983 17.5587 7.61971 17.5674 7.61949L18.0601 7.61953H18.0602C19.0362 7.61953 19.9723 8.00725 20.6624 8.69741C21.3526 9.38756 21.7403 10.3236 21.7403 11.2996C21.7403 12.2757 21.3526 13.2117 20.6624 13.9019C19.9723 14.592 19.0362 14.9797 18.0602 14.9797H11.2593V7.61898L13.3429 7.61915ZM11.2593 25.3794V16.9797H18.0602H19.6202C20.7342 16.9797 21.8025 17.4223 22.5902 18.2099C23.3779 18.9976 23.8204 20.0659 23.8204 21.1799C23.8204 22.2938 23.3779 23.3621 22.5902 24.1498C21.8025 24.9375 20.7342 25.38 19.6203 25.38H19.6202L11.2593 25.3794Z" fill="#111827"/>
</svg>
