<svg width="32" height="33" viewBox="0 0 32 33" fill="none" xmlns="http://www.w3.org/2000/svg">
<path fill-rule="evenodd" clip-rule="evenodd" d="M17.0005 3.50073C17.0005 2.94845 16.5528 2.50073 16.0005 2.50073C15.4482 2.50073 15.0005 2.94845 15.0005 3.50073V5.50038H13.5001C11.9089 5.50038 10.3829 6.13249 9.25772 7.25764C8.13256 8.3828 7.50046 9.90884 7.50046 11.5001C7.50046 13.0913 8.13256 14.6173 9.25772 15.7425C10.3829 16.8676 11.9089 17.4997 13.5001 17.4997H15.0005V25.4991H13.0002C11.9394 25.4991 10.922 25.0777 10.172 24.3276C9.42188 23.5775 9.00049 22.5602 9.00049 21.4994C9.00049 20.9471 8.55277 20.4994 8.00049 20.4994C7.4482 20.4994 7.00049 20.9471 7.00049 21.4994C7.00049 23.0906 7.63259 24.6166 8.75775 25.7418C9.88291 26.867 11.4089 27.4991 13.0002 27.4991H15.0005V29.499C15.0005 30.0513 15.4482 30.499 16.0005 30.499C16.5528 30.499 17.0005 30.0513 17.0005 29.499V27.4991H18.9998C20.591 27.4991 22.117 26.867 23.2422 25.7418C24.3673 24.6166 24.9994 23.0906 24.9994 21.4994C24.9994 19.9082 24.3673 18.3821 23.2422 17.257C22.117 16.1318 20.591 15.4997 18.9998 15.4997H17.0005V7.50038H17.9998C18.5251 7.50038 19.0452 7.60384 19.5304 7.80484C20.0157 8.00584 20.4566 8.30045 20.828 8.67186C21.1994 9.04326 21.494 9.48418 21.695 9.96944C21.896 10.4547 21.9995 10.9748 21.9995 11.5001C21.9995 12.0523 22.4472 12.5001 22.9995 12.5001C23.5518 12.5001 23.9995 12.0523 23.9995 11.5001C23.9995 10.7122 23.8443 9.93199 23.5428 9.20408C23.2413 8.47616 22.7994 7.81476 22.2422 7.25764C21.6851 6.70052 21.0237 6.25859 20.2958 5.95708C19.5679 5.65557 18.7877 5.50038 17.9998 5.50038H17.0005V3.50073ZM15.0005 7.50038H13.5001C12.4393 7.50038 11.422 7.92177 10.6719 8.67186C9.92185 9.42194 9.50045 10.4393 9.50045 11.5001C9.50045 12.5608 9.92185 13.5782 10.6719 14.3282C11.422 15.0783 12.4393 15.4997 13.5001 15.4997H15.0005V7.50038ZM17.0005 17.4997V25.4991H18.9998C20.0605 25.4991 21.0779 25.0777 21.828 24.3276C22.578 23.5775 22.9994 22.5602 22.9994 21.4994C22.9994 20.4386 22.578 19.4213 21.828 18.6712C21.0779 17.9211 20.0605 17.4997 18.9998 17.4997H17.0005Z" fill="#111827"/>
</svg>
