<svg width="33" height="33" viewBox="0 0 33 33" fill="none" xmlns="http://www.w3.org/2000/svg">
<path d="M16.96 6.28296V8.59065" stroke="#1C1B1F" stroke-width="2" stroke-linecap="round" stroke-linejoin="round"/>
<path d="M16.96 23.9751V26.2828" stroke="#1C1B1F" stroke-width="2" stroke-linecap="round" stroke-linejoin="round"/>
<path d="M22.3446 12.437C22.3446 11.9319 22.2451 11.4318 22.0518 10.9651C21.8586 10.4985 21.5753 10.0745 21.2181 9.71733C20.861 9.36018 20.437 9.07688 19.9703 8.88359C19.5037 8.6903 19.0035 8.59082 18.4985 8.59082H15.0369C14.0169 8.59082 13.0386 8.99604 12.3173 9.71733C11.596 10.4386 11.1908 11.4169 11.1908 12.437C11.1908 13.457 11.596 14.4353 12.3173 15.1566C13.0386 15.8779 14.0169 16.2831 15.0369 16.2831H19.2677C20.2878 16.2831 21.266 16.6883 21.9873 17.4096C22.7086 18.1309 23.1138 19.1092 23.1138 20.1293C23.1138 21.1493 22.7086 22.1276 21.9873 22.8489C21.266 23.5702 20.2878 23.9754 19.2677 23.9754H14.6523C13.6322 23.9754 12.654 23.5702 11.9327 22.8489C11.2114 22.1276 10.8062 21.1493 10.8062 20.1293" stroke="#1C1B1F" stroke-width="2" stroke-linecap="round" stroke-linejoin="round"/>
</svg>
