<svg width="32" height="33" viewBox="0 0 32 33" fill="none" xmlns="http://www.w3.org/2000/svg">
<path fill-rule="evenodd" clip-rule="evenodd" d="M7.22482 3.83374C6.9603 3.50065 6.51402 3.37133 6.1124 3.5114C5.71077 3.65147 5.44171 4.03028 5.44171 4.45562V13.1813H3C2.44772 13.1813 2 13.629 2 14.1813C2 14.7336 2.44772 15.1813 3 15.1813H5.44171V17.909H3C2.44772 17.909 2 18.3567 2 18.909C2 19.4613 2.44772 19.909 3 19.909H5.44171V28.5447C5.44171 29.097 5.88942 29.5447 6.44171 29.5447C6.99399 29.5447 7.44171 29.097 7.44171 28.5447V19.909H17.4366L24.7882 29.1666C25.0528 29.4997 25.499 29.629 25.9007 29.489C26.3023 29.3489 26.5714 28.9701 26.5714 28.5447V19.909H29.0007C29.553 19.909 30.0007 19.4613 30.0007 18.909C30.0007 18.3567 29.553 17.909 29.0007 17.909H26.5714V15.1813H29.0007C29.553 15.1813 30.0007 14.7336 30.0007 14.1813C30.0007 13.629 29.553 13.1813 29.0007 13.1813H26.5714V4.45562C26.5714 3.90334 26.1236 3.45562 25.5714 3.45562C25.0191 3.45562 24.5714 3.90334 24.5714 4.45562V13.1813H14.6479L7.22482 3.83374ZM12.094 13.1813L7.44171 7.3229V13.1813H12.094ZM7.44171 15.1813H13.6822L15.8483 17.909H7.44171V15.1813ZM18.4022 17.909L16.2362 15.1813H24.5714V17.909H18.4022ZM19.9905 19.909L24.5714 25.6775V19.909H19.9905Z" fill="#111827"/>
</svg>
