<svg width="33" height="33" viewBox="0 0 33 33" fill="none" xmlns="http://www.w3.org/2000/svg">
<path d="M16.9602 6.28296V26.283" stroke="#1C1B1F" stroke-width="2" stroke-linecap="round" stroke-linejoin="round"/>
<path d="M22.3449 12.437C22.3449 11.9319 22.2454 11.4318 22.0521 10.9651C21.8588 10.4985 21.5755 10.0745 21.2183 9.71733C20.8612 9.36018 20.4372 9.07688 19.9706 8.88359C19.5039 8.6903 19.0038 8.59082 18.4987 8.59082H15.0372C14.0171 8.59082 13.0388 8.99604 12.3175 9.71733C11.5962 10.4386 11.191 11.4169 11.191 12.437C11.191 13.457 11.5962 14.4353 12.3175 15.1566C13.0388 15.8779 14.0171 16.2831 15.0372 16.2831H19.2679C20.288 16.2831 21.2663 16.6883 21.9876 17.4096C22.7089 18.1309 23.1141 19.1092 23.1141 20.1293C23.1141 21.1493 22.7089 22.1276 21.9876 22.8489C21.2663 23.5702 20.288 23.9754 19.2679 23.9754H14.6526C13.6325 23.9754 12.6542 23.5702 11.9329 22.8489C11.2116 22.1276 10.8064 21.1493 10.8064 20.1293" stroke="#1C1B1F" stroke-width="2" stroke-linecap="round" stroke-linejoin="round"/>
</svg>
