<svg width="32" height="33" viewBox="0 0 32 33" fill="none" xmlns="http://www.w3.org/2000/svg">
<path fill-rule="evenodd" clip-rule="evenodd" d="M16.253 4.942C17.3146 4.50227 18.4827 4.38722 19.6097 4.61139C20.7366 4.83556 21.7718 5.38888 22.5843 6.20138C22.9748 6.5919 23.608 6.5919 23.9985 6.20138C24.3891 5.81086 24.3891 5.17769 23.9985 4.78717C22.9063 3.69496 21.5148 2.95116 19.9998 2.64982C18.4849 2.34848 16.9146 2.50314 15.4876 3.09424C14.0606 3.68534 12.8409 4.68633 11.9827 5.97062C11.1246 7.25492 10.6665 8.76485 10.6665 10.3095V16.7381H6.09497C5.54269 16.7381 5.09497 17.1858 5.09497 17.7381C5.09497 18.2904 5.54269 18.7381 6.09497 18.7381H10.6665V23.9289C10.6665 25.1413 10.1849 26.3041 9.32756 27.1615C8.47022 28.0188 7.30743 28.5004 6.09497 28.5004C5.54269 28.5004 5.09497 28.9482 5.09497 29.5004C5.09497 30.0527 5.54269 30.5004 6.09497 30.5004H25.905C26.4573 30.5004 26.905 30.0527 26.905 29.5004C26.905 28.9482 26.4573 28.5004 25.905 28.5004H10.8158C12.0019 27.2757 12.6665 25.6365 12.6665 23.9289V18.7381H18.4762C19.0285 18.7381 19.4762 18.2904 19.4762 17.7381C19.4762 17.1858 19.0285 16.7381 18.4762 16.7381H12.6665V10.3095C12.6665 9.16041 13.0073 8.03716 13.6457 7.08176C14.284 6.12636 15.1914 5.38172 16.253 4.942Z" fill="#111827"/>
</svg>
