<svg width="33" height="33" viewBox="0 0 33 33" fill="none" xmlns="http://www.w3.org/2000/svg">
<path d="M12.1603 15.8829H19.3603C20.4211 15.8829 21.4385 16.3043 22.1887 17.0544C22.9388 17.8046 23.3603 18.822 23.3603 19.8829C23.3603 20.9437 22.9388 21.9611 22.1887 22.7113C21.4385 23.4614 20.4211 23.8829 19.3603 23.8829L12.1597 23.8824V8.68237L18.1603 8.68286C19.115 8.68286 20.0307 9.06215 20.7058 9.73728C21.381 10.4124 21.7603 11.3281 21.7603 12.2829C21.7603 13.2376 21.381 14.1533 20.7058 14.8284C20.0307 15.5036 19.115 15.8829 18.1603 15.8829" stroke="#1C1B1F" stroke-width="2" stroke-linecap="round" stroke-linejoin="round"/>
<path d="M10.5596 8.68237H12.1596" stroke="#1C1B1F" stroke-width="2" stroke-linecap="round" stroke-linejoin="round"/>
<path d="M10.5596 23.8823H12.1596" stroke="#1C1B1F" stroke-width="2" stroke-linecap="round" stroke-linejoin="round"/>
<path d="M14.5601 8.68296V6.28296" stroke="#1C1B1F" stroke-width="2" stroke-linecap="round" stroke-linejoin="round"/>
<path d="M17.7603 8.68296V6.28296" stroke="#1C1B1F" stroke-width="2" stroke-linecap="round" stroke-linejoin="round"/>
<path d="M14.5601 26.2831V23.8831" stroke="#1C1B1F" stroke-width="2" stroke-linecap="round" stroke-linejoin="round"/>
<path d="M17.7603 26.2831V23.8831" stroke="#1C1B1F" stroke-width="2" stroke-linecap="round" stroke-linejoin="round"/>
</svg>
