<svg width="32" height="33" viewBox="0 0 32 33" fill="none" xmlns="http://www.w3.org/2000/svg">
<path fill-rule="evenodd" clip-rule="evenodd" d="M21.2105 4.68493C19.3412 4.31309 17.4036 4.50393 15.6427 5.23331C13.8819 5.96268 12.3768 7.19783 11.3179 8.78257C10.4452 10.0887 9.90788 11.5839 9.7459 13.1363H19.3306C19.8829 13.1363 20.3306 13.584 20.3306 14.1363C20.3306 14.6886 19.8829 15.1363 19.3306 15.1363H9.69387V17.8637H16.9669C17.5192 17.8637 17.9669 18.3114 17.9669 18.8637C17.9669 19.416 17.5192 19.8637 16.9669 19.8637H9.74588C9.90783 21.4162 10.4452 22.9115 11.3179 24.2176C12.3768 25.8024 13.8819 27.0375 15.6427 27.7669C17.4036 28.4963 19.3412 28.6871 21.2105 28.3153C23.0798 27.9434 24.7969 27.0256 26.1446 25.6779C26.5352 25.2874 27.1683 25.2874 27.5588 25.6779C27.9494 26.0685 27.9494 26.7016 27.5588 27.0921C25.9314 28.7196 23.858 29.8278 21.6007 30.2768C19.3434 30.7258 17.0037 30.4954 14.8774 29.6146C12.751 28.7339 10.9336 27.2424 9.65499 25.3288C8.56229 23.6934 7.90497 21.8125 7.7369 19.8637H5.14844C4.59615 19.8637 4.14844 19.416 4.14844 18.8637C4.14844 18.3114 4.59615 17.8637 5.14844 17.8637H7.69387V15.1363H5.14844C4.59615 15.1363 4.14844 14.6886 4.14844 14.1363C4.14844 13.584 4.59615 13.1363 5.14844 13.1363H7.73692C7.90501 11.1875 8.56232 9.30673 9.65499 7.67143C10.9336 5.75779 12.751 4.2663 14.8774 3.38555C17.0037 2.5048 19.3434 2.27435 21.6007 2.72336C23.858 3.17236 25.9314 4.28064 27.5588 5.90805C27.9494 6.29857 27.9494 6.93174 27.5588 7.32226C27.1683 7.71279 26.5352 7.71279 26.1446 7.32226C24.7969 5.97456 23.0798 5.05676 21.2105 4.68493Z" fill="#111827"/>
</svg>
