<svg width="32" height="32" viewBox="0 0 32 32" fill="none" xmlns="http://www.w3.org/2000/svg">
<path fill-rule="evenodd" clip-rule="evenodd" d="M32 16C32 24.8366 24.8366 32 16 32C7.16344 32 0 24.8366 0 16C0 7.16344 7.16344 0 16 0C24.8366 0 32 7.16344 32 16ZM16.9998 6.66675C16.9998 6.11446 16.5521 5.66675 15.9998 5.66675C15.4476 5.66675 14.9998 6.11446 14.9998 6.66675V8.33342H13.9998C12.8506 8.33342 11.7484 8.78996 10.9357 9.60262C10.1231 10.4153 9.6665 11.5175 9.6665 12.6667C9.6665 13.816 10.1231 14.9182 10.9357 15.7309C11.7484 16.5435 12.8506 17.0001 13.9998 17.0001H17.9998C18.6187 17.0001 19.2122 17.2459 19.6498 17.6835C20.0873 18.1211 20.3332 18.7146 20.3332 19.3334C20.3332 19.9523 20.0873 20.5457 19.6498 20.9833C19.2122 21.4209 18.6187 21.6667 17.9998 21.6667H15.9998H11.9998C11.4476 21.6667 10.9998 22.1145 10.9998 22.6667C10.9998 23.219 11.4476 23.6667 11.9998 23.6667H14.9998V25.3334C14.9998 25.8857 15.4476 26.3334 15.9998 26.3334C16.5521 26.3334 16.9998 25.8857 16.9998 25.3334V23.6667H17.9998C19.1491 23.6667 20.2513 23.2102 21.064 22.3975C21.8766 21.5849 22.3332 20.4827 22.3332 19.3334C22.3332 18.1841 21.8766 17.0819 21.064 16.2693C20.2513 15.4566 19.1491 15.0001 17.9998 15.0001H13.9998C13.381 15.0001 12.7875 14.7542 12.3499 14.3167C11.9123 13.8791 11.6665 13.2856 11.6665 12.6667C11.6665 12.0479 11.9123 11.4544 12.3499 11.0168C12.7875 10.5792 13.381 10.3334 13.9998 10.3334H15.9998H19.9998C20.5521 10.3334 20.9998 9.8857 20.9998 9.33342C20.9998 8.78113 20.5521 8.33342 19.9998 8.33342H16.9998V6.66675Z" fill="#111827"/>
</svg>
