<svg width="33" height="33" viewBox="0 0 33 33" fill="none" xmlns="http://www.w3.org/2000/svg">
<path fill-rule="evenodd" clip-rule="evenodd" d="M28.96 16.283C28.96 22.9104 23.5874 28.283 16.96 28.283C10.3325 28.283 4.95996 22.9104 4.95996 16.283C4.95996 9.65554 10.3325 4.28296 16.96 4.28296C23.5874 4.28296 28.96 9.65554 28.96 16.283ZM17.96 9.28296C17.96 8.73067 17.5122 8.28296 16.96 8.28296C16.4077 8.28296 15.96 8.73067 15.96 9.28296V10.283H15.46C14.5317 10.283 13.6415 10.6517 12.9851 11.3081C12.3287 11.9645 11.96 12.8547 11.96 13.783C11.96 14.7112 12.3287 15.6015 12.9851 16.2578C13.6415 16.9142 14.5317 17.283 15.46 17.283H18.46C18.8578 17.283 19.2393 17.441 19.5206 17.7223C19.8019 18.0036 19.96 18.3851 19.96 18.783C19.96 19.1808 19.8019 19.5623 19.5206 19.8436C19.2393 20.1249 18.8578 20.283 18.46 20.283H16.96H13.96C13.4077 20.283 12.96 20.7307 12.96 21.283C12.96 21.8352 13.4077 22.283 13.96 22.283H15.96V23.283C15.96 23.8352 16.4077 24.283 16.96 24.283C17.5122 24.283 17.96 23.8352 17.96 23.283V22.283H18.46C19.3882 22.283 20.2785 21.9142 20.9348 21.2578C21.5912 20.6015 21.96 19.7112 21.96 18.783C21.96 17.8547 21.5912 16.9645 20.9348 16.3081C20.2785 15.6517 19.3882 15.283 18.46 15.283H15.46C15.0621 15.283 14.6806 15.1249 14.3993 14.8436C14.118 14.5623 13.96 14.1808 13.96 13.783C13.96 13.3851 14.118 13.0036 14.3993 12.7223C14.6806 12.441 15.0621 12.283 15.46 12.283H16.96H19.96C20.5122 12.283 20.96 11.8352 20.96 11.283C20.96 10.7307 20.5122 10.283 19.96 10.283H17.96V9.28296Z" fill="#1C1B1F"/>
</svg>
