<svg width="32" height="33" viewBox="0 0 32 33" fill="none" xmlns="http://www.w3.org/2000/svg">
<path fill-rule="evenodd" clip-rule="evenodd" d="M32 16.5C32 25.3366 24.8366 32.5 16 32.5C7.16344 32.5 0 25.3366 0 16.5C0 7.66344 7.16344 0.5 16 0.5C24.8366 0.5 32 7.66344 32 16.5ZM16.9998 7.16675C16.9998 6.61446 16.5521 6.16675 15.9998 6.16675C15.4476 6.16675 14.9998 6.61446 14.9998 7.16675V8.83342H13.9998C12.8506 8.83342 11.7484 9.28996 10.9357 10.1026C10.1231 10.9153 9.6665 12.0175 9.6665 13.1667C9.6665 14.316 10.1231 15.4182 10.9357 16.2309C11.7484 17.0435 12.8506 17.5001 13.9998 17.5001H17.9998C18.6187 17.5001 19.2122 17.7459 19.6498 18.1835C20.0873 18.6211 20.3332 19.2146 20.3332 19.8334C20.3332 20.4523 20.0873 21.0457 19.6498 21.4833C19.2122 21.9209 18.6187 22.1667 17.9998 22.1667H15.9998H11.9998C11.4476 22.1667 10.9998 22.6145 10.9998 23.1667C10.9998 23.719 11.4476 24.1667 11.9998 24.1667H14.9998V25.8334C14.9998 26.3857 15.4476 26.8334 15.9998 26.8334C16.5521 26.8334 16.9998 26.3857 16.9998 25.8334V24.1667H17.9998C19.1491 24.1667 20.2513 23.7102 21.064 22.8975C21.8766 22.0849 22.3332 20.9827 22.3332 19.8334C22.3332 18.6841 21.8766 17.5819 21.064 16.7693C20.2513 15.9566 19.1491 15.5001 17.9998 15.5001H13.9998C13.381 15.5001 12.7875 15.2542 12.3499 14.8167C11.9123 14.3791 11.6665 13.7856 11.6665 13.1667C11.6665 12.5479 11.9123 11.9544 12.3499 11.5168C12.7875 11.0792 13.381 10.8334 13.9998 10.8334H15.9998H19.9998C20.5521 10.8334 20.9998 10.3857 20.9998 9.83342C20.9998 9.28113 20.5521 8.83342 19.9998 8.83342H16.9998V7.16675Z" fill="#111827"/>
</svg>
