<svg width="32" height="33" viewBox="0 0 32 33" fill="none" xmlns="http://www.w3.org/2000/svg">
<path fill-rule="evenodd" clip-rule="evenodd" d="M16.7801 0.874065C16.5903 0.637439 16.3033 0.499756 16 0.499756C15.6967 0.499756 15.4097 0.637446 15.2199 0.874073L3.55317 15.4197C3.26681 15.7768 3.25938 16.2826 3.53513 16.6479L15.2019 32.1027C15.3909 32.3531 15.6863 32.5002 16 32.5002C16.3137 32.5002 16.6091 32.3531 16.7981 32.1027L28.4651 16.6479C28.7409 16.2826 28.7335 15.7768 28.4471 15.4197L16.7801 0.874065ZM15.0674 28.605L7.50391 18.5858L15.0674 22.069V28.605ZM17.0674 28.4266V22.057L24.4214 18.6851L17.0674 28.4266ZM17.0674 4.42874L26.1148 15.7084L17.0674 19.8568V4.42874Z" fill="#111827"/>
</svg>
