<svg width="32" height="33" viewBox="0 0 32 33" fill="none" xmlns="http://www.w3.org/2000/svg">
<path fill-rule="evenodd" clip-rule="evenodd" d="M12.0434 4.49976H6.95634C6.40405 4.49976 5.95634 4.05204 5.95634 3.49976C5.95634 2.94747 6.40405 2.49976 6.95634 2.49976H12.0434H25.0438C25.596 2.49976 26.0438 2.94747 26.0438 3.49976C26.0438 4.05204 25.596 4.49976 25.0438 4.49976H17.4649C17.6306 4.64125 17.7912 4.78967 17.9464 4.94483C18.8574 5.85582 19.5361 6.95569 19.9443 8.15238H25.0438C25.596 8.15238 26.0438 8.6001 26.0438 9.15238C26.0438 9.70467 25.596 10.1524 25.0438 10.1524H20.3625C20.3817 10.3828 20.3914 10.6148 20.3914 10.8478C20.3914 13.0618 19.5119 15.1852 17.9464 16.7507C16.3808 18.3163 14.2575 19.1958 12.0434 19.1958H9.54295L20.0641 28.7605C20.4728 29.132 20.5029 29.7644 20.1314 30.1731C19.7599 30.5818 19.1274 30.6119 18.7188 30.2404L6.28367 18.9357C5.97797 18.6578 5.87464 18.2205 6.02362 17.8352C6.17259 17.4498 6.5432 17.1958 6.95634 17.1958H12.0434C13.727 17.1958 15.3417 16.527 16.5322 15.3365C17.7226 14.146 18.3914 12.5314 18.3914 10.8478C18.3914 10.6143 18.3786 10.3822 18.3533 10.1524H6.95634C6.40405 10.1524 5.95634 9.70467 5.95634 9.15238C5.95634 8.6001 6.40405 8.15238 6.95634 8.15238H17.7908C17.4813 7.49235 17.0575 6.8844 16.5322 6.35905C15.3417 5.16856 13.727 4.49976 12.0434 4.49976Z" fill="#111827"/>
</svg>
