<svg width="32" height="33" viewBox="0 0 32 33" fill="none" xmlns="http://www.w3.org/2000/svg">
<path fill-rule="evenodd" clip-rule="evenodd" d="M10.0907 2.49976C9.53839 2.49976 9.09068 2.94747 9.09068 3.49976V17.8638H5.36328C4.811 17.8638 4.36328 18.3115 4.36328 18.8638C4.36328 19.4161 4.811 19.8638 5.36328 19.8638H9.09068V22.5913H5.36328C4.811 22.5913 4.36328 23.0391 4.36328 23.5913C4.36328 24.1436 4.811 24.5913 5.36328 24.5913H9.09068V29.5004C9.09068 30.0527 9.53839 30.5004 10.0907 30.5004C10.643 30.5004 11.0907 30.0527 11.0907 29.5004V24.5913H18.3636C18.9159 24.5913 19.3636 24.1436 19.3636 23.5913C19.3636 23.0391 18.9159 22.5913 18.3636 22.5913H11.0907V19.8638H18.9545C21.2572 19.8638 23.4655 18.9491 25.0937 17.3209C26.7219 15.6927 27.6366 13.4844 27.6366 11.1818C27.6366 8.87916 26.7219 6.67085 25.0937 5.04266C23.4655 3.41447 21.2572 2.49976 18.9545 2.49976H10.0907ZM18.9545 17.8638H11.0907V4.49976H18.9545C20.7267 4.49976 22.4263 5.20375 23.6794 6.45687C24.9326 7.71 25.6366 9.40959 25.6366 11.1818C25.6366 12.954 24.9326 14.6536 23.6794 15.9067C22.4263 17.1598 20.7267 17.8638 18.9545 17.8638Z" fill="#111827"/>
</svg>
