<svg width="32" height="32" viewBox="0 0 32 32" fill="none" xmlns="http://www.w3.org/2000/svg">
<path fill-rule="evenodd" clip-rule="evenodd" d="M4.85486 8.19493C4.647 7.68326 4.06369 7.43698 3.55202 7.64484C3.04035 7.85271 2.79406 8.43601 3.00193 8.94769L5.46076 15.0002H3C2.44772 15.0002 2 15.4479 2 16.0002C2 16.5525 2.44772 17.0002 3 17.0002H6.27326L9.0378 23.8052C9.19097 24.1822 9.55732 24.4288 9.96427 24.4288C10.3712 24.4288 10.7376 24.1822 10.8907 23.8052L13.6553 17.0002H18.345L21.1095 23.8052C21.2627 24.1822 21.6291 24.4288 22.036 24.4288C22.443 24.4288 22.8093 24.1822 22.9625 23.8052L25.727 17.0002H29.0007C29.553 17.0002 30.0007 16.5525 30.0007 16.0002C30.0007 15.4479 29.553 15.0002 29.0007 15.0002H26.5395L28.9984 8.94769C29.2062 8.43601 28.9599 7.85271 28.4483 7.64484C27.9366 7.43698 27.3533 7.68326 27.1454 8.19493L24.3808 15.0002H19.6912L16.9266 8.19493C16.7734 7.81791 16.4071 7.57131 16.0001 7.57131C15.5932 7.57131 15.2268 7.81791 15.0737 8.19493L12.309 15.0002H7.6195L4.85486 8.19493ZM8.432 17.0002L9.96427 20.7719L11.4965 17.0002H8.432ZM14.4678 15.0002H17.5325L16.0001 11.2282L14.4678 15.0002ZM20.5037 17.0002L22.036 20.7719L23.5683 17.0002H20.5037Z" fill="#111827"/>
</svg>
