<svg width="32" height="33" viewBox="0 0 32 33" fill="none" xmlns="http://www.w3.org/2000/svg">
<path fill-rule="evenodd" clip-rule="evenodd" d="M16.0002 2.49976C16.5525 2.49976 17.0002 2.94747 17.0002 3.49976V5.49972H18.0003C18.7882 5.49972 19.5684 5.65492 20.2964 5.95645C21.0244 6.25799 21.6858 6.69995 22.243 7.25712C22.8001 7.81428 23.2421 8.47573 23.5437 9.2037C23.8452 9.93167 24.0004 10.7119 24.0004 11.4998C24.0004 12.0521 23.5527 12.4998 23.0004 12.4998C22.4481 12.4998 22.0004 12.0521 22.0004 11.4998C22.0004 10.9745 21.8969 10.4544 21.6959 9.96907C21.4949 9.48375 21.2002 9.04278 20.8288 8.67133C20.4573 8.29988 20.0164 8.00524 19.531 7.80421C19.0457 7.60319 18.5256 7.49972 18.0003 7.49972H16.0153C16.0103 7.49979 16.0053 7.49983 16.0002 7.49983C15.9952 7.49983 15.9902 7.49979 15.9852 7.49972H13.5001C12.4392 7.49972 11.4218 7.92116 10.6716 8.67133C9.92145 9.4215 9.50001 10.4389 9.50001 11.4998C9.50001 12.5607 9.92145 13.5782 10.6716 14.3284C11.4218 15.0785 12.4392 15.5 13.5001 15.5H19.0003C20.5916 15.5 22.1178 16.1321 23.243 17.2574C24.3683 18.3826 25.0004 19.9088 25.0004 21.5001C25.0004 23.0914 24.3683 24.6176 23.243 25.7428C22.1178 26.8681 20.5916 27.5002 19.0003 27.5002H17.0002V29.5004C17.0002 30.0527 16.5525 30.5004 16.0002 30.5004C15.4479 30.5004 15.0002 30.0527 15.0002 29.5004V27.5002H13.0001C11.4088 27.5002 9.88264 26.8681 8.7574 25.7428C7.63215 24.6176 7 23.0914 7 21.5001C7 20.9478 7.44772 20.5001 8 20.5001C8.55228 20.5001 9 20.9478 9 21.5001C9 22.561 9.42144 23.5784 10.1716 24.3286C10.9218 25.0788 11.9392 25.5002 13.0001 25.5002H19.0003C20.0612 25.5002 21.0786 25.0788 21.8288 24.3286C22.579 23.5784 23.0004 22.561 23.0004 21.5001C23.0004 20.4392 22.579 19.4218 21.8288 18.6716C21.0786 17.9214 20.0612 17.5 19.0003 17.5H13.5001C11.9088 17.5 10.3827 16.8678 9.25741 15.7426C8.13217 14.6173 7.50001 13.0912 7.50001 11.4998C7.50001 9.90851 8.13217 8.38236 9.25741 7.25712C10.3827 6.13187 11.9088 5.49972 13.5001 5.49972H15.0002V3.49976C15.0002 2.94747 15.4479 2.49976 16.0002 2.49976Z" fill="#111827"/>
</svg>
