<svg width="32" height="32" viewBox="0 0 32 32" fill="none" xmlns="http://www.w3.org/2000/svg">
<path fill-rule="evenodd" clip-rule="evenodd" d="M12.0434 3.99976H6.95634C6.40405 3.99976 5.95634 3.55204 5.95634 2.99976C5.95634 2.44747 6.40405 1.99976 6.95634 1.99976H12.0434H25.0438C25.596 1.99976 26.0438 2.44747 26.0438 2.99976C26.0438 3.55204 25.596 3.99976 25.0438 3.99976H17.4649C17.6306 4.14125 17.7912 4.28967 17.9464 4.44483C18.8574 5.35582 19.5361 6.45569 19.9443 7.65238H25.0438C25.596 7.65238 26.0438 8.1001 26.0438 8.65238C26.0438 9.20467 25.596 9.65238 25.0438 9.65238H20.3625C20.3817 9.88281 20.3914 10.1148 20.3914 10.3478C20.3914 12.5618 19.5119 14.6852 17.9464 16.2507C16.3808 17.8163 14.2575 18.6958 12.0434 18.6958H9.54295L20.0641 28.2605C20.4728 28.632 20.5029 29.2644 20.1314 29.6731C19.7599 30.0818 19.1274 30.1119 18.7188 29.7404L6.28367 18.4357C5.97797 18.1578 5.87464 17.7205 6.02362 17.3352C6.17259 16.9498 6.5432 16.6958 6.95634 16.6958H12.0434C13.727 16.6958 15.3417 16.027 16.5322 14.8365C17.7226 13.646 18.3914 12.0314 18.3914 10.3478C18.3914 10.1143 18.3786 9.88222 18.3533 9.65238H6.95634C6.40405 9.65238 5.95634 9.20467 5.95634 8.65238C5.95634 8.1001 6.40405 7.65238 6.95634 7.65238H17.7908C17.4813 6.99235 17.0575 6.3844 16.5322 5.85905C15.3417 4.66856 13.727 3.99976 12.0434 3.99976Z" fill="#111827"/>
</svg>
