<svg width="32" height="32" viewBox="0 0 32 32" fill="none" xmlns="http://www.w3.org/2000/svg">
<path fill-rule="evenodd" clip-rule="evenodd" d="M6.54592 4.95508C5.99364 4.95508 5.54592 5.40279 5.54592 5.95508C5.54592 6.50736 5.99364 6.95508 6.54592 6.95508H25.4539C26.0062 6.95508 26.4539 6.50736 26.4539 5.95508C26.4539 5.40279 26.0062 4.95508 25.4539 4.95508H6.54592ZM4.1823 13.2275C3.63002 13.2275 3.1823 13.6752 3.1823 14.2275C3.1823 14.7798 3.63002 15.2275 4.1823 15.2275H11.4547V16.591C11.4547 18.8332 10.5641 20.9835 8.97862 22.5689C7.39319 24.1543 5.24287 25.045 3.00073 25.045C2.44845 25.045 2.00073 25.4927 2.00073 26.045C2.00073 26.5973 2.44845 27.045 3.00073 27.045C5.77331 27.045 8.43233 25.9436 10.3928 23.9831C12.3533 22.0226 13.4547 19.3636 13.4547 16.591V15.2275H18.5451V22.4998C18.5451 23.7052 19.024 24.8614 19.8764 25.7138C20.7288 26.5662 21.8849 27.045 23.0904 27.045H28.9991C29.5514 27.045 29.9991 26.5973 29.9991 26.045V22.4998C29.9991 21.9475 29.5514 21.4998 28.9991 21.4998C28.4468 21.4998 27.9991 21.9475 27.9991 22.4998V25.045H23.0904C22.4153 25.045 21.7679 24.7769 21.2906 24.2995C20.8133 23.8222 20.5451 23.1748 20.5451 22.4998V15.2275H27.8173C28.3696 15.2275 28.8173 14.7798 28.8173 14.2275C28.8173 13.6752 28.3696 13.2275 27.8173 13.2275H19.5451H12.4547H4.1823Z" fill="#111827"/>
</svg>
