<svg width="32" height="32" viewBox="0 0 32 32" fill="none" xmlns="http://www.w3.org/2000/svg">
<path fill-rule="evenodd" clip-rule="evenodd" d="M17.0005 3.00073C17.0005 2.44845 16.5528 2.00073 16.0005 2.00073C15.4482 2.00073 15.0005 2.44845 15.0005 3.00073V5.00038H13.5001C11.9089 5.00038 10.3829 5.63249 9.25772 6.75764C8.13256 7.8828 7.50046 9.40884 7.50046 11.0001C7.50046 12.5913 8.13256 14.1173 9.25772 15.2425C10.3829 16.3676 11.9089 16.9997 13.5001 16.9997H15.0005V24.9991H13.0002C11.9394 24.9991 10.922 24.5777 10.172 23.8276C9.42188 23.0775 9.00049 22.0602 9.00049 20.9994C9.00049 20.4471 8.55277 19.9994 8.00049 19.9994C7.4482 19.9994 7.00049 20.4471 7.00049 20.9994C7.00049 22.5906 7.63259 24.1166 8.75775 25.2418C9.88291 26.367 11.4089 26.9991 13.0002 26.9991H15.0005V28.999C15.0005 29.5513 15.4482 29.999 16.0005 29.999C16.5528 29.999 17.0005 29.5513 17.0005 28.999V26.9991H18.9998C20.591 26.9991 22.117 26.367 23.2422 25.2418C24.3673 24.1166 24.9994 22.5906 24.9994 20.9994C24.9994 19.4082 24.3673 17.8821 23.2422 16.757C22.117 15.6318 20.591 14.9997 18.9998 14.9997H17.0005V7.00038H17.9998C18.5251 7.00038 19.0452 7.10384 19.5304 7.30484C20.0157 7.50584 20.4566 7.80045 20.828 8.17186C21.1994 8.54326 21.494 8.98418 21.695 9.46944C21.896 9.95471 21.9995 10.4748 21.9995 11.0001C21.9995 11.5523 22.4472 12.0001 22.9995 12.0001C23.5518 12.0001 23.9995 11.5523 23.9995 11.0001C23.9995 10.2122 23.8443 9.43199 23.5428 8.70408C23.2413 7.97616 22.7994 7.31476 22.2422 6.75764C21.6851 6.20052 21.0237 5.75859 20.2958 5.45708C19.5679 5.15557 18.7877 5.00038 17.9998 5.00038H17.0005V3.00073ZM15.0005 7.00038H13.5001C12.4393 7.00038 11.422 7.42177 10.6719 8.17186C9.92185 8.92194 9.50045 9.93927 9.50045 11.0001C9.50045 12.0608 9.92185 13.0782 10.6719 13.8282C11.422 14.5783 12.4393 14.9997 13.5001 14.9997H15.0005V7.00038ZM17.0005 16.9997V24.9991H18.9998C20.0605 24.9991 21.0779 24.5777 21.828 23.8276C22.578 23.0775 22.9994 22.0602 22.9994 20.9994C22.9994 19.9386 22.578 18.9213 21.828 18.1712C21.0779 17.4211 20.0605 16.9997 18.9998 16.9997H17.0005Z" fill="#111827"/>
</svg>
