<svg width="32" height="33" viewBox="0 0 32 33" fill="none" xmlns="http://www.w3.org/2000/svg">
<path fill-rule="evenodd" clip-rule="evenodd" d="M5.63068 2.86655C5.28095 2.4391 4.65093 2.3761 4.22348 2.72583C3.79604 3.07556 3.73303 3.70558 4.08276 4.13302L13.8895 16.119H8.57129C8.01901 16.119 7.57129 16.5667 7.57129 17.119C7.57129 17.6713 8.01901 18.119 8.57129 18.119H15V21.0719H8.57129C8.01901 21.0719 7.57129 21.5196 7.57129 22.0719C7.57129 22.6242 8.01901 23.0719 8.57129 23.0719H15V29.5004C15 30.0526 15.4477 30.5004 16 30.5004C16.5522 30.5004 17 30.0526 17 29.5004V23.0719H23.4289C23.9812 23.0719 24.4289 22.6242 24.4289 22.0719C24.4289 21.5196 23.9812 21.0719 23.4289 21.0719H17V18.119H23.4289C23.9812 18.119 24.4289 17.6713 24.4289 17.119C24.4289 16.5667 23.9812 16.119 23.4289 16.119H18.1104L27.9171 4.13302C28.2669 3.70558 28.2039 3.07556 27.7764 2.72583C27.349 2.3761 26.719 2.4391 26.3692 2.86655L16 15.5401L5.63068 2.86655Z" fill="#111827"/>
</svg>
