<svg width="32" height="33" viewBox="0 0 32 33" fill="none" xmlns="http://www.w3.org/2000/svg">
<path fill-rule="evenodd" clip-rule="evenodd" d="M12.0528 1.45606C11.9202 1.22637 11.7018 1.05877 11.4456 0.990131C11.1895 0.921488 10.9165 0.957424 10.6868 1.09003L5.31095 4.19379C4.83265 4.46994 4.66878 5.08153 4.94492 5.55982L6.44866 8.16437C5.37888 9.38924 4.54035 10.8226 4.00223 12.3962H0.998047C0.445762 12.3962 -0.00195312 12.8439 -0.00195312 13.3962V19.6037C-0.00195312 20.156 0.445762 20.6037 0.998047 20.6037H4.00232C4.54044 22.1773 5.37894 23.6105 6.44867 24.8354L4.94491 27.4399C4.66877 27.9182 4.83265 28.5298 5.31094 28.806L10.6868 31.9097C11.1651 32.1859 11.7767 32.022 12.0528 31.5437L13.5555 28.941C14.3471 29.0957 15.1644 29.1766 15.9998 29.1766C16.8351 29.1766 17.6525 29.0957 18.444 28.941L19.9467 31.5437C20.2229 32.022 20.8344 32.1858 21.3127 31.9097L26.6886 28.8059C27.1669 28.5298 27.3308 27.9182 27.0546 27.4399L25.5509 24.8353C26.6206 23.6105 27.4591 22.1773 27.9972 20.6037H31.0016C31.5539 20.6037 32.0016 20.156 32.0016 19.6037V13.3962C32.0016 12.8439 31.5539 12.3962 31.0016 12.3962H27.9973C27.4592 10.8226 26.6206 9.38927 25.5509 8.16441L27.0546 5.55983C27.3308 5.08154 27.1669 4.46995 26.6886 4.19381L21.3127 1.09005C21.083 0.957438 20.8101 0.921503 20.5539 0.990146C20.2977 1.05879 20.0793 1.22639 19.9467 1.45607L18.444 4.05876C17.6525 3.90406 16.8351 3.82312 15.9998 3.82312C15.1644 3.82312 14.3471 3.90406 13.5555 4.05875L12.0528 1.45606ZM8.54951 7.80315L7.17697 5.42584L10.8208 3.32208L12.1919 5.69685C12.4167 6.08629 12.8738 6.27775 13.3091 6.16478C14.1676 5.94197 15.0691 5.82312 15.9998 5.82312C16.9305 5.82312 17.8319 5.94197 18.6904 6.16479C19.1257 6.27776 19.5828 6.0863 19.8077 5.69686L21.1788 3.3221L24.8226 5.42586L23.45 7.80319C23.2251 8.19284 23.288 8.68476 23.6039 9.00519C24.8657 10.2853 25.8057 11.8809 26.2953 13.6614C26.4147 14.0954 26.8094 14.3962 27.2595 14.3962H30.0016V18.6037H27.2595C26.8093 18.6037 26.4146 18.9045 26.2953 19.3385C25.8056 21.1189 24.8656 22.7145 23.6039 23.9945C23.288 24.315 23.225 24.8069 23.45 25.1965L24.8226 27.5739L21.1788 29.6777L19.8077 27.3029C19.5828 26.9134 19.1257 26.722 18.6904 26.8349C17.8319 27.0577 16.9304 27.1766 15.9998 27.1766C15.0691 27.1766 14.1676 27.0577 13.3091 26.8349C12.8739 26.722 12.4167 26.9134 12.1919 27.3029L10.8208 29.6777L7.17696 27.5739L8.54952 25.1966C8.77449 24.8069 8.71152 24.315 8.39567 23.9946C7.13392 22.7145 6.19393 21.1189 5.70424 19.3385C5.58487 18.9045 5.1902 18.6037 4.74005 18.6037H1.99805V14.3962H4.73998C5.19014 14.3962 5.58481 14.0954 5.70418 13.6614C6.19385 11.8809 7.13387 10.2852 8.39566 9.00515C8.71152 8.68472 8.77448 8.19281 8.54951 7.80315ZM9.43709 12.0752L16.0474 15.6922C16.0601 15.6912 16.073 15.6907 16.0859 15.6907C16.1181 15.6907 16.1495 15.6938 16.1799 15.6995L22.6183 12.1063L15.9999 8.40283L9.43709 12.0752ZM23.3389 20.721L16.5859 24.4998V16.6181L23.3389 12.8494V20.721ZM15.5859 24.596V16.5796L8.66089 12.7904V20.721L15.5859 24.596Z" fill="#111827"/>
</svg>
