<svg width="33" height="33" viewBox="0 0 33 33" fill="none" xmlns="http://www.w3.org/2000/svg">
<path fill-rule="evenodd" clip-rule="evenodd" d="M23.2254 10.9919C21.7129 11.9297 19.4672 12.5239 16.9603 12.5239C14.4532 12.5239 12.2074 11.9296 10.6948 10.9917V24.4739C10.6948 25.0924 10.9541 25.5857 11.3412 25.8286C14.5806 27.8607 19.1026 27.6814 22.4759 25.8004C22.9246 25.5502 23.2254 25.0137 23.2254 24.3531V10.9919ZM25.1941 7.89333C24.9507 5.58973 21.3574 3.7616 16.9603 3.7616C12.5647 3.7616 8.97233 5.5885 8.72677 7.891C8.70592 7.97141 8.69482 8.05576 8.69482 8.1427V24.4739C8.69482 25.6115 9.17783 26.8324 10.2784 27.5228C14.2364 30.0058 19.5493 29.7222 23.4499 27.5472C24.655 26.8752 25.2254 25.5862 25.2254 24.3531V8.1427C25.2254 8.0566 25.2145 7.97305 25.1941 7.89333Z" fill="#1C1B1F"/>
</svg>
