<svg width="32" height="32" viewBox="0 0 32 32" fill="none" xmlns="http://www.w3.org/2000/svg">
<path fill-rule="evenodd" clip-rule="evenodd" d="M24.4146 8.81061C22.5174 10.1849 19.4557 11.0772 16.0018 11.0772C12.538 11.0772 9.46865 10.1798 7.57275 8.79878V26.5269C7.57275 27.1462 7.83845 27.6622 8.25091 27.9317C12.6901 30.832 19.0498 30.5521 23.6337 27.8995C24.107 27.6256 24.4146 27.0686 24.4146 26.4062V8.81061ZM26.4146 5.81623C26.4231 5.72426 26.4274 5.63171 26.4274 5.53861C26.4274 2.47972 21.7597 0 16.0018 0C10.3082 0 5.68054 2.42466 5.57791 5.43637C5.5745 5.46997 5.57275 5.50407 5.57275 5.53857V26.5269C5.57275 27.69 6.0773 28.9006 7.157 29.606C12.3338 32.9883 19.5152 32.5935 24.6354 29.6305C25.8233 28.9431 26.4146 27.6631 26.4146 26.4062V5.81623Z" fill="#111827"/>
</svg>
