<svg width="32" height="33" viewBox="0 0 32 33" fill="none" xmlns="http://www.w3.org/2000/svg">
<path fill-rule="evenodd" clip-rule="evenodd" d="M26.4509 5.16667L27.1618 4.90233L26.8133 3.96503L25.6259 4.40652L26.0559 3.21557L25.1153 2.87598L24.868 3.56098L24.6601 2.91057L23.7076 3.2151L24.2882 5.03115L19.211 10.1083L19.9181 10.8154L24.9915 5.7421L26.8252 6.34083L27.1355 5.39022L26.4509 5.16667ZM14.8926 3.61639L14.577 4.30562L15.2186 3.97989L15.6713 4.87155L13.9514 5.74476V12.9189H12.9514V5.73937L11.2566 4.86578L11.7148 3.97692L12.3223 4.29006L12.0127 3.63061L12.9179 3.20565L13.456 4.35183L13.9834 3.20006L14.8926 3.61639ZM8.49734 9.83246L9.18498 8.94838L8.10972 8.80941L8.2379 7.81766L9.32424 7.95806L8.90952 6.96274L9.8326 6.57812L10.2498 7.57939L10.9491 6.68026L11.7385 7.29421L11.0488 8.18096L12.1492 8.32319L12.0211 9.31494L10.9133 9.17176L12.4933 12.9639L11.5703 13.3485L9.98628 9.54697L9.28668 10.4464L8.49734 9.83246ZM18.4402 9.83246L17.7525 8.94838L18.8278 8.80941L18.6996 7.81766L17.6133 7.95806L18.028 6.96274L17.1049 6.57812L16.6877 7.57939L15.9884 6.68026L15.199 7.29421L15.8888 8.18096L14.7883 8.32319L14.9165 9.31494L16.0242 9.17176L14.4442 12.9639L15.3673 13.3485L16.9512 9.54697L17.6508 10.4464L18.4402 9.83246ZM30.4012 10.5397L30.2623 11.6511L29.2701 11.527L29.4114 10.3962L25.6031 11.9643L25.2224 11.0396L29.0211 9.47548L28.1364 8.79335L28.7471 8.00144L29.626 8.67917L29.7653 7.5644L30.7576 7.68842L30.6163 8.81859L31.6192 8.40564L32 9.33032L31.0029 9.74088L31.8703 10.4097L31.2596 11.2016L30.4012 10.5397ZM3.52885 14.1256L4.40486 13.4464L3.35211 13.0118L3.73371 12.0875L4.78125 12.52L4.63001 11.3994L5.62103 11.2656L5.77229 12.3864L6.66852 11.6916L7.28121 12.4819L6.38046 13.1802L10.1611 14.741L9.77948 15.6653L6.00449 14.1068L6.15661 15.234L5.1656 15.3678L5.01339 14.24L4.14154 14.9159L3.52885 14.1256ZM10.1899 18.5361L6.38954 20.1483L7.25693 20.8207L6.64429 21.611L5.78096 20.9418L5.64624 22.0331L4.65377 21.9105L4.78742 20.828L3.76255 21.2627L3.37202 20.3421L4.42892 19.8938L3.50462 19.1773L4.11727 18.387L5.00393 19.0743L5.14071 17.9663L6.13318 18.0889L5.99222 19.2306L9.79932 17.6156L10.1899 18.5361ZM8.91994 26.4051L9.35636 25.3402L8.21772 25.4912L8.08627 24.4999L9.19422 24.353L8.5285 23.4572L9.33111 22.8607L10.0024 23.7639L11.5764 19.9235L12.5017 20.3027L10.9364 24.1219L11.9966 23.9814L12.128 24.9727L11.0108 25.1208L11.7068 26.0572L10.9042 26.6537L10.2561 25.7818L9.84524 26.7843L8.91994 26.4051ZM15.8679 25.1141L15.1901 25.9836L15.9787 26.5984L16.6755 25.7046L17.1093 26.7569L18.0338 26.3758L17.6089 25.3448L18.73 25.4934L18.8614 24.5021L17.7299 24.3521L18.4159 23.4722L17.6272 22.8574L16.9446 23.7331L15.3924 19.9671L14.4678 20.3482L16.025 24.1262L14.9271 23.9807L14.7958 24.9721L15.8679 25.1141ZM22.162 20.7899L23.1943 21.213L23.5736 20.2878L22.5443 19.8658L23.4297 19.195L22.8258 18.398L21.9239 19.0812L21.77 17.9763L20.7795 18.1143L20.9315 19.2046L17.1487 17.6539L16.7694 18.5792L20.5441 20.1266L19.6622 20.7948L20.2661 21.5919L21.1688 20.9079L21.3229 22.014L22.3134 21.8759L22.162 20.7899ZM5.57098 7.10542L5.30688 6.39515L4.36958 6.74367L4.81108 7.93102L3.62012 7.50103L3.28053 8.44161L3.96548 8.68891L3.31463 8.89699L3.61916 9.8495L5.43522 9.26887L10.5123 14.346L11.2194 13.6389L6.14616 8.5656L6.7449 6.73193L5.79429 6.42153L5.57098 7.10542ZM2.54492 16.1687L9.71933 16.1687V17.1687L2.53922 17.1687L1.66578 18.8632L0.776918 18.405L1.08991 17.7978L0.430547 18.1073L0.00558718 17.2021L1.15177 16.6641L0 16.1367L0.416333 15.2274L1.1058 15.5432L0.779885 14.9012L1.67155 14.4485L2.54492 16.1687ZM11.0922 19.5251L6.01498 24.6023L6.59551 26.418L5.64301 26.7226L5.43506 26.0722L5.18774 26.7572L4.24717 26.4176L4.67716 25.2266L3.4898 25.6681L3.14129 24.7308L3.8522 24.4665L3.16754 24.2429L3.47794 23.2923L5.31193 23.8911L10.3851 18.818L11.0922 19.5251ZM13.9595 27.5848V20.4044H12.9595V27.5792L11.2393 28.4525L11.692 29.3442L12.3339 29.0182L12.0182 29.7077L12.9274 30.124L13.4548 28.9723L13.9929 30.1185L14.8981 29.6935L14.5886 29.0341L15.1958 29.3471L15.654 28.4583L13.9595 27.5848ZM16.4243 18.9037L21.5016 23.981L23.3174 23.4005L23.6219 24.353L22.9713 24.561L23.6565 24.8084L23.3169 25.749L22.126 25.319L22.5674 26.5064L21.6301 26.8549L21.3658 26.1439L21.1423 26.8285L20.1916 26.5181L20.7905 24.6841L15.7172 19.6108L16.4243 18.9037ZM24.3924 17.1406L17.2177 17.1406V16.1406L24.3978 16.1406L25.2714 14.4459L26.1603 14.9041L25.8474 15.511L26.5067 15.2015L26.9317 16.1067L25.7855 16.6448L26.9373 17.1722L26.521 18.0814L25.8312 17.7655L26.1573 18.4079L25.2656 18.8606L24.3924 17.1406Z" fill="#111827"/>
</svg>
