<svg width="32" height="33" viewBox="0 0 32 33" fill="none" xmlns="http://www.w3.org/2000/svg">
<g clip-path="url(#clip0_304_271)">
<path d="M1.27197 8.92039V9.87956L16.007 18.1784L29.2268 10.7692V13.7857L16.007 21.2644L2.02262 13.3131L1.27197 13.7162V19.4851L16.007 27.7701L29.2268 20.3748V23.3218L16.007 30.7866L2.02262 22.8352L1.27197 23.2523V24.2809L16.007 32.5659L30.7281 24.2809V18.526L30.0469 18.1089L16.007 26.0603L2.84278 18.526V15.579L16.007 22.9743L30.7281 14.6754V8.9899L30.0469 8.58677L16.007 16.5381L3.52393 9.47643L16.007 2.41475L26.3493 8.23925L27.239 7.69711V6.93256L16.007 0.565918L1.27197 8.92039Z" fill="#111827"/>
</g>
<defs>
<clipPath id="clip0_304_271">
<rect width="32" height="32" fill="white" transform="translate(0 0.565918)"/>
</clipPath>
</defs>
</svg>
