<svg width="32" height="32" viewBox="0 0 32 32" fill="none" xmlns="http://www.w3.org/2000/svg">
<path fill-rule="evenodd" clip-rule="evenodd" d="M15.9959 16.4976C21.6462 16.4976 26.5728 14.8074 29.1691 12.3034V15.8326V15.8326C29.1691 17.3797 27.9815 19.0107 25.5472 20.3137C23.1549 21.5942 19.7813 22.4167 16.0001 22.4167C12.2189 22.4167 8.84521 21.5942 6.45297 20.3137C4.01862 19.0107 2.83105 17.3797 2.83105 15.8326V15.8326V12.3114C5.42953 14.811 10.3516 16.4976 15.9959 16.4976ZM0.831055 15.8326V8.24846C0.831055 8.13617 0.849562 8.02821 0.883693 7.92745C1.19282 3.52033 7.84051 -0.000732422 15.9959 -0.000732422C24.1332 -0.000732422 30.7694 3.50468 31.106 7.89804C31.1468 8.00709 31.1691 8.12516 31.1691 8.24846V15.8326V15.8326V23.4167C31.1691 26.0582 29.1848 28.2192 26.491 29.6611C23.755 31.1256 20.0442 32.0008 16.0001 32.0008C11.9559 32.0008 8.24509 31.1256 5.50915 29.6611C2.81533 28.2192 0.831055 26.0582 0.831055 23.4167V15.8326V15.8326ZM2.83105 20.1502V23.4167C2.83105 24.9638 4.01862 26.5948 6.45297 27.8978C8.84521 29.1783 12.2189 30.0008 16.0001 30.0008C19.7813 30.0008 23.1549 29.1783 25.5472 27.8978C27.9815 26.5948 29.1691 24.9638 29.1691 23.4167V20.1502C28.4231 20.8863 27.5076 21.5329 26.491 22.077C23.755 23.5415 20.0442 24.4167 16.0001 24.4167C11.9559 24.4167 8.24509 23.5415 5.50915 22.077C4.49257 21.5329 3.57703 20.8863 2.83105 20.1502Z" fill="#111827"/>
</svg>
