<svg width="33" height="33" viewBox="0 0 33 33" fill="none" xmlns="http://www.w3.org/2000/svg">
<path fill-rule="evenodd" clip-rule="evenodd" d="M16.9602 16.8091C21.1408 16.8091 24.8207 15.6395 26.96 13.8675V16.283C26.96 17.4023 26.1144 18.6358 24.2593 19.6477C22.442 20.6389 19.8632 21.283 16.96 21.283C14.0567 21.283 11.4779 20.6389 9.66064 19.6477C7.80556 18.6358 6.95996 17.4023 6.95996 16.283V13.8672C9.09919 15.6394 12.7792 16.8091 16.9602 16.8091ZM4.95996 16.283V10.283C4.95996 10.1749 4.97711 10.0708 5.00884 9.97327C5.30522 6.51279 10.5426 3.75684 16.9602 3.75684C23.3787 3.75684 28.6168 6.51366 28.9116 9.97491C28.943 10.0719 28.96 10.1755 28.96 10.283V16.283V22.283C28.96 24.4773 27.3431 26.2438 25.217 27.4035C23.053 28.5838 20.1319 29.283 16.96 29.283C13.788 29.283 10.8669 28.5838 8.70293 27.4035C6.5768 26.2438 4.95996 24.4773 4.95996 22.283V16.283ZM26.96 20.2035V22.283C26.96 23.4023 26.1144 24.6358 24.2593 25.6477C22.442 26.6389 19.8632 27.283 16.96 27.283C14.0567 27.283 11.4779 26.6389 9.66064 25.6477C7.80556 24.6358 6.95996 23.4023 6.95996 22.283V20.2035C7.47549 20.6547 8.06638 21.0563 8.70293 21.4035C10.8669 22.5838 13.788 23.283 16.96 23.283C20.1319 23.283 23.053 22.5838 25.217 21.4035C25.8535 21.0563 26.4444 20.6547 26.96 20.2035Z" fill="#1C1B1F"/>
</svg>
