<svg width="32" height="32" viewBox="0 0 32 32" fill="none" xmlns="http://www.w3.org/2000/svg">
<path fill-rule="evenodd" clip-rule="evenodd" d="M29.0003 12.3832C26.419 14.8354 21.5703 16.4871 16.0143 16.4871C10.4373 16.4871 5.57286 14.8229 2.99902 12.3553V15.829V15.8291C2.99902 17.3547 4.16866 18.9657 6.57213 20.2539C8.93379 21.5197 12.2652 22.3332 15.9997 22.3332C19.7342 22.3332 23.0656 21.5197 25.4272 20.2539C27.8307 18.9657 29.0003 17.3547 29.0003 15.8291V15.829V12.3832ZM30.9719 8.08736C30.7415 3.68944 24.1329 0.162842 16.0143 0.162842C7.96899 0.162842 1.40661 3.62603 1.06445 7.96842C1.02218 8.07917 0.999023 8.19936 0.999023 8.32495V15.829V15.8291V23.3331C0.999023 25.9518 2.96354 28.0929 5.62732 29.5207C8.3329 30.9708 12.0018 31.8372 15.9997 31.8372C19.9975 31.8372 23.6665 30.9708 26.372 29.5207C29.0358 28.0929 31.0003 25.9518 31.0003 23.3331V15.8291V15.829V8.32495C31.0003 8.24308 30.9905 8.16352 30.9719 8.08736ZM2.99902 23.3331V20.1285C3.73331 20.8494 4.63145 21.4829 5.62732 22.0166C8.3329 23.4668 12.0018 24.3332 15.9997 24.3332C19.9975 24.3332 23.6665 23.4668 26.372 22.0166C27.3679 21.4829 28.2661 20.8494 29.0003 20.1285V23.3331C29.0003 24.8587 27.8307 26.4697 25.4272 27.7579C23.0656 29.0237 19.7342 29.8372 15.9997 29.8372C12.2652 29.8372 8.93379 29.0237 6.57213 27.7579C4.16866 26.4697 2.99902 24.8587 2.99902 23.3331Z" fill="#111827"/>
</svg>
