<svg width="32" height="33" viewBox="0 0 32 33" fill="none" xmlns="http://www.w3.org/2000/svg">
<path fill-rule="evenodd" clip-rule="evenodd" d="M18.3428 2.53727C19.5929 2.34662 20.8704 2.45575 22.07 2.85565C23.2696 3.25556 24.357 3.9348 25.2427 4.8374C26.1283 5.74001 26.7868 6.84013 27.1638 8.04714C27.5409 9.25414 27.6257 10.5335 27.4114 11.7797C27.219 12.8982 26.7905 13.9614 26.1562 14.899C24.4855 13.4645 21.5466 12.5125 18.2001 12.5125C13.1362 12.5125 9.00565 14.6923 8.79028 17.4256C8.76367 17.4953 8.7491 17.5709 8.7491 17.65V18.3254C8.3175 18.2487 7.89593 18.1185 7.49437 17.9369C6.8113 17.6279 6.20176 17.1771 5.70622 16.6145C5.21068 16.0519 4.84046 15.3904 4.62014 14.6738C4.39983 13.9572 4.33445 13.2019 4.42835 12.4581C4.52225 11.7143 4.77328 10.9989 5.16479 10.3596C5.55629 9.72019 6.0793 9.17141 6.69912 8.74963C7.31893 8.32784 8.02137 8.04272 8.75981 7.91317C9.13931 7.8466 9.52386 7.82189 9.90664 7.83881C9.68089 8.67961 9.56534 9.54927 9.56525 10.4259C9.5652 10.9782 10.0129 11.4259 10.5652 11.426C11.1174 11.426 11.5652 10.9784 11.5653 10.4261C11.5654 9.16155 11.866 7.91516 12.4423 6.78959C13.0186 5.66403 13.8541 4.69152 14.88 3.9522C15.9059 3.21289 17.0928 2.72792 18.3428 2.53727ZM10.008 20.3472C10.0483 20.3326 10.0874 20.3155 10.1251 20.296C11.7729 21.7889 14.7727 22.7874 18.2001 22.7874C21.6972 22.7874 24.7492 21.7479 26.3739 20.2044V22.3733C26.3739 23.3336 25.6377 24.3475 24.1249 25.1584C22.6384 25.9551 20.5416 26.4671 18.1909 26.4671C15.8403 26.4671 13.7435 25.9551 12.257 25.1584C10.7442 24.3475 10.008 23.3335 10.008 22.3732V20.3472ZM8.7491 20.3479C8.03236 20.2563 7.33151 20.0583 6.67005 19.7591C5.72856 19.3332 4.88843 18.7119 4.20541 17.9365C3.52239 17.1611 3.01212 16.2492 2.70845 15.2615C2.40478 14.2738 2.31467 13.2328 2.4441 12.2076C2.57353 11.1824 2.91953 10.1964 3.45914 9.31516C3.99876 8.43391 4.71964 7.6775 5.57394 7.09615C6.42824 6.5148 7.39642 6.12181 8.41422 5.94326C9.15481 5.81333 9.90934 5.79911 10.6511 5.89956L10.6621 5.87809C11.3828 4.47046 12.4277 3.25424 13.7107 2.32965C14.9936 1.40506 16.4779 0.798559 18.0413 0.560134C19.6046 0.321708 21.2022 0.45818 22.7025 0.958303C24.2027 1.45843 25.5627 2.30788 26.6702 3.43668C27.7778 4.56548 28.6013 5.9413 29.0728 7.45078C29.5444 8.96025 29.6505 10.5602 29.3824 12.1187C29.1144 13.6772 28.4798 15.1498 27.531 16.4149C27.4925 16.4663 27.45 16.5129 27.4043 16.5546C27.5261 16.8606 27.598 17.1768 27.6149 17.5004C27.6266 17.5483 27.6328 17.5984 27.6328 17.65V27.0965C27.6328 28.7448 26.3963 30.0925 24.7196 30.9912C23.0166 31.9039 20.7073 32.4492 18.1909 32.4492C15.6746 32.4492 13.3653 31.9039 11.6623 30.9912C9.98562 30.0925 8.7491 28.7448 8.7491 27.0965V20.3479ZM10.008 25.0795V27.0965C10.008 28.0568 10.7442 29.0708 12.257 29.8816C13.7435 30.6784 15.8403 31.1904 18.1909 31.1904C20.5416 31.1904 22.6384 30.6784 24.1249 29.8816C25.6377 29.0708 26.3739 28.0568 26.3739 27.0965V25.0795C25.9118 25.5332 25.3464 25.9319 24.7196 26.2679C23.0166 27.1807 20.7073 27.726 18.1909 27.726C15.6746 27.726 13.3653 27.1807 11.6623 26.2679C11.0355 25.9319 10.4701 25.5332 10.008 25.0795Z" fill="#111827"/>
</svg>
