<svg width="32" height="33" viewBox="0 0 32 33" fill="none" xmlns="http://www.w3.org/2000/svg">
<path fill-rule="evenodd" clip-rule="evenodd" d="M30.9719 8.58736C30.7415 4.18944 24.1329 0.662842 16.0143 0.662842C7.96899 0.662842 1.40661 4.12603 1.06445 8.46842C1.02218 8.57917 0.999023 8.69936 0.999023 8.82495V23.8331C0.999023 26.4518 2.96354 28.5929 5.62732 30.0207C8.3329 31.4708 12.0018 32.3372 15.9997 32.3372C19.9975 32.3372 23.6665 31.4708 26.372 30.0207C29.0358 28.5929 31.0003 26.4518 31.0003 23.8331V8.82495C31.0003 8.74308 30.9905 8.66352 30.9719 8.58736ZM29.0003 12.8832C26.419 15.3354 21.5703 16.9871 16.0143 16.9871C10.4373 16.9871 5.57286 15.3229 2.99902 12.8553V16.329C2.99902 17.8546 4.16866 19.4657 6.57213 20.7539C8.93379 22.0197 12.2652 22.8332 15.9997 22.8332C19.7342 22.8332 23.0656 22.0197 25.4272 20.7539C27.8307 19.4657 29.0003 17.8547 29.0003 16.3291V12.8832ZM2.99902 23.8331V20.6285C3.73331 21.3494 4.63145 21.9829 5.62732 22.5166C8.3329 23.9668 12.0018 24.8332 15.9997 24.8332C19.9975 24.8332 23.6665 23.9668 26.372 22.5166C27.3679 21.9829 28.2661 21.3494 29.0003 20.6285V23.8331C29.0003 25.3587 27.8307 26.9697 25.4272 28.2579C23.0656 29.5237 19.7342 30.3372 15.9997 30.3372C12.2652 30.3372 8.93379 29.5237 6.57213 28.2579C4.16866 26.9697 2.99902 25.3587 2.99902 23.8331Z" fill="#111827"/>
</svg>
