<svg width="32" height="33" viewBox="0 0 32 33" fill="none" xmlns="http://www.w3.org/2000/svg">
<path fill-rule="evenodd" clip-rule="evenodd" d="M5.57542 3.00833C5.19713 2.63003 4.58378 2.63003 4.20548 3.00833C3.82719 3.38663 3.82719 3.99997 4.20548 4.37827L7.57347 7.74626C6.40332 8.83866 5.54404 10.2598 5.14281 11.8626H9.89703C11.5906 9.19997 14.3064 7.25118 17.4918 6.56865C16.2645 5.87303 14.8458 5.47589 13.3343 5.47589C11.8121 5.47589 10.3839 5.87869 9.15063 6.58354L5.57542 3.00833ZM8.03263 18.2842C8.03263 16.6987 8.3406 15.1851 8.89998 13.8H4.89814L5.14766 11.8011H1.23947C0.670331 11.8011 0.208956 12.2625 0.208956 12.8316C0.208956 13.4007 0.670331 13.8621 1.23947 13.8621H4.89039L4.89066 13.8599L4.89045 13.9197V15.9851H0.968205C0.43321 15.9851 -0.000488281 16.4188 -0.000488281 16.9538C-0.000488281 17.4888 0.43321 17.9225 0.968205 17.9225H4.89045V17.9264C4.89045 18.6805 4.98929 19.4114 5.17471 20.107H0.968205C0.43321 20.107 -0.000488281 20.5407 -0.000488281 21.0757C-0.000488281 21.6107 0.43321 22.0444 0.968205 22.0444H5.96094C7.01051 23.9197 8.75476 25.3535 10.8453 25.9974C9.09013 23.9133 8.03263 21.2222 8.03263 18.2842ZM20.5648 6.31513C20.3823 6.30687 20.1987 6.3027 20.0141 6.3027C19.1845 6.3027 18.3746 6.38701 17.5925 6.54754L21.1317 3.00833C21.51 2.63003 22.1233 2.63003 22.5016 3.00833C22.8799 3.38663 22.8799 3.99997 22.5016 4.37827L20.5648 6.31513ZM11.0273 18.2846C11.0273 13.321 15.0511 9.29724 20.0147 9.29724C24.9783 9.29724 29.002 13.321 29.002 18.2846C29.002 20.7569 28.0038 22.9959 26.3885 24.6208C26.3819 24.6271 26.3754 24.6334 26.3689 24.6399C26.3625 24.6463 26.3562 24.6527 26.35 24.6593C24.7252 26.2741 22.4865 27.272 20.0147 27.272C15.0511 27.272 11.0273 23.2482 11.0273 18.2846ZM27.0442 26.7294C25.1391 28.3169 22.6884 29.272 20.0147 29.272C13.9465 29.272 9.0273 24.3528 9.0273 18.2846C9.0273 12.2165 13.9465 7.29724 20.0147 7.29724C26.0828 7.29724 31.002 12.2165 31.002 18.2846C31.002 20.9589 30.0466 23.41 28.4585 25.3152L31.708 28.5647C32.0985 28.9552 32.0985 29.5884 31.708 29.9789C31.3174 30.3694 30.6843 30.3694 30.2938 29.9789L27.0442 26.7294ZM16.4616 11.1771C18.1063 10.3927 19.7181 10.3003 21.1617 10.5701C21.3336 10.9735 21.475 11.393 21.5832 11.8257H15.4408C15.8106 11.5466 16.1614 11.3298 16.4616 11.1771ZM21.5805 11.7616H24.2635C25.1822 12.3047 25.9011 12.9166 26.3377 13.396C26.1502 13.6578 25.8435 13.8283 25.497 13.8283H21.8364L21.8354 13.8205L21.8356 13.8859V15.9596H25.7695C26.3045 15.9596 26.7382 16.3933 26.7382 16.9283C26.7382 17.4633 26.3045 17.897 25.7695 17.897H21.8356V17.9036C21.8356 18.6607 21.7363 19.3945 21.5499 20.0929H25.7691C26.3041 20.0929 26.7378 20.5266 26.7378 21.0615C26.7378 21.5965 26.3041 22.0302 25.7691 22.0302H20.7637C19.909 23.5586 18.5942 24.7948 17.0068 25.5513C15.8944 25.0427 15.0197 24.3901 14.3386 23.6868V16.9278C14.3386 16.3928 13.9049 15.9591 13.3699 15.9591C12.8349 15.9591 12.4012 16.3928 12.4012 16.9278V20.3987C12.2551 19.9037 12.1843 19.4651 12.1681 19.1263C11.9085 16.9118 12.5989 15.1095 13.5562 13.7631L21.8283 13.7631L21.5805 11.7616Z" fill="#111827"/>
</svg>
