<svg width="32" height="32" viewBox="0 0 32 32" fill="none" xmlns="http://www.w3.org/2000/svg">
<path fill-rule="evenodd" clip-rule="evenodd" d="M24.4853 7.51472C22.2348 5.26428 19.1826 4 16 4C12.8174 4 9.76516 5.26428 7.51472 7.51472C5.26428 9.76516 4 12.8174 4 16C4 19.1826 5.26428 22.2348 7.51472 24.4853C9.76516 26.7357 12.8174 28 16 28C19.1826 28 22.2348 26.7357 24.4853 24.4853C26.7357 22.2348 28 19.1826 28 16C28 12.8174 26.7357 9.76516 24.4853 7.51472ZM10.0094 8.03125C9.70476 7.95156 9.38601 8.12969 9.29694 8.42969L9.29226 8.44375L8.49538 11.3969L8.49069 11.4109C8.45518 11.5589 8.47863 11.7149 8.55608 11.8459C8.63353 11.9769 8.75891 12.0726 8.90569 12.1128C9.05246 12.153 9.20912 12.1345 9.3425 12.0613C9.47589 11.988 9.57555 11.8657 9.62038 11.7203L9.62507 11.7063L10.4219 8.75313L10.4266 8.73438C10.5016 8.42969 10.3188 8.11562 10.0094 8.03125ZM20.2516 8.58906C19.9423 8.50938 19.6235 8.6875 19.5344 8.9875L19.5298 9.00156L18.9954 10.9891C19.3421 11.1595 19.6731 11.3603 19.9844 11.5891L20.036 11.6313L20.6641 9.31094V9.29688C20.7391 8.9875 20.5563 8.67344 20.2516 8.58906ZM15.0391 5.26094C14.6647 5.29457 14.2923 5.34777 13.9235 5.42031L13.8438 5.43437L13.1032 8.18594L13.0985 8.2C13.0676 8.34653 13.094 8.49932 13.1723 8.627C13.2505 8.75468 13.3747 8.84755 13.5193 8.88655C13.6639 8.92554 13.8179 8.9077 13.9497 8.83669C14.0816 8.76567 14.1812 8.64687 14.2282 8.50469L14.2329 8.49062L15.0298 5.5375L15.0344 5.52344C15.056 5.43744 15.0576 5.34765 15.0391 5.26094ZM22.3704 7.3L22.2157 7.88125L22.211 7.89531C22.1801 8.04184 22.2065 8.19464 22.2848 8.32231C22.363 8.44999 22.4872 8.54286 22.6318 8.58186C22.7764 8.62086 22.9304 8.60301 23.0622 8.532C23.1941 8.46098 23.2937 8.34219 23.3407 8.2L23.3454 8.18594L23.3641 8.125C23.0709 7.85027 22.7626 7.59206 22.4407 7.35156L22.3704 7.3ZM17.7344 5.35938L17.4532 6.40469L17.4485 6.41875C17.4176 6.56528 17.444 6.71807 17.5223 6.84575C17.6005 6.97343 17.7247 7.0663 17.8693 7.1053C18.0139 7.14429 18.1679 7.12645 18.2997 7.05544C18.4316 6.98442 18.5312 6.86562 18.5782 6.72344L18.5829 6.70937L18.8782 5.60781C18.5293 5.51185 18.1757 5.43362 17.8188 5.37344L17.7344 5.35938ZM9.325 15.7234C9.325 12.9906 12.0438 10.7922 15.5312 10.7922C17.2094 10.7922 18.6484 11.2563 19.7828 12.1422C20.7484 12.8969 21.4563 13.9375 21.8219 15.1141L21.8313 15.1422L21.8406 15.175L21.8594 15.2359L21.8875 15.3484L21.9625 15.6109L22.0422 15.9109L22.1781 16.4078L22.3938 17.1953L22.7406 18.4891L23.1344 19.9609L23.7672 22.3281L24.0063 23.2188L23.9547 23.275C22.2859 25.0984 19.9984 26.3453 17.425 26.6875L17.4016 26.5328L17.3594 26.2234L17.3219 25.9984L17.2797 25.7031L17.2234 25.3422L17.2 25.2016L17.1484 24.8594L17.1156 24.6578L17.0734 24.3953L17.0312 24.1422L16.9891 23.8984L16.9469 23.6594L16.9094 23.425L16.8672 23.2L16.8297 22.9844L16.8016 22.825L16.7688 22.6703L16.75 22.5719L16.7125 22.375L16.6844 22.2344L16.6516 22.0609L16.6234 21.9391L16.6 21.8219L16.5766 21.7094L16.5625 21.6344L16.5297 21.4937L16.5063 21.3906L16.4828 21.2875L16.4641 21.2219L16.4406 21.1281L16.4219 21.0391L16.3984 20.95L16.375 20.8656L16.3609 20.8141L16.3375 20.7344L16.3188 20.6594L16.3047 20.6078L16.2859 20.5609L16.2719 20.5187L16.2531 20.4531L16.2391 20.4062L16.2297 20.3781C16.2043 20.3037 16.1762 20.2302 16.1453 20.1578L16.1313 20.1297L16.2391 19.8484L15.8125 19.8625L15.6953 19.8672C11.8234 19.9469 9.325 18.3016 9.325 15.7234ZM11.7531 23.7016C11.8422 23.3969 12.1609 23.2188 12.4656 23.3031C12.775 23.3828 12.9578 23.6969 12.8828 24.0062L12.8781 24.0203L12.3109 26.1344L12.2313 26.1016C11.8881 25.9736 11.5517 25.8281 11.2234 25.6656L11.7484 23.7156L11.7531 23.7016ZM15.0156 22.2719C15.1047 21.9672 15.4234 21.7891 15.7328 21.8734C15.8108 21.8948 15.8836 21.932 15.9465 21.9828C16.0095 22.0337 16.0612 22.097 16.0984 22.1688L16.1172 22.2531L16.1453 22.3891L16.1641 22.4875L16.1594 22.5109L16.1453 22.5766V22.5906L15.3484 25.5437L15.3438 25.5578C15.2968 25.7 15.1971 25.8188 15.0653 25.8898C14.9334 25.9608 14.7794 25.9787 14.6348 25.9397C14.4902 25.9007 14.3661 25.8078 14.2878 25.6801C14.2096 25.5524 14.1832 25.3997 14.2141 25.2531V25.2391L15.0109 22.2859L15.0156 22.2719ZM10.1406 18.9203L10.1781 18.8312C10.4734 19.0891 10.8156 19.3234 11.1906 19.5203L10.4688 22.2016L10.4641 22.2156C10.4192 22.361 10.3196 22.4833 10.1862 22.5566C10.0528 22.6298 9.89614 22.6483 9.74937 22.6081C9.60259 22.5679 9.47721 22.4722 9.39976 22.3412C9.32231 22.2102 9.29886 22.0542 9.33438 21.9062L9.33906 21.8922L10.1359 18.9391L10.1406 18.9203ZM7.5625 15.8312C7.65156 15.5312 7.97031 15.3531 8.27969 15.4328C8.58438 15.5172 8.76719 15.8312 8.69219 16.1406V16.1547L7.89531 19.1078L7.89062 19.1219C7.84579 19.2673 7.74613 19.3896 7.61275 19.4628C7.47936 19.5361 7.3227 19.5546 7.17593 19.5144C7.02915 19.4742 6.90378 19.3785 6.82632 19.2475C6.74887 19.1165 6.72542 18.9605 6.76094 18.8125V18.7984L7.55781 15.8453L7.5625 15.8312ZM25.4313 15.1609C25.5203 14.8609 25.8391 14.6828 26.1438 14.7625C26.4531 14.8469 26.6359 15.1609 26.5609 15.4656V15.4844L25.7594 18.4375V18.4516C25.7183 18.602 25.6192 18.73 25.4839 18.8073C25.3485 18.8847 25.1879 18.9051 25.0375 18.8641C24.8871 18.823 24.7591 18.7239 24.6817 18.5886C24.6044 18.4532 24.584 18.2926 24.625 18.1422L24.6297 18.1281L25.4266 15.175L25.4313 15.1609ZM5.28906 14.7484C5.44783 13.3703 5.87289 12.0362 6.54063 10.8203C6.58808 10.8209 6.63529 10.8272 6.68125 10.8391C6.99062 10.9234 7.17344 11.2375 7.09844 11.5469L7.09375 11.5609L6.29688 14.5141L6.29219 14.5281C6.20312 14.8281 5.88438 15.0063 5.57969 14.9266C5.46719 14.8976 5.36596 14.8355 5.28906 14.7484ZM23.4109 11.2375C23.5047 10.9375 23.8188 10.7594 24.1281 10.8391C24.4328 10.9234 24.6203 11.2375 24.5453 11.5469L24.5406 11.5609L23.7438 14.5141L23.7391 14.5281C23.6942 14.6735 23.5946 14.7958 23.4612 14.8691C23.3278 14.9423 23.1711 14.9608 23.0244 14.9206C22.8776 14.8804 22.7522 14.7847 22.6748 14.6537C22.5973 14.5227 22.5739 14.3667 22.6094 14.2188L22.6141 14.2047L23.4109 11.2516V11.2375ZM16.8115 12.9852C16.6708 12.8446 16.4801 12.7656 16.2812 12.7656C16.0822 12.7656 15.8915 12.8446 15.7508 12.9852C15.6102 13.1259 15.5312 13.3167 15.5312 13.5156C15.5312 13.7145 15.6102 13.9053 15.7508 14.0459C15.8915 14.1866 16.0822 14.2656 16.2812 14.2656C16.4801 14.2656 16.6708 14.1866 16.8115 14.0459C16.9521 13.9053 17.0312 13.7145 17.0312 13.5156C17.0312 13.3167 16.9521 13.1259 16.8115 12.9852Z" fill="#1C1B1F"/>
</svg>
