<svg width="33" height="33" viewBox="0 0 33 33" fill="none" xmlns="http://www.w3.org/2000/svg">
<path fill-rule="evenodd" clip-rule="evenodd" d="M28.1029 6.85437H19.5315C19.0581 6.85437 18.6743 7.23813 18.6743 7.71151V24.8544C18.6743 25.3278 19.0581 25.7115 19.5315 25.7115H28.1029C28.5763 25.7115 28.96 25.3278 28.96 24.8544V7.71151C28.96 7.23813 28.5763 6.85437 28.1029 6.85437ZM21.103 10.283C21.103 9.73067 21.5507 9.28296 22.103 9.28296H25.5316C26.0839 9.28296 26.5316 9.73067 26.5316 10.283C26.5316 10.8352 26.0839 11.283 25.5316 11.283H22.103C21.5507 11.283 21.103 10.8352 21.103 10.283ZM22.103 12.7115C21.5507 12.7115 21.103 13.1592 21.103 13.7115C21.103 14.2638 21.5507 14.7115 22.103 14.7115H25.5316C26.0839 14.7115 26.5316 14.2638 26.5316 13.7115C26.5316 13.1592 26.0839 12.7115 25.5316 12.7115H22.103ZM23.817 23.1401C24.527 23.1401 25.1027 22.5645 25.1027 21.8544C25.1027 21.1443 24.527 20.5687 23.817 20.5687C23.1069 20.5687 22.5312 21.1443 22.5312 21.8544C22.5312 22.5645 23.1069 23.1401 23.817 23.1401ZM16.6959 10.1769H5.95996C5.40768 10.1769 4.95996 10.6247 4.95996 11.1769V20.3198C4.95996 20.8721 5.40768 21.3198 5.95996 21.3198H10.3276V21.3198V23.7483H8.75635C8.20406 23.7483 7.75635 24.196 7.75635 24.7483C7.75635 25.3006 8.20406 25.7483 8.75635 25.7483H11.3129L11.3276 25.7484L11.3424 25.7483H13.8992C14.4515 25.7483 14.8992 25.3006 14.8992 24.7483C14.8992 24.196 14.4515 23.7483 13.8992 23.7483H12.3276V21.3198V21.3198H16.6959C17.2481 21.3198 17.6959 20.8721 17.6959 20.3198V11.1769C17.6959 10.6247 17.2481 10.1769 16.6959 10.1769Z" fill="#1C1B1F"/>
</svg>
