<svg width="33" height="33" viewBox="0 0 33 33" fill="none" xmlns="http://www.w3.org/2000/svg">
<path fill-rule="evenodd" clip-rule="evenodd" d="M4.95996 4.2829C4.40768 4.2829 3.95996 4.73061 3.95996 5.2829V23.2829C3.95996 23.8352 4.40768 24.2829 4.95996 24.2829H15.96V26.2829H12.96C12.4077 26.2829 11.96 26.7306 11.96 27.2829C11.96 27.8352 12.4077 28.2829 12.96 28.2829H16.96H20.96C21.5122 28.2829 21.96 27.8352 21.96 27.2829C21.96 26.7306 21.5122 26.2829 20.96 26.2829H17.96V24.2829H28.96C29.5122 24.2829 29.96 23.8352 29.96 23.2829V5.2829C29.96 4.73061 29.5122 4.2829 28.96 4.2829H4.95996ZM16.96 22.2829H27.96V18.2829H5.95996V22.2829H16.96Z" fill="#1C1B1F"/>
</svg>
