<svg width="32" height="32" viewBox="0 0 32 32" fill="none" xmlns="http://www.w3.org/2000/svg">
<path fill-rule="evenodd" clip-rule="evenodd" d="M1.00098 1.25079C0.448692 1.25079 0.000976562 1.69851 0.000976562 2.25079V24.7494C0.000976562 25.3017 0.448692 25.7494 1.00098 25.7494H15V28.7491H11.0004C10.4481 28.7491 10.0004 29.1968 10.0004 29.7491C10.0004 30.3014 10.4481 30.7491 11.0004 30.7491H15.9884L16 30.7492L16.0117 30.7491H20.9997C21.552 30.7491 21.9997 30.3014 21.9997 29.7491C21.9997 29.1968 21.552 28.7491 20.9997 28.7491H17V25.7494H30.9991C31.5514 25.7494 31.9991 25.3017 31.9991 24.7494V2.25079C31.9991 1.69851 31.5514 1.25079 30.9991 1.25079H1.00098ZM2.00098 18.4998V23.7494H29.9991V18.4998H2.00098Z" fill="#111827"/>
</svg>
