<svg width="32" height="32" viewBox="0 0 32 32" fill="none" xmlns="http://www.w3.org/2000/svg">
<path fill-rule="evenodd" clip-rule="evenodd" d="M30.8571 3.42859H19.4286C18.7974 3.42859 18.2858 3.94026 18.2858 4.57144V27.4285C18.2858 28.0597 18.7974 28.5714 19.4286 28.5714H30.8571C31.4883 28.5714 32 28.0597 32 27.4285V4.57144C32 3.94026 31.4883 3.42859 30.8571 3.42859ZM21.8575 8.00003C21.8575 7.44774 22.3052 7.00003 22.8575 7.00003H27.4289C27.9812 7.00003 28.4289 7.44774 28.4289 8.00003C28.4289 8.55231 27.9812 9.00003 27.4289 9.00003H22.8575C22.3052 9.00003 21.8575 8.55231 21.8575 8.00003ZM22.8575 11.5714C22.3052 11.5714 21.8575 12.0191 21.8575 12.5714C21.8575 13.1237 22.3052 13.5714 22.8575 13.5714H27.4289C27.9812 13.5714 28.4289 13.1237 28.4289 12.5714C28.4289 12.0191 27.9812 11.5714 27.4289 11.5714H22.8575ZM25.1427 25.1428C26.0895 25.1428 26.857 24.3753 26.857 23.4285C26.857 22.4818 26.0895 21.7143 25.1427 21.7143C24.1959 21.7143 23.4284 22.4818 23.4284 23.4285C23.4284 24.3753 24.1959 25.1428 25.1427 25.1428ZM15.9811 7.85867H1C0.447715 7.85867 0 8.30639 0 8.85867V21.7158C0 22.2681 0.447714 22.7158 0.999999 22.7158H7.49021V22.7158V26.2871H5.06183C4.50955 26.2871 4.06183 26.7348 4.06183 27.2871C4.06183 27.8394 4.50955 28.2871 5.06183 28.2871H8.47335L8.49021 28.2872L8.50707 28.2871H11.919C12.4712 28.2871 12.919 27.8394 12.919 27.2871C12.919 26.7348 12.4712 26.2871 11.919 26.2871H9.49021V22.7158V22.7158H15.9811C16.5334 22.7158 16.9811 22.2681 16.9811 21.7158V8.85867C16.9811 8.30639 16.5334 7.85867 15.9811 7.85867Z" fill="#111827"/>
</svg>
