<svg width="32" height="32" viewBox="0 0 32 32" fill="none" xmlns="http://www.w3.org/2000/svg">
<path fill-rule="evenodd" clip-rule="evenodd" d="M4.80409 14.7132V9.67831C4.80409 5.65338 8.12262 1.07881 10.8667 4.0233C11.2729 4.45919 11.6431 4.94336 12.01 5.42323C13.0889 6.83448 14.1395 8.2086 15.9956 8.2086C17.8429 8.2086 18.8076 6.91482 19.8159 5.56241C20.0952 5.1879 20.3778 4.80889 20.6834 4.45162C23.4706 1.19331 27.1871 5.92134 27.1871 10.2091V14.7132H31C31.5523 14.7132 32 15.1609 32 15.7132C32 16.2655 31.5523 16.7132 31 16.7132H1.00049C0.448204 16.7132 0.000488281 16.2655 0.000488281 15.7132C0.000488281 15.1609 0.448204 14.7132 1.00049 14.7132H4.80409ZM12.284 25.7092C11.8372 27.5485 10.1793 28.9142 8.20257 28.9142C5.88301 28.9142 4.00264 27.0338 4.00264 24.7143C4.00264 22.3947 5.88301 20.5143 8.20257 20.5143C10.1802 20.5143 11.8386 21.8812 12.2845 23.7217C12.3213 23.7176 12.3587 23.7155 12.3966 23.7155H19.5965C19.6377 23.7155 19.6783 23.718 19.7181 23.7228C20.1637 21.8817 21.8223 20.5143 23.8004 20.5143C26.1199 20.5143 28.0003 22.3947 28.0003 24.7143C28.0003 27.0338 26.1199 28.9142 23.8004 28.9142C21.8232 28.9142 20.1651 27.548 19.7187 25.7081C19.6787 25.713 19.6379 25.7155 19.5965 25.7155H12.3966C12.3585 25.7155 12.321 25.7133 12.284 25.7092Z" fill="#111827"/>
</svg>
