<svg width="32" height="33" viewBox="0 0 32 33" fill="none" xmlns="http://www.w3.org/2000/svg">
<path fill-rule="evenodd" clip-rule="evenodd" d="M15.9053 2.52539C13.2668 2.52539 11.1279 4.66428 11.1279 7.30273C11.1279 9.94118 13.2668 12.0801 15.9053 12.0801C18.5437 12.0801 20.6826 9.94118 20.6826 7.30273C20.6826 4.66428 18.5437 2.52539 15.9053 2.52539ZM9.12793 7.30273C9.12793 3.55971 12.1622 0.525391 15.9053 0.525391C19.6483 0.525391 22.6826 3.55971 22.6826 7.30273C22.6826 9.65052 21.4888 11.7195 19.6751 12.9357C21.2869 13.7103 22.6232 14.9658 23.4981 16.5148C23.5336 16.5777 23.5616 16.6427 23.5823 16.709H31.5C31.7761 16.709 32 16.9328 32 17.209V31.9748C32 32.2509 31.7761 32.4748 31.5 32.4748H0.5C0.223858 32.4748 0 32.2509 0 31.9748V17.209C0 16.9328 0.223858 16.709 0.5 16.709H8.23448C8.25612 16.6324 8.28731 16.5571 8.32851 16.4849C9.20374 14.9495 10.5334 13.7051 12.1351 12.9355C10.3216 11.7192 9.12793 9.65036 9.12793 7.30273ZM10.5753 16.709H21.2343C20.0058 15.1091 18.075 14.0801 15.9048 14.0801C13.7347 14.0801 11.8039 15.1091 10.5753 16.709ZM17.7994 19.5676C18.3197 19.7527 18.5915 20.3245 18.4064 20.8449L15.5022 29.0092C15.3171 29.5295 14.7453 29.8013 14.2249 29.6162C13.7046 29.4311 13.4328 28.8592 13.6179 28.3389L16.5221 20.1746C16.7072 19.6543 17.2791 19.3825 17.7994 19.5676ZM13.0456 21.6062C13.4404 21.9924 13.4473 22.6255 13.0611 23.0203L11.8654 24.2426C11.6753 24.437 11.6753 24.7476 11.8654 24.9419L13.0611 26.1642C13.4473 26.559 13.4404 27.1922 13.0456 27.5784C12.6508 27.9646 12.0177 27.9576 11.6315 27.5628L9.40967 25.2916C9.02946 24.9029 9.02946 24.2817 9.40967 23.893L11.6315 21.6218C12.0177 21.227 12.6508 21.22 13.0456 21.6062ZM20.3926 21.6218C20.0064 21.227 19.3733 21.22 18.9785 21.6062C18.5837 21.9924 18.5767 22.6255 18.9629 23.0203L20.1586 24.2426C20.3487 24.437 20.3487 24.7476 20.1586 24.9419L18.9629 26.1642C18.5767 26.559 18.5837 27.1922 18.9785 27.5784C19.3733 27.9646 20.0064 27.9576 20.3926 27.5628L22.6144 25.2916C22.9946 24.9029 22.9946 24.2817 22.6144 23.893L20.3926 21.6218Z" fill="#111827"/>
</svg>
