<svg width="33" height="33" viewBox="0 0 33 33" fill="none" xmlns="http://www.w3.org/2000/svg">
<path fill-rule="evenodd" clip-rule="evenodd" d="M8.95996 4.2829C7.85539 4.2829 6.95996 5.17833 6.95996 6.2829V26.2829C6.95996 27.3875 7.85539 28.2829 8.95996 28.2829H24.9599C26.0645 28.2829 26.9599 27.3875 26.9599 26.2829V6.2829C26.9599 5.17833 26.0645 4.2829 24.9599 4.2829H8.95996ZM12.96 7.2829C12.4077 7.2829 11.96 7.73061 11.96 8.2829C11.96 8.83518 12.4077 9.2829 12.96 9.2829H20.96C21.5122 9.2829 21.96 8.83518 21.96 8.2829C21.96 7.73061 21.5122 7.2829 20.96 7.2829H12.96Z" fill="#1C1B1F"/>
</svg>
