<svg width="32" height="32" viewBox="0 0 32 32" fill="none" xmlns="http://www.w3.org/2000/svg">
<path fill-rule="evenodd" clip-rule="evenodd" d="M8.15381 0C7.04924 0 6.15381 0.895431 6.15381 2V3.9231H25.8461V2C25.8461 0.895431 24.9507 0 23.8461 0H8.15381ZM6.15381 23.5129V5.9231H25.8461V23.5129H6.15381ZM6.15381 25.5129V30C6.15381 31.1046 7.04924 32 8.15381 32H23.8461C24.9507 32 25.8461 31.1046 25.8461 30V25.5129H6.15381ZM14.0685 27.2612C13.5162 27.2612 13.0685 27.7089 13.0685 28.2612C13.0685 28.8135 13.5162 29.2612 14.0685 29.2612H17.9312C18.4835 29.2612 18.9312 28.8135 18.9312 28.2612C18.9312 27.7089 18.4835 27.2612 17.9312 27.2612H14.0685Z" fill="#111827"/>
</svg>
