<svg width="32" height="32" viewBox="0 0 32 32" fill="none" xmlns="http://www.w3.org/2000/svg">
<path fill-rule="evenodd" clip-rule="evenodd" d="M4.66699 0C3.56242 0 2.66699 0.895431 2.66699 2V3.9231H29.3336V2C29.3336 0.895431 28.4382 0 27.3336 0H4.66699ZM2.66699 23.5129V5.9231H29.3336V23.5129H2.66699ZM2.66699 25.5129V30C2.66699 31.1046 3.56242 32 4.66699 32H27.3336C28.4382 32 29.3336 31.1046 29.3336 30V25.5129H2.66699ZM13.3851 27.2612C12.8328 27.2612 12.3851 27.7089 12.3851 28.2612C12.3851 28.8135 12.8328 29.2612 13.3851 29.2612H18.6159C19.1681 29.2612 19.6159 28.8135 19.6159 28.2612C19.6159 27.7089 19.1681 27.2612 18.6159 27.2612H13.3851Z" fill="#111827"/>
</svg>
