<svg width="32" height="32" viewBox="0 0 32 32" fill="none" xmlns="http://www.w3.org/2000/svg">
<path fill-rule="evenodd" clip-rule="evenodd" d="M8.15381 0C7.04924 0 6.15381 0.895431 6.15381 2V30C6.15381 31.1046 7.04924 32 8.15381 32H23.8461C24.9507 32 25.8461 31.1046 25.8461 30V2C25.8461 0.895431 24.9507 0 23.8461 0H8.15381ZM10.6668 4.33333C10.1145 4.33333 9.66683 4.78105 9.66683 5.33333C9.66683 5.88562 10.1145 6.33333 10.6668 6.33333H21.3335C21.8858 6.33333 22.3335 5.88562 22.3335 5.33333C22.3335 4.78105 21.8858 4.33333 21.3335 4.33333H10.6668Z" fill="#111827"/>
</svg>
