<svg width="33" height="33" viewBox="0 0 33 33" fill="none" xmlns="http://www.w3.org/2000/svg">
<path fill-rule="evenodd" clip-rule="evenodd" d="M11.5752 4.2829C10.4706 4.2829 9.5752 5.17833 9.5752 6.2829V26.2829C9.5752 27.3875 10.4706 28.2829 11.5752 28.2829H22.3444C23.449 28.2829 24.3444 27.3875 24.3444 26.2829V6.2829C24.3444 5.17833 23.449 4.2829 22.3444 4.2829H11.5752ZM12.96 7.2829C12.4077 7.2829 11.96 7.73061 11.96 8.2829C11.96 8.83518 12.4077 9.2829 12.96 9.2829H20.96C21.5122 9.2829 21.96 8.83518 21.96 8.2829C21.96 7.73061 21.5122 7.2829 20.96 7.2829H12.96Z" fill="#1C1B1F"/>
</svg>
