<svg width="33" height="33" viewBox="0 0 33 33" fill="none" xmlns="http://www.w3.org/2000/svg">
<path fill-rule="evenodd" clip-rule="evenodd" d="M11.5752 4.2829C10.4706 4.2829 9.5752 5.17833 9.5752 6.2829V6.97522H24.3444V6.2829C24.3444 5.17833 23.449 4.2829 22.3444 4.2829H11.5752ZM9.5752 21.6675V8.97522H24.3444V21.6675H9.5752ZM9.5752 23.6675V26.2829C9.5752 27.3875 10.4706 28.2829 11.5752 28.2829H22.3444C23.449 28.2829 24.3444 27.3875 24.3444 26.2829V23.6675H9.5752ZM15.5112 24.4788C14.9589 24.4788 14.5112 24.9265 14.5112 25.4788C14.5112 26.0311 14.9589 26.4788 15.5112 26.4788H18.4083C18.9606 26.4788 19.4083 26.0311 19.4083 25.4788C19.4083 24.9265 18.9606 24.4788 18.4083 24.4788H15.5112Z" fill="#1C1B1F"/>
</svg>
