<svg width="32" height="32" viewBox="0 0 32 32" fill="none" xmlns="http://www.w3.org/2000/svg">
<path fill-rule="evenodd" clip-rule="evenodd" d="M4.66699 0C3.56242 0 2.66699 0.895431 2.66699 2V30C2.66699 31.1046 3.56242 32 4.66699 32H27.3336C28.4382 32 29.3336 31.1046 29.3336 30V2C29.3336 0.895431 28.4382 0 27.3336 0H4.66699ZM10.667 4.33333C10.1147 4.33333 9.66699 4.78105 9.66699 5.33333C9.66699 5.88562 10.1147 6.33333 10.667 6.33333H21.3337C21.8859 6.33333 22.3337 5.88562 22.3337 5.33333C22.3337 4.78105 21.8859 4.33333 21.3337 4.33333H10.667Z" fill="#111827"/>
</svg>
