<svg width="33" height="33" viewBox="0 0 33 33" fill="none" xmlns="http://www.w3.org/2000/svg">
<path fill-rule="evenodd" clip-rule="evenodd" d="M8.95996 4.2829C7.85539 4.2829 6.95996 5.17833 6.95996 6.2829V6.97522H26.9599V6.2829C26.9599 5.17833 26.0645 4.2829 24.9599 4.2829H8.95996ZM6.95996 21.6675V8.97522H26.9599V21.6675H6.95996ZM6.95996 23.6675V26.2829C6.95996 27.3875 7.85539 28.2829 8.95996 28.2829H24.9599C26.0645 28.2829 26.9599 27.3875 26.9599 26.2829V23.6675H6.95996ZM14.9985 24.4788C14.4463 24.4788 13.9985 24.9265 13.9985 25.4788C13.9985 26.0311 14.4463 26.4788 14.9985 26.4788H18.9216C19.4739 26.4788 19.9216 26.0311 19.9216 25.4788C19.9216 24.9265 19.4739 24.4788 18.9216 24.4788H14.9985Z" fill="#1C1B1F"/>
</svg>
