<svg width="34" height="34" viewBox="0 0 34 34" fill="none" xmlns="http://www.w3.org/2000/svg">
<path fill-rule="evenodd" clip-rule="evenodd" d="M10.9971 6.53074C10.8018 6.726 10.8018 7.04258 10.9971 7.23784L16.5884 12.8291C16.7836 13.0244 17.1002 13.0244 17.2955 12.8291L22.8868 7.23784C23.082 7.04258 23.082 6.726 22.8868 6.53074L17.2955 0.939454C17.1002 0.744192 16.7836 0.744192 16.5884 0.939454L10.9971 6.53074ZM10.9971 26.7623C10.8018 26.9575 10.8018 27.2741 10.9971 27.4694L16.5884 33.0607C16.7836 33.2559 17.1002 33.2559 17.2955 33.0607L22.8868 27.4694C23.082 27.2741 23.082 26.9575 22.8868 26.7623L17.2955 21.171C17.1002 20.9757 16.7836 20.9757 16.5884 21.171L10.9971 26.7623ZM21.171 17.4034C20.9758 17.2081 20.9758 16.8915 21.171 16.6963L26.7623 11.105C26.9576 10.9097 27.2742 10.9097 27.4694 11.105L33.0607 16.6963C33.256 16.8915 33.256 17.2081 33.0607 17.4034L27.4694 22.9946C27.2742 23.1899 26.9576 23.1899 26.7623 22.9946L21.171 17.4034ZM0.939387 16.6963C0.744125 16.8915 0.744125 17.2081 0.939387 17.4034L6.53067 22.9946C6.72593 23.1899 7.04252 23.1899 7.23778 22.9946L12.8291 17.4034C13.0243 17.2081 13.0243 16.8915 12.8291 16.6963L7.23778 11.105C7.04252 10.9097 6.72593 10.9097 6.53067 11.105L0.939387 16.6963Z" fill="#111827"/>
</svg>
