<svg width="33" height="33" viewBox="0 0 33 33" fill="none" xmlns="http://www.w3.org/2000/svg">
<path fill-rule="evenodd" clip-rule="evenodd" d="M13.0199 8.18031C12.6294 8.57084 12.6294 9.204 13.0199 9.59453L16.2103 12.7849C16.6009 13.1754 17.234 13.1754 17.6246 12.7849L20.815 9.59453C21.2055 9.204 21.2055 8.57084 20.815 8.18031L17.6246 4.98991C17.234 4.59939 16.6009 4.59939 16.2103 4.98991L13.0199 8.18031ZM13.0199 22.9711C12.6294 23.3616 12.6294 23.9948 13.0199 24.3853L16.2103 27.5757C16.6009 27.9662 17.234 27.9662 17.6246 27.5757L20.815 24.3853C21.2055 23.9948 21.2055 23.3616 20.815 22.9711L17.6246 19.7807C17.234 19.3902 16.6009 19.3902 16.2103 19.7807L13.0199 22.9711ZM20.4579 17.0263C20.0674 16.6358 20.0674 16.0026 20.4579 15.6121L23.6483 12.4217C24.0389 12.0312 24.672 12.0312 25.0625 12.4217L28.2529 15.6121C28.6435 16.0026 28.6435 16.6358 28.2529 17.0263L25.0625 20.2167C24.672 20.6072 24.0389 20.6072 23.6483 20.2167L20.4579 17.0263ZM5.66692 15.6121C5.27639 16.0026 5.27639 16.6358 5.66692 17.0263L8.85731 20.2167C9.24784 20.6072 9.881 20.6072 10.2715 20.2167L13.4619 17.0263C13.8524 16.6358 13.8524 16.0026 13.4619 15.6121L10.2715 12.4217C9.881 12.0312 9.24784 12.0312 8.85731 12.4217L5.66692 15.6121Z" fill="#1C1B1F"/>
</svg>
