<svg width="32" height="32" viewBox="0 0 32 32" fill="none" xmlns="http://www.w3.org/2000/svg">
<path fill-rule="evenodd" clip-rule="evenodd" d="M10.3506 5.17731C9.96007 5.56784 9.96007 6.201 10.3506 6.59153L15.2348 11.4757C15.6253 11.8662 16.2585 11.8662 16.649 11.4757L21.5332 6.59153C21.9237 6.201 21.9237 5.56784 21.5332 5.17731L16.649 0.293137C16.2585 -0.0973875 15.6253 -0.0973864 15.2348 0.293138L10.3506 5.17731ZM10.3506 25.4088C9.96007 25.7994 9.96007 26.4325 10.3506 26.8231L15.2348 31.7072C15.6253 32.0978 16.2585 32.0978 16.649 31.7072L21.5332 26.8231C21.9237 26.4325 21.9237 25.7994 21.5332 25.4088L16.649 20.5247C16.2585 20.1341 15.6253 20.1341 15.2348 20.5247L10.3506 25.4088ZM20.5245 16.757C20.134 16.3665 20.134 15.7334 20.5245 15.3428L25.4087 10.4587C25.7992 10.0681 26.4324 10.0681 26.8229 10.4587L31.7071 15.3428C32.0976 15.7334 32.0976 16.3665 31.7071 16.757L26.8229 21.6412C26.4324 22.0317 25.7992 22.0317 25.4087 21.6412L20.5245 16.757ZM0.292893 15.3428C-0.0976316 15.7334 -0.0976305 16.3665 0.292894 16.757L5.17707 21.6412C5.56759 22.0317 6.20076 22.0317 6.59128 21.6412L11.4755 16.757C11.866 16.3665 11.866 15.7334 11.4755 15.3428L6.59128 10.4587C6.20076 10.0681 5.56759 10.0681 5.17707 10.4587L0.292893 15.3428Z" fill="#111827"/>
</svg>
