<svg width="32" height="32" viewBox="0 0 32 32" fill="none" xmlns="http://www.w3.org/2000/svg">
<path fill-rule="evenodd" clip-rule="evenodd" d="M0 1C0 0.447715 0.447715 0 1 0H31C31.5523 0 32 0.447715 32 1V31C32 31.5523 31.5523 32 31 32H1C0.447715 32 0 31.5523 0 31V1ZM12.6667 14.6667C13.7712 14.6667 14.6667 13.7712 14.6667 12.6667C14.6667 11.5621 13.7712 10.6667 12.6667 10.6667C11.5621 10.6667 10.6667 11.5621 10.6667 12.6667C10.6667 13.7712 11.5621 14.6667 12.6667 14.6667ZM21.3333 19.3333C21.3333 20.4379 20.4379 21.3333 19.3333 21.3333C18.2288 21.3333 17.3333 20.4379 17.3333 19.3333C17.3333 18.2288 18.2288 17.3333 19.3333 17.3333C20.4379 17.3333 21.3333 18.2288 21.3333 19.3333Z" fill="#111827"/>
</svg>
