<svg width="32" height="33" viewBox="0 0 32 33" fill="none" xmlns="http://www.w3.org/2000/svg">
<path fill-rule="evenodd" clip-rule="evenodd" d="M0 1.5C0 0.947715 0.447715 0.5 1 0.5H31C31.5523 0.5 32 0.947715 32 1.5V31.5C32 32.0523 31.5523 32.5 31 32.5H1C0.447715 32.5 0 32.0523 0 31.5V1.5ZM12.6667 15.1667C13.7712 15.1667 14.6667 14.2712 14.6667 13.1667C14.6667 12.0621 13.7712 11.1667 12.6667 11.1667C11.5621 11.1667 10.6667 12.0621 10.6667 13.1667C10.6667 14.2712 11.5621 15.1667 12.6667 15.1667ZM21.3333 19.8333C21.3333 20.9379 20.4379 21.8333 19.3333 21.8333C18.2288 21.8333 17.3333 20.9379 17.3333 19.8333C17.3333 18.7288 18.2288 17.8333 19.3333 17.8333C20.4379 17.8333 21.3333 18.7288 21.3333 19.8333Z" fill="#111827"/>
</svg>
