<svg width="32" height="32" viewBox="0 0 32 32" fill="none" xmlns="http://www.w3.org/2000/svg">
<path fill-rule="evenodd" clip-rule="evenodd" d="M0 1C0 0.447715 0.447715 0 1 0H31C31.5523 0 32 0.447715 32 1V31C32 31.5523 31.5523 32 31 32H1C0.447715 32 0 31.5523 0 31V1ZM10 10.6667C11.1046 10.6667 12 9.77124 12 8.66667C12 7.5621 11.1046 6.66667 10 6.66667C8.89543 6.66667 8 7.5621 8 8.66667C8 9.77124 8.89543 10.6667 10 10.6667ZM24 8.66667C24 9.77124 23.1046 10.6667 22 10.6667C20.8954 10.6667 20 9.77124 20 8.66667C20 7.5621 20.8954 6.66667 22 6.66667C23.1046 6.66667 24 7.5621 24 8.66667ZM10 18C11.1046 18 12 17.1046 12 16C12 14.8954 11.1046 14 10 14C8.89543 14 8 14.8954 8 16C8 17.1046 8.89543 18 10 18ZM24 16C24 17.1046 23.1046 18 22 18C20.8954 18 20 17.1046 20 16C20 14.8954 20.8954 14 22 14C23.1046 14 24 14.8954 24 16ZM10 25.3333C11.1046 25.3333 12 24.4379 12 23.3333C12 22.2288 11.1046 21.3333 10 21.3333C8.89543 21.3333 8 22.2288 8 23.3333C8 24.4379 8.89543 25.3333 10 25.3333ZM24 23.3333C24 24.4379 23.1046 25.3333 22 25.3333C20.8954 25.3333 20 24.4379 20 23.3333C20 22.2288 20.8954 21.3333 22 21.3333C23.1046 21.3333 24 22.2288 24 23.3333Z" fill="#111827"/>
</svg>
