<svg width="32" height="33" viewBox="0 0 32 33" fill="none" xmlns="http://www.w3.org/2000/svg">
<path fill-rule="evenodd" clip-rule="evenodd" d="M0 1.5C0 0.947715 0.447715 0.5 1 0.5H31C31.5523 0.5 32 0.947715 32 1.5V31.5C32 32.0523 31.5523 32.5 31 32.5H1C0.447715 32.5 0 32.0523 0 31.5V1.5ZM11.3333 13.8333C12.4379 13.8333 13.3333 12.9379 13.3333 11.8333C13.3333 10.7288 12.4379 9.83333 11.3333 9.83333C10.2288 9.83333 9.33333 10.7288 9.33333 11.8333C9.33333 12.9379 10.2288 13.8333 11.3333 13.8333ZM22.6667 11.8333C22.6667 12.9379 21.7712 13.8333 20.6667 13.8333C19.5621 13.8333 18.6667 12.9379 18.6667 11.8333C18.6667 10.7288 19.5621 9.83333 20.6667 9.83333C21.7712 9.83333 22.6667 10.7288 22.6667 11.8333ZM11.3333 23.1667C12.4379 23.1667 13.3333 22.2712 13.3333 21.1667C13.3333 20.0621 12.4379 19.1667 11.3333 19.1667C10.2288 19.1667 9.33333 20.0621 9.33333 21.1667C9.33333 22.2712 10.2288 23.1667 11.3333 23.1667ZM22.6667 21.1667C22.6667 22.2712 21.7712 23.1667 20.6667 23.1667C19.5621 23.1667 18.6667 22.2712 18.6667 21.1667C18.6667 20.0621 19.5621 19.1667 20.6667 19.1667C21.7712 19.1667 22.6667 20.0621 22.6667 21.1667Z" fill="#111827"/>
</svg>
