<svg width="32" height="33" viewBox="0 0 32 33" fill="none" xmlns="http://www.w3.org/2000/svg">
<path fill-rule="evenodd" clip-rule="evenodd" d="M32 1.5C32 0.947715 31.5523 0.5 31 0.5H1C0.447715 0.5 0 0.947715 0 1.5V31.5C0 32.0523 0.447715 32.5 1 32.5H31C31.5523 32.5 32 32.0523 32 31.5V1.5ZM12 10.5C12 11.6046 11.1046 12.5 10 12.5C8.89543 12.5 8 11.6046 8 10.5C8 9.39543 8.89543 8.5 10 8.5C11.1046 8.5 12 9.39543 12 10.5ZM22 12.5C23.1046 12.5 24 11.6046 24 10.5C24 9.39543 23.1046 8.5 22 8.5C20.8954 8.5 20 9.39543 20 10.5C20 11.6046 20.8954 12.5 22 12.5ZM12 22.5C12 23.6046 11.1046 24.5 10 24.5C8.89543 24.5 8 23.6046 8 22.5C8 21.3954 8.89543 20.5 10 20.5C11.1046 20.5 12 21.3954 12 22.5ZM16 18.5C17.1046 18.5 18 17.6046 18 16.5C18 15.3954 17.1046 14.5 16 14.5C14.8954 14.5 14 15.3954 14 16.5C14 17.6046 14.8954 18.5 16 18.5ZM24 22.5C24 23.6046 23.1046 24.5 22 24.5C20.8954 24.5 20 23.6046 20 22.5C20 21.3954 20.8954 20.5 22 20.5C23.1046 20.5 24 21.3954 24 22.5Z" fill="#111827"/>
</svg>
