<svg width="33" height="33" viewBox="0 0 33 33" fill="none" xmlns="http://www.w3.org/2000/svg">
<path fill-rule="evenodd" clip-rule="evenodd" d="M4.95996 5.28296C4.95996 4.73067 5.40768 4.28296 5.95996 4.28296H27.96C28.5122 4.28296 28.96 4.73067 28.96 5.28296V27.283C28.96 27.8352 28.5122 28.283 27.96 28.283H5.95996C5.40768 28.283 4.95996 27.8352 4.95996 27.283V5.28296ZM13.46 14.283C14.2884 14.283 14.96 13.6114 14.96 12.783C14.96 11.9545 14.2884 11.283 13.46 11.283C12.6315 11.283 11.96 11.9545 11.96 12.783C11.96 13.6114 12.6315 14.283 13.46 14.283ZM21.96 12.783C21.96 13.6114 21.2884 14.283 20.46 14.283C19.6315 14.283 18.96 13.6114 18.96 12.783C18.96 11.9545 19.6315 11.283 20.46 11.283C21.2884 11.283 21.96 11.9545 21.96 12.783ZM13.46 21.283C14.2884 21.283 14.96 20.6114 14.96 19.783C14.96 18.9545 14.2884 18.283 13.46 18.283C12.6315 18.283 11.96 18.9545 11.96 19.783C11.96 20.6114 12.6315 21.283 13.46 21.283ZM21.96 19.783C21.96 20.6114 21.2884 21.283 20.46 21.283C19.6315 21.283 18.96 20.6114 18.96 19.783C18.96 18.9545 19.6315 18.283 20.46 18.283C21.2884 18.283 21.96 18.9545 21.96 19.783Z" fill="#1C1B1F"/>
</svg>
