<svg width="33" height="33" viewBox="0 0 33 33" fill="none" xmlns="http://www.w3.org/2000/svg">
<path fill-rule="evenodd" clip-rule="evenodd" d="M28.96 5.28296C28.96 4.73067 28.5122 4.28296 27.96 4.28296H5.95996C5.40768 4.28296 4.95996 4.73067 4.95996 5.28296V27.283C4.95996 27.8352 5.40768 28.283 5.95996 28.283H27.96C28.5122 28.283 28.96 27.8352 28.96 27.283V5.28296ZM13.96 11.783C13.96 12.6114 13.2884 13.283 12.46 13.283C11.6315 13.283 10.96 12.6114 10.96 11.783C10.96 10.9545 11.6315 10.283 12.46 10.283C13.2884 10.283 13.96 10.9545 13.96 11.783ZM16.96 17.783C17.7884 17.783 18.46 17.1114 18.46 16.283C18.46 15.4545 17.7884 14.783 16.96 14.783C16.1315 14.783 15.46 15.4545 15.46 16.283C15.46 17.1114 16.1315 17.783 16.96 17.783ZM22.96 20.783C22.96 21.6114 22.2884 22.283 21.46 22.283C20.6315 22.283 19.96 21.6114 19.96 20.783C19.96 19.9545 20.6315 19.283 21.46 19.283C22.2884 19.283 22.96 19.9545 22.96 20.783Z" fill="#1C1B1F"/>
</svg>
