<svg width="33" height="33" viewBox="0 0 33 33" fill="none" xmlns="http://www.w3.org/2000/svg">
<path fill-rule="evenodd" clip-rule="evenodd" d="M4.95996 5.28296C4.95996 4.73067 5.40768 4.28296 5.95996 4.28296H27.96C28.5122 4.28296 28.96 4.73067 28.96 5.28296V27.283C28.96 27.8352 28.5122 28.283 27.96 28.283H5.95996C5.40768 28.283 4.95996 27.8352 4.95996 27.283V5.28296ZM12.46 12.283C13.2884 12.283 13.96 11.6114 13.96 10.783C13.96 9.95453 13.2884 9.28296 12.46 9.28296C11.6315 9.28296 10.96 9.95453 10.96 10.783C10.96 11.6114 11.6315 12.283 12.46 12.283ZM22.96 10.783C22.96 11.6114 22.2884 12.283 21.46 12.283C20.6315 12.283 19.96 11.6114 19.96 10.783C19.96 9.95453 20.6315 9.28296 21.46 9.28296C22.2884 9.28296 22.96 9.95453 22.96 10.783ZM12.46 17.783C13.2884 17.783 13.96 17.1114 13.96 16.283C13.96 15.4545 13.2884 14.783 12.46 14.783C11.6315 14.783 10.96 15.4545 10.96 16.283C10.96 17.1114 11.6315 17.783 12.46 17.783ZM22.96 16.283C22.96 17.1114 22.2884 17.783 21.46 17.783C20.6315 17.783 19.96 17.1114 19.96 16.283C19.96 15.4545 20.6315 14.783 21.46 14.783C22.2884 14.783 22.96 15.4545 22.96 16.283ZM12.46 23.283C13.2884 23.283 13.96 22.6114 13.96 21.783C13.96 20.9545 13.2884 20.283 12.46 20.283C11.6315 20.283 10.96 20.9545 10.96 21.783C10.96 22.6114 11.6315 23.283 12.46 23.283ZM22.96 21.783C22.96 22.6114 22.2884 23.283 21.46 23.283C20.6315 23.283 19.96 22.6114 19.96 21.783C19.96 20.9545 20.6315 20.283 21.46 20.283C22.2884 20.283 22.96 20.9545 22.96 21.783Z" fill="#1C1B1F"/>
</svg>
