<svg width="32" height="33" viewBox="0 0 32 33" fill="none" xmlns="http://www.w3.org/2000/svg">
<path fill-rule="evenodd" clip-rule="evenodd" d="M0 1.5C0 0.947715 0.447715 0.5 1 0.5H31C31.5523 0.5 32 0.947715 32 1.5V31.5C32 32.0523 31.5523 32.5 31 32.5H1C0.447715 32.5 0 32.0523 0 31.5V1.5ZM10 11.1667C11.1046 11.1667 12 10.2712 12 9.16667C12 8.0621 11.1046 7.16667 10 7.16667C8.89543 7.16667 8 8.0621 8 9.16667C8 10.2712 8.89543 11.1667 10 11.1667ZM24 9.16667C24 10.2712 23.1046 11.1667 22 11.1667C20.8954 11.1667 20 10.2712 20 9.16667C20 8.0621 20.8954 7.16667 22 7.16667C23.1046 7.16667 24 8.0621 24 9.16667ZM10 18.5C11.1046 18.5 12 17.6046 12 16.5C12 15.3954 11.1046 14.5 10 14.5C8.89543 14.5 8 15.3954 8 16.5C8 17.6046 8.89543 18.5 10 18.5ZM24 16.5C24 17.6046 23.1046 18.5 22 18.5C20.8954 18.5 20 17.6046 20 16.5C20 15.3954 20.8954 14.5 22 14.5C23.1046 14.5 24 15.3954 24 16.5ZM10 25.8333C11.1046 25.8333 12 24.9379 12 23.8333C12 22.7288 11.1046 21.8333 10 21.8333C8.89543 21.8333 8 22.7288 8 23.8333C8 24.9379 8.89543 25.8333 10 25.8333ZM24 23.8333C24 24.9379 23.1046 25.8333 22 25.8333C20.8954 25.8333 20 24.9379 20 23.8333C20 22.7288 20.8954 21.8333 22 21.8333C23.1046 21.8333 24 22.7288 24 23.8333Z" fill="#111827"/>
</svg>
