<svg width="32" height="32" viewBox="0 0 32 32" fill="none" xmlns="http://www.w3.org/2000/svg">
<path fill-rule="evenodd" clip-rule="evenodd" d="M16 32C24.8366 32 32 24.8366 32 16C32 7.16344 24.8366 0 16 0C7.16608 0 0.00428251 7.15916 0 15.9921H6.08789C6.09217 10.5214 10.5283 6.08789 16 6.08789C21.4743 6.08789 25.9121 10.5257 25.9121 16C25.9121 21.4743 21.4743 25.9121 16 25.9121L15.9807 25.9121V32L16 32ZM15.9805 19.6054H9.79326V25.7926H15.9805V19.6054ZM9.79326 25.8127H5.03895V21.8368H1.06306V25.8127H5.03868V30.5673H9.79326V25.8127Z" fill="#111827"/>
</svg>
