<svg width="33" height="33" viewBox="0 0 33 33" fill="none" xmlns="http://www.w3.org/2000/svg">
<path fill-rule="evenodd" clip-rule="evenodd" d="M16.96 28.783C23.5874 28.783 28.96 23.4104 28.96 16.783C28.96 10.1555 23.5874 4.78296 16.96 4.78296C10.3325 4.78296 4.95996 10.1555 4.95996 16.783C4.95996 23.4104 10.3325 28.783 16.96 28.783ZM16.96 13.783C15.3031 13.783 13.96 15.1261 13.96 16.783C13.96 18.4398 15.3031 19.783 16.96 19.783C18.6168 19.783 19.96 18.4398 19.96 16.783C19.96 15.1261 18.6168 13.783 16.96 13.783ZM11.96 16.783C11.96 14.0215 14.1985 11.783 16.96 11.783C19.7214 11.783 21.96 14.0215 21.96 16.783C21.96 19.5444 19.7214 21.783 16.96 21.783C14.1985 21.783 11.96 19.5444 11.96 16.783ZM21.1275 8.46336C20.5831 8.37081 20.0667 8.73717 19.9741 9.28164C19.8816 9.82612 20.2479 10.3425 20.7924 10.4351C21.7182 10.5924 22.5722 11.0334 23.2367 11.697C23.9011 12.3606 24.3431 13.2141 24.5016 14.1397C24.5948 14.6841 25.1117 15.0498 25.656 14.9566C26.2004 14.8633 26.5661 14.3465 26.4729 13.8021C26.2445 12.4683 25.6075 11.2382 24.65 10.2819C23.6925 9.32557 22.4617 8.69014 21.1275 8.46336Z" fill="#1C1B1F"/>
</svg>
