<svg width="33" height="33" viewBox="0 0 33 33" fill="none" xmlns="http://www.w3.org/2000/svg">
<path fill-rule="evenodd" clip-rule="evenodd" d="M13.1718 8.62702L12.5492 7.11157C12.4396 6.8449 12.1412 6.7098 11.8685 6.8034L8.0855 8.102C7.9166 8.15997 7.78684 8.29706 7.73823 8.46889L3.98086 21.7494C3.92372 21.9513 3.98693 22.1685 4.14817 22.3028C5.5471 23.4684 8.51712 25.5088 11.3167 26.0787C11.5336 26.1229 11.7515 26.02 11.866 25.8306L12.6598 24.5178C12.73 24.3984 12.6602 24.2455 12.5243 24.2186C11.7746 24.0702 11.0325 23.8813 10.3011 23.6524C9.72697 23.4727 9.40719 22.8616 9.5869 22.2874C9.76661 21.7132 10.3778 21.3935 10.9519 21.5732C12.8403 22.1642 14.8091 22.458 16.7877 22.4442H16.803C18.7816 22.458 20.7504 22.1642 22.6388 21.5732C23.2129 21.3935 23.8241 21.7132 24.0038 22.2874C24.1835 22.8616 23.8637 23.4728 23.2895 23.6525C22.5903 23.8713 21.8811 24.0536 21.1649 24.1989C21.0278 24.2267 20.9587 24.3823 21.0317 24.5016L21.1862 24.7545L21.8238 25.7924C21.9515 26.0003 22.2014 26.0986 22.4346 26.0268C24.3324 25.4423 27.8596 24.0689 29.7955 22.3057C29.9446 22.1699 29.9953 21.9593 29.936 21.7665L25.8475 8.46261C25.7958 8.2944 25.666 8.16153 25.4991 8.10588L21.5459 6.78817C21.2861 6.70157 21.0023 6.82135 20.8832 7.06795L20.4247 8.01695L20.2291 8.44981C20.1741 8.57149 20.2515 8.71185 20.3836 8.73179C21.3568 8.87878 22.3194 9.08809 23.2641 9.3588C23.8425 9.52453 24.177 10.1277 24.0113 10.7061C23.8455 11.2845 23.2423 11.619 22.6639 11.4533C20.7684 10.9101 18.7907 10.6397 16.8022 10.6524H16.7882C14.7997 10.6397 12.822 10.9101 10.9264 11.4533C10.348 11.619 9.7448 11.2845 9.57906 10.7061C9.41333 10.1278 9.74783 9.52457 10.3262 9.35883C11.237 9.09783 12.1644 8.89391 13.102 8.74787C13.1585 8.73907 13.1926 8.68032 13.1718 8.62702ZM14.4933 18.2107C14.4933 18.9735 13.875 19.5918 13.1122 19.5918C12.3494 19.5918 11.7311 18.9735 11.7311 18.2107C11.7311 17.4479 12.3494 16.8295 13.1122 16.8295C13.875 16.8295 14.4933 17.4479 14.4933 18.2107ZM21.8594 18.2107C21.8594 18.9735 21.241 19.5918 20.4782 19.5918C19.7154 19.5918 19.0971 18.9735 19.0971 18.2107C19.0971 17.4479 19.7154 16.8295 20.4782 16.8295C21.241 16.8295 21.8594 17.4479 21.8594 18.2107Z" fill="#1C1B1F"/>
</svg>
