<svg width="32" height="32" viewBox="0 0 32 32" fill="none" xmlns="http://www.w3.org/2000/svg">
<path fill-rule="evenodd" clip-rule="evenodd" d="M11.3374 6.40317L10.571 4.53801C10.4362 4.20979 10.0689 4.04352 9.73329 4.15872L5.07728 5.75699C4.86941 5.82835 4.70971 5.99707 4.64988 6.20856L0.0254187 22.5538C-0.0448997 22.8023 0.0328927 23.0696 0.231339 23.2349C1.9531 24.6695 5.60851 27.1807 9.05409 27.8822C9.3211 27.9366 9.58927 27.81 9.73025 27.5768L10.7071 25.9611C10.7936 25.8142 10.7077 25.6259 10.5404 25.5928C9.61774 25.4102 8.70433 25.1777 7.80424 24.896C7.09756 24.6748 6.70398 23.9227 6.92516 23.216C7.14635 22.5093 7.89853 22.1157 8.60521 22.3369C10.9294 23.0643 13.3525 23.426 15.7877 23.4089H15.8065C18.2418 23.426 20.6649 23.0643 22.989 22.3369C23.6957 22.1157 24.4478 22.5093 24.669 23.216C24.8902 23.9227 24.4966 24.6749 23.79 24.896C22.908 25.1721 22.0132 25.4008 21.1095 25.5818C20.9723 25.6092 20.9032 25.7648 20.9762 25.8842L21.2012 26.2524L21.986 27.5299C22.1432 27.7857 22.4507 27.9067 22.7377 27.8183C25.0734 27.0989 29.4146 25.4086 31.7972 23.2385C31.9808 23.0713 32.0432 22.8122 31.9702 22.5749L26.9382 6.20083C26.8746 5.9938 26.7149 5.83027 26.5094 5.76178L21.6439 4.13998C21.3241 4.03339 20.9749 4.18082 20.8283 4.48432L20.264 5.65232L19.9979 6.24129C19.9429 6.36297 20.0203 6.50333 20.1524 6.52298C21.371 6.70432 22.5762 6.96499 23.7587 7.30383C24.4705 7.50781 24.8822 8.25022 24.6782 8.96206C24.4742 9.6739 23.7318 10.0856 23.02 9.88162C20.687 9.21309 18.2529 8.88027 15.8055 8.89597H15.7883C13.3409 8.88027 10.9068 9.2131 8.57376 9.88165C7.86192 10.0856 7.1195 9.67394 6.91552 8.96211C6.71154 8.25027 7.12323 7.50785 7.83507 7.30387C8.95607 6.98264 10.0975 6.73165 11.2514 6.55192C11.321 6.54109 11.3629 6.46878 11.3374 6.40317ZM12.9639 18.1984C12.9639 19.1373 12.2028 19.8983 11.264 19.8983C10.3252 19.8983 9.56412 19.1373 9.56412 18.1984C9.56412 17.2596 10.3252 16.4986 11.264 16.4986C12.2028 16.4986 12.9639 17.2596 12.9639 18.1984ZM22.0298 18.1984C22.0298 19.1373 21.2687 19.8983 20.3299 19.8983C19.3911 19.8983 18.63 19.1373 18.63 18.1984C18.63 17.2596 19.3911 16.4986 20.3299 16.4986C21.2687 16.4986 22.0298 17.2596 22.0298 18.1984Z" fill="#111827"/>
</svg>
