<svg width="32" height="33" viewBox="0 0 32 33" fill="none" xmlns="http://www.w3.org/2000/svg">
<path fill-rule="evenodd" clip-rule="evenodd" d="M16 32.5C24.8366 32.5 32 25.3366 32 16.5C32 7.66344 24.8366 0.5 16 0.5C7.16344 0.5 0 7.66344 0 16.5C0 25.3366 7.16344 32.5 16 32.5ZM16 12.1667C13.6068 12.1667 11.6667 14.1068 11.6667 16.5C11.6667 18.8932 13.6068 20.8333 16 20.8333C18.3932 20.8333 20.3333 18.8932 20.3333 16.5C20.3333 14.1068 18.3932 12.1667 16 12.1667ZM9.66667 16.5C9.66667 13.0022 12.5022 10.1667 16 10.1667C19.4978 10.1667 22.3333 13.0022 22.3333 16.5C22.3333 19.9978 19.4978 22.8333 16 22.8333C12.5022 22.8333 9.66667 19.9978 9.66667 16.5ZM21.5009 5.73582C20.9564 5.64327 20.44 6.00963 20.3475 6.5541C20.2549 7.09858 20.6213 7.61499 21.1658 7.70754C22.4682 7.92893 23.6698 8.54925 24.6045 9.48284C25.5392 10.4164 26.161 11.6172 26.384 12.9194C26.4773 13.4637 26.9941 13.8295 27.5385 13.7362C28.0828 13.643 28.4486 13.1262 28.3553 12.5818C28.0624 10.8714 27.2457 9.29407 26.0178 8.06776C24.79 6.84144 23.2117 6.02662 21.5009 5.73582Z" fill="#111827"/>
</svg>
