<svg width="33" height="33" viewBox="0 0 33 33" fill="none" xmlns="http://www.w3.org/2000/svg">
<path fill-rule="evenodd" clip-rule="evenodd" d="M13.1718 8.48554L12.5492 6.97009C12.4396 6.70342 12.1412 6.56832 11.8685 6.66192L8.0855 7.96052C7.9166 8.01849 7.78684 8.15558 7.73823 8.32741L3.98086 21.6079C3.92372 21.8098 3.98693 22.027 4.14817 22.1613C5.5471 23.3269 8.51712 25.3673 11.3167 25.9372C11.5336 25.9814 11.7515 25.8786 11.866 25.6891L12.6598 24.3763C12.73 24.257 12.6602 24.104 12.5243 24.0771C11.7746 23.9288 11.0325 23.7399 10.3011 23.511C9.72697 23.3313 9.40719 22.7201 9.5869 22.1459C9.76661 21.5718 10.3778 21.252 10.9519 21.4317C12.8403 22.0227 14.8091 22.3166 16.7877 22.3027H16.803C18.7816 22.3166 20.7504 22.0227 22.6388 21.4317C23.2129 21.252 23.8241 21.5718 24.0038 22.1459C24.1835 22.7201 23.8637 23.3313 23.2895 23.511C22.5903 23.7298 21.8811 23.9121 21.1649 24.0574C21.0278 24.0852 20.9587 24.2408 21.0317 24.3602L21.1862 24.613L21.8238 25.651C21.9515 25.8588 22.2014 25.9571 22.4346 25.8853C24.3324 25.3008 27.8596 23.9275 29.7955 22.1642C29.9446 22.0284 29.9953 21.8178 29.936 21.625L25.8475 8.32113C25.7958 8.15292 25.666 8.02005 25.4991 7.9644L21.5459 6.64669C21.2861 6.56009 21.0023 6.67987 20.8832 6.92647L20.4247 7.87547L20.2291 8.30833C20.1741 8.43001 20.2515 8.57037 20.3836 8.59031C21.3568 8.7373 22.3194 8.94661 23.2641 9.21732C23.8425 9.38305 24.177 9.98627 24.0113 10.5646C23.8455 11.143 23.2423 11.4775 22.6639 11.3118C20.7684 10.7686 18.7907 10.4982 16.8022 10.5109H16.7882C14.7997 10.4982 12.822 10.7686 10.9264 11.3118C10.348 11.4775 9.7448 11.143 9.57906 10.5647C9.41333 9.9863 9.74783 9.38309 10.3262 9.21735C11.237 8.95635 12.1644 8.75243 13.102 8.60639C13.1585 8.59759 13.1926 8.53884 13.1718 8.48554ZM14.4933 18.0692C14.4933 18.832 13.875 19.4503 13.1122 19.4503C12.3494 19.4503 11.7311 18.832 11.7311 18.0692C11.7311 17.3064 12.3494 16.6881 13.1122 16.6881C13.875 16.6881 14.4933 17.3064 14.4933 18.0692ZM21.8594 18.0692C21.8594 18.832 21.241 19.4503 20.4782 19.4503C19.7154 19.4503 19.0971 18.832 19.0971 18.0692C19.0971 17.3064 19.7154 16.6881 20.4782 16.6881C21.241 16.6881 21.8594 17.3064 21.8594 18.0692Z" fill="#1C1B1F"/>
</svg>
