<svg width="32" height="32" viewBox="0 0 32 32" fill="none" xmlns="http://www.w3.org/2000/svg">
<path fill-rule="evenodd" clip-rule="evenodd" d="M16.0005 10.0007C17.1049 10.0007 18.0003 9.10532 18.0003 8.00088C18.0003 6.89643 17.1049 6.0011 16.0005 6.0011C14.896 6.0011 14.0007 6.89643 14.0007 8.00088C14.0007 9.10532 14.896 10.0007 16.0005 10.0007ZM4.00146 16.0001C4.00146 15.4478 4.44918 15.0001 5.00146 15.0001H26.999C27.5513 15.0001 27.999 15.4478 27.999 16.0001C27.999 16.5524 27.5513 17.0001 26.999 17.0001H5.00146C4.44918 17.0001 4.00146 16.5524 4.00146 16.0001ZM18.0003 23.9991C18.0003 25.1036 17.1049 25.9989 16.0005 25.9989C14.896 25.9989 14.0007 25.1036 14.0007 23.9991C14.0007 22.8947 14.896 21.9994 16.0005 21.9994C17.1049 21.9994 18.0003 22.8947 18.0003 23.9991Z" fill="#111827"/>
</svg>
