<svg width="33" height="33" viewBox="0 0 33 33" fill="none" xmlns="http://www.w3.org/2000/svg">
<path fill-rule="evenodd" clip-rule="evenodd" d="M16.9604 11.248C17.8873 11.248 18.6387 10.4966 18.6387 9.56968C18.6387 8.64277 17.8873 7.89136 16.9604 7.89136C16.0335 7.89136 15.2821 8.64277 15.2821 9.56968C15.2821 10.4966 16.0335 11.248 16.9604 11.248ZM6.72949 16.283C6.72949 15.7307 7.17721 15.283 7.72949 15.283H26.191C26.7433 15.283 27.191 15.7307 27.191 16.283C27.191 16.8353 26.7433 17.283 26.191 17.283H7.72949C7.17721 17.283 6.72949 16.8353 6.72949 16.283ZM18.6387 22.9963C18.6387 23.9232 17.8873 24.6746 16.9604 24.6746C16.0335 24.6746 15.2821 23.9232 15.2821 22.9963C15.2821 22.0694 16.0335 21.318 16.9604 21.318C17.8873 21.318 18.6387 22.0694 18.6387 22.9963Z" fill="#1C1B1F"/>
</svg>
