<svg width="32" height="33" viewBox="0 0 32 33" fill="none" xmlns="http://www.w3.org/2000/svg">
<path fill-rule="evenodd" clip-rule="evenodd" d="M14.343 6H17.6576V8.99898H14.343V6ZM9.74461 9.63034H6.42995V12.6293H9.74461V9.63034ZM5.79852 13.2525H2.48385V16.2515H5.79852V13.2525ZM9.74461 13.2525H6.42995V16.2515H9.74461V13.2525ZM10.376 13.2525H13.6907V16.2515H10.376V13.2525ZM17.6368 13.2525H14.3221V16.2515H17.6368V13.2525ZM18.2682 13.2525H21.5829V16.2515H18.2682V13.2525ZM10.376 9.63034H13.6907V12.6293H10.376V9.63034ZM17.6368 9.63034H14.3221V12.6293H17.6368V9.63034ZM27.6594 14.05C30.5794 13.5765 32 14.9181 32 14.9181C32 14.9181 31.1319 18.3117 27.028 17.996C24.2658 24.6254 18.4257 28.2557 10.6125 28.2557C-0.278492 28.2557 -0.278492 18.3117 0.11611 16.8122H21.8193C23.0031 16.8122 23.7923 16.4965 24.2658 16.2598C22.6085 13.1819 24.8972 10.4197 24.8972 10.4197C24.8972 10.4197 27.3437 11.7613 27.6594 14.05Z" fill="#111827"/>
</svg>
