<svg width="33" height="32" viewBox="0 0 33 32" fill="none" xmlns="http://www.w3.org/2000/svg">
<path fill-rule="evenodd" clip-rule="evenodd" d="M15.7172 7.65417H18.2032V9.90341H15.7172V7.65417ZM12.2685 10.3769H9.78252V12.6262H12.2685V10.3769ZM9.30899 13.0935H6.823V15.3427H9.30899V13.0935ZM12.2685 13.0935H9.78252V15.3427H12.2685V13.0935ZM12.742 13.0935H15.228V15.3427H12.742V13.0935ZM18.1876 13.0935H15.7016V15.3427H18.1876V13.0935ZM18.6611 13.0935H21.1471V15.3427H18.6611V13.0935ZM12.742 10.3769H15.228V12.6262H12.742V10.3769ZM18.1876 10.3769H15.7016V12.6262H18.1876V10.3769ZM25.7047 13.6916C27.8948 13.3365 28.9602 14.3427 28.9602 14.3427C28.9602 14.3427 28.3091 16.8879 25.2312 16.6511C23.1595 21.6231 18.7795 24.3459 12.9196 24.3459C4.75134 24.3459 4.75134 16.8879 5.04729 15.7633H21.3246C22.2125 15.7633 22.8044 15.5265 23.1595 15.3489C21.9165 13.0405 23.6331 10.9688 23.6331 10.9688C23.6331 10.9688 25.468 11.9751 25.7047 13.6916Z" fill="#1C1B1F"/>
</svg>
