<svg width="33" height="33" viewBox="0 0 33 33" fill="none" xmlns="http://www.w3.org/2000/svg">
<path fill-rule="evenodd" clip-rule="evenodd" d="M14.8542 6.43849L8.34754 4.78182C8.07605 4.7127 7.80075 4.8801 7.7372 5.15295L4.6319 18.4864C4.51757 18.9774 5.11925 19.3098 5.47404 18.9518L6.17891 18.2404V22.9795C6.17891 26.2932 8.8652 28.9795 12.1789 28.9795H21.7418C25.0555 28.9795 27.7418 26.2932 27.7418 22.9795V18.1304L28.5213 18.9547C28.8653 19.3185 29.471 19.007 29.3754 18.5156L26.7784 5.17551C26.7235 4.89346 26.4427 4.71561 26.1642 4.78651L19.676 6.43849H14.8542ZM15.8913 8.43849L8.17891 16.222V22.9795C8.17891 25.1887 9.96977 26.9795 12.1789 26.9795H15.9602V25.459L14.297 23.7959C13.9065 23.4053 13.9065 22.7722 14.297 22.3817C14.6875 21.9911 15.3207 21.9911 15.7112 22.3817L16.9604 23.6308L18.2096 22.3817C18.6001 21.9911 19.2333 21.9911 19.6238 22.3817C20.0143 22.7722 20.0143 23.4053 19.6238 23.7959L17.9602 25.4595V26.9795H21.7418C23.9509 26.9795 25.7418 25.1887 25.7418 22.9795V16.1561C25.7418 16.1116 25.7447 16.0677 25.7503 16.0246L18.5763 8.43849H15.8913ZM14.0259 18.6871C14.0259 19.4974 13.369 20.1543 12.5587 20.1543C11.7484 20.1543 11.0915 19.4974 11.0915 18.6871C11.0915 17.8768 11.7484 17.2199 12.5587 17.2199C13.369 17.2199 14.0259 17.8768 14.0259 18.6871ZM21.3619 20.1543C22.1723 20.1543 22.8292 19.4974 22.8292 18.6871C22.8292 17.8768 22.1723 17.2199 21.3619 17.2199C20.5516 17.2199 19.8947 17.8768 19.8947 18.6871C19.8947 19.4974 20.5516 20.1543 21.3619 20.1543Z" fill="#1C1B1F"/>
</svg>
