<svg width="32" height="33" viewBox="0 0 32 33" fill="none" xmlns="http://www.w3.org/2000/svg">
<path fill-rule="evenodd" clip-rule="evenodd" d="M14.3673 3.54623L4.75986 1.10006C4.48837 1.03094 4.21307 1.19834 4.14952 1.47119L0.0166694 19.2168C-0.0976685 19.7077 0.504013 20.0402 0.858808 19.6821L2.39989 18.1268V25.9155C2.39989 29.2292 5.08619 31.9155 8.3999 31.9155H23.5135C26.8272 31.9155 29.5135 29.2292 29.5135 25.9155V17.9719L31.1336 19.6851C31.4776 20.0488 32.0833 19.7374 31.9877 19.246L28.5317 1.49375C28.4768 1.21169 28.196 1.03385 27.9176 1.10475L18.3286 3.54623H14.3673ZM14.8656 5.54623L4.39989 16.1084V25.9155C4.39989 28.1247 6.19076 29.9155 8.3999 29.9155H14.9563V27.562L12.7385 25.3442C12.348 24.9536 12.348 24.3205 12.7385 23.9299C13.129 23.5394 13.7622 23.5394 14.1527 23.9299L15.957 25.7342L17.7612 23.9299C18.1517 23.5394 18.7849 23.5394 19.1754 23.9299C19.566 24.3205 19.566 24.9536 19.1754 25.3442L16.9563 27.5633V29.9155H23.5135C25.7226 29.9155 27.5135 28.1247 27.5135 25.9155V15.8571L17.7627 5.54623H14.8656ZM12.1898 18.9865C12.1898 20.0268 11.3465 20.8701 10.3063 20.8701C9.26603 20.8701 8.42275 20.0268 8.42275 18.9865C8.42275 17.9463 9.26603 17.103 10.3063 17.103C11.3465 17.103 12.1898 17.9463 12.1898 18.9865ZM21.6071 20.8701C22.6473 20.8701 23.4906 20.0268 23.4906 18.9865C23.4906 17.9463 22.6473 17.103 21.6071 17.103C20.5669 17.103 19.7236 17.9463 19.7236 18.9865C19.7236 20.0268 20.5669 20.8701 21.6071 20.8701Z" fill="#111827"/>
</svg>
