<svg width="32" height="33" viewBox="0 0 32 33" fill="none" xmlns="http://www.w3.org/2000/svg">
<path fill-rule="evenodd" clip-rule="evenodd" d="M12.2177 4.77252C11.6269 6.28789 11.1461 8.11796 10.8181 10.1666H21.182C20.854 8.11796 20.3732 6.28789 19.7824 4.77252C19.2057 3.29346 18.5437 2.16465 17.8597 1.42261C17.4149 0.939986 16.9927 0.65274 16.6013 0.511085C16.4018 0.503717 16.2014 0.5 16.0001 0.5C15.7988 0.5 15.5983 0.503718 15.3988 0.51109C15.0074 0.652747 14.5853 0.939993 14.1404 1.42261C13.4564 2.16465 12.7944 3.29346 12.2177 4.77252ZM1.30265 10.1666H8.794C9.14189 7.86717 9.6753 5.78768 10.3544 4.04601C10.8002 2.90251 11.3186 1.87929 11.9067 1.02843C7.13081 2.28869 3.22922 5.70167 1.30265 10.1666ZM21.6458 4.04601C21.1999 2.90249 20.6815 1.87926 20.0934 1.02839C24.8694 2.28861 28.771 5.70162 30.6976 10.1666H23.2061C22.8582 7.86717 22.3248 5.78768 21.6458 4.04601ZM31.9902 17.0642C31.9967 16.8769 32 16.6889 32 16.5C32 16.3111 31.9967 16.1231 31.9902 15.9358V15.9429C31.9456 14.6375 31.7445 13.3719 31.4053 12.1641H29.4391C29.8795 13.5302 30.1174 14.9873 30.1174 16.5C30.1174 18.019 29.8775 19.4819 29.4336 20.853H31.4005C31.7426 19.6401 31.9454 18.3686 31.9902 17.0571V17.0642ZM10.8181 22.8334H21.182C20.854 24.882 20.3732 26.7121 19.7824 28.2274C19.2057 29.7065 18.5437 30.8353 17.8597 31.5774C17.4148 32.06 16.9926 32.3473 16.6012 32.4889C16.4017 32.4963 16.2014 32.5 16.0001 32.5C15.7988 32.5 15.5984 32.4963 15.3989 32.4889C15.0075 32.3473 14.5853 32.06 14.1404 31.5774C13.4564 30.8353 12.7944 29.7065 12.2177 28.2274C11.6269 26.7121 11.1461 24.882 10.8181 22.8334ZM21.6458 28.9539C21.1999 30.0975 20.6815 31.1207 20.0934 31.9716C24.8693 30.7114 28.771 27.2984 30.6976 22.8334H23.2061C22.8582 25.1328 22.3248 27.2123 21.6458 28.9539ZM10.3544 28.9539C10.8002 30.0975 11.3186 31.1207 11.9067 31.9716C7.13083 30.7113 3.22922 27.2983 1.30265 22.8334H8.79401C9.1419 25.1328 9.67531 27.2123 10.3544 28.9539ZM4.79477 19.0087L3.40589 13.905H4.83796L5.62876 17.3341H5.67528L6.4993 13.905H7.9048L8.74211 17.3141H8.78531L9.56281 13.905H10.9916L9.60601 19.0087H8.10748L7.23029 15.799H7.16716L6.28997 19.0087H4.79477ZM12.7534 19.0087L11.3645 13.905H12.7966L13.5874 17.3341H13.6339L14.4579 13.905H15.8634L16.7008 17.3141H16.744L17.5215 13.905H18.9502L17.5647 19.0087H16.0661L15.1889 15.799H15.1258L14.2486 19.0087H12.7534ZM19.3232 13.905L20.7121 19.0087H22.2073L23.0845 15.799H23.1476L24.0248 19.0087H25.5233L26.9089 13.905H25.4801L24.7026 17.3141H24.6594L23.8221 13.905H22.4166L21.5926 17.3341H21.5461L20.7553 13.905H19.3232ZM27.7968 19.0951C27.5775 19.0951 27.3893 19.0176 27.232 18.8625C27.0769 18.7052 26.9994 18.5169 26.9994 18.2976C26.9994 18.0806 27.0769 17.8945 27.232 17.7394C27.3893 17.5844 27.5775 17.5068 27.7968 17.5068C28.0095 17.5068 28.1956 17.5844 28.355 17.7394C28.5145 17.8945 28.5943 18.0806 28.5943 18.2976C28.5943 18.4438 28.5566 18.5779 28.4813 18.6997C28.4082 18.8193 28.3119 18.9157 28.1922 18.9888C28.0726 19.0597 27.9408 19.0951 27.7968 19.0951ZM0.594464 12.1641C0.207155 13.543 0 14.9973 0 16.5C0 18.0089 0.20887 19.469 0.599275 20.853H2.56619C2.12223 19.4819 1.88234 18.019 1.88234 16.5C1.88234 14.9873 2.12024 13.5302 2.56067 12.1641H0.594464Z" fill="#111827"/>
</svg>
