<svg width="32" height="32" viewBox="0 0 32 32" fill="none" xmlns="http://www.w3.org/2000/svg">
<path fill-rule="evenodd" clip-rule="evenodd" d="M25.384 1.65466C25.9363 1.65466 26.384 2.10238 26.384 2.65466V28.3453C26.384 28.3453 26.384 28.3453 26.384 28.3453H30.9991C31.5514 28.3453 31.9991 28.793 31.9991 29.3453C31.9991 29.8976 31.5514 30.3453 30.9991 30.3453H1.00098C0.448692 30.3453 0.000976562 29.8976 0.000976562 29.3453C0.000976562 28.793 0.448692 28.3453 1.00098 28.3453H5.61604C5.61604 28.3453 5.61604 28.3453 5.61604 28.3453V2.65466C5.61604 2.10238 6.06375 1.65466 6.61604 1.65466H25.384ZM20.0382 17.2306C20.9941 17.2306 21.7689 16.4558 21.7689 15.5C21.7689 14.5442 20.9941 13.7693 20.0382 13.7693C19.0824 13.7693 18.3076 14.5442 18.3076 15.5C18.3076 16.4558 19.0824 17.2306 20.0382 17.2306Z" fill="#111827"/>
</svg>
