<svg width="33" height="33" viewBox="0 0 33 33" fill="none" xmlns="http://www.w3.org/2000/svg">
<path fill-rule="evenodd" clip-rule="evenodd" d="M24.2677 5.20593C24.82 5.20593 25.2677 5.65365 25.2677 6.20593V26.3598C25.2677 26.3598 25.2677 26.3598 25.2677 26.3598H28.96C29.5122 26.3598 29.96 26.8075 29.96 27.3598C29.96 27.9121 29.5122 28.3598 28.96 28.3598H4.95996C4.40768 28.3598 3.95996 27.9121 3.95996 27.3598C3.95996 26.8075 4.40768 26.3598 4.95996 26.3598H8.65234C8.65234 26.3598 8.65234 26.3598 8.65234 26.3598V6.20593C8.65234 5.65365 9.10006 5.20593 9.65234 5.20593H24.2677ZM20.1908 17.6675C20.9555 17.6675 21.5754 17.0476 21.5754 16.2829C21.5754 15.5182 20.9555 14.8983 20.1908 14.8983C19.4261 14.8983 18.8062 15.5182 18.8062 16.2829C18.8062 17.0476 19.4261 17.6675 20.1908 17.6675Z" fill="#1C1B1F"/>
</svg>
