<svg width="33" height="33" viewBox="0 0 33 33" fill="none" xmlns="http://www.w3.org/2000/svg">
<path fill-rule="evenodd" clip-rule="evenodd" d="M11.5598 22.7444C13.0892 22.7444 14.329 23.9842 14.329 25.5136C14.329 27.043 13.0892 28.2828 11.5598 28.2828C10.0304 28.2828 8.79053 27.043 8.79053 25.5136C8.79053 23.9842 10.0304 22.7444 11.5598 22.7444ZM11.5598 13.5134C13.0892 13.5134 14.329 14.7533 14.329 16.2827C14.329 17.8121 13.0892 19.0519 11.5598 19.0519C10.0304 19.0519 8.79053 17.8121 8.79053 16.2827C8.79053 14.7533 10.0304 13.5134 11.5598 13.5134ZM14.329 7.05219C14.329 5.52279 13.0892 4.28296 11.5598 4.28296C10.0304 4.28296 8.79053 5.52279 8.79053 7.05219C8.79053 8.58159 10.0304 9.82142 11.5598 9.82142C13.0892 9.82142 14.329 8.58159 14.329 7.05219ZM22.3596 22.7444C23.889 22.7444 25.1288 23.9842 25.1288 25.5136C25.1288 27.043 23.889 28.2828 22.3596 28.2828C20.8302 28.2828 19.5903 27.043 19.5903 25.5136C19.5903 23.9842 20.8302 22.7444 22.3596 22.7444ZM22.3596 13.5134C23.889 13.5134 25.1288 14.7533 25.1288 16.2827C25.1288 17.8121 23.889 19.0519 22.3596 19.0519C20.8302 19.0519 19.5903 17.8121 19.5903 16.2827C19.5903 14.7533 20.8302 13.5134 22.3596 13.5134ZM25.1288 7.05219C25.1288 5.52279 23.889 4.28296 22.3596 4.28296C20.8302 4.28296 19.5903 5.52279 19.5903 7.05219C19.5903 8.58159 20.8302 9.82142 22.3596 9.82142C23.889 9.82142 25.1288 8.58159 25.1288 7.05219Z" fill="#1C1B1F"/>
</svg>
