<svg width="32" height="32" viewBox="0 0 32 32" fill="none" xmlns="http://www.w3.org/2000/svg">
<path fill-rule="evenodd" clip-rule="evenodd" d="M6.76923 18.7692C8.29863 18.7692 9.53846 17.5294 9.53846 16C9.53846 14.4706 8.29863 13.2308 6.76923 13.2308C5.23983 13.2308 4 14.4706 4 16C4 17.5294 5.23983 18.7692 6.76923 18.7692ZM16.0002 18.7692C17.5296 18.7692 18.7694 17.5294 18.7694 16C18.7694 14.4706 17.5296 13.2308 16.0002 13.2308C14.4708 13.2308 13.231 14.4706 13.231 16C13.231 17.5294 14.4708 18.7692 16.0002 18.7692ZM27.9999 16C27.9999 17.5294 26.7601 18.7692 25.2307 18.7692C23.7013 18.7692 22.4614 17.5294 22.4614 16C22.4614 14.4706 23.7013 13.2308 25.2307 13.2308C26.7601 13.2308 27.9999 14.4706 27.9999 16Z" fill="#111827"/>
</svg>
