<svg width="33" height="33" viewBox="0 0 33 33" fill="none" xmlns="http://www.w3.org/2000/svg">
<path fill-rule="evenodd" clip-rule="evenodd" d="M19.7289 25.5136C19.7289 23.9842 18.4891 22.7444 16.9597 22.7444C15.4303 22.7444 14.1904 23.9842 14.1904 25.5136C14.1904 27.043 15.4303 28.2828 16.9597 28.2828C18.4891 28.2828 19.7289 27.043 19.7289 25.5136ZM19.7289 16.2826C19.7289 14.7532 18.4891 13.5134 16.9597 13.5134C15.4303 13.5134 14.1904 14.7532 14.1904 16.2826C14.1904 17.8121 15.4303 19.0519 16.9597 19.0519C18.4891 19.0519 19.7289 17.8121 19.7289 16.2826ZM16.9597 4.28295C18.4891 4.28295 19.7289 5.52278 19.7289 7.05218C19.7289 8.58158 18.4891 9.82141 16.9597 9.82141C15.4303 9.82141 14.1904 8.58158 14.1904 7.05218C14.1904 5.52278 15.4303 4.28295 16.9597 4.28295Z" fill="#1C1B1F"/>
</svg>
