<svg width="33" height="33" viewBox="0 0 33 33" fill="none" xmlns="http://www.w3.org/2000/svg">
<path fill-rule="evenodd" clip-rule="evenodd" d="M23.4214 21.6828C23.4214 20.1534 24.6612 18.9136 26.1906 18.9136C27.72 18.9136 28.9598 20.1534 28.9598 21.6828C28.9598 23.2122 27.72 24.452 26.1906 24.452C24.6612 24.452 23.4214 23.2122 23.4214 21.6828ZM14.1904 21.6828C14.1904 20.1534 15.4303 18.9136 16.9597 18.9136C18.4891 18.9136 19.7289 20.1534 19.7289 21.6828C19.7289 23.2122 18.4891 24.452 16.9597 24.452C15.4303 24.452 14.1904 23.2122 14.1904 21.6828ZM7.72919 18.9136C6.19979 18.9136 4.95996 20.1534 4.95996 21.6828C4.95996 23.2122 6.19979 24.452 7.72919 24.452C9.2586 24.452 10.4984 23.2122 10.4984 21.6828C10.4984 20.1534 9.2586 18.9136 7.72919 18.9136ZM23.4214 10.883C23.4214 9.35359 24.6612 8.11376 26.1906 8.11376C27.72 8.11376 28.9598 9.35359 28.9598 10.883C28.9598 12.4124 27.72 13.6522 26.1906 13.6522C24.6612 13.6522 23.4214 12.4124 23.4214 10.883ZM14.1904 10.883C14.1904 9.35359 15.4303 8.11376 16.9597 8.11376C18.4891 8.11376 19.7289 9.35359 19.7289 10.883C19.7289 12.4124 18.4891 13.6522 16.9597 13.6522C15.4303 13.6522 14.1904 12.4124 14.1904 10.883ZM7.72919 8.11376C6.19979 8.11376 4.95996 9.35359 4.95996 10.883C4.95996 12.4124 6.19979 13.6522 7.72919 13.6522C9.2586 13.6522 10.4984 12.4124 10.4984 10.883C10.4984 9.35359 9.2586 8.11376 7.72919 8.11376Z" fill="#1C1B1F"/>
</svg>
