<svg width="33" height="33" viewBox="0 0 33 33" fill="none" xmlns="http://www.w3.org/2000/svg">
<path fill-rule="evenodd" clip-rule="evenodd" d="M7.72919 19.0521C9.2586 19.0521 10.4984 17.8123 10.4984 16.2829C10.4984 14.7535 9.2586 13.5137 7.72919 13.5137C6.19979 13.5137 4.95996 14.7535 4.95996 16.2829C4.95996 17.8123 6.19979 19.0521 7.72919 19.0521ZM16.9601 19.0521C18.4896 19.0521 19.7294 17.8123 19.7294 16.2829C19.7294 14.7535 18.4896 13.5137 16.9601 13.5137C15.4307 13.5137 14.1909 14.7535 14.1909 16.2829C14.1909 17.8123 15.4307 19.0521 16.9601 19.0521ZM28.9598 16.2829C28.9598 17.8123 27.72 19.0521 26.1906 19.0521C24.6612 19.0521 23.4214 17.8123 23.4214 16.2829C23.4214 14.7535 24.6612 13.5137 26.1906 13.5137C27.72 13.5137 28.9598 14.7535 28.9598 16.2829Z" fill="#1C1B1F"/>
</svg>
