<svg width="32" height="32" viewBox="0 0 32 32" fill="none" xmlns="http://www.w3.org/2000/svg">
<path fill-rule="evenodd" clip-rule="evenodd" d="M24.6152 23.1999C24.6152 21.1607 26.2683 19.5076 28.3075 19.5076C30.3467 19.5076 31.9999 21.1607 31.9999 23.1999C31.9999 25.2391 30.3467 26.8922 28.3075 26.8922C26.2683 26.8922 24.6152 25.2391 24.6152 23.1999ZM12.3074 23.1999C12.3074 21.1607 13.9605 19.5076 15.9997 19.5076C18.0389 19.5076 19.692 21.1607 19.692 23.1999C19.692 25.2391 18.0389 26.8922 15.9997 26.8922C13.9605 26.8922 12.3074 25.2391 12.3074 23.1999ZM3.69233 19.5076C1.65311 19.5076 0 21.1607 0 23.1999C0 25.2391 1.65311 26.8922 3.69233 26.8922C5.73154 26.8922 7.38465 25.2391 7.38465 23.1999C7.38465 21.1607 5.73154 19.5076 3.69233 19.5076ZM24.6152 8.80008C24.6152 6.76086 26.2683 5.10775 28.3075 5.10775C30.3467 5.10775 31.9999 6.76086 31.9999 8.80008C31.9999 10.8393 30.3467 12.4924 28.3075 12.4924C26.2683 12.4924 24.6152 10.8393 24.6152 8.80008ZM12.3074 8.80005C12.3074 6.76084 13.9605 5.10773 15.9997 5.10773C18.0389 5.10773 19.692 6.76084 19.692 8.80005C19.692 10.8393 18.0389 12.4924 15.9997 12.4924C13.9605 12.4924 12.3074 10.8393 12.3074 8.80005ZM3.69233 5.10773C1.65311 5.10773 0 6.76084 0 8.80005C0 10.8393 1.65311 12.4924 3.69233 12.4924C5.73154 12.4924 7.38465 10.8393 7.38465 8.80005C7.38465 6.76084 5.73154 5.10773 3.69233 5.10773Z" fill="#111827"/>
</svg>
