<svg width="33" height="33" viewBox="0 0 33 33" fill="none" xmlns="http://www.w3.org/2000/svg">
<path fill-rule="evenodd" clip-rule="evenodd" d="M10.1903 25.5136C10.1903 23.9842 8.95049 22.7444 7.42109 22.7444C5.89168 22.7444 4.65186 23.9842 4.65186 25.5136C4.65186 27.043 5.89168 28.2828 7.42109 28.2828C8.95049 28.2828 10.1903 27.043 10.1903 25.5136ZM10.1903 16.2826C10.1903 14.7532 8.95049 13.5134 7.42109 13.5134C5.89168 13.5134 4.65186 14.7532 4.65186 16.2826C4.65186 17.8121 5.89168 19.0519 7.42109 19.0519C8.95049 19.0519 10.1903 17.8121 10.1903 16.2826ZM7.42109 4.28295C8.95049 4.28295 10.1903 5.52278 10.1903 7.05218C10.1903 8.58158 8.95049 9.82141 7.42109 9.82141C5.89168 9.82141 4.65186 8.58158 4.65186 7.05218C4.65186 5.52278 5.89168 4.28295 7.42109 4.28295ZM19.7289 25.5136C19.7289 23.9842 18.4891 22.7444 16.9597 22.7444C15.4303 22.7444 14.1904 23.9842 14.1904 25.5136C14.1904 27.043 15.4303 28.2828 16.9597 28.2828C18.4891 28.2828 19.7289 27.043 19.7289 25.5136ZM19.7289 16.2826C19.7289 14.7532 18.4891 13.5134 16.9597 13.5134C15.4303 13.5134 14.1904 14.7532 14.1904 16.2826C14.1904 17.8121 15.4303 19.0519 16.9597 19.0519C18.4891 19.0519 19.7289 17.8121 19.7289 16.2826ZM16.9597 4.28295C18.4891 4.28295 19.7289 5.52278 19.7289 7.05218C19.7289 8.58158 18.4891 9.82141 16.9597 9.82141C15.4303 9.82141 14.1904 8.58158 14.1904 7.05218C14.1904 5.52278 15.4303 4.28295 16.9597 4.28295ZM26.4982 22.7444C28.0276 22.7444 29.2675 23.9842 29.2675 25.5136C29.2675 27.043 28.0276 28.2828 26.4982 28.2828C24.9688 28.2828 23.729 27.043 23.729 25.5136C23.729 23.9842 24.9688 22.7444 26.4982 22.7444ZM26.4982 13.5134C28.0276 13.5134 29.2675 14.7532 29.2675 16.2826C29.2675 17.8121 28.0276 19.0519 26.4982 19.0519C24.9688 19.0519 23.729 17.8121 23.729 16.2826C23.729 14.7532 24.9688 13.5134 26.4982 13.5134ZM29.2675 7.05218C29.2675 5.52278 28.0276 4.28295 26.4982 4.28295C24.9688 4.28295 23.729 5.52278 23.729 7.05218C23.729 8.58158 24.9688 9.82141 26.4982 9.82141C28.0276 9.82141 29.2675 8.58158 29.2675 7.05218Z" fill="#1C1B1F"/>
</svg>
