<svg width="33" height="33" viewBox="0 0 33 33" fill="none" xmlns="http://www.w3.org/2000/svg">
<path fill-rule="evenodd" clip-rule="evenodd" d="M28.96 16.2829C28.96 22.9103 23.5874 28.2829 16.96 28.2829C10.3325 28.2829 4.95996 22.9103 4.95996 16.2829C4.95996 9.65548 10.3325 4.2829 16.96 4.2829C23.5874 4.2829 28.96 9.65548 28.96 16.2829ZM18.46 16.2829C18.46 17.1113 17.7884 17.7829 16.96 17.7829C16.1315 17.7829 15.46 17.1113 15.46 16.2829C15.46 15.4545 16.1315 14.7829 16.96 14.7829C17.7884 14.7829 18.46 15.4545 18.46 16.2829ZM16.96 11.7829C17.7884 11.7829 18.46 11.1113 18.46 10.2829C18.46 9.45447 17.7884 8.7829 16.96 8.7829C16.1315 8.7829 15.46 9.45447 15.46 10.2829C15.46 11.1113 16.1315 11.7829 16.96 11.7829ZM18.46 22.2829C18.46 23.1113 17.7884 23.7829 16.96 23.7829C16.1315 23.7829 15.46 23.1113 15.46 22.2829C15.46 21.4545 16.1315 20.7829 16.96 20.7829C17.7884 20.7829 18.46 21.4545 18.46 22.2829Z" fill="#1C1B1F"/>
</svg>
