<svg width="34" height="32" viewBox="0 0 34 32" fill="none" xmlns="http://www.w3.org/2000/svg">
<path fill-rule="evenodd" clip-rule="evenodd" d="M7.97449 28.3077C7.97449 26.2685 6.32138 24.6154 4.28217 24.6154C2.24295 24.6154 0.589844 26.2685 0.589844 28.3077C0.589844 30.3469 2.24295 32 4.28217 32C6.32138 32 7.97449 30.3469 7.97449 28.3077ZM7.97449 15.9997C7.97449 13.9605 6.32138 12.3073 4.28217 12.3073C2.24295 12.3073 0.589844 13.9605 0.589844 15.9997C0.589844 18.0389 2.24295 19.692 4.28217 19.692C6.32138 19.692 7.97449 18.0389 7.97449 15.9997ZM4.28217 0C6.32138 0 7.97449 1.65311 7.97449 3.69232C7.97449 5.73154 6.32138 7.38465 4.28217 7.38465C2.24295 7.38465 0.589844 5.73154 0.589844 3.69232C0.589844 1.65311 2.24295 0 4.28217 0ZM20.6927 15.9997C20.6927 13.9605 19.0395 12.3073 17.0003 12.3073C14.9611 12.3073 13.308 13.9605 13.308 15.9997C13.308 18.0389 14.9611 19.692 17.0003 19.692C19.0395 19.692 20.6927 18.0389 20.6927 15.9997ZM20.6928 28.3077C20.6928 26.2685 19.0396 24.6154 17.0004 24.6154C14.9612 24.6154 13.3081 26.2685 13.3081 28.3077C13.3081 30.3469 14.9612 32 17.0004 32C19.0396 32 20.6928 30.3469 20.6928 28.3077ZM17.0003 0C19.0395 0 20.6927 1.65311 20.6927 3.69232C20.6927 5.73154 19.0395 7.38465 17.0003 7.38465C14.9611 7.38465 13.308 5.73154 13.308 3.69232C13.308 1.65311 14.9611 0 17.0003 0ZM29.7185 12.3073C31.7577 12.3073 33.4108 13.9605 33.4108 15.9997C33.4108 18.0389 31.7577 19.692 29.7185 19.692C27.6793 19.692 26.0262 18.0389 26.0262 15.9997C26.0262 13.9605 27.6793 12.3073 29.7185 12.3073ZM29.7187 24.6154C31.7579 24.6154 33.411 26.2685 33.411 28.3077C33.411 30.3469 31.7579 32 29.7187 32C27.6795 32 26.0264 30.3469 26.0264 28.3077C26.0264 26.2685 27.6795 24.6154 29.7187 24.6154ZM33.4108 3.69232C33.4108 1.65311 31.7577 0 29.7185 0C27.6793 0 26.0262 1.65311 26.0262 3.69232C26.0262 5.73154 27.6793 7.38465 29.7185 7.38465C31.7577 7.38465 33.4108 5.73154 33.4108 3.69232Z" fill="#111827"/>
</svg>
