<svg width="32" height="32" viewBox="0 0 32 32" fill="none" xmlns="http://www.w3.org/2000/svg">
<path fill-rule="evenodd" clip-rule="evenodd" d="M15.0008 16.7929V5.45697C15.0008 4.90469 15.4485 4.45697 16.0008 4.45697C16.5531 4.45697 17.0008 4.90469 17.0008 5.45697V16.793L20.1551 13.6386C20.5457 13.2481 21.1788 13.2481 21.5694 13.6386C21.9599 14.0292 21.9599 14.6623 21.5694 15.0529L16.708 19.9143C16.4677 20.1546 16.1355 20.247 15.8245 20.1916C15.7926 20.1859 15.7612 20.1787 15.7304 20.1701C15.5705 20.1253 15.4195 20.04 15.2937 19.9143L10.4324 15.0529C10.0418 14.6623 10.0418 14.0292 10.4324 13.6386C10.8229 13.2481 11.456 13.2481 11.8466 13.6386L15.0008 16.7929ZM4.99854 20.4989C5.55082 20.4989 5.99854 20.9466 5.99854 21.4989V25.543H26.0019V21.4989C26.0019 20.9466 26.4496 20.4989 27.0019 20.4989C27.5542 20.4989 28.0019 20.9466 28.0019 21.4989V26.043C28.0019 26.8714 27.3304 27.543 26.5019 27.543H5.49853C4.67011 27.543 3.99854 26.8714 3.99854 26.043V21.4989C3.99854 20.9466 4.44625 20.4989 4.99854 20.4989Z" fill="#111827"/>
</svg>
