<svg width="33" height="33" viewBox="0 0 33 33" fill="none" xmlns="http://www.w3.org/2000/svg">
<path fill-rule="evenodd" clip-rule="evenodd" d="M18 2.9668C18 2.41451 17.5523 1.9668 17 1.9668C16.4477 1.9668 16 2.41451 16 2.9668L16 12.7056L13.4592 10.1271C13.0716 9.73366 12.4431 9.73366 12.0555 10.1271C11.6678 10.5204 11.6678 11.1583 12.0555 11.5517L16.2781 15.837C16.2844 15.8436 16.2909 15.8502 16.2974 15.8566L16.2981 15.8573C16.6851 16.2501 17.3123 16.2507 17.7001 15.8591C17.7083 15.8511 17.7163 15.8429 17.7242 15.8346L21.9445 11.5517C22.3321 11.1583 22.3321 10.5204 21.9445 10.1271C21.5568 9.73366 20.9284 9.73366 20.5407 10.1271L18 12.7055L18 2.9668ZM28.96 18.5247V25.6675C28.96 26.2198 28.5122 26.6675 27.96 26.6675H5.95996C5.40768 26.6675 4.95996 26.2198 4.95996 25.6675V18.5247C4.95996 17.9724 5.40768 17.5247 5.95996 17.5247H22.96H27.96C28.5122 17.5247 28.96 17.9724 28.96 18.5247ZM25.2678 22.0961C25.2678 22.8535 24.6479 23.4675 23.8832 23.4675C23.1184 23.4675 22.4985 22.8535 22.4985 22.0961C22.4985 21.3387 23.1184 20.7247 23.8832 20.7247C24.6479 20.7247 25.2678 21.3387 25.2678 22.0961Z" fill="#1C1B1F"/>
</svg>
