<svg width="32" height="32" viewBox="0 0 32 32" fill="none" xmlns="http://www.w3.org/2000/svg">
<path fill-rule="evenodd" clip-rule="evenodd" d="M17.0524 1.00018C17.0524 0.447898 16.6047 0.000183081 16.0524 0.000183105C15.5001 0.00018313 15.0524 0.447898 15.0524 1.00018L15.0524 14.4896L11.2048 10.5849C10.8172 10.1915 10.1887 10.1915 9.80109 10.5849C9.41345 10.9783 9.41345 11.6161 9.80109 12.0095L15.3503 17.6411C15.7348 18.0313 16.3561 18.0345 16.7444 17.6508C16.7574 17.6384 16.7699 17.6257 16.7822 17.6126L22.3033 12.0095C22.6909 11.6161 22.6909 10.9783 22.3033 10.5849C21.9156 10.1915 21.2872 10.1915 20.8995 10.5849L17.0524 14.4891V1.00018ZM31.6953 21.0414V30.9999C31.6953 31.5522 31.2476 31.9999 30.6953 31.9999H1.3042C0.751916 31.9999 0.304199 31.5522 0.304199 30.9999V21.0414C0.304199 20.4891 0.751914 20.0414 1.3042 20.0414H23.8476H30.6953C31.2476 20.0414 31.6953 20.4891 31.6953 21.0414ZM26.866 26.0206C26.866 27.0113 26.0552 27.8144 25.055 27.8144C24.0548 27.8144 23.244 27.0113 23.244 26.0206C23.244 25.03 24.0548 24.2269 25.055 24.2269C26.0552 24.2269 26.866 25.03 26.866 26.0206Z" fill="#111827"/>
</svg>
