<svg width="33" height="33" viewBox="0 0 33 33" fill="none" xmlns="http://www.w3.org/2000/svg">
<path fill-rule="evenodd" clip-rule="evenodd" d="M17.96 16.6676L20.4955 14.1321C20.886 13.7415 21.5191 13.7415 21.9097 14.1321C22.3002 14.5226 22.3002 15.1558 21.9097 15.5463L17.6698 19.7862C17.6616 19.7945 17.6532 19.8026 17.6447 19.8106C17.4703 19.9747 17.2513 20.0643 17.0282 20.0795C16.9807 20.0827 16.933 20.0826 16.8855 20.0791C16.7933 20.0723 16.7046 20.053 16.621 20.0229C16.4866 19.9746 16.3605 19.8966 16.2528 19.7889L12.0102 15.5463C11.6197 15.1558 11.6197 14.5226 12.0102 14.1321C12.4007 13.7415 13.0339 13.7415 13.4244 14.1321L15.96 16.6676V7.08179C15.96 6.5295 16.4077 6.08179 16.96 6.08179C17.5122 6.08179 17.96 6.5295 17.96 7.08179V16.6676ZM7.3584 20.0818C7.91068 20.0818 8.3584 20.5296 8.3584 21.0818V24.484H25.5612V21.0818C25.5612 20.5296 26.009 20.0818 26.5612 20.0818C27.1135 20.0818 27.5612 20.5296 27.5612 21.0818V24.984C27.5612 25.8124 26.8897 26.484 26.0612 26.484H7.8584C7.02997 26.484 6.3584 25.8124 6.3584 24.984V21.0818C6.3584 20.5296 6.80611 20.0818 7.3584 20.0818Z" fill="#1C1B1F"/>
</svg>
