<svg width="33" height="33" viewBox="0 0 33 33" fill="none" xmlns="http://www.w3.org/2000/svg">
<path d="M26.2356 15.1256V5.12915H5.92871V25.436H15.7828" stroke="#1C1B1F" stroke-width="2" stroke-linecap="round" stroke-linejoin="round" stroke-dasharray="4 4"/>
<path fill-rule="evenodd" clip-rule="evenodd" d="M17.8716 21.2598L17.2854 21.5803C16.4474 22.0641 16.1603 23.1356 16.6441 23.9735L16.8631 24.3528C18.4942 27.1779 21.6761 28.6544 24.9865 26.7432C28.0808 24.9567 28.7681 21.6135 27.137 18.7883L25.9561 16.743C25.9189 16.6786 25.8776 16.6181 25.8326 16.5617C25.448 16.2025 24.8596 16.1194 24.3802 16.3962C23.7927 16.7354 23.5914 17.4866 23.9306 18.0741L24.2985 18.7114C24.4193 18.9206 24.3717 19.181 24.1976 19.3353C24.1843 19.3471 24.1702 19.3582 24.1555 19.3687C24.1427 19.3778 24.1293 19.3864 24.1154 19.3944C23.8763 19.5325 23.5705 19.4506 23.4324 19.2114L22.503 17.6017C22.2379 17.1425 21.6508 16.9852 21.1917 17.2503C20.7325 17.5154 20.5752 18.1025 20.8403 18.5616L21.7697 20.1714C21.9078 20.4105 21.8258 20.7163 21.5867 20.8544C21.3475 20.9925 21.0417 20.9105 20.9037 20.6714L20.6425 20.2191L20.6368 20.2094L18.1766 15.9483C17.9116 15.4892 17.3245 15.3319 16.8653 15.5969C16.4062 15.862 16.2489 16.4491 16.514 16.9083L19.8248 22.6428C19.9629 22.8819 19.8809 23.1877 19.6418 23.3258C19.4026 23.4639 19.0968 23.3819 18.9588 23.1428L17.8716 21.2598Z" fill="#1C1B1F"/>
<path fill-rule="evenodd" clip-rule="evenodd" d="M20.9165 9.44836H11.248C10.6958 9.44836 10.248 9.89608 10.248 10.4484V20.1155C10.248 20.6683 10.6966 21.1162 11.2493 21.1155L17.805 21.107L15.6027 17.2993C15.0145 16.2824 15.362 14.9812 16.3789 14.3931C17.3958 13.8049 18.697 14.1524 19.2852 15.1693L20.1432 16.6528C20.2826 16.4798 20.4556 16.329 20.6594 16.2111C21.0549 15.9824 21.4996 15.9159 21.9165 15.9912V10.4484C21.9165 9.89608 21.4688 9.44836 20.9165 9.44836Z" fill="#1C1B1F"/>
</svg>
