<svg width="32" height="32" viewBox="0 0 32 32" fill="none" xmlns="http://www.w3.org/2000/svg">
<path fill-rule="evenodd" clip-rule="evenodd" d="M0.28418 1.00085C0.28418 0.44857 0.731895 0.000854492 1.28418 0.000854492H3.03464C3.58692 0.000854492 4.03464 0.44857 4.03464 1.00085C4.03464 1.55314 3.58692 2.00085 3.03464 2.00085H2.28418V2.75131C2.28418 3.3036 1.83646 3.75131 1.28418 3.75131C0.731895 3.75131 0.28418 3.3036 0.28418 2.75131V1.00085ZM5.53555 1.00085C5.53555 0.44857 5.98327 0.000854492 6.53555 0.000854492H10.0365C10.5888 0.000854492 11.0365 0.44857 11.0365 1.00085C11.0365 1.55314 10.5888 2.00085 10.0365 2.00085H6.53555C5.98327 2.00085 5.53555 1.55314 5.53555 1.00085ZM12.5374 1.00085C12.5374 0.44857 12.9851 0.000854492 13.5374 0.000854492H17.0383C17.5906 0.000854492 18.0383 0.44857 18.0383 1.00085C18.0383 1.55314 17.5906 2.00085 17.0383 2.00085H13.5374C12.9851 2.00085 12.5374 1.55314 12.5374 1.00085ZM19.5392 1.00085C19.5392 0.44857 19.9869 0.000854492 20.5392 0.000854492H24.0401C24.5924 0.000854492 25.0401 0.44857 25.0401 1.00085C25.0401 1.55314 24.5924 2.00085 24.0401 2.00085H20.5392C19.9869 2.00085 19.5392 1.55314 19.5392 1.00085ZM26.541 1.00085C26.541 0.44857 26.9888 0.000854492 27.541 0.000854492H29.2915C29.8438 0.000854492 30.2915 0.44857 30.2915 1.00085V2.72425C30.2915 3.27654 29.8438 3.72425 29.2915 3.72425C28.7392 3.72425 28.2915 3.27654 28.2915 2.72425V2.00085H27.541C26.9888 2.00085 26.541 1.55314 26.541 1.00085ZM29.2915 5.17106C29.8438 5.17106 30.2915 5.61877 30.2915 6.17106V9.61786C30.2915 10.1701 29.8438 10.6179 29.2915 10.6179C28.7392 10.6179 28.2915 10.1701 28.2915 9.61786V6.17106C28.2915 5.61877 28.7392 5.17106 29.2915 5.17106ZM1.28418 5.25223C1.83646 5.25223 2.28418 5.69994 2.28418 6.25223V9.75314C2.28418 10.3054 1.83646 10.7531 1.28418 10.7531C0.731895 10.7531 0.28418 10.3054 0.28418 9.75314V6.25223C0.28418 5.69994 0.731895 5.25223 1.28418 5.25223ZM29.2915 12.0647C29.8438 12.0647 30.2915 12.5124 30.2915 13.0647V14.7881C30.2915 15.3403 29.8438 15.7881 29.2915 15.7881C28.7392 15.7881 28.2915 15.3403 28.2915 14.7881V13.0647C28.2915 12.5124 28.7392 12.0647 29.2915 12.0647ZM1.28418 12.2541C1.83646 12.2541 2.28418 12.7018 2.28418 13.2541V16.755C2.28418 17.3073 1.83646 17.755 1.28418 17.755C0.731895 17.755 0.28418 17.3073 0.28418 16.755V13.2541C0.28418 12.7018 0.731895 12.2541 1.28418 12.2541ZM1.28418 19.2559C1.83646 19.2559 2.28418 19.7036 2.28418 20.2559V23.7568C2.28418 24.3091 1.83646 24.7568 1.28418 24.7568C0.731895 24.7568 0.28418 24.3091 0.28418 23.7568V20.2559C0.28418 19.7036 0.731895 19.2559 1.28418 19.2559ZM1.28418 26.2577C1.83646 26.2577 2.28418 26.7054 2.28418 27.2577V28.0082H2.98303C3.53532 28.0082 3.98303 28.4559 3.98303 29.0082C3.98303 29.5605 3.53532 30.0082 2.98303 30.0082H1.28418C0.731895 30.0082 0.28418 29.5605 0.28418 29.0082V27.2577C0.28418 26.7054 0.731895 26.2577 1.28418 26.2577ZM5.38074 29.0082C5.38074 28.4559 5.82845 28.0082 6.38074 28.0082H9.77844C10.3307 28.0082 10.7784 28.4559 10.7784 29.0082C10.7784 29.5605 10.3307 30.0082 9.77844 30.0082H6.38074C5.82845 30.0082 5.38074 29.5605 5.38074 29.0082ZM12.1761 29.0082C12.1761 28.4559 12.6239 28.0082 13.1761 28.0082H14.875C15.4273 28.0082 15.875 28.4559 15.875 29.0082C15.875 29.5605 15.4273 30.0082 14.875 30.0082H13.1761C12.6239 30.0082 12.1761 29.5605 12.1761 29.0082ZM17.9219 23.1571L16.9472 23.6901C15.7915 24.3573 15.3955 25.8351 16.0627 26.9908L16.3648 27.514C18.6144 31.4104 23.0028 33.4468 27.5685 30.8108C31.8362 28.3468 32.7841 23.7359 30.5345 19.8394L28.9058 17.0185C28.6686 16.6076 28.3084 16.3119 27.8986 16.1512C27.4796 16.0787 27.0338 16.147 26.6368 16.3762C25.7395 16.8943 25.4296 18.0391 25.941 18.9384L26.4548 19.8283C26.5928 20.0674 26.5109 20.3732 26.2717 20.5113C26.1251 20.596 25.9533 20.5979 25.8106 20.5315C25.7206 20.4897 25.6421 20.4207 25.5887 20.3283L25.0813 19.4494L25.0734 19.4358L24.3069 18.1081C23.8889 17.3842 22.9633 17.1361 22.2393 17.5541C21.5234 17.9674 21.2729 18.8774 21.6717 19.5977L22.5995 21.2047L22.6072 21.2185L22.9671 21.8419C23.1052 22.081 23.0233 22.3868 22.7841 22.5249C22.545 22.6629 22.2392 22.581 22.1011 22.3419L20.8193 20.1217L20.8017 20.0908L18.3405 15.8278C17.9225 15.1038 16.9968 14.8558 16.2729 15.2738C15.549 15.6917 15.3009 16.6174 15.7189 17.3413L20.2852 25.2504C20.4233 25.4896 20.3413 25.7954 20.1022 25.9334C19.863 26.0715 19.5572 25.9896 19.4192 25.7504L17.9219 23.1571ZM8.24082 6.95799H22.334C22.8863 6.95799 23.334 7.4057 23.334 7.95799V15.9819C22.7589 15.878 22.1454 15.9696 21.5999 16.2851C21.3187 16.4477 21.0801 16.6556 20.888 16.8943L19.7046 14.8483C18.8933 13.4458 17.0988 12.9664 15.6962 13.7776C14.2937 14.5888 13.8144 16.3834 14.6256 17.7859L17.6632 23.0376L8.24212 23.0499C7.68933 23.0506 7.24082 22.6027 7.24082 22.0499V7.95799C7.24082 7.4057 7.68854 6.95799 8.24082 6.95799Z" fill="#111827"/>
</svg>
