<svg width="33" height="33" viewBox="0 0 33 33" fill="none" xmlns="http://www.w3.org/2000/svg">
<path fill-rule="evenodd" clip-rule="evenodd" d="M20.1479 27.855C19.1328 28.134 18.0639 28.283 16.9602 28.283C14.1932 28.283 11.6449 27.3464 9.61507 25.7731C9.93238 26.0169 10.23 26.2222 10.6523 26.4921C12.3433 23.6908 14.7715 21.3404 17.6214 19.7327C18.3964 19.234 19.2356 18.8312 20.099 18.5078C20.4151 19.8918 20.5762 21.3126 20.5756 22.7441V22.7453C20.5767 24.2813 20.3919 25.8117 20.0254 27.3032C20.0235 27.3112 19.9666 27.4697 19.9101 27.6273L19.9101 27.6273L19.91 27.6275L19.9093 27.6295C19.8538 27.7844 19.7988 27.9377 19.7969 27.9455C19.9268 27.9134 20.0408 27.884 20.1479 27.855ZM20.5672 27.7314C20.4257 27.7764 20.2932 27.8155 20.1479 27.855C20.2887 27.8163 20.4285 27.7751 20.5672 27.7314ZM20.5672 27.7314C20.7059 27.6877 20.8435 27.6416 20.98 27.5931C20.825 27.6469 20.6925 27.6915 20.5672 27.7314ZM20.9858 27.5911C20.9853 27.5913 20.9847 27.5915 20.9842 27.5917C20.9828 27.5921 20.9814 27.5926 20.98 27.5931C20.9819 27.5924 20.9839 27.5918 20.9858 27.5911ZM20.9858 27.5911C21.2538 27.4957 21.5173 27.391 21.7761 27.2775C21.5175 27.3863 21.184 27.516 20.9858 27.5911ZM22.097 27.131C22.0342 27.1658 21.9161 27.2186 21.7761 27.2775C21.8839 27.2302 21.9909 27.1814 22.097 27.131ZM22.0156 17.9197C22.3868 19.4942 22.5763 21.113 22.5756 22.7443C22.5766 24.2149 22.4235 25.6808 22.1191 27.1182C22.1128 27.1221 22.1054 27.1264 22.097 27.131C26.1545 25.2063 28.9602 21.0723 28.9602 16.283C28.9602 16.0675 28.9545 15.8533 28.9433 15.6406C28.9424 15.5775 28.9413 15.5198 28.9402 15.4689L28.933 15.4679C28.69 11.8459 26.8399 8.66403 24.0897 6.62949C23.9594 6.531 23.8175 6.42686 23.656 6.31091L23.6495 6.3189C21.7383 5.03324 19.4369 4.28296 16.9602 4.28296C15.414 4.28296 13.936 4.57541 12.5787 5.10802C12.257 5.22134 12.0326 5.32321 11.7051 5.4918C11.5048 5.5895 11.3077 5.69261 11.1139 5.80093C10.9809 5.8736 10.8438 5.95045 10.675 6.04545C10.6767 6.04642 10.6804 6.04862 10.6859 6.05191C8.16318 7.60231 6.25763 10.0596 5.42343 12.9698L5.41797 12.9688C5.38506 13.0953 5.35519 13.2126 5.32783 13.3238C5.08777 14.2703 4.96021 15.2617 4.96021 16.283C4.96021 19.8809 6.54365 23.109 9.05168 25.3084L9.04688 25.3164C9.25852 25.492 9.4398 25.6384 9.61507 25.7731C9.42252 25.6238 9.23464 25.4689 9.05168 25.3084C10.9203 22.2158 13.4914 19.7663 16.6388 17.9908C17.3307 17.5973 18.3529 17.124 19.5865 16.6869C19.1932 15.5162 18.685 14.3821 18.0666 13.3017L18.0257 13.2306C18.6303 12.9414 19.2181 12.6252 19.7879 12.2828L19.8024 12.3082C20.4939 13.5162 21.0606 14.7849 21.4974 16.0949C23.7439 15.4961 26.3827 15.1307 28.933 15.4679C28.9368 15.5254 28.9403 15.5829 28.9433 15.6406C28.951 16.1502 28.9509 17.0058 28.9027 17.377C27.493 17.2291 24.7797 17.2394 22.0156 17.9197ZM16.9236 11.5387C15.4114 9.46712 13.4909 7.71746 11.2731 6.40194L11.0855 6.29012L11.085 6.2898C10.9326 6.19891 10.7357 6.0815 10.6859 6.05191C10.8267 5.9654 10.9694 5.88171 11.1139 5.80093C11.2942 5.70241 11.4671 5.61159 11.7015 5.49365C11.7027 5.49303 11.7039 5.49242 11.7051 5.4918C11.9901 5.35273 12.2815 5.22462 12.5787 5.10802C12.6595 5.07954 12.7465 5.05033 12.8428 5.01917C15.1451 6.48219 17.1368 8.37784 18.7096 10.5967C18.1942 10.9047 17.6625 11.189 17.1153 11.449C17.0515 11.4792 16.9876 11.5091 16.9236 11.5387ZM16.9236 11.5387C16.9236 11.5387 16.9236 11.5387 16.9236 11.5387C16.9877 11.5092 17.0515 11.4792 17.1153 11.449C17.6625 11.1891 18.1943 10.9047 18.7096 10.5967C18.7096 10.5967 18.7096 10.5967 18.7096 10.5967C20.5907 9.47243 22.2533 8.03318 23.6495 6.3189C23.7987 6.41921 23.9454 6.52277 24.0897 6.62949C24.4968 6.9373 24.7905 7.18998 25.2113 7.57578C23.2436 9.99425 20.7896 11.9179 17.9733 13.2555C15.1572 14.5931 12.0782 15.2856 8.96051 15.2827C7.63328 15.2832 6.34289 15.1778 5.03906 14.9297C5.11558 14.2902 5.18964 13.8854 5.32783 13.3238C5.35794 13.2051 5.38981 13.0871 5.42343 12.9698C6.60212 13.1937 7.76064 13.2832 8.96055 13.2827L8.962 13.2827C11.7117 13.2853 14.4283 12.6899 16.9236 11.5387Z" fill="#1C1B1F"/>
</svg>
