<svg width="32" height="32" viewBox="0 0 32 32" fill="none" xmlns="http://www.w3.org/2000/svg">
<path fill-rule="evenodd" clip-rule="evenodd" d="M20.2501 31.4294C18.8967 31.8013 17.4716 32 16 32C12.3107 32 8.91298 30.7513 6.2065 28.6535C6.62958 28.9786 7.02638 29.2523 7.58952 29.6123C9.84411 25.8772 13.0817 22.7433 16.8816 20.5997C17.985 19.8897 19.1861 19.3254 20.4198 18.8802C20.3414 18.9085 20.2632 18.9373 20.1851 18.9665C20.6065 20.8119 20.8214 22.7062 20.8205 24.6149V24.6164C20.822 26.6644 20.5756 28.705 20.0869 30.6937C20.0843 30.7043 20.0088 30.9149 19.9336 31.1247L19.9332 31.1257L19.9332 31.1258C19.8588 31.3333 19.7848 31.5396 19.7822 31.55C19.9554 31.5072 20.1074 31.4681 20.2501 31.4294ZM20.8094 31.2646C20.6206 31.3247 20.444 31.3767 20.2501 31.4294C20.4379 31.3778 20.6244 31.3228 20.8094 31.2646ZM20.8094 31.2646C20.9943 31.2064 21.1777 31.1449 21.3596 31.0802C21.1531 31.1519 20.9764 31.2114 20.8094 31.2646ZM21.3675 31.0775C21.3668 31.0777 21.366 31.078 21.3653 31.0783C21.3634 31.0789 21.3615 31.0796 21.3596 31.0802C21.3622 31.0793 21.3649 31.0784 21.3675 31.0775ZM21.3675 31.0775C21.7248 30.9503 22.0762 30.8107 22.4212 30.6594C22.0764 30.8045 21.6317 30.9774 21.3675 31.0775ZM22.8491 30.4641C22.7652 30.5105 22.6078 30.5808 22.4212 30.6594C22.565 30.5963 22.7076 30.5312 22.8491 30.4641ZM21.3001 18.5839C21.779 18.4338 22.2604 18.3005 22.7406 18.1823C23.2355 20.2817 23.4881 22.44 23.4872 24.6151C23.4885 26.5759 23.2843 28.5305 22.8785 30.4469C22.8701 30.4522 22.8602 30.4579 22.8491 30.4641C28.259 27.8978 32 22.3858 32 16C32 15.7127 31.9924 15.4271 31.9775 15.1435C31.9762 15.0594 31.9748 14.9824 31.9733 14.9146L31.9637 14.9133C31.6398 10.0838 29.1729 5.84135 25.5058 3.12864C25.3322 2.99734 25.143 2.85851 24.9278 2.70394L24.9191 2.71459C22.3707 1.00037 19.3022 0 16 0C13.9383 0 11.9677 0.389936 10.1579 1.10008C9.72902 1.25118 9.42988 1.387 8.99317 1.6118C8.7262 1.74205 8.46339 1.87952 8.205 2.02394C8.02763 2.12084 7.84487 2.22332 7.61979 2.34999C7.62198 2.35127 7.62693 2.35421 7.63432 2.3586C4.27064 4.4258 1.7299 7.70225 0.617632 11.5824L0.610352 11.5811C0.566476 11.7497 0.526642 11.9062 0.490161 12.0544C0.170082 13.3165 0 14.6384 0 16C0 20.7973 2.11125 25.1014 5.45529 28.034L5.44889 28.0445C5.73109 28.2787 5.97281 28.474 6.2065 28.6535C5.94977 28.4545 5.69925 28.2479 5.45529 28.034C7.94683 23.9105 11.3749 20.6444 15.5714 18.2771C16.494 17.7524 17.8569 17.1214 19.5018 16.5386C18.9773 14.9776 18.2998 13.4655 17.4752 12.025L17.4207 11.9302C18.2268 11.5446 19.0105 11.1229 19.7702 10.6664L19.7896 10.7003C20.7115 12.3109 21.4672 14.0026 22.0497 15.7492C21.5696 15.8771 21.1031 16.0131 20.6526 16.1544C21.1031 16.0131 21.5697 15.8771 22.0497 15.7492C22.0497 15.7492 22.0497 15.7492 22.0497 15.7492C25.045 14.9509 28.5634 14.4636 31.9637 14.9133C31.9688 14.9899 31.9734 15.0666 31.9775 15.1435C31.9877 15.823 31.9876 16.9638 31.9233 17.4587C29.7989 17.2359 25.4537 17.2823 21.3001 18.5839ZM15.9512 9.67429C13.935 6.91221 11.3743 4.57933 8.41716 2.82531L8.16693 2.67611L8.16502 2.67497C7.96202 2.5539 7.70058 2.39797 7.63432 2.3586C7.82202 2.24325 8.01228 2.13166 8.205 2.02394C8.44541 1.8926 8.6759 1.77149 8.9884 1.61425C8.98999 1.61343 8.99158 1.61261 8.99317 1.6118C9.37323 1.42637 9.76173 1.25555 10.1579 1.10008C10.2657 1.06211 10.3817 1.02317 10.5102 0.981608C13.5799 2.9323 16.2355 5.45984 18.3326 8.41827C17.6454 8.82896 16.9364 9.20812 16.2068 9.55466C16.1218 9.59502 16.0366 9.6349 15.9512 9.67429ZM15.9512 9.67429C15.9512 9.6743 15.9512 9.6743 15.9512 9.67431C16.0366 9.63492 16.1218 9.59505 16.2067 9.55469C16.9364 9.20815 17.6454 8.82898 18.3326 8.41829C18.3326 8.41829 18.3326 8.41828 18.3326 8.41827C20.8407 6.91929 23.0574 5.0003 24.9191 2.71459C25.1179 2.84831 25.3135 2.98637 25.5058 3.12864C26.0488 3.53909 26.4404 3.876 27.0014 4.39042C24.3779 7.61505 21.1059 10.1799 17.3508 11.9634C13.596 13.7469 9.4906 14.6702 5.33374 14.6663C3.5641 14.667 1.84358 14.5265 0.105143 14.1956C0.207168 13.343 0.305904 12.8032 0.490161 12.0544C0.530305 11.8962 0.572808 11.7388 0.617632 11.5824C2.18922 11.881 3.73392 12.0004 5.3338 11.9996H5.33573C9.00206 12.0032 12.6241 11.2093 15.9512 9.67429Z" fill="#111827"/>
</svg>
