<svg width="33" height="33" viewBox="0 0 33 33" fill="none" xmlns="http://www.w3.org/2000/svg">
<path fill-rule="evenodd" clip-rule="evenodd" d="M20.1479 27.9965C19.1328 28.2754 18.0639 28.4244 16.9602 28.4244C14.1932 28.4244 11.6449 27.4879 9.61507 25.9146C9.93238 26.1584 10.23 26.3636 10.6523 26.6336C12.3433 23.8323 14.7715 21.4819 17.6214 19.8742C18.3964 19.3755 19.2356 18.9727 20.099 18.6493C20.4151 20.0333 20.5762 21.4541 20.5756 22.8856V22.8867C20.5767 24.4227 20.3919 25.9532 20.0254 27.4447C20.0235 27.4526 19.9666 27.6112 19.9101 27.7687L19.9101 27.7688L19.91 27.7689L19.9093 27.771C19.8538 27.9259 19.7988 28.0792 19.7969 28.087C19.9268 28.0548 20.0408 28.0255 20.1479 27.9965ZM20.5672 27.8729C20.4257 27.9179 20.2932 27.957 20.1479 27.9965C20.2887 27.9577 20.4285 27.9165 20.5672 27.8729ZM20.5672 27.8729C20.7059 27.8292 20.8435 27.7831 20.98 27.7346C20.825 27.7884 20.6925 27.833 20.5672 27.8729ZM20.9858 27.7325C20.9853 27.7327 20.9847 27.7329 20.9842 27.7331C20.9828 27.7336 20.9814 27.7341 20.98 27.7346C20.9819 27.7339 20.9839 27.7332 20.9858 27.7325ZM20.9858 27.7325C21.2538 27.6371 21.5173 27.5325 21.7761 27.419C21.5175 27.5278 21.184 27.6575 20.9858 27.7325ZM22.097 27.2725C22.0342 27.3073 21.9161 27.3601 21.7761 27.419C21.8839 27.3717 21.9909 27.3228 22.097 27.2725ZM22.0156 18.0611C22.3868 19.6357 22.5763 21.2545 22.5756 22.8858C22.5766 24.3563 22.4235 25.8223 22.1191 27.2596C22.1128 27.2636 22.1054 27.2679 22.097 27.2725C26.1545 25.3478 28.9602 21.2138 28.9602 16.4244C28.9602 16.2089 28.9545 15.9948 28.9433 15.7821C28.9424 15.719 28.9413 15.6612 28.9402 15.6104L28.933 15.6094C28.69 11.9873 26.8399 8.80551 24.0897 6.77097C23.9594 6.67248 23.8175 6.56834 23.656 6.45239L23.6495 6.46038C21.7383 5.17472 19.4369 4.42444 16.9602 4.42444C15.414 4.42444 13.936 4.71689 12.5787 5.2495C12.257 5.36282 12.0326 5.46469 11.7051 5.63328C11.5048 5.73098 11.3077 5.83408 11.1139 5.94241C10.9809 6.01508 10.8438 6.09193 10.675 6.18693C10.6767 6.18789 10.6804 6.1901 10.6859 6.19339C8.16318 7.74379 6.25763 10.2011 5.42343 13.1113L5.41797 13.1102C5.38506 13.2367 5.35519 13.3541 5.32783 13.4652C5.08777 14.4118 4.96021 15.4032 4.96021 16.4244C4.96021 20.0224 6.54365 23.2505 9.05168 25.4499L9.04688 25.4578C9.25852 25.6335 9.4398 25.7799 9.61507 25.9146C9.42252 25.7653 9.23464 25.6104 9.05168 25.4499C10.9203 22.3573 13.4914 19.9078 16.6388 18.1323C17.3307 17.7387 18.3529 17.2655 19.5865 16.8284C19.1932 15.6577 18.685 14.5236 18.0666 13.4432L18.0257 13.3721C18.6303 13.0829 19.2181 12.7666 19.7879 12.4242L19.8024 12.4496C20.4939 13.6576 21.0606 14.9264 21.4974 16.2363C23.7439 15.6376 26.3827 15.2722 28.933 15.6094C28.9368 15.6668 28.9403 15.7244 28.9433 15.7821C28.951 16.2917 28.9509 17.1473 28.9027 17.5185C27.493 17.3706 24.7797 17.3809 22.0156 18.0611ZM16.9236 11.6802C15.4114 9.6086 13.4909 7.85894 11.2731 6.54342L11.0855 6.4316L11.085 6.43128C10.9326 6.34039 10.7357 6.22298 10.6859 6.19339C10.8267 6.10688 10.9694 6.02319 11.1139 5.94241C11.2942 5.84389 11.4671 5.75306 11.7015 5.63513C11.7027 5.63451 11.7039 5.6339 11.7051 5.63328C11.9901 5.49421 12.2815 5.3661 12.5787 5.2495C12.6595 5.22102 12.7465 5.19181 12.8428 5.16064C15.1451 6.62367 17.1368 8.51932 18.7096 10.7381C18.1942 11.0462 17.6625 11.3305 17.1153 11.5904C17.0515 11.6207 16.9876 11.6506 16.9236 11.6802ZM16.9236 11.6802C16.9236 11.6802 16.9236 11.6802 16.9236 11.6802C16.9877 11.6506 17.0515 11.6207 17.1153 11.5905C17.6625 11.3306 18.1943 11.0462 18.7096 10.7382C18.7096 10.7382 18.7096 10.7381 18.7096 10.7381C20.5907 9.61391 22.2533 8.17466 23.6495 6.46038C23.7987 6.56069 23.9454 6.66425 24.0897 6.77097C24.4968 7.07878 24.7905 7.33146 25.2113 7.71726C23.2436 10.1357 20.7896 12.0594 17.9733 13.397C15.1572 14.7346 12.0782 15.4271 8.96051 15.4241C7.63328 15.4247 6.34289 15.3193 5.03906 15.0712C5.11558 14.4317 5.18964 14.0268 5.32783 13.4652C5.35794 13.3465 5.38981 13.2285 5.42343 13.1113C6.60212 13.3352 7.76064 13.4247 8.96055 13.4241L8.962 13.4241C11.7117 13.4268 14.4283 12.8314 16.9236 11.6802Z" fill="#1C1B1F"/>
</svg>
