<svg width="33" height="33" viewBox="0 0 33 33" fill="none" xmlns="http://www.w3.org/2000/svg">
<path d="M26.1905 19.0522C26.1905 10.7445 16.9598 4.28296 16.9598 4.28296C16.9598 4.28296 7.729 10.7445 7.729 19.0522C7.729 21.5003 8.70153 23.8482 10.4326 25.5793C12.1637 27.3104 14.5116 28.283 16.9598 28.283C19.4079 28.283 21.7558 27.3104 23.4869 25.5793C25.218 23.8482 26.1905 21.5003 26.1905 19.0522Z" stroke="#1C1B1F" stroke-width="2" stroke-linecap="round" stroke-linejoin="round"/>
<path d="M16.96 4.28296C16.96 4.28296 26.1907 10.7445 26.1907 19.0522C26.1907 21.5003 25.2182 23.8482 23.4871 25.5793C21.756 27.3104 19.4081 28.283 16.96 28.283V4.28296Z" fill="#1C1B1F"/>
</svg>
