<svg width="33" height="33" viewBox="0 0 33 33" fill="none" xmlns="http://www.w3.org/2000/svg">
<path fill-rule="evenodd" clip-rule="evenodd" d="M16.9603 4.28296L17.5337 3.46373C17.1894 3.2227 16.7311 3.2227 16.3868 3.46373L16.9603 4.28296ZM16.1656 6.18432C16.4739 5.92224 16.7436 5.70442 16.9603 5.53446C17.1769 5.70442 17.4466 5.92224 17.7549 6.18432C18.5925 6.89622 19.708 7.92841 20.821 9.20837C23.0715 11.7964 25.191 15.2584 25.191 19.0522C25.191 19.0522 25.191 19.0522 25.191 19.0522H8.72949C8.72949 19.0522 8.72949 19.0522 8.72949 19.0522C8.72949 15.2584 10.849 11.7964 13.0995 9.20837C14.2125 7.92841 15.3281 6.89622 16.1656 6.18432ZM16.9603 4.28296C16.3868 3.46373 16.3865 3.46392 16.3862 3.46414L16.3854 3.4647L16.3832 3.46627L16.3762 3.47119L16.3524 3.4881C16.3323 3.5025 16.3036 3.52314 16.267 3.54987C16.1938 3.60331 16.0887 3.68117 15.9564 3.78231C15.6918 3.98452 15.3176 4.28022 14.8703 4.66044C13.9771 5.41969 12.785 6.52213 11.5903 7.89601C9.22534 10.6157 6.72949 14.5383 6.72949 19.0522C6.72949 21.7656 7.80737 24.3678 9.72602 26.2864C11.6447 28.2051 14.2469 29.283 16.9603 29.283C19.6736 29.283 22.2759 28.2051 24.1945 26.2864C26.1131 24.3678 27.191 21.7656 27.191 19.0522C27.191 14.5383 24.6952 10.6157 22.3303 7.89601C21.1356 6.52213 19.9435 5.41969 19.0502 4.66044C18.6029 4.28022 18.2287 3.98452 17.9641 3.78231C17.8318 3.68117 17.7268 3.60331 17.6535 3.54987C17.6169 3.52314 17.5883 3.5025 17.5681 3.4881L17.5443 3.47119L17.5373 3.46627L17.5351 3.4647L17.5343 3.46414C17.534 3.46392 17.5337 3.46373 16.9603 4.28296Z" fill="#1C1B1F"/>
</svg>
