<svg width="32" height="32" viewBox="0 0 32 32" fill="none" xmlns="http://www.w3.org/2000/svg">
<path fill-rule="evenodd" clip-rule="evenodd" d="M16.0002 1.00085L16.5736 0.181623C16.2293 -0.0594015 15.771 -0.0594015 15.4267 0.181623L16.0002 1.00085ZM14.845 3.18699C15.3099 2.79186 15.7052 2.47639 16.0002 2.24838C16.2951 2.47639 16.6904 2.79186 17.1553 3.18699C18.2091 4.08273 19.613 5.38165 21.0144 6.99325C23.8416 10.2445 26.5379 14.6293 26.5379 19.4613C26.5379 19.4613 26.5379 19.4613 26.5379 19.4613H5.4624C5.4624 19.4613 5.4624 19.4613 5.4624 19.4613C5.4624 14.6293 8.15869 10.2445 10.9859 6.99325C12.3873 5.38165 13.7912 4.08273 14.845 3.18699ZM16.0002 1.00085C15.4267 0.181623 15.4264 0.181823 15.4261 0.182054L15.4252 0.182671L15.4227 0.184462L15.4144 0.190265L15.3857 0.210695C15.3612 0.228215 15.326 0.25351 15.281 0.286405C15.1909 0.352188 15.061 0.448406 14.8972 0.573651C14.5695 0.824068 14.1052 1.19097 13.5497 1.66311C12.4402 2.6062 10.9597 3.97538 9.47668 5.68089C6.53499 9.06382 3.4624 13.9092 3.4624 19.4613C3.4624 22.7865 4.78334 25.9755 7.13463 28.3268C9.48591 30.6781 12.6749 31.999 16.0002 31.999C19.3254 31.999 22.5144 30.6781 24.8657 28.3268C27.217 25.9755 28.5379 22.7865 28.5379 19.4613C28.5379 13.9092 25.4653 9.06382 22.5236 5.68089C21.0406 3.97538 19.5601 2.6062 18.4506 1.66311C17.8951 1.19097 17.4308 0.824068 17.1032 0.573651C16.9393 0.448406 16.8095 0.352188 16.7193 0.286405C16.6743 0.25351 16.6391 0.228215 16.6146 0.210695L16.5859 0.190265L16.5777 0.184462L16.5751 0.182671L16.5742 0.182054C16.5739 0.181823 16.5736 0.181623 16.0002 1.00085Z" fill="#111827"/>
</svg>
