<svg width="32" height="33" viewBox="0 0 32 33" fill="none" xmlns="http://www.w3.org/2000/svg">
<path fill-rule="evenodd" clip-rule="evenodd" d="M16.5591 0.690988C18.9754 2.54236 28.3938 10.3826 28.3938 20.1065C28.3938 23.3936 27.088 26.5461 24.7636 28.8705C22.4393 31.1948 19.2868 32.5006 15.9996 32.5006C12.7125 32.5006 9.55999 31.1948 7.23564 28.8705C4.91128 26.5461 3.60547 23.3936 3.60547 20.1065C3.60547 10.3826 13.0239 2.54236 15.4402 0.690988C15.7738 0.435361 16.2255 0.435361 16.5591 0.690988ZM24.3135 21.5311C24.4072 20.9868 24.042 20.4696 23.4977 20.3759C22.9534 20.2822 22.4362 20.6475 22.3425 21.1918C22.117 22.5019 21.4904 23.7097 20.5491 24.6486C19.6079 25.5874 18.3985 26.2109 17.0878 26.4331C16.5432 26.5254 16.1767 27.0417 16.269 27.5862C16.3613 28.1307 16.8775 28.4973 17.422 28.405C19.141 28.1136 20.7271 27.2958 21.9615 26.0646C23.196 24.8333 24.0178 23.2493 24.3135 21.5311Z" fill="#111827"/>
</svg>
