<svg width="32" height="32" viewBox="0 0 32 32" fill="none" xmlns="http://www.w3.org/2000/svg">
<path fill-rule="evenodd" clip-rule="evenodd" d="M16.5735 0.180524L16.0002 0.999606C16.5735 0.180524 16.5738 0.180724 16.5741 0.180955L16.575 0.181573L16.5776 0.183364L16.5858 0.189167L16.6145 0.209598C16.639 0.227119 16.6742 0.252416 16.7193 0.285313C16.8094 0.351101 16.9392 0.447326 17.1031 0.57258C17.4308 0.823016 17.8951 1.18994 18.4506 1.66212C19.5602 2.60528 21.0408 3.97456 22.524 5.6802C25.4659 9.06338 28.5387 13.9091 28.5387 19.4616C28.5387 22.787 27.2177 25.9763 24.8662 28.3277C22.5148 30.6792 19.3255 32.0002 16.0001 32.0002C12.6746 32.0002 9.48536 30.6792 7.13391 28.3277C4.78246 25.9763 3.46143 22.787 3.46143 19.4616C3.46143 13.9091 6.53424 9.06338 9.47614 5.6802C10.9593 3.97456 12.4399 2.60528 13.5495 1.66212C14.105 1.18994 14.5694 0.823016 14.897 0.57258C15.0609 0.447326 15.1907 0.351101 15.2809 0.285313C15.3259 0.252416 15.3611 0.227119 15.3856 0.209598L15.4143 0.189167L15.4226 0.183364L15.4251 0.181573L15.426 0.180955C15.4263 0.180724 15.4266 0.180524 16.0001 0.999756L15.4266 0.180524C15.7709 -0.0605002 16.2292 -0.0605002 16.5735 0.180524ZM16.0001 30.0002L16.0001 2.24728C15.7051 2.47532 15.3097 2.79082 14.8448 3.186C13.7909 4.08181 12.3868 5.38084 10.9854 6.99255C8.15793 10.2441 5.46143 14.6292 5.46143 19.4616C5.46143 22.2566 6.57174 24.9371 8.54812 26.9135C10.5245 28.8899 13.205 30.0002 16.0001 30.0002Z" fill="#111827"/>
</svg>
