<svg width="33" height="33" viewBox="0 0 33 33" fill="none" xmlns="http://www.w3.org/2000/svg">
<path fill-rule="evenodd" clip-rule="evenodd" d="M17.5163 5.20021C19.5118 6.75481 26.1905 12.4856 26.1905 19.5522C26.1905 22.0003 25.218 24.3482 23.4869 26.0793C21.7558 27.8104 19.4079 28.783 16.9598 28.783C14.5116 28.783 12.1637 27.8104 10.4326 26.0793C8.70153 24.3482 7.729 22.0003 7.729 19.5522C7.729 12.4856 14.4077 6.75481 16.4033 5.20021C16.7348 4.94192 17.1847 4.94192 17.5163 5.20021ZM23.4031 20.6565C23.4968 20.1122 23.1315 19.595 22.5873 19.5013C22.043 19.4076 21.5258 19.7729 21.4321 20.3172C21.2731 21.2408 20.8313 22.0924 20.1677 22.7543C19.5041 23.4162 18.6515 23.8558 17.7274 24.0124C17.1829 24.1047 16.8163 24.621 16.9086 25.1655C17.0009 25.71 17.5171 26.0766 18.0617 25.9843C19.394 25.7584 20.6234 25.1246 21.5801 24.1703C22.5369 23.216 23.1739 21.9882 23.4031 20.6565Z" fill="#1C1B1F"/>
</svg>
