<svg width="32" height="33" viewBox="0 0 32 33" fill="none" xmlns="http://www.w3.org/2000/svg">
<path fill-rule="evenodd" clip-rule="evenodd" d="M8.54812 5.58645C10.5245 3.61007 13.205 2.49976 16.0001 2.49976C18.7951 2.49976 21.4756 3.61007 23.452 5.58645C25.4284 7.56283 26.5387 10.2434 26.5387 13.0384C26.5387 13.5907 26.9864 14.0384 27.5387 14.0384C28.091 14.0384 28.5387 13.5907 28.5387 13.0384C28.5387 9.71294 27.2177 6.52369 24.8662 4.17224C22.5148 1.82079 19.3255 0.499756 16.0001 0.499756C12.6746 0.499756 9.48536 1.82079 7.13391 4.17224C4.78246 6.52369 3.46143 9.71294 3.46143 13.0384C3.46143 15.1659 3.80373 16.7099 4.36596 17.919C4.92923 19.1305 5.68091 19.9324 6.35794 20.5954C6.46588 20.7011 6.56972 20.8015 6.66965 20.8982L6.66994 20.8984C7.21875 21.4291 7.64951 21.8456 7.99254 22.399C8.3684 23.0054 8.65381 23.8181 8.65381 25.154C8.65385 26.6668 9.1209 28.1426 9.99116 29.38C10.8614 30.6174 12.0925 31.556 13.5161 32.0675C14.9398 32.579 16.4866 32.6386 17.9454 32.238C19.4042 31.8375 20.7037 30.9963 21.6666 29.8295C22.0181 29.4035 21.9577 28.7732 21.5317 28.4217C21.1057 28.0702 20.4755 28.1306 20.1239 28.5566C19.4232 29.4057 18.4775 30.0179 17.4159 30.3094C16.3542 30.6009 15.2285 30.5576 14.1924 30.1853C13.1563 29.813 12.2604 29.13 11.6271 28.2295C10.9937 27.3289 10.6538 26.2549 10.6538 25.154C10.6538 23.4977 10.2902 22.3096 9.69246 21.3453C9.20676 20.5617 8.57343 19.9528 8.0267 19.4271L8.02663 19.427C7.93399 19.3379 7.84383 19.2513 7.75729 19.1665C7.13624 18.5583 6.58981 17.9582 6.17951 17.0758C5.76817 16.1911 5.46143 14.9494 5.46143 13.0384C5.46143 10.2434 6.57174 7.56283 8.54812 5.58645ZM16.0021 6.27091C14.2068 6.27091 12.485 6.9841 11.2155 8.2536C9.94602 9.52309 9.23282 11.2449 9.23282 13.0402C9.23282 13.5925 9.68054 14.0402 10.2328 14.0402C10.7851 14.0402 11.2328 13.5925 11.2328 13.0402C11.2328 11.7753 11.7353 10.5622 12.6297 9.66781C13.5241 8.77339 14.7372 8.27091 16.0021 8.27091C17.267 8.27091 18.4801 8.77339 19.3746 9.66781C20.269 10.5622 20.7715 11.7753 20.7715 13.0402C20.7715 14.2682 20.1275 14.8631 19.1014 15.7426L19.0463 15.7898C18.0582 16.636 16.7329 17.7708 16.7329 19.9634C16.7329 20.9937 17.1422 21.9818 17.8707 22.7103C18.5992 23.4388 19.5873 23.8481 20.6176 23.8481C21.6479 23.8481 22.636 23.4388 23.3645 22.7103C24.093 21.9818 24.5023 20.9937 24.5023 19.9634C24.5023 19.4111 24.0545 18.9634 23.5023 18.9634C22.95 18.9634 22.5023 19.4111 22.5023 19.9634C22.5023 20.4633 22.3037 20.9426 21.9503 21.2961C21.5968 21.6495 21.1174 21.8481 20.6176 21.8481C20.1178 21.8481 19.6384 21.6495 19.2849 21.2961C18.9315 20.9426 18.7329 20.4633 18.7329 19.9634C18.7329 18.7354 19.3769 18.1406 20.403 17.2611L20.4581 17.2139C21.4462 16.3677 22.7715 15.2328 22.7715 13.0402C22.7715 11.2449 22.0583 9.52309 20.7888 8.2536C19.5193 6.9841 17.7975 6.27091 16.0021 6.27091Z" fill="#111827"/>
</svg>
