<svg width="33" height="33" viewBox="0 0 33 33" fill="none" xmlns="http://www.w3.org/2000/svg">
<path fill-rule="evenodd" clip-rule="evenodd" d="M11.1397 8.1937C12.6833 6.65013 14.7768 5.78296 16.9598 5.78296C19.1427 5.78296 21.2362 6.65013 22.7798 8.1937C24.3234 9.73726 25.1905 11.8308 25.1905 14.0137C25.1905 14.566 25.6383 15.0137 26.1905 15.0137C26.7428 15.0137 27.1905 14.566 27.1905 14.0137C27.1905 11.3004 26.1127 8.69812 24.194 6.77948C22.2754 4.86084 19.6731 3.78296 16.9598 3.78296C14.2464 3.78296 11.6442 4.86084 9.72553 6.77948C7.80689 8.69812 6.729 11.3004 6.729 14.0137C6.729 15.7373 7.0064 17.0027 7.47127 18.0025C7.93718 19.0045 8.55903 19.6663 9.10625 20.2022C9.1949 20.289 9.27938 20.3707 9.36001 20.4487C9.79882 20.8733 10.1235 21.1875 10.3839 21.6075C10.6623 22.0568 10.8829 22.6694 10.8829 23.706C10.8829 24.9574 11.2692 26.1783 11.9891 27.2019C12.709 28.2255 13.7273 29.0019 14.905 29.425C16.0827 29.8481 17.3623 29.8974 18.569 29.5661C19.7757 29.2347 20.8507 28.5389 21.6472 27.5737C21.9987 27.1477 21.9383 26.5175 21.5123 26.1659C21.0863 25.8144 20.4561 25.8748 20.1046 26.3008C19.5702 26.9483 18.849 27.4151 18.0394 27.6374C17.2298 27.8597 16.3714 27.8267 15.5813 27.5428C14.7912 27.2589 14.108 26.7381 13.625 26.0513C13.1421 25.3646 12.8829 24.5456 12.8829 23.706C12.8829 22.349 12.5841 21.361 12.0838 20.5538C11.6807 19.9036 11.1535 19.397 10.7168 18.9774C10.6435 18.907 10.5728 18.839 10.5056 18.7733C10.0144 18.2922 9.59775 17.8323 9.28482 17.1593C8.97084 16.484 8.729 15.5209 8.729 14.0137C8.729 11.8308 9.59617 9.73726 11.1397 8.1937ZM16.9601 8.39844C15.4708 8.39844 14.0425 8.99006 12.9894 10.0431C11.9363 11.0962 11.3447 12.5245 11.3447 14.0138C11.3447 14.5661 11.7924 15.0138 12.3447 15.0138C12.897 15.0138 13.3447 14.5661 13.3447 14.0138C13.3447 13.055 13.7256 12.1354 14.4036 11.4574C15.0817 10.7793 16.0013 10.3984 16.9601 10.3984C17.919 10.3984 18.8386 10.7793 19.5166 11.4574C20.1946 12.1354 20.5755 13.055 20.5755 14.0138C20.5755 14.8956 20.1334 15.3174 19.3093 16.0238L19.2577 16.068C18.4681 16.7439 17.3447 17.7055 17.3447 19.5523C17.3447 20.4295 17.6932 21.2709 18.3135 21.8912C18.9338 22.5115 19.7752 22.86 20.6524 22.86C21.5297 22.86 22.371 22.5115 22.9913 21.8912C23.6116 21.2709 23.9601 20.4295 23.9601 19.5523C23.9601 19 23.5124 18.5523 22.9601 18.5523C22.4078 18.5523 21.9601 19 21.9601 19.5523C21.9601 19.8991 21.8223 20.2317 21.5771 20.477C21.3319 20.7222 20.9992 20.86 20.6524 20.86C20.3056 20.86 19.973 20.7222 19.7277 20.477C19.4825 20.2317 19.3447 19.8991 19.3447 19.5523C19.3447 18.6705 19.7868 18.2487 20.6109 17.5423L20.6625 17.4981C21.4521 16.8222 22.5755 15.8606 22.5755 14.0138C22.5755 12.5245 21.9839 11.0962 20.9308 10.0431C19.8777 8.99006 18.4494 8.39844 16.9601 8.39844Z" fill="#1C1B1F"/>
</svg>
