<svg width="33" height="33" viewBox="0 0 33 33" fill="none" xmlns="http://www.w3.org/2000/svg">
<path fill-rule="evenodd" clip-rule="evenodd" d="M16.8683 5.78344C18.3233 5.76764 19.7565 6.13773 21.0219 6.85602C22.2873 7.57432 23.3398 8.61516 24.0721 9.87253C24.8044 11.1299 25.1903 12.5589 25.1907 14.014C25.1908 14.5663 25.6386 15.0139 26.1909 15.0138C26.7432 15.0136 27.1908 14.5658 27.1907 14.0135C27.1903 12.205 26.7105 10.4288 25.8003 8.866C24.8902 7.30317 23.582 6.00949 22.0092 5.1167C20.4364 4.22391 18.655 3.76392 16.8466 3.78356C15.0381 3.80321 13.2672 4.3018 11.7141 5.22854C11.2399 5.51155 11.0848 6.12544 11.3678 6.5997C11.6508 7.07396 12.2647 7.22901 12.739 6.94601C13.9885 6.20039 15.4133 5.79925 16.8683 5.78344ZM8.23338 8.67057L6.98907 7.30183C6.61756 6.89317 6.64768 6.26072 7.05634 5.88922C7.465 5.51771 8.09744 5.54783 8.46895 5.95648L10.2271 7.8905C10.236 7.89986 10.2446 7.90936 10.2531 7.919L13.4644 11.4515C13.4747 11.4623 13.4848 11.4734 13.4945 11.4846L19.2514 17.8172C19.2621 17.8284 19.2725 17.8398 19.2826 17.8515L22.1695 21.0271C22.1818 21.0399 22.1938 21.0531 22.2054 21.0666L26.9305 26.2642C27.302 26.6729 27.2719 27.3053 26.8633 27.6768C26.4546 28.0483 25.8222 28.0182 25.4506 27.6096L21.1046 22.829C20.8144 22.8689 20.5192 22.8702 20.2266 22.8322C19.6988 22.7635 19.1953 22.5685 18.7589 22.2637C18.3225 21.9589 17.966 21.5533 17.7198 21.0814C17.4744 20.6111 17.3457 20.0888 17.3444 19.5584C17.3417 19.294 17.3661 19.0306 17.4167 18.7723L13.3139 14.2591C13.2046 14.6922 12.8127 15.013 12.3456 15.0136C11.7933 15.0143 11.345 14.5672 11.3443 14.015C11.3435 13.4541 11.427 12.8976 11.5909 12.3638L9.64908 10.2278C9.04533 11.3915 8.72691 12.689 8.72901 14.0122L8.72902 14.0138C8.72902 15.521 8.97085 16.4841 9.28483 17.1593C9.59777 17.8324 10.0144 18.2922 10.5056 18.7733C10.5728 18.8391 10.6435 18.907 10.7167 18.9774L10.7168 18.9774L10.7168 18.9775C11.1535 19.397 11.6808 19.9036 12.0838 20.5538C12.5841 21.361 12.8829 22.3491 12.8829 23.7061C12.8829 24.5457 13.1421 25.3647 13.6251 26.0514C14.108 26.7381 14.7912 27.259 15.5813 27.5429C16.3714 27.8268 17.2299 27.8598 18.0395 27.6375C18.849 27.4152 19.5703 26.9484 20.1046 26.3009C20.4561 25.8749 21.0864 25.8145 21.5124 26.166C21.9383 26.5175 21.9987 27.1478 21.6472 27.5738C20.8508 28.539 19.7757 29.2348 18.569 29.5661C17.3623 29.8975 16.0827 29.8482 14.905 29.4251C13.7274 29.0019 12.709 28.2256 11.9891 27.202C11.2692 26.1784 10.8829 24.9575 10.8829 23.7061V23.7061C10.8829 22.6694 10.6624 22.0568 10.3839 21.6075C10.1235 21.1875 9.79884 20.8734 9.36002 20.4488L9.36002 20.4488C9.27939 20.3708 9.19491 20.289 9.10627 20.2022C8.55905 19.6663 7.93719 19.0046 7.47128 18.0026C7.00648 17.0029 6.7291 15.7378 6.72902 14.0145L6.72902 14.0154L7.72887 14.0138H6.72902V14.0145C6.72616 12.123 7.24976 10.2737 8.23338 8.67057ZM15.139 8.70047C15.9845 8.41144 16.8868 8.32825 17.7709 8.4578C18.655 8.58735 19.4955 8.9259 20.2226 9.44536C20.9497 9.96481 21.5424 10.6502 21.9515 11.4446C22.3592 12.2363 22.5729 13.1135 22.575 14.0039C22.5896 14.8521 22.3166 15.6804 21.8004 16.3539C21.4645 16.7923 20.8367 16.8753 20.3984 16.5393C19.9601 16.2033 19.8771 15.5756 20.213 15.1373C20.4554 14.8211 20.5831 14.4319 20.5752 14.0336L20.575 14.0146C20.5746 13.439 20.4369 12.8719 20.1734 12.3603C19.91 11.8487 19.5282 11.4073 19.06 11.0727C18.5917 10.7381 18.0504 10.5201 17.481 10.4367C16.9115 10.3532 16.3304 10.4068 15.7858 10.593C15.2633 10.7716 14.6948 10.4928 14.5162 9.97016C14.3375 9.44756 14.6164 8.8791 15.139 8.70047Z" fill="#1C1B1F"/>
</svg>
