<svg width="32" height="33" viewBox="0 0 32 33" fill="none" xmlns="http://www.w3.org/2000/svg">
<path fill-rule="evenodd" clip-rule="evenodd" d="M15.8833 2.50135C17.7461 2.48112 19.581 2.95493 21.2011 3.87455C22.8212 4.79416 24.1686 6.12672 25.1061 7.73651C26.0437 9.3463 26.5378 11.1758 26.5383 13.0387C26.5384 13.591 26.9862 14.0386 27.5385 14.0385C28.0908 14.0383 28.5384 13.5905 28.5383 13.0382C28.5377 10.8219 27.9498 8.64521 26.8344 6.72998C25.719 4.81474 24.1159 3.22933 22.1884 2.13523C20.2609 1.04112 18.0779 0.477396 15.8616 0.501473C13.6454 0.525549 11.4751 1.13656 9.57183 2.27229C9.09757 2.55529 8.94252 3.16918 9.22553 3.64345C9.50853 4.11771 10.1224 4.27276 10.5967 3.98975C12.1964 3.03516 14.0206 2.52159 15.8833 2.50135ZM5.40507 6.33171L3.72247 4.48084C3.35096 4.07219 3.38108 3.43974 3.78974 3.06823C4.19839 2.69672 4.83084 2.72684 5.20235 3.1355L7.40936 5.56321C7.4139 5.56811 7.41839 5.57304 7.42281 5.57801L11.4595 10.0184L11.4707 10.0307L18.6782 17.9589C18.6928 17.974 18.7069 17.9895 18.7205 18.0054L22.3263 21.9718C22.3422 21.9882 22.3577 22.0052 22.3726 22.0227L28.2778 28.5185C28.6493 28.9272 28.6192 29.5596 28.2105 29.9311C27.8019 30.3026 27.1694 30.2725 26.7979 29.8638L21.2755 23.7892C20.8936 23.8548 20.5028 23.8631 20.116 23.8128C19.4961 23.7321 18.9048 23.5031 18.3922 23.1452C17.8797 22.7872 17.4611 22.3109 17.1719 21.7567C16.8836 21.2041 16.7324 20.5903 16.7311 19.9671C16.7274 19.6118 16.7649 19.258 16.8423 18.9127L11.2392 12.7492C11.2335 12.8449 11.2307 12.9408 11.2309 13.0368C11.2316 13.5891 10.7845 14.0375 10.2322 14.0382C9.67994 14.039 9.23162 13.5919 9.23087 13.0396C9.22989 12.3161 9.34523 11.5987 9.57117 10.9144L6.81024 7.8774C5.92727 9.44626 5.45955 11.2228 5.46244 13.037L5.46244 13.0386C5.46244 14.9495 5.76916 16.191 6.18046 17.0756C6.59072 17.958 7.13709 18.558 7.7581 19.1662C7.84465 19.2509 7.93482 19.3376 8.02748 19.4267C8.57417 19.9523 9.20746 20.5612 9.69313 21.3448C10.2908 22.309 10.6544 23.4971 10.6544 25.1532C10.6544 26.254 10.9943 27.328 11.6276 28.2284C12.2609 29.1288 13.1567 29.8118 14.1927 30.184C15.2286 30.5563 16.3543 30.5996 17.4158 30.3081C18.4774 30.0167 19.423 29.4046 20.1237 28.5555C20.4752 28.1295 21.1054 28.0691 21.5314 28.4206C21.9574 28.7722 22.0178 29.4024 21.6663 29.8284C20.7035 30.9952 19.4041 31.8362 17.9454 32.2367C16.4867 32.6373 14.9399 32.5777 13.5164 32.0662C12.0928 31.5547 10.8619 30.6163 9.99167 29.379C9.12147 28.1417 8.65445 26.6659 8.65441 25.1532C8.65441 23.8174 8.36903 23.0048 7.99321 22.3985C7.65022 21.8451 7.21952 21.4287 6.67078 20.8981L6.67074 20.8981L6.67072 20.8981L6.67054 20.8979L6.67034 20.8977C6.57045 20.8011 6.46665 20.7007 6.35875 20.5951C5.68176 19.9321 4.93014 19.1302 4.36691 17.9189C3.80479 16.7099 3.46252 15.1663 3.46244 13.0394L3.46244 13.0402L4.46244 13.0386H3.46244V13.0394C3.4588 10.6586 4.13575 8.33247 5.40507 6.33171ZM13.805 6.634C14.8243 6.2856 15.9119 6.18532 16.9777 6.34148C18.0435 6.49764 19.0566 6.90575 19.9331 7.53192C20.8095 8.15809 21.524 8.98426 22.0171 9.94187C22.5089 10.8967 22.7665 11.9548 22.7687 13.0288C22.7864 14.0332 22.4634 15.0142 21.8521 15.8117C21.5162 16.25 20.8885 16.333 20.4501 15.997C20.0118 15.6611 19.9288 15.0334 20.2647 14.595C20.6021 14.1548 20.7799 13.6131 20.769 13.0586L20.7688 13.0395C20.7682 12.2804 20.5866 11.5324 20.2391 10.8576C19.8915 10.1827 19.3881 9.60053 18.7704 9.15926C18.1528 8.71799 17.4388 8.4304 16.6877 8.32035C15.9367 8.2103 15.1702 8.28097 14.4519 8.52649C13.9293 8.70512 13.3609 8.42629 13.1822 7.90369C13.0036 7.38109 13.2824 6.81263 13.805 6.634Z" fill="#111827"/>
</svg>
