<svg width="32" height="33" viewBox="0 0 32 33" fill="none" xmlns="http://www.w3.org/2000/svg">
<path fill-rule="evenodd" clip-rule="evenodd" d="M24.7029 28.8952C27.0111 26.587 28.3078 23.4565 28.3078 20.1923C28.3078 14.9343 26.2019 9.67636 23.4896 5.9178C23.2108 5.52245 22.9559 5.18367 22.5806 4.74123C20.4227 2.13604 18.0069 0.5 16.0001 0.5C11.077 0.5 3.69238 10.3462 3.69238 20.1923C3.69238 23.4565 4.98908 26.587 7.29722 28.8952C9.60536 31.2033 12.7359 32.5 16.0001 32.5C19.2643 32.5 22.3948 31.2033 24.7029 28.8952ZM22.5806 4.74123C22.5066 4.65407 22.428 4.5629 22.3436 4.46647L15.2105 11.5351C14.436 12.3096 14.7529 13.629 15.7947 13.9672L19.2389 15.0854L18.3876 19.9926C18.2617 20.7182 18.7479 21.4084 19.4734 21.5343C20.199 21.6601 20.8892 21.174 21.015 20.4484L22.0441 14.516C22.1688 13.797 21.746 13.0957 21.0519 12.8703L18.4812 12.0357L23.9639 6.60258C23.9373 6.56406 23.9114 6.52638 23.886 6.48946C23.7408 6.27859 23.6129 6.09266 23.4896 5.9178C23.1932 5.50705 22.8895 5.11421 22.5806 4.74123Z" fill="#111827"/>
</svg>
