<svg width="33" height="33" viewBox="0 0 33 33" fill="none" xmlns="http://www.w3.org/2000/svg">
<path fill-rule="evenodd" clip-rule="evenodd" d="M23.4874 25.5793C25.2185 23.8482 26.191 21.5003 26.191 19.0522C26.191 15.1095 24.6123 11.1669 22.5787 8.34808C22.3687 8.05025 22.177 7.79543 21.8941 7.46203C20.276 5.50921 18.4649 4.28296 16.9603 4.28296C13.268 4.28296 7.72949 11.6676 7.72949 19.0522C7.72949 21.5003 8.70202 23.8482 10.4331 25.5793C12.1642 27.3104 14.5121 28.283 16.9603 28.283C19.4084 28.283 21.7563 27.3104 23.4874 25.5793ZM21.8941 7.46203C21.8391 7.39721 21.7806 7.32942 21.7179 7.25777L16.3681 12.5592C15.7872 13.1401 16.0249 14.1296 16.8062 14.3833L19.3893 15.2219L18.7509 18.9024C18.6565 19.4466 19.0211 19.9642 19.5653 20.0586C20.1094 20.153 20.6271 19.7884 20.7215 19.2442L21.4933 14.7949C21.5868 14.2557 21.2697 13.7297 20.7491 13.5607L18.8211 12.9347L22.9331 8.85985C22.9132 8.83095 22.8937 8.80269 22.8747 8.775C22.7663 8.61758 22.6707 8.4787 22.5787 8.34808C22.3555 8.0387 22.1268 7.74285 21.8941 7.46203Z" fill="#1C1B1F"/>
</svg>
