<svg width="32" height="32" viewBox="0 0 32 32" fill="none" xmlns="http://www.w3.org/2000/svg">
<path fill-rule="evenodd" clip-rule="evenodd" d="M24.7029 28.3952C27.0111 26.087 28.3078 22.9565 28.3078 19.6923C28.3078 14.4343 26.2019 9.17636 23.4896 5.4178C23.2108 5.02245 22.9559 4.68367 22.5806 4.24123C20.4227 1.63604 18.0069 0 16.0001 0C11.077 0 3.69238 9.84615 3.69238 19.6923C3.69238 22.9565 4.98908 26.087 7.29722 28.3952C9.60536 30.7033 12.7359 32 16.0001 32C19.2643 32 22.3948 30.7033 24.7029 28.3952ZM22.5806 4.24123C22.5066 4.15407 22.428 4.0629 22.3436 3.96647L15.2105 11.0351C14.436 11.8096 14.7529 13.129 15.7947 13.4672L19.2389 14.5854L18.3876 19.4926C18.2617 20.2182 18.7479 20.9084 19.4734 21.0343C20.199 21.1601 20.8892 20.674 21.015 19.9484L22.0441 14.016C22.1688 13.297 21.746 12.5957 21.0519 12.3703L18.4812 11.5357L23.9639 6.10258C23.9373 6.06406 23.9114 6.02638 23.886 5.98946C23.7408 5.77859 23.6129 5.59266 23.4896 5.4178C23.1932 5.00705 22.8895 4.61421 22.5806 4.24123Z" fill="#111827"/>
</svg>
