<svg width="32" height="32" viewBox="0 0 32 32" fill="none" xmlns="http://www.w3.org/2000/svg">
<path fill-rule="evenodd" clip-rule="evenodd" d="M1 4C0.447715 4 0 4.44772 0 5V27C0 27.5523 0.447715 28 1 28H31C31.5523 28 32 27.5523 32 27V5C32 4.44772 31.5523 4 31 4H1ZM13.1152 17.9054L3.39427 26.4579C2.97962 26.8227 2.34775 26.7823 1.98294 26.3677C1.61813 25.953 1.65853 25.3212 2.07318 24.9564L11.6671 16.5155L1.90957 7.15055C1.42251 6.68308 1.4225 5.92516 1.90956 5.45768C2.39662 4.9902 3.1863 4.9902 3.67337 5.45767L15.9634 17.2532L28.4069 5.31008C28.894 4.8426 29.6836 4.8426 30.1707 5.31008C30.6578 5.77755 30.6578 6.53548 30.1707 7.00295L20.4101 16.3711L29.9461 24.7609C30.3608 25.1257 30.4012 25.7576 30.0364 26.1722C29.6716 26.5869 29.0397 26.6273 28.625 26.2624L18.962 17.7609L15.9634 20.6389L13.1152 17.9054Z" fill="#111827"/>
</svg>
