<svg width="33" height="33" viewBox="0 0 33 33" fill="none" xmlns="http://www.w3.org/2000/svg">
<path fill-rule="evenodd" clip-rule="evenodd" d="M28.96 13.8211V26.2854C28.96 26.8377 28.5122 27.2854 27.96 27.2854H5.95996C5.40768 27.2854 4.95996 26.8377 4.95996 26.2854V13.8198C4.95996 13.4859 5.12659 13.174 5.40413 12.9885L16.3778 5.65116C16.7136 5.42665 17.1514 5.42618 17.4877 5.64998L28.514 12.9886C28.7926 13.1741 28.96 13.4865 28.96 13.8211ZM6.87676 14.3994C7.19737 13.9497 7.82183 13.8451 8.27152 14.1657L15.5946 19.3868H18.3253L25.6484 14.1657C26.0981 13.8451 26.7226 13.9497 27.0432 14.3994C27.3638 14.8491 27.2592 15.4736 26.8095 15.7942L20.3731 20.3831L26.5676 24.7587C27.0187 25.0773 27.126 25.7013 26.8074 26.1524C26.4888 26.6035 25.8648 26.7109 25.4137 26.3922L18.3275 21.3868H15.5923L8.50615 26.3922C8.05505 26.7109 7.43106 26.6035 7.11242 26.1524C6.79378 25.7013 6.90116 25.0773 7.35225 24.7587L13.5468 20.3831L7.11047 15.7942C6.66078 15.4736 6.55614 14.8491 6.87676 14.3994Z" fill="#1C1B1F"/>
</svg>
