<svg width="32" height="32" viewBox="0 0 32 32" fill="none" xmlns="http://www.w3.org/2000/svg">
<path fill-rule="evenodd" clip-rule="evenodd" d="M32 12.438V29.569C32 30.1213 31.5523 30.569 31 30.569H1C0.447715 30.569 0 30.1213 0 29.569V12.4366C0 12.1028 0.166624 11.7909 0.444171 11.6053L15.4086 1.59967C15.7444 1.37516 16.1823 1.3747 16.5185 1.59849L31.5541 11.6055C31.8326 11.7909 32 12.1034 32 12.438ZM2.82687 13.5812C3.14749 13.1315 3.77195 13.0268 4.22164 13.3474L14.0727 20.3709H17.9269L27.7779 13.3474C28.2276 13.0268 28.852 13.1315 29.1726 13.5812C29.4933 14.0309 29.3886 14.6553 28.9389 14.9759L19.9747 21.3672L28.6177 27.4723C29.0688 27.7909 29.1762 28.4149 28.8576 28.866C28.5389 29.3171 27.915 29.4245 27.4639 29.1058L17.9291 22.3709H14.0705L4.53577 29.1058C4.08467 29.4245 3.46068 29.3171 3.14204 28.866C2.8234 28.4149 2.93078 27.7909 3.38188 27.4723L12.0249 21.3672L3.06059 14.9759C2.61089 14.6553 2.50626 14.0309 2.82687 13.5812Z" fill="#111827"/>
</svg>
