<svg width="33" height="33" viewBox="0 0 33 33" fill="none" xmlns="http://www.w3.org/2000/svg">
<path fill-rule="evenodd" clip-rule="evenodd" d="M5.95996 7.2829C5.40768 7.2829 4.95996 7.73061 4.95996 8.2829V24.2829C4.95996 24.8352 5.40768 25.2829 5.95996 25.2829H27.96C28.5122 25.2829 28.96 24.8352 28.96 24.2829V8.2829C28.96 7.73061 28.5122 7.2829 27.96 7.2829H5.95996ZM14.9774 17.8857L7.67081 24.3141C7.25617 24.6789 6.62429 24.6385 6.25948 24.2238C5.89467 23.8092 5.93507 23.1773 6.34972 22.8125L13.5293 16.4958L6.39214 9.64581C6.02684 9.29521 6.02684 8.72677 6.39213 8.37616C6.75742 8.02555 7.34969 8.02554 7.71499 8.37615L16.9325 17.2228L26.2651 8.26546C26.6304 7.91485 27.2227 7.91485 27.588 8.26546C27.9533 8.61606 27.9533 9.18451 27.588 9.53511L20.4485 16.3875L27.5846 22.6659C27.9992 23.0307 28.0396 23.6625 27.6748 24.0772C27.31 24.4918 26.6781 24.5323 26.2635 24.1674L19.0004 17.7774L16.9325 19.7621L14.9774 17.8857Z" fill="#1C1B1F"/>
</svg>
