<svg width="33" height="33" viewBox="0 0 33 33" fill="none" xmlns="http://www.w3.org/2000/svg">
<path fill-rule="evenodd" clip-rule="evenodd" d="M28.96 13.8211V26.2854C28.96 26.8377 28.5122 27.2854 27.96 27.2854H5.95996C5.40768 27.2854 4.95996 26.8377 4.95996 26.2854V13.8198C4.95996 13.4859 5.12659 13.174 5.40413 12.9885L16.3778 5.65116C16.7136 5.42665 17.1514 5.42618 17.4877 5.64998L28.514 12.9886C28.7926 13.1741 28.96 13.4865 28.96 13.8211ZM8.27152 14.1657C7.82183 13.8451 7.19737 13.9497 6.87676 14.3994C6.55614 14.8491 6.66078 15.4736 7.11047 15.7942L14.6941 21.2011C14.8636 21.3219 15.0665 21.3868 15.2747 21.3868H18.6453C18.8534 21.3868 19.0564 21.3219 19.2258 21.2011L26.8095 15.7942C27.2592 15.4736 27.3638 14.8491 27.0432 14.3994C26.7226 13.9497 26.0981 13.8451 25.6484 14.1657L18.3253 19.3868H15.5946L8.27152 14.1657Z" fill="#1C1B1F"/>
</svg>
