<svg width="32" height="33" viewBox="0 0 32 33" fill="none" xmlns="http://www.w3.org/2000/svg">
<path fill-rule="evenodd" clip-rule="evenodd" d="M23.4779 6.06567C23.4779 5.51339 23.9257 5.06567 24.4779 5.06567H30.9992C31.5515 5.06567 31.9992 5.51339 31.9992 6.06567C31.9992 6.61796 31.5515 7.06567 30.9992 7.06567H24.4779C23.9257 7.06567 23.4779 6.61796 23.4779 6.06567ZM1.00098 10.2828C0.448692 10.2828 0.000976562 10.7305 0.000976562 11.2828C0.000976562 11.8351 0.448692 12.2828 1.00098 12.2828H7.52227C8.07455 12.2828 8.52227 11.8351 8.52227 11.2828C8.52227 10.7305 8.07455 10.2828 7.52227 10.2828H1.00098ZM1.00098 15.5C0.448692 15.5 0.000976562 15.9477 0.000976562 16.5C0.000976562 17.0523 0.448692 17.5 1.00098 17.5H7.52227C8.07455 17.5 8.52227 17.0523 8.52227 16.5C8.52227 15.9477 8.07455 15.5 7.52227 15.5H1.00098ZM0.000976562 21.7171C0.000976562 21.1649 0.448692 20.7171 1.00098 20.7171H7.52227C8.07455 20.7171 8.52227 21.1649 8.52227 21.7171C8.52227 22.2694 8.07455 22.7171 7.52227 22.7171H1.00098C0.448692 22.7171 0.000976562 22.2694 0.000976562 21.7171ZM1.00098 25.9341C0.448692 25.9341 0.000976562 26.3818 0.000976562 26.9341C0.000976562 27.4863 0.448692 27.9341 1.00098 27.9341H7.52227C8.07455 27.9341 8.52227 27.4863 8.52227 26.9341C8.52227 26.3818 8.07455 25.9341 7.52227 25.9341H1.00098ZM11.7387 16.5C11.7387 15.9477 12.1864 15.5 12.7387 15.5H19.26C19.8123 15.5 20.26 15.9477 20.26 16.5C20.26 17.0523 19.8123 17.5 19.26 17.5H12.7387C12.1864 17.5 11.7387 17.0523 11.7387 16.5ZM12.7387 20.7171C12.1864 20.7171 11.7387 21.1649 11.7387 21.7171C11.7387 22.2694 12.1864 22.7171 12.7387 22.7171H19.26C19.8123 22.7171 20.26 22.2694 20.26 21.7171C20.26 21.1649 19.8123 20.7171 19.26 20.7171H12.7387ZM11.7387 26.9341C11.7387 26.3818 12.1864 25.9341 12.7387 25.9341H19.26C19.8123 25.9341 20.26 26.3818 20.26 26.9341C20.26 27.4863 19.8123 27.9341 19.26 27.9341H12.7387C12.1864 27.9341 11.7387 27.4863 11.7387 26.9341ZM24.4779 10.2828C23.9257 10.2828 23.4779 10.7305 23.4779 11.2828C23.4779 11.8351 23.9257 12.2828 24.4779 12.2828H30.9992C31.5515 12.2828 31.9992 11.8351 31.9992 11.2828C31.9992 10.7305 31.5515 10.2828 30.9992 10.2828H24.4779ZM24.4779 15.5C23.9257 15.5 23.4779 15.9477 23.4779 16.5C23.4779 17.0523 23.9257 17.5 24.4779 17.5H30.9992C31.5515 17.5 31.9992 17.0523 31.9992 16.5C31.9992 15.9477 31.5515 15.5 30.9992 15.5H24.4779ZM23.4779 21.7171C23.4779 21.1649 23.9257 20.7171 24.4779 20.7171H30.9992C31.5515 20.7171 31.9992 21.1649 31.9992 21.7171C31.9992 22.2694 31.5515 22.7171 30.9992 22.7171H24.4779C23.9257 22.7171 23.4779 22.2694 23.4779 21.7171ZM24.4779 25.9341C23.9257 25.9341 23.4779 26.3818 23.4779 26.9341C23.4779 27.4863 23.9257 27.9341 24.4779 27.9341H30.9992C31.5515 27.9341 31.9992 27.4863 31.9992 26.9341C31.9992 26.3818 31.5515 25.9341 30.9992 25.9341H24.4779Z" fill="#111827"/>
</svg>
