<svg width="33" height="33" viewBox="0 0 33 33" fill="none" xmlns="http://www.w3.org/2000/svg">
<path fill-rule="evenodd" clip-rule="evenodd" d="M22.7427 8.43506C22.7427 7.88277 23.1904 7.43506 23.7427 7.43506H28.9601C29.5124 7.43506 29.9601 7.88277 29.9601 8.43506C29.9601 8.98734 29.5124 9.43506 28.9601 9.43506H23.7427C23.1904 9.43506 22.7427 8.98734 22.7427 8.43506ZM4.95996 11.6091C4.40768 11.6091 3.95996 12.0568 3.95996 12.6091C3.95996 13.1614 4.40768 13.6091 4.95996 13.6091H10.1774C10.7296 13.6091 11.1774 13.1614 11.1774 12.6091C11.1774 12.0568 10.7296 11.6091 10.1774 11.6091H4.95996ZM4.95996 15.783C4.40768 15.783 3.95996 16.2307 3.95996 16.783C3.95996 17.3352 4.40768 17.783 4.95996 17.783H10.1774C10.7296 17.783 11.1774 17.3352 11.1774 16.783C11.1774 16.2307 10.7296 15.783 10.1774 15.783H4.95996ZM3.95996 20.957C3.95996 20.4047 4.40768 19.957 4.95996 19.957H10.1774C10.7296 19.957 11.1774 20.4047 11.1774 20.957C11.1774 21.5093 10.7296 21.957 10.1774 21.957H4.95996C4.40768 21.957 3.95996 21.5093 3.95996 20.957ZM4.95996 24.1309C4.40768 24.1309 3.95996 24.5786 3.95996 25.1309C3.95996 25.6831 4.40768 26.1309 4.95996 26.1309H10.1774C10.7296 26.1309 11.1774 25.6831 11.1774 25.1309C11.1774 24.5786 10.7296 24.1309 10.1774 24.1309H4.95996ZM13.3511 16.783C13.3511 16.2307 13.7988 15.783 14.3511 15.783H19.5685C20.1208 15.783 20.5685 16.2307 20.5685 16.783C20.5685 17.3352 20.1208 17.783 19.5685 17.783H14.3511C13.7988 17.783 13.3511 17.3352 13.3511 16.783ZM14.3511 19.957C13.7988 19.957 13.3511 20.4047 13.3511 20.957C13.3511 21.5093 13.7988 21.957 14.3511 21.957H19.5685C20.1208 21.957 20.5685 21.5093 20.5685 20.957C20.5685 20.4047 20.1208 19.957 19.5685 19.957H14.3511ZM13.3511 25.1309C13.3511 24.5786 13.7988 24.1309 14.3511 24.1309H19.5685C20.1208 24.1309 20.5685 24.5786 20.5685 25.1309C20.5685 25.6831 20.1208 26.1309 19.5685 26.1309H14.3511C13.7988 26.1309 13.3511 25.6831 13.3511 25.1309ZM23.7427 11.6091C23.1904 11.6091 22.7427 12.0568 22.7427 12.6091C22.7427 13.1614 23.1904 13.6091 23.7427 13.6091H28.9601C29.5124 13.6091 29.9601 13.1614 29.9601 12.6091C29.9601 12.0568 29.5124 11.6091 28.9601 11.6091H23.7427ZM23.7427 15.783C23.1904 15.783 22.7427 16.2307 22.7427 16.783C22.7427 17.3352 23.1904 17.783 23.7427 17.783H28.9601C29.5124 17.783 29.9601 17.3352 29.9601 16.783C29.9601 16.2307 29.5124 15.783 28.9601 15.783H23.7427ZM22.7427 20.957C22.7427 20.4047 23.1904 19.957 23.7427 19.957H28.9601C29.5124 19.957 29.9601 20.4047 29.9601 20.957C29.9601 21.5093 29.5124 21.957 28.9601 21.957H23.7427C23.1904 21.957 22.7427 21.5093 22.7427 20.957ZM23.7427 24.1309C23.1904 24.1309 22.7427 24.5786 22.7427 25.1309C22.7427 25.6831 23.1904 26.1309 23.7427 26.1309H28.9601C29.5124 26.1309 29.9601 25.6831 29.9601 25.1309C29.9601 24.5786 29.5124 24.1309 28.9601 24.1309H23.7427Z" fill="#1C1B1F"/>
</svg>
