<svg width="33" height="33" viewBox="0 0 33 33" fill="none" xmlns="http://www.w3.org/2000/svg">
<path fill-rule="evenodd" clip-rule="evenodd" d="M20.3032 3.76463C20.6967 3.37712 21.3347 3.37712 21.7283 3.76463L29.6723 11.5873C30.0659 11.9748 30.0659 12.6031 29.6723 12.9906L18.1589 24.3281H26.8119C27.3642 24.3281 27.8119 24.7758 27.8119 25.3281C27.8119 25.8804 27.3642 26.3281 26.8119 26.3281H15.6188C15.5695 26.3281 15.521 26.3245 15.4736 26.3176H10.0867C9.81943 26.3176 9.56313 26.2131 9.37416 26.027L4.24729 20.9785C3.85377 20.591 3.85377 19.9627 4.24729 19.5752L20.3032 3.76463ZM21.0157 5.86955L13.6874 13.0859L20.1563 19.5547L27.5348 12.289L21.0157 5.86955Z" fill="#1C1B1F"/>
</svg>
