<svg width="32" height="32" viewBox="0 0 32 32" fill="none" xmlns="http://www.w3.org/2000/svg">
<path fill-rule="evenodd" clip-rule="evenodd" d="M20.3545 2.26341C20.748 1.8759 21.386 1.8759 21.7796 2.26341L31.704 12.0362C32.0975 12.4237 32.0975 13.0519 31.704 13.4395L16.8898 28.0273H28.3079C28.8602 28.0273 29.3079 28.475 29.3079 29.0273C29.3079 29.5795 28.8602 30.0273 28.3079 30.0273H14.3245C14.2738 30.0273 14.224 30.0235 14.1754 30.0162H7.41355C7.1463 30.0162 6.89 29.9117 6.70103 29.7256L0.296116 23.4186C-0.0974034 23.0311 -0.097403 22.4028 0.296116 22.0153L20.3545 2.26341ZM21.067 4.36833L11.7357 13.5571L20.1696 21.991L29.5664 12.7378L21.067 4.36833Z" fill="#111827"/>
</svg>
