<svg width="32" height="32" viewBox="0 0 32 32" fill="none" xmlns="http://www.w3.org/2000/svg">
<path fill-rule="evenodd" clip-rule="evenodd" d="M3.29241 26.1757C2.90188 26.5662 2.90188 27.1994 3.29241 27.5899C3.68295 27.9804 4.31613 27.9804 4.70666 27.5899L27.5908 4.70682C27.9813 4.31631 27.9813 3.68316 27.5908 3.29264C27.2003 2.90213 26.5671 2.90213 26.1766 3.29264L3.29241 26.1757ZM12.0366 27.2928C11.646 27.6833 11.646 28.3164 12.0366 28.7069C12.4271 29.0975 13.0603 29.0975 13.4508 28.7069L28.7069 13.4516C29.0974 13.0611 29.0974 12.4279 28.7069 12.0374C28.3164 11.6469 27.6832 11.6469 27.2926 12.0374L12.0366 27.2928Z" fill="#111827"/>
</svg>
