<svg width="32" height="32" viewBox="0 0 32 32" fill="none" xmlns="http://www.w3.org/2000/svg">
<path fill-rule="evenodd" clip-rule="evenodd" d="M4 11.0022C4.55228 11.0022 5 10.5544 5 10.0022V5.50031H27V10.0022C27 10.5544 27.4477 11.0022 28 11.0022C28.5523 11.0022 29 10.5544 29 10.0022V4.50031C29 3.94802 28.5523 3.50031 28 3.50031H4C3.44772 3.50031 3 3.94802 3 4.50031V10.0022C3 10.5544 3.44772 11.0022 4 11.0022ZM15.0005 14.9158V27.4996C15.0005 28.0519 15.4482 28.4996 16.0005 28.4996C16.5528 28.4996 17.0005 28.0519 17.0005 27.4996V14.9163L20.5957 18.5114C20.9862 18.902 21.6194 18.902 22.0099 18.5114C22.4004 18.1209 22.4004 17.4878 22.0099 17.0972L16.7192 11.8065C16.5487 11.6304 16.3142 11.5167 16.0531 11.5032C15.9985 11.5003 15.9436 11.5019 15.8892 11.508C15.8388 11.5135 15.7896 11.5229 15.7417 11.5357C15.5774 11.5795 15.4221 11.6658 15.2932 11.7947L9.99065 17.0972C9.60012 17.4878 9.60012 18.1209 9.99065 18.5114C10.3812 18.902 11.0143 18.902 11.4049 18.5114L15.0005 14.9158Z" fill="#111827"/>
</svg>
