<svg width="32" height="32" viewBox="0 0 32 32" fill="none" xmlns="http://www.w3.org/2000/svg">
<path fill-rule="evenodd" clip-rule="evenodd" d="M1.79512 8.75552C1.44805 8.32591 0.818429 8.25901 0.388824 8.60608C-0.0407799 8.95315 -0.107686 9.58277 0.239386 10.0124C1.04653 11.0114 2.05699 12.0939 3.28503 13.1236L0.134141 18.5811C-0.142001 19.0594 0.0218745 19.671 0.500167 19.9472C0.97846 20.2233 1.59005 20.0594 1.86619 19.5811L4.89028 14.3433C6.53436 15.47 8.48335 16.4491 10.76 17.0635L9.81192 22.4405C9.71601 22.9843 10.0792 23.503 10.6231 23.5989C11.167 23.6948 11.6856 23.3316 11.7815 22.7878L12.7168 17.4837C13.7541 17.6512 14.8509 17.7431 16.0089 17.7431C17.1624 17.7431 18.2553 17.6519 19.2891 17.4856L20.2244 22.7895C20.3203 23.3334 20.8389 23.6966 21.3828 23.6007C21.9267 23.5048 22.2899 22.9861 22.194 22.4422L21.2461 17.0667C23.5249 16.4533 25.4756 15.4744 27.1212 14.3476L30.1285 19.5564C30.4047 20.0347 31.0163 20.1986 31.4946 19.9225C31.9729 19.6463 32.1367 19.0347 31.8606 18.5564L28.7268 13.1286C29.9575 12.0974 30.9699 11.0131 31.7784 10.0124C32.1254 9.58281 32.0585 8.95319 31.6289 8.60611C31.1993 8.25904 30.5697 8.32595 30.2226 8.75555C29.3493 9.83651 28.2302 11.0092 26.8421 12.0796C26.8284 12.0896 26.815 12.0999 26.802 12.1105C24.1959 14.109 20.6483 15.7431 16.0089 15.7431C11.3713 15.7431 7.82479 14.1103 5.21902 12.1129C5.20029 12.0974 5.18088 12.0824 5.16081 12.0681C3.77962 11.0008 2.66531 9.83263 1.79512 8.75552Z" fill="#111827"/>
</svg>
