<svg width="32" height="32" viewBox="0 0 32 32" fill="none" xmlns="http://www.w3.org/2000/svg">
<path fill-rule="evenodd" clip-rule="evenodd" d="M26.5539 14.0589L25.7038 13.2088L30.5741 8.33842C31.0345 7.87802 31.3979 7.32998 31.6429 6.7267C31.8878 6.12342 32.0093 5.47715 32.0001 4.82611C31.991 4.17507 31.8514 3.53247 31.5896 2.93631C31.3278 2.34015 30.9492 1.80254 30.476 1.35525C28.5488 -0.469124 25.4913 -0.35417 23.6148 1.52234L18.8161 6.32105L17.966 5.47095C17.7075 5.21252 17.4007 5.00752 17.0631 4.86766C16.7254 4.7278 16.3635 4.65581 15.998 4.65581C15.6326 4.65581 15.2707 4.7278 14.933 4.86766C14.5954 5.00752 14.2886 5.21252 14.0301 5.47095L12.8074 6.69366C12.5465 6.95462 12.3998 7.30856 12.3998 7.67762C12.3998 8.04668 12.5465 8.40061 12.8074 8.66158L13.4423 9.29648C13.4423 9.29654 13.4422 9.29659 13.4422 9.29665L3.70176 19.0371L3.70146 19.0373C2.88608 19.8521 2.29965 20.8673 2.00116 21.9807C1.73401 22.9772 1.70595 24.0209 1.91696 25.0273L0.166489 29.037L1.07762 29.4348L0.166489 29.037C0.00572008 29.4053 -0.0403376 29.8135 0.0343227 30.2083C0.108983 30.6031 0.300897 30.9663 0.58503 31.2504L0.587321 31.2527C0.926883 31.5914 1.36045 31.8201 1.83173 31.9092C2.30408 31.9986 2.79237 31.9435 3.23293 31.7511L2.83284 30.8347L3.23293 31.7511L6.9974 30.1077C8.00381 30.3188 9.04754 30.2907 10.044 30.0235C11.1574 29.725 12.1726 29.1386 12.9873 28.3232L12.9876 28.3229L22.728 18.5825C22.7281 18.5825 22.7282 18.5824 22.7282 18.5824L23.3633 19.2174C23.6242 19.4784 23.9782 19.625 24.3472 19.625C24.7163 19.625 25.0702 19.4784 25.3312 19.2174L26.5539 17.9947C26.8123 17.7363 27.0173 17.4295 27.1572 17.0918C27.297 16.7542 27.369 16.3923 27.369 16.0268C27.369 15.6613 27.297 15.2994 27.1572 14.9618C27.0173 14.6241 26.8123 14.3173 26.5539 14.0589ZM21.314 17.1682L14.8565 10.7107C14.8565 10.7108 14.8564 10.7108 14.8564 10.7109L5.11567 20.4516L5.11538 20.4519C4.54833 21.0184 4.14051 21.7243 3.93295 22.4986C3.72538 23.2728 3.72539 24.0881 3.93298 24.8623C3.99168 25.0812 3.97426 25.3136 3.88357 25.5214L1.99969 29.8367C2.05528 29.8921 2.12623 29.9295 2.20335 29.9441C2.28068 29.9587 2.36062 29.9497 2.43275 29.9182L6.50336 28.1411C6.7111 28.0505 6.94348 28.033 7.16242 28.0917C7.93665 28.2993 8.7519 28.2993 9.52613 28.0917C10.3004 27.8842 11.0063 27.4764 11.5728 26.9093L11.5731 26.909L21.3138 17.1683C21.3139 17.1683 21.3139 17.1682 21.314 17.1682Z" fill="#111827"/>
</svg>
