<svg width="33" height="33" viewBox="0 0 33 33" fill="none" xmlns="http://www.w3.org/2000/svg">
<path d="M24.0852 14.5092L24.7433 15.1674C24.9434 15.3674 25.1021 15.605 25.2103 15.8664C25.3186 16.1278 25.3744 16.4079 25.3744 16.6909C25.3744 16.9738 25.3186 17.254 25.2103 17.5154C25.1021 17.7768 24.9434 18.0143 24.7433 18.2144L23.7967 19.161C23.5947 19.363 23.3207 19.4765 23.035 19.4765C22.7492 19.4765 22.4752 19.363 22.2732 19.161L14.1012 10.9889C13.8991 10.7869 13.7856 10.5129 13.7856 10.2272C13.7856 9.94147 13.8991 9.66746 14.1012 9.46543L15.0478 8.51885C15.2478 8.31878 15.4853 8.16007 15.7467 8.0518C16.0082 7.94352 16.2883 7.88779 16.5713 7.88779C16.8542 7.88779 17.1344 7.94352 17.3958 8.0518C17.6572 8.16007 17.8947 8.31878 18.0948 8.51885L18.7529 9.17697L22.4679 5.46195C23.9207 4.0092 26.2877 3.92021 27.7797 5.33259C28.146 5.67886 28.4392 6.09507 28.6418 6.5566C28.8445 7.01813 28.9526 7.51561 28.9596 8.01963C28.9667 8.52365 28.8727 9.02397 28.6831 9.49101C28.4934 9.95805 28.2121 10.3823 27.8557 10.7388L24.0852 14.5092Z" fill="#1C1B1F"/>
<path d="M21.2342 18.122L13.6932 25.663C13.1585 26.1981 12.4922 26.583 11.7615 26.7789C11.0308 26.9748 10.2613 26.9748 9.53063 26.7789L6.37927 28.1547C6.18082 28.2413 5.96086 28.2661 5.74809 28.2259C5.53532 28.1856 5.33962 28.0822 5.1865 27.9291V27.9291C5.07657 27.8192 5.00232 27.6787 4.97343 27.5259C4.94454 27.3731 4.96236 27.2152 5.02457 27.0727L6.48321 23.7315C6.28728 23.0008 6.28727 22.2314 6.48318 21.5006C6.67908 20.7699 7.06398 20.1037 7.59915 19.5689L15.1401 12.028" stroke="#1C1B1F" stroke-width="2" stroke-linecap="round" stroke-linejoin="round"/>
</svg>
