<svg width="32" height="32" viewBox="0 0 32 32" fill="none" xmlns="http://www.w3.org/2000/svg">
<path fill-rule="evenodd" clip-rule="evenodd" d="M26.5539 14.059L25.7038 13.2089L30.5741 8.33854C31.0345 7.87814 31.3979 7.3301 31.6429 6.72682C31.8878 6.12354 32.0093 5.47727 32.0001 4.82623C31.991 4.17519 31.8514 3.53259 31.5896 2.93643C31.3278 2.34027 30.9492 1.80266 30.476 1.35537C28.5488 -0.469002 25.4913 -0.354048 23.6148 1.52247L18.8161 6.32118L17.966 5.47107C17.7075 5.21264 17.4007 5.00764 17.0631 4.86778C16.7254 4.72792 16.3635 4.65593 15.998 4.65593C15.6326 4.65593 15.2707 4.72792 14.933 4.86778C14.5954 5.00764 14.2886 5.21264 14.0301 5.47107L12.8074 6.69378C12.5465 6.95474 12.3998 7.30869 12.3998 7.67774C12.3998 8.0468 12.5465 8.40074 12.8074 8.6617L13.4423 9.29661C13.4423 9.29666 13.4424 9.29655 13.4423 9.29661L3.70176 19.0372C2.88623 19.852 2.29969 20.8673 2.00116 21.9808C1.73401 22.9773 1.70595 24.021 1.91696 25.0275L0.166489 29.0372C0.00572072 29.4054 -0.0403377 29.8136 0.0343226 30.2084C0.108983 30.6032 0.300895 30.9664 0.585029 31.2505C0.924932 31.5905 1.35939 31.82 1.83173 31.9094C2.30408 31.9987 2.79237 31.9436 3.23293 31.7513L6.9974 30.1079C8.00382 30.3189 9.04754 30.2908 10.044 30.0237C11.1574 29.7252 12.1726 29.1387 12.9873 28.3234L22.728 18.5827C22.728 18.5827 22.7281 18.5826 22.728 18.5827L23.3633 19.2175C23.6242 19.4785 23.9782 19.6251 24.3472 19.6251C24.7163 19.6251 25.0702 19.4785 25.3312 19.2175L26.5539 17.9948C26.8123 17.7364 27.0173 17.4296 27.1572 17.0919C27.297 16.7543 27.369 16.3924 27.369 16.0269C27.369 15.6614 27.297 15.2995 27.1572 14.9619C27.0173 14.6242 26.8123 14.3174 26.5539 14.059ZM21.3138 17.1684C21.3138 17.1685 21.3139 17.1684 21.3138 17.1684L11.5731 26.9091C11.0066 27.4762 10.3004 27.8843 9.52613 28.0919C8.7519 28.2994 7.93665 28.2994 7.16242 28.0919C6.94348 28.0332 6.7111 28.0506 6.50336 28.1413L2.43275 29.9183C2.36062 29.9498 2.28068 29.9588 2.20335 29.9442C2.12623 29.9296 2.05528 29.8922 1.99969 29.8368L3.88357 25.5215C3.97426 25.3138 3.99168 25.0814 3.93298 24.8624C3.72539 24.0882 3.72538 23.2729 3.93295 22.4987C4.14051 21.7245 4.54833 21.0185 5.11538 20.452L14.8564 10.711C14.8563 10.711 14.8564 10.7109 14.8564 10.711L21.3138 17.1684Z" fill="#111827"/>
</svg>
