<svg width="32" height="33" viewBox="0 0 32 33" fill="none" xmlns="http://www.w3.org/2000/svg">
<path fill-rule="evenodd" clip-rule="evenodd" d="M25.708 13.4595L26.5606 14.3121C27.0771 14.8362 27.3666 15.5425 27.3666 16.2784C27.3666 17.0142 27.0771 17.7205 26.5606 18.2446L25.3426 19.4626C25.2131 19.5942 25.0587 19.6986 24.8884 19.7699C24.7181 19.8412 24.5354 19.8779 24.3508 19.8779C24.1662 19.8779 23.9834 19.8412 23.8131 19.7699C23.6429 19.6986 23.4885 19.5942 23.3589 19.4626L22.7265 18.8302L12.9866 28.57L12.9844 28.5723C12.1725 29.3932 11.157 29.9836 10.0419 30.2831C9.04356 30.5513 7.99751 30.5777 6.99002 30.3624L3.22849 32.002L3.22746 32.0025C2.79137 32.1935 2.30819 32.2501 1.83977 32.1649C1.37098 32.0796 0.938325 31.8564 0.597269 31.5236L1.02459 30.8654C1.02357 30.8644 1.02254 30.8633 1.02152 30.8623L0.594076 31.5205C0.304176 31.2351 0.108594 30.8679 0.0336287 30.4681C-0.040911 30.0705 0.00735457 29.6597 0.171916 29.2904L1.91507 25.2876C1.69975 24.28 1.72608 23.2339 1.99426 22.2355C2.29379 21.1204 2.88426 20.1049 3.7052 19.293L13.4472 9.55095L12.8143 8.91797C12.6827 8.78844 12.5783 8.63405 12.507 8.46378C12.4357 8.2935 12.399 8.11075 12.399 7.92615C12.399 7.74155 12.4357 7.55879 12.507 7.38852C12.5783 7.21825 12.6827 7.06385 12.8143 6.93432L14.0323 5.71629C14.5564 5.19984 15.2627 4.91034 15.9985 4.91034C16.7344 4.91034 17.4407 5.19984 17.9648 5.71629L18.8174 6.56891L23.6199 1.76639C25.4992 -0.112854 28.5617 -0.217257 30.4757 1.60979C30.9482 2.0567 31.3265 2.59368 31.5881 3.18908C31.8498 3.78449 31.9897 4.42626 31.9994 5.07656C32.0091 5.72686 31.8886 6.37253 31.6448 6.97549C31.401 7.57846 31.039 8.12652 30.5801 8.58737L25.708 13.4595ZM4.72459 21.1506C4.84413 20.9972 4.97384 20.8511 5.1131 20.7135L5.11736 20.7093L12.2419 13.5847L7.32848 21.1506H4.72459ZM17.5776 21.1506H7.33124L12.2446 13.582L14.8615 10.9652L21.3122 17.4159L17.5776 21.1506ZM12.2446 13.582L12.2419 13.5847L14.3047 10.4084L12.2446 13.582Z" fill="#111827"/>
</svg>
