<svg width="33" height="33" viewBox="0 0 33 33" fill="none" xmlns="http://www.w3.org/2000/svg">
<path fill-rule="evenodd" clip-rule="evenodd" d="M24.0887 14.7597L24.7488 15.4198C25.1486 15.8256 25.3727 16.3723 25.3727 16.942C25.3727 17.5117 25.1486 18.0585 24.7488 18.4642L23.8058 19.4072C23.7055 19.509 23.586 19.5899 23.4542 19.6451C23.3224 19.7003 23.1809 19.7287 23.038 19.7287C22.895 19.7287 22.7536 19.7003 22.6217 19.6451C22.4899 19.5899 22.3704 19.509 22.2701 19.4072L21.9402 19.0773L14.4007 26.6167L14.3984 26.619C13.7418 27.2827 12.9206 27.7601 12.0189 28.0023C11.2351 28.2129 10.415 28.2391 9.62222 28.0812L6.77629 29.3217L6.77522 29.3222C6.39649 29.4881 5.97687 29.5372 5.57007 29.4632C5.16288 29.3892 4.78708 29.1952 4.49084 28.9062L5.06798 28.3146C5.06778 28.3145 5.06758 28.3143 5.06738 28.3141L4.48767 28.9031C4.23037 28.6498 4.05678 28.3238 3.99024 27.969C3.92415 27.6165 3.96684 27.2523 4.11256 26.9247L5.43313 23.8923C5.27518 23.0995 5.30142 22.2792 5.51198 21.4954C5.7542 20.5936 6.23164 19.7724 6.89542 19.1158L14.437 11.5741L14.1067 11.2438C14.0048 11.1435 13.924 11.024 13.8688 10.8921C13.8136 10.7603 13.7852 10.6188 13.7852 10.4759C13.7852 10.333 13.8136 10.1915 13.8688 10.0597C13.924 9.92787 14.0048 9.80834 14.1067 9.70806L15.0496 8.76509C15.4554 8.36527 16.0022 8.14114 16.5719 8.14114C17.1415 8.14114 17.6883 8.36527 18.0941 8.76509L18.7542 9.42517L22.4722 5.70717C23.927 4.25229 26.2979 4.17147 27.7798 5.58593C28.1456 5.93191 28.4384 6.34763 28.641 6.80858C28.8436 7.26953 28.9518 7.76638 28.9594 8.26982C28.9669 8.77327 28.8736 9.27313 28.6848 9.73994C28.4961 10.2067 28.2159 10.631 27.8606 10.9878L24.0887 14.7597ZM17.475 20.714H8.13637C8.18968 20.6528 8.24536 20.5935 8.30333 20.5362L8.30334 20.5363L8.30759 20.532L15.8513 12.9884L20.5259 17.663L17.475 20.714Z" fill="#1C1B1F"/>
</svg>
