<svg width="32" height="32" viewBox="0 0 32 32" fill="none" xmlns="http://www.w3.org/2000/svg">
<path fill-rule="evenodd" clip-rule="evenodd" d="M25.9991 2.84888C29.3128 2.84888 31.9991 5.53517 31.9991 8.84888V23.0491C31.9996 23.0831 31.9999 23.1171 31.9999 23.1513C31.9999 23.1854 31.9996 23.2194 31.9991 23.2534V23.4159C31.9991 23.4747 31.994 23.5323 31.9842 23.5884C31.7603 26.698 29.1666 29.1512 25.9999 29.1512C22.7981 29.1512 20.1821 26.6433 20.009 23.4847L20 23.4848H12.0001L11.9909 23.4847C11.8178 26.6433 9.20179 29.1512 5.99999 29.1512C2.80969 29.1512 0.200946 26.6613 0.01107 23.5187C0.00772738 23.486 0.00596828 23.4527 0.00587038 23.4191C0.00197043 23.3303 0 23.241 0 23.1513C0 23.0615 0.00196897 22.9723 0.00586605 22.8835V8.84912C0.00586605 5.53541 2.69216 2.84912 6.00587 2.84912H7.82909C8.38138 2.84912 8.82909 3.29684 8.82909 3.84912C8.82909 4.40141 8.38138 4.84912 7.82909 4.84912H6.00587C3.79673 4.84912 2.00587 6.63998 2.00587 8.84912V18.6738C3.06667 17.7268 4.46611 17.1513 5.99999 17.1513C8.74487 17.1513 11.0593 18.9945 11.7729 21.5107C11.8459 21.4937 11.9219 21.4848 12.0001 21.4848H20C20.0781 21.4848 20.1541 21.4937 20.227 21.5106C20.9407 18.9944 23.2551 17.1513 25.9999 17.1513C27.5362 17.1513 28.9376 17.7287 29.9991 18.6783V8.84888C29.9991 6.63974 28.2082 4.84888 25.9991 4.84888H24.1758C23.6235 4.84888 23.1758 4.40116 23.1758 3.84888C23.1758 3.29659 23.6235 2.84888 24.1758 2.84888H25.9991Z" fill="#111827"/>
</svg>
