<svg width="32" height="33" viewBox="0 0 32 33" fill="none" xmlns="http://www.w3.org/2000/svg">
<path fill-rule="evenodd" clip-rule="evenodd" d="M25.9991 3.34888C29.3128 3.34888 31.9991 6.03517 31.9991 9.34888V23.5491C31.9996 23.5831 31.9999 23.6171 31.9999 23.6513C31.9999 23.6854 31.9996 23.7194 31.9991 23.7534V23.9159C31.9991 23.9747 31.994 24.0323 31.9842 24.0884C31.7603 27.198 29.1666 29.6512 25.9999 29.6512C22.7981 29.6512 20.1821 27.1433 20.009 23.9847L20 23.9848H12.0001L11.9909 23.9847C11.8178 27.1433 9.20179 29.6512 5.99999 29.6512C2.80969 29.6512 0.200946 27.1613 0.01107 24.0187C0.00772738 23.986 0.00596828 23.9527 0.00587038 23.9191C0.00197043 23.8303 0 23.741 0 23.6513C0 23.5615 0.00196897 23.4723 0.00586605 23.3835V9.34912C0.00586605 6.03541 2.69216 3.34912 6.00587 3.34912H7.82909C8.38138 3.34912 8.82909 3.79684 8.82909 4.34912C8.82909 4.90141 8.38138 5.34912 7.82909 5.34912H6.00587C3.79673 5.34912 2.00587 7.13998 2.00587 9.34912V19.1738C3.06667 18.2268 4.46611 17.6513 5.99999 17.6513C8.74487 17.6513 11.0593 19.4945 11.7729 22.0107C11.8459 21.9937 11.9219 21.9848 12.0001 21.9848H20C20.0781 21.9848 20.1541 21.9937 20.227 22.0106C20.9407 19.4944 23.2551 17.6513 25.9999 17.6513C27.5362 17.6513 28.9376 18.2287 29.9991 19.1783V9.34888C29.9991 7.13974 28.2082 5.34888 25.9991 5.34888H24.1758C23.6235 5.34888 23.1758 4.90116 23.1758 4.34888C23.1758 3.79659 23.6235 3.34888 24.1758 3.34888H25.9991Z" fill="#111827"/>
</svg>
