<svg width="33" height="33" viewBox="0 0 33 33" fill="none" xmlns="http://www.w3.org/2000/svg">
<path d="M9.46021 25.7712C11.9455 25.7712 13.9602 23.7565 13.9602 21.2712C13.9602 18.786 11.9455 16.7712 9.46021 16.7712C6.97492 16.7712 4.96021 18.786 4.96021 21.2712C4.96021 23.7565 6.97492 25.7712 9.46021 25.7712Z" fill="#1C1B1F" stroke="#1C1B1F" stroke-width="2" stroke-linecap="round" stroke-linejoin="round"/>
<path d="M24.4602 25.7712C26.9455 25.7712 28.9602 23.7565 28.9602 21.2712C28.9602 18.786 26.9455 16.7712 24.4602 16.7712C21.9749 16.7712 19.9602 18.786 19.9602 21.2712C19.9602 23.7565 21.9749 25.7712 24.4602 25.7712Z" fill="#1C1B1F" stroke="#1C1B1F" stroke-width="2" stroke-linecap="round" stroke-linejoin="round"/>
<path d="M13.9602 20.7712H19.9602" stroke="#1C1B1F" stroke-width="2" stroke-linecap="round" stroke-linejoin="round"/>
<path d="M10.0776 6.79443H9.96021C7.19878 6.79443 4.96021 9.03301 4.96021 11.7944V21.4697" stroke="#1C1B1F" stroke-width="2" stroke-linecap="round"/>
<path d="M23.8428 6.79443H23.9602C26.7216 6.79443 28.9602 9.03301 28.9602 11.7944V21.4697" stroke="#1C1B1F" stroke-width="2" stroke-linecap="round"/>
</svg>
