<svg width="32" height="32" viewBox="0 0 32 32" fill="none" xmlns="http://www.w3.org/2000/svg">
<path fill-rule="evenodd" clip-rule="evenodd" d="M17.3071 7.18165C16.7237 6.53436 17.1906 5.56208 18.0421 5.74729C22.1505 6.64091 26.4569 9.82236 31.7195 15.2181C32.0857 15.5935 32.0947 16.1895 31.7394 16.5753C30.9318 17.4522 30.1465 18.2722 29.3802 19.0349C28.9797 19.4335 28.3288 19.4098 27.9505 18.9901L17.3071 7.18165ZM0.261626 16.5521C-0.0821463 16.1775 -0.087946 15.5994 0.252792 15.2219C2.70058 12.5105 4.94575 10.3723 7.07745 8.7988C7.46558 8.5123 8.00262 8.56273 8.34382 8.90376L22.5758 23.1288C23.0256 23.5784 22.9448 24.332 22.3921 24.6466C15.2531 28.7102 9.10883 26.1947 0.261626 16.5521ZM16.0125 21.1106C13.1899 21.1106 10.9017 18.8224 10.9017 15.9998C10.9017 15.2603 11.0588 14.5575 11.3414 13.9229C11.5846 13.3768 12.2891 13.3149 12.7249 13.7242L18.4898 19.1376C18.9257 19.5469 18.9081 20.254 18.3783 20.5312C17.6709 20.9013 16.8662 21.1106 16.0125 21.1106Z" fill="#111827"/>
<path d="M3.30518 3.29248L28.7202 28.7075" stroke="#111827" stroke-width="2" stroke-linecap="round"/>
</svg>
