<svg width="33" height="33" viewBox="0 0 33 33" fill="none" xmlns="http://www.w3.org/2000/svg">
<path fill-rule="evenodd" clip-rule="evenodd" d="M18.3168 10.264C17.7334 9.61672 18.2004 8.66814 19.0379 8.90904C21.8309 9.71244 24.7774 11.9339 28.3108 15.5314C28.6783 15.9055 28.6882 16.5027 28.3315 16.8872C27.8657 17.3894 27.4099 17.8655 26.963 18.3154C26.5648 18.7163 25.9137 18.6925 25.5354 18.2728L18.3168 10.264ZM5.56224 16.8612C5.21713 16.4878 5.21378 15.9124 5.55596 15.5363C7.2227 13.7043 8.76184 12.2379 10.2264 11.1319C10.6114 10.8412 11.1489 10.892 11.4901 11.233L21.5434 21.2814C21.9932 21.731 21.9156 22.4843 21.3556 22.7857C16.2808 25.5172 11.8509 23.6661 5.56224 16.8612ZM16.96 20.0329C14.8889 20.0329 13.21 18.354 13.21 16.2829C13.21 15.846 13.2847 15.4265 13.422 15.0366C13.6207 14.4727 14.3297 14.4085 14.7656 14.8178L18.5597 18.3806C18.9956 18.7899 18.976 19.5017 18.4257 19.7356C17.9754 19.927 17.4801 20.0329 16.96 20.0329Z" fill="#1C1B1F"/>
<path d="M7.63574 6.95886L26.2839 25.6071" stroke="#1C1B1F" stroke-width="2" stroke-linecap="round"/>
</svg>
