<svg width="32" height="32" viewBox="0 0 32 32" fill="none" xmlns="http://www.w3.org/2000/svg">
<path fill-rule="evenodd" clip-rule="evenodd" d="M15.6328 5.48325L5.78604 9.91428H5.41924C2.42682 9.91428 0.000976562 12.3401 0.000976562 15.3325C0.000976562 18.325 2.42681 20.7508 5.41923 20.7508H5.85467C6.17046 22.6174 7.52749 24.1763 9.392 24.717L15.7653 26.5652C15.948 26.6182 16.142 26.618 16.3246 26.5645L22.6191 24.7229C24.4812 24.1781 25.8344 22.6174 26.1466 20.7508H26.5782C29.572 20.7508 31.9989 18.3238 31.9989 15.33C31.9989 12.3362 29.572 9.90924 26.5782 9.90924H26.2026L16.4566 5.48462C16.195 5.36584 15.8949 5.36534 15.6328 5.48325ZM26.2151 18.7508L26.2151 11.9092H26.5782C28.4674 11.9092 29.9989 13.4408 29.9989 15.33C29.9989 17.2193 28.4674 18.7508 26.5782 18.7508H26.2151ZM5.41924 11.9143H5.78459L5.7846 18.7508H5.41923C3.53138 18.7508 2.00098 17.2204 2.00098 15.3325C2.00098 13.4447 3.53138 11.9143 5.41924 11.9143ZM10.2154 14.9667C10.2154 14.4144 10.6631 13.9667 11.2154 13.9667H20.7837C21.3359 13.9667 21.7837 14.4144 21.7837 14.9667C21.7837 15.519 21.3359 15.9667 20.7837 15.9667H11.2154C10.6631 15.9667 10.2154 15.519 10.2154 14.9667ZM10.2154 18.7939C10.2154 18.2416 10.6631 17.7939 11.2154 17.7939H20.7837C21.3359 17.7939 21.7837 18.2416 21.7837 18.7939C21.7837 19.3462 21.3359 19.7939 20.7837 19.7939H11.2154C10.6631 19.7939 10.2154 19.3462 10.2154 18.7939Z" fill="#111827"/>
</svg>
