<svg width="33" height="33" viewBox="0 0 33 33" fill="none" xmlns="http://www.w3.org/2000/svg">
<path fill-rule="evenodd" clip-rule="evenodd" d="M16.584 7.48761L8.83062 10.9766C8.8163 10.976 8.80191 10.9757 8.78744 10.9757H8.40468C5.94993 10.9757 3.95996 12.9656 3.95996 15.4204C3.95996 17.8751 5.94993 19.8651 8.40468 19.8651H8.78744C8.87662 19.8651 8.96307 19.8534 9.04535 19.8315C9.55592 21.357 10.7866 22.581 12.3948 23.0474L16.7164 24.3006C16.8991 24.3536 17.0931 24.3534 17.2757 24.2999L21.5366 23.0533C23.1425 22.5835 24.3699 21.358 24.8775 19.8324C24.9588 19.8537 25.0442 19.8651 25.1322 19.8651H25.5149C27.9697 19.8651 29.9596 17.8751 29.9596 15.4204C29.9596 12.9656 27.9697 10.9757 25.5149 10.9757H25.1322C25.1179 10.9757 25.1038 10.976 25.0897 10.9766L17.4077 7.48898C17.1461 7.3702 16.846 7.3697 16.584 7.48761ZM12.1322 15.0376C12.1322 14.4854 12.5799 14.0376 13.1322 14.0376H20.7871C21.3394 14.0376 21.7871 14.4854 21.7871 15.0376C21.7871 15.5899 21.3394 16.0376 20.7871 16.0376H13.1322C12.5799 16.0376 12.1322 15.5899 12.1322 15.0376ZM12.1322 18.0996C12.1322 17.5473 12.5799 17.0996 13.1322 17.0996H20.7871C21.3394 17.0996 21.7871 17.5473 21.7871 18.0996C21.7871 18.6519 21.3394 19.0996 20.7871 19.0996H13.1322C12.5799 19.0996 12.1322 18.6519 12.1322 18.0996ZM7.78744 13.0543V17.7865C6.73609 17.513 5.95996 16.5574 5.95996 15.4204C5.95996 14.2834 6.73609 13.3278 7.78744 13.0543ZM26.1322 17.7865V13.0543C27.1835 13.3278 27.9596 14.2834 27.9596 15.4204C27.9596 16.5574 27.1835 17.513 26.1322 17.7865Z" fill="#1C1B1F"/>
</svg>
