<svg width="33" height="33" viewBox="0 0 33 33" fill="none" xmlns="http://www.w3.org/2000/svg">
<path fill-rule="evenodd" clip-rule="evenodd" d="M17.9602 28.2419C24.1197 27.7337 28.9602 22.5736 28.9602 16.283C28.9602 9.65554 23.5876 4.28296 16.9602 4.28296C10.3328 4.28296 4.96021 9.65554 4.96021 16.283C4.96021 22.5736 9.80067 27.7337 15.9602 28.2419V28.244C16.005 28.2468 16.0487 28.2495 16.0914 28.252C16.3783 28.2725 16.668 28.283 16.9602 28.283C17.262 28.283 17.5611 28.2718 17.8573 28.2499C17.891 28.248 17.9252 28.2461 17.9602 28.244V28.2419ZM17.9602 28.2419V19.283H20.9602C21.5125 19.283 21.9602 18.8352 21.9602 18.283C21.9602 17.7307 21.5125 17.283 20.9602 17.283H17.9602V14.1092C17.9602 13.5907 18.1748 13.0964 18.5517 12.7344C18.9281 12.3729 19.4351 12.1727 19.9602 12.1727H21.9602C22.5125 12.1727 22.9602 11.7497 22.9602 11.2278C22.9602 10.706 22.5125 10.283 21.9602 10.283H19.9602C18.894 10.283 17.8749 10.6899 17.126 11.4091C16.3777 12.1278 15.9602 13.0993 15.9602 14.1092V17.283H12.9602C12.4079 17.283 11.9602 17.7307 11.9602 18.283C11.9602 18.8352 12.4079 19.283 12.9602 19.283H15.9602V28.2419C16.0039 28.2455 16.0476 28.2489 16.0914 28.252C16.7769 28.2919 17.1993 28.2869 17.8573 28.2499C17.8916 28.2474 17.9259 28.2447 17.9602 28.2419Z" fill="#1C1B1F"/>
</svg>
