<svg width="33" height="33" viewBox="0 0 33 33" fill="none" xmlns="http://www.w3.org/2000/svg">
<path fill-rule="evenodd" clip-rule="evenodd" d="M17.9602 28.3834C24.1197 27.8752 28.9602 22.7151 28.9602 16.4244C28.9602 9.79702 23.5876 4.42444 16.9602 4.42444C10.3328 4.42444 4.96021 9.79702 4.96021 16.4244C4.96021 22.7151 9.80067 27.8752 15.9602 28.3834V28.3855C16.005 28.3883 16.0487 28.391 16.0914 28.3935C16.3783 28.414 16.668 28.4244 16.9602 28.4244C17.262 28.4244 17.5611 28.4133 17.8573 28.3914C17.891 28.3895 17.9252 28.3875 17.9602 28.3855V28.3834ZM17.9602 28.3834V19.4244H20.9602C21.5125 19.4244 21.9602 18.9767 21.9602 18.4244C21.9602 17.8722 21.5125 17.4244 20.9602 17.4244H17.9602V14.2507C17.9602 13.7321 18.1748 13.2379 18.5517 12.8759C18.9281 12.5144 19.4351 12.3142 19.9602 12.3142H21.9602C22.5125 12.3142 22.9602 11.8912 22.9602 11.3693C22.9602 10.8475 22.5125 10.4244 21.9602 10.4244H19.9602C18.894 10.4244 17.8749 10.8314 17.126 11.5506C16.3777 12.2693 15.9602 13.2408 15.9602 14.2507V17.4244H12.9602C12.4079 17.4244 11.9602 17.8722 11.9602 18.4244C11.9602 18.9767 12.4079 19.4244 12.9602 19.4244H15.9602V28.3834C16.0039 28.387 16.0476 28.3903 16.0914 28.3935C16.7769 28.4334 17.1993 28.4284 17.8573 28.3914C17.8916 28.3889 17.9259 28.3862 17.9602 28.3834Z" fill="#1C1B1F"/>
</svg>
