<svg width="32" height="32" viewBox="0 0 32 32" fill="none" xmlns="http://www.w3.org/2000/svg">
<path fill-rule="evenodd" clip-rule="evenodd" d="M17.3333 31.9452C25.546 31.2677 32 24.3876 32 16C32 7.16344 24.8366 0 16 0C7.16344 0 0 7.16344 0 16C0 24.3876 6.45396 31.2677 14.6667 31.9452V31.9481C14.7265 31.9519 14.7848 31.9554 14.8417 31.9587C15.2242 31.9861 15.6105 32 16 32C16.4023 32 16.8012 31.9851 17.1961 31.956C17.241 31.9534 17.2867 31.9508 17.3333 31.9481V31.9452ZM17.3333 31.9452V20H21.3333C22.0697 20 22.6667 19.403 22.6667 18.6667C22.6667 17.9303 22.0697 17.3333 21.3333 17.3333L17.3333 17.3333V13.1016C17.3333 12.4103 17.6195 11.7513 18.1221 11.2686C18.6239 10.7866 19.2999 10.5197 20 10.5197H22.6667C23.403 10.5197 24 9.95563 24 9.25984C24 8.56405 23.403 8 22.6667 8H20C18.5784 8 17.2195 8.54258 16.2211 9.50154C15.2234 10.4598 14.6667 11.7552 14.6667 13.1016V17.3333L10.6667 17.3333C9.93029 17.3333 9.33333 17.9303 9.33333 18.6667C9.33333 19.403 9.93029 20 10.6667 20H14.6667V31.9452C14.7249 31.95 14.7832 31.9545 14.8417 31.9587C15.7556 32.0119 16.3189 32.0052 17.1961 31.956C17.2419 31.9526 17.2876 31.949 17.3333 31.9452Z" fill="#111827"/>
</svg>
