<svg width="32" height="32" viewBox="0 0 32 32" fill="none" xmlns="http://www.w3.org/2000/svg">
<path fill-rule="evenodd" clip-rule="evenodd" d="M21.7348 2.1438C21.2263 2.1438 20.7612 2.35684 20.4193 2.6993C20.0896 3.02953 19.8911 3.46009 19.8287 3.90545L17.284 17.4726L13.6053 12.4598C13.3703 12.1396 12.8739 12.2079 12.7342 12.5797L10.9157 17.4178C10.7879 17.758 10.3512 17.8524 10.0942 17.5954L5.06766 12.5689C4.75268 12.2539 4.21411 12.477 4.21411 12.9225V27.8562H0.999756C0.447471 27.8562 -0.000244141 28.3039 -0.000244141 28.8562C-0.000244141 29.4085 0.447471 29.8562 0.999756 29.8562H31.0002C31.5525 29.8562 32.0002 29.4085 32.0002 28.8562C32.0002 28.3039 31.5525 27.8562 31.0002 27.8562H27.7859V18.644C27.7859 18.4428 27.667 18.2693 27.4955 18.19C27.498 18.1346 27.4959 18.0782 27.4889 18.0213L25.7472 3.94096C25.6906 3.48303 25.4904 3.0383 25.152 2.6993C24.8101 2.35684 24.345 2.1438 23.8364 2.1438H21.7348ZM25.4888 18.144L23.7624 4.18648C23.7603 4.16984 23.7567 4.15552 23.7526 4.1438H21.8186C21.8145 4.15552 21.8109 4.16984 21.8088 4.18648C21.8063 4.2071 21.8031 4.22764 21.7993 4.24806L19.193 18.144H25.4888ZM8.32109 23.5011C8.32109 22.8108 8.88074 22.2511 9.57111 22.2511H13.3212C14.0115 22.2511 14.5712 22.8108 14.5712 23.5011C14.5712 24.1915 14.0115 24.7512 13.3212 24.7512H9.57111C8.88074 24.7512 8.32109 24.1915 8.32109 23.5011ZM18.6784 22.2511C17.988 22.2511 17.4284 22.8108 17.4284 23.5011C17.4284 24.1915 17.988 24.7512 18.6784 24.7512H22.4285C23.1188 24.7512 23.6785 24.1915 23.6785 23.5011C23.6785 22.8108 23.1188 22.2511 22.4285 22.2511H18.6784Z" fill="#111827"/>
</svg>
