<svg width="33" height="33" viewBox="0 0 33 33" fill="none" xmlns="http://www.w3.org/2000/svg">
<path fill-rule="evenodd" clip-rule="evenodd" d="M25.8889 26.5685C26.165 26.5685 26.3889 26.3447 26.3889 26.0685V18.4971C26.3889 18.221 26.165 17.9971 25.8889 17.9971H18.635C18.4758 17.9971 18.3261 17.9213 18.2319 17.7929L15.1538 13.5986C14.9189 13.2785 14.4224 13.3468 14.2827 13.7185L12.9476 17.2708C12.8197 17.6111 12.383 17.7055 12.126 17.4485L8.38529 13.7078C8.07031 13.3928 7.53174 13.6159 7.53174 14.0614V26.0685C7.53174 26.3447 7.7556 26.5685 8.03174 26.5685H25.8889ZM10.8174 22.2827C10.8174 21.7304 11.2651 21.2827 11.8174 21.2827H14.8174C15.3697 21.2827 15.8174 21.7304 15.8174 22.2827C15.8174 22.835 15.3697 23.2827 14.8174 23.2827H11.8174C11.2651 23.2827 10.8174 22.835 10.8174 22.2827ZM19.103 21.2827C18.5507 21.2827 18.103 21.7304 18.103 22.2827C18.103 22.835 18.5507 23.2827 19.103 23.2827H22.103C22.6553 23.2827 23.103 22.835 23.103 22.2827C23.103 21.7304 22.6553 21.2827 22.103 21.2827H19.103Z" fill="#1C1B1F"/>
<path d="M4.96021 26.5667H28.9602" stroke="#1C1B1F" stroke-width="2" stroke-linecap="round" stroke-linejoin="round"/>
<path d="M25.3573 17.9971L23.964 6.73299C23.9387 6.52874 23.8505 6.34187 23.7156 6.20668C23.5806 6.0715 23.4079 5.99707 23.2293 5.99707H21.548C21.3694 5.99707 21.1967 6.0715 21.0618 6.20668C20.9268 6.34187 20.8386 6.52874 20.8133 6.73299L18.7004 17.9982" stroke="#1C1B1F" stroke-width="2" stroke-linecap="round" stroke-linejoin="round"/>
</svg>
