<svg width="32" height="33" viewBox="0 0 32 33" fill="none" xmlns="http://www.w3.org/2000/svg">
<path fill-rule="evenodd" clip-rule="evenodd" d="M21.7348 2.6438C21.2263 2.6438 20.7612 2.85684 20.4193 3.1993C20.0896 3.52953 19.8911 3.96009 19.8287 4.40545L17.284 17.9726L13.6053 12.9598C13.3703 12.6396 12.8739 12.7079 12.7342 13.0797L10.9157 17.9178C10.7879 18.258 10.3512 18.3524 10.0942 18.0954L5.06766 13.0689C4.75268 12.7539 4.21411 12.977 4.21411 13.4225V28.3562H0.999756C0.447471 28.3562 -0.000244141 28.8039 -0.000244141 29.3562C-0.000244141 29.9085 0.447471 30.3562 0.999756 30.3562H31.0002C31.5525 30.3562 32.0002 29.9085 32.0002 29.3562C32.0002 28.8039 31.5525 28.3562 31.0002 28.3562H27.7859V19.144C27.7859 18.9428 27.667 18.7693 27.4955 18.69C27.498 18.6346 27.4959 18.5782 27.4889 18.5213L25.7472 4.44096C25.6906 3.98303 25.4904 3.5383 25.152 3.1993C24.8101 2.85684 24.345 2.6438 23.8364 2.6438H21.7348ZM25.4888 18.644L23.7624 4.68648C23.7603 4.66984 23.7567 4.65552 23.7526 4.6438H21.8186C21.8145 4.65552 21.8109 4.66984 21.8088 4.68648C21.8063 4.7071 21.8031 4.72764 21.7993 4.74806L19.193 18.644H25.4888ZM8.32109 24.0011C8.32109 23.3108 8.88074 22.7511 9.57111 22.7511H13.3212C14.0115 22.7511 14.5712 23.3108 14.5712 24.0011C14.5712 24.6915 14.0115 25.2512 13.3212 25.2512H9.57111C8.88074 25.2512 8.32109 24.6915 8.32109 24.0011ZM18.6784 22.7511C17.988 22.7511 17.4284 23.3108 17.4284 24.0011C17.4284 24.6915 17.988 25.2512 18.6784 25.2512H22.4285C23.1188 25.2512 23.6785 24.6915 23.6785 24.0011C23.6785 23.3108 23.1188 22.7511 22.4285 22.7511H18.6784Z" fill="#111827"/>
</svg>
