<svg width="33" height="33" viewBox="0 0 33 33" fill="none" xmlns="http://www.w3.org/2000/svg">
<path fill-rule="evenodd" clip-rule="evenodd" d="M25.9601 4.78296C26.5124 4.78296 26.9601 5.23068 26.9601 5.78297L26.96 20.783H28.96C29.5122 20.783 29.96 21.2307 29.96 21.783C29.96 22.3352 29.5122 22.783 28.96 22.783H25.96H22.96C22.4077 22.783 21.96 22.3352 21.96 21.783C21.96 21.2307 22.4077 20.783 22.96 20.783H24.96L24.9601 5.78295C24.9601 5.23067 25.4078 4.78296 25.9601 4.78296ZM16.96 4.78296C17.5123 4.78296 17.96 5.23068 17.96 5.78296L17.96 10.783H19.96C20.5122 10.783 20.96 11.2307 20.96 11.783C20.96 12.3352 20.5122 12.783 19.96 12.783H16.96H13.96C13.4077 12.783 12.96 12.3352 12.96 11.783C12.96 11.2307 13.4077 10.783 13.96 10.783H15.96L15.96 5.78296C15.96 5.23067 16.4077 4.78296 16.96 4.78296ZM16.96 14.783C17.5122 14.783 17.96 15.2307 17.96 15.783L17.96 27.783C17.96 28.3352 17.5123 28.783 16.96 28.783C16.4077 28.783 15.96 28.3352 15.96 27.783L15.96 15.783C15.96 15.2307 16.4077 14.783 16.96 14.783ZM26.96 25.7829C26.9599 25.2306 26.5122 24.7829 25.9599 24.783C25.4076 24.783 24.9599 25.2307 24.96 25.783L24.9601 27.783C24.9601 28.3353 25.4078 28.783 25.9601 28.783C26.5124 28.7829 26.9601 28.3352 26.9601 27.7829L26.96 25.7829ZM7.96005 20.783C8.51233 20.783 8.96004 21.2307 8.96003 21.783L8.95996 27.783C8.95995 28.3353 8.51223 28.783 7.95995 28.783C7.40766 28.783 6.95995 28.3352 6.95996 27.7829L6.96003 21.7829C6.96004 21.2307 7.40776 20.783 7.96005 20.783ZM8.95996 5.78295C8.95996 5.23067 8.51224 4.78296 7.95995 4.78296C7.40767 4.78296 6.95996 5.23068 6.95996 5.78297L6.96003 16.783H4.95996C4.40768 16.783 3.95996 17.2307 3.95996 17.783C3.95996 18.3352 4.40768 18.783 4.95996 18.783H7.96004H10.96C11.5122 18.783 11.96 18.3352 11.96 17.783C11.96 17.2307 11.5122 16.783 10.96 16.783H8.96003L8.95996 5.78295Z" fill="#1C1B1F"/>
</svg>
