<svg width="33" height="33" viewBox="0 0 33 33" fill="none" xmlns="http://www.w3.org/2000/svg">
<path fill-rule="evenodd" clip-rule="evenodd" d="M13.687 6.51025C14.2393 6.51025 14.687 6.95797 14.687 7.51025V9.78303L28.9597 9.78296C29.512 9.78296 29.9597 10.2307 29.9597 10.783C29.9597 11.3352 29.512 11.783 28.9597 11.783L14.687 11.783V14.0557C14.687 14.608 14.2393 15.0557 13.687 15.0557C13.1347 15.0557 12.687 14.608 12.687 14.0557V10.783V7.51025C12.687 6.95797 13.1347 6.51025 13.687 6.51025ZM3.95996 10.7829C3.95997 10.2307 4.40769 9.78295 4.95998 9.78296L9.32362 9.78304C9.8759 9.78305 10.3236 10.2308 10.3236 10.7831C10.3236 11.3353 9.87586 11.783 9.32358 11.783L4.95994 11.783C4.40766 11.7829 3.95995 11.3352 3.95996 10.7829ZM18.0509 21.783L4.95996 21.783C4.40767 21.783 3.95996 22.2307 3.95996 22.783C3.95996 23.3353 4.40768 23.783 4.95996 23.783L18.0509 23.783C18.6032 23.783 19.0509 23.3352 19.0509 22.783C19.0509 22.2307 18.6032 21.783 18.0509 21.783ZM21.4146 22.783V19.5103C21.4146 18.958 21.8623 18.5103 22.4146 18.5103C22.9668 18.5103 23.4146 18.958 23.4146 19.5103V21.783L28.96 21.783C29.5123 21.783 29.96 22.2307 29.96 22.783C29.96 23.3353 29.5123 23.783 28.96 23.783L23.4146 23.783V26.0557C23.4146 26.608 22.9668 27.0557 22.4146 27.0557C21.8623 27.0557 21.4146 26.608 21.4146 26.0557V22.783Z" fill="#1C1B1F"/>
</svg>
