<svg width="32" height="33" viewBox="0 0 32 33" fill="none" xmlns="http://www.w3.org/2000/svg">
<path fill-rule="evenodd" clip-rule="evenodd" d="M11.9094 3.90967C12.4617 3.90967 12.9094 4.35738 12.9094 4.90967V8.00018L30.9992 8.00009C31.5515 8.00009 31.9992 8.4478 31.9992 9.00008C31.9992 9.55237 31.5515 10.0001 30.9992 10.0001L12.9094 10.0002V13.091C12.9094 13.6433 12.4617 14.091 11.9094 14.091C11.3571 14.091 10.9094 13.6433 10.9094 13.091V9.00019V4.90967C10.9094 4.35738 11.3571 3.90967 11.9094 3.90967ZM0.000976563 9.00007C0.000986576 8.44779 0.44871 8.00008 1.00099 8.00009L6.45521 8.00019C7.0075 8.0002 7.4552 8.44792 7.45519 9.00021C7.45518 9.55249 7.00746 10.0002 6.45518 10.0002L1.00096 10.0001C0.448674 10.0001 0.000966549 9.55236 0.000976563 9.00007ZM17.3636 22.9994L1.00098 22.9995C0.448691 22.9995 0.000975847 23.4472 0.000976563 23.9995C0.000977278 24.5518 0.448693 24.9995 1.00098 24.9995L17.3636 24.9994C17.9159 24.9994 18.3636 24.5517 18.3636 23.9994C18.3636 23.4472 17.9159 22.9994 17.3636 22.9994ZM21.8179 23.9994V19.9088C21.8179 19.3565 22.2656 18.9088 22.8179 18.9088C23.3701 18.9088 23.8179 19.3565 23.8179 19.9088V22.9994L30.9992 22.9995C31.5515 22.9995 31.9992 23.4472 31.9992 23.9995C31.9992 24.5518 31.5515 24.9995 30.9992 24.9995L23.8179 24.9994V28.0901C23.8179 28.6424 23.3701 29.0901 22.8179 29.0901C22.2656 29.0901 21.8179 28.6424 21.8179 28.0901V23.9994Z" fill="#111827"/>
</svg>
