<svg width="32" height="33" viewBox="0 0 32 33" fill="none" xmlns="http://www.w3.org/2000/svg">
<path fill-rule="evenodd" clip-rule="evenodd" d="M16.0001 1.75073C16.5524 1.75073 17.0001 2.19845 17.0001 2.75073L17.0001 9.25028H19.7501C20.3024 9.25028 20.7501 9.69799 20.7501 10.2503C20.7501 10.8026 20.3024 11.2503 19.7501 11.2503H16.004C16.0027 11.2503 16.0014 11.2503 16.0001 11.2503C15.9987 11.2503 15.9974 11.2503 15.9961 11.2503H12.2505C11.6983 11.2503 11.2505 10.8026 11.2505 10.2503C11.2505 9.69799 11.6983 9.25028 12.2505 9.25028H15.0001L15.0001 2.75073C15.0001 2.19845 15.4478 1.75073 16.0001 1.75073ZM16.0001 14.25C16.5523 14.25 17.0001 14.6977 17.0001 15.25L17.0001 30.2491C17.0001 30.8014 16.5524 31.2491 16.0001 31.2491C15.4478 31.2491 15.0001 30.8014 15.0001 30.2491L15.0001 15.25C15.0001 14.6977 15.4478 14.25 16.0001 14.25ZM28.2496 27.7492C28.2496 27.1969 27.8019 26.7492 27.2496 26.7492C26.6973 26.7492 26.2496 27.197 26.2496 27.7493L26.2498 30.2491C26.2498 30.8014 26.6975 31.2491 27.2498 31.2491C27.8021 31.249 28.2498 30.8013 28.2498 30.249L28.2496 27.7492ZM27.2498 1.75073C27.802 1.75074 28.2498 2.19845 28.2498 2.75074L28.2496 21.7495H30.9992C31.5514 21.7495 31.9992 22.1972 31.9992 22.7495C31.9992 23.3018 31.5514 23.7495 30.9992 23.7495H27.2565L27.2496 23.7495L27.2428 23.7495H23.4996C22.9473 23.7495 22.4996 23.3018 22.4996 22.7495C22.4996 22.1972 22.9473 21.7495 23.4996 21.7495H26.2496L26.2498 2.75073C26.2498 2.19844 26.6975 1.75073 27.2498 1.75073ZM4.7511 21.7495C5.30338 21.7495 5.75109 22.1972 5.75109 22.7495L5.75099 30.2491C5.75099 30.8014 5.30327 31.2491 4.75098 31.2491C4.1987 31.2491 3.75099 30.8013 3.75099 30.2491L3.75109 22.7495C3.75109 22.1972 4.19881 21.7495 4.7511 21.7495ZM5.75099 2.75073C5.75099 2.19844 5.30327 1.75073 4.75099 1.75073C4.1987 1.75074 3.75099 2.19845 3.75099 2.75074L3.75108 16.7498H1.00098C0.448692 16.7498 0.000976562 17.1975 0.000976562 17.7498C0.000976562 18.3021 0.448692 18.7498 1.00098 18.7498H4.74586L4.75109 18.7498L4.75631 18.7498H8.50053C9.05281 18.7498 9.50053 18.3021 9.50053 17.7498C9.50053 17.1975 9.05281 16.7498 8.50053 16.7498H5.75108L5.75099 2.75073Z" fill="#111827"/>
</svg>
