<svg width="32" height="32" viewBox="0 0 32 32" fill="none" xmlns="http://www.w3.org/2000/svg">
<g clip-path="url(#clip0_508_619)">
<path d="M31.6897 18.7684C31.3207 17.39 30.634 16.1171 29.6847 15.0517C28.7354 13.9863 27.5498 13.158 26.2229 12.6332C24.896 12.1083 23.4646 11.9014 22.0433 12.0291C20.6221 12.1568 19.2505 12.6155 18.0384 13.3685L20.535 3.40037C20.5969 3.15271 20.5795 2.89186 20.4852 2.65462C20.3909 2.41739 20.2245 2.21576 20.0095 2.07819C18.973 1.42374 17.8155 0.984459 16.6059 0.786489C15.3962 0.58852 14.159 0.635909 12.9681 0.925836C11.7771 1.21576 10.6566 1.7423 9.67323 2.47412C8.6899 3.20595 7.86382 4.1281 7.24416 5.1857C6.6245 6.24331 6.22392 7.41475 6.06624 8.63034C5.90857 9.84592 5.99703 11.0808 6.32637 12.2615C6.6557 13.4422 7.21917 14.5446 7.98326 15.5031C8.74734 16.4615 9.69643 17.2565 10.774 17.8407L0.892756 20.6633C0.647271 20.7332 0.429937 20.8784 0.271421 21.0785C0.112905 21.2785 0.0212099 21.5233 0.00927548 21.7783C-0.0845088 23.8589 0.535153 25.9092 1.76565 27.5895C2.99615 29.2699 4.76367 30.4796 6.77552 31.0183C7.5515 31.2266 8.35137 31.3326 9.15483 31.3336C10.3791 31.3304 11.5904 31.0815 12.7167 30.6016C13.8431 30.1218 14.8617 29.4208 15.7123 28.5401C16.5628 27.6595 17.228 26.6171 17.6683 25.4747C18.1087 24.3323 18.3153 23.1132 18.276 21.8895L25.6607 29.0366C25.8443 29.2142 26.0792 29.3297 26.332 29.3666C26.5849 29.4035 26.8429 29.36 27.0697 29.2422C28.9174 28.2835 30.3825 26.7228 31.2226 24.8182C32.0627 22.9136 32.2275 20.7793 31.6897 18.7684ZM16.0673 20.7257C15.4693 20.7993 14.8628 20.6938 14.3247 20.4227C13.7866 20.1516 13.341 19.727 13.0442 19.2026C12.7474 18.6782 12.6128 18.0776 12.6574 17.4767C12.702 16.8758 12.9237 16.3016 13.2946 15.8267C13.6655 15.3519 14.1689 14.9977 14.7411 14.8089C15.3133 14.6201 15.9287 14.6053 16.5093 14.7662C17.09 14.9272 17.6098 15.2567 18.0032 15.7131C18.3966 16.1696 18.6458 16.7324 18.7193 17.3304C18.8178 18.1323 18.5938 18.9406 18.0965 19.5773C17.5991 20.214 16.8692 20.6271 16.0673 20.7257Z" fill="black"/>
</g>
<defs>
<clipPath id="clip0_508_619">
<rect width="32" height="32" fill="white"/>
</clipPath>
</defs>
</svg>
