<svg width="32" height="33" viewBox="0 0 32 33" fill="none" xmlns="http://www.w3.org/2000/svg">
<g clip-path="url(#clip0_508_619)">
<path d="M31.6897 19.2684C31.3207 17.89 30.634 16.6171 29.6847 15.5517C28.7354 14.4863 27.5498 13.658 26.2229 13.1332C24.896 12.6083 23.4646 12.4014 22.0433 12.5291C20.6221 12.6568 19.2505 13.1155 18.0384 13.8685L20.535 3.90037C20.5969 3.65271 20.5795 3.39186 20.4852 3.15462C20.3909 2.91739 20.2245 2.71576 20.0095 2.57819C18.973 1.92374 17.8155 1.48446 16.6059 1.28649C15.3962 1.08852 14.159 1.13591 12.9681 1.42584C11.7771 1.71576 10.6566 2.2423 9.67323 2.97412C8.6899 3.70595 7.86382 4.6281 7.24416 5.6857C6.6245 6.74331 6.22392 7.91475 6.06624 9.13034C5.90857 10.3459 5.99703 11.5808 6.32637 12.7615C6.6557 13.9422 7.21917 15.0446 7.98326 16.0031C8.74734 16.9615 9.69643 17.7565 10.774 18.3407L0.892756 21.1633C0.647271 21.2332 0.429937 21.3784 0.271421 21.5785C0.112905 21.7785 0.0212099 22.0233 0.00927548 22.2783C-0.0845088 24.3589 0.535153 26.4092 1.76565 28.0895C2.99615 29.7699 4.76367 30.9796 6.77552 31.5183C7.5515 31.7266 8.35137 31.8326 9.15483 31.8336C10.3791 31.8304 11.5904 31.5815 12.7167 31.1016C13.8431 30.6218 14.8617 29.9208 15.7123 29.0401C16.5628 28.1595 17.228 27.1171 17.6683 25.9747C18.1087 24.8323 18.3153 23.6132 18.276 22.3895L25.6607 29.5366C25.8443 29.7142 26.0792 29.8297 26.332 29.8666C26.5849 29.9035 26.8429 29.86 27.0697 29.7422C28.9174 28.7835 30.3825 27.2228 31.2226 25.3182C32.0627 23.4136 32.2275 21.2793 31.6897 19.2684ZM16.0673 21.2257C15.4693 21.2993 14.8628 21.1938 14.3247 20.9227C13.7866 20.6516 13.341 20.227 13.0442 19.7026C12.7474 19.1782 12.6128 18.5776 12.6574 17.9767C12.702 17.3758 12.9237 16.8016 13.2946 16.3267C13.6655 15.8519 14.1689 15.4977 14.7411 15.3089C15.3133 15.1201 15.9287 15.1053 16.5093 15.2662C17.09 15.4272 17.6098 15.7567 18.0032 16.2131C18.3966 16.6696 18.6458 17.2324 18.7193 17.8304C18.8178 18.6323 18.5938 19.4406 18.0965 20.0773C17.5991 20.714 16.8692 21.1271 16.0673 21.2257Z" fill="black"/>
</g>
<defs>
<clipPath id="clip0_508_619">
<rect width="32" height="32" fill="white" transform="translate(0 0.5)"/>
</clipPath>
</defs>
</svg>
