<svg width="33" height="33" viewBox="0 0 33 33" fill="none" xmlns="http://www.w3.org/2000/svg">
<path fill-rule="evenodd" clip-rule="evenodd" d="M16.96 28.783C23.5874 28.783 28.96 23.4104 28.96 16.783C28.96 10.1555 23.5874 4.78296 16.96 4.78296C10.3325 4.78296 4.95996 10.1555 4.95996 16.783C4.95996 23.4104 10.3325 28.783 16.96 28.783ZM16.9441 17.2077C17.259 17.0121 17.259 16.5538 16.9441 16.3582L11.9099 13.2313C11.5768 13.0244 11.1461 13.2639 11.1461 13.656V19.9099C11.1461 20.302 11.5768 20.5415 11.9099 20.3346L16.9441 17.2077ZM23.8445 16.3582C24.1594 16.5538 24.1594 17.0121 23.8445 17.2077L18.8103 20.3346C18.4772 20.5415 18.0464 20.302 18.0464 19.9099V13.656C18.0464 13.2639 18.4772 13.0244 18.8103 13.2313L23.8445 16.3582Z" fill="#1C1B1F"/>
</svg>
