<svg width="32" height="33" viewBox="0 0 32 33" fill="none" xmlns="http://www.w3.org/2000/svg">
<path fill-rule="evenodd" clip-rule="evenodd" d="M3.66414 12.6958C6.31891 8.72252 10.839 6.11279 15.9677 6.11279C21.1332 6.11279 25.6814 8.76014 28.3281 12.7814C28.9354 13.7041 30.1756 13.9598 31.0983 13.3525C32.021 12.7452 32.2766 11.505 31.6694 10.5823C28.3142 5.48466 22.5352 2.11279 15.9677 2.11279C9.44706 2.11279 3.70357 5.4368 0.338235 10.4735C-0.27542 11.3919 -0.0283574 12.6339 0.890065 13.2476C1.80849 13.8612 3.05048 13.6142 3.66414 12.6958ZM10.6496 20.7991C10.6496 17.8434 13.0456 15.4473 16.0013 15.4473C18.957 15.4473 21.3531 17.8434 21.3531 20.7991C21.3531 23.7548 18.957 26.1509 16.0013 26.1509C13.0456 26.1509 10.6496 23.7548 10.6496 20.7991ZM16.0013 11.4473C10.8365 11.4473 6.64956 15.6343 6.64956 20.7991C6.64956 25.964 10.8365 30.1509 16.0013 30.1509C21.1662 30.1509 25.3531 25.964 25.3531 20.7991C25.3531 15.6343 21.1662 11.4473 16.0013 11.4473Z" fill="#111827"/>
</svg>
