<svg width="32" height="33" viewBox="0 0 32 33" fill="none" xmlns="http://www.w3.org/2000/svg">
<path fill-rule="evenodd" clip-rule="evenodd" d="M15.7497 14.0823V13.1669L16.4635 13.1669C16.1988 13.449 15.9596 13.7554 15.7497 14.0823ZM27.4138 17.4985C27.4138 15.2479 26.2396 13.2715 24.4703 12.1486C24.817 11.936 25.144 11.6917 25.4459 11.4175C26.6926 10.2851 27.4138 8.72757 27.4138 7.08062C27.4138 5.43368 26.6926 3.87612 25.4459 2.74379C24.2025 1.61435 22.5349 0.994263 20.8138 0.994263H15.2139C15.1558 0.994263 15.0989 0.999214 15.0435 1.00872H10.4178C9.00373 1.00872 7.64754 1.57047 6.64761 2.5704C5.64769 3.57032 5.08594 4.92651 5.08594 6.34062C5.08594 7.75472 5.64769 9.11091 6.64761 10.1108C7.63948 11.1027 8.9819 11.6634 10.3837 11.6724C8.9819 11.6814 7.63948 12.2421 6.64761 13.234C5.64769 14.2339 5.08594 15.5901 5.08594 17.0042C5.08594 18.4183 5.64769 19.7745 6.64761 20.7744C7.64754 21.7743 9.00373 22.3361 10.4178 22.3361L15.7497 22.3359V20.9148C16.8757 22.6685 18.8431 23.8304 21.0819 23.8304C24.5789 23.8304 27.4138 20.9956 27.4138 17.4985ZM16.2139 2.99426V11.1669L20.8138 11.167H20.8139C22.0632 11.167 23.2443 10.7153 24.1013 9.93698C24.955 9.16157 25.4138 8.13165 25.4138 7.08062C25.4138 6.02959 24.955 4.99968 24.1013 4.22426C23.2443 3.44594 22.0632 2.99426 20.8138 2.99426H16.2139ZM21.0819 13.1666C18.6895 13.1666 16.75 15.1061 16.75 17.4985C16.75 19.891 18.6895 21.8304 21.0819 21.8304C23.4743 21.8304 25.4138 19.891 25.4138 17.4985C25.4138 15.1061 23.4743 13.1666 21.0819 13.1666ZM15.7497 27.668V22.336L10.4178 22.3361C9.36329 22.3361 8.33241 22.6488 7.45559 23.2347C6.57876 23.8206 5.89536 24.6533 5.4918 25.6276C5.08824 26.6019 4.98266 27.674 5.1884 28.7083C5.39413 29.7425 5.90196 30.6926 6.64764 31.4383C7.39333 32.184 8.34339 32.6918 9.37768 32.8975C10.412 33.1032 11.484 32.9976 12.4583 32.594C13.4326 32.1905 14.2653 31.5071 14.8512 30.6302C15.4371 29.7534 15.7498 28.7225 15.7497 27.668Z" fill="#111827"/>
</svg>
