<svg width="33" height="33" viewBox="0 0 33 33" fill="none" xmlns="http://www.w3.org/2000/svg">
<path d="M20.9602 20.2829C23.1694 20.2829 24.9602 18.492 24.9602 16.2829C24.9602 14.0737 23.1694 12.2828 20.9602 12.2828C18.7511 12.2828 16.9602 14.0737 16.9602 16.2829C16.9602 18.492 18.7511 20.2829 20.9602 20.2829Z" stroke="#1C1B1F" stroke-width="2" stroke-linecap="round" stroke-linejoin="round"/>
<path d="M16.9602 12.2829V4.28296H12.9602C11.8994 4.28296 10.8819 4.70439 10.1318 5.45454C9.38163 6.20469 8.96021 7.22211 8.96021 8.28298C8.96021 9.34385 9.38163 10.3613 10.1318 11.1114C10.8819 11.8616 11.8994 12.283 12.9602 12.283L16.9602 12.2829Z" fill="#1C1B1F" stroke="#1C1B1F" stroke-width="2" stroke-linecap="round" stroke-linejoin="round"/>
<path d="M16.9602 20.2828V12.2828H12.9602C11.8994 12.2828 10.8819 12.7043 10.1318 13.4544C9.38163 14.2046 8.96021 15.222 8.96021 16.2829C8.96021 17.3437 9.38163 18.3611 10.1318 19.1113C10.8819 19.8614 11.8994 20.2829 12.9602 20.2829L16.9602 20.2828Z" fill="#1C1B1F" stroke="#1C1B1F" stroke-width="2" stroke-linecap="round" stroke-linejoin="round"/>
<path d="M16.9602 12.2829V4.28296H20.9602C22.0211 4.28296 23.0385 4.70439 23.7887 5.45454C24.5388 6.20469 24.9602 7.22211 24.9602 8.28298C24.9602 9.34385 24.5388 10.3613 23.7887 11.1114C23.0385 11.8616 22.0211 12.283 20.9602 12.283L16.9602 12.2829Z" stroke="#1C1B1F" stroke-width="2" stroke-linecap="round" stroke-linejoin="round"/>
<path d="M16.9602 20.2828V24.2829C16.9603 25.074 16.7257 25.8474 16.2861 26.5052C15.8466 27.163 15.2219 27.6757 14.491 27.9785C13.7601 28.2812 12.9558 28.3605 12.1799 28.2061C11.404 28.0518 10.6912 27.6708 10.1318 27.1114C9.57239 26.552 9.19142 25.8393 9.03707 25.0633C8.88272 24.2874 8.96193 23.4831 9.26469 22.7522C9.56744 22.0213 10.0801 21.3966 10.7379 20.9571C11.3957 20.5175 12.1691 20.2829 12.9602 20.2829L16.9602 20.2828Z" fill="#1C1B1F" stroke="#1C1B1F" stroke-width="2" stroke-linecap="round" stroke-linejoin="round"/>
</svg>
