<svg width="33" height="33" viewBox="0 0 33 33" fill="none" xmlns="http://www.w3.org/2000/svg">
<path d="M20.9602 20.4244C23.1694 20.4244 24.9602 18.6335 24.9602 16.4243C24.9602 14.2152 23.1694 12.4243 20.9602 12.4243C18.7511 12.4243 16.9602 14.2152 16.9602 16.4243C16.9602 18.6335 18.7511 20.4244 20.9602 20.4244Z" stroke="#1C1B1F" stroke-width="2" stroke-linecap="round" stroke-linejoin="round"/>
<path d="M16.9602 12.4244V4.42444H12.9602C11.8994 4.42444 10.8819 4.84587 10.1318 5.59602C9.38163 6.34617 8.96021 7.36359 8.96021 8.42446C8.96021 9.48533 9.38163 10.5028 10.1318 11.2529C10.8819 12.003 11.8994 12.4245 12.9602 12.4245L16.9602 12.4244Z" fill="#1C1B1F" stroke="#1C1B1F" stroke-width="2" stroke-linecap="round" stroke-linejoin="round"/>
<path d="M16.9602 20.4243V12.4243H12.9602C11.8994 12.4243 10.8819 12.8457 10.1318 13.5959C9.38163 14.346 8.96021 15.3635 8.96021 16.4243C8.96021 17.4852 9.38163 18.5026 10.1318 19.2528C10.8819 20.0029 11.8994 20.4244 12.9602 20.4244L16.9602 20.4243Z" fill="#1C1B1F" stroke="#1C1B1F" stroke-width="2" stroke-linecap="round" stroke-linejoin="round"/>
<path d="M16.9602 12.4244V4.42444H20.9602C22.0211 4.42444 23.0385 4.84587 23.7887 5.59602C24.5388 6.34617 24.9602 7.36359 24.9602 8.42446C24.9602 9.48533 24.5388 10.5028 23.7887 11.2529C23.0385 12.003 22.0211 12.4245 20.9602 12.4245L16.9602 12.4244Z" stroke="#1C1B1F" stroke-width="2" stroke-linecap="round" stroke-linejoin="round"/>
<path d="M16.9602 20.4243V24.4244C16.9603 25.2155 16.7257 25.9889 16.2861 26.6467C15.8466 27.3045 15.2219 27.8172 14.491 28.12C13.7601 28.4227 12.9558 28.5019 12.1799 28.3476C11.404 28.1933 10.6912 27.8123 10.1318 27.2529C9.57239 26.6935 9.19142 25.9808 9.03707 25.2048C8.88272 24.4289 8.96193 23.6246 9.26469 22.8937C9.56744 22.1628 10.0801 21.5381 10.7379 21.0986C11.3957 20.659 12.1691 20.4244 12.9602 20.4244L16.9602 20.4243Z" fill="#1C1B1F" stroke="#1C1B1F" stroke-width="2" stroke-linecap="round" stroke-linejoin="round"/>
</svg>
