<svg width="32" height="32" viewBox="0 0 32 32" fill="none" xmlns="http://www.w3.org/2000/svg">
<path fill-rule="evenodd" clip-rule="evenodd" d="M3.66699 32H28.3337C28.8859 32 29.3337 31.5523 29.3337 31V9.75767C29.3337 9.4932 29.2289 9.2395 29.0423 9.05208L20.322 0.294409C20.1344 0.105946 19.8794 0 19.6134 0H3.66699C3.11471 0 2.66699 0.447715 2.66699 1V31C2.66699 31.5523 3.11471 32 3.66699 32ZM11.0003 20C11.0003 19.4477 11.448 19 12.0003 19H20.0003C20.5526 19 21.0003 19.4477 21.0003 20C21.0003 20.5523 20.5526 21 20.0003 21H12.0003C11.448 21 11.0003 20.5523 11.0003 20ZM20.1195 1.62443V8.75429C20.1195 9.03043 20.3433 9.25429 20.6195 9.25429H27.756L20.1195 1.62443Z" fill="#111827"/>
</svg>
