<svg width="32" height="32" viewBox="0 0 32 32" fill="none" xmlns="http://www.w3.org/2000/svg">
<path fill-rule="evenodd" clip-rule="evenodd" d="M3.6808 0.0012207H19.6126C19.8785 0.0012207 20.1335 0.107166 20.3212 0.29563L29.0336 9.04541C29.2202 9.23282 29.3249 9.48653 29.3249 9.751V30.9742C29.3249 31.5265 28.8772 31.9742 28.3249 31.9742H23.6615C23.1092 31.9742 22.6615 31.5265 22.6615 30.9742V16.9641C22.6615 16.4118 22.2138 15.9641 21.6615 15.9641H3.6808C3.12852 15.9641 2.6808 15.5163 2.6808 14.9641V1.00122C2.6808 0.448937 3.12852 0.0012207 3.6808 0.0012207ZM20.1186 1.88715V9.50738H27.7454L20.1186 1.88715ZM12.4758 24.5467C12.4758 22.8066 13.8864 21.396 15.6265 21.396H19.662C20.2143 21.396 20.662 21.8437 20.662 22.396C20.662 22.9483 20.2143 23.396 19.662 23.396H15.6265C14.991 23.396 14.4758 23.9112 14.4758 24.5467C14.4758 25.1822 14.991 25.6974 15.6265 25.6974H17.6086C17.6507 25.6974 17.6922 25.7 17.7329 25.7051C19.37 25.8184 20.6628 27.1823 20.6628 28.8481C20.6628 30.5882 19.2522 31.9988 17.5121 31.9988H13.4767C12.9244 31.9988 12.4767 31.5511 12.4767 30.9988C12.4767 30.4466 12.9244 29.9988 13.4767 29.9988H17.5121C18.1476 29.9988 18.6628 29.4837 18.6628 28.8481C18.6628 28.2126 18.1476 27.6974 17.5121 27.6974H15.4737C15.4069 27.6974 15.3417 27.6909 15.2786 27.6784C13.7022 27.5052 12.4758 26.1692 12.4758 24.5467ZM2.67578 22.4267C2.67578 21.8575 3.13725 21.396 3.70649 21.396H7.37174C9.29205 21.396 10.8488 22.9527 10.8488 24.873C10.8488 26.6179 9.56351 28.0626 7.88805 28.312L10.4416 30.1935C10.8862 30.5212 10.981 31.1472 10.6534 31.5918C10.3258 32.0364 9.69978 32.1313 9.25516 31.8036L4.67578 28.4293V30.9988C4.67578 31.5511 4.22807 31.9988 3.67578 31.9988C3.1235 31.9988 2.67578 31.5511 2.67578 30.9988V27.3501V22.4267ZM4.67578 26.3501H7.37174C8.18748 26.3501 8.84877 25.6888 8.84877 24.873C8.84877 24.0573 8.18748 23.396 7.37174 23.396H4.67578V26.3501Z" fill="#111827"/>
</svg>
