<svg width="32" height="32" viewBox="0 0 32 32" fill="none" xmlns="http://www.w3.org/2000/svg">
<path fill-rule="evenodd" clip-rule="evenodd" d="M19.6134 0H3.66699C3.11471 0 2.66699 0.447714 2.66699 0.999999V14.9763C2.66699 15.5286 3.11471 15.9763 3.66699 15.9763H21.6646C22.2169 15.9763 22.6646 16.424 22.6646 16.9763V31C22.6646 31.5523 23.1123 32 23.6646 32H28.3337C28.8859 32 29.3337 31.5523 29.3337 31V9.75767C29.3337 9.4932 29.2289 9.2395 29.0423 9.05208L20.322 0.294409C20.1344 0.105946 19.8794 0 19.6134 0ZM20.1195 9.51423V1.88756L27.7528 9.51423H20.1195ZM15.3892 18.8493C15.217 18.5356 14.8904 18.3377 14.5326 18.3305C14.1748 18.3233 13.8404 18.5078 13.6558 18.8144L10.7137 23.6997L9.38775 21.6615C9.1965 21.3675 8.86522 21.1952 8.51472 21.2074C8.16422 21.2197 7.84573 21.4146 7.6754 21.7212L2.81099 30.476C2.63889 30.7858 2.64355 31.1634 2.82323 31.4688C3.00292 31.7742 3.33079 31.9617 3.68512 31.9617H20.8937C21.2471 31.9617 21.5742 31.7752 21.7542 31.4711C21.9343 31.167 21.9404 30.7905 21.7704 30.4807L15.3892 18.8493ZM11.6031 26.0996L14.472 21.3357L19.2045 29.9617H5.38473L8.61701 24.1443L9.9082 26.129C10.0961 26.4178 10.4193 26.5895 10.7638 26.5836C11.1082 26.5776 11.4253 26.3947 11.6031 26.0996Z" fill="#111827"/>
</svg>
