<svg width="32" height="32" viewBox="0 0 32 32" fill="none" xmlns="http://www.w3.org/2000/svg">
<path fill-rule="evenodd" clip-rule="evenodd" d="M2.88764 18.0004L29.1414 18.0003C29.6937 18.0003 30.1414 17.5526 30.1414 17.0004L30.1415 8.76735C30.1415 8.50287 30.0368 8.24916 29.8502 8.06174L22.1164 0.294776C21.9287 0.106312 21.6737 0.000366211 21.4078 0.000366211L2.88779 0.000392327C2.33551 0.000393089 1.8878 0.4481 1.88779 1.00038L1.88764 17.0004C1.88763 17.5526 2.33535 18.0004 2.88764 18.0004ZM21.9042 7.77362V1.45266L28.7311 8.27362H22.4042C22.1281 8.27362 21.9042 8.04977 21.9042 7.77362ZM3.776 23.0732C3.57547 22.5586 2.99576 22.304 2.48116 22.5045C1.96656 22.705 1.71196 23.2847 1.91248 23.7993L4.85973 31.3628C5.0075 31.742 5.37039 31.9938 5.77736 31.9996C6.18433 32.0053 6.55418 31.7638 6.71261 31.3889L9.90884 23.8255C10.1238 23.3168 9.8857 22.7301 9.37697 22.5151C8.86825 22.3001 8.28156 22.5383 8.06658 23.047L5.82904 28.3418L3.776 23.0732ZM23.7439 23.4362C23.7439 22.884 24.1916 22.4362 24.7439 22.4362H29.1559C29.7082 22.4362 30.1559 22.884 30.1559 23.4362C30.1559 23.9885 29.7082 24.4362 29.1559 24.4362H25.7439V26.2179H28.5248C29.0771 26.2179 29.5248 26.6657 29.5248 27.2179C29.5248 27.7702 29.0771 28.2179 28.5248 28.2179H25.7439V29.9998H29.1559C29.7082 29.9998 30.1559 30.4475 30.1559 30.9998C30.1559 31.552 29.7082 31.9998 29.1559 31.9998H24.7439C24.1916 31.9998 23.7439 31.552 23.7439 30.9998V27.2179V23.4362ZM14.029 22.4362C14.5813 22.4362 15.029 22.884 15.029 23.4362V28.9998C15.029 29.552 15.4767 29.9998 16.029 29.9998H17.6174C18.1697 29.9998 18.6174 29.552 18.6174 28.9998V23.4362C18.6174 22.884 19.0652 22.4362 19.6174 22.4362C20.1697 22.4362 20.6174 22.884 20.6174 23.4362V28.9998C20.6174 30.6566 19.2743 31.9998 17.6174 31.9998H16.029C14.3721 31.9998 13.029 30.6566 13.029 28.9998V23.4362C13.029 22.884 13.4767 22.4362 14.029 22.4362Z" fill="#111827"/>
</svg>
