<svg width="32" height="32" viewBox="0 0 32 32" fill="none" xmlns="http://www.w3.org/2000/svg">
<path fill-rule="evenodd" clip-rule="evenodd" d="M2.7168 18.1871L29.2642 18.187C29.8164 18.187 30.2642 17.7393 30.2642 17.187L30.2643 8.8538C30.2643 8.58932 30.1596 8.33561 29.9729 8.14819L22.1527 0.29441C21.9651 0.105946 21.7101 0 21.4441 0L2.71695 2.64019e-05C2.16467 2.71636e-05 1.71696 0.447737 1.71695 1.00002L1.7168 17.187C1.71679 17.7393 2.16451 18.1871 2.7168 18.1871ZM21.9415 7.85911V1.46726L28.8393 8.35911H22.4415C22.1653 8.35911 21.9415 8.13525 21.9415 7.85911ZM6.65858 22.1383C3.93542 22.1383 1.72786 24.3459 1.72786 27.069C1.72786 29.7922 3.93542 31.9997 6.65858 31.9997H8.38089C8.93318 31.9997 9.38089 31.552 9.38089 30.9997C9.38089 30.4475 8.93318 29.9997 8.38089 29.9997H6.65858C5.03999 29.9997 3.72786 28.6876 3.72786 27.069C3.72786 25.4504 5.03999 24.1383 6.65858 24.1383H8.38089C8.93318 24.1383 9.38089 23.6906 9.38089 23.1383C9.38089 22.586 8.93318 22.1383 8.38089 22.1383H6.65858ZM15.1443 22.1383C13.5066 22.1383 12.1789 23.4659 12.1789 25.1037C12.1789 26.6287 13.3302 27.8849 14.8111 28.0505C14.8733 28.0626 14.9377 28.069 15.0035 28.069H15.1341L15.1443 28.069H16.8721C17.4025 28.0721 17.8316 28.5031 17.8316 29.0343C17.8316 29.5675 17.3994 29.9997 16.8662 29.9997H13.1786C12.6263 29.9997 12.1786 30.4474 12.1786 30.9997C12.1786 31.552 12.6263 31.9997 13.1786 31.9997H16.8662C18.504 31.9997 19.8316 30.6721 19.8316 29.0343C19.8316 27.4679 18.617 26.1851 17.0781 26.0764C17.038 26.0715 16.9971 26.069 16.9556 26.069H16.8764L16.8662 26.069H15.1385C14.608 26.0659 14.1789 25.6349 14.1789 25.1037C14.1789 24.5705 14.6111 24.1383 15.1443 24.1383H18.832C19.3842 24.1383 19.832 23.6906 19.832 23.1383C19.832 22.586 19.3842 22.1383 18.832 22.1383H15.1443ZM22.6305 25.1037C22.6305 23.4659 23.9581 22.1383 25.5958 22.1383H29.2835C29.8358 22.1383 30.2835 22.586 30.2835 23.1383C30.2835 23.6906 29.8358 24.1383 29.2835 24.1383H25.5958C25.0627 24.1383 24.6305 24.5705 24.6305 25.1037C24.6305 25.6349 25.0595 26.0659 25.59 26.069H27.3183L27.3285 26.069H27.4071C27.4484 26.069 27.4891 26.0715 27.529 26.0764C29.0684 26.1845 30.2836 27.4675 30.2836 29.0343C30.2836 30.6721 28.956 31.9997 27.3183 31.9997H23.6306C23.0783 31.9997 22.6306 31.552 22.6306 30.9997C22.6306 30.4474 23.0783 29.9997 23.6306 29.9997H27.3183C27.8514 29.9997 28.2836 29.5675 28.2836 29.0343C28.2836 28.5031 27.8546 28.0721 27.3241 28.069H25.5958L25.5856 28.069H25.4555C25.3899 28.069 25.3258 28.0627 25.2638 28.0506C23.7823 27.8856 22.6305 26.6291 22.6305 25.1037Z" fill="#111827"/>
</svg>
