<svg width="33" height="33" viewBox="0 0 33 33" fill="none" xmlns="http://www.w3.org/2000/svg">
<path fill-rule="evenodd" clip-rule="evenodd" d="M6.10823 18.3667L27.8115 18.3667C28.3638 18.3667 28.8115 17.919 28.8115 17.3667L28.8116 10.6873C28.8116 10.4228 28.7068 10.1691 28.5202 9.98164L22.1262 3.56016C21.9385 3.37169 21.6835 3.26575 21.4176 3.26575L6.10835 3.26577C5.55607 3.26577 5.10835 3.71348 5.10835 4.26576L5.10822 17.3667C5.10822 17.919 5.55594 18.3667 6.10823 18.3667ZM21.901 9.70648V4.48408L27.6283 10.2065H22.401C22.1248 10.2065 21.901 9.98262 21.901 9.70648ZM22.543 20.849C23.0627 20.6619 23.6356 20.9314 23.8227 21.4511L25.2578 25.4366L26.8239 21.4261C27.0248 20.9117 27.6047 20.6575 28.1191 20.8584C28.6336 21.0593 28.8878 21.6392 28.6869 22.1536L26.2483 28.3984C25.8787 29.3449 24.533 29.327 24.1887 28.3709L21.941 22.1286C21.7539 21.609 22.0234 21.0361 22.543 20.849ZM4.74658 25.0364C4.74658 22.6911 6.64781 20.7899 8.99309 20.7899H10.3807C10.933 20.7899 11.3807 21.2376 11.3807 21.7899C11.3807 22.3421 10.933 22.7899 10.3807 22.7899H8.99309C7.75238 22.7899 6.74658 23.7957 6.74658 25.0364C6.74658 26.2771 7.75238 27.2829 8.99309 27.2829H10.3807C10.933 27.2829 11.3807 27.7306 11.3807 28.2829C11.3807 28.8352 10.933 29.2829 10.3807 29.2829H8.99309C6.64781 29.2829 4.74658 27.3816 4.74658 25.0364ZM15.9372 20.7899C14.4884 20.7899 13.314 21.9643 13.314 23.4131C13.314 24.7502 14.3143 25.8536 15.6074 26.0158C15.6729 26.0293 15.7406 26.0364 15.8101 26.0364H17.325C17.6692 26.0364 17.9482 26.3154 17.9482 26.6596C17.9482 27.0038 17.6692 27.2829 17.325 27.2829H14.3141C13.7618 27.2829 13.3141 27.7306 13.3141 28.2829C13.3141 28.8352 13.7618 29.2829 14.3141 29.2829H17.325C18.7738 29.2829 19.9482 28.1084 19.9482 26.6596C19.9482 25.2854 18.8915 24.158 17.5463 24.0456C17.5017 24.0395 17.4562 24.0364 17.4099 24.0364H15.9372C15.593 24.0364 15.314 23.7573 15.314 23.4131C15.314 23.0689 15.593 22.7899 15.9372 22.7899H18.9481C19.5004 22.7899 19.9481 22.3421 19.9481 21.7899C19.9481 21.2376 19.5004 20.7899 18.9481 20.7899H15.9372Z" fill="#1C1B1F"/>
</svg>
