<svg width="33" height="33" viewBox="0 0 33 33" fill="none" xmlns="http://www.w3.org/2000/svg">
<path fill-rule="evenodd" clip-rule="evenodd" d="M6.0052 18.3668L27.7085 18.3667C28.2607 18.3667 28.7085 17.919 28.7085 17.3668L28.7086 10.6873C28.7086 10.4228 28.6038 10.1691 28.4172 9.9817L22.0232 3.56022C21.8355 3.37175 21.5805 3.26581 21.3145 3.26581L6.00532 3.26583C5.45304 3.26583 5.00533 3.71354 5.00532 4.26582L5.0052 17.3668C5.00519 17.919 5.45291 18.3668 6.0052 18.3668ZM21.7979 9.70654V4.48414L27.5253 10.2065H22.2979C22.0218 10.2065 21.7979 9.98268 21.7979 9.70654ZM5.07031 21.7052C5.07031 21.1529 5.51803 20.7052 6.07031 20.7052H8.54471C10.1359 20.7052 11.4259 21.9951 11.4259 23.5863C11.4259 25.1776 10.1359 26.4675 8.54471 26.4675H7.07031V28.2385C7.07031 28.7908 6.6226 29.2385 6.07031 29.2385C5.51803 29.2385 5.07031 28.7908 5.07031 28.2385V25.4675V21.7052ZM7.07031 24.4675H8.54471C9.03137 24.4675 9.42588 24.073 9.42588 23.5863C9.42588 23.0997 9.03137 22.7052 8.54471 22.7052H7.07031V24.4675ZM13.7822 21.7052C13.7822 21.1529 14.2299 20.7052 14.7822 20.7052H16.4161C18.7725 20.7052 20.6828 22.6154 20.6828 24.9718C20.6828 27.3283 18.7725 29.2385 16.4161 29.2385H14.7822C14.2299 29.2385 13.7822 28.7908 13.7822 28.2385V21.7052ZM15.7822 22.7052V27.2385H16.4161C17.6679 27.2385 18.6828 26.2237 18.6828 24.9718C18.6828 23.72 17.6679 22.7052 16.4161 22.7052H15.7822ZM23.8242 20.726C23.2719 20.726 22.8242 21.1737 22.8242 21.726V28.256C22.8242 28.8083 23.2719 29.256 23.8242 29.256C24.3765 29.256 24.8242 28.8083 24.8242 28.256V26.3687H27.2027C27.755 26.3687 28.2027 25.921 28.2027 25.3687C28.2027 24.8164 27.755 24.3687 27.2027 24.3687H24.8242V22.726H27.749C28.3013 22.726 28.749 22.2783 28.749 21.726C28.749 21.1737 28.3013 20.726 27.749 20.726H23.8242Z" fill="#1C1B1F"/>
</svg>
