<svg width="33" height="33" viewBox="0 0 33 33" fill="none" xmlns="http://www.w3.org/2000/svg">
<path fill-rule="evenodd" clip-rule="evenodd" d="M7.95996 28.2829H25.96C26.5122 28.2829 26.96 27.8352 26.96 27.2829V11.7044C26.96 11.4399 26.8552 11.1862 26.6686 10.9988L20.2745 4.57731C20.0869 4.38884 19.8319 4.2829 19.5659 4.2829H7.95996C7.40768 4.2829 6.95996 4.73061 6.95996 5.2829V27.2829C6.95996 27.8352 7.40768 28.2829 7.95996 28.2829ZM12.96 19.2829C12.96 18.7306 13.4077 18.2829 13.96 18.2829H19.96C20.5122 18.2829 20.96 18.7306 20.96 19.2829C20.96 19.8352 20.5122 20.2829 19.96 20.2829H13.96C13.4077 20.2829 12.96 19.8352 12.96 19.2829ZM20.0493 5.50123V10.7236C20.0493 10.9998 20.2732 11.2236 20.5493 11.2236H25.7767L20.0493 5.50123Z" fill="#1C1B1F"/>
<path d="M16.96 22.2829V16.2829" stroke="white" stroke-width="2" stroke-linecap="round" stroke-linejoin="round"/>
</svg>
