<svg width="33" height="33" viewBox="0 0 33 33" fill="none" xmlns="http://www.w3.org/2000/svg">
<path fill-rule="evenodd" clip-rule="evenodd" d="M10.96 3.2829C10.4077 3.2829 9.95996 3.73061 9.95996 4.2829V8.26722C9.95996 8.27246 9.96 8.27768 9.96008 8.2829H7.95996C7.40768 8.2829 6.95996 8.73061 6.95996 9.2829V27.2829C6.95996 27.8352 7.40768 28.2829 7.95996 28.2829H21.96C22.5122 28.2829 22.96 27.8352 22.96 27.2829V25.2823C22.9714 25.2827 22.9828 25.2829 22.9943 25.2829H26.96C27.5122 25.2829 27.96 24.8352 27.96 24.2829V10.1233C27.96 9.86593 27.8607 9.61843 27.6828 9.43236L22.1 3.59191C21.9113 3.39454 21.6501 3.2829 21.3771 3.2829H10.96ZM22.96 23.2835C22.9714 23.2831 22.9828 23.2829 22.9943 23.2829H25.96V10.5244L20.9496 5.2829H11.96V8.26722C11.96 8.27246 11.9599 8.27768 11.9598 8.2829H16.9496C17.2227 8.2829 17.4838 8.39454 17.6725 8.59191L22.6828 13.8334C22.8607 14.0195 22.96 14.267 22.96 14.5244V23.2835ZM11.96 18.2829C11.4077 18.2829 10.96 18.7306 10.96 19.2829C10.96 19.8352 11.4077 20.2829 11.96 20.2829H17.96C18.5122 20.2829 18.96 19.8352 18.96 19.2829C18.96 18.7306 18.5122 18.2829 17.96 18.2829H11.96ZM11.96 22.2829C11.4077 22.2829 10.96 22.7306 10.96 23.2829C10.96 23.8352 11.4077 24.2829 11.96 24.2829H17.96C18.5122 24.2829 18.96 23.8352 18.96 23.2829C18.96 22.7306 18.5122 22.2829 17.96 22.2829H11.96Z" fill="#1C1B1F"/>
</svg>
