<svg width="33" height="33" viewBox="0 0 33 33" fill="none" xmlns="http://www.w3.org/2000/svg">
<path fill-rule="evenodd" clip-rule="evenodd" d="M6.10871 18.3668L27.812 18.3668C28.3643 18.3668 28.812 17.9191 28.812 17.3668L28.8121 10.6874C28.8121 10.4229 28.7073 10.1692 28.5207 9.98177L22.1267 3.56028C21.939 3.37182 21.684 3.26587 21.4181 3.26587L6.10884 3.26589C5.55656 3.26589 5.10884 3.7136 5.10884 4.26588L5.10871 17.3668C5.10871 17.9191 5.55643 18.3668 6.10871 18.3668ZM21.9015 9.7066V4.4842L27.6288 10.2066H22.4015C22.1253 10.2066 21.9015 9.98274 21.9015 9.7066ZM6.64209 21.9547C6.64209 21.4024 7.08981 20.9547 7.64209 20.9547H11.7013C12.0706 20.9547 12.4098 21.1582 12.5836 21.484C12.7574 21.8098 12.7376 22.2049 12.5319 22.5116L9.51646 27.0094H11.7013C12.2536 27.0094 12.7013 27.4572 12.7013 28.0094C12.7013 28.5617 12.2536 29.0094 11.7013 29.0094H7.64209C7.27283 29.0094 6.93362 28.806 6.7598 28.4802C6.58599 28.1544 6.60586 27.7593 6.81148 27.4526L9.82698 22.9547H7.64209C7.08981 22.9547 6.64209 22.507 6.64209 21.9547ZM17.96 21.9547C17.96 21.4024 17.5122 20.9547 16.96 20.9547C16.4077 20.9547 15.96 21.4024 15.96 21.9547V28.1701C15.96 28.7224 16.4077 29.1701 16.96 29.1701C17.5122 29.1701 17.96 28.7224 17.96 28.1701V21.9547ZM22.1635 20.9547C21.5981 20.9547 21.1396 21.4131 21.1396 21.9786V25.534V28.1701C21.1396 28.7224 21.5874 29.1701 22.1396 29.1701C22.6919 29.1701 23.1396 28.7224 23.1396 28.1701V26.534H25.15C26.6907 26.534 27.9396 25.285 27.9396 23.7443C27.9396 22.2037 26.6907 20.9547 25.15 20.9547H22.1635ZM25.15 24.534H23.1396V22.9547H25.15C25.5861 22.9547 25.9396 23.3082 25.9396 23.7443C25.9396 24.1804 25.5861 24.534 25.15 24.534Z" fill="#1C1B1F"/>
</svg>
