<svg width="33" height="33" viewBox="0 0 33 33" fill="none" xmlns="http://www.w3.org/2000/svg">
<path fill-rule="evenodd" clip-rule="evenodd" d="M6.10823 18.3668L27.8115 18.3668C28.3638 18.3668 28.8115 17.9191 28.8115 17.3668L28.8116 10.6874C28.8116 10.4229 28.7068 10.1692 28.5202 9.98177L22.1262 3.56028C21.9385 3.37182 21.6835 3.26587 21.4176 3.26587L6.10835 3.26589C5.55607 3.26589 5.10835 3.7136 5.10835 4.26588L5.10822 17.3668C5.10822 17.9191 5.55594 18.3668 6.10823 18.3668ZM21.901 9.7066V4.4842L27.6283 10.2066H22.401C22.1248 10.2066 21.901 9.98274 21.901 9.7066ZM15.8571 20.4274C14.3703 20.4274 13.165 21.6327 13.165 23.1195C13.165 24.5016 14.2066 25.6404 15.5476 25.7939C15.6086 25.8056 15.6715 25.8116 15.7359 25.8116H17.3397C17.7219 25.8116 18.0317 26.1215 18.0317 26.5037C18.0317 26.886 17.7219 27.1958 17.3397 27.1958H14.1647C13.6125 27.1958 13.1647 27.6435 13.1647 28.1958C13.1647 28.7481 13.6125 29.1958 14.1647 29.1958H17.3397C18.8265 29.1958 20.0317 27.9905 20.0317 26.5037C20.0317 25.0837 18.9322 23.9204 17.538 23.8188C17.4982 23.814 17.4577 23.8115 17.4166 23.8115H15.8571C15.4749 23.8115 15.165 23.5017 15.165 23.1195C15.165 22.7372 15.4749 22.4274 15.8571 22.4274H19.032C19.5843 22.4274 20.032 21.9797 20.032 21.4274C20.032 20.8751 19.5843 20.4274 19.032 20.4274H15.8571ZM22.0577 21.1803C22.4995 20.849 23.1263 20.9385 23.4577 21.3803L24.9885 23.4214L26.5193 21.3803C26.8506 20.9385 27.4774 20.849 27.9193 21.1803C28.3611 21.5117 28.4506 22.1385 28.1193 22.5803L26.2385 25.088L28.1193 27.5957C28.4506 28.0376 28.3611 28.6644 27.9193 28.9957C27.4774 29.3271 26.8506 29.2376 26.5193 28.7957L24.9885 26.7547L23.4577 28.7957C23.1263 29.2376 22.4995 29.3271 22.0577 28.9957C21.6159 28.6644 21.5263 28.0376 21.8577 27.5957L23.7385 25.088L21.8577 22.5803C21.5263 22.1385 21.6159 21.5117 22.0577 21.1803ZM6.60107 20.9803C6.04879 20.9803 5.60107 21.4281 5.60107 21.9803C5.60107 22.5326 6.04879 22.9803 6.60107 22.9803H7.93164V28.1957C7.93164 28.748 8.37936 29.1957 8.93164 29.1957C9.48393 29.1957 9.93164 28.748 9.93164 28.1957V22.9803H11.2626C11.8149 22.9803 12.2626 22.5326 12.2626 21.9803C12.2626 21.4281 11.8149 20.9803 11.2626 20.9803H8.93164H6.60107Z" fill="#1C1B1F"/>
</svg>
