<svg width="33" height="33" viewBox="0 0 33 33" fill="none" xmlns="http://www.w3.org/2000/svg">
<path fill-rule="evenodd" clip-rule="evenodd" d="M19.4736 4.28296H7.86768C7.31539 4.28296 6.86768 4.73068 6.86768 5.28296V15.2652C6.86768 15.8175 7.31539 16.2652 7.86768 16.2652H20.8659C21.4182 16.2652 21.8659 16.7129 21.8659 17.2652V27.283C21.8659 27.8352 22.3136 28.283 22.8659 28.283H25.8677C26.42 28.283 26.8677 27.8352 26.8677 27.283V11.7045C26.8677 11.44 26.7629 11.1863 26.5763 10.9989L20.1822 4.57737C19.9946 4.3889 19.7396 4.28296 19.4736 4.28296ZM19.957 11.4187V5.69865L25.682 11.4187H19.957ZM16.2443 20.7491C14.7899 20.7491 13.6108 21.9282 13.6108 23.3826C13.6108 24.7345 14.6295 25.8484 15.9411 25.9988C16.0015 26.0102 16.0638 26.0161 16.1275 26.0161H17.6756C18.0255 26.0161 18.3091 26.2997 18.3091 26.6496C18.3091 26.9994 18.0255 27.283 17.6756 27.283H14.6107C14.0585 27.283 13.6107 27.7307 13.6107 28.283C13.6107 28.8353 14.0585 29.283 14.6107 29.283H17.6756C19.13 29.283 20.3091 28.104 20.3091 26.6496C20.3091 25.2603 19.2334 24.1223 17.8694 24.0231C17.8302 24.0184 17.7902 24.016 17.7497 24.016H16.2443C15.8944 24.016 15.6108 23.7324 15.6108 23.3826C15.6108 23.0327 15.8944 22.7491 16.2443 22.7491H19.3092C19.8615 22.7491 20.3092 22.3014 20.3092 21.7491C20.3092 21.1969 19.8615 20.7491 19.3092 20.7491H16.2443ZM5.95996 22.283C5.95996 21.7307 6.40768 21.283 6.95996 21.283H9.20996H11.46C12.0122 21.283 12.46 21.7307 12.46 22.283C12.46 22.8352 12.0122 23.283 11.46 23.283H10.21V28.283C10.21 28.8352 9.76225 29.283 9.20996 29.283C8.65768 29.283 8.20996 28.8352 8.20996 28.283V23.283H6.95996C6.40768 23.283 5.95996 22.8352 5.95996 22.283Z" fill="#1C1B1F"/>
</svg>
