<svg width="32" height="32" viewBox="0 0 32 32" fill="none" xmlns="http://www.w3.org/2000/svg">
<path fill-rule="evenodd" clip-rule="evenodd" d="M2.85498 17.9998L29.1087 17.9997C29.661 17.9997 30.1087 17.552 30.1087 16.9998L30.1089 8.76674C30.1089 8.50226 30.0041 8.24855 29.8175 8.06113L22.0837 0.294166C21.8961 0.105702 21.6411 -0.000244141 21.3751 -0.000244141L2.85513 -0.000218024C2.30285 -0.000217263 1.85514 0.44749 1.85513 0.999771L1.85498 16.9997C1.85498 17.552 2.30269 17.9998 2.85498 17.9998ZM21.872 7.77303V1.45206L28.6989 8.27303H22.372C22.0959 8.27303 21.872 8.04917 21.872 7.77303ZM13.6961 21.9562C13.4561 21.5829 12.9989 21.4124 12.5731 21.5374C12.1473 21.6624 11.8548 22.0531 11.8548 22.4969V31.0001C11.8548 31.5524 12.3026 32.0001 12.8548 32.0001C13.4071 32.0001 13.8548 31.5524 13.8548 31.0001V25.9022L17.4789 31.5408C17.7188 31.9141 18.1761 32.0846 18.6019 31.9596C19.0277 31.8345 19.3201 31.4438 19.3201 31.0001V22.4969C19.3201 21.9446 18.8724 21.4969 18.3201 21.4969C17.7678 21.4969 17.3201 21.9446 17.3201 22.4969V27.5947L13.6961 21.9562ZM2.8787 21.4969C2.31116 21.4969 1.85107 21.957 1.85107 22.5245V27.3936V31.0002C1.85107 31.5524 2.29879 32.0002 2.85107 32.0002C3.40336 32.0002 3.85107 31.5524 3.85107 31.0002V28.3936H5.95552C7.86001 28.3936 9.4039 26.8497 9.4039 24.9453C9.4039 23.0408 7.86001 21.4969 5.95552 21.4969H2.8787ZM5.95552 26.3936H3.85107V23.4969H5.95552C6.75544 23.4969 7.4039 24.1453 7.4039 24.9453C7.4039 25.7452 6.75544 26.3936 5.95552 26.3936ZM21.7706 26.7403C21.7706 23.8444 24.1181 21.4969 27.014 21.4969H29.1488C29.7011 21.4969 30.1488 21.9446 30.1488 22.4969C30.1488 23.0492 29.7011 23.4969 29.1488 23.4969H27.014C25.2227 23.4969 23.7706 24.949 23.7706 26.7403C23.7706 28.5316 25.2227 29.9837 27.014 29.9837H28.1488V27.9002H26.635C26.0827 27.9002 25.635 27.4525 25.635 26.9002C25.635 26.3479 26.0827 25.9002 26.635 25.9002H28.6488C29.4772 25.9002 30.1488 26.5718 30.1488 27.4002V30.952C30.1488 31.5218 29.6869 31.9837 29.1171 31.9837H27.014C24.1181 31.9837 21.7706 29.6362 21.7706 26.7403Z" fill="#111827"/>
</svg>
