<svg width="32" height="32" viewBox="0 0 32 32" fill="none" xmlns="http://www.w3.org/2000/svg">
<path d="M8.80828 22.2919V29.0036C8.80828 30.1082 7.91285 31.0036 6.80828 31.0036H5.66358C4.55901 31.0036 3.66357 30.1082 3.66357 29.0036V28.0705" stroke="#111827" stroke-width="2" stroke-linecap="round"/>
<path d="M19.9451 22.2919H15.8586C14.6558 22.2919 13.6807 23.267 13.6807 24.4698V24.4698C13.6807 25.6726 14.6558 26.6477 15.8586 26.6477H17.8658" stroke="#111827" stroke-width="2" stroke-linecap="round"/>
<path d="M15.7027 26.6479H17.7669C18.9697 26.6479 19.9448 27.623 19.9448 28.8259V28.8259C19.9448 30.0287 18.9697 31.0038 17.7669 31.0038H13.6804" stroke="#111827" stroke-width="2" stroke-linecap="round"/>
<path fill-rule="evenodd" clip-rule="evenodd" d="M3.66699 0H19.6134C19.8794 0 20.1344 0.105946 20.322 0.294409L29.0423 9.05209C29.2289 9.2395 29.3337 9.4932 29.3337 9.75768V31C29.3337 31.5523 28.8859 32 28.3337 32H23.6646C23.1123 32 22.6646 31.5523 22.6646 31V16.9763C22.6646 16.4241 22.2169 15.9763 21.6646 15.9763H3.66699C3.11471 15.9763 2.66699 15.5286 2.66699 14.9763V0.999999C2.66699 0.447714 3.11471 0 3.66699 0ZM20.1196 1.88749V9.51416H27.7528L20.1196 1.88749Z" fill="#111827"/>
</svg>
