<svg width="32" height="32" viewBox="0 0 32 32" fill="none" xmlns="http://www.w3.org/2000/svg">
<path fill-rule="evenodd" clip-rule="evenodd" d="M28.3337 32H3.66699C3.11471 32 2.66699 31.5523 2.66699 31V1C2.66699 0.447715 3.11471 0 3.66699 0H19.6134C19.8794 0 20.1344 0.105946 20.322 0.294409L29.0423 9.05208C29.2289 9.2395 29.3337 9.4932 29.3337 9.75767V31C29.3337 31.5523 28.8859 32 28.3337 32ZM19.9676 9.44771V1.82104L27.6009 9.44771H19.9676ZM11.6654 19.3334C11.6654 17.3083 13.307 15.6667 15.332 15.6667C17.3571 15.6667 18.9987 17.3083 18.9987 19.3334C18.9987 21.3584 17.3571 23 15.332 23C13.307 23 11.6654 21.3584 11.6654 19.3334ZM15.332 13.6667C12.2024 13.6667 9.66536 16.2037 9.66536 19.3334C9.66536 22.463 12.2024 25 15.332 25C16.5357 25 17.6518 24.6247 18.5695 23.9847L20.5917 26.0069C20.9822 26.3975 21.6154 26.3975 22.0059 26.0069C22.3965 25.6164 22.3965 24.9832 22.0059 24.5927L19.9837 22.5705C20.6235 21.6528 20.9987 20.5369 20.9987 19.3334C20.9987 16.2037 18.4616 13.6667 15.332 13.6667Z" fill="#111827"/>
</svg>
