<svg width="33" height="33" viewBox="0 0 33 33" fill="none" xmlns="http://www.w3.org/2000/svg">
<path fill-rule="evenodd" clip-rule="evenodd" d="M6.10801 18.3668L27.8113 18.3668C28.3635 18.3668 28.8113 17.9191 28.8113 17.3668L28.8114 10.6874C28.8114 10.4229 28.7066 10.1692 28.52 9.98177L22.126 3.56028C21.9383 3.37182 21.6833 3.26587 21.4173 3.26587L6.10813 3.26589C5.55585 3.26589 5.10813 3.7136 5.10813 4.26588L5.108 17.3668C5.108 17.9191 5.55572 18.3668 6.10801 18.3668ZM21.9008 9.7066V4.4842L27.6281 10.2066H22.4008C22.1246 10.2066 21.9008 9.98274 21.9008 9.7066ZM6.62783 21.6173C6.42731 21.1027 5.84759 20.8481 5.33299 21.0486C4.81839 21.2491 4.56379 21.8288 4.76431 22.3434L7.18626 28.5588C7.33403 28.938 7.69692 29.1899 8.10389 29.1956C8.51086 29.2014 8.88071 28.9599 9.03914 28.585L11.6657 22.3696C11.8807 21.8609 11.6425 21.2742 11.1338 21.0592C10.6251 20.8442 10.0384 21.0824 9.82344 21.5911L8.15557 25.5379L6.62783 21.6173ZM22.6931 21.9803C22.6931 21.4281 23.1409 20.9803 23.6931 20.9803H27.3188C27.8711 20.9803 28.3188 21.4281 28.3188 21.9803C28.3188 22.5326 27.8711 22.9803 27.3188 22.9803H24.6931V24.0881H26.8008C27.3531 24.0881 27.8008 24.5359 27.8008 25.0881C27.8008 25.6404 27.3531 26.0881 26.8008 26.0881H24.6931V27.1958H27.3188C27.8711 27.1958 28.3188 27.6435 28.3188 28.1958C28.3188 28.7481 27.8711 29.1958 27.3188 29.1958H23.6931C23.1409 29.1958 22.6931 28.7481 22.6931 28.1958V25.0881V21.9803ZM14.888 20.9803C15.4402 20.9803 15.888 21.4281 15.888 21.9803V26.1958C15.888 26.7481 16.3357 27.1958 16.888 27.1958H17.4804C18.0327 27.1958 18.4804 26.7481 18.4804 26.1958V21.9803C18.4804 21.4281 18.9281 20.9803 19.4804 20.9803C20.0327 20.9803 20.4804 21.4281 20.4804 21.9803V26.1958C20.4804 27.8526 19.1372 29.1958 17.4804 29.1958H16.888C15.2311 29.1958 13.888 27.8526 13.888 26.1958V21.9803C13.888 21.4281 14.3357 20.9803 14.888 20.9803Z" fill="#1C1B1F"/>
</svg>
