<svg width="32" height="32" viewBox="0 0 32 32" fill="none" xmlns="http://www.w3.org/2000/svg">
<path fill-rule="evenodd" clip-rule="evenodd" d="M2.70801 18.2001L29.2756 18.2C29.8279 18.2 30.2756 17.7523 30.2756 17.2L30.2757 8.8599C30.2757 8.59542 30.171 8.34171 29.9844 8.15429L22.1582 0.294532C21.9705 0.106068 21.7155 0.00012207 21.4496 0.00012207L2.70816 0.000148492C2.15588 0.000149254 1.70817 0.447859 1.70816 1.00014L1.70801 17.2C1.708 17.7523 2.15572 18.2001 2.70801 18.2001ZM21.9462 7.86524V1.46851L28.849 8.36524H22.4462C22.1701 8.36524 21.9462 8.14138 21.9462 7.86524ZM23.0698 22.2216C23.5895 22.0345 24.1624 22.304 24.3495 22.8236L26.2686 28.1533L28.3596 22.7987C28.5605 22.2842 29.1404 22.03 29.6549 22.2309C30.1693 22.4318 30.4235 23.0117 30.2226 23.5262L27.2591 31.1151C26.8895 32.0617 25.5438 32.0438 25.1995 31.0877L22.4678 23.5012C22.2807 22.9816 22.5502 22.4087 23.0698 22.2216ZM1.72642 27.081C1.72642 24.3646 3.92855 22.1624 6.64502 22.1624H8.31996C8.87224 22.1624 9.31996 22.6101 9.31996 23.1624C9.31996 23.7147 8.87224 24.1624 8.31996 24.1624H6.64502C5.03312 24.1624 3.72642 25.4691 3.72642 27.081C3.72642 28.6929 5.03312 29.9996 6.64503 29.9996H8.31996C8.87224 29.9996 9.31996 30.4474 9.31996 30.9996C9.31996 31.5519 8.87224 31.9996 8.31996 31.9996H6.64503C3.92855 31.9996 1.72642 29.7975 1.72642 27.081ZM15.0271 22.1624C13.3927 22.1624 12.0678 23.4873 12.0678 25.1217C12.0678 26.6323 13.1996 27.8785 14.6614 28.0587C14.7298 28.0734 14.8008 28.0812 14.8736 28.0812H16.7021C17.2319 28.0812 17.6614 28.5107 17.6614 29.0405C17.6614 29.5703 17.2319 29.9998 16.7021 29.9998H13.0679C12.5156 29.9998 12.0679 30.4475 12.0679 30.9998C12.0679 31.5521 12.5156 31.9998 13.0679 31.9998H16.7021C18.3365 31.9998 19.6614 30.6749 19.6614 29.0405C19.6614 27.4893 18.4679 26.2168 16.949 26.0914C16.9019 26.0846 16.8537 26.081 16.8047 26.081H15.0271C14.4973 26.081 14.0678 25.6515 14.0678 25.1217C14.0678 24.5919 14.4973 24.1624 15.0271 24.1624H18.6613C19.2136 24.1624 19.6613 23.7147 19.6613 23.1624C19.6613 22.6101 19.2136 22.1624 18.6613 22.1624H15.0271Z" fill="#111827"/>
</svg>
