<svg width="32" height="32" viewBox="0 0 32 32" fill="none" xmlns="http://www.w3.org/2000/svg">
<path fill-rule="evenodd" clip-rule="evenodd" d="M2.86914 17.9644L29.0685 17.9643C29.6208 17.9643 30.0685 17.5166 30.0685 16.9644L30.0686 8.74992C30.0686 8.48544 29.9639 8.23173 29.7773 8.04431L22.0595 0.293433C21.8718 0.104969 21.6168 -0.000976562 21.3509 -0.000976562L2.86929 -0.000950499C2.31701 -0.000949738 1.8693 0.446757 1.86929 0.999038L1.86914 16.9643C1.86914 17.5166 2.31685 17.9644 2.86914 17.9644ZM21.8467 7.75645V1.44862L28.6605 8.25645H22.3467C22.0706 8.25645 21.8467 8.03259 21.8467 7.75645ZM3.71782 22.1627C3.39075 21.7177 2.76484 21.6221 2.31982 21.9491C1.87481 22.2762 1.7792 22.9021 2.10628 23.3471L4.69619 26.8709L2.10628 30.3947C1.7792 30.8398 1.87481 31.4657 2.31982 31.7927C2.76484 32.1198 3.39075 32.0242 3.71782 31.5792L5.93724 28.5595L8.15665 31.5792C8.48373 32.0242 9.10964 32.1198 9.55465 31.7927C9.99967 31.4657 10.0953 30.8398 9.7682 30.3947L7.17828 26.8709L9.7682 23.3471C10.0953 22.9021 9.99967 22.2762 9.55465 21.9491C9.10964 21.6221 8.48373 21.7177 8.15665 22.1627L5.93724 25.1824L3.71782 22.1627ZM21.8004 24.8164C21.8004 23.1256 23.1711 21.7549 24.8619 21.7549H29.1305C29.6828 21.7549 30.1305 22.2026 30.1305 22.7549C30.1305 23.3072 29.6828 23.7549 29.1305 23.7549H24.8619C24.2757 23.7549 23.8004 24.2302 23.8004 24.8164C23.8004 25.4027 24.2757 25.8779 24.8619 25.8779H27.0294L27.0395 25.8779H27.0685C28.7593 25.8779 30.13 27.2486 30.13 28.9394C30.13 30.6302 28.7593 32.0009 27.0685 32.0009H22.7999C22.2476 32.0009 21.7999 31.5532 21.7999 31.0009C21.7999 30.4486 22.2476 30.0009 22.7999 30.0009H27.0685C27.6548 30.0009 28.13 29.5257 28.13 28.9394C28.13 28.3532 27.6548 27.8779 27.0685 27.8779H24.8434C24.8338 27.8779 24.8241 27.8778 24.8145 27.8775C23.1456 27.8522 21.8004 26.4914 21.8004 24.8164ZM14.3407 21.7549C14.893 21.7549 15.3407 22.2026 15.3407 22.7549V29.9901H19.0465C19.5988 29.9901 20.0465 30.4379 20.0465 30.9901C20.0465 31.5424 19.5988 31.9901 19.0465 31.9901H14.3407C13.7884 31.9901 13.3407 31.5424 13.3407 30.9901V22.7549C13.3407 22.2026 13.7884 21.7549 14.3407 21.7549Z" fill="#111827"/>
</svg>
