<svg width="33" height="33" viewBox="0 0 33 33" fill="none" xmlns="http://www.w3.org/2000/svg">
<path fill-rule="evenodd" clip-rule="evenodd" d="M6.10823 19.391L27.8115 19.391C28.3638 19.391 28.8115 18.9433 28.8115 18.391L28.8116 11.7115C28.8116 11.4471 28.7068 11.1934 28.5202 11.0059L22.1262 4.58445C21.9385 4.39599 21.6835 4.29004 21.4176 4.29004L6.10835 4.29006C5.55607 4.29006 5.10835 4.73777 5.10835 5.29005L5.10822 18.391C5.10822 18.9433 5.55594 19.391 6.10823 19.391ZM21.901 10.7308V5.50837L27.6283 11.2308H22.401C22.1248 11.2308 21.901 11.0069 21.901 10.7308ZM7.91914 21.3156C7.58777 20.8738 6.96097 20.7843 6.51914 21.1157C6.07731 21.447 5.98777 22.0738 6.31914 22.5156L8.19991 25.0233L6.31914 27.531C5.98777 27.9729 6.07731 28.5997 6.51914 28.931C6.96097 29.2624 7.58777 29.1729 7.91914 28.731L9.44991 26.69L10.9807 28.731C11.3121 29.1729 11.9389 29.2624 12.3807 28.931C12.8225 28.5997 12.9121 27.9729 12.5807 27.531L10.6999 25.0233L12.5807 22.5156C12.9121 22.0738 12.8225 21.447 12.3807 21.1157C11.9389 20.7843 11.3121 20.8738 10.9807 21.3156L9.44991 23.3567L7.91914 21.3156ZM21.4419 23.4695C21.4419 22.059 22.5853 20.9156 23.9957 20.9156H27.319C27.8712 20.9156 28.319 21.3634 28.319 21.9156C28.319 22.4679 27.8712 22.9156 27.319 22.9156H23.9957C23.6899 22.9156 23.4419 23.1636 23.4419 23.4695C23.4419 23.7754 23.6899 24.0233 23.9957 24.0233L24.0162 24.0233L25.7001 24.0233L25.7021 24.0233H25.765C27.1755 24.0233 28.3188 25.1667 28.3188 26.5771C28.3188 27.9876 27.1755 29.131 25.765 29.131H22.4418C21.8895 29.131 21.4418 28.6833 21.4418 28.131C21.4418 27.5787 21.8895 27.131 22.4418 27.131H25.765C26.0709 27.131 26.3188 26.883 26.3188 26.5771C26.3188 26.2713 26.0709 26.0233 25.765 26.0233L25.7001 26.0233L24.0162 26.0233L24.0142 26.0233H23.9957C22.5853 26.0233 21.4419 24.8799 21.4419 23.4695ZM15.9243 20.9156C16.4766 20.9156 16.9243 21.3634 16.9243 21.9156V27.2605H19.55C20.1022 27.2605 20.55 27.7082 20.55 28.2605C20.55 28.8128 20.1022 29.2605 19.55 29.2605H15.9243C15.372 29.2605 14.9243 28.8128 14.9243 28.2605V21.9156C14.9243 21.3634 15.372 20.9156 15.9243 20.9156Z" fill="#1C1B1F"/>
</svg>
