<svg width="32" height="32" viewBox="0 0 32 32" fill="none" xmlns="http://www.w3.org/2000/svg">
<path fill-rule="evenodd" clip-rule="evenodd" d="M19.6249 0H3.67845C3.12617 0 2.67845 0.447714 2.67845 0.999999V14.9763C2.67845 15.5286 3.12617 15.9763 3.67845 15.9763H21.676C22.2283 15.9763 22.676 16.4241 22.676 16.9763V31C22.676 31.5523 23.1238 32 23.676 32H28.3451C28.8974 32 29.3451 31.5523 29.3451 31V9.75768C29.3451 9.4932 29.2404 9.2395 29.0537 9.05208L20.3335 0.294409C20.1458 0.105946 19.8908 0 19.6249 0ZM20.13 9.51416V1.88749L27.7633 9.51416H20.13ZM15.3928 21.7024C13.7 21.7024 12.3277 23.0747 12.3277 24.7675C12.3277 26.3445 13.5188 27.6434 15.0505 27.8136C15.1134 27.826 15.1785 27.8325 15.2451 27.8325H17.2023C17.7905 27.8325 18.2673 28.3094 18.2673 28.8976C18.2673 29.4857 17.7905 29.9626 17.2023 29.9626H13.3276C12.7753 29.9626 12.3276 30.4103 12.3276 30.9626C12.3276 31.5149 12.7753 31.9626 13.3276 31.9626H17.2023C18.8951 31.9626 20.2673 30.5903 20.2673 28.8976C20.2673 27.2781 19.0113 25.952 17.4203 25.8402C17.3795 25.8351 17.338 25.8325 17.2959 25.8325H15.3928C14.8046 25.8325 14.3277 25.3557 14.3277 24.7675C14.3277 24.1793 14.8046 23.7024 15.3928 23.7024H19.2674C19.8197 23.7024 20.2674 23.2547 20.2674 22.7024C20.2674 22.1502 19.8197 21.7024 19.2674 21.7024H15.3928ZM2.65527 22.7105C2.65527 22.1582 3.10299 21.7105 3.65527 21.7105H6.49955H9.34423C9.89652 21.7105 10.3442 22.1582 10.3442 22.7105C10.3442 23.2628 9.89652 23.7105 9.34423 23.7105H7.49955V30.9625C7.49955 31.5148 7.05184 31.9625 6.49955 31.9625C5.94727 31.9625 5.49955 31.5148 5.49955 30.9625L5.49955 23.7105H3.65527C3.10299 23.7105 2.65527 23.2628 2.65527 22.7105Z" fill="#111827"/>
</svg>
