<svg width="32" height="32" viewBox="0 0 32 32" fill="none" xmlns="http://www.w3.org/2000/svg">
<path d="M8.3145 16.5H10.3726V18.4426H8.3145V16.5Z" fill="#111827"/>
<path d="M8.19329 19.4426L7.82211 20.7626C7.53855 21.7708 8.29624 22.771 9.34358 22.771C10.3909 22.771 11.1486 21.7708 10.865 20.7626L10.4938 19.4426H8.19329Z" fill="#111827"/>
<path fill-rule="evenodd" clip-rule="evenodd" d="M3.66699 32H28.3337C28.8859 32 29.3337 31.5523 29.3337 31V9.75767C29.3337 9.4932 29.2289 9.2395 29.0423 9.05208L20.322 0.294409C20.1344 0.105946 19.8794 0 19.6134 0H3.66699C3.11471 0 2.66699 0.447715 2.66699 1V31C2.66699 31.5523 3.11471 32 3.66699 32ZM19.9676 9.44771V1.82104L27.6009 9.44771H19.9676ZM8.85967 4.5011V1.16101H9.85967V4.5011H10.9167C11.1928 4.5011 11.4167 4.72496 11.4167 5.0011C11.4167 5.27724 11.1928 5.5011 10.9167 5.5011H9.85967V8.5011H10.9167C11.1928 8.5011 11.4167 8.72496 11.4167 9.0011C11.4167 9.27724 11.1928 9.5011 10.9167 9.5011H9.85967V12.5011H10.9167C11.1928 12.5011 11.4167 12.725 11.4167 13.0011C11.4167 13.2772 11.1928 13.5011 10.9167 13.5011H9.85967V15.5H10.8726C11.1487 15.5 11.3726 15.7239 11.3726 16V18.8737L11.8277 20.4919C12.2907 22.138 11.0536 23.771 9.34358 23.771C7.63359 23.771 6.39649 22.138 6.85945 20.4919L7.3145 18.8737V16C7.3145 15.7239 7.53836 15.5 7.8145 15.5H8.85967V13.5011H7.80254C7.5264 13.5011 7.30254 13.2772 7.30254 13.0011C7.30254 12.725 7.5264 12.5011 7.80254 12.5011H8.85967V9.5011H7.80254C7.5264 9.5011 7.30254 9.27724 7.30254 9.0011C7.30254 8.72496 7.5264 8.5011 7.80254 8.5011H8.85967V5.5011H7.80254C7.5264 5.5011 7.30254 5.27724 7.30254 5.0011C7.30254 4.72496 7.5264 4.5011 7.80254 4.5011H8.85967Z" fill="#111827"/>
</svg>
