<svg width="32" height="32" viewBox="0 0 32 32" fill="none" xmlns="http://www.w3.org/2000/svg">
<path fill-rule="evenodd" clip-rule="evenodd" d="M2.83399 18L29.0875 18C29.6398 18 30.0875 17.5523 30.0875 17L30.0877 8.76698C30.0877 8.5025 29.9829 8.24879 29.7963 8.06138L22.0626 0.294412C21.8749 0.105947 21.6199 0 21.354 0L2.83414 2.61161e-05C2.28186 2.68778e-05 1.83414 0.447734 1.83414 1.00001L1.83398 17C1.83398 17.5523 2.2817 18 2.83399 18ZM21.8506 7.77316V1.45219L28.6775 8.27316H22.3506C22.0744 8.27316 21.8506 8.0493 21.8506 7.77316ZM1.90918 22.5435C1.90918 21.9912 2.35689 21.5435 2.90918 21.5435H8.4322C8.7993 21.5435 9.13689 21.7446 9.31163 22.0674C9.48638 22.3903 9.47019 22.7829 9.26945 23.0903L4.75665 30.0001H8.4322C8.98448 30.0001 9.4322 30.4478 9.4322 31.0001C9.4322 31.5524 8.98448 32.0001 8.4322 32.0001H2.90918C2.54208 32.0001 2.20449 31.799 2.02975 31.4761C1.855 31.1533 1.87119 30.7607 2.07192 30.4533L6.58472 23.5435H2.90918C2.35689 23.5435 1.90918 23.0957 1.90918 22.5435ZM16.5865 22.5435C16.5865 21.9912 16.1388 21.5435 15.5865 21.5435C15.0342 21.5435 14.5865 21.9912 14.5865 22.5435V31.0001C14.5865 31.5524 15.0342 32.0001 15.5865 32.0001C16.1388 32.0001 16.5865 31.5524 16.5865 31.0001V22.5435ZM22.6672 21.5435C22.097 21.5435 21.6347 22.0057 21.6347 22.5759V27.4134V31.0001C21.6347 31.5524 22.0824 32.0001 22.6347 32.0001C23.187 32.0001 23.6347 31.5524 23.6347 31.0001V28.4134H26.7306C28.6277 28.4134 30.1656 26.8755 30.1656 24.9784C30.1656 23.0813 28.6277 21.5435 26.7306 21.5435H22.6672ZM26.7306 26.4134H23.6347V23.5435H26.7306C27.5231 23.5435 28.1656 24.1859 28.1656 24.9784C28.1656 25.7709 27.5231 26.4134 26.7306 26.4134Z" fill="#111827"/>
</svg>
