<svg width="32" height="32" viewBox="0 0 32 32" fill="none" xmlns="http://www.w3.org/2000/svg">
<path fill-rule="evenodd" clip-rule="evenodd" d="M28.3337 32H3.66699C3.11471 32 2.66699 31.5523 2.66699 31V1C2.66699 0.447715 3.11471 0 3.66699 0H19.6134C19.8794 0 20.1344 0.105946 20.322 0.294409L29.0423 9.05208C29.2289 9.2395 29.3337 9.4932 29.3337 9.75767V31C29.3337 31.5523 28.8859 32 28.3337 32ZM15.0003 24C15.0003 24.5523 15.448 25 16.0003 25C16.5526 25 17.0003 24.5523 17.0003 24V21H20.0003C20.5526 21 21.0003 20.5523 21.0003 20C21.0003 19.4477 20.5526 19 20.0003 19H17.0003V16C17.0003 15.4477 16.5526 15 16.0003 15C15.448 15 15.0003 15.4477 15.0003 16V19H12.0003C11.448 19 11.0003 19.4477 11.0003 20C11.0003 20.5523 11.448 21 12.0003 21H15.0003V24ZM20.1195 1.62443V8.75429C20.1195 9.03043 20.3433 9.25429 20.6195 9.25429H27.756L20.1195 1.62443Z" fill="#111827"/>
</svg>
