<svg width="32" height="32" viewBox="0 0 32 32" fill="none" xmlns="http://www.w3.org/2000/svg">
<path fill-rule="evenodd" clip-rule="evenodd" d="M28.3337 32H3.66699C3.11471 32 2.66699 31.5523 2.66699 31V1C2.66699 0.447715 3.11471 0 3.66699 0H19.6134C19.8794 0 20.1344 0.105946 20.322 0.294409L29.0423 9.05208C29.2289 9.2395 29.3337 9.4932 29.3337 9.75767V31C29.3337 31.5523 28.8859 32 28.3337 32ZM12.0003 18.3526C11.448 18.3526 11.0003 18.8003 11.0003 19.3526C11.0003 19.9049 11.448 20.3526 12.0003 20.3526H20.0003C20.5526 20.3526 21.0003 19.9049 21.0003 19.3526C21.0003 18.8003 20.5526 18.3526 20.0003 18.3526H12.0003ZM11.0003 24.6859C11.0003 24.1336 11.448 23.6859 12.0003 23.6859H20.0003C20.5526 23.6859 21.0003 24.1336 21.0003 24.6859C21.0003 25.2382 20.5526 25.6859 20.0003 25.6859H12.0003C11.448 25.6859 11.0003 25.2382 11.0003 24.6859ZM20.1195 1.62443V8.75429C20.1195 9.03043 20.3433 9.25429 20.6195 9.25429H27.756L20.1195 1.62443Z" fill="#111827"/>
</svg>
