<svg width="33" height="33" viewBox="0 0 33 33" fill="none" xmlns="http://www.w3.org/2000/svg">
<path fill-rule="evenodd" clip-rule="evenodd" d="M7.95996 4.28296H19.5659C19.8319 4.28296 20.0869 4.3889 20.2745 4.57737L26.6686 10.9989C26.8552 11.1863 26.96 11.44 26.96 11.7045V27.283C26.96 27.8352 26.5122 28.283 25.96 28.283H22.9582C22.4059 28.283 21.9582 27.8352 21.9582 27.283V17.2652C21.9582 16.7129 21.5104 16.2652 20.9582 16.2652H7.95996C7.40768 16.2652 6.95996 15.8175 6.95996 15.2652V5.28296C6.95996 4.73068 7.40768 4.28296 7.95996 4.28296ZM20.0493 5.69865V11.4187H25.7743L20.0493 5.69865ZM13.3164 23.4398C13.3164 21.9959 14.4869 20.8254 15.9308 20.8254H18.96C19.5122 20.8254 19.96 21.2732 19.96 21.8254C19.96 22.3777 19.5122 22.8254 18.96 22.8254H15.9308C15.5915 22.8254 15.3164 23.1005 15.3164 23.4398C15.3164 23.7774 15.5886 24.0513 15.9254 24.0542H17.3456L17.3566 24.0542H17.4186C17.4583 24.0542 17.4974 24.0565 17.5358 24.061C18.8909 24.1585 19.96 25.2887 19.96 26.6686C19.96 28.1125 18.7895 29.283 17.3456 29.283H14.3164C13.7641 29.283 13.3164 28.8353 13.3164 28.283C13.3164 27.7307 13.7641 27.283 14.3164 27.283H17.3456C17.6849 27.283 17.96 27.0079 17.96 26.6686C17.96 26.3311 17.6878 26.0571 17.3509 26.0542H15.9308L15.9197 26.0542H15.8155C15.7524 26.0542 15.6908 26.0484 15.631 26.0372C14.3283 25.8885 13.3164 24.7823 13.3164 23.4398ZM5.95996 21.8485C5.95996 21.2835 6.418 20.8254 6.98301 20.8254H9.73428C11.3134 20.8254 12.5936 22.1056 12.5936 23.6848C12.5936 24.9269 11.8016 25.984 10.6951 26.3787L12.1868 27.4779C12.6314 27.8055 12.7263 28.4315 12.3987 28.8761C12.0711 29.3207 11.445 29.4156 11.0004 29.088L7.95996 26.8476V28.283C7.95996 28.8353 7.51225 29.283 6.95996 29.283C6.40768 29.283 5.95996 28.8353 5.95996 28.283V25.5441V21.8485ZM7.95996 24.5441H9.73428C10.2089 24.5441 10.5936 24.1594 10.5936 23.6848C10.5936 23.2102 10.2089 22.8254 9.73428 22.8254H7.95996V24.5441Z" fill="#1C1B1F"/>
</svg>
