<svg width="33" height="33" viewBox="0 0 33 33" fill="none" xmlns="http://www.w3.org/2000/svg">
<path d="M10.3903 21.749V26.3535C10.3903 27.419 9.5265 28.2828 8.461 28.2828V28.2828C7.3955 28.2828 6.53174 27.419 6.53174 26.3535V26.083" stroke="#1C1B1F" stroke-width="2" stroke-linecap="round"/>
<path d="M18.7428 21.749H15.6779C14.7758 21.749 14.0444 22.4803 14.0444 23.3825V23.3825C14.0444 24.2846 14.7758 25.0159 15.6779 25.0159H17.1833" stroke="#1C1B1F" stroke-width="2" stroke-linecap="round"/>
<path d="M15.5611 25.016H17.1092C18.0114 25.016 18.7427 25.7473 18.7427 26.6494V26.6494C18.7427 27.5516 18.0114 28.2829 17.1092 28.2829H14.0443" stroke="#1C1B1F" stroke-width="2" stroke-linecap="round"/>
<path d="M19.9814 4.28296H6.95996V16.2652H21.9582V28.283H26.96V11.2915L19.9814 4.28296Z" fill="#1C1B1F"/>
<path d="M19.9814 4.28296H6.95996V16.2652H21.9582V28.283H26.96V11.2915L19.9814 4.28296Z" stroke="#1C1B1F" stroke-width="2" stroke-linecap="round" stroke-linejoin="round"/>
<path d="M20.0493 11.2237V4.41101L26.8679 11.2237H20.0493Z" fill="white" stroke="#1C1B1F" stroke-linecap="round" stroke-linejoin="round"/>
</svg>
