<svg width="32" height="32" viewBox="0 0 32 32" fill="none" xmlns="http://www.w3.org/2000/svg">
<path fill-rule="evenodd" clip-rule="evenodd" d="M2.87158 18L29.1253 18C29.6776 18 30.1253 17.5523 30.1253 17L30.1255 8.76699C30.1255 8.50251 30.0207 8.24879 29.8341 8.06138L22.1003 0.29441C21.9127 0.105946 21.6577 0 21.3917 0L2.87173 2.61161e-05C2.31945 2.68779e-05 1.87174 0.447734 1.87174 1.00001L1.87158 17C1.87158 17.5523 2.3193 18 2.87158 18ZM21.8881 7.77327V1.4523L28.715 8.27327H22.3881C22.112 8.27327 21.8881 8.04941 21.8881 7.77327ZM2.93071 21.1194C2.36249 21.1194 1.90186 21.58 1.90186 22.1482V27.2333V30.9998C1.90186 31.552 2.34957 31.9998 2.90186 31.9998C3.45414 31.9998 3.90186 31.552 3.90186 30.9998V28.2333H6.14397C8.10843 28.2333 9.70093 26.6408 9.70093 24.6763C9.70093 22.7119 8.10843 21.1194 6.14397 21.1194H2.93071ZM6.14397 26.2333H3.90186V23.1194H6.14397C7.00386 23.1194 7.70093 23.8165 7.70093 24.6763C7.70093 25.5362 7.00386 26.2333 6.14397 26.2333ZM22.4968 22.1271C22.4968 21.5748 22.9445 21.1271 23.4968 21.1271H26.3127H29.1286C29.6809 21.1271 30.1286 21.5748 30.1286 22.1271C30.1286 22.6794 29.6809 23.1271 29.1286 23.1271H27.3127V30.9998C27.3127 31.552 26.865 31.9998 26.3127 31.9998C25.7605 31.9998 25.3127 31.552 25.3127 30.9998V23.1271H23.4968C22.9445 23.1271 22.4968 22.6794 22.4968 22.1271ZM12.4012 22.1482C12.4012 21.58 12.8618 21.1194 13.4301 21.1194H16.6433C18.6078 21.1194 20.2003 22.7119 20.2003 24.6763C20.2003 26.6408 18.6078 28.2333 16.6433 28.2333H14.4012V30.9998C14.4012 31.552 13.9535 31.9998 13.4012 31.9998C12.8489 31.9998 12.4012 31.552 12.4012 30.9998V27.2333V22.1482ZM14.4012 26.2333H16.6433C17.5032 26.2333 18.2003 25.5362 18.2003 24.6763C18.2003 23.8165 17.5032 23.1194 16.6433 23.1194H14.4012V26.2333Z" fill="#111827"/>
</svg>
