<svg width="32" height="32" viewBox="0 0 32 32" fill="none" xmlns="http://www.w3.org/2000/svg">
<path fill-rule="evenodd" clip-rule="evenodd" d="M28.3337 32H3.66699C3.11471 32 2.66699 31.5523 2.66699 31V1C2.66699 0.447715 3.11471 0 3.66699 0H19.6134C19.8794 0 20.1344 0.105946 20.322 0.294409L29.0423 9.05208C29.2289 9.2395 29.3337 9.4932 29.3337 9.75767V31C29.3337 31.5523 28.8859 32 28.3337 32ZM12.4651 22.1213C12.0746 22.5119 12.0746 23.145 12.4651 23.5356C12.8556 23.9261 13.4888 23.9261 13.8793 23.5356L16.0007 21.4142L18.1219 23.5355C18.5125 23.926 19.1456 23.926 19.5362 23.5355C19.9267 23.145 19.9267 22.5118 19.5362 22.1213L17.4149 20L19.5362 17.8787C19.9267 17.4882 19.9267 16.855 19.5362 16.4645C19.1456 16.074 18.5125 16.074 18.1219 16.4645L16.0007 18.5858L13.8793 16.4644C13.4888 16.0739 12.8556 16.0739 12.4651 16.4644C12.0746 16.855 12.0746 17.4881 12.4651 17.8787L14.5864 20L12.4651 22.1213ZM20.1195 1.62443V8.75429C20.1195 9.03043 20.3433 9.25429 20.6195 9.25429H27.756L20.1195 1.62443Z" fill="#111827"/>
</svg>
