<svg width="33" height="33" viewBox="0 0 33 33" fill="none" xmlns="http://www.w3.org/2000/svg">
<path fill-rule="evenodd" clip-rule="evenodd" d="M19.5659 4.28296H7.95996C7.40768 4.28296 6.95996 4.73068 6.95996 5.28296V15.2652C6.95996 15.8175 7.40768 16.2652 7.95996 16.2652H20.9582C21.5104 16.2652 21.9582 16.7129 21.9582 17.2652V27.283C21.9582 27.8352 22.4059 28.283 22.9582 28.283H25.96C26.5122 28.283 26.96 27.8352 26.96 27.283V11.7045C26.96 11.44 26.8552 11.1863 26.6686 10.9989L20.2745 4.57737C20.0869 4.3889 19.8319 4.28296 19.5659 4.28296ZM20.0493 11.4187V5.69865L25.7743 11.4187H20.0493ZM5.45996 20.283C5.45996 19.7307 5.90768 19.283 6.45996 19.283H13.21C14.9254 19.283 16.3886 20.3628 16.9569 21.8797L18.9192 20.6182C19.2269 20.4204 19.618 20.4064 19.9391 20.5817C20.2602 20.757 20.4599 21.0936 20.4599 21.4594V27.1064C20.4599 27.4723 20.2602 27.8089 19.9391 27.9842C19.618 28.1595 19.2269 28.1454 18.9192 27.9476L17.21 26.8488V28.283C17.21 28.8352 16.7623 29.283 16.21 29.283H9.45996C7.25082 29.283 5.45996 27.4921 5.45996 25.283V20.283ZM18.4599 23.2911L17.21 24.0947V24.4711L18.4599 25.2747V23.2911ZM15.21 23.283V23.5429L15.21 23.5488V24.2829V25.017L15.21 25.0229V27.283H9.45996C8.35539 27.283 7.45996 26.3875 7.45996 25.283V21.283H13.21C14.3145 21.283 15.21 22.1784 15.21 23.283Z" fill="#1C1B1F"/>
</svg>
