<svg width="32" height="32" viewBox="0 0 32 32" fill="none" xmlns="http://www.w3.org/2000/svg">
<path fill-rule="evenodd" clip-rule="evenodd" d="M19.6416 0.000488281H3.76988C3.2176 0.000488281 2.76988 0.448202 2.76988 1.00049V14.9081C2.76988 15.4604 3.2176 15.9081 3.76988 15.9081H21.6814C22.2337 15.9081 22.6814 16.3558 22.6814 16.9081V30.8628C22.6814 31.4151 23.1292 31.8628 23.6814 31.8628H28.3218C28.8741 31.8628 29.3218 31.4151 29.3218 30.8628V9.71796C29.3218 9.45349 29.2171 9.19979 29.0305 9.01237L20.3502 0.294897C20.1626 0.106434 19.9076 0.000488281 19.6416 0.000488281ZM20.1475 9.47371V1.87985L27.7479 9.47371H20.1475ZM2.67822 22.9148C2.67822 22.3625 3.12594 21.9148 3.67822 21.9148H6.66546H9.65241C10.2047 21.9148 10.6524 22.3625 10.6524 22.9148C10.6524 23.4671 10.2047 23.9148 9.65241 23.9148H7.66546V30.8804C7.66546 31.4327 7.21775 31.8804 6.66546 31.8804C6.11318 31.8804 5.66546 31.4327 5.66546 30.8804V23.9148H3.67822C3.12594 23.9148 2.67822 23.4671 2.67822 22.9148ZM21.0896 23.5555C21.443 23.1311 21.3856 22.5006 20.9613 22.1471C20.537 21.7936 19.9064 21.851 19.5529 22.2753L16.9539 25.3951L14.355 22.2753C14.0015 21.851 13.3709 21.7936 12.9466 22.1471C12.5223 22.5006 12.4648 23.1311 12.8183 23.5555L15.6524 26.9574L12.8183 30.3594C12.4648 30.7837 12.5223 31.4143 12.9466 31.7678C13.3709 32.1213 14.0015 32.0639 14.355 31.6395L16.9539 28.5198L19.5529 31.6395C19.9064 32.0639 20.537 32.1213 20.9613 31.7678C21.3856 31.4143 21.443 30.7837 21.0896 30.3594L18.2555 26.9574L21.0896 23.5555Z" fill="#111827"/>
</svg>
