<svg width="32" height="32" viewBox="0 0 32 32" fill="none" xmlns="http://www.w3.org/2000/svg">
<path fill-rule="evenodd" clip-rule="evenodd" d="M2.71663 18.1967L29.2787 18.1966C29.831 18.1966 30.2787 17.7489 30.2787 17.1967L30.2788 8.85839C30.2788 8.59391 30.1741 8.3402 29.9875 8.15278L22.1629 0.294654C21.9753 0.10619 21.7203 0.000244141 21.4543 0.000244141L2.71679 0.000270557C2.1645 0.000271319 1.71679 0.447978 1.71679 1.00026L1.71663 17.1966C1.71663 17.7489 2.16434 18.1967 2.71663 18.1967ZM21.9523 7.86402V1.46863L28.8537 8.36402H22.4523C22.1762 8.36402 21.9523 8.14016 21.9523 7.86402ZM13.0379 21.7794C12.4709 21.7794 12.0112 22.2391 12.0112 22.8061V27.5134V31C12.0112 31.5523 12.4589 32 13.0112 32C13.5635 32 14.0112 31.5523 14.0112 31V28.5134H16.0125C17.872 28.5134 19.3794 27.0059 19.3794 25.1464C19.3794 23.2868 17.872 21.7794 16.0125 21.7794H13.0379ZM16.0125 26.5134H14.0112V23.7794H16.0125C16.7674 23.7794 17.3794 24.3914 17.3794 25.1464C17.3794 25.9013 16.7674 26.5134 16.0125 26.5134ZM8.33941 22.789C8.33941 22.2367 7.8917 21.789 7.33941 21.789C6.78713 21.789 6.33941 22.2367 6.33941 22.789V28.9994C6.33941 29.5517 5.8917 29.9994 5.33941 29.9994H4.70459C4.1523 29.9994 3.70459 29.5517 3.70459 28.9994V28.2351C3.70459 27.6828 3.25687 27.2351 2.70459 27.2351C2.15231 27.2351 1.70459 27.6828 1.70459 28.2351V28.9994C1.70459 30.6562 3.04773 31.9994 4.70459 31.9994H5.33941C6.99627 31.9994 8.33941 30.6562 8.33941 28.9994V22.789ZM21.8616 26.8897C21.8616 24.0673 24.1496 21.7794 26.9719 21.7794H29.296C29.8482 21.7794 30.296 22.2271 30.296 22.7794C30.296 23.3317 29.8482 23.7794 29.296 23.7794H26.9719C25.2542 23.7794 23.8616 25.1719 23.8616 26.8897C23.8616 28.6074 25.2542 30 26.9719 30H28.296V28.0445H26.76C26.2077 28.0445 25.76 27.5968 25.76 27.0445C25.76 26.4922 26.2077 26.0445 26.76 26.0445H28.796C29.6244 26.0445 30.296 26.7161 30.296 27.5445V30.968C30.296 31.5379 29.8339 32 29.264 32H26.9719C24.1496 32 21.8616 29.712 21.8616 26.8897Z" fill="#111827"/>
</svg>
