<svg width="33" height="33" viewBox="0 0 33 33" fill="none" xmlns="http://www.w3.org/2000/svg">
<path fill-rule="evenodd" clip-rule="evenodd" d="M25.96 28.2829H7.95996C7.40768 28.2829 6.95996 27.8352 6.95996 27.2829V5.2829C6.95996 4.73061 7.40768 4.2829 7.95996 4.2829H19.5659C19.8319 4.2829 20.0869 4.38884 20.2745 4.57731L26.6686 10.9988C26.8552 11.1862 26.96 11.4399 26.96 11.7044V27.2829C26.96 27.8352 26.5122 28.2829 25.96 28.2829ZM19.9357 11.3687V5.64868L25.6607 11.3687H19.9357ZM13.959 18.7829C13.959 17.4022 15.0783 16.2829 16.459 16.2829C17.8397 16.2829 18.959 17.4022 18.959 18.7829C18.959 20.1636 17.8397 21.2829 16.459 21.2829C15.0783 21.2829 13.959 20.1636 13.959 18.7829ZM16.459 14.2829C13.9737 14.2829 11.959 16.2976 11.959 18.7829C11.959 21.2682 13.9737 23.2829 16.459 23.2829C17.3396 23.2829 18.1611 23.03 18.8549 22.5928L20.227 23.9649C20.6175 24.3554 21.2507 24.3554 21.6412 23.9649C22.0317 23.5744 22.0317 22.9412 21.6412 22.5507L20.269 21.1785C20.7061 20.4848 20.959 19.6634 20.959 18.7829C20.959 16.2976 18.9443 14.2829 16.459 14.2829Z" fill="#1C1B1F"/>
</svg>
