<svg width="33" height="33" viewBox="0 0 33 33" fill="none" xmlns="http://www.w3.org/2000/svg">
<path fill-rule="evenodd" clip-rule="evenodd" d="M26.96 27.2829C26.96 27.8352 26.5122 28.2829 25.96 28.2829H7.95996C7.40768 28.2829 6.95996 27.8352 6.95996 27.2829V5.2829C6.95996 4.73061 7.40768 4.2829 7.95996 4.2829H19.5659C19.8319 4.2829 20.0869 4.38884 20.2745 4.57731L26.6686 10.9988C26.8552 11.1862 26.96 11.4399 26.96 11.7044V27.2829ZM19.9434 5.71666V10.9367C19.9434 11.2128 20.1672 11.4367 20.4434 11.4367H25.6684L19.9434 5.71666ZM17.96 15.2829C17.96 14.7306 17.5122 14.2829 16.96 14.2829C16.4077 14.2829 15.96 14.7306 15.96 15.2829V20.6722L14.0553 18.7675C13.6647 18.377 13.0316 18.377 12.641 18.7675C12.2505 19.1581 12.2505 19.7912 12.641 20.1817L16.2527 23.7934C16.3739 23.9146 16.5184 23.9982 16.6718 24.0442C16.7327 24.0624 16.7959 24.0751 16.861 24.0815C16.9151 24.0868 16.9696 24.0877 17.0239 24.0843C17.1485 24.0764 17.2669 24.0457 17.375 23.9964C17.4449 23.9645 17.5119 23.9241 17.5744 23.8753C17.6101 23.8474 17.644 23.8172 17.6756 23.7848L21.2786 20.1817C21.6691 19.7912 21.6691 19.1581 21.2786 18.7675C20.8881 18.377 20.2549 18.377 19.8644 18.7675L17.96 20.672V15.2829Z" fill="#1C1B1F"/>
</svg>
