<svg width="33" height="33" viewBox="0 0 33 33" fill="none" xmlns="http://www.w3.org/2000/svg">
<path fill-rule="evenodd" clip-rule="evenodd" d="M5.91605 18.3668L27.6193 18.3667C28.1716 18.3667 28.6193 17.919 28.6193 17.3668L28.6194 10.6873C28.6194 10.4228 28.5147 10.1691 28.328 9.9817L21.934 3.56022C21.7463 3.37175 21.4913 3.26581 21.2254 3.26581L5.91617 3.26583C5.36389 3.26583 4.91617 3.71354 4.91617 4.26582L4.91604 17.3668C4.91604 17.919 5.36376 18.3668 5.91605 18.3668ZM21.7088 9.70654V4.48414L27.4362 10.2065H22.2088C21.9326 10.2065 21.7088 9.98268 21.7088 9.70654ZM8.95243 20.8253C6.61693 20.8253 4.72363 22.7186 4.72363 25.0541C4.72363 27.3896 6.61693 29.2829 8.95243 29.2829H10.3672C10.9195 29.2829 11.3672 28.8352 11.3672 28.2829C11.3672 27.7306 10.9195 27.2829 10.3672 27.2829H8.95243C7.7215 27.2829 6.72363 26.285 6.72363 25.0541C6.72363 23.8232 7.7215 22.8253 8.95243 22.8253H10.3672C10.9195 22.8253 11.3672 22.3776 11.3672 21.8253C11.3672 21.273 10.9195 20.8253 10.3672 20.8253H8.95243ZM15.923 20.8253C14.4791 20.8253 13.3086 21.9958 13.3086 23.4397C13.3086 24.7822 14.3205 25.8884 15.6232 26.0371C15.6829 26.0482 15.7446 26.0541 15.8076 26.0541H15.9119L15.923 26.0541H17.3431C17.68 26.057 17.9521 26.3309 17.9521 26.6685C17.9521 27.0078 17.6771 27.2829 17.3378 27.2829H14.3086C13.7563 27.2829 13.3086 27.7306 13.3086 28.2829C13.3086 28.8351 13.7563 29.2829 14.3086 29.2829H17.3378C18.7816 29.2829 19.9521 28.1124 19.9521 26.6685C19.9521 25.2886 18.8831 24.1584 17.528 24.0609C17.4896 24.0564 17.4505 24.0541 17.4108 24.0541H17.3488L17.3378 24.0541H15.9176C15.5808 24.0512 15.3086 23.7772 15.3086 23.4397C15.3086 23.1004 15.5837 22.8253 15.923 22.8253H18.9521C19.5044 22.8253 19.9521 22.3776 19.9521 21.8253C19.9521 21.273 19.5044 20.8253 18.9521 20.8253H15.923ZM21.8936 23.4397C21.8936 21.9958 23.0641 20.8253 24.5079 20.8253H27.5371C28.0894 20.8253 28.5371 21.273 28.5371 21.8253C28.5371 22.3776 28.0894 22.8253 27.5371 22.8253H24.5079C24.1686 22.8253 23.8936 23.1004 23.8936 23.4397C23.8936 23.7772 24.1657 24.0512 24.5026 24.0541H25.9227L25.9338 24.0541H25.9958C26.0354 24.0541 26.0745 24.0564 26.113 24.0609C27.468 24.1584 28.5371 25.2886 28.5371 26.6685C28.5371 28.1124 27.3666 29.2829 25.9227 29.2829H22.8936C22.3413 29.2829 21.8936 28.8351 21.8936 28.2829C21.8936 27.7306 22.3413 27.2829 22.8936 27.2829H25.9227C26.262 27.2829 26.5371 27.0078 26.5371 26.6685C26.5371 26.3309 26.2649 26.057 25.9281 26.0541H24.5079L24.4969 26.0541H24.3926C24.3296 26.0541 24.2679 26.0482 24.2081 26.0371C22.9054 25.8884 21.8936 24.7822 21.8936 23.4397Z" fill="#1C1B1F"/>
</svg>
