<svg width="33" height="33" viewBox="0 0 33 33" fill="none" xmlns="http://www.w3.org/2000/svg">
<path fill-rule="evenodd" clip-rule="evenodd" d="M5.95996 4.2829C5.95996 3.73061 6.40768 3.2829 6.95996 3.2829H19.9814C20.2473 3.2829 20.5023 3.38884 20.69 3.57731L27.6686 10.5858C27.8552 10.7733 27.96 11.027 27.96 11.2914V28.2829C27.96 28.8352 27.5122 29.2829 26.96 29.2829H21.9582C21.4059 29.2829 20.9582 28.8352 20.9582 28.2829C20.9582 27.7306 21.4059 27.2829 21.9582 27.2829H25.96V12.2236H20.0493C19.497 12.2236 19.0493 11.7759 19.0493 11.2236V5.2829H7.95996V16.2651C7.95996 16.8174 7.51225 17.2651 6.95996 17.2651C6.40768 17.2651 5.95996 16.8174 5.95996 16.2651V4.2829ZM21.0493 6.82368V10.2236H24.4522L21.0493 6.82368ZM19.3839 18.7038C18.9933 18.3133 18.3602 18.3133 17.9697 18.7038C17.5791 19.0944 17.5791 19.7275 17.9697 20.1181C18.2826 20.431 18.5309 20.8026 18.7003 21.2115C18.8697 21.6205 18.9569 22.0588 18.9569 22.5014C18.9569 22.944 18.8697 23.3823 18.7003 23.7912C18.5309 24.2002 18.2826 24.5717 17.9697 24.8847C17.5791 25.2752 17.5791 25.9084 17.9697 26.2989C18.3602 26.6895 18.9933 26.6895 19.3839 26.2989C19.8826 25.8002 20.2782 25.2082 20.5481 24.5566C20.8179 23.905 20.9569 23.2067 20.9569 22.5014C20.9569 21.7961 20.8179 21.0978 20.5481 20.4462C20.2782 19.7946 19.8826 19.2025 19.3839 18.7038ZM9.24658 21.1959C8.52475 21.264 7.95996 21.8717 7.95996 22.6113C7.95996 23.351 8.52475 23.9587 9.24658 24.0267L9.24658 21.1959ZM11.2466 24.4697V20.7399L13.6159 18.8375V26.2683L11.2466 24.4697ZM15.6159 16.7521C15.6159 16.3674 15.3952 16.0168 15.0483 15.8504C14.7014 15.6841 14.2898 15.7315 13.9898 15.9724L9.98302 19.1895H9.38173C7.49194 19.1895 5.95996 20.7215 5.95996 22.6113C5.95996 24.5011 7.49194 26.0331 9.38173 26.0331H9.99824L14.0112 29.0794C14.3138 29.3091 14.7203 29.3475 15.0605 29.1786C15.4007 29.0098 15.6159 28.6627 15.6159 28.2829V16.7521Z" fill="#1C1B1F"/>
</svg>
