<svg width="32" height="32" viewBox="0 0 32 32" fill="none" xmlns="http://www.w3.org/2000/svg">
<path fill-rule="evenodd" clip-rule="evenodd" d="M2.88742 18.0004L29.1412 18.0003C29.6934 18.0003 30.1412 17.5526 30.1412 17.0004L30.1413 8.76735C30.1413 8.50287 30.0366 8.24916 29.8499 8.06174L22.1162 0.294776C21.9285 0.106312 21.6735 0.000366211 21.4075 0.000366211L2.88757 0.000392327C2.33529 0.000393089 1.88758 0.4481 1.88757 1.00038L1.88742 17.0004C1.88741 17.5526 2.33513 18.0004 2.88742 18.0004ZM21.904 7.77362V1.45266L28.7309 8.27362H22.404C22.1278 8.27362 21.904 8.04977 21.904 7.77362ZM3.77578 23.0732C3.57525 22.5586 2.99554 22.304 2.48094 22.5045C1.96634 22.705 1.71174 23.2847 1.91226 23.7993L4.85951 31.3628C5.00728 31.742 5.37017 31.9938 5.77714 31.9996C6.18411 32.0053 6.55396 31.7638 6.71239 31.3889L9.90862 23.8255C10.1236 23.3168 9.88548 22.7301 9.37675 22.5151C8.86803 22.3001 8.28134 22.5383 8.06636 23.047L5.82882 28.3418L3.77578 23.0732ZM23.7437 23.4362C23.7437 22.884 24.1914 22.4362 24.7437 22.4362H29.1557C29.708 22.4362 30.1557 22.884 30.1557 23.4362C30.1557 23.9885 29.708 24.4362 29.1557 24.4362H25.7437V26.2179H28.5246C29.0768 26.2179 29.5246 26.6657 29.5246 27.2179C29.5246 27.7702 29.0768 28.2179 28.5246 28.2179H25.7437V29.9998H29.1557C29.708 29.9998 30.1557 30.4475 30.1557 30.9998C30.1557 31.552 29.708 31.9998 29.1557 31.9998H24.7437C24.1914 31.9998 23.7437 31.552 23.7437 30.9998V27.2179V23.4362ZM14.0287 22.4362C14.581 22.4362 15.0287 22.884 15.0287 23.4362V28.9998C15.0287 29.552 15.4765 29.9998 16.0287 29.9998H17.6172C18.1695 29.9998 18.6172 29.552 18.6172 28.9998V23.4362C18.6172 22.884 19.0649 22.4362 19.6172 22.4362C20.1695 22.4362 20.6172 22.884 20.6172 23.4362V28.9998C20.6172 30.6566 19.2741 31.9998 17.6172 31.9998H16.0287C14.3719 31.9998 13.0287 30.6566 13.0287 28.9998V23.4362C13.0287 22.884 13.4765 22.4362 14.0287 22.4362Z" fill="#111827"/>
</svg>
