<svg width="33" height="33" viewBox="0 0 33 33" fill="none" xmlns="http://www.w3.org/2000/svg">
<path fill-rule="evenodd" clip-rule="evenodd" d="M25.96 28.2829H7.95996C7.40768 28.2829 6.95996 27.8352 6.95996 27.2829V5.2829C6.95996 4.73061 7.40768 4.2829 7.95996 4.2829H19.5659C19.8319 4.2829 20.0869 4.38884 20.2745 4.57731L26.6686 10.9988C26.8552 11.1862 26.96 11.4399 26.96 11.7044V27.2829C26.96 27.8352 26.5122 28.2829 25.96 28.2829ZM13.96 17.7973C13.4077 17.7973 12.96 18.2451 12.96 18.7973C12.96 19.3496 13.4077 19.7973 13.96 19.7973H19.96C20.5122 19.7973 20.96 19.3496 20.96 18.7973C20.96 18.2451 20.5122 17.7973 19.96 17.7973H13.96ZM12.96 22.7973C12.96 22.245 13.4077 21.7973 13.96 21.7973H19.96C20.5122 21.7973 20.96 22.245 20.96 22.7973C20.96 23.3496 20.5122 23.7973 19.96 23.7973H13.96C13.4077 23.7973 12.96 23.3496 12.96 22.7973ZM20.0493 5.50123V10.7236C20.0493 10.9998 20.2732 11.2236 20.5493 11.2236H25.7767L20.0493 5.50123Z" fill="#1C1B1F"/>
</svg>
