<svg width="32" height="32" viewBox="0 0 32 32" fill="none" xmlns="http://www.w3.org/2000/svg">
<path fill-rule="evenodd" clip-rule="evenodd" d="M2.24609 18.7777L29.7204 18.7777C30.2727 18.7777 30.7204 18.33 30.7204 17.7777L30.7206 9.12801C30.7206 8.86353 30.6158 8.60982 30.4292 8.4224L22.3361 0.294532C22.1484 0.106068 21.8934 0.00012207 21.6275 0.00012207L2.24625 0.000149374C1.69397 0.000150136 1.24626 0.447859 1.24625 1.00014L1.24609 17.7777C1.24609 18.33 1.69381 18.7777 2.24609 18.7777ZM22.1272 8.13072V1.51508L29.2491 8.63072H22.6272C22.3511 8.63072 22.1272 8.40686 22.1272 8.13072ZM14.5574 21.0263C12.7662 21.0263 11.3141 22.4784 11.3141 24.2696C11.3141 25.9389 12.5752 27.3136 14.1966 27.4931C14.2613 27.5063 14.3282 27.5132 14.3968 27.5132H16.523C17.2097 27.5132 17.7663 28.0698 17.7663 28.7565C17.7663 29.4432 17.2097 29.9998 16.523 29.9998H12.3137C11.7615 29.9998 11.3137 30.4476 11.3137 30.9998C11.3137 31.5521 11.7615 31.9998 12.3137 31.9998H16.523C18.3142 31.9998 19.7663 30.5477 19.7663 28.7565C19.7663 27.0431 18.4378 25.6401 16.7547 25.5213C16.7122 25.5158 16.6689 25.513 16.6249 25.513H14.5574C13.8707 25.513 13.3141 24.9563 13.3141 24.2696C13.3141 23.5829 13.8707 23.0263 14.5574 23.0263H18.7667C19.319 23.0263 19.7667 22.5786 19.7667 22.0263C19.7667 21.474 19.319 21.0263 18.7667 21.0263H14.5574ZM23.0064 21.2082C23.4611 20.8948 24.0838 21.0094 24.3972 21.4641L26.6639 24.7533L28.9306 21.4641C29.244 21.0094 29.8667 20.8948 30.3215 21.2082C30.7762 21.5216 30.8908 22.1443 30.5774 22.599L27.8784 26.5156L30.5774 30.4321C30.8908 30.8869 30.7762 31.5096 30.3215 31.823C29.8667 32.1364 29.244 32.0218 28.9306 31.567L26.6639 28.2778L24.3972 31.567C24.0838 32.0218 23.4611 32.1364 23.0064 31.823C22.5516 31.5096 22.437 30.8869 22.7504 30.4321L25.4494 26.5156L22.7504 22.599C22.437 22.1443 22.5516 21.5216 23.0064 21.2082ZM2.28589 21.0316C1.7336 21.0316 1.28589 21.4793 1.28589 22.0316C1.28589 22.5839 1.7336 23.0316 2.28589 23.0316H4.37596L4.37596 30.9996C4.37596 31.5518 4.82368 31.9996 5.37596 31.9996C5.92825 31.9996 6.37596 31.5518 6.37596 30.9996L6.37596 23.0316H8.46609C9.01838 23.0316 9.46609 22.5839 9.46609 22.0316C9.46609 21.4793 9.01838 21.0316 8.46609 21.0316H5.37596H2.28589Z" fill="#111827"/>
</svg>
