<svg width="33" height="33" viewBox="0 0 33 33" fill="none" xmlns="http://www.w3.org/2000/svg">
<path fill-rule="evenodd" clip-rule="evenodd" d="M6.95996 4.2829C6.95996 3.73061 7.40768 3.2829 7.95996 3.2829H20.9814C21.2473 3.2829 21.5023 3.38884 21.69 3.57731L28.6686 10.5858C28.8552 10.7733 28.96 11.027 28.96 11.2914V28.2829C28.96 28.8352 28.5122 29.2829 27.96 29.2829H22.9582C22.4059 29.2829 21.9582 28.8352 21.9582 28.2829C21.9582 27.7306 22.4059 27.2829 22.9582 27.2829H26.96V12.2236H21.0493C20.497 12.2236 20.0493 11.7759 20.0493 11.2236V5.2829H8.95996V16.2651C8.95996 16.8174 8.51225 17.2651 7.95996 17.2651C7.40768 17.2651 6.95996 16.8174 6.95996 16.2651V4.2829ZM22.0493 6.82368V10.2236H25.4522L22.0493 6.82368ZM11.5873 21.2953C12.1599 19.5927 13.7693 18.3686 15.662 18.3686C18.0357 18.3686 19.9599 20.2928 19.9599 22.6664C19.9599 25.1167 17.962 27.2829 15.662 27.2829H9.67617C8.17605 27.2829 6.95996 26.0668 6.95996 24.5667C6.95996 23.1546 8.03747 21.9942 9.41513 21.8629C9.38153 22.1262 9.36424 22.3944 9.36424 22.6664C9.36424 23.2187 9.81195 23.6664 10.3642 23.6664C10.9165 23.6664 11.3642 23.2187 11.3642 22.6664C11.3642 22.1853 11.4429 21.7246 11.5873 21.2953ZM9.67617 19.8505C9.79216 19.8505 9.90728 19.8547 10.0214 19.863C11.0524 17.7925 13.1899 16.3686 15.662 16.3686C19.1402 16.3686 21.9599 19.1882 21.9599 22.6664C21.9599 26.0679 19.2139 29.2829 15.662 29.2829H9.67617C7.07148 29.2829 4.95996 27.1714 4.95996 24.5667C4.95996 21.962 7.07148 19.8505 9.67617 19.8505Z" fill="#1C1B1F"/>
</svg>
