<svg width="33" height="33" viewBox="0 0 33 33" fill="none" xmlns="http://www.w3.org/2000/svg">
<path fill-rule="evenodd" clip-rule="evenodd" d="M6.95996 3.2829C6.40768 3.2829 5.95996 3.73061 5.95996 4.2829V6.2829C5.95996 6.83518 6.40768 7.2829 6.95996 7.2829C7.51225 7.2829 7.95996 6.83518 7.95996 6.2829V5.2829H8.58764C9.13992 5.2829 9.58764 4.83518 9.58764 4.2829C9.58764 3.73061 9.13992 3.2829 8.58764 3.2829H6.95996ZM11.843 3.2829C11.2907 3.2829 10.843 3.73061 10.843 4.2829C10.843 4.83518 11.2907 5.2829 11.843 5.2829H15.0983C15.6506 5.2829 16.0983 4.83518 16.0983 4.2829C16.0983 3.73061 15.6506 3.2829 15.0983 3.2829H11.843ZM18.3537 3.2829C17.8014 3.2829 17.3537 3.73061 17.3537 4.2829C17.3537 4.83518 17.8014 5.2829 18.3537 5.2829H19.5659L19.6196 5.33685V11.1528C19.6196 11.4289 19.8435 11.6528 20.1196 11.6528H25.9086L25.96 11.7044V13.4154C25.96 13.9677 26.4077 14.4154 26.96 14.4154C27.5122 14.4154 27.96 13.9677 27.96 13.4154V11.2914C27.96 11.027 27.8552 10.7733 27.6686 10.5858L27.1391 10.054C27.1106 10.0166 27.079 9.9803 27.044 9.94537L22.5145 5.41986C22.49 5.38853 22.4634 5.35833 22.4346 5.32944L20.69 3.57731C20.5023 3.38884 20.2473 3.2829 19.9814 3.2829H18.3537ZM7.95996 10.2829C7.95996 9.73061 7.51225 9.2829 6.95996 9.2829C6.40768 9.2829 5.95996 9.73061 5.95996 10.2829V14.2829C5.95996 14.8352 6.40768 15.2829 6.95996 15.2829C7.51225 15.2829 7.95996 14.8352 7.95996 14.2829V10.2829ZM27.96 17.6632C27.96 17.1109 27.5122 16.6632 26.96 16.6632C26.4077 16.6632 25.96 17.1109 25.96 17.6632V21.9111C25.96 22.4634 26.4077 22.9111 26.96 22.9111C27.5122 22.9111 27.96 22.4634 27.96 21.9111V17.6632ZM7.95996 18.2829C7.95996 17.7306 7.51225 17.2829 6.95996 17.2829C6.40768 17.2829 5.95996 17.7306 5.95996 18.2829V22.2829C5.95996 22.8352 6.40768 23.2829 6.95996 23.2829C7.51225 23.2829 7.95996 22.8352 7.95996 22.2829V18.2829ZM27.96 26.159C27.96 25.6067 27.5122 25.159 26.96 25.159C26.4077 25.159 25.96 25.6067 25.96 26.159V27.2829H25.2933C24.741 27.2829 24.2933 27.7306 24.2933 28.2829C24.2933 28.8352 24.741 29.2829 25.2933 29.2829H26.96C27.5122 29.2829 27.96 28.8352 27.96 28.2829V26.159ZM7.95996 26.2829C7.95996 25.7306 7.51225 25.2829 6.95996 25.2829C6.40768 25.2829 5.95996 25.7306 5.95996 26.2829V28.2829C5.95996 28.8352 6.40768 29.2829 6.95996 29.2829H8.62663C9.17891 29.2829 9.62663 28.8352 9.62663 28.2829C9.62663 27.7306 9.17891 27.2829 8.62663 27.2829H7.95996V26.2829ZM11.96 27.2829C11.4077 27.2829 10.96 27.7306 10.96 28.2829C10.96 28.8352 11.4077 29.2829 11.96 29.2829H15.2933C15.8456 29.2829 16.2933 28.8352 16.2933 28.2829C16.2933 27.7306 15.8456 27.2829 15.2933 27.2829H11.96ZM18.6266 27.2829C18.0743 27.2829 17.6266 27.7306 17.6266 28.2829C17.6266 28.8352 18.0743 29.2829 18.6266 29.2829H21.96C22.5122 29.2829 22.96 28.8352 22.96 28.2829C22.96 27.7306 22.5122 27.2829 21.96 27.2829H18.6266Z" fill="#1C1B1F"/>
</svg>
