<svg width="32" height="32" viewBox="0 0 32 32" fill="none" xmlns="http://www.w3.org/2000/svg">
<path fill-rule="evenodd" clip-rule="evenodd" d="M2.29785 18.7326L29.7013 18.7325C30.2536 18.7325 30.7013 18.2848 30.7013 17.7326L30.7014 9.10704C30.7014 8.84256 30.5967 8.58885 30.4101 8.40143L22.3378 0.294532C22.1501 0.106068 21.8951 0.00012207 21.6292 0.00012207L2.29801 0.000149305C1.74573 0.000150067 1.29802 0.447858 1.29801 1.00014L1.29785 17.7326C1.29785 18.2848 1.74556 18.7326 2.29785 18.7326ZM22.1287 8.10997V1.51145L29.2334 8.60997H22.6287C22.3526 8.60997 22.1287 8.38611 22.1287 8.10997ZM1.34119 22.7344C1.34119 22.1821 1.7889 21.7344 2.34119 21.7344H5.46328C7.32646 21.7344 8.83687 23.2448 8.83687 25.108C8.83687 26.9712 7.32646 28.4816 5.46328 28.4816H3.34119V30.9779C3.34119 31.5302 2.89347 31.9779 2.34119 31.9779C1.7889 31.9779 1.34119 31.5302 1.34119 30.9779V27.4816V22.7344ZM3.34119 26.4816H5.46328C6.2219 26.4816 6.83687 25.8666 6.83687 25.108C6.83687 24.3494 6.22189 23.7344 5.46328 23.7344H3.34119V26.4816ZM12.3336 22.7344C12.3336 22.1821 12.7813 21.7344 13.3336 21.7344H15.3951C18.2238 21.7344 20.5169 24.0275 20.5169 26.8561C20.5169 29.6848 18.2238 31.9779 15.3951 31.9779H13.3336C12.7813 31.9779 12.3336 31.5302 12.3336 30.9779V22.7344ZM18.5169 26.8561C18.5169 25.132 17.1192 23.7344 15.3951 23.7344H14.3336V29.9779H15.3951C17.1192 29.9779 18.5169 28.5802 18.5169 26.8561ZM24.7423 21.7369C24.1901 21.7369 23.7423 22.1846 23.7423 22.7369V30.9998C23.7423 31.5521 24.1901 31.9998 24.7423 31.9998C25.2946 31.9998 25.7423 31.5521 25.7423 30.9998V28.3569H29.0036C29.5559 28.3569 30.0036 27.9092 30.0036 27.3569C30.0036 26.8046 29.5559 26.3569 29.0036 26.3569H25.7423V23.7369H29.6945C30.2467 23.7369 30.6945 23.2892 30.6945 22.7369C30.6945 22.1846 30.2467 21.7369 29.6945 21.7369H24.7423Z" fill="#111827"/>
</svg>
