<svg width="32" height="32" viewBox="0 0 32 32" fill="none" xmlns="http://www.w3.org/2000/svg">
<path fill-rule="evenodd" clip-rule="evenodd" d="M3.50098 0.000915527C2.94869 0.000915527 2.50098 0.448631 2.50098 1.00092V2.8758C2.50098 3.42809 2.94869 3.8758 3.50098 3.8758C4.05326 3.8758 4.50098 3.42809 4.50098 2.8758V2.00092H5.53545C6.08773 2.00092 6.53545 1.5532 6.53545 1.00092C6.53545 0.448631 6.08773 0.000915527 5.53545 0.000915527H3.50098ZM9.60439 0.000915527C9.05211 0.000915527 8.60439 0.448631 8.60439 1.00092C8.60439 1.5532 9.05211 2.00092 9.60439 2.00092H13.6733C14.2256 2.00092 14.6733 1.5532 14.6733 1.00092C14.6733 0.448631 14.2256 0.000915527 13.6733 0.000915527H9.60439ZM17.7423 0.000915527C17.19 0.000915527 16.7423 0.448631 16.7423 1.00092C16.7423 1.5532 17.19 2.00092 17.7423 2.00092H19.3245V9.71273C19.3245 9.98887 19.5484 10.2127 19.8245 10.2127H27.4995V11.5309C27.4995 12.0832 27.9472 12.5309 28.4995 12.5309C29.0517 12.5309 29.4995 12.0832 29.4995 11.5309V9.76105C29.4995 9.55928 29.4385 9.36377 29.3267 9.19919C29.3251 8.95539 29.2337 8.70733 29.0315 8.50532L21.0313 0.512086C20.8469 0.327783 20.6241 0.235685 20.4013 0.219947C20.2249 0.0788535 20.0049 0.000915527 19.7768 0.000915527H17.7423ZM4.50098 6.62557C4.50098 6.07329 4.05326 5.62557 3.50098 5.62557C2.94869 5.62557 2.50098 6.07329 2.50098 6.62557V10.3753C2.50098 10.9276 2.94869 11.3753 3.50098 11.3753C4.05326 11.3753 4.50098 10.9276 4.50098 10.3753V6.62557ZM4.50098 14.1251C4.50098 13.5728 4.05326 13.1251 3.50098 13.1251C2.94869 13.1251 2.50098 13.5728 2.50098 14.1251V17.8749C2.50098 18.4272 2.94869 18.8749 3.50098 18.8749C4.05326 18.8749 4.50098 18.4272 4.50098 17.8749V14.1251ZM29.4995 15.0706C29.4995 14.5183 29.0517 14.0706 28.4995 14.0706C27.9472 14.0706 27.4995 14.5183 27.4995 15.0706V18.6102C27.4995 19.1625 27.9472 19.6102 28.4995 19.6102C29.0517 19.6102 29.4995 19.1625 29.4995 18.6102V15.0706ZM4.50098 21.6247C4.50098 21.0724 4.05326 20.6247 3.50098 20.6247C2.94869 20.6247 2.50098 21.0724 2.50098 21.6247V25.3744C2.50098 25.9267 2.94869 26.3744 3.50098 26.3744C4.05326 26.3744 4.50098 25.9267 4.50098 25.3744V21.6247ZM29.4995 22.1499C29.4995 21.5976 29.0517 21.1499 28.4995 21.1499C27.9472 21.1499 27.4995 21.5976 27.4995 22.1499V25.6896C27.4995 26.2419 27.9472 26.6896 28.4995 26.6896C29.0517 26.6896 29.4995 26.2419 29.4995 25.6896V22.1499ZM4.50098 29.1242C4.50098 28.5719 4.05326 28.1242 3.50098 28.1242C2.94869 28.1242 2.50098 28.5719 2.50098 29.1242V30.9991C2.50098 31.5514 2.94869 31.9991 3.50098 31.9991H5.58418C6.13647 31.9991 6.58418 31.5514 6.58418 30.9991C6.58418 30.4468 6.13647 29.9991 5.58418 29.9991H4.50098V29.1242ZM29.4995 29.2292C29.4995 28.677 29.0517 28.2292 28.4995 28.2292C27.9472 28.2292 27.4995 28.677 27.4995 29.2292V29.9991H26.4162C25.864 29.9991 25.4162 30.4468 25.4162 30.9991C25.4162 31.5514 25.864 31.9991 26.4162 31.9991H28.4995C29.0517 31.9991 29.4995 31.5514 29.4995 30.9991V29.2292ZM9.7506 29.9991C9.19831 29.9991 8.7506 30.4468 8.7506 30.9991C8.7506 31.5514 9.19831 31.9991 9.7506 31.9991H13.917C14.4693 31.9991 14.917 31.5514 14.917 30.9991C14.917 30.4468 14.4693 29.9991 13.917 29.9991H9.7506ZM18.0834 29.9991C17.5311 29.9991 17.0834 30.4468 17.0834 30.9991C17.0834 31.5514 17.5311 31.9991 18.0834 31.9991H22.2498C22.8021 31.9991 23.2498 31.5514 23.2498 30.9991C23.2498 30.4468 22.8021 29.9991 22.2498 29.9991H18.0834Z" fill="#111827"/>
</svg>
