<svg width="33" height="33" viewBox="0 0 33 33" fill="none" xmlns="http://www.w3.org/2000/svg">
<path fill-rule="evenodd" clip-rule="evenodd" d="M6.10822 18.3667L27.8115 18.3667C28.3638 18.3667 28.8115 17.919 28.8115 17.3667L28.8116 10.6873C28.8116 10.4228 28.7068 10.1691 28.5202 9.98164L22.1262 3.56016C21.9385 3.37169 21.6835 3.26575 21.4176 3.26575L6.10834 3.26577C5.55606 3.26577 5.10835 3.71348 5.10834 4.26576L5.10822 17.3667C5.10821 17.919 5.55593 18.3667 6.10822 18.3667ZM21.901 9.70648V4.48408L27.6283 10.2065H22.401C22.1248 10.2065 21.901 9.98262 21.901 9.70648ZM7.13839 20.8253C9.47389 20.8253 11.3672 22.7186 11.3672 25.0541C11.3672 27.3896 9.47389 29.2829 7.13839 29.2829H5.72363C5.17135 29.2829 4.72363 28.8352 4.72363 28.2829V21.8253C4.72363 21.273 5.17135 20.8253 5.72363 20.8253H7.13839ZM9.36718 25.0541C9.36718 23.8232 8.36932 22.8253 7.13839 22.8253H6.72363V27.2829H7.13839C8.36932 27.2829 9.36718 26.285 9.36718 25.0541ZM15.4692 25.0562C15.4692 23.7013 16.4086 22.8296 17.3051 22.8296C18.2016 22.8296 19.1409 23.7013 19.1409 25.0562C19.1409 26.4112 18.2016 27.2829 17.3051 27.2829C16.4086 27.2829 15.4692 26.4112 15.4692 25.0562ZM17.3051 20.8296C15.0692 20.8296 13.4692 22.8471 13.4692 25.0562C13.4692 27.2654 15.0692 29.2829 17.3051 29.2829C19.541 29.2829 21.1409 27.2654 21.1409 25.0562C21.1409 22.8471 19.541 20.8296 17.3051 20.8296ZM22.5527 25.0541C22.5527 22.7186 24.446 20.8253 26.7815 20.8253H28.1963C28.7486 20.8253 29.1963 21.273 29.1963 21.8253C29.1963 22.3776 28.7486 22.8253 28.1963 22.8253H26.7815C25.5506 22.8253 24.5527 23.8232 24.5527 25.0541C24.5527 26.285 25.5506 27.2829 26.7815 27.2829H28.1963C28.7486 27.2829 29.1963 27.7306 29.1963 28.2829C29.1963 28.8352 28.7486 29.2829 28.1963 29.2829H26.7815C24.446 29.2829 22.5527 27.3896 22.5527 25.0541Z" fill="#1C1B1F"/>
</svg>
