<svg width="32" height="32" viewBox="0 0 32 32" fill="none" xmlns="http://www.w3.org/2000/svg">
<path fill-rule="evenodd" clip-rule="evenodd" d="M19.6249 0.00012207H3.67847C3.12618 0.00012207 2.67847 0.447836 2.67847 1.00012V14.9765C2.67847 15.5287 3.12618 15.9765 3.67847 15.9765H21.6761C22.2283 15.9765 22.6761 16.4242 22.6761 16.9765V31.0001C22.6761 31.5524 23.1238 32.0001 23.6761 32.0001H28.3451C28.8974 32.0001 29.3451 31.5524 29.3451 31.0001V9.7578C29.3451 9.49332 29.2404 9.23962 29.0538 9.05221L20.3335 0.294531C20.1459 0.106068 19.8909 0.00012207 19.6249 0.00012207ZM20.131 9.51428V1.88761L27.7643 9.51428H20.131ZM2.65479 21.2906C2.65479 20.7383 3.1025 20.2906 3.65479 20.2906H12.4221C14.3452 20.2906 15.9513 21.6478 16.335 23.4566L18.8036 21.8695C19.1114 21.6716 19.5025 21.6576 19.8236 21.8329C20.1447 22.0082 20.3444 22.3448 20.3444 22.7106V29.5261C20.3444 29.8919 20.1447 30.2285 19.8236 30.4038C19.5025 30.5791 19.1114 30.5651 18.8036 30.3672L16.4221 28.8361V30.9458C16.4221 31.4981 15.9744 31.9458 15.4221 31.9458H6.65479C4.44565 31.9458 2.65479 30.155 2.65479 27.9458V21.2906ZM18.3444 24.5424L16.4221 25.7782V26.4585L18.3444 27.6943V24.5424ZM14.4221 24.2906V25.2201L14.422 25.2324V26.1184V27.0043L14.4221 27.0166V29.9458H6.65479C5.55022 29.9458 4.65479 29.0504 4.65479 27.9458V22.2906H12.4221C13.5267 22.2906 14.4221 23.1861 14.4221 24.2906Z" fill="#111827"/>
</svg>
