<svg width="33" height="33" viewBox="0 0 33 33" fill="none" xmlns="http://www.w3.org/2000/svg">
<path fill-rule="evenodd" clip-rule="evenodd" d="M6.10823 18.3668L27.8115 18.3668C28.3638 18.3668 28.8115 17.9191 28.8115 17.3668L28.8116 10.6874C28.8116 10.4229 28.7068 10.1692 28.5202 9.98177L22.1262 3.56028C21.9385 3.37182 21.6835 3.26587 21.4176 3.26587L6.10835 3.26589C5.55607 3.26589 5.10835 3.7136 5.10835 4.26588L5.10822 17.3668C5.10822 17.9191 5.55594 18.3668 6.10823 18.3668ZM21.901 9.7066V4.4842L27.6283 10.2066H22.401C22.1248 10.2066 21.901 9.98274 21.901 9.7066ZM15.1923 20.6466C14.9524 20.2733 14.4951 20.1027 14.0693 20.2278C13.6435 20.3528 13.3511 20.7435 13.3511 21.1873V28.2829C13.3511 28.8352 13.7988 29.2829 14.3511 29.2829C14.9034 29.2829 15.3511 28.8352 15.3511 28.2829V24.5926L18.0704 28.8236C18.3104 29.1969 18.7676 29.3674 19.1934 29.2424C19.6192 29.1173 19.9117 28.7267 19.9117 28.2829V21.1873C19.9117 20.635 19.464 20.1873 18.9117 20.1873C18.3594 20.1873 17.9117 20.635 17.9117 21.1873V24.8775L15.1923 20.6466ZM6.02647 20.1873C5.46145 20.1873 5.00342 20.6453 5.00342 21.2103V25.2735V28.283C5.00342 28.8353 5.45113 29.283 6.00342 29.283C6.5557 29.283 7.00342 28.8353 7.00342 28.283V26.2735H8.59398C10.2746 26.2735 11.6371 24.911 11.6371 23.2304C11.6371 21.5497 10.2746 20.1873 8.59398 20.1873H6.02647ZM8.59398 24.2735H7.00342V22.1873H8.59398C9.17006 22.1873 9.63707 22.6543 9.63707 23.2304C9.63707 23.8064 9.17006 24.2735 8.59398 24.2735ZM21.626 24.5873C21.626 22.1572 23.5959 20.1873 26.026 20.1873H27.9484C28.5007 20.1873 28.9484 20.635 28.9484 21.1873C28.9484 21.7395 28.5007 22.1873 27.9484 22.1873H26.026C24.7005 22.1873 23.626 23.2618 23.626 24.5873C23.626 25.9128 24.7005 26.9873 26.026 26.9873H26.9484V25.7154H25.8507C25.2984 25.7154 24.8507 25.2677 24.8507 24.7154C24.8507 24.1631 25.2984 23.7154 25.8507 23.7154H27.4484C28.2769 23.7154 28.9484 24.3869 28.9484 25.2154V27.9608C28.9484 28.5277 28.4889 28.9873 27.922 28.9873H26.026C23.5959 28.9873 21.626 27.0174 21.626 24.5873Z" fill="#1C1B1F"/>
</svg>
