<svg width="33" height="33" viewBox="0 0 33 33" fill="none" xmlns="http://www.w3.org/2000/svg">
<path fill-rule="evenodd" clip-rule="evenodd" d="M6.10823 18.3668L27.8115 18.3668C28.3638 18.3668 28.8115 17.9191 28.8115 17.3668L28.8116 10.6874C28.8116 10.4229 28.7068 10.1692 28.5202 9.98177L22.1262 3.56028C21.9385 3.37182 21.6835 3.26587 21.4176 3.26587L6.10835 3.26589C5.55607 3.26589 5.10835 3.7136 5.10835 4.26588L5.10822 17.3668C5.10822 17.9191 5.55594 18.3668 6.10823 18.3668ZM21.901 9.7066V4.4842L27.6283 10.2066H22.401C22.1248 10.2066 21.901 9.98274 21.901 9.7066ZM14.2662 20.4829C13.7017 20.4829 13.2441 20.9405 13.2441 21.505V25.3988V28.283C13.2441 28.8353 13.6919 29.283 14.2441 29.283C14.7964 29.283 15.2441 28.8353 15.2441 28.283V26.3988H16.7268C18.3604 26.3988 19.6847 25.0745 19.6847 23.4409C19.6847 21.8072 18.3604 20.4829 16.7268 20.4829H14.2662ZM16.7268 24.3988H15.2441V22.4829H16.7268C17.2558 22.4829 17.6847 22.9118 17.6847 23.4409C17.6847 23.97 17.2558 24.3988 16.7268 24.3988ZM10.5527 21.7908C10.5527 21.2385 10.105 20.7908 9.55267 20.7908C9.00039 20.7908 8.55267 21.2385 8.55267 21.7908V26.3659C8.55267 26.8724 8.14213 27.2829 7.63571 27.2829C7.12929 27.2829 6.71875 26.8724 6.71875 26.3659V26.0971C6.71875 25.5448 6.27103 25.0971 5.71875 25.0971C5.16647 25.0971 4.71875 25.5448 4.71875 26.0971V26.3659C4.71875 27.9769 6.02472 29.2829 7.63571 29.2829C9.2467 29.2829 10.5527 27.9769 10.5527 26.3659V21.7908ZM21.3936 24.8829C21.3936 22.4529 23.3635 20.4829 25.7936 20.4829H27.716C28.2683 20.4829 28.716 20.9306 28.716 21.4829C28.716 22.0352 28.2683 22.4829 27.716 22.4829H25.7936C24.4681 22.4829 23.3936 23.5574 23.3936 24.8829C23.3936 26.2084 24.4681 27.283 25.7936 27.283H26.716V26.011H25.6183C25.066 26.011 24.6183 25.5633 24.6183 25.011C24.6183 24.4587 25.066 24.011 25.6183 24.011H27.216C28.0444 24.011 28.716 24.6826 28.716 25.511V28.2565C28.716 28.8234 28.2564 29.283 27.6895 29.283H25.7936C23.3635 29.283 21.3936 27.313 21.3936 24.8829Z" fill="#1C1B1F"/>
</svg>
