<svg width="32" height="32" viewBox="0 0 32 32" fill="none" xmlns="http://www.w3.org/2000/svg">
<path fill-rule="evenodd" clip-rule="evenodd" d="M2.50146 1.00134C2.50146 0.449058 2.94918 0.00134277 3.50146 0.00134277H19.7768C20.0428 0.00134277 20.2978 0.107288 20.4854 0.295752L29.2079 9.05565C29.3945 9.24306 29.4993 9.49677 29.4993 9.76124V30.9987C29.4993 31.551 29.0515 31.9987 28.4993 31.9987H22.2476C21.6953 31.9987 21.2476 31.551 21.2476 30.9987C21.2476 30.4464 21.6953 29.9987 22.2476 29.9987H27.4993V10.6765H19.8617C19.3094 10.6765 18.8617 10.2287 18.8617 9.67646V2.00134H4.50146V15.9778C4.50146 16.5301 4.05375 16.9778 3.50146 16.9778C2.94918 16.9778 2.50146 16.5301 2.50146 15.9778V1.00134ZM20.8617 3.5741V8.67646H25.9685L20.8617 3.5741ZM18.8533 19.2027C18.4628 18.8121 17.8296 18.8121 17.4391 19.2027C17.0486 19.5932 17.0486 20.2263 17.4391 20.6169C17.8535 21.0313 18.1822 21.5232 18.4065 22.0647C18.6307 22.6061 18.7462 23.1864 18.7462 23.7725C18.7462 24.3585 18.6307 24.9388 18.4065 25.4803C18.1822 26.0217 17.8535 26.5137 17.4391 26.9281C17.0486 27.3186 17.0486 27.9518 17.4391 28.3423C17.8296 28.7328 18.4628 28.7328 18.8533 28.3423C19.4534 27.7422 19.9295 27.0297 20.2542 26.2456C20.579 25.4616 20.7462 24.6212 20.7462 23.7725C20.7462 22.9238 20.579 22.0834 20.2542 21.2993C19.9295 20.5152 19.4534 19.8028 18.8533 19.2027ZM6.60941 21.8829H6.52841C5.40896 21.8829 4.50146 22.7904 4.50146 23.9099C4.50146 25.0293 5.40896 25.9368 6.52841 25.9368H6.60941L6.60941 21.8829ZM8.60941 26.3568L8.60941 21.451L12.0705 18.6719V28.9842L8.60941 26.3568ZM14.0705 16.5866C14.0705 16.2018 13.8498 15.8512 13.5029 15.6849C13.156 15.5185 12.7444 15.5659 12.4444 15.8068L7.36787 19.8829H6.52841C4.30439 19.8829 2.50146 21.6859 2.50146 23.9099C2.50146 26.1339 4.30439 27.9368 6.52841 27.9368H7.38309L12.4659 31.7953C12.7684 32.0249 13.1749 32.0633 13.5151 31.8945C13.8554 31.7256 14.0705 31.3786 14.0705 30.9988V16.5866Z" fill="#111827"/>
</svg>
