<svg width="32" height="32" viewBox="0 0 32 32" fill="none" xmlns="http://www.w3.org/2000/svg">
<path fill-rule="evenodd" clip-rule="evenodd" d="M2.50049 1.00098C2.50049 0.448692 2.9482 0.000976562 3.50049 0.000976562H19.7763C20.0422 0.000976562 20.2972 0.106922 20.4849 0.295386L29.2076 9.05552C29.3942 9.24293 29.499 9.49664 29.499 9.76111V30.9991C29.499 31.5514 29.0512 31.9991 28.499 31.9991H22.2471C21.6948 31.9991 21.2471 31.5514 21.2471 30.9991C21.2471 30.4469 21.6948 29.9991 22.2471 29.9991H27.499V10.6763H19.8612C19.3089 10.6763 18.8612 10.2286 18.8612 9.67635V2.00098H4.50049V15.9779C4.50049 16.5302 4.05277 16.9779 3.50049 16.9779C2.9482 16.9779 2.50049 16.5302 2.50049 15.9779V1.00098ZM20.8612 3.57377V8.67635H25.9682L20.8612 3.57377ZM9.52852 23.411C10.1591 21.536 11.9315 20.1877 14.0161 20.1877C16.6302 20.1877 18.7494 22.3068 18.7494 24.921C18.7494 27.6117 16.5566 29.9991 14.0161 29.9991H7.53822C5.86939 29.9991 4.51654 28.6463 4.51654 26.9774C4.51654 25.3716 5.76928 24.0583 7.35082 23.9615C7.306 24.2752 7.28285 24.5956 7.28285 24.921C7.28285 25.4733 7.73056 25.921 8.28285 25.921C8.83513 25.921 9.28285 25.4733 9.28285 24.921C9.28285 24.3913 9.36946 23.8839 9.52852 23.411ZM7.53822 21.9558C7.68043 21.9558 7.82142 21.9617 7.96092 21.9734C9.05359 19.7328 11.3534 18.1877 14.0161 18.1877C17.7348 18.1877 20.7494 21.2023 20.7494 24.921C20.7494 28.563 17.8085 31.9991 14.0161 31.9991H7.53822C4.76482 31.9991 2.51654 29.7508 2.51654 26.9774C2.51654 24.2041 4.76482 21.9558 7.53822 21.9558Z" fill="#111827"/>
</svg>
