<svg width="33" height="33" viewBox="0 0 33 33" fill="none" xmlns="http://www.w3.org/2000/svg">
<path fill-rule="evenodd" clip-rule="evenodd" d="M25.96 28.2829H7.95996C7.40768 28.2829 6.95996 27.8352 6.95996 27.2829V5.2829C6.95996 4.73061 7.40768 4.2829 7.95996 4.2829H19.5659C19.8319 4.2829 20.0869 4.38884 20.2745 4.57731L26.6686 10.9988C26.8552 11.1862 26.96 11.4399 26.96 11.7044V27.2829C26.96 27.8352 26.5122 28.2829 25.96 28.2829ZM14.1315 20.6971C13.741 21.0876 13.741 21.7208 14.1315 22.1113C14.5221 22.5019 15.1552 22.5019 15.5457 22.1113L16.9601 20.697L18.3744 22.1113C18.7649 22.5018 19.3981 22.5018 19.7886 22.1113C20.1791 21.7208 20.1791 21.0876 19.7886 20.6971L18.3743 19.2828L19.7884 17.8687C20.1789 17.4782 20.1789 16.845 19.7884 16.4545C19.3979 16.0639 18.7647 16.0639 18.3742 16.4545L16.9601 17.8686L15.546 16.4545C15.1554 16.0639 14.5223 16.0639 14.1318 16.4545C13.7412 16.845 13.7412 17.4781 14.1318 17.8687L15.5459 19.2828L14.1315 20.6971ZM20.0493 5.50123V10.7236C20.0493 10.9998 20.2732 11.2236 20.5493 11.2236H25.7767L20.0493 5.50123Z" fill="#1C1B1F"/>
</svg>
