<svg width="33" height="33" viewBox="0 0 33 33" fill="none" xmlns="http://www.w3.org/2000/svg">
<path fill-rule="evenodd" clip-rule="evenodd" d="M5.10823 18.4865L26.8115 18.4865C27.3638 18.4865 27.8115 18.0388 27.8115 17.4865L27.8116 10.8071C27.8116 10.5426 27.7068 10.2889 27.5202 10.1015L21.1262 3.67997C20.9385 3.49151 20.6835 3.38556 20.4176 3.38556L5.10835 3.38558C4.55607 3.38558 4.10835 3.83329 4.10835 4.38557L4.10822 17.4865C4.10822 18.0388 4.55594 18.4865 5.10823 18.4865ZM20.901 9.82629V4.60389L26.6283 10.3263H21.401C21.1248 10.3263 20.901 10.1024 20.901 9.82629ZM17.9961 20.694C18.4441 20.5848 18.9086 20.796 19.1208 21.2054L20.612 24.083L22.1669 21.1919C22.3839 20.7883 22.8475 20.5839 23.2918 20.6958C23.7362 20.8077 24.0476 21.2073 24.0476 21.6655V28.0245C24.0476 28.5768 23.5999 29.0245 23.0476 29.0245C22.4953 29.0245 22.0476 28.5768 22.0476 28.0245V25.6363L21.4764 26.6985C21.3008 27.025 20.9588 27.2276 20.588 27.2248C20.2172 27.2219 19.8784 27.0142 19.7078 26.6849L19.2329 25.7685V28.0245C19.2329 28.5768 18.7852 29.0245 18.2329 29.0245C17.6806 29.0245 17.2329 28.5768 17.2329 28.0245V21.6655C17.2329 21.2045 17.5482 20.8031 17.9961 20.694ZM4.95996 20.6655C5.51225 20.6655 5.95996 21.1132 5.95996 21.6655V23.845H7.86035V21.6655C7.86035 21.1132 8.30807 20.6655 8.86035 20.6655C9.41264 20.6655 9.86035 21.1132 9.86035 21.6655V24.8316L9.86044 24.845L9.86035 24.8583V28.0246C9.86035 28.5769 9.41264 29.0246 8.86035 29.0246C8.30807 29.0246 7.86035 28.5769 7.86035 28.0246V25.845H5.95996V28.0246C5.95996 28.5769 5.51225 29.0246 4.95996 29.0246C4.40768 29.0246 3.95996 28.5769 3.95996 28.0246V24.845V21.6655C3.95996 21.1132 4.40768 20.6655 4.95996 20.6655ZM11.665 20.6655C11.1128 20.6655 10.665 21.1132 10.665 21.6655C10.665 22.2178 11.1128 22.6655 11.665 22.6655H12.5347V28.0246C12.5347 28.5768 12.9824 29.0246 13.5347 29.0246C14.087 29.0246 14.5347 28.5768 14.5347 28.0246V22.6655H15.4045C15.9568 22.6655 16.4045 22.2178 16.4045 21.6655C16.4045 21.1132 15.9568 20.6655 15.4045 20.6655H13.5347H11.665ZM27.1553 21.6655C27.1553 21.1132 26.7076 20.6655 26.1553 20.6655C25.603 20.6655 25.1553 21.1132 25.1553 21.6655V28.0245C25.1553 28.5768 25.603 29.0245 26.1553 29.0245H28.9599C29.5121 29.0245 29.9599 28.5768 29.9599 28.0245C29.9599 27.4723 29.5121 27.0245 28.9599 27.0245H27.1553V21.6655Z" fill="#1C1B1F"/>
</svg>
