<svg width="33" height="33" viewBox="0 0 33 33" fill="none" xmlns="http://www.w3.org/2000/svg">
<path fill-rule="evenodd" clip-rule="evenodd" d="M19.4736 4.28296H7.86768C7.31539 4.28296 6.86768 4.73068 6.86768 5.28296V15.2652C6.86768 15.8175 7.31539 16.2652 7.86768 16.2652H20.8659C21.4182 16.2652 21.8659 16.7129 21.8659 17.2652V27.283C21.8659 27.8352 22.3136 28.283 22.8659 28.283H25.8677C26.42 28.283 26.8677 27.8352 26.8677 27.283V11.7045C26.8677 11.44 26.7629 11.1863 26.5763 10.9989L20.1822 4.57737C19.9946 4.3889 19.7396 4.28296 19.4736 4.28296ZM19.957 11.4187V5.69865L25.682 11.4187H19.957ZM5.95996 22.283C5.95996 21.7307 6.40768 21.283 6.95996 21.283H9.20996H11.46C12.0122 21.283 12.46 21.7307 12.46 22.283C12.46 22.8352 12.0122 23.283 11.46 23.283H10.21V28.283C10.21 28.8352 9.76225 29.283 9.20996 29.283C8.65768 29.283 8.20996 28.8352 8.20996 28.283V23.283H6.95996C6.40768 23.283 5.95996 22.8352 5.95996 22.283ZM20.2647 22.9236C20.6182 22.4992 20.5607 21.8687 20.1364 21.5152C19.7121 21.1617 19.0815 21.2191 18.728 21.6434L16.96 23.7658L15.1919 21.6434C14.8384 21.2191 14.2079 21.1617 13.7835 21.5152C13.3592 21.8687 13.3018 22.4992 13.6553 22.9236L15.6584 25.3281L13.6553 27.7327C13.3018 28.157 13.3592 28.7876 13.7835 29.1411C14.2079 29.4945 14.8384 29.4371 15.1919 29.0128L16.96 26.8905L18.728 29.0128C19.0815 29.4371 19.7121 29.4945 20.1364 29.1411C20.5607 28.7876 20.6182 28.157 20.2647 27.7327L18.2615 25.3281L20.2647 22.9236Z" fill="#1C1B1F"/>
</svg>
