<svg width="33" height="33" viewBox="0 0 33 33" fill="none" xmlns="http://www.w3.org/2000/svg">
<path fill-rule="evenodd" clip-rule="evenodd" d="M26.96 27.2829C26.96 27.8352 26.5122 28.2829 25.96 28.2829H7.95996C7.40768 28.2829 6.95996 27.8352 6.95996 27.2829V5.2829C6.95996 4.73061 7.40768 4.2829 7.95996 4.2829H19.5659C19.8319 4.2829 20.0869 4.38884 20.2745 4.57731L26.6686 10.9988C26.8552 11.1862 26.96 11.4399 26.96 11.7044V27.2829ZM19.9434 5.71666V10.9367C19.9434 11.2128 20.1672 11.4367 20.4434 11.4367H25.6684L19.9434 5.71666ZM17.96 23.0863C17.96 23.6386 17.5122 24.0863 16.96 24.0863C16.4077 24.0863 15.96 23.6386 15.96 23.0863V17.697L14.0553 19.6017C13.6647 19.9922 13.0316 19.9922 12.641 19.6017C12.2505 19.2112 12.2505 18.578 12.641 18.1875L16.2527 14.5758C16.3731 14.4554 16.5166 14.3721 16.6689 14.326C16.7306 14.3072 16.7949 14.2943 16.861 14.2878C16.9145 14.2825 16.9683 14.2815 17.022 14.2848C17.1477 14.2925 17.2672 14.3235 17.3762 14.3734C17.4457 14.4052 17.5122 14.4454 17.5744 14.4939C17.6102 14.5218 17.644 14.5521 17.6756 14.5845L21.2786 18.1875C21.6691 18.578 21.6691 19.2112 21.2786 19.6017C20.8881 19.9922 20.2549 19.9922 19.8644 19.6017L17.96 17.6973V23.0863Z" fill="#1C1B1F"/>
</svg>
