<svg width="32" height="32" viewBox="0 0 32 32" fill="none" xmlns="http://www.w3.org/2000/svg">
<path fill-rule="evenodd" clip-rule="evenodd" d="M2.60498 18.3416L29.3942 18.3416C29.9465 18.3416 30.3942 17.8939 30.3942 17.3416L30.3944 8.9258C30.3944 8.66132 30.2896 8.40761 30.103 8.2202L22.2116 0.294898C22.0239 0.106434 21.7689 0.000488281 21.5029 0.000488281L2.60514 0.000514918C2.05286 0.00051568 1.60514 0.448224 1.60514 1.0005L1.60498 17.3416C1.60498 17.8939 2.05269 18.3416 2.60498 18.3416ZM22.001 7.93058V1.48034L28.9572 8.43058H22.501C22.2248 8.43058 22.001 8.20673 22.001 7.93058ZM17.221 22.9677C17.669 22.8585 18.1335 23.0698 18.3457 23.4792L20.0976 26.8598L21.923 23.4656C22.14 23.0621 22.6036 22.8577 23.0479 22.9696C23.4923 23.0815 23.8037 23.4811 23.8037 23.9393V30.9999C23.8037 31.5522 23.356 31.9999 22.8037 31.9999C22.2514 31.9999 21.8037 31.5522 21.8037 30.9999V27.9101L20.962 29.4752C20.7864 29.8018 20.4444 30.0044 20.0736 30.0016C19.7028 29.9987 19.364 29.7909 19.1934 29.4617L18.4578 28.0423V30.9999C18.4578 31.5522 18.0101 31.9999 17.4578 31.9999C16.9055 31.9999 16.4578 31.5522 16.4578 30.9999V23.9393C16.4578 23.4782 16.7731 23.0769 17.221 22.9677ZM2.71988 22.9393C3.27216 22.9393 3.71988 23.387 3.71988 23.9393V26.4695H6.05098V23.9393C6.05098 23.387 6.49869 22.9393 7.05098 22.9393C7.60326 22.9393 8.05098 23.387 8.05098 23.9393V30.9999C8.05098 31.5522 7.60326 31.9999 7.05098 31.9999C6.49869 31.9999 6.05098 31.5522 6.05098 30.9999V28.4695H3.71988V30.9999C3.71988 31.5522 3.27216 31.9999 2.71988 31.9999C2.16759 31.9999 1.71988 31.5522 1.71988 30.9999V27.4695V23.9393C1.71988 23.387 2.16759 22.9393 2.71988 22.9393ZM10.1651 22.9393C9.61278 22.9393 9.16507 23.387 9.16507 23.9393C9.16507 24.4916 9.61278 24.9393 10.1651 24.9393H11.2415V30.9999C11.2415 31.5522 11.6892 31.9999 12.2415 31.9999C12.7937 31.9999 13.2415 31.5522 13.2415 30.9999V24.9393H14.3171C14.8694 24.9393 15.3171 24.4916 15.3171 23.9393C15.3171 23.387 14.8694 22.9393 14.3171 22.9393H12.2415H10.1651ZM27.2534 23.9393C27.2534 23.387 26.8057 22.9393 26.2534 22.9393C25.7011 22.9393 25.2534 23.387 25.2534 23.9393V30.9999C25.2534 31.5522 25.7011 31.9999 26.2534 31.9999H29.3674C29.9197 31.9999 30.3674 31.5522 30.3674 30.9999C30.3674 30.4476 29.9197 29.9999 29.3674 29.9999H27.2534V23.9393Z" fill="#111827"/>
</svg>
