<svg width="32" height="32" viewBox="0 0 32 32" fill="none" xmlns="http://www.w3.org/2000/svg">
<path fill-rule="evenodd" clip-rule="evenodd" d="M28.3337 32H3.66699C3.11471 32 2.66699 31.5523 2.66699 31V1C2.66699 0.447715 3.11471 0 3.66699 0H19.6134C19.8794 0 20.1344 0.105946 20.322 0.294409L29.0423 9.05208C29.2289 9.2395 29.3337 9.4932 29.3337 9.75767V31C29.3337 31.5523 28.8859 32 28.3337 32ZM19.9784 1.91169V9.03836C19.9784 9.3145 20.2022 9.53836 20.4784 9.53836H27.6116L19.9784 1.91169ZM17.0005 14.6667C17.0005 14.1144 16.5528 13.6667 16.0005 13.6667C15.4482 13.6667 15.0005 14.1144 15.0005 14.6667V22.6572L11.8918 19.5485C11.5013 19.158 10.8682 19.158 10.4776 19.5485C10.0871 19.9391 10.0871 20.5722 10.4776 20.9628L15.2932 25.7783C15.4172 25.9023 15.5657 25.9869 15.723 26.0322C15.7795 26.0485 15.8381 26.0599 15.8982 26.066C15.9569 26.072 16.016 26.0728 16.0748 26.0685C16.2018 26.0591 16.3223 26.0261 16.4317 25.9737C16.5389 25.9224 16.6355 25.8525 16.7174 25.7683L21.523 20.9628C21.9135 20.5722 21.9135 19.9391 21.523 19.5485C21.1325 19.158 20.4993 19.158 20.1088 19.5485L17.0005 22.6568V14.6667Z" fill="#111827"/>
</svg>
