<svg width="33" height="33" viewBox="0 0 33 33" fill="none" xmlns="http://www.w3.org/2000/svg">
<path fill-rule="evenodd" clip-rule="evenodd" d="M6.10823 18.3667L27.8115 18.3667C28.3638 18.3667 28.8115 17.919 28.8115 17.3667L28.8116 10.6873C28.8116 10.4228 28.7068 10.1691 28.5202 9.98164L22.1262 3.56016C21.9385 3.37169 21.6835 3.26575 21.4176 3.26575L6.10835 3.26577C5.55607 3.26577 5.10835 3.71348 5.10835 4.26576L5.10822 17.3667C5.10822 17.919 5.55594 18.3667 6.10823 18.3667ZM21.901 9.70648V4.48408L27.6283 10.2065H22.401C22.1248 10.2065 21.901 9.98262 21.901 9.70648ZM9.804 20.7356C10.3563 20.7356 10.804 21.1833 10.804 21.7356V26.3496C10.804 27.9696 9.49073 29.2829 7.87075 29.2829C6.25076 29.2829 4.9375 27.9696 4.9375 26.3496V26.0785C4.9375 25.5262 5.38522 25.0785 5.9375 25.0785C6.48978 25.0785 6.9375 25.5262 6.9375 26.0785V26.3496C6.9375 26.865 7.35533 27.2829 7.87075 27.2829C8.38617 27.2829 8.804 26.8651 8.804 26.3496V21.7356C8.804 21.1833 9.25171 20.7356 9.804 20.7356ZM22.6354 21.6705C22.3041 21.2287 21.6773 21.1391 21.2354 21.4705C20.7936 21.8019 20.7041 22.4287 21.0354 22.8705L22.8401 25.2767L21.0354 27.6829C20.7041 28.1247 20.7936 28.7515 21.2354 29.0829C21.6773 29.4143 22.3041 29.3247 22.6354 28.8829L24.0901 26.9434L25.5448 28.8829C25.8761 29.3247 26.5029 29.4143 26.9448 29.0829C27.3866 28.7515 27.4761 28.1247 27.1448 27.6829L25.3401 25.2767L27.1448 22.8705C27.4761 22.4287 27.3866 21.8019 26.9448 21.4705C26.5029 21.1391 25.8761 21.2287 25.5448 21.6705L24.0901 23.61L22.6354 21.6705ZM15.1026 20.7356C13.6464 20.7356 12.4658 21.9161 12.4658 23.3724C12.4658 24.7263 13.4862 25.8418 14.7998 25.992C14.86 26.0034 14.9221 26.0093 14.9856 26.0093H16.537C16.8887 26.0093 17.1738 26.2944 17.1738 26.6461C17.1738 26.9978 16.8887 27.2829 16.537 27.2829H13.4658C12.9135 27.2829 12.4658 27.7306 12.4658 28.2829C12.4658 28.8352 12.9135 29.2829 13.4658 29.2829H16.537C17.9933 29.2829 19.1738 28.1024 19.1738 26.6461C19.1738 25.2547 18.0962 24.1151 16.73 24.0162C16.691 24.0116 16.6514 24.0092 16.6111 24.0092H15.1026C14.7509 24.0092 14.4658 23.7241 14.4658 23.3724C14.4658 23.0207 14.7509 22.7356 15.1026 22.7356H18.1739C18.7262 22.7356 19.1739 22.2879 19.1739 21.7356C19.1739 21.1833 18.7262 20.7356 18.1739 20.7356H15.1026Z" fill="#1C1B1F"/>
</svg>
