<svg width="32" height="32" viewBox="0 0 32 32" fill="none" xmlns="http://www.w3.org/2000/svg">
<path fill-rule="evenodd" clip-rule="evenodd" d="M28.3337 32H3.66699C3.11471 32 2.66699 31.5523 2.66699 31V1C2.66699 0.447715 3.11471 0 3.66699 0H19.6134C19.8794 0 20.1344 0.105946 20.322 0.294409L29.0423 9.05208C29.2289 9.2395 29.3337 9.4932 29.3337 9.75767V31C29.3337 31.5523 28.8859 32 28.3337 32ZM19.9784 1.91169V9.03836C19.9784 9.3145 20.2022 9.53836 20.4784 9.53836H27.6116L19.9784 1.91169ZM17.0005 25.0712C17.0005 25.6235 16.5528 26.0712 16.0005 26.0712C15.4482 26.0712 15.0005 25.6235 15.0005 25.0712L15.0005 17.0807L11.8918 20.1894C11.5013 20.5799 10.8682 20.5799 10.4776 20.1894C10.0871 19.7988 10.0871 19.1657 10.4776 18.7751L15.2932 13.9596C15.4236 13.8291 15.5811 13.7423 15.7476 13.699C15.7865 13.6888 15.8264 13.681 15.867 13.6755C15.9359 13.6663 16.0056 13.6643 16.0748 13.6694C16.2019 13.6788 16.3224 13.7119 16.4319 13.7643C16.539 13.8156 16.6356 13.8854 16.7174 13.9696L21.523 18.7751C21.9135 19.1657 21.9135 19.7988 21.523 20.1894C21.1325 20.5799 20.4993 20.5799 20.1088 20.1894L17.0005 17.0811L17.0005 25.0712Z" fill="#111827"/>
</svg>
