<svg width="33" height="33" viewBox="0 0 33 33" fill="none" xmlns="http://www.w3.org/2000/svg">
<path fill-rule="evenodd" clip-rule="evenodd" d="M18.4736 4.28296H6.86768C6.31539 4.28296 5.86768 4.73068 5.86768 5.28296V15.2652C5.86768 15.8175 6.31539 16.2652 6.86768 16.2652H19.8659C20.4182 16.2652 20.8659 16.7129 20.8659 17.2652V27.283C20.8659 27.8352 21.3136 28.283 21.8659 28.283H24.8677C25.42 28.283 25.8677 27.8352 25.8677 27.283V11.7045C25.8677 11.44 25.7629 11.1863 25.5763 10.9989L19.1822 4.57737C18.9946 4.3889 18.7396 4.28296 18.4736 4.28296ZM18.957 11.4187V5.69865L24.682 11.4187H18.957ZM15.0065 19.0785C14.8344 18.7647 14.5077 18.5669 14.1499 18.5597C13.7921 18.5524 13.4577 18.737 13.2731 19.0435L11.2725 22.3655L10.4958 21.1715C10.3046 20.8776 9.97328 20.7053 9.62278 20.7175C9.27228 20.7297 8.95379 20.9246 8.78345 21.2312L5.13515 27.7973C4.96305 28.107 4.96771 28.4847 5.14739 28.7901C5.32708 29.0955 5.65495 29.283 6.00928 29.283H18.9157C19.2691 29.283 19.5962 29.0965 19.7762 28.7924C19.9563 28.4883 19.9624 28.1118 19.7925 27.802L15.0065 19.0785ZM12.1619 24.7654L14.0894 21.5649L17.2265 27.283H7.70889L9.72506 23.6543L10.467 24.7948C10.6549 25.0836 10.9782 25.2553 11.3226 25.2493C11.6671 25.2434 11.9842 25.0605 12.1619 24.7654Z" fill="#1C1B1F"/>
</svg>
