<svg width="33" height="33" viewBox="0 0 33 33" fill="none" xmlns="http://www.w3.org/2000/svg">
<path fill-rule="evenodd" clip-rule="evenodd" d="M6.10823 18.3668L27.8115 18.3668C28.3638 18.3668 28.8115 17.9191 28.8115 17.3668L28.8116 10.6874C28.8116 10.4229 28.7068 10.1692 28.5202 9.98177L22.1262 3.56028C21.9385 3.37182 21.6835 3.26587 21.4176 3.26587L6.10835 3.26589C5.55607 3.26589 5.10835 3.7136 5.10835 4.26588L5.10822 17.3668C5.10822 17.9191 5.55594 18.3668 6.10823 18.3668ZM21.901 9.7066V4.4842L27.6283 10.2066H22.401C22.1248 10.2066 21.901 9.98274 21.901 9.7066ZM6.02647 20.1873C5.46145 20.1873 5.00342 20.6453 5.00342 21.2103V25.2735V28.283C5.00342 28.8353 5.45113 29.283 6.00342 29.283C6.5557 29.283 7.00342 28.8353 7.00342 28.283V26.2735H8.59398C10.2746 26.2735 11.6371 24.911 11.6371 23.2304C11.6371 21.5497 10.2746 20.1873 8.59398 20.1873H6.02647ZM8.59398 24.2735H7.00342V22.1873H8.59398C9.17006 22.1873 9.63707 22.6543 9.63707 23.2304C9.63707 23.8064 9.17006 24.2735 8.59398 24.2735ZM21.46 21.283C21.46 20.7307 21.9077 20.283 22.46 20.283H24.71H26.96C27.5122 20.283 27.96 20.7307 27.96 21.283C27.96 21.8352 27.5122 22.283 26.96 22.283H25.71V28.283C25.71 28.8353 25.2622 29.283 24.71 29.283C24.1577 29.283 23.71 28.8353 23.71 28.283V22.283H22.46C21.9077 22.283 21.46 21.8352 21.46 21.283ZM13.3931 21.2103C13.3931 20.6453 13.8511 20.1873 14.4161 20.1873H16.9836C18.6643 20.1873 20.0267 21.5497 20.0267 23.2304C20.0267 24.911 18.6643 26.2735 16.9836 26.2735H15.3931V28.283C15.3931 28.8353 14.9454 29.283 14.3931 29.283C13.8408 29.283 13.3931 28.8353 13.3931 28.283V25.2735V21.2103ZM15.3931 24.2735H16.9836C17.5597 24.2735 18.0267 23.8064 18.0267 23.2304C18.0267 22.6543 17.5597 22.1873 16.9836 22.1873H15.3931V24.2735Z" fill="#1C1B1F"/>
</svg>
