<svg width="33" height="33" viewBox="0 0 33 33" fill="none" xmlns="http://www.w3.org/2000/svg">
<path fill-rule="evenodd" clip-rule="evenodd" d="M6.95996 3.2829C6.40768 3.2829 5.95996 3.73061 5.95996 4.2829V28.2829C5.95996 28.8352 6.40768 29.2829 6.95996 29.2829H26.96C27.5122 29.2829 27.96 28.8352 27.96 28.2829V11.2914C27.96 11.027 27.8552 10.7733 27.6686 10.5858L20.69 3.57731C20.5023 3.38884 20.2473 3.2829 19.9814 3.2829H6.95996ZM7.95996 27.2829V5.2829H19.0493V11.2236C19.0493 11.7759 19.497 12.2236 20.0493 12.2236H25.96V27.2829H7.95996ZM21.0493 10.2236V6.82368L24.4522 10.2236H21.0493ZM18.5947 15.5758C18.2041 15.9663 18.2041 16.5995 18.5947 16.99L21.4231 19.8184L18.5947 22.6469C18.2041 23.0374 18.2041 23.6705 18.5947 24.0611C18.9852 24.4516 19.6183 24.4516 20.0089 24.0611L23.5444 20.5255C23.9349 20.135 23.9349 19.5019 23.5444 19.1113L20.0089 15.5758C19.6183 15.1853 18.9852 15.1853 18.5947 15.5758ZM15.3253 16.99C15.7158 16.5995 15.7158 15.9663 15.3253 15.5758C14.9347 15.1853 14.3016 15.1853 13.9111 15.5758L10.3755 19.1113C9.985 19.5019 9.985 20.135 10.3755 20.5255L13.9111 24.0611C14.3016 24.4516 14.9347 24.4516 15.3253 24.0611C15.7158 23.6705 15.7158 23.0374 15.3253 22.6469L12.4968 19.8184L15.3253 16.99Z" fill="#1C1B1F"/>
</svg>
