<svg width="32" height="32" viewBox="0 0 32 32" fill="none" xmlns="http://www.w3.org/2000/svg">
<path fill-rule="evenodd" clip-rule="evenodd" d="M7.8202 0.140015C7.26791 0.140015 6.8202 0.58773 6.8202 1.14001V6.23995C6.8202 6.24666 6.82026 6.25334 6.82039 6.26002H3.7002C3.14791 6.26002 2.7002 6.70773 2.7002 7.26002V30.86C2.7002 31.4123 3.14791 31.86 3.7002 31.86H22.1802C22.7325 31.86 23.1802 31.4123 23.1802 30.86V27.7391C23.1948 27.7397 23.2095 27.74 23.2242 27.74H28.3002C28.8525 27.74 29.3002 27.2923 29.3002 26.74V8.61579C29.3002 8.35837 29.2009 8.11087 29.0231 7.9248L21.877 0.449028C21.6883 0.251658 21.4272 0.140015 21.1541 0.140015H7.8202ZM23.1802 25.741C23.1948 25.7403 23.2095 25.74 23.2242 25.74H27.3002V9.01686L20.7266 2.14001H8.8202V6.23995C8.8202 6.24666 8.82013 6.25334 8.82 6.26002H15.6066C15.8797 6.26002 16.1408 6.37166 16.3295 6.56903L22.9031 13.4459C23.0809 13.6319 23.1802 13.8794 23.1802 14.1369V25.741ZM9.10008 19.34C8.5478 19.34 8.10008 19.7877 8.10008 20.34C8.10008 20.8923 8.5478 21.34 9.10008 21.34H16.7801C17.3324 21.34 17.7801 20.8923 17.7801 20.34C17.7801 19.7877 17.3324 19.34 16.7801 19.34H9.10008ZM9.10008 24.46C8.5478 24.46 8.10008 24.9077 8.10008 25.46C8.10008 26.0123 8.5478 26.46 9.10008 26.46H16.7801C17.3324 26.46 17.7801 26.0123 17.7801 25.46C17.7801 24.9077 17.3324 24.46 16.7801 24.46H9.10008Z" fill="#111827"/>
</svg>
