<svg width="33" height="33" viewBox="0 0 33 33" fill="none" xmlns="http://www.w3.org/2000/svg">
<path fill-rule="evenodd" clip-rule="evenodd" d="M26.96 5.78296C26.96 5.23067 26.5122 4.78296 25.96 4.78296H7.95996C7.40768 4.78296 6.95996 5.23067 6.95996 5.78296V27.783C6.95996 28.3352 7.40768 28.783 7.95996 28.783H25.96C26.5122 28.783 26.96 28.3352 26.96 27.783V5.78296ZM12.96 10.283C12.96 11.1114 12.2884 11.783 11.46 11.783C10.6315 11.783 9.95996 11.1114 9.95996 10.283C9.95996 9.45453 10.6315 8.78296 11.46 8.78296C12.2884 8.78296 12.96 9.45453 12.96 10.283ZM12.96 23.283C12.96 24.1114 12.2884 24.783 11.46 24.783C10.6315 24.783 9.95996 24.1114 9.95996 23.283C9.95996 22.4545 10.6315 21.783 11.46 21.783C12.2884 21.783 12.96 22.4545 12.96 23.283ZM11.46 18.283C12.2884 18.283 12.96 17.6114 12.96 16.783C12.96 15.9545 12.2884 15.283 11.46 15.283C10.6315 15.283 9.95996 15.9545 9.95996 16.783C9.95996 17.6114 10.6315 18.283 11.46 18.283Z" fill="#1C1B1F"/>
</svg>
