<svg width="32" height="33" viewBox="0 0 32 33" fill="none" xmlns="http://www.w3.org/2000/svg">
<path fill-rule="evenodd" clip-rule="evenodd" d="M23.4996 3.00073H16H8.50051H1.00098C0.448692 3.00073 0.000976562 3.44845 0.000976562 4.00073V9.00042V23.9995V28.9992C0.000976562 29.5515 0.448692 29.9992 1.00098 29.9992H16H30.9991C31.5514 29.9992 31.9991 29.5515 31.9991 28.9992V23.9995V9.00042V4.00073C31.9991 3.44845 31.5514 3.00073 30.9991 3.00073H23.4996ZM2.00098 5.00073H7.50051V8.00042H2.00098V5.00073ZM2.00098 27.9992V24.9995H7.50051V27.9992H2.00098ZM15 27.9992H9.50051V24.9995H15V27.9992ZM22.4996 27.9992H17V24.9995H22.4996V27.9992ZM29.9991 27.9992H24.4996V24.9995H29.9991V27.9992ZM29.9991 5.00073V8.00042H24.4996V5.00073H29.9991ZM17 5.00073H22.4996V8.00042H17V5.00073ZM15 8.00042V5.00073H9.50051V8.00042H15Z" fill="#111827"/>
</svg>
