<svg width="32" height="32" viewBox="0 0 32 32" fill="none" xmlns="http://www.w3.org/2000/svg">
<path fill-rule="evenodd" clip-rule="evenodd" d="M0.0352989 9.26726C-0.107643 8.7338 0.20894 8.18546 0.742406 8.04252L28.9693 0.479147C29.5028 0.336205 30.0511 0.652787 30.194 1.18625L31.9645 7.79376C32.1075 8.32723 31.7909 8.87557 31.2574 9.01851L6.63677 15.6156H30.9942C31.5465 15.6156 31.9942 16.0633 31.9942 16.6156V30.5552C31.9942 31.1075 31.5465 31.5552 30.9942 31.5552H2.63325C2.08096 31.5552 1.63325 31.1075 1.63325 30.5552V15.6156H1.73633L0.0352989 9.26726ZM2.22597 9.71555L3.47881 14.3912L13.0845 11.8174L7.16566 8.39197L2.22597 9.71555ZM29.7738 7.34548L24.6488 8.71873L18.7217 5.29553L28.521 2.66982L29.7738 7.34548Z" fill="#111827"/>
</svg>
