<svg width="33" height="33" viewBox="0 0 33 33" fill="none" xmlns="http://www.w3.org/2000/svg">
<path fill-rule="evenodd" clip-rule="evenodd" d="M11.96 7.78296H15.96V9.78296H11.96V7.78296ZM5.95996 7.78296H9.95996V9.78296H5.95996V7.78296ZM9.95996 23.783H5.95996V25.783H9.95996V23.783ZM11.96 23.783V25.783H15.96V23.783H11.96ZM17.96 23.783V25.783H21.96V23.783H17.96ZM23.96 23.783V25.783H27.96V23.783H23.96ZM23.96 9.78296H27.96V7.78296H23.96V9.78296ZM21.96 9.78296V7.78296H17.96V9.78296H21.96ZM28.96 5.78296H22.96H16.96H10.96H4.95996C4.40768 5.78296 3.95996 6.23067 3.95996 6.78296V10.783V22.783V26.783C3.95996 27.3352 4.40768 27.783 4.95996 27.783H10.96H16.96H22.96H28.96C29.5122 27.783 29.96 27.3352 29.96 26.783V22.783V10.783V6.78296C29.96 6.23067 29.5122 5.78296 28.96 5.78296Z" fill="#1C1B1F"/>
</svg>
