<svg width="33" height="33" viewBox="0 0 33 33" fill="none" xmlns="http://www.w3.org/2000/svg">
<path fill-rule="evenodd" clip-rule="evenodd" d="M3.9938 10.7406C3.85085 10.2072 4.16744 9.65884 4.7009 9.5159L26.5588 3.65908C27.0923 3.51614 27.6406 3.83272 27.7836 4.36619L29.1546 9.48282C29.2975 10.0163 28.9809 10.5646 28.4475 10.7076L10.1947 15.5984H27.9601C28.5123 15.5984 28.9601 16.0461 28.9601 16.5984V26.9415C28.9601 27.4938 28.5123 27.9415 27.9601 27.9415H6.44957C5.89729 27.9415 5.44957 27.4938 5.44957 26.9415V16.0718C5.41387 16.0052 5.3852 15.9334 5.36479 15.8573L3.9938 10.7406ZM6.18447 11.1889L7.03782 14.3737L14.0406 12.4973L10.009 10.1641L6.18447 11.1889ZM26.9639 9.03453L22.9952 10.0979L18.958 7.76627L26.1106 5.84975L26.9639 9.03453Z" fill="#1C1B1F"/>
</svg>
