<svg width="32" height="33" viewBox="0 0 32 33" fill="none" xmlns="http://www.w3.org/2000/svg">
<path fill-rule="evenodd" clip-rule="evenodd" d="M29.3337 1.5C29.3337 0.947715 28.8859 0.5 28.3337 0.5H3.66699C3.11471 0.5 2.66699 0.947715 2.66699 1.5V31.5C2.66699 32.0523 3.11471 32.5 3.66699 32.5H28.3337C28.8859 32.5 29.3337 32.0523 29.3337 31.5V1.5ZM10.667 7.83333C10.667 8.9379 9.77156 9.83333 8.66699 9.83333C7.56242 9.83333 6.66699 8.9379 6.66699 7.83333C6.66699 6.72876 7.56242 5.83333 8.66699 5.83333C9.77156 5.83333 10.667 6.72876 10.667 7.83333ZM10.667 25.1667C10.667 26.2713 9.77156 27.1667 8.66699 27.1667C7.56242 27.1667 6.66699 26.2713 6.66699 25.1667C6.66699 24.0622 7.56242 23.1667 8.66699 23.1667C9.77156 23.1667 10.667 24.0622 10.667 25.1667ZM8.66699 18.5001C9.77156 18.5001 10.667 17.6047 10.667 16.5001C10.667 15.3955 9.77156 14.5001 8.66699 14.5001C7.56242 14.5001 6.66699 15.3955 6.66699 16.5001C6.66699 17.6047 7.56242 18.5001 8.66699 18.5001Z" fill="#111827"/>
</svg>
