<svg width="34" height="34" viewBox="0 0 34 34" fill="none" xmlns="http://www.w3.org/2000/svg">
<path d="M4.91308 26.2715C6.33711 23.4058 7.0759 20.2484 7.07121 17.0484C7.06974 15.4933 7.41862 13.9579 8.09194 12.5562C8.76526 11.1545 9.74572 9.92245 10.9605 8.95162M17.4427 17.0484C17.4508 22.3199 16.1135 27.5062 13.5573 32.1164M12.2569 17.0484C12.2569 15.673 12.8032 14.354 13.7758 13.3815C14.7483 12.409 16.0673 11.8626 17.4427 11.8626C18.818 11.8626 20.137 12.409 21.1096 13.3815C22.0821 14.354 22.6284 15.673 22.6284 17.0484C22.636 22.3936 21.4585 27.674 19.1807 32.5096M32.1182 26.1232C32.7062 23.134 33.0015 20.0946 33 17.0481C33 12.922 31.3609 8.96494 28.4433 6.04737C25.5258 3.1298 21.5687 1.49072 17.4426 1.49072C13.3166 1.49072 9.35948 3.1298 6.44191 6.04737C3.52433 8.96494 1.88526 12.922 1.88526 17.0481C1.88719 18.8145 1.58781 20.5682 1 22.2339M11.7383 22.2339C11.1849 24.9599 10.1935 27.5784 8.80274 29.9874M16.1462 6.75707C17.606 6.5745 19.0879 6.70431 20.4937 7.13792C21.8995 7.57153 23.1971 8.29902 24.3004 9.27216C25.4038 10.2453 26.2876 11.4419 26.8934 12.7825C27.4992 14.1231 27.8131 15.5773 27.8142 17.0484C27.8146 18.782 27.7074 20.5139 27.4933 22.2341M26.5073 27.4197C26.2604 28.3789 25.9805 29.3242 25.6676 30.2556" stroke="#111827" stroke-width="2" stroke-linecap="round" stroke-linejoin="round"/>
</svg>
