<svg width="33" height="33" viewBox="0 0 33 33" fill="none" xmlns="http://www.w3.org/2000/svg">
<path d="M7.89477 23.2364C8.96279 21.0872 9.51689 18.7191 9.51337 16.3191C9.51227 15.1528 9.77393 14.0013 10.2789 12.95C10.7839 11.8987 11.5192 10.9747 12.4303 10.2466M17.292 16.3191C17.2981 20.2727 16.2951 24.1625 14.3779 27.6202M13.4026 16.3191C13.4026 15.2876 13.8124 14.2984 14.5418 13.569C15.2712 12.8396 16.2604 12.4298 17.292 12.4298C18.3235 12.4298 19.3127 12.8396 20.0421 13.569C20.7715 14.2984 21.1813 15.2876 21.1813 16.3191C21.187 20.328 20.3039 24.2883 18.5955 27.915M28.2986 23.1253C28.7396 20.8833 28.9611 18.6038 28.96 16.3189C28.96 13.2244 27.7306 10.2565 25.5425 8.06836C23.3543 5.88019 20.3865 4.65088 17.2919 4.65088C14.1974 4.65088 11.2296 5.88019 9.04139 8.06836C6.85321 10.2565 5.6239 13.2244 5.6239 16.3189C5.62536 17.6437 5.40082 18.959 4.95996 20.2083M13.0137 20.2082C12.5986 22.2528 11.8551 24.2166 10.812 26.0234M16.3196 8.60064C17.4145 8.46371 18.5259 8.56107 19.5803 8.88628C20.6346 9.21148 21.6078 9.7571 22.4353 10.487C23.2628 11.2168 23.9257 12.1142 24.38 13.1197C24.8344 14.1252 25.0698 15.2158 25.0706 16.3191C25.0709 17.6193 24.9905 18.9182 24.8299 20.2084M24.0904 24.0976C23.9053 24.817 23.6953 25.526 23.4607 26.2246" stroke="#1C1B1F" stroke-width="2" stroke-linecap="round" stroke-linejoin="round"/>
</svg>
