<svg width="34" height="34" viewBox="0 0 34 34" fill="none" xmlns="http://www.w3.org/2000/svg">
<path d="M25.3471 17.2406C25.3534 22.2277 24.382 27.1677 22.4877 31.781M23.3978 12.1381C22.3645 10.983 21.0047 10.1689 19.4986 9.8034C17.9924 9.43795 16.4107 9.53841 14.9629 10.0915C13.5151 10.6446 12.2693 11.6242 11.3904 12.9008C10.5115 14.1774 10.0409 15.6908 10.0409 17.2406C10.0469 21.1302 9.06021 24.9569 7.17418 28.3586M12.5918 2.80556C14.9008 1.99175 17.3712 1.74329 19.796 2.08099C22.2208 2.4187 24.5294 3.33274 26.5281 4.7465C28.5269 6.16025 30.1576 8.03254 31.2837 10.2064C32.4097 12.3803 32.9983 14.7924 33 17.2406C33.0021 20.6737 32.6205 24.0963 31.8622 27.4446M1 23.6179C1.91746 21.6172 2.39092 19.4415 2.38786 17.2404C2.38542 15.0865 2.83876 12.9564 3.71808 10.9902C4.5974 9.0239 5.8828 7.26594 7.48984 5.83177M14.9164 29.9957C14.593 30.7002 14.2441 31.39 13.8696 32.0649M17.6921 17.2403C17.694 19.8218 17.37 22.3931 16.7277 24.8934" stroke="#111827" stroke-width="2" stroke-linecap="round" stroke-linejoin="round"/>
</svg>
