<svg width="32" height="33" viewBox="0 0 32 33" fill="none" xmlns="http://www.w3.org/2000/svg">
<path fill-rule="evenodd" clip-rule="evenodd" d="M31.5 3.57715C31.7761 3.57715 32 3.80101 32 4.07715V19.4233C32 24.9461 27.5228 29.4233 22 29.4233H10C4.47715 29.4233 0 24.9462 0 19.4233V4.07715C0 3.80101 0.223858 3.57715 0.5 3.57715H6.82315C7.0993 3.57715 7.32315 3.80101 7.32315 4.07715V6.82935C7.32315 7.10549 7.54701 7.32935 7.82315 7.32935H24.0839C24.36 7.32935 24.5839 7.10549 24.5839 6.82935V4.07715C24.5839 3.80101 24.8078 3.57715 25.0839 3.57715H31.5ZM9.92318 11.8079C6.60947 11.8079 3.92318 14.4942 3.92318 17.8079V18.8849C3.92318 22.1986 6.60946 24.8849 9.92317 24.8849H22.077C25.3907 24.8849 28.077 22.1986 28.077 18.8849V17.8079C28.077 14.4942 25.3907 11.8079 22.077 11.8079H9.92318ZM5.92318 17.8079C5.92318 15.5988 7.71404 13.8079 9.92318 13.8079H22.077C24.2862 13.8079 26.077 15.5988 26.077 17.8079V18.8849C26.077 21.094 24.2862 22.8849 22.077 22.8849H9.92317C7.71403 22.8849 5.92318 21.094 5.92318 18.8849V17.8079ZM12.3075 18.3465C12.3075 19.3661 11.481 20.1926 10.4614 20.1926C9.44179 20.1926 8.61523 19.3661 8.61523 18.3465C8.61523 17.3269 9.44179 16.5003 10.4614 16.5003C11.481 16.5003 12.3075 17.3269 12.3075 18.3465ZM21.5382 20.1926C22.5578 20.1926 23.3844 19.3661 23.3844 18.3465C23.3844 17.3269 22.5578 16.5003 21.5382 16.5003C20.5186 16.5003 19.6921 17.3269 19.6921 18.3465C19.6921 19.3661 20.5186 20.1926 21.5382 20.1926Z" fill="#111827"/>
</svg>
