<svg width="32" height="32" viewBox="0 0 32 32" fill="none" xmlns="http://www.w3.org/2000/svg">
<path fill-rule="evenodd" clip-rule="evenodd" d="M31.5 3.07715C31.7761 3.07715 32 3.30101 32 3.57715V18.9233C32 24.4461 27.5228 28.9233 22 28.9233H10C4.47715 28.9233 0 24.4462 0 18.9233V3.57715C0 3.30101 0.223858 3.07715 0.5 3.07715H6.82315C7.0993 3.07715 7.32315 3.30101 7.32315 3.57715V6.32935C7.32315 6.60549 7.54701 6.82935 7.82315 6.82935H24.0839C24.36 6.82935 24.5839 6.60549 24.5839 6.32935V3.57715C24.5839 3.30101 24.8078 3.07715 25.0839 3.07715H31.5ZM9.92318 11.3079C6.60947 11.3079 3.92318 13.9942 3.92318 17.3079V18.3849C3.92318 21.6986 6.60946 24.3849 9.92317 24.3849H22.077C25.3907 24.3849 28.077 21.6986 28.077 18.3849V17.3079C28.077 13.9942 25.3907 11.3079 22.077 11.3079H9.92318ZM5.92318 17.3079C5.92318 15.0988 7.71404 13.3079 9.92318 13.3079H22.077C24.2862 13.3079 26.077 15.0988 26.077 17.3079V18.3849C26.077 20.594 24.2862 22.3849 22.077 22.3849H9.92317C7.71403 22.3849 5.92318 20.594 5.92318 18.3849V17.3079ZM12.3075 17.8465C12.3075 18.8661 11.481 19.6926 10.4614 19.6926C9.44179 19.6926 8.61523 18.8661 8.61523 17.8465C8.61523 16.8269 9.44179 16.0003 10.4614 16.0003C11.481 16.0003 12.3075 16.8269 12.3075 17.8465ZM21.5382 19.6926C22.5578 19.6926 23.3844 18.8661 23.3844 17.8465C23.3844 16.8269 22.5578 16.0003 21.5382 16.0003C20.5186 16.0003 19.6921 16.8269 19.6921 17.8465C19.6921 18.8661 20.5186 19.6926 21.5382 19.6926Z" fill="#111827"/>
</svg>
