<svg width="32" height="33" viewBox="0 0 32 33" fill="none" xmlns="http://www.w3.org/2000/svg">
<path d="M7.67934 8.0321C7.44926 7.8791 7.13846 7.94148 6.98839 8.17348C4.71211 11.6924 2.89404 15.6732 2.89404 19.3942C2.89404 22.8701 4.27483 26.2036 6.73264 28.6614C9.19046 31.1192 12.524 32.5 15.9998 32.5C19.4757 32.5 22.8092 31.1192 25.267 28.6614C27.7249 26.2036 29.1056 22.8701 29.1056 19.3942C29.1056 11.5748 23.8882 5.49458 19.4317 0.999839C19.1888 0.754851 18.7775 0.826638 18.6293 1.13813L13.7515 11.3843C13.6206 11.6591 13.2766 11.7543 13.0231 11.5857L7.67934 8.0321Z" fill="#111827"/>
</svg>
