<svg width="33" height="33" viewBox="0 0 33 33" fill="none" xmlns="http://www.w3.org/2000/svg">
<path d="M10.824 10.5013C10.5939 10.3483 10.283 10.4106 10.1339 10.6432C8.45849 13.2564 7.13086 16.1998 7.13086 18.9536C7.13086 21.5605 8.16645 24.0606 10.0098 25.904C11.8532 27.7474 14.3533 28.783 16.9602 28.783C19.5671 28.783 22.0673 27.7474 23.9106 25.904C25.754 24.0606 26.7896 21.5605 26.7896 18.9536C26.7896 13.1614 22.9725 8.64161 19.6581 5.28314C19.4158 5.03759 19.0046 5.1096 18.8563 5.42109L15.3359 12.816C15.2051 13.0908 14.8611 13.186 14.6076 13.0174L10.824 10.5013Z" fill="#1C1B1F"/>
</svg>
