<svg width="32" height="33" viewBox="0 0 32 33" fill="none" xmlns="http://www.w3.org/2000/svg">
<path fill-rule="evenodd" clip-rule="evenodd" d="M6.89108 7.89947C7.04119 7.6675 7.35198 7.60511 7.58206 7.75811L12.9955 11.358C13.2489 11.5266 13.5929 11.4314 13.7238 11.1566L18.6621 0.783234C18.8104 0.471738 19.2217 0.399978 19.4647 0.644948C23.9721 5.19037 29.252 11.3402 29.252 19.25C29.252 22.7646 27.8558 26.1353 25.3706 28.6206C22.8853 31.1058 19.5146 32.502 16 32.502C12.4854 32.502 9.11468 31.1058 6.62946 28.6206C4.14423 26.1353 2.74805 22.7646 2.74805 19.25C2.74805 15.4858 4.588 11.4588 6.89108 7.89947ZM25.0967 20.6682C25.183 20.1227 24.8108 19.6105 24.2653 19.5242C23.7198 19.4379 23.2076 19.8102 23.1213 20.3556C22.8824 21.8651 22.1717 23.2602 21.0911 24.3409C20.0104 25.4215 18.6153 26.1322 17.1058 26.3711C16.5603 26.4574 16.1881 26.9696 16.2744 27.5151C16.3607 28.0606 16.8729 28.4328 17.4184 28.3465C19.3452 28.0416 21.1259 27.1344 22.5053 25.7551C23.8846 24.3757 24.7918 22.595 25.0967 20.6682Z" fill="#111827"/>
</svg>
