<svg width="33" height="33" viewBox="0 0 33 33" fill="none" xmlns="http://www.w3.org/2000/svg">
<path fill-rule="evenodd" clip-rule="evenodd" d="M10.1334 10.6432C10.2825 10.4106 10.5934 10.3483 10.8235 10.5013L14.6071 13.0174C14.8606 13.186 15.2046 13.0908 15.3354 12.816L18.8558 5.42109C19.0041 5.1096 19.4153 5.03759 19.6576 5.28314C22.972 8.64161 26.7891 13.1614 26.7891 18.9536C26.7891 21.5605 25.7535 24.0606 23.9101 25.904C22.0668 27.7474 19.5666 28.783 16.9597 28.783C14.3528 28.783 11.8527 27.7474 10.0093 25.904C8.16596 24.0606 7.13037 21.5605 7.13037 18.9536C7.13037 16.1998 8.458 13.2564 10.1334 10.6432ZM23.9622 20.0459C24.0485 19.5004 23.6763 18.9883 23.1308 18.9019C22.5853 18.8156 22.0731 19.1879 21.9868 19.7334C21.8181 20.7991 21.3164 21.7841 20.5534 22.547C19.7904 23.31 18.8054 23.8118 17.7397 23.9804C17.1942 24.0668 16.822 24.5789 16.9083 25.1244C16.9946 25.6699 17.5068 26.0422 18.0523 25.9559C19.5353 25.7212 20.9059 25.0229 21.9676 23.9613C23.0293 22.8996 23.7275 21.5289 23.9622 20.0459Z" fill="#1C1B1F"/>
</svg>
