<svg width="32" height="32" viewBox="0 0 32 32" fill="none" xmlns="http://www.w3.org/2000/svg">
<path fill-rule="evenodd" clip-rule="evenodd" d="M9.33333 0.833282C8.78105 0.833282 8.33333 1.281 8.33333 1.83328V7.16662H1C0.447715 7.16662 0 7.61433 0 8.16662V30.1666C0 30.7189 0.447715 31.1666 1 31.1666H31C31.5523 31.1666 32 30.7189 32 30.1666V8.16662C32 7.61433 31.5523 7.16662 31 7.16662H23.6667V1.83328C23.6667 1.281 23.219 0.833282 22.6667 0.833282H9.33333ZM21.6667 7.16662V2.83328H10.3333V7.16662H21.6667ZM17 14.5C17 13.9477 16.5523 13.5 16 13.5C15.4477 13.5 15 13.9477 15 14.5V18.1666H11.3333C10.781 18.1666 10.3333 18.6143 10.3333 19.1666C10.3333 19.7189 10.781 20.1666 11.3333 20.1666H15V23.8333C15 24.3856 15.4477 24.8333 16 24.8333C16.5523 24.8333 17 24.3856 17 23.8333V20.1666H20.6667C21.219 20.1666 21.6667 19.7189 21.6667 19.1666C21.6667 18.6143 21.219 18.1666 20.6667 18.1666H17V14.5Z" fill="#111827"/>
</svg>
