<svg width="33" height="33" viewBox="0 0 33 33" fill="none" xmlns="http://www.w3.org/2000/svg">
<path fill-rule="evenodd" clip-rule="evenodd" d="M11.96 4.2829C11.4077 4.2829 10.96 4.73061 10.96 5.2829V9.2829H5.95996C5.40768 9.2829 4.95996 9.73061 4.95996 10.2829V26.2829C4.95996 26.8352 5.40768 27.2829 5.95996 27.2829H27.96C28.5122 27.2829 28.96 26.8352 28.96 26.2829V10.2829C28.96 9.73061 28.5122 9.2829 27.96 9.2829H22.96V5.2829C22.96 4.73061 22.5122 4.2829 21.96 4.2829H11.96ZM20.96 9.2829V6.2829H12.96V9.2829H20.96ZM17.96 14.7829C17.96 14.2306 17.5122 13.7829 16.96 13.7829C16.4077 13.7829 15.96 14.2306 15.96 14.7829V17.2829H13.46C12.9077 17.2829 12.46 17.7306 12.46 18.2829C12.46 18.8352 12.9077 19.2829 13.46 19.2829H15.96V21.7829C15.96 22.3352 16.4077 22.7829 16.96 22.7829C17.5122 22.7829 17.96 22.3352 17.96 21.7829V19.2829H20.46C21.0122 19.2829 21.46 18.8352 21.46 18.2829C21.46 17.7306 21.0122 17.2829 20.46 17.2829H17.96V14.7829Z" fill="#1C1B1F"/>
</svg>
