<svg width="33" height="33" viewBox="0 0 33 33" fill="none" xmlns="http://www.w3.org/2000/svg">
<path d="M13.0159 12.171V5.39484C13.0159 4.84255 13.4636 4.39484 14.0159 4.39484H20.1838C20.736 4.39484 21.1838 4.84255 21.1838 5.39484V12.171H27.96C28.5122 12.171 28.96 12.6188 28.96 13.171V19.0591C28.96 19.6114 28.5122 20.0591 27.96 20.0591H21.1838V27.171C21.1838 27.7233 20.736 28.171 20.1838 28.171H14.0159C13.4636 28.171 13.0159 27.7233 13.0159 27.171V20.0591H5.95996C5.40768 20.0591 4.95996 19.6114 4.95996 19.0591V13.171C4.95996 12.6188 5.40768 12.171 5.95996 12.171H13.0159Z" fill="#1C1B1F"/>
</svg>
