<svg width="32" height="32" viewBox="0 0 32 32" fill="none" xmlns="http://www.w3.org/2000/svg">
<path d="M10.7412 10.5175V1.14923C10.7412 0.596946 11.1889 0.149231 11.7412 0.149231H20.6317C21.184 0.149231 21.6317 0.596948 21.6317 1.14923V10.5175H31C31.5523 10.5175 32 10.9652 32 11.5175V20.035C32 20.5872 31.5523 21.035 31 21.035H21.6317V30.8508C21.6317 31.4031 21.184 31.8508 20.6317 31.8508H11.7412C11.1889 31.8508 10.7412 31.4031 10.7412 30.8508V21.035H1C0.447715 21.035 0 20.5872 0 20.035V11.5175C0 10.9652 0.447715 10.5175 1 10.5175H10.7412Z" fill="#111827"/>
</svg>
