<svg width="33" height="33" viewBox="0 0 33 33" fill="none" xmlns="http://www.w3.org/2000/svg">
<path fill-rule="evenodd" clip-rule="evenodd" d="M18.1474 4.65153C22.199 3.20289 26.5276 3.93093 28.0338 4.25534L28.0527 4.2596C28.4005 4.34158 28.7186 4.51887 28.9713 4.77156C29.224 5.02425 29.4013 5.34236 29.4833 5.69019L29.4875 5.70905C29.812 7.21527 30.54 11.5438 29.0913 15.5955C28.3573 17.6486 27.059 19.6441 24.8703 21.1425C22.806 22.5557 20.0178 23.4801 16.3059 23.658L13.9869 29.1707C13.8223 29.5618 13.4288 29.8065 13.0052 29.7811C12.5816 29.7557 12.2202 29.4657 12.1036 29.0576L10.4551 23.2878L4.68525 21.6393C4.27721 21.5227 3.98719 21.1613 3.96177 20.7377C3.93634 20.3141 4.18105 19.9205 4.57222 19.756L10.0849 17.437C10.2628 13.7251 11.1872 10.9369 12.6004 8.87258C14.0987 6.68383 16.0943 5.3856 18.1474 4.65153ZM27.2081 14.9222C26.7069 16.3239 25.9093 17.6582 24.6703 18.7647C23.5395 18.7384 22.4606 18.2778 21.659 17.4762C20.8332 16.6504 20.3692 15.5303 20.3692 14.3625C20.3692 14.0973 20.2639 13.8429 20.0764 13.6554C19.8888 13.4678 19.6345 13.3625 19.3692 13.3625C18.203 13.3625 17.0843 12.8998 16.2588 12.076C15.4607 11.2796 14.9996 10.2086 14.9676 9.08448C16.0762 7.83866 17.4145 7.03755 18.8207 6.53478C22.2723 5.30067 26.075 5.88608 27.5465 6.19639C27.8568 7.66786 28.4422 11.4705 27.2081 14.9222ZM22.9713 9.42051C22.9713 10.1666 22.3665 10.7714 21.6204 10.7714C20.8743 10.7714 20.2695 10.1666 20.2695 9.42051C20.2695 8.67445 20.8743 8.06965 21.6204 8.06965C22.3665 8.06965 22.9713 8.67445 22.9713 9.42051Z" fill="#1C1B1F"/>
</svg>
