<svg width="32" height="33" viewBox="0 0 32 33" fill="none" xmlns="http://www.w3.org/2000/svg">
<path fill-rule="evenodd" clip-rule="evenodd" d="M17.5684 1.57205C22.5643 -0.214203 27.917 0.682638 29.789 1.08583L29.8078 1.09009C30.1974 1.18191 30.5536 1.38046 30.8367 1.66347C31.1197 1.94648 31.3182 2.30274 31.41 2.6923L31.4143 2.71116C31.8175 4.58313 32.7143 9.9358 30.9281 14.9317C30.0252 17.457 28.4316 19.9047 25.7462 21.743C23.1836 23.4973 19.6966 24.649 15.0134 24.8509L12.0536 31.8869C11.889 32.2781 11.4955 32.5228 11.0719 32.4973C10.6483 32.4719 10.2869 32.1819 10.1703 31.7739L8.07163 24.4285L0.726267 22.3298C0.318228 22.2132 0.0282083 21.8518 0.00278428 21.4282C-0.0226397 21.0046 0.222069 20.6111 0.613235 20.4465L7.64923 17.4867C7.85107 12.8035 9.00284 9.31649 10.7571 6.7539C12.5955 4.06857 15.0432 2.47492 17.5684 1.57205ZM29.0448 14.2584C28.3966 16.0714 27.3565 17.8013 25.7308 19.2283C24.2172 19.2192 22.7676 18.614 21.6966 17.5431C20.6176 16.4641 20.0114 15.0005 20.0114 13.4745C20.0114 13.2093 19.906 12.9549 19.7185 12.7674C19.5309 12.5799 19.2766 12.4745 19.0114 12.4745C17.4874 12.4745 16.0257 11.8699 14.947 10.7935C13.8807 9.72942 13.2747 8.29022 13.2578 6.78535C14.6875 5.15045 16.4228 4.10564 18.2417 3.4553C22.6793 1.86867 27.5565 2.6522 29.3541 3.03804C29.3799 3.04506 29.4035 3.05872 29.4224 3.07768C29.4414 3.09665 29.4551 3.12023 29.4621 3.14607C29.8479 4.94372 30.6314 9.8208 29.0448 14.2584ZM23.5141 7.2974C23.5141 8.22992 22.7581 8.98588 21.8256 8.98588C20.8931 8.98588 20.1371 8.22992 20.1371 7.2974C20.1371 6.36488 20.8931 5.60893 21.8256 5.60893C22.7581 5.60893 23.5141 6.36488 23.5141 7.2974Z" fill="#111827"/>
</svg>
