<svg width="32" height="33" viewBox="0 0 32 33" fill="none" xmlns="http://www.w3.org/2000/svg">
<path fill-rule="evenodd" clip-rule="evenodd" d="M29.7207 1.10717C28.5592 0.855825 26.1849 0.440869 23.3865 0.508279C20.5939 0.575547 17.3101 1.12477 14.3862 2.86225C14.0417 3.06697 13.7031 3.2876 13.3719 3.52507C13.3068 3.56221 13.2462 3.60647 13.1912 3.65681C10.7634 5.45719 8.74457 8.18554 7.64468 12.207C6.83202 15.1782 6.52448 18.8398 6.90247 23.3428C5.14308 23.1121 3.25044 22.7803 1.21486 22.3351C0.675329 22.2171 0.14229 22.5588 0.0242821 23.0984C-0.0937255 23.6379 0.247986 24.1709 0.787516 24.2889C3.05017 24.7838 5.15562 25.1452 7.11443 25.3857C7.35491 27.3445 7.71629 29.4499 8.21119 31.7126C8.3292 32.2521 8.86224 32.5938 9.40177 32.4758C9.9413 32.3578 10.283 31.8248 10.165 31.2853C9.71977 29.2497 9.38801 27.357 9.15737 25.5977C13.6603 25.9756 17.3219 25.6681 20.2932 24.8554C24.9581 23.5795 27.8831 21.067 29.6379 18.114C31.3754 15.19 31.9246 11.9062 31.9918 9.11364C32.0592 6.31518 31.6443 3.94096 31.393 2.77945L31.393 2.77945L31.3912 2.77144C31.2998 2.36539 31.0951 1.99362 30.8008 1.69932C30.5065 1.40502 30.1347 1.2003 29.7287 1.10894L29.7287 1.1089L29.7207 1.10717ZM22.9907 16.6753C24.4512 17.2691 26.0059 17.5924 27.5791 17.6311C27.6977 17.4533 27.8108 17.2736 27.9185 17.0923C29.4192 14.5668 29.9299 11.6593 29.9924 9.06548C30.0546 6.48215 29.6707 4.27823 29.4394 3.20813C29.4309 3.17233 29.4126 3.13958 29.3866 3.11353C29.3605 3.08749 29.3278 3.06921 29.292 3.0607C28.2219 2.82946 26.018 2.44547 23.4346 2.5077C20.8408 2.57018 17.9333 3.08087 15.4078 4.5816C15.2265 4.68934 15.0468 4.80241 14.869 4.92105C14.9076 6.48974 15.2292 8.04006 15.8197 9.4969C16.4744 11.1121 17.4463 12.5795 18.678 13.8125C19.9098 15.0455 21.3762 16.019 22.9907 16.6753ZM23.2233 7.52289C23.2233 8.49178 22.4378 9.27722 21.4689 9.27722C20.5 9.27722 19.7146 8.49178 19.7146 7.52289C19.7146 6.55399 20.5 5.76855 21.4689 5.76855C22.4378 5.76855 23.2233 6.55399 23.2233 7.52289Z" fill="#111827"/>
</svg>
