<svg width="33" height="33" viewBox="0 0 33 33" fill="none" xmlns="http://www.w3.org/2000/svg">
<path fill-rule="evenodd" clip-rule="evenodd" d="M27.9796 4.27247C27.041 4.06936 25.1248 3.73442 22.8648 3.78886C20.6108 3.84316 17.9459 4.28641 15.5667 5.70017C15.2895 5.86488 15.0172 6.04221 14.7507 6.23284C14.691 6.26759 14.6351 6.30837 14.5841 6.35434C12.6095 7.82186 10.9726 10.041 10.0825 13.2956C9.43997 15.6447 9.18983 18.5182 9.46225 22.0265C8.13071 21.8446 6.70344 21.5906 5.17384 21.2561C4.63431 21.1381 4.10127 21.4798 3.98327 22.0193C3.86526 22.5588 4.20697 23.0919 4.7465 23.2099C6.5024 23.5939 8.14171 23.8781 9.67192 24.0712C9.86502 25.6014 10.1492 27.2407 10.5332 28.9966C10.6512 29.5362 11.1843 29.8779 11.7238 29.7599C12.2633 29.6419 12.6051 29.1088 12.487 28.5693C12.1525 27.0397 11.8985 25.6124 11.7166 24.2809C15.2249 24.5533 18.0985 24.3032 20.4476 23.6607C24.2285 22.6266 26.6119 20.5847 28.043 18.1764C29.4567 15.7973 29.9 13.1324 29.9543 10.8783C30.0087 8.61835 29.6738 6.70214 29.4707 5.76352L29.4707 5.76351L29.4689 5.75551C29.3875 5.39373 29.2051 5.06248 28.9429 4.80026C28.6807 4.53805 28.3494 4.35564 27.9876 4.27424L27.9876 4.2742L27.9796 4.27247ZM22.6281 16.738C23.74 17.19 24.9215 17.4423 26.1184 17.4847C26.1894 17.3755 26.2578 17.2655 26.3236 17.1547C27.5006 15.174 27.9053 12.8855 27.9548 10.8302C28.0036 8.80745 27.7067 7.07724 27.5231 6.22001C26.6659 6.03645 24.9357 5.73956 22.913 5.78828C20.8576 5.83779 18.5691 6.24252 16.5884 7.41951C16.4775 7.4854 16.3674 7.55384 16.2581 7.62493C16.3004 8.81811 16.5513 9.99605 17.0008 11.105C17.5146 12.3724 18.2773 13.524 19.2438 14.4915C20.2104 15.4591 21.3611 16.2229 22.6281 16.738ZM22.7385 9.60083C22.7385 10.376 22.1101 11.0044 21.3349 11.0044C20.5598 11.0044 19.9314 10.376 19.9314 9.60083C19.9314 8.82566 20.5598 8.19726 21.3349 8.19726C22.1101 8.19726 22.7385 8.82566 22.7385 9.60083Z" fill="#1C1B1F"/>
</svg>
