<svg width="32" height="33" viewBox="0 0 32 33" fill="none" xmlns="http://www.w3.org/2000/svg">
<path fill-rule="evenodd" clip-rule="evenodd" d="M27.0139 5.31168C25.1083 6.74088 23.3809 7.07124 21.7121 6.89861C21.1568 6.84117 20.6046 6.72817 20.0488 6.57471C19.9964 6.55488 19.9418 6.53934 19.8856 6.52851C18.7573 6.20159 17.6119 5.71438 16.3943 5.19253L16.3258 5.16318C14.5261 4.39178 12.56 3.54904 10.4944 3.33536C8.33985 3.11247 6.11218 3.57192 3.79909 5.30245C3.77383 5.32083 3.74946 5.34037 3.72606 5.36098C3.52979 5.53387 3.40186 5.78253 3.38803 6.06122C3.38697 6.08189 3.38655 6.10259 3.38678 6.12331V13.7691V13.7908V21.9382V21.96V28.283C3.38678 28.8352 3.83449 29.283 4.38678 29.283C4.93906 29.283 5.38678 28.8352 5.38678 28.283V22.4625C7.13541 21.2751 8.73733 21.0009 10.2886 21.1614C10.8445 21.2189 11.3972 21.3321 11.9536 21.4858C12.0049 21.5051 12.0581 21.5202 12.113 21.5309C13.2419 21.8578 14.388 22.3453 15.6064 22.8675L15.6749 22.8968C17.4746 23.6682 19.4407 24.511 21.5063 24.7247C23.6646 24.9479 25.8964 24.4865 28.2139 22.7483C28.4657 22.5595 28.6139 22.2631 28.6139 21.9483V13.7892V13.7675V6.11168C28.6139 5.7329 28.3999 5.38664 28.0611 5.21725C27.7223 5.04786 27.3169 5.08441 27.0139 5.31168ZM20.6953 22.571C21.0341 22.6443 21.3725 22.7002 21.7121 22.7353C23.2633 22.8958 24.8653 22.6216 26.6139 21.4342V15.5905C24.8643 16.4946 23.1637 16.7269 21.5063 16.5555C21.2342 16.5273 20.9638 16.4883 20.6953 16.4399V22.571ZM13.3052 11.6387V6.09044C14.0518 6.36612 14.8138 6.69113 15.6064 7.03082L15.6749 7.06017C16.6375 7.47278 17.6477 7.9058 18.6953 8.25205V13.8003C17.9488 13.5247 17.1868 13.1997 16.3943 12.86L16.3258 12.8307C15.3631 12.418 14.3529 11.985 13.3052 11.6387ZM11.3052 13.1564V19.2876C11.0368 19.2392 10.7665 19.2002 10.4944 19.172C8.837 19.0006 7.13632 19.2329 5.38678 20.137V14.2933C7.13541 13.1059 8.73733 12.8317 10.2886 12.9922C10.6281 13.0273 10.9665 13.0832 11.3052 13.1564Z" fill="#1C1B1F"/>
</svg>
