<svg width="33" height="32" viewBox="0 0 33 32" fill="none" xmlns="http://www.w3.org/2000/svg">
<path fill-rule="evenodd" clip-rule="evenodd" d="M29.9562 2.48648C27.5229 4.3115 25.3007 4.74081 23.1536 4.5187C22.44 4.44488 21.7312 4.29924 21.02 4.10219C20.9627 4.07999 20.9028 4.06292 20.841 4.05154C19.4046 3.63674 17.9556 3.01945 16.434 2.36734L16.3638 2.33724C14.1037 1.36854 11.6761 0.328027 9.13238 0.0648868C6.49934 -0.207497 3.77669 0.351021 0.935676 2.47772C0.912331 2.49474 0.889751 2.51273 0.867996 2.53166C0.669175 2.7046 0.539342 2.95481 0.525259 3.23551C0.524185 3.25635 0.523758 3.27723 0.523985 3.29812V12.8603V12.8821V23.0711V23.0928V30.999C0.523985 31.5513 0.9717 31.999 1.52398 31.999C2.07627 31.999 2.52398 31.5513 2.52398 30.999V23.5923C4.80179 22.0109 6.89771 21.6391 8.92658 21.849C9.6407 21.9229 10.35 22.0686 11.0617 22.2659C11.1184 22.2878 11.1776 22.3047 11.2387 22.316C12.6753 22.7308 14.1244 23.3482 15.6462 24.0003L15.7164 24.0304C17.9765 24.9991 20.4042 26.0397 22.9478 26.3028C25.5845 26.5756 28.311 26.0151 31.1562 23.8812C31.408 23.6923 31.5562 23.396 31.5562 23.0812V12.8805V12.8589V3.28648C31.5562 2.90771 31.3422 2.56145 31.0034 2.39206C30.6647 2.22266 30.2593 2.25922 29.9562 2.48648ZM21.6589 24.0596C22.1564 24.1748 22.6538 24.2617 23.1536 24.3134C25.1825 24.5233 27.2784 24.1515 29.5562 22.5701V14.7164C27.2841 15.9864 25.0864 16.3133 22.9478 16.092C22.5147 16.0472 22.085 15.9799 21.6589 15.8942V24.0596ZM12.4219 10.3765V2.90381C13.4737 3.27651 14.5408 3.73188 15.6462 4.20563L15.7164 4.23572C16.9811 4.77779 18.2983 5.34234 19.6589 5.78058V13.2533C18.6069 12.8806 17.5396 12.4251 16.434 11.9513L16.3638 11.9212L16.3638 11.9212C15.0993 11.3792 13.7823 10.8147 12.4219 10.3765ZM10.4219 11.8921V20.0575C9.9956 19.9718 9.56567 19.9044 9.13238 19.8596C6.99383 19.6384 4.79617 19.9653 2.52398 21.2353V13.3816C4.80179 11.8001 6.89771 11.4283 8.92658 11.6382C9.42656 11.69 9.92416 11.7769 10.4219 11.8921Z" fill="#111827"/>
</svg>
