<svg width="33" height="33" viewBox="0 0 33 33" fill="none" xmlns="http://www.w3.org/2000/svg">
<path fill-rule="evenodd" clip-rule="evenodd" d="M17.4587 5.105C19.4286 6.42899 26.5599 11.7363 26.5599 19.183C26.5599 21.729 25.5484 24.1708 23.7481 25.9712C21.9524 27.7669 19.5186 28.7777 16.9796 28.7829C18.2456 28.7778 19.4587 28.2727 20.3543 27.3771C21.2544 26.4769 21.7602 25.256 21.7602 23.983C21.7602 20.1382 18.6806 17.5253 17.4548 16.6376C17.1557 16.421 16.7646 16.421 16.4655 16.6376C15.2397 17.5253 12.1602 20.1382 12.1602 23.983C12.1602 25.256 12.6659 26.4769 13.566 27.3771C14.4618 28.2728 15.6751 28.778 16.9413 28.7829C14.4019 28.778 11.9676 27.7672 10.1716 25.9712C8.37129 24.1708 7.35986 21.729 7.35986 19.183C7.35986 11.7363 14.4912 6.42899 16.4611 5.105C16.7676 4.89899 17.1522 4.89899 17.4587 5.105Z" fill="#1C1B1F"/>
</svg>
