<svg width="32" height="33" viewBox="0 0 32 33" fill="none" xmlns="http://www.w3.org/2000/svg">
<path fill-rule="evenodd" clip-rule="evenodd" d="M16.5008 0.652183C18.8732 2.21935 28.8674 9.4272 28.8674 19.6333C28.8674 23.0459 27.5117 26.3188 25.0986 28.7318C22.6855 31.1449 19.4127 32.5006 16.0001 32.5006C12.5875 32.5006 9.31463 31.1449 6.90155 28.7318C4.48847 26.3188 3.13281 23.0459 3.13281 19.6333C3.13281 9.4272 13.127 2.21935 15.4994 0.652183C15.8075 0.448621 16.1927 0.448621 16.5008 0.652183ZM11.4512 30.6161C10.2447 29.4095 9.56684 27.7731 9.56684 26.0668C9.56684 20.729 13.9954 17.1627 15.5041 16.1026C15.8062 15.8903 16.1947 15.8903 16.4969 16.1026C18.0056 17.1627 22.4341 20.729 22.4341 26.0668C22.4341 27.7731 21.7563 29.4095 20.5497 30.6161C19.3432 31.8226 17.7068 32.5004 16.0005 32.5004C14.2942 32.5004 12.6578 31.8226 11.4512 30.6161Z" fill="#111827"/>
</svg>
