<svg width="32" height="32" viewBox="0 0 32 32" fill="none" xmlns="http://www.w3.org/2000/svg">
<path fill-rule="evenodd" clip-rule="evenodd" d="M9.81079 0.841278C9.25851 0.841278 8.81079 1.28899 8.81079 1.84128C8.81079 2.39356 9.25851 2.84128 9.81079 2.84128H11.104V11.1423L0.140611 29.6491C-0.0425003 29.9582 -0.0457254 30.3418 0.132162 30.6539C0.31005 30.966 0.641708 31.1588 1.00098 31.1588H30.9991C31.3595 31.1588 31.692 30.9649 31.8694 30.6513C32.0469 30.3377 32.042 29.9529 31.8564 29.6439L20.7434 11.139V2.84128H22.0557C22.608 2.84128 23.0557 2.39356 23.0557 1.84128C23.0557 1.28899 22.608 0.841278 22.0557 0.841278H9.81079ZM13.104 11.4162V2.84128H18.7434V11.4162C18.7434 11.5976 18.7928 11.7756 18.8862 11.9311L25.1195 22.3106C24.4482 22.7458 23.579 23.0864 22.4552 23.162C20.9825 23.2611 19.0001 22.9093 16.3807 21.5996C12.9422 19.8803 10.2568 19.5586 8.19728 19.973L12.9643 11.9259C13.0557 11.7716 13.104 11.5956 13.104 11.4162Z" fill="#111827"/>
</svg>
