<svg width="32" height="32" viewBox="0 0 32 32" fill="none" xmlns="http://www.w3.org/2000/svg">
<path fill-rule="evenodd" clip-rule="evenodd" d="M6.73584 0.000915527C6.18356 0.000915527 5.73584 0.448631 5.73584 1.00092V8.72104C5.73584 8.91986 5.79511 9.11417 5.90607 9.27915L8.74014 13.4927V30.9991C8.74014 31.5514 9.18786 31.9991 9.74014 31.9991H21.9841C22.5364 31.9991 22.9841 31.5514 22.9841 30.9991V13.5154L26.0701 9.31293C26.1961 9.14132 26.2641 8.93396 26.2641 8.72104V1.00092C26.2641 0.448631 25.8164 0.000915527 25.2641 0.000915527H6.73584ZM7.73584 8.41602V2.00092H24.2641V8.39331L24.1108 8.60205H7.86096L7.73584 8.41602ZM10.7401 25.9994V29.9991H20.9841V25.9994L10.7401 25.9994ZM16.025 14.0671C16.5773 14.0671 17.025 14.5148 17.025 15.0671V19.8136C17.025 20.3658 16.5773 20.8136 16.025 20.8136C15.4728 20.8136 15.025 20.3658 15.025 19.8136V15.0671C15.025 14.5148 15.4728 14.0671 16.025 14.0671Z" fill="#111827"/>
</svg>
