<svg width="33" height="33" viewBox="0 0 33 33" fill="none" xmlns="http://www.w3.org/2000/svg">
<path fill-rule="evenodd" clip-rule="evenodd" d="M9.54834 3.2829C8.99606 3.2829 8.54834 3.73061 8.54834 4.2829V10.4594C8.54834 10.6582 8.60761 10.8525 8.71857 11.0175L10.9519 14.3379V28.2829C10.9519 28.8352 11.3996 29.2829 11.9519 29.2829H21.7477C22.3 29.2829 22.7477 28.8352 22.7477 28.2829V14.3606L25.1779 11.0513C25.3039 10.8797 25.3719 10.6723 25.3719 10.4594V4.2829C25.3719 3.73061 24.9241 3.2829 24.3719 3.2829H9.54834ZM10.5483 10.1544V5.2829H23.3719V10.1316L23.2011 10.3641H10.6894L10.5483 10.1544ZM12.9519 24.2829V27.2829H20.7477V24.2829H12.9519ZM16.98 14.5365C17.5323 14.5365 17.98 14.9842 17.98 15.5365V19.3339C17.98 19.8862 17.5323 20.3339 16.98 20.3339C16.4277 20.3339 15.98 19.8862 15.98 19.3339V15.5365C15.98 14.9842 16.4277 14.5365 16.98 14.5365Z" fill="#1C1B1F"/>
</svg>
