<svg width="33" height="33" viewBox="0 0 33 33" fill="none" xmlns="http://www.w3.org/2000/svg">
<path fill-rule="evenodd" clip-rule="evenodd" d="M12.0083 3.9552C11.456 3.9552 11.0083 4.40292 11.0083 4.9552C11.0083 5.50748 11.456 5.9552 12.0083 5.9552H12.8429V12.3417L4.0996 27.1009C3.91648 27.41 3.91326 27.7936 4.09115 28.1057C4.26903 28.4179 4.60069 28.6106 4.95996 28.6106H28.96C29.3203 28.6106 29.6528 28.4167 29.8303 28.1031C30.0077 27.7895 30.0028 27.4047 29.8172 27.0957L20.9548 12.3384V5.9552H21.8048C22.3571 5.9552 22.8048 5.50748 22.8048 4.9552C22.8048 4.40292 22.3571 3.9552 21.8048 3.9552H12.0083ZM14.8429 12.6156V5.9552H18.9548V12.6156C18.9548 12.797 19.0042 12.975 19.0976 13.1305L23.9827 21.265C23.4963 21.5471 22.8836 21.7614 22.1112 21.8133C20.9775 21.8896 19.4272 21.6205 17.3542 20.584C14.7997 19.3068 12.7412 18.9759 11.1085 19.1935L14.7033 13.1253C14.7947 12.971 14.8429 12.795 14.8429 12.6156Z" fill="#1C1B1F"/>
</svg>
