<svg width="32" height="33" viewBox="0 0 32 33" fill="none" xmlns="http://www.w3.org/2000/svg">
<path fill-rule="evenodd" clip-rule="evenodd" d="M28.2313 7.59453C30.1904 7.59453 31.7786 6.00637 31.7786 4.04727C31.7786 2.08816 30.1904 0.5 28.2313 0.5C26.2722 0.5 24.6841 2.08816 24.6841 4.04727C24.6841 4.72887 24.8763 5.36557 25.2095 5.90612L19.2386 11.8771C18.3292 11.1812 17.1923 10.7678 15.9589 10.7678C14.8575 10.7678 13.8331 11.0974 12.979 11.6634L7.2073 5.89168C7.33062 5.60546 7.39894 5.28998 7.39894 4.95853C7.39894 3.65497 6.34219 2.59822 5.03862 2.59822C3.73506 2.59822 2.67831 3.65497 2.67831 4.95853C2.67831 6.2621 3.73506 7.31885 5.03862 7.31885C5.27164 7.31885 5.49676 7.28508 5.70938 7.22218L11.5438 13.0566C10.9222 13.9365 10.5571 15.0104 10.5571 16.1696C10.5571 17.3196 10.9164 18.3857 11.529 19.2617L5.33461 25.4561C4.86228 25.2233 4.33064 25.0926 3.76846 25.0926C1.80936 25.0926 0.221191 26.6807 0.221191 28.6398C0.221191 30.5989 1.80936 32.1871 3.76846 32.1871C5.72756 32.1871 7.31572 30.5989 7.31572 28.6398C7.31572 27.9707 7.13045 27.3448 6.80842 26.8108L12.9576 20.6616C13.5271 21.0428 14.1732 21.3187 14.8678 21.4612V24.936C13.2673 25.4068 12.0989 26.8868 12.0989 28.6397C12.0989 30.7716 13.8271 32.4999 15.9591 32.4999C18.091 32.4999 19.8192 30.7716 19.8192 28.6397C19.8192 26.8208 18.5612 25.2958 16.8678 24.8871V21.4952C17.6554 21.3618 18.3849 21.0579 19.0172 20.6228L22.9896 24.5953C22.8623 24.8853 22.7916 25.2059 22.7916 25.543C22.7916 26.8463 23.8481 27.9027 25.1513 27.9027C26.4545 27.9027 27.511 26.8463 27.511 25.543C27.511 24.2398 26.4545 23.1833 25.1513 23.1833C24.9246 23.1833 24.7053 23.2153 24.4978 23.275L20.4278 19.205C21.0165 18.3399 21.3606 17.2949 21.3606 16.1696C21.3606 15.1433 21.0744 14.1838 20.5774 13.3666L26.6974 7.24665C27.1616 7.46962 27.6819 7.59453 28.2313 7.59453Z" fill="#111827"/>
</svg>
