<svg width="33" height="33" viewBox="0 0 33 33" fill="none" xmlns="http://www.w3.org/2000/svg">
<path fill-rule="evenodd" clip-rule="evenodd" d="M11.96 10.284C11.96 10.8363 12.4077 11.284 12.96 11.284H20.96C21.5122 11.284 21.96 10.8363 21.96 10.284V4.2829H27.96C28.5122 4.2829 28.96 4.73061 28.96 5.2829V27.2829C28.96 27.8352 28.5122 28.2829 27.96 28.2829H5.95996C5.40768 28.2829 4.95996 27.8352 4.95996 27.2829V11.717C4.95996 11.4451 5.07067 11.1849 5.26658 10.9964L11.953 4.56233C12.1393 4.38305 12.3878 4.2829 12.6463 4.2829H19.96V9.284H12.96C12.4077 9.284 11.96 9.73172 11.96 10.284ZM16.9609 16.284C15.5802 16.284 14.4609 17.4033 14.4609 18.784C14.4609 20.1647 15.5802 21.284 16.9609 21.284C18.3417 21.284 19.4609 20.1647 19.4609 18.784C19.4609 17.4033 18.3417 16.284 16.9609 16.284ZM12.4609 18.784C12.4609 16.2987 14.4757 14.284 16.9609 14.284C19.4462 14.284 21.4609 16.2987 21.4609 18.784C21.4609 21.2693 19.4462 23.284 16.9609 23.284C14.4757 23.284 12.4609 21.2693 12.4609 18.784Z" fill="#1C1B1F"/>
</svg>
