<svg width="32" height="32" viewBox="0 0 32 32" fill="none" xmlns="http://www.w3.org/2000/svg">
<path fill-rule="evenodd" clip-rule="evenodd" d="M9.6665 8.00155C9.6665 8.55383 10.1142 9.00155 10.6665 9.00155H21.3332C21.8855 9.00155 22.3332 8.55383 22.3332 8.00155V0H31C31.5523 0 32 0.447715 32 1V31C32 31.5523 31.5523 32 31 32H1C0.447714 32 0 31.5523 0 31V9.77024C0 9.49835 0.110704 9.23819 0.30662 9.04967L9.4208 0.279428C9.60711 0.100148 9.85562 0 10.1142 0H20.3332V7.00155H10.6665C10.1142 7.00155 9.6665 7.44926 9.6665 8.00155ZM16.0011 15.6682C13.9761 15.6682 12.3345 17.3098 12.3345 19.3349C12.3345 21.3599 13.9761 23.0015 16.0011 23.0015C18.0262 23.0015 19.6678 21.3599 19.6678 19.3349C19.6678 17.3098 18.0262 15.6682 16.0011 15.6682ZM10.3345 19.3349C10.3345 16.2053 12.8715 13.6682 16.0011 13.6682C19.1308 13.6682 21.6678 16.2053 21.6678 19.3349C21.6678 22.4645 19.1308 25.0015 16.0011 25.0015C12.8715 25.0015 10.3345 22.4645 10.3345 19.3349Z" fill="#111827"/>
</svg>
