<svg width="32" height="32" viewBox="0 0 32 32" fill="none" xmlns="http://www.w3.org/2000/svg">
<path fill-rule="evenodd" clip-rule="evenodd" d="M6.27279 32H1C0.447715 32 0 31.5523 0 31V1C0 0.447715 0.447715 0 1 0H21.8858C22.1444 0 22.3929 0.100148 22.5792 0.279428L31.6934 9.04967C31.8893 9.23819 32 9.49835 32 9.77024V31C32 31.5523 31.5523 32 31 32H25.7273V18.9106C25.7273 18.3583 25.2796 17.9106 24.7273 17.9106H7.27279C6.7205 17.9106 6.27279 18.3583 6.27279 18.9106V32ZM8.27279 32H23.7273V19.9106H8.27279V32ZM9.18164 5.8198C9.18164 5.26752 9.62936 4.8198 10.1816 4.8198H20.3635C20.9157 4.8198 21.3635 5.26752 21.3635 5.8198C21.3635 6.37209 20.9157 6.8198 20.3635 6.8198H10.1816C9.62936 6.8198 9.18164 6.37209 9.18164 5.8198Z" fill="#111827"/>
</svg>
