<svg width="33" height="33" viewBox="0 0 33 33" fill="none" xmlns="http://www.w3.org/2000/svg">
<path fill-rule="evenodd" clip-rule="evenodd" d="M9.41455 28.2829H5.95996C5.40768 28.2829 4.95996 27.8352 4.95996 27.2829V5.2829C4.95996 4.73061 5.40768 4.2829 5.95996 4.2829H21.2736C21.5321 4.2829 21.7806 4.38305 21.967 4.56233L28.6533 10.9964C28.8493 11.1849 28.96 11.4451 28.96 11.717V27.2829C28.96 27.8352 28.5122 28.2829 27.96 28.2829H24.5055V18.4659C24.5055 17.9136 24.0577 17.4659 23.5055 17.4659H10.4146C9.86227 17.4659 9.41455 17.9136 9.41455 18.4659V28.2829ZM11.4146 28.2829H22.5055V19.4659H11.4146V28.2829ZM11.5962 8.64777C11.5962 8.09548 12.0439 7.64777 12.5962 7.64777H20.2326C20.7848 7.64777 21.2326 8.09548 21.2326 8.64777C21.2326 9.20005 20.7848 9.64777 20.2326 9.64777H12.5962C12.0439 9.64777 11.5962 9.20005 11.5962 8.64777Z" fill="#1C1B1F"/>
</svg>
