<svg width="32" height="33" viewBox="0 0 32 33" fill="none" xmlns="http://www.w3.org/2000/svg">
<path fill-rule="evenodd" clip-rule="evenodd" d="M16.0009 5.31116C15.5654 5.31116 15.1414 5.45033 14.7907 5.70836L14.7906 5.7083L14.7809 5.71567C13.771 6.47787 11.9202 8.1743 10.7971 11.0805C9.81985 10.4518 8.73738 9.99828 7.59822 9.74316C7.35127 9.6864 7.09199 9.72515 6.87243 9.85163C6.65287 9.97812 6.48928 10.183 6.4145 10.4251C6.09546 11.4074 5.72164 13.2115 6.19389 15.5477C4.14285 15.1575 2.51655 15.3744 1.52285 15.6324C1.26322 15.6978 1.0192 15.8143 0.805026 15.975C0.589204 16.137 0.408092 16.3407 0.272419 16.5739C0.136746 16.8072 0.0492717 17.0653 0.0151802 17.333C-0.0187751 17.5996 0.000914021 17.8703 0.0730778 18.1292C0.53209 19.8004 1.95246 22.8649 6.12197 25.2651C10.2673 27.6514 13.8955 27.6887 16.0006 27.6887C16.0089 27.6887 16.0173 27.6886 16.0256 27.6884C18.1314 27.6882 21.7499 27.6552 25.8808 25.2636C30.047 22.8516 31.468 19.802 31.9276 18.1289C31.9998 17.87 32.0194 17.5993 31.9855 17.3327C31.9514 17.065 31.8639 16.8069 31.7282 16.5736C31.5926 16.3404 31.4115 16.1367 31.1956 15.9747C30.9815 15.814 30.7374 15.6975 30.4778 15.6321C29.4839 15.374 27.8565 15.157 25.8042 15.5582C26.2796 13.2168 25.9052 11.4089 25.5857 10.4251C25.5109 10.183 25.3473 9.97812 25.1277 9.85163C24.9082 9.72515 24.6489 9.6864 24.4019 9.74316C23.2633 9.99817 22.1812 10.4514 21.2043 11.0797C20.0812 8.17398 18.2307 6.4778 17.2209 5.71567L17.2209 5.71561L17.2111 5.70836C16.8603 5.45033 16.4363 5.31116 16.0009 5.31116ZM6.7881 17.5741C6.61755 17.6322 6.4292 17.6449 6.24075 17.6013C4.30991 17.1539 2.82828 17.3593 2.02207 17.5691L2.01152 17.5719L2.01151 17.5718C2.00937 17.5723 2.00736 17.5733 2.0056 17.5746C2.00384 17.5759 2.00236 17.5776 2.00125 17.5795C2.00015 17.5814 1.99943 17.5835 1.99916 17.5857C1.99888 17.5879 1.99904 17.5901 1.99963 17.5922L2.00118 17.5977L2.00116 17.5977C2.34057 18.8349 3.46841 21.4299 7.11977 23.5318C9.35286 24.8173 11.4066 25.3369 13.1259 25.5468C12.9656 25.3671 12.8034 25.1743 12.6413 24.968C12.6396 24.9659 12.638 24.9638 12.6363 24.9617C10.9907 23.7868 9.15451 22.0279 7.80409 19.689C7.38138 18.9569 7.04797 18.2502 6.7881 17.5741ZM24.1961 19.689C24.6165 18.9608 24.9486 18.2579 25.2078 17.585C25.3814 17.6451 25.5736 17.6582 25.7655 17.6125C27.6936 17.154 29.173 17.3591 29.9786 17.5688L29.9786 17.5689L29.9892 17.5715C29.9913 17.572 29.9933 17.573 29.9951 17.5743C29.9968 17.5756 29.9983 17.5773 29.9994 17.5792C30.0005 17.5811 30.0012 17.5832 30.0015 17.5854C30.0018 17.5876 30.0016 17.5898 30.001 17.5919L29.9995 17.5974C29.6606 18.8326 28.5335 21.4169 24.8788 23.5327C22.6456 24.8256 20.5923 25.3432 18.8727 25.5504C19.034 25.3696 19.1973 25.1756 19.3604 24.968L19.3675 24.9591C21.0121 23.7842 22.8466 22.0262 24.1961 19.689ZM16.1863 25.3477C16.1207 25.3994 16.0587 25.4466 16.0009 25.4894C15.9431 25.4466 15.8811 25.3994 15.8154 25.3477C15.3844 25.0083 14.8003 24.4785 14.2138 23.7322C13.0492 22.2502 11.8543 19.8902 11.8543 16.3954C11.8543 10.9594 14.7611 8.23859 15.9776 7.31813C15.9845 7.31359 15.9926 7.31116 16.0009 7.31116C16.0092 7.31116 16.0172 7.31359 16.0241 7.31813C17.2407 8.23859 20.1475 10.9594 20.1475 16.3954C20.1475 19.8902 18.9526 22.2502 17.7879 23.7322C17.2014 24.4785 16.6173 25.0083 16.1863 25.3477Z" fill="#111827"/>
</svg>
