<svg width="33" height="33" viewBox="0 0 33 33" fill="none" xmlns="http://www.w3.org/2000/svg">
<path d="M7.95996 24.744C9.61682 24.744 10.96 23.4009 10.96 21.744C10.96 20.0872 9.61682 18.744 7.95996 18.744C6.30311 18.744 4.95996 20.0872 4.95996 21.744C4.95996 23.4009 6.30311 24.744 7.95996 24.744Z" fill="#1C1B1F"/>
<path d="M10.96 21.7441H11.8171C13.1811 21.7441 14.4892 21.2023 15.4537 20.2378C16.4181 19.2733 16.96 17.9652 16.96 16.6012V16.6012C16.96 15.2373 17.5018 13.9292 18.4663 12.9647C19.4307 12.0002 20.7388 11.4584 22.1028 11.4584H28.96" stroke="#1C1B1F" stroke-width="2" stroke-linecap="round" stroke-linejoin="round"/>
<path d="M25.3232 7.82178L28.9598 11.4583L25.3232 15.0949" stroke="#1C1B1F" stroke-width="2" stroke-linecap="round" stroke-linejoin="round"/>
</svg>
