<svg width="33" height="33" viewBox="0 0 33 33" fill="none" xmlns="http://www.w3.org/2000/svg">
<path fill-rule="evenodd" clip-rule="evenodd" d="M16.9601 7.63281C16.5692 7.63281 16.1884 7.75777 15.8735 7.98946L15.8735 7.9894L15.8637 7.99677C15.0396 8.61871 13.5413 9.99382 12.6248 12.3396C11.8892 11.8927 11.0837 11.5673 10.2393 11.3782C10.0417 11.3328 9.83433 11.3638 9.65869 11.465C9.48306 11.5661 9.3522 11.73 9.29239 11.9237C9.04688 12.6796 8.76081 14.0439 9.07577 15.8103C7.43893 15.5117 6.13636 15.6857 5.32939 15.8951C5.09621 15.9539 4.87704 16.0586 4.68467 16.203C4.49062 16.3486 4.32777 16.5317 4.20578 16.7415C4.08379 16.9512 4.00514 17.1833 3.97449 17.424C3.94397 17.6636 3.96164 17.9069 4.02644 18.1395C4.40562 19.5197 5.57109 22.018 8.95807 23.9677C12.3175 25.9016 15.261 25.933 16.9549 25.9331L16.975 25.933C18.6675 25.9328 21.6089 25.9088 24.964 23.9664C28.3474 22.0075 29.5136 19.5219 29.8934 18.1397C29.9583 17.9069 29.976 17.6636 29.9454 17.4239C29.9148 17.1832 29.8361 16.9511 29.7141 16.7414C29.5921 16.5316 29.4293 16.3485 29.2353 16.2029C29.0429 16.0585 28.8237 15.9538 28.5905 15.895C27.7835 15.6856 26.4804 15.5115 24.8427 15.8183C25.16 14.048 24.8734 12.6807 24.6275 11.9237C24.5677 11.73 24.4369 11.5661 24.2612 11.465C24.0856 11.3638 23.8782 11.3328 23.6807 11.3782C22.8363 11.5673 22.031 11.8926 21.2954 12.3394C20.3789 9.99375 18.8806 8.6187 18.0566 7.99677L18.0566 7.99671L18.0467 7.98946C17.7318 7.75777 17.3511 7.63281 16.9601 7.63281ZM9.66467 17.8283C9.4916 17.8892 9.29972 17.9033 9.10774 17.8588C7.73445 17.5406 6.65659 17.646 6.00788 17.7888C6.32548 18.7952 7.25837 20.6816 9.95587 22.2344C11.4955 23.1207 12.926 23.5448 14.1687 23.7475C14.1509 23.7253 14.1332 23.7029 14.1154 23.6804C13.9813 23.5096 13.8475 23.3279 13.7159 23.135C12.5541 22.2139 11.3348 20.9462 10.4039 19.334C10.1044 18.8152 9.86087 18.3123 9.66467 17.8283ZM23.516 19.334C23.8137 18.8184 24.0561 18.3185 24.2516 17.8372C24.4274 17.8998 24.6227 17.914 24.8178 17.8677C26.1884 17.5417 27.2641 17.6461 27.912 17.7887C27.5948 18.7928 26.6622 20.6722 23.9619 22.2355C22.4219 23.1271 20.9914 23.5505 19.7484 23.7515C19.7672 23.728 19.786 23.7043 19.8048 23.6804C19.9391 23.5095 20.073 23.3276 20.2048 23.1344C21.3663 22.2133 22.5853 20.9459 23.516 19.334ZM16.9847 23.7033L16.9601 23.7225L16.9356 23.7033C16.6011 23.4399 16.1457 23.0271 15.688 22.4446C14.7808 21.2902 13.8433 19.445 13.8433 16.6993C13.8433 12.5818 15.9653 10.4601 16.9601 9.67672C17.955 10.4601 20.077 12.5818 20.077 16.6993C20.077 19.445 19.1395 21.2902 18.2323 22.4446C17.7745 23.0271 17.3192 23.4399 16.9847 23.7033Z" fill="#1C1B1F"/>
</svg>
