<svg width="33" height="33" viewBox="0 0 33 33" fill="none" xmlns="http://www.w3.org/2000/svg">
<path fill-rule="evenodd" clip-rule="evenodd" d="M15.5051 13.6922C14.6456 11.8643 13.7593 9.62381 13.7593 8.14296C13.7593 7.25183 14.1133 6.3972 14.7434 5.76708C15.3735 5.13696 16.2282 4.78296 17.1193 4.78296C18.0104 4.78296 18.865 5.13696 19.4952 5.76708C20.1253 6.3972 20.4793 7.25183 20.4793 8.14296C20.4793 9.62364 19.5932 11.8638 18.7338 13.6915C18.2548 13.4288 17.7049 13.2793 17.12 13.2793C16.5347 13.2793 15.9843 13.429 15.5051 13.6922ZM15.2487 13.8483C14.0937 12.1806 12.5932 10.288 11.3116 9.559C10.5454 9.1702 9.65933 9.0897 8.8356 9.33406C8.01186 9.57842 7.31304 10.1291 6.88278 10.8728C6.45252 11.6165 6.32354 12.4968 6.52233 13.3327C6.72112 14.1686 7.23259 14.8966 7.95159 15.367C9.25959 16.123 11.7196 16.483 13.7596 16.639L13.7603 16.6379C13.7606 15.4756 14.3513 14.4512 15.2487 13.8483ZM13.7748 16.9535L13.7594 16.927C11.7194 17.083 9.25939 17.443 7.95139 18.199C7.54406 18.4057 7.18316 18.6933 6.89072 19.0441C6.59828 19.395 6.38046 19.8018 6.25056 20.2398C6.12066 20.6777 6.08141 21.1375 6.1352 21.591C6.189 22.0446 6.33471 22.4825 6.56344 22.8779C6.79216 23.2732 7.0991 23.6178 7.4655 23.8906C7.8319 24.1633 8.25006 24.3585 8.69443 24.4642C9.1388 24.5698 9.60006 24.5838 10.05 24.5052C10.5 24.4266 10.9292 24.2571 11.3114 24.007C12.6194 23.263 14.1554 21.307 15.3194 19.615L15.1875 19.3877C14.4048 18.8364 13.8681 17.9592 13.7748 16.9535ZM15.871 19.7589H15.5593C14.6833 21.6069 13.7593 23.9109 13.7593 25.4229C13.7593 26.314 14.1133 27.1687 14.7434 27.7988C15.3735 28.4289 16.2282 28.7829 17.1193 28.7829C18.0104 28.7829 18.865 28.4289 19.4952 27.7988C20.1253 27.1687 20.4793 26.314 20.4793 25.4229C20.4793 23.9109 19.5553 21.6069 18.6793 19.7589H18.369C17.9829 19.9136 17.5614 19.9987 17.12 19.9987C16.6786 19.9987 16.2571 19.9136 15.871 19.7589ZM19.0506 19.389L18.9194 19.615C20.0834 21.307 21.6194 23.263 22.9274 24.007C23.6936 24.3958 24.5797 24.4763 25.4034 24.232C26.2272 23.9876 26.926 23.437 27.3563 22.6932C27.7865 21.9495 27.9155 21.0692 27.7167 20.2333C27.5179 19.3974 27.0064 18.6694 26.2874 18.199C24.9794 17.443 22.5194 17.083 20.4794 16.927L20.4654 16.9512C20.3726 17.9587 19.8349 18.8374 19.0506 19.389ZM20.4797 16.639C22.5197 16.483 24.9795 16.123 26.2874 15.367C27.0064 14.8966 27.5179 14.1686 27.7167 13.3327C27.9155 12.4968 27.7865 11.6165 27.3563 10.8728C26.926 10.1291 26.2272 9.57842 25.4034 9.33406C24.5797 9.0897 23.6936 9.1702 22.9274 9.559C21.6459 10.2879 20.1456 12.1802 18.9906 13.8478C19.8887 14.4509 20.4797 15.4759 20.4797 16.639Z" fill="#1C1B1F"/>
</svg>
