<svg width="33" height="33" viewBox="0 0 33 33" fill="none" xmlns="http://www.w3.org/2000/svg">
<path d="M21.3315 22.4692L21.7494 24.9978" stroke="#1C1B1F" stroke-width="2" stroke-linecap="round" stroke-linejoin="round"/>
<path d="M16.96 22.8228V26.2513" stroke="#1C1B1F" stroke-width="2" stroke-linecap="round" stroke-linejoin="round"/>
<path d="M12.5888 22.4692L12.1709 24.9978" stroke="#1C1B1F" stroke-width="2" stroke-linecap="round" stroke-linejoin="round"/>
<path d="M22.21 9.6228C26.2064 10.4585 28.96 12.2157 28.96 14.2514C28.96 17.0907 23.5921 19.3942 16.96 19.3942C10.3278 19.3942 4.95996 17.0907 4.95996 14.2514C4.95996 12.2157 7.73496 10.4478 11.7528 9.6228" stroke="#1C1B1F" stroke-width="2" stroke-linecap="round" stroke-linejoin="round"/>
<path fill-rule="evenodd" clip-rule="evenodd" d="M22.046 13.3946C22.1981 13.3403 22.3141 13.2137 22.3485 13.0559C22.4317 12.6735 22.4755 12.2764 22.4755 11.8691C22.4755 8.80136 19.9886 6.31445 16.9209 6.31445C13.8531 6.31445 11.3662 8.80136 11.3662 11.8691C11.3662 12.2759 11.4099 12.6724 11.4929 13.0543C11.5273 13.2126 11.6437 13.3394 11.7964 13.3935C15.038 14.5433 18.5587 14.6414 22.046 13.3946Z" fill="#1C1B1F"/>
<path d="M11.7964 13.3935L11.4621 14.336L11.7964 13.3935ZM22.3485 13.0559L21.3713 12.8433L22.3485 13.0559ZM22.046 13.3946L21.7094 12.453L22.046 13.3946ZM21.4755 11.8691C21.4755 12.2045 21.4394 12.5303 21.3713 12.8433L23.3256 13.2686C23.4239 12.8168 23.4755 12.3484 23.4755 11.8691H21.4755ZM16.9209 7.31445C19.4363 7.31445 21.4755 9.35364 21.4755 11.8691H23.4755C23.4755 8.24907 20.5409 5.31445 16.9209 5.31445V7.31445ZM12.3662 11.8691C12.3662 9.35364 14.4054 7.31445 16.9209 7.31445V5.31445C13.3008 5.31445 10.3662 8.24907 10.3662 11.8691H12.3662ZM12.4701 12.842C12.4022 12.5294 12.3662 12.204 12.3662 11.8691H10.3662C10.3662 12.3477 10.4177 12.8155 10.5158 13.2667L12.4701 12.842ZM11.4621 14.336C14.9093 15.5587 18.6674 15.6646 22.3827 14.3363L21.7094 12.453C18.4501 13.6183 15.1666 13.5279 12.1307 12.4511L11.4621 14.336ZM10.5158 13.2667C10.6273 13.78 10.9998 14.172 11.4621 14.336L12.1307 12.4511C12.2877 12.5067 12.4274 12.6452 12.4701 12.842L10.5158 13.2667ZM21.3713 12.8433C21.4141 12.6467 21.5533 12.5088 21.7094 12.453L22.3827 14.3363C22.8429 14.1717 23.2141 13.7807 23.3256 13.2686L21.3713 12.8433Z" fill="#1C1B1F"/>
</svg>
