<svg width="32" height="33" viewBox="0 0 32 33" fill="none" xmlns="http://www.w3.org/2000/svg">
<path fill-rule="evenodd" clip-rule="evenodd" d="M24.0089 13.227C23.9722 13.3842 23.8564 13.5108 23.7046 13.5659C18.4279 15.4837 13.0961 15.3304 8.19754 13.5642C8.04516 13.5093 7.92917 13.3826 7.89234 13.2249C7.75065 12.6181 7.67572 11.9857 7.67572 11.3357C7.67572 10.7339 7.73996 10.1471 7.86196 9.5818C6.25414 10.0483 4.91371 10.6428 3.91749 11.3089C2.53825 12.2309 1.99951 13.1559 1.99951 13.938C1.99951 14.4873 2.25491 15.0942 2.88941 15.7375C3.52815 16.385 4.50209 17.0142 5.78482 17.5641C8.34672 18.6626 11.9568 19.3666 15.9997 19.3666C20.0427 19.3666 23.6528 18.6626 26.2147 17.5641C27.4974 17.0142 28.4713 16.385 29.1101 15.7375C29.7446 15.0942 30 14.4873 30 13.938C30 13.1533 29.4647 12.2317 28.0968 11.3126C27.0777 10.6279 25.6952 10.018 24.0312 9.54257C24.1588 10.1199 24.226 10.72 24.226 11.3357C24.226 11.9864 24.1509 12.6196 24.0089 13.227ZM23.1526 7.25682C25.5669 7.79781 27.6677 8.61472 29.2122 9.65252C30.8142 10.729 32 12.178 32 13.938C32 15.1632 31.4166 16.2471 30.5339 17.142C29.6555 18.0325 28.4338 18.7888 27.0028 19.4023C24.1371 20.6309 20.2471 21.3666 15.9997 21.3666C11.7524 21.3666 7.86234 20.6309 4.99671 19.4023C3.56566 18.7888 2.34398 18.0325 1.46554 17.142C0.582853 16.2471 -0.000488281 15.1632 -0.000488281 13.938C-0.000488281 12.1753 1.19518 10.723 2.80594 9.64619C4.32301 8.63198 6.37307 7.82949 8.72818 7.29399C10.1449 4.76777 12.8485 3.06055 15.9509 3.06055C19.038 3.06055 21.7303 4.75104 23.1526 7.25682ZM11.5226 24.3735C11.6127 23.8286 11.2439 23.3139 10.6991 23.2239C10.1542 23.1338 9.63944 23.5026 9.54939 24.0474L9.02694 27.2089C8.9369 27.7538 9.30562 28.2686 9.85052 28.3586C10.3954 28.4486 10.9101 28.0799 11.0002 27.535L11.5226 24.3735ZM21.301 23.2239C21.8459 23.1338 22.3606 23.5026 22.4507 24.0474L22.9731 27.2089C23.0632 27.7538 22.6945 28.2686 22.1496 28.3586C21.6047 28.4486 21.0899 28.0799 20.9999 27.535L20.4774 24.3735C20.3874 23.8286 20.7561 23.3139 21.301 23.2239ZM15.9995 23.6525C16.5518 23.6525 16.9995 24.1002 16.9995 24.6525V28.9393C16.9995 29.4916 16.5518 29.9393 15.9995 29.9393C15.4472 29.9393 14.9995 29.4916 14.9995 28.9393V24.6525C14.9995 24.1002 15.4472 23.6525 15.9995 23.6525Z" fill="#111827"/>
</svg>
