<svg width="32" height="32" viewBox="0 0 32 32" fill="none" xmlns="http://www.w3.org/2000/svg">
<path fill-rule="evenodd" clip-rule="evenodd" d="M24.0089 12.727C23.9722 12.8842 23.8564 13.0108 23.7046 13.0659C18.4279 14.9837 13.0961 14.8304 8.19754 13.0642C8.04516 13.0093 7.92917 12.8826 7.89234 12.7249C7.75065 12.1181 7.67572 11.4857 7.67572 10.8357C7.67572 10.2339 7.73996 9.64711 7.86196 9.0818C6.25414 9.54835 4.91371 10.1428 3.91749 10.8089C2.53825 11.7309 1.99951 12.6559 1.99951 13.438C1.99951 13.9873 2.25491 14.5942 2.88941 15.2375C3.52815 15.885 4.50209 16.5142 5.78482 17.0641C8.34672 18.1626 11.9568 18.8666 15.9997 18.8666C20.0427 18.8666 23.6528 18.1626 26.2147 17.0641C27.4974 16.5142 28.4713 15.885 29.1101 15.2375C29.7446 14.5942 30 13.9873 30 13.438C30 12.6533 29.4647 11.7317 28.0968 10.8126C27.0777 10.1279 25.6952 9.51799 24.0312 9.04257C24.1588 9.61994 24.226 10.22 24.226 10.8357C24.226 11.4864 24.1509 12.1196 24.0089 12.727ZM23.1526 6.75682C25.5669 7.29781 27.6677 8.11472 29.2122 9.15252C30.8142 10.229 32 11.678 32 13.438C32 14.6632 31.4166 15.7471 30.5339 16.642C29.6555 17.5325 28.4338 18.2888 27.0028 18.9023C24.1371 20.1309 20.2471 20.8666 15.9997 20.8666C11.7524 20.8666 7.86234 20.1309 4.99671 18.9023C3.56566 18.2888 2.34398 17.5325 1.46554 16.642C0.582853 15.7471 -0.000488281 14.6632 -0.000488281 13.438C-0.000488281 11.6753 1.19518 10.223 2.80594 9.14619C4.32301 8.13198 6.37307 7.32949 8.72818 6.79399C10.1449 4.26777 12.8485 2.56055 15.9509 2.56055C19.038 2.56055 21.7303 4.25104 23.1526 6.75682ZM11.5226 23.8735C11.6127 23.3286 11.2439 22.8139 10.6991 22.7239C10.1542 22.6338 9.63944 23.0026 9.54939 23.5474L9.02694 26.7089C8.9369 27.2538 9.30562 27.7686 9.85052 27.8586C10.3954 27.9486 10.9101 27.5799 11.0002 27.035L11.5226 23.8735ZM21.301 22.7239C21.8459 22.6338 22.3606 23.0026 22.4507 23.5474L22.9731 26.7089C23.0632 27.2538 22.6945 27.7686 22.1496 27.8586C21.6047 27.9486 21.0899 27.5799 20.9999 27.035L20.4774 23.8735C20.3874 23.3286 20.7561 22.8139 21.301 22.7239ZM15.9995 23.1525C16.5518 23.1525 16.9995 23.6002 16.9995 24.1525V28.4393C16.9995 28.9916 16.5518 29.4393 15.9995 29.4393C15.4472 29.4393 14.9995 28.9916 14.9995 28.4393V24.1525C14.9995 23.6002 15.4472 23.1525 15.9995 23.1525Z" fill="#111827"/>
</svg>
