<svg width="32" height="32" viewBox="0 0 32 32" fill="none" xmlns="http://www.w3.org/2000/svg">
<path fill-rule="evenodd" clip-rule="evenodd" d="M0.000976562 3.98145C0.000976562 3.42916 0.448692 2.98145 1.00098 2.98145H11.0004C11.2518 2.98145 11.4939 3.07613 11.6786 3.24664L16.3909 7.59638H30.9991C31.5514 7.59638 31.9991 8.0441 31.9991 8.59638V12.1478C31.9991 12.7001 31.5514 13.1478 30.9991 13.1478C30.4469 13.1478 29.9991 12.7001 29.9991 12.1478V9.59638H16.0001C15.7383 9.59638 15.5001 9.49584 15.3219 9.33127L15.3218 9.33136L10.6094 4.98145H2.00098V8.59638V8.59655V27.0184H12.9625C13.5148 27.0184 13.9625 27.4662 13.9625 28.0184C13.9625 28.5707 13.5148 29.0184 12.9625 29.0184H1.00098C0.448692 29.0184 0.000976562 28.5707 0.000976562 28.0184V8.59655V8.59638V3.98145ZM23.0647 15.3551L21.4644 18.7997C21.3867 18.967 21.2232 19.0779 21.039 19.0883L17.2048 19.3043C16.7601 19.3294 16.5676 19.8795 16.8997 20.1763L20.0048 22.9516C20.1526 23.0837 20.2084 23.2907 20.147 23.4792L19.0726 26.7793C18.9307 27.215 19.4009 27.5962 19.7979 27.3672L23.2959 25.349C23.456 25.2567 23.6541 25.2602 23.8108 25.3581L27.0083 27.3566C27.3909 27.5957 27.8695 27.2457 27.7577 26.8086L26.9011 23.4603C26.8553 23.2811 26.9122 23.0911 27.049 22.9666L30.1151 20.1768C30.4433 19.8781 30.2487 19.3316 29.8056 19.3077L25.7563 19.0888C25.561 19.0782 25.3897 18.9547 25.3181 18.7727L23.9834 15.3826C23.8224 14.9736 23.2499 14.9564 23.0647 15.3551Z" fill="#111827"/>
</svg>
