<svg width="33" height="33" viewBox="0 0 33 33" fill="none" xmlns="http://www.w3.org/2000/svg">
<path fill-rule="evenodd" clip-rule="evenodd" d="M3.95996 7.05212C3.95996 6.49984 4.40768 6.05212 4.95996 6.05212H12.3446C12.6098 6.05212 12.8641 6.15748 13.0517 6.34502L16.4511 9.74445H27.1138C27.6661 9.74445 28.1138 10.1922 28.1138 10.7444V14.4368H28.1737C28.856 14.4368 29.3379 15.105 29.1225 15.7524L25.8733 25.519H25.8706C25.8677 26.0688 25.4211 26.5137 24.8706 26.5137H4.95996C4.40768 26.5137 3.95996 26.066 3.95996 25.5137V10.7444V10.7444V7.05212ZM5.95996 23.1203L8.39553 17.2912C8.55102 16.919 8.91488 16.6767 9.31822 16.6767H15.4635C15.6785 16.6767 15.8878 16.6074 16.0603 16.4791L18.5404 14.6344C18.7129 14.5061 18.9222 14.4368 19.1372 14.4368H26.1138V11.7444H16.0369C15.7591 11.7444 15.5078 11.6312 15.3266 11.4483L11.9304 8.05212H5.95996V10.7444V10.7444V23.1203Z" fill="#1C1B1F"/>
</svg>
