<svg width="33" height="32" viewBox="0 0 33 32" fill="none" xmlns="http://www.w3.org/2000/svg">
<path fill-rule="evenodd" clip-rule="evenodd" d="M1.99854 3.68243C1.44625 3.68243 0.998535 4.13015 0.998535 4.68243V9.40946V12.7114C0.998535 12.7349 0.999341 12.7581 1.00093 12.7811H1.00092V27.3176C1.00092 27.8699 1.44863 28.3176 2.00091 28.3176H29.7657H32.0009C32.5532 28.3176 33.0009 27.8699 33.0009 27.3176V14.1472V9.43471C33.0009 8.88242 32.5532 8.43471 32.0009 8.43471H16.8903L12.3371 3.96854C12.1501 3.78516 11.8987 3.68243 11.6368 3.68243H1.99854ZM14.8087 9.19445L11.2283 5.68243H2.99854V9.40946V11.7114H11.3271L14.0466 9.84809L14.8087 9.19445ZM12.0315 19.7006C12.0315 19.1483 12.4792 18.7006 13.0315 18.7006H21.019C21.5713 18.7006 22.019 19.1483 22.019 19.7006C22.019 20.2529 21.5713 20.7006 21.019 20.7006H13.0315C12.4792 20.7006 12.0315 20.2529 12.0315 19.7006Z" fill="#111827"/>
</svg>
