<svg width="32" height="32" viewBox="0 0 32 32" fill="none" xmlns="http://www.w3.org/2000/svg">
<path fill-rule="evenodd" clip-rule="evenodd" d="M16.391 8.61536H31C31.5523 8.61536 32 9.06308 32 9.61536V27.3077C32 27.86 31.5523 28.3077 31 28.3077H1C0.447715 28.3077 0 27.86 0 27.3077V4.69226C0 4.13998 0.447715 3.69226 1 3.69226H10.2757C10.5271 3.69226 10.7692 3.78695 10.954 3.95746L15.7127 8.35016C15.8974 8.52068 16.1396 8.61536 16.391 8.61536ZM16.0002 13C16.5525 13 17.0002 13.4477 17.0002 14V17H20.0002C20.5525 17 21.0002 17.4477 21.0002 18C21.0002 18.5523 20.5525 19 20.0002 19H17.0002V22C17.0002 22.5523 16.5525 23 16.0002 23C15.4479 23 15.0002 22.5523 15.0002 22V19H12.0002C11.4479 19 11.0002 18.5523 11.0002 18C11.0002 17.4477 11.4479 17 12.0002 17H15.0002V14C15.0002 13.4477 15.4479 13 16.0002 13Z" fill="#111827"/>
</svg>
