<svg width="33" height="33" viewBox="0 0 33 33" fill="none" xmlns="http://www.w3.org/2000/svg">
<path fill-rule="evenodd" clip-rule="evenodd" d="M4.95996 5.28296C4.40768 5.28296 3.95996 5.73067 3.95996 6.28296V10.283V26.283C3.95996 26.8352 4.40768 27.283 4.95996 27.283H14.9509C15.5032 27.283 15.9509 26.8352 15.9509 26.283C15.9509 25.7307 15.5032 25.283 14.9509 25.283H5.95996V11.283H16.96H27.96V13.2987C27.96 13.851 28.4077 14.2987 28.96 14.2987C29.5122 14.2987 29.96 13.851 29.96 13.2987V10.283C29.96 9.73067 29.5122 9.28296 28.96 9.28296H17.3742L13.6671 5.57585C13.4795 5.38832 13.2252 5.28296 12.96 5.28296H4.95996ZM14.5457 9.28296L12.5457 7.28296H5.95996V9.28296H14.5457ZM18.3975 20.8282C18.3975 20.276 18.8452 19.8282 19.3975 19.8282H20.96V19.283C20.96 17.35 22.527 15.783 24.46 15.783C26.393 15.783 27.96 17.35 27.96 19.283V19.8282H29.522C30.0743 19.8282 30.522 20.276 30.522 20.8282V26.2377C30.522 26.79 30.0743 27.2377 29.522 27.2377H19.3975C18.8452 27.2377 18.3975 26.79 18.3975 26.2377V20.8282ZM22.96 19.283C22.96 18.4545 23.6315 17.783 24.46 17.783C25.2884 17.783 25.96 18.4545 25.96 19.283V19.783H22.96V19.283Z" fill="#1C1B1F"/>
</svg>
