<svg width="32" height="32" viewBox="0 0 32 32" fill="none" xmlns="http://www.w3.org/2000/svg">
<path fill-rule="evenodd" clip-rule="evenodd" d="M1.00189 3.68256C0.449607 3.68256 0.00189209 4.13027 0.00189209 4.68256V9.40958V12.7115C0.00189209 12.735 0.00269768 12.7582 0.00428266 12.7812H0V27.3177C0 27.87 0.447714 28.3177 0.999999 28.3177H28.7648H31C31.5523 28.3177 32 27.87 32 27.3177V14.1473V9.43483C32 8.88254 31.5523 8.43483 31 8.43483H15.8895L11.3377 3.96876C11.1507 3.78532 10.8993 3.68256 10.6373 3.68256H1.00189ZM13.808 9.19444L10.2287 5.68256H2.00189V9.40958V11.7115H10.3275L13.0435 9.85007L13.808 9.19444Z" fill="#111827"/>
</svg>
