<svg width="32" height="32" viewBox="0 0 32 32" fill="none" xmlns="http://www.w3.org/2000/svg">
<path fill-rule="evenodd" clip-rule="evenodd" d="M1.00293 2.69751C0.450645 2.69751 0.00292969 3.14522 0.00292969 3.69751V8.81864H0V28.3025C0 28.8548 0.447715 29.3025 1 29.3025H31C31.5523 29.3025 32 28.8548 32 28.3025V9.81864C32 9.26636 31.5523 8.81864 31 8.81864H16.9742L12.1954 3.05898C12.0054 2.83 11.7234 2.69751 11.4258 2.69751H1.00293ZM14.3754 8.81864L10.9561 4.69751H2.00293V8.81864H14.3754ZM11.0002 19.0605C11.0002 18.5082 11.4479 18.0605 12.0002 18.0605H20.0015C20.5538 18.0605 21.0015 18.5082 21.0015 19.0605C21.0015 19.6128 20.5538 20.0605 20.0015 20.0605H12.0002C11.4479 20.0605 11.0002 19.6128 11.0002 19.0605Z" fill="#111827"/>
</svg>
