<svg width="32" height="32" viewBox="0 0 32 32" fill="none" xmlns="http://www.w3.org/2000/svg">
<path fill-rule="evenodd" clip-rule="evenodd" d="M1.50098 3.46228C0.672551 3.46228 0.000976562 4.13385 0.000976562 4.96228V9.07734V9.07739V11.3849C0.000976562 11.9372 0.448692 12.3849 1.00098 12.3849C1.55326 12.3849 2.00098 11.9372 2.00098 11.3849V9.07739V9.07734V5.46228H10.6094L15.3218 9.81219L15.3218 9.81217C15.5 9.97677 15.7383 10.0773 16.0001 10.0773H17.8749C18.4272 10.0773 18.8749 9.62963 18.8749 9.07734C18.8749 8.52506 18.4272 8.07734 17.8749 8.07734H16.391L11.8223 3.86008C11.5452 3.60431 11.182 3.46228 10.8049 3.46228H1.50098ZM21.6247 8.07734C21.0724 8.07734 20.6247 8.52506 20.6247 9.07734C20.6247 9.62963 21.0724 10.0773 21.6247 10.0773H25.3745C25.9268 10.0773 26.3745 9.62963 26.3745 9.07734C26.3745 8.52506 25.9268 8.07734 25.3745 8.07734H21.6247ZM29.1243 8.07734C28.572 8.07734 28.1243 8.52506 28.1243 9.07734C28.1243 9.62963 28.572 10.0773 29.1243 10.0773H29.9991V11.4049C29.9991 11.9571 30.4469 12.4049 30.9991 12.4049C31.5514 12.4049 31.9991 11.9571 31.9991 11.4049V9.07734C31.9991 8.52506 31.5514 8.07734 30.9991 8.07734H29.1243ZM2.00098 16C2.00098 15.4477 1.55326 15 1.00098 15C0.448692 15 0.000976562 15.4477 0.000976562 16V20.6151C0.000976562 21.1674 0.448692 21.6151 1.00098 21.6151C1.55326 21.6151 2.00098 21.1674 2.00098 20.6151V16ZM31.9991 16.0599C31.9991 15.5076 31.5514 15.0599 30.9991 15.0599C30.4469 15.0599 29.9991 15.5076 29.9991 16.0599V18.3874V20.675C29.9991 21.2273 30.4469 21.675 30.9991 21.675C31.5514 21.675 31.9991 21.2273 31.9991 20.675V18.3874V16.0599ZM2.00098 25.2302C2.00098 24.6779 1.55326 24.2302 1.00098 24.2302C0.448692 24.2302 0.000976562 24.6779 0.000976562 25.2302V27.5378C0.000976562 28.0901 0.448692 28.5378 1.00098 28.5378H3.39118C3.94347 28.5378 4.39118 28.0901 4.39118 27.5378C4.39118 26.9855 3.94347 26.5378 3.39118 26.5378H2.00098V25.2302ZM31.9991 25.2502C31.9991 24.6979 31.5514 24.2502 30.9991 24.2502C30.4469 24.2502 29.9991 24.6979 29.9991 25.2502V26.5378H28.28C27.7277 26.5378 27.28 26.9855 27.28 27.5378C27.28 28.0901 27.7277 28.5378 28.28 28.5378H30.9991C31.5514 28.5378 31.9991 28.0901 31.9991 27.5378V25.2502ZM8.17159 26.5378C7.61931 26.5378 7.17159 26.9855 7.17159 27.5378C7.17159 28.0901 7.61931 28.5378 8.17159 28.5378H12.952C13.5043 28.5378 13.952 28.0901 13.952 27.5378C13.952 26.9855 13.5043 26.5378 12.952 26.5378H8.17159ZM17.7324 26.5378C17.1801 26.5378 16.7324 26.9855 16.7324 27.5378C16.7324 28.0901 17.1801 28.5378 17.7324 28.5378H20.1226H22.8417C23.394 28.5378 23.8417 28.0901 23.8417 27.5378C23.8417 26.9855 23.394 26.5378 22.8417 26.5378H20.1226H17.7324Z" fill="#111827"/>
</svg>
