<svg width="32" height="32" viewBox="0 0 32 32" fill="none" xmlns="http://www.w3.org/2000/svg">
<path fill-rule="evenodd" clip-rule="evenodd" d="M1 2.90356C0.447715 2.90356 0 3.35128 0 3.90356V9.37378H0.236126V28.0961C0.236126 28.6484 0.683841 29.0961 1.23613 29.0961H13.6265C14.1788 29.0961 14.6265 28.6484 14.6265 28.0961C14.6265 27.5438 14.1788 27.0961 13.6265 27.0961H2.23613V9.37378H19.4925L19.3717 9.25356H30V11.9935C30 12.5458 30.4477 12.9935 31 12.9935C31.5523 12.9935 32 12.5458 32 11.9935V8.25356C32 7.70127 31.5523 7.25356 31 7.25356H17.3633L13.2876 3.19497C13.1002 3.00834 12.8465 2.90356 12.582 2.90356H1ZM21.5401 18.9473L23.1231 15.5399C23.3083 15.1413 23.8808 15.1584 24.0418 15.5674L25.3618 18.9203C25.4335 19.1023 25.6047 19.2258 25.8001 19.2364L29.8059 19.4529C30.249 19.4769 30.4436 20.0233 30.1154 20.322L27.0819 23.0822C26.945 23.2067 26.8882 23.3967 26.934 23.5759L27.7809 26.8864C27.8927 27.3235 27.4141 27.6734 27.0315 27.4343L23.8692 25.4579C23.7125 25.3599 23.5145 25.3564 23.3544 25.4488L19.8945 27.4449C19.4975 27.6739 19.0273 27.2927 19.1692 26.857L20.2313 23.5948C20.2927 23.4063 20.2369 23.1993 20.089 23.0672L17.0172 20.3216C16.6851 20.0248 16.8776 19.4746 17.3222 19.4496L21.1148 19.2359C21.2989 19.2255 21.4624 19.1146 21.5401 18.9473Z" fill="#111827"/>
</svg>
