<svg width="32" height="32" viewBox="0 0 32 32" fill="none" xmlns="http://www.w3.org/2000/svg">
<path fill-rule="evenodd" clip-rule="evenodd" d="M1.00146 2.69751C0.44918 2.69751 0.00146484 3.14522 0.00146484 3.69751V8.81846H0V28.3023C0 28.8546 0.447715 29.3023 1 29.3023H31C31.5523 29.3023 32 28.8546 32 28.3023V9.81846C32 9.26617 31.5523 8.81846 31 8.81846H16.974L12.1949 3.05894C12.0049 2.82998 11.7229 2.69751 11.4254 2.69751H1.00146ZM14.3752 8.81846L10.9557 4.69751H2.00146V8.81846H14.3752ZM12.0002 18.0603C11.4479 18.0603 11.0002 18.5081 11.0002 19.0603C11.0002 19.6126 11.4479 20.0603 12.0002 20.0603H15.0009V23.061C15.0009 23.6133 15.4486 24.061 16.0009 24.061C16.5531 24.061 17.0009 23.6133 17.0009 23.061V20.0603H20.0014C20.5537 20.0603 21.0014 19.6126 21.0014 19.0603C21.0014 18.5081 20.5537 18.0603 20.0014 18.0603H17.0009V15.0597C17.0009 14.5074 16.5531 14.0597 16.0009 14.0597C15.4486 14.0597 15.0009 14.5074 15.0009 15.0597V18.0603H12.0002Z" fill="#111827"/>
</svg>
