<svg width="33" height="33" viewBox="0 0 33 33" fill="none" xmlns="http://www.w3.org/2000/svg">
<path fill-rule="evenodd" clip-rule="evenodd" d="M5.45996 5.7829C4.90768 5.7829 4.45996 6.23061 4.45996 6.7829V11.6891C4.45996 11.7209 4.46145 11.7524 4.46436 11.7835V25.7829C4.46436 26.3352 4.91207 26.7829 5.46435 26.7829H28.4596C29.0119 26.7829 29.4596 26.3352 29.4596 25.7829V11.7829C29.4596 11.2306 29.0119 10.7829 28.4596 10.7829H18.0114L14.235 6.151C14.0451 5.91807 13.7605 5.7829 13.46 5.7829H5.45996ZM6.45996 10.6891V7.7829H12.985L15.3544 10.6891H6.45996ZM12.8378 18.7829C12.8378 18.2306 13.2855 17.7829 13.8378 17.7829H20.0876C20.6399 17.7829 21.0876 18.2306 21.0876 18.7829C21.0876 19.3352 20.6399 19.7829 20.0876 19.7829H13.8378C13.2855 19.7829 12.8378 19.3352 12.8378 18.7829Z" fill="#1C1B1F"/>
</svg>
