<svg width="32" height="32" viewBox="0 0 32 32" fill="none" xmlns="http://www.w3.org/2000/svg">
<path fill-rule="evenodd" clip-rule="evenodd" d="M1 2.90356C0.447715 2.90356 0 3.35128 0 3.90356V9.37378H0.236126V28.0961C0.236126 28.6484 0.683841 29.0961 1.23613 29.0961H13.6265C14.1788 29.0961 14.6265 28.6484 14.6265 28.0961C14.6265 27.5438 14.1788 27.0961 13.6265 27.0961H2.23613V9.37378H19.4925L19.3717 9.25356H30V11.9935C30 12.5458 30.4477 12.9935 31 12.9935C31.5523 12.9935 32 12.5458 32 11.9935V8.25356C32 7.70127 31.5523 7.25356 31 7.25356H17.3633L13.2876 3.19497C13.1002 3.00834 12.8465 2.90356 12.582 2.90356H1ZM24.803 23.1275C26.8524 23.1211 28.5118 21.4579 28.5118 19.407C28.5118 17.3523 26.846 15.6865 24.7913 15.6865C22.7365 15.6865 21.0708 17.3523 21.0708 19.407C21.0708 21.4578 22.73 23.121 24.7793 23.1275C22.3807 23.133 20.3813 24.8382 19.9218 27.1026C19.812 27.6438 20.2702 28.0961 20.8225 28.0961H28.7596C29.3119 28.0961 29.7701 27.6438 29.6603 27.1026C29.2008 24.8383 27.2015 23.1332 24.803 23.1275Z" fill="#111827"/>
</svg>
