<svg width="32" height="32" viewBox="0 0 32 32" fill="none" xmlns="http://www.w3.org/2000/svg">
<path fill-rule="evenodd" clip-rule="evenodd" d="M16.391 8.61536H31C31.5523 8.61536 32 9.06308 32 9.61536V27.3077C32 27.86 31.5523 28.3077 31 28.3077H1C0.447715 28.3077 0 27.86 0 27.3077V4.69226C0 4.13998 0.447715 3.69226 1 3.69226H10.2757C10.5271 3.69226 10.7692 3.78695 10.954 3.95746L15.7127 8.35016C15.8974 8.52068 16.1396 8.61536 16.391 8.61536ZM12 17.6666C11.4477 17.6666 11 18.1144 11 18.6666C11 19.2189 11.4477 19.6666 12 19.6666H20C20.5523 19.6666 21 19.2189 21 18.6666C21 18.1144 20.5523 17.6666 20 17.6666H12Z" fill="#111827"/>
</svg>
