<svg width="32" height="32" viewBox="0 0 32 32" fill="none" xmlns="http://www.w3.org/2000/svg">
<path fill-rule="evenodd" clip-rule="evenodd" d="M1.00061 3.68256C0.448326 3.68256 0.000610352 4.13027 0.000610352 4.68256V9.40958V12.7115C0.000610352 12.735 0.00141594 12.7582 0.00300092 12.7812H0V27.3177C0 27.87 0.447714 28.3177 0.999999 28.3177H28.7648H31C31.5523 28.3177 32 27.87 32 27.3177V14.1473V9.43483C32 8.88254 31.5523 8.43483 31 8.43483H15.8894L11.3372 3.96873C11.1503 3.78531 10.8988 3.68256 10.6369 3.68256H1.00061ZM13.8079 9.19448L10.2283 5.68256H2.00061V9.40958V11.7115H10.3271L13.0442 9.84952L13.8079 9.19448ZM12.0305 18.7007C11.4783 18.7007 11.0305 19.1485 11.0305 19.7007C11.0305 20.253 11.4783 20.7007 12.0305 20.7007H15.0242V23.6945C15.0242 24.2468 15.472 24.6945 16.0242 24.6945C16.5765 24.6945 17.0242 24.2468 17.0242 23.6945V20.7007H20.0181C20.5704 20.7007 21.0181 20.253 21.0181 19.7007C21.0181 19.1485 20.5704 18.7007 20.0181 18.7007H17.0242V15.7069C17.0242 15.1547 16.5765 14.7069 16.0242 14.7069C15.472 14.7069 15.0242 15.1547 15.0242 15.7069V18.7007H12.0305Z" fill="#111827"/>
</svg>
