<svg width="33" height="33" viewBox="0 0 33 33" fill="none" xmlns="http://www.w3.org/2000/svg">
<path fill-rule="evenodd" clip-rule="evenodd" d="M17.3509 10.7444H27.9599C28.5122 10.7444 28.9599 11.1922 28.9599 11.7444V24.5137C28.9599 25.066 28.5122 25.5137 27.9599 25.5137H5.95996C5.40768 25.5137 4.95996 25.066 4.95996 24.5137V8.05212C4.95996 7.49984 5.40768 7.05212 5.95996 7.05212H12.569C12.8204 7.05212 13.0625 7.14681 13.2472 7.31732L16.6727 10.4792C16.8574 10.6498 17.0995 10.7444 17.3509 10.7444ZM16.96 13.7829C17.5122 13.7829 17.96 14.2306 17.96 14.7829V16.7829H19.96C20.5122 16.7829 20.96 17.2306 20.96 17.7829C20.96 18.3352 20.5122 18.7829 19.96 18.7829H17.96V20.7829C17.96 21.3352 17.5122 21.7829 16.96 21.7829C16.4077 21.7829 15.96 21.3352 15.96 20.7829V18.7829H13.96C13.4077 18.7829 12.96 18.3352 12.96 17.7829C12.96 17.2306 13.4077 16.7829 13.96 16.7829H15.96V14.7829C15.96 14.2306 16.4077 13.7829 16.96 13.7829Z" fill="#1C1B1F"/>
</svg>
