<svg width="32" height="32" viewBox="0 0 32 32" fill="none" xmlns="http://www.w3.org/2000/svg">
<path fill-rule="evenodd" clip-rule="evenodd" d="M0.998535 2.97937C0.44625 2.97937 -0.00146484 3.42709 -0.00146484 3.97937V8.5951V8.5953V28.0206C-0.00146484 28.5729 0.44625 29.0206 0.998535 29.0206H14.2124C14.7646 29.0206 15.2124 28.5729 15.2124 28.0206C15.2124 27.4683 14.7646 27.0206 14.2124 27.0206H1.99854V8.5953V8.5951V4.97937H10.6087L15.322 9.3301L15.3221 9.33C15.5003 9.49456 15.7386 9.5951 16.0003 9.5951H30.002V12.1472C30.002 12.6995 30.4498 13.1472 31.002 13.1472C31.5543 13.1472 32.002 12.6995 32.002 12.1472V8.5951C32.002 8.04282 31.5543 7.5951 31.002 7.5951H16.3911L11.678 3.24457C11.4933 3.07405 11.2511 2.97937 10.9997 2.97937H0.998535ZM24.7535 23.0119C26.8201 23.0065 28.4938 21.3295 28.4938 19.2615C28.4938 17.1902 26.8147 15.5111 24.7434 15.5111C22.6721 15.5111 20.993 17.1902 20.993 19.2615C20.993 21.3295 22.6667 23.0066 24.7334 23.0119C22.3119 23.0167 20.2938 24.7399 19.8335 27.0269C19.7245 27.5683 20.1826 28.0205 20.7349 28.0205H28.7521C29.3044 28.0205 29.7625 27.5683 29.6536 27.0269C29.1932 24.7398 27.175 23.0166 24.7535 23.0119Z" fill="#111827"/>
</svg>
