<svg width="33" height="33" viewBox="0 0 33 33" fill="none" xmlns="http://www.w3.org/2000/svg">
<path fill-rule="evenodd" clip-rule="evenodd" d="M4.96338 5.96899C4.41109 5.96899 3.96338 6.41671 3.96338 6.96899V10.1997C3.96112 10.2271 3.95996 10.2549 3.95996 10.283V26.283C3.95996 26.8352 4.40768 27.283 4.95996 27.283H14.9509C15.5032 27.283 15.9509 26.8352 15.9509 26.283C15.9509 25.7307 15.5032 25.283 14.9509 25.283H5.95996V11.283H27.96V13.2987C27.96 13.851 28.4077 14.2987 28.96 14.2987C29.5122 14.2987 29.96 13.851 29.96 13.2987V10.283C29.96 9.73067 29.5122 9.28296 28.96 9.28296H17.7698L14.7345 6.2604C14.5471 6.07377 14.2933 5.96899 14.0289 5.96899H4.96338ZM21.3569 18.8533L22.5138 16.3632C22.6989 15.9646 23.2714 15.9817 23.4324 16.3907L24.3913 18.8262C24.463 19.0082 24.6342 19.1317 24.8296 19.1423L27.7664 19.3011C28.2095 19.325 28.4041 19.8715 28.0759 20.1702L25.8442 22.2008C25.7073 22.3254 25.6504 22.5153 25.6963 22.6946L26.3048 25.0732C26.4166 25.5103 25.938 25.8603 25.5554 25.6212L23.2599 24.1865C23.1031 24.0885 22.9051 24.085 22.745 24.1774L20.2241 25.6318C19.8272 25.8608 19.3569 25.4796 19.4988 25.0439L20.2575 22.7134C20.3189 22.5249 20.2631 22.3179 20.1153 22.1858L17.8596 20.1697C17.5276 19.8729 17.72 19.3228 18.1647 19.2977L20.9316 19.1418C21.1157 19.1314 21.2792 19.0205 21.3569 18.8533Z" fill="#1C1B1F"/>
</svg>
