<svg width="32" height="32" viewBox="0 0 32 32" fill="none" xmlns="http://www.w3.org/2000/svg">
<path fill-rule="evenodd" clip-rule="evenodd" d="M1 2.7937C0.447715 2.7937 0 3.24142 0 3.7937V8.64462L0.000202656 8.66496V28.0484C0.000202656 28.6007 0.447918 29.0484 1.0002 29.0484H13.1165C13.6688 29.0484 14.1165 28.6007 14.1165 28.0484C14.1165 27.4961 13.6688 27.0484 13.1165 27.0484H2.0002V9.64474H29.1057V12.302C29.1057 12.8543 29.5534 13.302 30.1057 13.302C30.658 13.302 31.1057 12.8543 31.1057 12.302V8.64474C31.1057 8.09246 30.658 7.64474 30.1057 7.64474H15.9671L11.4089 3.08659C11.2214 2.89906 10.9671 2.7937 10.7018 2.7937H1ZM2 7.64462V4.7937H10.2876L13.1385 7.64462H2ZM17.296 21.2207C17.296 20.6684 17.7437 20.2207 18.296 20.2207H20.6167V19.5594C20.6167 17.3327 22.4218 15.5276 24.6485 15.5276C26.8752 15.5276 28.6803 17.3327 28.6803 19.5594V20.2207H30.9998C31.5521 20.2207 31.9998 20.6684 31.9998 21.2207V28.2063C31.9998 28.7586 31.5521 29.2063 30.9998 29.2063H18.296C17.7437 29.2063 17.296 28.7586 17.296 28.2063V21.2207ZM26.6803 20.2207V19.5594C26.6803 18.4372 25.7707 17.5276 24.6485 17.5276C23.5264 17.5276 22.6167 18.4372 22.6167 19.5594V20.2207H26.6803Z" fill="#111827"/>
</svg>
