<svg width="32" height="32" viewBox="0 0 32 32" fill="none" xmlns="http://www.w3.org/2000/svg">
<path fill-rule="evenodd" clip-rule="evenodd" d="M0 4.0899C0 3.53762 0.447715 3.0899 1 3.0899H10.528C10.7932 3.0899 11.0476 3.19526 11.2351 3.3828L15.7065 7.85416H29.584C30.1363 7.85416 30.584 8.30188 30.584 8.85416V13.6182H30.9992C31.6785 13.6182 32.1601 14.2809 31.9504 14.9269L27.6672 28.122C27.57 28.5725 27.1693 28.9102 26.6897 28.9102H1C0.447715 28.9102 0 28.4624 0 27.9102V8.85416V8.85391V4.0899ZM2 25.1134L5.48166 14.3114C5.61483 13.8982 5.99935 13.6182 6.43344 13.6182H28.584V9.85416H15.292C15.009 9.85416 14.7534 9.73658 14.5715 9.54759L10.1138 5.0899H2V8.85391V8.85416V25.1134Z" fill="#111827"/>
</svg>
