<svg width="33" height="33" viewBox="0 0 33 33" fill="none" xmlns="http://www.w3.org/2000/svg">
<path fill-rule="evenodd" clip-rule="evenodd" d="M4.95996 6.05212C4.40768 6.05212 3.95996 6.49984 3.95996 7.05212V10.7444V13.3236C3.95996 13.3572 3.96161 13.3903 3.96484 13.4231V24.5137C3.96484 25.066 4.41256 25.5137 4.96484 25.5137H26.4332H27.9602C28.5125 25.5137 28.9602 25.066 28.9602 24.5137V14.4451V10.9831C28.9602 10.4308 28.5125 9.98305 27.9602 9.98305H16.6897L13.0517 6.34502C12.8641 6.15748 12.6098 6.05212 12.3446 6.05212H4.95996ZM5.95996 10.7444V8.05212H11.9304L14.4861 10.6079L12.0299 12.3236H5.95996V10.7444ZM13.3619 17.7829C12.8096 17.7829 12.3619 18.2306 12.3619 18.7829C12.3619 19.3352 12.8096 19.7829 13.3619 19.7829H15.4814V21.9025C15.4814 22.4548 15.9292 22.9025 16.4814 22.9025C17.0337 22.9025 17.4814 22.4548 17.4814 21.9025V19.7829H19.6011C20.1533 19.7829 20.6011 19.3352 20.6011 18.7829C20.6011 18.2306 20.1533 17.7829 19.6011 17.7829H17.4814V15.6633C17.4814 15.1111 17.0337 14.6633 16.4814 14.6633C15.9292 14.6633 15.4814 15.1111 15.4814 15.6633V17.7829H13.3619Z" fill="#1C1B1F"/>
</svg>
