<svg width="34" height="32" viewBox="0 0 34 32" fill="none" xmlns="http://www.w3.org/2000/svg">
<path fill-rule="evenodd" clip-rule="evenodd" d="M1.99854 2.97937C1.44625 2.97937 0.998535 3.42709 0.998535 3.97937V8.5951V8.5953V28.0206C0.998535 28.5729 1.44625 29.0206 1.99854 29.0206H15.2124C15.7646 29.0206 16.2124 28.5729 16.2124 28.0206C16.2124 27.4683 15.7646 27.0206 15.2124 27.0206H2.99854V8.5953V8.5951V4.97937H11.6087L16.322 9.3301L16.3221 9.33C16.5003 9.49456 16.7386 9.5951 17.0003 9.5951H31.002V12.1472C31.002 12.6995 31.4498 13.1472 32.002 13.1472C32.5543 13.1472 33.002 12.6995 33.002 12.1472V8.5951C33.002 8.04282 32.5543 7.5951 32.002 7.5951H17.3911L12.678 3.24457C12.4933 3.07405 12.2511 2.97937 11.9997 2.97937H1.99854ZM25.7535 23.0119C27.8201 23.0065 29.4938 21.3295 29.4938 19.2615C29.4938 17.1902 27.8147 15.5111 25.7434 15.5111C23.6721 15.5111 21.993 17.1902 21.993 19.2615C21.993 21.3295 23.6667 23.0066 25.7334 23.0119C23.3119 23.0167 21.2938 24.7399 20.8335 27.0269C20.7245 27.5683 21.1826 28.0205 21.7349 28.0205H29.7521C30.3044 28.0205 30.7625 27.5683 30.6536 27.0269C30.1932 24.7398 28.175 23.0166 25.7535 23.0119Z" fill="#111827"/>
</svg>
