<svg width="32" height="32" viewBox="0 0 32 32" fill="none" xmlns="http://www.w3.org/2000/svg">
<path fill-rule="evenodd" clip-rule="evenodd" d="M1 3.26013C0.447715 3.26013 0 3.70785 0 4.26013V8.7379H0.000202656L0.000202656 8.73793V27.582C0.000202656 28.1343 0.447918 28.582 1.0002 28.582H12.6058C13.1581 28.582 13.6058 28.1343 13.6058 27.582C13.6058 27.0297 13.1581 26.582 12.6058 26.582H2.0002V8.73793L2 8.71759V5.26013H10.3108L14.8745 9.47271L14.8745 9.47262C15.0528 9.6373 15.2911 9.73793 15.5529 9.73793H29.1057V12.1837C29.1057 12.736 29.5534 13.1837 30.1057 13.1837C30.658 13.1837 31.1057 12.736 31.1057 12.1837V8.73793C31.1057 8.18564 30.658 7.73793 30.1057 7.73793H15.9438L11.3801 3.52533C11.1954 3.35482 10.9532 3.26013 10.7018 3.26013H1ZM17.296 20.7542C17.296 20.2019 17.7437 19.7542 18.296 19.7542H20.6167V19.0929C20.6167 16.8662 22.4218 15.0611 24.6485 15.0611C26.8752 15.0611 28.6803 16.8662 28.6803 19.0929V19.7542H30.9998C31.5521 19.7542 31.9998 20.2019 31.9998 20.7542V27.7398C31.9998 28.2921 31.5521 28.7398 30.9998 28.7398H18.296C17.7437 28.7398 17.296 28.2921 17.296 27.7398V20.7542ZM26.6803 19.7542V19.0929C26.6803 17.9707 25.7707 17.0611 24.6485 17.0611C23.5264 17.0611 22.6167 17.9707 22.6167 19.0929V19.7542H26.6803Z" fill="#111827"/>
</svg>
