<svg width="32" height="32" viewBox="0 0 32 32" fill="none" xmlns="http://www.w3.org/2000/svg">
<path fill-rule="evenodd" clip-rule="evenodd" d="M0.998535 3.68243C0.44625 3.68243 -0.00146484 4.13015 -0.00146484 4.68243V9.40946V12.7114C-0.00146484 12.7349 -0.000659256 12.7581 0.000925729 12.7811H0.000915527V27.3176C0.000915527 27.8699 0.448629 28.3176 1.00091 28.3176H28.7657H31.0009C31.5532 28.3176 32.0009 27.8699 32.0009 27.3176V14.1472V9.43471C32.0009 8.88242 31.5532 8.43471 31.0009 8.43471H15.8903L11.3371 3.96854C11.1501 3.78516 10.8987 3.68243 10.6368 3.68243H0.998535ZM13.8087 9.19445L10.2283 5.68243H1.99854V9.40946V11.7114H10.3271L13.0466 9.84809L13.8087 9.19445ZM11.0315 19.7006C11.0315 19.1483 11.4792 18.7006 12.0315 18.7006H20.019C20.5713 18.7006 21.019 19.1483 21.019 19.7006C21.019 20.2529 20.5713 20.7006 20.019 20.7006H12.0315C11.4792 20.7006 11.0315 20.2529 11.0315 19.7006Z" fill="#111827"/>
</svg>
