<svg width="32" height="32" viewBox="0 0 32 32" fill="none" xmlns="http://www.w3.org/2000/svg">
<path fill-rule="evenodd" clip-rule="evenodd" d="M1 2.91663C0.447715 2.91663 0 3.36434 0 3.91663V9.48345H0.24002V10.7236C0.24002 11.2759 0.687736 11.7236 1.24002 11.7236C1.79231 11.7236 2.24002 11.2759 2.24002 10.7236V9.48345H19.7005L18.8854 8.66835C18.9459 8.53943 18.9798 8.39547 18.9798 8.24361C18.9798 7.69133 18.5321 7.24361 17.9798 7.24361H17.4606L13.4265 3.20952C13.239 3.02198 12.9847 2.91663 12.7194 2.91663H1ZM21.6998 7.24361C21.1475 7.24361 20.6998 7.69133 20.6998 8.24361C20.6998 8.79589 21.1475 9.24361 21.6998 9.24361H25.4197C25.972 9.24361 26.4197 8.79589 26.4197 8.24361C26.4197 7.69133 25.972 7.24361 25.4197 7.24361H21.6998ZM29.1397 7.24361C28.5874 7.24361 28.1397 7.69133 28.1397 8.24361C28.1397 8.79589 28.5874 9.24361 29.1397 9.24361H29.9996V10.7236C29.9996 11.2759 30.4473 11.7236 30.9996 11.7236C31.5519 11.7236 31.9996 11.2759 31.9996 10.7236V8.24361C31.9996 7.69133 31.5519 7.24361 30.9996 7.24361H29.1397ZM2.24002 15.6835C2.24002 15.1312 1.79231 14.6835 1.24002 14.6835C0.687736 14.6835 0.24002 15.1312 0.24002 15.6835V20.6434C0.24002 21.1957 0.687736 21.6434 1.24002 21.6434C1.79231 21.6434 2.24002 21.1957 2.24002 20.6434V15.6835ZM31.9996 15.6835C31.9996 15.1312 31.5519 14.6835 30.9996 14.6835C30.4473 14.6835 29.9996 15.1312 29.9996 15.6835V20.6434C29.9996 21.1957 30.4473 21.6434 30.9996 21.6434C31.5519 21.6434 31.9996 21.1957 31.9996 20.6434V15.6835ZM2.24002 25.6034C2.24002 25.0511 1.79231 24.6034 1.24002 24.6034C0.687736 24.6034 0.24002 25.0511 0.24002 25.6034V28.0833C0.24002 28.6356 0.687736 29.0833 1.24002 29.0833H3.1C3.65228 29.0833 4.1 28.6356 4.1 28.0833C4.1 27.5311 3.65228 27.0833 3.1 27.0833H2.24002V25.6034ZM31.9996 25.6034C31.9996 25.0511 31.5519 24.6034 30.9996 24.6034C30.4473 24.6034 29.9996 25.0511 29.9996 25.6034V27.0833H29.1397C28.5874 27.0833 28.1397 27.5311 28.1397 28.0833C28.1397 28.6356 28.5874 29.0833 29.1397 29.0833H30.9996C31.5519 29.0833 31.9996 28.6356 31.9996 28.0833V25.6034ZM6.81995 27.0833C6.26766 27.0833 5.81995 27.5311 5.81995 28.0833C5.81995 28.6356 6.26766 29.0833 6.81995 29.0833H10.5399C11.0922 29.0833 11.5399 28.6356 11.5399 28.0833C11.5399 27.5311 11.0922 27.0833 10.5399 27.0833H6.81995ZM14.2598 27.0833C13.7076 27.0833 13.2598 27.5311 13.2598 28.0833C13.2598 28.6356 13.7076 29.0833 14.2598 29.0833H17.9798C18.5321 29.0833 18.9798 28.6356 18.9798 28.0833C18.9798 27.5311 18.5321 27.0833 17.9798 27.0833H14.2598ZM21.6998 27.0833C21.1475 27.0833 20.6998 27.5311 20.6998 28.0833C20.6998 28.6356 21.1475 29.0833 21.6998 29.0833H25.4197C25.972 29.0833 26.4197 28.6356 26.4197 28.0833C26.4197 27.5311 25.972 27.0833 25.4197 27.0833H21.6998Z" fill="#111827"/>
</svg>
