<svg width="33" height="33" viewBox="0 0 33 33" fill="none" xmlns="http://www.w3.org/2000/svg">
<path fill-rule="evenodd" clip-rule="evenodd" d="M5.45996 6.55212C4.90768 6.55212 4.45996 6.99984 4.45996 7.55212V11.2444V13.8236C4.45996 13.8572 4.46161 13.8903 4.46484 13.9231V25.0137C4.46484 25.566 4.91256 26.0137 5.46484 26.0137H26.9332H28.4602C29.0125 26.0137 29.4602 25.566 29.4602 25.0137V14.9451V11.4831C29.4602 10.9308 29.0125 10.4831 28.4602 10.4831H17.1897L13.5517 6.84502C13.3641 6.65748 13.1098 6.55212 12.8446 6.55212H5.45996ZM6.45996 11.2444V8.55212H12.4304L14.9861 11.1079L12.5299 12.8236H6.45996V11.2444ZM12.8619 19.2829C12.8619 18.7306 13.3096 18.2829 13.8619 18.2829H20.1011C20.6533 18.2829 21.1011 18.7306 21.1011 19.2829C21.1011 19.8352 20.6533 20.2829 20.1011 20.2829H13.8619C13.3096 20.2829 12.8619 19.8352 12.8619 19.2829Z" fill="#1C1B1F"/>
</svg>
