<svg width="32" height="32" viewBox="0 0 32 32" fill="none" xmlns="http://www.w3.org/2000/svg">
<path fill-rule="evenodd" clip-rule="evenodd" d="M1.00189 3.68237C0.449607 3.68237 0.00189209 4.13009 0.00189209 4.68237V9.4094V12.7114C0.00189209 12.7348 0.0026977 12.758 0.00428273 12.7811H0V27.3175C0 27.8698 0.447714 28.3175 0.999999 28.3175H28.7648H31C31.5523 28.3175 32 27.8698 32 27.3175V14.1471V9.43464C32 8.88236 31.5523 8.43464 31 8.43464H15.8895L11.3377 3.96858C11.1507 3.78514 10.8993 3.68237 10.6373 3.68237H1.00189ZM13.808 9.19426L10.2287 5.68237H2.00189V9.4094V11.7114H10.3275L13.0435 9.84989L13.808 9.19426Z" fill="#111827"/>
</svg>
