<svg width="33" height="33" viewBox="0 0 33 33" fill="none" xmlns="http://www.w3.org/2000/svg">
<path fill-rule="evenodd" clip-rule="evenodd" d="M3.95996 7.05212C3.95996 6.49984 4.40768 6.05212 4.95996 6.05212H12.3446C12.6098 6.05212 12.8641 6.15748 13.0517 6.34502L16.4511 9.74445H27.1138C27.6661 9.74445 28.1138 10.1922 28.1138 10.7444V14.4368H28.191C28.8744 14.4368 29.3565 15.1071 29.139 15.755L25.8703 25.4919C25.8705 25.4991 25.8706 25.5064 25.8706 25.5137C25.8706 26.066 25.4229 26.5137 24.8706 26.5137H4.95996C4.40768 26.5137 3.95996 26.066 3.95996 25.5137V10.7444V10.7444V7.05212ZM5.95996 22.5137L8.42434 15.1205C8.56046 14.7122 8.9426 14.4368 9.37303 14.4368H26.1138V11.7444H16.0369C15.7591 11.7444 15.5078 11.6312 15.3266 11.4483L11.9304 8.05212H5.95996V10.7444V10.7444V22.5137Z" fill="#1C1B1F"/>
</svg>
