<svg width="32" height="32" viewBox="0 0 32 32" fill="none" xmlns="http://www.w3.org/2000/svg">
<path fill-rule="evenodd" clip-rule="evenodd" d="M3.95964 7.19995C3.95964 6.64767 4.40736 6.19995 4.95964 6.19995H13.6397C13.8894 6.19995 14.1301 6.2934 14.3144 6.46192L18.368 10.168H30.9996C31.5519 10.168 31.9996 10.6157 31.9996 11.168V15.145V27.04C31.9996 27.5923 31.5519 28.04 30.9996 28.04H26.0549C26.05 28.04 26.045 28.04 26.0401 28.0399V31C26.0401 31.5523 25.5924 32 25.0401 32H1C0.447716 32 0 31.5523 0 31V13.1599C0 12.6076 0.447715 12.1599 1 12.1599H3.95964V7.19995ZM5.95964 12.1599H8.29179C8.54154 12.1599 8.78225 12.2534 8.96657 12.4219L12.7335 15.866C12.9178 16.0345 13.1586 16.128 13.4083 16.128H25.0401C25.5924 16.128 26.0401 16.5757 26.0401 17.128V26.0401C26.045 26.0401 26.05 26.04 26.0549 26.04H29.9996V15.145V12.168H17.9796C17.7133 12.168 17.4714 12.064 17.2922 11.8943L13.2514 8.19995H5.95964V12.1599Z" fill="#111827"/>
</svg>
