<svg width="33" height="33" viewBox="0 0 33 33" fill="none" xmlns="http://www.w3.org/2000/svg">
<path fill-rule="evenodd" clip-rule="evenodd" d="M4.95996 5.98694C4.40768 5.98694 3.95996 6.43465 3.95996 6.98694V10.283V11.2828V12.283C3.95996 12.8352 4.40768 13.283 4.95996 13.283C5.51225 13.283 5.95996 12.8352 5.95996 12.283V11.283H6.95996C6.96523 11.283 6.97049 11.2829 6.97575 11.2828H10.9442C10.9494 11.2829 10.9547 11.283 10.96 11.283H14.96C14.9652 11.283 14.9705 11.2829 14.9757 11.2828H18.9442C18.9494 11.2829 18.9547 11.283 18.96 11.283H22.96C23.5122 11.283 23.96 10.8352 23.96 10.283C23.96 9.73067 23.5122 9.28296 22.96 9.28296H18.96C18.6553 9.28296 18.3824 9.41923 18.199 9.63416L14.8447 6.27983C14.6571 6.0923 14.4028 5.98694 14.1375 5.98694H4.95996ZM26.96 9.28296C26.4077 9.28296 25.96 9.73067 25.96 10.283C25.96 10.8352 26.4077 11.283 26.96 11.283H27.96V12.283C27.96 12.8352 28.4077 13.283 28.96 13.283C29.5122 13.283 29.96 12.8352 29.96 12.283V10.283C29.96 9.73067 29.5122 9.28296 28.96 9.28296H26.96ZM5.95996 16.283C5.95996 15.7307 5.51225 15.283 4.95996 15.283C4.40768 15.283 3.95996 15.7307 3.95996 16.283V20.283C3.95996 20.8352 4.40768 21.283 4.95996 21.283C5.51225 21.283 5.95996 20.8352 5.95996 20.283V16.283ZM29.96 16.283C29.96 15.7307 29.5122 15.283 28.96 15.283C28.4077 15.283 27.96 15.7307 27.96 16.283V20.283C27.96 20.8352 28.4077 21.283 28.96 21.283C29.5122 21.283 29.96 20.8352 29.96 20.283V16.283ZM5.95996 24.283C5.95996 23.7307 5.51225 23.283 4.95996 23.283C4.40768 23.283 3.95996 23.7307 3.95996 24.283V26.283C3.95996 26.8352 4.40768 27.283 4.95996 27.283H6.95996C7.51225 27.283 7.95996 26.8352 7.95996 26.283C7.95996 25.7307 7.51225 25.283 6.95996 25.283H5.95996V24.283ZM29.96 24.283C29.96 23.7307 29.5122 23.283 28.96 23.283C28.4077 23.283 27.96 23.7307 27.96 24.283V25.283H26.96C26.4077 25.283 25.96 25.7307 25.96 26.283C25.96 26.8352 26.4077 27.283 26.96 27.283H28.96C29.5122 27.283 29.96 26.8352 29.96 26.283V24.283ZM10.96 25.283C10.4077 25.283 9.95996 25.7307 9.95996 26.283C9.95996 26.8352 10.4077 27.283 10.96 27.283H14.96C15.5122 27.283 15.96 26.8352 15.96 26.283C15.96 25.7307 15.5122 25.283 14.96 25.283H10.96ZM18.96 25.283C18.4077 25.283 17.96 25.7307 17.96 26.283C17.96 26.8352 18.4077 27.283 18.96 27.283H22.96C23.5122 27.283 23.96 26.8352 23.96 26.283C23.96 25.7307 23.5122 25.283 22.96 25.283H18.96Z" fill="#1C1B1F"/>
</svg>
