<svg width="33" height="33" viewBox="0 0 33 33" fill="none" xmlns="http://www.w3.org/2000/svg">
<path fill-rule="evenodd" clip-rule="evenodd" d="M4.96338 5.96899C4.41109 5.96899 3.96338 6.41671 3.96338 6.96899V10.1997C3.96112 10.2271 3.95996 10.2549 3.95996 10.283V26.283C3.95996 26.8352 4.40768 27.283 4.95996 27.283H14.9509C15.5032 27.283 15.9509 26.8352 15.9509 26.283C15.9509 25.7307 15.5032 25.283 14.9509 25.283H5.95996V11.283H27.96V13.2987C27.96 13.851 28.4077 14.2987 28.96 14.2987C29.5122 14.2987 29.96 13.851 29.96 13.2987V10.283C29.96 9.73067 29.5122 9.28296 28.96 9.28296H17.7698L14.7345 6.2604C14.5471 6.07377 14.2933 5.96899 14.0289 5.96899H4.96338ZM23.9536 22.2765C25.6105 22.2765 26.9536 20.9333 26.9536 19.2765C26.9536 17.6196 25.6105 16.2765 23.9536 16.2765C22.2968 16.2765 20.9536 17.6196 20.9536 19.2765C20.9536 20.9333 22.2968 22.2765 23.9536 22.2765ZM20.0705 25.293C20.5112 23.5591 22.0826 22.2765 23.9537 22.2765C25.8247 22.2765 27.3962 23.5591 27.8369 25.293C27.9729 25.8282 27.5124 26.2829 26.9601 26.2829H20.9473C20.395 26.2829 19.9345 25.8282 20.0705 25.293Z" fill="#1C1B1F"/>
</svg>
