<svg width="33" height="33" viewBox="0 0 33 33" fill="none" xmlns="http://www.w3.org/2000/svg">
<path fill-rule="evenodd" clip-rule="evenodd" d="M4.95996 5.6676C4.40768 5.6676 3.95996 6.11532 3.95996 6.6676V10.3597V10.3599V25.8983C3.95996 26.4506 4.40768 26.8983 4.95996 26.8983H14.5298C15.0821 26.8983 15.5298 26.4506 15.5298 25.8983C15.5298 25.346 15.0821 24.8983 14.5298 24.8983H5.95996V10.3599V10.3597V7.6676H12.569L16.2817 11.0947L16.2817 11.0946C16.46 11.2592 16.6982 11.3597 16.9599 11.3597H27.9599V13.2011C27.9599 13.7533 28.4077 14.2011 28.9599 14.2011C29.5122 14.2011 29.9599 13.7533 29.9599 13.2011V10.3597C29.9599 9.80746 29.5122 9.35974 28.9599 9.35974H17.3507L13.6382 5.9328C13.4535 5.76229 13.2113 5.6676 12.96 5.6676H4.95996ZM18.3975 20.4436C18.3975 19.8913 18.8452 19.4436 19.3975 19.4436H20.96V18.8983C20.96 16.9653 22.527 15.3983 24.46 15.3983C26.393 15.3983 27.96 16.9653 27.96 18.8983V19.4436H29.522C30.0743 19.4436 30.522 19.8913 30.522 20.4436V25.853C30.522 26.4053 30.0743 26.853 29.522 26.853H19.3975C18.8452 26.853 18.3975 26.4053 18.3975 25.853V20.4436ZM22.96 18.8983C22.96 18.0699 23.6315 17.3983 24.46 17.3983C25.2884 17.3983 25.96 18.0699 25.96 18.8983V19.3983H22.96V18.8983Z" fill="#1C1B1F"/>
</svg>
