<svg width="32" height="32" viewBox="0 0 32 32" fill="none" xmlns="http://www.w3.org/2000/svg">
<path fill-rule="evenodd" clip-rule="evenodd" d="M0 4.07556C0 3.52328 0.447715 3.07556 1 3.07556H10.5395C10.8048 3.07556 11.0591 3.18092 11.2466 3.36845L15.7236 7.84537H29.6186C30.1709 7.84537 30.6186 8.29308 30.6186 8.84537V13.6151H30.9991C31.6768 13.6151 32.1583 14.2751 31.9514 14.9204L27.6683 28.2791L27.656 28.2791C27.5129 28.6563 27.1482 28.9244 26.7208 28.9244H1C0.447715 28.9244 0 28.4767 0 27.9244V8.84537V8.84533V4.07556ZM2 25.7886L5.45611 17.2055C5.60853 16.827 5.97566 16.579 6.38373 16.579H14.4752C14.6963 16.579 14.9112 16.5058 15.0862 16.3707L18.3864 13.8235C18.5614 13.6884 18.7763 13.6151 18.9974 13.6151H28.6186V9.84537H15.3093C15.0305 9.84537 14.7783 9.73125 14.5969 9.54718L10.1253 5.07556H2V8.84533V8.84537V25.7886Z" fill="#111827"/>
</svg>
