<svg width="33" height="33" viewBox="0 0 33 33" fill="none" xmlns="http://www.w3.org/2000/svg">
<path fill-rule="evenodd" clip-rule="evenodd" d="M7.7998 6.68286C7.7998 6.13058 8.24752 5.68286 8.7998 5.68286H15.5198C15.7696 5.68286 16.0103 5.77631 16.1946 5.94483L19.2682 8.75494H28.9599C29.5122 8.75494 29.9599 9.20266 29.9599 9.75494V12.8339V22.0429C29.9599 22.5952 29.5122 23.0429 28.9599 23.0429H25.1317C25.1278 23.0429 25.1239 23.0429 25.12 23.0428V24.8829C25.12 25.4351 24.6723 25.8829 24.12 25.8829H5.95996C5.40768 25.8829 4.95996 25.4351 4.95996 24.8829V11.5228C4.95996 10.9705 5.40768 10.5228 5.95996 10.5228H7.7998V6.68286ZM9.7998 10.5228H11.2917C11.5415 10.5228 11.7822 10.6163 11.9665 10.7848L14.7534 13.3329C14.9378 13.5014 15.1785 13.5949 15.4282 13.5949H24.12C24.6723 13.5949 25.12 14.0426 25.12 14.5949V21.043C25.1239 21.0429 25.1278 21.0429 25.1317 21.0429H27.9599V12.8339V10.7549H18.8799C18.6172 10.7549 18.3782 10.6537 18.1997 10.488L15.1316 7.68286H9.7998V10.5228Z" fill="#1C1B1F"/>
</svg>
