<svg width="33" height="33" viewBox="0 0 33 33" fill="none" xmlns="http://www.w3.org/2000/svg">
<path fill-rule="evenodd" clip-rule="evenodd" d="M5.45996 6.82141C4.63153 6.82141 3.95996 7.49298 3.95996 8.32141V11.5137V11.5137V13.3598C3.95996 13.9121 4.40768 14.3598 4.95996 14.3598C5.51225 14.3598 5.95996 13.9121 5.95996 13.3598V11.5137V11.5137V8.82141H12.569L16.2817 12.2485L16.2817 12.2485C16.4599 12.4131 16.6982 12.5137 16.9599 12.5137H19.9599C20.5122 12.5137 20.9599 12.066 20.9599 11.5137C20.9599 10.9614 20.5122 10.5137 19.9599 10.5137H17.3509L13.7819 7.21921C13.5048 6.96344 13.1415 6.82141 12.7645 6.82141H5.45996ZM25.9599 10.5137C25.4077 10.5137 24.9599 10.9614 24.9599 11.5137C24.9599 12.066 25.4077 12.5137 25.9599 12.5137H27.9599V13.3758C27.9599 13.9281 28.4077 14.3758 28.9599 14.3758C29.5122 14.3758 29.9599 13.9281 29.9599 13.3758V11.5137C29.9599 10.9614 29.5122 10.5137 28.9599 10.5137H25.9599ZM5.95996 17.0521C5.95996 16.4998 5.51225 16.0521 4.95996 16.0521C4.40768 16.0521 3.95996 16.4998 3.95996 17.0521V20.7444C3.95996 21.2967 4.40768 21.7444 4.95996 21.7444C5.51225 21.7444 5.95996 21.2967 5.95996 20.7444V17.0521ZM29.9599 17.1001C29.9599 16.5478 29.5122 16.1001 28.9599 16.1001C28.4077 16.1001 27.9599 16.5478 27.9599 17.1001V18.9622V20.7924C27.9599 21.3446 28.4077 21.7924 28.9599 21.7924C29.5122 21.7924 29.9599 21.3446 29.9599 20.7924V18.9622V17.1001ZM5.95996 24.4367C5.95996 23.8845 5.51225 23.4367 4.95996 23.4367C4.40768 23.4367 3.95996 23.8845 3.95996 24.4367V26.2829C3.95996 26.8352 4.40768 27.2829 4.95996 27.2829H6.87224C7.42452 27.2829 7.87224 26.8352 7.87224 26.2829C7.87224 25.7306 7.42452 25.2829 6.87224 25.2829H5.95996V24.4367ZM29.9599 24.4527C29.9599 23.9004 29.5122 23.4527 28.9599 23.4527C28.4077 23.4527 27.9599 23.9004 27.9599 24.4527V25.2829H26.7845C26.2322 25.2829 25.7845 25.7306 25.7845 26.2829C25.7845 26.8352 26.2322 27.2829 26.7845 27.2829H28.9599C29.5122 27.2829 29.9599 26.8352 29.9599 26.2829V24.4527ZM10.6968 25.2829C10.1445 25.2829 9.6968 25.7306 9.6968 26.2829C9.6968 26.8352 10.1445 27.2829 10.6968 27.2829H14.5214C15.0736 27.2829 15.5214 26.8352 15.5214 26.2829C15.5214 25.7306 15.0736 25.2829 14.5214 25.2829H10.6968ZM18.3459 25.2829C17.7936 25.2829 17.3459 25.7306 17.3459 26.2829C17.3459 26.8352 17.7936 27.2829 18.3459 27.2829H20.2582H22.4336C22.9859 27.2829 23.4336 26.8352 23.4336 26.2829C23.4336 25.7306 22.9859 25.2829 22.4336 25.2829H20.2582H18.3459Z" fill="#1C1B1F"/>
</svg>
