<svg width="33" height="33" viewBox="0 0 33 33" fill="none" xmlns="http://www.w3.org/2000/svg">
<path fill-rule="evenodd" clip-rule="evenodd" d="M3.95996 6.6676C3.95996 6.11532 4.40768 5.6676 4.95996 5.6676H12.96C13.2114 5.6676 13.4535 5.76229 13.6382 5.9328L17.3508 9.35974H28.96C29.5122 9.35974 29.96 9.80746 29.96 10.3597V13.2011C29.96 13.7533 29.5122 14.2011 28.96 14.2011C28.4077 14.2011 27.96 13.7533 27.96 13.2011V11.3597H16.96C16.6982 11.3597 16.46 11.2592 16.2818 11.0946L16.2817 11.0947L12.569 7.6676H5.95996V10.3597V10.3599V24.8983H14.5298C15.0821 24.8983 15.5298 25.346 15.5298 25.8983C15.5298 26.4506 15.0821 26.8983 14.5298 26.8983H4.95996C4.40768 26.8983 3.95996 26.4506 3.95996 25.8983V10.3599V10.3597V6.6676ZM22.5138 15.9786L21.3569 18.4686C21.2792 18.6359 21.1157 18.7468 20.9316 18.7572L18.1647 18.9131C17.72 18.9381 17.5276 19.4883 17.8596 19.7851L20.1153 21.8012C20.2631 21.9333 20.3189 22.1403 20.2575 22.3288L19.4988 24.6592C19.3569 25.095 19.8272 25.4761 20.2241 25.2471L22.745 23.7927C22.9051 23.7004 23.1031 23.7039 23.2599 23.8018L25.5554 25.2365C25.938 25.4756 26.4166 25.1257 26.3048 24.6886L25.6963 22.3099C25.6504 22.1307 25.7073 21.9407 25.8442 21.8162L28.0759 19.7855C28.4041 19.4868 28.2095 18.9404 27.7664 18.9164L24.8296 18.7577C24.6342 18.7471 24.463 18.6236 24.3913 18.4416L23.4324 16.0061C23.2714 15.5971 22.6989 15.5799 22.5138 15.9786Z" fill="#1C1B1F"/>
</svg>
