<svg width="32" height="32" viewBox="0 0 32 32" fill="none" xmlns="http://www.w3.org/2000/svg">
<path fill-rule="evenodd" clip-rule="evenodd" d="M6.24374 6.24374C9.87258 2.6149 14.2158 0.971145 18.24 0.337812L31.6622 13.76C31.0289 17.7842 29.3851 22.1274 25.7563 25.7563C22.1273 29.3852 17.7839 31.0289 13.7597 31.6622L0.337727 18.2405C0.970998 14.2162 2.61474 9.87275 6.24374 6.24374ZM0.0591563 20.7904C-0.124731 23.6996 0.151012 26.2974 0.46199 28.1338C0.605461 28.9845 1.01036 29.7695 1.62044 30.3796C2.23051 30.9896 3.01546 31.3945 3.86622 31.538C5.70263 31.849 8.30051 32.1247 11.2098 31.9408L0.0591563 20.7904ZM31.538 3.86622C31.849 5.7027 32.1248 8.30072 31.9408 11.2102L20.7898 0.0591922C23.6993 -0.124767 26.2973 0.150992 28.1338 0.46199C28.9845 0.605461 29.7695 1.01036 30.3796 1.62044C30.9896 2.23051 31.3945 3.01546 31.538 3.86622ZM22.2262 11.1882C22.6167 10.7977 22.6167 10.1645 22.2262 9.77401C21.8356 9.38349 21.2025 9.38349 20.812 9.77401L17.9513 12.6347L16.1355 10.8189C15.745 10.4284 15.1118 10.4284 14.7213 10.8189C14.3308 11.2095 14.3308 11.8426 14.7213 12.2331L16.5371 14.0489L14.0489 16.5371L12.2331 14.7213C11.8426 14.3308 11.2095 14.3308 10.8189 14.7213C10.4284 15.1118 10.4284 15.745 10.8189 16.1355L12.6347 17.9513L9.77401 20.812C9.38349 21.2025 9.38349 21.8356 9.77401 22.2262C10.1645 22.6167 10.7977 22.6167 11.1882 22.2262L14.0489 19.3655L15.8645 21.181C16.255 21.5715 16.8881 21.5715 17.2787 21.181C17.6692 20.7905 17.6692 20.1573 17.2787 19.7668L15.4631 17.9513L17.9513 15.4631L19.7668 17.2787C20.1573 17.6692 20.7905 17.6692 21.181 17.2787C21.5715 16.8881 21.5715 16.255 21.181 15.8645L19.3655 14.0489L22.2262 11.1882Z" fill="#111827"/>
</svg>
