<svg width="32" height="33" viewBox="0 0 32 33" fill="none" xmlns="http://www.w3.org/2000/svg">
<path fill-rule="evenodd" clip-rule="evenodd" d="M6.24374 6.74374C9.87258 3.1149 14.2158 1.47115 18.24 0.837812L31.6622 14.26C31.0289 18.2842 29.3851 22.6274 25.7563 26.2563C22.1273 29.8852 17.7839 31.5289 13.7597 32.1622L0.337727 18.7405C0.970998 14.7162 2.61474 10.3727 6.24374 6.74374ZM0.0591563 21.2904C-0.124731 24.1996 0.151012 26.7974 0.46199 28.6338C0.605461 29.4845 1.01036 30.2695 1.62044 30.8796C2.23051 31.4896 3.01546 31.8945 3.86622 32.038C5.70263 32.349 8.30051 32.6247 11.2098 32.4408L0.0591563 21.2904ZM31.538 4.36622C31.849 6.2027 32.1248 8.80072 31.9408 11.7102L20.7898 0.559192C23.6993 0.375233 26.2973 0.650992 28.1338 0.96199C28.9845 1.10546 29.7695 1.51036 30.3796 2.12044C30.9896 2.73051 31.3945 3.51546 31.538 4.36622ZM22.2262 11.6882C22.6167 11.2977 22.6167 10.6645 22.2262 10.274C21.8356 9.88349 21.2025 9.88349 20.812 10.274L17.9513 13.1347L16.1355 11.3189C15.745 10.9284 15.1118 10.9284 14.7213 11.3189C14.3308 11.7095 14.3308 12.3426 14.7213 12.7331L16.5371 14.5489L14.0489 17.0371L12.2331 15.2213C11.8426 14.8308 11.2095 14.8308 10.8189 15.2213C10.4284 15.6118 10.4284 16.245 10.8189 16.6355L12.6347 18.4513L9.77401 21.312C9.38349 21.7025 9.38349 22.3356 9.77401 22.7262C10.1645 23.1167 10.7977 23.1167 11.1882 22.7262L14.0489 19.8655L15.8645 21.681C16.255 22.0715 16.8881 22.0715 17.2787 21.681C17.6692 21.2905 17.6692 20.6573 17.2787 20.2668L15.4631 18.4513L17.9513 15.9631L19.7668 17.7787C20.1573 18.1692 20.7905 18.1692 21.181 17.7787C21.5715 17.3881 21.5715 16.755 21.181 16.3645L19.3655 14.5489L22.2262 11.6882Z" fill="#111827"/>
</svg>
