<svg width="33" height="33" viewBox="0 0 33 33" fill="none" xmlns="http://www.w3.org/2000/svg">
<path fill-rule="evenodd" clip-rule="evenodd" d="M9.64277 8.96576C12.2734 6.33509 15.4047 5.09538 18.3366 4.58651L28.6564 14.9063C28.1475 17.8382 26.9078 20.9695 24.2772 23.6002C21.6464 26.2309 18.5151 27.4706 15.5831 27.9795L5.26344 17.66C5.77227 14.728 7.01197 11.5966 9.64277 8.96576ZM4.98573 20.2107C4.88777 22.2567 5.08522 24.0769 5.30645 25.3833C5.41406 26.0214 5.71773 26.6101 6.17529 27.0676C6.63284 27.5252 7.22156 27.8289 7.85963 27.9365C9.16605 28.1577 10.9863 28.3552 13.0324 28.2572L4.98573 20.2107ZM28.6135 7.18262C28.8347 8.48911 29.0322 10.3095 28.9342 12.3557L20.8873 4.30875C22.9334 4.21074 24.7538 4.40821 26.0603 4.62945C26.6984 4.73706 27.2871 5.04073 27.7446 5.49829C28.2022 5.95584 28.5059 6.54455 28.6135 7.18262ZM21.8064 12.8509C22.1969 12.4604 22.1969 11.8272 21.8064 11.4367C21.4158 11.0462 20.7827 11.0462 20.3922 11.4367L18.4234 13.4054L17.2384 12.2204C16.8478 11.8299 16.2147 11.8299 15.8241 12.2204C15.4336 12.6109 15.4336 13.2441 15.8241 13.6346L17.0092 14.8197L15.4967 16.3322L14.3116 15.1471C13.9211 14.7566 13.2879 14.7566 12.8974 15.1471C12.5069 15.5377 12.5069 16.1708 12.8974 16.5614L14.0824 17.7464L12.1137 19.7152C11.7232 20.1057 11.7232 20.7388 12.1137 21.1294C12.5042 21.5199 13.1374 21.5199 13.5279 21.1294L15.4967 19.1606L16.6815 20.3455C17.0721 20.736 17.7052 20.736 18.0957 20.3455C18.4863 19.955 18.4863 19.3218 18.0957 18.9313L16.9109 17.7464L18.4234 16.2339L19.6083 17.4187C19.9988 17.8093 20.632 17.8093 21.0225 17.4187C21.413 17.0282 21.413 16.395 21.0225 16.0045L19.8376 14.8197L21.8064 12.8509Z" fill="#1C1B1F"/>
</svg>
