<svg width="32" height="32" viewBox="0 0 32 32" fill="none" xmlns="http://www.w3.org/2000/svg">
<path fill-rule="evenodd" clip-rule="evenodd" d="M27.16 21.0219H18.925C18.925 21.0219 20.6903 0.849657 28.1598 0.0012207V0.072649C28.1599 0.072649 28.1599 0.072649 28.16 0.072649C28.7123 0.072649 29.16 0.520364 29.16 1.07265L29.16 30.9991C29.16 31.5514 28.7123 31.9991 28.16 31.9991C27.6077 31.9991 27.16 31.5514 27.16 30.9991V21.0219ZM6.07364 1.23167C6.16443 0.686895 5.79641 0.171667 5.25164 0.0808722C4.70687 -0.00992286 4.19164 0.358097 4.10085 0.902867L2.85369 8.38579C2.84464 8.44012 2.84009 8.49511 2.84009 8.55019C2.84009 10.3039 3.53673 11.9857 4.77675 13.2257C5.77856 14.2275 7.06874 14.8747 8.45218 15.0863V30.9991C8.45218 31.5513 8.8999 31.9991 9.45218 31.9991C10.0045 31.9991 10.4522 31.5513 10.4522 30.9991V15.0864C11.8357 14.8747 13.1259 14.2276 14.1278 13.2257C15.3678 11.9857 16.0645 10.3039 16.0645 8.55019C16.0645 8.49511 16.0599 8.44012 16.0509 8.38579L14.8037 0.902867C14.7129 0.358097 14.1977 -0.00992286 13.6529 0.0808722C13.1082 0.171667 12.7401 0.686895 12.8309 1.23167L14.0638 8.62893C14.0434 9.82366 13.56 10.9651 12.7136 11.8115C11.8486 12.6765 10.6755 13.1624 9.45228 13.1624C8.22905 13.1624 7.05592 12.6765 6.19097 11.8115C5.34459 10.9651 4.86113 9.82366 4.84076 8.62893L6.07364 1.23167ZM9.45218 0.0672661C10.0045 0.0672661 10.4522 0.514981 10.4522 1.06727V7.30304C10.4522 7.85532 10.0045 8.30304 9.45218 8.30304C8.8999 8.30304 8.45218 7.85532 8.45218 7.30304V1.06727C8.45218 0.514981 8.8999 0.0672661 9.45218 0.0672661Z" fill="#111827"/>
</svg>
