<svg width="32" height="33" viewBox="0 0 32 33" fill="none" xmlns="http://www.w3.org/2000/svg">
<path fill-rule="evenodd" clip-rule="evenodd" d="M27.16 21.5219H18.925C18.925 21.5219 20.6903 1.34966 28.1598 0.501221V0.572649C28.1599 0.572649 28.1599 0.572649 28.16 0.572649C28.7123 0.572649 29.16 1.02036 29.16 1.57265L29.16 31.4991C29.16 32.0514 28.7123 32.4991 28.16 32.4991C27.6077 32.4991 27.16 32.0514 27.16 31.4991V21.5219ZM6.07364 1.73167C6.16443 1.18689 5.79641 0.671667 5.25164 0.580872C4.70687 0.490077 4.19164 0.858097 4.10085 1.40287L2.85369 8.88579C2.84464 8.94012 2.84009 8.99511 2.84009 9.05019C2.84009 10.8039 3.53673 12.4857 4.77675 13.7257C5.77856 14.7275 7.06874 15.3747 8.45218 15.5863V31.4991C8.45218 32.0513 8.8999 32.4991 9.45218 32.4991C10.0045 32.4991 10.4522 32.0513 10.4522 31.4991V15.5864C11.8357 15.3747 13.1259 14.7276 14.1278 13.7257C15.3678 12.4857 16.0645 10.8039 16.0645 9.05019C16.0645 8.99511 16.0599 8.94012 16.0509 8.88579L14.8037 1.40287C14.7129 0.858097 14.1977 0.490077 13.6529 0.580872C13.1082 0.671667 12.7401 1.18689 12.8309 1.73167L14.0638 9.12893C14.0434 10.3237 13.56 11.4651 12.7136 12.3115C11.8486 13.1765 10.6755 13.6624 9.45228 13.6624C8.22905 13.6624 7.05592 13.1765 6.19097 12.3115C5.34459 11.4651 4.86113 10.3237 4.84076 9.12893L6.07364 1.73167ZM9.45218 0.567266C10.0045 0.567266 10.4522 1.01498 10.4522 1.56727V7.80304C10.4522 8.35532 10.0045 8.80304 9.45218 8.80304C8.8999 8.80304 8.45218 8.35532 8.45218 7.80304V1.56727C8.45218 1.01498 8.8999 0.567266 9.45218 0.567266Z" fill="#111827"/>
</svg>
