<svg width="32" height="33" viewBox="0 0 32 33" fill="none" xmlns="http://www.w3.org/2000/svg">
<path fill-rule="evenodd" clip-rule="evenodd" d="M32 4.1665C32 3.61422 31.5523 3.1665 31 3.1665H1C0.447715 3.1665 0 3.61422 0 4.1665V28.8332C0 29.3855 0.447715 29.8332 1 29.8332H31C31.5523 29.8332 32 29.3855 32 28.8332V4.1665ZM20.3333 8.49984C20.3333 7.94755 20.781 7.49984 21.3333 7.49984H26.6667C27.219 7.49984 27.6667 7.94755 27.6667 8.49984V13.8332C27.6667 14.3855 27.219 14.8332 26.6667 14.8332C26.1144 14.8332 25.6667 14.3855 25.6667 13.8332V10.4998C25.6667 9.94755 25.219 9.49984 24.6667 9.49984H21.3333C20.781 9.49984 20.3333 9.05212 20.3333 8.49984ZM11.6667 24.4998C11.6667 25.0521 11.219 25.4998 10.6667 25.4998H5.33333C4.78105 25.4998 4.33333 25.0521 4.33333 24.4998V19.1665C4.33333 18.6142 4.78105 18.1665 5.33333 18.1665C5.88562 18.1665 6.33333 18.6142 6.33333 19.1665V22.4998C6.33333 23.0521 6.78105 23.4998 7.33333 23.4998H10.6667C11.219 23.4998 11.6667 23.9476 11.6667 24.4998Z" fill="#111827"/>
</svg>
