<svg width="33" height="33" viewBox="0 0 33 33" fill="none" xmlns="http://www.w3.org/2000/svg">
<path d="M9.91372 4.42261H24.7368C25.013 4.42261 25.2368 4.64647 25.2368 4.92261V11.9741C25.2368 12.2502 25.013 12.4741 24.7368 12.4741H16.9597L24.3544 19.6671C24.6761 19.98 24.4545 20.5255 24.0057 20.5255H17.0835C16.8074 20.5255 16.5835 20.7493 16.5835 21.0255V27.2193C16.5835 27.6647 16.045 27.8878 15.73 27.5728L8.82906 20.6719C8.7353 20.5781 8.68262 20.451 8.68262 20.3184V12.9741C8.68262 12.6979 8.90647 12.4741 9.18262 12.4741H16.9597L9.56508 5.28101C9.24338 4.96808 9.46492 4.42261 9.91372 4.42261Z" fill="#1C1B1F"/>
</svg>
