<svg width="33" height="33" viewBox="0 0 33 33" fill="none" xmlns="http://www.w3.org/2000/svg">
<path fill-rule="evenodd" clip-rule="evenodd" d="M5.95996 6.2829C5.40768 6.2829 4.95996 6.73061 4.95996 7.2829V25.2829C4.95996 25.8352 5.40768 26.2829 5.95996 26.2829H27.96C28.5122 26.2829 28.96 25.8352 28.96 25.2829V7.2829C28.96 6.73061 28.5122 6.2829 27.96 6.2829H5.95996ZM18.96 9.2829C18.4077 9.2829 17.96 9.73061 17.96 10.2829C17.96 10.8352 18.4077 11.2829 18.96 11.2829H23.96V15.2829C23.96 15.8352 24.4077 16.2829 24.96 16.2829C25.5122 16.2829 25.96 15.8352 25.96 15.2829V10.2829C25.96 9.73061 25.5122 9.2829 24.96 9.2829H18.96ZM9.95996 17.2829C9.95996 16.7306 9.51225 16.2829 8.95996 16.2829C8.40768 16.2829 7.95996 16.7306 7.95996 17.2829V22.2829C7.95996 22.8352 8.40768 23.2829 8.95996 23.2829H14.96C15.5122 23.2829 15.96 22.8352 15.96 22.2829C15.96 21.7306 15.5122 21.2829 14.96 21.2829H9.95996V17.2829Z" fill="#1C1B1F"/>
</svg>
