<svg width="32" height="32" viewBox="0 0 32 32" fill="none" xmlns="http://www.w3.org/2000/svg">
<path fill-rule="evenodd" clip-rule="evenodd" d="M1 2.66663C0.447715 2.66663 0 3.11434 0 3.66662V28.3333C0 28.8856 0.447715 29.3333 1 29.3333H31C31.5523 29.3333 32 28.8856 32 28.3333V3.66663C32 3.11434 31.5523 2.66663 31 2.66663H1ZM18.6667 6.99996C18.1144 6.99996 17.6667 7.44767 17.6667 7.99996C17.6667 8.55224 18.1144 8.99996 18.6667 8.99996H25.6667V14.6666C25.6667 15.2189 26.1144 15.6666 26.6667 15.6666C27.219 15.6666 27.6667 15.2189 27.6667 14.6666V7.99996C27.6667 7.44767 27.219 6.99996 26.6667 6.99996H18.6667ZM6.33333 17.3333C6.33333 16.781 5.88562 16.3333 5.33333 16.3333C4.78105 16.3333 4.33333 16.781 4.33333 17.3333V24C4.33333 24.5522 4.78105 25 5.33333 25H13.3333C13.8856 25 14.3333 24.5522 14.3333 24C14.3333 23.4477 13.8856 23 13.3333 23H6.33333V17.3333Z" fill="#111827"/>
</svg>
