<svg width="33" height="33" viewBox="0 0 33 33" fill="none" xmlns="http://www.w3.org/2000/svg">
<path fill-rule="evenodd" clip-rule="evenodd" d="M28.96 7.78296C28.96 7.23067 28.5122 6.78296 27.96 6.78296H5.95996C5.40768 6.78296 4.95996 7.23067 4.95996 7.78296V25.783C4.95996 26.3352 5.40768 26.783 5.95996 26.783H27.96C28.5122 26.783 28.96 26.3352 28.96 25.783V7.78296ZM19.96 10.783C19.96 10.2307 20.4077 9.78296 20.96 9.78296H24.96C25.5122 9.78296 25.96 10.2307 25.96 10.783V14.783C25.96 15.3352 25.5122 15.783 24.96 15.783C24.4077 15.783 23.96 15.3352 23.96 14.783V12.783C23.96 12.2307 23.5122 11.783 22.96 11.783H20.96C20.4077 11.783 19.96 11.3352 19.96 10.783ZM13.96 22.783C13.96 23.3352 13.5122 23.783 12.96 23.783H8.95996C8.40768 23.783 7.95996 23.3352 7.95996 22.783V18.783C7.95996 18.2307 8.40768 17.783 8.95996 17.783C9.51225 17.783 9.95996 18.2307 9.95996 18.783V20.783C9.95996 21.3352 10.4077 21.783 10.96 21.783H12.96C13.5122 21.783 13.96 22.2307 13.96 22.783Z" fill="#1C1B1F"/>
</svg>
