<svg width="32" height="32" viewBox="0 0 32 32" fill="none" xmlns="http://www.w3.org/2000/svg">
<path d="M6.19643 0H26.5341C26.8103 0 27.0341 0.223858 27.0341 0.5V10.2336C27.0341 10.5097 26.8103 10.7336 26.5341 10.7336H15.9998L26.1517 20.6087C26.4734 20.9216 26.2518 21.4671 25.803 21.4671H15.9982C15.7221 21.4671 15.4982 21.691 15.4982 21.9671V30.7929C15.4982 31.2383 14.9597 31.4614 14.6447 31.1464L5.11178 21.6136C5.01801 21.5198 4.96533 21.3926 4.96533 21.26V11.2336C4.96533 10.9574 5.18919 10.7336 5.46533 10.7336H15.9998L5.8478 0.858405C5.5261 0.545477 5.74764 0 6.19643 0Z" fill="#111827"/>
</svg>
