<svg width="33" height="33" viewBox="0 0 33 33" fill="none" xmlns="http://www.w3.org/2000/svg">
<path d="M9.91372 4.28101H24.7368C25.013 4.28101 25.2368 4.50486 25.2368 4.78101V11.8325C25.2368 12.1086 25.013 12.3325 24.7368 12.3325H16.9597L24.3544 19.5255C24.6761 19.8384 24.4545 20.3839 24.0057 20.3839H17.0835C16.8074 20.3839 16.5835 20.6077 16.5835 20.8839V27.0777C16.5835 27.5231 16.045 27.7462 15.73 27.4312L8.82906 20.5303C8.7353 20.4365 8.68262 20.3094 8.68262 20.1768V12.8325C8.68262 12.5563 8.90647 12.3325 9.18262 12.3325H16.9597L9.56508 5.13941C9.24338 4.82648 9.46492 4.28101 9.91372 4.28101Z" fill="#1C1B1F"/>
</svg>
