<svg width="33" height="33" viewBox="0 0 33 33" fill="none" xmlns="http://www.w3.org/2000/svg">
<path fill-rule="evenodd" clip-rule="evenodd" d="M16.935 9.19684C17.4268 6.31422 19.9252 4.20605 22.8495 4.20605H26.4542C27.0065 4.20605 27.4542 4.65377 27.4542 5.20605C27.4542 5.75834 27.0065 6.20605 26.4542 6.20605H22.8495C20.9 6.20605 19.2344 7.6115 18.9065 9.53324L16.5456 23.3691C16.0537 26.2517 13.5554 28.3599 10.6311 28.3599H7.46582C6.91354 28.3599 6.46582 27.9122 6.46582 27.3599C6.46582 26.8076 6.91354 26.3599 7.46582 26.3599H10.6311C12.5806 26.3599 14.2462 24.9545 14.5741 23.0327L16.935 9.19684ZM27.1612 20.3807C27.5518 20.7712 27.5518 21.4044 27.1612 21.7949L24.7323 24.2238L27.1612 26.6528C27.5518 27.0433 27.5518 27.6765 27.1612 28.067C26.7707 28.4575 26.1375 28.4575 25.747 28.067L23.3181 25.638L20.8891 28.067C20.4986 28.4575 19.8654 28.4575 19.4749 28.067C19.0844 27.6765 19.0844 27.0433 19.4749 26.6528L21.9039 24.2238L19.4749 21.7949C19.0844 21.4044 19.0844 20.7712 19.4749 20.3807C19.8654 19.9901 20.4986 19.9901 20.8891 20.3807L23.3181 22.8096L25.747 20.3807C26.1375 19.9901 26.7707 19.9901 27.1612 20.3807Z" fill="#1C1B1F"/>
</svg>
