<svg width="32" height="32" viewBox="0 0 32 32" fill="none" xmlns="http://www.w3.org/2000/svg">
<path fill-rule="evenodd" clip-rule="evenodd" d="M15.9634 8.99029C16.4553 6.10767 18.9537 3.99951 21.878 3.99951H25.4287C25.981 3.99951 26.4287 4.44723 26.4287 4.99951C26.4287 5.5518 25.981 5.99951 25.4287 5.99951H21.878C19.9284 5.99951 18.2629 7.40495 17.9349 9.3267L15.6002 23.0098C15.1083 25.8924 12.6099 28.0006 9.68563 28.0006H6.57129C6.019 28.0006 5.57129 27.5529 5.57129 27.0006C5.57129 26.4483 6.019 26.0006 6.57129 26.0006H9.68563C11.6352 26.0006 13.3007 24.5951 13.6286 22.6734L15.9634 8.99029ZM26.1358 20.0646C26.5263 20.4551 26.5263 21.0882 26.1358 21.4788L23.7285 23.8861L26.1358 26.2934C26.5263 26.6839 26.5263 27.3171 26.1358 27.7076C25.7453 28.0981 25.1121 28.0981 24.7216 27.7076L22.3143 25.3003L19.9069 27.7076C19.5164 28.0981 18.8833 28.0981 18.4927 27.7076C18.1022 27.3171 18.1022 26.6839 18.4927 26.2934L20.9001 23.8861L18.4927 21.4788C18.1022 21.0882 18.1022 20.4551 18.4927 20.0646C18.8833 19.674 19.5164 19.674 19.9069 20.0646L22.3143 22.4719L24.7216 20.0646C25.1121 19.674 25.7453 19.674 26.1358 20.0646Z" fill="#111827"/>
</svg>
