<svg width="33" height="33" viewBox="0 0 33 33" fill="none" xmlns="http://www.w3.org/2000/svg">
<path fill-rule="evenodd" clip-rule="evenodd" d="M6.72949 12.0226C6.72949 11.4703 7.17721 11.0226 7.72949 11.0226H26.191C26.7433 11.0226 27.191 11.4703 27.191 12.0226C27.191 12.5749 26.7433 13.0226 26.191 13.0226H7.72949C7.17721 13.0226 6.72949 12.5749 6.72949 12.0226ZM10.2797 16.2829C10.2797 15.7306 10.7274 15.2829 11.2797 15.2829H22.6406C23.1929 15.2829 23.6406 15.7306 23.6406 16.2829C23.6406 16.8352 23.1929 17.2829 22.6406 17.2829H11.2797C10.7274 17.2829 10.2797 16.8352 10.2797 16.2829ZM14.8302 19.5433C14.2779 19.5433 13.8302 19.991 13.8302 20.5433C13.8302 21.0956 14.2779 21.5433 14.8302 21.5433H19.0906C19.6429 21.5433 20.0906 21.0956 20.0906 20.5433C20.0906 19.991 19.6429 19.5433 19.0906 19.5433H14.8302Z" fill="#1C1B1F"/>
</svg>
