<svg width="32" height="32" viewBox="0 0 32 32" fill="none" xmlns="http://www.w3.org/2000/svg">
<path fill-rule="evenodd" clip-rule="evenodd" d="M0.00244141 9.078C0.00244141 8.52572 0.450157 8.078 1.00244 8.078H30.9979C31.5501 8.078 31.9979 8.52572 31.9979 9.078C31.9979 9.63029 31.5501 10.078 30.9979 10.078H1.00244C0.450157 10.078 0.00244141 9.63029 0.00244141 9.078ZM5.77049 16.0001C5.77049 15.4478 6.21821 15.0001 6.77049 15.0001H25.2292C25.7815 15.0001 26.2292 15.4478 26.2292 16.0001C26.2292 16.5523 25.7815 17.0001 25.2292 17.0001H6.77049C6.21821 17.0001 5.77049 16.5523 5.77049 16.0001ZM12.539 21.922C11.9868 21.922 11.539 22.3697 11.539 22.922C11.539 23.4743 11.9868 23.922 12.539 23.922H19.4611C20.0133 23.922 20.4611 23.4743 20.4611 22.922C20.4611 22.3697 20.0133 21.922 19.4611 21.922H12.539Z" fill="#111827"/>
</svg>
