<svg width="33" height="33" viewBox="0 0 33 33" fill="none" xmlns="http://www.w3.org/2000/svg">
<path fill-rule="evenodd" clip-rule="evenodd" d="M7.97589 9.6105L5.49775 20.1587C5.16859 21.5598 5.82065 23.0074 7.08808 23.6894C8.43234 24.4126 10.1008 24.0796 11.0644 22.8958L14.7258 18.3977C14.9195 18.1597 15.2101 18.0215 15.5169 18.0215H17.8854C17.9145 18.0759 17.949 18.1283 17.9891 18.1781L22.293 23.5221C23.5305 25.0586 25.6875 25.4949 27.4249 24.5601C29.0054 23.7098 29.8484 21.9297 29.5048 20.1682L27.7533 11.1865C27.7436 11.137 27.7305 11.0891 27.7141 11.0429C27.4715 8.73639 25.5205 6.93887 23.1497 6.93887L11.3479 6.93886C9.74009 6.93886 8.34362 8.04527 7.97589 9.6105ZM26.675 16.1061C25.7596 17.2723 24.3371 18.0215 22.7396 18.0215H20.431L23.8507 22.2676C24.484 23.054 25.588 23.2773 26.4772 22.7989C27.2862 22.3636 27.7176 21.4526 27.5418 20.551L26.675 16.1061ZM14.2183 10.8077C14.2183 10.2554 13.7706 9.80767 13.2183 9.80767C12.666 9.80767 12.2183 10.2554 12.2183 10.8077V11.5265H11.4992C10.9469 11.5265 10.4992 11.9742 10.4992 12.5265C10.4992 13.0788 10.9469 13.5265 11.4992 13.5265H12.2183V14.2451C12.2183 14.7973 12.666 15.2451 13.2183 15.2451C13.7706 15.2451 14.2183 14.7973 14.2183 14.2451V13.5265H14.9366C15.4888 13.5265 15.9366 13.0788 15.9366 12.5265C15.9366 11.9742 15.4888 11.5265 14.9366 11.5265H14.2183V10.8077ZM19.0927 12.5265C19.0927 11.9742 19.5404 11.5265 20.0927 11.5265H23.5301C24.0824 11.5265 24.5301 11.9742 24.5301 12.5265C24.5301 13.0788 24.0824 13.5265 23.5301 13.5265H20.0927C19.5404 13.5265 19.0927 13.0788 19.0927 12.5265Z" fill="#1C1B1F"/>
</svg>
