<svg width="32" height="32" viewBox="0 0 32 32" fill="none" xmlns="http://www.w3.org/2000/svg">
<path fill-rule="evenodd" clip-rule="evenodd" d="M3.42962 7.62756L0.113728 21.7417C-0.326714 23.6164 0.545785 25.5535 2.24168 26.4659C4.04038 27.4337 6.27288 26.9881 7.56228 25.4041L12.4614 19.3853C12.7206 19.0668 13.1094 18.882 13.52 18.882H17.0928L22.8494 26.0297C24.4032 27.9589 27.1113 28.5067 29.2927 27.333C31.277 26.2654 32.3355 24.0304 31.9041 21.8188L29.8746 11.4115V9.05275C29.8746 6.29133 27.636 4.05275 24.8746 4.05275L7.94163 4.05273C5.79023 4.05273 3.92166 5.53318 3.42962 7.62756ZM28.8978 16.8514C27.9871 18.0832 26.5241 18.882 24.8746 18.882H19.6608L24.407 24.7752C25.3567 25.9543 27.0118 26.2891 28.345 25.5718C29.5578 24.9192 30.2047 23.5533 29.9411 22.2016L28.8978 16.8514ZM11.4436 9.22865C11.4436 8.67636 10.9959 8.22865 10.4436 8.22865C9.89128 8.22865 9.44357 8.67636 9.44357 9.22865V10.5285H8.14301C7.59073 10.5285 7.14301 10.9762 7.14301 11.5285C7.14301 12.0808 7.59073 12.5285 8.14301 12.5285H9.44357V13.8281C9.44357 14.3804 9.89128 14.8281 10.4436 14.8281C10.9959 14.8281 11.4436 14.3804 11.4436 13.8281V12.5285H12.7424C13.2947 12.5285 13.7424 12.0808 13.7424 11.5285C13.7424 10.9762 13.2947 10.5285 12.7424 10.5285H11.4436V9.22865ZM18.6419 11.5285C18.6419 10.9762 19.0896 10.5285 19.6419 10.5285H24.2413C24.7936 10.5285 25.2413 10.9762 25.2413 11.5285C25.2413 12.0808 24.7936 12.5285 24.2413 12.5285H19.6419C19.0896 12.5285 18.6419 12.0808 18.6419 11.5285Z" fill="#111827"/>
</svg>
