<svg width="32" height="33" viewBox="0 0 32 33" fill="none" xmlns="http://www.w3.org/2000/svg">
<path fill-rule="evenodd" clip-rule="evenodd" d="M1.1626 0.414062H0.162598V1.41406V31.4154V32.4154H1.1626H5.04978H6.04973H6.04978H7.04973H7.97901H8.97901H8.97909H9.97909H10.1209H11.1209V32.4153H13.1174V32.4154H14.1174H18.1138H19.1138V32.4153H22.0075V32.4154H23.0075H25.9225H26.9225H27.9225H30.8374H31.8374V31.4154V1.41406V0.414062H30.8374H27.9225H26.9225H25.9225H24.0075H23.0075H22.0075H19.1138H18.1138H17.1138H15.1174H14.1174H13.1174H11.1209H10.121H10.1209H9.97909H9.12096H8.97909H8.97901H7.97901H7.04973H6.04978H6.04973H5.04978H1.1626ZM25.9225 2.41406H24.0075L24.0075 17.1573V18.1573V20.6048V21.6048L24.0075 30.4154H25.9225V2.41406ZM27.9225 2.41406V30.4154H29.8374V2.41406H27.9225ZM22.0075 22.6048V30.4153H19.1138V22.6048H22.0075ZM22.0075 2.41406V16.1573H19.1138V2.41406H22.0075ZM7.97901 30.4154V2.41406H7.04978V30.4154H7.97901ZM2.1626 30.4154V2.41406H5.04973V30.4154H2.1626ZM11.121 30.4153V18.1573H13.1174V30.4153H11.121ZM11.121 2.41406V11.1423H13.1174V2.41406H11.121ZM15.1174 30.4154H17.1138V2.41406H15.1174V30.4154Z" fill="#111827"/>
</svg>
