<svg width="33" height="33" viewBox="0 0 33 33" fill="none" xmlns="http://www.w3.org/2000/svg">
<path fill-rule="evenodd" clip-rule="evenodd" d="M20.6478 7.13202C20.6478 6.57973 20.2001 6.13202 19.6478 6.13202H8.72852C8.17623 6.13202 7.72852 6.57973 7.72852 7.13202V25.4337H4.95996C4.40768 25.4337 3.95996 25.8814 3.95996 26.4337C3.95996 26.986 4.40768 27.4337 4.95996 27.4337H23.4161C23.9684 27.4337 24.4161 26.986 24.4161 26.4337C24.4161 25.8814 23.9684 25.4337 23.4161 25.4337H20.6478V15.4143C20.6501 15.4143 20.6525 15.4143 20.6548 15.4143H22.54C23.524 15.4143 24.3216 16.212 24.3216 17.196V20.9399C24.3216 22.497 25.5839 23.7592 27.1409 23.7592C28.6979 23.7592 29.9601 22.497 29.9601 20.9399V10.8549C29.9601 10.5897 29.8547 10.3353 29.6672 10.1478L26.8575 7.33812C26.467 6.9476 25.8338 6.9476 25.4433 7.33812C25.0528 7.72865 25.0528 8.36181 25.4433 8.75234L27.9601 11.2691V20.9399C27.9601 21.3924 27.5933 21.7592 27.1409 21.7592C26.6884 21.7592 26.3216 21.3924 26.3216 20.9399V17.196C26.3216 15.1074 24.6286 13.4143 22.54 13.4143H20.6548C20.6525 13.4143 20.6501 13.4144 20.6478 13.4144V7.13202ZM11.4194 13.4373C10.8671 13.4373 10.4194 13.885 10.4194 14.4373C10.4194 14.9895 10.8671 15.4373 11.4194 15.4373H16.9563C17.5086 15.4373 17.9563 14.9895 17.9563 14.4373C17.9563 13.885 17.5086 13.4373 16.9563 13.4373H11.4194Z" fill="#1C1B1F"/>
</svg>
