<svg width="32" height="32" viewBox="0 0 32 32" fill="none" xmlns="http://www.w3.org/2000/svg">
<path fill-rule="evenodd" clip-rule="evenodd" d="M20.6093 3.81219C20.6093 3.25991 20.1616 2.81219 19.6093 2.81219H5.46119C4.90891 2.81219 4.46119 3.25991 4.46119 3.81219V27.1878H1.00098C0.448692 27.1878 0.000976562 27.6355 0.000976562 28.1878C0.000976562 28.7401 0.448692 29.1878 1.00098 29.1878H24.0697C24.622 29.1878 25.0697 28.7401 25.0697 28.1878C25.0697 27.6355 24.622 27.1878 24.0697 27.1878H20.6093V14.1644C20.6123 14.1645 20.6152 14.1645 20.6182 14.1645H22.9746C24.3425 14.1645 25.4514 15.2734 25.4514 16.6413V21.321C25.4514 23.1291 26.9172 24.5949 28.7253 24.5949C30.5334 24.5949 31.9992 23.1291 31.9992 21.321V8.71545C31.9992 8.45023 31.8938 8.19588 31.7063 8.00834L28.1944 4.49645C27.8038 4.10592 27.1707 4.10593 26.7802 4.49645C26.3896 4.88698 26.3896 5.52014 26.7802 5.91067L29.9992 9.12966V21.321C29.9992 22.0245 29.4288 22.5949 28.7253 22.5949C28.0217 22.5949 27.4514 22.0245 27.4514 21.321V16.6413C27.4514 14.1688 25.4471 12.1645 22.9746 12.1645H20.6182C20.6152 12.1645 20.6123 12.1645 20.6093 12.1645V3.81219ZM9.07453 12.1932C8.52225 12.1932 8.07453 12.6409 8.07453 13.1932C8.07453 13.7454 8.52225 14.1932 9.07453 14.1932H15.9952C16.5474 14.1932 16.9952 13.7454 16.9952 13.1932C16.9952 12.6409 16.5474 12.1932 15.9952 12.1932H9.07453Z" fill="#111827"/>
</svg>
