<svg width="33" height="32" viewBox="0 0 33 32" fill="none" xmlns="http://www.w3.org/2000/svg">
<path fill-rule="evenodd" clip-rule="evenodd" d="M16.9602 28C23.5876 28 28.9602 22.6274 28.9602 16C28.9602 9.37258 23.5876 4 16.9602 4C10.3328 4 4.96021 9.37258 4.96021 16C4.96021 22.6274 10.3328 28 16.9602 28ZM7.55072 16.067L7.55081 16.0672L7.55042 16.0668C7.64611 21.1476 11.768 25.2434 16.8589 25.2971L16.8552 25.2933L16.8702 25.3015L7.55072 16.067ZM16.9602 6.47458C12.4732 6.47458 8.7196 9.61458 7.77687 13.8171L9.22483 15.2641L9.225 15.2619L18.9008 24.9377L18.9028 24.9356L19.0354 25.0681C23.1989 24.1312 26.318 20.4349 26.371 16.0011H26.0612V16H20.4238V17.6035H24.5292C23.933 20.2426 21.9918 22.3719 19.4639 23.2331L9.61308 13.3823C10.6546 10.3252 13.5506 8.12625 16.9601 8.12625C19.6155 8.12625 21.9594 9.46006 23.3584 11.4943L24.5882 10.4171H24.6205C22.9134 8.03023 20.1185 6.47458 16.9602 6.47458Z" fill="#1C1B1F"/>
</svg>
