<svg width="33" height="33" viewBox="0 0 33 33" fill="none" xmlns="http://www.w3.org/2000/svg">
<path fill-rule="evenodd" clip-rule="evenodd" d="M5.3944 16.7642C6.71275 12.0054 10.8894 8.43461 15.96 8.0163V11.6675C15.96 12.2198 16.4077 12.6675 16.96 12.6675C17.5122 12.6675 17.96 12.2198 17.96 11.6675V8.0163C23.0304 8.4346 27.2071 12.0053 28.5255 16.764L24.7256 17.7822C24.1921 17.9251 23.8755 18.4735 24.0184 19.0069C24.1614 19.5404 24.7097 19.857 25.2432 19.7141L28.8967 18.7351C28.9385 19.1428 28.96 19.5565 28.96 19.9752V23.0801C28.96 23.9143 28.2837 24.5906 27.4495 24.5906H15.3874L22.8108 14.9161C23.147 14.478 23.0644 13.8502 22.6262 13.514C22.1881 13.1778 21.5603 13.2605 21.2241 13.6986L12.8664 24.5906H6.47045C5.63623 24.5906 4.95996 23.9143 4.95996 23.0801V19.9752C4.95996 19.5566 4.9814 19.1429 5.02324 18.7353L8.67618 19.7141C9.20964 19.857 9.75798 19.5405 9.90092 19.007C10.0439 18.4735 9.72728 17.9252 9.19381 17.7822L5.3944 16.7642Z" fill="#1C1B1F"/>
</svg>
