<svg width="32" height="32" viewBox="0 0 32 32" fill="none" xmlns="http://www.w3.org/2000/svg">
<path fill-rule="evenodd" clip-rule="evenodd" d="M0.493631 16.9485C2.17636 10.3381 7.9749 5.37169 15 4.93848V9.83074C15 10.383 15.4477 10.8307 16 10.8307C16.5523 10.8307 17 10.383 17 9.83074V4.93848C24.025 5.37169 29.8235 10.338 31.5063 16.9483L26.4404 18.3057C25.9069 18.4486 25.5904 18.997 25.7333 19.5304C25.8762 20.0639 26.4246 20.3805 26.958 20.2375L31.8777 18.9193C31.9584 19.5708 32 20.2344 32 20.9077V25.0476C32 26.1599 31.0983 27.0616 29.986 27.0616H13.483L23.5367 13.9594C23.8729 13.5212 23.7903 12.8935 23.3521 12.5573C22.914 12.221 22.2862 12.3037 21.95 12.7418L10.9621 27.0616H2.01399C0.901693 27.0616 0 26.1599 0 25.0476V20.9077C0 20.2345 0.0415812 19.571 0.122315 18.9196L5.04123 20.2376C5.57469 20.3805 6.12303 20.064 6.26597 19.5305C6.40891 18.997 6.09233 18.4487 5.55886 18.3057L0.493631 16.9485Z" fill="#111827"/>
</svg>
