<svg width="32" height="32" viewBox="0 0 32 32" fill="none" xmlns="http://www.w3.org/2000/svg">
<path fill-rule="evenodd" clip-rule="evenodd" d="M12.3237 27.9022C12.5387 27.9686 12.6895 28.1649 12.6895 28.3899V31.5C12.6895 31.7761 12.9133 32 13.1895 32H18.81C19.0862 32 19.31 31.7761 19.31 31.5V28.3901C19.31 28.165 19.4607 27.9687 19.6758 27.9023C20.4216 27.6723 21.1374 27.374 21.8161 27.015C22.0151 26.9097 22.2606 26.9419 22.4198 27.1011L24.6196 29.3009C24.8148 29.4962 25.1314 29.4962 25.3267 29.3009L29.301 25.3265C29.4963 25.1313 29.4963 24.8147 29.301 24.6194L27.1011 22.4196C26.9419 22.2604 26.9097 22.0149 27.015 21.8159C27.374 21.1374 27.6722 20.4217 27.9022 19.6761C27.9685 19.461 28.1648 19.3103 28.3899 19.3103H31.5C31.7761 19.3103 32 19.0864 32 18.8103V13.1897C32 12.9136 31.7761 12.6897 31.5 12.6897H28.3899C28.1648 12.6897 27.9685 12.539 27.9022 12.3239C27.6721 11.5783 27.3739 10.8625 27.0149 10.1839C26.9096 9.98486 26.9418 9.73938 27.101 9.58018L29.3006 7.38062C29.4958 7.18536 29.4958 6.86878 29.3006 6.67352L25.3262 2.69917C25.131 2.50391 24.8144 2.50391 24.6191 2.69917L22.4195 4.89879C22.2603 5.05799 22.0148 5.09021 21.8158 4.98492C21.1372 4.62589 20.4215 4.32772 19.6758 4.0977C19.4607 4.03135 19.31 3.83503 19.31 3.60995V0.5C19.31 0.223858 19.0862 0 18.81 0H13.1895C12.9133 0 12.6895 0.223857 12.6895 0.5V3.61006C12.6895 3.83513 12.5387 4.03145 12.3237 4.09781C11.5781 4.32781 10.8625 4.62594 10.184 4.98491C9.98503 5.0902 9.73956 5.05798 9.58036 4.89878L7.3807 2.69913C7.18544 2.50387 6.86886 2.50387 6.6736 2.69913L2.69925 6.67347C2.50399 6.86873 2.50399 7.18532 2.69925 7.38058L4.89885 9.58017C5.05805 9.73937 5.09027 9.98485 4.98497 10.1838C4.6259 10.8625 4.32771 11.5783 4.09767 12.3239C4.03132 12.539 3.83499 12.6897 3.60992 12.6897H0.5C0.223858 12.6897 0 12.9136 0 13.1897V18.8103C0 19.0864 0.223857 19.3103 0.5 19.3103H3.60993C3.83501 19.3103 4.03133 19.461 4.09768 19.6761C4.32769 20.4217 4.62583 21.1374 4.98484 21.8159C5.09013 22.0149 5.05791 22.2604 4.89871 22.4196L2.6988 24.6195C2.50354 24.8147 2.50354 25.1313 2.6988 25.3266L6.67314 29.3009C6.8684 29.4962 7.18499 29.4962 7.38025 29.3009L9.5801 27.1011C9.7393 26.9419 9.98478 26.9097 10.1838 27.015C10.8623 27.374 11.5781 27.6722 12.3237 27.9022ZM24 16C24 20.4183 20.4183 24 16 24C11.5817 24 8 20.4183 8 16C8 11.5817 11.5817 8 16 8C20.4183 8 24 11.5817 24 16Z" fill="#111827"/>
</svg>
