<svg width="33" height="33" viewBox="0 0 33 33" fill="none" xmlns="http://www.w3.org/2000/svg">
<path fill-rule="evenodd" clip-rule="evenodd" d="M14.112 25.181C14.3264 25.2496 14.4772 25.4455 14.4772 25.6706V27.7829C14.4772 28.059 14.7011 28.2829 14.9772 28.2829H18.9427C19.2188 28.2829 19.4427 28.059 19.4427 27.7829V25.6706C19.4427 25.4456 19.5935 25.2496 19.8079 25.181C20.3037 25.0224 20.7816 24.8236 21.2375 24.5883C21.4376 24.485 21.6829 24.5169 21.8421 24.6761L23.3361 26.1702C23.5314 26.3654 23.848 26.3654 24.0432 26.1702L26.8472 23.3662C27.0425 23.1709 27.0425 22.8543 26.8472 22.6591L25.3532 21.1651C25.194 21.0059 25.1621 20.7605 25.2654 20.5605C25.5007 20.1045 25.6996 19.6267 25.8581 19.1308C25.9267 18.9165 26.1227 18.7656 26.3477 18.7656H28.46C28.7361 18.7656 28.96 18.5418 28.96 18.2656V14.3002C28.96 14.024 28.7361 13.8002 28.46 13.8002H26.3478C26.1227 13.8002 25.9267 13.6493 25.8581 13.435C25.6996 12.9391 25.5007 12.4613 25.2654 12.0053C25.1621 11.8052 25.194 11.5599 25.3532 11.4007L26.8472 9.90671C27.0425 9.71145 27.0425 9.39487 26.8472 9.1996L24.0433 6.39563C23.848 6.20036 23.5314 6.20036 23.3362 6.39562L21.8422 7.88963C21.683 8.04883 21.4376 8.08073 21.2376 7.97748C20.7816 7.74216 20.3038 7.5433 19.8079 7.38473C19.5935 7.31617 19.4427 7.12018 19.4427 6.8951V4.7829C19.4427 4.50676 19.2188 4.2829 18.9427 4.2829H14.9772C14.7011 4.2829 14.4772 4.50676 14.4772 4.7829V6.89512C14.4772 7.1202 14.3264 7.31619 14.112 7.38475C13.6162 7.54332 13.1384 7.74218 12.6824 7.97749C12.4823 8.08074 12.237 8.04884 12.0778 7.88965L10.5838 6.39561C10.3885 6.20035 10.0719 6.20035 9.87667 6.39561L7.07269 9.19959C6.87743 9.39486 6.87743 9.71144 7.07269 9.9067L8.56674 11.4007C8.72593 11.5599 8.75783 11.8053 8.65458 12.0053C8.41928 12.4613 8.22042 12.9391 8.06185 13.435C7.99329 13.6493 7.7973 13.8002 7.57223 13.8002H5.45996C5.18382 13.8002 4.95996 14.024 4.95996 14.3002V18.2656C4.95996 18.5418 5.18382 18.7656 5.45996 18.7656H7.57224C7.79732 18.7656 7.99331 18.9165 8.06187 19.1308C8.22043 19.6267 8.4193 20.1045 8.6546 20.5604C8.75785 20.7605 8.72595 21.0058 8.56676 21.165L7.07271 22.6591C6.87745 22.8543 6.87745 23.1709 7.07271 23.3662L9.87669 26.1702C10.0719 26.3654 10.3885 26.3654 10.5838 26.1702L12.0778 24.6761C12.237 24.5169 12.4824 24.485 12.6824 24.5883C13.1384 24.8236 13.6162 25.0224 14.112 25.181ZM22.96 16.2829C22.96 19.5966 20.2737 22.2829 16.96 22.2829C13.6463 22.2829 10.96 19.5966 10.96 16.2829C10.96 12.9692 13.6463 10.2829 16.96 10.2829C20.2737 10.2829 22.96 12.9692 22.96 16.2829Z" fill="#1C1B1F"/>
</svg>
