<svg width="33" height="33" viewBox="0 0 33 33" fill="none" xmlns="http://www.w3.org/2000/svg">
<path fill-rule="evenodd" clip-rule="evenodd" d="M21.2429 27.6665C21.0037 27.8046 20.6979 27.7227 20.5599 27.4835L19.5034 25.6537C19.391 25.459 19.1627 25.3647 18.943 25.4122C18.3039 25.5504 17.6404 25.6231 16.96 25.6231C16.2795 25.6231 15.6161 25.5504 14.977 25.4122C14.7572 25.3647 14.5289 25.459 14.4165 25.6537L13.3601 27.4835C13.222 27.7227 12.9162 27.8046 12.677 27.6665L9.24288 25.6838C9.00373 25.5458 8.92179 25.24 9.05987 25.0008L10.1174 23.1692C10.2298 22.9744 10.1973 22.7293 10.046 22.5629C9.1577 21.5855 8.47382 20.419 8.06188 19.1309C7.99332 18.9165 7.79732 18.7656 7.57224 18.7656H5.45996C5.18382 18.7656 4.95996 18.5417 4.95996 18.2656V14.3002C4.95996 14.024 5.18382 13.8002 5.45996 13.8002H7.57223C7.7973 13.8002 7.9933 13.6493 8.06186 13.4349C8.47379 12.1468 9.15768 10.9803 10.046 10.0029C10.1973 9.83639 10.2298 9.59136 10.1173 9.39653L9.05986 7.56495C8.92179 7.3258 9.00373 7.02001 9.24288 6.88194L12.677 4.89922C12.9162 4.76115 13.222 4.84309 13.36 5.08224L14.4164 6.91198C14.5289 7.1067 14.7572 7.20104 14.9769 7.15353C15.616 7.01535 16.2795 6.94258 16.96 6.94258C17.6404 6.94258 18.3039 7.01534 18.943 7.15351C19.1628 7.20102 19.391 7.10668 19.5035 6.91196L20.5599 5.08224C20.6979 4.84309 21.0037 4.76115 21.2429 4.89922L24.677 6.88194C24.9162 7.02001 24.9981 7.3258 24.86 7.56495L23.8026 9.39648C23.6901 9.5913 23.7227 9.83634 23.874 10.0028C24.7623 10.9802 25.4462 12.1468 25.8581 13.4349C25.9267 13.6493 26.1227 13.8002 26.3478 13.8002H28.46C28.7361 13.8002 28.96 14.024 28.96 14.3002V18.2656C28.96 18.5417 28.7361 18.7656 28.46 18.7656H26.3477C26.1227 18.7656 25.9267 18.9165 25.8581 19.1309C25.4462 20.419 24.7623 21.5855 23.8739 22.5629C23.7226 22.7294 23.6901 22.9744 23.8026 23.1693L24.86 25.0008C24.9981 25.24 24.9162 25.5458 24.677 25.6838L21.2429 27.6665ZM22.96 16.2831C22.96 19.5968 20.2737 22.2831 16.96 22.2831C13.6463 22.2831 10.96 19.5968 10.96 16.2831C10.96 12.9694 13.6463 10.2831 16.96 10.2831C20.2737 10.2831 22.96 12.9694 22.96 16.2831Z" fill="#1C1B1F"/>
</svg>
