<svg width="32" height="32" viewBox="0 0 32 32" fill="none" xmlns="http://www.w3.org/2000/svg">
<path fill-rule="evenodd" clip-rule="evenodd" d="M6.86695 24.4666C7.01993 24.6316 7.05219 24.8768 6.93971 25.0716L5.38282 27.7683C5.24475 28.0074 5.32668 28.3132 5.56583 28.4513L10.4334 31.2616C10.6725 31.3996 10.9783 31.3177 11.1164 31.0785L12.6718 28.3845C12.7842 28.1898 13.0126 28.0951 13.2318 28.1449C14.1221 28.347 15.0485 28.4536 15.9999 28.4536C16.9514 28.4536 17.8779 28.3469 18.7682 28.1449C18.9874 28.0951 19.2158 28.1898 19.3282 28.3845L20.8836 31.0785C21.0217 31.3177 21.3275 31.3996 21.5666 31.2616L26.4342 28.4513C26.6733 28.3132 26.7553 28.0074 26.6172 27.7683L25.0602 25.0715C24.9478 24.8767 24.98 24.6315 25.133 24.4665C26.3872 23.1142 27.3447 21.483 27.9021 19.6761C27.9685 19.4611 28.1648 19.3103 28.3899 19.3103H31.5C31.7761 19.3103 32 19.0865 32 18.8103V13.1898C32 12.9136 31.7761 12.6898 31.5 12.6898H28.39C28.1649 12.6898 27.9685 12.539 27.9022 12.3239C27.3447 10.5168 26.387 8.88532 25.1326 7.5329C24.9796 7.36796 24.9473 7.1227 25.0598 6.92787L26.6164 4.23175C26.7545 3.99261 26.6725 3.68681 26.4334 3.54874L21.5658 0.738457C21.3267 0.600386 21.0209 0.682324 20.8828 0.92147L19.3276 3.61522C19.2152 3.80994 18.9868 3.90463 18.7676 3.85487C17.8775 3.65289 16.9511 3.54624 15.9999 3.54624C15.0488 3.54624 14.1225 3.65287 13.2324 3.85484C13.0132 3.90459 12.7848 3.8099 12.6724 3.61519L11.1172 0.921473C10.9791 0.682327 10.6733 0.600389 10.4342 0.73846L5.56664 3.54875C5.32749 3.68682 5.24555 3.99261 5.38363 4.23176L6.94016 6.92775C7.05264 7.12258 7.02038 7.36785 6.86738 7.53279C5.6129 8.88522 4.65514 10.5168 4.09765 12.3239C4.0313 12.539 3.83497 12.6898 3.60989 12.6898H0.5C0.223858 12.6898 0 12.9136 0 13.1898V18.8103C0 19.0865 0.223858 19.3103 0.5 19.3103H3.60995C3.83503 19.3103 4.03135 19.4611 4.09771 19.6761C4.65515 21.483 5.61272 23.1143 6.86695 24.4666ZM24 16.0003C24 20.4186 20.4183 24.0003 16 24.0003C11.5817 24.0003 8 20.4186 8 16.0003C8 11.5821 11.5817 8.00034 16 8.00034C20.4183 8.00034 24 11.5821 24 16.0003Z" fill="#111827"/>
</svg>
