<svg width="33" height="33" viewBox="0 0 33 33" fill="none" xmlns="http://www.w3.org/2000/svg">
<path fill-rule="evenodd" clip-rule="evenodd" d="M21.6992 4.78296C21.6992 4.23067 22.1469 3.78296 22.6992 3.78296H28.9601C29.0746 3.78296 29.1845 3.80219 29.2869 3.8376C29.4259 3.88551 29.5564 3.96492 29.6673 4.07585C29.8668 4.27535 29.9644 4.53817 29.9601 4.79961V11.0438C29.9601 11.5961 29.5124 12.0438 28.9601 12.0438C28.4078 12.0438 27.9601 11.5961 27.9601 11.0438V7.19731L21.6993 13.4581C21.6867 13.4707 21.6738 13.4829 21.6607 13.4947C22.9628 15.1067 23.7426 17.1581 23.7426 19.3917C23.7426 24.5783 19.5379 28.783 14.3513 28.783C9.16459 28.783 4.95996 24.5783 4.95996 19.3917C4.95996 14.205 9.16459 10.0004 14.3513 10.0004C16.585 10.0004 18.6365 10.7802 20.2485 12.0824C20.2603 12.0693 20.2725 12.0565 20.2851 12.0439L26.546 5.78296H22.6992C22.1469 5.78296 21.6992 5.33524 21.6992 4.78296Z" fill="#1C1B1F"/>
</svg>
