<svg width="32" height="33" viewBox="0 0 32 33" fill="none" xmlns="http://www.w3.org/2000/svg">
<path fill-rule="evenodd" clip-rule="evenodd" d="M18.9323 0.500977C18.38 0.500977 17.9323 0.948692 17.9323 1.50098C17.9323 2.05326 18.38 2.50098 18.9323 2.50098H23.8552L19.1528 7.20346L19.145 7.21128C17.6324 5.89312 15.6549 5.09484 13.491 5.09484C8.73574 5.09484 4.88086 8.94971 4.88086 13.7049C4.88086 18.1226 8.20783 21.7632 12.4929 22.2578C12.4918 22.2768 12.4913 22.2958 12.4913 22.315V26.4811H8.89918C8.34689 26.4811 7.89918 26.9288 7.89918 27.4811C7.89918 28.0334 8.34689 28.4811 8.89918 28.4811H12.4913V31.4991C12.4913 32.0514 12.939 32.4991 13.4913 32.4991C14.0435 32.4991 14.4913 32.0514 14.4913 31.4991V28.4811H18.0833C18.6356 28.4811 19.0833 28.0334 19.0833 27.4811C19.0833 26.9288 18.6356 26.4811 18.0833 26.4811H14.4913V22.315C14.4913 22.2958 14.4907 22.2767 14.4896 22.2578C18.7744 21.7628 22.1011 18.1224 22.1011 13.7049C22.1011 11.833 21.5037 10.1005 20.4891 8.68787C20.516 8.66607 20.542 8.64267 20.567 8.61767L25.1198 4.06482V8.68854C25.1198 9.24083 25.5675 9.68854 26.1198 9.68854C26.6721 9.68854 27.1198 9.24083 27.1198 8.68854V1.50098C27.1198 0.948692 26.6721 0.500977 26.1198 0.500977H18.9323Z" fill="#111827"/>
</svg>
