<svg width="33" height="33" viewBox="0 0 33 33" fill="none" xmlns="http://www.w3.org/2000/svg">
<path fill-rule="evenodd" clip-rule="evenodd" d="M29.6309 4.04156C29.6562 4.06449 29.6804 4.08871 29.7032 4.1141C29.7756 4.19435 29.8326 4.2835 29.8743 4.37778C29.9293 4.50163 29.9598 4.63873 29.9598 4.78296V11.316C29.9598 11.8683 29.5121 12.316 28.9598 12.316C28.4076 12.316 27.9598 11.8683 27.9598 11.316V7.19715L24.1133 11.0437L26.5368 13.4672C26.9273 13.8577 26.9273 14.4909 26.5368 14.8814C26.1463 15.272 25.5131 15.272 25.1226 14.8814L22.6991 12.4579L19.9176 15.2394C19.9035 15.2535 19.889 15.2671 19.8743 15.2802C20.9901 16.6996 21.6556 18.4896 21.6556 20.4351C21.6556 25.0455 17.9182 28.7829 13.3078 28.7829C8.69741 28.7829 4.95996 25.0455 4.95996 20.4351C4.95996 15.8247 8.69741 12.0873 13.3078 12.0873C15.2532 12.0873 17.0432 12.7528 18.4625 13.8685C18.4756 13.8538 18.4892 13.8393 18.5033 13.8252L21.2849 11.0437L18.8617 8.62056C18.4712 8.23003 18.4712 7.59687 18.8617 7.20635C19.2523 6.81582 19.8854 6.81582 20.276 7.20635L22.6991 9.62948L26.5456 5.78296H22.4268C21.8745 5.78296 21.4268 5.33524 21.4268 4.78296C21.4268 4.23067 21.8745 3.78296 22.4268 3.78296H28.9598C29.2181 3.78296 29.4535 3.88085 29.6309 4.04156Z" fill="#1C1B1F"/>
</svg>
