<svg width="33" height="33" viewBox="0 0 33 33" fill="none" xmlns="http://www.w3.org/2000/svg">
<path fill-rule="evenodd" clip-rule="evenodd" d="M19.7056 3.78296C19.1533 3.78296 18.7056 4.23067 18.7056 4.78296C18.7056 5.33524 19.1533 5.78296 19.7056 5.78296H23.1615L19.7406 9.20377C19.738 9.20644 19.7353 9.20912 19.7327 9.21181C19.7294 9.21518 19.7261 9.21857 19.7229 9.22197C18.5338 8.24482 17.0116 7.6582 15.3524 7.6582C11.548 7.6582 8.46387 10.7423 8.46387 14.5467C8.46387 18.0124 11.0233 20.8804 14.3551 21.3635C14.3534 21.3872 14.3525 21.4111 14.3525 21.4352V24.5684H11.6787C11.1264 24.5684 10.6787 25.0161 10.6787 25.5684C10.6787 26.1206 11.1264 26.5684 11.6787 26.5684H14.3525V28.7829C14.3525 29.3352 14.8003 29.7829 15.3525 29.7829C15.9048 29.7829 16.3525 29.3352 16.3525 28.7829V26.5684H19.0264C19.5787 26.5684 20.0264 26.1206 20.0264 25.5684C20.0264 25.0161 19.5787 24.5684 19.0264 24.5684H16.3525V21.4352C16.3525 21.4111 16.3517 21.3872 16.35 21.3635C19.6817 20.8802 22.2409 18.0123 22.2409 14.5467C22.2409 13.1209 21.8077 11.7962 21.0657 10.6972C21.0966 10.6729 21.1264 10.6465 21.1549 10.618L24.456 7.31687V10.5334C24.456 11.0856 24.9037 11.5334 25.456 11.5334C26.0083 11.5334 26.456 11.0856 26.456 10.5334V4.78296C26.456 4.23067 26.0083 3.78296 25.456 3.78296H19.7056Z" fill="#1C1B1F"/>
</svg>
