<svg width="32" height="33" viewBox="0 0 32 33" fill="none" xmlns="http://www.w3.org/2000/svg">
<path fill-rule="evenodd" clip-rule="evenodd" d="M31.9291 1.13207C31.8803 1.00882 31.806 0.893319 31.7063 0.793626C31.5111 0.598359 31.2551 0.500728 30.9992 0.500732C30.9992 0.500732 30.9991 0.500732 30.999 0.500732H22.5611C22.0088 0.500732 21.5611 0.948448 21.5611 1.50073C21.5611 2.05302 22.0088 2.50073 22.5611 2.50073H28.585L22.9127 8.17307L19.5766 4.83702C19.1861 4.4465 18.5529 4.4465 18.1624 4.83702C17.7719 5.22754 17.7719 5.86071 18.1624 6.25123L21.4984 9.58729L17.6998 13.3859C17.6889 13.3968 17.6783 13.4079 17.668 13.4192C15.8004 11.8679 13.4007 10.9351 10.7831 10.9351C4.82828 10.9351 0.000976562 15.7624 0.000976562 21.7172C0.000976562 27.672 4.82828 32.4993 10.7831 32.4993C16.7378 32.4993 21.5651 27.672 21.5651 21.7172C21.5651 19.0994 20.6322 16.6996 19.0808 14.8319C19.092 14.8216 19.1031 14.811 19.114 14.8002L22.9127 11.0015L26.249 14.3378C26.6395 14.7283 27.2726 14.7283 27.6632 14.3378C28.0537 13.9473 28.0537 13.3141 27.6632 12.9236L24.3269 9.58729L29.9992 3.91496V9.93888C29.9992 10.4912 30.4469 10.9389 30.9992 10.9389C31.5515 10.9389 31.9992 10.4912 31.9992 9.93888V1.50573V1.50073C31.9992 1.37053 31.9743 1.24615 31.9291 1.13207Z" fill="#111827"/>
</svg>
