<svg width="33" height="33" viewBox="0 0 33 33" fill="none" xmlns="http://www.w3.org/2000/svg">
<path fill-rule="evenodd" clip-rule="evenodd" d="M13.4748 3.95295C13.0164 3.6449 12.3951 3.76677 12.087 4.22516C11.7789 4.68355 11.9008 5.30488 12.3592 5.61293L15.1671 7.49992L12.3592 9.38691C11.9008 9.69496 11.7789 10.3163 12.087 10.7747C12.3951 11.2331 13.0164 11.3549 13.4748 11.0469L15.96 9.37678V13.3868C15.96 13.4083 15.9606 13.4296 15.962 13.4508C12.1818 13.94 9.26172 17.1714 9.26172 21.0848C9.26172 25.3364 12.7083 28.7829 16.9598 28.7829C21.2114 28.7829 24.6579 25.3364 24.6579 21.0848C24.6579 17.1715 21.738 13.9402 17.9579 13.4508C17.9593 13.4296 17.96 13.4083 17.96 13.3868V9.37679L20.4451 11.0469C20.9035 11.3549 21.5249 11.2331 21.8329 10.7747C22.141 10.3163 22.0191 9.69496 21.5607 9.38691L18.7528 7.49992L21.5607 5.61293C22.0191 5.30488 22.141 4.68355 21.8329 4.22516C21.5249 3.76677 20.9035 3.6449 20.4451 3.95295L16.96 6.29509L13.4748 3.95295Z" fill="#1C1B1F"/>
</svg>
