<svg width="32" height="33" viewBox="0 0 32 33" fill="none" xmlns="http://www.w3.org/2000/svg">
<path fill-rule="evenodd" clip-rule="evenodd" d="M11.3363 0.670966C10.8779 0.362915 10.2566 0.484789 9.94855 0.94318C9.6405 1.40157 9.76237 2.0229 10.2208 2.33095L14.2076 5.01021L10.2208 7.68947C9.76237 7.99752 9.6405 8.61885 9.94855 9.07724C10.2566 9.53563 10.8779 9.6575 11.3363 9.34945L15.0002 6.88721V12.6136C15.0002 12.6302 15.0006 12.6467 15.0014 12.663C9.97902 13.1639 6.05713 17.4021 6.05713 22.5564C6.05713 28.0477 10.5087 32.4993 16 32.4993C21.4913 32.4993 25.9429 28.0477 25.9429 22.5564C25.9429 17.4023 22.0212 13.1641 16.999 12.6631C16.9998 12.6467 17.0002 12.6302 17.0002 12.6136V6.88693L20.6645 9.34945C21.1229 9.6575 21.7443 9.53563 22.0523 9.07724C22.3604 8.61885 22.2385 7.99752 21.7801 7.68947L17.7933 5.01021L21.7801 2.33095C22.2385 2.0229 22.3604 1.40157 22.0523 0.94318C21.7443 0.484789 21.1229 0.362915 20.6645 0.670966L16.0004 3.80538L11.3363 0.670966Z" fill="#111827"/>
</svg>
