<svg width="32" height="33" viewBox="0 0 32 33" fill="none" xmlns="http://www.w3.org/2000/svg">
<path fill-rule="evenodd" clip-rule="evenodd" d="M21.4254 1.78C21.4254 1.07308 21.9985 0.5 22.7054 0.5H30.7194C30.8551 0.5 30.9858 0.521115 31.1085 0.560239C31.2973 0.620266 31.475 0.725154 31.6247 0.874903C31.8811 1.13134 32.006 1.46951 31.9994 1.80556V9.79391C31.9994 10.5008 31.4263 11.0739 30.7194 11.0739C30.0124 11.0739 29.4394 10.5008 29.4394 9.79391V4.87045L21.4256 12.8842C21.4095 12.9003 21.3931 12.9159 21.3764 12.9309C23.0431 14.9943 24.0412 17.6202 24.0412 20.4792C24.0412 27.1181 18.6593 32.5 12.0204 32.5C5.38143 32.5 -0.000488281 27.1181 -0.000488281 20.4792C-0.000488281 13.8402 5.38143 8.45831 12.0204 8.45831C14.8794 8.45831 17.5053 9.45643 19.5687 11.1232C19.5838 11.1065 19.5993 11.0901 19.6154 11.074L27.6294 3.06H22.7054C21.9985 3.06 21.4254 2.48692 21.4254 1.78Z" fill="#111827"/>
</svg>
