<svg width="32" height="33" viewBox="0 0 32 33" fill="none" xmlns="http://www.w3.org/2000/svg">
<path fill-rule="evenodd" clip-rule="evenodd" d="M26.3327 10.8336C26.3327 16.2033 22.2367 20.6163 16.9987 21.1188C16.9995 21.1346 16.9998 21.1505 16.9998 21.1664V25.9068H21.7403C22.2925 25.9068 22.7403 26.3546 22.7403 26.9068C22.7403 27.4591 22.2925 27.9068 21.7403 27.9068H16.9998V31.4993C16.9998 32.0516 16.5521 32.4993 15.9998 32.4993C15.4476 32.4993 14.9998 32.0516 14.9998 31.4993V27.9068H10.2593C9.70703 27.9068 9.25932 27.4591 9.25932 26.9068C9.25932 26.3546 9.70703 25.9068 10.2593 25.9068H14.9998V21.1664C14.9998 21.1505 15.0002 21.1346 15.001 21.1188C9.76296 20.6163 5.66699 16.2033 5.66699 10.8336C5.66699 5.12691 10.2932 0.500732 15.9998 0.500732C21.7065 0.500732 26.3327 5.12691 26.3327 10.8336Z" fill="#111827"/>
</svg>
