<svg width="32" height="32" viewBox="0 0 32 32" fill="none" xmlns="http://www.w3.org/2000/svg">
<path fill-rule="evenodd" clip-rule="evenodd" d="M30.6801 31.25C30.9951 31.5649 31.5337 31.3419 31.5337 30.8964V15.637C31.5337 7.05808 24.5791 0.103516 16.0002 0.103516C7.42136 0.103516 0.466797 7.05808 0.466797 15.637V30.8964C0.466797 31.3419 1.00537 31.5649 1.32035 31.25L5.29106 27.2793C5.48632 27.084 5.80291 27.084 5.99817 27.2793L10.4689 31.75C10.6641 31.9452 10.9807 31.9452 11.176 31.75L15.6467 27.2793C15.842 27.084 16.1585 27.084 16.3538 27.2793L20.8245 31.75C21.0198 31.9452 21.3364 31.9452 21.5316 31.75L26.0023 27.2793C26.1976 27.084 26.5142 27.084 26.7094 27.2793L30.6801 31.25ZM11.3033 16.1034C12.415 16.1034 13.3162 15.2021 13.3162 14.0904C13.3162 12.9787 12.415 12.0775 11.3033 12.0775C10.1916 12.0775 9.29036 12.9787 9.29036 14.0904C9.29036 15.2021 10.1916 16.1034 11.3033 16.1034ZM22.7101 14.0904C22.7101 15.2021 21.8089 16.1034 20.6972 16.1034C19.5855 16.1034 18.6842 15.2021 18.6842 14.0904C18.6842 12.9787 19.5855 12.0775 20.6972 12.0775C21.8089 12.0775 22.7101 12.9787 22.7101 14.0904Z" fill="#111827"/>
</svg>
