<svg width="32" height="33" viewBox="0 0 32 33" fill="none" xmlns="http://www.w3.org/2000/svg">
<path fill-rule="evenodd" clip-rule="evenodd" d="M30.6801 31.75C30.9951 32.0649 31.5337 31.8419 31.5337 31.3964V16.137C31.5337 7.55808 24.5791 0.603516 16.0002 0.603516C7.42136 0.603516 0.466797 7.55808 0.466797 16.137V31.3964C0.466797 31.8419 1.00537 32.0649 1.32035 31.75L5.29106 27.7793C5.48632 27.584 5.80291 27.584 5.99817 27.7793L10.4689 32.25C10.6641 32.4452 10.9807 32.4452 11.176 32.25L15.6467 27.7793C15.842 27.584 16.1585 27.584 16.3538 27.7793L20.8245 32.25C21.0198 32.4452 21.3364 32.4452 21.5316 32.25L26.0023 27.7793C26.1976 27.584 26.5142 27.584 26.7094 27.7793L30.6801 31.75ZM11.3033 16.6034C12.415 16.6034 13.3162 15.7021 13.3162 14.5904C13.3162 13.4787 12.415 12.5775 11.3033 12.5775C10.1916 12.5775 9.29036 13.4787 9.29036 14.5904C9.29036 15.7021 10.1916 16.6034 11.3033 16.6034ZM22.7101 14.5904C22.7101 15.7021 21.8089 16.6034 20.6972 16.6034C19.5855 16.6034 18.6842 15.7021 18.6842 14.5904C18.6842 13.4787 19.5855 12.5775 20.6972 12.5775C21.8089 12.5775 22.7101 13.4787 22.7101 14.5904Z" fill="#111827"/>
</svg>
