<svg width="33" height="33" viewBox="0 0 33 33" fill="none" xmlns="http://www.w3.org/2000/svg">
<path d="M17.9705 19.5701H26.9602V26.2428C26.9602 26.7951 26.5125 27.2428 25.9602 27.2428H17.9705V19.5701Z" fill="#1C1B1F"/>
<path d="M6.96021 19.5701H15.9518V27.2429H7.9602C7.40792 27.2429 6.96021 26.7952 6.96021 26.2429V19.5701Z" fill="#1C1B1F"/>
<path d="M17.9705 11.55H27.9603C28.5126 11.55 28.9603 11.9978 28.9603 12.55V17.55H17.9705L17.9705 11.55Z" fill="#1C1B1F"/>
<path d="M4.96021 12.55C4.96021 11.9978 5.40792 11.55 5.96021 11.55H15.9518V17.55H4.96021V12.55Z" fill="#1C1B1F"/>
<path fill-rule="evenodd" clip-rule="evenodd" d="M16.2526 5.18559C15.5023 4.43615 14.4851 4.01532 13.4246 4.01562C12.3642 4.01593 11.3472 4.43733 10.5974 5.1872C9.84749 5.93706 9.42608 6.95401 9.42578 8.01449C9.42548 9.07496 9.84631 10.0921 10.5957 10.8424L11.3033 10.1357L10.5961 10.8428C11.1099 11.3566 11.8109 11.6831 12.4675 11.902C13.1414 12.1266 13.8683 12.2699 14.5206 12.3631C15.0546 12.4394 15.5551 12.4844 15.9602 12.511V11.55V10.55H17.9211C17.8945 10.145 17.8496 9.64449 17.7733 9.11043C17.6801 8.45818 17.5368 7.73125 17.3122 7.05737C17.0933 6.40072 16.7668 5.69976 16.253 5.18599L16.2526 5.18559ZM13.1 10.0046C12.5634 9.82578 12.2037 9.62197 12.0104 9.42863C11.6359 9.05352 11.4256 8.5451 11.4258 8.01506C11.4259 7.48482 11.6366 6.97635 12.0116 6.60141C12.3865 6.22648 12.895 6.01578 13.4252 6.01562C13.9553 6.01547 14.4637 6.22574 14.8388 6.6002L14.8388 6.60026C15.0322 6.79361 15.236 7.15329 15.4148 7.68983C15.5879 8.2092 15.7098 8.80809 15.7934 9.39328C15.8504 9.7923 15.888 10.1736 15.9128 10.5027C15.5837 10.4779 15.2025 10.4402 14.8034 10.3832C14.2182 10.2996 13.6194 10.1778 13.1 10.0046Z" fill="#1C1B1F"/>
<path fill-rule="evenodd" clip-rule="evenodd" d="M17.6886 5.18559C18.4389 4.43615 19.456 4.01532 20.5165 4.01562C21.577 4.01593 22.5939 4.43733 23.3438 5.1872C24.0937 5.93706 24.5151 6.95401 24.5154 8.01449C24.5157 9.07496 24.0949 10.0921 23.3454 10.8424L22.6379 10.1357L23.345 10.8428C22.8312 11.3566 22.1303 11.6831 21.4736 11.902C20.7998 12.1266 20.0728 12.2699 19.4206 12.3631C18.8865 12.4394 18.386 12.4844 17.981 12.511V11.55V10.55H16.0201C16.0466 10.145 16.0916 9.64449 16.1679 9.11043C16.2611 8.45818 16.4044 7.73125 16.629 7.05737C16.8479 6.40072 17.1744 5.69976 17.6882 5.18599L17.6886 5.18559ZM20.8412 10.0046C21.3778 9.82578 21.7375 9.62197 21.9308 9.42863C22.3053 9.05352 22.5155 8.5451 22.5154 8.01506C22.5152 7.48482 22.3045 6.97635 21.9296 6.60141C21.5547 6.22648 21.0462 6.01578 20.5159 6.01562C19.9859 6.01547 19.4775 6.22574 19.1024 6.6002L19.1023 6.60026C18.909 6.79361 18.7052 7.15329 18.5264 7.68983C18.3532 8.2092 18.2314 8.80809 18.1478 9.39328C18.0908 9.7923 18.0531 10.1736 18.0283 10.5027C18.3574 10.4779 18.7387 10.4402 19.1377 10.3832C19.7229 10.2996 20.3218 10.1778 20.8412 10.0046Z" fill="#1C1B1F"/>
</svg>
