<svg width="32" height="33" viewBox="0 0 32 33" fill="none" xmlns="http://www.w3.org/2000/svg">
<path fill-rule="evenodd" clip-rule="evenodd" d="M14.8209 2.64434C13.883 1.70754 12.6115 1.18151 11.2859 1.18188C9.96034 1.18226 8.68915 1.70902 7.75182 2.64635C6.81449 3.58368 6.28773 4.85487 6.28735 6.18046C6.28698 7.50605 6.81301 8.77753 7.74981 9.7154L7.75021 9.7158C8.27709 10.2427 8.97522 10.6188 9.68887 10.8945H1C0.447715 10.8945 0 11.3422 0 11.8945V18.8945H14.9962V11.8615L14.9999 11.8617V10.8944V9.89444H15.0605H16.9671H17.0277V10.8944V11.8617C17.03 11.8615 17.0323 11.8614 17.0347 11.8613V18.8945H32.0001V11.8945C32.0001 11.3422 31.5524 10.8945 31.0001 10.8945H22.3387C23.0524 10.6188 23.7505 10.2427 24.2774 9.7158L24.2778 9.7154C25.2146 8.77753 25.7406 7.50605 25.7402 6.18046C25.7399 4.85487 25.2131 3.58368 24.2758 2.64635C23.3384 1.70902 22.0672 1.18226 20.7417 1.18188C19.4161 1.18151 18.1446 1.70754 17.2067 2.64434L17.2063 2.64474C16.6706 3.18046 16.2908 3.89323 16.0138 4.61933C15.7368 3.89323 15.357 3.18046 14.8213 2.64474L14.8209 2.64434ZM14.2556 5.64208C14.495 6.36032 14.6611 7.18018 14.7741 7.97161C14.8747 8.67589 14.9307 9.33824 14.9617 9.85626L13.4071 4.05899C13.7183 4.37019 14.0105 4.90665 14.2556 5.64208ZM13.4071 4.05895L14.9617 9.85626C14.4437 9.82524 13.7814 9.76927 13.0771 9.66866C12.2857 9.5556 11.4658 9.38955 10.7475 9.15014C10.0121 8.90498 9.47561 8.61278 9.16442 8.30159C8.6026 7.73891 8.28713 6.97619 8.28735 6.18103C8.28758 5.38568 8.60363 4.62296 9.16603 4.06056C9.72843 3.49816 10.4911 3.18211 11.2865 3.18189C12.0817 3.18166 12.8444 3.49713 13.4071 4.05895ZM14.9961 21.5879H2.72852V30.8183C2.72852 31.3706 3.17623 31.8183 3.72852 31.8183H14.9961V21.5879ZM29.2765 21.5879H17.0347V31.8183H28.2765C28.8288 31.8183 29.2765 31.3705 29.2765 30.8183V21.5879ZM17.2535 7.97161C17.3665 7.18018 17.5326 6.36032 17.772 5.64208C18.0171 4.90665 18.3093 4.37019 18.6205 4.05899L18.6205 4.05895C19.1832 3.49713 19.9459 3.18166 20.7411 3.18189C21.5364 3.18211 22.2992 3.49816 22.8616 4.06056C23.424 4.62296 23.74 5.38568 23.7402 6.18103C23.7405 6.97619 23.425 7.73891 22.8632 8.30159C22.552 8.61278 22.0155 8.90498 21.28 9.15014C20.5618 9.38955 19.7419 9.5556 18.9505 9.66866C18.2462 9.76927 17.5839 9.82524 17.0659 9.85626C17.0969 9.33824 17.1528 8.67589 17.2535 7.97161Z" fill="#111827"/>
</svg>
