<svg width="32" height="32" viewBox="0 0 32 32" fill="none" xmlns="http://www.w3.org/2000/svg">
<path fill-rule="evenodd" clip-rule="evenodd" d="M14.8209 2.14434C13.883 1.20754 12.6115 0.681508 11.2859 0.681885C9.96034 0.682262 8.68915 1.20902 7.75182 2.14635C6.81449 3.08368 6.28773 4.35487 6.28735 5.68046C6.28698 7.00605 6.81301 8.27753 7.74981 9.2154L7.75021 9.2158C8.27709 9.74268 8.97522 10.1188 9.68887 10.3945H1C0.447715 10.3945 0 10.8422 0 11.3945V18.3945H14.9962V11.3615L14.9999 11.3617V10.3944V9.39444H15.0605H16.9671H17.0277V10.3944V11.3617C17.03 11.3615 17.0323 11.3614 17.0347 11.3613V18.3945H32.0001V11.3945C32.0001 10.8422 31.5524 10.3945 31.0001 10.3945H22.3387C23.0524 10.1188 23.7505 9.74268 24.2774 9.2158L24.2778 9.2154C25.2146 8.27753 25.7406 7.00605 25.7402 5.68046C25.7399 4.35487 25.2131 3.08368 24.2758 2.14635C23.3384 1.20902 22.0672 0.682262 20.7417 0.681885C19.4161 0.681508 18.1446 1.20754 17.2067 2.14434L17.2063 2.14474C16.6706 2.68046 16.2908 3.39323 16.0138 4.11933C15.7368 3.39323 15.357 2.68046 14.8213 2.14474L14.8209 2.14434ZM14.2556 5.14208C14.495 5.86032 14.6611 6.68018 14.7741 7.47161C14.8747 8.17589 14.9307 8.83824 14.9617 9.35626L13.4071 3.55899C13.7183 3.87019 14.0105 4.40665 14.2556 5.14208ZM13.4071 3.55895L14.9617 9.35626C14.4437 9.32524 13.7814 9.26927 13.0771 9.16866C12.2857 9.0556 11.4658 8.88955 10.7475 8.65014C10.0121 8.40498 9.47561 8.11278 9.16442 7.80159C8.6026 7.23891 8.28713 6.47619 8.28735 5.68103C8.28758 4.88568 8.60363 4.12296 9.16603 3.56056C9.72843 2.99816 10.4911 2.68211 11.2865 2.68189C12.0817 2.68166 12.8444 2.99713 13.4071 3.55895ZM14.9961 21.0879H2.72852V30.3183C2.72852 30.8706 3.17623 31.3183 3.72852 31.3183H14.9961V21.0879ZM29.2765 21.0879H17.0347V31.3183H28.2765C28.8288 31.3183 29.2765 30.8705 29.2765 30.3183V21.0879ZM17.2535 7.47161C17.3665 6.68018 17.5326 5.86032 17.772 5.14208C18.0171 4.40665 18.3093 3.87019 18.6205 3.55899L18.6205 3.55895C19.1832 2.99713 19.9459 2.68166 20.7411 2.68189C21.5364 2.68211 22.2992 2.99816 22.8616 3.56056C23.424 4.12296 23.74 4.88568 23.7402 5.68103C23.7405 6.47619 23.425 7.23891 22.8632 7.80159C22.552 8.11278 22.0155 8.40498 21.28 8.65014C20.5618 8.88955 19.7419 9.0556 18.9505 9.16866C18.2462 9.26927 17.5839 9.32524 17.0659 9.35626C17.0969 8.83824 17.1528 8.17589 17.2535 7.47161Z" fill="#111827"/>
</svg>
