<svg width="32" height="32" viewBox="0 0 32 32" fill="none" xmlns="http://www.w3.org/2000/svg">
<path fill-rule="evenodd" clip-rule="evenodd" d="M27.0955 10.1784C29.8207 10.0802 31.9998 7.84 31.9998 5.09085C31.9998 2.27925 29.7206 0 26.909 0C24.0974 0 21.8181 2.27925 21.8181 5.09085C21.8181 7.26367 23.1794 9.11855 25.0955 9.84924V11.098C25.0955 13.3071 23.3047 15.098 21.0956 15.098H10.3658C8.69259 15.098 7.17932 15.7829 6.09109 16.8877V10.182C6.09109 10.1491 6.0895 10.1165 6.08639 10.0844C8.42137 9.62151 10.1817 7.56176 10.1817 5.09085C10.1817 2.27925 7.90246 0 5.09086 0C2.27925 0 0 2.27925 0 5.09085C0 7.56192 1.76058 9.62179 4.09579 10.0845C4.09268 10.1166 4.09109 10.1491 4.09109 10.182V21.8183C4.09109 21.8511 4.09267 21.8835 4.09576 21.9155C1.76056 22.3782 0 24.4381 0 26.9091C0 29.7207 2.27925 32 5.09086 32C7.90246 32 10.1817 29.7207 10.1817 26.9091C10.1817 24.5378 8.5604 22.5452 6.36583 21.9793V21.098C6.36583 18.8888 8.15669 17.098 10.3658 17.098H21.0956C24.4093 17.098 27.0955 14.4117 27.0955 11.098V10.1784Z" fill="#111827"/>
</svg>
