<svg width="32" height="33" viewBox="0 0 32 33" fill="none" xmlns="http://www.w3.org/2000/svg">
<path fill-rule="evenodd" clip-rule="evenodd" d="M27.0955 10.6784C29.8207 10.5802 31.9998 8.34 31.9998 5.59085C31.9998 2.77925 29.7206 0.5 26.909 0.5C24.0974 0.5 21.8181 2.77925 21.8181 5.59085C21.8181 7.76367 23.1794 9.61855 25.0955 10.3492V11.598C25.0955 13.8071 23.3047 15.598 21.0956 15.598H10.3658C8.69259 15.598 7.17932 16.2829 6.09109 17.3877V10.682C6.09109 10.6491 6.0895 10.6165 6.08639 10.5844C8.42137 10.1215 10.1817 8.06176 10.1817 5.59085C10.1817 2.77925 7.90246 0.5 5.09086 0.5C2.27925 0.5 0 2.77925 0 5.59085C0 8.06192 1.76058 10.1218 4.09579 10.5845C4.09268 10.6166 4.09109 10.6491 4.09109 10.682V22.3183C4.09109 22.3511 4.09267 22.3835 4.09576 22.4155C1.76056 22.8782 0 24.9381 0 27.4091C0 30.2207 2.27925 32.5 5.09086 32.5C7.90246 32.5 10.1817 30.2207 10.1817 27.4091C10.1817 25.0378 8.5604 23.0452 6.36583 22.4793V21.598C6.36583 19.3888 8.15669 17.598 10.3658 17.598H21.0956C24.4093 17.598 27.0955 14.9117 27.0955 11.598V10.6784Z" fill="#111827"/>
</svg>
