<svg width="33" height="33" viewBox="0 0 33 33" fill="none" xmlns="http://www.w3.org/2000/svg">
<path fill-rule="evenodd" clip-rule="evenodd" d="M25.516 11.9011C27.4492 11.7131 28.9601 10.0835 28.9601 8.10102C28.9601 5.9923 27.2506 4.28284 25.1419 4.28284C23.0332 4.28284 21.3237 5.9923 21.3237 8.10102C21.3237 9.634 22.2272 10.956 23.5306 11.5636C23.479 13.6671 21.7577 15.3565 19.6417 15.3565H13.9264C12.3126 15.3565 10.8491 15.9998 9.77832 17.044V11.9194C9.77832 11.8753 9.77546 11.8318 9.76991 11.7891C11.3978 11.3525 12.5963 9.86671 12.5963 8.10102C12.5963 5.9923 10.8869 4.28284 8.77814 4.28284C6.66942 4.28284 4.95996 5.9923 4.95996 8.10102C4.95996 9.86683 6.15866 11.3527 7.78672 11.7892C7.78118 11.8318 7.77832 11.8753 7.77832 11.9194V20.6467C7.77832 20.6908 7.78117 20.7342 7.7867 20.7767C6.15865 21.2133 4.95996 22.6991 4.95996 24.4649C4.95996 26.5736 6.66942 28.2831 8.77814 28.2831C10.8869 28.2831 12.5963 26.5736 12.5963 24.4649C12.5963 22.7871 11.5141 21.362 10.0097 20.8497C10.2324 18.8839 11.9011 17.3565 13.9264 17.3565H19.6417C22.7485 17.3565 25.2935 14.9511 25.516 11.9011Z" fill="#1C1B1F"/>
</svg>
