<svg width="33" height="33" viewBox="0 0 33 33" fill="none" xmlns="http://www.w3.org/2000/svg">
<path fill-rule="evenodd" clip-rule="evenodd" d="M22.0646 17.2783C21.6001 19.674 19.4912 21.4829 16.9598 21.4829C14.4284 21.4829 12.3194 19.674 11.855 17.2784C11.8237 17.2813 11.792 17.2828 11.76 17.2828H4.95996C4.40768 17.2828 3.95996 16.8351 3.95996 16.2828C3.95996 15.7306 4.40768 15.2828 4.95996 15.2828H11.76C11.792 15.2828 11.8237 15.2843 11.855 15.2873C12.3195 12.8917 14.4284 11.0829 16.9598 11.0829C19.4912 11.0829 21.6001 12.8917 22.0646 15.2873C22.096 15.2844 22.1279 15.2828 22.1602 15.2828H28.9602C29.5124 15.2828 29.9602 15.7306 29.9602 16.2828C29.9602 16.8351 29.5124 17.2828 28.9602 17.2828H22.1602C22.1279 17.2828 22.096 17.2813 22.0646 17.2783Z" fill="#1C1B1F"/>
</svg>
