<svg width="32" height="33" viewBox="0 0 32 33" fill="none" xmlns="http://www.w3.org/2000/svg">
<path fill-rule="evenodd" clip-rule="evenodd" d="M22.3221 17.497C21.8433 20.5581 19.1948 22.9 15.9993 22.9C12.8039 22.9 10.1554 20.5581 9.6766 17.4971C9.6512 17.499 9.62553 17.5 9.59964 17.5H1.23047C0.678184 17.5 0.230469 17.0523 0.230469 16.5C0.230469 15.9477 0.678184 15.5 1.23047 15.5H9.59964C9.62554 15.5 9.65121 15.501 9.67662 15.5029C10.1555 12.4419 12.8039 10.1001 15.9993 10.1001C19.1948 10.1001 21.8432 12.4419 22.3221 15.503C22.3477 15.501 22.3736 15.5 22.3998 15.5H30.7689C31.3212 15.5 31.7689 15.9477 31.7689 16.5C31.7689 17.0523 31.3212 17.5 30.7689 17.5H22.3998C22.3736 17.5 22.3477 17.499 22.3221 17.497Z" fill="#111827"/>
</svg>
