<svg width="32" height="32" viewBox="0 0 32 32" fill="none" xmlns="http://www.w3.org/2000/svg">
<path fill-rule="evenodd" clip-rule="evenodd" d="M22.3221 16.997C21.8433 20.0581 19.1948 22.4 15.9993 22.4C12.8039 22.4 10.1554 20.0581 9.6766 16.9971C9.6512 16.999 9.62553 17 9.59964 17H1.23047C0.678184 17 0.230469 16.5523 0.230469 16C0.230469 15.4477 0.678184 15 1.23047 15H9.59964C9.62554 15 9.65121 15.001 9.67662 15.0029C10.1555 11.9419 12.8039 9.6001 15.9993 9.6001C19.1948 9.6001 21.8432 11.9419 22.3221 15.003C22.3477 15.001 22.3736 15 22.3998 15H30.7689C31.3212 15 31.7689 15.4477 31.7689 16C31.7689 16.5523 31.3212 17 30.7689 17H22.3998C22.3736 17 22.3477 16.999 22.3221 16.997Z" fill="#111827"/>
</svg>
