<svg width="33" height="33" viewBox="0 0 33 33" fill="none" xmlns="http://www.w3.org/2000/svg">
<path fill-rule="evenodd" clip-rule="evenodd" d="M11.96 8.78296C11.96 10.2223 11.0911 11.4587 9.84932 11.9964C9.8787 12.0905 9.89453 12.1907 9.89453 12.2945V19.1025L13.96 23.6595V20.283C13.96 19.7307 14.4077 19.283 14.96 19.283C15.5122 19.283 15.96 19.7307 15.96 20.283V26.2561C15.9675 26.54 15.8546 26.8253 15.626 27.0292C15.4324 27.2019 15.1903 27.2856 14.9498 27.283H8.95996C8.40768 27.283 7.95996 26.8352 7.95996 26.283C7.95996 25.7307 8.40768 25.283 8.95996 25.283H12.728L8.14832 20.1494C7.98486 19.9662 7.89453 19.7292 7.89453 19.4837V12.2945C7.89453 12.2755 7.89506 12.2566 7.89611 12.2378C6.2312 11.9681 4.95996 10.524 4.95996 8.78296C4.95996 6.84996 6.52696 5.28296 8.45996 5.28296C10.393 5.28296 11.96 6.84996 11.96 8.78296ZM28.96 23.783C28.96 25.716 27.393 27.283 25.46 27.283C23.527 27.283 21.96 25.716 21.96 23.783C21.96 22.3449 22.8273 21.1094 24.0673 20.571C24.0401 20.4799 24.0254 20.3834 24.0254 20.2834V13.4635L19.96 8.90645V12.283C19.96 12.8352 19.5122 13.283 18.96 13.283C18.4077 13.283 17.96 12.8352 17.96 12.283V6.30991C17.9525 6.02595 18.0653 5.74068 18.2939 5.53677C18.4784 5.37214 18.7071 5.28845 18.9364 5.28323C18.9442 5.28305 18.9521 5.28296 18.96 5.28296H24.96C25.5122 5.28296 25.96 5.73067 25.96 6.28296C25.96 6.83524 25.5122 7.28296 24.96 7.28296H21.1918L25.7716 12.4166C25.9351 12.5998 26.0254 12.8368 26.0254 13.0823V20.2834C26.0254 20.2985 26.0251 20.3134 26.0244 20.3282C27.689 20.5981 28.96 22.0421 28.96 23.783Z" fill="#1C1B1F"/>
</svg>
