<svg width="32" height="32" viewBox="0 0 32 32" fill="none" xmlns="http://www.w3.org/2000/svg">
<path fill-rule="evenodd" clip-rule="evenodd" d="M18.0573 2.34696C18.0504 2.06367 18.1633 1.77928 18.3913 1.57585C18.4649 1.51014 18.5456 1.45732 18.6306 1.41725C18.76 1.3561 18.9046 1.3219 19.0573 1.3219H27.193C27.7453 1.3219 28.193 1.76961 28.193 2.3219C28.193 2.87418 27.7453 3.3219 27.193 3.3219H21.2891L28.0281 10.8759C28.1915 11.0591 28.2819 11.2961 28.2819 11.5416V21.4188C30.4044 21.857 32 23.7366 32 25.989C32 28.5663 29.9107 30.6556 27.3333 30.6556C24.756 30.6556 22.6667 28.5663 22.6667 25.989C22.6667 23.7732 24.2109 21.9181 26.2819 21.4412V11.9228L20.0573 4.94548V10.4576C20.0573 11.0099 19.6096 11.4576 19.0573 11.4576C18.505 11.4576 18.0573 11.0099 18.0573 10.4576V2.34696ZM9.33333 5.98896C9.33333 8.20473 7.78908 10.0598 5.71812 10.5367V20.0672L11.9519 27.0548V21.5333C11.9519 20.981 12.3996 20.5333 12.9519 20.5333C13.5042 20.5333 13.9519 20.981 13.9519 21.5333V29.6487C13.9602 29.9336 13.8473 30.22 13.618 30.4245C13.4232 30.5984 13.1791 30.6819 12.9372 30.6782H4.80698C4.2547 30.6782 3.80698 30.2305 3.80698 29.6782C3.80698 29.1259 4.2547 28.6782 4.80698 28.6782H10.72L3.9719 21.1141C3.80845 20.9309 3.71812 20.6939 3.71812 20.4484V10.5592C1.59561 10.1209 0 8.24127 0 5.98896C0 3.41163 2.08934 1.32229 4.66667 1.32229C7.244 1.32229 9.33333 3.41163 9.33333 5.98896Z" fill="#111827"/>
</svg>
