<svg width="32" height="33" viewBox="0 0 32 33" fill="none" xmlns="http://www.w3.org/2000/svg">
<path fill-rule="evenodd" clip-rule="evenodd" d="M18.0573 2.84684C18.0504 2.56355 18.1633 2.27916 18.3913 2.07573C18.4649 2.01002 18.5456 1.9572 18.6306 1.91713C18.76 1.85597 18.9046 1.82178 19.0573 1.82178H27.193C27.7453 1.82178 28.193 2.26949 28.193 2.82178C28.193 3.37406 27.7453 3.82178 27.193 3.82178H21.2891L28.0281 11.3758C28.1915 11.559 28.2819 11.796 28.2819 12.0415V21.9186C30.4044 22.3569 32 24.2365 32 26.4888C32 29.0662 29.9107 31.1555 27.3333 31.1555C24.756 31.1555 22.6667 29.0662 22.6667 26.4888C22.6667 24.2731 24.2109 22.418 26.2819 21.9411V12.4227L20.0573 5.44536V10.9575C20.0573 11.5098 19.6096 11.9575 19.0573 11.9575C18.505 11.9575 18.0573 11.5098 18.0573 10.9575V2.84684ZM9.33333 6.48884C9.33333 8.70461 7.78908 10.5597 5.71812 11.0366V20.567L11.9519 27.5547V22.0332C11.9519 21.4809 12.3996 21.0332 12.9519 21.0332C13.5042 21.0332 13.9519 21.4809 13.9519 22.0332V30.1486C13.9602 30.4334 13.8473 30.7199 13.618 30.9244C13.4232 31.0982 13.1791 31.1818 12.9372 31.1781H4.80698C4.2547 31.1781 3.80698 30.7304 3.80698 30.1781C3.80698 29.6258 4.2547 29.1781 4.80698 29.1781H10.72L3.9719 21.614C3.80845 21.4308 3.71812 21.1938 3.71812 20.9483V11.059C1.59561 10.6208 0 8.74115 0 6.48884C0 3.91151 2.08934 1.82217 4.66667 1.82217C7.244 1.82217 9.33333 3.91151 9.33333 6.48884Z" fill="#111827"/>
</svg>
