<svg width="32" height="33" viewBox="0 0 32 33" fill="none" xmlns="http://www.w3.org/2000/svg">
<path fill-rule="evenodd" clip-rule="evenodd" d="M6.32435 10.5847C8.6602 10.1225 10.4214 8.06237 10.4214 5.59084C10.4214 2.77925 8.14218 0.5 5.33059 0.5C2.51899 0.5 0.239746 2.77925 0.239746 5.59084C0.239746 8.06212 2.00062 10.1221 4.33613 10.5846C4.33223 10.6205 4.33023 10.6569 4.33023 10.6938V16.2412C4.33023 16.7935 4.77795 17.2412 5.33023 17.2412H14.9999L14.9995 22.3182C14.9995 22.351 15.0011 22.3836 15.0042 22.4156C12.6693 22.8786 10.909 24.9383 10.909 27.4092C10.909 30.2208 13.1882 32.5 15.9998 32.5C18.8114 32.5 21.0907 30.2208 21.0907 27.4092C21.0907 24.9381 19.3301 22.8782 16.9948 22.4155C16.9979 22.3835 16.9995 22.3511 16.9995 22.3183L16.9999 17.2412H26.6696C27.2219 17.2412 27.6696 16.7935 27.6696 16.2412V10.6938C27.6696 10.6569 27.6676 10.6205 27.6637 10.5847C29.9995 10.1224 31.7606 8.06228 31.7606 5.59084C31.7606 2.77925 29.4813 0.5 26.6697 0.5C23.8581 0.5 21.5789 2.77925 21.5789 5.59084C21.5789 8.0622 23.3399 10.1223 25.6755 10.5847C25.6716 10.6205 25.6696 10.6569 25.6696 10.6938V15.2412H6.33023V10.6938C6.33023 10.657 6.32823 10.6206 6.32435 10.5847Z" fill="#111827"/>
</svg>
