<svg width="33" height="33" viewBox="0 0 33 33" fill="none" xmlns="http://www.w3.org/2000/svg">
<path fill-rule="evenodd" clip-rule="evenodd" d="M9.94797 11.7896C11.5766 11.3535 12.7759 9.86734 12.7759 8.1011C12.7759 5.9924 11.0665 4.28296 8.95779 4.28296C6.84909 4.28296 5.13965 5.9924 5.13965 8.1011C5.13965 9.86715 6.33868 11.3532 7.96709 11.7895C7.96078 11.8348 7.95752 11.8812 7.95752 11.9283V16.0889C7.95752 16.6412 8.40523 17.0889 8.95752 17.0889H15.9597L15.9595 20.6466C15.9595 20.6907 15.9623 20.7342 15.9679 20.7768C14.3401 21.2135 13.1416 22.6992 13.1416 24.4649C13.1416 26.5736 14.851 28.283 16.9597 28.283C19.0684 28.283 20.7779 26.5736 20.7779 24.4649C20.7779 22.6991 19.5792 21.2132 17.9511 20.7767C17.9566 20.7342 17.9595 20.6908 17.9595 20.6467L17.9597 17.0889H24.9621C25.5144 17.0889 25.9621 16.6412 25.9621 16.0889V11.9283C25.9621 11.8812 25.9588 11.8349 25.9525 11.7895C27.5811 11.3534 28.7803 9.86728 28.7803 8.1011C28.7803 5.9924 27.0709 4.28296 24.9622 4.28296C22.8535 4.28296 21.144 5.9924 21.144 8.1011C21.144 9.86721 22.3432 11.3533 23.9717 11.7895C23.9654 11.8349 23.9621 11.8812 23.9621 11.9283V15.0889H9.95752V11.9283C9.95752 11.8813 9.95427 11.8349 9.94797 11.7896Z" fill="#1C1B1F"/>
</svg>
