<svg width="32" height="32" viewBox="0 0 32 32" fill="none" xmlns="http://www.w3.org/2000/svg">
<path fill-rule="evenodd" clip-rule="evenodd" d="M6.32435 10.0847C8.6602 9.62253 10.4214 7.56237 10.4214 5.09084C10.4214 2.27925 8.14218 0 5.33059 0C2.51899 0 0.239746 2.27925 0.239746 5.09084C0.239746 7.56212 2.00062 9.62212 4.33613 10.0846C4.33223 10.1205 4.33023 10.1569 4.33023 10.1938V15.7412C4.33023 16.2935 4.77795 16.7412 5.33023 16.7412H14.9999L14.9995 21.8182C14.9995 21.851 15.0011 21.8836 15.0042 21.9156C12.6693 22.3786 10.909 24.4383 10.909 26.9092C10.909 29.7208 13.1882 32 15.9998 32C18.8114 32 21.0907 29.7208 21.0907 26.9092C21.0907 24.4381 19.3301 22.3782 16.9948 21.9155C16.9979 21.8835 16.9995 21.8511 16.9995 21.8183L16.9999 16.7412H26.6696C27.2219 16.7412 27.6696 16.2935 27.6696 15.7412V10.1938C27.6696 10.1569 27.6676 10.1205 27.6637 10.0847C29.9995 9.6224 31.7606 7.56228 31.7606 5.09084C31.7606 2.27925 29.4813 0 26.6697 0C23.8581 0 21.5789 2.27925 21.5789 5.09084C21.5789 7.5622 23.3399 9.62226 25.6755 10.0847C25.6716 10.1205 25.6696 10.1569 25.6696 10.1938V14.7412H6.33023V10.1938C6.33023 10.157 6.32823 10.1206 6.32435 10.0847Z" fill="#111827"/>
</svg>
