<svg width="33" height="33" viewBox="0 0 33 33" fill="none" xmlns="http://www.w3.org/2000/svg">
<path fill-rule="evenodd" clip-rule="evenodd" d="M20.1216 29.0894C25.7734 27.6772 29.96 22.5658 29.96 16.4766C29.96 9.29686 24.1397 3.47656 16.96 3.47656C9.78026 3.47656 3.95996 9.29686 3.95996 16.4766C3.95996 22.5656 8.14631 27.6769 13.7978 29.0893C13.7538 28.8768 13.7307 28.6567 13.7307 28.4311V25.6289C12.7556 25.9169 10.588 26.0729 9.56759 24.4265C9.36547 23.891 8.78326 22.7098 8.07138 22.2688C7.18152 21.7175 7.47644 21.5463 7.60854 21.4705C7.95439 21.3796 8.82251 21.3821 9.52815 22.1191C9.66204 22.2661 9.95976 22.6121 10.0795 22.82L10.0889 22.8365C10.2656 23.1458 11.2156 24.8092 13.7491 23.8437L13.8419 23.8156C14 23.2295 14.319 22.7094 14.7486 22.3056C14.1132 22.2134 13.5146 22.083 12.9655 21.9201C10.5006 21.3043 8.69511 19.0999 8.69535 16.0684C8.69548 14.4303 9.20863 13.1536 10.047 12.1581C9.52833 10.9628 9.92905 9.44257 10.198 8.8252C11.3801 8.67098 13.0377 9.67066 13.6442 10.0861C14.6311 9.85077 15.7689 9.72823 17.0324 9.72823C18.2182 9.72823 19.3401 9.85236 20.3274 10.0783C20.9897 9.64115 22.5624 8.67201 23.7465 8.83775C24.0156 9.41769 24.4205 10.8613 23.9476 12.0982C24.8134 13.1582 25.3382 14.5474 25.3382 16.0683C25.3382 18.489 23.9991 20.6224 22.0838 21.529C21.2676 21.8841 20.2768 22.155 19.1769 22.3113C19.8 22.9 20.1888 23.734 20.1888 24.6588V28.4311C20.1888 28.6567 20.1656 28.8769 20.1216 29.0894Z" fill="#1C1B1F"/>
</svg>
