<svg width="33" height="33" viewBox="0 0 33 33" fill="none" xmlns="http://www.w3.org/2000/svg">
<path fill-rule="evenodd" clip-rule="evenodd" d="M20.1216 29.2309C25.7734 27.8187 29.96 22.7073 29.96 16.618C29.96 9.43834 24.1397 3.61804 16.96 3.61804C9.78026 3.61804 3.95996 9.43834 3.95996 16.618C3.95996 22.7071 8.14631 27.8184 13.7978 29.2308C13.7538 29.0183 13.7307 28.7981 13.7307 28.5726V25.7704C12.7556 26.0583 10.588 26.2144 9.56759 24.5679C9.36547 24.0325 8.78326 22.8512 8.07138 22.4102C7.18152 21.859 7.47644 21.6878 7.60854 21.612C7.95439 21.5211 8.82251 21.5235 9.52815 22.2606C9.66204 22.4076 9.95976 22.7536 10.0795 22.9615L10.0889 22.978C10.2656 23.2873 11.2156 24.9507 13.7491 23.9852L13.8419 23.9571C14 23.371 14.319 22.8509 14.7486 22.4471C14.1132 22.3549 13.5146 22.2245 12.9655 22.0616C10.5006 21.4457 8.69511 19.2414 8.69535 16.2098C8.69548 14.5718 9.20863 13.295 10.047 12.2995C9.52833 11.1043 9.92905 9.58405 10.198 8.96668C11.3801 8.81246 13.0377 9.81214 13.6442 10.2276C14.6311 9.99225 15.7689 9.86971 17.0324 9.86971C18.2182 9.86971 19.3401 9.99384 20.3274 10.2198C20.9897 9.78263 22.5624 8.81349 23.7465 8.97923C24.0156 9.55917 24.4205 11.0028 23.9476 12.2397C24.8134 13.2996 25.3382 14.6889 25.3382 16.2098C25.3382 18.6305 23.9991 20.7639 22.0838 21.6705C21.2676 22.0256 20.2768 22.2964 19.1769 22.4528C19.8 23.0415 20.1888 23.8755 20.1888 24.8003V28.5726C20.1888 28.7982 20.1656 29.0184 20.1216 29.2309Z" fill="#1C1B1F"/>
</svg>
