<svg width="32" height="32" viewBox="0 0 32 32" fill="none" xmlns="http://www.w3.org/2000/svg">
<path fill-rule="evenodd" clip-rule="evenodd" d="M3.53653 11.4397H9.63977L5.11909 2.39832L2.61089 11.177C2.58886 11.2127 2.57099 11.2518 2.55817 11.2939L0.539133 17.9108C0.477034 18.1143 0.550539 18.3348 0.722327 18.4604L15.8341 29.5053C16.011 29.6346 16.2516 29.6336 16.4275 29.5029L31.2808 18.4579C31.4462 18.3349 31.5192 18.123 31.4645 17.9242L29.646 11.3073C29.6316 11.2549 29.6094 11.2068 29.581 11.1638L27.0766 2.39832L22.5559 11.4397H28.6638C28.6638 11.4835 28.6696 11.528 28.6818 11.5723L30.4097 17.8595L16.5948 28.1323L22.5564 11.4398H9.64012L15.5846 28.0844L1.59931 17.8627L3.51463 11.5857C3.52947 11.5371 3.53653 11.488 3.53653 11.4397Z" fill="#111827"/>
<path d="M9.63977 11.4397V11.9397C9.81306 11.9397 9.97399 11.85 10.0651 11.7025C10.1562 11.5551 10.1645 11.3711 10.087 11.2161L9.63977 11.4397ZM3.53653 11.4397V10.9397C3.26041 10.9397 3.03657 11.1635 3.03653 11.4396L3.53653 11.4397ZM5.11909 2.39832L5.5663 2.17471C5.47409 1.99029 5.27812 1.88138 5.07282 1.90046C4.86751 1.91954 4.69497 2.0627 4.63832 2.26095L5.11909 2.39832ZM2.61089 11.177L3.03647 11.4395C3.06051 11.4005 3.07907 11.3584 3.09165 11.3144L2.61089 11.177ZM2.55817 11.2939L3.0364 11.4398L3.0364 11.4398L2.55817 11.2939ZM0.539133 17.9108L1.01737 18.0567L1.01737 18.0567L0.539133 17.9108ZM0.722327 18.4604L1.01737 18.0567L1.01736 18.0567L0.722327 18.4604ZM15.8341 29.5053L16.1291 29.1016H16.1291L15.8341 29.5053ZM16.4275 29.5029L16.1291 29.1016H16.1291L16.4275 29.5029ZM31.2808 18.4579L30.9824 18.0567L30.9824 18.0567L31.2808 18.4579ZM31.4645 17.9242L31.9466 17.7917V17.7917L31.4645 17.9242ZM29.646 11.3073L30.1281 11.1748L30.1281 11.1748L29.646 11.3073ZM29.581 11.1638L29.1002 11.3012C29.1143 11.3503 29.1358 11.397 29.164 11.4396L29.581 11.1638ZM27.0766 2.39832L27.5573 2.26095C27.5007 2.0627 27.3281 1.91954 27.1228 1.90046C26.9175 1.88138 26.7216 1.99029 26.6294 2.17471L27.0766 2.39832ZM22.5559 11.4397L22.1087 11.2161C22.0312 11.3711 22.0395 11.5551 22.1306 11.7025C22.2217 11.85 22.3826 11.9397 22.5559 11.9397V11.4397ZM28.6638 11.4397L29.1638 11.4395C29.1637 11.1634 28.9398 10.9397 28.6638 10.9397V11.4397ZM28.6818 11.5723L29.1639 11.4398L29.1639 11.4398L28.6818 11.5723ZM30.4097 17.8595L30.708 18.2607C30.8734 18.1377 30.9464 17.9258 30.8918 17.727L30.4097 17.8595ZM16.5948 28.1323L16.1239 27.9641C16.0498 28.1716 16.1202 28.4031 16.2973 28.5342C16.4743 28.6652 16.7163 28.665 16.8931 28.5335L16.5948 28.1323ZM22.5564 11.4398L23.0272 11.608C23.0819 11.4548 23.0587 11.2847 22.9651 11.1518C22.8714 11.0189 22.719 10.9398 22.5564 10.9398V11.4398ZM9.64012 11.4398V10.9398C9.47752 10.9398 9.32508 11.0189 9.23141 11.1518C9.13775 11.2847 9.11456 11.4548 9.16925 11.608L9.64012 11.4398ZM15.5846 28.0844L15.2896 28.488C15.4668 28.6176 15.7078 28.6163 15.8837 28.485C16.0597 28.3537 16.1293 28.1229 16.0555 27.9162L15.5846 28.0844ZM1.59931 17.8627L1.12108 17.7168C1.05898 17.9203 1.13249 18.1408 1.30427 18.2664L1.59931 17.8627ZM3.51463 11.5857L3.99287 11.7317H3.99287L3.51463 11.5857ZM9.63977 10.9397H3.53653V11.9397H9.63977V10.9397ZM4.67187 2.62192L9.19256 11.6633L10.087 11.2161L5.5663 2.17471L4.67187 2.62192ZM3.09165 11.3144L5.59985 2.53568L4.63832 2.26095L2.13013 11.0396L3.09165 11.3144ZM3.0364 11.4398L3.03647 11.4395L2.1853 10.9146C2.141 10.9864 2.10536 11.0646 2.07994 11.148L3.0364 11.4398ZM1.01737 18.0567L3.0364 11.4398L2.07994 11.148L0.0609012 17.7648L1.01737 18.0567ZM1.01736 18.0567L1.01737 18.0567L0.0609014 17.7648C-0.0632985 18.1719 0.0837128 18.6129 0.42729 18.864L1.01736 18.0567ZM16.1291 29.1016L1.01737 18.0567L0.427288 18.864L15.539 29.909L16.1291 29.1016ZM16.1291 29.1016H16.1291L15.539 29.909C15.8929 30.1676 16.3741 30.1657 16.7258 29.9041L16.1291 29.1016ZM30.9824 18.0567L16.1291 29.1016L16.7258 29.9041L31.5791 18.8592L30.9824 18.0567ZM30.9824 18.0567L31.5791 18.8592C31.91 18.6131 32.0559 18.1893 31.9466 17.7917L30.9824 18.0567ZM29.1639 11.4398L30.9824 18.0567L31.9466 17.7917L30.1281 11.1748L29.1639 11.4398ZM29.164 11.4396L29.1639 11.4398L30.1281 11.1748C30.0996 11.0709 30.0552 10.9745 29.9981 10.888L29.164 11.4396ZM26.5958 2.53568L29.1002 11.3012L30.0618 11.0265L27.5573 2.26095L26.5958 2.53568ZM23.0031 11.6633L27.5238 2.62192L26.6294 2.17471L22.1087 11.2161L23.0031 11.6633ZM28.6638 10.9397H22.5559V11.9397H28.6638V10.9397ZM29.1639 11.4398L29.1638 11.4395L28.1638 11.4399C28.1638 11.5279 28.1755 11.617 28.1997 11.7048L29.1639 11.4398ZM30.8918 17.727L29.1639 11.4398L28.1996 11.7048L29.9275 17.992L30.8918 17.727ZM16.8931 28.5335L30.708 18.2607L30.1113 17.4583L16.2964 27.7311L16.8931 28.5335ZM17.0656 28.3005L23.0272 11.608L22.0855 11.2716L16.1239 27.9641L17.0656 28.3005ZM22.5564 10.9398H9.64012V11.9398H22.5564V10.9398ZM9.16925 11.608L15.1137 28.2525L16.0555 27.9162L10.111 11.2716L9.16925 11.608ZM1.30427 18.2664L15.2896 28.488L15.8796 27.6807L1.89435 17.459L1.30427 18.2664ZM3.0364 11.4398L1.12108 17.7168L2.07754 18.0086L3.99287 11.7317L3.0364 11.4398ZM3.03653 11.4396L3.0364 11.4398L3.99287 11.7317C4.02228 11.6352 4.03652 11.5369 4.03653 11.4397L3.03653 11.4396Z" fill="#111827"/>
</svg>
