<svg width="32" height="32" viewBox="0 0 32 32" fill="none" xmlns="http://www.w3.org/2000/svg">
<path d="M3.53653 11.4397H9.63977L5.11909 2.39832L2.61089 11.177C2.58886 11.2127 2.57099 11.2518 2.55817 11.2939L0.539133 17.9108C0.477034 18.1143 0.550539 18.3348 0.722327 18.4604L15.8341 29.5053C16.011 29.6346 16.2516 29.6336 16.4275 29.5029L31.2808 18.4579C31.4462 18.3349 31.5192 18.123 31.4645 17.9242L29.646 11.3073C29.6316 11.2549 29.6094 11.2068 29.581 11.1638L27.0766 2.39832L22.5559 11.4397H28.6638C28.6638 11.4835 28.6696 11.528 28.6818 11.5723L30.4097 17.8595L16.5948 28.1323L22.5559 11.4397H9.63977L15.5846 28.0844L1.59931 17.8627L3.51463 11.5857C3.52947 11.5371 3.53653 11.488 3.53653 11.4397Z" fill="#111827"/>
<path d="M9.63977 11.4397H3.53653C3.53653 11.488 3.52947 11.5371 3.51463 11.5857L1.59931 17.8627L15.5846 28.0844L9.63977 11.4397ZM9.63977 11.4397L5.11909 2.39832L2.61089 11.177C2.58886 11.2127 2.57099 11.2518 2.55817 11.2939L0.539133 17.9108C0.477034 18.1143 0.550539 18.3348 0.722327 18.4604L15.8341 29.5053C16.011 29.6346 16.2516 29.6336 16.4275 29.5029L31.2808 18.4579C31.4462 18.3349 31.5192 18.123 31.4645 17.9242L29.646 11.3073C29.6316 11.2549 29.6094 11.2068 29.581 11.1638L27.0766 2.39832L22.5559 11.4397M9.63977 11.4397H22.5559M22.5559 11.4397H28.6638C28.6638 11.4835 28.6696 11.528 28.6818 11.5723L30.4097 17.8595L16.5948 28.1323L22.5559 11.4397Z" stroke="#111827" stroke-linejoin="round"/>
</svg>
