<svg width="33" height="33" viewBox="0 0 33 33" fill="none" xmlns="http://www.w3.org/2000/svg">
<path fill-rule="evenodd" clip-rule="evenodd" d="M9.93616 11.7406C11.4787 11.2502 12.5962 9.8062 12.5962 8.10122C12.5962 5.99252 10.8868 4.28308 8.7781 4.28308C6.6694 4.28308 4.95996 5.99252 4.95996 8.10122C4.95996 9.86426 6.15491 11.3482 7.77907 11.7873C7.77181 11.8359 7.76807 11.8854 7.76807 11.9355V20.655C7.76807 20.6972 7.77067 20.7387 7.77573 20.7794C6.15327 21.2197 4.95996 22.7028 4.95996 24.4646C4.95996 26.5733 6.6694 28.2828 8.7781 28.2828C10.8868 28.2828 12.5962 26.5733 12.5962 24.4646C12.5962 22.6958 11.3934 21.2079 9.76104 20.7742C9.76568 20.7351 9.76807 20.6954 9.76807 20.655V14.5497L10.6972 15.5865C12.7838 17.9147 15.7625 19.2451 18.8889 19.2451H21.3054C21.3895 19.2451 21.4712 19.2347 21.5492 19.2151C22.0798 20.686 23.4881 21.7375 25.1419 21.7375C27.2506 21.7375 28.96 20.028 28.96 17.9193C28.96 15.8106 27.2506 14.1012 25.1419 14.1012C23.2622 14.1012 21.6998 15.4594 21.3826 17.248C21.3571 17.2461 21.3314 17.2451 21.3054 17.2451H18.8889C16.3309 17.2451 13.8938 16.1566 12.1866 14.2517L9.93616 11.7406Z" fill="#1C1B1F"/>
</svg>
