<svg width="32" height="33" viewBox="0 0 32 33" fill="none" xmlns="http://www.w3.org/2000/svg">
<path fill-rule="evenodd" clip-rule="evenodd" d="M2.99902 16.4999C2.99902 9.31958 8.81982 3.49878 16.0001 3.49878C23.1805 3.49878 29.0013 9.31958 29.0013 16.4999C29.0013 23.6802 23.1805 29.501 16.0001 29.501C8.81982 29.501 2.99902 23.6802 2.99902 16.4999ZM16.0001 0.498779C7.16297 0.498779 -0.000976562 7.66272 -0.000976562 16.4999C-0.000976562 25.3371 7.16297 32.501 16.0001 32.501C24.8373 32.501 32.0013 25.3371 32.0013 16.4999C32.0013 7.66272 24.8373 0.498779 16.0001 0.498779ZM16.0002 12.8746C18.0024 12.8746 19.6255 14.4977 19.6255 16.4998C19.6255 18.502 18.0024 20.1251 16.0002 20.1251C13.998 20.1251 12.3749 18.502 12.3749 16.4998C12.3749 14.4977 13.998 12.8746 16.0002 12.8746Z" fill="#111827"/>
</svg>
