<svg width="32" height="32" viewBox="0 0 32 32" fill="none" xmlns="http://www.w3.org/2000/svg">
<path fill-rule="evenodd" clip-rule="evenodd" d="M10.1813 5.09091C10.1813 7.56181 8.42102 9.62157 6.08606 10.0845C6.08915 10.1165 6.09073 10.149 6.09073 10.1818V21.8182C6.09073 21.851 6.08914 21.8836 6.08603 21.9156C8.42101 22.3786 10.1813 24.4383 10.1813 26.9093C10.1813 29.7209 7.90205 32.0002 5.09042 32.0002C2.27879 32.0002 -0.000488281 29.7209 -0.000488281 26.9093C-0.000488281 24.4381 1.76014 22.3782 4.09541 21.9155C4.09232 21.8835 4.09073 21.851 4.09073 21.8182V10.1818C4.09073 10.149 4.09231 10.1166 4.09539 10.0846C1.76013 9.62192 -0.000488281 7.56202 -0.000488281 5.09091C-0.000488281 2.27928 2.27879 0 5.09042 0C7.90205 0 10.1813 2.27928 10.1813 5.09091ZM32 26.9093C32 29.7209 29.7207 32.0002 26.9091 32.0002C24.0975 32.0002 21.8182 29.7209 21.8182 26.9093C21.8182 24.6562 23.2818 22.7449 25.3102 22.0745C25.2887 21.9929 25.2772 21.9073 25.2772 21.819V11.4997L18.2637 3.63803V9.93058C18.2637 10.4829 17.816 10.9306 17.2637 10.9306C16.7114 10.9306 16.2637 10.4829 16.2637 9.93058V1.01494C16.2637 0.462659 16.7114 0.0149435 17.2637 0.0149435H26.1793C26.7316 0.0149435 27.1793 0.462659 27.1793 1.01494C27.1793 1.56723 26.7316 2.01494 26.1793 2.01494L19.4959 2.01494L27.0234 10.4528C27.1869 10.636 27.2772 10.873 27.2772 11.1185V21.819C27.2772 21.8231 27.2772 21.8273 27.2771 21.8314C29.917 22.02 32 24.2214 32 26.9093Z" fill="#111827"/>
</svg>
