<svg width="32" height="33" viewBox="0 0 32 33" fill="none" xmlns="http://www.w3.org/2000/svg">
<path fill-rule="evenodd" clip-rule="evenodd" d="M10.1813 5.59091C10.1813 8.06181 8.42102 10.1216 6.08606 10.5845C6.08915 10.6165 6.09073 10.649 6.09073 10.6818V22.3182C6.09073 22.351 6.08914 22.3836 6.08603 22.4156C8.42101 22.8786 10.1813 24.9383 10.1813 27.4093C10.1813 30.2209 7.90205 32.5002 5.09042 32.5002C2.27879 32.5002 -0.000488281 30.2209 -0.000488281 27.4093C-0.000488281 24.9381 1.76014 22.8782 4.09541 22.4155C4.09232 22.3835 4.09073 22.351 4.09073 22.3182V10.6818C4.09073 10.649 4.09231 10.6166 4.09539 10.5846C1.76013 10.1219 -0.000488281 8.06202 -0.000488281 5.59091C-0.000488281 2.77928 2.27879 0.5 5.09042 0.5C7.90205 0.5 10.1813 2.77928 10.1813 5.59091ZM32 27.4093C32 30.2209 29.7207 32.5002 26.9091 32.5002C24.0975 32.5002 21.8182 30.2209 21.8182 27.4093C21.8182 25.1562 23.2818 23.2449 25.3102 22.5745C25.2887 22.4929 25.2772 22.4073 25.2772 22.319V11.9997L18.2637 4.13803V10.4306C18.2637 10.9829 17.816 11.4306 17.2637 11.4306C16.7114 11.4306 16.2637 10.9829 16.2637 10.4306V1.51494C16.2637 0.962659 16.7114 0.514943 17.2637 0.514943H26.1793C26.7316 0.514943 27.1793 0.962659 27.1793 1.51494C27.1793 2.06723 26.7316 2.51494 26.1793 2.51494L19.4959 2.51494L27.0234 10.9528C27.1869 11.136 27.2772 11.373 27.2772 11.6185V22.319C27.2772 22.3231 27.2772 22.3273 27.2771 22.3314C29.917 22.52 32 24.7214 32 27.4093Z" fill="#111827"/>
</svg>
