<svg width="33" height="33" viewBox="0 0 33 33" fill="none" xmlns="http://www.w3.org/2000/svg">
<path fill-rule="evenodd" clip-rule="evenodd" d="M12.5962 8.10133C12.5962 9.86696 11.3978 11.3527 9.76994 11.7894C9.77547 11.8319 9.77832 11.8754 9.77832 11.9194V20.6466C9.77832 20.6907 9.77546 20.7341 9.76993 20.7767C11.3978 21.2134 12.5962 22.6991 12.5962 24.4647C12.5962 26.5734 10.8868 28.2829 8.77809 28.2829C6.6694 28.2829 4.95996 26.5734 4.95996 24.4647C4.95996 22.6989 6.15865 21.2131 7.7867 20.7766C7.78117 20.734 7.77832 20.6906 7.77832 20.6466V11.9194C7.77832 11.8754 7.78117 11.832 7.78669 11.7895C6.15864 11.3529 4.95996 9.86712 4.95996 8.10133C4.95996 5.99264 6.6694 4.2832 8.77809 4.2832C10.8868 4.2832 12.5962 5.99264 12.5962 8.10133ZM28.96 24.4647C28.96 26.5734 27.2506 28.2829 25.1419 28.2829C23.0332 28.2829 21.3237 26.5734 21.3237 24.4647C21.3237 22.8635 22.3094 21.4924 23.7072 20.9253C23.6817 20.837 23.668 20.7436 23.668 20.6471V13.1726L19.0508 7.99708V11.9194C19.0508 12.4717 18.6031 12.9194 18.0508 12.9194C17.4985 12.9194 17.0508 12.4717 17.0508 11.9194V5.37402C17.0508 5.19906 17.0957 5.03458 17.1747 4.89152C17.2095 4.82823 17.2517 4.76804 17.3011 4.71223C17.4843 4.50482 17.7523 4.37402 18.0508 4.37402H24.5961C25.1484 4.37402 25.5961 4.82174 25.5961 5.37402C25.5961 5.92631 25.1484 6.37402 24.5961 6.37402H20.283L25.4142 12.1257C25.5776 12.3089 25.668 12.5459 25.668 12.7914V20.6471C25.668 20.6589 25.6678 20.6707 25.6673 20.6825C27.5274 20.9385 28.96 22.5343 28.96 24.4647Z" fill="#1C1B1F"/>
</svg>
