<svg width="33" height="33" viewBox="0 0 33 33" fill="none" xmlns="http://www.w3.org/2000/svg">
<path fill-rule="evenodd" clip-rule="evenodd" d="M32.1356 0.793382C32.5261 1.18391 32.5261 1.81707 32.1356 2.2076L29.3193 5.02389L32.1356 7.84019C32.5261 8.23071 32.5261 8.86387 32.1356 9.2544C31.7451 9.64492 31.1119 9.64492 30.7214 9.2544L27.9051 6.4381L25.0888 9.2544C24.6983 9.64492 24.0651 9.64492 23.6746 9.2544C23.2841 8.86387 23.2841 8.23071 23.6746 7.84019L26.4909 5.02389L23.6746 2.2076C23.2841 1.81707 23.2841 1.18391 23.6746 0.793382C24.0651 0.402857 24.6983 0.402857 25.0888 0.793382L27.9051 3.60968L30.7214 0.793382C31.1119 0.402857 31.7451 0.402857 32.1356 0.793382ZM10.684 27.4104C10.684 30.221 8.40558 32.4995 5.59495 32.4995C2.78432 32.4995 0.505859 30.221 0.505859 27.4104C0.505859 24.9404 2.2655 22.8814 4.59959 22.4186C4.5965 22.3866 4.59492 22.3541 4.59492 22.3213V10.6891C4.59492 10.6562 4.59651 10.6237 4.59961 10.5916C2.26552 10.1288 0.505859 8.06977 0.505859 5.59977C0.505859 2.78914 2.78432 0.510679 5.59495 0.510679C8.40558 0.510679 10.684 2.78914 10.684 5.59977C10.684 8.06979 8.92435 10.1288 6.59022 10.5916C6.59332 10.6237 6.59492 10.6562 6.59492 10.6891V22.3213C6.59492 22.3541 6.59333 22.3866 6.59024 22.4186C8.92436 22.8813 10.684 24.9404 10.684 27.4104ZM27.4052 9.68909C27.9575 9.68909 28.4052 10.1368 28.4052 10.6891V22.3213C28.4052 22.3541 28.4036 22.3866 28.4006 22.4186C30.7347 22.8814 32.4944 24.9404 32.4944 27.4104C32.4944 30.221 30.2159 32.4995 27.4053 32.4995C24.5946 32.4995 22.3162 30.221 22.3162 27.4104C22.3162 24.9404 24.0758 22.8814 26.4099 22.4186C26.4068 22.3866 26.4052 22.3541 26.4052 22.3213V10.6891C26.4052 10.1368 26.8529 9.68909 27.4052 9.68909Z" fill="#111827"/>
</svg>
