<svg width="32" height="32" viewBox="0 0 32 32" fill="none" xmlns="http://www.w3.org/2000/svg">
<path fill-rule="evenodd" clip-rule="evenodd" d="M16 0.00219727C17.3841 0.00219727 18.7271 0.177936 20.008 0.508318L20.8553 3.62511L14.4844 9.25521H9.31558C8.88071 9.25521 8.49569 9.53626 8.36315 9.95044L7.3104 13.2404L6.50753 13.0492L4.86432 8.61977L5.17548 4.21947C8.02435 1.60091 11.8255 0.00219727 16 0.00219727ZM11.2037 14.1674L9.26164 13.705L10.0455 11.2552H14.8629C15.1068 11.2552 15.3423 11.1661 15.5251 11.0045L22.6455 4.71206C22.9308 4.45996 23.0482 4.06776 22.9483 3.7004L22.2922 1.28691C28.0006 3.73099 32 9.39954 32 16.0022C32 18.1007 31.596 20.1048 30.8616 21.9411L21.4002 16.5881C21.2793 16.5197 21.1455 16.4773 21.0073 16.4634L16.0396 15.9666C15.611 15.9238 15.2031 16.1601 15.0272 16.5533L14.8474 16.9552H13.1999L11.834 14.6331C11.696 14.3986 11.4684 14.2304 11.2037 14.1674ZM13.9527 18.9552H12.628C12.2736 18.9552 11.9457 18.7677 11.766 18.4622L10.3261 16.0143L5.52427 14.871C5.19935 14.7937 4.9345 14.5592 4.81833 14.246L2.914 9.1127C2.86444 8.97911 2.844 8.83647 2.85405 8.69435L2.99668 6.67737C1.11062 9.3028 0 12.5228 0 16.0022C0 24.7126 6.96032 31.7973 15.6225 31.9978L15.9058 28.4473L12.3364 23.869C12.1088 23.5772 12.0611 23.1836 12.2122 22.8458L13.9527 18.9552ZM17.6351 31.9197C22.9652 31.3786 27.522 28.2214 30.0011 23.7522L20.5987 18.4326L16.5583 18.0285L14.2834 23.1136L17.7222 27.5243C17.876 27.7216 17.9502 27.9693 17.9303 28.2187L17.6351 31.9197Z" fill="#111827"/>
</svg>
