<svg width="32" height="32" viewBox="0 0 32 32" fill="none" xmlns="http://www.w3.org/2000/svg">
<path fill-rule="evenodd" clip-rule="evenodd" d="M29.2075 10.8627C29.2075 16.8618 24.3443 21.7251 18.3451 21.7251C12.346 21.7251 7.48268 16.8618 7.48268 10.8627C7.48268 4.86352 12.346 0.000244141 18.3451 0.000244141C24.3443 0.000244141 29.2075 4.86352 29.2075 10.8627ZM13.2451 29.9996C12.6928 29.9996 12.2451 30.4474 12.2451 30.9996C12.2451 31.5519 12.6928 31.9996 13.2451 31.9996H18.0635L18.0734 31.9997L18.0833 31.9996H22.9006C23.4529 31.9996 23.9006 31.5519 23.9006 30.9996C23.9006 30.4474 23.4529 29.9996 22.9006 29.9996H19.0734V27.1586C22.8583 27.0046 26.4667 25.5118 29.2542 22.9473C29.6607 22.5734 29.687 21.9408 29.3131 21.5343C28.9392 21.1279 28.3065 21.1015 27.9001 21.4754C25.3216 23.8477 21.9401 25.1719 18.4221 25.1719C14.7093 25.1719 11.1485 23.697 8.52315 21.0716C5.89777 18.4462 4.42285 14.8854 4.42285 11.1726C4.42285 7.65465 5.74701 4.27319 8.1193 1.69464C8.49323 1.2882 8.46687 0.655584 8.06043 0.281654C7.65399 -0.0922756 7.02137 -0.0659198 6.64744 0.340522C3.93619 3.28751 2.42285 7.15203 2.42285 11.1726C2.42285 15.4159 4.10849 19.4854 7.10893 22.4858C9.78983 25.1667 13.3242 26.7979 17.0734 27.115V29.9996H13.2451Z" fill="#111827"/>
</svg>
