<svg width="33" height="33" viewBox="0 0 33 33" fill="none" xmlns="http://www.w3.org/2000/svg">
<path fill-rule="evenodd" clip-rule="evenodd" d="M12.9751 15.2829C13.0688 12.2128 13.5894 9.4901 14.357 7.50622C14.7832 6.40457 15.2662 5.58146 15.7515 5.05096C16.2363 4.52105 16.6459 4.36047 16.9599 4.36047C17.2739 4.36047 17.6835 4.52105 18.1683 5.05096C18.6536 5.58146 19.1366 6.40457 19.5628 7.50622C20.3304 9.4901 20.851 12.2128 20.9447 15.2829H12.9751ZM10.9742 15.2829H5.00098C5.41066 10.317 8.84402 6.20846 13.4558 4.80259C13.0943 5.38852 12.773 6.05759 12.4917 6.78452C11.6202 9.03699 11.0682 12.0139 10.9742 15.2829ZM20.464 4.80259C20.8255 5.38852 21.1468 6.05759 21.4281 6.78452C22.2996 9.03699 22.8516 12.0139 22.9456 15.2829H28.9188C28.5092 10.317 25.0758 6.20846 20.464 4.80259ZM20.9447 17.2829C20.851 20.353 20.3304 23.0757 19.5628 25.0596C19.1366 26.1613 18.6536 26.9844 18.1683 27.5149C17.6835 28.0448 17.2739 28.2054 16.9599 28.2054C16.6459 28.2054 16.2363 28.0448 15.7515 27.5149C15.2662 26.9844 14.7832 26.1613 14.357 25.0596C13.5894 23.0757 13.0688 20.353 12.9751 17.2829H20.9447ZM22.9456 17.2829H28.9188C28.5092 22.2488 25.0758 26.3573 20.4641 27.7632C20.8255 27.1773 21.1468 26.5082 21.4281 25.7813C22.2996 23.5288 22.8516 20.5519 22.9456 17.2829ZM13.4557 27.7632C8.844 26.3573 5.41065 22.2488 5.00098 17.2829H10.9742C11.0682 20.5519 11.6202 23.5288 12.4917 25.7813C12.773 26.5082 13.0943 27.1773 13.4557 27.7632Z" fill="#1C1B1F"/>
</svg>
