<svg width="32" height="32" viewBox="0 0 32 32" fill="none" xmlns="http://www.w3.org/2000/svg">
<path fill-rule="evenodd" clip-rule="evenodd" d="M10.3446 15C10.4411 10.7378 11.1499 6.9395 12.2186 4.17747C12.7956 2.68607 13.4582 1.54754 14.1429 0.799071C14.4702 0.441233 14.7849 0.190255 15.0837 0.0257994C15.387 0.00867695 15.6925 0 16 0C16.3075 0 16.613 0.00867588 16.9163 0.0257962C17.2151 0.190252 17.5298 0.441231 17.8571 0.799071C18.5418 1.54754 19.2044 2.68607 19.7814 4.17747C20.8501 6.9395 21.5589 10.7378 21.6554 15H10.3446ZM8.34413 15H0.0307638C0.458987 8.05597 5.31637 2.31037 11.8126 0.553535C11.2627 1.38243 10.7755 2.36468 10.3533 3.45576C9.17931 6.49 8.44069 10.5429 8.34413 15ZM20.1874 0.553518C20.7373 1.38241 21.2245 2.36468 21.6467 3.45576C22.8207 6.49 23.5593 10.5429 23.6559 15H31.9693C31.5411 8.05594 26.6836 2.31033 20.1874 0.553518ZM21.6554 17H10.3446C10.4411 21.2622 11.1499 25.0605 12.2186 27.8226C12.7956 29.314 13.4582 30.4525 14.1429 31.201C14.4702 31.5588 14.7849 31.8097 15.0837 31.9742C15.3869 31.9913 15.6925 32 16 32C16.3076 32 16.6131 31.9913 16.9163 31.9742C17.2151 31.8097 17.5298 31.5588 17.8571 31.201C18.5418 30.4525 19.2044 29.314 19.7814 27.8226C20.8501 25.0605 21.5589 21.2622 21.6554 17ZM20.1874 31.4465C20.7373 30.6176 21.2245 29.6353 21.6467 28.5443C22.8207 25.51 23.5593 21.4571 23.6559 17H31.9693C31.5411 23.944 26.6837 29.6897 20.1874 31.4465ZM11.8126 31.4465C5.31635 29.6896 0.45897 23.944 0.0307617 17H8.34413C8.44069 21.4571 9.1793 25.51 10.3533 28.5443C10.7755 29.6353 11.2627 30.6176 11.8126 31.4465Z" fill="#111827"/>
</svg>
