<svg width="33" height="33" viewBox="0 0 33 33" fill="none" xmlns="http://www.w3.org/2000/svg">
<path fill-rule="evenodd" clip-rule="evenodd" d="M16.96 4.2829C19.3385 4.2829 21.5554 4.97492 23.4204 6.16861V8.26219L20.2164 12.1439L15.6994 12.7543L11.8862 10.5848C11.43 10.3252 10.8508 10.4625 10.5597 10.8992L6.87759 16.4222C6.76808 16.5865 6.70964 16.7795 6.70964 16.9769V22.4743L6.68622 22.4872C5.59058 20.6768 4.95996 18.5535 4.95996 16.2829C4.95996 9.65548 10.3325 4.2829 16.96 4.2829ZM16.96 28.2829C13.3272 28.2829 10.0715 26.6687 7.871 24.1184L8.19049 23.9432C8.51063 23.7677 8.70964 23.4315 8.70964 23.0664V17.2797L11.707 12.7838L15.004 14.6597C15.1945 14.7681 15.4153 14.8109 15.6325 14.7816L20.8723 14.0735C21.1218 14.0398 21.3493 13.9132 21.5096 13.7191L25.1916 9.25815C25.3395 9.07898 25.4204 8.85391 25.4204 8.62159V7.77282C27.6066 9.94633 28.96 12.9566 28.96 16.2829C28.96 17.3236 28.8275 18.3334 28.5784 19.2963L26.5433 17.2612C26.264 16.9819 25.8466 16.8932 25.4779 17.0346L19.3884 19.3713C19.0337 19.5074 18.7868 19.8328 18.7511 20.211L18.397 23.9638C18.3515 24.4458 18.6578 24.8911 19.1241 25.0211L23.1905 26.1543L23.4283 26.3921C21.5617 27.5889 19.3419 28.2829 16.96 28.2829ZM25.0294 25.1647C26.1953 24.1048 27.1516 22.8186 27.829 21.3753L25.5882 19.1345L20.684 21.0164L20.4667 23.319L23.9804 24.2982C24.1462 24.3444 24.2973 24.4327 24.419 24.5544L25.0294 25.1647Z" fill="#1C1B1F"/>
</svg>
