<svg width="33" height="33" viewBox="0 0 33 33" fill="none" xmlns="http://www.w3.org/2000/svg">
<path fill-rule="evenodd" clip-rule="evenodd" d="M10.7807 5.74762C11.1546 5.34118 11.1283 4.70856 10.7218 4.33463C10.3154 3.9607 9.68278 3.98706 9.30885 4.3935C7.17151 6.71668 5.97852 9.76315 5.97852 12.9327C5.97852 16.2777 7.30734 19.4858 9.67265 21.8511C11.7366 23.9151 14.4423 25.1898 17.3208 25.4811V27.2829H14.583C14.0307 27.2829 13.583 27.7306 13.583 28.2829C13.583 28.8352 14.0307 29.2829 14.583 29.2829H18.3164L18.3208 29.2829L18.3252 29.2829H22.0584C22.6107 29.2829 23.0584 28.8352 23.0584 28.2829C23.0584 27.7306 22.6107 27.2829 22.0584 27.2829H19.3208V25.5241C22.2255 25.3559 24.9859 24.1876 27.1302 22.2149C27.5367 21.841 27.563 21.2083 27.1891 20.8019C26.8152 20.3955 26.1826 20.3691 25.7761 20.743C23.8214 22.5414 21.258 23.5452 18.5911 23.5452C15.7765 23.5452 13.0771 22.4271 11.0869 20.4369C9.09662 18.4466 7.97852 15.7473 7.97852 12.9327C7.97852 10.2658 8.98233 7.70236 10.7807 5.74762ZM26.9411 12.6927C26.9411 17.3373 23.176 21.1025 18.5314 21.1025C13.8868 21.1025 10.1216 17.3373 10.1216 12.6927C10.1216 8.04809 13.8868 4.2829 18.5314 4.2829C23.176 4.2829 26.9411 8.04809 26.9411 12.6927Z" fill="#1C1B1F"/>
</svg>
