<svg width="33" height="33" viewBox="0 0 33 33" fill="none" xmlns="http://www.w3.org/2000/svg">
<path fill-rule="evenodd" clip-rule="evenodd" d="M13.3684 11.2829C13.6097 9.87933 13.948 8.62491 14.3561 7.5781C14.782 6.48583 15.2644 5.67003 15.749 5.1443C16.2327 4.61955 16.643 4.45874 16.96 4.45874C17.2769 4.45874 17.6872 4.61955 18.1709 5.1443C18.6555 5.67003 19.1379 6.48583 19.5638 7.5781C19.9719 8.62491 20.3102 9.87933 20.5516 11.2829H13.3684ZM11.3412 11.2829H6.04805C7.47611 8.17142 10.1958 5.77594 13.5207 4.78302C13.1331 5.38847 12.7905 6.08791 12.4927 6.85159C11.9971 8.1228 11.6048 9.62616 11.3412 11.2829ZM20.3992 4.78302C20.7868 5.38847 21.1294 6.08792 21.4272 6.85159C21.9228 8.1228 22.3151 9.62616 22.5787 11.2829H27.8719C26.4438 8.17142 23.7241 5.77594 20.3992 4.78302ZM20.8179 13.2829H13.102C13.0095 14.2396 12.96 15.2444 12.96 16.2829C12.96 17.3214 13.0095 18.3262 13.102 19.2829H20.8179C20.9104 18.3262 20.96 17.3214 20.96 16.2829C20.96 15.2444 20.9104 14.2396 20.8179 13.2829ZM22.8266 19.2829C22.9141 18.3155 22.96 17.3111 22.96 16.2829C22.96 15.2547 22.9141 14.2503 22.8266 13.2829H28.5819C28.8287 14.2418 28.96 15.247 28.96 16.2829C28.96 17.3188 28.8287 18.324 28.5819 19.2829H22.8266ZM20.5516 21.2829H13.3684C13.6097 22.6864 13.948 23.9409 14.3561 24.9877C14.782 26.0799 15.2644 26.8957 15.749 27.4215C16.2327 27.9462 16.643 28.107 16.96 28.107C17.2769 28.107 17.6872 27.9462 18.1709 27.4215C18.6555 26.8957 19.1379 26.0799 19.5638 24.9877C19.9719 23.9409 20.3102 22.6864 20.5516 21.2829ZM11.0933 19.2829H5.33801C5.09122 18.324 4.95996 17.3188 4.95996 16.2829C4.95996 15.247 5.09122 14.2418 5.33801 13.2829H11.0933C11.0058 14.2503 10.96 15.2547 10.96 16.2829C10.96 17.3111 11.0058 18.3155 11.0933 19.2829ZM11.3412 21.2829C11.6048 22.9396 11.9971 24.443 12.4927 25.7142C12.7905 26.4779 13.1331 27.1773 13.5207 27.7828C10.1959 26.7899 7.47611 24.3944 6.04805 21.2829H11.3412ZM20.3992 27.7828C20.7868 27.1773 21.1294 26.4779 21.4272 25.7142C21.9228 24.443 22.3151 22.9396 22.5787 21.2829H27.8719C26.4438 24.3944 23.7241 26.7899 20.3992 27.7828Z" fill="#1C1B1F"/>
</svg>
