<svg width="33" height="33" viewBox="0 0 33 33" fill="none" xmlns="http://www.w3.org/2000/svg">
<path fill-rule="evenodd" clip-rule="evenodd" d="M16.96 4.2829C17.8985 4.2829 18.8119 4.39064 19.6884 4.59443L20.3194 6.91567L15.7286 10.9727H11.9466C11.5118 10.9727 11.1268 11.2537 10.9942 11.6679L10.2753 13.9147L10.0285 13.8559L8.86139 10.7098L9.10907 7.20721C11.2134 5.38523 13.958 4.2829 16.96 4.2829ZM13.4206 14.6636L12.2265 14.3793L12.6766 12.9727H16.1071C16.3511 12.9727 16.5866 12.8835 16.7693 12.722L22.1097 8.00262C22.3949 7.75053 22.5123 7.35833 22.4124 6.99096L21.9738 5.37733C26.0974 7.2763 28.96 11.4453 28.96 16.2829C28.96 17.7675 28.6904 19.1891 28.1975 20.5015L21.1332 16.5048C21.0123 16.4364 20.8785 16.3939 20.7403 16.3801L17.0145 16.0075C16.5859 15.9646 16.1781 16.201 16.0022 16.5941L15.9335 16.7477H15.0029L14.0509 15.1294C13.9129 14.8948 13.6853 14.7266 13.4206 14.6636ZM15.0388 18.7477H14.4309C14.0766 18.7477 13.7487 18.5601 13.569 18.2547L12.543 16.5105L9.04526 15.6777C8.72034 15.6004 8.45549 15.3659 8.33932 15.0527L6.91107 11.2027C6.86151 11.0691 6.84107 10.9265 6.85112 10.7844L6.92813 9.69544C5.68391 11.5864 4.95996 13.8501 4.95996 16.2829C4.95996 22.7316 10.0467 27.9923 16.4267 28.2713L16.6323 25.6938L14.0151 22.3367C13.7876 22.0449 13.7398 21.6513 13.8909 21.3135L15.0388 18.7477ZM18.4393 28.1926C22.2415 27.7252 25.4933 25.4793 27.3373 22.3127L20.3317 18.3492L17.5332 18.0693L15.9621 21.5813L18.4487 24.7708C18.6025 24.968 18.6768 25.2158 18.6569 25.4651L18.4393 28.1926Z" fill="#1C1B1F"/>
</svg>
