<svg width="32" height="32" viewBox="0 0 32 32" fill="none" xmlns="http://www.w3.org/2000/svg">
<path fill-rule="evenodd" clip-rule="evenodd" d="M16 0C19.3143 0 22.3933 1.00775 24.9472 2.73354V5.42553L20.5159 10.7942L14.2524 11.6407L9.07017 8.69222C8.61398 8.43267 8.03475 8.56998 7.74361 9.00668L2.83419 16.3707C2.72468 16.535 2.66624 16.728 2.66624 16.9254V24.4526L2.47748 24.5561C0.908481 22.0816 0 19.1469 0 16C0 7.16344 7.16344 0 16 0ZM16 32C11.0341 32 6.59664 29.7377 3.66194 26.1876L4.14708 25.9215C4.46723 25.7459 4.66624 25.4098 4.66624 25.0447V17.2282L8.8909 10.8913L13.557 13.5461C13.7474 13.6544 13.9682 13.6972 14.1854 13.6679L21.1718 12.7238C21.4213 12.6901 21.6488 12.5635 21.8091 12.3694L26.7184 6.42148C26.8663 6.24231 26.9472 6.01724 26.9472 5.78492V4.33124C30.0573 7.25013 32 11.3982 32 16C32 17.5219 31.7875 18.9941 31.3906 20.3886L28.542 17.54C28.2628 17.2608 27.8454 17.1721 27.4767 17.3135L19.3574 20.4291C19.0027 20.5652 18.7557 20.8906 18.72 21.2688L18.2479 26.2726C18.2024 26.7545 18.5087 27.1998 18.975 27.3298L24.4812 28.8643L24.9091 29.2921C22.3627 31.0022 19.2979 32 16 32ZM26.5098 28.0645C28.2659 26.5334 29.6846 24.6252 30.6396 22.4661L27.587 19.4134L20.6529 22.0742L20.3176 25.6277L25.2711 27.0082C25.4369 27.0544 25.588 27.1426 25.7097 27.2644L26.5098 28.0645Z" fill="#111827"/>
</svg>
