<svg width="32" height="33" viewBox="0 0 32 33" fill="none" xmlns="http://www.w3.org/2000/svg">
<g clip-path="url(#clip0_368_91)">
<path fill-rule="evenodd" clip-rule="evenodd" d="M22.0151 13.0372C22.567 14.0616 23.0211 15.5066 22.8673 17.2263H22.9019C24.8101 17.2263 26.3569 18.7731 26.3569 20.6813C26.3569 22.5894 24.8101 24.1363 22.9019 24.1363H14.7147L14.6852 24.1362L14.6874 24.1415L12.8189 24.1432H8.77074C6.94682 24.0215 5.50507 22.5035 5.50507 20.6488C5.50507 18.7145 7.0731 17.1465 9.00736 17.1465C10.3745 17.1465 11.5587 17.9298 12.1355 19.0721L16.0323 15.0106C14.7456 13.4095 12.9228 12.2575 10.8363 11.8272C12.1137 10.4412 13.9444 9.573 15.9778 9.573C18.5525 9.573 20.802 10.9649 22.0151 13.0372ZM28.0328 13.1825C30.4265 14.8015 32 17.5414 32 20.6488C32 25.6119 27.986 29.6374 23.0274 29.6561V29.6593H8.66101V29.6496C3.84689 29.4676 0 25.5074 0 20.6488C0 17.6032 1.51152 14.9107 3.82531 13.2804C5.28061 7.95368 10.1544 4.03833 15.9426 4.03833C21.6954 4.03833 26.5448 7.90577 28.0328 13.1825Z" fill="#111827"/>
</g>
<defs>
<clipPath id="clip0_368_91">
<rect width="32" height="32" fill="white" transform="translate(0 0.848877)"/>
</clipPath>
</defs>
</svg>
