<svg width="33" height="33" viewBox="0 0 33 33" fill="none" xmlns="http://www.w3.org/2000/svg">
<path d="M17.4216 16.7445V4.28296C18.8747 4.28296 20.2909 4.74014 21.4696 5.58974C22.6484 6.43935 23.53 7.6383 23.9894 9.01677C24.4489 10.3952 24.463 11.8833 24.0298 13.2703C23.5966 14.6572 22.7379 15.8727 21.5755 16.7445" fill="#1C1B1F"/>
<path d="M17.4216 16.7445V4.28296C18.8747 4.28296 20.2909 4.74014 21.4696 5.58974C22.6484 6.43935 23.5299 7.6383 23.9894 9.01677C24.4489 10.3952 24.463 11.8833 24.0298 13.2703C23.5966 14.6572 22.7379 15.8727 21.5755 16.7445" stroke="#1C1B1F" stroke-width="2" stroke-linecap="round" stroke-linejoin="round"/>
<path d="M17.4217 15.8214H4.96021C4.96021 14.3684 5.41739 12.9522 6.26699 11.7734C7.11659 10.5946 8.31555 9.71307 9.69401 9.25359C11.0725 8.7941 12.5606 8.77997 13.9475 9.21322C15.3345 9.64647 16.5499 10.5051 17.4217 11.6675" stroke="#1C1B1F" stroke-width="2" stroke-linecap="round" stroke-linejoin="round"/>
<path d="M16.4988 15.8214V28.2829C15.0457 28.2829 13.6295 27.8258 12.4508 26.9762C11.272 26.1266 10.3904 24.9276 9.93095 23.5491C9.47146 22.1707 9.45734 20.6826 9.89059 19.2956C10.3238 17.9087 11.1825 16.6932 12.3449 15.8214" fill="#1C1B1F"/>
<path d="M16.4988 15.8214V28.2829C15.0457 28.2829 13.6295 27.8258 12.4508 26.9762C11.272 26.1266 10.3904 24.9276 9.93095 23.5491C9.47146 22.1707 9.45734 20.6826 9.89059 19.2956C10.3238 17.9087 11.1825 16.6932 12.3449 15.8214" stroke="#1C1B1F" stroke-width="2" stroke-linecap="round" stroke-linejoin="round"/>
<path d="M16.4988 16.7445H28.9603C28.9603 18.1975 28.5031 19.6137 27.6535 20.7925C26.8039 21.9713 25.605 22.8528 24.2265 23.3123C22.848 23.7718 21.3599 23.7859 19.973 23.3527C18.5861 22.9194 17.3706 22.0608 16.4988 20.8984" stroke="#1C1B1F" stroke-width="2" stroke-linecap="round" stroke-linejoin="round"/>
</svg>
