<svg width="32" height="32" viewBox="0 0 32 32" fill="none" xmlns="http://www.w3.org/2000/svg">
<path fill-rule="evenodd" clip-rule="evenodd" d="M16.0002 -0.000610352C16.5525 -0.000610352 17.0002 0.447105 17.0002 0.99939V4.46178C17.0002 5.01407 16.5525 5.46178 16.0002 5.46178C15.4479 5.46178 15.0002 5.01407 15.0002 4.46178V0.99939C15.0002 0.447105 15.4479 -0.000610352 16.0002 -0.000610352ZM22.9234 6.34558C23.4757 6.34558 23.9234 6.7933 23.9234 7.34558V10.808C23.9234 11.3603 23.4757 11.808 22.9234 11.808C22.3712 11.808 21.9234 11.3603 21.9234 10.808V7.34558C21.9234 6.7933 22.3712 6.34558 22.9234 6.34558ZM17.0002 27.5383C17.0002 26.986 16.5525 26.5383 16.0002 26.5383C15.4479 26.5383 15.0002 26.986 15.0002 27.5383V31.0007C15.0002 31.553 15.4479 32.0007 16.0002 32.0007C16.5525 32.0007 17.0002 31.553 17.0002 31.0007V27.5383ZM16.0002 8.07651C16.5525 8.07651 17.0002 8.52422 17.0002 9.07651V22.9229C17.0002 23.4752 16.5525 23.9229 16.0002 23.9229C15.4479 23.9229 15.0002 23.4752 15.0002 22.9229V9.07651C15.0002 8.52422 15.4479 8.07651 16.0002 8.07651ZM10.0773 7.34558C10.0773 6.7933 9.62955 6.34558 9.07726 6.34558C8.52498 6.34558 8.07726 6.7933 8.07726 7.34558V16.5765C8.07726 17.1288 8.52498 17.5765 9.07726 17.5765C9.62955 17.5765 10.0773 17.1288 10.0773 16.5765V7.34558ZM22.9234 14.4228C23.4757 14.4228 23.9234 14.8705 23.9234 15.4228V24.6537C23.9234 25.206 23.4757 25.6537 22.9234 25.6537C22.3712 25.6537 21.9234 25.206 21.9234 24.6537V15.4228C21.9234 14.8705 22.3712 14.4228 22.9234 14.4228ZM3.15381 14.2688C3.15381 13.7165 2.70609 13.2688 2.15381 13.2688C1.60152 13.2688 1.15381 13.7165 1.15381 14.2688V17.7312C1.15381 18.2835 1.60152 18.7312 2.15381 18.7312C2.70609 18.7312 3.15381 18.2835 3.15381 17.7312V14.2688ZM9.07726 20.192C9.62955 20.192 10.0773 20.6397 10.0773 21.192V24.6544C10.0773 25.2067 9.62955 25.6544 9.07726 25.6544C8.52498 25.6544 8.07726 25.2067 8.07726 24.6544V21.192C8.07726 20.6397 8.52498 20.192 9.07726 20.192ZM30.8464 14.2688C30.8464 13.7165 30.3987 13.2688 29.8464 13.2688C29.2941 13.2688 28.8464 13.7165 28.8464 14.2688V17.7312C28.8464 18.2835 29.2941 18.7312 29.8464 18.7312C30.3987 18.7312 30.8464 18.2835 30.8464 17.7312V14.2688Z" fill="#111827"/>
</svg>
