<svg width="33" height="33" viewBox="0 0 33 33" fill="none" xmlns="http://www.w3.org/2000/svg">
<path d="M17.4216 16.886V4.42444C18.8747 4.42444 20.2909 4.88162 21.4696 5.73122C22.6484 6.58083 23.53 7.77978 23.9894 9.15825C24.4489 10.5367 24.463 12.0248 24.0298 13.4118C23.5966 14.7987 22.7379 16.0142 21.5755 16.886" fill="#1C1B1F"/>
<path d="M17.4216 16.886V4.42444C18.8747 4.42444 20.2909 4.88162 21.4696 5.73122C22.6484 6.58083 23.5299 7.77978 23.9894 9.15825C24.4489 10.5367 24.463 12.0248 24.0298 13.4118C23.5966 14.7987 22.7379 16.0142 21.5755 16.886" stroke="#1C1B1F" stroke-width="2" stroke-linecap="round" stroke-linejoin="round"/>
<path d="M17.4217 15.9629H4.96021C4.96021 14.5098 5.41739 13.0936 6.26699 11.9149C7.11659 10.7361 8.31555 9.85455 9.69401 9.39506C11.0725 8.93558 12.5606 8.92145 13.9475 9.3547C15.3345 9.78795 16.5499 10.6466 17.4217 11.809" stroke="#1C1B1F" stroke-width="2" stroke-linecap="round" stroke-linejoin="round"/>
<path d="M16.4988 15.9629V28.4244C15.0457 28.4244 13.6295 27.9672 12.4508 27.1176C11.272 26.268 10.3904 25.0691 9.93095 23.6906C9.47146 22.3122 9.45734 20.8241 9.89059 19.4371C10.3238 18.0502 11.1825 16.8347 12.3449 15.9629" fill="#1C1B1F"/>
<path d="M16.4988 15.9629V28.4244C15.0457 28.4244 13.6295 27.9672 12.4508 27.1176C11.272 26.268 10.3904 25.0691 9.93095 23.6906C9.47146 22.3122 9.45734 20.8241 9.89059 19.4371C10.3238 18.0502 11.1825 16.8347 12.3449 15.9629" stroke="#1C1B1F" stroke-width="2" stroke-linecap="round" stroke-linejoin="round"/>
<path d="M16.4988 16.886H28.9603C28.9603 18.339 28.5031 19.7552 27.6535 20.934C26.8039 22.1127 25.605 22.9943 24.2265 23.4538C22.848 23.9133 21.3599 23.9274 19.973 23.4942C18.5861 23.0609 17.3706 22.2023 16.4988 21.0398" stroke="#1C1B1F" stroke-width="2" stroke-linecap="round" stroke-linejoin="round"/>
</svg>
