<svg width="32" height="32" viewBox="0 0 32 32" fill="none" xmlns="http://www.w3.org/2000/svg">
<path fill-rule="evenodd" clip-rule="evenodd" d="M7.19737 19.7659C7.62352 18.5124 8.3522 17.371 9.32086 16.423H0.999526C0.447242 16.423 -0.000473678 15.9753 -0.000473678 15.423C-0.000473678 13.3968 0.637047 11.422 1.82178 9.77824C3.00652 8.13451 4.6784 6.90521 6.60062 6.26447C8.52283 5.62373 10.5979 5.60404 12.5319 6.20818C13.6602 6.56061 14.707 7.11491 15.6248 7.8374V1.99988C15.6248 1.44759 16.0736 0.994983 16.6234 1.04676C18.2842 1.20314 19.8773 1.74767 21.2413 2.63338C22.8768 3.69539 24.1 5.19409 24.7375 6.9172C25.3751 8.6403 25.3947 10.5004 24.7935 12.2341C24.3589 13.4876 23.6158 14.629 22.6279 15.577H31.0001C31.5523 15.577 32.0001 16.0247 32.0001 16.577C32.0001 18.6032 31.3625 20.578 30.1778 22.2217C28.9931 23.8655 27.3212 25.0948 25.399 25.7355C23.4767 26.3763 21.4017 26.3959 19.4676 25.7918C18.2619 25.4152 17.1492 24.808 16.1875 24.0114V30.0002C16.1875 30.5524 15.7387 31.0052 15.1891 30.9514C13.5676 30.7926 12.0125 30.2489 10.6804 29.3667C9.07673 28.3046 7.8774 26.8059 7.25228 25.0828C6.62717 23.3597 6.60796 21.4996 7.19737 19.7659ZM16.1875 21.1248C16.1997 21.1392 16.2115 21.1541 16.223 21.1693C17.1868 22.4545 18.5306 23.4038 20.064 23.8828C21.5973 24.3618 23.2425 24.3461 24.7665 23.8381C26.2905 23.3302 27.616 22.3555 28.5553 21.0523C29.2983 20.0215 29.7698 18.8265 29.9345 17.577H16.1875V21.1248ZM15.6248 14.423V10.6349C14.674 9.44905 13.3901 8.57155 11.9356 8.11721C10.4023 7.63823 8.75706 7.65384 7.23307 8.16184C5.70908 8.66983 4.38356 9.64446 3.44427 10.9477C2.70131 11.9785 2.22979 13.1735 2.06513 14.423H15.6248Z" fill="#111827"/>
</svg>
