<svg width="32" height="32" viewBox="0 0 32 32" fill="none" xmlns="http://www.w3.org/2000/svg">
<path fill-rule="evenodd" clip-rule="evenodd" d="M16.0002 1.99976C11.7566 1.99976 7.95388 3.88785 5.38641 6.86981L9.67858 14.3064C10.3892 11.6469 12.7336 9.65481 15.5707 9.47115C15.7007 9.40931 15.8462 9.3747 15.9998 9.3747H28.3367C25.9738 4.98418 21.3355 1.99976 16.0002 1.99976ZM0 16C0 12.3268 1.23775 8.94272 3.31892 6.24206C3.3581 6.17809 3.40475 6.11812 3.45848 6.06358C6.38938 2.36917 10.9181 -0.000244141 16.0002 -0.000244141C24.8369 -0.000244141 32.0005 7.1633 32.0005 16C32.0005 24.8367 24.8369 32.0002 16.0002 32.0002C15.2707 32.0002 14.5526 31.9514 13.849 31.8568C13.8061 31.8537 13.7633 31.8478 13.7207 31.8391C5.96374 30.7326 0 24.0628 0 16ZM15.5762 29.9939C15.717 29.9981 15.8584 30.0002 16.0002 30.0002C23.7323 30.0002 30.0005 23.7321 30.0005 16C30.0005 14.3791 29.725 12.8226 29.2184 11.3747H20.6271C21.8104 12.5586 22.5422 14.1937 22.5422 15.9998C22.5422 17.0357 22.3015 18.0154 21.8728 18.8859C21.8622 19.0316 21.8193 19.1771 21.7414 19.3121L15.5762 29.9939ZM17.696 22.3202L13.4022 29.7596C6.91144 28.5416 2 22.8444 2 16C2 13.2963 2.76641 10.7716 4.09384 8.63125L10.2585 19.3121C10.3366 19.4473 10.4414 19.5573 10.5624 19.6395C11.7365 21.39 13.7336 22.5422 15.9998 22.5422C16.5864 22.5422 17.155 22.465 17.696 22.3202Z" fill="#111827"/>
</svg>
