<svg width="33" height="33" viewBox="0 0 33 33" fill="none" xmlns="http://www.w3.org/2000/svg">
<path d="M16.96 28.4244C23.5874 28.4244 28.96 23.0519 28.96 16.4244C28.96 9.79702 23.5874 4.42444 16.96 4.42444C10.3325 4.42444 4.95996 9.79702 4.95996 16.4244C4.95996 23.0519 10.3325 28.4244 16.96 28.4244Z" stroke="#1C1B1F" stroke-width="2" stroke-linecap="round" stroke-linejoin="round"/>
<path d="M16.96 20.9244C19.4452 20.9244 21.46 18.9097 21.46 16.4244C21.46 13.9392 19.4452 11.9244 16.96 11.9244C14.4747 11.9244 12.46 13.9392 12.46 16.4244C12.46 18.9097 14.4747 20.9244 16.96 20.9244Z" fill="#1C1B1F" stroke="#1C1B1F" stroke-width="2" stroke-linecap="round" stroke-linejoin="round"/>
<path d="M16.96 11.9244H28.085" stroke="#1C1B1F" stroke-width="2" stroke-linecap="round" stroke-linejoin="round"/>
<path d="M13.0601 18.6745L7.49756 9.03699" stroke="#1C1B1F" stroke-width="2" stroke-linecap="round" stroke-linejoin="round"/>
<path d="M20.8599 18.6744L15.2974 28.3119" stroke="#1C1B1F" stroke-width="2" stroke-linecap="round" stroke-linejoin="round"/>
</svg>
