<svg width="32" height="33" viewBox="0 0 32 33" fill="none" xmlns="http://www.w3.org/2000/svg">
<path d="M27.775 14.0388V20.6686C27.7754 20.8785 27.704 21.0828 27.5715 21.2507C26.7093 22.3408 23.0715 26.3287 15.9993 26.3287C8.92713 26.3287 5.28936 22.3408 4.42709 21.2507C4.29462 21.0828 4.22321 20.8785 4.22363 20.6686V14.0388" stroke="#111827" stroke-width="2" stroke-linecap="round" stroke-linejoin="round"/>
<path fill-rule="evenodd" clip-rule="evenodd" d="M31.0176 9.99181L16.937 2.11264C16.3545 1.78667 15.6444 1.78667 15.0619 2.11264L0.982399 9.99117C-0.307546 10.713 -0.332152 12.5606 0.938085 13.3165L15.0179 21.6955C15.6225 22.0553 16.3754 22.0556 16.9803 21.6963L22.3456 18.1221L22.3436 16.9359L22.3368 16.9255L22.3442 16.9211V16.2729L21.6966 15.9316L21.6899 15.9212L21.6837 15.9248L15.3833 12.6052C14.7579 12.2757 14.5181 11.5016 14.8476 10.8762C15.1771 10.2508 15.9512 10.0109 16.5766 10.3405L24.2208 14.3681C24.61 14.5731 24.8644 14.9622 24.8999 15.3958L24.893 17.2665L31.0636 13.3162C32.3323 12.5594 32.3068 10.7132 31.0176 9.99181Z" fill="#111827"/>
<path fill-rule="evenodd" clip-rule="evenodd" d="M22.3438 29.8522V18.136L24.9037 17.251V29.8522C24.9037 30.5591 24.3306 31.1322 23.6237 31.1322C22.9168 31.1322 22.3438 30.5591 22.3438 29.8522Z" fill="#111827"/>
</svg>
