<svg width="33" height="33" viewBox="0 0 33 33" fill="none" xmlns="http://www.w3.org/2000/svg">
<path d="M26.1598 14.4319V19.6116C26.1601 19.7755 26.1043 19.9351 26.0008 20.0663C25.3271 20.918 22.4851 24.0336 16.9598 24.0336C11.4345 24.0336 8.59239 20.918 7.91872 20.0663C7.81522 19.9351 7.75944 19.7755 7.75977 19.6116V14.4319" stroke="#1C1B1F" stroke-width="2" stroke-linecap="round" stroke-linejoin="round"/>
<path fill-rule="evenodd" clip-rule="evenodd" d="M28.6931 11.2701L17.6923 5.11434C17.2372 4.85967 16.6825 4.85967 16.2274 5.11434L5.22748 11.2696C4.21968 11.8336 4.20046 13.277 5.19286 13.8676L16.193 20.4139C16.6653 20.695 17.2536 20.6952 17.7262 20.4145L21.918 17.6221L21.9163 16.6953L21.9111 16.6871L21.9166 16.6838V16.1774L21.411 15.911L21.4056 15.9026L21.4007 15.9055L16.4783 13.312C15.9897 13.0545 15.8023 12.4497 16.0597 11.9611C16.3172 11.4725 16.922 11.2851 17.4106 11.5425L23.3828 14.6892C23.6877 14.8499 23.8867 15.155 23.9135 15.495L23.9081 16.9536L28.7291 13.8673C29.7203 13.2761 29.7003 11.8337 28.6931 11.2701Z" fill="#1C1B1F"/>
<path fill-rule="evenodd" clip-rule="evenodd" d="M21.9165 26.7864V17.6328L23.9165 16.9414V26.7864C23.9165 27.3387 23.4688 27.7864 22.9165 27.7864C22.3642 27.7864 21.9165 27.3387 21.9165 26.7864Z" fill="#1C1B1F"/>
</svg>
