<svg width="33" height="33" viewBox="0 0 33 33" fill="none" xmlns="http://www.w3.org/2000/svg">
<path fill-rule="evenodd" clip-rule="evenodd" d="M4.45996 8.03296C3.90768 8.03296 3.45996 8.48067 3.45996 9.03296C3.45996 9.58524 3.90768 10.033 4.45996 10.033H28.46C29.0122 10.033 29.46 9.58524 29.46 9.03296C29.46 8.48067 29.0122 8.03296 28.46 8.03296H4.45996ZM4.45996 13.033C3.90768 13.033 3.45996 13.4807 3.45996 14.033C3.45996 14.5852 3.90768 15.033 4.45996 15.033H14.46C15.0122 15.033 15.46 14.5852 15.46 14.033C15.46 13.4807 15.0122 13.033 14.46 13.033H4.45996ZM18.46 13.033C17.9077 13.033 17.46 13.4807 17.46 14.033C17.46 14.5852 17.9077 15.033 18.46 15.033H28.46C29.0122 15.033 29.46 14.5852 29.46 14.033C29.46 13.4807 29.0122 13.033 28.46 13.033H18.46ZM3.45996 19.033C3.45996 18.4807 3.90768 18.033 4.45996 18.033H9.95996C10.5122 18.033 10.96 18.4807 10.96 19.033C10.96 19.5852 10.5122 20.033 9.95996 20.033H4.45996C3.90768 20.033 3.45996 19.5852 3.45996 19.033ZM22.96 18.033C22.4077 18.033 21.96 18.4807 21.96 19.033C21.96 19.5852 22.4077 20.033 22.96 20.033H28.46C29.0122 20.033 29.46 19.5852 29.46 19.033C29.46 18.4807 29.0122 18.033 28.46 18.033H22.96ZM12.46 19.033C12.46 18.4807 12.9077 18.033 13.46 18.033H19.46C20.0122 18.033 20.46 18.4807 20.46 19.033C20.46 19.5852 20.0122 20.033 19.46 20.033H13.46C12.9077 20.033 12.46 19.5852 12.46 19.033ZM4.45996 23.033C3.90768 23.033 3.45996 23.4807 3.45996 24.033C3.45996 24.5852 3.90768 25.033 4.45996 25.033H7.45996C8.01225 25.033 8.45996 24.5852 8.45996 24.033C8.45996 23.4807 8.01225 23.033 7.45996 23.033H4.45996ZM10.46 24.033C10.46 23.4807 10.9077 23.033 11.46 23.033H14.46C15.0122 23.033 15.46 23.4807 15.46 24.033C15.46 24.5852 15.0122 25.033 14.46 25.033H11.46C10.9077 25.033 10.46 24.5852 10.46 24.033ZM18.46 23.033C17.9077 23.033 17.46 23.4807 17.46 24.033C17.46 24.5852 17.9077 25.033 18.46 25.033H21.46C22.0122 25.033 22.46 24.5852 22.46 24.033C22.46 23.4807 22.0122 23.033 21.46 23.033H18.46ZM24.46 24.033C24.46 23.4807 24.9077 23.033 25.46 23.033H28.46C29.0122 23.033 29.46 23.4807 29.46 24.033C29.46 24.5852 29.0122 25.033 28.46 25.033H25.46C24.9077 25.033 24.46 24.5852 24.46 24.033Z" fill="#1C1B1F"/>
</svg>
