<svg width="32" height="32" viewBox="0 0 32 32" fill="none" xmlns="http://www.w3.org/2000/svg">
<path d="M27.775 13.5388V20.1686C27.7754 20.3785 27.704 20.5828 27.5715 20.7507C26.7093 21.8408 23.0715 25.8287 15.9993 25.8287C8.92713 25.8287 5.28936 21.8408 4.42709 20.7507C4.29462 20.5828 4.22321 20.3785 4.22363 20.1686V13.5388" stroke="#111827" stroke-width="2" stroke-linecap="round" stroke-linejoin="round"/>
<path fill-rule="evenodd" clip-rule="evenodd" d="M31.0176 9.49181L16.937 1.61264C16.3545 1.28667 15.6444 1.28667 15.0619 1.61264L0.982399 9.49117C-0.307546 10.213 -0.332152 12.0606 0.938085 12.8165L15.0179 21.1955C15.6225 21.5553 16.3754 21.5556 16.9803 21.1963L22.3456 17.6221L22.3436 16.4359L22.3368 16.4255L22.3442 16.4211V15.7729L21.6966 15.4316L21.6899 15.4212L21.6837 15.4248L15.3833 12.1052C14.7579 11.7757 14.5181 11.0016 14.8476 10.3762C15.1771 9.7508 15.9512 9.51093 16.5766 9.84045L24.2208 13.8681C24.61 14.0731 24.8644 14.4622 24.8999 14.8958L24.893 16.7665L31.0636 12.8162C32.3323 12.0594 32.3068 10.2132 31.0176 9.49181Z" fill="#111827"/>
<path fill-rule="evenodd" clip-rule="evenodd" d="M22.3438 29.3522V17.636L24.9037 16.751V29.3522C24.9037 30.0591 24.3306 30.6322 23.6237 30.6322C22.9168 30.6322 22.3438 30.0591 22.3438 29.3522Z" fill="#111827"/>
</svg>
