<svg width="33" height="33" viewBox="0 0 33 33" fill="none" xmlns="http://www.w3.org/2000/svg">
<path fill-rule="evenodd" clip-rule="evenodd" d="M28.9599 9.95763C28.9599 10.8851 28.2596 11.649 27.359 11.7494C27.3504 11.8494 27.3266 11.9498 27.2861 12.0475L23.4135 21.3906C23.3238 21.6069 23.1671 21.775 22.9773 21.8808C23.0615 22.0893 23.1079 22.3171 23.1079 22.5558C23.1079 23.5515 22.3007 24.3587 21.3049 24.3587C20.3092 24.3587 19.502 23.5515 19.502 22.5558C19.502 22.4656 19.5086 22.3771 19.5213 22.2905C19.373 22.2437 19.2334 22.1615 19.1158 22.0439L14.5122 17.4403C14.4175 17.3456 14.3458 17.2367 14.297 17.1204C14.1622 17.1526 14.0214 17.1697 13.8767 17.1697C13.7495 17.1697 13.6254 17.1565 13.5056 17.1314C13.4597 17.285 13.376 17.4297 13.2547 17.551L8.76179 22.0439C8.68977 22.116 8.6095 22.1747 8.52402 22.2202C8.55144 22.3452 8.56589 22.475 8.56589 22.6083C8.56589 23.604 7.75868 24.4112 6.76293 24.4112C5.76718 24.4112 4.95996 23.604 4.95996 22.6083C4.95996 21.6125 5.76718 20.8053 6.76293 20.8053C6.90611 20.8053 7.04539 20.822 7.17894 20.8535C7.22328 20.7733 7.2795 20.6978 7.34758 20.6297L11.8405 16.1368C11.9353 16.042 12.0443 15.9703 12.1607 15.9215C12.1042 15.7467 12.0737 15.5603 12.0737 15.3667C12.0737 14.3709 12.8809 13.5637 13.8767 13.5637C14.8724 13.5637 15.6797 14.3709 15.6797 15.3667C15.6797 15.5225 15.6599 15.6737 15.6227 15.8179C15.7329 15.8664 15.8362 15.9359 15.9264 16.0261L20.53 20.6297C20.599 20.6987 20.6558 20.7752 20.7004 20.8567C20.8894 20.7894 21.0929 20.7528 21.3049 20.7528C21.3775 20.7528 21.449 20.7571 21.5193 20.7654C21.5312 20.7182 21.5467 20.6712 21.5659 20.6248L25.4385 11.2817C25.4905 11.1562 25.5652 11.0469 25.6558 10.9565C25.4651 10.6706 25.354 10.3271 25.354 9.95763C25.354 8.96188 26.1612 8.15466 27.157 8.15466C28.1527 8.15466 28.9599 8.96188 28.9599 9.95763Z" fill="#1C1B1F"/>
</svg>
