<svg width="32" height="32" viewBox="0 0 32 32" fill="none" xmlns="http://www.w3.org/2000/svg">
<path fill-rule="evenodd" clip-rule="evenodd" d="M29.596 9.97027C30.9237 9.97027 32 8.89398 32 7.56631C32 6.23864 30.9237 5.16235 29.596 5.16235C28.2684 5.16235 27.1921 6.23864 27.1921 7.56631C27.1921 8.18002 27.4221 8.74003 27.8005 9.16483C27.7232 9.24888 27.659 9.34771 27.6127 9.45938L22.4492 21.9168C22.4325 21.9572 22.4186 21.998 22.4075 22.0391C22.2114 21.9874 22.0056 21.9599 21.7933 21.9599C21.3916 21.9599 21.013 22.0584 20.6801 22.2326C20.638 22.1608 20.5861 22.0931 20.5244 22.0315L14.3863 15.8933C14.3038 15.8108 14.2104 15.7457 14.1108 15.6981C14.2282 15.4148 14.293 15.1041 14.293 14.7784C14.293 13.4507 13.2167 12.3744 11.889 12.3744C10.5613 12.3744 9.48503 13.4507 9.48503 14.7784C9.48503 15.1545 9.57142 15.5105 9.72543 15.8275C9.61075 15.8762 9.50332 15.9474 9.40981 16.0409L3.4192 22.0315C3.36794 22.0827 3.32341 22.1382 3.28561 22.1967C3.01262 22.089 2.7152 22.0299 2.40396 22.0299C1.07629 22.0299 0 23.1062 0 24.4338C0 25.7615 1.07629 26.8378 2.40396 26.8378C3.73163 26.8378 4.80792 25.7615 4.80792 24.4338C4.80792 24.1361 4.75378 23.851 4.65481 23.5878C4.71827 23.5482 4.77826 23.5008 4.83341 23.4457L10.824 17.4551C10.944 17.3351 11.0271 17.1922 11.0734 17.0405C11.3281 17.1323 11.6027 17.1824 11.889 17.1824C12.1997 17.1824 12.4967 17.1234 12.7693 17.016C12.8176 17.1217 12.8851 17.2206 12.9721 17.3076L19.1102 23.4457C19.2202 23.5557 19.3495 23.6347 19.4872 23.6828C19.4235 23.8987 19.3893 24.1273 19.3893 24.3639C19.3893 25.6915 20.4656 26.7678 21.7933 26.7678C23.121 26.7678 24.1973 25.6915 24.1973 24.3639C24.1973 23.9267 24.0806 23.5169 23.8767 23.1637C24.0592 23.0575 24.2097 22.8928 24.2968 22.6826L29.4603 10.2252C29.4951 10.1413 29.5176 10.0553 29.5286 9.96934C29.551 9.96996 29.5735 9.97027 29.596 9.97027Z" fill="#111827"/>
</svg>
