<svg width="32" height="32" viewBox="0 0 32 32" fill="none" xmlns="http://www.w3.org/2000/svg">
<path fill-rule="evenodd" clip-rule="evenodd" d="M15 0.5C15 0.223858 14.7761 0 14.5 0H0.5C0.223858 0 0 0.223858 0 0.5V14.5C0 14.7761 0.223858 15 0.5 15H14.5C14.7761 15 15 14.7761 15 14.5V0.5ZM0.5 17C0.223858 17 0 17.2239 0 17.5V31.5C0 31.7761 0.223858 32 0.5 32H14.5C14.7761 32 15 31.7761 15 31.5V17.5C15 17.2239 14.7761 17 14.5 17H0.5ZM17 31.5C17 31.7761 17.2239 32 17.5 32H31.5C31.7761 32 32 31.7761 32 31.5V17.5C32 17.2239 31.7761 17 31.5 17H17.5C17.2239 17 17 17.2239 17 17.5V31.5ZM32 14.5C32 14.7761 31.7761 15 31.5 15H17.5C17.2239 15 17 14.7761 17 14.5V0.5C17 0.223858 17.2239 0 17.5 0H31.5C31.7761 0 32 0.223858 32 0.5V14.5Z" fill="#111827"/>
</svg>
