<svg width="33" height="33" viewBox="0 0 33 33" fill="none" xmlns="http://www.w3.org/2000/svg">
<path fill-rule="evenodd" clip-rule="evenodd" d="M15.96 4.78296C15.96 4.50682 15.7361 4.28296 15.46 4.28296H5.45996C5.18382 4.28296 4.95996 4.50682 4.95996 4.78296V14.783C4.95996 15.0591 5.18382 15.283 5.45996 15.283H15.46C15.7361 15.283 15.96 15.0591 15.96 14.783V4.78296ZM5.45996 17.283C5.18382 17.283 4.95996 17.5068 4.95996 17.783V27.783C4.95996 28.0591 5.18382 28.283 5.45996 28.283H15.46C15.7361 28.283 15.96 28.0591 15.96 27.783V17.783C15.96 17.5068 15.7361 17.283 15.46 17.283H5.45996ZM17.96 27.783C17.96 28.0591 18.1838 28.283 18.46 28.283H28.46C28.7361 28.283 28.96 28.0591 28.96 27.783V17.783C28.96 17.5068 28.7361 17.283 28.46 17.283H18.46C18.1838 17.283 17.96 17.5068 17.96 17.783V27.783ZM28.96 14.783C28.96 15.0591 28.7361 15.283 28.46 15.283H18.46C18.1838 15.283 17.96 15.0591 17.96 14.783V4.78296C17.96 4.50682 18.1838 4.28296 18.46 4.28296H28.46C28.7361 4.28296 28.96 4.50682 28.96 4.78296V14.783Z" fill="#1C1B1F"/>
</svg>
