<svg width="32" height="33" viewBox="0 0 32 33" fill="none" xmlns="http://www.w3.org/2000/svg">
<path fill-rule="evenodd" clip-rule="evenodd" d="M19.3895 3.23047H12.6102C7.53749 3.23047 3.42523 7.34273 3.42523 12.4155C3.42523 12.4408 3.44579 12.4614 3.47115 12.4614H28.5285C28.5539 12.4614 28.5745 12.4408 28.5745 12.4155C28.5745 7.34273 24.4622 3.23047 19.3895 3.23047ZM0.999756 16.0768C0.447471 16.0768 -0.000244141 16.5245 -0.000244141 17.0768C-0.000244141 17.6291 0.447471 18.0768 0.999756 18.0768H31.0002C31.5525 18.0768 32.0002 17.6291 32.0002 17.0768C32.0002 16.5245 31.5525 16.0768 31.0002 16.0768H0.999756ZM30.8874 22.1656C31.3913 21.9397 31.6167 21.348 31.3908 20.844C31.1649 20.34 30.5732 20.1146 30.0692 20.3406L24.7976 22.7038L19.3729 20.353C19.0895 20.2302 18.7674 20.2322 18.4856 20.3586L13.2456 22.7076L7.55392 20.3461C7.27259 20.2293 6.95546 20.2345 6.67806 20.3603L1.10885 22.8859C0.605865 23.114 0.383028 23.7066 0.611125 24.2096C0.839222 24.7126 1.43188 24.9354 1.93486 24.7073L4.46137 23.5616V24.7695C4.46137 27.5309 6.69994 29.7695 9.46137 29.7695H22.5386C25.3001 29.7695 27.5386 27.5309 27.5386 24.7695V23.6667L30.8874 22.1656Z" fill="#111827"/>
</svg>
