<svg width="32" height="32" viewBox="0 0 32 32" fill="none" xmlns="http://www.w3.org/2000/svg">
<path fill-rule="evenodd" clip-rule="evenodd" d="M19.3895 2.73047H12.6102C7.53749 2.73047 3.42523 6.84273 3.42523 11.9155C3.42523 11.9408 3.44579 11.9614 3.47115 11.9614H28.5285C28.5539 11.9614 28.5745 11.9408 28.5745 11.9155C28.5745 6.84273 24.4622 2.73047 19.3895 2.73047ZM0.999756 15.5768C0.447471 15.5768 -0.000244141 16.0245 -0.000244141 16.5768C-0.000244141 17.1291 0.447471 17.5768 0.999756 17.5768H31.0002C31.5525 17.5768 32.0002 17.1291 32.0002 16.5768C32.0002 16.0245 31.5525 15.5768 31.0002 15.5768H0.999756ZM30.8874 21.6656C31.3913 21.4397 31.6167 20.848 31.3908 20.344C31.1649 19.84 30.5732 19.6146 30.0692 19.8406L24.7976 22.2038L19.3729 19.853C19.0895 19.7302 18.7674 19.7322 18.4856 19.8586L13.2456 22.2076L7.55392 19.8461C7.27259 19.7293 6.95546 19.7345 6.67806 19.8603L1.10885 22.3859C0.605865 22.614 0.383028 23.2066 0.611125 23.7096C0.839222 24.2126 1.43188 24.4354 1.93486 24.2073L4.46137 23.0616V24.2695C4.46137 27.0309 6.69994 29.2695 9.46137 29.2695H22.5386C25.3001 29.2695 27.5386 27.0309 27.5386 24.2695V23.1667L30.8874 21.6656Z" fill="#111827"/>
</svg>
