<svg width="33" height="33" viewBox="0 0 33 33" fill="none" xmlns="http://www.w3.org/2000/svg">
<path d="M4.96021 16.7444H28.9602" stroke="#1C1B1F" stroke-width="2" stroke-linecap="round" stroke-linejoin="round"/>
<path d="M5.37793 22.12L9.82533 20.1031C9.85055 20.0917 9.87938 20.0912 9.90495 20.1018L14.7292 22.1034C14.7546 22.114 14.7833 22.1136 14.8084 22.1023L19.2679 20.1032C19.2935 20.0917 19.3228 20.0916 19.3486 20.1027L23.9632 22.1025C23.989 22.1136 24.0183 22.1134 24.0439 22.102L28.5427 20.0852" stroke="#1C1B1F" stroke-width="2" stroke-linecap="round"/>
<path d="M12.7295 26.8982H21.3541C24.0255 26.8982 26.191 24.7327 26.191 22.0613C26.191 21.7226 25.8519 21.4888 25.5353 21.6092L24.151 22.136C24.0295 22.1822 23.8948 22.1793 23.7754 22.1279L19.3865 20.2377C19.2547 20.1809 19.105 20.1835 18.9753 20.2447L15.0171 22.1131C14.889 22.1736 14.7413 22.1769 14.6107 22.1222L10.1187 20.2425C9.97688 20.1831 9.81566 20.1923 9.68151 20.2674L7.98532 21.2166C7.82734 21.305 7.72949 21.4719 7.72949 21.6529V21.8982C7.72949 24.6596 9.96807 26.8982 12.7295 26.8982Z" fill="#1C1B1F"/>
<path d="M12.7295 26.8982H21.3541C24.0255 26.8982 26.191 24.7327 26.191 22.0613C26.191 21.7226 25.8519 21.4888 25.5353 21.6092L24.151 22.136C24.0295 22.1822 23.8948 22.1793 23.7754 22.1279L19.3865 20.2377C19.2547 20.1809 19.105 20.1835 18.9753 20.2447L15.0171 22.1131C14.889 22.1736 14.7413 22.1769 14.6107 22.1222L10.1187 20.2425C9.97688 20.1831 9.81566 20.1923 9.68151 20.2674L7.98532 21.2166C7.82734 21.305 7.72949 21.4719 7.72949 21.6529V21.8982C7.72949 24.6596 9.96807 26.8982 12.7295 26.8982Z" stroke="#1C1B1F" stroke-width="2" stroke-linecap="round"/>
<path d="M14.2485 5.66739H19.6718C23.73 5.66739 27.0197 8.95714 27.0197 13.0153C27.0197 13.0356 27.0033 13.052 26.983 13.052H6.93737C6.91708 13.052 6.90063 13.0356 6.90063 13.0153C6.90063 8.95714 10.1904 5.66739 14.2485 5.66739Z" fill="#1C1B1F"/>
<path d="M14.2485 5.66739H19.6718C23.73 5.66739 27.0197 8.95714 27.0197 13.0153C27.0197 13.0356 27.0033 13.052 26.983 13.052H6.93737C6.91708 13.052 6.90063 13.0356 6.90063 13.0153C6.90063 8.95714 10.1904 5.66739 14.2485 5.66739Z" stroke="#1C1B1F" stroke-width="2" stroke-linecap="round"/>
</svg>
