<svg width="32" height="33" viewBox="0 0 32 33" fill="none" xmlns="http://www.w3.org/2000/svg">
<path fill-rule="evenodd" clip-rule="evenodd" d="M12.4355 5.42507C13.381 4.4796 14.6633 3.94844 16.0004 3.94844C17.3375 3.94844 18.6198 4.4796 19.5653 5.42507C20.5107 6.3705 21.0419 7.65276 21.0419 8.98979H10.9589C10.9589 7.65276 11.4901 6.3705 12.4355 5.42507ZM8.56804 8.98979C8.56809 7.01867 9.35113 5.1283 10.7449 3.7345C12.1388 2.34067 14.0292 1.55762 16.0004 1.55762C17.9716 1.55762 19.862 2.34067 21.2558 3.7345C22.6496 5.1283 23.4327 7.01867 23.4327 8.98979H28.8221C29.3334 8.98979 29.7624 9.37548 29.8165 9.88391L31.9944 30.3369C32.0573 30.9277 31.5942 31.4428 31 31.4428H1.00011C0.405929 31.4428 -0.0571828 30.9277 0.0057309 30.3369L2.18359 9.88391C2.23773 9.37548 2.66667 8.98979 3.17797 8.98979H8.56804Z" fill="#111827"/>
</svg>
