<svg width="33" height="33" viewBox="0 0 33 33" fill="none" xmlns="http://www.w3.org/2000/svg">
<path fill-rule="evenodd" clip-rule="evenodd" d="M11.5293 14.7657L10.0573 14.7315C8.42356 14.7315 7.09912 16.0559 7.09912 17.6897V18.4293C7.09912 23.9376 10.5055 28.783 16.9599 28.783C22.9931 28.783 26.8206 24.4745 26.8206 18.9662V14.9782C26.8206 14.2001 26.4601 13.5062 25.8969 13.0544C25.5699 12.8893 25.2003 12.7964 24.809 12.7964C23.4733 12.7964 22.3906 13.8791 22.3906 15.2147V16.4571C22.3906 16.7333 22.1668 16.9571 21.8906 16.9571C21.8679 16.9571 21.8456 16.9556 21.8237 16.9527C21.579 16.9201 21.3903 16.7106 21.3903 16.4571V13.3185C21.3903 12.2331 20.5105 11.3533 19.4251 11.3533C18.3398 11.3533 17.46 12.2331 17.46 13.3185V16.4571C17.46 16.7332 17.2361 16.9571 16.96 16.9571C16.6838 16.9571 16.46 16.7332 16.46 16.4571V15.5733L16.4597 15.5562V7.24815C16.4597 6.1628 15.5798 5.28296 14.4945 5.28296C13.4091 5.28296 12.5293 6.1628 12.5293 7.24815V18.4291C12.5293 18.7052 12.3054 18.9291 12.0293 18.9291C11.7532 18.9291 11.5293 18.7052 11.5293 18.4291V14.7657Z" fill="#1C1B1F"/>
</svg>
