<svg width="32" height="33" viewBox="0 0 32 33" fill="none" xmlns="http://www.w3.org/2000/svg">
<path fill-rule="evenodd" clip-rule="evenodd" d="M14.4646 16.1481L14.4486 16.1478L14.4338 16.148C14.1577 16.148 13.9338 15.9242 13.9338 15.648V5.61655C13.9338 5.44993 13.9443 5.28576 13.9646 5.12467V3.01023C13.9646 1.62454 12.8413 0.501221 11.4556 0.501221C10.0699 0.501221 8.94661 1.62454 8.94661 3.01023V15.6481C8.94661 15.6481 8.94661 15.6482 8.94661 15.6482H11.9023L8.94661 15.6482C8.94655 15.9243 8.72271 16.1481 8.44661 16.1481C8.17047 16.1481 7.94661 15.9242 7.94661 15.6481V15.1775C7.94253 15.1518 7.94041 15.1254 7.94041 15.0985V7.59361C7.94041 6.67004 7.53077 5.84215 6.88327 5.28171C6.45414 5.04611 5.96134 4.91211 5.43723 4.91211C3.7754 4.91211 2.42822 6.25929 2.42822 7.92112V20.6793C2.42822 27.2069 7.77143 32.4986 14.3626 32.4986C18.9361 32.4986 22.9087 29.9508 24.9123 26.2102L29.2438 18.0848C29.9977 16.6038 29.4083 14.7921 27.9273 14.0382C26.4463 13.2843 24.6346 13.8737 23.8807 15.3547L21.427 20.1307C21.3294 20.3208 21.1545 20.4051 20.9816 20.4029C20.9412 20.4134 20.8988 20.4191 20.8551 20.4191C19.6316 20.4191 18.4884 20.9599 17.6468 21.7655C16.8 22.576 16.3042 23.6091 16.3042 24.5443C16.3042 24.8204 16.0803 25.0443 15.8042 25.0443C15.528 25.0443 15.3042 24.8204 15.3042 24.5443C15.3042 23.2731 15.9623 21.9936 16.9553 21.0431C17.8711 20.1664 19.1104 19.5312 20.4823 19.4325V5.79557C20.4823 4.13374 19.1351 2.78656 17.4733 2.78656C17.3784 2.78656 17.2845 2.79095 17.1918 2.79955C16.0347 3.0561 15.139 4.00734 14.9646 5.19319V15.6481C14.9646 15.9242 14.7408 16.1481 14.4646 16.1481Z" fill="#111827"/>
</svg>
