<svg width="33" height="33" viewBox="0 0 33 33" fill="none" xmlns="http://www.w3.org/2000/svg">
<path fill-rule="evenodd" clip-rule="evenodd" d="M15.96 5.2829H14.1831C13.6308 5.2829 13.1831 4.83518 13.1831 4.2829C13.1831 3.73061 13.6308 3.2829 14.1831 3.2829H16.96H23.6307C24.1829 3.2829 24.6307 3.73061 24.6307 4.2829V6.65278C24.6307 7.20506 24.1829 7.65278 23.6307 7.65278C23.0784 7.65278 22.6307 7.20506 22.6307 6.65278V5.2829H17.96V9.04683V9.04684H21.7306C22.2829 9.04684 22.7306 9.49456 22.7306 10.0468V13.8558H25.5779C26.1301 13.8558 26.5779 14.3035 26.5779 14.8558V27.2829C26.5779 27.8352 26.1301 28.2829 25.5779 28.2829H8.3418C7.78951 28.2829 7.3418 27.8352 7.3418 27.2829V14.8558C7.3418 14.3035 7.78951 13.8558 8.3418 13.8558H11.189V10.0468C11.189 9.49456 11.6367 9.04684 12.189 9.04684H15.96V9.04683V5.2829Z" fill="#1C1B1F"/>
</svg>
