<svg width="33" height="33" viewBox="0 0 33 33" fill="none" xmlns="http://www.w3.org/2000/svg">
<path fill-rule="evenodd" clip-rule="evenodd" d="M18.1176 16.5795L18.13 16.5794L18.1409 16.5795C18.4171 16.5795 18.6409 16.3556 18.6409 16.0795V8.51678C18.6409 8.3885 18.633 8.26207 18.6176 8.13796V6.55187C18.6176 5.57516 19.4094 4.78338 20.3861 4.78338C21.3628 4.78338 22.1546 5.57516 22.1546 6.55187V16.0795C22.1546 16.0796 22.1546 16.0796 22.1546 16.0796C22.1547 16.3557 22.3785 16.5795 22.6546 16.5795C22.9308 16.5795 23.1546 16.3557 23.1546 16.0795V15.7343C23.1577 15.7117 23.1594 15.6887 23.1594 15.6652V10.0073C23.1594 9.15182 23.6518 8.41137 24.3688 8.054C24.5463 8.00938 24.7321 7.98569 24.9235 7.98569C26.1763 7.98569 27.192 9.00133 27.192 10.2542V19.8726C27.192 24.7937 23.1637 28.7831 18.1946 28.7831C14.7467 28.7831 11.7517 26.8624 10.2412 24.0423L6.97568 17.9166C6.40732 16.8001 6.85169 15.4342 7.9682 14.8658C9.08472 14.2975 10.4506 14.7418 11.0189 15.8583L12.6363 19.0064C12.7807 19.2875 13.0939 19.3374 13.3202 19.218C14.2636 19.2743 15.1402 19.7097 15.7986 20.3399C16.5101 21.0211 16.9212 21.8842 16.9212 22.6572C16.9212 22.9333 17.145 23.1572 17.4212 23.1572C17.6973 23.1572 17.9212 22.9333 17.9212 22.6572C17.9212 21.5482 17.3478 20.4386 16.4901 19.6175C15.7306 18.8906 14.7126 18.3543 13.581 18.2362V8.65173C13.581 7.70849 14.1567 6.89971 14.9759 6.55757C15.1694 6.4971 15.3752 6.46452 15.5887 6.46452C16.6167 6.46452 17.4682 7.22038 17.6176 8.20666V16.0795C17.6176 16.3557 17.8415 16.5795 18.1176 16.5795Z" fill="#1C1B1F"/>
</svg>
