<svg width="32" height="32" viewBox="0 0 32 32" fill="none" xmlns="http://www.w3.org/2000/svg">
<path fill-rule="evenodd" clip-rule="evenodd" d="M12.5715 4.9301C13.5165 3.98508 14.5499 3.45416 15.8864 3.45416C17.2228 3.45416 18.5046 3.98508 19.4496 4.9301C20.3946 5.87511 20.9255 7.15682 20.9255 8.49326H11.0955C11.0955 7.15682 11.6264 5.87511 12.5715 4.9301ZM10.8818 8.49334L8.88177 8.49334V13.4806C8.88177 14.0329 9.32948 14.4806 9.88177 14.4806C10.4341 14.4806 10.8818 14.0329 10.8818 13.4806V8.49334ZM8.70581 8.49326C8.70583 6.52303 9.48851 4.63349 10.8817 3.24032C12.2749 1.84714 13.9161 1.06445 15.8864 1.06445C17.8566 1.06445 19.7462 1.84714 21.1394 3.24032C22.5325 4.63349 23.3152 6.52303 23.3152 8.49326H28.8158C29.3271 8.49326 29.756 8.87895 29.8102 9.38738L31.9869 29.8299C32.0498 30.4207 31.5867 30.9358 30.9926 30.9358H1.00768C0.413494 30.9358 -0.0496145 30.4207 0.0132993 29.8299L2.19005 9.38738C2.24418 8.87895 2.67313 8.49326 3.18443 8.49326H8.70581ZM23.1205 8.49334H21.1205V13.4806C21.1205 14.0329 21.5682 14.4806 22.1205 14.4806C22.6728 14.4806 23.1205 14.0329 23.1205 13.4806V8.49334Z" fill="#111827"/>
</svg>
