<svg width="33" height="33" viewBox="0 0 33 33" fill="none" xmlns="http://www.w3.org/2000/svg">
<path fill-rule="evenodd" clip-rule="evenodd" d="M22.4784 3.81704C23.0119 3.95998 23.3285 4.50832 23.1855 5.04178L22.7625 6.62057C22.6195 7.15403 22.0712 7.47061 21.5377 7.32767C21.0043 7.18473 20.6877 6.63639 20.8306 6.10293L21.2537 4.52414C21.3966 3.99068 21.9449 3.6741 22.4784 3.81704ZM25.8804 5.40314C26.3328 5.71992 26.4427 6.34347 26.126 6.79587L25.1885 8.13476C24.8717 8.58716 24.2481 8.69711 23.7957 8.38033C23.3433 8.06355 23.2334 7.44001 23.5502 6.9876L24.4877 5.64872C24.8044 5.19631 25.428 5.08636 25.8804 5.40314ZM28.2886 9.44977C28.741 9.13299 28.851 8.50945 28.5342 8.05704C28.2174 7.60464 27.5939 7.49469 27.1415 7.81147L25.8026 8.74897C25.3502 9.06574 25.2402 9.68929 25.557 10.1417C25.8738 10.5941 26.4973 10.704 26.9497 10.3873L28.2886 9.44977ZM10.392 12.8645C10.1666 12.4742 9.66749 12.3405 9.27717 12.5658C8.88684 12.7912 8.7531 13.2903 8.97846 13.6806L12.7922 20.2863C12.8629 20.4087 12.9048 20.5399 12.9199 20.6719C12.964 21.0558 12.7822 21.4471 12.4262 21.6526C11.948 21.9287 11.3364 21.7649 11.0602 21.2866L8.72838 17.2477C8.50303 16.8574 8.00392 16.7237 7.61359 16.949C7.22326 17.1744 7.08953 17.6735 7.31488 18.0638L11.165 24.7324C12.8542 27.6581 16.6289 28.6602 19.6037 26.9427C21.6651 25.7525 22.7905 23.5732 22.7208 21.3711L22.7207 21.37L22.5332 15.8291C22.5055 15.3827 22.1232 15.0411 21.6756 15.0648C21.2256 15.0885 20.88 15.4726 20.9037 15.9227L20.9039 15.9264L20.9039 15.9264L21.041 18.722C21.1134 20.1983 19.1532 20.7754 18.4142 19.4953L14.3781 12.5045C14.1527 12.1142 13.6536 11.9805 13.2633 12.2058C12.877 12.4288 12.742 12.9198 12.9575 13.3082L15.9378 18.4702C16.0128 18.6001 16.0553 18.7398 16.0679 18.88C16.1019 19.256 15.9203 19.6353 15.5718 19.8365C15.0935 20.1126 14.4819 19.9488 14.2058 19.4705L11.2325 14.3206L11.2194 14.2977L10.392 12.8645ZM7.68296 9.5553L8.45374 10.7399C8.39425 10.7689 8.33536 10.8002 8.27717 10.8338C6.93025 11.6114 6.46877 13.3337 7.24641 14.6806L7.3805 14.9129C7.11771 14.9744 6.8594 15.075 6.61359 15.217C5.26668 15.9946 4.80519 17.7169 5.58283 19.0638L9.43293 25.7324C11.6835 29.6305 16.6882 30.9353 20.6037 28.6747C23.323 27.1048 24.8127 24.2236 24.7197 21.3063L24.7196 21.3044L24.5317 15.7501L24.5308 15.7313C24.4983 15.1152 24.2702 14.556 23.9098 14.1104L23.7835 10.8741C23.7284 9.84345 23.0186 9.13471 21.9739 9.18911C20.9293 9.24352 20.1271 10.1231 20.1822 11.1538L20.2963 13.4485C19.978 13.6351 19.7005 13.8821 19.4787 14.1729L15.3208 7.06769C14.7978 6.17386 13.6393 5.86761 12.7334 6.38366C11.8274 6.89972 11.517 8.04265 12.0401 8.93647L12.7896 10.2375C12.7064 10.265 12.6238 10.2967 12.5423 10.3325L11.0846 7.63638C10.5454 6.70232 9.35099 6.38229 8.41694 6.92157C7.49605 7.45325 7.16978 8.62397 7.68296 9.5553Z" fill="#1C1B1F"/>
</svg>
