<svg width="32" height="32" viewBox="0 0 32 32" fill="none" xmlns="http://www.w3.org/2000/svg">
<path fill-rule="evenodd" clip-rule="evenodd" d="M15.0005 2.00015H12.4136C11.8613 2.00015 11.4136 1.55244 11.4136 1.00015C11.4136 0.447868 11.8613 0.000152588 12.4136 0.000152588H16.0005H24.6166C25.1689 0.000152588 25.6166 0.447868 25.6166 1.00015V4.06123C25.6166 4.61351 25.1689 5.06123 24.6166 5.06123C24.0643 5.06123 23.6166 4.61351 23.6166 4.06123V2.00015H17.0005V7.15352V7.15352H22.4541C23.0064 7.15352 23.4541 7.60124 23.4541 8.15352V13.3651H27.4235C27.9758 13.3651 28.4235 13.8128 28.4235 14.3651V30.9999C28.4235 31.5521 27.9758 31.9999 27.4235 31.9999H4.57715C4.02486 31.9999 3.57715 31.5522 3.57715 30.9999V14.3651C3.57715 13.8128 4.02486 13.3651 4.57715 13.3651H8.54629V8.15352C8.54629 7.60124 8.99401 7.15352 9.54629 7.15352H15.0005V7.15352V2.00015Z" fill="#111827"/>
</svg>
