<svg width="33" height="33" viewBox="0 0 33 33" fill="none" xmlns="http://www.w3.org/2000/svg">
<path fill-rule="evenodd" clip-rule="evenodd" d="M13.9782 6.5182C14.7691 5.72729 15.8418 5.28296 16.9603 5.28296C18.0789 5.28296 19.1516 5.72729 19.9425 6.5182C20.7334 7.30912 21.1777 8.38183 21.1777 9.50035C21.1777 9.50036 21.1777 9.50036 21.1777 9.50037H12.743C12.743 9.50036 12.743 9.50036 12.743 9.50035C12.743 8.38183 13.1873 7.30912 13.9782 6.5182ZM10.743 9.50037C10.743 9.50036 10.743 9.50036 10.743 9.50035C10.743 7.8514 11.398 6.26998 12.564 5.10399C13.73 3.938 15.3114 3.28296 16.9603 3.28296C18.6093 3.28296 20.1907 3.938 21.3567 5.10399C22.5227 6.26998 23.1777 7.8514 23.1777 9.50035C23.1777 9.50036 23.1777 9.50036 23.1777 9.50037H27.5393C28.0506 9.50037 28.4796 9.88606 28.5337 10.3945L30.3207 27.1771C30.3836 27.7679 29.9205 28.283 29.3264 28.283H4.5941C3.99992 28.283 3.53681 27.7679 3.59973 27.1771L5.38676 10.3945C5.4409 9.88606 5.86984 9.50037 6.38114 9.50037H10.743Z" fill="#1C1B1F"/>
</svg>
