<svg width="32" height="33" viewBox="0 0 32 33" fill="none" xmlns="http://www.w3.org/2000/svg">
<path fill-rule="evenodd" clip-rule="evenodd" d="M8.82409 14.6333C8.34276 13.9475 7.55327 13.493 6.65401 13.4721C4.44179 13.4721 2.64844 15.2655 2.64844 17.4777V18.4791C2.64844 25.9376 7.26084 32.4985 16.0004 32.4985C24.1696 32.4985 29.3523 26.6646 29.3523 19.2061V13.8062C29.3523 12.4449 28.5374 11.274 27.3688 10.7545C27.1303 10.7024 26.8826 10.6749 26.6284 10.6749C24.7222 10.6749 23.1768 12.2202 23.1768 14.1265V15.8088C23.1768 16.0849 22.953 16.3088 22.6768 16.3088C22.6283 16.3088 22.5813 16.3018 22.5369 16.2889C22.3288 16.2285 22.1767 16.0364 22.1767 15.8087V11.5589C22.1767 9.99149 20.9061 8.72088 19.3387 8.72088C17.7713 8.72088 16.5007 9.99149 16.5007 11.5589V15.8087C16.5007 16.0849 16.2769 16.3087 16.0007 16.3087C15.7246 16.3087 15.5007 16.0849 15.5007 15.8087V14.6147C15.5003 14.6061 15.5 14.5975 15.5 14.5888V3.33932C15.5 1.77195 14.2294 0.501343 12.6621 0.501343C11.0947 0.501343 9.82409 1.77195 9.82409 3.33932V18.4788C9.82409 18.7549 9.60023 18.9788 9.32409 18.9788C9.04795 18.9788 8.82409 18.7549 8.82409 18.4788V14.6333Z" fill="#111827"/>
</svg>
