<svg width="32" height="33" viewBox="0 0 32 33" fill="none" xmlns="http://www.w3.org/2000/svg">
<path fill-rule="evenodd" clip-rule="evenodd" d="M16.5 13.3371V13.2348L16.5 13.2324V4.24999C16.5 2.317 18.067 0.75 20 0.75C21.933 0.75 23.5 2.317 23.5 4.25V5.67924C23.3913 6.07425 23.3333 6.49023 23.3333 6.91975V13.2754C23.3333 13.6095 23.5792 13.8863 23.8999 13.9346C23.9322 13.9412 23.9657 13.9446 24 13.9446C24.0343 13.9446 24.0678 13.9412 24.1002 13.9346C24.4208 13.8862 24.6666 13.6095 24.6666 13.2754V6.91975C24.6666 5.07881 26.159 3.58642 28 3.58642C28.8207 3.58642 29.6007 3.74398 30.2521 4.14376C30.6395 4.40817 30.9781 4.73892 31.2515 5.11964C31.5585 5.58688 31.7885 6.17903 31.9169 6.91975L32.0001 9.62685V16.3212C32.0001 25.259 25.7895 32.25 16 32.25C5.52719 32.25 0 24.3878 0 15.4501V14.2501C0 11.5991 2.14904 9.45004 4.80001 9.45004H7.5V15.5833C7.5 15.8594 7.72386 16.0833 8 16.0833C8.27614 16.0833 8.5 15.8594 8.5 15.5833V4.67114C8.5 2.73815 10.067 1.17114 12 1.17114C13.933 1.17114 15.5 2.73814 15.5 4.67114V13.3371C15.5 13.6132 15.7239 13.8371 16 13.8371C16.2761 13.8371 16.5 13.6132 16.5 13.3371Z" fill="#111827"/>
</svg>
