<svg width="33" height="33" viewBox="0 0 33 33" fill="none" xmlns="http://www.w3.org/2000/svg">
<path d="M16.8649 5.28296C15.7464 5.28296 14.8815 5.72729 14.0906 6.5182C13.2997 7.30912 12.8553 8.38183 12.8553 9.50035L10.8553 9.50035C10.8553 7.8514 11.5104 6.26998 12.6764 5.10399C13.8424 3.938 15.2159 3.28296 16.8649 3.28296C18.5139 3.28296 20.0953 3.938 21.2613 5.10399C22.4272 6.26998 23.0823 7.8514 23.0823 9.50035H21.0823C21.0823 8.38183 20.638 7.30912 19.847 6.5182C19.0561 5.72729 17.9834 5.28296 16.8649 5.28296Z" fill="#1C1B1F"/>
<path fill-rule="evenodd" clip-rule="evenodd" d="M10.8396 9.50049H6.38114C5.86984 9.50049 5.4409 9.88618 5.38676 10.3946L3.59973 27.1772C3.53681 27.7681 3.99992 28.2831 4.5941 28.2831H29.3264C29.9205 28.2831 30.3836 27.7681 30.3207 27.1772L28.5337 10.3946C28.4796 9.88618 28.0506 9.50049 27.5393 9.50049H23.0826V13.6744C23.0826 14.2267 22.6348 14.6744 22.0826 14.6744C21.5303 14.6744 21.0826 14.2267 21.0826 13.6744V9.50049H12.8396V13.6744C12.8396 14.2267 12.3919 14.6744 11.8396 14.6744C11.2874 14.6744 10.8396 14.2267 10.8396 13.6744V9.50049Z" fill="#1C1B1F"/>
</svg>
