<svg width="33" height="33" viewBox="0 0 33 33" fill="none" xmlns="http://www.w3.org/2000/svg">
<path fill-rule="evenodd" clip-rule="evenodd" d="M16.4717 8.03296C16.4717 6.65225 15.3524 5.53296 13.9717 5.53296C12.591 5.53296 11.4717 6.65225 11.4717 8.03296V11.033V13.033C11.4717 14.4137 12.591 15.533 13.9717 15.533C15.3524 15.533 16.4717 14.4137 16.4717 13.033V8.03296ZM17.4717 14.033C17.4717 15.4137 18.591 16.533 19.9717 16.533H21.7822H25.9717C27.3524 16.533 28.4717 15.4137 28.4717 14.033C28.4717 12.6522 27.3524 11.533 25.9717 11.533L19.9717 11.533C18.591 11.533 17.4717 12.6522 17.4717 14.033ZM22.4717 8.03296V10.533L19.9717 10.533C18.9923 10.533 18.1069 10.9352 17.4717 11.5835V8.03296C17.4717 6.65225 18.591 5.53296 19.9717 5.53296C21.3524 5.53296 22.4717 6.65225 22.4717 8.03296ZM10.4717 11.033V13.033C10.4717 14.4137 9.35239 15.533 7.97168 15.533C6.59097 15.533 5.47168 14.4137 5.47168 13.033V11.033C5.47168 9.65225 6.59097 8.53296 7.97168 8.53296C9.35239 8.53296 10.4717 9.65225 10.4717 11.033ZM13.9717 16.533C12.6985 16.533 11.5841 15.8532 10.9717 14.8368C10.3592 15.8532 9.24484 16.533 7.97168 16.533C6.69959 16.533 5.586 15.8543 4.97322 14.8393C4.9722 14.9093 4.97168 14.9795 4.97168 15.0498C4.97168 22.2202 10.3443 28.0331 16.9717 28.0331C23.3426 28.0331 28.554 22.6614 28.9478 15.8758C28.3305 16.8705 27.2285 17.533 25.9717 17.533H21.7822C19.4016 17.533 17.4717 19.4628 17.4717 21.8435C17.4717 22.1196 17.2478 22.3435 16.9717 22.3435C16.6955 22.3435 16.4717 22.1196 16.4717 21.8435C16.4717 19.9657 17.4463 18.3156 18.9172 17.3713C17.8845 17.0454 17.0586 16.2536 16.6863 15.2424C16.0445 16.03 15.0668 16.533 13.9717 16.533Z" fill="#1C1B1F"/>
</svg>
