<svg width="32" height="33" viewBox="0 0 32 33" fill="none" xmlns="http://www.w3.org/2000/svg">
<path fill-rule="evenodd" clip-rule="evenodd" d="M7.02877 4.94486C6.95127 4.94486 6.87445 4.94781 6.79843 4.95361C5.3744 5.19158 4.28906 6.42969 4.28906 7.9213V20.6793C4.28906 27.2069 9.63222 32.4985 16.2233 32.4985C20.7967 32.4985 25.073 29.1667 26.3895 26.4961C27.7039 23.8297 27.706 18.103 27.706 18.0849C27.706 17.8919 27.7074 17.7061 27.7088 17.5272V17.5269V17.5266V17.5264V17.5261C27.7224 15.8013 27.7309 14.7211 26.3895 14.0383C25.2645 13.4656 23.9486 13.6681 23.0506 14.4477V17.3495C23.0506 17.6257 22.8267 17.8495 22.5506 17.8495C22.2745 17.8495 22.0506 17.6257 22.0506 17.3495V5.23809C22.0506 4.73122 21.9003 4.25945 21.6418 3.86493C21.0899 3.20589 20.2609 2.78679 19.334 2.78679C19.1696 2.78679 19.0083 2.79997 18.8511 2.82532C17.8112 3.12237 17.0473 4.07354 17.0329 5.20538V14.4444C17.0329 14.4493 17.0328 14.4542 17.0326 14.459V14.8175C17.0326 15.0937 16.8088 15.3175 16.5326 15.3175C16.2565 15.3175 16.0326 15.0937 16.0326 14.8175V5.23809C16.0326 5.22518 16.0327 5.21228 16.0329 5.1994V3.01032C16.0329 1.62465 14.9095 0.501343 13.5239 0.501343C12.1382 0.501343 11.0149 1.62465 11.0149 3.01032V7.89L11.0151 7.93119V14.4445C11.0151 14.7206 10.7912 14.9445 10.5151 14.9445C10.4687 14.9445 10.4237 14.9382 10.3811 14.9263C10.1699 14.8678 10.0149 14.6742 10.0149 14.4444V7.89554C9.9958 6.26266 8.66618 4.94486 7.02877 4.94486ZM16.0002 18.1676C12.4992 18.1676 10.386 20.8356 9.6188 22.0201L9.61879 22.0201L9.61653 22.0236C9.45572 22.2765 9.37031 22.57 9.37031 22.8697C9.37031 23.1694 9.45572 23.4629 9.61653 23.7157L9.61652 23.7158L9.6188 23.7193C10.386 24.9038 12.4992 27.5718 16.0002 27.5718C19.5011 27.5718 21.6143 24.9038 22.3815 23.7193L22.3838 23.7157C22.5446 23.4629 22.63 23.1694 22.63 22.8697C22.63 22.57 22.5446 22.2765 22.3838 22.0236L22.3838 22.0236L22.3815 22.0201C21.6143 20.8356 19.5011 18.1676 16.0002 18.1676ZM10.3703 22.8697C10.3703 22.7606 10.4012 22.6539 10.4594 22.5617C11.1901 21.4343 13.0422 19.1676 16.0002 19.1676C18.9582 19.1676 20.8103 21.4343 21.5409 22.5617C21.5991 22.6539 21.63 22.7606 21.63 22.8697C21.63 22.9787 21.5991 23.0855 21.5409 23.1776C20.8103 24.305 18.9582 26.5718 16.0002 26.5718C13.0422 26.5718 11.1901 24.305 10.4594 23.1776C10.4012 23.0855 10.3703 22.9787 10.3703 22.8697ZM16.0004 24.4454C16.8707 24.4454 17.5762 23.7399 17.5762 22.8696C17.5762 21.9994 16.8707 21.2938 16.0004 21.2938C15.1302 21.2938 14.4247 21.9994 14.4247 22.8696C14.4247 23.7399 15.1302 24.4454 16.0004 24.4454Z" fill="#111827"/>
</svg>
