<svg width="32" height="33" viewBox="0 0 32 33" fill="none" xmlns="http://www.w3.org/2000/svg">
<path fill-rule="evenodd" clip-rule="evenodd" d="M15.5072 4.90535C15.5072 2.97016 13.9384 1.40137 12.0032 1.40137C10.068 1.40137 8.49918 2.97016 8.49918 4.90535V8.90934V11.5787C8.49918 13.5139 10.068 15.0827 12.0032 15.0827C13.9384 15.0827 15.5072 13.5139 15.5072 11.5787V4.90535ZM16.5072 12.9133C16.5072 14.8485 18.0759 16.4173 20.0111 16.4173L22.4276 16.4173L28.0191 16.4173C29.9543 16.4173 31.5231 14.8485 31.5231 12.9133C31.5231 10.9781 29.9543 9.40934 28.0191 9.40934H20.0111C18.0759 9.40934 16.5072 10.9781 16.5072 12.9133ZM23.5151 4.90535V8.40934L20.0111 8.40934C18.5958 8.40934 17.3328 9.06222 16.5072 10.0832V4.90535C16.5072 2.97015 18.0759 1.40137 20.0111 1.40137C21.9463 1.40137 23.5151 2.97015 23.5151 4.90535ZM7.49918 8.90934V11.5787C7.49918 13.5139 5.9304 15.0827 3.9952 15.0827C2.06 15.0827 0.491211 13.5139 0.491211 11.5787V8.90934C0.491211 6.97414 2.06 5.40535 3.9952 5.40535C5.9304 5.40535 7.49918 6.97414 7.49918 8.90934ZM12.0032 16.0827C10.2598 16.0827 8.7478 15.0922 7.99918 13.6432C7.25056 15.0922 5.73855 16.0827 3.9952 16.0827C2.25934 16.0827 0.752832 15.1007 0.000903334 13.6619C-0.0055406 13.8639 -0.00878906 14.0668 -0.00878906 14.2705C-0.00878906 23.8406 7.16179 31.5987 16.0072 31.5987C24.6251 31.5987 31.6532 24.2344 32.009 15.005C31.2556 16.4392 29.7516 17.4173 28.0191 17.4173H22.4276C19.1578 17.4173 16.5072 20.068 16.5072 23.3377C16.5072 23.6139 16.2833 23.8377 16.0072 23.8377C15.731 23.8377 15.5072 23.6139 15.5072 23.3377C15.5072 20.7519 16.9254 18.4973 19.0265 17.3093C17.4222 16.9516 16.1406 15.738 15.6856 14.1727C14.8702 15.3281 13.5248 16.0827 12.0032 16.0827Z" fill="#111827"/>
</svg>
