<svg width="33" height="33" viewBox="0 0 33 33" fill="none" xmlns="http://www.w3.org/2000/svg">
<path fill-rule="evenodd" clip-rule="evenodd" d="M15.8023 16.5795L15.79 16.5794L15.779 16.5795C15.5029 16.5795 15.279 16.3556 15.279 16.0795V8.51678C15.279 8.3885 15.2869 8.26207 15.3023 8.13796V6.55187C15.3023 5.57516 14.5105 4.78338 13.5338 4.78338C12.5571 4.78338 11.7653 5.57516 11.7653 6.55187V16.0795C11.7653 16.0796 11.7653 16.0796 11.7653 16.0796C11.7652 16.3557 11.5414 16.5795 11.2653 16.5795C10.9892 16.5795 10.7653 16.3557 10.7653 16.0795V15.7343C10.7622 15.7117 10.7606 15.6887 10.7606 15.6652V10.0073C10.7606 9.15182 10.2681 8.41137 9.55117 8.054C9.37365 8.00938 9.18782 7.98569 8.99645 7.98569C7.7436 7.98569 6.72796 9.00133 6.72796 10.2542V19.8726C6.72796 24.7937 10.7562 28.7831 15.7253 28.7831C19.1732 28.7831 22.1682 26.8624 23.6787 24.0423L26.9442 17.9166C27.5126 16.8001 27.0682 15.4342 25.9517 14.8658C24.8352 14.2975 23.4693 14.7418 22.901 15.8583L21.2836 19.0064C21.1392 19.2875 20.826 19.3374 20.5997 19.218C19.6563 19.2743 18.7797 19.7097 18.1213 20.3399C17.4098 21.0211 16.9987 21.8842 16.9987 22.6572C16.9987 22.9333 16.7749 23.1572 16.4987 23.1572C16.2226 23.1572 15.9987 22.9333 15.9987 22.6572C15.9987 21.5482 16.5721 20.4386 17.4298 19.6175C18.1893 18.8906 19.2073 18.3543 20.3389 18.2362V8.65173C20.3389 7.70849 19.7632 6.89971 18.9441 6.55757C18.7505 6.4971 18.5447 6.46452 18.3313 6.46452C17.3032 6.46452 16.4518 7.22038 16.3023 8.20666V16.0795C16.3023 16.3557 16.0784 16.5795 15.8023 16.5795Z" fill="#1C1B1F"/>
</svg>
