<svg width="33" height="33" viewBox="0 0 33 33" fill="none" xmlns="http://www.w3.org/2000/svg">
<path fill-rule="evenodd" clip-rule="evenodd" d="M27.649 7.70328C27.1605 7.40344 26.5755 7.28528 25.96 7.28528C24.5792 7.28528 23.46 8.40457 23.46 9.78528V14.552V14.679C23.46 14.9551 23.2361 15.179 22.96 15.179C22.6838 15.179 22.46 14.9551 22.46 14.679V14.552V9.78528V8.28296C22.46 6.90225 21.3407 5.78296 19.96 5.78296C18.5792 5.78296 17.46 6.90225 17.46 8.28296V14.5278V14.626C17.46 14.9022 17.2361 15.126 16.96 15.126C16.6838 15.126 16.46 14.9022 16.46 14.626V14.5278V8.28296C16.46 6.90225 15.3407 5.78296 13.96 5.78296C12.5792 5.78296 11.46 6.90225 11.46 8.28296V16.283C11.46 16.5591 11.2361 16.783 10.96 16.783C10.6838 16.783 10.46 16.5591 10.46 16.283V11.683H8.55997C6.57174 11.683 4.95996 13.2948 4.95996 15.283V16.183C4.95996 22.8863 9.10536 28.783 16.96 28.783C24.3021 28.783 28.96 23.5397 28.96 16.8364V11.8156L28.8977 9.78528C28.8014 9.22974 28.6289 8.78563 28.3986 8.4352C28.1936 8.14965 27.9396 7.90159 27.649 7.70328ZM19.9742 4.78296C20.0317 4.78296 20.0888 4.78458 20.1455 4.78779C20.087 4.78474 20.0281 4.78311 19.9689 4.78296L19.9742 4.78296Z" fill="#1C1B1F"/>
</svg>
