<svg width="32" height="33" viewBox="0 0 32 33" fill="none" xmlns="http://www.w3.org/2000/svg">
<path fill-rule="evenodd" clip-rule="evenodd" d="M17.5429 16.0616L17.5586 16.0614L17.5736 16.0616C17.8497 16.0616 18.0736 15.8378 18.0736 15.5616V5.47778C18.0736 5.31137 18.0631 5.14739 18.0429 4.98645V2.85784C18.0429 1.46348 19.1733 0.33313 20.5676 0.33313C21.962 0.33313 23.0924 1.46348 23.0924 2.85784V15.5616C23.0924 15.8378 23.3162 16.0616 23.5924 16.0616C23.8685 16.0616 24.0924 15.8378 24.0924 15.5616V15.0871C24.0963 15.0618 24.0984 15.0357 24.0984 15.0092V7.46518C24.0984 6.54067 24.5064 5.71145 25.1521 5.14776C25.5863 4.90676 26.0861 4.76952 26.6179 4.76952C28.2884 4.76952 29.6426 6.12373 29.6426 7.79424V20.619C29.6426 27.1807 24.2715 32.5 17.6459 32.5C13.0486 32.5 9.05524 29.9389 7.04117 26.1788L2.68703 18.0109C1.9292 16.5222 2.5217 14.701 4.01041 13.9432C5.49913 13.1854 7.32031 13.7779 8.07814 15.2666L10.5496 20.0771C10.6541 20.2806 10.8472 20.363 11.0317 20.3476C11.0827 20.3651 11.1374 20.3746 11.1944 20.3746C12.4557 20.3746 13.6337 20.9321 14.5007 21.762C15.3729 22.5969 15.8846 23.6619 15.8846 24.6274C15.8846 24.9036 16.1085 25.1274 16.3846 25.1274C16.6607 25.1274 16.8846 24.9036 16.8846 24.6274C16.8846 23.3259 16.2105 22.0144 15.1922 21.0397C14.2348 20.1232 12.9331 19.4644 11.4943 19.3831V5.65759C11.4943 3.98709 12.8485 2.63288 14.519 2.63288C14.6206 2.63288 14.7211 2.63789 14.8202 2.64768C15.9763 2.91198 16.8694 3.86648 17.0429 5.05456V15.5616C17.0429 15.8378 17.2668 16.0616 17.5429 16.0616Z" fill="#111827"/>
</svg>
