<svg width="34" height="33" viewBox="0 0 34 33" fill="none" xmlns="http://www.w3.org/2000/svg">
<path fill-rule="evenodd" clip-rule="evenodd" d="M16.5072 4.90535C16.5072 2.97016 14.9384 1.40137 13.0032 1.40137C11.068 1.40137 9.49918 2.97016 9.49918 4.90535V8.90934V11.5787C9.49918 13.5139 11.068 15.0827 13.0032 15.0827C14.9384 15.0827 16.5072 13.5139 16.5072 11.5787V4.90535ZM17.5072 12.9133C17.5072 14.8485 19.0759 16.4173 21.0111 16.4173L23.4276 16.4173L29.0191 16.4173C30.9543 16.4173 32.5231 14.8485 32.5231 12.9133C32.5231 10.9781 30.9543 9.40934 29.0191 9.40934H21.0111C19.0759 9.40934 17.5072 10.9781 17.5072 12.9133ZM24.5151 4.90535V8.40934L21.0111 8.40934C19.5958 8.40934 18.3328 9.06222 17.5072 10.0832V4.90535C17.5072 2.97015 19.0759 1.40137 21.0111 1.40137C22.9463 1.40137 24.5151 2.97015 24.5151 4.90535ZM8.49918 8.90934V11.5787C8.49918 13.5139 6.9304 15.0827 4.9952 15.0827C3.06 15.0827 1.49121 13.5139 1.49121 11.5787V8.90934C1.49121 6.97414 3.06 5.40535 4.9952 5.40535C6.9304 5.40535 8.49918 6.97414 8.49918 8.90934ZM13.0032 16.0827C11.2598 16.0827 9.7478 15.0922 8.99918 13.6432C8.25056 15.0922 6.73855 16.0827 4.9952 16.0827C3.25934 16.0827 1.75283 15.1007 1.0009 13.6619C0.994459 13.8639 0.991211 14.0668 0.991211 14.2705C0.991211 23.8406 8.16179 31.5987 17.0072 31.5987C25.6251 31.5987 32.6532 24.2344 33.009 15.005C32.2556 16.4392 30.7516 17.4173 29.0191 17.4173H23.4276C20.1578 17.4173 17.5072 20.068 17.5072 23.3377C17.5072 23.6139 17.2833 23.8377 17.0072 23.8377C16.731 23.8377 16.5072 23.6139 16.5072 23.3377C16.5072 20.7519 17.9254 18.4973 20.0265 17.3093C18.4222 16.9516 17.1406 15.738 16.6856 14.1727C15.8702 15.3281 14.5248 16.0827 13.0032 16.0827Z" fill="#111827"/>
</svg>
