<svg width="32" height="35" viewBox="0 0 32 35" fill="none" xmlns="http://www.w3.org/2000/svg">
<path d="M8.95128 33.5C6.8752 32.0595 5.1446 30.1763 3.88428 27.9862" stroke="#111827" stroke-width="2" stroke-linecap="round" stroke-linejoin="round"/>
<path d="M23.4819 1.5C24.8795 1.49981 26.2524 1.8677 27.4626 2.56663C28.6728 3.26557 29.6775 4.27091 30.3758 5.48149" stroke="#111827" stroke-width="2" stroke-linecap="round" stroke-linejoin="round"/>
<path fill-rule="evenodd" clip-rule="evenodd" d="M3.66541 10.9052C3.47443 10.9679 3.287 11.0512 3.106 11.1557C1.68884 11.9739 1.20328 13.786 2.02148 15.2032L8.30297 26.083C11.5168 31.6496 18.6788 33.5315 24.2995 30.2864C28.1997 28.0346 30.333 23.906 30.2 19.7296L29.8932 10.6678C29.807 9.0337 28.4123 7.7789 26.7782 7.86516C25.1441 7.95142 23.8893 9.34608 23.9755 10.9802L24.233 16.2295C24.2452 16.4777 24.0954 16.6544 23.9066 16.7232C22.9342 17.2862 22.2725 18.2424 21.9724 19.272C21.6698 20.3099 21.7513 21.3603 22.1795 22.1019C22.3175 22.341 22.2356 22.6468 21.9965 22.7849C21.7573 22.9229 21.4515 22.841 21.3135 22.6019C20.7173 21.5693 20.6531 20.2244 21.0123 18.9922C21.3376 17.8763 22.0238 16.8022 23.0561 16.0805L16.371 4.50163C15.5528 3.08447 13.7407 2.59891 12.3235 3.41711C12.2611 3.45318 12.2004 3.49118 12.1416 3.53099C11.2479 4.3142 10.9346 5.58776 11.376 6.70128L16.5231 15.6163C16.6612 15.8555 16.5792 16.1613 16.3401 16.2994L16.331 16.3045L16.3216 16.3103L16.3139 16.3148C16.0747 16.4529 15.769 16.3709 15.6309 16.1318L10.6919 7.57719C10.6097 7.4349 10.5377 7.28952 10.4757 7.14191L9.43482 5.33911C8.75469 4.16109 7.24836 3.75747 6.07034 4.4376C4.89232 5.11773 4.4887 6.62406 5.16883 7.80208L7.33056 11.5463C7.37728 11.6162 7.42201 11.688 7.46464 11.7619L11.398 18.5746C11.3981 18.5749 11.3983 18.5751 11.3984 18.5753L14.0761 17.0294L11.3984 18.5753C11.5306 18.8052 11.4599 19.0963 11.2419 19.241C11.231 19.2485 11.2197 19.2556 11.2081 19.2623C10.9689 19.4004 10.6631 19.3185 10.525 19.0793L6.48254 12.0775C5.84654 11.1484 4.73047 10.7102 3.66541 10.9052Z" fill="#111827"/>
</svg>
