<svg width="32" height="33" viewBox="0 0 32 33" fill="none" xmlns="http://www.w3.org/2000/svg">
<path fill-rule="evenodd" clip-rule="evenodd" d="M22.8329 0.535177C23.3663 0.678119 23.6829 1.22646 23.54 1.75992L23.0112 3.73327C22.8683 4.26673 22.3199 4.58331 21.7865 4.44037C21.253 4.29743 20.9364 3.74909 21.0794 3.21563L21.6081 1.24228C21.7511 0.708817 22.2994 0.392235 22.8329 0.535177ZM27.0065 2.48096C27.4589 2.79773 27.5688 3.42128 27.2521 3.87368L26.0803 5.54718C25.7635 5.99958 25.14 6.10953 24.6875 5.79275C24.2351 5.47598 24.1252 4.85243 24.442 4.40002L25.6138 2.72653C25.9305 2.27413 26.5541 2.16418 27.0065 2.48096ZM30.0163 7.12958C30.4688 6.8128 30.5787 6.18925 30.2619 5.73685C29.9451 5.28444 29.3216 5.1745 28.8692 5.49127L27.1957 6.66307C26.7433 6.97984 26.6333 7.60339 26.9501 8.05579C27.2669 8.5082 27.8904 8.61815 28.3429 8.30137L30.0163 7.12958ZM8.00746 11.4774C7.65678 10.87 6.88008 10.6619 6.27268 11.0126C5.66527 11.3633 5.45715 12.14 5.80784 12.7474L10.5747 21.0039C10.8336 21.4523 10.7058 22.0179 10.2947 22.3143C10.2857 22.3208 10.2766 22.3272 10.2673 22.3334C10.2481 22.3463 10.2284 22.3587 10.2081 22.3704C9.72977 22.6465 9.11818 22.4827 8.84203 22.0044L5.92744 16.9561C5.57675 16.3487 4.80006 16.1406 4.19265 16.4913C3.58524 16.842 3.37713 17.6187 3.72782 18.2261L8.54011 26.5612C10.7216 30.3396 15.5934 31.63 19.4292 29.4154C22.088 27.8803 23.5402 25.0686 23.4501 22.2268L23.45 22.2257L23.2155 15.2962C23.1744 14.5997 22.5785 14.0662 21.8808 14.103C21.1804 14.14 20.6426 14.7377 20.6796 15.4381L20.6798 15.4419L20.8511 18.9361C20.9288 20.5194 18.8265 21.1383 18.0339 19.7655L12.989 11.0276C12.6384 10.4202 11.8617 10.2121 11.2543 10.5627C10.66 10.9058 10.4479 11.6567 10.7674 12.2578L14.5064 18.734C14.7696 19.1898 14.6331 19.7668 14.2056 20.059C14.1957 20.0657 14.1857 20.0723 14.1755 20.0788C14.1638 20.0862 14.1518 20.0934 14.1397 20.1004C13.6614 20.3766 13.0498 20.2127 12.7737 19.7344L9.05737 13.2975C9.0452 13.2764 9.03328 13.2553 9.02164 13.234L8.00746 11.4774ZM4.40466 7.46612L5.5056 9.15811C5.42703 9.1955 5.34933 9.2363 5.27267 9.28056C3.70868 10.1835 3.17282 12.1834 4.07579 13.7474L4.4212 14.3457C4.00042 14.3982 3.58296 14.5339 3.19265 14.7593C1.62866 15.6622 1.09279 17.6621 1.99577 19.2261L6.80806 27.5612C9.55093 32.312 15.6527 33.9051 20.4292 31.1475C23.7459 29.2326 25.5623 25.7189 25.449 22.162L25.4489 22.16L25.214 15.2177L25.2131 15.1988C25.1823 14.6137 24.9994 14.0726 24.7048 13.6119L24.5293 9.11445C24.4603 7.8262 23.5732 6.94033 22.2674 7.00834C20.9617 7.07634 19.9591 8.1758 20.028 9.46404L20.1847 12.6166C19.8376 12.8392 19.5362 13.1252 19.2961 13.4575C19.2656 13.4262 19.2377 13.3898 19.2133 13.3482L13.9517 4.35674C13.2979 3.23953 11.8499 2.85674 10.7176 3.50176C9.58518 4.14679 9.1972 5.57535 9.85098 6.69256L10.9154 8.54022C10.8084 8.5737 10.7024 8.61297 10.5977 8.65813L8.65648 5.06764C7.98243 3.90014 6.48956 3.50013 5.32207 4.17418C4.17104 4.83873 3.76324 6.30204 4.40466 7.46612Z" fill="#111827"/>
</svg>
