<svg width="32" height="33" viewBox="0 0 32 33" fill="none" xmlns="http://www.w3.org/2000/svg">
<path fill-rule="evenodd" clip-rule="evenodd" d="M4.90877 5.85519C5.04684 5.61604 5.35264 5.5341 5.59178 5.67217L9.68095 8.03306L15.4511 6.22124C15.822 6.10478 16.2236 6.13686 16.5713 6.31071L20.9377 8.49396H23.3825L26.729 6.56186C26.9681 6.42379 27.2739 6.50573 27.412 6.74488L31.9324 14.5745C32.0705 14.8137 31.9886 15.1195 31.7494 15.2575L27.8261 17.5227L27.7261 17.3493L21.1092 24.3729C20.7373 24.7676 20.1813 24.9309 19.6551 24.7999L12.0217 22.9C11.8182 22.8494 11.6276 22.7566 11.4621 22.6277L4.52515 17.2229L4.45222 17.3492L0.250571 14.9234C0.0114249 14.7854 -0.0705119 14.4796 0.0675592 14.2404L4.90877 5.85519ZM5.53479 15.4742L12.6077 20.9849L19.8541 22.7884L23.3511 19.0765L19.0001 15.9378L18.2263 16.7116C16.6642 18.2737 14.1315 18.2737 12.5694 16.7116L11.8158 15.958C11.2266 15.3688 11.2305 14.4124 11.8244 13.8281L16.8081 8.92471C16.8689 8.86493 16.9342 8.81084 17.0033 8.76277L15.8575 8.1899L8.38586 10.536L5.53479 15.4742ZM26.682 15.5409L23.7567 10.4741C23.6923 10.4871 23.6257 10.494 23.5575 10.494H18.0649L13.5864 14.9002L13.9836 15.2974C14.7647 16.0785 16.031 16.0785 16.8121 15.2974L17.8868 14.2226C18.4072 13.7023 19.2282 13.6363 19.8251 14.0668L24.7343 17.6083L26.682 15.5409ZM6.30989 22.0312C6.66931 21.6119 7.30061 21.5633 7.71994 21.9227L10.6665 24.4484L14.6625 25.4231C15.199 25.554 15.5279 26.095 15.397 26.6316C15.2662 27.1681 14.7251 27.497 14.1885 27.3661L10.0765 26.3631C9.8474 26.3073 9.63473 26.1982 9.45572 26.0447L6.41834 23.4412C5.99902 23.0818 5.95046 22.4505 6.30989 22.0312Z" fill="#111827"/>
</svg>
