<svg width="33" height="33" viewBox="0 0 33 33" fill="none" xmlns="http://www.w3.org/2000/svg">
<path fill-rule="evenodd" clip-rule="evenodd" d="M10.3344 8.56458C9.72056 8.56458 9.16896 8.83117 8.78909 9.25491C8.48974 9.63352 8.31104 10.1119 8.31104 10.6321V20.0542C8.31104 24.875 12.2571 28.783 17.1248 28.783C20.5024 28.783 23.6605 26.3224 24.6328 24.3501C25.6035 22.3809 25.6051 18.1515 25.6051 18.1382C25.6051 17.9955 25.6061 17.8582 25.6072 17.7261L25.6072 17.7255C25.6172 16.4517 25.6234 15.6539 24.6328 15.1496C23.8551 14.7537 22.9539 14.8594 22.2979 15.3468V17.5951C22.2979 17.8712 22.074 18.0951 21.7979 18.0951C21.5217 18.0951 21.2979 17.8712 21.2979 17.5951V8.65044C21.2979 7.69929 20.5268 6.92822 19.5756 6.92822C18.6304 6.92822 17.863 7.68976 17.8535 8.63277V15.4496C17.8535 15.4528 17.8535 15.4559 17.8534 15.4591V15.7251C17.8534 16.0013 17.6296 16.2251 17.3534 16.2251C17.0773 16.2251 16.8534 16.0013 16.8534 15.7251V8.65044C16.8534 8.64303 16.8535 8.63562 16.8535 8.62823V7.00517C16.8535 6.05402 16.0825 5.28296 15.1313 5.28296C14.1802 5.28296 13.4091 6.05402 13.4091 7.00517V10.6157L13.4092 10.6393V15.4496C13.4092 15.7257 13.1853 15.9496 12.9092 15.9496H12.9091C12.6329 15.9496 12.4091 15.7257 12.4091 15.4496V10.6199C12.3987 9.48302 11.4738 8.56458 10.3344 8.56458ZM16.9602 18.0685C14.3039 18.0685 12.7091 20.091 12.1376 20.9733L12.1376 20.9733L12.1354 20.9768C12.0033 21.1846 11.9331 21.4257 11.9331 21.6718C11.9331 21.918 12.0033 22.1591 12.1354 22.3668L12.1353 22.3669L12.1376 22.3704C12.7091 23.2527 14.3039 25.2752 16.9602 25.2752C19.6165 25.2752 21.2112 23.2527 21.7827 22.3704L21.7827 22.3704L21.785 22.3668C21.9171 22.1591 21.9872 21.918 21.9872 21.6718C21.9872 21.4257 21.9171 21.1846 21.785 20.9768L21.785 20.9768L21.7827 20.9733C21.2112 20.091 19.6165 18.0685 16.9602 18.0685ZM12.9331 21.6718C12.9331 21.6163 12.9488 21.5618 12.9783 21.5148C13.5133 20.6896 14.8469 19.0685 16.9602 19.0685C19.0734 19.0685 20.407 20.6896 20.942 21.5148C20.9716 21.5618 20.9872 21.6163 20.9872 21.6718C20.9872 21.7274 20.9716 21.7818 20.942 21.8289C20.407 22.6541 19.0734 24.2752 16.9602 24.2752C14.8469 24.2752 13.5133 22.6541 12.9783 21.8289C12.9488 21.7818 12.9331 21.7274 12.9331 21.6718ZM16.9601 22.8356C17.6029 22.8356 18.1239 22.3145 18.1239 21.6718C18.1239 21.0291 17.6029 20.5081 16.9601 20.5081C16.3174 20.5081 15.7964 21.0291 15.7964 21.6718C15.7964 22.3145 16.3174 22.8356 16.9601 22.8356Z" fill="#1C1B1F"/>
</svg>
