<svg width="33" height="33" viewBox="0 0 33 33" fill="none" xmlns="http://www.w3.org/2000/svg">
<path fill-rule="evenodd" clip-rule="evenodd" d="M7.75677 7.93294C7.89484 7.6938 8.20063 7.61186 8.43978 7.74993L11.4985 9.51588L16.3488 7.99289C16.7197 7.87643 17.1213 7.90851 17.469 8.08237L20.9748 9.8353H23.0783C23.1293 9.8353 23.1794 9.83912 23.2284 9.84649L25.5977 8.47859C25.8368 8.34052 26.1426 8.42246 26.2807 8.6616L29.8932 14.9186C30.0312 15.1578 29.9493 15.4636 29.7101 15.6016L26.647 17.3701L21.2407 23.1088C20.8688 23.5035 20.3128 23.6667 19.7866 23.5358L13.6037 21.9969C13.4002 21.9463 13.2095 21.8535 13.0441 21.7246L7.03751 17.0447C7.0372 17.0445 7.0369 17.0442 7.0366 17.044L4.06454 15.3281C3.82539 15.19 3.74345 14.8842 3.88152 14.6451L7.75677 7.93294ZM8.40618 15.5757L14.1896 20.0817L19.9856 21.5243L22.6361 18.7109L19.3641 16.3505L19.2228 16.4919C17.6607 18.054 15.128 18.054 13.5659 16.4919L13.3967 16.3226C12.8075 15.7335 12.8114 14.7771 13.4053 14.1927L17.3855 10.2767L16.7553 9.96155L10.5638 11.9057C10.5483 11.9105 10.5329 11.915 10.5174 11.919L8.40618 15.5757ZM25.5431 15.6252L23.3357 11.8018C23.2536 11.8237 23.1673 11.8353 23.0783 11.8353H18.653L15.1797 15.2527C15.9638 15.8535 17.091 15.7952 17.8085 15.0777L18.2509 14.6353C18.7712 14.115 19.5923 14.0489 20.1891 14.4795L24.0194 17.2426L25.5431 15.6252ZM8.81277 20.9875C9.1722 20.5682 9.8035 20.5196 10.2228 20.879L12.6037 22.9198L15.8349 23.7079C16.3715 23.8388 16.7004 24.3799 16.5695 24.9164C16.4386 25.453 15.8976 25.7819 15.361 25.651L12.0136 24.8345C11.7846 24.7786 11.5719 24.6696 11.3929 24.5161L8.92123 22.3975C8.50191 22.0381 8.45335 21.4068 8.81277 20.9875Z" fill="#1C1B1F"/>
</svg>
