<svg width="33" height="33" viewBox="0 0 33 33" fill="none" xmlns="http://www.w3.org/2000/svg">
<path d="M11.6733 28.7829C10.1162 27.7026 8.81829 26.2902 7.87305 24.6476" stroke="#1C1B1F" stroke-width="2" stroke-linecap="round" stroke-linejoin="round"/>
<path d="M22.5713 4.78296C23.6194 4.78282 24.6491 5.05873 25.5568 5.58293C26.4644 6.10713 27.218 6.86113 27.7417 7.76907" stroke="#1C1B1F" stroke-width="2" stroke-linecap="round" stroke-linejoin="round"/>
<path fill-rule="evenodd" clip-rule="evenodd" d="M6.81227 12.394C6.1313 13.0885 5.96571 14.1768 6.47583 15.0603L11.1869 23.2202C13.5973 27.3951 18.9688 28.8066 23.1843 26.3727C26.1094 24.6839 27.7094 21.5874 27.6096 18.4552L27.3796 11.6588C27.3149 10.4333 26.2689 9.49216 25.0433 9.55685C23.8177 9.62155 22.8766 10.6675 22.9413 11.8931L23.1091 15.3139C23.1225 15.5868 22.9401 15.7732 22.7252 15.8249C21.9086 16.3297 21.3498 17.153 21.0915 18.0392C20.822 18.9636 20.8962 19.8941 21.2732 20.547C21.4112 20.7861 21.3293 21.0919 21.0901 21.23C20.851 21.3681 20.5452 21.2861 20.4071 21.047C19.8622 20.1032 19.8053 18.878 20.1314 17.7593C20.4203 16.7684 21.0227 15.8126 21.9274 15.1566L17.2379 7.03421C16.7964 6.2695 15.9691 5.86647 15.1438 5.92907C14.9123 5.96712 14.6836 6.04682 14.4684 6.17105C13.6012 6.67176 13.2508 7.72386 13.6043 8.62887L17.4604 15.3078C17.5984 15.5469 17.5165 15.8527 17.2773 15.9908L17.2691 15.9955L17.2575 16.0023C17.0184 16.1404 16.7126 16.0585 16.5745 15.8193L16.5745 15.8193L13.6168 17.5269C13.7491 17.7567 13.6786 18.0478 13.4608 18.1926C13.4503 18.1998 13.4395 18.2066 13.4283 18.213C13.1892 18.3511 12.8834 18.2691 12.7453 18.03L9.71601 12.783C9.13707 11.9415 7.99874 11.6736 7.09894 12.1931C6.9959 12.2526 6.90024 12.3199 6.81227 12.394ZM13.6168 17.5269L16.5745 15.8192L12.8703 9.40338C12.8072 9.2941 12.7518 9.1825 12.7038 9.06921L11.9277 7.72487C11.4521 6.90115 10.3988 6.61892 9.57507 7.09449C8.75134 7.57007 8.46912 8.62337 8.94469 9.44709L10.564 12.2518C10.5997 12.3054 10.6339 12.3604 10.6665 12.4169L13.6165 17.5265C13.6166 17.5266 13.6167 17.5268 13.6168 17.5269Z" fill="#1C1B1F"/>
</svg>
