<svg width="32" height="32" viewBox="0 0 32 32" fill="none" xmlns="http://www.w3.org/2000/svg">
<path fill-rule="evenodd" clip-rule="evenodd" d="M0 16C0 21.5031 4.46114 25.9642 9.96424 25.9642H16.4426C16.5334 25.9642 16.607 25.8906 16.607 25.7998V6.20019C16.607 6.10938 16.5334 6.03577 16.4426 6.03577H9.96424C4.46114 6.03577 0 10.4969 0 16ZM21.0356 8.35725C20.4833 8.35725 20.0356 8.80496 20.0356 9.35725C20.0356 9.90953 20.4833 10.3572 21.0356 10.3572H30.9998C31.5521 10.3572 31.9998 9.90953 31.9998 9.35725C31.9998 8.80496 31.5521 8.35725 30.9998 8.35725H21.0356ZM21.0356 21.6428C20.4833 21.6428 20.0356 22.0905 20.0356 22.6428C20.0356 23.1951 20.4833 23.6428 21.0356 23.6428H30.9998C31.5521 23.6428 31.9998 23.1951 31.9998 22.6428C31.9998 22.0905 31.5521 21.6428 30.9998 21.6428H21.0356ZM20.0356 16C20.0356 15.4477 20.4833 15 21.0356 15H30.9998C31.5521 15 31.9998 15.4477 31.9998 16C31.9998 16.5523 31.5521 17 30.9998 17H21.0356C20.4833 17 20.0356 16.5523 20.0356 16Z" fill="#111827"/>
</svg>
