<svg width="32" height="35" viewBox="0 0 32 35" fill="none" xmlns="http://www.w3.org/2000/svg">
<path d="M30.7241 16.1131V24.6373V27.2285H23.2191V16.1131H30.7241C30.7241 14.1847 30.3424 12.2755 29.6011 10.4953C28.8598 8.71516 27.7735 7.09933 26.4048 5.74097C25.0361 4.38261 23.4121 3.30857 21.6263 2.58077C19.8406 1.85297 17.9285 1.4858 16.0002 1.50042C14.0719 1.4858 12.1598 1.85297 10.3741 2.58077C8.5884 3.30857 6.96438 4.38261 5.59568 5.74097C4.22698 7.09933 3.14066 8.71516 2.39935 10.4953C1.65803 12.2755 1.27637 14.1847 1.27637 16.1131H8.55887V27.2285H1.27637V24.6373V16.1131C1.27637 14.1847 1.65803 12.2755 2.39935 10.4953C3.14066 8.71516 4.22698 7.09933 5.59568 5.74097C6.96438 4.38261 8.5884 3.30857 10.3741 2.58077C12.1598 1.85297 14.0719 1.4858 16.0002 1.50042C17.9285 1.4858 19.8406 1.85297 21.6263 2.58077C23.4121 3.30857 25.0361 4.38261 26.4048 5.74097C27.7735 7.09933 28.8598 8.71516 29.6011 10.4953C30.3424 12.2755 30.7241 14.1847 30.7241 16.1131Z" fill="#111827"/>
<path d="M30.7241 16.1131V24.6373V27.2285H23.2191V16.1131H30.7241ZM30.7241 16.1131C30.7241 14.1847 30.3424 12.2755 29.6011 10.4953C28.8598 8.71516 27.7735 7.09933 26.4048 5.74097C25.0361 4.38261 23.4121 3.30857 21.6263 2.58077C19.8406 1.85297 17.9285 1.4858 16.0002 1.50042C14.0719 1.4858 12.1598 1.85297 10.3741 2.58077C8.5884 3.30857 6.96438 4.38261 5.59568 5.74097C4.22698 7.09933 3.14066 8.71516 2.39935 10.4953C1.65803 12.2755 1.27637 14.1847 1.27637 16.1131M1.27637 16.1131V24.6373V27.2285H8.55887V16.1131H1.27637Z" stroke="#111827" stroke-width="2" stroke-linecap="round" stroke-linejoin="round"/>
<path d="M17.0518 33.5001H27.7243C29.3812 33.5001 30.7243 32.1569 30.7243 30.5001V24.0291" stroke="#111827" stroke-width="2" stroke-linecap="round" stroke-linejoin="round"/>
</svg>
