<svg width="34" height="33" viewBox="0 0 34 33" fill="none" xmlns="http://www.w3.org/2000/svg">
<path d="M33 18.4004V27.6635V30.4792H24.8445V18.4004H33C33 16.3049 32.5853 14.2301 31.7797 12.2957C30.9741 10.3613 29.7937 8.60539 28.3063 7.1293C26.819 5.6532 25.0542 4.48608 23.1137 3.6952C21.1732 2.90432 19.0954 2.50532 17 2.52121C14.9046 2.50532 12.8268 2.90432 10.8863 3.6952C8.94578 4.48608 7.181 5.6532 5.69368 7.1293C4.20635 8.60539 3.02588 10.3613 2.22031 12.2957C1.41474 14.2301 1 16.3049 1 18.4004H8.91369V30.4792H1V27.6635V18.4004C1 16.3049 1.41474 14.2301 2.22031 12.2957C3.02588 10.3613 4.20635 8.60539 5.69368 7.1293C7.181 5.6532 8.94578 4.48608 10.8863 3.6952C12.8268 2.90432 14.9046 2.50532 17 2.52121C19.0954 2.50532 21.1732 2.90432 23.1137 3.6952C25.0542 4.48608 26.819 5.6532 28.3063 7.1293C29.7937 8.60539 30.9741 10.3613 31.7797 12.2957C32.5853 14.2301 33 16.3049 33 18.4004Z" fill="#111827"/>
<path d="M33 18.4004V27.6635V30.4792H24.8445V18.4004H33ZM33 18.4004C33 16.3049 32.5853 14.2301 31.7797 12.2957C30.9741 10.3613 29.7937 8.60539 28.3063 7.1293C26.819 5.6532 25.0542 4.48608 23.1137 3.6952C21.1732 2.90432 19.0954 2.50532 17 2.52121C14.9046 2.50532 12.8268 2.90432 10.8863 3.6952C8.94578 4.48608 7.181 5.6532 5.69368 7.1293C4.20635 8.60539 3.02588 10.3613 2.22031 12.2957C1.41474 14.2301 1 16.3049 1 18.4004M1 18.4004V27.6635V30.4792H8.91369V18.4004H1Z" stroke="#111827" stroke-width="2" stroke-linecap="round" stroke-linejoin="round"/>
</svg>
