<svg width="33" height="33" viewBox="0 0 33 33" fill="none" xmlns="http://www.w3.org/2000/svg">
<path fill-rule="evenodd" clip-rule="evenodd" d="M4.95996 16.2828C4.95996 20.5433 8.41377 23.9971 12.6743 23.9971H17.6898C17.7601 23.9971 17.8171 23.9401 17.8171 23.8698V8.69584C17.8171 8.62554 17.7601 8.56854 17.6898 8.56854H12.6743C8.41377 8.56854 4.95996 12.0224 4.95996 16.2828ZM21.2456 10.14C20.6933 10.14 20.2456 10.5877 20.2456 11.14C20.2456 11.6923 20.6933 12.14 21.2456 12.14H28.9599C29.5122 12.14 29.9599 11.6923 29.9599 11.14C29.9599 10.5877 29.5122 10.14 28.9599 10.14H21.2456ZM21.2456 20.4257C20.6933 20.4257 20.2456 20.8734 20.2456 21.4257C20.2456 21.978 20.6933 22.4257 21.2456 22.4257H28.9599C29.5122 22.4257 29.9599 21.978 29.9599 21.4257C29.9599 20.8734 29.5122 20.4257 28.9599 20.4257H21.2456ZM20.2456 16.2828C20.2456 15.7306 20.6933 15.2828 21.2456 15.2828H28.9599C29.5122 15.2828 29.9599 15.7306 29.9599 16.2828C29.9599 16.8351 29.5122 17.2828 28.9599 17.2828H21.2456C20.6933 17.2828 20.2456 16.8351 20.2456 16.2828Z" fill="#1C1B1F"/>
</svg>
