<svg width="33" height="33" viewBox="0 0 33 33" fill="none" xmlns="http://www.w3.org/2000/svg">
<path d="M28.0028 15.7428V22.136V24.0794H22.374V15.7428H28.0028C28.0028 14.2965 27.7165 12.8646 27.1605 11.5294C26.6046 10.1943 25.7898 8.98246 24.7633 7.96369C23.7368 6.94492 22.5188 6.13939 21.1795 5.59354C19.8402 5.04769 18.4061 4.77231 16.9599 4.78327C15.5137 4.77231 14.0796 5.04769 12.7403 5.59354C11.401 6.13939 10.183 6.94492 9.15648 7.96369C8.12995 8.98246 7.31521 10.1943 6.75923 11.5294C6.20324 12.8646 5.91699 14.2965 5.91699 15.7428H11.3789V24.0794H5.91699V22.136V15.7428C5.91699 14.2965 6.20324 12.8646 6.75923 11.5294C7.31521 10.1943 8.12995 8.98246 9.15648 7.96369C10.183 6.94492 11.401 6.13939 12.7403 5.59354C14.0796 5.04769 15.5137 4.77231 16.9599 4.78327C18.4061 4.77231 19.8402 5.04769 21.1795 5.59354C22.5188 6.13939 23.7368 6.94492 24.7633 7.96369C25.7898 8.98246 26.6046 10.1943 27.1605 11.5294C27.7165 12.8646 28.0028 14.2965 28.0028 15.7428Z" fill="#1C1B1F"/>
<path d="M28.0028 15.7428V22.136V24.0794H22.374V15.7428H28.0028ZM28.0028 15.7428C28.0028 14.2965 27.7165 12.8646 27.1605 11.5294C26.6046 10.1943 25.7898 8.98246 24.7633 7.96369C23.7368 6.94492 22.5188 6.13939 21.1795 5.59354C19.8402 5.04769 18.4061 4.77231 16.9599 4.78327C15.5137 4.77231 14.0796 5.04769 12.7403 5.59354C11.401 6.13939 10.183 6.94492 9.15648 7.96369C8.12995 8.98246 7.31521 10.1943 6.75923 11.5294C6.20324 12.8646 5.91699 14.2965 5.91699 15.7428M5.91699 15.7428V22.136V24.0794H11.3789V15.7428H5.91699Z" stroke="#1C1B1F" stroke-width="2" stroke-linecap="round" stroke-linejoin="round"/>
<path d="M17.7485 28.783H25.003C26.6598 28.783 28.003 27.4398 28.003 25.783V21.6797" stroke="#1C1B1F" stroke-width="2" stroke-linecap="round" stroke-linejoin="round"/>
</svg>
