<svg width="32" height="33" viewBox="0 0 32 33" fill="none" xmlns="http://www.w3.org/2000/svg">
<path fill-rule="evenodd" clip-rule="evenodd" d="M15.1871 6.03232C14.3393 4.79286 13.1675 3.80014 11.7908 3.16821C10.0916 2.38826 8.17929 2.20335 6.36216 2.64331C4.54503 3.08327 2.92904 4.12244 1.77481 5.59324C0.620573 7.06405 -0.0046284 8.88075 2.57985e-05 10.7504C2.57985e-05 21.6304 16 30.5904 16 30.5904C16 30.5904 32 21.6304 32 10.7504C32.0019 9.10342 31.515 7.49294 30.6009 6.12293C29.6869 4.75292 28.3867 3.68502 26.8652 3.0545C25.3438 2.42398 23.6694 2.2592 22.0542 2.58103C21.7745 2.63676 21.4988 2.70664 21.228 2.79014L14.0838 9.98021L18.499 14.3953C18.6865 14.5829 18.7919 14.8372 18.7919 15.1025C18.7919 15.3677 18.6865 15.622 18.499 15.8096L15.939 18.3696C15.5485 18.7601 14.9153 18.7601 14.5248 18.3696C14.1342 17.979 14.1342 17.3459 14.5248 16.9553L16.3777 15.1025L11.9648 10.6896C11.5751 10.2999 11.5741 9.66851 11.9625 9.27762L15.1871 6.03232Z" fill="#111827"/>
</svg>
