<svg width="32" height="32" viewBox="0 0 32 32" fill="none" xmlns="http://www.w3.org/2000/svg">
<path fill-rule="evenodd" clip-rule="evenodd" d="M15.1871 5.53232C14.3393 4.29286 13.1675 3.30014 11.7908 2.66821C10.0916 1.88826 8.17929 1.70335 6.36216 2.14331C4.54503 2.58327 2.92904 3.62244 1.77481 5.09324C0.620573 6.56405 -0.0046284 8.38075 2.57985e-05 10.2504C2.57985e-05 21.1304 16 30.0904 16 30.0904C16 30.0904 32 21.1304 32 10.2504C32.0019 8.60342 31.515 6.99294 30.6009 5.62293C29.6869 4.25292 28.3867 3.18502 26.8652 2.5545C25.3438 1.92398 23.6694 1.7592 22.0542 2.08103C21.7745 2.13676 21.4988 2.20664 21.228 2.29014L14.0838 9.48021L18.499 13.8953C18.6865 14.0829 18.7919 14.3372 18.7919 14.6025C18.7919 14.8677 18.6865 15.122 18.499 15.3096L15.939 17.8696C15.5485 18.2601 14.9153 18.2601 14.5248 17.8696C14.1342 17.479 14.1342 16.8459 14.5248 16.4553L16.3777 14.6025L11.9648 10.1896C11.5751 9.79993 11.5741 9.16851 11.9625 8.77762L15.1871 5.53232Z" fill="#111827"/>
</svg>
