<svg width="32" height="33" viewBox="0 0 32 33" fill="none" xmlns="http://www.w3.org/2000/svg">
<path fill-rule="evenodd" clip-rule="evenodd" d="M15.1199 6.82211L14.0315 5.72531C10.9448 2.65409 5.89813 2.20653 2.67258 5.10798C1.85972 5.83564 1.20377 6.72139 0.744785 7.71111C0.285803 8.70083 0.0334359 9.77375 0.0031028 10.8643C-0.0272303 11.9548 0.165108 13.0401 0.568365 14.0538C0.971622 15.0675 1.57733 15.9884 2.34848 16.7601L15.1735 29.5851C15.4076 29.817 15.7237 29.947 16.0532 29.947C16.3827 29.947 16.6988 29.817 16.9329 29.5851L29.4338 17.0842C32.5051 13.9975 32.9526 8.95086 30.0512 5.72531C29.3235 4.91246 28.4378 4.2565 27.448 3.79752C26.4583 3.33854 25.3854 3.08617 24.2949 3.05584C23.2043 3.0255 22.119 3.21784 21.1053 3.6211C20.4869 3.8671 19.9031 4.18844 19.3666 4.57671L14.9115 10.3767L19.2297 14.6949C19.4173 14.8824 19.5226 15.1368 19.5226 15.402C19.5226 15.6672 19.4173 15.9216 19.2297 16.1091L16.7604 18.5784C16.3699 18.9689 15.7367 18.9689 15.3462 18.5784C14.9557 18.1879 14.9557 17.5547 15.3462 17.1642L17.1084 15.402L12.8769 11.1705C12.5219 10.8155 12.4851 10.2523 12.7909 9.8542L15.1199 6.82211Z" fill="#111827"/>
</svg>
