<svg width="32" height="33" viewBox="0 0 32 33" fill="none" xmlns="http://www.w3.org/2000/svg">
<path d="M16 30.5799C16 30.5799 0 21.6199 0 10.7399C0.000325679 8.81695 0.666645 6.95343 1.88567 5.4662C3.1047 3.97897 4.80119 2.95984 6.6867 2.58208C8.57222 2.20432 10.5304 2.49124 12.2282 3.39407C13.9261 4.29689 15.2589 5.75989 16 7.53433L16 7.53435C16.7411 5.75991 18.0739 4.2969 19.7717 3.39407C21.4696 2.49124 23.4278 2.20432 25.3133 2.58208C27.1988 2.95984 28.8953 3.97897 30.1143 5.4662C31.3334 6.95343 31.9997 8.81695 32 10.7399C32 21.6199 16 30.5799 16 30.5799Z" fill="#111827"/>
</svg>
