<svg width="33" height="33" viewBox="0 0 33 33" fill="none" xmlns="http://www.w3.org/2000/svg">
<path fill-rule="evenodd" clip-rule="evenodd" d="M16.7245 26.7063C16.8742 26.7948 17.0457 26.7948 17.1954 26.7063C18.8741 25.7144 28.96 19.4438 28.96 11.9629C28.9597 10.5206 28.46 9.123 27.5457 8.00758C26.6314 6.89216 25.3591 6.12781 23.9449 5.84449C22.5308 5.56117 21.0622 5.77636 19.7888 6.45348C18.5154 7.13061 17.5158 8.22785 16.96 9.55868C16.4041 8.22785 15.4046 7.1306 14.1311 6.45348C12.8577 5.77636 11.3891 5.56117 9.97499 5.84449C8.56085 6.12781 7.28849 6.89216 6.37421 8.00758C5.45994 9.123 4.96021 10.5206 4.95996 11.9629C4.95996 13.1024 5.19399 14.2139 5.59668 15.2829H9.70476L11.3279 12.8482C11.5134 12.57 11.8256 12.4029 12.1599 12.4029C12.4943 12.4029 12.8065 12.57 12.992 12.8482L15.9999 17.3601L17.0879 15.7282C17.2734 15.45 17.5856 15.2829 17.9199 15.2829H20.7999C21.3522 15.2829 21.7999 15.7306 21.7999 16.2829C21.7999 16.8352 21.3522 17.2829 20.7999 17.2829H18.4551L16.832 19.7176C16.6465 19.9958 16.3343 20.1629 15.9999 20.1629C15.6656 20.1629 15.3534 19.9958 15.1679 19.7176L12.1599 15.2057L11.072 16.8376C10.8865 17.1158 10.5743 17.2829 10.2399 17.2829H6.562C9.47729 22.2491 15.4655 25.9624 16.7245 26.7063Z" fill="#1C1B1F"/>
</svg>
