<svg width="32" height="33" viewBox="0 0 32 33" fill="none" xmlns="http://www.w3.org/2000/svg">
<path d="M16.924 29.583L29.4301 17.0768C32.503 14.0039 32.9564 8.94859 30.0484 5.71923C29.32 4.90799 28.4339 4.25366 27.4443 3.79617C26.4546 3.33869 25.3821 3.08763 24.2923 3.05832C23.2024 3.02901 22.118 3.22207 21.1052 3.62571C20.0924 4.02935 19.1725 4.63511 18.4015 5.40603L16.0509 7.75662L14.0214 5.72712C10.9485 2.65423 5.89317 2.20088 2.66381 5.10887C1.85257 5.83727 1.19824 6.72332 0.740754 7.71296C0.283266 8.7026 0.0322087 9.77508 0.00290055 10.865C-0.0264076 11.9548 0.166648 13.0392 0.570288 14.052C0.973928 15.0648 1.57969 15.9848 2.35061 16.7557L15.1778 29.583C15.4094 29.8145 15.7234 29.9446 16.0509 29.9446C16.3784 29.9446 16.6924 29.8145 16.924 29.583Z" fill="#111827"/>
</svg>
