<svg width="33" height="33" viewBox="0 0 33 33" fill="none" xmlns="http://www.w3.org/2000/svg">
<path d="M16.96 26.8429C16.96 26.8429 4.95996 20.1229 4.95996 11.9629C4.96021 10.5207 5.45994 9.12303 6.37421 8.00761C7.28849 6.89219 8.56085 6.12784 9.97499 5.84452C11.3891 5.5612 12.8577 5.77639 14.1311 6.45351C15.4046 7.13063 16.4041 8.22788 16.96 9.55871L16.9599 9.55872C17.5158 8.22789 18.5154 7.13064 19.7888 6.45351C21.0622 5.77639 22.5308 5.5612 23.9449 5.84452C25.3591 6.12784 26.6314 6.89219 27.5457 8.00761C28.46 9.12303 28.9597 10.5207 28.96 11.9629C28.96 20.1229 16.96 26.8429 16.96 26.8429Z" fill="#1C1B1F"/>
</svg>
