<svg width="32" height="32" viewBox="0 0 32 32" fill="none" xmlns="http://www.w3.org/2000/svg">
<path d="M16 30.0799C16 30.0799 0 21.1199 0 10.2399C0.000325679 8.31695 0.666645 6.45343 1.88567 4.9662C3.1047 3.47897 4.80119 2.45984 6.6867 2.08208C8.57222 1.70432 10.5304 1.99124 12.2282 2.89407C13.9261 3.79689 15.2589 5.25989 16 7.03433L16 7.03435C16.7411 5.25991 18.0739 3.7969 19.7717 2.89407C21.4696 1.99124 23.4278 1.70432 25.3133 2.08208C27.1988 2.45984 28.8953 3.47897 30.1143 4.9662C31.3334 6.45343 31.9997 8.31695 32 10.2399C32 21.1199 16 30.0799 16 30.0799Z" fill="#111827"/>
</svg>
