<svg width="33" height="33" viewBox="0 0 33 33" fill="none" xmlns="http://www.w3.org/2000/svg">
<path fill-rule="evenodd" clip-rule="evenodd" d="M16.1223 8.84554L15.4836 8.20194C13.1686 5.89853 9.38356 5.56286 6.96439 7.73895C6.35475 8.28469 5.86279 8.949 5.51855 9.69129C5.17431 10.4336 4.98504 11.2383 4.96229 12.0562C4.93954 12.8741 5.08379 13.6881 5.38623 14.4483C5.68868 15.2086 6.14296 15.8992 6.72132 16.478L16.3401 26.0968C16.5157 26.2707 16.7528 26.3682 16.9999 26.3682C17.247 26.3682 17.4841 26.2707 17.6596 26.0968L27.0353 16.7211C29.3388 14.4061 29.6744 10.6211 27.4983 8.20194C26.9526 7.5923 26.2883 7.10033 25.546 6.7561C24.8037 6.41186 23.999 6.22259 23.1811 6.19984C22.3632 6.17709 21.5492 6.32134 20.789 6.62378C20.5523 6.71791 20.3225 6.82675 20.1006 6.94945L16.4755 11.6689L19.559 14.7525C19.7466 14.94 19.8519 15.1943 19.8519 15.4596C19.8519 15.7248 19.7466 15.9791 19.559 16.1667L17.707 18.0187C17.3165 18.4092 16.6834 18.4092 16.2928 18.0187C15.9023 17.6281 15.9023 16.995 16.2928 16.6044L17.4377 15.4596L14.4408 12.4627C14.0859 12.1077 14.0491 11.5446 14.3549 11.1464L16.1223 8.84554Z" fill="#1C1B1F"/>
</svg>
