<svg width="33" height="33" viewBox="0 0 33 33" fill="none" xmlns="http://www.w3.org/2000/svg">
<path d="M17.6529 26.0951L27.0326 16.7155C29.3372 14.4109 29.6772 10.6193 27.4962 8.19732C26.9499 7.58889 26.2854 7.09814 25.5432 6.75503C24.8009 6.41191 23.9966 6.22362 23.1792 6.20164C22.3618 6.17966 21.5485 6.32445 20.7889 6.62718C20.0293 6.92991 19.3393 7.38423 18.7611 7.96242L16.9981 9.72536L15.476 8.20324C13.1714 5.89857 9.37984 5.55855 6.95782 7.73955C6.34939 8.28585 5.85864 8.95039 5.51553 9.69262C5.17241 10.4348 4.98412 11.2392 4.96214 12.0566C4.94016 12.874 5.08495 13.6873 5.38768 14.4469C5.69041 15.2065 6.14473 15.8965 6.72292 16.4747L16.3433 26.0951C16.517 26.2688 16.7525 26.3664 16.9981 26.3664C17.2437 26.3664 17.4793 26.2688 17.6529 26.0951Z" fill="#1C1B1F"/>
</svg>
