<svg width="32" height="32" viewBox="0 0 32 32" fill="none" xmlns="http://www.w3.org/2000/svg">
<path d="M16.924 29.083L29.4301 16.5768C32.503 13.5039 32.9564 8.44859 30.0484 5.21923C29.32 4.40799 28.4339 3.75366 27.4443 3.29617C26.4546 2.83869 25.3821 2.58763 24.2923 2.55832C23.2024 2.52901 22.118 2.72207 21.1052 3.12571C20.0924 3.52935 19.1725 4.13511 18.4015 4.90603L16.0509 7.25662L14.0214 5.22712C10.9485 2.15423 5.89317 1.70088 2.66381 4.60887C1.85257 5.33727 1.19824 6.22332 0.740754 7.21296C0.283266 8.2026 0.0322087 9.27508 0.00290055 10.365C-0.0264076 11.4548 0.166648 12.5392 0.570288 13.552C0.973928 14.5648 1.57969 15.4848 2.35061 16.2557L15.1778 29.083C15.4094 29.3145 15.7234 29.4446 16.0509 29.4446C16.3784 29.4446 16.6924 29.3145 16.924 29.083Z" fill="#111827"/>
</svg>
