<svg width="32" height="32" viewBox="0 0 32 32" fill="none" xmlns="http://www.w3.org/2000/svg">
<path fill-rule="evenodd" clip-rule="evenodd" d="M15.7658 29.9795C15.9159 30.0675 16.0841 30.0675 16.2342 29.9795C18.2084 28.8221 32 20.3759 32 10.2746C31.9997 8.35162 31.3334 6.48809 30.1143 5.00087C28.8953 3.51364 27.1988 2.49451 25.3133 2.11675C23.4278 1.73899 21.4696 2.02591 19.7717 2.92874C18.0739 3.83157 16.7411 5.29456 16 7.069C15.2589 5.29456 13.9261 3.83156 12.2282 2.92874C10.5304 2.02591 8.57222 1.73899 6.6867 2.11675C4.80119 2.49451 3.1047 3.51364 1.88567 5.00087C0.666645 6.4881 0.000325679 8.35162 0 10.2746C0 11.9128 0.362746 13.5075 0.979001 15.0346H6.50479L8.76792 11.6399C8.95339 11.3617 9.26562 11.1946 9.59997 11.1946C9.93433 11.1946 10.2466 11.3617 10.432 11.6399L14.72 18.0718L16.4479 15.4799C16.6334 15.2017 16.9456 15.0346 17.28 15.0346H21.12C21.6723 15.0346 22.12 15.4823 22.12 16.0346C22.12 16.5869 21.6723 17.0346 21.12 17.0346H17.8152L15.552 20.4293C15.3666 20.7075 15.0543 20.8746 14.72 20.8746C14.3856 20.8746 14.0734 20.7075 13.8879 20.4293L9.59997 13.9974L7.87202 16.5893C7.68656 16.8675 7.37433 17.0346 7.03997 17.0346H1.94467C5.81797 23.9361 14.2545 29.0935 15.7658 29.9795Z" fill="#111827"/>
</svg>
