<svg width="33" height="33" viewBox="0 0 33 33" fill="none" xmlns="http://www.w3.org/2000/svg">
<g clip-path="url(#clip0_505_613)">
<path d="M24.931 25.8677C25.8721 27.2111 26.2143 28.5934 25.697 28.9556C25.1797 29.3179 23.9979 28.5225 23.0568 27.179C22.7106 26.6844 22.4473 26.1845 22.2762 25.7326C20.7308 26.7646 18.9435 27.4143 17.0654 27.6041C17.1736 28.0586 17.2391 28.5894 17.2391 29.1628C17.2391 30.8031 16.7271 32.1318 16.0948 32.1318C15.4625 32.1318 14.9506 30.8031 14.9506 29.1628C14.9506 28.6014 15.0134 28.084 15.1177 27.6362C13.2274 27.5039 11.4214 26.905 9.84537 25.9198C9.6756 26.3222 9.44433 26.7499 9.14489 27.179C8.2038 28.5225 7.02208 29.3179 6.50474 28.9556C5.9874 28.5934 6.32962 27.2111 7.27072 25.8677C7.5862 25.4172 7.92842 25.0362 8.26395 24.7314C7.61294 24.1472 7.02341 23.4868 6.5141 22.7543L8.01665 21.7089C9.81462 24.2943 12.7676 25.8369 15.9144 25.8369C19.0692 25.8369 22.0248 24.2889 23.8228 21.6955L25.3267 22.7382C24.8615 23.4093 24.3281 24.0175 23.7453 24.5643C24.141 24.8865 24.554 25.3303 24.931 25.8677ZM8.38961 7.64859C7.59422 8.34372 6.88706 9.1498 6.2962 10.0642L7.83351 11.0574C9.61411 8.30094 12.6352 6.65536 15.9157 6.65536C19.3045 6.65536 22.3791 8.38516 24.1383 11.282L25.7023 10.3315C25.1208 9.37438 24.415 8.52819 23.6169 7.79831C24.0501 7.4708 24.5139 6.99223 24.931 6.39602C25.8721 5.05255 26.2143 3.67031 25.697 3.30804C25.1797 2.94577 23.9979 3.74116 23.0568 5.08463C22.6638 5.64474 22.3831 6.20753 22.2187 6.70482C20.6787 5.68752 18.8968 5.0579 17.0052 4.88144C17.1496 4.38415 17.2391 3.77191 17.2391 3.0995C17.2391 1.4606 16.7271 0.131836 16.0948 0.131836C15.4625 0.131836 14.9506 1.4606 14.9506 3.10084C14.9506 3.7572 15.0348 4.35876 15.1738 4.84936C13.2849 4.96967 11.4883 5.55117 9.92023 6.51633C9.74912 6.06717 9.48845 5.57389 9.14489 5.08463C8.20513 3.74116 7.02341 2.94711 6.50608 3.30938C5.98874 3.67165 6.33096 5.05388 7.27206 6.39736C7.6263 6.90266 8.01531 7.33043 8.38961 7.64859ZM0.666992 20.5472H2.87002V17.2427H5.3551V20.5486H7.55813V12.2204H5.35644V15.3204H2.87002V12.2204H0.666992V20.5472ZM9.40423 12.2204V20.5472H14.9131V18.7025H11.6073V17.216H14.3236V15.3712H11.6073V14.0638H14.7848V12.2191L9.40423 12.2204ZM16.5266 12.2204V20.5472H21.8818V18.7025H18.7297V12.2204H16.5266ZM23.3162 12.2204V20.5472H25.3401V18.0876C25.3401 17.8737 25.3294 17.6397 25.308 17.3831C25.2866 17.1264 25.2625 16.8644 25.2371 16.5957C25.2117 16.327 25.181 16.0637 25.1476 15.8083C25.1128 15.5517 25.0834 15.3217 25.058 15.1172H25.1088L25.7745 17.0649L26.9282 19.8708H27.7476L28.8999 17.0649L29.591 15.1172H29.6418C29.6164 15.3217 29.5857 15.553 29.5523 15.8097C29.5175 16.0663 29.4881 16.3283 29.4627 16.597C29.4373 16.8657 29.4133 17.1291 29.3919 17.3844C29.3705 17.6411 29.3598 17.875 29.3598 18.0889V20.5486H31.4131V12.2204H29.1325L27.8773 15.68L27.4161 17.0382H27.3653L26.9041 15.68L25.5967 12.2204H23.3162Z" fill="#111827"/>
</g>
<defs>
<clipPath id="clip0_505_613">
<rect width="32" height="32" fill="white" transform="translate(0.0400391 0.131836)"/>
</clipPath>
</defs>
</svg>
