<svg width="33" height="32" viewBox="0 0 33 32" fill="none" xmlns="http://www.w3.org/2000/svg">
<path fill-rule="evenodd" clip-rule="evenodd" d="M8.15918 4C7.05461 4 6.15918 4.89543 6.15918 6V26C6.15918 27.1046 7.05461 28 8.15918 28H25.7608C26.8653 28 27.7608 27.1046 27.7608 26V6C27.7608 4.89543 26.8653 4 25.7608 4H8.15918ZM20.5612 11.4993H18.1604C19.1037 10.2603 19.695 8.95983 19.9622 7.59994H22.3606C22.1986 8.96249 21.6458 10.2706 20.5612 11.4993ZM18.4612 13.5993C19.9442 13.5993 20.831 14.1826 21.3168 14.671C22.3476 15.7145 22.3629 17.0462 22.3602 17.2002V24.4001H19.9622V17.2311C19.9492 16.6707 19.6793 16 18.4612 16C16.0253 16 13.2978 17.2201 13.2563 17.2386L13.256 17.2388L11.5594 18.0073V7.59998H13.9602V14.4114C15.1581 14.0233 16.834 13.5993 18.4612 13.5993ZM11.5596 24.4001L14.2614 21.999L11.5596 19.5986V24.4001Z" fill="#1C1B1F"/>
</svg>
