<svg width="32" height="33" viewBox="0 0 32 33" fill="none" xmlns="http://www.w3.org/2000/svg">
<path fill-rule="evenodd" clip-rule="evenodd" d="M3.59863 0.717041C2.49406 0.717041 1.59863 1.61247 1.59863 2.71704V30.717C1.59863 31.8216 2.49406 32.717 3.59863 32.717H28.4008C29.5053 32.717 30.4008 31.8216 30.4008 30.717V2.71704C30.4008 1.61247 29.5053 0.717041 28.4008 0.717041H3.59863ZM18.0016 13.5161C19.979 13.5161 21.1614 14.2939 21.8091 14.9451C23.1836 16.3364 23.2039 18.112 23.2004 18.3174V27.9172H20.0029V18.3585C19.9857 17.6113 19.6258 16.7171 18.0016 16.7171C14.7539 16.7171 11.1173 18.3437 11.0617 18.3686L11.0614 18.3687L8.79932 19.3935V5.51701H12.0003V14.5989C13.5975 14.0814 15.8321 13.5161 18.0016 13.5161ZM20.8016 10.7163H17.6006C18.8582 9.06419 19.6466 7.33024 20.003 5.51705H23.2009C22.9848 7.33378 22.2478 9.07792 20.8016 10.7163ZM8.79915 27.9172L12.4016 24.7158L8.79915 21.5153V27.9172Z" fill="#111827"/>
</svg>
