<svg width="33" height="33" viewBox="0 0 33 33" fill="none" xmlns="http://www.w3.org/2000/svg">
<path fill-rule="evenodd" clip-rule="evenodd" d="M20.96 27.6001C19.7088 28.0423 18.3625 28.283 16.96 28.283C15.5574 28.283 14.2111 28.0423 12.96 27.6001V19.283H20.96V27.6001ZM22.96 26.6776V18.283C22.96 17.7307 22.5122 17.283 21.96 17.283H20.96V9.28296C20.96 8.93638 20.7805 8.61452 20.4857 8.43231C20.1909 8.2501 19.8227 8.23354 19.5127 8.38853L13.5127 11.3885C13.174 11.5579 12.96 11.9042 12.96 12.283V17.283H11.96C11.4077 17.283 10.96 17.7307 10.96 18.283V26.6776C7.37315 24.6027 4.95996 20.7247 4.95996 16.283C4.95996 9.65554 10.3325 4.28296 16.96 4.28296C23.5874 4.28296 28.96 9.65554 28.96 16.283C28.96 20.7247 26.5468 24.6027 22.96 26.6776ZM18.96 10.901V17.283H14.96V12.901L18.96 10.901Z" fill="#1C1B1F"/>
</svg>
