<svg width="32" height="32" viewBox="0 0 32 32" fill="none" xmlns="http://www.w3.org/2000/svg">
<path fill-rule="evenodd" clip-rule="evenodd" d="M21.6667 30.9675C19.9052 31.6348 17.9953 32 16 32C14.0047 32 12.0948 31.6348 10.3333 30.9675V19.6666H21.6667V30.9675ZM23.6667 30.047V18.6666C23.6667 18.1143 23.219 17.6666 22.6667 17.6666H21V6.66663C21 6.32005 20.8205 5.99818 20.5257 5.81598C20.2309 5.63377 19.8628 5.6172 19.5528 5.7722L11.5528 9.7722C11.214 9.94159 11 10.2879 11 10.6666V17.6666H9.33333C8.78105 17.6666 8.33333 18.1143 8.33333 18.6666V30.047C3.3677 27.3311 0 22.0588 0 16C0 7.16344 7.16344 0 16 0C24.8366 0 32 7.16344 32 16C32 22.0588 28.6323 27.3311 23.6667 30.047ZM19 8.28466V17.6666H13V11.2847L19 8.28466Z" fill="#111827"/>
</svg>
