<svg width="32" height="33" viewBox="0 0 32 33" fill="none" xmlns="http://www.w3.org/2000/svg">
<path d="M17.7187 30.7813C25.6061 30.7813 32 24.3874 32 16.5C32 8.6127 25.6061 2.21875 17.7187 2.21875C17.2443 2.21875 16.7752 2.24189 16.3127 2.28709C15.8231 2.33493 15.4657 2.7576 15.4657 3.24946V6.28944C15.4657 6.6344 15.2879 6.955 14.9953 7.13769L1.0668 15.834C0.52114 16.1747 0.43443 16.9345 0.889295 17.3893L3.96751 20.4675C4.21674 20.7168 4.57968 20.8151 4.92253 20.7333C8.68378 19.836 11.2566 19.8394 15.3912 20.6139C16.041 20.7356 16.3833 21.4511 16.0809 22.039L12.1621 29.66C13.8701 30.3821 15.7478 30.7813 17.7187 30.7813Z" fill="#111827"/>
<path d="M16.0658 14.12C17.0517 14.12 17.8509 13.3208 17.8509 12.3349C17.8509 11.349 17.0517 10.5498 16.0658 10.5498C15.08 10.5498 14.2808 11.349 14.2808 12.3349C14.2808 13.3208 15.08 14.12 16.0658 14.12Z" fill="#111827"/>
</svg>
