<svg width="32" height="32" viewBox="0 0 32 32" fill="none" xmlns="http://www.w3.org/2000/svg">
<path d="M17.7187 30.2813C25.6061 30.2813 32 23.8874 32 16C32 8.1127 25.6061 1.71875 17.7187 1.71875C17.2443 1.71875 16.7752 1.74189 16.3127 1.78709C15.8231 1.83493 15.4657 2.2576 15.4657 2.74946V5.78944C15.4657 6.1344 15.2879 6.455 14.9953 6.63769L1.0668 15.334C0.52114 15.6747 0.43443 16.4345 0.889295 16.8893L3.96751 19.9675C4.21674 20.2168 4.57968 20.3151 4.92253 20.2333C8.68378 19.336 11.2566 19.3394 15.3912 20.1139C16.041 20.2356 16.3833 20.9511 16.0809 21.539L12.1621 29.16C13.8701 29.8821 15.7478 30.2813 17.7187 30.2813Z" fill="#111827"/>
<path d="M16.0658 13.62C17.0517 13.62 17.8509 12.8208 17.8509 11.8349C17.8509 10.849 17.0517 10.0498 16.0658 10.0498C15.08 10.0498 14.2808 10.849 14.2808 11.8349C14.2808 12.8208 15.08 13.62 16.0658 13.62Z" fill="#111827"/>
</svg>
