<svg width="32" height="33" viewBox="0 0 32 33" fill="none" xmlns="http://www.w3.org/2000/svg">
<path fill-rule="evenodd" clip-rule="evenodd" d="M5.6875 0.500854C5.13522 0.500854 4.6875 0.94857 4.6875 1.50085V5.99893C4.6875 9.63951 6.48875 13.0443 9.49841 15.0926L11.5662 16.4999L9.49841 17.9072C6.48875 19.9556 4.6875 23.3603 4.6875 27.0009V31.499C4.6875 32.0513 5.13522 32.499 5.6875 32.499H26.3126C26.8649 32.499 27.3126 32.0513 27.3126 31.499V27.0009C27.3126 23.3603 25.5113 19.9556 22.5017 17.9072L20.4339 16.4999L22.5017 15.0926C25.5113 13.0443 27.3126 9.63951 27.3126 5.99893V1.50085C27.3126 0.94857 26.8649 0.500854 26.3126 0.500854H5.6875ZM17.9178 17.1742C17.9774 17.2398 18.0444 17.2959 18.1166 17.3421L21.3764 19.5606C23.3478 20.9024 24.6855 22.9555 25.1406 25.2494H6.85945C7.31455 22.9555 8.65227 20.9024 10.6237 19.5606L13.8834 17.3421C13.9556 17.2959 14.0225 17.2399 14.0821 17.1744C14.1445 17.1063 14.1961 17.0307 14.2366 16.9503C14.309 16.8073 14.3439 16.653 14.3437 16.4999C14.3439 16.3469 14.309 16.1926 14.2366 16.0495C14.1961 15.9691 14.1444 15.8935 14.0821 15.8253C14.0225 15.7599 13.9556 15.704 13.8834 15.6578L10.6237 13.4392C8.16125 11.7633 6.6875 8.97759 6.6875 5.99893V2.50085H25.3126V5.99893C25.3126 8.97759 23.8388 11.7633 21.3764 13.4392L18.1166 15.6578C18.0445 15.704 17.9775 15.76 17.9179 15.8255C17.7471 16.0122 17.6566 16.2544 17.6564 16.4999C17.6566 16.7454 17.747 16.9876 17.9178 17.1742Z" fill="#111827"/>
</svg>
