<svg width="33" height="33" viewBox="0 0 33 33" fill="none" xmlns="http://www.w3.org/2000/svg">
<path fill-rule="evenodd" clip-rule="evenodd" d="M7.70947 4.78296C7.70947 4.23067 8.15719 3.78296 8.70947 3.78296H25.2105C25.7628 3.78296 26.2105 4.23067 26.2105 4.78296V5.59505C26.2105 9.05738 24.5804 12.3177 21.8105 14.3951L18.6267 16.783L21.8105 19.1709C24.5804 21.2483 26.2105 24.5085 26.2105 27.9709V28.783C26.2105 29.3352 25.7628 29.783 25.2105 29.783H8.70947C8.15719 29.783 7.70947 29.3352 7.70947 28.783V27.9709C7.70947 24.5085 9.33961 21.2483 12.1095 19.1709L15.2934 16.783L12.1095 14.395C9.33961 12.3177 7.70947 9.05738 7.70947 5.59505V4.78296ZM9.71143 5.78296C9.73305 6.82072 9.93345 7.83378 10.2927 8.78235H23.6273C23.9866 7.83377 24.1869 6.82072 24.2086 5.78296H9.71143ZM13.3095 20.7709C11.0934 22.4329 9.76899 25.0204 9.71143 27.783H24.2086C24.151 25.0204 22.8266 22.4329 20.6105 20.7709L16.96 18.033L13.3095 20.7709Z" fill="#1C1B1F"/>
</svg>
