<svg width="33" height="33" viewBox="0 0 33 33" fill="none" xmlns="http://www.w3.org/2000/svg">
<path fill-rule="evenodd" clip-rule="evenodd" d="M7.70947 4.78296C7.70947 4.23067 8.15719 3.78296 8.70947 3.78296H25.2105C25.7628 3.78296 26.2105 4.23067 26.2105 4.78296V7.32382C26.2105 10.9644 24.4093 14.3692 21.3996 16.4175L20.8627 16.783L21.3996 17.1484C24.4093 19.1968 26.2105 22.6015 26.2105 26.2421V28.783C26.2105 29.3352 25.7628 29.783 25.2105 29.783H8.70947C8.15719 29.783 7.70947 29.3352 7.70947 28.783V26.2421C7.70947 22.6015 9.51072 19.1968 12.5204 17.1484L13.0573 16.783L12.5204 16.4175C9.51072 14.3692 7.70947 10.9644 7.70947 7.32382V4.78296ZM15.3759 17.6242L13.6457 18.8018C11.1832 20.4777 9.70947 23.2634 9.70947 26.2421V27.783H24.2105V26.2421C24.2105 23.2634 22.7368 20.4777 20.2743 18.8018L18.544 17.6242C18.4862 17.587 18.4318 17.5436 18.3818 17.494L17.1008 17.4954L17.0986 17.4954C16.4052 17.4962 15.9078 17.4968 15.5357 17.4965C15.4864 17.545 15.4328 17.5877 15.3759 17.6242ZM24.2105 7.32382C24.2105 8.16585 24.0928 8.99247 23.8682 9.78296H10.0518C9.82725 8.99247 9.70947 8.16585 9.70947 7.32382V5.78296H24.2105V7.32382Z" fill="#1C1B1F"/>
</svg>
