<svg width="33" height="33" viewBox="0 0 33 33" fill="none" xmlns="http://www.w3.org/2000/svg">
<path fill-rule="evenodd" clip-rule="evenodd" d="M8.70947 3.78296C8.15719 3.78296 7.70947 4.23067 7.70947 4.78296V7.32382C7.70947 10.9644 9.51072 14.3692 12.5204 16.4175L13.0573 16.783L12.5204 17.1484C9.51072 19.1968 7.70947 22.6015 7.70947 26.2421V28.783C7.70947 29.3352 8.15719 29.783 8.70947 29.783H25.2105C25.7628 29.783 26.2105 29.3352 26.2105 28.783V26.2421C26.2105 22.6015 24.4093 19.1968 21.3996 17.1484L20.8627 16.783L21.3996 16.4175C24.4093 14.3692 26.2105 10.9644 26.2105 7.32382V4.78296C26.2105 4.23067 25.7628 3.78296 25.2105 3.78296H8.70947ZM18.3579 17.4695C18.4143 17.5294 18.4769 17.581 18.5441 17.6242L20.2743 18.8018C22.0407 20.004 23.2983 21.7771 23.8682 23.7829H10.0518C10.6217 21.7771 11.8793 20.004 13.6457 18.8018L15.3759 17.6242C15.4431 17.5811 15.5057 17.5294 15.562 17.4695C15.6324 17.3952 15.6896 17.3116 15.7332 17.2223C15.8018 17.0824 15.835 16.9321 15.8348 16.783C15.835 16.6339 15.8018 16.4835 15.7332 16.3436C15.6896 16.2543 15.6324 16.1707 15.562 16.0964C15.5057 16.0365 15.4431 15.9849 15.3759 15.9417L13.6457 14.7641C11.1832 13.0882 9.70947 10.3025 9.70947 7.32382V5.78296H24.2105V7.32382C24.2105 10.3025 22.7368 13.0882 20.2743 14.7641L18.5441 15.9417C18.4769 15.9849 18.4143 16.0366 18.3579 16.0965C18.2876 16.1708 18.2304 16.2543 18.1868 16.3436C18.1182 16.4835 18.085 16.6339 18.0852 16.783C18.085 16.9321 18.1182 17.0824 18.1868 17.2223C18.2304 17.3116 18.2876 17.3951 18.3579 17.4695Z" fill="#1C1B1F"/>
</svg>
