<svg width="32" height="33" viewBox="0 0 32 33" fill="none" xmlns="http://www.w3.org/2000/svg">
<path fill-rule="evenodd" clip-rule="evenodd" d="M4.6875 1.50085C4.6875 0.94857 5.13522 0.500854 5.6875 0.500854H26.3126C26.8649 0.500854 27.3126 0.94857 27.3126 1.50085V3.76553C27.3126 7.22786 25.6824 10.4881 22.9126 12.5655L17.6667 16.4999L22.9126 20.4343C25.6824 22.5117 27.3126 25.772 27.3126 29.2343V31.499C27.3126 32.0513 26.8649 32.499 26.3126 32.499H5.6875C5.13522 32.499 4.6875 32.0513 4.6875 31.499V29.2343C4.6875 25.772 6.31764 22.5117 9.0875 20.4343L14.3334 16.4999L9.0875 12.5655C6.31764 10.4881 4.6875 7.22786 4.6875 3.76553V1.50085ZM6.6875 2.50085V3.76553C6.6875 6.22727 7.69472 8.56417 9.44583 10.2496H22.5542C24.3054 8.56417 25.3126 6.22727 25.3126 3.76553V2.50085H6.6875ZM6.6875 29.2343V30.499H25.3126V29.2343C25.3126 26.4015 23.9788 23.734 21.7126 22.0343L16 17.7499L10.2875 22.0343C8.02125 23.734 6.6875 26.4015 6.6875 29.2343Z" fill="#111827"/>
</svg>
