<svg width="33" height="33" viewBox="0 0 33 33" fill="none" xmlns="http://www.w3.org/2000/svg">
<path fill-rule="evenodd" clip-rule="evenodd" d="M9.18271 4.78296C8.63043 4.78296 8.18271 5.23067 8.18271 5.78296V5.9662C8.18271 9.11377 9.66466 12.0777 12.1827 13.9662L15.9383 16.7829L12.1826 19.5996C9.66456 21.4882 8.18262 24.4521 8.18262 27.5996V27.7829C8.18262 28.3352 8.63033 28.7829 9.18262 28.7829H24.7374C25.2897 28.7829 25.7374 28.3352 25.7374 27.7829V27.5996C25.7374 24.4521 24.2555 21.4882 21.7374 19.5996L17.9818 16.783L21.7375 13.9662C24.2556 12.0777 25.7375 9.11377 25.7375 5.9662V5.78296C25.7375 5.23067 25.2898 4.78296 24.7375 4.78296H9.18271Z" fill="#1C1B1F"/>
</svg>
