<svg width="33" height="33" viewBox="0 0 33 33" fill="none" xmlns="http://www.w3.org/2000/svg">
<path fill-rule="evenodd" clip-rule="evenodd" d="M8.70947 3.78296C8.15719 3.78296 7.70947 4.23067 7.70947 4.78296V5.59505C7.70947 9.05738 9.33961 12.3177 12.1095 14.395L15.2934 16.783L12.1095 19.1709C9.33961 21.2483 7.70947 24.5085 7.70947 27.9709V28.783C7.70947 29.3352 8.15719 29.783 8.70947 29.783H25.2105C25.7628 29.783 26.2105 29.3352 26.2105 28.783V27.9709C26.2105 24.5085 24.5804 21.2483 21.8105 19.1709L18.6267 16.783L21.8105 14.3951C24.5804 12.3177 26.2105 9.05738 26.2105 5.59505V4.78296C26.2105 4.23067 25.7628 3.78296 25.2105 3.78296H8.70947ZM13.3095 12.795C11.0934 11.133 9.76899 8.54551 9.71143 5.78296H24.2086C24.151 8.54551 22.8266 11.133 20.6105 12.7951L16.96 15.5329L13.3095 12.795ZM20.6105 20.7709C21.9941 21.8086 23.0302 23.207 23.6273 24.7836H10.2927C10.8898 23.207 11.9259 21.8086 13.3095 20.7709L16.96 18.033L20.6105 20.7709Z" fill="#1C1B1F"/>
</svg>
