<svg width="32" height="33" viewBox="0 0 32 33" fill="none" xmlns="http://www.w3.org/2000/svg">
<path fill-rule="evenodd" clip-rule="evenodd" d="M4.6875 1.50085C4.6875 0.94857 5.13522 0.500854 5.6875 0.500854H26.3126C26.8649 0.500854 27.3126 0.94857 27.3126 1.50085V5.99893C27.3126 9.63951 25.5113 13.0443 22.5017 15.0926L20.4339 16.4999L22.5017 17.9072C25.5113 19.9556 27.3126 23.3603 27.3126 27.0009V31.499C27.3126 32.0513 26.8649 32.499 26.3126 32.499H5.6875C5.13522 32.499 4.6875 32.0513 4.6875 31.499V27.0009C4.6875 23.3603 6.48875 19.9556 9.49841 17.9072L11.5662 16.4999L9.49841 15.0926C6.48875 13.0443 4.6875 9.63951 4.6875 5.99893V1.50085ZM13.6794 17.481L10.6237 19.5606C8.16125 21.2366 6.6875 24.0223 6.6875 27.0009V30.499H25.3126V27.0009C25.3126 24.0223 23.8388 21.2366 21.3764 19.5606L18.3207 17.481H13.6794ZM25.3126 5.99893C25.3126 7.50489 24.9359 8.96153 24.2451 10.2504H7.75495C7.06421 8.96153 6.6875 7.50489 6.6875 5.99893V2.50085H25.3126V5.99893Z" fill="#111827"/>
</svg>
