<svg width="32" height="33" viewBox="0 0 32 33" fill="none" xmlns="http://www.w3.org/2000/svg">
<path fill-rule="evenodd" clip-rule="evenodd" d="M5.6875 0.500854C5.13522 0.500854 4.6875 0.94857 4.6875 1.50085V3.76553C4.6875 7.22786 6.31764 10.4881 9.0875 12.5655L14.3334 16.4999L9.0875 20.4343C6.31764 22.5117 4.6875 25.772 4.6875 29.2343V31.499C4.6875 32.0513 5.13522 32.499 5.6875 32.499H26.3126C26.8649 32.499 27.3126 32.0513 27.3126 31.499V29.2343C27.3126 25.772 25.6824 22.5117 22.9126 20.4343L17.6667 16.4999L22.9126 12.5655C25.6824 10.4881 27.3126 7.22786 27.3126 3.76553V1.50085C27.3126 0.94857 26.8649 0.500854 26.3126 0.500854H5.6875ZM6.6875 3.76553V2.50085H25.3126V3.76553C25.3126 6.59835 23.9788 9.26584 21.7126 10.9655L16 15.2499L10.2875 10.9655C8.02125 9.26584 6.6875 6.59834 6.6875 3.76553ZM21.7126 22.0343C23.2274 23.1704 24.3255 24.7389 24.8873 26.5002H7.1128C7.67453 24.7389 8.77271 23.1704 10.2875 22.0343L16 17.7499L21.7126 22.0343Z" fill="#111827"/>
</svg>
