<svg width="32" height="33" viewBox="0 0 32 33" fill="none" xmlns="http://www.w3.org/2000/svg">
<path fill-rule="evenodd" clip-rule="evenodd" d="M5.29697 0.5C4.74469 0.5 4.29697 0.947715 4.29697 1.5V3.74432C4.29697 6.89189 5.77891 9.85577 8.29697 11.7443L14.6377 16.4999L8.29687 21.2555C5.77881 23.1441 4.29688 26.1079 4.29688 29.2555V31.4998C4.29688 32.0521 4.74459 32.4998 5.29688 32.4998H26.7032C27.2555 32.4998 27.7032 32.0521 27.7032 31.4998V29.2555C27.7032 26.1079 26.2213 23.1441 23.7032 21.2555L17.3625 16.5L23.7033 11.7443C26.2214 9.85578 27.7033 6.8919 27.7033 3.74432V1.5C27.7033 0.947715 27.2556 0.5 26.7033 0.5H5.29697Z" fill="#111827"/>
</svg>
