<svg width="32" height="32" viewBox="0 0 32 32" fill="none" xmlns="http://www.w3.org/2000/svg">
<path d="M0.985898 13.5975L15.1518 0.61217C15.5308 0.264743 16.1115 0.261345 16.4945 0.604312L31.0054 13.5966C31.2173 13.7863 31.3384 14.0572 31.3384 14.3416V31C31.3384 31.5523 30.8906 32 30.3384 32H21.3308C20.7786 32 20.3308 31.5523 20.3308 31V22.1729C20.3308 21.6207 19.8831 21.1729 19.3308 21.1729H12.4286C11.8763 21.1729 11.4286 21.6207 11.4286 22.1729V31C11.4286 31.5523 10.9809 32 10.4286 32H1.66162C1.10934 32 0.661621 31.5523 0.661621 31V14.3346C0.661621 14.0543 0.779268 13.7869 0.985898 13.5975Z" fill="#111827"/>
</svg>
