<svg width="32" height="32" viewBox="0 0 32 32" fill="none" xmlns="http://www.w3.org/2000/svg">
<path fill-rule="evenodd" clip-rule="evenodd" d="M15.2028 3.59021L4.01532 13.418C3.79919 13.6079 3.6753 13.8816 3.6753 14.1693V26.6585H1.00098C0.448692 26.6585 0.000976562 27.1062 0.000976562 27.6585C0.000976562 28.2108 0.448692 28.6585 1.00098 28.6585H30.9991C31.5514 28.6585 31.9991 28.2108 31.9991 27.6585C31.9991 27.1062 31.5514 26.6585 30.9991 26.6585H28.3247V14.1764C28.3247 13.8846 28.1973 13.6074 27.9759 13.4174L16.514 3.58257C16.136 3.25825 15.577 3.26151 15.2028 3.59021ZM19.48 26.6585V20.3213C19.48 19.769 19.0322 19.3213 18.48 19.3213H13.3268C12.7745 19.3213 12.3268 19.769 12.3268 20.3213V26.6585H19.48Z" fill="#111827"/>
</svg>
