<svg width="33" height="33" viewBox="0 0 33 33" fill="none" xmlns="http://www.w3.org/2000/svg">
<path d="M5.78033 14.4067L16.1567 4.89507C16.5357 4.54764 17.1164 4.54424 17.4995 4.88721L28.1307 14.4058C28.3425 14.5955 28.4636 14.8665 28.4636 15.1509V27.2829C28.4636 27.8352 28.0159 28.2829 27.4636 28.2829H21.208C20.6557 28.2829 20.208 27.8352 20.208 27.2829V21.1626C20.208 20.6103 19.7603 20.1626 19.208 20.1626H14.5313C13.979 20.1626 13.5313 20.6103 13.5313 21.1626V27.2829C13.5313 27.8352 13.0836 28.2829 12.5313 28.2829H6.45605C5.90377 28.2829 5.45605 27.8352 5.45605 27.2829V15.1438C5.45605 14.8635 5.5737 14.5961 5.78033 14.4067Z" fill="#1C1B1F"/>
</svg>
