<svg width="32" height="33" viewBox="0 0 32 33" fill="none" xmlns="http://www.w3.org/2000/svg">
<g clip-path="url(#clip0_341_168)">
<path fill-rule="evenodd" clip-rule="evenodd" d="M29.4254 19.2097C29.6547 18.207 29.7759 17.163 29.7759 16.0906C29.7759 8.41724 23.5741 2.19678 15.9237 2.19678C8.27342 2.19678 2.0716 8.41724 2.0716 16.0906C2.0716 17.1852 2.1978 18.2502 2.43641 19.2718C2.65167 19.0352 3.14271 18.6676 3.84365 18.6119C4.83032 18.5335 5.84876 19.0799 6.73827 20.2258C7.02142 19.8171 7.87299 19.0607 9.01413 19.3043C10.1553 19.548 10.7184 20.5064 10.8573 20.9551C11.1618 21.7485 12.0256 23.582 13.045 24.5693C13.5765 25.0047 14.6685 26.3066 14.7839 28.0311C14.829 28.7042 14.6951 29.3367 14.4491 29.9065C14.9337 29.958 15.4256 29.9843 15.9237 29.9843C16.4462 29.9843 16.962 29.9553 17.4694 29.8988C17.2256 29.331 17.0932 28.7012 17.138 28.0311C17.2534 26.3066 18.3454 25.0047 18.8769 24.5693C19.8963 23.582 20.7601 21.7485 21.0646 20.9551C21.2036 20.5064 21.7666 19.548 22.9078 19.3043C24.0489 19.0607 24.9005 19.8171 25.1836 20.2258C26.0731 19.0799 27.0916 18.5335 28.0783 18.6119C28.7203 18.6629 29.1863 18.9756 29.4254 19.2097ZM27.9305 20.1953C28.3872 20.169 28.6392 20.5519 28.4983 21.3327C28.3986 21.886 27.4701 22.8301 26.6023 23.7127L26.6006 23.7144L26.6003 23.7147C25.7194 24.6102 24.9015 25.4417 25.0762 25.7361C25.133 25.8316 25.2131 25.8775 25.3075 25.8875C25.6145 25.8585 26.0269 25.5388 26.2935 25.3026C26.2148 25.3917 26.135 25.4797 26.054 25.5668C26.3766 25.3296 26.647 25.0485 26.647 25.0485C26.647 25.0485 30.4752 21.5647 31.3089 22.4726C32.0771 23.3093 30.8922 24.0208 29.0662 25.1173C28.9065 25.2132 28.747 25.3093 28.5876 25.4056C26.4986 26.6702 26.3361 27.0038 26.6325 27.4821C26.7421 27.6589 27.4404 27.2397 28.2995 26.7239L28.3013 26.7229L28.3024 26.7222C29.7687 25.842 31.7011 24.682 31.9741 25.7208C32.2104 26.6198 30.7885 27.1707 29.4987 27.6703L29.4979 27.6706L29.4976 27.6708C28.4231 28.087 27.4403 28.4677 27.5848 28.9844C27.7345 29.5201 28.5465 29.0732 29.4341 28.5846L29.4343 28.5845C30.431 28.036 31.5231 27.435 31.8803 28.1135C32.556 29.3961 27.2197 30.9038 27.1766 30.9148C25.4527 31.3633 21.0749 32.3107 19.5454 30.0683C19.4323 29.9024 19.3317 29.7408 19.2437 29.5827C19.2187 29.5889 19.1937 29.595 19.1687 29.601C18.3888 28.212 18.5867 27.0937 19.9477 25.7335C21.458 24.224 22.3369 22.0167 22.3369 22.0167C22.3369 22.0167 22.6494 20.7956 23.36 20.8463C23.4045 20.8431 23.4506 20.8449 23.4985 20.8524C24.2468 20.9701 24.7957 22.886 23.2292 24.0588C22.2118 24.8203 22.6471 25.4226 23.2425 25.4501C23.5419 25.4364 23.8655 25.2784 24.0584 24.9262C24.6616 23.8255 26.3068 20.9964 27.1602 20.4552C27.4546 20.2685 27.7189 20.1823 27.9305 20.1953ZM5.353 25.0493C5.353 25.0493 6.15948 25.8878 6.64842 25.8897C6.75683 25.8873 6.8489 25.8424 6.91203 25.7361C7.08698 25.4418 6.2689 24.61 5.3879 23.7143C4.51955 22.8314 3.59012 21.8864 3.49017 21.3328C3.35395 20.5776 3.58516 20.1946 4.01364 20.1941C4.21994 20.1907 4.47305 20.2774 4.75348 20.4552C5.60698 20.9964 7.25328 23.8255 7.85626 24.9262C8.05903 25.2963 8.40601 25.452 8.71771 25.4511C9.3277 25.4422 9.7939 24.8327 8.76024 24.0589C7.19355 22.8861 7.74243 20.9702 8.49066 20.8525C8.52355 20.8473 8.55564 20.8449 8.58692 20.8449C9.2747 20.8326 9.57771 22.0167 9.57771 22.0167C9.57771 22.0167 10.4567 24.224 11.9671 25.7335C13.4771 27.2428 13.5552 28.4542 12.4545 30.0683C10.9245 32.3107 6.54668 31.3633 4.82282 30.9162C4.77881 30.9051 -0.556527 29.3959 0.118895 28.1141C0.47632 27.4361 1.5684 28.0368 2.56512 28.5854C3.45291 29.0739 4.26514 29.5208 4.41497 28.985C4.55964 28.4682 3.57691 28.0876 2.50239 27.6713L2.50202 27.6712L2.50154 27.671C1.21171 27.1713 -0.210259 26.6204 0.0259167 25.7214C0.298983 24.6825 2.23225 25.8431 3.69845 26.7236L3.69919 26.724L3.69922 26.7241C4.55896 27.2401 5.25784 27.6596 5.36729 27.4828C5.66383 27.0044 5.50136 26.6708 3.41238 25.4061C3.24861 25.3071 3.0887 25.211 2.93355 25.1178L2.93274 25.1174C1.10736 24.0212 -0.0770523 23.3099 0.691234 22.4732C1.52455 21.5652 5.353 25.0493 5.353 25.0493ZM20.8706 12.9274C20.7173 12.7053 20.5561 12.472 20.3393 12.3954C20.1393 12.3246 19.8768 12.4295 19.625 12.5302C19.3037 12.6587 18.9993 12.7805 18.8621 12.5225C18.7233 12.2613 18.6443 11.9728 18.6303 11.6774C18.6166 11.3821 18.6685 11.0873 18.7822 10.8144C18.8959 10.5415 19.0688 10.2972 19.2883 10.0991C19.5079 9.90097 19.7685 9.75401 20.0516 9.66875C20.3348 9.58345 20.6333 9.56202 20.9258 9.60601C21.2181 9.65001 21.4973 9.75832 21.7428 9.92314C21.9882 10.088 22.1941 10.3052 22.3456 10.5592C22.4971 10.8132 22.5903 11.0977 22.6185 11.3921C22.6563 11.7857 22.5765 12.1817 22.3893 12.5302C22.2022 12.8786 21.9159 13.1636 21.5668 13.3494C21.2708 13.5067 21.0779 13.2274 20.8706 12.9274ZM10.3867 12.927C10.54 12.7052 10.7011 12.472 10.9177 12.3954C11.118 12.3246 11.3801 12.4295 11.632 12.5304L11.6325 12.5305C11.9536 12.6588 12.2578 12.7804 12.3951 12.5225C12.5807 12.1733 12.6586 11.7769 12.619 11.3834C12.5792 10.99 12.4239 10.6171 12.1723 10.312C11.9207 10.0069 11.5844 9.78315 11.2057 9.66911C10.7301 9.52508 10.2179 9.56328 9.76898 9.77631C9.32006 9.98933 8.96655 10.3619 8.77736 10.8214C8.58818 11.2808 8.57686 11.7943 8.74563 12.2617C8.91443 12.729 9.25118 13.1168 9.69031 13.3494C9.98611 13.5067 10.1792 13.2276 10.3865 12.9274L10.3867 12.927ZM20.9236 16.6885C20.9236 17.8717 20.3751 19.7926 18.8818 20.969C18.8726 20.952 18.8633 20.935 18.8539 20.9182C18.8633 20.935 18.8725 20.9519 18.8815 20.9688C18.1038 21.5817 17.07 21.9926 15.7238 21.9926C14.4589 21.9926 13.4697 21.6299 12.7098 21.0777C12.738 21.0203 12.7679 20.9638 12.7992 20.9082C12.7678 20.9639 12.7379 21.0205 12.7096 21.0779C11.1079 19.9136 10.5244 17.9093 10.5244 16.6887C10.5244 15.736 11.1766 16.0591 12.2166 16.5742L12.2167 16.5743C13.1411 17.0324 14.372 17.6421 15.7234 17.6421C17.0743 17.6421 18.3049 17.0327 19.2295 16.5748L19.2302 16.5744L19.2871 16.5464C20.2944 16.0476 20.9236 15.7532 20.9236 16.6885ZM7.3468 14.0594C7.16913 14.1783 6.96485 14.2514 6.7521 14.2723C6.53935 14.2934 6.32471 14.2615 6.12726 14.1795C5.96942 14.1144 5.82599 14.0187 5.70524 13.8979C5.58448 13.7772 5.48877 13.6338 5.42359 13.4759C5.3418 13.2784 5.30999 13.0638 5.33102 12.8511C5.35204 12.6383 5.42523 12.434 5.54408 12.2563C5.68691 12.0425 5.88992 11.8759 6.12748 11.7775C6.36504 11.6791 6.62644 11.6533 6.87862 11.7035C7.13082 11.7537 7.36244 11.8776 7.5442 12.0594C7.72595 12.2413 7.84968 12.4731 7.89971 12.7253C7.94983 12.9774 7.92405 13.2388 7.82568 13.4762C7.72729 13.7137 7.56052 13.9166 7.3468 14.0594ZM25.9448 14.0594C25.7671 14.1783 25.5628 14.2514 25.3501 14.2723C25.1372 14.2934 24.9226 14.2615 24.7251 14.1795C24.5672 14.1143 24.4238 14.0187 24.3031 13.8979C24.1825 13.7772 24.0867 13.6338 24.0214 13.4759C23.9398 13.2784 23.9081 13.0638 23.929 12.8511C23.9501 12.6383 24.0233 12.434 24.1419 12.2563C24.2487 12.0964 24.3897 11.9624 24.5546 11.8635C24.7194 11.7647 24.9041 11.7036 25.0954 11.6848C25.2868 11.666 25.4799 11.6899 25.6608 11.7547C25.8418 11.8196 26.0061 11.9237 26.142 12.0598C26.3239 12.2415 26.4477 12.4731 26.4977 12.7253C26.548 12.9774 26.5221 13.2388 26.4237 13.4762C26.3252 13.7137 26.1587 13.9166 25.9448 14.0594Z" fill="#111827"/>
</g>
<defs>
<clipPath id="clip0_341_168">
<rect width="32" height="32" fill="white" transform="translate(0 0.848877)"/>
</clipPath>
</defs>
</svg>
