<svg width="33" height="32" viewBox="0 0 33 32" fill="none" xmlns="http://www.w3.org/2000/svg">
<path d="M0.725098 9.6001V10.4758H6.95383V9.6001H0.725098ZM7.83633 9.6001V10.4758H16.7126C16.7126 10.4758 15.8059 9.6001 14.6051 9.6001H7.83633ZM18.4538 9.6001V10.4758H23.8238L23.5051 9.6001H18.4538ZM27.6738 9.6001L27.3551 10.4758H32.6763V9.6001H27.6738ZM0.725098 11.3032V12.1789H6.95383V11.3032H0.725098ZM7.83633 11.3044V12.179H17.7426C17.7426 12.179 17.6269 11.505 17.4251 11.3044H7.83633ZM18.4538 11.3044V12.179H24.4126L24.1176 11.3044H18.4538ZM27.0363 11.3044L26.7413 12.179H32.6763V11.3044H27.0363ZM2.51508 13.0063V13.8833H5.21259V13.0063H2.51508ZM9.62635 13.0063V13.8833H12.3239V13.0063H9.62635ZM14.9476 13.0063V13.8833H17.6451C17.6451 13.8833 17.8164 13.4202 17.8164 13.0063H14.9476ZM20.2439 13.0063V13.8833H25.0263L24.7076 13.0063H20.2439ZM26.4488 13.0063L26.1288 13.8833H30.9351V13.0063H26.4488ZM2.51508 14.7107V15.5864H5.21259V14.7107H2.51508ZM9.62635 14.7107V15.5864H16.5163C16.5163 15.5864 17.0927 15.1371 17.2763 14.7107H9.62635ZM20.2439 14.7107V15.5864H22.9414V15.0989L23.1126 15.5864H28.0539L28.2376 15.0989V15.5864H30.9351V14.7107H25.8713L25.6026 15.4524L25.3326 14.7107H20.2439ZM2.51508 16.4138V17.2895H5.21259V16.4138H2.51508ZM9.62635 16.4138V17.2895H17.2763C17.0927 16.8645 16.5163 16.4138 16.5163 16.4138H9.62635ZM20.2439 16.4138V17.2895H22.9414V16.4138H20.2439ZM23.4313 16.4138L23.7576 17.2895H27.4626L27.7726 16.4138H23.4313ZM28.2376 16.4138V17.2895H30.9351V16.4138H28.2376ZM2.51508 18.1169V18.9926H5.21259V18.1169H2.51508ZM9.62635 18.1169V18.9926H12.3239V18.1169H9.62635ZM14.9476 18.1169V18.9926H17.8163C17.8163 18.5793 17.6451 18.1169 17.6451 18.1169H14.9476ZM20.2439 18.1169V18.9926H22.9414V18.1169H20.2439ZM24.0438 18.1169L24.3601 18.9926H26.8439L27.1626 18.1169H24.0438ZM28.2376 18.1169V18.9926H30.9351V18.1169H28.2376ZM0.773834 19.82V20.697H7.00257V19.82H0.773834ZM7.83633 19.82V20.697H17.4251C17.6269 20.4962 17.7426 19.82 17.7426 19.82H7.83633ZM18.5026 19.82V20.697H22.9414V19.82H18.5026ZM24.6576 19.82L24.9826 20.697H26.2463L26.5513 19.82H24.6576ZM28.2376 19.82V20.697H32.7251V19.82H28.2376ZM0.773834 21.5244V22.4001H7.00257V21.5244H0.773834ZM7.83633 21.5244V22.3989H14.6051C15.8059 22.3989 16.7126 21.5244 16.7126 21.5244H7.83633ZM18.5026 21.5244V22.4001H22.9414V21.5244H18.5026ZM25.2738 21.5244L25.5863 22.3976L25.6401 22.3989L25.9576 21.5244H25.2738ZM28.2376 21.5244V22.4001H32.7251V21.5244H28.2376Z" fill="#111827"/>
</svg>
