<svg width="33" height="33" viewBox="0 0 33 33" fill="none" xmlns="http://www.w3.org/2000/svg">
<path fill-rule="evenodd" clip-rule="evenodd" d="M5.95996 6.78296C5.40768 6.78296 4.95996 7.23067 4.95996 7.78296V25.783C4.95996 26.3352 5.40768 26.783 5.95996 26.783H27.96C28.5122 26.783 28.96 26.3352 28.96 25.783V7.78296C28.96 7.23067 28.5122 6.78296 27.96 6.78296H5.95996ZM10.7051 14.5809C10.7051 13.3118 11.7338 12.2831 13.0029 12.2831C14.2719 12.2831 15.3007 13.3118 15.3007 14.5809C15.3007 15.8459 14.2785 16.8721 13.0151 16.8787L13.0028 16.8787L12.9906 16.8787C11.7272 16.872 10.7051 15.8458 10.7051 14.5809ZM17.3007 14.5809C17.3007 15.8272 16.7702 16.9496 15.9227 17.7346C17.4171 18.696 18.4069 20.3738 18.4069 22.2828C18.4069 22.8351 17.9592 23.2828 17.4069 23.2828C16.8546 23.2828 16.4069 22.8351 16.4069 22.2828C16.4069 20.4072 14.89 18.8859 13.0162 18.8787L13.0029 18.8787L12.9895 18.8787C11.1155 18.8858 9.59863 20.4072 9.59863 22.2828C9.59863 22.8351 9.15092 23.2828 8.59863 23.2828C8.04635 23.2828 7.59863 22.8351 7.59863 22.2828C7.59863 20.3738 8.5885 18.6959 10.083 17.7345C9.23553 16.9495 8.70508 15.8272 8.70508 14.5809C8.70508 12.2073 10.6293 10.2831 13.0029 10.2831C15.3765 10.2831 17.3007 12.2073 17.3007 14.5809ZM18.96 14.783C18.96 14.2307 19.4077 13.783 19.96 13.783H24.96C25.5122 13.783 25.96 14.2307 25.96 14.783C25.96 15.3352 25.5122 15.783 24.96 15.783H19.96C19.4077 15.783 18.96 15.3352 18.96 14.783ZM18.96 18.783C18.96 18.2307 19.4077 17.783 19.96 17.783H24.96C25.5122 17.783 25.96 18.2307 25.96 18.783C25.96 19.3352 25.5122 19.783 24.96 19.783H19.96C19.4077 19.783 18.96 19.3352 18.96 18.783Z" fill="#1C1B1F"/>
</svg>
