<svg width="32" height="33" viewBox="0 0 32 33" fill="none" xmlns="http://www.w3.org/2000/svg">
<path fill-rule="evenodd" clip-rule="evenodd" d="M1 3.16675C0.447715 3.16675 0 3.61446 0 4.16675V28.8334C0 29.3857 0.447715 29.8334 1 29.8334H31C31.5523 29.8334 32 29.3857 32 28.8334V4.16675C32 3.61446 31.5523 3.16675 31 3.16675H1ZM7.32699 13.564C7.32699 11.6878 8.84791 10.1669 10.7241 10.1669C12.6002 10.1669 14.1212 11.6878 14.1212 13.564C14.1212 15.4345 12.6094 16.9519 10.741 16.961L10.7239 16.961L10.707 16.961C8.83872 16.9518 7.32699 15.4344 7.32699 13.564ZM16.1212 13.564C16.1212 15.2911 15.3098 16.8288 14.0475 17.8167C16.1635 18.9881 17.5961 21.2433 17.5961 23.8332C17.5961 24.3854 17.1484 24.8332 16.5961 24.8332C16.0438 24.8332 15.5961 24.3854 15.5961 23.8332C15.5961 21.1484 13.4245 18.9708 10.742 18.961L10.7241 18.961L10.706 18.961C8.02339 18.9707 5.85173 21.1483 5.85173 23.8332C5.85173 24.3854 5.40401 24.8332 4.85173 24.8332C4.29944 24.8332 3.85173 24.3854 3.85173 23.8332C3.85173 21.2432 5.28441 18.988 7.40049 17.8166C6.13824 16.8287 5.32699 15.2911 5.32699 13.564C5.32699 10.5832 7.74334 8.16687 10.7241 8.16687C13.7048 8.16687 16.1212 10.5832 16.1212 13.564ZM19.0002 13.8334C19.0002 13.2811 19.4479 12.8334 20.0002 12.8334H26.6668C27.2191 12.8334 27.6668 13.2811 27.6668 13.8334C27.6668 14.3857 27.2191 14.8334 26.6668 14.8334H20.0002C19.4479 14.8334 19.0002 14.3857 19.0002 13.8334ZM19.0002 19.1667C19.0002 18.6144 19.4479 18.1667 20.0002 18.1667H26.6668C27.2191 18.1667 27.6668 18.6144 27.6668 19.1667C27.6668 19.719 27.2191 20.1667 26.6668 20.1667H20.0002C19.4479 20.1667 19.0002 19.719 19.0002 19.1667Z" fill="#111827"/>
</svg>
