<svg width="32" height="33" viewBox="0 0 32 33" fill="none" xmlns="http://www.w3.org/2000/svg">
<path fill-rule="evenodd" clip-rule="evenodd" d="M0.000976562 4.00073C0.000976562 3.44845 0.448692 3.00073 1.00098 3.00073H30.9991C31.5514 3.00073 31.9991 3.44845 31.9991 4.00073V28.9992C31.9991 29.5515 31.5514 29.9992 30.9991 29.9992H1.00098C0.448692 29.9992 0.000976562 29.5515 0.000976562 28.9992V4.00073ZM2.00098 21.7219L9.06911 14.6537C9.26437 14.4585 9.58095 14.4585 9.77621 14.6537L17.3808 22.2584C17.5761 22.4536 17.8927 22.4536 18.0879 22.2584L23.0113 17.335C23.2066 17.1397 23.5231 17.1397 23.7184 17.335L29.9991 23.6157V5.00073H2.00098V21.7219ZM20.3748 14.0001C21.4102 14.0001 22.2497 13.1607 22.2497 12.1252C22.2497 11.0898 21.4102 10.2503 20.3748 10.2503C19.3393 10.2503 18.4999 11.0898 18.4999 12.1252C18.4999 13.1607 19.3393 14.0001 20.3748 14.0001Z" fill="#111827"/>
</svg>
