<svg width="33" height="33" viewBox="0 0 33 33" fill="none" xmlns="http://www.w3.org/2000/svg">
<path fill-rule="evenodd" clip-rule="evenodd" d="M3.95996 4.78296C3.95996 4.23067 4.40768 3.78296 4.95996 3.78296H28.96C29.5122 3.78296 29.96 4.23067 29.96 4.78296V28.783C29.96 29.3352 29.5122 29.783 28.96 29.783H4.95996C4.40768 29.783 3.95996 29.3352 3.95996 28.783V4.78296ZM5.95996 21.5563L11.3135 15.1321C11.5134 14.8922 11.8818 14.8922 12.0817 15.1321L17.9633 22.1899C18.1632 22.4298 18.5316 22.4298 18.7315 22.1899L22.468 17.7062C22.6679 17.4663 23.0363 17.4663 23.2362 17.7062L27.96 23.3748V5.78296H5.95996V21.5563ZM20.46 14.383C21.2884 14.383 21.96 13.5771 21.96 12.583C21.96 11.5888 21.2884 10.783 20.46 10.783C19.6315 10.783 18.96 11.5888 18.96 12.583C18.96 13.5771 19.6315 14.383 20.46 14.383Z" fill="#1C1B1F"/>
</svg>
