<svg width="33" height="33" viewBox="0 0 33 33" fill="none" xmlns="http://www.w3.org/2000/svg">
<path fill-rule="evenodd" clip-rule="evenodd" d="M3.95996 6.78296C3.95996 6.23067 4.40768 5.78296 4.95996 5.78296H28.96C29.5122 5.78296 29.96 6.23067 29.96 6.78296V26.783C29.96 27.3352 29.5122 27.783 28.96 27.783H4.95996C4.40768 27.783 3.95996 27.3352 3.95996 26.783V6.78296ZM5.95996 20.7606L11.3441 15.3765C11.5393 15.1812 11.8559 15.1812 12.0512 15.3765L17.9939 21.3192C18.1891 21.5144 18.5057 21.5144 18.701 21.3192L22.4985 17.5216C22.6938 17.3264 23.0104 17.3264 23.2056 17.5216L27.96 22.276V7.78296H5.95996V20.7606ZM20.46 14.783C21.2884 14.783 21.96 14.1114 21.96 13.283C21.96 12.4545 21.2884 11.783 20.46 11.783C19.6315 11.783 18.96 12.4545 18.96 13.283C18.96 14.1114 19.6315 14.783 20.46 14.783Z" fill="#1C1B1F"/>
</svg>
