<svg width="32" height="33" viewBox="0 0 32 33" fill="none" xmlns="http://www.w3.org/2000/svg">
<path fill-rule="evenodd" clip-rule="evenodd" d="M0.000976562 1.50098C0.000976562 0.948692 0.448692 0.500977 1.00098 0.500977H30.9991C31.5514 0.500977 31.9991 0.948692 31.9991 1.50098V31.4991C31.9991 32.0514 31.5514 32.4991 30.9991 32.4991H1.00098C0.448692 32.4991 0.000976562 32.0514 0.000976562 31.4991V1.50098ZM2.00098 22.7664L9.03855 14.3214C9.23844 14.0815 9.60687 14.0815 9.80677 14.3214L17.3503 23.3736C17.5502 23.6134 17.9186 23.6134 18.1185 23.3736L22.9807 17.5388C23.1806 17.299 23.5491 17.299 23.749 17.5388L29.9991 25.0391V2.50098H2.00098V22.7664ZM20.3748 13.5002C21.4102 13.5002 22.2497 12.4929 22.2497 11.2504C22.2497 10.0078 21.4102 9.00051 20.3748 9.00051C19.3393 9.00051 18.4999 10.0078 18.4999 11.2504C18.4999 12.4929 19.3393 13.5002 20.3748 13.5002Z" fill="#111827"/>
</svg>
