<svg width="32" height="33" viewBox="0 0 32 33" fill="none" xmlns="http://www.w3.org/2000/svg">
<g clip-path="url(#clip0_349_630)">
<path fill-rule="evenodd" clip-rule="evenodd" d="M17.5291 7.35222C17.0603 7.57578 16.5355 7.70093 15.9814 7.70093C15.4486 7.70093 14.9428 7.58518 14.4879 7.37745L10.9795 12.8869L13.5673 14.3053C14.2248 13.5951 15.1652 13.1505 16.2095 13.1505C17.1844 13.1505 18.0688 13.5381 18.7171 14.1675L21.0535 12.8868L17.5291 7.35222ZM19.0398 6.00106C19.3832 5.44954 19.5815 4.79835 19.5815 4.10083C19.5815 2.11255 17.9697 0.500732 15.9814 0.500732C13.9932 0.500732 12.3814 2.11255 12.3814 4.10083C12.3814 4.82173 12.5932 5.49315 12.9581 6.05619L9.2219 11.9234L7.75736 11.1207C7.76818 11.007 7.77372 10.8918 7.77372 10.7753C7.77372 8.78705 6.16194 7.17528 4.17372 7.17528C2.18549 7.17528 0.573716 8.78705 0.573716 10.7753C0.573716 12.7635 2.18549 14.3753 4.17372 14.3753C4.33241 14.3753 4.4887 14.365 4.64196 14.3451L6.18084 16.699L4.41186 19.4769C4.19897 19.4377 3.97951 19.4172 3.75527 19.4172C1.76705 19.4172 0.155273 21.029 0.155273 23.0172C0.155273 25.0054 1.76705 26.6172 3.75527 26.6172C5.7435 26.6172 7.35527 25.0054 7.35527 23.0172C7.35527 22.9051 7.35014 22.7941 7.34011 22.6845L9.36743 21.5733L13.0116 27.1474C12.722 27.6661 12.5569 28.2638 12.5569 28.9C12.5569 30.8882 14.1687 32.5 16.1569 32.5C18.1451 32.5 19.7569 30.8882 19.7569 28.9C19.7569 28.1706 19.54 27.4918 19.1671 26.9247L22.6655 21.5733L24.7528 22.7174C24.7477 22.7955 24.7451 22.8743 24.7451 22.9536C24.7451 24.9142 26.3345 26.5036 28.2951 26.5036C30.2557 26.5036 31.8451 24.9142 31.8451 22.9536C31.8451 20.993 30.2557 19.4036 28.2951 19.4036C28.0628 19.4036 27.8356 19.4259 27.6157 19.4685L25.8521 16.699L27.3751 14.3694C27.6191 14.4216 27.8723 14.449 28.1318 14.449C30.12 14.449 31.7318 12.8372 31.7318 10.849C31.7318 8.8608 30.12 7.24902 28.1318 7.24902C26.1436 7.24902 24.5318 8.8608 24.5318 10.849C24.5318 10.8925 24.5326 10.9358 24.5341 10.9789L22.8111 11.9234L19.0398 6.00106ZM25.1776 12.9069L23.8876 13.614L24.6731 14.8475L25.6085 13.4167C25.4497 13.2606 25.3054 13.09 25.1776 12.9069ZM25.8345 20.3948L24.651 18.5363L23.7632 19.8942L25.456 20.8221C25.5706 20.6697 25.6972 20.5267 25.8345 20.3948ZM17.6333 25.6157L20.9064 20.6091L18.6668 19.3814C18.0235 19.9826 17.1594 20.3505 16.2095 20.3505C15.1898 20.3505 14.2692 19.9266 13.6142 19.2454L11.1265 20.609L14.4679 25.72C14.9716 25.4519 15.5465 25.3 16.1569 25.3C16.6831 25.3 17.1828 25.4129 17.6333 25.6157ZM12.6825 17.4754C12.6346 17.2412 12.6095 16.9988 12.6095 16.7505C12.6095 16.5262 12.63 16.3068 12.6692 16.0938L9.9029 14.5775L8.561 16.6848L10.0288 18.93L12.6825 17.4754ZM19.6928 17.663L22.0041 18.93L23.472 16.6848L22.1301 14.5775L19.7095 15.9043C19.7748 16.1757 19.8095 16.4591 19.8095 16.7505C19.8095 17.0658 19.7689 17.3716 19.6928 17.663ZM6.59934 20.8098L8.26973 19.8942L7.38196 18.5363L6.20712 20.3812C6.34901 20.5132 6.48023 20.6566 6.59934 20.8098ZM6.49605 13.5262L7.35988 14.8475L8.14532 13.6141L7.01048 12.992C6.85772 13.1872 6.68524 13.3663 6.49605 13.5262Z" fill="#111827"/>
</g>
<defs>
<clipPath id="clip0_349_630">
<rect width="32" height="32" fill="white" transform="translate(0 0.5)"/>
</clipPath>
</defs>
</svg>
