<svg width="32" height="32" viewBox="0 0 32 32" fill="none" xmlns="http://www.w3.org/2000/svg">
<path d="M12.8771 19.4134C11.74 21.2246 9.72489 22.4286 7.42857 22.4286C3.87817 22.4286 1 19.5504 1 16C1 12.4496 3.87817 9.57141 7.42857 9.57141C8.73413 9.57145 10.4604 10.2317 11.2518 10.9323C12.0326 11.6235 19.9341 20.3936 20.1474 20.6303C20.1541 20.6378 20.1554 20.6387 20.1625 20.6457L20.483 20.9612C21.5941 21.8779 23.0185 22.4286 24.5714 22.4286C28.1218 22.4286 31 19.5504 31 16C31 12.4496 28.1218 9.57141 24.5714 9.57141C22.5546 9.57141 20.7548 10.5001 19.5761 11.9532" stroke="#111827" stroke-width="2" stroke-linecap="round"/>
</svg>
