<svg width="33" height="33" viewBox="0 0 33 33" fill="none" xmlns="http://www.w3.org/2000/svg">
<path fill-rule="evenodd" clip-rule="evenodd" d="M16.96 28.283C23.5874 28.283 28.96 22.9104 28.96 16.283C28.96 9.65554 23.5874 4.28296 16.96 4.28296C10.3325 4.28296 4.95996 9.65554 4.95996 16.283C4.95996 22.9104 10.3325 28.283 16.96 28.283ZM16.96 14.283C17.5122 14.283 17.96 14.7307 17.96 15.283V22.283C17.96 22.8352 17.5122 23.283 16.96 23.283C16.4077 23.283 15.96 22.8352 15.96 22.283V15.283C15.96 14.7307 16.4077 14.283 16.96 14.283ZM18.21 10.783C18.21 11.6114 17.5384 12.283 16.71 12.283C15.8815 12.283 15.21 11.6114 15.21 10.783C15.21 9.95453 15.8815 9.28296 16.71 9.28296C17.5384 9.28296 18.21 9.95453 18.21 10.783Z" fill="#1C1B1F"/>
</svg>
