<svg width="32" height="32" viewBox="0 0 32 32" fill="none" xmlns="http://www.w3.org/2000/svg">
<path fill-rule="evenodd" clip-rule="evenodd" d="M16 32C24.8366 32 32 24.8366 32 16C32 7.16344 24.8366 0 16 0C7.16344 0 0 7.16344 0 16C0 24.8366 7.16344 32 16 32ZM16 13.6667C16.5523 13.6667 17 14.1144 17 14.6667V24C17 24.5523 16.5523 25 16 25C15.4477 25 15 24.5523 15 24V14.6667C15 14.1144 15.4477 13.6667 16 13.6667ZM17.6667 8.66667C17.6667 9.77124 16.7712 10.6667 15.6667 10.6667C14.5621 10.6667 13.6667 9.77124 13.6667 8.66667C13.6667 7.5621 14.5621 6.66667 15.6667 6.66667C16.7712 6.66667 17.6667 7.5621 17.6667 8.66667Z" fill="#111827"/>
</svg>
