<svg width="32" height="33" viewBox="0 0 32 33" fill="none" xmlns="http://www.w3.org/2000/svg">
<path fill-rule="evenodd" clip-rule="evenodd" d="M15.4177 0.623578C15.1053 0.450492 14.7243 0.45715 14.4181 0.641046L3.50298 7.1973C3.19838 7.38025 3.01375 7.7111 3.01796 8.06639C3.02217 8.42168 3.21459 8.74806 3.52343 8.92375L16.3303 16.209C16.8104 16.4821 17.4209 16.3143 17.694 15.8343C17.9671 15.3542 17.7993 14.7437 17.3192 14.4706L5.99906 8.03107L14.9532 2.6527L27.7574 9.74694C28.2405 10.0146 28.8491 9.83996 29.1167 9.35687C29.3844 8.87378 29.2098 8.26518 28.7267 7.99752L15.4177 0.623578ZM2.24769 10.4008C2.55606 10.2186 2.93831 10.2153 3.24982 10.392L15.4695 17.3251C15.9499 17.5976 16.1183 18.208 15.8458 18.6883C15.5732 19.1687 14.9629 19.3372 14.4826 19.0646L3.7781 12.9912L3.91469 23.8878L15.2403 30.4403C15.7183 30.7169 15.8817 31.3287 15.6051 31.8067C15.3285 32.2847 14.7168 32.4481 14.2387 32.1715L2.4211 25.3343C2.11602 25.1578 1.92639 24.8337 1.92197 24.4812L1.75643 11.2743C1.75194 10.9162 1.93932 10.583 2.24769 10.4008ZM30.0521 10.7759C30.3412 11.2465 30.1941 11.8623 29.7235 12.1514L18.4558 19.0729L18.4917 29.7339L28.7272 23.558C29.2001 23.2727 29.8147 23.4247 30.1 23.8976C30.3854 24.3705 30.2333 24.9851 29.7605 25.2704L18.0143 32.3579C17.706 32.5439 17.3214 32.5498 17.0075 32.3733C16.6937 32.1968 16.4989 31.8651 16.4977 31.505L16.4539 18.5181C16.4527 18.1694 16.6333 17.8452 16.9305 17.6627L28.6766 10.4472C29.1472 10.1582 29.7631 10.3053 30.0521 10.7759Z" fill="#111827"/>
</svg>
