<svg width="33" height="33" viewBox="0 0 33 33" fill="none" xmlns="http://www.w3.org/2000/svg">
<path fill-rule="evenodd" clip-rule="evenodd" d="M4.96021 9.28296C4.96021 6.52153 7.19878 4.28296 9.96021 4.28296H23.9602C26.7216 4.28296 28.9602 6.52154 28.9602 9.28296V23.283C28.9602 26.0444 26.7216 28.283 23.9602 28.283H9.9602C7.19878 28.283 4.96021 26.0444 4.96021 23.283V9.28296ZM16.9603 12.0656C14.6311 12.0656 12.7429 13.9537 12.7429 16.2829C12.7429 18.6121 14.6311 20.5003 16.9603 20.5003C19.2895 20.5003 21.1777 18.6121 21.1777 16.2829C21.1777 13.9537 19.2895 12.0656 16.9603 12.0656ZM10.7429 16.2829C10.7429 12.8492 13.5265 10.0656 16.9603 10.0656C20.3941 10.0656 23.1777 12.8492 23.1777 16.2829C23.1777 19.7167 20.3941 22.5003 16.9603 22.5003C13.5265 22.5003 10.7429 19.7167 10.7429 16.2829ZM25.3079 9.5004C25.3079 10.3648 24.6072 11.0656 23.7427 11.0656C22.8783 11.0656 22.1775 10.3648 22.1775 9.5004C22.1775 8.63595 22.8783 7.93518 23.7427 7.93518C24.6072 7.93518 25.3079 8.63595 25.3079 9.5004Z" fill="#1C1B1F"/>
</svg>
