<svg width="32" height="32" viewBox="0 0 32 32" fill="none" xmlns="http://www.w3.org/2000/svg">
<path fill-rule="evenodd" clip-rule="evenodd" d="M0 5C0 2.23858 2.23858 0 5 0H27C29.7614 0 32 2.23858 32 5V27C32 29.7614 29.7614 32 27 32H5C2.23858 32 0 29.7614 0 27V5ZM16.0001 10.0435C12.7104 10.0435 10.0436 12.7103 10.0436 16C10.0436 19.2897 12.7104 21.9565 16.0001 21.9565C19.2898 21.9565 21.9567 19.2897 21.9567 16C21.9567 12.7103 19.2898 10.0435 16.0001 10.0435ZM8.04362 16C8.04362 11.6057 11.6059 8.04346 16.0001 8.04346C20.3944 8.04346 23.9567 11.6057 23.9567 16C23.9567 20.3942 20.3944 23.9565 16.0001 23.9565C11.6059 23.9565 8.04362 20.3942 8.04362 16ZM27.1303 6.95658C27.1303 8.10918 26.1959 9.04354 25.0433 9.04354C23.8907 9.04354 22.9564 8.10918 22.9564 6.95658C22.9564 5.80399 23.8907 4.86963 25.0433 4.86963C26.1959 4.86963 27.1303 5.80399 27.1303 6.95658Z" fill="#111827"/>
</svg>
