<svg width="33" height="33" viewBox="0 0 33 33" fill="none" xmlns="http://www.w3.org/2000/svg">
<path fill-rule="evenodd" clip-rule="evenodd" d="M4.96021 9.42444C4.96021 6.66301 7.19878 4.42444 9.96021 4.42444H23.9602C26.7216 4.42444 28.9602 6.66301 28.9602 9.42444V23.4244C28.9602 26.1859 26.7216 28.4244 23.9602 28.4244H9.9602C7.19878 28.4244 4.96021 26.1859 4.96021 23.4244V9.42444ZM16.9603 12.207C14.6311 12.207 12.7429 14.0952 12.7429 16.4244C12.7429 18.7536 14.6311 20.6418 16.9603 20.6418C19.2895 20.6418 21.1777 18.7536 21.1777 16.4244C21.1777 14.0952 19.2895 12.207 16.9603 12.207ZM10.7429 16.4244C10.7429 12.9907 13.5265 10.207 16.9603 10.207C20.3941 10.207 23.1777 12.9907 23.1777 16.4244C23.1777 19.8582 20.3941 22.6418 16.9603 22.6418C13.5265 22.6418 10.7429 19.8582 10.7429 16.4244ZM25.3079 9.64188C25.3079 10.5063 24.6072 11.2071 23.7427 11.2071C22.8783 11.2071 22.1775 10.5063 22.1775 9.64188C22.1775 8.77743 22.8783 8.07666 23.7427 8.07666C24.6072 8.07666 25.3079 8.77743 25.3079 9.64188Z" fill="#1C1B1F"/>
</svg>
