<svg width="33" height="32" viewBox="0 0 33 32" fill="none" xmlns="http://www.w3.org/2000/svg">
<path d="M14.1045 11.0797L19.0223 15.9976L14.1045 20.9154" stroke="#111827" stroke-width="2" stroke-linecap="round" stroke-linejoin="round"/>
<path d="M19.023 15.9974L1.90918 15.9974" stroke="#111827" stroke-width="2" stroke-linecap="round" stroke-linejoin="round"/>
<path fill-rule="evenodd" clip-rule="evenodd" d="M20.5039 31.7491C20.642 31.9883 20.9478 32.0702 21.1869 31.9321L26.3023 28.9787C26.5415 28.8406 26.6234 28.5349 26.4853 28.2957L24.8422 25.4496C24.7297 25.2548 24.7619 25.0095 24.9151 24.8448C26.2327 23.4278 27.2376 21.716 27.8201 19.8194C27.8862 19.6043 28.0825 19.4535 28.3076 19.4535H31.5905C31.8666 19.4535 32.0905 19.2297 32.0905 18.9535V13.0467C32.0905 12.7706 31.8666 12.5467 31.5905 12.5467H28.3077C28.0826 12.5467 27.8862 12.396 27.8201 12.1808C27.2377 10.2841 26.2326 8.5722 24.9149 7.15508C24.7617 6.99034 24.7295 6.74505 24.842 6.55023L26.485 3.70444C26.6231 3.46529 26.5411 3.1595 26.302 3.02143L21.1866 0.068029C20.9474 -0.0700422 20.6416 0.0118956 20.5035 0.251042L18.8621 3.0942C18.7496 3.28892 18.5213 3.38365 18.3021 3.33361C17.3685 3.12048 16.3966 3.00792 15.3985 3.00792C14.4004 3.00792 13.4286 3.12046 12.4952 3.33354C12.276 3.38357 12.0476 3.28884 11.9352 3.09412L10.2936 0.250816C10.1556 0.0116695 9.84976 -0.0702679 9.61061 0.0678032L4.49518 3.0212C4.25603 3.15927 4.17409 3.46507 4.31217 3.70421L5.95517 6.54997C6.06765 6.7448 6.03542 6.99009 5.88222 7.15484C4.79327 8.32587 3.91786 9.69818 3.31796 11.2098H8.56384C10.0736 9.05986 12.572 7.65467 15.3986 7.65467C20.0079 7.65467 23.7445 11.3912 23.7445 16.0005C23.7445 20.6098 20.0079 24.3464 15.3986 24.3464C12.5384 24.3464 10.0142 22.9076 8.51041 20.7143H3.28809C3.8886 22.2558 4.77497 23.6544 5.88205 24.845C6.03524 25.0098 6.06747 25.2551 5.95499 25.4499L4.31182 28.2959C4.17375 28.5351 4.25569 28.8409 4.49484 28.9789L9.61027 31.9323C9.84942 32.0704 10.1552 31.9885 10.2933 31.7493L11.935 28.9059C12.0474 28.7112 12.2757 28.6164 12.4949 28.6665C13.4285 28.8796 14.4003 28.9921 15.3985 28.9921C16.3967 28.9921 17.3687 28.8795 18.3023 28.6664C18.5215 28.6163 18.7499 28.7111 18.8623 28.9058L20.5039 31.7491Z" fill="#111827"/>
</svg>
