<svg width="33" height="33" viewBox="0 0 33 33" fill="none" xmlns="http://www.w3.org/2000/svg">
<path fill-rule="evenodd" clip-rule="evenodd" d="M0.0400391 0.697754H32.04V32.6978H0.0400391V0.697754ZM15.0798 26.6976H3.07984V28.6976H15.0798V26.6976ZM11.6398 4.85756V7.25756H9.79984V15.6576H11.6398V18.1376H5.07984V15.6576H6.91984V7.25756H5.07984V4.85756H11.6398ZM15.3998 17.7376C16.2178 18.146 17.1265 18.3388 18.0398 18.2976C19.1676 18.2404 20.2532 17.8507 21.1598 17.1776C21.6823 16.7003 22.0688 16.093 22.2798 15.4176C22.5215 14.7518 22.6302 14.0451 22.5998 13.3376V4.69756H19.6398V13.2576C19.7023 13.8585 19.5304 14.4604 19.1598 14.9376C18.8528 15.3254 18.3731 15.5353 17.8798 15.4976C17.4313 15.5157 16.9871 15.4046 16.5998 15.1776C16.1883 14.905 15.8121 14.5826 15.4798 14.2176L13.6398 16.2976C14.1342 16.8804 14.7306 17.3684 15.3998 17.7376Z" fill="#111827"/>
</svg>
