<svg width="33" height="33" viewBox="0 0 33 33" fill="none" xmlns="http://www.w3.org/2000/svg">
<path fill-rule="evenodd" clip-rule="evenodd" d="M13.2677 5.28296C9.23173 5.28296 5.95996 8.55472 5.95996 12.5907C5.95996 15.9632 8.24453 18.8021 11.3505 19.6443C11.521 14.767 15.444 10.8439 20.3212 10.6734C19.479 7.56747 16.6401 5.28296 13.2677 5.28296ZM3.95996 12.5907C3.95996 17.1304 7.21007 20.9111 11.5104 21.7327C12.3321 26.033 16.1127 29.283 20.6524 29.283C25.7929 29.283 29.9601 25.1158 29.9601 19.9753C29.9601 15.4355 26.71 11.6549 22.4097 10.8332C21.588 6.53299 17.8074 3.28296 13.2677 3.28296C8.12716 3.28296 3.95996 7.45015 3.95996 12.5907ZM27.9601 19.9753C27.9601 16.6028 25.6755 13.7639 22.5696 12.9217C22.3991 17.7989 18.4761 21.722 13.5988 21.8926C14.441 24.9985 17.2799 27.283 20.6524 27.283C24.6883 27.283 27.9601 24.0112 27.9601 19.9753Z" fill="#1C1B1F"/>
</svg>
