<svg width="33" height="33" viewBox="0 0 33 33" fill="none" xmlns="http://www.w3.org/2000/svg">
<path d="M14.7783 12.5757L18.4834 16.2808L14.7783 19.9859" stroke="#1C1B1F" stroke-width="2" stroke-linecap="round" stroke-linejoin="round"/>
<path d="M18.4839 16.2808L5.59033 16.2808" stroke="#1C1B1F" stroke-width="2" stroke-linecap="round" stroke-linejoin="round"/>
<path fill-rule="evenodd" clip-rule="evenodd" d="M19.539 28.0416C19.6771 28.2808 19.9829 28.3627 20.222 28.2246L23.8625 26.1228C24.1016 25.9848 24.1835 25.679 24.0455 25.4398L22.916 23.4835C22.8035 23.2887 22.836 23.0436 22.9876 22.8774C23.9284 21.8461 24.6516 20.6128 25.0845 19.2501C25.1527 19.0356 25.3487 18.8848 25.5738 18.8848H27.8297C28.1058 18.8848 28.3297 18.6609 28.3297 18.3848V14.1812C28.3297 13.905 28.1058 13.6812 27.8297 13.6812H25.5738C25.3487 13.6812 25.1527 13.5303 25.0845 13.3158C24.6515 11.953 23.9283 10.7196 22.9873 9.68816C22.8357 9.52196 22.8032 9.27688 22.9157 9.08206L24.045 7.12607C24.1831 6.88692 24.1011 6.58113 23.862 6.44306L20.2216 4.34125C19.9824 4.20318 19.6766 4.28512 19.5385 4.52427L18.4103 6.47837C18.2979 6.67309 18.0696 6.76749 17.8499 6.71957C17.1747 6.57226 16.4734 6.49465 15.754 6.49465C15.0347 6.49465 14.3335 6.57224 13.6584 6.7195C13.4387 6.76741 13.2104 6.67301 13.098 6.47829L11.9699 4.52425C11.8318 4.28511 11.526 4.20317 11.2868 4.34124L7.64642 6.44304C7.40727 6.58112 7.32533 6.88691 7.4634 7.12606L8.59255 9.0818C8.70504 9.27663 8.67255 9.52172 8.52092 9.68792C7.73002 10.5548 7.09288 11.5645 6.65264 12.6737H10.6048C11.7423 11.054 13.6245 9.99541 15.754 9.99541C19.2267 9.99541 22.0418 12.8106 22.0418 16.2832C22.0418 19.7559 19.2267 22.571 15.754 22.571C13.599 22.571 11.6973 21.4869 10.5643 19.8344H6.62988C7.07075 20.9662 7.71614 21.9958 8.52064 22.8777C8.67225 23.0439 8.70474 23.289 8.59226 23.4838L7.46293 25.4398C7.32486 25.679 7.40679 25.9848 7.64594 26.1229L11.2864 28.2247C11.5255 28.3627 11.8313 28.2808 11.9694 28.0416L13.0976 26.0875C13.21 25.8928 13.4383 25.7984 13.658 25.8463C14.3333 25.9936 15.0346 26.0713 15.754 26.0713C16.4736 26.0713 17.175 25.9936 17.8504 25.8463C18.07 25.7983 18.2983 25.8927 18.4108 26.0875L19.539 28.0416Z" fill="#1C1B1F"/>
</svg>
