<svg width="32" height="32" viewBox="0 0 32 32" fill="none" xmlns="http://www.w3.org/2000/svg">
<path fill-rule="evenodd" clip-rule="evenodd" d="M11.385 2.00085C6.20233 2.00085 2.00098 6.20221 2.00098 11.3848C2.00098 15.8264 5.08679 19.5473 9.23149 20.5206C9.28202 14.3083 14.3084 9.28194 20.5207 9.23149C19.5475 5.08673 15.8266 2.00085 11.385 2.00085ZM0.000976562 11.3848C0.000976562 16.996 4.06062 21.659 9.40301 22.5969C10.3409 27.9394 15.0039 31.9991 20.6151 31.9991C26.9023 31.9991 31.9991 26.9023 31.9991 20.6151C31.9991 15.0039 27.9394 10.3409 22.597 9.40304C21.6592 4.06058 16.9962 0.000854492 11.385 0.000854492C5.09776 0.000854492 0.000976562 5.09764 0.000976562 11.3848ZM29.9991 20.6151C29.9991 16.1735 26.9133 12.4526 22.7686 11.4794C22.718 17.6916 17.6916 22.718 11.4793 22.7684C12.4525 26.9132 16.1734 29.9991 20.6151 29.9991C25.7977 29.9991 29.9991 25.7977 29.9991 20.6151Z" fill="#111827"/>
</svg>
