<svg width="32" height="33" viewBox="0 0 32 33" fill="none" xmlns="http://www.w3.org/2000/svg">
<path d="M16.0142 4.87279C17.9621 4.87279 19.7962 5.32788 21.5166 6.2094L21.7441 6.32314L21.545 6.47954C21.0616 6.86343 20.6777 7.36106 20.436 7.92978L20.3649 8.08617L20.2227 8.01508C18.9005 7.38949 17.4929 7.06248 16.0284 7.06248C10.6114 7.06248 6.21801 11.4701 6.21801 16.8729C6.21801 22.2757 10.5972 26.6833 16.0142 26.6833C21.4313 26.6833 25.8246 22.2757 25.8246 16.8729C25.8246 15.5791 25.5829 14.3137 25.0711 13.1193L25 12.963L25.1564 12.8919C25.7393 12.6786 26.2512 12.3231 26.6635 11.8682L26.8199 11.6691L26.9194 11.8966C27.6446 13.4748 28 15.1525 28 16.8445C28 23.4558 22.6114 28.8445 16 28.8445C9.38863 28.8445 4 23.4558 4 16.8445C4 10.2331 9.38863 4.84447 16.0142 4.87279ZM16.0142 11.4132C19.0142 11.4132 21.4739 13.8587 21.4882 16.8871C21.4882 19.9156 19.0427 22.3611 16.0142 22.3611C12.9858 22.3611 10.5403 19.9156 10.5403 16.8871C10.5403 13.8587 13 11.4132 16.0142 11.4132ZM23.8483 6.89186C25.2304 6.89186 26.3507 8.01221 26.3507 9.39423C26.3507 10.7763 25.2304 11.8966 23.8483 11.8966C22.4663 11.8966 21.346 10.7763 21.346 9.39423C21.346 8.01221 22.4663 6.89186 23.8483 6.89186Z" fill="#1C1B1F"/>
</svg>
