<svg width="33" height="33" viewBox="0 0 33 33" fill="none" xmlns="http://www.w3.org/2000/svg">
<circle cx="16.0401" cy="16.4672" r="6.99938" fill="#111827"/>
<circle cx="26.5386" cy="5.93484" r="2.49978" fill="#111827"/>
<path fill-rule="evenodd" clip-rule="evenodd" d="M2.04126 16.4341C2.04126 8.70284 8.30868 2.43542 16.0399 2.43542C18.3605 2.43542 20.5492 3.00007 22.4761 3.99945C22.7731 3.37696 23.209 2.83344 23.7437 2.40896C21.4585 1.15106 18.8328 0.435425 16.0399 0.435425C7.20411 0.435425 0.0412598 7.59827 0.0412598 16.4341C0.0412598 25.2699 7.20411 32.4328 16.0399 32.4328C24.8757 32.4328 32.0386 25.2699 32.0386 16.4341C32.0386 13.6414 31.323 11.0157 30.0652 8.73061C29.6407 9.26528 29.0972 9.70118 28.4747 9.99824C29.474 11.9251 30.0386 14.1137 30.0386 16.4341C30.0386 24.1653 23.7712 30.4328 16.0399 30.4328C8.30868 30.4328 2.04126 24.1653 2.04126 16.4341Z" fill="#111827"/>
</svg>
