<svg width="32" height="33" viewBox="0 0 32 33" fill="none" xmlns="http://www.w3.org/2000/svg">
<path fill-rule="evenodd" clip-rule="evenodd" d="M32 0.414795H0V32.4148H32V0.414795ZM10.127 25.7499L7.54334 27.3135L7.54321 27.3133C8.29115 28.8997 9.76446 30.2142 12.3026 30.2142C15.1131 30.2142 17.0395 28.7184 17.0395 25.4322V14.5992H13.8667V25.3873C13.8667 26.9736 13.2092 27.3814 12.1666 27.3814C11.079 27.3814 10.6255 26.6336 10.127 25.7499ZM21.3463 25.4778L18.7629 26.9735L18.7627 26.9736C19.6919 28.8095 21.5957 30.2146 24.5419 30.2146C27.5562 30.2146 29.7998 28.651 29.7998 25.7951C29.7998 23.1436 28.2814 21.9652 25.5843 20.8092L24.7912 20.4694C23.4314 19.8801 22.8421 19.4946 22.8421 18.5428C22.8421 17.7723 23.4314 17.183 24.3607 17.183C25.2673 17.183 25.8563 17.5682 26.4003 18.5428L28.8708 16.9562C27.8284 15.1204 26.3779 14.4177 24.3608 14.4177C21.5277 14.4177 19.7147 16.2309 19.7147 18.6107C19.7147 21.1944 21.2331 22.4183 23.5223 23.3925L24.3153 23.7328C25.7658 24.3672 26.627 24.7525 26.627 25.8403C26.627 26.7469 25.7887 27.4043 24.474 27.4043C22.9103 27.4043 22.0264 26.5884 21.3463 25.4778Z" fill="#111827"/>
</svg>
