<svg width="32" height="32" viewBox="0 0 32 32" fill="none" xmlns="http://www.w3.org/2000/svg">
<path fill-rule="evenodd" clip-rule="evenodd" d="M4.58772 4.21533C4.15067 4.21533 3.76425 4.49916 3.63351 4.9162L1.89411 10.4648H30.1053L28.3659 4.9162C28.2351 4.49916 27.8487 4.21533 27.4117 4.21533H4.58772ZM1.89411 12.9646H30.1055V22.4281H19.1427V16.0001C19.1427 15.4478 18.695 15.0001 18.1427 15.0001C17.5904 15.0001 17.1427 15.4478 17.1427 16.0001V22.4281H14.857V16.0001C14.857 15.4478 14.4093 15.0001 13.857 15.0001C13.3048 15.0001 12.857 15.4478 12.857 16.0001V22.4281H1.89411V12.9646ZM8.50062 18.1428C9.38815 18.1428 10.1076 17.4233 10.1076 16.5358C10.1076 15.6483 9.38815 14.9288 8.50062 14.9288C7.6131 14.9288 6.89362 15.6483 6.89362 16.5358C6.89362 17.4233 7.6131 18.1428 8.50062 18.1428ZM25.1063 16.5358C25.1063 17.4233 24.3868 18.1428 23.4993 18.1428C22.6117 18.1428 21.8923 17.4233 21.8923 16.5358C21.8923 15.6483 22.6117 14.9288 23.4993 14.9288C24.3868 14.9288 25.1063 15.6483 25.1063 16.5358ZM8.35924 26.7847V22.4281H1.89411V26.7848C1.89411 27.337 2.34183 27.7848 2.89411 27.7848H7.35924C7.91152 27.7848 8.35924 27.337 8.35924 26.7847ZM30.1053 22.4281V26.7847C30.1053 27.337 29.6576 27.7848 29.1053 27.7848H24.9266C24.3743 27.7848 23.9266 27.337 23.9266 26.7848V22.4281H30.1053ZM30.9982 12.7147H30.1061V10.7147H30.9982C31.5505 10.7147 31.9982 11.1624 31.9982 11.7147C31.9982 12.2669 31.5505 12.7147 30.9982 12.7147ZM1.89363 12.7147H1.00146C0.44918 12.7147 0.0014648 12.2669 0.00146484 11.7147C0.00146489 11.1624 0.44918 10.7147 1.00146 10.7147H1.89363L1.89363 12.7147Z" fill="#111827"/>
</svg>
