<svg width="33" height="33" viewBox="0 0 33 33" fill="none" xmlns="http://www.w3.org/2000/svg">
<path fill-rule="evenodd" clip-rule="evenodd" d="M7.97681 6.85437C7.53976 6.85437 7.15334 7.1382 7.0226 7.55524L5.67489 11.8544H28.2457L26.898 7.55524C26.7673 7.1382 26.3809 6.85437 25.9438 6.85437H7.97681ZM5.67489 13.8544H28.2459V21.4258H28.2457V24.7115C28.2457 25.2638 27.798 25.7115 27.2457 25.7115H24.3023C23.7501 25.7115 23.3023 25.2638 23.3023 24.7115V21.4258H19.6744V16.283C19.6744 15.7307 19.2267 15.283 18.6744 15.283C18.1221 15.283 17.6744 15.7307 17.6744 16.283V21.4258H16.2457V16.283C16.2457 15.7307 15.798 15.283 15.2457 15.283C14.6934 15.283 14.2457 15.7307 14.2457 16.283V21.4258H10.8474V24.7115C10.8474 25.2638 10.3997 25.7115 9.84743 25.7115H6.6749C6.12261 25.7115 5.67489 25.2638 5.67489 24.7115V21.4258V13.8544ZM10.9601 17.9973C11.6702 17.9973 12.2458 17.4216 12.2458 16.7116C12.2458 16.0015 11.6702 15.4258 10.9601 15.4258C10.25 15.4258 9.67441 16.0015 9.67441 16.7116C9.67441 17.4216 10.25 17.9973 10.9601 17.9973ZM24.2458 16.7116C24.2458 17.4216 23.6702 17.9973 22.9601 17.9973C22.25 17.9973 21.6744 17.4216 21.6744 16.7116C21.6744 16.0015 22.25 15.4258 22.9601 15.4258C23.6702 15.4258 24.2458 16.0015 24.2458 16.7116ZM28.9606 13.8544H28.2462V11.8544H28.9606C29.5129 11.8544 29.9606 12.3021 29.9606 12.8544C29.9606 13.4067 29.5129 13.8544 28.9606 13.8544ZM5.67441 13.8544H4.95996C4.40768 13.8544 3.95996 13.4067 3.95996 12.8544C3.95996 12.3021 4.40768 11.8544 4.95996 11.8544H5.67441L5.67441 13.8544Z" fill="#1C1B1F"/>
</svg>
