<svg width="32" height="32" viewBox="0 0 32 32" fill="none" xmlns="http://www.w3.org/2000/svg">
<path fill-rule="evenodd" clip-rule="evenodd" d="M12.6043 0.436593C12.9155 -0.0196567 13.5377 -0.137231 13.9939 0.173983L16.7154 2.03035C17.1717 2.34157 17.2892 2.96372 16.978 3.41997L15.1217 6.14147C14.8104 6.59772 14.1883 6.7153 13.732 6.40408C13.2758 6.09287 13.1582 5.47071 13.4694 5.01446L14.1366 4.03639C7.83621 4.96299 3 10.3912 3 16.9489C3 20.0179 4.05793 22.8369 5.82975 25.0653C6.17347 25.4976 6.10168 26.1267 5.66939 26.4704C5.2371 26.8141 4.60802 26.7423 4.2643 26.31C2.22124 23.7405 1 20.486 1 16.9489C1 9.56524 6.31651 3.42327 13.3303 2.14228L12.8669 1.82621C12.4107 1.515 12.2931 0.892844 12.6043 0.436593ZM21.5177 3.96062C21.7679 3.46825 22.3698 3.27193 22.8622 3.52212C27.751 6.00634 31.1042 11.0852 31.1042 16.9489C31.1042 20.4423 29.9129 23.6602 27.9151 26.2147C27.5749 26.6497 26.9464 26.7266 26.5114 26.3863C26.0763 26.0461 25.9995 25.4176 26.3397 24.9826C28.0722 22.7674 29.1042 19.9801 29.1042 16.9489C29.1042 11.867 26.2 7.46161 21.9562 5.30513C21.4638 5.05494 21.2675 4.45298 21.5177 3.96062ZM7.07976 27.8101C7.40077 27.3607 8.02532 27.2566 8.47473 27.5777C10.6109 29.1035 13.2252 30.0011 16.0521 30.0011C18.6843 30.0011 21.1318 29.2229 23.1806 27.8844C23.643 27.5823 24.2627 27.7123 24.5647 28.1747C24.8668 28.637 24.7368 29.2567 24.2745 29.5588C21.9103 31.1033 19.0845 32.001 16.0521 32.001C12.7948 32.001 9.77637 30.9652 7.31225 29.2051C6.86284 28.8841 6.75875 28.2596 7.07976 27.8101ZM24.7836 13.6214C25.1267 13.1886 25.0541 12.5597 24.6213 12.2165C24.1886 11.8734 23.5596 11.946 23.2164 12.3788L18.3017 18.5769L13.2442 14.3728C12.8677 14.0598 12.32 14.0655 11.95 14.3862L6.34502 19.2444C5.92769 19.6062 5.88262 20.2377 6.24435 20.6551C6.60609 21.0724 7.23765 21.1175 7.65498 20.7557L12.6185 16.4535L17.8102 20.7691C18.0172 20.9412 18.2849 21.0225 18.5526 20.9948C18.8204 20.967 19.0657 20.8324 19.233 20.6214L24.7836 13.6214Z" fill="#111827"/>
</svg>
