<svg width="33" height="33" viewBox="0 0 33 33" fill="none" xmlns="http://www.w3.org/2000/svg">
<path d="M3.96086 17.4298V17.407V13.9261H4.72427V17.6976C4.75974 18.0015 4.73363 18.3095 4.64749 18.6031C4.56136 18.8968 4.41697 19.1701 4.22293 19.4067C3.8623 19.7178 3.40021 19.886 2.924 19.8795L2.84424 19.3098C3.15141 19.31 3.44775 19.1963 3.67601 18.9908C3.8811 18.7515 3.96086 18.4268 3.96086 17.4298ZM9.65415 16.9804C9.65415 17.4077 9.65415 17.7894 9.68832 18.1198H9.01038L8.9648 17.4419C8.823 17.6818 8.62021 17.8798 8.37705 18.0159C8.13388 18.152 7.85902 18.2213 7.58041 18.2167C6.91955 18.2167 6.13336 17.8578 6.13336 16.3936V13.961H6.89676V16.2398C6.89676 17.0317 7.14174 17.5615 7.83109 17.5615C7.97291 17.5631 8.1136 17.5363 8.24493 17.4827C8.37626 17.4291 8.49556 17.3499 8.59586 17.2496C8.69614 17.1493 8.7754 17.03 8.82897 16.8986C8.88254 16.7673 8.90935 16.6266 8.90783 16.4848V13.9325H9.67123V16.9576L9.65415 16.9804ZM11.1012 15.3164C11.1012 14.7866 11.1012 14.3536 11.067 13.9605H11.7507L11.7849 14.6726C11.9372 14.4153 12.1565 14.2042 12.4193 14.0617C12.6822 13.9193 12.9788 13.8508 13.2775 13.8636C14.2916 13.8636 15.055 14.7125 15.055 15.9772C15.055 17.4699 14.1378 18.2105 13.1465 18.2105C12.8927 18.2218 12.6404 18.1675 12.4138 18.0527C12.1873 17.9379 11.9942 17.7666 11.8532 17.5553V19.8342H11.1012V15.3335V15.3164ZM11.8532 16.4273C11.8553 16.5307 11.8667 16.6337 11.8874 16.735C11.9521 16.9879 12.0992 17.2121 12.3056 17.372C12.5119 17.532 12.7657 17.6185 13.0268 17.618C13.8301 17.618 14.303 16.9628 14.303 16.0114C14.303 15.1797 13.8586 14.4675 13.0553 14.4675C12.7374 14.4936 12.4399 14.6346 12.2186 14.8643C11.9973 15.094 11.8674 15.3965 11.8532 15.7152V16.4273ZM16.4151 13.9567L17.3324 16.4121C17.4292 16.6856 17.5318 17.016 17.6001 17.261C17.6799 17.0103 17.7653 16.6913 17.8679 16.395L18.6997 13.9567H19.503L18.3635 16.9192C17.7938 18.3434 17.4463 19.0784 16.9222 19.5227C16.6582 19.7639 16.3363 19.9326 15.9879 20.0127L15.7999 19.3746C16.0435 19.2945 16.2697 19.1689 16.4664 19.0043C16.7443 18.7778 16.9649 18.4889 17.1102 18.1611C17.1413 18.1044 17.1625 18.0427 17.1728 17.9788C17.1664 17.9101 17.1491 17.8428 17.1216 17.7794L15.572 13.9453H16.4037L16.4151 13.9567ZM21.5296 12.7615V13.9579H22.6234V14.5276H21.5296V16.7722C21.5296 17.2849 21.6777 17.5812 22.0993 17.5812C22.249 17.5836 22.3984 17.5664 22.5437 17.5299L22.5778 18.0996C22.3601 18.1751 22.1303 18.2098 21.8999 18.2022C21.7473 18.2117 21.5945 18.1882 21.4519 18.1331C21.3093 18.078 21.1804 17.9927 21.0738 17.8831C20.8418 17.5728 20.7359 17.186 20.7776 16.8007V14.5219H20.1281V13.9522H20.789V12.9381L21.5296 12.7615ZM24.0297 16.1715C24.0143 16.3647 24.0409 16.559 24.1079 16.7409C24.1749 16.9228 24.2805 17.088 24.4176 17.225C24.5546 17.3621 24.7198 17.4677 24.9017 17.5347C25.0836 17.6017 25.2779 17.6284 25.4711 17.6129C25.8619 17.6216 26.2501 17.5479 26.6105 17.3964L26.7415 17.9661C26.2993 18.1483 25.8238 18.2356 25.3457 18.2225C25.067 18.2416 24.7875 18.2001 24.5263 18.101C24.2651 18.0019 24.0285 17.8475 23.8326 17.6484C23.6367 17.4492 23.4862 17.21 23.3914 16.9473C23.2966 16.6845 23.2597 16.4043 23.2834 16.126C23.2834 14.8726 24.0297 13.8813 25.2489 13.8813C26.6162 13.8813 26.958 15.0777 26.958 15.8411C26.9653 15.9587 26.9653 16.0767 26.958 16.1943H24.0126L24.0297 16.1715ZM26.263 15.6018C26.285 15.4495 26.274 15.2943 26.231 15.1465C26.1879 14.9988 26.1136 14.862 26.0132 14.7454C25.9128 14.6288 25.7885 14.535 25.6488 14.4705C25.5091 14.406 25.3572 14.3721 25.2033 14.3713C24.8903 14.3939 24.597 14.5327 24.381 14.7603C24.1649 14.9879 24.0417 15.288 24.0354 15.6018H26.263ZM28.1163 15.2522C28.1163 14.7622 28.1163 14.3406 28.0821 13.9532H28.7658V14.7679H28.8C28.8717 14.5165 29.02 14.2936 29.2242 14.1303C29.4284 13.9669 29.6783 13.8712 29.9394 13.8564C30.0112 13.847 30.084 13.847 30.1559 13.8564V14.5685C30.0688 14.5584 29.9809 14.5584 29.8938 14.5685C29.6352 14.5785 29.3891 14.6824 29.2014 14.8606C29.0137 15.0388 28.8974 15.2793 28.874 15.537C28.8527 15.6536 28.8413 15.7718 28.8399 15.8902V18.1064H28.0878V15.2579L28.1163 15.2522Z" fill="#111827"/>
<path fill-rule="evenodd" clip-rule="evenodd" d="M28.751 19.4121C28.9738 18.5069 29.12 17.7027 29.1874 16.929C29.1247 17.7831 28.9765 18.6136 28.751 19.4121ZM28.4245 20.4066C27.2136 21.7173 24.8942 23.537 20.7511 24.4043C19.0416 24.8512 14.3948 25.3123 9.48375 23.5817C8.34617 23.1368 5.80433 21.8827 4.57715 20.3725C6.36898 25.1867 11.0343 28.6189 16.5072 28.6189C21.9672 28.6189 26.6234 25.2029 28.4245 20.4066ZM29.0978 14.234C29.0382 13.8358 28.9584 13.4249 28.858 12.9924C28.9582 13.3989 29.0385 13.8131 29.0978 14.234ZM28.4257 11.5959C26.6254 6.7981 21.9684 3.38062 16.5072 3.38062C11.0397 3.38062 6.37831 6.80599 4.58254 11.6125C5.27966 10.8168 6.95372 9.27914 9.86557 8.2602C11.7485 7.5372 16.5026 6.53871 21.2413 7.69855C22.6874 8.01921 25.8883 8.91362 28.4257 11.5959Z" fill="#111827"/>
<ellipse cx="25.8538" cy="2.62952" rx="1.94655" ry="1.93201" fill="#111827"/>
<ellipse cx="5.09666" cy="5.1338" rx="1.40135" ry="1.39088" fill="#111827"/>
<ellipse cx="7.03004" cy="30.2644" rx="2.45143" ry="2.43312" fill="#111827"/>
</svg>
