<svg width="32" height="32" viewBox="0 0 32 32" fill="none" xmlns="http://www.w3.org/2000/svg">
<path fill-rule="evenodd" clip-rule="evenodd" d="M20.847 1.83093H30.9993C31.5516 1.83093 31.9993 2.27865 31.9993 2.83093V13.9971H31.9861V24.6487C31.9861 25.2009 31.5384 25.6487 30.9861 25.6487H21.4528C20.9005 25.6487 20.4528 25.2009 20.4528 24.6487V20.1875H10.7713V29.1692C10.7713 29.7215 10.3236 30.1692 9.77129 30.1692H0.999999C0.447714 30.1692 0 29.7215 0 29.1692V13.8263H0.0239981V13.7399V2.84463C0.0239981 2.29234 0.471713 1.84463 1.024 1.84463H10.5572H10.5573H20.847V1.83093ZM11.5572 13.7545L11.5573 13.7399V3.84463H20.4525V18.1875H11.5572V13.7545ZM9.55724 3.84463H2.024V12.7399H9.55724V3.84463ZM22.4528 23.6487V14.7399H29.9861V23.6487H22.4528Z" fill="#111827"/>
</svg>
