<svg width="33" height="33" viewBox="0 0 33 33" fill="none" xmlns="http://www.w3.org/2000/svg">
<path fill-rule="evenodd" clip-rule="evenodd" d="M3.95996 5.37378C3.95996 4.82149 4.40768 4.37378 4.95996 4.37378H12.5962H12.5963H21.3235C21.3579 4.37378 21.3919 4.37552 21.4254 4.37891H28.9558C29.5081 4.37891 29.9558 4.82662 29.9558 5.37891V14.0075C29.9586 14.0383 29.9601 14.0695 29.9601 14.1011V22.8392C29.9601 23.3915 29.5124 23.8392 28.9601 23.8392H21.3237C20.7714 23.8392 20.3237 23.3915 20.3237 22.8392V19.4647H12.5962V26.192C12.5962 26.7443 12.1485 27.192 11.5962 27.192H4.96826C4.41598 27.192 3.96826 26.7443 3.96826 26.192V14.2305C3.96279 14.1881 3.95996 14.1449 3.95996 14.1011V5.37378ZM11.5962 6.37378V13.1011H5.95996V6.37378H11.5962ZM13.5962 14.1176V17.4647H20.3235V6.37378H13.5963V14.1011L13.5962 14.1176ZM22.3237 21.8392V15.1011H27.9601V21.8392H22.3237Z" fill="#1C1B1F"/>
</svg>
