<svg width="32" height="32" viewBox="0 0 32 32" fill="none" xmlns="http://www.w3.org/2000/svg">
<path fill-rule="evenodd" clip-rule="evenodd" d="M20.847 1.83109H30.9993C31.5516 1.83109 31.9993 2.2788 31.9993 2.83109V13.9973H31.9861V24.6488C31.9861 25.2011 31.5384 25.6488 30.9861 25.6488H21.4528C20.9005 25.6488 20.4528 25.2011 20.4528 24.6488V20.1877H10.7713V29.1694C10.7713 29.7217 10.3236 30.1694 9.77129 30.1694H0.999999C0.447714 30.1694 0 29.7217 0 29.1694V13.8265H0.0239981V13.74V2.84478C0.0239981 2.2925 0.471713 1.84478 1.024 1.84478H10.5572H10.5573H20.847V1.83109ZM11.5572 13.7546L11.5573 13.74V3.84478H20.4525V18.1877H11.5572V13.7546ZM9.55724 3.84478H2.024V12.74H9.55724V3.84478ZM22.4528 23.6488V14.74H29.9861V23.6488H22.4528Z" fill="#111827"/>
</svg>
