<svg width="33" height="33" viewBox="0 0 33 33" fill="none" xmlns="http://www.w3.org/2000/svg">
<path fill-rule="evenodd" clip-rule="evenodd" d="M12.5767 15.2419L5.01249 22.7506C4.92289 22.8402 4.87256 22.9617 4.87256 23.0884V27.8052C4.87256 28.0691 5.08645 28.283 5.3503 28.283H9.61118C9.87503 28.283 10.0889 28.0691 10.0889 27.8052L10.0889 25.4386C10.0889 25.1747 10.3028 24.9608 10.5667 24.9608H12.5815C12.8453 24.9608 13.0592 24.7469 13.0592 24.4831V22.3363C13.0592 22.0724 13.2731 21.8585 13.537 21.8585H16.2717C16.3984 21.8585 16.5199 21.8082 16.6095 21.7186L17.6394 20.5983C18.5657 20.9484 19.5699 21.14 20.6187 21.14C25.2737 21.14 29.0472 17.3664 29.0472 12.7115C29.0472 8.05653 25.2737 4.28296 20.6187 4.28296C15.9638 4.28296 12.1902 8.05653 12.1902 12.7115C12.1902 13.5931 12.3256 14.4432 12.5767 15.2419ZM24.2844 10.4798C24.2844 11.2714 23.6427 11.9131 22.8512 11.9131C22.0596 11.9131 21.418 11.2714 21.418 10.4798C21.418 9.6883 22.0596 9.04663 22.8512 9.04663C23.6427 9.04663 24.2844 9.6883 24.2844 10.4798Z" fill="#1C1B1F"/>
</svg>
