<svg width="34" height="32" viewBox="0 0 34 32" fill="none" xmlns="http://www.w3.org/2000/svg">
<path fill-rule="evenodd" clip-rule="evenodd" d="M11.156 14.612L1.07036 24.6235C0.9509 24.743 0.883789 24.905 0.883789 25.0739V31.363C0.883789 31.7148 1.16898 32 1.52077 32H7.20196C7.55375 32 7.83894 31.7148 7.83894 31.363L7.83894 28.2075C7.83894 27.8557 8.12413 27.5705 8.47592 27.5705H11.1624C11.5142 27.5705 11.7994 27.2853 11.7994 26.9335V24.0711C11.7994 23.7193 12.0845 23.4341 12.4363 23.4341H16.0826C16.2515 23.4341 16.4136 23.367 16.533 23.2475L17.9063 21.7538C19.1413 22.2206 20.4802 22.476 21.8787 22.476C28.0853 22.476 33.1167 17.4446 33.1167 11.238C33.1167 5.03143 28.0853 0 21.8787 0C15.6721 0 10.6407 5.03143 10.6407 11.238C10.6407 12.4136 10.8212 13.5469 11.156 14.612ZM26.7662 8.26252C26.7662 9.31791 25.9107 10.1735 24.8553 10.1735C23.7999 10.1735 22.9443 9.31791 22.9443 8.26252C22.9443 7.20713 23.7999 6.35156 24.8553 6.35156C25.9107 6.35156 26.7662 7.20713 26.7662 8.26252Z" fill="#111827"/>
</svg>
