<svg width="32" height="32" viewBox="0 0 32 32" fill="none" xmlns="http://www.w3.org/2000/svg">
<path fill-rule="evenodd" clip-rule="evenodd" d="M1 4.9231C0.447715 4.9231 0 5.37081 0 5.92309V26.0769C0 26.6292 0.447715 27.0769 1 27.0769H31C31.5523 27.0769 32 26.6292 32 26.0769V5.9231C32 5.37081 31.5523 4.9231 31 4.9231H1ZM4.92318 10.0769C4.37089 10.0769 3.92318 10.5246 3.92318 11.0769C3.92318 11.6292 4.37089 12.0769 4.92318 12.0769H27.077C27.6293 12.0769 28.077 11.6292 28.077 11.0769C28.077 10.5246 27.6293 10.0769 27.077 10.0769H4.92318ZM4.92318 15C4.37089 15 3.92318 15.4477 3.92318 16C3.92318 16.5523 4.37089 17 4.92318 17H27.077C27.6293 17 28.077 16.5523 28.077 16C28.077 15.4477 27.6293 15 27.077 15H4.92318ZM3.92318 20.9231C3.92318 20.3708 4.37089 19.9231 4.92318 19.9231H6.15395C6.70623 19.9231 7.15395 20.3708 7.15395 20.9231C7.15395 21.4754 6.70623 21.9231 6.15395 21.9231H4.92318C4.37089 21.9231 3.92318 21.4754 3.92318 20.9231ZM11.0768 19.9231C10.5245 19.9231 10.0768 20.3708 10.0768 20.9231C10.0768 21.4754 10.5245 21.9231 11.0768 21.9231H20.923C21.4753 21.9231 21.923 21.4754 21.923 20.9231C21.923 20.3708 21.4753 19.9231 20.923 19.9231H11.0768ZM24.8464 20.9231C24.8464 20.3708 25.2941 19.9231 25.8464 19.9231H27.0771C27.6294 19.9231 28.0771 20.3708 28.0771 20.9231C28.0771 21.4754 27.6294 21.9231 27.0771 21.9231H25.8464C25.2941 21.9231 24.8464 21.4754 24.8464 20.9231Z" fill="#111827"/>
</svg>
