<svg width="33" height="33" viewBox="0 0 33 33" fill="none" xmlns="http://www.w3.org/2000/svg">
<path fill-rule="evenodd" clip-rule="evenodd" d="M5.95996 7.97522C5.40768 7.97522 4.95996 8.42294 4.95996 8.97522V23.5906C4.95996 24.1429 5.40768 24.5906 5.95996 24.5906H27.96C28.5122 24.5906 28.96 24.1429 28.96 23.5906V8.97522C28.96 8.42293 28.5122 7.97522 27.96 7.97522H5.95996ZM8.65234 11.5906C8.10006 11.5906 7.65234 12.0383 7.65234 12.5906C7.65234 13.1429 8.10006 13.5906 8.65234 13.5906H25.2677C25.82 13.5906 26.2677 13.1429 26.2677 12.5906C26.2677 12.0383 25.82 11.5906 25.2677 11.5906H8.65234ZM8.65234 15.2829C8.10006 15.2829 7.65234 15.7306 7.65234 16.2829C7.65234 16.8352 8.10006 17.2829 8.65234 17.2829H25.2677C25.82 17.2829 26.2677 16.8352 26.2677 16.2829C26.2677 15.7306 25.82 15.2829 25.2677 15.2829H8.65234ZM7.65234 19.9752C7.65234 19.4229 8.10006 18.9752 8.65234 18.9752H9.57542C10.1277 18.9752 10.5754 19.4229 10.5754 19.9752C10.5754 20.5275 10.1277 20.9752 9.57542 20.9752H8.65234C8.10006 20.9752 7.65234 20.5275 7.65234 19.9752ZM13.2676 18.9752C12.7153 18.9752 12.2676 19.4229 12.2676 19.9752C12.2676 20.5275 12.7153 20.9752 13.2676 20.9752H20.6522C21.2045 20.9752 21.6522 20.5275 21.6522 19.9752C21.6522 19.4229 21.2045 18.9752 20.6522 18.9752H13.2676ZM23.3447 19.9752C23.3447 19.4229 23.7924 18.9752 24.3447 18.9752H25.2678C25.8201 18.9752 26.2678 19.4229 26.2678 19.9752C26.2678 20.5275 25.8201 20.9752 25.2678 20.9752H24.3447C23.7924 20.9752 23.3447 20.5275 23.3447 19.9752Z" fill="#1C1B1F"/>
</svg>
