<svg width="33" height="33" viewBox="0 0 33 33" fill="none" xmlns="http://www.w3.org/2000/svg">
<path fill-rule="evenodd" clip-rule="evenodd" d="M28.96 16.283C28.96 22.9104 23.5874 28.283 16.96 28.283C10.3325 28.283 4.95996 22.9104 4.95996 16.283C4.95996 9.65554 10.3325 4.28296 16.96 4.28296C23.5874 4.28296 28.96 9.65554 28.96 16.283ZM14.4497 13.8197C14.4497 12.4334 15.5735 11.3096 16.9598 11.3096C18.3461 11.3096 19.47 12.4334 19.47 13.8197C19.47 14.7485 18.966 15.5607 18.2119 15.9959C17.8026 16.2321 17.6145 16.7226 17.7609 17.1719L19.0922 21.2566H14.8274L16.1587 17.1719C16.3052 16.7226 16.1171 16.2321 15.7078 15.9959C14.9536 15.5607 14.4497 14.7485 14.4497 13.8197ZM16.9598 9.30957C14.469 9.30957 12.4497 11.3288 12.4497 13.8197C12.4497 15.1932 13.064 16.4224 14.0302 17.2487L12.4989 21.9467C12.3997 22.2512 12.4523 22.5848 12.6404 22.844C12.8286 23.1032 13.1294 23.2566 13.4497 23.2566H20.47C20.7902 23.2566 21.0911 23.1032 21.2792 22.844C21.4674 22.5848 21.52 22.2512 21.4207 21.9467L19.8895 17.2487C20.8557 16.4224 21.47 15.1932 21.47 13.8197C21.47 11.3288 19.4507 9.30957 16.9598 9.30957Z" fill="#1C1B1F"/>
</svg>
