<svg width="33" height="33" viewBox="0 0 33 33" fill="none" xmlns="http://www.w3.org/2000/svg">
<path fill-rule="evenodd" clip-rule="evenodd" d="M4.95996 5.28284C4.95996 4.73055 5.40768 4.28284 5.95996 4.28284H27.96C28.5122 4.28284 28.96 4.73055 28.96 5.28284V27.2828C28.96 27.8351 28.5122 28.2828 27.96 28.2828H5.95996C5.40768 28.2828 4.95996 27.8351 4.95996 27.2828V5.28284ZM22.96 12.2828C23.5122 12.2828 23.96 12.7306 23.96 13.2828V17.2828C23.96 17.8351 23.5122 18.2828 22.96 18.2828H13.3742L15.9097 20.8184C16.3003 21.2089 16.3003 21.8421 15.9097 22.2326C15.5192 22.6231 14.8861 22.6231 14.4955 22.2326L10.2529 17.99C10.1626 17.8997 10.0932 17.7964 10.0446 17.6862C9.9902 17.5628 9.95996 17.4264 9.95996 17.2828C9.95996 17.1245 9.99675 16.9748 10.0622 16.8418C10.0946 16.7759 10.1347 16.7128 10.1825 16.6539C10.2067 16.624 10.2325 16.5956 10.2599 16.5687L14.4955 12.3331C14.8861 11.9426 15.5192 11.9426 15.9097 12.3331C16.3003 12.7236 16.3003 13.3568 15.9097 13.7473L13.3742 16.2828H21.96V13.2828C21.96 12.7306 22.4077 12.2828 22.96 12.2828Z" fill="#1C1B1F"/>
</svg>
