<svg width="32" height="32" viewBox="0 0 32 32" fill="none" xmlns="http://www.w3.org/2000/svg">
<path fill-rule="evenodd" clip-rule="evenodd" d="M0 0.999939C0 0.447654 0.447715 -6.10352e-05 1 -6.10352e-05H31.0001C31.5524 -6.10352e-05 32.0001 0.447654 32.0001 0.999939V31.0001C32.0001 31.5523 31.5524 32.0001 31.0001 32.0001H1C0.447715 32.0001 0 31.5523 0 31.0001V0.999939ZM24 11C24.5523 11 25 11.4477 25 12V17.3333C25 17.8856 24.5523 18.3333 24 18.3333H10.4142L14.364 22.2832C14.7545 22.6737 14.7545 23.3068 14.364 23.6974C13.9735 24.0879 13.3403 24.0879 12.9498 23.6974L7.29291 18.0405C7.20418 17.9518 7.13561 17.8505 7.0872 17.7424C7.03115 17.6175 6.99997 17.4791 6.99997 17.3333C6.99997 17.1061 7.07577 16.8966 7.20346 16.7286C7.23329 16.6894 7.26594 16.6524 7.30111 16.6181L12.9498 10.9694C13.3403 10.5789 13.9735 10.5789 14.364 10.9694C14.7545 11.3599 14.7545 11.9931 14.364 12.3836L10.4143 16.3333H23V12C23 11.4477 23.4477 11 24 11Z" fill="#111827"/>
</svg>
