<svg width="32" height="32" viewBox="0 0 32 32" fill="none" xmlns="http://www.w3.org/2000/svg">
<path fill-rule="evenodd" clip-rule="evenodd" d="M22.2059 15.8439C22.1858 15.825 22.1667 15.8055 22.1485 15.7855L18.6753 12.3122L3.02261 28.3506C9.37824 29.2419 14.789 26.9568 18.7561 24.2694C20.9219 22.8023 22.6368 21.2278 23.8099 20.0197C24.3304 19.4836 24.7426 19.0214 25.0384 18.6753L22.219 15.856L22.2059 15.8439ZM17.9531 10.1887L17.9485 10.1935L0.284119 28.2931C0.0317363 28.5517 -0.0615035 28.9264 0.0402253 29.2731C0.141954 29.6198 0.422826 29.8847 0.774919 29.9659C8.64049 31.7811 15.2718 29.0455 19.8778 25.9253C22.1832 24.3635 24.0019 22.6929 25.2447 21.413C25.8669 20.7722 26.3469 20.2272 26.6735 19.8395C26.8369 19.6455 26.9621 19.4908 27.0476 19.3829C27.0904 19.3289 27.1233 19.2866 27.1461 19.257L27.1728 19.2222L27.1804 19.2121L27.1828 19.2089L27.1837 19.2078C27.184 19.2074 27.1843 19.207 26.3843 18.607L27.1843 19.207C27.4828 18.8089 27.4432 18.2518 27.0914 17.8999L24.2835 15.092L30.8737 8.07278C31.2289 7.71463 31.511 7.29069 31.7042 6.82461C31.8996 6.35326 32.0001 5.84804 32.0002 5.33781C32.0003 4.82758 31.8999 4.32234 31.7046 3.85093C31.5094 3.37952 31.2232 2.9512 30.8624 2.59041C30.5017 2.22962 30.0733 1.94345 29.6019 1.74822C29.1305 1.553 28.6253 1.45256 28.115 1.45264C27.6048 1.45271 27.0996 1.5533 26.6282 1.74867C26.1569 1.94403 25.7287 2.23033 25.368 2.59123L25.3679 2.59118L25.3596 2.59967L17.9531 10.1887Z" fill="#111827"/>
</svg>
