<svg width="33" height="33" viewBox="0 0 33 33" fill="none" xmlns="http://www.w3.org/2000/svg">
<path d="M19.0935 12.1946L25.2675 18.3686C25.2675 18.3686 16.96 29.4453 4.96021 26.6761L25.0203 6.12169C25.2346 5.9073 25.489 5.73722 25.769 5.62117C26.049 5.50511 26.3491 5.44536 26.6522 5.44531C26.9553 5.44527 27.2555 5.50493 27.5355 5.62091C27.8155 5.73688 28.07 5.90688 28.2843 6.12121C28.4986 6.33553 28.6686 6.58998 28.7846 6.87002C28.9006 7.15006 28.9603 7.4502 28.9602 7.7533C28.9602 8.0564 28.9004 8.35653 28.7844 8.63653C28.6683 8.91654 28.4982 9.17093 28.2838 9.3852L22.4724 15.5749" stroke="#1C1B1F" stroke-width="2" stroke-linecap="round" stroke-linejoin="round"/>
<path d="M25.769 5.62117C25.489 5.73722 25.2346 5.9073 25.0204 6.12169L19.0716 12.2873L22.4725 15.5749L28.2839 9.3852C28.4983 9.17093 28.6684 8.91653 28.7844 8.63653C28.9005 8.35653 28.9602 8.0564 28.9603 7.7533C28.9603 7.4502 28.9006 7.15006 28.7847 6.87002C28.6687 6.58998 28.4987 6.33553 28.2844 6.12121C28.07 5.90688 27.8156 5.73688 27.5356 5.62091C27.2555 5.50493 26.9554 5.44527 26.6523 5.44531C26.3492 5.44536 26.049 5.50511 25.769 5.62117Z" fill="#1C1B1F" stroke="#1C1B1F" stroke-width="2" stroke-linecap="round" stroke-linejoin="round"/>
</svg>
