<svg width="32" height="33" viewBox="0 0 32 33" fill="none" xmlns="http://www.w3.org/2000/svg">
<path fill-rule="evenodd" clip-rule="evenodd" d="M22.2059 16.3439C22.1858 16.325 22.1667 16.3055 22.1485 16.2855L18.6753 12.8122L3.02261 28.8506C9.37824 29.7419 14.789 27.4568 18.7561 24.7694C20.9219 23.3023 22.6368 21.7278 23.8099 20.5197C24.3304 19.9836 24.7426 19.5214 25.0384 19.1753L22.219 16.356L22.2059 16.3439ZM17.9531 10.6887L17.9485 10.6935L0.284119 28.7931C0.0317363 29.0517 -0.0615035 29.4264 0.0402253 29.7731C0.141954 30.1198 0.422826 30.3847 0.774919 30.4659C8.64049 32.2811 15.2718 29.5455 19.8778 26.4253C22.1832 24.8635 24.0019 23.1929 25.2447 21.913C25.8669 21.2722 26.3469 20.7272 26.6735 20.3395C26.8369 20.1455 26.9621 19.9908 27.0476 19.8829C27.0904 19.8289 27.1233 19.7866 27.1461 19.757L27.1728 19.7222L27.1804 19.7121L27.1828 19.7089L27.1837 19.7078C27.184 19.7074 27.1843 19.707 26.3843 19.107L27.1843 19.707C27.4828 19.3089 27.4432 18.7518 27.0914 18.3999L24.2835 15.592L30.8737 8.57278C31.2289 8.21463 31.511 7.79069 31.7042 7.32461C31.8996 6.85326 32.0001 6.34804 32.0002 5.83781C32.0003 5.32758 31.8999 4.82234 31.7046 4.35093C31.5094 3.87952 31.2232 3.4512 30.8624 3.09041C30.5017 2.72962 30.0733 2.44345 29.6019 2.24822C29.1305 2.053 28.6253 1.95256 28.115 1.95264C27.6048 1.95271 27.0996 2.0533 26.6282 2.24867C26.1569 2.44403 25.7287 2.73033 25.368 3.09123L25.3679 3.09118L25.3596 3.09967L17.9531 10.6887Z" fill="#111827"/>
</svg>
