<svg width="32" height="33" viewBox="0 0 32 33" fill="none" xmlns="http://www.w3.org/2000/svg">
<g clip-path="url(#clip0_445_20)">
<path fill-rule="evenodd" clip-rule="evenodd" d="M16.4339 1.32388C16.1597 1.19184 15.8403 1.19184 15.5661 1.32388L3.53705 7.11676C3.26286 7.2488 3.06373 7.49852 2.99601 7.79521L0.0250811 20.8117C-0.0426375 21.1084 0.0284344 21.4198 0.218178 21.6577L8.54253 32.0961C8.73227 32.334 9.02004 32.4726 9.32436 32.4726H22.6756C22.9799 32.4726 23.2677 32.334 23.4574 32.0961L31.7818 21.6577C31.9715 21.4198 32.0426 21.1084 31.9749 20.8117L29.0039 7.79521C28.9362 7.49852 28.7371 7.2488 28.4629 7.11676L16.4339 1.32388ZM15.5233 6.5783C15.6457 6.44222 15.8171 6.36015 15.9999 6.35002L16.0013 6.34566C16.1841 6.3558 16.3555 6.43787 16.4779 6.57394C16.6004 6.71002 16.664 6.88903 16.6549 7.07187V7.25778C16.6369 7.46655 16.6068 7.67411 16.5649 7.87942C16.5017 8.27163 16.4769 8.66904 16.4908 9.06606C16.5165 9.1987 16.5932 9.316 16.7043 9.39285C16.7049 9.40275 16.706 9.41765 16.7073 9.43582C16.7122 9.50297 16.7203 9.61475 16.7203 9.68334C18.788 9.87111 20.7173 10.8032 22.1495 12.3064L22.3978 12.1292C22.5315 12.152 22.6688 12.1369 22.7943 12.0857C23.1134 11.8491 23.4086 11.582 23.6759 11.2883C23.8123 11.1275 23.9577 10.9747 24.1117 10.8308C24.1523 10.7959 24.2119 10.7494 24.2569 10.7146C24.3214 10.6459 24.3999 10.592 24.4871 10.5563C24.5743 10.5206 24.6681 10.5041 24.7622 10.5078C24.8564 10.5115 24.9486 10.5354 25.0327 10.5779C25.1168 10.6203 25.1908 10.6803 25.2497 10.7538C25.3086 10.8273 25.351 10.9126 25.3741 11.0039C25.3972 11.0952 25.4004 11.1904 25.3836 11.2831C25.3667 11.3758 25.3301 11.4637 25.2763 11.5411C25.2225 11.6184 25.1528 11.6832 25.0717 11.7313C25.0587 11.7417 25.0447 11.7533 25.0302 11.7652C24.9945 11.7945 24.9565 11.8258 24.9265 11.8475C24.7516 11.9633 24.5703 12.069 24.3833 12.1641C24.0374 12.3599 23.7115 12.589 23.4102 12.8482C23.3222 12.9508 23.2779 13.0837 23.2867 13.2185L23.0543 13.4262C24.2144 15.1553 24.6992 17.25 24.4167 19.3129L24.681 19.3899C24.7459 19.5112 24.8435 19.6119 24.9628 19.6804C25.3463 19.7828 25.7389 19.8475 26.1349 19.8736C26.3449 19.8785 26.5544 19.8954 26.7624 19.9244C26.7977 19.9309 26.8426 19.9422 26.8852 19.9529C26.9091 19.9589 26.9323 19.9647 26.9526 19.9694C27.0429 19.9818 27.1296 20.0127 27.2072 20.0604C27.2848 20.108 27.3517 20.1713 27.4035 20.2462C27.4554 20.3211 27.491 20.406 27.5083 20.4954C27.5256 20.5848 27.5241 20.6769 27.5038 20.7657C27.4836 20.8545 27.4451 20.9381 27.3908 21.0112C27.3365 21.0844 27.2676 21.1454 27.1884 21.1905C27.1093 21.2355 27.0216 21.2636 26.931 21.2729C26.8404 21.2822 26.7488 21.2726 26.6621 21.2446H26.6389C26.621 21.2408 26.6016 21.2369 26.582 21.233C26.5427 21.2251 26.5024 21.2171 26.4704 21.2083C26.2726 21.1439 26.0786 21.0683 25.8894 20.9818C25.5212 20.8332 25.1393 20.7208 24.7493 20.6463C24.6143 20.6418 24.483 20.6902 24.3833 20.7813C24.3368 20.7712 24.1887 20.745 24.1044 20.7319C23.4705 22.723 22.1264 24.4114 20.3281 25.4756C20.3588 25.5659 20.3952 25.6542 20.437 25.7399C20.3699 25.857 20.3516 25.9958 20.3862 26.1263C20.5456 26.4905 20.7402 26.8383 20.9672 27.1647C21.0943 27.3316 21.2116 27.5057 21.3187 27.6862C21.3409 27.7269 21.3693 27.7875 21.3926 27.8368C21.3967 27.8456 21.4006 27.854 21.4044 27.8619C21.4504 27.9405 21.4797 28.0278 21.4902 28.1183C21.5007 28.2088 21.4922 28.3005 21.4654 28.3876C21.4385 28.4746 21.3938 28.5551 21.3341 28.624C21.2745 28.6928 21.2011 28.7485 21.1187 28.7875C21.0364 28.8264 20.9468 28.8478 20.8557 28.8503C20.7647 28.8527 20.6741 28.8362 20.5897 28.8017C20.5054 28.7673 20.4292 28.7156 20.3659 28.6501C20.3026 28.5846 20.2536 28.5066 20.2221 28.4211C20.2137 28.4039 20.2042 28.3847 20.1944 28.365C20.1753 28.3264 20.1552 28.2858 20.1407 28.2541C20.0659 28.0579 20.0023 27.8576 19.9505 27.6542C19.837 27.274 19.6867 26.9057 19.5017 26.5547C19.4212 26.4458 19.3013 26.3728 19.1676 26.3514C19.1483 26.3256 19.1011 26.241 19.0609 26.1688C19.0467 26.1433 19.0333 26.1194 19.0224 26.1001C17.0767 26.8366 14.9279 26.8309 12.9861 26.0841L12.8409 26.3528C12.7345 26.3725 12.6367 26.4242 12.5605 26.501C12.3373 26.867 12.1667 27.2625 12.0536 27.676C12.0023 27.8794 11.9392 28.0797 11.8648 28.2758C11.8503 28.3088 11.83 28.3495 11.8107 28.388C11.8011 28.4072 11.7917 28.4259 11.7835 28.4429C11.7522 28.5288 11.7034 28.6072 11.64 28.6732C11.5767 28.7391 11.5003 28.7911 11.4157 28.8258C11.3311 28.8605 11.2402 28.8771 11.1488 28.8747C11.0574 28.8722 10.9676 28.8507 10.885 28.8115C10.8024 28.7723 10.7289 28.7162 10.6692 28.647C10.6095 28.5777 10.565 28.4967 10.5384 28.4093C10.5118 28.3218 10.5038 28.2297 10.5149 28.139C10.5259 28.0482 10.5558 27.9608 10.6027 27.8822C10.6116 27.8639 10.6217 27.8422 10.6321 27.8198C10.6506 27.7802 10.6702 27.738 10.6869 27.7065C10.7939 27.5256 10.9113 27.351 11.0384 27.1836C11.2694 26.8484 11.4678 26.4919 11.631 26.119C11.6485 25.9925 11.6283 25.8637 11.5729 25.7486L11.692 25.4581C9.90005 24.4021 8.55674 22.7266 7.91567 20.7479L7.62519 20.7973C7.51458 20.719 7.38428 20.6732 7.24901 20.6651C6.85896 20.7397 6.47711 20.852 6.10885 21.0006C5.91963 21.0867 5.72566 21.1618 5.52788 21.2258C5.49339 21.2355 5.4469 21.2452 5.40325 21.2543C5.38808 21.2574 5.37326 21.2605 5.3594 21.2635H5.33616C5.24948 21.2915 5.15792 21.3011 5.06732 21.2918C4.97672 21.2825 4.88905 21.2544 4.80988 21.2093C4.73072 21.1643 4.66179 21.1033 4.60749 21.0301C4.55319 20.957 4.51471 20.8734 4.49448 20.7846C4.47425 20.6958 4.47272 20.6037 4.48999 20.5143C4.50726 20.4248 4.54295 20.34 4.59479 20.2651C4.64664 20.1902 4.71349 20.1269 4.79112 20.0793C4.86874 20.0316 4.95543 20.0006 5.04568 19.9883H5.05585L5.06508 19.9861C5.11753 19.9733 5.18353 19.9572 5.23014 19.9476C5.43814 19.9187 5.64763 19.9017 5.85758 19.8968C6.25364 19.8706 6.64619 19.806 7.02969 19.7036C7.14378 19.6291 7.2396 19.5298 7.31001 19.4131L7.58452 19.3333C7.28725 17.2689 7.76257 15.1675 8.9193 13.432L8.71015 13.2447C8.70275 13.1091 8.65746 12.9782 8.57943 12.8671C8.27812 12.6079 7.95219 12.3787 7.60631 12.183C7.41979 12.0879 7.23891 11.9822 7.06455 11.8663C7.03963 11.8479 7.00943 11.823 6.97954 11.7983C6.9624 11.7842 6.94536 11.7701 6.92948 11.7574H6.91931C6.77035 11.6507 6.66975 11.4892 6.63953 11.3085C6.60932 11.1277 6.65195 10.9424 6.75809 10.793C6.82074 10.7162 6.9006 10.6553 6.99119 10.6152C7.08179 10.5751 7.18056 10.5569 7.27951 10.5621C7.44595 10.5689 7.6058 10.629 7.73557 10.7334C7.74104 10.7377 7.74674 10.7421 7.75261 10.7466C7.79508 10.7794 7.84636 10.819 7.88081 10.8496C8.03478 10.9936 8.18027 11.1463 8.31654 11.3071C8.5838 11.601 8.87907 11.868 9.19816 12.1045C9.31797 12.1676 9.45773 12.1812 9.58742 12.1423C9.60883 12.1546 9.65872 12.1908 9.71116 12.2288C9.7512 12.2578 9.79272 12.2879 9.82416 12.3093C10.9737 11.0876 12.4623 10.2373 14.0987 9.86779C14.488 9.77963 14.8831 9.71896 15.2809 9.68624L15.2969 9.40883C15.3984 9.31852 15.4719 9.20111 15.509 9.07041C15.5234 8.67345 15.4991 8.27602 15.4363 7.88378C15.3944 7.67847 15.3643 7.47091 15.3463 7.26214V7.09511V7.07623C15.3372 6.89339 15.4008 6.71437 15.5233 6.5783ZM14.9861 14.854L15.1807 11.4233C14.9479 11.4517 14.7166 11.492 14.4879 11.5439C13.2627 11.8192 12.1389 12.4315 11.2432 13.3115L14.0565 15.2897C14.1408 15.3493 14.2395 15.3853 14.3423 15.3941C14.4451 15.403 14.5485 15.3842 14.6417 15.3398C14.7348 15.2954 14.8145 15.227 14.8725 15.1417C14.9305 15.0563 14.9647 14.957 14.9716 14.854H14.9861ZM20.7421 13.3115C19.6773 12.2691 18.2994 11.6057 16.8205 11.4233L17.0195 14.8583C17.0262 14.9616 17.0603 15.0611 17.1184 15.1467C17.1765 15.2323 17.2563 15.3009 17.3498 15.3453C17.4432 15.3897 17.5468 15.4084 17.6498 15.3994C17.7529 15.3904 17.8517 15.354 17.936 15.2941H17.9461L20.7421 13.3115ZM12.7871 16.8903L10.2178 14.5925V14.594C9.43652 15.87 9.10231 17.3698 9.26788 18.8569L12.5605 17.907V17.8954C12.6601 17.8666 12.7502 17.8116 12.8214 17.7363C12.8926 17.6609 12.9424 17.5679 12.9655 17.4668C12.9886 17.3657 12.9843 17.2603 12.9529 17.1615C12.9215 17.0627 12.8643 16.974 12.7871 16.9048V16.8903ZM22.7479 18.8438C22.891 17.3573 22.5453 15.8647 21.7631 14.5925L21.7675 14.6056L19.2126 16.8917C19.1355 16.961 19.0782 17.0496 19.0469 17.1484C19.0155 17.2472 19.0111 17.3527 19.0343 17.4537C19.0574 17.5548 19.1071 17.6478 19.1783 17.7232C19.2495 17.7986 19.3396 17.8535 19.4392 17.8823V17.8968L22.7479 18.8438ZM16.5257 17.0617H15.4726L14.8162 17.8779L15.0514 18.8946L15.9984 19.3507L16.944 18.8961L17.1792 17.8794L16.5257 17.0617ZM18.9788 19.8707C18.9353 19.8622 18.8909 19.8588 18.8466 19.8605V19.8707C18.754 19.8762 18.664 19.9039 18.5842 19.9513C18.5044 19.9988 18.4372 20.0647 18.3881 20.1435C18.3391 20.2223 18.3096 20.3117 18.3022 20.4042C18.2948 20.4967 18.3096 20.5897 18.3455 20.6753L19.6673 23.8706C20.9272 23.0639 21.8832 21.8611 22.3847 20.4516L18.9788 19.8707ZM13.3942 19.9489C13.312 19.9029 13.2197 19.8775 13.1255 19.875L13.1212 19.8678C13.0832 19.8674 13.0452 19.8708 13.0079 19.8779L9.63099 20.4516C10.1381 21.8539 11.0939 23.0496 12.3499 23.8532L13.6571 20.6913L13.6469 20.6782C13.683 20.5911 13.6974 20.4966 13.6888 20.4027C13.6802 20.3089 13.6489 20.2185 13.5975 20.1394C13.5462 20.0604 13.4764 19.995 13.3942 19.9489ZM16.2854 21.3375C16.1921 21.2839 16.0857 21.2573 15.9781 21.2606V21.2664C15.877 21.2703 15.7787 21.3004 15.6928 21.3539C15.607 21.4074 15.5366 21.4824 15.4886 21.5714L13.8285 24.5736C15.0172 24.9784 16.2951 25.0443 17.5191 24.7639C17.7438 24.7131 17.9658 24.651 18.1843 24.578L16.5198 21.5642H16.5068C16.4554 21.4696 16.3788 21.3911 16.2854 21.3375Z" fill="#111827"/>
</g>
<defs>
<clipPath id="clip0_445_20">
<rect width="32" height="32" fill="white" transform="translate(0 0.848877)"/>
</clipPath>
</defs>
</svg>
