<svg width="32" height="32" viewBox="0 0 32 32" fill="none" xmlns="http://www.w3.org/2000/svg">
<path fill-rule="evenodd" clip-rule="evenodd" d="M12.6143 2.80218e-05H23.4772C23.4926 -0.000333966 23.5081 -0.000335755 23.5237 2.80218e-05H26.2275C26.7797 2.80218e-05 27.2275 0.447743 27.2275 1.00003C27.2275 1.55231 26.7797 2.00003 26.2275 2.00003H24.2008L22.5188 6.62555L31.2579 30.6581C31.4466 31.1772 31.1789 31.7509 30.6598 31.9397C30.1408 32.1284 29.567 31.8607 29.3783 31.3416L26.1466 22.4546H16.7627L13.5311 31.3417C13.3423 31.8607 12.7686 32.1285 12.2495 31.9397C11.7305 31.751 11.4627 31.1772 11.6515 30.6582L13.147 26.5454H4.3658L2.62171 31.3417C2.43297 31.8607 1.8592 32.1285 1.34017 31.9397C0.821136 31.751 0.55338 31.1772 0.742119 30.6582L2.68751 25.3084C2.70496 25.2366 2.73017 25.1678 2.76219 25.103L8.63352 8.95683C8.65197 8.87665 8.68006 8.80016 8.71651 8.72863L11.1633 2.00003H9.86388C9.31159 2.00003 8.86388 1.55231 8.86388 1.00003C8.86388 0.447743 9.31159 2.80218e-05 9.86388 2.80218e-05H12.5678C12.5833 -0.000333966 12.5988 -0.000335755 12.6143 2.80218e-05ZM17.49 20.4546H25.4194L21.4547 9.55172L18.5073 17.657C18.4973 17.6898 18.4856 17.7218 18.4724 17.7531L17.49 20.4546ZM22.0726 2.00003L20.5249 6.25643C20.5177 6.2745 20.511 6.29278 20.5049 6.31125L19.8246 8.18199H11.0434L13.2914 2.00003H22.0726ZM5.09307 24.5454H13.8743L16.1222 18.3637H7.34097L5.09307 24.5454ZM8.06824 16.3637L10.3161 10.182H19.0974L16.8495 16.3637H8.06824Z" fill="#111827"/>
</svg>
