<svg width="32" height="32" viewBox="0 0 32 32" fill="none" xmlns="http://www.w3.org/2000/svg">
<path fill-rule="evenodd" clip-rule="evenodd" d="M6.66626 0.999512C7.21854 0.999512 7.66626 1.44723 7.66626 1.99951V6.83291H24.3336V1.99951C24.3336 1.44723 24.7813 0.999512 25.3336 0.999512C25.8859 0.999512 26.3336 1.44723 26.3336 1.99951V7.82365L26.3336 7.83291L26.3336 7.84217V15.9908L26.3336 16.0001L26.3336 16.0093V24.1575C26.3336 24.1605 26.3336 24.1636 26.3336 24.1667C26.3336 24.1698 26.3336 24.1729 26.3336 24.176V30.0005C26.3336 30.5528 25.8859 31.0005 25.3336 31.0005C24.7813 31.0005 24.3336 30.5528 24.3336 30.0005V25.1667H7.66626V30.0005C7.66626 30.5528 7.21854 31.0005 6.66626 31.0005C6.11397 31.0005 5.66626 30.5528 5.66626 30.0005V24.1667V16.0001V7.83291V1.99951C5.66626 1.44723 6.11397 0.999512 6.66626 0.999512ZM7.66626 23.1667H24.3336V17.0001H7.66626V23.1667ZM24.3336 8.83291V15.0001H7.66626V8.83291H24.3336Z" fill="#111827"/>
</svg>
