<svg width="32" height="33" viewBox="0 0 32 33" fill="none" xmlns="http://www.w3.org/2000/svg">
<path fill-rule="evenodd" clip-rule="evenodd" d="M12.6143 0.500028H23.4772C23.4926 0.499666 23.5081 0.499664 23.5237 0.500028H26.2275C26.7797 0.500028 27.2275 0.947743 27.2275 1.50003C27.2275 2.05231 26.7797 2.50003 26.2275 2.50003H24.2008L22.5188 7.12555L31.2579 31.1581C31.4466 31.6772 31.1789 32.2509 30.6598 32.4397C30.1408 32.6284 29.567 32.3607 29.3783 31.8416L26.1466 22.9546H16.7627L13.5311 31.8417C13.3423 32.3607 12.7686 32.6285 12.2495 32.4397C11.7305 32.251 11.4627 31.6772 11.6515 31.1582L13.147 27.0454H4.3658L2.62171 31.8417C2.43297 32.3607 1.8592 32.6285 1.34017 32.4397C0.821136 32.251 0.55338 31.6772 0.742119 31.1582L2.68751 25.8084C2.70496 25.7366 2.73017 25.6678 2.76219 25.603L8.63352 9.45683C8.65197 9.37665 8.68006 9.30016 8.71651 9.22863L11.1633 2.50003H9.86388C9.31159 2.50003 8.86388 2.05231 8.86388 1.50003C8.86388 0.947743 9.31159 0.500028 9.86388 0.500028H12.5678C12.5833 0.499666 12.5988 0.499664 12.6143 0.500028ZM17.49 20.9546H25.4194L21.4547 10.0517L18.5073 18.157C18.4973 18.1898 18.4856 18.2218 18.4724 18.2531L17.49 20.9546ZM22.0726 2.50003L20.5249 6.75643C20.5177 6.7745 20.511 6.79278 20.5049 6.81125L19.8246 8.68199H11.0434L13.2914 2.50003H22.0726ZM5.09307 25.0454H13.8743L16.1222 18.8637H7.34097L5.09307 25.0454ZM8.06824 16.8637L10.3161 10.682H19.0974L16.8495 16.8637H8.06824Z" fill="#111827"/>
</svg>
