<svg width="32" height="32" viewBox="0 0 32 32" fill="none" xmlns="http://www.w3.org/2000/svg">
<path fill-rule="evenodd" clip-rule="evenodd" d="M6.84958 2C6.29729 2 5.84958 2.44772 5.84958 3C5.84958 3.55228 6.29729 4 6.84958 4L11.3476 4L14.131 10.892L3.15202 28.4692C2.85944 28.9376 3.0019 29.5547 3.47021 29.8474C3.93852 30.1402 4.55534 29.9978 4.84792 29.5294L15.0569 13.1848L21.5309 29.215C21.7269 29.7004 22.2642 29.9525 22.7628 29.7929L28.0972 28.0863C28.6232 27.918 28.9132 27.3552 28.7449 26.8292C28.5766 26.3032 28.0137 26.0132 27.4877 26.1814L23.0377 27.6051L12.9494 2.62553C12.7967 2.2475 12.4299 2 12.0222 2L6.84958 2Z" fill="#111827"/>
</svg>
