<svg width="35" height="35" viewBox="0 0 35 35" fill="none" xmlns="http://www.w3.org/2000/svg">
<path fill-rule="evenodd" clip-rule="evenodd" d="M9.59291 4.28296C9.04062 4.28296 8.59291 4.73067 8.59291 5.28296C8.59291 5.83524 9.04062 6.28296 9.59291 6.28296L13.6952 6.28296L16.2311 12.5595L6.11229 28.753C5.81962 29.2214 5.96206 29.8383 6.43042 30.131C6.89878 30.4237 7.51572 30.2812 7.80839 29.8129L17.1572 14.8516L23.08 29.5111C23.2761 29.9964 23.8132 30.2484 24.3118 30.089L29.238 28.5136C29.764 28.3454 30.0541 27.7826 29.8859 27.2565C29.7176 26.7305 29.1548 26.4404 28.6288 26.6086L24.5867 27.9013L15.2969 4.90835C15.1442 4.5304 14.7774 4.28296 14.3697 4.28296H9.59291Z" fill="#1C1B1F"/>
</svg>
