<svg width="32" height="33" viewBox="0 0 32 33" fill="none" xmlns="http://www.w3.org/2000/svg">
<path fill-rule="evenodd" clip-rule="evenodd" d="M7.57446 3.82251C7.17443 3.82251 6.81289 4.06091 6.65532 4.42859L0.597394 18.5637C0.314593 19.2236 0.798623 19.9577 1.51654 19.9577H15V28.1777H11.3901C10.8379 28.1777 10.3901 28.6255 10.3901 29.1777C10.3901 29.73 10.8379 30.1777 11.3901 30.1777H20.6102C21.1625 30.1777 21.6102 29.73 21.6102 29.1777C21.6102 28.6255 21.1625 28.1777 20.6102 28.1777H17V19.9577H25.3726V25.7201C25.3726 26.2724 25.8203 26.7201 26.3726 26.7201C26.9248 26.7201 27.3726 26.2724 27.3726 25.7201V19.9577H30.4835C31.2014 19.9577 31.6854 19.2236 31.4026 18.5637L25.3447 4.42859C25.1871 4.06091 24.8256 3.82251 24.4255 3.82251H7.57446Z" fill="#111827"/>
</svg>
