<svg width="33" height="33" viewBox="0 0 33 33" fill="none" xmlns="http://www.w3.org/2000/svg">
<path fill-rule="evenodd" clip-rule="evenodd" d="M8.64978 8.87109C4.17089 8.87109 0.540039 12.5019 0.540039 16.9808C0.540039 21.4597 4.17089 25.0906 8.64978 25.0906H24.4303C28.9092 25.0906 32.54 21.4597 32.54 16.9808C32.54 12.5019 28.9092 8.87109 24.4303 8.87109H8.64978ZM15.3985 21.481C15.5903 21.6809 15.8725 21.6715 16.1232 21.6197H16.1224C16.2381 21.5258 16.0738 21.4073 15.9164 21.2937C15.8213 21.2251 15.7288 21.1584 15.7019 21.1C15.7896 20.9943 15.5303 20.7527 15.329 20.5652C15.2451 20.487 15.1712 20.4182 15.1368 20.3725C14.9942 20.2181 14.9367 20.0233 14.8788 19.8271C14.8402 19.6965 14.8015 19.5654 14.7374 19.4451C14.3444 18.5381 13.894 17.6382 13.2636 16.8707C12.8586 16.3606 12.3959 15.904 11.933 15.4474L11.933 15.4474C11.6341 15.1524 11.3351 14.8574 11.0517 14.548C10.759 14.2483 10.5833 13.8793 10.4074 13.5096C10.2607 13.2013 10.1137 12.8926 9.89854 12.6234C9.24613 11.6616 7.18197 11.3997 6.87932 12.7575C6.88013 12.7998 6.86754 12.8265 6.82983 12.8539C6.66319 12.9754 6.51385 13.1134 6.38885 13.2811C6.08308 13.706 6.03513 14.4272 6.41794 14.809L6.41904 14.7911C6.43105 14.5963 6.44231 14.4135 6.59717 14.2728C6.89269 14.526 7.33917 14.6154 7.68188 14.4264C8.09546 15.0148 8.22688 15.7264 8.35871 16.4402C8.46842 17.0342 8.57841 17.6298 8.85153 18.1571L8.87094 18.1892C9.03118 18.454 9.1931 18.7215 9.39863 18.9536C9.4734 19.0695 9.62769 19.1945 9.78154 19.3192C9.98348 19.4828 10.1847 19.6459 10.2043 19.7869C10.2052 19.8486 10.205 19.911 10.2047 19.9739V19.974V19.974C10.2032 20.346 10.2016 20.7314 10.4409 21.0365C10.5722 21.3038 10.2483 21.5719 9.98659 21.539C9.84339 21.5585 9.68692 21.5211 9.53155 21.484C9.31847 21.4331 9.10746 21.3827 8.93562 21.4802C8.88776 21.5319 8.81864 21.5338 8.74909 21.5357C8.66673 21.5379 8.58376 21.5402 8.53475 21.6252C8.52483 21.6509 8.50112 21.6799 8.47652 21.7101C8.42315 21.7754 8.36553 21.8459 8.43494 21.8996L8.45325 21.8857C8.55895 21.8056 8.66087 21.7283 8.80358 21.7765C8.78417 21.8812 8.85187 21.9093 8.91995 21.9376C8.93188 21.9425 8.94382 21.9475 8.95531 21.9529C8.95439 21.977 8.94963 22.0013 8.94492 22.0254C8.93339 22.0843 8.92213 22.1419 8.96786 22.192C8.98957 22.1701 9.00875 22.1456 9.02795 22.121L9.02796 22.121C9.07484 22.0611 9.12185 22.001 9.20603 21.9788C9.39148 22.2256 9.57867 22.1232 9.8137 21.9946C10.0788 21.8496 10.4047 21.6713 10.8575 21.9231C10.6838 21.9152 10.5297 21.9364 10.4126 22.0791C10.3835 22.1112 10.3592 22.1489 10.4103 22.1904C10.6777 22.0179 10.789 22.0798 10.894 22.1381C10.9699 22.1803 11.0424 22.2205 11.168 22.1692C11.1977 22.1539 11.2273 22.138 11.2571 22.1221L11.2571 22.1221C11.4581 22.0145 11.6623 21.9051 11.9006 21.9427C11.7225 21.9942 11.6588 22.1067 11.5893 22.2296L11.5893 22.2296C11.5551 22.29 11.5195 22.3529 11.4683 22.4123C11.4423 22.4405 11.4298 22.471 11.4604 22.5173C11.8345 22.486 11.9759 22.3918 12.1667 22.2647C12.2578 22.204 12.3601 22.1358 12.5043 22.0634C12.6637 21.9661 12.8227 22.0284 12.9769 22.0888C13.1443 22.1544 13.306 22.2177 13.4562 22.072C13.5022 22.0278 13.5614 22.0273 13.6206 22.0269C13.6422 22.0267 13.6639 22.0265 13.6849 22.0242C13.6379 21.7764 13.375 21.7794 13.1082 21.7825C12.7996 21.786 12.4859 21.7897 12.4956 21.4049C12.7825 21.211 12.7852 20.8732 12.7877 20.554V20.554C12.7883 20.477 12.7889 20.4011 12.7935 20.3286C13.0045 20.4453 13.2275 20.5368 13.449 20.6277L13.449 20.6277C13.6576 20.7133 13.8647 20.7983 14.0591 20.9032C14.2611 21.2286 14.5786 21.6597 15.0023 21.6315C15.0133 21.5985 15.0235 21.5695 15.0353 21.5366C15.0604 21.5408 15.0869 21.5474 15.1138 21.5542L15.1138 21.5542C15.2239 21.5818 15.3416 21.6113 15.3985 21.481ZM24.9859 18.1477L26.1484 16.9883V16.9875C26.6554 16.4827 26.9345 15.8093 26.9345 15.0928C26.9345 14.3763 26.6554 13.7037 26.1484 13.198C25.6414 12.6924 24.967 12.4141 24.2485 12.4141C23.5301 12.4141 22.8557 12.6924 22.3487 13.198L21.1862 14.3575C20.9149 14.6287 20.709 14.947 20.5738 15.3029L20.5659 15.3233L20.5447 15.3295C20.1226 15.4589 19.75 15.6823 19.4387 15.9927L18.2762 17.1521C17.2284 18.1971 17.2284 19.8967 18.2762 20.9416C18.7832 21.4473 19.4576 21.7255 20.1761 21.7255C20.8945 21.7255 21.5689 21.4473 22.0759 20.9416L23.2385 19.7822C23.5089 19.5133 23.714 19.1958 23.8492 18.8399L23.8571 18.8195L23.8783 18.8133C24.2934 18.6871 24.6761 18.4566 24.9859 18.1477ZM23.1686 14.0158C23.4563 13.7282 23.8406 13.5698 24.2494 13.5698H24.251C24.6605 13.5698 25.0441 13.7282 25.3326 14.0158C25.9292 14.6101 25.9284 15.5782 25.3326 16.1724L24.17 17.3319C24.1338 17.3679 24.0961 17.4024 24.056 17.4345L23.997 17.4823L23.9837 17.4079C23.8855 16.8693 23.6292 16.381 23.2417 15.9945C22.95 15.7037 22.605 15.4888 22.2159 15.3564C21.9738 15.5978 21.8417 15.9145 21.8417 16.2485C21.8417 16.3167 21.848 16.3864 21.8598 16.4562C22.0744 16.533 22.2638 16.6522 22.4226 16.8105C23.0185 17.4055 23.0185 18.3729 22.4226 18.9671L21.2601 20.1265C20.9622 20.4236 20.5715 20.5726 20.1792 20.5726C19.787 20.5726 19.3956 20.4236 19.0977 20.1265C18.5018 19.5323 18.5018 18.5642 19.0977 17.97L20.2602 16.8105C20.2956 16.7753 20.3333 16.7408 20.3734 16.7086L20.4324 16.6608L20.4457 16.7353C20.5424 17.2723 20.7995 17.7614 21.1877 18.1487C21.4801 18.4403 21.804 18.6339 22.1923 18.7664L22.2638 18.6951C22.4808 18.4787 22.6002 18.1903 22.6002 17.8829C22.6002 17.8147 22.594 17.7466 22.5822 17.6791C22.3582 17.6055 22.1734 17.4996 22.006 17.3326C21.7631 17.0912 21.613 16.7831 21.5713 16.4413L21.5643 16.3676C21.5312 15.9224 21.6924 15.4881 22.006 15.1753L23.1686 14.0158ZM11.346 20.4376L11.346 20.4376C11.2674 20.8232 11.1718 21.2917 10.7422 21.308C10.6998 21.5369 10.901 21.6231 11.0849 21.5494C11.2665 21.4663 11.3529 21.6153 11.4143 21.7634C11.6949 21.8042 12.1099 21.6701 12.1256 21.3386C11.7687 21.1335 11.6217 20.7709 11.4737 20.4057C11.448 20.3423 11.4223 20.2788 11.3954 20.216L11.3946 20.2168C11.3773 20.2839 11.362 20.359 11.346 20.4376Z" fill="#111827"/>
</svg>
