<svg width="33" height="33" viewBox="0 0 33 33" fill="none" xmlns="http://www.w3.org/2000/svg">
<path fill-rule="evenodd" clip-rule="evenodd" d="M4.95996 6.91925C4.95996 6.36697 5.40768 5.91925 5.95996 5.91925H27.96C28.5122 5.91925 28.96 6.36697 28.96 6.91925V21.2829C28.96 21.8352 28.5122 22.2829 27.96 22.2829H5.95996C5.40768 22.2829 4.95996 21.8352 4.95996 21.2829V6.91925ZM18.051 9.19198C18.051 9.79448 17.5625 10.2829 16.96 10.2829C16.3576 10.2829 15.8691 9.79448 15.8691 9.19198C15.8691 8.58949 16.3576 8.10107 16.96 8.10107C17.5625 8.10107 18.051 8.58949 18.051 9.19198ZM4.95996 25.6465C4.40768 25.6465 3.95996 26.0943 3.95996 26.6465C3.95996 27.1988 4.40768 27.6465 4.95996 27.6465L28.9599 27.6465C29.5122 27.6465 29.9599 27.1988 29.9599 26.6465C29.9599 26.0943 29.5122 25.6465 28.9599 25.6465L4.95996 25.6465Z" fill="#1C1B1F"/>
</svg>
