<svg width="32" height="33" viewBox="0 0 32 33" fill="none" xmlns="http://www.w3.org/2000/svg">
<path fill-rule="evenodd" clip-rule="evenodd" d="M7.32976 0.717041L1.06595 4.34339L0.846191 25.4423L13.4176 32.717L25.8352 25.4423V18.6951L31.8792 15.2225V7.88187L25.4176 4.07967L18.9121 7.88187V14.6291L13.7473 17.5742V4.34339L7.32976 0.717041ZM6.87389 8.49043L1.84749 5.60067L1.84758 24.9314L12.8333 31.3397V25.5666L6.87389 22.0728V8.49043ZM7.85921 8.4834L12.8551 5.62541V18.115L7.85921 21.063V8.4834ZM19.4069 15.4514L8.51156 21.7918L13.3945 24.707L24.3262 18.2937L19.4069 15.4514ZM13.8475 25.6225L24.764 19.2958V24.9971L13.8475 31.3187V25.6225ZM24.8569 11.9084L19.9191 9.045V14.5964L24.8569 17.5475V11.9084ZM20.3918 8.12562L25.3831 5.22274L30.2491 8.12562L25.3831 11.0703L20.3918 8.12562ZM30.8731 8.99976L25.8507 11.8997V17.5946L30.8731 14.5895V8.99976ZM2.38395 4.72832L7.41215 1.84237L12.3697 4.72832L7.41215 7.63201L2.38395 4.72832Z" fill="#111827"/>
</svg>
