<svg width="32" height="33" viewBox="0 0 32 33" fill="none" xmlns="http://www.w3.org/2000/svg">
<path d="M2.04553 5.11638L1.8335 24.894L13.6061 31.7161M2.04553 5.11638L7.87803 1.71704L13.8891 5.12138M2.04553 5.11638L7.78457 8.73007M13.8891 5.12138L13.8761 17.5241M13.8891 5.12138L7.78457 8.73007M13.8761 17.5241L18.7379 14.7709M13.8761 17.5241L7.7769 21.236M18.7379 14.7709V8.43225M18.7379 14.7709L24.7663 18.2405M18.7379 8.43225L24.8248 4.88399L30.8917 8.43982M18.7379 8.43225L24.7663 12.0268M30.8917 8.43982V14.6173L24.7663 18.2405M30.8917 8.43982L24.7663 12.0268M24.7663 18.2405V25.1972L13.6077 31.717L13.6061 31.7161M24.7663 18.2405V12.0268M24.7663 18.2405L13.553 24.7518M7.78457 8.73007L7.7769 21.236M7.7769 21.236L13.553 24.7518M13.553 24.7518L13.6061 31.7161" stroke="#111827" stroke-width="2"/>
</svg>
