<svg width="32" height="32" viewBox="0 0 32 32" fill="none" xmlns="http://www.w3.org/2000/svg">
<path fill-rule="evenodd" clip-rule="evenodd" d="M9.54774 4L4.84987 6.71976L4.68506 22.544L14.1136 28L23.4268 22.544V17.4835L27.9598 14.8791V9.37362L23.1136 6.52197L18.2345 9.37362V14.4341L14.3609 16.6429V6.71976L9.54774 4ZM9.20576 9.83009L5.43596 7.66277L5.43603 22.1608L13.6754 26.9671V22.6372L9.20576 20.0169V9.83009ZM9.94459 9.8248L13.6915 7.6813V17.0485L9.94459 19.2595V9.8248ZM18.6058 15.0508L10.4343 19.8061L14.0964 21.9925L22.2953 17.1825L18.6058 15.0508ZM14.4362 22.679L22.6235 17.934V22.2099L14.4362 26.9511V22.679ZM22.693 12.3935L18.9897 10.2459V14.4095L22.693 16.6228V12.3935ZM19.344 9.55642L23.0875 7.37926L26.737 9.55642L23.0875 11.7649L19.344 9.55642ZM27.205 10.2121L23.4383 12.387V16.6582L27.205 14.4044V10.2121ZM5.83817 7.00843L9.60932 4.84396L13.3275 7.00843L9.60932 9.1862L5.83817 7.00843Z" fill="#1C1B1F"/>
</svg>
