<svg width="32" height="32" viewBox="0 0 32 32" fill="none" xmlns="http://www.w3.org/2000/svg">
<path fill-rule="evenodd" clip-rule="evenodd" d="M0.5 2.66663C0.223858 2.66663 0 2.89048 0 3.16663V8.33204C0 8.60818 0.223858 8.83204 0.5 8.83204H31.5C31.7761 8.83204 32 8.60818 32 8.33204V3.16663C32 2.89048 31.7761 2.66663 31.5 2.66663H0.5ZM13.7768 13.5247C13.7768 13.2486 14.0007 13.0247 14.2768 13.0247H31.4995C31.7757 13.0247 31.9995 13.2486 31.9995 13.5247V28.8333C31.9995 29.1094 31.7757 29.3333 31.4995 29.3333H14.2768C14.0007 29.3333 13.7768 29.1094 13.7768 28.8333V13.5247ZM0 13.5249C0 13.2487 0.223858 13.0249 0.5 13.0249H8.89548C9.17162 13.0249 9.39548 13.2487 9.39548 13.5249V28.8334C9.39548 29.1096 9.17162 29.3334 8.89548 29.3334H0.5C0.223858 29.3334 0 29.1096 0 28.8334V13.5249Z" fill="#111827"/>
</svg>
