<svg width="33" height="33" viewBox="0 0 33 33" fill="none" xmlns="http://www.w3.org/2000/svg">
<path fill-rule="evenodd" clip-rule="evenodd" d="M3.89502 4.97876C3.61888 4.97876 3.39502 5.20262 3.39502 5.47876V9.70588C3.39502 9.98202 3.61888 10.2059 3.89502 10.2059H30.025C30.3012 10.2059 30.525 9.98202 30.525 9.70588V5.47876C30.525 5.20262 30.3012 4.97876 30.025 4.97876H3.89502ZM15.0752 14.2605C15.0752 13.9844 15.2991 13.7605 15.5752 13.7605H30.0246C30.3008 13.7605 30.5246 13.9844 30.5246 14.2605V27.0871C30.5246 27.3632 30.3008 27.5871 30.0246 27.5871H15.5752C15.2991 27.5871 15.0752 27.3632 15.0752 27.0871V14.2605ZM3.39502 14.2606C3.39502 13.9845 3.61888 13.7606 3.89502 13.7606H10.8606C11.1368 13.7606 11.3606 13.9845 11.3606 14.2606V27.0872C11.3606 27.3633 11.1368 27.5872 10.8606 27.5872H3.89502C3.61888 27.5872 3.39502 27.3633 3.39502 27.0872V14.2606Z" fill="#1C1B1F"/>
</svg>
