<svg width="32" height="32" viewBox="0 0 32 32" fill="none" xmlns="http://www.w3.org/2000/svg">
<path fill-rule="evenodd" clip-rule="evenodd" d="M26.5846 27.9988C23.7639 30.489 20.0584 32 16 32C11.9415 32 8.23596 30.4889 5.41524 27.9987L11.3318 22.0822C12.6246 23.0759 14.2432 23.6667 15.9998 23.6667C17.7565 23.6667 19.3751 23.0759 20.6679 22.0822L26.5846 27.9988ZM27.9988 26.5846C30.489 23.7639 32 20.0584 32 16C32 11.9416 30.489 8.23607 27.9988 5.41537L22.0821 11.3321C23.0758 12.6249 23.6665 14.2434 23.6665 16C23.6665 17.7566 23.0758 19.3751 22.0821 20.6679L27.9988 26.5846ZM26.5846 4.00116L20.6679 9.91785C19.3751 8.92413 17.7565 8.33334 15.9998 8.33334C14.2432 8.33334 12.6246 8.92412 11.3318 9.91783L5.41525 4.00129C8.23596 1.51107 11.9415 0 16 0C20.0584 0 23.7639 1.51102 26.5846 4.00116ZM4.00105 5.41552C1.51097 8.2362 0 11.9416 0 16C0 20.0584 1.51097 23.7638 4.00104 26.5845L9.91757 20.668C8.92391 19.3752 8.33317 17.7566 8.33317 16C8.33317 14.2434 8.92392 12.6248 9.91758 11.3321L4.00105 5.41552ZM10.3332 16C10.3332 12.8704 12.8702 10.3333 15.9998 10.3333C19.1295 10.3333 21.6665 12.8704 21.6665 16C21.6665 19.1296 19.1295 21.6667 15.9998 21.6667C12.8702 21.6667 10.3332 19.1296 10.3332 16Z" fill="#111827"/>
</svg>
