<svg width="33" height="33" viewBox="0 0 33 33" fill="none" xmlns="http://www.w3.org/2000/svg">
<path fill-rule="evenodd" clip-rule="evenodd" d="M24.7089 25.4459C22.6182 27.2157 19.9137 28.2829 16.96 28.2829C14.0062 28.2829 11.3018 27.2157 9.21107 25.4459L13.4834 21.1736C14.4642 21.8721 15.6641 22.2829 16.96 22.2829C18.2558 22.2829 19.4557 21.8721 20.4366 21.1736L24.7089 25.4459ZM26.1231 24.0317C27.8928 21.941 28.96 19.2366 28.96 16.2829C28.96 13.3292 27.8928 10.6248 26.1231 8.53411L21.8507 12.8064C22.5492 13.7872 22.96 14.9871 22.96 16.2829C22.96 17.5787 22.5492 18.7786 21.8508 19.7594L26.1231 24.0317ZM24.7089 7.11989L20.4366 11.3922C19.4557 10.6937 18.2558 10.2829 16.96 10.2829C15.6641 10.2829 14.4642 10.6937 13.4834 11.3922L9.21109 7.11987C11.3018 5.35007 14.0062 4.2829 16.96 4.2829C19.9137 4.2829 22.6182 5.35007 24.7089 7.11989ZM7.79688 8.53409C6.02711 10.6248 4.95996 13.3292 4.95996 16.2829C4.95996 19.2366 6.0271 21.941 7.79687 24.0317L12.0692 19.7594C11.3707 18.7786 10.96 17.5787 10.96 16.2829C10.96 14.9871 11.3707 13.7872 12.0692 12.8064L7.79688 8.53409ZM12.96 16.2829C12.96 14.0738 14.7508 12.2829 16.96 12.2829C19.1691 12.2829 20.96 14.0738 20.96 16.2829C20.96 18.492 19.1691 20.2829 16.96 20.2829C14.7508 20.2829 12.96 18.492 12.96 16.2829Z" fill="#1C1B1F"/>
</svg>
