<svg width="33" height="33" viewBox="0 0 33 33" fill="none" xmlns="http://www.w3.org/2000/svg">
<path fill-rule="evenodd" clip-rule="evenodd" d="M21.0337 21.8149C24.0929 20.3094 26.1981 17.1611 26.1981 13.5211C26.1981 8.41899 22.062 4.2829 16.9599 4.2829C11.8578 4.2829 7.72168 8.41899 7.72168 13.5211C7.72168 17.1571 9.82222 20.3025 12.876 21.8099V24.5114C12.876 25.0637 13.3237 25.5114 13.876 25.5114H15.9599V18.9397L12.0102 14.99C11.6197 14.5995 11.6197 13.9663 12.0102 13.5758C12.4007 13.1853 13.0339 13.1853 13.4244 13.5758L16.9599 17.1113L20.4955 13.5758C20.886 13.1853 21.5191 13.1853 21.9097 13.5758C22.3002 13.9663 22.3002 14.5995 21.9097 14.99L17.9599 18.9398V25.5114H20.0337C20.586 25.5114 21.0337 25.0637 21.0337 24.5114V21.8149ZM12.8813 27.2829C12.3291 27.2829 11.8813 27.7306 11.8813 28.2829C11.8813 28.8352 12.3291 29.2829 12.8813 29.2829H21.0387C21.591 29.2829 22.0387 28.8352 22.0387 28.2829C22.0387 27.7306 21.591 27.2829 21.0387 27.2829H12.8813Z" fill="#1C1B1F"/>
</svg>
