<svg width="32" height="32" viewBox="0 0 32 32" fill="none" xmlns="http://www.w3.org/2000/svg">
<path fill-rule="evenodd" clip-rule="evenodd" d="M21.262 22.6455C25.2134 20.7009 27.9326 16.6344 27.9326 11.9328C27.9326 5.34259 22.5902 0.000183105 16 0.000183105C9.40979 0.000183105 4.06738 5.34259 4.06738 11.9328C4.06738 16.6292 6.78056 20.692 10.725 22.6391V26.4202C10.725 26.9725 11.1727 27.4202 11.725 27.4202H20.262C20.8143 27.4202 21.262 26.9725 21.262 26.4202V22.6455ZM16.2253 4.67788C16.3178 4.13341 16.8343 3.76705 17.3787 3.8596C19.0424 4.14239 20.5773 4.93479 21.7713 6.12734C22.9653 7.3199 23.7596 8.85378 24.0445 10.5171C24.1377 11.0615 23.772 11.5784 23.2276 11.6716C22.6833 11.7648 22.1664 11.3991 22.0732 10.8547C21.8582 9.59964 21.2589 8.44226 20.358 7.54243C19.457 6.64259 18.2989 6.0447 17.0436 5.83132C16.4991 5.73877 16.1327 5.22236 16.2253 4.67788ZM10.7318 29.9999C10.1795 29.9999 9.73182 30.4476 9.73182 30.9999C9.73182 31.5521 10.1795 31.9999 10.7318 31.9999H21.2683C21.8206 31.9999 22.2683 31.5521 22.2683 30.9999C22.2683 30.4476 21.8206 29.9999 21.2683 29.9999H10.7318Z" fill="#111827"/>
</svg>
