<svg width="33" height="33" viewBox="0 0 33 33" fill="none" xmlns="http://www.w3.org/2000/svg">
<path fill-rule="evenodd" clip-rule="evenodd" d="M21.0337 21.8149C24.0929 20.3094 26.1981 17.1611 26.1981 13.5211C26.1981 8.41899 22.062 4.2829 16.9599 4.2829C11.8578 4.2829 7.72168 8.41899 7.72168 13.5211C7.72168 17.1571 9.82222 20.3025 12.876 21.8099V24.5114C12.876 25.0637 13.3237 25.5114 13.876 25.5114H20.0337C20.586 25.5114 21.0337 25.0637 21.0337 24.5114V21.8149ZM16.9121 7.86654C17.0046 7.32207 17.521 6.95571 18.0655 7.04826C19.3997 7.27504 20.6305 7.91047 21.588 8.86679C22.5455 9.82312 23.1824 11.0532 23.4109 12.387C23.5041 12.9314 23.1384 13.4482 22.594 13.5415C22.0496 13.6347 21.5328 13.269 21.4396 12.7246C21.2811 11.799 20.8391 10.9455 20.1747 10.2819C19.5102 9.61827 18.6562 9.17734 17.7304 9.01998C17.1859 8.92743 16.8195 8.41102 16.9121 7.86654ZM12.8813 27.2829C12.3291 27.2829 11.8813 27.7306 11.8813 28.2829C11.8813 28.8352 12.3291 29.2829 12.8813 29.2829H21.0387C21.591 29.2829 22.0387 28.8352 22.0387 28.2829C22.0387 27.7306 21.591 27.2829 21.0387 27.2829H12.8813Z" fill="#1C1B1F"/>
</svg>
