<svg width="32" height="32" viewBox="0 0 32 32" fill="none" xmlns="http://www.w3.org/2000/svg">
<path fill-rule="evenodd" clip-rule="evenodd" d="M21.262 22.6455C25.2134 20.7009 27.9326 16.6344 27.9326 11.9328C27.9326 5.34259 22.5902 0.000183105 16 0.000183105C9.40979 0.000183105 4.06738 5.34259 4.06738 11.9328C4.06738 16.6292 6.78056 20.692 10.725 22.6391V26.4202C10.725 26.9725 11.1727 27.4202 11.725 27.4202H14.9999V18.811L9.81279 13.6238C9.42226 13.2333 9.42226 12.6001 9.81279 12.2096C10.2033 11.8191 10.8365 11.8191 11.227 12.2096L15.9999 16.9825L20.7729 12.2096C21.1634 11.8191 21.7965 11.8191 22.1871 12.2096C22.5776 12.6001 22.5776 13.2333 22.1871 13.6238L16.9999 18.811V27.4202H20.262C20.8143 27.4202 21.262 26.9725 21.262 26.4202V22.6455ZM10.7318 29.9999C10.1795 29.9999 9.73182 30.4476 9.73182 30.9999C9.73182 31.5521 10.1795 31.9999 10.7318 31.9999H21.2683C21.8206 31.9999 22.2683 31.5521 22.2683 30.9999C22.2683 30.4476 21.8206 29.9999 21.2683 29.9999H10.7318Z" fill="#111827"/>
</svg>
