<svg width="33" height="33" viewBox="0 0 33 33" fill="none" xmlns="http://www.w3.org/2000/svg">
<path fill-rule="evenodd" clip-rule="evenodd" d="M5.9384 5.21019C6.32893 4.81967 6.96209 4.81967 7.35261 5.21019L27.3526 25.2102C27.7431 25.6007 27.7431 26.2339 27.3526 26.6244C26.9621 27.0149 26.3289 27.0149 25.9384 26.6244L19.8654 20.5514L13.7135 26.9997C13.3651 27.3649 12.7566 27.0426 12.8629 26.5493L14.2442 20.1402C14.2966 19.8971 14.1624 19.6526 13.9294 19.5661L7.88439 17.3226C7.54756 17.1976 7.44858 16.7687 7.69654 16.5087L11.6635 12.3495L5.9384 6.6244C5.54788 6.23388 5.54788 5.60071 5.9384 5.21019ZM17.9235 12.1849L19.0564 5.93883C19.1451 5.44941 18.5425 5.14467 18.201 5.50622L14.3579 9.57397C14.1731 9.76956 14.1762 10.0763 14.365 10.2681L21.8041 17.8265C22.0038 18.0293 22.3322 18.0249 22.5262 17.8167L24.2559 15.9611C24.4938 15.7058 24.4037 15.2915 24.0812 15.1581L18.2244 12.7361C18.0068 12.6462 17.8815 12.4165 17.9235 12.1849Z" fill="#1C1B1F"/>
</svg>
