<svg width="32" height="32" viewBox="0 0 32 32" fill="none" xmlns="http://www.w3.org/2000/svg">
<path fill-rule="evenodd" clip-rule="evenodd" d="M17.7904 10.3609L19.5625 0.590354C19.6513 0.100938 19.0487 -0.20381 18.7071 0.157749L12.6005 6.62141C12.4157 6.817 12.4188 7.12374 12.6076 7.31551L23.5052 18.3879C23.7049 18.5907 24.0333 18.5862 24.2273 18.378L27.0514 15.3482C27.2894 15.093 27.1992 14.6786 26.8768 14.5453L18.0913 10.9122C17.8737 10.8222 17.7484 10.5926 17.7904 10.3609ZM1.04582 0.555789C1.43635 0.165265 2.06951 0.165265 2.46004 0.555789L30.9538 29.0496C31.3444 29.4401 31.3444 30.0733 30.9538 30.4638C30.5633 30.8543 29.9302 30.8543 29.5396 30.4638L20.8806 21.8047L11.3031 31.8438C10.9547 32.2089 10.3462 31.8867 10.4526 31.3933L12.6179 21.3462C12.6703 21.1032 12.5361 20.8586 12.3031 20.7721L3.21599 17.3996C2.87916 17.2746 2.78018 16.8457 3.02814 16.5858L9.19535 10.1195L1.04582 1.97C0.655299 1.57948 0.655299 0.946313 1.04582 0.555789Z" fill="#111827"/>
</svg>
