<svg width="32" height="32" viewBox="0 0 32 32" fill="none" xmlns="http://www.w3.org/2000/svg">
<path fill-rule="evenodd" clip-rule="evenodd" d="M27.6364 8.72726C30.0463 8.72726 32 6.77359 32 4.36363C32 1.95366 30.0463 0 27.6364 0C25.2264 0 23.2727 1.95366 23.2727 4.36363C23.2727 5.20872 23.513 5.9977 23.9289 6.666C23.8994 6.68946 23.871 6.71483 23.8437 6.7421L6.7421 23.8437C6.71483 23.871 6.68946 23.8994 6.666 23.9289C5.9977 23.513 5.20872 23.2727 4.36363 23.2727C1.95366 23.2727 0 25.2264 0 27.6364C0 30.0463 1.95366 32 4.36363 32C6.77359 32 8.72726 30.0463 8.72726 27.6364C8.72726 26.7913 8.48702 26.0023 8.07112 25.334C8.10059 25.3105 8.12904 25.2852 8.15631 25.2579L25.2579 8.15631C25.2852 8.12904 25.3105 8.10059 25.334 8.07112C26.0023 8.48702 26.7913 8.72726 27.6364 8.72726Z" fill="#111827"/>
</svg>
