<svg width="33" height="33" viewBox="0 0 33 33" fill="none" xmlns="http://www.w3.org/2000/svg">
<path fill-rule="evenodd" clip-rule="evenodd" d="M26.3883 11.1402C27.8085 11.1402 28.9598 9.9889 28.9598 8.56874C28.9598 7.14858 27.8085 5.99731 26.3883 5.99731C24.9682 5.99731 23.8169 7.14858 23.8169 8.56874C23.8169 9.18648 24.0347 9.75334 24.3978 10.1967C24.3571 10.2462 24.3206 10.3003 24.2891 10.3588L20.7274 16.9732C20.6959 17.0318 20.6708 17.0922 20.6519 17.1535C20.5652 17.1447 20.4773 17.1401 20.3883 17.1401C20.0385 17.1401 19.705 17.21 19.401 17.3365C19.3654 17.2835 19.3242 17.2331 19.2773 17.1862L16.0567 13.9656C16.0098 13.9187 15.9594 13.8775 15.9064 13.8418C16.0329 13.5378 16.1028 13.2043 16.1028 12.8544C16.1028 11.4342 14.9516 10.283 13.5314 10.283C12.1112 10.283 10.96 11.4342 10.96 12.8544C10.96 13.472 11.1777 14.0388 11.5407 14.4822C11.4998 14.5318 11.4632 14.5861 11.4315 14.6448L7.87002 21.259C7.8385 21.3176 7.81341 21.3779 7.79451 21.4391C7.708 21.4303 7.62022 21.4258 7.53139 21.4258C6.11123 21.4258 4.95996 22.577 4.95996 23.9972C4.95996 25.4174 6.11123 26.5686 7.53139 26.5686C8.95155 26.5686 10.1028 25.4174 10.1028 23.9972C10.1028 23.3796 9.88507 22.8128 9.52215 22.3695C9.56288 22.32 9.59942 22.2658 9.63096 22.2072L13.1925 15.593C13.2241 15.5343 13.2492 15.4739 13.2681 15.4125C13.3547 15.4213 13.4425 15.4258 13.5314 15.4258C13.8812 15.4258 14.2147 15.356 14.5187 15.2295C14.5543 15.2825 14.5956 15.3329 14.6425 15.3798L17.8631 18.6004C17.91 18.6473 17.9603 18.6885 18.0133 18.7241C17.8868 19.0282 17.8169 19.3617 17.8169 19.7116C17.8169 21.1317 18.9682 22.283 20.3883 22.283C21.8085 22.283 22.9598 21.1317 22.9598 19.7116C22.9598 19.094 22.7421 18.5274 22.3793 18.0841C22.4201 18.0345 22.4568 17.9802 22.4884 17.9214L26.05 11.307C26.0815 11.2484 26.1066 11.1881 26.1255 11.1269C26.2119 11.1357 26.2996 11.1402 26.3883 11.1402Z" fill="#1C1B1F"/>
</svg>
