<svg width="32" height="32" viewBox="0 0 32 32" fill="none" xmlns="http://www.w3.org/2000/svg">
<path fill-rule="evenodd" clip-rule="evenodd" d="M28.5714 9.14285C30.465 9.14285 32 7.60781 32 5.71425C32 3.82068 30.465 2.28564 28.5714 2.28564C26.6778 2.28564 25.1428 3.82068 25.1428 5.71425C25.1428 6.65959 25.5254 7.51557 26.1442 8.1358C26.1155 8.17437 26.0893 8.21548 26.0659 8.25903L21.317 17.0784C21.2936 17.1219 21.2737 17.1664 21.2573 17.2115C21.0356 17.1665 20.8062 17.1429 20.5713 17.1429C19.9846 17.1429 19.4323 17.2902 18.9494 17.55C18.9208 17.5116 18.8891 17.4749 18.8542 17.44L14.5601 13.1459C14.5252 13.111 14.4884 13.0792 14.45 13.0506C14.7099 12.5677 14.8573 12.0153 14.8573 11.4285C14.8573 9.53492 13.3222 7.99989 11.4287 7.99989C9.53511 7.99989 8.00007 9.53492 8.00007 11.4285C8.00007 12.3737 8.38256 13.2296 9.0012 13.8498C8.97234 13.8886 8.94594 13.9299 8.92234 13.9738L4.17361 22.7928C4.15023 22.8363 4.13039 22.8806 4.11399 22.9256C3.89253 22.8807 3.66332 22.8571 3.4286 22.8571C1.53504 22.8571 0 24.3922 0 26.2857C0 28.1793 1.53504 29.7143 3.4286 29.7143C5.32217 29.7143 6.8572 28.1793 6.8572 26.2857C6.8572 25.3405 6.47473 24.4847 5.85611 23.8644C5.8848 23.8258 5.91106 23.7847 5.93455 23.741L10.6833 14.922C10.7068 14.8783 10.7267 14.8338 10.7431 14.7885C10.9646 14.8335 11.1939 14.8571 11.4287 14.8571C12.0154 14.8571 12.5677 14.7097 13.0506 14.45C13.0792 14.4884 13.111 14.5252 13.1459 14.5601L17.44 18.8542C17.4749 18.8891 17.5116 18.9208 17.55 18.9494C17.2901 19.4323 17.1427 19.9847 17.1427 20.5715C17.1427 22.465 18.6778 24.0001 20.5713 24.0001C22.4649 24.0001 23.9999 22.465 23.9999 20.5715C23.9999 19.6264 23.6176 18.7707 22.9991 18.1505C23.028 18.1117 23.0543 18.0704 23.0779 18.0266L27.8268 9.20723C27.8502 9.16381 27.87 9.11943 27.8864 9.07442C28.1078 9.11929 28.3368 9.14285 28.5714 9.14285Z" fill="#111827"/>
</svg>
