<svg width="33" height="33" viewBox="0 0 33 33" fill="none" xmlns="http://www.w3.org/2000/svg">
<path fill-rule="evenodd" clip-rule="evenodd" d="M25.6873 10.8284C27.4948 10.8284 28.96 9.36316 28.96 7.55569C28.96 5.74821 27.4948 4.28296 25.6873 4.28296C23.8798 4.28296 22.4146 5.74821 22.4146 7.55569C22.4146 8.09938 22.5471 8.6121 22.7817 9.0633C22.7413 9.09303 22.7026 9.12618 22.666 9.16277L9.83977 21.989C9.80318 22.0256 9.77003 22.0643 9.7403 22.1047C9.2891 21.8701 8.77638 21.7375 8.23269 21.7375C6.42521 21.7375 4.95996 23.2028 4.95996 25.0103C4.95996 26.8178 6.42521 28.283 8.23269 28.283C10.0402 28.283 11.5054 26.8178 11.5054 25.0103C11.5054 24.4666 11.3728 23.9539 11.1382 23.5027C11.1787 23.4729 11.2174 23.4398 11.254 23.4032L24.0802 10.577C24.1168 10.5404 24.1499 10.5017 24.1797 10.4612C24.6309 10.6958 25.1436 10.8284 25.6873 10.8284Z" fill="#1C1B1F"/>
</svg>
