<svg width="33" height="33" viewBox="0 0 33 33" fill="none" xmlns="http://www.w3.org/2000/svg">
<path fill-rule="evenodd" clip-rule="evenodd" d="M5.96021 4.28296C5.40792 4.28296 4.96021 4.73067 4.96021 5.28296V27.283C4.96021 27.8352 5.40792 28.283 5.96021 28.283H27.9602C28.5125 28.283 28.9602 27.8352 28.9602 27.283V5.28296C28.9602 4.73067 28.5125 4.28296 27.9602 4.28296H5.96021ZM12.7429 14.1962C12.7429 13.6439 12.2952 13.1962 11.7429 13.1962C11.1906 13.1962 10.7429 13.6439 10.7429 14.1962V22.544C10.7429 23.0963 11.1906 23.544 11.7429 23.544C12.2952 23.544 12.7429 23.0963 12.7429 22.544V14.1962ZM16.9036 14.0352C16.8266 13.5594 16.414 13.1962 15.9165 13.1962C15.3642 13.1962 14.9165 13.6439 14.9165 14.1962V17.8483V22.544C14.9165 23.0963 15.3642 23.544 15.9165 23.544C16.4688 23.544 16.9165 23.0963 16.9165 22.544V17.8483C16.9165 17.1449 17.1959 16.4703 17.6933 15.973C18.1907 15.4756 18.8653 15.1962 19.5687 15.1962C20.2721 15.1962 20.9467 15.4756 21.444 15.973C21.9414 16.4703 22.2209 17.1449 22.2209 17.8483V22.544C22.2209 23.0963 22.6686 23.544 23.2209 23.544C23.7731 23.544 24.2209 23.0963 24.2209 22.544V17.8483C24.2209 16.6145 23.7307 15.4312 22.8583 14.5588C21.9858 13.6863 20.8025 13.1962 19.5687 13.1962C18.6089 13.1962 17.6797 13.4928 16.9036 14.0352ZM13.3079 10.0221C13.3079 10.8866 12.6072 11.5873 11.7427 11.5873C10.8783 11.5873 10.1775 10.8866 10.1775 10.0221C10.1775 9.15768 10.8783 8.45691 11.7427 8.45691C12.6072 8.45691 13.3079 9.15768 13.3079 10.0221Z" fill="#1C1B1F"/>
</svg>
