<svg width="33" height="33" viewBox="0 0 33 33" fill="none" xmlns="http://www.w3.org/2000/svg">
<path fill-rule="evenodd" clip-rule="evenodd" d="M7.17333 13.3536C7.95024 12.5767 9.00395 12.1402 10.1027 12.1402H14.3882C14.9405 12.1402 15.3882 11.6925 15.3882 11.1402C15.3882 10.5879 14.9405 10.1402 14.3882 10.1402H10.1027C8.47352 10.1402 6.9111 10.7874 5.75912 11.9394C4.60714 13.0913 3.95996 14.6538 3.95996 16.2829C3.95996 17.912 4.60714 19.4745 5.75912 20.6264C6.9111 21.7784 8.47352 22.4256 10.1027 22.4256H14.3882C14.9405 22.4256 15.3882 21.9779 15.3882 21.4256C15.3882 20.8733 14.9405 20.4256 14.3882 20.4256H10.1027C9.00395 20.4256 7.95024 19.9891 7.17333 19.2122C6.39642 18.4353 5.95996 17.3816 5.95996 16.2829C5.95996 15.1842 6.39642 14.1305 7.17333 13.3536ZM19.5317 10.1402C18.9795 10.1402 18.5317 10.5879 18.5317 11.1402C18.5317 11.6925 18.9795 12.1402 19.5317 12.1402H23.8173C24.916 12.1402 25.9697 12.5767 26.7467 13.3536C27.5236 14.1305 27.96 15.1842 27.96 16.2829C27.96 17.3816 27.5236 18.4353 26.7467 19.2122C25.9697 19.9891 24.916 20.4256 23.8173 20.4256H19.5317C18.9795 20.4256 18.5317 20.8733 18.5317 21.4256C18.5317 21.9779 18.9795 22.4256 19.5317 22.4256H23.8173C25.4465 22.4256 27.0089 21.7784 28.1609 20.6264C29.3128 19.4745 29.96 17.912 29.96 16.2829C29.96 14.6538 29.3128 13.0913 28.1609 11.9394C27.0089 10.7874 25.4465 10.1402 23.8173 10.1402H19.5317Z" fill="#1C1B1F"/>
</svg>
