<svg width="32" height="32" viewBox="0 0 32 32" fill="none" xmlns="http://www.w3.org/2000/svg">
<path fill-rule="evenodd" clip-rule="evenodd" d="M7.42892 10.572C5.98934 10.572 4.60872 11.1439 3.59078 12.1618C2.57285 13.1798 2.00098 14.5604 2.00098 16C2.00098 17.4395 2.57285 18.8202 3.59078 19.8381C4.60872 20.856 5.98934 21.4279 7.42892 21.4279H12.7855C13.3378 21.4279 13.7855 21.8756 13.7855 22.4279C13.7855 22.9802 13.3378 23.4279 12.7855 23.4279H7.42892C5.45891 23.4279 3.56958 22.6453 2.17657 21.2523C0.783561 19.8593 0.000976562 17.97 0.000976562 16C0.000976562 14.03 0.783561 12.1406 2.17657 10.7476C3.56958 9.3546 5.45891 8.57202 7.42892 8.57202H12.7855C13.3378 8.57202 13.7855 9.01974 13.7855 9.57202C13.7855 10.1243 13.3378 10.572 12.7855 10.572H7.42892ZM8.57226 15.9994C8.57226 15.4471 9.01998 14.9994 9.57226 14.9994H22.4281C22.9804 14.9994 23.4281 15.4471 23.4281 15.9994C23.4281 16.5517 22.9804 16.9994 22.4281 16.9994H9.57226C9.01998 16.9994 8.57226 16.5517 8.57226 15.9994ZM19.2148 8.57202C18.6625 8.57202 18.2148 9.01974 18.2148 9.57202C18.2148 10.1243 18.6625 10.572 19.2148 10.572H24.5715C26.011 10.572 27.3917 11.1439 28.4096 12.1618C29.4275 13.1798 29.9994 14.5604 29.9994 16C29.9994 17.4395 29.4275 18.8202 28.4096 19.8381C27.3917 20.856 26.011 21.4279 24.5715 21.4279H19.2148C18.6625 21.4279 18.2148 21.8756 18.2148 22.4279C18.2148 22.9802 18.6625 23.4279 19.2148 23.4279H24.5715C26.5415 23.4279 28.4308 22.6453 29.8238 21.2523C31.2168 19.8593 31.9994 17.97 31.9994 16C31.9994 14.03 31.2168 12.1406 29.8238 10.7476C28.4308 9.3546 26.5415 8.57202 24.5715 8.57202H19.2148Z" fill="#111827"/>
</svg>
