<svg width="33" height="33" viewBox="0 0 33 33" fill="none" xmlns="http://www.w3.org/2000/svg">
<path fill-rule="evenodd" clip-rule="evenodd" d="M21.8129 5.2829C20.1827 5.28276 18.6192 5.93015 17.4663 7.08268L17.4662 7.0828L14.433 10.1159C14.0425 10.5064 14.0425 11.1396 14.433 11.5301C14.8236 11.9207 15.4567 11.9207 15.8472 11.5301L18.8802 8.49713L18.8804 8.49701C19.6582 7.71953 20.713 7.2828 21.8127 7.2829C22.9126 7.28299 23.9673 7.71994 24.745 8.49764C25.5227 9.27533 25.9597 10.3301 25.9598 11.4299C25.9599 12.5297 25.5231 13.5845 24.7456 14.3623L24.7455 14.3624L21.7125 17.3954C21.322 17.7859 21.322 18.4191 21.7125 18.8096C22.103 19.2001 22.7362 19.2001 23.1267 18.8096L26.1599 15.7765L26.16 15.7764C27.3125 14.6235 27.9599 13.06 27.9598 11.4297C27.9596 9.79955 27.312 8.23615 26.1592 7.08342C25.0065 5.9307 23.4431 5.28304 21.8129 5.2829ZM12.2072 15.1704C12.5977 14.7798 12.5977 14.1467 12.2072 13.7562C11.8167 13.3656 11.1835 13.3656 10.793 13.7561L7.75986 16.7893L7.75974 16.7894C6.60721 17.9423 5.95982 19.5058 5.95996 21.136C5.9601 22.7662 6.60776 24.3296 7.76049 25.4823C8.91321 26.6351 10.4766 27.2827 12.1068 27.2829C13.737 27.283 15.3005 26.6356 16.4534 25.4831L16.4536 25.483L19.4867 22.4498C19.8772 22.0593 19.8772 21.4262 19.4867 21.0356C19.0962 20.6451 18.463 20.6451 18.0725 21.0356L15.0395 24.0686L15.0394 24.0688C14.2615 24.8462 13.2068 25.283 12.107 25.2829C11.0072 25.2828 9.9524 24.8458 9.1747 24.0681C8.397 23.2904 7.96006 22.2357 7.95996 21.1359C7.95987 20.0361 8.39659 18.9813 9.17408 18.2035L9.1742 18.2034L12.2072 15.1704Z" fill="#1C1B1F"/>
</svg>
