<svg width="32" height="32" viewBox="0 0 32 32" fill="none" xmlns="http://www.w3.org/2000/svg">
<path fill-rule="evenodd" clip-rule="evenodd" d="M23.2786 0.00244144C20.9663 0.00224361 18.7485 0.920541 17.1131 2.55536L17.113 2.55548L12.564 7.10442C12.1735 7.49495 12.1735 8.12811 12.564 8.51863C12.9546 8.90916 13.5877 8.90916 13.9783 8.51863L18.5271 3.96982L18.5272 3.9697C19.7875 2.70992 21.4965 2.00229 23.2785 2.00244C25.0605 2.00259 26.7695 2.71056 28.0295 3.97063C29.2896 5.2307 29.9976 6.93967 29.9977 8.72168C29.9979 10.5036 29.2902 12.2127 28.0305 13.4729L28.0303 13.4731L23.4815 18.0219C23.091 18.4124 23.091 19.0456 23.4815 19.4361C23.872 19.8266 24.5052 19.8266 24.8957 19.4361L29.4447 14.8872L29.4448 14.887C31.0796 13.2517 31.9979 11.0339 31.9977 8.72151C31.9975 6.40913 31.0788 4.19152 29.4437 2.55642C27.8086 0.921316 25.591 0.00263927 23.2786 0.00244144ZM22.1659 9.83333C22.5564 10.2239 22.5564 10.857 22.1659 11.2475L11.2484 22.165C10.8579 22.5555 10.2247 22.5555 9.83418 22.165C9.44366 21.7745 9.44366 21.1413 9.83418 20.7508L20.7516 9.83333C21.1422 9.4428 21.7753 9.4428 22.1659 9.83333ZM8.51864 12.5639C8.90916 12.9544 8.90916 13.5876 8.51864 13.9781L3.96982 18.527L3.96969 18.5271C2.70992 19.7873 2.00229 21.4964 2.00244 23.2783C2.00259 25.0603 2.71056 26.7693 3.97063 28.0294C5.2307 29.2895 6.93967 29.9974 8.72168 29.9976C10.5037 29.9977 12.2128 29.2901 13.4731 28.0302L18.0219 23.4814C18.4124 23.0909 19.0456 23.0909 19.4361 23.4814C19.8266 23.8719 19.8266 24.5051 19.4361 24.8956L14.8872 29.4445L14.887 29.4447C13.2517 31.0795 11.0339 31.9978 8.72151 31.9976C6.40913 31.9974 4.19151 31.0787 2.55642 29.4436C0.921316 27.8085 0.00263927 25.5909 0.00244144 23.2785C0.00224361 20.9661 0.920541 18.7484 2.55536 17.113L2.55548 17.1129L7.10442 12.5639C7.49495 12.1734 8.12811 12.1734 8.51864 12.5639Z" fill="#111827"/>
</svg>
