<svg width="32" height="32" viewBox="0 0 32 32" fill="none" xmlns="http://www.w3.org/2000/svg">
<path fill-rule="evenodd" clip-rule="evenodd" d="M3.59078 12.1618C4.60872 11.1439 5.98934 10.572 7.42892 10.572H12.7855C13.3378 10.572 13.7855 10.1243 13.7855 9.57202C13.7855 9.01974 13.3378 8.57202 12.7855 8.57202H7.42892C5.45891 8.57202 3.56958 9.3546 2.17657 10.7476C0.783561 12.1406 0.000976562 14.03 0.000976562 16C0.000976562 17.97 0.783561 19.8593 2.17657 21.2523C3.56958 22.6453 5.45891 23.4279 7.42892 23.4279H12.7855C13.3378 23.4279 13.7855 22.9802 13.7855 22.4279C13.7855 21.8756 13.3378 21.4279 12.7855 21.4279H7.42892C5.98934 21.4279 4.60872 20.856 3.59078 19.8381C2.57285 18.8202 2.00098 17.4395 2.00098 16C2.00098 14.5604 2.57285 13.1798 3.59078 12.1618ZM19.2148 8.57202C18.6625 8.57202 18.2148 9.01974 18.2148 9.57202C18.2148 10.1243 18.6625 10.572 19.2148 10.572H24.5715C26.011 10.572 27.3917 11.1439 28.4096 12.1618C29.4275 13.1798 29.9994 14.5604 29.9994 16C29.9994 17.4395 29.4275 18.8202 28.4096 19.8381C27.3917 20.856 26.011 21.4279 24.5715 21.4279H19.2148C18.6625 21.4279 18.2148 21.8756 18.2148 22.4279C18.2148 22.9802 18.6625 23.4279 19.2148 23.4279H24.5715C26.5415 23.4279 28.4308 22.6453 29.8238 21.2523C31.2168 19.8593 31.9994 17.97 31.9994 16C31.9994 14.03 31.2168 12.1406 29.8238 10.7476C28.4308 9.3546 26.5415 8.57202 24.5715 8.57202H19.2148Z" fill="#111827"/>
</svg>
