<svg width="33" height="33" viewBox="0 0 33 33" fill="none" xmlns="http://www.w3.org/2000/svg">
<path fill-rule="evenodd" clip-rule="evenodd" d="M5.96021 4.42444C5.40792 4.42444 4.96021 4.87215 4.96021 5.42444V27.4244C4.96021 27.9767 5.40792 28.4244 5.96021 28.4244H27.9602C28.5125 28.4244 28.9602 27.9767 28.9602 27.4244V5.42444C28.9602 4.87215 28.5125 4.42444 27.9602 4.42444H5.96021ZM12.7429 14.3376C12.7429 13.7854 12.2952 13.3376 11.7429 13.3376C11.1906 13.3376 10.7429 13.7854 10.7429 14.3376V22.6855C10.7429 23.2378 11.1906 23.6855 11.7429 23.6855C12.2952 23.6855 12.7429 23.2378 12.7429 22.6855V14.3376ZM16.9036 14.1766C16.8266 13.7009 16.414 13.3376 15.9165 13.3376C15.3642 13.3376 14.9165 13.7854 14.9165 14.3376V17.9898V22.6855C14.9165 23.2378 15.3642 23.6855 15.9165 23.6855C16.4688 23.6855 16.9165 23.2378 16.9165 22.6855V17.9898C16.9165 17.2864 17.1959 16.6118 17.6933 16.1145C18.1907 15.6171 18.8653 15.3376 19.5687 15.3376C20.2721 15.3376 20.9467 15.6171 21.444 16.1145C21.9414 16.6118 22.2209 17.2864 22.2209 17.9898V22.6855C22.2209 23.2378 22.6686 23.6855 23.2209 23.6855C23.7731 23.6855 24.2209 23.2378 24.2209 22.6855V17.9898C24.2209 16.756 23.7307 15.5727 22.8583 14.7002C21.9858 13.8278 20.8025 13.3376 19.5687 13.3376C18.6089 13.3376 17.6797 13.6342 16.9036 14.1766ZM13.3079 10.1636C13.3079 11.0281 12.6072 11.7288 11.7427 11.7288C10.8783 11.7288 10.1775 11.0281 10.1775 10.1636C10.1775 9.29916 10.8783 8.59839 11.7427 8.59839C12.6072 8.59839 13.3079 9.29916 13.3079 10.1636Z" fill="#1C1B1F"/>
</svg>
