<svg width="32" height="32" viewBox="0 0 32 32" fill="none" xmlns="http://www.w3.org/2000/svg">
<path fill-rule="evenodd" clip-rule="evenodd" d="M23.6038 2.0025C24.4435 2.00231 25.2749 2.16755 26.0507 2.48879C26.8265 2.81003 27.5314 3.28097 28.1252 3.87471C28.7189 4.46846 29.1899 5.17336 29.5111 5.94916C29.8323 6.72496 29.9976 7.55644 29.9974 8.39612C29.9972 9.2358 29.8316 10.0672 29.51 10.8429C29.1884 11.6185 28.7171 12.3232 28.1231 12.9167L28.1227 12.917L23.3709 17.6688C22.7773 18.2624 22.0727 18.7332 21.2971 19.0545C20.5216 19.3757 19.6904 19.541 18.851 19.541C18.0116 19.541 17.1804 19.3757 16.4048 19.0545C15.6293 18.7332 14.9246 18.2624 14.3311 17.6688C13.9405 17.2783 13.3074 17.2783 12.9169 17.6688C12.5263 18.0594 12.5263 18.6925 12.9169 19.083C13.6961 19.8623 14.6213 20.4805 15.6395 20.9022C16.6576 21.324 17.7489 21.541 18.851 21.541C19.9531 21.541 21.0443 21.324 22.0625 20.9022C23.0807 20.4805 24.0058 19.8623 24.7851 19.083L29.5366 14.3315L29.537 14.3312C30.3167 13.5521 30.9353 12.6271 31.3575 11.6089C31.7797 10.5905 31.9971 9.49899 31.9974 8.39659C31.9977 7.29419 31.7807 6.20254 31.359 5.18401C30.9372 4.16547 30.3189 3.24001 29.5394 2.4605C28.7599 1.68099 27.8344 1.06269 26.8159 0.640942C25.7974 0.21919 24.7057 0.00224601 23.6033 0.00250267C22.5009 0.00275927 21.4094 0.220212 20.391 0.642437C19.3728 1.0646 18.4478 1.68321 17.6687 2.46293L17.6684 2.46326L14.3424 5.78923C13.9519 6.17975 13.9519 6.81291 14.3424 7.20344C14.7329 7.59396 15.3661 7.59396 15.7566 7.20344L19.0829 3.87715L19.0832 3.87682C19.6767 3.2828 20.3814 2.81153 21.157 2.48993C21.9327 2.16833 22.7641 2.0027 23.6038 2.0025ZM10.7022 12.9456C11.4777 12.6243 12.3089 12.459 13.1484 12.459C13.9878 12.459 14.819 12.6243 15.5945 12.9456C16.3701 13.2668 17.0747 13.7376 17.6683 14.3312C18.0588 14.7217 18.692 14.7217 19.0825 14.3312C19.473 13.9407 19.473 13.3075 19.0825 12.917C18.3032 12.1377 17.3781 11.5196 16.3599 11.0978C15.3417 10.6761 14.2504 10.459 13.1484 10.459C12.0463 10.459 10.955 10.6761 9.93683 11.0978C8.91865 11.5196 7.99351 12.1377 7.21423 12.917L2.46272 17.6685L2.46239 17.6688C1.68266 18.4479 1.06405 19.373 0.641888 20.3912C0.219663 21.4095 0.00220995 22.5011 0.00195335 23.6035C0.00169669 24.7059 0.218641 25.7975 0.640392 26.816C1.06214 27.8346 1.68044 28.76 2.45995 29.5395C3.23946 30.3191 4.16492 30.9373 5.18346 31.3591C6.20199 31.7808 7.29364 31.9978 8.39604 31.9975C9.49844 31.9973 10.59 31.7798 11.6083 31.3576C12.6265 30.9354 13.5516 30.3168 14.3307 29.5371L14.331 29.5368L17.6569 26.2108C18.0475 25.8203 18.0475 25.1871 17.6569 24.7966C17.2664 24.4061 16.6333 24.4061 16.2427 24.7966L12.9164 28.1229L12.9161 28.1232C12.3226 28.7172 11.618 29.1885 10.8423 29.5101C10.0667 29.8317 9.23525 29.9973 8.39557 29.9975C7.5559 29.9977 6.72441 29.8325 5.94861 29.5112C5.17281 29.19 4.46791 28.7191 3.87416 28.1253C3.28042 27.5316 2.80948 26.8267 2.48824 26.0509C2.167 25.2751 2.00176 24.4436 2.00195 23.6039C2.00215 22.7642 2.16778 21.9328 2.48938 21.1572C2.81098 20.3815 3.28225 19.6768 3.87627 19.0834L3.8766 19.0831L8.62844 14.3312C9.22201 13.7376 9.92667 13.2668 10.7022 12.9456Z" fill="#111827"/>
</svg>
