<svg width="32" height="32" viewBox="0 0 32 32" fill="none" xmlns="http://www.w3.org/2000/svg">
<path fill-rule="evenodd" clip-rule="evenodd" d="M1 0C0.447715 0 0 0.447715 0 1V31C0 31.5523 0.447715 32 1 32H31C31.5523 32 32 31.5523 32 31V1C32 0.447715 31.5523 0 31 0H1ZM10.0436 13.2176C10.0436 12.6653 9.59591 12.2176 9.04362 12.2176C8.49133 12.2176 8.04362 12.6653 8.04362 13.2176V24.348C8.04362 24.9003 8.49133 25.348 9.04362 25.348C9.59591 25.348 10.0436 24.9003 10.0436 24.348V13.2176ZM15.6079 13.2176C15.6079 12.6653 15.1602 12.2176 14.6079 12.2176C14.0556 12.2176 13.6079 12.6653 13.6079 13.2176V18.0872V24.348C13.6079 24.9003 14.0556 25.348 14.6079 25.348C15.1602 25.348 15.6079 24.9003 15.6079 24.348V18.0872C15.6079 17.0609 16.0156 16.0767 16.7413 15.351C17.467 14.6253 18.4512 14.2176 19.4775 14.2176C20.5037 14.2176 21.488 14.6253 22.2137 15.351C22.9394 16.0767 23.347 17.0609 23.347 18.0872V24.348C23.347 24.9003 23.7948 25.348 24.347 25.348C24.8993 25.348 25.347 24.9003 25.347 24.348V18.0872C25.347 16.5305 24.7286 15.0375 23.6279 13.9368C22.5271 12.836 21.0342 12.2176 19.4775 12.2176C18.0495 12.2176 16.6751 12.738 15.6079 13.6737V13.2176ZM11.1303 7.65222C11.1303 8.80482 10.1959 9.73918 9.04334 9.73918C7.89074 9.73918 6.95638 8.80482 6.95638 7.65222C6.95638 6.49963 7.89074 5.56527 9.04334 5.56527C10.1959 5.56527 11.1303 6.49963 11.1303 7.65222Z" fill="#111827"/>
</svg>
