<svg width="33" height="33" viewBox="0 0 33 33" fill="none" xmlns="http://www.w3.org/2000/svg">
<path fill-rule="evenodd" clip-rule="evenodd" d="M14.2681 7.05212C14.2681 6.49984 13.8204 6.05212 13.2681 6.05212C12.7158 6.05212 12.2681 6.49984 12.2681 7.05212V9.82135C12.2681 10.3736 12.7158 10.8214 13.2681 10.8214C13.8204 10.8214 14.2681 10.3736 14.2681 9.82135V7.05212ZM21.6524 22.7444C21.6524 22.1922 21.2047 21.7444 20.6524 21.7444C20.1001 21.7444 19.6524 22.1922 19.6524 22.7444V25.5137C19.6524 26.0659 20.1001 26.5137 20.6524 26.5137C21.2047 26.5137 21.6524 26.0659 21.6524 25.5137V22.7444ZM6.72949 12.5906C6.72949 12.0383 7.17721 11.5906 7.72949 11.5906H10.4987C11.051 11.5906 11.4987 12.0383 11.4987 12.5906C11.4987 13.1429 11.051 13.5906 10.4987 13.5906H7.72949C7.17721 13.5906 6.72949 13.1429 6.72949 12.5906ZM23.4217 18.9752C22.8694 18.9752 22.4217 19.4229 22.4217 19.9752C22.4217 20.5275 22.8694 20.9752 23.4217 20.9752H26.1909C26.7432 20.9752 27.1909 20.5275 27.1909 19.9752C27.1909 19.4229 26.7432 18.9752 26.1909 18.9752H23.4217ZM11.094 15.6222C11.4845 16.0127 11.4845 16.6459 11.094 17.0364L9.78878 18.3416L9.78857 18.3418C9.11102 19.0199 8.73048 19.9393 8.73062 20.8978C8.73076 21.8565 9.11166 22.7759 9.78954 23.4538C10.4674 24.1316 11.3868 24.5125 12.3455 24.5127C13.304 24.5128 14.2234 24.1323 14.9015 23.4547L14.9017 23.4545L16.2069 22.1493C16.5974 21.7588 17.2306 21.7588 17.6211 22.1493C18.0117 22.5398 18.0117 23.173 17.6211 23.5635L16.3157 24.8689L16.3155 24.8692C15.2623 25.9217 13.8342 26.5129 12.3452 26.5127C10.8562 26.5125 9.42821 25.9209 8.37533 24.868C7.32244 23.8151 6.73084 22.3871 6.73062 20.8981C6.7304 19.4091 7.32158 17.981 8.37415 16.9278L8.37436 16.9276L9.67978 15.6222C10.0703 15.2316 10.7035 15.2316 11.094 15.6222ZM21.5757 6.05306C20.0867 6.05284 18.6586 6.64402 17.6054 7.69659L17.6052 7.6968L16.2997 9.00222C15.9092 9.39275 15.9092 10.0259 16.2997 10.4164C16.6902 10.807 17.3234 10.807 17.7139 10.4164L19.0192 9.11122L19.0194 9.11102C19.6974 8.43346 20.6168 8.05292 21.5754 8.05306C22.5341 8.05321 23.4534 8.4341 24.1313 9.11198C24.8092 9.78987 25.1901 10.7092 25.1902 11.6679C25.1904 12.6265 24.8098 13.5459 24.1323 14.2239L24.1321 14.2241L22.8269 15.5294C22.4363 15.9199 22.4363 16.5531 22.8269 16.9436C23.2174 17.3341 23.8505 17.3341 24.2411 16.9436L25.5465 15.6381L25.5467 15.6379C26.5993 14.5847 27.1905 13.1566 27.1902 11.6676C27.19 10.1786 26.5984 8.75065 25.5455 7.69777C24.4926 6.64489 23.0647 6.05328 21.5757 6.05306Z" fill="#1C1B1F"/>
</svg>
