<svg width="33" height="33" viewBox="0 0 33 33" fill="none" xmlns="http://www.w3.org/2000/svg">
<path fill-rule="evenodd" clip-rule="evenodd" d="M21.6401 8.05212C22.1064 8.05202 22.5681 8.14378 22.999 8.32218C23.4298 8.50057 23.8213 8.7621 24.151 9.09182C24.4807 9.42155 24.7422 9.813 24.9206 10.2438C25.099 10.6747 25.1908 11.1364 25.1907 11.6027C25.1906 12.069 25.0986 12.5307 24.92 12.9615C24.7414 13.3922 24.4797 13.7835 24.1498 14.1131L24.1495 14.1134L21.2248 17.0381C20.8952 17.3678 20.5038 17.6292 20.0732 17.8076C19.6425 17.986 19.1809 18.0778 18.7147 18.0778C18.2486 18.0778 17.787 17.986 17.3563 17.8076C16.9256 17.6292 16.5343 17.3678 16.2047 17.0381C15.8141 16.6476 15.181 16.6476 14.7905 17.0381C14.3999 17.4286 14.3999 18.0618 14.7905 18.4523C15.3058 18.9677 15.9176 19.3765 16.5909 19.6554C17.2643 19.9343 17.9859 20.0778 18.7147 20.0778C19.4435 20.0778 20.1652 19.9343 20.8385 19.6554C21.5119 19.3765 22.1237 18.9677 22.639 18.4523L25.5634 15.528L25.5637 15.5276C26.0793 15.0125 26.4883 14.4008 26.7675 13.7275C27.0467 13.054 27.1905 12.3322 27.1907 11.6032C27.1908 10.8741 27.0474 10.1522 26.7685 9.47868C26.4896 8.80512 26.0807 8.19311 25.5652 7.67761C25.0497 7.16211 24.4377 6.75323 23.7641 6.47433C23.0906 6.19542 22.3687 6.05195 21.6396 6.05212C20.9106 6.05229 20.1888 6.1961 19.5153 6.47532C18.842 6.75448 18.2303 7.16353 17.7152 7.67911L17.715 7.67923L17.7148 7.67944L15.6679 9.72639C15.2773 10.1169 15.2773 10.7501 15.6679 11.1406C16.0584 11.5311 16.6916 11.5311 17.0821 11.1406L19.1294 9.09332L19.1297 9.09299C19.4593 8.76312 19.8506 8.5014 20.2813 8.32281C20.7121 8.14421 21.1738 8.05223 21.6401 8.05212ZM13.8465 14.7582C14.2772 14.5798 14.7388 14.488 15.2049 14.488C15.6711 14.488 16.1327 14.5798 16.5634 14.7582C16.9941 14.9366 17.3854 15.198 17.715 15.5277C18.1055 15.9182 18.7387 15.9182 19.1292 15.5277C19.5197 15.1371 19.5197 14.504 19.1292 14.1134C18.6139 13.5981 18.0021 13.1893 17.3287 12.9104C16.6554 12.6315 15.9338 12.488 15.2049 12.488C14.4761 12.488 13.7545 12.6315 13.0812 12.9104C12.4078 13.1893 11.796 13.5981 11.2807 14.1134L8.35632 17.0378L8.35618 17.0379L8.35599 17.0381C7.84041 17.5533 7.43136 18.165 7.1522 18.8383C6.87298 19.5117 6.72917 20.2336 6.729 20.9626C6.72883 21.6916 6.8723 22.4135 7.15121 23.0871C7.43011 23.7607 7.83899 24.3727 8.35449 24.8882C8.86999 25.4037 9.482 25.8126 10.1556 26.0915C10.8291 26.3704 11.551 26.5138 12.2801 26.5137C13.0091 26.5135 13.7309 26.3697 14.4043 26.0905C15.0776 25.8113 15.6893 25.4023 16.2045 24.8867L16.2049 24.8863L18.2518 22.8394C18.6423 22.4489 18.6423 21.8157 18.2518 21.4252C17.8613 21.0347 17.2281 21.0347 16.8376 21.4252L14.7903 23.4725L14.79 23.4728C14.4604 23.8027 14.0691 24.0644 13.6383 24.243C13.2076 24.4216 12.7459 24.5136 12.2796 24.5137C11.8133 24.5138 11.3515 24.422 10.9207 24.2436C10.4899 24.0652 10.0984 23.8037 9.7687 23.474C9.43898 23.1442 9.17745 22.7528 8.99905 22.322C8.82066 21.8911 8.7289 21.4294 8.729 20.9631C8.72911 20.4968 8.82109 20.0351 8.99969 19.6043C9.17828 19.1736 9.44 18.7823 9.76987 18.4527L9.7702 18.4524L12.6949 15.5277C13.0245 15.198 13.4158 14.9366 13.8465 14.7582Z" fill="#1C1B1F"/>
</svg>
