<svg width="32" height="32" viewBox="0 0 32 32" fill="none" xmlns="http://www.w3.org/2000/svg">
<path fill-rule="evenodd" clip-rule="evenodd" d="M11.001 1.00226C11.001 0.449974 10.5533 0.0022583 10.001 0.0022583C9.44873 0.0022583 9.00101 0.449974 9.00101 1.00226V5.50156C9.00101 6.05385 9.44873 6.50156 10.001 6.50156C10.5533 6.50156 11.001 6.05385 11.001 5.50156V1.00226ZM22.9986 26.4984C22.9986 25.9461 22.5509 25.4984 21.9986 25.4984C21.4463 25.4984 20.9986 25.9461 20.9986 26.4984V30.9977C20.9986 31.55 21.4463 31.9977 21.9986 31.9977C22.5509 31.9977 22.9986 31.55 22.9986 30.9977V26.4984ZM0.00244141 10.0008C0.00244141 9.44854 0.450157 9.00083 1.00244 9.00083H5.50175C6.05403 9.00083 6.50175 9.44854 6.50175 10.0008C6.50175 10.5531 6.05403 11.0008 5.50175 11.0008H1.00244C0.450157 11.0008 0.00244141 10.5531 0.00244141 10.0008ZM26.4986 20.999C25.9464 20.999 25.4986 21.4467 25.4986 21.999C25.4986 22.5513 25.9464 22.999 26.4986 22.999H30.9979C31.5502 22.999 31.9979 22.5513 31.9979 21.999C31.9979 21.4467 31.5502 20.999 30.9979 20.999H26.4986ZM6.0268 15.3683C6.41732 15.7588 6.41732 16.3919 6.0268 16.7825L3.90601 18.9033L3.9058 18.9035C2.68776 20.1223 2.00365 21.7751 2.00391 23.4982C2.00417 25.2215 2.68884 26.8741 3.90738 28.0926C5.12591 29.3112 6.77852 29.9959 8.50179 29.9961C10.225 29.9964 11.8777 29.3123 13.0966 28.0942L13.0968 28.094L15.2176 25.9732C15.6081 25.5827 16.2412 25.5827 16.6318 25.9732C17.0223 26.3638 17.0223 26.9969 16.6318 27.3874L14.5108 29.5084L14.5106 29.5086C12.9166 31.1017 10.7551 31.9964 8.50149 31.9961C6.24789 31.9958 4.0867 31.1004 2.49316 29.5069C0.89963 27.9133 0.00424433 25.7521 0.00390971 23.4985C0.00357497 21.2449 0.898319 19.0835 2.49138 17.4895L2.49159 17.4893L4.61258 15.3683C5.00311 14.9777 5.63627 14.9777 6.0268 15.3683ZM23.4986 0.0037266C21.245 0.00339186 19.0835 0.898136 17.4895 2.4912L17.4893 2.4914L15.3683 4.61239C14.9778 5.00292 14.9778 5.63608 15.3683 6.02661C15.7588 6.41713 16.392 6.41713 16.7825 6.02661L18.9033 3.90583L18.9035 3.90562C20.1224 2.68758 21.7751 2.00347 23.4983 2.00373C25.2216 2.00398 26.8742 2.68866 28.0927 3.90719C29.3112 5.12573 29.9959 6.77834 29.9962 8.5016C29.9964 10.2248 29.3123 11.8775 28.0943 13.0964L28.0941 13.0966L25.9733 15.2174C25.5828 15.6079 25.5828 16.2411 25.9733 16.6316C26.3638 17.0221 26.997 17.0221 27.3875 16.6316L29.5085 14.5106L29.5087 14.5104C31.1018 12.9164 31.9965 10.7549 31.9962 8.50131C31.9958 6.24771 31.1005 4.08651 29.5069 2.49298C27.9134 0.899447 25.7522 0.00406122 23.4986 0.0037266Z" fill="#111827"/>
</svg>
