<svg width="33" height="33" viewBox="0 0 33 33" fill="none" xmlns="http://www.w3.org/2000/svg">
<path fill-rule="evenodd" clip-rule="evenodd" d="M4.96021 27.783C4.96021 27.783 8.96021 20.783 8.96021 12.783C8.96021 10.6612 9.80306 8.6264 11.3034 7.1261C12.8036 5.62581 14.8385 4.78296 16.9602 4.78296C19.0819 4.78296 21.1168 5.62581 22.6171 7.1261C24.1174 8.6264 24.9602 10.6612 24.9602 12.783C24.9602 20.783 28.9602 27.783 28.9602 27.783H4.96021ZM13.4602 15.783C14.2886 15.783 14.9602 15.1114 14.9602 14.283C14.9602 13.4545 14.2886 12.783 13.4602 12.783C12.6318 12.783 11.9602 13.4545 11.9602 14.283C11.9602 15.1114 12.6318 15.783 13.4602 15.783ZM21.9602 14.283C21.9602 15.1114 21.2886 15.783 20.4602 15.783C19.6318 15.783 18.9602 15.1114 18.9602 14.283C18.9602 13.4545 19.6318 12.783 20.4602 12.783C21.2886 12.783 21.9602 13.4545 21.9602 14.283ZM12.0658 18.3357C12.3128 17.8418 12.9134 17.6415 13.4074 17.8885L16.9602 19.6649L20.513 17.8885C21.007 17.6415 21.6076 17.8418 21.8546 18.3357C22.1016 18.8297 21.9014 19.4304 21.4074 19.6774L17.4074 21.6774C17.1259 21.8181 16.7945 21.8181 16.513 21.6774L12.513 19.6774C12.019 19.4304 11.8188 18.8297 12.0658 18.3357ZM14.6746 26.0792C15.3982 25.6105 16.1859 25.383 16.9603 25.383C17.7347 25.383 18.5224 25.6105 19.2459 26.0792C19.8743 26.4863 20.4337 27.0631 20.8662 27.7781H22.039H22.9231C22.9142 27.7608 22.8818 27.6788 22.8485 27.5943C22.8126 27.5034 22.7757 27.4097 22.7658 27.3913C22.2078 26.3518 21.41 25.4607 20.423 24.8213C19.398 24.1574 18.2035 23.7888 16.9603 23.7888C15.7171 23.7888 14.5225 24.1574 13.4976 24.8213C12.5097 25.4613 11.7114 26.3532 11.1534 27.3939C11.1437 27.4119 11.1063 27.5036 11.0701 27.5924C11.0367 27.6742 11.0043 27.7535 10.9957 27.7703H11.8597H13.059C13.4909 27.0589 14.0485 26.4848 14.6746 26.0792Z" fill="#1C1B1F"/>
</svg>
