<svg width="32" height="32" viewBox="0 0 32 32" fill="none" xmlns="http://www.w3.org/2000/svg">
<path fill-rule="evenodd" clip-rule="evenodd" d="M0 31.3334C0 31.3334 5.33333 22.0001 5.33333 11.3334C5.33333 8.50444 6.45714 5.79133 8.45753 3.79094C10.4579 1.79055 13.171 0.666748 16 0.666748C18.829 0.666748 21.5421 1.79055 23.5425 3.79094C25.5429 5.79133 26.6667 8.50444 26.6667 11.3334C26.6667 22.0001 32 31.3334 32 31.3334H0ZM11.3333 15.3334C12.4379 15.3334 13.3333 14.438 13.3333 13.3334C13.3333 12.2288 12.4379 11.3334 11.3333 11.3334C10.2288 11.3334 9.33333 12.2288 9.33333 13.3334C9.33333 14.438 10.2288 15.3334 11.3333 15.3334ZM22.6667 13.3334C22.6667 14.438 21.7712 15.3334 20.6667 15.3334C19.5621 15.3334 18.6667 14.438 18.6667 13.3334C18.6667 12.2288 19.5621 11.3334 20.6667 11.3334C21.7712 11.3334 22.6667 12.2288 22.6667 13.3334ZM9.77224 18.8862C10.0192 18.3922 10.6199 18.192 11.1139 18.439L16 20.882L20.8861 18.439C21.3801 18.192 21.9808 18.3922 22.2278 18.8862C22.4748 19.3802 22.2745 19.9809 21.7805 20.2278L16.4472 22.8945C16.1657 23.0353 15.8343 23.0353 15.5528 22.8945L10.2195 20.2278C9.72548 19.9809 9.52525 19.3802 9.77224 18.8862ZM12.9525 29.0618C13.9172 28.4368 14.9675 28.1334 16 28.1334C17.0326 28.1334 18.0829 28.4368 19.0476 29.0618C19.8855 29.6045 20.6313 30.3736 21.208 31.327H22.7717H23.9505C23.9386 31.3039 23.8955 31.1945 23.851 31.0819C23.8032 30.9606 23.7539 30.8357 23.7407 30.8112C22.9967 29.4252 21.9331 28.2371 20.617 27.3846C19.2504 26.4994 17.6577 26.0079 16 26.0079C14.3424 26.0079 12.7497 26.4994 11.3831 27.3846C10.0659 28.2378 9.00158 29.4271 8.25754 30.8146C8.24464 30.8387 8.19475 30.961 8.14646 31.0793C8.10195 31.1884 8.05881 31.2942 8.04726 31.3166H9.1993H10.7984C11.3743 30.368 12.1177 29.6025 12.9525 29.0618Z" fill="#111827"/>
</svg>
