<svg width="33" height="33" viewBox="0 0 33 33" fill="none" xmlns="http://www.w3.org/2000/svg">
<path fill-rule="evenodd" clip-rule="evenodd" d="M20.0897 23.2929C20.2278 23.532 20.5336 23.614 20.7727 23.4759L24.233 21.4781C24.4722 21.34 24.5541 21.0342 24.416 20.7951L23.3495 18.9478C23.237 18.7529 23.2695 18.5079 23.4209 18.3414C23.6375 18.1031 23.8421 17.8537 24.0337 17.594L28.3679 21.0153V26.8816C28.3679 26.9657 28.3782 27.0473 28.3978 27.1253C27.344 27.5188 26.5937 28.5345 26.5937 29.7254C26.5937 31.2577 27.8358 32.4999 29.3682 32.4999C30.9005 32.4999 32.1426 31.2577 32.1426 29.7254C32.1426 28.5343 31.392 27.5184 30.338 27.1251C30.3575 27.0472 30.3679 26.9656 30.3679 26.8816V20.5307C30.3679 20.2246 30.2277 19.9354 29.9875 19.7458L25.1899 15.9586C25.1436 15.922 25.095 15.8902 25.0449 15.8631C25.1871 15.5459 25.3123 15.2194 25.4192 14.8847C25.4878 14.6704 25.6838 14.5195 25.9088 14.5195H28.0396C28.3158 14.5195 28.5396 14.2956 28.5396 14.0195V10.0239C28.5396 9.74771 28.3158 9.52385 28.0396 9.52385H25.9089C25.6838 9.52385 25.4878 9.37297 25.4193 9.15857C25.0047 7.86103 24.3159 6.68605 23.4209 5.7018C23.2696 5.53536 23.2371 5.29033 23.3496 5.0955L24.4162 3.24804C24.5543 3.0089 24.4723 2.7031 24.2332 2.56503L20.7729 0.567217C20.5337 0.429146 20.2279 0.511083 20.0899 0.75023L19.0243 2.59575C18.9119 2.79047 18.6836 2.88482 18.4639 2.83725C17.8201 2.69789 17.1518 2.6245 16.4663 2.6245C15.781 2.6245 15.1127 2.69787 14.4691 2.83719C14.2493 2.88475 14.021 2.7904 13.9086 2.59569L12.843 0.750083C12.705 0.510937 12.3992 0.429 12.16 0.567071L8.69971 2.56488C8.46057 2.70295 8.37863 3.00875 8.5167 3.2479L9.58329 5.09528C9.69577 5.29011 9.66324 5.53515 9.51189 5.70159C8.61688 6.68588 7.92797 7.86093 7.51335 9.15857C7.44485 9.37297 7.24884 9.52385 7.02376 9.52385H4.89365C4.6175 9.52385 4.39365 9.74771 4.39365 10.0239V14.0195C4.39365 14.2956 4.6175 14.5195 4.89365 14.5195H7.02381C7.24889 14.5195 7.44489 14.6704 7.5134 14.8847C7.6238 15.2303 7.75365 15.5671 7.90166 15.8939C7.87017 15.9135 7.83944 15.9351 7.80964 15.9586L3.01203 19.7458C2.77179 19.9354 2.63163 20.2246 2.63163 20.5307L2.63163 26.8816C2.63163 26.9657 2.642 27.0473 2.66153 27.1253C1.60779 27.5188 0.857422 28.5345 0.857422 29.7254C0.857422 31.2577 2.0996 32.4999 3.63191 32.4999C5.16422 32.4999 6.4064 31.2577 6.4064 29.7254C6.4064 28.5343 5.65579 27.5184 4.60178 27.1251C4.62128 27.0472 4.63163 26.9656 4.63163 26.8816L4.63163 21.0153L8.92363 17.6273C9.10811 17.8751 9.30451 18.1135 9.51198 18.3417C9.66333 18.5081 9.69587 18.7531 9.58338 18.948L8.51687 20.7952C8.3788 21.0344 8.46074 21.3402 8.69988 21.4782L12.1602 23.476C12.3993 23.6141 12.7051 23.5322 12.8432 23.293L13.9087 21.4475C14.0212 21.2528 14.2494 21.1584 14.4692 21.206C14.8064 21.279 15.1504 21.3339 15.5 21.3696V26.2379C15.5 26.3023 15.5061 26.3653 15.5177 26.4263C14.4701 26.8229 13.7253 27.8354 13.7253 29.022C13.7253 30.5543 14.9675 31.7964 16.4998 31.7964C18.0321 31.7964 19.2743 30.5543 19.2743 29.022C19.2743 27.8356 18.5296 26.8231 17.4823 26.4264C17.4939 26.3654 17.5 26.3024 17.5 26.2379V21.3625C17.8266 21.3267 18.1481 21.2743 18.4637 21.2059C18.6835 21.1584 18.9118 21.2527 19.0242 21.4474L20.0897 23.2929ZM16.4668 18.0584C19.8007 18.0584 22.5033 15.3557 22.5033 12.0219C22.5033 8.68801 19.8007 5.98538 16.4668 5.98538C13.1329 5.98538 10.4303 8.68801 10.4303 12.0219C10.4303 15.3557 13.1329 18.0584 16.4668 18.0584Z" fill="#111827"/>
</svg>
