<svg width="32" height="32" viewBox="0 0 32 32" fill="none" xmlns="http://www.w3.org/2000/svg">
<path fill-rule="evenodd" clip-rule="evenodd" d="M10.7838 2.69527C11.1744 2.30474 11.1744 1.67158 10.7838 1.28105C10.3933 0.890528 9.76014 0.890528 9.36961 1.28105L3.928 6.72267L1.70955 4.50422C1.31902 4.11369 0.685859 4.11369 0.295335 4.50422C-0.0951897 4.89474 -0.0951897 5.52791 0.295335 5.91843L3.22089 8.84399C3.61142 9.23451 4.24458 9.23451 4.6351 8.84399L10.7838 2.69527ZM15.9591 4.06319C15.4068 4.06319 14.9591 4.51091 14.9591 5.06319C14.9591 5.61548 15.4068 6.06319 15.9591 6.06319H30.9977C31.55 6.06319 31.9977 5.61548 31.9977 5.06319C31.9977 4.51091 31.55 4.06319 30.9977 4.06319H15.9591ZM15.9591 15.0005C15.4068 15.0005 14.9591 15.4482 14.9591 16.0005C14.9591 16.5528 15.4068 17.0005 15.9591 17.0005H30.9977C31.55 17.0005 31.9977 16.5528 31.9977 16.0005C31.9977 15.4482 31.55 15.0005 30.9977 15.0005H15.9591ZM14.9591 26.9375C14.9591 26.3852 15.4068 25.9375 15.9591 25.9375H30.9977C31.55 25.9375 31.9977 26.3852 31.9977 26.9375C31.9977 27.4898 31.55 27.9375 30.9977 27.9375H15.9591C15.4068 27.9375 14.9591 27.4898 14.9591 26.9375ZM10.7838 12.2187C11.1744 12.6092 11.1744 13.2424 10.7838 13.6329L4.6351 19.7816C4.24458 20.1722 3.61142 20.1722 3.22089 19.7816L0.295335 16.8561C-0.0951897 16.4656 -0.0951897 15.8324 0.295335 15.4419C0.685859 15.0513 1.31902 15.0513 1.70955 15.4419L3.928 17.6603L9.36961 12.2187C9.76014 11.8282 10.3933 11.8282 10.7838 12.2187ZM10.7838 24.5702C11.1744 24.1797 11.1744 23.5465 10.7838 23.156C10.3933 22.7655 9.76014 22.7655 9.36961 23.156L3.928 28.5976L1.70955 26.3791C1.31902 25.9886 0.685859 25.9886 0.295335 26.3791C-0.0951897 26.7697 -0.0951897 27.4028 0.295335 27.7934L3.22089 30.7189C3.61142 31.1094 4.24458 31.1094 4.6351 30.7189L10.7838 24.5702Z" fill="#111827"/>
</svg>
