<svg width="32" height="32" viewBox="0 0 32 32" fill="none" xmlns="http://www.w3.org/2000/svg">
<path fill-rule="evenodd" clip-rule="evenodd" d="M4.04385 5.21773C4.04385 6.33427 3.13871 7.23941 2.02217 7.23941C0.905626 7.23941 0.000488281 6.33427 0.000488281 5.21773C0.000488281 4.10118 0.905626 3.19604 2.02217 3.19604C3.13871 3.19604 4.04385 4.10118 4.04385 5.21773ZM9.43465 4.21766C8.88236 4.21766 8.43465 4.66537 8.43465 5.21766C8.43465 5.76994 8.88236 6.21766 9.43465 6.21766H30.9992C31.5515 6.21766 31.9992 5.76994 31.9992 5.21766C31.9992 4.66537 31.5515 4.21766 30.9992 4.21766H9.43465ZM9.43612 15C8.88383 15 8.43612 15.4477 8.43612 16C8.43612 16.5523 8.88383 17 9.43612 17H30.9997C31.552 17 31.9997 16.5523 31.9997 16C31.9997 15.4477 31.552 15 30.9997 15H9.43612ZM8.43612 26.7824C8.43612 26.2301 8.88383 25.7824 9.43612 25.7824H30.9997C31.552 25.7824 31.9997 26.2301 31.9997 26.7824C31.9997 27.3346 31.552 27.7824 30.9997 27.7824H9.43612C8.88383 27.7824 8.43612 27.3346 8.43612 26.7824ZM2.02217 18.0218C3.13871 18.0218 4.04385 17.1166 4.04385 16.0001C4.04385 14.8835 3.13871 13.9784 2.02217 13.9784C0.905626 13.9784 0.000488281 14.8835 0.000488281 16.0001C0.000488281 17.1166 0.905626 18.0218 2.02217 18.0218ZM4.04385 26.7823C4.04385 27.8989 3.13871 28.804 2.02217 28.804C0.905626 28.804 0.000488281 27.8989 0.000488281 26.7823C0.000488281 25.6658 0.905626 24.7606 2.02217 24.7606C3.13871 24.7606 4.04385 25.6658 4.04385 26.7823Z" fill="#111827"/>
</svg>
