<svg width="32" height="32" viewBox="0 0 32 32" fill="none" xmlns="http://www.w3.org/2000/svg">
<path fill-rule="evenodd" clip-rule="evenodd" d="M0.000488281 3.04572C0.000488281 2.49343 0.448204 2.04572 1.00049 2.04572H30.9998C31.5521 2.04572 31.9998 2.49343 31.9998 3.04572C31.9998 3.598 31.5521 4.04572 30.9998 4.04572H1.00049C0.448204 4.04572 0.000488281 3.598 0.000488281 3.04572ZM0.000488281 13.9545C0.000488281 13.4023 0.448204 12.9545 1.00049 12.9545H30.9998C31.5521 12.9545 31.9998 13.4023 31.9998 13.9545C31.9998 14.5068 31.5521 14.9545 30.9998 14.9545H1.00049C0.448204 14.9545 0.000488281 14.5068 0.000488281 13.9545ZM1.00049 23.8634C0.448204 23.8634 0.000488281 24.3111 0.000488281 24.8634C0.000488281 25.4157 0.448204 25.8634 1.00049 25.8634H18.7274C19.2796 25.8634 19.7274 25.4157 19.7274 24.8634C19.7274 24.3111 19.2796 23.8634 18.7274 23.8634H1.00049ZM21.8185 24.8634C21.8185 24.3111 22.2662 23.8634 22.8185 23.8634H25.9093V20.7726C25.9093 20.2203 26.357 19.7726 26.9093 19.7726C27.4615 19.7726 27.9093 20.2203 27.9093 20.7726V23.8634H31.0001C31.5524 23.8634 32.0001 24.3111 32.0001 24.8634C32.0001 25.4157 31.5524 25.8634 31.0001 25.8634H27.9093V28.9542C27.9093 29.5065 27.4615 29.9542 26.9093 29.9542C26.357 29.9542 25.9093 29.5065 25.9093 28.9542V25.8634H22.8185C22.2662 25.8634 21.8185 25.4157 21.8185 24.8634Z" fill="#111827"/>
</svg>
