<svg width="33" height="33" viewBox="0 0 33 33" fill="none" xmlns="http://www.w3.org/2000/svg">
<path fill-rule="evenodd" clip-rule="evenodd" d="M9.89787 7.64837C10.2179 7.82396 10.4169 8.16002 10.4169 8.52509V14.3959C10.4169 14.9482 9.96916 15.3959 9.41687 15.3959C8.86459 15.3959 8.41687 14.9482 8.41687 14.3959V10.3467C7.95572 10.6142 7.3615 10.4724 7.0724 10.0186C6.77567 9.55278 6.91273 8.93462 7.37854 8.6379L8.8796 7.68168C9.1875 7.48554 9.57781 7.47277 9.89787 7.64837ZM13.449 9.78311C13.449 9.23083 13.8967 8.78311 14.449 8.78311H26.1905C26.7428 8.78311 27.1905 9.23083 27.1905 9.78311C27.1905 10.3354 26.7428 10.7831 26.1905 10.7831H14.449C13.8967 10.7831 13.449 10.3354 13.449 9.78311ZM13.449 16.4926C13.449 15.9403 13.8967 15.4926 14.449 15.4926H26.1905C26.7428 15.4926 27.1905 15.9403 27.1905 16.4926C27.1905 17.0449 26.7428 17.4926 26.1905 17.4926H14.449C13.8967 17.4926 13.449 17.0449 13.449 16.4926ZM14.449 22.2021C13.8967 22.2021 13.449 22.6498 13.449 23.2021C13.449 23.7544 13.8967 24.2021 14.449 24.2021H26.1906C26.7429 24.2021 27.1906 23.7544 27.1906 23.2021C27.1906 22.6498 26.7429 22.2021 26.1906 22.2021H14.449ZM8.57599 19.4495C8.68279 19.2794 8.86923 19.1699 9.08049 19.1699C9.40886 19.1699 9.67507 19.4361 9.67507 19.7645C9.67507 19.788 9.67411 19.8003 9.67361 19.8053C9.67054 19.8131 9.66147 19.8337 9.63935 19.8718C9.6444 19.8631 9.64172 19.8668 9.62626 19.8885L9.62625 19.8885C9.61062 19.9103 9.58194 19.9505 9.53498 20.0145C9.45337 20.1257 9.34204 20.275 9.20981 20.4508C8.94583 20.8019 8.60547 21.2498 8.26811 21.6921C7.93102 22.134 7.59804 22.5688 7.34927 22.8933L7.04946 23.284L6.9658 23.3929L6.94383 23.4215L6.93822 23.4288L6.93681 23.4306L6.93646 23.4311L6.93637 23.4312L7.72914 24.0407L6.93635 23.4312C6.70418 23.7332 6.66374 24.1409 6.83206 24.4826C7.00038 24.8243 7.34821 25.0407 7.72914 25.0407H10.6751C11.2274 25.0407 11.6751 24.593 11.6751 24.0407C11.6751 23.4884 11.2274 23.0407 10.6751 23.0407H9.75476L9.85828 22.9051C10.1965 22.4617 10.5401 22.0095 10.8083 21.6528C10.9422 21.4748 11.059 21.3182 11.1475 21.1976C11.2172 21.1027 11.3124 20.9726 11.3622 20.8877C11.5852 20.507 11.6751 20.1704 11.6751 19.7645C11.6751 18.3316 10.5134 17.1699 9.08049 17.1699C8.15272 17.1699 7.33961 17.6576 6.88229 18.3858C6.58856 18.8535 6.7296 19.4708 7.1973 19.7645C7.66501 20.0582 8.28226 19.9172 8.57599 19.4495Z" fill="#1C1B1F"/>
</svg>
