<svg width="33" height="33" viewBox="0 0 33 33" fill="none" xmlns="http://www.w3.org/2000/svg">
<path fill-rule="evenodd" clip-rule="evenodd" d="M14.0215 8.36616C14.4121 7.97564 14.4121 7.34248 14.0215 6.95195C13.631 6.56143 12.9979 6.56143 12.6073 6.95195L9.53009 10.0292L8.4366 8.93571C8.04607 8.54519 7.41291 8.54519 7.02239 8.93571C6.63186 9.32624 6.63186 9.9594 7.02239 10.3499L8.82298 12.1505C9.01052 12.3381 9.26487 12.4434 9.53009 12.4434C9.7953 12.4434 10.0497 12.3381 10.2372 12.1505L14.0215 8.36616ZM16.9352 8.55163C16.3829 8.55163 15.9352 8.99935 15.9352 9.55163C15.9352 10.1039 16.3829 10.5516 16.9352 10.5516H26.191C26.7433 10.5516 27.191 10.1039 27.191 9.55163C27.191 8.99935 26.7433 8.55163 26.191 8.55163H16.9352ZM16.9352 15.2832C16.3829 15.2832 15.9352 15.7309 15.9352 16.2832C15.9352 16.8355 16.3829 17.2832 16.9352 17.2832H26.191C26.7433 17.2832 27.191 16.8355 27.191 16.2832C27.191 15.7309 26.7433 15.2832 26.191 15.2832H16.9352ZM15.9352 23.0147C15.9352 22.4624 16.3829 22.0147 16.9352 22.0147H26.191C26.7433 22.0147 27.191 22.4624 27.191 23.0147C27.191 23.567 26.7433 24.0147 26.191 24.0147H16.9352C16.3829 24.0147 15.9352 23.567 15.9352 23.0147ZM14.0215 13.6838C14.4121 14.0743 14.4121 14.7075 14.0215 15.098L10.2372 18.8824C10.0497 19.0699 9.7953 19.1753 9.53009 19.1753C9.26487 19.1753 9.01052 19.0699 8.82298 18.8824L7.02239 17.0818C6.63186 16.6913 6.63186 16.0581 7.02239 15.6676C7.41291 15.277 8.04607 15.277 8.4366 15.6676L9.53009 16.7611L12.6073 13.6838C12.9979 13.2933 13.631 13.2933 14.0215 13.6838ZM14.0215 21.8296C14.4121 21.4391 14.4121 20.8059 14.0215 20.4154C13.631 20.0249 12.9979 20.0249 12.6073 20.4154L9.53009 23.4926L8.4366 22.3991C8.04607 22.0086 7.41291 22.0086 7.02239 22.3991C6.63186 22.7897 6.63186 23.4228 7.02239 23.8134L8.82298 25.6139C9.01052 25.8015 9.26487 25.9068 9.53009 25.9068C9.7953 25.9068 10.0497 25.8015 10.2372 25.6139L14.0215 21.8296Z" fill="#1C1B1F"/>
</svg>
