<svg width="33" height="33" viewBox="0 0 33 33" fill="none" xmlns="http://www.w3.org/2000/svg">
<path fill-rule="evenodd" clip-rule="evenodd" d="M6.72949 8.97522C6.72949 8.42293 7.17721 7.97522 7.72949 7.97522H24.6526C25.2049 7.97522 25.6526 8.42293 25.6526 8.97522C25.6526 9.5275 25.2049 9.97522 24.6526 9.97522H7.72949C7.17721 9.97522 6.72949 9.5275 6.72949 8.97522ZM6.72949 15.1291C6.72949 14.5768 7.17721 14.1291 7.72949 14.1291H24.6526C25.2049 14.1291 25.6526 14.5768 25.6526 15.1291C25.6526 15.6814 25.2049 16.1291 24.6526 16.1291H7.72949C7.17721 16.1291 6.72949 15.6814 6.72949 15.1291ZM7.72949 20.2829C7.17721 20.2829 6.72949 20.7306 6.72949 21.2829C6.72949 21.8352 7.17721 22.2829 7.72949 22.2829H17.7295C18.2818 22.2829 18.7295 21.8352 18.7295 21.2829C18.7295 20.7306 18.2818 20.2829 17.7295 20.2829H7.72949ZM20.5756 21.2829C20.5756 20.7306 21.0234 20.2829 21.5756 20.2829H22.8833V18.9752C22.8833 18.4229 23.3311 17.9752 23.8833 17.9752C24.4356 17.9752 24.8833 18.4229 24.8833 18.9752V20.2829H26.191C26.7433 20.2829 27.191 20.7306 27.191 21.2829C27.191 21.8352 26.7433 22.2829 26.191 22.2829H24.8833V23.5906C24.8833 24.1429 24.4356 24.5906 23.8833 24.5906C23.3311 24.5906 22.8833 24.1429 22.8833 23.5906V22.2829H21.5756C21.0234 22.2829 20.5756 21.8352 20.5756 21.2829Z" fill="#1C1B1F"/>
</svg>
