<svg width="32" height="32" viewBox="0 0 32 32" fill="none" xmlns="http://www.w3.org/2000/svg">
<path fill-rule="evenodd" clip-rule="evenodd" d="M4.22581 2.51897C4.54587 2.69457 4.74481 3.03063 4.74481 3.39569V12.9341C4.74481 13.4864 4.2971 13.9341 3.74481 13.9341C3.19253 13.9341 2.74481 13.4864 2.74481 12.9341V5.21838L1.84328 5.79269C1.37747 6.08942 0.759322 5.95236 0.462594 5.48655C0.165866 5.02075 0.302926 4.4026 0.768728 4.10587L3.20754 2.55228C3.51544 2.35614 3.90575 2.34337 4.22581 2.51897ZM10.9206 5.43967C10.9206 4.88738 11.3683 4.43967 11.9206 4.43967H30.9972C31.5495 4.43967 31.9972 4.88738 31.9972 5.43967C31.9972 5.99195 31.5495 6.43966 30.9972 6.43966H11.9206C11.3683 6.43966 10.9206 5.99195 10.9206 5.43967ZM10.9206 16.3407C10.9206 15.7884 11.3683 15.3407 11.9206 15.3407H30.9972C31.5495 15.3407 31.9972 15.7884 31.9972 16.3407C31.9972 16.893 31.5495 17.3407 30.9972 17.3407H11.9206C11.3683 17.3407 10.9206 16.893 10.9206 16.3407ZM11.9206 26.2418C11.3683 26.2418 10.9206 26.6895 10.9206 27.2418C10.9206 27.794 11.3683 28.2418 11.9206 28.2418H30.9974C31.5497 28.2418 31.9974 27.794 31.9974 27.2418C31.9974 26.6895 31.5497 26.2418 30.9974 26.2418H11.9206ZM1.84894 20.8125C2.13195 20.3619 2.63062 20.0659 3.19766 20.0659C4.07621 20.0659 4.78841 20.7781 4.78841 21.6566C4.78841 21.8347 4.7744 21.9254 4.64013 22.1546C4.64161 22.152 4.63827 22.1568 4.629 22.1699L4.6289 22.1701L4.62886 22.1701C4.60618 22.2023 4.54844 22.2842 4.43978 22.4323C4.30503 22.616 4.12244 22.8608 3.9071 23.1472C3.47688 23.7193 2.92285 24.4484 2.37448 25.1673C1.82637 25.8858 1.28505 26.5927 0.880666 27.1201C0.678499 27.3838 0.510611 27.6025 0.393283 27.7553L0.257255 27.9324L0.221504 27.9789L0.212362 27.9908L0.210058 27.9938L0.209483 27.9945L0.209341 27.9947L1.00208 28.6043L0.209297 27.9948C-0.0228735 28.2968 -0.0633114 28.7044 0.105007 29.0462C0.273326 29.3879 0.621164 29.6043 1.00208 29.6043H5.78841C6.34069 29.6043 6.78841 29.1566 6.78841 28.6043C6.78841 28.052 6.34069 27.6043 5.78841 27.6043H3.02922C3.32092 27.2232 3.64157 26.8038 3.96465 26.3803C4.51384 25.6603 5.0712 24.9269 5.50563 24.3491C5.72261 24.0606 5.91066 23.8085 6.05229 23.6155C6.17509 23.4481 6.30536 23.2687 6.36574 23.1656C6.67385 22.6398 6.78841 22.2015 6.78841 21.6566C6.78841 19.6735 5.18078 18.0659 3.19766 18.0659C1.91411 18.0659 0.788775 18.74 0.155235 19.7488C-0.138488 20.2165 0.00255117 20.8338 0.470254 21.1275C0.937956 21.4213 1.55521 21.2802 1.84894 20.8125Z" fill="#111827"/>
</svg>
