<svg width="32" height="32" viewBox="0 0 32 32" fill="none" xmlns="http://www.w3.org/2000/svg">
<path fill-rule="evenodd" clip-rule="evenodd" d="M1.00244 4.09277C0.450157 4.09277 0.00244141 4.54049 0.00244141 5.09277C0.00244141 5.64506 0.450157 6.09277 1.00244 6.09277H3.72926C4.28155 6.09277 4.72926 5.64506 4.72926 5.09277C4.72926 4.54049 4.28155 4.09277 3.72926 4.09277H1.00244ZM10.5462 4.09277C9.99391 4.09277 9.54619 4.54049 9.54619 5.09277C9.54619 5.64506 9.99391 6.09277 10.5462 6.09277H30.9973C31.5496 6.09277 31.9973 5.64506 31.9973 5.09277C31.9973 4.54049 31.5496 4.09277 30.9973 4.09277H10.5462ZM10.5477 15C9.99538 15 9.54766 15.4477 9.54766 16C9.54766 16.5523 9.99538 17 10.5477 17H30.9978C31.5501 17 31.9978 16.5523 31.9978 16C31.9978 15.4477 31.5501 15 30.9978 15H10.5477ZM9.54766 26.9073C9.54766 26.355 9.99538 25.9073 10.5477 25.9073H30.9978C31.5501 25.9073 31.9978 26.355 31.9978 26.9073C31.9978 27.4595 31.5501 27.9073 30.9978 27.9073H10.5477C9.99538 27.9073 9.54766 27.4595 9.54766 26.9073ZM0.00390959 16C0.00390959 15.4477 0.451625 15 1.00391 15H3.72968C4.28197 15 4.72968 15.4477 4.72968 16C4.72968 16.5523 4.28197 17 3.72968 17H1.00391C0.451625 17 0.00390959 16.5523 0.00390959 16ZM1.00391 25.9073C0.451625 25.9073 0.00390959 26.355 0.00390959 26.9073C0.00390959 27.4595 0.451625 27.9073 1.00391 27.9073H3.72968C4.28197 27.9073 4.72968 27.4595 4.72968 26.9073C4.72968 26.355 4.28197 25.9073 3.72968 25.9073H1.00391Z" fill="#111827"/>
</svg>
