<svg width="32" height="32" viewBox="0 0 32 32" fill="none" xmlns="http://www.w3.org/2000/svg">
<path fill-rule="evenodd" clip-rule="evenodd" d="M0.00195312 5.09259C0.00195312 4.54031 0.449668 4.09259 1.00195 4.09259H30.9974C31.5497 4.09259 31.9974 4.54031 31.9974 5.09259C31.9974 5.64488 31.5497 6.09259 30.9974 6.09259H1.00195C0.449668 6.09259 0.00195312 5.64488 0.00195312 5.09259ZM0.00195312 15.9999C0.00195312 15.4477 0.449668 14.9999 1.00195 14.9999H30.9974C31.5497 14.9999 31.9974 15.4477 31.9974 15.9999C31.9974 16.5522 31.5497 16.9999 30.9974 16.9999H1.00195C0.449668 16.9999 0.00195312 16.5522 0.00195312 15.9999ZM1.00195 25.9074C0.449668 25.9074 0.00195312 26.3551 0.00195312 26.9074C0.00195312 27.4597 0.449668 27.9074 1.00195 27.9074H30.9974C31.5497 27.9074 31.9974 27.4597 31.9974 26.9074C31.9974 26.3551 31.5497 25.9074 30.9974 25.9074H1.00195Z" fill="#111827"/>
</svg>
