<svg width="33" height="33" viewBox="0 0 33 33" fill="none" xmlns="http://www.w3.org/2000/svg">
<path fill-rule="evenodd" clip-rule="evenodd" d="M7.72949 8.56964C7.17721 8.56964 6.72949 9.01736 6.72949 9.56964C6.72949 10.1219 7.17721 10.5696 7.72949 10.5696H9.40781C9.9601 10.5696 10.4078 10.1219 10.4078 9.56964C10.4078 9.01736 9.9601 8.56964 9.40781 8.56964H7.72949ZM13.6035 8.56964C13.0512 8.56964 12.6035 9.01736 12.6035 9.56964C12.6035 10.1219 13.0512 10.5696 13.6035 10.5696H26.1909C26.7432 10.5696 27.1909 10.1219 27.1909 9.56964C27.1909 9.01736 26.7432 8.56964 26.1909 8.56964H13.6035ZM13.6043 15.2829C13.052 15.2829 12.6043 15.7306 12.6043 16.2829C12.6043 16.8352 13.052 17.2829 13.6043 17.2829H26.191C26.7433 17.2829 27.191 16.8352 27.191 16.2829C27.191 15.7306 26.7433 15.2829 26.191 15.2829H13.6043ZM12.6043 22.9962C12.6043 22.4439 13.052 21.9962 13.6043 21.9962H26.191C26.7433 21.9962 27.191 22.4439 27.191 22.9962C27.191 23.5484 26.7433 23.9962 26.191 23.9962H13.6043C13.052 23.9962 12.6043 23.5484 12.6043 22.9962ZM6.73024 16.2829C6.73024 15.7306 7.17796 15.2829 7.73024 15.2829H9.40792C9.9602 15.2829 10.4079 15.7306 10.4079 16.2829C10.4079 16.8352 9.9602 17.2829 9.40792 17.2829H7.73024C7.17796 17.2829 6.73024 16.8352 6.73024 16.2829ZM7.73024 21.9962C7.17796 21.9962 6.73024 22.4439 6.73024 22.9962C6.73024 23.5484 7.17796 23.9962 7.73024 23.9962H9.40792C9.9602 23.9962 10.4079 23.5484 10.4079 22.9962C10.4079 22.4439 9.9602 21.9962 9.40792 21.9962H7.73024Z" fill="#1C1B1F"/>
</svg>
