<svg width="32" height="32" viewBox="0 0 32 32" fill="none" xmlns="http://www.w3.org/2000/svg">
<path fill-rule="evenodd" clip-rule="evenodd" d="M0.00244141 4.12689C0.00244141 3.57461 0.450157 3.12689 1.00244 3.12689H28.4981C29.0504 3.12689 29.4981 3.57461 29.4981 4.12689C29.4981 4.67918 29.0504 5.12689 28.4981 5.12689H1.00244C0.450157 5.12689 0.00244141 4.67918 0.00244141 4.12689ZM0.00244141 14.1253C0.00244141 13.573 0.450157 13.1253 1.00244 13.1253H28.4981C29.0504 13.1253 29.4981 13.573 29.4981 14.1253C29.4981 14.6776 29.0504 15.1253 28.4981 15.1253H1.00244C0.450157 15.1253 0.00244141 14.6776 0.00244141 14.1253ZM1.00244 23.1237C0.450157 23.1237 0.00244141 23.5714 0.00244141 24.1237C0.00244141 24.676 0.450157 25.1237 1.00244 25.1237H17.2499C17.8022 25.1237 18.2499 24.676 18.2499 24.1237C18.2499 23.5714 17.8022 23.1237 17.2499 23.1237H1.00244ZM22.499 24.1237C22.499 23.5714 22.9468 23.1237 23.499 23.1237H26.2483V20.3743C26.2483 19.822 26.696 19.3743 27.2483 19.3743C27.8006 19.3743 28.2483 19.822 28.2483 20.3743V23.1237H30.9979C31.5501 23.1237 31.9979 23.5714 31.9979 24.1237C31.9979 24.676 31.5501 25.1237 30.9979 25.1237H28.2483V27.8731C28.2483 28.4254 27.8006 28.8731 27.2483 28.8731C26.696 28.8731 26.2483 28.4254 26.2483 27.8731V25.1237H23.499C22.9468 25.1237 22.499 24.676 22.499 24.1237Z" fill="#111827"/>
</svg>
