<svg width="33" height="33" viewBox="0 0 33 33" fill="none" xmlns="http://www.w3.org/2000/svg">
<path fill-rule="evenodd" clip-rule="evenodd" d="M6.72949 9.56964C6.72949 9.01736 7.17721 8.56964 7.72949 8.56964H26.191C26.7433 8.56964 27.191 9.01736 27.191 9.56964C27.191 10.1219 26.7433 10.5696 26.191 10.5696H7.72949C7.17721 10.5696 6.72949 10.1219 6.72949 9.56964ZM6.72949 16.2829C6.72949 15.7306 7.17721 15.2829 7.72949 15.2829H26.191C26.7433 15.2829 27.191 15.7306 27.191 16.2829C27.191 16.8352 26.7433 17.2829 26.191 17.2829H7.72949C7.17721 17.2829 6.72949 16.8352 6.72949 16.2829ZM7.72949 21.9962C7.17721 21.9962 6.72949 22.4439 6.72949 22.9962C6.72949 23.5485 7.17721 23.9962 7.72949 23.9962H26.191C26.7433 23.9962 27.191 23.5485 27.191 22.9962C27.191 22.4439 26.7433 21.9962 26.191 21.9962H7.72949Z" fill="#1C1B1F"/>
</svg>
