<svg width="32" height="32" viewBox="0 0 32 32" fill="none" xmlns="http://www.w3.org/2000/svg">
<path fill-rule="evenodd" clip-rule="evenodd" d="M1.00049 2.19141C0.448204 2.19141 0.000488281 2.63912 0.000488281 3.19141C0.000488281 3.74369 0.448204 4.19141 1.00049 4.19141H30.9998C31.5521 4.19141 31.9998 3.74369 31.9998 3.19141C31.9998 2.63912 31.5521 2.19141 30.9998 2.19141H1.00049ZM1.00049 13.1002C0.448204 13.1002 0.000488281 13.5479 0.000488281 14.1002C0.000488281 14.6525 0.448204 15.1002 1.00049 15.1002H30.9998C31.5521 15.1002 31.9998 14.6525 31.9998 14.1002C31.9998 13.5479 31.5521 13.1002 30.9998 13.1002H1.00049ZM0.000488281 25.0091C0.000488281 24.4568 0.448204 24.0091 1.00049 24.0091H18.7274C19.2797 24.0091 19.7274 24.4568 19.7274 25.0091C19.7274 25.5614 19.2797 26.0091 18.7274 26.0091H1.00049C0.448204 26.0091 0.000488281 25.5614 0.000488281 25.0091ZM30.2852 24.593C30.6089 24.7872 30.6089 25.2563 30.2852 25.4505L23.142 29.7365C22.8088 29.9365 22.3848 29.6964 22.3848 29.3078V20.7357C22.3848 20.3471 22.8088 20.107 23.142 20.307L30.2852 24.593Z" fill="#111827"/>
</svg>
