<svg width="33" height="33" viewBox="0 0 33 33" fill="none" xmlns="http://www.w3.org/2000/svg">
<path fill-rule="evenodd" clip-rule="evenodd" d="M9.36421 9.60465C9.36421 10.2962 8.80359 10.8568 8.11204 10.8568C7.42048 10.8568 6.85986 10.2962 6.85986 9.60465C6.85986 8.91309 7.42048 8.35248 8.11204 8.35248C8.80359 8.35248 9.36421 8.91309 9.36421 9.60465ZM12.7032 8.60463C12.1509 8.60463 11.7032 9.05234 11.7032 9.60463C11.7032 10.1569 12.1509 10.6046 12.7032 10.6046H26.0597C26.612 10.6046 27.0597 10.1569 27.0597 9.60463C27.0597 9.05234 26.612 8.60463 26.0597 8.60463H12.7032ZM12.704 15.2829C12.1517 15.2829 11.704 15.7306 11.704 16.2829C11.704 16.8352 12.1517 17.2829 12.704 17.2829H26.0599C26.6121 17.2829 27.0599 16.8352 27.0599 16.2829C27.0599 15.7306 26.6121 15.2829 26.0599 15.2829H12.704ZM11.704 22.9612C11.704 22.4089 12.1517 21.9612 12.704 21.9612H26.0599C26.6121 21.9612 27.0599 22.4089 27.0599 22.9612C27.0599 23.5135 26.6121 23.9612 26.0599 23.9612H12.704C12.1517 23.9612 11.704 23.5135 11.704 22.9612ZM8.11204 17.5351C8.80359 17.5351 9.36421 16.9745 9.36421 16.2829C9.36421 15.5914 8.80359 15.0307 8.11204 15.0307C7.42048 15.0307 6.85986 15.5914 6.85986 16.2829C6.85986 16.9745 7.42048 17.5351 8.11204 17.5351ZM9.36421 22.9611C9.36421 23.6527 8.80359 24.2133 8.11204 24.2133C7.42048 24.2133 6.85986 23.6527 6.85986 22.9611C6.85986 22.2696 7.42048 21.709 8.11204 21.709C8.80359 21.709 9.36421 22.2696 9.36421 22.9611Z" fill="#1C1B1F"/>
</svg>
