<svg width="33" height="33" viewBox="0 0 33 33" fill="none" xmlns="http://www.w3.org/2000/svg">
<path fill-rule="evenodd" clip-rule="evenodd" d="M15.644 3.28296C12.3303 3.28296 9.64404 5.96925 9.64404 9.28296V14.3882H6.5918C6.03951 14.3882 5.5918 14.8359 5.5918 15.3882V27.2829C5.5918 27.8352 6.03951 28.2829 6.5918 28.2829H27.3286C27.8809 28.2829 28.3286 27.8352 28.3286 27.2829V15.3882C28.3286 14.8359 27.8809 14.3882 27.3286 14.3882H11.644V9.28296C11.644 7.07382 13.4349 5.28296 15.644 5.28296H18.2756C20.4848 5.28296 22.2756 7.07382 22.2756 9.28296V9.33559C22.2756 9.88788 22.7233 10.3356 23.2756 10.3356C23.8279 10.3356 24.2756 9.88788 24.2756 9.33559V9.28296C24.2756 5.96925 21.5893 3.28296 18.2756 3.28296H15.644Z" fill="#1C1B1F"/>
</svg>
