<svg width="32" height="32" viewBox="0 0 32 32" fill="none" xmlns="http://www.w3.org/2000/svg">
<path fill-rule="evenodd" clip-rule="evenodd" d="M12.8416 0C9.52791 0 6.84162 2.68629 6.84162 6V14.0525C6.84162 14.0525 6.84162 14.0526 6.84162 14.0526H2.31592C1.76363 14.0526 1.31592 14.5003 1.31592 15.0526V30.9998C1.31592 31.5521 1.76363 31.9998 2.31592 31.9998H29.684C30.2363 31.9998 30.684 31.5521 30.684 30.9998V15.0526C30.684 14.5003 30.2363 14.0526 29.684 14.0526H8.84162C8.84162 14.0526 8.84162 14.0525 8.84162 14.0525V6C8.84162 3.79086 10.6325 2 12.8416 2H19.1572C21.3664 2 23.1572 3.79086 23.1572 6V7.52625C23.1572 8.07853 23.605 8.52625 24.1572 8.52625C24.7095 8.52625 25.1572 8.07853 25.1572 7.52625V6C25.1572 2.68629 22.4709 0 19.1572 0H12.8416Z" fill="#111827"/>
</svg>
