<svg width="32" height="32" viewBox="0 0 32 32" fill="none" xmlns="http://www.w3.org/2000/svg">
<path fill-rule="evenodd" clip-rule="evenodd" d="M12.8419 0C9.52816 0 6.84187 2.68629 6.84187 6V14.0517C6.84187 14.0523 6.84187 14.053 6.84187 14.0536H2.31689C1.76461 14.0536 1.31689 14.5013 1.31689 15.0536V30.9996C1.31689 31.5519 1.76461 31.9996 2.31689 31.9996H29.6831C30.2354 31.9996 30.6831 31.5519 30.6831 30.9996V15.0536C30.6831 14.5013 30.2354 14.0536 29.6831 14.0536H8.84186C8.84187 14.053 8.84187 14.0523 8.84187 14.0517V6C8.84187 3.79086 10.6327 2 12.8419 2H19.1564C21.3656 2 23.1564 3.79086 23.1564 6V7.52583C23.1564 8.07811 23.6042 8.52583 24.1564 8.52583C24.7087 8.52583 25.1564 8.07811 25.1564 7.52583V6C25.1564 2.68629 22.4701 0 19.1564 0H12.8419ZM14.1398 21.3133C14.1398 20.2879 14.971 19.4567 15.9964 19.4567C17.0218 19.4567 17.8531 20.2879 17.8531 21.3133C17.8531 22.3267 17.0412 23.1504 16.0325 23.1696C16.0218 23.1693 16.0111 23.1691 16.0003 23.1691C15.9886 23.1691 15.977 23.1693 15.9654 23.1697C14.9543 23.1531 14.1398 22.3283 14.1398 21.3133ZM19.8531 21.3133C19.8531 23.096 18.6435 24.5962 17.0003 25.038V27.5971C17.0003 28.1493 16.5526 28.5971 16.0003 28.5971C15.448 28.5971 15.0003 28.1493 15.0003 27.5971V25.0401C13.3531 24.6009 12.1398 23.0988 12.1398 21.3133C12.1398 19.1834 13.8665 17.4567 15.9964 17.4567C18.1264 17.4567 19.8531 19.1834 19.8531 21.3133Z" fill="#111827"/>
</svg>
