<svg width="32" height="32" viewBox="0 0 32 32" fill="none" xmlns="http://www.w3.org/2000/svg">
<path fill-rule="evenodd" clip-rule="evenodd" d="M12.8416 0C9.52791 0 6.84162 2.68629 6.84162 6V14.0526H2.31592C1.76363 14.0526 1.31592 14.5003 1.31592 15.0526V30.9998C1.31592 31.5521 1.76363 31.9998 2.31592 31.9998H29.684C30.2363 31.9998 30.684 31.5521 30.684 30.9998V15.0526C30.684 14.5003 30.2363 14.0526 29.684 14.0526H25.1572V6C25.1572 2.68629 22.4709 0 19.1572 0H12.8416ZM23.1572 14.0526V6C23.1572 3.79086 21.3664 2 19.1572 2H12.8416C10.6325 2 8.84162 3.79086 8.84162 6V14.0526H23.1572Z" fill="#111827"/>
</svg>
