<svg width="33" height="33" viewBox="0 0 33 33" fill="none" xmlns="http://www.w3.org/2000/svg">
<path fill-rule="evenodd" clip-rule="evenodd" d="M15.6216 3.0896C12.3079 3.0896 9.62158 5.7759 9.62158 9.0896V13.3318H5.56885C5.01656 13.3318 4.56885 13.7795 4.56885 14.3318V16.1903H29.3511V14.3318C29.3511 13.7795 28.9033 13.3318 28.3511 13.3318H24.2532V9.0896C24.2532 5.77589 21.5669 3.0896 18.2532 3.0896H15.6216ZM11.6216 9.0896C11.6216 6.88046 13.4124 5.0896 15.6216 5.0896H18.2532C20.4623 5.0896 22.2532 6.88046 22.2532 9.0896V13.1949H11.6216V9.0896ZM4.56885 17.8252H29.3511V20.0865H4.56885V17.8252ZM4.56885 21.7215V24.0403H29.3511V21.7215H4.56885ZM4.56885 27.4765V25.6752H29.3511V27.4765C29.3511 28.0288 28.9033 28.4765 28.3511 28.4765H5.56885C5.01656 28.4765 4.56885 28.0288 4.56885 27.4765Z" fill="#1C1B1F"/>
</svg>
