<svg width="32" height="32" viewBox="0 0 32 32" fill="none" xmlns="http://www.w3.org/2000/svg">
<path fill-rule="evenodd" clip-rule="evenodd" d="M12.8416 0C9.52792 0 6.84163 2.68629 6.84163 6V14.0526H2.31592C1.76363 14.0526 1.31592 14.5004 1.31592 15.0526V30.9998C1.31592 31.5521 1.76363 31.9998 2.31592 31.9998H29.6841C30.2364 31.9998 30.6841 31.5521 30.6841 30.9998V15.0526C30.6841 14.5004 30.2364 14.0526 29.6841 14.0526H25.1573V6C25.1573 2.68629 22.471 0 19.1573 0H12.8416ZM23.1573 14.0526V6C23.1573 3.79086 21.3664 2 19.1573 2H12.8416C10.6325 2 8.84163 3.79086 8.84163 6V14.0526H23.1573ZM14.1434 21.3119C14.1434 20.2865 14.9747 19.4551 16.0002 19.4551C17.0257 19.4551 17.857 20.2865 17.857 21.3119C17.857 22.3329 17.0331 23.1613 16.0139 23.1687L16.0001 23.1686L15.9865 23.1687C14.9673 23.1613 14.1434 22.3328 14.1434 21.3119ZM19.857 21.3119C19.857 23.0962 18.6454 24.5974 17.0001 25.0379V27.5958C17.0001 28.1481 16.5524 28.5958 16.0001 28.5958C15.4478 28.5958 15.0001 28.1481 15.0001 27.5958V25.0378C13.3549 24.5973 12.1434 23.0961 12.1434 21.3119C12.1434 19.1819 13.8701 17.4551 16.0002 17.4551C18.1302 17.4551 19.857 19.1819 19.857 21.3119Z" fill="#111827"/>
</svg>
