<svg width="32" height="32" viewBox="0 0 32 32" fill="none" xmlns="http://www.w3.org/2000/svg">
<path fill-rule="evenodd" clip-rule="evenodd" d="M12.8421 0C9.5284 0 6.84211 2.68629 6.84211 6V14.0525C6.84211 14.0525 6.84211 14.0526 6.84211 14.0526H2.31592C1.76363 14.0526 1.31592 14.5003 1.31592 15.0526V17.4401H30.684V15.0526C30.684 14.5003 30.2363 14.0526 29.684 14.0526H8.84211C8.84211 14.0526 8.84211 14.0525 8.84211 14.0525V6C8.84211 3.79086 10.633 2 12.8421 2H19.1577C21.3669 2 23.1577 3.79086 23.1577 6V7.52625C23.1577 8.07853 23.6054 8.52625 24.1577 8.52625C24.71 8.52625 25.1577 8.07853 25.1577 7.52625V6C25.1577 2.68629 22.4714 0 19.1577 0H12.8421ZM1.31592 19.3775H30.684V22.0573H1.31592V19.3775ZM1.31592 23.9948V26.7427H30.684V23.9948H1.31592ZM1.31592 30.9998V28.6802H30.684V30.9998C30.684 31.5521 30.2363 31.9998 29.684 31.9998H2.31592C1.76363 31.9998 1.31592 31.5521 1.31592 30.9998Z" fill="#111827"/>
</svg>
