<svg width="33" height="33" viewBox="0 0 33 33" fill="none" xmlns="http://www.w3.org/2000/svg">
<path fill-rule="evenodd" clip-rule="evenodd" d="M23.8419 4.71745C23.4513 4.32693 22.8182 4.32693 22.4277 4.71745L4.49553 22.6496C4.10501 23.0401 4.105 23.6733 4.49553 24.0638L8.37783 27.9461C8.76835 28.3366 9.40152 28.3366 9.79204 27.9461L27.7242 10.014C28.1147 9.62344 28.1147 8.99028 27.7242 8.59975L23.8419 4.71745ZM18.5289 11.4446L23.1348 6.83877L25.6029 9.30686L20.8975 14.0122L18.5289 11.4446ZM10.96 5.12915C11.5122 5.12915 11.96 5.57687 11.96 6.12915V7.43677H13.2677C13.82 7.43677 14.2677 7.88448 14.2677 8.43677C14.2677 8.98905 13.82 9.43677 13.2677 9.43677H11.96V10.7445C11.96 11.2968 11.5122 11.7445 10.96 11.7445C10.4077 11.7445 9.95996 11.2968 9.95996 10.7445V9.43677H8.65234C8.10006 9.43677 7.65234 8.98905 7.65234 8.43677C7.65234 7.88448 8.10006 7.43677 8.65234 7.43677H9.95996V6.12915C9.95996 5.57687 10.4077 5.12915 10.96 5.12915ZM27.1909 16.283C27.1909 15.7307 26.7432 15.283 26.1909 15.283C25.6386 15.283 25.1909 15.7307 25.1909 16.283V18.0522H23.4214C22.8691 18.0522 22.4214 18.5 22.4214 19.0522C22.4214 19.6045 22.8691 20.0522 23.4214 20.0522H25.1909V21.8214C25.1909 22.3737 25.6386 22.8214 26.1909 22.8214C26.7432 22.8214 27.1909 22.3737 27.1909 21.8214V20.0522H28.9598C29.5121 20.0522 29.9598 19.6045 29.9598 19.0522C29.9598 18.5 29.5121 18.0522 28.9598 18.0522H27.1909V16.283ZM20.6523 21.7445C21.2046 21.7445 21.6523 22.1922 21.6523 22.7445V23.5907H22.4985C23.0507 23.5907 23.4985 24.0384 23.4985 24.5907C23.4985 25.143 23.0507 25.5907 22.4985 25.5907H21.6523V26.4368C21.6523 26.9891 21.2046 27.4368 20.6523 27.4368C20.1001 27.4368 19.6523 26.9891 19.6523 26.4368V25.5907H18.8062C18.2539 25.5907 17.8062 25.143 17.8062 24.5907C17.8062 24.0384 18.2539 23.5907 18.8062 23.5907H19.6523V22.7445C19.6523 22.1922 20.1001 21.7445 20.6523 21.7445Z" fill="#1C1B1F"/>
</svg>
