<svg width="32" height="32" viewBox="0 0 32 32" fill="none" xmlns="http://www.w3.org/2000/svg">
<path fill-rule="evenodd" clip-rule="evenodd" d="M24.351 1.52043C23.9604 1.12991 23.3273 1.12991 22.9367 1.52043L0.29387 24.1633C-0.0966543 24.5538 -0.0966547 25.187 0.29387 25.5775L5.19604 30.4797C5.58657 30.8702 6.21973 30.8702 6.61026 30.4797L29.2531 7.83682C29.6437 7.4463 29.6437 6.81313 29.2531 6.42261L24.351 1.52043ZM17.6498 9.63576L23.6439 3.64175L27.1318 7.12971L20.9972 13.2643L17.6498 9.63576ZM8.27061 2.11719C8.8229 2.11719 9.27061 2.56491 9.27061 3.11719V5.03114H11.1845C11.7368 5.03114 12.1845 5.47885 12.1845 6.03114C12.1845 6.58342 11.7368 7.03114 11.1845 7.03114H9.27061V8.94503C9.27061 9.49732 8.8229 9.94503 8.27061 9.94503C7.71833 9.94503 7.27061 9.49732 7.27061 8.94503V7.03114H5.35666C4.80438 7.03114 4.35666 6.58342 4.35666 6.03114C4.35666 5.47885 4.80438 5.03114 5.35666 5.03114H7.27061V3.11719C7.27061 2.56491 7.71833 2.11719 8.27061 2.11719ZM28.5026 15.9384C28.5026 15.3861 28.0548 14.9384 27.5026 14.9384C26.9503 14.9384 26.5026 15.3861 26.5026 15.9384V18.4352H24.0055C23.4532 18.4352 23.0055 18.8829 23.0055 19.4352C23.0055 19.9875 23.4532 20.4352 24.0055 20.4352H26.5026V22.9318C26.5026 23.4841 26.9503 23.9318 27.5026 23.9318C28.0548 23.9318 28.5026 23.4841 28.5026 22.9318V20.4352H30.9989C31.5512 20.4352 31.9989 19.9875 31.9989 19.4352C31.9989 18.8829 31.5512 18.4352 30.9989 18.4352H28.5026V15.9384ZM20.5095 23.0974C21.0618 23.0974 21.5095 23.5451 21.5095 24.0974V25.4285H22.8399C23.3922 25.4285 23.8399 25.8762 23.8399 26.4285C23.8399 26.9808 23.3922 27.4285 22.8399 27.4285H21.5095V28.7597C21.5095 29.312 21.0618 29.7597 20.5095 29.7597C19.9572 29.7597 19.5095 29.312 19.5095 28.7597V27.4285H18.1776C17.6254 27.4285 17.1776 26.9808 17.1776 26.4285C17.1776 25.8762 17.6254 25.4285 18.1776 25.4285H19.5095V24.0974C19.5095 23.5451 19.9572 23.0974 20.5095 23.0974Z" fill="#111827"/>
</svg>
