<svg width="33" height="33" viewBox="0 0 33 33" fill="none" xmlns="http://www.w3.org/2000/svg">
<path fill-rule="evenodd" clip-rule="evenodd" d="M23.0571 20.9681C24.5581 19.1522 25.46 16.8228 25.46 14.2828C25.46 8.48385 20.759 3.78284 14.96 3.78284C9.16097 3.78284 4.45996 8.48385 4.45996 14.2828C4.45996 20.0818 9.16097 24.7828 14.96 24.7828C17.4995 24.7828 19.8286 23.8812 21.6444 22.3807C21.655 22.3923 21.6659 22.4038 21.6772 22.4151L27.7522 28.4901C28.1428 28.8807 28.7759 28.8807 29.1665 28.4901C29.557 28.0996 29.557 27.4664 29.1665 27.0759L23.0914 21.0008C23.0801 20.9896 23.0687 20.9787 23.0571 20.9681ZM15.96 10.2833C15.96 9.73104 15.5122 9.28333 14.96 9.28333C14.4077 9.28333 13.96 9.73104 13.96 10.2833V13.2833H10.96C10.4077 13.2833 9.95996 13.731 9.95996 14.2833C9.95996 14.8356 10.4077 15.2833 10.96 15.2833H13.96V18.2833C13.96 18.8356 14.4077 19.2833 14.96 19.2833C15.5122 19.2833 15.96 18.8356 15.96 18.2833V15.2833H18.96C19.5122 15.2833 19.96 14.8356 19.96 14.2833C19.96 13.731 19.5122 13.2833 18.96 13.2833H15.96V10.2833Z" fill="#1C1B1F"/>
</svg>
