<svg width="32" height="32" viewBox="0 0 32 32" fill="none" xmlns="http://www.w3.org/2000/svg">
<path fill-rule="evenodd" clip-rule="evenodd" d="M22.8432 21.4305C24.5802 19.3736 25.6273 16.7152 25.6273 13.8122C25.6273 7.28727 20.3378 1.9978 13.8129 1.9978C7.28801 1.9978 1.99854 7.28727 1.99854 13.8122C1.99854 20.3371 7.28801 25.6265 13.8129 25.6265C16.7154 25.6265 19.3734 24.5799 21.4302 22.8434C21.4396 22.8537 21.4493 22.8638 21.4593 22.8738L28.2948 29.7093C28.6854 30.0998 29.3185 30.0998 29.7091 29.7093C30.0996 29.3188 30.0996 28.6856 29.7091 28.2951L22.8735 21.4596C22.8636 21.4496 22.8535 21.4399 22.8432 21.4305ZM14.8132 9.3119C14.8132 8.75961 14.3655 8.3119 13.8132 8.3119C13.2609 8.3119 12.8132 8.75961 12.8132 9.3119V12.8126H9.31227C8.75998 12.8126 8.31227 13.2603 8.31227 13.8126C8.31227 14.3649 8.75998 14.8126 9.31227 14.8126H12.8132V18.3133C12.8132 18.8656 13.2609 19.3133 13.8132 19.3133C14.3655 19.3133 14.8132 18.8656 14.8132 18.3133V14.8126H18.3137C18.866 14.8126 19.3137 14.3649 19.3137 13.8126C19.3137 13.2603 18.866 12.8126 18.3137 12.8126H14.8132V9.3119Z" fill="#111827"/>
</svg>
