<svg width="32" height="33" viewBox="0 0 32 33" fill="none" xmlns="http://www.w3.org/2000/svg">
<path fill-rule="evenodd" clip-rule="evenodd" d="M11.9577 16.4847V1.50229H2.35999V17.86C2.35999 25.3932 8.46681 31.5 16 31.5C23.5331 31.5 29.6399 25.3932 29.6399 17.86V1.50229H20.0953V16.4847C20.0953 18.7318 18.2737 20.5535 16.0265 20.5535C13.7794 20.5535 11.9577 18.7318 11.9577 16.4847ZM11.9583 9.51501H2.35938L2.35999 1.50229L11.9583 1.5V9.51501ZM20.1004 9.50897L29.6376 9.51508L29.6399 1.50229H20.0953L20.1004 9.50897Z" fill="#111827"/>
<path d="M2.35999 1.50229H11.9577V16.4847C11.9577 18.7318 13.7794 20.5535 16.0265 20.5535C18.2737 20.5535 20.0953 18.7318 20.0953 16.4847V1.50229M2.35999 1.50229V17.86C2.35999 25.3932 8.46681 31.5 16 31.5C23.5331 31.5 29.6399 25.3932 29.6399 17.86V1.50229M2.35999 1.50229L2.35938 9.51501L11.9583 9.51501V1.5L2.35999 1.50229ZM29.6399 1.50229H20.0953M29.6399 1.50229L29.6376 9.51508L20.1004 9.50897L20.0953 1.50229" stroke="#111827" stroke-width="2" stroke-linecap="round" stroke-linejoin="round"/>
</svg>
