<svg width="32" height="32" viewBox="0 0 32 32" fill="none" xmlns="http://www.w3.org/2000/svg">
<path fill-rule="evenodd" clip-rule="evenodd" d="M22.8429 21.4306C24.5799 19.3737 25.6269 16.7153 25.6269 13.8122C25.6269 7.28731 20.3374 1.9978 13.8125 1.9978C7.28755 1.9978 1.99805 7.28731 1.99805 13.8122C1.99805 20.3372 7.28755 25.6267 13.8125 25.6267C16.715 25.6267 19.3731 24.58 21.4298 22.8435C21.4392 22.8538 21.4489 22.8639 21.4589 22.8738L28.2945 29.7094C28.685 30.0999 29.3182 30.0999 29.7087 29.7094C30.0992 29.3189 30.0992 28.6857 29.7087 28.2952L22.8731 21.4596C22.8632 21.4497 22.8531 21.44 22.8429 21.4306ZM8.31165 13.8127C8.31165 13.2604 8.75937 12.8127 9.31165 12.8127H18.3131C18.8654 12.8127 19.3131 13.2604 19.3131 13.8127C19.3131 14.365 18.8654 14.8127 18.3131 14.8127H9.31165C8.75937 14.8127 8.31165 14.365 8.31165 13.8127Z" fill="#111827"/>
</svg>
