<svg width="32" height="33" viewBox="0 0 32 33" fill="none" xmlns="http://www.w3.org/2000/svg">
<path fill-rule="evenodd" clip-rule="evenodd" d="M20.8821 16.5388L11.7627 25.6581L17.6046 31.5L27.5611 21.5435C32.1463 16.9583 32.1463 9.52414 27.5611 4.93892C22.9759 0.353694 15.5417 0.353694 10.9565 4.93892L1 14.8954L6.80955 20.705L15.9289 11.5856C17.2967 10.2178 19.5143 10.2178 20.8821 11.5856C22.2499 12.9534 22.2499 15.171 20.8821 16.5388ZM16.6403 20.7815L22.4822 26.6234L17.6046 31.5L11.7627 25.6581L16.6403 20.7815ZM11.6839 15.825L8.76134 12.9024L5.86938 10.0233L1 14.8954L6.80955 20.705L11.6839 15.825Z" fill="#111827"/>
<path d="M11.7627 25.6581L20.8821 16.5388C22.2499 15.171 22.2499 12.9534 20.8821 11.5856C19.5143 10.2178 17.2967 10.2178 15.9289 11.5856L6.80954 20.705M11.7627 25.6581L17.6046 31.5M11.7627 25.6581L16.6403 20.7815L22.4822 26.6234L17.6046 31.5M17.6046 31.5L27.5611 21.5435C32.1463 16.9583 32.1463 9.52414 27.5611 4.93892C22.9759 0.353694 15.5417 0.353694 10.9565 4.93892L1 14.8954M1 14.8954L6.80954 20.705M1 14.8954L5.86938 10.0233L8.76134 12.9024L11.6839 15.825L6.80954 20.705" stroke="#111827" stroke-width="2" stroke-linecap="round" stroke-linejoin="round"/>
</svg>
