<svg width="32" height="32" viewBox="0 0 32 32" fill="none" xmlns="http://www.w3.org/2000/svg">
<path fill-rule="evenodd" clip-rule="evenodd" d="M11.9577 15.9847V1.00229H2.35999V17.36C2.35999 24.8932 8.46681 31 16 31C23.5331 31 29.6399 24.8932 29.6399 17.36V1.00229H20.0953V15.9847C20.0953 18.2318 18.2737 20.0535 16.0265 20.0535C13.7794 20.0535 11.9577 18.2318 11.9577 15.9847ZM11.9583 9.01501H2.35938L2.35999 1.00229L11.9583 1V9.01501ZM20.1004 9.00897L29.6376 9.01508L29.6399 1.00229H20.0953L20.1004 9.00897Z" fill="#111827"/>
<path d="M2.35999 1.00229H11.9577V15.9847C11.9577 18.2318 13.7794 20.0535 16.0265 20.0535C18.2737 20.0535 20.0953 18.2318 20.0953 15.9847V1.00229M2.35999 1.00229V17.36C2.35999 24.8932 8.46681 31 16 31C23.5331 31 29.6399 24.8932 29.6399 17.36V1.00229M2.35999 1.00229L2.35938 9.01501L11.9583 9.01501V1L2.35999 1.00229ZM29.6399 1.00229H20.0953M29.6399 1.00229L29.6376 9.01508L20.1004 9.00897L20.0953 1.00229" stroke="#111827" stroke-width="2" stroke-linecap="round" stroke-linejoin="round"/>
</svg>
