<svg width="33" height="33" viewBox="0 0 33 33" fill="none" xmlns="http://www.w3.org/2000/svg">
<path fill-rule="evenodd" clip-rule="evenodd" d="M22.1444 22.8807C20.3286 24.3813 17.9995 25.2829 15.46 25.2829C9.66097 25.2829 4.95996 20.5819 4.95996 14.7829C4.95996 8.98391 9.66097 4.2829 15.46 4.2829C21.259 4.2829 25.96 8.98391 25.96 14.7829C25.96 17.3229 25.0581 19.6522 23.5571 21.4682C23.5687 21.4788 23.5801 21.4897 23.5914 21.5009L29.6665 27.576C30.057 27.9665 30.057 28.5997 29.6665 28.9902C29.2759 29.3807 28.6428 29.3807 28.2522 28.9902L22.1772 22.9151C22.1659 22.9039 22.155 22.8924 22.1444 22.8807Z" fill="#1C1B1F"/>
</svg>
