<svg width="33" height="33" viewBox="0 0 33 33" fill="none" xmlns="http://www.w3.org/2000/svg">
<path fill-rule="evenodd" clip-rule="evenodd" d="M23.5571 21.4677C25.0581 19.6518 25.96 17.3225 25.96 14.7825C25.96 8.98354 21.259 4.28253 15.46 4.28253C9.66097 4.28253 4.95996 8.98354 4.95996 14.7825C4.95996 20.5815 9.66097 25.2825 15.46 25.2825C17.9996 25.2825 20.3286 24.3809 22.1444 22.8803C22.155 22.8919 22.1659 22.9034 22.1772 22.9146L28.2522 28.9897C28.6428 29.3802 29.2759 29.3802 29.6665 28.9897C30.057 28.5992 30.057 27.966 29.6665 27.5755L23.5914 21.5004C23.5802 21.4892 23.5687 21.4783 23.5571 21.4677ZM10.46 14.7829C10.46 14.2306 10.9077 13.7829 11.46 13.7829H19.46C20.0122 13.7829 20.46 14.2306 20.46 14.7829C20.46 15.3352 20.0122 15.7829 19.46 15.7829H11.46C10.9077 15.7829 10.46 15.3352 10.46 14.7829Z" fill="#1C1B1F"/>
</svg>
