<svg width="33" height="33" viewBox="0 0 33 33" fill="none" xmlns="http://www.w3.org/2000/svg">
<path fill-rule="evenodd" clip-rule="evenodd" d="M20.8656 16.314L13.5701 23.6095L18.2436 28.283L26.2088 20.3178C29.877 16.6496 29.877 10.7023 26.2088 7.03409C22.5406 3.36591 16.5934 3.36591 12.9252 7.03409L4.95996 14.9993L9.6076 19.6469L16.9031 12.3514C17.9973 11.2572 19.7714 11.2572 20.8656 12.3514C21.9598 13.4457 21.9598 15.2198 20.8656 16.314ZM17.4722 19.7081L22.1457 24.3816L18.2436 28.283L13.5701 23.6095L17.4722 19.7081ZM13.5071 15.7429L11.169 13.4049L8.85547 11.1016L4.95996 14.9993L9.6076 19.6469L13.5071 15.7429Z" fill="#1C1B1F"/>
<path d="M13.5701 23.6095L20.8656 16.314C21.9598 15.2198 21.9598 13.4457 20.8656 12.3514C19.7714 11.2572 17.9973 11.2572 16.9031 12.3514L9.6076 19.6469M13.5701 23.6095L18.2436 28.283M13.5701 23.6095L17.4722 19.7081L22.1457 24.3816L18.2436 28.283M18.2436 28.283L26.2088 20.3178C29.877 16.6496 29.877 10.7023 26.2088 7.03409C22.5406 3.36591 16.5934 3.36591 12.9252 7.03409L4.95996 14.9993M4.95996 14.9993L9.6076 19.6469M4.95996 14.9993L8.85547 11.1016L11.169 13.4049L13.5071 15.7429L9.6076 19.6469" stroke="#1C1B1F" stroke-width="2" stroke-linecap="round"/>
</svg>
