<svg width="32" height="32" viewBox="0 0 32 32" fill="none" xmlns="http://www.w3.org/2000/svg">
<path fill-rule="evenodd" clip-rule="evenodd" d="M16.0001 32C16.0001 32 28.3078 23.3846 28.3078 12.3077C28.3078 9.04349 27.0111 5.91298 24.7029 3.60484C22.3948 1.2967 19.2643 0 16.0001 0C12.7359 0 9.60536 1.2967 7.29722 3.60484C4.98908 5.91298 3.69238 9.04349 3.69238 12.3077C3.69238 23.3846 16.0001 32 16.0001 32ZM20.9233 12.3077C20.9233 15.0266 18.7192 17.2308 16.0002 17.2308C13.2813 17.2308 11.0771 15.0266 11.0771 12.3077C11.0771 9.58874 13.2813 7.3846 16.0002 7.3846C18.7192 7.3846 20.9233 9.58874 20.9233 12.3077Z" fill="#111827"/>
</svg>
