<svg width="33" height="33" viewBox="0 0 33 33" fill="none" xmlns="http://www.w3.org/2000/svg">
<path fill-rule="evenodd" clip-rule="evenodd" d="M16.9598 28.2829C16.9598 28.2829 26.1905 21.8214 26.1905 13.5137C26.1905 11.0655 25.218 8.71763 23.4869 6.98653C21.7558 5.25542 19.4079 4.2829 16.9598 4.2829C14.5116 4.2829 12.1637 5.25542 10.4326 6.98653C8.70153 8.71763 7.729 11.0655 7.729 13.5137C7.729 21.8214 16.9598 28.2829 16.9598 28.2829ZM20.6522 13.5137C20.6522 15.5529 18.9991 17.206 16.9599 17.206C14.9207 17.206 13.2676 15.5529 13.2676 13.5137C13.2676 11.4745 14.9207 9.82135 16.9599 9.82135C18.9991 9.82135 20.6522 11.4745 20.6522 13.5137Z" fill="#1C1B1F"/>
</svg>
