<svg width="33" height="33" viewBox="0 0 33 33" fill="none" xmlns="http://www.w3.org/2000/svg">
<path fill-rule="evenodd" clip-rule="evenodd" d="M18.2368 27.2829C20.7704 25.1616 26.1905 19.8796 26.1905 13.5137C26.1905 11.0655 25.218 8.71763 23.4869 6.98653C21.7558 5.25542 19.4079 4.2829 16.9598 4.2829C14.5116 4.2829 12.1637 5.25542 10.4326 6.98653C8.70153 8.71763 7.729 11.0655 7.729 13.5137C7.729 19.8796 13.1491 25.1616 15.6827 27.2829H8.65234C8.10006 27.2829 7.65234 27.7306 7.65234 28.2829C7.65234 28.8352 8.10006 29.2829 8.65234 29.2829H25.2677C25.82 29.2829 26.2677 28.8352 26.2677 28.2829C26.2677 27.7306 25.82 27.2829 25.2677 27.2829H18.2368ZM16.9599 17.206C18.9991 17.206 20.6522 15.5529 20.6522 13.5137C20.6522 11.4745 18.9991 9.82135 16.9599 9.82135C14.9207 9.82135 13.2676 11.4745 13.2676 13.5137C13.2676 15.5529 14.9207 17.206 16.9599 17.206Z" fill="#1C1B1F"/>
</svg>
