<svg width="32" height="32" viewBox="0 0 32 32" fill="none" xmlns="http://www.w3.org/2000/svg">
<path fill-rule="evenodd" clip-rule="evenodd" d="M17.2964 29.9999C20.3853 27.4793 27.9226 20.455 27.9226 11.9231C27.9226 8.76093 26.6665 5.72828 24.4305 3.49228C22.1945 1.25629 19.1618 0.00012207 15.9996 0.00012207C12.8375 0.00012207 9.80481 1.25629 7.56882 3.49228C5.33283 5.72828 4.07666 8.76093 4.07666 11.9231C4.07666 20.455 11.614 27.4793 14.7029 29.9999H5.26888C4.7166 29.9999 4.26888 30.4476 4.26888 30.9999C4.26888 31.5521 4.7166 31.9999 5.26888 31.9999H26.7303C27.2825 31.9999 27.7303 31.5521 27.7303 30.9999C27.7303 30.4476 27.2825 29.9999 26.7303 29.9999H17.2964ZM15.9997 16.6923C18.6336 16.6923 20.7689 14.557 20.7689 11.9231C20.7689 9.28914 18.6336 7.1539 15.9997 7.1539C13.3657 7.1539 11.2305 9.28914 11.2305 11.9231C11.2305 14.557 13.3657 16.6923 15.9997 16.6923Z" fill="#111827"/>
</svg>
