<svg width="33" height="33" viewBox="0 0 33 33" fill="none" xmlns="http://www.w3.org/2000/svg">
<path fill-rule="evenodd" clip-rule="evenodd" d="M12.7174 4.31275C12.9682 4.25005 13.2206 4.28807 13.4318 4.40122L21.0763 8.22303L28.7174 6.31275C29.0162 6.23806 29.3327 6.30518 29.5754 6.49469C29.8181 6.68419 29.96 6.97496 29.96 7.28289V25.2829C29.96 25.7418 29.6477 26.1417 29.2025 26.253L21.2025 28.253C20.9709 28.3109 20.7263 28.2841 20.5127 28.1773L12.8436 24.3428L5.2025 26.253C4.90376 26.3277 4.58727 26.2606 4.34455 26.0711C4.10183 25.8816 3.95996 25.5908 3.95996 25.2829V7.28289C3.95996 6.82402 4.27226 6.42404 4.71743 6.31275L12.7174 4.31275ZM12.9283 22.2834C13.093 22.2782 13.2577 22.3137 13.4072 22.3885L20.96 26.1648V10.2829C20.8058 10.2829 20.6526 10.2472 20.5128 10.1773L12.9283 6.38547L12.9283 22.2834Z" fill="#1C1B1F"/>
</svg>
