<svg width="32" height="32" viewBox="0 0 32 32" fill="none" xmlns="http://www.w3.org/2000/svg">
<path fill-rule="evenodd" clip-rule="evenodd" d="M10.7578 1.28083C11.0097 1.21785 11.2632 1.25649 11.4751 1.37081L21.1161 6.19081L30.7566 3.78067C31.0554 3.70599 31.3718 3.7731 31.6146 3.96261C31.8573 4.15212 31.9991 4.44288 31.9991 4.75082V27.2494C31.9991 27.7083 31.6868 28.1083 31.2417 28.2196L21.2423 30.7194C21.0107 30.7773 20.7661 30.7505 20.5525 30.6437L10.884 25.8095L1.24351 28.2196C0.944771 28.2943 0.628281 28.2272 0.385564 28.0376C0.142848 27.8481 0.000976562 27.5574 0.000976562 27.2494V4.75082C0.000976562 4.29195 0.313274 3.89197 0.758441 3.78067L10.7578 1.28083ZM10.9611 23.7504C11.1284 23.7438 11.2958 23.7793 11.4476 23.8552L20.9998 28.6312L20.9998 8.25066C20.8456 8.25066 20.6924 8.21502 20.5526 8.14511L10.9611 3.34986L10.9611 23.7504Z" fill="#111827"/>
</svg>
