<svg width="32" height="33" viewBox="0 0 32 33" fill="none" xmlns="http://www.w3.org/2000/svg">
<path d="M27.8925 8.41094C27.8278 8.35588 27.745 8.32673 27.6601 8.32911C27.4277 8.32911 27.1282 8.48623 26.9678 8.5746L26.9031 8.60733C26.6328 8.73835 26.3384 8.81243 26.0382 8.825C25.7305 8.83482 25.4654 8.85282 25.1201 8.88801C23.0744 9.09913 22.162 10.667 21.2831 12.1833C20.8052 13.0081 20.311 13.8608 19.6334 14.5211C19.4928 14.6569 19.3436 14.7834 19.1867 14.9C18.4854 15.4229 17.6049 15.7919 16.9167 16.0554C16.2564 16.3074 15.5371 16.5341 14.8407 16.7534C14.2041 16.9539 13.6018 17.1429 13.0487 17.3491C12.7991 17.4416 12.5871 17.5128 12.3998 17.575C11.8965 17.7386 11.5324 17.8638 11.0021 18.2296C10.7951 18.3712 10.5872 18.5242 10.4457 18.6388C10.0241 18.9749 9.65127 19.3679 9.33771 19.8065C9.06772 20.2115 8.75587 20.5869 8.40731 20.9267C8.29603 21.0364 8.09636 21.0904 7.79932 21.0904C7.44991 21.0904 7.02768 21.0184 6.57925 20.9422C6.13083 20.8661 5.64149 20.7786 5.23235 20.7786C4.8993 20.7786 4.64563 20.8326 4.45497 20.9422C4.45497 20.9422 4.13584 21.1288 4 21.3702L4.13256 21.43C4.33825 21.5416 4.52882 21.6791 4.69964 21.8391C4.87653 22.004 5.07434 22.1448 5.28799 22.2581C5.35678 22.2842 5.41925 22.3247 5.47129 22.3767C5.41482 22.4585 5.333 22.5641 5.24708 22.677C4.77492 23.2948 4.49998 23.6852 4.65791 23.8979C4.73351 23.9375 4.81812 23.9567 4.90339 23.9536C5.93362 23.9536 6.48597 23.686 7.18642 23.3472C7.38854 23.249 7.59557 23.1475 7.84106 23.0444C8.2502 22.8669 8.69044 22.5837 9.15687 22.2842C9.77468 21.8874 10.4138 21.4766 11.0324 21.2777C11.5421 21.1223 12.0731 21.0478 12.606 21.0568C13.2606 21.0568 13.9496 21.1444 14.614 21.2295C15.1099 21.2933 15.6222 21.3588 16.1254 21.3931C16.321 21.4046 16.5018 21.4103 16.6786 21.4103C16.9139 21.411 17.1491 21.3987 17.3831 21.3735L17.4388 21.3538C17.7923 21.137 17.9576 20.6714 18.1172 20.2213C18.2203 19.9317 18.307 19.6714 18.4445 19.5061C18.4527 19.4979 18.4617 19.4905 18.4715 19.4841C18.4779 19.4805 18.4854 19.4792 18.4927 19.4804C18.4999 19.4815 18.5066 19.4852 18.5116 19.4906C18.513 19.4948 18.513 19.4994 18.5116 19.5037C18.4297 21.2638 17.7203 22.3808 17.0043 23.3742L16.5182 23.884C16.5182 23.884 17.1876 23.884 17.5689 23.7367C18.96 23.321 20.0107 22.4045 20.775 20.9431C20.9633 20.568 21.1316 20.1831 21.279 19.7901C21.2921 19.7574 21.4132 19.6968 21.401 19.8662C21.401 19.9161 21.3944 19.9718 21.3903 20.0299C21.3903 20.0642 21.3854 20.0994 21.3838 20.1346C21.3633 20.3801 21.3019 20.8989 21.3019 20.8989L21.7315 20.6689C22.7675 20.0143 23.5662 18.6936 24.1717 16.6389C24.4245 15.7829 24.6087 14.9327 24.7715 14.184C24.9662 13.2839 25.134 12.5122 25.3263 12.2127C25.6282 11.743 26.0889 11.4255 26.5349 11.117C26.5963 11.0753 26.6568 11.0352 26.7166 10.991C27.2779 10.5974 27.8352 10.1433 27.9571 9.29633V9.27751C28.0504 8.64579 27.9743 8.48868 27.8925 8.41094Z" fill="#1C1B1F"/>
</svg>
