<svg width="33" height="33" viewBox="0 0 33 33" fill="none" xmlns="http://www.w3.org/2000/svg">
<path d="M31.8566 6.10929C31.7704 6.03587 31.66 5.997 31.5468 6.00018C31.2369 6.00018 30.8376 6.20966 30.6237 6.3275L30.5375 6.37114C30.177 6.54582 29.7845 6.64461 29.3843 6.66136C28.974 6.67445 28.6205 6.69846 28.1601 6.74537C25.4325 7.02686 24.216 9.11732 23.0442 11.139C22.407 12.2388 21.748 13.3757 20.8446 14.2562C20.6571 14.4372 20.4581 14.6059 20.2489 14.7613C19.3138 15.4585 18.1399 15.9506 17.2223 16.3019C16.3418 16.638 15.3828 16.9402 14.4543 17.2326C13.6054 17.4999 12.8024 17.7519 12.0649 18.0269C11.7321 18.1502 11.4495 18.2451 11.1997 18.328C10.5287 18.5462 10.0432 18.7131 9.33615 19.2008C9.06011 19.3896 8.78299 19.5936 8.59424 19.7464C8.0322 20.1946 7.53503 20.7185 7.11695 21.3033C6.75696 21.8433 6.34117 22.344 5.87642 22.797C5.72804 22.9432 5.46182 23.0152 5.06577 23.0152C4.59988 23.0152 4.0369 22.9192 3.439 22.8177C2.84111 22.7162 2.18866 22.5995 1.64313 22.5995C1.19907 22.5995 0.860842 22.6715 0.606626 22.8177C0.606626 22.8177 0.181115 23.0665 0 23.3883L0.176751 23.468C0.451001 23.6168 0.705094 23.8002 0.932851 24.0135C1.1687 24.2333 1.43246 24.4211 1.71732 24.5721C1.80904 24.607 1.89233 24.6609 1.96172 24.7303C1.88643 24.8394 1.77733 24.9802 1.66277 25.1307C1.03323 25.9545 0.666634 26.4749 0.877208 26.7586C0.978012 26.8113 1.09083 26.8369 1.20452 26.8328C2.57816 26.8328 3.31462 26.476 4.24857 26.0243C4.51806 25.8934 4.79409 25.7581 5.12141 25.6206C5.66694 25.3839 6.25392 25.0064 6.87583 24.607C7.69957 24.0779 8.55169 23.5302 9.37652 23.265C10.0562 23.0578 10.7642 22.9584 11.4746 22.9704C12.3475 22.9704 13.2661 23.0872 14.1521 23.2007C14.8132 23.2858 15.4962 23.373 16.1672 23.4189C16.428 23.4341 16.6691 23.4418 16.9048 23.4418C17.2186 23.4426 17.5322 23.4262 17.8442 23.3927L17.9184 23.3665C18.3897 23.0774 18.6101 22.4566 18.8229 21.8565C18.9603 21.4702 19.076 21.1233 19.2593 20.9029C19.2702 20.8919 19.2823 20.882 19.2953 20.8734C19.3039 20.8687 19.3138 20.8669 19.3235 20.8685C19.3333 20.8701 19.3421 20.8749 19.3488 20.8822C19.3507 20.8878 19.3507 20.894 19.3488 20.8996C19.2397 23.2465 18.2937 24.7358 17.339 26.0603L16.691 26.74C16.691 26.74 17.5834 26.74 18.0919 26.5436C19.9467 25.9894 21.3476 24.7674 22.3666 22.8188C22.6178 22.3187 22.8421 21.8055 23.0387 21.2815C23.0562 21.2378 23.2176 21.1571 23.2013 21.383C23.2013 21.4495 23.1925 21.5237 23.1871 21.6012C23.1871 21.647 23.1805 21.6939 23.1784 21.7408C23.1511 22.0681 23.0693 22.7599 23.0693 22.7599L23.6421 22.4533C25.0233 21.5804 26.0882 19.8195 26.8956 17.0798C27.2327 15.9386 27.4782 14.805 27.6953 13.8067C27.955 12.6065 28.1787 11.5777 28.4351 11.1783C28.8377 10.5521 29.4519 10.1287 30.0466 9.7174C30.1284 9.66176 30.2091 9.6083 30.2888 9.54938C31.0372 9.02458 31.7802 8.41905 31.9428 7.28981V7.26471C32.0672 6.42242 31.9657 6.21294 31.8566 6.10929Z" fill="#111827"/>
</svg>
