<svg width="32" height="32" viewBox="0 0 32 32" fill="none" xmlns="http://www.w3.org/2000/svg">
<path d="M27.8925 8.26946C27.8278 8.2144 27.745 8.18525 27.6601 8.18764C27.4277 8.18764 27.1282 8.34475 26.9678 8.43312L26.9031 8.46585C26.6328 8.59687 26.3384 8.67095 26.0382 8.68352C25.7305 8.69334 25.4654 8.71134 25.1201 8.74653C23.0744 8.95765 22.162 10.5255 21.2831 12.0418C20.8052 12.8666 20.311 13.7193 19.6334 14.3796C19.4928 14.5154 19.3436 14.6419 19.1867 14.7585C18.4854 15.2814 17.6049 15.6504 16.9167 15.9139C16.2564 16.166 15.5371 16.3926 14.8407 16.6119C14.2041 16.8124 13.6018 17.0014 13.0487 17.2077C12.7991 17.3001 12.5871 17.3713 12.3998 17.4335C11.8965 17.5972 11.5324 17.7224 11.0021 18.0881C10.7951 18.2297 10.5872 18.3827 10.4457 18.4973C10.0241 18.8334 9.65127 19.2264 9.33771 19.665C9.06772 20.07 8.75587 20.4455 8.40731 20.7852C8.29603 20.8949 8.09636 20.9489 7.79932 20.9489C7.44991 20.9489 7.02768 20.8769 6.57925 20.8008C6.13083 20.7247 5.64149 20.6371 5.23235 20.6371C4.8993 20.6371 4.64563 20.6911 4.45497 20.8008C4.45497 20.8008 4.13584 20.9873 4 21.2287L4.13256 21.2885C4.33825 21.4001 4.52882 21.5376 4.69964 21.6976C4.87653 21.8625 5.07434 22.0033 5.28799 22.1166C5.35678 22.1427 5.41925 22.1832 5.47129 22.2352C5.41482 22.3171 5.333 22.4226 5.24708 22.5355C4.77492 23.1534 4.49998 23.5437 4.65791 23.7564C4.73351 23.796 4.81812 23.8152 4.90339 23.8121C5.93362 23.8121 6.48597 23.5445 7.18642 23.2057C7.38854 23.1075 7.59557 23.0061 7.84106 22.903C8.2502 22.7254 8.69044 22.4423 9.15687 22.1428C9.77468 21.7459 10.4138 21.3351 11.0324 21.1363C11.5421 20.9808 12.0731 20.9063 12.606 20.9153C13.2606 20.9153 13.9496 21.0029 14.614 21.088C15.1099 21.1518 15.6222 21.2173 16.1254 21.2516C16.321 21.2631 16.5018 21.2688 16.6786 21.2688C16.9139 21.2695 17.1491 21.2572 17.3831 21.232L17.4388 21.2124C17.7923 20.9955 17.9576 20.5299 18.1172 20.0799C18.2203 19.7902 18.307 19.53 18.4445 19.3647C18.4527 19.3564 18.4617 19.349 18.4715 19.3426C18.4779 19.339 18.4854 19.3377 18.4927 19.3389C18.4999 19.3401 18.5066 19.3437 18.5116 19.3491C18.513 19.3534 18.513 19.358 18.5116 19.3622C18.4297 21.1224 17.7203 22.2393 17.0043 23.2327L16.5182 23.7425C16.5182 23.7425 17.1876 23.7425 17.5689 23.5952C18.96 23.1795 20.0107 22.2631 20.775 20.8016C20.9633 20.4265 21.1316 20.0416 21.279 19.6486C21.2921 19.6159 21.4132 19.5553 21.401 19.7247C21.401 19.7746 21.3944 19.8303 21.3903 19.8884C21.3903 19.9227 21.3854 19.9579 21.3838 19.9931C21.3633 20.2386 21.3019 20.7574 21.3019 20.7574L21.7315 20.5275C22.7675 19.8728 23.5662 18.5521 24.1717 16.4974C24.4245 15.6414 24.6087 14.7912 24.7715 14.0425C24.9662 13.1424 25.134 12.3707 25.3263 12.0712C25.6282 11.6015 26.0889 11.284 26.5349 10.9756C26.5963 10.9338 26.6568 10.8937 26.7166 10.8495C27.2779 10.4559 27.8352 10.0018 27.9571 9.15486V9.13603C28.0504 8.50431 27.9743 8.3472 27.8925 8.26946Z" fill="#1C1B1F"/>
</svg>
