<svg width="32" height="32" viewBox="0 0 32 32" fill="none" xmlns="http://www.w3.org/2000/svg">
<path fill-rule="evenodd" clip-rule="evenodd" d="M23.0002 30.3915C20.8857 31.4219 18.5104 32 16 32C13.4897 32 11.1145 31.4219 9.00016 30.3916V23.6666H10.6668H21.3335H23.0002V30.3915ZM25.0002 29.2305V22.6666C25.0002 22.1143 24.5524 21.6666 24.0002 21.6666H22.3335V17.3333C22.3335 16.781 21.8858 16.3333 21.3335 16.3333H20.0871L17.7045 6.80282C17.5376 6.13507 16.9376 5.66663 16.2493 5.66663H15.7506C15.0623 5.66663 14.4623 6.13507 14.2954 6.80282L11.9127 16.3333H10.6668C10.1145 16.3333 9.66683 16.781 9.66683 17.3333V21.6666H8.00016C7.44788 21.6666 7.00016 22.1143 7.00016 22.6666V29.2308C2.77453 26.3508 0 21.4994 0 16C0 7.16344 7.16344 0 16 0C24.8366 0 32 7.16344 32 16C32 21.4993 29.2256 26.3506 25.0002 29.2305ZM19.3273 18.3333C19.3128 18.3336 19.2983 18.3336 19.2839 18.3333H12.716C12.7016 18.3336 12.6871 18.3336 12.6726 18.3333H11.6668V21.6666H20.3335V18.3333H19.3273ZM15.9999 8.23078L18.0256 16.3333H13.9743L15.9999 8.23078Z" fill="#111827"/>
</svg>
