<svg width="32" height="32" viewBox="0 0 32 32" fill="none" xmlns="http://www.w3.org/2000/svg">
<path fill-rule="evenodd" clip-rule="evenodd" d="M0.5 6C0.223858 6 0 6.22386 0 6.5V25.5C0 25.7761 0.223858 26 0.5 26H31.5C31.7761 26 32 25.7761 32 25.5V6.5C32 6.22386 31.7761 6 31.5 6H0.5ZM6.7278 10.2945C6.51565 9.8851 6.05111 9.67384 5.60315 9.78302C5.15519 9.8922 4.83994 10.2935 4.83994 10.7546V21.245C4.83994 21.7973 5.28766 22.245 5.83994 22.245C6.39223 22.245 6.83994 21.7973 6.83994 21.245V14.8576L8.84991 18.7361C9.02053 19.0654 9.35932 19.2731 9.73013 19.276C10.1009 19.2788 10.4429 19.0762 10.6185 18.7496L12.7827 14.7254V21.245C12.7827 21.7973 13.2304 22.245 13.7827 22.245C14.335 22.245 14.7827 21.7973 14.7827 21.245V10.7546C14.7827 10.2964 14.4713 9.89677 14.0269 9.78486C13.5826 9.67296 13.119 9.87738 12.902 10.2809L9.75415 16.1342L6.7278 10.2945ZM26.459 16.0766L23.7845 18.751V10.8332C23.7845 10.2809 23.3368 9.83316 22.7845 9.83316C22.2322 9.83316 21.7845 10.2809 21.7845 10.8332V18.7517L19.1094 16.0766C18.7188 15.686 18.0857 15.686 17.6951 16.0766C17.3046 16.4671 17.3046 17.1002 17.6951 17.4908L22.0771 21.8727C22.1613 21.9569 22.2568 22.023 22.3587 22.0709C22.4879 22.1317 22.6322 22.1658 22.7845 22.1658C23.0703 22.1658 23.3281 22.0458 23.5104 21.8536L27.8732 17.4908C28.2637 17.1002 28.2637 16.4671 27.8732 16.0766C27.4826 15.686 26.8495 15.686 26.459 16.0766Z" fill="#111827"/>
</svg>
