<svg width="32" height="33" viewBox="0 0 32 33" fill="none" xmlns="http://www.w3.org/2000/svg">
<path fill-rule="evenodd" clip-rule="evenodd" d="M1.00004 3.17041C0.590308 3.17041 0.222034 3.42035 0.0707235 3.80112C-0.0805867 4.18188 0.0156842 4.61642 0.313656 4.89765L15.4291 19.1638V27.8293H10.8254C10.2731 27.8293 9.82542 28.277 9.82542 28.8293C9.82542 29.3816 10.2731 29.8293 10.8254 29.8293H16.408L16.4291 29.8295L16.4503 29.8293H22.034C22.5863 29.8293 23.034 29.3816 23.034 28.8293C23.034 28.277 22.5863 27.8293 22.034 27.8293H17.4291V19.1652L31.7078 4.87729C31.9936 4.59124 32.0791 4.16117 31.9242 3.78758C31.7694 3.41398 31.4048 3.17041 31.0004 3.17041H1.00004ZM25.1062 8.65376L28.5873 5.17041H3.51649L7.20722 8.65376H25.1062Z" fill="#111827"/>
</svg>
