<svg width="32" height="33" viewBox="0 0 32 33" fill="none" xmlns="http://www.w3.org/2000/svg">
<path fill-rule="evenodd" clip-rule="evenodd" d="M1.06407 1.32C0.947316 3.28771 0.718535 8.35434 1.11954 12.8723L1.12818 12.9696C1.64355 18.7806 2.86032 32.5 15.4529 32.5C25.871 32.5 30.1712 25.2688 30.8194 12.8723C31.3407 2.90406 31.0236 0.95129 30.8794 0.568745C30.8526 0.497616 30.7865 0.487324 30.7147 0.512318C26.0073 2.15131 13.9696 4.3749 1.92967 0.729772C1.51622 0.604596 1.08965 0.888772 1.06407 1.32ZM8.55605 14.6303C8.94638 14.4555 9.36922 14.3652 9.79688 14.3652C10.2245 14.3652 10.6474 14.4555 11.0377 14.6303C11.428 14.805 11.7771 15.0602 12.0619 15.3792C12.4298 15.7911 13.062 15.8268 13.4739 15.4589C13.8858 15.091 13.9215 14.4588 13.5536 14.0469C13.0811 13.5179 12.5022 13.0946 11.8549 12.8048C11.2075 12.515 10.5062 12.3652 9.79688 12.3652C9.08759 12.3652 8.38629 12.515 7.7389 12.8048C7.09151 13.0946 6.51263 13.5179 6.04014 14.0469C5.67225 14.4588 5.70793 15.091 6.11984 15.4589C6.53175 15.8268 7.16391 15.7911 7.53181 15.3792C7.81669 15.0602 8.16572 14.805 8.55605 14.6303ZM20.6669 14.6303C21.0572 14.4555 21.48 14.3652 21.9077 14.3652C22.3353 14.3652 22.7582 14.4555 23.1485 14.6303C23.5388 14.805 23.8879 15.0602 24.1728 15.3792C24.5407 15.7911 25.1728 15.8268 25.5847 15.4589C25.9966 15.091 26.0323 14.4588 25.6644 14.0469C25.1919 13.5179 24.6131 13.0946 23.9657 12.8048C23.3183 12.515 22.617 12.3652 21.9077 12.3652C21.1984 12.3652 20.4971 12.515 19.8497 12.8048C19.2023 13.0946 18.6234 13.5179 18.151 14.0469C17.7831 14.4588 17.8187 15.091 18.2307 15.4589C18.6426 15.8268 19.2747 15.7911 19.6426 15.3792C19.9275 15.0602 20.2765 14.805 20.6669 14.6303ZM10.5619 22.2339C10.8675 21.7738 11.4881 21.6486 11.9482 21.9541C13.1053 22.7226 14.4634 23.1325 15.8524 23.1325C17.2415 23.1325 18.5996 22.7226 19.7567 21.9541C20.2168 21.6486 20.8374 21.7738 21.143 22.2339C21.4485 22.694 21.3232 23.3146 20.8632 23.6202C19.3782 24.6064 17.6351 25.1325 15.8524 25.1325C14.0698 25.1325 12.3267 24.6064 10.8417 23.6202C10.3817 23.3146 10.2564 22.694 10.5619 22.2339Z" fill="#111827"/>
</svg>
