<svg width="32" height="33" viewBox="0 0 32 33" fill="none" xmlns="http://www.w3.org/2000/svg">
<path fill-rule="evenodd" clip-rule="evenodd" d="M1.06407 1.32C0.947316 3.28771 0.718535 8.35434 1.11954 12.8723L1.12818 12.9696C1.64355 18.7806 2.86032 32.5 15.4529 32.5C25.871 32.5 30.1712 25.2688 30.8194 12.8723C31.3407 2.90406 31.0236 0.95129 30.8794 0.568745C30.8526 0.497616 30.7865 0.487324 30.7147 0.512318C26.0073 2.15131 13.9696 4.3749 1.92967 0.729772C1.51622 0.604596 1.08965 0.888772 1.06407 1.32ZM7.75595 13.1531C7.38805 12.7412 6.75589 12.7055 6.34398 13.0734C5.93207 13.4413 5.89638 14.0734 6.26428 14.4853C6.73358 15.0108 7.30857 15.4312 7.9516 15.7191C8.59463 16.0069 9.29121 16.1557 9.99573 16.1557C10.7002 16.1557 11.3968 16.0069 12.0399 15.7191C12.6829 15.4312 13.2579 15.0108 13.7272 14.4853C14.0951 14.0734 14.0594 13.4413 13.6475 13.0734C13.2356 12.7055 12.6034 12.7412 12.2355 13.1531C11.9538 13.4685 11.6087 13.7208 11.2227 13.8936C10.8367 14.0664 10.4186 14.1557 9.99573 14.1557C9.57284 14.1557 9.15473 14.0664 8.76875 13.8936C8.38278 13.7208 8.03764 13.4685 7.75595 13.1531ZM19.7651 13.1531C19.3972 12.7412 18.7651 12.7055 18.3531 13.0734C17.9412 13.4413 17.9056 14.0734 18.2734 14.4853C18.7428 15.0108 19.3177 15.4312 19.9608 15.7191C20.6038 16.0069 21.3004 16.1557 22.0049 16.1557C22.7094 16.1557 23.406 16.0069 24.049 15.7191C24.692 15.4312 25.267 15.0108 25.7363 14.4853C26.1042 14.0734 26.0686 13.4413 25.6566 13.0734C25.2447 12.7055 24.6126 12.7412 24.2447 13.1531C23.963 13.4685 23.6178 13.7208 23.2319 13.8936C22.8459 14.0664 22.4278 14.1557 22.0049 14.1557C21.582 14.1557 21.1639 14.0664 20.7779 13.8936C20.3919 13.7208 20.0468 13.4685 19.7651 13.1531ZM11.0268 23.661C12.5007 22.6821 14.2307 22.16 16 22.16C17.7694 22.16 19.4994 22.6821 20.9733 23.661C21.4334 23.9666 21.5587 24.5872 21.2531 25.0473C20.9476 25.5073 20.3269 25.6326 19.8669 25.3271C18.7209 24.566 17.3757 24.16 16 24.16C14.6243 24.16 13.2792 24.566 12.1332 25.3271C11.6732 25.6326 11.0525 25.5073 10.747 25.0473C10.4414 24.5872 10.5667 23.9666 11.0268 23.661Z" fill="#111827"/>
</svg>
