<svg width="33" height="33" viewBox="0 0 33 33" fill="none" xmlns="http://www.w3.org/2000/svg">
<path fill-rule="evenodd" clip-rule="evenodd" d="M5.76621 4.9158C5.67872 6.39045 5.50726 10.1875 5.80779 13.5734C5.80993 13.5975 5.81209 13.6218 5.81426 13.6464C6.2005 18.0012 7.11238 28.2829 16.5496 28.2829C24.3572 28.2829 27.5799 22.8637 28.0657 13.5734C28.4563 6.10293 28.2187 4.63948 28.1107 4.35279C28.0906 4.29948 28.041 4.29177 27.9872 4.3105C24.4593 5.5388 15.438 7.20522 6.41492 4.47347C6.10507 4.37966 5.78539 4.59263 5.76621 4.9158ZM11.4831 15.1196C11.7435 15.0031 12.0254 14.9429 12.3107 14.9429C12.5959 14.9429 12.8779 15.0031 13.1382 15.1196C13.3985 15.2362 13.6313 15.4064 13.8213 15.6191C14.1892 16.031 14.8213 16.0667 15.2332 15.6988C15.6452 15.3309 15.6808 14.6987 15.313 14.2868C14.9354 13.864 14.4727 13.5258 13.9553 13.2942C13.438 13.0626 12.8775 12.9429 12.3107 12.9429C11.7438 12.9429 11.1834 13.0626 10.666 13.2942C10.1486 13.5258 9.68597 13.864 9.30838 14.2868C8.94048 14.6987 8.97616 15.3309 9.38808 15.6988C9.79999 16.0667 10.4321 16.031 10.8 15.6191C10.99 15.4064 11.2228 15.2362 11.4831 15.1196ZM20.5593 15.1196C20.8196 15.0031 21.1016 14.9429 21.3868 14.9429C21.672 14.9429 21.954 15.0031 22.2144 15.1196C22.4747 15.2362 22.7075 15.4064 22.8975 15.6191C23.2653 16.031 23.8975 16.0667 24.3094 15.6988C24.7213 15.3309 24.757 14.6987 24.3891 14.2868C24.0115 13.8641 23.5489 13.5258 23.0315 13.2942C22.5141 13.0626 21.9537 12.9429 21.3868 12.9429C20.82 12.9429 20.2595 13.0626 19.7422 13.2942C19.2248 13.5258 18.7621 13.8641 18.3845 14.2868C18.0167 14.6987 18.0523 15.3309 18.4642 15.6988C18.8762 16.0667 19.5083 16.031 19.8762 15.6191C20.0662 15.4064 20.299 15.2362 20.5593 15.1196ZM12.6753 20.4507C12.9808 19.9906 13.6015 19.8653 14.0615 20.1709C14.8876 20.7195 15.8572 21.0121 16.8489 21.0121C17.8405 21.0121 18.8101 20.7195 19.6362 20.1709C20.0963 19.8653 20.7169 19.9906 21.0225 20.4507C21.328 20.9107 21.2027 21.5314 20.7427 21.8369C19.5887 22.6033 18.2342 23.0121 16.8489 23.0121C15.4636 23.0121 14.1091 22.6033 12.9551 21.8369C12.495 21.5314 12.3697 20.9107 12.6753 20.4507Z" fill="#1C1B1F"/>
</svg>
