<svg width="32" height="32" viewBox="0 0 32 32" fill="none" xmlns="http://www.w3.org/2000/svg">
<path fill-rule="evenodd" clip-rule="evenodd" d="M1.06407 0.820002C0.947316 2.78771 0.718535 7.85434 1.11954 12.3723L1.12818 12.4696C1.64355 18.2806 2.86032 32 15.4529 32C25.871 32 30.1712 24.7688 30.8194 12.3723C31.3407 2.40406 31.0236 0.45129 30.8794 0.0687446C30.8526 -0.00238363 30.7865 -0.0126763 30.7147 0.0123178C26.0073 1.65131 13.9696 3.8749 1.92967 0.229772C1.51622 0.104596 1.08965 0.388772 1.06407 0.820002ZM8.55605 14.1303C8.94638 13.9555 9.36922 13.8652 9.79688 13.8652C10.2245 13.8652 10.6474 13.9555 11.0377 14.1303C11.428 14.305 11.7771 14.5602 12.0619 14.8792C12.4298 15.2911 13.062 15.3268 13.4739 14.9589C13.8858 14.591 13.9215 13.9588 13.5536 13.5469C13.0811 13.0179 12.5022 12.5946 11.8549 12.3048C11.2075 12.015 10.5062 11.8652 9.79688 11.8652C9.08759 11.8652 8.38629 12.015 7.7389 12.3048C7.09151 12.5946 6.51263 13.0179 6.04014 13.5469C5.67225 13.9588 5.70793 14.591 6.11984 14.9589C6.53175 15.3268 7.16391 15.2911 7.53181 14.8792C7.81669 14.5602 8.16572 14.305 8.55605 14.1303ZM20.6669 14.1303C21.0572 13.9555 21.48 13.8652 21.9077 13.8652C22.3353 13.8652 22.7582 13.9555 23.1485 14.1303C23.5388 14.305 23.8879 14.5602 24.1728 14.8792C24.5407 15.2911 25.1728 15.3268 25.5847 14.9589C25.9966 14.591 26.0323 13.9588 25.6644 13.5469C25.1919 13.0179 24.6131 12.5946 23.9657 12.3048C23.3183 12.015 22.617 11.8652 21.9077 11.8652C21.1984 11.8652 20.4971 12.015 19.8497 12.3048C19.2023 12.5946 18.6234 13.0179 18.151 13.5469C17.7831 13.9588 17.8187 14.591 18.2307 14.9589C18.6426 15.3268 19.2747 15.2911 19.6426 14.8792C19.9275 14.5602 20.2765 14.305 20.6669 14.1303ZM10.5619 21.7339C10.8675 21.2738 11.4881 21.1486 11.9482 21.4541C13.1053 22.2226 14.4634 22.6325 15.8524 22.6325C17.2415 22.6325 18.5996 22.2226 19.7567 21.4541C20.2168 21.1486 20.8374 21.2738 21.143 21.7339C21.4485 22.194 21.3232 22.8146 20.8632 23.1202C19.3782 24.1064 17.6351 24.6325 15.8524 24.6325C14.0698 24.6325 12.3267 24.1064 10.8417 23.1202C10.3817 22.8146 10.2564 22.194 10.5619 21.7339Z" fill="#111827"/>
</svg>
