<svg width="32" height="32" viewBox="0 0 32 32" fill="none" xmlns="http://www.w3.org/2000/svg">
<path fill-rule="evenodd" clip-rule="evenodd" d="M1.06407 0.820002C0.947316 2.78771 0.718535 7.85434 1.11954 12.3723L1.12818 12.4696C1.64355 18.2806 2.86032 32 15.4529 32C25.871 32 30.1712 24.7688 30.8194 12.3723C31.3407 2.40406 31.0236 0.45129 30.8794 0.0687447C30.8526 -0.0023836 30.7865 -0.0126763 30.7147 0.0123179C26.0073 1.65131 13.9696 3.8749 1.92967 0.229772C1.51622 0.104596 1.08965 0.388772 1.06407 0.820002ZM7.75595 12.6531C7.38805 12.2412 6.75589 12.2055 6.34398 12.5734C5.93207 12.9413 5.89638 13.5734 6.26428 13.9853C6.73358 14.5108 7.30857 14.9312 7.9516 15.2191C8.59463 15.5069 9.29121 15.6557 9.99573 15.6557C10.7002 15.6557 11.3968 15.5069 12.0399 15.2191C12.6829 14.9312 13.2579 14.5108 13.7272 13.9853C14.0951 13.5734 14.0594 12.9413 13.6475 12.5734C13.2356 12.2055 12.6034 12.2412 12.2355 12.6531C11.9538 12.9685 11.6087 13.2208 11.2227 13.3936C10.8367 13.5664 10.4186 13.6557 9.99573 13.6557C9.57284 13.6557 9.15473 13.5664 8.76875 13.3936C8.38278 13.2208 8.03764 12.9685 7.75595 12.6531ZM19.7651 12.6531C19.3972 12.2412 18.7651 12.2055 18.3531 12.5734C17.9412 12.9413 17.9056 13.5734 18.2734 13.9853C18.7428 14.5108 19.3177 14.9312 19.9608 15.2191C20.6038 15.5069 21.3004 15.6557 22.0049 15.6557C22.7094 15.6557 23.406 15.5069 24.049 15.2191C24.692 14.9312 25.267 14.5108 25.7363 13.9853C26.1042 13.5734 26.0686 12.9413 25.6566 12.5734C25.2447 12.2055 24.6126 12.2412 24.2447 12.6531C23.963 12.9685 23.6178 13.2208 23.2319 13.3936C22.8459 13.5664 22.4278 13.6557 22.0049 13.6557C21.582 13.6557 21.1639 13.5664 20.7779 13.3936C20.3919 13.2208 20.0468 12.9685 19.7651 12.6531ZM11.0268 23.161C12.5007 22.1821 14.2307 21.66 16 21.66C17.7694 21.66 19.4994 22.1821 20.9733 23.161C21.4334 23.4666 21.5587 24.0872 21.2531 24.5473C20.9476 25.0073 20.3269 25.1326 19.8669 24.8271C18.7209 24.066 17.3757 23.66 16 23.66C14.6243 23.66 13.2792 24.066 12.1332 24.8271C11.6732 25.1326 11.0525 25.0073 10.747 24.5473C10.4414 24.0872 10.5667 23.4666 11.0268 23.161Z" fill="#111827"/>
</svg>
