<svg width="33" height="33" viewBox="0 0 33 33" fill="none" xmlns="http://www.w3.org/2000/svg">
<path fill-rule="evenodd" clip-rule="evenodd" d="M5.76621 4.9158C5.67872 6.39045 5.50726 10.1875 5.80779 13.5734C5.80993 13.5975 5.81209 13.6218 5.81426 13.6464C6.2005 18.0012 7.11238 28.2829 16.5496 28.2829C24.3572 28.2829 27.5799 22.8637 28.0657 13.5734C28.4563 6.10293 28.2187 4.63948 28.1107 4.35279C28.0906 4.29948 28.041 4.29177 27.9872 4.3105C24.4593 5.5388 15.438 7.20522 6.41492 4.47347C6.10507 4.37966 5.78539 4.59263 5.76621 4.9158ZM10.968 13.6168C10.6001 13.2049 9.96796 13.1692 9.55605 13.5371C9.14413 13.905 9.10845 14.5372 9.47634 14.9491C9.85156 15.3692 10.3113 15.7053 10.8254 15.9355C11.3395 16.1656 11.8964 16.2846 12.4597 16.2846C13.0229 16.2846 13.5799 16.1656 14.094 15.9355C14.6081 15.7053 15.0678 15.3692 15.443 14.9491C15.8109 14.5372 15.7752 13.905 15.3633 13.5371C14.9514 13.1692 14.3192 13.2049 13.9513 13.6168C13.7637 13.8269 13.5339 13.995 13.2768 14.11C13.0198 14.2251 12.7413 14.2846 12.4597 14.2846C12.178 14.2846 11.8996 14.2251 11.6425 14.11C11.3855 13.995 11.1556 13.8269 10.968 13.6168ZM19.968 13.6168C19.6001 13.2049 18.968 13.1692 18.556 13.5371C18.1441 13.905 18.1084 14.5372 18.4763 14.9491C18.8516 15.3692 19.3113 15.7053 19.8254 15.9355C20.3395 16.1656 20.8964 16.2846 21.4597 16.2846C22.0229 16.2846 22.5799 16.1656 23.094 15.9355C23.6081 15.7053 24.0678 15.3692 24.443 14.9491C24.8109 14.5372 24.7752 13.905 24.3633 13.5371C23.9514 13.1692 23.3192 13.2049 22.9513 13.6168C22.7637 13.8269 22.5339 13.995 22.2768 14.11C22.0198 14.2251 21.7413 14.2846 21.4597 14.2846C21.178 14.2846 20.8996 14.2251 20.6425 14.11C20.3855 13.995 20.1556 13.8269 19.968 13.6168ZM13.0937 21.45C14.2394 20.6891 15.5842 20.2832 16.9595 20.2832C18.3348 20.2832 19.6795 20.6891 20.8252 21.45C21.2853 21.7555 21.4106 22.3761 21.105 22.8362C20.7995 23.2963 20.1788 23.4215 19.7187 23.116C18.901 22.5729 17.9412 22.2832 16.9595 22.2832C15.9778 22.2832 15.018 22.5729 14.2002 23.116C13.7402 23.4215 13.1195 23.2963 12.814 22.8362C12.5084 22.3761 12.6337 21.7555 13.0937 21.45Z" fill="#1C1B1F"/>
</svg>
