<svg width="33" height="33" viewBox="0 0 33 33" fill="none" xmlns="http://www.w3.org/2000/svg">
<path fill-rule="evenodd" clip-rule="evenodd" d="M26.7583 6.03044C27.1489 6.42097 27.1489 7.05413 26.7583 7.44466L24.7382 9.46482L26.7583 11.485C27.1489 11.8755 27.1489 12.5087 26.7583 12.8992C26.3678 13.2897 25.7346 13.2897 25.3441 12.8992L23.324 10.879L21.3038 12.8992C20.9133 13.2897 20.2801 13.2897 19.8896 12.8992C19.499 12.5087 19.499 11.8755 19.8896 11.485L21.9097 9.46482L19.8896 7.44466C19.499 7.05413 19.499 6.42097 19.8896 6.03044C20.2801 5.63992 20.9133 5.63992 21.3038 6.03044L23.324 8.05061L25.3441 6.03044C25.7346 5.63992 26.3678 5.63992 26.7583 6.03044ZM6.95996 8.46484C6.40768 8.46484 5.95996 8.91256 5.95996 9.46484C5.95996 10.0171 6.40768 10.4648 6.95996 10.4648H14.2327C14.785 10.4648 15.2327 10.0171 15.2327 9.46484C15.2327 8.91256 14.785 8.46484 14.2327 8.46484H6.95996ZM10.5967 17.5557C11.149 17.5557 11.5967 18.0034 11.5967 18.5557V21.192H14.2327C14.785 21.192 15.2327 21.6397 15.2327 22.192C15.2327 22.7443 14.785 23.192 14.2327 23.192H11.5967V25.8284C11.5967 26.3807 11.149 26.8284 10.5967 26.8284C10.0444 26.8284 9.59668 26.3807 9.59668 25.8284V23.192H6.95996C6.40768 23.192 5.95996 22.7443 5.95996 22.192C5.95996 21.6397 6.40768 21.192 6.95996 21.192H9.59668V18.5557C9.59668 18.0034 10.0444 17.5557 10.5967 17.5557ZM18.6875 20.3815C18.6875 19.8292 19.1352 19.3815 19.6875 19.3815H26.9602C27.5125 19.3815 27.9602 19.8292 27.9602 20.3815C27.9602 20.9338 27.5125 21.3815 26.9602 21.3815H19.6875C19.1352 21.3815 18.6875 20.9338 18.6875 20.3815ZM19.6875 23.0028C19.1352 23.0028 18.6875 23.4505 18.6875 24.0028C18.6875 24.5551 19.1352 25.0028 19.6875 25.0028H26.9602C27.5125 25.0028 27.9602 24.5551 27.9602 24.0028C27.9602 23.4505 27.5125 23.0028 26.9602 23.0028H19.6875Z" fill="#1C1B1F"/>
</svg>
