<svg width="32" height="32" viewBox="0 0 32 32" fill="none" xmlns="http://www.w3.org/2000/svg">
<path fill-rule="evenodd" clip-rule="evenodd" d="M30.3428 0.976243C30.7333 1.36677 30.7333 1.99993 30.3428 2.39046L26.9594 5.77384L30.3428 9.15722C30.7333 9.54774 30.7333 10.1809 30.3428 10.5714C29.9523 10.962 29.3191 10.962 28.9286 10.5714L25.5452 7.18805L22.1618 10.5714C21.7713 10.962 21.1381 10.962 20.7476 10.5714C20.3571 10.1809 20.3571 9.54774 20.7476 9.15722L24.131 5.77384L20.7476 2.39046C20.3571 1.99993 20.3571 1.36677 20.7476 0.976243C21.1381 0.585719 21.7713 0.585719 22.1618 0.976243L25.5452 4.35962L28.9286 0.976243C29.3191 0.585719 29.9523 0.585719 30.3428 0.976243ZM1.00146 4.7739C0.44918 4.7739 0.00146484 5.22162 0.00146484 5.7739C0.00146484 6.32619 0.44918 6.7739 1.00146 6.7739H11.9094C12.4617 6.7739 12.9094 6.32619 12.9094 5.7739C12.9094 5.22162 12.4617 4.7739 11.9094 4.7739H1.00146ZM6.45619 18.4086C7.00847 18.4086 7.45619 18.8563 7.45619 19.4086V23.8627H11.9094C12.4617 23.8627 12.9094 24.3105 12.9094 24.8627C12.9094 25.415 12.4617 25.8627 11.9094 25.8627H7.45619V30.3166C7.45619 30.8689 7.00847 31.3166 6.45619 31.3166C5.9039 31.3166 5.45619 30.8689 5.45619 30.3166V25.8627H1.00146C0.44918 25.8627 0.00146484 25.415 0.00146484 24.8627C0.00146484 24.3105 0.44918 23.8627 1.00146 23.8627H5.45619V19.4086C5.45619 18.8563 5.9039 18.4086 6.45619 18.4086ZM19.0905 22.1472C19.0905 21.595 19.5383 21.1472 20.0905 21.1472H30.9985C31.5508 21.1472 31.9985 21.595 31.9985 22.1472C31.9985 22.6995 31.5508 23.1472 30.9985 23.1472H20.0905C19.5383 23.1472 19.0905 22.6995 19.0905 22.1472ZM20.0905 26.5785C19.5383 26.5785 19.0905 27.0262 19.0905 27.5785C19.0905 28.1308 19.5383 28.5785 20.0905 28.5785H30.9985C31.5508 28.5785 31.9985 28.1308 31.9985 27.5785C31.9985 27.0262 31.5508 26.5785 30.9985 26.5785H20.0905Z" fill="#111827"/>
</svg>
