<svg width="32" height="32" viewBox="0 0 32 32" fill="none" xmlns="http://www.w3.org/2000/svg">
<path fill-rule="evenodd" clip-rule="evenodd" d="M22.9303 20.7901C25.7353 18.6829 27.5497 15.3283 27.5497 11.55C27.5497 5.17137 22.3788 0.000488281 16.0002 0.000488281C9.62157 0.000488281 4.45068 5.17137 4.45068 11.55C4.45068 15.3284 6.26507 18.683 9.07011 20.7901V31.4985C9.07011 31.8776 9.47561 32.1188 9.80878 31.9378L15.7955 28.6857C15.945 28.6045 16.1256 28.6049 16.2747 28.6867L22.1898 31.9327C22.523 32.1156 22.9303 31.8745 22.9303 31.4944V20.7901ZM16.0003 18.4795C19.8275 18.4795 22.93 15.377 22.93 11.5498C22.93 7.72268 19.8275 4.62015 16.0003 4.62015C12.1731 4.62015 9.07059 7.72268 9.07059 11.5498C9.07059 15.377 12.1731 18.4795 16.0003 18.4795Z" fill="#111827"/>
</svg>
