<svg width="33" height="33" viewBox="0 0 33 33" fill="none" xmlns="http://www.w3.org/2000/svg">
<path fill-rule="evenodd" clip-rule="evenodd" d="M22.1032 19.712C24.185 18.1482 25.5315 15.6585 25.5315 12.8544C25.5315 8.12052 21.694 4.28296 16.9601 4.28296C12.2262 4.28296 8.38867 8.12052 8.38867 12.8544C8.38867 15.6585 9.73518 18.1481 11.8169 19.7119V27.4424C11.8169 27.8216 12.2224 28.0627 12.5556 27.8818L16.7463 25.6053C16.8958 25.5241 17.0763 25.5244 17.2255 25.6063L21.3627 27.8766C21.6959 28.0595 22.1032 27.8184 22.1032 27.4383V19.712ZM16.9602 17.9971C19.8006 17.9971 22.1031 15.6946 22.1031 12.8543C22.1031 10.014 19.8006 7.71143 16.9602 7.71143C14.1199 7.71143 11.8174 10.014 11.8174 12.8543C11.8174 15.6946 14.1199 17.9971 16.9602 17.9971Z" fill="#1C1B1F"/>
</svg>
