<svg width="34" height="32" viewBox="0 0 34 32" fill="none" xmlns="http://www.w3.org/2000/svg">
<path fill-rule="evenodd" clip-rule="evenodd" d="M33.0152 8.24243C33.0152 7.69015 32.5675 7.24243 32.0152 7.24243C31.4629 7.24243 31.0152 7.69015 31.0152 8.24243V23.7576C31.0152 24.3099 31.4629 24.7576 32.0152 24.7576C32.5675 24.7576 33.0152 24.3099 33.0152 23.7576V8.24243ZM8.74244 24.3117C13.0268 24.3117 16.5 20.5904 16.5 16C16.5 11.4096 13.0268 7.68834 8.74244 7.68834C4.45805 7.68834 0.984863 11.4096 0.984863 16C0.984863 20.5904 4.45805 24.3117 8.74244 24.3117ZM24.2579 23.7576C26.0941 23.7576 27.5826 20.2844 27.5826 16C27.5826 11.7156 26.0941 8.24243 24.2579 8.24243C22.4218 8.24243 20.9333 11.7156 20.9333 16C20.9333 20.2844 22.4218 23.7576 24.2579 23.7576Z" fill="#111827"/>
</svg>
