<svg width="33" height="33" viewBox="0 0 33 33" fill="none" xmlns="http://www.w3.org/2000/svg">
<path fill-rule="evenodd" clip-rule="evenodd" d="M4.95996 5.40782C4.95996 5.00252 5.41137 4.75934 5.75352 4.97661C10.8776 8.23051 14.0855 9.16838 19.1644 10.0066C19.1549 10.0627 19.1501 10.1204 19.1504 10.1792L19.1992 20.2041L21.1899 20.1944V24.3126H23.1899V20.1875H21.1992L21.1504 10.174L24.3888 10.1715C26.9005 10.1715 28.96 12.6405 28.96 15.1522C28.96 17.4764 27.8992 19.2934 25.1899 20.0306V25.3126C25.1899 25.8649 24.7422 26.3126 24.1899 26.3126H20.1899C19.6377 26.3126 19.1899 25.8649 19.1899 25.3126V20.3526C13.5403 21.3304 10.3423 22.448 5.80701 26.1501C5.47028 26.4249 4.95996 26.1886 4.95996 25.7539V5.40782Z" fill="#1C1B1F"/>
</svg>
