<svg width="32" height="32" viewBox="0 0 32 32" fill="none" xmlns="http://www.w3.org/2000/svg">
<path fill-rule="evenodd" clip-rule="evenodd" d="M0 2.43499C0 1.89459 0.601885 1.57035 1.05808 1.86004C8.00017 6.26842 12.3045 7.48853 19.2682 8.6206C19.2586 8.67732 19.2536 8.73566 19.2539 8.79519L19.319 22.1618L21.3066 22.1521V27.9747H24.64V22.1413H21.3189L21.2539 8.79021L25.9052 8.78663C29.2541 8.78663 32 12.0786 32 15.4275C32 18.6201 30.4989 21.0948 26.64 22.0171V28.9747C26.64 29.527 26.1923 29.9747 25.64 29.9747H20.3066C19.7544 29.9747 19.3066 29.527 19.3066 28.9747V22.3042C11.5651 23.6221 7.26502 25.0829 1.1294 30.0913C0.680425 30.4578 0 30.1427 0 29.5631V2.43499Z" fill="#111827"/>
</svg>
