<svg width="33" height="33" viewBox="0 0 33 33" fill="none" xmlns="http://www.w3.org/2000/svg">
<path fill-rule="evenodd" clip-rule="evenodd" d="M4.95996 7.4479C4.95996 6.78128 5.59987 6.30128 6.23985 6.48786L19.9777 10.493C19.9629 10.5615 19.9551 10.6327 19.9551 10.7056V20.4856H21.9551V25.4511H23.9534V19.9024L21.9551 20.485V11.0695L28.2399 12.9018C28.6666 13.0262 28.96 13.4173 28.96 13.8618V17.6927C28.96 18.1372 28.6666 18.5283 28.2399 18.6527L25.9534 19.3193V26.4511C25.9534 27.0034 25.5056 27.4511 24.9534 27.4511H20.9551C20.4028 27.4511 19.9551 27.0034 19.9551 26.4511V21.0681L6.23985 25.0666C5.59988 25.2532 4.95996 24.7732 4.95996 24.1066V7.4479Z" fill="#1C1B1F"/>
</svg>
