<svg width="32" height="32" viewBox="0 0 32 32" fill="none" xmlns="http://www.w3.org/2000/svg">
<path fill-rule="evenodd" clip-rule="evenodd" d="M0 3.10933C0 2.44271 0.639914 1.96272 1.27989 2.1493L20.3448 7.70752C20.333 7.76897 20.3268 7.83243 20.3268 7.89733V20.9372H22.3268V8.28535L31.2799 10.8955C31.7066 11.0199 32 11.4111 32 11.8556V17.4635C32 17.9079 31.7066 18.2991 31.2799 18.4235L27.6579 19.4795V28.8914C27.6579 29.4437 27.2102 29.8914 26.6579 29.8914H21.3268C20.7745 29.8914 20.3268 29.4437 20.3268 28.8914V21.6168L1.27989 27.1697C0.639917 27.3563 0 26.8763 0 26.2097V3.10933ZM22.3268 21.0337L25.6579 20.0625V27.8914H22.3268V21.0337Z" fill="#111827"/>
</svg>
