<svg width="33" height="33" viewBox="0 0 33 33" fill="none" xmlns="http://www.w3.org/2000/svg">
<g clip-path="url(#clip0_304_231)">
<path fill-rule="evenodd" clip-rule="evenodd" d="M6.20604 11.6245C5.48057 15.3466 7.30347 26.7033 8.30561 31.9164L0.559416 31.7482C-0.740394 20.7222 0.702843 6.7988 1.58694 1.21533H9.07773C10.2425 2.26811 14.364 7.84561 15.26 9.59278C15.9768 10.9905 16.6227 10.157 16.856 9.56545C19.4619 5.31762 22.0766 2.23051 23.0582 1.21793H30.6895C32.4262 12.4226 32.1244 26.2829 31.7565 31.8125H24.0677C25.771 24.589 26.0654 15.2126 25.9997 11.4274C25.6843 4.96093 20.9527 17.6442 18.6264 24.7941H13.7371C13.0878 23.1427 12.4991 21.6316 11.9644 20.2588C8.01741 10.1269 7.00466 7.52709 6.20604 11.6245ZM14.5614 30.0778C14.5614 31.0933 13.7382 31.9165 12.7228 31.9165C11.7073 31.9165 10.8841 31.0933 10.8841 30.0778C10.8841 29.0624 11.7073 28.2392 12.7228 28.2392C13.7382 28.2392 14.5614 29.0624 14.5614 30.0778ZM19.5139 31.9165C20.5293 31.9165 21.3525 31.0933 21.3525 30.0778C21.3525 29.0624 20.5293 28.2392 19.5139 28.2392C18.4984 28.2392 17.6752 29.0624 17.6752 30.0778C17.6752 31.0933 18.4984 31.9165 19.5139 31.9165Z" fill="#111827"/>
</g>
<defs>
<clipPath id="clip0_304_231">
<rect width="32" height="32" fill="white" transform="translate(0.0400391 0.565918)"/>
</clipPath>
</defs>
</svg>
