<svg width="32" height="32" viewBox="0 0 32 32" fill="none" xmlns="http://www.w3.org/2000/svg">
<path fill-rule="evenodd" clip-rule="evenodd" d="M0.280442 13.0177C-0.446127 16.8473 0.250341 20.8105 2.23906 24.163L2.23918 24.1629L0.659639 29.6913C0.594286 29.9201 0.591289 30.1621 0.650959 30.3924C0.710628 30.6227 0.830793 30.8328 0.999001 31.001C1.16721 31.1692 1.37734 31.2894 1.60761 31.349C1.83789 31.4087 2.07993 31.4057 2.30866 31.3404L7.83706 29.7608L7.83702 29.761C11.1895 31.7497 15.1527 32.4461 18.9824 31.7195C22.8121 30.993 26.2448 28.8933 28.6359 25.8149C31.0271 22.7365 32.2122 18.891 31.9687 15.0006C31.7253 11.1103 30.07 7.44256 27.3137 4.68628C24.5574 1.92999 20.8897 0.274704 16.9993 0.0312544C13.1089 -0.212195 9.26347 0.972935 6.18505 3.3641C3.10664 5.75527 1.00701 9.18799 0.280442 13.0177ZM14.0459 12.6184C13.6554 12.2279 13.0222 12.2279 12.6317 12.6184L7.29615 17.954C6.90562 18.3445 6.90562 18.9777 7.29615 19.3682C7.68667 19.7587 8.31984 19.7587 8.71036 19.3682L13.3388 14.7397L17.9673 19.3682C18.3578 19.7587 18.991 19.7587 19.3815 19.3682L24.717 14.0326C25.1076 13.6421 25.1076 13.0089 24.717 12.6184C24.3265 12.2279 23.6934 12.2279 23.3028 12.6184L18.6744 17.2469L14.0459 12.6184Z" fill="#111827"/>
</svg>
