<svg width="33" height="33" viewBox="0 0 33 33" fill="none" xmlns="http://www.w3.org/2000/svg">
<path fill-rule="evenodd" clip-rule="evenodd" d="M5.17029 14.1877C4.62537 17.0599 5.14772 20.0323 6.63926 22.5467L6.63935 22.5466L5.45469 26.6929C5.40568 26.8645 5.40343 27.046 5.44818 27.2187C5.49293 27.3914 5.58306 27.549 5.70921 27.6752C5.83537 27.8013 5.99296 27.8915 6.16567 27.9362C6.33838 27.981 6.51991 27.9787 6.69146 27.9297L10.8378 26.745L10.8377 26.7452C13.3521 28.2367 16.3245 28.759 19.1968 28.2141C22.069 27.6692 24.6436 26.0944 26.4369 23.7856C28.2303 21.4768 29.1191 18.5927 28.9365 15.6749C28.7539 12.7571 27.5124 10.0064 25.4452 7.93914C23.378 5.87193 20.6272 4.63047 17.7094 4.44788C14.7916 4.26529 11.9076 5.15414 9.59875 6.94752C7.28994 8.74089 5.71522 11.3154 5.17029 14.1877ZM15.6712 13.7115C15.2807 13.3209 14.6475 13.3209 14.257 13.7115L10.2553 17.7131C9.86477 18.1037 9.86477 18.7368 10.2553 19.1274C10.6458 19.5179 11.279 19.5179 11.6695 19.1274L14.9641 15.8328L18.2586 19.1274C18.6492 19.5179 19.2823 19.5179 19.6728 19.1274L23.6745 15.1257C24.065 14.7352 24.065 14.102 23.6745 13.7115C23.284 13.3209 22.6508 13.3209 22.2603 13.7115L18.9657 17.006L15.6712 13.7115Z" fill="#1C1B1F"/>
</svg>
