<svg width="33" height="33" viewBox="0 0 33 33" fill="none" xmlns="http://www.w3.org/2000/svg">
<path fill-rule="evenodd" clip-rule="evenodd" d="M5.17029 14.0462C4.62537 16.9185 5.14772 19.8909 6.63926 22.4052L6.63935 22.4052L5.45469 26.5515C5.40568 26.723 5.40343 26.9045 5.44818 27.0772C5.49293 27.2499 5.58306 27.4075 5.70921 27.5337C5.83537 27.6599 5.99296 27.75 6.16567 27.7947C6.33838 27.8395 6.51991 27.8372 6.69146 27.7882L10.8378 26.6036L10.8377 26.6037C13.3521 28.0952 16.3245 28.6176 19.1968 28.0726C22.069 27.5277 24.6436 25.9529 26.4369 23.6441C28.2303 21.3353 29.1191 18.4512 28.9365 15.5334C28.7539 12.6156 27.5124 9.86488 25.4452 7.79767C23.378 5.73045 20.6272 4.48899 17.7094 4.3064C14.7916 4.12381 11.9076 5.01266 9.59875 6.80604C7.28994 8.59941 5.71522 11.1739 5.17029 14.0462ZM15.6712 13.57C15.2807 13.1795 14.6475 13.1795 14.257 13.57L10.2553 17.5717C9.86477 17.9622 9.86477 18.5954 10.2553 18.9859C10.6458 19.3764 11.279 19.3764 11.6695 18.9859L14.9641 15.6913L18.2586 18.9859C18.6492 19.3764 19.2823 19.3764 19.6728 18.9859L23.6745 14.9842C24.065 14.5937 24.065 13.9605 23.6745 13.57C23.284 13.1795 22.6508 13.1795 22.2603 13.57L18.9657 16.8646L15.6712 13.57Z" fill="#1C1B1F"/>
</svg>
