<svg width="33" height="33" viewBox="0 0 33 33" fill="none" xmlns="http://www.w3.org/2000/svg">
<g clip-path="url(#clip0_489_486)">
<path d="M4.14147 20.2083C4.14147 14.9698 6.76068 9.50364 9.83542 9.50364C11.5436 9.50364 12.9102 10.5285 15.0739 13.6033C13.024 16.7919 11.7714 18.7278 11.7714 18.7278C9.03826 23.0552 8.12723 23.9663 6.64681 23.9663C5.16638 24.0801 4.14147 22.7136 4.14147 20.2083ZM22.0205 18.2723L20.0845 15.0837C19.629 14.2866 19.0596 13.4894 18.6041 12.8061C20.3123 10.1869 21.6788 8.82036 23.387 8.82036C26.8034 8.82036 29.5365 13.9449 29.5365 20.3221C29.5365 22.7136 28.7393 24.0801 27.145 24.0801C25.5507 24.0801 24.9813 23.0552 22.0205 18.2723ZM17.1237 10.5285C14.6183 7.22606 12.4546 5.97339 9.9493 5.97339C4.71086 5.97339 0.725098 12.92 0.725098 20.2083C0.725098 24.7634 2.8888 27.6104 6.53293 27.6104C9.15214 27.6104 10.9742 26.3577 14.3906 20.436C14.3906 20.436 15.7571 17.9307 16.782 16.2225C17.1237 16.7919 17.4653 17.3613 17.8069 18.0446L19.4013 20.7777C22.476 26.0161 24.1842 27.7243 27.2589 27.7243C30.7892 27.7243 32.7251 24.7634 32.7251 20.0944C32.6112 12.3506 28.5116 5.97339 23.6148 5.97339C20.9956 5.97339 18.9457 8.02321 17.1237 10.5285Z" fill="black"/>
</g>
<defs>
<clipPath id="clip0_489_486">
<rect width="32" height="32" fill="white" transform="translate(0.725098 0.848877)"/>
</clipPath>
</defs>
</svg>
