<svg width="32" height="32" viewBox="0 0 32 32" fill="none" xmlns="http://www.w3.org/2000/svg">
<path fill-rule="evenodd" clip-rule="evenodd" d="M17.9999 -0.000244141H28.2502C29.3547 -0.000244141 30.2502 0.895185 30.2502 1.99976V10.9873C30.2502 10.9915 30.2502 10.9957 30.2502 10.9999C30.2502 11.0041 30.2502 11.0083 30.2502 11.0125V20.9874C30.2502 20.9916 30.2502 20.9958 30.2502 21.0001C30.2502 21.0043 30.2502 21.0085 30.2502 21.0127V30.0002C30.2502 31.1047 29.3547 32.0002 28.2502 32.0002H18.0136C18.0091 32.0002 18.0045 32.0003 17.9999 32.0003C17.9954 32.0003 17.9908 32.0002 17.9863 32.0002H7.74983C6.64527 32.0002 5.74983 31.1048 5.74983 30.0002V24.8101C5.74983 24.7899 5.75043 24.7699 5.75161 24.75H2.74976C2.19747 24.75 1.74976 24.3023 1.74976 23.75V8.24979C1.74976 7.69751 2.19747 7.24979 2.74976 7.24979H5.75713C5.75231 7.21 5.74983 7.1695 5.74983 7.12841V1.99976C5.74983 0.895185 6.64526 -0.000244141 7.74983 -0.000244141H17.9999ZM7.74254 7.24979H16.9999V1.99976L7.74983 1.99976V7.12841C7.74983 7.1695 7.74736 7.21 7.74254 7.24979ZM18.9999 1.99976V7.24979H19.5C20.0523 7.24979 20.5 7.69751 20.5 8.24979V9.99991H20.5001H28.2502V1.99976L18.9999 1.99976ZM28.2502 11.9999H20.5001H20.5V20.0001H20.5001H28.2502L28.2502 11.9999ZM28.2502 22.0001H20.5001H20.5V23.75C20.5 24.3023 20.0523 24.75 19.5 24.75H18.9999V24.7502V30.0002H28.2502V22.0001ZM16.9999 30.0002V24.7502V24.75H7.74806C7.74924 24.7699 7.74983 24.7899 7.74983 24.8101V30.0002H16.9999ZM7.71217 11.4498C8.154 11.1184 8.7808 11.208 9.11217 11.6498L11.1247 14.3332L13.1372 11.6498C13.4686 11.208 14.0954 11.1184 14.5372 11.4498C14.9791 11.7812 15.0686 12.408 14.7372 12.8498L12.3747 15.9998L14.7372 19.1499C15.0686 19.5917 14.9791 20.2185 14.5372 20.5499C14.0954 20.8813 13.4686 20.7917 13.1372 20.3499L11.1247 17.6665L9.11217 20.3499C8.7808 20.7917 8.154 20.8813 7.71217 20.5499C7.27034 20.2185 7.1808 19.5917 7.51217 19.1499L9.87471 15.9998L7.51217 12.8498C7.1808 12.408 7.27034 11.7812 7.71217 11.4498Z" fill="#111827"/>
</svg>
