<svg width="32" height="33" viewBox="0 0 32 33" fill="none" xmlns="http://www.w3.org/2000/svg">
<path fill-rule="evenodd" clip-rule="evenodd" d="M15.9995 0.5C12.707 0.5 10.038 3.16905 10.038 6.46149V15.9999C10.038 19.2923 12.707 21.9614 15.9995 21.9614C19.2919 21.9614 21.961 19.2923 21.961 15.9999V6.46149C21.961 3.16905 19.2919 0.5 15.9995 0.5ZM5.22336 16.1983C5.77222 16.1369 6.26695 16.532 6.32836 17.0809C6.59453 19.4597 7.72806 21.6569 9.51224 23.2526C11.2964 24.8483 13.6061 25.7304 15.9997 25.7304C18.3934 25.7304 20.7031 24.8483 22.4873 23.2526C24.2714 21.6569 25.405 19.4597 25.6711 17.0809C25.7326 16.532 26.2273 16.1369 26.7761 16.1983C27.325 16.2597 27.7202 16.7544 27.6587 17.3033C27.3379 20.171 25.9714 22.8198 23.8205 24.7434C21.9193 26.4437 19.5231 27.472 16.9996 27.6878V31.4998C16.9996 32.052 16.5519 32.4998 15.9996 32.4998C15.4473 32.4998 14.9996 32.052 14.9996 31.4998V27.6878C12.4762 27.4719 10.0801 26.4436 8.17898 24.7434C6.02812 22.8198 4.66164 20.1709 4.34076 17.3033C4.27935 16.7544 4.6745 16.2597 5.22336 16.1983Z" fill="#111827"/>
</svg>
