<svg width="33" height="33" viewBox="0 0 33 33" fill="none" xmlns="http://www.w3.org/2000/svg">
<path d="M17.4402 23.0029V27.8029" stroke="#1C1B1F" stroke-width="2" stroke-linecap="round" stroke-linejoin="round"/>
<path d="M17.4402 4.76294V9.56294" stroke="#1C1B1F" stroke-width="2" stroke-linecap="round" stroke-linejoin="round"/>
<path d="M19.3601 16.283H28.9601" stroke="#1C1B1F" stroke-width="2" stroke-linecap="round" stroke-linejoin="round"/>
<path d="M8.08032 9.56294C9.5026 7.58256 11.5165 6.10451 13.8323 5.34152C16.148 4.57854 18.6461 4.56996 20.967 5.31703C23.2879 6.06411 25.312 7.5283 26.7478 9.49886C28.1837 11.4694 28.9572 13.8447 28.9572 16.2829C28.9572 18.7211 28.1837 21.0964 26.7478 23.067C25.312 25.0376 23.2879 26.5018 20.967 27.2488C18.6461 27.9959 16.148 27.9873 13.8323 27.2244C11.5165 26.4614 9.5026 24.9833 8.08032 23.0029" stroke="#1C1B1F" stroke-width="2" stroke-linecap="round" stroke-linejoin="round"/>
<path fill-rule="evenodd" clip-rule="evenodd" d="M5.96021 9.56299C5.40792 9.56299 4.96021 10.0107 4.96021 10.563V22.003C4.96021 22.5553 5.40792 23.003 5.96021 23.003H18.3602C18.9125 23.003 19.3602 22.5553 19.3602 22.003V10.563C19.3602 10.0107 18.9125 9.56299 18.3602 9.56299H5.96021ZM10.2593 12.2407C9.6965 12.2407 9.24023 12.697 9.24023 13.2598V17.1853V19.3251C9.24023 19.8774 9.68795 20.3251 10.2402 20.3251C10.7925 20.3251 11.2402 19.8774 11.2402 19.3251V18.1853H12.1602C13.7729 18.1853 15.0802 16.878 15.0802 15.2653V15.213C15.0802 13.5715 13.7495 12.2407 12.1079 12.2407H10.2593ZM12.1602 16.1853H11.2402V14.2407H12.1079C12.6449 14.2407 13.0802 14.676 13.0802 15.213V15.2653C13.0802 15.7734 12.6683 16.1853 12.1602 16.1853Z" fill="#1C1B1F"/>
</svg>
