<svg width="32" height="32" viewBox="0 0 32 32" fill="none" xmlns="http://www.w3.org/2000/svg">
<path fill-rule="evenodd" clip-rule="evenodd" d="M5.74983 1.99976C5.74983 0.895187 6.64526 -0.000244141 7.74983 -0.000244141H28.2502C29.3547 -0.000244141 30.2502 0.895188 30.2502 1.99976V10.9664C30.2505 10.9776 30.2507 10.9887 30.2507 10.9999C30.2507 11.0111 30.2505 11.0223 30.2502 11.0334V20.9666C30.2505 20.9777 30.2507 20.9889 30.2507 21.0001C30.2507 21.0113 30.2505 21.0224 30.2502 21.0335V30.0002C30.2502 31.1048 29.3547 32.0002 28.2502 32.0002H7.74983C6.64526 32.0002 5.74983 31.1048 5.74983 30.0002V24.8101C5.74983 24.79 5.75043 24.7699 5.75161 24.7501H2.75C2.19771 24.7501 1.75 24.3023 1.75 23.7501V8.24979C1.75 7.69751 2.19772 7.24979 2.75 7.24979H5.75712C5.75231 7.21001 5.74983 7.1695 5.74983 7.12842V1.99976ZM7.74254 7.24979H19.5003C20.0526 7.24979 20.5003 7.69751 20.5003 8.24979V9.99991C20.5004 9.99991 20.5005 9.99991 20.5006 9.99991H28.2502V1.99976L7.74983 1.99976V7.12842C7.74983 7.1695 7.74735 7.21001 7.74254 7.24979ZM20.5003 11.9999V20.0001C20.5004 20.0001 20.5005 20.0001 20.5006 20.0001H28.2502V11.9999H20.5006C20.5005 11.9999 20.5004 11.9999 20.5003 11.9999ZM20.5003 22.0001V23.7501C20.5003 24.3023 20.0526 24.7501 19.5003 24.7501H7.74806C7.74923 24.7699 7.74983 24.79 7.74983 24.8101V30.0002L28.2502 30.0002V22.0001H20.5006C20.5005 22.0001 20.5004 22.0001 20.5003 22.0001ZM15.8179 11.4127C16.3506 11.5584 16.6643 12.1084 16.5185 12.6411L14.5637 19.7862C14.2886 20.7918 12.8993 20.8862 12.4907 19.9271L10.9962 16.4191L9.48445 19.9187C9.06434 20.8913 7.6472 20.7662 7.40401 19.735L5.72284 12.6068C5.59606 12.0692 5.92905 11.5307 6.46659 11.4039C7.00412 11.2771 7.54265 11.6101 7.66943 12.1477L8.72653 16.6298L9.99211 13.7001C10.3755 12.8126 11.635 12.8157 12.0139 13.7051L13.3171 16.764L14.5894 12.1133C14.7352 11.5806 15.2852 11.2669 15.8179 11.4127Z" fill="#111827"/>
</svg>
