<svg width="33" height="33" viewBox="0 0 33 33" fill="none" xmlns="http://www.w3.org/2000/svg">
<path fill-rule="evenodd" clip-rule="evenodd" d="M15.4847 4.78296H16.9595C19.2253 4.78296 21.0621 6.61974 21.0621 8.88552V16.5337L12.8569 7.41074C12.8569 5.95946 14.0334 4.78296 15.4847 4.78296ZM8.81124 6.77703C8.43973 6.36838 7.80728 6.33826 7.39862 6.70977C6.98997 7.08127 6.95985 7.71372 7.33136 8.12238L12.8574 14.2011V17.33C12.8574 19.5391 14.6483 21.33 16.8574 21.33H19.3383L20.462 22.5661C19.4273 23.2447 18.2112 23.6119 16.9602 23.6119C15.3896 23.6119 13.8741 23.0331 12.7035 21.9861C11.5328 20.9392 10.7891 19.4975 10.6144 17.9367C10.553 17.3878 10.0583 16.9926 9.50941 17.0541C8.96055 17.1155 8.5654 17.6102 8.62681 18.1591C8.85616 20.2087 9.83286 22.102 11.3702 23.4769C12.6572 24.6279 14.2615 25.3481 15.96 25.5521V27.8941V28.7829C15.96 29.3351 16.4077 29.7829 16.96 29.7829C17.5123 29.7829 17.96 29.3351 17.96 28.7829V27.8941V25.5521C19.3506 25.3852 20.6782 24.8722 21.8201 24.06L25.1091 27.6779C25.4806 28.0866 26.1131 28.1167 26.5217 27.7452C26.9304 27.3737 26.9605 26.7412 26.589 26.3326L8.81124 6.77703ZM25.2935 18.1591C25.3549 17.6102 24.9598 17.1155 24.4109 17.0541C23.862 16.9926 23.3673 17.3878 23.3059 17.9367C23.2219 18.6873 23.0063 19.4104 22.6748 20.0753C22.4284 20.5696 22.6294 21.17 23.1237 21.4164C23.6179 21.6628 24.2184 21.4618 24.4648 20.9676C24.9 20.0944 25.1832 19.1448 25.2935 18.1591Z" fill="#1C1B1F"/>
</svg>
