<svg width="33" height="33" viewBox="0 0 33 33" fill="none" xmlns="http://www.w3.org/2000/svg">
<path d="M17.4402 23.1444V27.9444" stroke="#1C1B1F" stroke-width="2" stroke-linecap="round" stroke-linejoin="round"/>
<path d="M17.4402 4.90442V9.70442" stroke="#1C1B1F" stroke-width="2" stroke-linecap="round" stroke-linejoin="round"/>
<path d="M19.3601 16.4244H28.9601" stroke="#1C1B1F" stroke-width="2" stroke-linecap="round" stroke-linejoin="round"/>
<path d="M8.08032 9.70442C9.5026 7.72404 11.5165 6.24599 13.8323 5.483C16.148 4.72002 18.6461 4.71144 20.967 5.45851C23.2879 6.20559 25.312 7.66978 26.7478 9.64034C28.1837 11.6109 28.9572 13.9862 28.9572 16.4244C28.9572 18.8626 28.1837 21.2379 26.7478 23.2085C25.312 25.1791 23.2879 26.6433 20.967 27.3903C18.6461 28.1374 16.148 28.1288 13.8323 27.3658C11.5165 26.6028 9.5026 25.1248 8.08032 23.1444" stroke="#1C1B1F" stroke-width="2" stroke-linecap="round" stroke-linejoin="round"/>
<path fill-rule="evenodd" clip-rule="evenodd" d="M5.96021 9.70447C5.40792 9.70447 4.96021 10.1522 4.96021 10.7045V22.1445C4.96021 22.6968 5.40792 23.1445 5.96021 23.1445H18.3602C18.9125 23.1445 19.3602 22.6968 19.3602 22.1445V10.7045C19.3602 10.1522 18.9125 9.70447 18.3602 9.70447H5.96021ZM10.2593 12.3822C9.6965 12.3822 9.24023 12.8385 9.24023 13.4013V17.3268V19.4666C9.24023 20.0189 9.68795 20.4666 10.2402 20.4666C10.7925 20.4666 11.2402 20.0189 11.2402 19.4666V18.3268H12.1602C13.7729 18.3268 15.0802 17.0194 15.0802 15.4068V15.3545C15.0802 13.7129 13.7495 12.3822 12.1079 12.3822H10.2593ZM12.1602 16.3268H11.2402V14.3822H12.1079C12.6449 14.3822 13.0802 14.8175 13.0802 15.3545V15.4068C13.0802 15.9149 12.6683 16.3268 12.1602 16.3268Z" fill="#1C1B1F"/>
</svg>
