<svg width="33" height="33" viewBox="0 0 33 33" fill="none" xmlns="http://www.w3.org/2000/svg">
<path d="M14.5965 10.0443C14.2164 9.38676 14.0398 8.63123 14.0892 7.87329C14.1385 7.11536 14.4115 6.38909 14.8736 5.78634C15.3358 5.18358 15.9663 4.73144 16.6855 4.48709C17.4046 4.24274 18.1801 4.21716 18.9138 4.41359C19.6475 4.61003 20.3064 5.01965 20.8073 5.59064C21.3082 6.16163 21.6284 6.86834 21.7276 7.62138C21.8268 8.37441 21.7004 9.13994 21.3644 9.82112C21.0284 10.5023 20.498 11.0685 19.8401 11.4482" stroke="#1C1B1F" stroke-width="2" stroke-linecap="round" stroke-linejoin="round"/>
<path d="M21.5317 6.82872C21.9649 6.31615 22.5517 5.95689 23.2052 5.80428C23.8587 5.65167 24.544 5.71384 25.1593 5.98155C25.7746 6.24927 26.2873 6.70827 26.6211 7.29042C26.9549 7.87256 27.0921 8.54683 27.0123 9.21314C26.9326 9.87944 26.6401 10.5023 26.1783 10.9892C25.7165 11.4761 25.11 11.8011 24.4488 11.916C23.7877 12.0309 23.1071 11.9295 22.5081 11.627C21.9091 11.3244 21.4237 10.8368 21.1238 10.2365" stroke="#1C1B1F" stroke-width="2" stroke-linecap="round" stroke-linejoin="round"/>
<path d="M11.4768 23.0034V23.0034C11.4768 25.9192 13.8406 28.283 16.7564 28.283H17.778C21.258 28.283 24.0791 25.4618 24.0791 21.9818V12.0454C24.0791 12.0006 24.0428 11.9642 23.9979 11.9642H19.8568" stroke="#1C1B1F" stroke-width="2"/>
<path fill-rule="evenodd" clip-rule="evenodd" d="M5.44116 11.0444C5.44116 10.4921 5.88888 10.0444 6.44116 10.0444H18.84C19.3923 10.0444 19.84 10.4921 19.84 11.0444V22.4834C19.84 23.0357 19.3923 23.4834 18.84 23.4834H6.44116C5.88888 23.4834 5.44116 23.0357 5.44116 22.4834V11.0444ZM9.48071 13.884C9.48071 13.3317 9.92843 12.884 10.4807 12.884H14.8004C15.3527 12.884 15.8004 13.3317 15.8004 13.884C15.8004 14.4363 15.3527 14.884 14.8004 14.884H13.6406V14.8823H11.6406V14.884H10.4807C9.92843 14.884 9.48071 14.4363 9.48071 13.884ZM11.6406 14.884V19.6436C11.6406 20.1959 12.0883 20.6436 12.6406 20.6436C13.1929 20.6436 13.6406 20.1959 13.6406 19.6436V14.884H11.6406Z" fill="#1C1B1F"/>
<path d="M19.8401 11.9642H28.4221C28.4538 11.9642 28.4794 11.9899 28.4794 12.0215V19.1637C28.4794 21.5494 26.5454 23.4833 24.1598 23.4833V23.4833" stroke="#1C1B1F" stroke-width="2"/>
</svg>
