<svg width="33" height="33" viewBox="0 0 33 33" fill="none" xmlns="http://www.w3.org/2000/svg">
<path d="M20.96 12.283H27.96" stroke="#1C1B1F" stroke-width="2" stroke-linecap="round" stroke-linejoin="round"/>
<path d="M20.96 20.283H27.96" stroke="#1C1B1F" stroke-width="2" stroke-linecap="round" stroke-linejoin="round"/>
<path d="M9.95996 9.18582V5.28296C9.95996 4.73067 10.4077 4.28296 10.96 4.28296H26.96C27.5122 4.28296 27.96 4.73067 27.96 5.28296V27.283C27.96 27.8352 27.5122 28.283 26.96 28.283H10.96C10.4077 28.283 9.95996 27.8352 9.95996 27.283V23.331" stroke="#1C1B1F" stroke-width="2" stroke-linecap="round"/>
<path fill-rule="evenodd" clip-rule="evenodd" d="M6.95996 9.28296C6.40768 9.28296 5.95996 9.73067 5.95996 10.283V22.283C5.95996 22.8352 6.40768 23.283 6.95996 23.283H19.96C20.5122 23.283 20.96 22.8352 20.96 22.283V10.283C20.96 9.73067 20.5122 9.28296 19.96 9.28296H6.95996ZM17.9677 13.6488C18.1135 13.1161 17.7998 12.5661 17.267 12.4203C16.7343 12.2746 16.1843 12.5883 16.0386 13.121L15.1724 16.2871L14.3734 14.4117C13.9945 13.5223 12.735 13.5192 12.3516 14.4067L11.5973 16.153L10.8903 13.1553C10.7635 12.6178 10.225 12.2848 9.68744 12.4116C9.14991 12.5384 8.81692 13.0769 8.94369 13.6144L10.2747 19.2582C10.5179 20.2893 11.9351 20.4144 12.3552 19.4419L13.3557 17.1257L14.3461 19.4502C14.7547 20.4093 16.1439 20.3149 16.4191 19.3094L17.9677 13.6488Z" fill="#1C1B1F"/>
</svg>
