<svg width="33" height="33" viewBox="0 0 33 33" fill="none" xmlns="http://www.w3.org/2000/svg">
<path fill-rule="evenodd" clip-rule="evenodd" d="M16.9602 4.78296C14.4112 4.78296 12.3448 6.84934 12.3448 9.39834V16.783C12.3448 19.332 14.4112 21.3983 16.9602 21.3983C19.5092 21.3983 21.5756 19.332 21.5756 16.783V9.39834C21.5756 6.84934 19.5092 4.78296 16.9602 4.78296ZM8.59201 16.7123C9.14087 16.6508 9.6356 17.046 9.69701 17.5949C9.89691 19.3813 10.7482 21.0315 12.0881 22.2298C13.4251 23.4255 15.155 24.0878 16.9484 24.0907L16.9601 24.0906L16.9723 24.0907C18.7656 24.0877 20.4954 23.4255 21.8323 22.2298C23.1722 21.0315 24.0235 19.3813 24.2234 17.5949C24.2848 17.046 24.7795 16.6509 25.3284 16.7123C25.8772 16.7737 26.2724 17.2684 26.211 17.8173C25.9564 20.0926 24.8722 22.1943 23.1656 23.7206C21.709 25.0232 19.8863 25.8288 17.9601 26.0368V28.7829C17.9601 29.3352 17.5123 29.7829 16.9601 29.7829C16.4078 29.7829 15.9601 29.3352 15.9601 28.7829V26.0368C14.0339 25.8287 12.2113 25.0232 10.7548 23.7206C9.04824 22.1943 7.96401 20.0926 7.70942 17.8173C7.648 17.2684 8.04315 16.7737 8.59201 16.7123Z" fill="#1C1B1F"/>
</svg>
