<svg width="32" height="32" viewBox="0 0 32 32" fill="none" xmlns="http://www.w3.org/2000/svg">
<path fill-rule="evenodd" clip-rule="evenodd" d="M11.1464 0.917905C12.7616 0.385735 14.4411 0.119814 16.1208 0.120361C17.7607 0.120897 19.4008 0.375424 20.9812 0.884147C24.1804 1.91394 26.9705 3.93224 28.9497 6.64854C30.9114 9.34087 31.9763 12.5813 31.995 15.911C31.9976 15.9403 31.9989 15.97 31.9989 16C31.9989 16.03 31.9976 16.0596 31.995 16.089C31.9763 19.4186 30.9114 22.6591 28.9497 25.3514C26.9705 28.0677 24.1804 30.086 20.9812 31.1158C17.782 32.1456 14.3385 32.1338 11.1464 31.0821C7.93643 30.0244 4.73075 27.541 2.78166 24.8271C2.7477 24.7798 2.71846 24.7305 2.69384 24.6799H0.999999C0.447714 24.6799 0 24.2322 0 23.6799V8.32034C0 7.76806 0.447715 7.32034 1 7.32034H2.67288C2.6924 7.28466 2.71431 7.24977 2.73864 7.21589C4.68669 4.50343 7.93488 1.97603 11.1464 0.917905ZM5.21113 7.32034H15.1195C15.1195 7.3203 15.1195 7.32025 15.1195 7.3202V2.15615C13.9874 2.2376 12.863 2.45807 11.7722 2.81746C9.41525 3.59404 6.95567 5.33745 5.21113 7.32034ZM17.1195 7.32034H17.5995C18.1518 7.32034 18.5995 7.76806 18.5995 8.32034V15H29.9592C29.7726 12.4169 28.8662 9.93016 27.3333 7.82633C25.6033 5.45214 23.1647 3.68804 20.3684 2.78795C19.3082 2.4467 18.2174 2.23631 17.1195 2.1567V7.3202C17.1195 7.32025 17.1195 7.3203 17.1195 7.32034ZM18.5995 17V23.6799C18.5995 24.2322 18.1518 24.6799 17.5995 24.6799H17.1195V29.8433C18.2174 29.7636 19.3082 29.5533 20.3684 29.212C23.1647 28.3119 25.6033 26.5478 27.3333 24.1736C28.8662 22.0698 29.7726 19.583 29.9592 17H18.5995ZM15.1195 24.6799H5.21641C6.95315 26.6695 9.39814 28.4003 11.7722 29.1825C12.863 29.5419 13.9874 29.7624 15.1195 29.8438V24.6799ZM5.81994 12.0954C5.81994 11.5294 6.27871 11.0707 6.84462 11.0707H9.23235C11.1916 11.0707 12.7798 12.6589 12.7798 14.6181V14.6857C12.7798 16.6076 11.2218 18.1656 9.29988 18.1656H7.81994V19.9295C7.81994 20.4817 7.37223 20.9295 6.81994 20.9295C6.26766 20.9295 5.81994 20.4817 5.81994 19.9295V17.1656V12.0954ZM7.81994 16.1656H9.29988C10.1172 16.1656 10.7798 15.503 10.7798 14.6857V14.6181C10.7798 13.7635 10.087 13.0707 9.23235 13.0707H7.81994V16.1656Z" fill="#111827"/>
</svg>
