<svg width="33" height="33" viewBox="0 0 33 33" fill="none" xmlns="http://www.w3.org/2000/svg">
<path d="M20.9602 12.283H27.9602" stroke="#1C1B1F" stroke-width="2" stroke-linecap="round" stroke-linejoin="round"/>
<path d="M20.9602 20.283H27.9602" stroke="#1C1B1F" stroke-width="2" stroke-linecap="round" stroke-linejoin="round"/>
<path d="M18.9602 23.283V28.283" stroke="#1C1B1F" stroke-width="2" stroke-linecap="round" stroke-linejoin="round"/>
<path d="M18.9602 4.28296V9.28296" stroke="#1C1B1F" stroke-width="2" stroke-linecap="round" stroke-linejoin="round"/>
<path fill-rule="evenodd" clip-rule="evenodd" d="M6.96021 9.28296C6.40792 9.28296 5.96021 9.73067 5.96021 10.283V22.283C5.96021 22.8352 6.40792 23.283 6.96021 23.283H19.9602C20.5125 23.283 20.9602 22.8352 20.9602 22.283V10.283C20.9602 9.73067 20.5125 9.28296 19.9602 9.28296H6.96021ZM10.6102 12.483C11.052 12.1516 11.6788 12.2411 12.0102 12.683L13.4602 14.6163L14.9102 12.683C15.2416 12.2411 15.8684 12.1516 16.3102 12.483C16.752 12.8143 16.8416 13.4411 16.5102 13.883L14.7102 16.283L16.5102 18.683C16.8416 19.1248 16.752 19.7516 16.3102 20.083C15.8684 20.4143 15.2416 20.3248 14.9102 19.883L13.4602 17.9496L12.0102 19.883C11.6788 20.3248 11.052 20.4143 10.6102 20.083C10.1684 19.7516 10.0788 19.1248 10.4102 18.683L12.2102 16.283L10.4102 13.883C10.0788 13.4411 10.1684 12.8143 10.6102 12.483Z" fill="#1C1B1F"/>
<path d="M9.96021 9.18582V5.28296C9.96021 4.73067 10.4079 4.28296 10.9602 4.28296H26.9602C27.5125 4.28296 27.9602 4.73067 27.9602 5.28296V27.283C27.9602 27.8352 27.5125 28.283 26.9602 28.283H10.9602C10.4079 28.283 9.96021 27.8352 9.96021 27.283V23.331" stroke="#1C1B1F" stroke-width="2" stroke-linecap="round"/>
</svg>
