<svg width="33" height="33" viewBox="0 0 33 33" fill="none" xmlns="http://www.w3.org/2000/svg">
<path d="M20.96 12.4244H27.96" stroke="#1C1B1F" stroke-width="2" stroke-linecap="round" stroke-linejoin="round"/>
<path d="M20.96 20.4244H27.96" stroke="#1C1B1F" stroke-width="2" stroke-linecap="round" stroke-linejoin="round"/>
<path d="M9.95996 9.32729V5.42444C9.95996 4.87215 10.4077 4.42444 10.96 4.42444H26.96C27.5122 4.42444 27.96 4.87215 27.96 5.42444V27.4244C27.96 27.9767 27.5122 28.4244 26.96 28.4244H10.96C10.4077 28.4244 9.95996 27.9767 9.95996 27.4244V23.4725" stroke="#1C1B1F" stroke-width="2" stroke-linecap="round"/>
<path fill-rule="evenodd" clip-rule="evenodd" d="M6.95996 9.42444C6.40768 9.42444 5.95996 9.87215 5.95996 10.4244V22.4244C5.95996 22.9767 6.40768 23.4244 6.95996 23.4244H19.96C20.5122 23.4244 20.96 22.9767 20.96 22.4244V10.4244C20.96 9.87215 20.5122 9.42444 19.96 9.42444H6.95996ZM17.9677 13.7903C18.1135 13.2575 17.7998 12.7076 17.267 12.5618C16.7343 12.4161 16.1843 12.7298 16.0386 13.2625L15.1724 16.4286L14.3734 14.5532C13.9945 13.6638 12.735 13.6607 12.3516 14.5481L11.5973 16.2945L10.8903 13.2968C10.7635 12.7593 10.225 12.4263 9.68744 12.5531C9.14991 12.6798 8.81692 13.2184 8.94369 13.7559L10.2747 19.3996C10.5179 20.4308 11.9351 20.5559 12.3552 19.5834L13.3557 17.2671L14.3461 19.5917C14.7547 20.5508 16.1439 20.4564 16.4191 19.4508L17.9677 13.7903Z" fill="#1C1B1F"/>
</svg>
