<svg width="32" height="33" viewBox="0 0 32 33" fill="none" xmlns="http://www.w3.org/2000/svg">
<path fill-rule="evenodd" clip-rule="evenodd" d="M0.999756 6.92847C0.447471 6.92847 -0.000244141 7.37618 -0.000244141 7.92847V25.0716C-0.000244141 25.6239 0.447471 26.0716 0.999756 26.0716H31.0002C31.5525 26.0716 32.0002 25.6239 32.0002 25.0716V7.92847C32.0002 7.37618 31.5525 6.92847 31.0002 6.92847H0.999756ZM1.99976 14.5536V18.4467L8.42815 24.0716H23.5714L30.0002 18.4464V14.5535L23.5716 8.92847H8.42846L1.99976 14.5536ZM20.2857 16.4997C20.2857 18.8666 18.3669 20.7854 15.9999 20.7854C13.6329 20.7854 11.7141 18.8666 11.7141 16.4997C11.7141 14.1327 13.6329 12.2139 15.9999 12.2139C18.3669 12.2139 20.2857 14.1327 20.2857 16.4997Z" fill="#111827"/>
</svg>
