<svg width="32" height="32" viewBox="0 0 32 32" fill="none" xmlns="http://www.w3.org/2000/svg">
<path fill-rule="evenodd" clip-rule="evenodd" d="M0.999756 6.42847C0.447471 6.42847 -0.000244141 6.87618 -0.000244141 7.42847V24.5716C-0.000244141 25.1239 0.447471 25.5716 0.999756 25.5716H31.0002C31.5525 25.5716 32.0002 25.1239 32.0002 24.5716V7.42847C32.0002 6.87618 31.5525 6.42847 31.0002 6.42847H0.999756ZM1.99976 14.0536V17.9467L8.42815 23.5716H23.5714L30.0002 17.9464V14.0535L23.5716 8.42847H8.42846L1.99976 14.0536ZM20.2857 15.9997C20.2857 18.3666 18.3669 20.2854 15.9999 20.2854C13.6329 20.2854 11.7141 18.3666 11.7141 15.9997C11.7141 13.6327 13.6329 11.7139 15.9999 11.7139C18.3669 11.7139 20.2857 13.6327 20.2857 15.9997Z" fill="#111827"/>
</svg>
