<svg width="32" height="33" viewBox="0 0 32 33" fill="none" xmlns="http://www.w3.org/2000/svg">
<path d="M13.7622 7.38943C14.8442 6.18835 15.7611 4.98728 15.9628 4.72991C15.9812 4.71275 16.0178 4.71275 16.0362 4.72991C16.2196 4.98728 17.1548 6.18835 18.2368 7.38943C27.4795 18.4221 16.7881 25.8688 16.7881 25.8688L16.6964 25.9203C16.623 27.0699 16.4213 28.717 16.4213 28.717H16.0178H15.6144C15.6144 28.717 15.4127 27.0699 15.3393 25.9203L15.2476 25.8516C15.2109 25.8688 4.51951 18.4221 13.7622 7.38943ZM15.9995 25.6972C15.9995 25.6972 16.4763 25.3197 16.6047 25.1138V25.0967L16.0178 13.0859C16.0178 13.0516 15.9628 13.0516 15.9628 13.0859L15.376 25.0967V25.1138C15.5044 25.3197 15.9995 25.6972 15.9995 25.6972Z" fill="#1C1B1F"/>
</svg>
