<svg width="32" height="33" viewBox="0 0 32 33" fill="none" xmlns="http://www.w3.org/2000/svg">
<path d="M13.7622 7.53091C14.8442 6.32983 15.7611 5.12876 15.9628 4.87139C15.9812 4.85423 16.0178 4.85423 16.0362 4.87139C16.2196 5.12876 17.1548 6.32983 18.2368 7.53091C27.4795 18.5636 16.7881 26.0103 16.7881 26.0103L16.6964 26.0617C16.623 27.2113 16.4213 28.8585 16.4213 28.8585H16.0178H15.6144C15.6144 28.8585 15.4127 27.2113 15.3393 26.0617L15.2476 25.9931C15.2109 26.0103 4.51951 18.5636 13.7622 7.53091ZM15.9995 25.8387C15.9995 25.8387 16.4763 25.4612 16.6047 25.2553V25.2381L16.0178 13.2274C16.0178 13.1931 15.9628 13.1931 15.9628 13.2274L15.376 25.2381V25.2553C15.5044 25.4612 15.9995 25.8387 15.9995 25.8387Z" fill="#1C1B1F"/>
</svg>
