<svg width="33" height="33" viewBox="0 0 33 33" fill="none" xmlns="http://www.w3.org/2000/svg">
<path d="M13.0162 3.99726C14.4589 2.39583 15.6815 0.794404 15.9504 0.45124C15.9749 0.428363 16.0238 0.428363 16.0482 0.45124C16.2927 0.794404 17.5398 2.39583 18.9824 3.99726C31.306 18.7075 17.0507 28.6364 17.0507 28.6364L16.9285 28.705C16.8307 30.2378 16.5617 32.4341 16.5617 32.4341H16.0238H15.4858C15.4858 32.4341 15.2169 30.2378 15.1191 28.705L14.9968 28.6135C14.9479 28.6364 0.692684 18.7075 13.0162 3.99726ZM15.9993 28.4076C15.9993 28.4076 16.6351 27.9043 16.8062 27.6298V27.6069L16.0238 11.5926C16.0238 11.5469 15.9504 11.5469 15.9504 11.5926L15.168 27.6069V27.6298C15.3391 27.9043 15.9993 28.4076 15.9993 28.4076Z" fill="#111827"/>
</svg>
