<svg width="32" height="32" viewBox="0 0 32 32" fill="none" xmlns="http://www.w3.org/2000/svg">
<path fill-rule="evenodd" clip-rule="evenodd" d="M0 1.83325C0 1.28097 0.447715 0.833252 1 0.833252H31C31.5523 0.833252 32 1.28097 32 1.83325V23.8333C32 24.3855 31.5523 24.8333 31 24.8333H1C0.447715 24.8333 0 24.3855 0 23.8333V1.83325ZM20.429 12.8333L11.5716 17.9472V7.71948L20.429 12.8333ZM10.6667 29.1666C10.1144 29.1666 9.66667 29.6143 9.66667 30.1666C9.66667 30.7189 10.1144 31.1666 10.6667 31.1666H21.3333C21.8856 31.1666 22.3333 30.7189 22.3333 30.1666C22.3333 29.6143 21.8856 29.1666 21.3333 29.1666H10.6667Z" fill="#111827"/>
</svg>
