<svg width="33" height="33" viewBox="0 0 33 33" fill="none" xmlns="http://www.w3.org/2000/svg">
<path fill-rule="evenodd" clip-rule="evenodd" d="M5.95996 5.2829C5.40768 5.2829 4.95996 5.73061 4.95996 6.2829V22.2829C4.95996 22.8352 5.40768 23.2829 5.95996 23.2829H27.96C28.5122 23.2829 28.96 22.8352 28.96 22.2829V6.2829C28.96 5.73061 28.5122 5.2829 27.96 5.2829H5.95996ZM12.96 26.283C12.4077 26.283 11.96 26.7307 11.96 27.283C11.96 27.8352 12.4077 28.283 12.96 28.283H20.96C21.5122 28.283 21.96 27.8352 21.96 27.283C21.96 26.7307 21.5122 26.283 20.96 26.283H12.96Z" fill="#1C1B1F"/>
</svg>
