<svg width="32" height="33" viewBox="0 0 32 33" fill="none" xmlns="http://www.w3.org/2000/svg">
<path fill-rule="evenodd" clip-rule="evenodd" d="M21.055 2.10815C21.055 1.55587 20.6073 1.10815 20.055 1.10815C19.5028 1.10815 19.055 1.55587 19.055 2.10815V3.5405H17.6227C17.0704 3.5405 16.6227 3.98821 16.6227 4.5405C16.6227 5.09278 17.0704 5.5405 17.6227 5.5405H19.055V6.97255C19.055 7.52483 19.5028 7.97255 20.055 7.97255C20.6073 7.97255 21.055 7.52483 21.055 6.97255V5.5405H22.4871C23.0394 5.5405 23.4871 5.09278 23.4871 4.5405C23.4871 3.98821 23.0394 3.5405 22.4871 3.5405H21.055V2.10815ZM23.7031 10.8368C23.1508 10.8368 22.7031 11.2845 22.7031 11.8368C22.7031 12.3891 23.1508 12.8368 23.7031 12.8368H30.9997C31.5519 12.8368 31.9997 12.3891 31.9997 11.8368C31.9997 11.2845 31.5519 10.8368 30.9997 10.8368H23.7031ZM26.5963 21.8694C26.9774 21.7882 27.3212 22.1361 27.1931 22.5041C26.49 24.5243 25.3313 26.3603 23.8022 27.8674C22.0619 29.5826 19.9026 30.8119 17.5394 31.4329C15.1762 32.0539 12.6915 32.0449 10.3329 31.4068C7.97423 30.7687 5.82392 29.5238 4.09615 27.796C2.36837 26.0682 1.12343 23.9179 0.485317 21.5592C-0.152794 19.2006 -0.161799 16.7159 0.459197 14.3527C1.08019 11.9895 2.30952 9.83022 4.02473 8.08997C5.53182 6.56086 7.36782 5.40216 9.38805 4.69902C9.75603 4.57095 10.1039 4.91471 10.0227 5.2958C9.56964 7.42313 9.61873 9.63125 10.1715 11.7433C10.7994 14.1422 12.0546 16.3307 13.808 18.0842C15.5614 19.8376 17.7499 21.0927 20.1488 21.7206C22.2609 22.2734 24.469 22.3225 26.5963 21.8694Z" fill="#111827"/>
</svg>
