<svg width="33" height="33" viewBox="0 0 33 33" fill="none" xmlns="http://www.w3.org/2000/svg">
<path d="M28.6911 20.6827C28.8225 20.3159 28.4791 19.9676 28.0973 20.0453C26.2716 20.4167 24.3811 20.3662 22.5712 19.8924C20.4744 19.3436 18.5615 18.2466 17.0289 16.714C15.4963 15.1814 14.3993 13.2685 13.8505 11.1717C13.3768 9.36184 13.3262 7.47127 13.6976 5.64566C13.7753 5.26384 13.427 4.92038 13.0602 5.05182C11.336 5.66968 9.76883 6.66859 8.47781 7.97847C6.97862 9.49955 5.90411 11.3869 5.36133 13.4525C4.81854 15.5181 4.82641 17.6898 5.38416 19.7514C5.9419 21.813 7.03006 23.6925 8.54024 25.2027C10.0504 26.7129 11.9299 27.801 13.9915 28.3588C16.0531 28.9165 18.2249 28.9244 20.2904 28.3816C22.356 27.8388 24.2434 26.7643 25.7645 25.2651C27.0743 23.9741 28.0732 22.4069 28.6911 20.6827Z" fill="#1C1B1F"/>
</svg>
