<svg width="32" height="33" viewBox="0 0 32 33" fill="none" xmlns="http://www.w3.org/2000/svg">
<path d="M31.7388 21.4202C31.8636 21.0511 31.5195 20.7035 31.1391 20.7881C28.6158 21.3494 25.9906 21.3027 23.4817 20.646C20.686 19.9142 18.1354 18.4515 16.092 16.408C14.0485 14.3646 12.5858 11.814 11.854 9.01834C11.1973 6.50939 11.1506 3.88415 11.7119 1.36086C11.7965 0.980514 11.4489 0.636442 11.0798 0.761199C8.67069 1.57544 6.48132 2.94367 4.69046 4.76068C2.69154 6.78879 1.25887 9.30523 0.535154 12.0594C-0.188563 14.8135 -0.178068 17.7091 0.565594 20.4579C1.30926 23.2067 2.76013 25.7127 4.7737 27.7263C6.78727 29.7399 9.29326 31.1907 12.0421 31.9344C14.7909 32.6781 17.6865 32.6886 20.4406 31.9648C23.1948 31.2411 25.7112 29.8085 27.7393 27.8095C29.5563 26.0187 30.9246 23.8293 31.7388 21.4202Z" fill="#111827"/>
</svg>
