<svg width="33" height="33" viewBox="0 0 33 33" fill="none" xmlns="http://www.w3.org/2000/svg">
<path fill-rule="evenodd" clip-rule="evenodd" d="M20.4863 4.25366C21.0386 4.25366 21.4863 4.70138 21.4863 5.25366V6.13672H22.3695C22.9218 6.13672 23.3695 6.58443 23.3695 7.13672C23.3695 7.689 22.9218 8.13672 22.3695 8.13672H21.4863V9.01965C21.4863 9.57193 21.0386 10.0196 20.4863 10.0196C19.934 10.0196 19.4863 9.57193 19.4863 9.01965V8.13672H18.6035C18.0512 8.13672 17.6035 7.689 17.6035 7.13672C17.6035 6.58443 18.0512 6.13672 18.6035 6.13672H19.4863V5.25366C19.4863 4.70138 19.934 4.25366 20.4863 4.25366ZM22.311 12.7856C22.311 12.2334 22.7588 11.7856 23.311 11.7856H28.96C29.5123 11.7856 29.96 12.2334 29.96 12.7856C29.96 13.3379 29.5123 13.7856 28.96 13.7856H23.311C22.7588 13.7856 22.311 13.3379 22.311 12.7856ZM25.3543 20.5927C25.7368 20.5187 26.0799 20.8673 25.9451 21.2329C25.3955 22.7226 24.5235 24.0767 23.3875 25.1964C22.0402 26.5243 20.3685 27.4761 18.5389 27.9569C16.7093 28.4376 14.7857 28.4307 12.9596 27.9366C11.1336 27.4426 9.46881 26.4788 8.13118 25.1411C6.79354 23.8035 5.82971 22.1388 5.33569 20.3127C4.84167 18.4866 4.8347 16.563 5.31547 14.7334C5.79624 12.9038 6.74798 11.2322 8.07588 9.88486C9.19557 8.74882 10.5498 7.87685 12.0395 7.32724C12.405 7.19237 12.7537 7.53551 12.6796 7.91804C12.3724 9.5042 12.4237 11.143 12.8347 12.7133C13.3208 14.5705 14.2925 16.2648 15.65 17.6223C17.0075 18.9798 18.7019 19.9515 20.5591 20.4376C22.1293 20.8486 23.7681 20.9 25.3543 20.5927Z" fill="#1C1B1F"/>
</svg>
