<svg width="32" height="33" viewBox="0 0 32 33" fill="none" xmlns="http://www.w3.org/2000/svg">
<path fill-rule="evenodd" clip-rule="evenodd" d="M19.3698 8.19872C19.3698 7.34036 20.0656 6.64453 20.924 6.64453C21.7823 6.64453 22.4782 7.34036 22.4782 8.19872C22.4782 9.05707 21.7823 9.7529 20.924 9.7529C20.0656 9.7529 19.3698 9.05707 19.3698 8.19872ZM20.924 4.64453C18.9611 4.64453 17.3698 6.23579 17.3698 8.19872C17.3698 10.1616 18.9611 11.7529 20.924 11.7529C22.8869 11.7529 24.4782 10.1616 24.4782 8.19872C24.4782 6.23579 22.8869 4.64453 20.924 4.64453ZM11.2182 12.6395L14.5088 17.9045H7.92757L11.2182 12.6395ZM11.2182 9.75265C11.563 9.75265 11.8835 9.93027 12.0662 10.2226L19.1122 21.4964L23.1887 14.974C23.3845 14.6606 23.8409 14.6606 24.0367 14.974L31.9219 27.5903C32.13 27.9234 31.8906 28.3553 31.4979 28.3553H20.5757L20.4714 28.0995H1.00147C0.637941 28.0995 0.303049 27.9023 0.126824 27.5843C-0.0494023 27.2664 -0.0392014 26.8778 0.153465 26.5695L10.3702 10.2226C10.5529 9.93027 10.8734 9.75265 11.2182 9.75265Z" fill="#111827"/>
</svg>
