<svg width="33" height="33" viewBox="0 0 33 33" fill="none" xmlns="http://www.w3.org/2000/svg">
<path fill-rule="evenodd" clip-rule="evenodd" d="M19.7905 10.2746C19.7905 9.70361 20.2534 9.24072 20.8244 9.24072C21.3954 9.24072 21.8583 9.70361 21.8583 10.2746C21.8583 10.8456 21.3954 11.3085 20.8244 11.3085C20.2534 11.3085 19.7905 10.8456 19.7905 10.2746ZM20.8244 7.24072C19.1489 7.24072 17.7905 8.59905 17.7905 10.2746C17.7905 11.9502 19.1489 13.3085 20.8244 13.3085C22.5 13.3085 23.8583 11.9502 23.8583 10.2746C23.8583 8.59905 22.5 7.24072 20.8244 7.24072ZM13.0956 14.1952L15.4757 18.0034H10.7154L13.0956 14.1952ZM13.0956 11.3083C13.4403 11.3083 13.7608 11.486 13.9436 11.7784L19.5017 20.6714L22.5413 15.808C22.7371 15.4947 23.1934 15.4947 23.3893 15.808L29.4845 25.5604C29.6926 25.8935 29.4532 26.3254 29.0605 26.3254H20.5469L20.5469 26.3254H4.95996C4.59644 26.3254 4.26155 26.1281 4.08532 25.8102C3.90909 25.4922 3.91929 25.1037 4.11196 24.7954L12.2476 11.7784C12.4303 11.486 12.7508 11.3083 13.0956 11.3083Z" fill="#1C1B1F"/>
</svg>
