<svg width="33" height="33" viewBox="0 0 33 33" fill="none" xmlns="http://www.w3.org/2000/svg">
<path fill-rule="evenodd" clip-rule="evenodd" d="M8.77344 12.283C8.77344 7.86468 12.3552 4.28296 16.7734 4.28296H17.1461C21.5644 4.28296 25.1461 7.86468 25.1461 12.283V13.283H8.77344V12.283ZM8.77344 15.283H25.1461V20.283C25.1461 24.7012 21.5644 28.283 17.1461 28.283H16.7734C12.3552 28.283 8.77344 24.7012 8.77344 20.283V15.283ZM17.96 7.61084C17.96 7.05856 17.5122 6.61084 16.96 6.61084C16.4077 6.61084 15.96 7.05855 15.96 7.61084L15.96 10.9549C15.96 11.5072 16.4077 11.9549 16.96 11.9549C17.5122 11.9549 17.96 11.5072 17.96 10.9549L17.96 7.61084Z" fill="#1C1B1F"/>
</svg>
