<svg width="32" height="32" viewBox="0 0 32 32" fill="none" xmlns="http://www.w3.org/2000/svg">
<path fill-rule="evenodd" clip-rule="evenodd" d="M16.0001 0C9.97181 0 5.08496 4.88685 5.08496 10.9151V21.0849C5.08496 27.1131 9.97181 32 16.0001 32C22.0283 32 26.9151 27.1131 26.9151 21.0849V10.9151C26.9151 4.88686 22.0283 0 16.0001 0ZM17.0003 4.43717C17.0003 3.88489 16.5526 3.43717 16.0003 3.43717C15.448 3.43717 15.0003 3.88489 15.0003 4.43717L15.0003 8.89598C15.0003 9.44827 15.448 9.89598 16.0003 9.89598C16.5526 9.89598 17.0003 9.44827 17.0003 8.89598L17.0003 4.43717Z" fill="#111827"/>
</svg>
