<svg width="32" height="32" viewBox="0 0 32 32" fill="none" xmlns="http://www.w3.org/2000/svg">
<path fill-rule="evenodd" clip-rule="evenodd" d="M1.00049 0.000366211C0.448204 0.000366211 0.000488281 0.448081 0.000488281 1.00037V30.9996C0.000488281 31.5519 0.448204 31.9996 1.00049 31.9996H15.2772C15.8295 31.9996 16.2772 31.5519 16.2772 30.9996C16.2772 30.4473 15.8295 29.9996 15.2772 29.9996H2.00049V2.00037H29.9997V14.8588C29.9997 15.4111 30.4474 15.8588 30.9997 15.8588C31.552 15.8588 31.9997 15.4111 31.9997 14.8588V1.00037C31.9997 0.448081 31.552 0.000366211 30.9997 0.000366211H1.00049ZM15.9606 16L31.9995 20.8148L24.3754 24.3956L20.7732 31.9971L15.9606 16Z" fill="#111827"/>
</svg>
