<svg width="32" height="32" viewBox="0 0 32 32" fill="none" xmlns="http://www.w3.org/2000/svg">
<path fill-rule="evenodd" clip-rule="evenodd" d="M1.00049 0.000366211C0.448204 0.000366211 0.000488281 0.448081 0.000488281 1.00037V2.87532C0.000488281 3.4276 0.448204 3.87532 1.00049 3.87532C1.55277 3.87532 2.00049 3.4276 2.00049 2.87532V2.00037H2.87544C3.42773 2.00037 3.87544 1.55265 3.87544 1.00037C3.87544 0.448081 3.42773 0.000366211 2.87544 0.000366211H1.00049ZM6.62534 0.000366211C6.07306 0.000366211 5.62534 0.448081 5.62534 1.00037C5.62534 1.55265 6.07306 2.00037 6.62534 2.00037H10.3752C10.9275 2.00037 11.3752 1.55265 11.3752 1.00037C11.3752 0.448081 10.9275 0.000366211 10.3752 0.000366211H6.62534ZM14.1252 0.000366211C13.5729 0.000366211 13.1252 0.448081 13.1252 1.00037C13.1252 1.55265 13.5729 2.00037 14.1252 2.00037H17.8751C18.4273 2.00037 18.8751 1.55265 18.8751 1.00037C18.8751 0.448081 18.4273 0.000366211 17.8751 0.000366211H14.1252ZM21.625 0.000366211C21.0727 0.000366211 20.625 0.448081 20.625 1.00037C20.625 1.55265 21.0727 2.00037 21.625 2.00037H25.3749C25.9272 2.00037 26.3749 1.55265 26.3749 1.00037C26.3749 0.448081 25.9272 0.000366211 25.3749 0.000366211H21.625ZM29.1248 0.000366211C28.5725 0.000366211 28.1248 0.448081 28.1248 1.00037C28.1248 1.55265 28.5725 2.00037 29.1248 2.00037H29.9997V2.73267C29.9997 3.28496 30.4474 3.73267 30.9997 3.73267C31.552 3.73267 31.9997 3.28496 31.9997 2.73267V1.00037C31.9997 0.448081 31.552 0.000366211 30.9997 0.000366211H29.1248ZM31.9997 6.19729C31.9997 5.645 31.552 5.19729 30.9997 5.19729C30.4474 5.19729 29.9997 5.645 29.9997 6.19729V9.6619C29.9997 10.2142 30.4474 10.6619 30.9997 10.6619C31.552 10.6619 31.9997 10.2142 31.9997 9.6619V6.19729ZM2.00049 6.62522C2.00049 6.07294 1.55277 5.62522 1.00049 5.62522C0.448204 5.62522 0.000488281 6.07294 0.000488281 6.62522V10.3751C0.000488281 10.9274 0.448204 11.3751 1.00049 11.3751C1.55277 11.3751 2.00049 10.9274 2.00049 10.3751V6.62522ZM31.9997 13.1265C31.9997 12.5742 31.552 12.1265 30.9997 12.1265C30.4474 12.1265 29.9997 12.5742 29.9997 13.1265V14.8588C29.9997 15.4111 30.4474 15.8588 30.9997 15.8588C31.552 15.8588 31.9997 15.4111 31.9997 14.8588V13.1265ZM2.00049 14.125C2.00049 13.5727 1.55277 13.125 1.00049 13.125C0.448204 13.125 0.000488281 13.5727 0.000488281 14.125V17.8749C0.000488281 18.4272 0.448204 18.8749 1.00049 18.8749C1.55277 18.8749 2.00049 18.4272 2.00049 17.8749V14.125ZM2.00049 21.6248C2.00049 21.0726 1.55277 20.6248 1.00049 20.6248C0.448204 20.6248 0.000488281 21.0726 0.000488281 21.6248V25.3747C0.000488281 25.927 0.448204 26.3747 1.00049 26.3747C1.55277 26.3747 2.00049 25.927 2.00049 25.3747V21.6248ZM2.00049 29.1246C2.00049 28.5724 1.55277 28.1246 1.00049 28.1246C0.448204 28.1246 0.000488281 28.5724 0.000488281 29.1246V30.9996C0.000488281 31.5519 0.448204 31.9996 1.00049 31.9996H2.78507C3.33736 31.9996 3.78507 31.5519 3.78507 30.9996C3.78507 30.4473 3.33736 29.9996 2.78507 29.9996H2.00049V29.1246ZM6.35425 29.9996C5.80196 29.9996 5.35425 30.4473 5.35425 30.9996C5.35425 31.5519 5.80196 31.9996 6.35425 31.9996H9.92342C10.4757 31.9996 10.9234 31.5519 10.9234 30.9996C10.9234 30.4473 10.4757 29.9996 9.92342 29.9996H6.35425ZM13.4926 29.9996C12.9403 29.9996 12.4926 30.4473 12.4926 30.9996C12.4926 31.5519 12.9403 31.9996 13.4926 31.9996H15.2772C15.8295 31.9996 16.2772 31.5519 16.2772 30.9996C16.2772 30.4473 15.8295 29.9996 15.2772 29.9996H13.4926ZM15.9606 16L32.0021 20.8155L24.3768 24.3969L20.774 31.9996L15.9606 16Z" fill="#111827"/>
</svg>
