<svg width="33" height="33" viewBox="0 0 33 33" fill="none" xmlns="http://www.w3.org/2000/svg">
<path d="M24.6408 24.9422C26.4968 24.9422 28.0013 23.4377 28.0013 21.5817C28.0013 19.7257 26.4968 18.2212 24.6408 18.2212C22.7848 18.2212 21.2803 19.7257 21.2803 21.5817C21.2803 23.4377 22.7848 24.9422 24.6408 24.9422Z" fill="#1C1B1F" stroke="#1C1B1F" stroke-width="2" stroke-linecap="round" stroke-linejoin="round"/>
<path d="M9.27849 28.7831C11.1345 28.7831 12.639 27.2785 12.639 25.4225C12.639 23.5666 11.1345 22.062 9.27849 22.062C7.42253 22.062 5.91797 23.5666 5.91797 25.4225C5.91797 27.2785 7.42253 28.7831 9.27849 28.7831Z" fill="#1C1B1F" stroke="#1C1B1F" stroke-width="2" stroke-linecap="round" stroke-linejoin="round"/>
<path d="M12.6392 25.4775L12.6392 8.79323L28.0016 4.78296V21.3972" stroke="#1C1B1F" stroke-width="2" stroke-linecap="round" stroke-linejoin="round"/>
</svg>
