<svg width="32" height="33" viewBox="0 0 32 33" fill="none" xmlns="http://www.w3.org/2000/svg">
<path fill-rule="evenodd" clip-rule="evenodd" d="M15.2621 0.544603C14.9586 0.450239 14.6283 0.505796 14.3723 0.694264C14.1164 0.882732 13.9652 1.18166 13.9652 1.49952V20.9979C12.7487 19.7892 11.0727 19.0422 9.22228 19.0422C5.50589 19.0422 2.49316 22.055 2.49316 25.7713C2.49316 29.4877 5.50589 32.5005 9.22228 32.5005C12.7636 32.5005 15.6661 29.7648 15.9316 26.2915C15.9535 26.2091 15.9652 26.1226 15.9652 26.0333V2.85762L28.2101 6.66441C28.7374 6.82837 29.2979 6.53375 29.4618 6.00636C29.6258 5.47898 29.3312 4.91853 28.8038 4.75457L15.2621 0.544603Z" fill="#111827"/>
</svg>
