<svg width="32" height="33" viewBox="0 0 32 33" fill="none" xmlns="http://www.w3.org/2000/svg">
<path fill-rule="evenodd" clip-rule="evenodd" d="M29.8896 0.708136C30.1347 0.897495 30.2783 1.18976 30.2783 1.49952V22.96C30.2783 23.0464 30.2673 23.1302 30.2467 23.2101C30.2405 25.6022 28.2995 27.5394 25.906 27.5394C23.5086 27.5394 21.5652 25.596 21.5652 23.1986C21.5652 20.8013 23.5086 18.8578 25.906 18.8578C26.7814 18.8578 27.5964 19.117 28.2783 19.5628V9.14449L10.4347 13.5161V28.2306C10.4347 28.3379 10.4178 28.4413 10.3865 28.5383C10.1947 30.7584 8.33179 32.5005 6.06197 32.5005C3.66462 32.5005 1.72119 30.5571 1.72119 28.1597C1.72119 25.7624 3.66462 23.819 6.06197 23.819C6.93763 23.819 7.75274 24.0783 8.43469 24.5242V6.67957C8.43469 6.22456 8.74186 5.82692 9.18211 5.71199L29.0257 0.531945C29.3254 0.453707 29.6444 0.518776 29.8896 0.708136Z" fill="#111827"/>
</svg>
