<svg width="32" height="33" viewBox="0 0 32 33" fill="none" xmlns="http://www.w3.org/2000/svg">
<path fill-rule="evenodd" clip-rule="evenodd" d="M30.3213 1.49952C30.3213 1.18986 30.1779 0.897673 29.9328 0.708305C29.6878 0.518938 29.3689 0.453757 29.0693 0.531805L9.12509 5.7263C8.68457 5.84104 8.37713 6.23881 8.37713 6.69402V24.48C7.70021 24.0462 6.89528 23.7947 6.0316 23.7947C3.62757 23.7947 1.67871 25.7435 1.67871 28.1476C1.67871 30.5516 3.62757 32.5005 6.0316 32.5005C8.43564 32.5005 10.3845 30.5516 10.3845 28.1476C10.3845 28.0619 10.382 27.9768 10.3771 27.8924V7.46693L28.3213 2.79333V19.534C27.6352 19.0823 26.8137 18.8195 25.9309 18.8195C23.5269 18.8195 21.578 20.7684 21.578 23.1724C21.578 25.5764 23.5269 27.5253 25.9309 27.5253C28.2928 27.5253 30.2153 25.6442 30.282 23.2985C30.3076 23.21 30.3213 23.1166 30.3213 23.0199V1.49952Z" fill="#111827"/>
</svg>
