<svg width="33" height="33" viewBox="0 0 33 33" fill="none" xmlns="http://www.w3.org/2000/svg">
<path fill-rule="evenodd" clip-rule="evenodd" d="M27.0801 4.78296C27.0801 4.23067 26.6324 3.78296 26.0801 3.78296C25.5278 3.78296 25.0801 4.23067 25.0801 4.78296V6.66309H23.2002C22.6479 6.66309 22.2002 7.1108 22.2002 7.66309C22.2002 8.21537 22.6479 8.66309 23.2002 8.66309H25.0801V10.543C25.0801 11.0953 25.5278 11.543 26.0801 11.543C26.6324 11.543 27.0801 11.0953 27.0801 10.543V8.66309H28.9602C29.5125 8.66309 29.9602 8.21537 29.9602 7.66309C29.9602 7.1108 29.5125 6.66309 28.9602 6.66309H27.0801V4.78296Z" fill="#1C1B1F"/>
<path fill-rule="evenodd" clip-rule="evenodd" d="M11.68 14.2061V8.69742L18.4394 6.92139C18.8725 9.43878 19.5966 10.3811 21.172 11.7996L11.68 14.2061ZM23.6798 24.9239C25.5355 24.9239 27.0398 23.4121 27.0398 21.5473C27.0398 19.6824 25.5355 18.1707 23.6798 18.1707C21.8242 18.1707 20.3198 19.6824 20.3198 21.5473C20.3198 23.4121 21.8242 24.9239 23.6798 24.9239ZM8.31997 28.783C10.1756 28.783 11.68 27.2713 11.68 25.4064C11.68 23.5416 10.1756 22.0298 8.31997 22.0298C6.46429 22.0298 4.95996 23.5416 4.95996 25.4064C4.95996 27.2713 6.46429 28.783 8.31997 28.783Z" fill="#1C1B1F"/>
<path d="M11.68 8.69742L11.4259 7.73025C10.9864 7.84573 10.68 8.24301 10.68 8.69742H11.68ZM11.68 14.2061H10.68C10.68 14.5146 10.8224 14.8058 11.0659 14.9953C11.3094 15.1847 11.6267 15.2512 11.9257 15.1754L11.68 14.2061ZM18.4394 6.92139L19.425 6.75183C19.3774 6.47564 19.2162 6.23207 18.9805 6.08043C18.7449 5.92878 18.4564 5.883 18.1853 5.95421L18.4394 6.92139ZM21.172 11.7996L21.4178 12.7689C21.7755 12.6782 22.0542 12.3979 22.1428 12.0396C22.2314 11.6813 22.1154 11.3034 21.8411 11.0564L21.172 11.7996ZM10.68 25.4616C10.68 26.0139 11.1277 26.4616 11.68 26.4616C12.2323 26.4616 12.68 26.0139 12.68 25.4616H10.68ZM11.68 14.2061H12.68C12.68 13.8975 12.5376 13.6063 12.2941 13.4168C12.0506 13.2274 11.7333 13.1609 11.4342 13.2367L11.68 14.2061ZM28.04 14.605C28.04 14.0528 27.5923 13.605 27.04 13.605C26.4877 13.605 26.04 14.0528 26.04 14.605H28.04ZM26.04 21.3617C26.04 21.914 26.4877 22.3617 27.04 22.3617C27.5923 22.3617 28.04 21.914 28.04 21.3617H26.04ZM11.43 13.2378C10.8947 13.3735 10.5707 13.9175 10.7064 14.4529C10.8422 14.9882 11.3862 15.3122 11.9215 15.1765L11.43 13.2378ZM10.68 8.69742V14.2061H12.68V8.69742H10.68ZM18.1853 5.95421L11.4259 7.73025L11.9341 9.66459L18.6936 7.88856L18.1853 5.95421ZM21.8411 11.0564C21.0714 10.3634 20.5895 9.85527 20.2372 9.26198C19.8889 8.67561 19.6294 7.94 19.425 6.75183L17.4539 7.09094C17.6826 8.42016 18.0016 9.41443 18.5175 10.2832C19.0294 11.1451 19.6972 11.8173 20.5029 12.5428L21.8411 11.0564ZM11.9257 15.1754L21.4178 12.7689L20.9263 10.8303L11.4342 13.2367L11.9257 15.1754ZM26.0398 21.5473C26.0398 22.8645 24.9786 23.9239 23.6798 23.9239V25.9239C26.0924 25.9239 28.0398 23.9598 28.0398 21.5473H26.0398ZM23.6798 19.1707C24.9786 19.1707 26.0398 20.23 26.0398 21.5473H28.0398C28.0398 19.1348 26.0924 17.1707 23.6798 17.1707V19.1707ZM21.3198 21.5473C21.3198 20.23 22.3811 19.1707 23.6798 19.1707V17.1707C21.2672 17.1707 19.3198 19.1348 19.3198 21.5473H21.3198ZM23.6798 23.9239C22.3811 23.9239 21.3198 22.8645 21.3198 21.5473H19.3198C19.3198 23.9598 21.2672 25.9239 23.6798 25.9239V23.9239ZM10.68 25.4064C10.68 26.7236 9.61872 27.783 8.31997 27.783V29.783C10.7326 29.783 12.68 27.8189 12.68 25.4064H10.68ZM8.31997 23.0298C9.61872 23.0298 10.68 24.0892 10.68 25.4064H12.68C12.68 22.9939 10.7326 21.0298 8.31997 21.0298V23.0298ZM5.95996 25.4064C5.95996 24.0892 7.02122 23.0298 8.31997 23.0298V21.0298C5.90736 21.0298 3.95996 22.9939 3.95996 25.4064H5.95996ZM8.31997 27.783C7.02122 27.783 5.95996 26.7236 5.95996 25.4064H3.95996C3.95996 27.8189 5.90736 29.783 8.31997 29.783V27.783ZM12.68 25.4616V14.2061H10.68V25.4616H12.68ZM26.04 14.605V21.3617H28.04V14.605H26.04ZM11.9215 15.1765L11.9258 15.1754L11.4342 13.2367L11.43 13.2378L11.9215 15.1765Z" fill="#1C1B1F"/>
</svg>
