<svg width="32" height="33" viewBox="0 0 32 33" fill="none" xmlns="http://www.w3.org/2000/svg">
<path fill-rule="evenodd" clip-rule="evenodd" d="M16.0095 0.671797C15.8495 0.563056 15.6562 0.499512 15.4482 0.499512C14.8959 0.499512 14.4482 0.947227 14.4482 1.49951V20.9652C13.2345 19.7757 11.5721 19.0422 9.7384 19.0422C6.02201 19.0422 3.00928 22.055 3.00928 25.7713C3.00928 29.4877 6.02201 32.5005 9.7384 32.5005C13.4548 32.5005 16.4675 29.4877 16.4675 25.7713C16.4675 25.5984 16.461 25.427 16.4482 25.2573V9.57316L27.6937 13.0725C28.3374 13.2728 28.9908 12.7918 28.9908 12.1176V5.79769C28.9908 5.36936 28.718 4.98859 28.3125 4.85082L16.0095 0.671797Z" fill="#111827"/>
</svg>
