<svg width="32" height="33" viewBox="0 0 32 33" fill="none" xmlns="http://www.w3.org/2000/svg">
<path fill-rule="evenodd" clip-rule="evenodd" d="M27.7744 1.50024C27.7744 0.947959 27.3267 0.500244 26.7744 0.500244C26.2221 0.500244 25.7744 0.947959 25.7744 1.50024V4.22026H23.0546C22.5024 4.22026 22.0546 4.66798 22.0546 5.22026C22.0546 5.77255 22.5024 6.22026 23.0546 6.22026H25.7744V8.94012C25.7744 9.4924 26.2221 9.94012 26.7744 9.94012C27.3267 9.94012 27.7744 9.4924 27.7744 8.94012V6.22026H30.4945C31.0468 6.22026 31.4945 5.77255 31.4945 5.22026C31.4945 4.66798 31.0468 4.22026 30.4945 4.22026H27.7744V1.50024ZM24.673 27.5154C27.0699 27.5154 29.013 25.5627 29.013 23.154C29.013 23.1031 29.0121 23.0523 29.0104 23.0018C29.0129 22.973 29.0141 22.9438 29.0141 22.9143V14.1871C29.0141 13.6348 28.5664 13.1871 28.0141 13.1871C27.4619 13.1871 27.0141 13.6348 27.0141 14.1871V19.481C26.3387 19.0453 25.5352 18.7926 24.673 18.7926C22.2762 18.7926 20.3331 20.7453 20.3331 23.154C20.3331 25.5627 22.2762 27.5154 24.673 27.5154ZM9.18523 28.1385C9.18523 30.5473 7.24217 32.4999 4.8453 32.4999C2.44842 32.4999 0.505371 30.5473 0.505371 28.1385C0.505371 25.7298 2.44842 23.7771 4.8453 23.7771C5.70243 23.7771 6.50152 24.0268 7.17448 24.4578V6.55657C7.17448 6.00429 7.62219 5.55657 8.17448 5.55657C8.18431 5.55657 8.19412 5.55671 8.20388 5.55699L16.3775 3.39992C16.6612 3.32505 16.9477 3.50997 17.0031 3.7981C17.5028 6.39468 18.2877 8.30895 19.7679 9.90685C20.0395 10.2001 19.9151 10.6951 19.5276 10.7933L9.17448 13.4181V27.8292C9.1816 27.9314 9.18523 28.0345 9.18523 28.1385Z" fill="#111827"/>
</svg>
