<svg width="33" height="33" viewBox="0 0 33 33" fill="none" xmlns="http://www.w3.org/2000/svg">
<path fill-rule="evenodd" clip-rule="evenodd" d="M24.0312 23.7463C24.9026 23.3788 25.9219 23.2547 27.2561 23.2909H27.2563C27.2241 23.0234 26.7132 22.7114 26.3623 22.4971C26.2635 22.4367 26.1773 22.3841 26.1182 22.3424C26.0076 22.2645 25.8962 22.1852 25.7842 22.1054C25.3502 21.7964 24.9051 21.4793 24.4486 21.204C24.2548 21.0872 23.97 20.9876 23.7069 20.8957C23.5617 20.8449 23.4231 20.7965 23.3101 20.7487C23.1703 20.6897 22.9785 20.6312 22.7726 20.5684C22.3122 20.428 21.7812 20.2661 21.6028 20.028C21.1385 19.4075 20.8105 18.662 20.4824 17.9162C20.4638 17.8739 20.4451 17.8315 20.4265 17.7892C20.2604 17.4121 20.0731 17.0255 19.8847 16.6365C19.6786 16.2111 19.4711 15.7828 19.2884 15.3608C19.2171 15.196 19.1607 15.038 19.1053 14.8828C19.0261 14.6608 18.9489 14.4446 18.8331 14.2225C17.61 11.8776 15.8219 9.91189 13.6347 8.53102C12.917 8.07766 12.1266 7.66082 11.2445 7.39272C10.9782 7.31178 10.6835 7.29818 10.3853 7.28442C10.125 7.27241 9.862 7.26027 9.61298 7.20306H9.27153C9.07904 7.14648 8.9068 6.99485 8.74249 6.8502C8.65154 6.77014 8.56302 6.69222 8.47485 6.63374C7.95946 6.29245 7.45167 6.05175 6.84313 5.79903C6.61392 5.7037 6.00099 5.47769 5.7809 5.64724C5.65175 5.68984 5.59411 5.74443 5.55304 5.87493C5.42457 6.06848 5.54239 6.36971 5.6291 6.55784C5.79444 6.91707 6.00971 7.18118 6.22928 7.45056C6.33341 7.57832 6.43851 7.70727 6.53971 7.84811C6.57917 7.90302 6.61983 7.95898 6.66113 8.01583C6.91724 8.36837 7.19829 8.75523 7.37442 9.13821C7.59596 9.6197 7.75369 10.1287 7.91069 10.6354C8.057 11.1076 8.20268 11.5777 8.39879 12.0217C8.55498 12.3751 8.7803 12.7781 9.00597 13.0842C9.07129 13.1728 9.15501 13.2538 9.24012 13.336C9.39265 13.4835 9.54962 13.6352 9.61298 13.8432C9.77754 14.1013 9.48787 14.8545 9.30543 15.3289C9.25848 15.451 9.21864 15.5546 9.19546 15.6266C8.7585 16.9851 8.85063 18.8856 9.3476 20.0658C9.36254 20.1014 9.37742 20.1373 9.3924 20.1735C9.57412 20.6129 9.76985 21.0862 10.258 21.204C10.2753 21.1904 10.2791 21.1862 10.2838 21.1835C10.2897 21.1802 10.2971 21.1793 10.3341 21.1661C10.3564 20.9857 10.3758 20.8067 10.395 20.6299C10.4725 19.9156 10.546 19.2381 10.7893 18.662C10.9072 18.3828 11.0912 18.1583 11.2725 17.937C11.3833 17.8019 11.4931 17.6679 11.5862 17.5235C11.707 17.5933 11.7463 17.7527 11.7852 17.9106C11.8042 17.9879 11.8232 18.0648 11.8516 18.1307C11.8899 18.2195 11.9284 18.3096 11.9672 18.4005C12.1557 18.8414 12.3522 19.3011 12.5727 19.7244C13.1293 20.7939 13.7404 21.8211 14.4317 22.7598C14.6774 23.0933 15.0075 23.4552 15.3045 23.7463C15.3526 23.7935 15.4048 23.8319 15.4565 23.87C15.5403 23.9318 15.6227 23.9926 15.6838 24.0877H15.7218V24.1258C15.3943 24.0139 15.149 23.7612 14.9109 23.516C14.7786 23.3796 14.6485 23.2456 14.5076 23.1393C13.7475 22.5652 12.8502 21.7144 12.3448 20.9005L11.6619 19.5347V19.4967C11.6014 19.5772 11.5915 19.6628 11.5798 19.7631C11.5731 19.8207 11.5658 19.883 11.5481 19.9521C11.4871 20.1895 11.457 20.4359 11.4279 20.6741C11.3547 21.2734 11.2879 21.8202 10.7513 22.0388C9.89409 22.3882 9.27068 21.4771 9.00597 21.0523C8.14337 19.6684 7.91973 17.3445 8.51272 15.4746C8.55849 15.3302 8.58997 15.1745 8.6214 15.0191C8.68038 14.7274 8.7392 14.4365 8.89204 14.2225C8.86682 14.0264 8.75217 13.9237 8.63709 13.8205C8.57937 13.7688 8.52155 13.717 8.47485 13.6532C8.24682 13.3425 8.04804 12.9764 7.86767 12.6288C7.60689 12.1272 7.4087 11.5605 7.21329 11.0018C7.14118 10.7957 7.06945 10.5906 6.9951 10.3903C6.94571 10.2573 6.91369 10.1274 6.8821 9.99932C6.84202 9.83673 6.80264 9.67702 6.72937 9.51753C6.57287 9.17649 6.31894 8.83639 6.08208 8.51915C6.01757 8.43274 5.95433 8.34803 5.89466 8.26546C5.83103 8.17734 5.74908 8.07614 5.65815 7.96385C5.18168 7.37547 4.45868 6.48265 4.83243 5.57134C5.53732 3.85206 7.97822 5.1599 8.9299 5.761C9.02868 5.8234 9.13186 5.91316 9.2369 6.00454C9.38624 6.13445 9.53934 6.26763 9.68888 6.33015L10.9409 6.40622C11.0339 6.42824 11.1263 6.44966 11.2179 6.4709C11.8929 6.62734 12.5277 6.7745 13.0659 7.08913C15.9387 8.7697 17.7932 10.4792 19.5161 13.3117C19.7557 13.706 19.9191 14.1262 20.0869 14.5578C20.1705 14.7726 20.2551 14.9902 20.3508 15.2089C20.7727 16.1739 21.2404 17.1756 21.7166 18.0926C21.7893 18.2325 21.8551 18.3763 21.9207 18.5195C22.0604 18.8246 22.1989 19.127 22.3995 19.3827C22.4813 19.4871 22.6524 19.5442 22.8138 19.5982C22.8982 19.6263 22.9799 19.6536 23.0447 19.6863C23.2599 19.795 23.4888 19.8939 23.7191 19.9934C24.0895 20.1534 24.4635 20.3151 24.79 20.5212C25.7449 21.1238 26.6723 21.8466 27.5217 22.5701C27.7057 22.7267 27.8536 22.9244 28.0014 23.1218C28.1145 23.273 28.2276 23.4241 28.3567 23.5566V23.7084C28.1383 23.7707 27.9198 23.8332 27.7016 23.8956L27.5599 23.9361C27.2676 24.0116 26.9949 24.0399 26.7247 24.0679C26.4501 24.0964 26.178 24.1246 25.8905 24.2018C25.8268 24.2189 25.7599 24.2374 25.6909 24.2565C25.3915 24.3393 25.051 24.4336 24.752 24.4672L24.79 24.5053C24.9473 24.9441 25.6034 25.3297 26.1495 25.6506C26.3552 25.7714 26.5452 25.8831 26.6871 25.985C27.3379 26.4521 27.9502 27.0143 28.4325 27.6544L28.9257 28.1477C28.9784 28.224 29.0133 28.3117 29.0482 28.3994C29.0874 28.4981 29.1266 28.5967 29.1913 28.679V28.717C29.0426 28.6643 28.9398 28.5617 28.8382 28.4603C28.7811 28.4033 28.7244 28.3467 28.6602 28.2995C28.5549 28.2222 28.4491 28.1424 28.3428 28.0622C28.084 27.8668 27.8226 27.6695 27.5599 27.5028C27.2366 27.2977 26.8869 27.138 26.5346 26.9771C26.2016 26.825 25.8663 26.6719 25.549 26.4784C25.2312 26.2845 24.924 26.0514 24.625 25.8244C24.5786 25.7892 24.5324 25.7542 24.4864 25.7195C24.1731 25.4828 23.8216 25.0316 23.6137 24.6949C23.5686 24.6217 23.5386 24.542 23.5091 24.4636C23.4679 24.354 23.4276 24.247 23.3483 24.1638C23.3782 23.9341 23.6023 23.8729 23.8172 23.8143C23.8926 23.7937 23.9669 23.7734 24.0312 23.7463ZM9.61307 8.91038C9.82116 8.86507 10.0179 8.82958 10.2962 8.83465C10.3514 8.88821 10.4186 8.9347 10.4863 8.98148C10.586 9.05047 10.6867 9.12009 10.7514 9.21397C10.7868 9.26538 10.8095 9.31798 10.8316 9.36916C10.8602 9.43559 10.8878 9.49964 10.941 9.55559C10.9422 9.95976 10.8345 10.2246 10.5996 10.3903L10.5617 10.4282C10.4351 10.1626 10.3086 9.89699 10.1822 9.63132C10.1174 9.53865 10.0416 9.45522 9.96556 9.3714C9.8489 9.24287 9.73142 9.11345 9.6511 8.94841H9.61307V8.91038Z" fill="#1C1B1F"/>
</svg>
