<svg width="33" height="33" viewBox="0 0 33 33" fill="none" xmlns="http://www.w3.org/2000/svg">
<path fill-rule="evenodd" clip-rule="evenodd" d="M24.0312 23.8878C24.9026 23.5203 25.9219 23.3962 27.2561 23.4324H27.2563C27.2241 23.1649 26.7132 22.8529 26.3623 22.6386C26.2635 22.5782 26.1773 22.5256 26.1182 22.4839C26.0076 22.406 25.8962 22.3267 25.7842 22.2469C25.3502 21.9379 24.9051 21.6208 24.4486 21.3454C24.2548 21.2287 23.97 21.1291 23.7069 21.0372C23.5617 20.9864 23.4231 20.938 23.3101 20.8902C23.1703 20.8311 22.9785 20.7727 22.7726 20.7099C22.3122 20.5695 21.7812 20.4076 21.6028 20.1694C21.1385 19.549 20.8105 18.8034 20.4824 18.0577C20.4638 18.0153 20.4451 17.973 20.4265 17.9307C20.2604 17.5535 20.0731 17.167 19.8847 16.778C19.6786 16.3525 19.4711 15.9242 19.2884 15.5023C19.2171 15.3375 19.1607 15.1795 19.1053 15.0242C19.0261 14.8023 18.9489 14.5861 18.8331 14.364C17.61 12.0191 15.8219 10.0534 13.6347 8.6725C12.917 8.21914 12.1266 7.8023 11.2445 7.5342C10.9782 7.45326 10.6835 7.43966 10.3853 7.4259C10.125 7.41389 9.862 7.40175 9.61298 7.34454H9.27153C9.07904 7.28796 8.9068 7.13633 8.74249 6.99168C8.65154 6.91162 8.56302 6.8337 8.47485 6.77522C7.95946 6.43393 7.45167 6.19322 6.84313 5.94051C6.61392 5.84518 6.00099 5.61917 5.7809 5.78872C5.65175 5.83131 5.59411 5.88591 5.55304 6.01641C5.42457 6.20996 5.54239 6.51118 5.6291 6.69932C5.79444 7.05855 6.00971 7.32266 6.22928 7.59204C6.33341 7.7198 6.43851 7.84875 6.53971 7.98959C6.57917 8.0445 6.61983 8.10046 6.66113 8.15731C6.91724 8.50985 7.19829 8.89671 7.37442 9.27969C7.59596 9.76118 7.75369 10.2702 7.91069 10.7769C8.057 11.2491 8.20268 11.7192 8.39879 12.1631C8.55498 12.5166 8.7803 12.9196 9.00597 13.2257C9.07129 13.3143 9.15501 13.3953 9.24012 13.4775C9.39265 13.625 9.54962 13.7767 9.61298 13.9847C9.77754 14.2428 9.48787 14.996 9.30543 15.4704C9.25848 15.5925 9.21864 15.6961 9.19546 15.768C8.7585 17.1266 8.85063 19.0271 9.3476 20.2073C9.36254 20.2428 9.37742 20.2788 9.3924 20.315C9.57412 20.7544 9.76985 21.2277 10.258 21.3454C10.2753 21.3319 10.2791 21.3276 10.2838 21.325C10.2897 21.3216 10.2971 21.3208 10.3341 21.3076C10.3564 21.1272 10.3758 20.9482 10.395 20.7714C10.4725 20.0571 10.546 19.3796 10.7893 18.8034C10.9072 18.5243 11.0912 18.2998 11.2725 18.0785C11.3833 17.9433 11.4931 17.8094 11.5862 17.665C11.707 17.7348 11.7463 17.8942 11.7852 18.052C11.8042 18.1294 11.8232 18.2063 11.8516 18.2722C11.8899 18.361 11.9284 18.4511 11.9672 18.542C12.1557 18.9829 12.3522 19.4426 12.5727 19.8658C13.1293 20.9353 13.7404 21.9626 14.4317 22.9013C14.6774 23.2348 15.0075 23.5967 15.3045 23.8878C15.3526 23.9349 15.4048 23.9734 15.4565 24.0115C15.5403 24.0733 15.6227 24.134 15.6838 24.2292H15.7218V24.2672C15.3943 24.1553 15.149 23.9027 14.9109 23.6574C14.7786 23.5211 14.6485 23.3871 14.5076 23.2807C13.7475 22.7067 12.8502 21.8559 12.3448 21.042L11.6619 19.6762V19.6381C11.6014 19.7187 11.5915 19.8043 11.5798 19.9046C11.5731 19.9621 11.5658 20.0245 11.5481 20.0935C11.4871 20.331 11.457 20.5774 11.4279 20.8155C11.3547 21.4149 11.2879 21.9617 10.7513 22.1803C9.89409 22.5297 9.27068 21.6186 9.00597 21.1938C8.14337 19.8099 7.91973 17.486 8.51272 15.6161C8.55849 15.4717 8.58997 15.316 8.6214 15.1605C8.68038 14.8688 8.7392 14.5779 8.89204 14.364C8.86682 14.1679 8.75217 14.0651 8.63709 13.962C8.57937 13.9103 8.52155 13.8584 8.47485 13.7947C8.24682 13.484 8.04804 13.1179 7.86767 12.7703C7.60689 12.2686 7.4087 11.702 7.21329 11.1433C7.14118 10.9372 7.06945 10.7321 6.9951 10.5317C6.94571 10.3988 6.91369 10.2689 6.8821 10.1408C6.84202 9.97821 6.80264 9.8185 6.72937 9.65901C6.57287 9.31797 6.31894 8.97787 6.08208 8.66062C6.01757 8.57422 5.95433 8.48951 5.89466 8.40694C5.83103 8.31882 5.74908 8.21762 5.65815 8.10533C5.18168 7.51695 4.45868 6.62412 4.83243 5.71282C5.53732 3.99354 7.97822 5.30138 8.9299 5.90248C9.02868 5.96488 9.13186 6.05464 9.2369 6.14602C9.38624 6.27593 9.53934 6.40911 9.68888 6.47163L10.9409 6.5477C11.0339 6.56972 11.1263 6.59113 11.2179 6.61238C11.8929 6.76882 12.5277 6.91598 13.0659 7.23061C15.9387 8.91118 17.7932 10.6207 19.5161 13.4532C19.7557 13.8475 19.9191 14.2677 20.0869 14.6993C20.1705 14.9141 20.2551 15.1317 20.3508 15.3503C20.7727 16.3154 21.2404 17.3171 21.7166 18.2341C21.7893 18.374 21.8551 18.5178 21.9207 18.661C22.0604 18.9661 22.1989 19.2685 22.3995 19.5242C22.4813 19.6285 22.6524 19.6857 22.8138 19.7396C22.8982 19.7678 22.9799 19.7951 23.0447 19.8278C23.2599 19.9364 23.4888 20.0353 23.7191 20.1349C24.0895 20.2949 24.4635 20.4565 24.79 20.6627C25.7449 21.2653 26.6723 21.9881 27.5217 22.7116C27.7057 22.8682 27.8536 23.0658 28.0014 23.2633C28.1145 23.4145 28.2276 23.5656 28.3567 23.6981V23.8499C28.1383 23.9121 27.9198 23.9746 27.7016 24.0371L27.5599 24.0776C27.2676 24.153 26.9949 24.1813 26.7247 24.2094C26.4501 24.2379 26.178 24.2661 25.8905 24.3433C25.8268 24.3603 25.7599 24.3788 25.6909 24.398C25.3915 24.4808 25.051 24.5751 24.752 24.6087L24.79 24.6467C24.9473 25.0856 25.6034 25.4712 26.1495 25.7921C26.3552 25.9129 26.5452 26.0246 26.6871 26.1265C27.3379 26.5935 27.9502 27.1558 28.4325 27.7959L28.9257 28.2892C28.9784 28.3655 29.0133 28.4532 29.0482 28.5408C29.0874 28.6395 29.1266 28.7382 29.1913 28.8205V28.8585C29.0426 28.8058 28.9398 28.7032 28.8382 28.6017C28.7811 28.5448 28.7244 28.4881 28.6602 28.441C28.5549 28.3637 28.4491 28.2838 28.3428 28.2036C28.084 28.0083 27.8226 27.811 27.5599 27.6443C27.2366 27.4392 26.8869 27.2795 26.5346 27.1186C26.2016 26.9665 25.8663 26.8134 25.549 26.6199C25.2312 26.426 24.924 26.1928 24.625 25.9659C24.5786 25.9307 24.5324 25.8957 24.4864 25.8609C24.1731 25.6243 23.8216 25.1731 23.6137 24.8364C23.5686 24.7632 23.5386 24.6835 23.5091 24.6051C23.4679 24.4955 23.4276 24.3884 23.3483 24.3053C23.3782 24.0756 23.6023 24.0144 23.8172 23.9558C23.8926 23.9352 23.9669 23.9149 24.0312 23.8878ZM9.61307 9.05186C9.82116 9.00655 10.0179 8.97106 10.2962 8.97613C10.3514 9.02969 10.4186 9.07618 10.4863 9.12296C10.586 9.19195 10.6867 9.26157 10.7514 9.35545C10.7868 9.40686 10.8095 9.45946 10.8316 9.51064C10.8602 9.57707 10.8878 9.64112 10.941 9.69707C10.9422 10.1012 10.8345 10.3661 10.5996 10.5318L10.5617 10.5696C10.4351 10.3041 10.3086 10.0385 10.1822 9.7728C10.1174 9.68013 10.0416 9.5967 9.96556 9.51288C9.8489 9.38435 9.73142 9.25493 9.6511 9.08989H9.61307V9.05186Z" fill="#1C1B1F"/>
</svg>
