<svg width="32" height="32" viewBox="0 0 32 32" fill="none" xmlns="http://www.w3.org/2000/svg">
<path fill-rule="evenodd" clip-rule="evenodd" d="M17.8707 6.50978C16.9195 10.0761 12.8929 18.9353 4.07313 28.165C2.97985 29.2077 2.01262 30.1733 1.21826 31C2.22113 30.0546 3.17214 29.1079 4.07313 28.165C9.78091 22.7216 18.9242 15.1787 24.8378 14.3454C24.8581 14.3426 24.8761 14.3334 24.8906 14.3189L29.4084 9.80107C31.239 7.97055 31.2389 5.00269 29.4084 3.17217L28.6091 2.37287C26.777 0.540742 23.8059 0.542616 21.9761 2.37706L17.8946 6.46877C17.883 6.48046 17.8749 6.49383 17.8707 6.50978ZM27.2299 7.39311C27.9621 6.6609 27.9621 5.47376 27.2299 4.74155C26.4977 4.00934 25.3105 4.00934 24.5783 4.74155L21.8593 7.46061C21.1271 8.19282 21.1271 9.37996 21.8593 10.1122C22.5915 10.8444 23.7786 10.8444 24.5108 10.1122L27.2299 7.39311Z" fill="#111827"/>
<path d="M4.07313 28.165C12.8929 18.9353 16.9195 10.0761 17.8707 6.50978C17.8749 6.49383 17.883 6.48046 17.8946 6.46877L21.9761 2.37706C23.8059 0.542616 26.777 0.540742 28.6091 2.37287L29.4084 3.17217C31.2389 5.00269 31.239 7.97055 29.4084 9.80107L24.8906 14.3189C24.8761 14.3334 24.8581 14.3426 24.8378 14.3454C18.9242 15.1787 9.78091 22.7216 4.07313 28.165ZM4.07313 28.165C2.97985 29.2077 2.01262 30.1733 1.21826 31C2.22113 30.0546 3.17214 29.1079 4.07313 28.165ZM27.2299 4.74155C27.9621 5.47376 27.9621 6.6609 27.2299 7.39311L24.5108 10.1122C23.7786 10.8444 22.5915 10.8444 21.8593 10.1122C21.1271 9.37996 21.1271 8.19282 21.8593 7.46061L24.5783 4.74155C25.3105 4.00934 26.4977 4.00934 27.2299 4.74155Z" stroke="#111827" stroke-width="2" stroke-linecap="round" stroke-linejoin="round"/>
</svg>
