<svg width="32" height="33" viewBox="0 0 32 33" fill="none" xmlns="http://www.w3.org/2000/svg">
<path fill-rule="evenodd" clip-rule="evenodd" d="M17.8707 7.00978C16.9195 10.5761 12.8929 19.4353 4.07313 28.665C2.97985 29.7077 2.01262 30.6733 1.21826 31.5C2.22113 30.5546 3.17214 29.6079 4.07313 28.665C9.78091 23.2216 18.9242 15.6787 24.8378 14.8454C24.8581 14.8426 24.8761 14.8334 24.8906 14.8189L29.4084 10.3011C31.239 8.47055 31.2389 5.50269 29.4084 3.67217L28.6091 2.87287C26.777 1.04074 23.8059 1.04262 21.9761 2.87706L17.8946 6.96877C17.883 6.98046 17.8749 6.99383 17.8707 7.00978ZM27.2299 7.89311C27.9621 7.1609 27.9621 5.97376 27.2299 5.24155C26.4977 4.50934 25.3105 4.50934 24.5783 5.24155L21.8593 7.96061C21.1271 8.69282 21.1271 9.87996 21.8593 10.6122C22.5915 11.3444 23.7786 11.3444 24.5108 10.6122L27.2299 7.89311Z" fill="#111827"/>
<path d="M4.07313 28.665C12.8929 19.4353 16.9195 10.5761 17.8707 7.00978C17.8749 6.99383 17.883 6.98046 17.8946 6.96877L21.9761 2.87706C23.8059 1.04262 26.777 1.04074 28.6091 2.87287L29.4084 3.67217C31.2389 5.50269 31.239 8.47055 29.4084 10.3011L24.8906 14.8189C24.8761 14.8334 24.8581 14.8426 24.8378 14.8454C18.9242 15.6787 9.78091 23.2216 4.07313 28.665ZM4.07313 28.665C2.97985 29.7077 2.01262 30.6733 1.21826 31.5C2.22113 30.5546 3.17214 29.6079 4.07313 28.665ZM27.2299 5.24155C27.9621 5.97376 27.9621 7.1609 27.2299 7.89311L24.5108 10.6122C23.7786 11.3444 22.5915 11.3444 21.8593 10.6122C21.1271 9.87996 21.1271 8.69282 21.8593 7.96061L24.5783 5.24155C25.3105 4.50934 26.4977 4.50934 27.2299 5.24155Z" stroke="#111827" stroke-width="2" stroke-linecap="round" stroke-linejoin="round"/>
</svg>
