<svg width="33" height="33" viewBox="0 0 33 33" fill="none" xmlns="http://www.w3.org/2000/svg">
<path fill-rule="evenodd" clip-rule="evenodd" d="M17.6346 9.89145C16.9164 12.5755 13.8908 19.2254 7.27077 26.1531C6.44942 26.9365 5.72276 27.6619 5.12598 28.283C5.87941 27.5728 6.59388 26.8615 7.27077 26.1531C11.5558 22.0666 18.4181 16.405 22.8611 15.7722C22.8827 15.7691 22.902 15.7593 22.9174 15.7439L26.0045 12.6568C27.5454 11.1159 27.5454 8.61753 26.0045 7.07659C24.4622 5.53429 21.9611 5.53587 20.4207 7.08011L17.6601 9.84767C17.6477 9.86014 17.6391 9.87444 17.6346 9.89145ZM25.0859 10.966C25.8669 10.185 25.8669 8.91862 25.0859 8.13757C24.3048 7.35652 23.0385 7.35652 22.2575 8.13757L20.2147 10.1803C19.4336 10.9614 19.4336 12.2277 20.2147 13.0088C20.9957 13.7898 22.2621 13.7898 23.0431 13.0088L25.0859 10.966Z" fill="#1C1B1F"/>
<path d="M17.6346 9.89145L18.6006 10.1499V10.1499L17.6346 9.89145ZM5.12598 28.283L4.40491 27.5901C4.02892 27.9814 4.03362 28.6012 4.4155 28.9867C4.79737 29.3722 5.41705 29.3829 5.81191 29.0106L5.12598 28.283ZM22.8611 15.7722L23.0021 16.7622H23.0021L22.8611 15.7722ZM22.9174 15.7439L23.6245 16.451L22.9174 15.7439ZM26.0045 12.6568L25.2974 11.9497L26.0045 12.6568ZM26.0045 7.07659L25.2974 7.7837V7.7837L26.0045 7.07659ZM20.4207 7.08011L21.1287 7.78633V7.78633L20.4207 7.08011ZM17.6601 9.84767L18.3681 10.5539L18.3681 10.5539L17.6601 9.84767ZM25.0859 8.13757L25.793 7.43047L25.793 7.43047L25.0859 8.13757ZM25.0859 10.966L25.793 11.6731V11.6731L25.0859 10.966ZM22.2575 8.13757L22.9646 8.84468V8.84468L22.2575 8.13757ZM20.2147 10.1803L19.5076 9.47323L20.2147 10.1803ZM20.2147 13.0088L20.9218 12.3017L20.2147 13.0088ZM23.0431 13.0088L22.336 12.3017V12.3017L23.0431 13.0088ZM7.99376 26.844C14.7133 19.8121 17.8332 13.0179 18.6006 10.1499L16.6685 9.63298C15.9996 12.1332 13.0683 18.6387 6.54779 25.4623L7.99376 26.844ZM5.84705 28.9758C6.43289 28.3661 7.14916 27.651 7.96093 26.8768L6.58062 25.4295C5.74967 26.2219 5.01263 26.9577 4.40491 27.5901L5.84705 28.9758ZM6.54779 25.4623C5.88273 26.1583 5.1806 26.8572 4.44004 27.5553L5.81191 29.0106C6.57822 28.2883 7.30503 27.5647 7.99376 26.844L6.54779 25.4623ZM22.7201 14.7822C20.2382 15.1357 17.24 16.8427 14.4253 18.8539C11.5682 20.8953 8.74435 23.3659 6.58062 25.4295L7.96093 26.8768C10.0822 24.8538 12.832 22.4504 15.588 20.4812C18.3865 18.4817 21.0409 17.0415 23.0021 16.7622L22.7201 14.7822ZM22.2103 15.0368C22.3439 14.9032 22.5217 14.8105 22.7201 14.7822L23.0021 16.7622C23.2437 16.7278 23.4601 16.6154 23.6245 16.451L22.2103 15.0368ZM25.2974 11.9497L22.2103 15.0368L23.6245 16.451L26.7116 13.3639L25.2974 11.9497ZM25.2974 7.7837C26.4478 8.93411 26.4478 10.7993 25.2974 11.9497L26.7116 13.3639C28.643 11.4325 28.643 8.30094 26.7116 6.36948L25.2974 7.7837ZM21.1287 7.78633C22.2787 6.63345 24.1459 6.63227 25.2974 7.7837L26.7116 6.36948C24.7784 4.43631 21.6435 4.43829 19.7127 6.3739L21.1287 7.78633ZM18.3681 10.5539L21.1287 7.78633L19.7127 6.3739L16.9521 9.14145L18.3681 10.5539ZM18.6006 10.1499C18.5567 10.3138 18.4707 10.4511 18.3681 10.5539L16.9522 9.14143C16.8247 9.26918 16.7215 9.43508 16.6685 9.63298L18.6006 10.1499ZM24.3788 8.84468C24.7693 9.2352 24.7693 9.86837 24.3788 10.2589L25.793 11.6731C26.9646 10.5015 26.9646 8.60204 25.793 7.43047L24.3788 8.84468ZM22.9646 8.84468C23.3551 8.45416 23.9883 8.45416 24.3788 8.84468L25.793 7.43047C24.6214 6.25889 22.7219 6.25889 21.5503 7.43047L22.9646 8.84468ZM20.9218 10.8874L22.9646 8.84468L21.5503 7.43047L19.5076 9.47323L20.9218 10.8874ZM20.9218 12.3017C20.5313 11.9111 20.5313 11.278 20.9218 10.8874L19.5076 9.47323C18.336 10.6448 18.336 12.5443 19.5076 13.7159L20.9218 12.3017ZM22.336 12.3017C21.9455 12.6922 21.3123 12.6922 20.9218 12.3017L19.5076 13.7159C20.6792 14.8874 22.5787 14.8874 23.7502 13.7159L22.336 12.3017ZM24.3788 10.2589L22.336 12.3017L23.7502 13.7159L25.793 11.6731L24.3788 10.2589Z" fill="#1C1B1F"/>
</svg>
