<svg width="33" height="32" viewBox="0 0 33 32" fill="none" xmlns="http://www.w3.org/2000/svg">
<g clip-path="url(#clip0_6_1720)">
<path d="M18.8867 4.5343C18.3044 3.61778 18.4907 3.01335 18.812 2.38936C19.0997 1.8308 19.2172 0.860096 18.2007 0.0961445C19.1366 -0.24831 20.6134 0.360719 20.6388 1.47635C20.0958 2.22359 18.6124 2.52051 18.8867 4.5343ZM25.606 25.13C25.1516 26.6028 25.3588 27.3864 23.3827 30.4443C26.8765 28.0857 28.5249 25.0406 29.0689 21.5845C29.4105 23.0256 29.4427 24.3329 29.3085 25.5681C32.2037 21.7565 34.1874 14.0705 27.5151 6.34434C27.2467 9.75945 23.9438 12.4485 20.1347 11.3941C26.6658 10.6741 27.0844 2.3692 21.4736 0.451526C21.5832 2.76198 18.4308 2.00541 19.3579 5.09631C16.147 3.2797 9.13186 2.90635 6.343 5.66242C4.90529 7.08323 3.92391 8.25829 2.12711 8.33591C0.643492 8.4 -1.31558 10.8074 1.23337 12.0386C1.47682 13.0646 2.33238 13.6488 2.82847 13.7495C2.70509 15.5765 3.09373 14.6449 3.66322 13.8486C3.47187 16.1581 3.78721 15.3261 4.67978 14.1379C12.2312 12.6107 16.4016 18.769 16.4487 22.5514C16.4156 21.8651 15.3185 21.067 14.7379 21.2869C14.3457 22.1179 13.9183 22.8233 13.3908 23.1712C13.4459 22.6203 13.4083 22.0693 13.3082 21.5183C13.1343 22.1846 12.8068 22.8765 12.2833 23.601C11.2422 23.6591 9.78499 22.8847 10.2089 21.6009C10.8068 20.3525 9.63398 20.0929 8.68913 20.4503C7.97917 20.7189 7.49941 21.4627 7.43377 21.694C7.19695 22.5283 7.27488 24.3908 8.89477 25.6259C8.47011 25.7041 8.03411 25.7738 7.73773 25.9482C10.4933 27.6147 13.3059 27.0516 14.8721 26.4228C17.4365 25.3931 19.2052 22.5432 19.4819 20.3447C20.1937 23.437 18.9185 26.8737 16.0602 28.7169C16.8768 28.8034 18.4753 28.2501 20.1099 27.6673C18.8742 29.2224 17.3971 30.6971 14.9775 31.8575C19.7434 31.4583 23.2294 29.0654 25.606 25.13Z" fill="#111827"/>
</g>
<defs>
<clipPath id="clip0_6_1720">
<rect width="32" height="32" fill="white" transform="translate(0.0400391)"/>
</clipPath>
</defs>
</svg>
