<svg width="32" height="33" viewBox="0 0 32 33" fill="none" xmlns="http://www.w3.org/2000/svg">
<path d="M18.165 7.68368C17.7283 6.9963 17.868 6.54297 18.109 6.07498C18.3248 5.65606 18.4129 4.92803 17.6506 4.35507C18.3524 4.09673 19.4601 4.5535 19.4791 5.39022C19.0718 5.95065 17.9593 6.17334 18.165 7.68368ZM23.2045 23.1305C22.8637 24.2351 23.0191 24.8228 21.5371 27.1162C24.1574 25.3473 25.3936 23.0634 25.8017 20.4713C26.0578 21.5522 26.082 22.5326 25.9814 23.459C28.1528 20.6003 29.6406 14.8358 24.6363 9.04121C24.435 11.6025 21.9579 13.6193 19.101 12.8285C23.9994 12.2885 24.3133 6.05986 20.1052 4.6216C20.1874 6.35445 17.8231 5.78702 18.5184 8.10519C16.1103 6.74274 10.8489 6.46272 8.75725 8.52978C7.67897 9.59538 6.94294 10.4767 5.59533 10.5349C4.48262 10.583 3.01332 12.3885 4.92503 13.3119C5.10762 14.0814 5.74928 14.5196 6.12135 14.5951C6.02882 15.9653 6.3203 15.2667 6.74742 14.6694C6.6039 16.4015 6.84041 15.7776 7.50984 14.8864C13.1734 13.741 16.3012 18.3597 16.3366 21.1965C16.3117 20.6818 15.4889 20.0832 15.0535 20.2481C14.7593 20.8714 14.4387 21.4004 14.0431 21.6614C14.0845 21.2482 14.0562 20.8349 13.9811 20.4217C13.8507 20.9214 13.6051 21.4403 13.2125 21.9837C12.4316 22.0273 11.3387 21.4465 11.6566 20.4837C12.1051 19.5473 11.2255 19.3526 10.5169 19.6207C9.98438 19.8221 9.62456 20.38 9.57533 20.5535C9.39771 21.1792 9.45616 22.576 10.6711 23.5024C10.3526 23.561 10.0256 23.6133 9.8033 23.7441C11.8699 24.994 13.9794 24.5717 15.1541 24.1C17.0774 23.3278 18.4039 21.1904 18.6114 19.5415C19.1453 21.8607 18.1889 24.4383 16.0451 25.8207C16.6576 25.8855 17.8565 25.4706 19.0824 25.0334C18.1557 26.1998 17.0479 27.3058 15.2331 28.1761C18.8076 27.8767 21.4221 26.082 23.2045 23.1305Z" fill="#1C1B1F"/>
</svg>
