<svg width="33" height="33" viewBox="0 0 33 33" fill="none" xmlns="http://www.w3.org/2000/svg">
<path fill-rule="evenodd" clip-rule="evenodd" d="M5.45996 6.38159H28.46C28.7361 6.38159 28.96 6.60545 28.96 6.88159V26.3778C28.96 26.7489 28.57 26.9907 28.2376 26.8257L25.2653 25.3497C25.1288 25.282 24.969 25.2801 24.831 25.3446L21.1189 27.081C20.9794 27.1462 20.8176 27.1435 20.6804 27.0737L17.2954 25.3515C17.16 25.2826 17.0006 25.279 16.8623 25.3417L13.0108 27.0869C12.8746 27.1486 12.718 27.1461 12.5839 27.0802L9.06755 25.3518C8.92741 25.283 8.76313 25.2835 8.62345 25.3533L5.6835 26.8227C5.35105 26.9889 4.95996 26.7471 4.95996 26.3755V6.88159C4.95996 6.60545 5.18382 6.38159 5.45996 6.38159ZM7.95996 12.3816C7.95996 11.8293 8.40768 11.3816 8.95996 11.3816H14.96C15.5122 11.3816 15.96 11.8293 15.96 12.3816V20.3816C15.96 20.9339 15.5122 21.3816 14.96 21.3816H8.95996C8.40768 21.3816 7.95996 20.9339 7.95996 20.3816V12.3816ZM9.95996 13.3816V19.3816H13.96V13.3816H9.95996ZM18.96 13.3816C18.4077 13.3816 17.96 13.8293 17.96 14.3816C17.96 14.9339 18.4077 15.3816 18.96 15.3816H24.96C25.5122 15.3816 25.96 14.9339 25.96 14.3816C25.96 13.8293 25.5122 13.3816 24.96 13.3816H18.96ZM18.96 17.3816C18.4077 17.3816 17.96 17.8293 17.96 18.3816C17.96 18.9339 18.4077 19.3816 18.96 19.3816H24.96C25.5122 19.3816 25.96 18.9339 25.96 18.3816C25.96 17.8293 25.5122 17.3816 24.96 17.3816H18.96Z" fill="#1C1B1F"/>
</svg>
