<svg width="33" height="33" viewBox="0 0 33 33" fill="none" xmlns="http://www.w3.org/2000/svg">
<path fill-rule="evenodd" clip-rule="evenodd" d="M8.58064 7.53711C8.02836 7.53711 7.58064 7.98482 7.58064 8.53711V24.0286H6.95996C6.40768 24.0286 5.95996 23.5808 5.95996 23.0286V12.3697C5.95996 11.8174 5.51225 11.3697 4.95996 11.3697C4.40768 11.3697 3.95996 11.8174 3.95996 12.3697V23.0286C3.95996 24.5346 5.06967 25.7814 6.51599 25.9959C6.59719 26.0172 6.68242 26.0286 6.7703 26.0286H6.95996H8.58064H28.96C29.5122 26.0286 29.96 25.5808 29.96 25.0286V8.53711C29.96 7.98482 29.5122 7.53711 28.96 7.53711H8.58064ZM14.1162 14.0312C13.5639 14.0312 13.1162 14.479 13.1162 15.0312C13.1162 15.5835 13.5639 16.0312 14.1162 16.0312H23.3936C23.9458 16.0312 24.3936 15.5835 24.3936 15.0312C24.3936 14.479 23.9458 14.0312 23.3936 14.0312H14.1162ZM14.1162 17.7422C13.5639 17.7422 13.1162 18.1899 13.1162 18.7422C13.1162 19.2945 13.5639 19.7422 14.1162 19.7422H23.3936C23.9458 19.7422 24.3936 19.2945 24.3936 18.7422C24.3936 18.1899 23.9458 17.7422 23.3936 17.7422H14.1162Z" fill="#1C1B1F"/>
</svg>
