<svg width="32" height="33" viewBox="0 0 32 33" fill="none" xmlns="http://www.w3.org/2000/svg">
<path fill-rule="evenodd" clip-rule="evenodd" d="M0.5 2.65796H31.5C31.7761 2.65796 32 2.88182 32 3.15796V29.5884C32 29.9595 31.61 30.2013 31.2776 30.0363L27.0018 27.9131C26.8653 27.8453 26.7055 27.8435 26.5675 27.908L21.4716 30.2916C21.3321 30.3568 21.1703 30.3541 21.033 30.2843L16.3758 27.9148C16.2404 27.846 16.0811 27.8424 15.9427 27.9051L10.6628 30.2975C10.5266 30.3592 10.37 30.3568 10.2358 30.2908L5.40264 27.9152C5.2625 27.8463 5.09823 27.8469 4.95855 27.9167L0.723537 30.0333C0.391091 30.1995 0 29.9578 0 29.5861V3.15796C0 2.88182 0.223858 2.65796 0.5 2.65796ZM4.33333 10.6579C4.33333 10.1056 4.78105 9.65788 5.33333 9.65788H13.3333C13.8856 9.65788 14.3333 10.1056 14.3333 10.6579V21.3245C14.3333 21.8768 13.8856 22.3245 13.3333 22.3245H5.33333C4.78105 22.3245 4.33333 21.8768 4.33333 21.3245V10.6579ZM6.33333 11.6579V20.3245H12.3333V11.6579H6.33333ZM18.6667 12.3245C18.1144 12.3245 17.6667 12.7723 17.6667 13.3245C17.6667 13.8768 18.1144 14.3245 18.6667 14.3245H26.6667C27.219 14.3245 27.6667 13.8768 27.6667 13.3245C27.6667 12.7723 27.219 12.3245 26.6667 12.3245H18.6667ZM18.6667 17.6579C18.1144 17.6579 17.6667 18.1056 17.6667 18.6579C17.6667 19.2102 18.1144 19.6579 18.6667 19.6579H26.6667C27.219 19.6579 27.6667 19.2102 27.6667 18.6579C27.6667 18.1056 27.219 17.6579 26.6667 17.6579H18.6667Z" fill="#111827"/>
</svg>
