<svg width="32" height="33" viewBox="0 0 32 33" fill="none" xmlns="http://www.w3.org/2000/svg">
<path fill-rule="evenodd" clip-rule="evenodd" d="M5.52655 5.19336C4.97427 5.19336 4.52655 5.64107 4.52655 6.19336V25.8064H3.26376H3.00098C2.44869 25.8064 2.00098 25.3587 2.00098 24.8064V10.9838C2.00098 10.4316 1.55326 9.98384 1.00098 9.98384C0.448692 9.98384 0.000976562 10.4316 0.000976562 10.9838V24.8064C0.000976562 26.4633 1.34412 27.8064 3.00098 27.8064H3.26376H5.52655H30.9991C31.5514 27.8064 31.9991 27.3587 31.9991 26.8064V6.19336C31.9991 5.64107 31.5514 5.19336 30.9991 5.19336H5.52655ZM12.4452 13.3107C11.8929 13.3107 11.4452 13.7584 11.4452 14.3107C11.4452 14.863 11.8929 15.3107 12.4452 15.3107H24.0412C24.5935 15.3107 25.0412 14.863 25.0412 14.3107C25.0412 13.7584 24.5935 13.3107 24.0412 13.3107H12.4452ZM12.4452 17.9492C11.8929 17.9492 11.4452 18.3969 11.4452 18.9492C11.4452 19.5015 11.8929 19.9492 12.4452 19.9492H24.0412C24.5935 19.9492 25.0412 19.5015 25.0412 18.9492C25.0412 18.3969 24.5935 17.9492 24.0412 17.9492H12.4452Z" fill="#111827"/>
</svg>
