<svg width="32" height="32" viewBox="0 0 32 32" fill="none" xmlns="http://www.w3.org/2000/svg">
<path fill-rule="evenodd" clip-rule="evenodd" d="M21.8361 30.9023C20.0279 31.6109 18.0594 32 16 32C7.16344 32 0 24.8366 0 16C0 7.16344 7.16344 0 16 0C24.8366 0 32 7.16344 32 16C32 22.0606 28.6303 27.3342 23.6623 30.0494L9.47943 7.48994C9.46178 7.46083 9.44268 7.43269 9.42225 7.40562C9.33551 7.2903 9.22762 7.1985 9.10748 7.13225C8.98741 7.06575 8.85221 7.02324 8.70835 7.01118C8.58816 7.00088 8.46555 7.01219 8.34667 7.04652C8.22776 7.08073 8.11794 7.13641 8.02167 7.2091C7.90633 7.29585 7.81452 7.40376 7.74827 7.52393C7.68179 7.64398 7.63929 7.77916 7.62723 7.923C7.62433 7.95679 7.62315 7.99077 7.6237 8.0248V24.4448C7.6237 24.9971 8.07141 25.4448 8.6237 25.4448C9.17598 25.4448 9.6237 24.9971 9.6237 24.4448V11.4771L21.8361 30.9023ZM22.5332 7.00765C23.0855 7.00765 23.5332 7.45536 23.5332 8.00765V19.788C23.5332 20.3403 23.0855 20.788 22.5332 20.788C21.9809 20.788 21.5332 20.3403 21.5332 19.788V8.00765C21.5332 7.45536 21.9809 7.00765 22.5332 7.00765Z" fill="#111827"/>
</svg>
