<svg width="33" height="33" viewBox="0 0 33 33" fill="none" xmlns="http://www.w3.org/2000/svg">
<path fill-rule="evenodd" clip-rule="evenodd" d="M21.0989 27.5502C19.8088 28.0242 18.4147 28.283 16.9602 28.283C10.3328 28.283 4.96021 22.9104 4.96021 16.283C4.96021 9.65554 10.3328 4.28296 16.9602 4.28296C23.5876 4.28296 28.9602 9.65554 28.9602 16.283C28.9602 20.739 26.5314 24.6278 22.9253 26.6977L12.2845 9.77224C12.2639 9.73814 12.2413 9.70537 12.2169 9.67409C12.1368 9.57107 12.0397 9.48745 11.932 9.42476C11.8002 9.34771 11.6492 9.29995 11.4879 9.29041C11.3917 9.28456 11.2943 9.29254 11.1986 9.31507C10.9251 9.37926 10.6948 9.55579 10.5591 9.79333C10.4885 9.91687 10.4435 10.0569 10.4313 10.2063C10.4286 10.2393 10.4274 10.2726 10.428 10.3058V22.6165C10.428 23.1688 10.8757 23.6165 11.428 23.6165C11.9803 23.6165 12.428 23.1688 12.428 22.6165V13.7581L21.0989 27.5502ZM21.8601 9.28865C22.4124 9.28865 22.8601 9.73636 22.8601 10.2886V19.1239C22.8601 19.6762 22.4124 20.1239 21.8601 20.1239C21.3078 20.1239 20.8601 19.6762 20.8601 19.1239V10.2886C20.8601 9.73636 21.3078 9.28865 21.8601 9.28865Z" fill="#1C1B1F"/>
</svg>
