<svg width="33" height="33" viewBox="0 0 33 33" fill="none" xmlns="http://www.w3.org/2000/svg">
<path fill-rule="evenodd" clip-rule="evenodd" d="M21.0989 27.6916C19.8088 28.1657 18.4147 28.4244 16.9602 28.4244C10.3328 28.4244 4.96021 23.0519 4.96021 16.4244C4.96021 9.79702 10.3328 4.42444 16.9602 4.42444C23.5876 4.42444 28.9602 9.79702 28.9602 16.4244C28.9602 20.8805 26.5314 24.7693 22.9253 26.8391L12.2845 9.91372C12.2639 9.87962 12.2413 9.84685 12.2169 9.81557C12.1368 9.71255 12.0397 9.62893 11.932 9.56624C11.8002 9.48919 11.6492 9.44143 11.4879 9.43189C11.3917 9.42604 11.2943 9.43402 11.1986 9.45655C10.9251 9.52074 10.6948 9.69727 10.5591 9.93481C10.4885 10.0584 10.4435 10.1984 10.4313 10.3477C10.4286 10.3808 10.4274 10.414 10.428 10.4473V22.758C10.428 23.3103 10.8757 23.758 11.428 23.758C11.9803 23.758 12.428 23.3103 12.428 22.758V13.8996L21.0989 27.6916ZM21.8601 9.43013C22.4124 9.43013 22.8601 9.87784 22.8601 10.4301V19.2654C22.8601 19.8177 22.4124 20.2654 21.8601 20.2654C21.3078 20.2654 20.8601 19.8177 20.8601 19.2654V10.4301C20.8601 9.87784 21.3078 9.43013 21.8601 9.43013Z" fill="#1C1B1F"/>
</svg>
