<svg width="33" height="33" viewBox="0 0 33 33" fill="none" xmlns="http://www.w3.org/2000/svg">
<path fill-rule="evenodd" clip-rule="evenodd" d="M17.3453 2.53784C18.1409 2.53784 18.7859 3.18281 18.7859 3.97842C18.7859 4.77404 18.1409 5.41901 17.3453 5.41901C16.5497 5.41901 15.9047 4.77404 15.9047 3.97842C15.9047 3.18281 16.5497 2.53784 17.3453 2.53784ZM20.7859 3.97842C20.7859 2.07824 19.2455 0.537842 17.3453 0.537842C15.4451 0.537842 13.9047 2.07824 13.9047 3.97842C13.9047 5.53079 14.9328 6.84304 16.3452 7.27142V11.5674L12.762 13.5725L7.49254 8.30297C7.71641 7.8464 7.8421 7.33296 7.8421 6.79017C7.8421 4.88999 6.3017 3.34959 4.40152 3.34959C2.50134 3.34959 0.960938 4.88999 0.960938 6.79017C0.960938 8.69035 2.50134 10.2307 4.40152 10.2307C5.03076 10.2307 5.62055 10.0618 6.12801 9.76687L10.9485 14.5873L8.70855 15.8407L17.3775 20.5841C17.4032 20.58 17.4295 20.5779 17.4564 20.5779C17.506 20.5779 17.5538 20.5851 17.599 20.5985L26.0529 15.8805L23.2482 14.311L27.7924 9.76687C28.2998 10.0618 28.8896 10.2307 29.5188 10.2307C31.419 10.2307 32.9594 8.69035 32.9594 6.79017C32.9594 4.88999 31.419 3.34959 29.5188 3.34959C27.6187 3.34959 26.0783 4.88999 26.0783 6.79017C26.0783 7.33296 26.204 7.8464 26.4278 8.30297L21.4346 13.2962L18.3452 11.5674V7.27144C19.7577 6.84308 20.7859 5.53082 20.7859 3.97842ZM4.40152 5.34959C3.60591 5.34959 2.96094 5.99456 2.96094 6.79017C2.96094 7.58578 3.60591 8.23075 4.40152 8.23075C5.19713 8.23075 5.8421 7.58578 5.8421 6.79017C5.8421 5.99456 5.19713 5.34959 4.40152 5.34959ZM16.9564 21.4936L7.85569 16.514V26.9355L16.9564 32.028V21.4936ZM17.9565 21.5442L26.8347 16.5894V26.9355L17.9565 31.9035V21.5442ZM30.9594 6.79017C30.9594 5.99456 30.3145 5.34959 29.5188 5.34959C28.7232 5.34959 28.0783 5.99456 28.0783 6.79017C28.0783 7.58578 28.7232 8.23075 29.5188 8.23075C30.3145 8.23075 30.9594 7.58578 30.9594 6.79017Z" fill="#111827"/>
</svg>
