<svg width="33" height="33" viewBox="0 0 33 33" fill="none" xmlns="http://www.w3.org/2000/svg">
<path d="M16.9554 28.283C16.6364 28.283 16.3125 28.1972 16.0315 28.0353L13.0931 26.297C12.655 26.0494 12.8693 25.9637 13.0122 25.9161C13.598 25.7113 13.717 25.6684 14.3409 25.3112C14.4076 25.2731 14.4933 25.2874 14.56 25.3303L16.8173 26.6685C16.8983 26.7161 17.0126 26.7161 17.0888 26.6685L25.8849 21.5918C25.9658 21.5442 26.0182 21.4489 26.0182 21.3537V11.2003C26.0182 11.1003 25.9658 11.0098 25.8801 10.9574L17.0888 5.8855C17.0078 5.83788 16.8983 5.83788 16.8173 5.8855L8.03074 10.9622C7.94502 11.0098 7.89263 11.1051 7.89263 11.2051V21.3537C7.89263 21.4489 7.94502 21.5442 8.03074 21.5871L10.4405 22.9777C11.7502 23.6301 12.5502 22.8634 12.5502 22.0871V12.0671C12.5502 11.9242 12.6645 11.8147 12.8074 11.8147H13.9218C14.0599 11.8147 14.179 11.9242 14.179 12.0671V22.0919C14.179 23.8349 13.2265 24.835 11.5739 24.835C11.0644 24.835 10.6643 24.835 9.54994 24.2826L7.24495 22.9539C6.67346 22.6253 6.32104 22.0109 6.32104 21.3489V11.2003C6.32104 10.5431 6.67346 9.92399 7.24495 9.59539L16.0315 4.5187C16.5887 4.20438 17.3269 4.20438 17.8793 4.5187L26.6754 9.60015C27.2469 9.92876 27.5993 10.5431 27.5993 11.2051V21.3537C27.5993 22.0109 27.2469 22.6253 26.6754 22.9586L17.8793 28.0353C17.5984 28.1972 17.2793 28.283 16.9554 28.283ZM24.0561 18.2772C24.0561 16.377 22.7703 15.8722 20.07 15.515C17.3364 15.1531 17.0602 14.9674 17.0602 14.3292C17.0602 13.8006 17.2936 13.0957 19.3176 13.0957C21.1225 13.0957 21.7892 13.4863 22.0655 14.7054C22.0893 14.8197 22.194 14.9054 22.3131 14.9054H23.4561C23.5275 14.9054 23.5942 14.8769 23.6418 14.8245C23.6894 14.7721 23.7132 14.7007 23.7085 14.6292C23.5323 12.529 22.1369 11.5527 19.3176 11.5527C16.8078 11.5527 15.3124 12.61 15.3124 14.3863C15.3124 16.3103 16.803 16.8437 19.208 17.0818C22.0893 17.3628 22.3131 17.7867 22.3131 18.3534C22.3131 19.3345 21.5226 19.7535 19.67 19.7535C17.3412 19.7535 16.8316 19.1678 16.6602 18.0105C16.6411 17.8867 16.5363 17.7962 16.4078 17.7962H15.2696C15.1267 17.7962 15.0171 17.9105 15.0171 18.0486C15.0171 19.5297 15.822 21.2966 19.6747 21.2966C22.456 21.2918 24.0561 20.1917 24.0561 18.2772Z" fill="#1C1B1F"/>
</svg>
