<svg width="32" height="32" viewBox="0 0 32 32" fill="none" xmlns="http://www.w3.org/2000/svg">
<path d="M16.1792 32C15.7537 32 15.322 31.8857 14.9473 31.6698L11.0295 29.3521C10.4453 29.0219 10.731 28.9076 10.9215 28.8441C11.7025 28.5711 11.8613 28.5139 12.6931 28.0377C12.782 27.9869 12.8963 28.006 12.9852 28.0631L15.995 29.8474C16.103 29.9109 16.2554 29.9109 16.357 29.8474L28.0851 23.0785C28.1931 23.015 28.2629 22.888 28.2629 22.761V9.22314C28.2629 9.08979 28.1931 8.96914 28.0788 8.89929L16.357 2.13672C16.249 2.07322 16.103 2.07322 15.995 2.13672L4.27959 8.90565C4.16529 8.96914 4.09545 9.09614 4.09545 9.22949V22.761C4.09545 22.888 4.16529 23.015 4.27959 23.0721L7.49261 24.9263C9.23881 25.7962 10.3056 24.7739 10.3056 23.7389V10.3788C10.3056 10.1883 10.458 10.0423 10.6485 10.0423H12.1343C12.3185 10.0423 12.4772 10.1883 12.4772 10.3788V23.7452C12.4772 26.0693 11.2073 27.4027 9.00387 27.4027C8.32444 27.4027 7.79105 27.4027 6.30519 26.6661L3.23187 24.8945C2.46989 24.4564 2 23.6373 2 22.7546V9.22314C2 8.34686 2.46989 7.52138 3.23187 7.08324L14.9473 0.314317C15.6902 -0.104772 16.6745 -0.104772 17.4111 0.314317L29.1392 7.08959C29.9012 7.52773 30.3711 8.34686 30.3711 9.22949V22.761C30.3711 23.6373 29.9012 24.4564 29.1392 24.9009L17.4111 31.6698C17.0364 31.8857 16.611 32 16.1792 32ZM25.6468 18.659C25.6468 16.1254 23.9323 15.4523 20.332 14.9761C16.6872 14.4935 16.3189 14.2459 16.3189 13.395C16.3189 12.6901 16.63 11.7504 19.3287 11.7504C21.7353 11.7504 22.6243 12.2711 22.9926 13.8966C23.0243 14.049 23.164 14.1633 23.3227 14.1633H24.8467C24.942 14.1633 25.0309 14.1252 25.0944 14.0554C25.1578 13.9855 25.1896 13.8903 25.1832 13.795C24.9483 10.9947 23.0878 9.69302 19.3287 9.69302C15.9823 9.69302 13.9885 11.1027 13.9885 13.4712C13.9885 16.0365 15.976 16.7477 19.1827 17.0652C23.0243 17.4398 23.3227 18.005 23.3227 18.7606C23.3227 20.0687 22.2687 20.6274 19.7986 20.6274C16.6935 20.6274 16.0141 19.8464 15.7855 18.3034C15.7601 18.1383 15.6204 18.0177 15.449 18.0177H13.9313C13.7408 18.0177 13.5948 18.1701 13.5948 18.3542C13.5948 20.329 14.6679 22.6848 19.8049 22.6848C23.5132 22.6784 25.6468 21.2116 25.6468 18.659Z" fill="#111827"/>
</svg>
