<svg width="32" height="33" viewBox="0 0 32 33" fill="none" xmlns="http://www.w3.org/2000/svg">
<path fill-rule="evenodd" clip-rule="evenodd" d="M12.5521 0.936105C12.8633 0.479855 13.4854 0.36228 13.9417 0.673494L16.6632 2.52987C17.1194 2.84108 17.237 3.46323 16.9258 3.91948L15.0694 6.64098C14.7582 7.09723 14.1361 7.21481 13.6798 6.90359C13.2236 6.59238 13.106 5.97023 13.4172 5.51398L14.0844 4.53589C7.78397 5.46247 2.94775 10.8907 2.94775 17.4484C2.94775 20.5174 4.00568 23.3364 5.7775 25.5648C6.12123 25.9971 6.04943 26.6262 5.61714 26.9699C5.18485 27.3136 4.55577 27.2418 4.21205 26.8095C2.16899 24.24 0.947754 20.9855 0.947754 17.4484C0.947754 10.0647 6.26425 3.92278 13.278 2.64178L12.8147 2.32572C12.3584 2.01451 12.2408 1.39236 12.5521 0.936105ZM21.4654 4.46011C21.7156 3.96775 22.3176 3.77143 22.81 4.02162C27.6988 6.50584 31.052 11.5847 31.052 17.4484C31.052 20.9418 29.8607 24.1597 27.8629 26.7142C27.5226 27.1492 26.8942 27.226 26.4591 26.8858C26.0241 26.5456 25.9472 25.9171 26.2875 25.4821C28.02 23.2669 29.052 20.4796 29.052 17.4484C29.052 12.3665 26.1478 7.96111 21.9039 5.80463C21.4116 5.55444 21.2153 4.95248 21.4654 4.46011ZM7.02751 28.3096C7.34852 27.8602 7.97307 27.7561 8.42248 28.0771C10.5586 29.603 13.1729 30.5005 15.9999 30.5005C18.6321 30.5005 21.0795 29.7224 23.1284 28.3839C23.5907 28.0818 24.2104 28.2118 24.5125 28.6741C24.8145 29.1365 24.6846 29.7562 24.2222 30.0583C21.8581 31.6028 19.0323 32.5005 15.9999 32.5005C12.7425 32.5005 9.72413 31.4647 7.26 29.7046C6.81059 29.3836 6.7065 28.759 7.02751 28.3096ZM10.7501 22.7458C10.8625 22.5509 10.8296 22.3062 10.6806 22.1377C10.0642 21.441 9.5842 20.6209 9.28228 19.7192C9.21081 19.5058 9.01525 19.3547 8.79016 19.3547H7.42236C7.14622 19.3547 6.92236 19.1308 6.92236 18.8547V16.1239C6.92236 15.8478 7.14622 15.6239 7.42236 15.6239H8.79029C9.01536 15.6239 9.21092 15.4728 9.28239 15.2594C9.58436 14.3577 10.0644 13.5377 10.6808 12.8411C10.8299 12.6726 10.8628 12.4278 10.7503 12.2329L10.0655 11.0468C9.92739 10.8076 10.0093 10.5018 10.2485 10.3638L12.6134 8.99837C12.8526 8.86029 13.1584 8.94223 13.2964 9.18138L13.9807 10.3665C14.0931 10.5612 14.3213 10.6551 14.5417 10.6106C14.9931 10.5194 15.4602 10.4716 15.9385 10.4716C16.4171 10.4716 16.8844 10.5195 17.3361 10.6107C17.5564 10.6553 17.7847 10.5614 17.8971 10.3667L18.5815 9.18122C18.7196 8.94207 19.0254 8.86013 19.2646 8.9982L21.6295 10.3636C21.8687 10.5017 21.9506 10.8075 21.8125 11.0466L21.1273 12.2335C21.0148 12.4283 21.0477 12.6731 21.1968 12.8416C21.8129 13.5381 22.2928 14.358 22.5947 15.2594C22.6662 15.4728 22.8617 15.6239 23.0868 15.6239H24.455C24.7311 15.6239 24.955 15.8477 24.955 16.1239V18.8547C24.955 19.1308 24.7311 19.3547 24.455 19.3547H23.0869C22.8618 19.3547 22.6663 19.5058 22.5948 19.7192C22.293 20.6207 21.8131 21.4406 21.197 22.1372C21.0479 22.3057 21.015 22.5504 21.1275 22.7452L21.8128 23.932C21.9508 24.1712 21.8689 24.477 21.6297 24.6151L19.2648 25.9805C19.0256 26.1185 18.7198 26.0366 18.5818 25.7975L17.8975 24.6122C17.785 24.4175 17.5568 24.3236 17.3364 24.3682C16.8847 24.4595 16.4172 24.5074 15.9385 24.5074C15.4601 24.5074 14.9929 24.4595 14.5414 24.3683C14.321 24.3238 14.0928 24.4176 13.9803 24.6124L13.2962 25.7973C13.1581 26.0364 12.8524 26.1184 12.6132 25.9803L10.2482 24.6149C10.0091 24.4768 9.92717 24.171 10.0652 23.9319L10.7501 22.7458ZM15.9388 21.2389C18.0095 21.2389 19.6882 19.5602 19.6882 17.4895C19.6882 15.4188 18.0095 13.7401 15.9388 13.7401C13.8681 13.7401 12.1895 15.4188 12.1895 17.4895C12.1895 19.5602 13.8681 21.2389 15.9388 21.2389Z" fill="#111827"/>
</svg>
