<svg width="33" height="33" viewBox="0 0 33 33" fill="none" xmlns="http://www.w3.org/2000/svg">
<path fill-rule="evenodd" clip-rule="evenodd" d="M4.95996 3.2829C4.40768 3.2829 3.95996 3.73061 3.95996 4.2829V28.2829C3.95996 28.8352 4.40768 29.2829 4.95996 29.2829H28.96C29.5122 29.2829 29.96 28.8352 29.96 28.2829V4.2829C29.96 3.73061 29.5122 3.2829 28.96 3.2829H4.95996ZM5.95996 27.2829V5.2829H10.96V27.2829H5.95996ZM15.96 13.2829C15.4077 13.2829 14.96 13.7306 14.96 14.2829C14.96 14.8352 15.4077 15.2829 15.96 15.2829H23.96C24.5122 15.2829 24.96 14.8352 24.96 14.2829C24.96 13.7306 24.5122 13.2829 23.96 13.2829H15.96ZM15.96 17.2829C15.4077 17.2829 14.96 17.7306 14.96 18.2829C14.96 18.8352 15.4077 19.2829 15.96 19.2829H23.96C24.5122 19.2829 24.96 18.8352 24.96 18.2829C24.96 17.7306 24.5122 17.2829 23.96 17.2829H15.96Z" fill="#1C1B1F"/>
</svg>
