<svg width="32" height="32" viewBox="0 0 32 32" fill="none" xmlns="http://www.w3.org/2000/svg">
<path fill-rule="evenodd" clip-rule="evenodd" d="M1.00098 0.000915527C0.448692 0.000915527 0.000976562 0.448631 0.000976562 1.00092V30.9991C0.000976562 31.5514 0.448692 31.9991 1.00098 31.9991H30.9991C31.5514 31.9991 31.9991 31.5514 31.9991 30.9991V1.00092C31.9991 0.448631 31.5514 0.000915527 30.9991 0.000915527H1.00098ZM2.00098 29.9991V2.00092H8.50051V29.9991H2.00098ZM14.7497 12.5002C14.1974 12.5002 13.7497 12.9479 13.7497 13.5002C13.7497 14.0524 14.1974 14.5002 14.7497 14.5002H24.7491C25.3014 14.5002 25.7491 14.0524 25.7491 13.5002C25.7491 12.9479 25.3014 12.5002 24.7491 12.5002H14.7497ZM14.7497 17.4998C14.1974 17.4998 13.7497 17.9476 13.7497 18.4998C13.7497 19.0521 14.1974 19.4998 14.7497 19.4998H24.7491C25.3014 19.4998 25.7491 19.0521 25.7491 18.4998C25.7491 17.9476 25.3014 17.4998 24.7491 17.4998H14.7497Z" fill="#111827"/>
</svg>
