<svg width="32" height="32" viewBox="0 0 32 32" fill="none" xmlns="http://www.w3.org/2000/svg">
<path fill-rule="evenodd" clip-rule="evenodd" d="M16.7824 2.06335H2V29.9366H30.0005V13.5212C30.0005 12.9689 30.4482 12.5212 31.0005 12.5212C31.5528 12.5212 32.0005 12.9689 32.0005 13.5212V30.4366C32.0005 31.2651 31.3289 31.9366 30.5005 31.9366H1.5C0.671575 31.9366 0 31.2651 0 30.4366V1.56335C0 0.734925 0.671575 0.0633545 1.5 0.0633545H16.7824C17.3347 0.0633545 17.7824 0.51107 17.7824 1.06335C17.7824 1.61564 17.3347 2.06335 16.7824 2.06335ZM25.6838 0.770638C25.4888 0.575618 25.1727 0.575342 24.9773 0.770019L12.1568 13.5457C12.0745 13.6277 12.0233 13.7358 12.0121 13.8515L11.4696 19.4339C11.441 19.7278 11.672 19.9822 11.9672 19.9822L18.058 19.9822C18.1914 19.9822 18.3193 19.9289 18.4132 19.8341L31.1687 6.9594C31.3624 6.76387 31.3617 6.44856 31.1671 6.25394L25.6838 0.770638ZM27.2373 8.57541L23.5487 4.88679C23.3535 4.69158 23.3535 4.37509 23.5486 4.17981L25.0776 2.64972C25.2721 2.45508 25.5874 2.45418 25.783 2.64772L29.4678 6.29349C29.6627 6.48633 29.6659 6.80016 29.4751 6.99699L27.9498 8.56993C27.7555 8.77033 27.4347 8.7728 27.2373 8.57541Z" fill="#111827"/>
</svg>
