<svg width="32" height="32" viewBox="0 0 32 32" fill="none" xmlns="http://www.w3.org/2000/svg">
<path fill-rule="evenodd" clip-rule="evenodd" d="M1 0H31C31.5523 0 32 0.447716 32 1V22.1882C32 22.4842 31.8688 22.7651 31.6418 22.9551L21.1128 31.7669C20.9329 31.9175 20.7057 32 20.471 32H1C0.447715 32 0 31.5523 0 31V1C0 0.447714 0.447715 0 1 0ZM20.4772 23.2208V30.08L29.9164 22.2208H21.4772C20.9249 22.2208 20.4772 22.6685 20.4772 23.2208ZM10.1818 9.18182C9.62952 9.18182 9.1818 9.62954 9.1818 10.1818C9.1818 10.7341 9.62952 11.1818 10.1818 11.1818H21.8182C22.3705 11.1818 22.8182 10.7341 22.8182 10.1818C22.8182 9.62954 22.3705 9.18182 21.8182 9.18182H10.1818ZM10.1818 15C9.62952 15 9.1818 15.4477 9.1818 16C9.1818 16.5523 9.62952 17 10.1818 17H21.8182C22.3705 17 22.8182 16.5523 22.8182 16C22.8182 15.4477 22.3705 15 21.8182 15H10.1818ZM9.1818 21.8182C9.1818 21.2659 9.62952 20.8182 10.1818 20.8182H16C16.5523 20.8182 17 21.2659 17 21.8182C17 22.3705 16.5523 22.8182 16 22.8182H10.1818C9.62952 22.8182 9.1818 22.3705 9.1818 21.8182Z" fill="#111827"/>
</svg>
