<svg width="33" height="33" viewBox="0 0 33 33" fill="none" xmlns="http://www.w3.org/2000/svg">
<path fill-rule="evenodd" clip-rule="evenodd" d="M5.95996 4.2829H27.96C28.5122 4.2829 28.96 4.73061 28.96 5.2829V20.8073C28.96 21.1033 28.8288 21.3841 28.6018 21.5741L20.8642 28.0498C20.6843 28.2004 20.4571 28.2829 20.2224 28.2829H5.95996C5.40768 28.2829 4.95996 27.8352 4.95996 27.2829V5.2829C4.95996 4.73061 5.40768 4.2829 5.95996 4.2829ZM20.3181 21.9485V26.8429L27.3975 20.9485H21.3181C20.7658 20.9485 20.3181 21.3962 20.3181 21.9485ZM12.5962 10.9193C12.0439 10.9193 11.5962 11.367 11.5962 11.9193C11.5962 12.4715 12.0439 12.9193 12.5962 12.9193H21.3235C21.8757 12.9193 22.3235 12.4715 22.3235 11.9193C22.3235 11.367 21.8757 10.9193 21.3235 10.9193H12.5962ZM12.5962 15.2829C12.0439 15.2829 11.5962 15.7306 11.5962 16.2829C11.5962 16.8352 12.0439 17.2829 12.5962 17.2829H21.3235C21.8757 17.2829 22.3235 16.8352 22.3235 16.2829C22.3235 15.7306 21.8757 15.2829 21.3235 15.2829H12.5962ZM11.5962 20.6465C11.5962 20.0943 12.0439 19.6465 12.5962 19.6465H16.9598C17.5121 19.6465 17.9598 20.0943 17.9598 20.6465C17.9598 21.1988 17.5121 21.6465 16.9598 21.6465H12.5962C12.0439 21.6465 11.5962 21.1988 11.5962 20.6465Z" fill="#1C1B1F"/>
</svg>
