<svg width="33" height="33" viewBox="0 0 33 33" fill="none" xmlns="http://www.w3.org/2000/svg">
<path fill-rule="evenodd" clip-rule="evenodd" d="M12.4214 4.7829C12.4214 4.23061 11.9737 3.7829 11.4214 3.7829C10.8691 3.7829 10.4214 4.23061 10.4214 4.7829V6.62903H8.55664C8.00436 6.62903 7.55664 7.07674 7.55664 7.62903V27.7829C7.55664 28.3352 8.00436 28.7829 8.55664 28.7829H25.3637C25.916 28.7829 26.3637 28.3352 26.3637 27.7829V7.62903C26.3637 7.07674 25.916 6.62903 25.3637 6.62903H23.4985V4.7829C23.4985 4.23061 23.0508 3.7829 22.4985 3.7829C21.9462 3.7829 21.4985 4.23061 21.4985 4.7829V6.62903H17.96V4.7829C17.96 4.23061 17.5122 3.7829 16.96 3.7829C16.4077 3.7829 15.96 4.23061 15.96 4.7829V6.62903H12.4214V4.7829ZM13.2681 15.7829C12.7158 15.7829 12.2681 16.2306 12.2681 16.7829C12.2681 17.3352 12.7158 17.7829 13.2681 17.7829H20.6527C21.205 17.7829 21.6527 17.3352 21.6527 16.7829C21.6527 16.2306 21.205 15.7829 20.6527 15.7829H13.2681ZM13.2681 19.4752C12.7158 19.4752 12.2681 19.9229 12.2681 20.4752C12.2681 21.0275 12.7158 21.4752 13.2681 21.4752H20.6527C21.205 21.4752 21.6527 21.0275 21.6527 20.4752C21.6527 19.9229 21.205 19.4752 20.6527 19.4752H13.2681Z" fill="#1C1B1F"/>
</svg>
