<svg width="33" height="33" viewBox="0 0 33 33" fill="none" xmlns="http://www.w3.org/2000/svg">
<path fill-rule="evenodd" clip-rule="evenodd" d="M17.5753 5.53674H6.16406V27.029H27.7563V14.3335C27.7563 13.7812 28.2041 13.3335 28.7563 13.3335C29.3086 13.3335 29.7563 13.7812 29.7563 14.3335V27.529C29.7563 28.3574 29.0848 29.029 28.2563 29.029H5.66406C4.83564 29.029 4.16406 28.3574 4.16406 27.529V5.03674C4.16406 4.20832 4.83563 3.53674 5.66406 3.53674H17.5753C18.1276 3.53674 18.5753 3.98446 18.5753 4.53674C18.5753 5.08903 18.1276 5.53674 17.5753 5.53674ZM24.6505 4.38194C24.4555 4.18692 24.1394 4.18664 23.9441 4.38132L13.9648 14.3257C13.8824 14.4077 13.8313 14.5158 13.82 14.6315L13.4085 18.8661C13.38 19.16 13.6109 19.4145 13.9062 19.4145L18.5337 19.4145C18.6671 19.4145 18.795 19.3612 18.8889 19.2664L28.8137 9.24889C29.0074 9.05337 29.0067 8.73805 28.812 8.54343L24.6505 4.38194ZM25.7204 10.3675L22.9719 7.61892C22.7767 7.42371 22.7767 7.10722 22.9718 6.91194L24.0237 5.85937C24.2182 5.66473 24.5334 5.66384 24.729 5.85737L27.476 8.57529C27.6709 8.76813 27.6742 9.08195 27.4833 9.27879L26.433 10.362C26.2386 10.5624 25.9178 10.5648 25.7204 10.3675Z" fill="#1C1B1F"/>
</svg>
