<svg width="32" height="32" viewBox="0 0 32 32" fill="none" xmlns="http://www.w3.org/2000/svg">
<path fill-rule="evenodd" clip-rule="evenodd" d="M31.9931 4.98642C31.9931 7.73988 29.761 9.97199 27.0076 9.97199C24.2541 9.97199 22.022 7.73988 22.022 4.98642C22.022 2.23297 24.2541 0.000854492 27.0076 0.000854492C29.761 0.000854492 31.9931 2.23297 31.9931 4.98642ZM1.00684 0.0857294C0.454551 0.0857294 0.00683594 0.533445 0.00683594 1.08573V30.9991C0.00683594 31.5514 0.454551 31.9991 1.00684 31.9991H30.9202C31.4725 31.9991 31.9202 31.5514 31.9202 30.9991V16.0424C31.9202 15.4902 31.4725 15.0424 30.9202 15.0424C30.368 15.0424 29.9202 15.4902 29.9202 16.0424V29.9991H2.00684V2.08573H15.9635C16.5158 2.08573 16.9635 1.63801 16.9635 1.08573C16.9635 0.533445 16.5158 0.0857294 15.9635 0.0857294H1.00684Z" fill="#111827"/>
</svg>
