<svg width="33" height="33" viewBox="0 0 33 33" fill="none" xmlns="http://www.w3.org/2000/svg">
<path fill-rule="evenodd" clip-rule="evenodd" d="M27.06 9.10473C27.06 10.7184 25.7519 12.0265 24.1383 12.0265C22.5246 12.0265 21.2165 10.7184 21.2165 9.10473C21.2165 7.49109 22.5246 6.18298 24.1383 6.18298C25.7519 6.18298 27.06 7.49109 27.06 9.10473ZM7.85986 6.85252C7.30758 6.85252 6.85986 7.30023 6.85986 7.85252V25.383C6.85986 25.9353 7.30758 26.383 7.85986 26.383H25.3903C25.9426 26.383 26.3903 25.9353 26.3903 25.383V16.6177C26.3903 16.0655 25.9426 15.6177 25.3903 15.6177C24.838 15.6177 24.3903 16.0655 24.3903 16.6177V24.383H8.85986V8.85252H16.6251C17.1774 8.85252 17.6251 8.4048 17.6251 7.85252C17.6251 7.30023 17.1774 6.85252 16.6251 6.85252H7.85986Z" fill="#1C1B1F"/>
</svg>
