<svg width="32" height="32" viewBox="0 0 32 32" fill="none" xmlns="http://www.w3.org/2000/svg">
<path d="M2 11.0369V10.5369H1.5V11.0369H2ZM10.3655 11.0369H10.8655V10.5369H10.3655V11.0369ZM2 19.4022H1.5V19.9022H2V19.4022ZM6.15141 19.4022V19.9022H6.65141V19.4022H6.15141ZM6.15141 13.5964V13.0964H5.65141V13.5964H6.15141ZM7.80584 13.5964H8.30584V13.0964H7.80584V13.5964ZM7.80584 19.4022H7.30584V19.9022H7.80584V19.4022ZM10.3655 19.4022V19.9022H10.8655V19.4022H10.3655ZM2 11.5369H10.3655V10.5369H2V11.5369ZM2.5 19.4022V11.0369H1.5V19.4022H2.5ZM6.15141 18.9022H2V19.9022H6.15141V18.9022ZM6.65141 19.4022V13.5964H5.65141V19.4022H6.65141ZM6.15141 14.0964H7.80584V13.0964H6.15141V14.0964ZM7.30584 13.5964V19.4022H8.30584V13.5964H7.30584ZM10.3655 18.9022H7.80584V19.9022H10.3655V18.9022ZM9.86554 11.0369V19.4022H10.8655V11.0369H9.86554Z" fill="#1C1B1F"/>
<path fill-rule="evenodd" clip-rule="evenodd" d="M10.3655 11.0369H18.731V19.4022H15.068V20.9632H10.3655V11.0369ZM14.3315 13.5964H15.9859V16.8116H14.3315V13.5964Z" stroke="#1C1B1F"/>
<path d="M18.731 11.0369H30V19.4022H27.476V13.5964H25.8215V19.4022H24.1696V13.5964H22.5152V19.4022H18.731V11.0369Z" stroke="#1C1B1F"/>
</svg>
