<svg width="33" height="33" viewBox="0 0 33 33" fill="none" xmlns="http://www.w3.org/2000/svg">
<path fill-rule="evenodd" clip-rule="evenodd" d="M0.0395508 10.7219H0.539551H9.30153H9.80153H9.80168H10.3017H18.5638H19.0637H19.0638H19.5637H31.5406H32.0406V11.2219V20.4839V20.9839H31.5406H28.746H28.246V20.4839V14.5557H27.4143V20.4839V20.9839H26.9143H25.0854H24.5854V20.4839V14.5557H23.7536V20.4839V20.9839H23.2536H19.5637H19.0638H19.0637H18.5638H15.508V22.2122V22.7122H15.008H9.80153H9.30153V22.2122V20.9839H6.96755H6.46755V20.4839V14.5558H5.6358V20.4839V20.9839H5.1358H0.539551H0.0395508V20.4839V11.2219V10.7219ZM1.03955 11.7219H9.30153V19.9839H7.46755V14.0558V13.5558H6.96755H5.1358H4.6358V14.0558V19.9839H1.03955V11.7219ZM10.3017 20.9839H10.3015V21.7122H14.508V20.4839V19.9839H15.008H18.5637V11.7219H10.3017V20.4839V20.9839ZM13.6926 13.5557H14.1926H16.0243H16.5243V14.0557V17.6156V18.1156H16.0243H14.1926H13.6926V17.6156V14.0557V13.5557ZM14.6926 14.5557V17.1156H15.5243V14.5557H14.6926ZM19.5638 19.9839V11.7219H31.0406V19.9839H29.246V14.0557V13.5557H28.746H26.9143H26.4143V14.0557V19.9839H25.5854V14.0557V13.5557H25.0854H23.2536H22.7536V14.0557V19.9839H19.5638Z" fill="#111827"/>
</svg>
