<svg width="32" height="33" viewBox="0 0 32 33" fill="none" xmlns="http://www.w3.org/2000/svg">
<path d="M2 11.1782V10.6782H1.5V11.1782H2ZM10.3655 11.1782H10.8655V10.6782H10.3655V11.1782ZM2 19.5436H1.5V20.0436H2V19.5436ZM6.15141 19.5436V20.0436H6.65141V19.5436H6.15141ZM6.15141 13.7377V13.2377H5.65141V13.7377H6.15141ZM7.80584 13.7377H8.30584V13.2377H7.80584V13.7377ZM7.80584 19.5436H7.30584V20.0436H7.80584V19.5436ZM10.3655 19.5436V20.0436H10.8655V19.5436H10.3655ZM2 11.6782H10.3655V10.6782H2V11.6782ZM2.5 19.5436V11.1782H1.5V19.5436H2.5ZM6.15141 19.0436H2V20.0436H6.15141V19.0436ZM6.65141 19.5436V13.7377H5.65141V19.5436H6.65141ZM6.15141 14.2377H7.80584V13.2377H6.15141V14.2377ZM7.30584 13.7377V19.5436H8.30584V13.7377H7.30584ZM10.3655 19.0436H7.80584V20.0436H10.3655V19.0436ZM9.86554 11.1782V19.5436H10.8655V11.1782H9.86554Z" fill="#1C1B1F"/>
<path fill-rule="evenodd" clip-rule="evenodd" d="M10.3655 11.1782H18.731V19.5436H15.068V21.1046H10.3655V11.1782ZM14.3315 13.7377H15.9859V16.953H14.3315V13.7377Z" stroke="#1C1B1F"/>
<path d="M18.731 11.1782H30V19.5436H27.476V13.7377H25.8215V19.5436H24.1696V13.7377H22.5152V19.5436H18.731V11.1782Z" stroke="#1C1B1F"/>
</svg>
