<svg width="33" height="33" viewBox="0 0 33 33" fill="none" xmlns="http://www.w3.org/2000/svg">
<path fill-rule="evenodd" clip-rule="evenodd" d="M28.96 16.283C28.96 22.9104 23.5874 28.283 16.96 28.283C10.3325 28.283 4.95996 22.9104 4.95996 16.283C4.95996 9.65554 10.3325 4.28296 16.96 4.28296C23.5874 4.28296 28.96 9.65554 28.96 16.283ZM13.96 16.283C13.96 14.796 14.3636 13.495 14.9636 12.595C15.5683 11.688 16.2938 11.283 16.96 11.283C17.6261 11.283 18.3517 11.688 18.9563 12.595C19.5563 13.495 19.96 14.796 19.96 16.283C19.96 17.7699 19.5563 19.0709 18.9563 19.9709C18.3517 20.8779 17.6261 21.283 16.96 21.283C16.2938 21.283 15.5683 20.8779 14.9636 19.9709C14.3636 19.0709 13.96 17.7699 13.96 16.283ZM16.96 9.28296C15.417 9.28296 14.1425 10.221 13.2995 11.4856C12.4518 12.7572 11.96 14.4562 11.96 16.283C11.96 18.1097 12.4518 19.8087 13.2995 21.0803C14.1425 22.3449 15.417 23.283 16.96 23.283C18.5029 23.283 19.7774 22.3449 20.6204 21.0803C21.4681 19.8087 21.96 18.1097 21.96 16.283C21.96 14.4562 21.4681 12.7572 20.6204 11.4856C19.7774 10.221 18.5029 9.28296 16.96 9.28296Z" fill="#1C1B1F"/>
</svg>
