<svg width="32" height="32" viewBox="0 0 32 32" fill="none" xmlns="http://www.w3.org/2000/svg">
<path fill-rule="evenodd" clip-rule="evenodd" d="M32 16C32 24.8366 24.8366 32 16 32C7.16344 32 0 24.8366 0 16C0 7.16344 7.16344 0 16 0C24.8366 0 32 7.16344 32 16ZM11.6667 16C11.6667 13.9607 12.2195 12.1598 13.0608 10.8978C13.9068 9.62891 14.9656 9 16 9C17.0344 9 18.0932 9.62891 18.9392 10.8978C19.7805 12.1598 20.3333 13.9607 20.3333 16C20.3333 18.0392 19.7805 19.8402 18.9392 21.1022C18.0932 22.3711 17.0344 23 16 23C14.9656 23 13.9068 22.3711 13.0608 21.1022C12.2195 19.8402 11.6667 18.0392 11.6667 16ZM16 7C14.0889 7 12.481 8.16195 11.3967 9.78845C10.3077 11.4219 9.66667 13.621 9.66667 16C9.66667 18.379 10.3077 20.5781 11.3967 22.2116C12.481 23.8381 14.0889 25 16 25C17.9111 25 19.519 23.8381 20.6033 22.2116C21.6923 20.5781 22.3333 18.379 22.3333 16C22.3333 13.621 21.6923 11.4219 20.6033 9.78845C19.519 8.16195 17.9111 7 16 7Z" fill="#111827"/>
</svg>
