<svg width="33" height="33" viewBox="0 0 33 33" fill="none" xmlns="http://www.w3.org/2000/svg">
<path fill-rule="evenodd" clip-rule="evenodd" d="M16.96 28.283C23.5874 28.283 28.96 22.9104 28.96 16.283C28.96 9.65554 23.5874 4.28296 16.96 4.28296C10.3325 4.28296 4.95996 9.65554 4.95996 16.283C4.95996 22.9104 10.3325 28.283 16.96 28.283ZM18.4726 8.92445C18.9467 9.20766 19.1015 9.82162 18.8183 10.2958L16.732 13.7886C16.8075 13.7849 16.8835 13.783 16.96 13.783C19.4452 13.783 21.46 15.7977 21.46 18.283C21.46 20.7682 19.4452 22.783 16.96 22.783C14.4747 22.783 12.46 20.7682 12.46 18.283C12.46 17.4663 12.6775 16.7005 13.0577 16.0403C13.0614 16.0339 13.0651 16.0275 13.0689 16.0211C13.0854 15.9928 13.1021 15.9647 13.1192 15.9368L17.1013 9.27016C17.3845 8.79602 17.9985 8.64124 18.4726 8.92445ZM14.46 18.283C14.46 16.9022 15.5792 15.783 16.96 15.783C18.3407 15.783 19.46 16.9022 19.46 18.283C19.46 19.6637 18.3407 20.783 16.96 20.783C15.5792 20.783 14.46 19.6637 14.46 18.283Z" fill="#1C1B1F"/>
</svg>
