<svg width="33" height="33" viewBox="0 0 33 33" fill="none" xmlns="http://www.w3.org/2000/svg">
<path d="M21.8415 10.8663C21.8387 11.4758 21.7103 12.0781 21.4643 12.6358C21.2183 13.1934 20.8599 13.6943 20.4116 14.1072C19.4694 14.9707 18.2378 15.4496 16.9598 15.4496C15.6818 15.4496 14.4502 14.9707 13.5079 14.1072C13.0575 13.696 12.6976 13.1955 12.4515 12.6374C12.2053 12.0794 12.0781 11.4762 12.0781 10.8663C12.0781 10.2564 12.2053 9.65317 12.4515 9.09515C12.6976 8.53713 13.0575 8.03656 13.5079 7.62539C14.4502 6.76193 15.6818 6.28296 16.9598 6.28296C18.2378 6.28296 19.4694 6.76193 20.4116 7.62539C20.8599 8.0383 21.2183 8.53921 21.4643 9.09684C21.7103 9.65447 21.8387 10.2568 21.8415 10.8663V10.8663Z" stroke="#1C1B1F" stroke-width="2" stroke-linecap="round" stroke-linejoin="round"/>
<path d="M22.7289 20.8663C22.7256 21.5865 22.5739 22.2984 22.2832 22.9574C21.9924 23.6165 21.5689 24.2084 21.0391 24.6964C19.9256 25.7169 18.4701 26.2829 16.9597 26.2829C15.4493 26.2829 13.9937 25.7169 12.8802 24.6964C12.3478 24.2105 11.9226 23.6189 11.6316 22.9594C11.3407 22.3 11.1904 21.5871 11.1904 20.8663C11.1904 20.1455 11.3407 19.4326 11.6316 18.7731C11.9226 18.1136 12.3478 17.522 12.8802 17.0361C13.9937 16.0156 15.4493 15.4496 16.9597 15.4496C18.4701 15.4496 19.9256 16.0156 21.0391 17.0361C21.5689 17.5241 21.9924 18.1161 22.2832 18.7751C22.5739 19.4341 22.7256 20.146 22.7289 20.8663Z" stroke="#1C1B1F" stroke-width="2" stroke-linecap="round" stroke-linejoin="round"/>
</svg>
