<svg width="32" height="32" viewBox="0 0 32 32" fill="none" xmlns="http://www.w3.org/2000/svg">
<path fill-rule="evenodd" clip-rule="evenodd" d="M0 1C0 0.447715 0.447715 0 1 0H31C31.5523 0 32 0.447715 32 1V31C32 31.5523 31.5523 32 31 32H1C0.447715 32 0 31.5523 0 31V1ZM20.8142 16.3239C21.3545 15.4559 21.6667 14.4311 21.6667 13.3333C21.6667 10.2037 19.1296 7.66667 16 7.66667C12.8704 7.66667 10.3333 10.2037 10.3333 13.3333C10.3333 16.4629 12.8704 19 16 19C16.3174 19 16.6287 18.9739 16.9319 18.9237L13.8081 24.1539C13.5249 24.6281 13.6798 25.2421 14.1539 25.5252C14.6281 25.8084 15.242 25.6536 15.5252 25.1795L20.8142 16.3239ZM19.1829 15.1547C19.1836 15.1536 19.1843 15.1525 19.185 15.1513C19.4915 14.6155 19.6667 13.9949 19.6667 13.3333C19.6667 11.3083 18.025 9.66667 16 9.66667C13.975 9.66667 12.3333 11.3083 12.3333 13.3333C12.3333 15.3584 13.975 17 16 17C17.3141 17 18.4668 16.3087 19.1141 15.2699L19.1829 15.1547Z" fill="#111827"/>
</svg>
