<svg width="32" height="32" viewBox="0 0 32 32" fill="none" xmlns="http://www.w3.org/2000/svg">
<path fill-rule="evenodd" clip-rule="evenodd" d="M1 0C0.447715 0 0 0.447715 0 1V31C0 31.5523 0.447715 32 1 32H31C31.5523 32 32 31.5523 32 31V1C32 0.447715 31.5523 0 31 0H1ZM13.3058 7C12.8154 7 12.3974 7.35556 12.3187 7.83957L11.013 15.8733C10.9433 16.3016 11.1579 16.726 11.5442 16.9238C11.9305 17.1216 12.4002 17.0477 12.7071 16.7408C13.2199 16.228 13.8732 15.8788 14.5844 15.7374C15.2957 15.5959 16.0329 15.6685 16.7029 15.946C17.3729 16.2235 17.9455 16.6935 18.3484 17.2964C18.7513 17.8994 18.9663 18.6083 18.9663 19.3335C18.9663 20.0586 18.7513 20.7675 18.3484 21.3705C17.9455 21.9735 17.3729 22.4434 16.7029 22.7209C16.0329 22.9984 15.2957 23.071 14.5844 22.9296C13.8732 22.7881 13.2199 22.4389 12.7071 21.9261C12.3166 21.5356 11.6834 21.5356 11.2929 21.9261C10.9024 22.3166 10.9024 22.9498 11.2929 23.3403C12.0854 24.1328 13.0951 24.6725 14.1943 24.8911C15.2935 25.1098 16.4328 24.9976 17.4683 24.5687C18.5037 24.1398 19.3887 23.4135 20.0113 22.4816C20.634 21.5498 20.9663 20.4542 20.9663 19.3335C20.9663 18.2127 20.634 17.1171 20.0113 16.1853C19.3887 15.2534 18.5037 14.5271 17.4683 14.0982C16.4328 13.6694 15.2935 13.5571 14.1943 13.7758C13.9028 13.8338 13.6176 13.9143 13.3411 14.0162L14.1564 9H20C20.5523 9 21 8.55229 21 8C21 7.44772 20.5523 7 20 7H13.3058Z" fill="#111827"/>
</svg>
