<svg width="32" height="32" viewBox="0 0 32 32" fill="none" xmlns="http://www.w3.org/2000/svg">
<path fill-rule="evenodd" clip-rule="evenodd" d="M1 0C0.447715 0 0 0.447715 0 1V31C0 31.5523 0.447715 32 1 32H31C31.5523 32 32 31.5523 32 31V1C32 0.447715 31.5523 0 31 0H1ZM17.8963 8C17.8963 7.63493 17.6973 7.29888 17.3773 7.12328C17.0572 6.94768 16.6669 6.96045 16.359 7.15659L12.2681 9.76263C11.8023 10.0594 11.6652 10.6775 11.9619 11.1433C12.2587 11.6091 12.8768 11.7462 13.3426 11.4494L15.8963 9.82269V24C15.8963 24.5523 16.344 25 16.8963 25C17.4486 25 17.8963 24.5523 17.8963 24V8Z" fill="#111827"/>
</svg>
