<svg width="32" height="32" viewBox="0 0 32 32" fill="none" xmlns="http://www.w3.org/2000/svg">
<path fill-rule="evenodd" clip-rule="evenodd" d="M32 16C32 24.8366 24.8366 32 16 32C7.16344 32 0 24.8366 0 16C0 7.16344 7.16344 0 16 0C24.8366 0 32 7.16344 32 16ZM13.3058 7.66667C12.8154 7.66667 12.3974 8.02223 12.3187 8.50623L11.013 16.54C10.9433 16.9683 11.1579 17.3927 11.5442 17.5905C11.9305 17.7883 12.4002 17.7144 12.7071 17.4075C13.2199 16.8947 13.8732 16.5455 14.5844 16.404C15.2957 16.2625 16.0329 16.3352 16.7029 16.6127C17.3729 16.8902 17.9455 17.3601 18.3484 17.9631C18.7513 18.5661 18.9663 19.2749 18.9663 20.0001C18.9663 20.7253 18.7513 21.4342 18.3484 22.0372C17.9455 22.6401 17.3729 23.1101 16.7029 23.3876C16.0329 23.6651 15.2957 23.7377 14.5844 23.5962C13.8732 23.4548 13.2199 23.1055 12.7071 22.5928C12.3166 22.2022 11.6834 22.2022 11.2929 22.5928C10.9024 22.9833 10.9024 23.6164 11.2929 24.007C12.0854 24.7995 13.0951 25.3392 14.1943 25.5578C15.2935 25.7764 16.4328 25.6642 17.4683 25.2354C18.5037 24.8065 19.3887 24.0802 20.0113 23.1483C20.634 22.2164 20.9663 21.1209 20.9663 20.0001C20.9663 18.8794 20.634 17.7838 20.0113 16.852C19.3887 15.9201 18.5037 15.1938 17.4683 14.7649C16.4328 14.336 15.2935 14.2238 14.1943 14.4425C13.9028 14.5004 13.6176 14.581 13.3411 14.6829L14.1564 9.66667H20C20.5523 9.66667 21 9.21895 21 8.66667C21 8.11438 20.5523 7.66667 20 7.66667H13.3058Z" fill="#111827"/>
</svg>
