<svg width="32" height="32" viewBox="0 0 32 32" fill="none" xmlns="http://www.w3.org/2000/svg">
<path fill-rule="evenodd" clip-rule="evenodd" d="M32 16C32 24.8366 24.8366 32 16 32C7.16344 32 0 24.8366 0 16C0 7.16344 7.16344 0 16 0C24.8366 0 32 7.16344 32 16ZM17.5681 8C17.5681 7.63493 17.3692 7.29888 17.0491 7.12328C16.7291 6.94768 16.3388 6.96045 16.0309 7.15659L11.9399 9.76263C11.4741 10.0594 11.3371 10.6775 11.6338 11.1433C11.9305 11.6091 12.5487 11.7462 13.0145 11.4494L15.5681 9.82269V24C15.5681 24.5523 16.0159 25 16.5681 25C17.1204 25 17.5681 24.5523 17.5681 24V8Z" fill="#111827"/>
</svg>
