<svg width="33" height="33" viewBox="0 0 33 33" fill="none" xmlns="http://www.w3.org/2000/svg">
<path fill-rule="evenodd" clip-rule="evenodd" d="M5.95996 4.28296C5.40768 4.28296 4.95996 4.73067 4.95996 5.28296V27.283C4.95996 27.8352 5.40768 28.283 5.95996 28.283H27.96C28.5122 28.283 28.96 27.8352 28.96 27.283V5.28296C28.96 4.73067 28.5122 4.28296 27.96 4.28296H5.95996ZM13.9697 9.28296C13.4174 9.28296 12.9697 9.73067 12.9697 10.283C12.9697 10.8352 13.4174 11.283 13.9697 11.283H18.5754L15.1172 21.9752C14.9473 22.5007 15.2355 23.0645 15.761 23.2344C16.2865 23.4044 16.8502 23.1162 17.0202 22.5907L20.9014 10.5907C20.9998 10.2863 20.9467 9.95328 20.7585 9.69463C20.5703 9.43598 20.2697 9.28296 19.9499 9.28296H13.9697Z" fill="#1C1B1F"/>
</svg>
