<svg width="32" height="32" viewBox="0 0 32 32" fill="none" xmlns="http://www.w3.org/2000/svg">
<path fill-rule="evenodd" clip-rule="evenodd" d="M0 1C0 0.447715 0.447715 0 1 0H31C31.5523 0 32 0.447715 32 1V31C32 31.5523 31.5523 32 31 32H1C0.447715 32 0 31.5523 0 31V1ZM18.9342 12.7096C19.4865 12.7096 19.9342 13.1574 19.9342 13.7096V23.9999C19.9342 24.5522 19.4865 24.9999 18.9342 24.9999C18.382 24.9999 17.9342 24.5522 17.9342 23.9999V19.7632H11.1556C10.8301 19.7632 10.525 19.6048 10.3377 19.3386C10.1504 19.0724 10.1044 18.7318 10.2144 18.4254L14.0775 7.66218C14.2641 7.14236 14.8367 6.87222 15.3565 7.05879C15.8764 7.24536 16.1465 7.818 15.9599 8.33782L12.577 17.7632H17.9342V13.7096C17.9342 13.1574 18.382 12.7096 18.9342 12.7096Z" fill="#111827"/>
</svg>
