<svg width="33" height="33" viewBox="0 0 33 33" fill="none" xmlns="http://www.w3.org/2000/svg">
<path fill-rule="evenodd" clip-rule="evenodd" d="M4.95996 5.28296C4.95996 4.73067 5.40768 4.28296 5.95996 4.28296H27.96C28.5122 4.28296 28.96 4.73067 28.96 5.28296V27.283C28.96 27.8352 28.5122 28.283 27.96 28.283H5.95996C5.40768 28.283 4.95996 27.8352 4.95996 27.283V5.28296ZM19.1606 13.5652C19.7129 13.5652 20.1606 14.0129 20.1606 14.5652V22.2829C20.1606 22.8352 19.7129 23.2829 19.1606 23.2829C18.6084 23.2829 18.1606 22.8352 18.1606 22.2829V19.3554H13.3267C13.0012 19.3554 12.6961 19.197 12.5088 18.9308C12.3215 18.6646 12.2755 18.3239 12.3854 18.0176L15.2828 9.94514C15.4694 9.42532 16.042 9.15518 16.5618 9.34175C17.0816 9.52832 17.3518 10.101 17.1652 10.6208L14.748 17.3554H18.1606V14.5652C18.1606 14.0129 18.6084 13.5652 19.1606 13.5652Z" fill="#1C1B1F"/>
</svg>
