<svg width="33" height="33" viewBox="0 0 33 33" fill="none" xmlns="http://www.w3.org/2000/svg">
<path fill-rule="evenodd" clip-rule="evenodd" d="M16.96 28.283C23.5874 28.283 28.96 22.9104 28.96 16.283C28.96 9.65554 23.5874 4.28296 16.96 4.28296C10.3325 4.28296 4.95996 9.65554 4.95996 16.283C4.95996 22.9104 10.3325 28.283 16.96 28.283ZM17.1315 11.2914C16.7286 11.2517 16.3244 11.353 15.9877 11.5779C15.6511 11.8028 15.4028 12.1375 15.2853 12.525C15.1678 12.9124 15.1882 13.3286 15.3432 13.7027C15.4981 14.0767 15.778 14.3855 16.135 14.5763C16.3889 14.712 16.6706 14.7821 16.955 14.783C16.9583 14.783 16.9616 14.783 16.9649 14.783C17.0772 14.7826 17.1899 14.7715 17.3014 14.7493C17.6985 14.6704 18.0559 14.4561 18.3127 14.1432C18.5696 13.8302 18.71 13.4378 18.71 13.033H19.71L18.71 13.0317C18.7103 12.8022 18.6652 12.575 18.5774 12.363C18.4896 12.151 18.3608 11.9585 18.1983 11.7964L18.1974 11.7955C17.9111 11.5092 17.5344 11.3311 17.1315 11.2914ZM19.5965 15.6996C19.6885 15.6087 19.7761 15.5127 19.8587 15.4119C20.409 14.7414 20.7098 13.9009 20.71 13.0335C20.7105 12.5408 20.6137 12.0528 20.4252 11.5976C20.2366 11.1424 19.9599 10.7288 19.6111 10.3808C18.9977 9.76761 18.1907 9.38603 17.3275 9.30102C16.4641 9.21598 15.5979 9.43295 14.8766 9.91495C14.1552 10.397 13.6233 11.1142 13.3714 11.9444C13.1196 12.7746 13.1634 13.6665 13.4954 14.468C13.688 14.933 13.9706 15.3508 14.3234 15.6996C13.6458 16.2356 13.1453 16.9674 12.893 17.7993C12.6075 18.7402 12.6572 19.751 13.0335 20.6594C13.4097 21.5678 14.0894 22.3176 14.9565 22.7811C15.8237 23.2446 16.8247 23.3931 17.7891 23.2013C18.7535 23.0095 19.6215 22.4892 20.2453 21.7291C20.8689 20.9692 21.2098 20.0166 21.21 19.0335C21.2106 18.4751 21.1009 17.9221 20.8872 17.4062C20.6735 16.8903 20.36 16.4216 19.9646 16.0272C19.8478 15.9105 19.7249 15.8012 19.5965 15.6996ZM16.9549 16.783C16.9583 16.783 16.9616 16.783 16.965 16.783C17.0367 16.7831 17.1086 16.7867 17.1805 16.7938C17.6985 16.8448 18.1829 17.0739 18.551 17.442L18.5519 17.4429C18.7608 17.6513 18.9265 17.899 19.0395 18.1716C19.1524 18.4443 19.2103 18.7365 19.21 19.0317L20.21 19.033H19.21C19.21 19.5535 19.0295 20.058 18.6992 20.4603C18.369 20.8627 17.9095 21.1382 17.3989 21.2397C16.8884 21.3413 16.3584 21.2627 15.8993 21.0173C15.4402 20.7719 15.0804 20.3749 14.8812 19.894C14.682 19.4131 14.6557 18.878 14.8068 18.3798C14.958 17.8817 15.2771 17.4514 15.7099 17.1622C16.0799 16.915 16.5133 16.7839 16.9549 16.783ZM19.9646 16.0272C19.9645 16.0271 19.9644 16.027 19.9642 16.0268L19.2581 16.7349L19.9652 16.0278C19.965 16.0276 19.9648 16.0274 19.9646 16.0272Z" fill="#1C1B1F"/>
</svg>
