<svg width="32" height="32" viewBox="0 0 32 32" fill="none" xmlns="http://www.w3.org/2000/svg">
<path fill-rule="evenodd" clip-rule="evenodd" d="M16 32C24.8366 32 32 24.8366 32 16C32 7.16344 24.8366 0 16 0C7.16344 0 0 7.16344 0 16C0 24.8366 7.16344 32 16 32ZM17.8459 6.47482C18.3201 6.75804 18.4748 7.37199 18.1916 7.84613L15.0675 13.0764C15.3709 13.0261 15.6824 13 16 13C19.1296 13 21.6667 15.5371 21.6667 18.6667C21.6667 21.7963 19.1296 24.3333 16 24.3333C12.8704 24.3333 10.3333 21.7963 10.3333 18.6667C10.3333 17.6395 10.6066 16.6761 11.0845 15.8454C11.0894 15.8365 11.0946 15.8276 11.0998 15.8188L11.1017 15.8156C11.1215 15.7817 11.1416 15.7481 11.162 15.7146L16.4746 6.82053C16.7578 6.34639 17.3718 6.19161 17.8459 6.47482ZM12.3333 18.6667C12.3333 16.6416 13.975 15 16 15C18.025 15 19.6667 16.6416 19.6667 18.6667C19.6667 20.6917 18.025 22.3333 16 22.3333C13.975 22.3333 12.3333 20.6917 12.3333 18.6667Z" fill="#111827"/>
</svg>
