<svg width="33" height="33" viewBox="0 0 33 33" fill="none" xmlns="http://www.w3.org/2000/svg">
<path fill-rule="evenodd" clip-rule="evenodd" d="M16.96 28.283C23.5874 28.283 28.96 22.9104 28.96 16.283C28.96 9.65554 23.5874 4.28296 16.96 4.28296C10.3325 4.28296 4.95996 9.65554 4.95996 16.283C4.95996 22.9104 10.3325 28.283 16.96 28.283ZM19.0322 13.5652C19.5845 13.5652 20.0322 14.0129 20.0322 14.5652V22.2829C20.0322 22.8352 19.5845 23.2829 19.0322 23.2829C18.4799 23.2829 18.0322 22.8352 18.0322 22.2829V19.3554H13.1982C12.8728 19.3554 12.5677 19.197 12.3804 18.9308C12.1931 18.6646 12.1471 18.3239 12.257 18.0176L15.1544 9.94514C15.3409 9.42532 15.9136 9.15518 16.4334 9.34175C16.9532 9.52832 17.2234 10.101 17.0368 10.6208L14.6196 17.3554H18.0322V14.5652C18.0322 14.0129 18.4799 13.5652 19.0322 13.5652Z" fill="#1C1B1F"/>
</svg>
