<svg width="33" height="33" viewBox="0 0 33 33" fill="none" xmlns="http://www.w3.org/2000/svg">
<path fill-rule="evenodd" clip-rule="evenodd" d="M28.96 16.283C28.96 22.9104 23.5874 28.283 16.96 28.283C10.3325 28.283 4.95996 22.9104 4.95996 16.283C4.95996 9.65554 10.3325 4.28296 16.96 4.28296C23.5874 4.28296 28.96 9.65554 28.96 16.283ZM14.7961 12.3431C15.1974 11.7041 15.9056 11.283 16.7114 11.283C17.9592 11.283 18.9708 12.2945 18.9708 13.5423C18.9708 13.8137 18.9402 13.9726 18.7488 14.2992C18.7508 14.2959 18.7514 14.2947 18.7504 14.2963C18.7497 14.2971 18.7485 14.2989 18.7466 14.3017L18.7466 14.3018C18.739 14.3131 18.7205 14.3404 18.6857 14.3896C18.6358 14.4602 18.5676 14.5545 18.4822 14.6709C18.3117 14.9031 18.0813 15.212 17.8102 15.5726C17.2684 16.2932 16.571 17.2109 15.881 18.1155C15.1912 19.0197 14.5101 19.9092 14.0013 20.5728C13.7469 20.9046 13.5356 21.1798 13.388 21.3721L13.2168 21.5949L13.1718 21.6535L13.1603 21.6684L13.1574 21.6722L13.1567 21.6732L13.1565 21.6734C13.1564 21.6734 13.1564 21.6735 13.9492 22.283L13.1564 21.6735C12.9243 21.9755 12.8838 22.3831 13.0521 22.7248C13.2205 23.0665 13.5683 23.283 13.9492 23.283H19.9708C20.523 23.283 20.9708 22.8352 20.9708 22.283C20.9708 21.7307 20.523 21.283 19.9708 21.283H15.9768C16.4211 20.703 16.9436 20.0201 17.4711 19.3285C18.162 18.4228 18.8627 17.5007 19.4087 16.7746C19.6815 16.4118 19.9174 16.0957 20.0947 15.854C20.2531 15.638 20.4069 15.4255 20.4744 15.3103C20.8396 14.687 20.9708 14.1805 20.9708 13.5423C20.9708 11.1899 19.0638 9.28296 16.7114 9.28296C15.1891 9.28296 13.8542 10.0823 13.1024 11.2794C12.8086 11.7471 12.9497 12.3644 13.4174 12.6581C13.8851 12.9518 14.5023 12.8108 14.7961 12.3431Z" fill="#1C1B1F"/>
</svg>
