<svg width="33" height="33" viewBox="0 0 33 33" fill="none" xmlns="http://www.w3.org/2000/svg">
<path fill-rule="evenodd" clip-rule="evenodd" d="M4.95996 5.28296C4.95996 4.73067 5.40768 4.28296 5.95996 4.28296H27.96C28.5122 4.28296 28.96 4.73067 28.96 5.28296V27.283C28.96 27.8352 28.5122 28.283 27.96 28.283H5.95996C5.40768 28.283 4.95996 27.8352 4.95996 27.283V5.28296ZM20.7831 16.6577C21.2121 15.9684 21.46 15.1546 21.46 14.283C21.46 11.7977 19.4452 9.78296 16.96 9.78296C14.4747 9.78296 12.46 11.7977 12.46 14.283C12.46 16.7682 14.4747 18.783 16.96 18.783C17.0363 18.783 17.1122 18.7811 17.1876 18.7773L15.1014 22.2702C14.8182 22.7444 14.973 23.3583 15.4472 23.6415C15.9214 23.9247 16.5353 23.7699 16.8185 23.2957L20.7831 16.6577ZM19.083 15.6037L19.1319 15.5219C19.3406 15.1567 19.46 14.7338 19.46 14.283C19.46 12.9022 18.3407 11.783 16.96 11.783C15.5792 11.783 14.46 12.9022 14.46 14.283C14.46 15.6637 15.5792 16.783 16.96 16.783C17.8558 16.783 18.6416 16.3118 19.083 15.6037Z" fill="#1C1B1F"/>
</svg>
