<svg width="33" height="33" viewBox="0 0 33 33" fill="none" xmlns="http://www.w3.org/2000/svg">
<path fill-rule="evenodd" clip-rule="evenodd" d="M5.95996 4.28296C5.40768 4.28296 4.95996 4.73067 4.95996 5.28296V27.283C4.95996 27.8352 5.40768 28.283 5.95996 28.283H27.96C28.5122 28.283 28.96 27.8352 28.96 27.283V5.28296C28.96 4.73067 28.5122 4.28296 27.96 4.28296H5.95996ZM18.6322 10.283C18.6322 9.91789 18.4332 9.58184 18.1132 9.40624C17.7931 9.23064 17.4028 9.24341 17.0949 9.43955L14.0267 11.3941C13.5609 11.6908 13.4238 12.309 13.7206 12.7748C14.0173 13.2406 14.6354 13.3776 15.1012 13.0809L16.6322 12.1057V22.283C16.6322 22.8352 17.0799 23.283 17.6322 23.283C18.1844 23.283 18.6322 22.8352 18.6322 22.283V10.283Z" fill="#1C1B1F"/>
</svg>
