<svg width="32" height="32" viewBox="0 0 32 32" fill="none" xmlns="http://www.w3.org/2000/svg">
<path fill-rule="evenodd" clip-rule="evenodd" d="M0 1C0 0.447715 0.447715 0 1 0H31C31.5523 0 32 0.447715 32 1V31C32 31.5523 31.5523 32 31 32H1C0.447715 32 0 31.5523 0 31V1ZM16.2614 9.01285C15.6474 8.95238 15.0315 9.10666 14.5185 9.44942C14.0055 9.79218 13.6272 10.3022 13.4482 10.8926C13.2691 11.483 13.3002 12.1172 13.5363 12.6872C13.7724 13.2571 14.1988 13.7276 14.7429 14.0185C15.13 14.2254 15.5596 14.3322 15.9931 14.3333C15.9977 14.3333 16.0023 14.3333 16.0069 14.3333C16.1782 14.3329 16.3501 14.3159 16.5202 14.2821C17.1253 14.1617 17.67 13.8353 18.0614 13.3584C18.4527 12.8815 18.6667 12.2836 18.6667 11.6667H19.6667L18.6667 11.6654C18.6671 11.3155 18.5984 10.969 18.4646 10.6458C18.3307 10.3226 18.1342 10.029 17.8865 9.78197L17.8856 9.78105C17.4494 9.34481 16.8754 9.07332 16.2614 9.01285ZM18.9896 15.25C19.2133 15.0634 19.4203 14.8551 19.6074 14.6272C20.2922 13.7927 20.6665 12.7467 20.6667 11.6672C20.6674 11.0541 20.5469 10.4469 20.3123 9.88045C20.0777 9.31395 19.7334 8.79938 19.2993 8.36631C18.5359 7.60319 17.5316 7.12828 16.4574 7.02248C15.383 6.91665 14.305 7.18665 13.4073 7.78648C12.5096 8.38631 11.8477 9.27884 11.5343 10.312C11.2209 11.3452 11.2754 12.4551 11.6886 13.4525C11.9792 14.1541 12.4345 14.7695 13.0104 15.25C11.998 15.9353 11.2514 16.9479 10.8963 18.1185C10.5381 19.2993 10.6005 20.5677 11.0726 21.7076C11.5448 22.8476 12.3977 23.7886 13.4859 24.3703C14.5741 24.9519 15.8303 25.1382 17.0405 24.8975C18.2507 24.6568 19.3399 24.0039 20.1227 23.0501C20.9054 22.0964 21.3332 20.9009 21.3333 19.6672C21.3341 18.9665 21.1965 18.2726 20.9284 17.6253C20.6603 16.9779 20.2669 16.39 19.7709 15.8951C19.5301 15.6543 19.2683 15.4386 18.9896 15.25ZM15.9927 16.3333C15.9976 16.3333 16.0024 16.3333 16.0073 16.3333C16.1136 16.3336 16.2202 16.3389 16.3267 16.3494C17.0942 16.425 17.8117 16.7643 18.357 17.3097L18.3579 17.3106C18.6676 17.6195 18.9132 17.9865 19.0806 18.3906C19.248 18.7947 19.3339 19.228 19.3333 19.6654L20.3333 19.6667H19.3333C19.3333 20.4379 19.0659 21.1852 18.5767 21.7813C18.0875 22.3775 17.4067 22.7855 16.6503 22.936C15.8939 23.0864 15.1088 22.9699 14.4287 22.6064C13.7486 22.2429 13.2155 21.6548 12.9204 20.9423C12.6253 20.2298 12.5863 19.437 12.8102 18.6991C13.0341 17.9611 13.5069 17.3236 14.1481 16.8951C14.6962 16.5289 15.3384 16.3348 15.9927 16.3333Z" fill="#111827"/>
</svg>
