<svg width="32" height="32" viewBox="0 0 32 32" fill="none" xmlns="http://www.w3.org/2000/svg">
<path fill-rule="evenodd" clip-rule="evenodd" d="M32 16C32 24.8366 24.8366 32 16 32C7.16344 32 0 24.8366 0 16C0 7.16344 7.16344 0 16 0C24.8366 0 32 7.16344 32 16ZM12.125 7C11.5727 7 11.125 7.44772 11.125 8C11.125 8.55229 11.5727 9 12.125 9H17.9692L14.0237 14.7179C13.8126 15.0239 13.7886 15.4216 13.9614 15.7507C14.1341 16.0798 14.4751 16.2859 14.8468 16.2859C15.7955 16.2859 16.8317 16.6779 17.6266 17.3335C18.4214 17.989 18.8742 18.8176 18.8742 19.6429C18.8742 21.497 17.3712 23 15.5171 23C14.4615 23 13.5201 22.5139 12.9031 21.7496C12.5562 21.3198 11.9266 21.2527 11.4969 21.5996C11.0671 21.9465 11 22.5761 11.3469 23.0058C12.3273 24.2203 13.8315 25 15.5171 25C18.4757 25 20.8742 22.6016 20.8742 19.6429C20.8742 18.062 20.0165 16.712 18.8991 15.7906C18.2262 15.2356 17.4227 14.8033 16.5714 14.5472L20.6972 8.56793C20.9083 8.26203 20.9323 7.86429 20.7596 7.53521C20.5868 7.20613 20.2458 7 19.8742 7H12.125Z" fill="#111827"/>
</svg>
