<svg width="32" height="32" viewBox="0 0 32 32" fill="none" xmlns="http://www.w3.org/2000/svg">
<path d="M21.8586 9.50001C21.8553 10.2314 21.7012 10.9542 21.406 11.6234C21.1108 12.2925 20.6808 12.8936 20.1428 13.3891C19.0121 14.4252 17.5342 15 16.0006 15C14.467 15 12.989 14.4252 11.8583 13.3891C11.3178 12.8957 10.886 12.295 10.5906 11.6254C10.2952 10.9558 10.1426 10.2319 10.1426 9.50001C10.1426 8.76811 10.2952 8.04426 10.5906 7.37463C10.886 6.70501 11.3178 6.10432 11.8583 5.61091C12.989 4.57477 14.467 4 16.0006 4C17.5342 4 19.0121 4.57477 20.1428 5.61091C20.6808 6.10641 21.1108 6.70751 21.406 7.37666C21.7012 8.04581 21.8553 8.76864 21.8586 9.50001V9.50001Z" stroke="#111827" stroke-width="2" stroke-linecap="round" stroke-linejoin="round"/>
<path d="M22.9233 21.5C22.9194 22.3644 22.7373 23.2186 22.3884 24.0094C22.0396 24.8002 21.5314 25.5106 20.8956 26.0962C19.5594 27.3207 17.8127 28 16.0002 28C14.1878 28 12.4411 27.3207 11.1049 26.0962C10.466 25.5131 9.95574 24.8032 9.6066 24.0118C9.25747 23.2204 9.07715 22.365 9.07715 21.5C9.07715 20.635 9.25747 19.7796 9.6066 18.9882C9.95574 18.1968 10.466 17.4869 11.1049 16.9038C12.4411 15.6793 14.1878 15 16.0002 15C17.8127 15 19.5594 15.6793 20.8956 16.9038C21.5314 17.4894 22.0396 18.1998 22.3884 18.9906C22.7373 19.7814 22.9194 20.6357 22.9233 21.5Z" stroke="#111827" stroke-width="2" stroke-linecap="round" stroke-linejoin="round"/>
</svg>
