<svg width="33" height="33" viewBox="0 0 33 33" fill="none" xmlns="http://www.w3.org/2000/svg">
<path fill-rule="evenodd" clip-rule="evenodd" d="M28.96 16.283C28.96 22.9104 23.5874 28.283 16.96 28.283C10.3325 28.283 4.95996 22.9104 4.95996 16.283C4.95996 9.65554 10.3325 4.28296 16.96 4.28296C23.5874 4.28296 28.96 9.65554 28.96 16.283ZM18.3861 10.283C18.3861 9.91789 18.1871 9.58184 17.8671 9.40624C17.547 9.23064 17.1567 9.24341 16.8488 9.43955L13.7806 11.3941C13.3148 11.6908 13.1777 12.309 13.4745 12.7748C13.7712 13.2406 14.3893 13.3776 14.8551 13.0809L16.3861 12.1057V22.283C16.3861 22.8352 16.8338 23.283 17.3861 23.283C17.9384 23.283 18.3861 22.8352 18.3861 22.283V10.283Z" fill="#1C1B1F"/>
</svg>
