<svg width="32" height="32" viewBox="0 0 32 32" fill="none" xmlns="http://www.w3.org/2000/svg">
<path fill-rule="evenodd" clip-rule="evenodd" d="M0 1C0 0.447715 0.447715 0 1 0H31C31.5523 0 32 0.447715 32 1V31C32 31.5523 31.5523 32 31 32H1C0.447715 32 0 31.5523 0 31V1ZM17.8457 7.1409C18.3199 7.42401 18.4748 8.03793 18.1917 8.51213L15.0685 13.7433C15.3716 13.6932 15.6827 13.6672 16 13.6672C19.1296 13.6672 21.6667 16.2042 21.6667 19.3338C21.6667 22.4634 19.1296 25.0005 16 25.0005C12.8704 25.0005 10.3333 22.4634 10.3333 19.3338C10.3333 18.2207 10.6543 17.1826 11.2086 16.3069L16.4745 7.48689C16.7576 7.01269 17.3715 6.85778 17.8457 7.1409ZM12.8022 17.5384C12.5036 18.0691 12.3333 18.6816 12.3333 19.3338C12.3333 21.3589 13.975 23.0005 16 23.0005C18.025 23.0005 19.6667 21.3589 19.6667 19.3338C19.6667 17.3088 18.025 15.6672 16 15.6672C14.7 15.6672 13.558 16.3437 12.9069 17.3638L12.8176 17.5135C12.8126 17.5219 12.8075 17.5302 12.8022 17.5384Z" fill="#111827"/>
</svg>
