<svg width="32" height="32" viewBox="0 0 32 32" fill="none" xmlns="http://www.w3.org/2000/svg">
<path fill-rule="evenodd" clip-rule="evenodd" d="M32 16C32 24.8366 24.8366 32 16 32C7.16344 32 0 24.8366 0 16C0 7.16344 7.16344 0 16 0C24.8366 0 32 7.16344 32 16ZM12.8325 10.5696C13.426 9.62459 14.4747 9 15.6686 9C17.5164 9 19.0144 10.498 19.0144 12.3458C19.0144 12.7688 18.9568 13.0386 18.6727 13.5235C18.6731 13.5229 18.6726 13.5237 18.671 13.526C18.6641 13.5365 18.6361 13.579 18.5731 13.668C18.505 13.7644 18.4127 13.8919 18.2983 14.0478C18.07 14.359 17.7618 14.7721 17.4001 15.2532C16.677 16.2149 15.7465 17.4393 14.8264 18.6455C13.9065 19.8514 12.9981 21.0377 12.3196 21.9226C11.9804 22.365 11.6986 22.7321 11.5017 22.9885L11.2734 23.2857L11.2134 23.3638L11.1981 23.3838L11.1942 23.3888L11.1932 23.3901L11.193 23.3904C11.1929 23.3905 11.1929 23.3905 11.9857 24L11.1929 23.3905C10.9607 23.6925 10.9203 24.1002 11.0886 24.4419C11.2569 24.7836 11.6048 25 11.9857 25H20.0144C20.5667 25 21.0144 24.5523 21.0144 24C21.0144 23.4477 20.5667 23 20.0144 23H14.0137C14.6798 22.1312 15.5429 21.0038 16.4166 19.8585C17.3375 18.6512 18.2713 17.4224 18.9986 16.4552C19.362 15.9718 19.6756 15.5515 19.9109 15.2309C20.1273 14.9359 20.3192 14.6696 20.3983 14.5346C20.8563 13.753 21.0144 13.1356 21.0144 12.3458C21.0144 9.39339 18.621 7 15.6686 7C13.7582 7 12.0828 8.00278 11.1388 9.50592C10.8451 9.97362 10.9861 10.5909 11.4538 10.8846C11.9215 11.1783 12.5388 11.0373 12.8325 10.5696Z" fill="#111827"/>
</svg>
