<svg width="32" height="32" viewBox="0 0 32 32" fill="none" xmlns="http://www.w3.org/2000/svg">
<path fill-rule="evenodd" clip-rule="evenodd" d="M16 32C24.8366 32 32 24.8366 32 16C32 7.16344 24.8366 0 16 0C7.16344 0 0 7.16344 0 16C0 24.8366 7.16344 32 16 32ZM18.763 12.7096C19.3153 12.7096 19.763 13.1574 19.763 13.7096V23.9999C19.763 24.5522 19.3153 24.9999 18.763 24.9999C18.2107 24.9999 17.763 24.5522 17.763 23.9999V19.7632H10.9844C10.6589 19.7632 10.3538 19.6048 10.1665 19.3386C9.97923 19.0724 9.93321 18.7318 10.0432 18.4254L13.9063 7.66218C14.0929 7.14236 14.6655 6.87222 15.1853 7.05879C15.7051 7.24536 15.9753 7.818 15.7887 8.33782L12.4058 17.7632H17.763V13.7096C17.763 13.1574 18.2107 12.7096 18.763 12.7096Z" fill="#111827"/>
</svg>
