<svg width="32" height="32" viewBox="0 0 32 32" fill="none" xmlns="http://www.w3.org/2000/svg">
<path fill-rule="evenodd" clip-rule="evenodd" d="M32 16C32 24.8366 24.8366 32 16 32C7.16344 32 0 24.8366 0 16C0 7.16344 7.16344 0 16 0C24.8366 0 32 7.16344 32 16ZM12.013 7C11.4607 7 11.013 7.44772 11.013 8C11.013 8.55229 11.4607 9 12.013 9H18.6121L13.8602 23.6923C13.6902 24.2177 13.9784 24.7815 14.5039 24.9515C15.0294 25.1214 15.5932 24.8332 15.7631 24.3077L20.938 8.30774C21.0365 8.00339 20.9834 7.67032 20.7952 7.41167C20.607 7.15302 20.3064 7 19.9866 7H12.013Z" fill="#111827"/>
</svg>
