<svg width="33" height="33" viewBox="0 0 33 33" fill="none" xmlns="http://www.w3.org/2000/svg">
<path fill-rule="evenodd" clip-rule="evenodd" d="M4.95996 5.28296C4.95996 4.73067 5.40768 4.28296 5.95996 4.28296H27.96C28.5122 4.28296 28.96 4.73067 28.96 5.28296V27.283C28.96 27.8352 28.5122 28.283 27.96 28.283H5.95996C5.40768 28.283 4.95996 27.8352 4.95996 27.283V5.28296ZM18.4724 9.42398C18.9466 9.70709 19.1015 10.321 18.8184 10.7952L16.7325 14.289C16.8079 14.2852 16.8837 14.2833 16.96 14.2833C19.4452 14.2833 21.46 16.298 21.46 18.7833C21.46 21.2686 19.4452 23.2833 16.96 23.2833C14.4747 23.2833 12.46 21.2686 12.46 18.7833C12.46 17.9001 12.7144 17.0763 13.1541 16.3812L17.1012 9.76997C17.3843 9.29577 17.9982 9.14087 18.4724 9.42398ZM14.777 17.564C14.5751 17.9247 14.46 18.3406 14.46 18.7833C14.46 20.164 15.5792 21.2833 16.96 21.2833C18.3407 21.2833 19.46 20.164 19.46 18.7833C19.46 17.4026 18.3407 16.2833 16.96 16.2833C16.0745 16.2833 15.2965 16.7437 14.8523 17.4382L14.7878 17.5462C14.7843 17.5522 14.7806 17.5581 14.777 17.564Z" fill="#1C1B1F"/>
</svg>
