<svg width="33" height="33" viewBox="0 0 33 33" fill="none" xmlns="http://www.w3.org/2000/svg">
<path fill-rule="evenodd" clip-rule="evenodd" d="M5.95996 4.28296C5.40768 4.28296 4.95996 4.73067 4.95996 5.28296V27.283C4.95996 27.8352 5.40768 28.283 5.95996 28.283H27.96C28.5122 28.283 28.96 27.8352 28.96 27.283V5.28296C28.96 4.73067 28.5122 4.28296 27.96 4.28296H5.95996ZM14.9393 9.28296C14.4489 9.28296 14.0309 9.63852 13.9523 10.1225L12.9729 16.1478C12.9033 16.5762 13.1179 17.0005 13.5042 17.1983C13.8904 17.3961 14.3602 17.3222 14.6671 17.0154C15.0167 16.6657 15.4621 16.4276 15.9471 16.3312C16.432 16.2347 16.9347 16.2842 17.3915 16.4734C17.8483 16.6626 18.2387 16.9831 18.5134 17.3942C18.7881 17.8053 18.9347 18.2886 18.9347 18.7831C18.9347 19.2775 18.7881 19.7608 18.5134 20.1719C18.2387 20.583 17.8483 20.9035 17.3915 21.0927C16.9347 21.2819 16.432 21.3314 15.9471 21.2349C15.4621 21.1385 15.0167 20.9004 14.6671 20.5508C14.2765 20.1602 13.6434 20.1602 13.2529 20.5508C12.8623 20.9413 12.8623 21.5744 13.2529 21.965C13.8822 22.5943 14.684 23.0229 15.5569 23.1965C16.4298 23.3701 17.3346 23.281 18.1568 22.9404C18.9791 22.5999 19.6819 22.0231 20.1763 21.2831C20.6708 20.5431 20.9347 19.6731 20.9347 18.7831C20.9347 17.8931 20.6708 17.023 20.1763 16.283C19.6819 15.543 18.9791 14.9663 18.1568 14.6257C17.3346 14.2851 16.4298 14.196 15.5569 14.3696C15.4629 14.3883 15.3698 14.4099 15.2776 14.4345L15.7899 11.283H19.96C20.5122 11.283 20.96 10.8352 20.96 10.283C20.96 9.73067 20.5122 9.28296 19.96 9.28296H14.9393Z" fill="#1C1B1F"/>
</svg>
