<svg width="33" height="33" viewBox="0 0 33 33" fill="none" xmlns="http://www.w3.org/2000/svg">
<path fill-rule="evenodd" clip-rule="evenodd" d="M28.96 16.283C28.96 22.9104 23.5874 28.283 16.96 28.283C10.3325 28.283 4.95996 22.9104 4.95996 16.283C4.95996 9.65554 10.3325 4.28296 16.96 4.28296C23.5874 4.28296 28.96 9.65554 28.96 16.283ZM14.9393 9.78296C14.4489 9.78296 14.0309 10.1385 13.9523 10.6225L12.9729 16.6478C12.9033 17.0762 13.1179 17.5005 13.5042 17.6983C13.8904 17.8961 14.3602 17.8222 14.6671 17.5154C15.0167 17.1657 15.4621 16.9276 15.9471 16.8312C16.432 16.7347 16.9347 16.7842 17.3915 16.9734C17.8483 17.1626 18.2387 17.4831 18.5134 17.8942C18.7881 18.3053 18.9347 18.7886 18.9347 19.2831C18.9347 19.7775 18.7881 20.2608 18.5134 20.6719C18.2387 21.083 17.8483 21.4035 17.3915 21.5927C16.9347 21.7819 16.432 21.8314 15.9471 21.7349C15.4621 21.6385 15.0167 21.4004 14.6671 21.0508C14.2765 20.6602 13.6434 20.6602 13.2529 21.0508C12.8623 21.4413 12.8623 22.0744 13.2529 22.465C13.8822 23.0943 14.684 23.5229 15.5569 23.6965C16.4298 23.8701 17.3346 23.781 18.1568 23.4404C18.9791 23.0999 19.6819 22.5231 20.1763 21.7831C20.6708 21.0431 20.9347 20.1731 20.9347 19.2831C20.9347 18.3931 20.6708 17.523 20.1763 16.783C19.6819 16.043 18.9791 15.4663 18.1568 15.1257C17.3346 14.7851 16.4298 14.696 15.5569 14.8696C15.4629 14.8883 15.3698 14.9099 15.2776 14.9345L15.7899 11.783H19.96C20.5122 11.783 20.96 11.3352 20.96 10.783C20.96 10.2307 20.5122 9.78296 19.96 9.78296H14.9393Z" fill="#1C1B1F"/>
</svg>
