<svg width="33" height="33" viewBox="0 0 33 33" fill="none" xmlns="http://www.w3.org/2000/svg">
<path fill-rule="evenodd" clip-rule="evenodd" d="M17.4597 4.57172C17.1503 4.39309 16.7691 4.39309 16.4597 4.57172L7.06738 9.99437C6.75798 10.173 6.56738 10.5031 6.56738 10.8604V21.7057C6.56738 22.063 6.75798 22.3931 7.06738 22.5717L16.4597 27.9944C16.7691 28.173 17.1503 28.173 17.4597 27.9944L26.852 22.5717C27.1614 22.3931 27.352 22.063 27.352 21.7057V10.8604C27.352 10.5031 27.1614 10.173 26.852 9.99437L17.4597 4.57172ZM21.4597 16.283C21.4597 18.7683 19.445 20.783 16.9597 20.783C14.4744 20.783 12.4597 18.7683 12.4597 16.283C12.4597 13.7978 14.4744 11.783 16.9597 11.783C19.445 11.783 21.4597 13.7978 21.4597 16.283Z" fill="#1C1B1F"/>
</svg>
