<svg width="33" height="33" viewBox="0 0 33 33" fill="none" xmlns="http://www.w3.org/2000/svg">
<path d="M24.6831 24.6977L24.7064 24.6505C24.7296 24.6152 24.7454 24.5762 24.7611 24.5334V24.5297C24.8354 24.3347 24.8512 24.1277 24.8159 23.9199V23.9274C24.7769 23.7084 24.6989 23.4976 24.5811 23.3063L24.5886 23.3138L19.2677 13.9575L18.4553 12.5391L12.3378 23.3138C12.2321 23.5014 12.1661 23.7046 12.1308 23.9154V23.9274C12.088 24.1697 12.115 24.4157 12.2126 24.6422L12.2088 24.6347C12.2208 24.67 12.2403 24.7015 12.2598 24.736L12.2561 24.7322C12.4166 25.006 12.7564 25.3338 13.5064 25.3338H23.4058C23.5618 25.3338 24.3314 25.3023 24.6869 24.697L24.6831 24.6977ZM18.4561 15.3804L23.3158 23.9281H13.6002L18.4561 15.3804ZM28.7065 23.3153L21.6904 10.955C21.6161 10.8222 21.2141 10.1659 20.5068 10.1659C20.1903 10.1659 19.7372 10.3025 19.3659 10.9513L18.4598 12.5414L19.2647 13.9635L20.515 11.7486L27.4569 23.9334H24.8159C24.8512 24.1367 24.8317 24.3437 24.7611 24.5387V24.5312C24.7454 24.5739 24.7296 24.6174 24.7064 24.6565V24.6527L24.6831 24.7C24.3276 25.3053 23.5618 25.3368 23.4133 25.3368H27.5424C27.6947 25.3368 28.4567 25.3053 28.8123 24.7C28.9728 24.4224 29.0815 23.9619 28.7065 23.3168V23.3153ZM12.2643 24.733C12.2486 24.7015 12.2328 24.6707 12.2171 24.6392V24.6355C12.1195 24.4089 12.088 24.1629 12.1308 23.9206V23.9281H6.45805L14.8888 9.09485L17.6543 13.9583L18.4591 12.5399L16.0446 8.28927C15.9779 8.16851 15.5721 7.51221 14.8685 7.51221C14.552 7.51221 14.0952 7.64872 13.7277 8.30128L5.18819 23.3146C5.11394 23.4436 4.76216 24.1232 5.11394 24.7285C5.27445 25.006 5.61423 25.33 6.3643 25.33H13.5132C12.7706 25.33 12.4233 25.0097 12.2628 24.7285L12.2643 24.733Z" fill="#1C1B1F"/>
</svg>
