<svg width="33" height="33" viewBox="0 0 33 33" fill="none" xmlns="http://www.w3.org/2000/svg">
<path d="M22.5677 20.1113C23.4136 20.1113 24.0994 19.4255 24.0994 18.5795C24.0994 17.7335 23.4136 17.0477 22.5677 17.0477C21.7217 17.0477 21.0359 17.7335 21.0359 18.5795C21.0359 19.4255 21.7217 20.1113 22.5677 20.1113Z" fill="#1C1B1F"/>
<path d="M26.862 20.5399C26.3991 22.3968 25.4239 24.0864 24.0473 25.4159C22.6708 26.7455 20.9484 27.6615 19.0765 28.0595C17.2046 28.4576 15.2585 28.3217 13.4601 27.6673C11.6616 27.0129 10.0833 25.8664 8.90489 24.3585C7.72652 22.8505 6.99555 21.0418 6.79532 19.1385C6.59509 17.2353 6.93365 15.314 7.77242 13.5939C8.61119 11.8737 9.9164 10.4238 11.5393 9.40949C13.1621 8.39518 15.0373 7.85726 16.9511 7.85706" stroke="#1C1B1F" stroke-width="2" stroke-linecap="round" stroke-linejoin="round"/>
<path d="M9.20536 11.4142C8.29231 11.324 7.4489 10.8862 6.84976 10.1913C6.25061 9.49645 5.94162 8.59781 5.98675 7.68142C6.03188 6.76503 6.42768 5.90109 7.09221 5.26847C7.75673 4.63585 8.63908 4.28299 9.55657 4.28296L24.3637 11.4312C25.3117 11.4312 26.2208 11.0547 26.891 10.3844C27.5613 9.71412 27.9379 8.80502 27.9379 7.8571C27.9379 6.90918 27.5613 6.00008 26.891 5.3298C26.2208 4.65952 25.3117 4.28296 24.3637 4.28296" stroke="#1C1B1F" stroke-width="2" stroke-linecap="round" stroke-linejoin="round"/>
<path d="M6.82349 19.3857L16.9512 13.9843V28.2808" stroke="#1C1B1F" stroke-width="2" stroke-linecap="round" stroke-linejoin="round"/>
<path d="M12.8665 16.1627V27.431" stroke="#1C1B1F" stroke-width="2" stroke-linecap="round" stroke-linejoin="round"/>
</svg>
