<svg width="32" height="32" viewBox="0 0 32 32" fill="none" xmlns="http://www.w3.org/2000/svg">
<path fill-rule="evenodd" clip-rule="evenodd" d="M4.35435 2.95619C4.94701 2.39197 5.71826 2.05711 6.53041 2.00667L12.5386 4.90717C11.1867 5.25729 9.88944 5.81276 8.69376 6.56007C7.67172 7.19886 6.74314 7.96582 5.92848 8.83822C5.22861 8.66857 4.59459 8.28396 4.11911 7.73253C3.5378 7.05835 3.238 6.18644 3.28179 5.29733C3.32558 4.40821 3.7096 3.56998 4.35435 2.95619ZM4.60252 10.4984C3.84027 10.1737 3.15495 9.67703 2.60443 9.03857C1.68787 7.97558 1.21517 6.60083 1.28421 5.19895C1.35326 3.79706 1.95875 2.47542 2.97533 1.50763C3.99191 0.539849 5.34172 5.23336e-05 6.74531 6.92457e-10C6.89587 -5.60214e-06 7.0445 0.0339893 7.18009 0.0994483L25.4695 8.92883C26.3108 8.87661 27.1072 8.51929 27.7066 7.91981C28.357 7.26948 28.7223 6.38745 28.7223 5.46774C28.7223 4.54804 28.357 3.66601 27.7066 3.01568C27.0563 2.36535 26.1743 2 25.2546 2C24.7023 2 24.2546 1.55228 24.2546 1C24.2546 0.447715 24.7023 6.92457e-10 25.2546 6.92457e-10C26.7047 6.92457e-10 28.0955 0.576064 29.1209 1.60147C30.1463 2.62687 30.7223 4.01761 30.7223 5.46774C30.7223 6.91788 30.1463 8.30862 29.1209 9.33402C28.0955 10.3594 26.7047 10.9355 25.2546 10.9355C25.104 10.9355 24.9554 10.9015 24.8198 10.836L15.7748 6.46946C13.6443 6.50843 11.5629 7.1253 9.75378 8.25605C7.88407 9.42464 6.38033 11.0951 5.41398 13.0769C4.6234 14.6982 4.21853 16.4746 4.22372 18.2679L10.3866 14.9811C10.4036 14.9713 10.421 14.9621 10.4386 14.9533L15.5181 12.2443C15.8281 12.079 16.202 12.0884 16.5032 12.2691C16.8044 12.4498 16.9887 12.7754 16.9887 13.1266V29.9577C17.474 29.9164 17.9578 29.8448 18.4374 29.7428C20.594 29.2842 22.5784 28.2289 24.1643 26.6971C25.7503 25.1654 26.8739 23.2188 27.4071 21.0794C27.5407 20.5435 28.0834 20.2174 28.6193 20.3509C29.1551 20.4845 29.4813 21.0272 29.3477 21.5631C28.7239 24.0662 27.4093 26.3436 25.5538 28.1357C23.6983 29.9278 21.3766 31.1625 18.8534 31.6991C16.3302 32.2357 13.707 32.0525 11.2829 31.1704C11.0309 31.0787 10.7822 30.9799 10.537 30.8741C10.5002 30.8606 10.4643 30.8449 10.4297 30.8273C8.35955 29.9133 6.54199 28.5008 5.1428 26.7103C3.63478 24.7805 2.67036 22.4853 2.34567 20.0625C2.3388 20.0258 2.33403 19.989 2.33134 19.9521C2.3197 19.8596 2.309 19.767 2.29923 19.6742C2.02934 17.1087 2.48571 14.519 3.61631 12.2003C3.90513 11.608 4.23498 11.0394 4.60252 10.4984ZM11.8823 29.2599C11.9104 29.2703 11.9385 29.2807 11.9667 29.291C12.9451 29.6469 13.9614 29.8698 14.9887 29.9575V14.7933L11.8823 16.45V29.2599ZM9.88231 17.5167V28.2908C8.67185 27.5557 7.59851 26.6047 6.71871 25.4788C5.56082 23.9971 4.77789 22.2633 4.42947 20.4248L9.88231 17.5167ZM23.0097 20.7863C24.0675 20.7863 24.9249 19.9289 24.9249 18.8711C24.9249 17.8134 24.0675 16.9559 23.0097 16.9559C21.952 16.9559 21.0946 17.8134 21.0946 18.8711C21.0946 19.9289 21.952 20.7863 23.0097 20.7863Z" fill="#111827"/>
</svg>
