<svg width="33" height="33" viewBox="0 0 33 33" fill="none" xmlns="http://www.w3.org/2000/svg">
<path d="M22.5677 20.2528C23.4136 20.2528 24.0994 19.567 24.0994 18.721C24.0994 17.875 23.4136 17.1892 22.5677 17.1892C21.7217 17.1892 21.0359 17.875 21.0359 18.721C21.0359 19.567 21.7217 20.2528 22.5677 20.2528Z" fill="#1C1B1F"/>
<path d="M26.862 20.6814C26.3991 22.5383 25.4239 24.2279 24.0473 25.5574C22.6708 26.8869 20.9484 27.803 19.0765 28.201C17.2046 28.5991 15.2585 28.4632 13.4601 27.8088C11.6616 27.1544 10.0833 26.0079 8.90489 24.4999C7.72652 22.992 6.99555 21.1833 6.79532 19.28C6.59509 17.3767 6.93365 15.4555 7.77242 13.7353C8.61119 12.0152 9.9164 10.5653 11.5393 9.55097C13.1621 8.53666 15.0373 7.99874 16.9511 7.99854" stroke="#1C1B1F" stroke-width="2" stroke-linecap="round" stroke-linejoin="round"/>
<path d="M9.20536 11.5557C8.29231 11.4655 7.4489 11.0277 6.84976 10.3328C6.25061 9.63793 5.94162 8.73929 5.98675 7.8229C6.03188 6.90651 6.42768 6.04257 7.09221 5.40995C7.75673 4.77733 8.63908 4.42447 9.55657 4.42444L24.3637 11.5727C25.3117 11.5727 26.2208 11.1962 26.891 10.5259C27.5613 9.8556 27.9379 8.9465 27.9379 7.99858C27.9379 7.05066 27.5613 6.14156 26.891 5.47128C26.2208 4.801 25.3117 4.42444 24.3637 4.42444" stroke="#1C1B1F" stroke-width="2" stroke-linecap="round" stroke-linejoin="round"/>
<path d="M6.82349 19.5272L16.9512 14.1257V28.4223" stroke="#1C1B1F" stroke-width="2" stroke-linecap="round" stroke-linejoin="round"/>
<path d="M12.8665 16.3042V27.5725" stroke="#1C1B1F" stroke-width="2" stroke-linecap="round" stroke-linejoin="round"/>
</svg>
