<svg width="33" height="33" viewBox="0 0 33 33" fill="none" xmlns="http://www.w3.org/2000/svg">
<path d="M21.7944 4.36554C21.9374 4.36678 22.0741 4.4248 22.1744 4.52683L28.8053 11.2745C28.9056 11.3765 28.9612 11.5142 28.9599 11.6573L28.8774 21.1174C28.8761 21.2604 28.8181 21.3971 28.7161 21.4974L21.9684 28.1283C21.8664 28.2286 21.7287 28.2842 21.5857 28.2829L12.1255 28.2004C11.9825 28.1991 11.8458 28.1411 11.7456 28.0391L5.11462 21.2914C5.01436 21.1894 4.95873 21.0517 4.95998 20.9087L5.04254 11.4485C5.04379 11.3055 5.10181 11.1688 5.20383 11.0686L11.9515 4.43762C12.0535 4.33736 12.1912 4.28173 12.3343 4.28298L21.7944 4.36554Z" fill="#1C1B1F"/>
</svg>
