<svg width="32" height="33" viewBox="0 0 32 33" fill="none" xmlns="http://www.w3.org/2000/svg">
<path fill-rule="evenodd" clip-rule="evenodd" d="M10.6297 0.655037L10.3509 0.580322L10.1468 0.784446L4.36355 6.56766L4.15942 6.77179L4.23414 7.05063L6.35094 14.9506L6.42565 15.2295L6.70449 15.3042L14.6045 17.421L14.8834 17.4957L15.0875 17.2916L20.8707 11.5084L21.0748 11.3043L21.0001 11.0254L18.8833 3.12539L18.8086 2.84656L18.5297 2.77184L10.6297 0.655037ZM5.27478 7.07065L10.6497 1.69568L17.4344 3.51362L12.1892 8.75884L11.9824 8.96562L12.0613 9.24721L14.0159 16.228L7.24215 14.413L5.27478 7.07065ZM21.5554 11.4585L21.2765 11.3838L21.0724 11.5879L15.2892 17.3711L15.0851 17.5753L15.1598 17.8541L17.2766 25.7541L17.3513 26.033L17.6301 26.1077L25.5302 28.2245L25.809 28.2992L26.0131 28.0951L31.7963 22.3119L32.0005 22.1077L31.9257 21.8289L29.8089 13.9289L29.7342 13.65L29.4554 13.5753L21.5554 11.4585ZM16.2004 17.8741L21.5754 12.4992L28.3601 14.3171L23.1148 19.5623L22.9081 19.7691L22.9869 20.0507L24.9415 27.0315L18.1678 25.2165L16.2004 17.8741ZM6.19073 15.3338L6.46957 15.4085L14.3696 17.5253L14.6484 17.6L14.7231 17.8788L16.8399 25.7788L16.9147 26.0577L16.7105 26.2618L10.9273 32.045L10.7232 32.2491L10.4444 32.1744L2.54434 30.0576L2.2655 29.9829L2.19079 29.7041L0.0739822 21.8041L-0.000732422 21.5252L0.203392 21.3211L5.98661 15.5379L6.19073 15.3338ZM6.48959 16.4491L1.11462 21.8241L3.082 29.1664L9.85573 30.9814L7.9011 24.0006L7.82226 23.719L8.02903 23.5123L13.2743 18.2671L6.48959 16.4491Z" fill="#111827"/>
</svg>
