<svg width="32" height="33" viewBox="0 0 32 33" fill="none" xmlns="http://www.w3.org/2000/svg">
<path fill-rule="evenodd" clip-rule="evenodd" d="M16 32.4148C24.8366 32.4148 32 25.2514 32 16.4148C32 7.57824 24.8366 0.414795 16 0.414795C7.16344 0.414795 0 7.57824 0 16.4148C0 25.2514 7.16344 32.4148 16 32.4148ZM25.178 20.4728C24.2466 22.5792 22.619 24.3012 20.5684 25.3497C18.5177 26.3982 16.1688 26.7094 13.9159 26.2311C11.6629 25.7528 9.64309 24.5141 8.19532 22.7229C6.74755 20.9316 5.95997 18.6969 5.96477 16.3938C5.96958 14.0906 6.76646 11.8592 8.22169 10.0741C9.67692 8.28891 11.7019 7.05864 13.9568 6.58974C16.2117 6.12084 18.5593 6.44184 20.6056 7.49888C22.6518 8.55593 24.2722 10.2847 25.1948 12.395L21.5211 14.001C20.9671 12.7339 19.9941 11.6958 18.7654 11.0611C17.5367 10.4264 16.1271 10.2337 14.7731 10.5152C13.4191 10.7968 12.2032 11.5355 11.3294 12.6074C10.4556 13.6793 9.97711 15.0192 9.97423 16.4022C9.97134 17.7851 10.4442 19.1269 11.3136 20.2025C12.1829 21.278 13.3957 22.0218 14.7485 22.309C16.1013 22.5962 17.5117 22.4094 18.7431 21.7798C19.9744 21.1502 20.9517 20.1162 21.5109 18.8514L25.178 20.4728ZM26.0359 16.4139C26.0359 15.3292 25.1566 14.45 24.072 14.45C22.9874 14.45 22.1082 15.3292 22.1082 16.4139C22.1082 17.4985 22.9874 18.3777 24.072 18.3777C25.1566 18.3777 26.0359 17.4985 26.0359 16.4139Z" fill="#111827"/>
</svg>
