<svg width="32" height="33" viewBox="0 0 32 33" fill="none" xmlns="http://www.w3.org/2000/svg">
<g clip-path="url(#clip0_294_88)">
<path fill-rule="evenodd" clip-rule="evenodd" d="M10.4331 1.11116C11.0018 1.11116 11.4978 0.799745 11.7599 0.338135L23.9215 2.79174C23.9143 2.85162 23.9106 2.91257 23.9106 2.97438C23.9106 3.02635 23.9132 3.07772 23.9183 3.12835L8.74509 9.5148C8.61523 9.37889 8.46049 9.26694 8.28818 9.18629L10.166 1.08784C10.2528 1.10317 10.342 1.11116 10.4331 1.11116ZM0.530402 15.6033C0.530402 16.0648 0.325384 16.4783 0.00146484 16.7579L4.91239 29.1053L6.96932 11.936C6.8159 11.8604 6.67704 11.7597 6.55808 11.6393L0.478388 15.207C0.512312 15.3334 0.530402 15.4662 0.530402 15.6033ZM5.92689 29.0439L7.96175 12.059C8.06282 12.0374 8.16018 12.0059 8.25275 11.9654L21.2943 23.192C21.2824 23.2686 21.2763 23.3471 21.2763 23.4271C21.2763 23.4579 21.2772 23.4884 21.279 23.5188L6.859 29.6071C6.63266 29.3172 6.30378 29.1113 5.92689 29.0439ZM21.7823 22.2927L8.99046 11.281C9.10328 11.0682 9.16719 10.8255 9.16719 10.5678C9.16719 10.5196 9.16495 10.472 9.16058 10.4249L24.3406 4.03558C24.4249 4.12253 24.5195 4.19947 24.6224 4.26443L22.7423 21.9036C22.3738 21.9175 22.0388 22.0622 21.7823 22.2927ZM23.7156 22.2073L25.604 4.4897C25.6881 4.48044 25.7701 4.46435 25.8494 4.442L31.9985 15.4856C31.7403 15.7587 31.5819 16.1273 31.5819 16.5328C31.5819 16.6879 31.6051 16.8375 31.6481 16.9785L23.8362 22.308C23.7978 22.2724 23.7575 22.2388 23.7156 22.2073ZM24.3254 23.4271C24.3254 24.0367 23.9676 24.5628 23.4505 24.8067L24.0655 31.2635L24.0705 31.2645L31.742 18.125L24.3081 23.1966C24.3195 23.2718 24.3254 23.3487 24.3254 23.4271ZM22.456 24.9125C22.1443 24.8404 21.8692 24.6727 21.6632 24.442L7.18117 30.5566C7.18068 30.6201 7.17631 30.6827 7.16828 30.7441L22.3652 32.2278C22.496 31.8794 22.7507 31.5917 23.0757 31.4181L22.456 24.9125ZM6.11806 10.5678C6.11806 9.84899 6.61556 9.24635 7.28504 9.08544L8.96026 1.86089L0.422064 14.0806L6.12689 10.7329C6.12105 10.6787 6.11806 10.6236 6.11806 10.5678Z" fill="#111827"/>
</g>
<defs>
<clipPath id="clip0_294_88">
<rect width="32" height="32" fill="white" transform="translate(0 0.282959)"/>
</clipPath>
</defs>
</svg>
