<svg width="33" height="33" viewBox="0 0 33 33" fill="none" xmlns="http://www.w3.org/2000/svg">
<g clip-path="url(#clip0_340_75)">
<path fill-rule="evenodd" clip-rule="evenodd" d="M13.5508 31.2513C14.7891 32.2858 16.3521 32.8513 17.9657 32.8488C19.7941 32.8449 21.5465 32.1169 22.8394 30.8241C24.1323 29.5312 24.8604 27.7788 24.8643 25.9504V17.3817C24.8615 17.3647 24.8548 17.3487 24.8447 17.3348C24.8346 17.3209 24.8213 17.3097 24.806 17.3019L21.7055 15.5082V25.8486C21.7043 26.0602 21.6482 26.2679 21.5425 26.4513C21.4368 26.6346 21.2853 26.7873 21.1027 26.8943L13.7686 31.1279L13.5508 31.2513ZM2.31705 21.8911C2.03781 23.4815 2.32836 25.1194 3.1376 26.5168C4.05344 28.1006 5.56038 29.2563 7.32756 29.7301C9.09473 30.2039 10.9777 29.9571 12.5631 29.0438L19.9916 24.7595C20.0067 24.7486 20.0191 24.7344 20.0279 24.7181C20.0367 24.7018 20.0417 24.6836 20.0426 24.6651V21.0851L11.0745 26.2554C10.8929 26.362 10.6861 26.4182 10.4754 26.4182C10.2648 26.4182 10.058 26.362 9.87638 26.2554L2.535 22.0218L2.31705 21.8911ZM4.83688 7.51329C3.3071 8.06236 2.02094 9.135 1.20609 10.5413V10.5051C0.2948 12.0909 0.0490671 13.9732 0.522708 15.7398C0.996349 17.5064 2.15076 19.0133 3.73314 19.9305L11.1471 24.2075C11.1639 24.2164 11.1826 24.2211 11.2016 24.2211C11.2206 24.2211 11.2393 24.2164 11.2561 24.2075L14.3567 22.414L5.43226 17.2655C5.24918 17.1616 5.09736 17.0104 4.99263 16.8277C4.88791 16.6451 4.83412 16.4377 4.83688 16.2272V7.51329ZM17.7261 11.2603L26.6796 16.4595C26.8635 16.5614 27.0177 16.7092 27.1272 16.8886C27.2367 17.0681 27.2977 17.273 27.3041 17.4832V26.197C28.5305 25.7399 29.6015 24.9434 30.3921 23.9005C31.1828 22.8575 31.6604 21.6111 31.7693 20.3069C31.8782 19.0027 31.6138 17.6944 31.007 16.5348C30.4002 15.3752 29.4761 14.4121 28.3425 13.758L20.9285 9.47365C20.9117 9.46474 20.893 9.46008 20.874 9.46008C20.855 9.46008 20.8363 9.46474 20.8195 9.47365L17.7261 11.2603ZM29.5478 11.6886L29.7658 11.8194L29.766 11.7903C29.9879 10.4978 29.8372 9.16889 29.3316 7.95891C28.826 6.74894 27.9863 5.70794 26.9108 4.95767C25.8353 4.2074 24.5683 3.77887 23.2582 3.7222C21.9481 3.66553 20.6489 3.98307 19.5126 4.63767L12.0986 8.9148C12.0835 8.92515 12.0715 8.93938 12.0638 8.956C12.0561 8.97261 12.0531 8.99099 12.055 9.00919V12.589L21.0155 7.41889C21.1983 7.31164 21.4064 7.2551 21.6183 7.2551C21.8302 7.2551 22.0383 7.31164 22.221 7.41889L29.5478 11.6886ZM7.26231 16.3794L10.3628 18.1657L10.3702 7.84713C10.3713 7.63551 10.4275 7.42784 10.5331 7.2445C10.6388 7.06116 10.7904 6.90846 10.9729 6.80141L18.3069 2.56818L18.5249 2.44462C17.5167 1.60636 16.2907 1.07242 14.9903 0.905246C13.6898 0.738069 12.3687 0.944557 11.1813 1.50057C9.99384 2.05658 8.98925 2.93914 8.28493 4.04505C7.58062 5.15096 7.20569 6.43453 7.20398 7.74567V16.2924C7.20673 16.3103 7.21337 16.3274 7.22345 16.3424C7.23353 16.3574 7.2468 16.3701 7.26231 16.3794ZM16.0413 12.2331L12.0475 14.5351L12.0549 19.1389L16.0559 21.4407L20.0426 19.1389V14.5351L16.0413 12.2331Z" fill="#111827"/>
</g>
<defs>
<clipPath id="clip0_340_75">
<rect width="32" height="32" fill="white" transform="translate(0.0400391 0.848877)"/>
</clipPath>
</defs>
</svg>
