<svg width="32" height="32" viewBox="0 0 32 32" fill="none" xmlns="http://www.w3.org/2000/svg">
<path d="M21.7031 30.9491C25.1616 29.6296 28.0557 27.1518 29.8921 23.9378C31.7286 20.7238 32.3938 16.9724 31.7745 13.3229C31.1551 9.67343 29.2895 6.35158 26.4955 3.92339C23.7015 1.4952 20.152 0.11091 16.4518 0.00638046C12.7516 -0.0981486 9.12962 1.08355 6.20301 3.35014C3.2764 5.61672 1.22623 8.82795 0.401838 12.4367C-0.422558 16.0454 0.0298238 19.8283 1.6819 23.1409C3.33398 26.4534 6.08354 29.0907 9.46208 30.6033L12.7305 23.3029C11.0409 22.5465 9.66589 21.2276 8.8397 19.5711C8.01352 17.9145 7.78729 16.0227 8.19956 14.218C8.61183 12.4133 9.63709 10.8075 11.1007 9.67397C12.5642 8.54047 14.3755 7.94952 16.2259 8.00179C18.0764 8.05407 19.8514 8.74634 21.2487 9.96064C22.6459 11.1749 23.5789 12.8362 23.8886 14.6612C24.1983 16.4863 23.8657 18.3623 22.9473 19.9696C22.0289 21.5769 20.5816 22.816 18.852 23.4758L21.7031 30.9491Z" fill="#111827"/>
</svg>
