<svg width="32" height="33" viewBox="0 0 32 33" fill="none" xmlns="http://www.w3.org/2000/svg">
<g clip-path="url(#clip0_389_260)">
<path fill-rule="evenodd" clip-rule="evenodd" d="M32 16.8489C32 17.3393 31.9779 17.8246 31.9347 18.3038C31.9301 18.3552 31.887 18.3943 31.8355 18.3943H0.164552C0.113019 18.3943 0.0698905 18.3552 0.065264 18.3038C0.0220676 17.8246 0 17.3393 0 16.8489C0 16.3585 0.022059 15.8733 0.0652387 15.3942C0.0698644 15.3429 0.112993 15.3037 0.164526 15.3037L31.8355 15.3037C31.887 15.3037 31.9301 15.3429 31.9348 15.3942C31.9779 15.8733 32 16.3585 32 16.8489ZM30.1308 9.45234C30.1681 9.45234 30.2022 9.47301 30.2194 9.50609C30.6964 10.428 31.0864 11.4022 31.3785 12.4178C31.3968 12.4814 31.3489 12.5445 31.2827 12.5445L0.717306 12.5445C0.65114 12.5445 0.603215 12.4814 0.621504 12.4178C0.913615 11.4022 1.30362 10.428 1.78064 9.50609C1.79776 9.47301 1.83194 9.45233 1.86918 9.45233L30.1308 9.45234ZM28.1526 6.69316C28.2371 6.69316 28.2833 6.59505 28.2288 6.53051C25.2938 3.05568 20.9046 0.848877 16 0.848877C11.0954 0.848877 6.70622 3.05568 3.77125 6.53051C3.71674 6.59505 3.76292 6.69316 3.8474 6.69316L28.1526 6.69316ZM1.86905 24.2452C1.83181 24.2452 1.79763 24.2245 1.78052 24.1914C1.30359 23.2697 0.913661 22.2957 0.621585 21.2802C0.603295 21.2166 0.65122 21.1535 0.717386 21.1535H31.2826C31.3488 21.1535 31.3967 21.2166 31.3784 21.2802C31.0863 22.2957 30.6964 23.2697 30.2195 24.1914C30.2024 24.2245 30.1682 24.2452 30.131 24.2452L1.86905 24.2452ZM3.84719 27.0044C3.76271 27.0044 3.71653 27.1025 3.77104 27.167C6.70602 30.642 11.0953 32.8489 16 32.8489C20.9047 32.8489 25.294 30.642 28.229 27.167C28.2835 27.1025 28.2373 27.0044 28.1528 27.0044L3.84719 27.0044Z" fill="#111827"/>
</g>
<defs>
<clipPath id="clip0_389_260">
<rect width="32" height="32" fill="white" transform="translate(0 0.848877)"/>
</clipPath>
</defs>
</svg>
