<svg width="32" height="33" viewBox="0 0 32 33" fill="none" xmlns="http://www.w3.org/2000/svg">
<path fill-rule="evenodd" clip-rule="evenodd" d="M3.39469 7.55441C3.05333 7.74543 3.05363 8.23678 3.39522 8.42737L15.9702 15.4437C16.0283 15.4762 16.095 15.4884 16.1615 15.4884C16.1638 15.4884 16.1661 15.4884 16.1685 15.4884C16.2888 15.4892 16.4113 15.4739 16.5156 15.4139L20.6778 13.0206C21.0176 12.8252 21.0106 12.3325 20.6653 12.1468L7.91511 5.29C7.76463 5.20908 7.58324 5.2106 7.43414 5.29403L3.39469 7.55441ZM21.7857 14.6906C22.119 14.4989 22.5349 14.7395 22.5349 15.1241V20.4581C22.5349 21.0104 22.9826 21.4581 23.5349 21.4581C24.0872 21.4581 24.5349 21.0104 24.5349 20.4581V13.399C24.5349 13.2201 24.6305 13.0548 24.7857 12.9656L29.7583 10.1063C30.0916 9.91465 30.5075 10.1553 30.5075 10.5398V24.5574C30.5075 24.7385 30.4097 24.9054 30.2517 24.9938L17.9057 31.9023C17.5724 32.0888 17.1615 31.8479 17.1615 31.466V17.6388C17.1615 17.4598 17.2571 17.2945 17.4123 17.2053L21.7857 14.6906ZM23.7388 11.2605C23.5889 11.3467 23.4051 11.3493 23.2528 11.2674L10.5456 4.43375C10.198 4.24682 10.1938 3.74977 10.5382 3.55705L15.7559 0.637359C15.9076 0.552468 16.0926 0.552468 16.2443 0.637359L28.6363 7.57167C28.9752 7.76127 28.978 8.2479 28.6414 8.44145L23.7388 11.2605ZM1.49268 10.5076C1.49268 10.126 1.90302 9.88504 2.2363 10.071L14.9051 17.1397C15.0634 17.228 15.1615 17.3951 15.1615 17.5763V31.6466C15.1615 32.0285 14.7506 32.2694 14.4173 32.0829L1.74852 24.9938C1.59053 24.9054 1.49268 24.7385 1.49268 24.5574V10.5076Z" fill="#111827"/>
</svg>
