<svg width="33" height="33" viewBox="0 0 33 33" fill="none" xmlns="http://www.w3.org/2000/svg">
<path fill-rule="evenodd" clip-rule="evenodd" d="M7.27175 9.67261L17.0032 15.1024L17.0176 15.1023C17.0478 15.1023 17.0777 15.1036 17.1072 15.1063L20.3948 13.2159L10.474 7.88072L7.27175 9.67261ZM21.4672 14.9063V19.0365C21.4672 19.5888 21.9149 20.0365 22.4672 20.0365C23.0195 20.0365 23.4672 19.5888 23.4672 19.0365V13.7563L27.6206 11.3681V22.2829L18.0176 27.6565V16.8899L21.4672 14.9063ZM22.4355 12.0425L12.5434 6.72273L16.8982 4.28589L26.541 9.68178L22.4355 12.0425ZM6.17578 11.3514L16.0176 16.8427V27.7901L6.17578 22.2829V11.3514Z" fill="#1C1B1F"/>
</svg>
