<svg width="32" height="32" viewBox="0 0 32 32" fill="none" xmlns="http://www.w3.org/2000/svg">
<path fill-rule="evenodd" clip-rule="evenodd" d="M3.39469 7.05441C3.05333 7.24543 3.05363 7.73678 3.39522 7.92737L15.9702 14.9437C16.0283 14.9762 16.095 14.9884 16.1615 14.9884C16.1638 14.9884 16.1661 14.9884 16.1685 14.9884C16.2888 14.9892 16.4113 14.9739 16.5156 14.9139L20.6778 12.5206C21.0176 12.3252 21.0106 11.8325 20.6653 11.6468L7.91511 4.79C7.76463 4.70908 7.58324 4.7106 7.43414 4.79403L3.39469 7.05441ZM21.7857 14.1906C22.119 13.9989 22.5349 14.2395 22.5349 14.6241V19.9581C22.5349 20.5104 22.9826 20.9581 23.5349 20.9581C24.0872 20.9581 24.5349 20.5104 24.5349 19.9581V12.899C24.5349 12.7201 24.6305 12.5548 24.7857 12.4656L29.7583 9.60631C30.0916 9.41465 30.5075 9.65526 30.5075 10.0398V24.0574C30.5075 24.2385 30.4097 24.4054 30.2517 24.4938L17.9057 31.4023C17.5724 31.5888 17.1615 31.3479 17.1615 30.966V17.1388C17.1615 16.9598 17.2571 16.7945 17.4123 16.7053L21.7857 14.1906ZM23.7388 10.7605C23.5889 10.8467 23.4051 10.8493 23.2528 10.7674L10.5456 3.93375C10.198 3.74682 10.1938 3.24977 10.5382 3.05705L15.7559 0.137359C15.9076 0.052468 16.0926 0.052468 16.2443 0.137359L28.6363 7.07167C28.9752 7.26127 28.978 7.7479 28.6414 7.94145L23.7388 10.7605ZM1.49268 10.0076C1.49268 9.62598 1.90302 9.38504 2.2363 9.571L14.9051 16.6397C15.0634 16.728 15.1615 16.8951 15.1615 17.0763V31.1466C15.1615 31.5285 14.7506 31.7694 14.4173 31.5829L1.74852 24.4938C1.59053 24.4054 1.49268 24.2385 1.49268 24.0574V10.0076Z" fill="#111827"/>
</svg>
