<svg width="33" height="33" viewBox="0 0 33 33" fill="none" xmlns="http://www.w3.org/2000/svg">
<path fill-rule="evenodd" clip-rule="evenodd" d="M18.3873 13.7356C17.7081 14.5421 17.1268 15.2891 16.6736 15.8957C17.0411 16.131 17.3841 16.4063 17.6958 16.718C18.0075 17.0297 18.2827 17.3726 18.518 17.7401C19.1246 17.2869 19.8716 16.7055 20.6781 16.0264C20.0614 15.1288 19.2849 14.3523 18.3873 13.7356ZM17.4258 11.7851C16.4126 12.9434 15.5725 14.0229 14.9767 14.8258C14.9115 14.9137 14.8628 15.0088 14.8302 15.1074C14.7468 15.0871 14.6628 15.0685 14.5783 15.0517C13.3972 14.8168 12.173 14.9373 11.0604 15.3982C9.94786 15.859 8.99694 16.6394 8.32791 17.6407C7.65887 18.642 7.30178 19.8191 7.30178 21.0234C7.30178 24.1261 6.03299 25.96 5.36325 26.7119C5.2375 26.8531 5.34108 27.112 5.53014 27.112H13.3905C14.5947 27.112 15.7719 26.755 16.7731 26.0859C17.7744 25.4169 18.5548 24.466 19.0157 23.3534C19.4765 22.2408 19.5971 21.0166 19.3621 19.8355C19.3453 19.751 19.3267 19.6669 19.3064 19.5834C19.405 19.5508 19.5001 19.5021 19.588 19.4369C20.3889 18.8426 21.4649 18.0054 22.6198 16.9956C22.6327 16.9849 22.6454 16.9738 22.6577 16.9625C23.7098 16.0405 24.8255 14.9765 25.8571 13.8233C27.9947 11.4339 29.9599 8.45728 29.9599 5.45386C29.9599 4.90157 29.5121 4.45386 28.9599 4.45386C25.9564 4.45386 22.9797 6.41901 20.5903 8.55667C19.434 9.59118 18.3672 10.7102 17.4435 11.7649C17.4375 11.7715 17.4316 11.7783 17.4258 11.7851ZM19.7184 12.2269C20.6687 12.9115 21.5023 13.745 22.1869 14.6952C22.9229 14.0134 23.667 13.2717 24.3665 12.4898C26.1096 10.5415 27.4455 8.48556 27.8402 6.57346C25.9281 6.96816 23.8722 8.30416 21.9238 10.0472C21.1419 10.7467 20.4003 11.4908 19.7184 12.2269Z" fill="#1C1B1F"/>
</svg>
