<svg width="32" height="32" viewBox="0 0 32 32" fill="none" xmlns="http://www.w3.org/2000/svg">
<path fill-rule="evenodd" clip-rule="evenodd" d="M30.8117 1.11428C29.3275 -0.36996 26.9211 -0.369961 25.4368 1.11428L17.0947 9.45637L14.3024 6.83529C13.9112 6.46802 13.2998 6.47505 12.9171 6.85122L0.374699 19.1792C0.184487 19.3661 0.0768426 19.6213 0.0756929 19.888C0.0745432 20.1547 0.179984 20.4109 0.368577 20.5995L11.4751 31.706C11.6627 31.8936 11.917 31.9989 12.1823 31.9989C12.4475 31.9989 12.7018 31.8936 12.8894 31.706L24.9862 19.6092C25.3767 19.2187 25.3767 18.5855 24.9862 18.195L22.0461 15.2549L30.8117 6.48918C32.296 5.00494 32.296 2.59851 30.8117 1.11428ZM9.85579 12.6645L2.49602 19.8985L4.79665 22.1991L8.52015 18.4756C8.91067 18.0851 9.54383 18.0851 9.93436 18.4756C10.3249 18.8661 10.3249 19.4993 9.93436 19.8898L6.21086 23.6133L8.53938 25.9418L12.2625 22.2187C12.653 21.8282 13.2862 21.8282 13.6767 22.2187C14.0672 22.6092 14.0672 23.2424 13.6767 23.6329L9.95359 27.356L12.1823 29.5847L19.4791 22.2878L9.85579 12.6645Z" fill="#111827"/>
</svg>
