<svg width="32" height="32" viewBox="0 0 32 32" fill="none" xmlns="http://www.w3.org/2000/svg">
<path fill-rule="evenodd" clip-rule="evenodd" d="M17.122 12.7973C16.1527 13.9377 15.3285 14.9957 14.6978 15.8407C15.2718 16.1782 15.8038 16.5888 16.2797 17.0647C16.7556 17.5405 17.1661 18.0725 17.5037 18.6465C18.3486 18.0158 19.4066 17.1915 20.5471 16.2223C19.6539 14.8566 18.4877 13.6904 17.122 12.7973ZM16.158 10.8526C14.848 12.3498 13.7611 13.7463 12.9896 14.7861C12.9282 14.8688 12.8815 14.9578 12.849 15.0501C12.6463 14.9925 12.4408 14.943 12.233 14.9016C10.6998 14.5967 9.11067 14.7532 7.66647 15.3514C6.22228 15.9496 4.9879 16.9626 4.11944 18.2624C3.25099 19.5621 2.78745 21.0902 2.78745 22.6534C2.78745 26.8658 0.985851 29.2765 0.156555 30.1631C0.0274069 30.3012 0.1287 30.557 0.317755 30.557H10.6911C12.2542 30.557 13.7823 30.0935 15.0821 29.225C16.3818 28.3565 17.3948 27.1222 17.993 25.678C18.5912 24.2338 18.7478 22.6446 18.4428 21.1115C18.4014 20.9036 18.3519 20.698 18.2943 20.4952C18.3866 20.4627 18.4756 20.416 18.5583 20.3546C19.5954 19.5852 20.9871 18.502 22.4797 17.1968C22.4933 17.1855 22.5065 17.1739 22.5193 17.1621C23.8789 15.971 25.3201 14.5968 26.6516 13.1084C29.4192 10.0149 31.9014 6.22351 31.9014 2.44287C31.9014 1.89059 31.4537 1.44287 30.9014 1.44287C27.1207 1.44287 23.3293 3.92512 20.2358 6.69274C18.7432 8.02812 17.3653 9.47374 16.1719 10.8367C16.1672 10.842 16.1626 10.8473 16.158 10.8526ZM18.4556 11.2833C19.8705 12.2511 21.0931 13.4738 22.061 14.8886C23.1037 13.9354 24.1666 12.8865 25.1611 11.7749C27.555 9.09904 29.4081 6.21769 29.817 3.52728C27.1266 3.93617 24.2452 5.78936 21.5693 8.18329C20.4577 9.17779 19.4088 10.2406 18.4556 11.2833Z" fill="#111827"/>
</svg>
