<svg width="33" height="33" viewBox="0 0 33 33" fill="none" xmlns="http://www.w3.org/2000/svg">
<path d="M24.9829 24.3852C24.9829 22.6181 26.5542 20.8501 26.9032 20.4792C26.941 20.439 27.0016 20.439 27.0395 20.4792C27.3885 20.8501 28.9598 22.6181 28.9598 24.3852C28.9598 24.9125 28.7503 25.4183 28.3774 25.7912C28.0045 26.1641 27.4987 26.3736 26.9713 26.3736C26.444 26.3736 25.9382 26.1641 25.5653 25.7912C25.1924 25.4183 24.9829 24.9125 24.9829 24.3852Z" fill="#1C1B1F"/>
<path d="M8.77449 6.36516C8.38397 5.97463 7.7508 5.97463 7.36028 6.36516C6.96975 6.75568 6.96975 7.38885 7.36028 7.77937L8.77449 6.36516ZM11.8263 9.41695L8.77449 6.36516L7.36028 7.77937L10.4121 10.8312L11.8263 9.41695Z" fill="#1C1B1F"/>
<path fill-rule="evenodd" clip-rule="evenodd" d="M5.66692 15.5758C5.27639 15.9664 5.27639 16.5995 5.66692 16.99L14.9385 26.2616C15.329 26.6522 15.9622 26.6522 16.3527 26.2616L25.6243 16.99C26.0148 16.5995 26.0148 15.9664 25.6243 15.5758L16.3527 6.30425C15.9622 5.91372 15.329 5.91372 14.9385 6.30425L11.8262 9.41659L15.3472 12.9377C15.7364 12.7521 16.1721 12.6482 16.632 12.6482C18.2824 12.6482 19.6204 13.9862 19.6204 15.6366C19.6204 17.2871 18.2824 18.625 16.632 18.625C14.9815 18.625 13.6436 17.2871 13.6436 15.6366C13.6436 15.1767 13.7474 14.7411 13.933 14.3519L10.4119 10.8308L5.66692 15.5758ZM15.9331 14.9378L15.9275 14.9434C15.7519 15.1218 15.6436 15.3665 15.6436 15.6366C15.6436 16.1825 16.0861 16.625 16.632 16.625C17.1779 16.625 17.6204 16.1825 17.6204 15.6366C17.6204 15.0907 17.1779 14.6482 16.632 14.6482C16.3619 14.6482 16.1171 14.7565 15.9387 14.9321L15.9331 14.9378Z" fill="#1C1B1F"/>
</svg>
