<svg width="33" height="33" viewBox="0 0 33 33" fill="none" xmlns="http://www.w3.org/2000/svg">
<path fill-rule="evenodd" clip-rule="evenodd" d="M11.3828 3.28296C8.06911 3.28296 5.38281 5.96925 5.38281 9.28296V18.5239C5.38281 19.0762 5.83053 19.5239 6.38281 19.5239H13.2644L12.7614 24.4721C12.4997 27.0465 14.5203 29.283 17.108 29.283C19.6956 29.283 21.7163 27.0465 21.4546 24.4721L20.9516 19.5239H27.5373C28.0896 19.5239 28.5373 19.0762 28.5373 18.5239V4.28296C28.5373 3.73067 28.0896 3.28296 27.5373 3.28296H23.6909H11.3828ZM22.6909 5.28296V10.0132C22.6909 10.5654 23.1386 11.0132 23.6909 11.0132C24.2432 11.0132 24.6909 10.5654 24.6909 10.0132V5.28296H26.5373V13.8594H7.38281V9.28296C7.38281 7.07382 9.17368 5.28296 11.3828 5.28296H22.6909Z" fill="#1C1B1F"/>
</svg>
