<svg width="32" height="32" viewBox="0 0 32 32" fill="none" xmlns="http://www.w3.org/2000/svg">
<path fill-rule="evenodd" clip-rule="evenodd" d="M4.67184 3.40601C4.3957 3.40601 4.17184 3.62986 4.17184 3.90601V7.77632C4.1428 7.77378 4.1134 7.77249 4.0837 7.77249H1.00098C0.448692 7.77249 0.000976562 8.2202 0.000976562 8.77249C0.000976562 9.32477 0.448692 9.77249 1.00098 9.77249H4.0837C4.1134 9.77249 4.1428 9.77119 4.17184 9.76865V13.5885C4.17184 13.8647 4.3957 14.0885 4.67185 14.0885H26.1051C26.3813 14.0885 26.6051 13.8647 26.6051 13.5885V9.77172C26.6182 9.77223 26.6314 9.77249 26.6446 9.77249H29.9991V15.4008C29.9991 15.8337 29.7206 16.2175 29.3089 16.3516L16.0354 20.6762C15.4179 20.8774 15.0001 21.453 15.0001 22.1024V27.594C15.0001 28.1462 15.4478 28.594 16.0001 28.594C16.5523 28.594 17.0001 28.1462 17.0001 27.594V22.4654L29.9285 18.2532C31.1634 17.8509 31.9991 16.6996 31.9991 15.4008V9.27249C31.9991 8.44406 31.3276 7.77249 30.4991 7.77249H26.6446C26.6314 7.77249 26.6182 7.77274 26.6051 7.77325V3.90601C26.6051 3.62986 26.3813 3.40601 26.1051 3.40601H4.67184Z" fill="#111827"/>
</svg>
