<svg width="32" height="32" viewBox="0 0 32 32" fill="none" xmlns="http://www.w3.org/2000/svg">
<path fill-rule="evenodd" clip-rule="evenodd" d="M7.77929 0.000854492C4.46559 0.000854492 1.7793 2.68715 1.7793 6.00085V18.801C1.7793 19.3532 2.22701 19.801 2.7793 19.801H11.6574L11.0007 26.261C10.6886 29.3316 13.0986 31.999 16.1849 31.999C19.2713 31.999 21.6813 29.3316 21.3692 26.2611L20.7125 19.801H29.2208C29.7731 19.801 30.2208 19.3532 30.2208 18.801V1.00085C30.2208 0.44857 29.7731 0.000854492 29.2208 0.000854492H24.4129H7.77929ZM23.4129 2.00085V8.16317C23.4129 8.71546 23.8606 9.16317 24.4129 9.16317C24.9651 9.16317 25.4129 8.71546 25.4129 8.16317V2.00085H28.2208V12.9707H3.7793V6.00085C3.7793 3.79172 5.57016 2.00085 7.77929 2.00085H23.4129Z" fill="#111827"/>
</svg>
