<svg width="33" height="33" viewBox="0 0 33 33" fill="none" xmlns="http://www.w3.org/2000/svg">
<path fill-rule="evenodd" clip-rule="evenodd" d="M28.0843 5.10125C26.8514 3.86827 24.8523 3.86827 23.6193 5.10125L17.351 11.3695L15.3625 9.50292C14.9712 9.13565 14.3598 9.14268 13.9771 9.51886L4.31611 19.0147C4.12589 19.2017 4.01825 19.4569 4.0171 19.7236C4.01595 19.9903 4.12139 20.2464 4.30998 20.435L12.865 28.9901C13.0526 29.1776 13.3069 29.283 13.5722 29.283C13.8374 29.283 14.0917 29.1776 14.2793 28.9901L23.5971 19.6722C23.9876 19.2817 23.9876 18.6486 23.5971 18.258L21.4948 16.1558L28.0844 9.56626C29.3173 8.33328 29.3173 6.33423 28.0843 5.10125ZM11.9427 14.3229L6.43743 19.734L7.88312 21.1797L10.5887 18.4742C10.9792 18.0836 11.6124 18.0836 12.0029 18.4742C12.3934 18.8647 12.3934 19.4979 12.0029 19.8884L9.29733 22.5939L10.7661 24.0627L13.4715 21.3573C13.862 20.9668 14.4952 20.9668 14.8857 21.3573C15.2762 21.7479 15.2762 22.381 14.8857 22.7716L12.1803 25.4769L13.5722 26.8687L19.0303 21.4106L11.9427 14.3229Z" fill="#1C1B1F"/>
</svg>
