<svg width="33" height="33" viewBox="0 0 33 33" fill="none" xmlns="http://www.w3.org/2000/svg">
<path fill-rule="evenodd" clip-rule="evenodd" d="M7.99658 6.60718C7.72044 6.60718 7.49658 6.83104 7.49658 7.10718V9.90307C7.47336 9.90145 7.44992 9.90063 7.42629 9.90063H4.95996C4.40768 9.90063 3.95996 10.3484 3.95996 10.9006C3.95996 11.4529 4.40768 11.9006 4.95996 11.9006H7.42629C7.44992 11.9006 7.47336 11.8998 7.49658 11.8982V14.6537C7.49658 14.9299 7.72044 15.1537 7.99658 15.1537H24.9443C25.2205 15.1537 25.4443 14.9299 25.4443 14.6537V11.9001C25.4549 11.9005 25.4655 11.9006 25.4761 11.9006H27.96V15.9133C27.96 16.3462 27.6814 16.73 27.2697 16.8641L16.9953 20.2116C16.3778 20.4128 15.96 20.9884 15.96 21.6378V25.9587C15.96 26.511 16.4077 26.9587 16.96 26.9587C17.5122 26.9587 17.96 26.511 17.96 25.9587V22.0008L27.8893 18.7657C29.1242 18.3634 29.96 17.2121 29.96 15.9133V11.4006C29.96 10.5722 29.2884 9.90063 28.46 9.90063H25.4761C25.4655 9.90063 25.4549 9.9008 25.4443 9.90113V7.10718C25.4443 6.83104 25.2205 6.60718 24.9443 6.60718H7.99658Z" fill="#1C1B1F"/>
</svg>
