<svg width="32" height="32" viewBox="0 0 32 32" fill="none" xmlns="http://www.w3.org/2000/svg">
<path fill-rule="evenodd" clip-rule="evenodd" d="M0.29387 16.7071C-0.0966542 16.3166 -0.0966548 15.6834 0.293869 15.2929L7.19742 8.38935L12.1337 13.3256C11.8346 13.8583 11.6641 14.4728 11.6641 15.1272C11.6641 17.1626 13.3141 18.8126 15.3495 18.8126C17.3849 18.8126 19.0349 17.1626 19.0349 15.1272C19.0349 13.0918 17.3849 11.4418 15.3495 11.4418C14.6951 11.4418 14.0806 11.6123 13.5479 11.9114L8.61177 6.97527L7.19762 8.38942L3.0761 4.2679C2.68557 3.87737 2.68557 3.24421 3.0761 2.85368C3.46662 2.46316 4.09979 2.46316 4.49031 2.85368L8.6117 6.97507L13.3111 2.27568C13.7016 1.88516 14.3348 1.88516 14.7253 2.27568L27.7425 15.2929C28.1331 15.6834 28.1331 16.3166 27.7425 16.7071L14.7253 29.7243C14.3348 30.1149 13.7016 30.1149 13.3111 29.7243L0.29387 16.7071ZM14.1589 13.9343C14.4638 13.63 14.8847 13.4418 15.3495 13.4418C16.2803 13.4418 17.0349 14.1964 17.0349 15.1272C17.0349 16.058 16.2803 16.8126 15.3495 16.8126C14.4187 16.8126 13.6641 16.058 13.6641 15.1272C13.6641 14.6612 13.8532 14.2394 14.1589 13.9343ZM26.6279 26.9424C26.6279 24.5148 28.8237 22.0859 29.2442 21.643C29.2822 21.603 29.3444 21.603 29.3825 21.643C29.8029 22.0859 31.9988 24.5148 31.9988 26.9424C31.9988 27.6546 31.7158 28.3376 31.2122 28.8412C30.7086 29.3448 30.0256 29.6278 29.3133 29.6278C28.6011 29.6278 27.9181 29.3448 27.4145 28.8412C26.9109 28.3376 26.6279 27.6546 26.6279 26.9424Z" fill="#111827"/>
</svg>
