<svg width="32" height="32" viewBox="0 0 32 32" fill="none" xmlns="http://www.w3.org/2000/svg">
<path fill-rule="evenodd" clip-rule="evenodd" d="M31.9993 16.2037C32.0106 17.4471 31.8773 18.6875 31.6022 19.9001C31.4003 20.7834 30.9044 21.5719 30.1957 22.1365C29.487 22.7011 28.6076 23.0083 27.7015 23.0076H20C18.9391 23.0076 17.9217 23.4291 17.1715 24.1792C16.4214 24.9294 16 25.9468 16 27.0076V27.658C16.0001 28.2977 15.8468 28.928 15.553 29.4962C15.2593 30.0644 14.8335 30.5538 14.3115 30.9235C13.7895 31.2931 13.1864 31.5322 12.5529 31.6207C11.9194 31.7092 11.274 31.6444 10.6706 31.4319C7.12476 30.1788 4.13348 27.7169 2.22178 24.4783C0.310068 21.2396 -0.399932 17.4311 0.216381 13.7212C0.832693 10.0112 2.73594 6.63689 5.59211 4.19029C8.44827 1.7437 12.0749 0.381189 15.8355 0.341881C24.6402 0.253187 31.9254 7.39885 31.9993 16.2037ZM15.9999 9.67437C17.1045 9.67437 17.9999 8.77894 17.9999 7.67437C17.9999 6.56981 17.1045 5.67438 15.9999 5.67438C14.8954 5.67438 14 6.56981 14 7.67437C14 8.77894 14.8954 9.67437 15.9999 9.67437ZM8.49476 14.0077C9.59933 14.0077 10.4948 13.1123 10.4948 12.0077C10.4948 10.9031 9.59933 10.0077 8.49476 10.0077C7.3902 10.0077 6.49477 10.9031 6.49477 12.0077C6.49477 13.1123 7.3902 14.0077 8.49476 14.0077ZM10.4948 20.6743C10.4948 21.7789 9.59933 22.6743 8.49476 22.6743C7.3902 22.6743 6.49477 21.7789 6.49477 20.6743C6.49477 19.5698 7.3902 18.6743 8.49476 18.6743C9.59933 18.6743 10.4948 19.5698 10.4948 20.6743ZM23.5051 14.0077C24.6097 14.0077 25.5051 13.1123 25.5051 12.0077C25.5051 10.9031 24.6097 10.0077 23.5051 10.0077C22.4006 10.0077 21.5051 10.9031 21.5051 12.0077C21.5051 13.1123 22.4006 14.0077 23.5051 14.0077Z" fill="#111827"/>
</svg>
