<svg width="33" height="33" viewBox="0 0 33 33" fill="none" xmlns="http://www.w3.org/2000/svg">
<path fill-rule="evenodd" clip-rule="evenodd" d="M28.9595 16.4356C28.968 17.3681 28.868 18.2985 28.6617 19.2079C28.5103 19.8704 28.1383 20.4618 27.6068 20.8852C27.0753 21.3087 26.4157 21.539 25.7361 21.5386H19.96C19.1643 21.5386 18.4013 21.8546 17.8387 22.4172C17.2761 22.9799 16.96 23.7429 16.96 24.5386V25.0264C16.9601 25.5061 16.8451 25.9789 16.6248 26.405C16.4044 26.8311 16.0851 27.1982 15.6936 27.4755C15.3021 27.7527 14.8498 27.932 14.3747 27.9984C13.8996 28.0647 13.4155 28.0162 12.963 27.8568C10.3035 26.917 8.06008 25.0705 6.6263 22.6415C5.19251 20.2125 4.66001 17.3562 5.12225 14.5737C5.58448 11.7912 7.01192 9.26046 9.15405 7.42551C11.2962 5.59055 14.0161 4.56867 16.8366 4.53919C23.4402 4.47267 28.9041 9.83193 28.9595 16.4356ZM16.96 11.5386C17.7884 11.5386 18.46 10.867 18.46 10.0386C18.46 9.21015 17.7884 8.53857 16.96 8.53857C16.1315 8.53857 15.46 9.21015 15.46 10.0386C15.46 10.867 16.1315 11.5386 16.96 11.5386ZM11.3311 14.7886C12.1595 14.7886 12.8311 14.117 12.8311 13.2886C12.8311 12.4601 12.1595 11.7886 11.3311 11.7886C10.5026 11.7886 9.83105 12.4601 9.83105 13.2886C9.83105 14.117 10.5026 14.7886 11.3311 14.7886ZM12.8311 19.7886C12.8311 20.617 12.1595 21.2886 11.3311 21.2886C10.5026 21.2886 9.83105 20.617 9.83105 19.7886C9.83105 18.9601 10.5026 18.2886 11.3311 18.2886C12.1595 18.2886 12.8311 18.9601 12.8311 19.7886ZM22.5889 14.7886C23.4173 14.7886 24.0889 14.117 24.0889 13.2886C24.0889 12.4601 23.4173 11.7886 22.5889 11.7886C21.7604 11.7886 21.0889 12.4601 21.0889 13.2886C21.0889 14.117 21.7604 14.7886 22.5889 14.7886Z" fill="#1C1B1F"/>
</svg>
