<svg width="32" height="33" viewBox="0 0 32 33" fill="none" xmlns="http://www.w3.org/2000/svg">
<path fill-rule="evenodd" clip-rule="evenodd" d="M5.11977 5.01036C8.00786 2.12227 11.9249 0.499756 16.0093 0.499756C20.0937 0.499756 24.0108 2.12227 26.8989 5.01036C29.787 7.89844 31.4095 11.8155 31.4095 15.8999C31.4095 16.1651 31.3041 16.4195 31.1166 16.607C30.9949 16.7287 30.8451 16.8158 30.6825 16.8619L17.0097 27.0601V30.5H18.4094C18.9616 30.5 19.4094 30.9477 19.4094 31.5C19.4094 32.0522 18.9616 32.5 18.4094 32.5H13.6093C13.057 32.5 12.6093 32.0522 12.6093 31.5C12.6093 30.9477 13.057 30.5 13.6093 30.5H15.0097V27.1177L0.996734 16.7799C0.674321 16.5421 0.536075 16.1473 0.609644 15.7787C0.641393 11.7381 2.26025 7.86987 5.11977 5.01036ZM21.7989 16.8999H27.2864L17.4998 24.1995L21.7989 16.8999ZM21.9915 14.8999H29.3721C29.1337 11.7117 27.7609 8.70082 25.4847 6.42457C23.2745 4.21441 20.3718 2.85603 17.2866 2.56073C20.6953 5.91736 21.8077 11.3823 21.9915 14.8999ZM14.8985 2.54584C12.8011 4.7603 10.0866 9.09274 10.0408 14.8999H2.6465C2.88497 11.7117 4.25773 8.70082 6.53398 6.42457C8.78384 4.1747 11.7514 2.80751 14.8985 2.54584ZM10.3081 16.8999L14.6778 24.3875L4.52829 16.8999H10.3081Z" fill="#111827"/>
</svg>
