<svg width="33" height="33" viewBox="0 0 33 33" fill="none" xmlns="http://www.w3.org/2000/svg">
<path fill-rule="evenodd" clip-rule="evenodd" d="M8.11435 5.94998C10.4623 3.60203 13.6468 2.28296 16.9673 2.28296C20.2878 2.28296 23.4724 3.60203 25.8203 5.94998C28.1683 8.29794 29.4873 11.4824 29.4873 14.803C29.4873 15.0682 29.382 15.3225 29.1944 15.5101C29.0823 15.6222 28.9463 15.7049 28.7984 15.7534L17.9674 23.8319V26.283H18.8874C19.4397 26.283 19.8874 26.7307 19.8874 27.283C19.8874 27.8352 19.4397 28.283 18.8874 28.283H15.0474C14.4951 28.283 14.0474 27.8352 14.0474 27.283C14.0474 26.7307 14.4951 26.283 15.0474 26.283H15.9674V23.8777L4.83902 15.668C4.52292 15.4348 4.38384 15.0507 4.44785 14.6885C4.4778 11.4093 5.79339 8.27094 8.11435 5.94998ZM21.4816 15.803H25.3867L18.4221 20.9977L21.4816 15.803ZM21.7418 13.803H27.4397C27.2084 11.3799 26.1419 9.09997 24.4061 7.3642C22.7283 5.6864 20.5421 4.63386 18.2096 4.35653C20.7032 6.99079 21.5687 11.0644 21.7418 13.803ZM15.8764 4.33964C14.2562 6.14196 12.2881 9.4415 12.1958 13.803H6.49494C6.72623 11.3799 7.79279 9.09997 9.52857 7.3642C11.2426 5.65015 13.4872 4.58867 15.8764 4.33964ZM12.5233 15.803L15.6476 21.1565L8.39088 15.803H12.5233Z" fill="#1C1B1F"/>
</svg>
