<svg width="33" height="33" viewBox="0 0 33 33" fill="none" xmlns="http://www.w3.org/2000/svg">
<path fill-rule="evenodd" clip-rule="evenodd" d="M4.95996 6.20728C5.51225 6.20728 5.95996 6.65499 5.95996 7.20728V25.3585C5.95996 25.9108 5.51225 26.3585 4.95996 26.3585C4.40768 26.3585 3.95996 25.9108 3.95996 25.3585V7.20728C3.95996 6.65499 4.40768 6.20728 4.95996 6.20728ZM13.0273 11.2493C13.5796 11.2493 14.0273 11.697 14.0273 12.2493V14.9055L16.5496 14.0841C17.0748 13.913 17.6391 14.2001 17.8101 14.7253C17.9811 15.2504 17.6941 15.8147 17.1689 15.9858L14.6441 16.808L16.2064 18.9602C16.5308 19.4072 16.4315 20.0325 15.9845 20.3569C15.5376 20.6814 14.9122 20.582 14.5878 20.1351L13.0272 17.985L11.4665 20.1351C11.1421 20.582 10.5167 20.6814 10.0698 20.3569C9.62285 20.0325 9.52352 19.4072 9.84795 18.9602L11.4103 16.8079L8.88566 15.9858C8.36052 15.8147 8.07345 15.2504 8.24446 14.7253C8.41548 14.2001 8.97982 13.913 9.50496 14.0841L12.0273 14.9055V12.2493C12.0273 11.697 12.4751 11.2493 13.0273 11.2493ZM26.1279 12.2493C26.1279 11.697 25.6802 11.2493 25.1279 11.2493C24.5756 11.2493 24.1279 11.697 24.1279 12.2493V14.9055L21.6056 14.0841C21.0804 13.913 20.5161 14.2001 20.345 14.7253C20.174 15.2504 20.4611 15.8147 20.9862 15.9858L23.5112 16.808L21.949 18.9602C21.6246 19.4072 21.7239 20.0325 22.1709 20.3569C22.6178 20.6814 23.2431 20.582 23.5676 20.1351L25.128 17.9854L26.6884 20.1351C27.0128 20.582 27.6382 20.6814 28.0851 20.3569C28.5321 20.0325 28.6314 19.4072 28.307 18.9602L26.7447 16.808L29.2695 15.9858C29.7947 15.8147 30.0817 15.2504 29.9107 14.7253C29.7397 14.2001 29.1754 13.913 28.6502 14.0841L26.1279 14.9055V12.2493Z" fill="#1C1B1F"/>
</svg>
