<svg width="33" height="33" viewBox="0 0 33 33" fill="none" xmlns="http://www.w3.org/2000/svg">
<path fill-rule="evenodd" clip-rule="evenodd" d="M28.96 16.783C28.96 23.4104 23.5874 28.783 16.96 28.783C10.3325 28.783 4.95996 23.4104 4.95996 16.783C4.95996 10.1555 10.3325 4.78296 16.96 4.78296C23.5874 4.78296 28.96 10.1555 28.96 16.783ZM13.96 11.783C14.5122 11.783 14.96 12.2307 14.96 12.783V20.783C14.96 21.3352 14.5122 21.783 13.96 21.783C13.4077 21.783 12.96 21.3352 12.96 20.783V12.783C12.96 12.2307 13.4077 11.783 13.96 11.783ZM19.96 11.783C20.5122 11.783 20.96 12.2307 20.96 12.783V20.783C20.96 21.3352 20.5122 21.783 19.96 21.783C19.4077 21.783 18.96 21.3352 18.96 20.783V12.783C18.96 12.2307 19.4077 11.783 19.96 11.783Z" fill="#1C1B1F"/>
</svg>
