<svg width="33" height="33" viewBox="0 0 33 33" fill="none" xmlns="http://www.w3.org/2000/svg">
<path fill-rule="evenodd" clip-rule="evenodd" d="M15.1139 8.93684C15.1139 10.2113 14.0807 11.2445 12.8062 11.2445C11.5317 11.2445 10.4985 10.2113 10.4985 8.93684C10.4985 7.66234 11.5317 6.62915 12.8062 6.62915C14.0807 6.62915 15.1139 7.66234 15.1139 8.93684ZM7.26765 16.7831C8.54216 16.7831 9.57535 15.7499 9.57535 14.4754C9.57535 13.2009 8.54216 12.1677 7.26765 12.1677C5.99315 12.1677 4.95996 13.2009 4.95996 14.4754C4.95996 15.7499 5.99315 16.7831 7.26765 16.7831ZM26.6524 16.7831C27.9269 16.7831 28.9601 15.7499 28.9601 14.4754C28.9601 13.2009 27.9269 12.1677 26.6524 12.1677C25.3779 12.1677 24.3447 13.2009 24.3447 14.4754C24.3447 15.7499 25.3779 16.7831 26.6524 16.7831ZM21.1138 11.2445C22.3883 11.2445 23.4215 10.2113 23.4215 8.93684C23.4215 7.66234 22.3883 6.62915 21.1138 6.62915C19.8393 6.62915 18.8062 7.66234 18.8062 8.93684C18.8062 10.2113 19.8393 11.2445 21.1138 11.2445ZM20.9524 17.0023C21.3185 18.2764 22.1727 19.3545 23.3293 20.0023C24.049 20.3944 24.6178 21.0148 24.946 21.7657C25.2743 22.5166 25.3434 23.3554 25.1425 24.15C24.9415 24.9445 24.4819 25.6496 23.8361 26.1542C23.1903 26.6587 22.395 26.9341 21.5755 26.9369C21.0804 26.9372 20.5901 26.8392 20.1332 26.6485C19.1273 26.2314 18.049 26.0167 16.9601 26.0167C15.8712 26.0167 14.7929 26.2314 13.787 26.6485C13.3301 26.8392 12.8398 26.9372 12.3447 26.9369C11.5252 26.9341 10.7299 26.6587 10.0841 26.1542C9.43827 25.6496 8.9787 24.9445 8.77775 24.15C8.5768 23.3554 8.64591 22.5166 8.97417 21.7657C9.30244 21.0148 9.87121 20.3944 10.5909 20.0023C11.7475 19.3545 12.6017 18.2764 12.9678 17.0023C13.2168 16.1358 13.741 15.3738 14.4612 14.8314C15.1814 14.289 16.0585 13.9956 16.9601 13.9956C17.8617 13.9956 18.7388 14.289 19.459 14.8314C20.1793 15.3738 20.7034 16.1358 20.9524 17.0023Z" fill="#1C1B1F"/>
</svg>
