<svg width="32" height="33" viewBox="0 0 32 33" fill="none" xmlns="http://www.w3.org/2000/svg">
<path fill-rule="evenodd" clip-rule="evenodd" d="M13.5385 6.03833C13.5385 7.73766 12.1609 9.11523 10.4616 9.11523C8.7623 9.11523 7.38472 7.73766 7.38472 6.03833C7.38472 4.339 8.7623 2.96143 10.4616 2.96143C12.1609 2.96143 13.5385 4.339 13.5385 6.03833ZM3.0769 16.5C4.77623 16.5 6.15381 15.1224 6.15381 13.423C6.15381 11.7237 4.77623 10.3461 3.0769 10.3461C1.37758 10.3461 0 11.7237 0 13.423C0 15.1224 1.37758 16.5 3.0769 16.5ZM28.9231 16.5C30.6224 16.5 32 15.1224 32 13.423C32 11.7237 30.6224 10.3461 28.9231 10.3461C27.2238 10.3461 25.8462 11.7237 25.8462 13.423C25.8462 15.1224 27.2238 16.5 28.9231 16.5ZM21.5384 9.11523C23.2377 9.11523 24.6153 7.73766 24.6153 6.03833C24.6153 4.339 23.2377 2.96143 21.5384 2.96143C19.8391 2.96143 18.4615 4.339 18.4615 6.03833C18.4615 7.73766 19.8391 9.11523 21.5384 9.11523ZM21.3231 16.7922C21.8113 18.491 22.9502 19.9285 24.4923 20.7922C25.4519 21.315 26.2102 22.1421 26.6479 23.1434C27.0856 24.1446 27.1777 25.263 26.9098 26.3224C26.6419 27.3817 26.0291 28.3219 25.1681 28.9946C24.307 29.6674 23.2466 30.0346 22.1539 30.0383C21.4937 30.0387 20.8401 29.908 20.2308 29.6537C18.8896 29.0976 17.452 28.8114 16.0001 28.8114C14.5482 28.8114 13.1105 29.0976 11.7693 29.6537C11.1601 29.908 10.5064 30.0387 9.84628 30.0383C8.75357 30.0346 7.69315 29.6674 6.8321 28.9946C5.97104 28.3219 5.35828 27.3817 5.09035 26.3224C4.82243 25.263 4.91456 24.1446 5.35225 23.1434C5.78993 22.1421 6.54829 21.315 7.50784 20.7922C9.05 19.9285 10.1889 18.491 10.677 16.7922C11.009 15.6368 11.7079 14.6208 12.6682 13.8976C13.6285 13.1744 14.798 12.7833 16.0001 12.7833C17.2022 12.7833 18.3717 13.1744 19.332 13.8976C20.2923 14.6208 20.9911 15.6368 21.3231 16.7922Z" fill="#111827"/>
</svg>
