<svg width="32" height="33" viewBox="0 0 32 33" fill="none" xmlns="http://www.w3.org/2000/svg">
<path fill-rule="evenodd" clip-rule="evenodd" d="M32.0002 15.4077C30.2777 18.3054 27.1156 20.2473 23.4999 20.2473C19.8216 20.2473 16.6126 18.2376 14.9113 15.2562H1.99976V10.3643H13.6182C13.6183 9.67906 13.6881 9.01016 13.8209 8.36426H0.999756C0.447471 8.36426 -0.000244141 8.81197 -0.000244141 9.36426V30.1338C-0.000244141 30.6861 0.447471 31.1338 0.999756 31.1338H31.0002C31.5525 31.1338 32.0002 30.6861 32.0002 30.1338V15.4077ZM20.7682 25.5182C20.7682 24.9659 21.2159 24.5182 21.7682 24.5182H26.3837C26.936 24.5182 27.3837 24.9659 27.3837 25.5182C27.3837 26.0705 26.936 26.5182 26.3837 26.5182H21.7682C21.2159 26.5182 20.7682 26.0705 20.7682 25.5182ZM14.845 24.5182C14.2927 24.5182 13.845 24.9659 13.845 25.5182C13.845 26.0705 14.2927 26.5182 14.845 26.5182H17.1533C17.7055 26.5182 18.1533 26.0705 18.1533 25.5182C18.1533 24.9659 17.7055 24.5182 17.1533 24.5182H14.845Z" fill="#111827"/>
<path fill-rule="evenodd" clip-rule="evenodd" d="M31.9995 10.3662C31.9995 15.0606 28.1939 18.8662 23.4995 18.8662C18.8051 18.8662 14.9995 15.0606 14.9995 10.3662C14.9995 5.67179 18.8051 1.86621 23.4995 1.86621C28.1939 1.86621 31.9995 5.67179 31.9995 10.3662ZM24.4991 5.40801C24.4991 4.85573 24.0514 4.40801 23.4991 4.40801C22.9468 4.40801 22.4991 4.85573 22.4991 5.40801V5.82484H22.4366C21.7017 5.82484 20.9969 6.11676 20.4773 6.63639C19.9577 7.15603 19.6658 7.8608 19.6658 8.59567C19.6658 9.33054 19.9577 10.0353 20.4773 10.5549C20.9969 11.0746 21.7017 11.3665 22.4366 11.3665H24.5616C24.766 11.3665 24.9621 11.4477 25.1067 11.5923C25.2512 11.7368 25.3324 11.9329 25.3324 12.1373C25.3324 12.3418 25.2512 12.5378 25.1067 12.6824C24.9621 12.827 24.766 12.9082 24.5616 12.9082H23.5172L23.4991 12.908L23.481 12.9082H21.3741C20.8218 12.9082 20.3741 13.3559 20.3741 13.9082C20.3741 14.4605 20.8218 14.9082 21.3741 14.9082H22.4991V15.3247C22.4991 15.877 22.9468 16.3247 23.4991 16.3247C24.0514 16.3247 24.4991 15.877 24.4991 15.3247V14.9082H24.5616C25.2965 14.9082 26.0012 14.6162 26.5209 14.0966C27.0405 13.577 27.3324 12.8722 27.3324 12.1373C27.3324 11.4025 27.0405 10.6977 26.5209 10.1781C26.0012 9.65843 25.2965 9.3665 24.5616 9.3665H22.4366C22.2322 9.3665 22.0361 9.28529 21.8915 9.14073C21.747 8.99617 21.6658 8.80011 21.6658 8.59567C21.6658 8.39123 21.747 8.19517 21.8915 8.05061C22.0361 7.90605 22.2322 7.82484 22.4366 7.82484H25.6241C26.1764 7.82484 26.6241 7.37712 26.6241 6.82484C26.6241 6.27255 26.1764 5.82484 25.6241 5.82484H24.4991V5.40801Z" fill="#111827"/>
</svg>
