<svg width="33" height="33" viewBox="0 0 33 33" fill="none" xmlns="http://www.w3.org/2000/svg">
<path fill-rule="evenodd" clip-rule="evenodd" d="M15.9498 4.86821C15.9498 4.57568 15.6994 4.34472 15.4093 4.38215C9.51437 5.14272 4.95996 10.1809 4.95996 16.2829C4.95996 18.2741 5.44496 20.1521 6.30328 21.8051C6.43806 22.0647 6.77047 22.1383 7.01066 21.9714L15.7351 15.9093C15.8696 15.8159 15.9498 15.6625 15.9498 15.4987V4.86821ZM8.15274 23.6132C7.91245 23.7802 7.86561 24.1176 8.06199 24.3345C9.93077 26.3984 12.5077 27.8092 15.4093 28.1836C15.6994 28.221 15.9498 27.9901 15.9498 27.6976V19.1518C15.9498 18.7481 15.496 18.5109 15.1645 18.7412L8.15274 23.6132ZM17.9498 27.7002C17.9498 27.9923 18.1996 28.2232 18.4895 28.1863C21.3805 27.8185 23.9505 26.4221 25.8207 24.3754C26.0182 24.1593 25.9727 23.8214 25.7329 23.6535L18.7366 18.7546C18.4052 18.5226 17.9498 18.7597 17.9498 19.1642V27.7002ZM27.591 21.8541C27.4552 22.1129 27.1227 22.1851 26.8833 22.0174L18.163 15.9114C18.0294 15.8179 17.9498 15.665 17.9498 15.5019V4.86561C17.9498 4.57342 18.1997 4.34257 18.4895 4.37944C24.3947 5.13068 28.96 10.1736 28.96 16.2829C28.96 18.2938 28.4653 20.1893 27.591 21.8541Z" fill="#1C1B1F"/>
</svg>
