<svg width="32" height="32" viewBox="0 0 32 32" fill="none" xmlns="http://www.w3.org/2000/svg">
<path fill-rule="evenodd" clip-rule="evenodd" d="M14.9865 0.563774C14.9865 0.275361 14.7422 0.0460827 14.4551 0.0735889C6.34339 0.850755 0 7.68457 0 16C0 18.8428 0.741412 21.5125 2.04142 23.8262C2.18267 24.0775 2.50984 24.1465 2.74663 23.982L14.7718 15.6265C14.9063 15.533 14.9865 15.3796 14.9865 15.2159V0.563774ZM3.88878 25.6238C3.65188 25.7884 3.60252 26.1193 3.78903 26.3394C6.41158 29.4335 10.1891 31.5178 14.4557 31.9264C14.7428 31.9539 14.9865 31.7246 14.9865 31.4362V18.869C14.9865 18.4653 14.5327 18.228 14.2012 18.4584L3.88878 25.6238ZM16.9865 31.4387C16.9865 31.7268 17.2296 31.956 17.5164 31.929C21.7687 31.5293 25.5371 29.4653 28.1633 26.3953C28.351 26.1759 28.3029 25.8446 28.0665 25.679L17.7733 18.4716C17.4419 18.2396 16.9865 18.4767 16.9865 18.8812V31.4387ZM29.9224 23.8901C29.7801 24.1407 29.4529 24.2083 29.2169 24.043L17.1997 15.6285C17.0661 15.5349 16.9865 15.382 16.9865 15.2189V0.561214C16.9865 0.273133 17.2303 0.0439713 17.5171 0.0709471C25.6421 0.835131 32 7.67506 32 16C32 18.869 31.2448 21.5617 29.9224 23.8901Z" fill="#111827"/>
</svg>
