<svg width="32" height="32" viewBox="0 0 32 32" fill="none" xmlns="http://www.w3.org/2000/svg">
<path d="M17.0034 6.06458L26.1246 15.1859C26.1873 15.2485 26.2321 15.3267 26.2546 15.4124L27.5411 20.3089C27.5862 20.4808 27.5367 20.6638 27.411 20.7895L20.9622 27.2383" stroke="#111827" stroke-width="2" stroke-linecap="round"/>
<path fill-rule="evenodd" clip-rule="evenodd" d="M21.7564 1.27393L31 10.5176L10.8229 30.6947L1.57926 21.451L21.7564 1.27393ZM21.7651 1.33332L30.9492 10.5174L26.1805 15.2861L16.9964 6.102L21.7651 1.33332ZM10.7546 30.7261L1 30.4853L1.59849 21.5344L10.7546 30.7261Z" fill="#111827"/>
<path d="M21.7564 1.27393L22.4635 0.566819C22.0729 0.176295 21.4398 0.176295 21.0493 0.566819L21.7564 1.27393ZM31 10.5176L31.7071 11.2247C31.8946 11.0371 32 10.7828 32 10.5176C32 10.2524 31.8946 9.998 31.7071 9.81046L31 10.5176ZM10.8229 30.6947L10.1158 31.4018C10.5063 31.7923 11.1395 31.7923 11.53 31.4018L10.8229 30.6947ZM1.57926 21.451L0.872156 20.7439C0.68462 20.9314 0.579263 21.1858 0.579263 21.451C0.579263 21.7162 0.68462 21.9706 0.872156 22.1581L1.57926 21.451ZM21.7651 1.33332L22.4722 0.626215C22.0816 0.23569 21.4485 0.23569 21.0579 0.626215L21.7651 1.33332ZM30.9492 10.5174L31.6563 11.2245C31.8438 11.037 31.9492 10.7826 31.9492 10.5174C31.9492 10.2522 31.8438 9.99786 31.6563 9.81032L30.9492 10.5174ZM26.1805 15.2861L25.4734 15.9932C25.8639 16.3837 26.4971 16.3837 26.8876 15.9932L26.1805 15.2861ZM16.9964 6.102L16.2893 5.39489C16.1017 5.58243 15.9964 5.83678 15.9964 6.102C15.9964 6.36721 16.1017 6.62157 16.2893 6.8091L16.9964 6.102ZM10.7546 30.7261L10.73 31.7258C11.1384 31.7359 11.512 31.4965 11.6733 31.1211C11.8347 30.7457 11.7515 30.3099 11.4631 30.0204L10.7546 30.7261ZM1 30.4853L0.0022279 30.4186C-0.0159528 30.6905 0.0776237 30.958 0.261312 31.1593C0.445 31.3606 0.702886 31.4783 0.975318 31.485L1 30.4853ZM1.59849 21.5344L2.30697 20.8287C2.02983 20.5505 1.61551 20.4602 1.24776 20.5979C0.880014 20.7356 0.626916 21.0759 0.600717 21.4677L1.59849 21.5344ZM21.0493 1.98103L30.2929 11.2247L31.7071 9.81046L22.4635 0.566819L21.0493 1.98103ZM30.2929 9.81046L10.1158 29.9876L11.53 31.4018L31.7071 11.2247L30.2929 9.81046ZM11.53 29.9876L2.28637 20.7439L0.872156 22.1581L10.1158 31.4018L11.53 29.9876ZM2.28637 22.1581L22.4635 1.98103L21.0493 0.566819L0.872156 20.7439L2.28637 22.1581ZM21.0579 2.04043L30.2421 11.2245L31.6563 9.81032L22.4722 0.626215L21.0579 2.04043ZM30.2421 9.81032L25.4734 14.579L26.8876 15.9932L31.6563 11.2245L30.2421 9.81032ZM26.8876 14.579L17.7035 5.39489L16.2893 6.8091L25.4734 15.9932L26.8876 14.579ZM17.7035 6.8091L22.4722 2.04043L21.0579 0.626215L16.2893 5.39489L17.7035 6.8091ZM10.7793 29.7264L1.02468 29.4856L0.975318 31.485L10.73 31.7258L10.7793 29.7264ZM1.99777 30.552L2.59626 21.6011L0.600717 21.4677L0.0022279 30.4186L1.99777 30.552ZM0.890013 22.2401L10.0462 31.4319L11.4631 30.0204L2.30697 20.8287L0.890013 22.2401Z" fill="#111827"/>
</svg>
