<svg width="32" height="32" viewBox="0 0 32 32" fill="none" xmlns="http://www.w3.org/2000/svg">
<path fill-rule="evenodd" clip-rule="evenodd" d="M14.8125 31.9667V26.189C14.802 26.1309 14.7965 26.0711 14.7965 26.0101C14.7965 25.1979 14.49 24.4289 13.9597 23.8699C13.431 23.3126 12.7257 23.0101 12.002 23.0101C11.2784 23.0101 10.573 23.3126 10.0444 23.8699C9.51407 24.4289 9.20752 25.1979 9.20752 26.0101V30.5009C10.9302 31.3099 12.8207 31.8206 14.8125 31.9667ZM7.20752 29.3799C2.86553 26.5186 0 21.599 0 16.0101C0 7.17358 7.16344 0.0101318 16 0.0101318C24.8366 0.0101318 32 7.17358 32 16.0101C32 21.5972 29.1363 26.5155 24.7966 29.3771V22.8033C24.7966 22.6526 24.7625 22.5038 24.6969 22.368L16.8999 6.24148C16.733 5.89626 16.3834 5.67689 16 5.67676C15.6165 5.67663 15.2668 5.89576 15.0996 6.24086L7.30752 22.3291C7.24171 22.465 7.20752 22.614 7.20752 22.765V26.0101V29.3799ZM22.7966 30.499V26.0226L22.7966 26.0101C22.7966 25.2144 22.4805 24.4514 21.9179 23.8888C21.3553 23.3262 20.5922 23.0101 19.7966 23.0101C19.0009 23.0101 18.2378 23.3262 17.6752 23.8888C17.1615 24.4025 16.8533 25.0835 16.8037 25.8037C16.8095 25.8474 16.8125 25.892 16.8125 25.9373V31.9899C18.9437 31.8833 20.9651 31.3597 22.7966 30.499ZM12.002 21.0101C11.2755 21.0101 10.5693 21.1817 9.93112 21.5004L12.5737 16.0443H19.418L22.0876 21.5658C21.3855 21.204 20.601 21.0101 19.7966 21.0101C18.4705 21.0101 17.1987 21.5369 16.261 22.4746C16.1011 22.6345 15.9531 22.8041 15.8177 22.9821C15.6931 22.8113 15.5573 22.648 15.4107 22.4934C14.5161 21.5504 13.2911 21.0101 12.002 21.0101ZM18.451 14.0443L15.9988 8.97249L13.5424 14.0443H18.451Z" fill="#111827"/>
</svg>
