<svg width="32" height="32" viewBox="0 0 32 32" fill="none" xmlns="http://www.w3.org/2000/svg">
<path fill-rule="evenodd" clip-rule="evenodd" d="M1 29.5291C1 28.7561 1.80867 28.1295 2.80623 28.1295L29.0511 28.1295C30.0487 28.1295 30.8573 28.7561 30.8573 29.5291C30.8573 30.302 30.0487 30.9286 29.0511 30.9286L2.80623 30.9286C1.80868 30.9286 1 30.302 1 29.5291Z" fill="#111827"/>
<path fill-rule="evenodd" clip-rule="evenodd" d="M22.0441 1.07129L31.0002 10.0274L11.4508 29.5768L2.49467 20.6207L22.0441 1.07129ZM22.218 1.29388L30.9515 10.0273L26.3312 14.6477L17.5977 5.91421L22.218 1.29388ZM11.3843 29.6073L1.93311 29.3739L2.51298 20.7015L11.3843 29.6073Z" fill="#111827"/>
<path d="M22.0441 1.07129L22.7512 0.364182C22.3607 -0.026342 21.7275 -0.026342 21.337 0.364182L22.0441 1.07129ZM31.0002 10.0274L31.7073 10.7345C31.8948 10.5469 32.0002 10.2926 32.0002 10.0274C32.0002 9.76216 31.8948 9.50781 31.7073 9.32027L31.0002 10.0274ZM11.4508 29.5768L10.7436 30.2839C11.1342 30.6744 11.7673 30.6744 12.1579 30.2839L11.4508 29.5768ZM2.49467 20.6207L1.78756 19.9136C1.60002 20.1011 1.49467 20.3555 1.49467 20.6207C1.49467 20.8859 1.60002 21.1403 1.78756 21.3278L2.49467 20.6207ZM22.218 1.29388L22.9251 0.586772C22.7376 0.399235 22.4833 0.293878 22.218 0.293878C21.9528 0.293878 21.6985 0.399235 21.5109 0.586772L22.218 1.29388ZM30.9515 10.0273L31.6586 10.7345C32.0491 10.3439 32.0491 9.71076 31.6586 9.32024L30.9515 10.0273ZM26.3312 14.6477L25.6241 15.3548C26.0146 15.7453 26.6478 15.7453 27.0383 15.3548L26.3312 14.6477ZM17.5977 5.91421L16.8906 5.2071C16.5001 5.59762 16.5001 6.23079 16.8906 6.62131L17.5977 5.91421ZM11.3843 29.6073L11.3596 30.607C11.7681 30.6171 12.1416 30.3776 12.303 30.0022C12.4644 29.6268 12.3811 29.191 12.0928 28.9015L11.3843 29.6073ZM1.93311 29.3739L0.935333 29.3072C0.917153 29.5791 1.01073 29.8467 1.19442 30.048C1.3781 30.2493 1.63599 30.3669 1.90842 30.3736L1.93311 29.3739ZM2.51298 20.7015L3.22145 19.9958C2.94432 19.7175 2.53 19.6273 2.16225 19.765C1.7945 19.9027 1.5414 20.243 1.5152 20.6348L2.51298 20.7015ZM21.337 1.7784L30.2931 10.7345L31.7073 9.32027L22.7512 0.364182L21.337 1.7784ZM30.2931 9.32027L10.7436 28.8697L12.1579 30.2839L31.7073 10.7345L30.2931 9.32027ZM12.1579 28.8697L3.20177 19.9136L1.78756 21.3278L10.7436 30.2839L12.1579 28.8697ZM3.20177 21.3278L22.7512 1.7784L21.337 0.364182L1.78756 19.9136L3.20177 21.3278ZM21.5109 2.00099L30.2444 10.7345L31.6586 9.32024L22.9251 0.586772L21.5109 2.00099ZM30.2444 9.32024L25.6241 13.9406L27.0383 15.3548L31.6586 10.7345L30.2444 9.32024ZM27.0383 13.9406L18.3048 5.2071L16.8906 6.62131L25.6241 15.3548L27.0383 13.9406ZM18.3048 6.62131L22.9251 2.00099L21.5109 0.586772L16.8906 5.2071L18.3048 6.62131ZM11.409 28.6076L1.95779 28.3742L1.90842 30.3736L11.3596 30.607L11.409 28.6076ZM2.93088 29.4406L3.51075 20.7682L1.5152 20.6348L0.935333 29.3072L2.93088 29.4406ZM1.8045 21.4072L10.6758 30.313L12.0928 28.9015L3.22145 19.9958L1.8045 21.4072Z" fill="#111827"/>
</svg>
