<svg width="32" height="32" viewBox="0 0 32 32" fill="none" xmlns="http://www.w3.org/2000/svg">
<path fill-rule="evenodd" clip-rule="evenodd" d="M21.7567 1.27429L31.0001 10.5177L10.8236 30.6942L1.58016 21.4508L21.7567 1.27429ZM21.9361 1.50397L30.9498 10.5176L26.1812 15.2861L17.1676 6.27251L21.9361 1.50397ZM10.7544 30.7257L1 30.4848L1.59847 21.5342L10.7544 30.7257Z" fill="#111827"/>
<path d="M21.7567 1.27429L22.4638 0.567185C22.0733 0.176661 21.4401 0.176661 21.0496 0.567185L21.7567 1.27429ZM31.0001 10.5177L31.7072 11.2248C31.8947 11.0373 32.0001 10.7829 32.0001 10.5177C32.0001 10.2525 31.8947 9.99811 31.7072 9.81057L31.0001 10.5177ZM10.8236 30.6942L10.1164 31.4013C10.507 31.7919 11.1401 31.7919 11.5307 31.4013L10.8236 30.6942ZM1.58016 21.4508L0.873055 20.7437C0.685519 20.9313 0.580162 21.1856 0.580162 21.4508C0.580162 21.7161 0.685519 21.9704 0.873055 22.1579L1.58016 21.4508ZM21.9361 1.50397L22.6433 0.796865C22.2527 0.406341 21.6196 0.406341 21.229 0.796865L21.9361 1.50397ZM30.9498 10.5176L31.6569 11.2247C31.8444 11.0372 31.9498 10.7828 31.9498 10.5176C31.9498 10.2524 31.8444 9.99803 31.6569 9.81049L30.9498 10.5176ZM26.1812 15.2861L25.4741 15.9932C25.8646 16.3838 26.4978 16.3838 26.8883 15.9932L26.1812 15.2861ZM17.1676 6.27251L16.4605 5.56541C16.273 5.75294 16.1676 6.0073 16.1676 6.27251C16.1676 6.53773 16.273 6.79209 16.4605 6.97962L17.1676 6.27251ZM10.7544 30.7257L10.7297 31.7254C11.1382 31.7355 11.5117 31.496 11.6731 31.1206C11.8344 30.7452 11.7512 30.3094 11.4628 30.0199L10.7544 30.7257ZM1 30.4848L0.0022279 30.4181C-0.0159528 30.69 0.0776237 30.9576 0.261312 31.1589C0.445 31.3602 0.702886 31.4778 0.975318 31.4845L1 30.4848ZM1.59847 21.5342L2.30695 20.8285C2.02981 20.5503 1.61549 20.46 1.24775 20.5977C0.879997 20.7355 0.626899 21.0757 0.6007 21.4675L1.59847 21.5342ZM21.0496 1.9814L30.293 11.2248L31.7072 9.81057L22.4638 0.567185L21.0496 1.9814ZM30.293 9.81057L10.1164 29.9871L11.5307 31.4013L31.7072 11.2248L30.293 9.81057ZM11.5307 29.9871L2.28727 20.7437L0.873055 22.1579L10.1164 31.4013L11.5307 29.9871ZM2.28727 22.1579L22.4638 1.9814L21.0496 0.567185L0.873055 20.7437L2.28727 22.1579ZM21.229 2.21108L30.2427 11.2247L31.6569 9.81049L22.6433 0.796865L21.229 2.21108ZM30.2427 9.81049L25.4741 14.579L26.8883 15.9932L31.6569 11.2247L30.2427 9.81049ZM26.8883 14.579L17.8747 5.56541L16.4605 6.97962L25.4741 15.9932L26.8883 14.579ZM17.8747 6.97962L22.6433 2.21108L21.229 0.796865L16.4605 5.56541L17.8747 6.97962ZM10.7791 29.726L1.02468 29.4852L0.975318 31.4845L10.7297 31.7254L10.7791 29.726ZM1.99777 30.5516L2.59624 21.6009L0.6007 21.4675L0.0022279 30.4181L1.99777 30.5516ZM0.889996 22.2399L10.0459 31.4314L11.4628 30.0199L2.30695 20.8285L0.889996 22.2399Z" fill="#111827"/>
</svg>
