<svg width="33" height="33" viewBox="0 0 33 33" fill="none" xmlns="http://www.w3.org/2000/svg">
<path fill-rule="evenodd" clip-rule="evenodd" d="M22.4667 4.30688L28.9598 10.8L14.7866 24.9732L8.29345 18.4801L22.4667 4.30688ZM22.5926 4.46826L28.9244 10.8L25.5746 14.1497L19.2429 7.81797L22.5926 4.46826ZM14.7383 24.9953L7.88623 24.8262L8.30663 18.5387L14.7383 24.9953Z" fill="#1C1B1F"/>
<path d="M28.9598 10.8L29.6669 11.5071C29.8544 11.3196 29.9598 11.0652 29.9598 10.8C29.9598 10.5348 29.8544 10.2804 29.6669 10.0929L28.9598 10.8ZM22.4667 4.30688L23.1738 3.59978C22.7832 3.20925 22.1501 3.20925 21.7596 3.59978L22.4667 4.30688ZM14.7866 24.9732L14.0795 25.6803C14.267 25.8679 14.5213 25.9732 14.7866 25.9732C15.0518 25.9732 15.3061 25.8679 15.4937 25.6803L14.7866 24.9732ZM8.29345 18.4801L7.58634 17.773C7.19582 18.1635 7.19582 18.7967 7.58634 19.1872L8.29345 18.4801ZM28.9244 10.8L29.6315 11.5071C29.819 11.3195 29.9244 11.0652 29.9244 10.8C29.9244 10.5348 29.819 10.2804 29.6315 10.0929L28.9244 10.8ZM22.5926 4.46826L23.2998 3.76115C23.1122 3.57362 22.8579 3.46826 22.5926 3.46826C22.3274 3.46826 22.0731 3.57362 21.8855 3.76116L22.5926 4.46826ZM25.5746 14.1497L24.8675 14.8568C25.0551 15.0443 25.3094 15.1497 25.5746 15.1497C25.8399 15.1497 26.0942 15.0443 26.2818 14.8568L25.5746 14.1497ZM19.2429 7.81797L18.5358 7.11087C18.1453 7.50139 18.1453 8.13456 18.5358 8.52508L19.2429 7.81797ZM7.88623 24.8262L6.88846 24.7594C6.87028 25.0314 6.96385 25.2989 7.14754 25.5002C7.33123 25.7015 7.58912 25.8191 7.86155 25.8259L7.88623 24.8262ZM14.7383 24.9953L14.7136 25.995C15.1221 26.0051 15.4956 25.7657 15.657 25.3903C15.8184 25.0149 15.7351 24.5791 15.4468 24.2896L14.7383 24.9953ZM8.30663 18.5387L9.01511 17.833C8.73797 17.5547 8.32365 17.4645 7.95591 17.6022C7.58816 17.7399 7.33506 18.0802 7.30886 18.472L8.30663 18.5387ZM29.6669 10.0929L23.1738 3.59978L21.7596 5.01399L28.2527 11.5071L29.6669 10.0929ZM15.4937 25.6803L29.6669 11.5071L28.2527 10.0929L14.0795 24.2661L15.4937 25.6803ZM7.58634 19.1872L14.0795 25.6803L15.4937 24.2661L9.00056 17.773L7.58634 19.1872ZM21.7596 3.59978L7.58634 17.773L9.00056 19.1872L23.1738 5.01399L21.7596 3.59978ZM29.6315 10.0929L23.2998 3.76115L21.8855 5.17537L28.2173 11.5071L29.6315 10.0929ZM26.2818 14.8568L29.6315 11.5071L28.2173 10.0929L24.8675 13.4426L26.2818 14.8568ZM18.5358 8.52508L24.8675 14.8568L26.2818 13.4426L19.95 7.11087L18.5358 8.52508ZM21.8855 3.76116L18.5358 7.11087L19.95 8.52508L23.2998 5.17537L21.8855 3.76116ZM7.86155 25.8259L14.7136 25.995L14.763 23.9956L7.91091 23.8265L7.86155 25.8259ZM7.30886 18.472L6.88846 24.7594L8.884 24.8929L9.30441 18.6054L7.30886 18.472ZM15.4468 24.2896L9.01511 17.833L7.59816 19.2444L14.0298 25.7011L15.4468 24.2896Z" fill="#1C1B1F"/>
</svg>
