<svg width="33" height="33" viewBox="0 0 33 33" fill="none" xmlns="http://www.w3.org/2000/svg">
<path fill-rule="evenodd" clip-rule="evenodd" d="M15.8195 28.2295V23.9381C15.8116 23.8875 15.8075 23.8357 15.8075 23.783C15.8075 23.236 15.6009 22.7214 15.2485 22.3499C14.8977 21.9801 14.4336 21.783 13.9616 21.783C13.4896 21.783 13.0255 21.9801 12.6748 22.3499C12.3223 22.7214 12.1157 23.236 12.1157 23.783V27.265C13.2667 27.7734 14.5126 28.1063 15.8195 28.2295ZM10.1157 26.1411C6.99962 23.9735 4.95996 20.3664 4.95996 16.283C4.95996 9.65554 10.3325 4.28296 16.96 4.28296C23.5874 4.28296 28.96 9.65554 28.96 16.283C28.96 20.365 26.9218 23.971 23.8076 26.1387V21.3779C23.8076 21.2271 23.7735 21.0783 23.7078 20.9426L17.8601 8.84768C17.6932 8.50247 17.3436 8.28309 16.9601 8.28296C16.5767 8.28283 16.2269 8.50196 16.0598 8.84706L10.2157 20.9132C10.1499 21.0491 10.1157 21.1981 10.1157 21.3491V23.783V26.1411ZM21.8076 27.2635V23.7939L21.8075 23.783C21.8075 23.2525 21.5968 22.7438 21.2217 22.3687C20.8466 21.9937 20.3379 21.783 19.8075 21.783C19.2771 21.783 18.7684 21.9937 18.3933 22.3687C18.0562 22.7058 17.8519 23.1509 17.8139 23.6226C17.8176 23.6574 17.8195 23.6927 17.8195 23.7284V28.2527C19.2301 28.1528 20.5735 27.8091 21.8076 27.2635ZM13.9616 19.783C13.6023 19.783 13.2494 19.8351 12.9119 19.9347L14.5471 16.5586H19.3667L21.0161 19.9699C20.6287 19.8471 20.2214 19.783 19.8075 19.783C18.7466 19.783 17.7292 20.2044 16.9791 20.9545C16.9269 21.0067 16.8763 21.0602 16.8273 21.1149C16.7859 21.0668 16.7433 21.0196 16.6995 20.9734C15.9828 20.2179 14.9991 19.783 13.9616 19.783ZM18.3998 14.5586L16.959 11.5787L15.5157 14.5586H18.3998Z" fill="#1C1B1F"/>
</svg>
