<svg width="32" height="32" viewBox="0 0 32 32" fill="none" xmlns="http://www.w3.org/2000/svg">
<path fill-rule="evenodd" clip-rule="evenodd" d="M19.7227 0.324876C19.3322 -0.0656487 18.699 -0.0656487 18.3085 0.324876L13.0753 5.55804C13.0412 5.59217 13.0101 5.62814 12.9819 5.66564L4.08852 8.44944C3.81215 8.53595 3.60803 8.77067 3.56071 9.05637L0 30.5544L10.6187 19.9357C9.67797 18.3779 9.8799 16.3234 11.2245 14.9788C12.8067 13.3966 15.3719 13.3966 16.9541 14.9788C18.5363 16.561 18.5363 19.1262 16.9541 20.7084C15.6224 22.0402 13.5942 22.251 12.042 21.3409L1.41467 31.9681L22.4986 27.9507C22.7594 27.901 22.9761 27.72 23.0713 27.4721L26.2856 19.1046C26.3526 19.0638 26.4159 19.0145 26.4738 18.9566L31.707 13.7234C32.0975 13.3329 32.0975 12.6997 31.707 12.3092L19.7227 0.324876ZM15.1966 6.26515L19.0156 2.4462L29.5857 13.0163L25.7667 16.8352L15.1966 6.26515ZM12.6387 16.393C13.4398 15.5919 14.7387 15.5919 15.5399 16.393C16.341 17.1942 16.341 18.4931 15.5399 19.2942C14.7387 20.0953 13.4398 20.0953 12.6387 19.2942C11.8375 18.4931 11.8375 17.1942 12.6387 16.393Z" fill="#111827"/>
</svg>
