<svg width="33" height="33" viewBox="0 0 33 33" fill="none" xmlns="http://www.w3.org/2000/svg">
<path d="M8.07999 10.6988L14.9699 8.54211C15.172 8.47885 15.3925 8.53305 15.5422 8.6828L24.5344 17.675C24.6934 17.8339 24.7439 18.0716 24.6633 18.2814L22.1571 24.8055C22.0865 24.9893 21.9258 25.1235 21.7324 25.1604L5.63575 28.2275C5.24696 28.3016 4.90316 27.966 4.96783 27.5755L7.68857 11.1489C7.72367 10.937 7.87504 10.7629 8.07999 10.6988Z" fill="#2B2962"/>
<path d="M8.07999 10.6988L14.9699 8.54211C15.172 8.47885 15.3925 8.53305 15.5422 8.6828L24.5344 17.675C24.6934 17.8339 24.7439 18.0716 24.6633 18.2814L22.1571 24.8055C22.0865 24.9893 21.9258 25.1235 21.7324 25.1604L5.63575 28.2275C5.24696 28.3016 4.90316 27.966 4.96783 27.5755L7.68857 11.1489C7.72367 10.937 7.87504 10.7629 8.07999 10.6988Z" stroke="#1C1B1F" stroke-width="2" stroke-linecap="round" stroke-linejoin="round"/>
<path d="M13.499 19.8165L5.43329 27.8823" stroke="#1C1B1F" stroke-width="2" stroke-linecap="round" stroke-linejoin="round"/>
<path d="M13.9052 19.3825C14.8412 20.3185 16.3589 20.3185 17.2949 19.3825C18.231 18.4464 18.231 16.9287 17.2949 15.9927C16.3589 15.0566 14.8412 15.0566 13.9052 15.9927C12.9691 16.9287 12.9691 18.4464 13.9052 19.3825Z" stroke="#1C1B1F" stroke-width="2" stroke-linecap="round" stroke-linejoin="round"/>
<path d="M24.8155 17.964L28.9601 13.8195L19.4688 4.32812L15.3242 8.47269" stroke="#1C1B1F" stroke-width="2" stroke-linecap="round" stroke-linejoin="round"/>
</svg>
