<svg width="33" height="33" viewBox="0 0 33 33" fill="none" xmlns="http://www.w3.org/2000/svg">
<path fill-rule="evenodd" clip-rule="evenodd" d="M12.2999 3.28296C11.7476 3.28296 11.2999 3.73067 11.2999 4.28296V9.39342L8.362 15.0085C8.18705 15.3429 8.21524 15.7473 8.4349 16.0542L16.1876 26.8848V18.5972C14.9628 18.1809 14.0816 17.0211 14.0816 15.6556C14.0816 13.9402 15.4722 12.5496 17.1877 12.5496C18.9031 12.5496 20.2937 13.9402 20.2937 15.6556C20.2937 17.0212 19.4124 18.181 18.1876 18.5972V26.8135L25.5301 16.014C25.7247 15.7279 25.7575 15.3614 25.6168 15.0453L23.1088 9.40851V4.28296C23.1088 3.73067 22.6611 3.28296 22.1088 3.28296H12.2999ZM21.1088 9.39233V5.28296H13.2999V9.39233H21.1088ZM16.0816 15.6556C16.0816 15.0448 16.5768 14.5496 17.1877 14.5496C17.7985 14.5496 18.2937 15.0448 18.2937 15.6556C18.2937 16.2665 17.7985 16.7617 17.1877 16.7617C16.5768 16.7617 16.0816 16.2665 16.0816 15.6556Z" fill="#1C1B1F"/>
</svg>
