<svg width="32" height="32" viewBox="0 0 32 32" fill="none" xmlns="http://www.w3.org/2000/svg">
<path fill-rule="evenodd" clip-rule="evenodd" d="M9.28809 0.000732422C8.7358 0.000732422 8.28809 0.448448 8.28809 1.00073V8.00603L4.2785 15.6695C4.10355 16.0039 4.13175 16.4083 4.35141 16.7151L15.292 31.9993V20.0637C13.6545 19.6236 12.4491 18.1286 12.4491 16.3522C12.4491 14.2298 14.1696 12.5093 16.292 12.5093C18.4143 12.5093 20.1349 14.2298 20.1349 16.3522C20.1349 18.1286 18.9295 19.6235 17.292 20.0637V31.928L27.6625 16.675C27.8571 16.3888 27.8899 16.0224 27.7492 15.7062L24.3115 7.98V1.00073C24.3115 0.448448 23.8638 0.000732422 23.3115 0.000732422H9.28809ZM22.3115 7.8976V2.00073H10.2881V7.8976H22.3115ZM14.4491 16.3522C14.4491 15.3343 15.2742 14.5093 16.292 14.5093C17.3098 14.5093 18.1349 15.3343 18.1349 16.3522C18.1349 17.37 17.3098 18.1951 16.292 18.1951C15.2742 18.1951 14.4491 17.37 14.4491 16.3522Z" fill="#111827"/>
</svg>
