<svg width="32" height="32" viewBox="0 0 32 32" fill="none" xmlns="http://www.w3.org/2000/svg">
<path fill-rule="evenodd" clip-rule="evenodd" d="M8.20009 12.4001C10.5197 12.4001 12.4002 10.5196 12.4002 8.19997C12.4002 5.88032 10.5197 3.99988 8.20009 3.99988C5.88044 3.99988 4 5.88032 4 8.19997C4 10.5196 5.88044 12.4001 8.20009 12.4001ZM27.5069 4.49262C27.8974 4.88315 27.8974 5.51631 27.5069 5.90683L5.90645 27.5073C5.51593 27.8978 4.88277 27.8978 4.49224 27.5073C4.10172 27.1168 4.10172 26.4836 4.49224 26.0931L26.0927 4.49262C26.4832 4.1021 27.1164 4.1021 27.5069 4.49262ZM28.0002 23.8002C28.0002 26.1198 26.1198 28.0002 23.8001 28.0002C21.4805 28.0002 19.6001 26.1198 19.6001 23.8002C19.6001 21.4805 21.4805 19.6001 23.8001 19.6001C26.1198 19.6001 28.0002 21.4805 28.0002 23.8002Z" fill="#111827"/>
</svg>
