<svg width="33" height="33" viewBox="0 0 33 33" fill="none" xmlns="http://www.w3.org/2000/svg">
<path fill-rule="evenodd" clip-rule="evenodd" d="M24.6673 8.57549C25.0579 8.96601 25.0579 9.59918 24.6673 9.9897L10.6666 23.9905C10.2761 24.381 9.64289 24.381 9.25237 23.9905C8.86184 23.5999 8.86184 22.9668 9.25237 22.5762L23.2531 8.57549C23.6437 8.18496 24.2768 8.18496 24.6673 8.57549ZM11.9043 13.9496C13.4078 13.9496 14.6267 12.7307 14.6267 11.2272C14.6267 9.72367 13.4078 8.50483 11.9043 8.50483C10.4008 8.50483 9.18195 9.72367 9.18195 11.2272C9.18195 12.7307 10.4008 13.9496 11.9043 13.9496ZM24.7381 21.3388C24.7381 22.8423 23.5192 24.0612 22.0157 24.0612C20.5122 24.0612 19.2933 22.8423 19.2933 21.3388C19.2933 19.8353 20.5122 18.6164 22.0157 18.6164C23.5192 18.6164 24.7381 19.8353 24.7381 21.3388Z" fill="#1C1B1F"/>
</svg>
