<svg width="33" height="33" viewBox="0 0 33 33" fill="none" xmlns="http://www.w3.org/2000/svg">
<path fill-rule="evenodd" clip-rule="evenodd" d="M23.2 7.66296C23.2 9.25354 21.9106 10.543 20.32 10.543C18.7294 10.543 17.44 9.25354 17.44 7.66296C17.44 6.07238 18.7294 4.78296 20.32 4.78296C21.9106 4.78296 23.2 6.07238 23.2 7.66296ZM17.2534 14.0415C15.9293 12.865 14.4066 12.4596 12.9765 12.4479C11.4014 12.4349 9.97815 12.9035 9.1844 13.3188C8.69505 13.5748 8.09079 13.3857 7.83474 12.8964C7.57869 12.407 7.76782 11.8028 8.25716 11.5467C9.30564 10.9981 11.0506 10.432 12.9929 10.448C14.9598 10.4641 17.1669 11.0812 19.0087 12.9522C21.9002 15.8896 26.0509 15.7642 27.7469 15.3209C28.2812 15.1813 28.8276 15.5012 28.9673 16.0356C29.107 16.5699 28.787 17.1163 28.2527 17.2559C26.4242 17.7339 22.3146 17.9461 18.9099 15.4935C18.532 16.6395 17.8983 18.156 16.9646 19.678C18.0714 20.0334 19.438 20.6185 20.6863 21.5681C22.5863 23.0134 24.2002 25.3015 24.2002 28.783C24.2002 29.3353 23.7524 29.783 23.2002 29.783C22.6479 29.783 22.2002 29.3353 22.2002 28.783C22.2002 26.0246 20.9621 24.2908 19.4755 23.1599C18.2234 22.2075 16.7884 21.6833 15.7585 21.4072C13.6435 24.0699 10.3994 26.3959 5.82049 25.938C5.27095 25.8831 4.87001 25.393 4.92496 24.8435C4.97991 24.294 5.46996 23.893 6.0195 23.948C9.73822 24.3198 12.3976 22.4557 14.2519 20.0878C14.3455 19.9683 14.4368 19.8478 14.5258 19.7265C14.541 19.7038 14.5571 19.6818 14.5739 19.6605C16.1151 17.5366 16.9626 15.1983 17.2534 14.0415Z" fill="#1C1B1F"/>
</svg>
