<svg width="32" height="33" viewBox="0 0 32 33" fill="none" xmlns="http://www.w3.org/2000/svg">
<path fill-rule="evenodd" clip-rule="evenodd" d="M3.14258 9.56297C3.14258 9.08929 3.4749 8.68059 3.93862 8.58399L27.6532 3.64345C28.2742 3.51408 28.8571 3.98812 28.8571 4.62243V15.25H31.0004C31.5527 15.25 32.0004 15.6978 32.0004 16.25C32.0004 16.8023 31.5527 17.25 31.0004 17.25H28.8569V15.2502H3.14297V17.25H0.999512C0.447227 17.25 -0.000488281 16.8023 -0.000488281 16.25C-0.000488281 15.6978 0.447227 15.25 0.999512 15.25H3.14258V9.56297ZM3.14258 17.2502H28.8571V27.8774C28.8571 28.5117 28.2742 28.9857 27.6532 28.8564L3.93862 23.9158C3.4749 23.8192 3.14258 23.4105 3.14258 22.9369V17.2502Z" fill="#111827"/>
</svg>
