<svg width="32" height="33" viewBox="0 0 32 33" fill="none" xmlns="http://www.w3.org/2000/svg">
<path fill-rule="evenodd" clip-rule="evenodd" d="M19.7079 4.22491C19.7079 6.28232 18.0401 7.95019 15.9827 7.95019C13.9252 7.95019 12.2574 6.28232 12.2574 4.22491C12.2574 2.1675 13.9252 0.499634 15.9827 0.499634C18.0401 0.499634 19.7079 2.1675 19.7079 4.22491ZM5.62254 15.7229C7.97825 14.8915 11.2222 14.0619 15.0001 13.9342V17.5002L1.61328 17.5001L1.61364 17.4998L1.62293 17.4944C1.63208 17.489 1.64713 17.4802 1.66796 17.4683C1.70963 17.4444 1.77441 17.4078 1.8614 17.3604C2.0354 17.2655 2.29808 17.1271 2.64219 16.9597C3.3307 16.6248 4.34341 16.1744 5.62254 15.7229ZM17.0001 13.9342V17.5002L30.3869 17.5003H17.0001V20.0144C17.0438 20.0541 17.0856 20.0969 17.1253 20.1427L26.4055 30.845C26.7673 31.2623 26.7224 31.8939 26.3051 32.2557C25.8878 32.6175 25.2563 32.5726 24.8945 32.1553L15.9871 21.883L6.83668 32.165C6.46952 32.5775 5.83742 32.6143 5.42486 32.2472C5.01229 31.88 4.97549 31.2479 5.34265 30.8354L14.8715 20.1282C14.9124 20.0823 14.9553 20.0395 15.0001 19.9999V17.5003H1.61283C1.13931 17.7841 0.52535 17.6305 0.241291 17.1571C-0.0428572 16.6835 0.110708 16.0692 0.584288 15.7851L1.08685 16.6227C0.584293 15.7851 0.584573 15.7849 0.584877 15.7847L0.585609 15.7843L0.587502 15.7831L0.592997 15.7799L0.610791 15.7694C0.625664 15.7607 0.64654 15.7485 0.673305 15.7332C0.726832 15.7025 0.803932 15.659 0.903693 15.6046C1.10319 15.4958 1.39348 15.3431 1.76726 15.1613C2.51453 14.7977 3.59729 14.3168 4.9569 13.8369C7.67334 12.8782 11.5131 11.9173 15.9999 11.9173C20.4867 11.9173 24.3264 12.8782 27.0429 13.8369C28.4025 14.3168 29.4853 14.7977 30.2325 15.1613C30.6063 15.3431 30.8966 15.4958 31.0961 15.6046C31.1959 15.659 31.2729 15.7025 31.3265 15.7332C31.3532 15.7485 31.3741 15.7607 31.389 15.7694L31.4068 15.7799L31.4123 15.7831L31.4142 15.7843L31.4149 15.7847C31.4152 15.7849 31.4155 15.7851 30.944 16.5709L31.4155 15.7851C31.8891 16.0692 32.0426 16.6835 31.7585 17.1571C31.4744 17.6305 30.8605 17.7841 30.3869 17.5003L30.3865 17.5001L30.3861 17.4998L30.3769 17.4944L30.3511 17.4794L30.3318 17.4683C30.2902 17.4444 30.2254 17.4078 30.1384 17.3604C29.9644 17.2655 29.7017 17.1271 29.3576 16.9597C28.6691 16.6248 27.6564 16.1744 26.3772 15.7229C24.0216 14.8915 20.7779 14.0619 17.0001 13.9342Z" fill="#111827"/>
</svg>
