<svg width="32" height="33" viewBox="0 0 32 33" fill="none" xmlns="http://www.w3.org/2000/svg">
<path fill-rule="evenodd" clip-rule="evenodd" d="M19.935 4.45428C19.935 6.63804 18.1647 8.40832 15.9809 8.40832C13.7972 8.40832 12.0269 6.63804 12.0269 4.45428C12.0269 2.27053 13.7972 0.500244 15.9809 0.500244C18.1647 0.500244 19.935 2.27053 19.935 4.45428ZM11.7542 10.8399H20.7434C20.8335 10.8399 20.9188 10.8804 20.9758 10.9501L27.7041 19.1904C27.8015 19.3097 27.7927 19.4834 27.6838 19.5923L25.7518 21.5244C25.6423 21.6338 25.4676 21.642 25.3484 21.5434L20.8781 17.8449C20.6482 17.6547 20.3117 17.8804 20.4004 18.1653L24.1304 30.1442C24.1636 30.2507 24.1349 30.3667 24.0561 30.4456L22.0948 32.4068C21.9584 32.5433 21.7305 32.5173 21.6283 32.3537L16.5796 24.2758C16.4634 24.0899 16.1936 24.0873 16.0739 24.2709L10.7991 32.3637C10.6951 32.5233 10.4704 32.5468 10.3357 32.412L8.68086 30.7572C8.60336 30.6797 8.57429 30.5661 8.60505 30.4608L12.2301 18.0633C12.311 17.7868 11.9935 17.5663 11.7627 17.7387L6.64271 21.5621C6.52328 21.6512 6.35648 21.6392 6.25108 21.5338L4.31638 19.5991C4.20465 19.4874 4.19874 19.3081 4.30287 19.1893L11.5285 10.9422C11.5855 10.8772 11.6677 10.8399 11.7542 10.8399Z" fill="#111827"/>
</svg>
