<svg width="32" height="33" viewBox="0 0 32 33" fill="none" xmlns="http://www.w3.org/2000/svg">
<path fill-rule="evenodd" clip-rule="evenodd" d="M12.9962 2.50049C9.14888 2.50049 6.03004 5.61932 6.03004 9.4666C6.03004 13.302 9.12963 16.4134 12.9605 16.4326L12.9959 16.4326L13.0315 16.4326C16.8625 16.4136 19.9623 13.3021 19.9623 9.4666C19.9623 5.61932 16.8434 2.50049 12.9962 2.50049ZM4.03004 9.4666C4.03004 12.8247 5.87613 15.7516 8.6088 17.2878C4.35556 19.02 1.35742 23.1954 1.35742 28.0711C1.35742 28.6234 1.80514 29.0711 2.35742 29.0711C2.90971 29.0711 3.35742 28.6234 3.35742 28.0711C3.35742 22.76 7.65303 18.4523 12.9594 18.4326L12.9962 18.4327L13.0323 18.4326C15.5465 18.4419 17.8322 19.4126 19.5439 20.9982C19.4677 21.3668 19.4277 21.7486 19.4277 22.1398C19.4277 22.7263 19.5177 23.2919 19.6848 23.8233L14.6523 28.8188C14.5927 28.8785 14.5592 28.9593 14.5592 29.0436V32.1817C14.5592 32.3572 14.7015 32.4995 14.877 32.4995H17.7118C17.8873 32.4995 18.0296 32.3572 18.0296 32.1817L18.1462 30.7237C18.1462 30.5482 18.2885 30.4059 18.464 30.4059L19.688 30.2893C19.8635 30.2893 20.0058 30.147 20.0058 29.9715L20.1224 28.6597C20.1224 28.4842 20.2647 28.3419 20.4402 28.3419L22.143 28.2254C22.2273 28.2254 22.3082 28.1919 22.3678 28.1323L23.053 27.3869C23.6693 27.6198 24.3373 27.7473 25.0352 27.7473C28.1321 27.7473 30.6427 25.2367 30.6427 22.1398C30.6427 19.0428 28.1321 16.5323 25.0352 16.5323C23.0789 16.5323 21.3565 17.5341 20.3532 19.0526C19.4634 18.326 18.4638 17.7282 17.383 17.2881C20.116 15.7519 21.9623 12.8249 21.9623 9.4666C21.9623 4.51475 17.948 0.500488 12.9962 0.500488C8.04431 0.500488 4.03004 4.51475 4.03004 9.4666ZM26.5203 21.6082C27.0468 21.6082 27.4736 21.1814 27.4736 20.6549C27.4736 20.1284 27.0468 19.7016 26.5203 19.7016C25.9938 19.7016 25.567 20.1284 25.567 20.6549C25.567 21.1814 25.9938 21.6082 26.5203 21.6082Z" fill="#111827"/>
</svg>
