<svg width="33" height="33" viewBox="0 0 33 33" fill="none" xmlns="http://www.w3.org/2000/svg">
<path fill-rule="evenodd" clip-rule="evenodd" d="M19.8307 7.667C19.8307 9.25981 18.5395 10.551 16.9467 10.551C15.3539 10.551 14.0627 9.25981 14.0627 7.667C14.0627 6.07419 15.3539 4.78296 16.9467 4.78296C18.5395 4.78296 19.8307 6.07419 19.8307 7.667ZM24.9189 16.7815C23.1601 16.1607 20.7568 15.5417 17.9601 15.4185V19.8103C18.0041 19.8503 18.0462 19.8933 18.0862 19.9394L25.1865 28.1279C25.5483 28.5451 25.5034 29.1767 25.0861 29.5385C24.6689 29.9003 24.0373 29.8554 23.6755 29.4381L16.948 21.6797L10.0348 29.4478C9.6676 29.8604 9.03551 29.8972 8.62294 29.53C8.21038 29.1628 8.17357 28.5308 8.54073 28.1182L15.8324 19.9249C15.873 19.8793 15.9156 19.8368 15.9601 19.7974V15.4186C13.1634 15.5417 10.7602 16.1607 9.00135 16.7815C8.02016 17.1278 7.24404 17.473 6.71764 17.7291C6.45459 17.8571 6.25435 17.9626 6.12251 18.0345C6.05661 18.0704 6.00785 18.098 5.97693 18.1157L5.94404 18.1347L5.93848 18.138L5.93801 18.1383C5.46449 18.4221 4.85054 18.2684 4.56649 17.795C4.28234 17.3214 4.4359 16.7072 4.90948 16.423L5.42398 17.2805C4.90948 16.423 4.90976 16.4229 4.91006 16.4227L4.91074 16.4223L4.91244 16.4213L4.91717 16.4185L4.9319 16.4098C4.94406 16.4026 4.96088 16.3928 4.98228 16.3806C5.02505 16.3561 5.08613 16.3216 5.16481 16.2787C5.32213 16.1929 5.54999 16.0731 5.84271 15.9307C6.42787 15.646 7.27403 15.2702 8.33571 14.8955C10.4563 14.1471 13.4547 13.3965 16.9601 13.3965H16.9601C20.4655 13.3965 23.464 14.1471 25.5846 14.8955C26.6463 15.2702 27.4924 15.646 28.0776 15.9307C28.3703 16.0731 28.5982 16.1929 28.7555 16.2787C28.8342 16.3216 28.8952 16.3561 28.938 16.3806C28.9594 16.3928 28.9762 16.4026 28.9884 16.4098L29.0031 16.4185L29.0078 16.4213L29.0096 16.4223L29.0102 16.4227C29.0105 16.4229 29.0108 16.423 28.4963 17.2805L29.0108 16.423C29.4844 16.7072 29.638 17.3214 29.3538 17.795C29.0699 18.2682 28.4563 18.4219 27.9829 18.1387L27.9827 18.1386L27.9823 18.1383L27.9818 18.138L27.9762 18.1347L27.9434 18.1157C27.9124 18.098 27.8637 18.0704 27.7978 18.0345C27.6659 17.9626 27.4657 17.8571 27.2026 17.7291C26.6762 17.473 25.9001 17.1278 24.9189 16.7815Z" fill="#1C1B1F"/>
</svg>
