<svg width="33" height="33" viewBox="0 0 33 33" fill="none" xmlns="http://www.w3.org/2000/svg">
<path fill-rule="evenodd" clip-rule="evenodd" d="M22.5634 7.55219C22.5634 9.08159 21.3235 10.3214 19.7941 10.3214C18.2647 10.3214 17.0249 9.08159 17.0249 7.55219C17.0249 6.02279 18.2647 4.78296 19.7941 4.78296C21.3235 4.78296 22.5634 6.02279 22.5634 7.55219ZM16.1213 13.4919C15.0827 13.2313 13.825 13.4986 12.473 14.1502C10.8347 14.9398 9.32133 16.1746 8.44206 17.0652C8.05404 17.4582 7.42088 17.4622 7.02788 17.0742C6.63488 16.6861 6.63084 16.053 7.01887 15.66C8.01437 14.6517 9.7097 13.2619 11.6046 12.3485C13.4614 11.4536 15.7876 10.8895 17.8116 12.0303C17.9162 12.0893 18.0093 12.1666 18.0865 12.2586C18.8917 13.2179 20.2894 14.6281 21.8297 15.7101C22.5987 16.2504 23.3746 16.6884 24.1064 16.9546C24.8423 17.2224 25.4711 17.294 25.9845 17.1864C26.5251 17.0732 27.0551 17.4196 27.1683 17.9601C27.2816 18.5007 26.9352 19.0307 26.3946 19.1439C25.3939 19.3536 24.3687 19.1783 23.4226 18.8341C22.4723 18.4883 21.5378 17.9493 20.68 17.3467C19.5762 16.5712 18.5515 15.6566 17.7244 14.8207L16.154 18.4328L20.3268 21.4264C20.5886 21.6142 20.7439 21.9167 20.7439 22.2389V28.7744C20.7439 29.3267 20.2962 29.7744 19.7439 29.7744C19.1916 29.7744 18.7439 29.3267 18.7439 28.7744V22.7523L15.3382 20.309L11.4805 29.1817C11.2603 29.6881 10.6712 29.9202 10.1648 29.7C9.65827 29.4798 9.4262 28.8907 9.64641 28.3842L16.1213 13.4919Z" fill="#1C1B1F"/>
</svg>
