<svg width="32" height="33" viewBox="0 0 32 33" fill="none" xmlns="http://www.w3.org/2000/svg">
<path fill-rule="evenodd" clip-rule="evenodd" d="M24.0603 4.22009C24.0603 6.27456 22.3948 7.94005 20.3404 7.94005C18.2859 7.94005 16.6204 6.27456 16.6204 4.22009C16.6204 2.16561 18.2859 0.500122 20.3404 0.500122C22.3948 0.500122 24.0603 2.16561 24.0603 4.22009ZM16.7035 12.3593C14.9012 10.693 12.8078 10.125 10.8573 10.1089C8.76927 10.0918 6.88403 10.7112 5.82163 11.2671C5.33228 11.5231 4.72802 11.334 4.47197 10.8447C4.21593 10.3553 4.40505 9.75105 4.89439 9.495C6.21152 8.80582 8.4185 8.08882 10.8737 8.109C13.3535 8.12938 16.1245 8.90574 18.4386 11.2566C22.2748 15.1536 27.7611 14.9807 30.0069 14.3937C30.5413 14.2541 31.0877 14.574 31.2273 15.1084C31.367 15.6427 31.047 16.1891 30.5127 16.3287C28.1411 16.9486 22.7295 17.2107 18.3652 13.8564C17.8815 15.4251 16.9738 17.6778 15.5584 19.9057C17.0213 20.3432 18.9199 21.1066 20.6371 22.4129C23.031 24.2338 25.0607 27.1084 25.0607 31.4999C25.0607 32.0522 24.613 32.4999 24.0607 32.4999C23.5084 32.4999 23.0607 32.0522 23.0607 31.4999C23.0607 27.8315 21.4068 25.5112 19.4263 24.0047C17.6918 22.6853 15.6994 21.9904 14.3372 21.6423L14.3065 21.6816C11.6148 25.1189 7.48632 28.1195 1.64081 27.5349C1.09126 27.48 0.690318 26.9899 0.745272 26.4404C0.800226 25.8909 1.29027 25.4899 1.83981 25.5449C6.77575 26.0385 10.299 23.5552 12.7319 20.4485C12.8581 20.2873 12.9811 20.1247 13.101 19.9611C13.1149 19.9405 13.1296 19.9204 13.1449 19.901C15.2446 17.0123 16.3625 13.8207 16.7035 12.3593Z" fill="#111827"/>
</svg>
