<svg width="33" height="33" viewBox="0 0 33 33" fill="none" xmlns="http://www.w3.org/2000/svg">
<path fill-rule="evenodd" clip-rule="evenodd" d="M19.8978 7.73252C19.8978 9.36152 18.5772 10.6821 16.9482 10.6821C15.3192 10.6821 13.9987 9.36152 13.9987 7.73252C13.9987 6.10352 15.3192 4.78296 16.9482 4.78296C18.5772 4.78296 19.8978 6.10352 19.8978 7.73252ZM13.8298 12.496H20.4646C20.5547 12.496 20.64 12.5365 20.697 12.6062L25.6496 18.6718C25.747 18.7911 25.7383 18.9648 25.6294 19.0737L24.2859 20.4171C24.1765 20.5266 24.0018 20.5348 23.8825 20.4362L20.7989 17.8849C20.569 17.6947 20.2325 17.9204 20.3212 18.2053L23.0137 26.8523C23.0468 26.9587 23.0182 27.0748 22.9394 27.1536L21.5767 28.5163C21.4402 28.6528 21.2124 28.6268 21.1101 28.4632L17.458 22.6199C17.3419 22.434 17.072 22.4314 16.9523 22.615L13.1341 28.4732C13.03 28.6328 12.8054 28.6563 12.6706 28.5215L11.5346 27.3854C11.457 27.3079 11.428 27.1943 11.4587 27.0891L14.0862 18.1033C14.1671 17.8268 13.8496 17.6063 13.6188 17.7787L10.0351 20.4548C9.91566 20.544 9.74886 20.532 9.64346 20.4266L8.29734 19.0805C8.18561 18.9687 8.1797 18.7895 8.28383 18.6706L13.6041 12.5983C13.6611 12.5333 13.7433 12.496 13.8298 12.496Z" fill="#1C1B1F"/>
</svg>
