<svg width="32" height="33" viewBox="0 0 32 33" fill="none" xmlns="http://www.w3.org/2000/svg">
<path fill-rule="evenodd" clip-rule="evenodd" d="M23.2376 4.07711C23.2376 6.05256 21.6362 7.65398 19.6608 7.65398C17.6853 7.65398 16.0839 6.05256 16.0839 4.07711C16.0839 2.10166 17.6853 0.500244 19.6608 0.500244C21.6362 0.500244 23.2376 2.10166 23.2376 4.07711ZM15.3156 11.5628C13.8116 11.0489 11.9814 11.4191 10.0777 12.3367C7.92417 13.3746 5.94286 14.9922 4.79021 16.1596C4.40218 16.5526 3.76903 16.5566 3.37602 16.1686C2.98302 15.7806 2.97899 15.1474 3.36702 14.7544C4.6359 13.4693 6.79914 11.6967 9.2093 10.535C11.5813 9.39179 14.47 8.71377 16.9567 10.1153C17.0613 10.1743 17.1544 10.2516 17.2316 10.3436C18.2839 11.5974 20.1074 13.4376 22.1222 14.8529C23.1285 15.5598 24.1537 16.1403 25.1308 16.4958C26.112 16.8528 26.982 16.9604 27.7162 16.8066C28.2568 16.6933 28.7868 17.0397 28.9 17.5803C29.0133 18.1208 28.6669 18.6508 28.1264 18.7641C26.9048 19.0201 25.6384 18.8087 24.447 18.3753C23.2514 17.9403 22.0676 17.2587 20.9725 16.4895C19.4254 15.4026 17.998 14.0998 16.8928 12.9511L14.5974 18.2307L20.1787 22.2347C20.4405 22.4226 20.5957 22.725 20.5957 23.0473V31.4888C20.5957 32.0411 20.148 32.4888 19.5957 32.4888C19.0435 32.4888 18.5957 32.0411 18.5957 31.4888V23.5606L13.7816 20.1069L8.6549 31.8984C8.43469 32.4049 7.84559 32.637 7.33911 32.4167C6.83262 32.1965 6.60055 31.6074 6.82076 31.1009L15.3156 11.5628Z" fill="#111827"/>
</svg>
