<svg width="33" height="33" viewBox="0 0 33 33" fill="none" xmlns="http://www.w3.org/2000/svg">
<path d="M4.95996 15.533C4.40768 15.533 3.95996 15.9807 3.95996 16.533C3.95996 17.0852 4.40768 17.533 4.95996 17.533V15.533ZM4.95996 17.533H6.67432V15.533H4.95996V17.533Z" fill="#1C1B1F"/>
<path d="M28.96 17.533C29.5122 17.533 29.96 17.0852 29.96 16.533C29.96 15.9807 29.5122 15.533 28.96 15.533L28.96 17.533ZM27.2456 17.533L28.96 17.533L28.96 15.533L27.2456 15.533L27.2456 17.533Z" fill="#1C1B1F"/>
<path fill-rule="evenodd" clip-rule="evenodd" d="M7.47036 10.3671C7.00664 10.4637 6.67432 10.8724 6.67432 11.346V15.533H27.2457V7.477C27.2457 6.84268 26.6628 6.36865 26.0418 6.49802L7.47036 10.3671ZM27.2457 17.533H6.67432V21.7198C6.67432 22.1934 7.00664 22.6021 7.47036 22.6987L26.0418 26.5678C26.6628 26.6972 27.2457 26.2231 27.2457 25.5888V17.533Z" fill="#1C1B1F"/>
</svg>
