<svg width="32" height="32" viewBox="0 0 32 32" fill="none" xmlns="http://www.w3.org/2000/svg">
<path fill-rule="evenodd" clip-rule="evenodd" d="M9.14237 16.1139C10.5881 19.0696 12.984 21.4545 15.9462 22.8868C16.1629 22.9895 16.4027 23.034 16.6418 23.0159C16.881 22.9978 17.1113 22.9178 17.3101 22.7836L21.6718 19.8751C21.8647 19.7465 22.0867 19.668 22.3175 19.6468C22.5484 19.6256 22.781 19.6623 22.9941 19.7537L31.154 23.2508C31.4312 23.3685 31.6626 23.5732 31.8134 23.8339C31.9642 24.0946 32.0261 24.3972 31.9899 24.6962C31.732 26.7144 30.7473 28.5693 29.2202 29.9138C27.6932 31.2582 25.7284 31.9999 23.6938 32C17.4098 32 11.3832 29.5037 6.93975 25.0602C2.4963 20.6168 0 14.5902 0 8.3062C0.000106985 6.27163 0.741813 4.30685 2.08624 2.77976C3.43067 1.25266 5.28562 0.267975 7.30379 0.0100632C7.60277 -0.0261188 7.90542 0.0358454 8.16612 0.18662C8.42683 0.337395 8.63148 0.568813 8.74923 0.846006L12.2494 9.01303C12.3399 9.22427 12.3768 9.45463 12.3568 9.68359C12.3367 9.91254 12.2604 10.133 12.1345 10.3253L9.23614 14.7539C9.10422 14.9531 9.02624 15.1831 9.0098 15.4215C8.99337 15.6599 9.03904 15.8984 9.14237 16.1139ZM21.3003 2.7312C21.3003 2.17892 21.748 1.7312 22.3003 1.7312H30.6623C30.6624 1.7312 30.6626 1.7312 30.6628 1.7312H30.6628C31.2151 1.7312 31.6628 2.17892 31.6628 2.7312V11.0937C31.6628 11.646 31.2151 12.0937 30.6628 12.0937C30.1105 12.0937 29.6628 11.646 29.6628 11.0937V5.14512L21.6134 13.1946C21.2228 13.5851 20.5897 13.5851 20.1991 13.1946C19.8086 12.8041 19.8086 12.1709 20.1991 11.7804L28.2483 3.7312H22.3003C21.748 3.7312 21.3003 3.28349 21.3003 2.7312Z" fill="#111827"/>
</svg>
