<svg width="32" height="32" viewBox="0 0 32 32" fill="none" xmlns="http://www.w3.org/2000/svg">
<path fill-rule="evenodd" clip-rule="evenodd" d="M3.71453 2.48639C4.12319 2.11488 4.75564 2.14499 5.12715 2.55365L28.3521 28.1011C28.7236 28.5098 28.6935 29.1422 28.2848 29.5137C27.8762 29.8852 27.2437 29.8551 26.8722 29.4464L12.9727 14.157C12.636 14.243 12.3029 14.3434 11.9743 14.4579C11.7861 14.5251 11.6187 14.6401 11.4885 14.7917C11.3582 14.9433 11.2697 15.1261 11.2316 15.3223L10.3754 19.6055C10.3376 19.7949 10.253 19.9719 10.1295 20.1204C10.006 20.2689 9.84735 20.3843 9.66798 20.4561L2.80028 23.2031C2.5676 23.2971 2.3107 23.3128 2.06827 23.2481C1.82585 23.1833 1.61104 23.0415 1.45621 22.844C0.419165 21.5031 -0.0935507 19.8301 0.0140653 18.1384C0.121681 16.4466 0.84225 14.8521 2.04085 13.6534C3.9074 11.7814 6.12959 10.3077 8.57244 9.31669L3.64727 3.899C3.27576 3.49034 3.30588 2.85789 3.71453 2.48639ZM23.0521 9.16869C20.4594 8.17732 17.6864 7.74529 14.915 7.90092L28.612 22.968L29.1997 23.2031C29.4324 23.297 29.6893 23.3128 29.9317 23.248C30.1741 23.1832 30.3889 23.0415 30.5438 22.844C31.5808 21.503 32.0935 19.8301 31.9859 18.1383C31.8783 16.4466 31.1577 14.8521 29.9591 13.6533C27.9986 11.6884 25.6448 10.1601 23.0521 9.16869Z" fill="#111827"/>
</svg>
