<svg width="32" height="32" viewBox="0 0 32 32" fill="none" xmlns="http://www.w3.org/2000/svg">
<path fill-rule="evenodd" clip-rule="evenodd" d="M11.9743 11.6353C14.5634 10.7339 17.38 10.7275 19.9731 11.6171C20.1609 11.6832 20.3283 11.7968 20.4591 11.9469C20.5898 12.097 20.6794 12.2785 20.7191 12.4736L21.6206 16.7903C21.6597 16.9777 21.7446 17.1526 21.8677 17.2992C21.9908 17.4459 22.1482 17.5599 22.326 17.631L29.1997 20.3805C29.4324 20.4745 29.6893 20.4902 29.9317 20.4255C30.1741 20.3607 30.389 20.2189 30.5438 20.0214C31.5808 18.6805 32.0936 17.0075 31.9859 15.3158C31.8783 13.624 31.1577 12.0295 29.9591 10.8308C26.257 7.12858 21.2357 5.04871 16 5.04871C10.7643 5.04871 5.74305 7.12858 2.04085 10.8308C0.84225 12.0295 0.121681 13.624 0.0140653 15.3158C-0.0935508 17.0075 0.419166 18.6805 1.45621 20.0214C1.61104 20.2189 1.82585 20.3607 2.06828 20.4255C2.3107 20.4902 2.5676 20.4745 2.80028 20.3805L9.66799 17.6334C9.84735 17.5617 10.006 17.4463 10.1295 17.2978C10.253 17.1493 10.3376 16.9723 10.3754 16.7829L11.2316 12.4997C11.2697 12.3035 11.3582 12.1206 11.4885 11.9691C11.6187 11.8175 11.7862 11.7025 11.9743 11.6353ZM3.22656 24.9512C2.67428 24.9512 2.22656 25.3989 2.22656 25.9512C2.22656 26.5035 2.67428 26.9512 3.22656 26.9512H28.774C29.3263 26.9512 29.774 26.5035 29.774 25.9512C29.774 25.3989 29.3263 24.9512 28.774 24.9512H3.22656Z" fill="#111827"/>
</svg>
