<svg width="33" height="33" viewBox="0 0 33 33" fill="none" xmlns="http://www.w3.org/2000/svg">
<path d="M8.25049 6.70264L25.6692 25.8632" stroke="#1C1B1F" stroke-width="2" stroke-linecap="round" stroke-linejoin="round"/>
<path d="M15.5441 14.7254C14.9986 14.8104 14.462 14.9446 13.9407 15.1264C13.7996 15.1767 13.674 15.263 13.5763 15.3767C13.4786 15.4904 13.4122 15.6275 13.3837 15.7746L12.7415 18.987C12.7131 19.1291 12.6497 19.2618 12.5571 19.3732C12.4644 19.4846 12.3455 19.5711 12.2109 19.6249L7.06017 21.6853C6.88566 21.7557 6.69298 21.7675 6.51117 21.719C6.32935 21.6704 6.16824 21.564 6.05212 21.4159C5.27433 20.4102 4.8898 19.1555 4.97051 17.8867C5.05122 16.6179 5.59165 15.422 6.4906 14.523C8.08093 12.928 10.0155 11.7185 12.1459 10.9874" fill="#1C1B1F"/>
<path d="M16.1465 10.2086C18.225 10.0919 20.3048 10.4159 22.2493 11.1594C24.1938 11.903 25.9592 13.0492 27.4296 14.5229C28.3285 15.422 28.8689 16.6178 28.9496 17.8867C29.0304 19.1555 28.6458 20.4102 27.868 21.4159C27.7519 21.564 27.5908 21.6703 27.409 21.7189C27.2272 21.7675 27.0345 21.7557 26.86 21.6852L26.4192 21.5089" fill="#1C1B1F"/>
</svg>
