<svg width="33" height="33" viewBox="0 0 33 33" fill="none" xmlns="http://www.w3.org/2000/svg">
<path d="M19.9398 13.3708C17.9949 12.7036 15.8825 12.7084 13.9407 13.3844C13.7996 13.4348 13.674 13.5211 13.5763 13.6347C13.4786 13.7484 13.4122 13.8855 13.3837 14.0327L12.7415 17.2451C12.7131 17.3871 12.6497 17.5199 12.5571 17.6313C12.4644 17.7427 12.3455 17.8292 12.211 17.883L7.06017 19.9433C6.88566 20.0138 6.69299 20.0256 6.51117 19.977C6.32935 19.9284 6.16824 19.8221 6.05212 19.674C5.27434 18.6683 4.8898 17.4136 4.97051 16.1448C5.05122 14.8759 5.59165 13.6801 6.4906 12.781C9.26725 10.0044 13.0332 8.44446 16.96 8.44446C20.8867 8.44446 24.6527 10.0044 27.4293 12.781C28.3283 13.6801 28.8687 14.8759 28.9494 16.1448C29.0301 17.4136 28.6456 18.6683 27.8678 19.674C27.7517 19.8221 27.5906 19.9284 27.4088 19.977C27.2269 20.0256 27.0343 20.0138 26.8597 19.9433L21.7045 17.8812C21.5711 17.8279 21.4531 17.7424 21.3607 17.6324C21.2684 17.5223 21.2048 17.3912 21.1754 17.2506L20.4993 14.0131C20.4695 13.8668 20.4023 13.7307 20.3043 13.6181C20.2062 13.5055 20.0806 13.4203 19.9398 13.3708Z" fill="#1C1B1F"/>
<path d="M7.37988 24.1213H26.5405" stroke="#1C1B1F" stroke-width="2" stroke-linecap="round" stroke-linejoin="round"/>
</svg>
