<svg width="32" height="32" viewBox="0 0 32 32" fill="none" xmlns="http://www.w3.org/2000/svg">
<path fill-rule="evenodd" clip-rule="evenodd" d="M15.9462 22.8868C12.984 21.4545 10.5881 19.0696 9.14237 16.1139C9.03904 15.8984 8.99337 15.6599 9.0098 15.4215C9.02624 15.1831 9.10422 14.9531 9.23614 14.7539L12.1345 10.3253C12.2604 10.133 12.3367 9.91254 12.3568 9.68359C12.3768 9.45463 12.3399 9.22427 12.2494 9.01303L8.74923 0.846006C8.63148 0.568813 8.42683 0.337395 8.16612 0.18662C7.90542 0.0358454 7.60277 -0.0261188 7.30379 0.0100632C5.28562 0.267975 3.43067 1.25266 2.08624 2.77976C0.741813 4.30685 0.000106985 6.27163 0 8.3062C0 14.5902 2.4963 20.6168 6.93975 25.0602C11.3832 29.5037 17.4098 32 23.6938 32C25.7284 31.9999 27.6932 31.2582 29.2202 29.9138C30.7473 28.5693 31.732 26.7144 31.9899 24.6962C32.0261 24.3972 31.9642 24.0946 31.8134 23.8339C31.6626 23.5732 31.4312 23.3685 31.154 23.2508L22.9941 19.7537C22.781 19.6623 22.5484 19.6256 22.3175 19.6468C22.0867 19.668 21.8647 19.7465 21.6718 19.8751L17.3101 22.7836C17.1113 22.9178 16.881 22.9978 16.6418 23.0159C16.4027 23.034 16.1629 22.9895 15.9462 22.8868ZM19.839 1.07769C19.9824 0.544356 20.5311 0.228281 21.0644 0.371716C23.5964 1.05266 25.9049 2.38695 27.7589 4.24093C29.6129 6.09492 30.9472 8.40351 31.6281 10.9355C31.7716 11.4688 31.4555 12.0174 30.9222 12.1609C30.3888 12.3043 29.8402 11.9882 29.6968 11.4549C29.1068 9.26135 27.9509 7.26133 26.3447 5.65515C24.7385 4.04897 22.7385 2.89302 20.545 2.30309C20.0116 2.15965 19.6956 1.61102 19.839 1.07769ZM18.3956 6.46416C18.5391 5.93083 19.0877 5.61476 19.621 5.75819C21.2079 6.18496 22.6548 7.0212 23.8167 8.18316C24.9787 9.34511 25.8149 10.792 26.2417 12.3788C26.3851 12.9122 26.069 13.4608 25.5357 13.6042C25.0024 13.7477 24.4537 13.4316 24.3103 12.8983C23.9746 11.6498 23.3167 10.5115 22.4025 9.59737C21.4884 8.68322 20.3501 8.02532 19.1016 7.68956C18.5683 7.54613 18.2522 6.9975 18.3956 6.46416Z" fill="#111827"/>
</svg>
