<svg width="33" height="33" viewBox="0 0 33 33" fill="none" xmlns="http://www.w3.org/2000/svg">
<path d="M20.5635 5.28595C22.3355 5.76253 23.9513 6.69637 25.2488 7.99393C26.5464 9.29149 27.4802 10.9072 27.9568 12.6793" stroke="#1C1B1F" stroke-width="2" stroke-linecap="round" stroke-linejoin="round"/>
<path d="M19.481 9.32581C20.5442 9.61175 21.5136 10.1721 22.2922 10.9506C23.0707 11.7291 23.631 12.6986 23.917 13.7618" stroke="#1C1B1F" stroke-width="2" stroke-linecap="round" stroke-linejoin="round"/>
<path d="M11.8167 16.3683C12.901 18.5851 14.6979 20.3738 16.9196 21.448C17.0822 21.525 17.262 21.5584 17.4413 21.5448C17.6207 21.5313 17.7934 21.4712 17.9426 21.3706L21.2138 19.1893C21.3585 19.0928 21.525 19.0339 21.6981 19.018C21.8713 19.0021 22.0457 19.0297 22.2055 19.0982L28.3254 21.721C28.5333 21.8093 28.7069 21.9628 28.82 22.1583C28.9331 22.3538 28.9796 22.5808 28.9524 22.8051C28.759 24.3187 28.0205 25.7099 26.8751 26.7182C25.7298 27.7265 24.2562 28.2828 22.7303 28.2829C18.0173 28.2829 13.4974 26.4107 10.1648 23.0781C6.83219 19.7455 4.95996 15.2255 4.95996 10.5126C4.96004 8.98662 5.51632 7.51304 6.52464 6.36772C7.53296 5.2224 8.92418 4.48388 10.4378 4.29045C10.662 4.26331 10.889 4.30978 11.0846 4.42286C11.2801 4.53594 11.4336 4.70951 11.5219 4.9174L14.147 11.0427C14.2149 11.2011 14.2426 11.3739 14.2275 11.5456C14.2125 11.7173 14.1552 11.8826 14.0608 12.0269L11.8871 15.3483C11.7881 15.4977 11.7296 15.6703 11.7173 15.849C11.705 16.0278 11.7392 16.2067 11.8167 16.3683Z" fill="#1C1B1F"/>
</svg>
