<svg width="33" height="33" viewBox="0 0 33 33" fill="none" xmlns="http://www.w3.org/2000/svg">
<path d="M5.15367 22.419H7.03487C7.0755 22.4194 7.1149 22.4051 7.14576 22.3786C7.17661 22.3522 7.19681 22.3154 7.20262 22.2752L7.62199 20.0945H9.08381C9.69574 20.1098 10.3063 20.0289 10.8931 19.8548C11.3686 19.6976 11.8026 19.4355 12.1632 19.088C12.487 18.7969 12.7586 18.4524 12.966 18.0695C13.1712 17.6949 13.3167 17.2907 13.3974 16.8713C13.5247 16.4316 13.5465 15.9682 13.4612 15.5185C13.3758 15.0688 13.1857 14.6456 12.9061 14.2831C12.5822 13.954 12.1902 13.6998 11.7575 13.5383C11.3249 13.3769 10.8622 13.3121 10.4018 13.3485H6.80721C6.76409 13.3505 6.72288 13.3669 6.69027 13.3952C6.65765 13.4235 6.63552 13.4619 6.62748 13.5043L4.97394 22.2033C4.95563 22.2536 4.95563 22.3088 4.97394 22.3591C4.99681 22.3829 5.02511 22.4008 5.05642 22.4112C5.08773 22.4217 5.1211 22.4243 5.15367 22.419ZM8.56858 15.038H9.76679C9.99475 15.0074 10.2265 15.0223 10.4487 15.082C10.6708 15.1416 10.8789 15.2448 11.0609 15.3855C11.2646 15.6012 11.3005 16.0086 11.1927 16.5837C11.1326 17.0983 10.8903 17.5743 10.5097 17.9257C10.0351 18.2262 9.47603 18.3649 8.91606 18.3211H7.95749L8.56858 15.038ZM20.3111 13.8997C19.6624 13.4228 18.8592 13.2049 18.0584 13.2886H16.6325L17.028 11.1798C17.0396 11.1555 17.0457 11.1289 17.0457 11.1019C17.0457 11.0749 17.0396 11.0483 17.028 11.024C16.9854 11.0084 16.9387 11.0084 16.8962 11.024H15.015C14.9743 11.0236 14.9349 11.0379 14.9041 11.0644C14.8732 11.0908 14.853 11.1276 14.8472 11.1678L13.1937 19.8788C13.1821 19.901 13.1761 19.9257 13.1761 19.9507C13.1761 19.9757 13.1821 20.0004 13.1937 20.0226C13.2078 20.0447 13.2273 20.0629 13.2503 20.0755C13.2734 20.088 13.2992 20.0946 13.3255 20.0945H15.1707C15.2132 20.0946 15.2542 20.0786 15.2853 20.0497C15.3164 20.0207 15.3354 19.9811 15.3385 19.9387L16.2611 15.062H17.5911C18.1303 15.062 18.322 15.1818 18.3819 15.2537C18.4307 15.3715 18.4558 15.4977 18.4558 15.6251C18.4558 15.7526 18.4307 15.8788 18.3819 15.9966L17.651 19.8788C17.6395 19.901 17.6334 19.9257 17.6334 19.9507C17.6334 19.9757 17.6395 20.0004 17.651 20.0226C17.6659 20.044 17.6856 20.0616 17.7084 20.0741C17.7313 20.0866 17.7568 20.0936 17.7828 20.0945H19.652C19.6952 20.0925 19.7364 20.0761 19.769 20.0478C19.8016 20.0196 19.8237 19.9811 19.8318 19.9387L20.5986 15.8648C20.7224 15.5399 20.7609 15.1888 20.7106 14.8448C20.6602 14.5009 20.5227 14.1755 20.3111 13.8997ZM25.727 13.2886H21.9766C21.9545 13.287 21.9324 13.2897 21.9114 13.2967C21.8904 13.3037 21.871 13.3147 21.8543 13.3292C21.8376 13.3436 21.824 13.3613 21.8141 13.381C21.8042 13.4008 21.7984 13.4224 21.7968 13.4444L20.0475 22.2033C20.0366 22.2279 20.0309 22.2544 20.0309 22.2812C20.0309 22.3081 20.0366 22.3346 20.0475 22.3591C20.0636 22.3783 20.0838 22.3936 20.1066 22.404C20.1294 22.4144 20.1542 22.4195 20.1793 22.419H22.1323C22.175 22.4225 22.2174 22.4095 22.2508 22.3828C22.2842 22.3561 22.3061 22.3176 22.3121 22.2752L22.7554 20.0945H24.2771C24.9087 20.1084 25.5387 20.0276 26.1464 19.8548C26.6695 19.7093 27.1529 19.4471 27.5602 19.088C27.8947 18.7977 28.1782 18.4534 28.399 18.0695C28.608 17.6955 28.7575 17.2913 28.8423 16.8713C28.9729 16.4312 28.9954 15.9662 28.9078 15.5156C28.8202 15.065 28.6251 14.6422 28.3391 14.2831C28.0003 13.94 27.5918 13.6736 27.1411 13.502C26.6905 13.3305 26.2082 13.2577 25.727 13.2886ZM26.4699 16.6077C26.3982 17.1265 26.1432 17.6026 25.7509 17.9497C25.2592 18.2515 24.6846 18.3899 24.1094 18.3451H23.1508L23.7979 15.038H24.9961C25.475 14.9793 25.9585 15.1034 26.3501 15.3855C26.5418 15.6012 26.5418 16.0086 26.4699 16.6077Z" fill="black"/>
</svg>
