<svg width="32" height="33" viewBox="0 0 32 33" fill="none" xmlns="http://www.w3.org/2000/svg">
<path d="M0.257958 24.2089H2.76622C2.82039 24.2095 2.87293 24.1903 2.91407 24.1551C2.95521 24.1198 2.98215 24.0708 2.98988 24.0172L3.54905 21.1095H5.49814C6.31404 21.13 7.12809 21.0221 7.91054 20.79C8.54449 20.5803 9.12323 20.2309 9.60402 19.7675C10.0358 19.3794 10.3978 18.9201 10.6744 18.4096C10.948 17.9101 11.142 17.3711 11.2496 16.8119C11.4193 16.2257 11.4484 15.6078 11.3346 15.0082C11.2208 14.4086 10.9673 13.8443 10.5945 13.3611C10.1627 12.9223 9.63996 12.5833 9.06312 12.368C8.48628 12.1527 7.8693 12.0664 7.25552 12.115H2.46267C2.40518 12.1175 2.35024 12.1395 2.30675 12.1771C2.26326 12.2148 2.23376 12.2661 2.22303 12.3226L0.0183155 23.9213C-0.00610518 23.9884 -0.00610518 24.062 0.0183155 24.129C0.0488009 24.1608 0.0865399 24.1846 0.128285 24.1985C0.17003 24.2124 0.214531 24.216 0.257958 24.2089ZM4.81117 14.3676H6.40878C6.71273 14.3268 7.02177 14.3467 7.31796 14.4262C7.61414 14.5058 7.89159 14.6433 8.13421 14.8309C8.4058 15.1185 8.45373 15.6617 8.30995 16.4285C8.22985 17.1146 7.90681 17.7493 7.3993 18.2178C6.76656 18.6185 6.0211 18.8034 5.27447 18.7451H3.99638L4.81117 14.3676ZM20.4678 12.8499C19.6029 12.214 18.532 11.9235 17.4643 12.0351H15.5631L16.0903 9.22327C16.1059 9.19087 16.114 9.15537 16.114 9.11942C16.114 9.08347 16.1059 9.04798 16.0903 9.01558C16.0336 8.99481 15.9713 8.99481 15.9146 9.01558H13.4063C13.3522 9.01502 13.2996 9.03415 13.2585 9.06941C13.2174 9.10467 13.1904 9.15367 13.1827 9.20729L10.978 20.822C10.9626 20.8516 10.9545 20.8844 10.9545 20.9178C10.9545 20.9512 10.9626 20.9841 10.978 21.0137C10.9968 21.0432 11.0228 21.0674 11.0535 21.0842C11.0842 21.1009 11.1187 21.1097 11.1537 21.1095H13.614C13.6707 21.1097 13.7253 21.0883 13.7668 21.0498C13.8083 21.0112 13.8337 20.9584 13.8377 20.9018L15.0679 14.3995H16.8412C17.5601 14.3995 17.8158 14.5593 17.8956 14.6552C17.9607 14.8122 17.9942 14.9805 17.9942 15.1504C17.9942 15.3204 17.9607 15.4887 17.8956 15.6457L16.9211 20.822C16.9057 20.8516 16.8977 20.8844 16.8977 20.9178C16.8977 20.9512 16.9057 20.9841 16.9211 21.0137C16.9409 21.0422 16.9671 21.0657 16.9976 21.0824C17.0282 21.099 17.0621 21.1083 17.0968 21.1095H19.5891C19.6466 21.1069 19.7015 21.085 19.745 21.0473C19.7885 21.0097 19.818 20.9584 19.8288 20.9018L20.8512 15.4699C21.0162 15.0368 21.0676 14.5686 21.0005 14.11C20.9334 13.6514 20.75 13.2176 20.4678 12.8499ZM27.689 12.0351H22.6885C22.6591 12.0329 22.6296 12.0366 22.6016 12.0458C22.5736 12.0551 22.5478 12.0698 22.5255 12.0891C22.5032 12.1084 22.485 12.1319 22.4718 12.1583C22.4587 12.1847 22.4509 12.2134 22.4489 12.2428L20.1163 23.9213C20.1018 23.954 20.0943 23.9894 20.0943 24.0252C20.0943 24.061 20.1018 24.0963 20.1163 24.129C20.1378 24.1546 20.1647 24.1751 20.1951 24.1889C20.2256 24.2027 20.2587 24.2096 20.2921 24.2089H22.8962C22.953 24.2135 23.0095 24.1963 23.0541 24.1606C23.0986 24.125 23.1279 24.0737 23.1358 24.0172L23.7269 21.1095H25.7559C26.598 21.128 27.4381 21.0203 28.2482 20.79C28.9458 20.596 29.5903 20.2464 30.1334 19.7675C30.5794 19.3805 30.9574 18.9215 31.2517 18.4096C31.5304 17.9109 31.7298 17.3719 31.8428 16.8119C32.017 16.2252 32.0469 15.6051 31.9301 15.0043C31.8133 14.4035 31.5532 13.8398 31.1718 13.3611C30.7201 12.9036 30.1754 12.5484 29.5745 12.3196C28.9737 12.0908 28.3307 11.9938 27.689 12.0351ZM28.6796 16.4605C28.584 17.1523 28.244 17.787 27.721 18.2498C27.0654 18.6522 26.2992 18.8368 25.5323 18.777H24.2542L25.1169 14.3676H26.7145C27.3531 14.2893 27.9978 14.4548 28.5198 14.8309C28.7754 15.1185 28.7754 15.6617 28.6796 16.4605Z" fill="#111827"/>
</svg>
