<svg width="33" height="33" viewBox="0 0 33 33" fill="none" xmlns="http://www.w3.org/2000/svg">
<path fill-rule="evenodd" clip-rule="evenodd" d="M4.95996 3.28296C4.40768 3.28296 3.95996 3.73067 3.95996 4.28296V28.283C3.95996 28.8352 4.40768 29.283 4.95996 29.283H12.0391L12.0508 29.283L12.0625 29.283H21.8575L21.8691 29.283L21.8808 29.283H28.96C29.5122 29.283 29.96 28.8352 29.96 28.283V4.28296C29.96 3.73067 29.5122 3.28296 28.96 3.28296H4.95996ZM22.8691 27.283H27.96V5.28296H24.5961V17.9648C24.5961 18.2409 24.3723 18.4648 24.0961 18.4648H22.8691C22.8691 18.4648 22.8691 18.4648 22.8691 18.4648V27.283ZM20.8691 18.4648H19.6416C19.3655 18.4648 19.1416 18.2409 19.1416 17.9648V5.28296H14.7783V17.9648C14.7783 18.2409 14.5544 18.4648 14.2783 18.4648H13.0508V18.4648V27.283H20.8691V18.4648C20.8691 18.4648 20.8691 18.4648 20.8691 18.4648ZM5.95996 5.28296H9.32373V17.9648C9.32373 18.2409 9.54759 18.4648 9.82373 18.4648H11.0508V18.4648V27.283H5.95996V5.28296Z" fill="#1C1B1F"/>
</svg>
