<svg width="32" height="32" viewBox="0 0 32 32" fill="none" xmlns="http://www.w3.org/2000/svg">
<path fill-rule="evenodd" clip-rule="evenodd" d="M1.00098 0.000976562C0.448692 0.000976562 0.000976562 0.448692 0.000976562 1.00098V30.9991C0.000976562 31.5513 0.448692 31.9991 1.00098 31.9991H9.85616L9.86406 31.9991L9.87196 31.9991H22.1281L22.136 31.9991L22.1439 31.9991H30.9991C31.5513 31.9991 31.9991 31.5513 31.9991 30.9991V1.00098C31.9991 0.448692 31.5513 0.000976562 30.9991 0.000976562H1.00098ZM23.136 29.9991H29.9991V2.00098H25.5444V18.2271C25.5444 18.5033 25.3205 18.7271 25.0444 18.7271H23.136C23.136 18.7271 23.136 18.7271 23.136 18.7271V29.9991ZM21.136 18.7271H19.2267C18.9505 18.7271 18.7267 18.5033 18.7267 18.2271V2.00098H13.2729V18.2271C13.2729 18.5033 13.0491 18.7271 12.7729 18.7271H10.8641V18.7271V29.9991H21.136V18.7271C21.136 18.7271 21.136 18.7271 21.136 18.7271ZM2.00098 2.00098H6.45518V18.2271C6.45518 18.5033 6.67904 18.7271 6.95518 18.7271H8.86406V18.7271V29.9991H2.00098V2.00098Z" fill="#111827"/>
</svg>
