<svg width="32" height="33" viewBox="0 0 32 33" fill="none" xmlns="http://www.w3.org/2000/svg">
<path fill-rule="evenodd" clip-rule="evenodd" d="M2.65186 3.52679C2.65186 4.63136 3.54729 5.52679 4.65185 5.52679H27.3481C28.4527 5.52679 29.3481 4.63136 29.3481 3.52679V0.498351H2.65186V3.52679ZM6.88173 6.46797C4.54563 6.46797 2.65186 8.36174 2.65186 10.6978V28.2685C2.65186 30.6046 4.54563 32.4983 6.88173 32.4983C9.21782 32.4983 11.1116 30.6046 11.1116 28.2685V10.6978C11.1116 8.36175 9.21782 6.46797 6.88173 6.46797ZM25.1184 20.5856C22.7823 20.5856 20.8886 22.4794 20.8886 24.8155V28.2685C20.8886 30.6046 22.7823 32.4983 25.1184 32.4983C27.4545 32.4983 29.3483 30.6046 29.3483 28.2685V24.8155C29.3483 22.4794 27.4545 20.5856 25.1184 20.5856ZM20.8886 10.6978C20.8886 8.36175 22.7823 6.46797 25.1184 6.46797C27.4545 6.46797 29.3483 8.36175 29.3483 10.6978V15.4146C29.3483 17.7507 27.4545 19.6445 25.1184 19.6445C22.7823 19.6445 20.8886 17.7507 20.8886 15.4146V10.6978ZM16 6.4682C13.8199 6.4682 12.0526 8.23552 12.0526 10.4156V19.2147C12.0526 21.3948 13.8199 23.1622 16 23.1622C18.1801 23.1622 19.9474 21.3948 19.9474 19.2147V10.4156C19.9474 8.23552 18.1801 6.4682 16 6.4682ZM12.0526 28.0508C12.0526 25.8707 13.8199 24.1033 16 24.1033C18.1801 24.1033 19.9474 25.8707 19.9474 28.0508V28.5509C19.9474 30.731 18.1801 32.4984 16 32.4984C13.8199 32.4984 12.0526 30.731 12.0526 28.5509V28.0508Z" fill="#111827"/>
</svg>
