<svg width="32" height="33" viewBox="0 0 32 33" fill="none" xmlns="http://www.w3.org/2000/svg">
<path fill-rule="evenodd" clip-rule="evenodd" d="M32 5C32 4.72386 31.7761 4.5 31.5 4.5H0.5C0.223858 4.5 0 4.72386 0 5V28C0 28.2761 0.223858 28.5 0.5 28.5H31.5C31.7761 28.5 32 28.2761 32 28V5ZM30.2836 17C30.2836 16.7239 30.0598 16.5 29.7836 16.5H17.8333C17.5572 16.5 17.3333 16.7239 17.3333 17V26.652C17.3333 26.9282 17.5572 27.152 17.8333 27.152H29.7836C30.0598 27.152 30.2836 26.9282 30.2836 26.652V17Z" fill="#111827"/>
</svg>
