<svg width="33" height="33" viewBox="0 0 33 33" fill="none" xmlns="http://www.w3.org/2000/svg">
<path fill-rule="evenodd" clip-rule="evenodd" d="M28.96 8.28296C28.96 8.00682 28.7361 7.78296 28.46 7.78296H5.45996C5.18382 7.78296 4.95996 8.00682 4.95996 8.28296V25.283C4.95996 25.5591 5.18382 25.783 5.45996 25.783H28.46C28.7361 25.783 28.96 25.5591 28.96 25.283V8.28296ZM27.6727 17.283C27.6727 17.0068 27.4488 16.783 27.1727 16.783H18.46C18.1838 16.783 17.96 17.0068 17.96 17.283V24.272C17.96 24.5481 18.1838 24.772 18.46 24.772H27.1727C27.4488 24.772 27.6727 24.5481 27.6727 24.272V17.283Z" fill="#1C1B1F"/>
</svg>
