<svg width="32" height="32" viewBox="0 0 32 32" fill="none" xmlns="http://www.w3.org/2000/svg">
<path fill-rule="evenodd" clip-rule="evenodd" d="M29.5739 2.42617C26.3415 -0.806283 21.1006 -0.806284 17.8682 2.42617L2.42629 17.8681C-0.806163 21.1005 -0.806159 26.3414 2.4263 29.5738C5.65875 32.8063 10.8996 32.8063 14.1321 29.5738L29.5739 14.1319C32.8064 10.8995 32.8064 5.65863 29.5739 2.42617ZM19.2824 3.84039C21.7338 1.38898 25.7083 1.38898 28.1597 3.84039C30.6111 6.2918 30.6111 10.2663 28.1597 12.7177L20.4274 20.4501L11.55 11.5728L19.2824 3.84039ZM25.8094 8.94533C26.1931 9.34256 26.1821 9.97563 25.7849 10.3593L21.8574 14.153C21.4602 14.5367 20.8271 14.5257 20.4434 14.1285C20.0597 13.7313 20.0707 13.0982 20.4679 12.7145L24.3954 8.92083C24.7927 8.53713 25.4257 8.5481 25.8094 8.94533Z" fill="#111827"/>
</svg>
