<svg width="33" height="33" viewBox="0 0 33 33" fill="none" xmlns="http://www.w3.org/2000/svg">
<path fill-rule="evenodd" clip-rule="evenodd" d="M26.2386 7.00392C23.9548 4.72009 20.2519 4.72009 17.9681 7.00392L7.68065 17.2914C5.39682 19.5752 5.39681 23.278 7.68065 25.5619C9.96448 27.8457 13.6673 27.8457 15.9511 25.5619L26.2386 15.2744C28.5224 12.9906 28.5224 9.28775 26.2386 7.00392ZM19.3823 8.41813C20.8851 6.91535 23.3216 6.91535 24.8244 8.41813C26.3272 9.92092 26.3272 12.3574 24.8244 13.8602L19.6729 19.0116L14.2309 13.5696L19.3823 8.41813ZM23.7345 11.3511C24.1182 11.7484 24.1073 12.3814 23.71 12.7651L21.0935 15.2925C20.6963 15.6762 20.0632 15.6652 19.6795 15.268C19.2958 14.8708 19.3068 14.2377 19.704 13.854L22.3205 11.3266C22.7178 10.9429 23.3508 10.9539 23.7345 11.3511Z" fill="#1C1B1F"/>
</svg>
