<svg width="33" height="33" viewBox="0 0 33 33" fill="none" xmlns="http://www.w3.org/2000/svg">
<path fill-rule="evenodd" clip-rule="evenodd" d="M14.9196 5.51182L17.6165 3.93273L16.9679 7.66165L18.9383 8.00439L19.5861 4.27992L21.611 6.70836L23.1471 5.42756L19.7391 1.34037C19.4261 0.964964 18.8876 0.87084 18.4658 1.11781L13.909 3.78591L14.9196 5.51182ZM13.2271 15.1605L15.924 13.5814L15.2754 17.3103L17.2458 17.6531L17.8936 13.9286L19.9185 16.357L21.4545 15.0762L18.0466 10.989C17.7336 10.6136 17.1951 10.5195 16.7733 10.7665L12.2165 13.4346L13.2271 15.1605ZM14.3526 22.5822L11.6557 24.1613L10.6452 22.4354L15.202 19.7673C15.6237 19.5203 16.1623 19.6144 16.4753 19.9898L19.8832 24.077L18.3471 25.3578L16.3223 22.9294L15.6744 26.6538L13.704 26.3111L14.3526 22.5822ZM23.2932 21.2273L26.9993 21.9731L24.5182 23.9333L25.758 25.5026L29.9336 22.2036C30.1707 22.0163 30.3025 21.7401 30.3131 21.4554C30.3202 21.2673 30.2738 21.0859 30.1854 20.9289L27.6426 16.3111L25.8906 17.2758L27.398 20.0132L23.6877 19.2666L23.2932 21.2273ZM21.5583 30.0306L19.3626 26.9532L20.9907 25.7916L23.1888 28.8724L23.9594 25.844L25.8976 26.3371L24.5993 31.4397C24.5528 31.6353 24.4474 31.8176 24.288 31.9578C24.2089 32.0276 24.1191 32.0846 24.0219 32.1265C24.0006 32.1357 23.979 32.1441 23.9573 32.1517C23.8277 32.1972 23.687 32.2165 23.5427 32.2044L18.2398 31.7587L18.4073 29.7657L21.5583 30.0306ZM10.2842 28.1423L7.26774 27.3256L10.382 25.1747L9.24535 23.529L6.13474 25.6774L6.44765 22.531L4.45747 22.3331L3.93085 27.6285C3.88248 28.1149 4.19279 28.565 4.66458 28.6927L9.76147 30.0728L10.2842 28.1423ZM4.75597 17.935L6.41039 20.5863L4.71362 21.6451L1.91826 17.1653C1.65951 16.7506 1.73843 16.2096 2.10487 15.8862L6.09448 12.3645L7.41802 13.8639L5.04757 15.9564L8.78881 16.4991L8.5017 18.4783L4.75597 17.935ZM8.36058 12.0122L8.86945 8.92873L11.3231 11.8106L12.8459 10.514L10.3952 7.63559L13.5571 7.63006L13.5536 5.63006L8.23199 5.63938C7.74321 5.64023 7.32668 5.99429 7.24709 6.47654L6.38727 11.6865L8.36058 12.0122ZM25.2698 10.1735L22.378 8.98817L23.1366 7.1376L28.0225 9.14032C28.4747 9.3257 28.7267 9.81084 28.6183 10.2874L27.4377 15.4764L25.4876 15.0327L26.189 11.9497L22.8355 13.695L21.9122 11.9209L25.2698 10.1735ZM13.824 32.9805C14.8435 32.9805 15.67 32.154 15.67 31.1344C15.67 30.1148 14.8435 29.2883 13.824 29.2883C12.8044 29.2883 11.9779 30.1148 11.9779 31.1344C11.9779 32.154 12.8044 32.9805 13.824 32.9805Z" fill="#111827"/>
</svg>
