<svg width="33" height="33" viewBox="0 0 33 33" fill="none" xmlns="http://www.w3.org/2000/svg">
<path d="M15.9607 11.4244L11.9607 28.4244" stroke="#1C1B1F" stroke-width="2" stroke-linecap="round" stroke-linejoin="round"/>
<path d="M8.65365 19.9936C7.78373 18.696 7.22992 17.2126 7.03659 15.6624C6.84326 14.1122 7.01581 12.5383 7.54039 11.0668C8.06497 9.59529 8.927 8.26715 10.0574 7.18883C11.1877 6.11052 12.555 5.31202 14.0496 4.85735C15.5442 4.40268 17.1245 4.30449 18.6639 4.57064C20.2033 4.83679 21.6589 5.45988 22.9141 6.38997C24.1692 7.32005 25.189 8.53126 25.8917 9.92651C26.5945 11.3218 26.9605 12.8622 26.9606 14.4244C26.9606 19.9473 22.9606 23.4244 18.9606 23.4244C14.9606 23.4244 13.7566 20.7911 13.7566 20.7911" stroke="#1C1B1F" stroke-width="2" stroke-linecap="round" stroke-linejoin="round"/>
</svg>
