<svg width="33" height="33" viewBox="0 0 33 33" fill="none" xmlns="http://www.w3.org/2000/svg">
<path d="M15.9607 11.283L11.9607 28.283" stroke="#1C1B1F" stroke-width="2" stroke-linecap="round" stroke-linejoin="round"/>
<path d="M8.65365 19.8521C7.78373 18.5545 7.22992 17.0712 7.03659 15.521C6.84326 13.9708 7.01581 12.3968 7.54039 10.9253C8.06497 9.45381 8.927 8.12567 10.0574 7.04735C11.1877 5.96904 12.555 5.17054 14.0496 4.71587C15.5442 4.2612 17.1245 4.16301 18.6639 4.42916C20.2033 4.69531 21.6589 5.3184 22.9141 6.24849C24.1692 7.17857 25.189 8.38978 25.8917 9.78503C26.5945 11.1803 26.9605 12.7207 26.9606 14.283C26.9606 19.8058 22.9606 23.283 18.9606 23.283C14.9606 23.283 13.7566 20.6496 13.7566 20.6496" stroke="#1C1B1F" stroke-width="2" stroke-linecap="round" stroke-linejoin="round"/>
</svg>
