<svg width="32" height="32" viewBox="0 0 32 32" fill="none" xmlns="http://www.w3.org/2000/svg">
<path fill-rule="evenodd" clip-rule="evenodd" d="M13.3805 5.38962C14.7256 4.98042 16.1479 4.89205 17.5333 5.13158L15.9987 11.0625C16.0292 10.5844 15.7115 10.14 15.2295 10.0266C14.6919 9.90009 14.1536 10.2334 14.0271 10.771L11.8271 20.1206C11.8242 20.1324 11.8214 20.1442 11.8188 20.1561L10.0271 27.771C9.90058 28.3086 10.2338 28.8469 10.7714 28.9734C11.3091 29.0999 11.8474 28.7666 11.9739 28.229L13.3213 22.5028C14.2962 23.2843 15.8036 24 18.0004 24C22.5891 24 27.0004 20.038 27.0004 14V14C27.0003 12.2815 26.5976 10.587 25.8247 9.05225C25.0517 7.51749 23.9299 6.18516 22.5492 5.16207C21.1685 4.13898 19.5674 3.45358 17.8741 3.16082C16.1808 2.86806 14.4424 2.97607 12.7984 3.4762C11.1543 3.97634 9.65033 4.85468 8.40692 6.04082C7.16351 7.22696 6.21528 8.68791 5.63825 10.3066C5.06121 11.9252 4.87141 13.6565 5.08407 15.3618C5.29673 17.067 5.90593 18.6987 6.86283 20.126C7.17037 20.5847 7.79156 20.7073 8.25029 20.3998C8.70903 20.0922 8.8316 19.471 8.52406 19.0123C7.74113 17.8445 7.24269 16.5094 7.0687 15.1143C6.8947 13.7191 7.04999 12.3025 7.52212 10.9781C7.99424 9.65379 8.77007 8.45845 9.78741 7.48797C10.8048 6.51748 12.0353 5.79883 13.3805 5.38962ZM13.8631 20.2001C13.9956 20.3865 14.2122 20.6469 14.5334 20.9108C15.1626 21.4279 16.2411 22 18.0004 22C21.4117 22 25.0004 19.0077 25.0004 14L26.0004 14H25.0004C25.0003 12.594 24.6709 11.2076 24.0384 9.95189C23.406 8.69616 22.4881 7.60606 21.3585 6.76898C20.2288 5.9319 18.9188 5.37112 17.5333 5.13158L15.9979 11.0743C15.994 11.1256 15.9861 11.1773 15.9739 11.229L13.8631 20.2001Z" fill="#111827"/>
</svg>
