<svg width="32" height="32" viewBox="0 0 32 32" fill="none" xmlns="http://www.w3.org/2000/svg">
<path fill-rule="evenodd" clip-rule="evenodd" d="M11.1564 0.47114C11.1494 0.450135 11.1607 0.427385 11.1817 0.420328C15.3827 -0.991224 19.9326 1.27009 21.3441 5.47111L21.4335 5.73703C22.3968 8.60401 21.6495 11.6335 19.7425 13.717L30.8349 9.9409C30.8559 9.93375 30.8787 9.94497 30.8858 9.96595C32.314 14.1613 30.0708 18.7202 25.8754 20.1484L25.6099 20.2388C23.5793 20.93 21.4637 20.7613 19.659 19.9274L30.0244 30.2927C30.4149 30.6832 30.4149 31.3163 30.0244 31.7069C29.6338 32.0974 29.0007 32.0974 28.6101 31.7069L17.5243 20.6211L20.6448 29.901C20.6518 29.922 20.6405 29.9447 20.6195 29.9518C16.4188 31.3643 11.8684 29.1041 10.4559 24.9034L10.3665 24.6375C9.34094 21.5876 10.2514 18.3534 12.435 16.2696L1.16123 20.0856C1.14024 20.0927 1.11747 20.0814 1.11037 20.0604C-0.310535 15.8626 1.94064 11.3076 6.13851 9.88674L6.40422 9.7968C9.61437 8.71023 13.0333 9.77101 15.0999 12.2076L11.1564 0.47114Z" fill="#111827"/>
</svg>
