<svg width="32" height="33" viewBox="0 0 32 33" fill="none" xmlns="http://www.w3.org/2000/svg">
<path fill-rule="evenodd" clip-rule="evenodd" d="M11.1564 0.97114C11.1494 0.950135 11.1607 0.927385 11.1817 0.920328C15.3827 -0.491224 19.9326 1.77009 21.3441 5.97111L21.4335 6.23703C22.3968 9.10401 21.6495 12.1335 19.7425 14.217L30.8349 10.4409C30.8559 10.4338 30.8787 10.445 30.8858 10.4659C32.314 14.6613 30.0708 19.2202 25.8754 20.6484L25.6099 20.7388C23.5793 21.43 21.4637 21.2613 19.659 20.4274L30.0244 30.7927C30.4149 31.1832 30.4149 31.8163 30.0244 32.2069C29.6338 32.5974 29.0007 32.5974 28.6101 32.2069L17.5243 21.1211L20.6448 30.401C20.6518 30.422 20.6405 30.4447 20.6195 30.4518C16.4188 31.8643 11.8684 29.6041 10.4559 25.4034L10.3665 25.1375C9.34094 22.0876 10.2514 18.8534 12.435 16.7696L1.16123 20.5856C1.14024 20.5927 1.11747 20.5814 1.11037 20.5604C-0.310535 16.3626 1.94064 11.8076 6.13851 10.3867L6.40422 10.2968C9.61437 9.21023 13.0333 10.271 15.0999 12.7076L11.1564 0.97114Z" fill="#111827"/>
</svg>
