<svg width="32" height="32" viewBox="0 0 32 32" fill="none" xmlns="http://www.w3.org/2000/svg">
<path fill-rule="evenodd" clip-rule="evenodd" d="M0.0228599 6.5183C-0.0371407 6.82308 0.0220052 7.13927 0.188119 7.40176L5.62188 15.9405L6.13532 16.7482C6.13535 16.748 6.13538 16.7477 6.1354 16.7475L8.32917 20.1948C8.32799 20.1944 8.3268 20.194 8.32562 20.1937L9.69446 22.3469C9.69581 22.3468 9.69716 22.3467 9.69851 22.3466L14.9793 30.6451C15.0886 30.8168 15.2394 30.9582 15.4178 31.0561C15.5962 31.154 15.7965 31.2054 16 31.2054C16.2035 31.2054 16.4038 31.154 16.5822 31.0561C16.7606 30.9582 16.9114 30.8168 17.0207 30.6451L20.9368 24.4912C20.9391 24.492 20.9414 24.4928 20.9438 24.4936L22.0673 22.7261C22.0651 22.7257 22.063 22.7253 22.0608 22.7249L25.2817 17.6635C25.2824 17.6644 25.283 17.6653 25.2837 17.6662L26.4066 15.8996C26.4061 15.8991 26.4056 15.8986 26.4051 15.8981L31.8119 7.40176C31.978 7.13927 32.0371 6.82308 31.9771 6.5183C31.9171 6.21352 31.7426 5.94334 31.4893 5.7634C26.971 2.53186 21.555 0.794434 16 0.794434C10.445 0.794434 5.02902 2.53186 0.510651 5.7634C0.25744 5.94334 0.0828605 6.21352 0.0228599 6.5183ZM26.4051 15.8981C25.4543 14.9199 24.1242 14.3122 22.6523 14.3122C19.762 14.3122 17.4189 16.6552 17.4189 19.5455C17.4189 21.8349 18.8891 23.781 20.9368 24.4912L22.0608 22.7249C20.5575 22.447 19.4189 21.1292 19.4189 19.5455C19.4189 17.7598 20.8666 16.3122 22.6523 16.3122C23.7359 16.3122 24.695 16.8452 25.2817 17.6635L26.4051 15.8981ZM9.69851 22.3466C12.4249 22.1658 14.5803 19.8971 14.5803 17.1249C14.5803 14.2346 12.2372 11.8916 9.34694 11.8916C7.37492 11.8916 5.65765 12.9823 4.76553 14.5934L5.62188 15.9405L6.1354 16.7475C6.32235 15.1396 7.6889 13.8916 9.34694 13.8916C11.1327 13.8916 12.5803 15.3392 12.5803 17.1249C12.5803 18.9107 11.1327 20.3583 9.34694 20.3583C8.99136 20.3583 8.64918 20.3009 8.32917 20.1948L9.69851 22.3466ZM16 6.29329C11.0667 6.29329 6.27005 7.82665 2.26469 10.6595L1.19053 8.96975C5.51631 5.93507 10.685 4.29329 16 4.29329C21.3156 4.29329 26.4849 5.93546 30.811 8.97081L29.7369 10.6606C25.7312 7.82705 20.9339 6.29329 16 6.29329Z" fill="#111827"/>
</svg>
