<svg width="32" height="33" viewBox="0 0 32 33" fill="none" xmlns="http://www.w3.org/2000/svg">
<path fill-rule="evenodd" clip-rule="evenodd" d="M0.0228599 7.0183C-0.0371407 7.32308 0.0220052 7.63927 0.188119 7.90176L5.62188 16.4405L6.13532 17.2482C6.13535 17.248 6.13538 17.2477 6.1354 17.2475L8.32917 20.6948C8.32799 20.6944 8.3268 20.694 8.32562 20.6937L9.69446 22.8469C9.69581 22.8468 9.69716 22.8467 9.69851 22.8466L14.9793 31.1451C15.0886 31.3168 15.2394 31.4582 15.4178 31.5561C15.5962 31.654 15.7965 31.7054 16 31.7054C16.2035 31.7054 16.4038 31.654 16.5822 31.5561C16.7606 31.4582 16.9114 31.3168 17.0207 31.1451L20.9368 24.9912C20.9391 24.992 20.9414 24.9928 20.9438 24.9936L22.0673 23.2261C22.0651 23.2257 22.063 23.2253 22.0608 23.2249L25.2817 18.1635C25.2824 18.1644 25.283 18.1653 25.2837 18.1662L26.4066 16.3996C26.4061 16.3991 26.4056 16.3986 26.4051 16.3981L31.8119 7.90176C31.978 7.63927 32.0371 7.32308 31.9771 7.0183C31.9171 6.71352 31.7426 6.44334 31.4893 6.2634C26.971 3.03186 21.555 1.29443 16 1.29443C10.445 1.29443 5.02902 3.03186 0.510651 6.2634C0.25744 6.44334 0.0828605 6.71352 0.0228599 7.0183ZM26.4051 16.3981C25.4543 15.4199 24.1242 14.8122 22.6523 14.8122C19.762 14.8122 17.4189 17.1552 17.4189 20.0455C17.4189 22.3349 18.8891 24.281 20.9368 24.9912L22.0608 23.2249C20.5575 22.947 19.4189 21.6292 19.4189 20.0455C19.4189 18.2598 20.8666 16.8122 22.6523 16.8122C23.7359 16.8122 24.695 17.3452 25.2817 18.1635L26.4051 16.3981ZM9.69851 22.8466C12.4249 22.6658 14.5803 20.3971 14.5803 17.6249C14.5803 14.7346 12.2372 12.3916 9.34694 12.3916C7.37492 12.3916 5.65765 13.4823 4.76553 15.0934L5.62188 16.4405L6.1354 17.2475C6.32235 15.6396 7.6889 14.3916 9.34694 14.3916C11.1327 14.3916 12.5803 15.8392 12.5803 17.6249C12.5803 19.4107 11.1327 20.8583 9.34694 20.8583C8.99136 20.8583 8.64918 20.8009 8.32917 20.6948L9.69851 22.8466ZM16 6.79329C11.0667 6.79329 6.27005 8.32665 2.26469 11.1595L1.19053 9.46975C5.51631 6.43507 10.685 4.79329 16 4.79329C21.3156 4.79329 26.4849 6.43546 30.811 9.47081L29.7369 11.1606C25.7312 8.32705 20.9339 6.79329 16 6.79329Z" fill="#111827"/>
</svg>
