<svg width="33" height="33" viewBox="0 0 33 33" fill="none" xmlns="http://www.w3.org/2000/svg">
<path fill-rule="evenodd" clip-rule="evenodd" d="M4.97735 9.17181C4.93235 9.40039 4.97671 9.63754 5.10129 9.8344L8.82082 15.6794L9.79694 17.2149C9.79692 17.2143 9.79689 17.2137 9.79687 17.2132L10.9718 19.0595C10.9707 19.0589 10.9696 19.0583 10.9685 19.0578L12.3822 21.2816C12.3833 21.2815 12.3845 21.2814 12.3857 21.2812L16.1947 27.2669C16.2767 27.3957 16.3898 27.5017 16.5236 27.5752C16.6574 27.6486 16.8076 27.6871 16.9602 27.6871C17.1128 27.6871 17.263 27.6486 17.3968 27.5752C17.5306 27.5017 17.6437 27.3957 17.7257 27.2669L20.5251 22.8679C20.5268 22.8685 20.5285 22.8691 20.5302 22.8698L21.6567 21.0976C21.6551 21.0974 21.6536 21.0972 21.652 21.097L23.7754 17.7603C23.7758 17.761 23.7763 17.7617 23.7767 17.7623L24.9026 15.9912C24.9023 15.9909 24.902 15.9906 24.9017 15.9903L28.8191 9.8344C28.9437 9.63754 28.9881 9.40039 28.9431 9.17181C28.8981 8.94322 28.7671 8.74059 28.5772 8.60563C25.1884 6.18198 21.1265 4.87891 16.9602 4.87891C12.7939 4.87891 8.73197 6.18198 5.34319 8.60563C5.15329 8.74059 5.02235 8.94322 4.97735 9.17181ZM24.9017 15.9903C24.1462 15.2345 23.1023 14.7671 21.9492 14.7671C19.6434 14.7671 17.7742 16.6363 17.7742 18.9421C17.7742 20.7478 18.9205 22.2857 20.5251 22.8679L21.652 21.097C20.5914 20.9521 19.7742 20.0425 19.7742 18.9421C19.7742 17.7409 20.748 16.7671 21.9492 16.7671C22.7147 16.7671 23.3878 17.1625 23.7754 17.7603L24.9017 15.9903ZM12.3857 21.2812C14.4964 21.0727 16.1452 19.2922 16.1452 17.1267C16.1452 14.8209 14.276 12.9517 11.9702 12.9517C10.4452 12.9517 9.11121 13.7693 8.3826 14.99L8.82082 15.6794L9.79687 17.2132C9.79575 17.1845 9.79518 17.1556 9.79518 17.1267C9.79518 15.9254 10.769 14.9517 11.9702 14.9517C13.1714 14.9517 14.1452 15.9254 14.1452 17.1267C14.1452 18.3279 13.1714 19.3017 11.9702 19.3017C11.6103 19.3017 11.2708 19.2142 10.9718 19.0595L12.3857 21.2812ZM16.96 9.25293C13.3077 9.25293 9.75661 10.3894 6.79263 12.4889L5.71846 10.7992C9.00287 8.49786 12.926 7.25293 16.96 7.25293C20.9944 7.25293 24.9179 8.49812 28.2025 10.7999L27.1284 12.4897C24.1642 10.3897 20.6127 9.25293 16.96 9.25293Z" fill="#1C1B1F"/>
</svg>
