<svg width="32" height="33" viewBox="0 0 32 33" fill="none" xmlns="http://www.w3.org/2000/svg">
<path fill-rule="evenodd" clip-rule="evenodd" d="M16.0003 28.0324C22.3694 28.0324 27.5326 22.8692 27.5326 16.5001C27.5326 16.3925 27.5311 16.2853 27.5282 16.1784C25.5867 18.2228 22.7298 20.421 19.3733 22.3623C16.0301 24.296 12.716 25.6744 9.98546 26.3416C11.7367 27.4142 13.7963 28.0324 16.0003 28.0324ZM26.8661 13.2503L27.0194 13.0878C26.4982 11.4026 25.6009 9.88255 24.4258 8.62566C25.8464 8.2852 27.0347 8.15216 27.9344 8.2046C29.0308 8.26849 29.3773 8.57787 29.4692 8.7306C29.5425 8.86162 29.6359 9.23108 29.2805 10.0445C28.9342 10.8372 28.0806 11.9547 27.0502 13.0728L27.5892 16.1566L29.0306 14.6115C30.1559 13.3904 31.0371 12.1719 31.5361 11.03C32.0227 9.91626 32.2473 8.6223 31.6001 7.4986L31.596 7.49145C30.872 6.25375 29.4461 5.82709 28.0776 5.74734C26.6548 5.66442 24.9213 5.9248 23.0396 6.44109L22.035 6.67083C20.2795 5.59074 18.2126 4.96777 16.0003 4.96777C9.63115 4.96777 4.46795 10.131 4.46795 16.5001C4.46795 16.6517 4.47088 16.8027 4.47667 16.9529C4.39877 17.0199 4.3204 17.0879 4.24462 17.1537L4.24461 17.1537L4.24456 17.1537L4.24439 17.1539C4.04676 17.3254 3.86687 17.4815 3.75923 17.565C2.37332 18.9373 1.28227 20.3098 0.643602 21.5834C0.0303593 22.8063 -0.315583 24.2572 0.400187 25.501L0.402819 25.5055C1.05442 26.6267 2.287 27.0793 3.49616 27.2147C4.73538 27.3534 6.23156 27.1991 7.85191 26.8349C8.33493 26.7444 9.43528 26.5271 9.9725 26.3816L7.50285 24.379C6.01897 24.7126 4.63047 24.8649 3.77003 24.7686C2.8847 24.6694 2.60988 24.4022 2.5323 24.271C2.44891 24.1233 2.349 23.6736 2.84386 22.6868C3.24832 21.8803 3.95812 20.9155 4.96313 19.8537C5.47975 21.5562 6.37952 23.0921 7.56206 24.3609L7.80493 24.3095L7.8045 24.3075L9.00631 24.0424C11.5084 23.4903 14.7668 22.1831 18.141 20.2316C21.5415 18.2648 24.3162 16.0699 26.0405 14.163L26.8583 13.2586L26.8584 13.2584L26.8659 13.2501L26.8661 13.2503Z" fill="#111827"/>
</svg>
