<svg width="33" height="33" viewBox="0 0 33 33" fill="none" xmlns="http://www.w3.org/2000/svg">
<path fill-rule="evenodd" clip-rule="evenodd" d="M16.9603 26.1535C22.1355 26.1535 26.3308 21.9582 26.3308 16.7831C26.3308 16.6956 26.3296 16.6084 26.3272 16.5215C24.7496 18.1827 22.4282 19.9689 19.7009 21.5463C16.9844 23.1174 14.2916 24.2375 12.073 24.7796C13.4959 25.6511 15.1694 26.1535 16.9603 26.1535ZM25.789 14.1425L25.9137 14.0103C25.4902 12.6411 24.7612 11.406 23.8063 10.3848C24.9606 10.1081 25.9262 10 26.6572 10.0426C27.5481 10.0946 27.8296 10.3459 27.9043 10.47C27.9639 10.5765 28.0398 10.8767 27.751 11.5376C27.4696 12.1817 26.776 13.0897 25.9387 13.9982L26.3768 16.5039L27.5479 15.2484C28.4623 14.2563 29.1783 13.2662 29.5837 12.3384C29.9791 11.4334 30.1616 10.382 29.6358 9.46899L29.6324 9.46318C29.0441 8.45751 27.8855 8.11083 26.7736 8.04602C25.6175 7.97865 24.209 8.19022 22.68 8.60972L21.8637 8.7964C20.4373 7.91878 18.7579 7.4126 16.9603 7.4126C11.7851 7.4126 7.58985 11.6079 7.58985 16.7831C7.58985 16.9062 7.59223 17.0289 7.59694 17.1509C7.53363 17.2054 7.46995 17.2607 7.40837 17.3141C7.24773 17.4535 7.10148 17.5804 7.01399 17.6483C5.88788 18.7634 5.00136 19.8786 4.48242 20.9134C3.98414 21.907 3.70305 23.086 4.28464 24.0966L4.28678 24.1003C4.81623 25.0113 5.81775 25.3791 6.80024 25.4891C7.80714 25.6018 9.02285 25.4764 10.3394 25.1804C10.7319 25.1069 11.626 24.9303 12.0625 24.8121L10.0558 23.185C8.85011 23.456 7.7219 23.5797 7.02276 23.5015C6.3034 23.4209 6.0801 23.2038 6.01706 23.0972C5.94931 22.9772 5.86813 22.6118 6.27022 21.81C6.59885 21.1546 7.17559 20.3707 7.9922 19.5079C8.41197 20.8913 9.14306 22.1392 10.1039 23.1702L10.3011 23.1285L10.3008 23.1269L11.2773 22.9114C13.3103 22.4629 15.958 21.4007 18.6996 19.815C21.4626 18.2169 23.7172 16.4335 25.1182 14.8841L25.7827 14.1492L25.7828 14.1491L25.7889 14.1423L25.789 14.1425Z" fill="#1C1B1F"/>
</svg>
