<svg width="32" height="33" viewBox="0 0 32 33" fill="none" xmlns="http://www.w3.org/2000/svg">
<path fill-rule="evenodd" clip-rule="evenodd" d="M7.166 4.02236C8.89469 2.3335 10.9819 1.28195 13.4594 0.851767C14.6225 0.644642 16.9327 0.684475 17.9524 0.915497C19.8882 1.36958 21.6806 2.26977 23.3058 3.61608C24.7397 4.80306 26.1418 6.83447 26.5401 8.30027C26.6675 8.79419 26.6755 8.91368 26.5879 9.35183C26.5321 9.61472 26.4047 10.0051 26.3091 10.2042C25.9745 10.9292 25.138 11.5824 24.3573 11.7338C24.19 11.7656 22.0391 11.7975 19.5855 11.7975L15.1244 11.8055L14.6464 11.9966C13.9931 12.2595 13.2682 12.9845 13.0053 13.6377L12.8141 14.1157L12.838 19.015C12.8619 23.6673 12.8539 23.9621 12.7026 24.8543C12.5194 25.9058 12.2565 26.7503 11.89 27.4832C10.4402 30.359 7.7794 32.255 4.64864 32.6374C4.28219 32.6772 3.87591 32.717 3.74845 32.717H3.52539L3.54929 21.9386L3.57319 11.1681L3.75641 10.3078C4.29016 7.78246 5.38951 5.75902 7.166 4.02236ZM27.5562 10.314C27.6438 9.87586 27.6358 9.75636 27.5084 9.26245C27.8516 10.0413 28.5249 12.0129 28.4723 13.6685C28.4723 20.29 23.1045 25.6578 16.483 25.6578C15.5399 25.6578 14.6222 25.5489 13.7419 25.343C13.8241 24.6588 13.8257 23.7537 13.8063 19.9772L13.7824 15.0779L13.9736 14.5999C14.2365 13.9466 14.9614 13.2217 15.6147 12.9588L16.0926 12.7676L20.5538 12.7597C23.0074 12.7597 25.1583 12.7278 25.3256 12.6959C26.1063 12.5446 26.9428 11.8913 27.2774 11.1664C27.373 10.9672 27.5004 10.5769 27.5562 10.314Z" fill="#111827"/>
</svg>
