<svg width="33" height="33" viewBox="0 0 33 33" fill="none" xmlns="http://www.w3.org/2000/svg">
<path d="M15.0545 4.24252C13.1964 4.56516 11.631 5.35382 10.3345 6.62047C9.00209 7.92296 8.17758 9.44055 7.77727 11.3345L7.63985 11.9798L7.62193 20.0577L7.604 28.1415H7.7713C7.86689 28.1415 8.1716 28.1116 8.44644 28.0817C10.7945 27.7949 12.7901 26.373 13.8775 24.2161C14.1523 23.6664 14.3495 23.0331 14.4869 22.2444C14.6004 21.5752 14.6064 21.3542 14.5885 17.8649L14.5705 14.1905L14.7139 13.832C14.9111 13.3421 15.4548 12.7983 15.9447 12.6012L16.3032 12.4578L19.6491 12.4518C21.4893 12.4518 23.1025 12.4279 23.2279 12.404C23.8135 12.2905 24.4408 11.8006 24.6918 11.2569C24.7635 11.1075 24.8591 10.8147 24.9009 10.6176C24.9666 10.289 24.9606 10.1993 24.865 9.8289C24.5663 8.72955 23.5147 7.20599 22.4393 6.31576C21.2204 5.30603 19.8761 4.63088 18.4243 4.29032C17.6595 4.11705 15.9268 4.08718 15.0545 4.24252Z" fill="#1C1B1F"/>
<path d="M25.5912 10.5505C25.6868 10.921 25.6928 11.0106 25.6271 11.3392C25.5853 11.5364 25.4897 11.8291 25.418 11.9785C25.167 12.5222 24.5397 13.0121 23.9542 13.1256C23.8287 13.1495 22.2155 13.1734 20.3753 13.1734L17.0294 13.1794L16.671 13.3228C16.181 13.52 15.6373 14.0637 15.4402 14.5536L15.2968 14.9121L15.3147 18.5866C15.3292 21.419 15.328 22.0978 15.2664 22.611C15.9266 22.7654 16.6149 22.8471 17.3222 22.8471C22.2883 22.8471 26.3142 18.8212 26.3142 13.8551C26.3537 12.6134 25.8487 11.1347 25.5912 10.5505Z" fill="#1C1B1F"/>
</svg>
