<svg width="33" height="32" viewBox="0 0 33 32" fill="none" xmlns="http://www.w3.org/2000/svg">
<path fill-rule="evenodd" clip-rule="evenodd" d="M10.3345 6.47899C11.631 5.21235 13.1964 4.42368 15.0545 4.10104C15.9268 3.9457 17.6595 3.97557 18.4243 4.14884C19.8761 4.4894 21.2204 5.16455 22.4393 6.17428C23.5147 7.06451 24.5663 8.58807 24.865 9.68742C24.9606 10.0579 24.9666 10.1475 24.9009 10.4761C24.8591 10.6733 24.7635 10.966 24.6918 11.1154C24.4408 11.6591 23.8135 12.149 23.2279 12.2625C23.1025 12.2864 21.4893 12.3103 19.6491 12.3103L16.3032 12.3163L15.9447 12.4597C15.4548 12.6569 14.9111 13.2006 14.7139 13.6905L14.5705 14.049L14.5885 17.7234C14.6064 21.2127 14.6004 21.4338 14.4869 22.1029C14.3495 22.8916 14.1523 23.5249 13.8775 24.0746C12.7901 26.2315 10.7945 27.6535 8.44644 27.9403C8.1716 27.9701 7.86689 28 7.7713 28H7.604L7.62193 19.9162L7.63985 11.8383L7.77727 11.1931C8.17758 9.29907 9.00209 7.78148 10.3345 6.47899ZM25.6271 11.1977C25.6928 10.8691 25.6868 10.7795 25.5912 10.4091C25.8487 10.9932 26.3537 12.4719 26.3142 13.7136C26.3142 18.6798 22.2883 22.7056 17.3222 22.7056C16.6149 22.7056 15.9266 22.6239 15.2664 22.4695C15.328 21.9563 15.3292 21.2775 15.3147 18.4451L15.2968 14.7706L15.4402 14.4121C15.6373 13.9222 16.181 13.3785 16.671 13.1813L17.0294 13.0379L20.3753 13.032C22.2155 13.032 23.8287 13.0081 23.9542 12.9842C24.5397 12.8706 25.167 12.3807 25.418 11.837C25.4897 11.6877 25.5853 11.3949 25.6271 11.1977Z" fill="#1C1B1F"/>
</svg>
