<svg width="32" height="33" viewBox="0 0 32 33" fill="none" xmlns="http://www.w3.org/2000/svg">
<path fill-rule="evenodd" clip-rule="evenodd" d="M0.000976562 5.10059C0.000976562 4.5483 0.448692 4.10059 1.00098 4.10059H28.5578C29.1101 4.10059 29.5578 4.5483 29.5578 5.10059C29.5578 5.65287 29.1101 6.10059 28.5578 6.10059H1.00098C0.448692 6.10059 0.000976562 5.65287 0.000976562 5.10059ZM0.000976562 15.1213C0.000976562 14.569 0.448692 14.1213 1.00098 14.1213H18.4849C19.0372 14.1213 19.4849 14.569 19.4849 15.1213C19.4849 15.6736 19.0372 16.1213 18.4849 16.1213H1.00098C0.448692 16.1213 0.000976562 15.6736 0.000976562 15.1213ZM1.00098 24.1416C0.448692 24.1416 0.000976562 24.5893 0.000976562 25.1416C0.000976562 25.6939 0.448692 26.1416 1.00098 26.1416H10.9694C11.5217 26.1416 11.9694 25.6939 11.9694 25.1416C11.9694 24.5893 11.5217 24.1416 10.9694 24.1416H1.00098ZM22.486 9.96403C22.7419 9.77556 23.0723 9.72001 23.3758 9.81437L31.2954 12.2765C31.8228 12.4405 32.1175 13.0009 31.9535 13.5283C31.7895 14.0557 31.2291 14.3503 30.7017 14.1863L24.0789 12.1274V25.1175C24.0789 25.1982 24.0694 25.2766 24.0513 25.3517C23.8567 27.3433 22.1775 28.8997 20.1348 28.8997C17.9613 28.8997 16.1993 27.1377 16.1993 24.9642C16.1993 22.7908 17.9613 21.0288 20.1348 21.0288C20.8419 21.0288 21.5054 21.2153 22.0789 21.5418V10.7693C22.0789 10.4514 22.23 10.1525 22.486 9.96403Z" fill="#111827"/>
</svg>
