<svg width="33" height="33" viewBox="0 0 33 33" fill="none" xmlns="http://www.w3.org/2000/svg">
<path d="M19.8741 25.9029C21.5399 25.9029 22.8903 24.5526 22.8903 22.8868C22.8903 21.221 21.5399 19.8706 19.8741 19.8706C18.2083 19.8706 16.8579 21.221 16.8579 22.8868C16.8579 24.5526 18.2083 25.9029 19.8741 25.9029Z" fill="#1C1B1F" stroke="#1C1B1F" stroke-width="2" stroke-linecap="round" stroke-linejoin="round"/>
<path fill-rule="evenodd" clip-rule="evenodd" d="M4.95996 6.66309C4.40768 6.66309 3.95996 7.1108 3.95996 7.66309C3.95996 8.21537 4.40768 8.66309 4.95996 8.66309H26.0799C26.6322 8.66309 27.0799 8.21537 27.0799 7.66309C27.0799 7.1108 26.6322 6.66309 26.0799 6.66309H4.95996ZM4.95996 14.343C4.40768 14.343 3.95996 14.7907 3.95996 15.343C3.95996 15.8953 4.40768 16.343 4.95996 16.343H18.3599C18.9122 16.343 19.3599 15.8953 19.3599 15.343C19.3599 14.7907 18.9122 14.343 18.3599 14.343H4.95996ZM3.95996 23.0229C3.95996 22.4707 4.40768 22.0229 4.95996 22.0229H12.5999C13.1522 22.0229 13.5999 22.4707 13.5999 23.0229C13.5999 23.5752 13.1522 24.0229 12.5999 24.0229H4.95996C4.40768 24.0229 3.95996 23.5752 3.95996 23.0229ZM23.187 11.0527C22.8835 10.9583 22.5532 11.0138 22.2972 11.2023C22.0413 11.3908 21.8901 11.6897 21.8901 12.0076V23.0043C21.8901 23.5566 22.3379 24.0043 22.8901 24.0043C23.4424 24.0043 23.8901 23.5566 23.8901 23.0043V13.3657L28.663 14.8495C29.1904 15.0135 29.7508 14.7188 29.9148 14.1915C30.0788 13.6641 29.7841 13.1036 29.2568 12.9397L23.187 11.0527Z" fill="#1C1B1F"/>
</svg>
