<svg width="32" height="32" viewBox="0 0 32 32" fill="none" xmlns="http://www.w3.org/2000/svg">
<path fill-rule="evenodd" clip-rule="evenodd" d="M27.027 6.40959C27.0338 6.4032 27.0405 6.3967 27.0471 6.39008L31.7064 1.73079C32.0969 1.34026 32.0969 0.707099 31.7064 0.316575C31.3159 -0.0739494 30.6827 -0.0739494 30.2922 0.316575L25.6329 4.97587C25.6263 4.98248 25.6197 4.98917 25.6134 4.99592L24.1132 3.49574C23.3321 2.71469 22.0658 2.71469 21.2847 3.49574L16.7695 8.01102L15.7311 6.97266C15.3406 6.58214 14.7074 6.58214 14.3169 6.97266C13.9264 7.36319 13.9264 7.99635 14.3169 8.38688L23.6355 17.7055C24.026 18.096 24.6592 18.096 25.0497 17.7055C25.4402 17.3149 25.4402 16.6818 25.0497 16.2912L24.1463 15.3878L28.6615 10.8725C29.4426 10.0915 29.4426 8.82516 28.6615 8.04411L27.027 6.40959ZM14.3547 15.0431C14.7452 14.6526 14.7452 14.0194 14.3547 13.6289C13.9642 13.2383 13.331 13.2383 12.9405 13.6289L10.3196 16.2498L8.36405 14.2943C7.97352 13.9037 7.34036 13.9037 6.94984 14.2943C6.55931 14.6848 6.55931 15.318 6.94983 15.7085L7.98832 16.747L3.47279 21.2625C2.69175 22.0435 2.69174 23.3099 3.47279 24.0909L4.97271 25.5908C4.96613 25.5971 4.95961 25.6034 4.95316 25.6099L0.29387 30.2692C-0.0966545 30.6597 -0.0966545 31.2929 0.29387 31.6834C0.684394 32.0739 1.31756 32.0739 1.70808 31.6834L6.36738 27.0241C6.37383 27.0176 6.38017 27.0111 6.38641 27.0045L8.02116 28.6393C8.80221 29.4203 10.0685 29.4203 10.8496 28.6393L15.3651 24.1238L16.2684 25.0271C16.6589 25.4176 17.2921 25.4176 17.6826 25.0271C18.0732 24.6365 18.0732 24.0034 17.6826 23.6129L15.7273 21.6575L18.3481 19.0367C18.7386 18.6462 18.7386 18.013 18.3481 17.6225C17.9576 17.232 17.3244 17.232 16.9339 17.6225L14.3131 20.2433L11.7338 17.664L14.3547 15.0431Z" fill="#111827"/>
</svg>
