<svg width="33" height="33" viewBox="0 0 33 33" fill="none" xmlns="http://www.w3.org/2000/svg">
<path fill-rule="evenodd" clip-rule="evenodd" d="M23.907 3.57585C24.2975 3.96638 24.2975 4.59954 23.907 4.99007L19.8142 9.08286L24.1601 13.4288L28.253 9.33586C28.6436 8.94534 29.2767 8.94534 29.6673 9.33586C30.0578 9.72639 30.0578 10.3596 29.6673 10.7501L25.5743 14.843L28.7072 17.9758C29.0977 18.3663 29.0977 18.9995 28.7072 19.39C28.3166 19.7806 27.6835 19.7806 27.293 19.39L25.9898 18.0869L18.539 25.5378C17.7579 26.3189 16.4916 26.3189 15.7105 25.5378L12.4144 22.2417C12.4055 22.2513 12.3964 22.2608 12.3871 22.2701L5.66707 28.9901C5.27654 29.3806 4.64338 29.3806 4.25285 28.9901C3.86233 28.5996 3.86233 27.9664 4.25285 27.5759L10.9729 20.8559C10.9822 20.8465 10.9917 20.8374 11.0013 20.8285L7.89956 17.7268C7.11852 16.9458 7.11852 15.6795 7.89957 14.8984L15.3504 7.44752L13.853 5.95003C13.4624 5.5595 13.4624 4.92634 13.853 4.53581C14.2435 4.14529 14.8766 4.14529 15.2672 4.53581L18.4 7.66865L22.4928 3.57585C22.8833 3.18533 23.5165 3.18533 23.907 3.57585Z" fill="#1C1B1F"/>
</svg>
