<svg width="32" height="32" viewBox="0 0 32 32" fill="none" xmlns="http://www.w3.org/2000/svg">
<path fill-rule="evenodd" clip-rule="evenodd" d="M24.5068 0.293748C24.8973 0.684272 24.8973 1.31744 24.5068 1.70796L19.2142 7.00054L24.9995 12.7858L30.292 7.49333C30.6825 7.1028 31.3157 7.1028 31.7062 7.49333C32.0968 7.88385 32.0968 8.51702 31.7062 8.90754L26.4137 14.2001L30.5063 18.2927C30.8968 18.6832 30.8968 19.3163 30.5063 19.7069C30.1158 20.0974 29.4826 20.0974 29.0921 19.7069L27.4633 18.078L17.6201 27.9212C16.8391 28.7022 15.5728 28.7022 14.7917 27.9212L10.1416 23.271C10.1306 23.2831 10.1192 23.295 10.1076 23.3067L1.70808 31.7062C1.31756 32.0967 0.684394 32.0967 0.29387 31.7062C-0.0966545 31.3157 -0.0966545 30.6825 0.29387 30.292L8.69335 21.8925C8.70503 21.8808 8.71693 21.8695 8.72904 21.8585L4.32172 17.4512C3.54067 16.6701 3.54067 15.4038 4.32172 14.6227L14.1648 4.77962L12.2931 2.90791C11.9026 2.51739 11.9026 1.88422 12.2931 1.4937C12.6837 1.10317 13.3168 1.10317 13.7073 1.4937L17.8 5.58633L23.0926 0.293748C23.4831 -0.0967766 24.1162 -0.0967766 24.5068 0.293748Z" fill="#111827"/>
</svg>
