<svg width="33" height="33" viewBox="0 0 33 33" fill="none" xmlns="http://www.w3.org/2000/svg">
<path fill-rule="evenodd" clip-rule="evenodd" d="M13.9084 3.96676C13.7338 3.44282 13.1675 3.15966 12.6435 3.3343C12.1196 3.50895 11.8364 4.07527 12.0111 4.59921L13.0111 7.59921C13.1857 8.12316 13.752 8.40632 14.276 8.23167C14.7999 8.05702 15.0831 7.4907 14.9084 6.96676L13.9084 3.96676ZM4.01106 11.9668C4.18571 11.4428 4.75203 11.1597 5.27597 11.3343L8.27597 12.3343C8.79992 12.509 9.08308 13.0753 8.90843 13.5992C8.73378 14.1232 8.16746 14.4063 7.64352 14.2317L4.64352 13.2317C4.11957 13.057 3.83641 12.4907 4.01106 11.9668ZM25.0111 18.9668C25.1857 18.4428 25.752 18.1597 26.276 18.3343L29.276 19.3343C29.7999 19.5089 30.0831 20.0753 29.9084 20.5992C29.7338 21.1232 29.1675 21.4063 28.6435 21.2317L25.6435 20.2317C25.1196 20.057 24.8364 19.4907 25.0111 18.9668ZM19.6435 24.3343C20.1675 24.1597 20.7338 24.4428 20.9084 24.9668L21.9084 27.9668C22.0831 28.4907 21.7999 29.057 21.276 29.2317C20.752 29.4063 20.1857 29.1232 20.0111 28.5992L19.0111 25.5992C18.8364 25.0753 19.1196 24.5089 19.6435 24.3343ZM12.3571 22.2998L12.3418 22.3154L8.61412 26.0431C8.22359 26.4336 7.59043 26.4336 7.1999 26.0431C6.80938 25.6526 6.80938 25.0194 7.1999 24.6289L10.9276 20.9012L10.9433 20.8859L10.1674 20.11C9.38637 19.329 9.38637 18.0627 10.1674 17.2816L13.3557 14.0933L11.488 12.2256C11.0975 11.835 11.0975 11.2019 11.488 10.8114C11.8785 10.4208 12.5117 10.4208 12.9022 10.8114L14.7697 12.6788L17.9581 9.49041C18.7392 8.70936 20.0055 8.70936 20.7866 9.49041L21.5625 10.2663C21.5675 10.261 21.5726 10.2558 21.5778 10.2506L25.3055 6.5229C25.6961 6.13238 26.3292 6.13238 26.7197 6.5229C27.1103 6.91343 27.1103 7.54659 26.7197 7.93711L22.992 11.6648C22.9869 11.67 22.9816 11.6751 22.9763 11.6802L23.86 12.5638C24.641 13.3449 24.641 14.6112 23.86 15.3923L20.6716 18.5807L22.4312 20.3403C22.8217 20.7308 22.8217 21.364 22.4312 21.7545C22.0406 22.145 21.4075 22.145 21.0169 21.7545L19.2576 19.9952L16.0693 23.1835C15.2882 23.9645 14.0219 23.9645 13.2408 23.1835L12.3571 22.2998Z" fill="#1C1B1F"/>
</svg>
