<svg width="33" height="33" viewBox="0 0 33 33" fill="none" xmlns="http://www.w3.org/2000/svg">
<path fill-rule="evenodd" clip-rule="evenodd" d="M25.9238 8.75127C25.9291 8.74619 25.9343 8.74105 25.9395 8.73583L29.6672 5.00813C30.0578 4.61761 30.0578 3.98444 29.6672 3.59392C29.2767 3.20339 28.6435 3.20339 28.253 3.59392L24.5253 7.32162C24.5201 7.32683 24.515 7.33209 24.5099 7.33739L23.734 6.56155C22.953 5.7805 21.6867 5.7805 20.9056 6.56155L17.7172 9.74999L16.8863 8.91911C16.4958 8.52859 15.8626 8.52859 15.4721 8.91911C15.0816 9.30964 15.0816 9.9428 15.4721 10.3333L22.9275 17.7887C23.318 18.1793 23.9512 18.1793 24.3417 17.7887C24.7322 17.3982 24.7322 16.765 24.3417 16.3745L23.619 15.6518L26.8075 12.4634C27.5885 11.6824 27.5885 10.416 26.8075 9.63498L25.9238 8.75127ZM15.7853 15.6588C16.1758 15.2682 16.1758 14.6351 15.7853 14.2446C15.3948 13.854 14.7616 13.854 14.3711 14.2446L12.4155 16.2001L10.9923 14.7769C10.6017 14.3864 9.96857 14.3864 9.57805 14.7769C9.18753 15.1674 9.18753 15.8006 9.57805 16.1911L10.4089 17.0219L7.22037 20.2104C6.43932 20.9915 6.43932 22.2578 7.22037 23.0388L7.9962 23.8147L7.98056 23.83L4.25285 27.5577C3.86233 27.9482 3.86233 28.5814 4.25285 28.9719C4.64338 29.3624 5.27654 29.3624 5.66707 28.9719L9.39477 25.2442L9.41009 25.2286L10.2938 26.1123C11.0748 26.8933 12.3412 26.8933 13.1222 26.1123L16.3107 22.9238L17.0335 23.6465C17.424 24.037 18.0571 24.037 18.4477 23.6465C18.8382 23.256 18.8382 22.6228 18.4477 22.2323L17.0246 20.8093L18.9801 18.8538C19.3706 18.4633 19.3706 17.8301 18.9801 17.4396C18.5896 17.0491 17.9564 17.0491 17.5659 17.4396L15.6104 19.3951L13.8297 17.6143L15.7853 15.6588Z" fill="#1C1B1F"/>
</svg>
