<svg width="32" height="32" viewBox="0 0 32 32" fill="none" xmlns="http://www.w3.org/2000/svg">
<path fill-rule="evenodd" clip-rule="evenodd" d="M9.5836 5.37622C10.1359 5.37622 10.5836 5.82394 10.5836 6.37622V9.95897H14.1663C14.7186 9.95897 15.1663 10.4067 15.1663 10.959C15.1663 11.5113 14.7186 11.959 14.1663 11.959H10.5836V15.5416C10.5836 16.0939 10.1359 16.5416 9.5836 16.5416C9.03132 16.5416 8.5836 16.0939 8.5836 15.5416V11.959H5.00098C4.44869 11.959 4.00098 11.5113 4.00098 10.959C4.00098 10.4067 4.44869 9.95897 5.00098 9.95897H8.5836V6.37622C8.5836 5.82394 9.03132 5.37622 9.5836 5.37622ZM24.9552 9.83305C25.3457 9.44252 25.3457 8.80936 24.9552 8.41883C24.5647 8.02831 23.9315 8.02831 23.541 8.41883L7.04335 24.9165C6.65282 25.307 6.65282 25.9402 7.04335 26.3307C7.43387 26.7212 8.06704 26.7212 8.45756 26.3307L24.9552 9.83305ZM17.833 22.7904C17.2807 22.7904 16.833 23.2381 16.833 23.7904C16.833 24.3427 17.2807 24.7904 17.833 24.7904H26.9984C27.5507 24.7904 27.9984 24.3427 27.9984 23.7904C27.9984 23.2381 27.5507 22.7904 26.9984 22.7904H17.833Z" fill="#111827"/>
</svg>
