<svg width="32" height="32" viewBox="0 0 32 32" fill="none" xmlns="http://www.w3.org/2000/svg">
<path fill-rule="evenodd" clip-rule="evenodd" d="M17.0004 5.00037C17.0004 4.44808 16.5527 4.00037 16.0004 4.00037C15.4481 4.00037 15.0004 4.44808 15.0004 5.00037V15H5.00049C4.4482 15 4.00049 15.4477 4.00049 16C4.00049 16.5523 4.4482 17 5.00049 17H15.0004V26.9998C15.0004 27.552 15.4481 27.9998 16.0004 27.9998C16.5527 27.9998 17.0004 27.552 17.0004 26.9998V17H26.9999C27.5522 17 27.9999 16.5523 27.9999 16C27.9999 15.4477 27.5522 15 26.9999 15H17.0004V5.00037Z" fill="#111827"/>
</svg>
