<svg width="33" height="33" viewBox="0 0 33 33" fill="none" xmlns="http://www.w3.org/2000/svg">
<path fill-rule="evenodd" clip-rule="evenodd" d="M17.9602 9.27966C17.9602 8.72738 17.5125 8.27966 16.9602 8.27966C16.4079 8.27966 15.9602 8.72738 15.9602 9.27966V15.2829H9.95654C9.40426 15.2829 8.95654 15.7306 8.95654 16.2829C8.95654 16.8352 9.40426 17.2829 9.95654 17.2829H15.9602V23.2863C15.9602 23.8386 16.4079 24.2863 16.9602 24.2863C17.5125 24.2863 17.9602 23.8386 17.9602 23.2863V17.2829H23.9632C24.5154 17.2829 24.9632 16.8352 24.9632 16.2829C24.9632 15.7306 24.5154 15.2829 23.9632 15.2829H17.9602V9.27966Z" fill="#1C1B1F"/>
</svg>
