<svg width="32" height="32" viewBox="0 0 32 32" fill="none" xmlns="http://www.w3.org/2000/svg">
<path fill-rule="evenodd" clip-rule="evenodd" d="M16 32C24.8366 32 32 24.8366 32 16C32 7.16344 24.8366 0 16 0C7.16344 0 0 7.16344 0 16C0 24.8366 7.16344 32 16 32ZM8.33333 16C8.33333 15.4477 8.78105 15 9.33333 15H15V9.33333C15 8.78105 15.4477 8.33333 16 8.33333C16.5523 8.33333 17 8.78105 17 9.33333V15H22.6667C23.219 15 23.6667 15.4477 23.6667 16C23.6667 16.5523 23.219 17 22.6667 17H17V22.6667C17 23.219 16.5523 23.6667 16 23.6667C15.4477 23.6667 15 23.219 15 22.6667V17H9.33333C8.78105 17 8.33333 16.5523 8.33333 16Z" fill="#111827"/>
</svg>
