<svg width="33" height="33" viewBox="0 0 33 33" fill="none" xmlns="http://www.w3.org/2000/svg">
<path fill-rule="evenodd" clip-rule="evenodd" d="M11.7084 7.40588C12.2607 7.40588 12.7084 7.8536 12.7084 8.40588V11.1569H15.4595C16.0117 11.1569 16.4595 11.6046 16.4595 12.1569C16.4595 12.7091 16.0117 13.1569 15.4595 13.1569H12.7084V15.9078C12.7084 16.4601 12.2607 16.9078 11.7084 16.9078C11.1561 16.9078 10.7084 16.4601 10.7084 15.9078V13.1569H7.95752C7.40523 13.1569 6.95752 12.7091 6.95752 12.1569C6.95752 11.6046 7.40523 11.1569 7.95752 11.1569H10.7084V8.40588C10.7084 7.8536 11.1561 7.40588 11.7084 7.40588ZM24.4184 11.3637C24.809 10.9731 24.809 10.34 24.4184 9.94946C24.0279 9.55893 23.3948 9.55893 23.0042 9.94946L9.50073 23.453C9.1102 23.8435 9.1102 24.4766 9.50073 24.8672C9.89125 25.2577 10.5244 25.2577 10.9149 24.8672L24.4184 11.3637ZM18.4603 21.6595C17.908 21.6595 17.4603 22.1072 17.4603 22.6595C17.4603 23.2118 17.908 23.6595 18.4603 23.6595H25.9622C26.5145 23.6595 26.9622 23.2118 26.9622 22.6595C26.9622 22.1072 26.5145 21.6595 25.9622 21.6595H18.4603Z" fill="#1C1B1F"/>
</svg>
