<svg width="33" height="33" viewBox="0 0 33 33" fill="none" xmlns="http://www.w3.org/2000/svg">
<path fill-rule="evenodd" clip-rule="evenodd" d="M16.96 28.283C23.5874 28.283 28.96 22.9104 28.96 16.283C28.96 9.65554 23.5874 4.28296 16.96 4.28296C10.3325 4.28296 4.95996 9.65554 4.95996 16.283C4.95996 22.9104 10.3325 28.283 16.96 28.283ZM10.96 16.283C10.96 15.7307 11.4077 15.283 11.96 15.283H15.96V11.283C15.96 10.7307 16.4077 10.283 16.96 10.283C17.5122 10.283 17.96 10.7307 17.96 11.283V15.283H21.96C22.5122 15.283 22.96 15.7307 22.96 16.283C22.96 16.8352 22.5122 17.283 21.96 17.283H17.96V21.283C17.96 21.8352 17.5122 22.283 16.96 22.283C16.4077 22.283 15.96 21.8352 15.96 21.283V17.283H11.96C11.4077 17.283 10.96 16.8352 10.96 16.283Z" fill="#1C1B1F"/>
</svg>
