<svg width="32" height="33" viewBox="0 0 32 33" fill="none" xmlns="http://www.w3.org/2000/svg">
<path fill-rule="evenodd" clip-rule="evenodd" d="M6.99653 6.08207C9.17471 4.19791 11.9499 2.98539 15.0002 2.76647V7.88456C15.0002 7.90377 15.0007 7.92285 15.0018 7.94179C13.3706 8.13002 11.8781 8.77387 10.6549 9.7428C10.6422 9.7285 10.6289 9.71448 10.6152 9.70075L6.99653 6.08207ZM4.83812 5.36096C1.99123 8.21371 0.230957 12.1513 0.230957 16.4999C0.230957 20.8518 1.99384 24.792 4.84444 27.6453L4.84957 27.6504L4.85473 27.6555C7.708 30.5062 11.6482 32.2692 16.0002 32.2692C24.7093 32.2692 31.7694 25.2091 31.7694 16.4999C31.7694 12.148 30.0065 8.20776 27.1558 5.35449C27.1541 5.35276 27.1524 5.35104 27.1507 5.34933C27.1489 5.34761 27.1472 5.3459 27.1455 5.34419C24.2922 2.49359 20.3521 0.730713 16.0002 0.730713C11.6515 0.730713 7.71396 2.49099 4.8612 5.33788L4.84957 5.34933L4.83812 5.36096ZM25.0038 6.08201C22.8256 4.19789 20.0504 2.98539 17.0002 2.76647V7.88456C17.0002 7.90377 16.9996 7.92285 16.9986 7.94179C18.6297 8.13002 20.1222 8.77384 21.3454 9.74273C21.3581 9.72846 21.3713 9.71446 21.385 9.70075L25.0038 6.08201ZM22.7573 11.1546C23.7262 12.3778 24.3701 13.8703 24.5583 15.5016C24.5773 15.5005 24.5964 15.4999 24.6156 15.4999H29.7337C29.5147 12.4496 28.3022 9.6744 26.418 7.49621L22.7992 11.115C22.7855 11.1287 22.7716 11.1419 22.7573 11.1546ZM24.6156 17.4999C24.5964 17.4999 24.5773 17.4994 24.5583 17.4983C24.3701 19.1295 23.7263 20.622 22.7573 21.8452C22.7716 21.8579 22.7856 21.8711 22.7992 21.8848L26.4181 25.5036C28.3022 23.3254 29.5147 20.5502 29.7337 17.4999H24.6156ZM25.0038 26.9178C22.8257 28.802 20.0505 30.0145 17.0002 30.2334V25.1153C17.0002 25.0961 16.9996 25.077 16.9986 25.0581C18.6298 24.8699 20.1222 24.226 21.3454 23.2571C21.3582 23.2713 21.3714 23.2853 21.385 23.299L25.0038 26.9178ZM15.0002 25.1153C15.0002 25.0961 15.0007 25.077 15.0018 25.0581C13.3706 24.8699 11.8781 24.226 10.6549 23.257C10.6421 23.2713 10.6289 23.2853 10.6152 23.299L6.99646 26.9178C9.17465 28.8019 11.9499 30.0145 15.0002 30.2334V25.1153ZM9.24298 21.8451C8.27408 20.6219 7.63026 19.1295 7.44203 17.4983C7.42309 17.4994 7.40401 17.4999 7.3848 17.4999H2.26671C2.48563 20.5502 3.69813 23.3254 5.58225 25.5035L9.201 21.8848C9.2147 21.8711 9.2287 21.8579 9.24298 21.8451ZM7.3848 15.4999C7.40401 15.4999 7.42309 15.5005 7.44203 15.5016C7.63027 13.8704 8.27411 12.3779 9.24304 11.1547C9.22874 11.1419 9.21472 11.1287 9.201 11.115L5.58232 7.49629C3.69816 9.67447 2.48564 12.4497 2.26671 15.4999H7.3848Z" fill="#111827"/>
</svg>
