<svg width="32" height="32" viewBox="0 0 32 32" fill="none" xmlns="http://www.w3.org/2000/svg">
<path fill-rule="evenodd" clip-rule="evenodd" d="M6.99653 5.58207C9.17471 3.69791 11.9499 2.48539 15.0002 2.26647V7.38456C15.0002 7.40377 15.0007 7.42285 15.0018 7.44179C13.3706 7.63002 11.8781 8.27387 10.6549 9.2428C10.6422 9.2285 10.6289 9.21448 10.6152 9.20075L6.99653 5.58207ZM4.83812 4.86096C1.99123 7.71371 0.230957 11.6513 0.230957 15.9999C0.230957 20.3518 1.99384 24.292 4.84444 27.1453L4.84957 27.1504L4.85473 27.1555C7.708 30.0062 11.6482 31.7692 16.0002 31.7692C24.7093 31.7692 31.7694 24.7091 31.7694 15.9999C31.7694 11.648 30.0065 7.70776 27.1558 4.85449C27.1541 4.85276 27.1524 4.85104 27.1507 4.84933C27.1489 4.84761 27.1472 4.8459 27.1455 4.84419C24.2922 1.99359 20.3521 0.230713 16.0002 0.230713C11.6515 0.230713 7.71396 1.99099 4.8612 4.83788L4.84957 4.84933L4.83812 4.86096ZM25.0038 5.58201C22.8256 3.69789 20.0504 2.48539 17.0002 2.26647V7.38456C17.0002 7.40377 16.9996 7.42285 16.9986 7.44179C18.6297 7.63002 20.1222 8.27384 21.3454 9.24273C21.3581 9.22846 21.3713 9.21446 21.385 9.20075L25.0038 5.58201ZM22.7573 10.6546C23.7262 11.8778 24.3701 13.3703 24.5583 15.0016C24.5773 15.0005 24.5964 14.9999 24.6156 14.9999H29.7337C29.5147 11.9496 28.3022 9.1744 26.418 6.99621L22.7992 10.615C22.7855 10.6287 22.7716 10.6419 22.7573 10.6546ZM24.6156 16.9999C24.5964 16.9999 24.5773 16.9994 24.5583 16.9983C24.3701 18.6295 23.7263 20.122 22.7573 21.3452C22.7716 21.3579 22.7856 21.3711 22.7992 21.3848L26.4181 25.0036C28.3022 22.8254 29.5147 20.0502 29.7337 16.9999H24.6156ZM25.0038 26.4178C22.8257 28.302 20.0505 29.5145 17.0002 29.7334V24.6153C17.0002 24.5961 16.9996 24.577 16.9986 24.5581C18.6298 24.3699 20.1222 23.726 21.3454 22.7571C21.3582 22.7713 21.3714 22.7853 21.385 22.799L25.0038 26.4178ZM15.0002 24.6153C15.0002 24.5961 15.0007 24.577 15.0018 24.5581C13.3706 24.3699 11.8781 23.726 10.6549 22.757C10.6421 22.7713 10.6289 22.7853 10.6152 22.799L6.99646 26.4178C9.17465 28.3019 11.9499 29.5145 15.0002 29.7334V24.6153ZM9.24298 21.3451C8.27408 20.1219 7.63026 18.6295 7.44203 16.9983C7.42309 16.9994 7.40401 16.9999 7.3848 16.9999H2.26671C2.48563 20.0502 3.69813 22.8254 5.58225 25.0035L9.201 21.3848C9.2147 21.3711 9.2287 21.3579 9.24298 21.3451ZM7.3848 14.9999C7.40401 14.9999 7.42309 15.0005 7.44203 15.0016C7.63027 13.3704 8.27411 11.8779 9.24304 10.6547C9.22874 10.6419 9.21472 10.6287 9.201 10.615L5.58232 6.99629C3.69816 9.17447 2.48564 11.9497 2.26671 14.9999H7.3848Z" fill="#111827"/>
</svg>
