<svg width="32" height="32" viewBox="0 0 32 32" fill="none" xmlns="http://www.w3.org/2000/svg">
<path fill-rule="evenodd" clip-rule="evenodd" d="M11.2503 1.71521C11.2503 1.16293 11.698 0.71521 12.2503 0.71521H19.7498C20.3021 0.71521 20.7498 1.16293 20.7498 1.71521C20.7498 2.26749 20.3021 2.71521 19.7498 2.71521H12.2503C11.698 2.71521 11.2503 2.26749 11.2503 1.71521ZM8.49028 6.71491C8.16255 6.71491 7.85563 6.87549 7.66876 7.14473L1.89364 15.4655H30.1057L24.3306 7.14473C24.1438 6.87549 23.8368 6.71491 23.5091 6.71491H8.49028ZM1.00146 17.7142L1.89364 17.7142L1.89364 15.7142H1.00146C0.44918 15.7142 0.00146489 16.1619 0.00146484 16.7142C0.0014648 17.2665 0.44918 17.7142 1.00146 17.7142ZM30.9982 17.7142L30.106 17.7142V15.7142H30.9982C31.5505 15.7142 31.9982 16.1619 31.9982 16.7142C31.9982 17.2665 31.5505 17.7142 30.9982 17.7142ZM30.1057 17.9603H1.89364V24.9281H2.14361V30.2848C2.14361 30.8371 2.59132 31.2848 3.14361 31.2848H9.0361C9.58838 31.2848 10.0361 30.8371 10.0361 30.2848V24.9281H21.9635V30.2848C21.9635 30.8371 22.4113 31.2848 22.9635 31.2848H28.8559C29.4082 31.2848 29.8559 30.8371 29.8559 30.2848V24.9281H30.1057V17.9603ZM4.14361 29.2848V24.9281H8.0361V29.2848H4.14361ZM23.9635 29.2848V24.9281H27.8559V29.2848H23.9635ZM6.25075 20.7885C6.25075 20.2362 6.69846 19.7885 7.25075 19.7885H9.75058C10.3029 19.7885 10.7506 20.2362 10.7506 20.7885C10.7506 21.3407 10.3029 21.7885 9.75058 21.7885H7.25075C6.69846 21.7885 6.25075 21.3407 6.25075 20.7885ZM21.2499 20.7885C21.2499 20.2362 21.6976 19.7885 22.2499 19.7885H24.7497C25.302 19.7885 25.7497 20.2362 25.7497 20.7885C25.7497 21.3407 25.302 21.7885 24.7497 21.7885H22.2499C21.6976 21.7885 21.2499 21.3407 21.2499 20.7885Z" fill="#111827"/>
</svg>
