<svg width="33" height="33" viewBox="0 0 33 33" fill="none" xmlns="http://www.w3.org/2000/svg">
<path fill-rule="evenodd" clip-rule="evenodd" d="M12.9601 4.85437C12.9601 4.30209 13.4078 3.85437 13.9601 3.85437H19.9601C20.5123 3.85437 20.9601 4.30209 20.9601 4.85437C20.9601 5.40665 20.5123 5.85437 19.9601 5.85437H13.9601C13.4078 5.85437 12.9601 5.40665 12.9601 4.85437ZM11.0567 8.85437C10.729 8.85437 10.422 9.01495 10.2352 9.28419L5.67441 15.8553L5.67441 15.8544H4.95996C4.40768 15.8544 3.95996 16.3021 3.95996 16.8544C3.95996 17.4067 4.40768 17.8544 4.95996 17.8544H5.67441L5.67441 23.4258V23.4259V27.7115C5.67441 28.2638 6.12212 28.7115 6.67441 28.7115H11.3887C11.941 28.7115 12.3887 28.2638 12.3887 27.7115V23.4259H21.5313V27.7115C21.5313 28.2638 21.9791 28.7115 22.5313 28.7115H27.2456C27.7979 28.7115 28.2456 28.2638 28.2456 27.7115V23.4259V23.4258V17.8513H5.67441V15.8553H28.2456L23.6848 9.28419C23.498 9.01495 23.191 8.85437 22.8633 8.85437H11.0567ZM28.9601 17.8544H28.2457V15.8544H28.9601C29.5124 15.8544 29.9601 16.3021 29.9601 16.8544C29.9601 17.4067 29.5124 17.8544 28.9601 17.8544ZM7.67441 26.7115V23.4259H10.3887V26.7115H7.67441ZM23.5313 26.7115V23.4259H26.2456V26.7115H23.5313ZM8.96005 20.1139C8.96005 19.5616 9.40777 19.1139 9.96005 19.1139H11.9601C12.5123 19.1139 12.9601 19.5616 12.9601 20.1139C12.9601 20.6662 12.5123 21.1139 11.9601 21.1139H9.96005C9.40777 21.1139 8.96005 20.6662 8.96005 20.1139ZM20.9601 20.1139C20.9601 19.5616 21.4078 19.1139 21.9601 19.1139H23.9601C24.5123 19.1139 24.9601 19.5616 24.9601 20.1139C24.9601 20.6662 24.5123 21.1139 23.9601 21.1139H21.9601C21.4078 21.1139 20.9601 20.6662 20.9601 20.1139Z" fill="#1C1B1F"/>
</svg>
