<svg width="33" height="33" viewBox="0 0 33 33" fill="none" xmlns="http://www.w3.org/2000/svg">
<path fill-rule="evenodd" clip-rule="evenodd" d="M16.5153 10.0608C17.3876 10.0608 18.1622 9.64188 18.6487 8.99428C18.7042 9.02134 18.763 9.04362 18.8248 9.06047L23.4578 10.324C23.5194 10.3408 23.5812 10.3515 23.6427 10.3564C23.7179 11.0388 24.0507 11.6437 24.5418 12.0717C24.5106 12.1252 24.484 12.1824 24.4626 12.243L20.9047 22.3238C20.8833 22.3845 20.8681 22.4458 20.8587 22.5071C20.3758 22.5252 19.9257 22.6717 19.5416 22.9134C19.4994 22.8681 19.4524 22.8261 19.4006 22.7882L10.3687 16.1648C10.3171 16.1269 10.2631 16.0948 10.2074 16.0682C10.2634 15.8529 10.2933 15.627 10.2933 15.3941C10.2933 15.0675 10.2346 14.7547 10.1272 14.4656C10.1799 14.4336 10.2304 14.3962 10.2779 14.3535L15.2025 9.92127C15.25 9.87856 15.2924 9.83234 15.3297 9.78336C15.6868 9.96091 16.0894 10.0608 16.5153 10.0608ZM22.7114 23.1609C23.2723 23.6498 23.6268 24.3694 23.6268 25.1719C23.6268 26.6447 22.4329 27.8386 20.9601 27.8386C19.4874 27.8386 18.2935 26.6447 18.2935 25.1719C18.2935 24.939 18.3233 24.7131 18.3794 24.4977C18.3237 24.4711 18.2696 24.4389 18.2179 24.401L9.18598 17.7776C9.1343 17.7397 9.08733 17.6978 9.04516 17.6526C8.63431 17.9112 8.14794 18.0608 7.62663 18.0608C6.15387 18.0608 4.95996 16.8668 4.95996 15.3941C4.95996 13.9213 6.15387 12.7274 7.62663 12.7274C8.05266 12.7274 8.45536 12.8273 8.81258 13.005C8.84995 12.9559 8.89241 12.9096 8.93992 12.8669L13.8646 8.43468C13.912 8.39205 13.9623 8.35478 14.0148 8.32283C13.9074 8.03362 13.8486 7.72071 13.8486 7.39408C13.8486 5.92132 15.0425 4.72742 16.5153 4.72742C17.8882 4.72742 19.0187 5.76487 19.1658 7.09856C19.2273 7.10344 19.2893 7.1141 19.351 7.13094L23.984 8.39448C24.0456 8.41129 24.1043 8.43352 24.1598 8.4605C24.6463 7.81292 25.4208 7.39404 26.2931 7.39404C27.7659 7.39404 28.9598 8.58795 28.9598 10.0607C28.9598 11.4995 27.8203 12.6722 26.3945 12.7255C26.3852 12.7868 26.37 12.848 26.3486 12.9086L22.7906 22.9895C22.7693 23.0501 22.7426 23.1073 22.7114 23.1609Z" fill="#1C1B1F"/>
</svg>
