<svg width="32" height="32" viewBox="0 0 32 32" fill="none" xmlns="http://www.w3.org/2000/svg">
<path fill-rule="evenodd" clip-rule="evenodd" d="M15.4072 7.70369C16.6916 7.70369 17.8169 7.02273 18.4417 6.00215C18.4842 6.02037 18.5284 6.03587 18.5742 6.04837L24.7516 7.73311C24.7975 7.74561 24.8434 7.75472 24.8893 7.76057C24.9076 8.92856 25.4891 9.95982 26.3742 10.5947C26.3528 10.636 26.334 10.6792 26.318 10.7243L21.5741 24.1655C21.5581 24.2108 21.5456 24.2564 21.5364 24.3021C21.4693 24.2984 21.4017 24.2965 21.3337 24.2965C20.5174 24.2965 19.7654 24.5715 19.1652 25.034C19.1319 25.0015 19.0959 24.9709 19.0572 24.9425L7.01458 16.1113C6.97623 16.0831 6.93654 16.0582 6.89582 16.0363C7.03513 15.6554 7.11116 15.244 7.11116 14.8148C7.11116 14.2597 6.98391 13.7342 6.75699 13.266C6.79529 13.2402 6.83225 13.2114 6.86757 13.1796L13.4338 7.26995C13.4691 7.23818 13.5016 7.20448 13.5313 7.16914C14.0759 7.50797 14.7187 7.70369 15.4072 7.70369ZM23.4038 24.9609C24.3033 25.6061 24.8893 26.6606 24.8893 27.852C24.8893 29.8157 23.2974 31.4076 21.3337 31.4076C19.37 31.4076 17.7781 29.8157 17.7781 27.852C17.7781 27.4229 17.8542 27.0114 17.9935 26.6305C17.9527 26.6086 17.9129 26.5835 17.8745 26.5553L5.83186 17.7241C5.7933 17.6958 5.75736 17.6653 5.72408 17.6328C5.12392 18.0953 4.37188 18.3704 3.55558 18.3704C1.59189 18.3704 0 16.7785 0 14.8148C0 12.8512 1.59189 11.2593 3.55558 11.2593C4.24431 11.2593 4.8873 11.4551 5.43191 11.7941C5.46167 11.7586 5.49426 11.7248 5.52964 11.693L12.0959 5.78336C12.1311 5.75171 12.1679 5.72302 12.206 5.69727C11.9789 5.22901 11.8516 4.70343 11.8516 4.14811C11.8516 2.18442 13.4435 0.592529 15.4072 0.592529C17.352 0.592529 18.932 2.15382 18.9624 4.09133C19.0083 4.09718 19.0545 4.1063 19.1005 4.11884L25.2778 5.80358C25.3235 5.81604 25.3676 5.83147 25.4099 5.8496C26.0348 4.82902 27.1601 4.14805 28.4444 4.14805C30.4081 4.14805 32 5.73994 32 7.70363C32 9.66733 30.4081 11.2592 28.4444 11.2592C28.3764 11.2592 28.3088 11.2573 28.2417 11.2535C28.2325 11.2992 28.22 11.3448 28.204 11.3899L23.4601 24.8312C23.4441 24.8763 23.4253 24.9196 23.4038 24.9609Z" fill="#111827"/>
</svg>
