<svg width="32" height="32" viewBox="0 0 32 32" fill="none" xmlns="http://www.w3.org/2000/svg">
<path fill-rule="evenodd" clip-rule="evenodd" d="M15.9995 -0.000488281C14.4255 -0.000488281 12.8965 0.5283 11.6679 1.50141C10.7515 2.22719 10.043 3.16798 9.60362 4.23068C8.85232 3.98858 8.06184 3.87402 7.26634 3.89453C6.07598 3.92522 4.91282 4.25734 3.88988 4.86004C2.86682 5.46281 2.01798 6.31629 1.42785 7.33929C0.837637 8.36244 0.526898 9.51942 0.527344 10.6975C0.527384 10.8025 0.543611 10.9037 0.573665 10.9988L5.31566 31.8963C5.32599 31.9419 5.36648 31.9742 5.41318 31.9742H10.6557L10.6592 32.0007H13.3333V31.9742H18.7456V31.9836H21.4198L21.4211 31.9742H26.3453C26.3916 31.9742 26.4318 31.9425 26.4426 31.8974L31.4698 10.8508C31.4745 10.831 31.4731 10.8117 31.467 10.7944C31.4701 10.7625 31.4717 10.7302 31.4717 10.6975C31.4721 9.51942 31.1614 8.36244 30.5712 7.33929C29.981 6.31629 29.1322 5.46281 28.1091 4.86004C27.0862 4.25734 25.923 3.92522 24.7327 3.89453C23.9372 3.87402 23.1467 3.98858 22.3954 4.23068C21.956 3.16798 21.2475 2.22719 20.3311 1.50141C19.1025 0.5283 17.5735 -0.000488281 15.9995 -0.000488281ZM29.5578 11.1036C29.5024 10.9793 29.4716 10.8416 29.4717 10.6967C29.472 9.87157 29.2545 9.05928 28.8388 8.33866C28.423 7.61789 27.8225 7.01249 27.0939 6.58319C26.3651 6.15383 25.5339 5.91585 24.6811 5.89387C23.8284 5.87188 22.9853 6.0667 22.2341 6.45815C21.9579 6.60206 21.6305 6.6091 21.3484 6.4772C21.0663 6.3453 20.8617 6.08952 20.7951 5.78533C20.5616 4.71925 19.9613 3.75977 19.0894 3.06924C18.2171 2.3784 17.1266 1.99951 15.9995 1.99951C14.8724 1.99951 13.7819 2.3784 12.9096 3.06924C12.0378 3.75977 11.4375 4.71925 11.2039 5.78533C11.1373 6.08952 10.9327 6.3453 10.6507 6.4772C10.3686 6.6091 10.0411 6.60206 9.76497 6.45815C9.01378 6.0667 8.17064 5.87188 7.31788 5.89387C6.46513 5.91585 5.63388 6.15383 4.90514 6.58319C4.17651 7.01249 3.57605 7.61789 3.16027 8.33866C2.74457 9.05928 2.52703 9.87157 2.52734 10.6967C2.5274 10.839 2.49773 10.9744 2.44421 11.0969L8.09659 12.2612L8.13889 12.595L10.6557 31.9742H13.3333V31.9174L10.7874 12.2973L10.7426 12.1096L15.7826 10.3156C15.8035 10.3081 15.8264 10.3078 15.8475 10.3148L21.3698 12.1401L21.3409 12.3032L18.7456 31.9003V31.9742H21.4211L23.9894 12.6009L24.0332 12.2549L29.5578 11.1036ZM24.0332 12.2549L22.6389 12.5454C22.6217 12.549 22.6038 12.548 22.5871 12.5425L21.3698 12.1401L21.3709 12.134L22.6099 12.5441L24.0339 12.2498L24.0332 12.2549ZM10.7426 12.1096L10.7401 12.0991L9.51835 12.5382L8.0944 12.2439L8.09659 12.2612L9.4756 12.5453C9.49351 12.549 9.51209 12.5477 9.52931 12.5415L10.7426 12.1096Z" fill="#111827"/>
</svg>
