<svg width="33" height="33" viewBox="0 0 33 33" fill="none" xmlns="http://www.w3.org/2000/svg">
<path d="M27.9509 11.797C27.9512 11.0209 27.7506 10.258 27.3687 9.5824C26.9867 8.90684 26.4364 8.34164 25.7713 7.9418C25.1061 7.54196 24.3488 7.3211 23.573 7.30069C22.7972 7.28029 22.0293 7.46104 21.3441 7.82536C21.1288 6.82256 20.5761 5.92389 19.7784 5.27925C18.9806 4.63461 17.986 4.28296 16.9603 4.28296C15.9347 4.28296 14.94 4.63461 14.1423 5.27925C13.3445 5.92389 12.7919 6.82256 12.5766 7.82536C11.8913 7.46104 11.1235 7.28029 10.3477 7.30069C9.57187 7.3211 8.81456 7.54196 8.14942 7.9418C7.48428 8.34164 6.93396 8.90684 6.55199 9.5824C6.17003 10.258 5.96944 11.0209 5.96973 11.797" stroke="#1C1B1F" stroke-width="2" stroke-linecap="round" stroke-linejoin="round"/>
<path fill-rule="evenodd" clip-rule="evenodd" d="M8.67748 28.2051L4.98859 11.9485C4.9725 11.8776 5.03507 11.8138 5.10629 11.8285L10.8362 13.0087L10.8689 13.2673L12.8191 28.283H8.775C8.7283 28.283 8.68782 28.2507 8.67748 28.2051ZM14.8938 28.283H12.8191L12.8217 28.3035H14.8938V28.283ZM12.8864 12.8913L11.9523 13.2238C11.935 13.2299 11.9165 13.2312 11.8986 13.2275L10.8362 13.0087L10.8345 12.9953L11.9378 13.2233L12.8845 12.8831L12.8864 12.8913ZM21.1202 12.9147L16.8492 11.503C16.8281 11.496 16.8052 11.4963 16.7843 11.5038L12.8864 12.8913L12.9211 13.0367L14.8938 28.2389V28.283H19.0868V28.2903H21.1589L21.1598 28.283H24.9582C25.0045 28.283 25.0447 28.2512 25.0554 28.2062L28.9383 11.9504C28.9554 11.8791 28.8924 11.8143 28.8207 11.8293L23.1838 13.0039L23.1843 12.9999L22.081 13.2279L21.121 12.9102L21.1202 12.9147ZM23.1838 13.0039L22.11 13.2277C22.0928 13.2313 22.0749 13.2303 22.0582 13.2248L21.1202 12.9147L21.0977 13.0413L19.0868 28.2258V28.283H21.1598L23.1499 13.2719L23.1838 13.0039Z" fill="#1C1B1F"/>
</svg>
