<svg width="32" height="33" viewBox="0 0 32 33" fill="none" xmlns="http://www.w3.org/2000/svg">
<path fill-rule="evenodd" clip-rule="evenodd" d="M15.9995 0.499512C14.4255 0.499512 12.8965 1.0283 11.6679 2.00141C10.7515 2.72719 10.043 3.66798 9.60362 4.73068C8.85232 4.48858 8.06184 4.37402 7.26634 4.39453C6.07598 4.42522 4.91282 4.75734 3.88988 5.36004C2.86682 5.96281 2.01798 6.81629 1.42785 7.83929C0.837637 8.86244 0.526898 10.0194 0.527344 11.1975C0.527384 11.3025 0.543611 11.4037 0.573665 11.4988L5.31566 32.3963C5.32599 32.4419 5.36648 32.4742 5.41318 32.4742H10.6557L10.6592 32.5007H13.3333V32.4742H18.7456V32.4836H21.4198L21.4211 32.4742H26.3453C26.3916 32.4742 26.4318 32.4425 26.4426 32.3974L31.4698 11.3508C31.4745 11.331 31.4731 11.3117 31.467 11.2944C31.4701 11.2625 31.4717 11.2302 31.4717 11.1975C31.4721 10.0194 31.1614 8.86244 30.5712 7.83929C29.981 6.81629 29.1322 5.96281 28.1091 5.36004C27.0862 4.75734 25.923 4.42522 24.7327 4.39453C23.9372 4.37402 23.1467 4.48858 22.3954 4.73068C21.956 3.66798 21.2475 2.72719 20.3311 2.00141C19.1025 1.0283 17.5735 0.499512 15.9995 0.499512ZM29.5578 11.6036C29.5024 11.4793 29.4716 11.3416 29.4717 11.1967C29.472 10.3716 29.2545 9.55928 28.8388 8.83866C28.423 8.11789 27.8225 7.51249 27.0939 7.08319C26.3651 6.65383 25.5339 6.41585 24.6811 6.39387C23.8284 6.37188 22.9853 6.5667 22.2341 6.95815C21.9579 7.10206 21.6305 7.1091 21.3484 6.9772C21.0663 6.8453 20.8617 6.58952 20.7951 6.28533C20.5616 5.21925 19.9613 4.25977 19.0894 3.56924C18.2171 2.8784 17.1266 2.49951 15.9995 2.49951C14.8724 2.49951 13.7819 2.8784 12.9096 3.56924C12.0378 4.25977 11.4375 5.21925 11.2039 6.28533C11.1373 6.58952 10.9327 6.8453 10.6507 6.9772C10.3686 7.1091 10.0411 7.10206 9.76497 6.95815C9.01378 6.5667 8.17064 6.37188 7.31788 6.39387C6.46513 6.41585 5.63388 6.65383 4.90514 7.08319C4.17651 7.51249 3.57605 8.11789 3.16027 8.83866C2.74457 9.55928 2.52703 10.3716 2.52734 11.1967C2.5274 11.339 2.49773 11.4744 2.44421 11.5969L8.09659 12.7612L8.13889 13.095L10.6557 32.4742H13.3333V32.4174L10.7874 12.7973L10.7426 12.6096L15.7826 10.8156C15.8035 10.8081 15.8264 10.8078 15.8475 10.8148L21.3698 12.6401L21.3409 12.8032L18.7456 32.4003V32.4742H21.4211L23.9894 13.1009L24.0332 12.7549L29.5578 11.6036ZM24.0332 12.7549L22.6389 13.0454C22.6217 13.049 22.6038 13.048 22.5871 13.0425L21.3698 12.6401L21.3709 12.634L22.6099 13.0441L24.0339 12.7498L24.0332 12.7549ZM10.7426 12.6096L10.7401 12.5991L9.51835 13.0382L8.0944 12.7439L8.09659 12.7612L9.4756 13.0453C9.49351 13.049 9.51209 13.0477 9.52931 13.0415L10.7426 12.6096Z" fill="#111827"/>
</svg>
