<svg width="33" height="33" viewBox="0 0 33 33" fill="none" xmlns="http://www.w3.org/2000/svg">
<path fill-rule="evenodd" clip-rule="evenodd" d="M23.724 22.3253C23.7218 22.3439 23.7199 22.3599 23.7185 22.3739C23.6565 24.8799 23.253 26.3191 22.6207 27.2152C21.8953 28.2549 20.9913 28.5303 19.975 28.7475C17.3603 29.3062 16.8094 27.6224 16.5029 26.6759C16.4968 26.6589 16.4912 26.6428 16.4857 26.627C16.4735 26.5922 16.4621 26.5594 16.4488 26.5246C16.3168 26.164 16.2315 25.71 16.1732 25.198C16.1188 24.7093 16.0919 24.205 16.0723 23.6967C16.0679 23.6117 16.0648 23.506 16.0614 23.3915C16.0589 23.3076 16.0563 23.219 16.0529 23.1304C16.0492 22.983 16.0568 22.8433 16.0685 22.7154C15.7787 22.8441 15.4737 22.9354 15.1608 22.9869C14.3616 23.1226 13.6437 22.9947 13.2132 22.886C12.8525 22.7969 12.3948 22.5873 12.1116 22.3195C12.065 22.2768 12.0186 22.2265 11.9796 22.1799C11.7393 22.3778 11.491 22.5174 11.2387 22.6066C10.3001 22.9442 9.4737 22.5912 8.75615 21.792C8.23615 21.218 7.77066 20.3724 7.35939 19.3986C6.17231 16.5823 5.38871 12.5207 5.33839 11.5198C4.91949 3.14805 12.4493 5.14973 14.5013 5.84811C14.8615 5.6336 15.2474 5.46548 15.6498 5.34773C16.2084 5.18103 16.8289 5.09162 17.5156 5.1033C17.8647 5.1072 18.2101 5.13056 18.5592 5.16546C18.8009 5.19161 19.0416 5.22653 19.2808 5.27015C20.1188 5.02962 22.0816 4.59903 24.0523 5.06841C25.4024 5.39041 26.7834 6.10422 27.9007 7.52793C28.6377 8.47059 28.63 10.6157 27.9472 13.0831C27.4547 14.8676 26.6245 16.8809 25.4955 18.7546C25.7477 18.6925 26.1473 18.6073 26.7796 18.4754C27.2722 18.3744 27.6564 18.4093 27.9357 18.5452C28.4205 18.7779 28.63 19.1619 28.5952 19.6625C28.5796 19.9186 28.4749 20.1708 28.3041 20.4112C28.0209 20.7952 27.4042 21.2801 26.6709 21.6215C26.314 21.7844 25.8524 21.9125 25.3752 21.9939C24.8942 22.0753 24.3937 22.1102 23.9631 22.0908H23.9204L23.7535 22.0753C23.7496 22.114 23.7457 22.1528 23.738 22.1955C23.733 22.2501 23.728 22.292 23.724 22.3253ZM23.6719 18.9755C23.2335 19.0998 22.6051 19.3287 22.671 20.601C22.64 20.9775 22.5236 22.0364 22.3918 23.0683C22.2831 23.9139 22.1667 24.7673 22.0852 25.2561C21.9688 25.9233 21.7866 26.4044 21.4568 26.742C21.1309 27.0835 20.6344 27.3083 19.9011 27.4673C19.0633 27.6458 18.5357 27.4712 18.1943 27.1804C17.8413 26.8816 17.655 26.451 17.5386 26.1601C17.4301 25.8808 17.3486 25.136 17.302 24.139C17.2556 23.1381 17.2478 21.9083 17.2749 20.6631C17.2752 20.6431 17.2755 20.6232 17.2759 20.6034C17.28 20.3588 17.2838 20.1319 17.2012 19.8949C17.1003 19.6195 16.9219 19.3712 16.7008 19.2121C16.4952 19.0648 16.2005 18.964 15.9482 18.9872C15.9012 18.9913 15.8545 18.9991 15.8087 19.0104C15.8516 18.84 15.9133 18.6542 15.9836 18.457C16.0717 18.2092 16.0928 18.1352 16.1191 18.063C16.1504 17.9775 16.189 17.8947 16.3553 17.5286C16.7745 16.5937 17.3098 15.3988 16.7125 12.6251C16.5418 11.8493 16.1073 11.4419 15.5603 11.2712C15.2111 11.1627 14.8232 11.1549 14.4392 11.2131C14.0706 11.2713 13.702 11.3839 13.3764 11.5157C13.1721 11.6008 12.9749 11.702 12.7866 11.8183C12.9145 10.1967 13.6207 6.34074 17.496 6.40664C20.7081 6.45711 22.5119 8.56348 23.3424 10.0724C23.5519 10.4486 23.6954 10.7862 23.7847 11.0422L23.7855 11.0444C23.7929 11.0631 23.8002 11.0818 23.804 11.1004C21.907 10.9026 21.1466 11.5622 20.9876 12.559C20.7626 13.9595 21.9031 16.0039 22.4811 17.0397C22.4945 17.0639 22.5076 17.0875 22.5204 17.1104C22.6368 17.32 22.725 17.4787 22.7565 17.5557C22.9852 18.1103 23.2686 18.4673 23.4935 18.7428C23.5079 18.7612 23.522 18.7791 23.5357 18.7966C23.5882 18.8636 23.6349 18.9232 23.6719 18.9755ZM15.3818 20.2637C14.9705 20.7874 14.8423 20.9463 13.5661 21.2102C13.3374 21.2566 13.182 21.3071 13.089 21.3537C13.2053 21.4352 13.3839 21.5089 13.5389 21.5478C13.8534 21.6254 14.377 21.7223 14.9316 21.6254C15.4786 21.5322 16.0645 21.2531 16.5416 20.5896C16.6388 20.4539 16.6192 20.2677 16.5689 20.1163C16.5145 19.9689 16.4215 19.837 16.3129 19.7594C16.2313 19.7011 16.0994 19.6507 16.0064 19.6584C15.949 19.6621 15.895 19.687 15.8551 19.7284C15.6871 19.8975 15.5291 20.0763 15.3818 20.2637ZM12.9027 18.4985C12.9953 18.5986 13.0937 18.6932 13.1976 18.7817C12.5753 19.4442 11.9738 20.126 11.3939 20.8259C11.1803 21.082 10.9787 21.2372 10.7924 21.3032C10.4511 21.4274 10.0981 21.2411 9.75285 20.8571C9.33783 20.3955 8.94573 19.6778 8.59303 18.8398C7.46795 16.1746 6.72704 12.3536 6.68046 11.4187C6.3622 5.01003 12.1931 6.43374 13.9967 7.02728C11.9991 8.99032 12.0881 12.5011 12.0921 12.5282C12.0887 12.6007 12.0938 12.6902 12.1003 12.8037C12.1014 12.8236 12.1026 12.8442 12.1038 12.8656C12.1387 13.4126 12.2007 14.464 12.0377 15.6316C11.9965 15.9155 11.99 16.2035 12.0184 16.489C12.0921 17.2687 12.418 17.9669 12.9027 18.4985ZM23.928 9.7507C23.2996 8.60227 22.1513 7.13991 20.3241 6.33295C21.2008 6.15442 22.6129 5.99926 24.0288 6.40679C25.026 6.69779 26.0267 7.26796 26.8452 8.31156C27.3185 8.92053 27.2292 10.612 26.6552 12.6874C26.1587 14.4912 25.2897 16.5512 24.0987 18.4249C24.0724 18.3948 24.0459 18.3608 24.0195 18.327L24.0173 18.3241C24.0057 18.3125 23.994 18.2969 23.9824 18.2813C24.6728 17.1486 24.541 16.0547 24.4168 15.0267C24.3664 14.6232 24.3198 14.2353 24.3315 13.8667C24.3464 13.4962 24.3929 13.1787 24.4377 12.8738C24.4398 12.8594 24.4419 12.8451 24.444 12.8309C24.51 12.4196 24.5683 12.0278 24.5527 11.5506C24.5527 11.5449 24.5536 11.5391 24.5545 11.5333C24.5555 11.5275 24.5564 11.5216 24.5564 11.5157C24.5759 11.4033 24.5332 11.1472 24.4168 10.8214C24.2847 10.4512 24.1212 10.093 23.928 9.7507ZM12.77 12.7223C12.7666 12.6563 12.7632 12.5903 12.7632 12.5243C12.767 12.5087 13.1393 12.3381 13.6286 12.1362C13.9118 12.0238 14.226 11.923 14.5364 11.8764C14.8313 11.8336 15.1182 11.8336 15.3625 11.9113C15.6845 12.0121 15.9484 12.2682 16.0531 12.7647C16.6077 15.329 16.123 16.4074 15.7428 17.2531C15.5491 17.6792 15.4912 17.8434 15.4181 18.0503C15.4002 18.101 15.3814 18.1543 15.3595 18.2147C15.2785 18.4372 15.2076 18.6499 15.157 18.8552L15.1497 18.855C15.051 18.8512 14.9489 18.8472 14.8504 18.832C14.2916 18.7543 13.7835 18.4673 13.3995 18.0445C12.991 17.5979 12.7403 17.0296 12.6856 16.4269C12.6623 16.2019 12.6665 15.9653 12.7012 15.7247C12.8759 14.4795 12.8097 13.3894 12.7749 12.8268C12.7736 12.792 12.7718 12.7572 12.77 12.7223ZM15.5603 12.3575C15.3373 12.2375 15.0006 12.192 14.7532 12.245C14.5805 12.2881 14.5069 12.3724 14.5013 12.4732C14.4958 12.574 14.559 12.6911 14.6602 12.7997C14.7649 12.9083 14.9124 13.0054 15.0791 13.0286H15.0832C15.2538 13.0519 15.413 12.9937 15.5293 12.9161C15.6533 12.8307 15.735 12.7144 15.7463 12.6329C15.758 12.5282 15.6882 12.4311 15.5603 12.3575ZM21.6468 12.664C21.7515 12.0083 22.3451 11.5893 23.8813 11.7795C23.8775 12.1169 23.8309 12.4196 23.7803 12.7337L23.7751 12.7683C23.7263 13.0955 23.6751 13.4387 23.6601 13.8471C23.6487 14.2465 23.6969 14.6572 23.7464 15.0789L23.7493 15.1041C23.8501 15.9343 23.9548 16.811 23.5515 17.6644C23.4895 17.5558 23.4312 17.4317 23.3731 17.2997C23.3226 17.1796 23.2139 16.9779 23.0665 16.7179C22.5236 15.7442 21.4605 13.8355 21.6468 12.664ZM24.011 19.5754C24.032 19.5693 24.0523 19.5634 24.0715 19.5575C24.8619 20.1543 26.184 19.908 27.0581 19.7452L27.0663 19.7437C26.8569 19.9454 26.5156 20.1743 26.1082 20.3645C25.7124 20.5466 25.0917 20.6709 24.5098 20.7056C24.1762 20.7214 23.8619 20.7136 23.6253 20.6631C23.474 20.6358 23.3732 20.6048 23.3421 20.5738C23.3035 19.7784 23.6685 19.6748 23.9014 19.6087L23.9046 19.6078C23.9407 19.5958 23.9768 19.5854 24.011 19.5754ZM23.1134 12.536C23.2103 12.435 23.2686 12.3148 23.2569 12.245C23.245 12.1635 23.1676 12.1054 23.0476 12.0781C22.943 12.0509 22.8032 12.047 22.6558 12.0665C22.5083 12.0897 22.3765 12.1323 22.2834 12.1828C22.1716 12.2468 22.1266 12.3187 22.1278 12.3903C22.1296 12.4949 22.2306 12.599 22.3686 12.6756C22.4857 12.7386 22.603 12.7612 22.7153 12.7487C22.8597 12.7325 22.996 12.658 23.1134 12.536ZM26.9111 19.092C25.1537 19.4567 24.63 19.2279 24.4748 19.0803C25.7977 17.0709 26.7598 14.8209 27.299 12.8653C27.9275 10.5921 27.9779 8.67565 27.3727 7.89984C26.4533 6.72834 25.3321 6.08822 24.215 5.76622C22.5236 5.27752 20.8555 5.5179 19.9438 5.73132C19.9272 5.73502 19.9115 5.7385 19.8965 5.7418C19.8485 5.75239 19.8086 5.76121 19.7731 5.77011C19.7536 5.7779 19.4084 5.87495 19.164 5.94085C18.6558 5.81654 18.101 5.74285 17.5075 5.73522C16.2818 5.7159 15.3351 6.02622 14.6018 6.5266C13.3683 6.0689 5.6135 3.50469 6.00904 11.4495C6.05967 12.4156 6.8199 16.3608 7.97597 19.0997C8.35998 20.0073 8.78683 20.7871 9.25217 21.307C9.78745 21.8966 10.3735 22.1643 11.0135 21.9354C11.3158 21.8268 11.6187 21.6095 11.9094 21.2565C12.7282 20.2712 13.4767 19.4605 13.7561 19.1656C14.0678 19.3334 14.4067 19.445 14.7571 19.4952C14.8664 19.5103 14.9765 19.5194 15.0868 19.5225C15.0868 19.538 15.0868 19.5535 15.0905 19.569C15.0086 19.6596 14.9297 19.7527 14.8539 19.8484C14.5591 20.2247 14.4661 20.3411 13.434 20.5544C12.9687 20.6514 12.6894 20.7793 12.5381 20.923C12.3791 21.0703 12.3287 21.237 12.3518 21.4079C12.3752 21.5553 12.4528 21.683 12.5691 21.7918C12.767 21.9779 13.1046 22.1294 13.3762 22.1992C13.7486 22.2923 14.3694 22.4048 15.048 22.2886C15.5602 22.1992 16.0992 21.982 16.5881 21.5397C16.5804 22.4864 16.596 23.3981 16.6307 24.17C16.6811 25.2292 16.7744 26.0554 16.9179 26.4083C17.0615 26.7652 17.2864 27.2967 17.7597 27.6963C18.2406 28.0999 18.9546 28.3559 20.0407 28.1232C20.9097 27.9368 21.5109 27.6536 21.9416 27.2076C22.3723 26.7616 22.6049 26.1718 22.7447 25.3689C22.826 24.8956 22.9462 24.0266 23.055 23.1499C23.1441 22.4515 23.2257 21.7611 23.2799 21.2685C23.346 21.2878 23.4197 21.3071 23.4934 21.3227C23.792 21.3808 24.1606 21.3964 24.5446 21.3771C25.2003 21.3383 25.918 21.1908 26.3874 20.9736C27.0197 20.6787 27.5355 20.283 27.7606 19.9727C27.8577 19.8367 27.9158 19.7049 27.9236 19.5768C27.9391 19.3674 27.8499 19.2084 27.6481 19.1115C27.493 19.0378 27.2524 19.0222 26.9111 19.092Z" fill="#1C1B1F"/>
</svg>
