<svg width="33" height="33" viewBox="0 0 33 33" fill="none" xmlns="http://www.w3.org/2000/svg">
<path fill-rule="evenodd" clip-rule="evenodd" d="M23.724 22.1838C23.7218 22.2025 23.7199 22.2184 23.7185 22.2324C23.6565 24.7384 23.253 26.1777 22.6207 27.0737C21.8953 28.1134 20.9913 28.3889 19.975 28.606C17.3603 29.1647 16.8094 27.481 16.5029 26.5344C16.4968 26.5175 16.4912 26.5013 16.4857 26.4855C16.4735 26.4507 16.4621 26.4179 16.4488 26.3831C16.3168 26.0225 16.2315 25.5685 16.1732 25.0565C16.1188 24.5678 16.0919 24.0635 16.0723 23.5552C16.0679 23.4702 16.0648 23.3645 16.0614 23.2501C16.0589 23.1661 16.0563 23.0775 16.0529 22.9889C16.0492 22.8415 16.0568 22.7018 16.0685 22.5739C15.7787 22.7026 15.4737 22.7939 15.1608 22.8454C14.3616 22.9811 13.6437 22.8532 13.2132 22.7445C12.8525 22.6554 12.3948 22.4458 12.1116 22.1781C12.065 22.1354 12.0186 22.085 11.9796 22.0385C11.7393 22.2363 11.491 22.3759 11.2387 22.4652C10.3001 22.8027 9.4737 22.4497 8.75615 21.6506C8.23615 21.0765 7.77066 20.2309 7.35939 19.2571C6.17231 16.4408 5.38871 12.3792 5.33839 11.3783C4.91949 3.00657 12.4493 5.00825 14.5013 5.70663C14.8615 5.49212 15.2474 5.324 15.6498 5.20625C16.2084 5.03955 16.8289 4.95014 17.5156 4.96182C17.8647 4.96572 18.2101 4.98908 18.5592 5.02398C18.8009 5.05013 19.0416 5.08505 19.2808 5.12867C20.1188 4.88814 22.0816 4.45755 24.0523 4.92693C25.4024 5.24893 26.7834 5.96274 27.9007 7.38645C28.6377 8.32911 28.63 10.4743 27.9472 12.9416C27.4547 14.7261 26.6245 16.7395 25.4955 18.6131C25.7477 18.5511 26.1473 18.4659 26.7796 18.3339C27.2722 18.233 27.6564 18.2679 27.9357 18.4037C28.4205 18.6364 28.63 19.0204 28.5952 19.521C28.5796 19.7771 28.4749 20.0293 28.3041 20.2697C28.0209 20.6537 27.4042 21.1386 26.6709 21.48C26.314 21.6429 25.8524 21.771 25.3752 21.8525C24.8942 21.9338 24.3937 21.9687 23.9631 21.9494H23.9204L23.7535 21.9338C23.7496 21.9726 23.7457 22.0114 23.738 22.054C23.733 22.1086 23.728 22.1505 23.724 22.1838ZM23.6719 18.834C23.2335 18.9583 22.6051 19.1872 22.671 20.4595C22.64 20.836 22.5236 21.8949 22.3918 22.9268C22.2831 23.7724 22.1667 24.6258 22.0852 25.1146C21.9688 25.7819 21.7866 26.2629 21.4568 26.6005C21.1309 26.942 20.6344 27.1668 19.9011 27.3258C19.0633 27.5044 18.5357 27.3297 18.1943 27.0389C17.8413 26.7401 17.655 26.3095 17.5386 26.0186C17.4301 25.7393 17.3486 24.9945 17.302 23.9975C17.2556 22.9966 17.2478 21.7668 17.2749 20.5216C17.2752 20.5016 17.2755 20.4817 17.2759 20.4619C17.28 20.2174 17.2838 19.9904 17.2012 19.7535C17.1003 19.478 16.9219 19.2297 16.7008 19.0707C16.4952 18.9233 16.2005 18.8225 15.9482 18.8457C15.9012 18.8499 15.8545 18.8576 15.8087 18.8689C15.8516 18.6985 15.9133 18.5128 15.9836 18.3155C16.0717 18.0678 16.0928 17.9937 16.1191 17.9215C16.1504 17.836 16.189 17.7532 16.3553 17.3871C16.7745 16.4522 17.3098 15.2574 16.7125 12.4836C16.5418 11.7078 16.1073 11.3004 15.5603 11.1297C15.2111 11.0213 14.8232 11.0135 14.4392 11.0716C14.0706 11.1298 13.702 11.2425 13.3764 11.3743C13.1721 11.4593 12.9749 11.5605 12.7866 11.6768C12.9145 10.0552 13.6207 6.19926 17.496 6.26516C20.7081 6.31563 22.5119 8.422 23.3424 9.93093C23.5519 10.3072 23.6954 10.6447 23.7847 10.9007L23.7855 10.9029C23.7929 10.9216 23.8002 10.9404 23.804 10.959C21.907 10.7611 21.1466 11.4207 20.9876 12.4176C20.7626 13.8181 21.9031 15.8624 22.4811 16.8982C22.4945 16.9224 22.5076 16.946 22.5204 16.969C22.6368 17.1785 22.725 17.3373 22.7565 17.4142C22.9852 17.9688 23.2686 18.3258 23.4935 18.6013C23.5079 18.6197 23.522 18.6377 23.5357 18.6551C23.5882 18.7221 23.6349 18.7817 23.6719 18.834ZM15.3818 20.1222C14.9705 20.6459 14.8423 20.8048 13.5661 21.0687C13.3374 21.1152 13.182 21.1656 13.089 21.2122C13.2053 21.2937 13.3839 21.3674 13.5389 21.4063C13.8534 21.4839 14.377 21.5808 14.9316 21.4839C15.4786 21.3907 16.0645 21.1116 16.5416 20.4481C16.6388 20.3124 16.6192 20.1262 16.5689 19.9748C16.5145 19.8274 16.4215 19.6955 16.3129 19.6179C16.2313 19.5597 16.0994 19.5092 16.0064 19.517C15.949 19.5206 15.895 19.5456 15.8551 19.5869C15.6871 19.7561 15.5291 19.9348 15.3818 20.1222ZM12.9027 18.357C12.9953 18.4572 13.0937 18.5517 13.1976 18.6402C12.5753 19.3028 11.9738 19.9845 11.3939 20.6844C11.1803 20.9405 10.9787 21.0957 10.7924 21.1617C10.4511 21.2859 10.0981 21.0996 9.75285 20.7156C9.33783 20.254 8.94573 19.5363 8.59303 18.6983C7.46795 16.0332 6.72704 12.2121 6.68046 11.2772C6.3622 4.86855 12.1931 6.29227 13.9967 6.8858C11.9991 8.84884 12.0881 12.3596 12.0921 12.3867C12.0887 12.4592 12.0938 12.5487 12.1003 12.6622C12.1014 12.6821 12.1026 12.7027 12.1038 12.7241C12.1387 13.2711 12.2007 14.3225 12.0377 15.4901C11.9965 15.7741 11.99 16.062 12.0184 16.3475C12.0921 17.1272 12.418 17.8255 12.9027 18.357ZM23.928 9.60922C23.2996 8.46079 22.1513 6.99843 20.3241 6.19147C21.2008 6.01294 22.6129 5.85778 24.0288 6.26531C25.026 6.55631 26.0267 7.12648 26.8452 8.17008C27.3185 8.77905 27.2292 10.4706 26.6552 12.5459C26.1587 14.3497 25.2897 16.4097 24.0987 18.2835C24.0724 18.2533 24.0459 18.2194 24.0195 18.1856L24.0173 18.1827C24.0057 18.171 23.994 18.1554 23.9824 18.1398C24.6728 17.0071 24.541 15.9132 24.4168 14.8852C24.3664 14.4817 24.3198 14.0938 24.3315 13.7252C24.3464 13.3547 24.3929 13.0372 24.4377 12.7323C24.4398 12.718 24.4419 12.7037 24.444 12.6894C24.51 12.2781 24.5683 11.8863 24.5527 11.4092C24.5527 11.4034 24.5536 11.3976 24.5545 11.3918C24.5555 11.386 24.5564 11.3801 24.5564 11.3743C24.5759 11.2618 24.5332 11.0057 24.4168 10.6799C24.2847 10.3097 24.1212 9.95152 23.928 9.60922ZM12.77 12.5808C12.7666 12.5148 12.7632 12.4488 12.7632 12.3828C12.767 12.3672 13.1393 12.1967 13.6286 11.9948C13.9118 11.8823 14.226 11.7815 14.5364 11.7349C14.8313 11.6921 15.1182 11.6921 15.3625 11.7698C15.6845 11.8706 15.9484 12.1267 16.0531 12.6232C16.6077 15.1876 16.123 16.2659 15.7428 17.1117C15.5491 17.5377 15.4912 17.7019 15.4181 17.9088C15.4002 17.9595 15.3814 18.0128 15.3595 18.0732C15.2785 18.2957 15.2076 18.5084 15.157 18.7138L15.1497 18.7135C15.051 18.7097 14.9489 18.7057 14.8504 18.6905C14.2916 18.6128 13.7835 18.3258 13.3995 17.903C12.991 17.4564 12.7403 16.8882 12.6856 16.2854C12.6623 16.0604 12.6665 15.8238 12.7012 15.5833C12.8759 14.3381 12.8097 13.2479 12.7749 12.6854C12.7736 12.6505 12.7718 12.6157 12.77 12.5808ZM15.5603 12.216C15.3373 12.096 15.0006 12.0505 14.7532 12.1035C14.5805 12.1466 14.5069 12.231 14.5013 12.3317C14.4958 12.4325 14.559 12.5497 14.6602 12.6582C14.7649 12.7668 14.9124 12.8639 15.0791 12.8871H15.0832C15.2538 12.9105 15.413 12.8522 15.5293 12.7746C15.6533 12.6892 15.735 12.5729 15.7463 12.4914C15.758 12.3867 15.6882 12.2897 15.5603 12.216ZM21.6468 12.5226C21.7515 11.8669 22.3451 11.4478 23.8813 11.638C23.8775 11.9754 23.8309 12.2781 23.7803 12.5922L23.7751 12.6269C23.7263 12.954 23.6751 13.2972 23.6601 13.7056C23.6487 14.105 23.6969 14.5157 23.7464 14.9374L23.7493 14.9626C23.8501 15.7928 23.9548 16.6695 23.5515 17.5229C23.4895 17.4143 23.4312 17.2902 23.3731 17.1582C23.3226 17.0381 23.2139 16.8364 23.0665 16.5764C22.5236 15.6027 21.4605 13.6941 21.6468 12.5226ZM24.011 19.4339C24.032 19.4278 24.0523 19.4219 24.0715 19.416C24.8619 20.0128 26.184 19.7665 27.0581 19.6037L27.0663 19.6022C26.8569 19.8039 26.5156 20.0328 26.1082 20.223C25.7124 20.4051 25.0917 20.5294 24.5098 20.5642C24.1762 20.5799 23.8619 20.5721 23.6253 20.5216C23.474 20.4944 23.3732 20.4634 23.3421 20.4324C23.3035 19.6369 23.6685 19.5333 23.9014 19.4673L23.9046 19.4663C23.9407 19.4544 23.9768 19.4439 24.011 19.4339ZM23.1134 12.3945C23.2103 12.2936 23.2686 12.1733 23.2569 12.1035C23.245 12.022 23.1676 11.9639 23.0476 11.9367C22.943 11.9094 22.8032 11.9055 22.6558 11.925C22.5083 11.9482 22.3765 11.9909 22.2834 12.0413C22.1716 12.1053 22.1266 12.1772 22.1278 12.2488C22.1296 12.3535 22.2306 12.4576 22.3686 12.5341C22.4857 12.5971 22.603 12.6198 22.7153 12.6072C22.8597 12.591 22.996 12.5166 23.1134 12.3945ZM26.9111 18.9505C25.1537 19.3152 24.63 19.0864 24.4748 18.9389C25.7977 16.9294 26.7598 14.6794 27.299 12.7238C27.9275 10.4506 27.9779 8.53417 27.3727 7.75836C26.4533 6.58686 25.3321 5.94675 24.215 5.62474C22.5236 5.13604 20.8555 5.37642 19.9438 5.58984C19.9272 5.59354 19.9115 5.59702 19.8965 5.60032C19.8485 5.61091 19.8086 5.61973 19.7731 5.62863C19.7536 5.63642 19.4084 5.73347 19.164 5.79937C18.6558 5.67506 18.101 5.60138 17.5075 5.59374C16.2818 5.57442 15.3351 5.88474 14.6018 6.38512C13.3683 5.92742 5.6135 3.36321 6.00904 11.3081C6.05967 12.2741 6.8199 16.2193 7.97597 18.9582C8.35998 19.8658 8.78683 20.6456 9.25217 21.1655C9.78745 21.7551 10.3735 22.0228 11.0135 21.7939C11.3158 21.6853 11.6187 21.468 11.9094 21.115C12.7282 20.1297 13.4767 19.319 13.7561 19.0241C14.0678 19.1919 14.4067 19.3035 14.7571 19.3537C14.8664 19.3688 14.9765 19.3779 15.0868 19.381C15.0868 19.3966 15.0868 19.412 15.0905 19.4276C15.0086 19.5181 14.9297 19.6112 14.8539 19.7069C14.5591 20.0833 14.4661 20.1996 13.434 20.4129C12.9687 20.5099 12.6894 20.6378 12.5381 20.7815C12.3791 20.9289 12.3287 21.0955 12.3518 21.2664C12.3752 21.4138 12.4528 21.5416 12.5691 21.6503C12.767 21.8365 13.1046 21.9879 13.3762 22.0577C13.7486 22.1508 14.3694 22.2633 15.048 22.1471C15.5602 22.0577 16.0992 21.8405 16.5881 21.3982C16.5804 22.3449 16.596 23.2566 16.6307 24.0285C16.6811 25.0877 16.7744 25.914 16.9179 26.2668C17.0615 26.6237 17.2864 27.1552 17.7597 27.5548C18.2406 27.9585 18.9546 28.2144 20.0407 27.9817C20.9097 27.7954 21.5109 27.5121 21.9416 27.0661C22.3723 26.6201 22.6049 26.0303 22.7447 25.2274C22.826 24.7541 22.9462 23.8852 23.055 23.0084C23.1441 22.31 23.2257 21.6196 23.2799 21.127C23.346 21.1463 23.4197 21.1656 23.4934 21.1812C23.792 21.2393 24.1606 21.2549 24.5446 21.2356C25.2003 21.1968 25.918 21.0493 26.3874 20.8321C27.0197 20.5372 27.5355 20.1415 27.7606 19.8312C27.8577 19.6952 27.9158 19.5634 27.9236 19.4353C27.9391 19.226 27.8499 19.0669 27.6481 18.97C27.493 18.8963 27.2524 18.8807 26.9111 18.9505Z" fill="#1C1B1F"/>
</svg>
