<svg width="32" height="32" viewBox="0 0 32 32" fill="none" xmlns="http://www.w3.org/2000/svg">
<path fill-rule="evenodd" clip-rule="evenodd" d="M16.999 3.59277C16.999 3.04049 16.5513 2.59277 15.999 2.59277C15.4467 2.59277 14.999 3.04049 14.999 3.59277V14.8193C14.999 15.3716 15.4467 15.8193 15.999 15.8193C16.5513 15.8193 16.999 15.3716 16.999 14.8193V3.59277ZM9.45492 5.35113C9.9178 5.04987 10.0488 4.43041 9.74757 3.96753C9.44632 3.50464 8.82686 3.37361 8.36397 3.67487C5.83468 5.32099 3.90504 7.74036 2.86264 10.5724C1.82024 13.4044 1.72091 16.4975 2.57944 19.3906C3.43797 22.2837 5.2084 24.8219 7.62686 26.6269C10.0453 28.4319 12.9823 29.4071 16.0001 29.4071C19.0179 29.4071 21.9549 28.4319 24.3733 26.6269C26.7918 24.8219 28.5622 22.2837 29.4208 19.3906C30.2793 16.4976 30.18 13.4045 29.1376 10.5725C28.0952 7.74041 26.1656 5.32103 23.6363 3.6749C23.1734 3.37364 22.554 3.50467 22.2527 3.96755C21.9515 4.43044 22.0825 5.0499 22.5454 5.35116C24.7133 6.76211 26.3672 8.83584 27.2607 11.2633C28.1542 13.6907 28.2393 16.3419 27.5034 18.8216C26.7675 21.3014 25.25 23.477 23.1771 25.0241C21.1041 26.5712 18.5867 27.4071 16.0001 27.4071C13.4134 27.4071 10.896 26.5712 8.82311 25.0241C6.75017 23.4769 5.23267 21.3014 4.4968 18.8216C3.76092 16.3418 3.84606 13.6907 4.73954 11.2632C5.63301 8.8358 7.28698 6.76207 9.45492 5.35113Z" fill="#111827"/>
</svg>
