<svg width="33" height="33" viewBox="0 0 33 33" fill="none" xmlns="http://www.w3.org/2000/svg">
<path fill-rule="evenodd" clip-rule="evenodd" d="M17.96 4.2829C17.96 3.73061 17.5122 3.2829 16.96 3.2829C16.4077 3.2829 15.96 3.73061 15.96 4.2829V7.1629L6.43994 7.1629C5.88766 7.1629 5.43994 7.61062 5.43994 8.1629V22.4829C5.43994 23.0352 5.88766 23.4829 6.43994 23.4829H11.8392L8.49892 27.6582C8.15391 28.0895 8.22383 28.7188 8.65509 29.0638C9.08635 29.4088 9.71564 29.3389 10.0607 28.9076L13.9007 24.1076C14.0483 23.923 14.12 23.7022 14.1198 23.4829H19.7998C19.7996 23.7022 19.8713 23.923 20.0189 24.1076L23.8589 28.9076C24.2039 29.3389 24.8332 29.4088 25.2645 29.0638C25.6958 28.7188 25.7657 28.0895 25.4207 27.6582L22.0804 23.4829H27.4799C28.0322 23.4829 28.4799 23.0352 28.4799 22.4829V8.1629C28.4799 7.61062 28.0322 7.1629 27.4799 7.1629L17.96 7.1629V4.2829ZM14.1201 15.8029C14.1201 15.2506 13.6724 14.8029 13.1201 14.8029C12.5678 14.8029 12.1201 15.2506 12.1201 15.8029V18.6829C12.1201 19.2352 12.5678 19.6829 13.1201 19.6829C13.6724 19.6829 14.1201 19.2352 14.1201 18.6829V15.8029ZM16.96 12.8829C17.5122 12.8829 17.96 13.3306 17.96 13.8829V18.6829C17.96 19.2352 17.5122 19.6829 16.96 19.6829C16.4077 19.6829 15.96 19.2352 15.96 18.6829V13.8829C15.96 13.3306 16.4077 12.8829 16.96 12.8829ZM21.7998 11.9629C21.7998 11.4106 21.3521 10.9629 20.7998 10.9629C20.2475 10.9629 19.7998 11.4106 19.7998 11.9629V18.6829C19.7998 19.2352 20.2475 19.6829 20.7998 19.6829C21.3521 19.6829 21.7998 19.2352 21.7998 18.6829V11.9629Z" fill="#1C1B1F"/>
</svg>
