<svg width="32" height="32" viewBox="0 0 32 32" fill="none" xmlns="http://www.w3.org/2000/svg">
<path fill-rule="evenodd" clip-rule="evenodd" d="M6.61302 2.00037C6.0234 2.00037 5.54541 2.47835 5.54541 3.06798V16V25.5743C5.54541 26.1266 5.99313 26.5743 6.54541 26.5743C7.09769 26.5743 7.54541 26.1266 7.54541 25.5743V17H12.0398L19.9035 24.8637L16.4748 28.2925C16.0843 28.683 16.0843 29.3162 16.4748 29.7067C16.8654 30.0972 17.4985 30.0972 17.889 29.7067L21.3178 26.278L24.7465 29.7067C25.137 30.0972 25.7702 30.0972 26.1607 29.7067C26.5512 29.3162 26.5512 28.683 26.1607 28.2925L22.732 24.8637L26.1615 21.4342C26.552 21.0437 26.552 20.4105 26.1615 20.02C25.771 19.6295 25.1378 19.6295 24.7473 20.02L21.3178 23.4495L14.7813 16.9131C18.3798 16.3617 21.1359 13.2528 21.1359 9.50017C21.1359 5.35814 17.7781 2.00037 13.6361 2.00037H6.61302ZM13.6361 15H7.54541V4.00037H13.6361C16.6736 4.00037 19.1359 6.46271 19.1359 9.50017C19.1359 12.5376 16.6736 15 13.6361 15Z" fill="#111827"/>
</svg>
