<svg width="33" height="33" viewBox="0 0 33 33" fill="none" xmlns="http://www.w3.org/2000/svg">
<path fill-rule="evenodd" clip-rule="evenodd" d="M8.29484 3.2829C7.70808 3.2829 7.23242 3.75856 7.23242 4.34531V16.2829V25.121C7.23242 25.6733 7.68014 26.121 8.23242 26.121C8.78471 26.121 9.23242 25.6733 9.23242 25.121V17.2829H13.2728L20.4547 24.4648L17.3437 27.5758C16.9531 27.9663 16.9531 28.5995 17.3437 28.99C17.7342 29.3805 18.3674 29.3805 18.7579 28.99L21.8689 25.879L24.9799 28.99C25.3704 29.3805 26.0036 29.3805 26.3941 28.99C26.7846 28.5995 26.7846 27.9663 26.3941 27.5758L23.2831 24.4648L26.3943 21.3537C26.7848 20.9631 26.7848 20.33 26.3943 19.9394C26.0037 19.5489 25.3706 19.5489 24.98 19.9394L21.8689 23.0506L15.9957 17.1773C19.2811 16.601 21.7779 13.7335 21.7779 10.2829C21.7779 6.4169 18.6439 3.2829 14.7779 3.2829H8.29484ZM13.6877 15.2829H14.7779C17.5393 15.2829 19.7779 13.0443 19.7779 10.2829C19.7779 7.52148 17.5393 5.2829 14.7779 5.2829H9.23242V15.2829H13.6863C13.6868 15.2829 13.6872 15.2829 13.6877 15.2829Z" fill="#1C1B1F"/>
</svg>
