<svg width="33" height="33" viewBox="0 0 33 33" fill="none" xmlns="http://www.w3.org/2000/svg">
<path fill-rule="evenodd" clip-rule="evenodd" d="M16.96 3.2829C17.5122 3.2829 17.96 3.73061 17.96 4.2829V7.1629L27.4799 7.1629C28.0322 7.1629 28.4799 7.61062 28.4799 8.1629V22.4829C28.4799 23.0352 28.0322 23.4829 27.4799 23.4829H22.0804L25.4207 27.6582C25.7657 28.0895 25.6958 28.7188 25.2645 29.0638C24.8332 29.4088 24.2039 29.3389 23.8589 28.9076L20.0189 24.1076C19.8713 23.923 19.7996 23.7022 19.7998 23.4829H14.1198C14.12 23.7022 14.0483 23.923 13.9007 24.1076L10.0607 28.9076C9.71564 29.3389 9.08635 29.4088 8.65509 29.0638C8.22383 28.7188 8.15391 28.0895 8.49892 27.6582L11.8392 23.4829H6.43994C5.88766 23.4829 5.43994 23.0352 5.43994 22.4829V8.1629C5.43994 7.61062 5.88766 7.1629 6.43994 7.1629L15.96 7.1629V4.2829C15.96 3.73061 16.4077 3.2829 16.96 3.2829Z" fill="#1C1B1F"/>
</svg>
