<svg width="32" height="32" viewBox="0 0 32 32" fill="none" xmlns="http://www.w3.org/2000/svg">
<path fill-rule="evenodd" clip-rule="evenodd" d="M16.9995 1.00092C16.9995 0.448631 16.5518 0.000915527 15.9995 0.000915527C15.4472 0.000915527 14.9995 0.448631 14.9995 1.00092V4.60069C14.9995 4.6007 14.9995 4.6007 14.9995 4.60071H2.60059C2.0483 4.60071 1.60059 5.04842 1.60059 5.6007V23.9994C1.60059 24.5517 2.0483 24.9994 2.60058 24.9994H9.91947L5.61952 30.3744C5.27451 30.8056 5.34443 31.4349 5.77569 31.7799C6.20695 32.1249 6.83625 32.055 7.18126 31.6238L11.981 25.6241C12.1286 25.4396 12.2003 25.2187 12.2001 24.9994H19.7993C19.7991 25.2187 19.8708 25.4396 20.0184 25.6241L24.8181 31.6238C25.1631 32.055 25.7924 32.1249 26.2237 31.7799C26.655 31.4349 26.7249 30.8056 26.3799 30.3744L22.0799 24.9994H29.3988C29.9511 24.9994 30.3988 24.5517 30.3988 23.9994V5.60071C30.3988 5.04842 29.9511 4.60071 29.3988 4.60071H16.9995C16.9995 4.6007 16.9995 4.6007 16.9995 4.60069V1.00092ZM12.2002 15.4C12.2002 14.8477 11.7525 14.4 11.2002 14.4C10.6479 14.4 10.2002 14.8477 10.2002 15.4V18.9998C10.2002 19.5521 10.6479 19.9998 11.2002 19.9998C11.7525 19.9998 12.2002 19.5521 12.2002 18.9998V15.4ZM15.9995 12.0001C16.5518 12.0001 16.9995 12.4478 16.9995 13.0001V18.9997C16.9995 19.552 16.5518 19.9997 15.9995 19.9997C15.4472 19.9997 14.9995 19.552 14.9995 18.9997V13.0001C14.9995 12.4478 15.4472 12.0001 15.9995 12.0001ZM21.7993 10.6003C21.7993 10.048 21.3516 9.60027 20.7993 9.60027C20.247 9.60027 19.7993 10.048 19.7993 10.6003V18.9997C19.7993 19.552 20.247 19.9997 20.7993 19.9997C21.3516 19.9997 21.7993 19.552 21.7993 18.9997V10.6003Z" fill="#111827"/>
</svg>
