<svg width="33" height="33" viewBox="0 0 33 33" fill="none" xmlns="http://www.w3.org/2000/svg">
<path fill-rule="evenodd" clip-rule="evenodd" d="M8.27979 6.97937C8.27979 6.42709 8.7275 5.97937 9.27979 5.97937H24.6398C25.1921 5.97937 25.6398 6.42709 25.6398 6.97937V11.7794L27.96 11.7794C28.5122 11.7794 28.96 12.2271 28.96 12.7794V22.2994C28.96 22.8516 28.5122 23.2994 27.96 23.2994H25.7442C25.7089 23.2994 25.6741 23.2975 25.6398 23.294V25.5864C25.6398 26.1387 25.1921 26.5864 24.6398 26.5864H9.27979C8.7275 26.5864 8.27979 26.1387 8.27979 25.5864V23.2975C8.25972 23.2987 8.23949 23.2994 8.21912 23.2994H5.95996C5.40768 23.2994 4.95996 22.8516 4.95996 22.2994V12.7794C4.95996 12.2271 5.40768 11.7794 5.95996 11.7794H8.27979V6.97937ZM10.2798 7.97937V10.7794H23.6398V7.97937H10.2798ZM25.6007 16.0994C25.6007 16.8947 24.956 17.5394 24.1607 17.5394C23.3654 17.5394 22.7207 16.8947 22.7207 16.0994C22.7207 15.3041 23.3654 14.6594 24.1607 14.6594C24.956 14.6594 25.6007 15.3041 25.6007 16.0994ZM10.2798 24.5864V21.4194H23.6398V24.5864H10.2798Z" fill="#1C1B1F"/>
</svg>
