<svg width="32" height="32" viewBox="0 0 32 32" fill="none" xmlns="http://www.w3.org/2000/svg">
<path fill-rule="evenodd" clip-rule="evenodd" d="M4.75977 3.59534C4.75977 3.04305 5.20748 2.59534 5.75977 2.59534H26.2398C26.7921 2.59534 27.2398 3.04305 27.2398 3.59534V9.99532H31C31.5523 9.99532 32 10.443 32 10.9953V24.3553C32 24.9076 31.5523 25.3553 31 25.3553H27.3789C27.3317 25.3553 27.2852 25.3521 27.2398 25.3457V28.4047C27.2398 28.957 26.7921 29.4047 26.2398 29.4047H5.75977C5.20748 29.4047 4.75977 28.957 4.75977 28.4047V25.3521C4.73308 25.3542 4.70611 25.3553 4.67887 25.3553H0.999999C0.447714 25.3553 0 24.9076 0 24.3553V10.9953C0 10.443 0.447715 9.99532 1 9.99532H4.75977V3.59534ZM6.75977 4.59534V8.99534H25.2398V4.59534H6.75977ZM27.521 15.7553C27.521 16.8157 26.6614 17.6753 25.601 17.6753C24.5406 17.6753 23.681 16.8157 23.681 15.7553C23.681 14.6949 24.5406 13.8353 25.601 13.8353C26.6614 13.8353 27.521 14.6949 27.521 15.7553ZM6.75977 27.4047V22.5153H25.2398V27.4047H6.75977Z" fill="#111827"/>
</svg>
