<svg width="32" height="32" viewBox="0 0 32 32" fill="none" xmlns="http://www.w3.org/2000/svg">
<path fill-rule="evenodd" clip-rule="evenodd" d="M1.69238 0.00012207C1.1401 0.00012207 0.692383 0.447837 0.692383 1.00012V5.76931C0.692383 6.3216 1.1401 6.76931 1.69238 6.76931H4.07781V21.4614H1.69238C1.1401 21.4614 0.692383 21.9091 0.692383 22.4614C0.692383 23.0137 1.1401 23.4614 1.69238 23.4614H15V27.2306C15 27.3024 15.0076 27.3724 15.022 27.4399C14.1928 27.8133 13.6156 28.6469 13.6156 29.6152C13.6156 30.9322 14.6832 31.9998 16.0002 31.9998C17.3172 31.9998 18.3848 30.9322 18.3848 29.6152C18.3848 28.6467 17.8074 27.8131 16.9781 27.4397C16.9925 27.3723 17 27.3023 17 27.2306V23.4614H30.3075C30.8598 23.4614 31.3075 23.0137 31.3075 22.4614C31.3075 21.9091 30.8598 21.4614 30.3075 21.4614H27.9238V6.76931H30.3075C30.8598 6.76931 31.3075 6.3216 31.3075 5.76931V1.00012C31.3075 0.447837 30.8598 0.00012207 30.3075 0.00012207H1.69238ZM2.69238 4.76931V2.00012H29.3075V4.76931H2.69238ZM11.8345 13.9168C11.8345 13.3645 11.3868 12.9168 10.8345 12.9168C10.2822 12.9168 9.83451 13.3645 9.83451 13.9168V16.4994C9.83451 17.0517 10.2822 17.4994 10.8345 17.4994C11.3868 17.4994 11.8345 17.0517 11.8345 16.4994V13.9168ZM16.001 11.6251C16.5533 11.6251 17.001 12.0728 17.001 12.6251V16.5001C17.001 17.0524 16.5533 17.5001 16.001 17.5001C15.4487 17.5001 15.001 17.0524 15.001 16.5001V12.6251C15.001 12.0728 15.4487 11.6251 16.001 11.6251ZM22.1679 11.3335C22.1679 10.7812 21.7202 10.3335 21.1679 10.3335C20.6156 10.3335 20.1679 10.7812 20.1679 11.3335V16.5001C20.1679 17.0524 20.6156 17.5001 21.1679 17.5001C21.7202 17.5001 22.1679 17.0524 22.1679 16.5001V11.3335Z" fill="#111827"/>
</svg>
