<svg width="29" height="33" viewBox="0 0 29 33" fill="none" xmlns="http://www.w3.org/2000/svg">
<path fill-rule="evenodd" clip-rule="evenodd" d="M14.139 4.80392C15.3275 4.80392 16.291 3.84045 16.291 2.65196C16.291 1.46346 15.3275 0.5 14.139 0.5C12.9505 0.5 11.9871 1.46346 11.9871 2.65196C11.9871 3.84045 12.9505 4.80392 14.139 4.80392ZM14.139 32.5C15.3275 32.5 16.291 31.5365 16.291 30.348C16.291 29.1595 15.3275 28.1961 14.139 28.1961C12.9505 28.1961 11.9871 29.1595 11.9871 30.348C11.9871 31.5365 12.9505 32.5 14.139 32.5ZM28.3154 9.5506C28.3154 10.7391 27.3519 11.7026 26.1634 11.7026C24.9749 11.7026 24.0115 10.7391 24.0115 9.5506C24.0115 8.3621 24.9749 7.39864 26.1634 7.39864C27.3519 7.39864 28.3154 8.3621 28.3154 9.5506ZM2.15196 11.7026C3.34045 11.7026 4.30392 10.7391 4.30392 9.5506C4.30392 8.3621 3.34045 7.39864 2.15196 7.39864C0.963464 7.39864 0 8.3621 0 9.5506C0 10.7391 0.963464 11.7026 2.15196 11.7026ZM28.3154 23.3986C28.3154 24.5871 27.3519 25.5505 26.1634 25.5505C24.9749 25.5505 24.0115 24.5871 24.0115 23.3986C24.0115 22.2101 24.9749 21.2466 26.1634 21.2466C27.3519 21.2466 28.3154 22.2101 28.3154 23.3986ZM2.15196 25.5505C3.34045 25.5505 4.30392 24.5871 4.30392 23.3986C4.30392 22.2101 3.34045 21.2466 2.15196 21.2466C0.963464 21.2466 0 22.2101 0 23.3986C0 24.5871 0.963464 25.5505 2.15196 25.5505ZM16.2587 5.08656C16.7652 4.64527 17.1326 4.04853 17.2867 3.37069L23.9391 7.21144C23.4537 7.67317 23.1118 8.28442 22.9874 8.97136L16.2587 5.08656ZM25.1635 20.3286C25.4783 20.2261 25.8144 20.1707 26.1635 20.1707C26.5125 20.1707 26.8486 20.2261 27.1635 20.3286V12.6207C26.8486 12.7232 26.5125 12.7786 26.1635 12.7786C25.8144 12.7786 25.4783 12.7232 25.1635 12.6207V20.3286ZM10.9582 29.796C11.0769 29.1073 11.4138 28.4932 11.8952 28.0276L5.27788 24.2071C5.10456 24.8791 4.72022 25.4664 4.19973 25.894L10.9582 29.796ZM24.1002 25.8812L17.32 29.7957C17.2012 29.107 16.8642 28.493 16.3828 28.0274L23.0328 24.188C23.202 24.8613 23.5827 25.4506 24.1002 25.8812ZM2.15202 20.1707C1.78896 20.1707 1.4399 20.2306 1.1142 20.3411V12.6081C1.4399 12.7186 1.78896 12.7786 2.15202 12.7786C2.48713 12.7786 2.8103 12.7275 3.1142 12.6327V20.3165C2.8103 20.2217 2.48713 20.1707 2.15202 20.1707ZM12.0193 5.08638L5.32449 8.95162C5.19582 8.26598 4.85038 7.65677 4.36204 7.19788L10.9914 3.37042C11.1455 4.04827 11.5129 4.64504 12.0193 5.08638ZM7.36898 12.5543C7.30061 12.5163 7.30051 12.4179 7.36881 12.3797L13.7694 8.79811C13.7997 8.78113 13.8367 8.78113 13.8671 8.79811L20.3256 12.4121C20.3936 12.4502 20.3939 12.5479 20.3262 12.5864L14.0628 16.1446C14.0404 16.1574 14.014 16.1605 13.9886 16.1562C13.9614 16.1516 13.9334 16.1492 13.9049 16.1492C13.8919 16.1492 13.8789 16.1497 13.8661 16.1507C13.8442 16.1524 13.8221 16.1487 13.8029 16.138L7.36898 12.5543ZM21.0405 13.3306C21.1072 13.2928 21.1899 13.3409 21.1899 13.4176V21.0851C21.1899 21.1213 21.1703 21.1547 21.1387 21.1724L14.5538 24.8571C14.4871 24.8944 14.4049 24.8463 14.4049 24.7699V17.1586C14.4049 17.1226 14.4243 17.0894 14.4556 17.0716L21.0405 13.3306ZM13.4049 24.8669C13.4049 24.9433 13.3228 24.9915 13.2561 24.9542L6.49771 21.1724C6.46612 21.1547 6.44655 21.1213 6.44655 21.0851V13.3554C6.44655 13.2791 6.52855 13.2309 6.59521 13.268L13.3536 17.0324C13.3853 17.0501 13.4049 17.0835 13.4049 17.1198V24.8669Z" fill="#111827"/>
</svg>
