<svg width="33" height="33" viewBox="0 0 33 33" fill="none" xmlns="http://www.w3.org/2000/svg">
<path fill-rule="evenodd" clip-rule="evenodd" d="M5.88281 3.2829C5.33053 3.2829 4.88281 3.73061 4.88281 4.2829V7.97521C4.88281 8.52749 5.33053 8.97521 5.88281 8.97521H7.72949V19.8983H5.88281C5.33053 19.8983 4.88281 20.346 4.88281 20.8983C4.88281 21.4505 5.33053 21.8983 5.88281 21.8983H15.96V24.5906C15.96 24.6844 15.9729 24.7752 15.997 24.8613C15.4672 25.1857 15.1138 25.77 15.1138 26.4367C15.1138 27.4563 15.9403 28.2829 16.9599 28.2829C17.9795 28.2829 18.8061 27.4563 18.8061 26.4367C18.8061 25.77 18.4526 25.1858 17.9229 24.8613C17.947 24.7752 17.96 24.6844 17.96 24.5906V21.8983H28.0367C28.5889 21.8983 29.0367 21.4505 29.0367 20.8983C29.0367 20.346 28.5889 19.8983 28.0367 19.8983H26.191V8.97521H28.0367C28.5889 8.97521 29.0367 8.52749 29.0367 7.97521V4.2829C29.0367 3.73061 28.5889 3.2829 28.0367 3.2829H5.88281ZM6.88281 6.97521V5.2829H27.0367V6.97521H6.88281ZM13.9604 14.2829C13.9604 13.7306 13.5127 13.2829 12.9604 13.2829C12.4082 13.2829 11.9604 13.7306 11.9604 14.2829V16.2829C11.9604 16.8352 12.4082 17.2829 12.9604 17.2829C13.5127 17.2829 13.9604 16.8352 13.9604 16.2829V14.2829ZM16.9604 12.2829C17.5127 12.2829 17.9604 12.7306 17.9604 13.2829V16.2829C17.9604 16.8352 17.5127 17.2829 16.9604 17.2829C16.4082 17.2829 15.9604 16.8352 15.9604 16.2829V13.2829C15.9604 12.7306 16.4082 12.2829 16.9604 12.2829ZM21.9604 12.2829C21.9604 11.7306 21.5127 11.2829 20.9604 11.2829C20.4082 11.2829 19.9604 11.7306 19.9604 12.2829V16.2829C19.9604 16.8352 20.4082 17.2829 20.9604 17.2829C21.5127 17.2829 21.9604 16.8352 21.9604 16.2829V12.2829Z" fill="#1C1B1F"/>
</svg>
