<svg width="33" height="33" viewBox="0 0 33 33" fill="none" xmlns="http://www.w3.org/2000/svg">
<path fill-rule="evenodd" clip-rule="evenodd" d="M5.88281 3.7829C5.33053 3.7829 4.88281 4.23061 4.88281 4.7829V8.47521C4.88281 9.02749 5.33053 9.47521 5.88281 9.47521H7.729V20.3983H5.88281C5.33053 20.3983 4.88281 20.846 4.88281 21.3983C4.88281 21.9505 5.33053 22.3983 5.88281 22.3983H15.96V25.0906C15.96 25.1844 15.9729 25.2752 15.997 25.3613C15.4672 25.6857 15.1138 26.27 15.1138 26.9367C15.1138 27.9563 15.9403 28.7829 16.9599 28.7829C17.9795 28.7829 18.8061 27.9563 18.8061 26.9367C18.8061 26.27 18.4526 25.6858 17.9229 25.3613C17.947 25.2752 17.96 25.1844 17.96 25.0906V22.3983H28.0367C28.5889 22.3983 29.0367 21.9505 29.0367 21.3983C29.0367 20.846 28.5889 20.3983 28.0367 20.3983H26.1905V9.47521H28.0367C28.5889 9.47521 29.0367 9.02749 29.0367 8.47521V4.7829C29.0367 4.23061 28.5889 3.7829 28.0367 3.7829H5.88281ZM6.88281 7.47521V5.7829H27.0367V7.47521H6.88281Z" fill="#1C1B1F"/>
</svg>
