<svg width="32" height="32" viewBox="0 0 32 32" fill="none" xmlns="http://www.w3.org/2000/svg">
<path fill-rule="evenodd" clip-rule="evenodd" d="M24.9913 2.00108H26.1992C26.7515 2.00108 27.1992 1.55337 27.1992 1.00108C27.1992 0.448798 26.7515 0.0010829 26.1992 0.0010829H23.8188C23.8067 0.000860334 23.7945 0.000859142 23.7823 0.0010829H11.0871C10.6913 0.0010829 10.3327 0.234549 10.1726 0.59653C10.0125 0.958511 10.0809 1.38088 10.3472 1.67376L26.1215 19.0255C26.421 19.355 26.9023 19.4467 27.302 19.2505C27.7018 19.0544 27.9236 18.6175 27.8463 18.179L24.9913 2.00108ZM5.34059 0.328349C4.96908 -0.0803084 4.33664 -0.110425 3.92798 0.261082C3.51932 0.632589 3.4892 1.26504 3.86071 1.67369L7.55016 5.73209L4.96175 20.3998H3.40088C2.84859 20.3998 2.40088 20.8475 2.40088 21.3998C2.40088 21.952 2.84859 22.3998 3.40088 22.3998H5.78205C5.79532 22.4 5.80855 22.4 5.82174 22.3998H15.6004V30.9991C15.6004 31.5514 16.0481 31.9991 16.6004 31.9991C17.1527 31.9991 17.6004 31.5514 17.6004 30.9991V22.3998H22.7026L27.8592 28.072C28.2307 28.4807 28.8631 28.5108 29.2718 28.1393C29.6804 27.7678 29.7106 27.1353 29.339 26.7267L23.8933 20.7363C23.8905 20.7332 23.8878 20.7302 23.885 20.7271L9.36019 4.74982C9.35781 4.74721 9.35542 4.74461 9.35303 4.74203L5.34059 0.328349Z" fill="#111827"/>
</svg>
