<svg width="32" height="32" viewBox="0 0 32 32" fill="none" xmlns="http://www.w3.org/2000/svg">
<path fill-rule="evenodd" clip-rule="evenodd" d="M31.707 10.3016C32.0976 10.6922 32.0976 11.3255 31.707 11.716L21.4658 21.9545C23.3787 24.4897 23.1801 28.1109 20.8699 30.4205L19.5826 31.7074C19.1921 32.0978 18.5591 32.0978 18.1686 31.7074L9.5642 23.1052L2.65454 30.0131C2.26397 30.4036 1.6308 30.4035 1.24033 30.0129C0.849855 29.6224 0.849937 28.9892 1.24051 28.5987L8.14981 21.6912L0.293474 13.8369C-0.0971732 13.4464 -0.0971737 12.8131 0.293473 12.4225L1.58035 11.136C3.8876 8.82934 7.50344 8.6283 10.0388 10.5329L20.2815 0.292801C20.672 -0.0976004 21.305 -0.0976004 21.6955 0.292801L31.707 10.3016Z" fill="#111827"/>
</svg>
