<svg width="33" height="33" viewBox="0 0 33 33" fill="none" xmlns="http://www.w3.org/2000/svg">
<path fill-rule="evenodd" clip-rule="evenodd" d="M28.2527 11.9267C28.6434 12.3172 28.6434 12.9505 28.2527 13.3411L20.9559 20.636C22.3544 22.4894 22.2091 25.1368 20.5202 26.8253L19.7693 27.576C19.3788 27.9664 18.7457 27.9664 18.3552 27.576L12.4449 21.6672L7.39305 26.7177C7.00247 27.1082 6.36931 27.1081 5.97884 26.7175C5.58836 26.327 5.58845 25.6938 5.97902 25.3033L11.0305 20.2532L5.6675 14.8916C5.27685 14.5011 5.27685 13.8677 5.6675 13.4772L6.41807 12.7268C8.10485 11.0405 10.7483 10.8935 12.6018 12.2859L19.8999 4.9897C20.2904 4.5993 20.9235 4.5993 21.314 4.9897L28.2527 11.9267Z" fill="#1C1B1F"/>
</svg>
