<svg width="33" height="33" viewBox="0 0 33 33" fill="none" xmlns="http://www.w3.org/2000/svg">
<path fill-rule="evenodd" clip-rule="evenodd" d="M7.04939 4.95805C6.65887 4.56753 6.0257 4.56753 5.63518 4.95805C5.24465 5.34858 5.24465 5.98174 5.63518 6.37227L10.6965 11.4336C9.19708 11.1336 7.58033 11.5647 6.41792 12.7268L5.66734 13.4772C5.2767 13.8677 5.2767 14.5011 5.66734 14.8916L11.1066 20.3295C10.9619 20.3767 10.8257 20.4579 10.7107 20.5729L5.97902 25.3033C5.58845 25.6938 5.58836 26.327 5.97884 26.7175C6.36931 27.1081 7.00247 27.1082 7.39305 26.7177L12.1247 21.9873C12.2399 21.8721 12.3211 21.7358 12.3684 21.5909L18.3551 27.576C18.7456 27.9664 19.3786 27.9664 19.7691 27.576L20.5201 26.8253C21.6815 25.6641 22.1129 24.0494 21.8143 22.5514L26.8706 27.6077C27.2611 27.9982 27.8943 27.9982 28.2848 27.6077C28.6753 27.2171 28.6753 26.584 28.2848 26.1934L7.04939 4.95805ZM21.3138 4.98973L28.2526 11.9267C28.6433 12.3172 28.6433 12.9505 28.2526 13.3411L24.6836 16.9092C24.286 17.3067 23.639 17.2984 23.2517 16.8909L16.4901 9.77687C16.1164 9.38369 16.1243 8.76426 16.5079 8.38075L19.8998 4.98973C20.2903 4.59933 20.9233 4.59933 21.3138 4.98973Z" fill="#1C1B1F"/>
</svg>
