<svg width="32" height="32" viewBox="0 0 32 32" fill="none" xmlns="http://www.w3.org/2000/svg">
<path fill-rule="evenodd" clip-rule="evenodd" d="M6.40026 0.000915527C5.84798 0.000915527 5.40026 0.448631 5.40026 1.00092C5.40026 1.5532 5.84798 2.00092 6.40026 2.00092H8.62374L5.3769 20.3997H2.80078C2.2485 20.3997 1.80078 20.8474 1.80078 21.3997C1.80078 21.952 2.2485 22.3997 2.80078 22.3997H15.0003V30.9991C15.0003 31.5514 15.4481 31.9991 16.0003 31.9991C16.5526 31.9991 17.0003 31.5514 17.0003 30.9991V22.3997H29.1991C29.7514 22.3997 30.1991 21.952 30.1991 21.3997C30.1991 20.8474 29.7514 20.3997 29.1991 20.3997H26.6226L23.3758 2.00092H25.5991C26.1514 2.00092 26.5991 1.5532 26.5991 1.00092C26.5991 0.448631 26.1514 0.000915527 25.5991 0.000915527H6.40026Z" fill="#111827"/>
</svg>
