<svg width="33" height="33" viewBox="0 0 33 33" fill="none" xmlns="http://www.w3.org/2000/svg">
<path fill-rule="evenodd" clip-rule="evenodd" d="M24.3917 5.28288H25.1197C25.672 5.28288 26.1197 4.83517 26.1197 4.28288C26.1197 3.7306 25.672 3.28288 25.1197 3.28288H23.2192C23.2071 3.28266 23.1949 3.28266 23.1827 3.28288H13.0293C12.6335 3.28288 12.2749 3.51635 12.1148 3.87833C11.9547 4.24031 12.0231 4.66267 12.2894 4.95556L24.9096 18.8378C25.2092 19.1673 25.6904 19.2591 26.0902 19.0629C26.4899 18.8667 26.7117 18.4299 26.6344 17.9914L24.3917 5.28288ZM8.57979 3.61022C8.20828 3.20156 7.57584 3.17144 7.16718 3.54295C6.75852 3.91446 6.7284 4.5469 7.09991 4.95556L9.98557 8.12979L7.96091 19.6029H6.87988C6.3276 19.6029 5.87988 20.0506 5.87988 20.6029C5.87988 21.1552 6.3276 21.6029 6.87988 21.6029H8.78154C8.79459 21.6031 8.80759 21.6031 8.82056 21.6029H16.4399V28.2829C16.4399 28.8352 16.8877 29.2829 17.4399 29.2829C17.9922 29.2829 18.4399 28.8352 18.4399 28.2829V21.6029H22.2338L26.2999 26.0756C26.6714 26.4842 27.3039 26.5143 27.7125 26.1428C28.1212 25.7713 28.1513 25.1389 27.7798 24.7302L23.4219 19.9366C23.42 19.9344 23.4181 19.9323 23.4162 19.9302L11.7956 7.14756C11.7942 7.14604 11.7928 7.14453 11.7914 7.14302L8.57979 3.61022Z" fill="#1C1B1F"/>
</svg>
