<svg width="32" height="32" viewBox="0 0 32 32" fill="none" xmlns="http://www.w3.org/2000/svg">
<path fill-rule="evenodd" clip-rule="evenodd" d="M21.6954 0.293046L31.7066 10.3016C32.0973 10.6922 32.0973 11.3255 31.7066 11.716L26.2979 17.1234C25.9003 17.5208 25.2534 17.5126 24.8661 17.1051L15.1104 6.841C14.7367 6.44782 14.7446 5.8284 15.1282 5.44488L20.2814 0.293045C20.6719 -0.0973565 21.3049 -0.097356 21.6954 0.293046ZM9.1268 23.5424C9.2919 23.3773 9.38723 23.1689 9.41277 22.9537L18.1682 31.7069C18.5587 32.0973 19.1917 32.0973 19.5822 31.7069L20.8694 30.42C22.6415 28.6484 23.1711 26.105 22.4583 23.872L29.8164 31.2301C30.2069 31.6206 30.84 31.6206 31.2306 31.2301C31.6211 30.8396 31.6211 30.2064 31.2306 29.8159L2.18448 0.769778C1.79395 0.379254 1.16079 0.379254 0.770264 0.769778C0.37974 1.1603 0.37974 1.79347 0.770264 2.18399L8.13545 9.54918C5.90061 8.83392 3.35385 9.36283 1.58031 11.1359L0.293474 12.4224C-0.097173 12.813 -0.0971739 13.4463 0.293473 13.8368L8.30095 21.8422C8.08599 21.8678 7.87774 21.963 7.71277 22.128L1.24074 28.5983C0.850162 28.9888 0.850079 29.6219 1.24055 30.0125C1.63103 30.4031 2.26419 30.4032 2.65477 30.0127L9.1268 23.5424Z" fill="#111827"/>
</svg>
