<svg width="32" height="33" viewBox="0 0 32 33" fill="none" xmlns="http://www.w3.org/2000/svg">
<path fill-rule="evenodd" clip-rule="evenodd" d="M22.9292 6.90006C23.2057 6.31812 23.3604 5.66713 23.3604 4.98C23.3604 2.50576 21.3546 0.5 18.8804 0.5C16.4062 0.5 14.4004 2.50576 14.4004 4.98C14.4004 5.66713 14.5551 6.31812 14.8315 6.90006H8.08008C6.97551 6.90006 6.08008 7.7955 6.08008 8.90007V15.4055C5.67457 15.2848 5.24501 15.2201 4.80031 15.2201C2.32608 15.2201 0.320312 17.2258 0.320312 19.7001C0.320312 22.1743 2.32608 24.1801 4.80031 24.1801C5.24501 24.1801 5.67457 24.1153 6.08008 23.9946V30.5001C6.08008 31.6046 6.97551 32.5001 8.08008 32.5001H29.6801C30.7846 32.5001 31.6801 31.6046 31.6801 30.5001V23.9947C31.2746 24.1153 30.8452 24.1801 30.4006 24.1801C27.9263 24.1801 25.9206 22.1743 25.9206 19.7001C25.9206 17.2258 27.9263 15.2201 30.4006 15.2201C30.8452 15.2201 31.2746 15.2848 31.6801 15.4054V8.90007C31.6801 7.7955 30.7846 6.90006 29.6801 6.90006H22.9292Z" fill="#111827"/>
</svg>
