<svg width="33" height="33" viewBox="0 0 33 33" fill="none" xmlns="http://www.w3.org/2000/svg">
<path fill-rule="evenodd" clip-rule="evenodd" d="M22.1564 9.08296C22.3637 8.64652 22.4797 8.15829 22.4797 7.64296C22.4797 5.78728 20.9754 4.28296 19.1197 4.28296C17.264 4.28296 15.7597 5.78728 15.7597 7.64296C15.7597 8.15829 15.8757 8.64652 16.0831 9.08296H11.5197C10.4151 9.08296 9.51971 9.97839 9.51971 11.083V15.4621C9.21553 15.3716 8.89329 15.323 8.55971 15.323C6.70403 15.323 5.19971 16.8273 5.19971 18.683C5.19971 20.5386 6.70403 22.043 8.55971 22.043C8.89329 22.043 9.21553 21.9943 9.51971 21.9038V26.283C9.51971 27.3875 10.4151 28.283 11.5197 28.283H26.7197C27.8243 28.283 28.7197 27.3875 28.7197 26.283V21.9038C28.4155 21.9943 28.0933 22.043 27.7597 22.043C25.904 22.043 24.3997 20.5386 24.3997 18.683C24.3997 16.8273 25.904 15.323 27.7597 15.323C28.0933 15.323 28.4155 15.3716 28.7197 15.4621V11.083C28.7197 9.97839 27.8243 9.08296 26.7197 9.08296H22.1564Z" fill="#1C1B1F"/>
</svg>
