<svg width="32" height="32" viewBox="0 0 32 32" fill="none" xmlns="http://www.w3.org/2000/svg">
<path fill-rule="evenodd" clip-rule="evenodd" d="M22.9292 6.40006C23.2057 5.81812 23.3604 5.16713 23.3604 4.48C23.3604 2.00576 21.3546 0 18.8804 0C16.4062 0 14.4004 2.00576 14.4004 4.48C14.4004 5.16713 14.5551 5.81812 14.8315 6.40006H8.08008C6.97551 6.40006 6.08008 7.2955 6.08008 8.40007V14.9055C5.67457 14.7848 5.24501 14.7201 4.80031 14.7201C2.32608 14.7201 0.320312 16.7258 0.320312 19.2001C0.320312 21.6743 2.32608 23.6801 4.80031 23.6801C5.24501 23.6801 5.67457 23.6153 6.08008 23.4946V30.0001C6.08008 31.1046 6.97551 32.0001 8.08008 32.0001H29.6801C30.7846 32.0001 31.6801 31.1046 31.6801 30.0001V23.4947C31.2746 23.6153 30.8452 23.6801 30.4006 23.6801C27.9263 23.6801 25.9206 21.6743 25.9206 19.2001C25.9206 16.7258 27.9263 14.7201 30.4006 14.7201C30.8452 14.7201 31.2746 14.7848 31.6801 14.9054V8.40007C31.6801 7.2955 30.7846 6.40006 29.6801 6.40006H22.9292Z" fill="#111827"/>
</svg>
