<svg width="33" height="33" viewBox="0 0 33 33" fill="none" xmlns="http://www.w3.org/2000/svg">
<path d="M28.52 13.3095C28.1075 11.6542 27.3254 10.406 25.6593 10.406H23.5112V12.9453C23.5112 14.9166 21.8398 16.5773 19.9327 16.5773H14.2115C12.6473 16.5773 11.3509 17.9165 11.3509 19.4861V24.9395C11.3509 26.493 12.7008 27.4037 14.2115 27.8483C16.0221 28.3787 17.7632 28.4751 19.9327 27.8483C21.3738 27.4305 22.7934 26.5895 22.7934 24.9395V22.7592H17.0775V22.0307H25.6593C27.3254 22.0307 27.9414 20.8682 28.52 19.1272C29.1199 17.3326 29.0932 15.6077 28.52 13.3095ZM20.2917 24.211C20.8863 24.211 21.3684 24.6984 21.3684 25.2984C21.3684 25.9038 20.8863 26.3913 20.2917 26.3913C19.7024 26.3913 19.2149 25.8984 19.2149 25.2984C19.2203 24.6931 19.7024 24.211 20.2917 24.211ZM13.949 15.8594H19.6702C21.2613 15.8594 22.5309 14.547 22.5309 12.9506V7.49185C22.5309 5.93833 21.2238 4.77587 19.6702 4.51338C17.7525 4.19732 15.6686 4.21339 13.949 4.51874C11.5276 4.94729 11.0884 5.84191 11.0884 7.49721V9.6775H16.815V10.406H8.94023C7.27421 10.406 5.81712 11.4078 5.36177 13.3095C4.83679 15.4898 4.81536 16.8505 5.36177 19.1272C5.7689 20.82 6.73852 22.0307 8.40453 22.0307H10.3705V19.4165C10.3705 17.5255 12.0044 15.8594 13.949 15.8594ZM13.5901 8.2204C12.9955 8.2204 12.5133 7.73292 12.5133 7.13294C12.5187 6.5276 12.9955 6.04011 13.5901 6.04011C14.1793 6.04011 14.6668 6.53296 14.6668 7.13294C14.6668 7.73292 14.1847 8.2204 13.5901 8.2204Z" fill="#1C1B1F"/>
</svg>
