<svg width="32" height="33" viewBox="0 0 32 33" fill="none" xmlns="http://www.w3.org/2000/svg">
<g clip-path="url(#clip0_294_454)">
<path fill-rule="evenodd" clip-rule="evenodd" d="M12.5435 4.30899C14.1294 2.73608 15.6671 1.21095 16.5951 0.282959L16.5096 6.09573C15.8211 6.78423 14.7189 7.88789 13.5995 9.00883C12.4445 10.1653 11.2712 11.3403 10.5149 12.0966C8.94083 13.5207 7.70372 15.2326 7.24154 17.2906C6.77936 19.3487 7.05672 21.5038 8.02496 23.3778C8.9932 25.2518 10.5905 26.7249 12.5365 27.5387C14.4825 28.3525 16.653 28.455 18.667 27.8282C20.681 27.2014 22.41 25.8853 23.5506 24.1109C24.6911 22.3366 25.1703 20.2172 24.9041 18.1247C24.6379 16.0322 23.6433 14.1004 22.0949 12.668L24.8445 9.69547C27.0915 11.7739 28.5347 14.5773 28.921 17.6137C29.3073 20.6501 28.6119 23.7256 26.9568 26.3004C25.3018 28.8752 22.7929 30.785 19.8703 31.6946C16.9477 32.6041 13.7981 32.4554 10.9742 31.2745C8.15033 30.0935 5.83252 27.9559 4.4275 25.2365C3.02248 22.5172 2.61999 19.3899 3.29067 16.4034C3.96134 13.4169 5.7022 10.9823 7.99364 8.83077C9.11366 7.71075 10.8559 5.98282 12.5435 4.30899ZM20.477 10.2145C19.3202 10.2145 18.3825 9.27671 18.3825 8.11993C18.3825 6.96315 19.3202 6.02539 20.477 6.02539C21.6338 6.02539 22.5715 6.96315 22.5715 8.11993C22.5715 9.27671 21.6338 10.2145 20.477 10.2145Z" fill="#111827"/>
</g>
<defs>
<clipPath id="clip0_294_454">
<rect width="32" height="32" fill="white" transform="translate(0 0.282959)"/>
</clipPath>
</defs>
</svg>
