<svg width="32" height="33" viewBox="0 0 32 33" fill="none" xmlns="http://www.w3.org/2000/svg">
<g clip-path="url(#clip0_294_454)">
<path d="M25.3365 9.60124C30.5375 14.8021 30.5375 23.1453 25.3365 28.3823C20.244 33.5832 11.8648 33.5832 6.66386 28.3823C1.46296 23.1814 1.46296 14.8021 6.66386 9.60124L15.9821 0.282959V4.9421L15.1153 5.80892L8.93926 11.985C5.03858 15.8134 5.03858 22.0979 8.93926 25.9985C12.7677 29.8992 19.0521 29.8992 22.9528 25.9985C26.8535 22.1701 26.8535 15.8857 22.9528 11.985L25.3365 9.60124ZM20.6774 9.02337C19.7199 9.02337 18.9438 8.24719 18.9438 7.28973C18.9438 6.33227 19.7199 5.5561 20.6774 5.5561C21.6349 5.5561 22.411 6.33227 22.411 7.28973C22.411 8.24719 21.6349 9.02337 20.6774 9.02337Z" fill="#111827"/>
</g>
<defs>
<clipPath id="clip0_294_454">
<rect width="32" height="32" fill="white" transform="translate(0 0.282959)"/>
</clipPath>
</defs>
</svg>
