<svg width="32" height="32" viewBox="0 0 32 32" fill="none" xmlns="http://www.w3.org/2000/svg">
<path fill-rule="evenodd" clip-rule="evenodd" d="M1.00049 0.000244141C0.448204 0.000244141 0.000488281 0.447958 0.000488281 1.00024V11.4001C0.000488281 11.9524 0.448203 12.4001 1.00049 12.4001H11.4004C11.9527 12.4001 12.4004 11.9524 12.4004 11.4001V1.00024C12.4004 0.447959 11.9527 0.000244141 11.4004 0.000244141H1.00049ZM18.5998 17.6001C19.1521 17.6001 19.5998 18.0478 19.5998 18.6001V24.8C19.5998 25.3523 19.1521 25.8 18.5998 25.8C18.0475 25.8 17.5998 25.3523 17.5998 24.8V18.6001C17.5998 18.0478 18.0475 17.6001 18.5998 17.6001ZM24.7998 17.6001C25.352 17.6001 25.7998 18.0478 25.7998 18.6001V20.7H31.0002C31.5525 20.7 32.0002 21.1478 32.0002 21.7C32.0002 22.2523 31.5525 22.7 31.0002 22.7H25.7998V30.9999C25.7998 31.5522 25.352 31.9999 24.7998 31.9999H18.5998C18.0475 31.9999 17.5998 31.5522 17.5998 30.9999C17.5998 30.4476 18.0475 29.9999 18.5998 29.9999H23.7998V18.6001C23.7998 18.0478 24.2475 17.6001 24.7998 17.6001ZM30.9997 26.8999C31.552 26.8999 31.9997 27.3476 31.9997 27.8999V30.999C31.9997 31.5513 31.552 31.999 30.9997 31.999C30.4474 31.999 29.9997 31.5513 29.9997 30.999V27.8999C29.9997 27.3476 30.4474 26.8999 30.9997 26.8999ZM0.000488281 19.6001C0.000488281 19.0478 0.448204 18.6001 1.00049 18.6001H11.4004C11.9527 18.6001 12.4004 19.0478 12.4004 19.6001V30C12.4004 30.5522 11.9527 31 11.4004 31H1.00049C0.448203 31 0.000488281 30.5522 0.000488281 30V19.6001ZM19.5999 0.000244141C19.0476 0.000244141 18.5999 0.447958 18.5999 1.00024V11.4001C18.5999 11.9524 19.0476 12.4001 19.5999 12.4001H29.9998C30.5521 12.4001 30.9998 11.9524 30.9998 11.4001V1.00024C30.9998 0.447959 30.5521 0.000244141 29.9998 0.000244141H19.5999Z" fill="#111827"/>
</svg>
