<svg width="33" height="33" viewBox="0 0 33 33" fill="none" xmlns="http://www.w3.org/2000/svg">
<path fill-rule="evenodd" clip-rule="evenodd" d="M5.95996 4.28296C5.40768 4.28296 4.95996 4.73067 4.95996 5.28296V12.883C4.95996 13.4352 5.40768 13.883 5.95996 13.883H13.56C14.1123 13.883 14.56 13.4352 14.56 12.883V5.28296C14.56 4.73067 14.1123 4.28296 13.56 4.28296H5.95996ZM19.3599 17.683C19.9121 17.683 20.3599 18.1307 20.3599 18.683V23.483C20.3599 24.0353 19.9121 24.483 19.3599 24.483C18.8076 24.483 18.3599 24.0353 18.3599 23.483V18.683C18.3599 18.1307 18.8076 17.683 19.3599 17.683ZM24.1599 17.683C24.7121 17.683 25.1599 18.1307 25.1599 18.683V20.083H28.9602C29.5124 20.083 29.9602 20.5307 29.9602 21.083C29.9602 21.6353 29.5124 22.083 28.9602 22.083H25.1599V28.283C25.1599 28.8353 24.7121 29.283 24.1599 29.283H19.3599C18.8076 29.283 18.3599 28.8353 18.3599 28.283C18.3599 27.7307 18.8076 27.283 19.3599 27.283H23.1599V18.683C23.1599 18.1307 23.6076 17.683 24.1599 17.683ZM28.96 24.8829C29.5122 24.8829 29.96 25.3307 29.96 25.8829V28.2829C29.96 28.8352 29.5122 29.2829 28.96 29.2829C28.4077 29.2829 27.96 28.8352 27.96 28.2829V25.8829C27.96 25.3307 28.4077 24.8829 28.96 24.8829ZM4.95996 19.683C4.95996 19.1307 5.40768 18.683 5.95996 18.683H13.56C14.1123 18.683 14.56 19.1307 14.56 19.683V27.283C14.56 27.8353 14.1123 28.283 13.56 28.283H5.95996C5.40768 28.283 4.95996 27.8353 4.95996 27.283V19.683ZM20.3599 4.28296C19.8076 4.28296 19.3599 4.73067 19.3599 5.28296V12.883C19.3599 13.4352 19.8076 13.883 20.3599 13.883H27.9599C28.5122 13.883 28.9599 13.4352 28.9599 12.883V5.28296C28.9599 4.73067 28.5122 4.28296 27.9599 4.28296H20.3599Z" fill="#1C1B1F"/>
</svg>
