<svg width="33" height="33" viewBox="0 0 33 33" fill="none" xmlns="http://www.w3.org/2000/svg">
<path fill-rule="evenodd" clip-rule="evenodd" d="M16.96 28.283C23.5874 28.283 28.96 22.9104 28.96 16.283C28.96 9.65554 23.5874 4.28296 16.96 4.28296C10.3325 4.28296 4.95996 9.65554 4.95996 16.283C4.95996 22.9104 10.3325 28.283 16.96 28.283ZM16.9602 22.3516C17.7219 22.3516 18.3394 21.7341 18.3394 20.9724C18.3394 20.2107 17.7219 19.5933 16.9602 19.5933C16.1985 19.5933 15.5811 20.2107 15.5811 20.9724C15.5811 21.7341 16.1985 22.3516 16.9602 22.3516ZM14.8774 13.297C14.8774 12.1468 15.8099 11.2144 16.9601 11.2144C18.1103 11.2144 19.0427 12.1468 19.0427 13.297C19.0427 14.4472 18.1103 15.3796 16.9601 15.3796C16.4078 15.3796 15.9601 15.8274 15.9601 16.3796V17.8194C15.9601 18.3717 16.4078 18.8194 16.9601 18.8194C17.5124 18.8194 17.9601 18.3717 17.9601 17.8194V17.2563C19.7314 16.8103 21.0427 15.2068 21.0427 13.297C21.0427 11.0422 19.2149 9.21436 16.9601 9.21436C14.7053 9.21436 12.8774 11.0422 12.8774 13.297C12.8774 13.8493 13.3252 14.297 13.8774 14.297C14.4297 14.297 14.8774 13.8493 14.8774 13.297Z" fill="#1C1B1F"/>
</svg>
