<svg width="32" height="32" viewBox="0 0 32 32" fill="none" xmlns="http://www.w3.org/2000/svg">
<path fill-rule="evenodd" clip-rule="evenodd" d="M16 32C24.8366 32 32 24.8366 32 16C32 7.16344 24.8366 0 16 0C7.16344 0 0 7.16344 0 16C0 24.8366 7.16344 32 16 32ZM16.0003 24.0915C17.0159 24.0915 17.8392 23.2682 17.8392 22.2526C17.8392 21.237 17.0159 20.4137 16.0003 20.4137C14.9848 20.4137 14.1615 21.237 14.1615 22.2526C14.1615 23.2682 14.9848 24.0915 16.0003 24.0915ZM12.89 12.0187C12.89 10.301 14.2825 8.90853 16.0002 8.90853C17.7179 8.90853 19.1104 10.301 19.1104 12.0187C19.1104 13.7364 17.7179 15.1289 16.0002 15.1289C15.4479 15.1289 15.0002 15.5766 15.0002 16.1289V18.0486C15.0002 18.6009 15.4479 19.0486 16.0002 19.0486C16.5525 19.0486 17.0002 18.6009 17.0002 18.0486V17.0311C19.3437 16.5662 21.1104 14.4988 21.1104 12.0187C21.1104 9.19644 18.8224 6.90853 16.0002 6.90853C13.1779 6.90853 10.89 9.19644 10.89 12.0187C10.89 12.571 11.3377 13.0187 11.89 13.0187C12.4423 13.0187 12.89 12.571 12.89 12.0187Z" fill="#111827"/>
</svg>
