<svg width="32" height="33" viewBox="0 0 32 33" fill="none" xmlns="http://www.w3.org/2000/svg">
<path fill-rule="evenodd" clip-rule="evenodd" d="M1 5.13232C0.447715 5.13232 0 5.58004 0 6.13232C0 6.68461 0.447715 7.13232 1 7.13232H29.5142C30.0665 7.13232 30.5142 6.68461 30.5142 6.13232C30.5142 5.58004 30.0665 5.13232 29.5142 5.13232H1ZM1 15.5004C0.447715 15.5004 0 15.9482 0 16.5004C0 17.0527 0.447715 17.5004 1 17.5004H16.5532C17.1055 17.5004 17.5532 17.0527 17.5532 16.5004C17.5532 15.9482 17.1055 15.5004 16.5532 15.5004H1ZM0 26.8676C0 26.3153 0.447715 25.8676 1 25.8676H16.5532C17.1055 25.8676 17.5532 26.3153 17.5532 26.8676C17.5532 27.4199 17.1055 27.8676 16.5532 27.8676H1C0.447715 27.8676 0 27.4199 0 26.8676ZM31.7637 20.6278C32.0786 20.8234 32.0786 21.2816 31.7637 21.4772L23.7985 26.4247C23.4654 26.6315 23.0347 26.392 23.0347 25.9999V16.1051C23.0347 15.713 23.4654 15.4734 23.7985 15.6803L31.7637 20.6278Z" fill="#111827"/>
</svg>
