<svg width="32" height="32" viewBox="0 0 32 32" fill="none" xmlns="http://www.w3.org/2000/svg">
<path fill-rule="evenodd" clip-rule="evenodd" d="M0.999512 4.63507C0.447227 4.63507 -0.000488281 5.08279 -0.000488281 5.63507V16.2957C-0.000488281 16.848 0.447226 17.2957 0.999511 17.2957H10.6751C10.6691 18.6088 10.6044 20.4971 9.91702 22.132C9.55144 23.0015 9.02265 23.7641 8.25811 24.3275C7.49831 24.8875 6.44122 25.2987 4.93637 25.366C4.38464 25.3907 3.95737 25.8579 3.98205 26.4097C4.00672 26.9614 4.47399 27.3887 5.02573 27.364C6.8682 27.2816 8.3216 26.7652 9.44468 25.9375C10.563 25.1133 11.2895 24.028 11.7607 22.9071C12.6761 20.7299 12.6758 18.2887 12.6757 17.0076L12.6757 16.9636V14.8879C12.6757 14.8277 12.6704 14.7687 12.6602 14.7115V5.63507C12.6602 5.08279 12.2125 4.63507 11.6602 4.63507H0.999512ZM19.339 5.63507C19.339 5.08279 19.7867 4.63507 20.339 4.63507H30.9997C31.552 4.63507 31.9997 5.08279 31.9997 5.63507V14.8598C31.9999 14.8691 32.0001 14.8785 32.0001 14.8879V16.9636L32.0001 17.0076C32.0002 18.2887 32.0004 20.7299 31.0851 22.9071C30.6138 24.028 29.8874 25.1133 28.7691 25.9375C27.646 26.7652 26.1926 27.2816 24.3501 27.364C23.7984 27.3887 23.3311 26.9614 23.3064 26.4097C23.2817 25.8579 23.709 25.3907 24.2607 25.366C25.7656 25.2987 26.8227 24.8875 27.5825 24.3275C28.347 23.7641 28.8758 23.0015 29.2414 22.132C29.9287 20.4971 29.9935 18.6088 29.9995 17.2957H20.339C19.7867 17.2957 19.339 16.848 19.339 16.2957V5.63507Z" fill="#111827"/>
</svg>
