<svg width="32" height="32" viewBox="0 0 32 32" fill="none" xmlns="http://www.w3.org/2000/svg">
<path fill-rule="evenodd" clip-rule="evenodd" d="M1 7.99994C0.447715 7.99994 0 8.44766 0 8.99994V28.3333C0 28.8856 0.447715 29.3333 1 29.3333H31C31.5523 29.3333 32 28.8856 32 28.3333V8.99994C32 8.44765 31.5523 7.99994 31 7.99994H1ZM4.33333 13.3333C4.33333 12.781 4.78105 12.3333 5.33333 12.3333H10.6667C11.219 12.3333 11.6667 12.781 11.6667 13.3333C11.6667 13.8856 11.219 14.3333 10.6667 14.3333H5.33333C4.78105 14.3333 4.33333 13.8856 4.33333 13.3333ZM21.3333 14.3333C18.9401 14.3333 17 16.2734 17 18.6666C17 21.0599 18.9401 23 21.3333 23C23.7266 23 25.6667 21.0599 25.6667 18.6666C25.6667 16.2734 23.7266 14.3333 21.3333 14.3333ZM15 18.6666C15 15.1688 17.8355 12.3333 21.3333 12.3333C24.8311 12.3333 27.6667 15.1688 27.6667 18.6666C27.6667 22.1644 24.8311 25 21.3333 25C17.8355 25 15 22.1644 15 18.6666ZM5.33333 17.6666C4.78105 17.6666 4.33333 18.1144 4.33333 18.6666C4.33333 19.2189 4.78105 19.6666 5.33333 19.6666H10.6667C11.219 19.6666 11.6667 19.2189 11.6667 18.6666C11.6667 18.1144 11.219 17.6666 10.6667 17.6666H5.33333ZM4.33333 24C4.33333 23.4477 4.78105 23 5.33333 23H10.6667C11.219 23 11.6667 23.4477 11.6667 24C11.6667 24.5523 11.219 25 10.6667 25H5.33333C4.78105 25 4.33333 24.5523 4.33333 24Z" fill="#111827"/>
<rect x="4.6626" y="2.66663" width="22.675" height="5.33333" stroke="#111827" stroke-width="2" stroke-linejoin="round"/>
</svg>
