<svg width="33" height="33" viewBox="0 0 33 33" fill="none" xmlns="http://www.w3.org/2000/svg">
<path fill-rule="evenodd" clip-rule="evenodd" d="M5.95996 16.283C5.95996 10.2078 10.8848 5.28296 16.96 5.28296C23.0351 5.28296 27.96 10.2078 27.96 16.283C27.96 22.3581 23.0351 27.283 16.96 27.283C10.8848 27.283 5.95996 22.3581 5.95996 16.283ZM16.96 3.28296C9.78026 3.28296 3.95996 9.10326 3.95996 16.283C3.95996 23.4627 9.78026 29.283 16.96 29.283C24.1397 29.283 29.96 23.4627 29.96 16.283C29.96 9.10326 24.1397 3.28296 16.96 3.28296ZM23.96 16.283C23.96 20.149 20.826 23.283 16.96 23.283C13.094 23.283 9.95996 20.149 9.95996 16.283C9.95996 12.417 13.094 9.28296 16.96 9.28296C20.826 9.28296 23.96 12.417 23.96 16.283Z" fill="#1C1B1F"/>
</svg>
