<svg width="33" height="33" viewBox="0 0 33 33" fill="none" xmlns="http://www.w3.org/2000/svg">
<path fill-rule="evenodd" clip-rule="evenodd" d="M5.95996 11.2829C5.40768 11.2829 4.95996 11.7306 4.95996 12.2829V26.2829C4.95996 26.8352 5.40768 27.2829 5.95996 27.2829H27.96C28.5122 27.2829 28.96 26.8352 28.96 26.2829V12.2829C28.96 11.7306 28.5122 11.2829 27.96 11.2829H5.95996ZM7.95996 15.2829C7.95996 14.7306 8.40768 14.2829 8.95996 14.2829H12.96C13.5122 14.2829 13.96 14.7306 13.96 15.2829C13.96 15.8352 13.5122 16.2829 12.96 16.2829H8.95996C8.40768 16.2829 7.95996 15.8352 7.95996 15.2829ZM20.96 16.2829C19.3031 16.2829 17.96 17.626 17.96 19.2829C17.96 20.9398 19.3031 22.2829 20.96 22.2829C22.6168 22.2829 23.96 20.9398 23.96 19.2829C23.96 17.626 22.6168 16.2829 20.96 16.2829ZM15.96 19.2829C15.96 16.5215 18.1985 14.2829 20.96 14.2829C23.7214 14.2829 25.96 16.5215 25.96 19.2829C25.96 22.0443 23.7214 24.2829 20.96 24.2829C18.1985 24.2829 15.96 22.0443 15.96 19.2829ZM8.95996 18.2829C8.40768 18.2829 7.95996 18.7306 7.95996 19.2829C7.95996 19.8352 8.40768 20.2829 8.95996 20.2829H12.96C13.5122 20.2829 13.96 19.8352 13.96 19.2829C13.96 18.7306 13.5122 18.2829 12.96 18.2829H8.95996ZM7.95996 23.2829C7.95996 22.7306 8.40768 22.2829 8.95996 22.2829H12.96C13.5122 22.2829 13.96 22.7306 13.96 23.2829C13.96 23.8352 13.5122 24.2829 12.96 24.2829H8.95996C8.40768 24.2829 7.95996 23.8352 7.95996 23.2829Z" fill="#1C1B1F"/>
<rect x="8.45703" y="7.2829" width="17.0063" height="4" stroke="#1C1B1F" stroke-width="2" stroke-linejoin="round"/>
</svg>
