<svg width="33" height="33" viewBox="0 0 33 33" fill="none" xmlns="http://www.w3.org/2000/svg">
<path fill-rule="evenodd" clip-rule="evenodd" d="M11.6331 11.1662C13.3142 10.4562 15.1672 10.2573 16.9606 10.5942C18.7541 10.9312 20.4085 11.7891 21.7173 13.0608C22.1134 13.4456 22.7465 13.4365 23.1314 13.0404C23.5162 12.6443 23.5071 12.0112 23.111 11.6264C21.5204 10.0808 19.5096 9.03813 17.3299 8.62863C15.1502 8.21912 12.8981 8.46092 10.855 9.32382C8.81187 10.1867 7.06828 11.6325 5.84201 13.4805C4.61573 15.3285 3.96113 17.4969 3.95996 19.7147V19.7153V21.4296C3.95996 21.9819 4.40768 22.4296 4.95996 22.4296C5.51225 22.4296 5.95996 21.9819 5.95996 21.4296V19.7156V19.7153C5.96102 17.8906 6.49962 16.1067 7.50849 14.5863C8.51746 13.0658 9.95207 11.8762 11.6331 11.1662ZM12.5999 14.4863C13.5663 13.9969 14.6494 13.7851 15.7288 13.8744C16.8083 13.9637 17.8419 14.3506 18.7147 14.992C19.1598 15.3191 19.7857 15.2234 20.1127 14.7784C20.4398 14.3334 20.3441 13.7075 19.8991 13.3804C18.7283 12.5199 17.3418 12.001 15.8937 11.8812C14.4456 11.7615 12.9927 12.0456 11.6964 12.702C10.4001 13.3584 9.31122 14.3614 8.55075 15.5995C7.79036 16.8375 7.3881 18.2621 7.38867 19.715V19.7154V21.4293C7.38867 21.9816 7.83639 22.4293 8.38867 22.4293C8.94096 22.4293 9.38867 21.9816 9.38867 21.4293V19.715L9.38867 19.7145C9.38819 18.6313 9.68806 17.5693 10.255 16.6463C10.8219 15.7233 11.6336 14.9756 12.5999 14.4863ZM15.4766 17.2835L15.4764 17.2835C15.3993 17.2848 15.3263 17.2861 15.2496 17.2864L15.2461 17.2864C14.6019 17.2864 13.9842 17.5423 13.5287 17.9977C13.0733 18.4532 12.8174 19.071 12.8174 19.7151V21.4294C12.8174 21.9817 12.3697 22.4294 11.8174 22.4294C11.2651 22.4294 10.8174 21.9817 10.8174 21.4294V19.7151C10.8174 18.5405 11.284 17.4141 12.1145 16.5835C12.9446 15.7535 14.0702 15.287 15.244 15.2864C15.2676 15.2863 15.3136 15.2856 15.3727 15.2847C15.511 15.2826 15.721 15.2793 15.8836 15.2801C16.1019 15.2812 16.4789 15.2857 16.7484 15.3533C17.2841 15.4876 17.6095 16.0307 17.4753 16.5664C17.3421 17.0976 16.8069 17.4221 16.2756 17.2966L16.2758 17.2966L16.2708 17.2961L16.2708 17.2961C16.2598 17.2949 16.2303 17.2914 16.1767 17.2882C16.0934 17.2832 15.9896 17.2807 15.8738 17.2801C15.7155 17.2793 15.5916 17.2815 15.4766 17.2835ZM18.7118 17.7181C19.1631 17.6389 19.6261 17.6566 20.07 17.7701C20.4033 17.1191 21.0522 16.1991 21.6456 15.7715C22.2389 15.3439 22.9253 15.0634 23.6483 14.9532C24.3713 14.8429 25.1101 14.906 25.8039 15.1373C26.4977 15.3686 27.1266 15.7614 27.6388 16.2835C28.151 16.8055 28.5319 17.4418 28.7499 18.1399C28.968 18.838 29.0171 19.5779 28.8931 20.2987C28.7691 21.0195 28.4757 21.7005 28.0369 22.2856C27.8009 22.589 27.5353 22.873 27.2729 23.125C26.5211 23.8471 25.4804 24.1317 24.4381 24.1317H19.2669C18.8087 24.1313 18.3558 24.0334 17.9384 23.8445C17.5209 23.6556 17.1484 23.3801 16.8455 23.0363C16.5426 22.6924 16.3164 22.2881 16.1817 21.8501C16.0471 21.4121 16.0071 20.9505 16.0645 20.4959C16.1219 20.0413 16.2753 19.6041 16.5146 19.2133C16.7539 18.8225 17.0735 18.4871 17.4523 18.2293C17.8311 17.9715 18.2605 17.7973 18.7118 17.7181Z" fill="#1C1B1F"/>
</svg>
