<svg width="32" height="33" viewBox="0 0 32 33" fill="none" xmlns="http://www.w3.org/2000/svg">
<path fill-rule="evenodd" clip-rule="evenodd" d="M16.0001 6.92896C11.7568 6.92896 7.68741 8.61457 4.687 11.615C1.68659 14.6154 0.000976562 18.6848 0.000976562 22.928V25.0708C0.000976562 25.6231 0.448692 26.0708 1.00098 26.0708C1.55326 26.0708 2.00098 25.6231 2.00098 25.0708V22.928C2.00098 19.2153 3.47588 15.6545 6.10121 13.0292C8.72655 10.4039 12.2873 8.92896 16.0001 8.92896C19.7128 8.92896 23.2736 10.4039 25.8989 13.0292C28.5242 15.6545 29.9991 19.2153 29.9991 22.928V25.0708C29.9991 25.6231 30.4469 26.0708 30.9991 26.0708C31.5514 26.0708 31.9991 25.6231 31.9991 25.0708V22.928C31.9991 18.6848 30.3135 14.6154 27.3131 11.615C24.3127 8.61457 20.2433 6.92896 16.0001 6.92896ZM7.71699 14.6452C9.91372 12.4485 12.8931 11.2144 15.9998 11.2144C19.1064 11.2144 22.0858 12.4485 24.2826 14.6452C26.4793 16.8419 27.7134 19.8214 27.7134 22.928V25.0707C27.7134 25.623 27.2657 26.0707 26.7134 26.0707C26.1611 26.0707 25.7134 25.623 25.7134 25.0707V22.928C25.7134 20.3518 24.69 17.8811 22.8684 16.0594C21.0467 14.2378 18.576 13.2144 15.9998 13.2144C13.4236 13.2144 10.9529 14.2378 9.1312 16.0594C7.30954 17.8811 6.28615 20.3518 6.28615 22.928V25.0707C6.28615 25.623 5.83843 26.0707 5.28615 26.0707C4.73386 26.0707 4.28615 25.623 4.28615 25.0707V22.928C4.28615 19.8214 5.52026 16.8419 7.71699 14.6452ZM10.7475 17.6757C12.1405 16.2826 14.0299 15.5 16 15.5C17.9701 15.5 19.8594 16.2826 21.2525 17.6757C22.6456 19.0687 23.4282 20.9581 23.4282 22.9282V25.0709C23.4282 25.6232 22.9804 26.0709 22.4282 26.0709C21.8759 26.0709 21.4282 25.6232 21.4282 25.0709V22.9282C21.4282 21.4886 20.8563 20.1079 19.8383 19.0899C18.8203 18.0719 17.4396 17.5 16 17.5C14.5603 17.5 13.1797 18.0719 12.1617 19.0899C11.1437 20.1079 10.5718 21.4886 10.5718 22.9282V25.0709C10.5718 25.6232 10.1241 26.0709 9.5718 26.0709C9.01952 26.0709 8.5718 25.6232 8.5718 25.0709V22.9282C8.5718 20.9581 9.35441 19.0687 10.7475 17.6757Z" fill="#111827"/>
</svg>
