<svg width="33" height="33" viewBox="0 0 33 33" fill="none" xmlns="http://www.w3.org/2000/svg">
<path fill-rule="evenodd" clip-rule="evenodd" d="M16.96 8.92578C13.5121 8.92578 10.2055 10.2954 7.76757 12.7334C5.3296 15.1714 3.95996 18.478 3.95996 21.9258V23.6401C3.95996 24.1924 4.40768 24.6401 4.95996 24.6401C5.51225 24.6401 5.95996 24.1924 5.95996 23.6401V21.9258C5.95996 19.0084 7.11889 16.2105 9.18179 14.1476C11.2447 12.0847 14.0426 10.9258 16.96 10.9258C19.8773 10.9258 22.6752 12.0847 24.7381 14.1476C26.801 16.2105 27.96 19.0084 27.96 21.9258V23.6401C27.96 24.1924 28.4077 24.6401 28.96 24.6401C29.5122 24.6401 29.96 24.1924 29.96 23.6401V21.9258C29.96 18.478 28.5903 15.1714 26.1523 12.7334C23.7144 10.2954 20.4078 8.92578 16.96 8.92578ZM10.1921 15.1577C11.9871 13.3627 14.4216 12.3542 16.9601 12.3542C19.4986 12.3542 21.9331 13.3627 23.7281 15.1577C25.5231 16.9526 26.5315 19.3872 26.5315 21.9257V23.64C26.5315 24.1922 26.0838 24.64 25.5315 24.64C24.9792 24.64 24.5315 24.1922 24.5315 23.64V21.9257C24.5315 19.9176 23.7338 17.9918 22.3139 16.5719C20.894 15.1519 18.9682 14.3542 16.9601 14.3542C14.952 14.3542 13.0262 15.1519 11.6063 16.5719C10.1864 17.9918 9.38867 19.9176 9.38867 21.9257V23.64C9.38867 24.1922 8.94096 24.64 8.38867 24.64C7.83639 24.64 7.38867 24.1922 7.38867 23.64V21.9257C7.38867 19.3872 8.39709 16.9526 10.1921 15.1577ZM12.6161 17.5822C13.7681 16.4302 15.3306 15.783 16.9598 15.783C18.5889 15.783 20.1514 16.4302 21.3034 17.5822C22.4554 18.7342 23.1026 20.2966 23.1026 21.9258V23.6401C23.1026 24.1924 22.6549 24.6401 22.1026 24.6401C21.5503 24.6401 21.1026 24.1924 21.1026 23.6401V21.9258C21.1026 20.8271 20.6661 19.7733 19.8892 18.9964C19.1123 18.2194 18.0585 17.783 16.9598 17.783C15.861 17.783 14.8072 18.2194 14.0303 18.9964C13.2534 19.7733 12.8169 20.8271 12.8169 21.9258V23.6401C12.8169 24.1924 12.3692 24.6401 11.8169 24.6401C11.2646 24.6401 10.8169 24.1924 10.8169 23.6401V21.9258C10.8169 20.2966 11.4641 18.7342 12.6161 17.5822Z" fill="#1C1B1F"/>
</svg>
