<svg width="32" height="33" viewBox="0 0 32 33" fill="none" xmlns="http://www.w3.org/2000/svg">
<path fill-rule="evenodd" clip-rule="evenodd" d="M9.5065 9.4761C11.7307 8.53674 14.1823 8.27352 16.5552 8.71931C18.9281 9.1651 21.117 10.3002 22.8486 11.9827C23.2447 12.3676 23.8778 12.3585 24.2626 11.9624C24.6475 11.5663 24.6384 10.9332 24.2423 10.5483C22.2289 8.59188 19.6836 7.27206 16.9244 6.7537C14.1653 6.23533 11.3146 6.54141 8.72836 7.63368C6.14214 8.72596 3.93507 10.556 2.38282 12.8953C0.830576 15.2345 0.00196457 17.9793 0.0004884 20.7867L0.000488281 20.7872V23.0016C0.000488281 23.5539 0.448204 24.0016 1.00049 24.0016C1.55277 24.0016 2.00049 23.5539 2.00049 23.0016V20.7875V20.7872C2.00186 18.373 2.71446 16.0127 4.04931 14.0011C5.38424 11.9893 7.28234 10.4155 9.5065 9.4761ZM10.7367 13.7728C12.033 13.1164 13.486 12.8323 14.9341 12.952C16.3821 13.0718 17.7686 13.5908 18.9395 14.4512C19.3845 14.7783 20.0104 14.6826 20.3375 14.2376C20.6645 13.7926 20.5689 13.1667 20.1239 12.8396C18.655 11.7601 16.9156 11.1091 15.0989 10.9589C13.2822 10.8086 11.4595 11.165 9.83321 11.9885C8.20696 12.812 6.8409 14.0704 5.88685 15.6236C4.93289 17.1768 4.42824 18.964 4.42898 20.7867V20.7869V23.0011C4.42898 23.5534 4.87669 24.0011 5.42898 24.0011C5.98126 24.0011 6.42898 23.5534 6.42898 23.0011V20.7867V20.7863C6.42832 19.3333 6.83059 17.9085 7.59106 16.6704C8.35154 15.4323 9.44043 14.4292 10.7367 13.7728ZM14.5723 17.3548C14.4731 17.3565 14.3807 17.3581 14.2902 17.3584L14.2867 17.3584C13.3773 17.3584 12.5052 17.7197 11.8622 18.3627C11.2192 19.0057 10.8579 19.8778 10.8579 20.7871V23.0015C10.8579 23.5538 10.4102 24.0015 9.85795 24.0015C9.30566 24.0015 8.85795 23.5538 8.85795 23.0015V20.7871C8.85795 19.3474 9.4299 17.9665 10.448 16.9485C11.4656 15.9309 12.8456 15.359 14.2847 15.3584C14.3217 15.3583 14.3872 15.3573 14.4691 15.356L14.4695 15.356L14.4697 15.356L14.4698 15.356C14.647 15.3532 14.9005 15.3493 15.1087 15.3503C15.3996 15.3518 15.849 15.3591 16.1563 15.4361C16.692 15.5704 17.0174 16.1135 16.8831 16.6492C16.7489 17.1849 16.2057 17.5103 15.67 17.3761C15.6729 17.3768 15.6722 17.3767 15.6672 17.376L15.6672 17.376L15.6671 17.376C15.6527 17.374 15.6033 17.3671 15.5062 17.3612C15.391 17.3543 15.251 17.351 15.0989 17.3503C14.8945 17.3493 14.7252 17.3522 14.5723 17.3548ZM18.7629 18.2076C19.3458 18.1054 19.9439 18.1283 20.5173 18.2748C20.9478 17.4339 21.786 16.2457 22.5524 15.6933C23.3187 15.141 24.2054 14.7787 25.1392 14.6363C26.0731 14.4939 27.0274 14.5754 27.9236 14.8741C28.8197 15.1729 29.6321 15.6803 30.2936 16.3546C30.9552 17.0289 31.4471 17.8508 31.7288 18.7525C32.0105 19.6542 32.0739 20.61 31.9137 21.541C31.7536 22.472 31.3746 23.3516 30.8078 24.1074C30.503 24.4993 30.1599 24.866 29.8209 25.1916C28.8499 26.1243 27.5057 26.4919 26.1593 26.4919H19.4799C18.8881 26.4913 18.3032 26.3649 17.7639 26.1209C17.2247 25.877 16.7435 25.5211 16.3523 25.077C15.9611 24.6329 15.6688 24.1106 15.4949 23.5449C15.321 22.9791 15.2694 22.3829 15.3435 21.7957C15.4176 21.2084 15.6158 20.6437 15.9249 20.139C16.2339 19.6342 16.6468 19.201 17.1361 18.868C17.6254 18.535 18.1799 18.3099 18.7629 18.2076Z" fill="#111827"/>
</svg>
