<svg width="32" height="32" viewBox="0 0 32 32" fill="none" xmlns="http://www.w3.org/2000/svg">
<path fill-rule="evenodd" clip-rule="evenodd" d="M8.49918 28.9902C8.01416 28.7102 7.65177 28.1356 7.4843 27.2026C7.31736 26.2727 7.35958 25.0566 7.62107 23.6243C7.75469 22.8924 7.94419 22.1113 8.18774 21.2926C9.54521 21.5712 11.0259 21.7789 12.5913 21.9028C13.4811 23.1964 14.4013 24.3749 15.3212 25.4111C14.734 26.0314 14.1523 26.5861 13.5853 27.0677C12.4756 28.0103 11.4435 28.6549 10.5547 28.9753C9.66301 29.2968 8.98421 29.2702 8.49918 28.9902ZM15.9993 24.6684C15.2874 23.8607 14.5725 22.9617 13.8707 21.9843C14.5675 22.0181 15.2783 22.0355 15.9998 22.0355C16.721 22.0355 17.4313 22.0181 18.1278 21.9844C17.426 22.9617 16.7111 23.8607 15.9993 24.6684ZM14.2327 27.8299C14.8128 27.3371 15.4044 26.7744 15.9993 26.1493C16.5941 26.7745 17.1858 27.3371 17.7659 27.8299C18.9262 28.8156 20.0622 29.5403 21.1048 29.9162C22.1445 30.291 23.1606 30.3406 23.9994 29.8563C24.8382 29.372 25.3033 28.4673 25.4986 27.3794C25.6944 26.2886 25.6347 24.9424 25.3613 23.4448C25.2246 22.696 25.0331 21.9024 24.7892 21.0747C25.628 20.8721 26.4111 20.6411 27.128 20.385C28.5617 19.873 29.7574 19.2516 30.6042 18.5366C31.4486 17.8236 31.9996 16.9684 31.9996 15.9999C31.9996 15.0313 31.4486 14.1762 30.6042 13.4631C29.7574 12.7481 28.5617 12.1267 27.128 11.6147C26.411 11.3586 25.6278 11.1276 24.7889 10.925C25.0328 10.0974 25.2242 9.30393 25.3609 8.55526C25.6343 7.0576 25.694 5.71145 25.4982 4.62062C25.3029 3.53277 24.8378 2.62801 23.999 2.14372C23.1602 1.65944 22.1441 1.70907 21.1044 2.08387C20.0618 2.45969 18.9258 3.18448 17.7655 4.17009C17.1855 4.6628 16.594 5.22532 15.9993 5.85029C15.4046 5.22535 14.8131 4.66287 14.2331 4.17018C13.0728 3.18457 11.9368 2.45979 10.8942 2.08396C9.85447 1.70916 8.83839 1.65953 7.99959 2.14382C7.16078 2.6281 6.69572 3.53287 6.50043 4.62071C6.30461 5.71154 6.36432 7.05769 6.63773 8.55535C6.77442 9.30407 6.96583 10.0976 7.20973 10.9252C6.37117 11.1278 5.58831 11.3587 4.87162 11.6147C3.43791 12.1267 2.24225 12.7481 1.39548 13.4631C0.551019 14.1762 0 15.0313 0 15.9999C0 16.9684 0.551019 17.8236 1.39548 18.5366C2.24225 19.2516 3.43791 19.873 4.87162 20.385C5.58822 20.641 6.37099 20.8719 7.20943 21.0745C6.96548 21.9022 6.77404 22.6959 6.63733 23.4447C6.36391 24.9423 6.30421 26.2885 6.50003 27.3793C6.69532 28.4672 7.16038 29.3719 7.99918 29.8562C8.83799 30.3405 9.85407 30.2909 10.8938 29.9161C11.9364 29.5403 13.0724 28.8155 14.2327 27.8299ZM24.3775 23.6244C24.2439 22.8925 24.0544 22.1115 23.8109 21.2928C22.4534 21.5714 20.9726 21.779 19.4072 21.9029C18.5173 23.1965 17.5972 24.3749 16.6773 25.4111C17.2646 26.0314 17.8463 26.5861 18.4133 27.0678C19.523 28.0104 20.5551 28.655 21.4439 28.9754C22.3356 29.2969 23.0144 29.2703 23.4994 28.9903C23.9844 28.7103 24.3468 28.1357 24.5143 27.2027C24.6812 26.2728 24.639 25.0567 24.3775 23.6244ZM26.7917 19.4433C26.091 19.6935 25.3198 19.92 24.489 20.1184C24.0514 18.8034 23.4909 17.4172 22.8154 15.9996C23.4908 14.5821 24.0512 13.1961 24.4887 11.8813C25.3196 12.0797 26.0909 12.3062 26.7917 12.5564C28.1629 13.0462 29.2371 13.6176 29.959 14.2272C30.6832 14.8387 30.9996 15.4398 30.9996 15.9999C30.9996 16.5599 30.6832 17.1611 29.959 17.7726C29.2371 18.3821 28.1629 18.9536 26.7917 19.4433ZM23.5067 20.3342C23.1631 19.3137 22.7419 18.245 22.2463 17.1484C21.9272 17.7687 21.5869 18.3929 21.2261 19.0178C20.8654 19.6425 20.4951 20.2492 20.1175 20.8356C21.315 20.7165 22.4511 20.5469 23.5067 20.3342ZM20.3601 18.5178C20.8482 17.6724 21.2968 16.8302 21.7046 15.9996C21.2969 15.1692 20.8484 14.3273 20.3605 13.4822C19.8725 12.6369 19.3674 11.8273 18.852 11.0589C17.929 10.9968 16.9756 10.9642 15.9998 10.9642C15.0236 10.9642 14.0698 10.9968 13.1464 11.0589C12.6311 11.8274 12.1261 12.6369 11.6381 13.4821C11.1502 14.3272 10.7017 15.1692 10.2939 15.9996C10.7018 16.8303 11.1504 17.6725 11.6385 18.5179C12.1264 19.363 12.6314 20.1725 13.1467 20.9408C14.07 21.0029 15.0237 21.0355 15.9998 21.0355C16.9756 21.0355 17.9289 21.003 18.8518 20.9409C19.3671 20.1725 19.8721 19.363 20.3601 18.5178ZM23.5064 11.6654C23.1629 12.6858 22.7418 13.7544 22.2463 14.8508C21.9273 14.2308 21.5871 13.6068 21.2265 12.9822C20.8658 12.3574 20.4954 11.7507 20.1177 11.1641C21.315 11.2832 22.451 11.4528 23.5064 11.6654ZM23.8106 10.7068C22.4532 10.4283 20.9726 10.2207 19.4074 10.0969C18.5175 8.80322 17.5973 7.62475 16.6773 6.58846C17.2644 5.96834 17.846 5.4138 18.4129 4.93224C19.5226 3.9896 20.5547 3.34501 21.4435 3.02461C22.3352 2.70318 23.014 2.72972 23.499 3.00975C23.984 3.28978 24.3464 3.86437 24.5139 4.79731C24.6808 5.72726 24.6386 6.94331 24.3771 8.37566C24.2435 9.10741 24.0541 9.88833 23.8106 10.7068ZM13.5857 4.93233C14.1525 5.41387 14.7341 5.96838 15.3212 6.58846C14.4012 7.62478 13.481 8.80328 12.591 10.0969C11.0259 10.2209 9.54537 10.4285 8.18804 10.707C7.94454 9.8885 7.75507 9.10753 7.62148 8.37575C7.35998 6.9434 7.31776 5.72735 7.4847 4.7974C7.65218 3.86446 8.01456 3.28987 8.49959 3.00984C8.98461 2.72981 9.66342 2.70327 10.5551 3.0247C11.4439 3.3451 12.476 3.98969 13.5857 4.93233ZM5.20796 12.5564C5.90843 12.3063 6.67942 12.0799 7.50997 11.8815C7.94739 13.1963 8.50784 14.5822 9.1831 15.9996C8.50772 17.4171 7.94718 18.8033 7.50968 20.1182C6.67924 19.9198 5.90835 19.6934 5.20796 19.4433C3.83676 18.9536 2.76252 18.3821 2.04063 17.7726C1.31642 17.1611 1 16.5599 1 15.9999C1 15.4398 1.31642 14.8387 2.04063 14.2272C2.76252 13.6176 3.83676 13.0462 5.20796 12.5564ZM8.49224 11.6656C8.83572 12.6859 9.25681 13.7544 9.75227 14.8508C10.0713 14.2307 10.4114 13.6068 10.7721 12.9821C11.1328 12.3574 11.5031 11.7507 11.8807 11.1643C10.6835 11.2834 9.54757 11.453 8.49224 11.6656ZM8.49195 20.334C8.83549 19.3136 9.25667 18.2449 9.75224 17.1484C10.0714 17.7687 10.4117 18.393 10.7725 19.0179C11.1331 19.6425 11.5034 20.2492 11.881 20.8355C10.6835 20.7164 9.54743 20.5468 8.49195 20.334ZM18.128 10.0154C17.4261 9.03796 16.7112 8.1389 15.9993 7.33119C15.2873 8.13892 14.5724 9.038 13.8705 10.0154C14.5674 9.98165 15.2782 9.96422 15.9998 9.96422C16.721 9.96422 17.4315 9.98162 18.128 10.0154ZM16.0001 19.3213C17.8345 19.3213 19.3215 17.8343 19.3215 15.9999C19.3215 14.1656 17.8345 12.6785 16.0001 12.6785C14.1658 12.6785 12.6787 14.1656 12.6787 15.9999C12.6787 17.8343 14.1658 19.3213 16.0001 19.3213Z" fill="#111827"/>
</svg>
