<svg width="33" height="33" viewBox="0 0 33 33" fill="none" xmlns="http://www.w3.org/2000/svg">
<path fill-rule="evenodd" clip-rule="evenodd" d="M9.99967 12.1587C9.74013 12.233 9.48251 12.3139 9.22706 12.4011C6.63498 13.2898 4.95996 14.6819 4.95996 16.1213C4.95996 17.6225 6.75001 19.0902 9.50141 19.998C9.64682 20.046 9.79584 20.0922 9.94773 20.1368C9.89356 20.3539 9.84523 20.567 9.80381 20.7757C9.26062 23.5082 9.6789 25.754 10.9662 26.4962C12.2127 27.2148 14.2271 26.5089 16.2669 24.7609C16.4886 24.5704 16.705 24.3738 16.9157 24.1713C17.083 24.3324 17.25 24.4861 17.4165 24.6311C19.5223 26.4643 21.6848 27.2248 22.9733 26.4849C24.2208 25.7682 24.6129 23.6776 24.1109 21.0447C24.0561 20.7586 23.9932 20.474 23.9224 20.1914C24.1404 20.1294 24.3567 20.062 24.5714 19.9893C27.218 19.0885 28.96 17.6027 28.96 16.1213C28.96 14.6871 27.3372 13.3043 24.7963 12.4221C24.5123 12.3235 24.2154 12.2308 23.908 12.1439C23.9739 11.8815 24.033 11.6176 24.0854 11.3522C24.6119 8.67274 24.2414 6.53139 22.9907 5.81028C21.6862 5.05827 19.5138 5.86581 17.3465 7.78237C17.2117 7.90185 17.0791 8.0238 16.9488 8.14817C16.7543 7.96114 16.555 7.77903 16.3512 7.60202C14.2832 5.80975 12.2356 5.05996 10.9836 5.77907C9.67784 6.52885 9.29546 8.80656 9.88028 11.6339C9.91682 11.8096 9.95663 11.9845 9.99967 12.1587ZM10.4789 19.0415C10.3468 19.0025 10.2172 18.9623 10.0909 18.9207H10.0908C7.80428 18.1661 6.39595 17.0114 6.39595 16.122C6.39595 15.2871 7.69989 14.2034 9.83768 13.4706C10.0587 13.3948 10.2881 13.323 10.5244 13.2548C10.8086 14.1706 11.1879 15.1382 11.6487 16.1269C11.166 17.1395 10.7713 18.1198 10.4789 19.0415ZM10.9287 23.8296C10.7755 23.0076 10.8085 21.9561 11.0397 20.7931C11.0758 20.6115 11.1177 20.4259 11.1647 20.2365C12.1216 20.4567 13.1767 20.6181 14.2935 20.7168C14.9284 21.6322 15.5789 22.4565 16.2299 23.1656C16.0354 23.3519 15.8415 23.5281 15.649 23.693C13.97 25.1319 12.413 25.6775 11.685 25.2578C11.3429 25.0606 11.0663 24.5682 10.9287 23.8296ZM22.2549 25.246C21.9125 25.4426 21.346 25.4355 20.6347 25.1853H20.6346C19.8431 24.9068 18.9449 24.3533 18.0486 23.573C17.8986 23.442 17.7518 23.3075 17.6085 23.1693C18.283 22.4484 18.9524 21.625 19.5915 20.7293C20.711 20.6389 21.7584 20.4889 22.7046 20.2805C22.7679 20.5335 22.8242 20.7882 22.8733 21.0443C23.2864 23.2116 22.9836 24.8275 22.2549 25.246ZM26.6613 17.4897C26.0236 18.0334 25.0934 18.5317 23.9669 18.9152C23.7783 18.9791 23.5882 19.0384 23.3966 19.093C23.1049 18.1455 22.7202 17.1508 22.2567 16.146C22.7143 15.1559 23.0935 14.1767 23.3826 13.2403C23.6501 13.3156 23.9152 13.3987 24.1777 13.4895C26.2694 14.2157 27.5236 15.2843 27.5236 16.122C27.5236 16.5158 27.2342 17.0009 26.6613 17.4897ZM22.2702 7.04776C22.9958 7.46604 23.2841 9.13295 22.8499 11.3428V11.3427C22.8029 11.5802 22.75 11.8166 22.6911 12.0515C21.735 11.8358 20.6949 11.6747 19.6084 11.5744C18.9749 10.6839 18.3117 9.86677 17.6406 9.14903C17.7564 9.03876 17.872 8.93216 17.9871 8.83033C19.7884 7.23755 21.4973 6.60219 22.2702 7.04776ZM13.5876 12.6427C13.3451 13.0212 13.1109 13.4048 12.8851 13.7933C12.6556 14.1879 12.434 14.5871 12.2205 14.9905C11.9283 14.3093 11.6802 13.6448 11.4812 13.0094C12.1443 12.8586 12.8504 12.7354 13.5876 12.6427ZM15.5893 11.4858C16.0377 10.8909 16.4936 10.3425 16.9487 9.85139C17.411 10.3482 17.8708 10.8958 18.3196 11.4852C17.41 11.4428 16.4989 11.443 15.5893 11.4858ZM21.6905 14.9898C21.4825 14.5882 21.2651 14.1915 21.0384 13.8C20.8115 13.4082 20.5754 13.0217 20.3302 12.6409C21.0626 12.732 21.7654 12.8521 22.4246 12.999C22.2238 13.6435 21.9779 14.3109 21.6905 14.9898ZM22.4382 19.3324C21.7792 19.4753 21.0657 19.5892 20.3092 19.6733C20.5603 19.2853 20.8021 18.8913 21.0344 18.4918C21.2621 18.1001 21.4805 17.7032 21.6894 17.3013C21.9829 17.9947 22.2342 18.6765 22.4382 19.3324ZM18.3113 20.8055C17.8557 21.4035 17.3892 21.9594 16.9214 22.4621C16.4693 21.9663 16.0151 21.4096 15.5652 20.8007C16.0234 20.8211 16.4889 20.8315 16.9598 20.8315C17.4181 20.8315 17.8691 20.8228 18.3113 20.8055ZM11.4354 19.2899C11.6421 18.645 11.9024 17.9669 12.2111 17.266C12.4253 17.6772 12.6487 18.0836 12.8811 18.485C13.1097 18.8799 13.3461 19.2702 13.5903 19.6557C12.8283 19.5647 12.1052 19.4421 11.4354 19.2899ZM14.8443 19.7748C14.4556 19.1934 14.0859 18.5994 13.736 17.994H13.7359C13.3829 17.3852 13.0518 16.764 12.7433 16.1317C13.0551 15.5058 13.3872 14.8901 13.7392 14.2857C14.0892 13.6828 14.4604 13.0925 14.8522 12.5157C15.5391 12.4636 16.2444 12.4363 16.9597 12.4363C17.6717 12.4363 18.3762 12.4634 19.0632 12.5151C19.459 13.0928 19.8327 13.6852 20.1833 14.2911V14.2909C20.5341 14.8966 20.8619 15.5153 21.1659 16.1456C20.8611 16.7758 20.5323 17.3941 20.1804 17.9994C19.8267 18.6079 19.4501 19.2029 19.0513 19.783C18.3779 19.8265 17.6786 19.8488 16.9598 19.8488C16.238 19.8488 15.5297 19.8236 14.8443 19.7748ZM11.1118 11.6043C10.6257 9.25462 10.9266 7.46288 11.7001 7.01854C12.4264 6.60138 14.0204 7.18501 15.726 8.66325C15.907 8.8206 16.0842 8.98241 16.2572 9.14852C15.5969 9.85699 14.9392 10.6755 14.3044 11.5757C13.2148 11.6776 12.174 11.8415 11.2156 12.0617C11.1783 11.9099 11.1436 11.7574 11.1118 11.6043Z" fill="#1C1B1F"/>
<path d="M16.9599 13.9868C15.7763 13.9868 14.8168 14.9425 14.8168 16.1212C14.8168 17.3 15.7763 18.2557 16.9599 18.2557C18.1435 18.2557 19.103 17.3 19.103 16.1212C19.103 14.9425 18.1435 13.9868 16.9599 13.9868Z" fill="#1C1B1F"/>
</svg>
