<svg width="33" height="32" viewBox="0 0 33 32" fill="none" xmlns="http://www.w3.org/2000/svg">
<path fill-rule="evenodd" clip-rule="evenodd" d="M9.22706 12.2597C9.48251 12.1724 9.74013 12.0916 9.99967 12.0172C9.95663 11.843 9.91682 11.6681 9.88028 11.4924C9.29546 8.66508 9.67784 6.38737 10.9836 5.63759C12.2356 4.91848 14.2832 5.66827 16.3512 7.46054C16.555 7.63755 16.7543 7.81966 16.9488 8.00669C17.0791 7.88232 17.2117 7.76037 17.3465 7.6409C19.5138 5.72433 21.6862 4.91679 22.9907 5.6688C24.2414 6.38991 24.6119 8.53127 24.0854 11.2107C24.033 11.4761 23.9739 11.7401 23.908 12.0024C24.2154 12.0894 24.5123 12.182 24.7963 12.2806C27.3372 13.1628 28.96 14.5456 28.96 15.9798C28.96 17.4612 27.218 18.947 24.5714 19.8479C24.3567 19.9206 24.1404 19.9879 23.9224 20.0499C23.9932 20.3325 24.0561 20.6171 24.1109 20.9032C24.6129 23.5362 24.2208 25.6267 22.9733 26.3434C21.6848 27.0834 19.5223 26.3228 17.4165 24.4896C17.25 24.3447 17.083 24.191 16.9157 24.0299C16.705 24.2323 16.4886 24.4289 16.2669 24.6194C14.2271 26.3674 12.2127 27.0733 10.9662 26.3547C9.6789 25.6126 9.26062 23.3667 9.80381 20.6342C9.84523 20.4255 9.89356 20.2124 9.94773 19.9953C9.79584 19.9507 9.64682 19.9046 9.50141 19.8565C6.75001 18.9487 4.95996 17.481 4.95996 15.9798C4.95996 14.5404 6.63498 13.1483 9.22706 12.2597ZM10.0909 18.7792C10.2172 18.8208 10.3468 18.8611 10.4789 18.9001C10.7713 17.9783 11.166 16.998 11.6487 15.9854C11.1879 14.9968 10.8086 14.0292 10.5244 13.1133C10.2881 13.1815 10.0587 13.2533 9.83768 13.3291C7.69989 14.0619 6.39595 15.1456 6.39595 15.9805C6.39595 16.87 7.80428 18.0246 10.0908 18.7792H10.0909ZM11.0397 20.6516C10.8085 21.8146 10.7755 22.8661 10.9287 23.6881C11.0663 24.4267 11.3429 24.9191 11.685 25.1163C12.413 25.536 13.97 24.9905 15.649 23.5515C15.8415 23.3866 16.0354 23.2104 16.2299 23.0241C15.5789 22.315 14.9284 21.4907 14.2935 20.5753C13.1767 20.4766 12.1216 20.3153 11.1647 20.095C11.1177 20.2844 11.0758 20.47 11.0397 20.6516ZM20.6347 25.0438C21.346 25.294 21.9125 25.3011 22.2549 25.1045C22.9836 24.686 23.2864 23.0701 22.8733 20.9029C22.8242 20.6467 22.7679 20.392 22.7046 20.139C21.7584 20.3474 20.711 20.4974 19.5915 20.5878C18.9524 21.4836 18.283 22.3069 17.6085 23.0279C17.7518 23.166 17.8986 23.3006 18.0486 23.4315C18.9449 24.2118 19.8431 24.7653 20.6346 25.0438H20.6347ZM23.9669 18.7737C25.0934 18.3902 26.0236 17.8919 26.6613 17.3482C27.2342 16.8595 27.5236 16.3743 27.5236 15.9805C27.5236 15.1429 26.2694 14.0743 24.1777 13.348C23.9152 13.2572 23.6501 13.1741 23.3826 13.0988C23.0935 14.0353 22.7143 15.0144 22.2567 16.0045C22.7202 17.0093 23.1049 18.004 23.3966 18.9515C23.5882 18.8969 23.7783 18.8376 23.9669 18.7737ZM22.8499 11.2013C23.2841 8.99147 22.9958 7.32456 22.2702 6.90628C21.4973 6.46071 19.7884 7.09607 17.9871 8.68886C17.872 8.79068 17.7564 8.89728 17.6406 9.00755C18.3117 9.72529 18.9749 10.5424 19.6084 11.4329C20.6949 11.5332 21.735 11.6943 22.6911 11.9101C22.75 11.6751 22.8029 11.4388 22.8499 11.2012V11.2013ZM12.8851 13.6518C13.1109 13.2633 13.3451 12.8797 13.5876 12.5012C12.8504 12.5939 12.1443 12.7171 11.4812 12.8679C11.6802 13.5034 11.9283 14.1678 12.2205 14.849C12.434 14.4456 12.6556 14.0464 12.8851 13.6518ZM16.9487 9.70991C16.4936 10.201 16.0377 10.7494 15.5893 11.3443C16.4989 11.3015 17.41 11.3013 18.3196 11.3437C17.8708 10.7543 17.411 10.2067 16.9487 9.70991ZM21.0384 13.6585C21.2651 14.05 21.4825 14.4467 21.6905 14.8483C21.9779 14.1695 22.2238 13.502 22.4246 12.8575C21.7654 12.7106 21.0626 12.5905 20.3302 12.4994C20.5754 12.8802 20.8115 13.2667 21.0384 13.6585ZM20.3092 19.5319C21.0657 19.4478 21.7792 19.3338 22.4382 19.191C22.2342 18.535 21.9829 17.8532 21.6894 17.1598C21.4805 17.5617 21.2621 17.9587 21.0344 18.3503C20.8021 18.7499 20.5603 19.1438 20.3092 19.5319ZM16.9214 22.3206C17.3892 21.8179 17.8557 21.262 18.3113 20.664C17.8691 20.6813 17.4181 20.6901 16.9598 20.6901C16.4889 20.6901 16.0234 20.6796 15.5652 20.6592C16.0151 21.2681 16.4693 21.8249 16.9214 22.3206ZM12.2111 17.1245C11.9024 17.8254 11.6421 18.5036 11.4354 19.1484C12.1052 19.3006 12.8283 19.4232 13.5903 19.5142C13.3461 19.1287 13.1097 18.7384 12.8811 18.3435C12.6487 17.9422 12.4253 17.5357 12.2111 17.1245ZM13.736 17.8525C14.0859 18.4579 14.4556 19.0519 14.8443 19.6334C15.5297 19.6821 16.238 19.7073 16.9598 19.7073C17.6786 19.7073 18.3779 19.685 19.0513 19.6415C19.4501 19.0614 19.8267 18.4664 20.1804 17.8579C20.5323 17.2527 20.8611 16.6343 21.1659 16.0042C20.8619 15.3739 20.5341 14.7552 20.1833 14.1494V14.1496C19.8327 13.5437 19.459 12.9513 19.0632 12.3736C18.3762 12.3219 17.6717 12.2948 16.9597 12.2948C16.2444 12.2948 15.5391 12.3221 14.8522 12.3743C14.4604 12.951 14.0892 13.5414 13.7392 14.1442C13.3872 14.7486 13.0551 15.3643 12.7433 15.9902C13.0518 16.6225 13.3829 17.2437 13.7359 17.8525H13.736ZM11.7001 6.87706C10.9266 7.3214 10.6257 9.11314 11.1118 11.4629C11.1436 11.6159 11.1783 11.7684 11.2156 11.9202C12.174 11.7 13.2148 11.5361 14.3044 11.4342C14.9392 10.5341 15.5969 9.71551 16.2572 9.00705C16.0842 8.84093 15.907 8.67912 15.726 8.52177C14.0204 7.04353 12.4264 6.4599 11.7001 6.87706ZM14.8168 15.9797C14.8168 14.801 15.7763 13.8453 16.9599 13.8453C18.1435 13.8453 19.103 14.801 19.103 15.9797C19.103 17.1585 18.1435 18.1142 16.9599 18.1142C15.7763 18.1142 14.8168 17.1585 14.8168 15.9797Z" fill="#1C1B1F"/>
</svg>
