<svg width="32" height="32" viewBox="0 0 32 32" fill="none" xmlns="http://www.w3.org/2000/svg">
<path fill-rule="evenodd" clip-rule="evenodd" d="M0.723607 29.0012C0.391156 29.1674 0 28.9256 0 28.5539V4.02962C0 3.676 0.140476 3.33686 0.390525 3.08681C0.640573 2.83677 0.979711 2.69629 1.33333 2.69629H30.6667C31.0203 2.69629 31.3594 2.83677 31.6095 3.08681C31.8595 3.33686 32 3.676 32 4.02962V28.5539C32 28.9256 31.6088 29.1674 31.2764 29.0012L26.8903 26.8081C26.7495 26.7377 26.5838 26.7377 26.4431 26.8081L21.5569 29.2512C21.4162 29.3215 21.2505 29.3215 21.1097 29.2512L16.2236 26.8081C16.0828 26.7377 15.9172 26.7377 15.7764 26.8081L10.8903 29.2512C10.7495 29.3215 10.5838 29.3215 10.4431 29.2512L5.55694 26.8081C5.41618 26.7377 5.25049 26.7377 5.10973 26.8081L0.723607 29.0012ZM6.33333 12.0296C6.33333 11.4773 6.78105 11.0296 7.33333 11.0296H24.6667C25.219 11.0296 25.6667 11.4773 25.6667 12.0296C25.6667 12.5819 25.219 13.0296 24.6667 13.0296H7.33333C6.78105 13.0296 6.33333 12.5819 6.33333 12.0296ZM7.33333 16.363C6.78105 16.363 6.33333 16.8107 6.33333 17.363C6.33333 17.9152 6.78105 18.363 7.33333 18.363H24.6667C25.219 18.363 25.6667 17.9152 25.6667 17.363C25.6667 16.8107 25.219 16.363 24.6667 16.363H7.33333Z" fill="#111827"/>
</svg>
