<svg width="32" height="33" viewBox="0 0 32 33" fill="none" xmlns="http://www.w3.org/2000/svg">
<path fill-rule="evenodd" clip-rule="evenodd" d="M0.723607 29.5012C0.391156 29.6674 0 29.4256 0 29.0539V4.52962C0 4.176 0.140476 3.83686 0.390525 3.58681C0.640573 3.33677 0.979711 3.19629 1.33333 3.19629H30.6667C31.0203 3.19629 31.3594 3.33677 31.6095 3.58681C31.8595 3.83686 32 4.176 32 4.52962V29.0539C32 29.4256 31.6088 29.6674 31.2764 29.5012L26.8903 27.3081C26.7495 27.2377 26.5838 27.2377 26.4431 27.3081L21.5569 29.7512C21.4162 29.8215 21.2505 29.8215 21.1097 29.7512L16.2236 27.3081C16.0828 27.2377 15.9172 27.2377 15.7764 27.3081L10.8903 29.7512C10.7495 29.8215 10.5838 29.8215 10.4431 29.7512L5.55694 27.3081C5.41618 27.2377 5.25049 27.2377 5.10973 27.3081L0.723607 29.5012ZM6.33333 12.5296C6.33333 11.9773 6.78105 11.5296 7.33333 11.5296H24.6667C25.219 11.5296 25.6667 11.9773 25.6667 12.5296C25.6667 13.0819 25.219 13.5296 24.6667 13.5296H7.33333C6.78105 13.5296 6.33333 13.0819 6.33333 12.5296ZM7.33333 16.863C6.78105 16.863 6.33333 17.3107 6.33333 17.863C6.33333 18.4152 6.78105 18.863 7.33333 18.863H24.6667C25.219 18.863 25.6667 18.4152 25.6667 17.863C25.6667 17.3107 25.219 16.863 24.6667 16.863H7.33333Z" fill="#111827"/>
</svg>
