<svg width="33" height="33" viewBox="0 0 33 33" fill="none" xmlns="http://www.w3.org/2000/svg">
<path fill-rule="evenodd" clip-rule="evenodd" d="M5.95996 16.783C5.95996 10.7078 10.8848 5.78296 16.96 5.78296C23.0351 5.78296 27.96 10.7078 27.96 16.783C27.96 22.8581 23.0351 27.783 16.96 27.783C10.8848 27.783 5.95996 22.8581 5.95996 16.783ZM16.96 3.78296C9.78026 3.78296 3.95996 9.60326 3.95996 16.783C3.95996 23.9627 9.78026 29.783 16.96 29.783C24.1397 29.783 29.96 23.9627 29.96 16.783C29.96 9.60326 24.1397 3.78296 16.96 3.78296ZM24.96 16.783C24.96 21.2012 21.3782 24.783 16.96 24.783C12.5417 24.783 8.95996 21.2012 8.95996 16.783C8.95996 12.3647 12.5417 8.78296 16.96 8.78296C21.3782 8.78296 24.96 12.3647 24.96 16.783Z" fill="#1C1B1F"/>
</svg>
