<svg width="32" height="33" viewBox="0 0 32 33" fill="none" xmlns="http://www.w3.org/2000/svg">
<path fill-rule="evenodd" clip-rule="evenodd" d="M2.00098 16.4998C2.00098 8.76834 8.26858 2.50073 16.0001 2.50073C23.7315 2.50073 29.9991 8.76834 29.9991 16.4998C29.9991 24.2313 23.7315 30.4989 16.0001 30.4989C8.26858 30.4989 2.00098 24.2313 2.00098 16.4998ZM16.0001 0.500732C7.16401 0.500732 0.000976562 7.66377 0.000976562 16.4998C0.000976562 25.3359 7.16401 32.4989 16.0001 32.4989C24.8361 32.4989 31.9991 25.3359 31.9991 16.4998C31.9991 7.66377 24.8361 0.500732 16.0001 0.500732ZM25.9994 16.4998C25.9994 22.0223 21.5226 26.4992 16.0001 26.4992C10.4775 26.4992 6.00067 22.0223 6.00067 16.4998C6.00067 10.9773 10.4775 6.50042 16.0001 6.50042C21.5226 6.50042 25.9994 10.9773 25.9994 16.4998Z" fill="#111827"/>
</svg>
