<svg width="32" height="32" viewBox="0 0 32 32" fill="none" xmlns="http://www.w3.org/2000/svg">
<path fill-rule="evenodd" clip-rule="evenodd" d="M14.3478 0.441523C14.8503 0.151785 15.4202 -0.000732422 16.0002 -0.000732422C16.5802 -0.000732422 17.1501 0.151785 17.6525 0.441523C18.155 0.731262 18.5725 1.14803 18.8631 1.65003L24.0003 10.5253L24.644 8.12429C24.787 7.59084 25.3354 7.27434 25.8689 7.41736C26.4023 7.56038 26.7188 8.10877 26.5758 8.64221L25.3165 13.3393C25.256 13.599 25.0924 13.8341 24.8434 13.9782C24.596 14.1214 24.3128 14.1468 24.0587 14.0716L19.3556 12.8105C18.8221 12.6675 18.5057 12.1191 18.6487 11.5857C18.7917 11.0522 19.3401 10.7358 19.8736 10.8788L22.2652 11.5201L17.1321 2.65194C17.0172 2.45346 16.8522 2.28868 16.6535 2.17413C16.4548 2.05957 16.2295 1.99927 16.0002 1.99927C15.7709 1.99927 15.5456 2.05957 15.3469 2.17413C15.1482 2.28868 14.9832 2.45346 14.8683 2.65194L11.4137 8.62023C11.137 9.09822 10.5253 9.26142 10.0473 8.98475C9.5693 8.70808 9.40609 8.09631 9.68276 7.61832L13.1373 1.65003L14.0028 2.15099L13.1373 1.65003C13.4279 1.14803 13.8454 0.731261 14.3478 0.441523ZM8.63231 12.8883C8.57227 12.6277 8.40847 12.3917 8.15875 12.2471C7.98464 12.1463 7.79278 12.1039 7.60583 12.1138C7.53699 12.1174 7.46747 12.1282 7.39821 12.1468L2.67078 13.4143C2.13733 13.5573 1.82083 14.1057 1.96385 14.6391C2.10687 15.1726 2.65525 15.4891 3.1887 15.346L5.5808 14.7047L0.447436 23.5734C0.156402 24.0762 0.00292301 24.6468 0.00244254 25.2277C0.00196206 25.8087 0.154497 26.3795 0.444699 26.8828C0.734901 27.3861 1.15254 27.8041 1.65558 28.0947C2.15863 28.3853 2.72934 28.5383 3.3103 28.5383H10.2304C10.7827 28.5383 11.2304 28.0906 11.2304 27.5383C11.2304 26.986 10.7827 26.5383 10.2304 26.5383H3.3103C3.0806 26.5383 2.85495 26.4778 2.65606 26.3629C2.45717 26.248 2.29204 26.0828 2.1773 25.8838C2.06256 25.6848 2.00225 25.4591 2.00244 25.2294C2.00263 24.9997 2.06331 24.7741 2.17838 24.5753L7.3156 15.7L7.95932 18.1006C8.10236 18.634 8.65076 18.9505 9.1842 18.8075C9.71764 18.6644 10.0341 18.116 9.89108 17.5826L8.63231 12.8883ZM28.0979 17.605C27.8212 17.127 27.2094 16.9638 26.7314 17.2405C26.2535 17.5172 26.0903 18.129 26.3669 18.6069L29.8216 24.5755C29.9367 24.7743 29.9974 24.9999 29.9976 25.2295C29.9978 25.4592 29.9375 25.6849 29.8227 25.8839C29.708 26.0829 29.5429 26.2482 29.344 26.3631C29.1451 26.478 28.9194 26.5385 28.6897 26.5385H18.4144L20.1684 24.7851C20.5589 24.3947 20.559 23.7615 20.1686 23.3709C19.7781 22.9803 19.145 22.9802 18.7544 23.3707L15.293 26.831C15.1656 26.9583 15.0797 27.1115 15.0354 27.2737C15.0166 27.3421 15.005 27.4135 15.0012 27.487C15.0004 27.5041 14.9999 27.5212 14.9999 27.5385C14.9999 27.8221 15.118 28.0781 15.3076 28.26L18.7541 31.7077C19.1446 32.0983 19.7778 32.0984 20.1684 31.708C20.5589 31.3175 20.559 30.6844 20.1686 30.2938L18.4139 28.5385H28.6897C29.2707 28.5385 29.8414 28.3855 30.3444 28.0949C30.8475 27.8042 31.2651 27.3863 31.5553 26.883C31.8455 26.3797 31.9981 25.8089 31.9976 25.2279C31.9971 24.6469 31.8436 24.0763 31.5526 23.5735L28.0979 17.605Z" fill="#111827"/>
</svg>
