<svg width="32" height="33" viewBox="0 0 32 33" fill="none" xmlns="http://www.w3.org/2000/svg">
<path fill-rule="evenodd" clip-rule="evenodd" d="M14.3478 0.941523C14.8503 0.651785 15.4202 0.499268 16.0002 0.499268C16.5802 0.499268 17.1501 0.651785 17.6525 0.941523C18.155 1.23126 18.5725 1.64803 18.8631 2.15003L18.0653 2.61177L18.8631 2.15003L24.0003 11.0253L24.644 8.62429C24.787 8.09084 25.3354 7.77434 25.8689 7.91736C26.4023 8.06038 26.7188 8.60877 26.5758 9.14221L25.3165 13.8393C25.256 14.099 25.0924 14.3341 24.8434 14.4782C24.596 14.6214 24.3128 14.6468 24.0588 14.5716L19.3556 13.3105C18.8222 13.1675 18.5057 12.6191 18.6487 12.0857C18.7917 11.5522 19.3401 11.2358 19.8736 11.3788L22.2652 12.0201L17.1321 3.15194C17.0172 2.95346 16.8522 2.78868 16.6535 2.67413C16.4548 2.55957 16.2295 2.49927 16.0002 2.49927C15.7709 2.49927 15.5456 2.55957 15.3469 2.67413C15.1482 2.78868 14.9832 2.95346 14.8683 3.15194L11.4137 9.12023C11.137 9.59822 10.5253 9.76142 10.0473 9.48475C9.5693 9.20808 9.4061 8.59631 9.68277 8.11832L13.1373 2.15003L14.0028 2.65099L13.1373 2.15003C13.4279 1.64803 13.8454 1.23126 14.3478 0.941523ZM8.63232 13.3883C8.57227 13.1277 8.40847 12.8917 8.15875 12.7471C7.98464 12.6463 7.79278 12.6039 7.60583 12.6138C7.53699 12.6174 7.46747 12.6282 7.39821 12.6468L2.67078 13.9143C2.13733 14.0573 1.82083 14.6057 1.96385 15.1391C2.10687 15.6726 2.65526 15.9891 3.1887 15.846L5.5808 15.2047L0.447438 24.0734C0.156404 24.5762 0.00292526 25.1468 0.00244253 25.7277C0.00196431 26.3087 0.154499 26.8795 0.444701 27.3828C0.734904 27.8861 1.15254 28.3041 1.65558 28.5947C2.15863 28.8853 2.72934 29.0383 3.3103 29.0383H10.2304C10.7827 29.0383 11.2304 28.5906 11.2304 28.0383C11.2304 27.486 10.7827 27.0383 10.2304 27.0383H3.3103C3.08061 27.0383 2.85496 26.9778 2.65606 26.8629C2.45717 26.748 2.29204 26.5828 2.1773 26.3838C2.06256 26.1848 2.00225 25.9591 2.00244 25.7294C2.00263 25.4997 2.06332 25.2741 2.17839 25.0753L7.31561 16.2L7.95932 18.6006C8.10236 19.134 8.65076 19.4505 9.1842 19.3075C9.71764 19.1644 10.0341 18.616 9.89108 18.0826L8.63232 13.3883ZM28.0979 18.105C27.8212 17.627 27.2094 17.4638 26.7314 17.7405C26.2535 18.0172 26.0903 18.629 26.3669 19.1069L29.8216 25.0755C29.9367 25.2743 29.9974 25.4999 29.9976 25.7295C29.9978 25.9592 29.9375 26.1849 29.8227 26.3839C29.708 26.5829 29.5429 26.7482 29.344 26.8631C29.1451 26.978 28.9194 27.0385 28.6897 27.0385H18.4144L20.1684 25.2851C20.5589 24.8947 20.5591 24.2615 20.1686 23.8709C19.7781 23.4803 19.145 23.4802 18.7544 23.8707L15.293 27.331C15.1656 27.4583 15.0797 27.6115 15.0354 27.7737C15.0166 27.8421 15.005 27.9135 15.0013 27.987C15.0004 28.0041 14.9999 28.0212 14.9999 28.0385C14.9999 28.322 15.118 28.578 15.3076 28.76L18.7541 32.2077C19.1446 32.5983 19.7778 32.5984 20.1684 32.208C20.5589 31.8175 20.5591 31.1844 20.1686 30.7938L18.4139 29.0385H28.6897C29.2707 29.0385 29.8414 28.8855 30.3444 28.5949C30.8475 28.3042 31.2651 27.8863 31.5553 27.383C31.8455 26.8797 31.9981 26.3089 31.9976 25.7279C31.9971 25.1469 31.8436 24.5763 31.5526 24.0735L28.0979 18.105Z" fill="#111827"/>
</svg>
