<svg width="32" height="32" viewBox="0 0 32 32" fill="none" xmlns="http://www.w3.org/2000/svg">
<path fill-rule="evenodd" clip-rule="evenodd" d="M24.5716 6.28576C25.8339 6.28576 26.8573 5.26241 26.8573 4.00006C26.8573 2.7377 25.8339 1.71436 24.5716 1.71436C23.783 1.71436 23.0877 2.11372 22.6768 2.72124C22.6096 2.69498 22.5385 2.67564 22.4642 2.66421L17.2949 1.86893C16.7539 1.78569 16.2465 2.15294 16.1565 2.6929L15.0136 9.55C15.0031 9.61303 14.9987 9.67566 15.0001 9.73729C11.6384 9.89196 8.58266 10.8207 6.20129 12.2684L6.20148 12.2687C5.90186 11.8569 5.51428 11.517 5.06689 11.2738C4.6195 11.0305 4.12354 10.8899 3.61504 10.8623C3.10654 10.8346 2.59826 10.9206 2.12714 11.1139C1.65601 11.3073 1.23386 11.6031 0.891357 11.98C0.548855 12.3568 0.294598 12.8053 0.147058 13.2927C-0.000482065 13.7801 -0.0376007 14.2943 0.0383981 14.7978C0.114397 15.3014 0.301605 15.7817 0.586423 16.2038C0.871241 16.626 1.24652 16.9794 1.68499 17.2384L1.68469 17.2383C1.32851 18.1155 1.1446 19.0532 1.14304 20C1.14304 25.6806 7.79477 30.2857 16.0001 30.2857C24.2054 30.2857 30.8571 25.6806 30.8571 20C30.8556 19.0532 30.6717 18.1155 30.3155 17.2383L30.3152 17.2384C30.7536 16.9794 31.1289 16.626 31.4137 16.2038C31.6985 15.7817 31.8856 15.3014 31.9616 14.7978C32.0376 14.2943 32.0005 13.7802 31.8529 13.2928C31.7054 12.8054 31.4511 12.357 31.1087 11.9801C30.7662 11.6033 30.344 11.3074 29.8729 11.1141C29.4018 10.9208 28.8936 10.8348 28.3851 10.8624C27.8766 10.8901 27.3807 11.0306 26.9333 11.2739C26.4859 11.5171 26.0983 11.857 25.7987 12.2687L25.7989 12.2684C23.4198 10.8221 20.3677 9.89377 17.0099 9.73774L17.9669 3.99584L22.16 4.64095C22.2343 4.65237 22.3078 4.65531 22.3798 4.6505C22.6599 5.596 23.5352 6.28576 24.5716 6.28576ZM10.2857 20.5714C11.5481 20.5714 12.5714 19.5481 12.5714 18.2857C12.5714 17.0233 11.5481 16 10.2857 16C9.02334 16 8 17.0233 8 18.2857C8 19.5481 9.02334 20.5714 10.2857 20.5714ZM21.6073 24.1139C21.86 24.6049 21.6668 25.2079 21.1757 25.4606C19.5749 26.2844 17.8005 26.7142 16.0002 26.7142C14.1998 26.7142 12.4255 26.2845 10.8246 25.4606C10.3336 25.2079 10.1403 24.605 10.3931 24.1139C10.6458 23.6228 11.2487 23.4296 11.7398 23.6823C13.0576 24.3605 14.5182 24.7142 16.0002 24.7142C17.4822 24.7142 18.9428 24.3604 20.2605 23.6823C20.7516 23.4296 21.3546 23.6228 21.6073 24.1139ZM24.0001 18.2857C24.0001 19.5481 22.9768 20.5714 21.7144 20.5714C20.4521 20.5714 19.4287 19.5481 19.4287 18.2857C19.4287 17.0233 20.4521 16 21.7144 16C22.9768 16 24.0001 17.0233 24.0001 18.2857Z" fill="#111827"/>
</svg>
