<svg width="33" height="33" viewBox="0 0 33 33" fill="none" xmlns="http://www.w3.org/2000/svg">
<path d="M23.3888 8.99728C24.3356 8.99728 25.1031 8.22977 25.1031 7.283C25.1031 6.33623 24.3356 5.56873 23.3888 5.56873C22.4421 5.56873 21.6746 6.33623 21.6746 7.283C21.6746 8.22977 22.4421 8.99728 23.3888 8.99728Z" fill="#1C1B1F" stroke="#1C1B1F" stroke-width="2" stroke-linecap="round" stroke-linejoin="round"/>
<path d="M16.9602 11.5687L17.8173 6.4259L21.6943 7.02236" stroke="#1C1B1F" stroke-width="2" stroke-linecap="round" stroke-linejoin="round"/>
<path fill-rule="evenodd" clip-rule="evenodd" d="M16.9603 11.5687C14.1446 11.5687 11.5728 12.2918 9.61117 13.4843L9.61132 13.4845C9.3866 13.1756 9.09591 12.9207 8.76037 12.7383C8.42483 12.5558 8.05286 12.4504 7.67149 12.4297C7.29011 12.4089 6.9089 12.4734 6.55556 12.6184C6.20221 12.7634 5.8856 12.9853 5.62872 13.2679C5.37185 13.5506 5.18115 13.8869 5.0705 14.2525C4.95984 14.618 4.932 15.0036 4.989 15.3813C5.046 15.759 5.18641 16.1192 5.40002 16.4358C5.61364 16.7524 5.89509 17.0175 6.22395 17.2117L6.22373 17.2117C5.95658 17.8696 5.81866 18.5729 5.81748 19.283C5.81748 23.5434 10.8063 26.9972 16.9603 26.9972C23.1143 26.9972 28.1031 23.5434 28.1031 19.283C28.1019 18.5729 27.964 17.8696 27.6968 17.2117L27.6966 17.2118C28.0254 17.0175 28.3069 16.7524 28.5205 16.4358C28.734 16.1192 28.8744 15.759 28.9314 15.3813C28.9884 15.0037 28.9606 14.6181 28.8499 14.2525C28.7392 13.887 28.5486 13.5507 28.2917 13.2681C28.0348 12.9854 27.7182 12.7635 27.3649 12.6185C27.0116 12.4735 26.6304 12.4091 26.249 12.4298C25.8677 12.4505 25.4957 12.5559 25.1602 12.7384C24.8246 12.9208 24.534 13.1757 24.3092 13.4845L24.3094 13.4843C22.3478 12.2918 19.776 11.5687 16.9603 11.5687ZM14.3888 17.9972C14.3888 18.944 13.6212 19.7115 12.6745 19.7115C11.7277 19.7115 10.9602 18.944 10.9602 17.9972C10.9602 17.0505 11.7277 16.283 12.6745 16.283C13.6212 16.283 14.3888 17.0505 14.3888 17.9972ZM20.9564 23.6007C21.4474 23.348 21.6407 22.745 21.388 22.254C21.1352 21.7629 20.5323 21.5697 20.0412 21.8224C19.0883 22.3128 18.032 22.5686 16.9603 22.5686C15.8886 22.5686 14.8324 22.3128 13.8795 21.8224C13.3884 21.5697 12.7854 21.7629 12.5327 22.254C12.28 22.7451 12.4732 23.348 12.9643 23.6007C14.2003 24.2368 15.5703 24.5686 16.9603 24.5686C18.3504 24.5686 19.7204 24.2368 20.9564 23.6007ZM21.246 19.7115C22.1928 19.7115 22.9603 18.944 22.9603 17.9972C22.9603 17.0505 22.1928 16.283 21.246 16.283C20.2992 16.283 19.5317 17.0505 19.5317 17.9972C19.5317 18.944 20.2992 19.7115 21.246 19.7115Z" fill="#1C1B1F"/>
</svg>
