<svg width="33" height="33" viewBox="0 0 33 33" fill="none" xmlns="http://www.w3.org/2000/svg">
<path d="M23.3888 9.13876C24.3356 9.13876 25.1031 8.37125 25.1031 7.42448C25.1031 6.47771 24.3356 5.71021 23.3888 5.71021C22.4421 5.71021 21.6746 6.47771 21.6746 7.42448C21.6746 8.37125 22.4421 9.13876 23.3888 9.13876Z" fill="#1C1B1F" stroke="#1C1B1F" stroke-width="2" stroke-linecap="round" stroke-linejoin="round"/>
<path d="M16.9602 11.7102L17.8173 6.56738L21.6943 7.16384" stroke="#1C1B1F" stroke-width="2" stroke-linecap="round" stroke-linejoin="round"/>
<path fill-rule="evenodd" clip-rule="evenodd" d="M16.9603 11.7102C14.1446 11.7102 11.5728 12.4332 9.61117 13.6257L9.61132 13.626C9.3866 13.3171 9.09591 13.0622 8.76037 12.8798C8.42483 12.6973 8.05286 12.5919 7.67149 12.5711C7.29011 12.5504 6.9089 12.6149 6.55556 12.7599C6.20221 12.9049 5.8856 13.1268 5.62872 13.4094C5.37185 13.6921 5.18115 14.0284 5.0705 14.3939C4.95984 14.7595 4.932 15.1451 4.989 15.5228C5.046 15.9005 5.18641 16.2607 5.40002 16.5773C5.61364 16.8939 5.89509 17.159 6.22395 17.3532L6.22373 17.3531C5.95658 18.0111 5.81866 18.7143 5.81748 19.4244C5.81748 23.6849 10.8063 27.1387 16.9603 27.1387C23.1143 27.1387 28.1031 23.6849 28.1031 19.4244C28.1019 18.7143 27.964 18.0111 27.6968 17.3531L27.6966 17.3532C28.0254 17.159 28.3069 16.8939 28.5205 16.5773C28.734 16.2607 28.8744 15.9005 28.9314 15.5228C28.9884 15.1452 28.9606 14.7596 28.8499 14.394C28.7392 14.0285 28.5486 13.6922 28.2917 13.4095C28.0348 13.1269 27.7182 12.905 27.3649 12.76C27.0116 12.615 26.6304 12.5505 26.249 12.5713C25.8677 12.592 25.4957 12.6974 25.1602 12.8798C24.8246 13.0623 24.534 13.3172 24.3092 13.626L24.3094 13.6257C22.3478 12.4332 19.776 11.7102 16.9603 11.7102ZM14.3888 18.1387C14.3888 19.0855 13.6212 19.853 12.6745 19.853C11.7277 19.853 10.9602 19.0855 10.9602 18.1387C10.9602 17.1919 11.7277 16.4244 12.6745 16.4244C13.6212 16.4244 14.3888 17.1919 14.3888 18.1387ZM20.9564 23.7422C21.4474 23.4895 21.6407 22.8865 21.388 22.3954C21.1352 21.9044 20.5323 21.7111 20.0412 21.9639C19.0883 22.4543 18.032 22.7101 16.9603 22.7101C15.8886 22.7101 14.8324 22.4543 13.8795 21.9639C13.3884 21.7112 12.7854 21.9044 12.5327 22.3955C12.28 22.8865 12.4732 23.4895 12.9643 23.7422C14.2003 24.3783 15.5703 24.7101 16.9603 24.7101C18.3504 24.7101 19.7204 24.3783 20.9564 23.7422ZM21.246 19.853C22.1928 19.853 22.9603 19.0855 22.9603 18.1387C22.9603 17.1919 22.1928 16.4244 21.246 16.4244C20.2992 16.4244 19.5317 17.1919 19.5317 18.1387C19.5317 19.0855 20.2992 19.853 21.246 19.853Z" fill="#1C1B1F"/>
</svg>
