<svg width="32" height="33" viewBox="0 0 32 33" fill="none" xmlns="http://www.w3.org/2000/svg">
<path d="M14.2752 3.58491C14.2752 3.59741 14.4252 3.87865 14.6127 4.22865C14.8002 4.57239 14.9314 4.86614 14.9127 4.88489C14.8939 4.89739 14.3689 5.09739 13.7502 5.31613C13.1252 5.54113 12.6314 5.72863 12.6377 5.73488C12.6439 5.74113 13.3502 5.81613 14.2002 5.89737C15.2252 5.99112 15.7627 6.05987 15.8002 6.10362C15.8314 6.13487 16.0689 6.51612 16.3251 6.94111L16.7876 7.7161L16.8689 7.52235C16.9126 7.42235 17.0564 7.07861 17.1814 6.77236L17.4126 6.21612L18.6439 6.08487C19.3189 6.00987 19.9188 5.95362 19.9813 5.95362L20.0876 5.90987C20.0876 5.89112 19.6313 5.70363 19.0689 5.49113C18.5126 5.28488 18.0501 5.10364 18.0501 5.09739C18.0501 5.09114 18.1689 4.79739 18.3189 4.44114C18.4626 4.0849 18.5751 3.7849 18.5689 3.77865C18.5564 3.76615 18.0814 3.9099 17.5189 4.09115L16.5001 4.42865L15.4064 3.9974C14.3314 3.57241 14.2752 3.55366 14.2752 3.58491ZM21.0626 7.2786C19.7563 7.79735 18.6814 8.22859 18.6751 8.24109C18.6626 8.25359 19.6376 8.64734 20.8376 9.12233L23.0125 9.97857L23.2438 9.88482C25.6688 8.94108 27.8687 8.06609 27.8625 8.05359L23.4938 6.33487C23.45 6.34112 22.3626 6.75986 21.0626 7.2786ZM8.52526 6.77236C7.26902 6.90361 6.21904 7.2661 5.77529 7.7286C5.46905 8.04109 5.41905 8.30984 5.6128 8.63483C5.89404 9.12233 6.81903 9.52857 8.09401 9.73482C8.669 9.83482 10.3502 9.81607 10.9315 9.71607C12.294 9.47857 13.1814 9.04108 13.3877 8.49109C13.4627 8.28484 13.4627 8.25984 13.3877 8.05984C13.1814 7.5286 12.3127 7.08486 11.0252 6.85986C10.3752 6.75361 9.16275 6.70986 8.52526 6.77236ZM31.8562 8.28484C31.7937 8.36609 31.5624 8.55359 31.3374 8.70358C30.6749 9.12858 29.825 9.51607 24.5188 11.8035C20.7876 13.4035 19.8376 13.8285 18.5501 14.4473C17.1189 15.1285 16.5251 15.3222 15.8064 15.3222C15.1627 15.3222 14.7752 15.2097 13.5752 14.6785C13.0939 14.466 11.1252 13.641 9.2065 12.841C0.800366 9.34733 0.644118 9.27233 0.194125 8.78483L0.00662728 8.57859V11.8723L0.219124 12.0785C0.425371 12.2785 1.11911 12.6973 1.36286 12.766C1.43161 12.7848 1.88785 12.9723 2.38159 13.1848C2.87534 13.3973 5.2878 14.4098 7.74402 15.4347C11.8065 17.1285 12.7314 17.516 14.1189 18.1222C14.8502 18.4472 15.2564 18.5284 15.9501 18.5034C16.4564 18.4847 16.6064 18.4534 17.0501 18.3034C17.3376 18.2097 17.8314 17.9972 18.1501 17.8347C19.2064 17.3035 20.4813 16.741 25.5625 14.5535C30.3437 12.491 30.9687 12.2035 31.4874 11.8473C32.0187 11.466 31.9999 11.5598 31.9999 9.72232C31.9999 8.84108 31.9937 8.12234 31.9874 8.12234L31.8562 8.28484ZM15.1189 10.4348C13.1627 10.7348 11.544 10.9911 11.5127 11.0036C11.469 11.0161 16.3876 13.0848 16.5939 13.141L18.8439 9.90982C18.8376 9.86607 18.8439 9.85982 15.1189 10.4348ZM31.8874 13.7098C31.8437 13.7848 31.6374 13.9598 31.4437 14.1035C30.8062 14.541 29.85 14.9785 24.0375 17.4785C20.6938 18.9222 19.6438 19.3847 18.6501 19.8659C17.0376 20.6472 16.6501 20.7722 15.7877 20.7722C15.1189 20.7659 14.7064 20.6597 13.8189 20.2597C12.9627 19.8659 12.0065 19.4659 8.16901 17.8722C1.47536 15.0972 0.706617 14.7472 0.231624 14.291L0.000377365 14.0723V17.3222L0.262874 17.5722C0.687868 17.9722 0.644118 17.9472 7.81902 20.9347C10.4502 22.0284 12.9314 23.0721 13.3314 23.2534C14.3877 23.7284 14.6939 23.8409 15.1127 23.9284C16.0876 24.1284 16.8126 23.9659 18.3939 23.1971C19.4251 22.6971 20.6813 22.1409 23.725 20.8284C29.5125 18.3347 30.9374 17.691 31.3624 17.4097C31.5124 17.3035 31.7187 17.1347 31.8187 17.0222L31.9999 16.8222V15.1972C31.9999 14.3035 31.9937 13.5723 31.9874 13.5723L31.8874 13.7098ZM31.8312 19.0347C31.4499 19.5159 30.6812 19.8847 24.7125 22.4534C20.8188 24.1346 19.6313 24.6596 18.3501 25.2658C17.0064 25.9033 16.5626 26.0408 15.7877 26.0408C15.2564 26.0408 14.7189 25.9158 14.1252 25.6533C12.7314 25.0409 11.8127 24.6534 7.74402 22.9596C3.11908 21.0347 1.63785 20.4034 1.14411 20.1597C0.681618 19.9284 0.212874 19.5972 0.106626 19.4284L0.000377365 19.2722V20.9284C0.000377365 22.8284 -0.0308722 22.6846 0.475371 23.0284C1.03786 23.4034 1.87535 23.7784 7.43152 26.0846C11.3127 27.6971 12.7127 28.2846 13.4002 28.597C14.8064 29.2283 15.1814 29.3283 15.9689 29.2845C16.6876 29.2533 17.1564 29.097 18.4001 28.5033C19.6938 27.8846 20.6501 27.4533 24.8813 25.6346C30.7562 23.1034 31.3937 22.7971 31.8374 22.2846L31.9937 22.1096V20.4909C31.9937 19.5972 31.9874 18.8659 31.9812 18.8659L31.8312 19.0347Z" fill="#111827"/>
</svg>
