<svg width="33" height="33" viewBox="0 0 33 33" fill="none" xmlns="http://www.w3.org/2000/svg">
<path d="M15.6663 7.0801C15.6663 7.08947 15.7788 7.30041 15.9195 7.5629C16.0601 7.82071 16.1585 8.04102 16.1445 8.05508C16.1304 8.06446 15.7367 8.21446 15.2726 8.37852C14.8039 8.54727 14.4335 8.68789 14.4382 8.69258C14.4429 8.69726 14.9726 8.75351 15.6101 8.81445C16.3788 8.88476 16.7819 8.93632 16.8101 8.96913C16.8335 8.99257 17.0116 9.2785 17.2038 9.59725L17.5507 10.1785L17.6116 10.0332C17.6444 9.95818 17.7522 9.70037 17.846 9.47069L18.0194 9.05351L18.9429 8.95507C19.4491 8.89882 19.8991 8.85664 19.946 8.85664L20.0257 8.82382C20.0257 8.80976 19.6835 8.66914 19.2616 8.50977C18.8444 8.35508 18.4976 8.21915 18.4976 8.21446C18.4976 8.20977 18.5866 7.98946 18.6991 7.72228C18.8069 7.45509 18.8913 7.2301 18.8866 7.22541C18.8772 7.21603 18.521 7.32385 18.0991 7.45978L17.3351 7.7129L16.5148 7.38947C15.7085 7.07072 15.6663 7.05666 15.6663 7.0801ZM20.7569 9.85037C19.7772 10.2394 18.971 10.5629 18.9663 10.5722C18.9569 10.5816 19.6882 10.8769 20.5881 11.2332L22.2194 11.8753L22.3928 11.805C24.2115 11.0972 25.8615 10.441 25.8568 10.4316L22.5803 9.14257C22.5475 9.14726 21.7319 9.46131 20.7569 9.85037ZM11.3539 9.47069C10.4117 9.56913 9.62424 9.841 9.29143 10.1879C9.06175 10.4222 9.02425 10.6238 9.16956 10.8675C9.38049 11.2332 10.0742 11.5378 11.0305 11.6925C11.4617 11.7675 12.7226 11.7535 13.1586 11.6785C14.1804 11.5003 14.846 11.1722 15.0007 10.7597C15.057 10.605 15.057 10.5863 15.0007 10.4363C14.846 10.0379 14.1945 9.70506 13.2289 9.53631C12.7414 9.45663 11.832 9.42382 11.3539 9.47069ZM28.8521 10.605C28.8052 10.666 28.6318 10.8066 28.463 10.9191C27.9662 11.2379 27.3287 11.5285 23.349 13.2441C20.5506 14.4441 19.8382 14.7628 18.8725 15.2269C17.7991 15.7378 17.3538 15.8831 16.8148 15.8831C16.332 15.8831 16.0413 15.7987 15.1413 15.4003C14.7804 15.2409 13.3039 14.6222 11.8648 14.0222C5.56024 11.4019 5.44305 11.3457 5.10555 10.98L4.96493 10.8254V13.2956L5.1243 13.4503C5.27899 13.6003 5.79929 13.9144 5.9821 13.9659C6.03367 13.98 6.37585 14.1206 6.74616 14.28C7.11646 14.4394 8.92581 15.1987 10.768 15.9675C13.8148 17.2378 14.5085 17.5284 15.5492 17.9831C16.0976 18.2268 16.4023 18.2878 16.9226 18.269C17.3023 18.2549 17.4148 18.2315 17.7476 18.119C17.9632 18.0487 18.3335 17.8893 18.5725 17.7674C19.3647 17.369 20.321 16.9471 24.1318 15.3065C27.7177 13.7597 28.1865 13.5441 28.5755 13.2769C28.974 12.991 28.9599 13.0613 28.9599 11.6832C28.9599 11.0222 28.9552 10.4832 28.9505 10.4832L28.8521 10.605ZM16.2991 12.2175C14.832 12.4425 13.6179 12.6347 13.5945 12.6441C13.5617 12.6535 17.2507 14.205 17.4054 14.2472L19.0929 11.8238C19.0882 11.791 19.0929 11.7863 16.2991 12.2175ZM28.8755 14.6737C28.8427 14.73 28.688 14.8612 28.5427 14.969C28.0646 15.2972 27.3474 15.6253 22.9881 17.5003C20.4803 18.5831 19.6928 18.9299 18.9475 19.2909C17.7382 19.8768 17.4476 19.9705 16.8007 19.9705C16.2991 19.9659 15.9898 19.8862 15.3242 19.5862C14.682 19.2909 13.9648 18.9909 11.0867 17.7956C6.06648 15.7144 5.48992 15.4519 5.13368 15.1097L4.96024 14.9456V17.3831L5.15712 17.5706C5.47586 17.8706 5.44305 17.8518 10.8242 20.0924C12.7976 20.9127 14.6585 21.6955 14.9585 21.8315C15.7507 22.1877 15.9804 22.2721 16.2945 22.3377C17.0257 22.4877 17.5694 22.3658 18.7554 21.7893C19.5288 21.4143 20.471 20.9971 22.7537 20.0127C27.0943 18.1424 28.163 17.6596 28.4818 17.4487C28.5943 17.369 28.749 17.2425 28.824 17.1581L28.9599 17.0081V15.7893C28.9599 15.119 28.9552 14.5706 28.9505 14.5706L28.8755 14.6737ZM28.8333 18.6674C28.5474 19.0284 27.9709 19.3049 23.4944 21.2315C20.5741 22.4924 19.6835 22.8861 18.7225 23.3408C17.7147 23.8189 17.3819 23.922 16.8007 23.922C16.4023 23.922 15.9991 23.8283 15.5538 23.6314C14.5085 23.1721 13.8195 22.8814 10.768 21.6111C7.29927 20.1674 6.18835 19.694 5.81804 19.5112C5.47117 19.3377 5.11962 19.0893 5.03993 18.9627L4.96024 18.8456V20.0877C4.96024 21.5127 4.93681 21.4049 5.31649 21.6627C5.73836 21.9439 6.36647 22.2252 10.5336 23.9549C13.4445 25.1642 14.4945 25.6048 15.0101 25.8392C16.0648 26.3126 16.346 26.3876 16.9366 26.3548C17.4757 26.3314 17.8272 26.2142 18.76 25.7689C19.7303 25.3048 20.4475 24.9814 23.6209 23.6174C28.0271 21.719 28.5052 21.4893 28.838 21.1049L28.9552 20.9736V19.7596C28.9552 19.0893 28.9505 18.5409 28.9458 18.5409L28.8333 18.6674Z" fill="#1C1B1F"/>
</svg>
