<svg width="33" height="33" viewBox="0 0 33 33" fill="none" xmlns="http://www.w3.org/2000/svg">
<path d="M15.6663 7.22158C15.6663 7.23095 15.7788 7.44189 15.9195 7.70438C16.0601 7.96219 16.1585 8.1825 16.1445 8.19656C16.1304 8.20594 15.7367 8.35594 15.2726 8.52C14.8039 8.68874 14.4335 8.82937 14.4382 8.83406C14.4429 8.83874 14.9726 8.89499 15.6101 8.95593C16.3788 9.02624 16.7819 9.0778 16.8101 9.11061C16.8335 9.13405 17.0116 9.41998 17.2038 9.73873L17.5507 10.32L17.6116 10.1747C17.6444 10.0997 17.7522 9.84185 17.846 9.61217L18.0194 9.19499L18.9429 9.09655C19.4491 9.0403 19.8991 8.99812 19.946 8.99812L20.0257 8.9653C20.0257 8.95124 19.6835 8.81062 19.2616 8.65125C18.8444 8.49656 18.4976 8.36062 18.4976 8.35594C18.4976 8.35125 18.5866 8.13094 18.6991 7.86376C18.8069 7.59657 18.8913 7.37158 18.8866 7.36689C18.8772 7.35751 18.521 7.46532 18.0991 7.60126L17.3351 7.85438L16.5148 7.53095C15.7085 7.2122 15.6663 7.19814 15.6663 7.22158ZM20.7569 9.99185C19.7772 10.3809 18.971 10.7043 18.9663 10.7137C18.9569 10.7231 19.6882 11.0184 20.5881 11.3746L22.2194 12.0168L22.3928 11.9465C24.2115 11.2387 25.8615 10.5825 25.8568 10.5731L22.5803 9.28405C22.5475 9.28874 21.7319 9.60279 20.7569 9.99185ZM11.3539 9.61217C10.4117 9.71061 9.62424 9.98248 9.29143 10.3293C9.06175 10.5637 9.02425 10.7653 9.16956 11.009C9.38049 11.3746 10.0742 11.6793 11.0305 11.834C11.4617 11.909 12.7226 11.8949 13.1586 11.82C14.1804 11.6418 14.846 11.3137 15.0007 10.9012C15.057 10.7465 15.057 10.7278 15.0007 10.5778C14.846 10.1793 14.1945 9.84654 13.2289 9.67779C12.7414 9.59811 11.832 9.56529 11.3539 9.61217ZM28.8521 10.7465C28.8052 10.8075 28.6318 10.9481 28.463 11.0606C27.9662 11.3793 27.3287 11.67 23.349 13.3856C20.5506 14.5855 19.8382 14.9043 18.8725 15.3683C17.7991 15.8793 17.3538 16.0246 16.8148 16.0246C16.332 16.0246 16.0413 15.9402 15.1413 15.5418C14.7804 15.3824 13.3039 14.7637 11.8648 14.1637C5.56024 11.5434 5.44305 11.4871 5.10555 11.1215L4.96493 10.9668V13.4371L5.1243 13.5918C5.27899 13.7418 5.79929 14.0559 5.9821 14.1074C6.03367 14.1215 6.37585 14.2621 6.74616 14.4215C7.11646 14.5808 8.92581 15.3402 10.768 16.109C13.8148 17.3792 14.5085 17.6699 15.5492 18.1245C16.0976 18.3683 16.4023 18.4292 16.9226 18.4105C17.3023 18.3964 17.4148 18.373 17.7476 18.2605C17.9632 18.1902 18.3335 18.0308 18.5725 17.9089C19.3647 17.5105 20.321 17.0886 24.1318 15.448C27.7177 13.9012 28.1865 13.6855 28.5755 13.4184C28.974 13.1324 28.9599 13.2027 28.9599 11.8246C28.9599 11.1637 28.9552 10.6247 28.9505 10.6247L28.8521 10.7465ZM16.2991 12.359C14.832 12.584 13.6179 12.7762 13.5945 12.7856C13.5617 12.7949 17.2507 14.3465 17.4054 14.3887L19.0929 11.9653C19.0882 11.9324 19.0929 11.9278 16.2991 12.359ZM28.8755 14.8152C28.8427 14.8715 28.688 15.0027 28.5427 15.1105C28.0646 15.4386 27.3474 15.7668 22.9881 17.6417C20.4803 18.7245 19.6928 19.0714 18.9475 19.4323C17.7382 20.0183 17.4476 20.112 16.8007 20.112C16.2991 20.1073 15.9898 20.0276 15.3242 19.7277C14.682 19.4323 13.9648 19.1323 11.0867 17.9371C6.06648 15.8558 5.48992 15.5933 5.13368 15.2512L4.96024 15.0871V17.5246L5.15712 17.7121C5.47586 18.012 5.44305 17.9933 10.8242 20.2339C12.7976 21.0542 14.6585 21.837 14.9585 21.9729C15.7507 22.3292 15.9804 22.4135 16.2945 22.4792C17.0257 22.6292 17.5694 22.5073 18.7554 21.9307C19.5288 21.5557 20.471 21.1386 22.7537 20.1542C27.0943 18.2839 28.163 17.8011 28.4818 17.5902C28.5943 17.5105 28.749 17.3839 28.824 17.2996L28.9599 17.1496V15.9308C28.9599 15.2605 28.9552 14.7121 28.9505 14.7121L28.8755 14.8152ZM28.8333 18.8089C28.5474 19.1698 27.9709 19.4464 23.4944 21.3729C20.5741 22.6339 19.6835 23.0276 18.7225 23.4823C17.7147 23.9604 17.3819 24.0635 16.8007 24.0635C16.4023 24.0635 15.9991 23.9698 15.5538 23.7729C14.5085 23.3135 13.8195 23.0229 10.768 21.7526C7.29927 20.3089 6.18835 19.8355 5.81804 19.6527C5.47117 19.4792 5.11962 19.2308 5.03993 19.1042L4.96024 18.987V20.2292C4.96024 21.6542 4.93681 21.5464 5.31649 21.8042C5.73836 22.0854 6.36647 22.3667 10.5336 24.0963C13.4445 25.3057 14.4945 25.7463 15.0101 25.9807C16.0648 26.4541 16.346 26.5291 16.9366 26.4963C17.4757 26.4729 17.8272 26.3557 18.76 25.9104C19.7303 25.4463 20.4475 25.1229 23.6209 23.7588C28.0271 21.8604 28.5052 21.6307 28.838 21.2464L28.9552 21.1151V19.9011C28.9552 19.2308 28.9505 18.6824 28.9458 18.6824L28.8333 18.8089Z" fill="#1C1B1F"/>
</svg>
