<svg width="32" height="33" viewBox="0 0 32 33" fill="none" xmlns="http://www.w3.org/2000/svg">
<g clip-path="url(#clip0_728_342)">
<path fill-rule="evenodd" clip-rule="evenodd" d="M8.72076 16.0303C8.93463 16.0303 9.10802 16.2037 9.10802 16.4175C9.10802 19.2454 10.6045 21.7241 12.8505 23.1044C13.0328 23.2164 13.0897 23.4548 12.9777 23.6371C12.8657 23.8193 12.6272 23.8762 12.445 23.7643C9.97926 22.249 8.3335 19.5256 8.3335 16.4175C8.3335 16.2037 8.50688 16.0303 8.72076 16.0303Z" fill="#111827"/>
<path fill-rule="evenodd" clip-rule="evenodd" d="M16.9506 8.57506C16.0797 8.57506 15.2427 8.71686 14.461 8.97834C14.2582 9.04618 14.0387 8.93676 13.9709 8.73392C13.903 8.53109 14.0125 8.31167 14.2153 8.24382C15.0752 7.95619 15.9951 7.80054 16.9506 7.80054C20.4149 7.80054 23.4009 9.84484 24.7696 12.7912C24.8597 12.9852 24.7755 13.2155 24.5815 13.3056C24.3876 13.3957 24.1573 13.3115 24.0672 13.1175C22.8207 10.4343 20.1024 8.57506 16.9506 8.57506ZM11.431 10.3009C11.5815 10.4528 11.5805 10.698 11.4286 10.8486C10.7835 11.4883 10.2491 12.2391 9.85635 13.0697C9.76493 13.2631 9.53408 13.3457 9.34072 13.2543C9.14737 13.1629 9.06473 12.932 9.15615 12.7386C9.5878 11.8257 10.175 11.001 10.8833 10.2986C11.0352 10.148 11.2804 10.149 11.431 10.3009Z" fill="#111827"/>
<path fill-rule="evenodd" clip-rule="evenodd" d="M16.7332 7.21441C11.649 7.21441 7.65093 11.3778 7.65093 16.4714C7.65093 21.5628 11.82 25.8207 16.9064 25.8207C21.9971 25.8207 26.2582 21.6225 26.2582 16.5354C26.2582 15.9815 26.1973 15.2771 26.104 14.7513L26.087 14.6555L29.0461 11.515L29.3279 11.7806L26.5017 14.78C26.5897 15.3157 26.6455 15.9927 26.6455 16.5354C26.6455 21.8399 22.2074 26.208 16.9064 26.208C11.6012 26.208 7.26367 21.7717 7.26367 16.4714C7.26367 11.1734 11.4257 6.82715 16.7332 6.82715C20.5477 6.82715 24.1335 9.06837 25.6971 12.3044L28.1804 9.52736L28.4691 9.7855L25.589 13.0062L25.4678 12.7313C24.042 9.49714 20.5069 7.21441 16.7332 7.21441Z" fill="#111827"/>
<path fill-rule="evenodd" clip-rule="evenodd" d="M16.9296 3.91598C10.0727 3.91598 4.51419 9.47454 4.51419 16.3314C4.51419 18.8039 5.23617 21.1055 6.48055 23.0395L6.84886 23.612L2.16432 27.5616C1.39211 28.2046 1.33889 29.3719 2.0494 30.0824C2.75992 30.7929 3.92722 30.7397 4.57014 29.9675L4.57409 29.9627L8.42642 25.4101L9.01665 25.8988C11.1653 27.678 13.9216 28.7467 16.9296 28.7467C23.7864 28.7467 29.345 23.1882 29.345 16.3314C29.345 14.7061 29.2118 13.3344 28.6454 11.9138L29.7727 10.7626C30.4107 12.3626 30.894 14.5064 30.894 16.3314C30.894 24.0437 24.6419 30.2958 16.9296 30.2958C13.8232 30.2958 10.9522 29.2807 8.63247 27.5646L5.76059 30.9586L5.75855 30.961C4.53221 32.4312 2.30812 32.5318 0.954067 31.1777C-0.400098 29.8235 -0.299361 27.5992 1.17111 26.3729L1.17318 26.3712L4.82241 23.2944C3.64097 21.2443 2.96516 18.8657 2.96516 16.3314C2.96516 8.61903 9.21724 2.36694 16.9296 2.36694C22.126 2.36694 26.6584 5.20562 29.0625 9.41316L27.9247 10.3888C25.7851 6.64422 21.5477 3.91598 16.9296 3.91598Z" fill="#111827"/>
<path d="M13.234 23.3253C10.7769 22.0005 9.10802 19.4035 9.10802 16.4175H8.3335C8.3335 19.8463 10.336 22.8065 13.234 24.194V23.3253Z" fill="#111827"/>
<path d="M23.491 15.4964V15.2884H20.8908V18.1979L23.491 15.4964Z" fill="#111827"/>
<path d="M20.0766 18.825L20.0766 10.4346H17.4669L17.4669 18.1675L18.0251 17.6469L20.0766 18.825Z" fill="#111827"/>
<path d="M17.4669 19.2267L18.1352 18.6033L20.0766 19.7182L20.0766 24.4499C19.2595 24.7681 18.3822 24.9652 17.4669 25.0193L17.4669 19.2267Z" fill="#111827"/>
<path d="M16.681 18.9006V12.3024H14.0714V19.2454L15.4244 20.0727L16.681 18.9006Z" fill="#111827"/>
<path d="M14.0714 20.1532L15.5223 21.0405L16.681 19.9597V25.0305C15.7688 25.0024 14.8917 24.8325 14.0714 24.5418V20.1532Z" fill="#111827"/>
<path d="M13.2339 18.7333L13.0713 18.6338L10.8827 20.8224L11.4304 21.3701L13.1876 19.6128L13.2339 19.6411V24.1577C12.1404 23.6947 11.1206 22.8227 10.6904 22.3877V15.3443H13.2339V18.7333Z" fill="#111827"/>
<path d="M20.8908 19.3148L23.491 16.6133V20.7468C23.5855 20.6043 23.6755 20.4585 23.7607 20.3097C23.867 20.1241 24.1037 20.0598 24.2893 20.1662C24.4748 20.2725 24.5391 20.5091 24.4328 20.6947C24.1609 21.1694 23.8451 21.6157 23.491 22.0281V22.0375C23.21 22.3662 22.9068 22.6611 22.6052 22.9198C22.2637 23.2171 21.8985 23.4879 21.5129 23.729C21.4999 23.7371 21.4866 23.7443 21.4732 23.7507C21.2475 23.8911 21.0479 24.0007 20.8908 24.0779V19.3148Z" fill="#111827"/>
<ellipse cx="10.9488" cy="21.2828" rx="0.890697" ry="0.890697" fill="white"/>
<ellipse cx="15.5318" cy="20.5294" rx="0.890697" ry="0.890697" fill="white"/>
<ellipse cx="20.2401" cy="19.3309" rx="0.890697" ry="0.890697" fill="white"/>
<ellipse cx="13.1517" cy="19.1927" rx="0.890697" ry="0.890697" fill="white"/>
<ellipse cx="18.0772" cy="18.1353" rx="0.890697" ry="0.890697" fill="white"/>
<ellipse cx="22.7886" cy="16.9459" rx="0.890697" ry="0.890697" fill="white"/>
<path fill-rule="evenodd" clip-rule="evenodd" d="M25.654 13.5603C25.4368 13.5603 25.2607 13.7364 25.2607 13.9536C25.2607 14.1708 25.4368 14.3468 25.654 14.3468C25.8712 14.3468 26.0473 14.1708 26.0473 13.9536C26.0473 13.7364 25.8712 13.5603 25.654 13.5603ZM24.9509 13.9536C24.9509 13.5653 25.2657 13.2505 25.654 13.2505C26.0423 13.2505 26.3571 13.5653 26.3571 13.9536C26.3571 14.3419 26.0423 14.6566 25.654 14.6566C25.2657 14.6566 24.9509 14.3419 24.9509 13.9536ZM22.7887 16.5525C22.5715 16.5525 22.3954 16.7286 22.3954 16.9458C22.3954 17.163 22.5715 17.339 22.7887 17.339C23.0059 17.339 23.182 17.163 23.182 16.9458C23.182 16.7286 23.0059 16.5525 22.7887 16.5525ZM22.0856 16.9458C22.0856 16.5575 22.4004 16.2427 22.7887 16.2427C23.177 16.2427 23.4918 16.5575 23.4918 16.9458C23.4918 17.3341 23.177 17.6488 22.7887 17.6488C22.4004 17.6488 22.0856 17.3341 22.0856 16.9458ZM18.0773 17.7421C17.8601 17.7421 17.684 17.9181 17.684 18.1353C17.684 18.3525 17.8601 18.5286 18.0773 18.5286C18.2945 18.5286 18.4706 18.3525 18.4706 18.1353C18.4706 17.9181 18.2945 17.7421 18.0773 17.7421ZM17.3742 18.1353C17.3742 17.747 17.689 17.4323 18.0773 17.4323C18.4656 17.4323 18.7804 17.747 18.7804 18.1353C18.7804 18.5236 18.4656 18.8384 18.0773 18.8384C17.689 18.8384 17.3742 18.5236 17.3742 18.1353ZM13.1517 18.7993C12.9345 18.7993 12.7584 18.9753 12.7584 19.1925C12.7584 19.4097 12.9345 19.5858 13.1517 19.5858C13.3689 19.5858 13.5449 19.4097 13.5449 19.1925C13.5449 18.9753 13.3689 18.7993 13.1517 18.7993ZM12.4486 19.1925C12.4486 18.8042 12.7634 18.4895 13.1517 18.4895C13.54 18.4895 13.8547 18.8042 13.8547 19.1925C13.8547 19.5808 13.54 19.8956 13.1517 19.8956C12.7634 19.8956 12.4486 19.5808 12.4486 19.1925ZM20.2401 18.9375C20.0229 18.9375 19.8469 19.1136 19.8469 19.3308C19.8469 19.548 20.0229 19.724 20.2401 19.724C20.4573 19.724 20.6334 19.548 20.6334 19.3308C20.6334 19.1136 20.4573 18.9375 20.2401 18.9375ZM19.5371 19.3308C19.5371 18.9425 19.8518 18.6277 20.2401 18.6277C20.6284 18.6277 20.9432 18.9425 20.9432 19.3308C20.9432 19.7191 20.6284 20.0338 20.2401 20.0338C19.8518 20.0338 19.5371 19.7191 19.5371 19.3308ZM15.5318 20.1361C15.3146 20.1361 15.1385 20.3122 15.1385 20.5294C15.1385 20.7466 15.3146 20.9227 15.5318 20.9227C15.749 20.9227 15.925 20.7466 15.925 20.5294C15.925 20.3122 15.749 20.1361 15.5318 20.1361ZM14.8287 20.5294C14.8287 20.1411 15.1435 19.8263 15.5318 19.8263C15.9201 19.8263 16.2348 20.1411 16.2348 20.5294C16.2348 20.9177 15.9201 21.2325 15.5318 21.2325C15.1435 21.2325 14.8287 20.9177 14.8287 20.5294ZM10.9489 20.8895C10.7317 20.8895 10.5557 21.0656 10.5557 21.2828C10.5557 21.5 10.7317 21.676 10.9489 21.676C11.1661 21.676 11.3422 21.5 11.3422 21.2828C11.3422 21.0656 11.1661 20.8895 10.9489 20.8895ZM10.2458 21.2828C10.2458 20.8945 10.5606 20.5797 10.9489 20.5797C11.3372 20.5797 11.652 20.8945 11.652 21.2828C11.652 21.6711 11.3372 21.9858 10.9489 21.9858C10.5606 21.9858 10.2458 21.6711 10.2458 21.2828Z" fill="#111827"/>
<path d="M31.9999 7.21436L29.8517 7.8342L30.5176 8.47517L25.762 13.4161C25.8979 13.4434 26.0157 13.521 26.095 13.6286L30.7966 8.74372L31.4626 9.38468L31.9999 7.21436Z" fill="#111827"/>
<path d="M25.3456 14.4072C25.2348 14.3318 25.153 14.2168 25.1206 14.0825L22.8843 16.406C23.0218 16.4303 23.1416 16.5059 23.2233 16.6122L25.3456 14.4072Z" fill="#111827"/>
<path d="M20.5217 18.8606L22.2525 17.0624C22.2819 17.1984 22.3618 17.3155 22.4715 17.3933L20.7633 19.1681C20.723 19.0384 20.6359 18.9293 20.5217 18.8606Z" fill="#111827"/>
<path d="M19.6942 19.2756C19.7079 19.1388 19.7718 19.0168 19.8673 18.9284L18.6197 18.2119C18.6007 18.3472 18.5324 18.4667 18.4335 18.5516L19.6942 19.2756Z" fill="#111827"/>
<path d="M17.8289 18.6244L16.0302 20.3021C15.9749 20.1809 15.8768 20.0835 15.7553 20.029L17.5675 18.3386C17.6171 18.4626 17.7106 18.5643 17.8289 18.6244Z" fill="#111827"/>
<path d="M13.5257 19.5928C13.6209 19.5037 13.6843 19.381 13.697 19.2437L15.1521 20.1335C15.0579 20.2237 14.9959 20.3472 14.9848 20.4851L13.5257 19.5928Z" fill="#111827"/>
<path d="M12.6266 19.3523C12.6661 19.4821 12.7524 19.5915 12.8659 19.6607L11.4546 21.072C11.4033 20.9488 11.3083 20.8484 11.189 20.79L12.6266 19.3523Z" fill="#111827"/>
</g>
<defs>
<clipPath id="clip0_728_342">
<rect width="32" height="32" fill="white" transform="translate(0 0.131836)"/>
</clipPath>
</defs>
</svg>
