<svg width="32" height="33" viewBox="0 0 32 33" fill="none" xmlns="http://www.w3.org/2000/svg">
<path fill-rule="evenodd" clip-rule="evenodd" d="M26.4034 1.1154C26.0129 0.724879 25.3797 0.724879 24.9892 1.1154C24.5987 1.50593 24.5987 2.13909 24.9892 2.52962L28.585 6.12543H11.0003C8.08311 6.12543 5.28539 7.28429 3.22261 9.34706C1.15983 11.4098 0.000976562 14.2076 0.000976562 17.1248C0.000976562 17.6771 0.448692 18.1248 1.00098 18.1248C1.55326 18.1248 2.00098 17.6771 2.00098 17.1248C2.00098 14.738 2.94912 12.449 4.63682 10.7613C6.32453 9.07357 8.61355 8.12543 11.0003 8.12543H28.5851L24.9892 11.7213C24.5987 12.1118 24.5987 12.745 24.9892 13.1355C25.3797 13.526 26.0129 13.526 26.4034 13.1355L31.7064 7.83257C32.0969 7.44205 32.0969 6.80888 31.7064 6.41836L26.4034 1.1154Z" fill="#111827"/>
<path fill-rule="evenodd" clip-rule="evenodd" d="M31.999 15.8752C31.999 15.323 31.5513 14.8752 30.999 14.8752C30.4467 14.8752 29.999 15.323 29.999 15.8752C29.999 18.262 29.0509 20.551 27.3632 22.2387C25.6755 23.9264 23.3864 24.8746 20.9997 24.8746H3.41543L7.01125 21.2788C7.40177 20.8882 7.40177 20.2551 7.01125 19.8646C6.62073 19.474 5.98756 19.474 5.59704 19.8646L0.306966 25.1546C0.118321 25.3365 0.000976562 25.5918 0.000976562 25.8746C0.000976562 26.1566 0.117751 26.4114 0.305592 26.5932L5.59704 31.8847C5.98756 32.2752 6.62073 32.2752 7.01125 31.8847C7.40177 31.4941 7.40177 30.861 7.01125 30.4705L3.41538 26.8746H20.9997C23.9169 26.8746 26.7146 25.7157 28.7774 23.653C30.8402 21.5902 31.999 18.7925 31.999 15.8752Z" fill="#111827"/>
<path d="M16.9585 20.2498V13.6616C16.9585 13.2669 16.5227 13.0279 16.1899 13.2399L15.041 13.9717" stroke="#111827" stroke-width="2" stroke-linecap="round"/>
</svg>
