<svg width="33" height="33" viewBox="0 0 33 33" fill="none" xmlns="http://www.w3.org/2000/svg">
<path fill-rule="evenodd" clip-rule="evenodd" d="M25.4244 4.83318C25.0339 4.44265 24.4007 4.44265 24.0102 4.83318C23.6197 5.2237 23.6197 5.85687 24.0102 6.24739L26.5457 8.78296H12.96C10.573 8.78296 8.28383 9.73117 6.596 11.419C4.90817 13.1068 3.95996 15.396 3.95996 17.783C3.95996 18.3352 4.40768 18.783 4.95996 18.783C5.51225 18.783 5.95996 18.3352 5.95996 17.783C5.95996 15.9264 6.69746 14.146 8.01021 12.8332C9.32297 11.5205 11.1034 10.783 12.96 10.783H26.5457L24.0102 13.3185C23.6197 13.709 23.6197 14.3421 24.0102 14.7327C24.4007 15.1232 25.0339 15.1232 25.4244 14.7327L29.66 10.4971C29.6882 10.4695 29.7147 10.4402 29.7395 10.4094C29.7864 10.3512 29.8258 10.289 29.8577 10.224C29.9232 10.091 29.96 9.94127 29.96 9.78296C29.96 9.63908 29.9296 9.50229 29.8749 9.37867C29.8275 9.27145 29.7604 9.17085 29.6735 9.08239C29.6713 9.08009 29.669 9.0778 29.6667 9.07552M25.4244 4.83318L29.6667 9.07552L25.4244 4.83318Z" fill="#1C1B1F"/>
<path fill-rule="evenodd" clip-rule="evenodd" d="M29.96 16.783C29.96 16.2307 29.5122 15.783 28.96 15.783C28.4077 15.783 27.96 16.2307 27.96 16.783C27.96 18.6395 27.2225 20.42 25.9097 21.7327C24.597 23.0455 22.8165 23.783 20.96 23.783H7.37417L9.90974 21.2474C10.3003 20.8569 10.3003 20.2237 9.90974 19.8332C9.51922 19.4427 8.88605 19.4427 8.49553 19.8332L4.25289 24.0758C4.16269 24.166 4.09332 24.2692 4.04479 24.3793C3.99025 24.5027 3.95996 24.6393 3.95996 24.783C3.95996 24.9413 3.99675 25.091 4.06224 25.224C4.09374 25.2881 4.13254 25.3496 4.17861 25.4071C4.20391 25.4387 4.23109 25.4688 4.25999 25.4971L8.49553 29.7327C8.88605 30.1232 9.51922 30.1232 9.90974 29.7327C10.3003 29.3421 10.3003 28.709 9.90974 28.3185L7.37424 25.783H20.96C23.3469 25.783 25.6361 24.8347 27.3239 23.1469C29.0117 21.4591 29.96 19.1699 29.96 16.783Z" fill="#1C1B1F"/>
</svg>
