<svg width="32" height="32" viewBox="0 0 32 32" fill="none" xmlns="http://www.w3.org/2000/svg">
<path fill-rule="evenodd" clip-rule="evenodd" d="M5.57775 1.0022C5.57775 0.449912 6.02547 0.00219727 6.57775 0.00219727H31.0007C31.553 0.00219727 32.0007 0.449912 32.0007 1.0022V25.2084C32.0007 25.7607 31.553 26.2084 31.0007 26.2084H14.7611V31.4977C14.7611 31.7739 14.5372 31.9977 14.2611 31.9977H0.499511C0.223369 31.9977 -0.000488281 31.7739 -0.000488281 31.4977V17.6932C-0.000488281 17.417 0.223369 17.1932 0.499512 17.1932H5.57775V1.0022ZM30.0007 24.2084H14.7611V18.8347L24.5495 9.04629V15.1761C24.5495 15.7284 24.9972 16.1761 25.5495 16.1761C26.1018 16.1761 26.5495 15.7284 26.5495 15.1761V6.63277C26.5495 6.10844 26.146 5.67836 25.6325 5.63617C25.6004 5.63348 25.5681 5.63235 25.5359 5.63277H17.0061C16.4539 5.63277 16.0061 6.08048 16.0061 6.63277C16.0061 7.18505 16.4539 7.63277 17.0061 7.63277L23.1346 7.63277L13.5742 17.1932H7.57775V2.0022H30.0007V24.2084Z" fill="#111827"/>
</svg>
