<svg width="32" height="33" viewBox="0 0 32 33" fill="none" xmlns="http://www.w3.org/2000/svg">
<path fill-rule="evenodd" clip-rule="evenodd" d="M16 32.5C24.8366 32.5 32 25.3366 32 16.5C32 7.66344 24.8366 0.5 16 0.5C7.16344 0.5 0 7.66344 0 16.5C0 25.3366 7.16344 32.5 16 32.5ZM15.814 16.9247C15.4991 16.7291 15.4991 16.2709 15.814 16.0753L23.0089 11.6063C23.342 11.3994 23.7727 11.6389 23.7727 12.031V20.969C23.7727 21.3611 23.342 21.6006 23.0089 21.3937L15.814 16.9247ZM6.61349 16.0753C6.29858 16.2709 6.29858 16.7291 6.61349 16.9247L13.8084 21.3937C14.1414 21.6006 14.5722 21.3611 14.5722 20.969V12.031C14.5722 11.6389 14.1414 11.3994 13.8084 11.6063L6.61349 16.0753Z" fill="#111827"/>
</svg>
