<svg width="33" height="33" viewBox="0 0 33 33" fill="none" xmlns="http://www.w3.org/2000/svg">
<path fill-rule="evenodd" clip-rule="evenodd" d="M17.96 8.29952C18.6055 7.94557 19.0431 7.25965 19.0431 6.47152C19.0431 5.32092 18.1104 4.38818 16.9598 4.38818C15.8092 4.38818 14.8765 5.32092 14.8765 6.47152C14.8765 7.25979 15.3143 7.94581 15.96 8.29969V10.4263H9.95996C7.19854 10.4263 4.95996 12.6648 4.95996 15.4263V23.1778C4.95996 25.9392 7.19854 28.1778 9.95996 28.1778H23.96C26.7214 28.1778 28.96 25.9392 28.96 23.1778V15.4263C28.96 12.6648 26.7214 10.4263 23.96 10.4263H17.96V8.29952ZM12.96 16.552C12.96 17.3804 12.2884 18.052 11.46 18.052C10.6315 18.052 9.95996 17.3804 9.95996 16.552C9.95996 15.7236 10.6315 15.052 11.46 15.052C12.2884 15.052 12.96 15.7236 12.96 16.552ZM19.46 24.552C20.0122 24.552 20.46 24.1043 20.46 23.552C20.46 22.9997 20.0122 22.552 19.46 22.552H14.46C13.9077 22.552 13.46 22.9997 13.46 23.552C13.46 24.1043 13.9077 24.552 14.46 24.552H19.46ZM22.46 18.052C23.2884 18.052 23.96 17.3804 23.96 16.552C23.96 15.7236 23.2884 15.052 22.46 15.052C21.6315 15.052 20.96 15.7236 20.96 16.552C20.96 17.3804 21.6315 18.052 22.46 18.052Z" fill="#1C1B1F"/>
</svg>
