<svg width="32" height="33" viewBox="0 0 32 33" fill="none" xmlns="http://www.w3.org/2000/svg">
<path fill-rule="evenodd" clip-rule="evenodd" d="M17 6.01017C18.0399 5.60866 18.7776 4.59943 18.7776 3.41791C18.7776 1.88379 17.5339 0.640137 15.9998 0.640137C14.4657 0.640137 13.222 1.88379 13.222 3.41791C13.222 4.59959 13.9599 5.60894 15 6.01033V8.69092H5C2.23858 8.69092 0 10.9295 0 13.6909V27.3596C0 30.121 2.23858 32.3596 5 32.3596H27C29.7614 32.3596 32 30.121 32 27.3596V13.6909C32 10.9295 29.7614 8.69092 27 8.69092L17 8.69093V6.01017ZM23.3335 18.8586C24.4381 18.8586 25.3335 17.9631 25.3335 16.8586C25.3335 15.754 24.4381 14.8586 23.3335 14.8586C22.2289 14.8586 21.3335 15.754 21.3335 16.8586C21.3335 17.9631 22.2289 18.8586 23.3335 18.8586ZM10.6667 16.8586C10.6667 17.9632 9.77124 18.8586 8.66667 18.8586C7.5621 18.8586 6.66667 17.9632 6.66667 16.8586C6.66667 15.7541 7.5621 14.8586 8.66667 14.8586C9.77124 14.8586 10.6667 15.7541 10.6667 16.8586ZM19.3335 27.1919C19.8858 27.1919 20.3335 26.7442 20.3335 26.1919C20.3335 25.6396 19.8858 25.1919 19.3335 25.1919H12.6668C12.1145 25.1919 11.6668 25.6396 11.6668 26.1919C11.6668 26.7442 12.1145 27.1919 12.6668 27.1919H19.3335Z" fill="#111827"/>
</svg>
