<svg width="32" height="33" viewBox="0 0 32 33" fill="none" xmlns="http://www.w3.org/2000/svg">
<path fill-rule="evenodd" clip-rule="evenodd" d="M13.6037 4.05835C13.0514 4.05835 12.6037 4.50606 12.6037 5.05835C12.6037 5.61063 13.0514 6.05835 13.6037 6.05835H18.5057C19.058 6.05835 19.5057 5.61063 19.5057 5.05835C19.5057 4.50606 19.058 4.05835 18.5057 4.05835H13.6037ZM9.60212 8.25833C9.60212 7.70605 10.0498 7.25833 10.6021 7.25833H21.5073C22.0595 7.25833 22.5073 7.70605 22.5073 8.25833C22.5073 8.81062 22.0595 9.25833 21.5073 9.25833H10.6021C10.0498 9.25833 9.60212 8.81062 9.60212 8.25833ZM3.16154 12.3916C3.16154 11.2871 4.05697 10.3917 5.16154 10.3917H26.8385C27.9431 10.3917 28.8385 11.2871 28.8385 12.3917V26.9418C28.8385 28.0464 27.9431 28.9418 26.8385 28.9418H5.16154C4.05697 28.9418 3.16154 28.0464 3.16154 26.9418V12.3916ZM10.6785 23.0156C12.4458 23.0156 13.8785 21.5829 13.8785 19.8156C13.8785 18.0483 12.4458 16.6156 10.6785 16.6156C8.9112 16.6156 7.47852 18.0483 7.47852 19.8156C7.47852 21.5829 8.9112 23.0156 10.6785 23.0156ZM24.2685 19.8156C24.2685 21.5829 22.8358 23.0156 21.0685 23.0156C19.3012 23.0156 17.8686 21.5829 17.8686 19.8156C17.8686 18.0483 19.3012 16.6156 21.0685 16.6156C22.8358 16.6156 24.2685 18.0483 24.2685 19.8156ZM29.4838 22.9201V16.7109C30.8751 16.7166 32 17.8462 32 19.2376V20.4039C32 21.7935 30.8734 22.9201 29.4838 22.9201ZM2.51623 16.7109V22.9201C1.12655 22.9201 0 21.7935 0 20.4039V19.2376C0 17.8462 1.12487 16.7166 2.51623 16.7109Z" fill="#111827"/>
</svg>
