<svg width="32" height="32" viewBox="0 0 32 32" fill="none" xmlns="http://www.w3.org/2000/svg">
<path fill-rule="evenodd" clip-rule="evenodd" d="M17 5.51029C18.0399 5.10878 18.7776 4.09955 18.7776 2.91804C18.7776 1.38391 17.5339 0.140259 15.9998 0.140259C14.4657 0.140259 13.222 1.38391 13.222 2.91804C13.222 4.09972 13.9599 5.10906 15 5.51046V8.19104H5C2.23858 8.19104 0 10.4296 0 13.191V26.8597C0 29.6211 2.23858 31.8597 5 31.8597H27C29.7614 31.8597 32 29.6211 32 26.8597V13.191C32 10.4296 29.7614 8.19104 27 8.19104L17 8.19105V5.51029ZM23.3335 18.3587C24.4381 18.3587 25.3335 17.4633 25.3335 16.3587C25.3335 15.2541 24.4381 14.3587 23.3335 14.3587C22.2289 14.3587 21.3335 15.2541 21.3335 16.3587C21.3335 17.4633 22.2289 18.3587 23.3335 18.3587ZM10.6667 16.3588C10.6667 17.4633 9.77124 18.3588 8.66667 18.3588C7.5621 18.3588 6.66667 17.4633 6.66667 16.3588C6.66667 15.2542 7.5621 14.3588 8.66667 14.3588C9.77124 14.3588 10.6667 15.2542 10.6667 16.3588ZM19.3335 26.692C19.8858 26.692 20.3335 26.2443 20.3335 25.692C20.3335 25.1397 19.8858 24.692 19.3335 24.692H12.6668C12.1145 24.692 11.6668 25.1397 11.6668 25.692C11.6668 26.2443 12.1145 26.692 12.6668 26.692H19.3335Z" fill="#111827"/>
</svg>
