<svg width="32" height="34" viewBox="0 0 32 34" fill="none" xmlns="http://www.w3.org/2000/svg">
<path fill-rule="evenodd" clip-rule="evenodd" d="M3.17485 33.0711L10.7184 27.6161H21.3088V27.599L28.8243 33.0447C29.1286 33.2653 29.5309 33.2965 29.8656 33.1257C30.2004 32.9549 30.4111 32.6108 30.4111 32.235V22.9149C30.4111 22.6543 30.3094 22.404 30.1276 22.2173L21.3088 13.1586V10.414C21.2025 5.33335 18.3298 2.13226 16.5437 0.889888C16.2612 0.69335 15.8913 0.691194 15.5981 0.871393C11.4225 3.43733 10.5848 8.25479 10.7015 10.414V13.1541L1.87196 22.2336C1.69043 22.4202 1.58887 22.6704 1.58887 22.9307V32.2608C1.58887 32.6364 1.79938 32.9804 2.13388 33.1513C2.46839 33.3222 2.87046 33.2912 3.17485 33.0711ZM21.3088 16.0258V25.1292L28.4111 30.2755V23.3213L21.3088 16.0258ZM3.58887 30.3036L10.7015 25.1601V16.0228L3.58887 23.3368V30.3036ZM13.1917 30.7397C12.6394 30.7397 12.1917 31.1874 12.1917 31.7397C12.1917 32.292 12.6394 32.7397 13.1917 32.7397H18.1284C18.6807 32.7397 19.1284 32.292 19.1284 31.7397C19.1284 31.1874 18.6807 30.7397 18.1284 30.7397H13.1917Z" fill="#111827"/>
</svg>
