<svg width="33" height="33" viewBox="0 0 33 33" fill="none" xmlns="http://www.w3.org/2000/svg">
<path fill-rule="evenodd" clip-rule="evenodd" d="M6.63496 14.431L12.4907 15.6539L17.6203 20.7834L18.6914 26.5928C18.7588 26.9582 19.0231 27.2561 19.3778 27.3664C19.7326 27.4767 20.1192 27.3813 20.3819 27.1186L24.7761 22.7245C24.9636 22.537 25.069 22.2826 25.069 22.0174L25.0692 13.3393L25.7719 12.6365C28.0426 10.2665 28.2406 7.47889 28.0042 5.97917C27.9517 5.6457 27.6961 5.38584 27.3666 5.31227C24.2006 4.60532 21.5851 6.43778 20.6347 7.49935L20.0761 8.05802L11.2335 8.05797C10.9683 8.05797 10.714 8.16332 10.5264 8.35086L6.13227 12.745C5.87257 13.0047 5.77613 13.3859 5.88107 13.7378C5.98601 14.0898 6.27544 14.3559 6.63496 14.431ZM23.0691 15.3393L19.3381 19.0703L20.3132 24.3589L23.069 21.6032L23.0691 15.3393ZM8.85438 12.8513L14.1722 13.9619L18.0761 10.058L11.6477 10.058L8.85438 12.8513ZM7.13832 25.0643C7.19113 25.5162 7.5424 25.8756 7.99304 25.9386C9.59902 26.1632 11.1329 25.6515 12.3396 25.0038C13.5528 24.3527 14.5401 23.5089 15.0992 22.9047C15.4743 22.4994 15.4498 21.8667 15.0445 21.4916C14.6392 21.1165 14.0065 21.141 13.6313 21.5463C13.2087 22.003 12.3944 22.7045 11.3938 23.2416C10.6769 23.6263 9.91686 23.899 9.16871 23.9724C9.3356 22.9161 9.93108 21.1981 11.6194 19.4584C12.004 19.0621 11.9945 18.429 11.5982 18.0443C11.2018 17.6597 10.5687 17.6692 10.1841 18.0655C7.49905 20.8323 6.98469 23.7494 7.13832 25.0643Z" fill="#1C1B1F"/>
</svg>
