<svg width="34" height="34" viewBox="0 0 34 34" fill="none" xmlns="http://www.w3.org/2000/svg">
<path fill-rule="evenodd" clip-rule="evenodd" d="M10.504 16.0346L10.5087 16.0299L1.56584 14.331C1.20182 14.2618 0.905872 13.9971 0.796787 13.643C0.6877 13.2889 0.783356 12.9035 1.04536 12.6415L7.71034 5.97648C7.89307 5.79375 8.13945 5.68886 8.39782 5.68378L21.1043 5.43429L22.3885 4.1501C23.7986 2.575 27.7223 -0.163821 32.4478 1.01782C32.7753 1.09971 33.0297 1.35693 33.0932 1.6885C33.4983 3.80563 33.3195 8.0522 29.8803 11.6419L28.3765 13.1456L28.1225 25.6159C28.1173 25.874 28.0124 26.1201 27.8298 26.3027L21.1554 32.9771C20.8903 33.2422 20.4992 33.3367 20.1422 33.222C19.7853 33.1072 19.5225 32.8024 19.4616 32.4324L17.9952 23.5258L10.504 16.0346ZM19.7357 21.7864L21.1186 30.1855L26.1311 25.1729L26.3345 15.1876L19.7357 21.7864ZM3.7963 12.719L12.2195 14.3191L19.0638 7.47474L8.83976 7.67549L3.7963 12.719ZM3.16079 29.7127C3.2136 30.1646 3.56487 30.524 4.01551 30.587C6.22436 30.896 8.36002 30.1938 10.0741 29.2738C11.7946 28.3504 13.1948 27.1525 13.9789 26.3052C14.354 25.8998 14.3295 25.2671 13.9242 24.892C13.5189 24.5169 12.8862 24.5414 12.511 24.9467C11.8634 25.6466 10.6363 26.7023 9.12832 27.5116C7.87736 28.183 6.50386 28.6475 5.14646 28.6604C5.27276 27.093 6.08174 24.1872 8.91153 21.2713C9.29616 20.875 9.28667 20.2419 8.89034 19.8573C8.494 19.4726 7.86091 19.4821 7.47628 19.8785C3.64805 23.8232 2.95407 27.9434 3.16079 29.7127Z" fill="#111827"/>
</svg>
