<svg width="33" height="33" viewBox="0 0 33 33" fill="none" xmlns="http://www.w3.org/2000/svg">
<path fill-rule="evenodd" clip-rule="evenodd" d="M7.20072 28.5283L12.8826 24.5326H21.0509V24.5299L26.718 28.5274C27.0232 28.7427 27.423 28.77 27.7546 28.5981C28.0863 28.4262 28.2944 28.0838 28.2944 27.7103V20.7186C28.2944 20.4534 28.1891 20.199 28.0015 20.0115L21.0509 13.0609V11.2768C20.971 7.4582 18.8631 5.01744 17.4822 4.01116C17.204 3.80846 16.8325 3.80589 16.5423 3.99101C13.4181 5.98422 12.7881 9.63176 12.877 11.2768V13.0529L5.91838 20.0115C5.73085 20.199 5.62549 20.4534 5.62549 20.7186V27.7103C5.62549 28.0835 5.83337 28.4257 6.16464 28.5978C6.4959 28.7698 6.89539 28.743 7.20072 28.5283ZM21.0509 15.8893V22.0824L26.2944 25.7811V21.1328L21.0509 15.8893ZM7.62549 25.7845L12.877 22.0915V15.8813L7.62549 21.1328V25.7845ZM14.7959 26.7102C14.2436 26.7102 13.7959 27.158 13.7959 27.7102C13.7959 28.2625 14.2436 28.7102 14.7959 28.7102H18.6001C19.1524 28.7102 19.6001 28.2625 19.6001 27.7102C19.6001 27.158 19.1524 26.7102 18.6001 26.7102H14.7959Z" fill="#1C1B1F"/>
</svg>
