<svg width="33" height="33" viewBox="0 0 33 33" fill="none" xmlns="http://www.w3.org/2000/svg">
<path fill-rule="evenodd" clip-rule="evenodd" d="M5.95996 6.46484C5.40768 6.46484 4.95996 6.91256 4.95996 7.46484V13.1012C4.95996 13.6535 5.40768 14.1012 5.95996 14.1012H27.96C28.5122 14.1012 28.96 13.6535 28.96 13.1012V7.46484C28.96 6.91256 28.5122 6.46484 27.96 6.46484H5.95996ZM5.95996 18.4648C5.40768 18.4648 4.95996 18.9126 4.95996 19.4648V25.1012C4.95996 25.6535 5.40768 26.1012 5.95996 26.1012H27.96C28.5122 26.1012 28.96 25.6535 28.96 25.1012V19.4648C28.96 18.9126 28.5122 18.4648 27.96 18.4648H5.95996Z" fill="#1C1B1F"/>
</svg>
