<svg width="32" height="32" viewBox="0 0 32 32" fill="none" xmlns="http://www.w3.org/2000/svg">
<path fill-rule="evenodd" clip-rule="evenodd" d="M1 2.90918C0.447715 2.90918 0 3.35689 0 3.90918V12.091C0 12.6433 0.447715 13.091 1 13.091H31C31.5523 13.091 32 12.6433 32 12.091V3.90918C32 3.35689 31.5523 2.90918 31 2.90918H1ZM1 18.9092C0.447715 18.9092 0 19.3569 0 19.9092V28.091C0 28.6433 0.447715 29.091 1 29.091H31C31.5523 29.091 32 28.6433 32 28.091V19.9092C32 19.3569 31.5523 18.9092 31 18.9092H1Z" fill="#111827"/>
</svg>
