<svg width="32" height="32" viewBox="0 0 32 32" fill="none" xmlns="http://www.w3.org/2000/svg">
<path fill-rule="evenodd" clip-rule="evenodd" d="M0.477048 1.00098C0.477048 0.448692 0.924763 0.000976562 1.47705 0.000976562C9.57197 0.000976562 17.3354 3.21667 23.0593 8.94065C28.7833 14.6646 31.999 22.428 31.999 30.5229C31.999 31.0752 31.5513 31.5229 30.999 31.5229C30.4467 31.5229 29.999 31.0752 29.999 30.5229C29.999 22.9584 26.994 15.7038 21.6451 10.3549C16.2962 5.00596 9.04154 2.00098 1.47705 2.00098C0.924763 2.00098 0.477048 1.55326 0.477048 1.00098ZM1.47705 8.85753C0.924763 8.85753 0.477048 9.30524 0.477048 9.85753C0.477048 10.4098 0.924763 10.8575 1.47705 10.8575C6.69263 10.8575 11.6946 12.9294 15.3826 16.6174C19.0705 20.3054 21.1424 25.3073 21.1424 30.5229C21.1424 31.0752 21.5901 31.5229 22.1424 31.5229C22.6947 31.5229 23.1424 31.0752 23.1424 30.5229C23.1424 24.7769 20.8598 19.2662 16.7968 15.2032C12.7337 11.1401 7.22306 8.85753 1.47705 8.85753ZM1.47705 17.7143C0.924763 17.7143 0.477048 18.162 0.477048 18.7143C0.477048 19.2665 0.924763 19.7143 1.47705 19.7143C4.34372 19.7143 7.09297 20.853 9.12001 22.8801C11.1471 24.9071 12.2858 27.6564 12.2858 30.523C12.2858 31.0753 12.7335 31.523 13.2858 31.523C13.8381 31.523 14.2858 31.0753 14.2858 30.523C14.2858 27.1259 12.9363 23.868 10.5342 21.4659C8.13211 19.0638 4.87415 17.7143 1.47705 17.7143ZM4.42927 29.7848C4.42927 31.0077 3.43796 31.999 2.21512 31.999C0.992284 31.999 0.000976562 31.0077 0.000976562 29.7848C0.000976562 28.562 0.992284 27.5707 2.21512 27.5707C3.43796 27.5707 4.42927 28.562 4.42927 29.7848Z" fill="#111827"/>
</svg>
