<svg width="33" height="33" viewBox="0 0 33 33" fill="none" xmlns="http://www.w3.org/2000/svg">
<path d="M7.9126 17.7115C9.93329 17.7115 11.8712 18.5142 13.3001 19.9431C14.7289 21.3719 15.5316 23.3098 15.5316 25.3305" stroke="#1C1B1F" stroke-width="2" stroke-linecap="round" stroke-linejoin="round"/>
<path d="M7.9126 11.9972C11.4488 11.9972 14.8402 13.402 17.3407 15.9024C19.8412 18.4029 21.2459 21.7943 21.2459 25.3305" stroke="#1C1B1F" stroke-width="2" stroke-linecap="round" stroke-linejoin="round"/>
<path d="M7.9126 6.2829C12.9643 6.2829 17.8092 8.28969 21.3813 11.8618C24.9534 15.4339 26.9602 20.2788 26.9602 25.3305" stroke="#1C1B1F" stroke-width="2" stroke-linecap="round" stroke-linejoin="round"/>
<path d="M8.38853 26.2829C9.17751 26.2829 9.8171 25.6433 9.8171 24.8543C9.8171 24.0653 9.17751 23.4257 8.38853 23.4257C7.59955 23.4257 6.95996 24.0653 6.95996 24.8543C6.95996 25.6433 7.59955 26.2829 8.38853 26.2829Z" fill="#1C1B1F"/>
</svg>
