<svg width="33" height="33" viewBox="0 0 33 33" fill="none" xmlns="http://www.w3.org/2000/svg">
<path d="M8.42334 6.2829C13.3395 6.2829 18.0544 8.23585 21.5307 11.7121C25.007 15.1884 26.9599 19.9033 26.9599 24.8195" stroke="#1C1B1F" stroke-width="2" stroke-linecap="round" stroke-linejoin="round"/>
<path d="M8.42334 15.0634C9.70453 15.0634 10.9732 15.3157 12.1568 15.806C13.3405 16.2963 14.416 17.0149 15.3219 17.9208C16.2279 18.8268 16.9465 19.9023 17.4368 21.086C17.9271 22.2696 18.1794 23.5383 18.1794 24.8195" stroke="#1C1B1F" stroke-width="2" stroke-linecap="round" stroke-linejoin="round"/>
<path d="M8.42338 26.2829C9.2316 26.2829 9.88679 25.6277 9.88679 24.8195C9.88679 24.0113 9.2316 23.3561 8.42338 23.3561C7.61515 23.3561 6.95996 24.0113 6.95996 24.8195C6.95996 25.6277 7.61515 26.2829 8.42338 26.2829Z" fill="#1C1B1F"/>
</svg>
