<svg width="33" height="33" viewBox="0 0 33 33" fill="none" xmlns="http://www.w3.org/2000/svg">
<g clip-path="url(#clip0_780_129)">
<path fill-rule="evenodd" clip-rule="evenodd" d="M15.7743 28.7285L9.8025 14.0981H21.7462L15.7743 28.7285ZM12.9151 27.0159L7.64231 14.0981H0.538689L12.9151 27.0159ZM18.6271 27.0318L31.0187 14.0981H23.9064L18.6271 27.0318ZM32.0399 13.0323L32.04 13.0321L32.0399 13.032V13.0323ZM31.4518 12.0981L27.3111 5.75666L24.7227 12.0981H31.4518ZM25.8268 4.10083H18.2749L23.3599 10.1446L25.8268 4.10083ZM13.6569 4.10083H5.72185L8.31393 10.4512L13.6569 4.10083ZM4.21576 5.70333L0.0402832 12.0981H6.82595L4.21576 5.70333ZM15.9659 4.46298L22.3897 12.0981H9.54206L15.9659 4.46298Z" fill="#111827"/>
</g>
<defs>
<clipPath id="clip0_780_129">
<rect width="32" height="32" fill="white" transform="translate(0.0400391 0.414795)"/>
</clipPath>
</defs>
</svg>
