<svg width="33" height="33" viewBox="0 0 33 33" fill="none" xmlns="http://www.w3.org/2000/svg">
<path d="M8.65234 7.05219V4.28296" stroke="#1C1B1F" stroke-width="2" stroke-linecap="round" stroke-linejoin="round"/>
<path d="M14.1909 7.05219V4.28296" stroke="#1C1B1F" stroke-width="2" stroke-linecap="round" stroke-linejoin="round"/>
<path d="M25.2676 7.05219V4.28296" stroke="#1C1B1F" stroke-width="2" stroke-linecap="round" stroke-linejoin="round"/>
<path d="M8.65234 28.2829V25.5137" stroke="#1C1B1F" stroke-width="2" stroke-linecap="round" stroke-linejoin="round"/>
<path d="M14.1909 28.2829V25.5137" stroke="#1C1B1F" stroke-width="2" stroke-linecap="round" stroke-linejoin="round"/>
<path d="M19.7295 7.05219V4.28296" stroke="#1C1B1F" stroke-width="2" stroke-linecap="round" stroke-linejoin="round"/>
<path d="M19.7295 28.2829V25.5137" stroke="#1C1B1F" stroke-width="2" stroke-linecap="round" stroke-linejoin="round"/>
<path d="M25.2676 28.2829V25.5137" stroke="#1C1B1F" stroke-width="2" stroke-linecap="round" stroke-linejoin="round"/>
<rect x="8.65234" y="7.05225" width="16.6154" height="18.4615" rx="0.5" stroke="#1C1B1F" stroke-width="2"/>
<path d="M14.1572 15.9324L16.7531 11.7498C16.7913 11.6883 16.8802 11.6865 16.9209 11.7464L19.7576 15.9292C19.7794 15.9613 19.7806 16.0032 19.7607 16.0365L16.9241 20.7962C16.8845 20.8627 16.7875 20.8609 16.7505 20.7929L14.1544 16.033C14.1371 16.0014 14.1382 15.963 14.1572 15.9324Z" fill="#1C1B1F" stroke="#1C1B1F" stroke-width="2" stroke-linecap="round" stroke-linejoin="round"/>
</svg>
