<svg width="32" height="32" viewBox="0 0 32 32" fill="none" xmlns="http://www.w3.org/2000/svg">
<path fill-rule="evenodd" clip-rule="evenodd" d="M13.5382 0.999281C13.5382 0.446996 13.0905 -0.000718772 12.5382 -0.000718772C11.9859 -0.000718772 11.5382 0.446996 11.5382 0.999281V3.46089H6.61523V0.999512C6.61523 0.447227 6.16752 -0.000488281 5.61523 -0.000488281C5.06295 -0.000488281 4.61523 0.447227 4.61523 0.999512V4.4619C4.61523 4.53868 4.62389 4.61344 4.64027 4.68526C4.62368 4.77461 4.615 4.86673 4.615 4.96089V27.0382C4.615 27.1323 4.62368 27.2244 4.64026 27.3138C4.62374 27.3859 4.615 27.461 4.615 27.5381V31.0005C4.615 31.5528 5.06272 32.0005 5.615 32.0005C6.16729 32.0005 6.615 31.5528 6.615 31.0005V28.5382H11.5382V31.0005C11.5382 31.5528 11.9859 32.0005 12.5382 32.0005C13.0905 32.0005 13.5382 31.5528 13.5382 31.0005V28.5382H18.4619V31.0005C18.4619 31.5528 18.9096 32.0005 19.4619 32.0005C20.0142 32.0005 20.4619 31.5528 20.4619 31.0005V28.5382H25.3846V31.0005C25.3846 31.5528 25.8323 32.0005 26.3846 32.0005C26.9369 32.0005 27.3846 31.5528 27.3846 31.0005V27.5381C27.3846 27.4609 27.3759 27.3858 27.3593 27.3136C27.3759 27.2243 27.3846 27.1323 27.3846 27.0382V4.96089C27.3846 4.86693 27.3759 4.77501 27.3594 4.68584C27.3759 4.61378 27.3846 4.53874 27.3846 4.46167V0.999281C27.3846 0.446996 26.9369 -0.000718772 26.3846 -0.000718772C25.8323 -0.000718772 25.3846 0.446996 25.3846 0.999281V3.46089H20.4619V0.999281C20.4619 0.446996 20.0142 -0.000718772 19.4619 -0.000718772C18.9096 -0.000718772 18.4619 0.446996 18.4619 0.999281V3.46089H13.5382V0.999281ZM6.615 5.46089H12.4982C12.5114 5.46141 12.5248 5.46167 12.5382 5.46167C12.5516 5.46167 12.565 5.46141 12.5783 5.46089H19.4218C19.4351 5.46141 19.4485 5.46167 19.4619 5.46167C19.4753 5.46167 19.4887 5.46141 19.502 5.46089H25.3846V26.5382H19.4757L19.4619 26.5381L19.4481 26.5382H12.552L12.5382 26.5381L12.5244 26.5382H6.615V5.46089ZM15.4364 10.8238L12.6112 15.3757C12.5163 15.5286 12.5109 15.7207 12.5971 15.8788L15.4229 21.0598C15.6083 21.3997 16.0931 21.409 16.2914 21.0764L19.3785 15.8964C19.4778 15.7296 19.4717 15.5204 19.3628 15.3598L16.275 10.8069C16.0718 10.5072 15.6273 10.5162 15.4364 10.8238Z" fill="#111827"/>
</svg>
