<svg width="32" height="32" viewBox="0 0 32 32" fill="none" xmlns="http://www.w3.org/2000/svg">
<path fill-rule="evenodd" clip-rule="evenodd" d="M23.0002 0.292893C22.6096 -0.0976308 21.9765 -0.0976314 21.5859 0.292893L17.314 4.56481L22.4475 9.69832C22.8381 10.0888 22.8381 10.722 22.4475 11.1125C22.057 11.5031 21.4238 11.5031 21.0333 11.1125L15.8998 5.97902L11.6174 10.2614L16.7511 15.3952C17.1417 15.7857 17.1417 16.4189 16.7511 16.8094C16.3606 17.1999 15.7274 17.1999 15.3369 16.8094L10.2032 11.6757L5.92052 15.9583L11.0544 21.0922C11.4449 21.4827 11.4449 22.1159 11.0544 22.5064C10.6638 22.8969 10.0307 22.8969 9.64015 22.5064L4.50631 17.3725L0.292893 21.5859C-0.0976311 21.9765 -0.0976311 22.6096 0.292893 23.0002L9.00005 31.7073C9.39058 32.0978 10.0237 32.0978 10.4143 31.7073L31.7073 10.4143C32.0978 10.0237 32.0978 9.39058 31.7073 9.00005L23.0002 0.292893Z" fill="#111827"/>
</svg>
