<svg width="33" height="33" viewBox="0 0 33 33" fill="none" xmlns="http://www.w3.org/2000/svg">
<path fill-rule="evenodd" clip-rule="evenodd" d="M22.2675 4.99004C21.877 4.59951 21.2438 4.59951 20.8533 4.99004L18.1104 7.73287L21.8632 11.4856C22.2537 11.8761 22.2537 12.5093 21.8632 12.8998C21.4727 13.2904 20.8395 13.2904 20.449 12.8998L16.6962 9.14708L13.9458 11.8975L17.6986 15.6504C18.0892 16.0409 18.0892 16.6741 17.6986 17.0646C17.3081 17.4551 16.675 17.4551 16.2844 17.0646L12.5316 13.3118L9.78104 16.0623L13.534 19.8152C13.9245 20.2058 13.9245 20.8389 13.534 21.2295C13.1435 21.62 12.5103 21.62 12.1198 21.2295L8.36683 17.4765L5.66692 20.1764C5.27639 20.5669 5.27639 21.2001 5.66692 21.5906L11.6521 27.5758C12.0426 27.9663 12.6758 27.9663 13.0663 27.5758L28.2527 12.3895C28.6432 11.9989 28.6432 11.3658 28.2527 10.9752L22.2675 4.99004Z" fill="#1C1B1F"/>
</svg>
