<svg width="32" height="33" viewBox="0 0 32 33" fill="none" xmlns="http://www.w3.org/2000/svg">
<path fill-rule="evenodd" clip-rule="evenodd" d="M30.8871 17.4062L32 16.717L30.8871 16.0279C30.8633 15.5074 30.8126 14.9937 30.7363 14.4883L31.691 13.5959L30.4678 13.1375C30.343 12.6342 30.1926 12.1408 30.018 11.6588L30.7831 10.5945L29.4872 10.383C29.2671 9.91674 29.0236 9.46359 28.7581 9.02513L29.3044 7.8264L27.9854 7.87311C27.681 7.46181 27.3559 7.06664 27.0118 6.68915L27.3151 5.40197L26.0279 5.70521C25.6504 5.36111 25.2552 5.03609 24.8439 4.73169L24.8906 3.41261L23.6919 3.95895C23.2534 3.69347 22.8003 3.44994 22.334 3.2299L22.1226 1.93399L21.0582 2.69906C20.5763 2.52446 20.0829 2.37405 19.5795 2.24933L19.1212 1.02601L18.2287 1.98076C17.7233 1.90453 17.2097 1.85381 16.6892 1.82997L16 0.717041L15.3108 1.82996C14.7903 1.85379 14.2766 1.90448 13.7712 1.98067L12.8788 1.02601L12.4206 2.24906C11.917 2.37377 11.4235 2.52417 10.9414 2.69877L9.87744 1.93399L9.6661 3.22923C9.19949 3.44935 8.74606 3.69299 8.30734 3.9586L7.10936 3.41261L7.15603 4.73075C6.7444 5.03535 6.34893 5.36062 5.97116 5.70499L4.68493 5.40197L4.98796 6.68823C4.64361 7.066 4.31837 7.46146 4.0138 7.87308L2.69557 7.8264L3.24161 9.02449C2.97603 9.46318 2.73242 9.91657 2.51233 10.3831L1.21695 10.5945L1.9818 11.6586C1.8072 12.1406 1.65681 12.6341 1.5321 13.1376L0.308966 13.5959L1.26366 14.4883C1.18746 14.9937 1.13676 15.5074 1.11292 16.0279L0 16.717L1.11293 17.4062C1.13677 17.9267 1.18749 18.4403 1.26372 18.9457L0.308966 19.8382L1.53229 20.2966C1.65701 20.7999 1.80742 21.2933 1.98202 21.7752L1.21695 22.8396L2.51286 23.0511C2.7329 23.5173 2.97643 23.9705 3.24191 24.4089L2.69557 25.6077L4.01465 25.561C4.31905 25.9723 4.64407 26.3674 4.98817 26.7449L4.68493 28.0321L5.97211 27.7289C6.3496 28.073 6.74477 28.398 7.15607 28.7024L7.10936 30.0215L8.30809 29.4751C8.74655 29.7406 9.1997 29.9842 9.666 30.2042L9.87744 31.5001L10.9418 30.735C11.4237 30.9097 11.9171 31.0601 12.4205 31.1848L12.8788 32.4081L13.7713 31.4534C14.2767 31.5296 14.7904 31.5803 15.3109 31.6042L16 32.717L16.6891 31.6042C17.2096 31.5803 17.7233 31.5296 18.2287 31.4534L19.1212 32.4081L19.5795 31.1848C20.0829 31.0601 20.5763 30.9097 21.0582 30.7351L22.1226 31.5001L22.334 30.2042C22.8003 29.9842 23.2535 29.7406 23.6919 29.4751L24.8906 30.0215L24.8439 28.7024C25.2552 28.398 25.6504 28.073 26.0279 27.7289L27.3151 28.0321L27.0118 26.745C27.356 26.3675 27.681 25.9723 27.9854 25.561L29.3044 25.6077L28.7581 24.409C29.0236 23.9705 29.2671 23.5173 29.4872 23.051L30.7831 22.8396L30.018 21.7753C30.1926 21.2933 30.343 20.7999 30.4678 20.2965L31.691 19.8382L30.7363 18.9458C30.8126 18.4403 30.8633 17.9267 30.8871 17.4062ZM16.6528 3.43432C16.4749 3.25115 16.2328 3.14495 15.978 3.13835C15.8468 3.13455 15.7163 3.15711 15.594 3.20468C15.4718 3.25225 15.3603 3.32387 15.2662 3.4153C15.1722 3.50673 15.0974 3.6161 15.0463 3.73695C14.9953 3.8578 14.969 3.98766 14.9691 4.11884C14.9691 4.37888 15.0724 4.62827 15.2563 4.81215C15.4401 4.99603 15.6895 5.09933 15.9496 5.09933C16.2096 5.09933 16.459 4.99603 16.6429 4.81215C16.8268 4.62827 16.9301 4.37888 16.9301 4.11884C16.9302 3.86312 16.8307 3.61749 16.6528 3.43432ZM23.0008 6.78406C21.5744 5.76816 19.944 5.07493 18.2227 4.75253L16.5328 6.36357C16.1766 6.70721 15.6122 6.69145 15.2718 6.33519L13.7616 4.75253C11.154 5.24518 8.78159 6.58376 7.01165 8.56101H19.8117C20.1332 8.56101 21.325 8.70288 22.4032 9.41224C23.1693 9.91982 24.2948 10.9539 24.2948 12.5965C24.2948 14.1161 23.0337 15.2542 21.8199 16.0235C21.8429 16.0416 21.8656 16.0595 21.8881 16.0773C22.8261 16.8177 23.4239 17.2895 23.7872 19.3307C23.8755 19.7153 24.5722 20.0526 25.2028 19.9801C25.8649 19.9076 26.6184 19.6144 26.6184 18.2777V17.7102C26.6184 17.5904 26.6688 17.5084 26.7918 17.5084H28.0308C28.083 16.8112 28.0746 16.1107 28.0055 15.415L25.7797 14.4282C25.332 14.2264 25.1271 13.6968 25.3257 13.2459L26.4828 10.6355C25.6154 9.1142 24.4272 7.79997 23.0008 6.78406ZM4.96275 12.3071C4.78497 12.124 4.5428 12.0175 4.28771 12.0101C4.15658 12.0063 4.02603 12.0288 3.90377 12.0764C3.78152 12.124 3.67005 12.1956 3.57598 12.287C3.48191 12.3785 3.40714 12.4878 3.3561 12.6087C3.30506 12.7295 3.27879 12.8594 3.27884 12.9906C3.27884 13.2506 3.38214 13.5 3.56602 13.6839C3.7499 13.8678 3.99929 13.9711 4.25934 13.9711C4.51938 13.9711 4.76877 13.8678 4.95265 13.6839C5.13653 13.5 5.23983 13.2506 5.23983 12.9906C5.23993 12.7354 5.14054 12.4902 4.96275 12.3071ZM28.3401 12.3512C28.1623 12.1681 27.9201 12.0616 27.6651 12.0542C27.5339 12.0504 27.4034 12.073 27.2811 12.1205C27.1589 12.1681 27.0474 12.2397 26.9533 12.3312C26.8592 12.4226 26.7845 12.532 26.7334 12.6528C26.6824 12.7737 26.6561 12.9035 26.6562 13.0347C26.6562 13.2947 26.7595 13.5441 26.9434 13.728C27.1272 13.9119 27.3766 14.0152 27.6367 14.0152C27.8967 14.0152 28.1461 13.9119 28.33 13.728C28.5139 13.5441 28.6172 13.2947 28.6172 13.0347C28.6173 12.7795 28.5179 12.5343 28.3401 12.3512ZM7.84397 12.2118H6.1352L6.57027 13.1923C6.77204 13.6432 6.56712 14.1697 6.11628 14.3715L4.00397 15.311C3.83618 16.8572 3.96893 18.4212 4.3949 19.9171H7.84397V12.2118ZM17.3368 12.2938H13.2666L13.2635 14.5669H17.0404C17.8444 14.5669 18.8217 14.2832 18.8217 13.4918C18.8217 12.5366 17.548 12.2938 17.3368 12.2938ZM16.3847 17.83H13.2666L13.2635 20.04H16.1482C16.2585 20.04 16.3342 20.0621 16.3342 20.163V23.6499C16.3342 23.7539 16.2585 23.7728 16.1482 23.7728H6.28968C6.61051 24.2078 6.96019 24.6206 7.33638 25.0087L9.36357 24.5736C9.84594 24.4696 10.3188 24.7785 10.4229 25.2609L10.9147 27.5561C12.4894 28.2874 14.2035 28.6701 15.9397 28.6783C17.6759 28.6865 19.3935 28.3198 20.975 27.6034L21.4668 25.3082C21.5709 24.8258 22.0469 24.5169 22.5293 24.6209L24.6006 25.0654C25.0027 24.6615 25.3757 24.2295 25.7167 23.7728H20.6282C19.8243 23.7728 19.0708 22.6379 18.8848 22.0704C18.7644 21.742 18.6071 20.9636 18.4778 20.3235C18.4072 19.9741 18.3449 19.666 18.3015 19.4946C17.9074 17.9119 16.6684 17.83 16.3847 17.83ZM9.39231 26.1128C9.21452 25.9297 8.97236 25.8232 8.71727 25.8158C8.58614 25.812 8.45558 25.8345 8.33333 25.8821C8.21107 25.9297 8.09961 26.0013 8.00554 26.0927C7.91146 26.1842 7.83669 26.2935 7.78565 26.4144C7.73461 26.5352 7.70834 26.6651 7.7084 26.7963C7.7084 27.0563 7.8117 27.3057 7.99558 27.4896C8.17946 27.6735 8.42885 27.7768 8.68889 27.7768C8.94894 27.7768 9.19833 27.6735 9.38221 27.4896C9.56608 27.3057 9.66939 27.0563 9.66939 26.7963C9.66949 26.5411 9.57009 26.2959 9.39231 26.1128ZM23.9105 26.1569C23.7328 25.9739 23.4906 25.8673 23.2355 25.8599C23.1044 25.8561 22.9738 25.8787 22.8516 25.9263C22.7293 25.9738 22.6178 26.0454 22.5238 26.1369C22.4297 26.2283 22.3549 26.3377 22.3039 26.4585C22.2528 26.5794 22.2266 26.7092 22.2266 26.8404C22.2266 27.1005 22.3299 27.3499 22.5138 27.5337C22.6977 27.7176 22.9471 27.8209 23.2071 27.8209C23.4672 27.8209 23.7166 27.7176 23.9004 27.5337C24.0843 27.3499 24.1876 27.1005 24.1876 26.8404C24.1877 26.5852 24.0883 26.34 23.9105 26.1569Z" fill="#111827"/>
</svg>
