<svg width="33" height="32" viewBox="0 0 33 32" fill="none" xmlns="http://www.w3.org/2000/svg">
<path d="M16.9601 4.82288C10.7981 4.82288 5.78296 9.84041 5.78296 16C5.78296 22.1596 10.8005 27.1772 16.9601 27.1772C23.1197 27.1772 28.1372 22.1596 28.1372 16C28.1372 9.84041 23.1197 4.82288 16.9601 4.82288ZM16.9436 5.81598C17.1347 5.82093 17.3163 5.90058 17.4497 6.03796C17.5831 6.17534 17.6577 6.35956 17.6576 6.55135C17.6576 6.74638 17.5802 6.93343 17.4423 7.07133C17.3043 7.20924 17.1173 7.28672 16.9223 7.28672C16.7272 7.28672 16.5402 7.20924 16.4023 7.07133C16.2644 6.93343 16.1869 6.74638 16.1869 6.55135C16.1869 6.45296 16.2066 6.35557 16.2448 6.26493C16.2831 6.1743 16.3392 6.09226 16.4098 6.02369C16.4803 5.95512 16.5639 5.90141 16.6556 5.86573C16.7473 5.83005 16.8452 5.81313 16.9436 5.81598ZM18.6271 7.02662C19.918 7.26842 21.1409 7.78834 22.2107 8.55027C23.2805 9.3122 24.1716 10.2979 24.8222 11.4388L23.9544 13.3967C23.8054 13.7348 23.9591 14.132 24.2949 14.2834L25.9642 15.0235C26.016 15.5453 26.0224 16.0706 25.9832 16.5935H25.0539C24.9617 16.5935 24.9238 16.655 24.9238 16.7448V17.1705C24.9238 18.173 24.3587 18.3929 23.8622 18.4473C23.3893 18.5017 22.8667 18.2487 22.8005 17.9602C22.5215 16.3925 22.058 16.0591 21.325 15.4798C22.2354 14.9029 23.1812 14.0493 23.1812 12.9096C23.1812 11.6777 22.337 10.9021 21.7625 10.5214C20.9538 9.98938 20.06 9.88298 19.8188 9.88298H10.2188C11.5463 8.40004 13.3256 7.3961 15.2813 7.02662L16.4139 8.21361C16.6693 8.48081 17.0925 8.49263 17.3597 8.2349L18.6271 7.02662ZM8.17587 12.4698C8.36719 12.4753 8.54881 12.5552 8.68215 12.6925C8.81549 12.8299 8.89003 13.0137 8.88995 13.2051C8.88995 13.4002 8.81248 13.5872 8.67457 13.7251C8.53666 13.863 8.34962 13.9405 8.15458 13.9405C7.95955 13.9405 7.77251 13.863 7.6346 13.7251C7.49669 13.5872 7.41922 13.4002 7.41922 13.2051C7.41917 13.1068 7.43888 13.0094 7.47716 12.9187C7.51544 12.8281 7.57151 12.7461 7.64207 12.6775C7.71262 12.6089 7.79622 12.5552 7.88791 12.5195C7.9796 12.4838 8.07752 12.4669 8.17587 12.4698ZM25.7089 12.5029C25.9002 12.5084 26.0818 12.5883 26.2152 12.7256C26.3485 12.863 26.423 13.0468 26.423 13.2382C26.423 13.4333 26.3455 13.6203 26.2076 13.7582C26.0697 13.8961 25.8826 13.9736 25.6876 13.9736C25.4926 13.9736 25.3055 13.8961 25.1676 13.7582C25.0297 13.6203 24.9522 13.4333 24.9522 13.2382C24.9522 13.1399 24.9719 13.0425 25.0102 12.9518C25.0484 12.8612 25.1045 12.7792 25.1751 12.7106C25.2456 12.642 25.3292 12.5883 25.4209 12.5526C25.5126 12.5169 25.6105 12.5 25.7089 12.5029ZM9.56148 12.6211H10.8431V18.4H8.25626C7.93678 17.2782 7.83722 16.1051 7.96306 14.9454L9.54729 14.2408C9.88542 14.0895 10.0391 13.6946 9.88779 13.3565L9.56148 12.6211ZM14.9101 12.6826H17.9627C18.1211 12.6826 19.0764 12.8646 19.0764 13.5811C19.0764 14.1746 18.3434 14.3874 17.7404 14.3874H14.9077L14.9101 12.6826ZM14.9101 16.8347H17.2486C17.4614 16.8347 18.3906 16.8962 18.6862 18.0832C18.7784 18.4473 18.9841 19.6343 19.1236 20.015C19.2632 20.4406 19.8283 21.2918 20.4312 21.2918H24.2476C23.9918 21.6344 23.7121 21.9583 23.4105 22.2613L21.857 21.9279C21.4953 21.8499 21.1382 22.0816 21.0602 22.4434L20.6913 24.1647C19.5052 24.7021 18.217 24.9771 16.9149 24.9709C15.6127 24.9648 14.3272 24.6777 13.1461 24.1293L12.7772 22.4079C12.6992 22.0461 12.3445 21.8144 11.9828 21.8924L10.4624 22.2187C10.1802 21.9277 9.91796 21.618 9.67734 21.2918H17.0712C17.154 21.2918 17.2107 21.2777 17.2107 21.1996V18.5845C17.2107 18.5088 17.154 18.4922 17.0712 18.4922H14.9077L14.9101 16.8347ZM11.498 22.8241C11.6894 22.8296 11.871 22.9095 12.0043 23.0468C12.1377 23.1841 12.2122 23.368 12.2121 23.5594C12.2121 23.7545 12.1346 23.9415 11.9967 24.0794C11.8588 24.2173 11.6718 24.2948 11.4768 24.2948C11.2817 24.2948 11.0947 24.2173 10.9568 24.0794C10.8189 23.9415 10.7414 23.7545 10.7414 23.5594C10.7413 23.461 10.761 23.3636 10.7993 23.273C10.8376 23.1824 10.8937 23.1003 10.9642 23.0318C11.0348 22.9632 11.1184 22.9095 11.2101 22.8738C11.3018 22.8381 11.3997 22.8212 11.498 22.8241ZM22.3867 22.8572C22.578 22.8627 22.7596 22.9426 22.893 23.0799C23.0263 23.2172 23.1009 23.4011 23.1008 23.5925C23.1008 23.7876 23.0233 23.9746 22.8854 24.1125C22.7475 24.2504 22.5605 24.3279 22.3654 24.3279C22.1704 24.3279 21.9833 24.2504 21.8454 24.1125C21.7075 23.9746 21.6301 23.7876 21.6301 23.5925C21.63 23.4941 21.6497 23.3967 21.688 23.3061C21.7263 23.2155 21.7824 23.1334 21.8529 23.0649C21.9235 22.9963 22.0071 22.9426 22.0987 22.9069C22.1904 22.8712 22.2884 22.8543 22.3867 22.8572Z" fill="black"/>
<path fill-rule="evenodd" clip-rule="evenodd" d="M27.5131 16C27.5131 18.7988 26.4013 21.483 24.4222 23.462C22.4432 25.4411 19.759 26.5529 16.9602 26.5529C14.1614 26.5529 11.4772 25.4411 9.49817 23.462C7.51912 21.483 6.4073 18.7988 6.4073 16C6.4073 13.2012 7.51912 10.517 9.49817 8.53797C11.4772 6.55891 14.1614 5.44709 16.9602 5.44709C19.759 5.44709 22.4432 6.55891 24.4222 8.53797C26.4013 10.517 27.5131 13.2012 27.5131 16ZM27.3145 14.9809L28.9602 16L27.3145 17.0191L28.7285 18.3409L26.9172 19.0195L28.0475 20.5919L26.1346 20.904L26.9385 22.668L25.002 22.5994L25.4465 24.4863L23.5596 24.0418L23.6282 25.9783L21.8642 25.1744L21.5521 27.0873L19.9797 25.957L19.3011 27.7683L17.9793 26.3543L16.9602 28L15.9411 26.3543L14.6193 27.7683L13.9407 25.957L12.3683 27.0873L12.0562 25.1744L10.2922 25.9783L10.3608 24.0418L8.4739 24.4863L8.91843 22.5994L6.98188 22.668L7.78582 20.904L5.87291 20.5919L7.00316 19.0195L5.19193 18.3409L6.60592 17.0191L4.96021 16L6.60592 14.9809L5.19193 13.6591L7.00316 12.9805L5.87291 11.4081L7.78582 11.096L6.98188 9.33202L8.91843 9.40059L8.4739 7.51369L10.3608 7.95823L10.2922 6.02167L12.0562 6.82562L12.3683 4.91271L13.9407 6.04296L14.6193 4.23172L15.9411 5.64571L16.9602 4L17.9793 5.64571L19.3011 4.23172L19.9797 6.04296L21.5521 4.91271L21.8642 6.82562L23.6282 6.02167L23.5596 7.95823L25.4465 7.51369L25.002 9.40059L26.9385 9.33202L26.1346 11.096L28.0475 11.4081L26.9172 12.9805L28.7285 13.6591L27.3145 14.9809Z" fill="black" stroke="black" stroke-linecap="round" stroke-linejoin="round"/>
</svg>
