<svg width="32" height="32" viewBox="0 0 32 32" fill="none" xmlns="http://www.w3.org/2000/svg">
<path fill-rule="evenodd" clip-rule="evenodd" d="M15.9958 2.03491C16.5481 2.03491 16.9958 2.48263 16.9958 3.03491V6.50302L26.3867 4.41615C26.9259 4.29634 27.46 4.63627 27.5798 5.17541C27.5867 5.20631 27.5921 5.23719 27.596 5.26798L32 16.278C32 18.8818 29.0533 19.8139 27.2854 19.8139C25.5174 19.8139 22.5708 18.8818 22.5708 16.278L26.5066 6.43829L16.9958 8.55181V27.9652H19.5317C20.084 27.9652 20.5317 28.4129 20.5317 28.9652C20.5317 29.5175 20.084 29.9652 19.5317 29.9652H16.0014L15.9958 29.9652L15.9902 29.9652H12.4598C11.9075 29.9652 11.4598 29.5175 11.4598 28.9652C11.4598 28.4129 11.9075 27.9652 12.4598 27.9652H14.9958V8.99626L5.6049 11.0831C5.55098 11.0951 5.49711 11.1025 5.4437 11.1055L9.4292 21.6776C9.4292 24.4403 6.48257 25.4294 4.7146 25.4294C2.94662 25.4294 0 24.4403 0 21.6776L4.39059 10.031C4.42301 9.60316 4.73053 9.22864 5.17103 9.13075L14.9958 6.94747V3.03491C14.9958 2.48263 15.4435 2.03491 15.9958 2.03491Z" fill="#111827"/>
</svg>
