<svg width="33" height="33" viewBox="0 0 33 33" fill="none" xmlns="http://www.w3.org/2000/svg">
<path fill-rule="evenodd" clip-rule="evenodd" d="M11.5295 11.0403C11.6273 10.7252 11.6799 10.3902 11.6799 10.043C11.6799 8.1873 10.1756 6.68298 8.31995 6.68298C6.46428 6.68298 4.95996 8.1873 4.95996 10.043C4.95996 11.8986 6.46428 13.403 8.31995 13.403C9.1108 13.403 9.83782 13.1297 10.4118 12.6725C10.4477 12.7058 10.4865 12.7369 10.5281 12.7654L15.6691 16.2829L10.5281 19.8005C10.4864 19.829 10.4476 19.86 10.4117 19.8933C9.83778 19.4362 9.11077 19.163 8.31995 19.163C6.46428 19.163 4.95996 20.6673 4.95996 22.523C4.95996 24.3786 6.46428 25.8829 8.31995 25.8829C10.1756 25.8829 11.6799 24.3786 11.6799 22.523C11.6799 22.1757 11.6273 21.8407 11.5294 21.5255C11.5732 21.5042 11.616 21.4794 11.6575 21.4511L17.44 17.4946L28.3953 24.9903C28.8511 25.3022 29.4734 25.1855 29.7853 24.7297C30.0972 24.2739 29.9805 23.6516 29.5247 23.3397L18.0213 15.4689C18.0105 15.4612 17.9995 15.4538 17.9885 15.4465L11.6575 11.1148C11.616 11.0864 11.5733 11.0616 11.5295 11.0403ZM29.7855 7.83619C30.0973 8.292 29.9807 8.91432 29.5249 9.22619L21.405 14.7819C20.9492 15.0937 20.3269 14.977 20.015 14.5212C19.7032 14.0654 19.8198 13.4431 20.2756 13.1312L28.3955 7.57557C28.8513 7.26371 29.4736 7.38039 29.7855 7.83619Z" fill="#1C1B1F"/>
</svg>
