<svg width="32" height="33" viewBox="0 0 32 33" fill="none" xmlns="http://www.w3.org/2000/svg">
<path fill-rule="evenodd" clip-rule="evenodd" d="M0.500489 3.16699C0.224346 3.16699 0.000488281 3.39085 0.000488281 3.66699V10.8677C0.000488281 11.1378 0.216303 11.3584 0.485984 11.3736C10.1466 11.9175 17.8794 19.6745 18.3851 29.3453C18.3992 29.6158 18.6202 29.8329 18.8911 29.8329H31.4995C31.7757 29.8329 31.9995 29.609 31.9995 29.3329V3.66699C31.9995 3.39085 31.7757 3.16699 31.4995 3.16699H0.500489ZM0.000516046 16.5C0.000516046 15.9477 0.448231 15.5 1.00052 15.5C2.75115 15.5 4.48465 15.8448 6.10203 16.5147C7.71941 17.1847 9.189 18.1666 10.4269 19.4045C11.6648 20.6424 12.6467 22.112 13.3167 23.7294C13.9866 25.3468 14.3314 27.0803 14.3314 28.8309C14.3314 29.3832 13.8837 29.8309 13.3314 29.8309C12.7791 29.8309 12.3314 29.3832 12.3314 28.8309C12.3314 27.3429 12.0383 25.8695 11.4689 24.4947C10.8995 23.12 10.0648 21.8709 9.01267 20.8187C7.9605 19.7666 6.71139 18.9319 5.33666 18.3625C3.96194 17.7931 2.48851 17.5 1.00052 17.5C0.448231 17.5 0.000516046 17.0523 0.000516046 16.5ZM1.00052 20.4323C0.448231 20.4323 0.000516046 20.88 0.000516046 21.4323C0.000516046 21.9845 0.448231 22.4323 1.00052 22.4323C2.69752 22.4323 4.32501 23.1064 5.52497 24.3064C6.72493 25.5063 7.39906 27.1338 7.39906 28.8308C7.39906 29.3831 7.84677 29.8308 8.39906 29.8308C8.95134 29.8308 9.39906 29.3831 9.39906 28.8308C9.39906 26.6034 8.51421 24.4672 6.93918 22.8921C5.36415 21.3171 3.22795 20.4323 1.00052 20.4323ZM1.00052 25.3648C0.448231 25.3648 0.000516046 25.8125 0.000516046 26.3648C0.000516046 26.9171 0.448231 27.3648 1.00052 27.3648C1.38919 27.3648 1.76196 27.5192 2.03679 27.794C2.31163 28.0689 2.46603 28.4416 2.46603 28.8303C2.46603 29.3826 2.91375 29.8303 3.46603 29.8303C4.01832 29.8303 4.46603 29.3826 4.46603 28.8303C4.46603 27.9112 4.10092 27.0297 3.45101 26.3798C2.8011 25.7299 1.91963 25.3648 1.00052 25.3648Z" fill="#111827"/>
</svg>
