<svg width="33" height="33" viewBox="0 0 33 33" fill="none" xmlns="http://www.w3.org/2000/svg">
<path fill-rule="evenodd" clip-rule="evenodd" d="M5.46045 6.78296C5.18431 6.78296 4.96045 7.00682 4.96045 7.28296V12.4373C4.96045 12.7074 5.17587 12.9277 5.44541 12.9452C12.5943 13.4081 18.3077 19.1394 18.7424 26.2959C18.7588 26.5663 18.9795 26.783 19.2504 26.783H28.4604C28.7366 26.783 28.9604 26.5591 28.9604 26.283V7.28296C28.9604 7.00682 28.7366 6.78296 28.4604 6.78296H5.46045ZM3.95947 16.783C3.95947 16.2307 4.40719 15.783 4.95947 15.783C6.40401 15.783 7.83441 16.0675 9.16899 16.6203C10.5036 17.1731 11.7162 17.9833 12.7376 19.0048C13.7591 20.0262 14.5693 21.2389 15.1221 22.5734C15.6749 23.908 15.9595 25.3384 15.9595 26.783C15.9595 27.3352 15.5118 27.783 14.9595 27.783C14.4072 27.783 13.9595 27.3352 13.9595 26.783C13.9595 25.6011 13.7267 24.4307 13.2744 23.3388C12.8221 22.2469 12.1592 21.2547 11.3234 20.419C10.4877 19.5833 9.49555 18.9203 8.40362 18.468C7.31169 18.0157 6.14137 17.783 4.95947 17.783C4.40719 17.783 3.95947 17.3352 3.95947 16.783ZM4.95947 19.783C4.40719 19.783 3.95947 20.2307 3.95947 20.783C3.95947 21.3352 4.40719 21.783 4.95947 21.783C6.28556 21.783 7.55732 22.3097 8.49501 23.2474C9.43269 24.1851 9.95947 25.4569 9.95947 26.783C9.95947 27.3352 10.4072 27.783 10.9595 27.783C11.5118 27.783 11.9595 27.3352 11.9595 26.783C11.9595 24.9264 11.222 23.146 9.90922 21.8332C8.59647 20.5205 6.81599 19.783 4.95947 19.783ZM4.95947 23.783C4.40719 23.783 3.95947 24.2307 3.95947 24.783C3.95947 25.3352 4.40719 25.783 4.95947 25.783C5.22469 25.783 5.47904 25.8883 5.66658 26.0759C5.85412 26.2634 5.95947 26.5177 5.95947 26.783C5.95947 27.3352 6.40719 27.783 6.95947 27.783C7.51176 27.783 7.95947 27.3352 7.95947 26.783C7.95947 25.9873 7.6434 25.2242 7.08079 24.6616C6.51818 24.099 5.75512 23.783 4.95947 23.783Z" fill="#1C1B1F"/>
</svg>
