<svg width="33" height="33" viewBox="0 0 33 33" fill="none" xmlns="http://www.w3.org/2000/svg">
<path d="M8.84766 10.1396H4.96003V7.76653C4.96003 6.10968 6.30318 4.76653 7.96003 4.76653H8.84766" stroke="#1C1B1F" stroke-width="2" stroke-linecap="round" stroke-linejoin="round"/>
<path fill-rule="evenodd" clip-rule="evenodd" d="M8.80225 3.77319H24.4858C25.5904 3.77319 26.4858 4.66862 26.4858 5.77319V21.8985C26.4858 22.4918 26.9668 22.9728 27.5601 22.9728C28.1315 22.9728 28.6107 23.4232 28.5872 23.9941C28.4324 27.7548 26.1894 28.7769 24.7882 28.8005H10.8022C9.69768 28.8005 8.80225 27.9051 8.80225 26.8005V3.77319ZM13.0205 12.8036C13.0205 12.2513 13.4682 11.8036 14.0205 11.8036H22.3309C22.8832 11.8036 23.3309 12.2513 23.3309 12.8036C23.3309 13.3558 22.8832 13.8036 22.3309 13.8036H14.0205C13.4682 13.8036 13.0205 13.3558 13.0205 12.8036ZM13.0205 17.3183C13.0205 16.766 13.4682 16.3183 14.0205 16.3183H22.3309C22.8832 16.3183 23.3309 16.766 23.3309 17.3183C23.3309 17.8706 22.8832 18.3183 22.3309 18.3183H14.0205C13.4682 18.3183 13.0205 17.8706 13.0205 17.3183Z" fill="#1C1B1F"/>
<path fill-rule="evenodd" clip-rule="evenodd" d="M28.9598 22.436C28.9598 22.4305 28.9553 22.426 28.9498 22.426H11.9485C11.943 22.426 11.9385 22.4305 11.9385 22.436V22.7483C11.9385 22.7538 11.943 22.7583 11.9485 22.7583C13.3168 22.7638 14.4243 23.8901 14.4243 25.2787C14.4243 26.6635 13.323 27.7874 11.9601 27.7991H20.4491H25.9598C27.6167 27.7991 28.9598 26.456 28.9598 24.7991V22.436Z" fill="white"/>
<path d="M11.9601 27.7991L11.9514 26.7992C11.4008 26.8039 10.9577 27.2529 10.9601 27.8035C10.9624 28.3541 11.4095 28.7991 11.9601 28.7991V27.7991ZM11.9485 22.7583L11.9445 23.7583L11.9485 22.7583ZM11.9485 23.426H28.9498V21.426H11.9485V23.426ZM12.9385 22.7483V22.436H10.9385V22.7483H12.9385ZM11.9445 23.7583C12.7494 23.7615 13.4243 24.4281 13.4243 25.2787H15.4243C15.4243 23.3522 13.8842 21.7661 11.9526 21.7583L11.9445 23.7583ZM13.4243 25.2787C13.4243 26.127 12.7532 26.7922 11.9514 26.7992L11.9687 28.7991C13.8929 28.7825 15.4243 27.1999 15.4243 25.2787H13.4243ZM20.4491 26.7991H11.9601V28.7991H20.4491V26.7991ZM25.9598 26.7991H20.4491V28.7991H25.9598V26.7991ZM27.9598 24.7991C27.9598 25.9037 27.0644 26.7991 25.9598 26.7991V28.7991C28.1689 28.7991 29.9598 27.0083 29.9598 24.7991H27.9598ZM27.9598 22.436V24.7991H29.9598V22.436H27.9598ZM10.9385 22.7483C10.9385 23.314 11.3978 23.7561 11.9445 23.7583L11.9526 21.7583C12.4882 21.7604 12.9385 22.1936 12.9385 22.7483H10.9385ZM28.9498 23.426C28.4031 23.426 27.9598 22.9828 27.9598 22.436H29.9598C29.9598 21.8782 29.5076 21.426 28.9498 21.426V23.426ZM11.9485 21.426C11.3907 21.426 10.9385 21.8782 10.9385 22.436H12.9385C12.9385 22.9828 12.4952 23.426 11.9485 23.426V21.426Z" fill="#1C1B1F"/>
</svg>
