<svg width="34" height="34" viewBox="0 0 34 34" fill="none" xmlns="http://www.w3.org/2000/svg">
<path d="M6.62793 9.14014H1.65721V4.95924C1.65721 3.30239 3.00035 1.95924 4.65721 1.95924H6.62793" stroke="#111827" stroke-width="2" stroke-linecap="round" stroke-linejoin="round"/>
<path fill-rule="evenodd" clip-rule="evenodd" d="M6.56982 1H27.1801C28.2847 1 29.1801 1.89543 29.1801 3V24.1751C29.1801 24.9337 29.795 25.5486 30.5536 25.5486C31.2843 25.5486 31.8969 26.1245 31.8669 26.8545C31.6689 31.6629 28.8011 32.9698 27.0096 33H8.56982C7.46525 33 6.56982 32.1046 6.56982 31V1ZM12.2421 12.546C12.2421 11.9937 12.6899 11.546 13.2421 11.546H23.8679C24.4202 11.546 24.8679 11.9937 24.8679 12.546C24.8679 13.0983 24.4202 13.546 23.8679 13.546H13.2421C12.6899 13.546 12.2421 13.0983 12.2421 12.546ZM12.2421 18.3187C12.2421 17.7664 12.6899 17.3187 13.2421 17.3187H23.8679C24.4202 17.3187 24.8679 17.7664 24.8679 18.3187C24.8679 18.8709 24.4202 19.3187 23.8679 19.3187H13.2421C12.6899 19.3187 12.2421 18.8709 12.2421 18.3187Z" fill="#111827"/>
<path fill-rule="evenodd" clip-rule="evenodd" d="M32.3436 24.8594C32.3436 24.8538 32.3391 24.8494 32.3336 24.8494H10.5901C10.5846 24.8494 10.5801 24.8538 10.5801 24.8594V25.2945C10.5801 25.2945 10.5801 25.2945 10.5801 25.2945C12.3355 25.2945 13.7586 26.8057 13.7586 28.6697C13.7586 30.5165 12.3618 32.0168 10.6289 32.0445H21.4618H29.3436C31.0004 32.0445 32.3436 30.7014 32.3436 29.0445V24.8594Z" fill="#111827"/>
<path d="M10.6289 32.0445L10.6129 31.0447C10.0638 31.0535 9.62457 31.5034 9.62896 32.0525C9.63336 32.6017 10.0798 33.0445 10.6289 33.0445V32.0445ZM10.5901 25.8494H32.3336V23.8494H10.5901V25.8494ZM11.5801 25.2945V24.8594H9.58008V25.2945H11.5801ZM10.5801 26.2945C11.7275 26.2945 12.7586 27.3005 12.7586 28.6697H14.7586C14.7586 26.3108 12.9435 24.2945 10.5801 24.2945V26.2945ZM12.7586 28.6697C12.7586 30.0256 11.7463 31.0265 10.6129 31.0447L10.6449 33.0444C12.9774 33.0071 14.7586 31.0073 14.7586 28.6697H12.7586ZM21.4618 31.0445H10.6289V33.0445H21.4618V31.0445ZM29.3436 31.0445H21.4618V33.0445H29.3436V31.0445ZM31.3436 29.0445C31.3436 30.1491 30.4481 31.0445 29.3436 31.0445V33.0445C31.5527 33.0445 33.3436 31.2537 33.3436 29.0445H31.3436ZM31.3436 24.8594V29.0445H33.3436V24.8594H31.3436ZM9.58008 25.2945C9.58008 25.8468 10.0278 26.2945 10.5801 26.2945V24.2945C11.1324 24.2945 11.5801 24.7422 11.5801 25.2945H9.58008ZM32.3336 25.8494C31.7868 25.8494 31.3436 25.4061 31.3436 24.8594H33.3436C33.3436 24.3015 32.8914 23.8494 32.3336 23.8494V25.8494ZM10.5901 23.8494C10.0323 23.8494 9.58008 24.3016 9.58008 24.8594H11.5801C11.5801 25.4061 11.1368 25.8494 10.5901 25.8494V23.8494Z" fill="#111827"/>
</svg>
