<svg width="32" height="32" viewBox="0 0 32 32" fill="none" xmlns="http://www.w3.org/2000/svg">
<path fill-rule="evenodd" clip-rule="evenodd" d="M21.6846 23.0976C19.6008 24.8608 16.9057 25.924 13.9622 25.924C7.35594 25.924 2.00049 20.5685 2.00049 13.9622C2.00049 7.35594 7.35594 2.00049 13.9622 2.00049C20.5685 2.00049 25.924 7.35594 25.924 13.9622C25.924 16.9057 24.8608 19.6008 23.0976 21.6846C23.1077 21.6939 23.1178 21.7036 23.1277 21.7134L29.7063 28.2921C30.0968 28.6826 30.0968 29.3157 29.7063 29.7063C29.3157 30.0968 28.6826 30.0968 28.2921 29.7063L21.7134 23.1277C21.7036 23.1178 21.6939 23.1077 21.6846 23.0976Z" fill="#111827"/>
</svg>
