<svg width="32" height="33" viewBox="0 0 32 33" fill="none" xmlns="http://www.w3.org/2000/svg">
<path fill-rule="evenodd" clip-rule="evenodd" d="M21.6846 23.5976C19.6008 25.3608 16.9057 26.424 13.9622 26.424C7.35594 26.424 2.00049 21.0685 2.00049 14.4622C2.00049 7.85594 7.35594 2.50049 13.9622 2.50049C20.5685 2.50049 25.924 7.85594 25.924 14.4622C25.924 17.4057 24.8608 20.1008 23.0976 22.1846C23.1077 22.1939 23.1178 22.2036 23.1277 22.2134L29.7063 28.7921C30.0968 29.1826 30.0968 29.8157 29.7063 30.2063C29.3157 30.5968 28.6826 30.5968 28.2921 30.2063L21.7134 23.6277C21.7036 23.6178 21.6939 23.6077 21.6846 23.5976Z" fill="#111827"/>
</svg>
