<svg width="32" height="33" viewBox="0 0 32 33" fill="none" xmlns="http://www.w3.org/2000/svg">
<path fill-rule="evenodd" clip-rule="evenodd" d="M31.2862 1.49976V14.7196C31.2862 24.2707 25.7759 28.0814 16.443 32.4083C16.1651 32.5371 15.8378 32.5299 15.5653 32.3901C5.99093 27.4772 0.713932 24.0329 0.713876 14.7196L0.713867 1.4963C0.713871 0.944018 1.16158 0.499756 1.71386 0.499756H16H30.2862C30.8385 0.499756 31.2862 0.947471 31.2862 1.49976ZM9.72468 8.21704C9.72468 7.66476 10.1724 7.21704 10.7247 7.21704H17.2354C17.5013 7.21704 17.7563 7.32299 17.944 7.51145L21.4333 11.0157C21.6199 11.2031 21.7247 11.4568 21.7247 11.7213V20.217C21.7247 20.7693 21.277 21.217 20.7247 21.217H10.7247C10.1724 21.217 9.72468 20.7693 9.72468 20.217V8.21704ZM11.7247 9.21704V19.217H19.7247V12.4741H16.7523V9.21704H11.7247Z" fill="#111827"/>
</svg>
