<svg width="33" height="33" viewBox="0 0 33 33" fill="none" xmlns="http://www.w3.org/2000/svg">
<path fill-rule="evenodd" clip-rule="evenodd" d="M6.13281 4.45581C5.58053 4.45581 5.13281 4.90353 5.13281 5.45581V7.26032C5.13281 7.81261 5.58053 8.26032 6.13281 8.26032C6.6851 8.26032 7.13281 7.81261 7.13281 7.26032V6.45581H7.93732C8.48961 6.45581 8.93732 6.0081 8.93732 5.45581C8.93732 4.90353 8.48961 4.45581 7.93732 4.45581H6.13281ZM11.5463 4.45581C10.9941 4.45581 10.5463 4.90353 10.5463 5.45581C10.5463 6.0081 10.9941 6.45581 11.5463 6.45581H15.1554C15.7077 6.45581 16.1554 6.0081 16.1554 5.45581C16.1554 4.90353 15.7077 4.45581 15.1554 4.45581H11.5463ZM18.7644 4.45581C18.2121 4.45581 17.7644 4.90353 17.7644 5.45581C17.7644 6.0081 18.2121 6.45581 18.7644 6.45581H22.3734C22.9257 6.45581 23.3734 6.0081 23.3734 5.45581C23.3734 4.90353 22.9257 4.45581 22.3734 4.45581H18.7644ZM25.9824 4.45581C25.4302 4.45581 24.9824 4.90353 24.9824 5.45581C24.9824 6.0081 25.4302 6.45581 25.9824 6.45581H26.7869V7.26032C26.7869 7.81261 27.2347 8.26032 27.7869 8.26032C28.3392 8.26032 28.7869 7.81261 28.7869 7.26032V5.45581C28.7869 4.90353 28.3392 4.45581 27.7869 4.45581H25.9824ZM7.13281 10.8693C7.13281 10.3171 6.6851 9.86934 6.13281 9.86934C5.58053 9.86934 5.13281 10.3171 5.13281 10.8693V14.4784C5.13281 15.0307 5.58053 15.4784 6.13281 15.4784C6.6851 15.4784 7.13281 15.0307 7.13281 14.4784V10.8693ZM28.7869 10.8693C28.7869 10.3171 28.3392 9.86934 27.7869 9.86934C27.2347 9.86934 26.7869 10.3171 26.7869 10.8693V14.4784C26.7869 15.0307 27.2347 15.4784 27.7869 15.4784C28.3392 15.4784 28.7869 15.0307 28.7869 14.4784V10.8693ZM7.13281 18.0874C7.13281 17.5351 6.6851 17.0874 6.13281 17.0874C5.58053 17.0874 5.13281 17.5351 5.13281 18.0874V21.6964C5.13281 22.2487 5.58053 22.6964 6.13281 22.6964C6.6851 22.6964 7.13281 22.2487 7.13281 21.6964V18.0874ZM28.7869 18.0874C28.7869 17.5351 28.3392 17.0874 27.7869 17.0874C27.2347 17.0874 26.7869 17.5351 26.7869 18.0874V21.6964C26.7869 22.2487 27.2347 22.6964 27.7869 22.6964C28.3392 22.6964 28.7869 22.2487 28.7869 21.6964V18.0874ZM7.13281 25.3054C7.13281 24.7531 6.6851 24.3054 6.13281 24.3054C5.58053 24.3054 5.13281 24.7531 5.13281 25.3054V27.1099C5.13281 27.6622 5.58053 28.1099 6.13281 28.1099H7.93732C8.48961 28.1099 8.93732 27.6622 8.93732 27.1099C8.93732 26.5577 8.48961 26.1099 7.93732 26.1099H7.13281V25.3054ZM28.7869 25.3054C28.7869 24.7531 28.3392 24.3054 27.7869 24.3054C27.2347 24.3054 26.7869 24.7531 26.7869 25.3054V26.1099H25.9824C25.4302 26.1099 24.9824 26.5577 24.9824 27.1099C24.9824 27.6622 25.4302 28.1099 25.9824 28.1099H27.7869C28.3392 28.1099 28.7869 27.6622 28.7869 27.1099V25.3054ZM11.5463 26.1099C10.9941 26.1099 10.5463 26.5577 10.5463 27.1099C10.5463 27.6622 10.9941 28.1099 11.5463 28.1099H15.1554C15.7077 28.1099 16.1554 27.6622 16.1554 27.1099C16.1554 26.5577 15.7077 26.1099 15.1554 26.1099H11.5463ZM18.7644 26.1099C18.2121 26.1099 17.7644 26.5577 17.7644 27.1099C17.7644 27.6622 18.2121 28.1099 18.7644 28.1099H22.3734C22.9257 28.1099 23.3734 27.6622 23.3734 27.1099C23.3734 26.5577 22.9257 26.1099 22.3734 26.1099H18.7644ZM12.5462 10.8693C11.9939 10.8693 11.5462 11.317 11.5462 11.8693V20.6965C11.5462 21.2488 11.9939 21.6965 12.5462 21.6965H21.3733C21.9256 21.6965 22.3733 21.2488 22.3733 20.6965V11.8693C22.3733 11.317 21.9256 10.8693 21.3733 10.8693H12.5462Z" fill="#1C1B1F"/>
</svg>
