<svg width="32" height="32" viewBox="0 0 32 32" fill="none" xmlns="http://www.w3.org/2000/svg">
<path fill-rule="evenodd" clip-rule="evenodd" d="M1.00098 0.000854492C0.448692 0.000854492 0.000976562 0.44857 0.000976562 1.00085V3.18255C0.000976562 3.73483 0.448692 4.18255 1.00098 4.18255C1.55326 4.18255 2.00098 3.73483 2.00098 3.18255V2.00085H3.18267C3.73495 2.00085 4.18267 1.55314 4.18267 1.00085C4.18267 0.44857 3.73495 0.000854492 3.18267 0.000854492H1.00098ZM7.54605 0.000854492C6.99376 0.000854492 6.54605 0.44857 6.54605 1.00085C6.54605 1.55314 6.99376 2.00085 7.54605 2.00085H11.9094C12.4617 2.00085 12.9094 1.55314 12.9094 1.00085C12.9094 0.44857 12.4617 0.000854492 11.9094 0.000854492H7.54605ZM16.2728 0.000854492C15.7205 0.000854492 15.2728 0.44857 15.2728 1.00085C15.2728 1.55314 15.7205 2.00085 16.2728 2.00085H20.6362C21.1885 2.00085 21.6362 1.55314 21.6362 1.00085C21.6362 0.44857 21.1885 0.000854492 20.6362 0.000854492H16.2728ZM24.9996 0.000854492C24.4473 0.000854492 23.9996 0.44857 23.9996 1.00085C23.9996 1.55314 24.4473 2.00085 24.9996 2.00085H26.1813V3.18254C26.1813 3.73483 26.629 4.18254 27.1813 4.18254C27.7336 4.18254 28.1813 3.73483 28.1813 3.18254V1.00085C28.1813 0.44857 27.7336 0.000854492 27.1813 0.000854492H24.9996ZM2.00098 7.54593C2.00098 6.99364 1.55326 6.54593 1.00098 6.54593C0.448692 6.54593 0.000976562 6.99364 0.000976562 7.54593V11.9093C0.000976562 12.4616 0.448692 12.9093 1.00098 12.9093C1.55326 12.9093 2.00098 12.4616 2.00098 11.9093V7.54593ZM28.1813 7.54593C28.1813 6.99364 27.7336 6.54593 27.1813 6.54593C26.629 6.54593 26.1813 6.99364 26.1813 7.54593V11.9093C26.1813 12.4616 26.629 12.9093 27.1813 12.9093C27.7336 12.9093 28.1813 12.4616 28.1813 11.9093V7.54593ZM2.00098 16.2727C2.00098 15.7204 1.55326 15.2727 1.00098 15.2727C0.448692 15.2727 0.000976562 15.7204 0.000976562 16.2727V20.6361C0.000976562 21.1884 0.448692 21.6361 1.00098 21.6361C1.55326 21.6361 2.00098 21.1884 2.00098 20.6361V16.2727ZM28.1813 16.2727C28.1813 15.7204 27.7336 15.2727 27.1813 15.2727C26.629 15.2727 26.1813 15.7204 26.1813 16.2727V20.6361C26.1813 21.1884 26.629 21.6361 27.1813 21.6361C27.7336 21.6361 28.1813 21.1884 28.1813 20.6361V16.2727ZM2.00098 24.9995C2.00098 24.4472 1.55326 23.9995 1.00098 23.9995C0.448692 23.9995 0.000976562 24.4472 0.000976562 24.9995V27.1811C0.000976562 27.7334 0.448692 28.1811 1.00098 28.1811H3.18267C3.73495 28.1811 4.18267 27.7334 4.18267 27.1811C4.18267 26.6289 3.73495 26.1811 3.18267 26.1811H2.00098V24.9995ZM24.9876 28.1811H23.3637C22.8115 28.1811 22.3637 27.7334 22.3637 27.1811C22.3637 26.6288 22.8115 26.1811 23.3637 26.1811H26.1812V23.3631C26.1812 22.8108 26.6289 22.3631 27.1812 22.3631C27.7335 22.3631 28.1812 22.8108 28.1812 23.3631V24.9876C28.1812 24.9916 28.1813 24.9955 28.1813 24.9995V26.1811H30.9997C31.5519 26.1811 31.9997 26.6288 31.9997 27.1811C31.9997 27.7334 31.5519 28.1811 30.9997 28.1811H28.1812V30.999C28.1812 31.5513 27.7335 31.999 27.1812 31.999C26.6289 31.999 26.1812 31.5513 26.1812 30.999V28.1811H24.9996C24.9956 28.1811 24.9916 28.1811 24.9876 28.1811ZM7.54605 26.1811C6.99376 26.1811 6.54605 26.6289 6.54605 27.1811C6.54605 27.7334 6.99376 28.1811 7.54605 28.1811H11.9094C12.4617 28.1811 12.9094 27.7334 12.9094 27.1811C12.9094 26.6289 12.4617 26.1811 11.9094 26.1811H7.54605ZM16.2728 26.1811C15.7205 26.1811 15.2728 26.6289 15.2728 27.1811C15.2728 27.7334 15.7205 28.1811 16.2728 28.1811H20.6362C21.1885 28.1811 21.6362 27.7334 21.6362 27.1811C21.6362 26.6289 21.1885 26.1811 20.6362 26.1811H16.2728Z" fill="#111827"/>
</svg>
