<svg width="32" height="32" viewBox="0 0 32 32" fill="none" xmlns="http://www.w3.org/2000/svg">
<path fill-rule="evenodd" clip-rule="evenodd" d="M1.00026 0.00012207H31.0001C31.5524 0.00012207 32.0001 0.447837 32.0001 1.00012V31L31.7208 30.7207C31.7465 30.8093 31.7603 30.903 31.7603 30.9999C31.7603 31.5522 31.3126 31.9999 30.7603 31.9999H28.9003C28.3481 31.9999 27.9003 31.5522 27.9003 30.9999C27.9003 30.4476 28.3481 29.9999 28.9003 29.9999H30.7603C30.8572 29.9999 30.9509 30.0136 31.0395 30.0394L1.961 0.960864C1.98671 1.04947 2.00049 1.14314 2.00049 1.24003V3.10002C2.00049 3.6523 1.55277 4.10002 1.00049 4.10002C0.448204 4.10002 0.000488281 3.6523 0.000488281 3.10002V1.24003C0.000488281 0.687745 0.448204 0.24003 1.00049 0.24003C1.09738 0.24003 1.19105 0.25381 1.27965 0.279517L1.00026 0.00012207ZM2.00049 6.82C2.00049 6.26771 1.55277 5.82 1.00049 5.82C0.448204 5.82 0.000488281 6.26771 0.000488281 6.82V10.54C0.000488281 11.0923 0.448204 11.54 1.00049 11.54C1.55277 11.54 2.00049 11.0923 2.00049 10.54V6.82ZM2.00049 14.26C2.00049 13.7077 1.55277 13.26 1.00049 13.26C0.448204 13.26 0.000488281 13.7077 0.000488281 14.26V17.9799C0.000488281 18.5322 0.448204 18.9799 1.00049 18.9799C1.55277 18.9799 2.00049 18.5322 2.00049 17.9799V14.26ZM2.00049 21.6999C2.00049 21.1476 1.55277 20.6999 1.00049 20.6999C0.448204 20.6999 0.000488281 21.1476 0.000488281 21.6999V25.4199C0.000488281 25.9722 0.448204 26.4199 1.00049 26.4199C1.55277 26.4199 2.00049 25.9722 2.00049 25.4199V21.6999ZM2.00049 29.1399C2.00049 28.5876 1.55277 28.1399 1.00049 28.1399C0.448204 28.1399 0.000488281 28.5876 0.000488281 29.1399V30.9999C0.000488281 31.5522 0.448204 31.9999 1.00049 31.9999H2.86048C3.41276 31.9999 3.86048 31.5522 3.86048 30.9999C3.86048 30.4476 3.41276 29.9999 2.86048 29.9999H2.00049V29.1399ZM6.58046 29.9999C6.02817 29.9999 5.58046 30.4476 5.58046 30.9999C5.58046 31.5522 6.02817 31.9999 6.58046 31.9999H10.3004C10.8527 31.9999 11.3004 31.5522 11.3004 30.9999C11.3004 30.4476 10.8527 29.9999 10.3004 29.9999H6.58046ZM14.0204 29.9999C13.4681 29.9999 13.0204 30.4476 13.0204 30.9999C13.0204 31.5522 13.4681 31.9999 14.0204 31.9999H17.7404C18.2927 31.9999 18.7404 31.5522 18.7404 30.9999C18.7404 30.4476 18.2927 29.9999 17.7404 29.9999H14.0204ZM21.4604 29.9999C20.9081 29.9999 20.4604 30.4476 20.4604 30.9999C20.4604 31.5522 20.9081 31.9999 21.4604 31.9999H25.1804C25.7326 31.9999 26.1804 31.5522 26.1804 30.9999C26.1804 30.4476 25.7326 29.9999 25.1804 29.9999H21.4604Z" fill="#111827"/>
</svg>
