<svg width="33" height="33" viewBox="0 0 33 33" fill="none" xmlns="http://www.w3.org/2000/svg">
<path fill-rule="evenodd" clip-rule="evenodd" d="M11.5054 3.28296C10.9531 3.28296 10.5054 3.73067 10.5054 4.28296V5.92618C10.5054 6.47846 10.9531 6.92618 11.5054 6.92618C12.0577 6.92618 12.5054 6.47846 12.5054 5.92618V5.28296H13.6872C14.2395 5.28296 14.6872 4.83524 14.6872 4.28296C14.6872 3.73067 14.2395 3.28296 13.6872 3.28296H11.5054ZM18.0508 3.28296C17.4985 3.28296 17.0508 3.73067 17.0508 4.28296C17.0508 4.83524 17.4985 5.28296 18.0508 5.28296H22.4145C22.9667 5.28296 23.4145 4.83524 23.4145 4.28296C23.4145 3.73067 22.9667 3.28296 22.4145 3.28296H18.0508ZM26.7781 3.28296C26.2258 3.28296 25.7781 3.73067 25.7781 4.28296C25.7781 4.83524 26.2258 5.28296 26.7781 5.28296H27.9599V6.46478C27.9599 7.01706 28.4076 7.46478 28.9599 7.46478C29.5122 7.46478 29.9599 7.01706 29.9599 6.46478V4.28296C29.9599 3.73067 29.5122 3.28296 28.9599 3.28296H26.7781ZM12.5054 9.21261C12.5054 8.66033 12.0577 8.21261 11.5054 8.21261C10.9531 8.21261 10.5054 8.66033 10.5054 9.21261V10.8284H5.95996C5.40768 10.8284 4.95996 11.2761 4.95996 11.8284V27.2829C4.95996 27.8352 5.40768 28.2829 5.95996 28.2829H21.4145C21.9668 28.2829 22.4145 27.8352 22.4145 27.2829V22.7375H24.0493C24.6015 22.7375 25.0493 22.2898 25.0493 21.7375C25.0493 21.1852 24.6015 20.7375 24.0493 20.7375H22.4145V11.8284C22.4145 11.2761 21.9668 10.8284 21.4145 10.8284H12.5054V9.21261ZM29.9599 10.8284C29.9599 10.2761 29.5122 9.82841 28.9599 9.82841C28.4076 9.82841 27.9599 10.2761 27.9599 10.8284V15.1921C27.9599 15.7443 28.4076 16.1921 28.9599 16.1921C29.5122 16.1921 29.9599 15.7443 29.9599 15.1921V10.8284ZM29.9599 19.5557C29.9599 19.0034 29.5122 18.5557 28.9599 18.5557C28.4076 18.5557 27.9599 19.0034 27.9599 19.5557V20.7375H27.323C26.7707 20.7375 26.323 21.1852 26.323 21.7375C26.323 22.2898 26.7707 22.7375 27.323 22.7375H28.9599C29.5122 22.7375 29.9599 22.2898 29.9599 21.7375V19.5557Z" fill="#1C1B1F"/>
</svg>
