<svg width="32" height="32" viewBox="0 0 32 32" fill="none" xmlns="http://www.w3.org/2000/svg">
<path fill-rule="evenodd" clip-rule="evenodd" d="M8.45447 0.00012207C7.90219 0.00012207 7.45447 0.447837 7.45447 1.00012V3.12259C7.45447 3.67488 7.90219 4.12259 8.45447 4.12259C9.00676 4.12259 9.45447 3.67488 9.45447 3.12259V2.00012H10.3332C10.8855 2.00012 11.3332 1.55241 11.3332 1.00012C11.3332 0.447837 10.8855 0.00012207 10.3332 0.00012207H8.45447ZM14.0908 0.00012207C13.5385 0.00012207 13.0908 0.447837 13.0908 1.00012C13.0908 1.55241 13.5385 2.00012 14.0908 2.00012H17.8483C18.4006 2.00012 18.8483 1.55241 18.8483 1.00012C18.8483 0.447837 18.4006 0.00012207 17.8483 0.00012207H14.0908ZM21.6059 0.00012207C21.0536 0.00012207 20.6059 0.447837 20.6059 1.00012C20.6059 1.55241 21.0536 2.00012 21.6059 2.00012H25.3634C25.9157 2.00012 26.3634 1.55241 26.3634 1.00012C26.3634 0.447837 25.9157 0.00012207 25.3634 0.00012207H21.6059ZM29.121 0.00012207C28.5687 0.00012207 28.121 0.447837 28.121 1.00012C28.121 1.55241 28.5687 2.00012 29.121 2.00012H29.9997V2.87889C29.9997 3.43118 30.4475 3.87889 30.9997 3.87889C31.552 3.87889 31.9997 3.43118 31.9997 2.87889V1.00012C31.9997 0.447837 31.552 0.00012207 30.9997 0.00012207H29.121ZM31.9997 6.63644C31.9997 6.08416 31.552 5.63644 30.9997 5.63644C30.4475 5.63644 29.9997 6.08416 29.9997 6.63644V10.394C29.9997 10.9463 30.4475 11.394 30.9997 11.394C31.552 11.394 31.9997 10.9463 31.9997 10.394V6.63644ZM9.45447 7.36754C9.45447 6.81525 9.00676 6.36754 8.45447 6.36754C7.90219 6.36754 7.45447 6.81525 7.45447 7.36754V9.45459H1.00049C0.448204 9.45459 0.000488281 9.90231 0.000488281 10.4546V30.9999C0.000488281 31.5521 0.448203 31.9999 1.00049 31.9999H21.5458C22.098 31.9999 22.5458 31.5522 22.5458 30.9999V24.5454H24.6569C25.2092 24.5454 25.6569 24.0977 25.6569 23.5454C25.6569 22.9931 25.2092 22.5454 24.6569 22.5454H22.5458V10.4546C22.5458 9.90231 22.098 9.45459 21.5458 9.45459H9.45447V7.36754ZM31.9997 14.1515C31.9997 13.5992 31.552 13.1515 30.9997 13.1515C30.4475 13.1515 29.9997 13.5992 29.9997 14.1515V17.9091C29.9997 18.4614 30.4475 18.9091 30.9997 18.9091C31.552 18.9091 31.9997 18.4614 31.9997 17.9091V14.1515ZM31.9997 21.6666C31.9997 21.1143 31.552 20.6666 30.9997 20.6666C30.4475 20.6666 29.9997 21.1143 29.9997 21.6666V22.5454H28.8855C28.3332 22.5454 27.8855 22.9931 27.8855 23.5454C27.8855 24.0977 28.3332 24.5454 28.8855 24.5454H30.9997C31.552 24.5454 31.9997 24.0977 31.9997 23.5454V21.6666Z" fill="#111827"/>
</svg>
