<svg width="33" height="33" viewBox="0 0 33 33" fill="none" xmlns="http://www.w3.org/2000/svg">
<path fill-rule="evenodd" clip-rule="evenodd" d="M4.95996 3.28296H28.96C29.5122 3.28296 29.96 3.73067 29.96 4.28296V28.283C29.96 28.8352 29.5122 29.283 28.96 29.283H26.96C26.4077 29.283 25.96 28.8352 25.96 28.283C25.96 27.7307 26.4077 27.283 26.96 27.283H28.96L5.95996 4.28296V6.28296C5.95996 6.83524 5.51225 7.28296 4.95996 7.28296C4.40768 7.28296 3.95996 6.83524 3.95996 6.28296V4.28296C3.95996 3.73067 4.40768 3.28296 4.95996 3.28296ZM5.95996 10.283C5.95996 9.73067 5.51225 9.28296 4.95996 9.28296C4.40768 9.28296 3.95996 9.73067 3.95996 10.283V14.283C3.95996 14.8352 4.40768 15.283 4.95996 15.283C5.51225 15.283 5.95996 14.8352 5.95996 14.283V10.283ZM5.95996 18.283C5.95996 17.7307 5.51225 17.283 4.95996 17.283C4.40768 17.283 3.95996 17.7307 3.95996 18.283V22.283C3.95996 22.8352 4.40768 23.283 4.95996 23.283C5.51225 23.283 5.95996 22.8352 5.95996 22.283V18.283ZM5.95996 26.283C5.95996 25.7307 5.51225 25.283 4.95996 25.283C4.40768 25.283 3.95996 25.7307 3.95996 26.283V28.283C3.95996 28.8352 4.40768 29.283 4.95996 29.283H6.95996C7.51225 29.283 7.95996 28.8352 7.95996 28.283C7.95996 27.7307 7.51225 27.283 6.95996 27.283H5.95996V26.283ZM10.96 27.283C10.4077 27.283 9.95996 27.7307 9.95996 28.283C9.95996 28.8352 10.4077 29.283 10.96 29.283H14.96C15.5122 29.283 15.96 28.8352 15.96 28.283C15.96 27.7307 15.5122 27.283 14.96 27.283H10.96ZM18.96 27.283C18.4077 27.283 17.96 27.7307 17.96 28.283C17.96 28.8352 18.4077 29.283 18.96 29.283H22.96C23.5122 29.283 23.96 28.8352 23.96 28.283C23.96 27.7307 23.5122 27.283 22.96 27.283H18.96Z" fill="#1C1B1F"/>
</svg>
