<svg width="33" height="33" viewBox="0 0 33 33" fill="none" xmlns="http://www.w3.org/2000/svg">
<path fill-rule="evenodd" clip-rule="evenodd" d="M4.95996 3.28296C4.40768 3.28296 3.95996 3.73067 3.95996 4.28296V6.02841C3.95996 6.5807 4.40768 7.02841 4.95996 7.02841C5.51225 7.02841 5.95996 6.5807 5.95996 6.02841V5.28296H6.70542C7.2577 5.28296 7.70542 4.83524 7.70542 4.28296C7.70542 3.73067 7.2577 3.28296 6.70542 3.28296H4.95996ZM10.1963 3.28296C9.64404 3.28296 9.19633 3.73067 9.19633 4.28296C9.19633 4.83524 9.64404 5.28296 10.1963 5.28296H13.6872C14.2395 5.28296 14.6872 4.83524 14.6872 4.28296C14.6872 3.73067 14.2395 3.28296 13.6872 3.28296H10.1963ZM17.1781 3.28296C16.6259 3.28296 16.1781 3.73067 16.1781 4.28296C16.1781 4.83524 16.6259 5.28296 17.1781 5.28296H20.6691C21.2213 5.28296 21.6691 4.83524 21.6691 4.28296C21.6691 3.73067 21.2213 3.28296 20.6691 3.28296H17.1781ZM24.16 3.28296C23.6077 3.28296 23.16 3.73067 23.16 4.28296C23.16 4.83524 23.6077 5.28296 24.16 5.28296H24.9054V6.02841C24.9054 6.5807 25.3531 7.02841 25.9054 7.02841C26.4577 7.02841 26.9054 6.5807 26.9054 6.02841V4.28296C26.9054 3.73067 26.4577 3.28296 25.9054 3.28296H24.16ZM5.95996 9.51932C5.95996 8.96704 5.51225 8.51932 4.95996 8.51932C4.40768 8.51932 3.95996 8.96704 3.95996 9.51932V13.0102C3.95996 13.5625 4.40768 14.0102 4.95996 14.0102C5.51225 14.0102 5.95996 13.5625 5.95996 13.0102V9.51932ZM26.9054 9.51932C26.9054 8.96704 26.4577 8.51932 25.9054 8.51932C25.3531 8.51932 24.9054 8.96704 24.9054 9.51932V13.0102C24.9054 13.5625 25.3531 14.0102 25.9054 14.0102C26.4577 14.0102 26.9054 13.5625 26.9054 13.0102V9.51932ZM5.95996 16.5011C5.95996 15.9489 5.51225 15.5011 4.95996 15.5011C4.40768 15.5011 3.95996 15.9489 3.95996 16.5011V19.992C3.95996 20.5443 4.40768 20.992 4.95996 20.992C5.51225 20.992 5.95996 20.5443 5.95996 19.992V16.5011ZM26.9054 16.5011C26.9054 15.9489 26.4577 15.5011 25.9054 15.5011C25.3531 15.5011 24.9054 15.9489 24.9054 16.5011V19.9921C24.9054 20.5443 25.3531 20.9921 25.9054 20.9921C26.4577 20.9921 26.9054 20.5443 26.9054 19.9921V16.5011ZM5.95996 23.483C5.95996 22.9307 5.51225 22.483 4.95996 22.483C4.40768 22.483 3.95996 22.9307 3.95996 23.483V25.2284C3.95996 25.7807 4.40768 26.2284 4.95996 26.2284H6.70542C7.2577 26.2284 7.70542 25.7807 7.70542 25.2284C7.70542 24.6761 7.2577 24.2284 6.70542 24.2284H5.95996V23.483ZM24.1537 26.2284H22.8511C22.2988 26.2284 21.8511 25.7807 21.8511 25.2284C21.8511 24.6761 22.2988 24.2284 22.8511 24.2284H24.9053V22.1738C24.9053 21.6215 25.353 21.1738 25.9053 21.1738C26.4576 21.1738 26.9053 21.6215 26.9053 22.1738V23.466C26.9054 23.4716 26.9054 23.4773 26.9054 23.483V24.2284H28.9602C29.5124 24.2284 29.9602 24.6761 29.9602 25.2284C29.9602 25.7807 29.5124 26.2284 28.9602 26.2284H26.9053V28.2829C26.9053 28.8352 26.4576 29.2829 25.9053 29.2829C25.353 29.2829 24.9053 28.8352 24.9053 28.2829V26.2284H24.16C24.1579 26.2284 24.1558 26.2284 24.1537 26.2284ZM10.1963 24.2284C9.64404 24.2284 9.19632 24.6761 9.19632 25.2284C9.19632 25.7807 9.64404 26.2284 10.1963 26.2284H13.6872C14.2395 26.2284 14.6872 25.7807 14.6872 25.2284C14.6872 24.6761 14.2395 24.2284 13.6872 24.2284H10.1963ZM17.1781 24.2284C16.6259 24.2284 16.1781 24.6761 16.1781 25.2284C16.1781 25.7807 16.6259 26.2284 17.1781 26.2284H20.6691C21.2213 26.2284 21.6691 25.7807 21.6691 25.2284C21.6691 24.6761 21.2213 24.2284 20.6691 24.2284H17.1781Z" fill="#1C1B1F"/>
</svg>
