<svg width="33" height="33" viewBox="0 0 33 33" fill="none" xmlns="http://www.w3.org/2000/svg">
<path fill-rule="evenodd" clip-rule="evenodd" d="M5.66707 3.57585C5.27654 3.18533 4.64338 3.18533 4.25285 3.57585C3.86233 3.96638 3.86233 4.59954 4.25285 4.99007L28.2529 28.9901C28.6434 29.3806 29.2765 29.3806 29.6671 28.9901C30.0576 28.5995 30.0576 27.9664 29.6671 27.5759L5.66707 3.57585ZM13.0573 5.28296C12.505 5.28296 12.0573 5.73067 12.0573 6.28296C12.0573 6.83524 12.505 7.28296 13.0573 7.28296H14.7951C15.3474 7.28296 15.7951 6.83524 15.7951 6.28296C15.7951 5.73067 15.3474 5.28296 14.7951 5.28296H13.0573ZM18.2708 5.28296C17.7185 5.28296 17.2708 5.73067 17.2708 6.28296C17.2708 6.83524 17.7185 7.28296 18.2708 7.28296H21.7465C22.2987 7.28296 22.7465 6.83524 22.7465 6.28296C22.7465 5.73067 22.2987 5.28296 21.7465 5.28296H18.2708ZM25.2221 5.28296C24.6698 5.28296 24.2221 5.73067 24.2221 6.28296C24.2221 6.83524 24.6698 7.28296 25.2221 7.28296H25.96V8.02173C25.96 8.57401 26.4077 9.02173 26.96 9.02173C27.5122 9.02173 27.96 8.57401 27.96 8.02173V6.28296C27.96 5.73067 27.5122 5.28296 26.96 5.28296H25.2221ZM27.96 11.4993C27.96 10.947 27.5122 10.4993 26.96 10.4993C26.4077 10.4993 25.96 10.947 25.96 11.4993V14.9768C25.96 15.5291 26.4077 15.9768 26.96 15.9768C27.5122 15.9768 27.96 15.5291 27.96 14.9768V11.4993ZM7.95996 12.3738C7.95996 11.8215 7.51225 11.3738 6.95996 11.3738C6.40768 11.3738 5.95996 11.8215 5.95996 12.3738V14.1124C5.95996 14.6647 6.40768 15.1124 6.95996 15.1124C7.51225 15.1124 7.95996 14.6647 7.95996 14.1124V12.3738ZM7.95996 17.5897C7.95996 17.0374 7.51225 16.5897 6.95996 16.5897C6.40768 16.5897 5.95996 17.0374 5.95996 17.5897V21.067C5.95996 21.6193 6.40768 22.067 6.95996 22.067C7.51225 22.067 7.95996 21.6193 7.95996 21.067V17.5897ZM27.96 18.4543C27.96 17.9021 27.5122 17.4543 26.96 17.4543C26.4077 17.4543 25.96 17.9021 25.96 18.4543V20.1931C25.96 20.7454 26.4077 21.1931 26.96 21.1931C27.5122 21.1931 27.96 20.7454 27.96 20.1931V18.4543ZM7.95996 24.5443C7.95996 23.992 7.51225 23.5443 6.95996 23.5443C6.40768 23.5443 5.95996 23.992 5.95996 24.5443V26.283C5.95996 26.8352 6.40768 27.283 6.95996 27.283H8.69873C9.25102 27.283 9.69873 26.8352 9.69873 26.283C9.69873 25.7307 9.25102 25.283 8.69873 25.283H7.95996V24.5443ZM12.1763 25.283C11.624 25.283 11.1763 25.7307 11.1763 26.283C11.1763 26.8352 11.624 27.283 12.1763 27.283H15.6538C16.2061 27.283 16.6538 26.8352 16.6538 26.283C16.6538 25.7307 16.2061 25.283 15.6538 25.283H12.1763ZM19.1313 25.283C18.5791 25.283 18.1313 25.7307 18.1313 26.283C18.1313 26.8352 18.5791 27.283 19.1313 27.283H20.8701C21.4224 27.283 21.8701 26.8352 21.8701 26.283C21.8701 25.7307 21.4224 25.283 20.8701 25.283H19.1313Z" fill="#1C1B1F"/>
</svg>
