<svg width="32" height="32" viewBox="0 0 32 32" fill="none" xmlns="http://www.w3.org/2000/svg">
<path fill-rule="evenodd" clip-rule="evenodd" d="M9.18229 0.000854492C8.63 0.000854492 8.18229 0.44857 8.18229 1.00085V8.18216H6.45569C5.9034 8.18216 5.45569 8.62988 5.45569 9.18216C5.45569 9.73445 5.9034 10.1822 6.45569 10.1822H8.92171C9.00479 10.2045 9.09214 10.2165 9.18229 10.2165C9.27243 10.2165 9.35978 10.2045 9.44286 10.1822H10.0918C10.6441 10.1822 11.0918 9.73445 11.0918 9.18216C11.0918 8.66037 10.6922 8.23191 10.1823 8.1862V2.00085H29.9992V21.8177H23.8143C23.7683 21.3081 23.34 20.9087 22.8184 20.9087C22.2661 20.9087 21.8184 21.3564 21.8184 21.9087V22.7382C21.8163 22.7644 21.8152 22.791 21.8152 22.8177C21.8152 22.8445 21.8163 22.8711 21.8184 22.8973V25.5448C21.8184 26.0971 22.2661 26.5448 22.8184 26.5448C23.3706 26.5448 23.8184 26.0971 23.8184 25.5448V23.8177H30.9992C31.5515 23.8177 31.9992 23.37 31.9992 22.8177V1.00085C31.9992 0.44857 31.5515 0.000854492 30.9992 0.000854492H9.18229ZM1.00146 8.18216C0.44918 8.18216 0.00146484 8.62988 0.00146484 9.18216V11.0002C0.00146484 11.5525 0.44918 12.0002 1.00146 12.0002C1.55375 12.0002 2.00146 11.5525 2.00146 11.0002V10.1822H2.81954C3.37182 10.1822 3.81954 9.73445 3.81954 9.18216C3.81954 8.62988 3.37182 8.18216 2.81954 8.18216H1.00146ZM13.728 8.18216C13.1757 8.18216 12.728 8.62988 12.728 9.18216C12.728 9.73445 13.1757 10.1822 13.728 10.1822H17.3641C17.9164 10.1822 18.3641 9.73445 18.3641 9.18216C18.3641 8.62988 17.9164 8.18216 17.3641 8.18216H13.728ZM21.0003 8.18216C20.448 8.18216 20.0003 8.62988 20.0003 9.18216C20.0003 9.73445 20.448 10.1822 21.0003 10.1822H21.8184V11.0002C21.8184 11.5525 22.2661 12.0002 22.8184 12.0002C23.3706 12.0002 23.8184 11.5525 23.8184 11.0002V9.18216C23.8184 8.62988 23.3706 8.18216 22.8184 8.18216H21.0003ZM2.00146 14.6364C2.00146 14.0841 1.55375 13.6364 1.00146 13.6364C0.44918 13.6364 0.00146484 14.0841 0.00146484 14.6364V18.2725C0.00146484 18.8248 0.44918 19.2725 1.00146 19.2725C1.55375 19.2725 2.00146 18.8248 2.00146 18.2725V14.6364ZM23.8184 14.6364C23.8184 14.0841 23.3706 13.6364 22.8184 13.6364C22.2661 13.6364 21.8184 14.0841 21.8184 14.6364V18.2725C21.8184 18.8248 22.2661 19.2725 22.8184 19.2725C23.3706 19.2725 23.8184 18.8248 23.8184 18.2725V14.6364ZM2.00146 21.9087C2.00146 21.3564 1.55375 20.9087 1.00146 20.9087C0.44918 20.9087 0.00146484 21.3564 0.00146484 21.9087V25.5448C0.00146484 26.0971 0.44918 26.5448 1.00146 26.5448C1.55375 26.5448 2.00146 26.0971 2.00146 25.5448V21.9087ZM2.00146 29.181C2.00146 28.6287 1.55375 28.181 1.00146 28.181C0.44918 28.181 0.00146484 28.6287 0.00146484 29.181V30.9991C0.00146484 31.5513 0.44918 31.9991 1.00146 31.9991H2.81954C3.37182 31.9991 3.81954 31.5513 3.81954 30.9991C3.81954 30.4468 3.37182 29.9991 2.81954 29.9991H2.00146V29.181ZM23.8184 29.181C23.8184 28.6287 23.3706 28.181 22.8184 28.181C22.2661 28.181 21.8184 28.6287 21.8184 29.181V29.9991H21.0003C20.448 29.9991 20.0003 30.4468 20.0003 30.9991C20.0003 31.5513 20.448 31.9991 21.0003 31.9991H22.8184C23.3706 31.9991 23.8184 31.5513 23.8184 30.9991V29.181ZM6.45569 29.9991C5.9034 29.9991 5.45569 30.4468 5.45569 30.9991C5.45569 31.5513 5.9034 31.9991 6.45569 31.9991H10.0918C10.6441 31.9991 11.0918 31.5513 11.0918 30.9991C11.0918 30.4468 10.6441 29.9991 10.0918 29.9991H6.45569ZM13.728 29.9991C13.1757 29.9991 12.728 30.4468 12.728 30.9991C12.728 31.5513 13.1757 31.9991 13.728 31.9991H17.3641C17.9164 31.9991 18.3641 31.5513 18.3641 30.9991C18.3641 30.4468 17.9164 29.9991 17.3641 29.9991H13.728Z" fill="#111827"/>
</svg>
