<svg width="33" height="33" viewBox="0 0 33 33" fill="none" xmlns="http://www.w3.org/2000/svg">
<path fill-rule="evenodd" clip-rule="evenodd" d="M11.5054 3.28296C10.9531 3.28296 10.5054 3.73067 10.5054 4.28296V10.8558C10.5054 11.4081 10.9531 11.8558 11.5054 11.8558C11.5858 11.8558 11.6641 11.8463 11.7391 11.8284H15.8691C16.4213 11.8284 16.8691 11.3807 16.8691 10.8284C16.8691 10.2761 16.4213 9.82837 15.8691 9.82837H12.5054V5.28296H27.9599V20.7375H23.4145V17.3738C23.4145 16.8215 22.9668 16.3738 22.4145 16.3738C21.8622 16.3738 21.4145 16.8215 21.4145 17.3738V21.6717C21.4131 21.6935 21.4124 21.7154 21.4124 21.7375C21.4124 22.2898 21.8601 22.7375 22.4124 22.7375H28.9599C29.5122 22.7375 29.9599 22.2898 29.9599 21.7375V4.28296C29.9599 3.73067 29.5122 3.28296 28.9599 3.28296H11.5054ZM4.95996 9.82837C4.40768 9.82837 3.95996 10.2761 3.95996 10.8284V13.0102C3.95996 13.5625 4.40768 14.0102 4.95996 14.0102C5.51225 14.0102 5.95996 13.5625 5.95996 13.0102V11.8284H7.14178C7.69406 11.8284 8.14178 11.3807 8.14178 10.8284C8.14178 10.2761 7.69406 9.82837 7.14178 9.82837H4.95996ZM20.2327 9.82837C19.6804 9.82837 19.2327 10.2761 19.2327 10.8284C19.2327 11.3807 19.6804 11.8284 20.2327 11.8284H21.4145V13.0102C21.4145 13.5625 21.8622 14.0102 22.4145 14.0102C22.9668 14.0102 23.4145 13.5625 23.4145 13.0102V10.8284C23.4145 10.2761 22.9668 9.82837 22.4145 9.82837H20.2327ZM5.95996 17.3738C5.95996 16.8215 5.51225 16.3738 4.95996 16.3738C4.40768 16.3738 3.95996 16.8215 3.95996 17.3738V21.7375C3.95996 22.2897 4.40768 22.7375 4.95996 22.7375C5.51225 22.7375 5.95996 22.2897 5.95996 21.7375V17.3738ZM5.95996 26.1011C5.95996 25.5488 5.51225 25.1011 4.95996 25.1011C4.40768 25.1011 3.95996 25.5488 3.95996 26.1011V28.2829C3.95996 28.8352 4.40768 29.2829 4.95996 29.2829H7.14178C7.69406 29.2829 8.14178 28.8352 8.14178 28.2829C8.14178 27.7306 7.69406 27.2829 7.14178 27.2829H5.95996V26.1011ZM23.4145 26.1011C23.4145 25.5488 22.9668 25.1011 22.4145 25.1011C21.8622 25.1011 21.4145 25.5488 21.4145 26.1011V27.2829H20.2327C19.6804 27.2829 19.2327 27.7306 19.2327 28.2829C19.2327 28.8352 19.6804 29.2829 20.2327 29.2829H22.4145C22.9668 29.2829 23.4145 28.8352 23.4145 28.2829V26.1011ZM11.5054 27.2829C10.9531 27.2829 10.5054 27.7306 10.5054 28.2829C10.5054 28.8352 10.9531 29.2829 11.5054 29.2829H15.8691C16.4213 29.2829 16.8691 28.8352 16.8691 28.2829C16.8691 27.7306 16.4213 27.2829 15.8691 27.2829H11.5054Z" fill="#1C1B1F"/>
</svg>
