<svg width="32" height="32" viewBox="0 0 32 32" fill="none" xmlns="http://www.w3.org/2000/svg">
<path fill-rule="evenodd" clip-rule="evenodd" d="M6.10461 0.293498C6.4948 0.684355 6.49426 1.31752 6.1034 1.70771C4.80261 3.00628 3.77064 4.5486 3.06653 6.24641C2.36242 7.94422 2 9.76421 2 11.6022C2 13.4403 2.36242 15.2603 3.06653 16.9581C3.77064 18.6559 4.80261 20.1982 6.1034 21.4968C6.49426 21.887 6.4948 22.5201 6.10461 22.911C5.71442 23.3018 5.08125 23.3024 4.69039 22.9122C3.20353 21.4279 2.02393 19.6649 1.2191 17.7242C0.414267 15.7835 0 13.7032 0 11.6022C0 9.50128 0.414267 7.42094 1.2191 5.48025C2.02393 3.53957 3.20353 1.77662 4.69039 0.292289C5.08125 -0.0979011 5.71442 -0.0973603 6.10461 0.293498ZM9.88977 5.49433C10.2806 5.10414 10.2812 4.47098 9.89098 4.08012C9.50079 3.68926 8.86762 3.68872 8.47676 4.07891C7.48769 5.0663 6.70302 6.23902 6.16764 7.52997C5.63226 8.82093 5.35669 10.2048 5.35669 11.6023C5.35669 12.9999 5.63226 14.3838 6.16764 15.6747C6.70302 16.9657 7.48769 18.1384 8.47676 19.1258C8.86762 19.516 9.50079 19.5154 9.89098 19.1246C10.2812 18.7337 10.2806 18.1006 9.88977 17.7104C9.08677 16.9087 8.44973 15.9566 8.01507 14.9086C7.58042 13.8605 7.35669 12.737 7.35669 11.6023C7.35669 10.4677 7.58042 9.34421 8.01507 8.29613C8.44973 7.24805 9.08677 6.29595 9.88977 5.49433ZM23.5214 4.07891C23.1306 3.68872 22.4974 3.68926 22.1072 4.08012C21.717 4.47098 21.7176 5.10414 22.1084 5.49433C22.9114 6.29595 23.5485 7.24805 23.9831 8.29613C24.4178 9.34421 24.6415 10.4677 24.6415 11.6023C24.6415 12.737 24.4178 13.8605 23.9831 14.9086C23.5485 15.9566 22.9114 16.9087 22.1084 17.7104C21.7176 18.1006 21.717 18.7337 22.1072 19.1246C22.4974 19.5154 23.1306 19.516 23.5214 19.1258C24.5105 18.1384 25.2952 16.9657 25.8306 15.6747C26.3659 14.3838 26.6415 12.9999 26.6415 11.6023C26.6415 10.2048 26.3659 8.82093 25.8306 7.52997C25.2952 6.23902 24.5105 5.0663 23.5214 4.07891ZM27.3078 0.292289C26.917 -0.0979011 26.2838 -0.0973603 25.8936 0.293498C25.5034 0.684355 25.504 1.31752 25.8948 1.70771C27.1956 3.00628 28.2276 4.5486 28.9317 6.24641C29.6358 7.94422 29.9982 9.76421 29.9982 11.6022C29.9982 13.4403 29.6358 15.2603 28.9317 16.9581C28.2276 18.6559 27.1956 20.1982 25.8948 21.4968C25.504 21.887 25.5034 22.5201 25.8936 22.911C26.2838 23.3018 26.917 23.3024 27.3078 22.9122C28.7947 21.4279 29.9743 19.6649 30.7791 17.7242C31.5839 15.7835 31.9982 13.7032 31.9982 11.6022C31.9982 9.50128 31.584 7.42094 30.7791 5.48026C29.9743 3.53957 28.7947 1.77662 27.3078 0.292289ZM16 18C16.5523 18 17 18.4477 17 19V31C17 31.5523 16.5523 32 16 32C15.4477 32 15 31.5523 15 31V19C15 18.4477 15.4477 18 16 18ZM21 11C21 13.7614 18.7614 16 16 16C13.2386 16 11 13.7614 11 11C11 8.23858 13.2386 6 16 6C18.7614 6 21 8.23858 21 11Z" fill="#111827"/>
</svg>
