<svg width="33" height="33" viewBox="0 0 33 33" fill="none" xmlns="http://www.w3.org/2000/svg">
<path fill-rule="evenodd" clip-rule="evenodd" d="M27.1136 7.97521C27.1136 10.0144 25.4605 11.6675 23.4213 11.6675C22.4782 11.6675 21.6177 11.3139 20.9651 10.7321C20.9312 10.7611 20.8949 10.7881 20.8563 10.8129L14.1443 15.1278C14.1062 15.1522 14.067 15.1738 14.0271 15.1925C14.1335 15.5372 14.1908 15.9033 14.1908 16.2829C14.1908 16.6624 14.1335 17.0286 14.0271 17.3732C14.067 17.3919 14.1062 17.4135 14.1443 17.438L20.8563 21.7529C20.8949 21.7777 20.9312 21.8047 20.9652 21.8336C21.6177 21.2518 22.4782 20.8983 23.4213 20.8983C25.4605 20.8983 27.1136 22.5514 27.1136 24.5906C27.1136 26.6298 25.4605 28.2829 23.4213 28.2829C21.3821 28.2829 19.729 26.6298 19.729 24.5906C19.729 24.2111 19.7863 23.8449 19.8926 23.5003C19.8525 23.4815 19.8131 23.4599 19.7748 23.4352L13.0628 19.1204C13.0244 19.0957 12.9882 19.0688 12.9544 19.04C12.3018 19.6217 11.4414 19.9752 10.4985 19.9752C8.45925 19.9752 6.80615 18.3221 6.80615 16.2829C6.80615 14.2437 8.45925 12.5906 10.4985 12.5906C11.4414 12.5906 12.3018 12.9441 12.9544 13.5257C12.9882 13.497 13.0244 13.4701 13.0628 13.4454L19.7748 9.1305C19.8131 9.10588 19.8525 9.0842 19.8926 9.06541C19.7863 8.72083 19.729 8.3547 19.729 7.97521C19.729 5.936 21.3821 4.2829 23.4213 4.2829C25.4605 4.2829 27.1136 5.936 27.1136 7.97521Z" fill="#1C1B1F"/>
</svg>
