<svg width="32" height="32" viewBox="0 0 32 32" fill="none" xmlns="http://www.w3.org/2000/svg">
<path fill-rule="evenodd" clip-rule="evenodd" d="M9.99065 9.09578C9.60012 9.4863 9.60012 10.1195 9.99065 10.51C10.3812 10.9005 11.0143 10.9005 11.4049 10.51L15 6.91485V19.4982C15 20.0505 15.4477 20.4982 16 20.4982C16.5523 20.4982 17 20.0505 17 19.4982V6.91431L20.5957 10.51C20.9862 10.9005 21.6194 10.9005 22.0099 10.51C22.4004 10.1195 22.4004 9.4863 22.0099 9.09578L16.7074 3.79326C16.5704 3.65631 16.4036 3.56738 16.2279 3.52649C16.1954 3.5189 16.1622 3.5129 16.1285 3.50857C16.0699 3.50104 16.0108 3.49869 15.9518 3.50153C15.6882 3.51403 15.4513 3.6286 15.2798 3.80659L9.99065 9.09578ZM4 20.9978C4.55228 20.9978 5 21.4455 5 21.9978V26.4997H27V21.9978C27 21.4455 27.4477 20.9978 28 20.9978C28.5523 20.9978 29 21.4455 29 21.9978V27.4997C29 28.052 28.5523 28.4997 28 28.4997H4C3.44772 28.4997 3 28.052 3 27.4997V21.9978C3 21.4455 3.44772 20.9978 4 20.9978Z" fill="#111827"/>
</svg>
