<svg width="32" height="32" viewBox="0 0 32 32" fill="none" xmlns="http://www.w3.org/2000/svg">
<path fill-rule="evenodd" clip-rule="evenodd" d="M29.5386 4.92308C29.5386 7.64203 27.3344 9.84617 24.6155 9.84617C23.2373 9.84617 21.9913 9.27984 21.0977 8.3672C21.0715 8.38803 21.044 8.40774 21.0152 8.42623L12.0658 14.1794C12.0377 14.1975 12.009 14.214 11.9799 14.2289C12.1919 14.7785 12.3081 15.3757 12.3081 16C12.3081 16.6243 12.1919 17.2215 11.9799 17.7711C12.009 17.786 12.0377 17.8025 12.0658 17.8205L21.0152 23.5737C21.044 23.5922 21.0715 23.612 21.0977 23.6328C21.9914 22.7202 23.2373 22.1538 24.6155 22.1538C27.3344 22.1538 29.5386 24.358 29.5386 27.0769C29.5386 29.7959 27.3344 32 24.6155 32C21.8965 32 19.6924 29.7959 19.6924 27.0769C19.6924 26.4527 19.8086 25.8555 20.0205 25.306C19.9911 25.291 19.9621 25.2743 19.9337 25.2561L10.9843 19.5029C10.9558 19.4846 10.9285 19.465 10.9025 19.4444C10.0089 20.3569 8.76307 20.9231 7.385 20.9231C4.66605 20.9231 2.46191 18.7189 2.46191 16C2.46191 13.2811 4.66605 11.0769 7.385 11.0769C8.76306 11.0769 10.0089 11.6431 10.9025 12.5556C10.9285 12.535 10.9558 12.5154 10.9843 12.4971L19.9337 6.74387C19.9621 6.72563 19.9911 6.709 20.0205 6.69396C19.8086 6.14443 19.6924 5.54733 19.6924 4.92308C19.6924 2.20414 21.8965 0 24.6155 0C27.3344 0 29.5386 2.20414 29.5386 4.92308Z" fill="#111827"/>
</svg>
