<svg width="33" height="33" viewBox="0 0 33 33" fill="none" xmlns="http://www.w3.org/2000/svg">
<path fill-rule="evenodd" clip-rule="evenodd" d="M28.3842 14.9103V5.28296C28.3842 4.73067 27.9365 4.28296 27.3842 4.28296H16.9599H6.53563C5.98335 4.28296 5.53564 4.72893 5.53564 5.28122L5.53564 14.9103C5.53569 21.8354 9.43953 24.4186 16.5262 28.0607C16.7986 28.2007 17.1242 28.2078 17.4019 28.0786C24.3097 24.8661 28.3842 22.0105 28.3842 14.9103ZM11.96 14.8054C11.96 14.2531 12.4077 13.8054 12.96 13.8054H15.96V10.8054C15.96 10.2531 16.4077 9.80542 16.96 9.80542C17.5122 9.80542 17.96 10.2531 17.96 10.8054V13.8054H20.96C21.5122 13.8054 21.96 14.2531 21.96 14.8054C21.96 15.3577 21.5122 15.8054 20.96 15.8054H17.96V18.8054C17.96 19.3577 17.5122 19.8054 16.96 19.8054C16.4077 19.8054 15.96 19.3577 15.96 18.8054V15.8054H12.96C12.4077 15.8054 11.96 15.3577 11.96 14.8054Z" fill="#1C1B1F"/>
</svg>
