<svg width="32" height="32" viewBox="0 0 32 32" fill="none" xmlns="http://www.w3.org/2000/svg">
<path fill-rule="evenodd" clip-rule="evenodd" d="M31.2862 0.999756V14.2196C31.2862 15.973 31.1005 17.533 30.7395 18.9382L16.5019 10.6879C16.1918 10.5082 15.8092 10.5082 15.4991 10.6879L1.27527 18.9301C0.903236 17.5373 0.713887 15.9837 0.713876 14.2196L0.713867 0.996298C0.713871 0.444018 1.16158 -0.000244141 1.71386 -0.000244141H16H30.2862C30.8385 -0.000244141 31.2862 0.447471 31.2862 0.999756ZM1.94638 20.8528C4.02517 25.5883 8.68593 28.3601 15.5653 31.8901C15.8378 32.0299 16.1651 32.0371 16.443 31.9083C23.2328 28.7604 27.9994 25.8857 30.093 20.8751L16.0005 12.7088L1.94638 20.8528Z" fill="#111827"/>
</svg>
