<svg width="32" height="32" viewBox="0 0 32 32" fill="none" xmlns="http://www.w3.org/2000/svg">
<path fill-rule="evenodd" clip-rule="evenodd" d="M31.2862 14.2196V0.999756C31.2862 0.447471 30.8385 -0.000244141 30.2862 -0.000244141H16H1.71386C1.16158 -0.000244141 0.713871 0.444018 0.713867 0.996298L0.713876 14.2196C0.713932 23.5329 5.99093 26.9772 15.5653 31.8901C15.8378 32.0299 16.1651 32.0371 16.443 31.9083C25.7759 27.5814 31.2862 23.7707 31.2862 14.2196ZM9.64774 14.0793C9.64774 13.527 10.0955 13.0793 10.6477 13.0793H15.0001V8.72698C15.0001 8.1747 15.4478 7.72698 16.0001 7.72698C16.5523 7.72698 17.0001 8.1747 17.0001 8.72698V13.0793H21.3521C21.9043 13.0793 22.3521 13.527 22.3521 14.0793C22.3521 14.6316 21.9043 15.0793 21.3521 15.0793H17.0001V19.4313C17.0001 19.9836 16.5523 20.4313 16.0001 20.4313C15.4478 20.4313 15.0001 19.9836 15.0001 19.4313V15.0793H10.6477C10.0955 15.0793 9.64774 14.6316 9.64774 14.0793Z" fill="#111827"/>
</svg>
