<svg width="33" height="33" viewBox="0 0 33 33" fill="none" xmlns="http://www.w3.org/2000/svg">
<path fill-rule="evenodd" clip-rule="evenodd" d="M28.3842 14.9103V5.28296C28.3842 4.73067 27.9365 4.28296 27.3842 4.28296H16.9599H6.53563C5.98335 4.28296 5.53564 4.72893 5.53564 5.28122L5.53564 14.9103C5.53569 21.8354 9.43953 24.4186 16.5262 28.0607C16.7986 28.2007 17.1242 28.2078 17.4019 28.0786C24.3097 24.8661 28.3842 22.0105 28.3842 14.9103ZM16.96 9.80493C17.5122 9.80493 17.96 10.2526 17.96 10.8049V15.8049C17.96 16.3572 17.5122 16.8049 16.96 16.8049C16.4077 16.8049 15.96 16.3572 15.96 15.8049V10.8049C15.96 10.2526 16.4077 9.80493 16.96 9.80493ZM18.46 20.3049C18.46 21.1334 17.7884 21.8049 16.96 21.8049C16.1315 21.8049 15.46 21.1334 15.46 20.3049C15.46 19.4765 16.1315 18.8049 16.96 18.8049C17.7884 18.8049 18.46 19.4765 18.46 20.3049Z" fill="#1C1B1F"/>
</svg>
