<svg width="32" height="32" viewBox="0 0 32 32" fill="none" xmlns="http://www.w3.org/2000/svg">
<path fill-rule="evenodd" clip-rule="evenodd" d="M31.2862 14.2196V0.999756C31.2862 0.447471 30.8385 -0.000244141 30.2862 -0.000244141H16H1.71386C1.16158 -0.000244141 0.713871 0.444018 0.713867 0.996298L0.713876 14.2196C0.713932 23.5329 5.99093 26.9772 15.5653 31.8901C15.8378 32.0299 16.1651 32.0371 16.443 31.9083C25.7759 27.5814 31.2862 23.7707 31.2862 14.2196ZM16.0001 7.72649C16.5523 7.72649 17.0001 8.17421 17.0001 8.72649V15.4167C17.0001 15.969 16.5523 16.4167 16.0001 16.4167C15.4478 16.4167 15.0001 15.969 15.0001 15.4167V8.72649C15.0001 8.17421 15.4478 7.72649 16.0001 7.72649ZM18.0071 21.4377C18.0071 22.5462 17.1085 23.4448 16.0001 23.4448C14.8916 23.4448 13.993 22.5462 13.993 21.4377C13.993 20.3292 14.8916 19.4306 16.0001 19.4306C17.1085 19.4306 18.0071 20.3292 18.0071 21.4377Z" fill="#111827"/>
</svg>
