<svg width="32" height="32" viewBox="0 0 32 32" fill="none" xmlns="http://www.w3.org/2000/svg">
<path fill-rule="evenodd" clip-rule="evenodd" d="M31.2862 0.999756V14.2196C31.2862 23.7707 25.7759 27.5814 16.443 31.9083C16.1651 32.0371 15.8378 32.0299 15.5653 31.8901C5.99093 26.9772 0.713932 23.5329 0.713876 14.2196L0.713867 0.996298C0.713871 0.444018 1.16158 -0.000244141 1.71386 -0.000244141H16H30.2862C30.8385 -0.000244141 31.2862 0.447471 31.2862 0.999756ZM24.0496 10.9414C24.4491 10.5601 24.4638 9.92709 24.0825 9.52759C23.7011 9.1281 23.0681 9.11337 22.6686 9.49471L13.5468 18.2019L9.33116 14.1779C8.93167 13.7965 8.29867 13.8112 7.91733 14.2107C7.53599 14.6102 7.55071 15.2432 7.9502 15.6246L12.8563 20.3077C13.2427 20.6766 13.8508 20.6766 14.2372 20.3077L24.0496 10.9414Z" fill="#111827"/>
</svg>
