<svg width="33" height="33" viewBox="0 0 33 33" fill="none" xmlns="http://www.w3.org/2000/svg">
<path fill-rule="evenodd" clip-rule="evenodd" d="M28.3842 5.28296V14.9103C28.3842 22.0105 24.3097 24.8661 17.4019 28.0786C17.1242 28.2078 16.7986 28.2007 16.5262 28.0607C9.43953 24.4186 5.53569 21.8354 5.53564 14.9103L5.53564 5.28122C5.53564 4.72893 5.98335 4.28296 6.53563 4.28296H16.9599H27.3842C27.9365 4.28296 28.3842 4.73067 28.3842 5.28296ZM23.1504 12.643C23.5499 12.2617 23.5647 11.6287 23.1833 11.2292C22.802 10.8297 22.169 10.815 21.7695 11.1963L15.1266 17.5372L12.1504 14.6963C11.7509 14.315 11.118 14.3297 10.7366 14.7292C10.3553 15.1287 10.37 15.7617 10.7695 16.143L14.4361 19.643C14.8225 20.0119 15.4306 20.0119 15.8171 19.643L23.1504 12.643Z" fill="#1C1B1F"/>
</svg>
