<svg width="32" height="33" viewBox="0 0 32 33" fill="none" xmlns="http://www.w3.org/2000/svg">
<path fill-rule="evenodd" clip-rule="evenodd" d="M1 2.99976C0.447715 2.99976 0 3.44747 0 3.99976V29.0001C0 29.5524 0.447715 30.0001 1 30.0001H31.0005C31.5527 30.0001 32.0005 29.5524 32.0005 29.0001V3.99976C32.0005 3.44747 31.5527 2.99976 31.0005 2.99976H1ZM2 8.99985V4.99976H30.0005V8.99985H2ZM9.74998 13C10.3023 13 10.75 13.4477 10.75 14C10.75 15.3924 11.3031 16.7278 12.2877 17.7124C13.2723 18.697 14.6077 19.2501 16.0001 19.2501C17.3925 19.2501 18.7279 18.697 19.7125 17.7124C20.697 16.7278 21.2502 15.3924 21.2502 14C21.2502 13.4477 21.6979 13 22.2502 13C22.8025 13 23.2502 13.4477 23.2502 14C23.2502 15.9229 22.4863 17.7669 21.1267 19.1266C19.767 20.4863 17.9229 21.2501 16.0001 21.2501C14.0772 21.2501 12.2331 20.4863 10.8735 19.1266C9.51383 17.7669 8.74998 15.9229 8.74998 14C8.74998 13.4477 9.19769 13 9.74998 13Z" fill="#111827"/>
</svg>
