<svg width="33" height="33" viewBox="0 0 33 33" fill="none" xmlns="http://www.w3.org/2000/svg">
<path fill-rule="evenodd" clip-rule="evenodd" d="M28.9602 7.28296C28.9602 6.73067 28.5125 6.28296 27.9602 6.28296H5.96021C5.40792 6.28296 4.96021 6.73067 4.96021 7.28296V25.283C4.96021 25.8352 5.40792 26.283 5.96021 26.283H27.9602C28.5125 26.283 28.9602 25.8352 28.9602 25.283V7.28296ZM12.9602 11.283C12.9602 10.7307 12.5125 10.283 11.9602 10.283C11.4079 10.283 10.9602 10.7307 10.9602 11.283C10.9602 12.8743 11.5923 14.4004 12.7176 15.5256C13.8428 16.6508 15.3689 17.283 16.9602 17.283C18.5515 17.283 20.0776 16.6508 21.2028 15.5256C22.3281 14.4004 22.9602 12.8743 22.9602 11.283C22.9602 10.7307 22.5125 10.283 21.9602 10.283C21.4079 10.283 20.9602 10.7307 20.9602 11.283C20.9602 12.3438 20.5388 13.3612 19.7886 14.1114C19.0385 14.8615 18.0211 15.283 16.9602 15.283C15.8993 15.283 14.8819 14.8615 14.1318 14.1114C13.3816 13.3612 12.9602 12.3438 12.9602 11.283Z" fill="#1C1B1F"/>
</svg>
