<svg width="33" height="33" viewBox="0 0 33 33" fill="none" xmlns="http://www.w3.org/2000/svg">
<path fill-rule="evenodd" clip-rule="evenodd" d="M28.96 10.283H4.95996V26.283H28.96V10.283ZM12.96 14.283C12.96 13.7307 12.5122 13.283 11.96 13.283C11.4077 13.283 10.96 13.7307 10.96 14.283C10.96 15.8743 11.5921 17.4004 12.7173 18.5256C13.8425 19.6508 15.3687 20.283 16.96 20.283C18.5513 20.283 20.0774 19.6508 21.2026 18.5256C22.3278 17.4004 22.96 15.8743 22.96 14.283C22.96 13.7307 22.5122 13.283 21.96 13.283C21.4077 13.283 20.96 13.7307 20.96 14.283C20.96 15.3438 20.5385 16.3612 19.7884 17.1114C19.0382 17.8615 18.0208 18.283 16.96 18.283C15.8991 18.283 14.8817 17.8615 14.1315 17.1114C13.3814 16.3612 12.96 15.3438 12.96 14.283Z" fill="#1C1B1F"/>
<rect x="4.95996" y="6.28296" width="24" height="20" stroke="#1C1B1F" stroke-width="2" stroke-linejoin="round"/>
</svg>
