<svg width="33" height="33" viewBox="0 0 33 33" fill="none" xmlns="http://www.w3.org/2000/svg">
<path d="M13.0458 27.5128C14.0382 27.5128 14.8426 26.7083 14.8426 25.716C14.8426 24.7236 14.0382 23.9192 13.0458 23.9192C12.0535 23.9192 11.249 24.7236 11.249 25.716C11.249 26.7083 12.0535 27.5128 13.0458 27.5128Z" fill="#1C1B1F"/>
<path d="M24.725 27.5128C25.7174 27.5128 26.5218 26.7083 26.5218 25.716C26.5218 24.7236 25.7174 23.9192 24.725 23.9192C23.7327 23.9192 22.9282 24.7236 22.9282 25.716C22.9282 26.7083 23.7327 27.5128 24.725 27.5128Z" fill="#1C1B1F"/>
<path d="M28.9601 9.54517H8.81055L11.7751 19.9211C11.8824 20.2965 12.109 20.6268 12.4207 20.8619C12.7324 21.097 13.1123 21.2242 13.5027 21.2242H24.2679C24.6584 21.2242 25.0382 21.097 25.35 20.8619C25.6617 20.6268 25.8883 20.2965 25.9956 19.9211L28.9601 9.54517Z" fill="#1C1B1F" stroke="#1C1B1F" stroke-width="2" stroke-linecap="round" stroke-linejoin="round"/>
<path d="M4.96021 5.05298H6.81675C7.00861 5.05298 7.19524 5.11657 7.34841 5.23414C7.50158 5.35171 7.61295 5.51684 7.66565 5.70456L8.92243 9.90625" stroke="#1C1B1F" stroke-width="2" stroke-linecap="round" stroke-linejoin="round"/>
</svg>
