<svg width="32" height="32" viewBox="0 0 32 32" fill="none" xmlns="http://www.w3.org/2000/svg">
<path fill-rule="evenodd" clip-rule="evenodd" d="M1.12354 0.000976562C0.57125 0.000976562 0.123535 0.448692 0.123535 1.00098C0.123535 1.55326 0.57125 2.00098 1.12354 2.00098H3.59677C3.63064 2.00098 3.66556 2.01209 3.69615 2.03558C3.72705 2.0593 3.75244 2.09501 3.76488 2.13932L3.76959 2.15556L5.36019 7.47329C5.36293 7.50484 5.36875 7.53672 5.37786 7.56862L9.14502 20.7537C9.28792 21.2538 9.58985 21.6938 10.0051 22.0071C10.4204 22.3203 10.9264 22.4897 11.4465 22.4897H25.7876C26.3078 22.4897 26.8138 22.3203 27.229 22.0071C27.6443 21.6938 27.9462 21.2538 28.0891 20.7537L31.8563 7.56862C31.9476 7.24921 31.7077 6.93125 31.3755 6.93125H7.28561L5.68776 1.58929C5.5587 1.13729 5.28851 0.736581 4.91391 0.449049C4.53641 0.159298 4.07406 0.000976622 3.59677 0.000976562H1.12354ZM15.0062 28.366C15.0062 30.3725 13.3796 31.9992 11.373 31.9992C9.36648 31.9992 7.73985 30.3725 7.73985 28.366C7.73985 26.3595 9.36648 24.7328 11.373 24.7328C13.3796 24.7328 15.0062 26.3595 15.0062 28.366ZM29.5385 28.366C29.5385 30.3725 27.9119 31.9992 25.9053 31.9992C23.8988 31.9992 22.2722 30.3725 22.2722 28.366C22.2722 26.3595 23.8988 24.7328 25.9053 24.7328C27.9119 24.7328 29.5385 26.3595 29.5385 28.366Z" fill="#111827"/>
</svg>
