<svg width="32" height="33" viewBox="0 0 32 33" fill="none" xmlns="http://www.w3.org/2000/svg">
<path fill-rule="evenodd" clip-rule="evenodd" d="M32 4.1665C32 3.61422 31.5523 3.1665 31 3.1665H1C0.447715 3.1665 0 3.61422 0 4.1665V28.8332C0 29.3855 0.447715 29.8332 1 29.8332H31C31.5523 29.8332 32 29.3855 32 28.8332V4.1665ZM10.3333 9.83317C10.3333 9.28089 9.88562 8.83317 9.33333 8.83317C8.78105 8.83317 8.33333 9.28089 8.33333 9.83317C8.33333 11.8665 9.14107 13.8165 10.5788 15.2543C12.0166 16.6921 13.9667 17.4998 16 17.4998C18.0333 17.4998 19.9834 16.6921 21.4212 15.2543C22.8589 13.8165 23.6667 11.8665 23.6667 9.83317C23.6667 9.28089 23.219 8.83317 22.6667 8.83317C22.1144 8.83317 21.6667 9.28089 21.6667 9.83317C21.6667 11.3361 21.0696 12.7774 20.0069 13.8401C18.9442 14.9028 17.5029 15.4998 16 15.4998C14.4971 15.4998 13.0558 14.9028 11.9931 13.8401C10.9304 12.7774 10.3333 11.3361 10.3333 9.83317Z" fill="#111827"/>
</svg>
