<svg width="32" height="32" viewBox="0 0 32 32" fill="none" xmlns="http://www.w3.org/2000/svg">
<path fill-rule="evenodd" clip-rule="evenodd" d="M1 2.49976C0.447715 2.49976 0 2.94747 0 3.49976V28.5001C0 29.0524 0.447715 29.5001 1 29.5001H31.0005C31.5527 29.5001 32.0005 29.0524 32.0005 28.5001V3.49976C32.0005 2.94747 31.5527 2.49976 31.0005 2.49976H1ZM2 8.49985V4.49976H30.0005V8.49985H2ZM9.74998 12.5C10.3023 12.5 10.75 12.9477 10.75 13.5C10.75 14.8924 11.3031 16.2278 12.2877 17.2124C13.2723 18.197 14.6077 18.7501 16.0001 18.7501C17.3925 18.7501 18.7279 18.197 19.7125 17.2124C20.697 16.2278 21.2502 14.8924 21.2502 13.5C21.2502 12.9477 21.6979 12.5 22.2502 12.5C22.8025 12.5 23.2502 12.9477 23.2502 13.5C23.2502 15.4229 22.4863 17.2669 21.1267 18.6266C19.767 19.9863 17.9229 20.7501 16.0001 20.7501C14.0772 20.7501 12.2331 19.9863 10.8735 18.6266C9.51383 17.2669 8.74998 15.4229 8.74998 13.5C8.74998 12.9477 9.19769 12.5 9.74998 12.5Z" fill="#111827"/>
</svg>
