<svg width="32" height="32" viewBox="0 0 32 32" fill="none" xmlns="http://www.w3.org/2000/svg">
<path fill-rule="evenodd" clip-rule="evenodd" d="M32 3.6665C32 3.11422 31.5523 2.6665 31 2.6665H1C0.447715 2.6665 0 3.11422 0 3.6665V28.3332C0 28.8855 0.447715 29.3332 1 29.3332H31C31.5523 29.3332 32 28.8855 32 28.3332V3.6665ZM10.3333 9.33317C10.3333 8.78089 9.88562 8.33317 9.33333 8.33317C8.78105 8.33317 8.33333 8.78089 8.33333 9.33317C8.33333 11.3665 9.14107 13.3165 10.5788 14.7543C12.0166 16.1921 13.9667 16.9998 16 16.9998C18.0333 16.9998 19.9834 16.1921 21.4212 14.7543C22.8589 13.3165 23.6667 11.3665 23.6667 9.33317C23.6667 8.78089 23.219 8.33317 22.6667 8.33317C22.1144 8.33317 21.6667 8.78089 21.6667 9.33317C21.6667 10.8361 21.0696 12.2774 20.0069 13.3401C18.9442 14.4028 17.5029 14.9998 16 14.9998C14.4971 14.9998 13.0558 14.4028 11.9931 13.3401C10.9304 12.2774 10.3333 10.8361 10.3333 9.33317Z" fill="#111827"/>
</svg>
