<svg width="33" height="33" viewBox="0 0 33 33" fill="none" xmlns="http://www.w3.org/2000/svg">
<path d="M13.7163 28.2829C15.1072 28.2829 16.2348 27.1553 16.2348 25.7644C16.2348 24.3734 15.1072 23.2458 13.7163 23.2458C12.3253 23.2458 11.1978 24.3734 11.1978 25.7644C11.1978 27.1553 12.3253 28.2829 13.7163 28.2829Z" fill="#1C1B1F" stroke="#1C1B1F" stroke-width="2" stroke-linecap="round" stroke-linejoin="round"/>
<path d="M23.79 28.2829C25.1809 28.2829 26.3085 27.1553 26.3085 25.7644C26.3085 24.3734 25.1809 23.2458 23.79 23.2458C22.3991 23.2458 21.2715 24.3734 21.2715 25.7644C21.2715 27.1553 22.3991 28.2829 23.79 28.2829Z" fill="#1C1B1F" stroke="#1C1B1F" stroke-width="2" stroke-linecap="round" stroke-linejoin="round"/>
<path d="M28.0415 8.43115H9.43408L12.1717 18.0129C12.2708 18.3596 12.4801 18.6646 12.7679 18.8817C13.0558 19.0989 13.4066 19.2163 13.7671 19.2163H23.7084C24.069 19.2163 24.4197 19.0989 24.7076 18.8817C24.9955 18.6646 25.2048 18.3596 25.3038 18.0129L28.0415 8.43115Z" fill="#1C1B1F" stroke="#1C1B1F" stroke-width="2" stroke-linecap="round" stroke-linejoin="round"/>
<path d="M5.87842 4.28296H7.59287C7.77004 4.28296 7.94239 4.34169 8.08384 4.45025C8.22528 4.55882 8.32812 4.71132 8.3768 4.88467L9.53738 8.76477" stroke="#1C1B1F" stroke-width="2" stroke-linecap="round" stroke-linejoin="round"/>
</svg>
