<svg width="32" height="33" viewBox="0 0 32 33" fill="none" xmlns="http://www.w3.org/2000/svg">
<path fill-rule="evenodd" clip-rule="evenodd" d="M1.12354 0.500977C0.57125 0.500977 0.123535 0.948692 0.123535 1.50098C0.123535 2.05326 0.57125 2.50098 1.12354 2.50098H3.59677C3.63064 2.50098 3.66556 2.51209 3.69615 2.53558C3.72705 2.5593 3.75244 2.59501 3.76488 2.63932L3.76959 2.65556L5.36019 7.97329C5.36293 8.00484 5.36875 8.03672 5.37786 8.06862L9.14502 21.2537C9.28792 21.7538 9.58985 22.1938 10.0051 22.5071C10.4204 22.8203 10.9264 22.9897 11.4465 22.9897H25.7876C26.3078 22.9897 26.8138 22.8203 27.229 22.5071C27.6443 22.1938 27.9462 21.7538 28.0891 21.2537L31.8563 8.06862C31.9476 7.74921 31.7077 7.43125 31.3755 7.43125H7.28561L5.68776 2.08929C5.5587 1.63729 5.28851 1.23658 4.91391 0.949049C4.53641 0.659298 4.07406 0.500977 3.59677 0.500977H1.12354ZM15.0062 28.866C15.0062 30.8725 13.3796 32.4992 11.373 32.4992C9.36648 32.4992 7.73985 30.8725 7.73985 28.866C7.73985 26.8595 9.36648 25.2328 11.373 25.2328C13.3796 25.2328 15.0062 26.8595 15.0062 28.866ZM29.5385 28.866C29.5385 30.8725 27.9119 32.4992 25.9053 32.4992C23.8988 32.4992 22.2722 30.8725 22.2722 28.866C22.2722 26.8595 23.8988 25.2328 25.9053 25.2328C27.9119 25.2328 29.5385 26.8595 29.5385 28.866Z" fill="#111827"/>
</svg>
