<svg width="32" height="32" viewBox="0 0 32 32" fill="none" xmlns="http://www.w3.org/2000/svg">
<path fill-rule="evenodd" clip-rule="evenodd" d="M27.1672 2.1377C26.8955 2.1377 26.6265 2.19121 26.3755 2.29519C26.1244 2.39916 25.8963 2.55156 25.7042 2.74369L21.7414 6.70656C21.7233 6.72462 21.7061 6.74321 21.6897 6.76226L5.30144 9.49363C5.0977 9.52759 4.90725 9.61702 4.751 9.75211C4.59475 9.88721 4.47874 10.0627 4.41571 10.2594C4.35267 10.4561 4.34505 10.6664 4.39367 10.8671C4.4423 11.0679 4.54529 11.2514 4.69134 11.3974L18.4646 25.1707C18.6107 25.3168 18.7942 25.4198 18.9949 25.4684C19.1957 25.517 19.4059 25.5094 19.6026 25.4464C19.7993 25.3833 19.9749 25.2673 20.1099 25.1111C20.245 24.9548 20.3345 24.7644 20.3684 24.5606L23.0998 8.17253C23.1189 8.15611 23.1375 8.13886 23.1556 8.12077L27.1184 4.1579C27.1248 4.1515 27.1325 4.14641 27.1408 4.14295C27.1492 4.13948 27.1582 4.1377 27.1672 4.1377H31.0004C31.5527 4.1377 32.0004 3.68998 32.0004 3.1377C32.0004 2.58541 31.5527 2.1377 31.0004 2.1377H27.1672ZM6.94806 20.2416C6.94806 21.1272 6.23015 21.8451 5.34457 21.8451C4.45899 21.8451 3.74109 21.1272 3.74109 20.2416C3.74109 19.3561 4.45899 18.6382 5.34457 18.6382C6.23015 18.6382 6.94806 19.3561 6.94806 20.2416ZM1.603 25.5865C2.48858 25.5865 3.20649 24.8685 3.20649 23.983C3.20649 23.0974 2.48858 22.3795 1.603 22.3795C0.717418 22.3795 -0.000488281 23.0974 -0.000488281 23.983C-0.000488281 24.8685 0.717418 25.5865 1.603 25.5865ZM11.2238 24.5176C11.2238 25.4032 10.5059 26.1211 9.62031 26.1211C8.73473 26.1211 8.01682 25.4032 8.01682 24.5176C8.01682 23.632 8.73473 22.9141 9.62031 22.9141C10.5059 22.9141 11.2238 23.632 11.2238 24.5176ZM7.48247 28.2587C7.48247 29.1443 6.76456 29.8622 5.87898 29.8622C4.9934 29.8622 4.27549 29.1443 4.27549 28.2587C4.27549 27.3731 4.9934 26.6552 5.87898 26.6552C6.76456 26.6552 7.48247 27.3731 7.48247 28.2587Z" fill="#111827"/>
</svg>
