<svg width="32" height="33" viewBox="0 0 32 33" fill="none" xmlns="http://www.w3.org/2000/svg">
<path fill-rule="evenodd" clip-rule="evenodd" d="M27.1672 2.6377C26.8955 2.6377 26.6265 2.69121 26.3755 2.79519C26.1244 2.89916 25.8963 3.05156 25.7042 3.24369L21.7414 7.20656C21.7233 7.22462 21.7061 7.24321 21.6897 7.26226L5.30144 9.99363C5.0977 10.0276 4.90725 10.117 4.751 10.2521C4.59475 10.3872 4.47874 10.5627 4.41571 10.7594C4.35267 10.9561 4.34505 11.1664 4.39367 11.3671C4.4423 11.5679 4.54529 11.7514 4.69134 11.8974L18.4646 25.6707C18.6107 25.8168 18.7942 25.9198 18.9949 25.9684C19.1957 26.017 19.4059 26.0094 19.6026 25.9464C19.7993 25.8833 19.9749 25.7673 20.1099 25.6111C20.245 25.4548 20.3345 25.2644 20.3684 25.0606L23.0998 8.67253C23.1189 8.65611 23.1375 8.63886 23.1556 8.62077L27.1184 4.6579C27.1248 4.6515 27.1325 4.64641 27.1408 4.64295C27.1492 4.63948 27.1582 4.6377 27.1672 4.6377H31.0004C31.5527 4.6377 32.0004 4.18998 32.0004 3.6377C32.0004 3.08541 31.5527 2.6377 31.0004 2.6377H27.1672ZM6.94806 20.7416C6.94806 21.6272 6.23015 22.3451 5.34457 22.3451C4.45899 22.3451 3.74109 21.6272 3.74109 20.7416C3.74109 19.8561 4.45899 19.1382 5.34457 19.1382C6.23015 19.1382 6.94806 19.8561 6.94806 20.7416ZM1.603 26.0865C2.48858 26.0865 3.20649 25.3685 3.20649 24.483C3.20649 23.5974 2.48858 22.8795 1.603 22.8795C0.717418 22.8795 -0.000488281 23.5974 -0.000488281 24.483C-0.000488281 25.3685 0.717418 26.0865 1.603 26.0865ZM11.2238 25.0176C11.2238 25.9032 10.5059 26.6211 9.62031 26.6211C8.73473 26.6211 8.01682 25.9032 8.01682 25.0176C8.01682 24.132 8.73473 23.4141 9.62031 23.4141C10.5059 23.4141 11.2238 24.132 11.2238 25.0176ZM7.48247 28.7587C7.48247 29.6443 6.76456 30.3622 5.87898 30.3622C4.9934 30.3622 4.27549 29.6443 4.27549 28.7587C4.27549 27.8731 4.9934 27.1552 5.87898 27.1552C6.76456 27.1552 7.48247 27.8731 7.48247 28.7587Z" fill="#111827"/>
</svg>
