<svg width="33" height="33" viewBox="0 0 33 33" fill="none" xmlns="http://www.w3.org/2000/svg">
<path d="M9.51189 26.6275C10.1975 26.6275 10.7533 26.0717 10.7533 25.3862C10.7533 24.7006 10.1975 24.1448 9.51189 24.1448C8.82629 24.1448 8.27051 24.7006 8.27051 25.3862C8.27051 26.0717 8.82629 26.6275 9.51189 26.6275Z" fill="#1C1B1F"/>
<path d="M12.4084 23.7311C13.094 23.7311 13.6498 23.1753 13.6498 22.4897C13.6498 21.8041 13.094 21.2483 12.4084 21.2483C11.7228 21.2483 11.167 21.8041 11.167 22.4897C11.167 23.1753 11.7228 23.7311 12.4084 23.7311Z" fill="#1C1B1F"/>
<path d="M6.20158 23.3172C6.88718 23.3172 7.44296 22.7614 7.44296 22.0759C7.44296 21.3903 6.88718 20.8345 6.20158 20.8345C5.51599 20.8345 4.96021 21.3903 4.96021 22.0759C4.96021 22.7614 5.51599 23.3172 6.20158 23.3172Z" fill="#1C1B1F"/>
<path d="M9.09807 20.4207C9.78366 20.4207 10.3394 19.865 10.3394 19.1794C10.3394 18.4938 9.78366 17.938 9.09807 17.938C8.41247 17.938 7.85669 18.4938 7.85669 19.1794C7.85669 19.865 8.41247 20.4207 9.09807 20.4207Z" fill="#1C1B1F"/>
<path d="M9.02918 11.4667L22.3395 9.24829L20.1211 22.5586C20.0961 22.7086 20.0302 22.8488 19.9308 22.9638C19.8313 23.0788 19.7021 23.1642 19.5573 23.2106C19.4125 23.257 19.2577 23.2626 19.1099 23.2268C18.9621 23.191 18.8271 23.1152 18.7196 23.0077L8.58004 12.8682C8.47252 12.7607 8.3967 12.6256 8.3609 12.4778C8.32511 12.33 8.33072 12.1752 8.37713 12.0304C8.42353 11.8856 8.50893 11.7564 8.62396 11.657C8.73899 11.5575 8.87919 11.4917 9.02918 11.4667Z" fill="#1C1B1F" stroke="#1C1B1F" stroke-width="2" stroke-linecap="round" stroke-linejoin="round"/>
<path d="M28.9603 5.93799H25.9927C25.8841 5.93799 25.7764 5.95939 25.676 6.00098C25.5756 6.04257 25.4844 6.10353 25.4075 6.18038L22.3396 9.24833" stroke="#1C1B1F" stroke-width="2" stroke-linecap="round" stroke-linejoin="round"/>
</svg>
