<svg width="33" height="33" viewBox="0 0 33 33" fill="none" xmlns="http://www.w3.org/2000/svg">
<path fill-rule="evenodd" clip-rule="evenodd" d="M21.96 28.6909C21.96 29.2432 22.4077 29.6909 22.96 29.6909H28.96C29.5123 29.6909 29.96 29.2432 29.96 28.6909V22.6909C29.96 22.1386 29.5123 21.6909 28.96 21.6909C28.4077 21.6909 27.96 22.1386 27.96 22.6909V26.2767L5.66707 3.98381C5.27654 3.59329 4.64338 3.59329 4.25285 3.98381C3.86233 4.37434 3.86233 5.0075 4.25285 5.39803L26.5457 27.6909H22.96C22.4077 27.6909 21.96 28.1386 21.96 28.6909ZM22.96 3.78296C22.4077 3.78296 21.96 4.23067 21.96 4.78296C21.96 5.33524 22.4077 5.78296 22.96 5.78296H26.5457L20.2411 12.0876C19.8506 12.4781 19.8506 13.1113 20.2411 13.5018C20.6317 13.8923 21.2648 13.8923 21.6553 13.5018L27.96 7.19717V10.783C27.96 11.3352 28.4077 11.783 28.96 11.783C29.5122 11.783 29.96 11.3352 29.96 10.783V4.78296C29.96 4.23067 29.5122 3.78296 28.96 3.78296H22.96ZM4.25285 29.4898C4.64338 29.8803 5.27654 29.8803 5.66707 29.4898L13.8626 21.2943C14.2532 20.9037 14.2532 20.2706 13.8626 19.88C13.4721 19.4895 12.8389 19.4895 12.4484 19.88L4.25285 28.0756C3.86233 28.4661 3.86233 29.0993 4.25285 29.4898Z" fill="#1C1B1F"/>
</svg>
