<svg width="32" height="33" viewBox="0 0 32 33" fill="none" xmlns="http://www.w3.org/2000/svg">
<path fill-rule="evenodd" clip-rule="evenodd" d="M21.475 29.4013C21.475 29.9536 21.9227 30.4013 22.475 30.4013H28.9505C29.0716 30.4013 29.1877 30.3797 29.2952 30.3403C29.4275 30.2918 29.5517 30.2145 29.6579 30.1083C29.8591 29.9071 29.9566 29.6414 29.9505 29.3778V22.9257C29.9505 22.3735 29.5028 21.9257 28.9505 21.9257C28.3982 21.9257 27.9505 22.3735 27.9505 22.9257V26.9867L3.75594 2.79216C3.36541 2.40164 2.73225 2.40164 2.34172 2.79216C1.9512 3.18269 1.9512 3.81585 2.34172 4.20638L26.5366 28.4013H22.475C21.9227 28.4013 21.475 28.849 21.475 29.4013ZM22.4752 2.59865C21.923 2.59865 21.4752 3.04637 21.4752 3.59865C21.4752 4.15093 21.923 4.59865 22.4752 4.59865H26.5364L19.5967 11.5384C19.2061 11.9289 19.2061 12.5621 19.5967 12.9526C19.9872 13.3431 20.6203 13.3431 21.0109 12.9526L27.9508 6.01272V10.0742C27.9508 10.6265 28.3985 11.0742 28.9508 11.0742C29.503 11.0742 29.9508 10.6265 29.9508 10.0742V3.59865C29.9508 3.04637 29.503 2.59865 28.9508 2.59865H22.4752ZM2.34172 30.2076C2.73225 30.5981 3.36541 30.5981 3.75593 30.2076L12.601 21.3625C12.9916 20.972 12.9916 20.3388 12.601 19.9483C12.2105 19.5577 11.5773 19.5577 11.1868 19.9483L2.34172 28.7934C1.9512 29.1839 1.9512 29.8171 2.34172 30.2076Z" fill="#111827"/>
</svg>
