<svg width="32" height="33" viewBox="0 0 32 33" fill="none" xmlns="http://www.w3.org/2000/svg">
<path fill-rule="evenodd" clip-rule="evenodd" d="M25.1112 3.41374C24.7207 3.02322 24.0875 3.02322 23.697 3.41374C23.3065 3.80427 23.3065 4.43743 23.697 4.82796L26.5716 7.70255H25.7C22.825 7.70255 20.123 9.07605 18.4288 11.3987L17.9869 12.0046C17.6614 12.4508 17.7593 13.0763 18.2055 13.4018C18.6517 13.7273 19.2772 13.6294 19.6027 13.1832L20.0446 12.5774C21.3624 10.7708 23.4639 9.70255 25.7 9.70255H26.601L23.697 12.6066C23.3065 12.9971 23.3065 13.6303 23.697 14.0208C24.0875 14.4113 24.7207 14.4113 25.1112 14.0208L29.7076 9.42437C29.9091 9.22286 30.0067 8.95675 30.0002 8.69271C29.9971 8.36899 29.8401 8.08206 29.599 7.90151L25.1112 3.41374ZM25.1112 18.9794C24.7207 18.5889 24.0875 18.5889 23.697 18.9794C23.3065 19.37 23.3065 20.0031 23.697 20.3937L26.586 23.2827H25.7C23.4639 23.2827 21.3624 22.2144 20.0446 20.4079L13.4839 11.4135C11.7896 9.09085 9.08766 7.71734 6.2127 7.71734H2.99902C2.44674 7.71734 1.99902 8.16506 1.99902 8.71734C1.99902 9.26963 2.44674 9.71734 2.99902 9.71734H6.2127C8.44878 9.71734 10.5503 10.7856 11.868 12.5922L18.4288 21.5865C20.123 23.9092 22.825 25.2827 25.7 25.2827H26.5865L23.697 28.1723C23.3065 28.5628 23.3065 29.196 23.697 29.5865C24.0875 29.977 24.7207 29.977 25.1112 29.5865L29.7076 24.9901C30.0981 24.5996 30.0981 23.9664 29.7076 23.5759L29.7075 23.5757L29.7072 23.5755L25.1112 18.9794ZM2.99902 25.2679C2.44674 25.2679 1.99902 24.8202 1.99902 24.2679C1.99902 23.7156 2.44674 23.2679 2.99902 23.2679H6.2127C8.44878 23.2679 10.5503 22.1996 11.868 20.3931L12.31 19.7873C12.6354 19.3411 13.261 19.2432 13.7072 19.5687C14.1534 19.8941 14.2512 20.5197 13.9258 20.9659L13.4839 21.5717C11.7896 23.8944 9.08766 25.2679 6.2127 25.2679H2.99902Z" fill="#111827"/>
</svg>
