<svg width="33" height="33" viewBox="0 0 33 33" fill="none" xmlns="http://www.w3.org/2000/svg">
<path fill-rule="evenodd" clip-rule="evenodd" d="M26.067 4.85271C25.6764 4.46218 25.0433 4.46218 24.6528 4.85271C24.2622 5.24323 24.2622 5.8764 24.6528 6.26692L27.1745 8.78865H26.8692C23.9943 8.78865 21.2923 10.1622 19.5981 12.4849L19.3746 12.7912C19.0492 13.2374 19.147 13.8629 19.5932 14.1884C20.0394 14.5139 20.665 14.416 20.9905 13.9698L21.2139 13.6635C22.5317 11.8569 24.6332 10.7886 26.8692 10.7886H27.2021L24.6528 13.338C24.2622 13.7285 24.2622 14.3617 24.6528 14.7522C25.0433 15.1427 25.6764 15.1427 26.067 14.7522L30.3096 10.5096C30.506 10.3132 30.6036 10.0555 30.6025 9.79821C30.6025 9.79503 30.6025 9.79184 30.6025 9.78865C30.6025 9.46203 30.4459 9.17198 30.2037 8.98949L26.067 4.85271ZM26.067 19.2201C25.6764 18.8296 25.0433 18.8296 24.6528 19.2201C24.2622 19.6107 24.2622 20.2438 24.6528 20.6344L27.1882 23.1698H26.8692C24.6332 23.1698 22.5317 22.1016 21.2139 20.295L15.527 12.4987C13.8328 10.176 11.1308 8.80249 8.25587 8.80249H5.60254C5.05025 8.80249 4.60254 9.25021 4.60254 9.80249C4.60254 10.3548 5.05025 10.8025 5.60254 10.8025H8.25587C10.492 10.8025 12.5935 11.8708 13.9112 13.6773L19.5981 21.4736C21.2923 23.7963 23.9943 25.1698 26.8692 25.1698H27.1883L24.6528 27.7054C24.2622 28.0959 24.2622 28.7291 24.6528 29.1196C25.0433 29.5102 25.6764 29.5102 26.067 29.1196L30.3096 24.877C30.4002 24.7864 30.4697 24.6829 30.5183 24.5723C30.5725 24.4491 30.6025 24.313 30.6025 24.1698C30.6025 23.9349 30.5215 23.7189 30.3859 23.5482C30.36 23.5156 30.332 23.4846 30.3022 23.4554L26.067 19.2201ZM5.60254 25.156C5.05025 25.156 4.60254 24.7083 4.60254 24.156C4.60254 23.6037 5.05025 23.156 5.60254 23.156H8.25587C10.492 23.156 12.5935 22.0877 13.9112 20.2812L14.1347 19.9749C14.4601 19.5287 15.0857 19.4308 15.5319 19.7563C15.9781 20.0817 16.0759 20.7073 15.7505 21.1535L15.527 21.4598C13.8328 23.7825 11.1308 25.156 8.25587 25.156H5.60254Z" fill="#1C1B1F"/>
</svg>
