<svg width="32" height="33" viewBox="0 0 32 33" fill="none" xmlns="http://www.w3.org/2000/svg">
<path fill-rule="evenodd" clip-rule="evenodd" d="M25.1117 3.4135C24.7212 3.02297 24.088 3.02297 23.6975 3.4135C23.307 3.80402 23.307 4.43719 23.6975 4.82771L26.5721 7.7023H21.6337C21.3143 7.7023 21.0141 7.85491 20.8258 8.11299L17.9874 12.0043C17.6619 12.4505 17.7598 13.0761 18.206 13.4016C18.6522 13.727 19.2777 13.6292 19.6032 13.183L22.1421 9.7023H26.6015L23.6975 12.6063C23.307 12.9968 23.307 13.63 23.6975 14.0205C24.088 14.4111 24.7212 14.4111 25.1117 14.0205L29.7081 9.42412C29.9096 9.22262 30.0071 8.95651 30.0007 8.69246C29.9976 8.36874 29.8406 8.08182 29.5995 7.90126L25.1117 3.4135ZM25.1117 18.9792C24.7212 18.5887 24.088 18.5887 23.6975 18.9792C23.307 19.3697 23.307 20.0029 23.6975 20.3934L26.5865 23.2825H22.1421L11.0878 8.12779C10.8995 7.86971 10.5993 7.7171 10.2799 7.7171H2.99951C2.44723 7.7171 1.99951 8.16481 1.99951 8.7171C1.99951 9.26938 2.44723 9.7171 2.99951 9.7171H9.77155L20.8258 24.8718C21.0141 25.1299 21.3143 25.2825 21.6337 25.2825H26.587L23.6975 28.172C23.307 28.5626 23.307 29.1957 23.6975 29.5862C24.088 29.9768 24.7212 29.9768 25.1117 29.5862L29.7081 24.9898C30.0986 24.5993 30.0986 23.9661 29.7081 23.5756L29.708 23.5755L29.7077 23.5752L25.1117 18.9792ZM2.99951 25.2677C2.44723 25.2677 1.99951 24.82 1.99951 24.2677C1.99951 23.7154 2.44723 23.2677 2.99951 23.2677H9.77155L12.3104 19.787C12.6359 19.3408 13.2615 19.243 13.7077 19.5684C14.1539 19.8939 14.2517 20.5194 13.9263 20.9656L11.0878 24.857C10.8995 25.1151 10.5993 25.2677 10.2799 25.2677H2.99951Z" fill="#111827"/>
</svg>
