<svg width="33" height="33" viewBox="0 0 33 33" fill="none" xmlns="http://www.w3.org/2000/svg">
<path fill-rule="evenodd" clip-rule="evenodd" d="M4.95996 5.53296C4.40768 5.53296 3.95996 5.98067 3.95996 6.53296V10.533V14.533V18.533V26.533C3.95996 27.0852 4.40768 27.533 4.95996 27.533H28.96C29.5122 27.533 29.96 27.0852 29.96 26.533V6.53296C29.96 5.98067 29.5122 5.53296 28.96 5.53296H4.95996ZM5.95996 19.533H7.95996C8.51225 19.533 8.95996 19.0852 8.95996 18.533C8.95996 17.9807 8.51225 17.533 7.95996 17.533H5.95996V15.533H7.95996C8.51225 15.533 8.95996 15.0852 8.95996 14.533C8.95996 13.9807 8.51225 13.533 7.95996 13.533H5.95996V11.533H7.95996C8.51225 11.533 8.95996 11.0852 8.95996 10.533C8.95996 9.98067 8.51225 9.53296 7.95996 9.53296H5.95996V7.53296H11.96V25.533H5.95996V19.533Z" fill="#1C1B1F"/>
</svg>
