<svg width="33" height="32" viewBox="0 0 33 32" fill="none" xmlns="http://www.w3.org/2000/svg">
<path fill-rule="evenodd" clip-rule="evenodd" d="M26.968 2.0514C27.0279 1.86714 27.2885 1.86714 27.3484 2.0514L28.2855 4.93552C28.3123 5.01793 28.3891 5.07372 28.4757 5.07372H31.5083C31.702 5.07372 31.7826 5.32164 31.6258 5.43552L29.1725 7.21801C29.1024 7.26894 29.073 7.35921 29.0998 7.44161L30.0369 10.3257C30.0968 10.51 29.8859 10.6632 29.7291 10.5493L27.2758 8.76685C27.2057 8.71593 27.1108 8.71593 27.0407 8.76686L24.5873 10.5493C24.4305 10.6632 24.2196 10.51 24.2795 10.3257L25.2166 7.44161C25.2434 7.35921 25.2141 7.26894 25.144 7.21801L22.6906 5.43552C22.5338 5.32164 22.6144 5.07372 22.8081 5.07372H25.8407C25.9273 5.07372 26.0041 5.01793 26.0309 4.93552L26.968 2.0514ZM0.999023 30.0866C0.446739 30.0866 -0.000976562 29.6389 -0.000976562 29.0866V4.08469C-0.000976562 3.53241 0.446739 3.08469 0.999023 3.08469H19.9639C20.5162 3.08469 20.9639 3.53241 20.9639 4.08469C20.9639 4.63698 20.5162 5.08469 19.9639 5.08469H10.8V28.0866H30.0013V13.0979C30.0013 12.5456 30.449 12.0979 31.0013 12.0979C31.5536 12.0979 32.0013 12.5456 32.0013 13.0979V29.0866C32.0013 29.6389 31.5536 30.0866 31.0013 30.0866H9.80626L9.80002 30.0866L9.79378 30.0866H9.75603L9.74979 30.0866L9.74354 30.0866H0.999023ZM19.2472 12.0498C19.1874 11.8655 18.9267 11.8655 18.8668 12.0498L18.0885 14.4452C18.0617 14.5276 17.9849 14.5834 17.8983 14.5834H15.3796C15.1859 14.5834 15.1053 14.8313 15.2621 14.9452L17.2997 16.4256C17.3698 16.4765 17.3991 16.5668 17.3724 16.6492L16.594 19.0446C16.5342 19.2289 16.7451 19.3821 16.9018 19.2682L18.9395 17.7878C19.0096 17.7369 19.1045 17.7369 19.1746 17.7878L21.2122 19.2682C21.369 19.3821 21.5799 19.2289 21.52 19.0446L20.7417 16.6492C20.7149 16.5668 20.7442 16.4765 20.8143 16.4256L22.852 14.9452C23.0087 14.8313 22.9282 14.5834 22.7344 14.5834H20.2158C20.1291 14.5834 20.0523 14.5276 20.0255 14.4452L19.2472 12.0498Z" fill="#111827"/>
</svg>
