<svg width="32" height="33" viewBox="0 0 32 33" fill="none" xmlns="http://www.w3.org/2000/svg">
<path fill-rule="evenodd" clip-rule="evenodd" d="M1.00098 2.75085C0.448692 2.75085 0.000976562 3.19857 0.000976562 3.75085V8.75054V13.7502V18.75V28.7493C0.000976562 29.3016 0.448692 29.7493 1.00098 29.7493H30.9991C31.5514 29.7493 31.9991 29.3016 31.9991 28.7493V3.75085C31.9991 3.19857 31.5514 2.75085 30.9991 2.75085H1.00098ZM2.00098 19.75H4.75075C5.30303 19.75 5.75075 19.3023 5.75075 18.75C5.75075 18.1978 5.30303 17.75 4.75075 17.75H2.00098V14.7502H4.75075C5.30303 14.7502 5.75075 14.3025 5.75075 13.7502C5.75075 13.1979 5.30303 12.7502 4.75075 12.7502H2.00098V9.75054H4.75075C5.30303 9.75054 5.75075 9.30283 5.75075 8.75054C5.75075 8.19826 5.30303 7.75054 4.75075 7.75054H2.00098V4.75085H9.75019V27.7493H2.00098V19.75Z" fill="#111827"/>
</svg>
