<svg width="33" height="33" viewBox="0 0 33 33" fill="none" xmlns="http://www.w3.org/2000/svg">
<path d="M11.96 6.28296V26.283" stroke="#1C1B1F" stroke-width="2" stroke-linecap="round" stroke-linejoin="round"/>
<path d="M28.96 13.493V26.283H4.95996V6.28296H20.1307" stroke="#1C1B1F" stroke-width="2" stroke-linecap="round" stroke-linejoin="round"/>
<path d="M25.6954 4.77352C25.7552 4.58926 26.0159 4.58926 26.0758 4.77352L26.7784 6.93587C26.8052 7.01828 26.882 7.07407 26.9686 7.07407H29.2422C29.436 7.07407 29.5165 7.32199 29.3598 7.43587L27.5204 8.77228C27.4503 8.82321 27.421 8.91349 27.4477 8.99589L28.1503 11.1582C28.2102 11.3425 27.9993 11.4957 27.8426 11.3819L26.0031 10.0454C25.933 9.99451 25.8381 9.99451 25.768 10.0454L23.9286 11.3819C23.7719 11.4957 23.561 11.3425 23.6209 11.1582L24.3234 8.99589C24.3502 8.91349 24.3209 8.82321 24.2508 8.77228L22.4114 7.43587C22.2546 7.32199 22.3352 7.07407 22.5289 7.07407H24.8026C24.8892 7.07407 24.966 7.01828 24.9928 6.93587L25.6954 4.77352Z" fill="#1C1B1F"/>
<path d="M19.215 12.7717C19.2749 12.5874 19.5356 12.5874 19.5955 12.7717L20.171 14.5431C20.1978 14.6255 20.2746 14.6813 20.3612 14.6813H22.2238C22.4176 14.6813 22.4981 14.9292 22.3414 15.0431L20.8345 16.1379C20.7644 16.1888 20.7351 16.2791 20.7619 16.3615L21.3374 18.1329C21.3973 18.3172 21.1864 18.4704 21.0297 18.3565L19.5228 17.2617C19.4527 17.2108 19.3578 17.2108 19.2877 17.2617L17.7808 18.3565C17.6241 18.4704 17.4132 18.3172 17.4731 18.1329L18.0486 16.3615C18.0754 16.2791 18.0461 16.1888 17.976 16.1379L16.4691 15.0431C16.3124 14.9292 16.393 14.6813 16.5867 14.6813H18.4493C18.5359 14.6813 18.6127 14.6255 18.6395 14.5431L19.215 12.7717Z" fill="#1C1B1F"/>
<path d="M12 6.28296V26.283" stroke="#1C1B1F" stroke-width="2" stroke-linecap="round" stroke-linejoin="round"/>
<rect x="4.95996" y="6.28296" width="7.04004" height="20" fill="#1C1B1F"/>
</svg>
