<svg width="32" height="32" viewBox="0 0 32 32" fill="none" xmlns="http://www.w3.org/2000/svg">
<path fill-rule="evenodd" clip-rule="evenodd" d="M1 2.55408C0.447715 2.55408 0 3.00179 0 3.55408V28.4446C0 28.9969 0.447715 29.4446 1 29.4446H9.71354C9.72947 29.4454 9.74549 29.4458 9.76161 29.4458C9.77772 29.4458 9.79375 29.4454 9.80967 29.4446H19.8804C20.4327 29.4446 20.8804 28.9969 20.8804 28.4446C20.8804 27.8924 20.4327 27.4446 19.8804 27.4446H10.7616V4.55408H29.8687V19.4716C29.8687 20.0239 30.3164 20.4716 30.8687 20.4716C31.421 20.4716 31.8687 20.0239 31.8687 19.4716V3.55408C31.8687 3.00179 31.421 2.55408 30.8687 2.55408H1ZM14.7782 14.3096C14.539 14.1715 14.4571 13.8657 14.5952 13.6265L17.309 8.92604C17.4471 8.68689 17.7529 8.60495 17.992 8.74302L22.6925 11.4569C22.9317 11.5949 23.0136 11.9007 22.8755 12.1399L20.1617 16.8404C20.0236 17.0795 19.7178 17.1615 19.4787 17.0234L14.7782 14.3096ZM24.6861 19.4143C24.7857 19.0425 25.2505 18.9179 25.5226 19.1901L31.8531 25.5205C32.1252 25.7927 32.0007 26.2574 31.6289 26.3571L22.9814 28.6742C22.6096 28.7738 22.2694 28.4336 22.369 28.0618L24.6861 19.4143Z" fill="#111827"/>
</svg>
