<svg width="32" height="33" viewBox="0 0 32 33" fill="none" xmlns="http://www.w3.org/2000/svg">
<path fill-rule="evenodd" clip-rule="evenodd" d="M11.5024 27.499C11.5024 26.9467 11.0547 26.499 10.5024 26.499H6.45947L6.45947 6.50085L10.5024 6.50085C11.0547 6.50085 11.5024 6.05314 11.5024 5.50085C11.5024 4.94857 11.0547 4.50085 10.5024 4.50085L5.45947 4.50085C4.90719 4.50085 4.45947 4.94857 4.45947 5.50085L4.45947 27.499C4.45947 28.0513 4.90719 28.499 5.45947 28.499H10.5024C11.0547 28.499 11.5024 28.0513 11.5024 27.499ZM24.1262 15.4998L20.9731 12.3468C20.5826 11.9563 20.5826 11.3231 20.9731 10.9326C21.3637 10.542 21.9968 10.542 22.3873 10.9326L27.2476 15.7928C27.6381 16.1833 27.6381 16.8165 27.2476 17.207L22.3873 22.0672C21.9968 22.4578 21.3637 22.4578 20.9731 22.0672C20.5826 21.6767 20.5826 21.0436 20.9731 20.653L24.1264 17.4998L12.7934 17.4998C12.2411 17.4998 11.7934 17.0521 11.7934 16.4998C11.7934 15.9475 12.2411 15.4998 12.7934 15.4998L24.1262 15.4998Z" fill="#111827"/>
</svg>
