<svg width="33" height="32" viewBox="0 0 33 32" fill="none" xmlns="http://www.w3.org/2000/svg">
<path fill-rule="evenodd" clip-rule="evenodd" d="M15.0043 0.083374C15.5566 0.083374 16.0043 0.531089 16.0043 1.08337V7.20305C16.0043 7.20307 16.0043 7.20308 16.0043 7.2031H26.2534C26.5365 7.2031 26.8064 7.32315 26.9961 7.53346L31.7846 12.8444C32.1276 13.2249 32.1276 13.8031 31.7846 14.1836L26.9961 19.4945C26.8064 19.7048 26.5365 19.8249 26.2534 19.8249H16.0043L16.0043 30.9166C16.0043 31.4689 15.5566 31.9166 15.0043 31.9166C14.452 31.9166 14.0043 31.4689 14.0043 30.9166L14.0043 19.8249H1.03809C0.485802 19.8249 0.0380859 19.3772 0.0380859 18.8249V8.2031C0.0380859 7.65081 0.485801 7.2031 1.03809 7.2031H14.0043C14.0043 7.20308 14.0043 7.20307 14.0043 7.20305V1.08337C14.0043 0.531089 14.452 0.083374 15.0043 0.083374Z" fill="#111827"/>
</svg>
