<svg width="32" height="33" viewBox="0 0 32 33" fill="none" xmlns="http://www.w3.org/2000/svg">
<path fill-rule="evenodd" clip-rule="evenodd" d="M20.498 27.499C20.498 26.9467 20.9457 26.499 21.498 26.499H25.5409L25.5409 6.50085L21.498 6.50085C20.9457 6.50085 20.498 6.05314 20.498 5.50085C20.498 4.94857 20.9457 4.50085 21.498 4.50085L26.5409 4.50085C27.0932 4.50085 27.5409 4.94857 27.5409 5.50085L27.5409 27.499C27.5409 28.0513 27.0932 28.499 26.5409 28.499H21.498C20.9457 28.499 20.498 28.0513 20.498 27.499ZM16.7922 15.4998L13.6392 12.3468C13.2487 11.9563 13.2487 11.3231 13.6392 10.9326C14.0297 10.542 14.6629 10.542 15.0534 10.9326L19.9136 15.7928C20.3042 16.1833 20.3042 16.8165 19.9136 17.207L15.0534 22.0672C14.6629 22.4578 14.0297 22.4578 13.6392 22.0672C13.2487 21.6767 13.2487 21.0436 13.6392 20.653L16.7924 17.4998L5.45947 17.4998C4.90719 17.4998 4.45947 17.0521 4.45947 16.4998C4.45947 15.9475 4.90719 15.4998 5.45947 15.4998L16.7922 15.4998Z" fill="#111827"/>
</svg>
