<svg width="32" height="33" viewBox="0 0 32 33" fill="none" xmlns="http://www.w3.org/2000/svg">
<path fill-rule="evenodd" clip-rule="evenodd" d="M16 3.28296C16.5523 3.28296 17 3.73067 17 4.28296V9.20605H24.9624C25.2456 9.20605 25.5154 9.32611 25.7051 9.53642L29.381 13.6133C29.7241 13.9938 29.7241 14.5721 29.381 14.9526L25.7051 19.0295C25.5154 19.2398 25.2456 19.3599 24.9624 19.3599H17V28.283C17 28.8353 16.5523 29.283 16 29.283C15.4477 29.283 15 28.8353 15 28.283V19.3599H4.95996C4.40767 19.3599 3.95996 18.9122 3.95996 18.3599V10.2061C3.95996 9.65377 4.40768 9.20605 4.95996 9.20605H15V4.28296C15 3.73067 15.4477 3.28296 16 3.28296Z" fill="#1C1B1F"/>
</svg>
