<svg width="33" height="33" viewBox="0 0 33 33" fill="none" xmlns="http://www.w3.org/2000/svg">
<path fill-rule="evenodd" clip-rule="evenodd" d="M25.9787 28.283H7.94141C7.38912 28.283 6.94141 27.8352 6.94141 27.283V5.28296C6.94141 4.73067 7.38912 4.28296 7.94141 4.28296H19.5513C19.8165 4.28296 20.0708 4.38832 20.2584 4.57585L26.6858 11.0033C26.8733 11.1908 26.9787 11.4451 26.9787 11.7104V27.283C26.9787 27.8352 26.5309 28.283 25.9787 28.283ZM22.9715 14.2594H16.96H10.9497C10.3974 14.2594 9.94971 14.7071 9.94971 15.2594V19.723C9.94906 19.7378 9.94873 19.7526 9.94873 19.7676C9.94873 19.7825 9.94906 19.7974 9.94971 19.8122V24.2757C9.94971 24.828 10.3974 25.2757 10.9497 25.2757H16.96H22.9715C23.5238 25.2757 23.9715 24.828 23.9715 24.2757V19.7696L23.9715 19.7676L23.9715 19.7656V15.2594C23.9715 14.7071 23.5238 14.2594 22.9715 14.2594ZM11.9497 16.2594V18.7676H15.96V16.2594H11.9497ZM11.9497 23.2757V20.7676H15.96V23.2757H11.9497ZM21.9715 23.2757H17.96V20.7676H21.9715V23.2757ZM17.96 18.7676H21.9715V16.2594H17.96V18.7676Z" fill="#1C1B1F"/>
</svg>
