<svg width="32" height="32" viewBox="0 0 32 32" fill="none" xmlns="http://www.w3.org/2000/svg">
<path fill-rule="evenodd" clip-rule="evenodd" d="M28.3579 32H3.6416C3.08932 32 2.6416 31.5523 2.6416 31V1C2.6416 0.447715 3.08932 0 3.6416 0H19.5928C19.858 0 20.1124 0.105357 20.2999 0.292893L29.065 9.05802C29.2526 9.24556 29.3579 9.49991 29.3579 9.76513V31C29.3579 31.5523 28.9102 32 28.3579 32ZM7.986 13.6353H15.9997H24.015C24.5673 13.6353 25.015 14.083 25.015 14.6353V20.6434L25.015 20.6462L25.015 20.649V26.6571C25.015 27.2093 24.5673 27.6571 24.015 27.6571H15.9997H7.986C7.43372 27.6571 6.986 27.2093 6.986 26.6571V20.6977C6.98514 20.6806 6.9847 20.6635 6.9847 20.6462C6.9847 20.6289 6.98514 20.6118 6.986 20.5947V14.6353C6.986 14.083 7.43372 13.6353 7.986 13.6353ZM23.015 15.6353V19.6462H16.9997V15.6353H23.015ZM16.9997 21.6462H23.015V25.6571H16.9997V21.6462ZM14.9997 21.6462V25.6571H8.986V21.6462H14.9997ZM14.9997 19.6462H8.986V15.6353H14.9997V19.6462Z" fill="#111827"/>
</svg>
