<svg width="33" height="33" viewBox="0 0 33 33" fill="none" xmlns="http://www.w3.org/2000/svg">
<path d="M5.22021 13.2449L28.6526 13.2449" stroke="#1C1B1F" stroke-width="2" stroke-linecap="round" stroke-linejoin="round"/>
<path d="M11.8552 12.9799L16.4719 6.93047C16.6715 6.66893 17.0649 6.66812 17.2656 6.92883L21.9223 12.9787C22.0311 13.12 22.0564 13.3086 21.9886 13.4736L17.3322 24.8164C17.1622 25.2306 16.5753 25.2297 16.4065 24.8151L11.7896 13.4717C11.7229 13.3077 11.7478 13.1206 11.8552 12.9799Z" fill="#1C1B1F" stroke="#1C1B1F" stroke-width="2" stroke-linecap="round"/>
<path d="M22.9659 6.47681H10.9106C10.7635 6.47681 10.624 6.54151 10.529 6.65372L5.24913 12.8898C5.08461 13.0841 5.09238 13.371 5.26719 13.5561L16.7931 25.7625C16.9927 25.9739 17.3299 25.9711 17.5259 25.7564L28.6627 13.557C28.8326 13.3707 28.8374 13.0871 28.6737 12.8953L23.3463 6.65225C23.2513 6.54092 23.1123 6.47681 22.9659 6.47681Z" stroke="#1C1B1F" stroke-width="2" stroke-linecap="round"/>
</svg>
