<svg width="34" height="32" viewBox="0 0 34 32" fill="none" xmlns="http://www.w3.org/2000/svg">
<path fill-rule="evenodd" clip-rule="evenodd" d="M9.28868 2.67908C8.84761 2.67908 8.42889 2.8732 8.14389 3.20982L1.35301 11.2305C0.859447 11.8135 0.88277 12.6743 1.40718 13.2296L16.1574 28.8507C16.7563 29.4849 17.7678 29.4764 18.3559 28.8322L32.6099 13.2181C33.1199 12.6595 33.1341 11.8085 32.6431 11.2331L25.7927 3.20539C25.5077 2.87142 25.0907 2.67908 24.6517 2.67908H9.28868ZM3.9693 11.2356L9.52049 4.67908H16.055L11.0513 11.2356L3.9693 11.2356ZM4.16354 13.2356L15.7423 25.4979L10.7513 13.2356L4.16354 13.2356ZM17.4878 26.8167L29.8859 13.2356L23.063 13.2356L17.4878 26.8167ZM30.016 11.2356L24.421 4.67908H17.7137L22.7604 11.2356L30.016 11.2356Z" fill="#111827"/>
</svg>
