<svg width="33" height="33" viewBox="0 0 33 33" fill="none" xmlns="http://www.w3.org/2000/svg">
<path d="M5.22021 13.3864L28.6526 13.3864" stroke="#1C1B1F" stroke-width="2" stroke-linecap="round" stroke-linejoin="round"/>
<path d="M11.8552 13.1214L16.4719 7.07195C16.6715 6.81041 17.0649 6.8096 17.2656 7.07031L21.9223 13.1202C22.0311 13.2615 22.0564 13.4501 21.9886 13.615L17.3322 24.9579C17.1622 25.3721 16.5753 25.3712 16.4065 24.9565L11.7896 13.6132C11.7229 13.4492 11.7478 13.2621 11.8552 13.1214Z" fill="#1C1B1F" stroke="#1C1B1F" stroke-width="2" stroke-linecap="round"/>
<path d="M22.9659 6.61829H10.9106C10.7635 6.61829 10.624 6.68299 10.529 6.7952L5.24913 13.0312C5.08461 13.2256 5.09238 13.5125 5.26719 13.6976L16.7931 25.904C16.9927 26.1154 17.3299 26.1126 17.5259 25.8978L28.6627 13.6984C28.8326 13.5122 28.8374 13.2286 28.6737 13.0368L23.3463 6.79373C23.2513 6.6824 23.1123 6.61829 22.9659 6.61829Z" stroke="#1C1B1F" stroke-width="2" stroke-linecap="round"/>
</svg>
