<svg width="32" height="32" viewBox="0 0 32 32" fill="none" xmlns="http://www.w3.org/2000/svg">
<path fill-rule="evenodd" clip-rule="evenodd" d="M8.28868 2.67908C7.84761 2.67908 7.42889 2.8732 7.14389 3.20982L0.353015 11.2305C-0.140553 11.8135 -0.11723 12.6743 0.40718 13.2296L15.1574 28.8507C15.7563 29.4849 16.7678 29.4764 17.3559 28.8322L31.6099 13.2181C32.1199 12.6595 32.1341 11.8085 31.6431 11.2331L24.7927 3.20539C24.5077 2.87142 24.0907 2.67908 23.6517 2.67908H8.28868ZM2.9693 11.2356L8.52049 4.67908H15.055L10.0513 11.2356L2.9693 11.2356ZM3.16354 13.2356L14.7423 25.4979L9.75128 13.2356L3.16354 13.2356ZM16.4878 26.8167L28.8859 13.2356L22.063 13.2356L16.4878 26.8167ZM29.016 11.2356L23.421 4.67908H16.7137L21.7604 11.2356L29.016 11.2356Z" fill="#111827"/>
</svg>
