<svg width="32" height="33" viewBox="0 0 32 33" fill="none" xmlns="http://www.w3.org/2000/svg">
<path fill-rule="evenodd" clip-rule="evenodd" d="M32 16.5C32 25.3366 24.8366 32.5 16 32.5C7.16344 32.5 0 25.3366 0 16.5C0 7.66344 7.16344 0.5 16 0.5C24.8366 0.5 32 7.66344 32 16.5ZM9.6665 8.16577C10.2188 8.16577 10.6665 8.61349 10.6665 9.16577V15.8685L21.5667 8.98447C21.8996 8.77421 22.3337 9.01345 22.3337 9.40722V23.5929C22.3337 23.9867 21.8996 24.226 21.5667 24.0157L10.6665 17.1316V23.8342C10.6665 24.3865 10.2188 24.8342 9.6665 24.8342C9.11422 24.8342 8.6665 24.3865 8.6665 23.8342V9.16577C8.6665 8.61349 9.11422 8.16577 9.6665 8.16577Z" fill="#111827"/>
</svg>
