<svg width="33" height="33" viewBox="0 0 33 33" fill="none" xmlns="http://www.w3.org/2000/svg">
<path fill-rule="evenodd" clip-rule="evenodd" d="M28.96 16.783C28.96 23.4104 23.5874 28.783 16.96 28.783C10.3325 28.783 4.95996 23.4104 4.95996 16.783C4.95996 10.1555 10.3325 4.78296 16.96 4.78296C23.5874 4.78296 28.96 10.1555 28.96 16.783ZM12.21 10.2822C12.7622 10.2822 13.21 10.7299 13.21 11.2822V16.1514L20.9434 11.2674C21.2763 11.0571 21.7104 11.2963 21.7104 11.6901V21.8758C21.7104 22.2696 21.2763 22.5088 20.9434 22.2986L13.21 17.4145V22.2835C13.21 22.8358 12.7622 23.2835 12.21 23.2835C11.6577 23.2835 11.21 22.8358 11.21 22.2835V11.2822C11.21 10.7299 11.6577 10.2822 12.21 10.2822Z" fill="#1C1B1F"/>
</svg>
