<svg width="32" height="32" viewBox="0 0 32 32" fill="none" xmlns="http://www.w3.org/2000/svg">
<path fill-rule="evenodd" clip-rule="evenodd" d="M24.2143 26.6044C24.0753 26.6994 23.9902 26.856 23.9902 27.0244V31.4999C23.9902 31.7761 23.7663 31.9999 23.4902 31.9999H19.5339V26.4431C19.5339 25.8908 19.0862 25.4431 18.5339 25.4431C17.9816 25.4431 17.5339 25.8908 17.5339 26.4431V31.9999H14.4662V26.4431C14.4662 25.8908 14.0184 25.4431 13.4662 25.4431C12.9139 25.4431 12.4662 25.8908 12.4662 26.4431V31.9999H8.75766C8.48152 31.9999 8.25766 31.7761 8.25766 31.4999V27.1905C8.25766 27.0186 8.16888 26.8592 8.02506 26.7649C4.05349 24.1626 1.43018 19.6724 1.43018 14.5696C1.43018 6.52304 7.95321 0 15.9998 0C24.0464 0 30.5694 6.52304 30.5694 14.5696C30.5694 19.569 28.0513 23.9803 24.2143 26.6044ZM10.2988 14.7738C9.10186 14.7738 8.13152 15.7441 8.13152 16.9411C8.13152 18.1381 9.10186 19.1084 10.2988 19.1084C11.4958 19.1084 12.4661 18.1381 12.4661 16.9411C12.4661 15.7441 11.4958 14.7738 10.2988 14.7738ZM6.13152 16.9411C6.13152 14.6396 7.99729 12.7738 10.2988 12.7738C12.6004 12.7738 14.4661 14.6396 14.4661 16.9411C14.4661 19.2426 12.6004 21.1084 10.2988 21.1084C7.99729 21.1084 6.13152 19.2426 6.13152 16.9411ZM21.7012 14.7738C20.5042 14.7738 19.5339 15.7441 19.5339 16.9411C19.5339 18.1381 20.5042 19.1084 21.7012 19.1084C22.8982 19.1084 23.8685 18.1381 23.8685 16.9411C23.8685 15.7441 22.8982 14.7738 21.7012 14.7738ZM17.5339 16.9411C17.5339 14.6396 19.3996 12.7738 21.7012 12.7738C24.0027 12.7738 25.8685 14.6396 25.8685 16.9411C25.8685 19.2426 24.0027 21.1084 21.7012 21.1084C19.3996 21.1084 17.5339 19.2426 17.5339 16.9411Z" fill="#111827"/>
</svg>
