<svg width="32" height="33" viewBox="0 0 32 33" fill="none" xmlns="http://www.w3.org/2000/svg">
<path fill-rule="evenodd" clip-rule="evenodd" d="M24.2143 27.1044C24.0753 27.1994 23.9902 27.356 23.9902 27.5244V31.9999C23.9902 32.2761 23.7663 32.4999 23.4902 32.4999H19.5339V26.9431C19.5339 26.3908 19.0862 25.9431 18.5339 25.9431C17.9816 25.9431 17.5339 26.3908 17.5339 26.9431V32.4999H14.4662V26.9431C14.4662 26.3908 14.0184 25.9431 13.4662 25.9431C12.9139 25.9431 12.4662 26.3908 12.4662 26.9431V32.4999H8.75766C8.48152 32.4999 8.25766 32.2761 8.25766 31.9999V27.6905C8.25766 27.5186 8.16888 27.3592 8.02506 27.2649C4.05349 24.6626 1.43018 20.1724 1.43018 15.0696C1.43018 7.02304 7.95321 0.5 15.9998 0.5C24.0464 0.5 30.5694 7.02304 30.5694 15.0696C30.5694 20.069 28.0513 24.4803 24.2143 27.1044ZM10.2988 15.2738C9.10186 15.2738 8.13152 16.2441 8.13152 17.4411C8.13152 18.6381 9.10186 19.6084 10.2988 19.6084C11.4958 19.6084 12.4661 18.6381 12.4661 17.4411C12.4661 16.2441 11.4958 15.2738 10.2988 15.2738ZM6.13152 17.4411C6.13152 15.1396 7.99729 13.2738 10.2988 13.2738C12.6004 13.2738 14.4661 15.1396 14.4661 17.4411C14.4661 19.7426 12.6004 21.6084 10.2988 21.6084C7.99729 21.6084 6.13152 19.7426 6.13152 17.4411ZM21.7012 15.2738C20.5042 15.2738 19.5339 16.2441 19.5339 17.4411C19.5339 18.6381 20.5042 19.6084 21.7012 19.6084C22.8982 19.6084 23.8685 18.6381 23.8685 17.4411C23.8685 16.2441 22.8982 15.2738 21.7012 15.2738ZM17.5339 17.4411C17.5339 15.1396 19.3996 13.2738 21.7012 13.2738C24.0027 13.2738 25.8685 15.1396 25.8685 17.4411C25.8685 19.7426 24.0027 21.6084 21.7012 21.6084C19.3996 21.6084 17.5339 19.7426 17.5339 17.4411Z" fill="#111827"/>
</svg>
