<svg width="33" height="33" viewBox="0 0 33 33" fill="none" xmlns="http://www.w3.org/2000/svg">
<path fill-rule="evenodd" clip-rule="evenodd" d="M23.1762 24.1981C23.0378 24.294 22.9526 24.4504 22.9526 24.6187V27.7829C22.9526 28.0591 22.7287 28.2829 22.4526 28.2829H19.8604V24.1152C19.8604 23.563 19.4126 23.1152 18.8604 23.1152C18.3081 23.1152 17.8604 23.563 17.8604 24.1152V28.2829H16.0596V24.1152C16.0596 23.563 15.6119 23.1152 15.0596 23.1152C14.5073 23.1152 14.0596 23.563 14.0596 24.1152V28.2829H11.6532C11.3771 28.2829 11.1532 28.0591 11.1532 27.7829V24.7448C11.1532 24.5729 11.0643 24.4137 10.9211 24.3185C7.97479 22.3612 6.03271 19.0125 6.03271 15.2102C6.03271 9.17523 10.925 4.28296 16.9599 4.28296C22.9948 4.28296 27.8871 9.17523 27.8871 15.2102C27.8871 18.9356 26.0228 22.2256 23.1762 24.1981ZM12.6841 15.6133C11.9244 15.6133 11.3086 16.2291 11.3086 16.9888C11.3086 17.7484 11.9244 18.3642 12.6841 18.3642C13.4437 18.3642 14.0595 17.7484 14.0595 16.9888C14.0595 16.2291 13.4437 15.6133 12.6841 15.6133ZM9.30859 16.9888C9.30859 15.1245 10.8198 13.6133 12.6841 13.6133C14.5483 13.6133 16.0595 15.1245 16.0595 16.9888C16.0595 18.853 14.5483 20.3642 12.6841 20.3642C10.8198 20.3642 9.30859 18.853 9.30859 16.9888ZM21.2358 15.6133C20.4762 15.6133 19.8604 16.2291 19.8604 16.9888C19.8604 17.7484 20.4762 18.3642 21.2358 18.3642C21.9955 18.3642 22.6113 17.7484 22.6113 16.9888C22.6113 16.2291 21.9955 15.6133 21.2358 15.6133ZM17.8604 16.9888C17.8604 15.1245 19.3716 13.6133 21.2358 13.6133C23.1001 13.6133 24.6113 15.1245 24.6113 16.9888C24.6113 18.853 23.1001 20.3642 21.2358 20.3642C19.3716 20.3642 17.8604 18.853 17.8604 16.9888Z" fill="#1C1B1F"/>
</svg>
