<svg width="32" height="32" viewBox="0 0 32 32" fill="none" xmlns="http://www.w3.org/2000/svg">
<path fill-rule="evenodd" clip-rule="evenodd" d="M12.2499 -0.000244141C13.997 -0.000244141 15.5238 0.942986 16.3489 2.34799C17.1004 1.51982 18.1854 0.999756 19.3919 0.999756C21.6607 0.999756 23.4999 2.83898 23.4999 5.10779V9.16025C24.2331 8.74007 25.0826 8.49986 25.9883 8.49986H27.2501C29.3212 8.49986 31.0002 10.1788 31.0002 12.2499C31.0002 13.5925 30.2946 14.7703 29.2341 15.4328C30.8669 16.1842 32.0004 17.8348 32.0004 19.75C32.0004 22.3734 29.8738 24.5001 27.2504 24.5001H23.6235C24.1755 25.2762 24.5001 26.2252 24.5001 27.2501C24.5001 29.8735 22.3734 32.0002 19.75 32.0002C17.9801 32.0002 16.4362 31.0321 15.619 29.5966C14.876 30.4562 13.7776 31.0002 12.5521 31.0002C10.3142 31.0002 8.49996 29.186 8.49996 26.948V22.7324C7.74197 23.2183 6.84057 23.5001 5.87336 23.5001H4.74999C2.67889 23.5001 0.999939 21.8211 0.999939 19.75C0.999939 18.4075 1.70544 17.2297 2.76594 16.5672C1.13309 15.8158 -0.000488365 14.1652 -0.000488281 12.2499C-0.000488167 9.62653 2.12618 7.49986 4.74957 7.49986L8.37644 7.49986C7.82445 6.72379 7.49986 5.7747 7.49986 4.74981C7.49986 2.12643 9.62653 -0.000244141 12.2499 -0.000244141ZM12.2499 1.99976C13.7687 1.99976 15 3.231 15 4.74981V7.49986H12.2499C10.7311 7.49986 9.49986 6.26862 9.49986 4.74981C9.49986 3.231 10.7311 1.99976 12.2499 1.99976ZM19.75 30.0002C18.2312 30.0002 17 28.7689 17 27.2501V24.5001H19.75C21.2688 24.5001 22.5001 25.7313 22.5001 27.2501C22.5001 28.7689 21.2688 30.0002 19.75 30.0002ZM30.0004 19.75C30.0004 18.2312 28.7692 17 27.2504 17H17.0002V18.5C17.0002 20.7092 18.7911 22.5001 21.0003 22.5001H27.2504C28.7692 22.5001 30.0004 21.2688 30.0004 19.75ZM4.74957 15C3.23075 15 1.99951 13.7687 1.99951 12.2499C1.99951 10.7311 3.23075 9.49986 4.74957 9.49986H10.9997C13.2088 9.49986 14.9997 11.2908 14.9997 13.4999V15L4.74957 15Z" fill="#111827"/>
</svg>
