<svg width="33" height="33" viewBox="0 0 33 33" fill="none" xmlns="http://www.w3.org/2000/svg">
<path d="M16.9602 7.42444C16.9602 5.76758 18.3034 4.42444 19.9602 4.42444C21.6171 4.42444 22.9602 5.76758 22.9602 7.42444V12.4244C22.9602 14.6336 21.1693 16.4244 18.9602 16.4244H17.0196C16.9868 16.4244 16.9602 16.3978 16.9602 16.365V7.42444Z" fill="#1C1B1F"/>
<path d="M16.9602 7.42444C16.9602 5.76758 18.3034 4.42444 19.9602 4.42444C21.6171 4.42444 22.9602 5.76758 22.9602 7.42444V12.4244C22.9602 14.6336 21.1693 16.4244 18.9602 16.4244H17.0196C16.9868 16.4244 16.9602 16.3978 16.9602 16.365V7.42444Z" stroke="#1C1B1F" stroke-width="2"/>
<path d="M22.9602 13.4244C22.9602 11.7676 24.3034 10.4244 25.9602 10.4244C27.6171 10.4244 28.9602 11.7676 28.9602 13.4244C28.9602 15.0813 27.6171 16.4244 25.9602 16.4244H22.9901C22.9736 16.4244 22.9602 16.4111 22.9602 16.3946V13.4244Z" fill="#1C1B1F"/>
<path d="M22.9602 13.4244C22.9602 11.7676 24.3034 10.4244 25.9602 10.4244C27.6171 10.4244 28.9602 11.7676 28.9602 13.4244C28.9602 15.0813 27.6171 16.4244 25.9602 16.4244H22.9901C22.9736 16.4244 22.9602 16.4111 22.9602 16.3946V13.4244Z" stroke="#1C1B1F" stroke-width="2"/>
<path d="M16.9602 25.4244C16.9602 27.0813 18.3034 28.4244 19.9602 28.4244V28.4244C21.6171 28.4244 22.9602 27.0813 22.9602 25.4244V25.4244C22.9602 23.7676 21.6171 22.4244 19.9602 22.4244H16.9901C16.9736 22.4244 16.9602 22.4378 16.9602 22.4543V25.4244Z" stroke="#1C1B1F" stroke-width="2"/>
<path d="M10.9602 19.4244C10.9602 21.0813 9.61706 22.4244 7.96021 22.4244C6.30335 22.4244 4.96021 21.0813 4.96021 19.4244C4.96021 17.7676 6.30335 16.4244 7.96021 16.4244H10.9304C10.9468 16.4244 10.9602 16.4378 10.9602 16.4543V19.4244Z" fill="#1C1B1F"/>
<path d="M10.9602 19.4244C10.9602 21.0813 9.61706 22.4244 7.96021 22.4244C6.30335 22.4244 4.96021 21.0813 4.96021 19.4244C4.96021 17.7676 6.30335 16.4244 7.96021 16.4244H10.9304C10.9468 16.4244 10.9602 16.4378 10.9602 16.4543V19.4244Z" stroke="#1C1B1F" stroke-width="2"/>
<path d="M16.9602 7.42444C16.9602 5.76758 15.6171 4.42444 13.9602 4.42444V4.42444C12.3034 4.42444 10.9602 5.76758 10.9602 7.42444V7.42444C10.9602 9.08129 12.3034 10.4244 13.9602 10.4244H16.9304C16.9468 10.4244 16.9602 10.4111 16.9602 10.3946V7.42444Z" stroke="#1C1B1F" stroke-width="2"/>
<path d="M16.9602 25.4244C16.9602 27.0813 15.6171 28.4244 13.9602 28.4244C12.3034 28.4244 10.9602 27.0813 10.9602 25.4244V20.4244C10.9602 18.2153 12.7511 16.4244 14.9602 16.4244H16.9008C16.9336 16.4244 16.9602 16.451 16.9602 16.4838V25.4244Z" fill="#1C1B1F"/>
<path d="M16.9602 25.4244C16.9602 27.0813 15.6171 28.4244 13.9602 28.4244C12.3034 28.4244 10.9602 27.0813 10.9602 25.4244V20.4244C10.9602 18.2153 12.7511 16.4244 14.9602 16.4244H16.9008C16.9336 16.4244 16.9602 16.451 16.9602 16.4838V25.4244Z" stroke="#1C1B1F" stroke-width="2"/>
<path d="M25.9602 16.4244C27.6171 16.4244 28.9602 17.7676 28.9602 19.4244V19.4244C28.9602 21.0813 27.6171 22.4244 25.9602 22.4244L20.9602 22.4244C18.7511 22.4244 16.9602 20.6336 16.9602 18.4244L16.9602 16.4838C16.9602 16.451 16.9868 16.4244 17.0196 16.4244L25.9602 16.4244Z" stroke="#1C1B1F" stroke-width="2"/>
<path d="M7.96021 16.4244C6.30335 16.4244 4.96021 15.0813 4.96021 13.4244V13.4244C4.96021 11.7676 6.30335 10.4244 7.96021 10.4244L12.9602 10.4244C15.1693 10.4244 16.9602 12.2153 16.9602 14.4244L16.9602 16.365C16.9602 16.3978 16.9336 16.4244 16.9008 16.4244L7.96021 16.4244Z" stroke="#1C1B1F" stroke-width="2"/>
</svg>
