<svg width="33" height="33" viewBox="0 0 33 33" fill="none" xmlns="http://www.w3.org/2000/svg">
<path d="M16.9602 7.28296C16.9602 5.6261 18.3034 4.28296 19.9602 4.28296C21.6171 4.28296 22.9602 5.6261 22.9602 7.28296V12.283C22.9602 14.4921 21.1693 16.283 18.9602 16.283H17.0196C16.9868 16.283 16.9602 16.2564 16.9602 16.2236V7.28296Z" fill="#1C1B1F"/>
<path d="M16.9602 7.28296C16.9602 5.6261 18.3034 4.28296 19.9602 4.28296C21.6171 4.28296 22.9602 5.6261 22.9602 7.28296V12.283C22.9602 14.4921 21.1693 16.283 18.9602 16.283H17.0196C16.9868 16.283 16.9602 16.2564 16.9602 16.2236V7.28296Z" stroke="#1C1B1F" stroke-width="2"/>
<path d="M22.9602 13.283C22.9602 11.6261 24.3034 10.283 25.9602 10.283C27.6171 10.283 28.9602 11.6261 28.9602 13.283C28.9602 14.9398 27.6171 16.283 25.9602 16.283H22.9901C22.9736 16.283 22.9602 16.2696 22.9602 16.2531V13.283Z" fill="#1C1B1F"/>
<path d="M22.9602 13.283C22.9602 11.6261 24.3034 10.283 25.9602 10.283C27.6171 10.283 28.9602 11.6261 28.9602 13.283C28.9602 14.9398 27.6171 16.283 25.9602 16.283H22.9901C22.9736 16.283 22.9602 16.2696 22.9602 16.2531V13.283Z" stroke="#1C1B1F" stroke-width="2"/>
<path d="M16.9602 25.283C16.9602 26.9398 18.3034 28.283 19.9602 28.283V28.283C21.6171 28.283 22.9602 26.9398 22.9602 25.283V25.283C22.9602 23.6261 21.6171 22.283 19.9602 22.283H16.9901C16.9736 22.283 16.9602 22.2963 16.9602 22.3128V25.283Z" stroke="#1C1B1F" stroke-width="2"/>
<path d="M10.9602 19.283C10.9602 20.9398 9.61706 22.283 7.96021 22.283C6.30335 22.283 4.96021 20.9398 4.96021 19.283C4.96021 17.6261 6.30335 16.283 7.96021 16.283H10.9304C10.9468 16.283 10.9602 16.2963 10.9602 16.3128V19.283Z" fill="#1C1B1F"/>
<path d="M10.9602 19.283C10.9602 20.9398 9.61706 22.283 7.96021 22.283C6.30335 22.283 4.96021 20.9398 4.96021 19.283C4.96021 17.6261 6.30335 16.283 7.96021 16.283H10.9304C10.9468 16.283 10.9602 16.2963 10.9602 16.3128V19.283Z" stroke="#1C1B1F" stroke-width="2"/>
<path d="M16.9602 7.28296C16.9602 5.6261 15.6171 4.28296 13.9602 4.28296V4.28296C12.3034 4.28296 10.9602 5.6261 10.9602 7.28296V7.28296C10.9602 8.93981 12.3034 10.283 13.9602 10.283H16.9304C16.9468 10.283 16.9602 10.2696 16.9602 10.2531V7.28296Z" stroke="#1C1B1F" stroke-width="2"/>
<path d="M16.9602 25.283C16.9602 26.9398 15.6171 28.283 13.9602 28.283C12.3034 28.283 10.9602 26.9398 10.9602 25.283V20.283C10.9602 18.0738 12.7511 16.283 14.9602 16.283H16.9008C16.9336 16.283 16.9602 16.3096 16.9602 16.3424V25.283Z" fill="#1C1B1F"/>
<path d="M16.9602 25.283C16.9602 26.9398 15.6171 28.283 13.9602 28.283C12.3034 28.283 10.9602 26.9398 10.9602 25.283V20.283C10.9602 18.0738 12.7511 16.283 14.9602 16.283H16.9008C16.9336 16.283 16.9602 16.3096 16.9602 16.3424V25.283Z" stroke="#1C1B1F" stroke-width="2"/>
<path d="M25.9602 16.283C27.6171 16.283 28.9602 17.6261 28.9602 19.283V19.283C28.9602 20.9398 27.6171 22.283 25.9602 22.283L20.9602 22.283C18.7511 22.283 16.9602 20.4921 16.9602 18.283L16.9602 16.3424C16.9602 16.3096 16.9868 16.283 17.0196 16.283L25.9602 16.283Z" stroke="#1C1B1F" stroke-width="2"/>
<path d="M7.96021 16.283C6.30335 16.283 4.96021 14.9398 4.96021 13.283V13.283C4.96021 11.6261 6.30335 10.283 7.96021 10.283L12.9602 10.283C15.1693 10.283 16.9602 12.0738 16.9602 14.283L16.9602 16.2236C16.9602 16.2564 16.9336 16.283 16.9008 16.283L7.96021 16.283Z" stroke="#1C1B1F" stroke-width="2"/>
</svg>
