<svg width="32" height="33" viewBox="0 0 32 33" fill="none" xmlns="http://www.w3.org/2000/svg">
<path fill-rule="evenodd" clip-rule="evenodd" d="M15.1724 9.98989C14.7485 11.3901 13.4479 12.4095 11.9093 12.4095C10.3707 12.4095 9.07019 11.3902 8.64623 9.98996C8.59864 9.99691 8.54996 10.0005 8.50044 10.0005L1.00096 10.0004C0.448678 10.0004 0.000969172 9.55268 0.000976563 9.0004C0.000983954 8.44811 0.448705 8.0004 1.00099 8.00041L8.50047 8.00051C8.55001 8.00051 8.59871 8.00411 8.64632 8.01107C9.07036 6.61101 10.3708 5.5918 11.9093 5.5918C13.4478 5.5918 14.7483 6.61104 15.1723 8.01114C15.2201 8.00414 15.269 8.00051 15.3187 8.00051L30.9994 8.00041C31.5517 8.00041 31.9994 8.44812 31.9994 9.0004C31.9994 9.55269 31.5517 10.0004 30.9994 10.0004L15.3187 10.0005C15.269 10.0005 15.2202 9.99689 15.1724 9.98989ZM22.8172 27.4085C24.3557 27.4085 25.6562 26.3892 26.0802 24.9891C26.1278 24.996 26.1765 24.9996 26.226 24.9996L30.9984 24.9996C31.5507 24.9996 31.9984 24.5519 31.9984 23.9996C31.9984 23.4474 31.5507 22.9996 30.9984 22.9996L26.226 22.9996C26.1765 22.9996 26.1278 23.0032 26.0802 23.0102C25.6562 21.61 24.3557 20.5908 22.8172 20.5908C21.2786 20.5908 19.9782 21.61 19.5541 23.0101C19.5067 23.0032 19.4582 22.9996 19.4088 22.9996L1.00098 22.9996C0.448691 22.9996 0.000976563 23.4474 0.000976563 23.9996C0.000976563 24.5519 0.448693 24.9996 1.00098 24.9996L19.4088 24.9996C19.4582 24.9996 19.5067 24.996 19.5541 24.9891C19.9782 26.3892 21.2786 27.4085 22.8172 27.4085Z" fill="#111827"/>
</svg>
