<svg width="32" height="33" viewBox="0 0 32 33" fill="none" xmlns="http://www.w3.org/2000/svg">
<path fill-rule="evenodd" clip-rule="evenodd" d="M29.2717 1.50123C29.2717 0.948944 28.824 0.501225 28.2717 0.501221C27.7194 0.501216 27.2717 0.948928 27.2717 1.50121L27.2716 19.9088C27.2716 19.9583 27.2752 20.0069 27.2821 20.0545C25.8821 20.4785 24.863 21.7789 24.863 23.3174C24.863 24.8559 25.8821 26.1563 27.2822 26.5803C27.2752 26.6281 27.2716 26.6769 27.2716 26.7265L27.2717 31.4989C27.2717 32.0512 27.7195 32.4989 28.2717 32.4989C28.824 32.4988 29.2717 32.0511 29.2717 31.4988L29.2716 26.7265C29.2716 26.6769 29.268 26.6281 29.261 26.5805C30.6612 26.1565 31.6806 24.856 31.6806 23.3174C31.6806 21.7788 30.6613 20.4783 29.2611 20.0543C29.268 20.0068 29.2716 19.9583 29.2716 19.9088L29.2717 1.50123ZM16 0.501221C16.5523 0.501223 17 0.94894 17 1.50123L17 6.27357C17 6.32307 16.9964 6.37174 16.9895 6.41932C18.3894 6.84341 19.4085 8.1438 19.4085 9.68223C19.4085 11.2207 18.3894 12.5211 16.9894 12.9452C16.9964 12.9928 17 13.0415 17 13.0911L17 31.4987C17 32.051 16.5523 32.4987 16 32.4987C15.4477 32.4987 15 32.051 15 31.4987L15 13.0911C15 13.0416 15.0036 12.9929 15.0105 12.9453C13.6103 12.5214 12.5909 11.2209 12.5909 9.68223C12.5909 8.14361 13.6103 6.84308 15.0105 6.41916C15.0036 6.37163 15 6.32301 15 6.27356L15 1.50122C15 0.948932 15.4477 0.501218 16 0.501221ZM2.73861 21.1265C1.33855 20.7025 0.319336 19.402 0.319336 17.8635C0.319336 16.325 1.33855 15.0246 2.7386 14.6006C2.73164 14.553 2.72804 14.5043 2.72804 14.4547L2.72794 1.50123C2.72794 0.948944 3.17565 0.501225 3.72793 0.501221C4.28022 0.501216 4.72794 0.948928 4.72794 1.50121L4.72804 14.4547C4.72804 14.5042 4.72444 14.5529 4.71749 14.6005C6.11766 15.0245 7.13697 16.3249 7.13697 17.8635C7.13697 19.4021 6.11765 20.7026 4.71748 21.1266C4.72444 21.1742 4.72804 21.2229 4.72804 21.2724L4.72794 31.4989C4.72794 32.0511 4.28022 32.4989 3.72793 32.4989C3.17565 32.4988 2.72794 32.0511 2.72794 31.4988L2.72804 21.2724C2.72804 21.2228 2.73165 21.1741 2.73861 21.1265Z" fill="#111827"/>
</svg>
