<svg width="33" height="33" viewBox="0 0 33 33" fill="none" xmlns="http://www.w3.org/2000/svg">
<path fill-rule="evenodd" clip-rule="evenodd" d="M16.2319 11.7662C15.8374 12.7865 14.8468 13.5102 13.6872 13.5102C12.5277 13.5102 11.5371 12.7865 11.1426 11.7662C11.0834 11.7771 11.0223 11.7828 10.9599 11.7828L4.95995 11.7827C4.40766 11.7827 3.95995 11.335 3.95996 10.7827C3.95997 10.2304 4.40769 9.78271 4.95997 9.78271L10.96 9.78279C11.0224 9.7828 11.0834 9.78851 11.1427 9.79945C11.5373 8.77923 12.5278 8.05566 13.6872 8.05566C14.8467 8.05566 15.8372 8.77923 16.2318 9.79946C16.291 9.78852 16.3521 9.7828 16.4145 9.78279L28.96 9.78271C29.5123 9.78271 29.96 10.2304 29.96 10.7827C29.96 11.335 29.5123 11.7827 28.96 11.7827L16.4146 11.7828C16.3522 11.7828 16.2911 11.7771 16.2319 11.7662ZM22.4143 25.5102C23.5738 25.5102 24.5643 24.7866 24.9589 23.7663C25.0181 23.7772 25.0792 23.783 25.1416 23.783L28.9598 23.783C29.5121 23.783 29.9598 23.3353 29.9598 22.783C29.9598 22.2307 29.5121 21.783 28.9598 21.783L25.1416 21.783C25.0792 21.783 25.0181 21.7887 24.9589 21.7996C24.5644 20.7793 23.5738 20.0557 22.4143 20.0557C21.2548 20.0557 20.2642 20.7793 19.8697 21.7996C19.8105 21.7887 19.7495 21.783 19.6872 21.783L4.95996 21.783C4.40768 21.783 3.95996 22.2307 3.95996 22.783C3.95996 23.3353 4.40768 23.783 4.95996 23.783L19.6872 23.783C19.7496 23.783 19.8105 23.7773 19.8697 23.7663C20.2643 24.7866 21.2548 25.5102 22.4143 25.5102Z" fill="#1C1B1F"/>
</svg>
