<svg width="33" height="33" viewBox="0 0 33 33" fill="none" xmlns="http://www.w3.org/2000/svg">
<path fill-rule="evenodd" clip-rule="evenodd" d="M16.96 28.783C10.3325 28.783 4.95996 23.4104 4.95996 16.783C4.95996 10.1555 10.3325 4.78296 16.96 4.78296C23.5874 4.78296 28.96 10.1555 28.96 16.783C28.96 17.9242 28.8006 19.0283 28.503 20.0741C28.4795 20.1568 28.4339 20.2315 28.3721 20.2914L20.0947 28.3031C20.0329 28.363 19.9567 28.4061 19.8732 28.4269C18.9405 28.6595 17.9646 28.783 16.96 28.783ZM13.9601 14.283C13.9601 15.1114 13.2886 15.783 12.4601 15.783C11.6317 15.783 10.9601 15.1114 10.9601 14.283C10.9601 13.4545 11.6317 12.783 12.4601 12.783C13.2886 12.783 13.9601 13.4545 13.9601 14.283ZM22.9601 14.283C22.9601 15.1114 22.2886 15.783 21.4601 15.783C20.6317 15.783 19.9601 15.1114 19.9601 14.283C19.9601 13.4545 20.6317 12.783 21.4601 12.783C22.2886 12.783 22.9601 13.4545 22.9601 14.283ZM22.6579 18.9166C23.1362 19.1928 23.3 19.8044 23.0238 20.2827C22.4092 21.3469 21.5253 22.2306 20.461 22.845C19.3966 23.4595 18.1893 23.7829 16.9604 23.7829C15.7314 23.7829 14.5241 23.4595 13.4598 22.8451C12.3954 22.2307 11.5115 21.347 10.8969 20.2828C10.6207 19.8045 10.7845 19.1929 11.2627 18.9167C11.741 18.6405 12.3526 18.8043 12.6288 19.2825C13.0679 20.0428 13.6993 20.6741 14.4596 21.113C15.22 21.5519 16.0824 21.7829 16.9604 21.7829C17.8383 21.7829 18.7007 21.5518 19.4611 21.1129C20.2214 20.674 20.8528 20.0427 21.2919 19.2825C21.5681 18.8042 22.1797 18.6404 22.6579 18.9166Z" fill="#1C1B1F"/>
</svg>
