<svg width="33" height="33" viewBox="0 0 33 33" fill="none" xmlns="http://www.w3.org/2000/svg">
<path fill-rule="evenodd" clip-rule="evenodd" d="M28.96 16.783C28.96 23.4104 23.5874 28.783 16.96 28.783C10.3325 28.783 4.95996 23.4104 4.95996 16.783C4.95996 10.1555 10.3325 4.78296 16.96 4.78296C23.5874 4.78296 28.96 10.1555 28.96 16.783ZM13.96 14.283C13.96 15.1114 13.2884 15.783 12.46 15.783C11.6315 15.783 10.96 15.1114 10.96 14.283C10.96 13.4545 11.6315 12.783 12.46 12.783C13.2884 12.783 13.96 13.4545 13.96 14.283ZM22.96 14.283C22.96 15.1114 22.2884 15.783 21.46 15.783C20.6315 15.783 19.96 15.1114 19.96 14.283C19.96 13.4545 20.6315 12.783 21.46 12.783C22.2884 12.783 22.96 13.4545 22.96 14.283ZM22.6574 18.9167C23.1357 19.1929 23.2995 19.8045 23.0233 20.2827C22.4087 21.347 21.5248 22.2307 20.4605 22.8451C19.3961 23.4595 18.1888 23.783 16.9599 23.783C15.7309 23.783 14.5236 23.4595 13.4593 22.8451C12.3949 22.2307 11.511 21.347 10.8964 20.2828C10.6202 19.8046 10.784 19.193 11.2623 18.9168C11.7405 18.6405 12.3521 18.8043 12.6283 19.2826C13.0674 20.0428 13.6988 20.6741 14.4592 21.113C15.2195 21.5519 16.0819 21.783 16.9599 21.783C17.8378 21.783 18.7002 21.5519 19.4606 21.113C20.2209 20.6741 20.8523 20.0428 21.2914 19.2825C21.5676 18.8043 22.1792 18.6405 22.6574 18.9167Z" fill="#1C1B1F"/>
</svg>
