<svg width="32" height="33" viewBox="0 0 32 33" fill="none" xmlns="http://www.w3.org/2000/svg">
<path fill-rule="evenodd" clip-rule="evenodd" d="M32 16.5C32 25.3366 24.8366 32.5 16 32.5C7.16344 32.5 0 25.3366 0 16.5C0 7.66344 7.16344 0.5 16 0.5C24.8366 0.5 32 7.66344 32 16.5ZM12.0002 13.1667C12.0002 14.2713 11.1047 15.1667 10.0002 15.1667C8.89559 15.1667 8.00016 14.2713 8.00016 13.1667C8.00016 12.0621 8.89559 11.1667 10.0002 11.1667C11.1047 11.1667 12.0002 12.0621 12.0002 13.1667ZM24.0002 13.1667C24.0002 14.2713 23.1047 15.1667 22.0002 15.1667C20.8956 15.1667 20.0002 14.2713 20.0002 13.1667C20.0002 12.0621 20.8956 11.1667 22.0002 11.1667C23.1047 11.1667 24.0002 12.0621 24.0002 13.1667ZM11.4997 20.7053C12.8681 19.9154 14.4204 19.4995 16.0005 19.4996C17.5806 19.4996 19.1328 19.9154 20.5013 20.7054C21.8697 21.4954 23.0062 22.6316 23.7964 23.9999C24.0726 24.4781 23.9088 25.0898 23.4305 25.366C22.9523 25.6422 22.3407 25.4784 22.0645 25.0001C21.4498 23.9358 20.5658 23.052 19.5014 22.4375C18.4369 21.8231 17.2295 21.4996 16.0005 21.4996C14.7714 21.4995 13.564 21.823 12.4995 22.4375C11.4351 23.0519 10.5511 23.9357 9.93643 25C9.66022 25.4783 9.0486 25.6421 8.57035 25.3659C8.0921 25.0896 7.92831 24.478 8.20452 23.9998C8.99476 22.6315 10.1312 21.4953 11.4997 20.7053Z" fill="#111827"/>
</svg>
