<svg width="33" height="33" viewBox="0 0 33 33" fill="none" xmlns="http://www.w3.org/2000/svg">
<path fill-rule="evenodd" clip-rule="evenodd" d="M28.96 16.783C28.96 23.4104 23.5874 28.783 16.96 28.783C10.3325 28.783 4.95996 23.4104 4.95996 16.783C4.95996 10.1555 10.3325 4.78296 16.96 4.78296C23.5874 4.78296 28.96 10.1555 28.96 16.783ZM12.46 15.783C13.2884 15.783 13.96 15.1114 13.96 14.283C13.96 13.4545 13.2884 12.783 12.46 12.783C11.6315 12.783 10.96 13.4545 10.96 14.283C10.96 15.1114 11.6315 15.783 12.46 15.783ZM21.46 15.783C22.2884 15.783 22.96 15.1114 22.96 14.283C22.96 13.4545 22.2884 12.783 21.46 12.783C20.6315 12.783 19.96 13.4545 19.96 14.283C19.96 15.1114 20.6315 15.783 21.46 15.783Z" fill="#1C1B1F"/>
</svg>
