<svg width="32" height="33" viewBox="0 0 32 33" fill="none" xmlns="http://www.w3.org/2000/svg">
<path fill-rule="evenodd" clip-rule="evenodd" d="M32 16.5C32 25.3366 24.8366 32.5 16 32.5C7.16344 32.5 0 25.3366 0 16.5C0 7.66344 7.16344 0.5 16 0.5C24.8366 0.5 32 7.66344 32 16.5ZM12.7069 11.8737C13.0975 11.4832 13.0975 10.85 12.7069 10.4595C12.3164 10.069 11.6833 10.069 11.2927 10.4595L9.33317 12.4191L7.37361 10.4595C6.98309 10.069 6.34992 10.069 5.9594 10.4595C5.56887 10.85 5.56887 11.4832 5.9594 11.8737L7.91896 13.8333L5.9594 15.7929C5.56887 16.1834 5.56887 16.8165 5.9594 17.2071C6.34992 17.5976 6.98309 17.5976 7.37361 17.2071L9.33317 15.2475L11.2927 17.2071C11.6833 17.5976 12.3164 17.5976 12.7069 17.2071C13.0975 16.8165 13.0975 16.1834 12.7069 15.7929L10.7474 13.8333L12.7069 11.8737ZM26.0403 11.8737C26.4308 11.4832 26.4308 10.85 26.0403 10.4595C25.6498 10.069 25.0166 10.069 24.6261 10.4595L22.6665 12.4191L20.7069 10.4595C20.3164 10.069 19.6833 10.069 19.2927 10.4595C18.9022 10.85 18.9022 11.4832 19.2927 11.8737L21.2523 13.8333L19.2927 15.7929C18.9022 16.1834 18.9022 16.8165 19.2927 17.2071C19.6833 17.5976 20.3164 17.5976 20.7069 17.2071L22.6665 15.2475L24.6261 17.2071C25.0166 17.5976 25.6498 17.5976 26.0403 17.2071C26.4308 16.8165 26.4308 16.1834 26.0403 15.7929L24.0807 13.8333L26.0403 11.8737ZM17.9998 25.1666C17.9998 26.2712 17.1044 27.1666 15.9998 27.1666C14.8953 27.1666 13.9998 26.2712 13.9998 25.1666C13.9998 24.0621 14.8953 23.1666 15.9998 23.1666C17.1044 23.1666 17.9998 24.0621 17.9998 25.1666Z" fill="#111827"/>
</svg>
