<svg width="33" height="33" viewBox="0 0 33 33" fill="none" xmlns="http://www.w3.org/2000/svg">
<path fill-rule="evenodd" clip-rule="evenodd" d="M28.96 16.783C28.96 23.4104 23.5874 28.783 16.96 28.783C10.3325 28.783 4.95996 23.4104 4.95996 16.783C4.95996 10.1555 10.3325 4.78296 16.96 4.78296C23.5874 4.78296 28.96 10.1555 28.96 16.783ZM13.96 14.283C13.96 15.1114 13.2884 15.783 12.46 15.783C11.6316 15.783 10.96 15.1114 10.96 14.283C10.96 13.4545 11.6316 12.783 12.46 12.783C13.2884 12.783 13.96 13.4545 13.96 14.283ZM22.96 14.283C22.96 15.1114 22.2884 15.783 21.46 15.783C20.6316 15.783 19.96 15.1114 19.96 14.283C19.96 13.4545 20.6316 12.783 21.46 12.783C22.2884 12.783 22.96 13.4545 22.96 14.283ZM20.9118 21.4437L22.2962 23.0586C22.6557 23.4779 23.287 23.5264 23.7063 23.1669C24.1256 22.8075 24.1741 22.1762 23.8146 21.7569L21.7012 19.2915C21.2436 18.7578 20.4097 18.7844 19.987 19.3462L18.9086 20.7797L17.7329 19.3188C17.2896 18.7679 16.4491 18.7724 16.0117 19.328L14.8778 20.7682L13.8124 19.3519C13.375 18.7705 12.5036 18.7663 12.0607 19.3435L10.1764 21.7989C9.84022 22.2371 9.92284 22.8648 10.361 23.201C10.7991 23.5373 11.4269 23.4546 11.7631 23.0165L12.9262 21.5008L13.9826 22.905C14.4166 23.482 15.2793 23.4915 15.7259 22.9242L16.8837 21.4536L18.0756 22.9346C18.5252 23.4932 19.3805 23.4792 19.8116 22.9062L20.9118 21.4437Z" fill="#1C1B1F"/>
</svg>
