<svg width="32" height="33" viewBox="0 0 32 33" fill="none" xmlns="http://www.w3.org/2000/svg">
<path fill-rule="evenodd" clip-rule="evenodd" d="M32 16.5C32 25.3366 24.8366 32.5 16 32.5C7.16344 32.5 0 25.3366 0 16.5C0 7.66344 7.16344 0.5 16 0.5C24.8366 0.5 32 7.66344 32 16.5ZM12 13.1667C12 14.2712 11.1046 15.1667 10 15.1667C8.89543 15.1667 8 14.2712 8 13.1667C8 12.0621 8.89543 11.1667 10 11.1667C11.1046 11.1667 12 12.0621 12 13.1667ZM9.33333 20.8334C8.78105 20.8334 8.33333 21.2811 8.33333 21.8334C8.33333 22.3857 8.78105 22.8334 9.33333 22.8334H22.6667C23.219 22.8334 23.6667 22.3857 23.6667 21.8334C23.6667 21.2811 23.219 20.8334 22.6667 20.8334H9.33333ZM22 15.1667C23.1046 15.1667 24 14.2713 24 13.1667C24 12.0621 23.1046 11.1667 22 11.1667C20.8954 11.1667 20 12.0621 20 13.1667C20 14.2713 20.8954 15.1667 22 15.1667Z" fill="#111827"/>
</svg>
