<svg width="32" height="33" viewBox="0 0 32 33" fill="none" xmlns="http://www.w3.org/2000/svg">
<path fill-rule="evenodd" clip-rule="evenodd" d="M32 16.5C32 25.3366 24.8366 32.5 16 32.5C7.16344 32.5 0 25.3366 0 16.5C0 7.66344 7.16344 0.5 16 0.5C24.8366 0.5 32 7.66344 32 16.5ZM12 13.1667C12 14.2713 11.1046 15.1667 10 15.1667C8.89543 15.1667 8 14.2713 8 13.1667C8 12.0621 8.89543 11.1667 10 11.1667C11.1046 11.1667 12 12.0621 12 13.1667ZM24 13.1667C24 14.2713 23.1046 15.1667 22 15.1667C20.8954 15.1667 20 14.2713 20 13.1667C20 12.0621 20.8954 11.1667 22 11.1667C23.1046 11.1667 24 12.0621 24 13.1667ZM21.2521 22.1824L23.368 24.6506C23.7275 25.0699 24.3588 25.1184 24.7781 24.7589C25.1974 24.3995 25.2459 23.7682 24.8864 23.3489L22.0415 20.0303C21.5839 19.4965 20.75 19.5231 20.3273 20.0849L18.607 22.3717L16.7446 20.0575C16.3013 19.5067 15.4608 19.5112 15.0234 20.0668L13.2178 22.3602L11.5104 20.0906C11.073 19.5092 10.2017 19.505 9.75871 20.0823L7.21969 23.3909C6.88346 23.8291 6.96609 24.4568 7.40423 24.793C7.84238 25.1293 8.47013 25.0466 8.80635 24.6085L10.6242 22.2396L12.3225 24.497C12.7565 25.074 13.6192 25.0835 14.0658 24.5162L15.8954 22.1923L17.774 24.5266C18.2236 25.0852 19.0789 25.0712 19.51 24.4982L21.2521 22.1824Z" fill="#111827"/>
</svg>
