<svg width="33" height="33" viewBox="0 0 33 33" fill="none" xmlns="http://www.w3.org/2000/svg">
<path fill-rule="evenodd" clip-rule="evenodd" d="M28.96 16.783C28.96 23.4104 23.5874 28.783 16.96 28.783C10.3325 28.783 4.95996 23.4104 4.95996 16.783C4.95996 10.1555 10.3325 4.78296 16.96 4.78296C23.5874 4.78296 28.96 10.1555 28.96 16.783ZM14.6671 13.4901C15.0576 13.0995 15.0576 12.4664 14.6671 12.0759C14.2765 11.6853 13.6434 11.6853 13.2529 12.0759L11.96 13.3687L10.6671 12.0759C10.2765 11.6853 9.64338 11.6853 9.25285 12.0759C8.86233 12.4664 8.86233 13.0995 9.25285 13.4901L10.5457 14.783L9.25285 16.0759C8.86233 16.4664 8.86233 17.0995 9.25285 17.4901C9.64338 17.8806 10.2765 17.8806 10.6671 17.4901L11.96 16.1972L13.2529 17.4901C13.6434 17.8806 14.2765 17.8806 14.6671 17.4901C15.0576 17.0995 15.0576 16.4664 14.6671 16.0759L13.3742 14.783L14.6671 13.4901ZM24.6671 13.4901C25.0576 13.0995 25.0576 12.4664 24.6671 12.0759C24.2765 11.6853 23.6434 11.6853 23.2529 12.0759L21.96 13.3687L20.6671 12.0759C20.2765 11.6853 19.6434 11.6853 19.2529 12.0759C18.8623 12.4664 18.8623 13.0995 19.2529 13.4901L20.5457 14.783L19.2529 16.0759C18.8623 16.4664 18.8623 17.0995 19.2529 17.4901C19.6434 17.8806 20.2765 17.8806 20.6671 17.4901L21.96 16.1972L23.2529 17.4901C23.6434 17.8806 24.2765 17.8806 24.6671 17.4901C25.0576 17.0995 25.0576 16.4664 24.6671 16.0759L23.3742 14.783L24.6671 13.4901ZM18.46 23.283C18.46 24.1114 17.7884 24.783 16.96 24.783C16.1315 24.783 15.46 24.1114 15.46 23.283C15.46 22.4545 16.1315 21.783 16.96 21.783C17.7884 21.783 18.46 22.4545 18.46 23.283Z" fill="#1C1B1F"/>
</svg>
