<svg width="32" height="33" viewBox="0 0 32 33" fill="none" xmlns="http://www.w3.org/2000/svg">
<path fill-rule="evenodd" clip-rule="evenodd" d="M32 16.5C32 25.3366 24.8366 32.5 16 32.5C7.16344 32.5 0 25.3366 0 16.5C0 7.66344 7.16344 0.5 16 0.5C24.8366 0.5 32 7.66344 32 16.5ZM12 13.1667C12 14.2712 11.1046 15.1667 10 15.1667C8.89543 15.1667 8 14.2712 8 13.1667C8 12.0621 8.89543 11.1667 10 11.1667C11.1046 11.1667 12 12.0621 12 13.1667ZM24 13.1667C24 14.2712 23.1046 15.1667 22 15.1667C20.8954 15.1667 20 14.2712 20 13.1667C20 12.0621 20.8954 11.1667 22 11.1667C23.1046 11.1667 24 12.0621 24 13.1667ZM23.5966 19.345C24.2343 19.7132 24.4527 20.5287 24.0844 21.1664C23.265 22.5853 22.0865 23.7636 20.6673 24.5828C19.2482 25.4021 17.6385 25.8333 15.9999 25.8333C14.3613 25.8334 12.7516 25.4021 11.3324 24.5829C9.9133 23.7637 8.73478 22.5854 7.91528 21.1665C7.547 20.5288 7.76538 19.7133 8.40305 19.3451C9.04072 18.9768 9.85621 19.1952 10.2245 19.8328C10.8099 20.8465 11.6518 21.6882 12.6656 22.2734C13.6794 22.8586 14.8293 23.1667 15.9999 23.1667C17.1704 23.1667 18.3204 22.8586 19.3341 22.2734C20.3479 21.6881 21.1898 20.8464 21.7752 19.8328C22.1435 19.1951 22.959 18.9767 23.5966 19.345Z" fill="#111827"/>
</svg>
