<svg width="32" height="33" viewBox="0 0 32 33" fill="none" xmlns="http://www.w3.org/2000/svg">
<path fill-rule="evenodd" clip-rule="evenodd" d="M32 16.5C32 25.3366 24.8366 32.5 16 32.5C7.16344 32.5 0 25.3366 0 16.5C0 7.66344 7.16344 0.5 16 0.5C24.8366 0.5 32 7.66344 32 16.5ZM12.0002 13.1667C12.0002 14.2713 11.1047 15.1667 10.0002 15.1667C8.89559 15.1667 8.00016 14.2713 8.00016 13.1667C8.00016 12.0621 8.89559 11.1667 10.0002 11.1667C11.1047 11.1667 12.0002 12.0621 12.0002 13.1667ZM20.0002 12.1667C19.4479 12.1667 19.0002 12.6144 19.0002 13.1667C19.0002 13.719 19.4479 14.1667 20.0002 14.1667H24.0002C24.5524 14.1667 25.0002 13.719 25.0002 13.1667C25.0002 12.6144 24.5524 12.1667 24.0002 12.1667H20.0002ZM23.4305 19.6336C23.9088 19.9098 24.0726 20.5214 23.7964 20.9997C23.0062 22.368 21.8697 23.5042 20.5013 24.2941C19.1328 25.0841 17.5806 25.5 16.0005 25.5C14.4204 25.5 12.8681 25.0841 11.4997 24.2942C10.1312 23.5043 8.99476 22.3681 8.20452 20.9998C7.92831 20.5215 8.0921 19.9099 8.57035 19.6337C9.0486 19.3575 9.66022 19.5213 9.93643 19.9995C10.5511 21.0638 11.4351 21.9476 12.4995 22.5621C13.564 23.1765 14.7714 23.5 16.0005 23.5C17.2295 23.5 18.4369 23.1765 19.5014 22.562C20.5658 21.9476 21.4498 21.0638 22.0645 19.9994C22.3407 19.5212 22.9523 19.3574 23.4305 19.6336Z" fill="#111827"/>
</svg>
