<svg width="33" height="33" viewBox="0 0 33 33" fill="none" xmlns="http://www.w3.org/2000/svg">
<path fill-rule="evenodd" clip-rule="evenodd" d="M28.96 16.783C28.96 23.4104 23.5874 28.783 16.96 28.783C10.3325 28.783 4.95996 23.4104 4.95996 16.783C4.95996 10.1555 10.3325 4.78296 16.96 4.78296C23.5874 4.78296 28.96 10.1555 28.96 16.783ZM13.9601 14.283C13.9601 15.1114 13.2886 15.783 12.4601 15.783C11.6317 15.783 10.9601 15.1114 10.9601 14.283C10.9601 13.4545 11.6317 12.783 12.4601 12.783C13.2886 12.783 13.9601 13.4545 13.9601 14.283ZM22.9601 14.283C22.9601 15.1114 22.2886 15.783 21.4601 15.783C20.6317 15.783 19.9601 15.1114 19.9601 14.283C19.9601 13.4545 20.6317 12.783 21.4601 12.783C22.2886 12.783 22.9601 13.4545 22.9601 14.283ZM13.4598 19.7204C14.5241 19.106 15.7314 18.7826 16.9604 18.7826C18.1893 18.7826 19.3966 19.1061 20.461 19.7205C21.5253 20.3349 22.4092 21.2186 23.0238 22.2828C23.3 22.7611 23.1362 23.3727 22.6579 23.6489C22.1797 23.9251 21.5681 23.7613 21.2919 23.283C20.8528 22.5228 20.2214 21.8915 19.4611 21.4526C18.7007 21.0137 17.8383 20.7826 16.9604 20.7826C16.0824 20.7826 15.22 21.0136 14.4596 21.4525C13.6993 21.8915 13.0679 22.5227 12.6288 23.283C12.3526 23.7612 11.741 23.925 11.2627 23.6488C10.7845 23.3726 10.6207 22.761 10.8969 22.2827C11.5115 21.2185 12.3954 20.3348 13.4598 19.7204Z" fill="#1C1B1F"/>
</svg>
