<svg width="32" height="33" viewBox="0 0 32 33" fill="none" xmlns="http://www.w3.org/2000/svg">
<path fill-rule="evenodd" clip-rule="evenodd" d="M16 32.5C7.16344 32.5 0 25.3366 0 16.5C0 7.66344 7.16344 0.5 16 0.5C24.8366 0.5 32 7.66344 32 16.5C32 18.037 31.7833 19.5233 31.3787 20.9302C31.355 21.0129 31.3095 21.0876 31.2476 21.1475L20.1483 31.8906C20.0864 31.9505 20.0102 31.9935 19.9267 32.0146C18.6703 32.3316 17.3548 32.5 16 32.5ZM12.0002 13.1667C12.0002 14.2713 11.1047 15.1667 10.0002 15.1667C8.89559 15.1667 8.00016 14.2713 8.00016 13.1667C8.00016 12.0621 8.89559 11.1667 10.0002 11.1667C11.1047 11.1667 12.0002 12.0621 12.0002 13.1667ZM24.0002 13.1667C24.0002 14.2713 23.1047 15.1667 22.0002 15.1667C20.8956 15.1667 20.0002 14.2713 20.0002 13.1667C20.0002 12.0621 20.8956 11.1667 22.0002 11.1667C23.1047 11.1667 24.0002 12.0621 24.0002 13.1667ZM23.4305 19.6336C23.9088 19.9098 24.0726 20.5214 23.7964 20.9997C23.0062 22.368 21.8697 23.5042 20.5013 24.2941C19.1328 25.0841 17.5806 25.5 16.0005 25.5C14.4204 25.5 12.8681 25.0841 11.4997 24.2942C10.1312 23.5043 8.99476 22.3681 8.20452 20.9998C7.92831 20.5215 8.0921 19.9099 8.57035 19.6337C9.0486 19.3575 9.66022 19.5213 9.93643 19.9995C10.5511 21.0638 11.4351 21.9476 12.4995 22.5621C13.564 23.1765 14.7714 23.5 16.0005 23.5C17.2295 23.5 18.4369 23.1765 19.5014 22.562C20.5658 21.9476 21.4498 21.0638 22.0645 19.9994C22.3407 19.5212 22.9523 19.3574 23.4305 19.6336Z" fill="#111827"/>
</svg>
