<svg width="33" height="33" viewBox="0 0 33 33" fill="none" xmlns="http://www.w3.org/2000/svg">
<g clip-path="url(#clip0_303_78)">
<path d="M4.97316 8.21646L11.4759 12.1157C11.836 12.3321 12.2588 12.4203 12.6754 12.3657C13.0919 12.3111 13.4778 12.1171 13.77 11.8153C13.9653 11.6271 14.1203 11.4012 14.2257 11.1513C14.3312 10.9014 14.3848 10.6328 14.3834 10.3616V2.54654C14.3964 2.20424 14.3168 1.86477 14.1531 1.56389C13.9894 1.26301 13.7475 1.01185 13.4531 0.836866C13.1586 0.66189 12.8225 0.56954 12.48 0.56954C12.1375 0.56954 11.8013 0.66189 11.5069 0.836866C11.2124 1.01185 10.9706 1.26301 10.8069 1.56389C10.6431 1.86477 10.5636 2.20424 10.5766 2.54654V6.9937L6.8838 4.77912C6.66604 4.64986 6.42458 4.56557 6.17369 4.53122C5.92279 4.49688 5.66756 4.51318 5.42308 4.57916C4.93017 4.71163 4.51425 5.04907 4.27329 5.50098C3.74489 6.4508 4.05334 7.64057 4.97316 8.21147M20.6052 12.1107L27.108 8.21147C28.0278 7.64007 28.3367 6.4453 27.8078 5.49998C27.6882 5.27693 27.5247 5.08041 27.3271 4.92226C27.1295 4.76411 26.9019 4.64761 26.6581 4.57978C26.4142 4.51196 26.1592 4.49421 25.9083 4.52761C25.6574 4.56101 25.4159 4.64486 25.1983 4.77412L21.549 6.9587V2.53954C21.5583 2.28378 21.5159 2.02878 21.4244 1.78976C21.333 1.55074 21.1942 1.33261 21.0166 1.14839C20.8389 0.964172 20.626 0.81765 20.3904 0.717573C20.1549 0.617497 19.9016 0.565918 19.6456 0.565918C19.3897 0.565918 19.1364 0.617497 18.9008 0.717573C18.6653 0.81765 18.4523 0.964172 18.2747 1.14839C18.097 1.33261 17.9583 1.55074 17.8668 1.78976C17.7753 2.02878 17.733 2.28378 17.7422 2.53954V10.1996C17.7031 10.6099 17.7892 11.0225 17.9892 11.3829C18.2301 11.8343 18.6461 12.1677 19.139 12.3047C19.3832 12.373 19.6388 12.3905 19.8901 12.3561C20.1413 12.3217 20.3828 12.2361 20.5997 12.1047M14.8173 16.5509C14.8238 16.4259 14.8713 16.3009 14.9533 16.2109L15.7131 15.4211C15.8031 15.3374 15.9194 15.2875 16.0421 15.2801H16.0706C16.193 15.2874 16.309 15.3372 16.3985 15.4211L17.1583 16.2109C17.2406 16.306 17.2885 16.4259 17.2943 16.5514V16.5814C17.2883 16.7072 17.2405 16.8273 17.1583 16.9228L16.3985 17.7127C16.3094 17.7972 16.1932 17.8475 16.0706 17.8546H16.0421C15.9191 17.8476 15.8021 17.7971 15.7131 17.7127L14.9533 16.9228C14.8712 16.8273 14.8233 16.7072 14.8173 16.5814V16.5509ZM12.5157 16.2259V16.9078C12.5242 17.0792 12.5896 17.2428 12.7017 17.3727L15.2812 20.0507C15.4029 20.1658 15.5614 20.2342 15.7286 20.2437H16.3845C16.5517 20.2342 16.7102 20.1658 16.8319 20.0507L19.4114 17.3727C19.5235 17.2428 19.5889 17.0792 19.5974 16.9078V16.2259C19.5889 16.0546 19.5235 15.8909 19.4114 15.761L16.8319 13.083C16.7102 12.9679 16.5517 12.8996 16.3845 12.8901H15.7286C15.5614 12.8996 15.4029 12.9679 15.2812 13.083L12.7017 15.766C12.59 15.8961 12.5246 16.0597 12.5157 16.2309M1.6088 14.3763L5.2906 16.5844L1.6088 18.7905C1.16629 19.0661 0.846824 19.5015 0.716618 20.0063C0.586411 20.5111 0.655454 21.0467 0.909434 21.5019C1.02887 21.7253 1.19233 21.9221 1.38994 22.0806C1.58756 22.239 1.81523 22.3558 2.05922 22.4238C2.55212 22.5607 3.08002 22.4903 3.51994 22.2278L10.0227 18.3285C10.6226 17.9476 10.9725 17.2897 10.9725 16.5829C10.9725 16.2357 10.8855 15.8942 10.7196 15.5892C10.5537 15.2843 10.3141 15.0258 10.0227 14.8372L3.51994 10.9379C3.30218 10.8087 3.06072 10.7244 2.80982 10.6901C2.55893 10.6557 2.3037 10.672 2.05922 10.738C1.56631 10.8705 1.15039 11.2079 0.909434 11.6598C0.381034 12.6096 0.689475 13.7984 1.6093 14.3703M21.1031 16.5909C21.0973 16.9386 21.1824 17.2818 21.3498 17.5867C21.5173 17.8915 21.7613 18.1474 22.0579 18.329L28.5567 22.2283C28.9966 22.4903 29.5235 22.5612 30.0164 22.4243C30.5093 22.2873 30.9247 21.9544 31.1662 21.5029C31.4214 21.0479 31.491 20.5119 31.3606 20.0067C31.2302 19.5015 30.9099 19.0662 30.4663 18.7915L26.789 16.5849L30.4708 14.3768C31.3906 13.8054 31.6991 12.6121 31.1707 11.6663C31.0515 11.4428 30.8881 11.2458 30.6905 11.0873C30.4928 10.9289 30.265 10.8122 30.0209 10.7445C29.5275 10.6075 29.0001 10.6775 28.5612 10.9444L22.0624 14.8437C21.7636 15.0267 21.5181 15.2849 21.3506 15.5926C21.183 15.9003 21.0992 16.2466 21.1076 16.5969M12.7817 20.8191C12.3329 20.7325 11.8679 20.8151 11.4764 21.051L4.97366 24.9503C4.05384 25.5217 3.7459 26.715 4.27379 27.6608C4.51525 28.1122 4.93067 28.4456 5.42358 28.5821C5.66766 28.6498 5.92294 28.6674 6.174 28.6337C6.42506 28.6 6.66669 28.5158 6.8843 28.3861L10.5771 26.1716V30.5857C10.5669 30.842 10.6086 31.0977 10.6997 31.3375C10.7907 31.5772 10.9293 31.7962 11.107 31.9811C11.2847 32.166 11.498 32.3131 11.7339 32.4136C11.9699 32.5141 12.2238 32.5659 12.4802 32.5659C12.7367 32.5659 12.9906 32.5141 13.2265 32.4136C13.4625 32.3131 13.6757 32.166 13.8535 31.9811C14.0312 31.7962 14.1697 31.5772 14.2608 31.3375C14.3519 31.0977 14.3935 30.842 14.3834 30.5857V22.7647C14.3901 22.3026 14.2329 21.853 13.9395 21.4958C13.6462 21.1386 13.2358 20.8969 12.7812 20.8136M27.1085 24.9508L20.6057 21.0515C20.3881 20.9219 20.1465 20.8377 19.8954 20.804C19.6443 20.7703 19.3891 20.7878 19.145 20.8556C18.9009 20.9232 18.6731 21.0398 18.4755 21.1982C18.2779 21.3566 18.1144 21.5534 17.9952 21.7769C17.7952 22.1378 17.7091 22.5509 17.7482 22.9617V30.5852C17.7381 30.8415 17.7797 31.0972 17.8708 31.337C17.9619 31.5767 18.1004 31.7957 18.2781 31.9806C18.4559 32.1655 18.6691 32.3126 18.9051 32.4131C19.1411 32.5136 19.3949 32.5654 19.6514 32.5654C19.9079 32.5654 20.1617 32.5136 20.3977 32.4131C20.6336 32.3126 20.8469 32.1655 21.0246 31.9806C21.2023 31.7957 21.3409 31.5767 21.4319 31.337C21.523 31.0972 21.5647 30.8415 21.5545 30.5852V26.204L25.1973 28.3886C25.4151 28.5179 25.6565 28.6022 25.9074 28.6365C26.1583 28.6709 26.4136 28.6546 26.658 28.5886C27.1509 28.4561 27.5669 28.1187 27.8078 27.6668C28.3362 26.7169 28.0278 25.5272 27.108 24.9563" fill="#111827"/>
</g>
<defs>
<clipPath id="clip0_303_78">
<rect width="32" height="32" fill="white" transform="translate(0.0400391 0.565918)"/>
</clipPath>
</defs>
</svg>
