<svg width="33" height="33" viewBox="0 0 33 33" fill="none" xmlns="http://www.w3.org/2000/svg">
<g clip-path="url(#clip0_303_78)">
<path fill-rule="evenodd" clip-rule="evenodd" d="M12.5551 0.566899C13.1074 0.565325 13.5564 1.01176 13.558 1.56404L13.5845 10.8602C13.5855 11.2228 13.3902 11.5575 13.0741 11.735C12.758 11.9125 12.3705 11.9051 12.0615 11.7155L4.2964 6.95121C3.82566 6.66239 3.67818 6.04664 3.96701 5.5759C4.25583 5.10515 4.87158 4.95768 5.34232 5.2465L11.5794 9.0732L11.558 1.56974C11.5564 1.01746 12.0028 0.568472 12.5551 0.566899ZM28.1532 5.54836C28.4307 6.02586 28.2686 6.63791 27.7911 6.91542L19.7536 11.5865C19.4401 11.7686 19.0526 11.7669 18.7408 11.5819C18.429 11.3968 18.2418 11.0576 18.2515 10.6951L18.4949 1.58826C18.5096 1.03617 18.9691 0.600577 19.5212 0.615333C20.0733 0.630089 20.5089 1.08961 20.4942 1.64169L20.2987 8.95647L26.7861 5.18622C27.2637 4.90872 27.8757 5.07085 28.1532 5.54836ZM18.5222 31.5679C18.5238 32.1201 18.9728 32.5666 19.5251 32.565C20.0773 32.5634 20.5238 32.1144 20.5222 31.5622L20.5008 24.0587L26.7378 27.8854C27.2086 28.1742 27.8243 28.0268 28.1132 27.556C28.402 27.0853 28.2545 26.4695 27.7838 26.1807L20.0187 21.4165C19.7096 21.2269 19.3222 21.2194 19.0061 21.3969C18.69 21.5744 18.4947 21.9091 18.4957 22.2717L18.5222 31.5679ZM3.9272 27.5835C3.6497 27.106 3.81183 26.494 4.28933 26.2165L12.3268 21.5454C12.6403 21.3633 13.0278 21.365 13.3396 21.55C13.6514 21.7351 13.8386 22.0743 13.8289 22.4368L13.5855 31.5436C13.5708 32.0957 13.1113 32.5313 12.5592 32.5166C12.0071 32.5018 11.5715 32.0423 11.5862 31.4902L11.7818 24.1754L5.29426 27.9457C4.81676 28.2232 4.2047 28.0611 3.9272 27.5835ZM1.80703 11.2146C1.32795 10.9398 0.716827 11.1054 0.442049 11.5845C0.167271 12.0636 0.332888 12.6747 0.811966 12.9495L7.32084 16.6827L0.888306 20.1708C0.402806 20.434 0.222649 21.041 0.485914 21.5265C0.749179 22.012 1.35617 22.1922 1.84167 21.9289L9.85017 17.5863C10.1689 17.4134 10.3691 17.0816 10.3734 16.7191C10.3777 16.3566 10.1855 16.0201 9.87102 15.8397L1.80703 11.2146ZM31.6382 11.5845C31.3635 11.1054 30.7523 10.9398 30.2733 11.2146L22.2093 15.8397C21.8948 16.0201 21.7025 16.3566 21.7069 16.7191C21.7112 17.0816 21.9114 17.4134 22.2301 17.5863L30.2386 21.9289C30.7241 22.1922 31.3311 22.012 31.5944 21.5265C31.8576 21.041 31.6775 20.434 31.192 20.1708L24.7594 16.6827L31.2683 12.9495C31.7474 12.6747 31.913 12.0636 31.6382 11.5845ZM12.3095 15.9347V17.3489L15.2018 20.2412H16.616L19.5083 17.3489V15.9347L16.616 13.0424H15.2018L12.3095 15.9347ZM15.9089 18.1199L14.4308 16.6418L15.9089 15.1637L17.387 16.6418L15.9089 18.1199Z" fill="#111827"/>
</g>
<defs>
<clipPath id="clip0_303_78">
<rect width="32" height="32" fill="white" transform="translate(0.0400391 0.565918)"/>
</clipPath>
</defs>
</svg>
