<svg width="32" height="33" viewBox="0 0 32 33" fill="none" xmlns="http://www.w3.org/2000/svg">
<path fill-rule="evenodd" clip-rule="evenodd" d="M11.2114 0.828049C11.6019 0.437525 12.2351 0.437525 12.6256 0.828049L15.9998 4.20226L19.3741 0.828049C19.7646 0.437525 20.3977 0.437525 20.7883 0.828049C21.1788 1.21857 21.1788 1.85174 20.7883 2.24226L16.9994 6.03109V14.7675L24.5621 10.3992L25.9514 5.22107C26.0945 4.68765 26.6429 4.37125 27.1763 4.51436C27.7098 4.65747 28.0262 5.20591 27.883 5.73933L26.6457 10.3513L31.2577 11.5886C31.7911 11.7318 32.1075 12.2802 31.9644 12.8136C31.8213 13.347 31.2728 13.6634 30.7394 13.5203L25.562 12.1313L17.9985 16.5001L25.5617 20.8687L30.7394 19.4796C31.2728 19.3365 31.8213 19.6529 31.9644 20.1863C32.1075 20.7197 31.7911 21.2682 31.2577 21.4113L26.6457 22.6486L27.883 27.2606C28.0262 27.794 27.7098 28.3424 27.1763 28.4855C26.6429 28.6287 26.0945 28.3123 25.9514 27.7788L24.5622 22.6011L16.9994 18.2327V26.9688L20.7883 30.7577C21.1788 31.1482 21.1788 31.7814 20.7883 32.1719C20.3977 32.5624 19.7646 32.5624 19.3741 32.1719L15.9998 28.7977L12.6256 32.1719C12.2351 32.5624 11.6019 32.5624 11.2114 32.1719C10.8209 31.7814 10.8209 31.1482 11.2114 30.7577L14.9994 26.9697V18.2324L7.43779 22.6001L6.04839 27.7788C5.90527 28.3123 5.35683 28.6287 4.82341 28.4855C4.28999 28.3424 3.97359 27.794 4.1167 27.2606L5.35405 22.6486L0.742096 21.4113C0.208676 21.2682 -0.107731 20.7197 0.0353822 20.1863C0.178495 19.6529 0.726933 19.3365 1.26035 19.4796L6.43714 20.8685L13.9999 16.5001L6.43679 12.1315L1.26035 13.5203C0.726933 13.6634 0.178495 13.347 0.0353821 12.8136C-0.107731 12.2802 0.208676 11.7318 0.742096 11.5886L5.35405 10.3513L4.1167 5.73933C3.97359 5.20591 4.28999 4.65747 4.82341 4.51436C5.35683 4.37125 5.90527 4.68765 6.04839 5.22107L7.43788 10.4001L14.9994 14.7678V6.03028L11.2114 2.24226C10.8209 1.85174 10.8209 1.21857 11.2114 0.828049Z" fill="#111827"/>
</svg>
