<svg width="33" height="33" viewBox="0 0 33 33" fill="none" xmlns="http://www.w3.org/2000/svg">
<path fill-rule="evenodd" clip-rule="evenodd" d="M12.9875 4.10307C13.378 3.71255 14.0112 3.71255 14.4017 4.10307L16.9599 6.66128L19.5181 4.10307C19.9086 3.71255 20.5418 3.71255 20.9323 4.10307C21.3228 4.4936 21.3228 5.12676 20.9323 5.51729L17.9597 8.48988V15.0504L23.6388 11.7701L24.7288 7.70742C24.8719 7.174 25.4203 6.8576 25.9537 7.00071C26.4871 7.14382 26.8036 7.69226 26.6604 8.22568L25.7223 11.7224L29.219 12.6606C29.7525 12.8037 30.0689 13.3521 29.9258 13.8855C29.7826 14.419 29.2342 14.7354 28.7008 14.5923L24.6384 13.5024L18.9589 16.7829L24.6384 20.0635L28.7008 18.9736C29.2342 18.8305 29.7826 19.1469 29.9258 19.6803C30.0689 20.2137 29.7525 20.7622 29.219 20.9053L25.7223 21.8434L26.6604 25.3402C26.8036 25.8736 26.4871 26.4221 25.9537 26.5652C25.4203 26.7083 24.8719 26.3919 24.7288 25.8585L23.6388 21.7958L17.9597 18.5155V25.0761L20.9323 28.0487C21.3228 28.4392 21.3228 29.0724 20.9323 29.4629C20.5418 29.8534 19.9086 29.8534 19.5181 29.4629L16.9599 26.9047L14.4017 29.4629C14.0112 29.8534 13.378 29.8534 12.9875 29.4629C12.597 29.0724 12.597 28.4392 12.9875 28.0487L15.9597 25.0764V18.5153L10.2809 21.7955L9.19087 25.8585C9.04776 26.3919 8.49932 26.7083 7.9659 26.5652C7.43248 26.4221 7.11607 25.8736 7.25919 25.3402L8.19734 21.8434L4.70059 20.9053C4.16717 20.7622 3.85077 20.2137 3.99388 19.6803C4.13699 19.1469 4.68543 18.8305 5.21885 18.9736L9.2809 20.0634L14.9602 16.7829L9.28088 13.5024L5.21885 14.5923C4.68543 14.7354 4.13699 14.419 3.99388 13.8855C3.85077 13.3521 4.16717 12.8037 4.70059 12.6606L8.19734 11.7224L7.25919 8.22568C7.11607 7.69226 7.43248 7.14382 7.9659 7.00071C8.49932 6.8576 9.04776 7.174 9.19087 7.70742L10.281 11.7704L15.9597 15.0506V8.48953L12.9875 5.51729C12.597 5.12676 12.597 4.4936 12.9875 4.10307Z" fill="#1C1B1F"/>
</svg>
