<svg width="32" height="32" viewBox="0 0 32 32" fill="none" xmlns="http://www.w3.org/2000/svg">
<path fill-rule="evenodd" clip-rule="evenodd" d="M11.5441 2.72482C8.72763 3.66983 6.31091 5.48606 4.61414 7.85334L5.86391 11.6909L10.5711 13.214L14.9067 10.0769V5.15519L11.5441 2.72482ZM2.0011 15.9411C2.00102 15.9606 2.00098 15.9802 2.00098 15.9998C2.00098 19.05 2.9765 21.8724 4.63258 24.172L8.69938 24.1741L11.6057 20.1904L9.94982 15.1151L5.24372 13.5923L2.0011 15.9411ZM11.6111 29.2971C12.9916 29.7525 14.467 29.9989 16.0001 29.9989C17.4558 29.9989 18.8597 29.7767 20.1796 29.3643L21.4929 25.3461L18.5864 21.3622H13.2265L10.3198 25.3464L11.6111 29.2971ZM27.3676 24.1719C29.0096 21.8918 29.9826 19.0978 29.9989 16.0774L26.6927 13.6824L26.6774 13.6875L21.814 15.2612L20.2063 20.1891L23.1136 24.1741L27.3676 24.1719ZM27.2564 7.67551C25.5408 5.35947 23.1274 3.59147 20.327 2.68223L16.9067 5.15423V10.0784L21.3653 13.3043L25.9012 11.8366L27.2564 7.67551ZM16.0001 0.000732422C7.16401 0.000732422 0.000976562 7.16377 0.000976562 15.9998C0.000976562 24.8359 7.16401 31.9989 16.0001 31.9989C24.8361 31.9989 31.9991 24.8359 31.9991 15.9998C31.9991 7.16377 24.8361 0.000732422 16.0001 0.000732422Z" fill="#111827"/>
</svg>
