<svg width="32" height="33" viewBox="0 0 32 33" fill="none" xmlns="http://www.w3.org/2000/svg">
<path fill-rule="evenodd" clip-rule="evenodd" d="M11.5441 3.22482C8.72763 4.16983 6.31091 5.98606 4.61414 8.35334L5.86391 12.1909L10.5711 13.714L14.9067 10.5769V5.65519L11.5441 3.22482ZM2.0011 16.4411C2.00102 16.4606 2.00098 16.4802 2.00098 16.4998C2.00098 19.55 2.9765 22.3724 4.63258 24.672L8.69938 24.6741L11.6057 20.6904L9.94982 15.6151L5.24372 14.0923L2.0011 16.4411ZM11.6111 29.7971C12.9916 30.2525 14.467 30.4989 16.0001 30.4989C17.4558 30.4989 18.8597 30.2767 20.1796 29.8643L21.4929 25.8461L18.5864 21.8622H13.2265L10.3198 25.8464L11.6111 29.7971ZM27.3676 24.6719C29.0096 22.3918 29.9826 19.5978 29.9989 16.5774L26.6927 14.1824L26.6774 14.1875L21.814 15.7612L20.2063 20.6891L23.1136 24.6741L27.3676 24.6719ZM27.2564 8.17551C25.5408 5.85947 23.1274 4.09147 20.327 3.18223L16.9067 5.65423V10.5784L21.3653 13.8043L25.9012 12.3366L27.2564 8.17551ZM16.0001 0.500732C7.16401 0.500732 0.000976562 7.66377 0.000976562 16.4998C0.000976562 25.3359 7.16401 32.4989 16.0001 32.4989C24.8361 32.4989 31.9991 25.3359 31.9991 16.4998C31.9991 7.66377 24.8361 0.500732 16.0001 0.500732Z" fill="#111827"/>
</svg>
