<svg width="33" height="33" viewBox="0 0 33 33" fill="none" xmlns="http://www.w3.org/2000/svg">
<path fill-rule="evenodd" clip-rule="evenodd" d="M7.729 7.46112C7.17672 7.46112 6.729 7.90884 6.729 8.46112C6.729 9.01341 7.17672 9.46112 7.729 9.46112H22.5034C23.0557 9.46112 23.5034 9.01341 23.5034 8.46112C23.5034 7.90884 23.0557 7.46112 22.5034 7.46112H7.729ZM7.729 14.4138C7.17672 14.4138 6.729 14.8615 6.729 15.4138C6.729 15.9661 7.17672 16.4138 7.729 16.4138H15.5507C16.103 16.4138 16.5507 15.9661 16.5507 15.4138C16.5507 14.8615 16.103 14.4138 15.5507 14.4138H7.729ZM6.729 22.3665C6.729 21.8142 7.17672 21.3665 7.729 21.3665H13.8126C14.3649 21.3665 14.8126 21.8142 14.8126 22.3665C14.8126 22.9188 14.3649 23.3665 13.8126 23.3665H7.729C7.17672 23.3665 6.729 22.9188 6.729 22.3665ZM22.5035 12.6757C23.0558 12.6757 23.5035 13.1234 23.5035 13.6757V21.6906L25.4837 19.7104C25.8742 19.3199 26.5074 19.3199 26.8979 19.7104C27.2885 20.101 27.2885 20.7341 26.8979 21.1246L23.2107 24.8119C23.1026 24.92 22.9759 24.9982 22.8409 25.0464C22.7526 25.078 22.6586 25.0976 22.5609 25.1031C22.5271 25.1051 22.4933 25.1053 22.4596 25.1038C22.3336 25.0984 22.2136 25.0696 22.104 25.0217C21.9857 24.9701 21.8794 24.8964 21.7903 24.8056L18.1093 21.1246C17.7187 20.7341 17.7187 20.101 18.1093 19.7104C18.4998 19.3199 19.1329 19.3199 19.5235 19.7104L21.5035 21.6905V13.6757C21.5035 13.1234 21.9512 12.6757 22.5035 12.6757Z" fill="#1C1B1F"/>
</svg>
