<svg width="32" height="32" viewBox="0 0 32 32" fill="none" xmlns="http://www.w3.org/2000/svg">
<path fill-rule="evenodd" clip-rule="evenodd" d="M1.00195 2.29187C0.449668 2.29187 0.00195312 2.73959 0.00195312 3.29187C0.00195312 3.84415 0.449668 4.29187 1.00195 4.29187H31.002C31.5542 4.29187 32.002 3.84415 32.002 3.29187C32.002 2.73959 31.5542 2.29187 31.002 2.29187H1.00195ZM1.00195 13.588C0.449668 13.588 0.00195312 14.0357 0.00195312 14.588C0.00195312 15.1402 0.449668 15.588 1.00195 15.588H13.7099C14.2622 15.588 14.7099 15.1402 14.7099 14.588C14.7099 14.0357 14.2622 13.588 13.7099 13.588H1.00195ZM0.00195312 25.8841C0.00195312 25.3318 0.449668 24.8841 1.00195 24.8841H10.8861C11.4384 24.8841 11.8861 25.3318 11.8861 25.8841C11.8861 26.4364 11.4384 26.8841 10.8861 26.8841H1.00195C0.449668 26.8841 0.00195312 26.4364 0.00195312 25.8841ZM25.007 10.7639C25.5592 10.7639 26.007 11.2116 26.007 11.7639V26.2939L30.2906 22.0103C30.6811 21.6198 31.3143 21.6198 31.7048 22.0103C32.0953 22.4009 32.0953 23.034 31.7048 23.4245L25.7141 29.4152C25.619 29.5103 25.5095 29.5823 25.3926 29.6311C25.2739 29.6807 25.1436 29.7081 25.007 29.7081C24.8584 29.7081 24.7174 29.6757 24.5907 29.6176C24.4793 29.5666 24.3789 29.4956 24.294 29.4093L18.3092 23.4245C17.9187 23.034 17.9187 22.4009 18.3092 22.0103C18.6997 21.6198 19.3329 21.6198 19.7234 22.0103L24.007 26.2939V11.7639C24.007 11.2116 24.4547 10.7639 25.007 10.7639Z" fill="#111827"/>
</svg>
