<svg width="32" height="32" viewBox="0 0 32 32" fill="none" xmlns="http://www.w3.org/2000/svg">
<path fill-rule="evenodd" clip-rule="evenodd" d="M17.9695 10.249C18.3601 10.6395 18.9932 10.6395 19.3838 10.249L23.8372 5.79554L23.8372 20.8062C23.8372 21.3585 24.285 21.8062 24.8372 21.8062C25.3895 21.8062 25.8372 21.3585 25.8372 20.8062L25.8372 5.79546L30.2908 10.249C30.6813 10.6395 31.3145 10.6395 31.705 10.249C32.0955 9.8585 32.0955 9.22534 31.705 8.83481L25.5444 2.67418C25.4258 2.5556 25.2849 2.47302 25.1351 2.42646C25.0795 2.40912 25.0217 2.39651 24.9624 2.3891C24.8842 2.37929 24.8051 2.37872 24.7268 2.38738C24.5088 2.41147 24.2973 2.50707 24.1302 2.67418L17.9695 8.83481C17.579 9.22534 17.579 9.8585 17.9695 10.249ZM1.00244 16.402C0.450157 16.402 0.00244141 16.8497 0.00244141 17.402C0.00244141 17.9543 0.450157 18.402 1.00244 18.402H13.6211C14.1734 18.402 14.6211 17.9543 14.6211 17.402C14.6211 16.8497 14.1734 16.402 13.6211 16.402H1.00244ZM0.00244141 6.18535C0.00244141 5.63307 0.450157 5.18535 1.00244 5.18535H10.8169C11.3692 5.18535 11.8169 5.63307 11.8169 6.18535C11.8169 6.73764 11.3692 7.18535 10.8169 7.18535H1.00244C0.450157 7.18535 0.00244141 6.73764 0.00244141 6.18535ZM1.00244 27.6187C0.450157 27.6187 0.00244141 28.0665 0.00244141 28.6187C0.00244141 29.171 0.450157 29.6187 1.00244 29.6187H31.0024C31.5547 29.6187 32.0024 29.171 32.0024 28.6187C32.0024 28.0665 31.5547 27.6187 31.0024 27.6187H1.00244Z" fill="#111827"/>
</svg>
