<svg width="33" height="33" viewBox="0 0 33 33" fill="none" xmlns="http://www.w3.org/2000/svg">
<path d="M16.6953 4.45669C16.8576 4.34859 17.0621 4.34859 17.2244 4.45669C18.9471 5.60359 28.4983 12.2087 28.4983 17.6676C28.4983 18.8091 28.1726 19.9268 27.5596 20.8897C26.9466 21.8526 26.0716 22.6207 25.0374 23.1038C24.0032 23.5868 22.8527 23.7649 21.7208 23.617C20.5889 23.4691 19.5228 23.0014 18.6474 22.2689L20.4328 27.6248C20.5407 27.9486 20.2997 28.283 19.9584 28.283H13.9613C13.62 28.283 13.379 27.9486 13.4869 27.6248L15.2723 22.2689C14.3969 23.0014 13.3308 23.4691 12.1989 23.617C11.067 23.7649 9.91649 23.5868 8.88227 23.1038C7.84805 22.6207 6.97309 21.8526 6.36007 20.8897C5.74705 19.9268 5.42142 18.8091 5.42139 17.6676C5.42139 12.2087 14.9726 5.60359 16.6953 4.45669Z" fill="#1C1B1F"/>
</svg>
