<svg width="32" height="33" viewBox="0 0 32 33" fill="none" xmlns="http://www.w3.org/2000/svg">
<path d="M15.7416 0.668877C15.9043 0.561241 16.0954 0.561241 16.2581 0.668878C18.2719 2.00125 31.3845 10.9605 31.3845 18.3462C31.3844 19.8681 30.9502 21.3585 30.1329 22.6424C29.3155 23.9262 28.1489 24.9503 26.77 25.5944C25.391 26.2385 23.8569 26.4759 22.3478 26.2787C20.8386 26.0816 19.4171 25.458 18.2499 24.4812L20.7035 31.8419C20.8115 32.1656 20.5705 32.5 20.2292 32.5H11.7705C11.4292 32.5 11.1882 32.1656 11.2962 31.8419L13.7498 24.4812C12.5826 25.458 11.1611 26.0816 9.65192 26.2787C8.14278 26.4759 6.6087 26.2385 5.22975 25.5944C3.85079 24.9503 2.68417 23.9262 1.86681 22.6424C1.04945 21.3585 0.615276 19.8681 0.615234 18.3462C0.615234 10.9605 13.7279 2.00125 15.7416 0.668877Z" fill="#111827"/>
</svg>
