<svg width="32" height="32" viewBox="0 0 32 32" fill="none" xmlns="http://www.w3.org/2000/svg">
<path d="M15.7416 0.168877C15.9043 0.0612407 16.0954 0.0612415 16.2581 0.168878C18.2719 1.50125 31.3845 10.4605 31.3845 17.8462C31.3844 19.3681 30.9502 20.8585 30.1329 22.1424C29.3155 23.4262 28.1489 24.4503 26.77 25.0944C25.391 25.7385 23.8569 25.9759 22.3478 25.7787C20.8386 25.5816 19.4171 24.958 18.2499 23.9812L20.7035 31.3419C20.8115 31.6656 20.5705 32 20.2292 32H11.7705C11.4292 32 11.1882 31.6656 11.2962 31.3419L13.7498 23.9812C12.5826 24.958 11.1611 25.5816 9.65192 25.7787C8.14278 25.9759 6.6087 25.7385 5.22975 25.0944C3.85079 24.4503 2.68417 23.4262 1.86681 22.1424C1.04945 20.8585 0.615276 19.3681 0.615234 17.8462C0.615234 10.4605 13.7279 1.50125 15.7416 0.168877Z" fill="#111827"/>
</svg>
