<svg width="33" height="33" viewBox="0 0 33 33" fill="none" xmlns="http://www.w3.org/2000/svg">
<path fill-rule="evenodd" clip-rule="evenodd" d="M21.8488 3.78296C22.4011 3.78296 22.8488 4.23067 22.8488 4.78296V6.44971H24.5156C25.0679 6.44971 25.5156 6.89742 25.5156 7.44971C25.5156 8.00199 25.0679 8.44971 24.5156 8.44971H22.8488V10.1163C22.8488 10.6686 22.4011 11.1163 21.8488 11.1163C21.2965 11.1163 20.8488 10.6686 20.8488 10.1163V8.44971H19.1823C18.63 8.44971 18.1823 8.00199 18.1823 7.44971C18.1823 6.89742 18.63 6.44971 19.1823 6.44971H20.8488V4.78296C20.8488 4.23067 21.2965 3.78296 21.8488 3.78296ZM28.1823 11.0051C28.1823 10.4528 27.7346 10.0051 27.1823 10.0051C26.63 10.0051 26.1823 10.4528 26.1823 11.0051V11.783H25.4044C24.8522 11.783 24.4044 12.2307 24.4044 12.783C24.4044 13.3352 24.8522 13.783 25.4044 13.783H26.1823V14.5607C26.1823 15.113 26.63 15.5607 27.1823 15.5607C27.7346 15.5607 28.1823 15.113 28.1823 14.5607V13.783H28.96C29.5123 13.783 29.96 13.3352 29.96 12.783C29.96 12.2307 29.5123 11.783 28.96 11.783H28.1823V11.0051ZM15.2068 10.4945C15.0457 10.0592 14.43 10.0592 14.269 10.4945L12.1768 16.1486C12.1261 16.2854 12.0182 16.3933 11.8814 16.444L6.22736 18.5361C5.79205 18.6972 5.79205 19.3129 6.22736 19.474L11.8814 21.5662C12.0182 21.6168 12.1261 21.7247 12.1768 21.8616L14.269 27.5156C14.43 27.9509 15.0457 27.9509 15.2068 27.5156L17.299 21.8616C17.3496 21.7247 17.4575 21.6168 17.5944 21.5662L23.2484 19.474C23.6837 19.3129 23.6837 18.6972 23.2484 18.5361L17.5944 16.444C17.4575 16.3933 17.3496 16.2854 17.299 16.1486L15.2068 10.4945Z" fill="#1C1B1F"/>
</svg>
