<svg width="32" height="33" viewBox="0 0 32 33" fill="none" xmlns="http://www.w3.org/2000/svg">
<path fill-rule="evenodd" clip-rule="evenodd" d="M21.5358 0.5C22.0881 0.5 22.5358 0.947715 22.5358 1.5V4.04904H25.0853C25.6375 4.04904 26.0853 4.49676 26.0853 5.04904C26.0853 5.60133 25.6375 6.04904 25.0853 6.04904H22.5358V8.59797C22.5358 9.15025 22.0881 9.59797 21.5358 9.59797C20.9836 9.59797 20.5358 9.15025 20.5358 8.59797V6.04904H17.9873C17.435 6.04904 16.9873 5.60133 16.9873 5.04904C16.9873 4.49676 17.435 4.04904 17.9873 4.04904H20.5358V1.5C20.5358 0.947715 20.9836 0.5 21.5358 0.5ZM29.6344 9.78094C29.6344 9.22865 29.1867 8.78094 28.6344 8.78094C28.0821 8.78094 27.6344 9.22865 27.6344 9.78094V11.1469H26.2682C25.7159 11.1469 25.2682 11.5946 25.2682 12.1469C25.2682 12.6992 25.7159 13.1469 26.2682 13.1469H27.6344V14.5129C27.6344 15.0652 28.0821 15.5129 28.6344 15.5129C29.1867 15.5129 29.6344 15.0652 29.6344 14.5129V13.1469H31.0002C31.5525 13.1469 32.0002 12.6992 32.0002 12.1469C32.0002 11.5946 31.5525 11.1469 31.0002 11.1469H29.6344V9.78094ZM12.5411 8.682C12.38 8.24669 11.7643 8.24669 11.6033 8.682L8.63729 16.6974C8.58665 16.8343 8.47874 16.9422 8.34188 16.9928L0.326481 19.9588C-0.108828 20.1199 -0.108827 20.7355 0.326482 20.8966L8.34188 23.8626C8.47874 23.9132 8.58665 24.0211 8.63729 24.158L11.6033 32.1734C11.7643 32.6087 12.38 32.6087 12.5411 32.1734L15.5071 24.158C15.5577 24.0211 15.6656 23.9132 15.8025 23.8626L23.8179 20.8966C24.2532 20.7355 24.2532 20.1199 23.8179 19.9588L15.8025 16.9928C15.6656 16.9422 15.5577 16.8343 15.5071 16.6974L12.5411 8.682Z" fill="#111827"/>
</svg>
