<svg width="32" height="33" viewBox="0 0 32 33" fill="none" xmlns="http://www.w3.org/2000/svg">
<path fill-rule="evenodd" clip-rule="evenodd" d="M1.91126 1.55206C2.31992 1.18055 2.95237 1.21067 3.32387 1.61933L29.1569 30.0356C29.5284 30.4443 29.4983 31.0767 29.0896 31.4482C28.6809 31.8197 28.0485 31.7896 27.677 31.381L18.2608 21.0232V29.2439C18.2608 29.6572 17.7877 29.892 17.4585 29.6421L8.8391 23.099L8.8391 10.9475H9.1011L1.84399 2.96467C1.47249 2.55601 1.5026 1.92357 1.91126 1.55206ZM28.6541 8.38342C28.2636 7.9929 27.6304 7.9929 27.2399 8.38342C26.8493 8.77395 26.8493 9.40711 27.2399 9.79764C28.115 10.6728 28.8092 11.7117 29.2828 12.8551C29.7564 13.9985 30.0002 15.224 30.0002 16.4616C30.0002 17.6992 29.7564 18.9247 29.2828 20.0681C28.8092 21.2115 28.115 22.2505 27.2399 23.1256C26.8493 23.5161 26.8493 24.1493 27.2399 24.5398C27.6304 24.9303 28.2636 24.9303 28.6541 24.5398C29.7149 23.4789 30.5564 22.2195 31.1306 20.8335C31.7047 19.4474 32.0002 17.9619 32.0002 16.4616C32.0002 14.9613 31.7047 13.4758 31.1306 12.0897C30.5564 10.7037 29.7149 9.44427 28.6541 8.38342ZM24.5592 12.4786C24.1687 12.088 23.5355 12.088 23.145 12.4786C22.7545 12.8691 22.7545 13.5023 23.145 13.8928C23.4823 14.2301 23.7499 14.6306 23.9325 15.0714C24.1151 15.5122 24.2091 15.9846 24.2091 16.4617C24.2091 16.9388 24.1151 17.4112 23.9325 17.852C23.7499 18.2928 23.4823 18.6933 23.145 19.0306C22.7545 19.4212 22.7545 20.0543 23.145 20.4448C23.5355 20.8354 24.1687 20.8354 24.5592 20.4448C25.0823 19.9218 25.4972 19.3008 25.7803 18.6174C26.0634 17.9339 26.2091 17.2014 26.2091 16.4617C26.2091 15.722 26.0634 14.9895 25.7803 14.306C25.4972 13.6226 25.0823 13.0016 24.5592 12.4786ZM17.4474 3.40173L13.155 6.84823L18.2605 12.6597V3.79161C18.2605 3.37194 17.7747 3.13898 17.4474 3.40173ZM6.8391 10.9475H5.77672C2.58659 10.9475 0.000488281 13.5336 0.000488281 16.7237C0.000488281 19.9138 2.58659 22.4999 5.77671 22.4999H6.8391L6.8391 10.9475Z" fill="#111827"/>
</svg>
