<svg width="32" height="33" viewBox="0 0 32 33" fill="none" xmlns="http://www.w3.org/2000/svg">
<path fill-rule="evenodd" clip-rule="evenodd" d="M18.2611 29.2264V3.77365C18.2611 3.35398 17.7753 3.12102 17.448 3.38377L8.83915 10.2961L8.83915 23.0814L17.4588 29.6246C17.788 29.8745 18.2611 29.6397 18.2611 29.2264ZM6.83915 22.4823L6.83915 10.9297H5.7768C2.58663 10.9297 0.000488281 13.5159 0.000488281 16.706C0.000488281 19.8962 2.58663 22.4823 5.7768 22.4823H6.83915ZM31.7068 12.5455C32.0974 12.936 32.0974 13.5691 31.7068 13.9597L29.1848 16.4817L31.7068 19.0038C32.0974 19.3943 32.0974 20.0275 31.7068 20.418C31.3163 20.8085 30.6832 20.8085 30.2926 20.418L27.7706 17.896L25.2485 20.418C24.858 20.8085 24.2248 20.8085 23.8343 20.418C23.4438 20.0275 23.4438 19.3943 23.8343 19.0038L26.3564 16.4817L23.8343 13.9597C23.4438 13.5691 23.4438 12.936 23.8343 12.5455C24.2248 12.1549 24.858 12.1549 25.2485 12.5455L27.7706 15.0675L30.2926 12.5455C30.6832 12.1549 31.3163 12.1549 31.7068 12.5455Z" fill="#111827"/>
</svg>
