<svg width="33" height="33" viewBox="0 0 33 33" fill="none" xmlns="http://www.w3.org/2000/svg">
<path fill-rule="evenodd" clip-rule="evenodd" d="M19.0972 26.4218V7.17941C19.0972 6.75974 18.6114 6.52678 18.2841 6.78953L12.0288 11.8121L12.0288 22.0634L18.2948 26.82C18.6241 27.07 19.0972 26.8351 19.0972 26.4218ZM10.0288 21.4281L10.0288 12.4841H9.43194C6.96213 12.4841 4.95996 14.4863 4.95996 16.9561C4.95996 19.4259 6.96213 21.4281 9.43194 21.4281H10.0288ZM25.8891 10.3393C26.2796 9.94875 26.9128 9.94875 27.3033 10.3393C28.1456 11.1815 28.8137 12.1815 29.2695 13.282C29.7254 14.3824 29.96 15.5619 29.96 16.7531C29.96 17.9443 29.7254 19.1237 29.2695 20.2242C28.8137 21.3247 28.1456 22.3246 27.3033 23.1669C26.9128 23.5574 26.2796 23.5574 25.8891 23.1669C25.4986 22.7764 25.4986 22.1432 25.8891 21.7527C26.5456 21.0961 27.0665 20.3167 27.4218 19.4589C27.7771 18.601 27.96 17.6816 27.96 16.7531C27.96 15.8246 27.7771 14.9052 27.4218 14.0473C27.0665 13.1895 26.5456 12.41 25.8891 11.7535C25.4986 11.363 25.4986 10.7298 25.8891 10.3393ZM22.7187 13.5097C23.1092 13.1192 23.7424 13.1192 24.1329 13.5097C24.5588 13.9356 24.8967 14.4413 25.1272 14.9978C25.3577 15.5543 25.4764 16.1507 25.4764 16.7531C25.4764 17.3555 25.3577 17.9519 25.1272 18.5084C24.8967 19.0649 24.5588 19.5706 24.1329 19.9965C23.7424 20.3871 23.1092 20.3871 22.7187 19.9965C22.3281 19.606 22.3282 18.9728 22.7187 18.5823C22.9589 18.3421 23.1494 18.0569 23.2794 17.7431C23.4094 17.4292 23.4764 17.0928 23.4764 16.7531C23.4764 16.4134 23.4094 16.077 23.2794 15.7631C23.1494 15.4493 22.9589 15.1641 22.7187 14.9239C22.3282 14.5334 22.3281 13.9002 22.7187 13.5097Z" fill="#1C1B1F"/>
</svg>
