<svg width="32" height="33" viewBox="0 0 32 33" fill="none" xmlns="http://www.w3.org/2000/svg">
<path fill-rule="evenodd" clip-rule="evenodd" d="M22.2966 31.9994V1.00045C22.2966 0.580783 21.8107 0.347827 21.4835 0.610576L10.7734 9.21006L10.7734 24.2593L21.4942 32.3977C21.8235 32.6476 22.2966 32.4128 22.2966 31.9994ZM8.77338 23.6922L8.77338 9.80989H7.29469C3.46118 9.80989 0.353516 12.9176 0.353516 16.7511C0.353516 20.5846 3.46118 23.6922 7.29469 23.6922H8.77338ZM29.7227 11.7923C29.3322 11.4017 28.699 11.4017 28.3085 11.7923C27.918 12.1828 27.918 12.8159 28.3085 13.2065C28.7326 13.6306 29.0691 14.1341 29.2986 14.6882C29.5281 15.2424 29.6463 15.8363 29.6463 16.4361C29.6463 17.0359 29.5281 17.6298 29.2986 18.184C29.0691 18.7381 28.7326 19.2416 28.3085 19.6657C27.918 20.0563 27.918 20.6894 28.3085 21.08C28.699 21.4705 29.3322 21.4705 29.7227 21.08C30.3326 20.4701 30.8163 19.7461 31.1464 18.9493C31.4764 18.1525 31.6463 17.2985 31.6463 16.4361C31.6463 15.5737 31.4764 14.7197 31.1464 13.9229C30.8163 13.1261 30.3326 12.4021 29.7227 11.7923Z" fill="#111827"/>
</svg>
