<svg width="33" height="33" viewBox="0 0 33 33" fill="none" xmlns="http://www.w3.org/2000/svg">
<path fill-rule="evenodd" clip-rule="evenodd" d="M21.0991 7.17941V26.4218C21.0991 26.8352 20.626 27.07 20.2968 26.82L13.1938 21.4281H11.4339C8.96409 21.4281 6.96191 19.4259 6.96191 16.9561C6.96191 14.4863 8.96409 12.4841 11.4339 12.4841H13.1938L20.2861 6.78954C20.6133 6.52679 21.0991 6.75974 21.0991 7.17941ZM27.958 13.783C27.958 13.2307 27.5103 12.783 26.958 12.783C26.4057 12.783 25.958 13.2307 25.958 13.783V19.783C25.958 20.3352 26.4057 20.783 26.958 20.783C27.5103 20.783 27.958 20.3352 27.958 19.783V13.783Z" fill="#1C1B1F"/>
</svg>
