<svg width="33" height="33" viewBox="0 0 33 33" fill="none" xmlns="http://www.w3.org/2000/svg">
<path fill-rule="evenodd" clip-rule="evenodd" d="M19.0991 7.17941V26.4218C19.0991 26.8352 18.626 27.07 18.2968 26.82L11.1938 21.4281H9.43389C6.96409 21.4281 4.96191 19.4259 4.96191 16.9561C4.96191 14.4863 6.96409 12.4841 9.43389 12.4841H11.1938L18.2861 6.78954C18.6133 6.52679 19.0991 6.75974 19.0991 7.17941ZM28.958 10.783C29.5103 10.783 29.958 11.2307 29.958 11.783V21.783C29.958 22.3352 29.5103 22.783 28.958 22.783C28.4057 22.783 27.958 22.3352 27.958 21.783V11.783C27.958 11.2307 28.4057 10.783 28.958 10.783ZM24.958 12.783C25.5103 12.783 25.958 13.2307 25.958 13.783V19.783C25.958 20.3352 25.5103 20.783 24.958 20.783C24.4057 20.783 23.958 20.3352 23.958 19.783V13.783C23.958 13.2307 24.4057 12.783 24.958 12.783Z" fill="#1C1B1F"/>
</svg>
