<svg width="32" height="33" viewBox="0 0 32 33" fill="none" xmlns="http://www.w3.org/2000/svg">
<path fill-rule="evenodd" clip-rule="evenodd" d="M18.2634 3.77169V29.2286C18.2634 29.642 17.7903 29.8768 17.4611 29.6269L8.05078 22.4834H5.7772C2.58654 22.4834 0 19.8969 0 16.7062C0 13.5156 2.58654 10.929 5.7772 10.929H8.05078L17.4504 3.38182C17.7776 3.11907 18.2634 3.35202 18.2634 3.77169ZM30.9998 9.02312C31.5521 9.02312 31.9998 9.47084 31.9998 10.0231V22.9418C31.9998 23.4941 31.5521 23.9418 30.9998 23.9418C30.4476 23.9418 29.9998 23.4941 29.9998 22.9418V10.0231C29.9998 9.47084 30.4476 9.02312 30.9998 9.02312ZM25.8324 11.6068C26.3847 11.6068 26.8324 12.0546 26.8324 12.6068V20.3581C26.8324 20.9103 26.3847 21.3581 25.8324 21.3581C25.2801 21.3581 24.8324 20.9103 24.8324 20.3581V12.6068C24.8324 12.0546 25.2801 11.6068 25.8324 11.6068Z" fill="#111827"/>
</svg>
