<svg width="32" height="33" viewBox="0 0 32 33" fill="none" xmlns="http://www.w3.org/2000/svg">
<path fill-rule="evenodd" clip-rule="evenodd" d="M1.91299 1.55108C2.32165 1.17958 2.95409 1.20969 3.3256 1.61835L29.1603 30.0366C29.5318 30.4452 29.5017 31.0777 29.0931 31.4492C28.6844 31.8207 28.052 31.7906 27.6805 31.3819L18.2615 21.0211V29.245C18.2615 29.6583 17.7885 29.8931 17.4592 29.6432L8.04996 22.5005H5.77661C2.58628 22.5005 0 19.9142 0 16.7239C0 13.5336 2.58628 10.9473 5.77661 10.9473H9.10354L1.84572 2.9637C1.47421 2.55504 1.50433 1.92259 1.91299 1.55108ZM25.833 11.625C26.3853 11.625 26.833 12.0727 26.833 12.625V20.3754C26.833 20.9277 26.3853 21.3754 25.833 21.3754C25.2807 21.3754 24.833 20.9277 24.833 20.3754V12.625C24.833 12.0727 25.2807 11.625 25.833 11.625ZM32 10.0415C32 9.48924 31.5523 9.04152 31 9.04152C30.4477 9.04152 30 9.48924 30 10.0415V22.9589C30 23.5112 30.4477 23.9589 31 23.9589C31.5523 23.9589 32 23.5112 32 22.9589V10.0415ZM13.1561 6.84753L17.4488 3.40076C17.7761 3.13801 18.2619 3.37097 18.2619 3.79063V12.6594L13.1561 6.84753Z" fill="#111827"/>
</svg>
