<svg width="33" height="33" viewBox="0 0 33 33" fill="none" xmlns="http://www.w3.org/2000/svg">
<path fill-rule="evenodd" clip-rule="evenodd" d="M20.8389 26.4042V7.16183C20.8389 6.74216 20.3531 6.5092 20.0258 6.77195L13.7705 11.7945L13.7705 22.0458L20.0365 26.8025C20.3658 27.0524 20.8389 26.8176 20.8389 26.4042ZM11.7705 21.4105L11.7705 12.4665H11.1736C8.70383 12.4665 6.70166 14.4687 6.70166 16.9385C6.70166 19.4083 8.70383 21.4105 11.1736 21.4105H11.7705ZM25.8746 13.4921C25.4841 13.1016 24.8509 13.1016 24.4604 13.4921C24.0698 13.8826 24.0698 14.5158 24.4604 14.9063C24.7006 15.1465 24.8911 15.4317 25.0211 15.7456C25.1511 16.0594 25.2181 16.3958 25.2181 16.7355C25.2181 17.0752 25.1511 17.4116 25.0211 17.7255C24.8911 18.0394 24.7006 18.3245 24.4604 18.5647C24.0698 18.9553 24.0698 19.5884 24.4604 19.979C24.8509 20.3695 25.4841 20.3695 25.8746 19.979C26.3005 19.553 26.6384 19.0474 26.8689 18.4909C27.0994 17.9344 27.2181 17.3379 27.2181 16.7355C27.2181 16.1332 27.0994 15.5367 26.8689 14.9802C26.6384 14.4237 26.3005 13.918 25.8746 13.4921Z" fill="#1C1B1F"/>
</svg>
