<svg width="32" height="33" viewBox="0 0 32 33" fill="none" xmlns="http://www.w3.org/2000/svg">
<path fill-rule="evenodd" clip-rule="evenodd" d="M18.2605 29.2265V3.77389C18.2605 3.35422 17.7747 3.12126 17.4475 3.38401L8.83908 10.2959L8.83908 23.0819L17.4582 29.6247C17.7874 29.8747 18.2605 29.6398 18.2605 29.2265ZM6.83908 22.4825L6.83908 10.9299H5.77628C2.58613 10.9299 0 13.516 0 16.7062C0 19.8963 2.58613 22.4825 5.77628 22.4825H6.83908ZM27.239 8.3654C27.6296 7.97488 28.2627 7.97488 28.6533 8.3654C29.7141 9.42625 30.5556 10.6857 31.1298 12.0717C31.7039 13.4578 31.9994 14.9434 31.9994 16.4437C31.9994 17.9439 31.7039 19.4295 31.1298 20.8156C30.5556 22.2017 29.7141 23.4611 28.6533 24.5219C28.2627 24.9124 27.6296 24.9124 27.239 24.5219C26.8485 24.1314 26.8485 23.4982 27.239 23.1077C28.1142 22.2326 28.8084 21.1936 29.282 20.0502C29.7556 18.9068 29.9994 17.6813 29.9994 16.4437C29.9994 15.206 29.7556 13.9805 29.282 12.8371C28.8084 11.6937 28.1142 10.6547 27.239 9.77961C26.8485 9.38909 26.8485 8.75592 27.239 8.3654ZM23.1442 12.4605C23.5347 12.07 24.1679 12.07 24.5584 12.4605C25.0815 12.9836 25.4964 13.6046 25.7795 14.288C26.0626 14.9715 26.2083 15.704 26.2083 16.4437C26.2083 17.1834 26.0626 17.9159 25.7795 18.5994C25.4964 19.2828 25.0815 19.9038 24.5584 20.4269C24.1679 20.8174 23.5347 20.8174 23.1442 20.4269C22.7536 20.0364 22.7536 19.4032 23.1442 19.0127C23.4815 18.6753 23.7491 18.2748 23.9317 17.834C24.1143 17.3932 24.2083 16.9208 24.2083 16.4437C24.2083 15.9666 24.1143 15.4942 23.9317 15.0534C23.7491 14.6126 23.4815 14.2121 23.1442 13.8747C22.7536 13.4842 22.7536 12.851 23.1442 12.4605Z" fill="#111827"/>
</svg>
