<svg width="32" height="33" viewBox="0 0 32 33" fill="none" xmlns="http://www.w3.org/2000/svg">
<path fill-rule="evenodd" clip-rule="evenodd" d="M21.9173 1.01949V31.9805C21.9173 32.3938 21.4443 32.6287 21.115 32.3787L9.66121 23.684H6.93271C3.10361 23.684 -0.000488281 20.5799 -0.000488281 16.7508C-0.000488281 12.9217 3.10361 9.81761 6.93271 9.81761H9.66121L21.1043 0.629618C21.4315 0.36687 21.9173 0.599827 21.9173 1.01949ZM32.0004 11.8313C32.0004 11.279 31.5526 10.8313 31.0004 10.8313C30.4481 10.8313 30.0004 11.279 30.0004 11.8313V21.1335C30.0004 21.6858 30.4481 22.1335 31.0004 22.1335C31.5526 22.1335 32.0004 21.6858 32.0004 21.1335V11.8313Z" fill="#111827"/>
</svg>
