<svg width="33" height="33" viewBox="0 0 33 33" fill="none" xmlns="http://www.w3.org/2000/svg">
<path fill-rule="evenodd" clip-rule="evenodd" d="M19.0972 7.17941V26.4218C19.0972 26.8351 18.6241 27.07 18.2948 26.82L11.1918 21.4281H9.43194C6.96213 21.4281 4.95996 19.4259 4.95996 16.9561C4.95996 14.4863 6.96213 12.4841 9.43194 12.4841H11.1918L18.2841 6.78953C18.6114 6.52678 19.0972 6.75974 19.0972 7.17941ZM29.6671 13.5758C30.0576 13.9664 30.0576 14.5995 29.6671 14.9901L27.8742 16.783L29.6671 18.5758C30.0576 18.9664 30.0576 19.5995 29.6671 19.9901C29.2765 20.3806 28.6434 20.3806 28.2529 19.9901L26.46 18.1972L24.6671 19.9901C24.2765 20.3806 23.6434 20.3806 23.2529 19.9901C22.8623 19.5995 22.8623 18.9664 23.2529 18.5758L25.0457 16.783L23.2529 14.9901C22.8623 14.5995 22.8623 13.9664 23.2529 13.5758C23.6434 13.1853 24.2765 13.1853 24.6671 13.5758L26.46 15.3687L28.2529 13.5758C28.6434 13.1853 29.2765 13.1853 29.6671 13.5758Z" fill="#1C1B1F"/>
</svg>
