<svg width="33" height="33" viewBox="0 0 33 33" fill="none" xmlns="http://www.w3.org/2000/svg">
<path fill-rule="evenodd" clip-rule="evenodd" d="M6.2873 5.04303C6.69595 4.67152 7.3284 4.70164 7.69991 5.11029L27.6999 27.1103C28.0714 27.519 28.0413 28.1514 27.6326 28.5229C27.224 28.8944 26.5915 28.8643 26.22 28.4556L19.0972 20.6205V26.4218C19.0972 26.8352 18.6241 27.07 18.2948 26.82L12.0288 22.0634L12.0288 12.8453L6.22003 6.45564C5.84852 6.04698 5.87864 5.41453 6.2873 5.04303ZM27.3033 10.3393C26.9128 9.94876 26.2796 9.94876 25.8891 10.3393C25.4986 10.7298 25.4986 11.363 25.8891 11.7535C26.5457 12.4101 27.0665 13.1895 27.4218 14.0473C27.7771 14.9052 27.96 15.8246 27.96 16.7531C27.96 17.6816 27.7771 18.601 27.4218 19.4589C27.0665 20.3167 26.5457 21.0962 25.8891 21.7527C25.4986 22.1432 25.4986 22.7764 25.8891 23.1669C26.2796 23.5575 26.9128 23.5575 27.3033 23.1669C28.1456 22.3247 28.8137 21.3247 29.2695 20.2242C29.7254 19.1238 29.96 17.9443 29.96 16.7531C29.96 15.562 29.7254 14.3825 29.2695 13.282C28.8137 12.1815 28.1456 11.1816 27.3033 10.3393ZM24.1329 13.5097C23.7424 13.1192 23.1092 13.1192 22.7187 13.5097C22.3282 13.9002 22.3282 14.5334 22.7187 14.9239C22.9589 15.1641 23.1494 15.4493 23.2794 15.7632C23.4095 16.077 23.4764 16.4134 23.4764 16.7531C23.4764 17.0928 23.4095 17.4292 23.2794 17.7431C23.1494 18.0569 22.9589 18.3421 22.7187 18.5823C22.3282 18.9729 22.3282 19.606 22.7187 19.9965C23.1092 20.3871 23.7424 20.3871 24.1329 19.9965C24.5588 19.5706 24.8967 19.065 25.1272 18.5084C25.3577 17.9519 25.4764 17.3555 25.4764 16.7531C25.4764 16.1508 25.3577 15.5543 25.1272 14.9978C24.8967 14.4413 24.5588 13.9356 24.1329 13.5097ZM18.2841 6.78954L15.1445 9.31042L19.0972 13.8097V7.17941C19.0972 6.75974 18.6114 6.52679 18.2841 6.78954ZM10.0288 12.4841H9.43194C6.96213 12.4841 4.95996 14.4863 4.95996 16.9561C4.95996 19.4259 6.96213 21.4281 9.43194 21.4281H10.0288L10.0288 12.4841Z" fill="#1C1B1F"/>
</svg>
