<svg width="33" height="33" viewBox="0 0 33 33" fill="none" xmlns="http://www.w3.org/2000/svg">
<path fill-rule="evenodd" clip-rule="evenodd" d="M6.28876 5.04303C6.69742 4.67152 7.32987 4.70164 7.70137 5.11029L27.7014 27.1103C28.0729 27.519 28.0428 28.1514 27.6341 28.5229C27.2254 28.8944 26.593 28.8643 26.2215 28.4556L19.0972 20.6189V26.4218C19.0972 26.8352 18.6241 27.07 18.2948 26.82L11.1918 21.4281H9.43194C6.96213 21.4281 4.95996 19.4259 4.95996 16.9561C4.95996 14.4863 6.96213 12.4841 9.43194 12.4841H11.7019L6.22149 6.45564C5.84999 6.04698 5.8801 5.41453 6.28876 5.04303ZM24.9585 12.783C25.5108 12.783 25.9585 13.2307 25.9585 13.783V19.783C25.9585 20.3353 25.5108 20.783 24.9585 20.783C24.4062 20.783 23.9585 20.3353 23.9585 19.783V13.783C23.9585 13.2307 24.4062 12.783 24.9585 12.783ZM29.9585 11.783C29.9585 11.2307 29.5108 10.783 28.9585 10.783C28.4062 10.783 27.9585 11.2307 27.9585 11.783V21.783C27.9585 22.3353 28.4062 22.783 28.9585 22.783C29.5108 22.783 29.9585 22.3353 29.9585 21.783V11.783ZM15.1445 9.31042L18.2841 6.78954C18.6114 6.52679 19.0972 6.75974 19.0972 7.17941V13.8097L15.1445 9.31042Z" fill="#1C1B1F"/>
</svg>
