<svg width="32" height="32" viewBox="0 0 32 32" fill="none" xmlns="http://www.w3.org/2000/svg">
<path fill-rule="evenodd" clip-rule="evenodd" d="M17.0001 1.00085C17.0001 0.44857 16.5523 0.000854492 16.0001 0.000854492C15.4478 0.000854492 15.0001 0.44857 15.0001 1.00085V6.00055C15.0001 6.55284 15.4478 7.00055 16.0001 7.00055C16.5523 7.00055 17.0001 6.55284 17.0001 6.00055V1.00085ZM27.3129 6.10126C27.7034 5.71074 27.7034 5.07758 27.3129 4.68705C26.9224 4.29653 26.2892 4.29653 25.8987 4.68705L22.3634 8.22237C21.9729 8.6129 21.9729 9.24606 22.3634 9.63659C22.7539 10.0271 23.3871 10.0271 23.7776 9.63659L27.3129 6.10126ZM24.9994 16.0001C24.9994 15.4478 25.4472 15.0001 25.9994 15.0001H30.9991C31.5514 15.0001 31.9991 15.4478 31.9991 16.0001C31.9991 16.5523 31.5514 17.0001 30.9991 17.0001H25.9994C25.4472 17.0001 24.9994 16.5523 24.9994 16.0001ZM23.7776 22.3635C23.3871 21.973 22.7539 21.973 22.3634 22.3635C21.9729 22.754 21.9729 23.3872 22.3634 23.7777L25.8987 27.313C26.2892 27.7036 26.9224 27.7036 27.3129 27.313C27.7034 26.9225 27.7034 26.2894 27.3129 25.8988L23.7776 22.3635ZM16.0001 24.9993C16.5523 24.9993 17.0001 25.447 17.0001 25.9993V30.999C17.0001 31.5513 16.5523 31.999 16.0001 31.999C15.4478 31.999 15.0001 31.5513 15.0001 30.999V25.9993C15.0001 25.447 15.4478 24.9993 16.0001 24.9993ZM9.63659 23.7777C10.0271 23.3872 10.0271 22.754 9.63659 22.3635C9.24606 21.973 8.6129 21.973 8.22237 22.3635L4.68705 25.8988C4.29653 26.2894 4.29653 26.9225 4.68705 27.313C5.07758 27.7036 5.71074 27.7036 6.10126 27.313L9.63659 23.7777ZM0.000976562 16.0001C0.000976562 15.4478 0.448692 15.0001 1.00098 15.0001H6.00068C6.55296 15.0001 7.00068 15.4478 7.00068 16.0001C7.00068 16.5523 6.55296 17.0001 6.00068 17.0001H1.00098C0.448692 17.0001 0.000976562 16.5523 0.000976562 16.0001ZM6.10126 4.68705C5.71074 4.29653 5.07758 4.29653 4.68705 4.68705C4.29653 5.07758 4.29653 5.71074 4.68705 6.10126L8.22237 9.63659C8.6129 10.0271 9.24606 10.0271 9.63659 9.63659C10.0271 9.24606 10.0271 8.6129 9.63659 8.22237L6.10126 4.68705Z" fill="#111827"/>
</svg>
