<svg width="32" height="32" viewBox="0 0 32 32" fill="none" xmlns="http://www.w3.org/2000/svg">
<path fill-rule="evenodd" clip-rule="evenodd" d="M16.0001 0.000854492C16.5524 0.000854492 17.0001 0.44857 17.0001 1.00085V6.00057C17.0001 6.55286 16.5524 7.00057 16.0001 7.00057C15.4478 7.00057 15.0001 6.55286 15.0001 6.00057V1.00085C15.0001 0.44857 15.4478 0.000854492 16.0001 0.000854492ZM24.9995 16.0001C24.9995 15.4478 25.4473 15.0001 25.9995 15.0001H30.9993C31.5515 15.0001 31.9993 15.4478 31.9993 16.0001C31.9993 16.5524 31.5515 17.0001 30.9993 17.0001H25.9995C25.4473 17.0001 24.9995 16.5524 24.9995 16.0001ZM23.7777 22.3636C23.3872 21.9731 22.754 21.9731 22.3635 22.3636C21.973 22.7541 21.973 23.3873 22.3635 23.7778L25.8988 27.3131C26.2893 27.7037 26.9225 27.7037 27.313 27.3131C27.7035 26.9226 27.7035 26.2895 27.313 25.8989L23.7777 22.3636ZM16.0001 24.9994C16.5524 24.9994 17.0001 25.4471 17.0001 25.9994V30.9991C17.0001 31.5514 16.5524 31.9991 16.0001 31.9991C15.4478 31.9991 15.0001 31.5514 15.0001 30.9991V25.9994C15.0001 25.4471 15.4478 24.9994 16.0001 24.9994ZM9.63662 23.7778C10.0271 23.3873 10.0271 22.7541 9.63662 22.3636C9.24609 21.9731 8.61293 21.9731 8.2224 22.3636L4.68707 25.8989C4.29654 26.2895 4.29654 26.9226 4.68707 27.3131C5.07759 27.7037 5.71076 27.7037 6.10128 27.3131L9.63662 23.7778ZM0.000976562 16.0001C0.000976562 15.4478 0.448692 15.0001 1.00098 15.0001H6.0007C6.55298 15.0001 7.0007 15.4478 7.0007 16.0001C7.0007 16.5524 6.55298 17.0001 6.0007 17.0001H1.00098C0.448692 17.0001 0.000976562 16.5524 0.000976562 16.0001ZM6.10128 4.68707C5.71076 4.29655 5.07759 4.29655 4.68707 4.68707C4.29654 5.07759 4.29654 5.71076 4.68707 6.10128L8.2224 9.63662C8.61293 10.0271 9.24609 10.0271 9.63662 9.63662C10.0271 9.24609 10.0271 8.61293 9.63662 8.22241L6.10128 4.68707Z" fill="#111827"/>
</svg>
