<svg width="33" height="33" viewBox="0 0 33 33" fill="none" xmlns="http://www.w3.org/2000/svg">
<path fill-rule="evenodd" clip-rule="evenodd" d="M17.96 4.28296C17.96 3.73067 17.5122 3.28296 16.96 3.28296C16.4077 3.28296 15.96 3.73067 15.96 4.28296V8.28296C15.96 8.83524 16.4077 9.28296 16.96 9.28296C17.5122 9.28296 17.96 8.83524 17.96 8.28296V4.28296ZM26.1522 8.50484C26.5428 8.11431 26.5428 7.48115 26.1522 7.09062C25.7617 6.7001 25.1285 6.7001 24.738 7.09062L21.9096 9.91905C21.5191 10.3096 21.5191 10.9427 21.9096 11.3333C22.3001 11.7238 22.9333 11.7238 23.3238 11.3333L26.1522 8.50484ZM23.96 16.283C23.96 15.7307 24.4077 15.283 24.96 15.283H28.96C29.5122 15.283 29.96 15.7307 29.96 16.283C29.96 16.8352 29.5122 17.283 28.96 17.283H24.96C24.4077 17.283 23.96 16.8352 23.96 16.283ZM23.3238 21.2327C22.9333 20.8422 22.3001 20.8422 21.9096 21.2327C21.5191 21.6232 21.5191 22.2564 21.9096 22.6469L24.738 25.4754C25.1285 25.8659 25.7617 25.8659 26.1522 25.4754C26.5428 25.0848 26.5428 24.4517 26.1522 24.0611L23.3238 21.2327ZM16.96 23.283C17.5122 23.283 17.96 23.7307 17.96 24.283V28.283C17.96 28.8352 17.5122 29.283 16.96 29.283C16.4077 29.283 15.96 28.8352 15.96 28.283V24.283C15.96 23.7307 16.4077 23.283 16.96 23.283ZM12.0101 22.6469C12.4007 22.2564 12.4007 21.6232 12.0101 21.2327C11.6196 20.8422 10.9865 20.8422 10.5959 21.2327L7.7675 24.0611C7.37698 24.4517 7.37698 25.0848 7.7675 25.4754C8.15803 25.8659 8.79119 25.8659 9.18172 25.4754L12.0101 22.6469ZM3.95996 16.283C3.95996 15.7307 4.40768 15.283 4.95996 15.283H8.95996C9.51225 15.283 9.95996 15.7307 9.95996 16.283C9.95996 16.8352 9.51225 17.283 8.95996 17.283H4.95996C4.40768 17.283 3.95996 16.8352 3.95996 16.283ZM9.18172 7.09062C8.79119 6.7001 8.15803 6.7001 7.7675 7.09062C7.37698 7.48115 7.37698 8.11431 7.7675 8.50484L10.5959 11.3333C10.9865 11.7238 11.6196 11.7238 12.0101 11.3333C12.4007 10.9427 12.4007 10.3096 12.0101 9.91905L9.18172 7.09062Z" fill="#1C1B1F"/>
</svg>
