<svg width="32" height="33" viewBox="0 0 32 33" fill="none" xmlns="http://www.w3.org/2000/svg">
<path d="M15.4 17.1C15.7183 17.1 16.0235 17.2264 16.2485 17.4514C16.4736 17.6765 16.6 17.9817 16.6 18.3C16.6 18.9365 16.3471 19.5469 15.8971 19.997C15.447 20.4471 14.8365 20.7 14.2 20.7C13.7267 20.7019 13.2577 20.6102 12.82 20.43C12.3823 20.2497 11.9847 19.9846 11.65 19.65C11.3153 19.3153 11.0502 18.9176 10.87 18.48C10.6898 18.0423 10.598 17.5733 10.6 17.1C10.6 15.8269 11.1057 14.606 12.0059 13.7058C12.9061 12.8057 14.127 12.3 15.4 12.3C16.9913 12.3 18.5174 12.9321 19.6426 14.0573C20.7679 15.1825 21.4 16.7087 21.4 18.3C21.4 20.2095 20.6414 22.0409 19.2912 23.3911C17.9409 24.7414 16.1096 25.5 14.2 25.5C11.9722 25.5 9.83561 24.615 8.2603 23.0396C6.685 21.4643 5.8 19.3278 5.8 17.1C5.80397 14.5551 6.81667 12.1156 8.61616 10.3161C10.4156 8.51662 12.8551 7.50392 15.4 7.49995C18.2643 7.49995 21.0114 8.6378 23.0368 10.6632C25.0621 12.6886 26.2 15.4356 26.2 18.3C26.2 19.8758 25.8896 21.4362 25.2866 22.8922C24.6835 24.3481 23.7996 25.6709 22.6853 26.7852C21.571 27.8995 20.2481 28.7834 18.7922 29.3865C17.3363 29.9896 15.7759 30.2999 14.2 30.2999C10.6991 30.2999 7.34167 28.9092 4.86619 26.4338C2.39071 23.9583 1 20.6008 1 17.1C1 13.2808 2.51714 9.61814 5.21766 6.91761C7.91819 4.21709 11.5809 2.69995 15.4 2.69995C17.4486 2.69995 19.4772 3.10346 21.3699 3.88743C23.2625 4.6714 24.9823 5.82049 26.4309 7.26908C27.8795 8.71768 29.0285 10.4374 29.8125 12.3301C30.5965 14.2228 31 16.2513 31 18.3" stroke="#111827" stroke-width="2" stroke-linecap="round" stroke-linejoin="round"/>
</svg>
