<svg width="33" height="33" viewBox="0 0 33 33" fill="none" xmlns="http://www.w3.org/2000/svg">
<path d="M16.48 16.7629C16.7346 16.7629 16.9787 16.8641 17.1588 17.0441C17.3388 17.2241 17.44 17.4683 17.44 17.7229C17.44 18.2321 17.2377 18.7205 16.8776 19.0806C16.5175 19.4406 16.0292 19.6429 15.52 19.6429C15.1413 19.6445 14.7661 19.5711 14.416 19.4269C14.0658 19.2828 13.7477 19.0707 13.48 18.8029C13.2122 18.5352 13.0001 18.2171 12.856 17.8669C12.7118 17.5168 12.6384 17.1416 12.64 16.7629C12.64 15.7445 13.0445 14.7678 13.7647 14.0476C14.4848 13.3275 15.4615 12.9229 16.48 12.9229C17.753 12.9229 18.9739 13.4286 19.8741 14.3288C20.7742 15.229 21.28 16.4499 21.28 17.7229C21.28 19.2506 20.6731 20.7156 19.5929 21.7959C18.5127 22.8761 17.0476 23.4829 15.52 23.4829C13.7377 23.4829 12.0284 22.7749 10.7682 21.5147C9.50796 20.2544 8.79996 18.5452 8.79996 16.7629C8.80313 14.727 9.61329 12.7754 11.0529 11.3358C12.4925 9.89625 14.4441 9.08609 16.48 9.08292C18.7714 9.08292 20.969 9.9932 22.5894 11.6135C24.2097 13.2338 25.12 15.4314 25.12 17.7229C25.12 18.9836 24.8717 20.232 24.3892 21.3967C23.9068 22.5614 23.1996 23.6197 22.3082 24.5111C21.4167 25.4026 20.3584 26.1097 19.1937 26.5922C18.029 27.0746 16.7807 27.3229 15.52 27.3229C12.7193 27.3229 10.0333 26.2104 8.05291 24.23C6.07253 22.2496 4.95996 19.5636 4.95996 16.7629C4.95996 13.7076 6.17367 10.7775 8.33409 8.61705C10.4945 6.45663 13.4247 5.24292 16.48 5.24292C18.1189 5.24292 19.7417 5.56572 21.2558 6.1929C22.77 6.82008 24.1458 7.73935 25.3047 8.89823C26.4635 10.0571 27.3828 11.4329 28.01 12.947C28.6372 14.4612 28.96 16.084 28.96 17.7229" stroke="#1C1B1F" stroke-width="2" stroke-linecap="round" stroke-linejoin="round"/>
</svg>
