<svg width="32" height="32" viewBox="0 0 32 32" fill="none" xmlns="http://www.w3.org/2000/svg">
<path d="M15.4 16.6C15.7183 16.6 16.0235 16.7264 16.2485 16.9514C16.4736 17.1765 16.6 17.4817 16.6 17.8C16.6 18.4365 16.3471 19.0469 15.8971 19.497C15.447 19.9471 14.8365 20.2 14.2 20.2C13.7267 20.2019 13.2577 20.1102 12.82 19.93C12.3823 19.7497 11.9847 19.4846 11.65 19.15C11.3153 18.8153 11.0502 18.4176 10.87 17.98C10.6898 17.5423 10.598 17.0733 10.6 16.6C10.6 15.3269 11.1057 14.106 12.0059 13.2058C12.9061 12.3057 14.127 11.8 15.4 11.8C16.9913 11.8 18.5174 12.4321 19.6426 13.5573C20.7679 14.6825 21.4 16.2087 21.4 17.8C21.4 19.7095 20.6414 21.5409 19.2912 22.8911C17.9409 24.2414 16.1096 25 14.2 25C11.9722 25 9.83561 24.115 8.2603 22.5396C6.685 20.9643 5.8 18.8278 5.8 16.6C5.80397 14.0551 6.81667 11.6156 8.61616 9.81611C10.4156 8.01662 12.8551 7.00392 15.4 6.99995C18.2643 6.99995 21.0114 8.1378 23.0368 10.1632C25.0621 12.1886 26.2 14.9356 26.2 17.8C26.2 19.3758 25.8896 20.9362 25.2866 22.3922C24.6835 23.8481 23.7996 25.1709 22.6853 26.2852C21.571 27.3995 20.2481 28.2834 18.7922 28.8865C17.3363 29.4896 15.7759 29.7999 14.2 29.7999C10.6991 29.7999 7.34167 28.4092 4.86619 25.9338C2.39071 23.4583 1 20.1008 1 16.6C1 12.7808 2.51714 9.11814 5.21766 6.41761C7.91819 3.71709 11.5809 2.19995 15.4 2.19995C17.4486 2.19995 19.4772 2.60346 21.3699 3.38743C23.2625 4.1714 24.9823 5.32049 26.4309 6.76908C27.8795 8.21768 29.0285 9.93741 29.8125 11.8301C30.5965 13.7228 31 15.7513 31 17.8" stroke="#111827" stroke-width="2" stroke-linecap="round" stroke-linejoin="round"/>
</svg>
