<svg width="32" height="33" viewBox="0 0 32 33" fill="none" xmlns="http://www.w3.org/2000/svg">
<path fill-rule="evenodd" clip-rule="evenodd" d="M15.9998 0.499512C16.5521 0.499512 16.9998 0.947227 16.9998 1.49951V3.36437H17.9097C18.668 3.36437 19.419 3.51374 20.1196 3.80394C20.8202 4.09415 21.4568 4.51951 21.993 5.05573C22.5292 5.59196 22.9546 6.22856 23.2448 6.92917C23.535 7.62979 23.6844 8.3807 23.6844 9.13904C23.6844 9.69133 23.2367 10.139 22.6844 10.139C22.1321 10.139 21.6844 9.69133 21.6844 9.13904C21.6844 8.64335 21.5867 8.1525 21.397 7.69454C21.2073 7.23658 20.9293 6.82046 20.5788 6.46995C20.2283 6.11944 19.8122 5.8414 19.3542 5.6517C18.8962 5.46201 18.4054 5.36437 17.9097 5.36437H16.9998V12.9137H18.8646C20.3962 12.9137 21.865 13.5221 22.9479 14.6051C24.0309 15.688 24.6393 17.1569 24.6393 18.6884C24.6393 20.2199 24.0309 21.6887 22.9479 22.7717C21.865 23.8547 20.3962 24.4631 18.8646 24.4631H16.9998V29.0861L20.0285 26.0574C20.419 25.6669 21.0522 25.6669 21.4427 26.0574C21.8333 26.4479 21.8333 27.0811 21.4427 27.4716L16.7108 32.2035C16.6964 32.2181 16.6816 32.2322 16.6663 32.2459C16.5893 32.3148 16.5042 32.3698 16.4143 32.4107C16.288 32.4683 16.1476 32.5004 15.9998 32.5004C15.8458 32.5004 15.7 32.4656 15.5697 32.4034C15.4945 32.3676 15.4228 32.3218 15.3567 32.2662C15.3323 32.2457 15.309 32.2241 15.2867 32.2015L10.5568 27.4716C10.1663 27.0811 10.1663 26.4479 10.5568 26.0574C10.9474 25.6669 11.5805 25.6669 11.9711 26.0574L14.9998 29.0861V24.4631H13.135C11.6035 24.4631 10.1347 23.8547 9.05171 22.7717C7.96875 21.6887 7.36035 20.2199 7.36035 18.6884C7.36035 18.1361 7.80807 17.6884 8.36035 17.6884C8.91264 17.6884 9.36035 18.1361 9.36035 18.6884C9.36035 19.6895 9.75804 20.6496 10.4659 21.3575C11.1738 22.0654 12.1339 22.4631 13.135 22.4631H14.9998V14.9137H13.6125C12.081 14.9137 10.6121 14.3053 9.52918 13.2224C8.44622 12.1394 7.83782 10.6706 7.83782 9.13904C7.83782 7.60751 8.44622 6.1387 9.52918 5.05573C10.6121 3.97277 12.081 3.36437 13.6125 3.36437H14.9998V1.49951C14.9998 0.947227 15.4475 0.499512 15.9998 0.499512ZM13.6125 5.36437H14.9998V12.9137H13.6125C12.6114 12.9137 11.6513 12.516 10.9434 11.8081C10.2355 11.1003 9.83782 10.1402 9.83782 9.13904C9.83782 8.13794 10.2355 7.17784 10.9434 6.46995C11.6513 5.76206 12.6114 5.36437 13.6125 5.36437ZM18.8646 22.4631H16.9998V14.9137H18.8646C19.8657 14.9137 20.8258 15.3114 21.5337 16.0193C22.2416 16.7272 22.6393 17.6873 22.6393 18.6884C22.6393 19.6895 22.2416 20.6496 21.5337 21.3575C20.8258 22.0654 19.8657 22.4631 18.8646 22.4631Z" fill="#111827"/>
</svg>
