<svg width="32" height="33" viewBox="0 0 32 33" fill="none" xmlns="http://www.w3.org/2000/svg">
<path fill-rule="evenodd" clip-rule="evenodd" d="M0 1.5C0 0.947715 0.447715 0.5 1 0.5H30.9996C31.5519 0.5 31.9996 0.947715 31.9996 1.5V31.5C31.9996 32.0523 31.5519 32.5 30.9996 32.5H0.999999C0.447714 32.5 0 32.0523 0 31.5V1.5ZM16.9999 7.98273C17.3705 7.93391 17.7486 7.90872 18.1326 7.90872H21.4589C22.0112 7.90872 22.4589 8.35643 22.4589 8.90872C22.4589 9.461 22.0112 9.90872 21.4589 9.90872H18.1326C17.7464 9.90872 17.3679 9.94194 16.9999 10.0057V22.9944C17.3679 23.0582 17.7464 23.0914 18.1326 23.0914H21.4589C22.0112 23.0914 22.4589 23.5391 22.4589 24.0914C22.4589 24.6437 22.0112 25.0914 21.4589 25.0914H18.1326C17.7486 25.0914 17.3705 25.0662 16.9999 25.0174V27.6796C16.9999 28.2319 16.5521 28.6796 15.9999 28.6796C15.4476 28.6796 14.9999 28.2319 14.9999 27.6796V24.5023C11.8043 23.2504 9.54126 20.1395 9.54126 16.5C9.54126 12.8606 11.8042 9.74974 14.9999 8.49777V5.32026C14.9999 4.76798 15.4476 4.32026 15.9999 4.32026C16.5521 4.32026 16.9999 4.76798 16.9999 5.32026V7.98273ZM14.9999 10.6993C12.9402 11.814 11.5413 13.9937 11.5413 16.5C11.5413 19.0064 12.9402 21.1861 14.9999 22.3008V10.6993Z" fill="#111827"/>
</svg>
