<svg width="33" height="33" viewBox="0 0 33 33" fill="none" xmlns="http://www.w3.org/2000/svg">
<path fill-rule="evenodd" clip-rule="evenodd" d="M28.96 16.4244C28.96 23.0519 23.5874 28.4244 16.96 28.4244C10.3325 28.4244 4.95996 23.0519 4.95996 16.4244C4.95996 9.79702 10.3325 4.42444 16.96 4.42444C23.5874 4.42444 28.96 9.79702 28.96 16.4244ZM23.8072 13.0755C21.6857 11.9892 19.3362 11.4233 16.9528 11.4244C14.5694 11.4256 12.2205 11.9937 10.1 13.082C9.60869 13.3342 9.41479 13.9369 9.66697 14.4283C9.91914 14.9196 10.5219 15.1135 11.0132 14.8614C12.8514 13.918 14.8877 13.4254 16.9538 13.4244C19.0199 13.4235 21.0566 13.9141 22.8957 14.8557C23.3873 15.1074 23.9898 14.913 24.2415 14.4214C24.4933 13.9298 24.2988 13.3272 23.8072 13.0755ZM16.953 15.4244C18.6903 15.4233 20.4032 15.834 21.9511 16.6228C22.4432 16.8735 22.6388 17.4757 22.3881 17.9678C22.1373 18.4599 21.5351 18.6555 21.043 18.4047C19.7767 17.7595 18.3755 17.4235 16.9543 17.4244C15.5331 17.4254 14.1323 17.7631 12.8668 18.4101C12.3751 18.6615 11.7726 18.4666 11.5212 17.9749C11.2698 17.4831 11.4647 16.8807 11.9564 16.6293C13.5033 15.8385 15.2157 15.4256 16.953 15.4244ZM20.0917 20.1642C19.1173 19.6766 18.0423 19.4232 16.9526 19.4244C15.8629 19.4256 14.7886 19.6813 13.8152 20.1711C13.3218 20.4194 13.1231 21.0206 13.3714 21.5139C13.6196 22.0073 14.2208 22.206 14.7141 21.9577C15.4093 21.6079 16.1766 21.4253 16.9548 21.4244C17.7331 21.4236 18.5008 21.6045 19.1967 21.9528C19.6906 22.1999 20.2913 21.9999 20.5385 21.506C20.7857 21.0121 20.5856 20.4114 20.0917 20.1642Z" fill="#1C1B1F"/>
</svg>
