<svg width="32" height="32" viewBox="0 0 32 32" fill="none" xmlns="http://www.w3.org/2000/svg">
<path fill-rule="evenodd" clip-rule="evenodd" d="M32 16C32 24.8366 24.8366 32 16 32C7.16344 32 0 24.8366 0 16C0 7.16344 7.16344 0 16 0C24.8366 0 32 7.16344 32 16ZM24.9777 11.8315C22.1962 10.4072 19.1156 9.66519 15.9907 9.66667C12.8657 9.66815 9.78585 10.4131 7.00564 11.84C6.51429 12.0922 6.32039 12.6949 6.57257 13.1863C6.82474 13.6776 7.42749 13.8715 7.91884 13.6193C10.4168 12.3373 13.1839 11.668 15.9916 11.6667C18.7993 11.6653 21.5671 12.332 24.0662 13.6117C24.5578 13.8634 25.1604 13.6689 25.4121 13.1773C25.6638 12.6857 25.4693 12.0832 24.9777 11.8315ZM15.9909 15C18.2547 14.9985 20.4865 15.5336 22.5035 16.5614C22.9956 16.8122 23.1912 17.4144 22.9405 17.9065C22.6897 18.3985 22.0875 18.5942 21.5954 18.3434C19.8601 17.4591 17.9399 16.9987 15.9922 17C14.0446 17.0013 12.1249 17.4642 10.3907 18.3507C9.89899 18.6021 9.29655 18.4073 9.04515 17.9155C8.79376 17.4238 8.98861 16.8213 9.48036 16.5699C11.496 15.5395 13.7272 15.0015 15.9909 15ZM20.0265 21.2845C18.7736 20.6575 17.3916 20.3318 15.9906 20.3333C14.5896 20.3349 13.2083 20.6636 11.9568 21.2934C11.4634 21.5416 11.2647 22.1428 11.513 22.6361C11.7612 23.1295 12.3624 23.3282 12.8557 23.0799C13.829 22.5902 14.9032 22.3345 15.9928 22.3333C17.0824 22.3321 18.1571 22.5854 19.1315 23.073C19.6254 23.3202 20.2261 23.1202 20.4733 22.6263C20.7205 22.1324 20.5204 21.5316 20.0265 21.2845Z" fill="#111827"/>
</svg>
