<svg width="33" height="33" viewBox="0 0 33 33" fill="none" xmlns="http://www.w3.org/2000/svg">
<path fill-rule="evenodd" clip-rule="evenodd" d="M28.96 16.283C28.96 22.9104 23.5874 28.283 16.96 28.283C10.3325 28.283 4.95996 22.9104 4.95996 16.283C4.95996 9.65554 10.3325 4.28296 16.96 4.28296C23.5874 4.28296 28.96 9.65554 28.96 16.283ZM23.8072 12.934C21.6857 11.8478 19.3362 11.2818 16.9528 11.283C14.5694 11.2841 12.2205 11.8523 10.1 12.9405C9.60869 13.1927 9.41479 13.7955 9.66697 14.2868C9.91914 14.7782 10.5219 14.972 11.0132 14.7199C12.8514 13.7765 14.8877 13.2839 16.9538 13.283C19.0199 13.282 21.0566 13.7726 22.8957 14.7142C23.3873 14.9659 23.9898 14.7715 24.2415 14.2799C24.4933 13.7883 24.2988 13.1857 23.8072 12.934ZM16.953 15.283C18.6903 15.2818 20.4032 15.6925 21.9511 16.4813C22.4432 16.7321 22.6388 17.3342 22.3881 17.8263C22.1373 18.3184 21.5351 18.514 21.043 18.2633C19.7767 17.618 18.3755 17.282 16.9543 17.283C15.5331 17.2839 14.1323 17.6217 12.8668 18.2686C12.3751 18.52 11.7726 18.3251 11.5212 17.8334C11.2698 17.3416 11.4647 16.7392 11.9564 16.4878C13.5033 15.697 15.2157 15.2841 16.953 15.283ZM20.0917 20.0227C19.1173 19.5351 18.0423 19.2818 16.9526 19.283C15.8629 19.2842 14.7886 19.5399 13.8152 20.0297C13.3218 20.2779 13.1231 20.8791 13.3714 21.3724C13.6196 21.8658 14.2208 22.0645 14.7141 21.8162C15.4093 21.4664 16.1766 21.2838 16.9548 21.283C17.7331 21.2821 18.5008 21.463 19.1967 21.8113C19.6906 22.0585 20.2913 21.8584 20.5385 21.3645C20.7857 20.8706 20.5856 20.2699 20.0917 20.0227Z" fill="#1C1B1F"/>
</svg>
