<svg width="33" height="33" viewBox="0 0 33 33" fill="none" xmlns="http://www.w3.org/2000/svg">
<path fill-rule="evenodd" clip-rule="evenodd" d="M5.95996 4.28296C5.40768 4.28296 4.95996 4.73067 4.95996 5.28296V12.883C4.95996 13.4352 5.40768 13.883 5.95996 13.883H13.56C14.1122 13.883 14.56 13.4352 14.56 12.883V5.28296C14.56 4.73067 14.1122 4.28296 13.56 4.28296H5.95996ZM5.95996 18.683C5.40768 18.683 4.95996 19.1307 4.95996 19.683V27.283C4.95996 27.8353 5.40768 28.283 5.95996 28.283H13.56C14.1122 28.283 14.56 27.8353 14.56 27.283V19.683C14.56 19.1307 14.1122 18.683 13.56 18.683H5.95996ZM19.3599 5.28296C19.3599 4.73067 19.8076 4.28296 20.3599 4.28296H27.9599C28.5121 4.28296 28.9599 4.73067 28.9599 5.28296V12.883C28.9599 13.4352 28.5121 13.883 27.9599 13.883H20.3599C19.8076 13.883 19.3599 13.4352 19.3599 12.883V5.28296ZM20.3599 18.683C19.8076 18.683 19.3599 19.1307 19.3599 19.683V27.283C19.3599 27.8353 19.8076 28.283 20.3599 28.283H27.9599C28.5121 28.283 28.9599 27.8353 28.9599 27.283V19.683C28.9599 19.1307 28.5121 18.683 27.9599 18.683H20.3599Z" fill="#1C1B1F"/>
</svg>
