<svg width="32" height="32" viewBox="0 0 32 32" fill="none" xmlns="http://www.w3.org/2000/svg">
<path fill-rule="evenodd" clip-rule="evenodd" d="M0.999756 -0.000244141C0.447471 -0.000244141 -0.000244141 0.447471 -0.000244141 0.999756V31.0002C-0.000244141 31.5525 0.447471 32.0002 0.999756 32.0002H31.0002C31.5525 32.0002 32.0002 31.5525 32.0002 31.0002V0.999756C32.0002 0.447471 31.5525 -0.000244141 31.0002 -0.000244141H0.999756ZM1.99976 30.0002V1.99976H30.0002V30.0002H1.99976ZM10.5495 10.0491H21.4505C21.7266 10.0491 21.9505 10.2729 21.9505 10.5491V21.4501C21.9505 21.7262 21.7266 21.9501 21.4505 21.9501H10.5495C10.2733 21.9501 10.0495 21.7262 10.0495 21.4501V10.5491C10.0495 10.2729 10.2733 10.0491 10.5495 10.0491Z" fill="#111827"/>
</svg>
