<svg width="32" height="32" viewBox="0 0 32 32" fill="none" xmlns="http://www.w3.org/2000/svg">
<path fill-rule="evenodd" clip-rule="evenodd" d="M1 0C0.447715 0 0 0.447715 0 1V11.8C0 12.3523 0.447715 12.8 1 12.8H11.8C12.3523 12.8 12.8 12.3523 12.8 11.8V1C12.8 0.447715 12.3523 0 11.8 0H1ZM1 19.2C0.447715 19.2 0 19.6477 0 20.2V31C0 31.5523 0.447715 32 1 32H11.8C12.3523 32 12.8 31.5523 12.8 31V20.2C12.8 19.6477 12.3523 19.2 11.8 19.2H1ZM19.1999 1C19.1999 0.447715 19.6476 0 20.1999 0H30.9998C31.5521 0 31.9998 0.447715 31.9998 1V11.8C31.9998 12.3523 31.5521 12.8 30.9998 12.8H20.1999C19.6476 12.8 19.1999 12.3523 19.1999 11.8V1ZM20.1999 19.2C19.6476 19.2 19.1999 19.6477 19.1999 20.2V31C19.1999 31.5523 19.6476 32 20.1999 32H30.9998C31.5521 32 31.9998 31.5523 31.9998 31V20.2C31.9998 19.6477 31.5521 19.2 30.9998 19.2H20.1999Z" fill="#111827"/>
</svg>
