<svg width="32" height="32" viewBox="0 0 32 32" fill="none" xmlns="http://www.w3.org/2000/svg">
<path fill-rule="evenodd" clip-rule="evenodd" d="M18.5182 0.292649C18.9087 -0.0978752 19.5418 -0.0978752 19.9324 0.292649L29.1344 9.49471C29.525 9.88524 29.525 10.5184 29.1344 10.9089C28.7439 11.2995 28.1107 11.2995 27.7202 10.9089L18.5182 1.70686C18.1276 1.31634 18.1276 0.683173 18.5182 0.292649ZM14.4317 7.00672C13.9534 6.73064 13.3418 6.89458 13.0657 7.3729C12.7896 7.85123 12.9536 8.4628 13.4319 8.73889L24.7187 15.2536C25.197 15.5297 25.8086 15.3658 26.0847 14.8874C26.3608 14.4091 26.1968 13.7975 25.7185 13.5215L14.4317 7.00672ZM9.6598 15.627C9.80283 15.0935 10.3512 14.7771 10.8847 14.9201L23.4581 18.2915C23.9915 18.4345 24.308 18.9829 24.165 19.5163C24.022 20.0498 23.4736 20.3663 22.9401 20.2232L10.3667 16.8519C9.83325 16.7088 9.51676 16.1604 9.6598 15.627ZM8.48531 24.4856C8.48531 23.9333 8.93303 23.4856 9.48531 23.4856H22.5148C23.0671 23.4856 23.5148 23.9333 23.5148 24.4856C23.5148 25.0378 23.0671 25.4856 22.5148 25.4856H9.48531C8.93303 25.4856 8.48531 25.0378 8.48531 24.4856ZM3.9707 21.8796C3.9707 21.3273 3.52299 20.8796 2.9707 20.8796C2.41842 20.8796 1.9707 21.3273 1.9707 21.8796V30.5002C1.9707 31.3286 2.64228 32.0002 3.4707 32.0002H28.5296C29.3581 32.0002 30.0296 31.3286 30.0296 30.5002V21.8796C30.0296 21.3273 29.5819 20.8796 29.0296 20.8796C28.4774 20.8796 28.0296 21.3273 28.0296 21.8796V30.0002H3.9707V21.8796Z" fill="#111827"/>
</svg>
