<svg width="32" height="32" viewBox="0 0 32 32" fill="none" xmlns="http://www.w3.org/2000/svg">
<path fill-rule="evenodd" clip-rule="evenodd" d="M30.2546 11.177L16.2558 19.5079C16.0982 19.6016 15.9019 19.6016 15.7444 19.5079L1.74553 11.177C1.41473 10.9801 1.42114 10.499 1.75707 10.311L15.7559 2.47761C15.9076 2.39272 16.0925 2.39272 16.2442 2.47761L30.2431 10.311C30.579 10.499 30.5854 10.9801 30.2546 11.177ZM1.51253 18.8007C1.03793 18.5183 0.42423 18.674 0.14179 19.1486C-0.14065 19.6232 0.0151275 20.2369 0.489729 20.5194L15.4887 29.4454C15.8038 29.6329 16.1963 29.6329 16.5115 29.4454L31.5104 20.5194C31.985 20.2369 32.1408 19.6232 31.8583 19.1486C31.5759 18.674 30.9622 18.5183 30.4876 18.8007L16.0001 27.4224L1.51253 18.8007Z" fill="#111827"/>
</svg>
