<svg width="33" height="33" viewBox="0 0 33 33" fill="none" xmlns="http://www.w3.org/2000/svg">
<path fill-rule="evenodd" clip-rule="evenodd" d="M17.2159 15.949L26.4508 10.4532C26.7816 10.2564 26.7751 9.7752 26.4392 9.58722L17.2044 4.41962C17.0527 4.33473 16.8677 4.33473 16.716 4.41963L7.48119 9.58722C7.14526 9.7752 7.13885 10.2564 7.46965 10.4532L16.7045 15.949C16.8621 16.0427 17.0583 16.0427 17.2159 15.949ZM5.86591 15.5897C6.14835 15.1151 6.76205 14.9593 7.23665 15.2418L16.9602 21.0284L26.6838 15.2418C27.1583 14.9593 27.7721 15.1151 28.0545 15.5897C28.3369 16.0643 28.1812 16.678 27.7066 16.9605L17.4716 23.0514C17.1565 23.2389 16.7639 23.2389 16.4488 23.0514L6.21385 16.9605C5.73925 16.678 5.58347 16.0643 5.86591 15.5897ZM7.23665 21.3327C6.76205 21.0503 6.14835 21.2061 5.86591 21.6807C5.58347 22.1553 5.73925 22.769 6.21385 23.0514L16.4488 29.1423C16.7639 29.3299 17.1565 29.3299 17.4716 29.1423L27.7066 23.0514C28.1812 22.769 28.3369 22.1553 28.0545 21.6807C27.7721 21.2061 27.1583 21.0503 26.6838 21.3327L16.9602 27.1193L7.23665 21.3327Z" fill="#1C1B1F"/>
</svg>
