<svg width="33" height="33" viewBox="0 0 33 33" fill="none" xmlns="http://www.w3.org/2000/svg">
<path fill-rule="evenodd" clip-rule="evenodd" d="M28.2157 12.9421L17.2158 19.4883C17.0582 19.582 16.862 19.582 16.7044 19.4883L5.70451 12.9421C5.37371 12.7453 5.38012 12.2641 5.71605 12.0761L16.716 5.92085C16.8677 5.83596 17.0526 5.83596 17.2043 5.92085L28.2042 12.0761C28.5401 12.2641 28.5465 12.7453 28.2157 12.9421ZM5.47152 18.7811C4.99692 18.4986 4.38321 18.6544 4.10077 19.129C3.81833 19.6036 3.97411 20.2173 4.44871 20.4998L16.4487 27.6411C16.7639 27.8286 17.1564 27.8286 17.4715 27.6411L29.4715 20.4998C29.9461 20.2173 30.1019 19.6036 29.8195 19.129C29.537 18.6544 28.9233 18.4986 28.4487 18.7811L16.9601 25.6181L5.47152 18.7811Z" fill="#1C1B1F"/>
</svg>
