<svg width="32" height="32" viewBox="0 0 32 32" fill="none" xmlns="http://www.w3.org/2000/svg">
<path fill-rule="evenodd" clip-rule="evenodd" d="M16.256 15.0759L28.507 7.78519C28.8378 7.58832 28.8314 7.10716 28.4955 6.91918L16.2444 0.0637899C16.0927 -0.0211008 15.9078 -0.0211004 15.7561 0.0637903L3.50503 6.91919C3.1691 7.10716 3.16269 7.58832 3.49349 7.78519L15.7446 15.0759C15.9021 15.1697 16.0984 15.1697 16.256 15.0759ZM1.88984 14.7166C2.17228 14.242 2.78598 14.0862 3.26058 14.3687L16.0003 21.9502L28.7401 14.3687C29.2147 14.0862 29.8284 14.242 30.1109 14.7166C30.3933 15.1912 30.2375 15.8049 29.7629 16.0874L16.5118 23.9733C16.1966 24.1608 15.8041 24.1608 15.4889 23.9733L2.23778 16.0874C1.76317 15.8049 1.6074 15.1912 1.88984 14.7166ZM3.26058 22.2546C2.78598 21.9722 2.17228 22.1279 1.88984 22.6025C1.6074 23.0771 1.76317 23.6908 2.23778 23.9733L15.4889 31.8592C15.8041 32.0467 16.1966 32.0467 16.5118 31.8592L29.7629 23.9733C30.2375 23.6908 30.3933 23.0771 30.1109 22.6025C29.8284 22.1279 29.2147 21.9722 28.7401 22.2546L16.0003 29.8362L3.26058 22.2546Z" fill="#111827"/>
</svg>
