<svg width="33" height="33" viewBox="0 0 33 33" fill="none" xmlns="http://www.w3.org/2000/svg">
<path fill-rule="evenodd" clip-rule="evenodd" d="M18.8329 3.71733C19.2235 3.32681 19.8566 3.32681 20.2471 3.71733L27.6087 11.0789C27.9992 11.4694 27.9992 12.1026 27.6087 12.4931C27.2182 12.8836 26.585 12.8836 26.1945 12.4931L18.8329 5.13155C18.4424 4.74102 18.4424 4.10786 18.8329 3.71733ZM15.8051 9.05677C15.3268 8.78068 14.7152 8.94462 14.4391 9.42295C14.163 9.90127 14.3269 10.5128 14.8053 10.7889L23.8346 16.0007C24.3129 16.2767 24.9245 16.1128 25.2006 15.6345C25.4767 15.1562 25.3127 14.5446 24.8344 14.2685L15.8051 9.05677ZM11.6943 16.0743C11.8373 15.5408 12.3857 15.2243 12.9191 15.3674L22.9778 18.0644C23.5112 18.2075 23.8277 18.7559 23.6847 19.2893C23.5416 19.8227 22.9932 20.1392 22.4598 19.9962L12.4012 17.2991C11.8677 17.1561 11.5512 16.6077 11.6943 16.0743ZM10.748 23.2128C10.748 22.6605 11.1958 22.2128 11.748 22.2128H22.1715C22.7238 22.2128 23.1715 22.6605 23.1715 23.2128C23.1715 23.7651 22.7238 24.2128 22.1715 24.2128H11.748C11.1958 24.2128 10.748 23.7651 10.748 23.2128ZM7.53662 21.1281C7.53662 20.5758 7.08891 20.1281 6.53662 20.1281C5.98434 20.1281 5.53662 20.5758 5.53662 21.1281V28.4245C5.53662 28.9767 5.98434 29.4245 6.53662 29.4245H27.3835C27.9358 29.4245 28.3835 28.9767 28.3835 28.4245V21.1281C28.3835 20.5758 27.9358 20.1281 27.3835 20.1281C26.8312 20.1281 26.3835 20.5758 26.3835 21.1281V27.4245H7.53662V21.1281Z" fill="#1C1B1F"/>
</svg>
