<svg width="33" height="33" viewBox="0 0 33 33" fill="none" xmlns="http://www.w3.org/2000/svg">
<path fill-rule="evenodd" clip-rule="evenodd" d="M14.8224 17.1431L12.473 6.30009C12.0679 4.43073 13.4922 2.66479 15.4049 2.66479H18.9937C20.9559 2.66479 22.3899 4.51761 21.8978 6.41717L19.119 17.1431L27.7135 17.1431C28.2658 17.1431 28.7135 17.5909 28.7135 18.1431V23.6226C28.7135 24.1749 28.2658 24.6226 27.7135 24.6226H6.20654C5.65426 24.6226 5.20654 24.1749 5.20654 23.6226V18.1431C5.20654 17.5909 5.65426 17.1431 6.20654 17.1431L14.8224 17.1431ZM5.20654 28.533C5.20654 27.9807 5.65426 27.533 6.20654 27.533H27.7135C28.2658 27.533 28.7135 27.9807 28.7135 28.533C28.7135 29.0853 28.2658 29.533 27.7135 29.533H6.20654C5.65426 29.533 5.20654 29.0853 5.20654 28.533Z" fill="#1C1B1F"/>
</svg>
