<svg width="32" height="33" viewBox="0 0 32 33" fill="none" xmlns="http://www.w3.org/2000/svg">
<path fill-rule="evenodd" clip-rule="evenodd" d="M13.4382 17.6005L10.4664 3.88529C10.0613 2.01593 11.4856 0.25 13.3984 0.25H19.2059C21.1681 0.25 22.6021 2.10281 22.11 4.00237L18.5871 17.6005H13.4382ZM1.91504 18.6006C1.91504 18.0483 2.36275 17.6006 2.91504 17.6006H29.0853C29.6376 17.6006 30.0853 18.0483 30.0853 18.6006V25.5638C30.0853 26.1161 29.6376 26.5638 29.0853 26.5638H2.91504C2.36275 26.5638 1.91504 26.1161 1.91504 25.5638V18.6006ZM2.11351 31.2499C2.11351 30.6976 2.56122 30.2499 3.11351 30.2499H28.887C29.4393 30.2499 29.887 30.6976 29.887 31.2499C29.887 31.8021 29.4393 32.2499 28.887 32.2499H3.11351C2.56122 32.2499 2.11351 31.8021 2.11351 31.2499Z" fill="#111827"/>
</svg>
