<svg width="33" height="33" viewBox="0 0 33 33" fill="none" xmlns="http://www.w3.org/2000/svg">
<path d="M16.491 6.05021C16.6521 5.6149 17.2678 5.6149 17.4289 6.05021L20.1213 13.3262C20.1719 13.4631 20.2798 13.571 20.4167 13.6217L27.6927 16.314C28.128 16.4751 28.128 17.0908 27.6927 17.2519L20.4167 19.9443C20.2798 19.9949 20.1719 20.1028 20.1213 20.2397L17.4289 27.5157C17.2678 27.951 16.6521 27.951 16.491 27.5157L13.7987 20.2397C13.748 20.1028 13.6401 19.9949 13.5033 19.9443L6.22722 17.2519C5.79191 17.0908 5.7919 16.4751 6.22721 16.314L13.5033 13.6217C13.6401 13.571 13.748 13.4631 13.7987 13.3262L16.491 6.05021Z" fill="#1C1B1F"/>
</svg>
