<svg width="33" height="33" viewBox="0 0 33 33" fill="none" xmlns="http://www.w3.org/2000/svg">
<path d="M16.4841 3.59243C16.6338 3.13177 17.2855 3.13178 17.4352 3.59243L20.0252 11.5636C20.0921 11.7696 20.2841 11.9091 20.5007 11.9091H28.882C29.3664 11.9091 29.5678 12.5289 29.1759 12.8136L22.3953 17.74C22.22 17.8673 22.1467 18.093 22.2136 18.299L24.8036 26.2702C24.9533 26.7308 24.4261 27.1139 24.0342 26.8292L17.2535 21.9028C17.0783 21.7754 16.841 21.7754 16.6657 21.9028L9.88509 26.8292C9.49323 27.1139 8.96599 26.7308 9.11567 26.2702L11.7057 18.299C11.7726 18.093 11.6993 17.8673 11.524 17.74L4.74336 12.8136C4.3515 12.5289 4.55289 11.9091 5.03725 11.9091H13.4186C13.6352 11.9091 13.8272 11.7696 13.8941 11.5636L16.4841 3.59243Z" fill="#1C1B1F"/>
</svg>
