<svg width="32" height="33" viewBox="0 0 32 33" fill="none" xmlns="http://www.w3.org/2000/svg">
<path d="M15.5311 1.76725C15.6922 1.33194 16.3078 1.33194 16.4689 1.76725L20.2417 11.9629C20.2923 12.0998 20.4002 12.2077 20.5371 12.2583L30.7327 16.0311C31.1681 16.1922 31.1681 16.8078 30.7327 16.9689L20.5371 20.7417C20.4002 20.7923 20.2923 20.9002 20.2417 21.0371L16.4689 31.2327C16.3078 31.6681 15.6922 31.6681 15.5311 31.2327L11.7583 21.0371C11.7077 20.9002 11.5998 20.7923 11.4629 20.7417L1.26725 16.9689C0.831943 16.8078 0.831944 16.1922 1.26725 16.0311L11.4629 12.2583C11.5998 12.2077 11.7077 12.0998 11.7583 11.9629L15.5311 1.76725Z" fill="#111827"/>
</svg>
