<svg width="33" height="33" viewBox="0 0 33 33" fill="none" xmlns="http://www.w3.org/2000/svg">
<path fill-rule="evenodd" clip-rule="evenodd" d="M5.95996 4.2829H27.96C28.5122 4.2829 28.96 4.73061 28.96 5.2829V17.173C28.96 17.4398 28.8534 17.6955 28.6639 17.8833L18.4632 27.9932C18.2759 28.1788 18.0229 28.2829 17.7592 28.2829H5.95996C5.40768 28.2829 4.95996 27.8352 4.95996 27.2829V5.2829C4.95996 4.73061 5.40768 4.2829 5.95996 4.2829ZM18.0508 26.0721V22.3738C18.0508 19.6124 20.2894 17.3738 23.0508 17.3738H26.7079C27.1527 17.3738 27.3761 17.9111 27.0623 18.2264L18.9052 26.4248C18.5906 26.741 18.0508 26.5182 18.0508 26.0721Z" fill="#1C1B1F"/>
</svg>
