<svg width="32" height="32" viewBox="0 0 32 32" fill="none" xmlns="http://www.w3.org/2000/svg">
<path fill-rule="evenodd" clip-rule="evenodd" d="M1 0H31C31.5523 0 32 0.447715 32 1V17.3258C32 17.5925 31.8934 17.8482 31.7039 18.036L17.9068 31.7103C17.7195 31.8959 17.4666 32 17.2029 32H0.999999C0.447714 32 0 31.5523 0 31V1C0 0.447715 0.447715 0 1 0ZM17.4544 29.4561V22.4545C17.4544 19.6931 19.693 17.4545 22.4544 17.4545H29.3981C29.843 17.4545 30.0663 17.9918 29.7526 18.3072L18.3089 29.8087C17.9943 30.1249 17.4544 29.9021 17.4544 29.4561Z" fill="#111827"/>
</svg>
