<svg width="33" height="33" viewBox="0 0 33 33" fill="none" xmlns="http://www.w3.org/2000/svg">
<path d="M26.9421 27.2633V18.2795H6.97803V27.2633H26.9421Z" fill="#1C1B1F"/>
<path d="M26.9421 27.2633V18.2795H6.97803V27.2633H26.9421Z" stroke="#1C1B1F" stroke-width="2" stroke-linejoin="round"/>
<path d="M20.8827 14.3563C20.8827 15.3968 20.4694 16.3946 19.7337 17.1303C18.998 17.866 18.0001 18.2794 16.9597 18.2794C15.9192 18.2794 14.9213 17.866 14.1856 17.1303C13.4499 16.3946 13.0366 15.3968 13.0366 14.3563" stroke="#1C1B1F" stroke-width="2" stroke-linecap="round" stroke-linejoin="round"/>
<path d="M13.0366 14.3563C13.0366 15.3835 12.6337 16.3697 11.9145 17.1032C11.1952 17.8366 10.217 18.2586 9.19001 18.2786C6.99065 18.3207 5.19043 16.4786 5.19043 14.2788V12.7409C5.19043 12.0065 6.48219 6.3021 7.00152 5.78277C7.52085 5.26344 8.22521 4.97168 8.95966 4.97168H24.9597C25.6941 4.97168 26.3985 5.26344 26.9178 5.78277C27.4371 6.3021 28.7289 12.0065 28.7289 12.7409V14.2788C28.7289 16.4786 26.9287 18.3207 24.7293 18.2786C23.7023 18.2586 22.7241 17.8366 22.0049 17.1032C21.2856 16.3697 20.8827 15.3835 20.8827 14.3563" stroke="#1C1B1F" stroke-width="2" stroke-linecap="round" stroke-linejoin="round"/>
</svg>
