<svg width="32" height="32" viewBox="0 0 32 32" fill="none" xmlns="http://www.w3.org/2000/svg">
<path fill-rule="evenodd" clip-rule="evenodd" d="M4.05333 4.00101L4.05685 3.99454C4.52687 3.54569 5.15236 3.29443 5.80375 3.29443H26.1962C26.8476 3.29443 27.4731 3.54569 27.9431 3.99454L27.9466 4.00101C27.9726 4.04926 28.0095 4.12714 28.0561 4.24066C28.149 4.46692 28.2578 4.77843 28.3776 5.1606C28.6162 5.92163 28.8784 6.89912 29.123 7.89756C29.3672 8.89392 29.5905 9.89711 29.752 10.7051C29.8329 11.1097 29.8972 11.4594 29.9407 11.7317C29.9625 11.8681 29.9782 11.9796 29.9883 12.0657C29.9992 12.1595 30.0002 12.1969 30.0002 12.1965V14.1566C30.0002 16.4258 28.1403 18.2972 25.9218 18.2547C24.8747 18.2342 23.8775 17.8039 23.1442 17.0562C22.4109 16.3084 22.0001 15.3028 22.0001 14.2554C22.0001 13.7031 21.5523 13.2554 21.0001 13.2554C20.4478 13.2554 20.0001 13.7031 20.0001 14.2554C20.0001 15.3163 19.5786 16.3337 18.8285 17.0839C18.0783 17.834 17.0609 18.2555 16 18.2555C14.9391 18.2555 13.9217 17.834 13.1715 17.0839C12.4213 16.3337 11.9999 15.3163 11.9999 14.2554C11.9999 13.7031 11.5522 13.2554 10.9999 13.2554C10.4476 13.2554 9.99991 13.7031 9.99991 14.2554C9.99991 15.3028 9.58911 16.3084 8.85575 17.0562C8.12249 17.8039 7.12525 18.2342 6.07821 18.2547C3.85967 18.2972 1.99976 16.4258 1.99976 14.1566V12.1965L1.99976 12.1964C1.99985 12.1938 2.0012 12.1557 2.01168 12.0657C2.02172 11.9796 2.03745 11.8681 2.05925 11.7317C2.1028 11.4594 2.16704 11.1097 2.24793 10.7051C2.40951 9.89711 2.6328 8.89392 2.87695 7.89756C3.12161 6.89912 3.38378 5.92163 3.62235 5.1606C3.74215 4.77843 3.85102 4.46692 3.9439 4.24066C3.9905 4.12714 4.02733 4.04926 4.05333 4.00101ZM27.9271 3.9673C27.9271 3.96725 27.9279 3.9684 27.9294 3.97091L27.9271 3.9673ZM28.7227 19.5843C30.6739 18.5613 32.0002 16.4838 32.0002 14.1566V12.1965C32.0002 11.9889 31.9607 11.6981 31.9156 11.416C31.8666 11.109 31.797 10.732 31.7132 10.313C31.5454 9.47382 31.3157 8.44253 31.0655 7.42155C30.8159 6.40265 30.5423 5.37993 30.2861 4.56235C30.1584 4.15522 30.0301 3.78282 29.9062 3.48114C29.8445 3.33068 29.7781 3.18358 29.7072 3.05215C29.6447 2.93621 29.5445 2.76657 29.399 2.62108C28.5496 1.77164 27.3975 1.29443 26.1962 1.29443H5.80375C4.60246 1.29443 3.45038 1.77164 2.60094 2.62108C2.45545 2.76657 2.35523 2.93621 2.29275 3.05215C2.22192 3.18358 2.1555 3.33068 2.09373 3.48114C1.96989 3.78282 1.84154 4.15522 1.71392 4.56235C1.45763 5.37993 1.1841 6.40265 0.93442 7.42155C0.684238 8.44253 0.454561 9.47382 0.286759 10.313C0.202962 10.732 0.133406 11.109 0.0843312 11.416C0.0392358 11.6981 -0.000244141 11.9889 -0.000244141 12.1965V14.1566C-0.000244141 16.484 1.32631 18.5617 3.27781 19.5845V30.7057H28.7227V19.5843ZM4.07052 3.97091C4.07209 3.9684 4.07289 3.96725 4.07289 3.9673L4.07052 3.97091Z" fill="#111827"/>
</svg>
