<svg width="32" height="33" viewBox="0 0 32 33" fill="none" xmlns="http://www.w3.org/2000/svg">
<path fill-rule="evenodd" clip-rule="evenodd" d="M4.05333 4.50101L4.05685 4.49454C4.52687 4.04569 5.15236 3.79443 5.80375 3.79443H26.1962C26.8476 3.79443 27.4731 4.04569 27.9431 4.49454L27.9466 4.50101C27.9726 4.54926 28.0095 4.62714 28.0561 4.74066C28.149 4.96692 28.2578 5.27843 28.3776 5.6606C28.6162 6.42163 28.8784 7.39912 29.123 8.39756C29.3672 9.39392 29.5905 10.3971 29.752 11.2051C29.8329 11.6097 29.8972 11.9594 29.9407 12.2317C29.9625 12.3681 29.9782 12.4796 29.9883 12.5657C29.9992 12.6595 30.0002 12.6969 30.0002 12.6965V14.6566C30.0002 16.9258 28.1403 18.7972 25.9218 18.7547C24.8747 18.7342 23.8775 18.3039 23.1442 17.5562C22.4109 16.8084 22.0001 15.8028 22.0001 14.7554C22.0001 14.2031 21.5523 13.7554 21.0001 13.7554C20.4478 13.7554 20.0001 14.2031 20.0001 14.7554C20.0001 15.8163 19.5786 16.8337 18.8285 17.5839C18.0783 18.334 17.0609 18.7555 16 18.7555C14.9391 18.7555 13.9217 18.334 13.1715 17.5839C12.4213 16.8337 11.9999 15.8163 11.9999 14.7554C11.9999 14.2031 11.5522 13.7554 10.9999 13.7554C10.4476 13.7554 9.99991 14.2031 9.99991 14.7554C9.99991 15.8028 9.58911 16.8084 8.85575 17.5562C8.12249 18.3039 7.12525 18.7342 6.07821 18.7547C3.85967 18.7972 1.99976 16.9258 1.99976 14.6566V12.6965L1.99976 12.6964C1.99985 12.6938 2.0012 12.6557 2.01168 12.5657C2.02172 12.4796 2.03745 12.3681 2.05925 12.2317C2.1028 11.9594 2.16704 11.6097 2.24793 11.2051C2.40951 10.3971 2.6328 9.39392 2.87695 8.39756C3.12161 7.39912 3.38378 6.42163 3.62235 5.6606C3.74215 5.27843 3.85102 4.96692 3.9439 4.74066C3.9905 4.62714 4.02733 4.54926 4.05333 4.50101ZM27.9271 4.4673C27.9271 4.46725 27.9279 4.4684 27.9294 4.47091L27.9271 4.4673ZM28.7227 20.0843C30.6739 19.0613 32.0002 16.9838 32.0002 14.6566V12.6965C32.0002 12.4889 31.9607 12.1981 31.9156 11.916C31.8666 11.609 31.797 11.232 31.7132 10.813C31.5454 9.97382 31.3157 8.94253 31.0655 7.92155C30.8159 6.90265 30.5423 5.87993 30.2861 5.06235C30.1584 4.65522 30.0301 4.28282 29.9062 3.98114C29.8445 3.83068 29.7781 3.68358 29.7072 3.55215C29.6447 3.43621 29.5445 3.26657 29.399 3.12108C28.5496 2.27164 27.3975 1.79443 26.1962 1.79443H5.80375C4.60246 1.79443 3.45038 2.27164 2.60094 3.12108C2.45545 3.26657 2.35523 3.43621 2.29275 3.55215C2.22192 3.68358 2.1555 3.83068 2.09373 3.98114C1.96989 4.28282 1.84154 4.65522 1.71392 5.06235C1.45763 5.87993 1.1841 6.90265 0.93442 7.92155C0.684238 8.94253 0.454561 9.97382 0.286759 10.813C0.202962 11.232 0.133406 11.609 0.0843312 11.916C0.0392358 12.1981 -0.000244141 12.4889 -0.000244141 12.6965V14.6566C-0.000244141 16.984 1.32631 19.0617 3.27781 20.0845V31.2057H28.7227V20.0843ZM4.07052 4.47091C4.07209 4.4684 4.07289 4.46725 4.07289 4.4673L4.07052 4.47091Z" fill="#111827"/>
</svg>
