<svg width="32" height="33" viewBox="0 0 32 33" fill="none" xmlns="http://www.w3.org/2000/svg">
<path fill-rule="evenodd" clip-rule="evenodd" d="M19.2928 9.28086C18.9022 8.89034 18.9022 8.25718 19.2928 7.86665L24.7227 2.43669C25.1133 2.04617 25.7464 2.04617 26.1369 2.43669L31.5669 7.86665C31.9574 8.25718 31.9574 8.89034 31.5669 9.28086C31.1764 9.67139 30.5432 9.67139 30.1527 9.28086L26.461 5.58922V15.7945C26.461 16.3468 26.0133 16.7945 25.461 16.7945H4.39678V23.3145C4.39678 23.4209 4.38017 23.5233 4.34942 23.6195C5.62153 24.0424 6.53892 25.2423 6.53892 26.6564C6.53892 28.4235 5.10639 29.856 3.33928 29.856C1.57217 29.856 0.139648 28.4235 0.139648 26.6564C0.139648 25.2036 1.10787 23.977 2.43422 23.5865C2.40983 23.5001 2.39678 23.4088 2.39678 23.3145V15.7945C2.39678 15.2422 2.84449 14.7945 3.39678 14.7945H24.461V5.5268L20.707 9.28086C20.3165 9.67139 19.6833 9.67139 19.2928 9.28086ZM7.17884 2.14407C7.73113 2.14407 8.17884 2.59178 8.17884 3.14407V5.98363H11.0184C11.5707 5.98363 12.0184 6.43134 12.0184 6.98363C12.0184 7.53591 11.5707 7.98363 11.0184 7.98363H8.17884V10.8232C8.17884 11.3755 7.73113 11.8232 7.17884 11.8232C6.62656 11.8232 6.17884 11.3755 6.17884 10.8232V7.98363H3.33928C2.787 7.98363 2.33928 7.53591 2.33928 6.98363C2.33928 6.43134 2.787 5.98363 3.33928 5.98363H6.17884V3.14407C6.17884 2.59178 6.62656 2.14407 7.17884 2.14407ZM19.7377 22.7496C19.3472 22.3591 18.714 22.3591 18.3235 22.7496C17.933 23.1402 17.933 23.7733 18.3235 24.1639L20.816 26.6564L18.3235 29.1489C17.933 29.5394 17.933 30.1726 18.3235 30.5631C18.714 30.9536 19.3472 30.9536 19.7377 30.5631L22.2302 28.0706L24.7228 30.5631C25.1133 30.9536 25.7465 30.9536 26.137 30.5631C26.5275 30.1726 26.5275 29.5394 26.137 29.1489L23.6445 26.6564L26.137 24.1639C26.5275 23.7733 26.5275 23.1402 26.137 22.7496C25.7465 22.3591 25.1133 22.3591 24.7228 22.7496L22.2302 25.2422L19.7377 22.7496Z" fill="#111827"/>
</svg>
