<svg width="32" height="32" viewBox="0 0 32 32" fill="none" xmlns="http://www.w3.org/2000/svg">
<path fill-rule="evenodd" clip-rule="evenodd" d="M19.2928 8.78086C18.9022 8.39034 18.9022 7.75718 19.2928 7.36665L24.7227 1.93669C25.1133 1.54617 25.7464 1.54617 26.1369 1.93669L31.5669 7.36665C31.9574 7.75718 31.9574 8.39034 31.5669 8.78086C31.1764 9.17139 30.5432 9.17139 30.1527 8.78086L26.461 5.08922V15.2945C26.461 15.8468 26.0133 16.2945 25.461 16.2945H4.39678V22.8145C4.39678 22.9209 4.38017 23.0233 4.34942 23.1195C5.62153 23.5424 6.53892 24.7423 6.53892 26.1564C6.53892 27.9235 5.10639 29.356 3.33928 29.356C1.57217 29.356 0.139648 27.9235 0.139648 26.1564C0.139648 24.7036 1.10787 23.477 2.43422 23.0865C2.40983 23.0001 2.39678 22.9088 2.39678 22.8145V15.2945C2.39678 14.7422 2.84449 14.2945 3.39678 14.2945H24.461V5.0268L20.707 8.78086C20.3165 9.17139 19.6833 9.17139 19.2928 8.78086ZM7.17884 1.64407C7.73113 1.64407 8.17884 2.09178 8.17884 2.64407V5.48363H11.0184C11.5707 5.48363 12.0184 5.93134 12.0184 6.48363C12.0184 7.03591 11.5707 7.48363 11.0184 7.48363H8.17884V10.3232C8.17884 10.8755 7.73113 11.3232 7.17884 11.3232C6.62656 11.3232 6.17884 10.8755 6.17884 10.3232V7.48363H3.33928C2.787 7.48363 2.33928 7.03591 2.33928 6.48363C2.33928 5.93134 2.787 5.48363 3.33928 5.48363H6.17884V2.64407C6.17884 2.09178 6.62656 1.64407 7.17884 1.64407ZM19.7377 22.2496C19.3472 21.8591 18.714 21.8591 18.3235 22.2496C17.933 22.6402 17.933 23.2733 18.3235 23.6639L20.816 26.1564L18.3235 28.6489C17.933 29.0394 17.933 29.6726 18.3235 30.0631C18.714 30.4536 19.3472 30.4536 19.7377 30.0631L22.2302 27.5706L24.7228 30.0631C25.1133 30.4536 25.7465 30.4536 26.137 30.0631C26.5275 29.6726 26.5275 29.0394 26.137 28.6489L23.6445 26.1564L26.137 23.6639C26.5275 23.2733 26.5275 22.6402 26.137 22.2496C25.7465 21.8591 25.1133 21.8591 24.7228 22.2496L22.2302 24.7422L19.7377 22.2496Z" fill="#111827"/>
</svg>
