<svg width="32" height="32" viewBox="0 0 32 32" fill="none" xmlns="http://www.w3.org/2000/svg">
<path fill-rule="evenodd" clip-rule="evenodd" d="M1 0C0.447715 0 0 0.447715 0 1V31C0 31.5523 0.447715 32 1 32H31C31.5523 32 32 31.5523 32 31V1C32 0.447715 31.5523 0 31 0H1ZM10.2438 11.2397C10.2438 10.3111 10.7335 9.39956 11.7251 8.68485C12.7216 7.96661 14.1966 7.47933 16.0002 7.47933C18.7355 7.47933 20.6482 8.58487 21.3879 9.88207C21.6615 10.3618 22.2722 10.529 22.7519 10.2554C23.2317 9.98185 23.3989 9.37115 23.1253 8.89138C21.9165 6.77148 19.1915 5.47933 16.0002 5.47933C13.8529 5.47933 11.9496 6.05769 10.5557 7.06235C9.15687 8.07054 8.24379 9.53915 8.24379 11.2397C8.24379 13.174 9.50846 14.3357 10.9673 15.0707C12.2867 15.7355 13.9866 16.1695 15.5735 16.5747L15.5736 16.5747C15.7 16.607 15.8256 16.6391 15.9504 16.6711C17.716 17.1242 19.3152 17.5663 20.479 18.2411C21.5879 18.8841 22.1541 19.6441 22.1541 20.7603C22.1541 21.6356 21.6209 22.5512 20.5048 23.2939C19.3959 24.0317 17.8062 24.5207 16.0002 24.5207C14.1943 24.5207 12.6046 24.0317 11.4957 23.2939C10.3796 22.5512 9.84635 21.6356 9.84635 20.7603C9.84635 20.208 9.39864 19.7603 8.84635 19.7603C8.29407 19.7603 7.84635 20.208 7.84635 20.7603C7.84635 22.5141 8.91457 23.9787 10.3877 24.9589C11.868 25.9439 13.8552 26.5207 16.0002 26.5207C18.1452 26.5207 20.1325 25.9439 21.6128 24.9589C23.0859 23.9787 24.1541 22.5141 24.1541 20.7603C24.1541 18.703 22.9816 17.3803 21.4823 16.5109C20.0379 15.6734 18.1595 15.1733 16.4476 14.7339L16.1406 14.6552C14.4765 14.2291 12.9828 13.8466 11.8672 13.2846C10.7179 12.7056 10.2438 12.0822 10.2438 11.2397Z" fill="#111827"/>
</svg>
