<svg width="33" height="33" viewBox="0 0 33 33" fill="none" xmlns="http://www.w3.org/2000/svg">
<path fill-rule="evenodd" clip-rule="evenodd" d="M5.96021 4.42444C5.40792 4.42444 4.96021 4.87215 4.96021 5.42444V27.4244C4.96021 27.9767 5.40792 28.4244 5.96021 28.4244H27.9602C28.5125 28.4244 28.9602 27.9767 28.9602 27.4244V5.42444C28.9602 4.87215 28.5125 4.42444 27.9602 4.42444H5.96021ZM12.893 12.8542C12.893 12.2543 13.2074 11.6402 13.9002 11.1409C14.5979 10.638 15.6506 10.2839 16.9604 10.2839C18.9548 10.2839 20.2878 11.0898 20.784 11.9598C21.0575 12.4396 21.6682 12.6067 22.148 12.3332C22.6278 12.0596 22.7949 11.4489 22.5214 10.9691C21.5561 9.27637 19.4108 8.28394 16.9604 8.28394C15.3069 8.28394 13.8259 8.72909 12.7308 9.51839C11.6308 10.3112 10.893 11.4823 10.893 12.8542C10.893 14.4414 11.9404 15.38 13.0732 15.9508C14.0885 16.4622 15.3898 16.7943 16.5726 17.0962L16.5726 17.0962L16.8608 17.1699C18.1917 17.5115 19.3563 17.8358 20.1941 18.3215C20.9769 18.7755 21.3258 19.2752 21.3258 19.9947C21.3258 20.5413 20.9927 21.1594 20.2003 21.6867C19.4151 22.2092 18.2725 22.5649 16.9604 22.5649C15.6483 22.5649 14.5057 22.2092 13.7204 21.6867C12.928 21.1594 12.595 20.5413 12.595 19.9947C12.595 19.4424 12.1473 18.9947 11.595 18.9947C11.0427 18.9947 10.595 19.4424 10.595 19.9947C10.595 21.4198 11.463 22.5869 12.6125 23.3518C13.7691 24.1214 15.3093 24.5649 16.9604 24.5649C18.6115 24.5649 20.1516 24.1214 21.3083 23.3518C22.4578 22.5869 23.3258 21.4198 23.3258 19.9947C23.3258 18.334 22.3706 17.2717 21.1973 16.5914C20.0789 15.9429 18.6353 15.5605 17.358 15.2327L17.1407 15.177L17.1407 15.177C15.8798 14.854 14.7845 14.5734 13.9731 14.1646C13.1498 13.7499 12.893 13.3496 12.893 12.8542Z" fill="#1C1B1F"/>
</svg>
