<svg width="32" height="32" viewBox="0 0 32 32" fill="none" xmlns="http://www.w3.org/2000/svg">
<path fill-rule="evenodd" clip-rule="evenodd" d="M30.0947 5.47344L23.3276 7.79856C24.7753 9.50766 25.6496 11.7204 25.6496 14.1368C25.6496 17.7265 23.7217 20.8659 20.8449 22.5761C22.8806 23.1453 24.47 24.0733 25.6824 25.164C27.7399 27.0148 28.6525 29.2821 28.8474 30.8791C28.9143 31.4273 28.5241 31.9259 27.9758 31.9928C27.4276 32.0597 26.929 31.6695 26.8621 31.1213C26.7231 29.9824 26.0275 28.1645 24.3449 26.6509C22.6854 25.1581 20.004 23.907 15.794 23.9772C7.42596 24.1166 5.02455 29.0093 4.7782 31.1163C4.71407 31.6649 4.21739 32.0576 3.66884 31.9934C3.12029 31.9293 2.7276 31.4326 2.79173 30.8841C3.0849 28.3766 5.24404 24.2441 10.941 22.6398C8.00417 20.9445 6.02765 17.7715 6.02765 14.1368C6.02765 11.6798 6.93164 9.43326 8.42319 7.71273L4.18799 6.25755L4.18799 18.0729C4.18799 18.6252 3.74027 19.0729 3.18799 19.0729C2.6357 19.0729 2.18799 18.6252 2.18799 18.0729L2.18799 5.57037L1.90589 5.47344C1.45144 5.3173 1.4574 4.67252 1.91465 4.52479L15.8466 0.0237261C15.9465 -0.00855989 16.0541 -0.00855967 16.154 0.0237263L30.086 4.52479C30.5432 4.67252 30.5492 5.3173 30.0947 5.47344ZM16.1628 10.2603L21.2565 8.51018C22.733 9.93218 23.6496 11.927 23.6496 14.1368C23.6496 18.4507 20.1525 21.9478 15.8386 21.9478C11.5247 21.9478 8.02765 18.4507 8.02765 14.1368C8.02765 11.8844 8.97989 9.85539 10.5067 8.42862L15.8378 10.2603C15.9431 10.2965 16.0575 10.2965 16.1628 10.2603Z" fill="#111827"/>
</svg>
