<svg width="32" height="33" viewBox="0 0 32 33" fill="none" xmlns="http://www.w3.org/2000/svg">
<path fill-rule="evenodd" clip-rule="evenodd" d="M30.0947 5.97344L23.3276 8.29856C24.7753 10.0077 25.6496 12.2204 25.6496 14.6368C25.6496 18.2265 23.7217 21.3659 20.8449 23.0761C22.8806 23.6453 24.47 24.5733 25.6824 25.664C27.7399 27.5148 28.6525 29.7821 28.8474 31.3791C28.9143 31.9273 28.5241 32.4259 27.9758 32.4928C27.4276 32.5597 26.929 32.1695 26.8621 31.6213C26.7231 30.4824 26.0275 28.6645 24.3449 27.1509C22.6854 25.6581 20.004 24.407 15.794 24.4772C7.42596 24.6166 5.02455 29.5093 4.7782 31.6163C4.71407 32.1649 4.21739 32.5576 3.66884 32.4934C3.12029 32.4293 2.7276 31.9326 2.79173 31.3841C3.0849 28.8766 5.24404 24.7441 10.941 23.1398C8.00417 21.4445 6.02765 18.2715 6.02765 14.6368C6.02765 12.1798 6.93164 9.93326 8.42319 8.21273L4.18799 6.75755L4.18799 18.5729C4.18799 19.1252 3.74027 19.5729 3.18799 19.5729C2.6357 19.5729 2.18799 19.1252 2.18799 18.5729L2.18799 6.07037L1.90589 5.97344C1.45144 5.8173 1.4574 5.17252 1.91465 5.02479L15.8466 0.523726C15.9465 0.49144 16.0541 0.49144 16.154 0.523726L30.086 5.02479C30.5432 5.17252 30.5492 5.8173 30.0947 5.97344ZM16.1628 10.7603L21.2565 9.01018C22.733 10.4322 23.6496 12.427 23.6496 14.6368C23.6496 18.9507 20.1525 22.4478 15.8386 22.4478C11.5247 22.4478 8.02765 18.9507 8.02765 14.6368C8.02765 12.3844 8.97989 10.3554 10.5067 8.92862L15.8378 10.7603C15.9431 10.7965 16.0575 10.7965 16.1628 10.7603Z" fill="#111827"/>
</svg>
