<svg width="33" height="18" viewBox="0 0 33 18" fill="none" xmlns="http://www.w3.org/2000/svg">
<path fill-rule="evenodd" clip-rule="evenodd" d="M15.4015 15.8321C15.0155 15.9117 14.5812 15.9262 14.286 15.6185C14.1985 15.8192 14.0173 15.7738 13.8478 15.7313C13.8063 15.7208 13.7655 15.7106 13.727 15.7042C13.7088 15.7549 13.6931 15.7995 13.6761 15.8502C13.024 15.8937 12.5352 15.23 12.2243 14.7292C11.9251 14.5678 11.6062 14.4369 11.2853 14.3052L11.2853 14.3052C10.9443 14.1653 10.601 14.0244 10.2763 13.8447C10.2692 13.9564 10.2683 14.0732 10.2673 14.1917C10.2634 14.683 10.2593 15.2031 9.8177 15.5015C9.80278 16.0937 10.2856 16.0881 10.7606 16.0826C11.1712 16.0779 11.576 16.0732 11.6483 16.4547C11.6159 16.4583 11.5826 16.4586 11.5493 16.4588C11.4581 16.4595 11.3671 16.4603 11.2962 16.5283C11.0651 16.7526 10.8163 16.6551 10.5586 16.5541C10.3212 16.4612 10.0764 16.3653 9.83104 16.5151C9.60905 16.6266 9.45158 16.7315 9.31143 16.8248C9.0177 17.0205 8.80009 17.1655 8.22424 17.2137C8.1771 17.1425 8.19643 17.0954 8.23634 17.052C8.31528 16.9606 8.37005 16.8638 8.42263 16.7708C8.52965 16.5817 8.62762 16.4085 8.90182 16.3292C8.53509 16.2714 8.22064 16.4398 7.91135 16.6053C7.86556 16.6299 7.81988 16.6543 7.77416 16.678C7.58079 16.7569 7.46918 16.6949 7.35244 16.63C7.19086 16.5403 7.01945 16.445 6.60784 16.7105C6.52916 16.6466 6.56669 16.5887 6.61145 16.5392C6.7917 16.3196 7.02887 16.287 7.29627 16.2991C6.59919 15.9115 6.09755 16.186 5.68957 16.4092C5.3278 16.6071 5.03967 16.7647 4.75421 16.3848C4.62463 16.419 4.55227 16.5115 4.48012 16.6037C4.45056 16.6415 4.42103 16.6793 4.38761 16.7129C4.31722 16.6359 4.33455 16.5473 4.35229 16.4566C4.35955 16.4195 4.36687 16.3821 4.36828 16.3449C4.35061 16.3367 4.33223 16.329 4.31386 16.3214C4.20907 16.2779 4.10487 16.2346 4.13474 16.0734C3.91508 15.9993 3.75819 16.1182 3.5955 16.2415L3.56732 16.2629C3.46047 16.1803 3.54917 16.0717 3.63131 15.9712C3.66919 15.9248 3.70567 15.8801 3.72094 15.8405C3.79639 15.7097 3.9241 15.7062 4.05087 15.7027C4.15793 15.6998 4.26431 15.6969 4.33799 15.6173C4.60249 15.4673 4.92728 15.5449 5.25527 15.6232C5.49442 15.6803 5.73527 15.7378 5.95569 15.7078C6.35858 15.7585 6.85704 15.3458 6.65497 14.9343C6.28658 14.4648 6.28904 13.8716 6.29141 13.299C6.29181 13.2022 6.2922 13.1059 6.29081 13.011C6.26059 12.7938 5.9509 12.5429 5.64006 12.291C5.40325 12.0991 5.16576 11.9067 5.05067 11.7283C4.73431 11.371 4.48506 10.9592 4.23842 10.5517L4.20855 10.5024C3.78814 9.69064 3.61884 8.7739 3.44998 7.85953C3.24706 6.76076 3.04478 5.66542 2.40817 4.75986C1.88065 5.05069 1.19341 4.91313 0.738524 4.52335C0.500163 4.73996 0.482824 5.02134 0.464345 5.32121L0.462641 5.34875C-0.126596 4.76111 -0.0527784 3.65094 0.417877 2.99695C0.610277 2.73873 0.84015 2.52636 1.09664 2.33933C1.15469 2.2971 1.17408 2.25607 1.17283 2.19091C1.63869 0.100995 4.81593 0.504016 5.82015 1.98458C6.1514 2.39889 6.37756 2.87409 6.60341 3.34866C6.87419 3.91763 7.14455 4.48571 7.5951 4.94693C8.03142 5.42326 8.49159 5.8773 8.9517 6.33129L8.95173 6.3313L8.95173 6.33131C9.66415 7.03423 10.3764 7.73701 10.9998 8.5222C11.9702 9.70352 12.6634 11.0887 13.2684 12.4849C13.367 12.67 13.4266 12.8718 13.4859 13.0728L13.4859 13.0728C13.5751 13.3748 13.6637 13.6747 13.8831 13.9123C13.9361 13.9826 14.0498 14.0885 14.179 14.2089C14.4888 14.4976 14.8879 14.8694 14.753 15.0321C14.7944 15.122 14.9368 15.2247 15.0831 15.3303C15.3254 15.5051 15.5784 15.6876 15.4003 15.8321H15.4015ZM30.8328 8.70322L29.0433 10.4878C28.5666 10.9633 27.9774 11.318 27.3385 11.5123L27.3059 11.5219L27.2938 11.5533C27.0857 12.1011 26.7699 12.5898 26.3537 13.0037L24.5642 14.7883C23.7838 15.5667 22.7457 15.995 21.6398 15.995C20.534 15.995 19.4958 15.5667 18.7154 14.7883C17.1027 13.1799 17.1027 10.5638 18.7154 8.95538L20.5049 7.17077C20.984 6.69294 21.5576 6.34905 22.2073 6.14995L22.24 6.14029L22.2521 6.10892C22.4602 5.56107 22.7771 5.0712 23.1946 4.65367L24.984 2.86906C25.7644 2.09076 26.8025 1.6624 27.9084 1.6624C29.0143 1.6624 30.0524 2.09076 30.8328 2.86906C31.6132 3.64732 32.0427 4.68267 32.0427 5.78555C32.0427 6.88842 31.6132 7.9249 30.8328 8.70203V8.70322ZM27.9091 3.44113C27.2799 3.44113 26.6883 3.68488 26.2454 4.12767L24.456 5.91234C23.9732 6.39379 23.7252 7.0623 23.776 7.74765L23.7869 7.86107C23.851 8.38716 24.0821 8.86138 24.456 9.23301C24.7137 9.49004 24.998 9.65298 25.3428 9.7664C25.361 9.87016 25.3706 9.97511 25.3706 10.0801C25.3706 10.5531 25.1868 10.9972 24.8528 11.3302L24.7427 11.44C24.145 11.2361 23.6465 10.9381 23.1964 10.4892C22.5988 9.89305 22.2031 9.14011 22.0543 8.31358L22.0337 8.19891L21.943 8.27255C21.8813 8.322 21.8232 8.37513 21.7688 8.42938L19.9793 10.214C19.0622 11.1287 19.0622 12.6189 19.9793 13.5335C20.4378 13.9909 21.0404 14.2201 21.6441 14.2201C22.2479 14.2201 22.8492 13.9909 23.3078 13.5335L25.0973 11.7489C26.0144 10.8342 26.0144 9.34525 25.0973 8.42938C24.8528 8.18569 24.5613 8.00224 24.2309 7.88402C24.2128 7.77658 24.2031 7.6692 24.2031 7.56426C24.2031 7.0502 24.4064 6.56271 24.779 6.19107C25.3779 6.39497 25.9091 6.72564 26.358 7.17329C26.9544 7.76816 27.3489 8.51992 27.5001 9.34887L27.5207 9.46348L27.6114 9.3899C27.6732 9.34045 27.7312 9.28733 27.7869 9.23183L29.5764 7.44722C30.4935 6.53253 30.4947 5.04236 29.5764 4.12767C29.1323 3.68488 28.5418 3.44113 27.9115 3.44113H27.9091ZM8.04766 14.0122C8.07232 13.8913 8.0959 13.7756 8.12253 13.6723L8.12372 13.6711C8.16509 13.7677 8.20471 13.8655 8.24428 13.9631C8.47207 14.5252 8.69831 15.0834 9.24776 15.399C9.22357 15.9094 8.58471 16.1157 8.15277 16.053C8.05838 15.8249 7.92533 15.5957 7.64583 15.7236C7.36271 15.837 7.05297 15.7043 7.11831 15.3519C7.77963 15.3269 7.92666 14.6057 8.04766 14.0122Z" fill="#111827"/>
</svg>
