<svg width="32" height="32" viewBox="0 0 32 32" fill="none" xmlns="http://www.w3.org/2000/svg">
<path fill-rule="evenodd" clip-rule="evenodd" d="M9.33333 0.833252C8.78105 0.833252 8.33333 1.28097 8.33333 1.83325V7.16658H1C0.447715 7.16658 0 7.6143 0 8.16659V30.1666C0 30.7189 0.447715 31.1666 1 31.1666H8.33333V7.16663V7.16658H10.3333V7.16663V31.1666H21.6667V7.16663V7.16658H23.6667V7.16663V31.1666H31C31.5523 31.1666 32 30.7189 32 30.1666V8.16658C32 7.6143 31.5523 7.16658 31 7.16658H23.6667V1.83325C23.6667 1.28097 23.219 0.833252 22.6667 0.833252H9.33333ZM21.6667 7.16658V2.83325H10.3333V7.16658H21.6667Z" fill="#111827"/>
</svg>
