<svg width="33" height="33" viewBox="0 0 33 33" fill="none" xmlns="http://www.w3.org/2000/svg">
<path fill-rule="evenodd" clip-rule="evenodd" d="M16.96 3.78296C17.5122 3.78296 17.96 4.23067 17.96 4.78296V6.92582C17.96 7.4781 17.5122 7.92582 16.96 7.92582C16.4077 7.92582 15.96 7.4781 15.96 6.92582V4.78296C15.96 4.23067 16.4077 3.78296 16.96 3.78296ZM16.9598 23.2116C20.5102 23.2116 23.3884 20.3335 23.3884 16.7831C23.3884 13.2327 20.5102 10.3545 16.9598 10.3545C13.4094 10.3545 10.5312 13.2327 10.5312 16.7831C10.5312 20.3335 13.4094 23.2116 16.9598 23.2116ZM9.18123 7.59026C8.7907 7.19973 8.15754 7.19973 7.76701 7.59026C7.37649 7.98078 7.37649 8.61395 7.76701 9.00447L9.27773 10.5152C9.66825 10.9057 10.3014 10.9057 10.6919 10.5152C11.0825 10.1247 11.0825 9.4915 10.6919 9.10097L9.18123 7.59026ZM3.95996 16.783C3.95996 16.2307 4.40768 15.783 4.95996 15.783H7.10282C7.6551 15.783 8.10282 16.2307 8.10282 16.783C8.10282 17.3352 7.6551 17.783 7.10282 17.783H4.95996C4.40768 17.783 3.95996 17.3352 3.95996 16.783ZM10.6919 24.4649C11.0825 24.0744 11.0825 23.4412 10.6919 23.0507C10.3014 22.6602 9.66825 22.6602 9.27773 23.0507L7.76701 24.5614C7.37649 24.9519 7.37649 25.5851 7.76701 25.9756C8.15754 26.3662 8.7907 26.3662 9.18123 25.9756L10.6919 24.4649ZM16.96 25.6401C17.5122 25.6401 17.96 26.0879 17.96 26.6401V28.783C17.96 29.3353 17.5122 29.783 16.96 29.783C16.4077 29.783 15.96 29.3353 15.96 28.783V26.6401C15.96 26.0879 16.4077 25.6401 16.96 25.6401ZM24.6422 23.0507C24.2516 22.6602 23.6185 22.6602 23.228 23.0507C22.8374 23.4412 22.8374 24.0744 23.228 24.4649L24.7387 25.9756C25.1292 26.3662 25.7624 26.3662 26.1529 25.9756C26.5434 25.5851 26.5434 24.9519 26.1529 24.5614L24.6422 23.0507ZM25.8169 16.783C25.8169 16.2307 26.2646 15.783 26.8169 15.783H28.9598C29.512 15.783 29.9598 16.2307 29.9598 16.783C29.9598 17.3352 29.512 17.783 28.9598 17.783H26.8169C26.2646 17.783 25.8169 17.3352 25.8169 16.783ZM26.1529 9.00447C26.5434 8.61395 26.5434 7.98078 26.1529 7.59026C25.7624 7.19973 25.1292 7.19973 24.7387 7.59026L23.228 9.10097C22.8374 9.4915 22.8374 10.1247 23.228 10.5152C23.6185 10.9057 24.2516 10.9057 24.6422 10.5152L26.1529 9.00447Z" fill="#1C1B1F"/>
</svg>
