<svg width="32" height="33" viewBox="0 0 32 33" fill="none" xmlns="http://www.w3.org/2000/svg">
<path fill-rule="evenodd" clip-rule="evenodd" d="M16 0.500977C16.5523 0.500977 17 0.948692 17 1.50098V4.17938C17 4.73166 16.5523 5.17938 16 5.17938C15.4478 5.17938 15 4.73166 15 4.17938V1.50098C15 0.948692 15.4478 0.500977 16 0.500977ZM16.0001 24.5353C20.4378 24.5353 24.0353 20.9378 24.0353 16.5001C24.0353 12.0623 20.4378 8.46486 16.0001 8.46486C11.5623 8.46486 7.96486 12.0623 7.96486 16.5001C7.96486 20.9378 11.5623 24.5353 16.0001 24.5353ZM6.10077 5.18656C5.71025 4.79603 5.07708 4.79603 4.68656 5.18656C4.29603 5.57708 4.29603 6.21025 4.68656 6.60077L6.57483 8.48904C6.96535 8.87957 7.59852 8.87957 7.98904 8.48904C8.37957 8.09852 8.37957 7.46535 7.98904 7.07483L6.10077 5.18656ZM0.000976562 16.5C0.000976562 15.9478 0.448692 15.5 1.00098 15.5H3.67938C4.23166 15.5 4.67938 15.9478 4.67938 16.5C4.67938 17.0523 4.23166 17.5 3.67938 17.5H1.00098C0.448692 17.5 0.000976562 17.0523 0.000976562 16.5ZM7.98904 25.9251C8.37957 25.5345 8.37957 24.9014 7.98904 24.5109C7.59852 24.1203 6.96536 24.1203 6.57483 24.5109L4.68656 26.3991C4.29603 26.7897 4.29603 27.4228 4.68656 27.8133C5.07708 28.2039 5.71025 28.2039 6.10077 27.8133L7.98904 25.9251ZM16 27.8206C16.5523 27.8206 17 28.2683 17 28.8206V31.499C17 32.0513 16.5523 32.499 16 32.499C15.4478 32.499 15 32.0513 15 31.499V28.8206C15 28.2683 15.4478 27.8206 16 27.8206ZM25.4256 24.5109C25.035 24.1203 24.4019 24.1203 24.0113 24.5109C23.6208 24.9014 23.6208 25.5345 24.0113 25.9251L25.8996 27.8133C26.2901 28.2039 26.9233 28.2039 27.3138 27.8133C27.7044 27.4228 27.7044 26.7897 27.3138 26.3991L25.4256 24.5109ZM27.3204 16.5C27.3204 15.9478 27.7681 15.5 28.3204 15.5H30.9988C31.5511 15.5 31.9988 15.9478 31.9988 16.5C31.9988 17.0523 31.5511 17.5 30.9988 17.5H28.3204C27.7681 17.5 27.3204 17.0523 27.3204 16.5ZM27.3138 6.60077C27.7044 6.21025 27.7044 5.57708 27.3138 5.18656C26.9233 4.79603 26.2901 4.79603 25.8996 5.18656L24.0113 7.07483C23.6208 7.46536 23.6208 8.09852 24.0114 8.48904C24.4019 8.87957 25.035 8.87957 25.4256 8.48904L27.3138 6.60077Z" fill="#111827"/>
</svg>
