<svg width="33" height="33" viewBox="0 0 33 33" fill="none" xmlns="http://www.w3.org/2000/svg">
<path fill-rule="evenodd" clip-rule="evenodd" d="M16.96 3.78296C17.5122 3.78296 17.96 4.23067 17.96 4.78296V5.74296C17.96 6.29524 17.5122 6.74296 16.96 6.74296C16.4077 6.74296 15.96 6.29524 15.96 5.74296V4.78296C15.96 4.23067 16.4077 3.78296 16.96 3.78296ZM16.9598 23.983C20.9362 23.983 24.1598 20.7595 24.1598 16.783C24.1598 12.8066 20.9362 9.58301 16.9598 9.58301C12.9833 9.58301 9.75977 12.8066 9.75977 16.783C9.75977 20.7595 12.9833 23.983 16.9598 23.983ZM9.18318 7.59197C8.79266 7.20144 8.15949 7.20144 7.76897 7.59197C7.37844 7.98249 7.37844 8.61565 7.76897 9.00618L8.44097 9.67818C8.83149 10.0687 9.46466 10.0687 9.85518 9.67818C10.2457 9.28765 10.2457 8.65449 9.85518 8.26397L9.18318 7.59197ZM3.95996 16.783C3.95996 16.2307 4.40768 15.783 4.95996 15.783H5.91996C6.47225 15.783 6.91996 16.2307 6.91996 16.783C6.91996 17.3352 6.47225 17.783 5.91996 17.783H4.95996C4.40768 17.783 3.95996 17.3352 3.95996 16.783ZM9.85518 25.3021C10.2457 24.9116 10.2457 24.2784 9.85518 23.8879C9.46466 23.4973 8.83149 23.4973 8.44097 23.8879L7.76897 24.5599C7.37844 24.9504 7.37844 25.5836 7.76897 25.9741C8.15949 26.3646 8.79266 26.3646 9.18318 25.9741L9.85518 25.3021ZM16.96 26.823C17.5122 26.823 17.96 27.2707 17.96 27.823V28.783C17.96 29.3353 17.5122 29.783 16.96 29.783C16.4077 29.783 15.96 29.3353 15.96 28.783V27.823C15.96 27.2707 16.4077 26.823 16.96 26.823ZM25.4791 23.8879C25.0886 23.4973 24.4554 23.4973 24.0649 23.8879C23.6743 24.2784 23.6743 24.9116 24.0649 25.3021L24.7369 25.9741C25.1274 26.3646 25.7606 26.3646 26.1511 25.9741C26.5416 25.5836 26.5416 24.9504 26.1511 24.5599L25.4791 23.8879ZM27 16.783C27 16.2307 27.4477 15.783 28 15.783H28.96C29.5123 15.783 29.96 16.2307 29.96 16.783C29.96 17.3352 29.5123 17.783 28.96 17.783H28C27.4477 17.783 27 17.3352 27 16.783ZM26.1511 9.00618C26.5416 8.61565 26.5416 7.98249 26.1511 7.59196C25.7606 7.20144 25.1274 7.20144 24.7369 7.59197L24.0649 8.26397C23.6743 8.65449 23.6743 9.28766 24.0649 9.67818C24.4554 10.0687 25.0886 10.0687 25.4791 9.67818L26.1511 9.00618Z" fill="#1C1B1F"/>
</svg>
