<svg width="32" height="33" viewBox="0 0 32 33" fill="none" xmlns="http://www.w3.org/2000/svg">
<path fill-rule="evenodd" clip-rule="evenodd" d="M16 0.500732C16.5523 0.500732 17 0.948448 17 1.50073V2.70066C17 3.25294 16.5523 3.70066 16 3.70066C15.4478 3.70066 15 3.25294 15 2.70066V1.50073C15 0.948448 15.4478 0.500732 16 0.500732ZM15.9995 25.4992C20.9698 25.4992 24.999 21.47 24.999 16.4998C24.999 11.5295 20.9698 7.50036 15.9995 7.50036C11.0293 7.50036 7.00011 11.5295 7.00011 16.4998C7.00011 21.47 11.0293 25.4992 15.9995 25.4992ZM6.10322 5.18851C5.71269 4.79799 5.07953 4.79799 4.689 5.18851C4.29848 5.57904 4.29848 6.2122 4.689 6.60273L5.52818 7.44191C5.91871 7.83243 6.55187 7.83243 6.9424 7.44191C7.33292 7.05138 7.33292 6.41822 6.9424 6.02769L6.10322 5.18851ZM0.000976562 16.4998C0.000976562 15.9475 0.448692 15.4998 1.00098 15.4998H2.2009C2.75319 15.4998 3.2009 15.9475 3.2009 16.4998C3.2009 17.0521 2.75319 17.4998 2.2009 17.4998H1.00098C0.448692 17.4998 0.000976562 17.0521 0.000976562 16.4998ZM6.94239 26.9715C7.33292 26.5809 7.33292 25.9478 6.9424 25.5572C6.55187 25.1667 5.91871 25.1667 5.52818 25.5572L4.689 26.3964C4.29848 26.7869 4.29848 27.4201 4.689 27.8106C5.07952 28.2012 5.71269 28.2012 6.10322 27.8106L6.94239 26.9715ZM16 29.299C16.5523 29.299 17 29.7468 17 30.299V31.499C17 32.0512 16.5523 32.499 16 32.499C15.4478 32.499 15 32.0512 15 31.499V30.299C15 29.7468 15.4478 29.299 16 29.299ZM26.4715 25.5572C26.0809 25.1667 25.4478 25.1667 25.0572 25.5572C24.6667 25.9478 24.6667 26.5809 25.0572 26.9715L25.8964 27.8106C26.2869 28.2012 26.9201 28.2012 27.3106 27.8106C27.7012 27.4201 27.7012 26.7869 27.3106 26.3964L26.4715 25.5572ZM28.7993 16.4998C28.7993 15.9475 29.247 15.4998 29.7993 15.4998H30.9992C31.5515 15.4998 31.9992 15.9475 31.9992 16.4998C31.9992 17.0521 31.5515 17.4998 30.9992 17.4998H29.7993C29.247 17.4998 28.7993 17.0521 28.7993 16.4998ZM27.3106 6.60273C27.7012 6.2122 27.7012 5.57904 27.3106 5.18851C26.9201 4.79799 26.2869 4.79799 25.8964 5.18851L25.0572 6.02769C24.6667 6.41822 24.6667 7.05138 25.0572 7.44191C25.4478 7.83243 26.0809 7.83243 26.4715 7.44191L27.3106 6.60273Z" fill="#111827"/>
</svg>
