<svg width="32" height="33" viewBox="0 0 32 33" fill="none" xmlns="http://www.w3.org/2000/svg">
<path fill-rule="evenodd" clip-rule="evenodd" d="M26.0013 3.34839C29.315 3.34839 32.0013 6.03468 32.0013 9.34839V23.8922C32.0013 23.984 31.9889 24.0729 31.9657 24.1574C31.7123 27.2338 29.1351 29.6516 25.9933 29.6516C22.6835 29.6516 20.0004 26.9685 20.0004 23.6587V20.6635H12.0099V23.618C12.0099 26.9278 9.32677 29.6109 6.01699 29.6109C2.98055 29.6109 0.471546 27.3526 0.0778458 24.424C0.026939 24.3041 -0.0012207 24.1721 -0.0012207 24.0336V9.48982C-0.0012207 6.17612 2.68507 3.48982 5.99878 3.48982H7.81393C8.36622 3.48982 8.81393 3.93754 8.81393 4.48982C8.81393 5.04211 8.36622 5.48982 7.81393 5.48982H5.99878C3.78964 5.48982 1.99878 7.28068 1.99878 9.48982V18.6635H30.0013V9.34839C30.0013 7.13925 28.2104 5.34839 26.0013 5.34839H25.229C24.6768 5.34839 24.229 4.90067 24.229 4.34839C24.229 3.7961 24.6768 3.34839 25.229 3.34839H26.0013ZM26.235 22.0005C25.8395 21.615 25.2064 21.6231 24.8209 22.0186C24.4354 22.4141 24.4435 23.0472 24.839 23.4327L26.9832 25.5227C27.3787 25.9082 28.0118 25.9001 28.3973 25.5046C28.7828 25.1092 28.7747 24.476 28.3792 24.0905L26.235 22.0005ZM4.84472 21.9756C5.23027 21.5802 5.86338 21.5722 6.25882 21.9577L8.40306 24.0484C8.79849 24.4339 8.80651 25.067 8.42096 25.4625C8.03541 25.8579 7.40229 25.8659 7.00686 25.4804L4.86262 23.3897C4.46718 23.0042 4.45917 22.3711 4.84472 21.9756Z" fill="#111827"/>
</svg>
