<svg width="32" height="32" viewBox="0 0 32 32" fill="none" xmlns="http://www.w3.org/2000/svg">
<path fill-rule="evenodd" clip-rule="evenodd" d="M26.0013 2.84839C29.315 2.84839 32.0013 5.53468 32.0013 8.84839V23.3922C32.0013 23.484 31.9889 23.5729 31.9657 23.6574C31.7123 26.7338 29.1351 29.1516 25.9933 29.1516C22.6835 29.1516 20.0004 26.4685 20.0004 23.1587V20.1635H12.0099V23.118C12.0099 26.4278 9.32677 29.1109 6.01699 29.1109C2.98055 29.1109 0.471546 26.8526 0.0778458 23.924C0.026939 23.8041 -0.0012207 23.6721 -0.0012207 23.5336V8.98982C-0.0012207 5.67612 2.68507 2.98982 5.99878 2.98982H7.81393C8.36622 2.98982 8.81393 3.43754 8.81393 3.98982C8.81393 4.54211 8.36622 4.98982 7.81393 4.98982H5.99878C3.78964 4.98982 1.99878 6.78068 1.99878 8.98982V18.1635H30.0013V8.84839C30.0013 6.63925 28.2104 4.84839 26.0013 4.84839H25.229C24.6768 4.84839 24.229 4.40067 24.229 3.84839C24.229 3.2961 24.6768 2.84839 25.229 2.84839H26.0013ZM26.235 21.5005C25.8395 21.115 25.2064 21.1231 24.8209 21.5186C24.4354 21.9141 24.4435 22.5472 24.839 22.9327L26.9832 25.0227C27.3787 25.4082 28.0118 25.4001 28.3973 25.0046C28.7828 24.6092 28.7747 23.976 28.3792 23.5905L26.235 21.5005ZM4.84472 21.4756C5.23027 21.0802 5.86338 21.0722 6.25882 21.4577L8.40306 23.5484C8.79849 23.9339 8.80651 24.567 8.42096 24.9625C8.03541 25.3579 7.40229 25.3659 7.00686 24.9804L4.86262 22.8897C4.46718 22.5042 4.45917 21.8711 4.84472 21.4756Z" fill="#111827"/>
</svg>
