<svg width="33" height="33" viewBox="0 0 33 33" fill="none" xmlns="http://www.w3.org/2000/svg">
<path d="M28.9602 18.283H4.96021" stroke="#1C1B1F" stroke-width="2" stroke-linecap="round" stroke-linejoin="round"/>
<path d="M10.0776 6.78296H9.96021C7.19878 6.78296 4.96021 9.02154 4.96021 11.783V21.4582" stroke="#1C1B1F" stroke-width="2" stroke-linecap="round"/>
<path d="M23.8428 6.78296H23.9602C26.7216 6.78296 28.9602 9.02154 28.9602 11.783V21.4582" stroke="#1C1B1F" stroke-width="2" stroke-linecap="round"/>
<path fill-rule="evenodd" clip-rule="evenodd" d="M20.3173 18.283C20.1201 18.283 19.9602 18.4429 19.9602 18.6401V21.283C19.9602 23.7682 21.9749 25.783 24.4602 25.783C26.9455 25.783 28.9602 23.7682 28.9602 21.283V18.6401C28.9602 18.4429 28.8003 18.283 28.6031 18.283H20.3173ZM25.5319 19.0263C24.7509 18.2452 23.4845 18.2452 22.7035 19.0263C21.9225 19.8073 21.9225 21.0736 22.7035 21.8547L24.3136 23.4648C25.0946 24.2458 26.361 24.2458 27.142 23.4648C27.9231 22.6837 27.9231 21.4174 27.142 20.6363L25.5319 19.0263Z" fill="#1C1B1F"/>
<path d="M25.5319 19.0263L26.239 18.3191V18.3191L25.5319 19.0263ZM22.7035 21.8547L21.9964 22.5618L22.7035 21.8547ZM24.3136 23.4648L25.0207 22.7577V22.7577L24.3136 23.4648ZM27.142 23.4648L27.8491 24.1719H27.8491L27.142 23.4648ZM27.142 20.6363L27.8491 19.9292L27.8491 19.9292L27.142 20.6363ZM20.9602 18.6401C20.9602 18.9951 20.6724 19.283 20.3173 19.283V17.283C19.5678 17.283 18.9602 17.8906 18.9602 18.6401H20.9602ZM20.9602 21.283V18.6401H18.9602V21.283H20.9602ZM24.4602 24.783C22.5272 24.783 20.9602 23.216 20.9602 21.283H18.9602C18.9602 24.3205 21.4226 26.783 24.4602 26.783V24.783ZM27.9602 21.283C27.9602 23.216 26.3932 24.783 24.4602 24.783V26.783C27.4978 26.783 29.9602 24.3205 29.9602 21.283H27.9602ZM27.9602 18.6401V21.283H29.9602V18.6401H27.9602ZM28.6031 19.283C28.248 19.283 27.9602 18.9951 27.9602 18.6401H29.9602C29.9602 17.8906 29.3526 17.283 28.6031 17.283V19.283ZM20.3173 19.283H28.6031V17.283H20.3173V19.283ZM23.4106 19.7334C23.8011 19.3428 24.4343 19.3428 24.8248 19.7334L26.239 18.3191C25.0675 17.1476 23.168 17.1476 21.9964 18.3191L23.4106 19.7334ZM23.4106 21.1476C23.0201 20.757 23.0201 20.1239 23.4106 19.7334L21.9964 18.3191C20.8248 19.4907 20.8248 21.3902 21.9964 22.5618L23.4106 21.1476ZM25.0207 22.7577L23.4106 21.1476L21.9964 22.5618L23.6065 24.1719L25.0207 22.7577ZM26.4349 22.7577C26.0444 23.1482 25.4112 23.1482 25.0207 22.7577L23.6065 24.1719C24.7781 25.3434 26.6775 25.3434 27.8491 24.1719L26.4349 22.7577ZM26.4349 21.3434C26.8254 21.734 26.8254 22.3671 26.4349 22.7577L27.8491 24.1719C29.0207 23.0003 29.0207 21.1008 27.8491 19.9292L26.4349 21.3434ZM24.8248 19.7334L26.4349 21.3434L27.8491 19.9292L26.239 18.3191L24.8248 19.7334Z" fill="#1C1B1F"/>
<path fill-rule="evenodd" clip-rule="evenodd" d="M5.31735 18.283C5.1201 18.283 4.96021 18.4429 4.96021 18.6401V21.283C4.96021 23.7682 6.97492 25.783 9.46021 25.783C11.9455 25.783 13.9602 23.7682 13.9602 21.283V18.6401C13.9602 18.4429 13.8003 18.283 13.6031 18.283H5.31735ZM10.5319 19.0263C9.75088 18.2452 8.48455 18.2452 7.7035 19.0263C6.92245 19.8073 6.92245 21.0736 7.7035 21.8547L9.31359 23.4648C10.0946 24.2458 11.361 24.2458 12.142 23.4648C12.9231 22.6837 12.9231 21.4174 12.142 20.6363L10.5319 19.0263Z" fill="#1C1B1F"/>
<path d="M10.5319 19.0263L11.239 18.3191V18.3191L10.5319 19.0263ZM7.7035 21.8547L6.99639 22.5618L7.7035 21.8547ZM9.31359 23.4648L10.0207 22.7577V22.7577L9.31359 23.4648ZM12.142 23.4648L12.8491 24.1719H12.8491L12.142 23.4648ZM12.142 20.6363L12.8491 19.9292L12.8491 19.9292L12.142 20.6363ZM5.96021 18.6401C5.96021 18.9951 5.67239 19.283 5.31735 19.283V17.283C4.56782 17.283 3.96021 17.8906 3.96021 18.6401H5.96021ZM5.96021 21.283V18.6401H3.96021V21.283H5.96021ZM9.46021 24.783C7.52721 24.783 5.96021 23.216 5.96021 21.283H3.96021C3.96021 24.3205 6.42264 26.783 9.46021 26.783V24.783ZM12.9602 21.283C12.9602 23.216 11.3932 24.783 9.46021 24.783V26.783C12.4978 26.783 14.9602 24.3205 14.9602 21.283H12.9602ZM12.9602 18.6401V21.283H14.9602V18.6401H12.9602ZM13.6031 19.283C13.248 19.283 12.9602 18.9951 12.9602 18.6401H14.9602C14.9602 17.8906 14.3526 17.283 13.6031 17.283V19.283ZM5.31735 19.283H13.6031V17.283H5.31735V19.283ZM8.41061 19.7334C8.80113 19.3428 9.43429 19.3428 9.82482 19.7334L11.239 18.3191C10.0675 17.1476 8.16796 17.1476 6.99639 18.3191L8.41061 19.7334ZM8.41061 21.1476C8.02008 20.757 8.02008 20.1239 8.41061 19.7334L6.99639 18.3191C5.82482 19.4907 5.82482 21.3902 6.99639 22.5618L8.41061 21.1476ZM10.0207 22.7577L8.41061 21.1476L6.99639 22.5618L8.60648 24.1719L10.0207 22.7577ZM11.4349 22.7577C11.0444 23.1482 10.4112 23.1482 10.0207 22.7577L8.60648 24.1719C9.77805 25.3434 11.6775 25.3434 12.8491 24.1719L11.4349 22.7577ZM11.4349 21.3434C11.8254 21.734 11.8254 22.3671 11.4349 22.7577L12.8491 24.1719C14.0207 23.0003 14.0207 21.1008 12.8491 19.9292L11.4349 21.3434ZM9.82482 19.7334L11.4349 21.3434L12.8491 19.9292L11.239 18.3191L9.82482 19.7334Z" fill="#1C1B1F"/>
</svg>
