<svg width="34" height="32" viewBox="0 0 34 32" fill="none" xmlns="http://www.w3.org/2000/svg">
<path fill-rule="evenodd" clip-rule="evenodd" d="M27.0013 2.84839C30.315 2.84839 33.0013 5.53468 33.0013 8.84839V23.3922C33.0013 23.484 32.9889 23.5729 32.9657 23.6574C32.7123 26.7338 30.1351 29.1516 26.9933 29.1516C23.6835 29.1516 21.0004 26.4685 21.0004 23.1587V20.1635H13.0099V23.118C13.0099 26.4278 10.3268 29.1109 7.01699 29.1109C3.98055 29.1109 1.47155 26.8526 1.07785 23.924C1.02694 23.8041 0.998779 23.6721 0.998779 23.5336V8.98982C0.998779 5.67612 3.68507 2.98982 6.99878 2.98982H8.81393C9.36622 2.98982 9.81393 3.43754 9.81393 3.98982C9.81393 4.54211 9.36622 4.98982 8.81393 4.98982H6.99878C4.78964 4.98982 2.99878 6.78068 2.99878 8.98982V18.1635H31.0013V8.84839C31.0013 6.63925 29.2104 4.84839 27.0013 4.84839H26.229C25.6768 4.84839 25.229 4.40067 25.229 3.84839C25.229 3.2961 25.6768 2.84839 26.229 2.84839H27.0013ZM27.235 21.5005C26.8395 21.115 26.2064 21.1231 25.8209 21.5186C25.4354 21.9141 25.4435 22.5472 25.839 22.9327L27.9832 25.0227C28.3787 25.4082 29.0118 25.4001 29.3973 25.0046C29.7828 24.6092 29.7747 23.976 29.3792 23.5905L27.235 21.5005ZM5.84472 21.4756C6.23027 21.0802 6.86338 21.0722 7.25882 21.4577L9.40306 23.5484C9.79849 23.9339 9.80651 24.567 9.42096 24.9625C9.03541 25.3579 8.40229 25.3659 8.00686 24.9804L5.86262 22.8897C5.46718 22.5042 5.45917 21.8711 5.84472 21.4756Z" fill="#111827"/>
</svg>
