<svg width="33" height="33" viewBox="0 0 33 33" fill="none" xmlns="http://www.w3.org/2000/svg">
<path fill-rule="evenodd" clip-rule="evenodd" d="M11.9795 7.31507C12.4894 7.10285 13.0748 7.34415 13.287 7.85404L14.112 9.83618C14.3242 10.3461 14.0829 10.9314 13.573 11.1437C13.0631 11.3559 12.4778 11.1146 12.2655 10.6047L11.4405 8.62256C11.2283 8.11268 11.4696 7.5273 11.9795 7.31507ZM4.94738 14.347C5.1596 13.8371 5.74498 13.5958 6.25487 13.808L8.23701 14.633C8.74689 14.8452 8.98819 15.4306 8.77597 15.9405C8.56375 16.4504 7.97837 16.6917 7.46849 16.4794L5.48634 15.6544C4.97646 15.4422 4.73516 14.8568 4.94738 14.347ZM28.4333 15.6544C28.9432 15.4422 29.1845 14.8568 28.9723 14.347C28.76 13.8371 28.1747 13.5958 27.6648 13.808L25.6826 14.633C25.1728 14.8452 24.9314 15.4306 25.1437 15.9405C25.3559 16.4504 25.9413 16.6917 26.4512 16.4794L28.4333 15.6544ZM21.9407 7.31507C22.4506 7.5273 22.6919 8.11268 22.4797 8.62256L21.6547 10.6047C21.4424 11.1146 20.8571 11.3559 20.3472 11.1437C19.8373 10.9314 19.596 10.3461 19.8082 9.83618L20.6332 7.85404C20.8454 7.34415 21.4308 7.10285 21.9407 7.31507ZM4.95996 20.0418C4.40768 20.0418 3.95996 20.4895 3.95996 21.0418C3.95996 21.5941 4.40768 22.0418 4.95996 22.0418H28.96C29.5122 22.0418 29.96 21.5941 29.96 21.0418C29.96 20.4895 29.5122 20.0418 28.96 20.0418H23.3474C23.4203 19.3996 23.3961 18.7481 23.274 18.1094C23.0877 17.1357 22.6788 16.2182 22.0791 15.4287C21.4795 14.6392 20.7054 13.9991 19.8173 13.5584C18.9292 13.1177 17.9512 12.8884 16.9598 12.8884C15.9684 12.8884 14.9904 13.1177 14.1024 13.5584C13.2143 13.9991 12.4402 14.6392 11.8405 15.4287C11.2409 16.2182 10.8319 17.1357 10.6457 18.1094C10.5235 18.7481 10.4994 19.3996 10.5722 20.0418H4.95996ZM7.38867 25.3277C7.38867 24.7754 7.83639 24.3277 8.38867 24.3277H25.5315C26.0838 24.3277 26.5315 24.7754 26.5315 25.3277C26.5315 25.8799 26.0838 26.3277 25.5315 26.3277H8.38867C7.83639 26.3277 7.38867 25.8799 7.38867 25.3277Z" fill="#1C1B1F"/>
</svg>
