<svg width="33" height="33" viewBox="0 0 33 33" fill="none" xmlns="http://www.w3.org/2000/svg">
<path d="M25.8639 15.0281C29.9761 8.39384 21.7328 1.55923 15.8741 5.38707L10.3023 8.93936C7.60427 10.6966 6.43276 14.0728 8.07811 17.5423C3.96431 23.7829 11.969 31.0906 18.0679 27.1875L23.6397 23.6352C26.6713 21.6391 27.3668 18.1968 25.8639 15.0281ZM11.9143 11.2366L17.4779 7.68632C21.1329 5.49826 25.3414 9.32425 23.8242 12.8891C22.923 12.1731 21.9187 11.7329 21.1559 11.5347C21.4459 10.3829 20.109 9.52859 19.179 10.1235L13.6032 13.6616C12.2246 14.6145 13.6945 16.5743 15.057 15.752L17.1819 14.3976C21.9502 11.7068 26.4631 18.1675 22.0278 21.3339L16.4641 24.8841C13.1114 27.0279 8.54834 23.5936 10.1178 19.6814C10.9516 20.3125 11.8371 20.7765 12.7861 21.0358C12.5766 22.3587 13.9114 23.0019 14.7772 22.4592L20.3388 18.9089C21.7113 17.8798 20.2381 16.0171 18.8871 16.8185L16.7541 18.1729C12.0403 20.9278 7.42241 14.4032 11.9143 11.2366Z" fill="#1C1B1F"/>
</svg>
