<svg width="33" height="33" viewBox="0 0 33 33" fill="none" xmlns="http://www.w3.org/2000/svg">
<path d="M25.8639 15.1696C29.9761 8.53532 21.7328 1.70071 15.8741 5.52855L10.3023 9.08084C7.60427 10.8381 6.43276 14.2143 8.07811 17.6838C3.96431 23.9244 11.969 31.2321 18.0679 27.3289L23.6397 23.7766C26.6713 21.7805 27.3668 18.3383 25.8639 15.1696ZM11.9143 11.3781L17.4779 7.8278C21.1329 5.63974 25.3414 9.46573 23.8242 13.0305C22.923 12.3146 21.9187 11.8744 21.1559 11.6761C21.4459 10.5244 20.109 9.67007 19.179 10.2649L13.6032 13.803C12.2246 14.7559 13.6945 16.7158 15.057 15.8935L17.1819 14.5391C21.9502 11.8483 26.4631 18.309 22.0278 21.4753L16.4641 25.0256C13.1114 27.1694 8.54834 23.7351 10.1178 19.8229C10.9516 20.4539 11.8371 20.918 12.7861 21.1773C12.5766 22.5002 13.9114 23.1434 14.7772 22.6007L20.3388 19.0504C21.7113 18.0212 20.2381 16.1586 18.8871 16.96L16.7541 18.3144C12.0403 21.0692 7.42241 14.5447 11.9143 11.3781Z" fill="#1C1B1F"/>
</svg>
