<svg width="32" height="32" viewBox="0 0 32 32" fill="none" xmlns="http://www.w3.org/2000/svg">
<path d="M27.8714 14.3269C33.3543 5.48117 22.3633 -3.63163 14.5516 1.47215L7.12261 6.20853C3.52518 8.55153 1.96317 13.0531 4.15696 17.6792C-1.32811 25.9999 9.34477 35.7435 17.4767 30.5393L24.9057 25.8029C28.9478 23.1415 29.8752 18.5518 27.8714 14.3269ZM9.27183 9.27151L16.69 4.53782C21.5633 1.6204 27.1747 6.72172 25.1517 11.4748C23.9502 10.5202 22.6111 9.93323 21.594 9.66892C21.9807 8.13328 20.1981 6.99417 18.9582 7.78734L11.5238 12.5048C9.6856 13.7753 11.6454 16.3885 13.4621 15.292L16.2953 13.4862C22.6531 9.89845 28.6703 18.5127 22.7565 22.7345L15.3383 27.4682C10.868 30.3266 4.78393 25.7475 6.8766 20.5313C7.98822 21.3727 9.1689 21.9914 10.4343 22.3371C10.1549 24.101 11.9347 24.9586 13.0891 24.235L20.5045 19.5013C22.3346 18.1291 20.3702 15.6455 18.5689 16.714L15.7249 18.5199C9.43986 22.1931 3.28269 13.4937 9.27183 9.27151Z" fill="#111827"/>
</svg>
