<svg width="33" height="33" viewBox="0 0 33 33" fill="none" xmlns="http://www.w3.org/2000/svg">
<path fill-rule="evenodd" clip-rule="evenodd" d="M20.0102 5.59062C19.6197 5.98115 19.6197 6.61431 20.0102 7.00484L22.5456 9.54028H8.95996C8.40768 9.54028 7.95996 9.988 7.95996 10.5403C7.95996 11.0926 8.40768 11.5403 8.95996 11.5403H22.5458L20.0102 14.0759C19.6197 14.4664 19.6197 15.0996 20.0102 15.4901C20.4007 15.8806 21.0339 15.8806 21.4244 15.4901L25.667 11.2475C25.7629 11.1516 25.8353 11.0411 25.8841 10.9231C25.933 10.8052 25.96 10.6759 25.96 10.5403C25.96 10.3724 25.9186 10.2142 25.8455 10.0753C25.8203 10.0274 25.791 9.98116 25.7576 9.93703C25.7271 9.89685 25.6937 9.85903 25.6577 9.82391L21.4244 5.59062C21.0339 5.2001 20.4007 5.2001 20.0102 5.59062ZM13.9097 17.4901C14.3003 17.0995 14.3003 16.4664 13.9097 16.0759C13.5192 15.6853 12.8861 15.6853 12.4955 16.0759L8.26224 20.3091C8.21856 20.3517 8.17875 20.3982 8.14341 20.4481C8.02786 20.6112 7.95996 20.8104 7.95996 21.0255C7.95996 21.1608 7.98683 21.2898 8.03552 21.4075C8.08432 21.5258 8.15678 21.6366 8.25289 21.7327L12.4955 25.9753C12.8861 26.3659 13.5192 26.3659 13.9097 25.9753C14.3003 25.5848 14.3003 24.9517 13.9097 24.5611L11.3741 22.0255H24.96C25.5122 22.0255 25.96 21.5778 25.96 21.0255C25.96 20.4732 25.5122 20.0255 24.96 20.0255H11.3743L13.9097 17.4901Z" fill="#1C1B1F"/>
</svg>
