<svg width="32" height="32" viewBox="0 0 32 32" fill="none" xmlns="http://www.w3.org/2000/svg">
<path fill-rule="evenodd" clip-rule="evenodd" d="M19.6512 4.29118C19.2607 4.68171 19.2607 5.31487 19.6512 5.7054L22.8649 8.91912H6.7207C6.16842 8.91912 5.7207 9.36684 5.7207 9.91912C5.7207 10.4714 6.16842 10.9191 6.7207 10.9191H22.8651L19.6512 14.133C19.2607 14.5236 19.2607 15.1567 19.6512 15.5472C20.0417 15.9378 20.6749 15.9378 21.0654 15.5472L25.9864 10.6263C26.3769 10.2358 26.3769 9.60263 25.9864 9.21211L21.0654 4.29118C20.6749 3.90066 20.0417 3.90066 19.6512 4.29118ZM12.3493 17.867C12.7398 17.4764 12.7398 16.8433 12.3493 16.4528C11.9588 16.0622 11.3256 16.0622 10.9351 16.4528L6.03262 21.3552C5.84061 21.5374 5.72087 21.7951 5.72087 22.0807C5.72087 22.3643 5.83893 22.6203 6.02858 22.8023L10.9351 27.7088C11.3256 28.0993 11.9588 28.0993 12.3493 27.7088C12.7398 27.3183 12.7398 26.6851 12.3493 26.2946L9.13539 23.0807H25.2788C25.8311 23.0807 26.2788 22.633 26.2788 22.0807C26.2788 21.5284 25.8311 21.0807 25.2788 21.0807H9.13558L12.3493 17.867Z" fill="#111827"/>
</svg>
