<svg width="33" height="33" viewBox="0 0 33 33" fill="none" xmlns="http://www.w3.org/2000/svg">
<path fill-rule="evenodd" clip-rule="evenodd" d="M13.0787 6.29285C13.0787 5.74056 12.631 5.29285 12.0787 5.29285H5.95996C5.40768 5.29285 4.95996 5.74056 4.95996 6.29285V25.2335C4.95996 27.4754 6.7774 29.2929 9.01933 29.2929C9.11564 29.2929 9.21117 29.2895 9.30581 29.2829H28.96C29.5122 29.2829 29.96 28.8352 29.96 28.2829V20.1642C29.96 19.899 29.8546 19.6446 29.6671 19.4571C29.4795 19.2695 29.2252 19.1642 28.96 19.1642H24.3658L28.1996 16.3831C28.6466 16.0588 28.7462 15.4336 28.4219 14.9865L23.6547 8.41477C23.3304 7.96772 22.7051 7.86821 22.258 8.1925L13.0787 14.8513V6.29285ZM13.0787 17.3221V24.8812L26.2158 15.3514L22.6229 10.3986L13.0787 17.3221ZM13.1739 27.2829H27.96V21.1642H21.6088L13.1739 27.2829ZM10.5616 24.6659C10.5616 25.5177 9.87112 26.2082 9.01934 26.2082C8.16756 26.2082 7.47705 25.5177 7.47705 24.6659C7.47705 23.8142 8.16756 23.1237 9.01934 23.1237C9.87112 23.1237 10.5616 23.8142 10.5616 24.6659Z" fill="#1C1B1F"/>
</svg>
