<svg width="32" height="33" viewBox="0 0 32 33" fill="none" xmlns="http://www.w3.org/2000/svg">
<path fill-rule="evenodd" clip-rule="evenodd" d="M31.7068 1.4157C31.9086 1.61752 32.0146 1.89596 31.998 2.18089L31.3932 12.5755C31.3775 12.8442 31.2542 13.0952 31.0511 13.2719L18.2791 24.3804L20.0089 26.1102C20.2041 26.3054 20.2041 26.622 20.0089 26.8173L16.256 30.5701C16.0608 30.7654 15.7442 30.7654 15.5489 30.5701L11.0003 26.0215C10.8051 25.8263 10.4885 25.8263 10.2932 26.0215L4.58402 31.7307C4.38876 31.926 4.07218 31.926 3.87691 31.7307L0.146446 28.0003C-0.0488156 27.805 -0.0488154 27.4884 0.146447 27.2932L5.85565 21.584C6.05092 21.3887 6.05092 21.0721 5.85565 20.8769L1.94176 16.963C1.7465 16.7677 1.7465 16.4511 1.94176 16.2559L5.6946 12.503C5.88986 12.3078 6.20644 12.3078 6.4017 12.503L8.74214 14.8435L19.8506 2.07139C20.0273 1.86828 20.2783 1.74497 20.5471 1.72933L30.9416 1.12449C31.2266 1.10791 31.505 1.21388 31.7068 1.4157ZM12.5823 18.6836L10.1598 16.2611L21.0835 3.7015L29.9361 3.18638L29.421 12.0391L16.8614 22.9627L13.9965 20.0978L22.8142 11.2801C23.2047 10.8896 23.2047 10.2564 22.8142 9.86587C22.4237 9.47535 21.7905 9.47535 21.4 9.86587L12.5823 18.6836Z" fill="#111827"/>
</svg>
