<svg width="32" height="32" viewBox="0 0 32 32" fill="none" xmlns="http://www.w3.org/2000/svg">
<path fill-rule="evenodd" clip-rule="evenodd" d="M31.7068 0.915698C31.9086 1.11752 32.0146 1.39596 31.998 1.68089L31.3932 12.0755C31.3775 12.3442 31.2542 12.5952 31.0511 12.7719L18.2791 23.8804L20.0089 25.6102C20.2041 25.8054 20.2041 26.122 20.0089 26.3173L16.256 30.0701C16.0608 30.2654 15.7442 30.2654 15.5489 30.0701L11.0003 25.5215C10.8051 25.3263 10.4885 25.3263 10.2932 25.5215L4.58402 31.2307C4.38876 31.426 4.07218 31.426 3.87691 31.2307L0.146446 27.5003C-0.0488156 27.305 -0.0488154 26.9884 0.146447 26.7932L5.85565 21.084C6.05092 20.8887 6.05092 20.5721 5.85565 20.3769L1.94176 16.463C1.7465 16.2677 1.7465 15.9511 1.94176 15.7559L5.6946 12.003C5.88986 11.8078 6.20644 11.8078 6.4017 12.003L8.74214 14.3435L19.8506 1.57139C20.0273 1.36828 20.2783 1.24497 20.5471 1.22933L30.9416 0.624493C31.2266 0.607914 31.505 0.713878 31.7068 0.915698ZM12.5823 18.1836L10.1598 15.7611L21.0835 3.2015L29.9361 2.68638L29.421 11.5391L16.8614 22.4627L13.9965 19.5978L22.8142 10.7801C23.2047 10.3896 23.2047 9.7564 22.8142 9.36587C22.4237 8.97535 21.7905 8.97535 21.4 9.36587L12.5823 18.1836Z" fill="#111827"/>
</svg>
