<svg width="33" height="33" viewBox="0 0 33 33" fill="none" xmlns="http://www.w3.org/2000/svg">
<path fill-rule="evenodd" clip-rule="evenodd" d="M22.8447 3.64113C23.2352 3.2506 23.8683 3.2506 24.2589 3.64113L26.9461 6.32841L26.9632 6.34511L26.9799 6.3622L29.6668 9.04907C30.0573 9.4396 30.0573 10.0728 29.6668 10.4633C29.2763 10.8538 28.6431 10.8538 28.2526 10.4633L26.2559 8.46663L23.1636 11.5589L26.963 15.3583C27.3535 15.7489 27.3535 16.382 26.963 16.7726C26.5725 17.1631 25.9393 17.1631 25.5488 16.7726L24.0597 15.2835L14.2103 25.1329C14.1135 25.2297 13.9812 25.2826 13.8443 25.2792L9.43077 25.1693L6.05476 28.5453C5.66424 28.9358 5.03107 28.9358 4.64055 28.5453C4.25003 28.1547 4.25003 27.5216 4.64055 27.131L8.00871 23.7629L7.8984 19.3332C7.895 19.1963 7.94787 19.064 8.0447 18.9672L10.458 16.5539L13.3806 19.4765C13.7712 19.867 14.4043 19.867 14.7948 19.4765C15.1854 19.086 15.1854 18.4528 14.7948 18.0623L11.8722 15.1397L13.6128 13.3991L16.5355 16.3219C16.9261 16.7124 17.5592 16.7124 17.9498 16.3219C18.3403 15.9314 18.3403 15.2982 17.9498 14.9077L15.027 11.9849L17.8941 9.11784L16.5356 7.75932C16.145 7.3688 16.145 6.73563 16.5356 6.34511C16.9261 5.95458 17.5593 5.95458 17.9498 6.34511L21.7494 10.1447L24.8417 7.05241L22.8447 5.05534C22.4541 4.66482 22.4541 4.03165 22.8447 3.64113Z" fill="#1C1B1F"/>
</svg>
