<svg width="34" height="32" viewBox="0 0 34 32" fill="none" xmlns="http://www.w3.org/2000/svg">
<path fill-rule="evenodd" clip-rule="evenodd" d="M24.4634 0.293931C24.854 -0.0965935 25.4871 -0.0965935 25.8776 0.293931L29.3138 3.73009L29.3312 3.74708L29.3482 3.76447L32.7839 7.20018C33.1744 7.5907 33.1744 8.22387 32.7839 8.61439C32.3934 9.00492 31.7602 9.00492 31.3697 8.61439L28.6239 5.8686L24.283 10.2095L29.3311 15.2575C29.7216 15.648 29.7216 16.2812 29.3311 16.6717C28.9405 17.0622 28.3074 17.0622 27.9168 16.6717L26.0149 14.7698L13.1985 27.5862C13.1017 27.683 12.9694 27.7359 12.8325 27.7324L6.75496 27.5811L2.62996 31.7061C2.23943 32.0966 1.60627 32.0966 1.21574 31.7061C0.82522 31.3156 0.82522 30.6824 1.21574 30.2919L5.33025 26.1774L5.17837 20.0783C5.17496 19.9414 5.22784 19.8091 5.32466 19.7123L8.6446 16.3923L12.377 20.1247C12.7675 20.5153 13.4007 20.5153 13.7912 20.1247C14.1817 19.7342 14.1817 19.101 13.7912 18.7105L10.0588 14.9781L12.6734 12.3635L16.4059 16.0961C16.7965 16.4866 17.4296 16.4866 17.8201 16.0961C18.2107 15.7055 18.2107 15.0724 17.8201 14.6818L14.0876 10.9493L18.141 6.8959L16.4064 5.16129C16.0159 4.77077 16.0159 4.1376 16.4064 3.74708C16.797 3.35655 17.4301 3.35655 17.8207 3.74708L22.8688 8.79525L27.2097 4.45439L24.4634 1.70814C24.0729 1.31762 24.0729 0.684455 24.4634 0.293931Z" fill="#111827"/>
</svg>
