<svg width="32" height="32" viewBox="0 0 32 32" fill="none" xmlns="http://www.w3.org/2000/svg">
<path fill-rule="evenodd" clip-rule="evenodd" d="M0.230469 4.9231C0.230469 4.37081 0.678184 3.9231 1.23047 3.9231H30.7689C31.3212 3.9231 31.7689 4.37081 31.7689 4.9231V19.6903L31.7689 19.6923L31.7689 19.6943V27.0769C31.7689 27.6292 31.3212 28.0769 30.7689 28.0769H1.23047C0.678184 28.0769 0.230469 27.6292 0.230469 27.0769V19.6923V4.9231ZM29.7689 12.3077V18.6923H10.8459V12.3077H29.7689ZM2.23047 12.3077V18.6923H8.84585V12.3077H2.23047ZM2.23047 26.0769V20.6923H8.84585V26.0769H2.23047ZM29.7689 26.0769H10.8459V20.6923H29.7689V26.0769Z" fill="#111827"/>
</svg>
