<svg width="33" height="33" viewBox="0 0 33 33" fill="none" xmlns="http://www.w3.org/2000/svg">
<path fill-rule="evenodd" clip-rule="evenodd" d="M2.70361 11.9973C2.70361 11.445 3.15133 10.9973 3.70361 10.9973H20.7321C21.2844 10.9973 21.7321 11.445 21.7321 11.9973V19.5688H24.93V12.9973H24.2157C23.6634 12.9973 23.2157 12.5496 23.2157 11.9973C23.2157 11.445 23.6634 10.9973 24.2157 10.9973H25.93C26.4823 10.9973 26.93 11.445 26.93 11.9973V19.5688H29.2156V12.9973H28.5013C27.949 12.9973 27.5013 12.5496 27.5013 11.9973C27.5013 11.445 27.949 10.9973 28.5013 10.9973H30.2156C30.7679 10.9973 31.2156 11.445 31.2156 11.9973V20.5688C31.2156 21.121 30.7679 21.5688 30.2156 21.5688H25.93H25.0728H20.7871C20.7777 21.5688 20.7684 21.5686 20.7591 21.5684C20.7501 21.5686 20.7412 21.5687 20.7321 21.5687H3.70361C3.15133 21.5687 2.70361 21.121 2.70361 20.5687V11.9973Z" fill="#1C1B1F"/>
</svg>
