<svg width="32" height="32" viewBox="0 0 32 32" fill="none" xmlns="http://www.w3.org/2000/svg">
<path fill-rule="evenodd" clip-rule="evenodd" d="M0.00195312 11.0449C0.00195312 10.4926 0.449668 10.0449 1.00195 10.0449H20.4403C20.9926 10.0449 21.4403 10.4926 21.4403 11.0449V19.8285H25.1699V12.1715H24.2385C23.6862 12.1715 23.2385 11.7238 23.2385 11.1715C23.2385 10.6193 23.6862 10.1715 24.2385 10.1715H26.1699C26.7222 10.1715 27.1699 10.6193 27.1699 11.1715V19.8285H29.9979V12.1715H29.0665C28.5143 12.1715 28.0665 11.7238 28.0665 11.1715C28.0665 10.6193 28.5143 10.1715 29.0665 10.1715H30.9979C31.5502 10.1715 31.9979 10.6193 31.9979 11.1715V20.8285C31.9979 21.3808 31.5502 21.8285 30.9979 21.8285H26.1699H25.2038H20.9277C20.7835 21.9091 20.6172 21.9551 20.4403 21.9551H1.00195C0.44967 21.9551 0.00195312 21.5074 0.00195312 20.9551V11.0449Z" fill="#111827"/>
</svg>
