<svg width="32" height="32" viewBox="0 0 32 32" fill="none" xmlns="http://www.w3.org/2000/svg">
<path fill-rule="evenodd" clip-rule="evenodd" d="M16.6355 31.8056L0.196364 15.3665C0.043039 15.2132 -0.0257265 14.9946 0.0121863 14.7811L2.19039 2.51494C2.23967 2.23747 2.45879 2.02136 2.73693 1.97594L14.7839 0.00868423C14.9947 -0.0257368 15.2091 0.0433828 15.3602 0.19441L31.8034 16.6377C32.0626 16.8969 32.0626 17.3171 31.8034 17.5763L17.5741 31.8056C17.3149 32.0648 16.8947 32.0648 16.6355 31.8056ZM10.4998 6.60195C10.4998 7.60281 9.68847 8.41416 8.68762 8.41416C7.68677 8.41416 6.87542 7.60281 6.87542 6.60195C6.87542 5.6011 7.68677 4.78975 8.68762 4.78975C9.68847 4.78975 10.4998 5.6011 10.4998 6.60195Z" fill="#111827"/>
</svg>
