<svg width="33" height="33" viewBox="0 0 33 33" fill="none" xmlns="http://www.w3.org/2000/svg">
<path fill-rule="evenodd" clip-rule="evenodd" d="M17.437 28.1385L5.10603 15.8076C4.99102 15.6926 4.93944 15.5286 4.96788 15.3685L6.60175 6.1677C6.63871 5.95957 6.80307 5.79747 7.0117 5.7634L16.0481 4.28776C16.2062 4.26194 16.3671 4.31379 16.4804 4.42708L28.8144 16.7611C29.0088 16.9555 29.0088 17.2708 28.8144 17.4652L18.141 28.1385C17.9466 28.333 17.6314 28.333 17.437 28.1385ZM12.8346 9.23335C12.8346 9.98409 12.226 10.5927 11.4753 10.5927C10.7246 10.5927 10.116 9.98409 10.116 9.23335C10.116 8.48262 10.7246 7.87402 11.4753 7.87402C12.226 7.87402 12.8346 8.48262 12.8346 9.23335Z" fill="#1C1B1F"/>
</svg>
