<svg width="32" height="33" viewBox="0 0 32 33" fill="none" xmlns="http://www.w3.org/2000/svg">
<path fill-rule="evenodd" clip-rule="evenodd" d="M16.6355 32.3056L0.196364 15.8665C0.043039 15.7132 -0.0257265 15.4946 0.0121863 15.2811L2.19039 3.01494C2.23967 2.73747 2.45879 2.52136 2.73693 2.47594L14.7839 0.508684C14.9947 0.474263 15.2091 0.543383 15.3602 0.69441L31.8034 17.1377C32.0626 17.3969 32.0626 17.8171 31.8034 18.0763L17.5741 32.3056C17.3149 32.5648 16.8947 32.5648 16.6355 32.3056ZM10.4998 7.10195C10.4998 8.10281 9.68847 8.91416 8.68762 8.91416C7.68677 8.91416 6.87542 8.10281 6.87542 7.10195C6.87542 6.1011 7.68677 5.28975 8.68762 5.28975C9.68847 5.28975 10.4998 6.1011 10.4998 7.10195Z" fill="#111827"/>
</svg>
