<svg width="32" height="32" viewBox="0 0 32 32" fill="none" xmlns="http://www.w3.org/2000/svg">
<path fill-rule="evenodd" clip-rule="evenodd" d="M31.6932 0.293626C32.0837 0.68415 32.0837 1.31731 31.6932 1.70784L16.6866 16.7144C16.2961 17.1049 15.6629 17.1049 15.2724 16.7144C14.8819 16.3238 14.8819 15.6907 15.2724 15.3002L19.816 10.7566C18.87 10.0654 17.7493 9.63872 16.5702 9.53111C15.056 9.39292 13.5413 9.78966 12.2893 10.6524C11.0373 11.5151 10.1271 12.7892 9.71707 14.2533C9.30699 15.7175 9.4229 17.279 10.0446 18.6665C10.6664 20.0541 11.7547 21.1799 13.1203 21.8483C14.486 22.5167 16.0427 22.6855 17.5199 22.3252C18.9971 21.965 20.3013 21.0985 21.206 19.8765C22.1106 18.6544 22.5585 17.154 22.4717 15.636C22.4401 15.0846 22.8615 14.6121 23.4129 14.5806C23.9643 14.549 24.4369 14.9705 24.4684 15.5218C24.5819 17.5067 23.9963 19.4685 22.8134 21.0664C21.6306 22.6643 19.9252 23.7973 17.9937 24.2683C16.0623 24.7393 14.0268 24.5186 12.2411 23.6447C10.4555 22.7707 9.03247 21.2986 8.21951 19.4844C7.40654 17.6701 7.25498 15.6283 7.79118 13.7139C8.32738 11.7995 9.51744 10.1335 11.1545 9.00549C12.7916 7.87745 14.7721 7.35869 16.752 7.53939C18.3977 7.68959 19.9565 8.31518 21.2431 9.32945L25.1504 5.42218C22.7669 3.36165 19.7485 2.1591 16.581 2.02747C13.0789 1.88194 9.64978 3.05615 6.97197 5.31781C4.29415 7.57948 2.56274 10.7638 2.12027 14.2409C1.67781 17.718 2.55652 21.2345 4.58256 24.0947C6.60861 26.955 9.6344 28.9506 13.0613 29.6868C16.4883 30.423 20.0667 29.8461 23.0887 28.0703C26.1107 26.2946 28.3561 23.4492 29.3807 20.0972C30.4053 16.7452 30.1345 13.1307 28.6218 9.96878C28.3834 9.47058 28.5941 8.87348 29.0923 8.63514C29.5905 8.39679 30.1876 8.60744 30.4259 9.10565C32.1549 12.7195 32.4644 16.8507 31.2933 20.6818C30.1223 24.513 27.5559 27.7651 24.1019 29.7947C20.648 31.8243 16.558 32.4836 12.6413 31.6422C8.72448 30.8007 5.26618 28.5199 2.95053 25.2508C0.634875 21.9817 -0.369439 17.9625 0.136273 13.9884C0.641984 10.0144 2.62088 6.37481 5.68147 3.78987C8.74206 1.20492 12.6614 -0.137142 16.6641 0.0291956C20.333 0.181663 23.827 1.59127 26.5679 4.00471L30.2789 0.293626C30.6695 -0.0968987 31.3026 -0.0968987 31.6932 0.293626Z" fill="#111827"/>
</svg>
