<svg width="32" height="33" viewBox="0 0 32 33" fill="none" xmlns="http://www.w3.org/2000/svg">
<path fill-rule="evenodd" clip-rule="evenodd" d="M31.6932 0.793626C32.0837 1.18415 32.0837 1.81731 31.6932 2.20784L16.6866 17.2144C16.2961 17.6049 15.6629 17.6049 15.2724 17.2144C14.8819 16.8238 14.8819 16.1907 15.2724 15.8002L19.816 11.2566C18.87 10.5654 17.7493 10.1387 16.5702 10.0311C15.056 9.89292 13.5413 10.2897 12.2893 11.1524C11.0373 12.0151 10.1271 13.2892 9.71707 14.7533C9.30699 16.2175 9.4229 17.779 10.0446 19.1665C10.6664 20.5541 11.7547 21.6799 13.1203 22.3483C14.486 23.0167 16.0427 23.1855 17.5199 22.8252C18.9971 22.465 20.3013 21.5985 21.206 20.3765C22.1106 19.1544 22.5585 17.654 22.4717 16.136C22.4401 15.5846 22.8615 15.1121 23.4129 15.0806C23.9643 15.049 24.4369 15.4705 24.4684 16.0218C24.5819 18.0067 23.9963 19.9685 22.8134 21.5664C21.6306 23.1643 19.9252 24.2973 17.9937 24.7683C16.0623 25.2393 14.0268 25.0186 12.2411 24.1447C10.4555 23.2707 9.03247 21.7986 8.21951 19.9844C7.40654 18.1701 7.25498 16.1283 7.79118 14.2139C8.32738 12.2995 9.51744 10.6335 11.1545 9.50549C12.7916 8.37745 14.7721 7.85869 16.752 8.03939C18.3977 8.18959 19.9565 8.81518 21.2431 9.82945L25.1504 5.92218C22.7669 3.86165 19.7485 2.6591 16.581 2.52747C13.0789 2.38194 9.64978 3.55615 6.97197 5.81781C4.29415 8.07948 2.56274 11.2638 2.12027 14.7409C1.67781 18.218 2.55652 21.7345 4.58256 24.5947C6.60861 27.455 9.6344 29.4506 13.0613 30.1868C16.4883 30.923 20.0667 30.3461 23.0887 28.5703C26.1107 26.7946 28.3561 23.9492 29.3807 20.5972C30.4053 17.2452 30.1345 13.6307 28.6218 10.4688C28.3834 9.97058 28.5941 9.37348 29.0923 9.13514C29.5905 8.89679 30.1876 9.10744 30.4259 9.60565C32.1549 13.2195 32.4644 17.3507 31.2933 21.1818C30.1223 25.013 27.5559 28.2651 24.1019 30.2947C20.648 32.3243 16.558 32.9836 12.6413 32.1422C8.72448 31.3007 5.26618 29.0199 2.95053 25.7508C0.634875 22.4817 -0.369439 18.4625 0.136273 14.4884C0.641984 10.5144 2.62088 6.87481 5.68147 4.28987C8.74206 1.70492 12.6614 0.362858 16.6641 0.529196C20.333 0.681663 23.827 2.09127 26.5679 4.50471L30.2789 0.793626C30.6695 0.403101 31.3026 0.403101 31.6932 0.793626Z" fill="#111827"/>
</svg>
