<svg width="33" height="33" viewBox="0 0 33 33" fill="none" xmlns="http://www.w3.org/2000/svg">
<path fill-rule="evenodd" clip-rule="evenodd" d="M29.6564 3.57585C30.0469 3.96638 30.0469 4.59954 29.6564 4.99007L17.6505 16.996C17.2599 17.3865 16.6268 17.3865 16.2363 16.996C15.8457 16.6055 15.8457 15.9723 16.2363 15.5818L19.7023 12.1157C19.0171 11.6627 18.2263 11.3824 17.398 11.3068C16.2331 11.2005 15.0678 11.5057 14.1047 12.1694C13.1415 12.8331 12.4413 13.8133 12.1258 14.9397C11.8104 16.066 11.8995 17.2673 12.3778 18.3347C12.8561 19.4022 13.6934 20.2683 14.744 20.7825C15.7946 21.2967 16.9922 21.4265 18.1285 21.1494C19.2649 20.8722 20.2683 20.2057 20.9642 19.2656C21.6602 18.3254 22.0047 17.1712 21.9379 16.0034C21.9064 15.452 22.3278 14.9794 22.8792 14.9479C23.4306 14.9164 23.9032 15.3378 23.9347 15.8892C24.0282 17.5238 23.5459 19.1395 22.5717 20.4555C21.5976 21.7715 20.1931 22.7045 18.6024 23.0924C17.0117 23.4803 15.3354 23.2986 13.8648 22.5788C12.3941 21.8591 11.2222 20.6467 10.5527 19.1526C9.88317 17.6584 9.75835 15.9769 10.1999 14.4003C10.6415 12.8236 11.6216 11.4516 12.9699 10.5226C14.3181 9.59354 15.9492 9.16631 17.5797 9.31513C18.8754 9.43338 20.1056 9.90942 21.1372 10.6809L23.9857 7.8324C22.1394 6.29839 19.8331 5.4046 17.4165 5.30417C14.6647 5.18981 11.9702 6.11246 9.86606 7.88958C7.76194 9.6667 6.40148 12.1688 6.0538 14.901C5.70613 17.6331 6.39659 20.3962 7.98857 22.6437C9.58055 24.8911 11.9581 26.4592 14.6508 27.0377C17.3436 27.6162 20.1553 27.1629 22.5299 25.7676C24.9044 24.3722 26.6688 22.1365 27.4739 19.5026C28.279 16.8687 28.0662 14.0286 26.8776 11.5441C26.6392 11.0459 26.8499 10.4488 27.3481 10.2105C27.8463 9.97212 28.4434 10.1828 28.6817 10.681C30.0866 13.6174 30.3381 16.9742 29.3865 20.0872C28.435 23.2002 26.3497 25.8427 23.5431 27.4919C20.7366 29.1411 17.4133 29.6768 14.2308 28.9931C11.0482 28.3094 8.23812 26.456 6.35653 23.7997C4.47494 21.1434 3.65889 17.8777 4.0698 14.6485C4.48072 11.4193 6.08868 8.46203 8.57557 6.36163C11.0625 4.26123 14.2471 3.17073 17.4995 3.30589C20.4177 3.42716 23.1998 4.52725 25.405 6.41309L28.2422 3.57585C28.6327 3.18533 29.2659 3.18533 29.6564 3.57585Z" fill="#1C1B1F"/>
</svg>
