<svg width="33" height="33" viewBox="0 0 33 33" fill="none" xmlns="http://www.w3.org/2000/svg">
<path fill-rule="evenodd" clip-rule="evenodd" d="M13.8987 4.58602C14.0487 4.20269 14.4183 3.95044 14.83 3.95044H19.0904C19.502 3.95044 19.8716 4.20269 20.0216 4.58602L21.6322 8.70184C21.6396 8.72052 21.6463 8.73935 21.6524 8.7583H23.3771L28.2328 15.7661H5.67734L10.533 8.7583H12.2679C12.2741 8.73935 12.2808 8.72052 12.2881 8.70184L13.8987 4.58602ZM15.5125 5.95044L14.6845 8.06626H19.2358L18.4079 5.95044H15.5125ZM28.2328 17.7756H5.67734V23.3297V23.3298V26.6154C5.67734 27.1677 6.12505 27.6154 6.67733 27.6154H10.3887C10.941 27.6154 11.3887 27.1677 11.3887 26.6154V23.3298H22.5313V26.6154C22.5313 27.1677 22.9791 27.6154 23.5313 27.6154H27.2328C27.7851 27.6154 28.2328 27.1677 28.2328 26.6154V23.3298V23.3297V17.7756ZM8.96005 20.0178C8.96005 19.4656 9.40777 19.0178 9.96005 19.0178H11.9601C12.5123 19.0178 12.9601 19.4656 12.9601 20.0178C12.9601 20.5701 12.5123 21.0178 11.9601 21.0178H9.96005C9.40777 21.0178 8.96005 20.5701 8.96005 20.0178ZM20.9601 20.0178C20.9601 19.4656 21.4078 19.0178 21.9601 19.0178H23.9601C24.5123 19.0178 24.9601 19.4656 24.9601 20.0178C24.9601 20.5701 24.5123 21.0178 23.9601 21.0178H21.9601C21.4078 21.0178 20.9601 20.5701 20.9601 20.0178ZM28.9601 17.8544H28.2457V15.8544H28.9601C29.5124 15.8544 29.9601 16.3021 29.9601 16.8544C29.9601 17.4067 29.5124 17.8544 28.9601 17.8544ZM5.67441 17.7671H4.95996C4.40768 17.7671 3.95996 17.3194 3.95996 16.7671C3.95996 16.2148 4.40768 15.7671 4.95996 15.7671H5.67441L5.67441 17.7671Z" fill="#1C1B1F"/>
</svg>
