<svg width="33" height="33" viewBox="0 0 33 33" fill="none" xmlns="http://www.w3.org/2000/svg">
<path d="M12.1092 17.3533L22.8693 26.8222C22.9938 26.9318 23.1446 27.0071 23.307 27.0409C23.4694 27.0746 23.6377 27.0656 23.7956 27.0147C23.9534 26.9638 24.0953 26.8728 24.2074 26.7505C24.3195 26.6283 24.3979 26.4791 24.4349 26.3174L28.936 6.67618C28.9749 6.50636 28.9668 6.32915 28.9124 6.16362C28.858 5.9981 28.7595 5.85055 28.6275 5.73688C28.4955 5.6232 28.335 5.5477 28.1632 5.51853C27.9914 5.48935 27.815 5.5076 27.6528 5.5713L5.56749 14.2477C5.37501 14.3233 5.21219 14.4592 5.1034 14.6351C4.9946 14.8109 4.94568 15.0173 4.96395 15.2233C4.98222 15.4293 5.0667 15.6238 5.20476 15.7778C5.34281 15.9318 5.52701 16.0369 5.72979 16.0775L12.1092 17.3533Z" stroke="#1C1B1F" stroke-width="2" stroke-linecap="round" stroke-linejoin="round"/>
<path d="M17.483 22.0823L13.7434 25.8219C13.6095 25.9558 13.4389 26.047 13.2532 26.0839C13.0675 26.1208 12.875 26.1019 12.7001 26.0294C12.5252 25.957 12.3757 25.8343 12.2705 25.6768C12.1653 25.5194 12.1091 25.3343 12.1091 25.145V17.3533" fill="#1C1B1F"/>
<path d="M17.483 22.0823L13.7434 25.8219C13.6095 25.9558 13.4389 26.047 13.2532 26.0839C13.0675 26.1208 12.875 26.1019 12.7001 26.0294C12.5252 25.957 12.3757 25.8343 12.2705 25.6768C12.1653 25.5194 12.1091 25.3343 12.1091 25.145V17.3533L17.483 22.0823Z" stroke="#1C1B1F" stroke-width="2" stroke-linecap="round" stroke-linejoin="round"/>
<path d="M28 6.5L4.5 15L12 17.5L28 6.5Z" fill="#1C1B1F"/>
</svg>
