<svg width="32" height="32" viewBox="0 0 32 32" fill="none" xmlns="http://www.w3.org/2000/svg">
<path fill-rule="evenodd" clip-rule="evenodd" d="M11.404 1.39201C11.0134 1.00149 10.3803 1.00149 9.98975 1.39201C9.59922 1.78254 9.59922 2.4157 9.98975 2.80623L13.5856 6.40207H1.00098C0.448692 6.40207 0.000976562 6.84978 0.000976562 7.40207V29.9007C0.000976562 30.453 0.448692 30.9007 1.00098 30.9007H30.9991C31.5514 30.9007 31.9991 30.453 31.9991 29.9007V7.40207C31.9991 6.84978 31.5514 6.40207 30.9991 6.40207H18.4141L22.0099 2.80623C22.4004 2.4157 22.4004 1.78254 22.0099 1.39201C21.6194 1.00149 20.9862 1.00149 20.5957 1.39201L15.9998 5.98788L11.404 1.39201ZM22.2497 28.9007V8.40207H29.9991V28.9007H22.2497ZM25.9998 10.5573C25.4475 10.5573 24.9998 11.0051 24.9998 11.5573C24.9998 12.1096 25.4475 12.5573 25.9998 12.5573H27.2498C27.802 12.5573 28.2498 12.1096 28.2498 11.5573C28.2498 11.0051 27.802 10.5573 27.2498 10.5573H25.9998ZM25.9998 16.8072C25.4475 16.8072 24.9998 17.2549 24.9998 17.8072C24.9998 18.3595 25.4475 18.8072 25.9998 18.8072H27.2498C27.802 18.8072 28.2498 18.3595 28.2498 17.8072C28.2498 17.2549 27.802 16.8072 27.2498 16.8072H25.9998ZM24.9998 24.0566C24.9998 23.5043 25.4475 23.0566 25.9998 23.0566H27.2498C27.802 23.0566 28.2498 23.5043 28.2498 24.0566C28.2498 24.6088 27.802 25.0566 27.2498 25.0566H25.9998C25.4475 25.0566 24.9998 24.6088 24.9998 24.0566Z" fill="#111827"/>
</svg>
