<svg width="32" height="32" viewBox="0 0 32 32" fill="none" xmlns="http://www.w3.org/2000/svg">
<path fill-rule="evenodd" clip-rule="evenodd" d="M29.0002 1.67946C29.3723 1.53329 29.7772 1.49142 30.1713 1.55837C30.5654 1.62532 30.9338 1.79855 31.2367 2.05939C31.5397 2.32023 31.7657 2.6588 31.8904 3.0386C32.0151 3.4184 32.0339 3.82504 31.9446 4.21471L26.3181 28.7665C26.2331 29.1374 26.0532 29.4799 25.7961 29.7604C25.5389 30.0408 25.2133 30.2497 24.8511 30.3665C24.4889 30.4833 24.1026 30.504 23.7301 30.4266C23.3575 30.3491 23.0114 30.1763 22.7258 29.9249L15.9448 23.9576L11.9787 27.9237C11.8114 28.091 11.5982 28.205 11.366 28.2512C11.1339 28.2973 10.8933 28.2736 10.6746 28.1831C10.4559 28.0925 10.2691 27.9391 10.1376 27.7423C10.0061 27.5455 9.93588 27.3142 9.93588 27.0775V18.6698L9.47689 18.2659L1.76563 16.7236C1.30033 16.6306 0.87767 16.3893 0.560898 16.036C0.244126 15.6827 0.0502743 15.2364 0.00834893 14.7637C-0.0335764 14.291 0.0786788 13.8175 0.328318 13.414C0.577957 13.0104 0.951557 12.6986 1.39322 12.5251L29.0002 1.67946ZM29.9931 3.67202L10.8437 16.8045L24.047 28.4235C24.0726 28.446 24.1036 28.4615 24.1369 28.4684C24.1703 28.4753 24.2049 28.4735 24.2373 28.463C24.2697 28.4526 24.2989 28.4339 24.3219 28.4087C24.3449 28.3836 24.361 28.353 24.3687 28.3198L29.9951 3.76796C30.0024 3.73625 30.0017 3.70329 29.9931 3.67202Z" fill="#111827"/>
</svg>
