<svg width="32" height="32" viewBox="0 0 32 32" fill="none" xmlns="http://www.w3.org/2000/svg">
<path fill-rule="evenodd" clip-rule="evenodd" d="M11.0502 0.964524C10.6597 0.574 10.0265 0.574 9.63599 0.964524C9.24547 1.35505 9.24547 1.98821 9.63599 2.37874L14.5858 7.32853H1C0.447715 7.32853 0 7.77625 0 8.32853V30.3285C0 30.8808 0.447715 31.3285 1 31.3285H31C31.5523 31.3285 32 30.8808 32 30.3285V8.32853C32 7.77625 31.5523 7.32853 31 7.32853H17.4141L22.3639 2.37874C22.7544 1.98821 22.7544 1.35505 22.3639 0.964524C21.9734 0.574 21.3402 0.574 20.9497 0.964524L16 5.91427L11.0502 0.964524Z" fill="#111827"/>
</svg>
