<svg width="33" height="33" viewBox="0 0 33 33" fill="none" xmlns="http://www.w3.org/2000/svg">
<path fill-rule="evenodd" clip-rule="evenodd" d="M13.4244 4.45451C13.0339 4.06399 12.4007 4.06399 12.0102 4.45451C11.6197 4.84504 11.6197 5.4782 12.0102 5.86873L14.5457 8.4043H4.95996C4.40768 8.4043 3.95996 8.85201 3.95996 9.4043V27.4043C3.95996 27.9566 4.40768 28.4043 4.95996 28.4043H28.96C29.5122 28.4043 29.96 27.9566 29.96 27.4043V9.4043C29.96 8.85201 29.5122 8.4043 28.96 8.4043H19.3741L21.9097 5.86873C22.3002 5.4782 22.3002 4.84504 21.9097 4.45451C21.5191 4.06399 20.886 4.06399 20.4955 4.45451L16.9599 7.99005L13.4244 4.45451ZM21.96 26.4043V10.4043H27.96V26.4043H21.96ZM24.96 11.7288C24.4077 11.7288 23.96 12.1765 23.96 12.7288C23.96 13.281 24.4077 13.7288 24.96 13.7288H25.96C26.5122 13.7288 26.96 13.281 26.96 12.7288C26.96 12.1765 26.5122 11.7288 25.96 11.7288H24.96ZM24.96 16.729C24.4077 16.729 23.96 17.1767 23.96 17.729C23.96 18.2813 24.4077 18.729 24.96 18.729H25.96C26.5122 18.729 26.96 18.2813 26.96 17.729C26.96 17.1767 26.5122 16.729 25.96 16.729H24.96ZM23.96 22.7288C23.96 22.1765 24.4077 21.7288 24.96 21.7288H25.96C26.5122 21.7288 26.96 22.1765 26.96 22.7288C26.96 23.281 26.5122 23.7288 25.96 23.7288H24.96C24.4077 23.7288 23.96 23.281 23.96 22.7288Z" fill="#1C1B1F"/>
</svg>
