<svg width="33" height="33" viewBox="0 0 33 33" fill="none" xmlns="http://www.w3.org/2000/svg">
<path d="M12.1092 17.4948L22.8693 26.9637C22.9938 27.0733 23.1446 27.1486 23.307 27.1824C23.4694 27.2161 23.6377 27.2071 23.7956 27.1562C23.9534 27.1053 24.0953 27.0143 24.2074 26.892C24.3195 26.7698 24.3979 26.6205 24.4349 26.4589L28.936 6.81766C28.9749 6.64784 28.9668 6.47063 28.9124 6.3051C28.858 6.13958 28.7595 5.99203 28.6275 5.87836C28.4955 5.76468 28.335 5.68918 28.1632 5.66001C27.9914 5.63083 27.815 5.64907 27.6528 5.71278L5.56749 14.3892C5.37501 14.4648 5.21219 14.6007 5.1034 14.7766C4.9946 14.9524 4.94568 15.1588 4.96395 15.3648C4.98222 15.5708 5.0667 15.7653 5.20476 15.9193C5.34281 16.0733 5.52701 16.1784 5.72979 16.2189L12.1092 17.4948Z" stroke="#1C1B1F" stroke-width="2" stroke-linecap="round" stroke-linejoin="round"/>
<path d="M17.483 22.2238L13.7434 25.9634C13.6095 26.0973 13.4389 26.1884 13.2532 26.2254C13.0675 26.2623 12.875 26.2434 12.7001 26.1709C12.5252 26.0984 12.3757 25.9757 12.2705 25.8183C12.1653 25.6609 12.1091 25.4758 12.1091 25.2864V17.4948" fill="#1C1B1F"/>
<path d="M17.483 22.2238L13.7434 25.9634C13.6095 26.0973 13.4389 26.1884 13.2532 26.2254C13.0675 26.2623 12.875 26.2434 12.7001 26.1709C12.5252 26.0984 12.3757 25.9757 12.2705 25.8183C12.1653 25.6609 12.1091 25.4758 12.1091 25.2864V17.4948L17.483 22.2238Z" stroke="#1C1B1F" stroke-width="2" stroke-linecap="round" stroke-linejoin="round"/>
<path d="M28 6.64148L4.5 15.1415L12 17.6415L28 6.64148Z" fill="#1C1B1F"/>
</svg>
