<svg width="33" height="33" viewBox="0 0 33 33" fill="none" xmlns="http://www.w3.org/2000/svg">
<path fill-rule="evenodd" clip-rule="evenodd" d="M5.00586 15.2271C5.51019 9.44205 10.1194 4.83298 15.9045 4.32881C15.6926 7.1389 14.4818 9.79207 12.4757 11.7982C10.4694 13.8045 7.81612 15.0153 5.00586 15.2271ZM16.0105 28.246C10.1403 27.7865 5.4566 23.1028 4.99707 17.2326C8.34168 17.0193 11.5064 15.596 13.8899 13.2124C16.2733 10.829 17.6965 7.66448 17.9099 4.32007C23.7799 4.77974 28.4634 9.46324 28.923 15.3333C25.5786 15.5467 22.4141 16.9699 20.0307 19.3533C17.6471 21.7368 16.2239 24.9014 16.0105 28.246ZM18.016 28.2372C23.801 27.7329 28.41 23.1238 28.9143 17.3387C26.1042 17.5506 23.451 18.7614 21.4449 20.7675C19.4386 22.7737 18.2278 25.427 18.016 28.2372Z" fill="#1C1B1F"/>
</svg>
