<svg width="32" height="33" viewBox="0 0 32 33" fill="none" xmlns="http://www.w3.org/2000/svg">
<path fill-rule="evenodd" clip-rule="evenodd" d="M0.00854927 15.4281C0.536639 7.43063 6.93109 1.03634 14.9286 0.508489C14.6504 4.36021 12.9965 7.99899 10.2481 10.7474C7.49954 13.496 3.86051 15.15 0.00854927 15.4281ZM15.0665 32.4998C6.95848 32.0342 0.465581 25.5412 0 17.4332C4.3862 17.1538 8.53654 15.2875 11.6623 12.1616C14.7879 9.03599 16.6542 4.88593 16.9337 0.5C25.0415 0.965809 31.5341 7.4585 31.9998 15.5662C27.6139 15.8457 23.4637 17.712 20.3381 20.8377C17.2123 23.9634 15.3459 28.1137 15.0665 32.4998ZM17.0717 32.4913C25.0691 31.9633 31.4634 25.5689 31.9913 17.5714C28.1396 17.8495 24.5007 19.5035 21.7523 22.2519C19.0037 25.0004 17.3497 28.6394 17.0717 32.4913Z" fill="#111827"/>
</svg>
