<svg width="32" height="32" viewBox="0 0 32 32" fill="none" xmlns="http://www.w3.org/2000/svg">
<path fill-rule="evenodd" clip-rule="evenodd" d="M0.00854927 14.9281C0.536639 6.93063 6.93109 0.53634 14.9286 0.00848897C14.6504 3.86021 12.9965 7.49899 10.2481 10.2474C7.49954 12.996 3.86051 14.65 0.00854927 14.9281ZM15.0665 31.9998C6.95848 31.5342 0.465581 25.0412 0 16.9332C4.3862 16.6538 8.53654 14.7875 11.6623 11.6616C14.7879 8.53599 16.6542 4.38593 16.9337 0C25.0415 0.465809 31.5341 6.9585 31.9998 15.0662C27.6139 15.3457 23.4637 17.212 20.3381 20.3377C17.2123 23.4634 15.3459 27.6137 15.0665 31.9998ZM17.0717 31.9913C25.0691 31.4633 31.4634 25.0689 31.9913 17.0714C28.1396 17.3495 24.5007 19.0035 21.7523 21.7519C19.0037 24.5004 17.3497 28.1394 17.0717 31.9913Z" fill="#111827"/>
</svg>
