<svg width="32" height="33" viewBox="0 0 32 33" fill="none" xmlns="http://www.w3.org/2000/svg">
<path fill-rule="evenodd" clip-rule="evenodd" d="M3.70711 5.86516C3.31658 5.47463 2.68342 5.47463 2.29289 5.86516C1.90237 6.25568 1.90237 6.88885 2.29289 7.27937L11.5134 16.4999L2.29289 25.7205C1.90237 26.111 1.90237 26.7442 2.29289 27.1347C2.68342 27.5252 3.31658 27.5252 3.70711 27.1347L13.6348 17.207C13.8223 17.0195 13.9277 16.7651 13.9277 16.4999C13.9277 16.2347 13.8223 15.9804 13.6348 15.7928L3.70711 5.86516ZM16.141 25.4274C15.5887 25.4274 15.141 25.8751 15.141 26.4274C15.141 26.9797 15.5887 27.4274 16.141 27.4274H28.9993C29.5516 27.4274 29.9993 26.9797 29.9993 26.4274C29.9993 25.8751 29.5516 25.4274 28.9993 25.4274H16.141Z" fill="#111827"/>
</svg>
