<svg width="33" height="33" viewBox="0 0 33 33" fill="none" xmlns="http://www.w3.org/2000/svg">
<path fill-rule="evenodd" clip-rule="evenodd" d="M5.95996 6.28296C5.40768 6.28296 4.95996 6.73067 4.95996 7.28296V25.283C4.95996 25.8352 5.40768 26.283 5.95996 26.283H27.96C28.5122 26.283 28.96 25.8352 28.96 25.283V7.28296C28.96 6.73067 28.5122 6.28296 27.96 6.28296H5.95996ZM11.0102 11.0906C11.4007 10.7001 12.0339 10.7001 12.4244 11.0906L16.667 15.3333C17.0576 15.7238 17.0576 16.357 16.667 16.7475L12.4244 20.9901C12.0339 21.3806 11.4007 21.3806 11.0102 20.9901C10.6197 20.5996 10.6197 19.9664 11.0102 19.5759L14.5457 16.0404L11.0102 12.5048C10.6197 12.1143 10.6197 11.4811 11.0102 11.0906ZM16.959 20.283C16.959 19.7307 17.4067 19.283 17.959 19.283H22.959C23.5113 19.283 23.959 19.7307 23.959 20.283C23.959 20.8352 23.5113 21.283 22.959 21.283H17.959C17.4067 21.283 16.959 20.8352 16.959 20.283Z" fill="#1C1B1F"/>
</svg>
