<svg width="32" height="32" viewBox="0 0 32 32" fill="none" xmlns="http://www.w3.org/2000/svg">
<path fill-rule="evenodd" clip-rule="evenodd" d="M1 2.66663C0.447715 2.66663 0 3.11434 0 3.66663V28.3333C0 28.8856 0.447715 29.3333 1 29.3333H31C31.5523 29.3333 32 28.8856 32 28.3333V3.66663C32 3.11434 31.5523 2.66663 31 2.66663H1ZM8.30282 9.31247C8.69335 8.92194 9.32651 8.92194 9.71703 9.31247L15.3739 14.9693C15.5614 15.1569 15.6668 15.4112 15.6668 15.6764C15.6668 15.9416 15.5614 16.196 15.3739 16.3835L9.71703 22.0404C9.32651 22.4309 8.69335 22.4309 8.30282 22.0404C7.9123 21.6499 7.9123 21.0167 8.30282 20.6262L13.2526 15.6764L8.30282 10.7267C7.9123 10.3362 7.9123 9.70299 8.30282 9.31247ZM16.3322 21.3332C16.3322 20.7809 16.7799 20.3332 17.3322 20.3332H23.9989C24.5511 20.3332 24.9989 20.7809 24.9989 21.3332C24.9989 21.8855 24.5511 22.3332 23.9989 22.3332H17.3322C16.7799 22.3332 16.3322 21.8855 16.3322 21.3332Z" fill="#111827"/>
</svg>
