<svg width="32" height="32" viewBox="0 0 32 32" fill="none" xmlns="http://www.w3.org/2000/svg">
<path fill-rule="evenodd" clip-rule="evenodd" d="M3.70711 5.36516C3.31658 4.97463 2.68342 4.97463 2.29289 5.36516C1.90237 5.75568 1.90237 6.38885 2.29289 6.77937L11.5134 15.9999L2.29289 25.2205C1.90237 25.611 1.90237 26.2442 2.29289 26.6347C2.68342 27.0252 3.31658 27.0252 3.70711 26.6347L13.6348 16.707C13.8223 16.5195 13.9277 16.2651 13.9277 15.9999C13.9277 15.7347 13.8223 15.4804 13.6348 15.2928L3.70711 5.36516ZM16.141 24.9274C15.5887 24.9274 15.141 25.3751 15.141 25.9274C15.141 26.4797 15.5887 26.9274 16.141 26.9274H28.9993C29.5516 26.9274 29.9993 26.4797 29.9993 25.9274C29.9993 25.3751 29.5516 24.9274 28.9993 24.9274H16.141Z" fill="#111827"/>
</svg>
