<svg width="32" height="33" viewBox="0 0 32 33" fill="none" xmlns="http://www.w3.org/2000/svg">
<path fill-rule="evenodd" clip-rule="evenodd" d="M1 3.1665C0.447715 3.1665 0 3.61422 0 4.1665V28.8332C0 29.3855 0.447715 29.8332 1 29.8332H31C31.5523 29.8332 32 29.3855 32 28.8332V4.1665C32 3.61422 31.5523 3.1665 31 3.1665H1ZM8.30282 9.81234C8.69335 9.42182 9.32651 9.42182 9.71703 9.81234L15.3739 15.4692C15.5614 15.6567 15.6668 15.9111 15.6668 16.1763C15.6668 16.4415 15.5614 16.6959 15.3739 16.8834L9.71703 22.5403C9.32651 22.9308 8.69335 22.9308 8.30282 22.5403C7.9123 22.1497 7.9123 21.5166 8.30282 21.1261L13.2526 16.1763L8.30282 11.2266C7.9123 10.836 7.9123 10.2029 8.30282 9.81234ZM16.3322 21.8331C16.3322 21.2808 16.7799 20.8331 17.3322 20.8331H23.9989C24.5511 20.8331 24.9989 21.2808 24.9989 21.8331C24.9989 22.3854 24.5511 22.8331 23.9989 22.8331H17.3322C16.7799 22.8331 16.3322 22.3854 16.3322 21.8331Z" fill="#111827"/>
</svg>
