<svg width="33" height="33" viewBox="0 0 33 33" fill="none" xmlns="http://www.w3.org/2000/svg">
<path fill-rule="evenodd" clip-rule="evenodd" d="M29.6672 10.3421C29.9186 10.5935 30.0176 10.9596 29.9272 11.3035C29.8367 11.6475 29.5704 11.9175 29.2278 12.0127L26.6283 12.735L14.2714 25.0918C12.2969 27.0663 9.09556 27.0663 7.12103 25.0918C5.1465 23.1173 5.1465 19.9159 7.12103 17.9414L21.4866 3.57579C21.6742 3.38825 21.9285 3.2829 22.1938 3.2829C22.459 3.2829 22.7133 3.38825 22.9009 3.57579L29.6672 10.3421ZM25.8394 10.8784L27.0411 10.5445L22.1938 5.69711L12.9019 14.989C13.6181 15.1335 14.298 15.4952 15.0529 15.8968C15.5742 16.1741 16.1311 16.4704 16.7605 16.7274C17.6759 17.1012 18.8215 16.9554 19.8351 16.6997L25.4 11.1348C25.5219 11.0129 25.6733 10.9246 25.8394 10.8784Z" fill="#1C1B1F"/>
</svg>
