<svg width="32" height="32" viewBox="0 0 32 32" fill="none" xmlns="http://www.w3.org/2000/svg">
<path fill-rule="evenodd" clip-rule="evenodd" d="M31.706 10.0801C31.9575 10.3316 32.0565 10.6977 31.966 11.0416C31.8756 11.3855 31.6093 11.6555 31.2666 11.7507L27.6858 12.7457L11.0145 29.417C8.49514 31.9364 4.4104 31.9364 1.89101 29.417C-0.628384 26.8976 -0.628382 22.8128 1.89101 20.2934L21.1981 0.986374C21.3856 0.798838 21.64 0.693482 21.9052 0.693481C22.1704 0.693481 22.4247 0.798838 22.6123 0.986374L31.706 10.0801ZM26.8969 10.8891L29.08 10.2825L21.9052 3.10769L8.99602 16.0169C10.1177 16.1367 11.1471 16.6844 12.3087 17.3023C13.0092 17.675 13.7578 18.0732 14.6036 18.4186C16.0405 19.0054 17.8992 18.6395 19.4046 18.1985L26.4576 11.1455C26.5795 11.0236 26.7308 10.9353 26.8969 10.8891Z" fill="#111827"/>
</svg>
