<svg width="33" height="33" viewBox="0 0 33 33" fill="none" xmlns="http://www.w3.org/2000/svg">
<path fill-rule="evenodd" clip-rule="evenodd" d="M15.2456 6.71155C15.7979 6.71155 16.2456 7.15926 16.2456 7.71155V24.8544C16.2456 25.4067 15.7979 25.8544 15.2456 25.8544C14.6933 25.8544 14.2456 25.4067 14.2456 24.8544V22.283H5.95996C5.40768 22.283 4.95996 21.8352 4.95996 21.283V11.283C4.95996 10.7307 5.40768 10.283 5.95996 10.283H14.2456V7.71155C14.2456 7.15926 14.6933 6.71155 15.2456 6.71155ZM7.60303 14.5687C7.60303 14.0164 8.05074 13.5687 8.60303 13.5687H10.103H11.603C12.1553 13.5687 12.603 14.0164 12.603 14.5687C12.603 15.121 12.1553 15.5687 11.603 15.5687H11.103V18.4259C11.103 18.9782 10.6553 19.4259 10.103 19.4259C9.55074 19.4259 9.10303 18.9782 9.10303 18.4259V15.5687H8.60303C8.05074 15.5687 7.60303 15.121 7.60303 14.5687ZM19.6743 10.283H27.96C28.5123 10.283 28.96 10.7307 28.96 11.283V21.283C28.96 21.8352 28.5123 22.283 27.96 22.283H19.6743C19.122 22.283 18.6743 21.8352 18.6743 21.283V11.283C18.6743 10.7307 19.122 10.283 19.6743 10.283Z" fill="#1C1B1F"/>
</svg>
