<svg width="32" height="32" viewBox="0 0 32 32" fill="none" xmlns="http://www.w3.org/2000/svg">
<path fill-rule="evenodd" clip-rule="evenodd" d="M6.00146 7.08698C6.00146 6.53469 5.55375 6.08698 5.00146 6.08698C4.44918 6.08698 4.00146 6.53469 4.00146 7.08698V14.4195V21.7521C4.00146 22.3043 4.44918 22.7521 5.00146 22.7521C5.55375 22.7521 6.00146 22.3043 6.00146 21.7521V15.4195H16.7117V21.7521C16.7117 22.3043 17.1594 22.7521 17.7117 22.7521C18.264 22.7521 18.7117 22.3043 18.7117 21.7521V7.08698C18.7117 6.53469 18.264 6.08698 17.7117 6.08698C17.1594 6.08698 16.7117 6.53469 16.7117 7.08698V13.4195H6.00146V7.08698ZM27.9991 13.4418C27.9991 13.0768 27.8001 12.7407 27.4801 12.5651C27.16 12.3895 26.7697 12.4023 26.4618 12.5984L23.5288 14.4668C23.063 14.7636 22.9259 15.3817 23.2227 15.8475C23.5194 16.3133 24.1375 16.4504 24.6033 16.1536L25.9991 15.2645V24.913C25.9991 25.4653 26.4468 25.913 26.9991 25.913C27.5513 25.913 27.9991 25.4653 27.9991 24.913V13.4418Z" fill="#111827"/>
</svg>
