<svg width="33" height="33" viewBox="0 0 33 33" fill="none" xmlns="http://www.w3.org/2000/svg">
<path fill-rule="evenodd" clip-rule="evenodd" d="M8.72949 9.45215C8.72949 8.89986 8.28178 8.45215 7.72949 8.45215C7.17721 8.45215 6.72949 8.89986 6.72949 9.45215V14.9906V20.5291C6.72949 21.0813 7.17721 21.5291 7.72949 21.5291C8.28178 21.5291 8.72949 21.0813 8.72949 20.5291V15.9906H16.3295V20.5291C16.3295 21.0813 16.7772 21.5291 17.3295 21.5291C17.8818 21.5291 18.3295 21.0813 18.3295 20.5291V14.996L18.3295 14.9906L18.3295 14.9852V9.45215C18.3295 8.89986 17.8818 8.45215 17.3295 8.45215C16.7772 8.45215 16.3295 8.89986 16.3295 9.45215V13.9906H8.72949V9.45215ZM22.4786 13.2521C21.9921 13.2521 21.5762 13.6022 21.4932 14.0815L20.6535 18.9312C20.5787 19.3631 20.7939 19.7933 21.1843 19.9926C21.5748 20.1918 22.0495 20.1135 22.3553 19.7995C22.4056 19.7478 22.4605 19.6989 22.5196 19.6533C22.7979 19.4391 23.1664 19.3026 23.5814 19.3026C24.5486 19.3026 25.191 20.0069 25.191 20.7081C25.191 21.4093 24.5486 22.1137 23.5814 22.1137C23.0352 22.1137 22.5717 21.8775 22.2869 21.5416C21.9297 21.1203 21.2987 21.0684 20.8774 21.4256C20.4562 21.7828 20.4043 22.4138 20.7615 22.8351C21.4319 23.6257 22.4563 24.1137 23.5814 24.1137C25.4967 24.1137 27.191 22.6641 27.191 20.7081C27.191 18.7522 25.4967 17.3026 23.5814 17.3026C23.3688 17.3026 23.16 17.32 22.9564 17.3535L23.3203 15.2521H26.191C26.7433 15.2521 27.191 14.8044 27.191 14.2521C27.191 13.6999 26.7433 13.2521 26.191 13.2521H22.4786Z" fill="#1C1B1F"/>
</svg>
