<svg width="32" height="32" viewBox="0 0 32 32" fill="none" xmlns="http://www.w3.org/2000/svg">
<path fill-rule="evenodd" clip-rule="evenodd" d="M1.00244 4.77448C0.450157 4.77448 0.00244141 5.22219 0.00244141 5.77448C0.00244141 6.32676 0.450157 6.77448 1.00244 6.77448H30.9974C31.5497 6.77448 31.9974 6.32676 31.9974 5.77448C31.9974 5.22219 31.5497 4.77448 30.9974 4.77448H1.00244ZM9.18226 11.5915C8.62998 11.5915 8.18226 12.0392 8.18226 12.5915C8.18226 13.1438 8.62998 13.5915 9.18226 13.5915H30.9968C31.5491 13.5915 31.9968 13.1438 31.9968 12.5915C31.9968 12.0392 31.5491 11.5915 30.9968 11.5915H9.18226ZM0.00390959 19.4085C0.00390959 18.8562 0.451625 18.4085 1.00391 18.4085H30.9978C31.5501 18.4085 31.9978 18.8562 31.9978 19.4085C31.9978 19.9608 31.5501 20.4085 30.9978 20.4085H1.00391C0.451625 20.4085 0.00390959 19.9608 0.00390959 19.4085ZM9.18422 25.2256C8.63193 25.2256 8.18422 25.6733 8.18422 26.2256C8.18422 26.7779 8.63193 27.2256 9.18422 27.2256H30.9977C31.55 27.2256 31.9977 26.7779 31.9977 26.2256C31.9977 25.6733 31.55 25.2256 30.9977 25.2256H9.18422Z" fill="#111827"/>
</svg>
