<svg width="32" height="32" viewBox="0 0 32 32" fill="none" xmlns="http://www.w3.org/2000/svg">
<path fill-rule="evenodd" clip-rule="evenodd" d="M7.479 4.00122C6.88708 4.00122 6.40723 4.48107 6.40723 5.073V15.2105C6.40723 15.2369 6.40818 15.2631 6.41006 15.289C6.40818 15.315 6.40723 15.3414 6.40723 15.3679V26.9133C6.40723 27.5128 6.89323 27.9988 7.49273 27.9988H18.7346C22.5222 27.9988 25.5928 24.9283 25.5928 21.1406C25.5928 18.1049 23.6204 15.5299 20.8872 14.6271C22.0852 13.5065 22.8339 11.9116 22.8339 10.1417C22.8339 6.75043 20.0847 4.00122 16.6934 4.00122H7.479ZM8.40723 14.2823V6.00122H16.6934C18.9801 6.00122 20.8339 7.855 20.8339 10.1417C20.8339 12.4285 18.9801 14.2823 16.6934 14.2823H8.40723ZM8.40723 25.9988V16.2824H18.7346C21.4177 16.2824 23.5928 18.4575 23.5928 21.1406C23.5928 23.8237 21.4177 25.9988 18.7346 25.9988H8.40723Z" fill="#111827"/>
</svg>
