<svg width="33" height="33" viewBox="0 0 33 33" fill="none" xmlns="http://www.w3.org/2000/svg">
<path fill-rule="evenodd" clip-rule="evenodd" d="M8.72949 8.80255C8.72949 8.25027 8.28178 7.80255 7.72949 7.80255C7.17721 7.80255 6.72949 8.25027 6.72949 8.80255V14.9565V21.1104C6.72949 21.6627 7.17721 22.1104 7.72949 22.1104C8.28178 22.1104 8.72949 21.6627 8.72949 21.1104V15.9565H17.3963V21.1104C17.3963 21.6627 17.844 22.1104 18.3963 22.1104C18.9486 22.1104 19.3963 21.6627 19.3963 21.1104V8.80255C19.3963 8.25027 18.9486 7.80255 18.3963 7.80255C17.844 7.80255 17.3963 8.25027 17.3963 8.80255V13.9565H8.72949V8.80255ZM27.191 14.1359C27.191 13.7709 26.9921 13.4348 26.672 13.2592C26.352 13.0836 25.9616 13.0964 25.6537 13.2925L23.1922 14.8606C22.7264 15.1573 22.5893 15.7755 22.8861 16.2413C23.1828 16.7071 23.801 16.8441 24.2668 16.5474L25.191 15.9586V23.7632C25.191 24.3155 25.6387 24.7632 26.191 24.7632C26.7433 24.7632 27.191 24.3155 27.191 23.7632V14.1359Z" fill="#1C1B1F"/>
</svg>
