<svg width="32" height="32" viewBox="0 0 32 32" fill="none" xmlns="http://www.w3.org/2000/svg">
<path fill-rule="evenodd" clip-rule="evenodd" d="M1.7275 4.38567C1.33697 3.99514 0.703809 3.99514 0.313285 4.38567C-0.0772394 4.77619 -0.0772395 5.40936 0.313285 5.79988L5.39057 10.8772L0.313284 15.9544C-0.0772405 16.345 -0.0772405 16.9781 0.313284 17.3687C0.703808 17.7592 1.33697 17.7592 1.7275 17.3687L7.51189 11.5843C7.69942 11.3967 7.80478 11.1424 7.80478 10.8772C7.80478 10.6119 7.69942 10.3576 7.51189 10.1701L1.7275 4.38567ZM30.9976 4.09277H12.0063C11.4541 4.09277 11.0063 4.54049 11.0063 5.09277C11.0063 5.64506 11.4541 6.09277 12.0063 6.09277H30.9976C31.5498 6.09277 31.9976 5.64506 31.9976 5.09277C31.9976 4.54049 31.5498 4.09277 30.9976 4.09277ZM12.0063 14.9999C11.4541 14.9999 11.0063 15.4476 11.0063 15.9999C11.0063 16.5522 11.4541 16.9999 12.0063 16.9999H30.9976C31.5498 16.9999 31.9976 16.5522 31.9976 15.9999C31.9976 15.4476 31.5498 14.9999 30.9976 14.9999H12.0063ZM0.00244141 26.9071C0.00244141 26.3548 0.450157 25.9071 1.00244 25.9071H30.9971C31.5494 25.9071 31.9971 26.3548 31.9971 26.9071C31.9971 27.4593 31.5494 27.9071 30.9971 27.9071H1.00244C0.450157 27.9071 0.00244141 27.4593 0.00244141 26.9071Z" fill="#111827"/>
</svg>
