<svg width="33" height="33" viewBox="0 0 33 33" fill="none" xmlns="http://www.w3.org/2000/svg">
<path fill-rule="evenodd" clip-rule="evenodd" d="M15.8583 17.0806L13.4619 12.6215L11.0858 17.0806H15.8583ZM18.3597 17.5102L14.7814 10.8518C14.2142 9.79642 12.6997 9.79908 12.1363 10.8564L6.84668 20.7828C6.58696 21.2702 6.77152 21.8759 7.25892 22.1356C7.74632 22.3953 8.35199 22.2108 8.61172 21.7234L10.02 19.0806H16.9331L18.3551 21.7265C18.6165 22.213 19.2228 22.3954 19.7093 22.134C20.1958 21.8725 20.3782 21.2662 20.1168 20.7797L18.4679 17.7116C18.4395 17.6401 18.4031 17.5726 18.3597 17.5102ZM20.7212 14.1623C20.7212 13.61 21.169 13.1623 21.7212 13.1623H23.1903C25.3995 13.1623 27.1903 14.9531 27.1903 17.1623V19.2286L27.1906 19.2696L27.1903 19.3106V21.504C27.1903 22.0562 26.7426 22.504 26.1903 22.504C25.8556 22.504 25.5593 22.3395 25.3777 22.0869C24.8501 22.3557 24.2499 22.504 23.637 22.504C21.8041 22.504 20.0835 21.1771 20.0835 19.2696C20.0835 17.3621 21.8041 16.0352 23.637 16.0352C24.1026 16.0352 24.5609 16.1208 24.9856 16.2798C24.6596 15.6178 23.9782 15.1623 23.1903 15.1623H21.7212C21.169 15.1623 20.7212 14.7145 20.7212 14.1623ZM23.637 20.504C24.6123 20.504 25.1764 19.8468 25.1903 19.2907V19.2485C25.1764 18.6924 24.6123 18.0352 23.637 18.0352C22.6494 18.0352 22.0835 18.7091 22.0835 19.2696C22.0835 19.8301 22.6494 20.504 23.637 20.504Z" fill="#1C1B1F"/>
</svg>
