<svg width="33" height="33" viewBox="0 0 33 33" fill="none" xmlns="http://www.w3.org/2000/svg">
<path fill-rule="evenodd" clip-rule="evenodd" d="M9.48697 11.7818C9.48697 8.74368 11.9499 6.28076 14.988 6.28076H23.4336C23.9858 6.28076 24.4336 6.72848 24.4336 7.28076C24.4336 7.83305 23.9858 8.28076 23.4336 8.28076H14.988C13.0545 8.28076 11.487 9.84825 11.487 11.7818C11.487 13.7154 13.0545 15.2829 14.988 15.2829H19.1362L19.1399 15.2829H25.962C26.5143 15.2829 26.962 15.7306 26.962 16.2829C26.962 16.8352 26.5143 17.2829 25.962 17.2829H23.175C23.9608 18.2341 24.4329 19.454 24.4329 20.7841C24.4329 23.8223 21.97 26.2852 18.9318 26.2852H10.4863C9.934 26.2852 9.48628 25.8375 9.48628 25.2852C9.48628 24.7329 9.934 24.2852 10.4863 24.2852H18.9318C20.8654 24.2852 22.4329 22.7177 22.4329 20.7841C22.4329 18.8505 20.8654 17.283 18.9318 17.283H14.6657C14.6605 17.283 14.6552 17.283 14.6499 17.2829H7.95752C7.40523 17.2829 6.95752 16.8352 6.95752 16.2829C6.95752 15.7306 7.40523 15.2829 7.95752 15.2829H10.7447C9.95901 14.3317 9.48697 13.1119 9.48697 11.7818Z" fill="#1C1B1F"/>
</svg>
