<svg width="32" height="32" viewBox="0 0 32 32" fill="none" xmlns="http://www.w3.org/2000/svg">
<path fill-rule="evenodd" clip-rule="evenodd" d="M5.00146 5.00238C4.44918 5.00238 4.00146 5.4501 4.00146 6.00238V10.5C4.00146 11.0523 4.44918 11.5 5.00146 11.5C5.55375 11.5 6.00146 11.0523 6.00146 10.5V7.00238H14.9953V24.9975H11.5514C10.9992 24.9975 10.5514 25.4452 10.5514 25.9975C10.5514 26.5498 10.9992 26.9975 11.5514 26.9975H15.9879L15.9953 26.9975L16.0027 26.9975H20.4382C20.9905 26.9975 21.4382 26.5498 21.4382 25.9975C21.4382 25.4452 20.9905 24.9975 20.4382 24.9975H16.9953V7.00238H25.999V10.5C25.999 11.0523 26.4467 11.5 26.999 11.5C27.5513 11.5 27.999 11.0523 27.999 10.5V6.00238C27.999 5.4501 27.5513 5.00238 26.999 5.00238H15.9953H5.00146Z" fill="#111827"/>
</svg>
