<svg width="33" height="33" viewBox="0 0 33 33" fill="none" xmlns="http://www.w3.org/2000/svg">
<path fill-rule="evenodd" clip-rule="evenodd" d="M7.72949 8.94806C8.28178 8.94806 8.72949 9.39577 8.72949 9.94806V14.378H16.1414V9.94806C16.1414 9.39577 16.5891 8.94806 17.1414 8.94806C17.6936 8.94806 18.1414 9.39577 18.1414 9.94806V20.8078C18.1414 21.3601 17.6936 21.8078 17.1414 21.8078C16.5891 21.8078 16.1414 21.3601 16.1414 20.8078V16.378H8.72949V20.8078C8.72949 21.3601 8.28178 21.8078 7.72949 21.8078C7.17721 21.8078 6.72949 21.3601 6.72949 20.8078V15.378V9.94806C6.72949 9.39577 7.17721 8.94806 7.72949 8.94806ZM24.8939 13.0715C25.3681 13.3547 25.5228 13.9686 25.2396 14.4428L23.9727 16.5638C25.7766 16.7235 27.191 18.2385 27.191 20.0838C27.191 22.0356 25.6088 23.6178 23.6571 23.6178C21.7053 23.6178 20.1231 22.0356 20.1231 20.0838C20.1231 19.4037 20.3153 18.7684 20.6482 18.2293L23.5226 13.4172C23.8058 12.943 24.4198 12.7882 24.8939 13.0715ZM22.331 19.3122C22.1988 19.5389 22.1231 19.8025 22.1231 20.0838C22.1231 20.931 22.8099 21.6178 23.6571 21.6178C24.5042 21.6178 25.191 20.931 25.191 20.0838C25.191 19.2367 24.5042 18.5499 23.6571 18.5499C23.1027 18.5499 22.6171 18.8439 22.3476 19.2846L22.331 19.3122Z" fill="#1C1B1F"/>
</svg>
