<svg width="32" height="32" viewBox="0 0 32 32" fill="none" xmlns="http://www.w3.org/2000/svg">
<path fill-rule="evenodd" clip-rule="evenodd" d="M18.2785 6.00149L11.6128 25.9986H6.22363C5.67135 25.9986 5.22363 26.4463 5.22363 26.9986C5.22363 27.5509 5.67135 27.9986 6.22363 27.9986H12.3141C12.3272 27.9988 12.3403 27.9988 12.3534 27.9986H18.4442C18.9965 27.9986 19.4442 27.5509 19.4442 26.9986C19.4442 26.4463 18.9965 25.9986 18.4442 25.9986H13.721L20.3867 6.00149H25.7764C26.3287 6.00149 26.7764 5.55378 26.7764 5.00149C26.7764 4.44921 26.3287 4.00149 25.7764 4.00149H19.689C19.6735 4.00113 19.658 4.00113 19.6426 4.00149H13.5558C13.0035 4.00149 12.5558 4.44921 12.5558 5.00149C12.5558 5.55378 13.0035 6.00149 13.5558 6.00149H18.2785Z" fill="#111827"/>
</svg>
