<svg width="32" height="32" viewBox="0 0 32 32" fill="none" xmlns="http://www.w3.org/2000/svg">
<path fill-rule="evenodd" clip-rule="evenodd" d="M6.00146 8.08093C6.00146 7.52865 5.55375 7.08093 5.00146 7.08093C4.44918 7.08093 4.00146 7.52865 4.00146 8.08093V14.6802V21.2794C4.00146 21.8317 4.44918 22.2794 5.00146 22.2794C5.55375 22.2794 6.00146 21.8317 6.00146 21.2794V15.6802H15.4403V21.2794C15.4403 21.8317 15.888 22.2794 16.4403 22.2794C16.9925 22.2794 17.4403 21.8317 17.4403 21.2794V8.08093C17.4403 7.52865 16.9925 7.08093 16.4403 7.08093C15.888 7.08093 15.4403 7.52865 15.4403 8.08093V13.6802H6.00146V8.08093ZM22.5665 15.2698C22.8967 14.744 23.479 14.398 24.1414 14.398C25.1674 14.398 25.9991 15.2297 25.9991 16.2557C25.9991 16.471 25.9784 16.589 25.8214 16.857C25.8218 16.8563 25.82 16.8589 25.8156 16.8651C25.7969 16.892 25.7309 16.9865 25.5946 17.1723C25.4456 17.3753 25.2439 17.6457 25.0063 17.9617C24.5315 18.5931 23.9202 19.3975 23.3153 20.1905C22.7107 20.9831 22.1136 21.7629 21.6675 22.3447C21.4445 22.6356 21.2593 22.8768 21.1298 23.0454L20.9798 23.2407L20.9403 23.2921L20.9303 23.3052L20.9277 23.3085L20.9271 23.3093L20.9269 23.3095L21.7197 23.9191L20.9269 23.3096C20.6947 23.6116 20.6543 24.0192 20.8226 24.361C20.9909 24.7027 21.3387 24.9191 21.7197 24.9191H26.9991C27.5513 24.9191 27.9991 24.4714 27.9991 23.9191C27.9991 23.3668 27.5513 22.9191 26.9991 22.9191H23.747C24.1014 22.4563 24.5017 21.9328 24.9055 21.4035C25.5112 20.6094 26.1258 19.8007 26.6048 19.1637C26.8441 18.8455 27.0512 18.5678 27.2071 18.3554C27.3441 18.1686 27.4838 17.976 27.547 17.8681C27.8779 17.3033 27.9991 16.8378 27.9991 16.2557C27.9991 14.1252 26.2719 12.398 24.1414 12.398C22.7625 12.398 21.5536 13.1222 20.8728 14.2062C20.5791 14.6739 20.7201 15.2911 21.1878 15.5848C21.6555 15.8786 22.2728 15.7375 22.5665 15.2698Z" fill="#111827"/>
</svg>
