<svg width="32" height="32" viewBox="0 0 32 32" fill="none" xmlns="http://www.w3.org/2000/svg">
<path fill-rule="evenodd" clip-rule="evenodd" d="M7.09176 10.5007C7.09176 6.91127 10.0016 4.00146 13.591 4.00146H23.9094C24.4617 4.00146 24.9094 4.44918 24.9094 5.00146C24.9094 5.55375 24.4617 6.00146 23.9094 6.00146H13.591C11.1061 6.00146 9.09176 8.01584 9.09176 10.5007C9.09176 12.9856 11.1061 14.9999 13.591 14.9999H18.6591L18.6702 15H26.9987C27.5509 15 27.9987 15.4477 27.9987 16C27.9987 16.5523 27.5509 17 26.9987 17H23.0997C24.2203 18.1677 24.909 19.7531 24.909 21.4994C24.909 25.0888 21.9992 27.9986 18.4097 27.9986H8.09134C7.53905 27.9986 7.09134 27.5509 7.09134 26.9986C7.09134 26.4463 7.53905 25.9986 8.09134 25.9986H18.4097C20.8946 25.9986 22.909 23.9842 22.909 21.4994C22.909 19.0145 20.8946 17.0001 18.4097 17.0001H13.1976C13.1924 17.0001 13.1871 17.0001 13.1818 17H5.00146C4.44918 17 4.00146 16.5523 4.00146 16C4.00146 15.4477 4.44918 15 5.00146 15H8.90095C7.78041 13.8323 7.09176 12.2469 7.09176 10.5007Z" fill="#111827"/>
</svg>
