<svg width="32" height="32" viewBox="0 0 32 32" fill="none" xmlns="http://www.w3.org/2000/svg">
<path fill-rule="evenodd" clip-rule="evenodd" d="M6.00146 7.86102C6.00146 7.30874 5.55375 6.86102 5.00146 6.86102C4.44918 6.86102 4.00146 7.30874 4.00146 7.86102V14.4601V21.0593C4.00146 21.6116 4.44918 22.0593 5.00146 22.0593C5.55375 22.0593 6.00146 21.6116 6.00146 21.0593V15.4601H15.4401V21.0593C15.4401 21.6116 15.8878 22.0593 16.4401 22.0593C16.9924 22.0593 17.4401 21.6116 17.4401 21.0593V7.86102C17.4401 7.30874 16.9924 6.86102 16.4401 6.86102C15.8878 6.86102 15.4401 7.30874 15.4401 7.86102V13.4601H6.00146V7.86102ZM22.5755 12.5803C22.0891 12.5803 21.6732 12.9303 21.5902 13.4097L20.5896 19.1881C20.5148 19.62 20.73 20.0503 21.1205 20.2495C21.5109 20.4487 21.9856 20.3704 22.2914 20.0564C22.3578 19.9882 22.43 19.9239 22.5076 19.8641C22.8726 19.5831 23.3528 19.4064 23.8896 19.4064C25.1328 19.4064 25.999 20.3171 25.999 21.2727C25.999 22.2283 25.1328 23.1389 23.8896 23.1389C23.1833 23.1389 22.5774 22.8334 22.2011 22.3896C21.8439 21.9684 21.2128 21.9165 20.7916 22.2736C20.3704 22.6308 20.3185 23.2619 20.6757 23.6831C21.4375 24.5816 22.6044 25.1389 23.8896 25.1389C26.0809 25.1389 27.999 23.483 27.999 21.2727C27.999 19.0623 26.0809 17.4064 23.8896 17.4064C23.5526 17.4064 23.224 17.4447 22.9087 17.5173L23.4173 14.5803H26.999C27.5513 14.5803 27.999 14.1326 27.999 13.5803C27.999 13.028 27.5513 12.5803 26.999 12.5803H22.5755Z" fill="#111827"/>
</svg>
