<svg width="33" height="33" viewBox="0 0 33 33" fill="none" xmlns="http://www.w3.org/2000/svg">
<path fill-rule="evenodd" clip-rule="evenodd" d="M7.72949 8.98926C7.17721 8.98926 6.72949 9.43697 6.72949 9.98926C6.72949 10.5415 7.17721 10.9893 7.72949 10.9893H26.1909C26.7432 10.9893 27.1909 10.5415 27.1909 9.98926C27.1909 9.43697 26.7432 8.98926 26.1909 8.98926H7.72949ZM12.7644 13.185C12.2121 13.185 11.7644 13.6327 11.7644 14.185C11.7644 14.7373 12.2121 15.185 12.7644 15.185H26.1909C26.7432 15.185 27.1909 14.7373 27.1909 14.185C27.1909 13.6327 26.7432 13.185 26.1909 13.185H12.7644ZM6.73024 18.3808C6.73024 17.8285 7.17796 17.3808 7.73024 17.3808H26.191C26.7433 17.3808 27.191 17.8285 27.191 18.3808C27.191 18.9331 26.7433 19.3808 26.191 19.3808H7.73024C7.17796 19.3808 6.73024 18.9331 6.73024 18.3808ZM12.7652 21.5766C12.2129 21.5766 11.7652 22.0243 11.7652 22.5766C11.7652 23.1289 12.2129 23.5766 12.7652 23.5766H26.191C26.7433 23.5766 27.191 23.1289 27.191 22.5766C27.191 22.0243 26.7433 21.5766 26.191 21.5766H12.7652Z" fill="#1C1B1F"/>
</svg>
