<svg width="32" height="32" viewBox="0 0 32 32" fill="none" xmlns="http://www.w3.org/2000/svg">
<path fill-rule="evenodd" clip-rule="evenodd" d="M1.00195 4.77423C0.449668 4.77423 0.00195312 5.22195 0.00195312 5.77423C0.00195312 6.32652 0.449668 6.77423 1.00195 6.77423H30.9974C31.5497 6.77423 31.9974 6.32652 31.9974 5.77423C31.9974 5.22195 31.5497 4.77423 30.9974 4.77423H1.00195ZM5.09186 11.5911C4.53957 11.5911 4.09186 12.0388 4.09186 12.5911C4.09186 13.1434 4.53957 13.5911 5.09186 13.5911H26.9067C27.459 13.5911 27.9067 13.1434 27.9067 12.5911C27.9067 12.0388 27.459 11.5911 26.9067 11.5911H5.09186ZM0.00195312 19.4089C0.00195312 18.8566 0.449668 18.4089 1.00195 18.4089H30.9963C31.5486 18.4089 31.9963 18.8566 31.9963 19.4089C31.9963 19.9612 31.5486 20.4089 30.9963 20.4089H1.00195C0.449668 20.4089 0.00195312 19.9612 0.00195312 19.4089ZM5.09186 25.2258C4.53957 25.2258 4.09186 25.6735 4.09186 26.2258C4.09186 26.7781 4.53957 27.2258 5.09186 27.2258H26.9057C27.4579 27.2258 27.9057 26.7781 27.9057 26.2258C27.9057 25.6735 27.4579 25.2258 26.9057 25.2258H5.09186Z" fill="#111827"/>
</svg>
