<svg width="33" height="33" viewBox="0 0 33 33" fill="none" xmlns="http://www.w3.org/2000/svg">
<path fill-rule="evenodd" clip-rule="evenodd" d="M16.9601 8.8913C14.0144 8.8913 12.4123 10.5456 12.4123 12.0871V12.095H12.4123C12.4109 12.2733 12.438 12.4507 12.4926 12.6204C12.6617 13.1462 12.3725 13.7095 11.8468 13.8785C11.321 14.0476 10.7577 13.7585 10.5886 13.2327C10.4692 12.8614 10.4097 12.4733 10.4123 12.0832C10.4148 8.99226 13.419 6.8913 16.9601 6.8913C19.7195 6.8913 22.0783 8.12569 23.0545 10.1304C23.2963 10.627 23.0898 11.2255 22.5933 11.4673C22.0967 11.7091 21.4982 11.5026 21.2564 11.006C20.707 9.87775 19.1893 8.8913 16.9601 8.8913ZM6.72949 16.2829C6.72949 15.7306 7.17721 15.2829 7.72949 15.2829H18.0246C18.0422 15.2825 18.0599 15.2825 18.0776 15.2829H26.191C26.7433 15.2829 27.191 15.7306 27.191 16.2829C27.191 16.8352 26.7433 17.2829 26.191 17.2829H22.4271C23.2726 18.0538 23.8345 19.0918 23.8345 20.4787C23.8345 22.0441 22.9445 23.367 21.6952 24.2593C20.4441 25.153 18.7669 25.6745 16.9604 25.6745C15.1539 25.6745 13.4767 25.153 12.2255 24.2593C10.9762 23.367 10.0862 22.0441 10.0862 20.4787C10.0862 19.9264 10.534 19.4787 11.0862 19.4787C11.6385 19.4787 12.0862 19.9264 12.0862 20.4787C12.0862 21.2306 12.5112 22.0056 13.388 22.6319C14.2628 23.2568 15.5227 23.6745 16.9604 23.6745C18.3981 23.6745 19.6579 23.2568 20.5328 22.6319C21.4095 22.0056 21.8345 21.2306 21.8345 20.4787C21.8345 19.6064 21.4676 19.0214 20.7954 18.5294C20.094 18.0159 19.0981 17.638 17.9071 17.2829H7.72949C7.17721 17.2829 6.72949 16.8352 6.72949 16.2829Z" fill="#1C1B1F"/>
</svg>
