<svg width="33" height="33" viewBox="0 0 33 33" fill="none" xmlns="http://www.w3.org/2000/svg">
<path fill-rule="evenodd" clip-rule="evenodd" d="M11.2471 7.8913C11.2471 7.33901 10.7994 6.8913 10.2471 6.8913C9.69486 6.8913 9.24715 7.33901 9.24715 7.8913V14.6046C9.24715 18.8645 12.7005 22.3179 16.9604 22.3179C21.2204 22.3179 24.6737 18.8645 24.6737 14.6046V7.8913C24.6737 7.33901 24.226 6.8913 23.6737 6.8913C23.1214 6.8913 22.6737 7.33901 22.6737 7.8913V14.6046C22.6737 17.7599 20.1158 20.3179 16.9604 20.3179C13.8051 20.3179 11.2471 17.7599 11.2471 14.6046V7.8913ZM7.72949 23.6746C7.17721 23.6746 6.72949 24.1223 6.72949 24.6746C6.72949 25.2268 7.17721 25.6746 7.72949 25.6746H26.191C26.7433 25.6746 27.191 25.2268 27.191 24.6746C27.191 24.1223 26.7433 23.6746 26.191 23.6746H7.72949Z" fill="#1C1B1F"/>
</svg>
