<svg width="33" height="33" viewBox="0 0 33 33" fill="none" xmlns="http://www.w3.org/2000/svg">
<path fill-rule="evenodd" clip-rule="evenodd" d="M7.95801 6.28064C8.51029 6.28064 8.95801 6.72835 8.95801 7.28064V15.2829H24.9623V7.28064C24.9623 6.72835 25.41 6.28064 25.9623 6.28064C26.5146 6.28064 26.9623 6.72835 26.9623 7.28064V16.2631C26.9624 16.2697 26.9625 16.2763 26.9625 16.2829C26.9625 16.2895 26.9624 16.2962 26.9623 16.3027V25.2851C26.9623 25.8374 26.5146 26.2851 25.9623 26.2851C25.41 26.2851 24.9623 25.8374 24.9623 25.2851V17.2829H8.95801V25.2851C8.95801 25.8374 8.51029 26.2851 7.95801 26.2851C7.40572 26.2851 6.95801 25.8374 6.95801 25.2851V16.2829V7.28064C6.95801 6.72835 7.40572 6.28064 7.95801 6.28064Z" fill="#1C1B1F"/>
</svg>
