<svg width="33" height="33" viewBox="0 0 33 33" fill="none" xmlns="http://www.w3.org/2000/svg">
<path fill-rule="evenodd" clip-rule="evenodd" d="M8.72949 9.63678C8.72949 9.0845 8.28178 8.63678 7.72949 8.63678C7.17721 8.63678 6.72949 9.0845 6.72949 9.63678V15.1752V20.7136C6.72949 21.2659 7.17721 21.7136 7.72949 21.7136C8.28178 21.7136 8.72949 21.2659 8.72949 20.7136V16.1752H16.3294V20.7136C16.3294 21.2659 16.7771 21.7136 17.3294 21.7136C17.8817 21.7136 18.3294 21.2659 18.3294 20.7136V15.18L18.3294 15.1752L18.3294 15.1704V9.63678C18.3294 9.0845 17.8817 8.63678 17.3294 8.63678C16.7771 8.63678 16.3294 9.0845 16.3294 9.63678V14.1752H8.72949V9.63678ZM22.6072 15.7556C22.8561 15.3592 23.2945 15.0992 23.7928 15.0992C24.565 15.0992 25.191 15.7252 25.191 16.4975C25.191 16.6487 25.1818 16.7198 25.064 16.9209C25.0665 16.9166 25.0626 16.9221 25.0502 16.9396L25.0502 16.9396C25.0274 16.9719 24.9757 17.0448 24.8827 17.1716C24.7582 17.3413 24.5894 17.5676 24.3901 17.8326C23.992 18.3621 23.4793 19.0368 22.9717 19.7023C22.4643 20.3673 21.9633 21.0217 21.589 21.5099C21.4018 21.7539 21.2464 21.9564 21.1378 22.0978L21.0119 22.2617L20.9788 22.3048L20.9704 22.3158L20.9682 22.3186L20.9677 22.3193L20.9676 22.3194L21.7603 22.929L20.9675 22.3195C20.7354 22.6215 20.6949 23.0291 20.8632 23.3709C21.0316 23.7126 21.3794 23.929 21.7603 23.929H26.191C26.7433 23.929 27.191 23.4813 27.191 22.929C27.191 22.3767 26.7433 21.929 26.191 21.929H23.7873C24.0322 21.6089 24.2961 21.2636 24.5618 20.9152C25.0703 20.2487 25.5863 19.5696 25.9887 19.0346C26.1896 18.7674 26.3639 18.5338 26.4952 18.3548C26.6077 18.2014 26.7313 18.0315 26.7896 17.9319C27.0813 17.4341 27.191 17.0155 27.191 16.4975C27.191 14.6207 25.6696 13.0992 23.7928 13.0992C22.578 13.0992 21.513 13.7373 20.9135 14.6919C20.6197 15.1596 20.7608 15.7769 21.2285 16.0706C21.6962 16.3643 22.3134 16.2233 22.6072 15.7556Z" fill="#1C1B1F"/>
</svg>
