<svg width="33" height="33" viewBox="0 0 33 33" fill="none" xmlns="http://www.w3.org/2000/svg">
<path fill-rule="evenodd" clip-rule="evenodd" d="M7.729 8.98914C7.17672 8.98914 6.729 9.43685 6.729 9.98914C6.729 10.5414 7.17672 10.9891 7.729 10.9891H26.1905C26.7428 10.9891 27.1905 10.5414 27.1905 9.98914C27.1905 9.43685 26.7428 8.98914 26.1905 8.98914H7.729ZM10.2463 13.1848C9.694 13.1848 9.24628 13.6325 9.24628 14.1848C9.24628 14.7371 9.694 15.1848 10.2463 15.1848H23.6729C24.2251 15.1848 24.6729 14.7371 24.6729 14.1848C24.6729 13.6325 24.2251 13.1848 23.6729 13.1848H10.2463ZM6.729 18.381C6.729 17.8287 7.17672 17.381 7.729 17.381H26.1899C26.7422 17.381 27.1899 17.8287 27.1899 18.381C27.1899 18.9333 26.7422 19.381 26.1899 19.381H7.729C7.17672 19.381 6.729 18.9333 6.729 18.381ZM10.2463 21.5767C9.694 21.5767 9.24628 22.0244 9.24628 22.5767C9.24628 23.1289 9.694 23.5767 10.2463 23.5767H23.6722C24.2245 23.5767 24.6722 23.1289 24.6722 22.5767C24.6722 22.0244 24.2245 21.5767 23.6722 21.5767H10.2463Z" fill="#1C1B1F"/>
</svg>
