<svg width="33" height="33" viewBox="0 0 33 33" fill="none" xmlns="http://www.w3.org/2000/svg">
<path fill-rule="evenodd" clip-rule="evenodd" d="M9.07211 8.86272C8.68159 8.47219 8.04842 8.47219 7.6579 8.86272C7.26737 9.25324 7.26737 9.88641 7.6579 10.2769L10.511 13.1301L7.6579 15.9832C7.26737 16.3737 7.26737 17.0069 7.6579 17.3974C8.04842 17.7879 8.68159 17.7879 9.07211 17.3974L12.6323 13.8372C12.8199 13.6496 12.9252 13.3953 12.9252 13.1301C12.9252 12.8648 12.8199 12.6105 12.6323 12.423L9.07211 8.86272ZM26.191 8.56982H15.282C14.7297 8.56982 14.282 9.01754 14.282 9.56982C14.282 10.1221 14.7297 10.5698 15.282 10.5698H26.191C26.7433 10.5698 27.191 10.1221 27.191 9.56982C27.191 9.01754 26.7433 8.56982 26.191 8.56982ZM15.282 15.2831C14.7297 15.2831 14.282 15.7308 14.282 16.2831C14.282 16.8354 14.7297 17.2831 15.282 17.2831H26.191C26.7433 17.2831 27.191 16.8354 27.191 16.2831C27.191 15.7308 26.7433 15.2831 26.191 15.2831H15.282ZM6.72949 22.9963C6.72949 22.4441 7.17721 21.9963 7.72949 21.9963H26.1909C26.7432 21.9963 27.1909 22.4441 27.1909 22.9963C27.1909 23.5486 26.7432 23.9963 26.1909 23.9963H7.72949C7.17721 23.9963 6.72949 23.5486 6.72949 22.9963Z" fill="#1C1B1F"/>
</svg>
