<svg width="33" height="33" viewBox="0 0 33 33" fill="none" xmlns="http://www.w3.org/2000/svg">
<path fill-rule="evenodd" clip-rule="evenodd" d="M7.729 8.98926C7.17672 8.98926 6.729 9.43697 6.729 9.98926C6.729 10.5415 7.17672 10.9893 7.729 10.9893H26.1904C26.7427 10.9893 27.1904 10.5415 27.1904 9.98926C27.1904 9.43697 26.7427 8.98926 26.1904 8.98926H7.729ZM7.729 13.185C7.17672 13.185 6.729 13.6327 6.729 14.185C6.729 14.7373 7.17672 15.185 7.729 15.185H26.1904C26.7427 15.185 27.1904 14.7373 27.1904 14.185C27.1904 13.6327 26.7427 13.185 26.1904 13.185H7.729ZM6.72976 18.3808C6.72976 17.8286 7.17747 17.3808 7.72976 17.3808H26.1906C26.7428 17.3808 27.1906 17.8286 27.1906 18.3808C27.1906 18.9331 26.7428 19.3808 26.1906 19.3808H7.72976C7.17747 19.3808 6.72976 18.9331 6.72976 18.3808ZM7.72976 21.5766C7.17747 21.5766 6.72976 22.0243 6.72976 22.5766C6.72976 23.1289 7.17747 23.5766 7.72976 23.5766H26.1906C26.7428 23.5766 27.1906 23.1289 27.1906 22.5766C27.1906 22.0243 26.7428 21.5766 26.1906 21.5766H7.72976Z" fill="#1C1B1F"/>
</svg>
