<svg width="33" height="33" viewBox="0 0 33 33" fill="none" xmlns="http://www.w3.org/2000/svg">
<path fill-rule="evenodd" clip-rule="evenodd" d="M7.72949 8.40442C8.28178 8.40442 8.72949 8.85213 8.72949 9.40442V14.0559H16.5255V9.40442C16.5255 8.85213 16.9733 8.40442 17.5255 8.40442C18.0778 8.40442 18.5255 8.85213 18.5255 9.40442V20.7074C18.5255 21.2597 18.0778 21.7074 17.5255 21.7074C16.9733 21.7074 16.5255 21.2597 16.5255 20.7074V16.0559H8.72949V20.7074C8.72949 21.2597 8.28178 21.7074 7.72949 21.7074C7.17721 21.7074 6.72949 21.2597 6.72949 20.7074V15.0559V9.40442C6.72949 8.85213 7.17721 8.40442 7.72949 8.40442ZM26.191 15.9792C26.7433 15.9792 27.191 16.4269 27.191 16.9792V23.1615C27.191 23.7138 26.7433 24.1615 26.191 24.1615C25.6387 24.1615 25.191 23.7138 25.191 23.1615V21.0152H21.5178C21.1923 21.0152 20.8872 20.8568 20.6999 20.5906C20.5127 20.3244 20.4666 19.9838 20.5766 19.6774L22.8975 13.211C23.0841 12.6912 23.6567 12.4211 24.1765 12.6076C24.6963 12.7942 24.9665 13.3668 24.7799 13.8867L22.9392 19.0152H25.191V16.9792C25.191 16.4269 25.6387 15.9792 26.191 15.9792Z" fill="#1C1B1F"/>
</svg>
