<svg width="32" height="32" viewBox="0 0 32 32" fill="none" xmlns="http://www.w3.org/2000/svg">
<path fill-rule="evenodd" clip-rule="evenodd" d="M13.7142 3.57141C14.2664 3.57141 14.7142 4.01913 14.7142 4.57141V27.4285C14.7142 27.9808 14.2664 28.4285 13.7142 28.4285C13.1619 28.4285 12.7142 27.9808 12.7142 27.4285V23.9999H1C0.447716 23.9999 0 23.5522 0 22.9999V8.99995C0 8.44766 0.447715 7.99995 1 7.99995H12.7142V4.57141C12.7142 4.01913 13.1619 3.57141 13.7142 3.57141ZM3.85756 13.7144C3.85756 13.1621 4.30528 12.7144 4.85756 12.7144H6.85755H8.85755C9.40983 12.7144 9.85755 13.1621 9.85755 13.7144C9.85755 14.2667 9.40983 14.7144 8.85755 14.7144H7.85755V18.8572C7.85755 19.4095 7.40984 19.8572 6.85755 19.8572C6.30527 19.8572 5.85755 19.4095 5.85755 18.8572V14.7144H4.85756C4.30528 14.7144 3.85756 14.2667 3.85756 13.7144ZM19.2858 7.99995H31C31.5523 7.99995 32 8.44766 32 8.99995V22.9999C32 23.5522 31.5523 23.9999 31 23.9999H19.2858C18.7335 23.9999 18.2858 23.5522 18.2858 22.9999V8.99995C18.2858 8.44766 18.7335 7.99995 19.2858 7.99995Z" fill="#111827"/>
</svg>
