<svg width="33" height="33" viewBox="0 0 33 33" fill="none" xmlns="http://www.w3.org/2000/svg">
<path fill-rule="evenodd" clip-rule="evenodd" d="M18.6491 8.05233L13.1621 24.5135H8.75488C8.2026 24.5135 7.75488 24.9612 7.75488 25.5135C7.75488 26.0658 8.2026 26.5135 8.75488 26.5135H13.8598C13.8753 26.5138 13.8908 26.5138 13.9062 26.5135H19.0111C19.5634 26.5135 20.0111 26.0658 20.0111 25.5135C20.0111 24.9612 19.5634 24.5135 19.0111 24.5135H15.2703L20.7573 8.05233H25.1648C25.7171 8.05233 26.1648 7.60462 26.1648 7.05233C26.1648 6.50005 25.7171 6.05233 25.1648 6.05233H20.0596C20.0441 6.05197 20.0287 6.05197 20.0132 6.05233H14.9086C14.3563 6.05233 13.9086 6.50005 13.9086 7.05233C13.9086 7.60462 14.3563 8.05233 14.9086 8.05233H18.6491Z" fill="#1C1B1F"/>
</svg>
