<svg width="32" height="32" viewBox="0 0 32 32" fill="none" xmlns="http://www.w3.org/2000/svg">
<path fill-rule="evenodd" clip-rule="evenodd" d="M5.00098 6.80389C5.55326 6.80389 6.00098 7.25161 6.00098 7.80389V13.5379H15.673V7.80389C15.673 7.25161 16.1207 6.80389 16.673 6.80389C17.2253 6.80389 17.673 7.25161 17.673 7.80389V14.5131C17.6732 14.5213 17.6733 14.5296 17.6733 14.5379C17.6733 14.5428 17.6733 14.5476 17.6732 14.5524C17.6732 14.5558 17.6731 14.5593 17.673 14.5628V21.272C17.673 21.8243 17.2253 22.272 16.673 22.272C16.1207 22.272 15.673 21.8243 15.673 21.272V15.5379H6.00098V21.272C6.00098 21.8243 5.55326 22.272 5.00098 22.272C4.44869 22.272 4.00098 21.8243 4.00098 21.272V14.5379V7.80389C4.00098 7.25161 4.44869 6.80389 5.00098 6.80389ZM26.9987 15.8296C27.551 15.8296 27.9987 16.2773 27.9987 16.8296V24.1961C27.9987 24.7484 27.551 25.1961 26.9987 25.1961C26.4464 25.1961 25.9987 24.7484 25.9987 24.1961V21.4472H21.4298C21.1044 21.4472 20.7992 21.2888 20.612 21.0226C20.4247 20.7564 20.3787 20.4157 20.4886 20.1094L23.2541 12.4043C23.4407 11.8845 24.0133 11.6144 24.5331 11.8009C25.0529 11.9875 25.3231 12.5601 25.1365 13.08L22.8512 19.4472H25.9987V16.8296C25.9987 16.2773 26.4464 15.8296 26.9987 15.8296Z" fill="#111827"/>
</svg>
