<svg width="32" height="32" viewBox="0 0 32 32" fill="none" xmlns="http://www.w3.org/2000/svg">
<path fill-rule="evenodd" clip-rule="evenodd" d="M9.00121 6.0011C9.00121 5.44881 8.5535 5.0011 8.00121 5.0011C7.44893 5.0011 7.00121 5.44881 7.00121 6.0011V14.0002C7.00121 18.9703 11.0303 22.9993 16.0003 22.9993C20.9704 22.9993 24.9994 18.9703 24.9994 14.0002V6.0011C24.9994 5.44881 24.5517 5.0011 23.9994 5.0011C23.4472 5.0011 22.9994 5.44881 22.9994 6.0011V14.0002C22.9994 17.8657 19.8658 20.9993 16.0003 20.9993C12.1348 20.9993 9.00121 17.8657 9.00121 14.0002V6.0011ZM5.00146 24.9989C4.44918 24.9989 4.00146 25.4466 4.00146 25.9989C4.00146 26.5512 4.44918 26.9989 5.00146 26.9989H26.999C27.5513 26.9989 27.999 26.5512 27.999 25.9989C27.999 25.4466 27.5513 24.9989 26.999 24.9989H5.00146Z" fill="#111827"/>
</svg>
