<svg width="32" height="32" viewBox="0 0 32 32" fill="none" xmlns="http://www.w3.org/2000/svg">
<path fill-rule="evenodd" clip-rule="evenodd" d="M6.3308 4.44927C6.72132 4.05874 7.35449 4.05874 7.74501 4.44927C8.13553 4.83979 8.13553 5.47295 7.74501 5.86348L2.41568 11.1928L7.74501 16.5221C8.13554 16.9127 8.13554 17.5458 7.74501 17.9364C7.35449 18.3269 6.72132 18.3269 6.3308 17.9364L0.294358 11.8999C0.106822 11.7124 0.00146484 11.458 0.00146484 11.1928C0.00146484 10.9276 0.106822 10.6732 0.294358 10.4857L6.3308 4.44927ZM14.0428 4.9757C13.4905 4.9757 13.0428 5.42341 13.0428 5.9757C13.0428 6.52798 13.4905 6.9757 14.0428 6.9757H30.9979C31.5502 6.9757 31.9979 6.52798 31.9979 5.9757C31.9979 5.42341 31.5502 4.9757 30.9979 4.9757H14.0428ZM14.0428 15.41C13.4905 15.41 13.0428 15.8577 13.0428 16.41C13.0428 16.9623 13.4905 17.41 14.0428 17.41H30.9979C31.5502 17.41 31.9979 16.9623 31.9979 16.41C31.9979 15.8577 31.5502 15.41 30.9979 15.41H14.0428ZM0.0268555 26.8436C0.0268555 26.2913 0.474571 25.8436 1.02686 25.8436L30.9988 25.8436C31.5511 25.8436 31.9988 26.2913 31.9988 26.8436C31.9988 27.3959 31.5511 27.8436 30.9988 27.8436L1.02686 27.8436C0.474571 27.8436 0.0268554 27.3959 0.0268555 26.8436Z" fill="#111827"/>
</svg>
