<svg width="32" height="32" viewBox="0 0 32 32" fill="none" xmlns="http://www.w3.org/2000/svg">
<path fill-rule="evenodd" clip-rule="evenodd" d="M15.0079 17.1956L11.8316 11.2852L8.68198 17.1956H15.0079ZM17.503 17.6134L13.151 9.51539C12.5838 8.46005 11.0693 8.46272 10.5059 9.52005L4.11914 21.5054C3.85942 21.9928 4.04398 22.5984 4.53138 22.8582C5.01879 23.1179 5.62445 22.9333 5.88418 22.4459L7.61621 19.1956H16.0827L17.8312 22.449C18.0926 22.9355 18.6989 23.1179 19.1854 22.8565C19.6719 22.595 19.8543 21.9887 19.5929 21.5022L17.6248 17.8401C17.5939 17.7589 17.5528 17.6828 17.503 17.6134ZM20.6742 13.5268C20.6742 12.9745 21.1219 12.5268 21.6742 12.5268H23.9991C26.2083 12.5268 27.9991 14.3177 27.9991 16.5268V19.6012L27.9992 19.6122L27.9991 19.6233V22.2745C27.9991 22.8268 27.5514 23.2745 26.9991 23.2745C26.6049 23.2745 26.2639 23.0463 26.101 22.7148C25.4648 23.0736 24.7215 23.2745 23.9566 23.2745C21.8535 23.2745 19.914 21.7561 19.914 19.6122C19.914 17.4684 21.8535 15.95 23.9566 15.95C24.6805 15.95 25.3851 16.1299 25.9978 16.4533C25.9592 15.3828 25.0791 14.5268 23.9991 14.5268H21.6742C21.1219 14.5268 20.6742 14.0791 20.6742 13.5268ZM23.9566 21.2745C25.2109 21.2745 25.9949 20.4137 25.9991 19.6187V19.6058C25.9949 18.8108 25.2109 17.95 23.9566 17.95C22.6989 17.95 21.914 18.8154 21.914 19.6122C21.914 20.409 22.6989 21.2745 23.9566 21.2745Z" fill="#111827"/>
</svg>
