<svg width="32" height="32" viewBox="0 0 32 32" fill="none" xmlns="http://www.w3.org/2000/svg">
<path fill-rule="evenodd" clip-rule="evenodd" d="M6.99854 5.99835C7.55082 5.99835 7.99854 6.44607 7.99854 6.99835V15H24.0018V6.99835C24.0018 6.44607 24.4495 5.99835 25.0018 5.99835C25.554 5.99835 26.0018 6.44607 26.0018 6.99835V15.9909C26.0018 15.9939 26.0018 15.9969 26.0018 16C26.0018 16.003 26.0018 16.006 26.0018 16.009V25.0016C26.0018 25.5539 25.554 26.0016 25.0018 26.0016C24.4495 26.0016 24.0018 25.5539 24.0018 25.0016V17H7.99854V25.0016C7.99854 25.5539 7.55082 26.0016 6.99854 26.0016C6.44625 26.0016 5.99854 25.5539 5.99854 25.0016V16V6.99835C5.99854 6.44607 6.44625 5.99835 6.99854 5.99835Z" fill="#111827"/>
</svg>
