<svg width="33" height="33" viewBox="0 0 33 33" fill="none" xmlns="http://www.w3.org/2000/svg">
<path fill-rule="evenodd" clip-rule="evenodd" d="M10.737 8.90227C11.1275 8.51174 11.7606 8.51174 12.1512 8.90227C12.5417 9.29279 12.5417 9.92596 12.1512 10.3165L9.14322 13.3244L12.1512 16.3324C12.5417 16.7229 12.5417 17.3561 12.1512 17.7466C11.7606 18.1371 11.1275 18.1371 10.737 17.7466L7.0219 14.0315C6.83436 13.844 6.729 13.5897 6.729 13.3244C6.729 13.0592 6.83436 12.8049 7.0219 12.6173L10.737 8.90227ZM15.7556 9.11362C15.2033 9.11362 14.7556 9.56134 14.7556 10.1136C14.7556 10.6659 15.2033 11.1136 15.7556 11.1136H26.1904C26.7427 11.1136 27.1904 10.6659 27.1904 10.1136C27.1904 9.56134 26.7427 9.11362 26.1904 9.11362H15.7556ZM15.7556 15.5351C15.2033 15.5351 14.7556 15.9828 14.7556 16.5351C14.7556 17.0874 15.2033 17.5351 15.7556 17.5351H26.1904C26.7427 17.5351 27.1904 17.0874 27.1904 16.5351C27.1904 15.9828 26.7427 15.5351 26.1904 15.5351H15.7556ZM7.53164 22.9565C7.53164 22.4042 7.97936 21.9565 8.53164 21.9565H26.1905C26.7428 21.9565 27.1905 22.4042 27.1905 22.9565C27.1905 23.5088 26.7428 23.9565 26.1905 23.9565H8.53164C7.97936 23.9565 7.53164 23.5088 7.53164 22.9565Z" fill="#1C1B1F"/>
</svg>
