<svg width="33" height="33" viewBox="0 0 33 33" fill="none" xmlns="http://www.w3.org/2000/svg">
<path fill-rule="evenodd" clip-rule="evenodd" d="M8.72949 9.30859C8.72949 8.75631 8.28178 8.30859 7.72949 8.30859C7.17721 8.30859 6.72949 8.75631 6.72949 9.30859V14.847V20.3854C6.72949 20.9377 7.17721 21.3854 7.72949 21.3854C8.28178 21.3854 8.72949 20.9377 8.72949 20.3854V15.847H16.3295V20.3854C16.3295 20.9377 16.7772 21.3854 17.3295 21.3854C17.8818 21.3854 18.3295 20.9377 18.3295 20.3854V9.30859C18.3295 8.75631 17.8818 8.30859 17.3295 8.30859C16.7772 8.30859 16.3295 8.75631 16.3295 9.30859V13.847H8.72949V9.30859ZM21.7598 13.1079C21.2075 13.1079 20.7598 13.5556 20.7598 14.1079C20.7598 14.6601 21.2075 15.1079 21.7598 15.1079H24.286L22.4931 17.7063C22.282 18.0122 22.258 18.4099 22.4308 18.739C22.6035 19.0681 22.9445 19.2742 23.3162 19.2742C23.7497 19.2742 24.2478 19.4574 24.6334 19.7754C25.0188 20.0933 25.191 20.4555 25.191 20.7657C25.191 21.5895 24.5232 22.2573 23.6995 22.2573C23.2307 22.2573 22.8129 22.0422 22.5379 21.7014C22.191 21.2717 21.5614 21.2045 21.1316 21.5514C20.7019 21.8983 20.6347 22.5279 20.9816 22.9577C21.6201 23.7485 22.6007 24.2573 23.6995 24.2573C25.6278 24.2573 27.191 22.694 27.191 20.7657C27.191 19.6999 26.6139 18.8164 25.9059 18.2325C25.6241 18.0001 25.3058 17.8009 24.9651 17.6453L27.0141 14.6758C27.2252 14.3699 27.2492 13.9721 27.0764 13.6431C26.9037 13.314 26.5627 13.1079 26.191 13.1079H21.7598Z" fill="#1C1B1F"/>
</svg>
