<svg width="32" height="32" viewBox="0 0 32 32" fill="none" xmlns="http://www.w3.org/2000/svg">
<path fill-rule="evenodd" clip-rule="evenodd" d="M15.9996 7.0011C12.4325 7.0011 10.3892 9.01523 10.3892 11.0005V11.0084H10.3892C10.3874 11.2413 10.4228 11.473 10.4941 11.6946C10.6631 12.2204 10.374 12.7837 9.84824 12.9528C9.32248 13.1219 8.75919 12.8327 8.5901 12.307C8.45395 11.8836 8.38615 11.4413 8.38924 10.9967C8.39176 7.46182 11.8371 5.0011 15.9996 5.0011C19.2367 5.0011 21.9668 6.44818 23.0891 8.75296C23.3309 9.2495 23.1244 9.84804 22.6279 10.0898C22.1313 10.3316 21.5328 10.1251 21.291 9.62857C20.5954 8.20024 18.7065 7.0011 15.9996 7.0011ZM4.00146 16C4.00146 15.4477 4.44918 15 5.00146 15H17.2752C17.292 14.9995 17.3088 14.9995 17.3257 15H26.999C27.5513 15 27.999 15.4477 27.999 16C27.999 16.5523 27.5513 17 26.999 17H21.987C23.1804 17.9164 23.9999 19.2008 23.9999 20.9995C23.9999 22.7868 22.984 24.3106 21.5311 25.3483C20.0763 26.3875 18.1179 26.9989 16.0007 26.9989C13.8835 26.9989 11.925 26.3875 10.4702 25.3483C9.01739 24.3106 8.00146 22.7868 8.00146 20.9995C8.00146 20.4472 8.44917 19.9995 9.00146 19.9995C9.55374 19.9995 10.0015 20.4472 10.0015 20.9995C10.0015 21.9732 10.5523 22.9492 11.6327 23.7209C12.7112 24.4912 14.2523 24.9989 16.0007 24.9989C17.7491 24.9989 19.2902 24.4912 20.3686 23.7209C21.449 22.9492 21.9999 21.9732 21.9999 20.9995C21.9999 19.8884 21.5245 19.1378 20.6834 18.5222C19.814 17.8858 18.5899 17.4261 17.1566 17H5.00146C4.44918 17 4.00146 16.5523 4.00146 16Z" fill="#111827"/>
</svg>
