<svg width="33" height="33" viewBox="0 0 33 33" fill="none" xmlns="http://www.w3.org/2000/svg">
<path fill-rule="evenodd" clip-rule="evenodd" d="M7.72949 6.8924C7.17721 6.8924 6.72949 7.34011 6.72949 7.8924V11.667C6.72949 12.2193 7.17721 12.667 7.72949 12.667C8.28178 12.667 8.72949 12.2193 8.72949 11.667V8.8924H15.9561V23.6734H13.2268C12.6745 23.6734 12.2268 24.1211 12.2268 24.6734C12.2268 25.2257 12.6745 25.6734 13.2268 25.6734H16.9533L16.9561 25.6734L16.9589 25.6734H20.685C21.2373 25.6734 21.685 25.2257 21.685 24.6734C21.685 24.1211 21.2373 23.6734 20.685 23.6734H17.9561V8.8924H25.191V11.667C25.191 12.2193 25.6387 12.667 26.191 12.667C26.7433 12.667 27.191 12.2193 27.191 11.667V7.8924C27.191 7.34011 26.7433 6.8924 26.191 6.8924H16.9561H7.72949Z" fill="#1C1B1F"/>
</svg>
