<svg width="32" height="32" viewBox="0 0 32 32" fill="none" xmlns="http://www.w3.org/2000/svg">
<path fill-rule="evenodd" clip-rule="evenodd" d="M5.00146 7.45184C5.55375 7.45184 6.00146 7.89956 6.00146 8.45184V13.9218H15.2157V8.45184C15.2157 7.89956 15.6634 7.45184 16.2157 7.45184C16.768 7.45184 17.2157 7.89956 17.2157 8.45184V14.9014L17.2159 14.9218L17.2157 14.9422V21.3916C17.2157 21.9439 16.768 22.3916 16.2157 22.3916C15.6634 22.3916 15.2157 21.9439 15.2157 21.3916V15.9218H6.00146V21.3916C6.00146 21.9439 5.55375 22.3916 5.00146 22.3916C4.44918 22.3916 4.00146 21.9439 4.00146 21.3916V14.9218V8.45184C4.00146 7.89956 4.44918 7.45184 5.00146 7.45184ZM25.3552 12.3379C25.8294 12.6211 25.9841 13.2351 25.7009 13.7092L24.028 16.5099C26.2257 16.5356 27.9993 18.3251 27.9993 20.5289C27.9993 22.7487 26.1998 24.5482 23.98 24.5482C21.7602 24.5482 19.9607 22.7487 19.9607 20.5289C19.9607 19.8002 20.1546 19.1168 20.4937 18.5275C20.4977 18.5204 20.5018 18.5133 20.5059 18.5063C20.5199 18.4824 20.5341 18.4586 20.5486 18.4349L23.9839 12.6836C24.2671 12.2095 24.8811 12.0547 25.3552 12.3379ZM21.9607 20.5289C21.9607 19.4137 22.8648 18.5096 23.98 18.5096C25.0952 18.5096 25.9993 19.4137 25.9993 20.5289C25.9993 21.6441 25.0952 22.5482 23.98 22.5482C22.8648 22.5482 21.9607 21.6441 21.9607 20.5289Z" fill="#111827"/>
</svg>
