<svg width="33" height="33" viewBox="0 0 33 33" fill="none" xmlns="http://www.w3.org/2000/svg">
<path fill-rule="evenodd" clip-rule="evenodd" d="M10.618 7.64592V18.2348C9.04523 19.2569 8.00781 21.0355 8.00781 23.0509C8.00781 26.2166 10.5742 28.783 13.7399 28.783C16.9057 28.783 19.472 26.2166 19.472 23.0509C19.472 21.0355 18.4233 19.2569 16.8505 18.2348V7.64592C16.8505 6.06475 15.4553 4.78296 13.7343 4.78296C12.0132 4.78296 10.618 6.06475 10.618 7.64592ZM14.7456 12.4976C14.7456 11.9453 14.2979 11.4976 13.7456 11.4976C13.1933 11.4976 12.7456 11.9453 12.7456 12.4976V20.232C11.5 20.6497 10.6025 21.8263 10.6025 23.2126C10.6025 24.9484 12.0097 26.3555 13.7455 26.3555C15.4813 26.3555 16.8885 24.9484 16.8885 23.2126C16.8885 21.8264 15.9911 20.6498 14.7456 20.232V12.4976ZM12.6025 23.2126C12.6025 22.5813 13.1143 22.0696 13.7455 22.0696C14.3768 22.0696 14.8885 22.5813 14.8885 23.2126C14.8885 23.8438 14.3768 24.3555 13.7455 24.3555C13.1143 24.3555 12.6025 23.8438 12.6025 23.2126ZM22.4604 11.6405C22.4604 11.0093 22.9722 10.4976 23.6034 10.4976C24.2347 10.4976 24.7464 11.0093 24.7464 11.6405C24.7464 12.2718 24.2347 12.7835 23.6034 12.7835C22.9722 12.7835 22.4604 12.2718 22.4604 11.6405ZM23.6034 8.49756C21.8676 8.49756 20.4604 9.90472 20.4604 11.6405C20.4604 13.3763 21.8676 14.7835 23.6034 14.7835C25.3392 14.7835 26.7464 13.3763 26.7464 11.6405C26.7464 9.90472 25.3392 8.49756 23.6034 8.49756Z" fill="#1C1B1F"/>
</svg>
