<svg width="33" height="33" viewBox="0 0 33 33" fill="none" xmlns="http://www.w3.org/2000/svg">
<path fill-rule="evenodd" clip-rule="evenodd" d="M13.8377 18.2348V7.64592C13.8377 6.06475 15.2329 4.78296 16.954 4.78296C18.6751 4.78296 20.0703 6.06475 20.0703 7.64592V18.2348C21.643 19.2569 22.6917 21.0355 22.6917 23.0509C22.6917 26.2166 20.1254 28.783 16.9596 28.783C13.7939 28.783 11.2275 26.2166 11.2275 23.0509C11.2275 21.0355 12.265 19.2569 13.8377 18.2348ZM16.96 11.4976C17.5122 11.4976 17.96 11.9453 17.96 12.4976V20.232C19.2055 20.6498 20.1028 21.8264 20.1028 23.2126C20.1028 24.9484 18.6957 26.3555 16.9599 26.3555C15.2241 26.3555 13.8169 24.9484 13.8169 23.2126C13.8169 21.8263 14.7144 20.6497 15.96 20.232V12.4976C15.96 11.9453 16.4077 11.4976 16.96 11.4976ZM16.9599 22.0696C16.3286 22.0696 15.8169 22.5813 15.8169 23.2126C15.8169 23.8438 16.3286 24.3555 16.9599 24.3555C17.5911 24.3555 18.1028 23.8438 18.1028 23.2126C18.1028 22.5813 17.5911 22.0696 16.9599 22.0696Z" fill="#1C1B1F"/>
</svg>
