<svg width="33" height="33" viewBox="0 0 33 33" fill="none" xmlns="http://www.w3.org/2000/svg">
<path fill-rule="evenodd" clip-rule="evenodd" d="M10.0667 7.64592V18.2348C8.49396 19.2569 7.45654 21.0355 7.45654 23.0509C7.45654 26.2166 10.0229 28.783 13.1886 28.783C16.3544 28.783 18.9208 26.2166 18.9208 23.0509C18.9208 21.0355 17.872 19.2569 16.2993 18.2348V7.64592C16.2993 6.06475 14.9041 4.78296 13.183 4.78296C11.4619 4.78296 10.0667 6.06475 10.0667 7.64592ZM14.1885 15.9265C14.1885 15.3742 13.7408 14.9265 13.1885 14.9265C12.6362 14.9265 12.1885 15.3742 12.1885 15.9265V20.232C10.9429 20.6497 10.0454 21.8263 10.0454 23.2126C10.0454 24.9484 11.4526 26.3555 13.1884 26.3555C14.9242 26.3555 16.3314 24.9484 16.3314 23.2126C16.3314 21.8264 15.434 20.6498 14.1885 20.232V15.9265ZM13.1797 22.0696L13.1885 22.0697L13.1972 22.0696C13.8244 22.0744 14.3314 22.5842 14.3314 23.2126C14.3314 23.8438 13.8196 24.3555 13.1884 24.3555C12.5571 24.3555 12.0454 23.8438 12.0454 23.2126C12.0454 22.5842 12.5524 22.0743 13.1797 22.0696ZM24.0457 8.21167C24.0457 7.65939 23.598 7.21167 23.0457 7.21167C22.4934 7.21167 22.0457 7.65939 22.0457 8.21167V10.263L20.098 9.62874C19.5729 9.45772 19.0085 9.7448 18.8375 10.2699C18.6665 10.7951 18.9536 11.3594 19.4787 11.5304L21.429 12.1656L20.2222 13.8281C19.8978 14.2751 19.9971 14.9004 20.4441 15.2248C20.891 15.5492 21.5164 15.4499 21.8408 15.003L23.0458 13.3429L24.2508 15.003C24.5752 15.4499 25.2006 15.5492 25.6475 15.2248C26.0945 14.9004 26.1938 14.2751 25.8694 13.8281L24.6625 12.1655L26.6127 11.5304C27.1378 11.3594 27.4249 10.7951 27.2538 10.2699C27.0828 9.7448 26.5185 9.45772 25.9933 9.62874L24.0457 10.263V8.21167Z" fill="#1C1B1F"/>
</svg>
