<svg width="33" height="33" viewBox="0 0 33 33" fill="none" xmlns="http://www.w3.org/2000/svg">
<path fill-rule="evenodd" clip-rule="evenodd" d="M10.179 18.2348V7.64592C10.179 6.06475 11.5742 4.78296 13.2953 4.78296C15.0164 4.78296 16.4116 6.06475 16.4116 7.64592V18.2348C17.9843 19.2569 19.0331 21.0355 19.0331 23.0509C19.0331 26.2166 16.4667 28.783 13.301 28.783C10.1352 28.783 7.56885 26.2166 7.56885 23.0509C7.56885 21.0355 8.60627 19.2569 10.179 18.2348ZM13.3008 7.21167C13.8531 7.21167 14.3008 7.65939 14.3008 8.21167V20.232C15.5463 20.6498 16.4437 21.8264 16.4437 23.2126C16.4437 24.9484 15.0365 26.3555 13.3007 26.3555C11.5649 26.3555 10.1577 24.9484 10.1577 23.2126C10.1577 21.8263 11.0552 20.6497 12.3008 20.232V8.21167C12.3008 7.65939 12.7485 7.21167 13.3008 7.21167ZM13.3007 22.0696C12.6694 22.0696 12.1577 22.5813 12.1577 23.2126C12.1577 23.8438 12.6694 24.3555 13.3007 24.3555C13.9319 24.3555 14.4437 23.8438 14.4437 23.2126C14.4437 22.5813 13.9319 22.0696 13.3007 22.0696ZM20.4386 10.2515C20.8201 10.0934 21.2291 10.012 21.6421 10.012C22.0552 10.012 22.4642 10.0934 22.8457 10.2515C23.2273 10.4097 23.5739 10.6415 23.8658 10.9338C23.9719 11.04 24.098 11.1243 24.2367 11.1818C24.3755 11.2394 24.5242 11.269 24.6744 11.269C24.8246 11.269 24.9734 11.2394 25.1121 11.1818C25.2509 11.1243 25.3769 11.04 25.4831 10.9338C25.8734 10.543 26.5066 10.5427 26.8973 10.933C27.288 11.3233 27.2884 11.9564 26.8981 12.3472C26.6062 12.6394 26.2596 12.8712 25.878 13.0294C25.4965 13.1876 25.0875 13.269 24.6744 13.269C24.2614 13.269 23.8524 13.1876 23.4709 13.0294C23.0893 12.8712 22.7427 12.6394 22.4508 12.3472C22.3446 12.2409 22.2186 12.1566 22.0798 12.0991C21.9411 12.0416 21.7923 12.012 21.6421 12.012C21.4919 12.012 21.3432 12.0416 21.2044 12.0991C21.0657 12.1566 20.9396 12.2409 20.8335 12.3472C20.4432 12.7379 19.81 12.7383 19.4193 12.348C19.0285 11.9577 19.0282 11.3245 19.4185 10.9338C19.7104 10.6415 20.057 10.4097 20.4386 10.2515ZM21.6421 14.2979C21.2291 14.2979 20.8201 14.3793 20.4386 14.5374C20.057 14.6956 19.7104 14.9274 19.4185 15.2196C19.0282 15.6104 19.0285 16.2435 19.4193 16.6339C19.81 17.0242 20.4432 17.0238 20.8335 16.6331C20.9396 16.5268 21.0657 16.4425 21.2044 16.385C21.3432 16.3275 21.4919 16.2979 21.6421 16.2979C21.7923 16.2979 21.9411 16.3275 22.0798 16.385C22.2186 16.4425 22.3446 16.5268 22.4508 16.6331C22.7427 16.9253 23.0893 17.1571 23.4709 17.3153C23.8524 17.4735 24.2614 17.5549 24.6744 17.5549C25.0875 17.5549 25.4965 17.4735 25.878 17.3153C26.2596 17.1571 26.6062 16.9253 26.8981 16.6331C27.2884 16.2423 27.288 15.6092 26.8973 15.2189C26.5066 14.8286 25.8734 14.8289 25.4831 15.2196C25.3769 15.3259 25.2509 15.4102 25.1121 15.4677C24.9734 15.5253 24.8246 15.5549 24.6744 15.5549C24.5242 15.5549 24.3755 15.5253 24.2367 15.4677C24.098 15.4102 23.9719 15.3259 23.8658 15.2196C23.5739 14.9274 23.2273 14.6956 22.8457 14.5374C22.4642 14.3793 22.0552 14.2979 21.6421 14.2979Z" fill="#1C1B1F"/>
</svg>
