<svg width="32" height="33" viewBox="0 0 32 33" fill="none" xmlns="http://www.w3.org/2000/svg">
<path fill-rule="evenodd" clip-rule="evenodd" d="M11.8376 18.4358V4.31729C11.8376 2.20906 13.6979 0.5 15.9927 0.5C18.2874 0.5 20.1477 2.20906 20.1477 4.31729V18.4358C22.2447 19.7985 23.643 22.17 23.643 24.8572C23.643 29.0782 20.2212 32.5 16.0002 32.5C11.7792 32.5 8.35742 29.0782 8.35742 24.8572C8.35742 22.17 9.74065 19.7985 11.8376 18.4358ZM16.0005 9.78605C16.5528 9.78605 17.0005 10.2338 17.0005 10.7861V21.3463C18.646 21.7869 19.8577 23.2883 19.8577 25.0727C19.8577 27.203 18.1307 28.93 16.0004 28.93C13.87 28.93 12.1431 27.203 12.1431 25.0727C12.1431 23.2882 13.3549 21.7867 15.0005 21.3463V10.7861C15.0005 10.2338 15.4482 9.78605 16.0005 9.78605ZM16.0004 23.2154C14.9746 23.2154 14.1431 24.047 14.1431 25.0727C14.1431 26.0985 14.9746 26.93 16.0004 26.93C17.0261 26.93 17.8577 26.0985 17.8577 25.0727C17.8577 24.047 17.0261 23.2154 16.0004 23.2154Z" fill="#111827"/>
</svg>
