<svg width="32" height="33" viewBox="0 0 32 33" fill="none" xmlns="http://www.w3.org/2000/svg">
<path fill-rule="evenodd" clip-rule="evenodd" d="M6.56564 18.4358V4.31729C6.56564 2.20906 8.42593 0.5 10.7207 0.5C13.0155 0.5 14.8758 2.20906 14.8758 4.31729V18.4358C16.9727 19.7985 18.3711 22.17 18.3711 24.8572C18.3711 29.0782 14.9493 32.5 10.7283 32.5C6.50725 32.5 3.08545 29.0782 3.08545 24.8572C3.08545 22.17 4.46868 19.7985 6.56564 18.4358ZM10.7282 4.07161C11.2805 4.07161 11.7282 4.51933 11.7282 5.07161V21.3464C13.3737 21.7869 14.5854 23.2884 14.5854 25.0728C14.5854 27.2031 12.8584 28.9301 10.7281 28.9301C8.59774 28.9301 6.87077 27.2031 6.87077 25.0728C6.87077 23.2883 8.08258 21.7868 9.72819 21.3463V5.07161C9.72819 4.51933 10.1759 4.07161 10.7282 4.07161ZM10.7281 23.2155C9.70231 23.2155 8.87077 24.047 8.87077 25.0728C8.87077 26.0985 9.70231 26.9301 10.7281 26.9301C11.7538 26.9301 12.5854 26.0985 12.5854 25.0728C12.5854 24.047 11.7538 23.2155 10.7281 23.2155ZM20.3727 8.09937C20.841 7.90525 21.3429 7.80534 21.8498 7.80534C22.3567 7.80534 22.8587 7.90525 23.3269 8.09937C23.7952 8.29348 24.2206 8.57799 24.5789 8.93663C24.7514 9.10932 24.9562 9.24631 25.1817 9.33978C25.4071 9.43324 25.6488 9.48135 25.8929 9.48135C26.137 9.48135 26.3787 9.43324 26.6041 9.33978C26.8296 9.24631 27.0345 9.10932 27.2069 8.93663C27.5973 8.54589 28.2304 8.54554 28.6212 8.93585C29.0119 9.32615 29.0123 9.95932 28.6219 10.3501C28.2637 10.7087 27.8383 10.9932 27.37 11.1873C26.9018 11.3814 26.3998 11.4814 25.8929 11.4814C25.386 11.4814 24.8841 11.3814 24.4158 11.1873C23.9475 10.9932 23.5221 10.7087 23.1639 10.3501C22.9914 10.1774 22.7865 10.0404 22.5611 9.94691C22.3356 9.85345 22.0939 9.80534 21.8498 9.80534C21.6058 9.80534 21.3641 9.85345 21.1386 9.94691C20.9131 10.0404 20.7083 10.1774 20.5358 10.3501C20.1455 10.7408 19.5123 10.7412 19.1216 10.3508C18.7308 9.96054 18.7305 9.32737 19.1208 8.93663C19.479 8.57799 19.9044 8.29348 20.3727 8.09937ZM21.8498 13.5199C21.3429 13.5199 20.841 13.6198 20.3727 13.8139C19.9044 14.008 19.479 14.2925 19.1208 14.6511C18.7305 15.0419 18.7308 15.6751 19.1216 16.0654C19.5123 16.4557 20.1455 16.4553 20.5358 16.0646C20.7083 15.8919 20.9131 15.7549 21.1386 15.6614C21.3641 15.568 21.6058 15.5199 21.8498 15.5199C22.0939 15.5199 22.3356 15.568 22.5611 15.6614C22.7865 15.7549 22.9914 15.8919 23.1639 16.0646C23.5221 16.4232 23.9475 16.7077 24.4158 16.9018C24.8841 17.096 25.386 17.1959 25.8929 17.1959C26.3998 17.1959 26.9018 17.096 27.37 16.9018C27.8383 16.7077 28.2637 16.4232 28.6219 16.0646C29.0123 15.6738 29.0119 15.0407 28.6212 14.6504C28.2304 14.2601 27.5973 14.2604 27.2069 14.6511C27.0345 14.8238 26.8296 14.9608 26.6041 15.0543C26.3787 15.1478 26.137 15.1959 25.8929 15.1959C25.6488 15.1959 25.4071 15.1478 25.1817 15.0543C24.9562 14.9608 24.7514 14.8238 24.5789 14.6511C24.2206 14.2925 23.7952 14.008 23.3269 13.8139C22.8587 13.6198 22.3567 13.5199 21.8498 13.5199Z" fill="#111827"/>
</svg>
