<svg width="32" height="33" viewBox="0 0 32 33" fill="none" xmlns="http://www.w3.org/2000/svg">
<path fill-rule="evenodd" clip-rule="evenodd" d="M7.15451 4.31729V18.4358C5.05754 19.7985 3.67432 22.17 3.67432 24.8572C3.67432 29.0782 7.09612 32.5 11.3171 32.5C15.5381 32.5 18.9599 29.0782 18.9599 24.8572C18.9599 22.17 17.5616 19.7985 15.4646 18.4358V4.31729C15.4646 2.20906 13.6043 0.5 11.3096 0.5C9.01479 0.5 7.15451 2.20906 7.15451 4.31729ZM12.3249 10.7861C12.3249 10.2338 11.8772 9.78605 11.3249 9.78605C10.7726 9.78605 10.3249 10.2338 10.3249 10.7861V21.3463C8.67926 21.7867 7.46745 23.2882 7.46745 25.0727C7.46745 27.203 9.19442 28.93 11.3247 28.93C13.4551 28.93 15.182 27.203 15.182 25.0727C15.182 23.2883 13.9704 21.7869 12.3249 21.3463V10.7861ZM9.46745 25.0727C9.46745 24.047 10.299 23.2154 11.3247 23.2154C12.3505 23.2154 13.182 24.047 13.182 25.0727C13.182 26.0985 12.3505 26.93 11.3247 26.93C10.299 26.93 9.46745 26.0985 9.46745 25.0727ZM22.6112 9.64343C22.6112 8.61767 23.4427 7.78613 24.4685 7.78613C25.4942 7.78613 26.3258 8.61767 26.3258 9.64343C26.3258 10.6692 25.4942 11.5007 24.4685 11.5007C23.4427 11.5007 22.6112 10.6692 22.6112 9.64343ZM24.4685 5.78613C22.3381 5.78613 20.6112 7.5131 20.6112 9.64343C20.6112 11.7738 22.3381 13.5007 24.4685 13.5007C26.5988 13.5007 28.3258 11.7738 28.3258 9.64343C28.3258 7.5131 26.5988 5.78613 24.4685 5.78613Z" fill="#111827"/>
</svg>
