<svg width="20" height="20" viewBox="0 0 20 20" fill="none" xmlns="http://www.w3.org/2000/svg">
<path fill-rule="evenodd" clip-rule="evenodd" d="M6.48935 7.93732L9.72507 1.35165C9.83016 1.13777 10.0477 1.00226 10.286 1.00226H11.1559C12.1914 1.00226 13.0309 1.84172 13.0309 2.87726V6.33175H18.7502C19.4978 6.33175 20.0782 6.98363 19.9918 7.72623L18.7463 18.4303C18.7096 18.7454 18.4427 18.983 18.1254 18.983H6.71177C6.66813 18.9927 6.62277 18.9978 6.57623 18.9978H0.625C0.279822 18.9978 0 18.7179 0 18.3728V8.56232C0 8.21714 0.279822 7.93732 0.625 7.93732H6.48935ZM5.90778 9.18732H1.25V17.7478H5.90778V9.18732Z" fill="#111827"/>
</svg>
