<svg width="32" height="32" viewBox="0 0 32 32" fill="none" xmlns="http://www.w3.org/2000/svg">
<path fill-rule="evenodd" clip-rule="evenodd" d="M1 18.813C0.447715 18.813 0 18.3653 0 17.813V3.0874C0 2.53512 0.447715 2.0874 1 2.0874H11.1522C11.2278 2.0874 11.3015 2.0958 11.3723 2.11171H29.0128C29.5188 2.11171 29.9451 2.48973 30.0056 2.99213L31.986 19.4333C32.1294 20.624 31.1997 21.6724 30.0003 21.6724H20.8553V26.9126C20.8553 28.5694 19.5122 29.9126 17.8553 29.9126H16.4525C16.0762 29.9126 15.7317 29.7013 15.5611 29.3659L10.194 18.813H1ZM9.45499 4.0874V16.813H2V4.0874H9.45499Z" fill="#111827"/>
</svg>
