<svg width="32" height="32" viewBox="0 0 32 32" fill="none" xmlns="http://www.w3.org/2000/svg">
<path fill-rule="evenodd" clip-rule="evenodd" d="M10.3825 12.6997L15.5596 2.1626C15.7278 1.82039 16.0759 1.60358 16.4571 1.60358H17.849C19.5058 1.60358 20.849 2.94672 20.849 4.60358V10.1308H29.9998C31.1959 10.1308 32.1246 11.1738 31.9864 12.3619L29.9935 29.4884C29.9348 29.9926 29.5078 30.3728 29.0002 30.3728H10.7383C10.6685 30.3883 10.596 30.3964 10.5215 30.3964H0.999512C0.447227 30.3964 -0.000488281 29.9487 -0.000488281 29.3964V13.6997C-0.000488281 13.1474 0.447227 12.6997 0.999512 12.6997H10.3825ZM9.45197 14.6997H1.99951V28.3964H9.45197V14.6997Z" fill="#111827"/>
</svg>
