<svg width="32" height="33" viewBox="0 0 32 33" fill="none" xmlns="http://www.w3.org/2000/svg">
<path fill-rule="evenodd" clip-rule="evenodd" d="M0 5.9231C0 5.64695 0.223858 5.4231 0.5 5.4231H31.5C31.7761 5.4231 32 5.64695 32 5.9231V12.4127C29.7426 12.4129 27.9128 14.2429 27.9128 16.5002C27.9128 18.7576 29.7426 20.5876 32 20.5878V27.0769C32 27.3531 31.7761 27.5769 31.5 27.5769H0.5C0.223858 27.5769 0 27.3531 0 27.0769V20.5878C0.0001084 20.5878 0.000216801 20.5878 0.000325203 20.5878C2.25782 20.5878 4.08789 18.7577 4.08789 16.5002C4.08789 14.2427 2.25782 12.4127 0.000325203 12.4127C0.000216801 12.4127 0.0001084 12.4127 0 12.4127V5.9231ZM10.0111 27.5571L10.0111 5.43449L12.0111 5.43449L12.0111 27.5571H10.0111Z" fill="#111827"/>
</svg>
