<svg width="33" height="33" viewBox="0 0 33 33" fill="none" xmlns="http://www.w3.org/2000/svg">
<path fill-rule="evenodd" clip-rule="evenodd" d="M4.95996 8.47534C4.95996 8.1992 5.18382 7.97534 5.45996 7.97534H28.46C28.7361 7.97534 28.96 8.1992 28.96 8.47534V13.2175C27.2668 13.2175 25.8943 14.5901 25.8943 16.2832C25.8943 17.9763 27.2668 19.3489 28.96 19.3489V24.0907C28.96 24.3669 28.7361 24.5907 28.46 24.5907H5.45996C5.18382 24.5907 4.95996 24.3669 4.95996 24.0907V19.3489C6.65309 19.3489 8.02563 17.9763 8.02563 16.2832C8.02563 14.5901 6.65309 13.2175 4.95996 13.2175V8.47534ZM12.2182 24.5757L12.2182 7.98379L14.2182 7.98379L14.2182 24.5757H12.2182Z" fill="#1C1B1F"/>
</svg>
