<svg width="32" height="32" viewBox="0 0 32 32" fill="none" xmlns="http://www.w3.org/2000/svg">
<path fill-rule="evenodd" clip-rule="evenodd" d="M0 5.4231C0 5.14695 0.223858 4.9231 0.5 4.9231H31.5C31.7761 4.9231 32 5.14695 32 5.4231V11.9127C29.7426 11.9129 27.9128 13.7429 27.9128 16.0002C27.9128 18.2576 29.7426 20.0876 32 20.0878V26.5769C32 26.8531 31.7761 27.0769 31.5 27.0769H0.5C0.223858 27.0769 0 26.8531 0 26.5769V20.0878C0.0001084 20.0878 0.000216801 20.0878 0.000325203 20.0878C2.25782 20.0878 4.08789 18.2577 4.08789 16.0002C4.08789 13.7427 2.25782 11.9127 0.000325203 11.9127C0.000216801 11.9127 0.0001084 11.9127 0 11.9127V5.4231ZM10.0111 27.0571L10.0111 4.93449L12.0111 4.93449L12.0111 27.0571H10.0111Z" fill="#111827"/>
</svg>
