<svg width="33" height="33" viewBox="0 0 33 33" fill="none" xmlns="http://www.w3.org/2000/svg">
<path d="M21.8587 13.8319C23.8556 15.27 26.255 16.042 28.7159 16.0381V11.1401C26.8972 11.1401 25.1531 10.4177 23.8671 9.13169C22.5812 7.84573 21.8587 6.10159 21.8587 4.28296H16.9608V19.9564C16.9606 20.57 16.7958 21.1722 16.4836 21.7003C16.1714 22.2285 15.7231 22.6632 15.1857 22.959C14.6482 23.2549 14.0412 23.4012 13.4279 23.3825C12.8147 23.3639 12.2177 23.181 11.6992 22.853C11.1807 22.525 10.7597 22.0639 10.4802 21.5177C10.2006 20.9716 10.0728 20.3604 10.1099 19.748C10.147 19.1356 10.3478 18.5444 10.6913 18.036C11.0348 17.5277 11.5084 17.1208 12.0627 16.8578L12.0628 11.7591C10.5035 12.0385 9.05629 12.7569 7.89095 13.8299C6.72561 14.903 5.89051 16.2861 5.48367 17.8171C5.07682 19.3481 5.11511 20.9633 5.59403 22.4733C6.07296 23.9833 6.97265 25.3254 8.18752 26.342C9.40239 27.3586 10.882 28.0076 12.4528 28.2128C14.0236 28.418 15.6203 28.1709 17.0555 27.5005C18.4908 26.8301 19.7051 25.7643 20.5558 24.428C21.4066 23.0917 21.8586 21.5405 21.8587 19.9564L21.8587 13.8319Z" fill="#1C1B1F" stroke="#1C1B1F" stroke-width="2" stroke-linecap="round" stroke-linejoin="round"/>
</svg>
