<svg width="32" height="32" viewBox="0 0 32 32" fill="none" xmlns="http://www.w3.org/2000/svg">
<path d="M22.5314 13.1224C22.5314 12.9594 22.7165 12.8642 22.8512 12.9562C25.3933 14.692 28.3937 15.638 31.4746 15.6725C31.5849 15.6737 31.6744 15.5841 31.6744 15.4738V9.34285C31.6744 9.2324 31.5848 9.14308 31.4743 9.14067C29.1219 9.08925 26.8768 8.13239 25.2094 6.46497C23.542 4.79756 22.5851 2.55241 22.5337 0.200018C22.5313 0.0895872 22.442 0 22.3315 0H16.2009C16.0904 0 16.0009 0.0895431 16.0009 0.2V20.898C16.0007 21.716 15.781 22.519 15.3647 23.2232C14.9484 23.9274 14.3507 24.5069 13.6341 24.9015C12.9175 25.296 12.1081 25.491 11.2905 25.4661C10.4728 25.4412 9.6768 25.1974 8.98548 24.76C8.29417 24.3227 7.73287 23.7079 7.36014 22.9797C6.98741 22.2515 6.81691 21.4366 6.86642 20.6201C6.91593 19.8035 7.18364 19.0152 7.64163 18.3374C8.07598 17.6946 8.66639 17.1734 9.35666 16.8223C9.42551 16.7873 9.47018 16.7173 9.47019 16.64L9.47028 10.2073C9.47028 10.0827 9.35758 9.98833 9.23546 10.0129C7.24608 10.4138 5.40294 11.3526 3.90782 12.7293C2.35403 14.16 1.24057 16.0042 0.69811 18.0455C0.155649 20.0868 0.206697 22.2405 0.845263 24.2538C1.48383 26.2671 2.68342 28.0565 4.30325 29.412C5.92307 30.7675 7.89593 31.6328 9.99028 31.9064C12.0846 32.1801 14.2136 31.8506 16.1273 30.9568C18.041 30.0629 19.66 28.6418 20.7944 26.8601C21.9287 25.0784 22.5313 23.0101 22.5315 20.898L22.5314 13.1224Z" fill="#111827"/>
</svg>
