<svg width="32" height="33" viewBox="0 0 32 33" fill="none" xmlns="http://www.w3.org/2000/svg">
<path fill-rule="evenodd" clip-rule="evenodd" d="M3.91581 11.3467L9.78289 11.3467V14.6047H7.49562V22.0489H3.91357L3.91581 11.3467ZM28.0842 11.3467L22.2171 11.3467V14.6047H24.5044V22.0489H28.0864L28.0842 11.3467ZM3.30413 14.6027H0.0294636L0 13.0705L2.66981 11.395H3.30413V14.6027ZM31.9705 14.6027H28.6959V11.395H29.3302L32 13.0705L31.9705 14.6027ZM20.0118 18.8411H23.2865L23.3159 20.3734L20.6461 22.0488H20.0118V18.8411ZM11.4141 15.4712C11.1379 15.4712 10.9141 15.695 10.9141 15.9712V21.4892C10.9141 21.7654 11.1379 21.9892 11.4141 21.9892H13.9698C14.2459 21.9892 14.4698 21.7654 14.4698 21.4892V15.9712C14.4698 15.695 14.2459 15.4712 13.9698 15.4712H11.4141ZM15.8462 11.8467C15.8462 11.5705 16.07 11.3467 16.3462 11.3467H18.9019C19.178 11.3467 19.4019 11.5705 19.4019 11.8467V21.4892C19.4019 21.7654 19.178 21.9892 18.9019 21.9892H16.3462C16.07 21.9892 15.8462 21.7654 15.8462 21.4892V11.8467ZM10.8501 11.3837L14.5174 11.3813L14.5228 14.6518L12.6033 14.6518L10.8501 11.9471V11.3837Z" fill="#111827"/>
</svg>
