<svg width="32" height="33" viewBox="0 0 32 33" fill="none" xmlns="http://www.w3.org/2000/svg">
<path fill-rule="evenodd" clip-rule="evenodd" d="M12.2674 0.500122C11.7151 0.500122 11.2674 0.947837 11.2674 1.50012C11.2674 2.05241 11.7151 2.50012 12.2674 2.50012H19.7322C20.2845 2.50012 20.7322 2.05241 20.7322 1.50012C20.7322 0.947837 20.2845 0.500122 19.7322 0.500122H12.2674ZM15.9999 32.4998C23.5582 32.4998 29.6854 26.3726 29.6854 18.8144C29.6854 11.2561 23.5582 5.12888 15.9999 5.12888C8.44165 5.12888 2.31445 11.2561 2.31445 18.8144C2.31445 26.3726 8.44165 32.4998 15.9999 32.4998ZM22.8654 11.9493C23.2559 12.3398 23.2559 12.973 22.8654 13.3635L16.7072 19.5217C16.3167 19.9122 15.6835 19.9122 15.293 19.5217C14.9025 19.1312 14.9025 18.498 15.293 18.1075L21.4511 11.9493C21.8417 11.5588 22.4748 11.5588 22.8654 11.9493Z" fill="#111827"/>
</svg>
