<svg width="33" height="33" viewBox="0 0 33 33" fill="none" xmlns="http://www.w3.org/2000/svg">
<path fill-rule="evenodd" clip-rule="evenodd" d="M14.1909 4.78296C13.6386 4.78296 13.1909 5.23067 13.1909 5.78296C13.1909 6.33524 13.6386 6.78296 14.1909 6.78296H19.7294C20.2817 6.78296 20.7294 6.33524 20.7294 5.78296C20.7294 5.23067 20.2817 4.78296 19.7294 4.78296H14.1909ZM16.96 28.7829C22.5678 28.7829 27.1138 24.2369 27.1138 18.6291C27.1138 13.0213 22.5678 8.47522 16.96 8.47522C11.3522 8.47522 6.80615 13.0213 6.80615 18.6291C6.80615 24.2369 11.3522 28.7829 16.96 28.7829ZM22.2361 13.3531C22.6266 13.7436 22.6266 14.3768 22.2361 14.7673L17.6671 19.3363C17.2765 19.7268 16.6434 19.7268 16.2529 19.3363C15.8623 18.9458 15.8623 18.3126 16.2529 17.9221L20.8219 13.3531C21.2124 12.9625 21.8455 12.9625 22.2361 13.3531Z" fill="#1C1B1F"/>
</svg>
