<svg width="32" height="32" viewBox="0 0 32 32" fill="none" xmlns="http://www.w3.org/2000/svg">
<path fill-rule="evenodd" clip-rule="evenodd" d="M6.08013 0.00012207C5.52784 0.00012207 5.08013 0.447837 5.08013 1.00012V13.4H2.86035C2.58421 13.4 2.36035 13.6238 2.36035 13.9V17.7999C2.36035 22.2181 5.94208 25.7999 10.3604 25.7999H11.0877L10.0939 31.4127C10.0396 31.7189 10.2752 31.9998 10.5862 31.9998H21.414C21.725 31.9998 21.9606 31.7189 21.9064 31.4127L20.9126 25.7999H21.6401C26.0584 25.7999 29.6401 22.2181 29.6401 17.7998V13.9C29.6401 13.6238 29.4162 13.4 29.1401 13.4H26.9199V1.00012C26.9199 0.447837 26.4722 0.00012207 25.9199 0.00012207H6.08013ZM24.9199 13.4V2.00012H7.08013V13.4H24.9199ZM11.041 4.96005C10.4887 4.96005 10.041 5.40776 10.041 5.96005C10.041 6.51233 10.4887 6.96005 11.041 6.96005H13.5203C14.0725 6.96005 14.5203 6.51233 14.5203 5.96005C14.5203 5.40776 14.0725 4.96005 13.5203 4.96005H11.041Z" fill="#111827"/>
</svg>
