<svg width="33" height="33" viewBox="0 0 33 33" fill="none" xmlns="http://www.w3.org/2000/svg">
<path fill-rule="evenodd" clip-rule="evenodd" d="M9.27979 3.2829C8.7275 3.2829 8.27979 3.73061 8.27979 4.2829V13.8829H6.8999C6.62376 13.8829 6.3999 14.1068 6.3999 14.3829V15.4829C6.3999 19.484 9.33719 22.7991 13.1731 23.3894L12.4106 27.6957C12.3564 28.002 12.5919 28.2829 12.9029 28.2829H21.0166C21.3276 28.2829 21.5631 28.002 21.5089 27.6957L20.7465 23.3895C24.5825 22.7992 27.5199 19.4841 27.5199 15.4829V14.3829C27.5199 14.1068 27.296 13.8829 27.0199 13.8829H25.6398V4.2829C25.6398 3.73061 25.1921 3.2829 24.6398 3.2829H9.27979ZM23.6398 13.8829V5.2829H10.2798V13.8829H23.6398ZM13.1201 7.12289C12.5678 7.12289 12.1201 7.57061 12.1201 8.12289C12.1201 8.67518 12.5678 9.12289 13.1201 9.12289H15.0401C15.5924 9.12289 16.0401 8.67518 16.0401 8.12289C16.0401 7.57061 15.5924 7.12289 15.0401 7.12289H13.1201Z" fill="#1C1B1F"/>
</svg>
