<svg width="32" height="32" viewBox="0 0 32 32" fill="none" xmlns="http://www.w3.org/2000/svg">
<path fill-rule="evenodd" clip-rule="evenodd" d="M6.15839 26.648C8.31721 26.648 10.2166 24.4262 11.316 21.0635V28.9836C11.316 29.5359 11.7637 29.9836 12.316 29.9836H31.0002C31.5525 29.9836 32.0002 29.5359 32.0002 28.9836V11.0277C32.0002 6.05718 27.9708 2.02774 23.0002 2.02774H6.4252C6.33673 2.0202 6.24778 2.01639 6.15839 2.01639C2.75747 2.01639 0.000488281 7.53036 0.000488281 14.3322C0.000488281 21.134 2.75747 26.648 6.15839 26.648ZM8.00529 14.3316C8.00529 15.3516 7.1784 16.1785 6.15838 16.1785C5.13836 16.1785 4.31147 15.3516 4.31147 14.3316C4.31147 13.3116 5.13836 12.4847 6.15838 12.4847C7.1784 12.4847 8.00529 13.3116 8.00529 14.3316ZM23.0002 4.02774H10.2392C10.659 4.50911 11.0382 5.05606 11.3708 5.64422C12.5646 7.75498 13.316 10.637 13.316 13.8571V13.8758H14.6928C15.2451 13.8758 15.6928 14.3235 15.6928 14.8758C15.6928 15.4281 15.2451 15.8758 14.6928 15.8758H13.316V27.9836H30.0002V15.8758H28.4839C27.9317 15.8758 27.4839 15.4281 27.4839 14.8758C27.4839 14.3235 27.9317 13.8758 28.4839 13.8758H30.0002V11.0277C30.0002 7.16175 26.8662 4.02774 23.0002 4.02774ZM19.2899 13.8758C18.7376 13.8758 18.2899 14.3235 18.2899 14.8758C18.2899 15.4281 18.7376 15.8758 19.2899 15.8758H23.8869C24.4392 15.8758 24.8869 15.4281 24.8869 14.8758C24.8869 14.3235 24.4392 13.8758 23.8869 13.8758H19.2899Z" fill="#111827"/>
</svg>
