<svg width="33" height="33" viewBox="0 0 33 33" fill="none" xmlns="http://www.w3.org/2000/svg">
<path fill-rule="evenodd" clip-rule="evenodd" d="M9.32317 24.5906C10.8996 24.5906 12.301 23.0918 13.1905 20.7679V26.4367C13.1905 26.989 13.6382 27.4367 14.1905 27.4367H28.9598C29.5121 27.4367 29.9598 26.989 29.9598 26.4367V14.129C29.9598 9.15847 25.9303 5.12903 20.9598 5.12903H9.53298C9.46341 5.12313 9.39346 5.12015 9.32317 5.12015C6.63487 5.12015 4.45557 9.47875 4.45557 14.8554C4.45557 20.232 6.63487 24.5906 9.32317 24.5906ZM10.7838 14.8554C10.7838 15.6618 10.13 16.3156 9.32352 16.3156C8.51703 16.3156 7.86324 15.6618 7.86324 14.8554C7.86324 14.0489 8.51703 13.3951 9.32352 13.3951C10.13 13.3951 10.7838 14.0489 10.7838 14.8554ZM20.9598 7.12903H13.003C13.2285 7.42209 13.4359 7.73667 13.6236 8.06519C14.5489 9.68458 15.1399 11.8595 15.1874 14.2851H16.0693C16.6216 14.2851 17.0693 14.7328 17.0693 15.2851C17.0693 15.8373 16.6216 16.2851 16.0693 16.2851H15.1905V25.4367H27.9598V16.2851H26.9707C26.4185 16.2851 25.9707 15.8373 25.9707 15.2851C25.9707 14.7328 26.4185 14.2851 26.9707 14.2851H27.9598V14.129C27.9598 10.263 24.8258 7.12903 20.9598 7.12903ZM19.7031 14.2851C19.1509 14.2851 18.7031 14.7328 18.7031 15.2851C18.7031 15.8373 19.1509 16.2851 19.7031 16.2851H23.3369C23.8892 16.2851 24.3369 15.8373 24.3369 15.2851C24.3369 14.7328 23.8892 14.2851 23.3369 14.2851H19.7031Z" fill="#1C1B1F"/>
</svg>
