<svg width="33" height="33" viewBox="0 0 33 33" fill="none" xmlns="http://www.w3.org/2000/svg">
<path d="M12.3027 13.9541V10.2282C12.3027 8.99298 12.7934 7.80835 13.6669 6.93492C14.5403 6.06149 15.7249 5.5708 16.9601 5.5708C18.1953 5.5708 19.38 6.06149 20.2534 6.93492C21.1268 7.80835 21.6175 8.99298 21.6175 10.2282V13.9541" stroke="#1C1B1F" stroke-width="2" stroke-linecap="round" stroke-linejoin="round"/>
<path d="M6.82316 26.9949H27.0972L28.9602 10.2282H4.96021L6.82316 26.9949Z" fill="#1C1B1F" stroke="#1C1B1F" stroke-width="2" stroke-linejoin="round"/>
<path d="M22.5139 10.2283V9.22827H20.5139V10.2283H22.5139ZM20.5139 14.6744C20.5139 15.2267 20.9616 15.6744 21.5139 15.6744C22.0662 15.6744 22.5139 15.2267 22.5139 14.6744H20.5139ZM20.5139 10.2283V14.6744H22.5139V10.2283H20.5139Z" fill="white"/>
<path d="M11.4062 14.6744C11.4062 15.2267 11.854 15.6744 12.4062 15.6744C12.9585 15.6744 13.4062 15.2267 13.4062 14.6744H11.4062ZM13.4062 10.2283V9.22827H11.4062V10.2283H13.4062ZM13.4062 14.6744V10.2283H11.4062V14.6744H13.4062Z" fill="white"/>
</svg>
