<svg width="33" height="33" viewBox="0 0 33 33" fill="none" xmlns="http://www.w3.org/2000/svg">
<path fill-rule="evenodd" clip-rule="evenodd" d="M28.9602 16.283C28.9602 22.9104 23.5876 28.283 16.9602 28.283C10.3328 28.283 4.96021 22.9104 4.96021 16.283C4.96021 9.65554 10.3328 4.28296 16.9602 4.28296C23.5876 4.28296 28.9602 9.65554 28.9602 16.283ZM12.9602 11.3178C12.9602 10.7463 13.4235 10.283 13.995 10.283H17.7186C20.0611 10.283 21.9602 12.182 21.9602 14.5245C21.9602 16.0393 21.1661 17.3686 19.9716 18.1189L21.7803 20.7108C22.0963 21.1638 21.9854 21.7871 21.5325 22.1032C21.0796 22.4192 20.4562 22.3083 20.1401 21.8554L17.9789 18.7582C17.8928 18.7635 17.806 18.7661 17.7186 18.7661H17.4602H14.9602V21.283C14.9602 21.8353 14.5125 22.283 13.9602 22.283C13.4079 22.283 12.9602 21.8353 12.9602 21.283V17.7661V11.3178ZM14.9602 16.7661H17.4602H17.7186C18.9566 16.7661 19.9602 15.7625 19.9602 14.5245C19.9602 13.2865 18.9566 12.283 17.7186 12.283H14.9602V16.7661Z" fill="#1C1B1F"/>
</svg>
