<svg width="32" height="32" viewBox="0 0 32 32" fill="none" xmlns="http://www.w3.org/2000/svg">
<path fill-rule="evenodd" clip-rule="evenodd" d="M32 16C32 24.8366 24.8366 32 16 32C7.16344 32 0 24.8366 0 16C0 7.16344 7.16344 0 16 0C24.8366 0 32 7.16344 32 16ZM10.9999 9.37977C10.9999 8.80184 11.4684 8.33333 12.0464 8.33333H17.0111C19.9504 8.33333 22.3332 10.7161 22.3332 13.6554C22.3332 15.6815 21.201 17.4431 19.5349 18.3422L22.1533 22.0946C22.4694 22.5475 22.3584 23.1709 21.9055 23.4869C21.4526 23.803 20.8292 23.692 20.5132 23.2391L17.5224 18.9533C17.3542 18.9693 17.1836 18.9775 17.0111 18.9775H16.6666H12.9999V22.6667C12.9999 23.219 12.5522 23.6667 11.9999 23.6667C11.4476 23.6667 10.9999 23.219 10.9999 22.6667V17.9775V9.37977ZM12.9999 16.9775H16.6666H17.0111C18.8458 16.9775 20.3332 15.4902 20.3332 13.6554C20.3332 11.8207 18.8458 10.3333 17.0111 10.3333H12.9999V16.9775Z" fill="#111827"/>
</svg>
