<svg width="32" height="33" viewBox="0 0 32 33" fill="none" xmlns="http://www.w3.org/2000/svg">
<path fill-rule="evenodd" clip-rule="evenodd" d="M32 16.5C32 25.3366 24.8366 32.5 16 32.5C7.16344 32.5 0 25.3366 0 16.5C0 7.66344 7.16344 0.5 16 0.5C24.8366 0.5 32 7.66344 32 16.5ZM10.9999 9.87977C10.9999 9.30184 11.4684 8.83333 12.0464 8.83333H17.0111C19.9504 8.83333 22.3332 11.2161 22.3332 14.1554C22.3332 16.1815 21.201 17.9431 19.5349 18.8422L22.1533 22.5946C22.4694 23.0475 22.3584 23.6709 21.9055 23.9869C21.4526 24.303 20.8292 24.192 20.5132 23.7391L17.5224 19.4533C17.3542 19.4693 17.1836 19.4775 17.0111 19.4775H16.6666H12.9999V23.1667C12.9999 23.719 12.5522 24.1667 11.9999 24.1667C11.4476 24.1667 10.9999 23.719 10.9999 23.1667V18.4775V9.87977ZM12.9999 17.4775H16.6666H17.0111C18.8458 17.4775 20.3332 15.9902 20.3332 14.1554C20.3332 12.3207 18.8458 10.8333 17.0111 10.8333H12.9999V17.4775Z" fill="#111827"/>
</svg>
