<svg width="32" height="33" viewBox="0 0 32 33" fill="none" xmlns="http://www.w3.org/2000/svg">
<path fill-rule="evenodd" clip-rule="evenodd" d="M14.8646 5.6676C14.4389 5.6676 14.0599 5.93705 13.9201 6.33908L11.9329 12.0522H20.0667L18.0795 6.33908C17.9397 5.93705 17.5607 5.6676 17.135 5.6676H14.8646ZM20.7624 14.0522H11.2373L9.36433 19.4369H22.6353L20.7624 14.0522ZM7.23114 25.5698L8.66868 21.4369H23.3309L24.7685 25.5698C24.8067 25.6796 24.8246 25.7903 24.8248 25.8983H28C28.5523 25.8983 29 26.346 29 26.8983C29 27.4506 28.5523 27.8983 28 27.8983H4C3.44772 27.8983 3 27.4506 3 26.8983C3 26.346 3.44772 25.8983 4 25.8983H7.17482C7.17498 25.7903 7.19294 25.6796 7.23114 25.5698Z" fill="#1C1B1F"/>
</svg>
