<svg width="33" height="33" viewBox="0 0 33 33" fill="none" xmlns="http://www.w3.org/2000/svg">
<path fill-rule="evenodd" clip-rule="evenodd" d="M5.66692 15.5758C5.27639 15.9663 5.27639 16.5995 5.66692 16.99L16.2527 27.5758C16.6432 27.9663 17.2764 27.9663 17.6669 27.5758L28.2527 16.99C28.6432 16.5995 28.6432 15.9663 28.2527 15.5758L17.6669 4.98998C17.2764 4.59945 16.6432 4.59945 16.2527 4.98998L5.66692 15.5758ZM17.8489 12.5757C18.2394 12.1852 18.8726 12.1852 19.2631 12.5757L22.2155 15.5281C22.4242 15.7113 22.556 15.9802 22.556 16.2798L22.556 16.2845C22.5556 16.5399 22.4579 16.7951 22.2631 16.9899L19.2631 19.9899C18.8726 20.3804 18.2394 20.3804 17.8489 19.9899C17.4584 19.5994 17.4584 18.9662 17.8489 18.5757L19.1448 17.2798H13.3636V19.2828C13.3636 19.8351 12.9159 20.2828 12.3636 20.2828C11.8113 20.2828 11.3636 19.8351 11.3636 19.2828V16.2798C11.3636 15.7275 11.8113 15.2798 12.3636 15.2798H19.1388L17.8489 13.9899C17.4584 13.5994 17.4584 12.9662 17.8489 12.5757Z" fill="#1C1B1F"/>
</svg>
