<svg width="32" height="32" viewBox="0 0 32 32" fill="none" xmlns="http://www.w3.org/2000/svg">
<path fill-rule="evenodd" clip-rule="evenodd" d="M26.6663 1C26.6663 0.447715 26.2186 0 25.6663 0H6.33301C5.78072 0 5.33301 0.447715 5.33301 1V5.66667H1.33301C0.780723 5.66667 0.333008 6.11438 0.333008 6.66667C0.333008 7.21895 0.780723 7.66667 1.33301 7.66667H5.33301V19H1.33301C0.780723 19 0.333008 19.4477 0.333008 20C0.333008 20.5523 0.780723 21 1.33301 21H5.33301V31C5.33301 31.5523 5.78072 32 6.33301 32H25.6663C26.2186 32 26.6663 31.5523 26.6663 31L26.6663 21H30.6663C31.2186 21 31.6663 20.5523 31.6663 20C31.6663 19.4477 31.2186 19 30.6663 19H26.6663V7.66667H30.6663C31.2186 7.66667 31.6663 7.21895 31.6663 6.66667C31.6663 6.11438 31.2186 5.66667 30.6663 5.66667H26.6663L26.6663 1ZM15.9997 6.33333C14.3428 6.33333 12.9997 7.67648 12.9997 9.33333C12.9997 10.9902 14.3428 12.3333 15.9997 12.3333C17.6565 12.3333 18.9997 10.9902 18.9997 9.33333C18.9997 7.67648 17.6565 6.33333 15.9997 6.33333ZM10.9997 9.33333C10.9997 6.57191 13.2383 4.33333 15.9997 4.33333C18.7611 4.33333 20.9997 6.57191 20.9997 9.33333C20.9997 12.0948 18.7611 14.3333 15.9997 14.3333C13.2383 14.3333 10.9997 12.0948 10.9997 9.33333ZM15.9997 19.6667C14.3428 19.6667 12.9997 21.0098 12.9997 22.6667C12.9997 24.3235 14.3428 25.6667 15.9997 25.6667C17.6565 25.6667 18.9997 24.3235 18.9997 22.6667C18.9997 21.0098 17.6565 19.6667 15.9997 19.6667ZM10.9997 22.6667C10.9997 19.9052 13.2383 17.6667 15.9997 17.6667C18.7611 17.6667 20.9997 19.9052 20.9997 22.6667C20.9997 25.4281 18.7611 27.6667 15.9997 27.6667C13.2383 27.6667 10.9997 25.4281 10.9997 22.6667Z" fill="#111827"/>
</svg>
