<svg width="33" height="32" viewBox="0 0 33 32" fill="none" xmlns="http://www.w3.org/2000/svg">
<path fill-rule="evenodd" clip-rule="evenodd" d="M14.4434 2.23157C14.0177 2.23157 13.6387 2.50102 13.4989 2.90305L10.8698 10.4618H21.2103L18.5811 2.90305C18.4413 2.50102 18.0623 2.23157 17.6366 2.23157H14.4434ZM21.9059 12.4618H10.1741L7.65923 19.6921H24.4208L21.9059 12.4618ZM4.96434 27.4398L6.96357 21.6921H25.1164L27.1157 27.4398C27.1539 27.5497 27.1718 27.6603 27.172 27.7684H31.0392C31.5915 27.7684 32.0392 28.2161 32.0392 28.7684C32.0392 29.3207 31.5915 29.7684 31.0392 29.7684H1.04102C0.488731 29.7684 0.0410156 29.3207 0.0410156 28.7684C0.0410156 28.2161 0.488731 27.7684 1.04102 27.7684H4.90802C4.90817 27.6603 4.92614 27.5497 4.96434 27.4398Z" fill="#111827"/>
</svg>
