<svg width="33" height="33" viewBox="0 0 33 33" fill="none" xmlns="http://www.w3.org/2000/svg">
<path fill-rule="evenodd" clip-rule="evenodd" d="M24.96 5.28296C24.96 4.73067 24.5122 4.28296 23.96 4.28296H9.95996C9.40768 4.28296 8.95996 4.73067 8.95996 5.28296V8.28296H5.95996C5.40768 8.28296 4.95996 8.73067 4.95996 9.28296C4.95996 9.83524 5.40768 10.283 5.95996 10.283H8.95996V18.283H5.95996C5.40768 18.283 4.95996 18.7307 4.95996 19.283C4.95996 19.8352 5.40768 20.283 5.95996 20.283H8.95996V27.283C8.95996 27.8352 9.40768 28.283 9.95996 28.283H23.96C24.5122 28.283 24.96 27.8352 24.96 27.283V20.283H27.96C28.5122 20.283 28.96 19.8352 28.96 19.283C28.96 18.7307 28.5122 18.283 27.96 18.283H24.96V10.283H27.96C28.5122 10.283 28.96 9.83524 28.96 9.28296C28.96 8.73067 28.5122 8.28296 27.96 8.28296H24.96V5.28296ZM16.96 9.28296C15.8554 9.28296 14.96 10.1784 14.96 11.283C14.96 12.3875 15.8554 13.283 16.96 13.283C18.0645 13.283 18.96 12.3875 18.96 11.283C18.96 10.1784 18.0645 9.28296 16.96 9.28296ZM12.96 11.283C12.96 9.07382 14.7508 7.28296 16.96 7.28296C19.1691 7.28296 20.96 9.07382 20.96 11.283C20.96 13.4921 19.1691 15.283 16.96 15.283C14.7508 15.283 12.96 13.4921 12.96 11.283ZM16.96 19.283C15.8554 19.283 14.96 20.1784 14.96 21.283C14.96 22.3875 15.8554 23.283 16.96 23.283C18.0645 23.283 18.96 22.3875 18.96 21.283C18.96 20.1784 18.0645 19.283 16.96 19.283ZM12.96 21.283C12.96 19.0738 14.7508 17.283 16.96 17.283C19.1691 17.283 20.96 19.0738 20.96 21.283C20.96 23.4921 19.1691 25.283 16.96 25.283C14.7508 25.283 12.96 23.4921 12.96 21.283Z" fill="#1C1B1F"/>
</svg>
