<svg width="32" height="32" viewBox="0 0 32 32" fill="none" xmlns="http://www.w3.org/2000/svg">
<path fill-rule="evenodd" clip-rule="evenodd" d="M0.292894 15.293C-0.0976306 15.6835 -0.0976315 16.3167 0.292893 16.7072L15.293 31.7073C15.6835 32.0978 16.3167 32.0978 16.7072 31.7073L31.7073 16.7072C32.0978 16.3167 32.0978 15.6835 31.7073 15.293L16.7072 0.292894C16.3167 -0.0976306 15.6835 -0.0976315 15.293 0.292893L0.292894 15.293ZM17.4759 11.1889C17.8664 10.7984 18.4996 10.7984 18.8901 11.1889L22.9378 15.2366C23.1471 15.4164 23.2812 15.6813 23.2864 15.9776C23.2921 16.2408 23.1946 16.5059 22.9937 16.7067L18.8901 20.8103C18.4996 21.2008 17.8664 21.2008 17.4759 20.8103C17.0854 20.4198 17.0854 19.7866 17.4759 19.3961L19.8765 16.9955H10.7126V20.1031C10.7126 20.6554 10.2649 21.1031 9.71261 21.1031C9.16032 21.1031 8.71261 20.6554 8.71261 20.1031V15.9955C8.71261 15.4432 9.16032 14.9955 9.71261 14.9955L19.8682 14.9955L17.4759 12.6031C17.0854 12.2126 17.0854 11.5794 17.4759 11.1889Z" fill="#111827"/>
</svg>
