<svg width="33" height="33" viewBox="0 0 33 33" fill="none" xmlns="http://www.w3.org/2000/svg">
<path fill-rule="evenodd" clip-rule="evenodd" d="M7.26758 5.2829C7.26758 4.73061 7.71529 4.2829 8.26758 4.2829H25.6522C26.2045 4.2829 26.6522 4.73061 26.6522 5.2829V7.89825H7.26758V5.2829ZM7.26758 9.89825H26.6522V14.3598H7.26758V9.89825ZM7.26758 16.3598H26.6522V23.5906C26.6522 24.1429 26.2045 24.5906 25.6522 24.5906H21.9024L24.2216 27.6829C24.5529 28.1247 24.4634 28.7515 24.0216 29.0829C23.5797 29.4143 22.9529 29.3247 22.6216 28.8829L19.8523 25.1906C19.7173 25.0105 19.6521 24.7996 19.6523 24.5906H14.2678C14.268 24.7996 14.2028 25.0105 14.0678 25.1906L11.2985 28.8829C10.9672 29.3247 10.3404 29.4143 9.89854 29.0829C9.45671 28.7515 9.36716 28.1247 9.69854 27.6829L12.0178 24.5906H8.26758C7.71529 24.5906 7.26758 24.1429 7.26758 23.5906V16.3598ZM11.8832 21.8214C12.6479 21.8214 13.2678 21.2014 13.2678 20.4367C13.2678 19.672 12.6479 19.0521 11.8832 19.0521C11.1184 19.0521 10.4985 19.672 10.4985 20.4367C10.4985 21.2014 11.1184 21.8214 11.8832 21.8214ZM23.4216 20.4367C23.4216 21.2014 22.8017 21.8214 22.037 21.8214C21.2723 21.8214 20.6523 21.2014 20.6523 20.4367C20.6523 19.672 21.2723 19.0521 22.037 19.0521C22.8017 19.0521 23.4216 19.672 23.4216 20.4367Z" fill="#1C1B1F"/>
</svg>
