<svg width="32" height="32" viewBox="0 0 32 32" fill="none" xmlns="http://www.w3.org/2000/svg">
<path fill-rule="evenodd" clip-rule="evenodd" d="M15.8913 14.6117L28.9008 12.448L25.1618 0.696797C25.0297 0.281819 24.6443 0 24.2088 0H7.78688C7.35141 0 6.966 0.281817 6.83396 0.696795L3.09912 12.4349L15.8913 14.6117ZM16.9981 16.4551L28.668 14.5142L25.1618 25.5337C25.0297 25.9486 24.6443 26.2305 24.2088 26.2305H22.0168L25.1438 30.3997C25.4751 30.8415 25.3856 31.4683 24.9438 31.7997C24.5019 32.1311 23.8751 32.0415 23.5438 31.5997L19.5168 26.2305H16.9981V16.4551ZM14.9981 16.4884L14.9981 26.2305H12.4785L8.45166 31.5996C8.12028 32.0414 7.49348 32.131 7.05166 31.7996C6.60983 31.4682 6.52028 30.8414 6.85166 30.3996L9.97851 26.2305H7.78688C7.3514 26.2305 6.96599 25.9486 6.83396 25.5337L3.32383 14.5018L14.9981 16.4884ZM10.2292 8.34579C10.2292 7.79351 10.6769 7.34579 11.2292 7.34579H20.7675C21.3198 7.34579 21.7675 7.79351 21.7675 8.34579C21.7675 8.89808 21.3198 9.34579 20.7675 9.34579H11.2292C10.6769 9.34579 10.2292 8.89808 10.2292 8.34579Z" fill="#111827"/>
</svg>
