<svg width="32" height="32" viewBox="0 0 32 32" fill="none" xmlns="http://www.w3.org/2000/svg">
<path fill-rule="evenodd" clip-rule="evenodd" d="M3.48096 1.00024C3.48096 0.44796 3.92867 0.000244141 4.48096 0.000244141H27.5193C28.0716 0.000244141 28.5193 0.447959 28.5193 1.00024V4.96165H3.48096V1.00024ZM3.48096 6.96165H28.5193V13.3077H3.48096V6.96165ZM3.48096 15.3077H28.5193V25.2309C28.5193 25.7831 28.0716 26.2309 27.5193 26.2309H22.0196L25.1463 30.3999C25.4777 30.8417 25.3882 31.4685 24.9464 31.7999C24.5045 32.1312 23.8777 32.0417 23.5463 31.5999L19.9694 26.8307C19.8344 26.6506 19.7693 26.4398 19.7694 26.2309H12.2314C12.2316 26.4398 12.1664 26.6506 12.0314 26.8307L8.45448 31.5999C8.12311 32.0417 7.49631 32.1312 7.05448 31.7999C6.61265 31.4685 6.52311 30.8417 6.85448 30.3999L9.98124 26.2309H4.48096C3.92867 26.2309 3.48096 25.7831 3.48096 25.2309V15.3077ZM9.44235 22.6529C10.4298 22.6529 11.2303 21.8524 11.2303 20.8649C11.2303 19.8775 10.4298 19.077 9.44235 19.077C8.45489 19.077 7.6544 19.8775 7.6544 20.8649C7.6544 21.8524 8.45489 22.6529 9.44235 22.6529ZM24.3458 20.8649C24.3458 21.8524 23.5453 22.6529 22.5578 22.6529C21.5704 22.6529 20.7699 21.8524 20.7699 20.8649C20.7699 19.8775 21.5704 19.077 22.5578 19.077C23.5453 19.077 24.3458 19.8775 24.3458 20.8649Z" fill="#111827"/>
</svg>
