<svg width="32" height="32" viewBox="0 0 32 32" fill="none" xmlns="http://www.w3.org/2000/svg">
<path fill-rule="evenodd" clip-rule="evenodd" d="M3.48096 1.00012C3.48096 0.447837 3.92867 0.00012207 4.48096 0.00012207H27.5191C28.0714 0.00012207 28.5191 0.447837 28.5191 1.00012V13.3076H3.48096V1.00012ZM3.48096 15.3076H28.5191V25.2306C28.5191 25.7829 28.0714 26.2306 27.5191 26.2306H22.0194L25.1463 30.3998C25.4777 30.8416 25.3881 31.4684 24.9463 31.7998C24.5045 32.1312 23.8777 32.0416 23.5463 31.5998L19.9694 26.8306C19.8343 26.6505 19.7692 26.4396 19.7694 26.2306H12.2314C12.2316 26.4396 12.1665 26.6505 12.0314 26.8306L8.45447 31.5998C8.1231 32.0416 7.4963 32.1312 7.05447 31.7998C6.61265 31.4684 6.5231 30.8416 6.85447 30.3998L9.98141 26.2306H4.48096C3.92867 26.2306 3.48096 25.7829 3.48096 25.2306V15.3076ZM9.44266 22.6527C10.4301 22.6527 11.2306 21.8522 11.2306 20.8648C11.2306 19.8773 10.4301 19.0768 9.44266 19.0768C8.45521 19.0768 7.65472 19.8773 7.65472 20.8648C7.65472 21.8522 8.45521 22.6527 9.44266 22.6527ZM24.3461 20.8648C24.3461 21.8522 23.5456 22.6527 22.5581 22.6527C21.5706 22.6527 20.7702 21.8522 20.7702 20.8648C20.7702 19.8773 21.5706 19.0768 22.5581 19.0768C23.5456 19.0768 24.3461 19.8773 24.3461 20.8648Z" fill="#111827"/>
</svg>
