<svg width="32" height="33" viewBox="0 0 32 33" fill="none" xmlns="http://www.w3.org/2000/svg">
<path fill-rule="evenodd" clip-rule="evenodd" d="M11.8865 0.999923C12.1626 0.52163 12.7742 0.357755 13.2525 0.633897L16.4748 2.4943C16.5271 2.52255 16.5766 2.55533 16.6228 2.59212C17.0053 2.89497 17.1182 3.44034 16.867 3.87542L14.9915 7.12388C14.7153 7.60217 14.1037 7.76605 13.6255 7.48991C13.1472 7.21376 12.9833 6.60217 13.2594 6.12388L14.1981 4.49806C7.83683 5.37591 2.93799 10.8344 2.93799 17.437C2.93799 20.8378 4.23632 23.9331 6.36611 26.2579C6.73918 26.6652 6.71149 27.2977 6.30426 27.6708C5.89703 28.0439 5.26447 28.0162 4.8914 27.6089C2.43702 24.9298 0.937988 21.3573 0.937988 17.437C0.937988 10.2016 6.03969 4.15771 12.8421 2.70638L12.2525 2.36595C11.7742 2.08981 11.6103 1.47822 11.8865 0.999923ZM21.7279 4.55121C21.9879 4.06394 22.5936 3.87968 23.0809 4.13965C27.8281 6.67239 31.0625 11.6762 31.0625 17.437C31.0625 21.1875 29.6905 24.6201 27.4222 27.2563C27.062 27.675 26.4306 27.7223 26.0119 27.3621C25.5933 27.0019 25.5459 26.3705 25.9061 25.9519C27.874 23.6648 29.0625 20.691 29.0625 17.437C29.0625 12.4437 26.2611 8.10319 22.1395 5.90421C21.6522 5.64424 21.4679 5.03848 21.7279 4.55121ZM24.9683 17.4292C24.9683 20.9627 22.9247 24.0189 19.9549 25.4804V28.0689C19.9549 28.6212 19.5072 29.0689 18.9549 29.0689H17.0005V22.7013L20.8259 18.8759C21.2164 18.4854 21.2164 17.8522 20.8259 17.4617C20.4354 17.0712 19.8022 17.0712 19.4117 17.4617L16.0003 20.8731L12.5888 17.4617C12.1983 17.0711 11.5651 17.0711 11.1746 17.4617C10.7841 17.8522 10.7841 18.4854 11.1746 18.8759L15.0005 22.7018V29.0689H13.0358C12.4835 29.0689 12.0358 28.6212 12.0358 28.0689V25.4756C9.07133 24.0122 7.03223 20.9588 7.03223 17.4292C7.03223 12.4763 11.0473 8.46118 16.0002 8.46118C20.9531 8.46118 24.9683 12.4763 24.9683 17.4292ZM11.0411 31.7592C11.0411 31.2069 11.4889 30.7592 12.0411 30.7592H19.9599C20.5122 30.7592 20.9599 31.2069 20.9599 31.7592C20.9599 32.3115 20.5122 32.7592 19.9599 32.7592H12.0411C11.4889 32.7592 11.0411 32.3115 11.0411 31.7592Z" fill="#111827"/>
</svg>
