<svg width="33" height="33" viewBox="0 0 33 33" fill="none" xmlns="http://www.w3.org/2000/svg">
<path fill-rule="evenodd" clip-rule="evenodd" d="M7.26758 5.28296C7.26758 4.73067 7.71529 4.28296 8.26758 4.28296H25.6522C26.2045 4.28296 26.6522 4.73067 26.6522 5.28296V14.3599H7.26758V5.28296ZM7.26758 16.3599H26.6522V23.5907C26.6522 24.1429 26.2045 24.5907 25.6522 24.5907H21.9023L24.2216 27.683C24.5529 28.1248 24.4634 28.7516 24.0216 29.083C23.5797 29.4144 22.9529 29.3248 22.6216 28.883L19.8523 25.1907C19.7173 25.0106 19.6521 24.7997 19.6523 24.5907H14.2678C14.268 24.7997 14.2029 25.0106 14.0678 25.1907L11.2985 28.883C10.9672 29.3248 10.3404 29.4144 9.89854 29.083C9.45671 28.7516 9.36716 28.1248 9.69854 27.683L12.0178 24.5907H8.26758C7.71529 24.5907 7.26758 24.1429 7.26758 23.5907V16.3599ZM11.8832 21.8215C12.6479 21.8215 13.2678 21.2016 13.2678 20.4369C13.2678 19.6722 12.6479 19.0522 11.8832 19.0522C11.1184 19.0522 10.4985 19.6722 10.4985 20.4369C10.4985 21.2016 11.1184 21.8215 11.8832 21.8215ZM23.4216 20.4369C23.4216 21.2016 22.8017 21.8215 22.037 21.8215C21.2723 21.8215 20.6523 21.2016 20.6523 20.4369C20.6523 19.6722 21.2723 19.0522 22.037 19.0522C22.8017 19.0522 23.4216 19.6722 23.4216 20.4369Z" fill="#1C1B1F"/>
</svg>
