<svg width="32" height="32" viewBox="0 0 32 32" fill="none" xmlns="http://www.w3.org/2000/svg">
<path fill-rule="evenodd" clip-rule="evenodd" d="M10.2306 1.73114C10.7829 1.73114 11.2306 2.17886 11.2306 2.73114V5.19255H14.8461H19.4613C20.0136 5.19255 20.4613 5.64026 20.4613 6.19255C20.4613 6.74483 20.0136 7.19255 19.4613 7.19255H15.8124C15.5789 10.6537 14.1389 13.9326 11.7323 16.4503C11.8349 16.5275 11.9388 16.6033 12.0439 16.6776C14.0475 18.0934 16.4109 18.9036 18.8531 19.0191L22.0286 12.6682C22.198 12.3294 22.5442 12.1154 22.923 12.1154C23.3018 12.1154 23.648 12.3294 23.8174 12.6682L31.894 28.8215C32.141 29.3154 31.9408 29.9161 31.4468 30.1631C30.9528 30.4101 30.3522 30.2099 30.1052 29.7159L28.0739 25.6533H17.7721L15.7408 29.7159C15.4938 30.2099 14.8931 30.4101 14.3991 30.1631C13.9052 29.9161 13.7049 29.3154 13.9519 28.8215L16.2428 24.2398C16.2529 24.2175 16.2638 24.1957 16.2755 24.1743L17.8877 20.9499C15.3768 20.6826 12.9661 19.7782 10.8897 18.311C10.6657 18.1527 10.4465 17.9885 10.2324 17.8187C7.62001 19.8932 4.36928 21.0382 1.00049 21.0382C0.448204 21.0382 0.000488281 20.5905 0.000488281 20.0382C0.000488281 19.4859 0.448204 19.0382 1.00049 19.0382C3.80588 19.0382 6.51667 18.1205 8.73149 16.4514C7.28541 14.9406 6.16704 13.1333 5.46146 11.1419C5.27701 10.6213 5.5495 10.0498 6.07008 9.86531C6.59065 9.68087 7.16218 9.95336 7.34663 10.4739C7.96613 12.2224 8.95336 13.8068 10.2314 15.1257C12.3155 12.9722 13.5753 10.164 13.8072 7.19255H1.00049C0.448204 7.19255 0.000488281 6.74483 0.000488281 6.19255C0.000488281 5.64026 0.448204 5.19255 1.00049 5.19255H9.23058V2.73114C9.23058 2.17886 9.6783 1.73114 10.2306 1.73114ZM27.0739 23.6533L22.923 15.3515L18.7721 23.6533H27.0739Z" fill="#111827"/>
</svg>
