<svg width="33" height="33" viewBox="0 0 33 33" fill="none" xmlns="http://www.w3.org/2000/svg">
<path fill-rule="evenodd" clip-rule="evenodd" d="M11.9604 3.7829C11.4082 3.7829 10.9604 4.23061 10.9604 4.7829V7.7829L5.95996 7.7829C5.40768 7.7829 4.95996 8.23062 4.95996 8.7829C4.95996 9.33519 5.40768 9.7829 5.95996 9.7829L7.96045 9.7829V27.7829C7.96045 28.3352 8.40816 28.7829 8.96045 28.7829H24.9604C25.5127 28.7829 25.9604 28.3352 25.9604 27.7829V9.7829H27.96C28.5122 9.7829 28.96 9.33518 28.96 8.7829C28.96 8.23061 28.5122 7.7829 27.96 7.7829L22.9604 7.7829V4.7829C22.9604 4.23061 22.5127 3.7829 21.9604 3.7829H11.9604ZM20.9604 7.7829V5.7829H12.9604V7.7829H20.9604ZM13.9604 13.7829C14.5127 13.7829 14.9604 14.2306 14.9604 14.7829V22.7829C14.9604 23.3352 14.5127 23.7829 13.9604 23.7829C13.4082 23.7829 12.9604 23.3352 12.9604 22.7829V14.7829C12.9604 14.2306 13.4082 13.7829 13.9604 13.7829ZM20.9604 14.7829C20.9604 14.2306 20.5127 13.7829 19.9604 13.7829C19.4082 13.7829 18.9604 14.2306 18.9604 14.7829V22.7829C18.9604 23.3352 19.4082 23.7829 19.9604 23.7829C20.5127 23.7829 20.9604 23.3352 20.9604 22.7829V14.7829Z" fill="#1C1B1F"/>
</svg>
