<svg width="32" height="32" viewBox="0 0 32 32" fill="none" xmlns="http://www.w3.org/2000/svg">
<path fill-rule="evenodd" clip-rule="evenodd" d="M8.54267 1.00012C8.54267 0.447837 8.99038 0.00012207 9.54267 0.00012207H22.4592C23.0115 0.00012207 23.4592 0.447837 23.4592 1.00012C23.4592 1.55241 23.0115 2.00012 22.4592 2.00012H9.54267C8.99038 2.00012 8.54267 1.55241 8.54267 1.00012ZM1.79199 5.16672L30.2084 5.16671C30.7607 5.16671 31.2084 5.61442 31.2084 6.16671C31.2084 6.71899 30.7607 7.16671 30.2084 7.16671L27.6255 7.16671V31.9998H4.37571V7.16672L1.79199 7.16672C1.23971 7.16672 0.791992 6.719 0.791992 6.16672C0.791992 5.61443 1.23971 5.16672 1.79199 5.16672Z" fill="#111827"/>
</svg>
