<svg width="32" height="32" viewBox="0 0 32 32" fill="none" xmlns="http://www.w3.org/2000/svg">
<path fill-rule="evenodd" clip-rule="evenodd" d="M9.54267 0.00012207C8.99038 0.00012207 8.54267 0.447837 8.54267 1.00012V5.16672L1.79199 5.16672C1.23971 5.16672 0.791992 5.61443 0.791992 6.16672C0.791992 6.719 1.23971 7.16672 1.79199 7.16672L4.37571 7.16671V30.9998C4.37571 31.5521 4.82343 31.9998 5.37571 31.9998H26.6255C27.1778 31.9998 27.6255 31.5521 27.6255 30.9998V7.16671H30.2084C30.7607 7.16671 31.2084 6.71899 31.2084 6.16671C31.2084 5.61442 30.7607 5.16671 30.2084 5.16671L23.4592 5.16671V1.00012C23.4592 0.447837 23.0115 0.00012207 22.4592 0.00012207H9.54267ZM21.4592 5.16671V2.00012H10.5427V5.16671L21.4592 5.16671ZM12.1254 12.9166C12.6777 12.9166 13.1254 13.3644 13.1254 13.9166V24.2499C13.1254 24.8022 12.6777 25.2499 12.1254 25.2499C11.5731 25.2499 11.1254 24.8022 11.1254 24.2499V13.9166C11.1254 13.3644 11.5731 12.9166 12.1254 12.9166ZM20.8756 13.9166C20.8756 13.3644 20.4279 12.9166 19.8756 12.9166C19.3233 12.9166 18.8756 13.3644 18.8756 13.9166V24.2499C18.8756 24.8022 19.3233 25.2499 19.8756 25.2499C20.4279 25.2499 20.8756 24.8022 20.8756 24.2499V13.9166Z" fill="#111827"/>
</svg>
