<svg width="33" height="33" viewBox="0 0 33 33" fill="none" xmlns="http://www.w3.org/2000/svg">
<path fill-rule="evenodd" clip-rule="evenodd" d="M10.9604 4.7829C10.9604 4.23061 11.4082 3.7829 11.9604 3.7829H21.9604C22.5127 3.7829 22.9604 4.23061 22.9604 4.7829C22.9604 5.33518 22.5127 5.7829 21.9604 5.7829H11.9604C11.4082 5.7829 10.9604 5.33518 10.9604 4.7829ZM5.95996 7.7829L27.96 7.7829C28.5122 7.7829 28.96 8.23061 28.96 8.7829C28.96 9.33518 28.5122 9.7829 27.96 9.7829L25.9604 9.7829V28.7829H7.96045V9.7829L5.95996 9.7829C5.40768 9.7829 4.95996 9.33519 4.95996 8.7829C4.95996 8.23062 5.40768 7.7829 5.95996 7.7829Z" fill="#1C1B1F"/>
</svg>
