<svg width="33" height="33" viewBox="0 0 33 33" fill="none" xmlns="http://www.w3.org/2000/svg">
<path fill-rule="evenodd" clip-rule="evenodd" d="M4.95996 3.2829C4.40768 3.2829 3.95996 3.73061 3.95996 4.2829V28.2829C3.95996 28.8352 4.40768 29.2829 4.95996 29.2829H28.96C29.5122 29.2829 29.96 28.8352 29.96 28.2829V4.2829C29.96 3.73061 29.5122 3.2829 28.96 3.2829H4.95996ZM5.95996 20.6116V27.2829H27.96V20.6114C27.9508 20.6116 27.9417 20.6117 27.9325 20.6117H23.8908C23.6255 20.6117 23.3712 20.7171 23.1837 20.9046L20.2367 23.8516C20.0492 24.0391 19.7948 24.1445 19.5296 24.1445H14.2332C13.968 24.1445 13.7136 24.0391 13.5261 23.8516L10.5791 20.9046C10.3916 20.7171 10.1372 20.6117 9.87201 20.6117H5.97656C5.97102 20.6117 5.96548 20.6117 5.95996 20.6116Z" fill="#1C1B1F"/>
</svg>
