<svg width="32" height="32" viewBox="0 0 32 32" fill="none" xmlns="http://www.w3.org/2000/svg">
<path fill-rule="evenodd" clip-rule="evenodd" d="M1.00098 0.00134277C0.448692 0.00134277 0.000976562 0.449058 0.000976562 1.00134V30.9987C0.000976562 31.551 0.448692 31.9987 1.00098 31.9987H30.9983C31.5506 31.9987 31.9983 31.551 31.9983 30.9987V1.00134C31.9983 0.449058 31.5506 0.00134277 30.9983 0.00134277H1.00098ZM2.00098 21.4104V29.9987H29.9983V21.41C29.9869 21.4104 29.9753 21.4106 29.9638 21.4106H24.5587C24.2934 21.4106 24.0391 21.5159 23.8516 21.7035L20.0218 25.5332C19.8343 25.7208 19.5799 25.8261 19.3147 25.8261H12.4878C12.2225 25.8261 11.9682 25.7208 11.7807 25.5332L7.95089 21.7035C7.76336 21.5159 7.509 21.4106 7.24379 21.4106H2.02151C2.01465 21.4106 2.00781 21.4105 2.00098 21.4104Z" fill="#111827"/>
</svg>
