<svg width="33" height="33" viewBox="0 0 33 33" fill="none" xmlns="http://www.w3.org/2000/svg">
<path fill-rule="evenodd" clip-rule="evenodd" d="M17.9602 19.5686V22.5783C19.1326 23.5902 20.66 24.2021 22.3303 24.2021C26.026 24.2021 29.022 21.2061 29.022 17.5104C29.022 14.2418 26.6786 11.5205 23.5801 10.9351C23.3054 7.49169 20.4239 4.78296 16.9098 4.78296C13.3888 4.78296 10.503 7.50223 10.2379 10.9552C7.19016 11.5804 4.89795 14.2777 4.89795 17.5104C4.89795 21.2061 7.89396 24.2021 11.5897 24.2021C13.2601 24.2021 14.7875 23.5901 15.96 22.5781V28.7828C15.96 29.3351 16.4077 29.7828 16.96 29.7828C17.5122 29.7828 17.96 29.3351 17.96 28.7828V22.5657H15.9602V20.1693L10.9739 17.6762C10.4799 17.4292 10.2797 16.8285 10.5267 16.3345C10.7737 15.8405 11.3744 15.6403 11.8683 15.8873L15.9602 17.9332V16.8036C15.9599 16.7897 15.9599 16.7757 15.9602 16.7618V12.166C15.9602 11.6137 16.4079 11.166 16.9602 11.166C17.5125 11.166 17.9602 11.6137 17.9602 12.166V15.1639L22.0519 13.118C22.5459 12.871 23.1466 13.0713 23.3936 13.5652C23.6406 14.0592 23.4404 14.6599 22.9464 14.9069L17.9602 17.4V19.5354C17.9604 19.5465 17.9604 19.5575 17.9602 19.5686Z" fill="#1C1B1F"/>
</svg>
