<svg width="32" height="33" viewBox="0 0 32 33" fill="none" xmlns="http://www.w3.org/2000/svg">
<path fill-rule="evenodd" clip-rule="evenodd" d="M16.9999 16.616V23.2213C18.5483 24.6852 20.6378 25.5829 22.9369 25.5829C27.7106 25.5829 31.5804 21.713 31.5804 16.9394C31.5804 12.7172 28.5531 9.20215 24.5507 8.44626C24.1957 3.99863 20.4739 0.5 15.935 0.5C11.3871 0.5 7.65964 4.01232 7.31712 8.47235C3.38058 9.28 0.419922 12.7639 0.419922 16.9394C0.419922 21.713 4.28975 25.5829 9.06343 25.5829C11.3623 25.5829 13.4515 24.6854 14.9999 23.2218V20.1936L8.39734 16.8923C7.90336 16.6453 7.70314 16.0447 7.95013 15.5507C8.19712 15.0567 8.79779 14.8565 9.29177 15.1035L14.9999 17.9575V16.0197C14.9996 16.0057 14.9996 15.9918 14.9999 15.9779V10.0358C14.9999 9.48352 15.4476 9.03581 15.9999 9.03581C16.5521 9.03581 16.9999 9.48352 16.9999 10.0358V14.38L22.7071 11.5263C23.2011 11.2793 23.8018 11.4795 24.0488 11.9735C24.2958 12.4675 24.0955 13.0682 23.6016 13.3152L16.9999 16.616ZM16.9999 31.4997L16.9999 23.4692H14.9999V31.4997C14.9999 32.052 15.4476 32.4997 15.9999 32.4997C16.5522 32.4997 16.9999 32.052 16.9999 31.4997Z" fill="#111827"/>
</svg>
