<svg width="32" height="33" viewBox="0 0 32 33" fill="none" xmlns="http://www.w3.org/2000/svg">
<path fill-rule="evenodd" clip-rule="evenodd" d="M15.5759 0.736467C15.7717 0.423131 16.2281 0.423131 16.4239 0.736467L24.657 13.9095C24.8652 14.2425 24.6257 14.6745 24.233 14.6745H19.9513L26.8727 23.9623C27.1185 24.2921 26.8831 24.7611 26.4718 24.7611H16.9998C16.9998 24.7611 16.9998 24.7612 16.9998 24.7613V31.4985C16.9998 32.0508 16.552 32.4985 15.9998 32.4985C15.4475 32.4985 14.9998 32.0508 14.9998 31.4985V24.7613C14.9998 24.7612 14.9998 24.7611 14.9998 24.7611H5.52825C5.11693 24.7611 4.88155 24.2921 5.12733 23.9623L12.0487 14.6745H7.7668C7.37409 14.6745 7.13466 14.2425 7.3428 13.9095L15.5759 0.736467Z" fill="#111827"/>
</svg>
