<svg width="32" height="33" viewBox="0 0 32 33" fill="none" xmlns="http://www.w3.org/2000/svg">
<path fill-rule="evenodd" clip-rule="evenodd" d="M21.7599 2.91992C21.7599 2.64378 21.9838 2.41992 22.2599 2.41992H31.5C31.7761 2.41992 32 2.64378 32 2.91992V12.16C32 12.4361 31.7761 12.66 31.5 12.66H22.2599C21.9838 12.66 21.7599 12.4361 21.7599 12.16V8.4929H16.8974V24.452H21.7599V20.84C21.7599 20.5638 21.9838 20.34 22.2599 20.34H31.5C31.7761 20.34 32 20.5638 32 20.84V30.0801C32 30.3562 31.7761 30.5801 31.5 30.5801H22.2599C21.9838 30.5801 21.7599 30.3562 21.7599 30.08V26.452H15.8974C15.3451 26.452 14.8974 26.0043 14.8974 25.452V17.5001L8.96006 17.4996V20.4803C8.96006 20.7565 8.73621 20.9803 8.46006 20.9803H0.500001C0.223858 20.9803 0 20.7565 0 20.4803V12.5203C0 12.2441 0.223858 12.0203 0.5 12.0203H8.46006C8.73621 12.0203 8.96006 12.2441 8.96006 12.5203V15.4996L14.8974 15.5001V7.4929C14.8974 6.94062 15.3451 6.4929 15.8974 6.4929H21.7599V2.91992Z" fill="#111827"/>
</svg>
