<svg width="33" height="33" viewBox="0 0 33 33" fill="none" xmlns="http://www.w3.org/2000/svg">
<path fill-rule="evenodd" clip-rule="evenodd" d="M21.2798 6.2229C21.2798 5.94676 21.5036 5.7229 21.7798 5.7229H28.4598C28.7359 5.7229 28.9598 5.94676 28.9598 6.2229V12.9029C28.9598 13.179 28.7359 13.4029 28.4598 13.4029H21.7798C21.5036 13.4029 21.2798 13.179 21.2798 12.9029V10.5275H17.8828V21.9967H21.2798V19.663C21.2798 19.3868 21.5036 19.163 21.7798 19.163H28.4598C28.7359 19.163 28.9598 19.3868 28.9598 19.663V26.343C28.9598 26.6191 28.7359 26.843 28.4598 26.843H21.7798C21.5036 26.843 21.2798 26.6191 21.2798 26.343V23.9967H16.8828C16.3305 23.9967 15.8828 23.549 15.8828 22.9967V17.283L11.68 17.2826V19.143C11.68 19.4191 11.4561 19.643 11.18 19.643H5.45996C5.18382 19.643 4.95996 19.4191 4.95996 19.143V13.423C4.95996 13.1468 5.18382 12.923 5.45996 12.923H11.18C11.4561 12.923 11.68 13.1468 11.68 13.423V15.2826L15.8828 15.283V9.52749C15.8828 8.9752 16.3305 8.52749 16.8828 8.52749H21.2798V6.2229Z" fill="#1C1B1F"/>
</svg>
