<svg width="33" height="33" viewBox="0 0 33 33" fill="none" xmlns="http://www.w3.org/2000/svg">
<path fill-rule="evenodd" clip-rule="evenodd" d="M29.1982 10.2972C29.6355 10.4041 29.9599 10.7985 29.9599 11.2686V17.4039C29.9599 17.9561 29.5122 18.4039 28.9599 18.4039C28.4076 18.4039 27.9599 17.9561 27.9599 17.4039V14.1607L21.9059 21.9148C21.7386 22.1291 21.4913 22.266 21.2209 22.2941C20.9505 22.3221 20.6803 22.2389 20.4726 22.0635L12.8835 15.6564L5.62074 22.05C5.2062 22.4149 4.57431 22.3747 4.20938 21.9602C3.84445 21.5456 3.88467 20.9138 4.29921 20.5488L12.2091 13.5855C12.581 13.2582 13.1364 13.2524 13.515 13.572L20.9689 19.8651L26.8997 12.2686H22.8247C22.2724 12.2686 21.8247 11.8209 21.8247 11.2686C21.8247 10.7164 22.2724 10.2686 22.8247 10.2686H28.8839C28.9888 10.2616 29.0949 10.2709 29.1982 10.2972Z" fill="#1C1B1F"/>
</svg>
