<svg width="32" height="32" viewBox="0 0 32 32" fill="none" xmlns="http://www.w3.org/2000/svg">
<path fill-rule="evenodd" clip-rule="evenodd" d="M30.9123 23.2674C31.0226 23.2759 31.1345 23.2661 31.243 23.2375C31.6774 23.1286 31.9991 22.7356 31.9991 22.2674V14.5989C31.9991 14.0466 31.5514 13.5989 30.9991 13.5989C30.4469 13.5989 29.9991 14.0466 29.9991 14.5989V19.3788L21.9852 9.11435C21.818 8.90008 21.5706 8.76314 21.3002 8.73509C21.0298 8.70703 20.7597 8.79028 20.5519 8.96565L10.9015 17.1131L1.66175 8.97916C1.24721 8.61423 0.615327 8.65444 0.250397 9.06898C-0.114534 9.48352 -0.0743171 10.1154 0.340224 10.4803L10.227 19.184C10.5989 19.5113 11.1544 19.5171 11.5329 19.1975L21.0482 11.1641L28.9363 21.2674H23.3306C22.7783 21.2674 22.3306 21.7152 22.3306 22.2674C22.3306 22.8197 22.7783 23.2674 23.3306 23.2674H30.9123Z" fill="#111827"/>
</svg>
