<svg width="32" height="32" viewBox="0 0 32 32" fill="none" xmlns="http://www.w3.org/2000/svg">
<path fill-rule="evenodd" clip-rule="evenodd" d="M31.2333 8.76008C31.6726 8.86547 31.9991 9.26086 31.9991 9.73252V17.4011C31.9991 17.9534 31.5514 18.4011 30.9991 18.4011C30.4469 18.4011 29.9991 17.9534 29.9991 17.4011V12.6213L21.9852 22.8857C21.818 23.1 21.5706 23.2369 21.3002 23.265C21.0298 23.2931 20.7597 23.2098 20.5519 23.0344L10.9015 14.887L1.66175 23.0209C1.24721 23.3859 0.615327 23.3456 0.250397 22.9311C-0.114534 22.5166 -0.0743171 21.8847 0.340224 21.5197L10.227 12.8161C10.5989 12.4888 11.1544 12.483 11.5329 12.8026L21.0482 20.836L28.9364 10.7325L23.3306 10.7325C22.7783 10.7325 22.3306 10.2848 22.3306 9.73252C22.3306 9.18023 22.7783 8.73252 23.3306 8.73252H30.9139C31.0204 8.72458 31.1283 8.73359 31.2333 8.76008Z" fill="#111827"/>
</svg>
