<svg width="33" height="33" viewBox="0 0 33 33" fill="none" xmlns="http://www.w3.org/2000/svg">
<path fill-rule="evenodd" clip-rule="evenodd" d="M28.8839 22.2973C28.9888 22.3043 29.0949 22.295 29.1982 22.2687C29.6355 22.1618 29.9599 21.7674 29.9599 21.2973V15.1621C29.9599 14.6098 29.5122 14.1621 28.9599 14.1621C28.4076 14.1621 27.9599 14.6098 27.9599 15.1621V18.4053L21.9059 10.6511C21.7386 10.4368 21.4913 10.2999 21.2209 10.2718C20.9505 10.2438 20.6803 10.327 20.4726 10.5024L12.8835 16.9095L5.62074 10.5159C5.2062 10.151 4.57431 10.1912 4.20938 10.6057C3.84445 11.0203 3.88467 11.6522 4.29921 12.0171L12.2091 18.9804C12.581 19.3077 13.1364 19.3135 13.515 18.9939L20.9689 12.7009L26.8997 20.2973H22.8247C22.2724 20.2973 21.8247 20.745 21.8247 21.2973C21.8247 21.8496 22.2724 22.2973 22.8247 22.2973H28.8839Z" fill="#1C1B1F"/>
</svg>
