<svg width="32" height="32" viewBox="0 0 32 32" fill="none" xmlns="http://www.w3.org/2000/svg">
<path fill-rule="evenodd" clip-rule="evenodd" d="M0.000976562 5.82214C0.000976562 5.26986 0.448692 4.82214 1.00098 4.82214H22.428C22.9802 4.82214 23.428 5.26986 23.428 5.82214V6.96484H28.8563C29.2642 6.96484 29.6312 7.21258 29.7837 7.59088L31.9264 12.9048C31.9744 13.0237 31.999 13.1506 31.999 13.2788V22.9637C31.999 23.516 31.5513 23.9637 30.999 23.9637H28.129C27.68 25.8083 26.0171 27.1777 24.0343 27.1777C22.0516 27.1777 20.3886 25.8083 19.9397 23.9637H12.0592C11.6102 25.8083 9.9473 27.1777 7.96453 27.1777C5.98176 27.1777 4.31882 25.8083 3.86986 23.9637H1.00098C0.448692 23.9637 0.000976562 23.516 0.000976562 22.9637V5.82214ZM21.8215 23.0379C21.8607 24.2263 22.8364 25.1777 24.0343 25.1777C25.2571 25.1777 26.2484 24.1864 26.2484 22.9636C26.2484 21.7409 25.2571 20.7496 24.0343 20.7496C23.3146 20.7496 22.6751 21.093 22.2707 21.6249C22.0267 21.9672 21.8242 22.4228 21.8242 22.9637C21.8242 22.9887 21.8233 23.0134 21.8215 23.0379ZM28.1813 8.96484L29.9207 13.2786L23.4282 13.2786V8.96484H28.1813ZM21.428 6.82214V16.6137H2.00098V6.82214H21.428ZM7.96453 20.7496C6.74174 20.7496 5.75048 21.7409 5.75048 22.9636C5.75048 24.1864 6.74174 25.1777 7.96453 25.1777C9.18731 25.1777 10.1786 24.1864 10.1786 22.9636C10.1786 21.7409 9.18731 20.7496 7.96453 20.7496Z" fill="#111827"/>
</svg>
