<svg width="33" height="33" viewBox="0 0 33 33" fill="none" xmlns="http://www.w3.org/2000/svg">
<path fill-rule="evenodd" clip-rule="evenodd" d="M16.9978 10.7512C18.7552 10.7512 20.1798 9.32657 20.1798 7.56921C20.1798 7.5567 20.1797 7.54421 20.1796 7.53174H23.172C22.3552 13.8251 22.6306 17.6021 23.069 23.614C23.1026 24.0735 23.137 24.5461 23.172 25.0338H10.7485C10.766 24.8412 10.7833 24.6509 10.8004 24.463C11.3836 18.049 11.7261 14.2816 10.7485 7.53174H13.816C13.8159 7.54421 13.8158 7.5567 13.8158 7.56921C13.8158 9.32657 15.2404 10.7512 16.9978 10.7512Z" fill="#1C1B1F"/>
<path d="M20.1796 7.53174V6.53174C19.9123 6.53174 19.6562 6.63869 19.4684 6.82873C19.2805 7.01876 19.1765 7.27608 19.1796 7.54328L20.1796 7.53174ZM23.172 7.53174L24.1637 7.66045C24.2007 7.37519 24.1131 7.0878 23.9232 6.8717C23.7334 6.65561 23.4597 6.53174 23.172 6.53174V7.53174ZM23.069 23.614L24.0664 23.5413L23.069 23.614ZM23.172 25.0338V26.0338C23.4497 26.0338 23.7148 25.9184 23.904 25.7151C24.0932 25.5119 24.1893 25.2392 24.1694 24.9622L23.172 25.0338ZM10.7485 25.0338L9.75262 24.9435C9.72724 25.2232 9.82072 25.5008 10.0102 25.7082C10.1996 25.9156 10.4676 26.0338 10.7485 26.0338V25.0338ZM10.8004 24.463L9.80451 24.3724L10.8004 24.463ZM10.7485 7.53174V6.53174C10.4583 6.53174 10.1824 6.65783 9.99245 6.87727C9.8025 7.09671 9.71726 7.38784 9.75886 7.67507L10.7485 7.53174ZM13.816 7.53174L14.816 7.54328C14.819 7.27608 14.7151 7.01876 14.5272 6.82873C14.3393 6.63869 14.0832 6.53174 13.816 6.53174V7.53174ZM19.1798 7.56921C19.1798 8.77428 18.2029 9.75119 16.9978 9.75119V11.7512C19.3074 11.7512 21.1798 9.87885 21.1798 7.56921H19.1798ZM19.1796 7.54328C19.1797 7.55192 19.1798 7.56056 19.1798 7.56921H21.1798C21.1798 7.55284 21.1797 7.5365 21.1795 7.52019L19.1796 7.54328ZM20.1796 8.53174H23.172V6.53174H20.1796V8.53174ZM22.1803 7.40303C21.3497 13.8032 21.6326 17.6658 22.0717 23.6867L24.0664 23.5413C23.6287 17.5384 23.3608 13.847 24.1637 7.66045L22.1803 7.40303ZM22.0717 23.6867C22.1052 24.1463 22.1396 24.6183 22.1746 25.1054L24.1694 24.9622C24.1344 24.4738 24.0999 24.0007 24.0664 23.5413L22.0717 23.6867ZM23.172 24.0338H10.7485V26.0338H23.172V24.0338ZM11.7444 25.1242C11.7619 24.9316 11.7792 24.7415 11.7963 24.5535L9.80451 24.3724C9.78742 24.5604 9.77011 24.7507 9.75262 24.9435L11.7444 25.1242ZM11.7963 24.5535C12.3808 18.1253 12.7335 14.2604 11.7382 7.3884L9.75886 7.67507C10.7188 14.3028 10.3864 17.9727 9.80451 24.3724L11.7963 24.5535ZM10.7485 8.53174H13.816V6.53174H10.7485V8.53174ZM14.8158 7.56921C14.8158 7.56054 14.8159 7.5519 14.816 7.54328L12.8161 7.52019C12.8159 7.53652 12.8158 7.55286 12.8158 7.56921H14.8158ZM16.9978 9.75119C15.7927 9.75119 14.8158 8.77428 14.8158 7.56921H12.8158C12.8158 9.87885 14.6881 11.7512 16.9978 11.7512V9.75119Z" fill="#1C1B1F"/>
<path d="M4.96021 10.4519L10.7485 7.53174C11.2061 10.9307 11.3225 12.7919 11.2616 16.0266H7.88039L4.96021 10.4519Z" fill="#1C1B1F" stroke="#1C1B1F" stroke-width="2" stroke-linejoin="round"/>
<path d="M28.9602 10.4519L23.1719 7.53174C22.7737 11.075 22.6077 12.9959 22.7902 16.0266H26.04L28.9602 10.4519Z" fill="#1C1B1F" stroke="#1C1B1F" stroke-width="2" stroke-linejoin="round"/>
</svg>
