<svg width="32" height="32" viewBox="0 0 32 32" fill="none" xmlns="http://www.w3.org/2000/svg">
<path fill-rule="evenodd" clip-rule="evenodd" d="M0.471087 9.12484C0.212038 8.63031 0.408058 8.01945 0.906488 7.768L7.71768 4.33179C7.7433 4.52212 7.76988 4.70883 7.79729 4.89221C7.77152 4.7071 7.74499 4.52032 7.71768 4.33179H11.8078L11.8075 4.38173C11.8075 6.72488 13.707 8.62437 16.0502 8.62437C18.3933 8.62437 20.2928 6.72488 20.2928 4.38173L20.2925 4.33179H24.2821H24.2823C24.2823 4.33181 24.2823 4.33184 24.2823 4.33187L31.0933 7.768C31.5918 8.01945 31.7878 8.63031 31.5287 9.12484L28.3871 15.1222C28.2145 15.4517 27.8733 15.6582 27.5013 15.6582H23.5915C23.6372 18.8107 23.8664 21.9543 24.145 25.7748L24.2047 26.5942C24.2468 27.1732 23.7885 27.6679 23.208 27.6679H8.8125C8.22455 27.6679 7.76375 27.1608 7.81697 26.5753C8.19627 22.4017 8.49296 19.0629 8.53433 15.6582H4.49855C4.12657 15.6582 3.78533 15.4517 3.61272 15.1222L0.471087 9.12484ZM24.281 4.34198C24.2461 4.65218 24.2081 4.95306 24.1678 5.24564C24.2037 4.94866 24.2414 4.64754 24.281 4.34198Z" fill="#111827"/>
</svg>
