<svg width="32" height="33" viewBox="0 0 32 33" fill="none" xmlns="http://www.w3.org/2000/svg">
<path fill-rule="evenodd" clip-rule="evenodd" d="M0.471087 9.62484C0.212038 9.13031 0.408058 8.51945 0.906488 8.268L7.71768 4.83179C7.7433 5.02212 7.76988 5.20883 7.79729 5.39221C7.77152 5.2071 7.74499 5.02032 7.71768 4.83179H11.8078L11.8075 4.88173C11.8075 7.22488 13.707 9.12437 16.0502 9.12437C18.3933 9.12437 20.2928 7.22488 20.2928 4.88173L20.2925 4.83179H24.2821H24.2823C24.2823 4.83181 24.2823 4.83184 24.2823 4.83187L31.0933 8.268C31.5918 8.51945 31.7878 9.13031 31.5287 9.62484L28.3871 15.6222C28.2145 15.9517 27.8733 16.1582 27.5013 16.1582H23.5915C23.6372 19.3107 23.8664 22.4543 24.145 26.2748L24.2047 27.0942C24.2468 27.6732 23.7885 28.1679 23.208 28.1679H8.8125C8.22455 28.1679 7.76375 27.6608 7.81697 27.0753C8.19627 22.9017 8.49296 19.5629 8.53433 16.1582H4.49855C4.12657 16.1582 3.78533 15.9517 3.61272 15.6222L0.471087 9.62484ZM24.281 4.84198C24.2461 5.15218 24.2081 5.45306 24.1678 5.74564C24.2037 5.44866 24.2414 5.14754 24.281 4.84198Z" fill="#111827"/>
</svg>
