<svg width="32" height="32" viewBox="0 0 32 32" fill="none" xmlns="http://www.w3.org/2000/svg">
<path fill-rule="evenodd" clip-rule="evenodd" d="M16 32C24.8366 32 32 24.8366 32 16C32 7.16344 24.8366 0 16 0C7.16344 0 0 7.16344 0 16C0 24.8366 7.16344 32 16 32ZM11.1998 14.9331C13.2617 14.9331 14.9331 13.2617 14.9331 11.1998C14.9331 9.138 13.2617 7.46655 11.1998 7.46655C9.138 7.46655 7.46655 9.138 7.46655 11.1998C7.46655 13.2617 9.138 14.9331 11.1998 14.9331ZM20.7994 14.9331C22.8613 14.9331 24.5327 13.2617 24.5327 11.1998C24.5327 9.138 22.8613 7.46655 20.7994 7.46655C18.7376 7.46655 17.0662 9.138 17.0662 11.1998C17.0662 13.2617 18.7376 14.9331 20.7994 14.9331ZM14.9329 20.7997C14.9329 22.8615 13.2614 24.533 11.1996 24.533C9.13775 24.533 7.46631 22.8615 7.46631 20.7997C7.46631 18.7379 9.13775 17.0664 11.1996 17.0664C13.2614 17.0664 14.9329 18.7379 14.9329 20.7997ZM20.7994 24.533C22.8613 24.533 24.5327 22.8615 24.5327 20.7997C24.5327 18.7379 22.8613 17.0664 20.7994 17.0664C18.7376 17.0664 17.0662 18.7379 17.0662 20.7997C17.0662 22.8615 18.7376 24.533 20.7994 24.533Z" fill="#111827"/>
</svg>
