<svg width="33" height="33" viewBox="0 0 33 33" fill="none" xmlns="http://www.w3.org/2000/svg">
<path d="M15.6906 10.7378C15.6907 9.64892 16.0657 8.59329 16.7525 7.74837C17.4394 6.90345 18.3962 6.32077 19.462 6.09829C20.5279 5.87581 21.6379 6.0271 22.6054 6.52672C23.5729 7.02634 24.3389 7.84383 24.7745 8.84174L28.9602 8.84179L25.1378 12.6642C24.8889 16.5088 23.1862 20.1146 20.3753 22.7494C17.5645 25.3842 13.8563 26.8505 10.0036 26.8506C6.21228 26.8506 5.26445 25.4288 5.26445 25.4288C5.26445 25.4288 9.05577 24.0071 10.9514 21.1636C10.9514 21.1636 3.36879 17.3723 5.26445 6.94613C5.26445 6.94613 10.0036 11.6853 15.6889 12.6331L15.6906 10.7378Z" fill="#1C1B1F" stroke="#1C1B1F" stroke-width="2" stroke-linecap="round" stroke-linejoin="round"/>
</svg>
