<svg width="33" height="33" viewBox="0 0 33 33" fill="none" xmlns="http://www.w3.org/2000/svg">
<path fill-rule="evenodd" clip-rule="evenodd" d="M27.1641 4.28296H6.75635C6.48021 4.28296 6.25635 4.50682 6.25635 4.78296V22.695C6.25635 22.9711 6.48021 23.195 6.75635 23.195H9.98023C10.2564 23.195 10.4802 23.4188 10.4802 23.695V27.1862C10.4802 27.6149 10.9845 27.8448 11.3082 27.5636L16.1952 23.3175C16.2861 23.2385 16.4026 23.195 16.5231 23.195H21.7123C21.8359 23.195 21.955 23.1492 22.0468 23.0666L27.4986 18.1599C27.604 18.0651 27.6641 17.93 27.6641 17.7883V4.78296C27.6641 4.50682 27.4403 4.28296 27.1641 4.28296ZM21.7949 8.99792C22.3472 8.99792 22.7949 9.44564 22.7949 9.99792V15.7995C22.7949 16.3518 22.3472 16.7995 21.7949 16.7995C21.2426 16.7995 20.7949 16.3518 20.7949 15.7995V9.99792C20.7949 9.44564 21.2426 8.99792 21.7949 8.99792ZM16.9934 9.99792C16.9934 9.44564 16.5457 8.99792 15.9934 8.99792C15.4411 8.99792 14.9934 9.44564 14.9934 9.99792V15.7995C14.9934 16.3518 15.4411 16.7995 15.9934 16.7995C16.5457 16.7995 16.9934 16.3518 16.9934 15.7995V9.99792Z" fill="#1C1B1F"/>
</svg>
