<svg width="33" height="33" viewBox="0 0 33 33" fill="none" xmlns="http://www.w3.org/2000/svg">
<path fill-rule="evenodd" clip-rule="evenodd" d="M27.1641 4.42444H6.75635C6.48021 4.42444 6.25635 4.6483 6.25635 4.92444V22.8364C6.25635 23.1126 6.48021 23.3364 6.75635 23.3364H9.98023C10.2564 23.3364 10.4802 23.5603 10.4802 23.8364V27.3276C10.4802 27.7564 10.9845 27.9863 11.3082 27.7051L16.1952 23.459C16.2861 23.38 16.4026 23.3364 16.5231 23.3364H21.7123C21.8359 23.3364 21.955 23.2907 22.0468 23.2081L27.4986 18.3014C27.604 18.2066 27.6641 18.0715 27.6641 17.9298V4.92444C27.6641 4.6483 27.4403 4.42444 27.1641 4.42444ZM21.7949 9.1394C22.3472 9.1394 22.7949 9.58712 22.7949 10.1394V15.941C22.7949 16.4933 22.3472 16.941 21.7949 16.941C21.2426 16.941 20.7949 16.4933 20.7949 15.941V10.1394C20.7949 9.58712 21.2426 9.1394 21.7949 9.1394ZM16.9934 10.1394C16.9934 9.58712 16.5457 9.1394 15.9934 9.1394C15.4411 9.1394 14.9934 9.58712 14.9934 10.1394V15.941C14.9934 16.4933 15.4411 16.941 15.9934 16.941C16.5457 16.941 16.9934 16.4933 16.9934 15.941V10.1394Z" fill="#1C1B1F"/>
</svg>
