<svg width="32" height="32" viewBox="0 0 32 32" fill="none" xmlns="http://www.w3.org/2000/svg">
<path fill-rule="evenodd" clip-rule="evenodd" d="M30.0358 0.00195312H1.96387C1.68772 0.00195312 1.46387 0.225811 1.46387 0.501953V25.1846C1.46387 25.4607 1.68772 25.6846 1.96387 25.6846H6.69992C6.97606 25.6846 7.19992 25.9084 7.19992 26.1846V31.4973C7.19992 31.9261 7.7042 32.156 8.02786 31.8747L15.0113 25.8071C15.1023 25.7281 15.2188 25.6846 15.3393 25.6846H22.5219C22.6454 25.6846 22.7646 25.6389 22.8564 25.5562L30.3703 18.7937C30.4756 18.6988 30.5358 18.5638 30.5358 18.422V0.501953C30.5358 0.225811 30.3119 0.00195312 30.0358 0.00195312ZM22.5653 6.76299C23.1176 6.76299 23.5653 7.2107 23.5653 7.76299V15.6416C23.5653 16.1938 23.1176 16.6416 22.5653 16.6416C22.013 16.6416 21.5653 16.1938 21.5653 15.6416V7.76299C21.5653 7.2107 22.013 6.76299 22.5653 6.76299ZM15.6867 7.76299C15.6867 7.2107 15.239 6.76299 14.6867 6.76299C14.1344 6.76299 13.6867 7.2107 13.6867 7.76299V15.6416C13.6867 16.1938 14.1344 16.6416 14.6867 16.6416C15.239 16.6416 15.6867 16.1938 15.6867 15.6416V7.76299Z" fill="#111827"/>
</svg>
