<svg width="33" height="33" viewBox="0 0 33 33" fill="none" xmlns="http://www.w3.org/2000/svg">
<path d="M15.6906 10.5963C15.6907 9.50744 16.0657 8.45181 16.7525 7.60689C17.4394 6.76197 18.3962 6.17929 19.462 5.95681C20.5279 5.73433 21.6379 5.88562 22.6054 6.38524C23.5729 6.88486 24.3389 7.70235 24.7745 8.70026L28.9602 8.70031L25.1378 12.5227C24.8889 16.3673 23.1862 19.9731 20.3753 22.6079C17.5645 25.2427 13.8563 26.709 10.0036 26.7091C6.21228 26.7091 5.26445 25.2873 5.26445 25.2873C5.26445 25.2873 9.05577 23.8656 10.9514 21.0221C10.9514 21.0221 3.36879 17.2308 5.26445 6.80465C5.26445 6.80465 10.0036 11.5438 15.6889 12.4916L15.6906 10.5963Z" fill="#1C1B1F" stroke="#1C1B1F" stroke-width="2" stroke-linecap="round" stroke-linejoin="round"/>
</svg>
