<svg width="32" height="32" viewBox="0 0 32 32" fill="none" xmlns="http://www.w3.org/2000/svg">
<path d="M14.3072 8.41784C14.3073 6.96602 14.8073 5.55851 15.7231 4.43195C16.6389 3.30539 17.9146 2.52849 19.3358 2.23185C20.757 1.93521 22.237 2.13692 23.527 2.80309C24.7781 3.4492 25.7765 4.49403 26.3655 5.77034C26.3988 5.84254 26.4705 5.88978 26.55 5.88978L31.5172 5.88983C31.6953 5.88983 31.7846 6.10526 31.6586 6.23125L26.9567 10.9331C26.9224 10.9675 26.9018 11.0132 26.8984 11.0617C26.5493 16.1596 24.2829 20.9374 20.5535 24.4333C16.8057 27.9464 11.8614 29.9014 6.72452 29.9015C2.6587 29.9015 1.04549 28.6752 0.569798 28.1953C0.479119 28.1038 0.519548 27.9619 0.638532 27.9126C1.63976 27.4972 5.62859 25.695 7.86041 22.5061C7.92939 22.4075 7.89976 22.2733 7.79516 22.2138C6.42219 21.4339 -1.74705 16.2248 0.338917 3.74474C0.365514 3.58562 0.562238 3.51488 0.680041 3.62511C1.95534 4.81842 7.51968 9.7194 14.0723 10.9045C14.1938 10.9265 14.3051 10.8326 14.3052 10.709L14.3072 8.41784Z" fill="#111827"/>
</svg>
