<svg width="32" height="33" viewBox="0 0 32 33" fill="none" xmlns="http://www.w3.org/2000/svg">
<path fill-rule="evenodd" clip-rule="evenodd" d="M0.000976562 17.1714C0.000976562 8.3354 7.16401 1.17236 16.0001 1.17236C24.8361 1.17236 31.9991 8.3354 31.9991 17.1714V18.0854C31.9991 18.6377 31.5514 19.0854 30.9991 19.0854H17.0128V27.3678C17.0128 28.7263 18.114 29.8276 19.4725 29.8276C20.831 29.8276 21.9323 28.7263 21.9323 27.3678V27.0534C21.9323 26.5011 22.38 26.0534 22.9323 26.0534C23.4845 26.0534 23.9323 26.5011 23.9323 27.0534V27.3678C23.9323 29.8309 21.9356 31.8276 19.4725 31.8276C17.0095 31.8276 15.0128 29.8309 15.0128 27.3678V19.0854H1.00098C0.448692 19.0854 0.000976562 18.6377 0.000976562 18.0854V17.1714ZM2.00124 17.0854H10.2296C10.5463 8.36843 14.9392 3.98332 15.8398 3.17326C8.21077 3.25884 2.0472 9.44695 2.00124 17.0854ZM29.9989 17.0854H21.7713C21.4545 8.36846 17.0617 3.98335 16.1611 3.17327C23.7897 3.25924 29.9529 9.4472 29.9989 17.0854Z" fill="#111827"/>
</svg>
