<svg width="33" height="33" viewBox="0 0 33 33" fill="none" xmlns="http://www.w3.org/2000/svg">
<path fill-rule="evenodd" clip-rule="evenodd" d="M3.95996 17.3203C3.95996 10.1406 9.78026 4.32031 16.96 4.32031C24.1397 4.32031 29.96 10.1406 29.96 17.3203V18.0515C29.96 18.6038 29.5122 19.0515 28.96 19.0515H17.9702V25.4778C17.9702 26.4542 18.7618 27.2458 19.7382 27.2458C20.7146 27.2458 21.5062 26.4542 21.5062 25.4778V25.2262C21.5062 24.674 21.9539 24.2262 22.5062 24.2262C23.0584 24.2262 23.5062 24.674 23.5062 25.2262V25.4778C23.5062 27.5588 21.8192 29.2458 19.7382 29.2458C17.6572 29.2458 15.9702 27.5588 15.9702 25.4778V19.0515H4.95996C4.40768 19.0515 3.95996 18.6038 3.95996 18.0515V17.3203ZM5.96318 17.0515H12.3512C12.639 10.7501 15.5924 7.328 16.6143 6.32564C10.7883 6.50547 6.10312 11.2156 5.96318 17.0515ZM27.9567 17.0515H21.5688C21.281 10.7501 18.3276 7.32801 17.3057 6.32564C23.1317 6.50552 27.8168 11.2156 27.9567 17.0515Z" fill="#1C1B1F"/>
</svg>
