<svg width="32" height="33" viewBox="0 0 32 33" fill="none" xmlns="http://www.w3.org/2000/svg">
<path fill-rule="evenodd" clip-rule="evenodd" d="M16 0.716309C7.16344 0.716309 0 7.87975 0 16.7163V17.5232C0 17.616 0.0752479 17.6913 0.16807 17.6913H15.0284C15.0187 17.7471 15.0137 17.8045 15.0137 17.8631V27.593C15.0137 30.1835 17.1137 32.2836 19.7043 32.2836C22.2949 32.2836 24.3949 30.1835 24.3949 27.593V27.2575C24.3949 26.7053 23.9472 26.2575 23.3949 26.2575C22.8426 26.2575 22.3949 26.7053 22.3949 27.2575V27.593C22.3949 29.079 21.1903 30.2836 19.7043 30.2836C18.2183 30.2836 17.0137 29.079 17.0137 27.593V17.8631C17.0137 17.8045 17.0086 17.7471 16.999 17.6913H31.8319C31.9248 17.6913 32 17.616 32 17.5232V16.7163C32 7.87975 24.8366 0.716309 16 0.716309Z" fill="#111827"/>
</svg>
