<svg width="33" height="33" viewBox="0 0 33 33" fill="none" xmlns="http://www.w3.org/2000/svg">
<path fill-rule="evenodd" clip-rule="evenodd" d="M16.96 5.32031C10.3325 5.32031 4.95996 10.6929 4.95996 17.3203V17.9255C4.95996 17.9951 5.0164 18.0515 5.08601 18.0515H15.9784C15.973 18.0937 15.9702 18.1368 15.9702 18.1804V25.4778C15.9702 27.5588 17.6572 29.2458 19.7382 29.2458C21.8192 29.2458 23.5062 27.5588 23.5062 25.4778V25.2262C23.5062 24.674 23.0584 24.2262 22.5062 24.2262C21.9539 24.2262 21.5062 24.674 21.5062 25.2262V25.4778C21.5062 26.4542 20.7146 27.2458 19.7382 27.2458C18.7618 27.2458 17.9702 26.4542 17.9702 25.4778V18.1804C17.9702 18.1368 17.9674 18.0937 17.962 18.0515H28.8339C28.9035 18.0515 28.96 17.9951 28.96 17.9255V17.3203C28.96 10.6929 23.5874 5.32031 16.96 5.32031Z" fill="#1C1B1F"/>
</svg>
