<svg width="32" height="33" viewBox="0 0 32 33" fill="none" xmlns="http://www.w3.org/2000/svg">
<path fill-rule="evenodd" clip-rule="evenodd" d="M16.0002 4.95935C16.151 4.95935 16.2939 4.9927 16.4221 5.05241C16.507 5.09189 16.5875 5.14393 16.6608 5.20853C16.6783 5.22399 16.6954 5.24006 16.7118 5.2567L21.5676 10.1125C21.9581 10.503 21.9581 11.1362 21.5676 11.5267C21.1771 11.9173 20.5439 11.9173 20.1534 11.5267L17.0002 8.37359V19.7062C17.0002 20.2584 16.5525 20.7062 16.0002 20.7062C15.448 20.7062 15.0002 20.2584 15.0002 19.7062V8.37363L11.8471 11.5267C11.4566 11.9173 10.8235 11.9173 10.4329 11.5267C10.0424 11.1362 10.0424 10.503 10.4329 10.1125L15.2866 5.2589C15.3119 5.23312 15.3385 5.2087 15.3665 5.18577C15.4268 5.13627 15.4915 5.09489 15.5592 5.06163C15.6922 4.99614 15.8419 4.95935 16.0002 4.95935ZM6.00098 21.9976C6.00098 21.4453 5.55326 20.9976 5.00098 20.9976C4.44869 20.9976 4.00098 21.4453 4.00098 21.9976V27.0405C4.00098 27.5928 4.44869 28.0405 5.00098 28.0405H26.9991C27.5514 28.0405 27.9991 27.5928 27.9991 27.0405V21.9976C27.9991 21.4453 27.5514 20.9976 26.9991 20.9976C26.4468 20.9976 25.9991 21.4453 25.9991 21.9976V26.0405H6.00098V21.9976Z" fill="#111827"/>
</svg>
