<svg width="32" height="33" viewBox="0 0 32 33" fill="none" xmlns="http://www.w3.org/2000/svg">
<path fill-rule="evenodd" clip-rule="evenodd" d="M9.80241 7.85011C10.19 8.2435 10.8185 8.2435 11.2062 7.85011L15.0518 3.9473V17.4324C15.0518 17.9846 15.4995 18.4324 16.0518 18.4324C16.6041 18.4324 17.0518 17.9846 17.0518 17.4324L17.0518 3.94655L20.8982 7.85011C21.2859 8.2435 21.9144 8.2435 22.302 7.85011C22.6896 7.45671 22.6896 6.8189 22.302 6.4255L16.7541 0.795167C16.3712 0.406634 15.7535 0.401834 15.3648 0.780767C15.3492 0.795537 15.334 0.810805 15.3194 0.826545L9.80241 6.4255C9.41478 6.8189 9.41478 7.45671 9.80241 7.85011ZM31.6919 31.4998V21.5441C31.6919 20.9918 31.2441 20.5441 30.6919 20.5441H23.8459H1.30811C0.755821 20.5441 0.308105 20.9918 0.308105 21.5441V31.4998C0.308105 32.0521 0.755821 32.4998 1.30811 32.4998H30.6919C31.2441 32.4998 31.6919 32.0521 31.6919 31.4998ZM25.0532 28.3154C26.0532 28.3154 26.8638 27.5125 26.8638 26.522C26.8638 25.5316 26.0532 24.7287 25.0532 24.7287C24.0533 24.7287 23.2426 25.5316 23.2426 26.522C23.2426 27.5125 24.0533 28.3154 25.0532 28.3154Z" fill="#111827"/>
</svg>
