<svg width="33" height="33" viewBox="0 0 33 33" fill="none" xmlns="http://www.w3.org/2000/svg">
<path fill-rule="evenodd" clip-rule="evenodd" d="M16.96 6.58179C17.1183 6.58179 17.268 6.61857 17.401 6.68406L15.96 9.996V7.58179C15.96 7.30578 16.0718 7.05589 16.2526 6.87495L16.2594 6.8682C16.348 6.78119 16.4488 6.71401 16.5562 6.66665C16.6797 6.61209 16.8163 6.58179 16.96 6.58179ZM15.96 9.996L16.9599 8.99604L17.96 9.99607V19.5818C17.96 20.1341 17.5122 20.5818 16.96 20.5818C16.4077 20.5818 15.96 20.1341 15.96 19.5818V9.996ZM17.5862 6.80214C17.6171 6.82696 17.6464 6.85356 17.6741 6.88181L17.667 6.87472C17.6411 6.84881 17.6141 6.82462 17.5862 6.80214ZM8.3584 21.582C8.3584 21.0297 7.91068 20.582 7.3584 20.582C6.80611 20.582 6.3584 21.0297 6.3584 21.582V25.9842C6.3584 26.5364 6.80611 26.9842 7.3584 26.9842H26.5612C27.1135 26.9842 27.5612 26.5364 27.5612 25.9842V21.582C27.5612 21.0297 27.1135 20.582 26.5612 20.582C26.009 20.582 25.5612 21.0297 25.5612 21.582V24.9842H8.3584V21.582Z" fill="#1C1B1F"/>
</svg>
