<svg width="33" height="33" viewBox="0 0 33 33" fill="none" xmlns="http://www.w3.org/2000/svg">
<path fill-rule="evenodd" clip-rule="evenodd" d="M12.0554 8.98479C12.443 9.37818 13.0715 9.37818 13.4591 8.98479L15.9999 6.40624V16.145C15.9999 16.6973 16.4476 17.145 16.9999 17.145C17.5522 17.145 17.9999 16.6973 17.9999 16.145V6.40631L20.5407 8.98479C20.9283 9.37819 21.5568 9.37818 21.9444 8.98479C22.332 8.5914 22.332 7.95358 21.9444 7.56019L17.7242 3.27724C17.7163 3.26895 17.7082 3.26078 17.7 3.25276C17.3123 2.86113 16.6851 2.86171 16.298 3.25452L16.2973 3.25521C16.2908 3.26167 16.2843 3.26821 16.278 3.27485L12.0554 7.56019C11.6677 7.95358 11.6677 8.5914 12.0554 8.98479ZM28.96 26.6675V19.5247C28.96 18.9724 28.5122 18.5247 27.96 18.5247H22.96H5.95996C5.40768 18.5247 4.95996 18.9724 4.95996 19.5247V26.6675C4.95996 27.2198 5.40768 27.6675 5.95996 27.6675H27.96C28.5122 27.6675 28.96 27.2198 28.96 26.6675ZM23.8832 24.4676C24.6479 24.4676 25.2678 23.8536 25.2678 23.0962C25.2678 22.3387 24.6479 21.7247 23.8832 21.7247C23.1184 21.7247 22.4985 22.3387 22.4985 23.0962C22.4985 23.8536 23.1184 24.4676 23.8832 24.4676Z" fill="#1C1B1F"/>
</svg>
