<svg width="32" height="33" viewBox="0 0 32 33" fill="none" xmlns="http://www.w3.org/2000/svg">
<path fill-rule="evenodd" clip-rule="evenodd" d="M2.00098 16.4999C2.00098 8.76846 8.26858 2.50085 16.0001 2.50085C16.5523 2.50085 17.0001 2.05314 17.0001 1.50085C17.0001 0.94857 16.5523 0.500854 16.0001 0.500854C7.16401 0.500854 0.000976562 7.66389 0.000976562 16.4999C0.000976562 25.336 7.16401 32.499 16.0001 32.499C24.8361 32.499 31.9991 25.336 31.9991 16.4999C31.9991 15.9477 31.5514 15.4999 30.9991 15.4999C30.4469 15.4999 29.9991 15.9477 29.9991 16.4999C29.9991 21.2854 27.598 25.51 23.9348 28.0347C23.4824 24.0534 20.1025 20.9603 16.0002 20.9603C11.8979 20.9603 8.51797 24.0536 8.06566 28.0349C4.40227 25.5102 2.00098 21.2855 2.00098 16.4999ZM27.2496 0.500854C27.8019 0.500854 28.2496 0.94857 28.2496 1.50085V4.25062H30.9991C31.5514 4.25062 31.9991 4.69834 31.9991 5.25062C31.9991 5.80291 31.5514 6.25062 30.9991 6.25062H28.2496V9.0004C28.2496 9.55268 27.8019 10.0004 27.2496 10.0004C26.6973 10.0004 26.2496 9.55268 26.2496 9.0004V6.25062H23.4996C22.9473 6.25062 22.4996 5.80291 22.4996 5.25062C22.4996 4.69834 22.9473 4.25062 23.4996 4.25062H26.2496V1.50085C26.2496 0.94857 26.6973 0.500854 27.2496 0.500854ZM15.9999 20.9602C19.3025 20.9602 21.9798 18.2829 21.9798 14.9803C21.9798 11.6777 19.3025 9.00039 15.9999 9.00039C12.6973 9.00039 10.02 11.6777 10.02 14.9803C10.02 18.2829 12.6973 20.9602 15.9999 20.9602Z" fill="#111827"/>
</svg>
