<svg width="33" height="33" viewBox="0 0 33 33" fill="none" xmlns="http://www.w3.org/2000/svg">
<path fill-rule="evenodd" clip-rule="evenodd" d="M10.0684 15.4776C10.1725 15.477 10.2756 15.4723 10.3777 15.4637C10.7433 13.3187 11.9852 11.4724 13.722 10.3062C13.1926 8.78579 11.7467 7.6947 10.0459 7.6947C7.8967 7.6947 6.15443 9.43697 6.15443 11.5862C6.15443 13.7277 7.8843 15.4652 10.0229 15.4776C7.5027 15.4882 5.40588 17.2927 4.94333 19.6803C4.83829 20.2225 5.29605 20.6745 5.84833 20.6745H11.3056C10.6446 19.5293 10.2663 18.2003 10.2663 16.783C10.2663 16.3417 10.303 15.909 10.3735 15.4877C10.2725 15.4814 10.1708 15.478 10.0684 15.4776ZM16.9902 20.6744C19.1256 20.6582 20.8516 18.9222 20.8516 16.783C20.8516 14.6338 19.1093 12.8915 16.9601 12.8915C14.8109 12.8915 13.0687 14.6338 13.0687 16.783C13.0687 18.9221 14.7947 20.6582 16.93 20.6744C14.4132 20.6886 12.3202 22.4919 11.8581 24.877C11.7531 25.4192 12.2109 25.8712 12.7631 25.8712H21.157C21.7093 25.8712 22.1671 25.4192 22.062 24.877C21.6 22.4919 19.507 20.6886 16.9902 20.6744ZM22.6161 20.6744H28.0719C28.6242 20.6744 29.0819 20.2224 28.9769 19.6802C28.5147 17.2944 26.4205 15.4907 23.9026 15.4776C26.0394 15.4631 27.7672 13.7264 27.7672 11.5862C27.7672 9.43697 26.0249 7.6947 23.8757 7.6947C22.1749 7.6947 20.7289 8.78584 20.1996 10.3063C21.9363 11.4725 23.1781 13.3187 23.5437 15.4637C23.6442 15.4722 23.7457 15.4768 23.8482 15.4776C23.7475 15.4781 23.6474 15.4814 23.5482 15.4876C23.6186 15.9089 23.6553 16.3417 23.6553 16.783C23.6553 18.2003 23.2771 19.5292 22.6161 20.6744Z" fill="#1C1B1F"/>
</svg>
