<svg width="32" height="33" viewBox="0 0 32 33" fill="none" xmlns="http://www.w3.org/2000/svg">
<path fill-rule="evenodd" clip-rule="evenodd" d="M9.70047 18.9248C13.731 18.9248 16.9985 15.6574 16.9985 11.6269C16.9985 7.59628 13.731 4.32886 9.70047 4.32886C5.6699 4.32886 2.40248 7.59628 2.40248 11.6269C2.40248 15.6574 5.6699 18.9248 9.70047 18.9248ZM28.3486 15.283C28.3486 14.7307 27.9009 14.283 27.3486 14.283C26.7964 14.283 26.3486 14.7307 26.3486 15.283V17.9344H23.6969C23.1446 17.9344 22.6969 18.3821 22.6969 18.9344C22.6969 19.4867 23.1446 19.9344 23.6969 19.9344H26.3486V22.5858C26.3486 23.138 26.7964 23.5858 27.3486 23.5858C27.9009 23.5858 28.3486 23.138 28.3486 22.5858V19.9344H30.9996C31.5519 19.9344 31.9996 19.4867 31.9996 18.9344C31.9996 18.3821 31.5519 17.9344 30.9996 17.9344H28.3486V15.283ZM0.00467581 27.6727C0.504664 22.759 4.65478 18.9249 9.70041 18.9249C14.746 18.9249 18.8962 22.759 19.3962 27.6727C19.4521 28.2221 18.999 28.6711 18.4467 28.6711H0.954163C0.401878 28.6711 -0.0512327 28.2221 0.00467581 27.6727Z" fill="#111827"/>
</svg>
