<svg width="32" height="33" viewBox="0 0 32 33" fill="none" xmlns="http://www.w3.org/2000/svg">
<path fill-rule="evenodd" clip-rule="evenodd" d="M7.20366 18.3062C10.2057 18.3062 12.6394 15.8725 12.6394 12.8704C12.6394 9.86836 10.2057 7.43469 7.20366 7.43469C4.20158 7.43469 1.76791 9.86836 1.76791 12.8704C1.76791 15.8725 4.20158 18.3062 7.20366 18.3062ZM16.4016 9.7004C16.4016 9.14811 16.8493 8.7004 17.4016 8.7004H30.9996C31.5519 8.7004 31.9996 9.14811 31.9996 9.7004C31.9996 10.2527 31.5519 10.7004 30.9996 10.7004H17.4016C16.8493 10.7004 16.4016 10.2527 16.4016 9.7004ZM16.4016 16.4994C16.4016 15.9471 16.8493 15.4994 17.4016 15.4994H30.9996C31.5519 15.4994 31.9996 15.9471 31.9996 16.4994C31.9996 17.0516 31.5519 17.4994 30.9996 17.4994H17.4016C16.8493 17.4994 16.4016 17.0516 16.4016 16.4994ZM20.7996 22.2983C20.2473 22.2983 19.7996 22.746 19.7996 23.2983C19.7996 23.8506 20.2473 24.2983 20.7996 24.2983H30.9981C31.5504 24.2983 31.9981 23.8506 31.9981 23.2983C31.9981 22.746 31.5504 22.2983 30.9981 22.2983H20.7996ZM0.00815792 24.5681C0.494202 21.0308 3.52865 18.3062 7.19948 18.3062C10.8703 18.3062 13.9048 21.0308 14.3908 24.5681C14.466 25.1152 14.011 25.5654 13.4588 25.5654H0.940207C0.387923 25.5654 -0.0670233 25.1152 0.00815792 24.5681Z" fill="#111827"/>
</svg>
