<svg width="32" height="33" viewBox="0 0 32 33" fill="none" xmlns="http://www.w3.org/2000/svg">
<path fill-rule="evenodd" clip-rule="evenodd" d="M0.000488281 1.50049C0.000488281 0.948204 0.448204 0.500488 1.00049 0.500488H31.0001C31.5523 0.500488 32.0001 0.948204 32.0001 1.50049V31.5001C32.0001 32.0523 31.5523 32.5001 31.0001 32.5001H1.00049C0.448204 32.5001 0.000488281 32.0523 0.000488281 31.5001V1.50049ZM2.00049 2.50049V30.5001H6.27113C6.77225 25.5686 10.9371 21.7204 16.0008 21.7204C21.0645 21.7204 25.2294 25.5686 25.7305 30.5001H30.0001V2.50049H2.00049ZM16.004 21.7201C20.0487 21.7201 23.3275 18.4413 23.3275 14.3967C23.3275 10.352 20.0487 7.07319 16.004 7.07319C11.9594 7.07319 8.68057 10.352 8.68057 14.3967C8.68057 18.4413 11.9594 21.7201 16.004 21.7201Z" fill="#111827"/>
</svg>
