<svg width="32" height="33" viewBox="0 0 32 33" fill="none" xmlns="http://www.w3.org/2000/svg">
<path fill-rule="evenodd" clip-rule="evenodd" d="M9.28344 18.8216C13.1424 18.8216 16.2708 15.6932 16.2708 11.8342C16.2708 7.97525 13.1424 4.84692 9.28344 4.84692C5.42445 4.84692 2.29612 7.97525 2.29612 11.8342C2.29612 15.6932 5.42445 18.8216 9.28344 18.8216ZM22.5688 19.7091C22.5688 19.1569 23.0165 18.7091 23.5688 18.7091H30.9999C31.5522 18.7091 31.9999 19.1569 31.9999 19.7091C31.9999 20.2614 31.5522 20.7091 30.9999 20.7091H23.5688C23.0165 20.7091 22.5688 20.2614 22.5688 19.7091ZM0.00508064 27.1545C0.503325 22.4704 4.46737 18.8216 9.28365 18.8216C14.0999 18.8216 18.064 22.4704 18.5622 27.1545C18.6206 27.7037 18.1673 28.153 17.615 28.153H0.952293C0.400008 28.153 -0.0533359 27.7037 0.00508064 27.1545Z" fill="#111827"/>
</svg>
