<svg width="33" height="33" viewBox="0 0 33 33" fill="none" xmlns="http://www.w3.org/2000/svg">
<path fill-rule="evenodd" clip-rule="evenodd" d="M12.8128 18.5609C15.751 18.5409 18.1266 16.1529 18.1266 13.2101C18.1266 10.2548 15.7309 7.85913 12.7757 7.85913C9.82042 7.85913 7.42473 10.2548 7.42473 13.2101C7.42473 16.153 9.80043 18.541 12.7386 18.5609C9.14711 18.5792 6.18231 21.247 5.69883 24.7096C5.62246 25.2566 6.07752 25.7068 6.6298 25.7068H18.9218C19.4741 25.7068 19.9292 25.2566 19.8528 24.7096C19.3693 21.2469 16.4044 18.5791 12.8128 18.5609ZM20.0124 18.5746C19.982 18.5635 19.9519 18.5522 19.9218 18.5405C21.9901 17.7418 22.4573 15.7345 22.4573 13.3844C22.4573 11.0343 20.9901 9.02697 18.9218 8.22826C19.5392 7.98985 20.2101 7.85913 20.9116 7.85913C23.9631 7.85913 26.4368 10.3329 26.4368 13.3844C26.4368 15.7594 25.5441 17.7845 23.7095 18.5656C26.3665 19.3102 27.9551 21.7262 28.2429 24.7077C28.296 25.2574 27.8427 25.7067 27.2904 25.7067H24.3108C24.3108 22.3209 23.0305 19.4678 19.9218 18.5993C19.9519 18.5909 19.9821 18.5826 20.0124 18.5746Z" fill="#1C1B1F"/>
</svg>
