<svg width="32" height="33" viewBox="0 0 32 33" fill="none" xmlns="http://www.w3.org/2000/svg">
<path fill-rule="evenodd" clip-rule="evenodd" d="M19.2987 10.971C19.2987 15.53 15.6143 19.2285 11.0607 19.2513C16.8117 19.2731 21.5276 23.685 22.0314 29.31C22.0807 29.8601 21.6282 30.3093 21.0759 30.3093H0.959625C0.40734 30.3093 -0.0451039 29.8601 0.00416619 29.31C0.508013 23.6848 5.22429 19.2727 10.9756 19.2512C6.42219 19.2282 2.73806 15.5299 2.73806 10.971C2.73806 6.39791 6.4453 2.69067 11.0184 2.69067C15.5915 2.69067 19.2987 6.39791 19.2987 10.971ZM28.1279 12.029C28.1279 11.4768 27.6802 11.029 27.1279 11.029C26.5757 11.029 26.1279 11.4768 26.1279 12.029V13.0879C25.5756 13.2495 25.079 13.5416 24.6737 13.9285L23.7555 13.3984C23.2772 13.1222 22.6656 13.2861 22.3895 13.7644C22.1133 14.2427 22.2772 14.8543 22.7555 15.1304L23.673 15.6601C23.6078 15.9294 23.5732 16.2107 23.5732 16.5001C23.5732 16.7892 23.6077 17.0703 23.6729 17.3394L22.7555 17.869C22.2772 18.1452 22.1133 18.7568 22.3895 19.2351C22.6656 19.7134 23.2772 19.8772 23.7555 19.6011L24.6733 19.0712C25.0786 19.4584 25.5754 19.7506 26.1279 19.9122V20.9703C26.1279 21.5226 26.5757 21.9703 27.1279 21.9703C27.6802 21.9703 28.1279 21.5226 28.1279 20.9703V19.9123C28.6803 19.7507 29.177 19.4586 29.5823 19.0716L30.4993 19.6011C30.9776 19.8772 31.5892 19.7134 31.8654 19.2351C32.1415 18.7568 31.9776 18.1452 31.4993 17.869L30.5829 17.34C30.6482 17.0707 30.6827 16.7894 30.6827 16.5001C30.6827 16.2105 30.6481 15.9291 30.5828 15.6596L31.4993 15.1304C31.9776 14.8543 32.1415 14.2427 31.8654 13.7644C31.5892 13.2861 30.9776 13.1222 30.4993 13.3984L29.5818 13.9281C29.1766 13.5414 28.6801 13.2494 28.1279 13.0879V12.029ZM27.1279 18.0546L27.1445 18.0548C27.7046 18.0489 28.1937 17.7469 28.4627 17.2979L28.4743 17.2772C28.4784 17.2701 28.4827 17.263 28.4869 17.256C28.6117 17.0322 28.6827 16.7744 28.6827 16.5001C28.6827 16.2214 28.6094 15.9599 28.4811 15.7338L28.4743 15.7222L28.4684 15.7119C28.1981 15.2532 27.699 14.9453 27.128 14.9453C26.2693 14.9453 25.5732 15.6414 25.5732 16.5001C25.5732 17.3532 26.2603 18.0458 27.1114 18.0548L27.1279 18.0546Z" fill="#111827"/>
</svg>
