<svg width="32" height="33" viewBox="0 0 32 33" fill="none" xmlns="http://www.w3.org/2000/svg">
<path fill-rule="evenodd" clip-rule="evenodd" d="M12.7152 8.22719C13.9028 7.49095 14.6938 6.17566 14.6938 4.67563C14.6938 2.36949 12.8243 0.5 10.5181 0.5C8.212 0.5 6.34251 2.36949 6.34251 4.67563C6.34251 6.17564 7.13345 7.49091 8.32102 8.22715C5.76931 9.13134 3.94163 11.566 3.94163 14.4276C3.94163 14.9799 4.38935 15.4276 4.94163 15.4276C5.49392 15.4276 5.94163 14.9799 5.94163 14.4276C5.94163 11.9001 7.99057 9.8512 10.5181 9.8512C13.0344 9.8512 15.0764 11.8821 15.0944 14.3942C15.0943 14.4054 15.0943 14.4165 15.0943 14.4276C15.0943 14.9714 15.5282 15.4137 16.0687 15.4273C16.0772 15.4275 16.0857 15.4276 16.0943 15.4276C16.0944 15.4276 16.0944 15.4276 16.0945 15.4276C16.6468 15.4276 17.0945 14.9799 17.0945 14.4276C17.0945 14.4165 17.0945 14.4054 17.0944 14.3942C17.1124 11.8821 19.1544 9.8512 21.6707 9.8512C24.1982 9.8512 26.2471 11.9001 26.2471 14.4276C26.2471 14.9799 26.6949 15.4276 27.2471 15.4276C27.7994 15.4276 28.2471 14.9799 28.2471 14.4276C28.2471 11.5662 26.4197 9.13165 23.8683 8.22733C25.056 7.49112 25.847 6.17575 25.847 4.67563C25.847 2.36949 23.9776 0.5 21.6714 0.5C19.3653 0.5 17.4958 2.36949 17.4958 4.67563C17.4958 6.17554 18.2866 7.49074 19.4741 8.22701C18.0647 8.72633 16.8761 9.69254 16.0944 10.9397C15.3127 9.69269 14.1244 8.72655 12.7152 8.22719ZM14.5309 21.609C14.5309 24.1844 12.443 26.2723 9.86757 26.2723C7.2921 26.2723 5.20426 24.1844 5.20426 21.609C5.20426 19.0335 7.2921 16.9457 9.86757 16.9457C12.443 16.9457 14.5309 19.0335 14.5309 21.609ZM26.8217 21.5385C26.8217 24.0694 24.7745 26.1222 22.2457 26.1313C25.2861 26.1399 27.8061 28.3607 28.281 31.2688C28.37 31.8139 27.9137 32.2648 27.3614 32.2648H17.0943C16.542 32.2648 16.0857 31.8139 16.1747 31.2688C16.6497 28.3603 19.1703 26.1393 22.2112 26.1313C19.6828 26.1217 17.6361 24.0691 17.6361 21.5385C17.6361 19.0019 19.6923 16.9457 22.2289 16.9457C24.7654 16.9457 26.8217 19.0019 26.8217 21.5385ZM9.86734 26.2723C6.7669 26.2723 4.19563 28.5379 3.71885 31.5039C3.6312 32.0492 4.08734 32.5 4.63962 32.5H15.0951C15.6473 32.5 16.1035 32.0492 16.0158 31.5039C15.5391 28.5379 12.9678 26.2723 9.86734 26.2723Z" fill="#111827"/>
</svg>
