<svg width="32" height="33" viewBox="0 0 32 33" fill="none" xmlns="http://www.w3.org/2000/svg">
<path fill-rule="evenodd" clip-rule="evenodd" d="M19.5742 4.36462C16.955 3.59234 14.1561 3.68912 11.5965 4.64048C9.03683 5.59183 6.85417 7.34659 5.37518 9.64209C5.00702 10.2135 5.17179 10.9752 5.74319 11.3433C6.31459 11.7115 7.07626 11.5467 7.44442 10.9753C8.63536 9.12688 10.3929 7.71387 12.454 6.9478C14.5151 6.18173 16.7689 6.1038 18.878 6.72567C20.9871 7.34754 22.8381 8.63576 24.1539 10.3975C25.446 12.1275 26.1537 14.2227 26.1765 16.3798L24.9172 15.1205C24.4366 14.6399 23.6573 14.6399 23.1766 15.1205C22.696 15.6011 22.696 16.3804 23.1766 16.8611L26.522 20.2064C26.7458 20.4385 27.06 20.5828 27.4079 20.5828C27.568 20.5828 27.7211 20.5522 27.8614 20.4965C28.0133 20.4365 28.1556 20.345 28.2784 20.2222L31.6395 16.8611C32.1202 16.3804 32.1202 15.6011 31.6395 15.1205C31.1589 14.6399 30.3796 14.6399 29.8989 15.1205L28.6382 16.3812C28.6156 13.6928 27.7362 11.0803 26.1261 8.92454C24.4921 6.73669 22.1934 5.13689 19.5742 4.36462ZM27.4084 16.5L28.5183 16.5012L28.5195 16.5H27.4084Z" fill="#111827"/>
<path fill-rule="evenodd" clip-rule="evenodd" d="M5.08821 12.5213C4.93639 12.4544 4.76848 12.4172 4.59189 12.4172C4.40373 12.4172 4.22543 12.4594 4.06595 12.5349C3.97433 12.5782 3.88696 12.6334 3.80616 12.7006C3.77399 12.7273 3.7432 12.7556 3.71392 12.7854L0.360485 16.1388C-0.120162 16.6195 -0.120162 17.3988 0.360485 17.8794C0.841131 18.3601 1.62041 18.3601 2.10106 17.8794L3.36156 16.6189C3.3842 19.3073 4.26364 21.9197 5.87366 24.0754C7.50768 26.2633 9.80634 27.863 12.4256 28.6353C15.0448 29.4076 17.8437 29.3108 20.4033 28.3595C22.9629 27.4081 25.1456 25.6533 26.6246 23.3579C26.9927 22.7864 26.828 22.0248 26.2566 21.6566C25.6852 21.2885 24.9235 21.4532 24.5553 22.0246C23.8573 23.1081 22.9645 24.042 21.93 24.7837C21.3276 22.0682 18.9078 20.0367 16.0124 20.0309C18.5187 20.0243 20.5484 17.9905 20.5484 15.4827C20.5484 12.9708 18.5121 10.9344 16.0001 10.9344C13.4882 10.9344 11.4519 12.9708 11.4519 15.4827C11.4519 17.9905 13.4816 20.0243 15.9878 20.0309C13.0924 20.0366 10.6725 22.0683 10.0701 24.7838C9.22654 24.179 8.47501 23.4448 7.84586 22.6024C6.55373 20.8724 5.84598 18.777 5.82322 16.6198L7.08278 17.8794C7.56343 18.3601 8.34271 18.3601 8.82336 17.8794C9.304 17.3988 9.304 16.6195 8.82336 16.1388L5.46452 12.78C5.45567 12.7711 5.44669 12.7623 5.43758 12.7537C5.33242 12.6542 5.214 12.5767 5.08821 12.5213ZM3.4805 16.5L3.48172 16.4988L4.59189 16.5H3.4805Z" fill="#111827"/>
</svg>
