<svg width="33" height="33" viewBox="0 0 33 33" fill="none" xmlns="http://www.w3.org/2000/svg">
<path fill-rule="evenodd" clip-rule="evenodd" d="M19.864 6.92302C17.7358 6.29554 15.4617 6.37418 13.3821 7.14716C11.3024 7.92013 9.52896 9.34587 8.32728 11.211C8.02816 11.6752 8.16203 12.2941 8.62629 12.5932C9.09056 12.8923 9.70941 12.7585 10.0085 12.2942C10.9762 10.7923 12.4042 9.64429 14.0788 9.02185C15.7535 8.39942 17.5847 8.3361 19.2983 8.84137C21.012 9.34664 22.5159 10.3933 23.585 11.8247C24.6348 13.2304 25.2098 14.9327 25.2283 16.6853L24.2052 15.6622C23.8146 15.2716 23.1815 15.2716 22.7909 15.6622C22.4004 16.0527 22.4004 16.6858 22.7909 17.0764L25.509 19.7944C25.6909 19.983 25.9462 20.1002 26.2288 20.1002C26.3589 20.1002 26.4833 20.0754 26.5973 20.0301C26.7207 19.9814 26.8363 19.9071 26.9361 19.8073L29.667 17.0764C30.0575 16.6858 30.0575 16.0527 29.667 15.6622C29.2765 15.2716 28.6433 15.2716 28.2528 15.6622L27.2284 16.6865C27.2101 14.5021 26.4955 12.3795 25.1874 10.628C23.8597 8.85033 21.9921 7.55049 19.864 6.92302ZM26.2292 16.783L27.131 16.784L27.132 16.783H26.2292ZM8.09412 13.5503C7.97077 13.4959 7.83435 13.4657 7.69086 13.4657C7.53798 13.4657 7.39311 13.5 7.26353 13.5613C7.1891 13.5965 7.11811 13.6414 7.05246 13.696C7.02632 13.7177 7.00131 13.7407 6.97752 13.7649L4.25285 16.4895C3.86233 16.8801 3.86233 17.5132 4.25285 17.9038C4.64338 18.2943 5.27654 18.2943 5.66707 17.9038L6.69122 16.8796C6.70961 19.0639 7.42416 21.1865 8.7323 22.938C10.0599 24.7156 11.9276 26.0154 14.0557 26.6429C16.1838 27.2704 18.4579 27.1918 20.5376 26.4188C22.6173 25.6458 24.3907 24.2201 25.5924 22.355C25.8915 21.8907 25.7576 21.2719 25.2934 20.9727C24.8291 20.6736 24.2103 20.8075 23.9111 21.2718C23.3439 22.1521 22.6186 22.9108 21.778 23.5135C21.2886 21.3072 19.3225 19.6565 16.97 19.6519C19.0063 19.6465 20.6555 17.994 20.6555 15.9564C20.6555 13.9155 19.001 12.261 16.96 12.261C14.9191 12.261 13.2646 13.9155 13.2646 15.9564C13.2646 17.994 14.9137 19.6465 16.95 19.6519C14.5975 19.6565 12.6313 21.3072 12.1419 23.5135C11.4565 23.0221 10.8459 22.4257 10.3347 21.7412C9.28486 20.3355 8.70981 18.6331 8.69132 16.8804L9.71471 17.9038C10.1052 18.2943 10.7384 18.2943 11.1289 17.9038C11.5194 17.5132 11.5194 16.8801 11.1289 16.4895L8.39987 13.7605C8.39268 13.7533 8.38539 13.7462 8.37798 13.7392C8.29254 13.6583 8.19633 13.5953 8.09412 13.5503ZM6.78786 16.783L6.78885 16.782L7.69086 16.783H6.78786Z" fill="#1C1B1F"/>
</svg>
