<svg width="33" height="33" viewBox="0 0 33 33" fill="none" xmlns="http://www.w3.org/2000/svg">
<path fill-rule="evenodd" clip-rule="evenodd" d="M12.494 18.6575C15.6099 18.6575 18.1357 16.1316 18.1357 13.0157C18.1357 9.89991 15.6099 7.37402 12.494 7.37402C9.37818 7.37402 6.8523 9.89991 6.8523 13.0157C6.8523 16.1316 9.37818 18.6575 12.494 18.6575ZM27.137 15.8422C27.137 15.2899 26.6893 14.8422 26.137 14.8422C25.5847 14.8422 25.137 15.2899 25.137 15.8422V17.6648H23.3142C22.7619 17.6648 22.3142 18.1125 22.3142 18.6648C22.3142 19.2171 22.7619 19.6648 23.3142 19.6648H25.137V21.4875C25.137 22.0398 25.5847 22.4875 26.137 22.4875C26.6893 22.4875 27.137 22.0398 27.137 21.4875V19.6648H28.9596C29.5119 19.6648 29.9596 19.2171 29.9596 18.6648C29.9596 18.1125 29.5119 17.6648 28.9596 17.6648H27.137V15.8422ZM5.02519 25.1942C5.51328 21.5046 8.67118 18.6575 12.4941 18.6575C16.317 18.6575 19.4749 21.5046 19.963 25.1942C20.0354 25.7417 19.5807 26.1918 19.0284 26.1918H5.95972C5.40744 26.1918 4.95276 25.7417 5.02519 25.1942Z" fill="#1C1B1F"/>
</svg>
