<svg width="33" height="33" viewBox="0 0 33 33" fill="none" xmlns="http://www.w3.org/2000/svg">
<path fill-rule="evenodd" clip-rule="evenodd" d="M12.79 4.78296C12.79 4.23067 12.3423 3.78296 11.79 3.78296H4.95996C4.40768 3.78296 3.95996 4.23067 3.95996 4.78296V11.613C3.95996 12.1653 4.40768 12.613 4.95996 12.613C5.51225 12.613 5.95996 12.1653 5.95996 11.613V5.78296H11.79C12.3423 5.78296 12.79 5.33524 12.79 4.78296ZM21.1298 4.78296C21.1298 4.23067 21.5776 3.78296 22.1298 3.78296H28.9599C29.5122 3.78296 29.9599 4.23067 29.9599 4.78296V11.613C29.9599 12.1653 29.5122 12.613 28.9599 12.613C28.4076 12.613 27.9599 12.1653 27.9599 11.613V5.78296H22.1298C21.5776 5.78296 21.1298 5.33524 21.1298 4.78296ZM21.1881 13.9595C21.1881 16.2941 19.2962 18.1867 16.9619 18.1879C19.74 18.1889 22.0491 20.1961 22.5191 22.8394C22.6158 23.3832 22.1589 23.8347 21.6066 23.8347H12.3129C11.7607 23.8347 11.3037 23.3832 11.4004 22.8394C11.8704 20.1961 14.1795 18.1889 16.9576 18.1879C14.6233 18.1867 12.7314 16.2941 12.7314 13.9595C12.7314 11.6243 14.6245 9.7312 16.9597 9.7312C19.295 9.7312 21.1881 11.6243 21.1881 13.9595ZM22.1298 29.783C21.5776 29.783 21.1298 29.3352 21.1298 28.783C21.1298 28.2307 21.5776 27.783 22.1298 27.783H27.9599V21.9529C27.9599 21.4006 28.4076 20.9529 28.9599 20.9529C29.5122 20.9529 29.9599 21.4006 29.9599 21.9529V28.783C29.9599 29.3352 29.5122 29.783 28.9599 29.783H22.1298ZM11.79 29.783C12.3423 29.783 12.79 29.3352 12.79 28.783C12.79 28.2307 12.3423 27.783 11.79 27.783H5.95996V21.9529C5.95996 21.4006 5.51225 20.9529 4.95996 20.9529C4.40768 20.9529 3.95996 21.4006 3.95996 21.9529V28.783C3.95996 29.3352 4.40768 29.783 4.95996 29.783H11.79Z" fill="#1C1B1F"/>
</svg>
