<svg width="32" height="33" viewBox="0 0 32 33" fill="none" xmlns="http://www.w3.org/2000/svg">
<path fill-rule="evenodd" clip-rule="evenodd" d="M16.0001 2.50085C8.26858 2.50085 2.00098 8.76846 2.00098 16.4999C2.00098 21.2855 4.40227 25.5102 8.06566 28.0349C8.51797 24.0536 11.8979 20.9603 16.0002 20.9603C20.1025 20.9603 23.4824 24.0534 23.9348 28.0347C27.598 25.51 29.9991 21.2854 29.9991 16.4999C29.9991 8.76846 23.7315 2.50085 16.0001 2.50085ZM0.000976562 16.4999C0.000976562 7.66389 7.16401 0.500854 16.0001 0.500854C24.8361 0.500854 31.9991 7.66389 31.9991 16.4999C31.9991 25.336 24.8361 32.499 16.0001 32.499C7.16401 32.499 0.000976562 25.336 0.000976562 16.4999ZM15.9999 20.9602C19.3025 20.9602 21.9798 18.2829 21.9798 14.9803C21.9798 11.6777 19.3025 9.00039 15.9999 9.00039C12.6973 9.00039 10.02 11.6777 10.02 14.9803C10.02 18.2829 12.6973 20.9602 15.9999 20.9602Z" fill="#111827"/>
</svg>
