<svg width="33" height="33" viewBox="0 0 33 33" fill="none" xmlns="http://www.w3.org/2000/svg">
<path fill-rule="evenodd" clip-rule="evenodd" d="M3.95996 4.78296C3.95996 4.23067 4.40768 3.78296 4.95996 3.78296H28.96C29.5122 3.78296 29.96 4.23067 29.96 4.78296V28.783C29.96 29.3352 29.5122 29.783 28.96 29.783H4.95996C4.40768 29.783 3.95996 29.3352 3.95996 28.783V4.78296ZM5.95996 5.78296V27.783H9.19904C9.68923 23.9404 12.9665 20.9687 16.9399 20.9586C13.7133 20.9478 11.1011 18.3289 11.1011 15.0998C11.1011 11.8641 13.7242 9.24097 16.9599 9.24097C20.1957 9.24097 22.8188 11.8641 22.8188 15.0998C22.8188 18.3288 20.2066 20.9478 16.9801 20.9586C20.9536 20.9686 24.2309 23.9404 24.7211 27.783H27.96V5.78296H5.95996Z" fill="#1C1B1F"/>
</svg>
