<svg width="32" height="33" viewBox="0 0 32 33" fill="none" xmlns="http://www.w3.org/2000/svg">
<path fill-rule="evenodd" clip-rule="evenodd" d="M10.1202 19.0166C14.2803 18.9898 17.6444 15.6091 17.6444 11.4427C17.6444 7.25966 14.2534 3.86865 10.0704 3.86865C5.88736 3.86865 2.49635 7.25966 2.49635 11.4427C2.49635 15.6091 5.86056 18.9899 10.0207 19.0166C4.79398 19.0418 0.504323 23.0313 0.00435795 28.1326C-0.0495118 28.6823 0.403393 29.1313 0.955678 29.1313H19.1855C19.7378 29.1313 20.1907 28.6823 20.1368 28.1326C19.6368 23.0313 15.347 19.0417 10.1202 19.0166ZM20.3138 19.0359C20.271 19.0202 20.2282 19.0042 20.1857 18.9877C23.1133 17.8572 23.7746 15.0158 23.7746 11.6894C23.7746 8.36304 21.6979 5.52168 18.7703 4.39114C19.6441 4.05368 20.5938 3.86865 21.5867 3.86865C25.906 3.86865 29.4075 7.37014 29.4075 11.6894C29.4075 15.0512 28.1438 17.9176 25.547 19.0233C29.4301 20.1115 31.701 23.722 31.9977 28.1315C32.0347 28.6825 31.5832 29.1312 31.031 29.1312H26.398C26.398 24.3387 24.5857 20.3002 20.1855 19.0709C20.2282 19.059 20.271 19.0473 20.3138 19.0359Z" fill="#111827"/>
</svg>
