<svg width="33" height="33" viewBox="0 0 33 33" fill="none" xmlns="http://www.w3.org/2000/svg">
<path fill-rule="evenodd" clip-rule="evenodd" d="M12.1731 18.5776C15.1561 18.5776 17.5743 16.1594 17.5743 13.1764C17.5743 10.1933 15.1561 7.77515 12.1731 7.77515C9.1901 7.77515 6.7719 10.1933 6.7719 13.1764C6.7719 16.1594 9.1901 18.5776 12.1731 18.5776ZM22.2157 19.2637C22.2157 18.7114 22.6635 18.2637 23.2157 18.2637H28.96C29.5122 18.2637 29.96 18.7114 29.96 19.2637C29.96 19.816 29.5122 20.2637 28.96 20.2637H23.2157C22.6635 20.2637 22.2157 19.816 22.2157 19.2637ZM5.02828 24.7935C5.51396 21.2817 8.52771 18.5776 12.173 18.5776C15.8184 18.5776 18.8321 21.2817 19.3178 24.7935C19.3935 25.3406 18.9385 25.7908 18.3862 25.7908H5.95989C5.40761 25.7908 4.95261 25.3406 5.02828 24.7935Z" fill="#1C1B1F"/>
</svg>
