<svg width="32" height="33" viewBox="0 0 32 33" fill="none" xmlns="http://www.w3.org/2000/svg">
<path fill-rule="evenodd" clip-rule="evenodd" d="M28.0006 1.50073C28.0006 0.948448 27.5529 0.500732 27.0006 0.500732C26.4484 0.500732 26.0006 0.948448 26.0006 1.50073V2.48455C25.4868 2.63999 25.0236 2.91211 24.6419 3.2701L23.7886 2.77746C23.3103 2.50132 22.6987 2.66519 22.4226 3.14348C22.1464 3.62178 22.3103 4.23337 22.7886 4.50951L23.6414 5.00188C23.5828 5.25384 23.5519 5.51639 23.5519 5.78617C23.5519 6.05599 23.5828 6.31856 23.6414 6.57054L22.7886 7.06292C22.3103 7.33907 22.1464 7.95066 22.4226 8.42895C22.6987 8.90724 23.3103 9.07112 23.7886 8.79497L24.6419 8.3023C25.0236 8.66026 25.4868 8.93236 26.0006 9.08779V10.0717C26.0006 10.6239 26.4484 11.0717 27.0006 11.0717C27.5529 11.0717 28.0006 10.6239 28.0006 10.0717V9.08783C28.5143 8.93246 28.9774 8.6605 29.359 8.30272L30.2116 8.79497C30.6899 9.07112 31.3015 8.90724 31.5776 8.42895C31.8538 7.95066 31.6899 7.33907 31.2116 7.06292L30.3598 6.57114C30.4185 6.31898 30.4495 6.0562 30.4495 5.78617C30.4495 5.51617 30.4185 5.25342 30.3598 5.00128L31.2116 4.50951C31.6899 4.23337 31.8538 3.62178 31.5776 3.14348C31.3015 2.66519 30.6899 2.50132 30.2116 2.77746L29.3591 3.26968C28.9774 2.91187 28.5143 2.63989 28.0006 2.48451V1.50073ZM25.5519 5.78617C25.5519 4.98839 26.1966 4.34121 26.9935 4.33734L27.0006 4.33737L27.0078 4.33734C27.5314 4.33986 27.9893 4.62008 28.2418 5.03827C28.2461 5.04615 28.2505 5.05399 28.255 5.0618L28.2599 5.0701L28.2695 5.08604C28.3842 5.29357 28.4495 5.53224 28.4495 5.78617C28.4495 6.04048 28.384 6.27948 28.2689 6.48722L28.2627 6.49758L28.255 6.51063C28.2507 6.51815 28.2464 6.5257 28.2423 6.53329C27.9887 6.9538 27.5276 7.23502 27.0007 7.23502C26.2005 7.23502 25.5519 6.58635 25.5519 5.78617ZM2.2876 16.806C2.2876 9.24353 8.4182 3.11293 15.9807 3.11293C16.533 3.11293 16.9807 2.66521 16.9807 2.11293C16.9807 1.56065 16.533 1.11293 15.9807 1.11293C7.31363 1.11293 0.287598 8.13896 0.287598 16.806C0.287598 25.4731 7.31363 32.4991 15.9807 32.4991C24.6477 32.4991 31.6738 25.4731 31.6738 16.806C31.6738 16.2537 31.226 15.806 30.6738 15.806C30.1215 15.806 29.6738 16.2537 29.6738 16.806C29.6738 21.4708 27.3412 25.5908 23.7787 28.0632C23.4587 24.0408 20.096 20.8754 15.9927 20.8692C19.2225 20.8628 21.8388 18.2426 21.8388 15.0113C21.8388 11.7761 19.2161 9.15338 15.9809 9.15338C12.7457 9.15338 10.123 11.7761 10.123 15.0113C10.123 18.2425 12.7391 20.8627 15.9688 20.8692C11.8654 20.8753 8.50256 24.0406 8.18244 28.0631C4.62012 25.5907 2.2876 21.4707 2.2876 16.806Z" fill="#111827"/>
</svg>
