<svg width="32" height="33" viewBox="0 0 32 33" fill="none" xmlns="http://www.w3.org/2000/svg">
<path fill-rule="evenodd" clip-rule="evenodd" d="M10.538 1.50085C10.538 0.94857 10.0903 0.500854 9.53801 0.500854H1.00098C0.448691 0.500854 0.000976562 0.94857 0.000976562 1.50085V10.0379C0.000976562 10.5902 0.448691 11.0379 1.00098 11.0379C1.55326 11.0379 2.00098 10.5902 2.00098 10.0379V2.50085H9.53801C10.0903 2.50085 10.538 2.05314 10.538 1.50085ZM21.462 1.50085C21.462 0.94857 21.9097 0.500854 22.462 0.500854H30.999C31.5513 0.500854 31.999 0.94857 31.999 1.50085V10.0379C31.999 10.5902 31.5513 11.0379 30.999 11.0379C30.4468 11.0379 29.999 10.5902 29.999 10.0379V2.50085H22.462C21.9097 2.50085 21.462 2.05314 21.462 1.50085ZM21.285 12.9709C21.285 15.8881 18.9214 18.2534 16.0047 18.256C19.5622 18.2584 22.5039 20.8926 22.9881 24.317C23.0654 24.8638 22.6103 25.3141 22.058 25.3141H9.9418C9.38952 25.3141 8.93437 24.8638 9.01169 24.317C9.49591 20.8926 12.4376 18.2584 15.995 18.256C13.0784 18.2534 10.7148 15.8881 10.7148 12.9709C10.7148 10.052 13.081 7.68579 15.9999 7.68579C18.9188 7.68579 21.285 10.052 21.285 12.9709ZM22.462 32.499C21.9097 32.499 21.462 32.0513 21.462 31.499C21.462 30.9467 21.9097 30.499 22.462 30.499H29.999V22.962C29.999 22.4097 30.4468 21.962 30.999 21.962C31.5513 21.962 31.999 22.4097 31.999 22.962V31.499C31.999 32.0513 31.5513 32.499 30.999 32.499H22.462ZM9.53801 32.499C10.0903 32.499 10.538 32.0513 10.538 31.499C10.538 30.9467 10.0903 30.499 9.53801 30.499H2.00098V22.962C2.00098 22.4097 1.55326 21.962 1.00098 21.962C0.448691 21.962 0.000976562 22.4097 0.000976562 22.962V31.499C0.000976562 32.0513 0.448691 32.499 1.00098 32.499H9.53801Z" fill="#111827"/>
</svg>
