<svg width="33" height="33" viewBox="0 0 33 33" fill="none" xmlns="http://www.w3.org/2000/svg">
<path fill-rule="evenodd" clip-rule="evenodd" d="M20.0995 12.4546C20.0995 16.0268 17.2099 18.9242 13.6406 18.9368C18.0734 18.9486 21.7229 22.2921 22.217 26.5953C22.28 27.144 21.8262 27.5937 21.2739 27.5937H5.96015C5.40786 27.5937 4.95409 27.144 5.01709 26.5953C5.51121 22.292 9.1608 18.9485 13.5937 18.9368C10.0245 18.9241 7.13495 16.0268 7.13495 12.4546C7.13495 8.8745 10.0372 5.97229 13.6172 5.97229C17.1973 5.97229 20.0995 8.8745 20.0995 12.4546ZM27.2292 13.283C27.2292 12.7307 26.7815 12.283 26.2292 12.283C25.6769 12.283 25.2292 12.7307 25.2292 13.283V13.9536C24.878 14.0777 24.5568 14.2653 24.2795 14.5027L23.6979 14.1669C23.2196 13.8908 22.608 14.0547 22.3319 14.533C22.0558 15.0113 22.2196 15.6228 22.6979 15.899L23.279 16.2345C23.2462 16.4123 23.229 16.5956 23.229 16.783C23.229 16.9703 23.2462 17.1536 23.279 17.3314L22.6979 17.6669C22.2196 17.9431 22.0558 18.5547 22.3319 19.033C22.608 19.5113 23.2196 19.6751 23.6979 19.399L24.2795 19.0632C24.5568 19.3006 24.878 19.4882 25.2292 19.6123V20.283C25.2292 20.8352 25.6769 21.283 26.2292 21.283C26.7815 21.283 27.2292 20.8352 27.2292 20.283V19.6122C27.5802 19.4881 27.9013 19.3005 28.1786 19.0632L28.7601 19.399C29.2384 19.6751 29.85 19.5113 30.1262 19.033C30.4023 18.5547 30.2384 17.9431 29.7601 17.6669L29.179 17.3314C29.2118 17.1536 29.229 16.9703 29.229 16.783C29.229 16.5956 29.2118 16.4123 29.179 16.2345L29.7601 15.899C30.2384 15.6228 30.4023 15.0113 30.1262 14.533C29.85 14.0547 29.2384 13.8908 28.7601 14.1669L28.1786 14.5027C27.9013 14.2654 27.5802 14.0778 27.2292 13.9537V13.283ZM26.229 15.783C26.5953 15.783 26.9156 15.9799 27.0898 16.2737L27.0951 16.283L27.1009 16.293C27.1825 16.4378 27.229 16.6049 27.229 16.783C27.229 16.961 27.1825 17.1281 27.1009 17.2729L27.0951 17.283L27.0898 17.2922C26.9156 17.586 26.5953 17.783 26.229 17.783C25.8634 17.783 25.5436 17.5868 25.3692 17.2939L25.363 17.283L25.3561 17.2712C25.2752 17.1268 25.229 16.9603 25.229 16.783C25.229 16.6056 25.2752 16.4391 25.3561 16.2947L25.363 16.283L25.3692 16.272C25.5436 15.9791 25.8634 15.783 26.229 15.783Z" fill="#1C1B1F"/>
</svg>
