<svg width="33" height="33" viewBox="0 0 33 33" fill="none" xmlns="http://www.w3.org/2000/svg">
<path fill-rule="evenodd" clip-rule="evenodd" d="M3.95996 6.78296C3.95996 6.23067 4.40768 5.78296 4.95996 5.78296H28.96C29.5122 5.78296 29.96 6.23067 29.96 6.78296V26.783C29.96 27.3352 29.5122 27.783 28.96 27.783H4.95996C4.40768 27.783 3.95996 27.3352 3.95996 26.783V6.78296ZM5.95996 7.78296V25.783H10.6486C11.1286 22.7293 13.7715 20.3938 16.96 20.3938C20.1484 20.3938 22.7914 22.7293 23.2714 25.783H27.96V7.78296H5.95996ZM16.96 20.3938C19.6023 20.3938 21.7442 18.2518 21.7442 15.6095C21.7442 12.9673 19.6023 10.8253 16.96 10.8253C14.3178 10.8253 12.1758 12.9673 12.1758 15.6095C12.1758 18.2518 14.3178 20.3938 16.96 20.3938Z" fill="#1C1B1F"/>
</svg>
