<svg width="33" height="33" viewBox="0 0 33 33" fill="none" xmlns="http://www.w3.org/2000/svg">
<path fill-rule="evenodd" clip-rule="evenodd" d="M10.0376 18.295C12.551 18.295 14.5884 16.2575 14.5884 13.7442C14.5884 11.2308 12.551 9.19336 10.0376 9.19336C7.52426 9.19336 5.48678 11.2308 5.48678 13.7442C5.48678 16.2575 7.52426 18.295 10.0376 18.295ZM17.5757 11.0908C17.5757 10.5385 18.0234 10.0908 18.5757 10.0908H29.96C30.5123 10.0908 30.96 10.5385 30.96 11.0908C30.96 11.6431 30.5123 12.0908 29.96 12.0908H18.5757C18.0234 12.0908 17.5757 11.6431 17.5757 11.0908ZM17.5757 16.783C17.5757 16.2307 18.0234 15.783 18.5757 15.783H29.96C30.5123 15.783 30.96 16.2307 30.96 16.783C30.96 17.3352 30.5123 17.783 29.96 17.783H18.5757C18.0234 17.783 17.5757 17.3352 17.5757 16.783ZM21.4218 21.4751C20.8696 21.4751 20.4218 21.9228 20.4218 22.4751C20.4218 23.0274 20.8696 23.4751 21.4218 23.4751H29.9601C30.5124 23.4751 30.9601 23.0274 30.9601 22.4751C30.9601 21.9228 30.5124 21.4751 29.9601 21.4751H21.4218ZM4.04113 23.3766C4.51633 20.4939 7.02009 18.295 10.0374 18.295C13.0548 18.295 15.5585 20.4939 16.0337 23.3766C16.1235 23.9216 15.6672 24.3725 15.1149 24.3725H4.95993C4.40764 24.3725 3.9513 23.9216 4.04113 23.3766Z" fill="#1C1B1F"/>
</svg>
