<svg width="33" height="33" viewBox="0 0 33 33" fill="none" xmlns="http://www.w3.org/2000/svg">
<path fill-rule="evenodd" clip-rule="evenodd" d="M14.5781 10.1015C15.3963 9.50108 15.9275 8.53243 15.9275 7.43972C15.9275 5.61748 14.4503 4.14026 12.6281 4.14026C10.8058 4.14026 9.32861 5.61748 9.32861 7.43972C9.32861 8.53241 9.85978 9.50105 10.678 10.1015C8.65581 10.8838 7.22168 12.8472 7.22168 15.1455C7.22168 15.6978 7.66939 16.1455 8.22168 16.1455C8.77396 16.1455 9.22168 15.6978 9.22168 15.1455C9.22168 13.2642 10.7467 11.7391 12.628 11.7391C14.5005 11.7391 16.0202 13.2501 16.0342 15.1193C16.0342 15.128 16.0342 15.1367 16.0342 15.1455C16.0342 15.6978 16.4819 16.1455 17.0342 16.1455C17.0342 16.1455 17.0343 16.1455 17.0343 16.1455C17.5866 16.1455 18.0343 15.6978 18.0343 15.1455C18.0343 15.1367 18.0343 15.128 18.0343 15.1193C18.0483 13.2501 19.568 11.7391 21.4405 11.7391C23.3218 11.7391 24.8468 13.2642 24.8468 15.1455C24.8468 15.6978 25.2946 16.1455 25.8468 16.1455C26.3991 16.1455 26.8468 15.6978 26.8468 15.1455C26.8468 12.8473 25.4129 10.8841 23.3909 10.1017C24.2093 9.50121 24.7405 8.53251 24.7405 7.43972C24.7405 5.61748 23.2633 4.14026 21.4411 4.14026C19.6188 4.14026 18.1416 5.61748 18.1416 7.43972C18.1416 8.53234 18.6727 9.50091 19.4908 10.1014C18.4961 10.4861 17.6437 11.1566 17.0343 12.0121C16.4249 11.1567 15.5726 10.4863 14.5781 10.1015ZM15.7988 20.8199C15.7988 22.855 14.1491 24.5048 12.114 24.5048C10.0789 24.5048 8.4292 22.855 8.4292 20.8199C8.4292 18.7849 10.0789 17.1351 12.114 17.1351C14.1491 17.1351 15.7988 18.7849 15.7988 20.8199ZM25.5107 20.7642C25.5107 22.7641 23.893 24.3862 21.8948 24.3933C24.2249 24.4 26.1681 26.0508 26.6255 28.2467C26.7381 28.7874 26.2796 29.2399 25.7273 29.2399H18.0342C17.4819 29.2399 17.0234 28.7874 17.136 28.2467C17.5934 26.0505 19.5371 24.3995 21.8676 24.3933C19.8697 24.3858 18.2524 22.7639 18.2524 20.7642C18.2524 18.7599 19.8772 17.1351 21.8816 17.1351C23.8859 17.1351 25.5107 18.7599 25.5107 20.7642ZM12.1138 24.5048C9.73635 24.5048 7.75266 26.1908 7.29318 28.4324C7.18228 28.9734 7.64059 29.4257 8.19287 29.4257H16.0348C16.5871 29.4257 17.0454 28.9734 16.9345 28.4324C16.475 26.1908 14.4913 24.5048 12.1138 24.5048Z" fill="#1C1B1F"/>
</svg>
