<svg width="32" height="32" viewBox="0 0 32 32" fill="none" xmlns="http://www.w3.org/2000/svg">
<path fill-rule="evenodd" clip-rule="evenodd" d="M0 2.5C0 1.94772 0.447715 1.5 1 1.5H31C31.5523 1.5 32 1.94772 32 2.5V24.5C32 25.0523 31.5523 25.5 31 25.5H27.6667V29.5C27.6667 30.0523 27.219 30.5 26.6667 30.5C26.1144 30.5 25.6667 30.0523 25.6667 29.5V25.5H6.33333V29.5C6.33333 30.0523 5.88562 30.5 5.33333 30.5C4.78105 30.5 4.33333 30.0523 4.33333 29.5V25.5H1C0.447715 25.5 0 25.0523 0 24.5V2.5ZM16.8016 13.5C16.8016 11.0519 18.7862 9.0673 21.2343 9.0673C23.6824 9.0673 25.6669 11.0519 25.6669 13.5C25.6669 15.9481 23.6824 17.9326 21.2343 17.9326C18.7862 17.9326 16.8016 15.9481 16.8016 13.5ZM21.2343 7.0673C17.6816 7.0673 14.8016 9.9473 14.8016 13.5C14.8016 17.0526 17.6816 19.9326 21.2343 19.9326C24.7869 19.9326 27.6669 17.0526 27.6669 13.5C27.6669 9.9473 24.7869 7.0673 21.2343 7.0673ZM6.46826 9.53638C6.46826 10.2728 5.87131 10.8697 5.13493 10.8697C4.39855 10.8697 3.8016 10.2728 3.8016 9.53638C3.8016 8.8 4.39855 8.20304 5.13493 8.20304C5.87131 8.20304 6.46826 8.8 6.46826 9.53638ZM23.4075 13.4998C23.4075 14.7 22.4346 15.6729 21.2344 15.6729C20.0343 15.6729 19.0614 14.7 19.0614 13.4998C19.0614 12.2997 20.0343 11.3267 21.2344 11.3267C22.4346 11.3267 23.4075 12.2997 23.4075 13.4998ZM5.13493 14.7961C5.87131 14.7961 6.46826 14.1992 6.46826 13.4628C6.46826 12.7264 5.87131 12.1295 5.13493 12.1295C4.39855 12.1295 3.8016 12.7264 3.8016 13.4628C3.8016 14.1992 4.39855 14.7961 5.13493 14.7961ZM6.46826 17.4628C6.46826 18.1992 5.87131 18.7961 5.13493 18.7961C4.39855 18.7961 3.8016 18.1992 3.8016 17.4628C3.8016 16.7264 4.39855 16.1295 5.13493 16.1295C5.87131 16.1295 6.46826 16.7264 6.46826 17.4628ZM9.13493 10.8697C9.87131 10.8697 10.4683 10.2728 10.4683 9.53638C10.4683 8.8 9.87131 8.20304 9.13493 8.20304C8.39855 8.20304 7.8016 8.8 7.8016 9.53638C7.8016 10.2728 8.39855 10.8697 9.13493 10.8697ZM10.4683 13.4628C10.4683 14.1992 9.87131 14.7961 9.13493 14.7961C8.39855 14.7961 7.8016 14.1992 7.8016 13.4628C7.8016 12.7264 8.39855 12.1295 9.13493 12.1295C9.87131 12.1295 10.4683 12.7264 10.4683 13.4628ZM9.13493 18.7961C9.87131 18.7961 10.4683 18.1992 10.4683 17.4628C10.4683 16.7264 9.87131 16.1295 9.13493 16.1295C8.39855 16.1295 7.8016 16.7264 7.8016 17.4628C7.8016 18.1992 8.39855 18.7961 9.13493 18.7961Z" fill="#111827"/>
</svg>
