<svg width="32" height="32" viewBox="0 0 32 32" fill="none" xmlns="http://www.w3.org/2000/svg">
<path fill-rule="evenodd" clip-rule="evenodd" d="M10.5718 4.21509C10.0195 4.21509 9.57177 4.6628 9.57177 5.21509V26.7847C9.57177 27.337 10.0195 27.7847 10.5718 27.7847H21.4279C21.9802 27.7847 22.4279 27.337 22.4279 26.7847V5.21509C22.4279 4.6628 21.9802 4.21509 21.4279 4.21509H10.5718ZM6.28613 10.6436C6.28613 10.0913 5.83842 9.64355 5.28613 9.64355C4.73385 9.64355 4.28613 10.0913 4.28613 10.6436V21.357C4.28613 21.9093 4.73385 22.357 5.28613 22.357C5.83842 22.357 6.28613 21.9093 6.28613 21.357V10.6436ZM26.7134 9.64355C27.2657 9.64355 27.7134 10.0913 27.7134 10.6436V21.357C27.7134 21.9093 27.2657 22.357 26.7134 22.357C26.1611 22.357 25.7134 21.9093 25.7134 21.357V10.6436C25.7134 10.0913 26.1611 9.64355 26.7134 9.64355ZM30.999 11.7858C31.5513 11.7858 31.999 12.2335 31.999 12.7858V19.2138C31.999 19.7661 31.5513 20.2138 30.999 20.2138C30.4467 20.2138 29.999 19.7661 29.999 19.2138V12.7858C29.999 12.2335 30.4467 11.7858 30.999 11.7858ZM1.00098 11.7858C1.55326 11.7858 2.00098 12.2335 2.00098 12.7858V19.2138C2.00098 19.7661 1.55326 20.2138 1.00098 20.2138C0.448692 20.2138 0.000976562 19.7661 0.000976562 19.2138V12.7858C0.000976562 12.2335 0.448692 11.7858 1.00098 11.7858Z" fill="#111827"/>
</svg>
