<svg width="33" height="33" viewBox="0 0 33 33" fill="none" xmlns="http://www.w3.org/2000/svg">
<path fill-rule="evenodd" clip-rule="evenodd" d="M12.8169 6.85449C12.2646 6.85449 11.8169 7.30221 11.8169 7.85449V24.7114C11.8169 25.2637 12.2646 25.7114 12.8169 25.7114H21.1025C21.6548 25.7114 22.1025 25.2637 22.1025 24.7114V7.85449C22.1025 7.30221 21.6548 6.85449 21.1025 6.85449H12.8169ZM9.38867 11.9976C9.38867 11.4453 8.94096 10.9976 8.38867 10.9976C7.83639 10.9976 7.38867 11.4453 7.38867 11.9976V20.5689C7.38867 21.1212 7.83639 21.5689 8.38867 21.5689C8.94096 21.5689 9.38867 21.1212 9.38867 20.5689V11.9976ZM25.5312 10.9976C26.0835 10.9976 26.5312 11.4453 26.5312 11.9976V20.5689C26.5312 21.1212 26.0835 21.5689 25.5312 21.5689C24.979 21.5689 24.5312 21.1212 24.5312 20.5689V11.9976C24.5312 11.4453 24.979 10.9976 25.5312 10.9976ZM28.96 12.7114C29.5122 12.7114 29.96 13.1591 29.96 13.7114V18.8542C29.96 19.4065 29.5122 19.8542 28.96 19.8542C28.4077 19.8542 27.96 19.4065 27.96 18.8542V13.7114C27.96 13.1591 28.4077 12.7114 28.96 12.7114ZM4.95996 12.7114C5.51225 12.7114 5.95996 13.1591 5.95996 13.7114V18.8542C5.95996 19.4065 5.51225 19.8542 4.95996 19.8542C4.40768 19.8542 3.95996 19.4065 3.95996 18.8542V13.7114C3.95996 13.1591 4.40768 12.7114 4.95996 12.7114Z" fill="#1C1B1F"/>
</svg>
