<svg width="33" height="33" viewBox="0 0 33 33" fill="none" xmlns="http://www.w3.org/2000/svg">
<path fill-rule="evenodd" clip-rule="evenodd" d="M6.79072 4.11029C6.41921 3.70164 5.78677 3.67152 5.37811 4.04303C4.96945 4.41453 4.93933 5.04698 5.31084 5.45564L8.98488 9.49708H5.45996C5.18382 9.49708 4.95996 9.72094 4.95996 9.99708V19.0685C4.95996 21.83 7.19853 24.0685 9.95996 24.0685H21.861C21.9725 24.0685 22.0705 24.0344 22.1496 23.9783L27.129 29.4556C27.5005 29.8643 28.133 29.8944 28.5416 29.5229C28.9503 29.1514 28.9804 28.519 28.6089 28.1103L6.79072 4.11029ZM15.9702 9.49708H17.9602C20.7216 9.49708 22.9602 11.7357 22.9602 14.4971V15.7052C22.9653 15.54 23.0519 15.3875 23.1921 15.2985L28.1921 12.1271C28.525 11.9159 28.9599 12.1551 28.9599 12.5493V21.0165C28.9599 21.4108 28.525 21.6499 28.1921 21.4388L23.1921 18.2673C23.0519 18.1784 22.9653 18.0259 22.9602 17.8606V18.1293L15.9702 9.49708Z" fill="#1C1B1F"/>
</svg>
