<svg width="32" height="33" viewBox="0 0 32 33" fill="none" xmlns="http://www.w3.org/2000/svg">
<path fill-rule="evenodd" clip-rule="evenodd" d="M3.10447 0.828311C2.73296 0.419653 2.10051 0.389537 1.69186 0.761044C1.2832 1.13255 1.25308 1.765 1.62459 2.17366L6.36979 7.39338H1.50098C1.22483 7.39338 1.00098 7.61724 1.00098 7.89338V20.6066C1.00098 23.368 3.23955 25.6066 6.00098 25.6066H22.4006C22.5568 25.6066 22.6866 25.5397 22.7749 25.439L28.8956 32.1718C29.2671 32.5805 29.8996 32.6106 30.3082 32.2391C30.7169 31.8676 30.747 31.2351 30.3755 30.8265L3.10447 0.828311ZM14.7631 7.39334H18.5C21.2614 7.39334 23.5 9.63191 23.5 12.3933V15.0828C23.5069 14.9196 23.5931 14.7695 23.7318 14.6815L30.2313 10.5589C30.5642 10.3478 30.9991 10.587 30.9991 10.9812V22.019C30.9991 22.4133 30.5642 22.6524 30.2313 22.4413L23.7318 18.3187C23.5931 18.2307 23.5069 18.0806 23.5 17.9174V18.1829L14.7631 7.39334Z" fill="#111827"/>
</svg>
