<svg width="32" height="33" viewBox="0 0 32 33" fill="none" xmlns="http://www.w3.org/2000/svg">
<path fill-rule="evenodd" clip-rule="evenodd" d="M0.5 6.78564C0.223858 6.78564 0 7.0095 0 7.28564V21.2143C0 23.9757 2.23858 26.2143 5 26.2143H23.5001C23.7762 26.2143 24.0001 25.9904 24.0001 25.7143V18.0146C24.0023 18.1833 24.0895 18.3397 24.2322 18.4302L31.2322 22.8703C31.5651 23.0814 32 22.8422 32 22.448V10.5522C32 10.158 31.5651 9.91882 31.2322 10.13L24.2322 14.57C24.0895 14.6605 24.0023 14.8169 24.0001 14.9856V11.7856C24.0001 9.02422 21.7615 6.78564 19.0001 6.78564H0.5Z" fill="#111827"/>
</svg>
