<svg width="33" height="33" viewBox="0 0 33 33" fill="none" xmlns="http://www.w3.org/2000/svg">
<path fill-rule="evenodd" clip-rule="evenodd" d="M5.45996 9.49707C5.18382 9.49707 4.95996 9.72093 4.95996 9.99707V19.0685C4.95996 21.8299 7.19853 24.0685 9.95996 24.0685H22.46C22.7361 24.0685 22.96 23.8447 22.96 23.5685V17.8508C22.9619 18.0198 23.0492 18.1766 23.1921 18.2673L28.1921 21.4388C28.525 21.6499 28.9599 21.4107 28.9599 21.0165V12.5493C28.9599 12.1551 28.525 11.9159 28.1921 12.1271L23.1921 15.2985C23.0492 15.3892 22.9619 15.546 22.96 15.715V14.4971C22.96 11.7356 20.7214 9.49707 17.96 9.49707H5.45996Z" fill="#1C1B1F"/>
</svg>
