<svg width="33" height="33" viewBox="0 0 33 33" fill="none" xmlns="http://www.w3.org/2000/svg">
<path fill-rule="evenodd" clip-rule="evenodd" d="M4.95996 5.53296C4.40768 5.53296 3.95996 5.98067 3.95996 6.53296V26.533C3.95996 27.0852 4.40768 27.533 4.95996 27.533H28.96C29.5122 27.533 29.96 27.0852 29.96 26.533V6.53296C29.96 5.98067 29.5122 5.53296 28.96 5.53296H4.95996ZM5.95996 25.533V7.53296H27.96V25.533H5.95996ZM24.96 16.533C24.96 19.8467 21.3782 22.533 16.96 22.533C12.5417 22.533 8.95996 19.8467 8.95996 16.533C8.95996 13.2193 12.5417 10.533 16.96 10.533C21.3782 10.533 24.96 13.2193 24.96 16.533Z" fill="#1C1B1F"/>
</svg>
