<svg width="32" height="33" viewBox="0 0 32 33" fill="none" xmlns="http://www.w3.org/2000/svg">
<path fill-rule="evenodd" clip-rule="evenodd" d="M0 2.3335C0 1.78121 0.447715 1.3335 1 1.3335H31C31.5523 1.3335 32 1.78121 32 2.3335V24.3335C32 24.8858 31.5523 25.3335 31 25.3335H1C0.447715 25.3335 0 24.8858 0 24.3335V2.3335ZM16.0083 12.5587L8.91059 8.60526L15.9996 4.63843L23.1484 8.63872L16.2278 12.5704C16.1846 12.5582 16.139 12.5517 16.0919 12.5517C16.0634 12.5517 16.0355 12.5541 16.0083 12.5587ZM23.8718 9.37789L16.5919 13.5137V21.925L23.8718 17.8514V9.37789ZM15.5919 22.0283V13.4714L8.12744 9.31371V17.8514L15.5919 22.0283ZM10.6665 29.6667C10.1142 29.6667 9.6665 30.1145 9.6665 30.6667C9.6665 31.219 10.1142 31.6667 10.6665 31.6667H21.3332C21.8855 31.6667 22.3332 31.219 22.3332 30.6667C22.3332 30.1145 21.8855 29.6667 21.3332 29.6667H10.6665Z" fill="#111827"/>
</svg>
