<svg width="33" height="33" viewBox="0 0 33 33" fill="none" xmlns="http://www.w3.org/2000/svg">
<path fill-rule="evenodd" clip-rule="evenodd" d="M16.0088 4.32007C14.4593 4.44157 12.9926 4.85738 11.6643 5.51163L14.4226 10.289C14.4315 10.3037 14.4402 10.3186 14.4484 10.3338L17.3692 15.3928H22.2797C22.2978 13.081 21.6861 10.8013 20.5019 8.80229C19.4026 6.94649 17.8542 5.40716 16.0088 4.32007ZM9.94995 6.54223L12.1821 10.4084C9.86128 11.7275 7.936 13.6563 6.62057 15.9948C6.05775 16.9953 5.61699 18.0523 5.30297 19.1433C5.07881 18.2266 4.95996 17.2687 4.95996 16.2829C4.95996 12.2723 6.92748 8.72121 9.94995 6.54223ZM10.0398 26.0878C8.7195 25.1542 7.59604 23.9607 6.744 22.5817C6.84226 20.6215 7.39287 18.7012 8.3637 16.9753C9.50281 14.9503 11.1711 13.2808 13.1821 12.1405L15.6372 16.3929L10.0398 26.0878ZM23.2224 17.3928C23.2322 17.3929 23.242 17.3929 23.2518 17.3928H28.9093C28.7666 18.9492 28.3267 20.4195 27.6468 21.7467C25.7808 22.804 23.6707 23.3768 21.511 23.401C19.1875 23.427 16.9073 22.8169 14.9142 21.6452L17.3693 17.3928H23.2224ZM13.9142 23.3773L11.7634 27.1025C13.3358 27.859 15.0984 28.2829 16.96 28.2829C20.2318 28.2829 23.1978 26.9735 25.3625 24.8501C24.123 25.1992 22.836 25.3863 21.5334 25.4008C18.8503 25.4309 16.2171 24.7278 13.9142 23.3773ZM24.2798 15.3928C24.2978 12.7233 23.5901 10.0914 22.2226 7.78297C21.5212 6.59888 20.6618 5.52615 19.6739 4.5911C24.7144 5.75642 28.5392 10.0973 28.9274 15.3928H24.2798Z" fill="#1C1B1F"/>
</svg>
