<svg width="32" height="33" viewBox="0 0 32 33" fill="none" xmlns="http://www.w3.org/2000/svg">
<path fill-rule="evenodd" clip-rule="evenodd" d="M15.3271 0.5C12.9264 0.600922 10.6624 1.2306 8.64856 2.2756L12.3357 8.66197C12.349 8.68307 12.3616 8.70482 12.3734 8.72719L16.3641 15.6393H23.4356C23.5235 12.3818 22.6905 9.15853 21.0233 6.34409C19.6112 3.96032 17.6543 1.96044 15.3271 0.5ZM6.93417 3.30619L10.0964 8.7834C6.92198 10.5154 4.29031 13.1076 2.51028 16.272C1.67801 17.7516 1.04929 19.3253 0.632922 20.9509C0.223391 19.5357 0.00390625 18.0399 0.00390625 16.4928C0.00390625 11.0227 2.74774 6.19338 6.93417 3.30619ZM7.05566 29.7623C5.01202 28.3804 3.30469 26.5388 2.08208 24.3859C2.27848 21.891 3.01429 19.4554 4.25342 17.2526C5.85712 14.4017 8.23191 12.0687 11.0968 10.516L14.6321 16.6395L7.05566 29.7623ZM24.3626 17.6394C24.377 17.6397 24.3914 17.6397 24.4058 17.6394H31.9777C31.8069 20.0533 31.1008 22.3194 29.9774 24.3196C27.5534 25.5991 24.8492 26.2907 22.0853 26.3216C18.8142 26.3582 15.6061 25.4679 12.8288 23.7629L16.3643 17.6394H24.3626ZM11.8285 25.4955L8.77924 30.777C10.9514 31.8789 13.4087 32.4999 16.011 32.4999C20.6227 32.4999 24.7789 30.5497 27.6999 27.429C25.9003 27.9962 24.0168 28.3001 22.1077 28.3215C18.4769 28.3621 14.9158 27.379 11.8285 25.4955ZM25.4363 15.6393C25.5237 12.024 24.5945 8.44863 22.744 5.32477C21.7286 3.61066 20.4607 2.07451 18.9924 0.762785C26.1367 2.10856 31.6051 8.20128 31.9958 15.6393H25.4363Z" fill="#111827"/>
</svg>
