<svg width="32" height="32" viewBox="0 0 32 32" fill="none" xmlns="http://www.w3.org/2000/svg">
<path fill-rule="evenodd" clip-rule="evenodd" d="M15.3271 0C12.9264 0.100922 10.6624 0.730602 8.64856 1.7756L12.3357 8.16197C12.349 8.18307 12.3616 8.20482 12.3734 8.22719L16.3641 15.1393H23.4356C23.5235 11.8818 22.6905 8.65853 21.0233 5.84409C19.6112 3.46032 17.6543 1.46044 15.3271 0ZM6.93417 2.80619L10.0964 8.2834C6.92198 10.0154 4.29031 12.6076 2.51028 15.772C1.67801 17.2516 1.04929 18.8253 0.632922 20.4509C0.223391 19.0357 0.00390625 17.5399 0.00390625 15.9928C0.00390625 10.5227 2.74774 5.69338 6.93417 2.80619ZM7.05566 29.2623C5.01202 27.8804 3.30469 26.0388 2.08208 23.8859C2.27848 21.391 3.01429 18.9554 4.25342 16.7526C5.85712 13.9017 8.23191 11.5687 11.0968 10.016L14.6321 16.1395L7.05566 29.2623ZM24.3626 17.1394C24.377 17.1397 24.3914 17.1397 24.4058 17.1394H31.9777C31.8069 19.5533 31.1008 21.8194 29.9774 23.8196C27.5534 25.0991 24.8492 25.7907 22.0853 25.8216C18.8142 25.8582 15.6061 24.9679 12.8288 23.2629L16.3643 17.1394H24.3626ZM11.8285 24.9955L8.77924 30.277C10.9514 31.3789 13.4087 31.9999 16.011 31.9999C20.6227 31.9999 24.7789 30.0497 27.6999 26.929C25.9003 27.4962 24.0168 27.8001 22.1077 27.8215C18.4769 27.8621 14.9158 26.879 11.8285 24.9955ZM25.4363 15.1393C25.5237 11.524 24.5945 7.94863 22.744 4.82477C21.7286 3.11066 20.4607 1.57451 18.9924 0.262785C26.1367 1.60856 31.6051 7.70128 31.9958 15.1393H25.4363Z" fill="#111827"/>
</svg>
