<svg width="32" height="33" viewBox="0 0 32 33" fill="none" xmlns="http://www.w3.org/2000/svg">
<path fill-rule="evenodd" clip-rule="evenodd" d="M31.2862 1.49976V14.7196C31.2862 24.2707 25.7759 28.0814 16.443 32.4083C16.1651 32.5371 15.8378 32.5299 15.5653 32.3901C5.99093 27.4772 0.713932 24.0329 0.713876 14.7196L0.713867 1.4963C0.713871 0.944018 1.16158 0.499756 1.71386 0.499756H16H30.2862C30.8385 0.499756 31.2862 0.947471 31.2862 1.49976ZM7.82211 14.6221C10.0024 12.4747 12.9398 11.2711 16 11.2711C19.0602 11.2711 21.9976 12.4747 24.1779 14.6221C24.5714 15.0096 25.2045 15.0048 25.5921 14.6114C25.9796 14.2179 25.9748 13.5847 25.5813 13.1972C23.0269 10.6813 19.5854 9.27107 16 9.27107C12.4146 9.27107 8.97313 10.6813 6.41869 13.1972C6.02521 13.5847 6.02039 14.2179 6.40794 14.6114C6.79548 15.0048 7.42863 15.0096 7.82211 14.6221ZM16.0003 15.412C14.0362 15.412 12.1502 16.1804 10.7453 17.553C10.3503 17.9389 9.71717 17.9316 9.33121 17.5365C8.94525 17.1415 8.95261 16.5084 9.34764 16.1224C11.1261 14.3848 13.5139 13.412 16.0003 13.412C18.4867 13.412 20.8744 14.3848 22.6529 16.1224C23.0479 16.5084 23.0553 17.1415 22.6693 17.5365C22.2834 17.9316 21.6503 17.9389 21.2552 17.553C19.8504 16.1804 17.9643 15.412 16.0003 15.412ZM16.0001 19.553C15.1304 19.553 14.2941 19.8882 13.6652 20.489C13.2658 20.8705 12.6328 20.8559 12.2513 20.4566C11.8699 20.0572 11.8844 19.4242 12.2837 19.0427C13.2848 18.0866 14.6158 17.553 16.0001 17.553C17.3845 17.553 18.7155 18.0866 19.7166 19.0427C20.1159 19.4242 20.1304 20.0572 19.749 20.4566C19.3675 20.8559 18.7345 20.8705 18.3351 20.489C17.7062 19.8882 16.8699 19.553 16.0001 19.553ZM16.0009 23.7289C16.5727 23.7289 17.0362 23.2654 17.0362 22.6937C17.0362 22.1219 16.5727 21.6585 16.0009 21.6585C15.4292 21.6585 14.9657 22.1219 14.9657 22.6937C14.9657 23.2654 15.4292 23.7289 16.0009 23.7289Z" fill="#111827"/>
</svg>
