<svg width="32" height="33" viewBox="0 0 32 33" fill="none" xmlns="http://www.w3.org/2000/svg">
<path d="M30.863 4.14713L24.2802 0.980214C23.5142 0.610225 22.6033 0.76622 22.0043 1.3652L9.39562 12.8699L3.90077 8.703C3.39078 8.31201 2.6718 8.34401 2.19782 8.776L0.437865 10.38C-0.145119 10.9059 -0.145119 11.8229 0.432865 12.3489L5.19873 16.6978L0.432865 21.0467C-0.145119 21.5727 -0.145119 22.4896 0.437865 23.0156L2.19782 24.6196C2.6768 25.0516 3.39078 25.0836 3.90077 24.6926L9.39562 20.5207L22.0103 32.0304C22.6043 32.6294 23.5152 32.7853 24.2812 32.4154L30.87 29.2434C31.563 28.9105 32 28.2125 32 27.4415V5.94708C32 5.1811 31.557 4.47812 30.865 4.14513L30.863 4.14713ZM24.0032 23.9646L14.4305 16.6988L24.0032 9.43298V23.9646Z" fill="#111827"/>
</svg>
