<svg width="33" height="33" viewBox="0 0 33 33" fill="none" xmlns="http://www.w3.org/2000/svg">
<path fill-rule="evenodd" clip-rule="evenodd" d="M5.95996 7.28296H15.96V12.283H10.96H4.95996V8.28296C4.95996 7.73067 5.40768 7.28296 5.95996 7.28296ZM22.96 12.283H17.96V7.28296H27.96C28.5122 7.28296 28.96 7.73067 28.96 8.28296V12.283H22.96ZM23.96 14.283H28.96V18.283H23.96V14.283ZM22.9534 20.283C22.9556 20.283 22.9578 20.283 22.96 20.283C22.9621 20.283 22.9643 20.283 22.9665 20.283H28.96V24.283C28.96 24.8352 28.5122 25.283 27.96 25.283H17.96V20.283H22.9534ZM21.96 18.283V14.283H11.96L11.96 18.283H16.96H21.96ZM15.96 20.283H10.9665C10.9643 20.283 10.9621 20.283 10.96 20.283C10.9578 20.283 10.9556 20.283 10.9534 20.283H4.95996V24.283C4.95996 24.8352 5.40768 25.283 5.95996 25.283H15.96V20.283ZM4.95996 18.283H9.95996L9.95996 14.283H4.95996V18.283Z" fill="#1C1B1F"/>
</svg>
