<svg width="32" height="32" viewBox="0 0 32 32" fill="none" xmlns="http://www.w3.org/2000/svg">
<path fill-rule="evenodd" clip-rule="evenodd" d="M1 4H15V11H8H0V5C0 4.44772 0.447715 4 1 4ZM24 11H17V4H31C31.5523 4 32 4.44772 32 5V11H24ZM25 13H32V19H25V13ZM23.9924 21C23.9949 21 23.9974 21 24 21C24.0026 21 24.0051 21 24.0076 21H32V27C32 27.5523 31.5523 28 31 28H17V21H23.9924ZM23 19V13H9V19H16H23ZM15 21H8.00764C8.0051 21 8.00255 21 8 21C7.99745 21 7.9949 21 7.99236 21H0V27C0 27.5523 0.447715 28 1 28H15V21ZM0 19H7L7 13H0V19Z" fill="#111827"/>
</svg>
