<svg width="33" height="33" viewBox="0 0 33 33" fill="none" xmlns="http://www.w3.org/2000/svg">
<path fill-rule="evenodd" clip-rule="evenodd" d="M3.99711 5.38191C5.16615 5.38191 6.11385 4.43421 6.11385 3.26517C6.11385 2.09613 5.16615 1.14844 3.99711 1.14844C2.82807 1.14844 1.88038 2.09613 1.88038 3.26517C1.88038 4.43421 2.82807 5.38191 3.99711 5.38191ZM32.54 11.4222C32.54 13.3859 30.9482 14.9777 28.9846 14.9777C27.021 14.9777 25.4292 13.3859 25.4292 11.4222C25.4292 9.45863 27.021 7.8668 28.9846 7.8668C30.9482 7.8668 32.54 9.45863 32.54 11.4222ZM4.09548 15.2516C6.05909 15.2516 7.65092 13.6598 7.65092 11.6962C7.65092 9.73258 6.05909 8.14076 4.09548 8.14076C2.13186 8.14076 0.540039 9.73258 0.540039 11.6962C0.540039 13.6598 2.13186 15.2516 4.09548 15.2516ZM16.5395 26.1832C18.5031 26.1832 20.095 24.5914 20.095 22.6278C20.095 20.6642 18.5031 19.0723 16.5395 19.0723C14.5759 19.0723 12.9841 20.6642 12.9841 22.6278C12.9841 24.5914 14.5759 26.1832 16.5395 26.1832ZM4.09548 31.2511C6.05909 31.2511 7.65092 29.6593 7.65092 27.6956C7.65092 25.732 6.05909 24.1402 4.09548 24.1402C2.13186 24.1402 0.540039 25.732 0.540039 27.6956C0.540039 29.6593 2.13186 31.2511 4.09548 31.2511ZM6.11385 19.5808C6.11385 20.7498 5.16615 21.6975 3.99711 21.6975C2.82807 21.6975 1.88038 20.7498 1.88038 19.5808C1.88038 18.4117 2.82807 17.464 3.99711 17.464C5.16615 17.464 6.11385 18.4117 6.11385 19.5808ZM18.6568 6.40287C18.6568 7.57192 17.7092 8.51961 16.5401 8.51961C15.3711 8.51961 14.4234 7.57192 14.4234 6.40287C14.4234 5.23383 15.3711 4.28614 16.5401 4.28614C17.7092 4.28614 18.6568 5.23383 18.6568 6.40287ZM29.0834 5.38191C30.2524 5.38191 31.2001 4.43421 31.2001 3.26517C31.2001 2.09613 30.2524 1.14844 29.0834 1.14844C27.9143 1.14844 26.9666 2.09613 26.9666 3.26517C26.9666 4.43421 27.9143 5.38191 29.0834 5.38191ZM31.2001 19.58C31.2001 20.749 30.2524 21.6967 29.0834 21.6967C27.9143 21.6967 26.9666 20.749 26.9666 19.58C26.9666 18.4109 27.9143 17.4632 29.0834 17.4632C30.2524 17.4632 31.2001 18.4109 31.2001 19.58ZM29.0834 29.813C30.2524 29.813 31.2001 28.8653 31.2001 27.6962C31.2001 26.5272 30.2524 25.5795 29.0834 25.5795C27.9143 25.5795 26.9666 26.5272 26.9666 27.6962C26.9666 28.8653 27.9143 29.813 29.0834 29.813ZM18.6568 14.56C18.6568 15.7291 17.7092 16.6768 16.5401 16.6768C15.3711 16.6768 14.4234 15.7291 14.4234 14.56C14.4234 13.391 15.3711 12.4433 16.5401 12.4433C17.7092 12.4433 18.6568 13.391 18.6568 14.56ZM16.5401 32.8129C17.7092 32.8129 18.6568 31.8652 18.6568 30.6962C18.6568 29.5271 17.7092 28.5794 16.5401 28.5794C15.3711 28.5794 14.4234 29.5271 14.4234 30.6962C14.4234 31.8652 15.3711 32.8129 16.5401 32.8129Z" fill="#111827"/>
</svg>
