<svg width="33" height="33" viewBox="0 0 33 33" fill="none" xmlns="http://www.w3.org/2000/svg">
<path fill-rule="evenodd" clip-rule="evenodd" d="M16.96 28.283C23.5874 28.283 28.96 22.9104 28.96 16.283C28.96 9.65554 23.5874 4.28296 16.96 4.28296C10.3325 4.28296 4.95996 9.65554 4.95996 16.283C4.95996 22.9104 10.3325 28.283 16.96 28.283ZM16.96 9.28296C17.5122 9.28296 17.96 9.73067 17.96 10.283V17.283C17.96 17.8352 17.5122 18.283 16.96 18.283C16.4077 18.283 15.96 17.8352 15.96 17.283V10.283C15.96 9.73067 16.4077 9.28296 16.96 9.28296ZM18.46 21.783C18.46 22.6114 17.7884 23.283 16.96 23.283C16.1315 23.283 15.46 22.6114 15.46 21.783C15.46 20.9545 16.1315 20.283 16.96 20.283C17.7884 20.283 18.46 20.9545 18.46 21.783Z" fill="#1C1B1F"/>
</svg>
