<svg width="32" height="32" viewBox="0 0 32 32" fill="none" xmlns="http://www.w3.org/2000/svg">
<path fill-rule="evenodd" clip-rule="evenodd" d="M16 32C24.8366 32 32 24.8366 32 16C32 7.16344 24.8366 0 16 0C7.16344 0 0 7.16344 0 16C0 24.8366 7.16344 32 16 32ZM16 7C16.5523 7 17 7.44772 17 8V17.3333C17 17.8856 16.5523 18.3333 16 18.3333C15.4477 18.3333 15 17.8856 15 17.3333V8C15 7.44772 15.4477 7 16 7ZM18 23.3333C18 24.4379 17.1046 25.3333 16 25.3333C14.8954 25.3333 14 24.4379 14 23.3333C14 22.2288 14.8954 21.3333 16 21.3333C17.1046 21.3333 18 22.2288 18 23.3333Z" fill="#111827"/>
</svg>
