<svg width="33" height="33" viewBox="0 0 33 33" fill="none" xmlns="http://www.w3.org/2000/svg">
<path fill-rule="evenodd" clip-rule="evenodd" d="M16.0939 7.39062C16.4788 6.72396 17.4411 6.72396 17.826 7.39063L28.0939 25.1752C28.4788 25.8419 27.9977 26.6752 27.2279 26.6752H6.69201C5.92221 26.6752 5.44109 25.8419 5.82599 25.1752L16.0939 7.39062ZM16.96 13.2002C17.5122 13.2002 17.96 13.6479 17.96 14.2002V18.8166C17.96 19.3689 17.5122 19.8166 16.96 19.8166C16.4077 19.8166 15.96 19.3689 15.96 18.8166V14.2002C15.96 13.6479 16.4077 13.2002 16.96 13.2002ZM18.3451 22.9714C18.3451 23.7362 17.725 24.3563 16.9601 24.3563C16.1952 24.3563 15.5752 23.7362 15.5752 22.9714C15.5752 22.2065 16.1952 21.5864 16.9601 21.5864C17.725 21.5864 18.3451 22.2065 18.3451 22.9714Z" fill="#1C1B1F"/>
</svg>
