<svg width="32" height="32" viewBox="0 0 32 32" fill="none" xmlns="http://www.w3.org/2000/svg">
<path fill-rule="evenodd" clip-rule="evenodd" d="M31.7075 9.10065C31.8948 9.2884 31.9999 9.54287 31.9995 9.80809L31.9854 22.2283C31.9851 22.4935 31.8795 22.7477 31.6917 22.935L22.8994 31.7075C22.7116 31.8948 22.4572 31.9999 22.1919 31.9995L9.77177 31.9854C9.50656 31.9851 9.25232 31.8795 9.065 31.6917L0.292578 22.8994C0.105255 22.7116 0.000187767 22.4572 0.000488927 22.1919L0.0145924 9.77177C0.0148935 9.50655 0.120539 9.25232 0.308288 9.065L9.10065 0.292579C9.2884 0.105256 9.54287 0.000187793 9.80809 0.000488927L22.2283 0.0145911C22.4935 0.0148923 22.7477 0.120538 22.935 0.308287L31.7075 9.10065ZM16 7.00002C16.5523 7.00002 17 7.44773 17 8.00002V17.3334C17 17.8856 16.5523 18.3334 16 18.3334C15.4477 18.3334 15 17.8856 15 17.3334V8.00002C15 7.44773 15.4477 7.00002 16 7.00002ZM18 23.3334C18 24.4379 17.1046 25.3334 16 25.3334C14.8954 25.3334 14 24.4379 14 23.3334C14 22.2288 14.8954 21.3334 16 21.3334C17.1046 21.3334 18 22.2288 18 23.3334Z" fill="#111827"/>
</svg>
