<svg width="33" height="33" viewBox="0 0 33 33" fill="none" xmlns="http://www.w3.org/2000/svg">
<path fill-rule="evenodd" clip-rule="evenodd" d="M28.6674 11.0351C28.8547 11.2229 28.9598 11.4773 28.9595 11.7426L28.9491 20.8506C28.9488 21.1158 28.8432 21.37 28.6555 21.5574L22.2078 27.9904C22.02 28.1777 21.7656 28.2828 21.5004 28.2825L12.3923 28.2721C12.1271 28.2718 11.8729 28.1662 11.6856 27.9784L5.25252 21.5308C5.0652 21.343 4.96013 21.0886 4.96043 20.8234L4.97077 11.7153C4.97107 11.4501 5.07672 11.1959 5.26447 11.0086L11.7121 4.57552C11.8999 4.3882 12.1543 4.28313 12.4196 4.28343L21.5276 4.29377C21.7928 4.29407 22.047 4.39972 22.2344 4.58747L28.6674 11.0351ZM16.96 9.28296C17.5122 9.28296 17.96 9.73067 17.96 10.283V17.283C17.96 17.8352 17.5122 18.283 16.96 18.283C16.4077 18.283 15.96 17.8352 15.96 17.283V10.283C15.96 9.73067 16.4077 9.28296 16.96 9.28296ZM18.46 21.783C18.46 22.6114 17.7884 23.283 16.96 23.283C16.1315 23.283 15.46 22.6114 15.46 21.783C15.46 20.9545 16.1315 20.283 16.96 20.283C17.7884 20.283 18.46 20.9545 18.46 21.783Z" fill="#1C1B1F"/>
</svg>
