<svg width="33" height="33" viewBox="0 0 33 33" fill="none" xmlns="http://www.w3.org/2000/svg">
<path fill-rule="evenodd" clip-rule="evenodd" d="M12.2791 4.63314C12.3532 4.14429 12.7734 3.78296 13.2678 3.78296H20.6524C21.1468 3.78296 21.5671 4.14429 21.6411 4.63314L22.5511 10.6381C24.2201 12.1576 25.2677 14.3479 25.2677 16.7829C25.2677 19.2179 24.2201 21.4082 22.5511 22.9277L21.6411 28.9328C21.5671 29.4216 21.1468 29.783 20.6524 29.783H13.2678C12.7734 29.783 12.3532 29.4216 12.2791 28.9328L11.3692 22.9279C9.7 21.4084 8.65234 19.218 8.65234 16.7829C8.65234 14.3478 9.70001 12.1574 11.3692 10.6379L12.2791 4.63314ZM13.6134 24.389L14.1277 27.783H19.7925L20.3068 24.3889C19.283 24.8401 18.1508 25.0906 16.96 25.0906C15.7694 25.0906 14.6372 24.8401 13.6134 24.389ZM19.7925 5.78296L20.3068 9.17689C19.2829 8.72572 18.1507 8.47522 16.96 8.47522C15.7694 8.47522 14.6372 8.72569 13.6134 9.17682L14.1277 5.78296H19.7925ZM17.96 12.1676C17.96 11.6153 17.5122 11.1676 16.96 11.1676C16.4077 11.1676 15.96 11.6153 15.96 12.1676V16.783C15.96 17.3353 16.4077 17.783 16.96 17.783H21.5753C22.1276 17.783 22.5753 17.3353 22.5753 16.783C22.5753 16.2307 22.1276 15.783 21.5753 15.783H17.96V12.1676Z" fill="#1C1B1F"/>
</svg>
