<svg width="32" height="33" viewBox="0 0 32 33" fill="none" xmlns="http://www.w3.org/2000/svg">
<path fill-rule="evenodd" clip-rule="evenodd" d="M10.3963 1.35103C10.4704 0.862186 10.8906 0.500854 11.385 0.500854H20.6153C21.1097 0.500854 21.5299 0.862186 21.604 1.35103L22.6969 8.56352C24.952 10.4683 26.3842 13.3169 26.3842 16.4999C26.3842 19.6829 24.952 22.5315 22.6969 24.4363L21.604 31.6488C21.5299 32.1377 21.1097 32.499 20.6153 32.499H11.385C10.8906 32.499 10.4704 32.1377 10.3963 31.6488L9.3034 24.4362C7.04835 22.5314 5.61621 19.6829 5.61621 16.4999C5.61621 13.3169 7.04835 10.4684 9.30341 8.5636L10.3963 1.35103ZM11.5454 25.8825L12.2449 30.499H19.7554L20.4549 25.8825C19.105 26.5246 17.5945 26.8839 16.0002 26.8839C14.4058 26.8839 12.8954 26.5246 11.5454 25.8825ZM19.7554 2.50085L20.4549 7.1173C19.105 6.47523 17.5945 6.11592 16.0002 6.11592C14.4058 6.11592 12.8954 6.47525 11.5454 7.11735L12.2449 2.50085H19.7554ZM16.9997 10.731C16.9997 10.1787 16.552 9.73099 15.9997 9.73099C15.4474 9.73099 14.9997 10.1787 14.9997 10.731V16.4999C14.9997 17.0522 15.4474 17.4999 15.9997 17.4999H21.7686C22.3209 17.4999 22.7686 17.0522 22.7686 16.4999C22.7686 15.9476 22.3209 15.4999 21.7686 15.4999H16.9997V10.731Z" fill="#111827"/>
</svg>
