<svg width="32" height="33" viewBox="0 0 32 33" fill="none" xmlns="http://www.w3.org/2000/svg">
<path fill-rule="evenodd" clip-rule="evenodd" d="M16.9986 25.5044C23.3087 24.9959 28.271 19.7139 28.271 13.2729C28.271 6.49542 22.7768 1.00122 15.9994 1.00122C9.22195 1.00122 3.72775 6.49542 3.72775 13.2729C3.72775 19.7139 8.6901 24.996 15.0002 25.5044C14.9997 25.5178 14.9994 25.5312 14.9994 25.5447V29.9987H1.00098C0.448692 29.9987 0.000976562 30.4464 0.000976562 30.9987C0.000976562 31.551 0.448692 31.9987 1.00098 31.9987H15.9915L15.9994 31.9987L16.0074 31.9987H30.9983C31.5506 31.9987 31.9983 31.551 31.9983 30.9987C31.9983 30.4464 31.5506 29.9987 30.9983 29.9987H16.9994V25.5447C16.9994 25.5312 16.9992 25.5178 16.9986 25.5044ZM15.9991 18.727C19.0112 18.727 21.4531 16.2851 21.4531 13.2729C21.4531 10.2607 19.0112 7.81888 15.9991 7.81888C12.9869 7.81888 10.545 10.2607 10.545 13.2729C10.545 16.2851 12.9869 18.727 15.9991 18.727Z" fill="#111827"/>
</svg>
