<svg width="32" height="32" viewBox="0 0 32 32" fill="none" xmlns="http://www.w3.org/2000/svg">
<path fill-rule="evenodd" clip-rule="evenodd" d="M18.1425 3.27679C17.1605 3.02449 16.127 3.05583 15.162 3.36718C14.1971 3.67852 13.3402 4.25711 12.6907 5.0358C12.0413 5.8145 11.626 6.76138 11.493 7.76657C11.36 8.77177 11.5148 9.79407 11.9393 10.7149C12.3639 11.6357 13.0408 12.4172 13.8916 12.9688C14.3551 13.2692 14.4872 13.8884 14.1867 14.3519C14.1587 14.3951 14.1279 14.4354 14.0947 14.4728L9.7817 21.5882C10.7745 22.7854 10.7101 24.5641 9.58836 25.6858C8.39826 26.8759 6.46872 26.8759 5.27862 25.6858C4.08852 24.4957 4.08852 22.5662 5.27862 21.376C6.03699 20.6177 7.09563 20.3426 8.07185 20.5507L12.0103 14.0532C11.212 13.3671 10.5671 12.5152 10.1231 11.5523C9.54018 10.288 9.3277 8.88438 9.51031 7.50423C9.69291 6.12409 10.2631 4.82401 11.1548 3.75485C12.0464 2.68569 13.223 1.89128 14.5479 1.4638C15.8728 1.03632 17.2918 0.993285 18.6402 1.3397C19.9886 1.68611 21.2111 2.40777 22.1659 3.42093C23.1207 4.4341 23.7687 5.69723 24.0346 7.06378C24.3005 8.43033 24.1734 9.84426 23.6682 11.1415C23.4678 11.6562 22.8881 11.9109 22.3735 11.7104C21.8588 11.51 21.6041 10.9303 21.8046 10.4157C22.1725 9.47087 22.2651 8.44107 22.0714 7.44578C21.8777 6.45049 21.4058 5.53052 20.7104 4.79261C20.015 4.05469 19.1246 3.52909 18.1425 3.27679ZM21.7739 18.8079C21.4289 18.7965 21.0991 18.6065 20.9245 18.2802L17.284 11.4802C17.1289 11.5045 16.9699 11.5172 16.808 11.5172C15.125 11.5172 13.7606 10.1528 13.7606 8.46972C13.7606 6.78666 15.125 5.42227 16.808 5.42227C18.4911 5.42227 19.8555 6.78666 19.8555 8.46972C19.8555 9.26737 19.549 9.99345 19.0474 10.5366L22.2716 16.5591C23.259 16.224 24.3099 16.1012 25.3546 16.2034C26.7083 16.3359 27.9988 16.8407 29.083 17.662C30.1671 18.4832 31.0026 19.5888 31.4967 20.856C31.9908 22.1232 32.1241 23.5025 31.882 24.8408C31.6398 26.1792 31.0316 27.4243 30.1249 28.4381C29.2181 29.4518 28.0482 30.1946 26.745 30.5839C25.4418 30.9732 24.0562 30.9938 22.742 30.6436C21.4278 30.2933 20.2363 29.5858 19.2997 28.5995C18.9194 28.199 18.9357 27.5661 19.3362 27.1858C19.7367 26.8055 20.3696 26.8218 20.7499 27.2223C21.4321 27.9406 22.2999 28.4559 23.2571 28.711C24.2143 28.9661 25.2234 28.9511 26.1726 28.6675C27.1217 28.384 27.9738 27.8431 28.6342 27.1047C29.2946 26.3664 29.7376 25.4595 29.9139 24.4848C30.0903 23.51 29.9932 22.5054 29.6333 21.5825C29.2735 20.6596 28.665 19.8544 27.8753 19.2562C27.0857 18.6581 26.1458 18.2904 25.1599 18.1939C24.174 18.0975 23.1807 18.2761 22.2901 18.7098C22.1237 18.7908 21.9459 18.8216 21.7739 18.8079ZM22.4827 25.6858C22.1458 25.3489 21.9043 24.9528 21.7581 24.5309H14.646C14.4909 25.5885 14.1068 26.6033 13.5165 27.5026C12.7702 28.6396 11.7234 29.5477 10.4924 30.126C9.26138 30.7043 7.89419 30.9303 6.54254 30.7788C5.19089 30.6274 3.90761 30.1045 2.83508 29.2681C1.76255 28.4317 0.942698 27.3145 0.466481 26.0405C-0.00973568 24.7665 -0.123698 23.3854 0.137238 22.0506C0.398173 20.7157 1.02381 19.4793 1.94472 18.4784C2.86564 17.4775 4.04584 16.7513 5.35438 16.3803C5.88573 16.2297 6.43858 16.5383 6.58921 17.0697C6.73984 17.601 6.43121 18.1539 5.89986 18.3045C4.94681 18.5747 4.08725 19.1036 3.41652 19.8326C2.74579 20.5615 2.29013 21.4621 2.10009 22.4343C1.91004 23.4065 1.99304 24.4123 2.33988 25.3402C2.68672 26.2681 3.28384 27.0818 4.06499 27.691C4.84614 28.3001 5.78078 28.681 6.76522 28.7913C7.74966 28.9016 8.74541 28.737 9.642 28.3158L10.0672 29.2209L9.642 28.3158C10.5386 27.8946 11.301 27.2332 11.8445 26.4051C12.3881 25.5769 12.6917 24.6144 12.7215 23.6243C12.7251 23.5031 12.7502 23.3876 12.7929 23.2813C12.9038 22.8498 13.2954 22.5309 13.7615 22.5309H21.7581C21.9043 22.1091 22.1458 21.7129 22.4827 21.376C23.6728 20.1859 25.6023 20.1859 26.7924 21.376C27.9825 22.5662 27.9825 24.4957 26.7924 25.6858C25.6023 26.8759 23.6728 26.8759 22.4827 25.6858Z" fill="#111827"/>
</svg>
