<svg width="32" height="33" viewBox="0 0 32 33" fill="none" xmlns="http://www.w3.org/2000/svg">
<path fill-rule="evenodd" clip-rule="evenodd" d="M18.1425 3.77679C17.1605 3.52449 16.127 3.55583 15.162 3.86718C14.1971 4.17852 13.3402 4.75711 12.6907 5.5358C12.0413 6.3145 11.626 7.26138 11.493 8.26657C11.36 9.27177 11.5148 10.2941 11.9393 11.2149C12.3639 12.1357 13.0408 12.9172 13.8916 13.4688C14.3551 13.7692 14.4872 14.3884 14.1867 14.8519C14.1587 14.8951 14.1279 14.9354 14.0947 14.9728L9.7817 22.0882C10.7745 23.2854 10.7101 25.0641 9.58836 26.1858C8.39826 27.3759 6.46872 27.3759 5.27862 26.1858C4.08852 24.9957 4.08852 23.0662 5.27862 21.876C6.03699 21.1177 7.09563 20.8426 8.07185 21.0507L12.0103 14.5532C11.212 13.8671 10.5671 13.0152 10.1231 12.0523C9.54018 10.788 9.3277 9.38438 9.51031 8.00423C9.69291 6.62409 10.2631 5.32401 11.1548 4.25485C12.0464 3.18569 13.223 2.39128 14.5479 1.9638C15.8728 1.53632 17.2918 1.49328 18.6402 1.8397C19.9886 2.18611 21.2111 2.90777 22.1659 3.92093C23.1207 4.9341 23.7687 6.19723 24.0346 7.56378C24.3005 8.93033 24.1734 10.3443 23.6682 11.6415C23.4678 12.1562 22.8881 12.4109 22.3735 12.2104C21.8588 12.01 21.6041 11.4303 21.8046 10.9157C22.1725 9.97087 22.2651 8.94107 22.0714 7.94578C21.8777 6.95049 21.4058 6.03052 20.7104 5.29261C20.015 4.55469 19.1246 4.02909 18.1425 3.77679ZM21.7739 19.3079C21.4289 19.2965 21.0991 19.1065 20.9245 18.7802L17.284 11.9802C17.1289 12.0045 16.9699 12.0172 16.808 12.0172C15.125 12.0172 13.7606 10.6528 13.7606 8.96972C13.7606 7.28666 15.125 5.92227 16.808 5.92227C18.4911 5.92227 19.8555 7.28666 19.8555 8.96972C19.8555 9.76737 19.549 10.4934 19.0474 11.0366L22.2716 17.0591C23.259 16.724 24.3099 16.6012 25.3546 16.7034C26.7083 16.8359 27.9988 17.3407 29.083 18.162C30.1671 18.9832 31.0026 20.0888 31.4967 21.356C31.9908 22.6232 32.1241 24.0025 31.882 25.3408C31.6398 26.6792 31.0316 27.9243 30.1249 28.9381C29.2181 29.9518 28.0482 30.6946 26.745 31.0839C25.4418 31.4732 24.0562 31.4938 22.742 31.1436C21.4278 30.7933 20.2363 30.0858 19.2997 29.0995C18.9194 28.699 18.9357 28.0661 19.3362 27.6858C19.7367 27.3055 20.3696 27.3218 20.7499 27.7223C21.4321 28.4406 22.2999 28.9559 23.2571 29.211C24.2143 29.4661 25.2234 29.4511 26.1726 29.1675C27.1217 28.884 27.9738 28.3431 28.6342 27.6047C29.2946 26.8664 29.7376 25.9595 29.9139 24.9848C30.0903 24.01 29.9932 23.0054 29.6333 22.0825C29.2735 21.1596 28.665 20.3544 27.8753 19.7562C27.0857 19.1581 26.1458 18.7904 25.1599 18.6939C24.174 18.5975 23.1807 18.7761 22.2901 19.2098C22.1237 19.2908 21.9459 19.3216 21.7739 19.3079ZM22.4827 26.1858C22.1458 25.8489 21.9043 25.4528 21.7581 25.0309H14.646C14.4909 26.0885 14.1068 27.1033 13.5165 28.0026C12.7702 29.1396 11.7234 30.0477 10.4924 30.626C9.26138 31.2043 7.89419 31.4303 6.54254 31.2788C5.19089 31.1274 3.90761 30.6045 2.83508 29.7681C1.76255 28.9317 0.942698 27.8145 0.466481 26.5405C-0.00973568 25.2665 -0.123698 23.8854 0.137238 22.5506C0.398173 21.2157 1.02381 19.9793 1.94472 18.9784C2.86564 17.9775 4.04584 17.2513 5.35438 16.8803C5.88573 16.7297 6.43858 17.0383 6.58921 17.5697C6.73984 18.101 6.43121 18.6539 5.89986 18.8045C4.94681 19.0747 4.08725 19.6036 3.41652 20.3326C2.74579 21.0615 2.29013 21.9621 2.10009 22.9343C1.91004 23.9065 1.99304 24.9123 2.33988 25.8402C2.68672 26.7681 3.28384 27.5818 4.06499 28.191C4.84614 28.8001 5.78078 29.181 6.76522 29.2913C7.74966 29.4016 8.74541 29.237 9.642 28.8158L10.0672 29.7209L9.642 28.8158C10.5386 28.3946 11.301 27.7332 11.8445 26.9051C12.3881 26.0769 12.6917 25.1144 12.7215 24.1243C12.7251 24.0031 12.7502 23.8876 12.7929 23.7813C12.9038 23.3498 13.2954 23.0309 13.7615 23.0309H21.7581C21.9043 22.6091 22.1458 22.2129 22.4827 21.876C23.6728 20.6859 25.6023 20.6859 26.7924 21.876C27.9825 23.0662 27.9825 24.9957 26.7924 26.1858C25.6023 27.3759 23.6728 27.3759 22.4827 26.1858Z" fill="#111827"/>
</svg>
