<svg width="33" height="33" viewBox="0 0 33 33" fill="none" xmlns="http://www.w3.org/2000/svg">
<path d="M10.1069 22.3075L14.8218 14.5292" stroke="#1C1B1F" stroke-width="2" stroke-linecap="round"/>
<path d="M17.606 10.2586L21.6055 17.7291" stroke="#1C1B1F" stroke-width="2" stroke-linecap="round"/>
<path d="M15.1689 22.3075L23.8701 22.3075" stroke="#1C1B1F" stroke-width="2" stroke-linecap="round"/>
<path d="M14.8379 14.5292C14.0303 14.0056 13.3877 13.2638 12.9847 12.3897C12.5817 11.5157 12.4348 10.5453 12.5611 9.5911C12.6873 8.63694 13.0815 7.73814 13.698 6.99898C14.3144 6.25981 15.1278 5.7106 16.0438 5.41506C16.9598 5.11952 17.9408 5.08977 18.873 5.32927C19.8052 5.56876 20.6504 6.06767 21.3105 6.76812C21.9706 7.46857 22.4186 8.34184 22.6024 9.2866C22.7862 10.2314 22.6984 11.2089 22.3491 12.1057" stroke="#1C1B1F" stroke-width="2" stroke-linecap="round"/>
<path d="M21.6416 17.7316C22.487 17.3199 23.4299 17.1504 24.3658 17.242C25.3016 17.3335 26.1938 17.6825 26.9433 18.2503C27.6929 18.8181 28.2705 19.5824 28.6121 20.4585C28.9536 21.3345 29.0458 22.2881 28.8784 23.2134C28.711 24.1387 28.2905 24.9995 27.6636 25.7004C27.0368 26.4012 26.228 26.9147 25.327 27.1838C24.426 27.453 23.4681 27.4673 22.5595 27.2251C21.6509 26.9829 20.8272 26.4938 20.1797 25.812" stroke="#1C1B1F" stroke-width="2" stroke-linecap="round"/>
<path d="M8.66136 17.3569C7.7567 17.6134 6.94078 18.1155 6.3041 18.8074C5.66743 19.4994 5.2349 20.3542 5.0545 21.2771C4.87411 22.1999 4.95289 23.1547 5.28212 24.0355C5.61136 24.9163 6.17816 25.6886 6.91965 26.2669C7.66114 26.8451 8.54833 27.2066 9.48279 27.3113C10.4173 27.416 11.3625 27.2598 12.2135 26.86C13.0646 26.4601 13.7883 25.8324 14.3042 25.0463C14.8202 24.2602 15.1084 23.3465 15.1366 22.4066" stroke="#1C1B1F" stroke-width="2" stroke-linecap="round"/>
<circle cx="17.6065" cy="10.2586" r="2.43802" fill="#1C1B1F"/>
<circle cx="23.8705" cy="22.3075" r="2.43802" transform="rotate(135 23.8705 22.3075)" fill="#1C1B1F"/>
<circle cx="2.43802" cy="2.43802" r="2.43802" transform="matrix(0.707107 0.707107 0.707107 -0.707107 6.65869 22.3075)" fill="#1C1B1F"/>
</svg>
