<svg width="33" height="33" viewBox="0 0 33 33" fill="none" xmlns="http://www.w3.org/2000/svg">
<path fill-rule="evenodd" clip-rule="evenodd" d="M5.17029 14.0462C4.62537 16.9185 5.14772 19.8909 6.63926 22.4052L6.63935 22.4052L5.45469 26.5515C5.40568 26.723 5.40343 26.9045 5.44818 27.0772C5.49294 27.25 5.58306 27.4075 5.70922 27.5337C5.83537 27.6599 5.99297 27.75 6.16567 27.7947C6.33838 27.8395 6.51991 27.8372 6.69146 27.7882L10.8378 26.6036L10.8377 26.6037C13.3521 28.0952 16.3245 28.6176 19.1968 28.0726C22.069 27.5277 24.6436 25.9529 26.4369 23.6441C28.2303 21.3353 29.1191 18.4512 28.9365 15.5334C28.7539 12.6156 27.5124 9.86488 25.4452 7.79766C23.378 5.73045 20.6272 4.48899 17.7094 4.3064C14.7916 4.12381 11.9076 5.01266 9.59875 6.80604C7.28994 8.59941 5.71522 11.174 5.17029 14.0462ZM16.1442 22.5221C17.3606 23.0249 18.6641 23.2828 19.9803 23.2809C20.9057 23.2745 21.7911 22.9031 22.4441 22.2474C23.0971 21.5917 23.4649 20.7048 23.4676 19.7794C23.4676 19.6275 23.4274 19.4782 23.3511 19.3468C23.2748 19.2154 23.1652 19.1065 23.0332 19.0311L20.4748 17.5691C20.3205 17.4809 20.1455 17.4354 19.9678 17.4373C19.7901 17.4392 19.6161 17.4884 19.4637 17.5798L17.5068 18.754C16.1663 18.1499 15.0929 17.0765 14.4889 15.736L15.663 13.7791C15.7544 13.6267 15.8036 13.4527 15.8055 13.275C15.8074 13.0973 15.7619 12.9223 15.6737 12.7681L14.2118 10.2096C14.1364 10.0776 14.0274 9.96798 13.896 9.89171C13.7646 9.81544 13.6153 9.77527 13.4634 9.77527C12.537 9.77448 11.648 10.1412 10.9916 10.7949C10.3352 11.4487 9.9649 12.3361 9.96192 13.2625C9.96005 14.5787 10.2179 15.8823 10.7207 17.0986C11.2235 18.3149 11.9614 19.4201 12.8921 20.3507C13.8227 21.2814 14.9279 22.0193 16.1442 22.5221Z" fill="#1C1B1F"/>
</svg>
