<svg width="33" height="33" viewBox="0 0 33 33" fill="none" xmlns="http://www.w3.org/2000/svg">
<path fill-rule="evenodd" clip-rule="evenodd" d="M5.17029 14.1877C4.62537 17.0599 5.14772 20.0323 6.63926 22.5467L6.63935 22.5466L5.45469 26.6929C5.40568 26.8645 5.40343 27.046 5.44818 27.2187C5.49294 27.3914 5.58306 27.549 5.70922 27.6752C5.83537 27.8013 5.99297 27.8915 6.16567 27.9362C6.33838 27.981 6.51991 27.9787 6.69146 27.9297L10.8378 26.745L10.8377 26.7452C13.3521 28.2367 16.3245 28.759 19.1968 28.2141C22.069 27.6692 24.6436 26.0944 26.4369 23.7856C28.2303 21.4768 29.1191 18.5927 28.9365 15.6749C28.7539 12.7571 27.5124 10.0064 25.4452 7.93914C23.378 5.87193 20.6272 4.63047 17.7094 4.44788C14.7916 4.26529 11.9076 5.15414 9.59875 6.94752C7.28994 8.74089 5.71522 11.3154 5.17029 14.1877ZM16.1442 22.6636C17.3606 23.1664 18.6641 23.4242 19.9803 23.4224C20.9057 23.416 21.7911 23.0446 22.4441 22.3889C23.0971 21.7332 23.4649 20.8463 23.4676 19.9209C23.4676 19.769 23.4274 19.6197 23.3511 19.4883C23.2748 19.3569 23.1652 19.2479 23.0332 19.1725L20.4748 17.7106C20.3205 17.6224 20.1455 17.5769 19.9678 17.5788C19.7901 17.5807 19.6161 17.6299 19.4637 17.7213L17.5068 18.8954C16.1663 18.2914 15.0929 17.218 14.4889 15.8775L15.663 13.9206C15.7544 13.7682 15.8036 13.5942 15.8055 13.4165C15.8074 13.2388 15.7619 13.0638 15.6737 12.9095L14.2118 10.351C14.1364 10.2191 14.0274 10.1095 13.896 10.0332C13.7646 9.95692 13.6153 9.91675 13.4634 9.91675C12.537 9.91596 11.648 10.2827 10.9916 10.9364C10.3352 11.5902 9.9649 12.4776 9.96192 13.404C9.96005 14.7202 10.2179 16.0237 10.7207 17.2401C11.2235 18.4564 11.9614 19.5616 12.8921 20.4922C13.8227 21.4229 14.9279 22.1608 16.1442 22.6636Z" fill="#1C1B1F"/>
</svg>
