<svg width="33" height="33" viewBox="0 0 33 33" fill="none" xmlns="http://www.w3.org/2000/svg">
<path fill-rule="evenodd" clip-rule="evenodd" d="M12.837 9.22947C13.5959 8.83904 14.115 8.04808 14.115 7.13588C14.115 5.8364 13.0616 4.78296 11.7621 4.78296C10.4626 4.78296 9.40918 5.8364 9.40918 7.13588C9.40918 8.13003 10.0257 8.98017 10.8973 9.32479C10.8852 9.38695 10.8789 9.45116 10.8789 9.51685V12.9214C9.8654 13.1433 8.89576 13.5494 8.02004 14.1247C6.62909 15.0385 5.53586 16.3393 4.87504 17.8667C4.21422 19.3941 4.01469 21.0815 4.30103 22.721C4.58737 24.3604 5.34707 25.8803 6.48652 27.0933C7.62598 28.3063 9.09541 29.1594 10.7138 29.5476C12.3321 29.9358 14.0287 29.8421 15.5944 29.278C17.1601 28.7139 18.5266 27.704 19.5255 26.3729C20.5244 25.0417 21.1121 23.4474 21.2161 21.7864C21.2506 21.2352 20.8317 20.7604 20.2805 20.7259C19.7293 20.6914 19.2545 21.1102 19.22 21.6615C19.1404 22.933 18.6905 24.1534 17.9259 25.1725C17.1612 26.1915 16.1151 26.9645 14.9165 27.3964C13.7179 27.8282 12.4191 27.9 11.1803 27.6028C9.94139 27.3056 8.81652 26.6525 7.94424 25.7239C7.07196 24.7954 6.4904 23.6319 6.2712 22.3769C6.052 21.1218 6.20475 19.8301 6.71062 18.6608C7.21649 17.4915 8.05338 16.4958 9.11818 15.7963C9.66428 15.4375 10.2581 15.1647 10.8789 14.9841V18.0517C10.8789 18.604 11.3266 19.0517 11.8789 19.0517H21.3687L24.8773 25.8818C25.1037 26.3225 25.6187 26.531 26.0879 26.3719L29.0675 25.3619C29.5905 25.1846 29.8708 24.6168 29.6935 24.0938C29.5162 23.5707 28.9484 23.2905 28.4254 23.4678L26.2624 24.201L22.8687 17.5948C22.6974 17.2613 22.3541 17.0517 21.9792 17.0517H12.8789V14.724H19.2913C19.8436 14.724 20.2913 14.2763 20.2913 13.724C20.2913 13.1717 19.8436 12.724 19.2913 12.724H12.8789V9.51685C12.8789 9.41696 12.8643 9.32049 12.837 9.22947Z" fill="#1C1B1F"/>
</svg>
