<svg width="32" height="33" viewBox="0 0 32 33" fill="none" xmlns="http://www.w3.org/2000/svg">
<path fill-rule="evenodd" clip-rule="evenodd" d="M10.5017 6.50255C11.6022 6.05988 12.3792 4.98242 12.3792 3.72351C12.3792 2.06982 11.0386 0.729248 9.38491 0.729248C7.73122 0.729248 6.39065 2.06982 6.39065 3.72351C6.39065 5.08575 7.30034 6.23552 8.54539 6.59848C8.53753 6.64899 8.53344 6.70075 8.53344 6.75347V11.3077C7.1986 11.5712 5.92058 12.091 4.77265 12.8451C3.04702 13.9788 1.69073 15.5925 0.87091 17.4874C0.0510862 19.3824 -0.196457 21.4758 0.15878 23.5097C0.514017 25.5436 1.45651 27.4292 2.87014 28.9341C4.28377 30.439 6.10677 31.4974 8.11452 31.979C10.1223 32.4606 12.2271 32.3443 14.1695 31.6445C16.112 30.9446 17.8073 29.6918 19.0466 28.0403C20.2858 26.3889 21.0148 24.411 21.1439 22.3503C21.1784 21.7991 20.7595 21.3243 20.2083 21.2898C19.6571 21.2553 19.1823 21.6741 19.1478 22.2253C19.0431 23.8965 18.4519 25.5006 17.4469 26.8399C16.4418 28.1792 15.067 29.1953 13.4916 29.7629C11.9163 30.3304 10.2093 30.4247 8.58103 30.0342C6.95275 29.6436 5.47431 28.7852 4.32786 27.5647C3.18141 26.3443 2.41705 24.8151 2.12896 23.1656C1.84086 21.5161 2.04162 19.8184 2.70649 18.2816C3.37136 16.7448 4.4713 15.436 5.87079 14.5167C6.69012 13.9784 7.59118 13.5873 8.53344 13.3556V17.6147C8.53344 18.167 8.98116 18.6147 9.53344 18.6147H21.7763L26.3173 27.4545C26.5437 27.8952 27.0587 28.1037 27.5279 27.9446L31.3196 26.6593C31.8427 26.482 32.1229 25.9142 31.9456 25.3912C31.7683 24.8681 31.2006 24.5879 30.6775 24.7652L27.7024 25.7737L23.2763 17.1577C23.105 16.8243 22.7617 16.6147 22.3868 16.6147H10.5334V13.1075C10.5498 13.1074 10.5662 13.1073 10.5826 13.1073H10.5826H18.9665C19.5188 13.1073 19.9665 12.6596 19.9665 12.1073C19.9665 11.5551 19.5188 11.1073 18.9665 11.1073H10.5826H10.5826C10.5662 11.1073 10.5498 11.1074 10.5334 11.1075V6.75347C10.5334 6.66681 10.5224 6.58274 10.5017 6.50255Z" fill="#111827"/>
</svg>
