<svg width="33" height="33" viewBox="0 0 33 33" fill="none" xmlns="http://www.w3.org/2000/svg">
<path fill-rule="evenodd" clip-rule="evenodd" d="M17.7963 7.87169L17.7964 7.87169C18.3884 7.86837 19.019 7.86483 19.479 7.91455C20.0281 7.97391 20.5213 7.5769 20.5807 7.02782C20.64 6.47873 20.243 5.98549 19.6939 5.92614C19.1073 5.86272 18.3189 5.86784 17.7269 5.87169C17.6005 5.87251 17.483 5.87328 17.3784 5.8733C12.4661 5.86285 7.74901 7.79591 4.25669 11.2506C3.86406 11.639 3.86063 12.2722 4.24904 12.6648C4.63744 13.0575 5.2706 13.0609 5.66323 12.6725C8.78033 9.58894 12.9907 7.86368 17.3752 7.8733L17.3776 7.8733C17.513 7.87328 17.6535 7.87249 17.7963 7.87169ZM29.6669 7.58C30.0574 7.18948 30.0574 6.55631 29.6669 6.16579C29.2763 5.77526 28.6432 5.77526 28.2526 6.16579L26.0643 8.35408L23.8761 6.16579C23.4855 5.77526 22.8524 5.77526 22.4618 6.16579C22.0713 6.55631 22.0713 7.18948 22.4618 7.58L24.6501 9.7683L22.4618 11.9566C22.0713 12.3471 22.0713 12.9803 22.4618 13.3708C22.8524 13.7613 23.4855 13.7613 23.8761 13.3708L26.0643 11.1825L28.2526 13.3708C28.6432 13.7613 29.2763 13.7613 29.6669 13.3708C30.0574 12.9803 30.0574 12.3471 29.6669 11.9566L27.4786 9.7683L29.6669 7.58ZM13.8367 20.874C14.7904 19.9631 16.0584 19.4548 17.3772 19.4548C18.696 19.4548 19.964 19.9631 20.9177 20.874C21.3171 21.2555 21.9501 21.241 22.3315 20.8416C22.713 20.4422 22.6985 19.8092 22.2991 19.4278C20.9734 18.1614 19.2106 17.4548 17.3772 17.4548C15.5438 17.4548 13.781 18.1614 12.4553 19.4278C12.0559 19.8092 12.0414 20.4422 12.4229 20.8416C12.8043 21.241 13.4373 21.2555 13.8367 20.874ZM17.8072 13.6614H17.8072H17.8071C17.6718 13.6627 17.5293 13.664 17.3776 13.6641L17.3745 13.6641C14.5241 13.6565 11.7855 14.7723 9.75201 16.7697C9.358 17.1567 8.72486 17.151 8.33785 16.757C7.95084 16.363 7.95652 15.7298 8.35053 15.3428C10.759 12.9772 14.0024 11.6555 17.3783 11.6641C17.4831 11.664 17.5942 11.6627 17.7101 11.6614C18.2321 11.6554 18.8537 11.6482 19.462 11.7469C20.0071 11.8353 20.3774 12.3489 20.289 12.8941C20.2005 13.4392 19.6869 13.8095 19.1418 13.7211C18.7199 13.6526 18.3129 13.6565 17.8072 13.6614ZM18.8261 24.2453C18.8261 25.0448 18.1779 25.693 17.3784 25.693C16.5788 25.693 15.9307 25.0448 15.9307 24.2453C15.9307 23.4457 16.5788 22.7976 17.3784 22.7976C18.1779 22.7976 18.8261 23.4457 18.8261 24.2453Z" fill="#1C1B1F"/>
</svg>
