<svg width="32" height="32" viewBox="0 0 32 32" fill="none" xmlns="http://www.w3.org/2000/svg">
<path fill-rule="evenodd" clip-rule="evenodd" d="M11.5804 21.8951C12.771 20.7579 14.3541 20.1233 16.0005 20.1233C17.647 20.1233 19.2301 20.7579 20.4207 21.8951C20.8201 22.2766 21.4531 22.2621 21.8345 21.8627C22.216 21.4633 22.2015 20.8303 21.8021 20.4489C20.2394 18.9562 18.1616 18.1233 16.0005 18.1233C13.8395 18.1233 11.7616 18.9562 10.1989 20.4489C9.79956 20.8303 9.78505 21.4633 10.1665 21.8627C10.548 22.2621 11.181 22.2766 11.5804 21.8951ZM17.7504 26.1176C17.7504 27.0834 16.9675 27.8663 16.0018 27.8663C15.036 27.8663 14.2531 27.0834 14.2531 26.1176C14.2531 25.1518 15.036 24.3689 16.0018 24.3689C16.9675 24.3689 17.7504 25.1518 17.7504 26.1176Z" fill="#111827"/>
</svg>
