<svg width="33" height="33" viewBox="0 0 33 33" fill="none" xmlns="http://www.w3.org/2000/svg">
<path fill-rule="evenodd" clip-rule="evenodd" d="M13.5618 15.6477C14.4771 14.7734 15.6942 14.2855 16.9601 14.2855C18.2259 14.2855 19.443 14.7734 20.3583 15.6477C20.7577 16.0292 21.3907 16.0147 21.7721 15.6153C22.1536 15.2159 22.1391 14.5829 21.7397 14.2015C20.4523 12.9717 18.7404 12.2855 16.9601 12.2855C15.1797 12.2855 13.4678 12.9717 12.1804 14.2015C11.781 14.5829 11.7665 15.2159 12.148 15.6153C12.5294 16.0147 13.1624 16.0292 13.5618 15.6477ZM18.3601 18.8813C18.3601 19.654 17.7337 20.2804 16.961 20.2804C16.1884 20.2804 15.562 19.654 15.562 18.8813C15.562 18.1087 16.1884 17.4823 16.961 17.4823C17.7337 17.4823 18.3601 18.1087 18.3601 18.8813Z" fill="#1C1B1F"/>
</svg>
