<svg width="33" height="33" viewBox="0 0 33 33" fill="none" xmlns="http://www.w3.org/2000/svg">
<path fill-rule="evenodd" clip-rule="evenodd" d="M16.96 8.68945C12.7321 8.68945 8.67387 10.3524 5.66167 13.3191C5.26819 13.7067 4.63504 13.7018 4.2475 13.3084C3.85995 12.9149 3.86477 12.2817 4.25825 11.8942C7.64461 8.55894 12.2069 6.68945 16.96 6.68945C21.713 6.68945 26.2753 8.55894 29.6617 11.8942C30.0552 12.2817 30.06 12.9149 29.6724 13.3084C29.2849 13.7018 28.6517 13.7067 28.2583 13.3191C25.2461 10.3524 21.1878 8.68945 16.96 8.68945ZM9.61291 17.2789C11.5771 15.3599 14.2141 14.2855 16.9601 14.2855C19.7061 14.2855 22.3431 15.3599 24.3072 17.2789C24.7023 17.6649 25.3354 17.6575 25.7214 17.2625C26.1073 16.8675 26.1 16.2343 25.7049 15.8484C23.3671 13.5643 20.2285 12.2855 16.9601 12.2855C13.6917 12.2855 10.553 13.5643 8.21522 15.8484C7.82018 16.2343 7.81283 16.8675 8.19879 17.2625C8.58475 17.6575 9.21787 17.6649 9.61291 17.2789ZM13.5618 21.2439C14.4771 20.3696 15.6942 19.8817 16.9601 19.8817C18.2259 19.8817 19.443 20.3696 20.3583 21.2439C20.7577 21.6254 21.3907 21.6109 21.7721 21.2115C22.1536 20.8121 22.1391 20.1791 21.7397 19.7977C20.4523 18.5679 18.7404 17.8817 16.9601 17.8817C15.1797 17.8817 13.4678 18.5679 12.1804 19.7977C11.781 20.1791 11.7665 20.8121 12.148 21.2115C12.5294 21.6109 13.1624 21.6254 13.5618 21.2439ZM18.3601 24.4775C18.3601 25.2502 17.7337 25.8766 16.961 25.8766C16.1884 25.8766 15.562 25.2502 15.562 24.4775C15.562 23.7049 16.1884 23.0785 16.961 23.0785C17.7337 23.0785 18.3601 23.7049 18.3601 24.4775Z" fill="#1C1B1F"/>
</svg>
