<svg width="32" height="32" viewBox="0 0 32 32" fill="none" xmlns="http://www.w3.org/2000/svg">
<path fill-rule="evenodd" clip-rule="evenodd" d="M16.5222 5.7406C16.6873 5.74057 16.86 5.73958 17.0366 5.73858C17.7774 5.73436 18.5851 5.72976 19.1757 5.79361C19.7248 5.85296 20.218 5.45596 20.2774 4.90687C20.3368 4.35779 19.9398 3.86455 19.3907 3.80519C18.6734 3.72765 17.7079 3.73384 16.9672 3.73858L16.9672 3.73858L16.9672 3.73858C16.807 3.73961 16.6574 3.74057 16.523 3.7406C10.4488 3.7276 4.61603 6.11784 0.297706 10.3897C-0.0949256 10.7781 -0.0983512 11.4113 0.290055 11.8039C0.67846 12.1965 1.31162 12.1999 1.70425 11.8115C5.64735 7.91087 10.9734 5.72843 16.5199 5.7406L16.5222 5.7406ZM31.7064 5.44736C32.0969 5.05683 32.0969 4.42367 31.7064 4.03315C31.3159 3.64262 30.6827 3.64262 30.2922 4.03315L27.3802 6.94511L24.4682 4.03315C24.0777 3.64262 23.4445 3.64262 23.054 4.03315C22.6635 4.42367 22.6635 5.05683 23.054 5.44736L25.966 8.35933L23.054 11.2713C22.6635 11.6618 22.6635 12.295 23.054 12.6855C23.4445 13.076 24.0777 13.076 24.4682 12.6855L27.3802 9.77354L30.2922 12.6855C30.6827 13.076 31.3159 13.076 31.7064 12.6855C32.0969 12.295 32.0969 11.6618 31.7064 11.2713L28.7944 8.35933L31.7064 5.44736ZM11.9237 22.0601C13.1622 20.8771 14.8091 20.2169 16.5218 20.2169C18.2345 20.2169 19.8813 20.8771 21.1198 22.0601C21.5192 22.4415 22.1522 22.427 22.5337 22.0276C22.9151 21.6283 22.9006 20.9953 22.5013 20.6138C20.8906 19.0754 18.7491 18.2169 16.5218 18.2169C14.2945 18.2169 12.1529 19.0754 10.5423 20.6138C10.1429 20.9953 10.1284 21.6283 10.5099 22.0276C10.8914 22.427 11.5244 22.4415 11.9237 22.0601ZM17.0463 12.9753C16.8793 12.9769 16.7053 12.9786 16.5223 12.9787L16.5193 12.9787C12.8907 12.9691 9.40447 14.3895 6.81579 16.9321C6.42178 17.3191 5.78864 17.3135 5.40163 16.9195C5.01462 16.5254 5.0203 15.8923 5.41431 15.5053C8.37792 12.5943 12.369 10.9681 16.523 10.9787C16.6593 10.9786 16.8018 10.977 16.9494 10.9754C17.6016 10.968 18.3512 10.9595 19.0878 11.079C19.6329 11.1674 20.0032 11.681 19.9148 12.2262C19.8263 12.7713 19.3127 13.1416 18.7676 13.0532C18.2173 12.9639 17.6824 12.9691 17.0463 12.9753ZM18.3328 26.4545C18.3328 27.4539 17.5227 28.2641 16.5233 28.2641C15.5239 28.2641 14.7138 27.4539 14.7138 26.4545C14.7138 25.4552 15.5239 24.645 16.5233 24.645C17.5227 24.645 18.3328 25.4552 18.3328 26.4545Z" fill="#111827"/>
</svg>
