<svg width="32" height="32" viewBox="0 0 32 32" fill="none" xmlns="http://www.w3.org/2000/svg">
<path fill-rule="evenodd" clip-rule="evenodd" d="M16.0001 6.13379C10.6499 6.13379 5.51446 8.23813 1.70269 11.9924C1.3092 12.3799 0.676058 12.3751 0.288514 11.9816C-0.0990297 11.5881 -0.0942155 10.955 0.299267 10.5674C4.4852 6.44469 10.1248 4.13379 16.0001 4.13379C21.8754 4.13379 27.5149 6.44469 31.7009 10.5674C32.0943 10.955 32.0992 11.5881 31.7116 11.9816C31.3241 12.3751 30.6909 12.3799 30.2974 11.9924C26.4857 8.23813 21.3502 6.13379 16.0001 6.13379ZM6.64233 16.9412C9.14406 14.4969 12.5028 13.1285 16.0004 13.1285C19.498 13.1285 22.8567 14.4969 25.3584 16.9412C25.7535 17.3271 26.3866 17.3198 26.7726 16.9247C27.1585 16.5297 27.1512 15.8966 26.7561 15.5106C23.8808 12.7013 20.0203 11.1285 16.0004 11.1285C11.9804 11.1285 8.12002 12.7013 5.24464 15.5106C4.84961 15.8966 4.84225 16.5297 5.22821 16.9247C5.61417 17.3198 6.24729 17.3271 6.64233 16.9412ZM11.5801 21.8951C12.7707 20.7579 14.3538 20.1233 16.0003 20.1233C17.6468 20.1233 19.2299 20.7579 20.4205 21.8951C20.8198 22.2766 21.4528 22.2621 21.8343 21.8627C22.2158 21.4633 22.2013 20.8303 21.8019 20.4489C20.2392 18.9562 18.1613 18.1233 16.0003 18.1233C13.8393 18.1233 11.7614 18.9562 10.1987 20.4489C9.79933 20.8303 9.78482 21.4633 10.1663 21.8627C10.5478 22.2621 11.1808 22.2766 11.5801 21.8951ZM17.7502 26.1176C17.7502 27.0834 16.9673 27.8663 16.0015 27.8663C15.0358 27.8663 14.2528 27.0834 14.2528 26.1176C14.2528 25.1518 15.0358 24.3689 16.0015 24.3689C16.9673 24.3689 17.7502 25.1518 17.7502 26.1176Z" fill="#111827"/>
</svg>
