<svg width="32" height="32" viewBox="0 0 32 32" fill="none" xmlns="http://www.w3.org/2000/svg">
<path fill-rule="evenodd" clip-rule="evenodd" d="M3.67071 2.43658C4.07936 2.06507 4.71181 2.09519 5.08332 2.50385L8.62532 6.40005C8.63711 6.41236 8.64861 6.42501 8.6598 6.43798L13.8083 12.1013C13.8229 12.1164 13.837 12.1319 13.8507 12.148L21.4594 20.5176C21.4718 20.5304 21.4837 20.5436 21.4952 20.5569L28.3989 28.151C28.7704 28.5596 28.7403 29.1921 28.3316 29.5636C27.923 29.9351 27.2905 29.905 26.919 29.4963L20.0442 21.9341C18.8442 20.9579 17.3306 20.4485 15.783 20.5016C14.2125 20.5554 12.7166 21.1847 11.5799 22.2698C11.1804 22.6512 10.5474 22.6365 10.166 22.237C9.7847 21.8375 9.7994 21.2045 10.1989 20.8232C11.6905 19.3992 13.6535 18.5734 15.7145 18.5027C16.1364 18.4883 16.5564 18.5057 16.9713 18.5538L12.7409 13.9004C10.4436 14.4721 8.33754 15.6492 6.64452 17.3136C6.25068 17.7007 5.61754 17.6953 5.23036 17.3015C4.84318 16.9077 4.84858 16.2745 5.24242 15.8873C6.93799 14.2204 8.99359 12.9783 11.2409 12.2504L7.64196 8.29157C5.43705 9.28327 3.42566 10.6625 1.70426 12.3654C1.31163 12.7538 0.678479 12.7504 0.290066 12.3578C-0.0983459 11.9652 -0.0949309 11.332 0.297694 10.9436C2.03491 9.22501 4.04093 7.80652 6.23362 6.74239L3.60344 3.84919C3.23193 3.44054 3.26205 2.80809 3.67071 2.43658ZM30.2959 12.3654C26.4918 8.6022 21.3534 6.49667 16.0024 6.50841L15.9999 6.50841C15.0298 6.50812 14.0609 6.57629 13.1004 6.71242C12.5536 6.78992 12.0475 6.40945 11.97 5.86263C11.8925 5.31581 12.273 4.8097 12.8198 4.73221C13.873 4.58293 14.9355 4.50815 15.9993 4.50841L15.998 4.50841L16.0002 5.50841L16.0005 4.50841L15.9993 4.50841C21.878 4.49584 27.5231 6.80918 31.7025 10.9436C32.0951 11.332 32.0985 11.9651 31.7101 12.3578C31.3217 12.7504 30.6885 12.7538 30.2959 12.3654ZM18.5458 12.6913C18.6797 12.1555 19.2226 11.8297 19.7584 11.9637C22.3997 12.6239 24.8164 13.9787 26.7579 15.8874C27.1517 16.2746 27.1571 16.9077 26.7699 17.3015C26.3827 17.6954 25.7496 17.7008 25.3557 17.3136C23.6687 15.6549 21.5686 14.4777 19.2734 13.904C18.7376 13.77 18.4118 13.2271 18.5458 12.6913ZM17.7501 26.492C17.7501 27.4577 16.9672 28.2406 16.0015 28.2406C15.0357 28.2406 14.2528 27.4577 14.2528 26.492C14.2528 25.5262 15.0357 24.7433 16.0015 24.7433C16.9672 24.7433 17.7501 25.5262 17.7501 26.492Z" fill="#111827"/>
</svg>
