<svg width="33" height="33" viewBox="0 0 33 33" fill="none" xmlns="http://www.w3.org/2000/svg">
<path fill-rule="evenodd" clip-rule="evenodd" d="M6.96112 5.28338C7.36977 4.91188 8.00222 4.94199 8.37373 5.35065L11.2005 8.46011C11.2149 8.475 11.2289 8.49038 11.2424 8.50624L15.3498 13.0243C15.3646 13.0396 15.379 13.0554 15.3929 13.0717L21.4699 19.7564C21.4838 19.7709 21.4973 19.7857 21.5102 19.8008L27.0275 25.8698C27.399 26.2784 27.3689 26.9109 26.9602 27.2824C26.5515 27.6539 25.9191 27.6238 25.5476 27.2151L20.057 21.1755C19.1363 20.4315 17.9777 20.0435 16.7931 20.0841C15.5856 20.1255 14.4355 20.6093 13.5616 21.4436C13.1621 21.8249 12.5291 21.8102 12.1478 21.4107C11.7664 21.0113 11.7811 20.3783 12.1806 19.9969C13.4095 18.8238 15.0267 18.1435 16.7246 18.0853C16.9001 18.0792 17.0751 18.0799 17.2494 18.0871L14.2852 14.8264C12.5268 15.2855 10.9157 16.1977 9.61512 17.4763C9.22128 17.8635 8.58813 17.8581 8.20095 17.4643C7.81377 17.0704 7.81917 16.4373 8.21301 16.0501C9.51799 14.7672 11.0852 13.7937 12.7987 13.1913L10.2231 10.3582C8.53251 11.137 6.98903 12.2056 5.66324 13.5171C5.27062 13.9056 4.63746 13.9021 4.24905 13.5095C3.86064 13.1169 3.86405 12.4837 4.25668 12.0953C5.59875 10.7677 7.13911 9.66135 8.8199 8.81465L6.89385 6.696C6.52234 6.28734 6.55246 5.65489 6.96112 5.28338ZM28.2568 13.5171C25.2508 10.5434 21.1906 8.87969 16.9623 8.88896L16.9598 8.88896C16.1931 8.88873 15.4273 8.94261 14.6682 9.0502C14.1213 9.1277 13.6152 8.74724 13.5377 8.20042C13.4602 7.6536 13.8407 7.14749 14.3875 7.06999C15.2394 6.94926 16.0987 6.88876 16.9592 6.88896L16.9579 6.88897L16.9601 7.88896L16.9604 6.88896L16.9592 6.88896C21.7152 6.87887 26.2822 8.75043 29.6634 12.0952C30.056 12.4836 30.0594 13.1168 29.671 13.5094C29.2826 13.9021 28.6494 13.9055 28.2568 13.5171ZM18.8028 13.5872C18.9367 13.0514 19.4797 12.7256 20.0155 12.8596C22.1633 13.3965 24.1284 14.4981 25.7071 16.0501C26.1009 16.4373 26.1063 17.0705 25.7191 17.4643C25.3319 17.8581 24.6988 17.8635 24.305 17.4763C22.9806 16.1743 21.3322 15.2502 19.5304 14.7999C18.9946 14.6659 18.6689 14.123 18.8028 13.5872ZM18.3601 24.677C18.3601 25.4497 17.7337 26.076 16.961 26.076C16.1884 26.076 15.562 25.4497 15.562 24.677C15.562 23.9043 16.1884 23.278 16.961 23.278C17.7337 23.278 18.3601 23.9043 18.3601 24.677Z" fill="#1C1B1F"/>
</svg>
