<svg width="32" height="33" viewBox="0 0 32 33" fill="none" xmlns="http://www.w3.org/2000/svg">
<path fill-rule="evenodd" clip-rule="evenodd" d="M0.00146484 9.9219C0.00146482 9.36961 0.44918 8.9219 1.00146 8.9219L14.4109 8.9219C15.6886 8.9219 16.7318 7.8763 16.7318 6.59031C16.7318 5.31605 15.6981 4.28003 14.4321 4.28003C13.1621 4.28003 12.1324 5.30964 12.1324 6.57972V6.62404C12.1324 7.17633 11.6847 7.62404 11.1324 7.62404C10.5802 7.62404 10.1324 7.17633 10.1324 6.62404V6.57972C10.1324 4.20507 12.0575 2.28003 14.4321 2.28003C16.811 2.28003 18.7318 4.21983 18.7318 6.59031C18.7318 8.97252 16.8014 10.9219 14.4109 10.9219L1.00146 10.9219C0.44918 10.9219 0.00146487 10.4742 0.00146484 9.9219ZM0.00146484 16.5636C0.00146482 16.0113 0.44918 15.5636 1.00146 15.5636L27.6777 15.5636C28.9554 15.5636 29.9986 14.518 29.9986 13.232C29.9986 11.9577 28.9649 10.9217 27.699 10.9217C26.4289 10.9217 25.3993 11.9513 25.3993 13.2214V13.2657C25.3993 13.818 24.9515 14.2657 24.3993 14.2657C23.847 14.2657 23.3993 13.818 23.3993 13.2657V13.2214C23.3993 10.8468 25.3243 8.92172 27.699 8.92172C30.0778 8.92172 31.9986 10.8615 31.9986 13.232C31.9986 15.6142 30.0683 17.5636 27.6777 17.5636L1.00146 17.5636C0.44918 17.5636 0.00146487 17.1159 0.00146484 16.5636ZM1.00146 24.0781C0.44918 24.0781 0.00146482 23.6304 0.00146484 23.0781C0.00146487 22.5259 0.44918 22.0781 1.00146 22.0781L14.4109 22.0781C16.8014 22.0781 18.7318 24.0275 18.7318 26.4097C18.7318 28.7802 16.811 30.72 14.4321 30.72C12.0575 30.72 10.1324 28.795 10.1324 26.4203V26.376C10.1324 25.8237 10.5802 25.376 11.1324 25.376C11.6847 25.376 12.1324 25.8237 12.1324 26.376V26.4203C12.1324 27.6904 13.1621 28.72 14.4321 28.72C15.6981 28.72 16.7318 27.684 16.7318 26.4097C16.7318 25.1237 15.6886 24.0781 14.4109 24.0781L1.00146 24.0781Z" fill="#111827"/>
</svg>
