<svg width="32" height="32" viewBox="0 0 32 32" fill="none" xmlns="http://www.w3.org/2000/svg">
<path fill-rule="evenodd" clip-rule="evenodd" d="M32.0002 1.2C32.0002 0.575499 31.4341 0.103778 30.8198 0.216391L18.2743 2.51639C17.7994 2.60344 17.4546 3.01727 17.4546 3.5V12.091C17.4546 12.6433 17.9023 13.091 18.4546 13.091H31.0002C31.5524 13.091 32.0002 12.6433 32.0002 12.091V1.2ZM32.0002 19.9091C32.0002 19.3568 31.5524 18.9091 31.0002 18.9091H18.4546C17.9023 18.9091 17.4546 19.3568 17.4546 19.9091V28.5001C17.4546 28.9828 17.7994 29.3966 18.2743 29.4837L30.8198 31.7837C31.4341 31.8963 32.0002 31.4246 32.0002 30.8001V19.9091ZM0 19.9091C0 19.3568 0.447715 18.9091 1 18.9091H10.6364C11.1886 18.9091 11.6364 19.3568 11.6364 19.9091V27.0423C11.6364 27.6848 11.0392 28.1606 10.413 28.0171L0.776624 25.8087C0.322179 25.7046 0 25.3002 0 24.834V19.9091ZM11.6364 4.95773C11.6364 4.31527 11.0392 3.83948 10.413 3.98299L0.776624 6.19133C0.322179 6.29547 0 6.69983 0 7.16606V12.091C0 12.6433 0.447715 13.091 1 13.091H10.6364C11.1886 13.091 11.6364 12.6433 11.6364 12.091V4.95773Z" fill="#111827"/>
</svg>
