<svg width="33" height="33" viewBox="0 0 33 33" fill="none" xmlns="http://www.w3.org/2000/svg">
<path fill-rule="evenodd" clip-rule="evenodd" d="M5.13281 12.0341C5.13281 11.4818 5.58053 11.0341 6.13281 11.0341L15.8127 11.0341C16.5802 11.0341 17.21 10.405 17.21 9.6291C17.21 8.86169 16.5871 8.2395 15.828 8.2395C15.0648 8.2395 14.4461 8.85823 14.4461 9.62146V9.65345C14.4461 10.2057 13.9984 10.6535 13.4461 10.6535C12.8938 10.6535 12.4461 10.2057 12.4461 9.65345V9.62146C12.4461 7.75366 13.9602 6.2395 15.828 6.2395C17.7 6.2395 19.21 7.76547 19.21 9.6291C19.21 11.5012 17.6931 13.0341 15.8127 13.0341L6.13281 13.0341C5.58053 13.0341 5.13281 12.5864 5.13281 12.0341ZM5.13281 16.8286C5.13281 16.2763 5.58053 15.8286 6.13281 15.8286L25.3897 15.8286C26.1572 15.8286 26.7869 15.1995 26.7869 14.4236C26.7869 13.6562 26.1641 13.034 25.405 13.034C24.6418 13.034 24.023 13.6528 24.023 14.416V14.448C24.023 15.0003 23.5753 15.448 23.023 15.448C22.4707 15.448 22.023 15.0003 22.023 14.448V14.416C22.023 12.5482 23.5372 11.034 25.405 11.034C27.277 11.034 28.7869 12.56 28.7869 14.4236C28.7869 16.2957 27.2701 17.8286 25.3897 17.8286L6.13281 17.8286C5.58053 17.8286 5.13281 17.3809 5.13281 16.8286ZM6.13281 22.5315C5.58053 22.5315 5.13281 22.0838 5.13281 21.5315C5.13281 20.9792 5.58053 20.5315 6.13281 20.5315L15.8127 20.5315C17.6931 20.5315 19.21 22.0644 19.21 23.9365C19.21 25.8001 17.7 27.3261 15.828 27.3261C13.9602 27.3261 12.4461 25.8119 12.4461 23.9441V23.9121C12.4461 23.3599 12.8938 22.9121 13.4461 22.9121C13.9984 22.9121 14.4461 23.3599 14.4461 23.9121V23.9441C14.4461 24.7074 15.0648 25.3261 15.828 25.3261C16.5871 25.3261 17.21 24.7039 17.21 23.9365C17.21 23.1606 16.5802 22.5315 15.8127 22.5315H6.13281Z" fill="#1C1B1F"/>
</svg>
