<svg width="33" height="33" viewBox="0 0 33 33" fill="none" xmlns="http://www.w3.org/2000/svg">
<path d="M16.8616 21.7827V28.2831" stroke="#1C1B1F" stroke-width="2" stroke-linecap="round" stroke-linejoin="round"/>
<path d="M12.2183 28.283H21.5046" stroke="#1C1B1F" stroke-width="2" stroke-linecap="round" stroke-linejoin="round"/>
<path fill-rule="evenodd" clip-rule="evenodd" d="M8.57547 13.1565C8.56067 13.3605 8.55314 13.5665 8.55314 13.7743C8.55314 18.4233 12.3219 22.1921 16.9709 22.1921C21.6199 22.1921 25.3887 18.4233 25.3887 13.7743C25.3887 13.5092 25.3764 13.2469 25.3525 12.988L25.3496 12.9895C23.8144 13.6238 19.6808 14.9937 16.8615 12.9895C13.737 10.7683 10.0911 12.4444 8.57547 13.1565Z" fill="#1C1B1F"/>
<path d="M8.57547 13.1565L8.15023 12.2514C7.82301 12.4051 7.60425 12.7235 7.57809 13.0841L8.57547 13.1565ZM25.3525 12.988L26.3482 12.8957C26.3173 12.5621 26.1214 12.2661 25.8263 12.1074C25.5313 11.9486 25.1763 11.9481 24.8809 12.1061L25.3525 12.988ZM25.3496 12.9895L25.7315 13.9137C25.7621 13.901 25.792 13.8869 25.8212 13.8713L25.3496 12.9895ZM16.8615 12.9895L16.2821 13.8045L16.2821 13.8045L16.8615 12.9895ZM9.55314 13.7743C9.55314 13.5907 9.55979 13.4088 9.57285 13.2288L7.57809 13.0841C7.56155 13.3122 7.55314 13.5424 7.55314 13.7743H9.55314ZM16.9709 21.1921C12.8742 21.1921 9.55314 17.8711 9.55314 13.7743H7.55314C7.55314 18.9756 11.7696 23.1921 16.9709 23.1921V21.1921ZM24.3887 13.7743C24.3887 17.8711 21.0677 21.1921 16.9709 21.1921V23.1921C22.1722 23.1921 26.3887 18.9756 26.3887 13.7743H24.3887ZM24.3567 13.0802C24.3779 13.3085 24.3887 13.54 24.3887 13.7743H26.3887C26.3887 13.4783 26.375 13.1852 26.3482 12.8957L24.3567 13.0802ZM24.8809 12.1061L24.8781 12.1076L25.8212 13.8713L25.824 13.8698L24.8809 12.1061ZM24.9677 12.0653C24.2461 12.3634 22.9266 12.8277 21.4792 12.9848C20.021 13.143 18.5687 12.9762 17.4409 12.1744L16.2821 13.8045C17.9736 15.007 19.9978 15.1573 21.695 14.9731C23.4031 14.7877 24.9179 14.2499 25.7315 13.9137L24.9677 12.0653ZM17.4409 12.1744C15.6062 10.8701 13.6274 10.7275 11.9625 10.9847C10.3159 11.2391 8.91136 11.8938 8.15023 12.2514L9.00071 14.0616C9.7552 13.7071 10.9315 13.1677 12.2678 12.9613C13.5859 12.7577 14.9924 12.8876 16.2821 13.8045L17.4409 12.1744Z" fill="#1C1B1F"/>
<path d="M21.9762 4.28296H11.6861C11.4691 4.28296 11.277 4.42282 11.2103 4.62923L8.22555 13.8669C8.22428 13.8709 8.22363 13.875 8.22363 13.8791C8.22363 18.244 11.7621 21.7825 16.1271 21.7825H17.7938C22.1585 21.7825 25.6967 18.2443 25.6967 13.8796C25.6967 13.8751 25.696 13.8707 25.6945 13.8665L22.448 4.61736C22.3777 4.41704 22.1885 4.28296 21.9762 4.28296Z" stroke="#1C1B1F" stroke-width="2" stroke-linecap="round"/>
</svg>
