<svg width="32" height="35" viewBox="0 0 32 35" fill="none" xmlns="http://www.w3.org/2000/svg">
<path d="M15.8684 24.833V33.5002" stroke="#111827" stroke-width="2" stroke-linecap="round" stroke-linejoin="round"/>
<path d="M9.67749 33.4998H22.0592" stroke="#111827" stroke-width="2" stroke-linecap="round" stroke-linejoin="round"/>
<path fill-rule="evenodd" clip-rule="evenodd" d="M4.82054 13.3312C4.80081 13.6032 4.79077 13.8779 4.79077 14.155C4.79077 20.3536 9.81577 25.3786 16.0144 25.3786C22.2131 25.3786 27.2381 20.3536 27.2381 14.155C27.2381 13.8014 27.2217 13.4517 27.1898 13.1065L27.186 13.1086C25.1391 13.9544 19.6276 15.7808 15.8686 13.1086C11.7026 10.147 6.84133 12.3818 4.82054 13.3312Z" fill="#111827"/>
<path d="M4.82054 13.3312L4.3953 12.4262C4.06807 12.5799 3.84931 12.8983 3.82316 13.2589L4.82054 13.3312ZM27.1898 13.1065L28.1855 13.0143C28.1546 12.6807 27.9587 12.3848 27.6637 12.226C27.3687 12.0672 27.0138 12.0667 26.7183 12.2246L27.1898 13.1065ZM27.186 13.1086L27.5679 14.0328C27.5984 14.0202 27.6283 14.006 27.6574 13.9905L27.186 13.1086ZM15.8686 13.1086L15.2892 13.9236V13.9236L15.8686 13.1086ZM5.79077 14.155C5.79077 13.9021 5.79993 13.6515 5.81792 13.4036L3.82316 13.2589C3.80168 13.555 3.79077 13.8538 3.79077 14.155H5.79077ZM16.0144 24.3786C10.3681 24.3786 5.79077 19.8013 5.79077 14.155H3.79077C3.79077 20.9059 9.26349 26.3786 16.0144 26.3786V24.3786ZM26.2381 14.155C26.2381 19.8013 21.6608 24.3786 16.0144 24.3786V26.3786C22.7654 26.3786 28.2381 20.9059 28.2381 14.155H26.2381ZM26.194 13.1988C26.2232 13.5133 26.2381 13.8323 26.2381 14.155H28.2381C28.2381 13.7706 28.2203 13.3901 28.1855 13.0143L26.194 13.1988ZM26.7183 12.2246L26.7146 12.2267L27.6574 13.9905L27.6612 13.9885L26.7183 12.2246ZM26.8041 12.1844C25.8266 12.5883 24.0347 13.2195 22.0614 13.4337C20.0773 13.649 18.0457 13.4293 16.448 12.2935L15.2892 13.9236C17.4505 15.4601 20.0541 15.6633 22.2772 15.422C24.5112 15.1795 26.4984 14.4747 27.5679 14.0328L26.8041 12.1844ZM16.448 12.2935C14.0925 10.619 11.5495 10.431 9.38744 10.765C7.24365 11.0961 5.40901 11.9499 4.3953 12.4262L5.24577 14.2363C6.25286 13.7632 7.85924 13.0248 9.69276 12.7416C11.508 12.4612 13.4787 12.6365 15.2892 13.9236L16.448 12.2935Z" fill="#111827"/>
<path d="M22.8062 1.5H8.84657C8.62965 1.5 8.43748 1.63986 8.37079 1.84627L4.35387 14.2786C4.35218 14.2838 4.35132 14.2893 4.35132 14.2948C4.35132 20.1147 9.06929 24.8327 14.8892 24.8327H17.1115C22.931 24.8327 27.6487 20.115 27.6487 14.2955C27.6487 14.2895 27.6477 14.2836 27.6457 14.278L23.2779 1.8344C23.2076 1.63408 23.0185 1.5 22.8062 1.5Z" stroke="#111827" stroke-width="2" stroke-linecap="round"/>
</svg>
