<svg width="32" height="34" viewBox="0 0 32 34" fill="none" xmlns="http://www.w3.org/2000/svg">
<path d="M15.8684 24.333V33.0002" stroke="#111827" stroke-width="2" stroke-linecap="round" stroke-linejoin="round"/>
<path d="M9.67749 32.9998H22.0592" stroke="#111827" stroke-width="2" stroke-linecap="round" stroke-linejoin="round"/>
<path fill-rule="evenodd" clip-rule="evenodd" d="M4.82054 12.8312C4.80081 13.1032 4.79077 13.3779 4.79077 13.655C4.79077 19.8536 9.81577 24.8786 16.0144 24.8786C22.2131 24.8786 27.2381 19.8536 27.2381 13.655C27.2381 13.3014 27.2217 12.9517 27.1898 12.6065L27.186 12.6086C25.1391 13.4544 19.6276 15.2808 15.8686 12.6086C11.7026 9.64699 6.84133 11.8818 4.82054 12.8312Z" fill="#111827"/>
<path d="M4.82054 12.8312L4.3953 11.9262C4.06807 12.0799 3.84931 12.3983 3.82316 12.7589L4.82054 12.8312ZM27.1898 12.6065L28.1855 12.5143C28.1546 12.1807 27.9587 11.8848 27.6637 11.726C27.3687 11.5672 27.0138 11.5667 26.7183 11.7246L27.1898 12.6065ZM27.186 12.6086L27.5679 13.5328C27.5984 13.5202 27.6283 13.506 27.6574 13.4905L27.186 12.6086ZM15.8686 12.6086L15.2892 13.4236V13.4236L15.8686 12.6086ZM5.79077 13.655C5.79077 13.4021 5.79993 13.1515 5.81792 12.9036L3.82316 12.7589C3.80168 13.055 3.79077 13.3538 3.79077 13.655H5.79077ZM16.0144 23.8786C10.3681 23.8786 5.79077 19.3013 5.79077 13.655H3.79077C3.79077 20.4059 9.26349 25.8786 16.0144 25.8786V23.8786ZM26.2381 13.655C26.2381 19.3013 21.6608 23.8786 16.0144 23.8786V25.8786C22.7654 25.8786 28.2381 20.4059 28.2381 13.655H26.2381ZM26.194 12.6988C26.2232 13.0133 26.2381 13.3323 26.2381 13.655H28.2381C28.2381 13.2706 28.2203 12.8901 28.1855 12.5143L26.194 12.6988ZM26.7183 11.7246L26.7146 11.7267L27.6574 13.4905L27.6612 13.4885L26.7183 11.7246ZM26.8041 11.6844C25.8266 12.0883 24.0347 12.7195 22.0614 12.9337C20.0773 13.149 18.0457 12.9293 16.448 11.7935L15.2892 13.4236C17.4505 14.9601 20.0541 15.1633 22.2772 14.922C24.5112 14.6795 26.4984 13.9747 27.5679 13.5328L26.8041 11.6844ZM16.448 11.7935C14.0925 10.119 11.5495 9.93102 9.38744 10.265C7.24365 10.5961 5.40901 11.4499 4.3953 11.9262L5.24577 13.7363C6.25286 13.2632 7.85924 12.5248 9.69276 12.2416C11.508 11.9612 13.4787 12.1365 15.2892 13.4236L16.448 11.7935Z" fill="#111827"/>
<path d="M22.8062 1H8.84657C8.62965 1 8.43748 1.13986 8.37079 1.34627L4.35387 13.7786C4.35218 13.7838 4.35132 13.7893 4.35132 13.7948C4.35132 19.6147 9.06929 24.3327 14.8892 24.3327H17.1115C22.931 24.3327 27.6487 19.615 27.6487 13.7955C27.6487 13.7895 27.6477 13.7836 27.6457 13.778L23.2779 1.3344C23.2076 1.13408 23.0185 1 22.8062 1Z" stroke="#111827" stroke-width="2" stroke-linecap="round"/>
</svg>
