<svg width="32" height="34" viewBox="0 0 32 34" fill="none" xmlns="http://www.w3.org/2000/svg">
<path d="M15.8684 24.333V33.0002" stroke="#111827" stroke-width="2" stroke-linecap="round" stroke-linejoin="round"/>
<path d="M9.67749 32.9998H22.0592" stroke="#111827" stroke-width="2" stroke-linecap="round" stroke-linejoin="round"/>
<path fill-rule="evenodd" clip-rule="evenodd" d="M4.82054 12.8314C4.80081 13.1034 4.79077 13.3781 4.79077 13.6551C4.79077 19.8538 9.81577 24.8788 16.0144 24.8788C22.2131 24.8788 27.2381 19.8538 27.2381 13.6551C27.2381 13.3016 27.2217 12.9519 27.1898 12.6067L27.186 12.6087C25.1391 13.4545 19.6276 15.281 15.8686 12.6087C11.7026 9.64714 6.84134 11.882 4.82054 12.8314Z" fill="#111827"/>
<path d="M4.82054 12.8314L4.3953 11.9263C4.06807 12.0801 3.84932 12.3984 3.82316 12.759L4.82054 12.8314ZM27.1898 12.6067L28.1855 12.5144C28.1546 12.1809 27.9587 11.8849 27.6637 11.7261C27.3687 11.5674 27.0138 11.5668 26.7183 11.7248L27.1898 12.6067ZM27.186 12.6087L27.5679 13.5329C27.5984 13.5203 27.6283 13.5062 27.6574 13.4906L27.186 12.6087ZM15.8686 12.6087L15.2892 13.4237V13.4237L15.8686 12.6087ZM5.79077 13.6551C5.79077 13.4022 5.79993 13.1517 5.81792 12.9037L3.82316 12.759C3.80168 13.0551 3.79077 13.3539 3.79077 13.6551H5.79077ZM16.0144 23.8788C10.3681 23.8788 5.79077 19.3015 5.79077 13.6551H3.79077C3.79077 20.4061 9.26349 25.8788 16.0144 25.8788V23.8788ZM26.2381 13.6551C26.2381 19.3015 21.6608 23.8788 16.0144 23.8788V25.8788C22.7654 25.8788 28.2381 20.4061 28.2381 13.6551H26.2381ZM26.194 12.6989C26.2232 13.0135 26.2381 13.3324 26.2381 13.6551H28.2381C28.2381 13.2707 28.2203 12.8903 28.1855 12.5144L26.194 12.6989ZM26.7183 11.7248L26.7146 11.7268L27.6574 13.4906L27.6612 13.4886L26.7183 11.7248ZM26.8041 11.6845C25.8266 12.0884 24.0347 12.7197 22.0614 12.9338C20.0773 13.1492 18.0457 12.9295 16.448 11.7937L15.2892 13.4237C17.4505 14.9602 20.0541 15.1634 22.2772 14.9221C24.5112 14.6797 26.4984 13.9748 27.5679 13.5329L26.8041 11.6845ZM16.448 11.7937C14.0925 10.1192 11.5495 9.93117 9.38745 10.2651C7.24365 10.5963 5.40902 11.45 4.3953 11.9263L5.24578 13.7365C6.25286 13.2633 7.85924 12.5249 9.69276 12.2417C11.508 11.9613 13.4787 12.1367 15.2892 13.4237L16.448 11.7937Z" fill="#111827"/>
<path d="M22.8062 1H8.84657C8.62965 1 8.43748 1.13986 8.37079 1.34627L4.35387 13.7786C4.35218 13.7838 4.35132 13.7893 4.35132 13.7948C4.35132 19.6147 9.06929 24.3327 14.8892 24.3327H17.1115C22.931 24.3327 27.6487 19.615 27.6487 13.7955C27.6487 13.7895 27.6477 13.7836 27.6457 13.778L23.2779 1.3344C23.2076 1.13408 23.0185 1 22.8062 1Z" stroke="#111827" stroke-width="2" stroke-linecap="round"/>
</svg>
