<svg width="32" height="32" viewBox="0 0 32 32" fill="none" xmlns="http://www.w3.org/2000/svg">
<path fill-rule="evenodd" clip-rule="evenodd" d="M2 0C0.895431 0 0 0.895431 0 2V30C0 31.1046 0.895431 32 2 32H30C31.1046 32 32 31.1046 32 30V2C32 0.895431 31.1046 0 30 0H2ZM17.5021 3.76582L15.3118 3.26518C15.4757 3.26518 15.6515 3.25326 15.8496 3.23982C16.1054 3.22248 16.3985 3.2026 16.7511 3.2026C18.0653 3.2026 19.1291 3.64066 20.1304 4.20388C20.2688 4.27309 20.3881 4.41883 20.5094 4.56705C20.6075 4.68688 20.7069 4.80833 20.8188 4.89226C21.3194 5.08 21.8201 5.20516 22.3207 5.14258V4.95484C22.8839 5.08 23.4472 5.7058 23.4472 6.14386H20.8814C20.8188 6.14386 20.6936 6.20644 20.6311 6.26902C20.6936 6.3316 20.8188 6.45676 20.8814 6.45676C20.9996 6.45676 21.1282 6.45328 21.264 6.44959C21.7035 6.43768 22.2181 6.42373 22.6962 6.51934C22.6875 6.53383 22.6784 6.54913 22.6689 6.56508C22.4735 6.89359 22.1127 7.50033 21.6949 7.08256C21.6949 6.9574 19.2543 7.01998 18.6285 7.14514C18.5033 7.14514 18.3782 7.39546 18.4408 7.52062C18.721 8.20122 19.3854 8.6257 20.008 9.02345C20.3586 9.24743 20.696 9.46293 20.944 9.71092C22.6962 11.0877 23.2594 12.3393 22.8839 14.7173C21.9435 18.4237 20.4652 19.0493 17.5844 20.2685C17.2063 20.4285 16.804 20.5988 16.3756 20.7876C15.3118 21.2882 14.686 22.4772 14.8737 23.6663C15.3118 26.232 19.3795 26.9204 20.193 23.9166C20.4433 22.7276 20.1304 21.0379 17.8775 20.5373C18.8788 20.0992 19.8175 19.5986 20.6936 19.0353C20.8188 18.9102 20.944 18.9102 21.0691 19.0353C23.5723 21.3508 24.1981 25.6062 20.0678 28.1094C17.1266 29.7365 13.4344 28.3598 12.2453 25.2308C11.0563 22.0392 12.9337 18.5973 16.2505 17.9089C18.6285 17.5334 21.0691 15.0302 20.0053 12.7148C19.533 11.6758 18.1697 10.6368 17.0182 9.75916C16.6438 9.47386 16.2919 9.20561 16.0001 8.95996C15.8353 8.86104 15.5662 8.88374 15.2661 8.90904C14.9966 8.93177 14.7021 8.9566 14.4356 8.89738C14.5608 8.80351 14.7798 8.694 14.9989 8.58448C15.2179 8.47497 15.4369 8.36545 15.5621 8.27158C15.0374 7.94872 14.4607 7.91215 13.8991 7.87654C13.5899 7.85693 13.2852 7.83761 12.9963 7.77094C13.184 7.39546 14.1227 6.83224 14.686 6.76966C14.6274 6.21345 14.6099 5.94481 14.4798 5.75236C14.3318 5.53341 14.0379 5.41306 13.3718 5.08C14.014 4.65189 14.5814 4.74677 15.1326 4.83891C15.7093 4.93535 16.2682 5.02879 16.8763 4.51678C16.1253 4.26646 15.3743 4.01614 14.686 3.57808C15.047 3.60215 15.408 3.67251 15.7691 3.74287C16.3467 3.85544 16.9244 3.96801 17.5021 3.89098V3.76582ZM20.1304 5.33032L19.9427 5.14258C19.8801 5.08 19.5046 5.20516 19.6298 5.3929C19.6924 5.45548 19.7549 5.51806 19.8801 5.45548L20.1304 5.33032ZM12.2453 19.8489C9.2415 17.9715 9.05377 13.2154 12.4331 11.1503C14.9363 9.58576 17.7524 10.149 19.6298 12.9025C19.8801 13.3406 19.8801 14.0289 19.7549 14.5296C19.2543 16.2192 18.0027 17.1579 16.313 17.5334C16.8137 17.1579 17.1892 16.5947 17.3143 15.9689C17.8775 12.4644 12.4331 12.089 12.6834 15.8438C12.6208 16.9076 13.4344 17.6586 14.9989 17.9089C14.1853 18.4095 13.4969 18.8476 12.746 19.7863C12.6208 19.974 12.4957 19.974 12.2453 19.8489ZM11.4908 22.5639C10.5274 22.7441 9.51161 22.934 8.55313 23.3534C8.99119 21.5385 10.5557 20.2869 12.4331 20.2869C11.9324 20.9127 11.6821 21.7263 11.6195 22.5398C11.5767 22.5478 11.5338 22.5559 11.4908 22.5639Z" fill="#111827"/>
</svg>
