<svg width="32" height="32" viewBox="0 0 32 32" fill="none" xmlns="http://www.w3.org/2000/svg">
<path d="M7.53803 30.7067L19.0863 19.1584C22.5138 20.3146 26.3907 19.5064 29.1218 16.7753C31.8672 14.0299 32.6485 10.0642 31.4659 6.62426C31.3511 6.29044 30.9295 6.20822 30.6794 6.45734L26.3781 10.7423C24.9641 12.1563 22.6716 12.1563 21.2576 10.7423C19.8436 9.32836 19.8436 7.03585 21.2576 5.62187L25.5426 1.32057C25.7918 1.07049 25.7095 0.648886 25.3757 0.534119C21.9358 -0.648544 17.9701 0.13281 15.2247 2.87818C12.5419 5.56103 11.7346 9.40921 12.8029 12.7934L1.29332 24.462C-0.431108 26.1864 -0.431107 28.9823 1.29332 30.7067C3.01775 32.4311 5.8136 32.4311 7.53803 30.7067Z" fill="#111827"/>
</svg>
