<svg width="33" height="33" viewBox="0 0 33 33" fill="none" xmlns="http://www.w3.org/2000/svg">
<path d="M10.6135 27.313L19.2747 18.6517C21.8453 19.5189 24.753 18.9128 26.8013 16.8644C28.814 14.8517 29.4193 11.9645 28.617 9.42591C28.5106 9.08932 28.0893 9.00666 27.8392 9.25579L24.7435 12.3397C23.683 13.4002 21.9636 13.4002 20.9031 12.3397C19.8427 11.2792 19.8427 9.55984 20.9031 8.49936L23.9871 5.4037C24.2362 5.15362 24.1536 4.73227 23.817 4.62591C21.2784 3.82367 18.3912 4.4289 16.3785 6.4416C14.3664 8.45373 13.7609 11.3399 14.5621 13.878L5.92995 22.6294C4.63663 23.9228 4.63663 26.0196 5.92995 27.313C7.22327 28.6063 9.32016 28.6063 10.6135 27.313Z" fill="#1C1B1F"/>
</svg>
