<svg width="32" height="32" viewBox="0 0 32 32" fill="none" xmlns="http://www.w3.org/2000/svg">
<path fill-rule="evenodd" clip-rule="evenodd" d="M25.7089 7.7054C26.0994 7.31487 26.0994 6.68171 25.7089 6.29118C25.3184 5.90066 24.6852 5.90066 24.2947 6.29118L16.0002 14.5857L7.70564 6.29118C7.31512 5.90066 6.68195 5.90066 6.29143 6.29118C5.9009 6.68171 5.9009 7.31487 6.29143 7.7054L14.586 15.9999L6.29143 24.2945C5.9009 24.685 5.9009 25.3181 6.29143 25.7087C6.68195 26.0992 7.31512 26.0992 7.70564 25.7087L16.0002 17.4141L24.2947 25.7087C24.6852 26.0992 25.3184 26.0992 25.7089 25.7087C26.0994 25.3181 26.0994 24.685 25.7089 24.2945L17.4144 15.9999L25.7089 7.7054Z" fill="#111827"/>
</svg>
