<svg width="32" height="32" viewBox="0 0 32 32" fill="none" xmlns="http://www.w3.org/2000/svg">
<path fill-rule="evenodd" clip-rule="evenodd" d="M27.7043 5.70711C28.0948 5.31658 28.0948 4.68342 27.7043 4.29289C27.3138 3.90237 26.6806 3.90237 26.2901 4.29289L15.9986 14.5844L5.70711 4.29289C5.31658 3.90237 4.68342 3.90237 4.29289 4.29289C3.90237 4.68342 3.90237 5.31658 4.29289 5.70711L14.5844 15.9986L4.29289 26.2901C3.90237 26.6806 3.90237 27.3138 4.29289 27.7043C4.68342 28.0948 5.31658 28.0948 5.70711 27.7043L15.9986 17.4128L26.2901 27.7043C26.6806 28.0948 27.3138 28.0948 27.7043 27.7043C28.0948 27.3138 28.0948 26.6806 27.7043 26.2901L17.4128 15.9986L27.7043 5.70711Z" fill="#111827"/>
</svg>
