<svg width="32" height="32" viewBox="0 0 32 32" fill="none" xmlns="http://www.w3.org/2000/svg">
<path fill-rule="evenodd" clip-rule="evenodd" d="M25.7071 7.70735C26.0976 7.31683 26.0976 6.68366 25.7071 6.29314C25.3166 5.90261 24.6834 5.90261 24.2929 6.29314L16.0002 14.5858L7.7076 6.29314C7.31707 5.90261 6.68391 5.90261 6.29338 6.29314C5.90286 6.68366 5.90286 7.31683 6.29338 7.70735L14.586 16L6.29338 24.2926C5.90286 24.6831 5.90286 25.3163 6.29338 25.7068C6.68391 26.0974 7.31707 26.0974 7.7076 25.7068L16.0002 17.4142L24.2929 25.7068C24.6834 26.0974 25.3166 26.0974 25.7071 25.7068C26.0976 25.3163 26.0976 24.6831 25.7071 24.2926L17.4144 16L25.7071 7.70735Z" fill="#111827"/>
</svg>
