<svg width="33" height="33" viewBox="0 0 33 33" fill="none" xmlns="http://www.w3.org/2000/svg">
<path fill-rule="evenodd" clip-rule="evenodd" d="M24.6691 9.98811C25.0596 9.59759 25.0596 8.96442 24.6691 8.5739C24.2785 8.18337 23.6454 8.18337 23.2549 8.5739L16.96 14.8688L10.6651 8.5739C10.2746 8.18337 9.64143 8.18337 9.2509 8.5739C8.86038 8.96442 8.86038 9.59759 9.2509 9.98811L15.5458 16.283L9.2509 22.5778C8.86038 22.9684 8.86038 23.6015 9.2509 23.9921C9.64143 24.3826 10.2746 24.3826 10.6651 23.9921L16.96 17.6972L23.2549 23.9921C23.6454 24.3826 24.2785 24.3826 24.6691 23.9921C25.0596 23.6015 25.0596 22.9684 24.6691 22.5778L18.3742 16.283L24.6691 9.98811Z" fill="#1C1B1F"/>
</svg>
