<svg width="32" height="33" viewBox="0 0 32 33" fill="none" xmlns="http://www.w3.org/2000/svg">
<path fill-rule="evenodd" clip-rule="evenodd" d="M1 0.5C0.447715 0.5 0 0.947715 0 1.5V31.5C0 32.0523 0.447714 32.5 0.999999 32.5H30.9996C31.5519 32.5 31.9996 32.0523 31.9996 31.5V1.5C31.9996 0.947715 31.5519 0.5 30.9996 0.5H1ZM5.29937 4.76699C5.29937 4.49085 5.07551 4.26699 4.79937 4.26699C4.52322 4.26699 4.29937 4.49085 4.29937 4.76699V8.03121C4.29937 8.30736 4.52322 8.53121 4.79937 8.53121C5.07551 8.53121 5.29937 8.30736 5.29937 8.03121V4.76699ZM25.8628 16.3233C26.146 15.8491 25.991 15.2352 25.5168 14.952C25.0427 14.6689 24.4287 14.8238 24.1456 15.298L20.4134 21.5493C19.9905 22.2162 19.7456 23.0072 19.7456 23.8554C19.7456 26.2369 21.6763 28.1676 24.0578 28.1676C26.4394 28.1676 28.37 26.2369 28.37 23.8554C28.37 21.4738 26.4394 19.5432 24.0578 19.5432C24.0183 19.5432 23.9788 19.5437 23.9395 19.5448L25.8628 16.3233ZM21.7456 23.8554C21.7456 23.4473 21.8514 23.0638 22.0369 22.731L22.0485 22.7121L22.1112 22.6071C22.5224 21.9671 23.2406 21.5432 24.0578 21.5432C25.3348 21.5432 26.37 22.5784 26.37 23.8554C26.37 25.1324 25.3348 26.1676 24.0578 26.1676C22.7808 26.1676 21.7456 25.1324 21.7456 23.8554ZM14.0665 17.0813C14.3748 16.8753 14.7449 16.7826 15.1139 16.819C15.4828 16.8553 15.8277 17.0184 16.0899 17.2806L16.0908 17.2815C16.2395 17.4299 16.3575 17.6061 16.4379 17.8002C16.5183 17.9943 16.5595 18.2023 16.5592 18.4124L16.5592 18.4137C16.5592 18.7844 16.4307 19.1437 16.1955 19.4303C15.9603 19.7169 15.633 19.913 15.2694 19.9853C15.1732 20.0045 15.0759 20.0146 14.9789 20.016L14.9345 20.016C14.6801 20.0124 14.4286 19.9484 14.2014 19.8269C13.8744 19.6522 13.6182 19.3694 13.4763 19.0269C13.3345 18.6844 13.3157 18.3033 13.4234 17.9485C13.531 17.5938 13.7583 17.2873 14.0665 17.0813ZM14.9594 22.0161C14.9506 22.0161 14.9417 22.0161 14.9328 22.0161C14.532 22.0206 14.1393 22.1413 13.8034 22.3657C13.4041 22.6325 13.1097 23.0295 12.9703 23.489C12.8309 23.9486 12.8551 24.4422 13.0389 24.8858C13.2227 25.3295 13.5546 25.6957 13.9781 25.9221C14.4016 26.1484 14.8905 26.221 15.3614 26.1273C15.8324 26.0336 16.2563 25.7795 16.561 25.4083C16.8656 25.0371 17.0321 24.5718 17.0321 24.0915L17.0321 24.0902C17.0325 23.818 16.979 23.5484 16.8749 23.2969C16.7707 23.0454 16.6178 22.817 16.4251 22.6248L16.4242 22.6239C16.0846 22.2843 15.6378 22.073 15.16 22.0259C15.1001 22.02 15.0402 22.0168 14.9804 22.0161C14.9734 22.0161 14.9664 22.0161 14.9594 22.0161ZM11.6286 19.7923C11.8058 20.22 12.0623 20.6063 12.3813 20.9326C11.7553 21.4429 11.2925 22.13 11.0564 22.9085C10.7827 23.8108 10.8303 24.7801 11.1911 25.6512C11.552 26.5224 12.2037 27.2414 13.0353 27.6859C13.8668 28.1304 14.8268 28.2728 15.7516 28.0889C16.6764 27.9049 17.5088 27.406 18.107 26.6771C18.7049 25.9485 19.0318 25.0353 19.0321 24.0928L18.0321 24.0915H19.0321V24.0921C19.0327 23.5566 18.9275 23.0263 18.7226 22.5316C18.5177 22.0368 18.217 21.5873 17.8378 21.2091C17.7402 21.1115 17.6381 21.0194 17.532 20.9328C17.605 20.8582 17.6749 20.7803 17.7415 20.6991C18.27 20.0551 18.5589 19.248 18.5592 18.415L17.5592 18.4137H18.5592V18.4142C18.5598 17.9409 18.4668 17.4721 18.2856 17.0348C18.1045 16.5975 17.8387 16.2002 17.5036 15.8658C16.9143 15.2768 16.1391 14.9103 15.3099 14.8286C14.4805 14.7469 13.6484 14.9553 12.9554 15.4184C12.2624 15.8814 11.7514 16.5704 11.5095 17.368C11.2675 18.1655 11.3096 19.0223 11.6286 19.7923ZM4.06247 19.752C4.51737 19.4388 5.14003 19.5537 5.45322 20.0086L6.89882 22.1082L8.34442 20.0086C8.65762 19.5537 9.28027 19.4388 9.73517 19.752C10.1901 20.0652 10.3049 20.6879 9.99173 21.1427L8.11292 23.8716L9.99164 26.6003C10.3048 27.0552 10.19 27.6778 9.73507 27.991C9.28018 28.3042 8.65752 28.1894 8.34433 27.7345L6.89882 25.635L5.45331 27.7345C5.14012 28.1894 4.51746 28.3042 4.06257 27.991C3.60767 27.6778 3.49281 27.0552 3.806 26.6003L5.68472 23.8716L3.80591 21.1427C3.49271 20.6879 3.60758 20.0652 4.06247 19.752ZM7.9994 4.26702C8.27554 4.26702 8.4994 4.49088 8.4994 4.76702V8.03124C8.4994 8.30739 8.27554 8.53124 7.9994 8.53124C7.72326 8.53124 7.4994 8.30739 7.4994 8.03124V4.76702C7.4994 4.49088 7.72326 4.26702 7.9994 4.26702ZM11.6996 4.76702C11.6996 4.49088 11.4757 4.26702 11.1996 4.26702C10.9234 4.26702 10.6996 4.49088 10.6996 4.76702V8.03124C10.6996 8.30739 10.9234 8.53124 11.1996 8.53124C11.4757 8.53124 11.6996 8.30739 11.6996 8.03124V4.76702ZM14.3997 4.26702C14.6759 4.26702 14.8997 4.49088 14.8997 4.76702V8.03124C14.8997 8.30739 14.6759 8.53124 14.3997 8.53124C14.1236 8.53124 13.8997 8.30739 13.8997 8.03124V4.76702C13.8997 4.49088 14.1236 4.26702 14.3997 4.26702ZM18.0999 4.76702C18.0999 4.49088 17.876 4.26702 17.5999 4.26702C17.3237 4.26702 17.0999 4.49088 17.0999 4.76702V8.03124C17.0999 8.30739 17.3237 8.53124 17.5999 8.53124C17.876 8.53124 18.0999 8.30739 18.0999 8.03124V4.76702ZM20.8 4.26702C21.0762 4.26702 21.3 4.49088 21.3 4.76702V8.03124C21.3 8.30739 21.0762 8.53124 20.8 8.53124C20.5239 8.53124 20.3 8.30739 20.3 8.03124V4.76702C20.3 4.49088 20.5239 4.26702 20.8 4.26702ZM24.5002 4.76702C24.5002 4.49088 24.2763 4.26702 24.0002 4.26702C23.724 4.26702 23.5002 4.49088 23.5002 4.76702V8.03124C23.5002 8.30739 23.724 8.53124 24.0002 8.53124C24.2763 8.53124 24.5002 8.30739 24.5002 8.03124V4.76702ZM27.2003 4.26702C27.4765 4.26702 27.7003 4.49088 27.7003 4.76702V8.03124C27.7003 8.30739 27.4765 8.53124 27.2003 8.53124C26.9242 8.53124 26.7003 8.30739 26.7003 8.03124V4.76702C26.7003 4.49088 26.9242 4.26702 27.2003 4.26702Z" fill="#111827"/>
</svg>
