<svg width="33" height="33" viewBox="0 0 33 33" fill="none" xmlns="http://www.w3.org/2000/svg">
<path fill-rule="evenodd" clip-rule="evenodd" d="M16.96 28.283C23.5874 28.283 28.96 22.9104 28.96 16.283C28.96 9.65554 23.5874 4.28296 16.96 4.28296C10.3325 4.28296 4.95996 9.65554 4.95996 16.283C4.95996 22.9104 10.3325 28.283 16.96 28.283ZM21.6671 11.5759C22.0576 11.9664 22.0576 12.5995 21.6671 12.9901L18.3742 16.283L21.6671 19.5759C22.0576 19.9664 22.0576 20.5995 21.6671 20.9901C21.2765 21.3806 20.6434 21.3806 20.2529 20.9901L16.96 17.6972L13.6671 20.9901C13.2765 21.3806 12.6434 21.3806 12.2529 20.9901C11.8623 20.5995 11.8623 19.9664 12.2529 19.5759L15.5457 16.283L12.2529 12.9901C11.8623 12.5995 11.8623 11.9664 12.2529 11.5759C12.6434 11.1853 13.2765 11.1853 13.6671 11.5759L16.96 14.8687L20.2529 11.5759C20.6434 11.1853 21.2765 11.1853 21.6671 11.5759Z" fill="#1C1B1F"/>
</svg>
