<svg width="32" height="32" viewBox="0 0 32 32" fill="none" xmlns="http://www.w3.org/2000/svg">
<path fill-rule="evenodd" clip-rule="evenodd" d="M1 0C0.447715 0 0 0.447715 0 1V31C0 31.5523 0.447715 32 1 32H31C31.5523 32 32 31.5523 32 31V1C32 0.447715 31.5523 0 31 0H1ZM22.0403 9.95952C22.4308 10.35 22.4308 10.9832 22.0403 11.3737L17.4141 16L22.0403 20.6262C22.4308 21.0167 22.4308 21.6499 22.0403 22.0404C21.6498 22.4309 21.0166 22.4309 20.6261 22.0404L15.9998 17.4142L11.3736 22.0404C10.9831 22.4309 10.3499 22.4309 9.9594 22.0404C9.56887 21.6499 9.56887 21.0167 9.9594 20.6262L14.5856 16L9.9594 11.3737C9.56887 10.9832 9.56887 10.35 9.9594 9.95952C10.3499 9.56899 10.9831 9.56899 11.3736 9.95952L15.9998 14.5857L20.6261 9.95952C21.0166 9.56899 21.6498 9.56899 22.0403 9.95952Z" fill="#111827"/>
</svg>
