<svg width="33" height="33" viewBox="0 0 33 33" fill="none" xmlns="http://www.w3.org/2000/svg">
<path d="M16.96 28.2829C23.5874 28.2829 28.96 22.9103 28.96 16.2829C28.96 9.65548 23.5874 4.2829 16.96 4.2829C10.3325 4.2829 4.95996 9.65548 4.95996 16.2829C4.95996 22.9103 10.3325 28.2829 16.96 28.2829Z" stroke="#1C1B1F" stroke-width="2" stroke-linecap="round" stroke-linejoin="round"/>
<path d="M16.96 11.7829C17.7884 11.7829 18.46 11.1113 18.46 10.2829C18.46 9.45447 17.7884 8.7829 16.96 8.7829C16.1315 8.7829 15.46 9.45447 15.46 10.2829C15.46 11.1113 16.1315 11.7829 16.96 11.7829Z" fill="#1C1B1F"/>
<path fill-rule="evenodd" clip-rule="evenodd" d="M22.96 10.2829C22.96 13.5966 20.2737 16.2829 16.96 16.2829C13.6463 16.2829 10.96 18.9692 10.96 22.2829C10.96 25.5966 13.6463 28.2829 16.96 28.2829C23.5874 28.2829 28.96 22.9103 28.96 16.2829C28.96 9.65548 23.5874 4.2829 16.96 4.2829C20.2737 4.2829 22.96 6.96919 22.96 10.2829ZM18.46 22.2829C18.46 23.1113 17.7884 23.7829 16.96 23.7829C16.1315 23.7829 15.46 23.1113 15.46 22.2829C15.46 21.4545 16.1315 20.7829 16.96 20.7829C17.7884 20.7829 18.46 21.4545 18.46 22.2829Z" fill="#1C1B1F"/>
</svg>
