<svg width="32" height="32" viewBox="0 0 32 32" fill="none" xmlns="http://www.w3.org/2000/svg">
<path fill-rule="evenodd" clip-rule="evenodd" d="M16.0002 1.99976C8.26812 1.99976 2 8.26787 2 16C2 21.9636 5.7287 27.0563 10.9819 29.074C9.45806 27.7012 8.50001 25.7124 8.50001 23.4999C8.50001 19.3577 11.8579 15.9998 16.0001 15.9998L16.0111 15.9998C20.1483 15.994 23.5005 12.6383 23.5005 8.49966C23.5005 6.28755 22.5428 4.29912 21.0194 2.92636C19.4613 2.3278 17.7691 1.99976 16.0002 1.99976ZM0 16C0 7.1633 7.16355 -0.000244141 16.0002 -0.000244141C24.8369 -0.000244141 32.0005 7.1633 32.0005 16C32.0005 24.8367 24.8369 32.0002 16.0002 32.0002C7.16355 32.0002 0 24.8367 0 16ZM16.0002 10.3755C17.0359 10.3755 17.8756 9.53583 17.8756 8.50004C17.8756 7.46425 17.0359 6.62458 16.0002 6.62458C14.9644 6.62458 14.1247 7.46425 14.1247 8.50004C14.1247 9.53583 14.9644 10.3755 16.0002 10.3755ZM16.0007 25.3757C17.0364 25.3757 17.8761 24.5361 17.8761 23.5003C17.8761 22.4645 17.0364 21.6248 16.0007 21.6248C14.9649 21.6248 14.1252 22.4645 14.1252 23.5003C14.1252 24.5361 14.9649 25.3757 16.0007 25.3757Z" fill="#111827"/>
</svg>
