<svg width="33" height="33" viewBox="0 0 33 33" fill="none" xmlns="http://www.w3.org/2000/svg">
<path fill-rule="evenodd" clip-rule="evenodd" d="M5.58456 22.7661C5.31491 21.7307 4.96021 19.7163 4.96021 16.283C4.96021 12.8496 5.31493 10.8352 5.58459 9.79989C5.65667 9.51713 5.79509 9.25561 5.98838 9.03701C6.18167 8.81841 6.42427 8.64901 6.69607 8.54285C10.5588 7.05847 16.9602 7.09923 16.9602 7.09923C16.9602 7.09923 23.3616 7.05847 27.2244 8.54287C27.4962 8.64903 27.7388 8.81843 27.9321 9.03703C28.1254 9.25563 28.2638 9.51715 28.3358 9.79991C28.6055 10.8352 28.9602 12.8496 28.9602 16.283C28.9602 19.7163 28.6055 21.7308 28.3358 22.7661C28.2637 23.0488 28.1253 23.3103 27.932 23.529C27.7387 23.7476 27.4961 23.917 27.2243 24.0231C23.3616 25.5075 16.9602 25.4667 16.9602 25.4667C16.9602 25.4667 10.5588 25.5075 6.69604 24.0231C6.42423 23.9169 6.18164 23.7475 5.98835 23.5289C5.79506 23.3103 5.65664 23.0488 5.58456 22.7661ZM15.1141 12.5907L21.0322 16.283L15.1141 19.9753V12.5907Z" fill="#1C1B1F"/>
</svg>
