<svg width="32" height="32" viewBox="0 0 32 32" fill="none" xmlns="http://www.w3.org/2000/svg">
<path fill-rule="evenodd" clip-rule="evenodd" d="M0.832474 24.6441C0.472945 23.2637 0 20.5778 0 16C0 11.4223 0.472965 8.73634 0.832508 7.35591C0.928616 6.97889 1.11318 6.63021 1.3709 6.33874C1.62862 6.04727 1.95208 5.8214 2.31449 5.67986C7.46484 3.70069 16 3.75503 16 3.75503C16 3.75503 24.5353 3.70068 29.6856 5.67988C30.048 5.82142 30.3714 6.04729 30.6291 6.33876C30.8869 6.63023 31.0714 6.97892 31.1675 7.35593C31.5271 8.73637 32 11.4223 32 16C32 20.5778 31.527 23.2637 31.1675 24.6442C31.0714 25.0212 30.8868 25.3699 30.6291 25.6613C30.3714 25.9528 30.0479 26.1787 29.6855 26.3202C24.5352 28.2994 16 28.245 16 28.245C16 28.245 7.46474 28.2994 2.31445 26.3202C1.95204 26.1786 1.62858 25.9528 1.37086 25.6613C1.11314 25.3698 0.928579 25.0211 0.832474 24.6441ZM13.5385 11.0771L21.4294 16.0001L13.5385 20.9232V11.0771Z" fill="#111827"/>
</svg>
