<svg width="32" height="32" viewBox="0 0 32 32" fill="none" xmlns="http://www.w3.org/2000/svg">
<path d="M6.22168 30.2227V32L1.77734 31.999V30.2217L6.22168 30.2227ZM30.2217 30.2227V32L25.7783 31.999L25.7773 30.2217L30.2217 30.2227ZM1.77734 25.7783L1.77832 30.2217H0.000976562L0 25.7773L1.77734 25.7783ZM7.99902 25.7783L8 30.2217H6.22266L6.22168 25.7773L7.99902 25.7783ZM25.7773 25.7783L25.7783 30.2217H24.001L24 25.7773L25.7773 25.7783ZM31.999 25.7783L32 30.2217H30.2227L30.2217 25.7773L31.999 25.7783ZM24 27V29H8V27H24ZM5.16113 24H6.22168V25.7773H1.77734V24H3.16113V8H5.16113V24ZM29 24H30.2217V25.7773H25.7773V24H27V8H29V24ZM6.22168 6.22266V8L1.77734 7.99902V6.22168L6.22168 6.22266ZM30.2217 6.22266V8L25.7783 7.99902L25.7773 6.22168L30.2217 6.22266ZM1.77734 1.77832L1.77832 6.22168H0.000976562L0 1.77734L1.77734 1.77832ZM7.99902 1.77832L8 6.22168H6.22266L6.22168 1.77734L7.99902 1.77832ZM25.7773 1.77832L25.7783 6.22168H24.001L24 1.77734L25.7773 1.77832ZM31.999 1.77832L32 6.22168H30.2227L30.2217 1.77734L31.999 1.77832ZM24 5H8V3H24V5ZM6.22168 1.77734H1.77734V0H6.22168V1.77734ZM30.2217 1.77734H25.7773V0H30.2217V1.77734Z" fill="#111827"/>
</svg>
