<svg xmlns="http://www.w3.org/2000/svg" width="33" height="32" fill="none"><path fill="#111827" fill-rule="evenodd" d="M26.31 5.418a1 1 0 0 1 1.387.273l2.414 3.6-19.247 12.91a4 4 0 0 1-5.55-1.093L2.89 17.49l2.19-1.47 2.992 1.126a1 1 0 0 0 .91-.105l3.538-2.374a1 1 0 0 0 .041-1.631l-3.95-2.955 1.812-1.215 7.287 1.912a1 1 0 0 0 .811-.136l7.79-5.225Zm3.048-.84a3 3 0 0 0-4.163-.82L17.781 8.73l-7.288-1.912a1 1 0 0 0-.81.136l-3.36 2.253a1 1 0 0 0-.042 1.632l3.952 2.954-1.94 1.3-2.991-1.124a1 1 0 0 0-.91.105L.945 16.387a1 1 0 0 0-.273 1.388l2.982 4.447a6 6 0 0 0 8.325 1.64l20.078-13.467a1 1 0 0 0 .273-1.387l-2.971-4.43ZM6.47 26.751a1 1 0 0 0 0 2h25.029a1 1 0 1 0 0-2H6.469Z" clip-rule="evenodd"/></svg>