<svg xmlns="http://www.w3.org/2000/svg" width="33" height="32" fill="none"><path fill="#111827" fill-rule="evenodd" d="M16.5 3.243a2.752 2.752 0 0 0-.006 5.504h.012a2.752 2.752 0 0 0-.006-5.504Zm-4.752 2.752a4.753 4.753 0 0 0 3.752 4.647V28.72A14.008 14.008 0 0 1 2.53 15.749h2.716a1 1 0 1 0 0-2H1.993c-.82 0-1.52.671-1.491 1.534a16.007 16.007 0 0 0 31.996 0 1.487 1.487 0 0 0-1.49-1.534h-3.253a1 1 0 0 0 0 2h2.716a14.007 14.007 0 0 1-12.97 12.972V10.64a4.753 4.753 0 0 0-1-9.398 4.752 4.752 0 0 0-4.753 4.752Z" clip-rule="evenodd"/></svg>