<svg xmlns="http://www.w3.org/2000/svg" width="33" height="32" fill="none"><path fill="#111827" fill-rule="evenodd" d="M16.5 2.23C8.895 2.23 2.73 8.396 2.73 16c0 7.605 6.165 13.77 13.77 13.77 7.605 0 13.77-6.165 13.77-13.77 0-7.605-6.165-13.77-13.77-13.77ZM.73 16C.73 7.29 7.79.23 16.5.23S32.27 7.29 32.27 16 25.21 31.77 16.5 31.77.73 24.71.73 16Zm11.426-5.351h-.059a1 1 0 0 0-.949 1v7.384a1 1 0 1 0 2 0v-4.97l6.996 6.995a1 1 0 0 0 1.415-1.414l-6.996-6.995h4.97a1 1 0 1 0 0-2h-7.377Z" clip-rule="evenodd"/></svg>