<svg xmlns="http://www.w3.org/2000/svg" width="33" height="32" fill="none"><path fill="#111827" fill-rule="evenodd" d="M17.415.503A1 1 0 0 0 16.521 0a.998.998 0 0 0-.729.293l-5.303 5.303a1 1 0 1 0 1.415 1.414l3.644-3.645V11a1 1 0 1 0 2 0V3.463l3.549 3.546a1 1 0 0 0 1.414-1.414L17.415.503ZM10.49 24.99a1 1 0 0 1 1.414 0l3.645 3.642V21a1 1 0 1 1 2 0v7.537l3.548-3.548a1 1 0 0 1 1.415 1.414L17.414 31.5a1 1 0 0 1-.895.499.998.998 0 0 1-.725-.293l-5.305-5.302a1 1 0 0 1 0-1.413Zm-6.573-9.943 3.595-3.596a1 1 0 1 0-1.414-1.414L.81 15.325a.997.997 0 0 0-.009 1.437l5.296 5.296a1 1 0 0 0 1.414-1.414l-3.596-3.596H11.5a1 1 0 1 0 0-2H3.916Zm21.573-5.06a1 1 0 0 1 1.414 0l5.303 5.303a.997.997 0 0 1 .293.754 1 1 0 0 1-.496.864l-5.099 5.1a1 1 0 1 1-1.414-1.413l3.55-3.551H21.5a1 1 0 1 1 0-2h7.631l-3.642-3.642a1 1 0 0 1 0-1.415Z" clip-rule="evenodd"/></svg>