<svg xmlns="http://www.w3.org/2000/svg" width="33" height="33" fill="none"><path fill="#111827" fill-rule="evenodd" d="M2.5 8.8c0-1.132.92-2.05 2.052-2.05.16 0 .402.044.657.137.263.096.435.204.495.257l.001.001.055.055.16.165a56.645 56.645 0 0 1 .852.918 7.831 7.831 0 0 0-3.588 2.047 2.046 2.046 0 0 1-.683-1.53Zm-.539 3.115A4.051 4.051 0 0 1 4.552 4.75c.46 0 .938.112 1.341.26.396.143.821.358 1.137.638.139.123.48.487.854.891.4.431.898.977 1.39 1.517.956 1.051 1.893 2.09 2.04 2.254l.102.1a2.051 2.051 0 1 0 1.273-3.66 1 1 0 1 1 0-2 4.051 4.051 0 1 1-2.577 7.178l-.034-.028-.03-.03-.147-.145c-.02-.019-.04-.04-.062-.064-.082-.091-.71-.788-1.46-1.614a5.832 5.832 0 0 0-.664 11.564l.006-6.53a1 1 0 1 1 2 .002l-.006 6.53a5.831 5.831 0 0 0 4.665-4.336 1 1 0 0 1 1.94.485 7.831 7.831 0 1 1-14.359-5.846Zm17.154 1.675a1 1 0 0 1 1-1H31.5a1 1 0 1 1 0 2H20.115a1 1 0 0 1-1-1Zm0 4.553a1 1 0 0 1 1-1H31.5a1 1 0 1 1 0 2H20.115a1 1 0 0 1-1-1Zm1 3.554a1 1 0 1 0 0 2H31.5a1 1 0 0 0 0-2H20.115ZM6.593 27.25a1 1 0 0 1 1-1h23.906a1 1 0 0 1 0 2H7.593a1 1 0 0 1-1-1Z" clip-rule="evenodd"/></svg>