<svg xmlns="http://www.w3.org/2000/svg" width="33" height="33" fill="none"><path fill="#111827" fill-rule="evenodd" d="M2.773 7.5H1.501a1 1 0 0 1 0-2h2.246a1 1 0 0 1 .876.473l4.616 7.423 4.705-7.43a1 1 0 0 1 .89-.465h2.221a1 1 0 1 1 0 2H15.79v9.11h.71a1 1 0 1 1 0 2h-3.332a1 1 0 1 1 0-2h.622V9.95l-3.713 5.863a1 1 0 0 1-1.694-.007l-3.609-5.802v6.608h.617a1 1 0 1 1 0 2H2.056a1 1 0 1 1 0-2h.717v-9.11ZM20.5 13.168a1 1 0 0 1 1-1h9.999a1 1 0 0 1 0 2h-10a1 1 0 0 1-1-1Zm1 3.444a1 1 0 1 0 0 2h9.999a1 1 0 1 0 0-2h-10ZM7.167 22.055a1 1 0 0 1 1-1H31.5a1 1 0 1 1 0 2H8.167a1 1 0 0 1-1-1Zm1 3.445a1 1 0 1 0 0 2H31.5a1 1 0 1 0 0-2H8.167Z" clip-rule="evenodd"/></svg>