<svg xmlns="http://www.w3.org/2000/svg" width="32" height="33" fill="none"><path stroke="#1C1B1F" stroke-linecap="round" stroke-linejoin="round" stroke-width="2" d="M10 23.786v2.571M22 23.786v2.571"/><path stroke="#1C1B1F" stroke-width="2" d="M4 14.857a.5.5 0 0 1 .5-.5h23a.5.5 0 0 1 .5.5v3.929a5 5 0 0 1-5 5H9a5 5 0 0 1-5-5v-3.929Z"/><rect width="6.857" height="4.286" x="16.857" y="14.357" stroke="#1C1B1F" stroke-width="2" rx=".5"/><path stroke="#1C1B1F" stroke-linecap="round" stroke-width="2" d="M8.286 14.357V8.643a2 2 0 0 1 2-2h.285a2 2 0 0 1 2 2v.143"/></svg>