<svg xmlns="http://www.w3.org/2000/svg" width="33" height="32" fill="none"><path fill="#111827" fill-rule="evenodd" d="M2.102 24.473a1 1 0 0 0 .818 1.576h27.16a1 1 0 0 0 .818-1.575l-.002-.002-.005-.009-.025-.035-.098-.143a37.646 37.646 0 0 1-1.49-2.397c-.864-1.52-1.721-3.303-1.96-4.667-.164-.941-.201-1.956-.14-3.01.193-3.295-.739-6.748-2.564-9.398C22.782 2.152 19.992.23 16.5.23c-3.492 0-6.282 1.92-8.115 4.582-1.824 2.65-2.757 6.103-2.564 9.397.062 1.055.025 2.07-.14 3.01-.238 1.365-1.095 3.148-1.96 4.668a37.654 37.654 0 0 1-1.587 2.54l-.025.035-.006.009v.001Zm25.438-1.596c.242.425.479.82.695 1.172H4.765c.216-.351.453-.747.695-1.172.873-1.534 1.889-3.578 2.192-5.312.196-1.126.235-2.3.166-3.472-.168-2.869.653-5.877 2.215-8.146 1.554-2.258 3.785-3.716 6.467-3.716 2.682 0 4.913 1.458 6.467 3.716 1.562 2.269 2.383 5.277 2.215 8.146-.069 1.172-.03 2.346.166 3.472.303 1.734 1.32 3.778 2.192 5.312ZM12.042 11.221a1 1 0 0 1 1-1h6.048a1 1 0 0 1 .784 1.621l-4.762 6.007h3.978a1 1 0 1 1 0 2h-6.048a1 1 0 0 1-.783-1.622l4.762-6.006h-3.979a1 1 0 0 1-1-1ZM10.577 30.77a1 1 0 0 1 1-1h9.846a1 1 0 1 1 0 2h-9.846a1 1 0 0 1-1-1Z" clip-rule="evenodd"/></svg>