<svg xmlns="http://www.w3.org/2000/svg" width="33" height="32" fill="none"><path fill="#111827" fill-rule="evenodd" d="M2.102 24.257a1 1 0 0 0 .818 1.575h7.585v.231c0 1.576.635 3.083 1.761 4.193a6.033 6.033 0 0 0 4.234 1.73c1.585 0 3.109-.621 4.234-1.73a5.886 5.886 0 0 0 1.761-4.193v-.23h7.585a1 1 0 0 0 .818-1.576l-.002-.002-.005-.008-.025-.035-.098-.143a37.59 37.59 0 0 1-1.49-2.397c-.864-1.52-1.721-3.303-1.96-4.668-.164-.94-.201-1.955-.14-3.01.194-3.295-.739-6.747-2.564-9.397C22.782 1.935 19.992.015 16.5.015c-3.492 0-6.282 1.92-8.115 4.582-1.824 2.65-2.756 6.102-2.563 9.397.061 1.055.024 2.07-.14 3.01-.239 1.365-1.096 3.148-1.96 4.668a37.607 37.607 0 0 1-1.588 2.54l-.025.035-.005.008-.002.002Zm19.393-.425h6.74a38.84 38.84 0 0 1-.695-1.171c-.873-1.534-1.889-3.579-2.192-5.313-.196-1.125-.235-2.3-.166-3.47.168-2.87-.653-5.878-2.215-8.147-1.554-2.258-3.785-3.716-6.467-3.716-2.682 0-4.912 1.458-6.467 3.716C8.47 8 7.65 11.008 7.818 13.877c.069 1.172.03 2.346-.166 3.472-.303 1.733-1.32 3.778-2.192 5.312-.242.425-.479.82-.695 1.171h16.73Zm-8.99 2h7.99v.231a3.887 3.887 0 0 1-1.165 2.768 4.033 4.033 0 0 1-2.83 1.154 4.033 4.033 0 0 1-2.83-1.154 3.886 3.886 0 0 1-1.165-2.768v-.23Zm-.463-14.827a1 1 0 0 1 1-1h6.048a1 1 0 0 1 .784 1.621l-4.762 6.006h3.978a1 1 0 0 1 0 2h-6.048a1 1 0 0 1-.783-1.621l4.762-6.006h-3.979a1 1 0 0 1-1-1Z" clip-rule="evenodd"/></svg>