<svg xmlns="http://www.w3.org/2000/svg" width="33" height="32" fill="none"><path fill="#111827" fill-rule="evenodd" d="M25.22.385a1 1 0 1 0-1.067 1.691 14.428 14.428 0 0 1 5.237 5.817 1 1 0 0 0 1.793-.885A16.428 16.428 0 0 0 25.22.385ZM11.774 29.77a1 1 0 0 0 0 2h9.452a1 1 0 1 0 0-2h-9.452ZM9.16.697a1 1 0 0 1-.312 1.38A14.428 14.428 0 0 0 3.61 7.893a1 1 0 0 1-1.793-.885A16.428 16.428 0 0 1 7.78.385a1 1 0 0 1 1.38.312ZM2.834 24.373a1 1 0 0 0 .818 1.575h25.696a1 1 0 0 0 .818-1.575l-.002-.002-.005-.008-.023-.033a29.911 29.911 0 0 1-.431-.646 35.518 35.518 0 0 1-1.069-1.753c-.817-1.437-1.624-3.118-1.848-4.398-.154-.885-.19-1.841-.131-2.836.183-3.128-.702-6.406-2.436-8.924-1.74-2.53-4.395-4.359-7.721-4.359-3.326 0-5.98 1.83-7.721 4.359-1.734 2.518-2.619 5.796-2.436 8.924.059.995.023 1.95-.131 2.836-.224 1.28-1.03 2.96-1.848 4.398a35.564 35.564 0 0 1-1.5 2.399l-.023.033-.006.008v.002Zm24.064-1.453c.21.37.417.716.608 1.028H5.494c.19-.312.397-.658.608-1.028.826-1.452 1.792-3.393 2.08-5.043.187-1.07.223-2.185.158-3.297-.158-2.703.615-5.537 2.086-7.673 1.463-2.126 3.559-3.493 6.074-3.493 2.515 0 4.61 1.367 6.074 3.493 1.47 2.136 2.244 4.97 2.086 7.673-.065 1.112-.029 2.227.158 3.297.288 1.65 1.254 3.591 2.08 5.043Z" clip-rule="evenodd"/></svg>