<svg xmlns="http://www.w3.org/2000/svg" width="32" height="33" fill="none"><path stroke="#1C1B1F" stroke-linecap="round" stroke-linejoin="round" stroke-width="2" d="M13.23 12.316h5.54M8.615 25.701a4.615 4.615 0 1 0 0-9.23 4.615 4.615 0 0 0 0 9.23ZM23.385 25.701a4.615 4.615 0 1 0 0-9.23 4.615 4.615 0 0 0 0 9.23Z"/><path stroke="#1C1B1F" stroke-linecap="round" stroke-linejoin="round" stroke-width="2" d="M4.658 18.704 9.272 7.747c1.515-.633 2.388-.561 3.962 0l-.067 12.574M27.345 18.704 22.731 7.747c-1.515-.633-2.388-.561-3.962 0l.067 12.574"/></svg>