<svg xmlns="http://www.w3.org/2000/svg" width="33" height="33" fill="none"><path fill="#111827" fill-rule="evenodd" d="M2.643 4.203a1 1 0 0 1 1-1h14.999a1 1 0 0 1 1 1v7.524h9.714a1 1 0 0 1 1 1v15.07h1.143a1 1 0 1 1 0 2H1.5a1 1 0 1 1 0-2h1.142V4.203Zm2 1v22.594h12.999V5.203h-13ZM9 8.513a1 1 0 0 0 0 2h4.285a1 1 0 1 0 0-2H9ZM8 15.94a1 1 0 0 1 1-1h4.285a1 1 0 1 1 0 2H9a1 1 0 0 1-1-1Zm1 5.428a1 1 0 1 0 0 2h4.285a1 1 0 0 0 0-2H9Zm12.927 2.071a1 1 0 0 1 1-1h2.143a1 1 0 0 1 0 2h-2.143a1 1 0 0 1-1-1Zm1-6.357a1 1 0 1 0 0 2h2.143a1 1 0 1 0 0-2h-2.143Zm-3.285 10.714v-14.07h8.714v14.07h-8.714Z" clip-rule="evenodd"/></svg>