<svg xmlns="http://www.w3.org/2000/svg" width="33" height="33" fill="none"><path fill="#111827" fill-rule="evenodd" d="M.5 29.623a1 1 0 0 0 1 1H31.5a1 1 0 0 0 1-1V7.124a1 1 0 0 0-1-1h-6.905l-2.242-3.308a1 1 0 0 0-.828-.439h-9.999a1 1 0 0 0-.828.44L8.46 6.124H1.5a1 1 0 0 0-1 1v22.499Zm2-1V8.124h6.491a1 1 0 0 0 .829-.44l2.236-3.307h8.938l2.241 3.308a1 1 0 0 0 .828.44H30.5v20.498H2.501Zm20.569-17.02a1 1 0 0 1 1 1v3.583a.996.996 0 0 1-.293.707c-.2.2-.464.298-.727.293h-3.563a1 1 0 1 1 0-2h1.168l-.826-.826a5.568 5.568 0 0 0-7.875 0 1 1 0 0 1-1.414-1.414 7.57 7.57 0 0 1 10.703 0l.827.826v-1.169a1 1 0 0 1 1-1ZM9.922 19.41a.997.997 0 0 0-.99.997v3.585a1 1 0 1 0 2 0v-1.168l.826.826a7.567 7.567 0 0 0 10.704 0 1 1 0 0 0-1.415-1.414 5.57 5.57 0 0 1-7.875 0l-.827-.826h1.17a1 1 0 0 0 0-2H9.921Z" clip-rule="evenodd"/></svg>