<svg xmlns="http://www.w3.org/2000/svg" width="33" height="32" fill="none"><path fill="#111827" fill-rule="evenodd" d="M28.549 1.744a1 1 0 0 1 .617.924v6.666a1 1 0 0 1-2 0V5.082l-23.25 23.25h23.25v-5.666a1 1 0 1 1 2 0v6.666a1 1 0 0 1-1 1H1.501a1 1 0 0 1-.707-1.707L27.459 1.96a1 1 0 0 1 1.09-.216Zm3.657 10.216a1 1 0 0 1 0 1.414L29.58 16l2.626 2.626a1 1 0 0 1-1.414 1.414l-2.626-2.626-2.626 2.626a1 1 0 0 1-1.414-1.414L26.752 16l-2.626-2.626a1 1 0 0 1 1.414-1.414l2.626 2.626 2.626-2.626a1 1 0 0 1 1.414 0Z" clip-rule="evenodd"/></svg>