<svg xmlns="http://www.w3.org/2000/svg" width="33" height="32" fill="none"><path fill="#111827" fill-rule="evenodd" d="M1.5.624a1 1 0 0 0-1 1v28.753a1 1 0 0 0 1.63.776l7.605-6.17h21.764a1 1 0 0 0 1-1V1.623a1 1 0 0 0-1-1H1.5Zm1 21.653V2.624H30.5v20.359H9.38a1 1 0 0 0-.63.223L2.5 28.277v-6Zm8.375-9.404a1.875 1.875 0 1 1-3.75 0 1.875 1.875 0 0 1 3.75 0Zm7.5 0a1.875 1.875 0 1 1-3.75 0 1.875 1.875 0 0 1 3.75 0Zm5.624 1.875a1.875 1.875 0 1 0 0-3.75 1.875 1.875 0 0 0 0 3.75Z" clip-rule="evenodd"/></svg>