<svg xmlns="http://www.w3.org/2000/svg" width="33" height="32" fill="none"><path fill="#111827" fill-rule="evenodd" d="M16.5 2c-7.732 0-14 6.268-14 14 0 7.731 6.268 13.999 14 13.999 7.731 0 13.999-6.268 13.999-14 0-7.73-6.268-13.998-14-13.998ZM.5 16c0-8.836 7.164-16 16-16s15.999 7.164 15.999 16-7.163 15.999-16 15.999c-8.835 0-15.998-7.163-15.998-16Zm8.891-6.01a1 1 0 0 1 1.415 0l5.303 5.303a1 1 0 0 1 0 1.414l-5.304 5.303a1 1 0 1 1-1.414-1.414L13.987 16l-4.596-4.596a1 1 0 0 1 0-1.414Zm8.914 0a1 1 0 1 0-1.414 1.414L21.487 16l-4.596 4.596a1 1 0 1 0 1.414 1.414l5.303-5.303a1 1 0 0 0 0-1.414L18.305 9.99Z" clip-rule="evenodd"/></svg>