<svg xmlns="http://www.w3.org/2000/svg" width="33" height="32" fill="none"><path fill="#111827" fill-rule="evenodd" d="M2.5 7.137a5.136 5.136 0 1 1 10.273 0 5.136 5.136 0 0 1-10.272 0ZM7.638 0a7.136 7.136 0 1 0 0 14.272A7.136 7.136 0 0 0 7.637 0Zm12.59 7.136a5.136 5.136 0 1 1 10.272 0 5.136 5.136 0 0 1-10.272 0ZM25.363 0a7.136 7.136 0 1 0 0 14.272 7.136 7.136 0 0 0 0-14.272ZM7.637 19.727a5.136 5.136 0 1 0 0 10.272 5.136 5.136 0 0 0 0-10.272ZM.5 24.863a7.136 7.136 0 1 1 14.272 0 7.136 7.136 0 0 1-14.272 0Zm19.726 0a5.136 5.136 0 1 1 10.272 0 5.136 5.136 0 0 1-10.272 0Zm5.136-7.136a7.136 7.136 0 1 0 0 14.272 7.136 7.136 0 0 0 0-14.272Z" clip-rule="evenodd"/></svg>