<svg xmlns="http://www.w3.org/2000/svg" width="33" height="33" fill="none"><path fill="#111827" fill-rule="evenodd" d="M19.087 2.605a8.788 8.788 0 0 1 8.36 13.953 16.437 16.437 0 0 1-1.809 1.94c-1.186 1.093-2.84 1.581-4.607 1.581H9.646A5.85 5.85 0 0 1 6.36 9.39a5.852 5.852 0 0 1 3.662-1.002 10.787 10.787 0 0 0-.398 2.903 1 1 0 1 0 2 0 8.787 8.787 0 0 1 7.463-8.686ZM8.295 6.495a7.852 7.852 0 0 1 2.474-.039l.04-.08a10.788 10.788 0 1 1 18.233 11.389l-.01.014a18.397 18.397 0 0 1-2.038 2.189c-1.66 1.53-3.857 2.111-5.963 2.111H9.645a7.852 7.852 0 0 1-1.35-15.585Zm2.497 18.58a1.712 1.712 0 1 1-3.425 0 1.712 1.712 0 0 1 3.425 0Zm5.708 2.283a1.712 1.712 0 1 1-3.425 0 1.712 1.712 0 0 1 3.425 0Zm5.137-.57a1.712 1.712 0 1 0 0-3.425 1.712 1.712 0 0 0 0 3.424ZM9.65 30.782a1.712 1.712 0 1 1-3.425 0 1.712 1.712 0 0 1 3.425 0Zm10.846 1.713a1.712 1.712 0 1 0 0-3.425 1.712 1.712 0 0 0 0 3.425Z" clip-rule="evenodd"/></svg>