<svg xmlns="http://www.w3.org/2000/svg" width="33" height="32" fill="none"><path fill="#111827" fill-rule="evenodd" d="M5.66 1.574a1 1 0 1 0-1.53 1.288l6.394 7.593a1 1 0 0 0-.17.239l-.075.149a8.498 8.498 0 0 0-8.527 3.965 8.5 8.5 0 0 0 7.242 12.94h15.971c.039 0 .077-.001.115-.006l2.26 2.684a1 1 0 1 0 1.53-1.288L5.66 1.574Zm17.741 24.175L11.902 12.092a9.717 9.717 0 0 0-.835 3.94 1 1 0 1 1-2 0c0-1.108.157-2.207.464-3.264a6.501 6.501 0 1 0-.535 12.98h14.405Zm-4.083-19.32a9.716 9.716 0 0 1 9.243 15.427c-.27.348-.562.687-.863 1.012a1 1 0 0 0 1.468 1.359c.337-.364.667-.749.98-1.15l.01-.014A11.716 11.716 0 0 0 13.933 6.529a1 1 0 0 0 1.17 1.622 9.717 9.717 0 0 1 4.215-1.723Z" clip-rule="evenodd"/></svg>