<svg xmlns="http://www.w3.org/2000/svg" width="33" height="33" fill="none"><path fill="#111827" fill-rule="evenodd" d="M10.959 3.025a1 1 0 0 0-1.97.35l.442 2.48a7.469 7.469 0 0 0-3.702 2.25L3.555 6.58A1 1 0 0 0 2.407 8.22l2.2 1.54a7.461 7.461 0 0 0-.728 4.19l-2.54.452a1 1 0 0 0 .351 1.97l2.69-.48c.181.448.405.878.668 1.283a7.96 7.96 0 0 0-2.024 8.008A7.955 7.955 0 0 0 10.62 30.8h11.603c2.106 0 4.301-.581 5.964-2.108a18.733 18.733 0 0 0 2.1-2.252l.012-.014A10.936 10.936 0 0 0 17.872 9.567a7.462 7.462 0 0 0-1.031-1.472l1.746-2.492a1 1 0 0 0-1.639-1.147l-1.638 2.34a7.462 7.462 0 0 0-3.89-1.176l-.461-2.595Zm5.095 7.387A5.46 5.46 0 0 0 5.91 14.026a5.61 5.61 0 0 0 .736 1.933 7.954 7.954 0 0 1 5.124-.986l.046-.091a10.934 10.934 0 0 1 4.238-4.47Zm4.149.62a8.935 8.935 0 0 1 8.5 14.187 16.768 16.768 0 0 1-1.87 2c-1.189 1.093-2.843 1.58-4.61 1.58h-11.6a5.955 5.955 0 1 1 .4-11.895c-.27.96-.408 1.956-.408 2.96a1 1 0 0 0 2 0 8.935 8.935 0 0 1 7.588-8.832Z" clip-rule="evenodd"/></svg>