<svg xmlns="http://www.w3.org/2000/svg" width="33" height="32" fill="none"><path fill="#111827" fill-rule="evenodd" d="M16.988.128a1 1 0 0 0-.976 0l-13.404 7.5a1 1 0 0 0-.512.873V23.5a1 1 0 0 0 .512.872l13.404 7.5a1 1 0 0 0 .976 0l6.673-3.733a1.01 1.01 0 0 0 .128-.072l6.603-3.695a1 1 0 0 0 .512-.872V8.5a1 1 0 0 0-.512-.872L16.988.129ZM28.904 15.26v-5.039l-11.255 6.394V29.21l4.59-2.568V19.59a1 1 0 0 1 .51-.872l6.155-3.458ZM15.649 29.377l-4.888-2.735v-7.06a1 1 0 0 0-.502-.868l-6.163-3.537v-5.06l11.553 6.435v12.825Zm1.056-14.526L27.87 8.509l-4.431-2.48-6.47 3.428a1 1 0 0 1-.936 0l-6.47-3.428-4.337 2.427 11.48 6.395Zm7.533 10.672 4.666-2.61v-5.359l-4.666 2.621v5.348Zm-15.477 0V20.16l-4.665-2.677v5.43l4.665 2.61ZM11.64 4.866l4.86 2.576 4.86-2.576-4.86-2.72-4.86 2.72Z" clip-rule="evenodd"/></svg>