<svg xmlns="http://www.w3.org/2000/svg" width="33" height="33" fill="none"><path fill="#111827" fill-rule="evenodd" d="M8.87 26.687c1.22 2.64 2.701 3.812 3.988 3.812 1.286 0 2.768-1.172 3.987-3.812 1.178-2.552 1.933-6.147 1.935-10.171v-.032c-.002-4.024-.757-7.619-1.935-10.17-1.219-2.641-2.7-3.813-3.987-3.813S10.089 3.673 8.87 6.313C7.69 8.87 6.935 12.47 6.935 16.5c0 4.03.756 7.631 1.936 10.187ZM19.69 24.73c.62-2.14 1-4.605 1.077-7.23h5.279c-.096 2.554-.54 5.037-1.288 7.23h-5.068Zm-.686 2c-.11.273-.224.538-.342.795-.519 1.124-1.15 2.15-1.885 2.974h3.06c1.026 0 1.92-.36 2.445-1.027.63-.8 1.188-1.724 1.669-2.742h-4.947Zm-5.9 5.762a4.445 4.445 0 0 1-.245.007c-2.537 0-4.516-2.186-5.803-4.974-1.326-2.873-2.12-6.772-2.12-11.025s.794-8.152 2.12-11.025C8.342 2.687 10.32.501 12.858.501c.082 0 .164.002.245.007A1.01 1.01 0 0 1 13.221.5h6.529c1.516 0 3.119.56 4.142 1.887 2.948 3.829 4.238 9.235 4.17 14.448-.068 5.208-1.494 10.422-4.209 13.873-1.007 1.28-2.567 1.79-4.018 1.79h-6.614c-.04 0-.079-.002-.118-.007Zm3.673-29.991c.735.824 1.366 1.85 1.885 2.974.118.257.232.522.342.794h4.931a15.189 15.189 0 0 0-1.627-2.66C21.755 2.892 20.814 2.5 19.75 2.5h-2.974Zm3.99 13c-.078-2.625-.458-5.09-1.077-7.232h5.07c.778 2.233 1.205 4.713 1.29 7.231h-5.283Z" clip-rule="evenodd"/></svg>