<svg xmlns="http://www.w3.org/2000/svg" width="33" height="32" fill="none"><path fill="#111827" d="m27.107 5.393-.707.708.707-.708Zm-21.214 0 .708.708-.708-.708Zm0 21.214.708-.707-.708.707Zm10.226-4.523.02 1h.02l-.04-1Zm.146-.006-.033-1-.007.001.04 1Zm.534-.017.933.358.54-1.407-1.506.05.033.999Zm-.135.351-.934-.358-.158.412.197.393.895-.447Zm.017.035.92-.392-.012-.028-.013-.027-.895.447Zm.106.276.948-.316-.002-.006-.946.322Zm.012.035.957-.287-.004-.015-.005-.014-.948.316Zm.017.059.962-.275-.004-.013-.958.288Zm.024.081-.962.275.006.021.007.02.949-.316Zm.017.053-.949.316.01.028.01.028.93-.372Zm.024.059.964-.263-.015-.055-.021-.054-.928.372Zm.017.064.97-.242-.002-.01-.003-.01-.965.262Zm.024.094-.97.243.004.02.006.02.96-.283Zm.029.1.965-.264-.003-.009-.003-.01-.96.283Zm.017.064-.964.263v.005l.964-.268Zm.03.106.967-.255-.004-.013-.963.268Zm.029.11.979-.205-.006-.024-.006-.025-.967.255Zm.023.112-.978.206.004.019.004.018.97-.243Zm.03.117-.97.243.004.016.004.016.962-.275Zm.023.082.975-.221-.006-.027-.007-.026-.962.274Zm.059.258-.975.222v.006l.975-.228Zm.04.176.984-.184-.004-.022-.005-.021-.974.227Zm.018.094-.982.184.001.01.002.01.98-.204Zm.03.14.98-.196-.001-.008-.98.204Zm.029.147-.98.196.002.014.004.015.974-.225Zm.035.152.983-.186-.004-.02-.005-.019-.974.225Zm.041.217-.983.186.003.01.98-.196Zm.035.176.983-.187-.002-.01-.98.197Zm.047.246-.982.187.982-.187Zm.024.123-.983.187.002.01.002.01.979-.207Zm.04.193.985-.173-.003-.017-.003-.017-.978.207Zm.036.2.985-.172v-.002l-.985.174Zm.047.27-.986.17.003.013.983-.184Zm.052.28.988-.158-.002-.013-.003-.013-.983.184Zm.047.293-.987.158.001.008.001.008.985-.174Zm.053.3.985-.171v-.004l-.985.174Zm.053.304.986-.165-.001-.006-.985.17Zm.052.316.988-.159-.001-.005-.987.164Zm.053.328-.987.159v.002l.987-.16Zm.041.252.99-.149-.003-.011-.987.16Zm.065.428-.99.149.002.008.001.007.987-.164Zm.029.176.988-.154-.002-.01-.986.164Zm.07.451.99-.142-.002-.012-.988.154Zm.053.37-.99.14.002.012.002.012.986-.165Zm.047.28.99-.135-.001-.014-.003-.015-.986.164Zm.053.387-.991.135v.008l.002.007.989-.15Zm.029.193-.989.15.147.971.974-.13-.132-.99Zm8.162-4.265-.737-.676.737.676Zm.064-.07.738.675.37-.405-.142-.53-.966.26Zm-.298-1.114-.966.259.966-.259Zm-.791-2.959.966-.258-.966.258Zm-.493-1.84.966-.258-.966.258Zm-.433-1.617.966-.259-.002-.005-.964.264Zm-.27-.984-.964.264.964-.264Zm-.17-.621-.966.256.002.008.964-.264Zm-.1-.375.967-.257-.002-.009-.003-.009-.961.275Zm-.093-.328-.97.242.004.016.005.016.961-.274Zm-.035-.141.97-.243-.006-.026-.008-.025-.956.294Zm-.024-.076-.961.274.003.01.003.01.955-.294Zm-.011-.041.961-.275-.006-.02-.007-.021-.948.316Zm-.012-.035-.955.296.003.01.003.01.949-.316Zm-2.549-3.715.616-.788-.616.788ZM16.5 2a14 14 0 0 1 9.9 4.1l1.414-1.414A16 16 0 0 0 16.5 0v2ZM6.6 6.1A14 14 0 0 1 16.5 2V0A16 16 0 0 0 5.186 4.686l1.415 1.415ZM2.5 16a14 14 0 0 1 4.1-9.9L5.187 4.687A16 16 0 0 0 .5 16h2Zm4.1 9.9A14 14 0 0 1 2.5 16h-2a16 16 0 0 0 4.686 11.314l1.415-1.415Zm9.9 4.1a14 14 0 0 1-9.9-4.1l-1.414 1.414A16 16 0 0 0 16.5 32v-2Zm9.9-4.1a14 14 0 0 1-9.9 4.1v2a16 16 0 0 0 11.314-4.686l-1.415-1.415Zm4.1-9.9a14 14 0 0 1-4.1 9.9l1.414 1.414A16 16 0 0 0 32.5 16h-2Zm-4.1-9.9a14 14 0 0 1 4.1 9.9h2a16 16 0 0 0-4.686-11.314l-1.415 1.415ZM9.155 16.904c0-2.665 2.73-5.164 6.758-5.164v-2c-4.69 0-8.758 2.998-8.758 7.164h2Zm6.942 4.18c-2.29.047-4.063-.42-5.229-1.181-1.133-.74-1.713-1.76-1.713-2.999h-2c0 1.984.981 3.604 2.62 4.673 1.605 1.048 3.814 1.56 6.363 1.507l-.04-2Zm.127-.005-.146.006.08 1.998.146-.006-.08-1.998Zm.54-.018-.533.018.066 1.999.533-.018-.066-1.999Zm.832 1.71.135-.352-1.867-.716-.135.351 1.867.716Zm-.021-.77-.018-.036-1.789.894.018.035L17.576 22Zm.157.4a4.913 4.913 0 0 0-.132-.346l-1.84.785c.03.067.056.136.08.205l1.892-.645Zm.014.04-.012-.034-1.897.632.012.035 1.897-.632Zm.027.088-.018-.058-1.915.574.017.059 1.916-.575Zm.027.095-.023-.082-1.923.55.023.081 1.923-.55Zm.005.011-.018-.053-1.897.633.017.052 1.898-.632Zm.003.003-.024-.058-1.856.743.023.058 1.857-.743Zm.054.173-.018-.064-1.93.526.018.064 1.93-.526Zm.029.114-.024-.093-1.94.485.023.094 1.94-.486Zm.018.06-.03-.1-1.918.565.03.1 1.918-.565Zm.023.084-.017-.064-1.93.526.018.064 1.93-.526Zm.028.1-.03-.105-1.926.536.03.105 1.926-.535Zm.033.125-.03-.11-1.933.508.029.111 1.934-.509Zm.035.16-.023-.111-1.958.412.024.111 1.957-.412Zm.02.08-.028-.116-1.94.485.029.117 1.94-.485Zm.016.05-.024-.081-1.923.55.024.081 1.923-.55Zm.043.183-.03-.13-1.95.444.03.129 1.95-.443Zm.029.129-.03-.13-1.95.444.03.129 1.95-.443Zm.04.17-.041-.176-1.948.454.04.176 1.949-.454Zm.026.137-.017-.094-1.966.368.018.094 1.965-.369Zm.026.12-.03-.14-1.958.408.03.14 1.958-.408Zm.03.155-.029-.147-1.96.393.028.146 1.962-.392Zm.03.123-.036-.152-1.948.45.035.152 1.948-.45Zm.049.256-.041-.217-1.966.372.041.217 1.966-.372Zm.033.166-.035-.176-1.961.392.035.176 1.96-.392Zm.049.255-.047-.246-1.965.374.047.246 1.965-.374Zm.023.123-.024-.123-1.964.374.023.123 1.965-.374Zm.037.173-.041-.194-1.957.416.041.193 1.957-.415Zm.041.233-.035-.2-1.97.348.036.2 1.97-.348Zm.048.272-.047-.27-1.97.343.046.27 1.97-.343Zm.05.268-.052-.281-1.966.368.053.282 1.965-.369Zm.052.32-.047-.294-1.975.316.047.293 1.975-.316Zm.05.282-.053-.299-1.97.348.053.299 1.97-.348Zm.053.308-.053-.304-1.97.34.052.305 1.971-.34Zm.054.323-.053-.317-1.973.33.053.316 1.973-.33Zm.053.334-.052-.329-1.975.318.053.328 1.974-.317Zm.041.25-.04-.252-1.975.321.041.252 1.974-.321Zm.066.439-.064-.428-1.978.298.065.428 1.977-.298Zm.027.16-.029-.175-1.973.328.03.176 1.972-.329Zm.072.462-.07-.451-1.976.308.07.451 1.976-.308Zm.055.382-.053-.37-1.98.283.053.37 1.98-.283Zm.043.258-.047-.281-1.972.329.046.28 1.973-.328Zm.057.416-.052-.387-1.982.27.053.387 1.981-.27Zm.028.179-.03-.194-1.977.3.03.193 1.977-.3Zm6.435-4.791a12.464 12.464 0 0 1-7.556 3.95l.264 1.982a14.464 14.464 0 0 0 8.768-4.582l-1.476-1.35Zm.065-.071-.064.07 1.474 1.352.065-.07-1.475-1.352Zm-.527-.178.299 1.113 1.931-.519-.299-1.113-1.931.518Zm-.791-2.96.79 2.959 1.933-.517-.791-2.959-1.933.516Zm-.493-1.84.493 1.84 1.932-.517-.493-1.84-1.932.517Zm-.433-1.617.433 1.617 1.932-.518-.433-1.617-1.932.518Zm-.268-.98.27.985 1.928-.528-.27-.984-1.928.528Zm-.17-.62.17.62 1.929-.527-.17-.621-1.93.528Zm-.102-.383.1.375 1.933-.513-.1-.375-1.933.513Zm-.088-.31.093.328 1.923-.549-.094-.328-1.922.55Zm-.044-.172.035.14 1.94-.485-.035-.14-1.94.485Zm-.01-.025.024.076 1.912-.588-.024-.076-1.911.588Zm-.017-.06.012.04 1.923-.549-.012-.04-1.923.549Zm.001.006.012.035 1.897-.632-.011-.036-1.898.633Zm-2.216-3.243a6.552 6.552 0 0 1 2.21 3.223l1.91-.593a8.551 8.551 0 0 0-2.888-4.206l-1.232 1.576Zm-4.698-1.476c1.908 0 3.481.525 4.699 1.476l1.23-1.576c-1.618-1.264-3.642-1.9-5.93-1.9v2Zm1.956 1.953a1.937 1.937 0 0 0-1.37-.568v2a.063.063 0 0 1-.044-.018l1.414-1.414Zm.568 1.37c0-.514-.204-1.007-.568-1.37l-1.414 1.414a.063.063 0 0 1-.018-.044h2Zm-.568 1.37c.363-.364.568-.857.568-1.37h-2c0-.017.006-.033.018-.045l1.414 1.415ZM16.5 17c.514 0 1.007-.204 1.37-.567l-1.414-1.415A.062.062 0 0 1 16.5 15v2Zm-1.37-.567c.363.363.856.567 1.37.567v-2c.017 0 .033.007.044.018l-1.414 1.415Zm-.567-1.37c0 .513.204 1.006.567 1.37l1.414-1.415a.063.063 0 0 1 .019.045h-2Zm.567-1.37a1.938 1.938 0 0 0-.567 1.37h2a.063.063 0 0 1-.019.044l-1.414-1.414Zm1.37-.568c-.514 0-1.007.204-1.37.568l1.414 1.414a.063.063 0 0 1-.044.018v-2Z"/></svg>