<svg xmlns="http://www.w3.org/2000/svg" width="33" height="32" fill="none"><path fill="#111827" fill-rule="evenodd" d="M16.5 0C7.666 0 .504 7.159.5 15.992v.5h6.897v-.5a9.103 9.103 0 1 1 9.584 9.098v-6.097H9.987v6.013H6.38v-3.851H1.53v4.851h3.852v4.607h5.606v-4.626h4.994V32h.519c8.837 0 16-7.163 16-16s-7.163-16-16-16ZM6.41 15.492H1.508C1.776 7.442 8.385 1 16.5 1c8.285 0 15 6.715 15 15 0 8.123-6.457 14.739-14.519 14.993V26.09c5.356-.25 9.622-4.673 9.622-10.091 0-5.58-4.524-10.103-10.103-10.103-5.41 0-9.826 4.252-10.09 9.595ZM6.38 26.006v3.607h3.606v-3.607H6.381Zm-1-3.851v2.851H2.529v-2.851h2.852Zm5.606 2.832v-4.994h4.994v4.994h-4.994Z" clip-rule="evenodd"/></svg>