<svg xmlns="http://www.w3.org/2000/svg" width="33" height="32" fill="none"><path fill="#111827" fill-rule="evenodd" d="M12.146 4.444a1 1 0 0 0-1.255-.58L5.684 5.65a1 1 0 0 0-.638.673L.54 22.256a1 1 0 0 0 .302 1.023c.799.703 2.2 1.767 3.861 2.731 1.652.959 3.634 1.861 5.58 2.169a1 1 0 0 0 1.01-.466l2.14-3.495c.954.108 1.916.16 2.88.153 1.098.007 2.195-.06 3.281-.202l1.852 3.49a1 1 0 0 0 1.157.494 34.117 34.117 0 0 0 4.655-1.746c1.774-.818 3.672-1.894 4.95-3.172a1 1 0 0 0 .248-1L27.559 6.302a1 1 0 0 0-.64-.655L21.557 3.86a1 1 0 0 0-1.247.584l-1.283 3.272c-.9-.096-1.808-.141-2.716-.135a24.152 24.152 0 0 0-2.875.152l-1.29-3.289Zm-.734 3.605-.778-1.983-3.806 1.306L2.64 22.18c.742.6 1.823 1.38 3.067 2.101 1.348.783 2.831 1.464 4.243 1.796l1.345-2.198a24.152 24.152 0 0 1-2.359-.61 1 1 0 0 1 .597-1.908 22.152 22.152 0 0 0 6.773 1.01h.014a22.15 22.15 0 0 0 6.772-1.01 1 1 0 0 1 .597 1.909 24.16 24.16 0 0 1-2.023.538l1.16 2.187a33.326 33.326 0 0 0 3.594-1.403c1.487-.686 2.918-1.498 3.94-2.37l-4.56-14.839-3.974-1.324-.769 1.96c.888.172 1.767.394 2.632.665a1 1 0 1 1-.598 1.909 22.152 22.152 0 0 0-6.772-1.011h-.014a22.152 22.152 0 0 0-6.772 1.01 1 1 0 1 1-.598-1.908 24.155 24.155 0 0 1 2.478-.634Zm.673 11.624a1.585 1.585 0 1 0 0-3.169 1.585 1.585 0 0 0 0 3.17Zm8.452 0a1.585 1.585 0 1 0 0-3.169 1.585 1.585 0 0 0 0 3.17Z" clip-rule="evenodd"/></svg>