<svg xmlns="http://www.w3.org/2000/svg" width="33" height="32" fill="none"><path fill="#111827" fill-rule="evenodd" d="M4.962 13.539a2.461 2.461 0 1 0 0 4.922 2.461 2.461 0 0 0 0-4.922ZM.501 16a4.461 4.461 0 1 1 8.923 0A4.461 4.461 0 0 1 .5 16ZM16.5 13.539a2.461 2.461 0 1 0 0 4.922 2.461 2.461 0 0 0 0-4.922ZM12.039 16a4.461 4.461 0 1 1 8.922 0 4.461 4.461 0 0 1-8.922 0Zm13.537 0a2.461 2.461 0 1 1 4.923 0 2.461 2.461 0 0 1-4.923 0Zm2.462-4.461a4.461 4.461 0 1 0 0 8.922 4.461 4.461 0 0 0 0-8.922Z" clip-rule="evenodd"/></svg>