<svg xmlns="http://www.w3.org/2000/svg" width="33" height="32" fill="none"><path fill="#111827" fill-rule="evenodd" d="M16.5 2a2.461 2.461 0 1 0 0 4.924A2.461 2.461 0 0 0 16.5 2Zm-4.461 2.462a4.461 4.461 0 1 1 8.922 0 4.461 4.461 0 0 1-8.922 0ZM16.5 13.54a2.461 2.461 0 1 0 0 4.922 2.461 2.461 0 0 0 0-4.922ZM12.039 16a4.461 4.461 0 1 1 8.922 0 4.461 4.461 0 0 1-8.922 0Zm2 11.538a2.461 2.461 0 1 1 4.922 0 2.461 2.461 0 0 1-4.922 0Zm2.461-4.462a4.461 4.461 0 1 0 0 8.923 4.461 4.461 0 0 0 0-8.923Z" clip-rule="evenodd"/></svg>