<svg xmlns="http://www.w3.org/2000/svg" width="33" height="33" fill="none"><path fill="#111827" fill-rule="evenodd" d="M.665 1.5a1 1 0 0 1 1-1H3.94a1 1 0 1 1 0 2H2.665v1.275a1 1 0 1 1-2 0V1.5Zm6.827 0a1 1 0 0 1 1-1h4.552a1 1 0 1 1 0 2H8.492a1 1 0 0 1-1-1Zm9.104 0a1 1 0 0 1 1-1h4.551a1 1 0 1 1 0 2h-4.551a1 1 0 0 1-1-1Zm9.103 0a1 1 0 0 1 1-1h2.276a1 1 0 0 1 1 1v2.653a1 1 0 1 1-2 0V2.5h-1.276a1 1 0 0 1-1-1ZM1.665 7.326a1 1 0 0 1 1 1v4.552a1 1 0 0 1-2 0V8.327a1 1 0 0 1 1-1Zm27.31 1.135a1 1 0 0 1 1 1v2.654a1 1 0 1 1-2 0V9.462a1 1 0 0 1 1-1ZM1.665 16.43a1 1 0 0 1 1 1v4.552a1 1 0 1 1-2 0V17.43a1 1 0 0 1 1-1Zm0 9.104a1 1 0 0 1 1 1v1.276h1.749a1 1 0 1 1 0 2h-2.75a1 1 0 0 1-1-1v-2.276a1 1 0 0 1 1-1Zm7.247 3.276a1 1 0 0 1 1-1h2.75a1 1 0 0 1 0 2h-2.75a1 1 0 0 1-1-1ZM6.474 7.308a1 1 0 0 1 1-1h15.692a1 1 0 0 1 1 1v9.007c.152.064.3.14.44.23a2.916 2.916 0 0 1 4.922.203l1.55 2.684.174.302c.027.048.05.096.069.146.991 1.937 1.27 4.05.774 6.026-.536 2.136-1.96 4.034-4.206 5.33-2.407 1.39-4.836 1.576-6.98.843-2.038-.698-3.738-2.197-4.905-4.11a1.015 1.015 0 0 1-.044-.07l-.096-.166-.287-.497A3.297 3.297 0 0 1 15.54 24H7.474a1 1 0 0 1-1-1V7.308Zm11.771 16.887-.46.267a1.299 1.299 0 0 0-.476 1.774l.287.497c.971 1.682 2.373 2.91 3.961 3.453 1.565.535 3.395.436 5.332-.682 1.815-1.048 2.872-2.516 3.267-4.085.396-1.577.142-3.336-.81-4.987l-1.55-2.684a.916.916 0 0 0-1.587.916l.575.995a1 1 0 1 1-1.732 1l-1.22-2.112a.916.916 0 0 0-1.586.916l1.22 2.112a1 1 0 0 1-1.732 1l-.34-.589-.01-.017-3.229-5.592a.916.916 0 1 0-1.586.916l4.345 7.525a1 1 0 1 1-1.732 1l-.937-1.623Zm3.921-15.887v7.914a2.926 2.926 0 0 0-1.304.843l-.974-1.688a2.916 2.916 0 1 0-5.05 2.916l2.14 3.708H8.474V8.308h13.692Z" clip-rule="evenodd"/></svg>