<svg xmlns="http://www.w3.org/2000/svg" width="33" height="32" fill="none"><path fill="#111827" fill-rule="evenodd" d="M2.5 16c0-.515.028-1.025.082-1.526 1.298.192 2.593.276 3.918.275a26.2 26.2 0 0 0 11.267-2.534 25.985 25.985 0 0 0 8.404-6.338 13.96 13.96 0 0 1 4.285 9c-2.867-.218-5.772.218-8.285.888a26.235 26.235 0 0 0-2.119-4.734L20.035 11c-.713.428-1.447.823-2.203 1.185l.05.088a23.741 23.741 0 0 1 1.9 4.232c-1.541.546-2.82 1.138-3.684 1.63-3.639 2.052-6.662 4.826-8.943 8.29A13.965 13.965 0 0 1 2.5 16Zm4-3.75c-1.161 0-2.292-.067-3.427-.227a14.036 14.036 0 0 1 6.562-8.228 23.738 23.738 0 0 1 6.82 6.274 23.7 23.7 0 0 1-9.953 2.18H6.5Zm12.187-3.358a23.44 23.44 0 0 0 5.523-4.58A13.935 13.935 0 0 0 16.5 2c-1.43 0-2.811.214-4.111.613a26.24 26.24 0 0 1 6.298 6.279ZM9.149 27.918A13.934 13.934 0 0 0 16.5 30c1.357 0 2.669-.193 3.91-.553.406-1.76.61-3.562.609-5.37 0-1.79-.2-3.566-.596-5.296a21.461 21.461 0 0 1 2.396-.735c.464 1.968.7 3.991.7 6.03.001 1.419-.113 2.834-.34 4.231 4.003-2.177 6.825-6.249 7.262-11.012-3.122-.143-8.884.295-13.115 3.017a24.024 24.024 0 0 0-8.177 7.605ZM16.5 0C7.663 0 .5 7.163.5 16s7.163 16 16 16 16-7.163 16-16-7.163-16-16-16Z" clip-rule="evenodd"/></svg>