<svg xmlns="http://www.w3.org/2000/svg" width="33" height="33" fill="none"><path fill="#111827" fill-rule="evenodd" d="M5.962 19.961c0-4.38 1.65-8.806 3.87-12.137 1.108-1.662 2.337-3.018 3.532-3.947C14.578 2.932 15.662 2.5 16.5 2.5c.838 0 1.922.431 3.136 1.376a14.327 14.327 0 0 1 1.994 1.92l-5.763 6.286a1.1 1.1 0 0 0 .471 1.79l3.481 1.13-.835 4.814a1 1 0 0 0 1.97.342l.97-5.583a1.1 1.1 0 0 0-.745-1.234l-2.891-.94 4.588-5.004c.098.14.195.282.291.426 2.22 3.331 3.87 7.756 3.87 12.137a10.538 10.538 0 0 1-21.075 0ZM16.5.501c-1.47 0-2.982.722-4.364 1.797-1.4 1.09-2.768 2.618-3.968 4.417-2.394 3.592-4.206 8.397-4.206 13.246a12.538 12.538 0 1 0 25.076 0c0-4.85-1.812-9.654-4.207-13.246-1.2-1.8-2.567-3.328-3.967-4.417C19.482 1.223 17.969.5 16.5.5Z" clip-rule="evenodd"/></svg>