<svg xmlns="http://www.w3.org/2000/svg" width="33" height="33" fill="none"><path fill="#111827" fill-rule="evenodd" d="M29.126 3.5c-1.41-1.347-3.709-1.293-5.134.133L19.416 8.21a1 1 0 0 1-1.415 0l-.81-.81a1.67 1.67 0 0 0-2.338 0l-1.157 1.158-.006.006a.327.327 0 0 0 0 .465l.006.005 1.276 1.277 7.494 7.494 1.277 1.277.005.005a.324.324 0 0 0 .465 0l.006-.005 1.155-1.156.002-.002a1.67 1.67 0 0 0 0-2.339l-.81-.81a1 1 0 0 1 0-1.413l4.642-4.641v-.001a3.642 3.642 0 0 0-.078-5.216l-.004-.003Zm-16.84 6.953.565.564-8.576 8.576a6.256 6.256 0 0 0-1.721 5.74l-1.655 3.8a1.945 1.945 0 0 0 .412 2.177l.003.004a2.326 2.326 0 0 0 2.558.465h.002l3.57-1.556a6.256 6.256 0 0 0 5.74-1.722l.002-.002 6.295-6.296c.083-.06.157-.134.218-.217l2.06-2.06.564.563.003.003a2.326 2.326 0 0 0 3.31 0l.002-.003 1.155-1.155.006-.005a3.67 3.67 0 0 0 0-5.15l-.005-.006-.106-.105 3.935-3.936.002-.001a5.642 5.642 0 0 0-.12-8.079c-2.236-2.133-5.773-1.988-7.928.167l-3.869 3.869-.105-.105-.005-.006a3.67 3.67 0 0 0-5.15 0l-.006.006-1.158 1.158a2.327 2.327 0 0 0 0 3.309l.003.003Zm6.174 9.943 1.885-1.885-6.08-6.08-7.964 7.965h12.16Zm-13.71 2a4.255 4.255 0 0 0-.18 2.765 1 1 0 0 1-.049.663L2.742 29.91a.327.327 0 0 0 .328.038h.002l3.88-1.692a1 1 0 0 1 .663-.048 4.255 4.255 0 0 0 4.148-1.114l.005-.004 4.692-4.693H4.75Z" clip-rule="evenodd"/></svg>