<svg xmlns="http://www.w3.org/2000/svg" width="33" height="32" fill="none"><path fill="#111827" fill-rule="evenodd" d="M24.092 3.181c1.452-1.452 3.793-1.517 5.245-.142a3.714 3.714 0 0 1 .075 5.324L24.7 13.076a1 1 0 0 0 0 1.414l.823.823a1.694 1.694 0 0 1 0 2.394l-1.183 1.183a.347.347 0 0 1-.49 0L13.634 8.676a.347.347 0 0 1 0-.49l1.183-1.184a1.693 1.693 0 0 1 2.394 0l.823.823a1 1 0 0 0 1.414 0l4.644-4.644Zm-1.414-1.414c2.179-2.18 5.755-2.337 8.033-.181a5.712 5.712 0 0 1 .115 8.191l-.707-.707.707.707-4.006 4.006.116.116a3.693 3.693 0 0 1 0 5.222l-1.183 1.184a2.346 2.346 0 0 1-3.319 0l-.591-.592-8.719 8.718a6.384 6.384 0 0 1-5.816 1.738l-3.633 1.587-.4-.917.4.917a2.346 2.346 0 0 1-2.599-.492 1.967 1.967 0 0 1-.411-2.177l1.69-3.87A6.384 6.384 0 0 1 4.092 19.4l8.718-8.719-.591-.591a2.346 2.346 0 0 1 0-3.319l1.183-1.183a3.693 3.693 0 0 1 5.223 0l.115.116 3.937-3.937Zm-8.453 10.329-8.719 8.718a4.384 4.384 0 0 0-1.136 4.238 1 1 0 0 1-.05.659l-1.813 4.155a.348.348 0 0 0 .367.057l3.94-1.72a1 1 0 0 1 .659-.05 4.384 4.384 0 0 0 4.236-1.135l8.72-8.72-6.204-6.202Z" clip-rule="evenodd"/></svg>