<svg xmlns="http://www.w3.org/2000/svg" width="33" height="32" fill="none"><path fill="#111827" fill-rule="evenodd" d="M16.5 2c-7.732 0-14 6.268-14 14 0 7.395 5.735 13.451 13 13.964V19.5h-4a1 1 0 1 1 0-2h4v-4a4.75 4.75 0 0 1 4.75-4.75h2.5a1 1 0 1 1 0 2h-2.5a2.75 2.75 0 0 0-2.75 2.75v4h4a1 1 0 1 1 0 2h-4v10.464C24.765 29.45 30.499 23.395 30.499 16c0-7.732-6.268-14-14-14ZM.5 16c0-8.836 7.164-16 16-16s15.999 7.164 15.999 16-7.163 15.999-16 15.999c-8.835 0-15.998-7.163-15.998-16Z" clip-rule="evenodd"/></svg>