<svg xmlns="http://www.w3.org/2000/svg" width="32" height="32" fill="none"><path stroke="#1C1B1F" stroke-linecap="round" stroke-linejoin="round" stroke-width="2" d="m21.698 21.697 4.661 6.216M26.36 21.697l-4.662 6.216M10.303 21.697H5.64M7.972 27.913v-6.216"/><path stroke="#1C1B1F" stroke-linecap="round" stroke-width="2" d="M18.072 21.144h-3.175c-.935 0-1.692.758-1.692 1.693v0c0 .934.757 1.692 1.692 1.692h1.56M14.776 24.529h1.604c.934 0 1.692.757 1.692 1.692v0c0 .934-.758 1.692-1.692 1.692h-3.175"/><path stroke="#1C1B1F" stroke-linecap="round" stroke-linejoin="round" stroke-width="2" d="M4 18.487v-14.4h15.626L28 12.497v5.99"/><path stroke="#1C1B1F" stroke-linecap="round" stroke-linejoin="round" stroke-width="2" d="M19.707 12.416V4.241l8.183 8.175h-8.183Z"/></svg>