<svg xmlns="http://www.w3.org/2000/svg" width="33" height="32" fill="none"><path fill="#111827" fill-rule="evenodd" d="M3 1a1 1 0 0 1 1-1h16.276a1 1 0 0 1 .71.295l8.722 8.76a1 1 0 0 1 .291.706v21.238a1 1 0 0 1-1 1h-6.252a1 1 0 1 1 0-2H28V10.676h-7.638a1 1 0 0 1-1-1V2.001H5.001v13.977a1 1 0 1 1-2 0V1Zm1 21.5a1 1 0 0 0 0 2h1.813v6.499a1 1 0 1 0 2 0v-6.5h1.812a1 1 0 1 0 0-2H4.001ZM21.362 8.675V3.574l5.107 5.102h-5.107Zm-8.797 16.198a3.042 3.042 0 0 1 3.041-3.042h3.831a1 1 0 1 1 0 2h-3.83a1.042 1.042 0 0 0 0 2.084h1.881a3.042 3.042 0 0 1-.093 6.083h-3.83a1 1 0 1 1 0-2h3.83a1.042 1.042 0 0 0 0-2.083H15.46a1.01 1.01 0 0 1-.195-.02 3.042 3.042 0 0 1-2.7-3.022Z" clip-rule="evenodd"/></svg>