<svg xmlns="http://www.w3.org/2000/svg" width="33" height="32" fill="none"><path fill="#111827" fill-rule="evenodd" d="M2.186.999a1 1 0 0 1 1-1H20.53a1 1 0 0 1 .709.294l9.295 9.336a1 1 0 0 1 .291.705v6.649a1 1 0 1 1-2 0v-5.74H20.62a1 1 0 0 1-1-1V2H4.186v14.984a1 1 0 1 1-2 0V.999Zm22.46 20.729a1 1 0 0 0-1.648 1.134l2.607 3.786-2.607 3.786a1 1 0 0 0 1.647 1.134l2.174-3.157 2.174 3.157a1 1 0 1 0 1.647-1.134l-2.607-3.786 2.607-3.786a1 1 0 1 0-1.648-1.134l-2.173 3.156-2.174-3.156Zm-22.471.567a1 1 0 0 1 1-1h5.994a1 1 0 0 1 0 2H7.172V31a1 1 0 1 1-2 0v-7.706H3.175a1 1 0 0 1-1-1Zm9.726 2.178a3.176 3.176 0 0 1 3.176-3.175h4.083a1 1 0 1 1 0 2h-4.083a1.176 1.176 0 1 0 0 2.351h2.005a3.176 3.176 0 0 1-.099 6.352h-4.082a1 1 0 0 1 0-2h4.083a1.176 1.176 0 0 0 0-2.352H14.92c-.067 0-.133-.006-.196-.019a3.176 3.176 0 0 1-2.824-3.157Zm9.72-15.23v-5.66l5.666 5.66H21.62Z" clip-rule="evenodd"/></svg>