<svg xmlns="http://www.w3.org/2000/svg" width="33" height="32" fill="none"><path fill="#111827" fill-rule="evenodd" d="M1.965 1.001a1 1 0 0 1 1-1h17.64a1 1 0 0 1 .71.294l9.453 9.495a1 1 0 0 1 .292.706v6.762a1 1 0 1 1-2 0v-5.854h-8.363a1 1 0 0 1-1-1V2H3.965v15.257a1 1 0 1 1-2 0V1Zm19.732 2.586v5.817h5.822l-5.822-5.817Zm-4.662 18.677a1 1 0 0 0-2 0V31a1 1 0 1 0 2 0v-8.735Zm5.28.034c0-.57.462-1.034 1.033-1.034h4.197a3.515 3.515 0 0 1 0 7.03h-3.23V31a1 1 0 1 1-2 0v-8.701Zm2 3.997h3.23a1.515 1.515 0 0 0 0-3.03h-3.23v3.03ZM2.94 21.264a1 1 0 0 0 0 2h3.857l-4.694 7.187A1 1 0 0 0 2.94 32h5.705a1 1 0 1 0 0-2H4.788l4.694-7.188a1 1 0 0 0-.837-1.547H2.94Z" clip-rule="evenodd"/></svg>