<svg xmlns="http://www.w3.org/2000/svg" width="33" height="32" fill="none"><path fill="#111827" fill-rule="evenodd" d="M2.447 0a1 1 0 0 0-1 1v16.864a1 1 0 1 0 2 0V2h16.395v8.754a1 1 0 0 0 1 1h8.711v6.11a1 1 0 1 0 2 0v-7.015a1 1 0 0 0-.291-.705L21.455.294A1 1 0 0 0 20.746 0h-18.3ZM3.45 23.56a1 1 0 1 0-2 0V31a1 1 0 1 0 2 0v-2.72h2.563V31a1 1 0 1 0 2 0v-7.44a1 1 0 1 0-2 0v2.72H3.451v-2.72Zm5.844 0a1 1 0 0 1 1-1h4.375a1 1 0 1 1 0 2h-1.187V31a1 1 0 1 1-2 0v-6.44h-1.188a1 1 0 0 1-1-1Zm17.954-1a1 1 0 0 1 1 1V30h2.28a1 1 0 1 1 0 2h-3.28a1 1 0 0 1-1-1v-7.44a1 1 0 0 1 1-1ZM21.842 3.593v6.161h6.166l-6.166-6.161ZM18.868 23.1a1 1 0 0 0-1.888.46V31a1 1 0 1 0 2 0v-3.337l.876 1.691a1 1 0 0 0 1.769.014l.988-1.837V31a1 1 0 1 0 2 0v-7.44a1 1 0 0 0-1.88-.474l-1.972 3.666-1.893-3.652Z" clip-rule="evenodd"/></svg>