<svg xmlns="http://www.w3.org/2000/svg" width="33" height="32" fill="none"><path fill="#111827" fill-rule="evenodd" d="M1.808 1.002a1 1 0 0 1 1-1h17.829a1 1 0 0 1 .709.294L30.9 9.892a1 1 0 0 1 .291.706v6.834a1 1 0 1 1-2 0v-5.927H20.73a1 1 0 0 1-1-1V2.002H3.808v15.43a1 1 0 1 1-2 0V1.002ZM25.606 22.14a1 1 0 0 0-1 1V30.998a1 1 0 0 0 1 1h4.584a1 1 0 1 0 0-2h-3.584V28.07h2.93a1 1 0 1 0 0-2h-2.93v-1.93h3.584a1 1 0 1 0 0-2h-4.584ZM21.73 9.505V3.59l5.92 5.915h-5.92ZM2.487 22.208a1 1 0 0 1 1.295.569L5.95 28.34l2.362-5.59a1 1 0 0 1 1.843.779l-3.321 7.859a1 1 0 0 1-1.853-.027l-3.062-7.858a1 1 0 0 1 .568-1.295Zm12.986.932a1 1 0 1 0-2 0v5.858a3 3 0 0 0 3 3h1.806a3 3 0 0 0 3-3V23.14a1 1 0 1 0-2 0v5.858a1 1 0 0 1-1 1h-1.806a1 1 0 0 1-1-1V23.14Z" clip-rule="evenodd"/></svg>