<svg xmlns="http://www.w3.org/2000/svg" width="33" height="32" fill="none"><path fill="#111827" fill-rule="evenodd" d="M4 0a1 1 0 0 0-1 1v1.876a1 1 0 1 0 2 0V2h1.035a1 1 0 1 0 0-2H4.001Zm6.104 0a1 1 0 0 0 0 2h4.07a1 1 0 1 0 0-2h-4.07Zm8.138 0a1 1 0 0 0 0 2h1.12v7.676a1 1 0 0 0 1 1h7.637v.855a1 1 0 1 0 2 0V9.76a1 1 0 0 0-.291-.706l-1.09-1.095a1.003 1.003 0 0 0-.18-.143l-1.845-1.843a1.005 1.005 0 0 0-.156-.204l-2.18-2.19a1 1 0 0 0-.234-.174L22.26 1.643a.997.997 0 0 0-.183-.253L20.986.295a1 1 0 0 0-.71-.294h-2.034ZM5.001 6.627a1 1 0 1 0-2 0v3.75a1 1 0 1 0 2 0v-3.75Zm0 7.5a1 1 0 1 0-2 0v3.749a1 1 0 1 0 2 0v-3.75Zm24.998.945a1 1 0 1 0-2 0v3.54a1 1 0 1 0 2 0v-3.54ZM5.001 21.625a1 1 0 1 0-2 0v3.75a1 1 0 1 0 2 0v-3.75Zm24.998.525a1 1 0 1 0-2 0v3.54a1 1 0 1 0 2 0v-3.54ZM5.001 29.124a1 1 0 1 0-2 0V31a1 1 0 0 0 1 1h2.083a1 1 0 1 0 0-2H5v-.875Zm24.998.105a1 1 0 0 0-2 0V30h-1.083a1 1 0 1 0 0 2h2.083a1 1 0 0 0 1-1v-1.77ZM10.25 30a1 1 0 1 0 0 2h4.167a1 1 0 0 0 0-2H10.25Zm8.333 0a1 1 0 1 0 0 2h4.167a1 1 0 1 0 0-2h-4.167Zm2.778-21.323V3.574l5.107 5.102h-5.107Z" clip-rule="evenodd"/></svg>