<svg xmlns="http://www.w3.org/2000/svg" width="33" height="32" fill="none"><path fill="#111827" fill-rule="evenodd" d="M4 0a1 1 0 0 0-1 1v30a1 1 0 0 0 1 1h25a1 1 0 0 0 1-1V9.76a1 1 0 0 0-.292-.706L20.985.295a1 1 0 0 0-.709-.294H4.002Zm1 30V2h14.361v7.676a1 1 0 0 0 1 1H28V30H5.001ZM21.362 8.675V3.574l5.107 5.102h-5.107Zm-4.86 16.828a1 1 0 0 0 1-1v-7.34l2.806 2.807a1 1 0 0 0 1.415-1.414l-4.506-4.505a1.015 1.015 0 0 0-.316-.219.998.998 0 0 0-1.107.21l-4.514 4.514a1 1 0 0 0 1.414 1.415l2.807-2.808v7.34a1 1 0 0 0 1 1Z" clip-rule="evenodd"/></svg>