<svg xmlns="http://www.w3.org/2000/svg" width="33" height="32" fill="none"><path fill="#111827" fill-rule="evenodd" d="M2.323 1a1 1 0 0 1 1-1H20.48a1 1 0 0 1 .708.294l9.195 9.234a1 1 0 0 1 .291.705v6.577a1 1 0 0 1-2 0v-5.666H20.57a1 1 0 0 1-1-1V1.999H4.323v14.81a1 1 0 0 1-2 0V1Zm20.97 20.721a1 1 0 0 1 1.391.258l2.084 3.03 2.085-3.03a1 1 0 0 1 1.648 1.133l-2.519 3.66 2.519 3.662a1 1 0 0 1-1.648 1.133l-2.085-3.03-2.084 3.03a1 1 0 0 1-1.648-1.133l2.519-3.661-2.519-3.661a1 1 0 0 1 .258-1.39Zm-13.952.834a1 1 0 1 0-2 0V29a1 1 0 0 1-1 1h-.988a1 1 0 0 1-1-1v-.843a1 1 0 1 0-2 0V29a3 3 0 0 0 3 3h.988a3 3 0 0 0 3-3v-6.445Zm2.724 2.112a3.111 3.111 0 0 1 3.11-3.112h3.962a1 1 0 1 1 0 2h-3.961a1.111 1.111 0 1 0 0 2.223h1.946A3.111 3.111 0 0 1 17.026 32h-3.962a1 1 0 0 1 0-2h3.962a1.111 1.111 0 0 0 0-2.223h-2.001a1.01 1.01 0 0 1-.196-.02 3.112 3.112 0 0 1-2.764-3.091Zm9.504-15.523V3.58l5.568 5.563h-5.568Z" clip-rule="evenodd"/></svg>