<svg xmlns="http://www.w3.org/2000/svg" width="33" height="32" fill="none"><path fill="#111827" fill-rule="evenodd" d="M7.236 0a1 1 0 0 0-1 1v7.721a1 1 0 0 0 .17.558l2.834 4.214v17.506a1 1 0 0 0 1 1h12.244a1 1 0 0 0 1-1V13.515l3.086-4.202a1 1 0 0 0 .194-.592v-7.72a1 1 0 0 0-1-1H7.236Zm17.528 7.602V2.001H8.236v5.601h16.528Zm-15.73 2h14.842l-2.198 2.994a1 1 0 0 0-.194.592v11.811H11.24V13.188a1 1 0 0 0-.17-.558L9.034 9.602Zm2.206 17.397v3h10.244v-3H11.24Zm6.285-11.932a1 1 0 1 0-2 0v4.747a1 1 0 1 0 2 0v-4.747Z" clip-rule="evenodd"/></svg>