<svg xmlns="http://www.w3.org/2000/svg" width="33" height="32" fill="none"><path fill="#111827" fill-rule="evenodd" d="M11.5 9.502a1 1 0 1 1 0-2h9V2h-9.492L2.5 10.187v19.812h27.998V2.001h-8v6.5a1 1 0 0 1-1 1H11.5ZM21.511 0H31.5a1 1 0 0 1 1 1v29.998a1 1 0 0 1-1 1H1.501a1 1 0 0 1-1-1V9.761a1 1 0 0 1 .307-.72L9.91.28a1 1 0 0 1 .694-.28h10.883a1.007 1.007 0 0 1 .023 0Zm-5.01 15.75a3.375 3.375 0 1 0 0 6.75 3.375 3.375 0 0 0 0-6.75Zm-5.375 3.375a5.375 5.375 0 1 1 10.75 0 5.375 5.375 0 0 1-10.75 0Z" clip-rule="evenodd"/></svg>