<svg xmlns="http://www.w3.org/2000/svg" width="33" height="32" fill="none"><path fill="#111827" fill-rule="evenodd" d="M.5 3.5a1 1 0 0 1 1-1h10a1 1 0 0 1 .707.294L16.914 7.5H31.5a1 1 0 0 1 1 1v3.77a1 1 0 0 1-2 0V9.5H2.501v18h11.488a1 1 0 1 1 0 2H1.5a1 1 0 0 1-1-1v-25Zm2 1v3h11.586l-3-3H2.501Zm22.486 9.912a1 1 0 0 0-1.837-.055l-1.966 4.23-4.74.268a1 1 0 0 0-.61 1.744l3.762 3.361-1.377 4.23a1 1 0 0 0 1.45 1.175l4.367-2.519 4.002 2.501a1 1 0 0 0 1.499-1.096l-1.092-4.266 3.728-3.392a1 1 0 0 0-.619-1.739l-4.922-.266-1.645-4.176Zm-2.241 5.562 1.235-2.66 1.025 2.605a1 1 0 0 0 .877.632l3.176.171-2.405 2.188a1 1 0 0 0-.295.988l.621 2.43-2.393-1.496a1 1 0 0 0-1.03-.018l-2.63 1.517.773-2.372a1 1 0 0 0-.285-1.055l-2.448-2.188 2.928-.165a1 1 0 0 0 .85-.577Z" clip-rule="evenodd"/></svg>