<svg xmlns="http://www.w3.org/2000/svg" width="33" height="32" fill="none"><path fill="#111827" fill-rule="evenodd" d="M.5 3.981a1 1 0 0 1 1-1h10a1 1 0 0 1 .678.266l4.713 4.35h14.608a1 1 0 0 1 1 1v3.55a1 1 0 0 1-2 0v-2.55h-14c-.26 0-.5-.101-.677-.266l-4.713-4.35H2.501v22.037h10.961a1 1 0 1 1 0 2H1.501a1 1 0 0 1-1-1V3.981Zm24.486 9.95a1 1 0 0 0-1.837-.055l-1.966 4.23-4.74.268a1 1 0 0 0-.61 1.744l3.762 3.362-1.377 4.229a1 1 0 0 0 1.45 1.175l4.367-2.519 4.002 2.501a1 1 0 0 0 1.499-1.096l-1.092-4.266 3.728-3.392a1 1 0 0 0-.619-1.738l-4.922-.266-1.645-4.177Zm-2.241 5.562 1.235-2.659 1.025 2.604a1 1 0 0 0 .877.632l3.176.172-2.405 2.187a1 1 0 0 0-.295.988l.621 2.43-2.393-1.496a1 1 0 0 0-1.03-.018l-2.63 1.517.773-2.371a1 1 0 0 0-.285-1.056l-2.448-2.188 2.928-.165a1 1 0 0 0 .85-.577Z" clip-rule="evenodd"/></svg>