<svg xmlns="http://www.w3.org/2000/svg" width="33" height="32" fill="none"><path fill="#111827" fill-rule="evenodd" d="M.5 4.462a1 1 0 0 1 1-1h9.231a1 1 0 0 1 .707.293l4.322 4.322h13.432a1 1 0 0 1 1 1v3.616h1.307a1 1 0 0 1 .949 1.316l-4.615 13.845a1 1 0 0 1-.949.684H1.501l-.042-.001a.996.996 0 0 1-.958-.982V4.462Zm25.663 22.076H3.003l3.779-9.046h8.262a1 1 0 0 0 .596-.197l3.499-2.603h9.908a1.016 1.016 0 0 0 .29 0h.775l-3.949 11.846Zm2.029-13.845h-9.384a1 1 0 0 0-.597.197l-3.499 2.602H6.116a1 1 0 0 0-.923.615L2.501 22.55V5.462h7.816l4.318 4.319a.997.997 0 0 0 .711.296h12.846v2.616Z" clip-rule="evenodd"/></svg>