<svg xmlns="http://www.w3.org/2000/svg" width="33" height="32" fill="none"><path fill="#111827" fill-rule="evenodd" d="M3.961 3.312a1 1 0 0 1 1-1H21.11a1 1 0 0 1 1 1v9.352h1.365a4.477 4.477 0 0 1 4.477 4.477v4.68a1.274 1.274 0 1 0 2.548 0V9.63L27.28 6.41a1 1 0 0 1 1.414-1.413l3.512 3.511a1 1 0 0 1 .293.707v12.606a3.274 3.274 0 0 1-6.548 0v-4.68a2.477 2.477 0 0 0-2.477-2.476H22.11v13.023h2.46a1 1 0 1 1 0 2H1.502a1 1 0 1 1 0-2h2.46V3.312Zm2 1v23.376H20.11V4.312H5.961Zm3.614 8.381a1 1 0 1 0 0 2h6.92a1 1 0 1 0 0-2h-6.92Z" clip-rule="evenodd"/></svg>