<svg xmlns="http://www.w3.org/2000/svg" width="33" height="33" fill="none"><path fill="#111827" fill-rule="evenodd" d="M12.005.671a1 1 0 0 0-1.116 1.66l3.818 2.566-3.818 2.566a1 1 0 1 0 1.116 1.66L15.5 6.774v4.528c-5.397.504-9.622 5.046-9.622 10.575 0 5.866 4.756 10.622 10.622 10.622s10.622-4.756 10.622-10.622c0-5.53-4.225-10.071-9.622-10.575V6.774l3.496 2.35a1 1 0 0 0 1.115-1.66l-3.818-2.567 3.818-2.566a1 1 0 1 0-1.115-1.66L16.5 3.692 12.005.672Zm4.482 12.584h.026a8.622 8.622 0 1 1-.026 0Z" clip-rule="evenodd"/></svg>