<svg xmlns="http://www.w3.org/2000/svg" width="33" height="33" fill="none"><path stroke="#111827" stroke-linecap="round" stroke-linejoin="round" stroke-width="2" d="M16.5 10.084s5.303 0 7.07-1.768a3.75 3.75 0 0 0-5.302-5.302C16.5 4.78 16.5 10.084 16.5 10.084Zm0 0s-5.303 0-7.07-1.768a3.75 3.75 0 0 1 5.302-5.302c1.768 1.767 1.768 7.07 1.768 7.07Z"/><path fill="#111827" fill-rule="evenodd" d="M1.501 9.084a1 1 0 0 0-1 1v7.5a1 1 0 0 0 1 1h1.5v11.499a1 1 0 0 0 1 1H28.999a1 1 0 0 0 1-1v-11.5h1.5a1 1 0 0 0 1-1v-7.499a1 1 0 0 0-1-1H1.501Zm13.999 2H2.501v5.5H15.5v-5.5Zm13.503 5.5H17.5v-5.5h13v5.5h-1.497Zm-1.004 2H17.5v10.499H28v-10.5Zm-22.998 0H15.5v10.499H5v-10.5Z" clip-rule="evenodd"/></svg>