<svg xmlns="http://www.w3.org/2000/svg" width="33" height="32" fill="none"><path fill="#111827" fill-rule="evenodd" d="M26.726 2a3.772 3.772 0 1 0 0 7.546 3.772 3.772 0 0 0 0-7.545Zm-5.772 3.773a5.772 5.772 0 1 1 5.99 5.769 6 6 0 0 1-5.98 5.5h-9.433a4 4 0 0 0-3.975 3.555 5.772 5.772 0 1 1-2.282-.057v-9.08a5.774 5.774 0 0 1 1-11.46 5.772 5.772 0 0 1 1 11.46v5.355a5.982 5.982 0 0 1 4.257-1.772h9.433a4 4 0 0 0 3.994-3.773 5.775 5.775 0 0 1-4.004-5.497ZM6.268 22.454a3.772 3.772 0 1 0 .011 0h-.011ZM2.501 5.774a3.772 3.772 0 1 1 7.545 0 3.772 3.772 0 0 1-7.545 0Z" clip-rule="evenodd"/></svg>