<svg xmlns="http://www.w3.org/2000/svg" width="33" height="32" fill="none"><path fill="#111827" fill-rule="evenodd" d="M2.5 16c0-7.732 6.268-14 14-14s14 6.268 14 14c0 6.074-3.868 11.244-9.275 13.182v-3.741c0-.723-.162-1.407-.452-2.02.41-.1.806-.215 1.182-.344.3-.092.59-.205.87-.337l.07-.03v-.003c2.557-1.238 4.272-4.053 4.272-7.178a8.258 8.258 0 0 0-1.499-4.778c.18-.738.171-1.472.091-2.096a6.747 6.747 0 0 0-.522-1.89 1 1 0 0 0-.768-.57c-.969-.135-1.978.193-2.742.531-.594.264-1.134.576-1.536.827a18.579 18.579 0 0 0-3.607-.34c-1.347 0-2.594.116-3.715.346-.396-.25-.935-.558-1.53-.82-.772-.343-1.804-.685-2.77-.559a1 1 0 0 0-.788.592 7.178 7.178 0 0 0-.505 1.96c-.071.628-.07 1.368.126 2.098-.907 1.26-1.438 2.815-1.438 4.699 0 3.92 2.358 6.88 5.663 7.717.197.058.399.112.605.163a4.746 4.746 0 0 0-.118.27c-1.015.312-1.61.123-1.95-.073a2.003 2.003 0 0 1-.724-.764l-.012-.02-.001-.002c-.2-.347-.617-.822-.763-.983l-.006-.006-.011-.012c-1.113-1.162-2.512-1.203-3.192-1.024a1.003 1.003 0 0 0-.243.1l-.006.003c-.036.02-.21.118-.36.28a1.184 1.184 0 0 0-.297 1.01c.064.367.28.634.452.805.185.184.426.361.716.54.21.131.485.439.761.883.262.42.46.856.556 1.11.023.06.052.119.086.174.783 1.264 2.002 1.807 3.109 1.99a6.431 6.431 0 0 0 1.545.06v1.432C6.367 27.243 2.5 22.073 2.5 16Zm14-16C7.664 0 .5 7.164.5 16s7.164 16 16 16 16-7.164 16-16-7.164-16-16-16ZM9.263 8.957c.032-.276.084-.535.143-.761.326.06.708.187 1.124.37.663.295 1.261.668 1.579.885a1 1 0 0 0 .797.148c1.049-.25 2.282-.386 3.678-.386 1.3 0 2.52.137 3.578.38a1 1 0 0 0 .774-.141c.367-.242.957-.612 1.6-.897.406-.18.778-.3 1.096-.355.058.209.11.45.143.71.075.577.048 1.171-.147 1.68a1 1 0 0 0 .16.99c.854 1.046 1.379 2.425 1.379 3.949 0 2.433-1.344 4.519-3.169 5.39-.843.365-1.891.654-3.081.823a1 1 0 0 0-.546 1.717c.527.498.854 1.201.854 1.982v4.273c-2.448.459-4.146.264-5.451.009V26.56a1 1 0 0 0-.98-1c.106-.034.214-.071.323-.112l.075-.023a1 1 0 0 0 .675-.697c.133-.493.402-.932.766-1.274a1 1 0 0 0-.541-1.718 13.669 13.669 0 0 1-1.959-.425c-2.371-.593-4.17-2.715-4.169-5.782 0-1.661.513-2.905 1.324-3.868a1 1 0 0 0 .153-1.042c-.204-.47-.246-1.059-.178-1.662ZM6.4 21.561l.007.008a.059.059 0 0 1-.007-.008Z" clip-rule="evenodd"/></svg>