<svg xmlns="http://www.w3.org/2000/svg" width="33" height="32" fill="none"><path fill="#111827" fill-rule="evenodd" d="M6.595 6.107A13.955 13.955 0 0 1 16.5 2.001c1.123 0 2.214.132 3.26.382.018.054.04.107.068.16l1.03 1.943-5.802 5.127h-4.822a1 1 0 0 0-.953.695l-.969 3.029-.664-.158-1.51-4.069.457-3.003Zm16.398-1.861-.47-.886C27.24 5.61 30.5 10.425 30.5 16c0 1.793-.337 3.506-.95 5.082l-7.95-4.583a1.001 1.001 0 0 0-.4-.129l-4.656-.466a1 1 0 0 0-1.012.587l-.152.34H13.91l-1.263-2.146a1 1 0 0 0-.63-.466l-1.755-.418.7-2.188h4.471a1 1 0 0 0 .662-.251l6.675-5.899a1 1 0 0 0 .222-1.217Zm-8.51 14.585H13.34a1 1 0 0 1-.862-.493l-1.337-2.272-4.475-1.065a1 1 0 0 1-.706-.625L4.174 9.563a1 1 0 0 1-.04-.132A13.937 13.937 0 0 0 2.502 16c0 7.564 6 13.727 13.5 13.99l.325-2.331-3.31-4.246a1 1 0 0 1-.124-1.023l1.592-3.56Zm3.547 11.085c4.576-.497 8.49-3.2 10.657-7.022l-7.9-4.555-3.725-.373-2.1 4.692 3.201 4.105a1 1 0 0 1 .202.753l-.335 2.4ZM16.5.001C7.664 0 .5 7.164.5 16s7.164 16 16 16 15.999-7.164 15.999-16-7.163-16-16-16Z" clip-rule="evenodd"/></svg>