<svg xmlns="http://www.w3.org/2000/svg" width="33" height="32" fill="none"><path stroke="#111827" stroke-linecap="round" stroke-linejoin="round" stroke-width="2" d="M28 13.686v6.474c0 .205-.07.405-.2.569-.841 1.064-4.394 4.958-11.3 4.958-6.906 0-10.459-3.894-11.3-4.958a.914.914 0 0 1-.2-.569v-6.474"/><path fill="#111827" fill-rule="evenodd" d="M16.988 1.996a1 1 0 0 0-.976 0l-15 8.393a1 1 0 0 0-.023 1.732l15 8.926a1 1 0 0 0 1.022 0l5.934-3.531v11.615a1 1 0 0 0 2 0V16.326l7.065-4.205a1 1 0 0 0-.023-1.732L16.988 1.996Zm7.497 12.276L29.5 11.29l-13-7.274-12.998 7.274L16.5 19.024l5.974-3.555-6.46-3.403a1 1 0 1 1 .933-1.77l7.464 3.933.074.043Z" clip-rule="evenodd"/></svg>