<svg xmlns="http://www.w3.org/2000/svg" width="32" height="33" fill="none"><path stroke="#1C1B1F" stroke-linecap="round" stroke-linejoin="round" stroke-width="2" d="M4 16.962h24"/><path stroke="#1C1B1F" stroke-linecap="round" stroke-width="2" d="m4.418 22.337 4.447-2.017a.1.1 0 0 1 .08 0l4.824 2a.1.1 0 0 0 .08 0l4.459-2a.1.1 0 0 1 .08 0l4.615 2a.1.1 0 0 0 .08 0l4.5-2.018"/><path stroke="#1C1B1F" stroke-linecap="round" stroke-width="2" d="M6.77 21.577v.539a5 5 0 0 0 5 5h8.46a5 5 0 0 0 5-5v-.539M13.288 5.885h5.424a7.348 7.348 0 0 1 7.348 7.348c0 .02-.017.036-.037.036H5.977a.037.037 0 0 1-.037-.037 7.348 7.348 0 0 1 7.348-7.347Z"/></svg>