<svg xmlns="http://www.w3.org/2000/svg" width="33" height="32" fill="none"><path fill="#111827" fill-rule="evenodd" d="M24.303 2.398a8.523 8.523 0 0 0-6.262 2.49l-.002.003-1.49 1.5-1.185-1.196-.005-.004C12.143 1.99 6.81 1.455 3.34 4.577a8.523 8.523 0 0 0-.344 12.374l12.023 12.022.003.004a2.172 2.172 0 0 0 3.057 0l-.704-.71.707.706L29.8 17.255l.002-.002c3.2-3.217 3.735-8.55.614-12.021a8.524 8.524 0 0 0-6.113-2.834ZM16.67 27.556a.172.172 0 0 1-.24 0h-.002L4.41 15.537a6.523 6.523 0 0 1 .263-9.471l.002-.002c2.575-2.316 6.702-2.013 9.272.542l1.222 1.232-1.672 1.829a1 1 0 0 0 .03 1.382l3.923 3.922-1.607 1.608a1 1 0 0 0 1.414 1.414l2.314-2.315a1 1 0 0 0 0-1.414l-3.953-3.953 1.663-1.82 2.174-2.188.002-.001a6.523 6.523 0 0 1 9.47.265v.001c2.318 2.576 2.014 6.704-.543 9.274L16.67 27.556Z" clip-rule="evenodd"/></svg>