<svg xmlns="http://www.w3.org/2000/svg" width="33" height="34" fill="none"><path fill="#111827" fill-rule="evenodd" d="M4.997.998a3 3 0 0 0-3 3v26.004a3 3 0 0 0 3 3h23.006a3 3 0 0 0 3-3V3.998a3 3 0 0 0-3-3H4.997Zm-1 3a1 1 0 0 1 1-1h23.006a1 1 0 0 1 1 1v26.004a1 1 0 0 1-1 1H4.997a1 1 0 0 1-1-1V3.998Zm16.257 1.5h-.823l-.158.808c-.303 1.538-.973 3.025-2.067 4.462l-1.223 1.605h5.47l.3-.338c1.486-1.684 2.265-3.508 2.492-5.418l.133-1.118H20.254Zm-.395 4.875c.526-.929.922-1.887 1.188-2.874h.995c-.27.982-.752 1.941-1.504 2.875h-.678ZM9.75 5.5h-1v24.229l1.664-1.479 3.378-3.002.841-.747-.841-.748-3.378-3-.332-.295.08-.037 2.117-.958.002-.001c.1-.045 3.308-1.46 6.097-1.46.58 0 .74.154.771.187.047.05.099.154.105.364v9.95h4.998v-9.994c.004-.311-.033-2.293-1.593-3.872l-.002-.002c-.772-.776-2.127-1.635-4.28-1.635-1.623 0-3.26.312-4.626.677V5.499H9.749Zm1 12.46V7.499h1.001v8.89l1.308-.424c1.457-.472 3.437-.966 5.319-.966 1.555 0 2.416.598 2.86 1.043.999 1.013 1.016 2.332 1.015 2.441v8.018h-.999V18.517c-.011-.484-.134-1.147-.641-1.69-.522-.562-1.292-.826-2.235-.826-3.266 0-6.834 1.6-6.914 1.635h-.001l-.005.003-.708.32Zm0 7.316v-1.55l.872.775-.872.775Z" clip-rule="evenodd"/></svg>