<svg xmlns="http://www.w3.org/2000/svg" width="33" height="32" fill="none"><path fill="#111827" fill-rule="evenodd" d="M16.5 2c-7.732 0-14 6.268-14 14 0 5.078 2.704 9.524 6.75 11.978V18.5a1 1 0 0 1 1-1h1.5V11a1 1 0 0 1 .553-.894l7.5-3.75a1 1 0 0 1 1.447.894V17.5h1.5a1 1 0 0 1 1 1v9.478c4.046-2.454 6.749-6.9 6.749-11.978 0-7.732-6.268-14-14-14Zm2.75 15.5V8.868l-5.5 2.75V17.5h5.5ZM9.859 30.56a.981.981 0 0 1-.05-.023C4.314 28.004.5 22.447.5 16 .5 7.164 7.664 0 16.5 0s15.999 7.164 15.999 16c0 6.447-3.814 12.004-9.308 14.537a1.284 1.284 0 0 1-.027.013l-.023.01a15.94 15.94 0 0 1-6.641 1.439 15.94 15.94 0 0 1-6.641-1.44Zm6.64-.561a13.96 13.96 0 0 0 5.25-1.017V19.5H11.25v9.481A13.958 13.958 0 0 0 16.5 30Z" clip-rule="evenodd"/></svg>