<svg xmlns="http://www.w3.org/2000/svg" width="33" height="33" fill="none"><path fill="#111827" fill-rule="evenodd" d="M6.187.5a1 1 0 0 0-1 1V6a11 11 0 0 0 4.811 9.094l2.068 1.407-2.068 1.407a11 11 0 0 0-4.81 9.094v4.498a1 1 0 0 0 1 1h20.625a1 1 0 0 0 1-1v-4.498a11 11 0 0 0-4.811-9.094L20.934 16.5l2.068-1.407a11 11 0 0 0 4.81-9.094V1.5a1 1 0 0 0-1-1H6.188Zm12.23 16.674c.06.066.127.122.2.168l3.26 2.219A9 9 0 0 1 25.812 27v3.498H7.186v-3.498a9 9 0 0 1 3.937-7.44l3.26-2.219a.992.992 0 0 0 .353-.392.995.995 0 0 0-.155-1.125.994.994 0 0 0-.199-.167l-3.26-2.219A9 9 0 0 1 7.188 6V2.5h18.626v3.498a9 9 0 0 1-3.937 7.44l-3.26 2.219a1.001 1.001 0 0 0-.199 1.516Z" clip-rule="evenodd"/></svg>