<svg xmlns="http://www.w3.org/2000/svg" width="33" height="33" fill="none"><path fill="#111827" fill-rule="evenodd" d="M5.187 1.5a1 1 0 0 1 1-1h20.626a1 1 0 0 1 1 1V6a11 11 0 0 1-4.811 9.094L20.934 16.5l2.068 1.407a11 11 0 0 1 4.81 9.094v4.498a1 1 0 0 1-1 1H6.188a1 1 0 0 1-1-1v-4.498a11 11 0 0 1 4.811-9.094l2.068-1.407-2.068-1.407a11 11 0 0 1-4.81-9.094V1.5Zm9.395 14.325a.994.994 0 0 0-.199-.167l-3.26-2.219a8.994 8.994 0 0 1-2.245-2.189h15.244a8.992 8.992 0 0 1-2.246 2.19l-3.26 2.218a1 1 0 0 0 0 1.684l3.26 2.219A9 9 0 0 1 25.812 27v3.498H7.188v-3.498a9 9 0 0 1 3.937-7.44l3.26-2.219a.992.992 0 0 0 .352-.392.994.994 0 0 0 0-.9.995.995 0 0 0-.154-.225ZM25.812 6a8.994 8.994 0 0 1-.684 3.442.995.995 0 0 0-.587-.19H8.459c-.22 0-.422.07-.587.19a8.994 8.994 0 0 1-.685-3.442V2.5h18.626v3.498Z" clip-rule="evenodd"/></svg>