<svg xmlns="http://www.w3.org/2000/svg" width="33" height="32" fill="none"><path fill="#111827" fill-rule="evenodd" d="M10.532.136a1 1 0 0 1 1.366.366l1.561 2.703a13.1 13.1 0 0 1 5.073 0L20.093.502A1 1 0 0 1 21.46.136l5.544 3.2a1 1 0 0 1 .366 1.366l-1.562 2.706a13.028 13.028 0 0 1 2.539 4.391h3.12a1 1 0 0 1 1 1v6.402a1 1 0 0 1-1 1h-3.12a13.03 13.03 0 0 1-2.539 4.391l1.562 2.706a1 1 0 0 1-.366 1.366l-5.544 3.2a1 1 0 0 1-1.366-.365l-1.56-2.704a13.103 13.103 0 0 1-5.074 0l-1.56 2.704a1 1 0 0 1-1.367.366l-5.544-3.201a1 1 0 0 1-.366-1.366l1.562-2.706a13.036 13.036 0 0 1-2.387-3.971h2.167a11.066 11.066 0 0 0 2.168 3.13 1 1 0 0 1 .154 1.202l-1.432 2.479 3.812 2.2 1.43-2.476a1 1 0 0 1 1.117-.468c.888.23 1.82.354 2.783.354.962 0 1.894-.123 2.782-.354a1 1 0 0 1 1.117.468l1.43 2.477 3.812-2.201-1.431-2.48a1 1 0 0 1 .154-1.201 11.03 11.03 0 0 0 2.783-4.815 1 1 0 0 1 .964-.735h2.86v-4.402h-2.86a1 1 0 0 1-.964-.734 11.03 11.03 0 0 0-2.783-4.816 1 1 0 0 1-.154-1.202l1.431-2.479-3.812-2.2-1.43 2.476a1 1 0 0 1-1.117.467c-.887-.23-1.82-.353-2.782-.353-.963 0-1.895.123-2.783.353a1 1 0 0 1-1.117-.467l-1.43-2.476-3.812 2.2 1.431 2.479a1 1 0 0 1-.153 1.202 11.068 11.068 0 0 0-2.133 3.055H3.825a13.039 13.039 0 0 1 2.36-3.896L4.621 4.702a1 1 0 0 1 .366-1.366l5.544-3.2Zm5.464 7.13a1 1 0 1 0 0 2 6.735 6.735 0 1 1 0 13.47 1 1 0 1 0 0 2 8.735 8.735 0 0 0 0-17.47Zm-4.342 3.207a1 1 0 0 1 1.414 0l4.82 4.82a.996.996 0 0 1 .294.708c0 .283-.118.54-.308.722l-4.806 4.805a1 1 0 0 1-1.414-1.414L14.767 17H1.534a1 1 0 1 1 0-2h13.234l-3.114-3.114a1 1 0 0 1 0-1.414Z" clip-rule="evenodd"/></svg>