<svg xmlns="http://www.w3.org/2000/svg" width="32" height="32" fill="none"><path stroke="#1C1B1F" stroke-linecap="round" stroke-linejoin="round" stroke-width="2" d="M4 12.571h24M17.714 16v5.143M14.286 16v5.143"/><path fill="#1C1B1F" d="M10 17.714a1.286 1.286 0 1 0 0-2.571 1.286 1.286 0 0 0 0 2.571ZM22 17.714a1.286 1.286 0 1 0 0-2.571 1.286 1.286 0 0 0 0 2.571Z"/><path stroke="#1C1B1F" stroke-linejoin="round" stroke-width="2" d="M5.714 12.571h20.572v8.572H5.714V12.57Z"/><path stroke="#1C1B1F" stroke-linejoin="round" stroke-width="2" d="M6.958 6.571h18.084l1.458 6h-21l1.458-6Z"/><path stroke="#1C1B1F" stroke-linecap="round" stroke-linejoin="round" stroke-width="2" d="M5.714 21.143v4.285h4.714v-4.285M21.571 21.143v4.285h4.715v-4.285"/></svg>