<svg xmlns="http://www.w3.org/2000/svg" width="33" height="32" fill="none"><path fill="#111827" fill-rule="evenodd" d="M11.58 11.568a9.46 9.46 0 1 1 9.46 9.46 9.437 9.437 0 0 1-3.343-.608 1 1 0 0 0-1.09.258l-1.14 1.241h-3.215c-.88 0-1.593.713-1.593 1.593v2.257H8.566c-.88 0-1.593.713-1.593 1.593v2.53H2.5v-5.277l9.265-9.197a1 1 0 0 0 .25-1.01 9.457 9.457 0 0 1-.434-2.84ZM21.04.108c-6.329 0-11.46 5.13-11.46 11.46 0 .981.124 1.935.357 2.846L.97 23.317l-.003.002A1.593 1.593 0 0 0 .5 24.446v5.853c0 .88.713 1.593 1.592 1.593H7.38c.88 0 1.593-.713 1.593-1.593v-2.53h2.093c.88 0 1.593-.713 1.593-1.593V23.92h2.987c.422 0 .827-.168 1.126-.466l.012-.012.012-.013a.307.307 0 0 0 .005-.006l.836-.909c1.076.335 2.22.514 3.404.514 6.329 0 11.46-5.13 11.46-11.46C32.5 5.24 27.37.108 21.04.108Zm4.55 8.69a1.779 1.779 0 1 1-3.558 0 1.779 1.779 0 0 1 3.558 0Z" clip-rule="evenodd"/></svg>