<svg xmlns="http://www.w3.org/2000/svg" width="33" height="33" fill="none"><path fill="#111827" fill-rule="evenodd" d="M26.726.501H10.364a1 1 0 1 0 0 2h1.3L9.216 9.228a.994.994 0 0 0-.084.23l-5.87 16.145a.992.992 0 0 0-.075.205l-1.945 5.35a1 1 0 0 0 1.88.683l1.744-4.796h8.78l-1.496 4.112a1 1 0 1 0 1.88.684l3.231-8.887h9.384l3.231 8.887a1 1 0 1 0 1.88-.684L23.018 7.126 24.7 2.5h2.026a1 1 0 1 0 0-2Zm-.808 20.453-3.964-10.902-2.945 8.1a.996.996 0 0 1-.039.106l-.98 2.696h7.928ZM21.008 6.8a.949.949 0 0 1 .011-.029l1.553-4.269h-8.78l-2.248 6.181h8.78l.685-1.883Zm-6.634 18.246 2.248-6.181h-8.78l-2.248 6.18h8.78Zm-5.805-8.181 2.248-6.182h8.78l-2.248 6.182h-8.78Z" clip-rule="evenodd"/></svg>