<svg xmlns="http://www.w3.org/2000/svg" width="33" height="32" fill="none"><path fill="#111827" fill-rule="evenodd" d="M2.5 16c0-3.506 1.29-6.71 3.42-9.167l4.795 4.796A7.217 7.217 0 0 0 9.25 16c0 1.641.546 3.155 1.465 4.37L5.92 25.168A13.945 13.945 0 0 1 2.501 16Zm4.833 10.58A13.945 13.945 0 0 0 16.5 30c3.506 0 6.71-1.29 9.166-3.42l-4.796-4.795a7.218 7.218 0 0 1-4.37 1.465 7.217 7.217 0 0 1-4.37-1.465L7.333 26.58Zm5.466-6.857a5.233 5.233 0 0 0 3.7 1.527 5.233 5.233 0 0 0 3.706-1.53l.007-.008.007-.007A5.233 5.233 0 0 0 21.75 16a5.233 5.233 0 0 0-1.53-3.706l-.007-.006-.006-.007a5.233 5.233 0 0 0-3.706-1.53 5.233 5.233 0 0 0-3.702 1.527l-.01.01-.01.01A5.233 5.233 0 0 0 11.25 16c0 1.444.584 2.752 1.527 3.701l.011.011.01.01Zm14.282 5.444-4.796-4.797A7.218 7.218 0 0 0 23.75 16a7.217 7.217 0 0 0-1.465-4.37l4.796-4.797A13.945 13.945 0 0 1 30.499 16c0 3.506-1.289 6.71-3.418 9.167ZM25.666 5.419A13.945 13.945 0 0 0 16.5 2.001C12.994 2 9.79 3.29 7.333 5.419l4.797 4.796A7.217 7.217 0 0 1 16.5 8.75c1.641 0 3.155.546 4.37 1.465l4.796-4.796ZM16.5.001C7.664 0 .5 7.164.5 16s7.164 16 16 16 15.999-7.164 15.999-16-7.163-16-16-16Z" clip-rule="evenodd"/></svg>