<svg xmlns="http://www.w3.org/2000/svg" width="33" height="32" fill="none"><path fill="#111827" fill-rule="evenodd" d="M20.871 1.19a1 1 0 0 0-1.705-.88l-5.848 6.131a1 1 0 0 0 1.448 1.38l3.496-3.665-1.385 7.178a1 1 0 0 0 .619 1.121l7.377 2.873-1.64 1.72a1 1 0 0 0 1.447 1.38l2.67-2.8a1 1 0 0 0-.36-1.621l-7.992-3.113 1.873-9.704Zm-9.718 10.42L6.43 16.56l7.53 2.795a1 1 0 0 1 .63 1.148l-1.561 7.24 6.96-7.296-8.837-8.837Zm10.251 10.252-9.375 9.827a1 1 0 0 1-1.701-.9l2.125-9.86-8.142-3.022a1 1 0 0 1-.375-1.628l5.802-6.084-6.444-6.444a1 1 0 1 1 1.414-1.414l24.998 24.998a1 1 0 0 1-1.414 1.414l-6.888-6.887Z" clip-rule="evenodd"/></svg>