<svg xmlns="http://www.w3.org/2000/svg" width="33" height="32" fill="none"><path fill="#111827" fill-rule="evenodd" d="M1.501 0a1 1 0 0 0-1 1V31a1 1 0 0 0 1 1h29.998a1 1 0 0 0 1-1V1.001a1 1 0 0 0-1-1H1.501Zm1 29.999V2.001h27.998v27.998H2.501Zm7.478-19.868a1.956 1.956 0 1 0 0-3.913 1.956 1.956 0 0 0 0 3.913Zm5.217 2.26a1 1 0 0 1 1 1v.292a5.565 5.565 0 0 1 9.13 4.274v5.869a1 1 0 1 1-2 0v-5.87a3.565 3.565 0 0 0-7.13-.046v5.916a1 1 0 1 1-2 0V13.392a1 1 0 0 1 1-1Zm-5.218 0a1 1 0 0 1 1 1v10.435a1 1 0 1 1-2 0V13.392a1 1 0 0 1 1-1Z" clip-rule="evenodd"/></svg>