<svg xmlns="http://www.w3.org/2000/svg" width="33" height="32" fill="none"><path fill="#111827" fill-rule="evenodd" d="M4.725 2.518a1 1 0 0 1 .519.876v9.54a1 1 0 0 1-2 0V5.217l-.902.575a1 1 0 0 1-1.075-1.687l2.44-1.554a1 1 0 0 1 1.018-.033Zm6.695 2.92a1 1 0 0 1 1-1H31.5a1 1 0 1 1 0 2H12.42a1 1 0 0 1-1-1Zm0 10.903a1 1 0 0 1 1-1H31.5a1 1 0 0 1 0 2H12.42a1 1 0 0 1-1-1Zm1 9.902a1 1 0 0 0 0 2H31.5a1 1 0 1 0 0-2H12.42Zm-10.072-5.43a1.591 1.591 0 0 1 2.94.844c0 .178-.014.27-.149.498l-.01.016c-.023.032-.081.114-.19.262-.135.184-.317.429-.533.715-.43.572-.984 1.301-1.532 2.02a1001.68 1001.68 0 0 1-1.982 2.589l-.136.177-.036.046-.009.012-.002.003v.001l.792.61-.793-.61a1 1 0 0 0 .793 1.61h4.787a1 1 0 1 0 0-2h-2.76l.936-1.225c.549-.72 1.106-1.453 1.54-2.031.218-.289.406-.54.548-.734.122-.167.253-.347.313-.45.308-.526.423-.964.423-1.509A3.591 3.591 0 0 0 .654 19.75a1 1 0 0 0 1.694 1.064Z" clip-rule="evenodd"/></svg>