<svg xmlns="http://www.w3.org/2000/svg" width="33" height="32" fill="none"><path fill="#111827" fill-rule="evenodd" d="M12.164 5.147c4.194-4.195 10.995-4.195 15.19 0 4.194 4.194 4.194 10.995 0 15.189l-4.31 4.309-4.427-4.427 3.472-3.472a4.502 4.502 0 1 0-6.367-6.367L12.25 13.85 7.855 9.456l4.309-4.31ZM5.741 8.74a1.205 1.205 0 0 0-.014.015L.794 13.688a1 1 0 0 0 0 1.415l5.81 5.809a1 1 0 0 0 1.413 0l4.87-4.87a1.019 1.019 0 0 0 .14-.14l4.11-4.109a2.502 2.502 0 1 1 3.538 3.539l-9.12 9.118a1 1 0 0 0 0 1.415l5.842 5.841a1 1 0 0 0 1.415 0l4.927-4.927a.79.79 0 0 0 .013-.013l.013-.013 5.002-5.003c4.976-4.975 4.976-13.042 0-18.018-4.975-4.975-13.042-4.975-18.017 0l-5.01 5.01ZM21.63 26.06l-4.428-4.427-3.526 3.525 4.428 4.428 3.525-3.526ZM10.835 15.265 7.31 18.79l-4.395-4.394 3.526-3.526 4.395 4.395Z" clip-rule="evenodd"/></svg>