<svg xmlns="http://www.w3.org/2000/svg" width="33" height="32" fill="none"><path fill="#111827" fill-rule="evenodd" d="M30.845.973a1 1 0 0 1 0 1.414l-3.384 3.385 3.384 3.384a1 1 0 0 1-1.414 1.414l-3.384-3.384-3.385 3.384a1 1 0 0 1-1.414-1.414l3.384-3.384-3.384-3.385A1 1 0 0 1 22.662.973l3.385 3.384L29.43.973a1 1 0 0 1 1.414 0ZM1.498 4.771a1 1 0 1 0 0 2h10.91a1 1 0 1 0 0-2H1.499ZM6.953 18.41a1 1 0 0 1 1 1v4.456h4.456a1 1 0 1 1 0 2H7.953v4.455a1 1 0 1 1-2 0v-4.455H1.498a1 1 0 1 1 0-2h4.455v-4.456a1 1 0 0 1 1-1Zm12.638 3.74a1 1 0 0 1 1-1h10.91a1 1 0 1 1 0 2h-10.91a1 1 0 0 1-1-1Zm1 4.432a1 1 0 0 0 0 2h10.91a1 1 0 1 0 0-2h-10.91Z" clip-rule="evenodd"/></svg>