<svg xmlns="http://www.w3.org/2000/svg" width="33" height="32" fill="none"><path fill="#111827" fill-rule="evenodd" d="M16.478 2.203a3.8 3.8 0 0 1 4.769 2.234.998.998 0 0 0 .06.165 3.804 3.804 0 0 1-.33 3.121 1 1 0 0 0-.877-.52h-5.93a3.799 3.799 0 0 1 2.308-5Zm-2.939 7H19.1V24H3.102V9.202H13.54Zm-1.466-2A5.8 5.8 0 0 1 22.53 2.587a4.899 4.899 0 0 1 6.611 7.014h1.686c.592 0 1.072.48 1.072 1.071v8.928a6.4 6.4 0 0 1-5.972 6.385 8.88 8.88 0 0 1-8.404 6.013h-1.277a7.602 7.602 0 0 1-7.43-6H2.102a1 1 0 0 1-1-1V8.203a1 1 0 0 1 1-1h9.971Zm14.29 16.712a4.4 4.4 0 0 0 3.535-4.314v-8h-3.5v11.522c0 .267-.012.531-.035.792Zm-1.965-12.313H21.1V25a1 1 0 0 1-1 1h-9.222c.688 2.313 2.83 3.999 5.367 3.999h1.277a6.876 6.876 0 0 0 6.876-6.876V11.602Zm-.948-6.559a5.821 5.821 0 0 0-.106-.577 2.899 2.899 0 1 1-.476 3.967l.034-.068a5.8 5.8 0 0 0 .548-3.322ZM7.401 13.001a1 1 0 0 1 1-1h5.4a1 1 0 1 1 0 2h-1.7v6.2a1 1 0 0 1-2 0V14H8.4a1 1 0 0 1-1-1Z" clip-rule="evenodd"/></svg>