<svg xmlns="http://www.w3.org/2000/svg" width="32" height="33" fill="none"><path stroke="#1C1B1F" stroke-width="2" d="M13.762 7.64c1.082-1.202 1.999-2.403 2.2-2.66.019-.017.056-.017.074 0 .183.257 1.119 1.458 2.2 2.66 9.243 11.032-1.448 18.479-1.448 18.479l-.092.051c-.073 1.15-.275 2.797-.275 2.797h-.807s-.202-1.647-.275-2.797l-.092-.068c-.036.017-10.728-7.43-1.485-18.463Zm2.237 18.307s.477-.377.605-.583v-.017l-.586-12.011c0-.034-.055-.034-.055 0l-.587 12.01v.018c.128.206.623.583.623.583Z"/></svg>