<svg xmlns="http://www.w3.org/2000/svg" width="33" height="32" fill="none"><path fill="#111827" fill-rule="evenodd" d="M2.5 2h14.782a1 1 0 1 0 0-2H2.001A1.5 1.5 0 0 0 .5 1.5v29A1.5 1.5 0 0 0 2 32h28.998a1.5 1.5 0 0 0 1.5-1.5V13.51a1 1 0 1 0-2 0V30H2.501V2ZM24.71.294a1 1 0 0 1 1.414 0l6.082 6.083a1 1 0 0 1 .003 1.411L19.183 20.935a1 1 0 0 1-.71.297h-6.734a1 1 0 0 1-.995-1.097l.603-6.202a1 1 0 0 1 .29-.612L24.71.293Zm-2.44 5.256-8.967 8.935-.462 4.748h5.215l8.906-8.99-4.692-4.693Zm1.416-1.412L28.37 8.82l1.718-1.734-4.673-4.673-1.729 1.723Z" clip-rule="evenodd"/></svg>