<svg xmlns="http://www.w3.org/2000/svg" width="33" height="32" fill="none"><path fill="#111827" fill-rule="evenodd" d="M16.5 2c-7.732 0-14 6.268-14 14 0 7.731 6.268 13.999 14 13.999 7.731 0 13.999-6.268 13.999-14 0-7.73-6.268-13.998-14-13.998ZM.5 16c0-8.836 7.164-16 16-16s15.999 7.164 15.999 16-7.163 15.999-16 15.999c-8.835 0-15.998-7.163-15.998-16Zm17.762-8.983a1 1 0 0 1 .346 1.371l-2.86 4.79a5.375 5.375 0 1 1-3.83 2.512l4.973-8.327a1 1 0 0 1 1.372-.346Zm-4.676 9.78a3.375 3.375 0 1 0 .03-.05l-.03.05Z" clip-rule="evenodd"/></svg>