<svg xmlns="http://www.w3.org/2000/svg" width="33" height="32" fill="none"><path fill="#111827" fill-rule="evenodd" d="M22.963.569a1 1 0 0 0-1.414 0L1.374 20.743a.999.999 0 0 0-.28.86l-.59 8.814a1 1 0 0 0 .973 1.066l9.754.241a1.02 1.02 0 0 0 .153-.008H30.68a1 1 0 1 0 0-2H13.715l18.49-18.49a1 1 0 0 0 0-1.415L22.964.57ZM2.57 29.509l.386-5.771 5.927 5.927-6.313-.155ZM18.9 6.047l3.357-3.357 7.828 7.828-3.357 3.358-7.828-7.829Zm-1.415 1.415L3.497 21.45l7.828 7.829 13.989-13.99-7.828-7.827Z" clip-rule="evenodd"/></svg>