<svg xmlns="http://www.w3.org/2000/svg" width="33" height="33" fill="none"><path fill="#111827" fill-rule="evenodd" d="M13.878 5.104a2.605 2.605 0 1 1 5.21 0 2.605 2.605 0 0 1-5.21 0ZM16.483.498a4.605 4.605 0 1 0 0 9.211 4.605 4.605 0 0 0 0-9.21Zm10.05 15.764a30.546 30.546 0 0 0-9.033-1.728v5.84c.044.04.086.082.126.128l8.97 10.345a1 1 0 1 1-1.512 1.31l-8.596-9.914-8.832 9.924a1 1 0 1 1-1.494-1.33l9.21-10.35a1.52 1.52 0 0 1 .128-.127v-5.826a30.546 30.546 0 0 0-9.033 1.728 27.75 27.75 0 0 0-2.881 1.196 18.434 18.434 0 0 0-.984.516l-.01.005a1 1 0 0 1-1.028-1.714l.514.857-.514-.858.003-.001.005-.004.017-.01a6.856 6.856 0 0 1 .285-.16c.193-.105.475-.253.837-.43a29.742 29.742 0 0 1 3.09-1.283c2.632-.928 6.352-1.86 10.699-1.86 4.347 0 8.067.931 10.699 1.86a29.74 29.74 0 0 1 3.09 1.283 20.486 20.486 0 0 1 1.122.59l.017.01.005.004h.002l.001.001-.514.858.514-.857a1 1 0 0 1-1.028 1.715l-.01-.006-.017-.01-.026-.015-.186-.104a18.421 18.421 0 0 0-.755-.387 27.75 27.75 0 0 0-2.881-1.196Z" clip-rule="evenodd"/></svg>