<svg xmlns="http://www.w3.org/2000/svg" width="33" height="33" fill="none"><path fill="#111827" fill-rule="evenodd" d="M13.799 5.188a2.687 2.687 0 1 1 5.373 0 2.687 2.687 0 0 1-5.373 0ZM16.485.5a4.687 4.687 0 1 0 0 9.373 4.687 4.687 0 0 0 0-9.373Zm-4.067 9.64a1 1 0 0 0-.753.341l-6.993 7.982a1 1 0 0 0 .045 1.367l2.16 2.16a1 1 0 0 0 1.306.094l3.24-2.42-2.821 9.65a1 1 0 0 0 .252.987l1.904 1.904a1 1 0 0 0 1.545-.16l4.49-6.89 4.296 6.873a1 1 0 0 0 1.555.177l2.197-2.197a1 1 0 0 0 .248-1.004l-2.808-9.017 2.497 2.066a1 1 0 0 0 1.345-.063l2.16-2.16a1 1 0 0 0 .067-1.34l-6.517-7.982a1 1 0 0 0-.774-.367h-8.642Zm-5.625 8.937 6.078-6.936h7.713l5.645 6.914-.877.877-4.388-3.63a1 1 0 0 0-1.593 1.067L23 29.022l-.881.881-4.46-7.136a1 1 0 0 0-1.685-.016l-4.673 7.17-.613-.614 3.495-11.953a1 1 0 0 0-1.558-1.082L7.68 19.965l-.887-.887Z" clip-rule="evenodd"/></svg>