<svg xmlns="http://www.w3.org/2000/svg" width="33" height="32" fill="none"><path fill="#111827" fill-rule="evenodd" d="M6.353 3.352a1 1 0 1 0-1.48 1.345l3.89 4.278a19.434 19.434 0 0 0-6.057 4.118 7.533 7.533 0 0 0-.632 9.935l.004.005a2.085 2.085 0 0 0 2.42.648H4.5l6.435-2.575a2.09 2.09 0 0 0 1.273-1.53l.803-4.015v-.006a.08.08 0 0 1 .05-.058 10.43 10.43 0 0 1 1.302-.361l12.284 13.512a1 1 0 1 0 1.48-1.345l-12.644-13.91a1.368 1.368 0 0 0-.023-.025l-4.221-4.642a1.006 1.006 0 0 0-.032-.035L6.353 3.35Zm6.708 12.145.001-.001-.336-.942.33.944a.116.116 0 0 1 .005-.001Zm-8.94-.991a17.433 17.433 0 0 1 6.073-3.956l2.65 2.914c-.15.046-.3.094-.447.146l-.007.002a2.08 2.08 0 0 0-1.341 1.559v.003l-.802 4.01a.09.09 0 0 1-.054.065l-6.44 2.576h-.002a.086.086 0 0 1-.098-.024 5.533 5.533 0 0 1 .467-7.294l.001-.001Zm-.468 7.295v-.002l-.788.617.791-.611c0-.002-.002-.003-.003-.004ZM15.54 9.405a17.461 17.461 0 0 1 13.34 5.101 5.533 5.533 0 0 1 .468 7.294.085.085 0 0 1-.098.026l-.003-.002-.55-.22a1 1 0 1 0-.744 1.857l.548.219h.002a2.086 2.086 0 0 0 2.42-.647l.004-.005a7.533 7.533 0 0 0-.631-9.935 19.462 19.462 0 0 0-14.868-5.685 1 1 0 1 0 .112 1.997Z" clip-rule="evenodd"/></svg>