<svg xmlns="http://www.w3.org/2000/svg" width="33" height="32" fill="none"><path stroke="#111827" d="M8.114 10.703H3.759a.196.196 0 0 0-.189.107.194.194 0 0 0-.02.074l-2.03 10.17a.222.222 0 0 0 0 .18.195.195 0 0 0 .152.07H3.94a.195.195 0 0 0 .209-.167l.514-2.532H6.43a7.343 7.343 0 0 0 2.17-.278 4.174 4.174 0 0 0 1.642-.89c.389-.338.718-.737.974-1.183.243-.434.417-.904.515-1.391a3.311 3.311 0 0 0-.584-3.005 3.909 3.909 0 0 0-3.033-1.155Zm.862 3.854a2.546 2.546 0 0 1-.834 1.558c-.571.35-1.239.511-1.906.459H5.123l.75-3.84h1.392a2.226 2.226 0 0 1 1.572.404c.223.25.223.723.14 1.419ZM20.617 14.047a3.757 3.757 0 0 0-2.616-.71h-1.655l.459-2.448a.209.209 0 0 0 0-.18.222.222 0 0 0-.153 0h-2.185a.195.195 0 0 0-.194.166l-1.92 10.115a.181.181 0 0 0 0 .167.18.18 0 0 0 .153.083h2.142a.194.194 0 0 0 .195-.18l1.071-5.663h1.545c.626 0 .848.14.918.223a1.128 1.128 0 0 1 0 .862l-.849 4.508a.181.181 0 0 0 0 .167.196.196 0 0 0 .153.083h2.17a.222.222 0 0 0 .21-.18l.89-4.73a2.365 2.365 0 0 0-.334-2.283ZM21.795 21.238h2.184a.194.194 0 0 0 .195-.167l.487-2.532h1.697c.71.018 1.42-.076 2.101-.278a3.882 3.882 0 0 0 1.475-.89c.376-.339.691-.739.932-1.183.238-.435.407-.904.5-1.391a3.381 3.381 0 0 0-.57-3.006 3.672 3.672 0 0 0-2.907-1.085h-4.174a.222.222 0 0 0-.209.181l-1.92 10.1a.264.264 0 0 0 0 .182.236.236 0 0 0 .209.07Zm3.965-8.57h1.391a2.017 2.017 0 0 1 1.503.403c.236.25.278.724.153 1.392a2.519 2.519 0 0 1-.793 1.558c-.551.349-1.2.51-1.85.459H25.05l.71-3.812Z"/></svg>