<svg xmlns="http://www.w3.org/2000/svg" width="33" height="33" fill="none"><path fill="#111827" fill-rule="evenodd" d="M.5 5.1a1 1 0 0 1 1-1H27.9a1 1 0 0 1 0 2H1.501a1 1 0 0 1-1-1Zm0 9.6a1 1 0 0 1 1-1h16.75a1 1 0 1 1 0 2H1.5a1 1 0 0 1-1-1Zm1 8.6a1 1 0 1 0 0 2h9.55a1 1 0 0 0 0-2H1.5Zm18.642-1.94a2.77 2.77 0 1 0 0 5.54 2.77 2.77 0 0 0 0-5.54Zm-4.77 2.77a4.77 4.77 0 0 1 7.54-3.884V10.53a1 1 0 0 1 1.297-.955l7.587 2.358a1 1 0 0 1-.594 1.91l-6.29-1.955v12.387c0 .042-.002.083-.008.124a4.77 4.77 0 0 1-9.532-.27Z" clip-rule="evenodd"/></svg>