<svg xmlns="http://www.w3.org/2000/svg" width="33" height="32" fill="none"><path fill="#111827" fill-rule="evenodd" d="m28.235 5.702 3.971-3.971A1 1 0 0 0 30.792.316L26.82 4.288l-1.5-1.5a3 3 0 0 0-4.242 0l-4.515 4.516-.332-.331a1 1 0 1 0-1.414 1.414l.944.944c.027.035.056.068.088.1l7.377 7.377c.032.032.066.062.101.089l.809.809a1 1 0 0 0 1.414-1.415l-.196-.196 4.515-4.515a3 3 0 0 0 0-4.243l-1.634-1.635Zm-4.296 8.979 4.516-4.516a1 1 0 0 0 0-1.414l-4.548-4.548a1 1 0 0 0-1.415 0l-4.515 4.515 5.962 5.963Zm-9.084.362a1 1 0 0 0-1.414-1.414l-2.615 2.615-.917-.917a1.006 1.006 0 0 0-.1-.088l-.945-.945A1 1 0 0 0 7.45 15.71l.331.33-4.515 4.516a3 3 0 0 0 0 4.243l1.5 1.5-3.972 3.971a1 1 0 1 0 1.414 1.415l3.972-3.972 1.634 1.634a3 3 0 0 0 4.243 0l4.515-4.515.197.196a1 1 0 0 0 1.414-1.414l-.81-.81a1.003 1.003 0 0 0-.087-.1l-1.052-1.051 2.615-2.615a1 1 0 0 0-1.415-1.414l-2.615 2.614-2.579-2.58 2.615-2.614ZM4.68 21.97l4.515-4.516.912.912.006.005.005.006 3.988 3.988 1.052 1.052-4.515 4.515a1 1 0 0 1-1.415 0L4.68 23.384a1 1 0 0 1 0-1.414Z" clip-rule="evenodd"/></svg>