<svg xmlns="http://www.w3.org/2000/svg" width="33" height="32" fill="none"><path fill="#111827" fill-rule="evenodd" d="M12.75.715a1 1 0 1 0 0 2h7.5a1 1 0 1 0 0-2h-7.5Zm-4.703 5.5a1 1 0 0 1 .866-.5h15.174a1 1 0 0 1 .866.5l5.486 9.5h1.06a1 1 0 1 1 0 2h-1.143v12.57a1 1 0 0 1-1 1h-5.892a1 1 0 0 1-1-1v-4.357H10.536v4.357a1 1 0 0 1-1 1H3.644a1 1 0 0 1-1-1V17.714H1.5a1 1 0 1 1 0-2h1.06l5.486-9.5Zm16.417 19.713h3.892v3.357h-3.892v-3.357Zm3.892-2H4.644v-6.214h23.712v6.214Zm-23.712 2v3.357h3.892v-3.357H4.644ZM9.49 7.715l-4.582 7.934h23.184L23.51 7.715H9.49ZM7.75 19.788a1 1 0 1 0 0 2h2.5a1 1 0 1 0 0-2h-2.5Zm14 1a1 1 0 0 1 1-1h2.5a1 1 0 1 1 0 2h-2.5a1 1 0 0 1-1-1Z" clip-rule="evenodd"/></svg>