<svg xmlns="http://www.w3.org/2000/svg" width="33" height="32" fill="none"><path fill="#111827" fill-rule="evenodd" d="M16.5 2c-7.732 0-14 6.268-14 14 0 7.731 6.268 13.999 14 13.999 7.731 0 13.999-6.268 13.999-14 0-7.73-6.268-13.998-14-13.998ZM.5 16c0-8.836 7.164-16 16-16s15.999 7.164 15.999 16-7.163 15.999-16 15.999c-8.835 0-15.998-7.163-15.998-16Zm16 7.585a1.724 1.724 0 1 0 0-3.447 1.724 1.724 0 0 0 0 3.447Zm-2.853-11.317A2.853 2.853 0 1 1 16.5 15.12a1 1 0 0 0-1 1v1.8a1 1 0 1 0 2 0v-.903a4.855 4.855 0 0 0-1-9.603 4.853 4.853 0 0 0-4.853 4.853 1 1 0 1 0 2 0Z" clip-rule="evenodd"/></svg>