<svg xmlns="http://www.w3.org/2000/svg" width="33" height="32" fill="none"><path fill="#111827" fill-rule="evenodd" d="M2.5 16c0-7.732 6.269-14 14-14 7.732 0 14 6.268 14 14 0 7.731-6.268 13.999-14 13.999-7.731 0-14-6.268-14-14Zm14-16C7.664 0 .5 7.165.5 16s7.164 15.999 16 15.999 16-7.163 16-16c0-8.835-7.164-15.998-16-15.998ZM8.75 16a7.75 7.75 0 1 1 15.5 0 7.75 7.75 0 0 1-15.5 0Zm7.75-9.75c-5.384 0-9.75 4.366-9.75 9.75s4.366 9.75 9.75 9.75 9.75-4.366 9.75-9.75-4.366-9.75-9.75-9.75Z" clip-rule="evenodd"/></svg>