<svg xmlns="http://www.w3.org/2000/svg" width="33" height="32" fill="none"><g clip-path="url(#a)"><path fill="#111827" fill-rule="evenodd" d="M9.5 28.124c-.286-.165-.584-.551-.732-1.374-.146-.817-.115-1.927.132-3.279.101-.554.237-1.14.406-1.75a35.94 35.94 0 0 0 3.61.486 35.97 35.97 0 0 0 2.227 2.883c-.444.453-.884.863-1.313 1.227-1.048.89-1.993 1.473-2.773 1.754-.787.284-1.27.219-1.557.053Zm7-4.525a32.33 32.33 0 0 1-1.007-1.254 43.065 43.065 0 0 0 2.015 0c-.335.439-.672.857-1.008 1.254Zm-1.375 4.243c.454-.386.913-.813 1.375-1.279.462.466.922.893 1.375 1.279 1.15.976 2.302 1.719 3.39 2.11 1.083.391 2.24.478 3.235-.096.994-.574 1.497-1.62 1.7-2.752.205-1.14.139-2.509-.132-3.992a22.018 22.018 0 0 0-.42-1.83 22.058 22.058 0 0 0 1.795-.552c1.42-.507 2.64-1.134 3.523-1.88.88-.743 1.534-1.702 1.534-2.85 0-1.148-.654-2.107-1.534-2.85-.884-.746-2.103-1.373-3.523-1.88-.56-.2-1.16-.384-1.795-.551.173-.634.313-1.245.42-1.831.27-1.483.337-2.853.133-3.992-.203-1.132-.706-2.178-1.7-2.752-.995-.574-2.152-.487-3.235-.097-1.088.392-2.241 1.135-3.39 2.111a22.01 22.01 0 0 0-1.376 1.28 22.039 22.039 0 0 0-1.375-1.28c-1.15-.976-2.302-1.718-3.39-2.11-1.083-.39-2.24-.478-3.235.096-.994.574-1.497 1.62-1.7 2.753-.205 1.138-.138 2.508.133 3.991.107.586.247 1.197.42 1.83-.635.168-1.235.352-1.796.552-1.42.507-2.64 1.134-3.523 1.88C1.154 13.894.5 14.853.5 16c0 1.148.655 2.107 1.534 2.85.884.745 2.104 1.373 3.523 1.88.56.2 1.161.384 1.796.551a22.035 22.035 0 0 0-.42 1.83c-.27 1.484-.338 2.854-.133 3.992.203 1.133.706 2.18 1.7 2.753.995.574 2.152.487 3.235.097 1.088-.393 2.241-1.135 3.39-2.111Zm8.975-4.37a20.217 20.217 0 0 0-.406-1.752 35.941 35.941 0 0 1-3.61.487 35.947 35.947 0 0 1-2.227 2.883c.445.453.884.863 1.313 1.227 1.048.89 1.993 1.473 2.774 1.754.787.284 1.27.219 1.556.053.287-.165.585-.55.732-1.374.147-.817.115-1.926-.132-3.279Zm2.67-4.626c-.53.19-1.105.365-1.719.524A35.956 35.956 0 0 0 23.667 16a35.938 35.938 0 0 0 1.384-3.37c.614.159 1.189.334 1.72.524 1.294.462 2.27.99 2.905 1.525.639.54.824.99.824 1.32 0 .332-.185.783-.824 1.322-.634.535-1.611 1.063-2.906 1.525Zm-3.689.953c-.176-.489-.37-.99-.582-1.499a43.998 43.998 0 0 1-1.007 1.745c.547-.07 1.077-.153 1.59-.246Zm-2.807-1.62c.422-.732.813-1.46 1.172-2.179a40.844 40.844 0 0 0-2.473-4.283 40.837 40.837 0 0 0-4.945 0A40.8 40.8 0 0 0 11.555 16a40.803 40.803 0 0 0 2.472 4.283 40.836 40.836 0 0 0 4.946 0c.443-.67.878-1.373 1.3-2.105ZM23.08 12.2c-.175.49-.37.99-.582 1.5a43.739 43.739 0 0 0-1.007-1.745c.547.07 1.078.153 1.59.245Zm.614-1.92a35.962 35.962 0 0 0-3.611-.487 35.937 35.937 0 0 0-2.227-2.883c.445-.453.884-.863 1.314-1.227 1.047-.89 1.992-1.473 2.773-1.754.787-.284 1.27-.219 1.556-.053.287.165.585.55.733 1.374.146.817.114 1.926-.133 3.279a20.2 20.2 0 0 1-.405 1.75ZM13.83 5.683c.43.364.869.775 1.313 1.227-.751.873-1.5 1.84-2.226 2.883a35.956 35.956 0 0 0-3.611.487A20.193 20.193 0 0 1 8.9 8.529c-.247-1.352-.279-2.462-.132-3.279.148-.823.446-1.209.732-1.374.287-.166.77-.23 1.556.053.781.281 1.726.864 2.774 1.754Zm-7.6 7.47c.53-.189 1.105-.364 1.72-.523.38 1.088.843 2.219 1.383 3.37a35.962 35.962 0 0 0-1.384 3.37 20.168 20.168 0 0 1-1.72-.524c-1.294-.462-2.27-.99-2.905-1.525-.639-.54-.824-.99-.824-1.321 0-.331.185-.782.824-1.321.634-.536 1.611-1.063 2.906-1.525Zm3.689-.953c.176.49.37.99.582 1.5a43.264 43.264 0 0 1 1.008-1.745 32.42 32.42 0 0 0-1.59.245Zm0 7.6c.176-.49.37-.99.582-1.5a43.726 43.726 0 0 0 1.008 1.745 32.42 32.42 0 0 1-1.59-.245Zm7.588-10.146A32.435 32.435 0 0 0 16.5 8.401a32.34 32.34 0 0 0-1.007 1.253 43.54 43.54 0 0 1 2.014 0ZM17.715 16a1.214 1.214 0 1 1-2.428 0 1.214 1.214 0 0 1 2.428 0Zm2 0a3.214 3.214 0 1 1-6.428 0 3.214 3.214 0 0 1 6.428 0Z" clip-rule="evenodd"/></g><defs><clipPath id="a"><path fill="#fff" d="M.5 0h32v32H.5z"/></clipPath></defs></svg>