<svg xmlns="http://www.w3.org/2000/svg" width="33" height="33" fill="none"><path fill="#111827" fill-rule="evenodd" d="M2.574 5.074A.25.25 0 0 1 2.75 5h27.498a.25.25 0 0 1 .25.25v22.13l-3.553-1.776a1 1 0 0 0-.894 0L21.5 27.88l-4.553-2.276a1 1 0 0 0-.894 0L11.5 27.88l-4.552-2.276a1 1 0 0 0-.895 0L2.501 27.38V5.251a.25.25 0 0 1 .073-.177ZM2.75 3A2.25 2.25 0 0 0 .5 5.25v23.748a1 1 0 0 0 1.447.895L6.5 27.617l4.553 2.277a1 1 0 0 0 .894 0l4.553-2.277 4.552 2.277a1 1 0 0 0 .895 0l4.552-2.277 4.553 2.277a1 1 0 0 0 1.447-.895V5.251A2.25 2.25 0 0 0 30.249 3H2.751Zm4.624 9.75a1 1 0 0 1 1-1h16.25a1 1 0 1 1 0 2H8.374a1 1 0 0 1-1-1Zm0 5a1 1 0 0 1 1-1h16.25a1 1 0 1 1 0 2H8.374a1 1 0 0 1-1-1Z" clip-rule="evenodd"/></svg>