<svg xmlns="http://www.w3.org/2000/svg" width="33" height="33" fill="none"><path fill="#111827" fill-rule="evenodd" d="M26.903 1.115a1 1 0 1 0-1.414 1.415l3.596 3.595H11.5a11 11 0 0 0-11 11 1 1 0 1 0 2 0 9 9 0 0 1 9-9h17.585l-3.596 3.596a1 1 0 0 0 1.414 1.415l5.295-5.296a.995.995 0 0 0 .301-.715.997.997 0 0 0-.303-.717l-5.293-5.293Zm4.596 13.76a1 1 0 0 1 1 1 11 11 0 0 1-11 11H3.916l3.596 3.595a1 1 0 1 1-1.414 1.414L.8 26.588a1.003 1.003 0 0 1-.3-.714c0-.28.116-.534.302-.716l5.294-5.294A1 1 0 0 1 7.51 21.28l-3.596 3.595H21.5a9 9 0 0 0 8.999-9 1 1 0 0 1 1-1Z" clip-rule="evenodd"/></svg>