<svg xmlns="http://www.w3.org/2000/svg" width="33" height="32" fill="none"><path fill="#111827" fill-rule="evenodd" d="M17.045.118a1 1 0 0 0-.924-.008c-4.886 2.486-5.844 7.555-5.724 9.825v4.097l-7.521 7.52a1 1 0 0 0-.293.708v8.739a1 1 0 0 0 1.554.833l7.646-5.088a.998.998 0 0 0 .248-.234h8.938c.067.089.15.168.248.234l7.646 5.088a1 1 0 0 0 1.554-.833V22.26a1 1 0 0 0-.293-.707l-7.51-7.512V9.907l-.001-.022c-.122-5.484-3.7-8.771-5.568-9.767Zm5.568 16.752v8.4l5.804 3.863v-6.459l-5.804-5.804Zm-18.03 5.804 5.813-5.814v8.404l-5.813 3.869v-6.459ZM12.395 9.85c-.1-1.732.631-5.612 4.156-7.696 1.505 1.016 3.966 3.626 4.062 7.765v14.59h-8.216V9.908l-.002-.057Zm1.4 20.15a1 1 0 1 0 0 2h4.755a1 1 0 1 0 0-2h-4.755Z" clip-rule="evenodd"/></svg>