<svg xmlns="http://www.w3.org/2000/svg" width="32" height="33" fill="none"><path stroke="#1C1B1F" stroke-linecap="round" stroke-linejoin="round" stroke-width="2" d="M7.692 7.27V4.5M13.231 7.27V4.5M24.308 7.27V4.5M7.692 28.5v-2.77M13.231 28.5v-2.77M18.77 7.27V4.5M18.77 28.5v-2.77M24.308 28.5v-2.77"/><rect width="16.615" height="18.462" x="7.692" y="7.269" stroke="#1C1B1F" stroke-width="2" rx=".5"/><path stroke="#1C1B1F" stroke-linecap="round" stroke-linejoin="round" stroke-width="2" d="m13.197 16.15 2.596-4.183a.1.1 0 0 1 .168-.004l2.837 4.183a.1.1 0 0 1 .003.108l-2.837 4.76a.1.1 0 0 1-.174-.004l-2.596-4.76a.1.1 0 0 1 .003-.1Z"/></svg>