<svg xmlns="http://www.w3.org/2000/svg" width="33" height="32" fill="none"><path fill="#111827" fill-rule="evenodd" d="M1.5 0a1 1 0 0 0-1 1v7.5a1 1 0 0 0 2 0V2H9a1 1 0 1 0 0-2H1.5ZM24 0a1 1 0 0 0 0 2h6.5v6.5a1 1 0 1 0 2 0V1a1 1 0 0 0-1-1H24ZM2.5 23.5a1 1 0 1 0-2 0v7.499a1 1 0 0 0 1 1H9a1 1 0 1 0 0-2H2.5v-6.5Zm30 0a1 1 0 1 0-2 0v6.499H24a1 1 0 0 0 0 2h7.5a1 1 0 0 0 1-1v-7.5ZM8.318 6.819a1 1 0 0 0-1 1V24.18a1 1 0 0 0 1 1H24.68a1 1 0 0 0 1-1V7.82a1 1 0 0 0-1-1H8.32Zm1 16.362V8.82H23.68V23.18H9.32Z" clip-rule="evenodd"/></svg>