<svg xmlns="http://www.w3.org/2000/svg" width="33" height="32" fill="none"><path fill="#111827" fill-rule="evenodd" d="M1.5 0a1 1 0 0 0-1 1v2.183a1 1 0 0 0 2 0V2h1.182a1 1 0 1 0 0-2H1.501Zm6.546 0a1 1 0 1 0 0 2h4.363a1 1 0 1 0 0-2H8.046Zm8.727 0a1 1 0 1 0 0 2h4.363a1 1 0 0 0 0-2h-4.363Zm8.726 0a1 1 0 1 0 0 2h1.182v1.183a1 1 0 1 0 2 0V1a1 1 0 0 0-1-1h-2.182ZM2.501 7.547a1 1 0 1 0-2 0v4.363a1 1 0 1 0 2 0V7.546Zm26.18 0a1 1 0 1 0-2 0v4.363a1 1 0 1 0 2 0V7.546Zm-26.18 8.727a1 1 0 1 0-2 0v4.363a1 1 0 1 0 2 0v-4.363Zm26.18 0a1 1 0 1 0-2 0v4.363a1 1 0 1 0 2 0v-4.363ZM2.501 25a1 1 0 1 0-2 0v2.181a1 1 0 0 0 1 1h2.181a1 1 0 1 0 0-2H2.501V25Zm24.18-.02v-1.617a1 1 0 1 1 2 0v2.818H31.5a1 1 0 1 1 0 2H28.68V31a1 1 0 1 1-2 0v-2.818h-2.818a1 1 0 1 1 0-2h2.818V24.98ZM8.046 26.181a1 1 0 0 0 0 2h4.363a1 1 0 1 0 0-2H8.046Zm8.727 0a1 1 0 0 0 0 2h4.363a1 1 0 0 0 0-2h-4.363Z" clip-rule="evenodd"/></svg>