<svg xmlns="http://www.w3.org/2000/svg" width="33" height="33" fill="none"><path fill="#111827" fill-rule="evenodd" d="M27.667 2.639a2.069 2.069 0 0 0-1.463.606L22.468 6.98 5.59 9.793a2.07 2.07 0 0 0-1.123 3.504l13.097 13.097a2.069 2.069 0 0 0 3.504-1.123l2.813-16.876 3.736-3.736a.07.07 0 0 1 .049-.02H31.5a1 1 0 0 0 0-2h-3.833ZM5.92 11.766l15.812-2.635-2.636 15.811a.068.068 0 0 1-.047.055.07.07 0 0 1-.07-.017L5.884 11.883a.069.069 0 0 1 .037-.117Zm-.076 10.579a1.603 1.603 0 1 0 0-3.207 1.603 1.603 0 0 0 0 3.206Zm-2.138 2.138a1.603 1.603 0 1 1-3.206 0 1.603 1.603 0 0 1 3.206 0Zm6.414 2.137a1.603 1.603 0 1 0 0-3.206 1.603 1.603 0 0 0 0 3.206ZM6.38 30.362a1.603 1.603 0 1 0 0-3.206 1.603 1.603 0 0 0 0 3.206Z" clip-rule="evenodd"/></svg>