<svg xmlns="http://www.w3.org/2000/svg" width="32" height="33" fill="none"><path fill="#1C1B1F" d="M8.552 26.845a1.241 1.241 0 1 0 0-2.483 1.241 1.241 0 0 0 0 2.483ZM11.448 23.948a1.241 1.241 0 1 0 0-2.482 1.241 1.241 0 0 0 0 2.482ZM5.241 23.535a1.241 1.241 0 1 0 0-2.483 1.241 1.241 0 0 0 0 2.483ZM8.138 20.638a1.241 1.241 0 1 0 0-2.483 1.241 1.241 0 0 0 0 2.483Z"/><path stroke="#1C1B1F" stroke-linecap="round" stroke-linejoin="round" stroke-width="2" d="M28 6.155h-2.968a.827.827 0 0 0-.585.243L21.38 9.466 8.07 11.684a.827.827 0 0 0-.45 1.402l10.14 10.139a.827.827 0 0 0 1.402-.45l2.218-13.31"/></svg>