<svg xmlns="http://www.w3.org/2000/svg" width="33" height="33" fill="none"><path fill="#111827" fill-rule="evenodd" d="M21.533 12.88a1 1 0 0 1-1.414-1.414l6.983-6.983h-4.094a1 1 0 1 1 0-2h6.49a.997.997 0 0 1 1.019 1v6.509a1 1 0 1 1-2 0V5.897l-6.984 6.983ZM2.776 2.777a1 1 0 0 1 1.414 0l24.327 24.326v-4.094a1 1 0 1 1 2 0v6.509a.999.999 0 0 1-1.021 1h-6.488a1 1 0 1 1 0-2h4.094L2.776 4.19a1 1 0 0 1 0-1.414Zm0 27.448a1 1 0 0 0 1.414 0l8.89-8.89a1 1 0 0 0-1.414-1.414l-8.89 8.89a1 1 0 0 0 0 1.414Z" clip-rule="evenodd"/></svg>