<svg xmlns="http://www.w3.org/2000/svg" width="33" height="33" fill="none"><path fill="#111827" fill-rule="evenodd" d="M1.501 3a1 1 0 0 0-1 1v25a1 1 0 0 0 1 1h29.998a1 1 0 0 0 1-1V4a1 1 0 0 0-1-1H1.501Zm7.75 2H2.5v23h6.75V5Zm2 23V5h19.248v23H11.25Zm2.85-16.526a1.5 1.5 0 0 1 1.5-1.5h7.695a1.5 1.5 0 0 1 1.5 1.5v1.981h1.982a1.5 1.5 0 0 1 1.5 1.5v7.721a1.5 1.5 0 0 1-1.5 1.5h-7.696a1.5 1.5 0 0 1-1.5-1.5v-1.981H15.6a1.5 1.5 0 0 1-1.5-1.5v-7.721Zm3.48 7.221v-3.74a1.5 1.5 0 0 1 1.5-1.5h3.715v-1.481H16.1v6.721h1.482Zm2 3.481v-6.72h6.697v6.72h-6.696Z" clip-rule="evenodd"/></svg>