<svg xmlns="http://www.w3.org/2000/svg" width="33" height="32" fill="none"><path fill="#111827" fill-rule="evenodd" d="M8.79 2.681a1.5 1.5 0 0 0-1.144.531l-6.79 8.02A1.5 1.5 0 0 0 .91 13.23L15.658 28.85a1.5 1.5 0 0 0 2.198-.019l14.251-15.611a1.5 1.5 0 0 0 .034-1.985l-6.85-8.026a1.5 1.5 0 0 0-1.14-.527H8.79Zm-5.318 8.555 5.55-6.555h5.276l-5.003 6.555H3.472Zm.194 2 9.68 10.25-4.173-10.25H3.666Zm15.287 11.426 10.43-11.426h-5.74l-4.69 11.426Zm10.56-13.426L23.92 4.681h-5.444l5.046 6.555h5.992ZM16.386 5.243l-4.574 5.993h9.187l-4.613-5.993Zm0 20.407 5.096-12.414H11.333l5.052 12.414Z" clip-rule="evenodd"/></svg>