<svg xmlns="http://www.w3.org/2000/svg" width="33" height="33" fill="none"><path fill="#111827" fill-rule="evenodd" d="M16.5 2.5c-7.732 0-14 6.268-14 14 0 7.731 6.268 13.999 14 13.999 7.731 0 13.999-6.268 13.999-14 0-7.73-6.268-13.998-14-13.998Zm-16 14c0-8.836 7.164-16 16-16s15.999 7.164 15.999 16-7.163 15.999-16 15.999c-8.835 0-15.998-7.163-15.998-16Zm10.063-7.876a1 1 0 0 1 1 1v5.061l10.34-6.53A1 1 0 0 1 23.437 9v15a1 1 0 0 1-1.534.845l-10.34-6.53v5.06a1 1 0 1 1-2 0V9.624a1 1 0 0 1 1-1Zm1.872 7.876 9.002-5.685v11.37L12.435 16.5Z" clip-rule="evenodd"/></svg>