<svg xmlns="http://www.w3.org/2000/svg" width="33" height="33" fill="none"><path fill="#111827" d="M12 15.5a1.5 1.5 0 1 0 0-3 1.5 1.5 0 0 0 0 3ZM21 15.5a1.5 1.5 0 1 0 0-3 1.5 1.5 0 0 0 0 3Z"/><path stroke="#111827" stroke-linecap="round" stroke-linejoin="round" stroke-width="2" d="M21.697 19.5a6 6 0 0 1-10.394 0"/><path stroke="#111827" stroke-miterlimit="10" stroke-width="2" d="M4.5 16.5c0 6.627 5.373 12 12 12 1.005 0 1.98-.123 2.913-.356a.49.49 0 0 0 .222-.124l8.277-8.012a.489.489 0 0 0 .131-.217c.298-1.046.457-2.15.457-3.291 0-6.627-5.373-12-12-12s-12 5.373-12 12Z"/></svg>