<svg xmlns="http://www.w3.org/2000/svg" width="33" height="33" fill="none"><path stroke="#111827" stroke-miterlimit="10" stroke-width="2" d="M16.5 28.5c6.627 0 12-5.373 12-12s-5.373-12-12-12-12 5.373-12 12 5.373 12 12 12Z"/><path fill="#111827" d="M12 15.5a1.5 1.5 0 1 0 0-3 1.5 1.5 0 0 0 0 3ZM21 15.5a1.5 1.5 0 1 0 0-3 1.5 1.5 0 0 0 0 3Z"/><path fill="#111827" d="M12 15.5a1.5 1.5 0 1 0 0-3 1.5 1.5 0 0 0 0 3ZM21 15.5a1.5 1.5 0 1 0 0-3 1.5 1.5 0 0 0 0 3Z"/><path stroke="#111827" stroke-linecap="round" stroke-linejoin="round" stroke-width="2" d="M21.697 22.5a6 6 0 0 0-10.394 0"/></svg>