<svg xmlns="http://www.w3.org/2000/svg" width="32" height="33" fill="none"><path stroke="#1C1B1F" stroke-miterlimit="10" stroke-width="2" d="M16 28.5c6.627 0 12-5.373 12-12s-5.373-12-12-12-12 5.373-12 12 5.373 12 12 12Z"/><path fill="#1C1B1F" d="M11.5 15.5a1.5 1.5 0 1 0 0-3 1.5 1.5 0 0 0 0 3ZM20.5 15.5a1.5 1.5 0 1 0 0-3 1.5 1.5 0 0 0 0 3Z"/><path fill="#1C1B1F" d="M11.5 15.5a1.5 1.5 0 1 0 0-3 1.5 1.5 0 0 0 0 3ZM20.5 15.5a1.5 1.5 0 1 0 0-3 1.5 1.5 0 0 0 0 3Z"/><path stroke="#1C1B1F" stroke-linecap="round" stroke-linejoin="round" stroke-width="2" d="M21.197 22.5a6 6 0 0 0-10.394 0"/></svg>