<svg xmlns="http://www.w3.org/2000/svg" width="33" height="33" fill="none"><path fill="#111827" fill-rule="evenodd" d="M22.61.5a1 1 0 0 1 1 1v2.334h2.334a1 1 0 1 1 0 2H23.61v2.333a1 1 0 1 1-2 0V5.834h-2.333a1 1 0 1 1 0-2h2.333V1.501a1 1 0 0 1 1-1Zm7.667 8.778a1 1 0 1 0-2 0V10.5h-1.222a1 1 0 1 0 0 2h1.222v1.222a1 1 0 1 0 2 0V12.5H31.5a1 1 0 1 0 0-2h-1.222V9.278ZM14.66 6.708a1 1 0 0 0-1.876 0l-3.14 8.49-8.49 3.142a1 1 0 0 0 0 1.875l8.49 3.142 3.14 8.489a1 1 0 0 0 1.876 0l3.142-8.49 8.489-3.14a1 1 0 0 0 0-1.877l-8.49-3.14-3.14-8.49Zm-3.3 9.616 2.362-6.387 2.364 6.386a1 1 0 0 0 .59.591l6.386 2.363-6.386 2.363a1 1 0 0 0-.59.591l-2.364 6.386-2.363-6.386a1 1 0 0 0-.59-.59l-6.387-2.364 6.386-2.363a1 1 0 0 0 .591-.59Z" clip-rule="evenodd"/></svg>