<svg xmlns="http://www.w3.org/2000/svg" width="33" height="33" fill="none"><path fill="#111827" fill-rule="evenodd" d="M20.171 3.193a1 1 0 0 0-1.626-.78l-9.607 7.714H7.09a6.59 6.59 0 0 0 0 13.18h1.864l9.613 7.297a1 1 0 0 0 1.604-.797V3.193ZM7.091 21.306a4.59 4.59 0 1 1 0-9.18h2.2a1 1 0 0 0 .625-.22l8.255-6.627v22.513L9.895 21.51a1 1 0 0 0-.605-.204h-2.2Zm25.115-8.638a1 1 0 0 1 0 1.414L29.788 16.5l2.418 2.418a1 1 0 0 1-1.414 1.414l-2.418-2.418-2.418 2.418a1 1 0 0 1-1.414-1.414L26.96 16.5l-2.418-2.418a1 1 0 1 1 1.414-1.414l2.418 2.418 2.418-2.418a1 1 0 0 1 1.414 0Z" clip-rule="evenodd"/></svg>