<svg xmlns="http://www.w3.org/2000/svg" width="33" height="32" fill="none"><path fill="#111827" fill-rule="evenodd" d="M15.805.127a1 1 0 0 1 .976 0l12.793 7.159a1 1 0 0 1 .023 1.732L16.804 16.63a1 1 0 0 1-1.022 0L2.989 9.018a1 1 0 0 1 .023-1.732L15.805.127ZM5.5 8.185l10.793 6.423 10.793-6.423-10.793-6.04L5.5 8.186ZM2.64 15.26a1 1 0 0 1 1.372-.348l12.281 7.31 12.282-7.31a1 1 0 0 1 1.022 1.72l-12.793 7.612a1 1 0 0 1-1.022 0L2.989 16.631a1 1 0 0 1-.348-1.37Zm1.372 7.266a1 1 0 0 0-1.023 1.718l12.793 7.614a1 1 0 0 0 1.023 0l12.792-7.614a1 1 0 0 0-1.023-1.718l-12.281 7.308-12.281-7.308Z" clip-rule="evenodd"/></svg>