<svg xmlns="http://www.w3.org/2000/svg" width="33" height="32" fill="none"><path fill="#111827" fill-rule="evenodd" d="M20.187 8.967a1 1 0 0 1 0-1.414L25.49 2.25a1 1 0 0 1 1.414 0l5.303 5.303a1 1 0 1 1-1.414 1.414l-3.565-3.565v9.91a1 1 0 0 1-1 1H5.68v5.618a4.126 4.126 0 0 1-1.056 8.113 4.125 4.125 0 0 1-.944-8.14V15.31a1 1 0 0 1 1-1h20.547v-8.97l-3.626 3.626a1 1 0 0 1-1.415 0ZM8.374 1.957a1 1 0 0 1 1 1v2.75h2.75a1 1 0 1 1 0 2h-2.75v2.75a1 1 0 1 1-2 0v-2.75h-2.75a1 1 0 1 1 0-2h2.75v-2.75a1 1 0 0 1 1-1Zm12.28 20.13a1 1 0 0 0-1.413 1.414l2.417 2.417-2.417 2.418a1 1 0 0 0 1.414 1.414l2.417-2.417 2.418 2.417a1 1 0 0 0 1.414-1.414l-2.418-2.418 2.418-2.417a1 1 0 0 0-1.414-1.414l-2.418 2.417-2.417-2.417ZM2.5 25.918a2.125 2.125 0 1 1 4.25 0 2.125 2.125 0 0 1-4.25 0Z" clip-rule="evenodd"/></svg>