<svg xmlns="http://www.w3.org/2000/svg" width="33" height="33" fill="none"><path fill="#111827" fill-rule="evenodd" d="M.5 9.626a6 6 0 0 1 6-6h1.397a1 1 0 0 1 0 2H6.501a4 4 0 0 0-4 4V18h27.998V9.626a4 4 0 0 0-4-4h-1.396a1 1 0 0 1 0-2h1.396a6 6 0 0 1 6 6v13.343c0 .047-.003.095-.01.14a6.595 6.595 0 0 1-1.507 3.86.998.998 0 0 1-.14.164A6.625 6.625 0 0 1 19.25 22.75V20h-5.5v2.75c0 1.604-.57 3.074-1.517 4.22a1.005 1.005 0 0 1-.14.164A6.625 6.625 0 0 1 .51 23.107a1.01 1.01 0 0 1-.01-.138V9.626ZM21.25 20v2.75a4.625 4.625 0 0 0 7.476 3.64L22.336 20H21.25Zm3.914 0 4.838 4.838a4.605 4.605 0 0 0 .497-2.089V20h-5.335Zm-18.75 0h5.336v2.75c0 .75-.18 1.46-.497 2.088L6.415 20Zm-2.828 0 6.391 6.39a4.625 4.625 0 0 1-7.476-3.641V20h1.085Z" clip-rule="evenodd"/></svg>