<svg xmlns="http://www.w3.org/2000/svg" width="33" height="32" fill="none"><path fill="#111827" fill-rule="evenodd" d="M29.5 1.68a2.197 2.197 0 0 1 2.943 2.536l-5.626 24.55a2.196 2.196 0 0 1-3.592 1.158l-6.028-5.305-4.011 4.011a2.197 2.197 0 0 1-3.75-1.553v-8.92l-7.17-1.433a2.197 2.197 0 0 1-.372-4.199L29.5 1.68ZM11.435 19.55v7.527a.196.196 0 0 0 .336.139l3.92-3.92-4.256-3.746Zm-8.81-5.163L24.966 5.61 10.206 16.272l-7.546-1.51a.196.196 0 0 1-.034-.375Zm21.92 14.035L12.038 17.416 30.407 4.148l-5.54 24.17a.196.196 0 0 1-.32.104Z" clip-rule="evenodd"/></svg>