<svg xmlns="http://www.w3.org/2000/svg" width="33" height="32" fill="none"><path fill="#111827" fill-rule="evenodd" d="M32.206 10.08a1 1 0 0 1-.44 1.67l-3.58.996-16.672 16.671a6.451 6.451 0 1 1-9.123-9.124L21.698.986a1 1 0 0 1 1.414 0l9.094 9.094Zm-4.81.81 2.184-.607-7.175-7.175-11.948 11.948c1.32-.03 2.91.253 4.703 1.16 2.133 1.078 3.803 1.053 4.904.806.56-.126.99-.313 1.271-.463a3.48 3.48 0 0 0 .372-.228l.008-.006a.993.993 0 0 1 .175-.112l5.067-5.068a1 1 0 0 1 .44-.256Zm-8.453 8.27c-1.317.027-2.9-.258-4.685-1.16-2.134-1.077-3.803-1.053-4.904-.806-.56.126-.99.313-1.272.463a3.467 3.467 0 0 0-.371.228l-.008.006a1.002 1.002 0 0 1-.21.128l-3.688 3.689a4.451 4.451 0 1 0 6.295 6.295l8.843-8.843Z" clip-rule="evenodd"/></svg>