<svg xmlns="http://www.w3.org/2000/svg" width="33" height="32" fill="none"><path fill="#111827" fill-rule="evenodd" d="M6.5 7.86a1 1 0 1 0-2 0v13.2a1 1 0 1 0 2 0v-5.6h9.44v5.6a1 1 0 1 0 2 0V7.86a1 1 0 1 0-2 0v5.6H6.5v-5.6Zm16.576 4.72a1 1 0 0 0-.986.83l-1 5.778a1 1 0 0 0 1.701.869c.067-.069.139-.133.217-.193a2.26 2.26 0 0 1 1.382-.457c1.243 0 2.11.91 2.11 1.866 0 .956-.867 1.867-2.11 1.867-.707 0-1.313-.306-1.689-.75a1 1 0 0 0-1.525 1.294c.762.898 1.929 1.456 3.214 1.456 2.191 0 4.11-1.657 4.11-3.867s-1.919-3.866-4.11-3.866a4.37 4.37 0 0 0-.981.11l.508-2.937H27.5a1 1 0 1 0 0-2h-4.423Z" clip-rule="evenodd"/></svg>