<svg xmlns="http://www.w3.org/2000/svg" width="33" height="33" fill="none"><path fill="#111827" fill-rule="evenodd" d="M2.001 5.116a1.5 1.5 0 0 0-1.5 1.5v6.052a1 1 0 0 0 1 1 2.832 2.832 0 0 1 0 5.664 1 1 0 0 0-1 1v6.052a1.5 1.5 0 0 0 1.5 1.5H30.999a1.5 1.5 0 0 0 1.5-1.5v-6.052a1 1 0 0 0-1-1 2.832 2.832 0 0 1 0-5.664 1 1 0 0 0 1-1V6.616a1.5 1.5 0 0 0-1.5-1.5H2.001Zm8.884 2H2.501v4.656a4.834 4.834 0 0 1 0 9.456v4.656h8.384V7.116Zm2 18.768V7.116h17.614v4.656a4.834 4.834 0 0 0 0 9.456v4.656H12.885Z" clip-rule="evenodd"/></svg>