<svg xmlns="http://www.w3.org/2000/svg" width="33" height="32" fill="none"><path fill="#111827" fill-rule="evenodd" d="M6.9 0a1 1 0 0 0-1 1v11H3.3a1 1 0 0 0-1 1v4a9 9 0 0 0 8.369 8.977l-.966 4.826a1 1 0 0 0 .981 1.196h11.632a1 1 0 0 0 .98-1.196l-.964-4.826A9 9 0 0 0 30.699 17V13a1 1 0 0 0-1-1h-2.6V1a1 1 0 0 0-1-1H6.901Zm-.003 14H28.7v3a7 7 0 0 1-7 7H11.301a7 7 0 0 1-7-7v-3h2.596ZM25.1 12V2H7.901v10h17.198ZM11.7 4.8a1 1 0 1 0 0 2h2.4a1 1 0 1 0 0-2h-2.4ZM12.704 26l-.8 4h9.192l-.8-4h-7.592Z" clip-rule="evenodd"/></svg>