<svg xmlns="http://www.w3.org/2000/svg" width="33" height="33" fill="none"><path fill="#111827" fill-rule="evenodd" d="M12.115 4.69a12.586 12.586 0 0 1 16.97 11.811l-1-.001h1v.482l1.707-1.706a1 1 0 0 1 1.414 1.414l-3.405 3.405a1 1 0 0 1-1.426.005l-3.41-3.41a1 1 0 1 1 1.414-1.414l1.707 1.706V16.5A10.586 10.586 0 0 0 7.6 10.754a1 1 0 1 1-1.68-1.083 12.586 12.586 0 0 1 6.194-4.98Zm-7.2 7.914c.28 0 .534.116.716.302l.283 3.112v.483a10.586 10.586 0 0 0 3.635 7.995 7.183 7.183 0 0 1 3.552-4.555 5.619 5.619 0 1 1 6.798 0 7.183 7.183 0 0 1 3.552 4.555 10.587 10.587 0 0 0 1.948-2.25 1 1 0 1 1 1.68 1.083A12.585 12.585 0 0 1 3.915 16.5l1 .001h-1v-.482l-1.706 1.706A1 1 0 1 1 .794 16.31l3.41-3.41a1 1 0 0 1 .71-.296Zm16.73 13.16a5.17 5.17 0 0 0-5.122-4.678h-.045a5.17 5.17 0 0 0-5.123 4.678 10.582 10.582 0 0 0 10.29 0Zm-5.123-6.678a3.619 3.619 0 1 0-.043 0h.043Z" clip-rule="evenodd"/></svg>