<svg width="32" height="33" viewBox="0 0 32 33" fill="none" xmlns="http://www.w3.org/2000/svg">
<path fill-rule="evenodd" clip-rule="evenodd" d="M10.2914 12.2056C9.9009 11.8151 9.9009 11.182 10.2914 10.7914C10.682 10.4009 11.3151 10.4009 11.7056 10.7914L20.0012 19.087V13.5015C20.0012 12.9492 20.4489 12.5015 21.0012 12.5015C21.5535 12.5015 22.0012 12.9492 22.0012 13.5015V21.4811C22.0065 21.7437 21.909 22.0081 21.7085 22.2085C21.6012 22.3159 21.4755 22.3938 21.3415 22.4421C21.2353 22.4805 21.1207 22.5015 21.0012 22.5015H13.0012C12.4489 22.5015 12.0012 22.0538 12.0012 21.5015C12.0012 20.9492 12.4489 20.5015 13.0012 20.5015H18.5873L10.2914 12.2056Z" fill="#111827"/>
</svg>
