<svg width="33" height="32" viewBox="0 0 33 32" fill="none" xmlns="http://www.w3.org/2000/svg">
<path fill-rule="evenodd" clip-rule="evenodd" d="M16.8257 24.946C16.7235 24.9812 16.6139 25.0003 16.4998 25.0003C16.2178 25.0003 15.9631 24.8837 15.7814 24.696L9.95891 18.8735C9.56838 18.483 9.56838 17.8498 9.95891 17.4593C10.3494 17.0688 10.9826 17.0688 11.3731 17.4593L15.4998 21.5859V7.99966C15.4998 7.44738 15.9475 6.99966 16.4998 6.99966C17.052 6.99966 17.4998 7.44738 17.4998 7.99966V21.5863L21.6267 17.4593C22.0173 17.0688 22.6504 17.0688 23.0409 17.4593C23.4315 17.8498 23.4315 18.483 23.0409 18.8735L17.207 24.7074C17.0958 24.8186 16.965 24.8981 16.8257 24.946Z" fill="#111827"/>
</svg>
