<svg width="32" height="33" viewBox="0 0 32 33" fill="none" xmlns="http://www.w3.org/2000/svg">
<path fill-rule="evenodd" clip-rule="evenodd" d="M16.9998 5.49948C16.9998 4.9472 16.5521 4.49948 15.9998 4.49948C15.4475 4.49948 14.9998 4.9472 14.9998 5.49948V25.0862L10.8731 20.9595C10.4826 20.569 9.84943 20.569 9.45891 20.9595C9.06838 21.35 9.06838 21.9832 9.45891 22.3737L15.283 28.1978C15.3308 28.247 15.3837 28.2912 15.4407 28.3298C15.4706 28.3499 15.5016 28.3685 15.5336 28.3854C15.6728 28.4589 15.8315 28.5005 15.9998 28.5005C16.1354 28.5005 16.2647 28.4735 16.3827 28.4246C16.5006 28.3758 16.6111 28.3035 16.707 28.2076L22.5409 22.3737C22.9315 21.9832 22.9315 21.35 22.5409 20.9595C22.1504 20.569 21.5173 20.569 21.1267 20.9595L16.9998 25.0864V5.49948Z" fill="#111827"/>
</svg>
