<svg xmlns="http://www.w3.org/2000/svg" width="33" height="32" fill="none" viewBox="0 0 33 32"><path fill="#111827" fill-rule="evenodd" d="M4.938 0a1 1 0 0 0-1 1v4.626h-.875a1 1 0 1 0 0 2h.875v4.25h-.875a1 1 0 1 0 0 2h.875v4.249h-.875a1 1 0 1 0 0 2h.875v4.25h-.875a1 1 0 1 0 0 2h.875v4.624a1 1 0 0 0 1 1h24.999a1 1 0 0 0 1-1V1.001a1 1 0 0 0-1-1zm1 26.374V30h22.999V2.001H5.938v3.625h.875a1 1 0 1 1 0 2h-.875v4.25h.875a1 1 0 1 1 0 2h-.875v4.249h.875a1 1 0 1 1 0 2h-.875v4.25h.875a1 1 0 1 1 0 2zM17.438 9.5a4 4 0 1 0 0 8 4 4 0 0 0 0-8m-6 4a6 6 0 1 1 9.734 4.695 10.4 10.4 0 0 1 4.565 3.454 1 1 0 0 1-1.6 1.2 8.375 8.375 0 0 0-13.4 0 1 1 0 1 1-1.6-1.2 10.4 10.4 0 0 1 4.565-3.454 5.99 5.99 0 0 1-2.264-4.695" clip-rule="evenodd"/></svg>