<svg xmlns="http://www.w3.org/2000/svg" width="33" height="33" fill="none" viewBox="0 0 33 33"><path fill="#111827" fill-rule="evenodd" d="M2.91 16.5c0-7.619 6.176-13.795 13.795-13.795 3.656 0 6.98 1.422 9.449 3.743a2.864 2.864 0 0 0 3.08 4.27A13.744 13.744 0 0 1 30.5 16.5c0 3.758-1.503 7.165-3.94 9.652h-9.284a.995.995 0 0 0 .214-.617v-3.167a5.933 5.933 0 1 0 4.774-10.793 5.935 5.935 0 0 0-11.628.026 5.935 5.935 0 1 0 4.854 10.767v3.167c0 .233.08.447.213.617h-8.74v.116a13.859 13.859 0 0 1-1.699-2.056 2.864 2.864 0 0 0-2.088-4.998A13.86 13.86 0 0 1 2.91 16.5Zm-1.595 3.57A15.844 15.844 0 0 1 .91 16.5C.91 7.777 7.982.705 16.705.705c4.292 0 8.184 1.711 11.03 4.49a2.864 2.864 0 0 1 3.187 4.416 15.733 15.733 0 0 1 1.579 6.89c0 8.723-7.072 15.795-15.796 15.795-5.622 0-10.558-2.938-13.357-7.361a2.864 2.864 0 0 1-2.033-4.865Zm8.002 8.082a13.73 13.73 0 0 0 7.388 2.144c2.718 0 5.253-.786 7.389-2.143H9.317Zm18.429-20.23a.864.864 0 1 1 1.727 0 .864.864 0 0 1-1.727 0Zm-15.214 4.547a3.933 3.933 0 0 1 7.842-.012l.06.761.751.142a3.935 3.935 0 0 1-.736 7.797 3.922 3.922 0 0 1-2.958-1.341v-2.51l1.79-.895a1 1 0 1 0-.895-1.789l-.895.448v-1.785a1 1 0 1 0-2 0v3.383a.97.97 0 0 0 0 .042v.401l-2.147-1.073a1 1 0 0 0-.894 1.79l3.04 1.52v.468a3.933 3.933 0 1 1-3.755-6.444l.74-.152.057-.751Zm-9.17 8.739a.864.864 0 1 0 0 1.727.864.864 0 0 0 0-1.727Z" clip-rule="evenodd"/></svg>