<svg xmlns="http://www.w3.org/2000/svg" width="33" height="32" fill="none" viewBox="0 0 33 32"><path fill="#111827" fill-rule="evenodd" d="M5.476.444a1 1 0 0 0-1.339.457l-2.84 5.786a6 6 0 0 0 2.742 8.03L28.5 26.728a1 1 0 0 0 1.339-.457l2.25-4.585a4 4 0 0 0-1.827-5.353l-8.193-4.023-2.21-8.079a1 1 0 0 0-.524-.634l-4.013-1.97a1 1 0 0 0-1.434.78l-.662 5.562-2.499-1.226-.585-3.54a1 1 0 0 0-.546-.735zM3.092 7.57l2.4-4.889 2.76 1.356.586 3.54a1 1 0 0 0 .546.734l4.228 2.076a1 1 0 0 0 1.433-.78l.662-5.563 2.342 1.15 2.21 8.079a1 1 0 0 0 .523.634l8.598 4.22a2 2 0 0 1 .914 2.678l-1.81 3.687L4.92 12.922A4 4 0 0 1 3.092 7.57M1.5 29.658a1 1 0 0 0 0 2h26.595a1 1 0 1 0 0-2z" clip-rule="evenodd"/></svg>