<svg xmlns="http://www.w3.org/2000/svg" width="33" height="33" fill="none" viewBox="0 0 33 33"><path fill="#111827" fill-rule="evenodd" d="M7.208 3.226a1 1 0 1 0-1.414-1.414l-5 5a1 1 0 1 0 1.414 1.414zm18.584-1.414a1 1 0 0 1 1.414 0l5 5a1 1 0 0 1-1.414 1.414l-5-5a1 1 0 0 1 0-1.414M4.537 17.518c0-6.607 5.356-11.963 11.963-11.963s11.963 5.356 11.963 11.963S23.107 29.481 16.5 29.481 4.537 24.125 4.537 17.518M16.5 3.555c-7.711 0-13.963 6.252-13.963 13.963 0 7.712 6.252 13.963 13.963 13.963 7.712 0 13.963-6.251 13.963-13.963S24.212 3.555 16.5 3.555m1 5.714a1 1 0 1 0-2 0v8.25a1 1 0 0 0 1 1h8.25a1 1 0 1 0 0-2H17.5z" clip-rule="evenodd"/></svg>