<svg width="32" height="32" fill="none" xmlns="http://www.w3.org/2000/svg"><path d="M26.154 14.154C26.154 19.762 19.692 28 16 28S5.846 19.762 5.846 14.154a10.154 10.154 0 0 1 20.308 0v0Z" stroke="#1C1B1F" stroke-width="2" stroke-linecap="round" stroke-linejoin="round"/><path d="M12.994 18.534a4.022 4.022 0 0 1-4.022-4.022v-.503a1.006 1.006 0 0 1 1.006-1.005A4.022 4.022 0 0 1 14 17.026v.503a1.006 1.006 0 0 1-1.006 1.005v0ZM22.022 13.004a1.005 1.005 0 0 1 1.006 1.005v.503a4.022 4.022 0 0 1-4.022 4.023A1.006 1.006 0 0 1 18 17.529v-.503a4.022 4.022 0 0 1 4.022-4.022ZM14.154 22.461c1.43.924 2.256.92 3.692 0" stroke="#1C1B1F" stroke-width="2" stroke-linecap="round" stroke-linejoin="round"/></svg>