<svg xmlns="http://www.w3.org/2000/svg" width="33" height="33" fill="none" viewBox="0 0 33 33"><path fill="#111827" fill-rule="evenodd" d="M8.233 5.925a11.692 11.692 0 0 1 19.958 8.267c0 3.19-1.873 7.304-4.414 10.68-1.257 1.671-2.637 3.107-3.954 4.114-1.35 1.032-2.502 1.513-3.323 1.513-.822 0-1.973-.481-3.323-1.513-1.318-1.007-2.698-2.443-3.954-4.113-2.541-3.377-4.415-7.491-4.415-10.68 0-3.101 1.232-6.075 3.425-8.268ZM16.5.501A13.692 13.692 0 0 0 2.808 14.192c0 3.82 2.165 8.36 4.816 11.883 1.34 1.78 2.844 3.357 4.339 4.5 1.462 1.118 3.05 1.924 4.537 1.924 1.486 0 3.075-.806 4.537-1.924 1.495-1.143 3-2.72 4.338-4.5 2.652-3.524 4.816-8.063 4.816-11.883A13.692 13.692 0 0 0 16.5.501Zm-3.575 18.091a.257.257 0 0 1-.182.076 4.028 4.028 0 0 1-4.027-4.028v-.629a.257.257 0 0 1 .257-.256A4.028 4.028 0 0 1 13 17.782v.629a.257.257 0 0 1-.075.181Zm-.182 2.076A2.257 2.257 0 0 0 15 18.41v-.629a6.027 6.027 0 0 0-6.027-6.027 2.257 2.257 0 0 0-2.257 2.256v.629a6.028 6.028 0 0 0 6.027 6.027Zm11.284-6.913A4.027 4.027 0 0 0 20 17.782v.629a.257.257 0 0 0 .257.257 4.027 4.027 0 0 0 4.027-4.028v-.628a.257.257 0 0 0-.257-.257Zm-4.262-.235a6.028 6.028 0 0 1 4.262-1.765 2.257 2.257 0 0 1 2.257 2.257v.628a6.028 6.028 0 0 1-6.027 6.028A2.257 2.257 0 0 1 18 18.41v-.629c0-1.598.635-3.131 1.765-4.262Zm-.419 11.898a1 1 0 0 0-1.078-1.684c-.843.54-1.352.705-1.771.706-.419 0-.925-.164-1.762-.704a1 1 0 0 0-1.085 1.68c.952.614 1.855 1.024 2.848 1.024.992-.001 1.896-.412 2.848-1.022Z" clip-rule="evenodd"/></svg>