<svg xmlns="http://www.w3.org/2000/svg" width="33" height="32" fill="none" viewBox="0 0 33 32"><path fill="#111827" fill-rule="evenodd" d="m13.726 9.235-3.335-.482a.476.476 0 0 1-.413-.526c.559-4.305 4.935-5.999 9.653-5.117 3.975.743 4.74 3.957 4.635 5.426v4.618c-.196 2.458.13 3.963.316 4.407.133.358.388.733.66 1.063.397.48.395 1.216-.084 1.614l-2.498 2.078c-.146.12-.347.149-.496.033-.614-.478-1.602-1.71-2.077-2.347-1.949 1.774-2.932 2.3-5.303 2.529-2.37.228-5.83-1.791-5.443-5.549.386-3.758 2.458-4.811 4.056-5.531 1.278-.576 4.56-.93 6.04-1.036.352-2.768-.93-3.705-1.615-3.828-2.261-.62-3.3 1.101-3.623 2.318a.435.435 0 0 1-.473.33Zm.594 6.816c.335-2.632 3.55-3.049 5.117-2.928.35 4.145-1.338 5.283-2.002 5.73l-.062.042c-.613.419-3.472.447-3.053-2.844Zm12.538 10.187c.826-.099 2.658-.262 3.381-.125.904.172.842.81.67 1.434a46.38 46.38 0 0 1-.888 2.742c-.2.536.229.41.467.28.691-.716 2.06-2.683 2.01-4.814.011-.255-.17-.786-.981-.873-1.013-.109-3.335-.109-4.66.81-.243.166-.585.508 0 .546ZM.857 25.433c3.89 2.776 14.973 7.01 28.184 1.742.324.01.87.168.45.733-4.93 3.485-17.594 7.97-28.799-1.971-.176-.148-.39-.456.165-.504Z" clip-rule="evenodd"/></svg>