<svg xmlns="http://www.w3.org/2000/svg" width="33" height="32" fill="none" viewBox="0 0 33 32"><path fill="#111827" fill-rule="evenodd" d="M16.5 3.243a2.752 2.752 0 0 0-.006 5.504h.012a2.752 2.752 0 0 0-.006-5.504m-4.752 2.752a4.75 4.75 0 0 0 3.752 4.647V28.72A14.01 14.01 0 0 1 2.53 15.749h2.716a1 1 0 1 0 0-2H1.993c-.82 0-1.52.671-1.491 1.534a16.007 16.007 0 0 0 31.996 0 1.487 1.487 0 0 0-1.49-1.534h-3.253a1 1 0 0 0 0 2h2.716a14.01 14.01 0 0 1-12.97 12.972V10.64a4.753 4.753 0 0 0-1-9.398 4.75 4.75 0 0 0-4.753 4.752" clip-rule="evenodd"/></svg>