<svg xmlns="http://www.w3.org/2000/svg" width="33" height="32" fill="none"><path fill="#111827" fill-rule="evenodd" d="M14.577 3.939a1.938 1.938 0 1 1 3.875 0 1.938 1.938 0 0 1-3.875 0ZM16.514 0a3.938 3.938 0 0 0-1 7.747v4.004H10.64a1 1 0 1 0 0 2h4.875v11.943c-.82-1.017-2.019-1.498-3.77-1.713-2.498-.415-4.003-.956-5.018-1.874-1.002-.906-1.675-2.316-2.155-4.843a1 1 0 0 0-1.965.374c.51 2.683 1.296 4.612 2.779 5.953 1.467 1.326 3.469 1.939 6.054 2.366a.903.903 0 0 0 .043.007c1.702.206 2.271.628 2.636 1.211.22.352.402.828.598 1.522.123.431.237.898.37 1.434.083.341.174.71.278 1.115a1 1 0 0 0 1.93.029 81.075 81.075 0 0 1 .184-.631c.489-1.645.875-2.676 1.382-3.372.497-.683 1.155-1.096 2.475-1.314 2.773-.444 4.82-1.118 6.293-2.472 1.485-1.364 2.238-3.28 2.763-5.834a1 1 0 1 0-1.959-.402c-.497 2.42-1.14 3.83-2.157 4.763-1.028.945-2.587 1.543-5.258 1.97l-.005.001c-1.525.251-2.644.777-3.498 1.768V13.752h4.876a1 1 0 0 0 0-2h-4.876V7.748a3.94 3.94 0 0 0-1-7.747Z" clip-rule="evenodd"/></svg>