<svg xmlns="http://www.w3.org/2000/svg" width="33" height="32" fill="none" viewBox="0 0 33 32"><path fill="#111827" fill-rule="evenodd" d="M1.945 4.907a1 1 0 0 1 1.414 0l3.863 3.862a15.8 15.8 0 0 1 9.222-3A16 16 0 0 1 25.8 8.747l3.841-3.841a1 1 0 1 1 1.414 1.414l-3.695 3.696q.221.204.435.418a16 16 0 0 1 4.707 11.335v3.462a2.154 2.154 0 0 1-2.154 2.154H2.652a2.154 2.154 0 0 1-2.154-2.154v-3.3c0-4.673 1.987-8.92 5.171-11.887L1.945 6.321a1 1 0 0 1 0-1.414m23.313 5.938.016.013a14 14 0 0 1 4.157 5.542 14 14 0 0 1 1.071 5.37v3.462a.154.154 0 0 1-.154.154H2.652a.154.154 0 0 1-.154-.154v-3.3A14.23 14.23 0 0 1 7.782 10.86a13.82 13.82 0 0 1 8.669-3.091 14 14 0 0 1 8.807 3.077M11.306 21.77a1.73 1.73 0 1 0 0-3.461 1.73 1.73 0 0 0 0 3.461m10.387 0a1.73 1.73 0 1 0 0-3.461 1.73 1.73 0 0 0 0 3.461" clip-rule="evenodd"/></svg>