<svg xmlns="http://www.w3.org/2000/svg" width="33" height="32" fill="none" viewBox="0 0 33 32"><path fill="#111827" fill-rule="evenodd" d="M16.16.084a1 1 0 0 1 .8.001l14.414 6.328a1 1 0 0 1 .588 1.054l-2.46 17.577a1 1 0 0 1-.537.753L17.013 31.89a1 1 0 0 1-.898.005L3.811 25.802a1 1 0 0 1-.548-.77L1.036 7.453a1 1 0 0 1 .593-1.042zM3.115 7.946l2.064 16.302 11.373 5.632 11.04-5.629L29.878 7.94l-13.32-5.848zm10.178 10.149-1.348 2.689a1 1 0 0 1-1.788-.896l5.376-10.723a1.1 1.1 0 0 1 1.96-.015l5.577 10.724a1 1 0 1 1-1.774.923l-1.405-2.702zm5.557-2h-4.554l2.235-4.459z" clip-rule="evenodd"/></svg>