<svg xmlns="http://www.w3.org/2000/svg" width="33" height="32" fill="none" viewBox="0 0 33 32"><g clip-path="url(#a)"><path fill="#111827" fill-rule="evenodd" d="M14.448 2.633a.941.941 0 0 1 .815-.47h2.467c.336 0 .647.179.815.47l13.829 23.953a.941.941 0 0 1-.001.943l-1.068 1.84a.941.941 0 0 1-.814.468H18.763a.941.941 0 0 1-.942-.94v-5.372c0-.52.422-.941.942-.941h2.418l-4.445-7.7-4.445 7.7h2.361c.52 0 .942.421.942.94v5.372c0 .52-.422.941-.942.941H2.714c-.31 0-.6-.152-.776-.408L.666 27.578a.941.941 0 0 1-.04-1.004l13.822-23.94Zm1.359 1.412L2.553 27l.656.954h10.502v-3.489h-3.05a.941.941 0 0 1-.815-1.412l6.075-10.522a.941.941 0 0 1 1.63 0l6.075 10.522a.941.941 0 0 1-.815 1.412h-3.107v3.49h10.245l.522-.901-13.284-23.01h-1.38Z" clip-rule="evenodd"/></g><defs><clipPath id="a"><path fill="#fff" d="M.5 0h32v32H.5z"/></clipPath></defs></svg>