<svg xmlns="http://www.w3.org/2000/svg" width="33" height="33" fill="none" viewBox="0 0 33 33"><path fill="#111827" fill-rule="evenodd" d="M5.163 8.286a13.98 13.98 0 0 1 10.639-5.768l2.945 8.248-4.001-.73-.049-.01zM4.04 10.114l8.618 1.573-2.643 3.112-.012.014-6.286 7.4A13.95 13.95 0 0 1 2.501 16.5c0-2.3.555-4.472 1.538-6.386m6.372 7.307L4.74 24.097a14 14 0 0 0 10.315 6.328l-3.261-9.131-.014-.038zm6.788 13.06-2.946-8.247 3.998.73.055.01 9.53 1.74A13.98 13.98 0 0 1 17.2 30.482m3.144-9.168 8.618 1.573a13.94 13.94 0 0 0 1.538-6.386 13.95 13.95 0 0 0-1.215-5.713l-6.285 7.4-.014.015zm2.247-5.734 5.67-6.676a14 14 0 0 0-10.315-6.328l3.267 9.146.003.007zm-1.495 1.76-3.024 3.559-4.595-.839-1.57-4.398 3.023-3.56 4.595.84zm-4.567 15.16c8.823-.015 15.97-7.173 15.97-16S25.349.515 16.525.502h-.048C7.651.514.501 7.671.501 16.5c0 8.827 7.148 15.984 15.972 15.999z" clip-rule="evenodd"/></svg>