<svg xmlns="http://www.w3.org/2000/svg" width="33" height="34" fill="none" viewBox="0 0 33 34"><path fill="#111827" fill-rule="evenodd" d="M20.982 3.65a3.708 3.708 0 0 1 2.099-.652 1 1 0 1 0 0-2 5.708 5.708 0 0 0-5.327 3.657 1 1 0 0 0 1.866.719c.27-.7.744-1.3 1.362-1.725ZM8.12 10.15a7.825 7.825 0 0 1 8.411 1.311 1 1 0 0 0 1.352-.017 7.825 7.825 0 0 1 10.644.231 8.063 8.063 0 0 0 .71 12.938c-.843 1.806-1.927 3.346-3.074 4.464-1.334 1.301-2.638 1.924-3.67 1.924h-10.59c-.749 0-1.65-.326-2.62-1.032-.963-.7-1.934-1.729-2.802-3.014-1.74-2.573-2.991-6.058-2.991-9.662a7.825 7.825 0 0 1 4.63-7.143Zm4.708-2.564a9.825 9.825 0 0 1 4.37 1.839 9.826 9.826 0 0 1 13.606 1.796 1 1 0 0 1-.146 1.386.996.996 0 0 1-.122.087 6.062 6.062 0 0 0 .41 10.602 1 1 0 0 1 .49 1.279c-.97 2.37-2.344 4.44-3.877 5.934-1.509 1.471-3.289 2.492-5.067 2.492h-10.59c-1.31 0-2.615-.556-3.795-1.414-1.188-.863-2.313-2.076-3.283-3.512-1.939-2.868-3.334-6.738-3.334-10.782a9.825 9.825 0 0 1 11.338-9.707Z" clip-rule="evenodd"/></svg>