<svg xmlns="http://www.w3.org/2000/svg" width="33" height="32" fill="none"><path fill="#111827" fill-rule="evenodd" d="M16.5 2A14.002 14.002 0 0 0 3.06 12.079a13.991 13.991 0 0 0 5.915 15.719 1 1 0 0 1-1.074 1.687 15.996 15.996 0 0 1-6.76-17.966A15.995 15.995 0 0 1 16.5.001a16.002 16.002 0 0 1 15.36 11.517 15.991 15.991 0 0 1-6.76 17.966 1 1 0 0 1-1.075-1.687 13.996 13.996 0 0 0 5.914-15.719A13.995 13.995 0 0 0 16.5 2.001Zm-4.195 6.066a9.002 9.002 0 0 1 13.134 6.916 8.993 8.993 0 0 1-.544 4.285 1 1 0 0 0 1.865.721 10.993 10.993 0 0 0-5.133-13.692 11.002 11.002 0 0 0-16.052 8.455 10.994 10.994 0 0 0 .665 5.237 1 1 0 1 0 1.865-.72 8.994 8.994 0 0 1 4.2-11.202Zm1.445 6.688a2.75 2.75 0 1 1 5.499.001 2.75 2.75 0 0 1-5.499 0Zm2.75-4.748a4.75 4.75 0 0 0-3.54 7.914 3 3 0 0 0-1.416 3.172l1.7 8.495A3 3 0 0 0 16.186 32h.628a3 3 0 0 0 2.942-2.412l1.7-8.495a3 3 0 0 0-1.415-3.172 4.75 4.75 0 0 0-3.54-7.914ZM13.506 20.7a1 1 0 0 1 .98-1.197h4.027a1 1 0 0 1 .981 1.197l-1.7 8.495a1 1 0 0 1-.98.804h-.628a1 1 0 0 1-.98-.804l-1.7-8.495Z" clip-rule="evenodd"/></svg>