<svg xmlns="http://www.w3.org/2000/svg" width="33" height="32" fill="none"><path fill="#111827" fill-rule="evenodd" d="M20.822 3.817A1 1 0 1 0 19.1 2.8l-2.6 4.4-2.6-4.4a1 1 0 0 0-1.722 1.017l3.162 5.35-6.853 11.602H1.501a1 1 0 1 0 0 2h17.09a1 1 0 1 0 0-2H10.81L20.822 3.817Zm-.779 9.381a1 1 0 1 0-1.721 1.018l4.714 7.977c.027.058.06.112.096.163l4.045 6.844a1 1 0 1 0 1.722-1.017l-3.2-5.414h5.8a1 1 0 1 0 0-2h-6.982l-4.474-7.571Zm-13.2 12.326a1 1 0 0 1 .35 1.37l-1.371 2.308a1 1 0 1 1-1.72-1.021l1.37-2.308a1 1 0 0 1 1.37-.349Z" clip-rule="evenodd"/></svg>