<svg xmlns="http://www.w3.org/2000/svg" width="33" height="32" fill="none"><path fill="#111827" fill-rule="evenodd" d="M3.522.784A1 1 0 0 1 4.416.23h24.168a1 1 0 0 1 .894.553l2.677 5.352c.07.135.112.288.114.45v24.183a1 1 0 0 1-1 1H1.731a1 1 0 0 1-1-1V6.587a.995.995 0 0 1 .114-.45L3.522.783ZM5.034 2.23 3.35 5.6H29.65l-1.685-3.37H5.034ZM2.731 29.769V7.601h27.538V29.77H2.731ZM16.5 10.972a1 1 0 0 0-1 1v11.013l-3.99-3.99a1 1 0 0 0-1.415 1.414l5.697 5.697a.994.994 0 0 0 .794.289.995.995 0 0 0 .627-.296l5.69-5.69a1 1 0 0 0-1.415-1.414l-3.989 3.99V11.971a1 1 0 0 0-1-1Z" clip-rule="evenodd"/></svg>