<svg xmlns="http://www.w3.org/2000/svg" width="33" height="32" fill="none" viewBox="0 0 33 32"><path fill="#111827" fill-rule="evenodd" d="M1.5 0a1 1 0 0 0-1 1v30a1 1 0 0 0 1 1H31.5a1 1 0 0 0 1-1V1a1 1 0 0 0-1-1H1.501Zm1 20.41V2H30.5v18.41h-5.854a1 1 0 0 0-.707.294l-4.123 4.122h-6.827l-4.123-4.122a1 1 0 0 0-.707-.293H2.501Zm0 2V30H30.5v-7.59h-5.44l-4.123 4.124a1 1 0 0 1-.707.293h-7.655a1 1 0 0 1-.707-.293L7.744 22.41H2.501ZM17.502 6.456a1 1 0 1 0-2 0v11.221l-4.604-4.603a1 1 0 0 0-1.414 1.414l6.31 6.31a.997.997 0 0 0 1.42-.004l6.306-6.306a1 1 0 0 0-1.414-1.414L17.5 17.676V6.456Z" clip-rule="evenodd"/></svg>