<svg xmlns="http://www.w3.org/2000/svg" width="32" height="32" fill="none" viewBox="0 0 32 32"><path fill="#111827" fill-rule="evenodd" d="M19.462.001a1 1 0 0 1 1 1v1.5H28.5a1 1 0 0 1 1 1v8.038H31a1 1 0 0 1 0 2h-1.5v4.923H31a1 1 0 0 1 0 2h-1.5V28.5a1 1 0 0 1-1 1h-8.038V31a1 1 0 1 1-2 0v-1.5h-4.923V31a1 1 0 1 1-2 0v-1.5H3.5a1 1 0 0 1-1-1v-8.038H1.001a1 1 0 1 1 0-2H2.5v-4.923H1.001a1 1 0 1 1 0-2H2.5V3.5a1 1 0 0 1 1-1h8.039V1.001a1 1 0 0 1 2 0v1.5h4.923V1a1 1 0 0 1 1-1ZM4.5 4.501v23h23v-23h-23Zm3.199 14.662a.75.75 0 1 1-1.398-.545l2.315-5.941a.75.75 0 0 1 1.39-.02l2.511 5.941a.75.75 0 0 1-1.382.584l-.541-1.28H8.19l-.491 1.26ZM8.775 16.4H9.96l-.617-1.459-.568 1.46Zm4.57-3.43c0-.427.345-.772.771-.772h2.6a2.507 2.507 0 0 1 .468 4.97l1.734 1.278a.75.75 0 1 1-.89 1.208l-3.184-2.346v1.742a.75.75 0 1 1-1.5 0v-6.08Zm1.5 2.742h1.87a1.007 1.007 0 1 0 0-2.014h-1.87v2.014Zm5.719-3.493a.75.75 0 0 1 .843.384l1.436 2.772 1.497-2.782a.75.75 0 0 1 1.41.355v6.1a.75.75 0 0 1-1.5 0v-3.122l-.758 1.41a.75.75 0 0 1-1.327-.01l-.674-1.3v3.021a.75.75 0 0 1-1.5 0v-6.1a.75.75 0 0 1 .573-.728Z" clip-rule="evenodd"/></svg>