<svg xmlns="http://www.w3.org/2000/svg" width="33" height="33" fill="none" viewBox="0 0 33 33"><path fill="#111827" fill-rule="evenodd" d="M10.071 6.25a3.286 3.286 0 0 0-3.286 3.286v2.31a5.284 5.284 0 0 1 4.286 5.19v1.143H21.93v-1.143a5.285 5.285 0 0 1 4.285-5.19v-2.31A3.286 3.286 0 0 0 22.93 6.25zm18.143 5.595v-2.31A5.286 5.286 0 0 0 22.93 4.25H10.07a5.286 5.286 0 0 0-5.286 5.286v2.31l-.03.006a5.285 5.285 0 0 0 .03 10.374v4.453a2.07 2.07 0 0 0 2.072 2.071h19.286a2.07 2.07 0 0 0 2.071-2.071v-4.453a5.285 5.285 0 0 0 0-10.38m-1.013 1.905h.027a3.3 3.3 0 0 1 2.31.962 3.285 3.285 0 0 1-2.324 5.61 1 1 0 0 0-1 1v5.357a.07.07 0 0 1-.071.071h-2.214v-9.714A3.286 3.286 0 0 1 27.2 13.75m-21.43 0a3.286 3.286 0 0 0 .015 6.572 1 1 0 0 1 1 1v5.357a.07.07 0 0 0 .071.071h2.214v-9.714A3.286 3.286 0 0 0 5.8 13.75h-.027m5.3 6.429v6.571H21.93V20.18z" clip-rule="evenodd"/></svg>