<svg xmlns="http://www.w3.org/2000/svg" width="33" height="32" fill="none" viewBox="0 0 33 32"><path fill="#111827" fill-rule="evenodd" d="M15.5 6.414v5.945a1 1 0 0 0 2 0V6.415l2.725 2.725a1 1 0 1 0 1.415-1.414L17.214 3.3a1 1 0 0 0-.273-.197 1 1 0 0 0-1.148.19L11.36 7.726a1 1 0 0 0 1.414 1.414zM5.052 16a1 1 0 0 1 1-1h20.896a1 1 0 1 1 0 2H6.052a1 1 0 0 1-1-1m6.308 6.86a1 1 0 0 1 1.414 0l2.726 2.725v-5.944a1 1 0 0 1 2 0v5.944l2.725-2.725a1 1 0 0 1 1.415 1.414l-4.422 4.421a.997.997 0 0 1-1.434.003l-4.424-4.424a1 1 0 0 1 0-1.414" clip-rule="evenodd"/></svg>