<svg xmlns="http://www.w3.org/2000/svg" width="33" height="32" fill="none" viewBox="0 0 33 32"><path fill="#111827" fill-rule="evenodd" d="M11.904 4.99a1 1 0 1 0-1.415 1.414l5.304 5.303a1 1 0 0 0 1.414 0l5.304-5.303a1 1 0 1 0-1.415-1.415L16.5 9.586zm-1.415 20.606a1 1 0 0 0 1.415 1.415l4.596-4.597 4.596 4.597a1 1 0 0 0 1.415-1.415l-5.304-5.303a1 1 0 0 0-1.414 0zM27.511 9.43a1 1 0 0 1 0 1.414l-4.596 4.597 4.596 4.596a1 1 0 1 1-1.414 1.414l-5.304-5.303a1 1 0 0 1 0-1.415l5.304-5.303a1 1 0 0 1 1.414 0m-20.568.04a1.073 1.073 0 0 0-1.454-.043.93.93 0 0 0-.04 1.372l4.597 4.597-4.856 4.322a.93.93 0 0 0-.04 1.372c.391.39 1.042.41 1.455.042l5.602-4.987a.93.93 0 0 0 .04-1.372z" clip-rule="evenodd"/><path fill="#111827" fill-rule="evenodd" d="M17.5 1a1 1 0 1 0-2 0v10a1 1 0 0 0 2 0zm0 20a1 1 0 1 0-2 0v10a1 1 0 0 0 2 0zm3-5.56a1 1 0 0 1 1-1h10a1 1 0 1 1 0 2h-10a1 1 0 0 1-1-1m-19-1.002a1 1 0 1 0 0 2h10a1 1 0 1 0 0-2z" clip-rule="evenodd"/></svg>