<svg xmlns="http://www.w3.org/2000/svg" width="33" height="32" fill="none" viewBox="0 0 33 32"><path fill="#111827" fill-rule="evenodd" d="M32.207 1.707A1 1 0 0 0 30.793.293L22.5 8.586V3.5a1 1 0 0 0-2 0v7.518a.995.995 0 0 0 .617.906.997.997 0 0 0 .383.076H29a1 1 0 1 0 0-2h-5.086l8.293-8.293ZM.793 30.293a1 1 0 1 0 1.414 1.414l8.293-8.293V28.5a1 1 0 0 0 2 0V21a.997.997 0 0 0-1.016-1H4a1 1 0 1 0 0 2h5.086L.793 30.293Zm30 1.414a1 1 0 0 0 1.414-1.414L23.914 22H29a1 1 0 1 0 0-2h-7.487a1.014 1.014 0 0 0-.339.054.994.994 0 0 0-.569.5.996.996 0 0 0-.105.446v7.5a1 1 0 1 0 2 0v-5.086l8.293 8.293ZM11.5 2.5a1 1 0 0 1 1 1v7.486A.997.997 0 0 1 11.479 12h-7.48a1 1 0 1 1 0-2h5.087L.793 1.707A1 1 0 0 1 2.207.293L10.5 8.586V3.5a1 1 0 0 1 1-1Z" clip-rule="evenodd"/></svg>