<svg xmlns="http://www.w3.org/2000/svg" width="33" height="32" fill="none" viewBox="0 0 33 32"><path fill="#111827" fill-rule="evenodd" d="M10.951 2.024a.972.972 0 0 1 0 1.397L6.968 7.31H28.49a1 1 0 0 1 0 2H6.965L10.95 13.2a.972.972 0 0 1 0 1.398 1.03 1.03 0 0 1-1.431 0l-5.724-5.59a.971.971 0 0 1-.036-1.36c.03-.033.06-.064.094-.093L9.52 2.024a1.03 1.03 0 0 1 1.431 0ZM4.511 22.68a1 1 0 1 0 0 2h21.533l-3.995 3.9a.971.971 0 0 0 0 1.397 1.03 1.03 0 0 0 1.431 0l5.724-5.589a.97.97 0 0 0 .145-1.219 1.004 1.004 0 0 0-.256-.286l-5.613-5.48a1.03 1.03 0 0 0-1.431 0 .971.971 0 0 0 0 1.397l3.974 3.88H4.511Z" clip-rule="evenodd"/></svg>