<svg xmlns="http://www.w3.org/2000/svg" width="33" height="32" fill="none" viewBox="0 0 33 32"><path fill="#111827" fill-rule="evenodd" d="M21.628 9.992a12.55 12.55 0 0 0-7.384-.741 12.7 12.7 0 0 0-6.537 3.564L5.5 15.065v-3.55a1 1 0 1 0-2 0v6a.996.996 0 0 0 1 1h6a1 1 0 1 0 0-2H6.88l2.255-2.3a10.7 10.7 0 0 1 5.507-3.004 10.55 10.55 0 0 1 6.208.624 10.8 10.8 0 0 1 4.831 4.046A11.17 11.17 0 0 1 27.5 22a1 1 0 1 0 2 0c0-2.567-.746-5.077-2.146-7.215a12.8 12.8 0 0 0-5.726-4.793" clip-rule="evenodd"/></svg>