<svg xmlns="http://www.w3.org/2000/svg" width="33" height="32" fill="none" viewBox="0 0 33 32"><path fill="#111827" fill-rule="evenodd" d="M1.5 0a1 1 0 0 0-1 1v8a1 1 0 1 0 2 0V2h7a1 1 0 0 0 0-2zm22 0a1 1 0 1 0 0 2h7v7a1 1 0 1 0 2 0V1a1 1 0 0 0-1-1zm-22 22a1 1 0 0 1 1 1v7h7a1 1 0 0 1 0 2h-8a1 1 0 0 1-1-1v-8a1 1 0 0 1 1-1m31 1a1 1 0 1 0-2 0v7h-7a1 1 0 1 0 0 2h8a1 1 0 0 0 1-1z" clip-rule="evenodd"/><path fill="#111827" fill-rule="evenodd" d="M10.756 11.67a1 1 0 0 0 1.414-1.414L2.207.293A1 1 0 1 0 .792 1.707zm10.074-1.414a1 1 0 0 0 1.414 1.414l9.964-9.963A1 1 0 1 0 30.793.293zM12.17 20.33a1 1 0 0 1 0 1.414l-9.963 9.963a1 1 0 0 1-1.415-1.414l9.964-9.963a1 1 0 0 1 1.414 0m10.074 0a1 1 0 0 0-1.414 1.414l9.963 9.963a1 1 0 0 0 1.415-1.414z" clip-rule="evenodd"/></svg>