<svg xmlns="http://www.w3.org/2000/svg" width="33" height="32" fill="none" viewBox="0 0 33 32"><path fill="#111827" fill-rule="evenodd" d="M17.5 4a1 1 0 1 0-2 0v6.314L12.58 7.392a1 1 0 1 0-1.414 1.414l4.628 4.629a1 1 0 0 0 1.429-.015l4.613-4.614a1 1 0 0 0-1.414-1.414l-2.92 2.92zM4.591 16a1 1 0 0 1 1-1H27.41a1 1 0 1 1 0 2H5.59a1 1 0 0 1-1-1m10.91 5.686V28a1 1 0 1 0 2 0v-6.313l2.92 2.92a1 1 0 0 0 1.414-1.413l-4.611-4.612a.997.997 0 0 0-1.431-.017l-4.628 4.629a1 1 0 0 0 1.414 1.414z" clip-rule="evenodd"/></svg>