<svg xmlns="http://www.w3.org/2000/svg" width="33" height="32" fill="none" viewBox="0 0 33 32"><path fill="#111827" fill-rule="evenodd" d="M17.884 10.402a1.014 1.014 0 0 1 0-1.423l5.623-5.69a.986.986 0 0 1 1.44.035l5.59 5.655c.387.393.387 1.03 0 1.423a.986.986 0 0 1-1.407 0l-3.919-3.967V28a1 1 0 1 1-2 0V6.434l-3.921 3.968a.986.986 0 0 1-1.406 0ZM9.777 4a1 1 0 1 0-2 0v21.552l-3.908-3.954a.986.986 0 0 0-1.405 0 1.014 1.014 0 0 0 0 1.423L7.976 28.6c.116.154.275.273.46.34a.986.986 0 0 0 1.056-.229l5.623-5.69a1.014 1.014 0 0 0 0-1.423.986.986 0 0 0-1.405 0l-3.933 3.98V4Z" clip-rule="evenodd"/></svg>