<svg xmlns="http://www.w3.org/2000/svg" width="33" height="32" fill="none" viewBox="0 0 33 32"><path fill="#111827" fill-rule="evenodd" d="M21.022 4.478a1 1 0 1 0-2 0v8a1 1 0 0 0 1 1h8a1 1 0 1 0 0-2h-7zM4.979 18.522a1 1 0 1 0 0 2h7v7a1 1 0 0 0 2 0v-8a1 1 0 0 0-1-1z" clip-rule="evenodd"/><path fill="#111827" fill-rule="evenodd" d="M29.207 4.707a1 1 0 0 0-1.415-1.414l-8.478 8.478a1 1 0 0 0 1.415 1.414zM3.793 27.293a1 1 0 0 0 1.415 1.414l8.478-8.478a1 1 0 0 0-1.415-1.414z" clip-rule="evenodd"/></svg>