<svg xmlns="http://www.w3.org/2000/svg" width="33" height="32" fill="none" viewBox="0 0 33 32"><path fill="#111827" fill-rule="evenodd" d="M17.5 1a1 1 0 1 0-2 0v7.586l-3.596-3.597a1 1 0 1 0-1.414 1.415l5.303 5.303A.996.996 0 0 0 16.5 12c.285 0 .541-.119.723-.309l5.288-5.287a1 1 0 0 0-1.415-1.415L17.5 8.585V1Zm-7.01 24.596a1 1 0 1 0 1.414 1.415l3.596-3.597V31a1 1 0 1 0 2 0v-7.585l3.596 3.596a1 1 0 1 0 1.415-1.415l-5.29-5.29a.998.998 0 0 0-1.428-.013l-5.303 5.303Zm13.425-11.155 3.596-3.597a1 1 0 0 0-1.414-1.414l-5.303 5.303-.014.014a1 1 0 0 0 .022 1.41l5.295 5.294a1 1 0 0 0 1.414-1.414l-3.596-3.596H31.5a1 1 0 1 0 0-2h-7.586ZM5.489 9.427a1.073 1.073 0 0 1 1.454.043l5.22 5.219c.03.027.059.056.086.086a.932.932 0 0 1-.041 1.37.996.996 0 0 1-.09.078l-5.513 4.909a1.073 1.073 0 0 1-1.454-.042.932.932 0 0 1 .04-1.372l3.684-3.28H1.5a1 1 0 1 1 0-2h7.588l-3.639-3.639a.932.932 0 0 1 .04-1.372Z" clip-rule="evenodd"/></svg>