<svg xmlns="http://www.w3.org/2000/svg" width="33" height="32" fill="none"><path fill="#111827" fill-rule="evenodd" d="M10.756 11.67a1 1 0 1 0 1.414-1.414L3.914 2h5.141a1 1 0 1 0 0-2H1.511A.997.997 0 0 0 .5 1.025v7.53a1 1 0 0 0 2 0v-5.14l8.256 8.255ZM22.945 1a1 1 0 0 1 1-1H31.5a.996.996 0 0 1 .708.293.997.997 0 0 1 .292.743v7.519a1 1 0 0 1-2 0v-5.14l-8.256 8.255a1 1 0 0 1-1.414-1.414L29.086 2h-5.141a1 1 0 0 1-1-1ZM1.5 22.445a1 1 0 0 1 1 1v5.141l8.256-8.256a1 1 0 0 1 1.414 1.414L3.914 30h5.14a1 1 0 1 1 0 2H1.5a1 1 0 0 1-1-1v-7.555a1 1 0 0 1 1-1Zm30 0a1 1 0 0 1 1 1v7.52a.998.998 0 0 1-1 1.035h-7.555a1 1 0 0 1 0-2h5.141l-8.256-8.256a1 1 0 0 1 1.414-1.415l8.256 8.256v-5.14a1 1 0 0 1 1-1Z" clip-rule="evenodd"/></svg>