<svg xmlns="http://www.w3.org/2000/svg" width="33" height="32" fill="none" viewBox="0 0 33 32"><path fill="#111827" fill-rule="evenodd" d="M21.5 2a1 1 0 0 1 1 1v7h7a1 1 0 0 1 0 2h-8a1 1 0 0 1-1-1V3a1 1 0 0 1 1-1m0 18a1 1 0 0 0-1 1v8a1 1 0 1 0 2 0v-7h7a1 1 0 1 0 0-2zm-18 0a1 1 0 1 0 0 2h7v7a1 1 0 1 0 2 0v-8a1 1 0 0 0-1-1zm9-17a1 1 0 1 0-2 0v7h-7a1 1 0 1 0 0 2h8a1 1 0 0 0 1-1z" clip-rule="evenodd"/><path fill="#111827" fill-rule="evenodd" d="M32.207.293a1 1 0 0 1 0 1.414l-10 10a1 1 0 0 1-1.414-1.414l10-10a1 1 0 0 1 1.414 0m-20 21.414a1 1 0 0 0-1.414-1.414l-10 10a1 1 0 1 0 1.414 1.414zm10-1.414a1 1 0 0 0-1.414 1.414l10 10a1 1 0 0 0 1.414-1.414zm-20-20A1 1 0 1 0 .793 1.707l10 10a1 1 0 0 0 1.414-1.414z" clip-rule="evenodd"/></svg>