<svg xmlns="http://www.w3.org/2000/svg" width="33" height="32" fill="none" viewBox="0 0 33 32"><path fill="#111827" fill-rule="evenodd" d="M12.15 11.835a10.55 10.55 0 0 1 6.208-.624c2.084.422 4 1.467 5.507 3.004l2.255 2.3H22.5a1 1 0 1 0 0 2h6a.996.996 0 0 0 1-1v-6a1 1 0 1 0-2 0v3.55l-2.207-2.25a12.7 12.7 0 0 0-6.537-3.564 12.55 12.55 0 0 0-7.384.741 12.8 12.8 0 0 0-5.726 4.793A13.17 13.17 0 0 0 3.5 22a1 1 0 1 0 2 0c0-2.18.634-4.31 1.819-6.119a10.8 10.8 0 0 1 4.831-4.046" clip-rule="evenodd"/></svg>