<svg xmlns="http://www.w3.org/2000/svg" width="33" height="32" fill="none" viewBox="0 0 33 32"><path fill="#111827" fill-rule="evenodd" d="M10.538 5.597a1 1 0 1 0 1.415 1.414l4.596-4.596 4.596 4.595a1 1 0 0 0 1.415-1.415L17.255.294a1 1 0 0 0-1.414 0zm1.414 19.394a1 1 0 0 0-1.414 1.414l5.305 5.301a1 1 0 0 0 1.414 0l5.303-5.303a1 1 0 1 0-1.415-1.414l-4.596 4.596zm-4.44-14.952a1 1 0 0 1 0 1.414L2.914 16.05l4.596 4.596a1 1 0 0 1-1.414 1.414L.794 16.756a1 1 0 0 1 0-1.414l5.303-5.303a1 1 0 0 1 1.414 0m19.39-.002a1 1 0 1 0-1.413 1.415l4.596 4.596-4.595 4.597a1 1 0 0 0 1.415 1.414l5.301-5.304a1 1 0 0 0 0-1.415z" clip-rule="evenodd"/><path fill="#111827" fill-rule="evenodd" d="M17.548 1a1 1 0 1 0-2 0v10a1 1 0 0 0 2 0zm0 20a1 1 0 1 0-2 0v10a1 1 0 0 0 2 0zM.501 16.048a1 1 0 0 1 1-1h10a1 1 0 1 1 0 2h-10a1 1 0 0 1-1-1M21.5 15.045a1 1 0 1 0 0 2h9.999a1 1 0 1 0 0-2z" clip-rule="evenodd"/></svg>