<svg xmlns="http://www.w3.org/2000/svg" width="33" height="32" fill="none" viewBox="0 0 33 32"><path fill="#111827" fill-rule="evenodd" d="M2.5 16c0-7.732 6.268-14 14-14s14 6.268 14 14-6.268 14-14 14-14-6.268-14-14Zm14-16C7.663 0 .5 7.163.5 16s7.163 16 16 16 16-7.163 16-16-7.163-16-16-16Zm-6.01 15.76a1 1 0 0 1 0-1.414l5.303-5.303a.995.995 0 0 1 .707-.293.996.996 0 0 1 .715.3l5.295 5.296a1 1 0 0 1-1.414 1.414L17.5 12.164V22.25a1 1 0 0 1-2 0V12.164l-3.597 3.596a1 1 0 0 1-1.414 0Z" clip-rule="evenodd"/></svg>