<svg xmlns="http://www.w3.org/2000/svg" width="33" height="32" fill="none" viewBox="0 0 33 32"><g stroke="#111827" stroke-width="2" clip-path="url(#a)" clip-rule="evenodd"><path d="M21.002 1.755c.249.305.375.717.629 1.541l5.537 18.005a23.2 23.2 0 0 0-6.62-2.219L16.943 7.023a.47.47 0 0 0-.45-.333.47.47 0 0 0-.45.334l-3.561 12.052a23.2 23.2 0 0 0-6.65 2.222l5.564-18.006c.255-.823.382-1.234.63-1.539.22-.269.505-.478.83-.607.366-.146.8-.146 1.67-.146H18.5c.87 0 1.305 0 1.673.146.324.13.61.339.83.609ZM21.665 22.04c-.913.772-2.735 1.3-4.833 1.3-2.576 0-4.735-.794-5.308-1.862-.204.612-.25 1.312-.25 1.76 0 0-.135 2.196 1.408 3.723 0-.793.65-1.436 1.45-1.436 1.374 0 1.373 1.186 1.372 2.148v.086A3.51 3.51 0 0 0 17.687 31a2.9 2.9 0 0 1-.3-1.29c0-1.393.827-1.912 1.787-2.515.764-.48 1.613-1.012 2.198-2.081a3.9 3.9 0 0 0 .479-1.876c0-.417-.066-.82-.187-1.197Z"/></g><defs><clipPath id="a"><path fill="#fff" d="M.5 0h32v32H.5z"/></clipPath></defs></svg>