<svg xmlns="http://www.w3.org/2000/svg" width="33" height="33" fill="none" viewBox="0 0 33 33"><path fill="#111827" fill-rule="evenodd" d="M3.739 9.937c.686 1.525 1.643 3.182 2.84 4.893a52 52 0 0 1 3.896-4.355A52 52 0 0 1 14.83 6.58c-1.71-1.197-3.368-2.154-4.893-2.84-1.685-.759-3.16-1.164-4.339-1.228s-1.947.214-2.41.677c-.463.462-.741 1.23-.677 2.41s.47 2.654 1.228 4.339m-1.824.82c.814 1.81 1.963 3.758 3.397 5.743-1.434 1.986-2.583 3.934-3.397 5.743-.817 1.814-1.319 3.539-1.4 5.05-.083 1.512.253 2.928 1.259 3.933 1.006 1.006 2.422 1.342 3.933 1.26s3.236-.584 5.05-1.4c1.81-.815 3.758-1.964 5.743-3.398 1.986 1.434 3.934 2.583 5.743 3.397 1.814.816 3.539 1.319 5.05 1.4 1.511.083 2.928-.253 3.933-1.259 1.006-1.006 1.342-2.422 1.26-3.933s-.584-3.236-1.4-5.05c-.815-1.81-1.964-3.758-3.398-5.743 1.434-1.985 2.583-3.934 3.397-5.742.817-1.815 1.319-3.54 1.4-5.051.083-1.511-.253-2.927-1.259-3.933S28.804.432 27.293.514s-3.236.585-5.05 1.401c-1.81.814-3.757 1.963-5.743 3.397-1.985-1.434-3.934-2.583-5.742-3.397-1.815-.817-3.54-1.319-5.051-1.4C4.196.431 2.78.767 1.774 1.773S.432 4.196.514 5.707s.584 3.236 1.4 5.05m8.022 18.504c1.525-.686 3.182-1.643 4.893-2.84a52 52 0 0 1-4.355-3.896A52 52 0 0 1 6.58 18.17c-1.197 1.71-2.154 3.368-2.84 4.893-.758 1.685-1.164 3.16-1.228 4.34s.214 1.947.677 2.41c.463.462 1.23.74 2.41.676s2.654-.47 4.339-1.228m1.953-8.15a49 49 0 0 0 4.61 4.078 49 49 0 0 0 4.61-4.078 49 49 0 0 0 4.08-4.611 49 49 0 0 0-4.08-4.61 49 49 0 0 0-4.61-4.08 49 49 0 0 0-4.61 4.08 49 49 0 0 0-4.08 4.61 49 49 0 0 0 4.08 4.61m11.173 8.15c-1.525-.686-3.182-1.643-4.893-2.84a52 52 0 0 0 4.355-3.896 52 52 0 0 0 3.896-4.355c1.197 1.71 2.154 3.368 2.84 4.893.759 1.685 1.164 3.16 1.228 4.339s-.214 1.947-.677 2.41-1.23.741-2.41.677-2.654-.47-4.339-1.228m6.198-19.324c-.686 1.525-1.643 3.182-2.84 4.893a52 52 0 0 0-3.896-4.355A52 52 0 0 0 18.17 6.58c1.71-1.196 3.368-2.154 4.893-2.84 1.685-.758 3.16-1.164 4.339-1.228s1.947.214 2.41.677.741 1.23.677 2.41-.47 2.654-1.228 4.339M18.548 16.5a2.051 2.051 0 1 1-4.102 0 2.051 2.051 0 0 1 4.102 0" clip-rule="evenodd"/></svg>