<svg xmlns="http://www.w3.org/2000/svg" width="32" height="33" fill="none"><path stroke="#1C1B1F" stroke-linecap="round" stroke-linejoin="round" stroke-width="2" d="M24.7 25.2c1.823-1.823-.595-7.195-5.4-12-4.805-4.805-10.177-7.223-12-5.4-1.823 1.822.595 7.195 5.4 12 4.805 4.805 10.177 7.222 12 5.4Z"/><path stroke="#1C1B1F" stroke-linecap="round" stroke-linejoin="round" stroke-width="2" d="M19.3 19.8c4.805-4.805 7.223-10.178 5.4-12-1.823-1.823-7.195.595-12 5.4-4.805 4.805-7.223 10.177-5.4 12 1.823 1.822 7.195-.595 12-5.4Z"/><path fill="#1C1B1F" d="M15.998 17.773a1.273 1.273 0 1 0 0-2.546 1.273 1.273 0 0 0 0 2.546Z"/></svg>