<svg xmlns="http://www.w3.org/2000/svg" width="33" height="32" fill="none" viewBox="0 0 33 32"><path fill="#111827" fill-rule="evenodd" d="M5.25 3.75a1 1 0 0 0-1 1v6a1 1 0 1 0 2 0v-5h5a1 1 0 1 0 0-2h-6Zm16.5 0a1 1 0 1 0 0 2h5v5a1 1 0 1 0 2 0v-6a1 1 0 0 0-1-1h-6Zm-16.5 16.5a1 1 0 0 1 1 1v5h5a1 1 0 1 1 0 2h-6a1 1 0 0 1-1-1v-6a1 1 0 0 1 1-1Zm23.5 1a1 1 0 1 0-2 0v5h-5a1 1 0 1 0 0 2h6a1 1 0 0 0 1-1v-6Z" clip-rule="evenodd"/><path fill="#111827" fill-rule="evenodd" d="M16.5 17.414 5.957 27.957a1 1 0 0 1-1.414-1.414L15.085 16 4.543 5.457a1 1 0 1 1 1.414-1.414L16.5 14.586 27.043 4.043a1 1 0 1 1 1.414 1.414L17.915 16l10.542 10.543a1 1 0 0 1-1.414 1.414L16.5 17.414Z" clip-rule="evenodd"/></svg>