<svg xmlns="http://www.w3.org/2000/svg" width="33" height="33" fill="none" viewBox="0 0 33 33"><path fill="#111827" fill-rule="evenodd" d="M10.548 3.958a4.39 4.39 0 0 0-3.725 6.715 1 1 0 0 1-.613 1.502 4.857 4.857 0 0 0-.115 9.41q.065 0 .13.01l.59.083a1.087 1.087 0 0 0 1.229-.922 1 1 0 1 1 1.98.28 3.09 3.09 0 0 1-2.502 2.603 3.79 3.79 0 1 0 7.416 1.176V21.85a2.74 2.74 0 0 0-2.74-2.714 1 1 0 1 1 0-2 4.74 4.74 0 0 1 2.74.872v-9.66a4.39 4.39 0 0 0-4.39-4.39m6.39 20.93V8.315a6.39 6.39 0 1 0-12.362 2.313 6.855 6.855 0 0 0 .918 12.867q-.136.608-.137 1.256a5.79 5.79 0 0 0 11.575.248q.006-.053.006-.11m2.164-17.885a1 1 0 1 0 0 2h3.939a1.444 1.444 0 1 0 0-2zm5.514 2.703a1 1 0 0 0-.863.496l-1.514 2.591h-3.137a1 1 0 1 0 0 2h3.711a1 1 0 0 0 .864-.496l1.513-2.59h2.971a1.444 1.444 0 1 0 .001-2zm-6.514 8.315a1 1 0 0 1 1-1h3.939a1.444 1.444 0 1 1 0 2h-3.939a1 1 0 0 1-1-1m10.049 3.193 1.46-1.436v-.006a1.444 1.444 0 1 1 1.392 1.443l-1.742 1.712a1 1 0 0 1-.7.287h-9.459a1 1 0 1 1 0-2zm-10.049 4.261a1 1 0 0 1 1-1h5.943a1.444 1.444 0 1 1 0 2h-5.943a1 1 0 0 1-1-1m-5.434-15.32a1 1 0 1 0-2 0v1.064a2.726 2.726 0 0 1-2.726 2.727 1 1 0 0 0 0 2 4.726 4.726 0 0 0 4.726-4.727z" clip-rule="evenodd"/></svg>