<svg xmlns="http://www.w3.org/2000/svg" width="33" height="33" fill="none" viewBox="0 0 33 33"><path fill="#111827" fill-rule="evenodd" d="M10.547 3.958a4.39 4.39 0 0 0-3.724 6.715 1 1 0 0 1-.613 1.502 4.857 4.857 0 0 0-.115 9.41c.043 0 .087.003.13.01l.59.083a1.087 1.087 0 0 0 1.229-.922 1 1 0 1 1 1.98.28 3.086 3.086 0 0 1-2.502 2.603 3.79 3.79 0 1 0 7.416 1.176V21.85a2.74 2.74 0 0 0-2.74-2.714 1 1 0 1 1 0-2 4.74 4.74 0 0 1 2.74.872v-9.66a4.39 4.39 0 0 0-4.39-4.39Zm6.39 20.93V8.348a6.39 6.39 0 1 0-12.361 2.28 6.855 6.855 0 0 0 .918 12.867 5.79 5.79 0 1 0 11.438 1.505c.004-.037.006-.073.006-.11Zm2.165-17.885a1 1 0 1 0 0 2h3.939a1.444 1.444 0 1 0 0-2h-3.939Zm5.514 2.703a1 1 0 0 0-.863.496l-1.514 2.591h-3.137a1 1 0 1 0 0 2h3.711a1 1 0 0 0 .864-.496l1.513-2.59h2.971a1.444 1.444 0 1 0 .001-2h-3.546Zm-6.514 8.315a1 1 0 0 1 1-1h3.939a1.444 1.444 0 1 1 0 2h-3.939a1 1 0 0 1-1-1Zm10.049 3.193 1.46-1.436v-.006a1.444 1.444 0 1 1 1.392 1.443l-1.742 1.712a1 1 0 0 1-.7.287h-9.459a1 1 0 1 1 0-2h9.049Zm-10.049 4.261a1 1 0 0 1 1-1h5.943a1.444 1.444 0 1 1 0 2h-5.943a1 1 0 0 1-1-1Zm-5.434-15.32a1 1 0 1 0-2 0v1.064a2.726 2.726 0 0 1-2.726 2.727 1 1 0 0 0 0 2 4.726 4.726 0 0 0 4.726-4.727v-1.064Z" clip-rule="evenodd"/></svg>