<svg xmlns="http://www.w3.org/2000/svg" width="33" height="32" fill="none" viewBox="0 0 33 32"><path fill="#111827" fill-rule="evenodd" d="M12.906 2.647v4.256l2.167-.477v-4.83zM15.073.485 11.906 2.02v6.126l1-.22 3.167-.695V0zM4.676 5.272v21.139l-1.808-.954V6.227zm23.649 0v21.139l1.807-.954V6.227zm-16.42 19.503v-1.021l1 .21 3.168.667v7.231l-1-.443-3.167-1.402zm1 4.591v-4.38l2.168.457v4.883zM11.154 9.038v-2.36L6.629 5.485l-1-.263-.002 1.033-.045 19.221-.002 1.035 1-.264 4.523-1.192v-2.16l5.623-1.003 5.272 1.054v2.109l4.423 1.187 1 .269V5.222l-1 .278-4.423 1.228v2.36l-5.523 1.054zm11.845-1.55v2.427l-.812.155-5.523 1.055-.196.037-.195-.04-5.322-1.105-.797-.165V7.448l-3.526-.93-.044 18.694 3.52-.928v-2.226l.824-.147 5.623-1.004.187-.033.185.037 5.272 1.054.804.161v2.162l3.423.919V6.537zm-5.92 12.295 1-.145 3.167-.458v-6.678l-3.168-.381-1-.12v7.781m3.167-1.469-2.168.314v-5.5l2.168.261zM16.073 12l-1 .12-3.167.382v6.678l3.167.458 1 .145V12m-3.167 1.389 2.167-.261v5.5l-2.167-.314zm7.34-10.742V7.04l-2.168-.477V1.596zM18.077.485l3.167 1.535v6.264l-1-.22-3.167-.695V0zm3.167 24.29v-1.021l-1 .21-3.167.667V32l1-.476 3.167-1.507zm-1 4.61v-4.399l-2.167.457v4.974zM16.487 8.1l-2.625.617 2.6.67 2.676-.618zm-2.625 15.165 2.625-.617 2.65.669-2.676.617z" clip-rule="evenodd"/></svg>