<svg xmlns="http://www.w3.org/2000/svg" width="33" height="32" fill="none" viewBox="0 0 33 32"><path fill="#111827" fill-rule="evenodd" d="M18.802 4.441a1 1 0 0 0-1.566-1.167l-8.847 7.67a1 1 0 0 0-.218.27L.624 24.76a1 1 0 0 0 .874 1.487h6.805a1 1 0 0 0 .912-.588L18.802 4.44ZM3.2 24.248 9.832 12.34l5.272-4.57-7.446 16.478H3.2Zm17.526-18.89a1 1 0 0 0-1.804.073l-4.549 10.64a1 1 0 0 0 .137 1.015l6.186 7.772-12.378 2.127a1 1 0 0 0 .17 1.986h23.014a1 1 0 0 0 .885-1.466L20.726 5.358Zm-4.28 10.95 3.489-8.16 9.91 18.823h-9.632l2.487-.428a1 1 0 0 0 .613-1.608l-6.866-8.627Z" clip-rule="evenodd"/></svg>