<svg xmlns="http://www.w3.org/2000/svg" width="33" height="33" fill="none" viewBox="0 0 33 33"><path fill="#111827" fill-rule="evenodd" d="M13.591 2.803C7.256 4.143 2.501 9.766 2.501 16.5c0 7.731 6.267 13.999 13.999 13.999 7.731 0 13.999-6.268 13.999-14 0-7.73-6.268-13.998-14-13.998q-.278 0-.553.01c-.8 1.63-1.318 2.863-1.726 4.15-.336 1.062.506 2.231 1.806 2.231 1.09 0 1.974-.884 1.974-1.973v-.336a1 1 0 0 1 2 0v.336a3.974 3.974 0 0 1-3.974 3.973c-2.463 0-4.513-2.309-3.712-4.835.339-1.069.742-2.09 1.277-3.254M.501 16.5C.5 7.664 7.664.5 16.5.5s15.999 7.164 15.999 16-7.163 15.999-16 15.999c-8.835 0-15.998-7.163-15.998-16m10.374 1.875a1.875 1.875 0 1 0 0-3.75 1.875 1.875 0 0 0 0 3.75M24 16.5a1.875 1.875 0 1 1-3.75 0 1.875 1.875 0 0 1 3.75 0m-2.52 5.698a1 1 0 0 1-.281 1.386 8.5 8.5 0 0 1-9.398 0 1 1 0 0 1 1.105-1.667 6.5 6.5 0 0 0 7.188 0 1 1 0 0 1 1.386.28" clip-rule="evenodd"/></svg>