<svg xmlns="http://www.w3.org/2000/svg" width="32" height="32" fill="none" viewBox="0 0 32 32"><path fill="#111827" fill-rule="evenodd" d="M9.962 2.392h-1v2.866a1 1 0 1 0 2 0v-.866h11.92a1 1 0 1 0 0-2zm17.501 2.752a2.206 2.206 0 0 1 2.103 3.497c-.476.605-1.366.89-2.494.89H24.27a1.244 1.244 0 0 1-.698-2.273l.019-.013-.001.08a1 1 0 0 0 2 0 2.205 2.205 0 0 1 1.873-2.18m3.697 4.704-.8-.6.79.614c-1.047 1.346-2.732 1.668-4.078 1.668h-2.803a3.246 3.246 0 0 1-2.764-4.938 3.25 3.25 0 0 1 2.758-1.55 4.207 4.207 0 1 1 6.897 4.806m-3.09 2.627a1 1 0 0 1 1 1v10.913h-6.159a1 1 0 0 1 0-2h4.159v-8.913a1 1 0 0 1 1-1m-26.071.666c0-.886.672-1.908 2.247-2.767 1.537-.839 3.729-1.388 6.205-1.388s4.667.55 6.204 1.388c1.572.857 2.245 1.877 2.248 2.762v.014c-.005.884-.678 1.903-2.248 2.759-1.537.838-3.729 1.388-6.204 1.388-2.476 0-4.668-.55-6.205-1.388C2.671 15.05 2 14.028 2 13.141m16.904 3.67c-.394.318-.83.603-1.29.854-1.884 1.027-4.418 1.632-7.162 1.632-2.745 0-5.279-.605-7.163-1.632a8.7 8.7 0 0 1-1.29-.853v1.485c0 .886.673 1.909 2.248 2.768 1.537.838 3.729 1.388 6.205 1.388s4.667-.55 6.204-1.388c1.575-.86 2.248-1.882 2.248-2.768zm-18.904-3.67v10.312c0 1.96 1.443 3.516 3.29 4.523 1.883 1.028 4.417 1.632 7.162 1.632s5.278-.604 7.162-1.632c1.846-1.007 3.29-2.562 3.29-4.523V13.14c0-1.96-1.444-3.516-3.29-4.523-1.884-1.028-4.418-1.632-7.162-1.632-2.745 0-5.279.604-7.163 1.632-1.843 1.006-3.285 2.558-3.29 4.516zm2 10.312v-1.486c.394.317.83.602 1.29.854 1.883 1.027 4.417 1.632 7.162 1.632s5.278-.605 7.162-1.633c.46-.25.896-.536 1.29-.853v1.486c0 .886-.673 1.908-2.248 2.767-1.537.839-3.729 1.388-6.204 1.388-2.476 0-4.668-.55-6.205-1.388-1.575-.859-2.247-1.881-2.247-2.767" clip-rule="evenodd"/></svg>