<svg xmlns="http://www.w3.org/2000/svg" width="33" height="32" fill="none" viewBox="0 0 33 32"><path fill="#111827" fill-rule="evenodd" d="M8.643 3.407a1 1 0 0 0-.85.474L.651 15.419a1 1 0 0 0-.003 1.049l7.143 11.648a1 1 0 0 0 .852.477H31.5a1 1 0 0 0 1-1V4.407a1 1 0 0 0-1-1zm-5.968 12.54L9.2 5.408h21.3v21.186H9.202zm20.28-4.246a1 1 0 0 1 0 1.414l-2.766 2.765 2.765 2.765a1 1 0 0 1-1.414 1.414l-2.765-2.765-2.765 2.765a1 1 0 0 1-1.414-1.414l2.765-2.765-2.765-2.765A1 1 0 1 1 16.01 11.7l2.765 2.765L21.54 11.7a1 1 0 0 1 1.414 0" clip-rule="evenodd"/></svg>