<svg xmlns="http://www.w3.org/2000/svg" width="33" height="33" fill="none" viewBox="0 0 33 33"><path fill="#111827" fill-rule="evenodd" d="M11.215 4.572a3 3 0 0 1 3-3h4.57a3 3 0 0 1 3 3v1.286h.429a6 6 0 0 1 6 6v7.412h1.285a3 3 0 0 1 3 3v4.57a3 3 0 0 1-3 3h-1.285v.088a1.5 1.5 0 0 1-1.5 1.5H6.286a1.5 1.5 0 0 1-1.5-1.5v-.088H3.501a3 3 0 0 1-3-3v-4.57a3 3 0 0 1 3-3h1.285v-7.412a6 6 0 0 1 6-6h.429zm-4.429 7.643v3.52c0 1.104.412 2.016 1.138 2.458.616.376 1.316.705 2.077.983v-.96a1 1 0 1 1 2 0v1.544c1.351.306 2.815.475 4.305.491 1.681.018 3.356-.159 4.902-.533v-1.502a1 1 0 1 1 2 0v.877c.636-.25 1.234-.54 1.784-.872.777-.468 1.222-1.431 1.222-2.574v-3.789a4 4 0 0 0-4-4H10.786a4 4 0 0 0-4 4zm19.428 7.598a4 4 0 0 1-.19.122c-.863.52-1.812.947-2.816 1.286v1.102a1 1 0 1 1-2 0v-.553c-1.599.345-3.276.499-4.923.48A23 23 0 0 1 12 21.806v.518a1 1 0 1 1-2 0V21.29c-1.138-.362-2.194-.825-3.118-1.388l-.097-.06v9.587h19.428v-9.615m2 1.457v6.57h1.285a1 1 0 0 0 1-1v-4.57a1 1 0 0 0-1-1zm-23.428 0H3.501a1 1 0 0 0-1 1v4.57a1 1 0 0 0 1 1h1.285zm15-16.698v1.286h-6.571V4.572a1 1 0 0 1 1-1h4.57a1 1 0 0 1 1 1" clip-rule="evenodd"/></svg>