<svg xmlns="http://www.w3.org/2000/svg" width="33" height="33" fill="none" viewBox="0 0 33 33"><path fill="#111827" fill-rule="evenodd" d="M16.5 2.5A10.542 10.542 0 0 0 5.958 13.043c0 2.94 1.2 6.19 3.167 8.7 1.97 2.514 4.593 4.15 7.375 4.15s5.405-1.636 7.375-4.15c1.967-2.51 3.167-5.76 3.167-8.7A10.542 10.542 0 0 0 16.5 2.501ZM7.632 4.175a12.542 12.542 0 0 1 21.41 8.868c0 3.437-1.383 7.113-3.593 9.934-1.636 2.088-3.79 3.783-6.26 4.52l1.206 2.933a1.5 1.5 0 0 1-1.387 2.07h-5.091a1.5 1.5 0 0 1-1.375-2.1l1.267-2.904c-2.47-.737-4.622-2.431-6.258-4.52-2.21-2.82-3.593-6.496-3.593-9.933 0-3.326 1.322-6.516 3.674-8.868Zm8.196 23.694-1.148 2.63h3.582l-1.082-2.63a9.239 9.239 0 0 1-1.352 0Zm.84-21.814a1 1 0 0 1 1.15-.822 7.896 7.896 0 0 1 6.492 6.492 1 1 0 1 1-1.973.328 5.896 5.896 0 0 0-4.847-4.847 1 1 0 0 1-.822-1.151Z" clip-rule="evenodd"/></svg>