<svg xmlns="http://www.w3.org/2000/svg" width="33" height="32" fill="none"><path fill="#111827" fill-rule="evenodd" d="M2.434 11.265a6.598 6.598 0 1 1 9.33-9.331L16.5 6.669l4.735-4.735a6.598 6.598 0 0 1 9.331 9.33L25.831 16l4.735 4.735a6.598 6.598 0 1 1-9.33 9.331L16.5 25.331l-4.735 4.735a6.598 6.598 0 0 1-9.33-9.33L7.168 16l-4.735-4.735Zm6.15 6.15L3.848 22.15a4.598 4.598 0 1 0 6.502 6.502l4.736-4.736-6.502-6.502Zm7.916 5.087L9.998 16 16.5 9.498 23.002 16 16.5 22.502Zm1.414 1.414 4.736 4.736a4.598 4.598 0 1 0 6.502-6.502l-4.736-4.736-6.502 6.502Zm6.502-9.33 4.736-4.736a4.598 4.598 0 0 0-6.502-6.502l-4.736 4.736 6.502 6.502Zm-9.33-6.502-6.502 6.502L3.848 9.85a4.598 4.598 0 1 1 6.502-6.502l4.736 4.736ZM18.599 16a2.1 2.1 0 1 1-4.198 0 2.1 2.1 0 0 1 4.198 0Z" clip-rule="evenodd"/></svg>