<svg xmlns="http://www.w3.org/2000/svg" width="33" height="32" fill="none" viewBox="0 0 33 32"><path fill="#111827" fill-rule="evenodd" d="M6.5 7a1 1 0 0 1 1-1h5a1 1 0 0 1 1 1v8h6V7a1 1 0 0 1 1-1h5a1 1 0 0 1 1 1v2h3a1 1 0 0 1 1 1v5h.999a1 1 0 1 1 0 2h-1v5a1 1 0 0 1-1 1h-3v2a1 1 0 0 1-1 1h-5a1 1 0 0 1-1-1v-8H13.5v8a1 1 0 0 1-1 1h-5a1 1 0 0 1-1-1v-2h-3a1 1 0 0 1-1-1v-5h-1a1 1 0 1 1 0-2h1v-5a1 1 0 0 1 1-1h3V7Zm2 3v14h3V8h-3v2Zm-2 1h-2v10h2V11Zm22 10h-2V11h2v10Zm-4-13v16h-3V8h3Z" clip-rule="evenodd"/></svg>