<svg xmlns="http://www.w3.org/2000/svg" width="33" height="33" fill="none" viewBox="0 0 33 33"><path fill="#111827" fill-rule="evenodd" d="M.5 4a1 1 0 0 1 1-1H9a1 1 0 1 1 0 2H2.5v6.5a1 1 0 1 1-2 0V4Zm9.5 6.25a1 1 0 1 0-2 0v12.5a1 1 0 1 0 2 0v-12.5Zm15 0a1 1 0 0 0-2 0v12.5a1 1 0 1 0 2 0v-12.5Zm-6-1a1 1 0 0 1 1 1v12.5a1 1 0 1 1-2 0v-12.5a1 1 0 0 1 1-1Zm-4 1a1 1 0 1 0-2 0v12.5a1 1 0 1 0 2 0v-12.5ZM24 3a1 1 0 1 0 0 2h6.499v6.5a1 1 0 1 0 2 0V4a1 1 0 0 0-1-1h-7.5Zm7.499 17.5a1 1 0 0 1 1 1V29a1 1 0 0 1-1 1h-7.5a1 1 0 1 1 0-2h6.5v-6.5a1 1 0 0 1 1-1ZM2.5 21.5a1 1 0 1 0-2 0V29a1 1 0 0 0 1 1H9a1 1 0 1 0 0-2H2.5v-6.5Z" clip-rule="evenodd"/></svg>