<svg xmlns="http://www.w3.org/2000/svg" width="33" height="32" fill="none" viewBox="0 0 33 32"><path fill="#111827" fill-rule="evenodd" d="M9.74 7.77H2.5v.316l10.376 10.375h7.556L9.74 7.77ZM23.26 18.46H30.499v-.316L20.124 7.77h-7.556L23.26 18.46ZM10.154 5.77H1.501a1 1 0 0 0-1 1V19.46a1 1 0 0 0 1 1H6.27v4.77a1 1 0 1 0 2 0v-4.77h16.46v4.77a1 1 0 1 0 2 0v-4.77H31.5a1 1 0 0 0 1-1V6.77a1 1 0 0 0-1-1H10.154Zm12.798 2 7.547 7.546V7.77h-7.547ZM10.047 18.46l-7.546-7.546v7.546H10.047Z" clip-rule="evenodd"/></svg>