<svg xmlns="http://www.w3.org/2000/svg" width="33" height="33" fill="none" viewBox="0 0 33 33"><path fill="#111827" fill-rule="evenodd" d="M5.875 7.384A13.94 13.94 0 0 0 2.501 16.5c0 3.482 1.27 6.666 3.374 9.116q.556-.648 1.026-1.354a1 1 0 1 1 1.665 1.109 16 16 0 0 1-1.279 1.67 13.95 13.95 0 0 0 9.213 3.458c3.528 0 6.75-1.305 9.212-3.458a16 16 0 0 1-1.278-1.67 1 1 0 0 1 1.664-1.109q.471.706 1.026 1.354A13.94 13.94 0 0 0 30.5 16.5c0-3.482-1.271-6.667-3.375-9.116q-.555.648-1.025 1.353a1 1 0 1 1-1.665-1.109q.581-.873 1.278-1.669A13.95 13.95 0 0 0 16.5 2.501c-3.528 0-6.751 1.305-9.213 3.458q.697.796 1.278 1.67a1 1 0 0 1-1.664 1.108q-.47-.705-1.026-1.353m-.714-2.171A15.95 15.95 0 0 0 .5 16.5c0 8.836 7.163 15.999 15.999 15.999s15.999-7.163 15.999-16c0-4.405-1.78-8.394-4.662-11.288l-.007-.007-.002-.002A15.95 15.95 0 0 0 16.5.5 15.95 15.95 0 0 0 5.174 5.2l-.004.004zm18.07 7.386a1 1 0 0 1 .786 1.176 14 14 0 0 0 0 5.45 1 1 0 1 1-1.962.39 16 16 0 0 1 0-6.23 1 1 0 0 1 1.176-.786M8.982 13.775a1 1 0 0 1 1.962-.39 16 16 0 0 1 0 6.23 1 1 0 1 1-1.962-.39 14 14 0 0 0 0-5.45" clip-rule="evenodd"/></svg>