<svg xmlns="http://www.w3.org/2000/svg" width="33" height="32" fill="none" viewBox="0 0 33 32"><path fill="#111827" fill-rule="evenodd" d="M5.875 6.884A13.944 13.944 0 0 0 2.501 16c0 3.482 1.27 6.666 3.374 9.116.37-.432.713-.884 1.026-1.354a1 1 0 1 1 1.665 1.109 16 16 0 0 1-1.279 1.67 13.945 13.945 0 0 0 9.213 3.458c3.528 0 6.75-1.305 9.212-3.458a16.01 16.01 0 0 1-1.278-1.67 1 1 0 0 1 1.664-1.109c.314.47.656.922 1.026 1.354A13.944 13.944 0 0 0 30.5 16c0-3.482-1.271-6.667-3.375-9.116-.37.431-.712.884-1.025 1.353a1 1 0 1 1-1.665-1.109c.387-.581.814-1.139 1.278-1.669A13.946 13.946 0 0 0 16.5 2.001c-3.528 0-6.751 1.305-9.213 3.458.464.53.891 1.088 1.278 1.67a1 1 0 0 1-1.664 1.108c-.313-.47-.655-.921-1.026-1.353Zm-.714-2.171A15.949 15.949 0 0 0 .5 16c0 8.836 7.163 15.999 15.999 15.999s15.999-7.163 15.999-16c0-4.405-1.78-8.394-4.662-11.288l-.007-.007-.002-.002A15.95 15.95 0 0 0 16.5 0 15.95 15.95 0 0 0 5.174 4.7l-.004.004a1.292 1.292 0 0 0-.01.009Zm18.07 7.386a1 1 0 0 1 .786 1.176 13.99 13.99 0 0 0 0 5.45 1 1 0 1 1-1.962.39 15.997 15.997 0 0 1 0-6.23 1 1 0 0 1 1.176-.786ZM8.982 13.275a1 1 0 0 1 1.962-.39 15.998 15.998 0 0 1 0 6.23 1 1 0 1 1-1.962-.39 13.995 13.995 0 0 0 0-5.45Z" clip-rule="evenodd"/></svg>