<svg xmlns="http://www.w3.org/2000/svg" width="33" height="33" fill="none" viewBox="0 0 33 33"><path fill="#111827" fill-rule="evenodd" d="M15.5 2.536a13.94 13.94 0 0 0-8.212 3.422A15.952 15.952 0 0 1 11.22 15.5h4.28V2.536ZM16.5.5A15.95 15.95 0 0 0 5.179 5.195l-.01.01-.014.013A15.949 15.949 0 0 0 .501 16.5c0 8.836 7.163 15.999 15.999 15.999s15.999-7.163 15.999-16c0-4.405-1.78-8.394-4.662-11.288l-.007-.007-.002-.002A15.95 15.95 0 0 0 16.5.5Zm1 2.035V15.5h4.28a15.999 15.999 0 0 1 3.932-9.54A13.941 13.941 0 0 0 17.5 2.535Zm-2 14.964h-4.28a15.95 15.95 0 0 1-3.932 9.541 13.94 13.94 0 0 0 8.212 3.423V17.5Zm2 12.964V17.5h4.28a16 16 0 0 0 3.932 9.54 13.94 13.94 0 0 1-8.212 3.424ZM8.193 11.152A13.952 13.952 0 0 1 9.216 15.5h-6.68a13.939 13.939 0 0 1 3.34-8.117 13.952 13.952 0 0 1 2.317 3.77ZM9.216 17.5h-6.68a13.939 13.939 0 0 0 3.34 8.117 13.953 13.953 0 0 0 3.34-8.117ZM27.124 7.384a13.94 13.94 0 0 1 3.34 8.116h-6.679a14 14 0 0 1 3.34-8.116Zm3.34 10.116h-6.679a14 14 0 0 0 3.34 8.116 13.939 13.939 0 0 0 3.339-8.116Z" clip-rule="evenodd"/></svg>