<svg width="32" height="32" fill="none" xmlns="http://www.w3.org/2000/svg"><path d="M10 23.286v2.571M22 23.286v2.571" stroke="#1C1B1F" stroke-width="2" stroke-linecap="round" stroke-linejoin="round"/><path d="M4 14.357a.5.5 0 0 1 .5-.5h23a.5.5 0 0 1 .5.5v3.929a5 5 0 0 1-5 5H9a5 5 0 0 1-5-5v-3.929Z" stroke="#1C1B1F" stroke-width="2"/><rect x="16.857" y="13.857" width="6.857" height="4.286" rx=".5" stroke="#1C1B1F" stroke-width="2"/><path d="M8.286 13.857V8.143a2 2 0 0 1 2-2h.285a2 2 0 0 1 2 2v.143" stroke="#1C1B1F" stroke-width="2" stroke-linecap="round"/></svg>