<svg xmlns="http://www.w3.org/2000/svg" width="33" height="33" fill="none" viewBox="0 0 33 33"><path fill="#111827" fill-rule="evenodd" d="M8.857 3.18a3 3 0 0 0-3 3v6.642H2.001a1.5 1.5 0 0 0-1.5 1.5v6.285a6 6 0 0 0 6 6H8v2.214a1 1 0 1 0 2 0v-2.214h12.998v2.214a1 1 0 0 0 2 0v-2.214h1.5a6 6 0 0 0 6-6v-6.285a1.5 1.5 0 0 0-1.5-1.5H7.857V6.179a1 1 0 0 1 1-1h1.357a1 1 0 0 1 1 1v.679a1 1 0 1 0 2 0v-.679a3 3 0 0 0-3-3zM2.501 14.821h14.07v3.856a1.5 1.5 0 0 0 1.5 1.5h7.571a1.5 1.5 0 0 0 1.5-1.5v-3.856H30.5v5.785a4 4 0 0 1-4 4H6.5a4 4 0 0 1-4-4zm22.641 0h-6.57v3.356h6.57z" clip-rule="evenodd"/></svg>