<svg xmlns="http://www.w3.org/2000/svg" width="33" height="32" fill="none" viewBox="0 0 33 32"><path fill="#111827" fill-rule="evenodd" d="M11.137 1a1 1 0 0 1 1-1h8.726a1 1 0 1 1 0 2h-8.726a1 1 0 0 1-1-1Zm5.734 10.9a1 1 0 0 1 .555 1.3l-1.671 4.152h2.899a1 1 0 0 1 .933 1.36l-2.156 5.592a1 1 0 0 1-1.866-.72l1.632-4.232h-2.923a1 1 0 0 1-.927-1.373l2.223-5.525a1 1 0 0 1 1.301-.555ZM5.682 31a1 1 0 0 0 1 1h19.636a1 1 0 0 0 1-1V5.91a1 1 0 0 0-1-1H6.682a1 1 0 0 0-1 1V31Zm19.636-1H7.682V6.91h17.636V30Z" clip-rule="evenodd"/></svg>