<svg xmlns="http://www.w3.org/2000/svg" width="33" height="32" fill="none" viewBox="0 0 33 32"><path fill="#111827" fill-rule="evenodd" d="M1.5 5.182a1 1 0 0 0-1 1v19.636a1 1 0 0 0 1 1h25.09a1 1 0 0 0 1-1V6.182a1 1 0 0 0-1-1zm1 19.636V7.182h23.09v17.636zm5-15.068a1 1 0 1 0-2 0v12.5a1 1 0 1 0 2 0zm4-1a1 1 0 0 1 1 1v12.5a1 1 0 1 1-2 0V9.75a1 1 0 0 1 1-1m5 0a1 1 0 0 1 1 1v12.5a1 1 0 1 1-2 0V9.75a1 1 0 0 1 1-1m15 1.887a1 1 0 0 1 1 1v8.726a1 1 0 1 1-2 0v-8.726a1 1 0 0 1 1-1" clip-rule="evenodd"/></svg>