<svg xmlns="http://www.w3.org/2000/svg" width="33" height="32" fill="none" viewBox="0 0 33 32"><path fill="#111827" fill-rule="evenodd" d="M1.5 5.182a1 1 0 0 0-1 1v19.636a1 1 0 0 0 1 1h25.09a1 1 0 0 0 1-1V6.182a1 1 0 0 0-1-1zm1 19.636V7.182h23.09v17.636zm12.021-15.34a1 1 0 0 1 .554 1.3l-1.67 4.153h2.899a1 1 0 0 1 .933 1.36l-2.156 5.592a1 1 0 0 1-1.866-.72l1.632-4.233h-2.923a1 1 0 0 1-.927-1.373l2.223-5.525a1 1 0 0 1 1.301-.554M31.5 10.637a1 1 0 0 1 1 1v8.726a1 1 0 1 1-2 0v-8.726a1 1 0 0 1 1-1" clip-rule="evenodd"/></svg>