<svg xmlns="http://www.w3.org/2000/svg" width="33" height="33" fill="none" viewBox="0 0 33 33"><path fill="#111827" fill-rule="evenodd" d="M27.81.794a1 1 0 1 0-1.414 1.414l.307.307-7.051 5.1-5.412 1.254a1 1 0 0 0-.482.267L.944 21.951a1 1 0 0 0-.015 1.399l8.469 8.84a1 1 0 0 0 1.429.016l13-13a1 1 0 0 0 .27-.49l1.217-5.445 5.098-7.047.23.23a1 1 0 1 0 1.414-1.414L27.81.794Zm1.17 3.998-.845-.845-7.475 5.406a1 1 0 0 1-.36.164l-5.33 1.236-1.338 1.338 7.24 7.24 1.336-1.335 1.2-5.362c.03-.133.085-.258.165-.368l5.406-7.474Zm-9.522 15.954-7.24-7.24L6.2 19.521l7.241 7.24 6.016-6.016Zm-7.43 7.43-7.24-7.24-1.738 1.737 7.085 7.396 1.893-1.893Z" clip-rule="evenodd"/></svg>