<svg xmlns="http://www.w3.org/2000/svg" width="33" height="32" fill="none" viewBox="0 0 33 32"><path fill="#111827" fill-rule="evenodd" d="M.501 6.819c0-.586.475-1.06 1.06-1.06H9.3a5.317 5.317 0 0 1 3.817 9.018 5.922 5.922 0 0 1-2.103 11.454h-9.44C.98 26.231.5 25.751.5 25.159v-9.695c0-.022 0-.044.002-.066a1.072 1.072 0 0 1-.002-.066V6.819Zm2 .94v6.633h6.798a3.317 3.317 0 1 0 0-6.633H2.501Zm18.627.309a1 1 0 1 0 0 2h9.236a1 1 0 1 0 0-2h-9.236Zm9.89 12.4h-9.94a4.774 4.774 0 0 0 7.96 2.457 1 1 0 1 1 1.378 1.448 6.773 6.773 0 1 1 2.077-5.49c.079.916-.67 1.586-1.474 1.586Zm-9.94-2a4.774 4.774 0 0 1 9.336 0h-9.336ZM2.501 24.232v-7.839h8.512a3.92 3.92 0 1 1 0 7.839H2.501Z" clip-rule="evenodd"/></svg>