<svg xmlns="http://www.w3.org/2000/svg" width="33" height="32" fill="none" viewBox="0 0 33 32"><path fill="#111827" fill-rule="evenodd" d="M2.02 25.302a1.003 1.003 0 0 1 .07-1.04v-.001l.006-.009.025-.035.098-.143a37.687 37.687 0 0 0 1.49-2.4c.866-1.52 1.724-3.304 1.962-4.67.164-.94.202-1.956.14-3.011-.193-3.298.74-6.753 2.566-9.406C10.211 1.923 13.004 0 16.5 0c3.496 0 6.289 1.923 8.123 4.587 1.826 2.653 2.76 6.108 2.566 9.406-.062 1.055-.024 2.07.14 3.012.238 1.365 1.096 3.15 1.961 4.67a37.681 37.681 0 0 0 1.59 2.542l.024.035.006.009v.001a1.003 1.003 0 0 1-.82 1.58h-7.588v.229a5.893 5.893 0 0 1-1.763 4.198A6.04 6.04 0 0 1 16.5 32a6.04 6.04 0 0 1-4.239-1.731 5.893 5.893 0 0 1-1.763-4.198v-.229H2.91c-.375 0-.718-.208-.89-.54Zm10.484.54v.229c0 1.036.417 2.032 1.165 2.769a4.034 4.034 0 0 0 2.831 1.154 4.034 4.034 0 0 0 2.831-1.154 3.887 3.887 0 0 0 1.165-2.77v-.228h-7.992Zm15.737-2.005a38.66 38.66 0 0 1-.694-1.17c-.873-1.535-1.89-3.581-2.194-5.317-.196-1.127-.235-2.302-.166-3.475.168-2.87-.653-5.88-2.216-8.151-1.556-2.26-3.788-3.718-6.471-3.718-2.683 0-4.915 1.458-6.47 3.718-1.564 2.27-2.385 5.28-2.217 8.151.069 1.173.03 2.348-.166 3.475-.303 1.736-1.32 3.782-2.194 5.317-.242.424-.478.82-.694 1.17H28.24Z" clip-rule="evenodd"/></svg>