<svg xmlns="http://www.w3.org/2000/svg" width="33" height="32" fill="none"><path fill="#111827" fill-rule="evenodd" d="M2.102 24.257a1 1 0 0 0 .818 1.575h27.16a1 1 0 0 0 .818-1.575l-.002-.002-.005-.008-.025-.035-.098-.143a37.684 37.684 0 0 1-1.49-2.397c-.864-1.52-1.721-3.303-1.96-4.668-.164-.94-.201-1.955-.14-3.01.194-3.295-.739-6.747-2.564-9.397C22.782 1.935 19.992.015 16.5.015c-3.492 0-6.282 1.92-8.114 4.582-1.825 2.65-2.757 6.102-2.564 9.397.061 1.055.024 2.07-.14 3.01-.239 1.364-1.096 3.148-1.96 4.668a37.7 37.7 0 0 1-1.588 2.54l-.025.035-.005.008-.002.002Zm25.438-1.596c.242.425.479.82.695 1.171H4.765c.216-.35.453-.746.695-1.171.873-1.534 1.889-3.579 2.192-5.313.196-1.125.235-2.3.166-3.47-.168-2.87.653-5.878 2.215-8.147 1.555-2.258 3.785-3.716 6.467-3.716 2.682 0 4.913 1.458 6.467 3.716C24.53 8 25.35 11.008 25.182 13.877c-.069 1.172-.03 2.346.166 3.472.303 1.733 1.32 3.778 2.192 5.312Zm-16.035 7.324a1 1 0 1 0 0 2h9.99a1 1 0 1 0 0-2h-9.99Z" clip-rule="evenodd"/></svg>