<svg xmlns="http://www.w3.org/2000/svg" width="33" height="32" fill="none" viewBox="0 0 33 32"><path fill="#111827" d="M25.348.155a1.005 1.005 0 1 0-1.073 1.7 14.658 14.658 0 0 1 5.32 5.91 1.006 1.006 0 0 0 1.803-.89 16.668 16.668 0 0 0-6.05-6.72Z"/><path fill="#111827" fill-rule="evenodd" d="M10.697 26.09h-7.24a1.005 1.005 0 0 1-.823-1.584l.001-.002.005-.008.024-.033.094-.137a36.166 36.166 0 0 0 1.43-2.3c.83-1.459 1.649-3.166 1.876-4.468.157-.9.193-1.871.134-2.881-.186-3.175.712-6.5 2.47-9.055 1.767-2.565 4.46-4.42 7.832-4.42 3.373 0 6.065 1.855 7.831 4.42 1.759 2.555 2.657 5.88 2.47 9.055-.058 1.01-.022 1.981.135 2.88.227 1.303 1.047 3.01 1.877 4.47a36.133 36.133 0 0 0 1.523 2.436l.023.034.007.009a1.006 1.006 0 0 1-.822 1.584h-7.24v.176a5.699 5.699 0 0 1-1.706 4.06A5.84 5.84 0 0 1 16.5 32a5.84 5.84 0 0 1-4.098-1.674 5.699 5.699 0 0 1-1.705-4.06v-.176Zm2.01 0v.176c0 .983.396 1.928 1.106 2.628a3.83 3.83 0 0 0 2.687 1.095c1.01 0 1.977-.396 2.687-1.096a3.688 3.688 0 0 0 1.105-2.627v-.176h-7.585Zm14.985-2.011c-.197-.32-.41-.677-.627-1.058-.838-1.474-1.818-3.444-2.11-5.117-.19-1.086-.227-2.217-.16-3.345.16-2.746-.626-5.626-2.12-7.797-1.487-2.16-3.617-3.55-6.175-3.55s-4.688 1.39-6.175 3.55c-1.494 2.171-2.28 5.05-2.12 7.797.067 1.128.03 2.26-.16 3.345-.292 1.674-1.272 3.643-2.11 5.117-.217.381-.43.738-.627 1.058h22.384Z" clip-rule="evenodd"/><path fill="#111827" d="M9.039.469c.296.47.156 1.09-.314 1.387a14.658 14.658 0 0 0-5.32 5.91 1.006 1.006 0 0 1-1.803-.89 16.669 16.669 0 0 1 6.05-6.72 1.006 1.006 0 0 1 1.387.313Z"/></svg>