<svg xmlns="http://www.w3.org/2000/svg" width="33" height="32" fill="none" viewBox="0 0 33 32"><path fill="#111827" d="M16.5.015c-2.752 0-5.08 1.196-6.839 3.016a1 1 0 1 0 1.438 1.39c1.443-1.493 3.274-2.406 5.401-2.406 2.682 0 4.913 1.458 6.467 3.716C24.53 8 25.35 11.008 25.182 13.877c-.069 1.172-.03 2.346.166 3.472.107.61.301 1.257.547 1.908.453 1.2 1.08 2.41 1.645 3.404a40 40 0 0 0 1.681 2.688l.03.042.007.012.003.004.722-.507-.722.507a1 1 0 0 0 1.637-1.15l-.002-.002-.005-.008-.025-.035-.098-.143a37.684 37.684 0 0 1-1.49-2.397c-.864-1.52-1.721-3.303-1.96-4.667-.164-.941-.201-1.956-.14-3.01.194-3.296-.739-6.748-2.564-9.398C22.783 1.935 19.993.015 16.5.015"/><path fill="#111827" fill-rule="evenodd" d="m7.033 7.073-3.76-4.137a1 1 0 0 1 1.48-1.345l24.975 27.473a1 1 0 0 1-1.48 1.345l-4.16-4.577h-1.593v.231a5.89 5.89 0 0 1-1.761 4.193 6.03 6.03 0 0 1-4.234 1.73 6.03 6.03 0 0 1-4.234-1.73 5.89 5.89 0 0 1-1.761-4.193v-.23H2.92a1 1 0 0 1-.818-1.576l.001-.002.006-.008.025-.035.098-.143a37.7 37.7 0 0 0 1.49-2.397c.864-1.52 1.721-3.303 1.96-4.667.164-.941.201-1.956.14-3.01a15.6 15.6 0 0 1 1.21-6.922m1.505 1.656a13.6 13.6 0 0 0-.72 5.148c.069 1.172.03 2.346-.166 3.472-.303 1.733-1.32 3.778-2.192 5.312-.242.425-.479.82-.695 1.171h17.504zm11.957 17.103h-7.99v.231c0 1.036.417 2.032 1.165 2.768a4.03 4.03 0 0 0 2.83 1.154 4.03 4.03 0 0 0 2.83-1.154 3.89 3.89 0 0 0 1.165-2.768z" clip-rule="evenodd"/></svg>