<svg xmlns="http://www.w3.org/2000/svg" width="33" height="32" fill="none" viewBox="0 0 33 32"><path fill="#111827" fill-rule="evenodd" d="M16.5.015c-2.752 0-5.081 1.197-6.84 3.017a1 1 0 1 0 1.439 1.39c1.443-1.494 3.273-2.407 5.4-2.407 2.683 0 4.914 1.458 6.469 3.716 1.562 2.27 2.383 5.278 2.215 8.148-.069 1.171-.03 2.345.166 3.471.107.61.302 1.258.547 1.91.453 1.2 1.08 2.409 1.645 3.403a40 40 0 0 0 1.681 2.689l.03.042.008.011.002.003v.002l.697-.489-.696.49A1 1 0 0 0 30.9 24.26l-.001-.002-.006-.008-.025-.036-.097-.143a37.56 37.56 0 0 1-1.49-2.398c-.865-1.519-1.722-3.303-1.96-4.667-.165-.94-.202-1.956-.14-3.01.192-3.296-.74-6.748-2.565-9.399C22.783 1.936 19.993.015 16.5.015M7.032 7.073 3.27 2.936a1 1 0 1 1 1.48-1.345l24.978 27.476a1 1 0 1 1-1.48 1.345l-4.161-4.577H2.918a1 1 0 0 1-.817-1.575l.001-.002.006-.008.024-.036.098-.143a37.668 37.668 0 0 0 1.49-2.398c.865-1.519 1.722-3.303 1.96-4.667.165-.94.202-1.956.14-3.01a15.6 15.6 0 0 1 1.212-6.923M8.537 8.73a13.6 13.6 0 0 0-.72 5.15c.069 1.171.03 2.345-.166 3.471-.303 1.734-1.32 3.779-2.193 5.313-.242.425-.478.821-.695 1.172H22.27zm1.967 22.256a1 1 0 0 1 1-1h9.992a1 1 0 1 1 0 2h-9.992a1 1 0 0 1-1-1" clip-rule="evenodd"/></svg>