<svg xmlns="http://www.w3.org/2000/svg" width="33" height="32" fill="none" viewBox="0 0 33 32"><path fill="#111827" fill-rule="evenodd" d="M2.102 24.257a1 1 0 0 0 .818 1.575h27.16a1 1 0 0 0 .818-1.575l-.002-.002-.005-.008-.025-.035-.098-.143a37.684 37.684 0 0 1-1.49-2.397c-.864-1.52-1.721-3.303-1.96-4.667-.164-.941-.201-1.956-.14-3.01.194-3.296-.739-6.748-2.564-9.398C22.783 1.935 19.993.015 16.5.015s-6.282 1.92-8.114 4.582c-1.825 2.65-2.757 6.102-2.564 9.397.061 1.055.024 2.07-.14 3.01-.239 1.364-1.096 3.148-1.96 4.668a38 38 0 0 1-1.588 2.54l-.025.035-.005.008zm25.438-1.596c.242.425.479.82.695 1.171H4.765c.216-.35.453-.746.695-1.171.873-1.534 1.889-3.579 2.192-5.312.196-1.126.235-2.3.166-3.472-.168-2.869.653-5.877 2.215-8.146 1.555-2.258 3.785-3.716 6.467-3.716s4.913 1.458 6.467 3.716C24.53 8 25.35 11.008 25.182 13.877c-.069 1.172-.03 2.346.166 3.472.303 1.733 1.32 3.778 2.192 5.312m-16.035 7.324a1 1 0 1 0 0 2h9.99a1 1 0 1 0 0-2z" clip-rule="evenodd"/></svg>