<svg xmlns="http://www.w3.org/2000/svg" width="32" height="32" fill="none" viewBox="0 0 32 32"><path fill="#111827" fill-rule="evenodd" d="M1.593 24.214a1.045 1.045 0 0 0 .855 1.645H9.97v.184c0 1.585.64 3.102 1.772 4.218A6.07 6.07 0 0 0 16 32a6.07 6.07 0 0 0 4.258-1.74 5.92 5.92 0 0 0 1.772-4.217v-.184h7.522a1.045 1.045 0 0 0 .855-1.645l-.007-.01-.024-.035-.098-.143a37.473 37.473 0 0 1-1.485-2.39c-.862-1.515-1.714-3.289-1.95-4.642-.163-.934-.2-1.943-.14-2.993a15.5 15.5 0 0 0-.484-4.791 5.2 5.2 0 0 1-1.901 1.026c.264 1.195.37 2.431.3 3.643-.069 1.172-.03 2.347.167 3.475.303 1.739 1.321 3.785 2.192 5.317.226.396.447.766.651 1.099H4.372c.204-.333.425-.703.65-1.1.872-1.53 1.89-3.577 2.194-5.316.196-1.128.235-2.303.166-3.475-.167-2.854.65-5.846 2.202-8.101C11.13 3.534 13.342 2.089 16 2.089a7 7 0 0 1 2.382.414A5.25 5.25 0 0 1 19.93.887 9 9 0 0 0 16 0c-3.504 0-6.302 1.928-8.137 4.593-1.827 2.654-2.76 6.11-2.567 9.408.062 1.05.024 2.059-.139 2.993-.236 1.353-1.088 3.127-1.95 4.643a38 38 0 0 1-1.583 2.532l-.024.035-.006.008zm10.467 1.829v-.184h7.88v.184c0 1.02-.411 2.003-1.148 2.73A3.98 3.98 0 0 1 16 29.91a3.98 3.98 0 0 1-2.792-1.138 3.83 3.83 0 0 1-1.148-2.73" clip-rule="evenodd"/><path fill="#ED6561" d="M22.843 9.224a4 4 0 1 0 0-8 4 4 0 0 0 0 8"/></svg>