<svg xmlns="http://www.w3.org/2000/svg" width="33" height="32" fill="none" viewBox="0 0 33 32"><path fill="#111827" fill-rule="evenodd" d="M14.286 9.572a2.214 2.214 0 1 1 4.428 0 2.214 2.214 0 0 1-4.428 0Zm-4.65 1H1.501a1 1 0 1 1 0-2h10.904a4.216 4.216 0 0 1 8.19 0h10.904a1 1 0 1 1 0 2h-8.136a12.796 12.796 0 0 1 5.55 7.688 4.215 4.215 0 1 1-2.02.19 10.798 10.798 0 0 0-6.542-7.165 4.215 4.215 0 0 1-7.702 0 10.798 10.798 0 0 0-6.543 7.164 4.216 4.216 0 0 1-1.391 8.193 4.214 4.214 0 0 1-.628-8.382 12.798 12.798 0 0 1 5.55-7.688Zm-4.921 9.642a2.214 2.214 0 1 0 0 4.428 2.214 2.214 0 0 0 0-4.428Zm21.356 2.214a2.214 2.214 0 1 1 4.428 0 2.214 2.214 0 0 1-4.428 0Z" clip-rule="evenodd"/></svg>