<svg width="32" height="32" fill="none" xmlns="http://www.w3.org/2000/svg"><path d="M4 10.857h9.429M18.572 10.857H28M16 13.428a2.571 2.571 0 1 0 0-5.142 2.571 2.571 0 0 0 0 5.143ZM6.571 23.714a2.571 2.571 0 1 0 0-5.143 2.571 2.571 0 0 0 0 5.143ZM25.429 23.714a2.571 2.571 0 1 0 0-5.143 2.571 2.571 0 0 0 0 5.143Z" stroke="#1C1B1F" stroke-width="2" stroke-linecap="round" stroke-linejoin="round"/><path d="M18.55 11.21a9.438 9.438 0 0 1 6.729 7.361M6.721 18.571a9.44 9.44 0 0 1 6.729-7.36" stroke="#1C1B1F" stroke-width="2" stroke-linecap="round" stroke-linejoin="round"/></svg>