<svg xmlns="http://www.w3.org/2000/svg" width="33" height="32" fill="none"><path fill="#111827" fill-rule="evenodd" d="M6.482 6.518a1 1 0 0 0 0 2H9.77l1.568 2.888-2.072 2.75a6 6 0 1 0 1.596 1.205l1.525-2.024 3.66 6.742a1 1 0 0 0 1.759-.954l-3.586-6.604h7.03l1.394 2.365a6 6 0 1 0 1.724-1.013l-3.122-5.3h4.304v.912a1 1 0 0 0 2 0V7.572a1 1 0 0 0-1-1h-7.053a1 1 0 0 0-.862 1.508l1.438 2.44h-6.94l-1.889-3.48a1 1 0 0 0-.879-.522H6.482Zm1.554 9.27-2.383 3.163a1 1 0 0 0 1.598 1.203l2.38-3.16a4 4 0 1 1-1.596-1.206Zm18.463-.305c-.38 0-.746.053-1.094.151l2.006 3.405a1 1 0 0 1-1.724 1.015l-2.007-3.408a4 4 0 1 0 2.82-1.163Z" clip-rule="evenodd"/></svg>