<svg xmlns="http://www.w3.org/2000/svg" width="33" height="32" fill="none" viewBox="0 0 33 32"><g clip-path="url(#a)"><path fill="#111827" fill-rule="evenodd" d="M7.74 29.098.779 17.04a2.082 2.082 0 0 1 0-2.082L7.74 2.902a2.082 2.082 0 0 1 1.8-1.04h13.928c.74.003 1.423.4 1.793 1.04l6.96 12.057a2.082 2.082 0 0 1 0 2.082L25.26 29.098a2.082 2.082 0 0 1-1.8 1.04H9.535a2.084 2.084 0 0 1-1.796-1.04h.001Zm.97-1.45L2.517 16.927a1.851 1.851 0 0 1 0-1.852L8.71 4.352c.33-.573.94-.925 1.601-.926h12.388a1.851 1.851 0 0 1 1.594.926l6.19 10.722c.33.573.33 1.279 0 1.852L24.29 27.649c-.33.572-.94.925-1.601.926H10.306a1.853 1.853 0 0 1-1.598-.926h.001ZM21 19.477l2.134 2.139a.335.335 0 0 1 0 .473l-.56.56a.335.335 0 0 1-.474 0l-2.139-2.138a.333.333 0 0 1-.056-.075 5.815 5.815 0 1 1 1.016-1.019c.03.016.056.037.079.06Zm-7.11.019a4.375 4.375 0 1 0 4.86-7.275 4.375 4.375 0 0 0-4.86 7.275Zm-.367-2.063v-1.808l1.17-.011v3.006a3.213 3.213 0 0 1-1.17-1.187Zm2.188 1.579v-4.886h1.169v4.886a3.226 3.226 0 0 1-1.169 0Zm3.382-1.586v.003l.001-.005-.001.002Zm0-1.068v1.068c-.279.49-.682.897-1.168 1.182v-2.25h1.168Z" clip-rule="evenodd"/></g><defs><clipPath id="a"><path fill="#fff" d="M.5 0h32v32H.5z"/></clipPath></defs></svg>