<svg xmlns="http://www.w3.org/2000/svg" width="33" height="32" fill="none" viewBox="0 0 33 32"><g clip-path="url(#a)"><path fill="#111827" fill-rule="evenodd" d="m32.211 16.5.289-.5-.289-.5L24.79 2.644l-.29-.5H8.5l-.289.5L.79 15.5.5 16l.289.5L8.21 29.356l.29.5H24.5l.289-.5zM9.655 4.144h13.69L30.19 16l-6.845 11.856H9.655L2.81 16zm3.295 12.96v-1.917l1.24-.012v3.187a3.4 3.4 0 0 1-1.24-1.259m2.32 1.673v-5.18h1.238v5.18c-.41.076-.83.076-1.239 0m3.584-1.681v.003l.001-.005zm0-1.132v1.132a3.4 3.4 0 0 1-1.238 1.253v-2.385zm-3.078-5.324a4.636 4.636 0 1 0 0 9.271 4.636 4.636 0 0 0 0-9.271M9.14 15.275a6.636 6.636 0 1 1 11.981 3.932l2.445 2.445a1 1 0 0 1-1.414 1.414l-2.445-2.444A6.636 6.636 0 0 1 9.14 15.276" clip-rule="evenodd"/></g><defs><clipPath id="a"><path fill="#fff" d="M.5 0h32v32H.5z"/></clipPath></defs></svg>