<svg xmlns="http://www.w3.org/2000/svg" width="33" height="33" fill="none" viewBox="0 0 33 33"><path fill="#111827" fill-rule="evenodd" d="M8.849 6.335 4.81 15.923a6.75 6.75 0 0 1 2.459-.46c1.83 0 3.491.727 4.71 1.908l.059-11.092c-.606-.186-1.075-.273-1.515-.28-.488-.007-1 .085-1.675.336Zm-1.68-1.163-5.75 13.655a6.769 6.769 0 1 0 12.541 2.367l.047-8.923h4.99l.047 8.901a6.769 6.769 0 1 0 12.551-2.323l-5.76-13.677a1 1 0 0 0-.536-.535c-1.025-.428-1.912-.651-2.85-.637-.92.014-1.81.256-2.824.618a1 1 0 0 0-.664.947l.025 4.706h-4.969l.025-4.706a1 1 0 0 0-.663-.947c-1.015-.362-1.904-.604-2.825-.618-.938-.014-1.825.209-2.85.637a1 1 0 0 0-.536.535Zm21.024 10.753-4.038-9.59c-.677-.251-1.188-.343-1.676-.335-.44.006-.909.093-1.514.279l.059 11.088a6.747 6.747 0 0 1 4.706-1.904c.87 0 1.7.164 2.463.462Zm-7.18 5.599a1 1 0 0 0 .028-.165 4.77 4.77 0 0 1 9.458.873 4.769 4.769 0 1 1-9.485-.708Zm-9.034-.05a4.77 4.77 0 0 0-9.478.757 4.769 4.769 0 1 0 9.478-.756Z" clip-rule="evenodd"/></svg>