<svg width="32" height="32" fill="none" xmlns="http://www.w3.org/2000/svg"><path d="M13.23 11.816h5.54M8.615 25.201a4.615 4.615 0 1 0 0-9.23 4.615 4.615 0 0 0 0 9.23ZM23.385 25.201a4.615 4.615 0 1 0 0-9.23 4.615 4.615 0 0 0 0 9.23Z" stroke="#1C1B1F" stroke-width="2" stroke-linecap="round" stroke-linejoin="round"/><path d="M4.658 18.204 9.272 7.247c1.515-.633 2.388-.561 3.962 0l-.067 12.574M27.345 18.204 22.731 7.247c-1.515-.633-2.388-.561-3.962 0l.067 12.574" stroke="#1C1B1F" stroke-width="2" stroke-linecap="round" stroke-linejoin="round"/></svg>