<svg xmlns="http://www.w3.org/2000/svg" width="33" height="33" fill="none" viewBox="0 0 33 33"><path fill="#111827" fill-rule="evenodd" d="M20.564 4.698A5.964 5.964 0 0 1 27.09 9.1a1 1 0 0 0 .413.579l2.192 1.458-1.965 1.31a1 1 0 0 0-.445.832v3.214a11.856 11.856 0 0 1-11.856 11.857H3.582l11.556-14.446a1 1 0 0 0 .22-.625v-2.677a5.964 5.964 0 0 1 5.206-5.905Zm5.211-.687A7.964 7.964 0 0 0 13.357 10.6V12.929L.72 28.726a1 1 0 0 0 .78 1.625H15.43a13.856 13.856 0 0 0 13.856-13.857v-2.679l2.769-1.846a1 1 0 0 0-.001-1.664l-3.137-2.087a7.964 7.964 0 0 0-3.14-4.207Zm-3.383 7.126a1.607 1.607 0 1 0 0-3.214 1.607 1.607 0 0 0 0 3.214ZM17.14 17.87a1 1 0 0 1 .128 1.408l-5.357 6.428a1 1 0 1 1-1.536-1.28l5.357-6.428a1 1 0 0 1 1.408-.128Z" clip-rule="evenodd"/></svg>