<svg xmlns="http://www.w3.org/2000/svg" width="33" height="32" fill="none" viewBox="0 0 33 32"><path fill="#111827" fill-rule="evenodd" d="M1.5 1.467a1 1 0 0 0-.986 1.16L4.9 29.693a1 1 0 0 0 .987.84H27.19a1 1 0 0 0 .987-.843l4.308-27.066a1 1 0 0 0-.987-1.157H1.5Zm5.238 27.066L2.676 3.467h27.651l-3.99 25.066h-19.6Zm7.851-9.292-1.28-6.482h6.47l-1.152 6.482H14.59Zm6.384-8.482h-8.881a1 1 0 0 0-.981 1.194l1.675 8.481a1 1 0 0 0 .982.807h5.697a1 1 0 0 0 .985-.825l1.508-8.482a1 1 0 0 0-.985-1.175Z" clip-rule="evenodd"/></svg>