<svg xmlns="http://www.w3.org/2000/svg" width="33" height="32" fill="none" viewBox="0 0 33 32"><path fill="#111827" fill-rule="evenodd" d="M18.55 11.65a1 1 0 0 0-1.4-.2L13.75 14V3l3.4 2.55a1 1 0 1 0 1.2-1.6l-5-3.75a1 1 0 0 0-1.6.8v13l-8.4-6.3a1 1 0 1 0-1.2 1.6l8.934 6.7-8.933 6.7a1 1 0 1 0 1.2 1.6l8.4-6.3v13a1 1 0 0 0 1.6.8l9.999-7.5a1 1 0 0 0 0-1.6L14.417 16l3.933-2.95a1 1 0 0 0 .2-1.4m12.406-7.606a1 1 0 0 1 0 1.414L27.914 8.5l3.042 3.043a1 1 0 0 1-1.414 1.414L26.5 9.915l-3.042 3.042a1 1 0 1 1-1.415-1.414L25.086 8.5l-3.043-3.042a1 1 0 0 1 1.415-1.414l3.042 3.042 3.043-3.042a1 1 0 0 1 1.414 0M21.083 23.5 13.75 18v11z" clip-rule="evenodd"/></svg>