<svg xmlns="http://www.w3.org/2000/svg" width="33" height="32" fill="none" viewBox="0 0 33 32"><path fill="#111827" fill-rule="evenodd" d="M26.874 8.5a1 1 0 0 0-.4-.8L16.475.2a1 1 0 0 0-1.6.8v13l-8.4-6.3a1 1 0 1 0-1.2 1.6l8.933 6.7-8.932 6.7a1 1 0 1 0 1.2 1.6l8.4-6.3v13a1 1 0 0 0 1.6.8l9.998-7.5a1 1 0 0 0 0-1.6L17.542 16l8.932-6.7a1 1 0 0 0 .4-.8M16.875 14V3l7.333 5.5zM5.251 17.875a1.875 1.875 0 1 0 0-3.75 1.875 1.875 0 0 0 0 3.75M29.624 16a1.875 1.875 0 1 1-3.75 0 1.875 1.875 0 0 1 3.75 0m-5.416 7.5L16.875 18v11z" clip-rule="evenodd"/></svg>