<svg xmlns="http://www.w3.org/2000/svg" width="33" height="32" fill="none" viewBox="0 0 33 32"><path fill="#111827" fill-rule="evenodd" d="M26.295 8.475a1 1 0 0 0-.4-.775L15.896.201a1 1 0 0 0-1.6.8v10a1 1 0 1 0 2 0V3l7.387 5.54-4.695 3.905a1 1 0 1 0 1.279 1.538l5.668-4.715a1 1 0 0 0 .36-.794ZM4.674 6.82a1 1 0 1 0-1.198 1.602l10.147 7.583L4.697 22.7a1 1 0 0 0 1.2 1.6l8.399-6.3v13a1 1 0 0 0 1.6.8l9.414-7.062 3.016 2.255a1 1 0 1 0 1.198-1.602l-11.27-8.423-2.336-1.752a1.01 1.01 0 0 0-.11-.075L4.674 6.82Zm11.622 11.182.758.567 6.575 4.93-7.333 5.5V18.002Z" clip-rule="evenodd"/></svg>