<svg xmlns="http://www.w3.org/2000/svg" width="33" height="32" fill="none" viewBox="0 0 33 32"><path fill="#111827" fill-rule="evenodd" d="M17.547 1a1 1 0 1 0-2 0v2.468H6.146a1 1 0 0 0-1 1v8.718l-2.788.957-.014.005a1.003 1.003 0 0 0-.59.553 1.358 1.358 0 0 0-.09.313c-.029.164-.05.407-.064.79-.028.78-.027 2.288.08 5.238.12 3.378 2.047 5.585 4.74 7.178 2.618 1.547 6.106 2.607 9.665 3.687l.09.027c.279.085.578.087.86.004 3.58-1.056 7.115-2.23 9.762-3.863 2.666-1.645 4.618-3.878 4.618-7.07V15.09a1 1 0 0 0-.672-.945l-2.795-.968v-8.71a1 1 0 0 0-1-1h-9.401V1.002Zm-1.008 4.468a1.008 1.008 0 0 0 .016 0h9.393v7.017l-9.012-3.121a1 1 0 0 0-.39-.055.996.996 0 0 0-.506.138L7.146 12.5V5.467h9.393Zm-.992 16.335V11.73L3.6 15.83l-.001.045c-.025.706-.026 2.156.079 5.095.089 2.47 1.428 4.149 3.761 5.528 2.357 1.394 5.566 2.383 9.174 3.48 3.534-1.047 6.774-2.15 9.134-3.606 2.373-1.463 3.668-3.158 3.668-5.366V15.802l-11.868-4.11v10.111a1 1 0 1 1-2 0ZM3.634 15.361v-.003a.079.079 0 0 1 0 .003Z" clip-rule="evenodd"/></svg>