<svg xmlns="http://www.w3.org/2000/svg" width="33" height="32" fill="none" viewBox="0 0 33 32"><g clip-path="url(#a)"><path fill="#111827" fill-rule="evenodd" d="m16.5 0 .5.288 12.857 7.423.5.289v16l-.5.289L17 31.71l-.5.29-.5-.29L3.143 24.29l-.5-.289V8l.5-.289 5.59-3.227v-.029l.513-.286.987-.551L16 .288 16.5 0ZM4.643 9.155l4.093-2.363.011 10.1a8.159 8.159 0 1 0 5.258-7.164V3.75L16.5 2.31l11.857 6.845v13.69L16.5 29.691 4.643 22.845V9.155Zm6.578-3.798-.487.28.013 11.283v.03l-.002.032a6.159 6.159 0 1 0 2.804-4.794l-1.544 1V4.92l-.784.438Zm.864 12.005a4.808 4.808 0 1 1 9.616 0 4.808 4.808 0 0 1-9.616 0Zm4.808-2.809a2.808 2.808 0 0 0-1.842 4.929.483.483 0 0 1 .12-.186V18.11a.481.481 0 0 1 .463-.843l1.36-.786.125-.072.125.072 1.439.83a.482.482 0 0 1 .384.86v.968a2.808 2.808 0 0 0-2.174-4.586Zm.624 5.547 1.05-.606v-1.28a.481.481 0 0 1-.255-.539l-1.193-.689-1.22.705v.006a.48.48 0 0 1-.227.409v1.086a.482.482 0 0 1 .313.483l.857.494a2.894 2.894 0 0 0 .675-.069Z" clip-rule="evenodd"/></g><defs><clipPath id="a"><path fill="#fff" d="M.5 0h32v32H.5z"/></clipPath></defs></svg>