<svg xmlns="http://www.w3.org/2000/svg" width="33" height="32" fill="none" viewBox="0 0 33 32"><g clip-path="url(#a)"><path fill="#111827" fill-rule="evenodd" d="m20.923 1.5-1.227 2.124 1.227 2.124h2.453l1.226-2.124L23.375 1.5h-2.452ZM20.49 0h3.751l.217.375 1.66 2.874.216.375-.216.375-1.66 2.874-.216.375H20.917l-1.59 2.657 2.647 4.585.012.02h2.803l1.126-1.95.217-.375H29.66l.216.375 1.331 2.306.216.375-.216.375-1.33 2.305-.217.375H26.133l-.217-.375-1.102-1.91h-2.85l-2.65 4.59-.058.098 1.132 2.334h2.045l.217.375 1.042 1.804.216.375-.216.375-1.042 1.805-.217.375H19.483l-.216-.375-1.042-1.805-.216-.375.216-.375.844-1.462-1.164-2.4H12.85l-.42.93.882 1.528.217.375-.217.375-.882 1.528.726 1.478h1.697l.216.375.848 1.468.216.375-.216.375-.848 1.469-.216.375H12.29l-.217-.375-.847-1.469-.217-.375.217-.375.628-1.089-.745-1.517H9.866l-.715 1.512.632 1.094.216.375-.216.375-.848 1.469-.217.375H6.157l-.217-.375-.848-1.469-.216-.375.216-.375.848-1.468.217-.375h1.689l.715-1.512-.657-1.137h-.817l-.641 1.111-.217.375H3.667l-.216-.375-.848-1.468-.216-.375.216-.375.848-1.469.216-.375H6.23l.217.375.62 1.076h.859l.852-1.475.216-.375h2.113l.37-.818-.085-.146-2.66-4.608H7.187l-.86 1.49-.217.375H3.087l-.217-.375-1.078-1.868-.217-.375.217-.375 1.078-1.868.217-.375H6.11l.217.375.863 1.496h1.538l.002-.003 2.662-4.61.02-.037-1.414-2.595H7.264l-.216-.375L5.678 4.5l-.216-.375.217-.375L7.048 1.38l.216-.375H10.87l.216.375 1.37 2.371.216.375-.216.375-1.155 2 1.432 2.629h5.312l1.577-2.637L18.18 4l-.217-.375.217-.375L19.84.375 20.056 0h.433ZM10.029 15.24l2.662-4.61h5.323l2.662 4.61-2.662 4.61h-5.323l-2.662-4.61Zm4.018-2.261L12.74 15.24l1.306 2.262h2.611l1.306-2.262-1.306-2.261h-2.611Zm-.433-1.5H17.524l.217.375 1.738 3.011.217.375-.217.375-1.738 3.012-.217.375h-4.343l-.217-.375-1.738-3.012-.217-.375.217-.375 1.738-3.011.217-.375h.433ZM26.1 15.24 27 13.684h1.796l.897 1.556-.897 1.555h-1.796L26.1 15.24ZM7.194 4.126l.936-1.621h1.873l.936 1.621-.936 1.622H8.13l-.936-1.622Zm-3.241 9.996-.646 1.118.646 1.118h1.291l.645-1.118-.645-1.118H3.953Zm5.26 10.061.646-1.118h1.291l.646 1.118-.646 1.118H9.86l-.646-1.118Zm-4.68-.719-.414.719.415.718h.83l.414-.718-.415-.719h-.83Zm2.075 6.318.415-.718h.83l.414.718-.415.719h-.83l-.414-.719Zm6.548-.718-.415.718.415.719h.83l.414-.719-.414-.718h-.83Zm6.585-3.477.608-1.054h1.218l.609 1.054-.609 1.055H20.35l-.608-1.055Z" clip-rule="evenodd"/></g><defs><clipPath id="a"><path fill="#fff" d="M.5 0h32v32H.5z"/></clipPath></defs></svg>