<svg xmlns="http://www.w3.org/2000/svg" width="33" height="32" fill="none" viewBox="0 0 33 32"><path fill="#111827" fill-rule="evenodd" d="M29.988 25.955a1 1 0 0 1-1 1H7.012a2 2 0 0 0-2 1.998v1.046h21.486a1 1 0 0 1 0 2H4.012a1 1 0 0 1-1-1V4.001a4 4 0 0 1 4-4h21.976a1 1 0 0 1 1 1v24.954ZM5.012 4.001v21.49a3.981 3.981 0 0 1 2-.536h20.976V2.001h-2.974v13.94a1 1 0 0 1-1.603.798l-4.403-3.325-4.452 3.328a1 1 0 0 1-1.598-.8V2H7.011a2 2 0 0 0-2 2Zm9.945-2v11.944l3.455-2.582a1 1 0 0 1 1.202.003l3.4 2.567V2h-8.056Z" clip-rule="evenodd"/></svg>