<svg xmlns="http://www.w3.org/2000/svg" width="33" height="33" fill="none" viewBox="0 0 33 33"><path fill="#111827" fill-rule="evenodd" d="M29.988 26.455a1 1 0 0 1-1 1H7.012a2 2 0 0 0-2 1.998v1.046h21.486a1 1 0 0 1 0 2H4.012a1 1 0 0 1-1-1V4.501a4 4 0 0 1 4-4h21.976a1 1 0 0 1 1 1zM5.012 4.501v21.49a4 4 0 0 1 2-.536h20.976V2.501h-2.974v13.94a1 1 0 0 1-1.603.798l-4.403-3.325-4.452 3.328a1 1 0 0 1-1.598-.8V2.5H7.012a2 2 0 0 0-2 2m9.946-2v11.944l3.454-2.582a1 1 0 0 1 1.202.003l3.4 2.567V2.5z" clip-rule="evenodd"/></svg>