<svg xmlns="http://www.w3.org/2000/svg" width="33" height="33" fill="none" viewBox="0 0 33 33"><path fill="#111827" fill-rule="evenodd" d="M1.5 2.849a1 1 0 0 0-1 1v20.93a1 1 0 0 0 1 1h10.151a3 3 0 0 1 2.669 1.629l1.101 2.144c.234.455.668.635 1.079.594.411.04.845-.14 1.078-.594l1.102-2.144a3 3 0 0 1 2.669-1.63h10.15a1 1 0 0 0 1-1V3.849a1 1 0 0 0-1-1H20.5a5 5 0 0 0-4 2 5 5 0 0 0-4-2zm1 20.93V4.849h10a3 3 0 0 1 3 3v17.738a5 5 0 0 0-3.849-1.808zm27.999 0V4.849H20.5a3 3 0 0 0-3 3v17.738a5 5 0 0 1 3.849-1.808z" clip-rule="evenodd"/></svg>