<svg xmlns="http://www.w3.org/2000/svg" width="33" height="32" fill="none"><path fill="#111827" fill-rule="evenodd" d="M1.5 2.349a1 1 0 0 0-1 1v20.93a1 1 0 0 0 1 1h10.151a3 3 0 0 1 2.668 1.629l1.102 2.144c.234.455.668.635 1.079.594.411.04.845-.14 1.078-.594l1.102-2.144a3 3 0 0 1 2.669-1.63h10.15a1 1 0 0 0 1-1V3.349a1 1 0 0 0-1-1H20.5a4.992 4.992 0 0 0-4 2 4.992 4.992 0 0 0-4-2h-11Zm1 20.93V4.349h10a3 3 0 0 1 3 3v17.738a5 5 0 0 0-3.849-1.808h-9.15Zm27.999 0V4.349H20.5a3 3 0 0 0-3 3v17.738a5 5 0 0 1 3.849-1.808h9.15Z" clip-rule="evenodd"/></svg>