<svg xmlns="http://www.w3.org/2000/svg" width="33" height="33" fill="none" viewBox="0 0 33 33"><path fill="#111827" fill-rule="evenodd" d="M17.825 11.517v19.257a1 1 0 0 1-1 1H1.501a1 1 0 0 1-1-1V2.678a1 1 0 0 1 1-1h15.324a1 1 0 0 1 .999.942L23.968.973a1 1 0 0 1 1.225.707l1.623 6.058a1 1 0 0 1 .06.224l3.907 14.58a1 1 0 0 1 .059.22l1.623 6.057a1 1 0 0 1-.707 1.224l-7.402 1.984a1 1 0 0 1-1.225-.707zm1.879-.718 3.448 12.871 5.47-1.466-3.449-12.87zM24.655 7.4 23.52 3.164 18.05 4.63l1.136 4.237zm4.485 16.735-5.47 1.466 1.134 4.234 5.47-1.466zM8.163 29.774v-19.71H2.501v19.71zm0-21.71V3.678H2.501v4.386zm7.662 21.71h-5.662v-4.385h5.662zm0-26.096v19.71h-5.662V3.679z" clip-rule="evenodd"/></svg>