<svg xmlns="http://www.w3.org/2000/svg" width="33" height="32" fill="none" viewBox="0 0 33 32"><path fill="#111827" fill-rule="evenodd" d="M.5 1a1 1 0 0 1 1-1h8.182a1 1 0 0 1 1 1v3.092h11.636V1a1 1 0 0 1 1-1h8.181a1 1 0 0 1 1 1v8.181a1 1 0 0 1-1 1h-3.09v11.636h3.09a1 1 0 0 1 1 1v8.181a1 1 0 0 1-1 1h-8.181a1 1 0 0 1-1-1v-3.09H10.682v3.09a1 1 0 0 1-1 1H1.501a1 1 0 0 1-1-1v-8.181a1 1 0 0 1 1-1h3.09V10.182h-3.09a1 1 0 0 1-1-1V1.001ZM22.319 25.91v-3.091a1 1 0 0 1 1-1h3.09V10.182h-3.09a1 1 0 0 1-1-1v-3.09H10.682v3.09a1 1 0 0 1-1 1h-3.09v11.636h3.09a1 1 0 0 1 1 1v3.09h11.636Zm5.073-2.091h-3.073v6.181h6.181v-6.181H27.391Zm-21.817 0H2.501v6.181h6.181V23.818H5.574ZM8.682 2V8.182H2.501V2.001h6.181Zm15.636 0v6.181h6.181V2.001h-6.181Z" clip-rule="evenodd"/></svg>