<svg xmlns="http://www.w3.org/2000/svg" width="33" height="32" fill="none" viewBox="0 0 33 32"><path fill="#111827" fill-rule="evenodd" d="M9.001 4.002c-1.108 0-2.033.19-2.783.59a3.705 3.705 0 0 0-1.616 1.692c-.601 1.24-.6 2.814-.6 4.094v.123c0 1.45-.02 2.563-.4 3.344a1.707 1.707 0 0 1-.759.8c-.374.2-.949.355-1.84.355a1 1 0 1 0 0 2c.891 0 1.466.154 1.84.354.358.192.592.456.76.8.378.782.399 1.896.399 3.345v.123c0 1.28-.001 2.853.6 4.094a3.705 3.705 0 0 0 1.616 1.691c.75.401 1.675.591 2.783.591a1 1 0 1 0 0-2c-.891 0-1.466-.154-1.84-.354a1.707 1.707 0 0 1-.76-.8c-.378-.782-.399-1.896-.399-3.345v-.123c0-1.28.001-2.853-.6-4.094a3.746 3.746 0 0 0-1-1.282c.44-.36.766-.799 1-1.282.601-1.241.6-2.815.6-4.094v-.123c0-1.45.021-2.563.4-3.344.167-.346.4-.61.759-.8.374-.201.949-.355 1.84-.355a1 1 0 0 0 0-2Zm14.998 0a1 1 0 1 0 0 2c.891 0 1.466.154 1.84.354.358.192.592.455.76.8.378.782.399 1.896.399 3.345v.123c0 1.28-.002 2.853.6 4.094.235.483.56.922 1 1.282-.44.36-.765.799-1 1.282-.601 1.24-.6 2.814-.6 4.094v.123c0 1.45-.021 2.563-.4 3.344a1.708 1.708 0 0 1-.759.8c-.374.201-.949.355-1.84.355a1 1 0 1 0 0 2c1.108 0 2.033-.19 2.783-.59a3.705 3.705 0 0 0 1.616-1.692c.602-1.24.6-2.814.6-4.094V21.5c0-1.45.02-2.563.4-3.344.167-.345.4-.61.759-.8.374-.201.949-.355 1.84-.355a1 1 0 1 0 0-2c-.891 0-1.466-.154-1.84-.354a1.707 1.707 0 0 1-.76-.8c-.378-.782-.399-1.896-.399-3.345v-.123c0-1.28.002-2.853-.6-4.094a3.705 3.705 0 0 0-1.616-1.691c-.75-.402-1.675-.591-2.783-.591Z" clip-rule="evenodd"/></svg>