<svg xmlns="http://www.w3.org/2000/svg" width="33" height="32" fill="none" viewBox="0 0 33 32"><path fill="#111827" fill-rule="evenodd" d="M10.9 3.192a4.6 4.6 0 0 0-3.902 7.035 1 1 0 0 1-.613 1.503 5.085 5.085 0 0 0-.115 9.852c.045 0 .09.003.135.01l.613.087a1.167 1.167 0 0 0 1.32-.992 1 1 0 1 1 1.98.282 3.167 3.167 0 0 1-2.59 2.674 3.976 3.976 0 1 0 7.772 1.271v-3.102a2.884 2.884 0 0 0-2.884-2.851 1 1 0 0 1 0-2c1.043 0 2.052.334 2.884.942V7.76a4.6 4.6 0 0 0-4.6-4.567Zm5.6 1.105a6.6 6.6 0 0 0-11.753 5.882 7.083 7.083 0 0 0 .95 13.32A5.976 5.976 0 0 0 16.5 28.142a5.976 5.976 0 0 0 10.803-4.644 7.085 7.085 0 0 0 .95-13.32A6.6 6.6 0 0 0 16.5 4.297Zm1 20.617v-3.102a2.884 2.884 0 0 1 2.884-2.851 1 1 0 1 0 0-2 4.884 4.884 0 0 0-2.884.942V7.76A4.6 4.6 0 1 1 26 10.227a1 1 0 0 0 .613 1.503 5.085 5.085 0 0 1-.235 9.932 1 1 0 0 0-.108.01 1.167 1.167 0 0 1-1.333-.972l-.096-.611a1 1 0 1 0-1.976.309l.096.612a3.167 3.167 0 0 0 2.287 2.563 3.976 3.976 0 1 1-7.75 1.341ZM13.064 9.67a1 1 0 0 0-2 0v1.105a2.87 2.87 0 0 1-2.87 2.87 1 1 0 1 0 0 2 4.87 4.87 0 0 0 4.87-4.87V9.67Zm6.802 0a1 1 0 1 1 2 0v1.105a2.87 2.87 0 0 0 2.87 2.87 1 1 0 1 1 0 2 4.87 4.87 0 0 1-4.87-4.87V9.67Z" clip-rule="evenodd"/></svg>