<svg xmlns="http://www.w3.org/2000/svg" width="33" height="33" fill="none" viewBox="0 0 33 33"><path fill="#111827" fill-rule="evenodd" d="M3.636.955a1 1 0 0 1 .838-.454h24.052a1 1 0 0 1 .838.455A15.347 15.347 0 0 1 17.5 24.638v5.86h5.521a1 1 0 1 1 0 2h-6.5l-.021.001H9.979a1 1 0 1 1 0-2h5.52v-5.861A15.347 15.347 0 0 1 3.637.955Zm1.393 1.546a13.347 13.347 0 0 0-1.553 9.738h26.048a13.35 13.35 0 0 0-1.553-9.738H5.029Zm23.88 11.738H4.091a13.345 13.345 0 0 0 19.234 6.554 13.346 13.346 0 0 0 5.582-6.553Z" clip-rule="evenodd"/></svg>