<svg xmlns="http://www.w3.org/2000/svg" width="33" height="32" fill="none" viewBox="0 0 33 32"><path fill="#111827" fill-rule="evenodd" d="M27.809 4.69a1 1 0 1 0-1.413 1.415 13.98 13.98 0 0 1 0 19.79 1 1 0 0 0 1.413 1.415 15.98 15.98 0 0 0 0-22.62m-21.203.001a1 1 0 0 1-.002 1.415 13.98 13.98 0 0 0 0 19.789 1 1 0 1 1-1.413 1.415 15.98 15.98 0 0 1 0-22.62 1 1 0 0 1 1.415.001m3.786 3.787a1 1 0 0 1-.001 1.414 8.63 8.63 0 0 0 0 12.216 1 1 0 0 1-1.413 1.415 10.63 10.63 0 0 1 0-15.046 1 1 0 0 1 1.414 0m6.108 4.238a3.284 3.284 0 1 0 0 6.568 3.284 3.284 0 0 0 0-6.568M11.216 16a5.284 5.284 0 1 1 10.568 0 5.284 5.284 0 0 1-10.568 0m12.806-7.523a1 1 0 1 0-1.413 1.415 8.63 8.63 0 0 1 0 12.216 1 1 0 0 0 1.413 1.415 10.63 10.63 0 0 0 0-15.046" clip-rule="evenodd"/></svg>