<svg xmlns="http://www.w3.org/2000/svg" width="33" height="32" fill="none" viewBox="0 0 33 32"><path fill="#111827" fill-rule="evenodd" d="M16.189 2.587c-4.407 0-8.21 2.583-9.978 6.318l-2.649-1.53a1 1 0 1 0-1 1.733l2.954 1.705a11 11 0 0 0-.36 2.807V15H1.5a1 1 0 1 0 0 2h3.655v1.38c0 .97.125 1.91.36 2.807l-2.954 1.705a1 1 0 1 0 1 1.732l2.65-1.53a11.03 11.03 0 0 0 10.217 6.316 1 1 0 0 0 .204-.006c4.326-.171 8.013-2.834 9.663-6.594l3.141 1.814a1 1 0 0 0 1-1.732l-3.498-2.02c.185-.8.282-1.635.282-2.492V17H31.5a1 1 0 1 0 0-2h-4.278v-1.38c0-.857-.097-1.691-.282-2.492l3.498-2.02a1 1 0 1 0-1-1.732l-3.141 1.813a11.04 11.04 0 0 0-10.107-6.602M25.22 15v-1.38a9.033 9.033 0 0 0-18.065 0V15H25.22M7.156 17v1.38a9.033 9.033 0 0 0 8.344 9.007V17zM17.5 27.319a9.035 9.035 0 0 0 7.721-8.939V17H17.5zm-4.62-14.422a1.552 1.552 0 1 0 0-3.104 1.552 1.552 0 0 0 0 3.104m7.24 0a1.552 1.552 0 1 0 0-3.104 1.552 1.552 0 0 0 0 3.104" clip-rule="evenodd"/></svg>