<svg xmlns="http://www.w3.org/2000/svg" width="33" height="32" fill="none" viewBox="0 0 33 32"><path fill="#111827" fill-rule="evenodd" d="M29.135 2.228a1 1 0 0 1-.166 1.404l-4.257 3.36a10.991 10.991 0 0 1 2.82 7.367v1.38H31.5a1 1 0 1 1 0 2h-3.966v1.381c0 6.093-4.94 11.033-11.033 11.033-6.093 0-11.033-4.94-11.033-11.033v-1.38H1.501a1 1 0 1 1 0-2h3.966v-1.38c0-2.872 1.098-5.488 2.896-7.451L4.21 3.632a1 1 0 1 1 1.24-1.57l4.414 3.483A10.984 10.984 0 0 1 16.5 3.327c2.533 0 4.866.853 6.728 2.288l4.503-3.553a1 1 0 0 1 1.404.166ZM7.467 17.74v1.38a9.033 9.033 0 1 0 18.066 0v-1.38H7.467Zm18.066-2H7.467v-1.38a9.033 9.033 0 0 1 18.066 0v1.38Zm-2.783-4.625a1.875 1.875 0 1 1-3.75 0 1.875 1.875 0 0 1 3.75 0ZM12.125 12.99a1.875 1.875 0 1 0 0-3.75 1.875 1.875 0 0 0 0 3.75Z" clip-rule="evenodd"/></svg>