<svg xmlns="http://www.w3.org/2000/svg" width="33" height="32" fill="none" viewBox="0 0 33 32"><path fill="#111827" fill-rule="evenodd" d="M7.48 0a6 6 0 0 0-6 6V31a1 1 0 0 0 1 1H9a1 1 0 0 0 1-1v-4.217h13v4.217a1 1 0 0 0 1 1h6.52a1 1 0 0 0 1-1V6.001a6 6 0 0 0-6-6zm22.04 26.782H25v3.217h4.52zM3.48 29.999v-3.217H8v3.217zm26.04-16.955V6a4 4 0 0 0-4-4H7.48a4 4 0 0 0-4 4v7.042zm-26.04 2h26.04v9.738H3.48zm7.803 4.869a1.956 1.956 0 1 1-3.913 0 1.956 1.956 0 0 1 3.913 0m12.39 1.956a1.956 1.956 0 1 0 0-3.913 1.956 1.956 0 0 0 0 3.913" clip-rule="evenodd"/></svg>