<svg xmlns="http://www.w3.org/2000/svg" width="32" height="32" fill="none"><path stroke="#1C1B1F" stroke-linecap="round" stroke-linejoin="round" stroke-width="2" d="M4.783 14.435h22.434"/><path fill="#1C1B1F" d="M10.26 20.696a1.565 1.565 0 1 0 0-3.13 1.565 1.565 0 0 0 0 3.13ZM21.74 20.696a1.565 1.565 0 1 0 0-3.13 1.565 1.565 0 0 0 0 3.13Z"/><path stroke="#1C1B1F" stroke-width="2" d="M4.783 9a5 5 0 0 1 5-5h12.434a5 5 0 0 1 5 5v14.826H4.783V9Z"/><path stroke="#1C1B1F" stroke-linecap="round" stroke-linejoin="round" stroke-width="2" d="M4.783 23.826V28H10v-4.174M22 23.826V28h5.217v-4.174"/></svg>