<svg width="32" height="33" fill="none" xmlns="http://www.w3.org/2000/svg"><path d="M16 24.432V13.278a10 10 0 0 0-3.92-7.94L10.985 4.5" stroke="#1C1B1F" stroke-width="2" stroke-linecap="round" stroke-linejoin="round"/><path d="M16 24.432V13.278a10 10 0 0 1 3.92-7.94l1.095-.838" stroke="#1C1B1F" stroke-width="2" stroke-linecap="round" stroke-linejoin="round"/><path d="M16 14.275a5.519 5.519 0 1 1 11.037 0 5.519 5.519 0 0 1-5.518 5.52H16v-5.52Z" stroke="#1C1B1F" stroke-width="2" stroke-linejoin="round"/><path d="M16 14.275a5.519 5.519 0 1 0-11.037 0 5.519 5.519 0 0 0 5.518 5.52H16v-5.52Z" stroke="#1C1B1F" stroke-width="2" stroke-linejoin="round"/><path d="M16 24.147a4.353 4.353 0 1 0 8.706 0 4.353 4.353 0 0 0-4.353-4.353H16v4.353ZM16 24.147a4.353 4.353 0 0 1-8.706 0 4.353 4.353 0 0 1 4.353-4.353H16v4.353Z" stroke="#1C1B1F" stroke-width="2" stroke-linejoin="round"/></svg>