<svg xmlns="http://www.w3.org/2000/svg" width="33" height="33" fill="none" viewBox="0 0 33 33"><path fill="#111827" fill-rule="evenodd" d="M10.84.707a1 1 0 0 0-1.216 1.588l2.348 1.798A9 9 0 0 1 14.81 7.78a7.898 7.898 0 1 0-7.912 13.36 6.44 6.44 0 1 0 9.602 8.365 6.44 6.44 0 1 0 9.602-8.365 7.898 7.898 0 1 0-7.912-13.36 9 9 0 0 1 2.838-3.688l2.348-1.798A1 1 0 1 0 22.16.707l-2.348 1.798a11 11 0 0 0-3.312 4.15 11 11 0 0 0-3.312-4.15zm4.66 20.91v4.46a4.44 4.44 0 1 1-4.44-4.46zm2 0v4.45a4.44 4.44 0 1 0 4.44-4.45zm-2-7.92v5.92H9.602a5.898 5.898 0 1 1 5.898-5.92m2 5.92h5.898A5.898 5.898 0 1 0 17.5 13.71v5.908" clip-rule="evenodd"/></svg>