<svg xmlns="http://www.w3.org/2000/svg" width="33" height="33" fill="none" viewBox="0 0 33 33"><path fill="#111827" fill-rule="evenodd" d="M13.944 4.713a3.615 3.615 0 0 1 6.171 2.557v10.96a1 1 0 0 0 1 1h1.736a3.899 3.899 0 0 0 3.88-3.879 1.899 1.899 0 0 1 1.884-1.89 1.898 1.898 0 0 1 1.884 1.888 7.654 7.654 0 0 1-7.653 7.65h-1.73a1 1 0 0 0-1 1v5.346h-7.231V18.231a1 1 0 0 0-1-1h-1.73A7.653 7.653 0 0 1 2.5 9.58a1.899 1.899 0 0 1 1.884-1.887 1.899 1.899 0 0 1 1.885 1.89 3.899 3.899 0 0 0 3.88 3.879h1.734a1 1 0 0 0 1-1V7.27c0-.959.382-1.879 1.06-2.556Zm-3.06 24.632V19.231h-.73A9.653 9.653 0 0 1 .501 9.577v-.005a3.899 3.899 0 0 1 3.88-3.88h.01a3.899 3.899 0 0 1 3.879 3.88 1.899 1.899 0 0 0 1.887 1.89h.728V7.27a5.615 5.615 0 0 1 11.23 0v9.96h.728a1.898 1.898 0 0 0 1.887-1.889 3.899 3.899 0 0 1 3.88-3.88h.01a3.899 3.899 0 0 1 3.88 3.88v.005A9.653 9.653 0 0 1 22.845 25h-.73v4.345h7.076a1 1 0 1 1 0 2H3.808a1 1 0 1 1 0-2h7.077Z" clip-rule="evenodd"/></svg>