<svg xmlns="http://www.w3.org/2000/svg" width="33" height="33" fill="none" viewBox="0 0 33 33"><path fill="#111827" fill-rule="evenodd" d="m16.5 1.5.654-.756a1 1 0 0 0-1.295-.012zm1 8.761c1.435-.621 2.357-1.485 2.753-2.58.444-1.23.117-2.468-.352-3.442-.476-.987-1.171-1.862-1.722-2.472a14 14 0 0 0-.998-1l-.018-.015-.006-.005-.002-.002s-.001-.001-.655.755l-.641-.768h-.001l-.002.003-.006.004-.019.017a8 8 0 0 0-.294.262c-.19.175-.45.426-.74.736-.571.608-1.293 1.483-1.788 2.472-.488.975-.832 2.224-.367 3.467.414 1.102 1.374 1.962 2.858 2.578v2.767a1 1 0 1 0 2 0zm-1.244-7.14q.12-.128.23-.239.1.106.209.226c.491.544 1.046 1.256 1.404 1.999.364.757.453 1.394.273 1.895-.159.438-.613 1.014-1.88 1.512-1.337-.505-1.814-1.09-1.977-1.524-.183-.488-.095-1.114.283-1.87.37-.741.947-1.453 1.458-1.999" clip-rule="evenodd"/><path stroke="#111827" stroke-linecap="round" stroke-linejoin="round" stroke-width="2" d="M21.404 18.52a4.904 4.904 0 1 1-9.808 0"/><path stroke="#111827" stroke-linecap="round" stroke-linejoin="round" stroke-width="2" d="M11.596 18.52a4.904 4.904 0 0 1-4.808 4.903c-2.75.052-5-2.25-5-5V16.5A3.46 3.46 0 0 1 5.25 13.04h22.5a3.46 3.46 0 0 1 3.462 3.461v1.923c0 2.75-2.25 5.052-5 5a4.904 4.904 0 0 1-4.808-4.903"/><path stroke="#111827" stroke-linecap="round" stroke-linejoin="round" stroke-width="2" d="M29.193 22.453v7.894a1.154 1.154 0 0 1-1.154 1.154H4.96a1.154 1.154 0 0 1-1.154-1.154v-7.894"/></svg>