<svg xmlns="http://www.w3.org/2000/svg" width="33" height="32" fill="none" viewBox="0 0 33 32"><path fill="#111827" fill-rule="evenodd" d="M3 1a1 1 0 0 1 1-1h25a1 1 0 0 1 1 1V31a1 1 0 0 1-1 1H4a1 1 0 0 1-1-1V1.001Zm2 1V30h23V2.001H5Zm7.125 17.125a1.875 1.875 0 1 1-3.75 0 1.875 1.875 0 0 1 3.75 0Zm6.25 0a1.875 1.875 0 1 1-3.75 0 1.875 1.875 0 0 1 3.75 0ZM22.75 21a1.875 1.875 0 1 0 0-3.75 1.875 1.875 0 0 0 0 3.75Zm-10.625 4.374a1.875 1.875 0 1 1-3.75 0 1.875 1.875 0 0 1 3.75 0ZM16.5 27.25a1.875 1.875 0 1 0 0-3.75 1.875 1.875 0 0 0 0 3.75Zm8.125-1.875a1.875 1.875 0 1 1-3.75 0 1.875 1.875 0 0 1 3.75 0ZM9 5.001a1 1 0 0 0-1 1v7.5a1 1 0 0 0 1 1h15a1 1 0 0 0 1-1V6a1 1 0 0 0-1-1H9Zm1 7.5V7h13v5.5H10Z" clip-rule="evenodd"/></svg>