<svg xmlns="http://www.w3.org/2000/svg" width="32" height="32" fill="none"><path fill="#1C1B1F" d="M11 20a1.5 1.5 0 1 0 0-3 1.5 1.5 0 0 0 0 3ZM16 20a1.5 1.5 0 1 0 0-3 1.5 1.5 0 0 0 0 3ZM21 20a1.5 1.5 0 1 0 0-3 1.5 1.5 0 0 0 0 3ZM11 25a1.5 1.5 0 1 0 0-3 1.5 1.5 0 0 0 0 3ZM16 25a1.5 1.5 0 1 0 0-3 1.5 1.5 0 0 0 0 3ZM21 25a1.5 1.5 0 1 0 0-3 1.5 1.5 0 0 0 0 3Z"/><path stroke="#1C1B1F" stroke-linejoin="round" stroke-width="2" d="M6 4h20v24H6z"/><path stroke="#1C1B1F" stroke-linejoin="round" stroke-width="2" d="M10 8h12v6H10z"/></svg>