<svg xmlns="http://www.w3.org/2000/svg" width="33" height="33" fill="none" viewBox="0 0 33 33"><path fill="#111827" fill-rule="evenodd" d="M9 .5a1 1 0 0 1 1 1V3h13V1.5a1 1 0 1 1 2 0V3h5.25a1 1 0 0 1 1 1V31.5a1 1 0 0 1-1 1H2.75a1 1 0 0 1-1-1V4a1 1 0 0 1 1-1H8V1.5a1 1 0 0 1 1-1ZM8 5H3.75v5.5h25.5V5H25v1.5a1 1 0 1 1-2 0V5H10v1.5a1 1 0 0 1-2 0V5Zm21.25 7.5H3.75V30.5h25.5V12.5Zm-6.398 4.564a1 1 0 0 1-.042 1.413l-7.291 6.875a1 1 0 0 1-1.374-.002l-3.958-3.75a1 1 0 0 1 1.375-1.451l3.272 3.1 6.604-6.227a1 1 0 0 1 1.414.042Z" clip-rule="evenodd"/></svg>