<svg xmlns="http://www.w3.org/2000/svg" width="33" height="33" fill="none" viewBox="0 0 33 33"><path fill="#111827" fill-rule="evenodd" d="M10 1.5a1 1 0 0 0-2 0V3H2.75a1 1 0 0 0-1 1V31.5a1 1 0 0 0 1 1h27.5a1 1 0 0 0 1-1V4a1 1 0 0 0-1-1H25V1.5a1 1 0 1 0-2 0V3H10zM8 5v1.5a1 1 0 1 0 2 0V5h13v1.5a1 1 0 1 0 2 0V5h4.25v5.5H3.75V5zm-4.25 7.5V30.5h25.5V12.5zm6.125 5.25a1 1 0 0 1 1-1h3.745a1.1 1.1 0 0 1 .905 1.724l-1.637 2.372c.306.152.59.344.841.566.599.53 1.081 1.312 1.081 2.25a3.212 3.212 0 0 1-5.713 2.016 1 1 0 0 1 1.556-1.256 1.212 1.212 0 0 0 2.157-.76c0-.222-.116-.495-.407-.753a1.85 1.85 0 0 0-1.037-.456c-.78-.063-1.344-.974-.823-1.729l1.362-1.975h-2.03a1 1 0 0 1-1-1m12.625.91a1.5 1.5 0 0 0-2.306-1.264l-1.309.833a1 1 0 0 0 1.075 1.687l.54-.344v6.302a1 1 0 0 0 2 0z" clip-rule="evenodd"/></svg>