<svg xmlns="http://www.w3.org/2000/svg" width="33" height="33" fill="none" viewBox="0 0 33 33"><path fill="#111827" fill-rule="evenodd" d="M3.08.76a1 1 0 0 1 1.412.068l27.271 29.998a1 1 0 0 1-1.48 1.346l-1.78-1.959a.995.995 0 0 1-.52.146H1.5a1 1 0 0 1-1-1V6.86a1 1 0 0 1 1-1h4.863L3.012 2.173A1 1 0 0 1 3.08.761Zm5.036 7.028a.997.997 0 0 1-.375.072h-5.24V28.36h24.316l-5.63-6.193a6.625 6.625 0 1 1-8.902-9.792L8.116 7.787Zm5.517 6.068 6.207 6.828a4.625 4.625 0 1 1-6.207-6.828Zm18.866 11.1a1 1 0 1 1-2 0V7.86h-6.436a1 1 0 0 1-.828-.439l-2.241-3.308h-9.469a1 1 0 1 1 0-2h9.999a1 1 0 0 1 .828.44l2.241 3.307H31.5a1 1 0 0 1 1 1v18.096Z" clip-rule="evenodd"/></svg>