<svg xmlns="http://www.w3.org/2000/svg" width="33" height="33" fill="none" viewBox="0 0 33 33"><path fill="#111827" fill-rule="evenodd" d="M1.5 30.623a1 1 0 0 1-1-1V7.124a1 1 0 0 1 1-1h6.96l2.237-3.307a1 1 0 0 1 .828-.44h9.999a1 1 0 0 1 .828.44l2.241 3.307H31.5a1 1 0 0 1 1 1v22.499a1 1 0 0 1-1 1H1.501Zm1-22.499v20.499H30.5V8.124h-6.436a1 1 0 0 1-.828-.439l-2.241-3.308h-8.938L9.82 7.684a1 1 0 0 1-.829.44h-6.49Zm9.375 9.624a4.625 4.625 0 1 1 9.25 0 4.625 4.625 0 0 1-9.25 0Zm4.625-6.624a6.625 6.625 0 1 0 0 13.249 6.625 6.625 0 0 0 0-13.25Z" clip-rule="evenodd"/></svg>