<svg xmlns="http://www.w3.org/2000/svg" width="33" height="33" fill="none"><path fill="#111827" fill-rule="evenodd" d="M3.054 21.797a1 1 0 1 0-.606 1.905l10.754 3.422-10.754 3.422a1 1 0 0 0 .606 1.906L16.5 28.174l13.446 4.278a1 1 0 0 0 .606-1.906l-10.754-3.422 10.754-3.422a1 1 0 1 0-.606-1.905L16.5 26.075 3.054 21.797Z" clip-rule="evenodd"/><path fill="#111827" fill-rule="evenodd" d="m16.5 1.501.524-.852a1 1 0 0 0-1.048 0l.524.852Zm.036 20.999a9.124 9.124 0 0 0 9.088-9.125c0-3.826-2.248-7.035-4.341-9.209A25.149 25.149 0 0 0 17.409.901a15.035 15.035 0 0 0-.353-.232l-.022-.013-.006-.005h-.002L17.024.65 16.5 1.5c-.524-.852-.524-.852-.525-.851l-.003.001-.006.005-.022.013a22.457 22.457 0 0 0-1.317.923 25.157 25.157 0 0 0-2.91 2.574C9.625 6.34 7.376 9.55 7.376 13.376A9.125 9.125 0 0 0 16.5 22.5h.036Zm4.6-3.715a7.125 7.125 0 0 0 2.489-5.41c0-3.048-1.814-5.776-3.783-7.821A23.152 23.152 0 0 0 16.5 2.703a23.152 23.152 0 0 0-3.342 2.851c-1.97 2.045-3.782 4.773-3.782 7.821a7.125 7.125 0 0 0 2.489 5.41 4.746 4.746 0 0 1-.115-1.035c0-2.213 1.103-4 2.116-5.182a11.942 11.942 0 0 1 1.879-1.757 6.782 6.782 0 0 1 .18-.13l.013-.008.004-.003h.002v-.001l.556.831.555-.831h.001l.002.001.004.003.013.009a5.555 5.555 0 0 1 .18.129 11.941 11.941 0 0 1 1.88 1.758c1.012 1.181 2.115 2.968 2.115 5.181 0 .351-.04.698-.114 1.035ZM16.5 11.5l-.555-.832a1 1 0 0 1 1.11 0l-.555.832Zm0 9h.024-.024Zm.024 0a2.75 2.75 0 0 0 2.726-2.75c0-1.537-.773-2.875-1.634-3.88a9.935 9.935 0 0 0-1.116-1.107c-.313.265-.715.64-1.116 1.107-.861 1.005-1.634 2.343-1.634 3.88a2.75 2.75 0 0 0 2.726 2.75" clip-rule="evenodd"/></svg>