<svg xmlns="http://www.w3.org/2000/svg" width="33" height="32" fill="none" viewBox="0 0 33 32"><path fill="#111827" fill-rule="evenodd" d="M7.634 3.75a1 1 0 0 0-.909.583l-4.165 9.06H1.5a1 1 0 1 0 0 2h1.144v11.856a1 1 0 0 0 1 1h5.59a1 1 0 0 0 1-1v-3.285h12.533v3.285a1 1 0 0 0 1 1h5.59a1 1 0 0 0 1-1V15.393h1.142a1 1 0 1 0 0-2H30.44l-4.165-9.06a1 1 0 0 0-.909-.582H7.634Zm20.722 20.214h-3.59v2.285h3.59v-2.285Zm-4.584-2h4.584v-6.571H4.644v6.57h19.128ZM4.644 26.249v-2.285h3.59v2.285h-3.59Zm23.595-12.856L24.725 5.75H8.275L4.76 13.393H28.24Zm-21.31 5.285a1 1 0 0 1 1-1h2.143a1 1 0 1 1 0 2H7.929a1 1 0 0 1-1-1Zm15.999-1a1 1 0 0 0 0 2h2.143a1 1 0 1 0 0-2h-2.143Z" clip-rule="evenodd"/></svg>