<svg xmlns="http://www.w3.org/2000/svg" width="33" height="32" fill="none"><path fill="#111827" fill-rule="evenodd" d="M5.587 2.47a1 1 0 0 1 .914-.594H26.5a1 1 0 0 1 .914.594l4.968 11.178c.075.14.117.301.117.471v15.005a1 1 0 0 1-1 1h-6.524a1 1 0 0 1-1-1v-4H8.952v4a1 1 0 0 1-1 1h-6.45a1 1 0 0 1-1-1V14.118c0-.17.042-.33.117-.47L5.587 2.47ZM2.502 14.337v13.787h4.45v-4a1 1 0 0 1 1-1h17.022a1 1 0 0 1 1 1v4h4.524V14.336L25.85 3.877H7.151l-4.65 10.46Zm3.866-.212a1 1 0 0 1 1-1h18.264a1 1 0 1 1 0 2H7.369a1 1 0 0 1-1-1Z" clip-rule="evenodd"/></svg>