<svg xmlns="http://www.w3.org/2000/svg" width="33" height="33" fill="none" viewBox="0 0 33 33"><path fill="#111827" fill-rule="evenodd" d="M22.894 3.328a11 11 0 0 0-12.788 0L7.703 5.045 2.016 1.633A1 1 0 0 0 .5 2.49v18.23c0 6.076 4.925 11 11 11h9.998c6.075 0 11-4.924 11-11V2.49a1 1 0 0 0-1.515-.857l-5.687 3.412-2.403-1.717ZM17.5 29.721h3.999a9 9 0 0 0 9-9V4.256l-4.735 2.841a1 1 0 0 1-1.096-.043L22.5 5.504v3.968a1 1 0 0 1-2 0V4.217a8.985 8.985 0 0 0-3-.882v6.137a1 1 0 1 1-2 0V3.335a8.984 8.984 0 0 0-3 .882v5.255a1 1 0 0 1-2 0V5.505L8.332 7.054a1 1 0 0 1-1.096.043l-4.735-2.84V20.72a9 9 0 0 0 9 9H15.5v-3.586l-2.207-2.207a1 1 0 0 1 1.414-1.414l1.793 1.793 1.793-1.793a1 1 0 0 1 1.414 1.414L17.5 26.135v3.586Zm-6-12.125a1.875 1.875 0 1 1-3.75 0 1.875 1.875 0 0 1 3.75 0Zm11.875 1.875a1.875 1.875 0 1 0 0-3.75 1.875 1.875 0 0 0 0 3.75Z" clip-rule="evenodd"/></svg>