<svg xmlns="http://www.w3.org/2000/svg" width="33" height="33" fill="none" viewBox="0 0 33 33"><path fill="#111827" fill-rule="evenodd" d="M.5 4a1 1 0 0 1 1-1H31.5a1 1 0 0 1 1 1v25a1 1 0 0 1-1 1H20.235a1 1 0 0 1-.993-.88c-.076-.623-.468-1.67-1.446-2.55-.954-.858-2.528-1.611-5.068-1.569-5.027.084-6.363 2.992-6.494 4.114a1 1 0 0 1-.993.884h-3.74a1 1 0 0 1-1-1zm2 1v23h1.943c.487-1.53 1.832-3.401 4.5-4.363a6 6 0 1 1 7.667-.044c1.022.37 1.857.89 2.524 1.49a6.6 6.6 0 0 1 1.9 2.916H30.5V5.001zm10.25 10a4 4 0 1 0 0 8 4 4 0 0 0 0-8M6.5 8a1 1 0 0 0-1 1v2.806a1 1 0 1 0 2 0V10h18v13.008h-1.937a1 1 0 1 0 0 2H26.5a1 1 0 0 0 1-1V9a1 1 0 0 0-1-1z" clip-rule="evenodd"/></svg>