<svg xmlns="http://www.w3.org/2000/svg" width="33" height="32" fill="none" viewBox="0 0 33 32"><path fill="#111827" fill-rule="evenodd" d="M17.5 14.268V2.036a13.989 13.989 0 0 1 10.594 6.116L17.5 14.268Zm-.521 2.61.04-.023 12.076-6.972A13.944 13.944 0 0 1 30.5 16c0 7.731-6.268 13.999-14 13.999a13.985 13.985 0 0 1-11.593-6.15l12.073-6.971ZM15.5 15.422V2.037C8.235 2.549 2.5 8.605 2.5 16c0 2.193.505 4.269 1.405 6.117L15.5 15.422ZM.5 16c0-8.836 7.164-16 16-16s15.999 7.164 15.999 16-7.163 15.999-16 15.999c-8.835 0-15.998-7.163-15.998-16Z" clip-rule="evenodd"/></svg>