<svg xmlns="http://www.w3.org/2000/svg" width="33" height="32" fill="none" viewBox="0 0 33 32"><path fill="#111827" fill-rule="evenodd" d="M16.502 0h.022A16 16 0 1 1 2.705 24.107a1.033 1.033 0 0 1-.037-.07 1 1 0 0 1 .343-1.404l12.491-7.211V1a1 1 0 0 1 1-1Zm6.988 3.87a14 14 0 0 1 4.604 4.282l-10.592 6.115V2.036A14 14 0 0 1 23.49 3.87Zm-6.453 12.975 12.056-6.96A14.002 14.002 0 0 1 9.581 28.171a14.001 14.001 0 0 1-4.675-4.323l12.059-6.962a.992.992 0 0 0 .072-.042ZM12.484 1.859a1 1 0 0 0-1.338-.941C4.937 3.148.5 9.146.5 16.186c0 .926.077 1.835.225 2.72a1 1 0 0 0 1.485.702l9.773-5.63a1 1 0 0 0 .501-.866V1.86ZM2.5 16.186c0-5.662 3.266-10.544 7.984-12.824v9.172L2.53 17.116c-.02-.307-.03-.617-.03-.93Z" clip-rule="evenodd"/></svg>