<svg xmlns="http://www.w3.org/2000/svg" width="33" height="32" fill="none" viewBox="0 0 33 32"><path fill="#111827" fill-rule="evenodd" d="M5.11 7.811a14.004 14.004 0 0 1 11.371-5.81C24.224 2 30.499 8.27 30.499 16S24.224 30 16.48 30H2.501V14.964A13.908 13.908 0 0 1 5.11 7.81ZM16.48.001A16.004 16.004 0 0 0 3.489 6.639a15.908 15.908 0 0 0-2.988 8.29v16.07a1 1 0 0 0 1 1h14.98C25.326 32 32.499 24.837 32.499 16S25.326 0 16.48 0ZM10.875 16a1.875 1.875 0 1 1-3.75 0 1.875 1.875 0 0 1 3.75 0Zm7.5 0a1.875 1.875 0 1 1-3.75 0 1.875 1.875 0 0 1 3.75 0Zm5.624 1.875a1.875 1.875 0 1 0 0-3.75 1.875 1.875 0 0 0 0 3.75Z" clip-rule="evenodd"/></svg>