<svg xmlns="http://www.w3.org/2000/svg" width="33" height="32" fill="none" viewBox="0 0 33 32"><path fill="#111827" fill-rule="evenodd" d="M4.25 7.045a9.393 9.393 0 0 1 7.627-3.897c5.194 0 9.402 4.205 9.402 9.389 0 5.184-4.208 9.39-9.402 9.39H2.5V11.83c.132-1.78.76-3.42 1.749-4.786Zm7.627-5.897a11.393 11.393 0 0 0-9.248 4.725 11.326 11.326 0 0 0-2.128 5.922v11.131a1 1 0 0 0 1 1h9.129a11.405 11.405 0 0 0 10.493 6.926h10.376a1 1 0 0 0 1-1v-11.13c0-.024 0-.048-.003-.071A11.397 11.397 0 0 0 22.4 8.145a11.406 11.406 0 0 0-10.523-6.997Zm11.177 9.124c.148.732.225 1.49.225 2.265 0 5.971-4.6 10.868-10.452 11.35a9.403 9.403 0 0 0 8.296 4.965h9.376V18.757a9.326 9.326 0 0 0-1.749-4.786 9.407 9.407 0 0 0-5.696-3.7Z" clip-rule="evenodd"/></svg>