<svg xmlns="http://www.w3.org/2000/svg" width="33" height="32" fill="none"><path fill="#111827" fill-rule="evenodd" d="M2.5 12.535a9.38 9.38 0 1 1 9.38 9.38 9.333 9.333 0 0 1-4.452-1.122 1.513 1.513 0 0 0-1.092-.137l-3.486.885.849-3.615c.085-.363.03-.734-.135-1.048a9.334 9.334 0 0 1-1.063-4.343Zm9.38-11.38C5.596 1.156.5 6.252.5 12.536c0 1.836.436 3.573 1.21 5.11l-.995 4.24a1.5 1.5 0 0 0 1.83 1.797l4.099-1.041a11.31 11.31 0 0 0 3.97 1.204c1.715 4.11 5.772 7 10.505 7 1.887 0 3.668-.46 5.237-1.275l4.1 1.041a1.5 1.5 0 0 0 1.829-1.797l-.995-4.24a11.336 11.336 0 0 0 1.209-5.11c0-5.856-4.424-10.678-10.113-11.31-1.716-4.11-5.773-6.998-10.506-6.998Zm11.157 9.126c.146.729.223 1.483.223 2.254 0 5.962-4.585 10.853-10.421 11.34a9.379 9.379 0 0 0 8.28 4.97 9.334 9.334 0 0 0 4.453-1.123 1.514 1.514 0 0 1 1.092-.137l3.485.885-.848-3.615a1.513 1.513 0 0 1 .134-1.047 9.335 9.335 0 0 0 1.064-4.343c0-4.523-3.202-8.3-7.462-9.184Z" clip-rule="evenodd"/></svg>