<svg xmlns="http://www.w3.org/2000/svg" width="33" height="32" fill="none" viewBox="0 0 33 32"><path fill="#111827" fill-rule="evenodd" d="M5.11 7.81A14.005 14.005 0 0 1 16.48 2c7.744 0 14.02 6.27 14.02 14s-6.276 14-14.02 14H2.5V14.965A13.909 13.909 0 0 1 5.11 7.81ZM16.48 0A16.005 16.005 0 0 0 3.49 6.639a15.909 15.909 0 0 0-2.99 8.29V30a2 2 0 0 0 2 2h13.982c8.846 0 16.02-7.162 16.02-16 0-8.838-7.174-16-16.02-16Zm-4.608 11.373a1 1 0 0 1 1.414 0l3.213 3.213 3.213-3.213a1 1 0 0 1 1.414 1.414L17.914 16l3.213 3.213a1 1 0 0 1-1.414 1.414L16.5 17.414l-3.213 3.213a1 1 0 0 1-1.414-1.414L15.086 16l-3.213-3.213a1 1 0 0 1 0-1.414Z" clip-rule="evenodd"/></svg>