<svg xmlns="http://www.w3.org/2000/svg" width="33" height="32" fill="none" viewBox="0 0 33 32"><path fill="#111827" fill-rule="evenodd" d="M2.5 16c0-7.731 6.268-14 14-14C24.23 2 30.499 8.27 30.499 16c0 7.732-6.268 14-14 14-2.436 0-4.725-.623-6.718-1.716a1.5 1.5 0 0 0-1.097-.14l-5.834 1.48 1.413-6.02a1.5 1.5 0 0 0-.137-1.051A13.93 13.93 0 0 1 2.5 16m14-16C7.664 0 .5 7.165.5 16c0 2.639.64 5.13 1.774 7.327L.715 29.97a1.5 1.5 0 0 0 1.83 1.797l6.444-1.636a15.93 15.93 0 0 0 7.51 1.87c8.837 0 16-7.164 16-16s-7.163-16-16-16m-6 13.5a1 1 0 0 1 1-1h10a1 1 0 0 1 0 2h-10a1 1 0 0 1-1-1m0 5a1 1 0 0 1 1-1h10a1 1 0 1 1 0 2h-10a1 1 0 0 1-1-1" clip-rule="evenodd"/></svg>