<svg xmlns="http://www.w3.org/2000/svg" width="33" height="32" fill="none" viewBox="0 0 33 32"><path fill="#111827" fill-rule="evenodd" d="M1.5 0a1 1 0 0 0-1 1v22.418a1 1 0 0 0 1 1h9.498l4.655 7.128a1 1 0 0 0 1.67.006l4.732-7.134H31.5a1 1 0 0 0 1-1V1.001a1 1 0 0 0-1-1H1.5Zm1 22.418V2.001H30.5v20.417h-8.98a1 1 0 0 0-.833.447l-4.19 6.315-4.12-6.309a1 1 0 0 0-.837-.453H2.5Zm8-12.668a1 1 0 0 1 1-1h10a1 1 0 1 1 0 2h-10a1 1 0 0 1-1-1Zm0 5a1 1 0 0 1 1-1h10a1 1 0 1 1 0 2h-10a1 1 0 0 1-1-1Z" clip-rule="evenodd"/></svg>