<svg xmlns="http://www.w3.org/2000/svg" width="33" height="32" fill="none" viewBox="0 0 33 32"><path fill="#111827" fill-rule="evenodd" d="M2.5 16c0-7.732 6.268-14 14-14s14 6.268 14 14-6.268 14-14 14c-2.37 0-4.6-.588-6.555-1.626a2.037 2.037 0 0 0-1.456-.18l-5.64 1.432 1.37-5.835a2.037 2.037 0 0 0-.177-1.396A13.936 13.936 0 0 1 2.5 16Zm14-16C7.663 0 .5 7.163.5 16c0 2.632.636 5.117 1.764 7.31a.053.053 0 0 1 .007.025L.902 29.17c-.342 1.46.985 2.764 2.44 2.395l5.639-1.431h.004c.005 0 .013.003.022.008A15.934 15.934 0 0 0 16.5 32c8.837 0 16-7.164 16-16.001 0-8.837-7.163-16-16-16Zm-4.627 11.373a1 1 0 0 1 1.414 0l3.213 3.213 3.213-3.213a1 1 0 0 1 1.414 1.414L17.914 16l3.213 3.213a1 1 0 0 1-1.414 1.414L16.5 17.414l-3.213 3.213a1 1 0 0 1-1.414-1.414L15.086 16l-3.213-3.213a1 1 0 0 1 0-1.414Z" clip-rule="evenodd"/></svg>