<svg xmlns="http://www.w3.org/2000/svg" width="33" height="32" fill="none" viewBox="0 0 33 32"><path fill="#111827" fill-rule="evenodd" d="M1.5.389a1 1 0 0 0-1 1v21.565a1 1 0 0 0 1.63.776l5.635-4.572H8v6.658a1 1 0 0 0 1 1h16.235l5.634 4.572a1 1 0 0 0 1.63-.777V9.047a1 1 0 0 0-1-1h-6.5V1.388a1 1 0 0 0-1-1H1.501ZM23 8.935a1.019 1.019 0 0 0 0 .223v8H9.182a1.01 1.01 0 0 0-.365 0H7.41a1 1 0 0 0-.63.224L2.5 20.854V2.39H23v6.546ZM10 19.158h14a1 1 0 0 0 1-1v-8.112h5.499v18.466l-4.28-3.473a1 1 0 0 0-.63-.223H10.002v-5.658Z" clip-rule="evenodd"/></svg>