<svg xmlns="http://www.w3.org/2000/svg" width="33" height="32" fill="none" viewBox="0 0 33 32"><path fill="#111827" fill-rule="evenodd" d="M16.5 2c-7.732 0-14 6.269-14 14 0 7.732 6.268 14 14 14 7.731 0 13.999-6.268 13.999-14 0-7.731-6.268-14-14-14M.5 16c0-8.836 7.164-16 16-16s15.999 7.164 15.999 16-7.163 16-16 16C7.665 32 .502 24.835.502 16m9.99.391a1 1 0 0 1 1.414 0l4.596 4.596 4.596-4.596a1 1 0 0 1 1.414 1.414l-5.303 5.303a1 1 0 0 1-1.415 0l-5.302-5.303a1 1 0 0 1 0-1.414m1.414-7.5a1 1 0 1 0-1.415 1.415l5.304 5.303a1 1 0 0 0 1.414 0l5.303-5.303a1 1 0 0 0-1.415-1.414L16.5 13.488z" clip-rule="evenodd"/></svg>