<svg xmlns="http://www.w3.org/2000/svg" width="33" height="32" fill="none" viewBox="0 0 33 32"><path fill="#111827" fill-rule="evenodd" d="M16.5 2c-7.732 0-14 6.268-14 14 0 7.731 6.268 13.999 14 13.999 7.731 0 13.999-6.268 13.999-14 0-7.73-6.268-13.998-14-13.998ZM.5 16c0-8.836 7.164-16 16-16s15.999 7.164 15.999 16-7.163 15.999-16 15.999c-8.835 0-15.998-7.163-15.998-16Zm15.608-6.01a1 1 0 0 1 0 1.414L11.514 16l4.595 4.596a1 1 0 0 1-1.414 1.414l-5.303-5.303a1 1 0 0 1 0-1.414l5.303-5.303a1 1 0 0 1 1.414 0Zm7.5 1.414a1 1 0 0 0-1.414-1.414l-5.303 5.303a1 1 0 0 0 0 1.414l5.303 5.303a1 1 0 1 0 1.414-1.414L19.012 16l4.596-4.596Z" clip-rule="evenodd"/></svg>