<svg xmlns="http://www.w3.org/2000/svg" width="33" height="32" fill="none" viewBox="0 0 33 32"><path fill="#111827" fill-rule="evenodd" d="M17.5 3.087V2.036C24.765 2.549 30.499 8.605 30.499 16v.086zm-2 .415v26.462C8.235 29.45 2.5 23.395 2.5 16s5.735-13.451 13-13.964v1.466m2 19.913v6.549a13.9 13.9 0 0 0 5.16-1.39zm6.943 4.114a14 14 0 0 0 3.054-2.866L17.5 14.665v5.921zM17.5 11.837l11.14 11.14a13.9 13.9 0 0 0 1.606-4.315L17.5 5.916zM32.499 16c0 8.836-7.163 15.999-16 15.999-8.835 0-15.998-7.163-15.998-16C.5 7.165 7.664.002 16.5.002S32.499 7.164 32.499 16" clip-rule="evenodd"/></svg>