<svg xmlns="http://www.w3.org/2000/svg" width="33" height="32" fill="none"><path fill="#111827" fill-rule="evenodd" d="M2.5 16c0-7.732 6.268-14 14-14 3.506 0 6.71 1.29 9.166 3.42l-7.686 7.685L5.92 25.166A13.945 13.945 0 0 1 2.501 16Zm13.227 2.187 2.96-2.96 9.082 9.08a14.079 14.079 0 0 1-2.96 2.961l-9.082-9.081ZM14.313 19.6l-2.96 2.96 7.276 7.277a13.9 13.9 0 0 0 4.445-1.476l-8.761-8.761Zm-6.98 6.98 2.605-2.605 6.013 6.012a13.941 13.941 0 0 1-8.618-3.407Zm17.86 2.853a15.924 15.924 0 0 1-8.693 2.565c-4.41 0-8.403-1.784-11.297-4.67l-.016-.016-.017-.017A15.949 15.949 0 0 1 .5 16c0-8.836 7.164-16 16-16s15.999 7.164 15.999 16a15.924 15.924 0 0 1-2.624 8.782 16.085 16.085 0 0 1-4.683 4.652Zm-5.091-15.622 8.76 8.761a13.905 13.905 0 0 0 1.476-4.445l-7.276-7.276-2.96 2.96Zm4.374-4.374 6.012 6.012a13.94 13.94 0 0 0-3.407-8.617l-2.605 2.605Z" clip-rule="evenodd"/></svg>