<svg xmlns="http://www.w3.org/2000/svg" width="33" height="32" fill="none" viewBox="0 0 33 32"><path fill="#111827" fill-rule="evenodd" d="M17.047.288a1 1 0 0 0-1.25-.018l-3.972 3.09H5.391a1 1 0 0 0-1 1v5.914L.7 15.194a1 1 0 0 0 .04 1.25l3.65 4.258v5.995a1 1 0 0 0 1 1h6.363l3.95 3.95a1 1 0 0 0 1.435-.02l3.711-3.93h6.936a1 1 0 0 0 1-1v-6.008l3.487-4.262a1 1 0 0 0 .04-1.216l-3.527-4.925V4.36a1 1 0 0 0-1-1h-7.008zm-4.265 4.861 3.612-2.808 3.39 2.791a1 1 0 0 0 .635.228h6.367v5.247a1 1 0 0 0 .187.582l3.267 4.564-3.228 3.945a1 1 0 0 0-.226.634v5.365H20.42a1 1 0 0 0-.727.313l-3.3 3.495-3.517-3.515a1 1 0 0 0-.707-.293H6.391v-5.365a1 1 0 0 0-.241-.651l-3.368-3.93 3.409-4.544a1 1 0 0 0 .2-.6V5.36h5.777a1 1 0 0 0 .614-.21m8.962 8.483a1 1 0 0 0-1.414-1.414l-5.442 5.442-2.218-2.219a1 1 0 0 0-1.415 1.414l2.926 2.926a1 1 0 0 0 1.414 0z" clip-rule="evenodd"/></svg>