<svg xmlns="http://www.w3.org/2000/svg" width="33" height="32" fill="none"><path fill="#111827" fill-rule="evenodd" d="M17.5 3.087V2.036C24.765 2.549 30.499 8.605 30.499 16v.086l-13-12.999Zm-2 .415V29.964C8.235 29.45 2.5 23.395 2.5 16c0-7.395 5.735-13.451 13-13.964v1.466Zm2 19.913v6.549a13.916 13.916 0 0 0 5.16-1.39l-5.16-5.16Zm6.943 4.114a14.078 14.078 0 0 0 3.054-2.866L17.5 14.665v5.921l6.943 6.943ZM17.5 11.837l11.14 11.14a13.907 13.907 0 0 0 1.606-4.315L17.5 5.916v5.92ZM32.499 16c0 8.836-7.163 15.999-16 15.999-8.835 0-15.998-7.163-15.998-16C.5 7.165 7.664.002 16.5.002S32.499 7.164 32.499 16Z" clip-rule="evenodd"/></svg>