<svg xmlns="http://www.w3.org/2000/svg" width="33" height="32" fill="none" viewBox="0 0 33 32"><path fill="#111827" fill-rule="evenodd" d="M2.5 16c0-7.732 6.268-14 14-14 3.506 0 6.71 1.29 9.166 3.42l-7.686 7.685L5.92 25.166A13.95 13.95 0 0 1 2.501 16m13.227 2.187 2.96-2.96 9.082 9.08a14 14 0 0 1-2.96 2.961zM14.313 19.6l-2.96 2.96 7.276 7.277a13.9 13.9 0 0 0 4.445-1.476zm-6.98 6.98 2.605-2.605 6.013 6.012a13.94 13.94 0 0 1-8.618-3.407m17.86 2.853a15.92 15.92 0 0 1-8.693 2.565c-4.41 0-8.403-1.784-11.297-4.67l-.016-.016-.017-.017A15.95 15.95 0 0 1 .5 16c0-8.836 7.164-16 16-16s15.999 7.164 15.999 16a15.92 15.92 0 0 1-2.624 8.782 16.1 16.1 0 0 1-4.683 4.652m-5.091-15.622 8.76 8.761a13.9 13.9 0 0 0 1.476-4.445l-7.276-7.276zm4.374-4.374 6.012 6.012a13.94 13.94 0 0 0-3.407-8.617z" clip-rule="evenodd"/></svg>