<svg xmlns="http://www.w3.org/2000/svg" width="33" height="32" fill="none" viewBox="0 0 33 32"><path fill="#111827" fill-rule="evenodd" d="M7.637 2a5.136 5.136 0 1 0 0 10.273A5.136 5.136 0 0 0 7.637 2M.5 7.138a7.136 7.136 0 1 1 14.272 0 7.136 7.136 0 0 1-14.272 0M25.363 2a5.136 5.136 0 1 0 0 10.272 5.136 5.136 0 0 0 0-10.272m-7.136 5.136a7.136 7.136 0 1 1 14.272 0 7.136 7.136 0 0 1-14.272 0M2.5 24.863a5.136 5.136 0 1 1 10.272 0 5.136 5.136 0 0 1-10.272 0m5.136-7.136a7.136 7.136 0 1 0 0 14.272 7.136 7.136 0 0 0 0-14.272m17.726 1.364a1 1 0 0 1 1 1v3.772h3.772a1 1 0 1 1 0 2h-3.772v3.773a1 1 0 1 1-2 0v-3.773H20.59a1 1 0 1 1 0-2h3.773v-3.772a1 1 0 0 1 1-1" clip-rule="evenodd"/></svg>