<svg xmlns="http://www.w3.org/2000/svg" width="33" height="32" fill="none"><path fill="#111827" fill-rule="evenodd" d="M15.798.27a1 1 0 0 1 1.25.018l3.73 3.072h7.008a1 1 0 0 1 1 1v5.926l3.526 4.925a1 1 0 0 1-.039 1.216l-3.487 4.262v6.008a1 1 0 0 1-1 1H20.85l-3.711 3.93a1 1 0 0 1-1.434.02l-3.951-3.95H5.39a1 1 0 0 1-1-1v-5.995L.74 16.444a1 1 0 0 1-.04-1.25l3.69-4.92V4.36a1 1 0 0 1 1-1h6.434L15.798.27Zm.596 2.07-3.612 2.81a1 1 0 0 1-.614.21H6.391v5.247a1 1 0 0 1-.2.6l-3.409 4.545L6.15 19.68a1 1 0 0 1 .24.65v5.366h5.778a1 1 0 0 1 .707.293l3.516 3.515 3.301-3.495a1 1 0 0 1 .727-.313h6.367v-5.365a1 1 0 0 1 .226-.634l3.228-3.945-3.267-4.564a1 1 0 0 1-.187-.582V5.36H20.42a1 1 0 0 1-.636-.228l-3.39-2.791Zm.106 21.245a1.724 1.724 0 1 0 0-3.447 1.724 1.724 0 0 0 0 3.447Zm-2.853-11.317A2.853 2.853 0 1 1 16.5 15.12a1 1 0 0 0-1 1v1.8a1 1 0 1 0 2 0v-.903a4.855 4.855 0 0 0-1-9.603 4.853 4.853 0 0 0-4.853 4.853 1 1 0 0 0 2 0Z" clip-rule="evenodd"/></svg>