<svg xmlns="http://www.w3.org/2000/svg" width="33" height="32" fill="none" viewBox="0 0 33 32"><path fill="#111827" fill-rule="evenodd" d="M2.5 7.137a5.136 5.136 0 1 1 10.273 0 5.136 5.136 0 0 1-10.272 0M7.638 0a7.136 7.136 0 1 0 0 14.272A7.136 7.136 0 0 0 7.637 0m12.59 7.136a5.136 5.136 0 1 1 10.272 0 5.136 5.136 0 0 1-10.272 0M25.363 0a7.136 7.136 0 1 0 0 14.272 7.136 7.136 0 0 0 0-14.272M7.637 19.727a5.136 5.136 0 1 0 0 10.272 5.136 5.136 0 0 0 0-10.272M.5 24.863a7.136 7.136 0 1 1 14.272 0 7.136 7.136 0 0 1-14.272 0m19.726 0a5.136 5.136 0 1 1 10.272 0 5.136 5.136 0 0 1-10.272 0m5.136-7.136a7.136 7.136 0 1 0 0 14.272 7.136 7.136 0 0 0 0-14.272" clip-rule="evenodd"/></svg>