<svg xmlns="http://www.w3.org/2000/svg" width="33" height="32" fill="none" viewBox="0 0 33 32"><g clip-path="url(#a)"><path fill="#111827" fill-rule="evenodd" d="M.502 1.663h5.385v28.674H.502V1.663Zm2 2v24.674h1.385V3.663H2.502Zm4.731-2h5.385v28.674H7.233V1.663Zm2 2v24.674h1.385V3.663H9.233Zm5.604-2h-1v28.674h5.385V1.663h-4.385Zm1 26.674V3.663h1.385v24.674h-1.385ZM20.44 1.663h5.385v28.674H20.44V1.663Zm2 2v24.674h1.385V3.663H22.44Zm5.673 8.88h-1v6.974h5.385v-6.974h-4.385Zm1 4.974v-2.974h1.385v2.974h-1.385Z" clip-rule="evenodd"/></g><defs><clipPath id="a"><path fill="#fff" d="M.5 0h32v32H.5z"/></clipPath></defs></svg>