<svg xmlns="http://www.w3.org/2000/svg" width="33" height="32" fill="none" viewBox="0 0 33 32"><path fill="#111827" fill-rule="evenodd" d="M9.999 4.4A7 7 0 0 0 9.5 7v1.2a1 1 0 0 0 1 1h12a1 1 0 0 0 1-1V7c0-.918-.177-1.795-.5-2.6h4.5V30h-22V4.4zm1.225-2H4.5a1 1 0 0 0-1 1V31a1 1 0 0 0 1 1h23.998a1 1 0 0 0 1-1V3.4a1 1 0 0 0-1-1h-6.723A6.98 6.98 0 0 0 16.5 0c-2.105 0-3.993.93-5.276 2.4M11.5 7a5 5 0 0 1 10 0v.2h-10zm0 6.75a1 1 0 1 0 0 2h10a1 1 0 0 0 0-2zm0 5a1 1 0 1 0 0 2h10a1 1 0 0 0 0-2z" clip-rule="evenodd"/></svg>