<svg xmlns="http://www.w3.org/2000/svg" width="33" height="33" fill="none" viewBox="0 0 33 33"><path fill="#111827" fill-rule="evenodd" d="M18.436 3.422a13.334 13.334 0 1 0 6.827 22.507 1 1 0 0 1 1.415 1.414 15.334 15.334 0 1 1 0-21.686l3.82 3.822V4.074a1 1 0 1 1 2 0v7.8a.997.997 0 0 1-1.011 1.019H23.68a1 1 0 1 1 0-2h5.405L25.263 7.07a13.33 13.33 0 0 0-6.827-3.649m-1.601 5.26a1 1 0 1 0-2 0v7.799a1 1 0 0 0 .131.515 1 1 0 0 0 .385.38l6.755 3.9a1 1 0 1 0 1-1.733l-6.271-3.62z" clip-rule="evenodd"/></svg>