<svg xmlns="http://www.w3.org/2000/svg" width="33" height="33" fill="none"><path fill="#111827" fill-rule="evenodd" d="M16.5 2.5c-7.731 0-14 6.268-14 14 0 7.731 6.269 13.999 14 13.999 7.732 0 14-6.268 14-14 0-7.73-6.268-13.998-14-13.998Zm-16 14c0-8.836 7.164-16 16-16s16 7.164 16 16-7.164 15.999-16 15.999-16-7.163-16-16Zm15.617-.924a.996.996 0 0 1 .38-.076h8.753a1 1 0 0 1 0 2h-6.336l4.48 4.48a1 1 0 0 1-1.414 1.414l-6.187-6.187a.997.997 0 0 1-.293-.704v-.006c0-.272.11-.518.286-.697l.014-.014a.998.998 0 0 1 .317-.21Z" clip-rule="evenodd"/></svg>