<svg xmlns="http://www.w3.org/2000/svg" width="33" height="33" fill="none" viewBox="0 0 33 33"><path fill="#111827" fill-rule="evenodd" d="M1.5 3a1 1 0 0 0-1 1v25a1 1 0 0 0 1 1H31.5a1 1 0 0 0 1-1V4a1 1 0 0 0-1-1zm1 25V5H30.5v23zm9.684-14.805a3.375 3.375 0 1 0 1.727 5.667 1 1 0 1 1 1.428 1.4 5.375 5.375 0 1 1 0-7.523 1 1 0 0 1-1.428 1.4 3.38 3.38 0 0 0-1.727-.944m11.25 0a3.375 3.375 0 1 0 1.726 5.667 1 1 0 1 1 1.429 1.4 5.375 5.375 0 1 1 0-7.523 1 1 0 0 1-1.429 1.4 3.38 3.38 0 0 0-1.727-.944" clip-rule="evenodd"/></svg>