<svg xmlns="http://www.w3.org/2000/svg" width="33" height="32" fill="none" viewBox="0 0 33 32"><path fill="#111827" fill-rule="evenodd" d="M5.66 1.574a1 1 0 1 0-1.53 1.288l6.394 7.593a1 1 0 0 0-.17.239l-.075.149a8.5 8.5 0 0 0-8.527 3.965 8.5 8.5 0 0 0 7.242 12.94h15.971q.058 0 .115-.006l2.26 2.684a1 1 0 1 0 1.53-1.288zm17.742 24.175-11.5-13.657a9.7 9.7 0 0 0-.835 3.94 1 1 0 1 1-2 0c0-1.108.157-2.207.464-3.264a6.501 6.501 0 1 0-.535 12.98zm-4.084-19.32a9.716 9.716 0 0 1 9.243 15.427c-.27.348-.562.687-.863 1.012a1 1 0 0 0 1.468 1.359c.337-.364.667-.749.98-1.15l.01-.014A11.716 11.716 0 0 0 13.933 6.529a1 1 0 0 0 1.17 1.622 9.7 9.7 0 0 1 4.215-1.723" clip-rule="evenodd"/></svg>