<svg xmlns="http://www.w3.org/2000/svg" width="33" height="33" fill="none" viewBox="0 0 33 33"><path fill="#111827" fill-rule="evenodd" d="M19.022 2.598a8.525 8.525 0 0 1 8.11 13.536 16 16 0 0 1-1.702 1.833c-1.18 1.097-2.832 1.584-4.6 1.584h-11a5.668 5.668 0 1 1 .331-11.326c-.25.909-.38 1.85-.38 2.8a1 1 0 1 0 2 0 8.525 8.525 0 0 1 7.24-8.427M14.95 21.551H9.828a7.668 7.668 0 1 1 1.08-15.26l.03-.062a10.526 10.526 0 1 1 17.79 11.112l-.011.014c-.6.772-1.28 1.477-1.925 2.078-1.657 1.54-3.857 2.118-5.962 2.118h-3.476l-2.318 3.474h5.117a1 1 0 0 1 .831 1.555l-3.652 5.474a1 1 0 0 1-1.664-1.11l2.615-3.919h-5.116a1 1 0 0 1-.832-1.555z" clip-rule="evenodd"/></svg>