<svg xmlns="http://www.w3.org/2000/svg" width="33" height="33" fill="none" viewBox="0 0 33 33"><path fill="#111827" fill-rule="evenodd" d="M19.113 2.603a8.892 8.892 0 0 1 8.46 14.118 16.664 16.664 0 0 1-1.853 1.982c-1.188 1.093-2.843 1.58-4.61 1.58H9.574a5.924 5.924 0 1 1 .394-11.835 10.892 10.892 0 0 0-.405 2.944 1 1 0 0 0 2 0 8.893 8.893 0 0 1 7.55-8.79Zm-4.162 19.68H9.572a7.924 7.924 0 1 1 1.142-15.766l.044-.088a10.891 10.891 0 1 1 18.41 11.498l-.011.014a18.629 18.629 0 0 1-2.083 2.234c-1.662 1.528-3.857 2.109-5.963 2.109h-3.748l-4.26 6.313a1 1 0 0 1-1.658-1.119l3.506-5.194Zm4.738 2.611a1 1 0 0 1 .286 1.385l-3.793 5.77a1 1 0 0 1-1.671-1.1l3.793-5.768a1 1 0 0 1 1.385-.287Z" clip-rule="evenodd"/></svg>