<svg xmlns="http://www.w3.org/2000/svg" width="33" height="32" fill="none"><path fill="#111827" fill-rule="evenodd" d="M19.318 6.395a9.717 9.717 0 0 1 9.244 15.428c-.51.656-1.09 1.277-1.672 1.835-1.5 1.442-3.633 2.058-5.89 2.058H8.996a6.503 6.503 0 1 1 1.616-12.8l.774.197.364-.711c.358-.7.896-1.561 1.508-2.364.62-.813 1.27-1.507 1.845-1.92a9.717 9.717 0 0 1 4.216-1.723Zm5.17-1.51a11.717 11.717 0 0 0-10.556 1.61c-.803.579-1.594 1.449-2.266 2.33-.5.656-.957 1.349-1.33 1.993a8.501 8.501 0 1 0-1.343 16.899h12.008c2.584 0 5.284-.705 7.275-2.616a19.45 19.45 0 0 0 1.87-2.057l.006-.007.005-.007a11.717 11.717 0 0 0-5.669-18.145Zm-4.776 6.364c.285 0 .543.12.725.312l4.528 4.528a1 1 0 0 1-1.414 1.414l-2.84-2.839v8.302a1 1 0 1 1-2 0v-8.303l-2.84 2.84a1 1 0 0 1-1.414-1.414l4.547-4.547a.995.995 0 0 1 .707-.293Z" clip-rule="evenodd"/></svg>