<svg xmlns="http://www.w3.org/2000/svg" width="33" height="32" fill="none" viewBox="0 0 33 32"><path fill="#111827" fill-rule="evenodd" d="M15.394 4.38a1 1 0 0 1 .722-.292 1 1 0 0 1 .707.308l2.734 2.734a1 1 0 0 1-1.414 1.414L17.1 7.502v4.624a8 8 0 0 1 4.323.206 8 8 0 0 1 3.62 2.472l4.055-4.055h-1.503a1 1 0 0 1 0-2h3.888a1 1 0 0 1 .707.293l.006.006.009.008a1 1 0 0 1 .278.877v3.703a1 1 0 1 1-2 0v-1.444l-4.179 4.179q-.081.08-.175.14a8 8 0 0 1-.837 8.203l-.011.014c-.267.343-.553.667-.84.966-1.601 1.664-3.862 2.218-5.95 2.218H11.2a5.898 5.898 0 0 1-4.165-10.066l-4.52-4.52v1.444a1 1 0 1 1-2 0v-3.704a1 1 0 0 1 .279-.876l.004-.005.01-.01a1 1 0 0 1 .707-.292h3.888a1 1 0 0 1 0 2H3.9l4.796 4.796a5.9 5.9 0 0 1 3.146-.526 8 8 0 0 1 3.26-3.274V7.502l-1.043 1.042a1 1 0 1 1-1.414-1.414zm2.598 9.61a5.994 5.994 0 0 1 6.813 6.943 6 6 0 0 1-1.107 2.574c-.216.277-.452.545-.698.8-1.084 1.127-2.723 1.605-4.508 1.605h-7.29a3.896 3.896 0 0 1-.097-7.792 8 8 0 0 0-.205 1.796 1 1 0 0 0 2 0 6 6 0 0 1 5.092-5.926" clip-rule="evenodd"/></svg>