<svg xmlns="http://www.w3.org/2000/svg" width="33" height="32" fill="none" viewBox="0 0 33 32"><path fill="#111827" fill-rule="evenodd" d="M19.318 6.396a9.715 9.715 0 0 1 9.242 15.426c-.664.854-1.446 1.647-2.19 2.318-1.207 1.085-2.864 1.575-4.629 1.575H8.997a6.5 6.5 0 1 1 .535-12.98 11.715 11.715 0 0 0-.465 3.264 1 1 0 0 0 2 0 9.715 9.715 0 0 1 8.25-9.603ZM7.534 10.841c.91-.16 1.837-.17 2.746-.031.024-.05.05-.1.075-.149a11.716 11.716 0 1 1 19.8 12.368l-.01.014c-.758.975-1.63 1.857-2.438 2.583-1.672 1.505-3.857 2.089-5.966 2.089H8.995a8.502 8.502 0 0 1-7.242-12.94 8.5 8.5 0 0 1 5.781-3.934Zm18.792 4.578a1 1 0 0 0-1.414-1.415l-5.62 5.62-2.455-2.456a1 1 0 0 0-1.414 1.414l3.163 3.163a1 1 0 0 0 1.414 0l6.326-6.326Z" clip-rule="evenodd"/></svg>