<svg xmlns="http://www.w3.org/2000/svg" width="33" height="33" fill="none" viewBox="0 0 33 33"><path stroke="#111827" stroke-linecap="round" stroke-linejoin="round" stroke-width="2" d="M6.328 19.294c-1.302-.552-2.048-1.188-2.958-2.27a8.969 8.969 0 0 1-1.87-3.74c.662.146 1.337.22 2.015.223a8.97 8.97 0 0 0 8.955-8.955 9.562 9.562 0 0 0-.224-2.015 8.955 8.955 0 0 1 6.94 8.732c0 .14 0 .28-.013.42"/><path stroke="#111827" stroke-linecap="round" stroke-linejoin="round" stroke-width="2" d="M13.016 17.235a6.718 6.718 0 1 0-1.67 13.227H21.71c2.42 0 4.847-.653 6.559-2.364.454-.453.904-.95 1.312-1.474a9.598 9.598 0 1 0-17.276-5.759"/></svg>