<svg xmlns="http://www.w3.org/2000/svg" width="33" height="32" fill="none"><path fill="#111827" fill-rule="evenodd" d="M16.011 1.853a1 1 0 0 1 .977 0l15 8.393a1 1 0 0 1 .502 1.004c.006.044.009.09.009.135v8.955a1 1 0 0 1-.489.868l-14.999 8.926a1 1 0 0 1-1.023 0L.99 21.208a1 1 0 0 1-.488-.884v-8.94c0-.045.003-.09.009-.133a1 1 0 0 1 .502-1.005l15-8.393Zm-13.51 16.79 4.993-2.794-4.993-2.972v5.766Zm6.978-1.613L3.5 20.375l11.999 7.14v-6.902L9.479 17.03Zm8.02 10.486 12-7.14-5.978-3.346-6.021 3.583v6.903Zm4.006-11.614L16.5 18.881l-5.005-2.979 4.996-2.796h.017l4.997 2.796Zm4-.053 4.994 2.794v-5.766l-4.994 2.972ZM23.49 14.72l-5.99-3.352V4.431l11.999 6.714-6.01 3.576Zm-7.99-3.352V4.431l-12 6.714 6.01 3.576 5.99-3.352Z" clip-rule="evenodd"/></svg>