<svg xmlns="http://www.w3.org/2000/svg" width="33" height="32" fill="none" viewBox="0 0 33 32"><path fill="#111827" fill-rule="evenodd" d="M19.802 6.921a1 1 0 0 1 .598 1.282l-5.92 16.278a1 1 0 1 1-1.88-.684L18.52 7.52a1 1 0 0 1 1.282-.598M9.736 10.765a1 1 0 0 1 0 1.414L5.915 16l3.82 3.822a1 1 0 0 1-1.413 1.414l-4.529-4.529a1 1 0 0 1 0-1.414l4.529-4.528a1 1 0 0 1 1.414 0m14.942 0a1 1 0 0 0-1.414 1.414L27.085 16l-3.82 3.822a1 1 0 0 0 1.413 1.414l4.529-4.529a1 1 0 0 0 0-1.414z" clip-rule="evenodd"/></svg>