<svg xmlns="http://www.w3.org/2000/svg" width="33" height="33" fill="none" viewBox="0 0 33 33"><path fill="#111827" fill-rule="evenodd" d="M10.577 2.654a1 1 0 1 0-2 0V7.27a1 1 0 0 0 2 0V2.654Zm4.615 0a1 1 0 1 0-2 0V7.27a1 1 0 0 0 2 0V2.654Zm3.616-1a1 1 0 0 1 1 1V7.27a1 1 0 1 1-2 0V2.654a1 1 0 0 1 1-1ZM1.5 29.344a1 1 0 1 0 0 2h7.355a.977.977 0 0 0 .084 0h10.504c.028.002.057.002.085 0h7.355a1 1 0 1 0 0-2h-3.946a13.694 13.694 0 0 0 4.202-6.082 5.615 5.615 0 0 0 5.36-5.609V16.5a5.615 5.615 0 0 0-5.616-5.616H1.5a1 1 0 0 0-1 1v6.923a13.693 13.693 0 0 0 4.946 10.538H1.501Zm26.383-16.319v5.782c0 .8-.07 1.593-.207 2.373a3.615 3.615 0 0 0 2.822-3.527V16.5a3.615 3.615 0 0 0-2.615-3.475ZM25.47 21.89c.273-1 .413-2.036.413-3.083v-5.923H2.5v5.923a11.693 11.693 0 0 0 6.62 10.538h10.143a11.693 11.693 0 0 0 6.146-7.242.99.99 0 0 1 .06-.213Z" clip-rule="evenodd"/></svg>