<svg xmlns="http://www.w3.org/2000/svg" width="33" height="32" fill="none" viewBox="0 0 33 32"><g clip-path="url(#a)"><path fill="#111827" fill-rule="evenodd" d="M15.048 16.18h.001c.577-.238 1.255-.509 2-.807 2.95-1.179 6.96-2.782 10.025-4.423h.001c1.172-.627 1.874-1.28 2.293-1.928.409-.633.632-1.392.632-2.388a4.631 4.631 0 0 0-4.63-4.631H10.023A7.523 7.523 0 0 0 2.5 9.527c0 4.078 3.023 7.524 8.369 7.524.707 0 2.138-.03 4.179-.87Zm12.97-3.467C30.788 11.233 32 9.271 32 6.633c0-3.661-2.969-6.63-6.63-6.63H10.023A9.523 9.523 0 0 0 .5 9.527c0 5.259 3.996 9.524 10.369 9.524.86 0 2.575-.047 4.941-1.022.545-.224 1.196-.484 1.921-.774 2.947-1.178 7.11-2.841 10.287-4.542Zm-5.786 4.998-4.833 2.005a6.381 6.381 0 0 0 2.445 12.273h5.232a7.421 7.421 0 0 0 7.424-7.421c0-5.292-5.381-8.886-10.268-6.857ZM19.845 29.99h5.232a5.421 5.421 0 0 0 5.423-5.421c0-3.867-3.932-6.492-7.501-5.01l-4.833 2.005a4.382 4.382 0 0 0 1.679 8.426Zm-17.34-4.193a3.49 3.49 0 0 1 6.98 0v.711a3.49 3.49 0 0 1-6.98 0v-.711Zm3.49-5.49a5.49 5.49 0 0 0-5.49 5.49v.711a5.49 5.49 0 0 0 10.98 0v-.711a5.49 5.49 0 0 0-5.49-5.49Z" clip-rule="evenodd"/></g><defs><clipPath id="a"><path fill="#fff" d="M.5 0h32v32H.5z"/></clipPath></defs></svg>