<svg xmlns="http://www.w3.org/2000/svg" width="33" height="33" fill="none" viewBox="0 0 33 33"><path fill="#111827" fill-rule="evenodd" d="M6.313 8.87C3.673 10.09 2.5 11.573 2.5 12.859s1.172 2.768 3.812 3.987c2.552 1.178 6.147 1.934 10.171 1.936h.031c4.025-.002 7.62-.758 10.172-1.936 2.64-1.219 3.812-2.7 3.812-3.987s-1.172-2.769-3.812-3.987C24.13 7.69 20.53 6.935 16.5 6.935s-7.632.756-10.187 1.936ZM8.27 19.69c2.14.618 4.606.998 7.23 1.076v5.279c-2.554-.096-5.037-.54-7.23-1.288v-5.068Zm-2-.686c-.273-.11-.538-.224-.795-.343-1.124-.519-2.15-1.15-2.974-1.885v3.06c0 1.026.36 1.92 1.027 2.445.8.63 1.724 1.188 2.742 1.67v-4.947Zm-5.762-5.9a4.376 4.376 0 0 1-.007-.246c0-2.537 2.186-4.516 4.974-5.803 2.873-1.326 6.772-2.12 11.025-2.12s8.152.794 11.025 2.12c2.788 1.287 4.974 3.266 4.974 5.803 0 .082-.002.164-.007.245a.998.998 0 0 1 .007.118v6.529c0 1.516-.56 3.119-1.888 4.142-3.828 2.948-9.234 4.238-14.447 4.17-5.208-.068-10.422-1.494-13.873-4.209-1.28-1.007-1.79-2.567-1.79-4.018v-6.614c0-.04.002-.079.007-.118Zm29.99 3.672c-.824.735-1.85 1.366-2.973 1.885-.257.119-.522.233-.795.343v4.93a15.194 15.194 0 0 0 2.661-1.627c.717-.552 1.108-1.493 1.108-2.557v-2.974ZM17.5 20.766c2.624-.077 5.09-.458 7.23-1.077v5.07c-2.233.778-4.713 1.205-7.23 1.29v-5.283Z" clip-rule="evenodd"/></svg>