<svg xmlns="http://www.w3.org/2000/svg" width="33" height="32" fill="none" viewBox="0 0 33 32"><g fill="#000" clip-path="url(#a)"><path d="M14.452.636a2.173 2.173 0 1 0-3.073 3.073l17.07 17.07a2.173 2.173 0 1 0 3.073-3.072zM1.136 10.879a2.173 2.173 0 0 1 3.073 0l17.07 17.07a2.173 2.173 0 1 1-3.072 3.073l-17.07-17.07a2.173 2.173 0 0 1 0-3.073M11.72 11.22a2.173 2.173 0 0 1 3.073 0l17.07 17.07a2.173 2.173 0 0 1-3.072 3.074L11.72 14.293a2.173 2.173 0 0 1 0-3.073"/></g><defs><clipPath id="a"><path fill="#fff" d="M.5 0h32v32H.5z"/></clipPath></defs></svg>