<svg xmlns="http://www.w3.org/2000/svg" width="33" height="32" fill="none" viewBox="0 0 33 32"><path fill="#111827" fill-rule="evenodd" d="M6.751.002a6.25 6.25 0 0 1 6.25 6.25V10.5H20V6.25a6.25 6.25 0 1 1 6.249 6.25h-4.25v6.998h4.25a6.25 6.25 0 1 1-6.25 6.25v-4.25h-6.998v4.25a6.25 6.25 0 1 1-6.25-6.25h4.25v-6.998H6.75a6.25 6.25 0 1 1 0-12.5m4.25 6.25A4.25 4.25 0 1 0 6.75 10.5h4.25zm15.248-4.25a4.25 4.25 0 0 0-4.25 4.25V10.5h4.25a4.25 4.25 0 1 0 0-8.5M13 12.5V19.5h6.998v-7zm13.248 17.497a4.25 4.25 0 0 1-4.25-4.25V21.5h4.25a4.25 4.25 0 1 1 0 8.5M11 25.748A4.25 4.25 0 1 1 6.75 21.5h4.25z" clip-rule="evenodd"/></svg>