<svg xmlns="http://www.w3.org/2000/svg" width="33" height="32" fill="none" viewBox="0 0 33 32"><path fill="#111827" fill-rule="evenodd" d="M2.5 16c0-7.731 6.268-14 14-14C24.23 2 30.499 8.27 30.499 16c0 7.732-6.268 14-14 14-7.73 0-13.998-6.268-13.998-14m14-16C7.664 0 .5 7.165.5 16s7.164 16 16 16 15.999-7.164 15.999-16-7.163-16-16-16m7.951 9.354a1 1 0 0 0-1.325-1.322l-9.692 4.406a1 1 0 0 0-.505.516l-3.978 9.28a1 1 0 0 0 1.313 1.314l9.28-3.977a1 1 0 0 0 .518-.508zm-12.677 11.37 2.84-6.626 6.92-3.145-3.134 6.933z" clip-rule="evenodd"/></svg>