<svg xmlns="http://www.w3.org/2000/svg" width="33" height="33" fill="none" viewBox="0 0 33 33"><path fill="#111827" fill-rule="evenodd" d="M18.64 1.5a1 1 0 1 0-2 0v3.522a1 1 0 0 0 2 0zm9.563.174a1 1 0 0 1 1 1h-1l1 .001v.026a3 3 0 0 1-.01.196 5.326 5.326 0 0 1-.536 1.985 4.1 4.1 0 0 1-1.385 1.595c-.677.452-1.535.719-2.59.719-.705 0-1.168.173-1.481.382-.32.213-.545.504-.706.825a3.3 3.3 0 0 0-.334 1.307v.012a1 1 0 0 1-2-.005h1l-1-.001V9.69a3 3 0 0 1 .01-.196 5.325 5.325 0 0 1 .536-1.985 4.1 4.1 0 0 1 1.385-1.595c.677-.452 1.535-.718 2.59-.718.705 0 1.168-.174 1.48-.383.32-.213.546-.504.707-.825a3.3 3.3 0 0 0 .334-1.307v-.012a1 1 0 0 1 1-.995M5.221 23.36l-2.303 6.499 6.506-2.296zm6.293 3.465-5.553-5.553 2.023-5.711 9.247 9.246zm.204 2.049 15.454-5.455a1 1 0 0 0 .372-1.652l-16.54-16.44a1 1 0 0 0-1.648.374L.333 31.165a1 1 0 0 0 1.276 1.277l9.853-3.478a1 1 0 0 0 .256-.09m7.604-4.805 5.683-2.006L10.714 7.858l-1.99 5.614zm8.174-9.19a1 1 0 0 1 1.414 0l2.347 2.347a1 1 0 0 1-1.414 1.414l-2.347-2.348a1 1 0 0 1 0-1.414m4.544-4.214a1 1 0 1 0-.632-1.897l-3.521 1.174a1 1 0 0 0 .632 1.897z" clip-rule="evenodd"/></svg>