<svg xmlns="http://www.w3.org/2000/svg" width="33" height="32" fill="none" viewBox="0 0 33 32"><path fill="#111827" fill-rule="evenodd" d="M21.813 2.277a1 1 0 0 1 .759.1l4.715 2.722a1 1 0 0 1 .366 1.366l-1.275 2.21a11.23 11.23 0 0 1 2.083 3.602h2.548a1 1 0 0 1 1 1v5.445a1 1 0 0 1-1 1H28.46a11.232 11.232 0 0 1-2.083 3.604l1.275 2.208a1 1 0 0 1-.366 1.366l-4.715 2.723a1 1 0 0 1-1.366-.366l-1.275-2.208a11.301 11.301 0 0 1-4.162 0l-1.274 2.208a1 1 0 0 1-1.366.366L8.413 26.9a1 1 0 0 1-.366-1.366l1.275-2.209a11.236 11.236 0 0 1-2.007-3.395h2.168a9.263 9.263 0 0 0 1.785 2.557 1 1 0 0 1 .154 1.202l-1.143 1.98 2.983 1.722 1.142-1.977a1 1 0 0 1 1.117-.468 9.261 9.261 0 0 0 2.33.296c.805 0 1.585-.103 2.328-.296a1 1 0 0 1 1.117.468l1.142 1.977 2.983-1.723-1.143-1.979a1 1 0 0 1 .154-1.202 9.23 9.23 0 0 0 2.33-4.03 1 1 0 0 1 .964-.735h2.283v-3.445h-2.282a1 1 0 0 1-.965-.734 9.231 9.231 0 0 0-2.33-4.03 1 1 0 0 1-.153-1.203l1.142-1.979-2.983-1.722-1.141 1.976a1 1 0 0 1-1.118.468 9.26 9.26 0 0 0-2.329-.295c-.806 0-1.586.103-2.33.295a1 1 0 0 1-1.117-.468l-1.14-1.976-2.984 1.723 1.143 1.978a1 1 0 0 1-.154 1.202 9.267 9.267 0 0 0-1.755 2.494H7.338a11.236 11.236 0 0 1 1.984-3.332L8.047 6.465A1 1 0 0 1 8.413 5.1l4.716-2.722a1 1 0 0 1 1.366.366l1.274 2.207a11.3 11.3 0 0 1 4.162 0l1.275-2.207a1 1 0 0 1 .607-.466Zm-4.069 9.293c1.288 0 2.45.55 3.26 1.43h-1.975a3 3 0 1 0 0 6h1.974a4.43 4.43 0 0 1-7.226-1.027l-.005-.01a1 1 0 0 0-1.149-.523H3.868a1.44 1.44 0 0 1 0-2.88h9.024a1 1 0 0 0 .92-.6 4.43 4.43 0 0 1 3.932-2.39Zm5.417 3.351a1 1 0 0 1-.37.071V15h-3.762a1 1 0 1 0 0 2.001h3.762v.008a1 1 0 0 1 .929 1.37A6.432 6.432 0 0 1 12.31 19.44H3.868a3.44 3.44 0 0 1 0-6.88h8.443a6.432 6.432 0 0 1 11.409 1.062 1 1 0 0 1-.56 1.3Z" clip-rule="evenodd"/></svg>