<svg xmlns="http://www.w3.org/2000/svg" width="33" height="32" fill="none" viewBox="0 0 33 32"><path fill="#111827" fill-rule="evenodd" d="M13.373 2.197a1 1 0 0 1 1.367.366l1.297 2.247a11.444 11.444 0 0 1 4.236 0l1.297-2.247a1 1 0 0 1 1.366-.366l4.782 2.761a1 1 0 0 1 .366 1.366l-1.298 2.248a11.376 11.376 0 0 1 2.12 3.667h2.593a1 1 0 0 1 1 1v5.522a1 1 0 0 1-1 1h-2.594a11.38 11.38 0 0 1-2.12 3.666l1.299 2.25a1 1 0 0 1-.366 1.365l-4.782 2.761a1 1 0 0 1-1.366-.366l-1.298-2.247a11.445 11.445 0 0 1-4.235 0l-1.297 2.247a1 1 0 0 1-1.366.366l-4.782-2.76a1 1 0 0 1-.366-1.367l1.298-2.249a11.38 11.38 0 0 1-2.038-3.441h2.168a9.408 9.408 0 0 0 1.816 2.603 1 1 0 0 1 .153 1.202l-1.165 2.02 3.05 1.76 1.164-2.017a1 1 0 0 1 1.117-.468c.755.196 1.548.3 2.366.3.818 0 1.61-.104 2.365-.3a1 1 0 0 1 1.117.468l1.165 2.017 3.05-1.76-1.166-2.02a1 1 0 0 1 .154-1.202 9.375 9.375 0 0 0 2.366-4.093 1 1 0 0 1 .965-.735h2.328v-3.522h-2.328a1 1 0 0 1-.965-.735 9.376 9.376 0 0 0-2.366-4.093 1 1 0 0 1-.154-1.202l1.166-2.019-3.05-1.76-1.164 2.016a1 1 0 0 1-1.118.468 9.404 9.404 0 0 0-2.365-.3c-.819 0-1.611.104-2.366.3a1 1 0 0 1-1.117-.468l-1.165-2.017-3.05 1.761 1.166 2.019a1 1 0 0 1-.154 1.202 9.413 9.413 0 0 0-1.785 2.539H7.51a11.381 11.381 0 0 1 2.014-3.377L8.226 6.324a1 1 0 0 1 .366-1.366l4.781-2.76Zm4.675 9.297c1.321 0 2.512.569 3.337 1.477H19.35a3.029 3.029 0 0 0 0 6.058h2.034a4.506 4.506 0 0 1-7.372-1.019l-.006-.012a1 1 0 0 0-1.15-.524H3.974a1.474 1.474 0 0 1 0-2.948h9.152a1 1 0 0 0 .906-.578c.005-.008.01-.016.013-.024a4.506 4.506 0 0 1 4.002-2.43Zm5.487 3.399a.997.997 0 0 1-.37.071v.007h-3.814a1.029 1.029 0 0 0 0 2.058h3.814v.007a1 1 0 0 1 .93 1.37 6.508 6.508 0 0 1-11.55 1.068h-8.57a3.474 3.474 0 0 1 0-6.948h8.57a6.508 6.508 0 0 1 11.549 1.068 1 1 0 0 1-.559 1.299Z" clip-rule="evenodd"/></svg>