<svg xmlns="http://www.w3.org/2000/svg" width="33" height="32" fill="none" viewBox="0 0 33 32"><path fill="#111827" fill-rule="evenodd" d="M19.635.127a1 1 0 0 1 1.022.03l11.356 7.227a1 1 0 0 1 .486.858v12.412a1 1 0 0 1-.493.862L14.444 31.847l-.032.02a1 1 0 0 1-1.002-.004L.997 24.622a1 1 0 0 1-.496-.864V11.345a1 1 0 0 1 .502-.867l.012-.007zM3.522 11.367l10.39 6.06 15.671-9.219-9.497-6.044zm11.392 7.79 4.206-2.473v10.092l-4.206 2.474zm10.413 3.968L21.12 25.6V15.56l-.001-.052 4.208-2.475zm2-1.176V11.856l3.172-1.866v10.093zM12.914 19.16 2.5 13.086v10.098l10.413 6.074z" clip-rule="evenodd"/></svg>