<svg xmlns="http://www.w3.org/2000/svg" width="33" height="32" fill="none" viewBox="0 0 33 32"><path fill="#111827" fill-rule="evenodd" d="M19.635.127a1 1 0 0 1 1.022.03l11.36 7.229a1 1 0 0 1 .482.855v12.413a1 1 0 0 1-.493.862l-17.562 10.33a1 1 0 0 1-1.034.016L.997 24.623a1 1 0 0 1-.496-.864V11.334a1 1 0 0 1 .514-.863L19.635.127Zm5.692 12.905-4.208 2.476.001.03V25.6l4.207-2.475V13.033Zm2-1.176v10.092l3.172-1.866V9.99l-3.172 1.866Zm-12.413 7.302 4.206-2.475v10.093l-4.206 2.474V19.158Zm5.171-16.994 9.498 6.044-15.672 9.219-10.39-6.06 16.564-9.203ZM2.502 23.184V13.086l10.413 6.074v10.098L2.5 23.184Z" clip-rule="evenodd"/></svg>