<svg xmlns="http://www.w3.org/2000/svg" width="33" height="33" fill="none" viewBox="0 0 33 33"><path fill="#111827" fill-rule="evenodd" d="M14.034 6.1a1 1 0 0 0-2 0v3.467a1 1 0 1 0 2 0zm3.466 0a1 1 0 1 0-2 0v3.467a1 1 0 1 0 2 0zm2.467-1a1 1 0 0 1 1 1v3.467a1 1 0 1 1-2 0V6.1a1 1 0 0 1 1-1M30.1 15.567a1 1 0 0 0-1.2-1.6l-1.867 1.4v-2.334a1 1 0 0 0-1-1H6.967a1 1 0 0 0-1 1v2.333l-1.866-1.4a1 1 0 1 0-1.2 1.6l3.066 2.3V24.9a3 3 0 0 0 3 3h15.066a3 3 0 0 0 3-3v-7.033zM7.967 17.384V24.9a1 1 0 0 0 1 1h15.066a1 1 0 0 0 1-1V14.034H7.967v3.35" clip-rule="evenodd"/></svg>