<svg xmlns="http://www.w3.org/2000/svg" width="33" height="33" fill="none" viewBox="0 0 33 33"><path stroke="#111827" stroke-linecap="round" stroke-linejoin="round" stroke-width="2" d="M31.5 16.418a14.954 14.954 0 0 1-4.402 10.708c-5.773 5.762-15.205 5.827-21.052.14A15 15 0 0 1 16.59 1.51a1.253 1.253 0 0 1 1.22 1.525 4.998 4.998 0 0 0 4.822 6.1 1.254 1.254 0 0 1 1.244 1.243 4.999 4.999 0 0 0 6.098 4.822 1.252 1.252 0 0 1 1.526 1.218Z"/><path fill="#111827" fill-rule="evenodd" d="M9.625 15.26a1.875 1.875 0 1 0 0-3.75 1.875 1.875 0 0 0 0 3.75Zm3.125 6.874a1.875 1.875 0 1 1-3.75 0 1.875 1.875 0 0 1 3.75 0Zm10 1.25a1.875 1.875 0 1 1-3.75 0 1.875 1.875 0 0 1 3.75 0Zm-3.125-7.5a1.875 1.875 0 1 1-3.75 0 1.875 1.875 0 0 1 3.75 0Z" clip-rule="evenodd"/></svg>