<svg width="32" height="32" fill="none" xmlns="http://www.w3.org/2000/svg"><path d="M28 15.934a11.962 11.962 0 0 1-3.522 8.566c-4.618 4.61-12.163 4.662-16.841.113a12 12 0 0 1 8.435-20.605 1.002 1.002 0 0 1 .976 1.22 4 4 0 0 0 3.857 4.88 1.003 1.003 0 0 1 .995.994 4 4 0 0 0 4.88 3.858 1.002 1.002 0 0 1 1.22.974v0Z" stroke="#1C1B1F" stroke-width="2" stroke-linecap="round" stroke-linejoin="round"/><path d="M19.5 23.008a1.5 1.5 0 1 0 0-3 1.5 1.5 0 0 0 0 3ZM11.5 22.008a1.5 1.5 0 1 0 0-3 1.5 1.5 0 0 0 0 3ZM10.5 15.008a1.5 1.5 0 1 0 0-3 1.5 1.5 0 0 0 0 3ZM17 17.008a1.5 1.5 0 1 0 0-3 1.5 1.5 0 0 0 0 3Z" fill="#1C1B1F"/></svg>