<svg xmlns="http://www.w3.org/2000/svg" width="33" height="32" fill="none" viewBox="0 0 33 32"><path fill="#111827" fill-rule="evenodd" d="M12.756.5a1 1 0 0 1 1.366-.366l2.717 1.568a1 1 0 0 1 .66.925 1 1 0 0 1-.133.535L15.704 6.04a1 1 0 1 1-1.732-1l.737-1.276c-6.431.874-11.387 6.387-11.387 13.058 0 3.098 1.068 5.945 2.857 8.195a1 1 0 1 1-1.566 1.244 15.12 15.12 0 0 1-3.291-9.44c0-7.29 5.14-13.38 11.994-14.843l-.194-.112A1 1 0 0 1 12.755.5M17.5 9.186a1 1 0 1 0-2 0v.762h-.468a3.937 3.937 0 1 0 0 7.874h.468v3.874h-.762a1.937 1.937 0 0 1-1.937-1.937 1 1 0 1 0-2 0 3.937 3.937 0 0 0 3.937 3.937h.762v.762a1 1 0 1 0 2 0v-.762h.762a3.937 3.937 0 0 0 0-7.874H17.5v-3.874h.175a1.936 1.936 0 0 1 1.937 1.937 1 1 0 0 0 2 0 3.935 3.935 0 0 0-3.937-3.937H17.5zm-2 2.762h-.468a1.937 1.937 0 0 0 0 3.874h.468zm2 9.748h.762a1.937 1.937 0 1 0 0-3.874H17.5zm5.867-18.414a1 1 0 0 0-.906 1.783 13.18 13.18 0 0 1 7.217 11.757c0 3.06-1.042 5.875-2.791 8.111a1 1 0 0 0 1.575 1.232 15.1 15.1 0 0 0 3.216-9.343c0-5.913-3.381-11.034-8.311-13.54M8.849 27.553a1 1 0 0 0-1.162 1.628A15.1 15.1 0 0 0 16.5 32c3.058 0 5.907-.906 8.291-2.464a1 1 0 1 0-1.094-1.674A13.1 13.1 0 0 1 16.5 30c-2.854 0-5.494-.906-7.65-2.447" clip-rule="evenodd"/></svg>