<svg xmlns="http://www.w3.org/2000/svg" width="33" height="33" fill="none"><path fill="#1C1B1F" d="M24.46 19.592c0 .995-.524 1.482-1.5 1.5h-12c-.976-.018-1.5-.505-1.5-1.5 0-.994.524-1.482 1.5-1.5h12c.976.018 1.5.506 1.5 1.5m-1.5 2.25h-12c-.976.018-1.5.506-1.5 1.5 0 .995.524 1.482 1.5 1.5h12c.976-.018 1.5-.505 1.5-1.5 0-.994-.524-1.482-1.5-1.5Zm3.75-8.248v-.001c-.976.017-1.5.505-1.5 1.5v8.25c0 .994.524 1.481 1.5 1.498v-.001c1.464-.052 2.25-1.514 2.25-4.498v-3.75c0-1.989-.786-2.964-2.25-2.998m-19.5-.001c-1.464.035-2.25 1.01-2.25 3v3.75c0 2.983.786 4.445 2.25 4.497v.001c.976-.017 1.5-.504 1.5-1.499v-8.25c0-.995-.524-1.482-1.5-1.5m19.5-.75c0-2.486-1.31-3.705-3.75-3.748v-.002h-12v.002c-2.44.043-3.75 1.262-3.75 3.748v.001c1.464.026 2.25.757 2.25 2.25 0 1.49.786 2.222 2.25 2.248v.001h10.5v-.001c1.464-.026 2.25-.757 2.25-2.249s.786-2.223 2.25-2.249Z"/></svg>