<svg xmlns="http://www.w3.org/2000/svg" width="33" height="32" fill="none" viewBox="0 0 33 32"><path stroke="#111827" stroke-width="2" d="M24.556 21.8a2.284 2.284 0 0 0-.687-.378c.248-.09.485-.216.699-.395.25-.208.43-.454.557-.724v2.222a2.05 2.05 0 0 0-.569-.726Zm.569-6.16v2.11a2.323 2.323 0 0 0-1.357-1.26c.3-.038.724-.13 1.066-.46.126-.121.22-.254.291-.39Zm-16.96.39c.343.33.767.422 1.067.46a2.324 2.324 0 0 0-1.357 1.259v-2.108c.07.135.165.268.29.389Zm-.29 6.495v-2.223c.127.27.308.517.557.725.214.179.451.306.699.395a2.283 2.283 0 0 0-.687.377 2.05 2.05 0 0 0-.57.726Zm-.748 2.91c.272-.267.458-.58.576-.92.11.474.35.905.796 1.216.567.396 1.286.45 1.856.46h.016l12.257.015h.02c.576-.01 1.295-.069 1.862-.472.44-.314.677-.745.787-1.217.119.339.304.652.575.918.542.531 1.266.72 1.985.733h.053c1.266-.045 2.225-.74 2.81-1.888.548-1.078.78-2.562.78-4.361v-4.375c0-1.268-.246-2.386-.877-3.211a3.167 3.167 0 0 0-1.748-1.153v-.886c0-1.62-.435-2.875-1.555-3.643-1.003-.687-2.366-.827-3.773-.854h-.002l-.038-.003h-.038L9.5 5.797h-.017c-1.417.025-2.792.163-3.802.854-1.12.768-1.555 2.023-1.555 3.643v.886a3.168 3.168 0 0 0-1.748 1.153c-.63.825-.877 1.944-.877 3.211v4.375c0 1.799.232 3.283.78 4.36.586 1.148 1.545 1.842 2.81 1.887h.053c.719-.013 1.442-.2 1.984-.731Z"/></svg>