<svg xmlns="http://www.w3.org/2000/svg" width="33" height="32" fill="none" viewBox="0 0 33 32"><path fill="#111827" fill-rule="evenodd" d="M19.962 0a1 1 0 0 1 1 1v2.462h7.076a1 1 0 0 1 1 1v7.077h2.461a1 1 0 0 1 0 2h-2.461v4.922h2.461a1 1 0 1 1 0 2h-2.461v7.077a1 1 0 0 1-1 1h-7.076v2.461a1 1 0 1 1-2 0v-2.461h-4.923v2.461a1 1 0 1 1-2 0v-2.461H4.962a1 1 0 0 1-1-1V20.46H1.501a1 1 0 0 1 0-2h2.461V13.54H1.501a1 1 0 1 1 0-2h2.461V4.462a1 1 0 0 1 1-1h7.077V1.001a1 1 0 0 1 2 0v2.461h4.923V1.001a1 1 0 0 1 1-1m7.076 5.462v21.076H5.962V5.462zm-14.076 5.5a1.5 1.5 0 0 0-1.5 1.5v7.076a1.5 1.5 0 0 0 1.5 1.5h7.076a1.5 1.5 0 0 0 1.5-1.5v-7.076a1.5 1.5 0 0 0-1.5-1.5zm.5 8.076v-6.076h6.076v6.076z" clip-rule="evenodd"/></svg>