<svg xmlns="http://www.w3.org/2000/svg" width="33" height="32" fill="none" viewBox="0 0 33 32"><g clip-path="url(#a)"><path fill="#111827" fill-rule="evenodd" d="M9.7 3.144a16.002 16.002 0 0 1 19.142.065c.961.722.984 2.07.227 2.879l-3.627 3.878c-.976 1.043-2.478 1.008-3.513.376-.803-.49-1.636-.75-2.684-.753l-.383-.002c-1.098-.006-1.591-.01-2.121.33-1.018.652-2.489.692-3.465-.303l-3.76-3.53-.018-.018-.018-.018c-.778-.81-.76-2.179.22-2.904Zm1.262 1.554 3.7 3.473.019.018.018.02c.186.193.575.273.963.024 1.064-.681 2.192-.664 3.196-.648.133.002.264.004.392.004 1.427.004 2.617.371 3.722 1.047.416.254.823.163 1.009-.036l3.593-3.842a14.002 14.002 0 0 0-16.612-.06ZM5.225 16.046a14.002 14.002 0 0 1 2.716-8.333l3.65 3.39c.197.183.306.613.056 1.104-.608 1.193-.828 2.467-.823 3.82.004 1.39.284 2.465.93 3.521.253.413.172.805-.011.99l-3.77 3.792a14.002 14.002 0 0 1-2.748-8.284Zm4.04-9.833c-.813-.755-2.162-.726-2.88.24a16.002 16.002 0 0 0 .04 19.147c.74.987 2.128.983 2.928.178l3.809-3.83c.984-.992.91-2.444.298-3.444-.429-.7-.633-1.405-.636-2.483-.004-1.13.179-2.07.605-2.906.52-1.021.57-2.505-.477-3.478L9.265 6.213Zm16.232 16.003c-1.011-.963-2.436-.834-3.402-.338-.762.392-1.609.516-2.831.523-1.213.007-2.084-.12-2.868-.514-.979-.492-2.414-.597-3.412.388l-3.593 3.548c-.806.796-.816 2.182.166 2.926a16.002 16.002 0 0 0 19.48-.107c.978-.758.947-2.152.123-2.937l-3.663-3.49Zm-2.488 1.44c.504-.258.923-.168 1.108.008l3.624 3.452a14.002 14.002 0 0 1-16.906.092l3.554-3.51c.184-.18.605-.277 1.109-.024 1.194.6 2.434.735 3.777.727 1.332-.007 2.554-.138 3.735-.744ZM15.717 16a3.51 3.51 0 1 1 7.02 0 3.51 3.51 0 0 1-7.02 0Zm3.51-5.51a5.51 5.51 0 1 0 0 11.02 5.51 5.51 0 0 0 0-11.02Z" clip-rule="evenodd"/></g><defs><clipPath id="a"><path fill="#fff" d="M.5 0h32v32H.5z"/></clipPath></defs></svg>