<svg xmlns="http://www.w3.org/2000/svg" width="33" height="32" fill="none"><path fill="#111827" fill-rule="evenodd" d="M17.5 7.522V2.036c6.934.49 12.474 6.03 12.964 12.964h-5.486a1 1 0 0 0 0 2h5.486c-.49 6.934-6.03 12.474-12.964 12.964v-5.486a1 1 0 1 0-2 0v5.486C8.566 29.474 3.025 23.934 2.536 17h5.486a1 1 0 1 0 0-2H2.536C3.026 8.065 8.566 2.525 15.5 2.036v5.486a1 1 0 0 0 2 0ZM32.499 16c0 8.834-7.159 15.995-15.992 16h-.014C7.66 31.994.5 24.833.5 16 .5 7.164 7.664 0 16.5 0c8.836.001 15.999 7.164 15.999 16Z" clip-rule="evenodd"/></svg>