<svg xmlns="http://www.w3.org/2000/svg" width="33" height="33" fill="none" viewBox="0 0 33 33"><path fill="#111827" fill-rule="evenodd" d="M17.611 4.585a1 1 0 0 0-1.762.005l-4.835 9.084-9.047-4.767A1 1 0 0 0 .53 10.03L4.978 28.18a1 1 0 0 0 1.247.723c8.302-2.38 17.591-.989 21.164.002a1 1 0 0 0 1.245-.756l3.843-18.149a1 1 0 0 0-1.464-1.08l-8.51 4.737-4.892-9.071Zm-5.299 10.908 4.425-8.316 4.488 8.32a1 1 0 0 0 1.366.4l7.474-4.162-3.172 14.981c-4.135-.958-12.429-1.963-20.216-.007L3.001 11.713l7.962 4.195a1 1 0 0 0 1.349-.415Zm.27 8.17a39.433 39.433 0 0 1 8.253 0 1 1 0 1 0 .21-1.99 41.439 41.439 0 0 0-8.673 0 1 1 0 1 0 .21 1.99Z" clip-rule="evenodd"/></svg>