<svg xmlns="http://www.w3.org/2000/svg" width="33" height="32" fill="none"><path fill="#111827" fill-rule="evenodd" d="M16.012.128a1 1 0 0 1 .976 0l13.404 7.5a1 1 0 0 1 .512.896V23.5a1 1 0 0 1-.512.872l-13.404 7.5a1 1 0 0 1-.976 0l-13.404-7.5a1 1 0 0 1-.512-.872V8.5a1 1 0 0 1 .512-.872l13.404-7.5Zm.488 2.019 11.37 6.362-11.051 6.278a1.012 1.012 0 0 0-.249-.012L5.225 8.456 16.5 2.146Zm-.851 14.405L4.096 10.117v12.795l11.553 6.465V16.552Zm2 12.658 11.255-6.298v-12.69l-11.255 6.393V29.21Z" clip-rule="evenodd"/></svg>