<svg xmlns="http://www.w3.org/2000/svg" width="33" height="33" fill="none" viewBox="0 0 33 33"><path fill="#111827" fill-rule="evenodd" d="M2.5 16.5c0-7.732 6.268-14 14-14s14 6.268 14 14-6.268 14-14 14-14-6.268-14-14m14-16C7.664.5.5 7.665.5 16.5s7.164 16 16 16 16-7.164 16-16-7.164-16-16-16m1 7.25a1 1 0 1 0-2 0v1.5h-.875a4.125 4.125 0 1 0 0 8.25h3.75a2.125 2.125 0 0 1 0 4.25H12.75a1 1 0 1 0 0 2h2.75v1.499a1 1 0 1 0 2 0V23.75h.875a4.125 4.125 0 0 0 0-8.25h-3.75a2.125 2.125 0 0 1 0-4.25h5.625a1 1 0 1 0 0-2H17.5z" clip-rule="evenodd"/></svg>