<svg xmlns="http://www.w3.org/2000/svg" width="33" height="33" fill="none"><path fill="#111827" fill-rule="evenodd" d="M13.38 2.501a1 1 0 0 1 1 1v2.12h2.16V3.5a1 1 0 1 1 2 0v2.14a5.68 5.68 0 0 1 3.413 9.794 6.196 6.196 0 0 1 3.866 5.744 6.2 6.2 0 0 1-6.2 6.2H18.54v2.12a1 1 0 1 1-2 0v-2.12h-2.16v2.12a1 1 0 1 1-2 0v-2.121h-4.2a1 1 0 1 1 0-2h1.08V7.62H8.18a1 1 0 1 1 0-2h4.2V3.501a1 1 0 0 1 1-1Zm4.133 5.12a1.003 1.003 0 0 0 .054 0h.493a3.68 3.68 0 0 1 0 7.359h-6.8V7.62h2.083a1.02 1.02 0 0 0 .075 0h4.095ZM11.26 16.98v8.398h8.36a4.2 4.2 0 1 0 0-8.398h-8.36Z" clip-rule="evenodd"/></svg>