<svg xmlns="http://www.w3.org/2000/svg" width="33" height="33" fill="none" viewBox="0 0 33 33"><path fill="#111827" fill-rule="evenodd" d="M12.544 4.501H7.458a1 1 0 1 1 0-2h18.085a1 1 0 1 1 0 2h-7.578q.249.213.481.445c.911.911 1.59 2.01 1.998 3.207h5.099a1 1 0 1 1 0 2h-4.681q.03.346.029.695a8.347 8.347 0 0 1-8.347 8.347h-2.5l10.52 9.564a1 1 0 0 1-1.346 1.48L6.785 18.935a1 1 0 0 1 .673-1.74h5.086a6.347 6.347 0 0 0 6.309-7.042H7.458a1 1 0 1 1 0-2H18.29a6.35 6.35 0 0 0-5.746-3.652" clip-rule="evenodd"/></svg>