<svg xmlns="http://www.w3.org/2000/svg" width="33" height="33" fill="none"><path fill="#111827" fill-rule="evenodd" d="M5.356 8.696a1 1 0 0 0-1.852.753L5.962 15.5h-2.46a1 1 0 1 0 0 2h3.273l2.764 6.803a1 1 0 0 0 1.853 0l2.764-6.803h4.689l2.764 6.803a1 1 0 0 0 1.853 0l2.764-6.803h3.273a1 1 0 0 0 0-2h-2.46l2.458-6.052a1 1 0 1 0-1.853-.753l-2.764 6.805h-4.69l-2.763-6.805a1 1 0 0 0-1.853 0l-2.765 6.805H8.121L5.356 8.696Zm3.577 8.805 1.532 3.77 1.532-3.77H8.933Zm6.035-2h3.064L16.5 11.729l-1.532 3.772Zm6.035 2 1.532 3.77 1.532-3.77h-3.064Z" clip-rule="evenodd"/></svg>