<svg xmlns="http://www.w3.org/2000/svg" width="33" height="32" fill="none" viewBox="0 0 33 32"><path fill="#111827" fill-rule="evenodd" d="M12.553.956A1 1 0 0 0 11.187.59L5.811 3.694a1 1 0 0 0-.366 1.366L6.95 7.664a12.665 12.665 0 0 0-2.447 4.232H1.498a1 1 0 0 0-1 1v6.208a1 1 0 0 0 1 1h3.005a12.665 12.665 0 0 0 2.446 4.231L5.445 26.94a1 1 0 0 0 .366 1.366l5.376 3.104a1 1 0 0 0 1.366-.366l1.503-2.603a12.733 12.733 0 0 0 4.888 0l1.503 2.603a1 1 0 0 0 1.366.366l5.376-3.104a1 1 0 0 0 .366-1.366l-1.504-2.605a12.664 12.664 0 0 0 2.446-4.231h3.005a1 1 0 0 0 1-1v-6.208a1 1 0 0 0-1-1h-3.005a12.664 12.664 0 0 0-2.446-4.232l1.504-2.604a1 1 0 0 0-.366-1.366L21.813.59a1 1 0 0 0-1.366.366L18.944 3.56a12.735 12.735 0 0 0-4.888 0L12.553.956ZM9.05 7.303 7.677 4.926l3.644-2.104 1.371 2.375a1 1 0 0 0 1.117.468c.859-.223 1.76-.342 2.691-.342.93 0 1.832.119 2.69.342a1 1 0 0 0 1.118-.468l1.371-2.375 3.644 2.104-1.373 2.377a1 1 0 0 0 .154 1.202 10.664 10.664 0 0 1 2.692 4.656 1 1 0 0 0 .964.735h2.742v4.208H27.76a1 1 0 0 0-.965.735 10.665 10.665 0 0 1-2.69 4.655 1 1 0 0 0-.155 1.203l1.373 2.377-3.644 2.104-1.371-2.375a1 1 0 0 0-1.117-.468c-.859.223-1.76.342-2.691.342-.93 0-1.832-.12-2.69-.342a1 1 0 0 0-1.118.468l-1.371 2.375-3.644-2.104 1.373-2.377a1 1 0 0 0-.154-1.202 10.665 10.665 0 0 1-2.692-4.657 1 1 0 0 0-.964-.734H2.498v-4.208H5.24a1 1 0 0 0 .964-.735c.49-1.78 1.43-3.376 2.692-4.656a1 1 0 0 0 .154-1.202ZM16.988 8a1 1 0 0 0-.976 0l-6.37 3.564a1 1 0 0 0-.51.873v7.126a1 1 0 0 0 .51.873l6.37 3.563a1 1 0 0 0 .976 0l6.37-3.563a1 1 0 0 0 .51-.873v-7.104a1 1 0 0 0-.512-.895L16.99 8Zm3.846 4.444L16.5 10.02l-4.28 2.395 4.375 2.438 4.239-2.408Zm-9.703 1.654v4.879l4.44 2.484v-4.89l-4.44-2.473Zm10.738 4.879-4.298 2.405v-4.784l4.298-2.442v4.82Z" clip-rule="evenodd"/></svg>