<svg xmlns="http://www.w3.org/2000/svg" width="33" height="32" fill="none"><path fill="#111827" fill-rule="evenodd" d="M7.784 5.929c0-.727.629-1.664 2.287-2.48 1.594-.782 3.865-1.295 6.43-1.295 2.563 0 4.834.513 6.428 1.296 1.658.815 2.287 1.752 2.287 2.479 0 .727-.629 1.664-2.287 2.479-1.594.783-3.865 1.296-6.429 1.296s-4.835-.513-6.429-1.296c-1.658-.815-2.287-1.752-2.287-2.48ZM16.5.154c-2.802 0-5.388.556-7.311 1.5-1.858.914-3.405 2.364-3.405 4.275v20.463c0 1.199.538 2.44 1.666 3.137 5.308 3.274 12.653 2.893 17.906.018 1.234-.675 1.86-1.984 1.86-3.276V5.93c0-1.91-1.547-3.36-3.405-4.274C21.888.71 19.302.154 16.501.154Zm8.716 9.2a8.96 8.96 0 0 1-1.405.849c-1.923.945-4.509 1.501-7.31 1.501-2.803 0-5.39-.556-7.312-1.501a8.96 8.96 0 0 1-1.405-.85v17.039c0 .637.283 1.167.717 1.435 4.593 2.834 11.16 2.557 15.895-.034.495-.271.82-.842.82-1.522V9.353Z" clip-rule="evenodd"/></svg>