<svg xmlns="http://www.w3.org/2000/svg" width="33" height="32" fill="none"><path fill="#111827" fill-rule="evenodd" d="M7.406 4.272C5.09 5.534 3.962 7.114 3.962 8.615c0 1.502 1.13 3.082 3.444 4.344C9.682 14.201 12.896 15 16.5 15c3.604 0 6.818-.799 9.094-2.04 2.315-1.263 3.445-2.843 3.445-4.345 0-1.501-1.13-3.08-3.445-4.343C23.318 3.03 20.104 2.23 16.5 2.23c-3.604 0-6.818.799-9.094 2.04Zm-.958-1.756c-2.585 1.41-4.486 3.523-4.486 6.1v14.769c0 2.576 1.9 4.689 4.486 6.1 2.623 1.43 6.18 2.284 10.052 2.284 3.873 0 7.429-.854 10.052-2.285 2.586-1.41 4.487-3.523 4.487-6.1V8.616c0-2.576-1.901-4.689-4.487-6.1C23.93 1.086 20.373.232 16.5.232c-3.873 0-7.429.854-10.052 2.285Zm22.59 17.782v3.087c0 1.501-1.13 3.081-3.444 4.343-2.276 1.242-5.49 2.041-9.094 2.041-3.604 0-6.818-.799-9.094-2.04-2.315-1.263-3.444-2.843-3.444-4.344v-3.087c.7.686 1.548 1.29 2.486 1.802 2.623 1.43 6.18 2.285 10.052 2.285 3.873 0 7.429-.854 10.052-2.285.939-.512 1.787-1.117 2.487-1.802ZM3.963 16c0 1.502 1.13 3.081 3.444 4.344 2.276 1.242 5.49 2.04 9.094 2.04 3.604 0 6.818-.798 9.094-2.04C27.91 19.08 29.04 17.502 29.04 16v-3.087c-.7.686-1.549 1.29-2.487 1.802C23.93 16.146 20.373 17 16.5 17c-3.873 0-7.429-.854-10.052-2.285-.938-.512-1.786-1.116-2.486-1.802V16Z" clip-rule="evenodd"/></svg>