<svg xmlns="http://www.w3.org/2000/svg" width="33" height="32" fill="none" viewBox="0 0 33 32"><path fill="#111827" fill-rule="evenodd" d="M7.406 4.272C5.09 5.534 3.962 7.114 3.962 8.615c0 1.502 1.13 3.082 3.444 4.344C9.682 14.201 12.896 15 16.5 15s6.818-.799 9.094-2.04c2.305-1.258 3.435-2.829 3.444-4.325v-.03c-.004-1.498-1.134-3.074-3.444-4.333C23.318 3.03 20.104 2.23 16.5 2.23s-6.818.799-9.094 2.04m19.146 10.443c.939-.512 1.787-1.116 2.486-1.802V16c0 1.502-1.13 3.081-3.444 4.344-2.276 1.242-5.49 2.04-9.094 2.04s-6.818-.798-9.094-2.04c-2.304-1.257-3.434-2.828-3.444-4.324v-3.107c.7.686 1.548 1.29 2.486 1.802C9.071 16.146 12.628 17 16.5 17c3.873 0 7.429-.854 10.052-2.285m-24.59 1.311V8.603c.006-2.571 1.905-4.68 4.486-6.087C9.071 1.085 12.628.23 16.5.23c3.873 0 7.429.854 10.052 2.285 2.586 1.41 4.487 3.523 4.487 6.1v14.769c0 2.576-1.901 4.689-4.487 6.1-2.623 1.43-6.179 2.284-10.052 2.284s-7.429-.854-10.052-2.285c-2.585-1.41-4.486-3.523-4.486-6.1zm2 4.272v3.087c0 1.501 1.13 3.081 3.444 4.343 2.276 1.242 5.49 2.041 9.094 2.041s6.818-.799 9.094-2.04c2.315-1.263 3.445-2.843 3.445-4.344v-3.087c-.7.685-1.549 1.29-2.487 1.802-2.623 1.43-6.179 2.285-10.052 2.285S9.071 23.53 6.448 22.1c-.938-.512-1.786-1.117-2.486-1.802" clip-rule="evenodd"/></svg>