<svg xmlns="http://www.w3.org/2000/svg" width="33" height="33" fill="none" viewBox="0 0 33 33"><path fill="#111827" fill-rule="evenodd" d="M4.522 2.776a1 1 0 0 1 1.414 0l2.71 2.71a9.053 9.053 0 0 1 4.678-1.294c1.72 0 3.33.477 4.702 1.307l2.723-2.723a1 1 0 1 1 1.414 1.414l-1.976 1.976c-1.327.038-2.6.29-3.786.726a7.098 7.098 0 0 0-9.874 4.352h4.202a11.979 11.979 0 0 0-1.142 2H6.23V17.128a7.091 7.091 0 0 0 3.42 6.07 12.005 12.005 0 0 0 1.847 2.841 9.11 9.11 0 0 1-6.333-4.892H1.468a1 1 0 1 1 0-2h2.986a9.12 9.12 0 0 1-.225-1.951H1.47a1 1 0 1 1 0-2h2.76v-1.952H1.47a1 1 0 1 1 0-2h2.99A9.084 9.084 0 0 1 7.042 6.71l-2.52-2.52a1 1 0 0 1 0-1.414Zm7.013 15.378a8.997 8.997 0 1 1 15.373 6.348l-.015.014-.014.015a8.997 8.997 0 0 1-15.344-6.377Zm16.033 8.452a10.952 10.952 0 0 1-7.036 2.545c-6.073 0-10.997-4.924-10.997-10.997 0-6.073 4.924-10.997 10.997-10.997 6.074 0 10.997 4.924 10.997 10.997 0 2.677-.956 5.13-2.546 7.038l3.253 3.253a1 1 0 0 1-1.414 1.414l-3.254-3.253Zm-7.447-15.362a7.053 7.053 0 0 0-.38-.99 7.637 7.637 0 0 1 2.198.107c.098.288.181.583.25.883h2.176c.73.4 1.332.863 1.773 1.286a1 1 0 0 1-.959.714h-2.76v1.952h2.761a1 1 0 0 1 0 2h-2.76a9.126 9.126 0 0 1-.225 1.951h2.985a1 1 0 1 1 0 2h-3.694a9.134 9.134 0 0 1-4.199 4.17 8.806 8.806 0 0 1-2.027-1.361 7.098 7.098 0 0 0 5.16-6.828V13.244h-6.062a8.768 8.768 0 0 1 2.252-2h3.511Zm-5.797 4.952v6.766c-1.18-1.484-1.603-3.072-1.646-3.965a7.497 7.497 0 0 1 .513-3.793 1 1 0 0 1 1.133.991Z" clip-rule="evenodd"/></svg>