<svg xmlns="http://www.w3.org/2000/svg" width="33" height="32" fill="none" viewBox="0 0 33 32"><path fill="#111827" d="m27.107 5.393-.707.708zm-21.214 0 .708.708zm0 21.214.708-.707zm10.226-4.523.02 1h.02zm.146-.006-.033-1-.007.001zm.534-.017.933.358.54-1.407-1.506.05zm-.135.351-.934-.358-.158.412.197.393zm.017.035.92-.392-.012-.028-.013-.027zm.106.276.948-.316-.002-.006zm.012.035.957-.287-.004-.015-.005-.014zm.017.059.962-.275-.004-.013zm.024.081-.962.275.006.021.007.02zm.017.053-.949.316.01.028.01.028zm.024.059.964-.263-.015-.055-.021-.054zm.017.064.97-.242-.002-.01-.003-.01zm.024.094-.97.243.004.02.006.02zm.029.1.965-.264-.003-.009-.003-.01zm.017.064-.964.263v.005zm.03.106.967-.255-.004-.013zm.029.11.979-.205-.006-.024-.006-.025zm.023.112-.978.206.004.019.004.018zm.03.117-.97.243.004.016.004.016zm.023.082.975-.221-.006-.027-.007-.026zm.059.258-.975.222v.006zm.04.176.984-.184-.004-.022-.005-.021zm.018.094-.982.184.001.01.002.01zm.03.14.98-.196-.001-.008zm.029.147-.98.196.002.014.004.015zm.035.152.983-.186-.004-.02-.005-.019zm.041.217-.983.186.003.01zm.035.176.983-.187-.002-.01zm.047.246-.982.187zm.024.123-.983.187.002.01.002.01zm.04.193.985-.173-.003-.017-.003-.017zm.036.2.985-.172v-.002zm.047.27-.986.17.003.013zm.052.28.988-.158-.002-.013-.003-.013zm.047.293-.987.158.001.008.001.008zm.053.3.985-.171v-.004zm.053.304.986-.165-.001-.006zm.052.316.988-.159-.001-.005zm.053.328-.987.159v.002zm.041.252.99-.149-.003-.011zm.065.428-.99.149.002.008.001.007zm.029.176.988-.154-.002-.01zm.07.451.99-.142-.002-.012zm.053.37-.99.14.002.012.002.012zm.047.28.99-.135-.001-.014-.003-.015zm.053.387-.991.135v.008l.002.007zm.029.193-.989.15.147.971.974-.13zm8.162-4.265-.737-.676zm.064-.07.738.675.37-.405-.142-.53zm-.298-1.114-.966.259zm-.791-2.959.966-.258zm-.493-1.84.966-.258zm-.433-1.617.966-.259-.002-.005zm-.27-.984-.964.264zm-.17-.621-.966.256.002.008zm-.1-.375.967-.257-.002-.009-.003-.009zm-.093-.328-.97.242.004.016.005.016zm-.035-.141.97-.243-.006-.026-.008-.025zm-.024-.076-.961.274.003.01.003.01zm-.011-.041.961-.275-.006-.02-.007-.021zm-.012-.035-.955.296.003.01.003.01zm-2.549-3.715.616-.788zM16.5 2a14 14 0 0 1 9.9 4.1l1.414-1.414A16 16 0 0 0 16.5 0zM6.6 6.1A14 14 0 0 1 16.5 2V0A16 16 0 0 0 5.186 4.686zM2.5 16a14 14 0 0 1 4.1-9.9L5.187 4.687A16 16 0 0 0 .5 16zm4.1 9.9A14 14 0 0 1 2.5 16h-2a16 16 0 0 0 4.686 11.314zm9.9 4.1a14 14 0 0 1-9.9-4.1l-1.414 1.414A16 16 0 0 0 16.5 32zm9.9-4.1a14 14 0 0 1-9.9 4.1v2a16 16 0 0 0 11.314-4.686zm4.1-9.9a14 14 0 0 1-4.1 9.9l1.414 1.414A16 16 0 0 0 32.5 16zm-4.1-9.9a14 14 0 0 1 4.1 9.9h2a16 16 0 0 0-4.686-11.314zM9.156 16.905c0-2.665 2.73-5.164 6.758-5.164v-2c-4.69 0-8.758 2.998-8.758 7.164zm6.942 4.18c-2.29.047-4.063-.42-5.229-1.181-1.133-.74-1.713-1.76-1.713-2.999h-2c0 1.984.981 3.604 2.62 4.673 1.605 1.048 3.814 1.56 6.363 1.507zm.127-.005-.146.006.08 1.998.146-.006zm.54-.018-.533.018.066 1.999.533-.018zm.832 1.71.135-.352-1.867-.716-.135.351zm-.021-.77-.018-.036-1.789.894.018.035zm.157.4a5 5 0 0 0-.132-.346l-1.84.785q.044.101.08.205zm.014.04-.012-.034-1.897.632.012.035zm.027.088-.018-.058-1.915.574.017.059zm.027.095-.023-.082-1.923.55.023.081zm.005.011-.018-.053-1.897.633.017.052zm.003.003-.024-.058-1.856.743.023.058zm.054.173-.018-.064-1.93.526.018.064zm.029.114-.024-.093-1.94.485.023.094zm.018.06-.03-.1-1.918.565.03.1zm.023.084-.017-.064-1.93.526.018.064zm.028.1-.03-.105-1.926.536.03.105zm.033.125-.03-.11-1.933.508.029.111zm.035.16-.023-.111-1.958.412.024.111zm.02.08-.028-.116-1.94.485.029.117zm.016.05-.024-.081-1.923.55.024.081zm.043.183-.03-.13-1.95.444.03.129zm.029.129-.03-.13-1.95.444.03.129zm.04.17-.041-.176-1.948.454.04.176zm.026.137-.017-.094-1.966.368.018.094zm.026.12-.03-.14-1.958.408.03.14zm.03.155-.029-.147-1.96.393.028.146zm.03.123-.036-.152-1.948.45.035.152zm.049.256-.041-.217-1.966.372.041.217zm.033.166-.035-.176-1.961.392.035.176zm.049.255-.047-.246-1.965.374.047.246zm.023.123-.024-.123-1.964.374.023.123zm.037.173-.041-.194-1.957.416.041.193zm.041.233-.035-.2-1.97.348.036.2zm.048.272-.047-.27-1.97.343.046.27zm.05.268-.052-.281-1.966.368.053.282zm.052.32-.047-.294-1.975.316.047.293zm.05.282-.053-.299-1.97.348.053.299zm.053.308-.053-.304-1.97.34.052.305zm.054.323-.053-.317-1.973.33.053.316zm.053.334-.052-.329-1.975.318.053.328zm.041.25-.04-.252-1.975.321.041.252zm.066.439-.064-.428-1.978.298.065.428zm.027.16-.029-.175-1.973.328.03.176zm.072.462-.07-.451-1.976.308.07.451zm.055.382-.053-.37-1.98.283.053.37zm.043.258-.047-.281-1.972.329.046.28zm.057.416-.052-.387-1.982.27.053.387zm.028.179-.03-.194-1.977.3.03.193zm6.435-4.791a12.46 12.46 0 0 1-7.556 3.95l.264 1.982a14.46 14.46 0 0 0 8.768-4.582zm.065-.071-.064.07 1.474 1.352.065-.07zm-.527-.178.299 1.113 1.931-.519-.299-1.113zm-.791-2.96.79 2.959 1.933-.517-.791-2.959zm-.493-1.84.493 1.84 1.932-.517-.493-1.84zm-.433-1.617.433 1.617 1.932-.518-.433-1.617zm-.268-.98.27.985 1.928-.528-.27-.984zm-.17-.62.17.62 1.929-.527-.17-.621zm-.102-.383.1.375 1.933-.513-.1-.375zm-.088-.31.093.328 1.923-.549-.094-.328zm-.044-.172.035.14 1.94-.485-.035-.14zm-.01-.025.024.076 1.912-.588-.024-.076zm-.017-.06.012.04 1.923-.549-.012-.04zm.001.006.012.035 1.897-.632-.011-.036zm-2.216-3.243a6.55 6.55 0 0 1 2.21 3.223l1.91-.593a8.55 8.55 0 0 0-2.888-4.206zm-4.698-1.476c1.908 0 3.481.525 4.699 1.476l1.23-1.576c-1.618-1.264-3.642-1.9-5.93-1.9zm1.956 1.953a1.94 1.94 0 0 0-1.37-.568v2a.06.06 0 0 1-.044-.018zm.568 1.37c0-.514-.204-1.007-.568-1.37l-1.414 1.414a.06.06 0 0 1-.018-.044zm-.568 1.37c.363-.364.568-.857.568-1.37h-2q0-.026.018-.045zM16.5 17c.514 0 1.007-.204 1.37-.567l-1.414-1.415A.06.06 0 0 1 16.5 15zm-1.37-.567c.363.363.856.567 1.37.567v-2q.026 0 .044.018zm-.567-1.37c0 .513.204 1.006.567 1.37l1.414-1.415a.06.06 0 0 1 .019.045zm.567-1.37a1.94 1.94 0 0 0-.567 1.37h2a.06.06 0 0 1-.019.044zm1.37-.568c-.514 0-1.007.204-1.37.568l1.414 1.414a.06.06 0 0 1-.044.018z"/></svg>