<svg xmlns="http://www.w3.org/2000/svg" width="33" height="32" fill="none"><path fill="#111827" fill-rule="evenodd" d="M19.714 5.215a.071.071 0 0 0-.071.071v21.428c0 .039.032.071.071.071h10.714c.04 0 .071-.032.071-.071V5.286a.071.071 0 0 0-.071-.071H19.714Zm-2.071.071c0-1.144.927-2.071 2.071-2.071h10.714c1.144 0 2.071.927 2.071 2.071v21.428a2.071 2.071 0 0 1-2.071 2.071H19.714a2.071 2.071 0 0 1-2.071-2.071V5.286ZM21.928 8.5a1 1 0 0 1 1-1h4.286a1 1 0 1 1 0 2h-4.286a1 1 0 0 1-1-1ZM6.93 27.785a1 1 0 0 1 1-1h2.214V24.5H1.501a1 1 0 0 1-1-1V9.572a1 1 0 0 1 1-1h13.928a1 1 0 1 1 0 2H2.5V22.5H15.429a1 1 0 1 1 0 2h-3.286v2.285h2.214a1 1 0 1 1 0 2H7.93a1 1 0 0 1-1-1Zm16-16a1 1 0 0 0 0 2h4.285a1 1 0 0 0 0-2h-4.286Zm2.142 12.786a1.607 1.607 0 1 0 0-3.214 1.607 1.607 0 0 0 0 3.214Z" clip-rule="evenodd"/></svg>