<svg xmlns="http://www.w3.org/2000/svg" width="32" height="32" fill="none"><path stroke="#1C1B1F" stroke-linecap="round" stroke-linejoin="round" stroke-width="2" d="M9.76 26.604a3.36 3.36 0 1 0 0-6.72 3.36 3.36 0 0 0 0 6.72ZM22.24 26.604a3.36 3.36 0 1 0 0-6.72 3.36 3.36 0 0 0 0 6.72ZM13.12 23.244h5.76M4 16.044h24"/><path stroke="#1C1B1F" stroke-linejoin="round" stroke-width="2" d="M7.047 12.545v3.5h17.906v-2.969c0-4.288-3.5-8.33-6.08-4.906-.745.987-1.508 1.87-2.873 1.87-1.526 0-2.371-1.16-3.26-2.32-2.447-3.197-5.693.8-5.693 4.825Z"/></svg>