<svg xmlns="http://www.w3.org/2000/svg" width="33" height="32" fill="none" viewBox="0 0 33 32"><path fill="#111827" fill-rule="evenodd" d="M11.618 6.777a4.777 4.777 0 1 1 9.554 0 4.777 4.777 0 0 1-9.554 0m4.777-6.778a6.777 6.777 0 0 0-3.77 12.41 8.75 8.75 0 0 0-3.543 3.117H1.473a1 1 0 0 0-1 1V31a1 1 0 0 0 1 1h30.033a1 1 0 0 0 1-1V16.527a1 1 0 0 0-1-1h-7.799a8.76 8.76 0 0 0-3.542-3.116A6.777 6.777 0 0 0 16.395 0m4.754 15.527H11.64a6.7 6.7 0 0 1 4.755-1.972c1.856 0 3.537.753 4.754 1.972m-18.676 2V30h28.033V17.527zm16.33 2.832a1 1 0 0 0-1.88-.684l-2.725 7.495a1 1 0 1 0 1.88.684zm-5.036 2.028a1 1 0 0 0-1.414-1.415l-2.085 2.086a1 1 0 0 0 0 1.414l2.085 2.085a1 1 0 0 0 1.414-1.414l-1.378-1.378zm5.467-1.415a1 1 0 0 1 1.414 0l2.085 2.086a1 1 0 0 1 0 1.414l-2.085 2.085a1 1 0 0 1-1.414-1.414l1.378-1.378-1.378-1.378a1 1 0 0 1 0-1.415" clip-rule="evenodd"/></svg>