<svg xmlns="http://www.w3.org/2000/svg" width="33" height="32" fill="none" viewBox="0 0 33 32"><path fill="#111827" fill-rule="evenodd" d="M11.617 6.777a4.777 4.777 0 1 1 9.555 0 4.777 4.777 0 0 1-9.555 0Zm4.778-6.778a6.777 6.777 0 0 0-3.77 12.41 8.753 8.753 0 0 0-3.543 3.117H1.473a1 1 0 0 0-1 1V31a1 1 0 0 0 1 1h30.033a1 1 0 0 0 1-1V16.526a1 1 0 0 0-1-1h-7.799a8.755 8.755 0 0 0-3.542-3.116A6.777 6.777 0 0 0 16.395 0Zm4.754 15.527H11.64a6.693 6.693 0 0 1 4.755-1.972c1.856 0 3.537.753 4.754 1.972Zm-18.676 2V30h28.033V17.526H2.473Zm16.33 2.832a1 1 0 0 0-1.88-.684l-2.725 7.495a1 1 0 1 0 1.88.684l2.725-7.495Zm-5.036 2.028a1 1 0 0 0-1.414-1.415l-2.085 2.086a1 1 0 0 0 0 1.414l2.085 2.085a1 1 0 0 0 1.414-1.414l-1.378-1.378 1.378-1.378Zm5.467-1.415a1 1 0 0 1 1.414 0l2.085 2.086a1 1 0 0 1 0 1.414l-2.085 2.085a1 1 0 0 1-1.414-1.414l1.378-1.378-1.378-1.378a1 1 0 0 1 0-1.415Z" clip-rule="evenodd"/></svg>