<svg xmlns="http://www.w3.org/2000/svg" width="33" height="32" fill="none" viewBox="0 0 33 32"><path fill="#111827" d="M8.001 8.626h-1v1h1zm0-7.263v-1h-1v1zm7.165 7.263h1v-1h-1zm0 7.344v1h1v-1zm-7.105 0v-1h-1v1zm0 7.284v1h1v-1zm-6.561 0v-1h-1v1zm0 7.383h-1v1h1zM9.001 8.626V1.363h-2v7.263zm6.165-1H8v2h7.165zm1 8.344V8.626h-2v7.344zm-8.105 1h7.105v-2H8.06zm1 6.284V15.97h-2v7.284zm-7.561 1h6.56v-2H1.5zm1 6.383v-7.383h-2v7.383zm14.363-1H1.5v2h15.363zM30.5 16c0 7.532-6.106 13.637-13.637 13.637v2c8.636 0 15.637-7 15.637-15.637zM16.863 2.363C24.394 2.363 30.5 8.468 30.5 16h2C32.5 7.364 25.499.363 16.863.363zM8 2.363h8.862v-2H8z"/></svg>