<svg xmlns="http://www.w3.org/2000/svg" width="33" height="33" fill="none" viewBox="0 0 33 33"><path fill="#111827" fill-rule="evenodd" d="M1.501.501a1 1 0 0 0-1 1v29.998a1 1 0 0 0 1 1h29.998a1 1 0 0 0 1-1V1.501a1 1 0 0 0-1-1zm1 29.998V2.501h27.998v27.998zM12.125 14a1.875 1.875 0 1 0 0-3.75 1.875 1.875 0 0 0 0 3.75m8.75 0a1.875 1.875 0 1 0 0-3.75 1.875 1.875 0 0 0 0 3.75M14 20.875a1.875 1.875 0 1 1-3.75 0 1.875 1.875 0 0 1 3.75 0m6.875 1.875a1.875 1.875 0 1 0 0-3.75 1.875 1.875 0 0 0 0 3.75" clip-rule="evenodd"/></svg>