<svg xmlns="http://www.w3.org/2000/svg" width="32" height="32" fill="none"><path fill="#1C1B1F" d="M11.5 12a1.5 1.5 0 1 0 0-3 1.5 1.5 0 0 0 0 3ZM20.5 12a1.5 1.5 0 1 0 0-3 1.5 1.5 0 0 0 0 3ZM11.5 17.5a1.5 1.5 0 1 0 0-3 1.5 1.5 0 0 0 0 3ZM20.5 17.5a1.5 1.5 0 1 0 0-3 1.5 1.5 0 0 0 0 3ZM11.5 23a1.5 1.5 0 1 0 0-3 1.5 1.5 0 0 0 0 3ZM20.5 23a1.5 1.5 0 1 0 0-3 1.5 1.5 0 0 0 0 3Z"/><path stroke="#1C1B1F" stroke-linejoin="round" stroke-width="2" d="M4 4h24v24H4z"/><path fill="#1C1B1F" d="M11.5 12a1.5 1.5 0 1 0 0-3 1.5 1.5 0 0 0 0 3ZM20.5 12a1.5 1.5 0 1 0 0-3 1.5 1.5 0 0 0 0 3ZM11.5 17.5a1.5 1.5 0 1 0 0-3 1.5 1.5 0 0 0 0 3ZM20.5 17.5a1.5 1.5 0 1 0 0-3 1.5 1.5 0 0 0 0 3ZM11.5 23a1.5 1.5 0 1 0 0-3 1.5 1.5 0 0 0 0 3ZM20.5 23a1.5 1.5 0 1 0 0-3 1.5 1.5 0 0 0 0 3Z"/><path stroke="#1C1B1F" stroke-linejoin="round" stroke-width="2" d="M4 4h24v24H4z"/></svg>