<svg xmlns="http://www.w3.org/2000/svg" width="33" height="32" fill="none" viewBox="0 0 33 32"><path fill="#111827" fill-rule="evenodd" d="M1.501.001a1 1 0 0 0-1 1v29.998a1 1 0 0 0 1 1h29.998a1 1 0 0 0 1-1V1.001a1 1 0 0 0-1-1H1.501Zm1 29.998V2.001h27.998v27.998H2.501Zm10.25-19.624a1.875 1.875 0 1 1-3.75 0 1.875 1.875 0 0 1 3.75 0Zm11.249 0a1.875 1.875 0 1 1-3.75 0 1.875 1.875 0 0 1 3.75 0ZM10.875 23.5a1.875 1.875 0 1 0 0-3.75 1.875 1.875 0 0 0 0 3.75Zm7.5-7.5a1.875 1.875 0 1 1-3.75 0 1.875 1.875 0 0 1 3.75 0Zm3.75 7.5a1.875 1.875 0 1 0 0-3.75 1.875 1.875 0 0 0 0 3.75Z" clip-rule="evenodd"/></svg>