<svg xmlns="http://www.w3.org/2000/svg" width="33" height="32" fill="none" viewBox="0 0 33 32"><path fill="#111827" fill-rule="evenodd" d="M16.5-.002C7.665-.002.503 7.158.498 15.992v1h7.708v-.999a8.294 8.294 0 1 1 9.276 8.243V18.38H9.68v5.82H7.222v-3.727H1.495V26.2h3.728v4.457h6.458v-4.476h3.801V32h1.019c8.837 0 16.001-7.163 16.001-16.001 0-8.838-7.164-16.002-16.002-16.002ZM6.255 14.992H2.534C3.05 7.73 9.106 1.998 16.5 1.998c7.733 0 14.002 6.269 14.002 14.002 0 7.403-5.745 13.464-13.02 13.968v-3.72c5.225-.495 9.312-4.894 9.312-10.248 0-5.685-4.609-10.294-10.294-10.294-5.345 0-9.739 4.074-10.245 9.287Zm.968 11.209v2.457H9.68V26.2H7.223Zm-2-3.728V24.2H3.495v-1.727h1.728Zm6.458 1.709V20.38h3.8v3.802h-3.8Z" clip-rule="evenodd"/></svg>