<svg xmlns="http://www.w3.org/2000/svg" width="33" height="33" fill="none" viewBox="0 0 33 33"><path fill="#111827" fill-rule="evenodd" d="M16.5 2.5c-7.732 0-14 6.268-14 14 0 7.731 6.268 13.999 14 13.999 7.731 0 13.999-6.268 13.999-14 0-7.73-6.268-13.998-14-13.998m-16 14c0-8.836 7.164-16 16-16s15.999 7.164 15.999 16-7.163 15.999-16 15.999c-8.835 0-15.998-7.163-15.998-16m16-4a4 4 0 1 0 0 8 4 4 0 0 0 0-8m-6 4a6 6 0 1 1 12 0 6 6 0 0 1-12 0M21.667 6.347a1 1 0 1 0-.335 1.972 5.92 5.92 0 0 1 4.84 4.835 1 1 0 1 0 1.972-.338 7.92 7.92 0 0 0-6.477-6.469" clip-rule="evenodd"/></svg>