<svg xmlns="http://www.w3.org/2000/svg" width="33" height="32" fill="none" viewBox="0 0 33 32"><path stroke="#111827" stroke-linejoin="round" stroke-width="2" d="M31.5 15.022s-1.332-1.258-4.07-.814c-.295-2.145-2.589-3.403-2.589-3.403s-2.146 2.59-.592 5.475c-.444.222-1.184.518-2.293.518H1.608c-.37 1.406-.37 10.728 9.84 10.728 7.325 0 12.8-3.403 15.39-9.618 3.847.296 4.661-2.886 4.661-2.886Z"/><path fill="#111827" fill-rule="evenodd" d="M14.946 4.474h3.106v2.81h-3.106v-2.81M8.634 7.878H7.528v2.81h3.106v-2.81h-2m-3.7 3.395H3.829v2.811h3.107v-2.81h-2m3.7 0H7.528v2.811h3.106v-2.81h-2m2.593 0h3.107v2.811h-3.107v-2.81m4.806 0h-1.107v2.811h3.107v-2.81h-2m2.593 0h3.106v2.811h-3.106v-2.81m-7.399-3.395h3.107v2.81h-3.107v-2.81m4.806 0h-1.107v2.81h3.107v-2.81h-2" clip-rule="evenodd"/></svg>