<svg xmlns="http://www.w3.org/2000/svg" width="33" height="33" fill="none" viewBox="0 0 33 33"><path fill="#111827" fill-rule="evenodd" d="M4.021 1.66a1 1 0 0 0-.446.654L.519 18.007a1 1 0 0 0 1.709.879l1.046-1.107v7.716a6 6 0 0 0 6 6h14.452a6 6 0 0 0 6-6v-7.716l1.046 1.107a1 1 0 0 0 1.709-.879L29.425 2.314a1 1 0 0 0-1.228-.778l-8.97 2.284h-5.454l-8.97-2.284a1 1 0 0 0-.782.124m16.863 3.858q.034-.034.064-.072l6.717-1.71 2.194 11.273zm-2.468.302h-3.832l-9.311 9.846.001.05v9.779a4 4 0 0 0 4 4H15.5V27.24l-2.152-2.152a1 1 0 0 1 1.414-1.414l1.738 1.738 1.738-1.738a1 1 0 0 1 1.414 1.414L17.5 27.24v2.254h6.226a4 4 0 0 0 4-4v-9.779l.001-.05zm-6.3-.302a1 1 0 0 1-.064-.072l-6.717-1.71-2.194 11.273zm.716 13.362a1.834 1.834 0 1 1-3.668 0 1.834 1.834 0 0 1 3.668 0m9.17 1.834a1.834 1.834 0 1 0 0-3.668 1.834 1.834 0 0 0 0 3.668" clip-rule="evenodd"/></svg>