<svg xmlns="http://www.w3.org/2000/svg" width="33" height="32" fill="none" viewBox="0 0 33 32"><path fill="#111827" fill-rule="evenodd" d="M12.77 2.503a14.033 14.033 0 0 0-8.763 7.175H1.799C4.249 3.986 9.909 0 16.5 0c6.59 0 12.25 3.985 14.701 9.677h-2.207a14.033 14.033 0 0 0-8.764-7.175c.616.77 1.153 1.718 1.608 2.782.547 1.277.993 2.762 1.317 4.393h-2.042c-.29-1.35-.668-2.567-1.113-3.606-.534-1.246-1.144-2.191-1.77-2.81-.622-.614-1.206-.858-1.73-.858s-1.108.244-1.73.858c-.626.619-1.236 1.564-1.77 2.81-.445 1.04-.823 2.256-1.113 3.606H9.845c.324-1.631.77-3.116 1.317-4.393.455-1.064.992-2.011 1.608-2.782ZM16.5 32c-6.583 0-12.238-3.976-14.693-9.658h2.21a14.033 14.033 0 0 0 8.753 7.156c-.615-.77-1.153-1.718-1.608-2.782-.545-1.272-.99-2.75-1.313-4.374h2.043c.289 1.343.665 2.553 1.108 3.587.534 1.246 1.144 2.191 1.77 2.81.622.614 1.206.858 1.73.858s1.108-.244 1.73-.858c.626-.619 1.236-1.564 1.77-2.81.443-1.034.82-2.244 1.109-3.587h2.042c-.323 1.624-.768 3.102-1.313 4.374-.455 1.064-.992 2.011-1.608 2.782a14.033 14.033 0 0 0 8.754-7.156h2.21C28.737 28.023 23.083 32 16.5 32ZM.5 16.001c0-1.503.207-2.957.594-4.336h1.967a14.108 14.108 0 0 0-.679 4.336c0 1.519.24 2.982.684 4.353H1.1C.71 18.97.5 17.51.5 16.001Zm31.4 4.353c.39-1.384.6-2.844.6-4.353 0-1.503-.207-2.957-.595-4.336H29.94a14.11 14.11 0 0 1 .678 4.336c0 1.519-.24 2.982-.683 4.353H31.9ZM5.296 18.51l-1.389-5.104h1.432l.791 3.429h.047L7 13.406h1.405l.837 3.41h.044l.777-3.41h1.429l-1.386 5.104H8.608L7.73 15.3h-.063l-.878 3.21H5.295Zm7.959 0-1.39-5.104h1.433l.79 3.429h.047l.824-3.429h1.406l.837 3.41h.043l.778-3.41h1.429l-1.386 5.104h-1.498l-.878-3.21h-.063l-.877 3.21h-1.495Zm6.57-5.104 1.388 5.104h1.496l.877-3.21h.063l.877 3.21h1.499l1.385-5.104h-1.428l-.778 3.41h-.043l-.838-3.41h-1.405l-.824 3.429h-.047l-.79-3.429h-1.433Zm8.473 5.19a.777.777 0 0 1-.565-.233.776.776 0 0 1-.232-.564c0-.218.077-.404.232-.559a.776.776 0 0 1 .565-.232c.213 0 .399.077.558.232a.75.75 0 0 1 .24.559.75.75 0 0 1-.113.402.86.86 0 0 1-.29.289.761.761 0 0 1-.395.106Z" clip-rule="evenodd"/></svg>