<svg xmlns="http://www.w3.org/2000/svg" width="33" height="32" fill="none" viewBox="0 0 33 32"><path fill="#111827" fill-rule="evenodd" d="M2.5 16c0-7.731 6.269-14 14-14 7.732 0 14 6.269 14 14 0 7.732-6.268 14-14 14-7.731 0-14-6.268-14-14Zm14-16C7.664 0 .5 7.165.5 16s7.164 16 16 16 16-7.164 16-16-7.164-16-16-16Zm1.875 16a1.875 1.875 0 1 1-3.75 0 1.875 1.875 0 0 1 3.75 0ZM24 17.875a1.875 1.875 0 1 0 0-3.75 1.875 1.875 0 0 0 0 3.75ZM10.875 16a1.875 1.875 0 1 1-3.75 0 1.875 1.875 0 0 1 3.75 0Z" clip-rule="evenodd"/></svg>