<svg xmlns="http://www.w3.org/2000/svg" width="33" height="32" fill="none" viewBox="0 0 33 32"><path fill="#111827" fill-rule="evenodd" d="M8.078 4.462a2.461 2.461 0 1 1 4.922 0 2.461 2.461 0 0 1-4.922 0Zm2.46-4.461a4.461 4.461 0 1 0 0 8.923 4.461 4.461 0 0 0 0-8.923ZM8.079 16A2.461 2.461 0 1 1 13 16a2.461 2.461 0 0 1-4.922 0Zm2.46-4.461a4.461 4.461 0 1 0 0 8.922 4.461 4.461 0 0 0 0-8.922Zm0 13.537a2.461 2.461 0 1 0 0 4.923 2.461 2.461 0 0 0 0-4.922Zm-4.46 2.462a4.461 4.461 0 1 1 8.922 0 4.461 4.461 0 0 1-8.922 0ZM20 16a2.461 2.461 0 1 1 4.923 0A2.461 2.461 0 0 1 20 16Zm2.461-4.461a4.461 4.461 0 1 0 0 8.922 4.461 4.461 0 0 0 0-8.922Zm0-9.538a2.461 2.461 0 1 0 0 4.923 2.461 2.461 0 0 0 0-4.923ZM18 4.462a4.461 4.461 0 1 1 8.922 0 4.461 4.461 0 0 1-8.922 0Zm2 23.076a2.461 2.461 0 1 1 4.922 0 2.461 2.461 0 0 1-4.922 0Zm2.461-4.462a4.461 4.461 0 1 0 0 8.923 4.461 4.461 0 0 0 0-8.922Z" clip-rule="evenodd"/></svg>