<svg xmlns="http://www.w3.org/2000/svg" width="33" height="32" fill="none" viewBox="0 0 33 32"><path fill="#111827" fill-rule="evenodd" d="M2.5 10.039a2.461 2.461 0 1 1 4.924 0 2.461 2.461 0 0 1-4.923 0m2.462-4.461a4.461 4.461 0 1 0 0 8.922 4.461 4.461 0 0 0 0-8.922m9.077 4.46a2.461 2.461 0 1 1 4.922 0 2.461 2.461 0 0 1-4.922 0m2.461-4.46a4.461 4.461 0 1 0 0 8.922 4.461 4.461 0 0 0 0-8.922m11.538 2a2.461 2.461 0 1 0 0 4.922 2.461 2.461 0 0 0 0-4.922m-4.462 2.46a4.461 4.461 0 1 1 8.923 0 4.461 4.461 0 0 1-8.923 0M14.04 21.962a2.461 2.461 0 1 1 4.922 0 2.461 2.461 0 0 1-4.922 0M16.5 17.5a4.461 4.461 0 1 0 0 8.923 4.461 4.461 0 0 0 0-8.923m-11.538 2a2.461 2.461 0 1 0 0 4.922 2.461 2.461 0 0 0 0-4.922M.501 21.96a4.461 4.461 0 1 1 8.923 0 4.461 4.461 0 0 1-8.923 0m25.075 0a2.461 2.461 0 1 1 4.923 0 2.461 2.461 0 0 1-4.923 0m2.462-4.461a4.461 4.461 0 1 0 0 8.923 4.461 4.461 0 0 0 0-8.923" clip-rule="evenodd"/></svg>