<svg xmlns="http://www.w3.org/2000/svg" width="33" height="32" fill="none" viewBox="0 0 33 32"><path fill="#111827" fill-rule="evenodd" d="M4.962 13.539a2.461 2.461 0 1 0 0 4.922 2.461 2.461 0 0 0 0-4.922M.501 16a4.461 4.461 0 1 1 8.923 0A4.461 4.461 0 0 1 .5 16M16.5 13.539a2.461 2.461 0 1 0 0 4.922 2.461 2.461 0 0 0 0-4.922M12.039 16a4.461 4.461 0 1 1 8.922 0 4.461 4.461 0 0 1-8.922 0m13.537 0a2.461 2.461 0 1 1 4.923 0 2.461 2.461 0 0 1-4.923 0m2.462-4.461a4.461 4.461 0 1 0 0 8.922 4.461 4.461 0 0 0 0-8.922" clip-rule="evenodd"/></svg>