<svg xmlns="http://www.w3.org/2000/svg" width="33" height="32" fill="none" viewBox="0 0 33 32"><path fill="#111827" fill-rule="evenodd" d="M4.813 2.645a2.313 2.313 0 1 0 0 4.625 2.313 2.313 0 0 0 0-4.625ZM.501 4.958a4.313 4.313 0 1 1 8.625 0 4.313 4.313 0 0 1-8.625 0Zm4.312 8.73a2.313 2.313 0 1 0 0 4.625 2.313 2.313 0 0 0 0-4.626ZM.501 16a4.313 4.313 0 1 1 8.625 0 4.313 4.313 0 0 1-8.625 0Zm2 11.042a2.313 2.313 0 1 1 4.625 0 2.313 2.313 0 0 1-4.625 0Zm2.312-4.312a4.313 4.313 0 1 0 0 8.625 4.313 4.313 0 0 0 0-8.625Zm11.41-9.043a2.313 2.313 0 1 0 0 4.626 2.313 2.313 0 0 0 0-4.626ZM11.912 16a4.313 4.313 0 1 1 8.626 0 4.313 4.313 0 0 1-8.626 0Zm2-11.042a2.313 2.313 0 1 1 4.626 0 2.313 2.313 0 0 1-4.626 0ZM16.224.645a4.313 4.313 0 1 0 0 8.625 4.313 4.313 0 0 0 0-8.625Zm0 24.085a2.313 2.313 0 1 0 0 4.625 2.313 2.313 0 0 0 0-4.625Zm-4.313 2.312a4.313 4.313 0 1 1 8.626 0 4.313 4.313 0 0 1-8.626 0ZM25.874 16a2.313 2.313 0 1 1 4.625 0 2.313 2.313 0 0 1-4.625 0Zm2.313-4.313a4.313 4.313 0 1 0 0 8.626 4.313 4.313 0 0 0 0-8.626Zm0-9.042a2.313 2.313 0 1 0 0 4.625 2.313 2.313 0 0 0 0-4.625Zm-4.313 2.313a4.313 4.313 0 1 1 8.625 0 4.313 4.313 0 0 1-8.625 0Zm2 22.084a2.313 2.313 0 1 1 4.625 0 2.313 2.313 0 0 1-4.625 0Zm2.313-4.312a4.313 4.313 0 1 0 0 8.625 4.313 4.313 0 0 0 0-8.625Z" clip-rule="evenodd"/></svg>