<svg xmlns="http://www.w3.org/2000/svg" width="33" height="33" fill="none" viewBox="0 0 33 33"><path fill="#111827" fill-rule="evenodd" d="M.665 1.5a1 1 0 0 1 1-1H3.94a1 1 0 1 1 0 2H2.665v1.275a1 1 0 1 1-2 0zm6.827 0a1 1 0 0 1 1-1h4.552a1 1 0 1 1 0 2H8.492a1 1 0 0 1-1-1m9.104 0a1 1 0 0 1 1-1h4.551a1 1 0 1 1 0 2h-4.551a1 1 0 0 1-1-1m9.103 0a1 1 0 0 1 1-1h2.276a1 1 0 0 1 1 1v2.653a1 1 0 1 1-2 0V2.5h-1.276a1 1 0 0 1-1-1M1.665 7.326a1 1 0 0 1 1 1v4.552a1 1 0 0 1-2 0V8.327a1 1 0 0 1 1-1m27.31 1.135a1 1 0 0 1 1 1v2.654a1 1 0 1 1-2 0V9.462a1 1 0 0 1 1-1M1.665 16.43a1 1 0 0 1 1 1v4.552a1 1 0 1 1-2 0V17.43a1 1 0 0 1 1-1m0 9.104a1 1 0 0 1 1 1v1.276h1.749a1 1 0 1 1 0 2h-2.75a1 1 0 0 1-1-1v-2.276a1 1 0 0 1 1-1m7.247 3.276a1 1 0 0 1 1-1h2.75a1 1 0 0 1 0 2h-2.75a1 1 0 0 1-1-1M6.474 7.308a1 1 0 0 1 1-1h15.692a1 1 0 0 1 1 1v9.007q.229.096.44.23a2.916 2.916 0 0 1 4.922.203l1.55 2.684.174.302q.04.072.069.146c.991 1.937 1.27 4.05.774 6.026-.536 2.136-1.96 4.034-4.206 5.33-2.407 1.39-4.836 1.576-6.98.843-2.038-.698-3.738-2.197-4.905-4.11l-.044-.07-.096-.166-.287-.497A3.3 3.3 0 0 1 15.54 24H7.474a1 1 0 0 1-1-1zm11.771 16.887-.46.267a1.3 1.3 0 0 0-.476 1.774l.287.497c.971 1.682 2.374 2.91 3.961 3.453 1.565.535 3.395.436 5.332-.682 1.815-1.048 2.872-2.516 3.267-4.085.396-1.577.142-3.336-.81-4.987l-1.55-2.684a.916.916 0 0 0-1.587.916l.575.995a1 1 0 1 1-1.732 1l-1.22-2.112a.916.916 0 0 0-1.586.916l1.22 2.112a1 1 0 0 1-1.732 1l-.34-.589-.01-.017-3.229-5.592a.916.916 0 1 0-1.586.916l4.345 7.525a1 1 0 1 1-1.732 1zm3.921-15.887v7.914a2.9 2.9 0 0 0-1.304.843l-.974-1.688a2.916 2.916 0 1 0-5.05 2.916l2.14 3.708H8.474V8.308z" clip-rule="evenodd"/></svg>