<svg xmlns="http://www.w3.org/2000/svg" width="33" height="32" fill="none"><path fill="#111827" fill-rule="evenodd" d="M17.08.187a.996.996 0 0 0-1.17.007l-.024.017-.105.075a33.653 33.653 0 0 0-1.731 1.377 38.53 38.53 0 0 0-4.074 4.018c-2.941 3.383-6.014 8.228-6.014 13.78A12.538 12.538 0 0 0 16.5 32a12.538 12.538 0 0 0 12.538-12.538c0-5.552-3.073-10.397-6.015-13.78a38.524 38.524 0 0 0-4.073-4.018A33.581 33.581 0 0 0 17.22.286l-.106-.075-.028-.02-.005-.004Zm6.871 26.726c-.15.149-.303.293-.46.433L17.5 21.355V17.26l7.878 7.878a10.534 10.534 0 0 1-1.427 1.775Zm-2.097 1.624L17.5 24.183v5.768a10.538 10.538 0 0 0 4.354-1.414ZM15.5 21.768v8.183a10.538 10.538 0 0 1-9.538-10.49c0-4.832 2.696-9.216 5.524-12.468A36.53 36.53 0 0 1 15.5 3.056V21.768Zm10.829 1.493c.416-1.076.656-2.222.7-3.393l-9.53-9.53v4.094l8.83 8.829ZM21.514 6.993c2.293 2.637 4.5 6.02 5.252 9.783L17.5 7.509V3.056l.155.131a36.52 36.52 0 0 1 3.86 3.806Z" clip-rule="evenodd"/></svg>