<svg xmlns="http://www.w3.org/2000/svg" width="33" height="32" fill="none"><path fill="#111827" fill-rule="evenodd" d="m16.5 1 .573-.818a1 1 0 0 0-1.146 0L16.5 1ZM6.474 26.99a12.539 12.539 0 0 0 22.564-7.529c0-5.552-3.073-10.397-6.015-13.78a38.524 38.524 0 0 0-4.073-4.018A33.581 33.581 0 0 0 17.22.286l-.106-.075-.028-.02-.009-.007-.002-.001h-.001L16.5 1c-.573-.82-.574-.82-.574-.819h-.001l-.003.002-.008.006-.028.02-.105.076a33.653 33.653 0 0 0-1.731 1.377 38.53 38.53 0 0 0-4.074 4.018c-2.941 3.383-6.014 8.228-6.014 13.78 0 .824.081 1.64.239 2.436.006.05.016.098.03.145a12.54 12.54 0 0 0 2.243 4.948Zm3.078.394a10.538 10.538 0 0 0 13.896 0H9.552Zm15.664-2c.55-.81.983-1.69 1.29-2.615H6.494c.306.925.739 1.806 1.289 2.615h17.432Zm1.822-5.923c0 .44-.028.876-.082 1.308H6.044a10.54 10.54 0 0 1-.082-1.308c0-.44.022-.875.065-1.307h20.946c.042.432.065.868.065 1.307ZM15.345 3.187c.465-.395.86-.71 1.155-.939a36.52 36.52 0 0 1 5.014 4.745c2.166 2.491 4.256 5.648 5.114 9.16H6.372c.858-3.512 2.948-6.669 5.114-9.16a36.53 36.53 0 0 1 3.859-3.806Z" clip-rule="evenodd"/></svg>