<svg xmlns="http://www.w3.org/2000/svg" width="33" height="32" fill="none" viewBox="0 0 33 32"><path fill="#111827" fill-rule="evenodd" d="M17.08.187a1 1 0 0 0-1.17.007l-.024.017-.105.075q-.136.099-.384.288c-.328.25-.792.617-1.348 1.09A38.5 38.5 0 0 0 9.977 5.68c-2.941 3.383-6.014 8.228-6.014 13.78A12.54 12.54 0 0 0 16.5 32a12.54 12.54 0 0 0 12.538-12.538c0-5.552-3.073-10.397-6.015-13.78a38.5 38.5 0 0 0-4.073-4.018A34 34 0 0 0 17.22.286l-.106-.075-.028-.02zm6.871 26.726q-.225.223-.46.433L17.5 21.355V17.26l7.878 7.878a10.5 10.5 0 0 1-1.427 1.775m-2.097 1.624L17.5 24.183v5.768a10.5 10.5 0 0 0 4.354-1.414M15.5 21.768v8.184a10.54 10.54 0 0 1-9.538-10.49c0-4.833 2.696-9.217 5.524-12.469A36.5 36.5 0 0 1 15.5 3.056v18.712m10.829 1.493c.416-1.076.656-2.222.7-3.393l-9.53-9.53v4.094zM21.514 6.993c2.293 2.637 4.5 6.02 5.252 9.783L17.5 7.509V3.056l.155.131a36.5 36.5 0 0 1 3.86 3.806" clip-rule="evenodd"/></svg>