<svg xmlns="http://www.w3.org/2000/svg" width="33" height="33" fill="none" viewBox="0 0 33 33"><path fill="#111827" fill-rule="evenodd" d="m16.5 1.5.573-.818a1 1 0 0 0-1.146 0l.573.819Zm-1.155 2.187c.465-.395.86-.71 1.155-.939a36.53 36.53 0 0 1 5.014 4.745c2.827 3.252 5.524 7.636 5.524 12.468a10.538 10.538 0 1 1-21.076 0c0-4.832 2.697-9.216 5.524-12.468a36.53 36.53 0 0 1 3.859-3.806ZM16.5 1.501c-.573-.82-.574-.82-.574-.819h-.001l-.003.002-.008.006-.028.02-.105.076a33.584 33.584 0 0 0-1.731 1.377 38.532 38.532 0 0 0-4.073 4.018c-2.942 3.383-6.015 8.228-6.015 13.78a12.538 12.538 0 0 0 25.076 0c0-5.552-3.073-10.397-6.015-13.78a38.533 38.533 0 0 0-4.073-4.018A33.656 33.656 0 0 0 17.22.786l-.105-.075-.03-.02-.008-.007-.002-.001c-.001-.001-.002-.001-.575.818Zm7.807 19.798a1 1 0 0 0-1.97-.34 5.908 5.908 0 0 1-4.836 4.824 1 1 0 1 0 .334 1.971 7.908 7.908 0 0 0 6.472-6.455Z" clip-rule="evenodd"/></svg>