<svg xmlns="http://www.w3.org/2000/svg" width="33" height="33" fill="none" viewBox="0 0 33 33"><path fill="#111827" fill-rule="evenodd" d="M9.174 5.765a10.36 10.36 0 0 1 17.687 7.327 1 1 0 0 0 2 0 12.361 12.361 0 1 0-24.722 0c0 2.096.337 3.619.892 4.812.556 1.195 1.298 1.986 1.965 2.64l.307.298c.54.523.963.931 1.3 1.474.368.595.648 1.392.648 2.705a7.249 7.249 0 0 0 12.84 4.613 1 1 0 0 0-1.543-1.273 5.248 5.248 0 0 1-9.296-3.34c0-1.634-.36-2.806-.95-3.759-.479-.773-1.104-1.374-1.642-1.891-.091-.088-.18-.173-.265-.257-.611-.598-1.148-1.187-1.55-2.054-.404-.868-.706-2.088-.706-3.968 0-2.748 1.092-5.384 3.035-7.327Zm7.326.646a6.68 6.68 0 0 0-6.68 6.68 1 1 0 1 0 2 0 4.68 4.68 0 1 1 9.36 0c0 1.202-.628 1.784-1.639 2.65l-.054.047c-.973.833-2.283 1.954-2.283 4.12a3.84 3.84 0 0 0 7.68 0 1 1 0 0 0-2 0 1.84 1.84 0 1 1-3.68 0c0-1.201.628-1.783 1.639-2.649l.055-.047c.973-.833 2.282-1.954 2.282-4.12a6.68 6.68 0 0 0-6.68-6.68Z" clip-rule="evenodd"/></svg>