<svg xmlns="http://www.w3.org/2000/svg" width="33" height="33" fill="none" viewBox="0 0 33 33"><path fill="#111827" fill-rule="evenodd" d="M16.383 2.501A10.54 10.54 0 0 1 27.038 13.04a1 1 0 1 0 2 0A12.54 12.54 0 0 0 10.072 2.271a1 1 0 0 0 1.024 1.718A10.54 10.54 0 0 1 16.383 2.5ZM5.905 6.331l-1.683-1.85a1 1 0 1 1 1.48-1.345L7.91 5.563l.014.015 4.036 4.44.011.013 7.208 7.928c.014.015.029.03.042.046l3.606 3.967.046.05 5.906 6.497a1 1 0 0 1-1.48 1.345l-5.523-6.075a3.887 3.887 0 0 1-4.544-3.822c-.004-.355.034-.709.111-1.054l-5.603-6.164a4.838 4.838 0 0 0-.008.288 1 1 0 1 1-2 .003 6.75 6.75 0 0 1 .34-2.126L7.31 7.877a10.486 10.486 0 0 0-1.348 5.16v.002c0 1.91.307 3.152.718 4.037.41.882.957 1.482 1.578 2.09.086.085.176.171.269.26.547.526 1.18 1.135 1.666 1.919.598.964.961 2.152.961 3.808a5.346 5.346 0 0 0 9.47 3.402 1 1 0 1 1 1.542 1.273 7.346 7.346 0 0 1-13.012-4.675c0-1.336-.285-2.148-.661-2.755-.343-.553-.774-.97-1.323-1.5l-.311-.303c-.677-.663-1.43-1.465-1.992-2.676-.562-1.21-.905-2.753-.905-4.88v.001l1-.001h-1a12.486 12.486 0 0 1 1.943-6.707Zm8.4.303a6.773 6.773 0 0 1 8.963 6.395 4.446 4.446 0 0 1-.916 2.783 1 1 0 0 1-1.587-1.217c.337-.44.515-.982.504-1.536v-.02a4.772 4.772 0 0 0-6.317-4.513 1 1 0 1 1-.647-1.892Z" clip-rule="evenodd"/></svg>