<svg xmlns="http://www.w3.org/2000/svg" width="33" height="33" fill="none" viewBox="0 0 33 33"><path fill="#111827" fill-rule="evenodd" d="M1.501 2.5a1 1 0 0 0-1 1v25a1 1 0 0 0 1 1h29.998a1 1 0 0 0 1-1v-25a1 1 0 0 0-1-1zm1 25v-23h27.998v23zm17.216-17.42a1 1 0 0 0-1.88-.683L13.284 21.92a1 1 0 0 0 1.88.684zm-8.257 3.144a1 1 0 0 0-1.415-1.414l-3.483 3.483a1 1 0 0 0 0 1.414l3.484 3.484a1 1 0 1 0 1.414-1.415L8.683 16zm10.08-1.414a1 1 0 0 1 1.415 0l3.483 3.483a1 1 0 0 1 0 1.414l-3.483 3.484a1 1 0 1 1-1.415-1.415L24.317 16l-2.777-2.776a1 1 0 0 1 0-1.414" clip-rule="evenodd"/></svg>