<svg xmlns="http://www.w3.org/2000/svg" width="33" height="32" fill="none"><path fill="#111827" fill-rule="evenodd" d="M.723 4.123a1.007 1.007 0 0 1 .781-.372h29.991a1.003 1.003 0 0 1 .73.312c.17.18.274.421.274.688v22.498a1 1 0 0 1-1 1H1.5a1 1 0 0 1-1-1V4.751c0-.021 0-.042.002-.063a.995.995 0 0 1 .22-.565Zm1.778 2.9v17.953L12.293 16 2.5 7.024ZM4.07 26.25h24.857l-9.701-8.892-2.052 1.88a1 1 0 0 1-1.35 0l-2.052-1.88-9.701 8.892ZM30.5 24.976V7.024L20.707 16l9.792 8.976Zm-1.57-19.225H4.071l10.37 9.506.01.01 2.048 1.876 2.036-1.866.032-.03 10.36-9.496Z" clip-rule="evenodd"/></svg>