<svg xmlns="http://www.w3.org/2000/svg" width="33" height="33" fill="none" viewBox="0 0 33 33"><path fill="#111827" fill-rule="evenodd" d="M23.978 6.066a1 1 0 0 1 1-1h6.521a1 1 0 1 1 0 2h-6.521a1 1 0 0 1-1-1M1.5 10.283a1 1 0 0 0 0 2h6.521a1 1 0 1 0 0-2zm0 5.217a1 1 0 1 0 0 2h6.521a1 1 0 1 0 0-2zm-1 6.217a1 1 0 0 1 1-1h6.521a1 1 0 1 1 0 2H1.501a1 1 0 0 1-1-1m1 4.217a1 1 0 1 0 0 2h6.521a1 1 0 1 0 0-2zM12.239 16.5a1 1 0 0 1 1-1h6.522a1 1 0 1 1 0 2h-6.522a1 1 0 0 1-1-1m1 4.217a1 1 0 1 0 0 2h6.522a1 1 0 1 0 0-2zm-1 6.217a1 1 0 0 1 1-1h6.522a1 1 0 1 1 0 2h-6.522a1 1 0 0 1-1-1m12.739-16.651a1 1 0 0 0 0 2h6.521a1 1 0 1 0 0-2zm0 5.217a1 1 0 0 0 0 2h6.521a1 1 0 1 0 0-2zm-1 6.217a1 1 0 0 1 1-1h6.521a1 1 0 1 1 0 2h-6.521a1 1 0 0 1-1-1m1 4.217a1 1 0 0 0 0 2h6.521a1 1 0 1 0 0-2z" clip-rule="evenodd"/></svg>