<svg xmlns="http://www.w3.org/2000/svg" width="33" height="33" fill="none"><path fill="#111827" fill-rule="evenodd" d="M23.978 6.066a1 1 0 0 1 1-1h6.521a1 1 0 1 1 0 2h-6.521a1 1 0 0 1-1-1ZM1.5 10.283a1 1 0 0 0 0 2h6.521a1 1 0 1 0 0-2H1.501Zm0 5.217a1 1 0 1 0 0 2h6.521a1 1 0 1 0 0-2H1.501Zm-1 6.217a1 1 0 0 1 1-1h6.521a1 1 0 1 1 0 2H1.501a1 1 0 0 1-1-1Zm1 4.217a1 1 0 1 0 0 2h6.521a1 1 0 1 0 0-2H1.501ZM12.239 16.5a1 1 0 0 1 1-1h6.522a1 1 0 1 1 0 2h-6.522a1 1 0 0 1-1-1Zm1 4.217a1 1 0 1 0 0 2h6.522a1 1 0 1 0 0-2h-6.522Zm-1 6.217a1 1 0 0 1 1-1h6.522a1 1 0 1 1 0 2h-6.522a1 1 0 0 1-1-1Zm12.739-16.651a1 1 0 0 0 0 2h6.521a1 1 0 1 0 0-2h-6.521Zm0 5.217a1 1 0 0 0 0 2h6.521a1 1 0 1 0 0-2h-6.521Zm-1 6.217a1 1 0 0 1 1-1h6.521a1 1 0 1 1 0 2h-6.521a1 1 0 0 1-1-1Zm1 4.217a1 1 0 0 0 0 2h6.521a1 1 0 1 0 0-2h-6.521Z" clip-rule="evenodd"/></svg>