<svg xmlns="http://www.w3.org/2000/svg" width="33" height="32" fill="none" viewBox="0 0 33 32"><path fill="#111827" fill-rule="evenodd" d="M16.64 24.642c-3.944.055-8.137-2.599-13.793-8.75 5.396-5.963 9.468-8.57 13.41-8.535 3.963.036 8.182 2.74 13.87 8.56-5.448 5.904-9.542 8.67-13.487 8.725Zm15.582-9.436c-6.006-6.27-10.917-9.803-15.947-9.848-5.057-.046-9.817 3.427-15.524 9.877a1 1 0 0 0 .006 1.332C6.72 23.19 11.61 26.713 16.668 26.642c5.044-.07 9.825-3.715 15.574-10.074a1 1 0 0 0-.02-1.362ZM12.812 16a3.688 3.688 0 1 1 7.375 0 3.688 3.688 0 0 1-7.375 0Zm3.688-5.688a5.688 5.688 0 1 0 0 11.376 5.688 5.688 0 0 0 0-11.376Z" clip-rule="evenodd"/></svg>