<svg xmlns="http://www.w3.org/2000/svg" width="33" height="32" fill="none" viewBox="0 0 33 32"><path fill="#111827" fill-rule="evenodd" d="M2.295 8.756a1 1 0 1 0-1.556 1.256c.807 1 1.818 2.082 3.046 3.112L.635 18.58a1 1 0 0 0 1.731 1l3.024-5.237a19.2 19.2 0 0 0 5.869 2.72l-.949 5.377a1 1 0 0 0 1.97.347l.935-5.304c1.038.167 2.135.26 3.294.26 1.153 0 2.246-.092 3.28-.258l.934 5.304a1 1 0 0 0 1.97-.348l-.948-5.375a19.2 19.2 0 0 0 5.876-2.72l3.007 5.21a1 1 0 0 0 1.732-1l-3.134-5.428a22.6 22.6 0 0 0 3.052-3.117 1 1 0 1 0-1.556-1.256 20.3 20.3 0 0 1-3.425 3.358c-2.605 1.997-6.152 3.63-10.788 3.63-4.635 0-8.18-1.632-10.786-3.628l-.067-.051a20.4 20.4 0 0 1-3.361-3.31" clip-rule="evenodd"/></svg>