<svg xmlns="http://www.w3.org/2000/svg" width="33" height="33" fill="none" viewBox="0 0 33 33"><path fill="#111827" fill-rule="evenodd" d="M29.337 3.039c-1.452-1.375-3.793-1.31-5.245.142l-4.644 4.644a1 1 0 0 1-1.414 0l-.823-.823a1.693 1.693 0 0 0-2.394 0l-1.183 1.184a.347.347 0 0 0 0 .49L23.849 18.89a.347.347 0 0 0 .49 0l1.183-1.183a1.693 1.693 0 0 0 0-2.394l-.823-.823a1 1 0 0 1 0-1.414l4.713-4.713a3.71 3.71 0 0 0-.075-5.324m1.374-1.453c-2.278-2.156-5.854-1.998-8.033.181L18.74 5.704l-.115-.116a3.69 3.69 0 0 0-5.223 0L12.22 6.771a2.346 2.346 0 0 0 0 3.319l.591.591-8.718 8.72a6.38 6.38 0 0 0-1.738 5.815l-1.69 3.87a1.97 1.97 0 0 0 .412 2.179 2.35 2.35 0 0 0 2.598.49l-.4-.916.4.917 3.633-1.586a6.39 6.39 0 0 0 5.816-1.738l6.088-6.089c.294-.1.527-.332.627-.626l2.004-2.004.591.592a2.346 2.346 0 0 0 3.319 0l1.183-1.184a3.69 3.69 0 0 0 0-5.222l-.116-.116 4.006-4.006-.707-.707.707.707a5.714 5.714 0 0 0-.115-8.191M20.43 18.299l-6.204-6.203-8.3 8.3h12.406zm-4.098 4.097H4.493a4.37 4.37 0 0 0-.123 2.656 1 1 0 0 1-.049.659l-1.814 4.155a.35.35 0 0 0 .367.057l3.94-1.72a1 1 0 0 1 .659-.05 4.38 4.38 0 0 0 4.236-1.135z" clip-rule="evenodd"/></svg>