<svg xmlns="http://www.w3.org/2000/svg" width="33" height="32" fill="none" viewBox="0 0 33 32"><path fill="#111827" fill-rule="evenodd" d="M5.552 3.638a1 1 0 0 0-1.414 1.415l3.554 3.553c-2.187 1.618-4.467 3.834-6.94 6.629a1 1 0 0 0 .006 1.331c4.428 4.92 8.244 8.1 11.958 9.403 3.693 1.295 7.157.693 10.781-1.557l3.95 3.95a1 1 0 0 0 1.414-1.415L5.552 3.638Zm16.489 19.317-2.29-2.289a5.687 5.687 0 0 1-7.918-7.918l-2.71-2.71c-1.928 1.388-3.99 3.328-6.275 5.854 4.11 4.471 7.467 7.115 10.53 8.19 2.879 1.01 5.604.666 8.663-1.127Zm-8.758-8.758a3.687 3.687 0 0 0 5.02 5.02l-5.02-5.02Zm2.004-7.85a1 1 0 0 1 1.01-.989c5.022.056 9.927 3.588 15.924 9.848a1 1 0 0 1 .02 1.362 71.975 71.975 0 0 1-3.465 3.599 1 1 0 1 1-1.386-1.441 66.09 66.09 0 0 0 2.737-2.809c-5.68-5.81-9.894-8.515-13.852-8.559a1 1 0 0 1-.988-1.01Zm.853 4.875a1 1 0 0 1 1.124-.858 5.69 5.69 0 0 1 4.86 4.79 1 1 0 0 1-1.977.296 3.69 3.69 0 0 0-3.15-3.104 1 1 0 0 1-.857-1.124Z" clip-rule="evenodd"/></svg>