<svg xmlns="http://www.w3.org/2000/svg" width="33" height="32" fill="none" viewBox="0 0 33 32"><path fill="#111827" fill-rule="evenodd" d="M16.959 5.089a1 1 0 0 0-.824-.002L6.07 9.617h-.264a5.306 5.306 0 0 0-.447 10.592 6 6 0 0 0 4.255 4.823l6.653 1.93a1 1 0 0 0 .559-.001l6.574-1.924a6 6 0 0 0 4.243-4.828 5.306 5.306 0 0 0-.45-10.593h-.262zm10.756 13.098v-6.53a3.307 3.307 0 0 1 0 6.53m-2-6.927-9.172-4.163-9.258 4.166v8.006a4 4 0 0 0 2.886 3.842l6.373 1.848 6.294-1.841a4 4 0 0 0 2.877-3.84V11.26M2.501 14.923a3.306 3.306 0 0 1 2.784-3.265v6.53A3.31 3.31 0 0 1 2.5 14.922m8.215-.479a1 1 0 0 1 1-1h9.568a1 1 0 0 1 0 2h-9.568a1 1 0 0 1-1-1m0 3.828a1 1 0 0 1 1-1h9.568a1 1 0 0 1 0 2h-9.568a1 1 0 0 1-1-1" clip-rule="evenodd"/></svg>