<svg xmlns="http://www.w3.org/2000/svg" width="33" height="33" fill="none" viewBox="0 0 33 33"><path fill="#111827" fill-rule="evenodd" d="M22.786 2.644a2.071 2.071 0 0 0-2.044 1.737l-2.665 12.3-3.712-5.058a1 1 0 0 0-1.742.24l-1.87 4.975-5.33-5.33a1 1 0 0 0-1.708.706v16.14H1.501a1 1 0 0 0 0 2h3.145a.99.99 0 0 0 .138 0h23.432a.991.991 0 0 0 .138 0H31.5a1 1 0 1 0 0-2h-2.214v-9.711c0-.059-.005-.116-.015-.172L27.264 4.422a2.071 2.071 0 0 0-2.051-1.778h-2.427Zm4.346 14.999L25.284 4.705a.072.072 0 0 0-.071-.061h-2.427a.071.071 0 0 0-.07.061 1.045 1.045 0 0 1-.013.07l-2.788 12.868h7.217Zm-8.518 2c.042.002.083.002.124 0h8.547v8.71H5.715V14.63l4.721 4.72a1 1 0 0 0 1.643-.355l1.767-4.7 3.625 4.94a1 1 0 0 0 .806.409h.337ZM9.072 24a1 1 0 0 1 1-1h3.75a1 1 0 1 1 0 2h-3.75a1 1 0 0 1-1-1Zm9.106 0a1 1 0 0 1 1-1h3.75a1 1 0 1 1 0 2h-3.75a1 1 0 0 1-1-1Z" clip-rule="evenodd"/></svg>