<svg xmlns="http://www.w3.org/2000/svg" width="33" height="33" fill="none" viewBox="0 0 33 33"><path fill="#111827" fill-rule="evenodd" d="M22.786 2.644a2.07 2.07 0 0 0-2.044 1.737l-2.665 12.3-3.712-5.058a1 1 0 0 0-1.742.24l-1.87 4.975-5.33-5.33a1 1 0 0 0-1.708.706v16.14H1.501a1 1 0 0 0 0 2h3.145a1 1 0 0 0 .138 0h23.432a1 1 0 0 0 .138 0H31.5a1 1 0 1 0 0-2h-2.214v-9.711q0-.088-.015-.172L27.265 4.422a2.07 2.07 0 0 0-2.051-1.778zm4.346 14.999L25.284 4.705a.07.07 0 0 0-.071-.061h-2.427a.07.07 0 0 0-.07.061l-.013.07-2.788 12.868zm-8.518 2q.063.003.124 0h8.547v8.71H5.715V14.63l4.721 4.72a1 1 0 0 0 1.643-.355l1.767-4.7 3.625 4.94a1 1 0 0 0 .806.409zM9.072 24a1 1 0 0 1 1-1h3.75a1 1 0 1 1 0 2h-3.75a1 1 0 0 1-1-1m9.106 0a1 1 0 0 1 1-1h3.75a1 1 0 1 1 0 2h-3.75a1 1 0 0 1-1-1" clip-rule="evenodd"/></svg>