<svg xmlns="http://www.w3.org/2000/svg" width="33" height="33" fill="none" viewBox="0 0 33 33"><g clip-path="url(#a)"><path fill="#111827" d="M32.19 19.268a9.14 9.14 0 0 0-13.652-5.4L21.035 3.9a1.219 1.219 0 0 0-.526-1.322 9.14 9.14 0 1 0-9.235 15.763l-9.881 2.822a1.218 1.218 0 0 0-.884 1.115 9.14 9.14 0 0 0 6.767 9.24 9.222 9.222 0 0 0 2.379.316 9.148 9.148 0 0 0 9.121-9.444l7.385 7.147a1.219 1.219 0 0 0 1.409.205 9.14 9.14 0 0 0 4.62-10.474Zm-18.432-1.066a2.437 2.437 0 1 1 4.875 0 2.437 2.437 0 0 1-4.875 0Zm-4.874-7.92a6.702 6.702 0 0 1 9.558-6.066l-2.281 9.112a4.875 4.875 0 0 0-4.253 2.559 6.68 6.68 0 0 1-3.024-5.606Zm4.113 18.213A6.702 6.702 0 0 1 2.965 23.25l9.034-2.58a4.874 4.874 0 0 0 4.197 2.406h.138a6.675 6.675 0 0 1-3.337 5.419Zm16.172-3.504a6.69 6.69 0 0 1-1.98 2.154l-6.751-6.533a4.861 4.861 0 0 0-.09-4.961 6.702 6.702 0 0 1 8.821 9.34Z"/></g><defs><clipPath id="a"><path fill="#fff" d="M.5.5h32v32H.5z"/></clipPath></defs></svg>