<svg xmlns="http://www.w3.org/2000/svg" width="33" height="32" fill="none" viewBox="0 0 33 32"><g clip-path="url(#a)"><path fill="#000" fill-rule="evenodd" d="M4.164 12.564C6.82 8.59 11.34 5.98 16.468 5.98c5.165 0 9.713 2.647 12.36 6.669a2 2 0 0 0 3.341-2.2c-3.355-5.097-9.134-8.469-15.701-8.469-6.52 0-12.264 3.324-15.63 8.36a2 2 0 0 0 3.326 2.223Zm6.986 8.103a5.352 5.352 0 1 1 10.703 0 5.352 5.352 0 0 1-10.703 0Zm5.351-9.352a9.352 9.352 0 1 0 0 18.704 9.352 9.352 0 0 0 0-18.703Z" clip-rule="evenodd"/></g><defs><clipPath id="a"><path fill="#fff" d="M.5 0h32v32H.5z"/></clipPath></defs></svg>