<svg xmlns="http://www.w3.org/2000/svg" width="33" height="32" fill="none" viewBox="0 0 33 32"><path fill="#111827" fill-rule="evenodd" d="M7.258 1.758A6 6 0 0 1 11.5.001h10A6 6 0 0 1 24.817 11a6 6 0 1 1-7.317 9.472V26a6 6 0 1 1-9.333-4.99l.017-.01a6 6 0 0 1 0-10 5.998 5.998 0 0 1-.926-9.242Zm4.242.243h4V10h-4.037a4 4 0 0 1 .037-8Zm6 13.978A4 4 0 0 1 21.45 12h.087a4 4 0 1 1-4.037 4.02v-.04Zm0-13.978v8h3.94L21.5 10h.037a4 4 0 0 0-.037-8h-4Zm-6.037 10a4 4 0 0 0 .037 7.998h4V12h-4.037ZM11.5 22h4v4a4 4 0 1 1-4-4Z" clip-rule="evenodd"/></svg>