<svg xmlns="http://www.w3.org/2000/svg" width="33" height="32" fill="none" viewBox="0 0 33 32"><path fill="#111827" fill-rule="evenodd" d="M3 1a1 1 0 0 1 1-1h16.276a1 1 0 0 1 .71.295l8.722 8.76a1 1 0 0 1 .291.706v21.238a1 1 0 0 1-1 1H4.001a1 1 0 0 1-1-1V1.001Zm2 1v28h23V10.675H20.36a1 1 0 0 1-1-1V2.001H5.001Zm8.457 13.293a1 1 0 0 0-1.414 1.414l3.043 3.043-3.043 3.042a1 1 0 0 0 1.414 1.415l3.043-3.043 3.043 3.043a1 1 0 1 0 1.414-1.415l-3.043-3.042 3.043-3.043a1 1 0 1 0-1.414-1.414L16.5 18.336l-3.043-3.043Zm7.904-6.617V3.574l5.107 5.102h-5.107Z" clip-rule="evenodd"/></svg>