<svg xmlns="http://www.w3.org/2000/svg" width="33" height="32" fill="none" viewBox="0 0 33 32"><path fill="#111827" fill-rule="evenodd" d="M4 0a1 1 0 0 0-1 1v1.876a1 1 0 1 0 2 0V2h1.035a1 1 0 1 0 0-2zm6.104 0a1 1 0 0 0 0 2h4.07a1 1 0 1 0 0-2zm8.138 0a1 1 0 0 0 0 2h1.12v7.676a1 1 0 0 0 1 1h7.637v.855a1 1 0 1 0 2 0V9.76a1 1 0 0 0-.291-.706l-1.09-1.095a1 1 0 0 0-.18-.143l-1.845-1.843a1 1 0 0 0-.156-.204l-2.18-2.19a1 1 0 0 0-.234-.174L22.26 1.643a1 1 0 0 0-.183-.253L20.986.295a1 1 0 0 0-.71-.294zM5.001 6.627a1 1 0 1 0-2 0v3.75a1 1 0 1 0 2 0zm0 7.5a1 1 0 1 0-2 0v3.749a1 1 0 1 0 2 0zm24.998.945a1 1 0 1 0-2 0v3.54a1 1 0 1 0 2 0zM5.001 21.625a1 1 0 1 0-2 0v3.75a1 1 0 1 0 2 0zm24.998.525a1 1 0 1 0-2 0v3.54a1 1 0 1 0 2 0zM5.001 29.124a1 1 0 1 0-2 0V31a1 1 0 0 0 1 1h2.083a1 1 0 1 0 0-2H5zm24.998.105a1 1 0 0 0-2 0V30h-1.083a1 1 0 1 0 0 2h2.083a1 1 0 0 0 1-1zM10.25 30a1 1 0 1 0 0 2h4.167a1 1 0 0 0 0-2zm8.333 0a1 1 0 1 0 0 2h4.167a1 1 0 1 0 0-2zm2.778-21.323V3.574l5.107 5.102z" clip-rule="evenodd"/></svg>