<svg xmlns="http://www.w3.org/2000/svg" width="33" height="32" fill="none" viewBox="0 0 33 32"><path fill="#111827" fill-rule="evenodd" d="M9 0a1 1 0 0 0-1 1v4H4a1 1 0 0 0-1 1v25a1 1 0 0 0 1 1h20a1 1 0 0 0 1-1v-4h4a1 1 0 0 0 1-1V8.3a1 1 0 0 0-.278-.691L22.744.31A1 1 0 0 0 22.02 0zm16 25h3V8.701l-6.406-6.701H10v3h7.021a1 1 0 0 1 .723.309l6.978 7.3a1 1 0 0 1 .277.69zM5 7v23h18V13.701L16.594 7zm5.25 11.75a1 1 0 0 0 0 2h7.5a1 1 0 1 0 0-2zm0 5a1 1 0 0 0 0 2h7.5a1 1 0 1 0 0-2z" clip-rule="evenodd"/></svg>