<svg xmlns="http://www.w3.org/2000/svg" width="33" height="32" fill="none" viewBox="0 0 33 32"><path fill="#111827" fill-rule="evenodd" d="M4.006 0a1 1 0 0 0-1 1v14.978a1 1 0 0 0 2 0V2h14.361v7.675a1 1 0 0 0 1 1h7.638V30h-5.252a1 1 0 1 0 0 2h6.252a1 1 0 0 0 1-1V9.761a1 1 0 0 0-.291-.706L20.99.295a1 1 0 0 0-.709-.294zm17.361 8.676V3.574l5.107 5.102zM2.995 21a1 1 0 0 1 1-1h8.258c1.87 0 3.44 1.283 3.878 3.017l2.334-1.5a1 1 0 0 1 1.54.841v6.52a1 1 0 0 1-1.54.842l-2.212-1.422v1.939a1 1 0 0 1-1 1H6.995a4 4 0 0 1-4-4zm11.258 3.762v4.475H6.995a2 2 0 0 1-2-2V22h7.258a2 2 0 0 1 2 2zm2 1.158 1.752 1.127V24.19l-1.752 1.127z" clip-rule="evenodd"/></svg>