<svg xmlns="http://www.w3.org/2000/svg" width="33" height="32" fill="none" viewBox="0 0 33 32"><path fill="#111827" fill-rule="evenodd" d="M3.269 1a1 1 0 0 1 1-1h16.275a1 1 0 0 1 .709.295l8.723 8.76a1 1 0 0 1 .291.706v21.238a1 1 0 0 1-1 1h-6.252a1 1 0 1 1 0-2h5.252V10.676h-7.638a1 1 0 0 1-1-1V2.001H5.27v13.977a1 1 0 1 1-2 0zm18.36 2.574v5.102h5.107zM9.556 22.832a1 1 0 1 0-2 0V29a1 1 0 0 1-1 1h-.823a1 1 0 0 1-1-1v-.75a1 1 0 1 0-2 0V29a3 3 0 0 0 3 3h.823a3 3 0 0 0 3-3zm2.568 2.042a3.04 3.04 0 0 1 3.041-3.042h3.831a1 1 0 1 1 0 2h-3.83a1.042 1.042 0 0 0 0 2.084h1.881q.063 0 .125.007A3.042 3.042 0 0 1 16.954 32h-3.83a1 1 0 1 1 0-2h3.83a1.042 1.042 0 1 0 0-2.083H15.02q-.1 0-.194-.02a3.04 3.04 0 0 1-2.701-3.022" clip-rule="evenodd"/></svg>