<svg xmlns="http://www.w3.org/2000/svg" width="33" height="32" fill="none" viewBox="0 0 33 32"><path fill="#111827" fill-rule="evenodd" d="M3 1a1 1 0 0 1 1-1h16.276a1 1 0 0 1 .71.295l8.722 8.76a1 1 0 0 1 .291.706v21.238a1 1 0 0 1-1 1h-6.252a1 1 0 1 1 0-2H28V10.676h-7.638a1 1 0 0 1-1-1V2.001H5.001v13.977a1 1 0 1 1-2 0zm7.252 15.808A4.47 4.47 0 0 0 5.78 21.28v1.082H4.004a1 1 0 0 0-1 1V31a1 1 0 0 0 1 1H16.5a1 1 0 0 0 1-1v-7.637a1 1 0 0 0-1-1h-1.777V21.28a4.47 4.47 0 0 0-4.471-4.472M7.78 21.28a2.471 2.471 0 0 1 4.942 0v1.082H7.781zM5.004 30v-5.638H15.5V30zM21.36 8.675V3.574l5.107 5.102z" clip-rule="evenodd"/></svg>