<svg xmlns="http://www.w3.org/2000/svg" width="33" height="32" fill="none" viewBox="0 0 33 32"><path fill="#111827" fill-rule="evenodd" d="M3 1a1 1 0 0 1 1-1h16.276a1 1 0 0 1 .71.295l8.722 8.76a1 1 0 0 1 .291.706v21.238a1 1 0 0 1-1 1h-6.252a1 1 0 1 1 0-2H28V10.676h-7.638a1 1 0 0 1-1-1V2.001H5.001v13.977a1 1 0 0 1-2 0V1Zm1 21.5a1 1 0 1 0 0 2h1.813v6.499a1 1 0 1 0 2 0v-6.5h1.812a1 1 0 1 0 0-2H4.001ZM21.362 8.676V3.574l5.107 5.102h-5.107Zm-1.05 13.944a1 1 0 0 1 .127 1.408l-2.637 3.166 2.637 3.165a1 1 0 0 1-1.536 1.28L16.5 28.756l-2.402 2.883a1 1 0 0 1-1.537-1.28l2.637-3.166-2.637-3.165a1 1 0 0 1 1.537-1.28L16.5 25.63l2.402-2.883a1 1 0 0 1 1.408-.128Z" clip-rule="evenodd"/></svg>