<svg xmlns="http://www.w3.org/2000/svg" width="33" height="32" fill="none" viewBox="0 0 33 32"><path fill="#111827" fill-rule="evenodd" d="M3 1a1 1 0 0 1 1-1h16.276a1 1 0 0 1 .71.295l8.722 8.76a1 1 0 0 1 .291.706v21.238a1 1 0 0 1-1 1H4.001a1 1 0 0 1-1-1V1.001Zm2 1v28h23V10.675H20.36a1 1 0 0 1-1-1V2.001H5.001Zm7.5 17.125a3.375 3.375 0 1 1 6.749 0 3.375 3.375 0 0 1-6.75 0Zm3.374-5.375a5.375 5.375 0 1 0 3.027 9.816l1.86 1.86a1 1 0 0 0 1.413-1.415l-1.858-1.859a5.375 5.375 0 0 0-4.442-8.402Zm5.487-5.074V3.574l5.107 5.102h-5.107Z" clip-rule="evenodd"/></svg>