<svg xmlns="http://www.w3.org/2000/svg" width="33" height="34" fill="none" viewBox="0 0 33 34"><path stroke="#111827" stroke-linecap="round" stroke-linejoin="round" stroke-width="2" d="M21.164 33h8.67V10.345L20.528 1H3.167v15.976"/><path stroke="#111827" stroke-linecap="round" stroke-linejoin="round" stroke-width="2" d="M20.619 10.254V1.171l9.092 9.083zM11.114 28.296a3 3 0 1 0 0-6 3 3 0 0 0 0 6"/><path fill="#111827" d="m13.663 33-.866.5a1 1 0 0 0 1.366.366zm-.99-1.717.865-.5a1 1 0 0 0-1.117-.468zm3.838.073.5.866a1 1 0 0 0 .366-1.366zm-.992-1.718-.712-.702a1 1 0 0 0-.154 1.202zm1.56-2.698v-1a1 1 0 0 0-.965.734zm1.982 0v1a1 1 0 0 0 1-1zm0-3.289h1a1 1 0 0 0-1-1zm-1.982 0-.965.265a1 1 0 0 0 .965.735zm-1.56-2.698-.866-.5a1 1 0 0 0 .154 1.202zm.992-1.718.866.5a1 1 0 0 0-.366-1.366zm-2.848-1.644.5-.866a1 1 0 0 0-1.366.366zm-.99 1.717-.252.968a1 1 0 0 0 1.117-.468zm-3.118 0-.866.5a1 1 0 0 0 1.118.468zm-.99-1.717.865-.5a1 1 0 0 0-1.366-.366zm-2.849 1.644-.5-.866a1 1 0 0 0-.366 1.366zm.992 1.718.712.702a1 1 0 0 0 .154-1.202zM5.15 23.651v1a1 1 0 0 0 .964-.735zm-1.982 0v-1a1 1 0 0 0-1 1zm0 3.289h-1a1 1 0 0 0 1 1zm1.982 0 .964-.266a1 1 0 0 0-.964-.734zm1.56 2.697.865.5a1 1 0 0 0-.153-1.201zm-.993 1.719-.866-.5a1 1 0 0 0 .366 1.366zM8.564 33l-.5.866A1 1 0 0 0 9.43 33.5zm.991-1.717.252-.968a1 1 0 0 0-1.118.468zM14.53 32.5l-.99-1.717-1.733 1 .991 1.717zm1.482-2.01-2.848 1.644 1 1.732 2.848-1.644zm-1.358-.352.992 1.718 1.732-1-.992-1.718zm1.461-3.464a5.2 5.2 0 0 1-1.307 2.262l1.424 1.404a7.2 7.2 0 0 0 1.812-3.135zm2.947-.734h-1.982v2h1.982zm-1-2.289v3.289h2V23.65zm-.982 1h1.982v-2h-1.982zm-2.272-2.996a5.2 5.2 0 0 1 1.307 2.261l1.929-.53a7.2 7.2 0 0 0-1.812-3.135zm.838-2.92-.992 1.718 1.732 1 .992-1.718zm-2.482-.278 2.848 1.644 1-1.732-2.848-1.644zm.375 1.35.991-1.716-1.732-1-.99 1.717zm-2.424.303q.68.002 1.307.166l.502-1.936a7.2 7.2 0 0 0-1.81-.23zm-1.307.166a5.2 5.2 0 0 1 1.307-.166v-2c-.624 0-1.23.08-1.81.23zM7.698 18.09l.991 1.717 1.732-1-.99-1.717zm-1.482 2.01 2.848-1.644-1-1.732-2.848 1.644zm1.358.352-.992-1.718-1.732 1 .992 1.718zm-1.46 3.464a5.2 5.2 0 0 1 1.306-2.262l-1.424-1.404a7.2 7.2 0 0 0-1.811 3.135zm-2.947.734h1.982v-2H3.167zm1 2.289V23.65h-2v3.289zm.982-1H3.167v2h1.982zm2.272 2.996a5.2 5.2 0 0 1-1.308-2.262l-1.928.53a7.2 7.2 0 0 0 1.811 3.136zm-.839 2.92.992-1.719-1.732-1-.992 1.719zm2.482.278L6.216 30.49l-1 1.732 2.848 1.644zm-.375-1.35L7.7 32.5l1.731 1 .991-1.717zm2.425-.303c-.453 0-.89-.058-1.307-.166l-.503 1.936c.58.15 1.186.23 1.81.23zm1.307-.166a5.2 5.2 0 0 1-1.307.166v2c.624 0 1.23-.08 1.81-.23z"/></svg>