<svg xmlns="http://www.w3.org/2000/svg" width="33" height="32" fill="none" viewBox="0 0 33 32"><path fill="#111827" fill-rule="evenodd" d="M1.98 1a1 1 0 0 1 1-1h17.605a1 1 0 0 1 .709.295l9.435 9.476a1 1 0 0 1 .291.706v6.748a1 1 0 1 1-2 0v-5.84h-8.343a1 1 0 0 1-1-1V2H3.98v15.224a1 1 0 1 1-2 0V1.001Zm19.697 2.586v5.799h5.803l-5.803-5.799ZM14.495 27.12c0-1.716 1.196-2.88 2.41-2.88 1.213 0 2.41 1.164 2.41 2.88 0 1.715-1.197 2.88-2.41 2.88-1.214 0-2.41-1.165-2.41-2.88Zm2.41-4.88c-2.553 0-4.41 2.31-4.41 4.88S14.352 32 16.905 32c2.552 0 4.41-2.31 4.41-4.88s-1.858-4.88-4.41-4.88Zm-7.342 4.877a4.882 4.882 0 0 0-4.882-4.882H2.98a1 1 0 0 0-1 1v7.764a1 1 0 0 0 1 1h1.7a4.882 4.882 0 0 0 4.883-4.882ZM4.68 24.235a2.882 2.882 0 0 1 0 5.764H3.98v-5.764h.7Zm23.618-2a4.882 4.882 0 0 0 0 9.764h1.7a1 1 0 1 0 0-2h-1.7a2.882 2.882 0 1 1 0-5.764h1.7a1 1 0 1 0 0-2h-1.7Z" clip-rule="evenodd"/></svg>