<svg xmlns="http://www.w3.org/2000/svg" width="33" height="32" fill="none" viewBox="0 0 33 32"><path fill="#111827" fill-rule="evenodd" d="M3.053 0a1 1 0 0 0-1 1v16.136a1 1 0 1 0 2 0V2h15.601v8.333a1 1 0 0 0 1 1h8.293v5.803a1 1 0 1 0 2 0v-6.711a1 1 0 0 0-.292-.706L21.271.295A1 1 0 0 0 20.563 0zm18.601 9.333V3.585l5.753 5.748zm1.99 12.795a1 1 0 0 1 1.28.602l1.953 5.423 2.128-5.448a1 1 0 1 1 1.863.727l-3 7.683c-.37.947-1.716.929-2.06-.027l-2.765-7.68a1 1 0 0 1 .602-1.28m-16.625-.06a4.965 4.965 0 0 0 0 9.931h1.695a1 1 0 1 0 0-2H7.019a2.965 2.965 0 0 1 0-5.93h1.695a1 1 0 1 0 0-2zm5.5 2.983A2.983 2.983 0 0 1 15.5 22.07h3.678a1 1 0 1 1 0 2H15.5a.983.983 0 0 0 0 1.965H17.3q.073 0 .142.01A2.983 2.983 0 0 1 17.196 32h-3.678a1 1 0 1 1 0-2h3.678a.983.983 0 1 0 0-1.965h-1.85a1 1 0 0 1-.212-.022 2.983 2.983 0 0 1-2.616-2.96" clip-rule="evenodd"/></svg>