<svg xmlns="http://www.w3.org/2000/svg" width="33" height="32" fill="none" viewBox="0 0 33 32"><path fill="#111827" fill-rule="evenodd" d="M4 .001a1 1 0 0 0-1 1v29.998a1 1 0 0 0 1 1h25a1 1 0 0 0 1-1V9.761a1 1 0 0 0-.292-.705L20.985.296A1 1 0 0 0 20.276 0H4.002Zm1 29.998V2.001h3.86v2h-.557a1 1 0 1 0 0 2h.557v2h-.557a1 1 0 1 0 0 2h.557v2h-.557a1 1 0 1 0 0 2h.557V16h2v-1.999h.557a1 1 0 0 0 0-2h-.557v-2h.557a1 1 0 0 0 0-2h-.557v-2h.557a1 1 0 0 0 0-2h-.557v-2h8.501v7.675a1 1 0 0 0 1 1H28V30H5.001ZM21.362 8.676V3.574l5.107 5.102h-5.107ZM7.315 17.001a1 1 0 0 1 1-1h3.058a1 1 0 0 1 1 1v2.806l.437 1.55a3.08 3.08 0 1 1-5.931 0l.436-1.552v-2.804Zm2 1v.943h1.058V18H9.315ZM8.804 21.9l.269-.955h1.543l.268.955a1.08 1.08 0 1 1-2.08 0Z" clip-rule="evenodd"/></svg>