<svg xmlns="http://www.w3.org/2000/svg" width="33" height="32" fill="none" viewBox="0 0 33 32"><path fill="#111827" fill-rule="evenodd" d="M3.1 0a1 1 0 0 0-1 1v16.08a1 1 0 0 0 2 0V2h15.54v8.3a1 1 0 0 0 1 1h8.26v5.78a1 1 0 0 0 2 0v-6.688a1 1 0 0 0-.29-.706L21.257.295A1 1 0 0 0 20.549 0zm18.54 9.3V3.586L27.361 9.3zM2.1 22.91a1 1 0 0 1 1-1h3.055a3.323 3.323 0 0 1 0 6.646H4.1v2.422a1 1 0 1 1-2 0V22.91m2 3.646h2.055a1.323 1.323 0 0 0 0-2.646H4.1zm9.757-4.646a1 1 0 0 0-1 1v8.068a1 1 0 0 0 1 1h2.018a5.034 5.034 0 1 0 0-10.068zm2.018 2a3.034 3.034 0 0 1 0 6.068h-1.018V23.91zm8.148-.974a1 1 0 0 1 1-1h4.847a1 1 0 1 1 0 2h-3.847v2.498h3.173a1 1 0 1 1 0 2h-3.173V31a1 1 0 1 1-2 0z" clip-rule="evenodd"/></svg>