<svg xmlns="http://www.w3.org/2000/svg" width="33" height="32" fill="none" viewBox="0 0 33 32"><path fill="#111827" fill-rule="evenodd" d="M2.082 1a1 1 0 0 1 1-1h17.463a1 1 0 0 1 .709.295l9.36 9.4a1 1 0 0 1 .29.705v6.694a1 1 0 1 1-2 0v-5.786h-8.268a1 1 0 0 1-1-1V2H4.082v15.094a1 1 0 1 1-2 0zm19.554 2.585v5.724h5.73zM7.054 22.055a4.972 4.972 0 1 0 0 9.944h1.74a1 1 0 0 0 0-2h-1.74a2.972 2.972 0 0 1 0-5.944h1.74a1 1 0 1 0 0-2zm5.59 2.986a2.986 2.986 0 0 1 2.986-2.986h3.726a1 1 0 1 1 0 2H15.63a.986.986 0 0 0 0 1.972h1.83q.066 0 .13.008A2.986 2.986 0 0 1 17.37 32h-3.727a1 1 0 1 1 0-2h3.727a.986.986 0 1 0 0-1.973h-1.882q-.102 0-.197-.019a2.986 2.986 0 0 1-2.648-2.967m13.547-2.986a2.986 2.986 0 0 0-.339 5.953q.096.02.197.02h1.883a.986.986 0 1 1 0 1.972h-3.727a1 1 0 1 0 0 2h3.727a2.986 2.986 0 0 0 .09-5.973h-1.83a.986.986 0 0 1 0-1.972h3.726a1 1 0 0 0 0-2z" clip-rule="evenodd"/></svg>