<svg xmlns="http://www.w3.org/2000/svg" width="33" height="32" fill="none" viewBox="0 0 33 32"><path fill="#111827" fill-rule="evenodd" d="M4 0a1 1 0 0 0-1 1v14.978a1 1 0 1 0 2 0V2h14.361v7.675a1 1 0 0 0 1 1H28V30h-5.252a1 1 0 1 0 0 2H29a1 1 0 0 0 1-1V9.761a1 1 0 0 0-.291-.706L20.985.295a1 1 0 0 0-.709-.294H4.002Zm17.361 8.676V3.574l5.107 5.102h-5.107Zm-9.165 16.27a3.018 3.018 0 0 1 3.018-3.019H19a1 1 0 1 1 0 2h-3.786a1.018 1.018 0 1 0 0 2.036h1.86A3.018 3.018 0 0 1 16.982 32h-3.787a1 1 0 0 1 0-2h3.786a1.018 1.018 0 0 0 0-2.036h-1.913a1 1 0 0 1-.194-.018 3.018 3.018 0 0 1-2.68-3ZM3 22.955c0-.568.46-1.029 1.029-1.029h3.438a3.324 3.324 0 0 1 .638 6.587l2.28 1.68a1 1 0 0 1-1.187 1.61L5.001 28.71V31a1 1 0 1 1-2 0v-8.043Zm2 3.62h2.467a1.324 1.324 0 0 0 0-2.649H5.001v2.649Z" clip-rule="evenodd"/></svg>