<svg xmlns="http://www.w3.org/2000/svg" width="33" height="34" fill="none" viewBox="0 0 33 34"><path stroke="#111827" stroke-linecap="round" stroke-linejoin="round" stroke-width="2" d="M21.164 33h8.67V10.345L20.528 1H3.167v15.976"/><path stroke="#111827" stroke-linecap="round" stroke-linejoin="round" stroke-width="2" d="M20.619 10.254V1.171l9.091 9.083H20.62ZM11.114 28.296a3 3 0 1 0 0-6 3 3 0 0 0 0 6Z"/><path fill="#111827" d="m13.663 33-.866.5a1 1 0 0 0 1.366.366l-.5-.866Zm-.99-1.717.865-.5a1 1 0 0 0-1.117-.468l.251.968Zm3.838.073.5.866a1 1 0 0 0 .366-1.366l-.866.5Zm-.992-1.718-.712-.702a1 1 0 0 0-.154 1.202l.866-.5Zm1.56-2.698v-1a1 1 0 0 0-.965.734l.965.266Zm1.982 0v1a1 1 0 0 0 1-1h-1Zm0-3.289h1a1 1 0 0 0-1-1v1Zm-1.982 0-.965.265a1 1 0 0 0 .965.735v-1Zm-1.56-2.698-.866-.5a1 1 0 0 0 .154 1.202l.712-.702Zm.992-1.718.866.5a1 1 0 0 0-.366-1.366l-.5.866Zm-2.848-1.644.5-.866a1 1 0 0 0-1.366.366l.866.5Zm-.99 1.717-.252.968a1 1 0 0 0 1.117-.468l-.866-.5Zm-3.118 0-.866.5a1 1 0 0 0 1.118.468l-.252-.968Zm-.99-1.717.865-.5a1 1 0 0 0-1.366-.366l.5.866Zm-2.849 1.644-.5-.866a1 1 0 0 0-.366 1.366l.866-.5Zm.992 1.718.712.702a1 1 0 0 0 .154-1.202l-.866.5ZM5.15 23.651v1a1 1 0 0 0 .964-.735l-.964-.265Zm-1.982 0v-1a1 1 0 0 0-1 1h1Zm0 3.289h-1a1 1 0 0 0 1 1v-1Zm1.982 0 .964-.266a1 1 0 0 0-.964-.734v1Zm1.56 2.697.865.5a1 1 0 0 0-.153-1.201l-.713.701Zm-.993 1.719-.866-.5a1 1 0 0 0 .366 1.366l.5-.866ZM8.564 33l-.5.866A1 1 0 0 0 9.43 33.5l-.866-.5Zm.991-1.717.252-.968a1 1 0 0 0-1.118.468l.866.5ZM14.53 32.5l-.99-1.717-1.733 1 .991 1.717 1.732-1Zm1.482-2.01-2.848 1.644 1 1.732 2.848-1.644-1-1.732Zm-1.358-.352.992 1.718 1.732-1-.992-1.718-1.732 1Zm1.461-3.464a5.18 5.18 0 0 1-1.307 2.262l1.424 1.404a7.18 7.18 0 0 0 1.812-3.135l-1.929-.53Zm2.947-.734h-1.982v2h1.982v-2Zm-1-2.289v3.289h2V23.65h-2Zm-.982 1h1.982v-2h-1.982v2Zm-2.272-2.996a5.18 5.18 0 0 1 1.307 2.261l1.929-.53a7.179 7.179 0 0 0-1.812-3.135l-1.424 1.404Zm.838-2.92-.992 1.718 1.732 1 .992-1.718-1.732-1Zm-2.482-.278 2.848 1.644 1-1.732-2.848-1.644-1 1.732Zm.375 1.35.991-1.716-1.732-1-.99 1.717 1.731 1Zm-2.424.303c.453 0 .89.058 1.307.166l.502-1.936a7.192 7.192 0 0 0-1.81-.23v2Zm-1.307.166a5.193 5.193 0 0 1 1.307-.166v-2c-.624 0-1.23.08-1.81.23l.503 1.936ZM7.698 18.09l.991 1.717 1.732-1-.99-1.717-1.733 1Zm-1.482 2.01 2.848-1.644-1-1.732-2.848 1.644 1 1.732Zm1.358.352-.992-1.718-1.732 1 .992 1.718 1.732-1Zm-1.46 3.463a5.18 5.18 0 0 1 1.306-2.26L5.996 20.25a7.18 7.18 0 0 0-1.811 3.135l1.928.53Zm-2.947.735h1.982v-2H3.167v2Zm1 2.289V23.65h-2v3.289h2Zm.982-1H3.167v2h1.982v-2Zm2.272 2.995a5.18 5.18 0 0 1-1.308-2.26l-1.928.53a7.179 7.179 0 0 0 1.811 3.135l1.425-1.404Zm-.839 2.92.992-1.718-1.732-1-.992 1.719 1.732 1Zm2.482.279L6.216 30.49l-1 1.732 2.848 1.644 1-1.732Zm-.375-1.35L7.7 32.5l1.731 1 .991-1.717-1.732-1Zm2.425-.303c-.453 0-.89-.058-1.307-.166l-.503 1.936c.58.15 1.186.23 1.81.23v-2Zm1.307-.166a5.196 5.196 0 0 1-1.307.166v2c.624 0 1.23-.08 1.81-.23l-.503-1.936Z"/></svg>