<svg xmlns="http://www.w3.org/2000/svg" width="33" height="32" fill="none" viewBox="0 0 33 32"><path fill="#111827" fill-rule="evenodd" d="M1.884 1.001a1 1 0 0 1 1-1h17.72a1 1 0 0 1 .709.295l9.497 9.538a1 1 0 0 1 .292.705v6.793a1 1 0 1 1-2 0v-5.885h-8.405a1 1 0 0 1-1-1V2H3.884v15.331a1 1 0 1 1-2 0zm19.813 2.587v5.859h5.864zm-18 18.256a1 1 0 0 0-1.612 1.184l2.706 3.682-2.706 3.682a1 1 0 0 0 1.612 1.185l2.335-3.178 2.336 3.177a1 1 0 1 0 1.611-1.184L7.273 26.71l2.706-3.682a1 1 0 0 0-1.611-1.184L6.032 25.02zm21.987-.408a3.14 3.14 0 0 0-.038 6.281h2.329a1.14 1.14 0 1 1 0 2.282h-4.433a1 1 0 0 0 0 2h4.433a3.14 3.14 0 1 0 0-6.282h-2.303a1.14 1.14 0 0 1 .012-2.281h4.432a1 1 0 1 0 0-2zm-9.926 1a1 1 0 0 0-2 0v8.552a1 1 0 0 0 1 1h4.887a1 1 0 1 0 0-2h-3.887z" clip-rule="evenodd"/></svg>