<svg xmlns="http://www.w3.org/2000/svg" width="33" height="32" fill="none" viewBox="0 0 33 32"><path fill="#111827" fill-rule="evenodd" d="M2.053 1a1 1 0 0 1 1-1H20.57a1 1 0 0 1 .709.295l9.387 9.427a1 1 0 0 1 .291.706v6.714a1 1 0 1 1-2 0v-5.805H20.66a1 1 0 0 1-1-1V2H4.053v15.142a1 1 0 1 1-2 0V1ZM21.66 3.585v5.752h5.757L21.66 3.585ZM8.73 22.692a1 1 0 1 0-2 0v6.307a1 1 0 0 1-1 1h-.686a1 1 0 0 1-1-1v-.797a1 1 0 1 0-2 0V29a3 3 0 0 0 3 3h.685a3 3 0 0 0 3-3v-6.307Zm3.732.024c0-.567.46-1.027 1.027-1.027h3.007a3.393 3.393 0 1 1 0 6.786h-2.033v2.524a1 1 0 0 1-2 0V22.716Zm2 3.759h2.034a1.393 1.393 0 0 0 0-2.786h-2.033v2.786Zm13.114-4.786a5.155 5.155 0 1 0 0 10.31h2.317c.57 0 1.033-.462 1.033-1.032v-3.466a1.5 1.5 0 0 0-1.5-1.5h-2.064a1 1 0 1 0 0 2h1.564v1.998h-1.35a3.155 3.155 0 0 1 0-6.31h2.35a1 1 0 1 0 0-2h-2.35Z" clip-rule="evenodd"/></svg>