<svg xmlns="http://www.w3.org/2000/svg" width="33" height="32" fill="none"><path fill="#111827" fill-rule="evenodd" d="M2.054 1a1 1 0 0 1 1-1h17.509a1 1 0 0 1 .708.295l9.383 9.423a1 1 0 0 1 .292.706v6.712a1 1 0 1 1-2 0v-5.803h-8.292a1 1 0 0 1-1-1V2h-15.6v15.136a1 1 0 1 1-2 0V1Zm19.6 2.585v5.748h5.752l-5.752-5.748ZM3.089 21.308c-.568 0-1.028.46-1.028 1.028V31a1 1 0 1 0 2 0v-2.687h2.173a3.503 3.503 0 0 0 0-7.005H3.089Zm3.145 5.005H4.06v-3.005h2.173a1.503 1.503 0 0 1 0 3.005Zm6.77-4.965a1 1 0 0 1 1.123.42l3.745 5.826v-5.286a1 1 0 1 1 2 0v8.691a1 1 0 0 1-1.84.541l-3.746-5.827V31a1 1 0 1 1-2 0v-8.691a1 1 0 0 1 .718-.96Zm14.583-.04a5.165 5.165 0 0 0 0 10.33h2.322c.57 0 1.032-.463 1.032-1.033v-3.476a1.5 1.5 0 0 0-1.5-1.5h-2.07a1 1 0 1 0 0 2h1.57v2.008h-1.354a3.165 3.165 0 0 1 0-6.33h2.354a1 1 0 1 0 0-2h-2.354Z" clip-rule="evenodd"/></svg>