<svg xmlns="http://www.w3.org/2000/svg" width="33" height="32" fill="none" viewBox="0 0 33 32"><path fill="#111827" fill-rule="evenodd" d="M4 0a1 1 0 0 0-1 1V31a1 1 0 0 0 1 1h25a1 1 0 0 0 1-1V9.761a1 1 0 0 0-.292-.706L20.985.295a1 1 0 0 0-.709-.294H4.002ZM5 30V2.001h14.361v7.675a1 1 0 0 0 1 1H28V30H5.001ZM21.362 8.676V3.574l5.107 5.102h-5.107Zm-2.641 6.617a1 1 0 0 0 0 1.414l3.712 3.712-3.712 3.712a1 1 0 1 0 1.414 1.415l4.42-4.42a1 1 0 0 0 0-1.414l-4.42-4.42a1 1 0 0 0-1.414 0Zm-4.44 1.414a1 1 0 0 0-1.414-1.414l-4.42 4.42a1 1 0 0 0 0 1.413l4.42 4.42a1 1 0 0 0 1.414-1.415l-3.712-3.712 3.712-3.712Z" clip-rule="evenodd"/></svg>