<svg xmlns="http://www.w3.org/2000/svg" width="33" height="32" fill="none" viewBox="0 0 33 32"><path fill="#111827" fill-rule="evenodd" d="M3 1a1 1 0 0 1 1-1h16.276a1 1 0 0 1 .71.295l8.722 8.76a1 1 0 0 1 .291.706v21.238a1 1 0 0 1-1 1h-5.002a1 1 0 0 1 0-2H28V10.676h-7.638a1 1 0 0 1-1-1V2.001H5.001v13.977a1 1 0 1 1-2 0V1Zm11.17 18.095a1 1 0 0 1 .857.52l5.982 10.903a1 1 0 0 1-.876 1.481H4a1 1 0 0 1-.874-1.486l4.56-8.207a1 1 0 0 1 1.712-.06l1.189 1.827 2.706-4.494a1 1 0 0 1 .877-.484Zm-.06 3.006-2.633 4.372a1 1 0 0 1-1.695.03l-1.154-1.774L5.7 30h12.744l-4.334-7.898Zm7.251-13.425V3.574l5.107 5.102h-5.107Z" clip-rule="evenodd"/></svg>