<svg xmlns="http://www.w3.org/2000/svg" width="33" height="32" fill="none"><path fill="#111827" fill-rule="evenodd" d="M3 1a1 1 0 0 1 1-1h16.276a1 1 0 0 1 .71.295l8.722 8.76a1 1 0 0 1 .291.706v21.238a1 1 0 0 1-1 1h-6.252a1 1 0 1 1 0-2H28V10.676h-7.638a1 1 0 0 1-1-1V2.001H5.001v13.977a1 1 0 0 1-2 0V1Zm18.361 2.574v5.102h5.107l-5.107-5.102ZM10.027 23.41a4.736 4.736 0 0 1 9.223 1.51c0 2.691-2.194 5.08-4.734 5.08h-6.48a3.022 3.022 0 0 1-.186-6.04 6.783 6.783 0 0 0-.068.96 1 1 0 1 0 2 0c0-.53.086-1.037.245-1.51Zm-1.99-1.455c.142 0 .283.006.423.017a6.734 6.734 0 0 1 12.79 2.948c0 3.643-2.942 7.08-6.734 7.08h-6.48a5.022 5.022 0 1 1 0-10.045Z" clip-rule="evenodd"/></svg>