<svg width="32" height="32" fill="none" xmlns="http://www.w3.org/2000/svg"><path d="M4.299 18.041V4h15.236l8.166 8.2v5.841" stroke="#1C1B1F" stroke-width="2" stroke-linecap="round" stroke-linejoin="round"/><path d="M19.615 12.121V4.15l7.978 7.971h-7.978Z" stroke="#1C1B1F" stroke-width="2" stroke-linecap="round" stroke-linejoin="round"/><path d="M5.043 24.99h2.591a2.043 2.043 0 0 0 2.043-2.043v0a2.043 2.043 0 0 0-2.043-2.043H5.067a.023.023 0 0 0-.024.023V28" stroke="#1C1B1F" stroke-width="2" stroke-linecap="round"/><path d="M13.391 28v-7.096L17.952 28v-7.096" stroke="#1C1B1F" stroke-width="2" stroke-linecap="round" stroke-linejoin="round"/><path d="M26.988 20.904h-1.922a3.4 3.4 0 0 0-3.4 3.4v0a3.4 3.4 0 0 0 3.4 3.4h1.896a.026.026 0 0 0 .026-.026v-2.746a.5.5 0 0 0-.5-.5h-1.597" stroke="#1C1B1F" stroke-width="2" stroke-linecap="round"/></svg>