<svg xmlns="http://www.w3.org/2000/svg" width="33" height="32" fill="none" viewBox="0 0 33 32"><path fill="#111827" fill-rule="evenodd" d="M2.245 1a1 1 0 0 1 1-1h17.27a1 1 0 0 1 .709.294L30.48 9.59a1 1 0 0 1 .291.705v6.62a1 1 0 1 1-2 0v-5.71h-8.166a1 1 0 0 1-1-1V2H4.245v14.916a1 1 0 1 1-2 0V1ZM24.06 21.013a1 1 0 1 0 0 2h1.848V31a1 1 0 1 0 2 0v-7.987h1.849a1 1 0 0 0 0-2H24.06ZM21.605 9.205V3.582l5.628 5.623h-5.628ZM2.23 22.047c0-.568.46-1.03 1.029-1.03h3.25a3.586 3.586 0 0 1 0 7.174h-2.28V31a1 1 0 0 1-2 0v-8.954Zm2 4.144h2.28a1.586 1.586 0 1 0 0-3.173h-2.28v3.173Zm9.65-5.173c-.569 0-1.03.46-1.03 1.03V31a1 1 0 0 0 2 0v-2.81h2.28a3.586 3.586 0 0 0 0-7.173h-3.25Zm3.25 5.173h-2.28v-3.173h2.28a1.586 1.586 0 0 1 0 3.173Z" clip-rule="evenodd"/></svg>