<svg xmlns="http://www.w3.org/2000/svg" width="33" height="32" fill="none" viewBox="0 0 33 32"><path fill="#111827" fill-rule="evenodd" d="M1.242 7.783a1 1 0 0 0-.707 1.225l1.68 6.268v15.296a1 1 0 0 0 1 1h28.284a1 1 0 0 0 1-1V15.145a1 1 0 0 0-1-1H10.81l3.751-1.006c.056-.01.11-.024.163-.043l16.071-4.307a1 1 0 0 0 .707-1.224l-1.713-6.396a1 1 0 0 0-1.225-.707l-27.32 7.32Zm13.28 3.296 8.462-2.267-5.658-3.268L8.87 7.809l5.65 3.27Zm-8.38-2.538-3.416.915 1.196 4.463 7.87-2.109-5.65-3.27Zm13.916-3.73 5.658 3.269 3.595-.964-1.196-4.463-8.057 2.159ZM4.215 16.146v13.427h26.284V16.145H4.215Z" clip-rule="evenodd"/></svg>