<svg xmlns="http://www.w3.org/2000/svg" width="33" height="32" fill="none" viewBox="0 0 33 32"><path stroke="#111827" stroke-linecap="round" stroke-linejoin="round" stroke-width="2" d="M24.325 16.226a35.769 35.769 0 0 1-2.68 13.631M22.498 11.442a7.175 7.175 0 0 0-12.522 4.784 21.427 21.427 0 0 1-2.688 10.423"/><path stroke="#111827" stroke-linecap="round" stroke-linejoin="round" stroke-width="2" d="M12.367 2.693A14.36 14.36 0 0 1 31.5 16.226a43.189 43.189 0 0 1-1.067 9.566M1.5 22.204a14.296 14.296 0 0 0 1.301-5.979A14.313 14.313 0 0 1 7.584 5.53M14.547 28.184c-.304.66-.63 1.307-.982 1.94M17.149 16.225c.002 2.42-.302 4.831-.904 7.175"/></svg>