<svg xmlns="http://www.w3.org/2000/svg" width="33" height="32" fill="none" viewBox="0 0 33 32"><path stroke="#111827" stroke-linecap="round" stroke-linejoin="round" stroke-width="2" d="M5.168 24.692a19.367 19.367 0 0 0 2.024-8.647 9.705 9.705 0 0 1 3.646-7.59M16.915 16.045a29.038 29.038 0 0 1-3.642 14.126"/><path stroke="#111827" stroke-linecap="round" stroke-linejoin="round" stroke-width="2" d="M12.053 16.045a4.862 4.862 0 0 1 9.724 0 33.9 33.9 0 0 1-3.233 14.495"/><path stroke="#111827" stroke-linecap="round" stroke-linejoin="round" stroke-width="2" d="M30.673 24.553c.552-2.803.828-5.652.827-8.508a14.585 14.585 0 1 0-29.17 0c.002 1.656-.279 3.3-.83 4.862"/><path stroke="#111827" stroke-linecap="round" stroke-linejoin="round" stroke-width="2" d="M11.567 20.907a24.15 24.15 0 0 1-2.752 7.269M15.7 6.397a9.731 9.731 0 0 1 10.938 9.648c0 1.626-.1 3.25-.3 4.862M25.413 25.769a38.43 38.43 0 0 1-.787 2.658"/></svg>