<svg xmlns="http://www.w3.org/2000/svg" width="32" height="32" fill="none"><path fill="#1C1B1F" d="M11.846 18.77a1.385 1.385 0 1 0 0-2.77 1.385 1.385 0 0 0 0 2.77ZM20.154 18.77a1.385 1.385 0 1 0 0-2.77 1.385 1.385 0 0 0 0 2.77Z"/><path stroke="#1C1B1F" stroke-linejoin="round" stroke-width="2" d="M28 15.692V6.308h-5.562v2.814H9.492V6.308H4v9.384c0 5.523 4.477 10 10 10h4c5.523 0 10-4.477 10-10Z"/><rect width="16.615" height="8.308" x="7.692" y="13.231" stroke="#1C1B1F" stroke-width="2" rx="4.154"/></svg>