<svg xmlns="http://www.w3.org/2000/svg" width="33" height="32" fill="none" viewBox="0 0 33 32"><path fill="#111827" fill-rule="evenodd" d="M.5 3.885a1 1 0 0 1 1-1h6.866a1 1 0 0 1 1 1v2.518h14.18V3.885a1 1 0 0 1 1-1H31.5a1 1 0 0 1 1 1v14.23c0 6.075-4.925 11-11 11H11.5c-6.075 0-11-4.925-11-11V3.884Zm2 1v13.23a9 9 0 0 0 9 9H21.5a9 9 0 0 0 9-9V4.884h-4.952v2.518a1 1 0 0 1-1 1H8.366a1 1 0 0 1-1-1V4.885H2.5ZM13.04 17.731a1.73 1.73 0 1 1-3.462 0 1.73 1.73 0 0 1 3.462 0Zm10.384 0a1.73 1.73 0 1 1-3.462 0 1.73 1.73 0 0 1 3.462 0Zm-12.307-6.192a6 6 0 0 0-6 6v.384a6 6 0 0 0 6 6h10.768a6 6 0 0 0 6-6v-.384a6 6 0 0 0-6-6H11.116Zm-4 6a4 4 0 0 1 4-4h10.768a4 4 0 0 1 4 4v.384a4 4 0 0 1-4 4H11.116a4 4 0 0 1-4-4v-.384Z" clip-rule="evenodd"/></svg>