<svg xmlns="http://www.w3.org/2000/svg" width="33" height="33" fill="none" viewBox="0 0 33 33"><path fill="#111827" fill-rule="evenodd" d="M19.956.793a1 1 0 0 0-1.61.278l-4.593 9.65-4.89-3.252a1 1 0 0 0-1.387.28c-2.283 3.44-4.262 7.535-4.262 11.464a13.286 13.286 0 1 0 26.572 0c0-8.063-5.576-14.18-9.83-18.42Zm-4.893 11.83 4.478-9.406c4.022 4.131 8.245 9.397 8.245 15.996a11.286 11.286 0 0 1-22.572 0c0-3.049 1.435-6.4 3.386-9.517l5.006 3.33a1 1 0 0 0 1.457-.403Zm9.943 7.917a1 1 0 1 0-1.976-.313 6.635 6.635 0 0 1-5.516 5.516 1 1 0 1 0 .312 1.976 8.635 8.635 0 0 0 7.18-7.18Z" clip-rule="evenodd"/></svg>