<svg xmlns="http://www.w3.org/2000/svg" width="33" height="33" fill="none" viewBox="0 0 33 33"><path fill="#111827" fill-rule="evenodd" d="M30.289 1.086c-1.872-.403-7.225-1.3-12.22.486-2.526.903-4.974 2.496-6.812 5.182-1.754 2.562-2.906 6.05-3.108 10.733l-7.036 2.96a1 1 0 0 0 .113 1.883l7.346 2.098 2.098 7.346a1 1 0 0 0 1.883.113l2.96-7.036c4.684-.202 8.17-1.354 10.733-3.108 2.686-1.838 4.28-4.286 5.182-6.811 1.786-4.996.89-10.349.486-12.221l-.004-.019a2.15 2.15 0 0 0-1.602-1.602zM12.147 9.148c-1.154 2.19-1.927 5.12-2.02 9.036a1 1 0 0 1-.612.898l-5.006 2.106 5.146 1.47a1 1 0 0 1 .687.687l1.47 5.146 2.106-5.006a1 1 0 0 1 .898-.612c3.923-.094 6.856-.87 9.047-2.026a7.75 7.75 0 0 1-5.294-6.43 7.75 7.75 0 0 1-6.422-5.27m14.084 10.08c1.625-1.427 2.665-3.157 3.314-4.97 1.586-4.437.803-9.314.417-11.112a.15.15 0 0 0-.108-.108c-1.798-.386-6.675-1.17-11.112.417-1.82.65-3.554 1.695-4.984 3.33a5.754 5.754 0 0 0 5.753 5.69 1 1 0 0 1 1 1 5.754 5.754 0 0 0 5.72 5.753M22.326 8.986a1.689 1.689 0 1 0 0-3.377 1.689 1.689 0 0 0 0 3.377" clip-rule="evenodd"/></svg>