<svg xmlns="http://www.w3.org/2000/svg" width="33" height="33" fill="none"><path fill="#111827" fill-rule="evenodd" d="M23.886.508a27.7 27.7 0 0 1 6.335.599l.008.002A2.198 2.198 0 0 1 31.89 2.77l.002.008c.251 1.162.666 3.536.599 6.335-.067 2.792-.617 6.076-2.354 9-1.755 2.953-4.68 5.465-9.345 6.741-2.971.813-6.633 1.12-11.136.742a68.11 68.11 0 0 0 1.008 5.688 1 1 0 1 1-1.954.427 69.071 69.071 0 0 1-1.097-6.326 69.076 69.076 0 0 1-6.327-1.097 1 1 0 1 1 .428-1.954c2.035.445 3.928.777 5.687 1.008-.378-4.503-.07-8.165.743-11.136 1.1-4.021 3.118-6.75 5.545-8.55.056-.05.117-.095.183-.133.33-.237.669-.457 1.013-.662 2.924-1.737 6.208-2.287 9-2.354ZM13.483 6.483c-1.45 1.483-2.657 3.502-3.41 6.252-.76 2.782-1.058 6.33-.643 10.835 4.506.415 8.053.117 10.835-.644 2.75-.752 4.77-1.96 6.252-3.41A15.036 15.036 0 0 1 13.483 6.484ZM28.08 17.631a13.034 13.034 0 0 1-12.71-12.71c.178-.119.357-.232.539-.34 2.525-1.5 5.433-2.01 8.027-2.073a25.704 25.704 0 0 1 5.857.553.199.199 0 0 1 .147.147c.232 1.07.616 3.274.553 5.857-.062 2.594-.573 5.502-2.073 8.027-.108.181-.221.361-.34.539Zm-6.11-8.354a1.754 1.754 0 1 0 0-3.508 1.754 1.754 0 0 0 0 3.508Z" clip-rule="evenodd"/></svg>