<svg xmlns="http://www.w3.org/2000/svg" width="33" height="32" fill="none" viewBox="0 0 33 32"><path fill="#111827" fill-rule="evenodd" d="M23.653 4.519c2.147.222 4.37-.208 6.803-2.033a1 1 0 0 1 1.6.8v19.795a1 1 0 0 1-.4.8c-2.845 2.134-5.572 2.695-8.208 2.422-2.544-.263-4.972-1.304-7.232-2.273l-.07-.03c-1.521-.652-2.97-1.269-4.406-1.683a.987.987 0 0 1-.181-.052c-.711-.197-1.42-.342-2.133-.416-2.029-.21-4.125.162-6.402 1.743V31a1 1 0 1 1-2 0V3.298a1.005 1.005 0 0 1 .411-.82C4.276.35 7-.207 9.632.065c2.544.263 4.971 1.304 7.231 2.272l.07.03c1.522.652 2.971 1.27 4.407 1.684a.99.99 0 0 1 .18.051c.711.197 1.42.343 2.133.417ZM20.16 5.78c-1.361-.439-2.678-1.003-3.943-1.545l-.07-.03c-1.106-.474-2.173-.93-3.225-1.302v7.472c1.36.439 2.678 1.003 3.942 1.545l.07.03c1.106.474 2.174.93 3.226 1.302V5.781Zm2 8.068V6.31c.426.086.855.153 1.289.198 2.138.221 4.336-.106 6.608-1.376v7.227c-2.278 1.582-4.374 1.954-6.403 1.744-.5-.052-.997-.139-1.494-.254Zm-2 1.516c-1.361-.439-2.678-1.003-3.943-1.545l-.07-.03c-1.106-.474-2.173-.93-3.225-1.302v8.1c1.36.437 2.678 1.002 3.942 1.544l.07.03c1.106.474 2.174.93 3.226 1.302v-8.1Zm2 8.695v-8.166c.426.086.855.153 1.289.198 2.138.221 4.336-.106 6.608-1.376v7.854c-2.278 1.581-4.374 1.953-6.403 1.743-.5-.051-.997-.138-1.494-.253ZM10.92 9.847V2.308a12.19 12.19 0 0 0-1.495-.254c-2.029-.21-4.125.162-6.402 1.744v7.226c2.272-1.27 4.47-1.596 6.608-1.375.433.045.863.112 1.29.198Zm0 10.21v-8.165a12.2 12.2 0 0 0-1.495-.254c-2.029-.21-4.125.162-6.402 1.744v7.853c2.272-1.27 4.47-1.597 6.608-1.375.433.044.863.112 1.29.198Z" clip-rule="evenodd"/></svg>