<svg xmlns="http://www.w3.org/2000/svg" width="33" height="32" fill="none" viewBox="0 0 33 32"><path fill="#111827" fill-rule="evenodd" d="M30.416 2.487c-2.433 1.825-4.655 2.254-6.802 2.032-2.214-.23-4.381-1.15-6.72-2.152l-.07-.03C14.564 1.37 12.136.328 9.592.065c-2.634-.273-5.358.287-8.2 2.416a.998.998 0 0 0-.408.817V31a1 1 0 1 0 2 0v-7.407c2.278-1.581 4.374-1.953 6.403-1.743 2.213.229 4.38 1.149 6.72 2.151l.07.03c2.26.97 4.687 2.01 7.23 2.273 2.637.273 5.364-.288 8.21-2.422a1 1 0 0 0 .4-.8V3.287a1 1 0 0 0-1.6-.8ZM2.984 21.235c2.272-1.27 4.47-1.597 6.608-1.375 2.544.263 4.972 1.303 7.232 2.272l.07.03c2.339 1.002 4.506 1.922 6.72 2.151 2.028.21 4.124-.162 6.402-1.743V5.132c-2.272 1.27-4.47 1.597-6.608 1.376-2.544-.263-4.972-1.304-7.232-2.272l-.07-.03c-2.339-1.003-4.506-1.923-6.72-2.152-2.028-.21-4.124.162-6.402 1.744v17.437Z" clip-rule="evenodd"/></svg>