<svg xmlns="http://www.w3.org/2000/svg" width="33" height="33" fill="none" viewBox="0 0 33 33"><path fill="#111827" fill-rule="evenodd" d="m16.5 1.73.515-.857a1 1 0 0 0-1.03 0zm.026 30.54a12.815 12.815 0 0 0 12.79-12.816c0-5.692-3.156-10.36-6.184-13.539a34 34 0 0 0-4.186-3.71 30 30 0 0 0-1.78-1.238L17.057.9l-.03-.019-.008-.005-.003-.002-.516.857c-.514-.858-.515-.857-.515-.857h-.001l-.003.002-.009.005-.03.019-.108.067q-.14.088-.395.256c-.337.224-.814.554-1.385.982a34 34 0 0 0-4.186 3.71c-3.028 3.18-6.183 7.847-6.183 13.539a12.815 12.815 0 0 0 12.789 12.815h.052m6.24-4q.736-.523 1.382-1.168a10.82 10.82 0 0 0 3.167-7.648c0-4.942-2.752-9.136-5.632-12.16a32 32 0 0 0-3.937-3.49c-.51-.383-.94-.68-1.246-.884-.307.204-.735.501-1.246.885a32 32 0 0 0-3.938 3.49c-2.88 3.023-5.631 7.217-5.631 12.159a10.82 10.82 0 0 0 4.55 8.815 6.9 6.9 0 0 1-.643-2.907c0-3.3 1.65-5.893 3.214-7.615a16.6 16.6 0 0 1 2.163-1.985 14 14 0 0 1 .99-.694l.017-.01.006-.004.002-.001c.001-.001.002-.001.516.856l.515-.857h.001l.002.002.006.003.017.011a7 7 0 0 1 .27.175c.177.119.425.293.72.519.59.451 1.375 1.119 2.163 1.985 1.564 1.721 3.214 4.315 3.214 7.615a6.9 6.9 0 0 1-.642 2.907M16.5 15.91l-.514-.858a1 1 0 0 1 1.029 0zm.02 14.36h-.04a4.91 4.91 0 0 1-4.888-4.908c0-2.608 1.305-4.741 2.694-6.27a14.6 14.6 0 0 1 2.214-1.977q.142.102.315.234c.518.398 1.21.986 1.899 1.744 1.39 1.528 2.694 3.66 2.694 6.269a4.91 4.91 0 0 1-4.888 4.907" clip-rule="evenodd"/></svg>