<svg xmlns="http://www.w3.org/2000/svg" width="33" height="32" fill="none" viewBox="0 0 33 32"><path fill="#111827" fill-rule="evenodd" d="M28.082 1.998a2.359 2.359 0 1 0 0 4.718 2.359 2.359 0 0 0 0-4.718Zm-4.359 2.358a4.359 4.359 0 1 1 2.215 3.797L21.2 12.889c.533.855.84 1.865.84 2.946A5.555 5.555 0 0 1 21.058 19l2.688 2.688a3.34 3.34 0 1 1-1.474 1.355l-2.625-2.626a5.549 5.549 0 0 1-2.272.924v2.04a4.36 4.36 0 0 1-.914 8.621 4.359 4.359 0 0 1-1.086-8.581V21.31a5.549 5.549 0 0 1-2.046-.856L8.55 25.233a4.359 4.359 0 1 1-1.46-1.369l4.812-4.811a5.554 5.554 0 0 1-1.02-3.218c0-1.207.382-2.324 1.034-3.237L7.749 8.432a3.34 3.34 0 1 1 1.365-1.463l4.235 4.234a5.555 5.555 0 0 1 3.112-.948c1.277 0 2.455.43 3.395 1.151l4.612-4.612a4.338 4.338 0 0 1-.745-2.438Zm-7.262 7.9a3.58 3.58 0 1 0 0 7.16 3.58 3.58 0 0 0 0-7.16ZM2.56 27.642a2.359 2.359 0 1 1 4.718 0 2.359 2.359 0 0 1-4.718 0Zm13.902-2.358a2.359 2.359 0 1 0 0 4.717 2.359 2.359 0 0 0 0-4.717Zm7.365-.574a1.34 1.34 0 1 1 2.679 0 1.34 1.34 0 0 1-2.679 0ZM6.101 4.186a1.34 1.34 0 1 0 0 2.68 1.34 1.34 0 0 0 0-2.68Z" clip-rule="evenodd"/></svg>