<svg xmlns="http://www.w3.org/2000/svg" width="33" height="33" fill="none" viewBox="0 0 33 33"><path fill="#111827" fill-rule="evenodd" d="M15.29 5.72a2.041 2.041 0 0 1 2.42 0l.01.006c.895.677 2.454 2.09 3.577 4.43a10.909 10.909 0 0 1 3.375-1.38 2.002 2.002 0 0 1 2.356 1.353c.346 1.066.721 2.915.313 5.271 1.558-.164 2.804.02 3.621.232a2.017 2.017 0 0 1 1.45 2.496c-.46 1.671-1.88 4.718-6.041 7.127-4.13 2.391-7.747 2.422-9.85 2.423h-.042c-2.103 0-5.72-.032-9.85-2.423-4.162-2.41-5.581-5.456-6.04-7.127a2.015 2.015 0 0 1 1.449-2.496c.817-.212 2.063-.396 3.62-.232-.407-2.356-.032-4.206.314-5.271a2.003 2.003 0 0 1 2.356-1.354 10.91 10.91 0 0 1 3.375 1.381c1.123-2.34 2.682-3.753 3.578-4.43l.01-.007Zm-4.323 6.343a8.912 8.912 0 0 0-3.078-1.337H7.88v.001l-.005.014c-.422 1.298-1.018 4.425 1.303 8.445a15.445 15.445 0 0 0 2.35 3.076c-.686-1.561-1.17-3.502-1.17-5.866 0-1.648.234-3.086.608-4.333Zm11.674 4.333c0-1.648-.234-3.086-.607-4.333a8.911 8.911 0 0 1 3.077-1.337h.008v.001l.005.014c.422 1.298 1.018 4.425-1.303 8.445a15.449 15.449 0 0 1-2.35 3.076c.686-1.561 1.17-3.502 1.17-5.866ZM16.5 25.478a9.655 9.655 0 0 1-1.784-1.755c-1.164-1.48-2.357-3.837-2.357-7.327 0-5.43 2.903-8.148 4.118-9.067a.04.04 0 0 1 .046 0c1.215.92 4.118 3.637 4.118 9.067 0 3.49-1.193 5.848-2.357 7.328a9.651 9.651 0 0 1-1.784 1.754ZM26.794 17.5a15.7 15.7 0 0 1-1.24 2.687c-1.238 2.142-2.852 3.817-4.383 5.032a15.604 15.604 0 0 0 4.198-1.694c3.65-2.113 4.776-4.694 5.114-5.928l.002-.005v-.01l-.002-.002a.019.019 0 0 0-.002-.003l-.002-.002a.015.015 0 0 0-.005-.002l-.01-.003c-.729-.19-2.007-.375-3.67-.07ZM7.447 20.186a15.695 15.695 0 0 1-1.241-2.687c-1.663-.305-2.941-.12-3.67.07l-.01.003a.015.015 0 0 0-.01.007.015.015 0 0 0-.001.006v.006l.002.005c.338 1.234 1.464 3.815 5.114 5.928a15.604 15.604 0 0 0 4.198 1.694c-1.531-1.215-3.145-2.89-4.382-5.032Z" clip-rule="evenodd"/></svg>