<svg xmlns="http://www.w3.org/2000/svg" width="33" height="32" fill="none" viewBox="0 0 33 32"><path fill="#111827" fill-rule="evenodd" d="M27.66 4.717a1 1 0 1 0-1.413 1.414l2.838 2.839h-6.157a7.43 7.43 0 0 0-7.428 7.428 5.43 5.43 0 0 1-5.428 5.428h-.177a4.751 4.751 0 0 0-9.394 1 4.75 4.75 0 0 0 9.394 1h.177a7.43 7.43 0 0 0 7.428-7.428 5.43 5.43 0 0 1 5.428-5.428h6.157l-2.838 2.838a1 1 0 0 0 1.414 1.414l4.536-4.536a1 1 0 0 0 .3-.66 1 1 0 0 0-.04-.341l-.003-.012a1 1 0 0 0-.248-.41zM5.25 20.077a2.75 2.75 0 1 0 0 5.499 2.75 2.75 0 0 0 0-5.5" clip-rule="evenodd"/></svg>