<svg xmlns="http://www.w3.org/2000/svg" width="33" height="33" fill="none" viewBox="0 0 33 33"><path fill="#111827" fill-rule="evenodd" d="M14.437 3.438a3.2 3.2 0 0 1 5.462 2.263c0 .776-.245 1.842-.66 3.058-.41 1.196-.955 2.457-1.493 3.593a1 1 0 0 0 .547 1.362q.042.037.09.07a1 1 0 0 0 1.39-.257c.716-1.04 1.535-2.146 2.367-3.098.837-.96 1.629-1.694 2.293-2.077a3.2 3.2 0 0 1 3.201 5.526c-.673.383-1.71.701-2.956.947-1.24.245-2.604.402-3.855.498a1 1 0 0 0-.907 1.177q-.01.051-.014.104a1 1 0 0 0 .921 1.073c1.251.096 2.615.253 3.855.498 1.246.246 2.283.564 2.956.947a3.2 3.2 0 0 1-3.201 5.526c-.664-.383-1.456-1.118-2.293-2.077-.832-.952-1.651-2.058-2.367-3.098a1 1 0 0 0-1.48-.188l-.072.031a1 1 0 0 0-.475 1.332c.538 1.136 1.084 2.396 1.493 3.593.415 1.216.66 2.282.66 3.058a3.2 3.2 0 0 1-6.4 0c0-.776.245-1.842.661-3.058.41-1.197.954-2.457 1.493-3.593a1 1 0 0 0-.547-1.363 1 1 0 0 0-1.48.188c-.716 1.04-1.535 2.146-2.367 3.098-.846.97-1.646 1.71-2.314 2.09l-.053.032a3.2 3.2 0 0 1-4.929-2.301 3.2 3.2 0 0 1 1.778-3.256c.672-.389 1.718-.712 2.98-.961 1.24-.245 2.604-.402 3.855-.498a1 1 0 0 0 .907-1.177 1 1 0 0 0-.907-1.177c-1.251-.096-2.615-.253-3.856-.498-1.246-.246-2.282-.564-2.955-.947a3.2 3.2 0 0 1 3.201-5.526c.664.383 1.456 1.118 2.293 2.077.832.952 1.651 2.058 2.367 3.098a1 1 0 0 0 1.48.188l.072-.031a1 1 0 0 0 .475-1.332c-.539-1.136-1.084-2.397-1.493-3.593-.415-1.216-.66-2.282-.66-3.058a3.2 3.2 0 0 1 .937-2.263M26.319 16.5c.87.232 1.685.526 2.34.904q.024.014.047.03a5.2 5.2 0 0 1-5.241 8.965c-.657-.373-1.318-.93-1.952-1.565.234.864.386 1.712.386 2.465a5.2 5.2 0 1 1-10.4 0c0-.753.153-1.601.387-2.465-.626.627-1.277 1.176-1.925 1.55a5.2 5.2 0 1 1-5.198-8.993c.651-.372 1.457-.662 2.317-.891-.87-.232-1.685-.526-2.34-.904l-.047-.03a5.2 5.2 0 0 1 5.241-8.965c.656.373 1.318.93 1.952 1.566-.234-.865-.386-1.713-.386-2.466a5.2 5.2 0 1 1 10.4 0c0 .753-.153 1.601-.387 2.465.634-.635 1.295-1.192 1.952-1.565l.041-.022a5.2 5.2 0 0 1 5.153 9.017c-.655.378-1.47.672-2.34.904" clip-rule="evenodd"/><circle cx="16.65" cy="16.674" r="4.199" stroke="#111827" stroke-width="2"/></svg>