<svg xmlns="http://www.w3.org/2000/svg" width="33" height="33" fill="none" viewBox="0 0 33 33"><path fill="#111827" fill-rule="evenodd" d="M10.508 10.983a5.943 5.943 0 1 1 11.795 1.041c-3.981 1.37-7.987 1.267-11.705-.002a6 6 0 0 1-.09-1.04M8.641 9.526a8 8 0 0 0 .064 3.223c.115.504.482.894.943 1.059 4.294 1.538 8.979 1.673 13.61 0 .458-.165.824-.554.938-1.057a8 8 0 0 0 .057-3.263c1.788.486 3.268 1.125 4.343 1.847 1.368.92 1.903 1.84 1.903 2.625 0 .55-.255 1.157-.89 1.8-.639.647-1.612 1.276-2.895 1.826-2.562 1.099-6.171 1.803-10.214 1.803s-7.653-.704-10.214-1.803c-1.283-.55-2.257-1.179-2.895-1.826-.635-.643-.89-1.25-.89-1.8 0-.781.538-1.706 1.918-2.628 1.053-.704 2.49-1.328 4.222-1.806m.785-2.253c-2.438.535-4.56 1.354-6.119 2.396C1.697 10.746.501 12.198.501 13.96c0 1.226.583 2.31 1.466 3.204.878.89 2.1 1.647 3.53 2.26 2.866 1.23 6.756 1.965 11.003 1.965s8.137-.736 11.002-1.965c1.431-.613 2.653-1.37 3.531-2.26.883-.894 1.466-1.978 1.466-3.204 0-1.76-1.186-3.208-2.788-4.285-1.586-1.065-3.758-1.898-6.254-2.438A7.94 7.94 0 0 0 16.45 3.04a7.94 7.94 0 0 0-7.025 4.233m6.986 9.653-.005 2h.088l-.005-2zm-4.39 7.47a1 1 0 0 0-1.973-.327l-.522 3.16a1 1 0 0 0 1.973.327zm9.779-1.15a1 1 0 0 1 1.15.823l.522 3.16a1 1 0 1 1-1.973.327l-.523-3.16a1 1 0 0 1 .824-1.15m-5.301.428a1 1 0 0 1 1 1v4.286a1 1 0 1 1-2 0v-4.286a1 1 0 0 1 1-1" clip-rule="evenodd"/></svg>