<svg xmlns="http://www.w3.org/2000/svg" width="33" height="32" fill="none"><path fill="#111827" fill-rule="evenodd" d="M.507 4.509a1 1 0 0 1 1-1h9.155a1 1 0 0 1 .707.293l4.285 4.284H28.97a1 1 0 0 1 1 1v3.338h1.298a1.231 1.231 0 0 1 1.168 1.617l-4.544 13.61a1.23 1.23 0 0 1-1.168.84H1.73c-.247 0-.485-.074-.685-.207a1 1 0 0 1-.539-.888 1.227 1.227 0 0 1 0-.267V4.509Zm2 16.543 2.6-7.788a1.23 1.23 0 0 1 1.168-.84h21.697v-2.338H15.238a.997.997 0 0 1-.707-.293L10.248 5.51h-7.74v15.543Zm.931 4.982L7.162 14.88h22.4l-3.724 11.153h-22.4Z" clip-rule="evenodd"/></svg>