<svg xmlns="http://www.w3.org/2000/svg" width="33" height="32" fill="none" viewBox="0 0 33 32"><path fill="#111827" fill-rule="evenodd" d="M1.5 2.981a1 1 0 0 0-1 1v24.037a1 1 0 0 0 1 1h11.962a1 1 0 1 0 0-2H2.501V4.981h8.608l4.713 4.35a1 1 0 0 0 .678.265h13.999v2.552a1 1 0 1 0 2 0V8.596a1 1 0 0 0-1-1H16.891l-4.712-4.35a1 1 0 0 0-.679-.265zm17.75 18.163a1 1 0 0 1 1-1h1.5v-.875a4.125 4.125 0 0 1 8.25 0v.875h1.499a1 1 0 0 1 1 1v6.874a1 1 0 0 1-1 1h-11.25a1 1 0 0 1-1-1zm3.483 1H30.5v4.874h-9.25v-4.874zm5.266-2v-.875a2.125 2.125 0 1 0-4.25 0v.875z" clip-rule="evenodd"/></svg>