<svg xmlns="http://www.w3.org/2000/svg" width="33" height="32" fill="none" viewBox="0 0 33 32"><path fill="#111827" fill-rule="evenodd" d="M6.3 3a1 1 0 0 0-1 1v3.8H1.5a1 1 0 0 0-1 1V28a1 1 0 0 0 1 1H26.7a1 1 0 0 0 1-1v-3.8h3.8a1 1 0 0 0 1-1V7.84a1 1 0 0 0-1-1h-12.21l-3.914-3.578A1 1 0 0 0 14.7 3zm11.918 5.572-3.906-3.571H7.3v2.8h2.6a1 1 0 0 1 .674.261l3.913 3.578H26.7a1 1 0 0 1 1 1V22.2h2.8V8.842h-11.6a1 1 0 0 1-.681-.269M9.512 9.8l3.906 3.571c.178.167.418.27.682.27h11.6v13.358H2.5V9.8z" clip-rule="evenodd"/></svg>