<svg xmlns="http://www.w3.org/2000/svg" width="33" height="32" fill="none" viewBox="0 0 33 32"><path fill="#111827" fill-rule="evenodd" d="M.5 4.462a1 1 0 0 1 1-1h9.231a1 1 0 0 1 .707.293l4.323 4.322h13.43a1 1 0 0 1 1 1v3.616H31.5a1 1 0 0 1 .949 1.316l-4.615 13.845a1 1 0 0 1-.949.684H1.501l-.042-.001a.996.996 0 0 1-.958-.982V4.462m25.663 22.076H3.003l3.779-9.046h8.262a1 1 0 0 0 .596-.197l3.499-2.603h9.908a1 1 0 0 0 .29 0h.775zm2.029-13.845h-9.384a1 1 0 0 0-.597.197l-3.499 2.602H6.116a1 1 0 0 0-.923.615L2.501 22.55V5.462h7.816l4.318 4.319a1 1 0 0 0 .711.296h12.846z" clip-rule="evenodd"/></svg>