<svg xmlns="http://www.w3.org/2000/svg" width="33" height="32" fill="none" viewBox="0 0 33 32"><path fill="#111827" fill-rule="evenodd" d="M1.515 2.512a1 1 0 0 0-1 1v24.975a1 1 0 0 0 1 1H13.99a1 1 0 1 0 0-2H2.515V9.508h27.97v2.766a1 1 0 1 0 2 0V8.507a1 1 0 0 0-1-1h-14.57l-4.703-4.702a1 1 0 0 0-.707-.293h-9.99Zm1 4.995V4.512h8.576l2.995 2.995H2.515Zm22.719 9.485a2.746 2.746 0 1 0 0 5.493 2.746 2.746 0 0 0 0-5.493Zm-4.747 2.746a4.746 4.746 0 1 1 7.837 3.602 6 6 0 0 1 2.913 5.148 1 1 0 1 1-2 0 4.003 4.003 0 0 0-8.007 0 1 1 0 1 1-2 0 6 6 0 0 1 2.913-5.148 4.736 4.736 0 0 1-1.656-3.602Z" clip-rule="evenodd"/></svg>