<svg xmlns="http://www.w3.org/2000/svg" width="33" height="32" fill="none" viewBox="0 0 33 32"><path fill="#111827" fill-rule="evenodd" d="M.498 4.575a1 1 0 0 1 1-1h9.14a1 1 0 0 1 .708.293l4.277 4.277h13.296a1 1 0 0 1 1 1v4.021h1.583a1 1 0 0 1 .936 1.351l-4.973 13.245a1 1 0 0 1-.936.648h-.216a1 1 0 0 1-.17.015H1.497a1 1 0 0 1-1-1V4.575m2 17.461 3.087-8.221a1 1 0 0 1 .936-.649H27.92v-3.021h-12.71a1 1 0 0 1-.71-.296l-4.275-4.274H2.498v16.461m.494 4.374 4.222-11.244h22.844L25.836 26.41z" clip-rule="evenodd"/></svg>