<svg xmlns="http://www.w3.org/2000/svg" width="33" height="32" fill="none" viewBox="0 0 33 32"><path fill="#111827" fill-rule="evenodd" d="M1.5 2.5a1 1 0 0 0-1 1V11a1 1 0 1 0 2 0V9.5h15.875a1 1 0 1 0 0-2h-1.46l-4.708-4.706A1 1 0 0 0 11.5 2.5zm1.879 5h10.707l-3-3H2.501v3h.878m18.746 0a1 1 0 1 0 0 2h3.75a1 1 0 1 0 0-2zm7.5 0a1 1 0 1 0 0 2h.874V11a1 1 0 1 0 2 0V8.5a1 1 0 0 0-1-1zM2.5 16a1 1 0 1 0-2 0v5a1 1 0 0 0 2 0zm29.998 0a1 1 0 1 0-2 0v5a1 1 0 0 0 2 0zM2.501 26a1 1 0 1 0-2 0v2.5a1 1 0 0 0 1 1h1.875a1 1 0 1 0 0-2H2.5zm29.998 0a1 1 0 1 0-2 0v1.5h-.875a1 1 0 1 0 0 2H31.5a1 1 0 0 0 1-1zM7.126 27.5a1 1 0 1 0 0 2h3.75a1 1 0 1 0 0-2zm7.5 0a1 1 0 1 0 0 2h3.749a1 1 0 1 0 0-2zm7.499 0a1 1 0 1 0 0 2h3.75a1 1 0 1 0 0-2z" clip-rule="evenodd"/></svg>