<svg xmlns="http://www.w3.org/2000/svg" width="33" height="32" fill="none" viewBox="0 0 33 32"><path fill="#111827" fill-rule="evenodd" d="M1.5 2.981a1 1 0 0 0-1 1v24.037a1 1 0 0 0 1 1h13.212a1 1 0 1 0 0-2H2.501V4.981h8.608l4.713 4.35a.997.997 0 0 0 .678.265h13.999v2.552a1 1 0 1 0 2 0V8.596a1 1 0 0 0-1-1H16.891l-4.712-4.35a1 1 0 0 0-.679-.265h-10Zm20.992 16.28a2.75 2.75 0 1 1 2.757 2.75h-.015a2.75 2.75 0 0 1-2.742-2.75Zm-.343 3.605a4.75 4.75 0 1 1 6.184 0 6.004 6.004 0 0 1 2.916 5.152 1 1 0 1 1-2 0c0-2.21-1.79-4.003-4-4.007h-.017a4.008 4.008 0 0 0-3.998 4.007 1 1 0 1 1-2 0 6.005 6.005 0 0 1 2.915-5.152Z" clip-rule="evenodd"/></svg>