<svg xmlns="http://www.w3.org/2000/svg" width="33" height="32" fill="none" viewBox="0 0 33 32"><path fill="#111827" fill-rule="evenodd" d="M1.5 3.462a1 1 0 0 0-1 1v23.076a1 1 0 0 0 1 1H31.5a1 1 0 0 0 1-1V9.077a1 1 0 0 0-1-1H15.76l-4.322-4.322a1 1 0 0 0-.707-.293zm14.16 6.615-4.356 3.044a1 1 0 0 1-.573.18h-8.23v13.237h27.998V10.077zM2.5 11.301h7.916l3.38-2.36-3.48-3.479H2.502v5.839m15 4.074a1 1 0 0 0-2 0v2.75h-2.75a1 1 0 1 0 0 2h2.75v2.75a1 1 0 1 0 2 0v-2.75h2.75a1 1 0 1 0 0-2H17.5z" clip-rule="evenodd"/></svg>