<svg xmlns="http://www.w3.org/2000/svg" width="33" height="32" fill="none" viewBox="0 0 33 32"><path fill="#111827" fill-rule="evenodd" d="M1.5 2.5a1 1 0 0 0-1 1v25a1 1 0 0 0 1 1H13.99a1 1 0 1 0 0-2H2.5v-18h27.998v2.77a1 1 0 1 0 2 0V8.5a1 1 0 0 0-1-1H16.914l-4.707-4.706A1 1 0 0 0 11.5 2.5h-10Zm12.586 5-3-3H2.501v3h11.585Zm5.164 14.125a1 1 0 0 1 1-1h1.5v-.875a4.125 4.125 0 0 1 8.25 0v.875h1.5a1 1 0 0 1 1 1v6.874a1 1 0 0 1-1 1H20.25a1 1 0 0 1-1-1v-6.874Zm3.497 1h7.752v4.874h-9.25v-4.874h1.498Zm5.252-2v-.875a2.125 2.125 0 1 0-4.25 0v.875H28Z" clip-rule="evenodd"/></svg>