<svg xmlns="http://www.w3.org/2000/svg" width="33" height="34" fill="none"><path stroke="#111827" stroke-linecap="round" stroke-linejoin="round" stroke-width="2" d="M25.745 26.245c-6.787 6.787-16.211 6.246-20.743 5.479a3.935 3.935 0 0 1-3.226-3.226C1.01 23.966.468 14.542 7.255 7.754 14.042.968 23.467 1.508 27.998 2.277a3.935 3.935 0 0 1 3.226 3.226c.767 4.531 1.308 13.956-5.479 20.743Z"/><path fill="#111827" fill-rule="evenodd" d="M19.098 1.294a1 1 0 0 1 1.414 0l11.694 11.693a1 1 0 0 1-1.414 1.415L19.098 2.708a1 1 0 0 1 0-1.414Zm3.34 9.769a1 1 0 0 1 0 1.414l-2.675 2.674 1.684 1.683a1 1 0 0 1-1.414 1.414l-1.684-1.683-2.284 2.284 1.684 1.683a1 1 0 0 1-1.415 1.414l-1.683-1.683-2.674 2.673a1 1 0 0 1-1.414-1.414l2.674-2.673-1.684-1.684a1 1 0 0 1 1.414-1.414l1.684 1.684 2.284-2.284-1.684-1.684a1 1 0 0 1 1.415-1.414l1.683 1.683 2.674-2.673a1 1 0 0 1 1.414 0Zm-20.23 8.535a1 1 0 0 0-1.414 1.414l11.694 11.694a1 1 0 0 0 1.414-1.414L2.208 19.598Z" clip-rule="evenodd"/></svg>