<svg xmlns="http://www.w3.org/2000/svg" width="33" height="33" fill="none" viewBox="0 0 33 33"><path stroke="#111827" stroke-linecap="round" stroke-linejoin="round" stroke-width="2" d="M25.745 25.745c-6.787 6.787-16.211 6.246-20.743 5.479a3.935 3.935 0 0 1-3.226-3.226C1.01 23.466.468 14.042 7.255 7.255c6.787-6.788 16.212-6.247 20.743-5.48a3.935 3.935 0 0 1 3.226 3.227c.767 4.531 1.308 13.956-5.479 20.743"/><path fill="#111827" fill-rule="evenodd" d="M19.098.794a1 1 0 0 1 1.414 0l11.694 11.693a1 1 0 0 1-1.414 1.415L19.098 2.208a1 1 0 0 1 0-1.414m3.34 9.769a1 1 0 0 1 0 1.414l-2.675 2.674 1.684 1.683a1 1 0 0 1-1.414 1.414l-1.684-1.683-2.284 2.284 1.684 1.683a1 1 0 0 1-1.415 1.414l-1.683-1.683-2.674 2.673a1 1 0 0 1-1.414-1.414l2.674-2.673-1.684-1.684a1 1 0 0 1 1.414-1.414l1.684 1.684 2.284-2.284-1.684-1.684a1 1 0 0 1 1.415-1.414l1.683 1.683 2.674-2.673a1 1 0 0 1 1.414 0m-20.23 8.535a1 1 0 0 0-1.414 1.414l11.694 11.694a1 1 0 0 0 1.414-1.414z" clip-rule="evenodd"/></svg>