<svg xmlns="http://www.w3.org/2000/svg" width="33" height="33" fill="none"><path fill="#111827" fill-rule="evenodd" d="M28.936.752a1 1 0 0 1 .334.746V31.502a1 1 0 0 1-2 0v-8.657h-7.939a1 1 0 0 1-.996-1.087l.996.087-.996-.088v-.004l.002-.012.004-.045a30.043 30.043 0 0 1 .084-.805c.062-.545.159-1.322.297-2.256.277-1.866.723-4.373 1.401-6.914.676-2.528 1.596-5.15 2.845-7.215C24.199 2.47 25.884.763 28.157.505a1 1 0 0 1 .779.247Zm-8.492 20.093h6.826V2.833c-.92.465-1.786 1.378-2.591 2.708-1.106 1.828-1.968 4.241-2.623 6.697-.653 2.443-1.086 4.869-1.356 6.69a66.805 66.805 0 0 0-.256 1.917ZM6.924 2.695a1 1 0 1 0-1.973-.33L3.744 9.61a1 1 0 0 0-.014.164 6.432 6.432 0 0 0 5.432 6.354v15.375a1 1 0 0 0 2 0V16.127a6.433 6.433 0 0 0 5.433-6.354c0-.055-.005-.11-.014-.164l-1.207-7.243a1 1 0 1 0-1.973.329l1.193 7.157a4.432 4.432 0 0 1-4.42 4.353h-.024a4.432 4.432 0 0 1-4.42-4.353l1.194-7.157Zm3.238-1.165a1 1 0 0 1 1 1v6.036a1 1 0 1 1-2 0V2.53a1 1 0 0 1 1-1Z" clip-rule="evenodd"/></svg>