<svg xmlns="http://www.w3.org/2000/svg" width="33" height="32" fill="none" viewBox="0 0 33 32"><path fill="#111827" fill-rule="evenodd" d="M16.463 8.991a6 6 0 0 1 5.915-4.99h3.55a1 1 0 1 1 0 2h-3.55a4 4 0 0 0-3.943 3.327L16.1 23.008A6 6 0 0 1 10.186 28H7.072a1 1 0 1 1 0-2h3.114a4 4 0 0 0 3.943-3.327zm10.172 11.073a1 1 0 0 1 0 1.414l-2.407 2.407 2.407 2.407a1 1 0 1 1-1.415 1.414L22.815 25.3l-2.407 2.407a1 1 0 1 1-1.415-1.414l2.407-2.407-2.407-2.407a1 1 0 0 1 1.415-1.414l2.407 2.407 2.407-2.407a1 1 0 0 1 1.414 0" clip-rule="evenodd"/></svg>