<svg xmlns="http://www.w3.org/2000/svg" width="33" height="33" fill="none" viewBox="0 0 33 33"><path fill="#111827" fill-rule="evenodd" d="M8.86 6.88a3.294 3.294 0 0 0-3.208 2.542L2.58 22.499a2.946 2.946 0 0 0 5.152 2.534l4.54-5.577a2.26 2.26 0 0 1 1.756-.835H24.18a4 4 0 0 0 4-4v-3.719l-.005-.025a1 1 0 0 1-.008-.33A4 4 0 0 0 24.18 6.88zm21.319 3.814a6 6 0 0 0-5.998-5.813H8.86a5.294 5.294 0 0 0-5.154 4.083L.633 22.042a4.946 4.946 0 0 0 8.65 4.253l4.54-5.576a.26.26 0 0 1 .205-.098h4.976l4.58 5.626a5.021 5.021 0 0 0 8.822-4.13zm-.717 6.777a6 6 0 0 1-5.28 3.15h-2.6l3.552 4.364a3.021 3.021 0 0 0 5.309-2.486zm-17.284-6.793a1 1 0 1 0-2 0v1.13H9.047a1 1 0 1 0 0 2h1.13v1.131a1 1 0 0 0 2 0v-1.13h1.132a1 1 0 1 0 0-2h-1.131zm6.523 2.13a1 1 0 0 1 1-1h4.262a1 1 0 1 1 0 2H19.7a1 1 0 0 1-1-1" clip-rule="evenodd"/></svg>