<svg xmlns="http://www.w3.org/2000/svg" width="33" height="33" fill="none" viewBox="0 0 33 33"><path fill="#111827" fill-rule="evenodd" d="M1.663.25h-1v32h31.674v-32H1.663m24.76 2h-1.915v28h1.915zm2 0v28h1.914v-28zm-5.915 20.19v7.81h-2.894v-7.81zm0-4.448v2.448h-2.894v-2.448zm0-15.743v13.744h-2.894V2.249zM11.62 17.993V30.25h1.996V17.992zm0-2h1.996v-3.016h-1.996zM8.479 30.25V2.249h-.93v28.002zm-5.816 0V2.249H5.55v28.002zM11.62 2.249v8.728h1.996V2.25zm3.996 28.002h1.997V2.249h-1.997z" clip-rule="evenodd"/></svg>