<svg xmlns="http://www.w3.org/2000/svg" width="33" height="33" fill="none" viewBox="0 0 33 33"><path fill="#111827" fill-rule="evenodd" d="M1.663.25h-1v32h31.674v-32H1.663Zm24.76 2h-1.915v28h1.915v-28Zm2 0v28h1.914v-28h-1.915Zm-5.915 20.19v7.81h-2.894v-7.81h2.893Zm0-4.448v2.448h-2.894v-2.448h2.893Zm0-15.743v13.743h-2.894V2.25h2.893ZM11.62 17.992V30.25h1.996V17.992h-1.996Zm0-2h1.996v-3.015h-1.996v3.015ZM8.479 30.252V2.249h-.93v28.002h.93Zm-5.816 0V2.249H5.55v28.002H2.663ZM11.62 2.249v8.728h1.996V2.25h-1.996Zm3.996 28.002h1.997V2.249h-1.997v28.002Z" clip-rule="evenodd"/></svg>