<svg xmlns="http://www.w3.org/2000/svg" width="33" height="32" fill="none" viewBox="0 0 33 32"><path fill="#111827" fill-rule="evenodd" d="M.965 16.764 16.345 32l-.023-.013.005.006C7.671 31.902.663 24.94.5 16.303zm-.08-4.284C2.488 5.337 8.87 0 16.5 0c5.357 0 10.1 2.632 13.004 6.672l-.034.03-2.091 1.83a13.18 13.18 0 0 0-10.879-5.724c-5.797 0-10.72 3.737-12.492 8.933l16.75 16.744a13.22 13.22 0 0 0 8.612-9.57h-6.981V16.19h9.585v.002h.527c-.09 7.536-5.393 13.819-12.472 15.411l-.34-.339-.003.004L3.348 14.936v.004z" clip-rule="evenodd"/></svg>