<svg width="32" height="32" fill="none" xmlns="http://www.w3.org/2000/svg"><path d="M16 22a6 6 0 1 0 0-12 6 6 0 0 0 0 12Z" stroke="#1C1B1F" stroke-width="2" stroke-linecap="round" stroke-linejoin="round"/><path d="M13.517 25.007h1a1 1 0 0 0-.734-.965l-.266.965Zm0 2.993h-1a1 1 0 0 0 1 1v-1Zm-2.13-3.876.495-.87a1 1 0 0 0-1.202.163l.707.707ZM9.27 26.24l-.707.707a1 1 0 0 0 1.414 0l-.707-.707ZM5.76 22.73l-.708-.707a1 1 0 0 0 0 1.414l.707-.707Zm2.116-2.117.707.707a1 1 0 0 0 .162-1.202l-.869.495Zm-.883-2.13.965-.265a1 1 0 0 0-.965-.735v1Zm-2.993 0H3a1 1 0 0 0 1 1v-1Zm0-4.966v-1a1 1 0 0 0-1 1h1Zm2.993 0v1a1 1 0 0 0 .965-.734l-.965-.266Zm.883-2.13.87.495a1 1 0 0 0-.163-1.202l-.707.707ZM5.76 9.27l-.707-.707a1 1 0 0 0 0 1.414l.707-.707ZM9.27 5.76l.707-.708a1 1 0 0 0-1.414 0l.707.707Zm2.117 2.116-.707.707a1 1 0 0 0 1.202.162l-.495-.869Zm2.13-.883.266.964a1 1 0 0 0 .734-.964h-1Zm0-2.993V3a1 1 0 0 0-1 1h1Zm4.966 0h1a1 1 0 0 0-1-1v1Zm0 2.993h-1a1 1 0 0 0 .735.964l.265-.964Zm2.13.883-.495.87a1 1 0 0 0 1.202-.163l-.707-.707ZM22.73 5.76l.707-.707a1 1 0 0 0-1.414 0l.707.707Zm3.51 3.511.708.707a1 1 0 0 0 0-1.414l-.707.707Zm-2.116 2.117-.707-.707a1 1 0 0 0-.162 1.202l.869-.495Zm.883 2.13-.964.266a1 1 0 0 0 .964.734v-1Zm2.993 0h1a1 1 0 0 0-1-1v1Zm0 4.966v1a1 1 0 0 0 1-1h-1Zm-2.993 0v-1a1 1 0 0 0-.965.735l.965.265Zm-.883 2.13-.87-.495a1 1 0 0 0 .163 1.202l.707-.707Zm2.117 2.117.707.707a1 1 0 0 0 0-1.414l-.707.707Zm-3.511 3.51-.707.708a1 1 0 0 0 1.414 0l-.707-.707Zm-2.117-2.116.707-.707a1 1 0 0 0-1.202-.162l.495.869Zm-2.13.883-.265-.965a1 1 0 0 0-.735.965h1Zm0 2.993v1a1 1 0 0 0 1-1h-1Zm-5.966-2.993V28h2v-2.993h-2Zm-1.624-.014c.734.418 1.526.749 2.36.978l.53-1.928a8.282 8.282 0 0 1-1.901-.788l-.99 1.738Zm-.916 1.955 2.117-2.117-1.414-1.414-2.117 2.117 1.414 1.414Zm-4.925-3.511 3.511 3.51 1.414-1.413-3.51-3.511-1.415 1.414Zm2.117-3.532-2.117 2.118 1.414 1.414 2.117-2.117-1.414-1.415Zm-1.14-1.157c.23.833.56 1.624.978 2.36l1.738-.99a8.283 8.283 0 0 1-.787-1.9l-1.929.53Zm.964-1.265H4v2h2.993v-2Zm-1.993 1v-4.966H3v4.966h2Zm-1-3.966h2.993v-2H4v2Zm3.007-3.624a10.285 10.285 0 0 0-.978 2.36l1.929.53c.184-.671.45-1.309.787-1.901l-1.738-.99Zm-1.955-.916 2.117 2.117 1.414-1.414-2.117-2.117-1.414 1.414Zm3.511-4.925-3.51 3.511 1.413 1.414 3.511-3.51-1.414-1.415Zm3.531 2.117L9.977 5.052 8.563 6.466l2.117 2.117 1.415-1.414Zm1.158-1.14c-.833.23-1.625.56-2.36.978l.99 1.738a8.283 8.283 0 0 1 1.9-.788l-.53-1.928ZM12.517 4v2.993h2V4h-2Zm5.966-1h-4.966v2h4.966V3Zm1 3.993V4h-2v2.993h2Zm1.624.014a10.282 10.282 0 0 0-2.36-.978l-.53 1.928c.672.185 1.309.451 1.901.788l.99-1.738Zm.916-1.955L19.906 7.17l1.414 1.414 2.117-2.117-1.414-1.414Zm4.925 3.511-3.511-3.51-1.414 1.413 3.51 3.511 1.415-1.414Zm-2.117 3.531 2.117-2.117-1.414-1.414-2.117 2.117 1.414 1.415Zm1.14 1.158c-.23-.833-.56-1.625-.978-2.36l-1.738.99c.337.592.603 1.23.788 1.9l1.928-.53Zm-.964 1.265H28v-2h-2.993v2Zm1.993-1v4.966h2v-4.966h-2Zm1 3.966h-2.993v2H28v-2Zm-3.007 3.624c.418-.734.749-1.526.978-2.36l-1.928-.53a8.283 8.283 0 0 1-.788 1.901l1.738.99Zm1.955.916-2.117-2.117-1.414 1.414 2.117 2.117 1.414-1.414Zm-3.511 4.925 3.51-3.511-1.413-1.414-3.511 3.51 1.414 1.415Zm-3.532-2.117 2.118 2.117 1.414-1.414-2.117-2.117-1.415 1.414Zm-1.157 1.14a10.28 10.28 0 0 0 2.36-.978l-.99-1.738a8.283 8.283 0 0 1-1.9.788l.53 1.928ZM19.483 28v-2.993h-2V28h2Zm-5.966 1h4.966v-2h-4.966v2Z" fill="#1C1B1F"/></svg>