<svg xmlns="http://www.w3.org/2000/svg" width="33" height="32" fill="none"><path fill="#111827" fill-rule="evenodd" d="M13.397 0a1 1 0 0 0-1 1v3.005a12.6 12.6 0 0 0-1.477.612L8.795 2.493a1 1 0 0 0-1.414 0L2.993 6.88a1 1 0 0 0 0 1.414l2.124 2.125c-.234.476-.439.97-.612 1.477H1.5a1 1 0 0 0-1 1v6.206a1 1 0 0 0 1 1h3.004c.173.508.378 1.001.612 1.477l-2.124 2.125a1 1 0 0 0 0 1.414l4.388 4.388a1 1 0 0 0 1.414 0l2.125-2.124c.476.234.97.439 1.477.612V31a1 1 0 0 0 1 1h6.206a1 1 0 0 0 1-1v-3.004c.508-.173 1.001-.378 1.477-.612l2.125 2.124a1 1 0 0 0 1.414 0l4.388-4.388a1 1 0 0 0 0-1.415l-2.124-2.124c.234-.476.439-.97.613-1.477h3.003a1 1 0 0 0 1-1v-6.206a1 1 0 0 0-1-1h-3.003c-.174-.508-.38-1.001-.613-1.477l2.124-2.125a1 1 0 0 0 0-1.414L25.62 2.493a1 1 0 0 0-1.414 0L22.08 4.617c-.476-.234-.97-.439-1.477-.612V1a1 1 0 0 0-1-1h-6.206Zm1 4.742V2.001h4.206v2.741a1 1 0 0 0 .735.964c.859.237 1.675.578 2.433 1.01a1 1 0 0 0 1.202-.163l1.939-1.939 2.974 2.974-1.94 1.94a1 1 0 0 0-.161 1.201c.431.758.772 1.574 1.009 2.433a1 1 0 0 0 .964.735h2.741v4.206h-2.741a1 1 0 0 0-.964.735 10.6 10.6 0 0 1-1.01 2.433 1 1 0 0 0 .163 1.201l1.939 1.94-2.974 2.974-1.94-1.94a1 1 0 0 0-1.201-.161 10.6 10.6 0 0 1-2.433 1.009 1 1 0 0 0-.735.964v2.741h-4.206v-2.741a1 1 0 0 0-.735-.964 10.604 10.604 0 0 1-2.433-1.01 1 1 0 0 0-1.201.163l-1.94 1.94-2.974-2.975 1.94-1.94a1 1 0 0 0 .161-1.201 10.603 10.603 0 0 1-1.008-2.433 1 1 0 0 0-.965-.735H2.501v-4.206h2.741a1 1 0 0 0 .965-.735c.236-.859.577-1.675 1.008-2.433a1 1 0 0 0-.162-1.202L5.114 7.588l2.974-2.974 1.94 1.94a1 1 0 0 0 1.201.161 10.603 10.603 0 0 1 2.433-1.008 1 1 0 0 0 .735-.965ZM10 16A6.5 6.5 0 1 1 23 16a6.5 6.5 0 0 1-13 0ZM16.5 7.5a8.5 8.5 0 1 0 0 17 8.5 8.5 0 0 0 0-17Z" clip-rule="evenodd"/></svg>