<svg xmlns="http://www.w3.org/2000/svg" width="33" height="32" fill="none" viewBox="0 0 33 32"><path fill="#111827" fill-rule="evenodd" d="M12.553.956A1 1 0 0 0 11.187.59L5.811 3.694a1 1 0 0 0-.366 1.366L6.95 7.665a12.665 12.665 0 0 0-2.446 4.231H1.498a1 1 0 0 0-1 1v6.208a1 1 0 0 0 1 1h3.005a12.664 12.664 0 0 0 2.446 4.231L5.445 26.94a1 1 0 0 0 .366 1.366l5.376 3.104a1 1 0 0 0 1.366-.366l1.503-2.603a12.733 12.733 0 0 0 4.888 0l1.503 2.603a1 1 0 0 0 1.366.366l5.376-3.104a1 1 0 0 0 .366-1.366l-1.504-2.605a12.665 12.665 0 0 0 2.446-4.231h3.005a1 1 0 0 0 1-1v-6.208a1 1 0 0 0-1-1h-3.005a12.664 12.664 0 0 0-2.446-4.231l1.504-2.605a1 1 0 0 0-.366-1.366L21.813.59a1 1 0 0 0-1.366.366L18.944 3.56a12.733 12.733 0 0 0-4.888 0L12.553.956ZM9.05 7.303 7.677 4.926l3.644-2.104 1.371 2.375a1 1 0 0 0 1.117.468c.859-.223 1.76-.342 2.691-.342.93 0 1.832.12 2.69.342a1 1 0 0 0 1.118-.468l1.37-2.375 3.645 2.104-1.373 2.377a1 1 0 0 0 .154 1.202 10.665 10.665 0 0 1 2.692 4.657 1 1 0 0 0 .964.734h2.742v4.208H27.76a1 1 0 0 0-.965.735 10.664 10.664 0 0 1-2.691 4.656 1 1 0 0 0-.154 1.202l1.373 2.377-3.644 2.104-1.371-2.375a1 1 0 0 0-1.117-.468c-.859.223-1.76.342-2.691.342-.93 0-1.832-.12-2.69-.342a1 1 0 0 0-1.118.468l-1.371 2.375-3.644-2.104 1.373-2.377a1 1 0 0 0-.154-1.202 10.664 10.664 0 0 1-2.691-4.656 1 1 0 0 0-.965-.735H2.498v-4.208H5.24a1 1 0 0 0 .964-.734c.49-1.78 1.43-3.377 2.692-4.657a1 1 0 0 0 .154-1.202ZM10 16A6.5 6.5 0 1 1 23 16a6.5 6.5 0 0 1-13.002 0Zm6.5-8.5a8.5 8.5 0 1 0 0 17.001 8.5 8.5 0 0 0 0-17.002Z" clip-rule="evenodd"/></svg>