<svg xmlns="http://www.w3.org/2000/svg" width="33" height="33" fill="none" viewBox="0 0 33 33"><path fill="#111827" fill-rule="evenodd" d="M19.931.5a1 1 0 1 0 0 2h4.924l-4.002 4.002a9.574 9.574 0 0 0-6.362-2.407 9.61 9.61 0 0 0-9.61 9.61c0 4.97 3.772 9.058 8.61 9.559v3.217H9.899a1 1 0 1 0 0 2h3.592v3.018a1 1 0 1 0 2 0v-3.018h3.592a1 1 0 1 0 0-2H15.49v-3.218c4.838-.5 8.61-4.588 8.61-9.558a9.567 9.567 0 0 0-1.893-5.729l3.911-3.911v4.623a1 1 0 1 0 2 0V1.501a1 1 0 0 0-1-1h-7.188Zm.202 8.097a7.59 7.59 0 0 0-5.642-2.503 7.61 7.61 0 0 0-.006 15.22h.012a7.61 7.61 0 0 0 5.636-12.717Z" clip-rule="evenodd"/></svg>