<svg xmlns="http://www.w3.org/2000/svg" width="33" height="33" fill="none" viewBox="0 0 33 33"><path fill="#111827" fill-rule="evenodd" d="M32.156.747a1.005 1.005 0 0 1 .343.754v8.166a1 1 0 1 1-2 0V3.915l-5.412 5.412 3.206 3.205a1 1 0 0 1-1.414 1.414l-3.206-3.205-2.977 2.977a11.388 11.388 0 0 1 2.673 7.347c0 6.315-5.12 11.434-11.434 11.434C5.62 32.5.501 27.38.501 21.065.5 14.75 5.62 9.63 11.935 9.63c2.797 0 5.36 1.004 7.347 2.672l2.977-2.976-3.206-3.206a1 1 0 0 1 1.415-1.414l3.205 3.205 5.412-5.411h-5.752a1 1 0 1 1 0-2H31.5a.997.997 0 0 1 .657.246ZM2.501 21.065a9.434 9.434 0 1 1 18.868 0 9.434 9.434 0 0 1-18.868 0Z" clip-rule="evenodd"/></svg>