<svg xmlns="http://www.w3.org/2000/svg" width="33" height="33" fill="none" viewBox="0 0 33 33"><path fill="#111827" fill-rule="evenodd" d="m29.071 2.515-7.564 7.563a12.678 12.678 0 0 0-8.265-3.048C6.213 7.03.515 12.728.515 19.758c0 7.029 5.698 12.727 12.727 12.727 7.03 0 12.728-5.698 12.728-12.727 0-3.155-1.148-6.042-3.048-8.265l7.563-7.564v5.404a1 1 0 1 0 2 0V1.525a1.03 1.03 0 0 0-.051-.327.995.995 0 0 0-.588-.617.997.997 0 0 0-.36-.066h-7.82a1 1 0 1 0 0 2h5.405ZM13.242 9.03c-5.924 0-10.727 4.803-10.727 10.728 0 5.924 4.803 10.727 10.727 10.727 5.925 0 10.728-4.803 10.728-10.727 0-5.925-4.803-10.728-10.728-10.728Z" clip-rule="evenodd"/></svg>