<svg xmlns="http://www.w3.org/2000/svg" width="33" height="32" fill="none" viewBox="0 0 33 32"><path fill="#111827" fill-rule="evenodd" d="M16.5 0C7.905 0 .938 6.969.938 15.563V31a1 1 0 0 0 1.707.707l4.147-4.147 4.147 4.147a1 1 0 0 0 1.414 0l4.147-4.147 4.147 4.147a1 1 0 0 0 1.414 0l4.147-4.147 4.147 4.147a1 1 0 0 0 1.707-.707V15.562C32.062 6.968 25.094.001 16.5.001ZM2.938 15.563c0-7.49 6.072-13.561 13.562-13.561 7.49 0 13.562 6.072 13.562 13.561v13.023l-3.147-3.147a1 1 0 0 0-1.414 0l-4.147 4.147-4.147-4.147a1 1 0 0 0-1.414 0l-4.147 4.147-4.147-4.147a1 1 0 0 0-1.414 0l-3.147 3.147V15.562Zm9.159.438a1.887 1.887 0 1 0 0-3.774 1.887 1.887 0 0 0 0 3.774Zm8.806 0a1.887 1.887 0 1 0 0-3.774 1.887 1.887 0 0 0 0 3.774Z" clip-rule="evenodd"/></svg>