<svg xmlns="http://www.w3.org/2000/svg" width="33" height="33" fill="none"><path fill="#111827" fill-rule="evenodd" d="M.5 10.929a4 4 0 0 1 4-4h3.796a4 4 0 0 1 4 4v2.077a1 1 0 1 1-2 0v-2.077a2 2 0 0 0-2-2H4.501a2 2 0 0 0-2 2v11.142a2 2 0 0 0 2 2h3.795a2 2 0 0 0 2-2v-3.314H7.702a1 1 0 1 1 0-2h3.594a1 1 0 0 1 1 1v4.314a4 4 0 0 1-4 4H4.501a4 4 0 0 1-4-4V10.929Zm17.918-3a1 1 0 1 0-2 0v17.142a1 1 0 1 0 2 0V7.929Zm6.735 9.571v7.494a1 1 0 1 1-2 0V7.928a1 1 0 0 1 1-1h7.346a1 1 0 1 1 0 2h-6.346V15.5h4.51a1 1 0 1 1 0 2h-4.51Z" clip-rule="evenodd"/></svg>