<svg xmlns="http://www.w3.org/2000/svg" width="33" height="32" fill="none" viewBox="0 0 33 32"><path fill="#111827" fill-rule="evenodd" d="M22.954 5.773a3.772 3.772 0 1 1 7.545 0 3.772 3.772 0 0 1-7.545 0M26.726.001a5.772 5.772 0 0 0-1.768 11.269 4 4 0 0 1-3.994 3.773h-9.433c-1.664 0-3.17.678-4.257 1.772V11.46a5.774 5.774 0 0 0-1-11.458 5.772 5.772 0 0 0-1 11.458v9.082a5.774 5.774 0 0 0 1 11.458 5.772 5.772 0 0 0 1.282-11.402 4 4 0 0 1 3.975-3.554h9.433a6 6 0 0 0 5.98-5.501A5.772 5.772 0 0 0 26.726 0M6.265 22.454h.017a3.772 3.772 0 1 1-.017 0m.009-20.453a3.772 3.772 0 1 0 0 7.545 3.772 3.772 0 0 0 0-7.545" clip-rule="evenodd"/></svg>