<svg xmlns="http://www.w3.org/2000/svg" width="33" height="32" fill="none" viewBox="0 0 33 32"><path fill="#111827" fill-rule="evenodd" d="M5.875 3.25a3.375 3.375 0 1 0 0 6.75 3.375 3.375 0 0 0 0-6.75ZM.5 6.625a5.375 5.375 0 1 1 6.918 5.15v7.845L13 25.877V21a1 1 0 0 1 2 0v7.48a.998.998 0 0 1-1.012 1.02H6.5a1 1 0 1 1 0-2h5.268l-6.096-6.833A1 1 0 0 1 5.418 20v-8.02A5.376 5.376 0 0 1 .5 6.625ZM27.125 22a3.375 3.375 0 1 0 0 6.75 3.375 3.375 0 0 0 0-6.75Zm.457-1.98v-8.021a1 1 0 0 0-.253-.666L21.232 4.5H26.5a1 1 0 1 0 0-2h-7.489a.997.997 0 0 0-1.01 1.012V11a1 1 0 1 0 2 0V6.123l5.581 6.257v7.845a5.375 5.375 0 1 0 2-.205Z" clip-rule="evenodd"/></svg>