<svg xmlns="http://www.w3.org/2000/svg" width="33" height="32" fill="none" viewBox="0 0 33 32"><path fill="#111827" fill-rule="evenodd" d="M2.5 6.625a3.375 3.375 0 1 1 6.75 0 3.375 3.375 0 0 1-6.75 0ZM5.875 1.25a5.375 5.375 0 0 0-.457 10.73V20a1 1 0 0 0 .254.666l6.096 6.834H6.5a1 1 0 1 0 0 2H14a1 1 0 0 0 1-1V21a1 1 0 1 0-2 0v4.877L7.418 19.62v-7.845A5.375 5.375 0 0 0 5.875 1.25ZM23.75 25.375a3.375 3.375 0 1 1 6.75 0 3.375 3.375 0 0 1-6.75 0Zm1.832-5.15a5.375 5.375 0 1 0 2-.206V12a1 1 0 0 0-.253-.666L21.232 4.5H26.5a1 1 0 1 0 0-2H19a1 1 0 0 0-1 1V11a1 1 0 1 0 2 0V6.123l5.582 6.257v7.845Z" clip-rule="evenodd"/></svg>