<svg xmlns="http://www.w3.org/2000/svg" width="33" height="32" fill="none"><path fill="#111827" fill-rule="evenodd" d="M26.503 2a3.773 3.773 0 1 0 0 7.545 3.773 3.773 0 0 0 0-7.545ZM20.73 5.772a5.773 5.773 0 1 1 6.773 5.687v4.298a1 1 0 0 1-1 1H17.5v3.784a5.774 5.774 0 0 1-1 11.46 5.773 5.773 0 0 1-1-11.46v-3.784H6.497a1 1 0 0 1-1-1V11.46A5.774 5.774 0 0 1 6.497 0a5.773 5.773 0 0 1 1 11.46v3.297h18.006V11.46a5.774 5.774 0 0 1-4.773-5.687ZM16.5 22.455a3.773 3.773 0 1 0 0 7.545 3.773 3.773 0 0 0 0-7.545ZM2.723 5.773a3.773 3.773 0 1 1 7.546 0 3.773 3.773 0 0 1-7.546 0Z" clip-rule="evenodd"/></svg>