<svg xmlns="http://www.w3.org/2000/svg" width="33" height="32" fill="none" viewBox="0 0 33 32"><path fill="#111827" fill-rule="evenodd" d="M16.5 2c-7.732 0-14 6.268-14 14 0 6.073 3.867 11.243 9.274 13.182v-2.436c-1.24.115-2.907-.125-3.804-1.573-.233-.618-.905-1.98-1.726-2.49-1.027-.636-.687-.833-.534-.92.399-.106 1.4-.103 2.214.748.155.17.498.569.637.808l.01.02c.18.314 1.05 1.838 3.249 1.44.068-.484.209-.944.412-1.37q-.31-.076-.605-.163c-3.305-.836-5.663-3.797-5.663-7.717 0-1.884.53-3.44 1.439-4.7-.197-.73-.198-1.47-.127-2.098a7.2 7.2 0 0 1 .505-1.959l.226-.519.562-.073c.966-.126 1.998.216 2.77.558a12 12 0 0 1 1.53.821c1.121-.23 2.368-.346 3.715-.346 1.274 0 2.496.119 3.607.34.402-.25.942-.563 1.537-.826.764-.339 1.772-.667 2.741-.531l.54.075.228.494c.198.427.422 1.11.522 1.89.08.624.089 1.358-.09 2.096a8.26 8.26 0 0 1 1.498 4.778c0 3.147-1.74 5.98-4.327 7.204l-.014.007-.015.007c-.618.268-1.303.495-2.038.674a4.7 4.7 0 0 1 .452 2.02v3.741C26.632 27.244 30.5 22.074 30.5 16c0-7.732-6.268-14-14-14M.5 16c0-8.836 7.164-16 16-16s16 7.164 16 16-7.164 16-16 16-16-7.164-16-16m8.764-7.043a5.5 5.5 0 0 1 .142-.761c.326.06.708.187 1.124.371a10.5 10.5 0 0 1 1.579.885l.366.25.431-.103c1.049-.25 2.282-.386 3.678-.386 1.3 0 2.52.137 3.578.38l.417.095.357-.236c.367-.242.957-.612 1.601-.897.406-.18.777-.3 1.095-.355.058.209.11.45.144.71.074.578.047 1.171-.148 1.681l-.206.541.366.449c.854 1.045 1.38 2.425 1.38 3.948 0 2.433-1.345 4.519-3.17 5.39-.607.263-1.323.487-2.124.656-.616.129-.997.588-1.156 1.027-.158.434-.154.977.127 1.449.241.406.38.88.38 1.39v4.182c-2.405.44-4.133.227-5.451-.034V25.44c0-.512.14-.989.384-1.397.282-.47.287-1.013.13-1.448-.158-.44-.536-.9-1.152-1.03a13 13 0 0 1-.96-.244l-.021-.006-.021-.005c-2.372-.593-4.17-2.714-4.17-5.782 0-1.661.513-2.905 1.325-3.868l.399-.473-.247-.569c-.204-.47-.246-1.059-.177-1.662" clip-rule="evenodd"/></svg>