<svg xmlns="http://www.w3.org/2000/svg" width="33" height="32" fill="none" viewBox="0 0 33 32"><circle cx="16.5" cy="16" r="15" stroke="#111827" stroke-width="2"/><path fill="#111827" d="M7.924 22.51c-.814-.85-1.815-.853-2.214-.748-.153.088-.493.285.534.921.82.51 1.493 1.872 1.726 2.49 1.185 1.912 3.71 1.717 4.825 1.381l.518-2.299-.518.246c-2.98 1.135-4.062-.882-4.234-1.182-.139-.24-.482-.639-.637-.808Z"/><path stroke="#111827" stroke-width="2" d="M8.698 7.172c-.31.712-.773 2.466-.174 3.845-.968 1.149-1.56 2.622-1.56 4.512 0 3.498 2.083 6.041 4.927 6.752.33.098.677.186 1.037.263.41.087.587.628.372.987a3.709 3.709 0 0 0-.526 1.91v4.353c0 .259-.031.365.019.609 1.57.345 3.858.843 7.387.045.05-.242.045-.397.045-.654V25.44c0-.695-.19-1.345-.521-1.901-.214-.36-.035-.9.375-.987a12.143 12.143 0 0 0 2.333-.723c2.21-1.046 3.755-3.508 3.755-6.301 0-1.755-.606-3.358-1.605-4.581.546-1.427.079-3.093-.232-3.762-1.366-.191-3.18.927-3.944 1.431a17.218 17.218 0 0 0-3.802-.404c-1.458 0-2.771.142-3.91.414-.7-.48-2.612-1.633-3.976-1.455Z"/></svg>