<svg width="32" height="32" fill="none" xmlns="http://www.w3.org/2000/svg"><path d="m19.161 28.806-.734-.152a.75.75 0 0 0 .916.88l-.182-.727Zm-6.323 0-.182.728a.75.75 0 0 0 .916-.88l-.734.152Zm-.067-3.46h.75a.75.75 0 0 0-.963-.72l.213.72Zm-4.164-1.202-.702.264c.018.046.04.09.065.13l.637-.394Zm-1.496-2.158.395-.638-.395.638Zm-.463-.798-.19-.726a.75.75 0 0 0-.183.075l.373.65Zm1.92.648.554-.505a.74.74 0 0 0-.013-.013l-.541.518Zm.551.701.65-.372v-.002l-.65.374Zm.01.017.65-.372v-.001l-.65.373Zm3.66 1.007-.218-.718a.715.715 0 0 0-.05.017l.268.7Zm.093-.028.217.717a.75.75 0 0 0 .507-.522l-.724-.195Zm.907-1.51.513.546a.75.75 0 0 0-.406-1.289l-.107.743Zm-1.784-.386.214-.719a.81.81 0 0 0-.032-.008l-.181.727Zm-4.27-5.852h.75-.75Zm1.352-3.91.574.483a.75.75 0 0 0 .114-.781l-.688.298Zm.15-3.333L9.142 7.8a.75.75 0 0 0-.59.444l.687.3Zm3.447 1.261-.424.619a.75.75 0 0 0 .598.11l-.174-.729Zm6.683-.008-.167.731c.2.046.41.008.58-.105l-.413-.626Zm3.419-1.24.68-.316a.75.75 0 0 0-.576-.427l-.104.743Zm.201 3.26-.7-.268a.75.75 0 0 0 .12.742l.58-.474Zm-1.863 9.431.299.688a.849.849 0 0 0 .022-.01l-.321-.678Zm-2.907.782-.106-.742a.75.75 0 0 0-.41 1.288l.516-.546Zm2.907-.782-.3-.688a.708.708 0 0 0-.021.01l.32.678Zm7.126-5.052c0 5.737-3.945 10.554-9.27 11.885l.363 1.455c5.978-1.493 10.407-6.899 10.407-13.34h-1.5ZM16 3.944c6.765 0 12.25 5.484 12.25 12.25h1.5c0-7.594-6.156-13.75-13.75-13.75v1.5ZM3.75 16.194c0-6.766 5.485-12.25 12.25-12.25v-1.5c-7.594 0-13.75 6.156-13.75 13.75h1.5Zm9.27 11.885c-5.326-1.331-9.27-6.149-9.27-11.885h-1.5c0 6.44 4.428 11.846 10.406 13.34l.363-1.455Zm.552.575a2.493 2.493 0 0 1-.051-.506h-1.5c0 .277.028.548.082.81l1.469-.304Zm-.051-.506v-2.802h-1.5v2.802h1.5Zm-.963-3.521c-.4.118-1.07.212-1.73.103-.646-.107-1.22-.394-1.583-.982l-1.275.79c.656 1.06 1.677 1.517 2.614 1.672a5.626 5.626 0 0 0 2.399-.145l-.425-1.438Zm-3.25-.748a7.54 7.54 0 0 0-.621-1.246c-.277-.446-.675-.971-1.181-1.285l-.79 1.276c.206.127.455.413.697.802.232.371.407.756.492.982l1.404-.53Zm-1.802-2.53a1.991 1.991 0 0 1-.333-.242c-.05-.049.034.01.062.174a.592.592 0 0 1-.142.492c-.058.064-.118.092-.072.065l-.746-1.3c-.02.01-.166.088-.289.223a.91.91 0 0 0-.229.776c.05.283.217.494.36.635.15.15.352.299.599.451l.79-1.275Zm-.667.564c.135-.036.705-.062 1.187.442l1.083-1.037c-.929-.971-2.095-1.002-2.652-.856l.382 1.451Zm1.174.428c.059.064.157.177.253.295.104.128.175.227.203.275l1.3-.748c-.166-.289-.519-.691-.647-.832l-1.109 1.01Zm.455.569.01.016 1.301-.745-.01-.017-1.3.746Zm.01.016c.1.177.464.82 1.22 1.258.796.46 1.906.63 3.358.078l-.534-1.402c-1.082.412-1.714.233-2.071.026a1.852 1.852 0 0 1-.671-.704l-1.303.744Zm4.528 1.353.093-.029-.435-1.435-.093.028.435 1.436Zm.6-.551c.12-.449.365-.848.696-1.159l-1.027-1.093a3.978 3.978 0 0 0-1.117 1.861l1.448.391Zm.29-2.448a11.953 11.953 0 0 1-1.677-.362l-.427 1.438c.587.174 1.22.312 1.889.409l.215-1.485Zm-1.709-.37c-2.11-.528-3.702-2.416-3.702-5.125h-1.5c0 3.355 2.02 5.875 4.839 6.58l.363-1.455Zm-3.702-5.125c0-1.466.454-2.57 1.176-3.427l-1.148-.966c-.955 1.135-1.528 2.584-1.528 4.393h1.5Zm1.29-4.208c-.188-.434-.224-.967-.163-1.5.06-.53.207-.992.313-1.235l-1.375-.6c-.163.375-.35.982-.428 1.665-.078.68-.054 1.505.277 2.267l1.376-.597Zm-.44-2.291c.377-.05.928.088 1.538.359a9.193 9.193 0 0 1 1.387.777l.848-1.238a10.686 10.686 0 0 0-1.628-.91c-.665-.295-1.535-.58-2.34-.475l.195 1.487Zm3.523 1.247c.92-.22 1.997-.338 3.214-.338v-1.5c-1.31 0-2.507.127-3.562.379l.348 1.459Zm3.214-.338c1.136 0 2.2.12 3.128.331l.334-1.462a15.67 15.67 0 0 0-3.462-.369v1.5Zm3.708.226c.32-.21.837-.535 1.404-.786.591-.262 1.12-.39 1.498-.337l.208-1.486c-.806-.113-1.656.16-2.313.451-.68.302-1.28.68-1.623.906l.826 1.252Zm2.326-1.55c.102.22.25.652.315 1.163.066.512.044 1.048-.134 1.513l1.4.536c.296-.772.307-1.576.222-2.24a5.734 5.734 0 0 0-.443-1.604l-1.36.631Zm.3 3.418a5.512 5.512 0 0 1 1.222 3.496h1.5a7.012 7.012 0 0 0-1.56-4.445l-1.162.95Zm1.222 3.496c0 2.156-1.193 4.01-2.825 4.783l.642 1.356c2.198-1.04 3.683-3.453 3.683-6.139h-1.5Zm-2.803 4.773c-.744.324-1.668.58-2.714.728l.211 1.485c1.155-.164 2.212-.45 3.101-.837l-.598-1.376Zm-3.123 2.016a2.47 2.47 0 0 1 .776 1.802h1.5a3.97 3.97 0 0 0-1.246-2.893l-1.03 1.09Zm.776 1.802v3.772h1.5v-3.772h-1.5Zm0 3.772c0 .174-.017.344-.051.506l1.469.305c.054-.263.082-.534.082-.81h-1.5Zm2.945-6.214a7.83 7.83 0 0 0 .072-.032l-.61-1.37-.06.026.598 1.376Zm-.62-1.366a4.111 4.111 0 0 1-.55.214l.44 1.434c.259-.08.51-.177.752-.292l-.642-1.356Z" fill="#1C1B1F"/></svg>