<svg xmlns="http://www.w3.org/2000/svg" width="33" height="32" fill="none" viewBox="0 0 33 32"><g clip-path="url(#a)"><path fill="#111827" fill-rule="evenodd" d="m6.675 18.262 3.701 2.134V15.22l15.948-9.21 6.134 3.546.04.023.002.003v.749h-.001V22.48l-15.296 8.834v.002l-.647.374h-.008l-.272-.159L.5 22.426V9.521L16.454.311l6.175 3.564-15.954 9.21v5.177ZM15.891 29.8 1.806 21.673V10.274l14.648-8.457 3.563 2.057L5.37 12.33v6.685l6.312 3.64v-6.682l14.641-8.457 4.209 2.433-14.687 8.377.046 11.474Zm1.306.008 13.996-8.084V11.076l-14.04 8.008.044 10.725Z" clip-rule="evenodd"/></g><defs><clipPath id="a"><path fill="#fff" d="M.5 0h32v32H.5z"/></clipPath></defs></svg>