<svg xmlns="http://www.w3.org/2000/svg" width="33" height="32" fill="none" viewBox="0 0 33 32"><path fill="#111827" fill-rule="evenodd" d="M5.71 1.761a1 1 0 0 1 .994.548l4.35 8.702h11.33l3.729-8.65a1 1 0 0 1 1.881.126l4.468 15.956a1 1 0 0 1-.38 1.082l-14.68 10.531a1 1 0 0 1-.955.116 1 1 0 0 1-.905-.593L.935 19.537a1 1 0 0 1-.4-1.085L4.845 2.496a1 1 0 0 1 .865-.735m10.84 24.77 4.959-13.52h-9.927zM8.805 10.983 6.09 5.553l-1.466 5.43zm-4.721 2H9.44l4.904 13.347-11.694-8.04zm26.263 5.325-11.74 8.422 5.042-13.747h5.207zm-3.516-12.56 1.465 5.235h-3.722z" clip-rule="evenodd"/></svg>