<svg xmlns="http://www.w3.org/2000/svg" width="33" height="32" fill="none" viewBox="0 0 33 32"><path fill="#111827" fill-rule="evenodd" d="M2.501 5.773a3.772 3.772 0 1 1 7.545 0 3.772 3.772 0 0 1-7.545 0M6.273.001a5.772 5.772 0 0 0-1.012 11.456v9.086a5.774 5.774 0 0 0 1.012 11.456 5.772 5.772 0 0 0 .988-11.46V13.18l2.342 2.614a11 11 0 0 0 8.192 3.659h3.332a5.772 5.772 0 1 0-.143-2h-3.189a9 9 0 0 1-6.702-2.994L8.19 11.22A5.772 5.772 0 0 0 6.274.001m-.14 22.456a1 1 0 0 0 .262-.001 3.773 3.773 0 1 1-.263 0m20.594-8.184a3.772 3.772 0 1 0 0 7.545 3.772 3.772 0 0 0 0-7.545" clip-rule="evenodd"/></svg>