<svg xmlns="http://www.w3.org/2000/svg" width="33" height="33" fill="none" viewBox="0 0 33 33"><path fill="#111827" fill-rule="evenodd" d="M3.499 16.25c0-7.18 5.82-13.001 13-13.001 7.181 0 13.002 5.82 13.002 13 0 7.181-5.82 13.002-13.001 13.002-7.18 0-13.001-5.82-13.001-13.001Zm13-16.001c-8.836 0-16 7.164-16 16 0 8.838 7.164 16.002 16 16.002 8.838 0 16.002-7.164 16.002-16.001C32.501 7.413 25.337.249 16.5.249Zm.001 12.376a3.625 3.625 0 1 1 0 7.25 3.625 3.625 0 0 1 0-7.25Z" clip-rule="evenodd"/></svg>