<svg xmlns="http://www.w3.org/2000/svg" width="33" height="32" fill="none" viewBox="0 0 33 32"><path fill="#111827" fill-rule="evenodd" d="M6.273 2a3.772 3.772 0 0 0-.004 7.546h.008A3.772 3.772 0 0 0 6.273 2Zm1 9.46a5.774 5.774 0 0 0-1-11.46 5.772 5.772 0 0 0-1 11.46v9.08a5.774 5.774 0 0 0 1 11.46 5.772 5.772 0 0 0 1-11.46v-9.08Zm-1 10.994a3.772 3.772 0 1 0 0 7.545 3.772 3.772 0 0 0 0-7.545Zm20.454 0a3.772 3.772 0 1 0 0 7.545 3.772 3.772 0 0 0 0-7.545Zm.408-1.986v-8.832a1 1 0 0 0-.254-.666l-6.785-7.606h5.949a1 1 0 1 0 0-2h-8.181a.997.997 0 0 0-1 1.007v8.175a1 1 0 1 0 2 0V4.988l6.27 7.029v8.66a5.772 5.772 0 1 0 2-.208Z" clip-rule="evenodd"/></svg>