<svg xmlns="http://www.w3.org/2000/svg" width="33" height="32" fill="none" viewBox="0 0 33 32"><path fill="#111827" fill-rule="evenodd" d="M6.273 2.001a3.772 3.772 0 0 0-.01 7.545h.02A3.772 3.772 0 0 0 6.274 2m1 9.459A5.774 5.774 0 0 0 6.273 0a5.772 5.772 0 0 0-1 11.459v9.08a5.774 5.774 0 0 0 1 11.46 5.772 5.772 0 0 0 1-11.46zm-1 10.994a3.772 3.772 0 1 0 0 7.545 3.772 3.772 0 0 0 0-7.545m20.454 0a3.772 3.772 0 1 0 0 7.545 3.772 3.772 0 0 0 0-7.545m.408-1.986v-8.832a1 1 0 0 0-.254-.666l-6.785-7.605h5.949a1 1 0 1 0 0-2h-8.326a1 1 0 0 0-1 1v8.325a1 1 0 0 0 2 0V4.826l6.416 7.191v8.66a5.772 5.772 0 1 0 2-.208" clip-rule="evenodd"/></svg>