<svg width="32" height="32" fill="none" xmlns="http://www.w3.org/2000/svg"><path d="M7.818 28a3.818 3.818 0 1 0 0-7.636 3.818 3.818 0 0 0 0 7.636ZM7.818 11.636a3.818 3.818 0 1 0 0-7.636 3.818 3.818 0 0 0 0 7.636ZM7.818 11.636v8.728M24.182 28a3.818 3.818 0 1 0 0-7.636 3.818 3.818 0 0 0 0 7.636ZM23.636 5.091h-6.545v6.546" stroke="#1C1B1F" stroke-width="2" stroke-linecap="round" stroke-linejoin="round"/><path d="M23.708 20.364v-7.856l-6.617-7.417" stroke="#1C1B1F" stroke-width="2" stroke-linecap="round" stroke-linejoin="round"/></svg>