<svg xmlns="http://www.w3.org/2000/svg" width="32" height="32" fill="none"><path stroke="#1C1B1F" stroke-linecap="round" stroke-linejoin="round" stroke-width="2" d="M7.818 28a3.818 3.818 0 1 0 0-7.636 3.818 3.818 0 0 0 0 7.636ZM7.818 11.636a3.818 3.818 0 1 0 0-7.636 3.818 3.818 0 0 0 0 7.636ZM7.818 11.636v8.728M24.182 28a3.818 3.818 0 1 0 0-7.636 3.818 3.818 0 0 0 0 7.636ZM23.636 5.091h-6.545v6.546"/><path stroke="#1C1B1F" stroke-linecap="round" stroke-linejoin="round" stroke-width="2" d="M23.708 20.364v-7.856l-6.617-7.417"/></svg>