<svg xmlns="http://www.w3.org/2000/svg" width="33" height="33" fill="none" viewBox="0 0 33 33"><path fill="#111827" fill-rule="evenodd" d="M31.206 1.96A1 1 0 1 0 29.792.545l-3.06 3.06-3.06-3.06a1 1 0 0 0-1.415 1.415l3.06 3.06-3.06 3.06a1 1 0 0 0 1.415 1.414l3.06-3.06 3.06 3.06a1 1 0 1 0 1.414-1.414l-3.06-3.06 3.06-3.06Z" clip-rule="evenodd"/><path fill="#111827" fill-rule="evenodd" d="M6.273 2.251a3.772 3.772 0 1 0 0 7.545 3.772 3.772 0 0 0 0-7.545ZM.501 6.023a5.772 5.772 0 1 1 6.772 5.687v9.08a5.774 5.774 0 0 1-1 11.46 5.772 5.772 0 0 1-1-11.46v-9.08A5.774 5.774 0 0 1 .501 6.022Zm5.772 16.681a3.772 3.772 0 1 0 0 7.545 3.772 3.772 0 0 0 0-7.545ZM26.727 9.796a1 1 0 0 1 1 1v9.995a5.774 5.774 0 0 1-1 11.458 5.772 5.772 0 0 1-1-11.458v-9.995a1 1 0 0 1 1-1Zm-3.773 16.68a3.772 3.772 0 1 1 7.545 0 3.772 3.772 0 0 1-7.545 0ZM31.206.547a1 1 0 0 1 0 1.414l-3.06 3.06 3.06 3.06a1 1 0 1 1-1.414 1.414l-3.06-3.06-3.06 3.06a1 1 0 0 1-1.415-1.414l3.06-3.06-3.06-3.06A1 1 0 0 1 23.672.545l3.06 3.06 3.06-3.06a1 1 0 0 1 1.414 0Z" clip-rule="evenodd"/></svg>