<svg xmlns="http://www.w3.org/2000/svg" width="33" height="32" fill="none" viewBox="0 0 33 32"><path fill="#111827" fill-rule="evenodd" d="M16.5 2c-7.732 0-14 6.269-14 14 0 2.659.742 5.144 2.029 7.261l1.035-.567v-6.006a1 1 0 0 1 .168-.555l3.99-5.984a1 1 0 0 1 1.326-.314l4.156 2.364 4.954-.67 3.512-4.254V3.974A13.93 13.93 0 0 0 16.5 2m0 30c-5.37 0-10.122-2.646-13.024-6.705a1 1 0 0 1-.195-.28A15.93 15.93 0 0 1 .5 16C.5 7.164 7.664 0 16.5 0s15.999 7.164 15.999 16-7.163 16-16 16m-9.455-7.838-1.35.74A13.97 13.97 0 0 0 16.5 30c2.927 0 5.643-.898 7.89-2.434l-1.009-1.008-4.427-1.234a1 1 0 0 1-.727-1.057l.384-4.066a1 1 0 0 1 .637-.84l6.598-2.532a1 1 0 0 1 1.065.227l2.994 2.993c.386-1.281.594-2.64.594-4.048 0-4.224-1.87-8.011-4.83-10.578v2.213a1 1 0 0 1-.228.636l-3.99 4.834a1 1 0 0 1-.637.354l-5.677.767a1 1 0 0 1-.628-.122l-3.64-2.07-3.305 4.957v6.295a1 1 0 0 1-.52.876m22.067-2.079-3.156-3.155-5.412 2.077-.247 2.616 3.874 1.08a1 1 0 0 1 .439.256l1.356 1.356a14 14 0 0 0 3.146-4.23" clip-rule="evenodd"/></svg>