<svg xmlns="http://www.w3.org/2000/svg" width="33" height="32" fill="none"><path fill="#111827" fill-rule="evenodd" d="M12.77 2.503C7.158 4.051 2.96 9.004 2.536 15h6.728c.106-3.742.799-7.149 1.898-9.715.455-1.064.992-2.011 1.608-2.782Zm7.46 0c.615.77 1.153 1.718 1.608 2.782 1.1 2.566 1.792 5.973 1.897 9.715h6.729C30.04 9.004 25.842 4.05 20.23 2.503ZM21.735 15c-.105-3.522-.76-6.651-1.735-8.928-.534-1.246-1.144-2.191-1.77-2.81-.622-.614-1.206-.858-1.73-.858s-1.108.244-1.73.858c-.626.619-1.236 1.564-1.77 2.81-.975 2.277-1.63 5.406-1.735 8.928h10.47Zm-10.47 2h10.47c-.105 3.522-.76 6.651-1.735 8.928-.534 1.246-1.144 2.191-1.77 2.81-.622.614-1.206.858-1.73.858s-1.108-.244-1.73-.858c-.626-.619-1.236-1.564-1.77-2.81-.975-2.277-1.63-5.406-1.735-8.928Zm-2 0H2.535c.423 5.996 4.622 10.95 10.234 12.497-.616-.77-1.153-1.718-1.608-2.782-1.1-2.566-1.792-5.973-1.898-9.715ZM20.23 29.497c.615-.77 1.153-1.718 1.608-2.782 1.1-2.566 1.792-5.973 1.897-9.715h6.729c-.423 5.996-4.622 10.95-10.234 12.497ZM16.5 0C7.664 0 .5 7.164.5 16s7.164 16 16 16 15.999-7.164 15.999-16-7.163-16-16-16Z" clip-rule="evenodd"/></svg>