<svg xmlns="http://www.w3.org/2000/svg" width="33" height="32" fill="none" viewBox="0 0 33 32"><path fill="#111827" fill-rule="evenodd" d="M12.77 2.503C7.158 4.051 2.96 9.004 2.536 15h6.728c.106-3.742.799-7.149 1.898-9.715.455-1.064.993-2.011 1.608-2.782ZM2.536 17c.423 5.996 4.622 10.95 10.234 12.497-.615-.77-1.153-1.718-1.608-2.782-1.1-2.566-1.792-5.973-1.898-9.715H2.536ZM20.23 29.497c5.612-1.548 9.81-6.501 10.234-12.497h-6.728c-.106 3.742-.799 7.149-1.898 9.715-.455 1.064-.992 2.011-1.608 2.782ZM32.5 15.99C32.493 7.16 25.332 0 16.5 0 7.664 0 .5 7.165.5 16s7.164 15.999 16 15.999c8.833 0 15.994-7.158 16-15.99v-.019ZM30.463 15h-6.728c-.106-3.742-.799-7.149-1.898-9.715-.455-1.064-.992-2.011-1.608-2.782C25.842 4.051 30.04 9.004 30.464 15ZM20 6.072c.975 2.277 1.63 5.406 1.735 8.928h-10.47c.105-3.522.76-6.651 1.735-8.928.534-1.246 1.144-2.191 1.77-2.81.622-.615 1.206-.858 1.73-.858s1.108.243 1.73.858c.626.619 1.236 1.564 1.77 2.81Zm-7 19.856c-.975-2.277-1.63-5.406-1.735-8.928h10.47c-.105 3.522-.76 6.651-1.735 8.928-.534 1.246-1.144 2.191-1.77 2.81-.622.614-1.206.858-1.73.858s-1.108-.244-1.73-.858c-.626-.619-1.236-1.564-1.77-2.81Z" clip-rule="evenodd"/></svg>