<svg xmlns="http://www.w3.org/2000/svg" width="33" height="32" fill="none" viewBox="0 0 33 32"><path fill="#111827" fill-rule="evenodd" d="M8.953 11.512a9.512 9.512 0 1 1 19.023 0 9.512 9.512 0 0 1-19.023 0ZM18.464.002C12.107 0 6.953 5.155 6.953 11.512c0 6.358 5.154 11.512 11.511 11.512 6.358 0 11.512-5.154 11.512-11.512 0-6.357-5.154-11.511-11.512-11.511ZM13.53 29.999a1 1 0 1 0 0 2h9.344a1 1 0 1 0 0-2H19.2v-2.686a15.515 15.515 0 0 0 9.842-4.082 1 1 0 1 0-1.354-1.472A13.515 13.515 0 0 1 8.592 2.662a1 1 0 0 0-1.471-1.354A15.515 15.515 0 0 0 17.2 27.27V30H13.53Z" clip-rule="evenodd"/></svg>