<svg xmlns="http://www.w3.org/2000/svg" width="33" height="32" fill="none" viewBox="0 0 33 32"><path fill="#111827" fill-rule="evenodd" d="M12.77 2.503A14.034 14.034 0 0 0 3.848 10h5.935c.328-1.757.796-3.354 1.379-4.715.455-1.064.992-2.011 1.608-2.782ZM9.48 12h-6.4a14.001 14.001 0 0 0-.58 4c0 1.39.203 2.732.58 4h6.4a34.26 34.26 0 0 1-.23-4c0-1.38.08-2.721.23-4Zm2.015 8a32.1 32.1 0 0 1-.245-4 32.1 32.1 0 0 1 .245-4h10.01a32.12 32.12 0 0 1 .245 4 32.12 32.12 0 0 1-.246 4H11.495Zm-1.712 2H3.848a14.034 14.034 0 0 0 8.922 7.497c-.616-.77-1.153-1.718-1.608-2.782-.583-1.36-1.052-2.957-1.379-4.715Zm10.447 7.497A14.034 14.034 0 0 0 29.152 22h-5.935c-.328 1.758-.796 3.354-1.379 4.715-.455 1.064-.993 2.011-1.608 2.782ZM21.18 22c-.298 1.48-.7 2.807-1.18 3.928-.534 1.246-1.144 2.191-1.77 2.81-.622.614-1.206.858-1.73.858s-1.108-.244-1.73-.858c-.626-.619-1.236-1.564-1.77-2.81-.48-1.121-.882-2.449-1.18-3.928h9.36Zm2.34-2h6.4a14 14 0 0 0 .579-4 14 14 0 0 0-.58-4h-6.4c.15 1.279.23 2.62.23 4s-.08 2.721-.23 4Zm-.303-10h5.935a14.034 14.034 0 0 0-8.922-7.497c.615.77 1.153 1.718 1.608 2.782.583 1.36 1.051 2.958 1.379 4.715Zm-2.037 0h-9.36c.298-1.48.7-2.807 1.18-3.928.534-1.246 1.144-2.191 1.77-2.81.622-.614 1.206-.858 1.73-.858s1.108.244 1.73.858c.626.619 1.236 1.564 1.77 2.81.48 1.121.882 2.449 1.18 3.928ZM16.5 0C7.664 0 .5 7.165.5 16s7.164 16 16 16 15.999-7.164 15.999-16-7.163-16-16-16Z" clip-rule="evenodd"/></svg>