<svg xmlns="http://www.w3.org/2000/svg" width="33" height="32" fill="none" viewBox="0 0 33 32"><path fill="#111827" fill-rule="evenodd" d="M16.5 2.23c-4.17 0-7.906 1.854-10.431 4.782l4.145 7.182A6.54 6.54 0 0 1 16.5 9.462h12.12A13.77 13.77 0 0 0 16.5 2.23M.73 16a15.7 15.7 0 0 1 3.275-9.622 1 1 0 0 1 .13-.166A15.74 15.74 0 0 1 16.5.23C25.21.23 32.27 7.29 32.27 16c0 8.708-7.06 15.768-15.77 15.768a16 16 0 0 1-2.252-.16C6.606 30.518.73 23.946.73 16M16.11 29.764q.195.005.39.005c7.606 0 13.77-6.164 13.77-13.769 0-1.59-.27-3.117-.765-4.538h-8.297A6.52 6.52 0 0 1 23.038 16a6.5 6.5 0 0 1-.872 3.27zm1.972-7.418-4.147 7.185C7.556 28.328 2.731 22.728 2.731 16c0-2.651.748-5.126 2.046-7.227l6.057 10.495q.017.03.036.059a6.535 6.535 0 0 0 7.21 3.018M16.5 11.462a4.538 4.538 0 1 0 0 9.076 4.538 4.538 0 0 0 0-9.076" clip-rule="evenodd"/></svg>