<svg xmlns="http://www.w3.org/2000/svg" width="33" height="32" fill="none" viewBox="0 0 33 32"><path fill="#111827" fill-rule="evenodd" d="M16.5 0a1 1 0 0 1 1 1v3.462a1 1 0 1 1-2 0V1.001a1 1 0 0 1 1-1Zm6.923 6.347a1 1 0 0 1 1 1v3.461a1 1 0 1 1-2 0V7.347a1 1 0 0 1 1-1ZM17.5 27.537a1 1 0 1 0-2 0V31a1 1 0 0 0 2 0v-3.461Zm-1-19.46a1 1 0 0 1 1 1v13.846a1 1 0 1 1-2 0V9.077a1 1 0 0 1 1-1Zm-5.923-.73a1 1 0 1 0-2 0v9.23a1 1 0 1 0 2 0v-9.23Zm12.846 7.076a1 1 0 0 1 1 1v9.23a1 1 0 1 1-2 0v-9.23a1 1 0 0 1 1-1Zm-19.768-.154a1 1 0 1 0-2 0v3.462a1 1 0 1 0 2 0v-3.462Zm5.922 5.923a1 1 0 0 1 1 1v3.461a1 1 0 1 1-2 0v-3.461a1 1 0 0 1 1-1Zm21.768-5.923a1 1 0 1 0-2 0v3.462a1 1 0 1 0 2 0v-3.462Z" clip-rule="evenodd"/></svg>