<svg xmlns="http://www.w3.org/2000/svg" width="33" height="32" fill="none"><path fill="#111827" fill-rule="evenodd" d="M16.5 2.23c-4.17 0-7.906 1.854-10.431 4.782l4.145 7.182A6.541 6.541 0 0 1 16.5 9.462h12.12A13.767 13.767 0 0 0 16.5 2.23ZM.73 16a15.7 15.7 0 0 1 3.275-9.622.993.993 0 0 1 .13-.166A15.74 15.74 0 0 1 16.5.23C25.21.23 32.27 7.29 32.27 16c0 8.708-7.06 15.768-15.77 15.768a15.914 15.914 0 0 1-2.252-.16C6.606 30.518.73 23.945.73 16ZM16.11 29.764c.13.003.26.005.39.005 7.606 0 13.77-6.164 13.77-13.769 0-1.59-.27-3.117-.765-4.538h-8.297A6.516 6.516 0 0 1 23.038 16a6.509 6.509 0 0 1-.872 3.27l-6.057 10.494Zm1.972-7.418-4.147 7.185C7.556 28.328 2.731 22.728 2.731 16c0-2.651.748-5.126 2.046-7.227l6.057 10.495c.011.02.024.04.036.059a6.535 6.535 0 0 0 7.21 3.018ZM16.5 11.462a4.538 4.538 0 1 0 0 9.076 4.538 4.538 0 0 0 0-9.076Z" clip-rule="evenodd"/></svg>