<svg xmlns="http://www.w3.org/2000/svg" width="32" height="32" fill="none" viewBox="0 0 32 32"><path fill="#111827" fill-rule="evenodd" d="M3.726 12.074c1.584-5.248 6.454-9.07 12.22-9.07 5.728 0 10.572 3.772 12.188 8.966a9.419 9.419 0 0 1-5.992 17.017H9.857q-.219.01-.438.01a9.419 9.419 0 0 1-5.693-16.923m12.22-7.188c-5.013 0-9.236 3.39-10.497 8.005l-.089.326-.276.195a7.536 7.536 0 0 0 4.705 13.693H22.21q.185.01.371.01a7.536 7.536 0 0 0 4.217-13.785l-.285-.192-.094-.332c-1.289-4.571-5.491-7.92-10.473-7.92m-2.867 6.011a9.45 9.45 0 0 1 3.685 2.785l.518.644-5.16 5.379-.6-1.187a2.355 2.355 0 1 0-2.292 3.408h4.118l-.005-.013 1.447.006h7.706a2.31 2.31 0 1 0 0-4.621h-1.062l.092-1.025a6.05 6.05 0 0 0-.685-3.398 5.64 5.64 0 0 0-4.862-2.78 5.6 5.6 0 0 0-2.9.802m3.1 12.905.002.003-7.016.003-.032-.002a4.238 4.238 0 1 1 3.33-7.176l2.285-2.381a7.5 7.5 0 0 0-3.798-2.052l-1.63-.336 1.128-1.224a7.5 7.5 0 0 1 5.531-2.424c2.771 0 5.19 1.499 6.495 3.726l.008.014.008.015c.489.907.905 2.12.94 3.552a4.194 4.194 0 0 1-.934 8.282z" clip-rule="evenodd"/></svg>