<svg xmlns="http://www.w3.org/2000/svg" width="33" height="32" fill="none"><path fill="#111827" fill-rule="evenodd" d="M17.076.001a1 1 0 0 0-1 1V7.8A9.653 9.653 0 0 0 .502 15.423a1 1 0 0 0 1 1h6.8A9.653 9.653 0 0 0 15.922 32a1 1 0 0 0 1-1V24.2a9.651 9.651 0 0 0 13.754-1.979 9.653 9.653 0 0 0 1.822-5.644 1 1 0 0 0-1-1h-6.8A9.652 9.652 0 0 0 17.076.001Zm5.186 17.576h8.171a7.655 7.655 0 0 1-13.51 3.847v-3.847h5.34Zm-.338-2a7.654 7.654 0 0 0-3.848-13.51V15.577h3.848Zm-7 .983v-.137h-3.848a7.654 7.654 0 0 0 3.847 13.51V16.56Zm-4.206-2.137H16.076v-3.847a7.653 7.653 0 0 0-13.51 3.847h8.152Z" clip-rule="evenodd"/></svg>