<svg xmlns="http://www.w3.org/2000/svg" width="32" height="33" fill="none"><path fill="#111827" fill-rule="evenodd" d="M1 5.876a1 1 0 0 0 0 2H31a1 1 0 1 0 0-2H1Zm0 6.25a1 1 0 1 0 0 2h12.5a1 1 0 1 0 0-2H1Zm17.5 0a1 1 0 1 0 0 2h12.499a1 1 0 1 0 0-2h-12.5ZM0 19.374a1 1 0 0 1 1-1h6.875a1 1 0 1 1 0 2H1.001a1 1 0 0 1-1-1Zm24.124-1a1 1 0 1 0 0 2H31a1 1 0 1 0 0-2h-6.875Zm-12.874 1a1 1 0 0 1 1-1h7.5a1 1 0 1 1 0 2h-7.5a1 1 0 0 1-1-1ZM1 24.625a1 1 0 1 0 0 2h3.75a1 1 0 1 0 0-2H1Zm7.75 1a1 1 0 0 1 1-1h3.75a1 1 0 1 1 0 2H9.75a1 1 0 0 1-1-1Zm9.75-1a1 1 0 1 0 0 2h3.75a1 1 0 1 0 0-2H18.5Zm7.75 1a1 1 0 0 1 1-1h3.749a1 1 0 1 1 0 2h-3.75a1 1 0 0 1-1-1Z" clip-rule="evenodd"/></svg>