<svg xmlns="http://www.w3.org/2000/svg" width="32" height="33" fill="none" viewBox="0 0 32 33"><path fill="#111827" fill-rule="evenodd" d="M1 5.876a1 1 0 0 0 0 2H31a1 1 0 1 0 0-2zm0 6.25a1 1 0 1 0 0 2h12.5a1 1 0 1 0 0-2zm17.5 0a1 1 0 1 0 0 2h12.499a1 1 0 1 0 0-2zM0 19.374a1 1 0 0 1 1-1h6.875a1 1 0 1 1 0 2H1.001a1 1 0 0 1-1-1m24.124-1a1 1 0 1 0 0 2H31a1 1 0 1 0 0-2zm-12.874 1a1 1 0 0 1 1-1h7.5a1 1 0 1 1 0 2h-7.5a1 1 0 0 1-1-1M1 24.625a1 1 0 1 0 0 2h3.75a1 1 0 1 0 0-2zm7.75 1a1 1 0 0 1 1-1h3.75a1 1 0 1 1 0 2H9.75a1 1 0 0 1-1-1m9.75-1a1 1 0 1 0 0 2h3.75a1 1 0 1 0 0-2zm7.75 1a1 1 0 0 1 1-1h3.749a1 1 0 1 1 0 2h-3.75a1 1 0 0 1-1-1" clip-rule="evenodd"/></svg>