<svg width="32" height="32" fill="none" xmlns="http://www.w3.org/2000/svg"><path d="M5.803 24.128a1.803 1.803 0 1 0 0-3.606 1.803 1.803 0 0 0 0 3.606ZM12.917 16.887a1.803 1.803 0 1 0 0-3.606 1.803 1.803 0 0 0 0 3.606ZM26.197 11.478a1.803 1.803 0 1 0 0-3.606 1.803 1.803 0 0 0 0 3.606ZM20.345 24.076a1.803 1.803 0 1 0 0-3.606 1.803 1.803 0 0 0 0 3.606ZM7.095 21.054l4.493-4.493m13.814-5.18-3.872 9.344m-7.27-4.275 4.603 4.604" stroke="#1C1B1F" stroke-width="2" stroke-linecap="round" stroke-linejoin="round"/></svg>