<svg xmlns="http://www.w3.org/2000/svg" width="33" height="32" fill="none" viewBox="0 0 33 32"><path fill="#111827" fill-rule="evenodd" d="M27.992 8.094a1.254 1.254 0 1 1 2.507 0 1.254 1.254 0 0 1-2.507 0Zm1.253-3.254a3.254 3.254 0 0 0-2.189 5.661l-4.232 10.21a3.256 3.256 0 0 0-2.586.35l-4.705-4.704a3.254 3.254 0 1 0-5.719.1l-4.56 4.561A3.254 3.254 0 1 0 6.66 22.44l4.628-4.628c.414.19.874.296 1.358.296a3.24 3.24 0 0 0 1.463-.346l4.82 4.82a3.254 3.254 0 1 0 5.583-.721l4.367-10.534a3.254 3.254 0 1 0 .366-6.487Zm-16.599 8.761a1.254 1.254 0 1 0 0 2.507 1.254 1.254 0 0 0 0-2.507Zm-8.892 9.052a1.254 1.254 0 1 0 0 2.507 1.254 1.254 0 0 0 0-2.507Zm18.177-.066a1.254 1.254 0 1 0 0 2.507 1.254 1.254 0 0 0 0-2.507Z" clip-rule="evenodd"/></svg>