<svg xmlns="http://www.w3.org/2000/svg" width="33" height="17" fill="none" viewBox="0 0 33 17"><path fill="#000" d="M25.378 5.09c-.423 0-.82.163-1.118.46l-1.203 1.2a1.58 1.58 0 0 0-.457 1.233l.008.077c.043.353.198.672.45.922.172.173.364.282.595.358q.02.105.019.211c0 .318-.124.616-.348.84l-.074.074a2.6 2.6 0 0 1-1.04-.639 2.74 2.74 0 0 1-.767-1.462l-.014-.077-.06.05q-.063.049-.118.105l-1.203 1.2a1.577 1.577 0 0 0 1.12 2.692c.405 0 .81-.154 1.117-.462l1.203-1.2a1.577 1.577 0 0 0-.582-2.597 1.296 1.296 0 0 1 .368-1.138c.403.137.76.36 1.061.66.401.4.666.906.768 1.463l.014.077.061-.05q.061-.05.118-.106l1.203-1.2a1.576 1.576 0 0 0-1.12-2.692z"/><path fill="#000" d="M24.734.702H8.997C4.513.702.865 4.34.865 8.812s3.648 8.11 8.132 8.11h15.737c4.483 0 8.131-3.638 8.131-8.11S29.217.702 24.733.702m-7.762 12.715c-.26.053-.552.063-.75-.144-.073.168-.244.08-.376.058l-.034.098c-.438.03-.767-.417-.976-.753-.414-.224-.885-.36-1.309-.595-.024.386.06.865-.308 1.114-.019.742 1.125.087 1.23.64-.081.01-.171-.013-.236.05-.299.29-.641-.22-.985-.01-.462.233-.508.423-1.08.47-.032-.047-.019-.079.008-.108.161-.187.173-.406.447-.486-.283-.045-.52.111-.758.234-.31.127-.307-.285-.783.022-.053-.043-.028-.082.002-.115.121-.147.28-.17.46-.161-.884-.492-1.3.6-1.708.057-.123.033-.17.143-.247.22-.066-.072-.016-.16-.013-.246-.08-.038-.18-.056-.157-.183-.156-.053-.265.04-.38.127-.106-.08.07-.2.102-.283.094-.163.307-.034.415-.15.307-.175.736.108 1.087.06.271.034.606-.243.47-.52-.29-.369-.238-.851-.244-1.292-.036-.257-.655-.585-.834-.862-.221-.25-.394-.54-.566-.824-.622-1.201-.426-2.745-1.21-3.86-.354.196-.816.103-1.122-.159-.165.15-.173.347-.185.555-.397-.395-.347-1.14-.03-1.58.129-.174.283-.317.456-.442.039-.029.052-.056.05-.1.314-1.405 2.45-1.134 3.124-.139.49.612.638 1.423 1.193 1.991.747.816 1.599 1.534 2.288 2.403.653.794 1.119 1.725 1.525 2.663.166.312.168.694.413.96.121.16.713.597.585.752.074.16.627.382.435.538m10.37-4.791-1.202 1.2c-.32.319-.716.557-1.146.688l-.021.006-.009.021c-.14.368-.352.697-.631.975l-1.203 1.2a2.76 2.76 0 0 1-1.965.81A2.77 2.77 0 0 1 19.2 8.795l1.202-1.2a2.74 2.74 0 0 1 1.144-.685l.022-.007.008-.021c.14-.368.353-.697.633-.978l1.203-1.2a2.76 2.76 0 0 1 1.966-.81c.743 0 1.44.287 1.965.81.524.524.813 1.22.813 1.96 0 .742-.288 1.439-.813 1.96z"/><path fill="#000" d="M12.08 11.965c-.106.41-.14 1.109-.675 1.129-.044.237.164.326.354.25.188-.086.277.068.34.221.291.042.72-.096.737-.44-.434-.248-.568-.722-.756-1.16"/></svg>