<svg xmlns="http://www.w3.org/2000/svg" width="33" height="33" fill="none"><path fill="#111827" fill-rule="evenodd" d="M13.11 4.232a8.186 8.186 0 0 0-8.129 7.23h23.037a8.186 8.186 0 0 0-8.129-7.23H13.11Zm-9.138 9.23a1.046 1.046 0 0 1-1.046-1.046c0-5.625 4.56-10.184 10.184-10.184h6.78c5.624 0 10.183 4.56 10.183 10.184 0 .578-.468 1.046-1.046 1.046H3.972Zm-2.471 2.615a1 1 0 1 0 0 2h29.998a1 1 0 1 0 0-2H1.5Zm29.885 6.088a1 1 0 1 0-.818-1.825l-5.271 2.363-5.424-2.35a1.1 1.1 0 0 0-.888.005l-5.24 2.349-5.69-2.362a1.1 1.1 0 0 0-.876.015l-5.57 2.525a1 1 0 0 0 .827 1.821l1.526-.692v.754a6 6 0 0 0 6 6h13.076a6 6 0 0 0 6-6v-1.55l2.348-1.053ZM5.962 24.768v-1.66l1.687-.766 5.69 2.36a1.1 1.1 0 0 0 .87-.011l5.232-2.346 5.425 2.35a1.1 1.1 0 0 0 .887-.005l1.285-.576v.654a4 4 0 0 1-4 4H9.962a4 4 0 0 1-4-4Z" clip-rule="evenodd"/></svg>