<svg width="32" height="33" fill="none" xmlns="http://www.w3.org/2000/svg"><path d="M16 13V8a3 3 0 1 0-6 0v5a3 3 0 1 0 6 0Z" stroke="#1C1B1F" stroke-width="2" stroke-linecap="round"/><path d="M19 17h6a3 3 0 1 0 0-6h-6a3 3 0 1 0 0 6ZM10 13v-2a3 3 0 0 0-6 0v2a3 3 0 1 0 6 0ZM22 10.97V8a3 3 0 1 0-6 0v2.97c0 .017.013.03.03.03h5.94a.03.03 0 0 0 .03-.03ZM16 21.81A4.81 4.81 0 0 1 20.81 17" stroke="#1C1B1F" stroke-width="2" stroke-linecap="round"/><path d="M28 13.972C28 21.843 23.342 28 16 28 8.145 28 4 21.076 4 13.205" stroke="#1C1B1F" stroke-width="2" stroke-linecap="round"/></svg>