<svg xmlns="http://www.w3.org/2000/svg" width="33" height="33" fill="none" viewBox="0 0 33 33"><path fill="#111827" fill-rule="evenodd" d="M12.75.5A4.75 4.75 0 0 0 8 5.25v3.875H6a5.5 5.5 0 0 0-5.5 5.5v1.5c0 .035.003.07.006.105.096 4.212 1.45 8.205 4.06 11.194C7.288 30.544 11.32 32.5 16.5 32.5c4.837 0 8.853-1.733 11.66-4.628 2.611-2.696 4.126-6.349 4.318-10.417.014-.066.021-.134.021-.204v-9a4.75 4.75 0 0 0-7.57-3.821 4.751 4.751 0 0 0-8.43-2.094A4.742 4.742 0 0 0 12.75.5Zm11.413 13.237a1 1 0 0 1-.15.013h-.014a1 1 0 0 1-1-1v-7.5a2.75 2.75 0 1 0-5.5 0v7.5a1 1 0 1 1-2 0v-7.5a2.75 2.75 0 1 0-5.499 0v10.5a1 1 0 0 1-2 0v-4.625H6a3.5 3.5 0 0 0-3.5 3.5v1.125c0 3.991 1.235 7.681 3.572 10.359 2.322 2.66 5.79 4.39 10.428 4.39 4.34 0 7.823-1.544 10.223-4.02 2.404-2.481 3.776-5.957 3.776-9.912V8.25a2.75 2.75 0 1 0-5.5 0v4.5a1 1 0 0 1-.836.987Z" clip-rule="evenodd"/></svg>