<svg xmlns="http://www.w3.org/2000/svg" width="33" height="33" fill="none" viewBox="0 0 33 33"><path fill="#111827" fill-rule="evenodd" d="m16.269 7.568 1.25.625q-.13.083-.243.193l-5.183 5.1a1.5 1.5 0 0 0-.009 2.13l.871.871a4 4 0 0 0 5.657 0l.901-.9 4.592 3.312-3.687 3.876-7.542-1.877-6.536-5.092 3.558-6.162zm.71-1.88 4.537 2.268h1.963l3.067-1.771a1.5 1.5 0 0 1 2.049.549l3.703 6.415a1.5 1.5 0 0 1-.549 2.049l-3.022 1.745-.021.022-7.04 7.4a1.5 1.5 0 0 1-1.449.42l-7.927-1.972a1.5 1.5 0 0 1-.56-.272L5.326 17.55l-.86-.497-3.214-1.856A1.5 1.5 0 0 1 .7 13.15l3.704-6.415a1.5 1.5 0 0 1 2.05-.549l2.742 1.583 6.647-2.165a1.5 1.5 0 0 1 1.136.084m1.554 4.268h4.75l3.524 6.104-1.31 1.377-5.159-3.722a1.5 1.5 0 0 0-1.938.156l-1.202 1.202a2 2 0 0 1-2.828 0l-.515-.515zm-15.85 3.76 3.204-5.549 1.916 1.106-3.204 5.548zm27.633 0-3.203-5.549-1.915 1.106L28.4 14.82zM7.803 21.864a1 1 0 1 0-1.301 1.519l3.15 2.7c.18.154.393.263.622.319l4.266 1.04a1 1 0 0 0 .473-1.942l-4.15-1.013z" clip-rule="evenodd"/></svg>