<svg xmlns="http://www.w3.org/2000/svg" width="33" height="33" fill="none" viewBox="0 0 33 33"><path fill="#111827" fill-rule="evenodd" d="M9.337 4.582a4.081 4.081 0 0 1 8.163 0v4.076a4.083 4.083 0 0 1 5.95 2.21 4.081 4.081 0 0 1 6.375 3.377v5.545c0 .065-.006.129-.018.19-.162 3.377-1.422 6.416-3.598 8.662-2.342 2.416-5.69 3.857-9.709 3.857-4.305 0-7.667-1.626-9.941-4.231-2.175-2.491-3.299-5.812-3.38-9.305a1.013 1.013 0 0 1-.004-.097v-1.233a4.698 4.698 0 0 1 4.697-4.697h1.465V4.582Zm0 10.354H7.872a2.698 2.698 0 0 0-2.697 2.697v.925c0 3.244 1.003 6.232 2.89 8.395 1.872 2.144 4.673 3.546 8.435 3.546 3.522 0 6.337-1.252 8.272-3.25 1.94-2.002 3.053-4.811 3.053-8.02v-4.985a2.081 2.081 0 0 0-4.162 0v1.849a.995.995 0 0 1-.423.816 1 1 0 0 1-1.578-.816V12.17a2.081 2.081 0 0 0-4.162-.02v3.943a1 1 0 1 1-2 0V4.583a2.081 2.081 0 1 0-4.163 0v13.974a1 1 0 1 1-2 0v-3.621Z" clip-rule="evenodd"/></svg>