<svg xmlns="http://www.w3.org/2000/svg" width="33" height="33" fill="none" viewBox="0 0 33 33"><path fill="#111827" fill-rule="evenodd" d="M26.098 3.38a6.45 6.45 0 0 0-3.227-.865 1 1 0 0 1 0-2 8.45 8.45 0 0 1 7.322 4.229 1 1 0 1 1-1.732 1 6.45 6.45 0 0 0-2.363-2.364M4.016 25.454a1 1 0 0 1 1.366.368 15 15 0 0 0 4.449 4.842 1 1 0 1 1-1.14 1.643 17 17 0 0 1-5.042-5.487 1 1 0 0 1 .367-1.366M6.783 4.067a3.55 3.55 0 0 1 4.377.659 3.55 3.55 0 0 1 6.067.134l4.784 8.286-.105-2.16a3.55 3.55 0 0 1 7.088-.373l.001.019.264 7.796v.002a11.12 11.12 0 0 1-5.576 9.981c-5.307 3.064-12.084 1.293-15.13-3.983l-5.404-9.36a3.55 3.55 0 0 1 2.818-5.316l-.483-.837a3.55 3.55 0 0 1 1.3-4.848m9.836 11.937a.997.997 0 0 1-1.366-.366L9.9 6.366a1.55 1.55 0 0 0-2.684 1.55l2.069 3.582.012.02 3.273 5.67a1 1 0 0 1-1.732 1l-3.281-5.683a1.55 1.55 0 0 0-2.676 1.563l5.405 9.36c2.484 4.304 8.031 5.772 12.397 3.25a9.12 9.12 0 0 0 4.577-8.184l-.263-7.784a1.55 1.55 0 0 0-3.094.171v.004l.168 3.428c.042.866-.496 1.474-1.162 1.692-1.604 1.17-2.01 2.942-1.38 4.031a1 1 0 0 1-1.733 1c-1.117-1.934-.486-4.25 1.067-5.878L15.495 5.86a1.55 1.55 0 1 0-2.683 1.55l4.173 7.228a1 1 0 0 1-.366 1.366" clip-rule="evenodd"/></svg>