<svg xmlns="http://www.w3.org/2000/svg" width="33" height="33" fill="none" viewBox="0 0 33 33"><path fill="#111827" fill-rule="evenodd" d="M23.333.535a1 1 0 0 1 .707 1.225l-.529 1.973a1 1 0 0 1-1.932-.517l.53-1.974a1 1 0 0 1 1.224-.707Zm4.173 1.946a1 1 0 0 1 .245 1.393L26.58 5.547A1 1 0 1 1 24.94 4.4l1.172-1.673a1 1 0 0 1 1.393-.246Zm3.01 4.649A1 1 0 0 0 29.37 5.49l-1.674 1.172a1 1 0 0 0 1.148 1.638l1.673-1.171ZM8.507 11.477a1.27 1.27 0 0 0-2.2 1.27l4.767 8.257a.999.999 0 1 1-1.732 1l-2.914-5.048a1.27 1.27 0 1 0-2.2 1.27l4.812 8.335c2.182 3.779 7.054 5.069 10.89 2.854a8.013 8.013 0 0 0 4.02-7.188v-.001l-.196-5.791a.864.864 0 0 1-.002-.04l-.038-1.122a1.27 1.27 0 0 0-2.534.165v.004l.171 3.494c.078 1.583-2.024 2.202-2.817.83l-5.045-8.738a1.27 1.27 0 0 0-2.212 1.247l3.729 6.459a.998.998 0 0 1-.366 1.366 1 1 0 0 1-1.366-.366l-3.716-6.437-.021-.036-1.03-1.784Zm17.205 3.696-.196-5.788v-.019c-.09-1.7-1.34-3.17-3.24-3.07a3.27 3.27 0 0 0-3.094 3.437v.002l.073 1.47-4.034-6.986a3.27 3.27 0 0 0-5.515-.235 3.294 3.294 0 0 0-5.19 3.94l.017.032.02.03.953 1.466a3.27 3.27 0 0 0-.93 4.295l.345.599a3.27 3.27 0 0 0-2.425 4.88l4.812 8.335c2.743 4.751 8.845 6.344 13.621 3.587a10.014 10.014 0 0 0 5.02-8.986v-.002l-.235-6.942v-.02l-.002-.025Zm-2.098-2.858a3.27 3.27 0 0 0-2.303-.01l-.131-2.672v-.004a1.27 1.27 0 0 1 1.2-1.335c.602-.032 1.092.372 1.137 1.17l.097 2.851Zm-4.347 2.294a1.486 1.486 0 0 1-.733-.653L13.489 5.22a1.27 1.27 0 0 0-2.2 1.27l.004.005 1.04 1.831c.013.022.025.045.035.067a3.269 3.269 0 0 1 2.853 1.636l4.034 6.986-.072-1.47v-.003a3.272 3.272 0 0 1 .084-.932ZM9.71 9.789a3.277 3.277 0 0 0-2.216-.946 1.014 1.014 0 0 0-.04-.066L6.252 6.93a1.293 1.293 0 0 1 2.26-1.253l1.849 3.42c-.255.2-.473.434-.652.69Z" clip-rule="evenodd"/></svg>