<svg xmlns="http://www.w3.org/2000/svg" width="33" height="33" fill="none" viewBox="0 0 33 33"><path fill="#111827" fill-rule="evenodd" d="M17.73 3.554a3.779 3.779 0 0 0-7.486.724v1.2A3.778 3.778 0 0 0 4.69 8.812v11.777c0 6.587 5.39 11.91 12.017 11.91 2.348 0 4.576-.852 6.362-2.006 1.775-1.147 3.211-2.657 3.919-4.093.697-1.413 1.01-3.519 1.161-5.15a37 37 0 0 0 .157-3.056l.003-.459c.007-.717.014-1.457-.12-2.073a3 3 0 0 0-.535-1.198c-.285-.376-.66-.668-1.11-.897a3.77 3.77 0 0 0-3.188-.11V6.85a3.778 3.778 0 0 0-5.625-3.296m-1.901 11.52a1 1 0 0 1-.03-.24V4.277a1.778 1.778 0 1 0-3.555 0v10.556a1 1 0 1 1-2 0V8.795a1.778 1.778 0 0 0-3.555.016v11.777c0 5.464 4.475 9.91 10.017 9.91 1.873 0 3.73-.686 5.276-1.686 1.559-1.007 2.704-2.267 3.211-3.297.517-1.049.812-2.818.964-4.451.147-1.578.148-2.863.148-2.871q0-.318.003-.581c.004-.698.007-1.149-.075-1.524a1 1 0 0 0-.173-.416c-.07-.093-.19-.204-.424-.323a1.78 1.78 0 0 0-2.281.592v.688a1 1 0 0 1-2 0V6.85a1.778 1.778 0 0 0-3.556 0v7.984a1 1 0 0 1-1.97.24m.67 2.658c-3.523 0-5.614 2.677-6.342 3.802l-.005.007a1.99 1.99 0 0 0 0 2.14l.005.007c.728 1.124 2.82 3.802 6.342 3.802 3.524 0 5.615-2.678 6.343-3.802l.005-.007a1.99 1.99 0 0 0 0-2.14l-.005-.007c-.728-1.125-2.82-3.802-6.343-3.802m0 7.758c-2.432 0-4-1.868-4.657-2.88.658-1.01 2.225-2.878 4.657-2.878s4 1.867 4.658 2.879c-.658 1.011-2.225 2.879-4.658 2.879m1.455-2.88a1.455 1.455 0 1 1-2.909 0 1.455 1.455 0 0 1 2.91 0" clip-rule="evenodd"/></svg>