<svg xmlns="http://www.w3.org/2000/svg" width="33" height="33" fill="none"><path fill="#111827" fill-rule="evenodd" d="M16.082 15.944a1 1 0 0 1-2 0V4.278a1.778 1.778 0 0 0-3.555 0v11.666a.997.997 0 0 1-1 1 1 1 0 0 1-1-1V8.813a1.778 1.778 0 0 0-3.555 0v11.777c0 5.464 4.475 9.91 10.016 9.91a10.03 10.03 0 0 0 8.857-5.276l3.993-7.49a1.778 1.778 0 0 0-3.172-1.606l-.002.004-2.192 4.267c-.48.934-1.582 1.017-2.262.501-2.007.332-3.275 1.736-3.275 3.1a1 1 0 1 1-2 0c0-2.57 2.119-4.482 4.702-5.02V6.849a1.778 1.778 0 0 0-3.555-.016v9.111ZM8.527 4.278v1.2a3.778 3.778 0 0 0-5.555 3.334v11.777c0 6.587 5.389 11.91 12.016 11.91a12.03 12.03 0 0 0 10.62-6.333l.001-.001 3.999-7.5.008-.018a3.777 3.777 0 0 0-6.732-3.429v.002l-1.247 2.425V6.85a3.778 3.778 0 0 0-5.624-3.296 3.779 3.779 0 0 0-7.486.724Z" clip-rule="evenodd"/></svg>