<svg xmlns="http://www.w3.org/2000/svg" width="33" height="33" fill="none" viewBox="0 0 33 33"><path fill="#111827" fill-rule="evenodd" d="M18.755 16.491a.999.999 0 0 1-1.837-.546V6.85a1.778 1.778 0 1 0-3.555 0v12.862c0 1.574-2.115 2.086-2.835.686L8.336 16.13l-.002-.004a1.778 1.778 0 0 0-3.172 1.606l3.993 7.49a10.03 10.03 0 0 0 8.857 5.276c5.54 0 10.016-4.446 10.016-9.91V8.812a1.778 1.778 0 0 0-3.555-.02v7.152a1 1 0 1 1-2 0V4.279a1.778 1.778 0 1 0-3.555 0v11.666c0 .202-.06.39-.163.547Zm5.718-11.013a3.778 3.778 0 0 1 5.555 3.334v11.777c0 6.587-5.389 11.91-12.016 11.91a12.03 12.03 0 0 1-10.62-6.333l-.001-.001-3.999-7.5-.008-.018a3.778 3.778 0 0 1 6.732-3.429v.002l1.247 2.425V6.85a3.778 3.778 0 0 1 5.624-3.296 3.779 3.779 0 0 1 7.486.724v1.2Z" clip-rule="evenodd"/></svg>