<svg xmlns="http://www.w3.org/2000/svg" width="33" height="33" fill="none" viewBox="0 0 33 33"><path fill="#111827" fill-rule="evenodd" d="M13.09 5.523a4.821 4.821 0 0 1 8.173 2.662h-9.526a4.82 4.82 0 0 1 1.354-2.662m-3.412 4.662v3.404a1 1 0 1 0 2 0v-3.404h9.643v3.404a1 1 0 1 0 2 0v-3.404h4.955l2.104 18.704H2.62l2.103-18.704zm.041-2a6.821 6.821 0 0 1 13.561 0h5.89a1 1 0 0 1 .994.888l2.329 20.704a1 1 0 0 1-.994 1.112H1.5a1 1 0 0 1-.994-1.112L2.836 9.073a1 1 0 0 1 .993-.888z" clip-rule="evenodd"/></svg>