<svg xmlns="http://www.w3.org/2000/svg" width="33" height="32" fill="none" viewBox="0 0 33 32"><path fill="#111827" fill-rule="evenodd" d="M.5 2.364a1 1 0 0 1 1-1h30a1 1 0 0 1 1 1v10.909a1 1 0 0 1-1 1h-30a1 1 0 0 1-1-1zm2 1v8.909h28V3.364zM27.409 7.82a2.045 2.045 0 1 1-4.09 0 2.045 2.045 0 0 1 4.09 0m0 16.362a2.045 2.045 0 1 1-4.09 0 2.045 2.045 0 0 1 4.09 0M1.501 17.727a1 1 0 0 0-1 1v10.909a1 1 0 0 0 1 1h29.998a1 1 0 0 0 1-1V18.727a1 1 0 0 0-1-1zm1 10.909v-8.909h27.998v8.909z" clip-rule="evenodd"/></svg>