<svg xmlns="http://www.w3.org/2000/svg" width="33" height="32" fill="none" viewBox="0 0 33 32"><path fill="#111827" fill-rule="evenodd" d="M24.484 3.345a1 1 0 1 0-1.968-.357l-1.335 7.345h-7.3l1.27-6.988a1 1 0 0 0-1.968-.357l-1.336 7.345h-7.65a1 1 0 1 0 0 2h7.287l-1.334 7.334H2.5a1 1 0 1 0 0 2h7.287l-1.27 6.988a1 1 0 0 0 1.967.357l1.335-7.345h7.3l-1.27 6.988a1 1 0 1 0 1.968.357l1.336-7.345h7.65a1 1 0 0 0 0-2h-7.287l1.334-7.334h7.65a1 1 0 1 0 0-2h-7.287l1.27-6.988Zm-5 16.322 1.333-7.334h-7.3l-1.334 7.334h7.3Z" clip-rule="evenodd"/></svg>