<svg xmlns="http://www.w3.org/2000/svg" width="33" height="33" fill="none" viewBox="0 0 33 33"><path fill="#111827" fill-rule="evenodd" d="M22.151 1.588A14.698 14.698 0 0 0 16.5.5 14.699 14.699 0 0 0 1.697 15.2v10.42a1 1 0 0 0 1 1h6.827a1 1 0 0 0 1-1V15.2a1 1 0 0 0-1-1H3.737A12.699 12.699 0 0 1 16.492 2.5h.015A12.699 12.699 0 0 1 29.264 14.2h-5.996a1 1 0 0 0-1 1v10.42a1 1 0 0 0 1 1h6.036v1.879a2 2 0 0 1-2 2h-9.817a1 1 0 1 0 0 2h9.817a4 4 0 0 0 4-4V15.2A14.698 14.698 0 0 0 22.15 1.588ZM3.697 23.19V16.2h4.827v8.42H3.697v-1.43Zm20.57-6.991h5.036v8.42h-5.036V16.2Z" clip-rule="evenodd"/></svg>