<svg xmlns="http://www.w3.org/2000/svg" width="33" height="32" fill="none" viewBox="0 0 33 32"><path fill="#111827" d="M25.391 25.736c.941 1.343 1.283 2.726.766 3.088s-1.7-.433-2.64-1.777a6.7 6.7 0 0 1-.78-1.446 11.46 11.46 0 0 1-5.212 1.871c.109.455.174.985.174 1.559 0 1.64-.512 2.969-1.144 2.969-.633 0-1.144-1.329-1.144-2.969 0-.561.062-1.079.167-1.527a11.45 11.45 0 0 1-5.273-1.716c-.17.402-.4.83-.7 1.26-.941 1.343-2.123 2.138-2.64 1.776-.518-.363-.175-1.745.766-3.088.315-.45.657-.832.993-1.136a11.4 11.4 0 0 1-1.75-1.978l1.503-1.045a9.63 9.63 0 0 0 7.897 4.128 9.63 9.63 0 0 0 7.909-4.141l1.504 1.042c-.465.671-.999 1.28-1.582 1.826.396.323.809.766 1.186 1.304M8.85 7.516a11.5 11.5 0 0 0-2.094 2.416l1.537.994a9.59 9.59 0 0 1 8.083-4.402 9.55 9.55 0 0 1 8.222 4.626l1.564-.95a11.6 11.6 0 0 0-2.085-2.534c.433-.327.897-.806 1.314-1.402.941-1.343 1.283-2.726.766-3.088s-1.7.433-2.64 1.777a6.4 6.4 0 0 0-.838 1.62 11.35 11.35 0 0 0-5.214-1.823c.145-.498.234-1.11.234-1.782C17.7 1.328 17.187 0 16.555 0c-.633 0-1.144 1.329-1.144 2.969 0 .656.084 1.258.223 1.749-1.89.12-3.686.701-5.254 1.666a6.7 6.7 0 0 0-.775-1.431c-.94-1.344-2.122-2.138-2.639-1.775-.517.362-.175 1.744.766 3.088.354.505.743.933 1.118 1.25m-7.723 12.9H3.33V17.11h2.485v3.306h2.203v-8.328H5.816v3.1H3.33v-3.1H1.127zm8.737-8.327v8.326h5.51v-1.844h-3.307v-1.487h2.717V15.24h-2.717v-1.307h3.178v-1.845zm7.123 0v8.326h5.355v-1.844H19.19v-6.482zm6.79 0v8.326H25.8v-2.46q0-.319-.032-.704a69 69 0 0 0-.07-.787 22 22 0 0 0-.09-.787l-.09-.692h.05l.666 1.948 1.154 2.806h.82l1.152-2.806.691-1.948h.05q-.038.308-.089.693-.052.384-.09.787-.038.404-.07.788-.032.383-.032.704v2.46h2.053v-8.328h-2.28l-1.256 3.46-.46 1.357h-.052l-.46-1.358-1.308-3.46z"/></svg>