<svg xmlns="http://www.w3.org/2000/svg" width="33" height="32" fill="none" viewBox="0 0 33 32"><path fill="#111827" fill-rule="evenodd" d="M4.997-.002a3 3 0 0 0-3 3v26.004a3 3 0 0 0 3 3h23.006a3 3 0 0 0 3-3V2.998a3 3 0 0 0-3-3H4.997Zm-1 3a1 1 0 0 1 1-1h23.006a1 1 0 0 1 1 1v26.004a1 1 0 0 1-1 1H4.997a1 1 0 0 1-1-1V2.998Zm17.006 7.375H18C19.181 8.824 19.92 7.2 20.254 5.5h2.998c-.202 1.703-.893 3.338-2.25 4.874ZM18.377 13c1.854 0 2.963.729 3.57 1.34 1.289 1.304 1.308 2.969 1.304 3.161v9.001h-2.998V17.54c-.016-.7-.353-1.539-1.876-1.539-3.045 0-6.455 1.525-6.507 1.548l-2.121.961V5.5h3.001v8.515c1.498-.485 3.593-1.015 5.627-1.015ZM9.749 26.5l3.378-3.001-3.378-3.001V26.5Z" clip-rule="evenodd"/></svg>