<svg xmlns="http://www.w3.org/2000/svg" width="33" height="32" fill="none" viewBox="0 0 33 32"><path fill="#111827" fill-rule="evenodd" d="M16.5 2c-7.732 0-14 6.268-14 14 0 5.078 2.704 9.524 6.75 11.978V18.5a1 1 0 0 1 1-1h1.5V11a1 1 0 0 1 .553-.894l7.5-3.75a1 1 0 0 1 1.447.894V17.5h1.5a1 1 0 0 1 1 1v9.478c4.046-2.454 6.749-6.9 6.749-11.978 0-7.732-6.268-14-14-14m2.75 15.5V8.869l-5.5 2.75v5.88zM9.859 30.56l-.05-.023C4.314 28.004.5 22.447.5 16 .5 7.164 7.664 0 16.5 0s15.999 7.164 15.999 16c0 6.447-3.814 12.004-9.308 14.537l-.027.013-.023.01a15.9 15.9 0 0 1-6.641 1.439 15.9 15.9 0 0 1-6.641-1.44m6.64-.561a14 14 0 0 0 5.25-1.017V19.5H11.25v9.481A14 14 0 0 0 16.5 30" clip-rule="evenodd"/></svg>