<svg xmlns="http://www.w3.org/2000/svg" width="33" height="33" fill="none" viewBox="0 0 33 33"><path stroke="#111827" stroke-width="2" d="M8.283 26.492c0-1.013.82-1.834 1.834-1.834h14.246a1.834 1.834 0 1 1 0 3.668H10.117a1.834 1.834 0 0 1-1.834-1.834Z"/><path stroke="#111827" stroke-linejoin="round" stroke-width="2" d="M10.683 28.326h13.114l2.4 3.176H8.284l2.4-3.176ZM6.802 12.246c1.223-2.954 4.645-6.28 6.202-7.574-.757-.413-2.028-1.528-1.054-2.685s3.151.006 4.118.732c8.404.597 10.25 11.102 10.124 16.28-.048.617-.41 2.068-1.477 2.93-1.067.862-1.239 2.178-1.191 2.729H10.23c-.477-.98-.686-3.742 2.29-6.955 2.977-3.214 3.25-4.628 3.015-4.933-1.423.988-2.957.935-3.546.785-.611 1.453-1.958 2.437-2.555 2.747-1.614-.674-2.427-2.985-2.632-4.056Z"/></svg>