<svg xmlns="http://www.w3.org/2000/svg" width="33" height="32" fill="none" viewBox="0 0 33 32"><path fill="#111827" fill-rule="evenodd" d="M17 6.948V3.66c.365-.033.736-.05 1.111-.05C24.953 3.612 30.5 9.159 30.5 16S24.953 28.389 18.11 28.389a12.38 12.38 0 0 1-3.805-.595l3.375-6.564a7.695 7.695 0 0 0 6.75-7.635 1 1 0 1 0-2 0 5.694 5.694 0 0 1-4.81 5.625 1 1 0 0 0-.278-.103c-2.434-.504-4.35-.785-6.21-.793-1.705-.007-3.327.214-5.228.667l-2.808-2.809 13.432-8.386a1 1 0 0 0 .47-.848Zm-6.986 18.429a12.41 12.41 0 0 0 2.439 1.647l3.19-6.203c-1.756-.326-3.17-.49-4.518-.497-1.654-.007-3.249.226-5.283.742a1 1 0 0 1-.953-.263L.793 16.707a1 1 0 0 1 .178-1.555l14.028-8.759V2.777a1 1 0 0 1 .844-.987c.74-.118 1.497-.178 2.268-.178C26.058 1.612 32.5 8.054 32.5 16c0 7.947-6.442 14.389-14.389 14.389a14.348 14.348 0 0 1-9.405-3.5 1 1 0 1 1 1.308-1.512Zm6.547-11.61a1.673 1.673 0 1 0 0-3.345 1.673 1.673 0 0 0 0 3.346Z" clip-rule="evenodd"/></svg>