<svg xmlns="http://www.w3.org/2000/svg" width="33" height="33" fill="none" viewBox="0 0 33 33"><path fill="#111827" fill-rule="evenodd" d="M6.187.5a1 1 0 0 0-1 1V6a11 11 0 0 0 4.811 9.094l2.068 1.407-2.068 1.407a11 11 0 0 0-4.81 9.094v4.498a1 1 0 0 0 1 1h20.625a1 1 0 0 0 1-1v-4.498a11 11 0 0 0-4.811-9.094L20.934 16.5l2.068-1.407a11 11 0 0 0 4.81-9.094V1.5a1 1 0 0 0-1-1zm12.23 16.674q.09.099.2.168l3.26 2.219a9 9 0 0 1 3.505 4.688H7.618a9 9 0 0 1 3.506-4.688l3.26-2.219a1 1 0 0 0 .352-.392 1 1 0 0 0 0-.9 1 1 0 0 0-.353-.392l-3.26-2.219A9 9 0 0 1 7.188 6V2.5h18.626v3.498a9 9 0 0 1-3.937 7.44l-3.26 2.219a1 1 0 0 0-.199 1.516M7.22 26.25H25.78q.032.374.032.752v3.498H7.186v-3.498q0-.378.032-.752" clip-rule="evenodd"/></svg>