<svg xmlns="http://www.w3.org/2000/svg" width="33" height="33" fill="none"><path fill="#111827" fill-rule="evenodd" d="M6.187.5a1 1 0 0 0-1 1v2.266a11 11 0 0 0 4.4 8.8l5.246 3.934-5.246 3.934a11 11 0 0 0-4.4 8.8V31.5a1 1 0 0 0 1 1h20.625a1 1 0 0 0 1-1v-2.265a11 11 0 0 0-4.4-8.8L18.168 16.5l5.245-3.934a11 11 0 0 0 4.4-8.8V1.5a1 1 0 0 0-1-1H6.188Zm1 3.266V2.5h18.625v1.265a9 9 0 0 1-3.6 7.2L16.5 15.25l-5.713-4.284a9 9 0 0 1-3.6-7.2Zm0 26.733v-1.265c0-.587.058-1.168.169-1.734h18.288c.111.566.169 1.147.169 1.734V30.5H7.186ZM25.001 25.5H8a8.998 8.998 0 0 1 2.788-3.466L16.5 17.75l5.712 4.284a8.998 8.998 0 0 1 2.79 3.466Z" clip-rule="evenodd"/></svg>