<svg xmlns="http://www.w3.org/2000/svg" width="33" height="33" fill="none" viewBox="0 0 33 33"><path fill="#111827" fill-rule="evenodd" d="M5.187 1.5a1 1 0 0 1 1-1h20.626a1 1 0 0 1 1 1V6a11 11 0 0 1-4.811 9.094L20.934 16.5l2.068 1.407a11 11 0 0 1 4.81 9.094v4.498a1 1 0 0 1-1 1H6.188a1 1 0 0 1-1-1v-4.498a11 11 0 0 1 4.811-9.094l2.068-1.407-2.068-1.407a11 11 0 0 1-4.81-9.094V1.5Zm9.395 14.325a.994.994 0 0 0-.199-.167l-3.26-2.219A9 9 0 0 1 7.619 8.75h17.764a9 9 0 0 1-3.506 4.69l-3.26 2.218a1.001 1.001 0 0 0 0 1.684l3.26 2.219A9 9 0 0 1 25.812 27v3.498H7.188v-3.498a9 9 0 0 1 3.937-7.44l3.26-2.219a.992.992 0 0 0 .353-.392.995.995 0 0 0-.155-1.125ZM25.812 6c0 .252-.01.503-.03.751H7.218A9.01 9.01 0 0 1 7.187 6V2.5h18.626v3.498Z" clip-rule="evenodd"/></svg>