<svg xmlns="http://www.w3.org/2000/svg" width="33" height="33" fill="none" viewBox="0 0 33 33"><path fill="#111827" fill-rule="evenodd" d="M5.187 1.5a1 1 0 0 1 1-1h20.626a1 1 0 0 1 1 1v2.266a11 11 0 0 1-4.4 8.8L18.167 16.5l5.246 3.934a11 11 0 0 1 4.4 8.8V31.5a1 1 0 0 1-1 1H6.186a1 1 0 0 1-1-1v-2.265a11 11 0 0 1 4.4-8.8l5.246-3.934-5.246-3.934a11 11 0 0 1-4.4-8.8zm2 1v1.266a9 9 0 0 0 1.87 5.491 1 1 0 0 1 .126-.007h14.569q.094 0 .184.017a9 9 0 0 0 1.877-5.501V2.5zM16.5 15.25l-5.334-4h10.668zM7.187 29.234V30.5h18.626v-1.265a9 9 0 0 0-3.6-7.2L16.5 17.75l-5.712 4.284a9 9 0 0 0-3.6 7.2" clip-rule="evenodd"/></svg>