<svg xmlns="http://www.w3.org/2000/svg" width="33" height="33" fill="none" viewBox="0 0 33 33"><path fill="#111827" fill-rule="evenodd" d="M5.187 1.5a1 1 0 0 1 1-1h20.626a1 1 0 0 1 1 1v2.266a11 11 0 0 1-4.4 8.8L18.167 16.5l5.246 3.934a11 11 0 0 1 4.4 8.8V31.5a1 1 0 0 1-1 1H6.186a1 1 0 0 1-1-1v-2.265a11 11 0 0 1 4.4-8.8l5.246-3.934-5.246-3.934a11 11 0 0 1-4.4-8.8zm2 1v1.266c0 .587.058 1.168.169 1.734h18.288a9 9 0 0 0 .169-1.734V2.5zm3.6 8.466A9 9 0 0 1 8 7.5H25a9 9 0 0 1-2.789 3.466L16.5 15.25zm-3.6 18.268V30.5h18.626v-1.265a9 9 0 0 0-3.6-7.2L16.5 17.75l-5.712 4.284a9 9 0 0 0-3.6 7.2" clip-rule="evenodd"/></svg>