<svg xmlns="http://www.w3.org/2000/svg" width="33" height="32" fill="none" viewBox="0 0 33 32"><g fill="#111827" fill-rule="evenodd" clip-path="url(#a)" clip-rule="evenodd"><path d="M5.444 17.566c-.718.057-1.194.474-1.343.675l-1.166 1.268c-.477-.078-1.047.257-1.271.433-1.126 1.033-.771 2.236-.453 2.708a2.125 2.125 0 0 0-.366 2.746c-1.003 1.634.597 2.949 1.522 3.402.597.314 2.307 1.07 4.365 1.57 2.573.627 4.836.402 6.046-.145 1.21-.546 2.749-2.128 2.617-4.09-.104-1.568-1.098-2.752-1.581-3.148-.928-.898-1.713-2.566-1.99-3.288-.127-.408-.639-1.28-1.677-1.501-1.038-.222-1.813.466-2.07.838-.81-1.043-1.736-1.54-2.633-1.468m7.823 10.421c1-1.468.93-2.57-.444-3.943s-2.173-3.381-2.173-3.381-.299-1.166-.98-1.06c-.68.108-1.18 1.85.246 2.918 1.425 1.066-.284 1.79-.832.789-.549-1.002-2.046-3.575-2.823-4.067-.776-.493-1.322-.217-1.14.798.092.503.937 1.363 1.727 2.166.802.815 1.546 1.572 1.387 1.84-.316.531-1.428-.625-1.428-.625s-3.483-3.17-4.241-2.344c-.699.761.379 1.408 2.039 2.406l.436.262c1.9 1.15 2.048 1.454 1.779 1.89-.1.16-.736-.221-1.518-.69v-.001c-1.334-.801-3.093-1.857-3.341-.912-.215.818 1.078 1.319 2.252 1.773.978.38 1.872.726 1.74 1.196-.136.487-.875.08-1.682-.364-.907-.499-1.9-1.045-2.226-.429-.614 1.167 4.24 2.54 4.28 2.55 1.568.406 5.55 1.268 6.942-.772m14.29-10.421c.718.057 1.193.474 1.342.675l1.165 1.268c.479-.077 1.048.257 1.273.433 1.125 1.033.77 2.236.452 2.708a2.125 2.125 0 0 1 .366 2.746c1.002 1.635-.597 2.949-1.522 3.402-.597.315-2.307 1.07-4.365 1.57-2.573.627-4.836.402-6.047-.144-1.21-.547-2.748-2.129-2.616-4.09.104-1.569 1.098-2.753 1.581-3.15.928-.897 1.713-2.565 1.99-3.287.127-.408.639-1.28 1.677-1.501 1.038-.222 1.813.466 2.07.838.81-1.043 1.736-1.54 2.633-1.468m-7.84 10.421c-1.001-1.468-.93-2.57.443-3.943 1.374-1.373 2.174-3.381 2.174-3.381s.298-1.166.979-1.06c.68.108 1.18 1.85-.245 2.918-1.425 1.066.283 1.79.832.789.548-1.002 2.045-3.575 2.821-4.067.777-.493 1.323-.217 1.14.798-.09.503-.935 1.362-1.725 2.165l-.001.001c-.802.815-1.546 1.572-1.387 1.84.316.531 1.429-.626 1.429-.626s3.482-3.17 4.24-2.343c.7.76-.378 1.408-2.04 2.406l-.435.262c-1.9 1.15-2.048 1.454-1.778 1.889.1.16.735-.22 1.516-.69l.002-.001c1.335-.801 3.092-1.857 3.34-.912.216.818-1.078 1.32-2.251 1.774h-.001c-.977.379-1.872.725-1.74 1.195.136.487.875.081 1.682-.364.907-.498 1.9-1.045 2.225-.428.615 1.167-4.24 2.538-4.278 2.548-1.569.408-5.55 1.27-6.942-.77M20.44 11.91c.196.07.343.283.482.485.189.273.364.527.634.384a1.817 1.817 0 0 0 .708-2.538 1.82 1.82 0 0 0-3.168 1.785c.124.235.401.124.693.008.23-.092.468-.188.65-.123m-8.571 0c-.197.07-.344.283-.483.484-.189.274-.365.528-.634.385a1.819 1.819 0 1 1 2.258-2.763 1.82 1.82 0 0 1 .203 2.01c-.125.235-.402.124-.694.008-.23-.092-.468-.188-.65-.123m7.244 7.8c1.359-1.07 1.858-2.818 1.858-3.894 0-.85-.573-.583-1.489-.13l-.052.026c-.841.417-1.96.972-3.19.972s-2.349-.555-3.19-.972c-.946-.468-1.54-.762-1.54.104 0 1.11.532 2.934 1.989 3.993.691.502 1.591.832 2.742.832 1.224 0 2.165-.374 2.872-.931m-2.3-1.063c-.074.116-.149.232-.225.323.076-.09.15-.207.225-.322.073-.113.145-.224.216-.308-.071.084-.143.195-.215.307M8.08 13.618a1.18 1.18 0 0 0 1.044-1.407 1.183 1.183 0 1 0-1.044 1.407m16.918 0a1.181 1.181 0 0 0 .72-2.013 1.183 1.183 0 1 0-.72 2.013"/><path d="M18.729 29.1a14 14 0 0 1-4.478.022c.336-.367.632-.8.84-1.281a12.7 12.7 0 0 0 2.811-.017c.205.48.496.91.827 1.276m11.099-9.849c.371-1.261.57-2.597.57-3.979 0-7.742-6.257-14.018-13.975-14.018-7.72 0-13.977 6.276-13.977 14.018 0 1.429.213 2.808.61 4.106L4.1 18.241a1 1 0 0 1 .055-.066 12.7 12.7 0 0 1-.334-2.903c0-6.98 5.641-12.638 12.6-12.638 6.96 0 12.601 5.658 12.601 12.638 0 .955-.105 1.884-.305 2.778.081.072.142.139.18.191z"/></g><defs><clipPath id="a"><path fill="#fff" d="M.5 0h32v32H.5z"/></clipPath></defs></svg>