<svg xmlns="http://www.w3.org/2000/svg" width="33" height="32" fill="none"><path fill="#111827" d="M.5 9.6v.876h6.229V9.6H.5Zm7.111 0v.876h8.877S15.58 9.6 14.38 9.6H7.611Zm10.618 0v.876h5.37L23.28 9.6h-5.051Zm9.22 0-.319.876h5.321V9.6H27.45ZM.5 11.303v.876h6.229v-.876H.5Zm7.111.001v.875h9.906s-.115-.674-.317-.875H7.611Zm10.618 0v.875h5.959l-.296-.875H18.23Zm8.582 0-.295.875h5.935v-.875h-5.64ZM2.29 13.006v.877h2.697v-.877H2.29Zm7.111 0v.877H12.1v-.877H9.4Zm5.322 0v.877h2.697s.171-.463.171-.877h-2.869Zm5.296 0v.877H24.8l-.318-.877h-4.464Zm6.205 0-.32.877h4.806v-.877h-4.486ZM2.29 14.711v.875h2.697v-.875H2.29Zm7.111 0v.875h6.89s.577-.449.76-.875h-7.65Zm10.618 0v.875h2.697V15.1l.171.487h4.942l.183-.487v.487h2.698v-.875h-5.064l-.268.741-.27-.741h-5.09ZM2.29 16.414v.875h2.697v-.875H2.29Zm7.111 0v.875h7.65c-.183-.425-.76-.875-.76-.875h-6.89Zm10.618 0v.875h2.697v-.875H20.02Zm3.187 0 .326.875h3.706l.31-.875h-4.342Zm4.806 0v.875h2.698v-.875h-2.698ZM2.29 18.117v.875h2.697v-.875H2.29Zm7.111 0v.875H12.1v-.875H9.4Zm5.322 0v.875h2.868c0-.413-.171-.875-.171-.875h-2.698Zm5.296 0v.875h2.697v-.875H20.02Zm3.8 0 .316.875h2.484l.319-.875h-3.12Zm4.194 0v.875h2.697v-.875h-2.698ZM.549 19.82v.877h6.228v-.877H.55Zm7.062 0v.877H17.2c.202-.2.317-.877.317-.877H7.611Zm10.667 0v.877h4.438v-.877h-4.439Zm6.155 0 .325.877h1.263l.305-.877h-1.893Zm3.58 0v.877H32.5v-.877h-4.488ZM.549 21.524v.876h6.228v-.876H.55Zm7.062 0v.875h6.769c1.2 0 2.107-.875 2.107-.875H7.612Zm10.667 0v.876h4.438v-.876h-4.439Zm6.77 0 .313.873.054.002.318-.875h-.684Zm2.965 0v.876H32.5v-.876h-4.488Z"/></svg>