<svg xmlns="http://www.w3.org/2000/svg" width="33" height="32" fill="none" viewBox="0 0 33 32"><path fill="#111827" d="M.5 9.6v.876h6.229V9.6zm7.111 0v.876h8.877S15.58 9.6 14.38 9.6zm10.618 0v.876h5.37L23.28 9.6zm9.22 0-.319.876h5.321V9.6zM.5 11.303v.876h6.229v-.876zm7.111.001v.875h9.907s-.116-.674-.318-.875zm10.618 0v.875h5.959l-.296-.875zm8.582 0-.295.875h5.935v-.875zM2.29 13.006v.877h2.697v-.877zm7.111 0v.877H12.1v-.877zm5.322 0v.877h2.697s.171-.463.171-.877zm5.296 0v.877H24.8l-.318-.877zm6.205 0-.32.877h4.806v-.877zM2.29 14.711v.875h2.697v-.875zm7.111 0v.875h6.89s.577-.449.76-.875zm10.618 0v.875h2.697V15.1l.171.487h4.942l.183-.487v.487h2.698v-.875h-5.064l-.268.741-.27-.741zM2.29 16.414v.875h2.697v-.875zm7.111 0v.875h7.65c-.183-.425-.76-.875-.76-.875zm10.618 0v.875h2.697v-.875zm3.187 0 .326.875h3.706l.31-.875zm4.807 0v.875h2.697v-.875zM2.29 18.117v.876h2.697v-.876zm7.111 0v.876H12.1v-.876zm5.322 0v.876h2.868c0-.414-.171-.876-.171-.876zm5.296 0v.876h2.697v-.876zm3.8 0 .316.876h2.484l.319-.876zm4.194 0v.876h2.697v-.876zM.549 19.82v.877h6.228v-.877zm7.062 0v.877H17.2c.202-.2.317-.877.317-.877zm10.667 0v.877h4.438v-.877zm6.155 0 .325.877h1.263l.305-.877zm3.58 0v.877H32.5v-.877zM.549 21.524v.876h6.228v-.876zm7.062 0v.875h6.769c1.2 0 2.108-.875 2.108-.875zm10.667 0v.876h4.438v-.876zm6.77 0 .313.874h.054l.318-.874zm2.965 0v.876H32.5v-.876z"/></svg>