<svg xmlns="http://www.w3.org/2000/svg" width="33" height="33" fill="none" viewBox="0 0 33 33"><path fill="#111827" fill-rule="evenodd" d="M.5 1.501a1 1 0 0 1 1-1H31.5a1 1 0 0 1 1 1v29.998a1 1 0 0 1-1 1H1.501a1 1 0 0 1-1-1zm2 22.828v6.17H30.5v-3.898l-6.634-7.961-4.862 5.835a1 1 0 0 1-1.537 0l-7.543-9.053zm0-3.125 6.654-7.984a1 1 0 0 1 1.537 0l7.543 9.052 4.862-5.834a1 1 0 0 1 1.537 0l5.866 7.039V2.501H2.501zM20.876 13.5c1.035 0 1.875-1.007 1.875-2.25 0-1.242-.84-2.25-1.875-2.25S19 10.009 19 11.25c0 1.243.84 2.25 1.875 2.25" clip-rule="evenodd"/></svg>