<svg xmlns="http://www.w3.org/2000/svg" width="33" height="33" fill="none" viewBox="0 0 33 33"><path fill="#111827" fill-rule="evenodd" d="M.5 4a1 1 0 0 1 1-1H31.5a1 1 0 0 1 1 1v25a1 1 0 0 1-1 1H1.501a1 1 0 0 1-1-1V4Zm2 19.136V28H30.5V25.03l-6.634-6.634-4.924 4.923a1 1 0 0 1-1.414 0l-7.604-7.604L2.5 23.136Zm0-2.828 6.715-6.715a1 1 0 0 1 1.415 0l7.604 7.605 4.924-4.923a1 1 0 0 1 1.414 0l5.927 5.927V5H2.501v15.307ZM20.876 14a1.875 1.875 0 1 0 0-3.75 1.875 1.875 0 0 0 0 3.75Z" clip-rule="evenodd"/></svg>