<svg xmlns="http://www.w3.org/2000/svg" width="33" height="32" fill="none" viewBox="0 0 33 32"><g fill="#111827" clip-path="url(#a)"><path d="M16.5 32a2.44 2.44 0 0 1-2.44-2.44V2.44a2.44 2.44 0 0 1 4.88 0v27.12A2.44 2.44 0 0 1 16.5 32ZM24.636 26.576a2.44 2.44 0 0 1-2.441-2.44V7.864a2.44 2.44 0 1 1 4.881 0v16.272a2.44 2.44 0 0 1-2.44 2.44ZM5.924 24.136a2.44 2.44 0 0 0 4.881 0V7.864a2.44 2.44 0 0 0-4.881 0v16.272Z"/></g><defs><clipPath id="a"><path fill="#fff" d="M.5 0h32v32H.5z"/></clipPath></defs></svg>