<svg xmlns="http://www.w3.org/2000/svg" width="33" height="33" fill="none" viewBox="0 0 33 33"><g clip-path="url(#a)"><path fill="#111827" fill-rule="evenodd" d="M16.482 2.25a1.602 1.602 0 1 0 0 3.204 1.602 1.602 0 0 0 0-3.205M12.88 3.851a3.602 3.602 0 1 1 6.714 1.814l3.825 6.007 1.618-.887a3.602 3.602 0 1 1 2.95 3.326l-1.527 2.336 1.718 2.698q.277-.044.564-.044a3.602 3.602 0 1 1-3.585 3.253l-1.883-1.032-3.569 5.458a3.602 3.602 0 1 1-6.162 0l-3.568-5.458-2.122 1.163q.007.108.007.219a3.602 3.602 0 1 1-2.816-3.516l1.745-2.74-1.527-2.337q-.315.057-.647.058a3.602 3.602 0 1 1 3.596-3.385l1.619.888 3.682-5.782a3.6 3.6 0 0 1-.632-2.04m2.19 3.315-3.482 5.47 2.468 1.352a3.6 3.6 0 0 1 2.568-1.076c1.006 0 1.915.412 2.569 1.076l2.468-1.353-3.548-5.572c-.49.25-1.044.39-1.631.39a3.6 3.6 0 0 1-1.412-.287m5.075 8.581a3.6 3.6 0 0 1-.01 1.574l2.477 1.357 1.468-2.245-1.342-2.107zm-.981 3.322a3.6 3.6 0 0 1-2.54 1.047c-.99 0-1.888-.4-2.54-1.047l-2.35 1.288 3.305 5.055a3.6 3.6 0 0 1 1.585-.367c.57 0 1.107.132 1.586.367l3.305-5.055zm-6.051-1.748a3.6 3.6 0 0 1-.01-1.574l-2.592-1.421-1.342 2.107 1.468 2.245zm-5.587-4.631a3.6 3.6 0 0 1-.464.52l.906 1.386.785-1.234zM6.8 20.154q.2.199.366.427l1.71-.937-.887-1.358zm19.104.33q.204-.259.45-.477l-1.096-1.721-.888 1.357zm.282-7.272a3.6 3.6 0 0 1-.464-.521l-1.227.672.785 1.234zM4.615 8.965a1.602 1.602 0 1 0 0 3.205 1.602 1.602 0 0 0 0-3.205m22.416 1.603a1.602 1.602 0 1 1 3.205 0 1.602 1.602 0 0 1-3.205 0m-12.01 5.947a1.602 1.602 0 1 1 3.205 0 1.602 1.602 0 0 1-3.204 0m-12.366 6.19a1.602 1.602 0 1 1 3.205 0 1.602 1.602 0 0 1-3.205 0m26.088-1.603a1.602 1.602 0 1 0 0 3.205 1.602 1.602 0 0 0 0-3.205m-13.721 7.546a1.602 1.602 0 1 1 3.204 0 1.602 1.602 0 0 1-3.204 0" clip-rule="evenodd"/></g><defs><clipPath id="a"><path fill="#fff" d="M.5.25h32v32H.5z"/></clipPath></defs></svg>