<svg xmlns="http://www.w3.org/2000/svg" width="33" height="33" fill="none" viewBox="0 0 33 33"><g clip-path="url(#a)"><path fill="#111827" fill-rule="evenodd" d="M16.482 2.25a1.602 1.602 0 1 0 0 3.204 1.602 1.602 0 0 0 0-3.205ZM12.88 3.851a3.602 3.602 0 1 1 6.714 1.814l3.825 6.007 1.618-.887a3.602 3.602 0 1 1 2.95 3.326l-1.527 2.336 1.718 2.698a3.602 3.602 0 1 1-3.021 3.209l-1.883-1.032-3.569 5.458a3.602 3.602 0 1 1-6.162 0l-3.568-5.458-2.122 1.163a3.602 3.602 0 1 1-2.81-3.297l1.746-2.74-1.527-2.337a3.602 3.602 0 1 1 2.95-3.327l1.618.888 3.682-5.782a3.585 3.585 0 0 1-.632-2.04Zm2.19 3.315-3.482 5.47 2.468 1.352a3.591 3.591 0 0 1 2.568-1.076c1.006 0 1.915.412 2.569 1.076l2.468-1.353-3.548-5.572c-.49.25-1.044.39-1.631.39a3.59 3.59 0 0 1-1.412-.287Zm5.075 8.581a3.62 3.62 0 0 1-.01 1.574l2.477 1.357 1.468-2.245-1.342-2.107-2.593 1.421Zm-.981 3.322a3.591 3.591 0 0 1-2.54 1.047c-.99 0-1.888-.4-2.54-1.047l-2.35 1.288 3.305 5.055a3.588 3.588 0 0 1 1.585-.367c.57 0 1.107.132 1.586.367l3.305-5.055-2.351-1.288Zm-6.051-1.748a3.614 3.614 0 0 1-.01-1.574l-2.592-1.421-1.342 2.107 1.468 2.245 2.476-1.357Zm-5.587-4.631a3.622 3.622 0 0 1-.464.52l.906 1.386.785-1.234-1.227-.672ZM6.8 20.154c.133.132.255.275.366.427l1.71-.938-.887-1.357-1.19 1.867Zm19.104.33c.136-.172.286-.332.45-.477l-1.096-1.721-.888 1.357 1.535.841Zm.282-7.272a3.622 3.622 0 0 1-.464-.521l-1.227.672.785 1.234.906-1.385ZM4.615 8.965a1.602 1.602 0 1 0 0 3.205 1.602 1.602 0 0 0 0-3.205Zm22.416 1.603a1.602 1.602 0 1 1 3.205 0 1.602 1.602 0 0 1-3.205 0Zm-12.01 5.947a1.602 1.602 0 1 1 3.205 0 1.602 1.602 0 0 1-3.204 0Zm-12.366 6.19a1.602 1.602 0 1 1 3.205 0 1.602 1.602 0 0 1-3.205 0Zm26.087-1.603a1.602 1.602 0 1 0 0 3.205 1.602 1.602 0 0 0 0-3.205Zm-13.72 7.546a1.602 1.602 0 1 1 3.204 0 1.602 1.602 0 0 1-3.204 0Z" clip-rule="evenodd"/></g><defs><clipPath id="a"><path fill="#fff" d="M.5.25h32v32H.5z"/></clipPath></defs></svg>