<svg xmlns="http://www.w3.org/2000/svg" width="33" height="32" fill="none" viewBox="0 0 33 32"><path fill="#111827" fill-rule="evenodd" d="M15.918.124a1 1 0 0 0-1 .017L4.003 6.697a1 1 0 0 0 .02 1.727l12.807 7.285a1 1 0 1 0 .989-1.738L6.499 7.53l8.954-5.378 12.804 7.094a1 1 0 0 0 .97-1.75zM2.748 9.9a1 1 0 0 1 1.002-.009l12.22 6.933a1 1 0 1 1-.988 1.74L4.278 12.49l.136 10.897L15.74 29.94a1 1 0 0 1-1.001 1.732L2.92 24.834a1 1 0 0 1-.5-.853l-.165-13.207a1 1 0 0 1 .491-.873m27.804.375a1 1 0 0 1-.329 1.375l-11.267 6.922.035 10.66 10.236-6.175a1 1 0 1 1 1.033 1.712l-11.746 7.088a1 1 0 0 1-1.517-.853l-.043-12.987a1 1 0 0 1 .476-.855l11.746-7.216a1 1 0 0 1 1.376.329" clip-rule="evenodd"/></svg>