<svg xmlns="http://www.w3.org/2000/svg" width="33" height="32" fill="none" viewBox="0 0 33 32"><path fill="#111827" fill-rule="evenodd" d="M.501 6a6 6 0 0 1 6-6h19.998a6 6 0 0 1 6 6V26a6 6 0 0 1-6 6H6.501a6 6 0 0 1-6-6zm6-4a4 4 0 0 0-4 4V26a4 4 0 0 0 4 4h19.998a4 4 0 0 0 4-4V6.001a4 4 0 0 0-4-4zM16.5 10.48a5.521 5.521 0 1 0 0 11.042 5.521 5.521 0 0 0 0-11.042m-7.521 5.52a7.521 7.521 0 1 1 15.042 0A7.521 7.521 0 0 1 8.98 16m17.955-8.477a1.956 1.956 0 1 1-3.913 0 1.956 1.956 0 0 1 3.913 0" clip-rule="evenodd"/></svg>