<svg xmlns="http://www.w3.org/2000/svg" width="33" height="32" fill="none" viewBox="0 0 33 32"><path fill="#111827" fill-rule="evenodd" d="M1.183 0h-1v32h32V0h-31m1 30V2h28v28zm13.1-4.625H4.033v1.875h11.25zM12.058 4.9v2.25h-1.725v7.875h1.725v2.325h-6.15v-2.325h1.725V7.15H5.908V4.9zm3.525 12.075a5.03 5.03 0 0 0 2.475.525 5.36 5.36 0 0 0 2.925-1.05 3.75 3.75 0 0 0 1.05-1.65 5.1 5.1 0 0 0 .3-1.95v-8.1h-2.775v8.025a2.2 2.2 0 0 1-.45 1.575c-.288.363-.738.56-1.2.525a2.2 2.2 0 0 1-1.2-.3 5.6 5.6 0 0 1-1.05-.9l-1.725 1.95a5.9 5.9 0 0 0 1.65 1.35" clip-rule="evenodd"/></svg>