<svg xmlns="http://www.w3.org/2000/svg" width="33" height="32" fill="none"><path fill="#111827" fill-rule="evenodd" d="M2.501 11.385A9.384 9.384 0 0 1 11.885 2c4.442 0 8.162 3.086 9.136 7.23a11.377 11.377 0 0 0-11.29 11.29c-4.144-.974-7.23-4.695-7.23-9.136Zm10.003 5.495a9.352 9.352 0 0 0-.772 3.888h.153c1.328 0 2.59-.275 3.735-.772l-3.116-3.116Zm4.914 2.085a9.44 9.44 0 0 0 2.047-2.047l-3.883-3.883a9.44 9.44 0 0 0-2.047 2.047l3.883 3.883Zm-7.515 3.632C4.561 21.659.501 16.996.501 11.385.501 5.098 5.598 0 11.885 0c5.611 0 10.274 4.06 11.212 9.402 5.342.938 9.402 5.6 9.402 11.212C32.5 26.902 27.402 32 21.115 32c-5.611 0-10.274-4.06-11.212-9.402Zm13.366-11.118A9.384 9.384 0 0 1 21.116 30c-4.443 0-8.163-3.086-9.137-7.23a11.377 11.377 0 0 0 11.29-11.29Zm-5.89.525 3.117 3.116a9.353 9.353 0 0 0 .772-3.888h-.153c-1.327 0-2.59.275-3.735.772Z" clip-rule="evenodd"/></svg>