<svg xmlns="http://www.w3.org/2000/svg" width="33" height="32" fill="none" viewBox="0 0 33 32"><path fill="#111827" fill-rule="evenodd" d="M10.532.135a1 1 0 0 1 1.366.367l1.561 2.703a13.1 13.1 0 0 1 5.073 0L20.093.502A1 1 0 0 1 21.46.136l5.544 3.2a1 1 0 0 1 .366 1.366l-1.562 2.706a13 13 0 0 1 2.539 4.391h3.12a1 1 0 0 1 1 1v6.402a1 1 0 0 1-1 1h-3.12a13 13 0 0 1-2.539 4.391l1.562 2.706a1 1 0 0 1-.366 1.366l-5.544 3.2a1 1 0 0 1-1.366-.365l-1.56-2.704a13.1 13.1 0 0 1-5.074 0l-1.56 2.704a1 1 0 0 1-1.367.366l-5.544-3.201a1 1 0 0 1-.366-1.366l1.562-2.706a13 13 0 0 1-2.388-3.971h2.168a11.1 11.1 0 0 0 2.168 3.13 1 1 0 0 1 .154 1.202l-1.432 2.479 3.812 2.2 1.43-2.476a1 1 0 0 1 1.117-.468c.888.23 1.82.354 2.783.354s1.894-.123 2.782-.354a1 1 0 0 1 1.117.468l1.43 2.477 3.812-2.201-1.431-2.48a1 1 0 0 1 .154-1.201 11.03 11.03 0 0 0 2.783-4.815 1 1 0 0 1 .964-.735h2.86v-4.402h-2.86a1 1 0 0 1-.964-.734 11.03 11.03 0 0 0-2.783-4.816 1 1 0 0 1-.154-1.202l1.431-2.479-3.812-2.2-1.43 2.476a1 1 0 0 1-1.117.467c-.887-.23-1.82-.353-2.782-.353-.963 0-1.895.123-2.783.353a1 1 0 0 1-1.117-.467l-1.43-2.476-3.812 2.2 1.431 2.479a1 1 0 0 1-.154 1.202A11 11 0 0 0 6 11.304H3.825a13 13 0 0 1 2.36-3.896L4.621 4.702a1 1 0 0 1 .366-1.366zm6.244 8.69a1 1 0 1 0 0 2 5.176 5.176 0 0 1 0 10.351 1 1 0 0 0 0 2 7.175 7.175 0 1 0 0-14.351m-5.122 1.647a1 1 0 0 1 1.414 0l4.82 4.82a1 1 0 0 1 .294.708c0 .285-.119.541-.31.723l-4.804 4.805a1 1 0 0 1-1.414-1.415L14.767 17H1.533a1 1 0 1 1 0-2h13.235l-3.114-3.113a1 1 0 0 1 0-1.415" clip-rule="evenodd"/></svg>