<svg xmlns="http://www.w3.org/2000/svg" width="33" height="34" fill="none" viewBox="0 0 33 34"><path fill="#111827" fill-rule="evenodd" d="M16.5 2.998C8.767 2.998 2.498 9.267 2.498 17c0 7.733 6.27 14.002 14.002 14.002 7.733 0 14.002-6.269 14.002-14.002 0-2.321-.565-4.51-1.564-6.438a4.518 4.518 0 0 0 1.59-1.267A15.93 15.93 0 0 1 32.502 17c0 8.838-7.164 16.002-16.002 16.002C7.663 33.002.498 25.838.498 17S7.663.998 16.5.998c2.793 0 5.42.716 7.705 1.974-.535.424-.97.968-1.268 1.59A13.942 13.942 0 0 0 16.5 2.998Zm10.501 4a.5.5 0 1 0 0-1 .5.5 0 0 0 0 1Zm0 2a2.5 2.5 0 1 0 0-5 2.5 2.5 0 0 0 0 5Zm-10.5 13.036a5 5 0 1 0 0-10.002 5 5 0 0 0 0 10.002Zm0 2a7 7 0 1 0 0-14.002 7 7 0 0 0 0 14.002Z" clip-rule="evenodd"/></svg>