<svg xmlns="http://www.w3.org/2000/svg" width="33" height="32" fill="none" viewBox="0 0 33 32"><path fill="#111827" fill-rule="evenodd" d="M16.5 1.998C8.767 1.998 2.498 8.267 2.498 16S8.768 30.002 16.5 30.002 30.502 23.733 30.502 16c0-2.321-.565-4.51-1.564-6.438a4.5 4.5 0 0 0 1.59-1.267A15.9 15.9 0 0 1 32.502 16c0 8.838-7.164 16.002-16.002 16.002S.498 24.838.498 16 7.663-.002 16.5-.002c2.793 0 5.42.716 7.705 1.974-.535.424-.97.968-1.268 1.59A13.94 13.94 0 0 0 16.5 1.998m10.501 4a.5.5 0 1 0 0-1 .5.5 0 0 0 0 1m0 2a2.5 2.5 0 1 0 0-5 2.5 2.5 0 0 0 0 5m-10.5 13.036a5 5 0 1 0 0-10.002 5 5 0 0 0 0 10.002m0 2a7 7 0 1 0 0-14.002 7 7 0 0 0 0 14.002" clip-rule="evenodd"/></svg>