<svg xmlns="http://www.w3.org/2000/svg" width="33" height="32" fill="none" viewBox="0 0 33 32"><path fill="#111827" fill-rule="evenodd" d="M1.501.001a1 1 0 0 0-1 1v29.998a1 1 0 0 0 1 1h29.998a1 1 0 0 0 1-1V1.001a1 1 0 0 0-1-1H1.501Zm1 29.998V2.001h27.998v27.998H2.501Zm7.556-6.185-2.422 1.465c.7 1.488 2.082 2.72 4.461 2.72 2.635 0 4.441-1.402 4.441-4.483V13.36h-2.974v10.113c0 1.487-.617 1.87-1.594 1.87-1.02 0-1.445-.702-1.912-1.53Zm10.517-.255-2.422 1.402c.871 1.72 2.656 3.038 5.418 3.038 2.826 0 4.93-1.466 4.93-4.143 0-2.486-1.424-3.59-3.953-4.674l-.743-.319c-1.275-.552-1.827-.913-1.827-1.806 0-.722.552-1.274 1.423-1.274.85 0 1.402.36 1.912 1.274l2.316-1.487c-.977-1.72-2.337-2.38-4.228-2.38-2.655 0-4.355 1.7-4.355 3.931 0 2.422 1.423 3.57 3.57 4.483l.743.319c1.36.595 2.167.956 2.167 1.976 0 .85-.786 1.466-2.019 1.466-1.465 0-2.294-.765-2.932-1.806Z" clip-rule="evenodd"/></svg>