<svg xmlns="http://www.w3.org/2000/svg" width="33" height="32" fill="none" viewBox="0 0 33 32"><path fill="#111827" fill-rule="evenodd" d="M5.199 3.215a1 1 0 0 0-.972.764L2.59 10.715H1.5a1 1 0 1 0 0 2h1.144v15.07a1 1 0 0 0 1 1h5.892a1 1 0 0 0 1-1v-4.357h11.928v4.357a1 1 0 0 0 1 1h5.892a1 1 0 0 0 1-1V12.715H31.5a1 1 0 0 0 0-2H30.41l-1.637-6.736a1 1 0 0 0-.972-.764H5.2Zm23.157 20.213h-3.892v3.357h3.892v-3.357Zm-4.88-2h4.88v-8.713H4.644v8.713h8.713V16a1 1 0 0 1 2 0v5.428h2.285V16a1 1 0 1 1 2 0v5.428h3.834ZM4.644 26.785v-3.357h3.892v3.357H4.644Zm.004-16.07 1.337-5.5h21.03l1.337 5.5H4.648ZM9 18.142a1.607 1.607 0 1 0 0-3.214 1.607 1.607 0 0 0 0 3.214Zm16.607-1.607a1.607 1.607 0 1 1-3.215 0 1.607 1.607 0 0 1 3.215 0Z" clip-rule="evenodd"/></svg>