<svg xmlns="http://www.w3.org/2000/svg" width="33" height="32" fill="none" viewBox="0 0 33 32"><path fill="#111827" d="M4.353 16.71v-3.395h.74v3.653a2.2 2.2 0 0 1-.486 1.656c-.35.302-.797.464-1.259.458l-.077-.552c.298 0 .585-.11.806-.309.199-.232.276-.546.276-1.512m5.515-.436c0 .414 0 .783.033 1.104h-.656L9.2 16.72a1.53 1.53 0 0 1-1.34.75c-.64 0-1.403-.347-1.403-1.766V13.35h.74v2.207c0 .767.237 1.28.905 1.28a1.03 1.03 0 0 0 1.043-1.042V13.32h.74v2.93zm1.402-1.612c0-.514 0-.933-.033-1.314h.662l.033.69a1.6 1.6 0 0 1 1.446-.784c.982 0 1.722.823 1.722 2.048 0 1.446-.889 2.163-1.849 2.163a1.43 1.43 0 0 1-1.253-.634v2.207h-.728v-4.376m.728 1.076q.003.15.034.298a1.14 1.14 0 0 0 1.103.855c.779 0 1.237-.634 1.237-1.556 0-.806-.43-1.496-1.21-1.496a1.27 1.27 0 0 0-1.164 1.21zm4.42-2.393.888 2.378c.094.265.193.585.26.822.077-.242.16-.551.259-.838l.806-2.362h.778l-1.104 2.87c-.552 1.38-.888 2.091-1.396 2.521a2 2 0 0 1-.905.475l-.182-.618c.236-.078.455-.2.645-.359.27-.22.483-.499.624-.817a.6.6 0 0 0 .06-.176.6.6 0 0 0-.049-.193l-1.501-3.714h.806zm4.954-1.158v1.159h1.06v.552h-1.06v2.174c0 .497.144.784.552.784q.219.003.43-.05l.034.552a1.8 1.8 0 0 1-.657.1 1.03 1.03 0 0 1-.8-.31 1.49 1.49 0 0 1-.287-1.048v-2.208h-.63v-.552h.64v-.982zm2.422 3.303a1.296 1.296 0 0 0 1.396 1.396c.379.009.755-.063 1.104-.21l.127.553a3.3 3.3 0 0 1-1.352.248 1.878 1.878 0 0 1-1.998-2.031c0-1.214.723-2.174 1.904-2.174 1.325 0 1.656 1.159 1.656 1.898a3 3 0 0 1 0 .342h-2.854zm2.163-.552a1.042 1.042 0 0 0-1.026-1.192 1.22 1.22 0 0 0-1.131 1.192zm1.796-.338c0-.475 0-.883-.033-1.259h.662v.79h.033a1.22 1.22 0 0 1 1.104-.884q.105-.013.21 0v.69a1 1 0 0 0-.254 0 1.03 1.03 0 0 0-.988.939q-.03.169-.033.342v2.146h-.729v-2.759z"/><path fill="#111827" fill-rule="evenodd" d="M24.176 2.372c0-.754.616-1.372 1.385-1.372s1.386.618 1.386 1.372-.617 1.371-1.386 1.371a1.38 1.38 0 0 1-1.386-1.371M25.56 0a2.38 2.38 0 0 0-2.386 2.372 2.38 2.38 0 0 0 2.386 2.371 2.38 2.38 0 0 0 2.386-2.371A2.38 2.38 0 0 0 25.56 0M9.92 7.357a14.3 14.3 0 0 0-3.405 1.707 11.83 11.83 0 0 1 9.993-5.465 11.83 11.83 0 0 1 9.946 5.392c-2.049-1.397-4.122-1.957-5.198-2.196-4.716-1.149-9.431-.166-11.336.562m6.588-4.758a12.82 12.82 0 0 0-12.022 8.306l.844.504c.626-.714 2.184-2.154 4.926-3.11l.007-.003.007-.003c1.757-.672 6.27-1.62 10.754-.525l.01.003c1.351.298 4.273 1.116 6.617 3.519l.824-.53A12.82 12.82 0 0 0 16.507 2.6M5.336 19.24l-.857.489a12.82 12.82 0 0 0 12.028 8.32 12.82 12.82 0 0 0 11.964-8.153l-.827-.526c-1.14 1.19-3.288 2.815-7.081 3.607l-.012.003-.012.003c-1.577.41-5.984.854-10.646-.782a16.3 16.3 0 0 1-2.271-1.13c-.888-.53-1.746-1.166-2.286-1.832m11.171 7.81a11.83 11.83 0 0 1-10.025-5.516q.314.208.626.395c.931.557 1.852.981 2.43 1.207l.008.003.008.002c4.865 1.71 9.472 1.266 11.225.813 2.491-.522 4.331-1.39 5.672-2.292a11.83 11.83 0 0 1-9.944 5.387M5.453 3.95a.85.85 0 0 0-.858.848c0 .464.38.847.858.847a.85.85 0 0 0 .857-.847.85.85 0 0 0-.857-.848m-1.858.848c0-1.024.836-1.848 1.858-1.848s1.857.824 1.857 1.848a1.85 1.85 0 0 1-1.857 1.847 1.85 1.85 0 0 1-1.858-1.847m1.856 24.344c0-1.022.836-1.857 1.875-1.857s1.875.835 1.875 1.857A1.866 1.866 0 0 1 7.326 31a1.866 1.866 0 0 1-1.875-1.857m1.875-2.857a2.866 2.866 0 0 0-2.875 2.857A2.866 2.866 0 0 0 7.326 32a2.866 2.866 0 0 0 2.875-2.857 2.866 2.866 0 0 0-2.875-2.857" clip-rule="evenodd"/></svg>