<svg xmlns="http://www.w3.org/2000/svg" width="33" height="32" fill="none" viewBox="0 0 33 32"><g clip-path="url(#a)"><path fill="#111827" fill-rule="evenodd" d="M12.035 1.98a2.456 2.456 0 1 0 0 4.912 2.456 2.456 0 0 0 0-4.912M7.579 4.436a4.456 4.456 0 1 1 5.456 4.343v1.976a5.33 5.33 0 0 1 3.036 1.75l1.52-.877a4.456 4.456 0 1 1 1.008 1.728l-1.524.88c.193.552.298 1.146.298 1.764 0 .649-.115 1.27-.327 1.846l1.5.866a4.456 4.456 0 1 1-.977 1.745l-1.555-.898a5.33 5.33 0 0 1-2.98 1.686v1.976a4.457 4.457 0 0 1-1 8.799 4.456 4.456 0 0 1-1-8.8v-1.975a5.34 5.34 0 0 1 0-10.49V8.779A4.46 4.46 0 0 1 7.58 4.436m4.456 8.225a3.339 3.339 0 1 0 0 6.677 3.339 3.339 0 0 0 0-6.677M9.579 27.564a2.456 2.456 0 1 1 4.911 0 2.456 2.456 0 0 1-4.91 0m12.269-8.315a2.456 2.456 0 1 0 0 4.91 2.456 2.456 0 0 0 0-4.91m-2.456-8.942a2.456 2.456 0 1 1 4.912 0 2.456 2.456 0 0 1-4.912 0" clip-rule="evenodd"/></g><defs><clipPath id="a"><path fill="#fff" d="M.5 0h32v32H.5z"/></clipPath></defs></svg>