<svg xmlns="http://www.w3.org/2000/svg" width="33" height="32" fill="none" viewBox="0 0 33 32"><path fill="#111827" fill-rule="evenodd" d="M1.5 4.616a1 1 0 0 0-1 1v20.768a1 1 0 0 0 1 1h30a1 1 0 0 0 1-1V5.616a1 1 0 0 0-1-1zm1 20.768V6.616h28v18.768zm3.616-15a1 1 0 1 0 0 2h20.768a1 1 0 0 0 0-2zm0 4.616a1 1 0 0 0 0 2h20.768a1 1 0 1 0 0-2zm-1 5.615a1 1 0 0 1 1-1H7.27a1 1 0 1 1 0 2H6.116a1 1 0 0 1-1-1m6.769-1a1 1 0 1 0 0 2h9.23a1 1 0 1 0 0-2zm12.845 1a1 1 0 0 1 1-1h1.154a1 1 0 1 1 0 2H25.73a1 1 0 0 1-1-1" clip-rule="evenodd"/></svg>