<svg xmlns="http://www.w3.org/2000/svg" width="33" height="32" fill="none"><path fill="#111827" fill-rule="evenodd" d="M2.5 16c0-7.732 6.269-14 14-14 7.732 0 14 6.268 14 14 0 7.731-6.268 13.999-14 13.999-7.731 0-14-6.268-14-14Zm14-16C7.664 0 .5 7.165.5 16s7.164 15.999 16 15.999 16-7.163 16-16c0-8.835-7.164-15.998-16-15.998Zm-3.387 12.92a3.387 3.387 0 1 1 5.077 2.937 1 1 0 0 0-.451 1.176l1.77 5.433H13.49l1.771-5.433a1 1 0 0 0-.45-1.176 3.385 3.385 0 0 1-1.698-2.936ZM16.5 7.534a5.387 5.387 0 0 0-3.372 9.59l-1.966 6.033a1 1 0 0 0 .95 1.31h8.775a1 1 0 0 0 .951-1.31l-1.966-6.033a5.387 5.387 0 0 0-3.372-9.59Z" clip-rule="evenodd"/></svg>