<svg xmlns="http://www.w3.org/2000/svg" width="33" height="32" fill="none" viewBox="0 0 33 32"><g clip-path="url(#a)"><path fill="#111827" fill-rule="evenodd" d="M16.934.473a1 1 0 0 0-.868 0L4.036 6.267a1 1 0 0 0-.542.678L.523 19.964a1 1 0 0 0 .193.846l8.326 10.44a1 1 0 0 0 .781.376h13.354a1 1 0 0 0 .782-.376l8.325-10.44a1 1 0 0 0 .193-.846L29.506 6.945a1 1 0 0 0-.541-.678zM2.58 19.94 5.337 7.86 16.5 2.485 27.663 7.86l2.757 12.08-7.725 9.686h-12.39zM15.818 6.476a.65.65 0 0 1 .445-.213l.001-.004a.646.646 0 0 1 .61.677v.174a5 5 0 0 1-.084.58 5.7 5.7 0 0 0-.07 1.106.48.48 0 0 0 .2.305l.003.04c.004.063.012.167.012.231A8 8 0 0 1 22 11.82l.231-.165a.7.7 0 0 0 .37-.04q.447-.332.823-.745.19-.225.406-.426c.038-.033.094-.076.136-.109a.614.614 0 1 1 .76.949l-.04.031c-.032.028-.068.057-.096.077a5 5 0 0 1-.507.296 5.7 5.7 0 0 0-.907.638.48.48 0 0 0-.116.345l-.216.194a7.93 7.93 0 0 1 1.27 5.491l.247.072c.06.113.152.207.263.271q.538.144 1.093.18.295.007.586.048c.033.006.075.016.114.026l.063.016a.613.613 0 1 1-.27 1.19h-.023l-.053-.012-.104-.023a5 5 0 0 1-.542-.21 5.7 5.7 0 0 0-1.063-.314.48.48 0 0 0-.342.126 7 7 0 0 0-.26-.046 7.94 7.94 0 0 1-3.523 4.425q.044.127.102.247a.48.48 0 0 0-.047.36q.223.51.542.969.178.234.328.486c.02.038.047.095.068.14l.012.024a.614.614 0 0 1-.76.877.61.61 0 0 1-.343-.355l-.026-.052-.05-.104q-.105-.275-.178-.56a5.7 5.7 0 0 0-.419-1.025.48.48 0 0 0-.311-.19c-.018-.024-.062-.103-.1-.17l-.036-.064a7.9 7.9 0 0 1-5.63-.015l-.136.25a.5.5 0 0 0-.262.139c-.208.341-.367.71-.472 1.096a5 5 0 0 1-.177.56c-.013.03-.032.068-.05.104l-.025.051a.613.613 0 1 1-1.102-.523l.027-.058c.018-.037.036-.076.052-.106q.15-.253.327-.487.325-.47.553-.994a.6.6 0 0 0-.054-.345l.111-.271a7.94 7.94 0 0 1-3.523-4.394l-.27.046a.7.7 0 0 0-.351-.123q-.547.105-1.064.313-.266.12-.542.21a2 2 0 0 1-.157.035h-.022a.612.612 0 1 1-.27-1.19h.009l.008-.002c.05-.012.11-.027.154-.036a5 5 0 0 1 .586-.047q.555-.037 1.093-.18a.85.85 0 0 0 .261-.271l.257-.075a7.9 7.9 0 0 1 1.245-5.505l-.195-.174a.7.7 0 0 0-.122-.353 5.7 5.7 0 0 0-.908-.638 5 5 0 0 1-.506-.295 2 2 0 0 1-.126-.102h-.009a.646.646 0 0 1-.15-.9.59.59 0 0 1 .486-.215.73.73 0 0 1 .441.172c.04.03.088.068.12.096q.216.202.406.427.375.412.823.744a.48.48 0 0 0 .363.035c.02.012.066.045.115.08q.059.044.106.076a7.85 7.85 0 0 1 5.09-2.447l.015-.259a.67.67 0 0 0 .198-.315q.02-.556-.068-1.107a5 5 0 0 1-.084-.58V6.94a.65.65 0 0 1 .165-.464m-.5 7.72.18-3.2a6.285 6.285 0 0 0-3.673 1.761l2.625 1.845a.542.542 0 0 0 .854-.406zm5.369-1.44a6.34 6.34 0 0 0-3.659-1.76l.186 3.204a.542.542 0 0 0 .855.406h.01zm-7.421 3.34-2.397-2.144v.001a6.3 6.3 0 0 0-.886 3.977l3.071-.886v-.011a.542.542 0 0 0 .212-.924zm9.292 1.822a6.4 6.4 0 0 0-.919-3.966l.004.012-2.383 2.133a.541.541 0 0 0 .211.924v.013zm-5.805-1.663h-.982l-.612.762.22.948.883.426.881-.424.22-.949zm2.289 2.62a.5.5 0 0 0-.123-.009v.01a.542.542 0 0 0-.468.75l1.233 2.981a6.3 6.3 0 0 0 2.535-3.19zm-5.21.074a.54.54 0 0 0-.25-.07l-.005-.006a.5.5 0 0 0-.105.01l-3.15.535a6.32 6.32 0 0 0 2.536 3.173l1.22-2.95-.01-.012a.54.54 0 0 0-.236-.68m2.697 1.295a.54.54 0 0 0-.287-.072v.006a.54.54 0 0 0-.456.284l-1.549 2.8a6.3 6.3 0 0 0 4.064.005l-1.553-2.811h-.012a.54.54 0 0 0-.207-.212" clip-rule="evenodd"/></g><defs><clipPath id="a"><path fill="#fff" d="M.5 0h32v32H.5z"/></clipPath></defs></svg>