<svg xmlns="http://www.w3.org/2000/svg" width="33" height="33" fill="none" viewBox="0 0 33 33"><path fill="#111827" fill-rule="evenodd" d="M26.726.501H10.364a1 1 0 1 0 0 2h1.3L9.216 9.228a1 1 0 0 0-.084.23l-5.87 16.145a1 1 0 0 0-.075.205l-1.945 5.35a1 1 0 0 0 1.88.683l1.744-4.796h8.78l-1.496 4.112a1 1 0 1 0 1.88.684l3.231-8.887h9.384l3.231 8.887a1 1 0 1 0 1.88-.684L23.018 7.126 24.7 2.5h2.026a1 1 0 1 0 0-2m-.808 20.453-3.964-10.902-2.945 8.1a1 1 0 0 1-.039.106l-.98 2.696zM21.008 6.8l.011-.029 1.553-4.269h-8.78l-2.248 6.181h8.78zm-6.634 18.246 2.248-6.181h-8.78l-2.248 6.18zm-5.805-8.181 2.248-6.182h8.78l-2.248 6.182z" clip-rule="evenodd"/></svg>