<svg xmlns="http://www.w3.org/2000/svg" width="33" height="32" fill="none" viewBox="0 0 33 32"><g clip-path="url(#a)"><path stroke="#111827" stroke-width="2" d="m2.183 4.4-.212 19.777 11.772 6.822M2.183 4.4 8.015 1l6.012 3.404M2.183 4.4l5.739 3.614m6.105-3.609-.013 12.403m.013-12.403L7.922 8.013m6.092 8.794 4.861-2.753m-4.861 2.753-6.1 3.712m10.961-6.465V7.715m0 6.339 6.029 3.47m-6.029-9.809 6.087-3.548 6.067 3.556m-12.154-.008 6.029 3.595m6.125-3.587V13.9l-6.125 3.623m6.125-9.8-6.125 3.587m0 6.213v6.957L13.745 31h-.002m11.16-13.477V11.31m0 6.213-11.212 6.512M7.921 8.013l-.008 12.506m0 0 5.777 3.516m0 0 .052 6.964"/></g><defs><clipPath id="a"><path fill="#fff" d="M.5 0h32v32H.5z"/></clipPath></defs></svg>