<svg xmlns="http://www.w3.org/2000/svg" width="33" height="32" fill="none" viewBox="0 0 33 32"><g clip-path="url(#a)"><path fill="#111827" fill-rule="evenodd" d="M7.467 0 1.203 3.626l-.22 21.1L13.555 32l12.417-7.275v-6.747l6.044-3.473v-7.34l-6.461-3.802-6.506 3.802v6.747l-5.165 2.945V3.627L7.467 0Zm-.456 7.774-5.026-2.89v19.33l10.986 6.409V24.85l-5.96-3.494V7.774Zm.985-.007 4.996-2.858v12.49l-4.996 2.947V7.766Zm11.548 6.967L8.65 21.074l4.883 2.916 10.932-6.413-4.92-2.843Zm-5.559 10.171 10.916-6.326v5.7l-10.916 6.323v-5.697Zm11.009-13.714-4.938-2.863v5.551l4.938 2.951v-5.639ZM20.528 7.41l4.992-2.903 4.866 2.903-4.866 2.944-4.992-2.944Zm10.482.874-5.022 2.9v5.695l5.022-3.005v-5.59ZM2.52 4.01 7.55 1.125l4.957 2.886L7.55 6.915 2.52 4.011Z" clip-rule="evenodd"/></g><defs><clipPath id="a"><path fill="#fff" d="M.5 0h32v32H.5z"/></clipPath></defs></svg>