<svg xmlns="http://www.w3.org/2000/svg" width="33" height="33" fill="none"><path fill="#111827" fill-rule="evenodd" d="m5.805 25.78 15.378-15.377a1 1 0 1 1 1.414 1.414L7.22 27.195c6.06 3.152 11.9 2.307 16.198-1.695 4.51-4.199 7.497-12.038 7.034-22.952C19.538 2.085 11.7 5.073 7.5 9.583 3.498 13.88 2.653 19.719 5.805 25.78ZM4.33 27.257C.488 20.342 1.267 13.342 6.036 8.22 10.9 2.997 19.736-.093 31.464.597a1 1 0 0 1 .94.94c.69 11.727-2.4 20.564-7.624 25.427-5.122 4.77-12.122 5.548-19.037 1.707l-3.535 3.535a1 1 0 0 1-1.414-1.414l3.535-3.535Z" clip-rule="evenodd"/></svg>