<svg xmlns="http://www.w3.org/2000/svg" width="33" height="32" fill="none" viewBox="0 0 33 32"><path fill="#111827" fill-rule="evenodd" d="M5.953 12.548c0-5.825 4.722-10.547 10.547-10.547s10.547 4.722 10.547 10.547c0 4.154-2.402 7.75-5.897 9.47a1 1 0 0 0-.558.897v3.62h-8.197v-3.627a1 1 0 0 0-.557-.896 10.55 10.55 0 0 1-5.885-9.464M16.5.001C9.57 0 3.953 5.618 3.953 12.548c0 4.715 2.6 8.821 6.442 10.964v3.023a2 2 0 0 0 2 2h8.197a2 2 0 0 0 2-2v-3.016a12.54 12.54 0 0 0 6.455-10.971C29.047 5.618 23.43.001 16.5.001m.186 5.521a1 1 0 0 1 1.154-.818 7.92 7.92 0 0 1 6.477 6.469 1 1 0 1 1-1.972.337 5.92 5.92 0 0 0-4.84-4.834 1 1 0 0 1-.819-1.154M10.403 31a1 1 0 0 1 1-1h10.196a1 1 0 1 1 0 2H11.402a1 1 0 0 1-1-1" clip-rule="evenodd"/></svg>