<svg xmlns="http://www.w3.org/2000/svg" width="33" height="32" fill="none" viewBox="0 0 33 32"><path fill="#111827" fill-rule="evenodd" d="M28.286 4.143a2.214 2.214 0 1 0 0 4.428 2.214 2.214 0 0 0 0-4.428m-1.06 6.294q.509.133 1.06.134a4.214 4.214 0 1 0-2.821-1.083l-3.618 6.718a4.22 4.22 0 0 0-3.25.477l-2.78-2.78a4.214 4.214 0 1 0-6.424.942l-3.618 6.718a4.214 4.214 0 1 0 1.76.949l3.618-6.718a4.22 4.22 0 0 0 3.25-.477l2.78 2.78a4.214 4.214 0 1 0 6.424-.942zm-5.412 7.887.043.023a2.214 2.214 0 1 1-2.643.38l.007-.006.027-.028c.398-.385.94-.622 1.538-.622.371 0 .721.092 1.028.253m-9.6-8.824a2.214 2.214 0 1 0 1.55 3.796l.016-.016.016-.016A2.214 2.214 0 0 0 12.214 9.5M5.743 23.682a2.214 2.214 0 1 0 .042.023l-.021-.012z" clip-rule="evenodd"/></svg>