<svg xmlns="http://www.w3.org/2000/svg" width="33" height="32" fill="none" viewBox="0 0 33 32"><path fill="#111827" fill-rule="evenodd" d="M23.78 0a8.72 8.72 0 0 0-6.167 2.554l-4.55 4.55a1 1 0 0 0 1.415 1.414l4.55-4.55a6.72 6.72 0 0 1 9.504 9.505l-4.55 4.55a1 1 0 0 0 1.414 1.413l4.55-4.549A8.72 8.72 0 0 0 23.779 0Zm-1.114 9.833a1 1 0 0 1 0 1.414L11.748 22.166a1 1 0 0 1-1.414-1.415L21.252 9.833a1 1 0 0 1 1.414 0Zm-13.648 2.73a1 1 0 0 1 0 1.415l-4.55 4.55a6.72 6.72 0 0 0 9.505 9.504l4.55-4.55a1 1 0 0 1 1.413 1.414l-4.549 4.55A8.72 8.72 0 0 1 3.054 17.113l4.55-4.55a1 1 0 0 1 1.414 0Z" clip-rule="evenodd"/></svg>