<svg xmlns="http://www.w3.org/2000/svg" width="33" height="32" fill="none"><path fill="#111827" fill-rule="evenodd" d="M11.5 1a1 1 0 1 0-2 0v4.5a1 1 0 0 0 2 0V1Zm12 25.5a1 1 0 1 0-2 0V31a1 1 0 0 0 2 0v-4.5ZM.5 10a1 1 0 0 1 1.001-1H6a1 1 0 1 1 0 2H1.5a1 1 0 0 1-1-1ZM27 21a1 1 0 0 0 0 2h4.5a1 1 0 0 0 0-2H27ZM6.525 15.368a1 1 0 0 1 0 1.414l-2.121 2.121a6.5 6.5 0 0 0 9.191 9.192l2.122-2.12a1 1 0 0 1 1.414 1.413L15.01 29.51A8.5 8.5 0 0 1 2.99 17.49l2.12-2.122a1 1 0 0 1 1.415 0ZM23.999.002a8.5 8.5 0 0 0-6.01 2.488l-2.12 2.122a1 1 0 0 0 1.414 1.414l2.12-2.121a6.5 6.5 0 0 1 9.193 9.191l-2.122 2.121a1 1 0 0 0 1.415 1.415l2.12-2.122A8.5 8.5 0 0 0 24 .002Z" clip-rule="evenodd"/></svg>