<svg xmlns="http://www.w3.org/2000/svg" width="33" height="32" fill="none"><path stroke="#111827" stroke-linecap="round" stroke-linejoin="round" stroke-width="2" d="M1.37 30s5.043-8.826 5.043-18.913a10.087 10.087 0 0 1 20.174 0C26.587 21.174 31.63 30 31.63 30"/><path fill="#111827" fill-rule="evenodd" d="M22.804 12.978a1.891 1.891 0 1 1-3.783 0 1.891 1.891 0 0 1 3.783 0Zm-8.826 0a1.891 1.891 0 1 1-3.783 0 1.891 1.891 0 0 1 3.783 0Zm-3.416 5.227a1 1 0 0 1 1.342-.447l4.596 2.298 4.596-2.298a1 1 0 1 1 .894 1.788l-5.043 2.522a1 1 0 0 1-.895 0l-5.043-2.522a1 1 0 0 1-.447-1.341Zm2.654 9.897a6.58 6.58 0 0 1 8.976 2.4 1 1 0 0 0 1.73-1.004 8.58 8.58 0 0 0-14.843 0 1 1 0 0 0 1.73 1.004 6.58 6.58 0 0 1 2.407-2.4Z" clip-rule="evenodd"/></svg>