<svg xmlns="http://www.w3.org/2000/svg" width="32" height="32" fill="none" viewBox="0 0 32 32"><path fill="#111827" fill-rule="evenodd" d="M19.44 22.097a.5.5 0 0 0 .684.183l3.28-1.894a.5.5 0 0 0 .183-.683l-1.003-1.739a.52.52 0 0 1 .07-.606 9 9 0 0 0 .654-.81l4.032 3.183v4.81a3.662 3.662 0 0 0 1 7.183 3.66 3.66 0 0 0 1-7.183v-5.295a1 1 0 0 0-.38-.785l-4.601-3.632-.066-.048q.145-.348.262-.71a.52.52 0 0 1 .49-.365h2.005a.5.5 0 0 0 .5-.5V9.418a.5.5 0 0 0-.5-.5h-2.005a.52.52 0 0 1-.49-.366 9 9 0 0 0-1.9-3.286.52.52 0 0 1-.071-.607l1.004-1.739a.5.5 0 0 0-.183-.683L20.124.343a.5.5 0 0 0-.683.183l-1.003 1.738a.52.52 0 0 1-.56.241 9 9 0 0 0-3.799 0 .52.52 0 0 1-.56-.241L12.516.526a.5.5 0 0 0-.683-.183L8.552 2.237a.5.5 0 0 0-.183.683l1.004 1.74c.113.194.08.44-.071.606a9 9 0 0 0-1.9 3.286.52.52 0 0 1-.49.366H4.907a.5.5 0 0 0-.5.5v3.788a.5.5 0 0 0 .5.5h2.005a.52.52 0 0 1 .49.365q.12.374.271.734l-.032.024-4.6 3.632a1 1 0 0 0-.381.785v5.295a3.662 3.662 0 0 0 1 7.183 3.66 3.66 0 0 0 1-7.183v-4.81l4.004-3.162q.297.413.638.789a.52.52 0 0 1 .071.606l-1.004 1.74a.5.5 0 0 0 .183.682l3.28 1.894a.5.5 0 0 0 .684-.183l1.003-1.737a.52.52 0 0 1 .56-.242q.453.098.92.148v3.6a3.662 3.662 0 0 0 1 7.183 3.66 3.66 0 0 0 1-7.183v-3.604q.447-.051.878-.144a.52.52 0 0 1 .56.242zm-3.462-5a5.786 5.786 0 1 0 0-11.57 5.786 5.786 0 0 0 0 11.57M16 25.729a1.66 1.66 0 1 0 0 3.321 1.66 1.66 0 0 0 0-3.32m10.68 2.335a1.66 1.66 0 1 1 3.32 0 1.66 1.66 0 0 1-3.32 0m-23.02-1.66a1.66 1.66 0 1 0 0 3.32 1.66 1.66 0 0 0 0-3.32" clip-rule="evenodd"/></svg>