<svg xmlns="http://www.w3.org/2000/svg" width="32" height="32" fill="none" viewBox="0 0 32 32"><path fill="#111827" fill-rule="evenodd" d="M19.44 22.097a.5.5 0 0 0 .684.183l3.28-1.894a.5.5 0 0 0 .183-.683l-1.003-1.739a.519.519 0 0 1 .07-.606 9.04 9.04 0 0 0 .654-.81l4.032 3.183v4.81a3.662 3.662 0 0 0 1 7.183 3.66 3.66 0 0 0 1-7.183v-5.295a1 1 0 0 0-.38-.785l-4.601-3.632a.99.99 0 0 0-.066-.048c.097-.232.184-.469.262-.71a.52.52 0 0 1 .49-.365h2.005a.5.5 0 0 0 .5-.5V9.418a.5.5 0 0 0-.5-.5h-2.005a.52.52 0 0 1-.49-.366 8.999 8.999 0 0 0-1.9-3.286.519.519 0 0 1-.071-.607l1.004-1.739a.5.5 0 0 0-.183-.683L20.124.343a.5.5 0 0 0-.683.183l-1.003 1.738a.52.52 0 0 1-.56.241 9.042 9.042 0 0 0-3.799 0 .519.519 0 0 1-.56-.241L12.516.526a.5.5 0 0 0-.683-.183L8.552 2.237a.5.5 0 0 0-.183.683l1.004 1.74c.113.194.08.44-.071.606a8.997 8.997 0 0 0-1.9 3.286.52.52 0 0 1-.49.366H4.907a.5.5 0 0 0-.5.5v3.788a.5.5 0 0 0 .5.5h2.005a.52.52 0 0 1 .49.365c.08.25.17.494.271.734a.913.913 0 0 0-.032.024l-4.6 3.632a1 1 0 0 0-.381.785v5.295a3.662 3.662 0 0 0 1 7.183 3.66 3.66 0 0 0 1-7.183v-4.81l4.004-3.162c.198.275.411.538.638.789a.519.519 0 0 1 .071.606l-1.004 1.74a.5.5 0 0 0 .183.682l3.28 1.894a.5.5 0 0 0 .684-.183l1.003-1.737a.519.519 0 0 1 .56-.242c.302.065.609.115.92.148v3.6a3.662 3.662 0 0 0 1 7.183 3.66 3.66 0 0 0 1-7.183v-3.604c.298-.034.59-.082.878-.144a.519.519 0 0 1 .56.242l1.004 1.737Zm-3.462-5a5.786 5.786 0 1 0 0-11.57 5.786 5.786 0 0 0 0 11.57ZM16 25.729a1.66 1.66 0 1 0 0 3.321 1.66 1.66 0 0 0 0-3.32Zm10.68 2.335a1.66 1.66 0 1 1 3.32 0 1.66 1.66 0 0 1-3.32 0Zm-23.02-1.66a1.66 1.66 0 1 0 0 3.32 1.66 1.66 0 0 0 0-3.32Z" clip-rule="evenodd"/></svg>