<svg xmlns="http://www.w3.org/2000/svg" width="33" height="32" fill="none" viewBox="0 0 33 32"><path fill="#111827" fill-rule="evenodd" d="M11.283 2.695A1 1 0 0 0 9.87 1.281L4.427 6.723 2.21 4.504A1 1 0 1 0 .795 5.918L3.72 8.844a1 1 0 0 0 1.415 0zm5.176 1.368a1 1 0 0 0 0 2H31.5a1 1 0 1 0 0-2zm0 10.937a1 1 0 0 0 0 2H31.5a1 1 0 1 0 0-2zm-1 11.938a1 1 0 0 1 1-1H31.5a1 1 0 1 1 0 2h-15.04a1 1 0 0 1-1-1m-4.176-14.72a1 1 0 0 1 0 1.415l-6.148 6.149a1 1 0 0 1-1.415 0L.795 16.856a1 1 0 1 1 1.414-1.414l2.218 2.219 5.442-5.442a1 1 0 0 1 1.414 0m0 12.352a1 1 0 0 0-1.414-1.414l-5.442 5.442-2.218-2.219a1 1 0 0 0-1.414 1.415l2.925 2.925a1 1 0 0 0 1.415 0z" clip-rule="evenodd"/></svg>