<svg xmlns="http://www.w3.org/2000/svg" width="33" height="32" fill="none" viewBox="0 0 33 32"><path fill="#111827" fill-rule="evenodd" d="M4.544 5.218a2.022 2.022 0 1 1-4.044 0 2.022 2.022 0 0 1 4.044 0Zm5.39-1a1 1 0 0 0 0 2H31.5a1 1 0 1 0 0-2H9.935ZM9.937 15a1 1 0 1 0 0 2H31.5a1 1 0 1 0 0-2H9.936Zm-1 11.782a1 1 0 0 1 1-1H31.5a1 1 0 1 1 0 2H9.936a1 1 0 0 1-1-1Zm-6.414-8.76a2.022 2.022 0 1 0 0-4.044 2.022 2.022 0 0 0 0 4.044Zm2.022 8.76a2.022 2.022 0 1 1-4.044 0 2.022 2.022 0 0 1 4.044 0Z" clip-rule="evenodd"/></svg>