<svg xmlns="http://www.w3.org/2000/svg" width="33" height="32" fill="none" viewBox="0 0 33 32"><path fill="#111827" fill-rule="evenodd" d="M13.606 0a6 6 0 0 0-6 6v6.632H2.29a1 1 0 0 0-1 1v17.367a1 1 0 0 0 1 1h28.42a1 1 0 0 0 1-1V13.632a1 1 0 0 0-1-1h-5.316V6a6 6 0 0 0-6-6h-5.788Zm-4 6a4 4 0 0 1 4-4h5.788a4 4 0 0 1 4 4v6.632H9.606V6ZM3.29 14.633v15.367h26.42V14.632H3.29Zm11.445 6.024a1.765 1.765 0 1 1 1.774 1.765H16.49a1.764 1.764 0 0 1-1.756-1.765Zm.765 3.63a3.766 3.766 0 0 1 1-7.394 3.764 3.764 0 0 1 1 7.395v2.451a1 1 0 1 1-2 0v-2.451Z" clip-rule="evenodd"/></svg>