<svg xmlns="http://www.w3.org/2000/svg" width="33" height="32" fill="none" viewBox="0 0 33 32"><path fill="#111827" fill-rule="evenodd" d="M24.85 1.52a1 1 0 0 0-1.413 0L.794 24.164a1 1 0 0 0 0 1.415l4.902 4.902a1 1 0 0 0 1.414 0L29.753 7.837a1 1 0 0 0 0-1.414zm-5.966 7.382 5.26-5.26 3.488 3.488-5.26 5.26zm-1.415 1.414L2.915 24.87l3.488 3.488 14.554-14.554zM8.771 2.117a1 1 0 0 1 1 1v1.914h1.914a1 1 0 1 1 0 2H9.77v1.914a1 1 0 1 1-2 0V7.031H5.857a1 1 0 1 1 0-2H7.77V3.117a1 1 0 0 1 1-1m20.231 13.821a1 1 0 0 0-2 0v2.497h-2.496a1 1 0 1 0 0 2h2.496v2.497a1 1 0 1 0 2 0v-2.497H31.5a1 1 0 1 0 0-2h-2.497zm-7.993 7.16a1 1 0 0 1 1 1v1.33h1.331a1 1 0 1 1 0 2h-1.33v1.332a1 1 0 1 1-2 0v-1.332h-1.332a1 1 0 0 1 0-2h1.331v-1.33a1 1 0 0 1 1-1" clip-rule="evenodd"/></svg>