<svg xmlns="http://www.w3.org/2000/svg" width="33" height="32" fill="none"><path fill="#111827" fill-rule="evenodd" d="M14.876 4C9.146 4 4.5 8.645 4.5 14.375S9.146 24.75 14.876 24.75 25.25 20.105 25.25 14.375 20.605 4 14.876 4ZM2.5 14.375C2.5 7.541 8.04 2 14.876 2 21.71 2 27.25 7.54 27.25 14.375c0 3.057-1.109 5.856-2.946 8.015l5.902 5.902a1 1 0 1 1-1.414 1.415l-5.902-5.903a12.325 12.325 0 0 1-8.014 2.946C8.04 26.75 2.5 21.21 2.5 14.375Zm7.041 0a1 1 0 0 1 1-1h8.667a1 1 0 1 1 0 2h-8.667a1 1 0 0 1-1-1Z" clip-rule="evenodd"/></svg>