<svg xmlns="http://www.w3.org/2000/svg" width="33" height="32" fill="none" viewBox="0 0 33 32"><path fill="#111827" fill-rule="evenodd" d="M2.86.001a1 1 0 0 0-1 1v16.358c0 8.086 6.554 14.64 14.64 14.64s14.64-6.554 14.64-14.64V1.001a1 1 0 0 0-1-1h-9.544a1 1 0 0 0-1 1v8.008a1 1 0 0 0 0 .217v6.758a3.069 3.069 0 0 1-6.138 0V1a1 1 0 0 0-1-1zm18.736 10.117v5.866a5.069 5.069 0 0 1-10.138 0v-5.866H3.86v7.241c0 6.98 5.66 12.64 12.64 12.64s12.64-5.66 12.64-12.64v-7.242zm7.544-2V2h-7.544v6.117zm-25.28 0h7.598V2H3.86z" clip-rule="evenodd"/></svg>