<svg xmlns="http://www.w3.org/2000/svg" width="33" height="32" fill="none" viewBox="0 0 33 32"><path fill="#111827" fill-rule="evenodd" d="M9.049 5.087a10.538 10.538 0 0 1 17.989 7.452c0 4.832-2.697 9.216-5.524 12.468a36.527 36.527 0 0 1-5.014 4.745 36.536 36.536 0 0 1-5.014-4.745c-2.828-3.252-5.524-7.636-5.524-12.468 0-2.795 1.11-5.475 3.087-7.452Zm6.877 26.73L16.5 31l-.573.82a1 1 0 0 0 1.146 0l-.573-.82c.573.82.574.82.574.819l.003-.003.009-.005.028-.02.105-.076a33.52 33.52 0 0 0 1.731-1.377 38.516 38.516 0 0 0 4.073-4.018c2.942-3.383 6.015-8.228 6.015-13.78a12.538 12.538 0 0 0-25.076 0c0 5.552 3.073 10.397 6.014 13.78a38.523 38.523 0 0 0 4.073 4.018 33.592 33.592 0 0 0 1.732 1.377l.104.075.03.02.007.006.003.002ZM12.885 12.54a3.615 3.615 0 1 1 7.23 0 3.615 3.615 0 0 1-7.23 0ZM16.5 6.924a5.615 5.615 0 1 0 0 11.23 5.615 5.615 0 0 0 0-11.23Z" clip-rule="evenodd"/></svg>