<svg xmlns="http://www.w3.org/2000/svg" width="33" height="32" fill="none" viewBox="0 0 33 32"><path fill="#111827" fill-rule="evenodd" d="M9.049 5.087a10.538 10.538 0 0 1 17.989 7.452c0 4.832-2.697 9.216-5.524 12.468a36.527 36.527 0 0 1-5.014 4.745 36.536 36.536 0 0 1-5.014-4.745c-2.828-3.252-5.524-7.636-5.524-12.468 0-2.795 1.11-5.475 3.087-7.452ZM16.493 32H6.115a1 1 0 0 1 0-2h7.542a38.405 38.405 0 0 1-3.682-3.68c-2.941-3.383-6.014-8.228-6.014-13.78a12.538 12.538 0 1 1 25.076 0c0 5.552-3.073 10.397-6.015 13.78a38.396 38.396 0 0 1-3.68 3.68h7.54a1 1 0 0 1 0 2H16.493ZM16.5 8.924a3.615 3.615 0 1 0 0 7.23 3.615 3.615 0 0 0 0-7.23Zm-5.615 3.615a5.615 5.615 0 1 1 11.23 0 5.615 5.615 0 0 1-11.23 0Z" clip-rule="evenodd"/></svg>