<svg xmlns="http://www.w3.org/2000/svg" width="33" height="32" fill="none"><path stroke="#111827" d="M31.366 6.337a.43.43 0 0 0-.29-.102c-.291 0-.666.196-.866.306l-.081.041a2.742 2.742 0 0 1-1.081.272c-.385.013-.716.035-1.148.08-2.557.263-3.697 2.223-4.796 4.118-.598 1.031-1.215 2.097-2.062 2.923-.176.17-.363.327-.559.473-.876.654-1.977 1.115-2.837 1.444-.826.316-1.725.599-2.595.873-.796.25-1.549.487-2.24.745-.312.115-.577.204-.811.282-.63.204-1.085.361-1.747.818-.26.177-.519.368-.696.512a7.29 7.29 0 0 0-1.385 1.46 8.674 8.674 0 0 1-1.163 1.4c-.139.137-.389.204-.76.204-.437 0-.964-.09-1.525-.185-.56-.095-1.172-.205-1.684-.205-.416 0-.733.068-.971.205 0 0-.4.233-.569.535l.166.075c.257.14.495.311.709.511.22.206.468.382.735.524a.652.652 0 0 1 .23.148c-.071.102-.174.234-.281.375-.59.773-.934 1.26-.737 1.526.095.05.2.074.307.07 1.288 0 1.978-.334 2.854-.758.253-.123.511-.25.818-.378.512-.222 1.062-.576 1.645-.95.772-.497 1.571-1.01 2.345-1.259a6.37 6.37 0 0 1 1.966-.276c.819 0 1.68.11 2.51.216.62.08 1.26.162 1.89.205.244.014.47.021.691.021.294 0 .588-.014.88-.046l.07-.024c.442-.272.649-.854.848-1.416.13-.362.238-.688.41-.894.01-.01.021-.02.033-.028a.04.04 0 0 1 .05.008.026.026 0 0 1 0 .017c-.102 2.2-.989 3.596-1.884 4.838l-.607.637s.837 0 1.313-.184c1.739-.52 3.052-1.665 4.008-3.492.235-.469.445-.95.63-1.441.016-.041.168-.117.152.095 0 .062-.008.132-.013.204 0 .043-.006.087-.008.131-.026.307-.103.956-.103.956l.537-.288c1.295-.818 2.294-2.469 3.05-5.037.317-1.07.547-2.133.75-3.069.244-1.125.454-2.09.694-2.464.377-.587.953-.984 1.51-1.37.077-.052.153-.102.228-.157.701-.492 1.398-1.06 1.55-2.118V7.42c.117-.79.022-.986-.08-1.083Z"/></svg>