<svg xmlns="http://www.w3.org/2000/svg" width="33" height="32" fill="none" viewBox="0 0 33 32"><path fill="#111827" fill-rule="evenodd" d="M2.5 16c0-7.732 6.268-14 14-14 7.731 0 13.999 6.268 13.999 14 0 4.535-2.156 8.566-5.5 11.124V22.25a1 1 0 0 0-1-1h-1.5v-4a1 1 0 0 0-1-1H20.38l-2.216-8.863A1.5 1.5 0 0 0 16.71 6.25h-.418a1.5 1.5 0 0 0-1.456 1.137L12.62 16.25H11.5a1 1 0 0 0-1 1v4H9a1 1 0 0 0-1 1v4.874A13.98 13.98 0 0 1 2.5 16m10.879 2.25H20.5v3h-8v-3zm4.94-2H14.68L16.5 8.975zm3.18 7H10v5.152a13.94 13.94 0 0 0 6.5 1.597c2.346 0 4.557-.577 6.5-1.597V23.25h-1.5M16.5 0C7.665 0 .502 7.165.502 16S7.664 31.999 16.5 31.999s15.999-7.163 15.999-16c0-8.835-7.163-15.998-16-15.998" clip-rule="evenodd"/></svg>