<svg xmlns="http://www.w3.org/2000/svg" width="33" height="32" fill="none" viewBox="0 0 33 32"><path fill="#111827" fill-rule="evenodd" d="M1.5 5.625a1 1 0 0 0-1 1v18.75a1 1 0 0 0 1 1h30a1 1 0 0 0 1-1V6.625a1 1 0 0 0-1-1zm1 18.75V7.625h28v16.75zm5.363-13.753a1 1 0 0 0-1.888.46v9.835a1 1 0 1 0 2 0v-5.732l1.767 3.409a1 1 0 0 0 1.768.014l1.912-3.555v5.864a1 1 0 0 0 2 0v-9.835a1 1 0 0 0-1.881-.473l-2.895 5.383zm15.998 7.807 2.4-2.401a1 1 0 1 1 1.415 1.414l-4.097 4.097a.997.997 0 0 1-1.439-.002l-4.095-4.095a1 1 0 0 1 1.415-1.414l2.4 2.4v-7.272a1 1 0 1 1 2 0z" clip-rule="evenodd"/></svg>