<svg xmlns="http://www.w3.org/2000/svg" width="33" height="33" fill="none" viewBox="0 0 33 33"><path fill="#111827" fill-rule="evenodd" d="M31.384 1.213a1.09 1.09 0 0 0-.72-.668 1.15 1.15 0 0 0-.699.023C25.697 2.054 14.635 4.1 3.6.76c-.978-.296-2.036.372-2.1 1.452-.11 1.854-.328 6.665.054 10.977l.012.131c.239 2.696.654 7.381 2.523 11.422.957 2.07 2.315 4.018 4.267 5.448 1.963 1.44 4.468 2.31 7.631 2.31 5.148 0 8.921-1.806 11.444-5.251 2.475-3.38 3.652-8.213 3.96-14.096.245-4.683.294-7.503.263-9.207a22 22 0 0 0-.094-1.846c-.042-.391-.096-.675-.176-.886M3.47 2.807c10.61 3.08 21.117 1.476 26.14-.024.02.303.035.694.044 1.198.03 1.636-.017 4.404-.26 9.066-.3 5.737-1.442 10.104-3.577 13.02-2.086 2.849-5.212 4.432-9.83 4.432-2.773 0-4.855-.755-6.45-1.923-1.605-1.177-2.774-2.817-3.633-4.674-1.721-3.723-2.112-8.121-2.354-10.846l-.004-.045c-.34-3.835-.187-8.122-.076-10.204m6.077 11.998a2.78 2.78 0 0 1 3.214.686 1 1 0 0 0 1.492-1.332 4.784 4.784 0 0 0-7.137 0 1 1 0 1 0 1.492 1.332c.26-.292.58-.526.939-.686m11.353 0a2.78 2.78 0 0 1 3.214.686 1 1 0 0 0 1.492-1.332 4.783 4.783 0 0 0-7.137 0 1 1 0 1 0 1.492 1.332c.261-.292.581-.526.94-.686m-9.55 7.036a1 1 0 0 1 1.386-.28 6.55 6.55 0 0 0 7.25 0 1 1 0 1 1 1.107 1.666 8.55 8.55 0 0 1-9.464 0 1 1 0 0 1-.28-1.386" clip-rule="evenodd"/></svg>