<svg xmlns="http://www.w3.org/2000/svg" width="33" height="33" fill="none" viewBox="0 0 33 33"><path fill="#111827" fill-rule="evenodd" d="M31.357 1.242a1.091 1.091 0 0 0-.72-.668 1.153 1.153 0 0 0-.699.023l.27.776-.27-.776c-4.26 1.484-15.3 3.525-26.313.191-.976-.295-2.034.372-2.098 1.45-.11 1.851-.328 6.653.054 10.956l.012.132c.238 2.69.653 7.366 2.518 11.4.955 2.066 2.31 4.01 4.26 5.438 1.96 1.437 4.46 2.306 7.617 2.306 5.138 0 8.905-1.803 11.423-5.242 2.47-3.373 3.646-8.197 3.953-14.07.244-4.673.293-7.488.262-9.189a21.68 21.68 0 0 0-.094-1.842c-.041-.39-.096-.674-.175-.885Zm-1.73 2.763c-.01-.5-.025-.89-.045-1.193-5.014 1.497-15.498 3.096-26.085.024-.111 2.08-.263 6.355.077 10.181l.004.046c.241 2.72.63 7.109 2.349 10.824.856 1.853 2.024 3.49 3.626 4.664 1.59 1.165 3.668 1.919 6.435 1.919 4.609 0 7.727-1.58 9.81-4.423 2.13-2.91 3.269-7.268 3.568-12.993.244-4.653.29-7.415.26-9.049Zm-20.793 9.32a1 1 0 0 0-1.492 1.333 4.745 4.745 0 0 0 7.079 0 1 1 0 1 0-1.492-1.332 2.746 2.746 0 0 1-4.095 0Zm11.236 0a1 1 0 0 0-1.492 1.333 4.745 4.745 0 0 0 7.079 0 1 1 0 1 0-1.492-1.332 2.746 2.746 0 0 1-4.095 0Zm-8.259 9.821a8.475 8.475 0 0 1 9.378 0 1 1 0 1 1-1.107 1.666 6.476 6.476 0 0 0-7.164 0 1 1 0 1 1-1.107-1.666Z" clip-rule="evenodd"/></svg>