<svg xmlns="http://www.w3.org/2000/svg" width="33" height="33" fill="none" viewBox="0 0 33 33"><path fill="#111827" fill-rule="evenodd" d="M16.5 2.5c-5.365 0-9.714 4.35-9.714 9.714 0 5.365 4.35 9.714 9.714 9.714 5.365 0 9.714-4.349 9.714-9.714 0-5.364-4.35-9.713-9.714-9.713ZM4.786 12.215C4.786 5.745 10.031.501 16.5.501c6.47 0 11.714 5.244 11.714 11.713a11.69 11.69 0 0 1-4.285 9.057V31.5a1 1 0 0 1-1.48.877l-5.918-3.248-5.982 3.25a1 1 0 0 1-1.477-.88V21.273a11.69 11.69 0 0 1-4.286-9.058Zm6.286 10.383v7.22l4.984-2.707a1 1 0 0 1 .958.002l4.915 2.698v-7.213a11.664 11.664 0 0 1-5.429 1.331c-1.959 0-3.805-.48-5.428-1.33ZM16.5 6.787a5.428 5.428 0 1 0 0 10.856 5.428 5.428 0 0 0 0-10.857Zm-7.428 5.427a7.428 7.428 0 1 1 14.856 0 7.428 7.428 0 0 1-14.856 0Z" clip-rule="evenodd"/></svg>