<svg xmlns="http://www.w3.org/2000/svg" width="33" height="32" fill="none" viewBox="0 0 33 32"><path fill="#111827" fill-rule="evenodd" d="M9 8.965c-3.525 0-6.5 3.083-6.5 7.035 0 3.951 2.975 7.035 6.5 7.035 3.526 0 6.5-3.084 6.5-7.035 0-3.952-2.974-7.035-6.5-7.035ZM.5 16c0-4.924 3.742-9.035 8.5-9.035s8.5 4.111 8.5 9.035-3.742 9.035-8.5 9.035S.5 20.924.5 16Zm22.145-4.91c-.516 1.206-.86 2.941-.86 4.91 0 1.969.344 3.703.86 4.909.26.604.542 1.03.805 1.29.26.255.443.3.549.3.106 0 .29-.045.549-.3.263-.26.546-.686.805-1.29.516-1.206.86-2.94.86-4.91 0-1.968-.344-3.703-.86-4.908-.26-.605-.542-1.03-.805-1.29-.26-.255-.443-.3-.549-.3-.106 0-.29.045-.549.3-.263.26-.546.685-.805 1.29Zm-.6-2.712c.51-.504 1.172-.878 1.954-.878s1.443.374 1.954.878c.506.5.915 1.172 1.238 1.925.646 1.509 1.022 3.524 1.022 5.697s-.376 4.188-1.022 5.697c-.323.752-.732 1.425-1.238 1.925-.51.503-1.172.877-1.954.877s-1.443-.374-1.953-.877c-.506-.5-.916-1.173-1.239-1.925-.646-1.51-1.022-3.524-1.022-5.697s.375-4.188 1.022-5.697c.323-.753.733-1.426 1.239-1.925ZM32.5 8.5a1 1 0 1 0-2 0v15a1 1 0 1 0 2 0v-15Z" clip-rule="evenodd"/></svg>