<svg xmlns="http://www.w3.org/2000/svg" width="33" height="32" fill="none" viewBox="0 0 33 32"><g clip-path="url(#a)"><path fill="#111827" fill-rule="evenodd" d="M2.096.595h8.262l.285.259c.34.306.831.877 1.356 1.526.54.669 1.16 1.478 1.77 2.304 1.094 1.481 2.208 3.09 2.748 4.047 2.444-3.954 4.884-6.838 5.845-7.83l.294-.303h8.435l.131.847c1.645 10.608 1.357 23.684 1.01 28.902l-.062.934h-9.407l.29-1.23c1.537-6.519 1.834-14.997 1.788-18.643-.259.448-.543 1.01-.846 1.662-1.392 2.996-3.032 7.598-4.12 10.94l-.224.691H13.66l-.25-.634c-.62-1.577-1.178-3.011-1.684-4.308-1.59-4.082-2.648-6.797-3.401-8.28l-.036-.07-.027.137c-.145.744-.173 1.96-.094 3.515.077 1.532.253 3.317.482 5.158a163.019 163.019 0 0 0 1.58 9.97l.234 1.216-1.237-.027-7.262-.158-.87-.019-.102-.863c-1.234-10.47.135-23.627.97-28.899l.133-.844Zm1.714 2c-.8 5.486-1.905 17.106-.925 26.645l5.154.112a164.718 164.718 0 0 1-1.374-8.887c-.232-1.867-.414-3.704-.495-5.303-.08-1.575-.066-2.999.129-4 .11-.561.235-1.062.397-1.449.082-.193.192-.407.348-.594.16-.19.416-.407.785-.481.38-.076.71.034.945.172.223.13.4.308.535.47.272.324.535.774.799 1.293.802 1.579 1.915 4.436 3.523 8.564v.002c.428 1.098.89 2.285 1.392 3.562H18.2c1.09-3.29 2.633-7.573 3.981-10.474.362-.78.72-1.479 1.058-2.04.318-.527.687-1.051 1.102-1.361.21-.156.568-.362 1.023-.322.509.045.841.364 1.025.652.172.27.266.587.326.884.063.31.101.672.121 1.08v.016l.001.016c.059 3.373-.182 11.446-1.566 18.129h5.022c.303-5.49.466-17.026-.92-26.683h-5.86c-1.03 1.127-3.189 3.762-5.355 7.282a2.82 2.82 0 0 1-.325.566c-.152.204-.408.478-.788.623a1.45 1.45 0 0 1-1.342-.159c-.36-.238-.621-.608-.824-1.004-.377-.736-1.504-2.39-2.718-4.034-.598-.809-1.2-1.594-1.718-2.235-.363-.45-.665-.803-.886-1.042H3.81Zm9.58 25.335a.724.724 0 1 0 0 1.449.724.724 0 0 0 0-1.449Zm-2.724.725a2.724 2.724 0 1 1 5.448 0 2.724 2.724 0 0 1-5.448 0Zm8.367 0a.724.724 0 1 1 1.448 0 .724.724 0 0 1-1.448 0Zm.724-2.725a2.724 2.724 0 1 0 0 5.449 2.724 2.724 0 0 0 0-5.449Z" clip-rule="evenodd"/></g><defs><clipPath id="a"><path fill="#fff" d="M.5 0h32v32H.5z"/></clipPath></defs></svg>