<svg xmlns="http://www.w3.org/2000/svg" width="33" height="32" fill="none" viewBox="0 0 33 32"><path fill="#111827" fill-rule="evenodd" d="M7.912 4.944A13.999 13.999 0 1 1 9.373 28.05a1 1 0 0 0-.8-.11l-5.183 1.48a.25.25 0 0 1-.311-.178.25.25 0 0 1 .002-.131l-.962-.275.962.274 1.48-5.182a1 1 0 0 0-.11-.801A14 14 0 0 1 7.911 4.944Zm11.57 26.775c-3.686.699-7.496.08-10.766-1.741L3.94 31.342a2.25 2.25 0 0 1-2.782-2.782l1.364-4.776a15.999 15.999 0 1 1 16.96 7.935Zm-4.77-18.933a1 1 0 0 0-1.414 0l-5.002 5.002a1 1 0 0 0 1.415 1.414l4.294-4.295 4.295 4.295a1 1 0 0 0 1.414 0l5.002-5.002a1 1 0 0 0-1.414-1.414l-4.295 4.294-4.295-4.294Z" clip-rule="evenodd"/></svg>