<svg xmlns="http://www.w3.org/2000/svg" width="33" height="32" fill="none" viewBox="0 0 33 32"><g clip-path="url(#a)"><path fill="#111827" d="M3.916 19.36c0-5.239 2.62-10.705 5.694-10.705 1.709 0 3.075 1.025 5.239 4.1-2.05 3.188-3.303 5.124-3.303 5.124-2.733 4.327-3.644 5.238-5.124 5.238-1.48.114-2.506-1.252-2.506-3.758m17.88-1.937-1.937-3.188c-.455-.797-1.025-1.594-1.48-2.278 1.708-2.619 3.075-3.986 4.783-3.986 3.416 0 6.15 5.125 6.15 11.502 0 2.392-.798 3.758-2.392 3.758s-2.164-1.025-5.125-5.808M16.898 9.68c-2.506-3.303-4.67-4.555-7.175-4.555C4.486 5.125.5 12.07.5 19.359c0 4.555 2.164 7.403 5.808 7.403 2.619 0 4.441-1.253 7.858-7.175 0 0 1.366-2.505 2.39-4.213.343.569.684 1.138 1.026 1.822l1.594 2.733c3.075 5.238 4.783 6.946 7.858 6.946 3.53 0 5.466-2.96 5.466-7.63-.114-7.743-4.213-14.12-9.11-14.12-2.62 0-4.67 2.05-6.491 4.555"/></g><defs><clipPath id="a"><path fill="#fff" d="M.5 0h32v32H.5z"/></clipPath></defs></svg>