<svg xmlns="http://www.w3.org/2000/svg" width="32" height="32" fill="none"><path stroke="#1C1B1F" stroke-linecap="round" stroke-linejoin="round" stroke-width="2" d="M13.84 13.601H9.52M11.68 19.36v-5.759M13.636 9.761a3.84 3.84 0 1 1 5.244 1.404"/><path stroke="#1C1B1F" stroke-linecap="round" stroke-linejoin="round" stroke-width="2" d="M20.572 6.546a3.12 3.12 0 1 1-.408 3.407"/><path stroke="#1C1B1F" stroke-linejoin="round" stroke-width="2" d="M4.481 9.761H18.88V23.2H4.481z"/><path stroke="#1C1B1F" stroke-width="2" d="M10.517 22.72a5.28 5.28 0 0 0 5.28 5.28h1.02a6.301 6.301 0 0 0 6.302-6.301v-9.937a.081.081 0 0 0-.081-.08h-4.141"/><path stroke="#1C1B1F" stroke-width="2" d="M18.88 11.681h8.582c.032 0 .057.026.057.058v7.142a4.32 4.32 0 0 1-4.32 4.32"/></svg>