<svg xmlns="http://www.w3.org/2000/svg" width="33" height="33" fill="none" viewBox="0 0 33 33"><path fill="#111827" fill-rule="evenodd" d="M16.5.501A6.77 6.77 0 0 0 9.73 7.27v9.23a6.769 6.769 0 0 0 13.538 0V7.27A6.77 6.77 0 0 0 16.499.5M11.73 7.27a4.769 4.769 0 1 1 9.538 0v9.23a4.769 4.769 0 1 1-9.538 0zm-5.663 9.39a1 1 0 0 1 1.105.883 9.385 9.385 0 0 0 9.313 8.341h.028a9.385 9.385 0 0 0 9.313-8.341 1 1 0 0 1 1.987.222A11.385 11.385 0 0 1 17.5 27.84v3.66a1 1 0 0 1-2 0v-3.66A11.385 11.385 0 0 1 5.186 17.765a1 1 0 0 1 .882-1.105" clip-rule="evenodd"/></svg>