<svg xmlns="http://www.w3.org/2000/svg" width="33" height="32" fill="none" viewBox="0 0 33 32"><path fill="#111827" fill-rule="evenodd" d="M17.102.6H17.1a15.4 15.4 0 0 0-12.201 6H1.5a1 1 0 0 0-1 1v16.8a1 1 0 0 0 1 1h3.398A15.4 15.4 0 1 0 17.102.6m-11.687 8H2.5v14.8H18.5V8.6H5.415m7.488 20.126A13.4 13.4 0 0 1 7.547 25.4H16.1v3.962a13.4 13.4 0 0 1-3.197-.636m5.197.636V25.4h1.4a1 1 0 0 0 1-1V17h9.958A13.4 13.4 0 0 1 18.1 29.362M30.458 15H20.5V7.6a1 1 0 0 0-1-1h-1.4V2.638A13.4 13.4 0 0 1 30.458 15M16.1 2.638V6.6H7.547A13.4 13.4 0 0 1 16.1 2.638m-7.975 8.56c-.566 0-1.024.458-1.024 1.023v7.581a1 1 0 1 0 2 0v-1.674h1.4a3.4 3.4 0 0 0 3.4-3.4v-.065a3.465 3.465 0 0 0-3.466-3.466zm2.376 4.93H9.1v-2.93h1.334c.81 0 1.465.655 1.465 1.465v.065a1.4 1.4 0 0 1-1.4 1.4" clip-rule="evenodd"/></svg>