<svg xmlns="http://www.w3.org/2000/svg" width="33" height="33" fill="none" viewBox="0 0 33 33"><path fill="#111827" fill-rule="evenodd" d="M16.5.501a6.128 6.128 0 0 0-6.128 6.128v.085a1 1 0 1 0 2 0V6.63a4.128 4.128 0 1 1 8.256 0v9.56a1 1 0 1 0 2 0v-9.56A6.128 6.128 0 0 0 16.5.5Zm-6.128 11.3L4.65 5.508a1 1 0 0 1 1.48-1.345l22.22 24.443a1 1 0 0 1-1.48 1.345l-4.261-4.688a10.231 10.231 0 0 1-5.109 1.975v4.262a1 1 0 0 1-2 0V27.237a10.23 10.23 0 0 1-9.168-9.044 1 1 0 0 1 1.988-.223 8.231 8.231 0 0 0 8.165 7.316h.03a8.231 8.231 0 0 0 4.74-1.513l-.536-.59h-5.347a5 5 0 0 1-5-5v-6.381Zm2 2.2v4.183a3 3 0 0 0 3 3h3.529l-6.529-7.182Zm13.413 3.087a1 1 0 0 1 .883 1.105 10.23 10.23 0 0 1-1.011 3.426 1 1 0 0 1-1.79-.892c.427-.857.705-1.79.813-2.757a1 1 0 0 1 1.105-.882Z" clip-rule="evenodd"/></svg>