<svg xmlns="http://www.w3.org/2000/svg" width="33" height="32" fill="none" viewBox="0 0 33 32"><path fill="#111827" fill-rule="evenodd" d="M19 0h11.249a1 1 0 0 1 1 1V31a1 1 0 0 1-1 1H7.75a1 1 0 0 1-1-1v-5.25h-4a1 1 0 0 1-1-1V7.25a1 1 0 0 1 1-1h4V1a1 1 0 0 1 1-1zM8.75 6.25H18V2H8.75zM20 2v4.25h1.5a1 1 0 0 1 1 1V10h6.749V2zm9.249 10h-6.75v8h6.75zm0 10h-6.75v2.75a1 1 0 0 1-1 1H20v4.249h9.25zm-11.25 7.999v-4.25H8.75V30zM3.752 8.25H20.5V23.75H3.75zm4.962 3.2a1 1 0 0 1 1.4.2l2.012 2.683 2.012-2.683a1 1 0 0 1 1.6 1.2L13.375 16l2.362 3.15a1 1 0 0 1-1.6 1.2l-2.012-2.683-2.012 2.683a1 1 0 1 1-1.6-1.2L10.875 16l-2.362-3.15a1 1 0 0 1 .2-1.4" clip-rule="evenodd"/></svg>