<svg xmlns="http://www.w3.org/2000/svg" width="33" height="32" fill="none"><path fill="#111827" fill-rule="evenodd" d="M19 0h11.249a1 1 0 0 1 1 1V31a1 1 0 0 1-1 1H7.75a1 1 0 0 1-1-1v-5.25h-4a1 1 0 0 1-1-1V7.25a1 1 0 0 1 1-1h4V1a1 1 0 0 1 1-1H19ZM8.75 6.25H18V2H8.75v4.25ZM20 2v4.25h1.5a1 1 0 0 1 1 1V10h6.749V2h-9.25Zm9.249 10h-6.75v8h6.75v-8Zm0 10h-6.75v2.75a1 1 0 0 1-1 1H20v4.249h9.25v-8Zm-11.25 7.999v-4.25H8.75V30H18ZM3.752 8.25H20.5V23.75H3.75V8.25Zm4.962 3.2a1 1 0 0 1 1.4.2l2.012 2.683 2.012-2.683a1 1 0 0 1 1.6 1.2L13.375 16l2.362 3.15a1 1 0 0 1-1.6 1.2l-2.012-2.683-2.012 2.683a1 1 0 1 1-1.6-1.2L10.875 16l-2.362-3.15a1 1 0 0 1 .2-1.4Z" clip-rule="evenodd"/></svg>