<svg xmlns="http://www.w3.org/2000/svg" width="33" height="32" fill="none" viewBox="0 0 33 32"><path fill="#111827" fill-rule="evenodd" d="M6.75 1a1 1 0 0 1 1-1h22.5a1 1 0 0 1 1 1V31a1 1 0 0 1-1 1H7.75a1 1 0 0 1-1-1v-5.25h-4a1 1 0 0 1-1-1V7.25a1 1 0 0 1 1-1h4V1ZM8.75 30v-4.25H21.5a1 1 0 0 0 1-1V22h6.75v8H8.75ZM29.25 12v8H22.5v-8h6.75Zm0-10v8H22.5V7.25a1 1 0 0 0-1-1H8.75V2h20.5Zm-8.75 8.994V8.25H3.75v15.5H20.5V10.993Zm-2.982 1.648a1 1 0 0 0-1.929-.528l-1.272 4.65-1.394-3.273a1 1 0 0 0-1.838-.005L9.727 16.63 8.67 12.148a1 1 0 0 0-1.947.46l1.75 7.42a1 1 0 0 0 1.892.168l1.631-3.777 1.607 3.772a1 1 0 0 0 1.885-.128l2.03-7.421Z" clip-rule="evenodd"/></svg>