<svg xmlns="http://www.w3.org/2000/svg" width="33" height="33" fill="none" viewBox="0 0 33 33"><path fill="#111827" fill-rule="evenodd" d="M22.344 2.92a8.12 8.12 0 0 0-5.24 1.906l11.49 11.489a8.155 8.155 0 0 0-6.25-13.395m-7.39 1.17a1 1 0 0 1 .109-.094A10.13 10.13 0 0 1 22.343.92C27.954.92 32.5 5.467 32.5 11.075c0 2.856-1.179 5.436-3.076 7.281a1 1 0 0 1-.254.238 10.12 10.12 0 0 1-6.825 2.636q-.715 0-1.404-.096L5.217 31.904a1 1 0 0 1-1.272-.117l-3.15-3.15a1 1 0 0 1-.082-1.322l11.57-14.864q-.093-.676-.093-1.376c0-2.628.998-5.022 2.636-6.826q.055-.085.13-.159m-2.029 10.79L2.833 27.847l1.938 1.938 13.642-9.344a10.2 10.2 0 0 1-5.488-5.561m9.419 4.35a8.1 8.1 0 0 0 4.785-1.55L15.74 6.29a8.155 8.155 0 0 0 6.604 12.94m-9.223 2.482a1 1 0 0 0-1.414-1.414l-1.716 1.716a1 1 0 1 0 1.414 1.414z" clip-rule="evenodd"/></svg>