<svg xmlns="http://www.w3.org/2000/svg" width="33" height="33" fill="none" viewBox="0 0 33 33"><path fill="#111827" fill-rule="evenodd" d="M10.076 6.929H31.5a1 1 0 0 1 1 1v17.142a1 1 0 0 1-1 1H1.5a1 1 0 0 1-1-1V7.929a1 1 0 0 1 1-1h8.575Zm-7.575 8.953v1.236l7.946 6.953h12.105l7.947-6.953v-1.236L22.552 8.93H10.447l-7.946 6.953ZM7.41 8.93 2.5 13.225V8.929h4.91Zm18.178 0 4.91 4.296V8.929h-4.91Zm4.91 10.846-4.91 4.296h4.91v-4.296ZM7.41 24.071 2.5 19.775v4.296h4.91Zm5.804-7.571a3.285 3.285 0 1 1 6.571 0 3.285 3.285 0 0 1-6.57 0Zm3.286-5.286a5.285 5.285 0 1 0 0 10.571 5.285 5.285 0 0 0 0-10.57Z" clip-rule="evenodd"/></svg>