<svg xmlns="http://www.w3.org/2000/svg" width="33" height="33" fill="none" viewBox="0 0 33 33"><path fill="#111827" fill-rule="evenodd" d="M21.908 2.09a1 1 0 1 0-2 0v1.353h-1.354a1 1 0 1 0 0 2h1.354v1.353a1 1 0 0 0 2 0V5.443h1.354a1 1 0 1 0 0-2h-1.354zm2.53 8.414a1 1 0 1 0 0 2H31.5a1 1 0 0 0 0-2zM12.368 4.61a1 1 0 0 0-1.23-1.233 14.533 14.533 0 1 0 17.897 17.898 1 1 0 0 0-1.233-1.231A12.519 12.519 0 0 1 12.368 4.61m-6.26 3.97a12.5 12.5 0 0 1 3.95-2.706 14.52 14.52 0 0 0 16.48 16.48A12.533 12.533 0 1 1 6.107 8.58" clip-rule="evenodd"/></svg>