<svg xmlns="http://www.w3.org/2000/svg" width="33" height="33" fill="none" viewBox="0 0 33 33"><path fill="#111827" fill-rule="evenodd" d="M19.788 8.365a1.542 1.542 0 1 1 3.084 0 1.542 1.542 0 0 1-3.084 0Zm1.542-3.542a3.542 3.542 0 1 0 0 7.084 3.542 3.542 0 0 0 0-7.084ZM3.305 26.177l4.47-7.152h7.79l4.47 7.152H3.304Zm8.365-13.383-2.645 4.231h5.29l-2.645-4.231Zm0-2.887a1 1 0 0 1 .848.47l6.186 9.898 3.982-6.372a1 1 0 0 1 1.696 0l7.965 12.744a1 1 0 0 1-.848 1.53H1.501a1 1 0 0 1-.848-1.53l10.169-16.27a1 1 0 0 1 .848-.47Zm10.723 16.27h7.302l-6.16-9.857-3.652 5.842 2.51 4.015Z" clip-rule="evenodd"/></svg>