<svg xmlns="http://www.w3.org/2000/svg" width="33" height="32" fill="none" viewBox="0 0 33 32"><path fill="#111827" fill-rule="evenodd" d="M1.5 0a1 1 0 0 0-1 1v1.875a1 1 0 0 0 2 0V2h.875a1 1 0 1 0 0-2zm5.625 0a1 1 0 1 0 0 2h3.75a1 1 0 1 0 0-2zm7.5 0a1 1 0 0 0 0 2h3.75a1 1 0 0 0 0-2zm7.5 0a1 1 0 1 0 0 2h3.75a1 1 0 0 0 0-2zm7.5 0a1 1 0 1 0 0 2h.875v.733a1 1 0 1 0 2 0V1a1 1 0 0 0-1-1zM32.5 6.197a1 1 0 1 0-2 0v3.465a1 1 0 1 0 2 0zm-30 .428a1 1 0 1 0-2 0v3.75a1 1 0 1 0 2 0zm30 6.502a1 1 0 1 0-2 0v1.732a1 1 0 1 0 2 0zm-30 .998a1 1 0 1 0-2 0v3.75a1 1 0 1 0 2 0zm0 7.5a1 1 0 0 0-2 0v3.75a1 1 0 1 0 2 0zm0 7.5a1 1 0 0 0-2 0V31a1 1 0 0 0 1 1h1.785a1 1 0 1 0 0-2H2.5zM6.854 30a1 1 0 1 0 0 2h3.57a1 1 0 1 0 0-2zm7.139 0a1 1 0 1 0 0 2h1.784a1 1 0 1 0 0-2zm1.51-13.712a1 1 0 0 1 1.245-1.246l15.04 4.515a1 1 0 0 1 .137 1.863L25.1 24.625l-3.224 6.803a1 1 0 0 1-1.861-.14zm8.423 6.679 4.782-2.246-10.754-3.229 3.228 10.731 2.265-4.78a1 1 0 0 1 .479-.476" clip-rule="evenodd"/></svg>