<svg xmlns="http://www.w3.org/2000/svg" width="32" height="32" fill="none" viewBox="0 0 32 32"><path fill="#1C1B1F" fill-rule="evenodd" d="M20.729 2.112a1.5 1.5 0 0 0-1.5-1.5h-6.51a1.5 1.5 0 0 0-1.5 1.5v6.51a1.5 1.5 0 0 0 1.5 1.5h2.257v3.084H4.754a1 1 0 0 0-1 1v4.916a1 1 0 1 0 2 0v-3.916h9.222v3.916a1 1 0 0 0 2 0v-3.916h8.747v3.916a1 1 0 1 0 2 0v-4.916a1 1 0 0 0-1-1h-9.747v-3.085h2.253a1.5 1.5 0 0 0 1.5-1.5zm-7.51.5h5.51v5.51h-5.51zm-3.71 20.766a1.5 1.5 0 0 0-1.5-1.5H1.5a1.5 1.5 0 0 0-1.5 1.5v6.51a1.5 1.5 0 0 0 1.5 1.5h6.51a1.5 1.5 0 0 0 1.5-1.5zm-7.51.5h5.51v5.51H2zm30.001-.5a1.5 1.5 0 0 0-1.5-1.5h-6.51a1.5 1.5 0 0 0-1.5 1.5v6.51a1.5 1.5 0 0 0 1.5 1.5h6.51a1.5 1.5 0 0 0 1.5-1.5zm-7.51.5H30v5.51h-5.51zm-5.261-2a1.5 1.5 0 0 1 1.5 1.5v6.51a1.5 1.5 0 0 1-1.5 1.5h-6.51a1.5 1.5 0 0 1-1.5-1.5v-6.51a1.5 1.5 0 0 1 1.5-1.5zm-.5 2h-5.51v5.51h5.51z" clip-rule="evenodd"/></svg>