<svg xmlns="http://www.w3.org/2000/svg" width="33" height="33" fill="none" viewBox="0 0 33 33"><path fill="#111827" fill-rule="evenodd" d="M28.9 1.501a1 1 0 0 0-2 0v2.6h-2.6a1 1 0 1 0 0 2h2.6v2.6a1 1 0 1 0 2 0V6.1h2.599a1 1 0 0 0 0-2h-2.6V1.5Zm-4 17.734a3.21 3.21 0 0 0-3.2 3.22 3.21 3.21 0 0 0 3.2 3.22 3.21 3.21 0 0 0 3.2-3.22 3.21 3.21 0 0 0-3.2-3.22Zm-5.2 3.22c0-2.878 2.323-5.22 5.2-5.22 1.207 0 2.318.413 3.2 1.105v-4.562a1 1 0 1 1 2 0v8.445l-.003.072.002.16c0 2.879-2.323 5.22-5.2 5.22-2.876 0-5.2-2.341-5.2-5.22ZM2.5 27.279a3.21 3.21 0 0 1 3.2-3.221 3.21 3.21 0 0 1 3.2 3.22A3.21 3.21 0 0 1 5.7 30.5a3.21 3.21 0 0 1-3.2-3.22Zm3.2-5.221c-2.877 0-5.2 2.342-5.2 5.22 0 2.88 2.323 5.221 5.2 5.221 2.835 0 5.132-2.275 5.198-5.096l.002-.055v-13.29l11.11-2.817a1 1 0 1 0-.492-1.939l-10.618 2.692V7.165l7.702-2.024a1 1 0 1 0-.508-1.934l-8.449 2.22a1 1 0 0 0-.746.967v6.782a.993.993 0 0 0 0 .208v9.78a5.163 5.163 0 0 0-3.2-1.106Z" clip-rule="evenodd"/></svg>