<svg xmlns="http://www.w3.org/2000/svg" width="33" height="33" fill="none" viewBox="0 0 33 33"><path fill="#111827" fill-rule="evenodd" d="M30.137 2.257a6 6 0 0 0-8.491.005l-3.89 3.9c-.127.127-.23.293-.283.492-.908 3.4-4.856 12.142-13.595 21.292a94.958 94.958 0 0 0-2.88 2.862 1 1 0 0 0 1.406 1.42 78.356 78.356 0 0 0 2.888-2.866c2.29-2.184 5.138-4.708 8.101-6.992 2.189-1.688 4.425-3.232 6.535-4.411 2.125-1.187 4.055-1.966 5.645-2.19.243-.035.46-.148.623-.312l4.328-4.328a6 6 0 0 0 0-8.485l-.387-.387ZM18.953 16.213c-2.092 1.169-4.268 2.659-6.38 4.265 3.929-5.652 6.026-10.47 6.767-13.072l3.722-3.732a4 4 0 0 1 5.66-.003l.388.387a4 4 0 0 1 0 5.657l-4.12 4.12c-1.87.323-3.942 1.207-6.037 2.378Zm8.26-9.04A1 1 0 0 0 25.8 5.759l-2.73 2.73a1 1 0 1 0 1.414 1.414l2.73-2.73Z" clip-rule="evenodd"/></svg>