<svg xmlns="http://www.w3.org/2000/svg" width="33" height="32" fill="none" viewBox="0 0 33 32"><path fill="#111827" fill-rule="evenodd" d="m21.157-.001 1.71 1.717 5.863 5.892.29.291v.412l.04 15.486.002.392-.266.288-.998 1.083-.863.937-.061-.093-3.882 3.881-.868.869-.674-1.026-8.875-13.505V32l-1.709-1.717-5.863-5.892-.29-.292-.002-.41-.04-15.487V7.81l.266-.289.998-1.082.863-.937.08.122 3.867-3.906.869-.879.677 1.034 8.866 13.529V-.001m2 4.845v12.36l3.902 5.867-.037-14.344zM8.52 6.809l13.927 21.194 2.764-2.765L11.296 4.004zm2.055 7.987v12.36L6.71 23.273 6.674 8.929z" clip-rule="evenodd"/></svg>