<svg xmlns="http://www.w3.org/2000/svg" width="33" height="32" fill="none" viewBox="0 0 33 32"><g clip-path="url(#a)"><path stroke="#111827" stroke-linejoin="round" stroke-width="2" d="M22.31 2.449c.135-.154.255-.323.354-.508 1.62.987 2.35 2.736 2.197 4.411-.178 1.955-1.565 3.814-4.336 4.12a1 1 0 0 0-.157 1.957c3.617 1.001 6.861-.901 8.115-3.804 3.598 5.047 3.491 9.896 2.182 13.379-.036-.191-.077-.384-.123-.579a1 1 0 0 0-1.961.075c-.26 1.653-.787 3.196-1.682 4.603a9.23 9.23 0 0 1 .162-.607 1 1 0 0 0-1.811-.812c-1.265 2.096-2.85 3.709-4.794 4.779.333-.363.642-.732.937-1.102a1 1 0 0 0-1.119-1.564l-.53.188c1.296-2.012 1.744-4.485 1.212-6.793a1 1 0 0 0-1.966.1c-.115.909-.552 2.017-1.269 3.02-.714 1-1.657 1.826-2.722 2.254-1.089.437-2.8.819-4.62.306a1 1 0 0 0-.378-.97c-1.19-.907-1.256-2.262-1.115-2.826a1.677 1.677 0 0 1 .187-.261c.152-.173.32-.301.47-.358l-.354-.935.354.935c.069-.026.138-.046.204-.06a2.27 2.27 0 0 0 .023 1.484c.17.463.477.82.809 1.08.642.505 1.509.752 2.26.71a1 1 0 0 0 .79-.463 1 1 0 0 0 .813-.13c.56-.37.99-.961 1.33-1.57a.912.912 0 0 1 .181.208 1 1 0 0 0 1.996-.106c-.028-2.199-1.224-4.938-3.396-6.923-2.215-2.025-5.466-3.288-9.571-2.458a1.013 1.013 0 0 0-.078.019.997.997 0 0 0-1.05-.279.998.998 0 0 0-.327-.128.819.819 0 0 1-.14-.06 1.363 1.363 0 0 1-.267-.199 1.409 1.409 0 0 1-.414-.703 1 1 0 0 0-.538-.67c-.48-.232-.609-.45-.644-.543-.035-.09-.042-.225.05-.422.096-.205.279-.424.514-.593.24-.173.456-.24.582-.245C4.702 9.32 5.944 8.061 7.13 6.864c.14-.141.278-.282.417-.419 1.114-1.101 3.236-1.686 5.656-1.71 2.389-.022 4.757.507 6.163 1.303a1 1 0 0 0 1.45-1.158c-.19-.639-.125-.92-.077-1.039.055-.133.167-.264.465-.484.043-.032.096-.069.155-.11.263-.186.658-.464.952-.798ZM15.442 22.32h-.007.007Zm.517.409v-.001Z"/></g><defs><clipPath id="a"><path fill="#fff" d="M.5 0h32v32H.5z"/></clipPath></defs></svg>