<svg xmlns="http://www.w3.org/2000/svg" width="33" height="33" fill="none" viewBox="0 0 33 33"><path fill="#111827" fill-rule="evenodd" d="M.5 3.499a1 1 0 0 1 1-1H31.5a1 1 0 0 1 1 1v26.002a1 1 0 0 1-1.445.895l-4.456-2.212-4.752 2.223a1 1 0 0 1-.877-.015l-4.343-2.209-4.918 2.229a1 1 0 0 1-.854-.014L6.36 28.19l-4.413 2.205A1 1 0 0 1 .5 29.501V3.499Zm2 1v23.384l3.41-1.704a1 1 0 0 1 .888-.003l4.514 2.22 4.927-2.233a1 1 0 0 1 .866.02l4.335 2.205 4.747-2.22a1 1 0 0 1 .869.01l3.443 1.71V4.499H2.501Zm16.5 8a1 1 0 1 0 0 2h7.5a1 1 0 1 0 0-2H19Zm0 5a1 1 0 1 0 0 2h7.5a1 1 0 1 0 0-2H19Zm-12.5-7.5a1 1 0 0 0-1 1v9.999a1 1 0 0 0 1 1H14a1 1 0 0 0 1-1v-10a1 1 0 0 0-1-1H6.5Zm1 9.999v-8H13v8H7.5Z" clip-rule="evenodd"/></svg>