<svg xmlns="http://www.w3.org/2000/svg" width="33" height="32" fill="none" viewBox="0 0 33 32"><path fill="#111827" fill-rule="evenodd" d="M2.5 16c0-7.732 6.268-14 14-14 7.731 0 13.999 6.268 13.999 14 0 4.75-2.366 8.948-5.984 11.48L10.403 7.932l-.043-.058a1 1 0 0 0-1.407-.142 1 1 0 0 0-.368.788v15.396a1 1 0 1 0 2 0V11.6L22.791 28.51a13.94 13.94 0 0 1-6.291 1.49c-7.732 0-14-6.268-14-14m14-16C7.664 0 .5 7.165.5 16s7.164 15.999 16 15.999 15.999-7.163 15.999-16c0-8.835-7.163-15.998-16-15.998m6.125 7.508a1 1 0 0 1 1 1V19.55a1 1 0 1 1-2 0V8.508a1 1 0 0 1 1-1" clip-rule="evenodd"/></svg>