<svg xmlns="http://www.w3.org/2000/svg" width="33" height="32" fill="none" viewBox="0 0 33 32"><path fill="#111827" fill-rule="evenodd" d="M17.826 4.72a1.44 1.44 0 1 0-2.882 0 1.44 1.44 0 0 0 2.882 0Zm-1.441-3.441a3.44 3.44 0 0 1 1 6.733v3.624l3.52 1.97 4.563-4.562a3.44 3.44 0 1 1 1.365 1.464l-4.114 4.113 1.973 1.104a1 1 0 0 1 .512.898v8.723a1 1 0 0 1-.512.873l-7.819 4.375a1 1 0 0 1-.976 0l-7.82-4.375a1 1 0 0 1-.51-.873v-8.748a1 1 0 0 1 .51-.873l1.48-.828-4.39-4.39a3.44 3.44 0 1 1 1.365-1.464l4.84 4.84 4.013-2.246V8.011a3.442 3.442 0 0 1 1-6.733ZM3.441 6.09a1.44 1.44 0 1 0 0 2.881 1.44 1.44 0 0 0 0-2.88Zm25.118 0a1.44 1.44 0 1 1 0 2.881 1.44 1.44 0 0 1 0-2.88Zm-6.39 10.515-5.784-3.236-5.722 3.202 5.84 3.253 5.666-3.219ZM9.566 18.25v6.51l5.906 3.306v-6.526l-5.906-3.29Zm13.638 6.51-5.732 3.208v-6.393l5.732-3.257v6.443Z" clip-rule="evenodd"/></svg>