<svg xmlns="http://www.w3.org/2000/svg" width="33" height="32" fill="none" viewBox="0 0 33 32"><g fill="#111827" fill-rule="evenodd" clip-path="url(#a)" clip-rule="evenodd"><path d="M29.576 7.22 17.566.285a2.133 2.133 0 0 0-2.132 0L3.424 7.219a2.133 2.133 0 0 0-1.066 1.847v13.867c0 .763.406 1.467 1.066 1.848l3.161 1.825a.106.106 0 0 0 .07.013l.318.184.001.001c1.167.673 2.538.459 3.579-.184 1.04-.642 1.858-1.777 1.87-3.1v-.005l-.005-13.458-3.521-.01-.053 13.081v.002c0 .04-.005.066-.009.083h-.01l-2.668-1.515a.106.106 0 0 1-.054-.093V9.95c0-.038.02-.073.054-.092l10.29-5.844a.107.107 0 0 1 .106 0l10.29 5.844a.107.107 0 0 1 .055.092v11.655c0 .038-.021.074-.055.093l-10.29 5.844a.107.107 0 0 1-.105 0l-2.414-1.37a.107.107 0 0 0-.074-.012 2.037 2.037 0 0 0-2.067 3.45c0 .035.017.07.053.09l3.488 2.014c.66.381 1.473.381 2.133 0l12.009-6.933a2.133 2.133 0 0 0 1.066-1.848V9.066c0-.762-.406-1.466-1.066-1.847ZM14.762 30.094l1.205.696c.33.19.736.19 1.066 0l12.01-6.934c.33-.19.533-.543.533-.924V9.066c0-.38-.204-.733-.533-.923l-12.01-6.934c-.33-.19-.736-.19-1.066 0L3.957 8.143c-.33.19-.533.542-.533.923v13.867c0 .381.204.734.534.924l.01.006.018-.03 3.522 2.047c.739.427 1.682.328 2.484-.167.803-.496 1.355-1.324 1.364-2.2l-.005-12.393-1.392-.004-.049 12.02v.002a1.213 1.213 0 0 1-.231.74 1.024 1.024 0 0 1-.631.38c-.432.083-.9-.073-1.268-.286l-.01-.006-2.097-1.274.02-.032-.117-.066a1.066 1.066 0 0 1-.54-.927V9.888c0-.383.207-.738.54-.927l10.398-5.905a1.067 1.067 0 0 1 1.053 0l10.397 5.905c.334.19.54.544.54.927v11.78c0 .383-.206.737-.54.927l-10.397 5.904a1.066 1.066 0 0 1-1.053 0l-.907-.515-.017.029-1.355-.798a.97.97 0 1 0-.974 1.677l2.055 1.179-.014.024Z"/><path d="M15.36 11.074c.97-.685 2.327-1.024 3.94-1.024 1.764 0 3.188.227 4.21.858 1.069.66 1.618 1.708 1.737 3.13l.001.01a.86.86 0 0 1-.22.634.84.84 0 0 1-.623.275h-1.41a.848.848 0 0 1-.826-.666c-.077-.335-.17-.555-.277-.707a.932.932 0 0 0-.407-.329c-.406-.18-1.05-.235-2.185-.235-1.209 0-1.758.215-2.001.404-.203.158-.25.345-.25.585 0 .169.02.21.028.22.004.007.039.065.235.147.428.178 1.278.34 2.986.567 1.658.219 2.996.493 3.918 1.065.477.296.853.676 1.104 1.17.25.489.358 1.056.358 1.7 0 1.353-.576 2.448-1.646 3.185-1.045.72-2.517 1.07-4.29 1.073-2.448 0-4.039-.56-5.017-1.458-.987-.907-1.263-2.074-1.263-3.082 0-.458.367-.844.844-.844h1.404c.42 0 .775.301.839.716v.003c.097.655.27 1.008.625 1.244.404.267 1.14.451 2.56.451 1.126 0 1.83-.131 2.238-.347a.892.892 0 0 0 .374-.334.996.996 0 0 0 .116-.512c0-.146-.017-.204-.036-.24-.016-.031-.066-.105-.255-.202-.414-.21-1.277-.423-3.058-.596-1.488-.147-2.796-.392-3.738-.956-.483-.29-.879-.669-1.15-1.165-.27-.494-.399-1.072-.399-1.735 0-1.267.543-2.304 1.535-3.005Zm.617.871c-.706.499-1.085 1.21-1.085 2.134 0 .524.102.918.269 1.224.166.304.415.553.763.761.72.431 1.814.663 3.293.81 1.773.172 2.824.395 3.438.707.323.165.565.374.712.65.143.268.161.537.161.741 0 .375-.076.732-.26 1.049a1.95 1.95 0 0 1-.797.74c-.65.345-1.577.472-2.736.472-1.454 0-2.467-.177-3.15-.628-.668-.443-.932-1.086-1.06-1.787h-.991c.038.747.278 1.492.912 2.074.706.648 1.99 1.178 4.294 1.178 1.657-.003 2.887-.334 3.687-.885.774-.534 1.185-1.297 1.185-2.306 0-.527-.09-.918-.242-1.218-.15-.296-.38-.539-.715-.747-.704-.436-1.824-.693-3.497-.914-1.664-.22-2.67-.396-3.256-.64-.31-.13-.57-.304-.736-.576-.163-.268-.184-.551-.184-.776 0-.412.097-.986.662-1.426.525-.408 1.368-.628 2.656-.628 1.091 0 1.971.038 2.619.327.346.154.628.378.847.692.184.263.31.571.402.917h.992c-.133-1.027-.543-1.663-1.21-2.075-.761-.47-1.936-.698-3.65-.698-1.483 0-2.597.314-3.324.828Z"/></g><defs><clipPath id="a"><path fill="#fff" d="M.5 0h32v32H.5z"/></clipPath></defs></svg>