<svg xmlns="http://www.w3.org/2000/svg" width="33" height="32" fill="none" viewBox="0 0 33 32"><path fill="#111827" fill-rule="evenodd" d="M13.052.436a1 1 0 0 1 1.39-.263l2.721 1.857a1 1 0 0 1 .263 1.39L15.57 6.14a1 1 0 0 1-1.653-1.127l.668-.978c-6.3.926-11.137 6.355-11.137 12.912 0 3.07 1.058 5.888 2.83 8.117a1 1 0 1 1-1.566 1.244 15 15 0 0 1-3.264-9.36c0-7.384 5.317-13.526 12.33-14.807l-.463-.316a1 1 0 0 1-.263-1.39m8.914 3.524a1 1 0 0 1 1.344-.438c4.889 2.484 8.242 7.563 8.242 13.426 0 3.494-1.191 6.712-3.189 9.266a1 1 0 0 1-1.575-1.232 13 13 0 0 0 2.764-8.034c0-5.081-2.904-9.487-7.148-11.643a1 1 0 0 1-.438-1.345M7.528 27.81a1 1 0 0 1 1.395-.233A13 13 0 0 0 16.5 30c2.632 0 5.08-.778 7.129-2.116a1 1 0 1 1 1.093 1.674 15 15 0 0 1-8.222 2.443 15 15 0 0 1-8.74-2.796 1 1 0 0 1-.232-1.395m11.449-2.803a.5.5 0 0 0 .683.183l2.18-1.259a.5.5 0 0 0 .183-.683l-.62-1.075a.53.53 0 0 1 .069-.608 6.6 6.6 0 0 0 1.296-2.243.53.53 0 0 1 .493-.364h1.24a.5.5 0 0 0 .5-.5V15.94a.5.5 0 0 0-.5-.5h-1.24a.53.53 0 0 1-.493-.365 6.6 6.6 0 0 0-1.297-2.242.53.53 0 0 1-.069-.609l.621-1.075a.5.5 0 0 0-.183-.683L19.66 9.21a.5.5 0 0 0-.683.183l-.62 1.073a.53.53 0 0 1-.561.245 6.7 6.7 0 0 0-2.592 0 .53.53 0 0 1-.561-.245l-.62-1.073a.5.5 0 0 0-.683-.183l-2.18 1.258a.5.5 0 0 0-.183.683l.62 1.075c.113.195.08.44-.068.609a6.6 6.6 0 0 0-1.297 2.242.53.53 0 0 1-.493.364H8.5a.5.5 0 0 0-.5.5v2.518a.5.5 0 0 0 .5.5h1.24c.224 0 .42.15.492.364a6.6 6.6 0 0 0 1.297 2.243.53.53 0 0 1 .069.608l-.62 1.075a.5.5 0 0 0 .182.683l2.18 1.259a.5.5 0 0 0 .683-.183l.62-1.074a.53.53 0 0 1 .561-.245 6.6 6.6 0 0 0 2.592 0c.22-.043.449.05.561.245zM16.5 21.449a4.25 4.25 0 1 0 0-8.5 4.25 4.25 0 0 0 0 8.5" clip-rule="evenodd"/></svg>