<svg xmlns="http://www.w3.org/2000/svg" width="33" height="32" fill="none" viewBox="0 0 33 32"><path fill="#111827" fill-rule="evenodd" d="M9.577 0a1 1 0 0 1 1 1v1.308H15.5V1.001a1 1 0 1 1 2 0v1.307h4.923V1.001a1 1 0 1 1 2 0v1.307h3.83a1 1 0 0 1 1 1V31a1 1 0 0 1-1 1H4.747a1 1 0 0 1-1-1V3.31a1 1 0 0 1 1-1h3.831V1a1 1 0 0 1 1-1m-1 4.308h-2.83V30h21.507V4.31h-2.831v1.307a1 1 0 0 1-2 0V4.308H17.5v1.308a1 1 0 1 1-2 0V4.308h-4.923v1.308a1 1 0 0 1-2 0zM11.885 15a1 1 0 1 0 0 2h9.23a1 1 0 1 0 0-2zm0 4.615a1 1 0 1 0 0 2h9.23a1 1 0 1 0 0-2z" clip-rule="evenodd"/></svg>