<svg xmlns="http://www.w3.org/2000/svg" width="33" height="32" fill="none" viewBox="0 0 33 32"><path fill="#111827" fill-rule="evenodd" d="M.5 31a1 1 0 0 0 1 1h19.532a1 1 0 0 0 .642-.234l10.467-8.76a1 1 0 0 0 .358-.767V1a1 1 0 0 0-1-1H1.501a1 1 0 0 0-1 1zm2-1V2H30.5v19.324h-9.365a1 1 0 0 0-1 1v7.675zm7.546-19.454a1 1 0 0 1 1-1h10.908a1 1 0 1 1 0 2H11.046a1 1 0 0 1-1-1m0 5.454a1 1 0 0 1 1-1h10.908a1 1 0 1 1 0 2H11.046a1 1 0 0 1-1-1m1 4.454a1 1 0 1 0 0 2H16.5a1 1 0 1 0 0-2zm11.088 2.87v5.381l6.463-5.381z" clip-rule="evenodd"/></svg>