<svg xmlns="http://www.w3.org/2000/svg" width="33" height="32" fill="none" viewBox="0 0 33 32"><path fill="#111827" fill-rule="evenodd" d="M.502 10.006h31.996v10.26h-3.794V13.84h-.831v6.427h-2.829V13.84h-.832v6.427h-8.244v1.728H9.763v-1.728H6.929V13.84h-.832v6.427H.502v-10.26m18.521 1v8.26h-4.055v1.728h-4.205v-9.988zm1 8.26h3.19V12.84h2.831v6.427h.829V12.84h2.831v6.427h1.794v-8.26H20.023zm-18.521-8.26v8.26h3.595V12.84H7.93v6.427h1.834v-8.26zm12.651 1.833h2.832v4.56h-2.832v-4.56m1 1v2.56h.832v-2.56z" clip-rule="evenodd"/></svg>