<svg xmlns="http://www.w3.org/2000/svg" width="33" height="32" fill="none" viewBox="0 0 33 32"><path fill="#111827" fill-rule="evenodd" d="M.502 10.006H32.498v10.26h-3.794V13.84h-.831v6.427H25.044V13.84h-.832v6.427h-8.244v1.728H9.763v-1.728H6.929V13.84h-.832v6.427H.502v-10.26Zm18.521 1v8.26h-4.055v1.728h-4.205v-9.988h8.26Zm1 8.26h3.19V12.84h2.831v6.427h.829V12.84h2.831v6.427h1.794v-8.26H20.023v8.26Zm-18.521-8.26v8.26h3.595V12.84H7.93v6.427h1.834v-8.26H1.502Zm12.651 1.833h2.832V17.399h-2.832V12.838Zm1 1v2.56h.832v-2.56h-.832Z" clip-rule="evenodd"/></svg>