<svg xmlns="http://www.w3.org/2000/svg" width="33" height="32" fill="none"><path fill="#111827" fill-rule="evenodd" d="M1.5 0a1 1 0 0 0-1 1V31a1 1 0 0 0 1 1H31.5a1 1 0 0 0 1-1V1.001a1 1 0 0 0-1-1H1.501ZM2.5 30V2.001H30.5v27.998H2.501ZM16.74 9.512a2.437 2.437 0 1 0-.247 4.863h.016a2.434 2.434 0 0 0 1.876-.891c.358-.436.553-.982.553-1.546v-.002a2.428 2.428 0 0 0-.713-1.72v-.002a2.437 2.437 0 0 0-1.485-.702ZM12.4 13.636a4.437 4.437 0 0 0 1.195 1.656 5.063 5.063 0 1 0 7.967 4.147v-.002h-1l1 .002a5.049 5.049 0 0 0-2.157-4.147 4.442 4.442 0 0 0 1.532-3.353l-1-.001h1a4.427 4.427 0 0 0-1.3-3.139 4.438 4.438 0 0 0-7.237 4.837Zm4.092 2.739-2.897-1.083a4.434 4.434 0 0 0 2.897 1.083Zm0 0h.016a3.062 3.062 0 0 1 2.157.897h.001a3.05 3.05 0 0 1 .896 2.164v.001a3.062 3.062 0 1 1-3.07-3.062Z" clip-rule="evenodd"/></svg>