<svg xmlns="http://www.w3.org/2000/svg" width="33" height="32" fill="none" viewBox="0 0 33 32"><path fill="#111827" fill-rule="evenodd" d="M16.5 2.002C8.77 2.002 2.502 8.27 2.502 16S8.77 29.998 16.5 29.998 30.498 23.73 30.498 16 24.23 2.002 16.5 2.002M.502 16C.502 7.165 7.665.002 16.5.002S32.498 7.165 32.498 16 25.335 31.998 16.5 31.998.502 24.835.502 16m20.66.176-.015.026v.001l-.06.098-4.978 8.336a1 1 0 1 1-1.717-1.025l2.86-4.79a5.374 5.374 0 1 1 3.91-2.647M13.126 13.5a3.374 3.374 0 1 1 6.748 0 3.374 3.374 0 0 1-6.748 0" clip-rule="evenodd"/></svg>