<svg xmlns="http://www.w3.org/2000/svg" width="33" height="32" fill="none" viewBox="0 0 33 32"><path fill="#111827" fill-rule="evenodd" d="M16.5 2.002C8.77 2.002 2.502 8.27 2.502 16c0 7.73 6.267 13.998 13.998 13.998 7.73 0 13.998-6.267 13.998-13.998 0-7.73-6.267-13.998-13.998-13.998ZM.502 16C.502 7.165 7.665.002 16.5.002 25.335.002 32.498 7.165 32.498 16c0 8.835-7.163 15.998-15.998 15.998C7.665 31.998.502 24.835.502 16Zm20.66.176a.95.95 0 0 1-.015.026v.001a5.58 5.58 0 0 1-.06.098l-4.978 8.336a1 1 0 1 1-1.717-1.025l2.86-4.79a5.374 5.374 0 1 1 3.91-2.647ZM13.126 13.5a3.374 3.374 0 1 1 6.748 0 3.374 3.374 0 0 1-6.748 0Z" clip-rule="evenodd"/></svg>