<svg xmlns="http://www.w3.org/2000/svg" width="33" height="32" fill="none" viewBox="0 0 33 32"><path fill="#111827" fill-rule="evenodd" d="M1.5 0a1 1 0 0 0-1 1V31a1 1 0 0 0 1 1H31.5a1 1 0 0 0 1-1V1.001a1 1 0 0 0-1-1H1.501ZM2.5 30V2.001H30.5v27.998H2.501Zm11.084-19.056a3.074 3.074 0 0 1 5.68 1.632c0 .384-.052.627-.313 1.072l-.002.003-.088.128c-.064.09-.15.209-.257.355-.214.291-.502.678-.842 1.13-.677.9-1.55 2.048-2.412 3.179a1603.481 1603.481 0 0 1-3.117 4.071l-.214.279-.056.073-.014.019-.004.004v.002h-.001l.793.61-.793-.61a1 1 0 0 0 .793 1.61h7.526a1 1 0 1 0 0-2h-5.498c.613-.8 1.39-1.815 2.175-2.845a615.518 615.518 0 0 0 2.42-3.19c.342-.454.636-.848.857-1.15.202-.274.384-.527.46-.657.435-.742.586-1.332.586-2.084A5.074 5.074 0 0 0 11.89 9.88a1 1 0 1 0 1.694 1.064Z" clip-rule="evenodd"/></svg>