<svg xmlns="http://www.w3.org/2000/svg" width="33" height="32" fill="none" viewBox="0 0 33 32"><path fill="#111827" fill-rule="evenodd" d="M1.5 0a1 1 0 0 0-1 1V31a1 1 0 0 0 1 1H31.5a1 1 0 0 0 1-1V1.001a1 1 0 0 0-1-1H1.501ZM2.5 30V2.001H30.5v27.998H2.501ZM16.74 9.512a2.438 2.438 0 1 0-.247 4.863h.016a2.44 2.44 0 0 0 1.876-.891c.358-.436.553-.982.553-1.546v-.002a2.426 2.426 0 0 0-.713-1.72v-.002a2.438 2.438 0 0 0-1.485-.702ZM12.4 13.636a4.438 4.438 0 0 0 1.195 1.656 5.061 5.061 0 1 0 7.967 4.147l-1-.002h1a5.051 5.051 0 0 0-2.157-4.145 4.443 4.443 0 0 0 1.532-3.353l-1-.001h1a4.426 4.426 0 0 0-1.3-3.138 4.437 4.437 0 0 0-7.237 4.836ZM14.8 16.89a3.063 3.063 0 0 1 1.693-.516h.016a3.063 3.063 0 0 1 2.157.897h.001a3.051 3.051 0 0 1 .896 2.164v.001a3.062 3.062 0 1 1-4.763-2.546Z" clip-rule="evenodd"/></svg>