<svg xmlns="http://www.w3.org/2000/svg" width="33" height="32" fill="none" viewBox="0 0 33 32"><path fill="#111827" fill-rule="evenodd" d="M1.5 0a1 1 0 0 0-1 1V31a1 1 0 0 0 1 1H31.5a1 1 0 0 0 1-1V1.001a1 1 0 0 0-1-1zM2.5 30V2.001H30.5v27.998zM12.869 7.5a1 1 0 1 0 0 2h5.36l-3.632 5.262a1 1 0 0 0 .823 1.569c.874 0 1.831.361 2.566.967s1.147 1.367 1.147 2.117a3.085 3.085 0 0 1-5.486 1.936 1 1 0 1 0-1.556 1.256 5.084 5.084 0 0 0 9.043-3.192c0-1.506-.818-2.787-1.875-3.66a6.4 6.4 0 0 0-2.122-1.152l3.82-5.535a1 1 0 0 0-.824-1.568z" clip-rule="evenodd"/></svg>