<svg xmlns="http://www.w3.org/2000/svg" width="33" height="32" fill="none"><path fill="#111827" fill-rule="evenodd" d="M1.5 0a1 1 0 0 0-1 1V31a1 1 0 0 0 1 1H31.5a1 1 0 0 0 1-1V1.001a1 1 0 0 0-1-1H1.501ZM2.5 30V2.001H30.5v27.998H2.501Zm10-14c0-1.9.516-3.576 1.297-4.747.785-1.179 1.76-1.752 2.703-1.752.942 0 1.918.573 2.703 1.752.781 1.171 1.297 2.847 1.297 4.748 0 1.901-.516 3.577-1.297 4.748-.785 1.179-1.76 1.752-2.703 1.752-.942 0-1.918-.573-2.703-1.752C13.016 19.577 12.5 17.901 12.5 16Zm4-8.499c-1.82 0-3.344 1.106-4.367 2.642C11.103 11.685 10.5 13.76 10.5 16c0 2.24.604 4.315 1.633 5.858C13.157 23.393 14.68 24.5 16.5 24.5s3.343-1.107 4.367-2.642C21.896 20.315 22.5 18.24 22.5 16c0-2.24-.604-4.315-1.633-5.858C19.843 8.606 18.32 7.5 16.5 7.5Z" clip-rule="evenodd"/></svg>