<svg xmlns="http://www.w3.org/2000/svg" width="33" height="32" fill="none" viewBox="0 0 33 32"><path fill="#111827" fill-rule="evenodd" d="M16.5 2c-7.732 0-14 6.268-14 14 0 7.731 6.268 13.999 14 13.999 7.731 0 13.999-6.268 13.999-14 0-7.73-6.268-13.998-14-13.998M.5 16c0-8.836 7.164-16 16-16s15.999 7.164 15.999 16-7.163 15.999-16 15.999c-8.835 0-15.998-7.163-15.998-16m17.763-8.983a1 1 0 0 1 .345 1.371l-2.86 4.79q.369-.053.752-.053a5.375 5.375 0 1 1-4.582 2.564l4.973-8.326a1 1 0 0 1 1.372-.346m-4.677 9.78a3.375 3.375 0 1 0 .03-.05z" clip-rule="evenodd"/></svg>