<svg xmlns="http://www.w3.org/2000/svg" width="33" height="32" fill="none" viewBox="0 0 33 32"><path fill="#111827" fill-rule="evenodd" d="M16.5 2c-7.732 0-14 6.268-14 14 0 7.731 6.268 13.999 14 13.999 7.731 0 13.999-6.268 13.999-14 0-7.73-6.268-13.998-14-13.998M.5 16c0-8.836 7.164-16 16-16s15.999 7.164 15.999 16-7.163 15.999-16 15.999c-8.835 0-15.998-7.163-15.998-16M16.74 9.512a2.437 2.437 0 1 0-.247 4.863h.015a2.44 2.44 0 0 0 1.877-.891c.358-.436.553-.982.553-1.546v-.002a2.43 2.43 0 0 0-.713-1.72v-.002a2.44 2.44 0 0 0-1.485-.702m-.247 6.863h.016q.146 0 .292.015c.705.07 1.364.38 1.865.882h.001a3.05 3.05 0 0 1 .896 2.164v.001a3.062 3.062 0 1 1-3.07-3.062m-2.897-1.083A4.437 4.437 0 1 1 19.637 8.8l-.707.707.708-.707a4.43 4.43 0 0 1 1.3 3.138 4.44 4.44 0 0 1-1.533 3.354 5.07 5.07 0 0 1 2.157 4.146 5.062 5.062 0 1 1-7.967-4.146m7.967 4.146h-1zm-.625-7.5h-1z" clip-rule="evenodd"/></svg>