<svg xmlns="http://www.w3.org/2000/svg" width="33" height="32" fill="none" viewBox="0 0 33 32"><path fill="#111827" fill-rule="evenodd" d="M1.5 0a1 1 0 0 0-1 1V31a1 1 0 0 0 1 1H31.5a1 1 0 0 0 1-1V1.001a1 1 0 0 0-1-1zM2.5 30V2.001H30.5v27.998zm10-14c0-1.9.516-3.576 1.297-4.747.785-1.179 1.76-1.752 2.703-1.752s1.918.573 2.703 1.752C19.984 12.423 20.5 14.099 20.5 16s-.516 3.577-1.297 4.748c-.785 1.179-1.76 1.752-2.703 1.752s-1.918-.573-2.703-1.752C13.016 19.577 12.5 17.901 12.5 16m4-8.499c-1.82 0-3.344 1.106-4.367 2.642C11.103 11.685 10.5 13.76 10.5 16s.604 4.315 1.633 5.858C13.157 23.393 14.68 24.5 16.5 24.5s3.343-1.107 4.367-2.642C21.896 20.315 22.5 18.24 22.5 16s-.604-4.315-1.633-5.858C19.843 8.606 18.32 7.5 16.5 7.5" clip-rule="evenodd"/></svg>