<svg xmlns="http://www.w3.org/2000/svg" width="33" height="32" fill="none" viewBox="0 0 33 32"><path fill="#111827" fill-rule="evenodd" d="M2.5 16c0-7.732 6.268-14 14-14 7.731 0 13.999 6.268 13.999 14 0 7.731-6.268 13.999-14 13.999-7.73 0-13.998-6.268-13.998-14m14-16C7.664 0 .5 7.165.5 16s7.164 15.999 16 15.999 15.999-7.163 15.999-16c0-8.835-7.163-15.998-16-15.998m-2.526 8.125a1 1 0 0 0-.987.84l-1.224 7.531a1 1 0 0 0 1.694.868 3.375 3.375 0 1 1 0 4.772 1 1 0 0 0-1.414 1.414 5.375 5.375 0 1 0 2.043-8.88l.739-4.545h5.425a1 1 0 0 0 0-2z" clip-rule="evenodd"/></svg>