<svg xmlns="http://www.w3.org/2000/svg" width="33" height="32" fill="none" viewBox="0 0 33 32"><path stroke="#111827" stroke-linecap="round" stroke-linejoin="round" stroke-width="2" d="M22.358 9.5a5.32 5.32 0 0 1-1.716 3.89 6.131 6.131 0 0 1-8.284 0 5.266 5.266 0 0 1 0-7.78 6.131 6.131 0 0 1 8.284 0 5.32 5.32 0 0 1 1.716 3.89v0Z"/><path stroke="#111827" stroke-linecap="round" stroke-linejoin="round" stroke-width="2" d="M23.423 21.5a6.287 6.287 0 0 1-2.028 4.596 7.246 7.246 0 0 1-9.79 0 6.223 6.223 0 0 1 0-9.192 7.246 7.246 0 0 1 9.79 0 6.289 6.289 0 0 1 2.028 4.596Z"/></svg>