<svg xmlns="http://www.w3.org/2000/svg" width="33" height="32" fill="none" viewBox="0 0 33 32"><path fill="#111827" fill-rule="evenodd" d="M2.5 16c0-7.732 6.268-14 14-14 7.731 0 13.999 6.268 13.999 14 0 7.731-6.268 13.999-14 13.999-7.73 0-13.998-6.268-13.998-14Zm14-16C7.664 0 .5 7.165.5 16s7.164 15.999 16 15.999 15.999-7.163 15.999-16c0-8.835-7.163-15.998-16-15.998Zm-3.632 7.5a1 1 0 1 0 0 2h5.36l-3.632 5.263a1 1 0 0 0 .823 1.568c.874 0 1.831.361 2.566.967.735.606 1.147 1.367 1.147 2.117a3.085 3.085 0 0 1-5.486 1.936 1 1 0 1 0-1.556 1.256 5.084 5.084 0 0 0 9.043-3.192c0-1.506-.818-2.787-1.875-3.66a6.385 6.385 0 0 0-2.122-1.152l3.82-5.535a1 1 0 0 0-.824-1.568h-7.264Z" clip-rule="evenodd"/></svg>