<svg xmlns="http://www.w3.org/2000/svg" width="33" height="32" fill="none" viewBox="0 0 33 32"><g clip-path="url(#a)"><path stroke="#111827" stroke-width="2" d="m18.327 13.57-3.922-6.58c-.7-1.188-2.42-1.188-3.12 0L1.753 23.157c-.712 1.207.158 2.731 1.56 2.731h7.595a6.778 6.778 0 0 0 5.875-3.398l5.147-8.95 5.398 9.264H20.12l-1.765 3.098h11.33c1.402 0 2.272-1.524 1.56-2.732L23.54 10.098c-.701-1.189-2.42-1.189-3.121 0l-2.092 3.473Zm-1.82 3.022-3.604-6.167L5.642 22.84l3.541.023a6.25 6.25 0 0 0 5.112-2.598l2.213-3.673Z" clip-rule="evenodd"/></g><defs><clipPath id="a"><path fill="#fff" d="M.5 0h32v32H.5z"/></clipPath></defs></svg>