<svg xmlns="http://www.w3.org/2000/svg" width="32" height="32" fill="none" viewBox="0 0 32 32"><path fill="#111827" fill-rule="evenodd" d="M10.958.31 10.4.16 9.992.57 4.418 6.143l-.408.408.15.558 2.007 7.494-.185.186-5.574 5.574L0 20.77l.15.558 2.04 7.614.149.558.558.15 7.614 2.04.558.149.408-.408.054-.054.032-.031 5.489-5.489.093-.093.292.078 7.615 2.04.557.15.408-.409.057-.056.03-.028 5.488-5.49.408-.408-.15-.557-2.008-7.497-.006-.023-.026-.095-.15-.558-.557-.15-7.614-2.04-.167-.044-.001-.006-2.009-7.496a1.107 1.107 0 0 0-.01-.033l-.022-.086-.15-.557-.557-.15L10.958.31ZM6.241 7.149l4.757-4.758 5.384 1.443-4.421 4.42-.414.414.158.563 1.639 5.854-5.362-1.437-1.741-6.5Zm11.555-1.9L13.79 9.256l1.493 5.332 3.957-3.956-1.443-5.383ZM16.771 17.56l4.758-4.757 5.383 1.442-4.42 4.421-.414.414.157.563 1.64 5.853-5.363-1.436-1.74-6.5Zm11.556-1.9L24.32 19.67 25.813 25l3.956-3.957-1.442-5.383Zm-21.339.95L2.23 21.37l1.742 6.499 5.362 1.436-1.64-5.853-.157-.563.414-.413 4.42-4.421-5.383-1.443Zm2.791 6.865 4.007-4.007 1.443 5.383-3.957 3.956-1.493-5.332Z" clip-rule="evenodd"/></svg>