<svg xmlns="http://www.w3.org/2000/svg" width="33" height="32" fill="none" viewBox="0 0 33 32"><path fill="#111827" fill-rule="evenodd" d="M16.5 2c-7.732 0-14 6.268-14 14s6.268 14 14 14 14-6.268 14-14-6.268-14-14-14ZM.5 16c0-8.836 7.163-16 16-16s16 7.164 16 16c0 8.837-7.163 16-16 16S.5 24.838.5 16Zm25.409 0a1.841 1.841 0 1 0-3.683 0 1.841 1.841 0 0 0 3.683 0Zm-5.126 8.377a9.408 9.408 0 0 0 4.321-4.572l-3.438-1.52a5.649 5.649 0 1 1 .01-4.548l3.444-1.505a9.408 9.408 0 1 0-4.337 12.145Z" clip-rule="evenodd"/></svg>