<svg xmlns="http://www.w3.org/2000/svg" width="33" height="32" fill="none" viewBox="0 0 33 32"><g clip-path="url(#a)"><path fill="#111827" d="M30.21 13.095a7.981 7.981 0 0 0-.689-6.548 8.062 8.062 0 0 0-8.68-3.867 8.087 8.087 0 0 0-13.7 2.896 7.98 7.98 0 0 0-5.33 3.866 8.062 8.062 0 0 0 .99 9.462 7.973 7.973 0 0 0 .681 6.548 8.068 8.068 0 0 0 8.686 3.867A7.98 7.98 0 0 0 18.18 32a8.075 8.075 0 0 0 7.695-5.608 7.985 7.985 0 0 0 5.33-3.867 8.075 8.075 0 0 0-.996-9.43Zm-12.03 16.81a5.967 5.967 0 0 1-3.835-1.387l.189-.107 6.37-3.678a1.06 1.06 0 0 0 .524-.908v-8.983l2.694 1.558a.096.096 0 0 1 .05.07v7.443a6.006 6.006 0 0 1-5.992 5.993Zm-12.881-5.5a5.96 5.96 0 0 1-.713-4.018l.19.113 6.377 3.678a1.028 1.028 0 0 0 1.04 0l7.79-4.491v3.11a.107.107 0 0 1-.043.081L13.487 26.6a5.999 5.999 0 0 1-8.188-2.195ZM3.62 10.527a5.98 5.98 0 0 1 3.154-2.63v7.57a1.022 1.022 0 0 0 .517.902l7.753 4.472-2.694 1.558a.1.1 0 0 1-.094 0l-6.44-3.715a6.005 6.005 0 0 1-2.196-8.188v.031Zm22.128 5.142-7.777-4.517L20.659 9.6a.101.101 0 0 1 .095 0l6.44 3.722a5.993 5.993 0 0 1-.902 10.805v-7.57a1.054 1.054 0 0 0-.543-.888Zm2.681-4.031-.189-.114-6.365-3.709a1.035 1.035 0 0 0-1.047 0l-7.784 4.491v-3.11a.089.089 0 0 1 .038-.082l6.44-3.715a6 6 0 0 1 8.907 6.213v.026ZM11.575 17.15l-2.693-1.552a.107.107 0 0 1-.05-.076V8.1a5.999 5.999 0 0 1 9.834-4.605l-.19.107-6.37 3.678a1.06 1.06 0 0 0-.524.908l-.007 8.964Zm1.464-3.154 3.469-2 3.476 2v3.999l-3.463 2-3.476-2-.006-4Z"/></g><defs><clipPath id="a"><path fill="#fff" d="M.5 0h32v32H.5z"/></clipPath></defs></svg>