<svg xmlns="http://www.w3.org/2000/svg" width="33" height="32" fill="none" viewBox="0 0 33 32"><g clip-path="url(#a)"><path fill="#111827" fill-rule="evenodd" d="M11.032 31.55a7.2 7.2 0 0 0 5.422-2.448 7.227 7.227 0 0 0 11.493-8.701 7.23 7.23 0 0 0-4.34-13.751 7.229 7.229 0 0 0-14.342.266 7.227 7.227 0 0 0-4.432 13.688 7.227 7.227 0 0 0 6.198 10.947m5.468-7.649a7.227 7.227 0 1 0 0-14.454 7.227 7.227 0 0 0 0 14.454" clip-rule="evenodd"/></g><defs><clipPath id="a"><path fill="#fff" d="M.5 0h32v32H.5z"/></clipPath></defs></svg>