<svg xmlns="http://www.w3.org/2000/svg" width="33" height="32" fill="none" viewBox="0 0 33 32"><g clip-path="url(#a)"><path fill="#111827" fill-rule="evenodd" d="M32.5 16c0 .49-.022.976-.065 1.455a.1.1 0 0 1-.1.09H.666a.1.1 0 0 1-.1-.09 16.204 16.204 0 0 1 0-2.91.1.1 0 0 1 .1-.09h31.67a.1.1 0 0 1 .1.09c.043.48.065.965.065 1.455Zm-1.87-7.397a.1.1 0 0 1 .09.054c.476.922.866 1.896 1.159 2.912a.1.1 0 0 1-.096.127H1.217a.1.1 0 0 1-.096-.127c.293-1.016.683-1.99 1.16-2.912a.1.1 0 0 1 .088-.054h28.262Zm-1.977-2.759c.084 0 .13-.098.076-.162A15.966 15.966 0 0 0 16.5 0 15.965 15.965 0 0 0 4.271 5.682a.099.099 0 0 0 .076.162h24.306ZM2.369 23.396a.1.1 0 0 1-.088-.053 15.892 15.892 0 0 1-1.16-2.912.1.1 0 0 1 .096-.126h30.566a.1.1 0 0 1 .095.126 15.895 15.895 0 0 1-1.159 2.912.1.1 0 0 1-.088.053H2.369Zm1.978 2.76a.099.099 0 0 0-.076.162A15.965 15.965 0 0 0 16.5 32c4.905 0 9.294-2.207 12.229-5.682a.099.099 0 0 0-.076-.163H4.347Z" clip-rule="evenodd"/></g><defs><clipPath id="a"><path fill="#fff" d="M.5 0h32v32H.5z"/></clipPath></defs></svg>