<svg xmlns="http://www.w3.org/2000/svg" width="33" height="33" fill="none" viewBox="0 0 33 33"><path fill="#111827" fill-rule="evenodd" d="M16.988.628a1 1 0 0 0-.976 0l-13.404 7.5a1 1 0 0 0-.512.873V24a1 1 0 0 0 .512.872l13.404 7.5a1 1 0 0 0 .976 0l13.404-7.5a1 1 0 0 0 .512-.872V9.024a1 1 0 0 0-.512-.895L16.988.629ZM16.5 2.647l11.37 6.362-4.391 2.494-11.426-6.368L16.5 2.647Zm12.404 8.074-4.443 2.524v6.695a1 1 0 1 1-2 0v-5.559l-4.812 2.734V29.71l11.255-6.298v-12.69ZM15.649 29.877V17.052L4.096 10.617v12.795l11.553 6.465Zm1.17-14.59a1.003 1.003 0 0 0-.249-.012L5.225 8.956l4.778-2.674 11.442 6.377-4.626 2.628Z" clip-rule="evenodd"/></svg>