<svg xmlns="http://www.w3.org/2000/svg" width="33" height="32" fill="none"><path fill="#111827" fill-rule="evenodd" d="M.794 15.293a1 1 0 0 0 0 1.414L14.15 30.064a1 1 0 0 0 1.414 0l13.357-13.357a1 1 0 0 0 0-1.414L15.564 1.936a1 1 0 0 0-1.414 0L9.2 6.887 6.091 3.78a1 1 0 0 0-1.414 1.414l3.107 3.107-6.991 6.992Zm8.405-5.577L2.915 16l11.942 11.942L26.8 16 14.857 4.058 10.614 8.3l3.821 3.822a3.485 3.485 0 1 1-1.414 1.414L9.2 9.716Zm5.84 4.426-.015.015a1.485 1.485 0 1 0 .031-.031l-.015.016Zm13.975 7.014.707-.707a1 1 0 0 0-1.414 0l.707.707Zm0 0 .707-.706.002.001.003.003.008.008.026.027.092.097a12.899 12.899 0 0 1 1.237 1.57c.654.98 1.41 2.428 1.41 3.97a3.485 3.485 0 1 1-6.97 0c0-1.542.756-2.99 1.41-3.97a12.899 12.899 0 0 1 1.328-1.667l.027-.027.008-.008.003-.003v-.001h.001l.708.706Zm.41 2.108c-.139-.209-.279-.401-.41-.572a10.6 10.6 0 0 0-.41.572c-.589.883-1.075 1.921-1.075 2.863a1.485 1.485 0 1 0 2.97 0c0-.942-.486-1.98-1.075-2.863Z" clip-rule="evenodd"/></svg>