<svg xmlns="http://www.w3.org/2000/svg" width="33" height="32" fill="none" viewBox="0 0 33 32"><path fill="#111827" fill-rule="evenodd" d="M18.238 12.484a59.512 59.512 0 0 0-1.7 2.1 8.61 8.61 0 0 1 2.842 2.842 59.418 59.418 0 0 0 2.1-1.7 11.354 11.354 0 0 0-3.242-3.242Zm-.968-1.941a60.99 60.99 0 0 0-2.597 3.185 8.616 8.616 0 0 0-5.93.242 8.61 8.61 0 0 0-5.315 7.955c0 .949-.102 1.79-.265 2.529L.871 28.759a1 1 0 0 0 .63 1.776h10.537a8.61 8.61 0 0 0 8.198-11.244 60.94 60.94 0 0 0 3.215-2.624c1.31-1.148 2.7-2.473 3.984-3.908 2.665-2.98 5.064-6.64 5.064-10.295a1 1 0 0 0-1-1c-3.655 0-7.315 2.4-10.294 5.065-1.437 1.285-2.764 2.677-3.913 3.989a.867.867 0 0 0-.022.025Zm2.301.428c1.34.922 2.5 2.082 3.422 3.421a42.387 42.387 0 0 0 2.951-2.966c2.29-2.56 4.06-5.308 4.466-7.873-2.564.407-5.313 2.177-7.872 4.467a42.354 42.354 0 0 0-2.967 2.95ZM3.161 24.459l.002-.005 5.58-10.484L3.162 24.46ZM.877 28.755l2.286-4.296a9.373 9.373 0 0 1-1.06 2.74c-.326.556-.65.958-.884 1.216a4.64 4.64 0 0 1-.336.335l-.006.005Zm0 0H.874v.001H.874l-.002.002.004-.003Zm12.452-13.313a6.61 6.61 0 0 0-7.9 6.483c0 2.83-.788 4.906-1.602 6.288-.065.112-.132.22-.197.322h8.41a6.61 6.61 0 0 0 1.289-13.093Z" clip-rule="evenodd"/></svg>