<svg xmlns="http://www.w3.org/2000/svg" width="33" height="32" fill="none" viewBox="0 0 33 32"><path fill="#111827" fill-rule="evenodd" d="M31.312 1.114a3.8 3.8 0 0 0-5.375 0l-8.343 8.342-2.792-2.62a1 1 0 0 0-1.385.015L.874 19.18a1 1 0 0 0-.006 1.42l11.107 11.107a1 1 0 0 0 1.414 0l12.097-12.097a1 1 0 0 0 0-1.414l-2.94-2.94 8.766-8.766a3.8 3.8 0 0 0 0-5.375M27.35 2.528a1.8 1.8 0 0 1 2.546 2.547l-9.472 9.473a1 1 0 0 0 0 1.414l2.94 2.94-2.863 2.863-9.62-9.619 3.252-3.195 2.798 2.627a1 1 0 0 0 1.392-.022zM9.456 13.548l-6.46 6.35 2.3 2.3 3.723-3.722a1 1 0 0 1 1.415 1.414L6.71 23.613l2.33 2.329 3.723-3.723a1 1 0 0 1 1.414 1.414l-3.723 3.723 2.228 2.229 6.405-6.405z" clip-rule="evenodd"/></svg>