<svg xmlns="http://www.w3.org/2000/svg" width="33" height="32" fill="none" viewBox="0 0 33 32"><path stroke="#111827" stroke-linecap="round" stroke-linejoin="round" stroke-width="2" d="M31.127 19.656c.258-1.136.383-2.3.372-3.465C31.43 7.936 24.6 1.237 16.346 1.321a15.002 15.002 0 0 0-4.842 29.146A3.751 3.751 0 0 0 16.5 26.93v-.61a3.75 3.75 0 0 1 3.75-3.75h7.22a3.749 3.749 0 0 0 3.657-2.914Z"/><path fill="#111827" fill-rule="evenodd" d="M18.375 8.195a1.875 1.875 0 1 1-3.75 0 1.875 1.875 0 0 1 3.75 0Zm-7.036 4.062a1.875 1.875 0 1 1-3.75 0 1.875 1.875 0 0 1 3.75 0Zm-1.875 10a1.875 1.875 0 1 0 0-3.75 1.875 1.875 0 0 0 0 3.75Zm15.947-10a1.875 1.875 0 1 1-3.75 0 1.875 1.875 0 0 1 3.75 0Z" clip-rule="evenodd"/></svg>