<svg xmlns="http://www.w3.org/2000/svg" width="33" height="32" fill="none" viewBox="0 0 33 32"><path fill="#111827" fill-rule="evenodd" d="M13.883 2.26A13.4 13.4 0 0 0 3.147 14.4h6.394c.04-5.4 2.27-9.6 4.342-12.14ZM9.666 16.4H5.03l8.115 5.987-3.41-5.842a1.004 1.004 0 0 1-.07-.145Zm10.404 5.755 7.715-5.755h-4.341a.998.998 0 0 1-.072.149l-3.302 5.605Zm1.068-5.755-4.607 7.822-4.564-7.822h9.171Zm.352-2h-9.948c.05-5.941 3.053-10.238 5.02-12.105 1.94 1.651 3.193 4.065 3.957 6.57.606 1.986.885 3.966.97 5.535Zm2.003 0h6.378A13.4 13.4 0 0 0 19.366 2.309c1.466 1.779 2.437 3.91 3.066 5.972a25.88 25.88 0 0 1 1.06 6.119ZM16.534 0a15.4 15.4 0 0 1 15.374 15.4 1 1 0 0 1-.726.962L17.509 26.56v3.439h1.4a1 1 0 1 1 0 2h-4.8a1 1 0 1 1 0-2h1.4v-3.383L1.498 16.28a1 1 0 0 1-.388-.999A15.4 15.4 0 0 1 16.524.001" clip-rule="evenodd"/></svg>