<svg xmlns="http://www.w3.org/2000/svg" width="33" height="32" fill="none"><path fill="#111827" fill-rule="evenodd" d="M1.5 3.656a1 1 0 0 1 1 1v22.688a1 1 0 1 1-2 0V4.656a1 1 0 0 1 1-1Zm10.084 6.302a1 1 0 0 1 1 1v3.665l3.48-1.134a1 1 0 0 1 .62 1.902L13.2 16.525l2.154 2.968a1 1 0 0 1-1.618 1.175l-2.153-2.965-2.152 2.965a1 1 0 1 1-1.62-1.175l2.155-2.968-3.482-1.134a1 1 0 1 1 .62-1.902l3.48 1.133v-3.664a1 1 0 0 1 1-1Zm16.125 1a1 1 0 1 0-2 0v3.665l-3.48-1.134a1 1 0 0 0-.62 1.902l3.483 1.134-2.154 2.968a1 1 0 1 0 1.618 1.175l2.153-2.966 2.153 2.966a1 1 0 1 0 1.618-1.175l-2.154-2.968 3.482-1.134a1 1 0 0 0-.619-1.902l-3.48 1.133v-3.664Zm-.004 3.666.004-3.666-.004 3.666Z" clip-rule="evenodd"/></svg>