<svg xmlns="http://www.w3.org/2000/svg" width="33" height="33" fill="none"><path fill="#111827" fill-rule="evenodd" d="M9.424 6.693a1.884 1.884 0 1 1 3.768 0 1.884 1.884 0 0 1-3.768 0Zm1.884-3.885a3.884 3.884 0 1 0 0 7.77 3.884 3.884 0 0 0 0-7.77Zm-6.923 8.923a1.884 1.884 0 1 0 0 3.77 1.884 1.884 0 0 0 0-3.77ZM.501 13.616a3.884 3.884 0 1 1 7.769 0 3.884 3.884 0 0 1-7.77 0Zm28.114-1.885a1.884 1.884 0 1 0 0 3.77 1.884 1.884 0 0 0 0-3.77Zm-3.885 1.885a3.884 3.884 0 1 1 7.769 0 3.884 3.884 0 0 1-7.769 0Zm-3.038-8.808a1.884 1.884 0 1 0 0 3.77 1.884 1.884 0 0 0 0-3.77Zm-3.884 1.885a3.884 3.884 0 1 1 7.768 0 3.884 3.884 0 0 1-7.768 0ZM16.5 12.016a6.192 6.192 0 0 0-5.951 4.482 5.288 5.288 0 0 1-2.494 3.15 5.615 5.615 0 0 0 2.673 10.543h.002c.752 0 1.495-.148 2.188-.437a9.354 9.354 0 0 1 7.163 0c.694.29 1.437.438 2.189.437h.002a5.614 5.614 0 0 0 2.673-10.542 5.288 5.288 0 0 1-2.494-3.151 6.192 6.192 0 0 0-5.951-4.482Zm4.029 5.034a7.288 7.288 0 0 0 3.443 4.346l.01.006a3.615 3.615 0 0 1-3.13 6.506h-.003a11.356 11.356 0 0 0-8.698 0h-.002a3.615 3.615 0 0 1-3.131-6.506l.01-.006a7.288 7.288 0 0 0 3.443-4.346 4.192 4.192 0 0 1 8.058 0Z" clip-rule="evenodd"/></svg>