<svg xmlns="http://www.w3.org/2000/svg" width="33" height="33" fill="none" viewBox="0 0 33 33"><path fill="#111827" fill-rule="evenodd" d="M24 3.866a6.5 6.5 0 1 0 0 13 6.5 6.5 0 0 0 0-13Zm-8.5 6.5a8.5 8.5 0 1 1 17 0 8.5 8.5 0 0 1-17 0ZM24 4.99a1 1 0 0 1 1 1v.25h.875a1 1 0 0 1 0 2h-2.813a.562.562 0 0 0 0 1.125h1.875A2.562 2.562 0 0 1 25 14.49v.25a1 1 0 0 1-2 0v-.25h-.875a1 1 0 0 1 0-2H24.937a.562.562 0 1 0 0-1.124h-1.875A2.563 2.563 0 0 1 23 6.242V5.99a1 1 0 0 1 1-1Zm6.5 24.143V17.809a9.932 9.932 0 0 0 2-2.4v14.725a1 1 0 0 1-1 1H1.5a1 1 0 0 1-1-1V15.296a1.018 1.018 0 0 1 0-.077V9.366a1 1 0 0 1 1-1h12.82a9.929 9.929 0 0 0-.203 2H2.501v3.892h12.413a9.87 9.87 0 0 0 1.152 2H2.501v12.876H30.5Zm-8.231-4.615a1 1 0 1 0 0 2h4.615a1 1 0 1 0 0-2h-4.615Zm-7.923 1a1 1 0 0 1 1-1h2.307a1 1 0 1 1 0 2h-2.307a1 1 0 0 1-1-1Z" clip-rule="evenodd"/></svg>