<svg xmlns="http://www.w3.org/2000/svg" width="33" height="32" fill="none" viewBox="0 0 33 32"><path fill="#111827" fill-rule="evenodd" d="M15.5 2.036C8.235 2.55 2.5 8.605 2.5 16c0 2.611.716 5.055 1.96 7.148l11.04-7.67V2.035Zm1-2.035C7.664 0 .5 7.164.5 16s7.164 16 16 16 15.999-7.164 15.999-16-7.163-16-16-16Zm1 2.035V15.48l11.013 7.712A13.934 13.934 0 0 0 30.5 16c0-7.395-5.734-13.451-13-13.964Zm-2 15.877-9.897 6.876a13.974 13.974 0 0 0 9.897 5.175V17.913Zm2 12.05V17.922l9.865 6.907a13.974 13.974 0 0 1-9.865 5.136Z" clip-rule="evenodd"/></svg>