<svg xmlns="http://www.w3.org/2000/svg" width="33" height="32" fill="none"><path fill="#111827" fill-rule="evenodd" d="M21.549.569a1 1 0 0 1 1.414 0l9.243 9.242a1 1 0 0 1 0 1.414l-4.37 4.37 1.17 4.46a1.5 1.5 0 0 1-.39 1.441l-6.448 6.448a1 1 0 0 1-1.414-1.414L27 20.285l-.801-3.051L12.03 31.4a.995.995 0 0 1-.329.219.995.995 0 0 1-.472.105l-9.753-.241a1 1 0 0 1-.973-1.066l.59-8.814a.999.999 0 0 1 .28-.86L21.55.57Zm5.178 13.307 3.357-3.358-7.828-7.828L18.9 6.047l7.828 7.829Zm-9.242-6.414 7.828 7.828-13.989 13.989-7.828-7.829L17.485 7.462ZM2.955 23.738l5.927 5.927-6.313-.156.386-5.771Z" clip-rule="evenodd"/></svg>