<svg xmlns="http://www.w3.org/2000/svg" width="33" height="32" fill="none" viewBox="0 0 33 32"><path fill="#111827" fill-rule="evenodd" d="M2.5 16c0-7.732 6.268-14 14-14 7.731 0 13.999 6.268 13.999 14 0 4.62-2.238 8.718-5.69 11.267v-4.899a1 1 0 0 0-.1-.435L17.4 6.815a1 1 0 0 0-1.8 0L8.295 21.896a1 1 0 0 0-.1.436v4.939A13.98 13.98 0 0 1 2.501 16m7.695 9.375v3.127a13.9 13.9 0 0 0 5.13 1.448v-4.402a1 1 0 0 1-.016-.173c0-.746-.281-1.452-.767-1.964a2.47 2.47 0 0 0-1.79-.786c-.66 0-1.306.276-1.79.786a2.86 2.86 0 0 0-.767 1.963m7.13 4.6a13.9 13.9 0 0 0 5.484-1.475v-3.125a2.75 2.75 0 0 0-5.493-.196q.009.063.008.127zm4.747-8.903a4.75 4.75 0 0 0-5.742 1.36 5 5 0 0 0-.337-.397 4.47 4.47 0 0 0-3.24-1.41c-.631 0-1.245.136-1.809.39l2.383-4.92h6.338zM16.499 9.546l2.199 4.549h-4.402zm0-9.545C7.665 0 .502 7.164.502 16S7.664 31.999 16.5 31.999s15.999-7.163 15.999-16c0-8.835-7.163-15.998-16-15.998" clip-rule="evenodd"/></svg>