<svg xmlns="http://www.w3.org/2000/svg" width="33" height="32" fill="none" viewBox="0 0 33 32"><path fill="#111827" fill-rule="evenodd" d="M21.549.569a1 1 0 0 1 1.414 0l9.243 9.242a1 1 0 0 1 0 1.414L12.03 31.4a.996.996 0 0 1-.327.218.996.996 0 0 1-.474.106l-9.753-.24a1 1 0 0 1-.973-1.067l.59-8.814a.999.999 0 0 1 .28-.86L21.55.57ZM2.955 23.738l5.927 5.927-6.313-.155.386-5.772Zm14.53-16.276L3.495 21.45l7.829 7.829 13.989-13.99-7.828-7.827Zm1.414-1.415 7.828 7.829 3.357-3.358-7.828-7.828L18.9 6.047Z" clip-rule="evenodd"/></svg>