<svg xmlns="http://www.w3.org/2000/svg" width="33" height="32" fill="none"><path fill="#111827" fill-rule="evenodd" d="M9.414 0a1 1 0 0 0-1 1v6.165l-3.903 7.46a1 1 0 0 0 .073 1.046l11.389 15.91a1 1 0 0 0 1.64-.02l10.817-15.91a1 1 0 0 0 .087-.969l-3.362-7.555V1a1 1 0 0 0-1-1H9.414Zm13.741 6.387V2.001H10.414v4.386h12.741Zm-13.124 2-3.463 6.62 9.217 12.876v-9.174a3.634 3.634 0 0 1 1-7.126 3.632 3.632 0 0 1 1 7.126v9.042l8.678-12.765-2.936-6.599H10.031Zm5.121 6.829a1.632 1.632 0 1 1 3.265 0 1.632 1.632 0 0 1-3.265 0Z" clip-rule="evenodd"/></svg>