<svg xmlns="http://www.w3.org/2000/svg" width="33" height="33" fill="none" viewBox="0 0 33 33"><path fill="#111827" fill-rule="evenodd" d="M17.58 4.962a2.461 2.461 0 1 1 4.924 0 2.461 2.461 0 0 1-4.923 0ZM20.043.501a4.461 4.461 0 1 0 0 8.922 4.461 4.461 0 0 0 0-8.922Zm-4.248 11.724c-1.437-.476-3.186-.12-5.011.759-2.08 1.002-3.994 2.565-5.108 3.693a1 1 0 0 1-1.423-1.405c1.23-1.246 3.326-2.964 5.663-4.09 2.298-1.107 5.106-1.77 7.527-.405a1 1 0 0 1 .274.229c1.017 1.211 2.78 2.99 4.727 4.357.972.684 1.962 1.244 2.904 1.586.946.345 1.781.447 2.484.3a1 1 0 1 1 .41 1.957c-1.19.25-2.422.043-3.578-.377-1.16-.422-2.309-1.084-3.37-1.83-1.483-1.041-2.853-2.288-3.919-3.392l-2.191 5.04 5.38 3.86a1 1 0 0 1 .416.812v8.17a1 1 0 1 1-2 0v-7.656l-4.612-3.31-4.945 11.375a1 1 0 1 1-1.834-.798l8.206-18.875Z" clip-rule="evenodd"/></svg>