<svg xmlns="http://www.w3.org/2000/svg" width="33" height="33" fill="none" viewBox="0 0 33 33"><path fill="#111827" fill-rule="evenodd" d="M5.9 9.21a6.71 6.71 0 1 1 6.743 6.709h-.068A6.71 6.71 0 0 1 5.9 9.209Zm2.39 7.564a8.71 8.71 0 1 1 8.638 0c.979.405 1.888.944 2.705 1.594a6.427 6.427 0 1 1 4.015 9.329l-.233.253-.03.03c-.234.235-.548.371-.878.383l-1.055.072-.06.677a1.308 1.308 0 0 1-1.244 1.247l-.602.058-.067.828a1.308 1.308 0 0 1-1.306 1.255h-2.744a1.308 1.308 0 0 1-1.307-1.308v-3.037c0-.347.137-.68.383-.924l.002-.003 4.463-4.43a6.45 6.45 0 0 1-.046-2.405 9.259 9.259 0 0 0-6.28-2.474H12.573a9.295 9.295 0 0 0-9.26 9.295 1 1 0 1 1-2 0c0-4.708 2.881-8.744 6.977-10.44Zm18.407 4.185a.923.923 0 1 0 0-1.845.923.923 0 0 0 0 1.845Zm-5.864.515a4.427 4.427 0 1 1 2.862 4.143 1 1 0 0 0-1.09.258l-.466.508-1.371.094a1.308 1.308 0 0 0-1.261 1.248l-.062.692-.608.058a1.308 1.308 0 0 0-1.243 1.253l-.062.772h-1.41v-2.056l4.665-4.631a1 1 0 0 0 .249-1.01 4.424 4.424 0 0 1-.203-1.329Z" clip-rule="evenodd"/></svg>