<svg xmlns="http://www.w3.org/2000/svg" width="33" height="33" fill="none" viewBox="0 0 33 33"><path fill="#111827" fill-rule="evenodd" d="M18.1 5.1a2.6 2.6 0 1 1 5.2 0 2.6 2.6 0 0 1-5.2 0ZM20.7.5a4.6 4.6 0 1 0 0 9.2 4.6 4.6 0 0 0 0-9.2Zm-3.555 12.488c-1.734-1.596-3.746-2.141-5.622-2.156-2.015-.017-3.834.58-4.858 1.116a1 1 0 0 1-.927-1.772c1.278-.669 3.42-1.364 5.801-1.344 2.407.02 5.097.773 7.343 3.055 3.701 3.76 8.997 3.594 11.164 3.027a1 1 0 1 1 .506 1.935c-2.294.6-7.519.855-11.746-2.37a25.118 25.118 0 0 1-2.683 5.782c1.412.426 3.234 1.164 4.883 2.419 2.323 1.767 4.294 4.558 4.294 8.819a1 1 0 0 1-2 0c0-3.538-1.595-5.774-3.505-7.227-1.665-1.267-3.577-1.937-4.892-2.275l-.016.02c-2.61 3.332-6.614 6.244-12.286 5.677a1 1 0 1 1 .2-1.99c4.761.476 8.161-1.918 10.511-4.92a18.458 18.458 0 0 0 .407-.538c2.015-2.777 3.092-5.84 3.426-7.258Z" clip-rule="evenodd"/></svg>