<svg xmlns="http://www.w3.org/2000/svg" width="33" height="32" fill="none" viewBox="0 0 33 32"><path stroke="#111827" stroke-linecap="round" stroke-linejoin="round" stroke-width="2" d="M10.071 16.107a13.777 13.777 0 0 0 6.379 6.35 1.294 1.294 0 0 0 1.278-.097l4.09-2.727a1.307 1.307 0 0 1 1.239-.114l7.65 3.279a1.302 1.302 0 0 1 .784 1.355A7.842 7.842 0 0 1 23.713 31 22.213 22.213 0 0 1 1.5 8.787 7.841 7.841 0 0 1 8.347 1.01a1.302 1.302 0 0 1 1.355.784l3.282 7.657a1.306 1.306 0 0 1-.108 1.23l-2.717 4.152a1.294 1.294 0 0 0-.088 1.275v0Z"/></svg>