<svg width="32" height="32" fill="none" xmlns="http://www.w3.org/2000/svg"><path d="M19.604 5.003a10.473 10.473 0 0 1 7.393 7.393M18.521 9.043a6.284 6.284 0 0 1 4.436 4.436M10.857 16.085a11.021 11.021 0 0 0 5.103 5.08 1.036 1.036 0 0 0 1.023-.077l3.27-2.182a1.045 1.045 0 0 1 .993-.09l6.12 2.622a1.042 1.042 0 0 1 .627 1.084A6.273 6.273 0 0 1 21.77 28 17.77 17.77 0 0 1 4 10.23a6.273 6.273 0 0 1 5.478-6.222 1.042 1.042 0 0 1 1.084.627l2.625 6.125a1.046 1.046 0 0 1-.086.984l-2.174 3.321a1.036 1.036 0 0 0-.07 1.02v0Z" stroke="#1C1B1F" stroke-width="2" stroke-linecap="round" stroke-linejoin="round"/></svg>