<svg xmlns="http://www.w3.org/2000/svg" width="33" height="32" fill="none" viewBox="0 0 33 32"><path fill="#111827" fill-rule="evenodd" d="M6.353 3.352a1 1 0 1 0-1.48 1.345l3.89 4.278a19.4 19.4 0 0 0-6.057 4.118 7.53 7.53 0 0 0-.632 9.935l.004.005a2.085 2.085 0 0 0 2.42.648H4.5l6.435-2.575a2.09 2.09 0 0 0 1.273-1.53l.803-4.015v-.006a.08.08 0 0 1 .05-.058 10 10 0 0 1 1.302-.361l12.284 13.512a1 1 0 1 0 1.48-1.345l-12.644-13.91-.023-.025-4.221-4.642-.032-.035zm6.708 12.145.001-.001-.336-.942.33.944zm-8.94-.991a17.4 17.4 0 0 1 6.073-3.956l2.65 2.914q-.226.069-.447.146l-.007.002a2.08 2.08 0 0 0-1.341 1.559v.003l-.802 4.01a.09.09 0 0 1-.054.065l-6.44 2.576h-.002a.09.09 0 0 1-.098-.024 5.53 5.53 0 0 1 .467-7.294zm-.468 7.295v-.002l-.788.617.791-.611q0-.003-.003-.004M15.54 9.405a17.46 17.46 0 0 1 13.34 5.101 5.53 5.53 0 0 1 .468 7.294.085.085 0 0 1-.098.026l-.003-.002-.55-.22a1 1 0 1 0-.744 1.857l.548.219h.002a2.09 2.09 0 0 0 2.42-.647l.004-.005a7.53 7.53 0 0 0-.631-9.935 19.46 19.46 0 0 0-14.868-5.685 1 1 0 1 0 .112 1.997" clip-rule="evenodd"/></svg>