<svg xmlns="http://www.w3.org/2000/svg" width="33" height="32" fill="none" viewBox="0 0 33 32"><path fill="#111827" fill-rule="evenodd" d="M4.207 4.268A6.84 6.84 0 0 1 8.47 2.003l1.1 2.02 2.495 5.821a.3.3 0 0 1-.026.289L9.325 14.28l-.001.002a2.3 2.3 0 0 0-.154 2.257l.003.007a14.78 14.78 0 0 0 6.841 6.81l.007.004a2.3 2.3 0 0 0 2.264-.17l.002-.002 1.26-.84L23.712 30A21.21 21.21 0 0 1 2.501 8.788a6.84 6.84 0 0 1 1.706-4.52m14.38 16.317.96 1.763L23.712 30a6.84 6.84 0 0 0 6.785-5.97.3.3 0 0 0-.182-.311l-.003-.002-7.65-3.278a.3.3 0 0 0-.29.027l-2.825 1.883zl2.675-1.784a2.31 2.31 0 0 1 2.188-.201l7.647 3.277h.002a2.3 2.3 0 0 1 1.383 2.395v.007a8.84 8.84 0 0 1-8.77 7.72A23.21 23.21 0 0 1 .501 8.788 8.84 8.84 0 0 1 8.22.017h.006a2.3 2.3 0 0 1 2.395 1.384l.001.001 3.28 7.653a2.31 2.31 0 0 1-.19 2.172l-.12.184L9.57 4.024l-.787-1.836v-.003a.3.3 0 0 0-.313-.182l1.1 2.02 4.023 7.389-2.597 3.967-.003.005a.3.3 0 0 0-.021.288 12.78 12.78 0 0 0 5.908 5.881.3.3 0 0 0 .289-.023l.004-.003zm-4.994-9.173 4.994 9.173zm6.445-9.417a1 1 0 0 1 1.226-.706 14.09 14.09 0 0 1 9.947 9.947 1 1 0 1 1-1.932.52 12.09 12.09 0 0 0-8.535-8.536 1 1 0 0 1-.706-1.225m-1.353 5.05a1 1 0 0 1 1.226-.707 8.85 8.85 0 0 1 6.25 6.251 1 1 0 0 1-1.93.52 6.85 6.85 0 0 0-4.84-4.84 1 1 0 0 1-.706-1.225" clip-rule="evenodd"/></svg>