<svg xmlns="http://www.w3.org/2000/svg" width="33" height="32" fill="none" viewBox="0 0 33 32"><path fill="#111827" fill-rule="evenodd" d="M8.47 2.003A6.84 6.84 0 0 0 2.5 8.788a21.212 21.212 0 0 0 21.212 21.211l-4.165-7.65 4.165 7.65a6.84 6.84 0 0 0 6.785-5.97.303.303 0 0 0-.182-.311l-.003-.002-7.65-3.278a.306.306 0 0 0-.29.027l-2.825 1.883-.96-1.763 2.675-1.784a2.308 2.308 0 0 1 2.188-.201l7.647 3.277h.002a2.302 2.302 0 0 1 1.383 2.395v.007a8.84 8.84 0 0 1-8.77 7.72A23.212 23.212 0 0 1 .501 8.788 8.84 8.84 0 0 1 8.22.017h.006A2.302 2.302 0 0 1 10.622 1.4l.001.002 3.28 7.653a2.308 2.308 0 0 1-.19 2.172l-.12.184L9.57 4.024l-.787-1.836v-.003a.302.302 0 0 0-.313-.182Zm5.123 9.409L9.57 4.024l2.495 5.82a.307.307 0 0 1-.026.289L9.325 14.28l-.001.002a2.295 2.295 0 0 0-.154 2.257l.003.007a14.776 14.776 0 0 0 6.841 6.81l.007.004a2.296 2.296 0 0 0 2.264-.17l.002-.002 1.26-.84-.96-1.763-4.994-9.173Zm0 0 4.994 9.173-1.414.942-.004.003a.296.296 0 0 1-.289.023 12.775 12.775 0 0 1-5.908-5.881.295.295 0 0 1 .02-.288l.004-.005 2.597-3.967Zm6.8-8.558a1 1 0 0 1 1.413 0l3.213 3.213 3.213-3.213a1 1 0 1 1 1.414 1.414l-3.213 3.213 3.213 3.213a1 1 0 0 1-1.415 1.414L25.02 8.895l-3.213 3.213a1 1 0 0 1-1.414-1.414l3.213-3.213-3.213-3.213a1 1 0 0 1 0-1.414Z" clip-rule="evenodd"/></svg>