<svg xmlns="http://www.w3.org/2000/svg" width="33" height="32" fill="none" viewBox="0 0 33 32"><path stroke="#111827" stroke-linecap="round" stroke-linejoin="round" stroke-width="2" d="M10.071 16.107a13.78 13.78 0 0 0 6.379 6.35 1.3 1.3 0 0 0 1.278-.097l4.09-2.727a1.3 1.3 0 0 1 1.239-.114l7.65 3.279a1.3 1.3 0 0 1 .784 1.355A7.84 7.84 0 0 1 23.713 31 22.213 22.213 0 0 1 1.5 8.787 7.84 7.84 0 0 1 8.347 1.01a1.3 1.3 0 0 1 1.355.784l3.282 7.657a1.3 1.3 0 0 1-.108 1.23l-2.717 4.152a1.3 1.3 0 0 0-.088 1.275"/></svg>