<svg xmlns="http://www.w3.org/2000/svg" width="33" height="32" fill="none" viewBox="0 0 33 32"><path stroke="#111827" d="M8.114 10.703H3.759a.2.2 0 0 0-.189.107.2.2 0 0 0-.02.074l-2.03 10.17a.22.22 0 0 0 0 .18.2.2 0 0 0 .152.07H3.94a.195.195 0 0 0 .209-.167l.514-2.532H6.43a7.3 7.3 0 0 0 2.17-.278 4.2 4.2 0 0 0 1.642-.89c.389-.338.718-.737.974-1.183.243-.434.417-.904.515-1.391a3.31 3.31 0 0 0-.584-3.005 3.9 3.9 0 0 0-3.033-1.155Zm.862 3.854a2.55 2.55 0 0 1-.834 1.558c-.571.35-1.239.511-1.906.459H5.123l.75-3.84h1.392a2.23 2.23 0 0 1 1.572.404c.223.25.223.723.14 1.419ZM20.617 14.047a3.76 3.76 0 0 0-2.616-.71h-1.655l.459-2.448a.21.21 0 0 0 0-.18.22.22 0 0 0-.153 0h-2.185a.195.195 0 0 0-.194.166l-1.92 10.115a.18.18 0 0 0 0 .167.18.18 0 0 0 .153.083h2.142a.194.194 0 0 0 .195-.18l1.071-5.663h1.545c.626 0 .848.14.918.223a1.13 1.13 0 0 1 0 .862l-.849 4.508a.18.18 0 0 0 0 .167.2.2 0 0 0 .153.083h2.17a.22.22 0 0 0 .21-.18l.89-4.73a2.37 2.37 0 0 0-.334-2.283ZM21.795 21.238h2.184a.194.194 0 0 0 .195-.167l.487-2.532h1.697c.71.018 1.42-.076 2.101-.278a3.9 3.9 0 0 0 1.475-.89c.376-.339.691-.739.932-1.183.238-.435.407-.904.5-1.391a3.38 3.38 0 0 0-.57-3.006 3.67 3.67 0 0 0-2.907-1.085h-4.174a.22.22 0 0 0-.209.181l-1.92 10.1a.26.26 0 0 0 0 .182.24.24 0 0 0 .209.07Zm3.965-8.57h1.391a2.02 2.02 0 0 1 1.503.403c.236.25.278.724.153 1.392a2.52 2.52 0 0 1-.793 1.558c-.551.349-1.2.51-1.85.459H25.05z"/></svg>