<svg xmlns="http://www.w3.org/2000/svg" width="33" height="32" fill="none" viewBox="0 0 33 32"><path fill="#111827" fill-rule="evenodd" d="M1.501.001a1 1 0 0 0-1 1v29.998a1 1 0 0 0 1 1h29.998a1 1 0 0 0 1-1V1.001a1 1 0 0 0-1-1H1.501m16.726 2h-3.454v16.726a1 1 0 0 1-1 1h-2.409V30h10.272V19.727h-2.409a1 1 0 0 1-1-1zm5.409 17.726V30h6.863V2.001h-3.454v16.726a1 1 0 0 1-1 1zm1.409-17.726h-4.818v15.726h4.818zm-17.09 0h4.818v15.726H7.955zm-5.454 0h3.454v16.726a1 1 0 0 0 1 1h2.41V30H2.5z" clip-rule="evenodd"/></svg>