<svg xmlns="http://www.w3.org/2000/svg" width="33" height="33" fill="none" viewBox="0 0 33 33"><path fill="#111827" fill-rule="evenodd" d="M3.694.238h-1v1.246c0 .886 0 1.65.082 2.262.088.655.287 1.283.797 1.793s1.138.708 1.793.797c.612.082 1.376.082 2.262.082h17.744c.886 0 1.65 0 2.262-.082.655-.089 1.284-.287 1.793-.797.51-.51.709-1.138.797-1.793.082-.612.082-1.376.082-2.262V.238H3.694M4.758 3.48c-.042-.317-.057-.711-.061-1.24h23.607c-.005.529-.02.923-.062 1.24-.059.434-.153.57-.229.646s-.212.17-.646.228c-.462.063-1.09.065-2.061.065H7.694c-.971 0-1.599-.002-2.061-.065-.434-.058-.57-.152-.646-.228s-.17-.212-.229-.646M7.21 6.911a4.516 4.516 0 0 0-4.516 4.516v16.315a4.516 4.516 0 0 0 9.032 0V11.427A4.516 4.516 0 0 0 7.21 6.911m-2.516 4.516a2.516 2.516 0 1 1 5.032 0v16.315a2.516 2.516 0 0 1-5.032 0zm21.096 8.93a4.516 4.516 0 0 0-4.515 4.515v2.87a4.516 4.516 0 1 0 9.03 0v-2.87a4.516 4.516 0 0 0-4.515-4.515m-2.515 4.515a2.516 2.516 0 1 1 5.03 0v2.87a2.516 2.516 0 1 1-5.03 0zm-2-13.445a4.516 4.516 0 1 1 9.03 0v3.92a4.516 4.516 0 0 1-9.03 0zM25.79 8.91a2.516 2.516 0 0 0-2.515 2.516v3.92a2.516 2.516 0 1 0 5.03 0v-3.92a2.516 2.516 0 0 0-2.515-2.516m-9.29-2a4.28 4.28 0 0 0-4.28 4.281v7.314a4.281 4.281 0 0 0 8.561 0v-7.314a4.28 4.28 0 0 0-4.28-4.28m-2.28 4.281a2.281 2.281 0 0 1 4.561 0v7.314a2.281 2.281 0 0 1-4.562 0zm-2 16.37a4.281 4.281 0 0 1 8.561 0v.415a4.281 4.281 0 0 1-8.562 0zm4.28-2.282a2.28 2.28 0 0 0-2.28 2.281v.416a2.28 2.28 0 0 0 4.561 0v-.416c0-1.26-1.021-2.28-2.28-2.28" clip-rule="evenodd"/></svg>