<svg xmlns="http://www.w3.org/2000/svg" width="33" height="32" fill="none" viewBox="0 0 33 32"><path fill="#111827" fill-rule="evenodd" d="M18.368 2.426a8.277 8.277 0 1 1 11.706 11.706L22.405 21.8a1.058 1.058 0 0 1-.097.097l-7.676 7.676A8.277 8.277 0 1 1 2.926 17.868l7.675-7.675a1.01 1.01 0 0 1 .1-.1l7.667-7.667Zm-7.01 9.839L4.34 19.282a6.277 6.277 0 1 0 8.878 8.878l7.017-7.018-8.877-8.877Zm10.291 7.463-8.877-8.877 7.01-7.01a6.277 6.277 0 1 1 8.878 8.877l-7.01 7.01Zm4.66-10.783a1 1 0 0 1-.025 1.414l-3.927 3.794a1 1 0 0 1-1.39-1.439l3.928-3.793a1 1 0 0 1 1.414.024Z" clip-rule="evenodd"/></svg>