<svg xmlns="http://www.w3.org/2000/svg" width="32" height="32" fill="none" viewBox="0 0 32 32"><path fill="#111827" fill-rule="evenodd" d="m14.88 4.531 2.696-1.579-.648 3.729 1.97.343.648-3.725 2.025 2.429 1.536-1.281L19.699.36a1 1 0 0 0-1.273-.223l-4.557 2.668zm-1.693 9.649 2.697-1.58-.649 3.73 1.97.342.649-3.724 2.024 2.428 1.537-1.28-3.408-4.088a1 1 0 0 0-1.274-.222l-4.556 2.668zm1.126 7.422-2.697 1.579-1.01-1.726 4.556-2.668a1 1 0 0 1 1.273.222l3.408 4.087-1.536 1.281-2.025-2.428-.648 3.724-1.97-.343zm8.94-1.355 3.706.745-2.48 1.96 1.239 1.57 4.176-3.3a1 1 0 0 0 .251-1.274l-2.542-4.618-1.752.965 1.507 2.737-3.71-.746zm-1.735 8.803-2.195-3.078 1.628-1.161 2.198 3.08.77-3.028 1.939.493-1.299 5.103a.996.996 0 0 1-1.056.765l-5.303-.446.167-1.993zm-11.274-1.888-3.016-.817 3.114-2.151-1.137-1.646-3.11 2.149.313-3.147-1.99-.198-.527 5.296a1 1 0 0 0 .734 1.064l5.096 1.38zM4.716 16.954l1.654 2.652-1.696 1.058-2.796-4.48a1 1 0 0 1 .187-1.279l3.99-3.521 1.323 1.5-2.37 2.092 3.74.542-.286 1.98zm3.604-5.923.509-3.083 2.454 2.882 1.522-1.297-2.45-2.878 3.162-.006-.004-2-5.322.01a1 1 0 0 0-.984.837l-.86 5.21zm16.91-1.839-2.892-1.185.759-1.85 4.886 2.002a1 1 0 0 1 .595 1.147l-1.18 5.19-1.95-.444.701-3.083-3.353 1.745-.924-1.774zM13.784 32a1.846 1.846 0 1 0 0-3.692 1.846 1.846 0 0 0 0 3.692" clip-rule="evenodd"/></svg>