<svg xmlns="http://www.w3.org/2000/svg" width="33" height="32" fill="none" viewBox="0 0 33 32"><path fill="#111827" fill-rule="evenodd" d="M13.88 5.39a9 9 0 0 1 4.153-.258l-1.534 5.93a1 1 0 0 0-1.972-.291l-2.2 9.35a1.407 1.407 0 0 0-.008.035l-1.792 7.615a1 1 0 1 0 1.947.458l1.347-5.726c.975.781 2.483 1.497 4.68 1.497 4.588 0 9-3.962 9-10a11.002 11.002 0 0 0-21.363-3.693 11 11 0 0 0 1.225 9.819 1 1 0 0 0 1.661-1.114A9 9 0 0 1 13.881 5.39Zm.483 14.81c.133.187.35.447.67.71.63.518 1.708 1.09 3.467 1.09 3.412 0 7-2.992 7-8h1-1a9 9 0 0 0-7.467-8.868l-1.535 5.942a1.005 1.005 0 0 1-.024.155l-2.11 8.971Z" clip-rule="evenodd"/></svg>