<svg xmlns="http://www.w3.org/2000/svg" width="33" height="33" fill="none" viewBox="0 0 33 33"><path fill="#111827" fill-rule="evenodd" d="M11.962 2.251c-.183-.543.11-1.13.652-1.313a8.35 8.35 0 0 1 10.574 5.255l.082.244a8.33 8.33 0 0 1-.741 6.931l7.235-2.463a1.037 1.037 0 0 1 1.315.648 8.35 8.35 0 0 1-5.213 10.594l-.243.083a8.3 8.3 0 0 1-3.296.425l8.136 8.137a1 1 0 0 1-1.414 1.414L18.81 21.967l2.22 6.6c.182.543-.11 1.13-.653 1.313a8.35 8.35 0 0 1-10.575-5.252l-.082-.244a8.33 8.33 0 0 1 .75-6.95l-7.24 2.45a1.037 1.037 0 0 1-1.314-.65A8.35 8.35 0 0 1 7.148 8.65l.243-.082a8.33 8.33 0 0 1 6.938.728zm6.063 11.766a1 1 0 0 0-.049-.218 9 9 0 0 0-.217-.574L14.187 2.596a6.35 6.35 0 0 1 7.105 4.234l.082.244a6.35 6.35 0 0 1-3.106 7.665zm-2.996 3a1 1 0 0 1-.033-.116l-.275-.82a6.35 6.35 0 0 0-3.105 7.666l.082.243a6.35 6.35 0 0 0 7.106 4.233L15.13 17.3a9 9 0 0 1-.102-.284m3.887 2.227-.654-.653a1 1 0 0 0-.137-.115 6.3 6.3 0 0 1-.824-1.215l12.127-4.128a6.35 6.35 0 0 1-4.206 7.12l-.244.084a6.35 6.35 0 0 1-6.062-1.093M3.57 17.658l12.133-4.107a6.35 6.35 0 0 0-7.672-3.09l-.243.083a6.35 6.35 0 0 0-4.218 7.114" clip-rule="evenodd"/></svg>