<svg width="32" height="33" fill="none" xmlns="http://www.w3.org/2000/svg"><path d="M4.141 14.147a.91.91 0 0 1 .242-1.228 19.97 19.97 0 0 1 23.234 0 .91.91 0 0 1 .242 1.228L16.765 31.58a.907.907 0 0 1-1.53 0L4.14 14.147Z" stroke="#1C1B1F" stroke-width="2" stroke-linecap="round" stroke-linejoin="round"/><path d="M5.65 16.519a16.334 16.334 0 0 1 20.7 0M20.12 26.31a3.177 3.177 0 1 1 3.268-5.137M8.05 20.29a3.176 3.176 0 1 1 2.754 4.32" stroke="#1C1B1F" stroke-width="2" stroke-linecap="round" stroke-linejoin="round"/></svg>