<svg xmlns="http://www.w3.org/2000/svg" width="33" height="33" fill="none" viewBox="0 0 33 33"><path fill="#111827" fill-rule="evenodd" d="M2.561 7.717a23.96 23.96 0 0 1 27.878 0l.002.002a.138.138 0 0 1 .037.185l-1.296 2.037a21.417 21.417 0 0 0-25.364 0L2.522 7.905a.138.138 0 0 1 .037-.186l.002-.002Zm.152 4.212a.927.927 0 0 0 .013.02l11.973 18.817a2.133 2.133 0 0 0 3.601 0L30.267 11.96c.01-.014.018-.028.027-.043l1.872-2.942.002-.002A2.138 2.138 0 0 0 31.6 6.09a25.96 25.96 0 0 0-30.202 0 2.138 2.138 0 0 0-.567 2.885l.001.002 1.88 2.953Zm25.392-.297-11.492 18.06a.135.135 0 0 1-.113.062.135.135 0 0 1-.113-.062L4.894 11.632a19.417 19.417 0 0 1 23.212 0Z" clip-rule="evenodd"/><path stroke="#111827" stroke-linecap="round" stroke-linejoin="round" stroke-width="2" d="M21.648 23.642a3.97 3.97 0 1 1 4.087-6.42M6.562 16.115a3.97 3.97 0 1 1 3.443 5.401"/></svg>