<svg xmlns="http://www.w3.org/2000/svg" width="33" height="33" fill="none" viewBox="0 0 33 33"><path fill="#111827" fill-rule="evenodd" d="M5.788 16.5c0-5.916 4.796-10.712 10.712-10.712a10.67 10.67 0 0 1 6.89 2.51 10.7 10.7 0 0 1 3.572 5.892c-2.077 1.982-4.94 4.111-8.3 6.049s-6.638 3.354-9.395 4.162A10.68 10.68 0 0 1 5.788 16.5m1.216 8.45a12.7 12.7 0 0 1-2.576-4.459c-.68.797-1.188 1.533-1.512 2.18-.516 1.029-.458 1.586-.31 1.846.137.233.512.524 1.446.629.762.085 1.758.026 2.952-.195M3.89 18.118c-1.227 1.262-2.185 2.507-2.762 3.658-.611 1.218-.917 2.59-.254 3.742l.002.003c.603 1.038 1.758 1.48 2.953 1.613 1.22.137 2.71-.014 4.341-.38q.304-.069.617-.148a12.66 12.66 0 0 0 7.713 2.607c7.02 0 12.712-5.691 12.712-12.712q0-.825-.102-1.622.226-.233.44-.465c1.133-1.23 2.008-2.444 2.499-3.568.481-1.101.676-2.321.077-3.362l-.003-.005c-.67-1.147-2.009-1.569-3.372-1.648-1.283-.075-2.836.132-4.538.564A12.66 12.66 0 0 0 16.5 3.788C9.48 3.788 3.788 9.48 3.788 16.5q0 .822.102 1.617m22.105-10.07a12.7 12.7 0 0 1 2.576 4.457c.789-.924 1.338-1.757 1.645-2.46.376-.86.31-1.328.179-1.56-.156-.263-.615-.591-1.76-.658-.722-.042-1.611.03-2.64.221m1.216 8.62c-.09 5.84-4.85 10.545-10.71 10.545-1.895 0-3.675-.492-5.22-1.355 2.593-.89 5.474-2.209 8.38-3.886 2.904-1.674 5.483-3.506 7.55-5.304" clip-rule="evenodd"/></svg>