<svg xmlns="http://www.w3.org/2000/svg" width="33" height="32" fill="none" viewBox="0 0 33 32"><mask id="a" fill="#fff"><path fill-rule="evenodd" d="M7.666 3.305C9.394 1.616 11.48.565 13.959.135c1.163-.207 3.473-.168 4.493.063 1.936.455 3.728 1.355 5.353 2.701 1.434 1.187 2.836 3.218 3.235 4.684.127.494.135.614.047 1.052a4.7 4.7 0 0 1-.278.852c-.335.725-1.172 1.378-1.952 1.53-.168.032-2.318.063-4.772.063l-4.461.008-.478.192c-.653.263-1.378.987-1.641 1.64l-.191.479.024 4.899c.023 4.652.016 4.947-.136 5.84-.183 1.05-.446 1.895-.812 2.628-1.45 2.876-4.111 4.772-7.242 5.154a14 14 0 0 1-.9.08h-.223l.024-10.778.024-10.77.183-.861c.534-2.526 1.633-4.549 3.41-6.286m20.111 7.144c.096-.199.223-.59.279-.852.021-.105.294-.155.327-.053.31.95.626 2.255.59 3.407 0 6.622-5.369 11.99-11.99 11.99-.943 0-1.86-.11-2.741-.315.082-.684.083-1.59.064-5.366l-.024-4.9.191-.477c.263-.653.988-1.378 1.641-1.641l.479-.191 4.46-.008c2.454 0 4.605-.032 4.772-.064.781-.151 1.618-.805 1.952-1.53" clip-rule="evenodd"/></mask><path fill="#111827" d="m13.959.135.342 1.97.009-.001zm-6.293 3.17-1.398-1.43zM18.452.198l.457-1.947-.008-.001-.007-.002zM23.805 2.9l-1.276 1.54h.001zm3.235 4.684 1.936-.5-.003-.012-.003-.012zm.047 1.052 1.957.415.002-.012.003-.011zm-.278.852-1.803-.865-.007.013-.006.014zm-1.952 1.53.374 1.964h.006zm-4.772.063v-2h-.004zm-4.461.008-.004-2-.383.001-.356.142zm-.478.192-.743-1.857-.004.001zm-1.641 1.64-1.856-.746-.001.004zm-.191.479-1.857-.743-.145.362.002.39zm.024 4.899-2 .01zm-.136 5.84 1.97.343.002-.01zm-.812 2.628 1.785.9.003-.005zM5.148 31.92l.216 1.989.013-.002.014-.001zM4.025 32l-2-.004L2.02 34h2.005zm.024-10.778-2-.005zm.024-10.77-1.956-.418-.044.204v.209zm.183-.861 1.956.416v-.003zm23.8.006 1.956.415.003-.011.002-.012zm-.279.852-1.803-.865-.006.014-.007.013zm.606-.905 1.9-.622zm.59 3.407-2-.063v.063zM14.241 24.627l-1.986-.239-.214 1.779 1.744.407zm.064-5.366-2 .01zm-.024-4.9-1.857-.742-.145.362.002.39zm.191-.477-1.855-.747-.002.004zm1.641-1.641-.742-1.857-.004.001zm.479-.191-.004-2h-.383l-.356.143zm4.46-.008v-2h-.003zm4.772-.064.375 1.965.006-.002zM13.617-1.836c-2.859.497-5.32 1.727-7.35 3.71l2.796 2.862c1.428-1.395 3.142-2.267 5.238-2.63zm5.277.084c-.716-.162-1.714-.232-2.604-.245-.9-.014-1.916.026-2.682.163l.702 3.938c.397-.071 1.118-.114 1.919-.102.81.012 1.477.078 1.781.147zm6.187 3.11c-1.85-1.533-3.92-2.579-6.172-3.107l-.914 3.895c1.62.38 3.135 1.134 4.534 2.293zm3.889 5.7c-.28-1.03-.861-2.113-1.513-3.058-.663-.96-1.492-1.91-2.376-2.642L22.53 4.44c.55.454 1.139 1.114 1.635 1.833.507.734.826 1.399.945 1.835zm.079 1.969c.048-.244.112-.586.093-.992a4.6 4.6 0 0 0-.166-.952l-3.873 1 .048.2c.004.02-.002-.007-.005-.058a1 1 0 0 1-.002-.08q-.005.033-.018.098zm-.437 1.326c.178-.371.35-.919.432-1.303l-3.913-.83a3 3 0 0 1-.114.373c-.015.038-.02.045-.011.029zm-3.374 2.627c.762-.148 1.451-.513 1.995-.938.544-.426 1.065-1.009 1.392-1.717L24.993 8.65l-.013.022a1.11 1.11 0 0 1-.479.374q-.027.01-.025.008zm-5.153.1c1.235 0 2.395-.008 3.27-.02.438-.006.81-.013 1.087-.02.138-.005.261-.009.36-.014.03-.001.24-.009.43-.045l-.75-3.929c.147-.028.254-.027.124-.021l-.277.01c-.25.007-.6.014-1.028.02-.855.012-1.997.02-3.216.02zm-4.458.008 4.462-.008-.008-4-4.46.008zm.262.049.478-.192-1.486-3.714-.478.192zm-.529.53c-.002.007.01-.026.057-.092a1.6 1.6 0 0 1 .383-.383c.066-.046.1-.06.093-.057l-1.494-3.71c-.643.258-1.206.686-1.634 1.114s-.857.992-1.116 1.635zm-.19.474.192-.477-3.714-1.486-.191.478zm.168 4.147-.024-4.9-4 .02.024 4.9zm-.164 6.184c.188-1.108.187-1.624.164-6.184l-4 .02c.024 4.744.007 4.818-.108 5.495zm-.996 3.189c.474-.948.787-1.988.994-3.18l-3.94-.687c-.159.91-.372 1.559-.631 2.078zm-8.787 6.245c3.812-.466 7.042-2.783 8.784-6.24l-3.571-1.8c-1.158 2.295-3.249 3.77-5.698 4.07zM4.248 34c.265 0 .81-.058 1.116-.091l-.432-3.977a31 31 0 0 1-.682.066c-.057.004-.046.002-.002.002zm-.223 0h.223v-4h-.223zM2.049 21.217l-.024 10.779 4 .008.024-10.778zm.024-10.77-.024 10.77 4 .009.024-10.77zM2.3 9.174l-.183.86 3.912.834.183-.86zm3.967-7.299C4.197 3.898 2.912 6.28 2.3 9.177l3.914.827c.455-2.153 1.367-3.818 2.85-5.269zM26.1 9.182a3 3 0 0 1-.114.373c-.014.038-.019.045-.01.029l3.605 1.73c.178-.37.35-.917.433-1.302zm4.185-.26c-.308-.942-1.102-1.27-1.46-1.364a2.3 2.3 0 0 0-1.76.268 2.1 2.1 0 0 0-.97 1.379l3.923.784a1.9 1.9 0 0 1-.858 1.245 1.7 1.7 0 0 1-1.34.196 1.92 1.92 0 0 1-1.337-1.265zm.687 4.093c.048-1.496-.35-3.06-.687-4.093l-3.802 1.243c.284.867.517 1.914.491 2.723zM16.983 26.941c7.726 0 13.99-6.263 13.99-13.99h-4c0 5.517-4.473 9.99-9.99 9.99zm-3.197-.368c1.029.241 2.1.368 3.197.368v-4c-.789 0-1.554-.091-2.286-.262zm-1.48-7.303c.02 3.865.013 4.593-.05 5.117l3.971.478c.102-.845.098-1.927.08-5.615zm-.024-4.9.024 4.9 4-.02-.024-4.899zm.335-1.23-.192.478 3.714 1.486.191-.478zm2.75-2.754c-.642.26-1.206.688-1.634 1.116s-.856.991-1.115 1.634l3.71 1.494c-.002.006.012-.027.058-.093a1.6 1.6 0 0 1 .383-.383c.066-.046.099-.06.092-.057zm.483-.192-.478.19 1.485 3.715.478-.191zm5.2-.151-4.461.008.007 4 4.461-.008zm4.401-.029c.146-.028.253-.027.124-.02l-.277.01c-.25.006-.6.013-1.029.019-.854.012-1.996.02-3.215.02v4c1.234 0 2.395-.008 3.27-.02.438-.006.81-.014 1.087-.021.137-.004.26-.009.36-.014.03-.001.24-.009.429-.044zm.51-.403-.013.023a1.113 1.113 0 0 1-.479.374l-.024.007.761 3.927c.762-.148 1.452-.512 1.995-.938s1.065-1.008 1.392-1.716z" mask="url(#a)"/></svg>