<svg xmlns="http://www.w3.org/2000/svg" width="33" height="32" fill="none" viewBox="0 0 33 32"><g clip-path="url(#a)"><path fill="#111827" fill-rule="evenodd" d="M32.292 1.403a1 1 0 0 1-.142 1.376L10.825 20.932a1 1 0 0 1-1.43-.14L.714 9.879a1 1 0 0 1 .617-1.608l4.893-.828a1 1 0 0 1 .953.367l5.169 6.559L30.924 1.2a1 1 0 0 1 1.367.202M13.688 15.87l-.96.68a1 1 0 0 1-1.364-.197l-5.39-6.839-2.639.446 6.981 8.78zM18.48 17.1a1 1 0 0 1 .673.368l8.588 10.679a1 1 0 0 1-.617 1.613l-5.062.831a1 1 0 0 1-.946-.365l-5.263-6.63L4.22 30.831a1 1 0 0 1-1.158-1.626l14.684-11.888a1 1 0 0 1 .735-.217m-2.447 4.177a1 1 0 0 1 .832.377l5.453 6.868 2.79-.458-6.885-8.56zM9.752 7.418a1 1 0 0 0-.206 1.399l2.446 3.293a1 1 0 0 0 1.4.207l3.293-2.447a1 1 0 0 0 .206-1.399l-2.447-3.293a1 1 0 0 0-1.399-.207zm3.25 2.697-1.255-1.688 1.688-1.254 1.254 1.688z" clip-rule="evenodd"/></g><defs><clipPath id="a"><path fill="#fff" d="M.5 0h32v32H.5z"/></clipPath></defs></svg>