<svg xmlns="http://www.w3.org/2000/svg" width="33" height="33" fill="none" viewBox="0 0 33 33"><path fill="#111827" fill-rule="evenodd" d="M16.5.5c-.352 0-.7.012-1.046.034l.128 1.996a14.227 14.227 0 0 1 1.473-.018c3.318.129 6.34 1.413 8.675 3.462.46.404.892.836 1.296 1.296a13.943 13.943 0 0 1 3.462 9.79 13.942 13.942 0 0 1-3.462 8.67c-.404.46-.837.892-1.296 1.295A13.942 13.942 0 0 1 16.5 30.5c-.308 0-.614-.01-.918-.03l-.129 1.996a16.2 16.2 0 0 0 1.678.022 15.934 15.934 0 0 0 9.918-3.959c.525-.46 1.02-.954 1.48-1.479a15.935 15.935 0 0 0 3.958-11.177 15.933 15.933 0 0 0-3.958-9.921 16.076 16.076 0 0 0-1.48-1.48A15.938 15.938 0 0 0 16.5.501Zm-3.121.305c-.692.137-1.367.318-2.024.541l.643 1.894a13.887 13.887 0 0 1 1.769-.473L13.379.805ZM9.422 2.148c-.629.31-1.234.661-1.812 1.048l1.113 1.662a13.984 13.984 0 0 1 1.584-.917l-.885-1.793ZM5.95 4.471c-.525.46-1.02.955-1.48 1.48L5.974 7.27c.404-.46.836-.892 1.296-1.296L5.95 4.471ZM3.196 7.61A15.985 15.985 0 0 0 2.148 9.42l1.793.886c.272-.55.578-1.078.917-1.585L3.196 7.61Zm-1.85 3.745a15.886 15.886 0 0 0-.54 2.024l1.961.388c.12-.605.278-1.195.473-1.769l-1.894-.643Zm-.811 4.098a16.227 16.227 0 0 0 0 2.093l1.995-.129a14.228 14.228 0 0 1 0-1.835l-1.995-.129Zm.27 4.168c.137.692.318 1.367.541 2.023l1.894-.642a13.884 13.884 0 0 1-.473-1.769l-1.962.388Zm1.343 3.957c.31.629.661 1.234 1.048 1.812l1.662-1.113a13.983 13.983 0 0 1-.917-1.585l-1.793.886Zm2.323 3.471c.46.525.955 1.019 1.48 1.48l1.319-1.504a14.08 14.08 0 0 1-1.296-1.295l-1.503 1.32Zm3.139 2.755c.578.387 1.183.737 1.812 1.048l.885-1.793a13.998 13.998 0 0 1-1.584-.917L7.61 29.804Zm3.745 1.85c.657.222 1.332.404 2.024.54l.388-1.962a13.902 13.902 0 0 1-1.769-.472l-.643 1.894ZM24.623 16.5a1 1 0 0 0-.472-.85l-12.074-7.5a1 1 0 0 0-1.528.85v15a1 1 0 0 0 1.528.849l12.074-7.5a1 1 0 0 0 .472-.85ZM12.549 22.2V10.799l9.179 5.7-9.179 5.702Z" clip-rule="evenodd"/></svg>