<svg xmlns="http://www.w3.org/2000/svg" width="33" height="32" fill="none" viewBox="0 0 33 32"><path fill="#111827" fill-rule="evenodd" d="M25.007.294a1 1 0 0 1 0 1.414l-5.282 5.281 5.786 5.786 5.281-5.282a1 1 0 1 1 1.414 1.415l-5.281 5.28 2.464 2.465q.064.065.115.137l1.502 1.503a1 1 0 1 1-1.414 1.414l-.921-.922-9.843 9.843a3 3 0 0 1-4.243 0l-4.65-4.65-7.727 7.728a1 1 0 0 1-1.414-1.414l7.727-7.727-4.406-4.407a3 3 0 0 1 0-4.242l9.843-9.843-1.165-1.165a1 1 0 1 1 1.414-1.414l1.746 1.745q.072.05.137.115l2.221 2.221L23.592.294a1 1 0 0 1 1.415 0m-9.635 5.193L5.529 15.33a1 1 0 0 0 0 1.414L16 27.214a1 1 0 0 0 1.414 0l9.843-9.843-2.464-2.464-7.2-7.2z" clip-rule="evenodd"/></svg>