<svg xmlns="http://www.w3.org/2000/svg" width="33" height="32" fill="none" viewBox="0 0 33 32"><path fill="#111827" fill-rule="evenodd" d="M12.45.685a1 1 0 1 0-1.898.632l1.25 3.75a1 1 0 0 0 1.897-.632l-1.25-3.75Zm-11.897 10a1 1 0 0 1 1.264-.633l3.75 1.25a1 1 0 1 1-.632 1.897l-3.75-1.25a1 1 0 0 1-.632-1.265ZM26.8 19.433a1 1 0 0 1 1.265-.633l3.75 1.25a1 1 0 0 1-.632 1.897l-3.75-1.25a1 1 0 0 1-.633-1.264ZM19.933 26.3a1 1 0 0 1 1.265.633l1.25 3.75a1 1 0 0 1-1.897.632l-1.25-3.75a1 1 0 0 1 .633-1.265Zm-10.07-2.25-3.971 3.973a1 1 0 0 1-1.414-1.415l3.971-3.971-1.5-1.5a3 3 0 0 1 0-4.242l4.516-4.516-1.627-1.627a1 1 0 0 1 1.414-1.414l1.627 1.627 4.515-4.516a3 3 0 0 1 4.243 0l1.5 1.5 3.971-3.971a1 1 0 1 1 1.414 1.414l-3.971 3.971 1.634 1.635a3 3 0 0 1 0 4.242l-4.515 4.516 1.492 1.492a1 1 0 1 1-1.414 1.414l-1.492-1.492-4.515 4.515a3 3 0 0 1-4.243 0l-1.635-1.634ZM14.3 12.374l4.509-4.51a1 1 0 0 1 1.414 0l4.548 4.549a1 1 0 0 1 0 1.414l-4.509 4.51-5.963-5.963ZM12.873 13.8l-4.51 4.509a1 1 0 0 0 0 1.414l4.55 4.548a1 1 0 0 0 1.413 0l4.51-4.509-5.963-5.962Z" clip-rule="evenodd"/></svg>