<svg xmlns="http://www.w3.org/2000/svg" width="33" height="33" fill="none" viewBox="0 0 33 33"><path fill="#111827" fill-rule="evenodd" d="M7.333 5.919A13.94 13.94 0 0 1 15.5 2.536V6.8a9.7 9.7 0 0 0-5.15 2.134zM5.17 5.204A15.95 15.95 0 0 0 .501 16.5c0 8.836 7.163 15.999 15.999 15.999s15.999-7.163 15.999-16c0-8.835-7.163-15.998-16-15.998-4.408 0-8.401 1.783-11.295 4.668l-.017.018zm.75 20.462A13.94 13.94 0 0 1 2.536 17.5H6.8a9.7 9.7 0 0 0 2.134 5.15zm1.414 1.414a13.94 13.94 0 0 0 8.167 3.384v-4.265a9.7 9.7 0 0 1-5.151-2.135zm18.333 0a13.94 13.94 0 0 1-8.166 3.384v-4.265a9.7 9.7 0 0 0 5.15-2.134zm1.415-1.414a13.94 13.94 0 0 0 3.383-8.166h-4.265a9.7 9.7 0 0 1-2.134 5.15zm0-18.333a13.94 13.94 0 0 1 3.383 8.167h-4.265a9.7 9.7 0 0 0-2.135-5.151zm-1.415-1.414A13.94 13.94 0 0 0 17.5 2.536V6.8a9.7 9.7 0 0 1 5.15 2.134zm-3.68 5.107a7.73 7.73 0 0 1 2.263 5.468v.011a7.73 7.73 0 0 1-2.287 5.492 7.73 7.73 0 0 1-5.457 2.252h-.011a7.73 7.73 0 0 1-5.468-2.264l-.006-.006-.006-.006a7.73 7.73 0 0 1-2.264-5.47V16.5a7.75 7.75 0 0 1 7.747-7.75h.003c2.137 0 4.071.865 5.473 2.264l.006.006zM2.535 15.5H6.8a9.7 9.7 0 0 1 2.134-5.15L5.919 7.332A13.94 13.94 0 0 0 2.536 15.5" clip-rule="evenodd"/></svg>