<svg xmlns="http://www.w3.org/2000/svg" width="33" height="32" fill="none"><path fill="#111827" fill-rule="evenodd" d="M7.333 5.419A13.94 13.94 0 0 1 15.5 2.036V6.3a9.704 9.704 0 0 0-5.15 2.134L7.332 5.419ZM5.17 4.704A15.949 15.949 0 0 0 .501 16c0 8.836 7.163 15.999 15.999 15.999s15.999-7.163 15.999-16c0-8.835-7.163-15.998-16-15.998-4.408 0-8.401 1.783-11.295 4.668l-.017.018-.018.017Zm.75 20.462A13.94 13.94 0 0 1 2.536 17H6.8a9.704 9.704 0 0 0 2.134 5.15l-3.016 3.016Zm1.414 1.414a13.939 13.939 0 0 0 8.167 3.384v-4.265a9.704 9.704 0 0 1-5.151-2.135L7.333 26.58Zm18.333 0a13.939 13.939 0 0 1-8.166 3.384v-4.265a9.704 9.704 0 0 0 5.15-2.134l3.016 3.016Zm1.415-1.414A13.939 13.939 0 0 0 30.464 17h-4.265a9.704 9.704 0 0 1-2.134 5.15l3.016 3.016Zm0-18.333A13.939 13.939 0 0 1 30.463 15h-4.265a9.704 9.704 0 0 0-2.135-5.151l3.016-3.016Zm-1.415-1.414A13.94 13.94 0 0 0 17.5 2.036V6.3a9.704 9.704 0 0 1 5.15 2.134l3.016-3.016Zm-3.68 5.107a7.725 7.725 0 0 1 2.263 5.468v.011a7.725 7.725 0 0 1-2.287 5.492 7.725 7.725 0 0 1-5.457 2.252h-.011a7.725 7.725 0 0 1-5.468-2.264l-.006-.006-.006-.006a7.725 7.725 0 0 1-2.264-5.47V16a7.75 7.75 0 0 1 7.747-7.75h.003c2.137 0 4.071.865 5.473 2.264l.006.006a.181.181 0 0 0 .006.006ZM2.535 15H6.8a9.704 9.704 0 0 1 2.134-5.15L5.919 6.832A13.94 13.94 0 0 0 2.536 15Z" clip-rule="evenodd"/></svg>