<svg xmlns="http://www.w3.org/2000/svg" width="33" height="32" fill="none"><path fill="#111827" fill-rule="evenodd" d="M13.611 4.89a2.333 2.333 0 1 1 4.667 0 2.333 2.333 0 0 1-4.666 0Zm6.667 0-.003.144 4.086 1.114a4.333 4.333 0 1 1 3.345 6.383l-3.86 10.936a4.333 4.333 0 1 1-6.339 1.956l-9.864-7.234a4.333 4.333 0 1 1-.343-6.864l4.841-4.358a4.333 4.333 0 1 1 8.137-2.078Zm1.682 17.912 3.86-10.936a4.33 4.33 0 0 1-1.985-3.788L19.75 6.964a4.332 4.332 0 0 1-6.27 1.49L8.637 12.81c.337.617.53 1.325.53 2.078a4.32 4.32 0 0 1-.342 1.688l9.865 7.234a4.316 4.316 0 0 1 3.27-1.01ZM6.558 13.317a2.333 2.333 0 1 0 .02.022l-.01-.01-.01-.012Zm19.352-5.69-.005.016a2.334 2.334 0 1 0 4.594.58 2.333 2.333 0 0 0-4.575-.65l-.005.02-.004.016-.005.019Zm-4.41 17.15a2.333 2.333 0 1 0 0 4.667 2.333 2.333 0 0 0 0-4.667Z" clip-rule="evenodd"/></svg>