<svg xmlns="http://www.w3.org/2000/svg" width="33" height="33" fill="none"><path fill="#111827" fill-rule="evenodd" d="M12.35 1.968a6.604 6.604 0 0 1 10.255 2.616 6.62 6.62 0 0 1 8.567 5.372c.552.14.942.705.8 1.316l-4.71 20.375a1.1 1.1 0 0 1-1.072.852H6.575a1.1 1.1 0 0 1-1.074-.864L1.024 11.259a1.101 1.101 0 0 1 .806-1.304 6.62 6.62 0 0 1 8.567-5.37 6.604 6.604 0 0 1 1.953-2.617Zm-8.543 8.294 6.523 1.387 5.614-2.064a1.1 1.1 0 0 1 .735-.008l6.077 2.075 6.44-1.386A4.618 4.618 0 0 0 22.45 6.81a1 1 0 0 1-1.447-.673 4.604 4.604 0 0 0-9.004 0 1 1 0 0 1-1.447.673 4.62 4.62 0 0 0-6.745 3.45Zm9.823 20.237h5.742l2.282-17.11-5.32-1.816-4.983 1.832 2.28 17.094ZM9.344 13.485l2.268 17.014H7.3L3.277 12.194l6.067 1.29Zm14.312.019L21.39 30.499h4.084l4.231-18.297-6.05 1.302Z" clip-rule="evenodd"/></svg>