<svg xmlns="http://www.w3.org/2000/svg" width="33" height="32" fill="none" viewBox="0 0 33 32"><g clip-path="url(#a)"><mask id="b" fill="#fff"><path fill-rule="evenodd" d="M24.54 21.286c-.093-1.79.792-2.113 1.409-2.288-.066-.093-.153-.202-.251-.328-.317-.387-.716-.89-1.038-1.67-.049-.12-.197-.383-.387-.727-.814-1.458-2.42-4.336-2.103-6.308.224-1.403 1.294-2.332 3.965-2.053-.006-.027-.017-.055-.027-.082a8.86 8.86 0 0 0-.623-1.365c-1.17-2.124-3.708-5.09-8.23-5.16-5.456-.093-6.45 5.335-6.63 7.617.265-.163.543-.306.83-.425a6.964 6.964 0 0 1 1.497-.426c.54-.082 1.086-.071 1.578.081.77.24 1.382.814 1.622 1.906.84 3.905.087 5.587-.503 6.903-.432.95-.252.545-.523 1.307-.1.278-.186.54-.246.78.064-.017.13-.028.196-.034.355-.032.77.11 1.06.317.31.224.562.574.704.961.125.36.109.705.104 1.082a74.984 74.984 0 0 0 .038 4.893c.065 1.403.18 2.452.333 2.845.164.41.426 1.016.923 1.436.48.41 1.223.656 2.403.404 1.032-.224 1.73-.54 2.19-1.02.464-.476.72-1.153.884-2.092.115-.689.279-1.89.432-3.08.185-1.453.35-2.944.393-3.474Zm-12.817.858c1.796-.372 1.977-.595 2.556-1.333.207-.263.43-.515.666-.753a.325.325 0 0 1 .213-.099c.13-.01.316.06.431.143.153.109.284.294.36.502.071.213.1.475-.038.666-.671.934-1.496 1.327-2.266 1.458-.78.137-1.518 0-1.96-.109a2.084 2.084 0 0 1-.634-.273c.13-.066.35-.137.672-.202Zm-.52-3.419a4.853 4.853 0 0 1-.414-.399 4.874 4.874 0 0 1-1.245-2.828c-.04-.402-.031-.808.027-1.207.23-1.644.142-3.124.093-3.894-.011-.202-.022-.355-.016-.475-.006-.038-.131-4.98 2.68-7.744C9.79 1.342 1.582-.662 2.03 8.36c.066 1.316 1.109 6.695 2.693 10.447.496 1.18 1.048 2.19 1.632 2.84.486.54.983.803 1.464.628.262-.093.546-.312.847-.672a61.734 61.734 0 0 1 2.539-2.878ZM21.237 1.201c2.572 1.136 4.189 3.194 5.073 4.81.272.483.503.987.688 1.508.164.459.224.82.197.978 0 .016-.005.033-.005.049.022.671-.06 1.223-.153 1.802-.066.448-.137.912-.159 1.458-.016.519.05 1.065.12 1.633.175 1.447.36 2.987-.611 4.582a.619.619 0 0 0 .049.06c.038.049.077.098.115.142 1.676-2.638 2.9-5.538 3.598-8.077.809-2.922.934-5.303.268-6.16a7.663 7.663 0 0 0-3.965-2.681C24.458.73 22.471.949 21.236 1.2ZM10.592 9.916c0 .142.011.284.017.426.049.792.142 2.327-.104 4.08a4.022 4.022 0 0 0-.022.988c.077.849.43 1.649 1.005 2.277.54.596 1.256 1 2.043 1.109.142.022.289.027.431.033.071-.29.171-.589.285-.902.157-.432.2-.607.54-1.354.535-1.19 1.217-2.708.436-6.318-.147-.7-.518-1.06-.972-1.202-.343-.109-.747-.109-1.163-.049-.436.066-.879.208-1.277.366-.69.284-1.213.524-1.219.546Zm2.802-.393a1.83 1.83 0 0 1 1.136.159c.18.103.278.24.262.387-.016.115-.131.279-.306.399a.92.92 0 0 1-.628.158h-.006a1.048 1.048 0 0 1-.59-.322c-.142-.153-.23-.318-.223-.46.008-.141.112-.26.355-.32Zm12.85-.655c-2.163-.268-2.998.322-3.146 1.245-.262 1.65 1.234 4.336 1.999 5.707.207.366.36.65.431.819.082.186.164.36.251.513.568-1.201.42-2.435.279-3.604-.071-.606-.142-1.196-.126-1.77.022-.595.099-1.092.17-1.567.07-.442.136-.868.142-1.343Zm.267 10.95c-.07.021-.153.043-.235.07-.327.093-.846.235-.791 1.36.043.044.185.087.398.126.333.07.776.082 1.245.06.82-.05 1.693-.224 2.25-.48.574-.268 1.055-.59 1.35-.875-1.231.23-3.1.581-4.217-.262ZM25.365 9.522c.016.098-.066.268-.202.41a.927.927 0 0 1-.56.3.825.825 0 0 1-.489-.104c-.194-.107-.336-.254-.339-.401-.002-.101.062-.202.22-.292a1.69 1.69 0 0 1 .523-.164c.208-.028.405-.022.552.016.169.039.278.12.295.235Zm1.714 9.623c.219.207.956.53 3.43.016.48-.098.819-.076 1.037.027.284.137.41.36.388.655-.01.18-.093.366-.23.558-.316.437-1.042.994-1.933 1.409-.66.305-1.67.513-2.594.568-.54.027-1.06.005-1.48-.077a4.12 4.12 0 0 1-.3-.076c-.076.693-.191 1.665-.317 2.649a80.493 80.493 0 0 1-.436 3.123c-.197 1.13-.525 1.96-1.131 2.589-.606.628-1.453 1.026-2.676 1.288-1.529.328-2.534-.032-3.211-.6-.666-.563-.983-1.311-1.185-1.814-.202-.496-.333-1.66-.404-3.15a71.625 71.625 0 0 1-.06-3.703 4.274 4.274 0 0 1-2.168 1.054c-.956.164-1.83.005-2.354-.126-.382-.098-.857-.311-1.136-.573a.94.94 0 0 1-.306-.54c-.032-.241.039-.476.262-.683.213-.203.607-.383 1.262-.52 1.452-.3 1.583-.463 1.998-.993.107-.135.218-.266.333-.393-.005-.022-.005-.044-.005-.066a4.242 4.242 0 0 1-1.873-.503 65.558 65.558 0 0 0-2.6 2.944c-.409.497-.835.803-1.26.956-.902.322-1.727-.055-2.48-.885-.655-.732-1.256-1.83-1.797-3.107-1.627-3.856-2.698-9.41-2.769-10.77C.527-2.78 11.444.83 13.181 1.473 14.213.77 15.546.332 17.27.36c.835.01 1.616.115 2.332.29.344-.093.83-.23.857-.24.066-.017.142-.033.24-.055 1.284-.3 3.632-.64 6.013.049a8.551 8.551 0 0 1 4.446 3.003c.852 1.092.78 3.79-.104 6.99-.76 2.753-2.113 5.92-3.976 8.75Z" clip-rule="evenodd"/></mask><path stroke="#111827" stroke-width="2" d="M24.54 21.286c-.093-1.79.792-2.113 1.409-2.288-.066-.093-.153-.202-.251-.328-.317-.387-.716-.89-1.038-1.67-.049-.12-.197-.383-.387-.727-.814-1.458-2.42-4.336-2.103-6.308.224-1.403 1.294-2.332 3.965-2.053-.006-.027-.017-.055-.027-.082a8.86 8.86 0 0 0-.623-1.365c-1.17-2.124-3.708-5.09-8.23-5.16-5.456-.093-6.45 5.335-6.63 7.617.265-.163.543-.306.83-.425a6.964 6.964 0 0 1 1.497-.426c.54-.082 1.086-.071 1.578.081.77.24 1.382.814 1.622 1.906.84 3.905.087 5.587-.503 6.903-.432.95-.252.545-.523 1.307-.1.278-.186.54-.246.78.064-.017.13-.028.196-.034.355-.032.77.11 1.06.317.31.224.562.574.704.961.125.36.109.705.104 1.082a74.984 74.984 0 0 0 .038 4.893c.065 1.403.18 2.452.333 2.845.164.41.426 1.016.923 1.436.48.41 1.223.656 2.403.404 1.032-.224 1.73-.54 2.19-1.02.464-.476.72-1.153.884-2.092.115-.689.279-1.89.432-3.08.185-1.453.35-2.944.393-3.474Zm-12.817.858c1.796-.372 1.977-.595 2.556-1.333.207-.263.43-.515.666-.753a.325.325 0 0 1 .213-.099c.13-.01.316.06.431.143.153.109.284.294.36.502.071.213.1.475-.038.666-.671.934-1.496 1.327-2.266 1.458-.78.137-1.518 0-1.96-.109a2.084 2.084 0 0 1-.634-.273c.13-.066.35-.137.672-.202Zm-.52-3.419a4.853 4.853 0 0 1-.414-.399 4.874 4.874 0 0 1-1.245-2.828c-.04-.402-.031-.808.027-1.207.23-1.644.142-3.124.093-3.894-.011-.202-.022-.355-.016-.475-.006-.038-.131-4.98 2.68-7.744C9.79 1.342 1.582-.662 2.03 8.36c.066 1.316 1.109 6.695 2.693 10.447.496 1.18 1.048 2.19 1.632 2.84.486.54.983.803 1.464.628.262-.093.546-.312.847-.672a61.734 61.734 0 0 1 2.539-2.878ZM21.237 1.201c2.572 1.136 4.189 3.194 5.073 4.81.272.483.503.987.688 1.508.164.459.224.82.197.978 0 .016-.005.033-.005.049.022.671-.06 1.223-.153 1.802-.066.448-.137.912-.159 1.458-.016.519.05 1.065.12 1.633.175 1.447.36 2.987-.611 4.582a.619.619 0 0 0 .049.06c.038.049.077.098.115.142 1.676-2.638 2.9-5.538 3.598-8.077.809-2.922.934-5.303.268-6.16a7.663 7.663 0 0 0-3.965-2.681C24.458.73 22.471.949 21.236 1.2ZM10.592 9.916c0 .142.011.284.017.426.049.792.142 2.327-.104 4.08a4.022 4.022 0 0 0-.022.988c.077.849.43 1.649 1.005 2.277.54.596 1.256 1 2.043 1.109.142.022.289.027.431.033.071-.29.171-.589.285-.902.157-.432.2-.607.54-1.354.535-1.19 1.217-2.708.436-6.318-.147-.7-.518-1.06-.972-1.202-.343-.109-.747-.109-1.163-.049-.436.066-.879.208-1.277.366-.69.284-1.213.524-1.219.546Zm2.802-.393a1.83 1.83 0 0 1 1.136.159c.18.103.278.24.262.387-.016.115-.131.279-.306.399a.92.92 0 0 1-.628.158h-.006a1.048 1.048 0 0 1-.59-.322c-.142-.153-.23-.318-.223-.46.008-.141.112-.26.355-.32Zm12.85-.655c-2.163-.268-2.998.322-3.146 1.245-.262 1.65 1.234 4.336 1.999 5.707.207.366.36.65.431.819.082.186.164.36.251.513.568-1.201.42-2.435.279-3.604-.071-.606-.142-1.196-.126-1.77.022-.595.099-1.092.17-1.567.07-.442.136-.868.142-1.343Zm.267 10.95c-.07.021-.153.043-.235.07-.327.093-.846.235-.791 1.36.043.044.185.087.398.126.333.07.776.082 1.245.06.82-.05 1.693-.224 2.25-.48.574-.268 1.055-.59 1.35-.875-1.231.23-3.1.581-4.217-.262ZM25.365 9.522c.016.098-.066.268-.202.41a.927.927 0 0 1-.56.3.825.825 0 0 1-.489-.104c-.194-.107-.336-.254-.339-.401-.002-.101.062-.202.22-.292a1.69 1.69 0 0 1 .523-.164c.208-.028.405-.022.552.016.169.039.278.12.295.235Zm1.714 9.623c.219.207.956.53 3.43.016.48-.098.819-.076 1.037.027.284.137.41.36.388.655-.01.18-.093.366-.23.558-.316.437-1.042.994-1.933 1.409-.66.305-1.67.513-2.594.568-.54.027-1.06.005-1.48-.077a4.12 4.12 0 0 1-.3-.076c-.076.693-.191 1.665-.317 2.649a80.493 80.493 0 0 1-.436 3.123c-.197 1.13-.525 1.96-1.131 2.589-.606.628-1.453 1.026-2.676 1.288-1.529.328-2.534-.032-3.211-.6-.666-.563-.983-1.311-1.185-1.814-.202-.496-.333-1.66-.404-3.15a71.625 71.625 0 0 1-.06-3.703 4.274 4.274 0 0 1-2.168 1.054c-.956.164-1.83.005-2.354-.126-.382-.098-.857-.311-1.136-.573a.94.94 0 0 1-.306-.54c-.032-.241.039-.476.262-.683.213-.203.607-.383 1.262-.52 1.452-.3 1.583-.463 1.998-.993.107-.135.218-.266.333-.393-.005-.022-.005-.044-.005-.066a4.242 4.242 0 0 1-1.873-.503 65.558 65.558 0 0 0-2.6 2.944c-.409.497-.835.803-1.26.956-.902.322-1.727-.055-2.48-.885-.655-.732-1.256-1.83-1.797-3.107-1.627-3.856-2.698-9.41-2.769-10.77C.527-2.78 11.444.83 13.181 1.473 14.213.77 15.546.332 17.27.36c.835.01 1.616.115 2.332.29.344-.093.83-.23.857-.24.066-.017.142-.033.24-.055 1.284-.3 3.632-.64 6.013.049a8.551 8.551 0 0 1 4.446 3.003c.852 1.092.78 3.79-.104 6.99-.76 2.753-2.113 5.92-3.976 8.75Z" clip-rule="evenodd" mask="url(#b)"/></g><defs><clipPath id="a"><path fill="#fff" d="M.5 0h32v32H.5z"/></clipPath></defs></svg>