<svg xmlns="http://www.w3.org/2000/svg" width="33" height="33" fill="none"><mask id="a" fill="#fff"><path fill-rule="evenodd" d="M22.671 20.722c-.066-1.272.563-1.501 1.001-1.625-.046-.066-.109-.144-.178-.233a4.47 4.47 0 0 1-.737-1.187c-.035-.085-.14-.272-.276-.516-.578-1.036-1.718-3.08-1.493-4.48.159-.998.92-1.657 2.816-1.46a6.288 6.288 0 0 0-.462-1.028c-.83-1.508-2.634-3.615-5.846-3.665-3.875-.066-4.581 3.79-4.71 5.412.19-.117.386-.218.59-.303a4.945 4.945 0 0 1 1.063-.303c.384-.058.772-.05 1.122.058.547.171.981.579 1.152 1.354.597 2.774.062 3.969-.357 4.904-.307.675-.18.387-.372.928-.07.198-.132.383-.175.554a.928.928 0 0 1 .14-.024c.252-.023.546.078.752.225.221.16.4.408.5.683.09.256.078.5.074.768a53.205 53.205 0 0 0 .027 3.476c.047.997.128 1.742.237 2.021.116.291.303.722.656 1.02.34.291.869.466 1.706.288.734-.16 1.23-.384 1.556-.726.33-.337.512-.818.628-1.486a71.35 71.35 0 0 0 .307-2.188c.132-1.031.248-2.09.28-2.467Zm-9.105.61c1.277-.265 1.405-.423 1.816-.947.147-.188.305-.366.473-.535a.23.23 0 0 1 .152-.07.537.537 0 0 1 .306.1c.109.078.202.21.256.358.05.15.07.337-.027.473-.477.663-1.063.942-1.61 1.036-.555.096-1.078 0-1.393-.078a1.48 1.48 0 0 1-.45-.194 2.04 2.04 0 0 1 .477-.144Zm-.368-2.43a3.443 3.443 0 0 1-.295-.282 3.463 3.463 0 0 1-.884-2.01 3.53 3.53 0 0 1 .019-.857c.163-1.168.1-2.22.066-2.766-.008-.144-.016-.252-.012-.338-.004-.027-.093-3.537 1.905-5.5-1.804-.594-7.635-2.018-7.316 4.39.046.936.787 4.757 1.912 7.422.353.838.745 1.556 1.16 2.017.345.384.698.57 1.04.446.186-.066.388-.22.601-.477.58-.7 1.181-1.382 1.804-2.044Zm7.126-12.448c1.827.807 2.976 2.27 3.604 3.418.193.342.357.7.49 1.07.116.326.158.582.139.695 0 .012-.004.023-.004.035.015.477-.043.869-.109 1.28-.046.318-.097.648-.112 1.036-.012.369.035.756.085 1.16.124 1.028.256 2.122-.434 3.255a.442.442 0 0 0 .034.042c.028.035.055.07.082.101a21.786 21.786 0 0 0 2.556-5.737c.575-2.076.664-3.767.19-4.376a5.443 5.443 0 0 0-2.816-1.905c-1.416-.408-2.828-.252-3.705-.074Zm-7.56 6.192c0 .1.007.201.011.302.035.563.101 1.653-.074 2.898-.034.24-.039.477-.015.702.055.603.305 1.171.714 1.618.384.422.892.71 1.45.787.102.016.206.02.307.023.05-.205.122-.418.203-.64.111-.307.142-.431.383-.962.38-.845.865-1.924.31-4.488-.104-.497-.368-.753-.69-.853-.245-.078-.531-.078-.826-.035-.31.046-.625.147-.908.26-.49.201-.862.372-.865.388Zm1.99-.28a1.3 1.3 0 0 1 .807.113c.127.073.197.17.186.275-.012.082-.093.198-.217.283a.654.654 0 0 1-.447.113h-.004a.745.745 0 0 1-.418-.23c-.102-.108-.165-.225-.16-.326.006-.1.08-.185.253-.228Zm9.127-.465c-1.536-.19-2.13.229-2.234.884-.186 1.172.877 3.08 1.42 4.054.147.26.256.462.306.582.058.132.117.256.179.365.403-.854.298-1.73.198-2.56-.05-.431-.101-.85-.09-1.258.016-.422.07-.775.12-1.113a6.26 6.26 0 0 0 .101-.954Zm.19 7.778c-.05.015-.108.03-.166.05-.233.066-.602.167-.563.966.032.031.132.062.284.09.236.05.55.058.884.042.582-.035 1.203-.16 1.598-.341.408-.19.75-.42.959-.621-.875.163-2.202.412-2.995-.186Zm-.814-7.313c.012.07-.047.19-.143.291a.659.659 0 0 1-.399.213.586.586 0 0 1-.346-.073c-.138-.077-.24-.18-.241-.286-.001-.071.044-.143.156-.207a1.204 1.204 0 0 1 .764-.105c.12.028.197.086.21.167Zm1.218 6.836c.155.147.679.376 2.436.011.342-.07.582-.054.737.02.202.097.291.256.276.465a.78.78 0 0 1-.163.396c-.225.31-.741.706-1.373 1-.47.218-1.188.365-1.843.404a4.52 4.52 0 0 1-1.051-.054 2.947 2.947 0 0 1-.214-.054 116.36 116.36 0 0 1-.225 1.881 57.16 57.16 0 0 1-.31 2.22c-.14.802-.372 1.392-.803 1.838-.43.446-1.032.73-1.901.915-1.086.233-1.8-.023-2.281-.427-.473-.4-.698-.93-.842-1.288-.143-.352-.237-1.179-.287-2.238a50.882 50.882 0 0 1-.043-2.63 3.036 3.036 0 0 1-1.54.749c-.678.116-1.3.003-1.671-.09-.272-.07-.61-.22-.808-.407a.667.667 0 0 1-.217-.384.536.536 0 0 1 .186-.485c.152-.143.431-.271.896-.368 1.032-.214 1.125-.33 1.42-.706.076-.096.155-.19.237-.28-.004-.015-.004-.03-.004-.046a3.013 3.013 0 0 1-1.33-.357 46.542 46.542 0 0 0-1.847 2.09c-.291.354-.594.571-.896.68-.64.229-1.226-.04-1.762-.629-.465-.52-.892-1.3-1.276-2.207-1.156-2.739-1.916-6.684-1.967-7.65-.395-7.945 7.36-5.38 8.593-4.923.733-.5 1.68-.81 2.906-.792a7.37 7.37 0 0 1 1.656.206c.245-.066.59-.163.61-.17.046-.012.1-.024.17-.04.912-.213 2.58-.453 4.271.035a6.075 6.075 0 0 1 3.158 2.134c.605.776.555 2.692-.074 4.965a22.565 22.565 0 0 1-2.824 6.216Z" clip-rule="evenodd"/></mask><path stroke="#1C1B1F" stroke-width="2" d="M22.671 20.722c-.066-1.272.563-1.501 1.001-1.625-.046-.066-.109-.144-.178-.233a4.47 4.47 0 0 1-.737-1.187c-.035-.085-.14-.272-.276-.516-.578-1.036-1.718-3.08-1.493-4.48.159-.998.92-1.657 2.816-1.46a6.288 6.288 0 0 0-.462-1.028c-.83-1.508-2.634-3.615-5.846-3.665-3.875-.066-4.581 3.79-4.71 5.412.19-.117.386-.218.59-.303a4.945 4.945 0 0 1 1.063-.303c.384-.058.772-.05 1.122.058.547.171.981.579 1.152 1.354.597 2.774.062 3.969-.357 4.904-.307.675-.18.387-.372.928-.07.198-.132.383-.175.554a.928.928 0 0 1 .14-.024c.252-.023.546.078.752.225.221.16.4.408.5.683.09.256.078.5.074.768a53.205 53.205 0 0 0 .027 3.476c.047.997.128 1.742.237 2.021.116.291.303.722.656 1.02.34.291.869.466 1.706.288.734-.16 1.23-.384 1.556-.726.33-.337.512-.818.628-1.486a71.35 71.35 0 0 0 .307-2.188c.132-1.031.248-2.09.28-2.467Zm-9.105.61c1.277-.265 1.405-.423 1.816-.947.147-.188.305-.366.473-.535a.23.23 0 0 1 .152-.07.537.537 0 0 1 .306.1c.109.078.202.21.256.358.05.15.07.337-.027.473-.477.663-1.063.942-1.61 1.036-.555.096-1.078 0-1.393-.078a1.48 1.48 0 0 1-.45-.194 2.04 2.04 0 0 1 .477-.144Zm-.368-2.43a3.443 3.443 0 0 1-.295-.282 3.463 3.463 0 0 1-.884-2.01 3.53 3.53 0 0 1 .019-.857c.163-1.168.1-2.22.066-2.766-.008-.144-.016-.252-.012-.338-.004-.027-.093-3.537 1.905-5.5-1.804-.594-7.635-2.018-7.316 4.39.046.936.787 4.757 1.912 7.422.353.838.745 1.556 1.16 2.017.345.384.698.57 1.04.446.186-.066.388-.22.601-.477.58-.7 1.181-1.382 1.804-2.044Zm7.126-12.448c1.827.807 2.976 2.27 3.604 3.418.193.342.357.7.49 1.07.116.326.158.582.139.695 0 .012-.004.023-.004.035.015.477-.043.869-.109 1.28-.046.318-.097.648-.112 1.036-.012.369.035.756.085 1.16.124 1.028.256 2.122-.434 3.255a.442.442 0 0 0 .034.042c.028.035.055.07.082.101a21.786 21.786 0 0 0 2.556-5.737c.575-2.076.664-3.767.19-4.376a5.443 5.443 0 0 0-2.816-1.905c-1.416-.408-2.828-.252-3.705-.074Zm-7.56 6.192c0 .1.007.201.011.302.035.563.101 1.653-.074 2.898-.034.24-.039.477-.015.702.055.603.305 1.171.714 1.618.384.422.892.71 1.45.787.102.016.206.02.307.023.05-.205.122-.418.203-.64.111-.307.142-.431.383-.962.38-.845.865-1.924.31-4.488-.104-.497-.368-.753-.69-.853-.245-.078-.531-.078-.826-.035-.31.046-.625.147-.908.26-.49.201-.862.372-.865.388Zm1.99-.28a1.3 1.3 0 0 1 .807.113c.127.073.197.17.186.275-.012.082-.093.198-.217.283a.654.654 0 0 1-.447.113h-.004a.745.745 0 0 1-.418-.23c-.102-.108-.165-.225-.16-.326.006-.1.08-.185.253-.228Zm9.127-.465c-1.536-.19-2.13.229-2.234.884-.186 1.172.877 3.08 1.42 4.054.147.26.256.462.306.582.058.132.117.256.179.365.403-.854.298-1.73.198-2.56-.05-.431-.101-.85-.09-1.258.016-.422.07-.775.12-1.113a6.26 6.26 0 0 0 .101-.954Zm.19 7.778c-.05.015-.108.03-.166.05-.233.066-.602.167-.563.966.032.031.132.062.284.09.236.05.55.058.884.042.582-.035 1.203-.16 1.598-.341.408-.19.75-.42.959-.621-.875.163-2.202.412-2.995-.186Zm-.814-7.313c.012.07-.047.19-.143.291a.659.659 0 0 1-.399.213.586.586 0 0 1-.346-.073c-.138-.077-.24-.18-.241-.286-.001-.071.044-.143.156-.207a1.204 1.204 0 0 1 .764-.105c.12.028.197.086.21.167Zm1.218 6.836c.155.147.679.376 2.436.011.342-.07.582-.054.737.02.202.097.291.256.276.465a.78.78 0 0 1-.163.396c-.225.31-.741.706-1.373 1-.47.218-1.188.365-1.843.404a4.52 4.52 0 0 1-1.051-.054 2.947 2.947 0 0 1-.214-.054 116.36 116.36 0 0 1-.225 1.881 57.16 57.16 0 0 1-.31 2.22c-.14.802-.372 1.392-.803 1.838-.43.446-1.032.73-1.901.915-1.086.233-1.8-.023-2.281-.427-.473-.4-.698-.93-.842-1.288-.143-.352-.237-1.179-.287-2.238a50.882 50.882 0 0 1-.043-2.63 3.036 3.036 0 0 1-1.54.749c-.678.116-1.3.003-1.671-.09-.272-.07-.61-.22-.808-.407a.667.667 0 0 1-.217-.384.536.536 0 0 1 .186-.485c.152-.143.431-.271.896-.368 1.032-.214 1.125-.33 1.42-.706.076-.096.155-.19.237-.28-.004-.015-.004-.03-.004-.046a3.013 3.013 0 0 1-1.33-.357 46.542 46.542 0 0 0-1.847 2.09c-.291.354-.594.571-.896.68-.64.229-1.226-.04-1.762-.629-.465-.52-.892-1.3-1.276-2.207-1.156-2.739-1.916-6.684-1.967-7.65-.395-7.945 7.36-5.38 8.593-4.923.733-.5 1.68-.81 2.906-.792a7.37 7.37 0 0 1 1.656.206c.245-.066.59-.163.61-.17.046-.012.1-.024.17-.04.912-.213 2.58-.453 4.271.035a6.075 6.075 0 0 1 3.158 2.134c.605.776.555 2.692-.074 4.965a22.565 22.565 0 0 1-2.824 6.216Z" clip-rule="evenodd" mask="url(#a)"/></svg>