<svg xmlns="http://www.w3.org/2000/svg" width="33" height="32" fill="none" viewBox="0 0 33 32"><path fill="#111827" fill-rule="evenodd" d="M5.9 4.371a1 1 0 0 1 1-1h19.2a1 1 0 0 1 1 1v5h4.399a1 1 0 0 1 1 1V24.77a1 1 0 0 1-1 1h-4.4v1.859a1 1 0 0 1-1 1H6.9a1 1 0 0 1-1-1V25.77H1.5a1 1 0 0 1-1-1v-14.4a1 1 0 0 1 1-1h4.4zm0 19.399v-2.6a1 1 0 0 1 1-1h19.2a1 1 0 0 1 1 1v2.6h3.399v-12.4h-4.388l-.012.001H2.501V23.77zM25.1 5.371v4H7.9v-4zm2.2 10.4a1.8 1.8 0 1 1-3.6 0 1.8 1.8 0 0 1 3.6 0M7.9 26.629V22.17h17.2v4.459z" clip-rule="evenodd"/></svg>