<svg xmlns="http://www.w3.org/2000/svg" width="33" height="32" fill="none" viewBox="0 0 33 32"><path fill="#111827" fill-rule="evenodd" d="M7.334 5.419A13.95 13.95 0 0 1 16.5 2C24.23 2 30.499 8.268 30.499 16c0 3.506-1.289 6.71-3.418 9.166zM5.183 4.69A15.95 15.95 0 0 0 .5 16c0 8.836 7.163 15.999 15.999 15.999s15.999-7.163 15.999-16c0-8.835-7.163-15.998-16-15.998A15.95 15.95 0 0 0 5.192 4.682l-.004.005zm.736 2.142 19.748 19.748a13.95 13.95 0 0 1-9.167 3.418c-7.732 0-14-6.268-14-14 0-3.505 1.29-6.71 3.42-9.166" clip-rule="evenodd"/></svg>