<svg xmlns="http://www.w3.org/2000/svg" width="33" height="32" fill="none" viewBox="0 0 33 32"><path fill="#111827" fill-rule="evenodd" d="M7.334 5.419A13.945 13.945 0 0 1 16.5 2C24.23 2 30.499 8.268 30.499 16c0 3.506-1.289 6.71-3.418 9.166L7.334 5.42ZM5.183 4.69A15.949 15.949 0 0 0 .5 16c0 8.836 7.163 15.999 15.999 15.999s15.999-7.163 15.999-16c0-8.835-7.163-15.998-16-15.998A15.949 15.949 0 0 0 5.192 4.682l-.004.005-.004.004Zm.736 2.142L25.667 26.58A13.945 13.945 0 0 1 16.5 30c-7.732 0-14-6.268-14-14 0-3.505 1.29-6.71 3.42-9.166Z" clip-rule="evenodd"/></svg>