<svg xmlns="http://www.w3.org/2000/svg" width="29" height="32" fill="none" viewBox="0 0 29 32"><path fill="#111827" fill-rule="evenodd" d="M14.639 4.304a2.152 2.152 0 1 0 0-4.304 2.152 2.152 0 0 0 0 4.304Zm0 27.696a2.152 2.152 0 1 0 0-4.304 2.152 2.152 0 0 0 0 4.304ZM28.815 9.05a2.152 2.152 0 1 1-4.304 0 2.152 2.152 0 0 1 4.304 0ZM2.652 11.204a2.152 2.152 0 1 0 0-4.304 2.152 2.152 0 0 0 0 4.304Zm26.163 11.695a2.152 2.152 0 1 1-4.304 0 2.152 2.152 0 0 1 4.304 0ZM2.652 25.05a2.152 2.152 0 1 0 0-4.303 2.152 2.152 0 0 0 0 4.303ZM16.759 4.587a3.226 3.226 0 0 0 1.028-1.716l6.652 3.84a3.222 3.222 0 0 0-.952 1.76L16.76 4.587Zm8.904 15.241a3.225 3.225 0 0 1 2 0v-7.707a3.224 3.224 0 0 1-2 0v7.707Zm-14.205 9.468a3.22 3.22 0 0 1 .937-1.768l-6.617-3.821A3.23 3.23 0 0 1 4.7 25.394l6.758 3.902ZM24.6 25.381l-6.78 3.915a3.22 3.22 0 0 0-.937-1.769l6.65-3.839c.17.673.55 1.263 1.067 1.693Zm-21.948-5.71c-.363 0-.712.06-1.038.17v-7.733a3.225 3.225 0 0 0 2 .025v7.683a3.23 3.23 0 0 0-.962-.145ZM12.52 4.586 5.825 8.452a3.223 3.223 0 0 0-.963-1.754l6.63-3.828a3.226 3.226 0 0 0 1.027 1.716Zm2.287 3.641a1 1 0 0 0-.976 0l-6.502 3.639a1 1 0 0 0-.512.873v7.275a1 1 0 0 0 .512.872l6.502 3.639a1 1 0 0 0 .976 0l6.503-3.639a1 1 0 0 0 .511-.872V12.76a1 1 0 0 0-.512-.895l-6.502-3.639Zm3.98 4.519-4.468-2.5-4.413 2.47 4.51 2.512 4.37-2.482Zm-9.97 1.652v5.03l4.575 2.56v-5.042l-4.575-2.548Zm11.004 5.03-4.43 2.478v-4.932l4.43-2.516v4.97Z" clip-rule="evenodd"/></svg>