<svg xmlns="http://www.w3.org/2000/svg" width="33" height="32" fill="none" viewBox="0 0 33 32"><path fill="#111827" fill-rule="evenodd" d="M2.655 0a1 1 0 0 0-1 1v4.616a1 1 0 0 0 1 1h1.307v14.153H2.655a1 1 0 1 0 0 2H15.5v2.769a3.31 3.31 0 0 0 1 6.461 3.308 3.308 0 0 0 1-6.461v-2.77h12.846a1 1 0 1 0 0-2h-1.308V6.617h1.307a1 1 0 0 0 1-1V1.001a1 1 0 0 0-1-1H2.655Zm1 4.616V2.001h25.69v2.615H3.655Zm23.383 2v14.153H5.962V6.616h21.076ZM21.5 10a1 1 0 0 1 1 1v5a1 1 0 0 1-2 0v-5a1 1 0 0 1 1-1Zm-4 2.25a1 1 0 1 0-2 0V16a1 1 0 1 0 2 0v-3.75Zm-5 1.25a1 1 0 0 0-2 0V16a1 1 0 1 0 2 0v-2.5Zm4 13.884a1.308 1.308 0 1 0 0 2.615 1.308 1.308 0 0 0 0-2.615Z" clip-rule="evenodd"/></svg>