<svg xmlns="http://www.w3.org/2000/svg" width="33" height="32" fill="none" viewBox="0 0 33 32"><path fill="#111827" fill-rule="evenodd" d="M20.351.294a1 1 0 0 1 1.414 0l10.441 10.438a1 1 0 0 1 0 1.414l-6.252 6.25a1 1 0 1 1-1.414-1.414l5.545-5.543-9.027-9.024-5.278 5.277a1 1 0 0 1-1.414-1.415zM10.434 11.79a4.92 4.92 0 0 0-6.404.472l-1.115 1.115 16.212 16.208 1.116-1.115a4.91 4.91 0 0 0 .48-6.39zM7.467 8.824a6.9 6.9 0 0 0-4.85 2.024L.793 12.67a1 1 0 0 0 0 1.414l7.764 7.762-5.607 5.606a1 1 0 1 0 1.414 1.414l5.607-5.606 8.449 8.446a1 1 0 0 0 1.413 0l1.823-1.822a6.9 6.9 0 0 0 2.025-4.846l5.382 5.383a1 1 0 0 0 1.414-1.415L3.936 2.464a1 1 0 1 0-1.414 1.414z" clip-rule="evenodd"/></svg>