<svg xmlns="http://www.w3.org/2000/svg" width="33" height="32" fill="none" viewBox="0 0 33 32"><path fill="#111827" fill-rule="evenodd" d="M21.765.294a1 1 0 0 0-1.414 0l-9.432 9.43a6.918 6.918 0 0 0-8.303 1.124L.794 12.67a1 1 0 0 0 0 1.414l7.764 7.762-5.607 5.606a1 1 0 1 0 1.414 1.414l5.607-5.606 8.449 8.446a1 1 0 0 0 1.413 0l1.823-1.822a6.914 6.914 0 0 0 1.12-8.31l9.43-9.428a1 1 0 0 0 0-1.414L21.764.294ZM11.76 11.71l9.3-9.296 9.026 9.024-9.298 9.295a1 1 0 0 0-.09 1.31 4.913 4.913 0 0 1-.454 6.426l-1.115 1.115L2.915 13.377l1.115-1.115a4.917 4.917 0 0 1 6.422-.458 1 1 0 0 0 1.307-.093Z" clip-rule="evenodd"/></svg>