<svg xmlns="http://www.w3.org/2000/svg" width="33" height="33" fill="none" viewBox="0 0 33 33"><path fill="#111827" d="m22.996 7.5-.903-.43a1 1 0 0 0 .903 1.43v-1Zm-7.592 0v1a1 1 0 0 0 .904-1.43l-.904.43ZM7.2 15.474l-.285.958a1 1 0 0 0 1.285-.958h-1Zm0 8.052h1a1 1 0 0 0-1.285-.958l.285.958Zm24 0h1a1 1 0 0 0-1.285-.958l.285.958Zm0-8.052-.285.959a1 1 0 0 0 1.285-.959h-1ZM22.4 5.7c0 .493-.11.957-.307 1.37l1.806.86c.322-.678.501-1.434.501-2.23h-2Zm-3.2-3.2a3.2 3.2 0 0 1 3.2 3.2h2A5.2 5.2 0 0 0 19.2.5v2ZM16 5.7a3.2 3.2 0 0 1 3.2-3.2v-2A5.2 5.2 0 0 0 14 5.7h2Zm.308 1.37A3.184 3.184 0 0 1 16 5.7h-2c0 .796.18 1.552.501 2.23l1.807-.859ZM9.2 8.5h6.204v-2H9.2v2Zm-1 1a1 1 0 0 1 1-1v-2a3 3 0 0 0-3 3h2Zm0 5.974V9.5h-2v5.974h2ZM6 16.3c.32 0 .626.046.915.132l.57-1.916A5.199 5.199 0 0 0 6 14.3v2Zm-3.2 3.2A3.2 3.2 0 0 1 6 16.3v-2a5.2 5.2 0 0 0-5.2 5.2h2ZM6 22.7a3.2 3.2 0 0 1-3.2-3.2h-2A5.2 5.2 0 0 0 6 24.7v-2Zm.915-.132A3.198 3.198 0 0 1 6 22.7v2c.515 0 1.014-.075 1.485-.215l-.57-1.917ZM8.2 29.5v-5.974h-2V29.5h2Zm1 1a1 1 0 0 1-1-1h-2a3 3 0 0 0 3 3v-2Zm20 0h-20v2h20v-2Zm1-1a1 1 0 0 1-1 1v2a3 3 0 0 0 3-3h-2Zm0-5.974V29.5h2v-5.974h-2Zm.715-.958A3.199 3.199 0 0 1 30 22.7v2c.515 0 1.014-.075 1.485-.215l-.57-1.917ZM30 22.7a3.2 3.2 0 0 1-3.2-3.2h-2a5.2 5.2 0 0 0 5.2 5.2v-2Zm-3.2-3.2a3.2 3.2 0 0 1 3.2-3.2v-2a5.2 5.2 0 0 0-5.2 5.2h2Zm3.2-3.2c.32 0 .626.046.915.133l.57-1.917A5.199 5.199 0 0 0 30 14.3v2Zm.2-6.8v5.974h2V9.5h-2Zm-1-1a1 1 0 0 1 1 1h2a3 3 0 0 0-3-3v2Zm-6.204 0H29.2v-2h-6.204v2Z"/></svg>