<svg xmlns="http://www.w3.org/2000/svg" width="33" height="32" fill="none" viewBox="0 0 33 32"><path fill="#111827" d="m22.996 7-.903-.43A1 1 0 0 0 22.996 8V7Zm-7.592 0v1a1 1 0 0 0 .904-1.43l-.904.43ZM7.2 14.974l-.285.958a1 1 0 0 0 1.285-.958h-1Zm0 8.052h1a1 1 0 0 0-1.285-.958l.285.958Zm24 0h1a1 1 0 0 0-1.285-.958l.285.958Zm0-8.052-.285.958a1 1 0 0 0 1.285-.958h-1ZM22.4 5.2c0 .493-.11.957-.307 1.37l1.806.86c.322-.678.501-1.434.501-2.23h-2ZM19.2 2a3.2 3.2 0 0 1 3.2 3.2h2A5.2 5.2 0 0 0 19.2 0v2ZM16 5.2A3.2 3.2 0 0 1 19.2 2V0A5.2 5.2 0 0 0 14 5.2h2Zm.308 1.37A3.184 3.184 0 0 1 16 5.2h-2c0 .796.18 1.552.501 2.23l1.807-.859ZM9.2 8h6.204V6H9.2v2Zm-1 1a1 1 0 0 1 1-1V6a3 3 0 0 0-3 3h2Zm0 5.974V9h-2v5.974h2ZM6 15.8c.32 0 .626.046.915.132l.57-1.916A5.199 5.199 0 0 0 6 13.8v2ZM2.8 19A3.2 3.2 0 0 1 6 15.8v-2A5.2 5.2 0 0 0 .8 19h2ZM6 22.2A3.2 3.2 0 0 1 2.8 19h-2A5.2 5.2 0 0 0 6 24.2v-2Zm.915-.132A3.198 3.198 0 0 1 6 22.2v2c.515 0 1.014-.075 1.485-.215l-.57-1.917ZM8.2 29v-5.974h-2V29h2Zm1 1a1 1 0 0 1-1-1h-2a3 3 0 0 0 3 3v-2Zm20 0h-20v2h20v-2Zm1-1a1 1 0 0 1-1 1v2a3 3 0 0 0 3-3h-2Zm0-5.974V29h2v-5.974h-2Zm.715-.958A3.199 3.199 0 0 1 30 22.2v2c.515 0 1.014-.075 1.485-.215l-.57-1.917ZM30 22.2a3.2 3.2 0 0 1-3.2-3.2h-2a5.2 5.2 0 0 0 5.2 5.2v-2ZM26.8 19a3.2 3.2 0 0 1 3.2-3.2v-2a5.2 5.2 0 0 0-5.2 5.2h2Zm3.2-3.2c.32 0 .626.046.915.132l.57-1.916A5.199 5.199 0 0 0 30 13.8v2Zm.2-6.8v5.974h2V9h-2Zm-1-1a1 1 0 0 1 1 1h2a3 3 0 0 0-3-3v2Zm-6.204 0H29.2V6h-6.204v2Z"/></svg>