<svg xmlns="http://www.w3.org/2000/svg" width="33" height="33" fill="none" viewBox="0 0 33 33"><path fill="#111827" d="m22.996 7.5-.903-.43a1 1 0 0 0 .903 1.43zm-7.592 0v1a1 1 0 0 0 .904-1.43zM7.2 15.474l-.285.958a1 1 0 0 0 1.285-.958zm0 8.052h1a1 1 0 0 0-1.285-.958zm24 0h1a1 1 0 0 0-1.285-.958zm0-8.052-.285.959a1 1 0 0 0 1.285-.959zM22.4 5.7c0 .493-.11.957-.307 1.37l1.806.86c.322-.678.501-1.434.501-2.23zm-3.2-3.2a3.2 3.2 0 0 1 3.2 3.2h2A5.2 5.2 0 0 0 19.2.5zM16 5.7a3.2 3.2 0 0 1 3.2-3.2v-2A5.2 5.2 0 0 0 14 5.7zm.308 1.37A3.2 3.2 0 0 1 16 5.7h-2c0 .796.18 1.552.501 2.23zM9.2 8.5h6.204v-2H9.2zm-1 1a1 1 0 0 1 1-1v-2a3 3 0 0 0-3 3zm0 5.974V9.5h-2v5.974zM6 16.3q.48.002.915.132l.57-1.916A5.2 5.2 0 0 0 6 14.3zm-3.2 3.2A3.2 3.2 0 0 1 6 16.3v-2a5.2 5.2 0 0 0-5.2 5.2zM6 22.7a3.2 3.2 0 0 1-3.2-3.2h-2A5.2 5.2 0 0 0 6 24.7zm.915-.132A3.2 3.2 0 0 1 6 22.7v2c.515 0 1.014-.075 1.485-.215zM8.2 29.5v-5.974h-2V29.5zm1 1a1 1 0 0 1-1-1h-2a3 3 0 0 0 3 3zm20 0h-20v2h20zm1-1a1 1 0 0 1-1 1v2a3 3 0 0 0 3-3zm0-5.974V29.5h2v-5.974zm.715-.958A3.2 3.2 0 0 1 30 22.7v2c.515 0 1.014-.075 1.485-.215zM30 22.7a3.2 3.2 0 0 1-3.2-3.2h-2a5.2 5.2 0 0 0 5.2 5.2zm-3.2-3.2a3.2 3.2 0 0 1 3.2-3.2v-2a5.2 5.2 0 0 0-5.2 5.2zm3.2-3.2q.48.001.915.133l.57-1.917A5.2 5.2 0 0 0 30 14.3zm.2-6.8v5.974h2V9.5zm-1-1a1 1 0 0 1 1 1h2a3 3 0 0 0-3-3zm-6.204 0H29.2v-2h-6.204z"/></svg>