<svg xmlns="http://www.w3.org/2000/svg" width="33" height="32" fill="none" viewBox="0 0 33 32"><path stroke="#111827" stroke-linecap="round" stroke-width="2" d="M23.192 23.185v3.636c0 2.062-1.774 3.113-3.575 3.636-2.712.783-4.889.663-7.152 0-1.888-.556-3.576-1.695-3.576-3.636v-6.817c0-1.962 1.62-3.636 3.576-3.636h7.152c2.383 0 4.473-2.076 4.473-4.54V8.654h2.685c2.082 0 3.06 1.56 3.576 3.63.716 2.872.75 5.028 0 7.271-.724 2.177-1.494 3.63-3.576 3.63zm0 0h-7.145M9.76 8.654V5.018c0-2.07.55-3.188 3.576-3.723 2.15-.382 4.754-.402 7.151-.007 1.942.328 3.576 1.781 3.576 3.723v3.643m-14.303 0h7.158m-7.158 0H7.075c-2.083 0-3.904 1.252-4.473 3.63-.656 2.724-.683 4.425 0 7.271.509 2.116 1.72 3.63 3.803 3.63h2.458"/><circle cx="13.524" cy="5.19" r="1.563" fill="#111827"/><circle cx="18.845" cy="26.748" r="1.563" fill="#111827"/></svg>