<svg xmlns="http://www.w3.org/2000/svg" width="33" height="32" fill="none" viewBox="0 0 33 32"><g clip-path="url(#a)"><path fill="#111827" fill-rule="evenodd" d="m18.031 2.463.036-2.465-1.743 1.743c-.826.827-2.197 2.186-3.613 3.591l-.136.134C11.12 6.911 9.631 8.386 8.66 9.358c-2.126 1.999-3.82 4.335-4.476 7.256a12.623 12.623 0 1 0 20.887-6.5l-.734-.68-.679.734-2.453 2.653-.68.734.735.679a7.01 7.01 0 1 1-11.6 3.61c.354-1.572 1.309-2.93 2.617-4.113l.018-.017.018-.017 2.705-2.708.045-.045 2.599-2.602.287-.287.006-.405.076-5.187Zm-7.968 8.32a1592 1592 0 0 1 3.92-3.897l.138-.136.003-.003 1.871-1.856-.034 2.324-2.31 2.313-.048.048a7361.658 7361.658 0 0 1-2.687 2.69c-1.493 1.355-2.737 3.047-3.207 5.14a9.01 9.01 0 1 0 15.605-3.92l1.101-1.191a10.622 10.622 0 1 1-18.28 4.757c.54-2.404 1.948-4.41 3.906-6.247l.011-.011.011-.011ZM20.954 9.44a.46.46 0 1 0-.918 0 .46.46 0 0 0 .918 0Zm-.459-2.459a2.46 2.46 0 1 1 0 4.919 2.46 2.46 0 0 1 0-4.919Z" clip-rule="evenodd"/></g><defs><clipPath id="a"><path fill="#fff" d="M.5 0h32v32H.5z"/></clipPath></defs></svg>