<svg xmlns="http://www.w3.org/2000/svg" width="33" height="32" fill="none" viewBox="0 0 33 32"><path fill="#111827" fill-rule="evenodd" d="M1.5 0a1 1 0 0 0-1 1v12a1 1 0 0 0 1 1h12a1 1 0 0 0 1-1V1a1 1 0 0 0-1-1zm1 12V2h10v10zm23 6a1 1 0 0 1 1 1v2h5a1 1 0 0 1 0 2h-5v8a1 1 0 0 1-1 1h-6a1 1 0 0 1 0-2h5V19a1 1 0 0 1 1-1m-6 0a1 1 0 0 1 1 1v6a1 1 0 1 1-2 0v-6a1 1 0 0 1 1-1m12 9a1 1 0 0 1 1 1v2.999a1 1 0 0 1-2 0v-3a1 1 0 0 1 1-1m-31-8a1 1 0 0 1 1-1h12a1 1 0 0 1 1 1v12a1 1 0 0 1-1 1h-12a1 1 0 0 1-1-1zm2 1v10h10V20zm17-20a1 1 0 0 0-1 1v12a1 1 0 0 0 1 1h12a1 1 0 0 0 1-1V1a1 1 0 0 0-1-1zm1 12V2h10v10z" clip-rule="evenodd"/></svg>