<svg xmlns="http://www.w3.org/2000/svg" width="33" height="32" fill="none" viewBox="0 0 33 32"><path fill="#111827" fill-rule="evenodd" d="M1.5 4.81a1 1 0 0 0-1 1v11.874a1 1 0 0 0 1 1h10.834c-.049 1.088-.202 2.367-.684 3.512-.34.808-.829 1.513-1.535 2.033-.701.517-1.68.9-3.081.962a1 1 0 1 0 .089 1.998c1.738-.078 3.114-.565 4.179-1.35 1.06-.78 1.747-1.809 2.192-2.868.763-1.814.851-3.82.862-5.09q.018-.096.019-.197V5.81a1 1 0 0 0-1-1zm10.875 10.427V6.81H2.501v9.874h9.856v-1.258a1 1 0 0 1 .018-.19m6.25-9.427a1 1 0 0 1 1-1h11.874a1 1 0 0 1 1 1v11.874q0 .101-.02.196c-.01 1.272-.099 3.278-.861 5.091-.445 1.06-1.133 2.087-2.192 2.868-1.065.785-2.44 1.272-4.18 1.35a1 1 0 0 1-.088-1.998c1.4-.063 2.38-.445 3.08-.962.707-.52 1.197-1.225 1.536-2.033.482-1.145.635-2.424.684-3.512H19.625a1 1 0 0 1-1-1zm11.874 9.427a1 1 0 0 0-.018.189v1.258h-9.856V6.81h9.874z" clip-rule="evenodd"/></svg>