<svg xmlns="http://www.w3.org/2000/svg" width="33" height="32" fill="none" viewBox="0 0 33 32"><path fill="#111827" fill-rule="evenodd" d="M5.872 2.5a1 1 0 0 0-1 1v4H1.5a1 1 0 0 0-1 1v20a1 1 0 0 0 1 1h29.998a1 1 0 0 0 1-1v-20a1 1 0 0 0-1-1h-3.37v-4a1 1 0 0 0-1-1zm-.004 7H30.5v18H2.501v-18zm20.26-2v-3H6.872v3zm-19.627 5a1 1 0 1 0 0 2h5a1 1 0 0 0 0-2zm14.999 10a4 4 0 1 1 0-8 4 4 0 0 1 0 8m0-10a6 6 0 1 0 0 12 6 6 0 0 0 0-12m-16 6a1 1 0 0 1 1-1h5a1 1 0 0 1 0 2h-5a1 1 0 0 1-1-1m1 4a1 1 0 1 0 0 2h5a1 1 0 0 0 0-2z" clip-rule="evenodd"/></svg>