<svg xmlns="http://www.w3.org/2000/svg" width="33" height="33" fill="none" viewBox="0 0 33 33"><path fill="#111827" fill-rule="evenodd" d="M9.743 9.247a11.86 11.86 0 0 1 12.879 2.42 1 1 0 1 0 1.394-1.434A13.86 13.86 0 0 0 .498 20.165v2.144a1 1 0 0 0 2 0v-2.143A11.86 11.86 0 0 1 9.743 9.247Zm1.193 4.158a7.573 7.573 0 0 1 7.906.654 1 1 0 0 0 1.184-1.612 9.573 9.573 0 0 0-15.242 7.718v2.143a1 1 0 0 0 2 0v-2.143a7.573 7.573 0 0 1 4.152-6.76Zm3.7 3.47a19.23 19.23 0 0 1-.275.004h-.004a3.287 3.287 0 0 0-3.286 3.287v2.143a1 1 0 1 1-2 0v-2.143a5.286 5.286 0 0 1 5.284-5.287l.177-.002c.172-.003.42-.007.621-.006.28.002.72.008 1.022.084a1 1 0 1 1-.486 1.94h.002-.005a1.94 1.94 0 0 0-.15-.013 7.334 7.334 0 0 0-.393-.01c-.197-.002-.36.001-.508.003Zm10.376-1.674a4.77 4.77 0 0 1 4.541 7.571c-.257.33-.553.647-.853.935-.695.668-1.712.98-2.851.98h-6.464a3.038 3.038 0 0 1-1.707-5.552 3.04 3.04 0 0 1 2.462-.432l.774.197.364-.71c.18-.351.454-.792.768-1.204.322-.422.64-.755.896-.94a4.769 4.769 0 0 1 2.07-.845Zm2.86-1.707a6.772 6.772 0 0 0-6.099.93c-.486.35-.944.86-1.317 1.35-.214.28-.414.572-.59.857a5.036 5.036 0 0 0-4.776 2.385 5.04 5.04 0 0 0 4.293 7.671h6.466c1.467 0 3.052-.4 4.236-1.537.355-.34.721-.731 1.052-1.157l.006-.007.005-.007a6.77 6.77 0 0 0-3.275-10.485Z" clip-rule="evenodd"/></svg>