<svg xmlns="http://www.w3.org/2000/svg" width="33" height="32" fill="none" viewBox="0 0 33 32"><g clip-path="url(#a)"><path fill="#111827" fill-rule="evenodd" d="M9.5 28.124c-.286-.165-.584-.551-.732-1.374-.146-.817-.115-1.927.132-3.279.101-.554.237-1.14.406-1.75a36 36 0 0 0 3.61.486 36 36 0 0 0 2.227 2.883q-.668.68-1.313 1.227c-1.048.89-1.993 1.473-2.773 1.754-.787.284-1.27.219-1.557.053m7-4.525a32 32 0 0 1-1.007-1.254 43 43 0 0 0 2.015 0q-.503.658-1.008 1.254m-1.375 4.243q.682-.58 1.375-1.279.694.7 1.375 1.279c1.15.976 2.302 1.719 3.39 2.11 1.083.391 2.24.478 3.235-.096s1.497-1.62 1.7-2.752c.205-1.14.139-2.509-.132-3.992a22 22 0 0 0-.42-1.83 22 22 0 0 0 1.795-.552c1.42-.507 2.64-1.134 3.523-1.88.88-.743 1.534-1.702 1.534-2.85s-.654-2.107-1.534-2.85c-.884-.746-2.103-1.373-3.523-1.88q-.841-.3-1.795-.551.26-.951.42-1.831c.27-1.483.337-2.853.133-3.992-.203-1.132-.706-2.178-1.7-2.752-.995-.574-2.152-.487-3.235-.097-1.088.392-2.241 1.135-3.39 2.111a22 22 0 0 0-1.376 1.28 22 22 0 0 0-1.375-1.28c-1.15-.976-2.302-1.718-3.39-2.11-1.083-.39-2.24-.478-3.235.096s-1.497 1.62-1.7 2.753c-.205 1.138-.138 2.508.133 3.991q.16.88.42 1.83-.953.252-1.796.552c-1.42.507-2.64 1.134-3.523 1.88C1.154 13.894.5 14.853.5 16s.655 2.107 1.534 2.85c.884.745 2.104 1.373 3.523 1.88q.842.3 1.796.551a22 22 0 0 0-.42 1.83c-.27 1.484-.338 2.854-.133 3.992.203 1.133.706 2.18 1.7 2.753.995.574 2.152.487 3.235.097 1.088-.393 2.241-1.135 3.39-2.111m8.975-4.37a20 20 0 0 0-.406-1.752 36 36 0 0 1-3.61.487 36 36 0 0 1-2.227 2.883q.669.68 1.313 1.227c1.048.89 1.993 1.473 2.774 1.754.787.284 1.27.219 1.556.053.287-.165.585-.55.732-1.374.147-.817.115-1.926-.132-3.279m2.67-4.626q-.797.285-1.719.524A36 36 0 0 0 23.667 16a36 36 0 0 0 1.384-3.37q.922.239 1.72.524c1.294.462 2.27.99 2.905 1.525.639.54.824.99.824 1.32 0 .332-.185.783-.824 1.322-.634.535-1.611 1.063-2.906 1.525m-3.689.953q-.264-.735-.582-1.499a44 44 0 0 1-1.007 1.745q.82-.106 1.59-.246m-2.807-1.62q.633-1.1 1.172-2.179a41 41 0 0 0-2.473-4.283 41 41 0 0 0-4.945 0A41 41 0 0 0 11.555 16a41 41 0 0 0 2.472 4.283 41 41 0 0 0 4.946 0q.666-1.006 1.3-2.105M23.08 12.2q-.263.735-.582 1.5a44 44 0 0 0-1.007-1.745q.821.106 1.59.245m.614-1.92a36 36 0 0 0-3.611-.487 36 36 0 0 0-2.227-2.883q.668-.68 1.314-1.227c1.047-.89 1.992-1.473 2.773-1.754.787-.284 1.27-.219 1.556-.053.287.165.585.55.733 1.374.146.817.114 1.926-.133 3.279a20 20 0 0 1-.405 1.75M13.83 5.683q.646.547 1.313 1.227c-.751.873-1.5 1.84-2.226 2.883a36 36 0 0 0-3.611.487A20 20 0 0 1 8.9 8.529c-.247-1.352-.279-2.462-.132-3.279.148-.823.446-1.209.732-1.374.287-.166.77-.23 1.556.053.781.281 1.726.864 2.774 1.754m-7.6 7.47q.796-.284 1.72-.523c.38 1.088.843 2.219 1.383 3.37a36 36 0 0 0-1.384 3.37 20 20 0 0 1-1.72-.524c-1.294-.462-2.27-.99-2.905-1.525-.639-.54-.824-.99-.824-1.321s.185-.782.824-1.321c.634-.536 1.611-1.063 2.906-1.525m3.689-.953q.264.735.582 1.5a43 43 0 0 1 1.008-1.745 32 32 0 0 0-1.59.245m0 7.6q.264-.735.582-1.5a44 44 0 0 0 1.008 1.745 32 32 0 0 1-1.59-.245m7.589-10.146A32 32 0 0 0 16.5 8.401a32 32 0 0 0-1.007 1.253 44 44 0 0 1 2.015 0M17.714 16a1.214 1.214 0 1 1-2.428 0 1.214 1.214 0 0 1 2.428 0m2 0a3.214 3.214 0 1 1-6.428 0 3.214 3.214 0 0 1 6.428 0" clip-rule="evenodd"/></g><defs><clipPath id="a"><path fill="#fff" d="M.5 0h32v32H.5z"/></clipPath></defs></svg>