<svg xmlns="http://www.w3.org/2000/svg" width="33" height="32" fill="none" viewBox="0 0 33 32"><path fill="#111827" fill-rule="evenodd" d="M14.848.442a3.308 3.308 0 0 1 4.515 1.208l-.798.462.798-.462 5.137 8.875.644-2.4a1 1 0 0 1 1.932.517l-1.26 4.697a.997.997 0 0 1-1.257.733l-4.703-1.261a1 1 0 1 1 .518-1.932l2.391.641-5.133-8.868a1.308 1.308 0 0 0-2.264 0L11.914 8.62a1 1 0 1 1-1.731-1.002l3.454-5.968.866.501-.866-.501c.29-.502.708-.919 1.21-1.208ZM9.132 12.888a.998.998 0 0 0-1.234-.741l-4.727 1.267a1 1 0 1 0 .518 1.932l2.392-.641-5.134 8.868a3.308 3.308 0 0 0 2.863 4.965h6.92a1 1 0 1 0 0-2H3.81a1.308 1.308 0 0 1-1.132-1.963L7.816 15.7l.643 2.4a1 1 0 0 0 1.932-.517l-1.259-4.695Zm19.466 4.717a1 1 0 0 0-1.731 1.002l3.455 5.969a1.308 1.308 0 0 1-1.132 1.962H18.914l1.754-1.753a1 1 0 0 0-1.414-1.414l-3.461 3.46a.995.995 0 0 0-.293.707c0 .284.118.54.308.722l3.446 3.448a1 1 0 0 0 1.415-1.414l-1.755-1.756H29.19a3.308 3.308 0 0 0 2.863-4.965l-3.455-5.968Z" clip-rule="evenodd"/></svg>