<svg xmlns="http://www.w3.org/2000/svg" width="33" height="32" fill="none" viewBox="0 0 33 32"><path fill="#111827" fill-rule="evenodd" d="M23.407 4.565a1.143 1.143 0 1 1-.003.022l.002-.01.001-.012ZM21.742 3.31a3.143 3.143 0 1 1-.304 1.977l-3.043-.468-.72 4.322c2.909.16 5.598.91 7.815 2.099a4.213 4.213 0 0 1 5.615 6.286c.212.72.321 1.47.322 2.223v.002c0 3.083-1.806 5.768-4.51 7.64-2.707 1.875-6.393 3.002-10.417 3.002S8.79 29.265 6.082 27.39c-2.703-1.872-4.51-4.557-4.51-7.64v-.002c.002-.754.11-1.502.323-2.223a4.212 4.212 0 0 1-.299-5.966 4.216 4.216 0 0 1 5.914-.32c2.3-1.232 5.107-1.994 8.14-2.115l.935-5.61a1 1 0 0 1 1.139-.823l4.018.618Zm3.424 10.047c-2.277-1.384-5.304-2.246-8.655-2.248h-.02c-3.351.001-6.38.863-8.657 2.248a1 1 0 0 1-1.329-.266A2.214 2.214 0 1 0 3.59 16.3a1 1 0 0 1 .418 1.237 5.913 5.913 0 0 0-.435 2.214c0 2.241 1.312 4.377 3.649 5.995 2.333 1.615 5.61 2.646 9.279 2.646 3.668 0 6.946-1.031 9.279-2.646 2.337-1.618 3.648-3.754 3.648-5.996a5.913 5.913 0 0 0-.434-2.213 1 1 0 0 1 .418-1.237 2.214 2.214 0 1 0-2.917-3.21 1 1 0 0 1-1.328.266Zm-3.31 6.93a2.143 2.143 0 1 0 0-4.286 2.143 2.143 0 0 0 0 4.285Zm-8.57-2.143a2.143 2.143 0 1 1-4.286 0 2.143 2.143 0 0 1 4.286 0Zm8.094 6.781a1 1 0 0 0-.915-1.778 8.666 8.666 0 0 1-7.93 0 1 1 0 0 0-.916 1.778 10.665 10.665 0 0 0 9.761 0Z" clip-rule="evenodd"/></svg>