<svg xmlns="http://www.w3.org/2000/svg" width="33" height="32" fill="none" viewBox="0 0 33 32"><mask id="a" fill="#fff"><path d="M14.775 3.15c0 .013.15.295.338.645.187.343.318.637.3.656-.02.012-.544.212-1.163.431a21.94 21.94 0 0 0-1.112.419c.006.006.712.081 1.562.162 1.025.094 1.563.163 1.6.207.031.03.269.412.525.837l.463.775.08-.194c.045-.1.188-.443.313-.75l.232-.556 1.23-.131a35.786 35.786 0 0 1 1.338-.131l.107-.044c0-.019-.457-.206-1.02-.419a23.743 23.743 0 0 1-1.018-.394c0-.006.119-.3.269-.656.144-.356.256-.656.25-.662-.013-.013-.488.13-1.05.312L17 3.995l-1.094-.432c-1.075-.425-1.13-.443-1.13-.412Zm6.788 3.695c-1.307.518-2.382.95-2.388.962-.012.013.963.406 2.163.881l2.174.856.232-.093c2.425-.944 4.625-1.819 4.619-1.831l-4.37-1.72c-.043.007-1.13.426-2.43.945ZM9.025 6.338c-1.256.132-2.306.494-2.75.957-.306.312-.356.58-.162.906.281.487 1.206.893 2.481 1.1.575.1 2.256.081 2.838-.019 1.362-.238 2.25-.675 2.456-1.225.075-.206.075-.231 0-.431-.207-.531-1.075-.975-2.363-1.2-.65-.106-1.862-.15-2.5-.088Zm23.331 1.513c-.062.081-.294.269-.519.419-.662.425-1.512.812-6.818 3.1-3.731 1.6-4.681 2.024-5.969 2.643-1.431.681-2.025.875-2.744.875-.643 0-1.03-.112-2.23-.644-.482-.212-2.45-1.037-4.37-1.837C1.3 8.913 1.145 8.838.694 8.35a.108.108 0 0 0-.187.072v2.72a.7.7 0 0 0 .212.502c.206.2.9.618 1.144.687.069.019.525.206 1.019.419.493.212 2.906 1.225 5.362 2.25 4.063 1.693 4.987 2.08 6.375 2.687.731.325 1.137.406 1.831.381.506-.018.656-.05 1.1-.2a9.35 9.35 0 0 0 1.1-.468c1.056-.532 2.331-1.094 7.413-3.282 4.78-2.062 5.406-2.35 5.924-2.706.532-.381.513-.287.513-2.125 0-.881-.006-1.6-.013-1.6l-.13.163ZM15.62 10c-1.956.3-3.575.556-3.606.569-.044.012 4.875 2.08 5.08 2.137l2.25-3.231c-.005-.044 0-.05-3.724.525Zm16.768 3.275c-.043.075-.25.25-.443.393-.638.438-1.594.875-7.406 3.375-3.344 1.444-4.394 1.907-5.388 2.388-1.612.781-2 .906-2.862.906-.67-.006-1.082-.112-1.97-.512-.855-.394-1.811-.794-5.649-2.388-6.694-2.775-7.462-3.125-7.937-3.581a.137.137 0 0 0-.232.1v2.569c0 .231.095.453.263.612.425.4.381.375 7.556 3.363 2.631 1.093 5.112 2.137 5.512 2.318 1.057.475 1.363.588 1.782.675.975.2 1.7.038 3.28-.731 1.032-.5 2.288-1.056 5.332-2.369 5.787-2.493 7.212-3.137 7.637-3.418.15-.107.357-.275.457-.388l.18-.2v-1.625c0-.894-.005-1.625-.012-1.625l-.1.138Zm-.056 5.325c-.381.48-1.15.85-7.119 3.418-3.893 1.682-5.08 2.207-6.362 2.813-1.344.637-1.787.775-2.562.775-.532 0-1.07-.125-1.663-.388-1.394-.612-2.312-1-6.381-2.694-4.625-1.924-6.106-2.556-6.6-2.8-.462-.23-.943-.558-1.049-.727-.026-.045-.095-.026-.095.026v1.47c0 1.9-.03 1.757.475 2.1.563.375 1.4.75 6.957 3.056 3.88 1.613 5.28 2.2 5.968 2.513 1.406.631 1.781.731 2.569.688.719-.032 1.187-.188 2.431-.782 1.294-.618 2.25-1.05 6.481-2.868 5.875-2.532 6.513-2.838 6.956-3.35l.157-.175v-1.62c0-.893-.007-1.624-.013-1.624l-.15.169Z"/></mask><path stroke="#111827" stroke-width="4" d="M14.775 3.15c0 .013.15.295.338.645.187.343.318.637.3.656-.02.012-.544.212-1.163.431a21.94 21.94 0 0 0-1.112.419c.006.006.712.081 1.562.162 1.025.094 1.563.163 1.6.207.031.03.269.412.525.837l.463.775.08-.194c.045-.1.188-.443.313-.75l.232-.556 1.23-.131a35.786 35.786 0 0 1 1.338-.131l.107-.044c0-.019-.457-.206-1.02-.419a23.743 23.743 0 0 1-1.018-.394c0-.006.119-.3.269-.656.144-.356.256-.656.25-.662-.013-.013-.488.13-1.05.312L17 3.995l-1.094-.432c-1.075-.425-1.13-.443-1.13-.412Zm6.788 3.695c-1.307.518-2.382.95-2.388.962-.012.013.963.406 2.163.881l2.174.856.232-.093c2.425-.944 4.625-1.819 4.619-1.831l-4.37-1.72c-.043.007-1.13.426-2.43.945ZM9.025 6.338c-1.256.132-2.306.494-2.75.957-.306.312-.356.58-.162.906.281.487 1.206.893 2.481 1.1.575.1 2.256.081 2.838-.019 1.362-.238 2.25-.675 2.456-1.225.075-.206.075-.231 0-.431-.207-.531-1.075-.975-2.363-1.2-.65-.106-1.862-.15-2.5-.088Zm23.331 1.513c-.062.081-.294.269-.519.419-.662.425-1.512.812-6.818 3.1-3.731 1.6-4.681 2.024-5.969 2.643-1.431.681-2.025.875-2.744.875-.643 0-1.03-.112-2.23-.644-.482-.212-2.45-1.037-4.37-1.837C1.3 8.913 1.145 8.838.694 8.35a.108.108 0 0 0-.187.072v2.72a.7.7 0 0 0 .212.502c.206.2.9.618 1.144.687.069.019.525.206 1.019.419.493.212 2.906 1.225 5.362 2.25 4.063 1.693 4.987 2.08 6.375 2.687.731.325 1.137.406 1.831.381.506-.018.656-.05 1.1-.2a9.35 9.35 0 0 0 1.1-.468c1.056-.532 2.331-1.094 7.413-3.282 4.78-2.062 5.406-2.35 5.924-2.706.532-.381.513-.287.513-2.125 0-.881-.006-1.6-.013-1.6l-.13.163ZM15.62 10c-1.956.3-3.575.556-3.606.569-.044.012 4.875 2.08 5.08 2.137l2.25-3.231c-.005-.044 0-.05-3.724.525Zm16.768 3.275c-.043.075-.25.25-.443.393-.638.438-1.594.875-7.406 3.375-3.344 1.444-4.394 1.907-5.388 2.388-1.612.781-2 .906-2.862.906-.67-.006-1.082-.112-1.97-.512-.855-.394-1.811-.794-5.649-2.388-6.694-2.775-7.462-3.125-7.937-3.581a.137.137 0 0 0-.232.1v2.569c0 .231.095.453.263.612.425.4.381.375 7.556 3.363 2.631 1.093 5.112 2.137 5.512 2.318 1.057.475 1.363.588 1.782.675.975.2 1.7.038 3.28-.731 1.032-.5 2.288-1.056 5.332-2.369 5.787-2.493 7.212-3.137 7.637-3.418.15-.107.357-.275.457-.388l.18-.2v-1.625c0-.894-.005-1.625-.012-1.625l-.1.138Zm-.056 5.325c-.381.48-1.15.85-7.119 3.418-3.893 1.682-5.08 2.207-6.362 2.813-1.344.637-1.787.775-2.562.775-.532 0-1.07-.125-1.663-.388-1.394-.612-2.312-1-6.381-2.694-4.625-1.924-6.106-2.556-6.6-2.8-.462-.23-.943-.558-1.049-.727-.026-.045-.095-.026-.095.026v1.47c0 1.9-.03 1.757.475 2.1.563.375 1.4.75 6.957 3.056 3.88 1.613 5.28 2.2 5.968 2.513 1.406.631 1.781.731 2.569.688.719-.032 1.187-.188 2.431-.782 1.294-.618 2.25-1.05 6.481-2.868 5.875-2.532 6.513-2.838 6.956-3.35l.157-.175v-1.62c0-.893-.007-1.624-.013-1.624l-.15.169Z" mask="url(#a)"/></svg>