<svg xmlns="http://www.w3.org/2000/svg" width="32" height="32" fill="none" viewBox="0 0 32 32"><g fill="#111827" clip-path="url(#a)"><path fill-rule="evenodd" d="M8.72 15.898c.215 0 .388.174.388.388a7.837 7.837 0 0 0 3.742 6.686.387.387 0 1 1-.405.66 8.612 8.612 0 0 1-4.111-7.346c0-.214.173-.388.387-.388ZM16.95 8.443c-.87 0-1.707.142-2.489.404a.387.387 0 1 1-.246-.735 8.608 8.608 0 0 1 2.736-.443 8.618 8.618 0 0 1 7.819 4.99.387.387 0 0 1-.703.327 7.844 7.844 0 0 0-7.116-4.543Zm-5.519 1.726c.15.152.15.397-.002.548a7.865 7.865 0 0 0-1.573 2.22.387.387 0 1 1-.7-.33 8.636 8.636 0 0 1 1.727-2.44.387.387 0 0 1 .548.002Z" clip-rule="evenodd"/><path fill-rule="evenodd" d="M16.733 7.083c-5.084 0-9.082 4.163-9.082 9.257 0 5.09 4.169 9.349 9.255 9.349 5.091 0 9.352-4.198 9.352-9.285 0-.554-.06-1.259-.154-1.785l-.017-.095 2.96-3.14.28.265-2.825 3c.088.535.143 1.212.143 1.755 0 5.304-4.438 9.672-9.739 9.672-5.305 0-9.642-4.436-9.642-9.736 0-5.299 4.162-9.645 9.47-9.645 3.814 0 7.4 2.242 8.963 5.477l2.483-2.776.29.258-2.881 3.22-.121-.274c-1.426-3.235-4.961-5.517-8.735-5.517Z" clip-rule="evenodd"/><path fill-rule="evenodd" d="M16.93 3.784c-6.857 0-12.416 5.559-12.416 12.415 0 2.473.722 4.775 1.967 6.709l.368.572-4.685 3.95a1.708 1.708 0 1 0 2.406 2.406l.004-.005 3.852-4.553.59.489a12.362 12.362 0 0 0 7.914 2.848c6.856 0 12.415-5.559 12.415-12.415 0-1.626-.133-2.997-.7-4.418l1.128-1.151c.638 1.6 1.121 3.744 1.121 5.569 0 7.712-6.252 13.964-13.964 13.964a13.905 13.905 0 0 1-8.298-2.731l-2.871 3.394-.002.002a3.257 3.257 0 1 1-4.588-4.588l.002-.002 3.65-3.076A13.904 13.904 0 0 1 2.964 16.2c0-7.713 6.252-13.965 13.965-13.965 5.196 0 9.728 2.839 12.133 7.046l-1.138.976c-2.14-3.745-6.377-6.473-10.995-6.473Z" clip-rule="evenodd"/><path d="M13.234 23.194a7.841 7.841 0 0 1-4.126-6.908h-.774a8.618 8.618 0 0 0 4.9 7.776v-.869Z"/><path fill-rule="evenodd" d="M20.077 10.303v8.02a.887.887 0 0 0-.366.16l-.744-.427a.89.89 0 0 0-1.5-.701v-7.052h2.61Zm-2 8.591a.89.89 0 0 1-.328-.062l-.282.263v5.793a8.576 8.576 0 0 0 2.61-.57v-4.243a.891.891 0 0 1-.727-.906l-.76-.437a.886.886 0 0 1-.512.162Zm3.054.305a.887.887 0 0 1-.24.608v4.14c.157-.078.357-.188.582-.328a.394.394 0 0 0 .04-.022 8.66 8.66 0 0 0 1.092-.809c.302-.259.605-.554.886-.882v-.01c.354-.412.67-.858.942-1.333a.387.387 0 1 0-.672-.385 7.836 7.836 0 0 1-.27.437v-3.253a.889.889 0 0 1-1.091.254l-1.3 1.35a.89.89 0 0 1 .031.233Zm1.81-3.263A.89.89 0 0 0 21.918 17l-1.027 1.067v-2.91h2.6v.208l-.55.572Zm-6.26-3.765v6.598l-.847.79a.89.89 0 0 0-.833.123l-.93-.568V12.17h2.61Zm-2.04 8.2-.57-.35v4.389c.82.29 1.698.46 2.61.489v-5.071l-.305.285a.89.89 0 0 1-.844 1.175.89.89 0 0 1-.89-.918Zm-2.352-1.087-1.03 1.031a.888.888 0 0 0-.568-.017v-5.085h2.543v2.96a.893.893 0 0 0-.945 1.111Zm.504.592-.997.997a.892.892 0 0 1-1.105 1.13v.253c.43.435 1.45 1.307 2.543 1.77v-4.078a.893.893 0 0 1-.441-.072Z" clip-rule="evenodd"/><path fill-rule="evenodd" d="M25.654 13.428a.393.393 0 1 0 0 .787.393.393 0 0 0 0-.787Zm-.703.394a.703.703 0 1 1 1.406 0 .703.703 0 0 1-1.406 0Zm-2.162 2.599a.393.393 0 1 0 0 .786.393.393 0 0 0 0-.786Zm-.703.393a.703.703 0 1 1 1.406 0 .703.703 0 0 1-1.406 0Zm-4.009.796a.393.393 0 1 0 0 .787.393.393 0 0 0 0-.787Zm-.703.393a.703.703 0 1 1 1.406 0 .703.703 0 0 1-1.406 0Zm-4.222.664a.393.393 0 1 0 0 .787.393.393 0 0 0 0-.787Zm-.703.394a.703.703 0 1 1 1.406 0 .703.703 0 0 1-1.406 0Zm7.791-.255a.393.393 0 1 0 0 .786.393.393 0 0 0 0-.786Zm-.703.393a.703.703 0 1 1 1.406 0 .703.703 0 0 1-1.406 0Zm-4.005.805a.393.393 0 1 0 0 .787.393.393 0 0 0 0-.787Zm-.703.394a.703.703 0 1 1 1.406 0 .703.703 0 0 1-1.406 0Zm-3.88.36a.393.393 0 1 0 0 .786.393.393 0 0 0 0-.786Zm-.703.393a.703.703 0 1 1 1.406 0 .703.703 0 0 1-1.406 0Z" clip-rule="evenodd"/><path d="m32 7.083-2.148.62.666.64-4.756 4.941a.548.548 0 0 1 .333.213l4.702-4.885.666.64.537-2.17ZM25.346 14.275a.549.549 0 0 1-.225-.324l-2.236 2.323c.137.024.257.1.338.206l2.123-2.205ZM20.522 18.729l1.73-1.798c.03.136.11.253.22.33l-1.709 1.775a.55.55 0 0 0-.241-.307ZM19.694 19.144a.547.547 0 0 1 .174-.347l-1.248-.717a.547.547 0 0 1-.186.34l1.26.724ZM17.83 18.492l-1.8 1.678a.55.55 0 0 0-.275-.273l1.813-1.69a.55.55 0 0 0 .261.285ZM13.526 19.461a.547.547 0 0 0 .171-.35l1.455.89a.546.546 0 0 0-.167.352l-1.46-.892ZM12.627 19.22c.04.13.126.24.24.309l-1.412 1.411a.55.55 0 0 0-.266-.282l1.438-1.438Z"/></g><defs><clipPath id="a"><path fill="#fff" d="M0 0h32v32H0z"/></clipPath></defs></svg>