<svg xmlns="http://www.w3.org/2000/svg" width="32" height="32" fill="none" viewBox="0 0 32 32"><g clip-path="url(#a)"><path fill="#111827" fill-rule="evenodd" d="M8.72 15.898c.215 0 .388.174.388.388a7.837 7.837 0 0 0 3.742 6.686.387.387 0 1 1-.405.66 8.612 8.612 0 0 1-4.111-7.346c0-.214.173-.388.387-.388ZM16.95 8.443c-.87 0-1.707.142-2.489.404a.387.387 0 1 1-.246-.735 8.608 8.608 0 0 1 2.736-.443 8.618 8.618 0 0 1 7.819 4.99.387.387 0 0 1-.703.327 7.844 7.844 0 0 0-7.116-4.543Zm-5.519 1.726c.15.152.15.397-.002.548a7.865 7.865 0 0 0-1.573 2.22.387.387 0 1 1-.7-.33 8.636 8.636 0 0 1 1.727-2.44.387.387 0 0 1 .548.002Z" clip-rule="evenodd"/><path fill="#111827" fill-rule="evenodd" d="M16.733 7.083c-5.084 0-9.082 4.163-9.082 9.257 0 5.09 4.169 9.349 9.255 9.349 5.091 0 9.352-4.198 9.352-9.285 0-.554-.06-1.259-.154-1.785l-.017-.095 2.96-3.14.28.265-2.825 3c.088.535.143 1.212.143 1.755 0 5.304-4.438 9.672-9.739 9.672-5.305 0-9.642-4.436-9.642-9.736 0-5.299 4.162-9.645 9.47-9.645 3.814 0 7.4 2.242 8.963 5.477l2.483-2.776.29.258-2.881 3.22-.121-.274c-1.426-3.235-4.961-5.517-8.735-5.517Z" clip-rule="evenodd"/><path fill="#111827" fill-rule="evenodd" d="M16.93 3.784c-6.857 0-12.416 5.559-12.416 12.415 0 2.473.722 4.775 1.967 6.709l.368.572-4.685 3.95a1.708 1.708 0 1 0 2.406 2.406l.004-.005 3.852-4.553.59.489a12.362 12.362 0 0 0 7.914 2.848c6.856 0 12.415-5.559 12.415-12.415 0-1.626-.133-2.997-.7-4.418l1.128-1.151c.638 1.6 1.121 3.744 1.121 5.569 0 7.712-6.252 13.964-13.964 13.964a13.905 13.905 0 0 1-8.298-2.731l-2.871 3.394-.002.002a3.257 3.257 0 1 1-4.588-4.588l.002-.002 3.65-3.076A13.904 13.904 0 0 1 2.964 16.2c0-7.713 6.252-13.965 13.965-13.965 5.196 0 9.728 2.839 12.133 7.046l-1.138.976c-2.14-3.745-6.377-6.473-10.995-6.473Z" clip-rule="evenodd"/><path fill="#111827" d="M13.234 23.194a7.841 7.841 0 0 1-4.126-6.908h-.774a8.618 8.618 0 0 0 4.9 7.776v-.869ZM23.491 15.364v-.208h-2.6v2.91l2.6-2.701ZM20.077 18.693v-8.39h-2.61v7.733l.558-.52 2.052 1.177ZM17.467 19.095l.668-.623 1.942 1.114v4.732a8.577 8.577 0 0 1-2.61.57v-5.793ZM16.681 18.769V12.17h-2.61v6.943l1.353.827 1.257-1.172Z"/><path fill="#111827" d="m14.071 20.021 1.451.888 1.159-1.081v5.07a8.59 8.59 0 0 1-2.61-.488V20.02ZM13.234 18.601l-.163-.099-2.188 2.189.547.547 1.758-1.757.046.028v4.517c-1.094-.463-2.113-1.335-2.544-1.77v-7.043h2.544V18.6ZM20.89 19.183l2.601-2.702v4.134c.095-.143.184-.288.27-.437a.387.387 0 0 1 .672.385 8.638 8.638 0 0 1-.942 1.333v.01a8.125 8.125 0 0 1-.886.882 8.659 8.659 0 0 1-1.092.81.406.406 0 0 1-.04.02c-.226.141-.425.25-.582.328v-4.763Z"/><circle cx="10.949" cy="21.151" r=".891" fill="#fff"/><circle cx="15.532" cy="20.398" r=".891" fill="#fff"/><circle cx="20.24" cy="19.199" r=".891" fill="#fff"/><circle cx="13.152" cy="19.061" r=".891" fill="#fff"/><circle cx="18.077" cy="18.003" r=".891" fill="#fff"/><circle cx="22.789" cy="16.814" r=".891" fill="#fff"/><path fill="#111827" fill-rule="evenodd" d="M25.654 13.428a.393.393 0 1 0 0 .787.393.393 0 0 0 0-.787Zm-.703.394a.703.703 0 1 1 1.406 0 .703.703 0 0 1-1.406 0Zm-2.162 2.599a.393.393 0 1 0 0 .786.393.393 0 0 0 0-.786Zm-.703.393a.703.703 0 1 1 1.406 0 .703.703 0 0 1-1.406 0Zm-4.009.796a.393.393 0 1 0 0 .787.393.393 0 0 0 0-.787Zm-.703.393a.703.703 0 1 1 1.406 0 .703.703 0 0 1-1.406 0Zm-4.222.664a.393.393 0 1 0 0 .787.393.393 0 0 0 0-.787Zm-.703.394a.703.703 0 1 1 1.406 0 .703.703 0 0 1-1.406 0Zm7.791-.255a.393.393 0 1 0 0 .786.393.393 0 0 0 0-.786Zm-.703.393a.703.703 0 1 1 1.406 0 .703.703 0 0 1-1.406 0Zm-4.005.805a.393.393 0 1 0 0 .787.393.393 0 0 0 0-.787Zm-.703.394a.703.703 0 1 1 1.406 0 .703.703 0 0 1-1.406 0Zm-3.88.36a.393.393 0 1 0 0 .786.393.393 0 0 0 0-.786Zm-.703.393a.703.703 0 1 1 1.406 0 .703.703 0 0 1-1.406 0Z" clip-rule="evenodd"/><path fill="#111827" d="m32 7.083-2.148.62.666.64-4.756 4.941a.548.548 0 0 1 .333.213l4.702-4.885.666.64.537-2.17ZM25.346 14.275a.549.549 0 0 1-.225-.324l-2.237 2.323c.138.024.258.1.34.206l2.122-2.205ZM20.522 18.729l1.73-1.798c.03.136.11.253.22.33l-1.709 1.775a.55.55 0 0 0-.241-.307ZM19.694 19.144a.547.547 0 0 1 .173-.347l-1.247-.717a.548.548 0 0 1-.187.34l1.261.724ZM17.829 18.492 16.03 20.17a.55.55 0 0 0-.275-.273l1.812-1.69a.55.55 0 0 0 .262.285ZM13.526 19.461a.547.547 0 0 0 .171-.35l1.455.89a.547.547 0 0 0-.167.352l-1.46-.892ZM12.627 19.22c.04.13.125.24.239.309l-1.411 1.411a.55.55 0 0 0-.266-.282l1.438-1.438Z"/></g><defs><clipPath id="a"><path fill="#fff" d="M0 0h32v32H0z"/></clipPath></defs></svg>