<svg xmlns="http://www.w3.org/2000/svg" width="33" height="33" fill="none" viewBox="0 0 33 33"><path fill="#111827" fill-rule="evenodd" d="M25.489 1.115a1 1 0 0 1 1.414 0l5.293 5.293a.997.997 0 0 1 .002 1.432l-5.295 5.296a1 1 0 0 1-1.414-1.415l3.596-3.596H11.5a9 9 0 0 0-9 9 1 1 0 1 1-2 0 11 11 0 0 1 11-11h17.585L25.489 2.53a1 1 0 0 1 0-1.415Zm7.01 14.76a1 1 0 1 0-2 0 9 9 0 0 1-9 9H3.916l3.596-3.596a1 1 0 0 0-1.414-1.415L.803 25.158a.997.997 0 0 0-.002 1.43l5.296 5.296A1 1 0 0 0 7.51 30.47l-3.596-3.596H21.5a11 11 0 0 0 10.999-11Zm-14.04-2.213a1.5 1.5 0 0 0-2.306-1.266l-1.15.732a1 1 0 0 0 1.075 1.687l.38-.242v5.677a1 1 0 0 0 2 0v-6.588Z" clip-rule="evenodd"/></svg>