<svg xmlns="http://www.w3.org/2000/svg" width="33" height="33" fill="none" viewBox="0 0 33 33"><path fill="#111827" fill-rule="evenodd" d="M7.866.503a1 1 0 0 0-1 1v14.668H2a1.5 1.5 0 0 0-1.5 1.5v13.326a1.5 1.5 0 0 0 1.5 1.5h13.284a1.5 1.5 0 0 0 1.5-1.5v-5.07H31.5a1 1 0 0 0 1-1V1.503a1 1 0 0 0-1-1zm8.92 23.424h13.713V2.503H8.866v13.668h6.42q.143 0 .28.026l8.245-8.245h-5.853a1 1 0 1 1 0-2h8.253q.07 0 .137.008a1 1 0 0 1 .877.992v8.267a1 1 0 1 1-2 0V9.366l-8.44 8.44zM2.5 30.497V18.17h12.284v12.326z" clip-rule="evenodd"/></svg>