<svg xmlns="http://www.w3.org/2000/svg" width="33" height="33" fill="none"><path fill="#111827" fill-rule="evenodd" d="M16.5 2.5c-7.732 0-14 6.268-14 14 0 7.731 6.268 13.999 14 13.999 7.731 0 13.999-6.268 13.999-14 0-7.73-6.268-13.998-14-13.998Zm-16 14c0-8.836 7.164-16 16-16s15.999 7.164 15.999 16-7.163 15.999-16 15.999c-8.835 0-15.998-7.163-15.998-16Zm15.661-1.474v-3.559a1 1 0 0 0-1.528-.85L6.532 15.65a1 1 0 0 0 0 1.7l8.101 5.031a1 1 0 0 0 1.528-.849v-3.559l7.097 4.409a1 1 0 0 0 1.528-.85V11.467a1 1 0 0 0-1.528-.85l-7.097 4.41Zm6.625-1.76L17.58 16.5l5.207 3.234v-6.468Zm-8.625 0v6.468L8.955 16.5l5.206-3.234Z" clip-rule="evenodd"/></svg>