<svg xmlns="http://www.w3.org/2000/svg" width="33" height="32" fill="none" viewBox="0 0 33 32"><path fill="#111827" fill-rule="evenodd" d="M19.104 3.236A2.605 2.605 0 0 1 17.5 5.641V7.18h9a6 6 0 0 1 6 6v12.188a6 6 0 0 1-6 6H6.5a6 6 0 0 1-6-6V13.18a6 6 0 0 1 6-6H15.5V5.64a2.605 2.605 0 1 1 3.604-2.405ZM16.493 9.18H6.5a4 4 0 0 0-4 4v12.188a4 4 0 0 0 4 4h19.998a4 4 0 0 0 4-4V13.18a4 4 0 0 0-4-4h-9.992a.87.87 0 0 1-.014 0Zm3.132 16.406a1 1 0 1 0 0-2h-6.25a1 1 0 1 0 0 2h6.25Zm-10-7.875a1.875 1.875 0 1 0 0-3.75 1.875 1.875 0 0 0 0 3.75Zm15.625-1.875a1.875 1.875 0 1 1-3.75 0 1.875 1.875 0 0 1 3.75 0Z" clip-rule="evenodd"/></svg>