<svg xmlns="http://www.w3.org/2000/svg" width="33" height="32" fill="none" viewBox="0 0 33 32"><path fill="#111827" fill-rule="evenodd" d="M14.253 3.305a1 1 0 1 0 0 2h4.596a1 1 0 1 0 0-2h-4.596Zm-3.814 4a1 1 0 0 1 1-1h10.224a1 1 0 1 1 0 2H11.439a1 1 0 0 1-1-1Zm-6.975 5a3 3 0 0 1 3-3h20.072a3 3 0 0 1 3 3v13.39a3 3 0 0 1-3 3H6.464a3 3 0 0 1-3-3v-13.39Zm3-1a1 1 0 0 0-1 1v13.39a1 1 0 0 0 1 1h20.072a1 1 0 0 0 1-1v-13.39a1 1 0 0 0-1-1H6.464Zm5.047 10.835a3 3 0 1 0 0-6 3 3 0 0 0 0 6Zm12.741-3a3 3 0 1 1-6 0 3 3 0 0 1 6 0Zm5.89 2.91V16.23a2.369 2.369 0 0 1 2.358 2.369v1.093a2.36 2.36 0 0 1-2.359 2.36ZM2.858 16.23v5.821A2.359 2.359 0 0 1 .5 19.691v-1.093a2.369 2.369 0 0 1 2.359-2.369Z" clip-rule="evenodd"/></svg>