<svg xmlns="http://www.w3.org/2000/svg" width="33" height="32" fill="none" viewBox="0 0 33 32"><path fill="#111827" fill-rule="evenodd" d="M32.133 1.176a1 1 0 0 0-.647-.66c-5.222-1.7-9.49 1.212-11.014 2.905l-2.128 2.128H7.71a1 1 0 0 0-.707.293L.81 12.032a1 1 0 0 0 .51 1.688l7.833 1.574c.028.21.123.413.285.575l7.237 7.238a.996.996 0 0 0 .368.233l1.578 7.855a1 1 0 0 0 1.687.51l6.191-6.19a1 1 0 0 0 .293-.707V14.404l2.35-2.35.016-.017c3.798-3.97 3.592-8.833 2.974-10.86Zm-6.931 11.99c-.082.061-.155.134-.215.216l-7.604 7.603-5.823-5.823L21.906 4.816l.04-.042c1.156-1.298 4.424-3.53 8.398-2.508.348 1.785.242 5.38-2.622 8.381l-2.52 2.52Zm-.409 3.238v7.99l-4.578 4.578-1.337-6.653 5.915-5.915ZM8.123 7.549h8.221l-5.953 5.954-6.846-1.376L8.123 7.55ZM2.346 29.053a1 1 0 0 0 .854.874c2.144.3 4.215-.382 5.874-1.272 1.666-.894 3.022-2.054 3.781-2.875a1 1 0 1 0-1.467-1.358c-.624.673-1.806 1.69-3.26 2.47-1.194.642-2.502 1.085-3.794 1.106.132-1.514.919-4.292 3.625-7.08a1 1 0 1 0-1.435-1.393c-3.705 3.817-4.38 7.808-4.178 9.528Z" clip-rule="evenodd"/></svg>