<svg xmlns="http://www.w3.org/2000/svg" width="33" height="32" fill="none" viewBox="0 0 33 32"><g clip-path="url(#a)"><path fill="#111827" fill-rule="evenodd" d="M7.005 3.053h-.54l-.297.454-4.792 7.34h-.007l-.231.364-.224.342.003.006-.418.66.542.566 14.762 15.408.722.753.722-.753 14.72-15.363.534-.559-.405-.658-.152-.246.002-.013-.182-.278-.145-.236h-.008l-4.789-7.333-.296-.454H7.006Zm13.867 7.79-4.196-4.988-4.197 4.989 8.393-.002Zm1.739-1.04 1.938-4.75h-5.934l3.996 4.75ZM8.492 5.053l2.04 4.998 4.205-4.998H8.492Zm17.73 1.194-1.875 4.595 4.875-.002-3-4.593Zm-14.549 6.599 4.848 11.877 4.848-11.877h-9.696Zm7.66 10.278 4.196-10.278h5.652l-9.847 10.278ZM8.697 10.844 6.799 6.199l-3.034 4.648 4.931-.001Zm-4.827 2.002h5.644l4.189 10.263-9.833-10.263Z" clip-rule="evenodd"/></g><defs><clipPath id="a"><path fill="#fff" d="M.5 0h32v32H.5z"/></clipPath></defs></svg>