<svg xmlns="http://www.w3.org/2000/svg" width="33" height="33" fill="none" viewBox="0 0 33 33"><path fill="#111827" fill-rule="evenodd" d="M7.116 1.501a1 1 0 0 0-2 0v3.461q0 .116.025.225-.024.135-.025.275v22.076q0 .141.025.276a1 1 0 0 0-.025.224v3.461a1 1 0 1 0 2 0v-2.461h4.923v2.461a1 1 0 1 0 2 0v-2.461h4.922v2.461a1 1 0 1 0 2 0v-2.461h4.923v2.461a1 1 0 1 0 2 0v-3.461q0-.116-.025-.224.024-.135.025-.276V5.462q0-.141-.025-.276a1 1 0 0 0 .025-.224V1.501a1 1 0 1 0-2 0v2.461H20.96V1.501a1 1 0 1 0-2 0v2.461H14.04V1.501a1 1 0 1 0-2 0v2.461H7.116zm5.923 25.537h12.845V5.962H7.116v21.076h5.923m1.076-10.882 2.265-3.65 2.477 3.652-2.476 4.154zm3.142-5.92a1.1 1.1 0 0 0-1.845.038l-3.273 5.273a1.1 1.1 0 0 0-.03 1.107l3.272 6a1.1 1.1 0 0 0 1.91.037l3.577-6a1.1 1.1 0 0 0-.035-1.181z" clip-rule="evenodd"/></svg>