<svg xmlns="http://www.w3.org/2000/svg" width="33" height="33" fill="none" viewBox="0 0 33 33"><path fill="#111827" fill-rule="evenodd" d="M7.116 1.501a1 1 0 0 0-2 0v3.461c0 .077.009.153.025.225-.016.09-.025.181-.025.275v22.076c0 .094.009.186.025.276a1.003 1.003 0 0 0-.025.224v3.461a1 1 0 1 0 2 0v-2.461h4.923v2.461a1 1 0 1 0 2 0v-2.461h4.922v2.461a1 1 0 1 0 2 0v-2.461h4.923v2.461a1 1 0 1 0 2 0v-3.461c0-.077-.009-.152-.025-.224.016-.09.025-.182.025-.276V5.462c0-.094-.009-.186-.025-.276a1 1 0 0 0 .025-.224V1.501a1 1 0 1 0-2 0v2.461H20.96V1.501a1 1 0 1 0-2 0v2.461H14.04V1.501a1 1 0 1 0-2 0v2.461H7.116V1.501Zm5.923 25.537H25.884V5.962H7.116v21.076h5.923Zm1.076-10.882 2.265-3.65 2.477 3.652-2.476 4.154-2.266-4.156Zm3.142-5.92a1.1 1.1 0 0 0-1.845.038l-3.273 5.273a1.1 1.1 0 0 0-.03 1.107l3.272 6a1.1 1.1 0 0 0 1.91.037l3.577-6a1.1 1.1 0 0 0-.035-1.181l-3.576-5.274Z" clip-rule="evenodd"/></svg>