<svg xmlns="http://www.w3.org/2000/svg" width="33" height="32" fill="none" viewBox="0 0 33 32"><path fill="#111827" fill-rule="evenodd" d="M22.957.294a1 1 0 0 0-1.414 0L.793 21.044a1 1 0 0 0 0 1.413l9.25 9.25a1 1 0 0 0 1.414 0l20.75-20.75a1 1 0 0 0 0-1.415L22.956.294ZM18.47 6.197l3.781-3.782 7.835 7.835L10.75 29.585 2.915 21.75l3.728-3.728 3.984 3.984a1 1 0 1 0 1.414-1.414l-3.983-3.984 3.79-3.791 3.984 3.983a1 1 0 1 0 1.415-1.414l-3.984-3.984 3.792-3.791 3.983 3.984a1 1 0 0 0 1.414-1.415L18.47 6.197Z" clip-rule="evenodd"/></svg>