<svg xmlns="http://www.w3.org/2000/svg" width="33" height="32" fill="none" viewBox="0 0 33 32"><g clip-path="url(#a)"><mask id="b" fill="#fff"><path d="M16.5 1.097C8.284 1.097 1.597 7.787 1.597 16S8.287 30.903 16.5 30.903 31.403 24.213 31.403 16 24.713 1.097 16.5 1.097m-.022 1.324a.976.976 0 0 1 .952.98.98.98 0 1 1-.952-.98m2.244 1.614a12.07 12.07 0 0 1 8.26 5.883l-1.156 2.61c-.2.452.006.981.453 1.183l2.226.987q.105 1.046.026 2.093h-1.24c-.122 0-.173.082-.173.202v.568c0 1.336-.753 1.63-1.415 1.702-.631.073-1.328-.265-1.416-.65-.372-2.09-.99-2.534-1.967-3.307 1.213-.769 2.475-1.907 2.475-3.427 0-1.642-1.126-2.676-1.892-3.184-1.078-.71-2.27-.851-2.592-.851h-12.8a12.07 12.07 0 0 1 6.75-3.809l1.51 1.583a.89.89 0 0 0 1.262.029zM4.787 11.293a.98.98 0 1 1-.057 1.96.98.98 0 0 1 .057-1.96m23.378.044a.98.98 0 1 1-.057 1.96.98.98 0 0 1 .057-1.96m-21.53.158h1.709V19.2h-3.45a12.1 12.1 0 0 1-.39-4.606l2.112-.94a.893.893 0 0 0 .454-1.179zm7.131.082h4.07c.212 0 1.486.242 1.486 1.198 0 .791-.978 1.075-1.782 1.075h-3.777zm0 5.536h3.118c.284 0 1.523.082 1.917 1.665.123.485.398 2.068.584 2.575.185.568.939 1.703 1.743 1.703h5.088q-.51.685-1.116 1.292l-2.071-.444a.896.896 0 0 0-1.062.687l-.492 2.295a12.07 12.07 0 0 1-10.06-.047l-.492-2.295a.89.89 0 0 0-1.06-.687l-2.027.435a12 12 0 0 1-1.047-1.236h9.859c.11 0 .186-.02.186-.123v-3.487c0-.101-.076-.123-.186-.123h-2.885zm-4.549 7.986a.98.98 0 1 1-.057 1.96.98.98 0 0 1 .057-1.96m14.518.044a.98.98 0 1 1-.056 1.96.98.98 0 0 1 .056-1.96"/></mask><path stroke="#111827" stroke-width="2" d="M16.5 1.097C8.284 1.097 1.597 7.787 1.597 16S8.287 30.903 16.5 30.903 31.403 24.213 31.403 16 24.713 1.097 16.5 1.097Zm-.022 1.324a.976.976 0 0 1 .952.98.98.98 0 1 1-.952-.98Zm2.244 1.614a12.07 12.07 0 0 1 8.26 5.883l-1.156 2.61c-.2.452.006.981.453 1.183l2.226.987q.105 1.046.026 2.093h-1.24c-.122 0-.173.082-.173.202v.568c0 1.336-.753 1.63-1.415 1.702-.631.073-1.328-.265-1.416-.65-.372-2.09-.99-2.534-1.967-3.307 1.213-.769 2.475-1.907 2.475-3.427 0-1.642-1.126-2.676-1.892-3.184-1.078-.71-2.27-.851-2.592-.851h-12.8a12.07 12.07 0 0 1 6.75-3.809l1.51 1.583a.89.89 0 0 0 1.262.029zM4.787 11.293a.98.98 0 1 1-.057 1.96.98.98 0 0 1 .057-1.96Zm23.378.044a.98.98 0 1 1-.057 1.96.98.98 0 0 1 .057-1.96Zm-21.53.158h1.709V19.2h-3.45a12.1 12.1 0 0 1-.39-4.606l2.112-.94a.893.893 0 0 0 .454-1.179zm7.131.082h4.07c.212 0 1.486.242 1.486 1.198 0 .791-.978 1.075-1.782 1.075h-3.777zm0 5.536h3.118c.284 0 1.523.082 1.917 1.665.123.485.398 2.068.584 2.575.185.568.939 1.703 1.743 1.703h5.088q-.51.685-1.116 1.292l-2.071-.444a.896.896 0 0 0-1.062.687l-.492 2.295a12.07 12.07 0 0 1-10.06-.047l-.492-2.295a.89.89 0 0 0-1.06-.687l-2.027.435a12 12 0 0 1-1.047-1.236h9.859c.11 0 .186-.02.186-.123v-3.487c0-.101-.076-.123-.186-.123h-2.885zm-4.549 7.986a.98.98 0 1 1-.057 1.96.98.98 0 0 1 .057-1.96Zm14.518.044a.98.98 0 1 1-.056 1.96.98.98 0 0 1 .056-1.96Z" mask="url(#b)"/><path stroke="#111827" stroke-linecap="round" stroke-linejoin="round" d="M30.074 10.703a15 15 0 0 0-.23-.554l.562.092zm.772 2.749a15 15 0 0 0-.117-.587l.532.2zm.221 2.249.483.299-.483.299a15 15 0 0 0 0-.598m-.338 3.434q.064-.292.117-.587l.415.388zm-.885 2.716a15 15 0 0 0 .23-.554l.332.462zm-1.398 2.491q.171-.245.332-.497l.236.517zm-1.643 1.96.21-.213.13.554-.554-.13zm-2.458 1.976q.252-.16.497-.332l.02.568zm-2.548 1.296q.279-.11.554-.23l-.092.562zm-2.749.772q.295-.053.587-.117l-.2.532zm-2.548.224q.15 0 .299-.003l-.299.483-.299-.483q.15.004.299.003m-3.135-.34q.292.063.587.116l-.388.415zm-2.716-.886q.275.12.554.23l-.462.332zm-2.491-1.398q.245.171.497.332l-.517.236zm-1.96-1.643.213.21-.554.13.13-.554zm-1.976-2.458q.16.252.332.497l-.568.02zm-1.296-2.548q.11.279.23.554l-.562-.092zm-.772-2.749q.053.295.117.587l-.532-.2zM1.929 16q0 .15.004.299L1.45 16l.483-.299q-.004.15-.004.299m.342-3.135q-.064.292-.117.587l-.415-.388zm.885-2.716q-.12.275-.23.554l-.332-.462zm1.398-2.491q-.171.246-.332.497l-.236-.517zm1.643-1.96-.21.213-.13-.554.554.13zm2.458-1.976q-.252.16-.497.332l-.02-.568zm2.548-1.296q-.278.11-.554.23l.092-.562zm2.749-.772q-.295.052-.587.117l.2-.532zm2.548-.225q-.15 0-.299.004L16.5.95l.299.483q-.15-.004-.299-.004m3.135.342q-.292-.064-.587-.117l.388-.415zm2.716.885q-.275-.12-.554-.23l.462-.332zm2.491 1.398q-.245-.171-.497-.332l.517-.236zm1.96 1.643-.213-.21.554-.13-.13.554zm1.976 2.458a15 15 0 0 0-.332-.497l.568-.02z"/></g><defs><clipPath id="a"><path fill="#fff" d="M.5 0h32v32H.5z"/></clipPath></defs></svg>