<svg xmlns="http://www.w3.org/2000/svg" width="33" height="32" fill="none"><g clip-path="url(#a)"><mask id="b" fill="#fff"><path d="M16.5 1.097C8.284 1.097 1.597 7.787 1.597 16c0 8.213 6.69 14.903 14.903 14.903 8.213 0 14.903-6.69 14.903-14.903 0-8.213-6.69-14.903-14.903-14.903Zm-.022 1.324a.976.976 0 0 1 .952.98.98.98 0 1 1-.952-.98Zm2.244 1.614a12.066 12.066 0 0 1 8.26 5.883l-1.156 2.61c-.2.452.006.981.453 1.183l2.226.987c.07.696.078 1.396.026 2.093h-1.24c-.122 0-.173.082-.173.202v.568c0 1.336-.753 1.63-1.415 1.702-.631.073-1.328-.265-1.416-.65-.372-2.09-.99-2.534-1.967-3.307 1.213-.769 2.475-1.907 2.475-3.427 0-1.642-1.126-2.676-1.892-3.184-1.078-.71-2.27-.851-2.592-.851h-12.8a12.065 12.065 0 0 1 6.75-3.809l1.51 1.583a.889.889 0 0 0 1.262.029l1.69-1.612ZM4.787 11.293a.98.98 0 1 1-.057 1.96.98.98 0 0 1 .057-1.96Zm23.378.044a.98.98 0 1 1-.057 1.96.98.98 0 0 1 .057-1.96Zm-21.53.158h1.709V19.2h-3.45a12.065 12.065 0 0 1-.39-4.606l2.112-.94a.893.893 0 0 0 .454-1.179l-.435-.98Zm7.131.082h4.07c.212 0 1.486.242 1.486 1.198 0 .791-.978 1.075-1.782 1.075h-3.777l.003-2.273Zm0 5.536h3.118c.284 0 1.523.082 1.917 1.665.123.485.398 2.068.584 2.575.185.568.939 1.703 1.743 1.703h5.088c-.34.456-.713.888-1.116 1.292l-2.071-.444a.896.896 0 0 0-1.062.687l-.492 2.295a12.066 12.066 0 0 1-10.06-.047l-.492-2.295a.892.892 0 0 0-1.06-.687l-2.027.435a12.074 12.074 0 0 1-1.047-1.236h9.859c.11 0 .186-.02.186-.123v-3.487c0-.101-.076-.123-.186-.123h-2.885l.003-2.21Zm-4.549 7.986a.98.98 0 1 1-.057 1.96.98.98 0 0 1 .057-1.96Zm14.518.044a.98.98 0 1 1-.056 1.96.98.98 0 0 1 .056-1.96Z"/></mask><path stroke="#111827" stroke-width="2" d="M16.5 1.097C8.284 1.097 1.597 7.787 1.597 16c0 8.213 6.69 14.903 14.903 14.903 8.213 0 14.903-6.69 14.903-14.903 0-8.213-6.69-14.903-14.903-14.903Zm-.022 1.324a.976.976 0 0 1 .952.98.98.98 0 1 1-.952-.98Zm2.244 1.614a12.066 12.066 0 0 1 8.26 5.883l-1.156 2.61c-.2.452.006.981.453 1.183l2.226.987c.07.696.078 1.396.026 2.093h-1.24c-.122 0-.173.082-.173.202v.568c0 1.336-.753 1.63-1.415 1.702-.631.073-1.328-.265-1.416-.65-.372-2.09-.99-2.534-1.967-3.307 1.213-.769 2.475-1.907 2.475-3.427 0-1.642-1.126-2.676-1.892-3.184-1.078-.71-2.27-.851-2.592-.851h-12.8a12.065 12.065 0 0 1 6.75-3.809l1.51 1.583a.889.889 0 0 0 1.262.029l1.69-1.612ZM4.787 11.293a.98.98 0 1 1-.057 1.96.98.98 0 0 1 .057-1.96Zm23.378.044a.98.98 0 1 1-.057 1.96.98.98 0 0 1 .057-1.96Zm-21.53.158h1.709V19.2h-3.45a12.065 12.065 0 0 1-.39-4.606l2.112-.94a.893.893 0 0 0 .454-1.179l-.435-.98Zm7.131.082h4.07c.212 0 1.486.242 1.486 1.198 0 .791-.978 1.075-1.782 1.075h-3.777l.003-2.273Zm0 5.536h3.118c.284 0 1.523.082 1.917 1.665.123.485.398 2.068.584 2.575.185.568.939 1.703 1.743 1.703h5.088c-.34.456-.713.888-1.116 1.292l-2.071-.444a.896.896 0 0 0-1.062.687l-.492 2.295a12.066 12.066 0 0 1-10.06-.047l-.492-2.295a.892.892 0 0 0-1.06-.687l-2.027.435a12.074 12.074 0 0 1-1.047-1.236h9.859c.11 0 .186-.02.186-.123v-3.487c0-.101-.076-.123-.186-.123h-2.885l.003-2.21Zm-4.549 7.986a.98.98 0 1 1-.057 1.96.98.98 0 0 1 .057-1.96Zm14.518.044a.98.98 0 1 1-.056 1.96.98.98 0 0 1 .056-1.96Z" mask="url(#b)"/><path stroke="#111827" stroke-linecap="round" stroke-linejoin="round" d="M30.074 10.703a14.7 14.7 0 0 0-.23-.554l.562.092-.332.462Zm.772 2.749a14.652 14.652 0 0 0-.117-.587l.532.2-.415.387Zm.221 2.249.483.299-.483.299a14.888 14.888 0 0 0 0-.598Zm-.338 3.434c.043-.195.082-.39.117-.587l.415.388-.532.199Zm-.885 2.716a14.7 14.7 0 0 0 .23-.554l.332.462-.562.092Zm-1.398 2.491c.114-.163.225-.33.332-.497l.236.517-.568-.02Zm-1.643 1.96.21-.213.13.554-.554-.13.214-.21Zm-2.458 1.976c.168-.107.334-.218.497-.332l.02.568-.517-.236Zm-2.548 1.296c.186-.073.37-.15.554-.23l-.092.562-.462-.332Zm-2.749.772c.197-.035.392-.074.587-.117l-.2.532-.387-.415Zm-2.548.224c.1 0 .2 0 .299-.003l-.299.483-.299-.483c.1.003.2.003.299.003Zm-3.135-.34c.195.042.39.081.587.116l-.388.415-.199-.532Zm-2.716-.886c.183.08.368.157.554.23l-.462.332-.092-.562Zm-2.491-1.398c.163.114.33.225.497.332l-.517.236.02-.568Zm-1.96-1.643.213.21-.554.13.13-.554.21.214Zm-1.976-2.458c.107.168.218.334.332.497l-.568.02.236-.517Zm-1.296-2.548c.073.186.15.37.23.554l-.562-.092.332-.462Zm-.772-2.749c.035.197.074.392.117.587l-.532-.2.415-.387ZM1.929 16c0 .1.001.2.004.299L1.45 16l.483-.299c-.003.1-.004.2-.004.299Zm.342-3.135c-.043.195-.082.39-.117.587l-.415-.388.532-.199Zm.885-2.716c-.08.183-.157.368-.23.554l-.332-.462.562-.092Zm1.398-2.491c-.114.163-.225.33-.332.497l-.236-.517.568.02Zm1.643-1.96-.21.213-.13-.554.554.13-.214.21Zm2.458-1.976c-.168.107-.334.218-.497.332l-.02-.568.517.236Zm2.548-1.296c-.186.073-.37.15-.554.23l.092-.562.462.332Zm2.749-.772c-.197.035-.392.074-.587.117l.2-.532.387.415Zm2.548-.225c-.1 0-.2.001-.299.004L16.5.95l.299.483c-.1-.003-.2-.004-.299-.004Zm3.135.342c-.195-.043-.39-.082-.587-.117l.388-.415.199.532Zm2.716.885c-.183-.08-.368-.157-.554-.23l.462-.332.092.562Zm2.491 1.398c-.163-.114-.33-.225-.497-.332l.517-.236-.02.568Zm1.96 1.643-.213-.21.554-.13-.13.554a14.124 14.124 0 0 0-.21-.214Zm1.976 2.458a14.594 14.594 0 0 0-.332-.497l.568-.02-.236.517Z"/></g><defs><clipPath id="a"><path fill="#fff" d="M.5 0h32v32H.5z"/></clipPath></defs></svg>