<svg xmlns="http://www.w3.org/2000/svg" width="33" height="33" fill="none" viewBox="0 0 33 33"><path fill="#111827" fill-rule="evenodd" d="M16.5 2.808a1 1 0 0 1 1 1v3.369l9.151-2.034a1 1 0 0 1 1.165.61l4.612 11.53a1 1 0 0 1 .071.37c0 1.73-1.007 2.882-2.155 3.551-1.118.652-2.453.911-3.46.911-1.007 0-2.342-.259-3.46-.911-1.148-.67-2.155-1.82-2.155-3.55 0-.128.024-.254.071-.372l3.912-9.779L17.5 9.226V28.19h2.461a1 1 0 1 1 0 2H13.04a1 1 0 1 1 0-2h2.46V9.671l-8.018 1.781 4.178 10.446c.048.118.072.244.072.371 0 1.73-1.007 2.88-2.155 3.55-1.118.653-2.453.911-3.46.911-1.007 0-2.342-.258-3.46-.91C1.508 25.15.5 23.998.5 22.268a1 1 0 0 1 .071-.371l4.61-11.526a.999.999 0 0 1 .717-.617l9.6-2.134V3.808a1 1 0 0 1 1-1ZM2.508 22.444c.058.728.481 1.255 1.155 1.648.757.44 1.729.638 2.453.638.724 0 1.696-.197 2.453-.638.674-.393 1.097-.92 1.155-1.648l-3.608-9.02-3.608 9.02Zm21.923-2.968c-.674-.393-1.097-.92-1.155-1.647l3.608-9.02 3.608 9.02c-.058.728-.481 1.254-1.155 1.647-.757.442-1.73.639-2.453.639-.724 0-1.696-.197-2.453-.639Z" clip-rule="evenodd"/></svg>