<svg xmlns="http://www.w3.org/2000/svg" width="33" height="33" fill="none" viewBox="0 0 33 33"><path fill="#111827" fill-rule="evenodd" d="M16.5 2.808a1 1 0 0 1 1 1v3.369l9.162-2.036a.994.994 0 0 1 .595.047 1.002 1.002 0 0 1 .556.557l4.614 11.537a1 1 0 0 1 .072.372c0 1.73-1.007 2.88-2.155 3.55-1.118.652-2.453.91-3.46.91-1.007 0-2.342-.258-3.46-.91-1.148-.67-2.155-1.82-2.155-3.55 0-.128.024-.254.071-.372l3.912-9.78L17.5 9.227V28.19h2.461a1 1 0 1 1 0 2h-6.923a1 1 0 1 1 0-2H15.5V9.67L7.48 11.452l4.178 10.446c.048.118.072.244.072.37 0 1.73-1.007 2.882-2.155 3.551-1.118.652-2.453.911-3.46.911-1.007 0-2.342-.259-3.46-.91C1.507 25.15.5 23.997.5 22.268a1 1 0 0 1 .071-.371L5.18 10.379a1 1 0 0 1 .719-.624l9.6-2.134V3.808a1 1 0 0 1 1-1ZM2.508 22.444c.058.728.481 1.254 1.155 1.648.757.44 1.729.638 2.453.638.724 0 1.696-.197 2.453-.638.674-.394 1.097-.92 1.155-1.648l-3.608-9.02-3.608 9.02Zm21.923-2.968c-.674-.393-1.097-.92-1.155-1.647l3.608-9.02 3.608 9.02c-.058.727-.481 1.254-1.155 1.647-.757.441-1.73.639-2.453.639-.724 0-1.696-.198-2.453-.639Z" clip-rule="evenodd"/></svg>