<svg xmlns="http://www.w3.org/2000/svg" width="33" height="32" fill="none" viewBox="0 0 33 32"><path fill="#111827" fill-rule="evenodd" d="M5.7 5a3.2 3.2 0 1 0 0 6.4 3.2 3.2 0 0 0 0-6.4Zm4.778 5.257a5.2 5.2 0 1 0-1.13 1.65L15.328 16l-5.982 4.093a5.2 5.2 0 1 0 1.13 1.65l6.623-4.531 13.834 9.465a1 1 0 1 0 1.13-1.65l-14.381-9.84a.98.98 0 0 0-.037-.025l-7.168-4.905ZM5.7 20.6a3.2 3.2 0 1 0 0 6.399 3.2 3.2 0 0 0 0-6.4ZM32.324 5.583a1 1 0 0 1-.26 1.39l-10.15 6.945a1 1 0 1 1-1.129-1.651l10.15-6.944a1 1 0 0 1 1.39.26Z" clip-rule="evenodd"/></svg>