<svg xmlns="http://www.w3.org/2000/svg" width="33" height="33" fill="none"><path fill="#111827" fill-rule="evenodd" d="M1.502 3.001a1 1 0 0 0-1 1v7.521a1 1 0 1 0 2 0V5.001h27.997v22.998H19.006a1 1 0 1 0 0 2h12.493a1 1 0 0 0 1-1V4a1 1 0 0 0-1-1H1.502ZM.5 16.5a1 1 0 0 1 1-1A13.499 13.499 0 0 1 15 28.999a1 1 0 1 1-2 0A11.498 11.498 0 0 0 1.5 17.5a1 1 0 0 1-1-1Zm1 4a1 1 0 1 0 0 2A6.5 6.5 0 0 1 8 28.998a1 1 0 0 0 2 0 8.5 8.5 0 0 0-8.5-8.5Zm0 5a1 1 0 1 0 0 2A1.5 1.5 0 0 1 3 28.998a1 1 0 1 0 2 0 3.5 3.5 0 0 0-3.5-3.5Z" clip-rule="evenodd"/></svg>