<svg xmlns="http://www.w3.org/2000/svg" width="33" height="33" fill="none" viewBox="0 0 33 33"><path fill="#111827" fill-rule="evenodd" d="M5.303 7.821V3.105h-.802a2 2 0 0 0-2 2v2.716h2.802Zm.892-6.716h20.212a3 3 0 0 1 3 3V23.18h2.082c.558 0 1.01.452 1.01 1.01v3.706a4 4 0 0 1-4 4H8.304a3 3 0 0 1-3-3V9.82H1.5a1 1 0 0 1-1-1V5.105a4 4 0 0 1 4-4h1.694Zm20.09 28.79h2.214a2 2 0 0 0 2-2v-2.716h-1.937a.998.998 0 0 1-.311 0h-14.8c.552.708.88 1.6.88 2.565 0 .785-.217 1.522-.595 2.15h12.549Zm-16.051-6.716h17.173V4.105a1 1 0 0 0-1-1H7.303v25.79a1 1 0 0 0 1 1h1.945c1.14-.014 2.082-.959 2.082-2.15 0-1.199-.952-2.147-2.1-2.151a1.01 1.01 0 0 1-1.006-1.01v-.395c0-.558.452-1.01 1.01-1.01Zm1.591-10.686a1 1 0 0 1 1-1h10.388a1 1 0 1 1 0 2H12.825a1 1 0 0 1-1-1Zm0 5.193a1 1 0 0 1 1-1h10.388a1 1 0 0 1 0 2H12.825a1 1 0 0 1-1-1Z" clip-rule="evenodd"/></svg>