<svg xmlns="http://www.w3.org/2000/svg" width="33" height="33" fill="none" viewBox="0 0 33 33"><path fill="#111827" fill-rule="evenodd" d="M4.502 15.02C4.502 9.21 9.21 4.5 15.02 4.5s10.518 4.71 10.518 10.518-4.71 10.518-10.518 10.518c-5.81 0-10.518-4.709-10.518-10.518M15.02 2.5c-6.914 0-12.518 5.605-12.518 12.518S8.106 27.537 15.02 27.537c3.096 0 5.93-1.124 8.115-2.987l5.656 5.656a1 1 0 0 0 1.415-1.414l-5.656-5.656a12.47 12.47 0 0 0 2.988-8.117c0-6.913-5.605-12.518-12.518-12.518" clip-rule="evenodd"/></svg>