<svg xmlns="http://www.w3.org/2000/svg" width="33" height="32" fill="none" viewBox="0 0 33 32"><path fill="#111827" fill-rule="evenodd" d="M1.22 1.001a1 1 0 0 1 1-1h28.56a1 1 0 0 1 1 1v13.283c0 4.762-1.41 8.169-4.058 10.906-2.593 2.68-6.322 4.658-10.804 6.718a1 1 0 0 1-.873-.018c-4.577-2.34-8.298-4.378-10.852-7.003-2.62-2.692-3.972-5.955-3.973-10.603V1.001h1zm2 1v12.283c0 4.183 1.187 6.928 3.407 9.209 2.214 2.276 5.49 4.133 9.896 6.394 4.27-1.981 7.533-3.785 9.762-6.088 2.249-2.325 3.494-5.214 3.494-9.515V2.001H3.22M10.5 8a1 1 0 0 1 1-1h6.51a1 1 0 0 1 .71.294l3.489 3.505a1 1 0 0 1 .291.705V20a1 1 0 0 1-1 1h-10a1 1 0 0 1-1-1zm2 1v10h8v-6.877h-3.053V9z" clip-rule="evenodd"/></svg>