<svg xmlns="http://www.w3.org/2000/svg" width="33" height="32" fill="none" viewBox="0 0 33 32"><path fill="#111827" fill-rule="evenodd" d="M1.501 0a1 1 0 0 0-1 1v1.876a1 1 0 0 0 2 0V2h.875a1 1 0 1 0 0-2H1.5Zm5.625 0a1 1 0 0 0 0 2h3.75a1 1 0 1 0 0-2h-3.75Zm7.5 0a1 1 0 1 0 0 2h3.749a1 1 0 1 0 0-2h-3.75Zm7.499 0a1 1 0 1 0 0 2h3.75a1 1 0 1 0 0-2h-3.75Zm7.5 0a1 1 0 1 0 0 2h.874v.876a1 1 0 0 0 2 0V1a1 1 0 0 0-1-1h-1.875ZM2.5 6.627a1 1 0 0 0-2 0v3.75a1 1 0 1 0 2 0v-3.75Zm29.998 0a1 1 0 1 0-2 0v3.75a1 1 0 0 0 2 0v-3.75Zm-29.998 7.5a1 1 0 1 0-2 0v3.749a1 1 0 1 0 2 0v-3.75Zm29.998 0a1 1 0 1 0-2 0v3.749a1 1 0 0 0 2 0v-3.75ZM2.501 21.624a1 1 0 1 0-2 0v3.75a1 1 0 0 0 2 0v-3.75Zm29.998 0a1 1 0 1 0-2 0v3.75a1 1 0 0 0 2 0v-3.75Zm-29.998 7.5a1 1 0 0 0-2 0v1.874a1 1 0 0 0 1 1h1.875a1 1 0 1 0 0-2H2.5v-.875Zm29.998 0a1 1 0 0 0-2 0v.874h-.875a1 1 0 1 0 0 2H31.5a1 1 0 0 0 1-1v-1.875Zm-25.373.874a1 1 0 1 0 0 2h3.75a1 1 0 1 0 0-2h-3.75Zm7.5 0a1 1 0 1 0 0 2h3.749a1 1 0 1 0 0-2h-3.75Zm7.499 0a1 1 0 1 0 0 2h3.75a1 1 0 1 0 0-2h-3.75ZM9 7.5a1 1 0 0 0-1 1v15a1 1 0 0 0 1 1H24a1 1 0 0 0 1-1v-15a1 1 0 0 0-1-1H9Zm1 15v-13H23v13H10Z" clip-rule="evenodd"/></svg>