<svg xmlns="http://www.w3.org/2000/svg" width="33" height="32" fill="none" viewBox="0 0 33 32"><path fill="#111827" fill-rule="evenodd" d="M2.208.294A1 1 0 0 0 .794 1.708l29.998 29.998a1 1 0 1 0 1.414-1.414zM11.622 2.5a1 1 0 1 0 0 2h2.172a1 1 0 0 0 0-2zm6.516 0a1 1 0 1 0 0 2h4.345a1 1 0 1 0 0-2zm8.689 0a1 1 0 1 0 0 2h1.172v1.173a1 1 0 1 0 2 0V3.501a1 1 0 0 0-1-1zm3.172 7.52a1 1 0 0 0-2 0v4.346a1 1 0 1 0 2 0zM5.001 11.114a1 1 0 0 0-2 0v2.173a1 1 0 1 0 2 0zm0 6.52a1 1 0 1 0-2 0v4.346a1 1 0 1 0 2 0zm24.998 1.08a1 1 0 0 0-2 0v2.173a1 1 0 1 0 2 0zM5.001 26.326a1 1 0 1 0-2 0v2.173a1 1 0 0 0 1 1h2.173a1 1 0 1 0 0-2H5zm5.52 1.173a1 1 0 1 0 0 2h4.346a1 1 0 1 0 0-2zm8.693 0a1 1 0 1 0 0 2h2.173a1 1 0 1 0 0-2z" clip-rule="evenodd"/></svg>