<svg xmlns="http://www.w3.org/2000/svg" width="33" height="32" fill="none" viewBox="0 0 33 32"><path fill="#111827" fill-rule="evenodd" d="M9.682 0a1 1 0 0 0-1 1v2.055a1 1 0 1 0 2 0V2h.818a1 1 0 1 0 0-2zm5.454 0a1 1 0 1 0 0 2h3.636a1 1 0 1 0 0-2zm7.273 0a1 1 0 1 0 0 2h3.636a1 1 0 1 0 0-2zm7.272 0a1 1 0 1 0 0 2h.818v.819a1 1 0 1 0 2 0V1a1 1 0 0 0-1-1zm2.818 6.455a1 1 0 1 0-2 0v3.636a1 1 0 1 0 2 0zm-21.817.708a1 1 0 1 0-2 0v1.02H1.501a1 1 0 0 0-1 1v21.816a1 1 0 0 0 1 1h21.817a1 1 0 0 0 1-1v-7.181h1.043a1 1 0 1 0 0-2h-1.043V9.182a1 1 0 0 0-1-1H10.682zm-1.26 3.02a1 1 0 0 0 .52 0h12.376v12.562a1 1 0 0 0 0 .146v7.108H2.5V10.182zm23.077 3.544a1 1 0 1 0-2 0v3.636a1 1 0 1 0 2 0zm0 7.273a1 1 0 1 0-2 0v.818h-1.046a1 1 0 0 0 0 2h2.046a1 1 0 0 0 1-1z" clip-rule="evenodd"/></svg>