<svg xmlns="http://www.w3.org/2000/svg" width="33" height="32" fill="none" viewBox="0 0 33 32"><path fill="#111827" fill-rule="evenodd" d="M.504.929a1 1 0 0 1 .34-.682A1 1 0 0 1 1.5.001h29.998a1 1 0 0 1 1 1v30.028a1 1 0 0 1-1.707.677L29.186 30.1a1 1 0 0 0 .438 1.899h1.867M.501 1.009v1.867a1 1 0 0 0 1.899.438M.501 1.008v-.007q0-.036.003-.072m29.995 27.656L3.915 2H30.5zM2.501 6.625a1 1 0 0 0-2 0v3.75a1 1 0 1 0 2 0zm0 7.5a1 1 0 0 0-2 0v3.75a1 1 0 1 0 2 0zm0 7.5a1 1 0 1 0-2 0v3.75a1 1 0 1 0 2 0zm0 7.5a1 1 0 1 0-2 0v1.874a1 1 0 0 0 1 1h1.875a1 1 0 1 0 0-2H2.5zm4.625.874a1 1 0 1 0 0 2h3.75a1 1 0 1 0 0-2zm7.5 0a1 1 0 1 0 0 2h3.749a1 1 0 1 0 0-2zm7.499 0a1 1 0 1 0 0 2h3.75a1 1 0 0 0 0-2z" clip-rule="evenodd"/></svg>