<svg xmlns="http://www.w3.org/2000/svg" width="33" height="32" fill="none" viewBox="0 0 33 32"><path fill="#111827" fill-rule="evenodd" d="M1.5 0a1 1 0 0 0-1 1v2.183a1 1 0 0 0 2 0V2h1.182a1 1 0 1 0 0-2zm6.546 0a1 1 0 1 0 0 2h4.363a1 1 0 1 0 0-2zm8.727 0a1 1 0 1 0 0 2h4.363a1 1 0 0 0 0-2zm8.726 0a1 1 0 1 0 0 2h1.182v1.183a1 1 0 1 0 2 0V1a1 1 0 0 0-1-1zM2.501 7.547a1 1 0 1 0-2 0v4.363a1 1 0 1 0 2 0zm26.18 0a1 1 0 1 0-2 0v4.363a1 1 0 1 0 2 0zm-26.18 8.727a1 1 0 1 0-2 0v4.363a1 1 0 1 0 2 0zm26.18 0a1 1 0 1 0-2 0v4.363a1 1 0 1 0 2 0zM2.501 25a1 1 0 1 0-2 0v2.181a1 1 0 0 0 1 1h2.181a1 1 0 1 0 0-2H2.501zm24.18-.02v-1.617a1 1 0 1 1 2 0v2.818H31.5a1 1 0 1 1 0 2H28.68V31a1 1 0 1 1-2 0v-2.818h-2.818a1 1 0 1 1 0-2h2.818V24.98M8.046 26.182a1 1 0 0 0 0 2h4.363a1 1 0 1 0 0-2zm8.727 0a1 1 0 0 0 0 2h4.363a1 1 0 0 0 0-2z" clip-rule="evenodd"/></svg>