<svg xmlns="http://www.w3.org/2000/svg" width="33" height="32" fill="none" viewBox="0 0 33 32"><path fill="#111827" fill-rule="evenodd" d="M2.208.294A1 1 0 0 0 .794 1.708l29.998 29.998a1 1 0 1 0 1.414-1.414L2.208.294ZM11.622 2.5a1 1 0 1 0 0 2h2.172a1 1 0 0 0 0-2h-2.172Zm6.516 0a1 1 0 1 0 0 2h4.345a1 1 0 1 0 0-2h-4.345Zm8.689 0a1 1 0 1 0 0 2h1.172v1.173a1 1 0 1 0 2 0V3.501a1 1 0 0 0-1-1h-2.172Zm3.172 7.52a1 1 0 0 0-2 0v4.346a1 1 0 1 0 2 0v-4.346ZM5.001 11.114a1 1 0 0 0-2 0v2.173a1 1 0 1 0 2 0v-2.173Zm0 6.52a1 1 0 1 0-2 0v4.346a1 1 0 1 0 2 0v-4.347Zm24.998 1.08a1 1 0 0 0-2 0v2.173a1 1 0 1 0 2 0v-2.173ZM5.001 26.326a1 1 0 1 0-2 0v2.173a1 1 0 0 0 1 1h2.173a1 1 0 1 0 0-2H5v-1.173Zm5.52 1.173a1 1 0 1 0 0 2h4.346a1 1 0 1 0 0-2h-4.346Zm8.693 0a1 1 0 1 0 0 2h2.173a1 1 0 1 0 0-2h-2.173Z" clip-rule="evenodd"/></svg>