<svg xmlns="http://www.w3.org/2000/svg" width="33" height="32" fill="none" viewBox="0 0 33 32"><path fill="#111827" fill-rule="evenodd" d="M9.682 0a1 1 0 0 0-1 1v7.182H6.955a1 1 0 0 0 0 2h2.466a1 1 0 0 0 .522 0h.648a1 1 0 0 0 .091-1.996V2.001h19.817v19.817h-6.185a1 1 0 0 0-1.996.09v.837a1 1 0 0 0 0 .146v2.654a1 1 0 1 0 2 0v-1.727h7.18a1 1 0 0 0 1-1V1a1 1 0 0 0-1-1zM1.501 8.183a1 1 0 0 0-1 1V11a1 1 0 1 0 2 0v-.818h.818a1 1 0 0 0 0-2zm12.726 0a1 1 0 1 0 0 2h3.636a1 1 0 0 0 0-2zm7.273 0a1 1 0 0 0 0 2h.818V11a1 1 0 1 0 2 0V9.182a1 1 0 0 0-1-1zm-19 6.454a1 1 0 1 0-2 0v3.637a1 1 0 1 0 2 0zm21.818 0a1 1 0 1 0-2 0v3.637a1 1 0 1 0 2 0zM2.5 21.91a1 1 0 1 0-2 0v3.636a1 1 0 1 0 2 0zm0 7.272a1 1 0 1 0-2 0v1.818a1 1 0 0 0 1 1h1.818a1 1 0 0 0 0-2H2.5zm21.817 0a1 1 0 1 0-2 0v.818h-.819a1 1 0 0 0 0 2h1.819a1 1 0 0 0 1-1zm-17.363.818a1 1 0 1 0 0 2h3.636a1 1 0 0 0 0-2zm7.272 0a1 1 0 1 0 0 2h3.636a1 1 0 0 0 0-2z" clip-rule="evenodd"/></svg>