<svg xmlns="http://www.w3.org/2000/svg" width="32" height="32" fill="none" viewBox="0 0 32 32"><path fill="#111827" fill-rule="evenodd" d="M6.103 1.708A1 1 0 1 0 4.69.292a15.98 15.98 0 0 0 0 22.62 1 1 0 0 0 1.413-1.415 13.98 13.98 0 0 1 0-19.79M9.89 5.494A1 1 0 1 0 8.477 4.08a10.63 10.63 0 0 0 0 15.047A1 1 0 0 0 9.89 17.71a8.63 8.63 0 0 1 0-12.216M12.999 11a3 3 0 1 1 6 0 3 3 0 0 1-6 0m3-5a5 5 0 1 0 0 10 5 5 0 0 0 0-10m6.108-1.92a1 1 0 0 1 1.414-.001 10.63 10.63 0 0 1 0 15.047 1 1 0 0 1-1.413-1.416 8.63 8.63 0 0 0 0-12.216 1 1 0 0 1 0-1.414M25.894.293a1 1 0 0 1 1.414 0 15.98 15.98 0 0 1 0 22.62 1 1 0 0 1-1.413-1.416 13.98 13.98 0 0 0 0-19.79 1 1 0 0 1-.001-1.414M17 19a1 1 0 1 0-2 0v12a1 1 0 1 0 2 0z" clip-rule="evenodd"/></svg>