<svg xmlns="http://www.w3.org/2000/svg" width="33" height="32" fill="none" viewBox="0 0 33 32"><path fill="#111827" fill-rule="evenodd" d="M20.961 5.616a3.615 3.615 0 1 1 7.23 0 3.615 3.615 0 0 1-7.23 0Zm3.615 5.615a5.6 5.6 0 0 1-4.107-1.786l-6.856 4.407c.274.662.426 1.387.426 2.148 0 .76-.151 1.486-.425 2.148l6.855 4.407a5.615 5.615 0 1 1-1.083 1.682l-6.855-4.408a5.615 5.615 0 1 1 0-7.658l6.856-4.408a5.615 5.615 0 1 1 5.19 3.468Zm-13.085 6.682a1.014 1.014 0 0 0-.052.082 3.615 3.615 0 1 1 .053-.082Zm10.026 6.544a3.615 3.615 0 1 0 6.118 3.855 3.615 3.615 0 0 0-6.118-3.855Z" clip-rule="evenodd"/></svg>