<svg xmlns="http://www.w3.org/2000/svg" width="33" height="32" fill="none" viewBox="0 0 33 32"><path fill="#111827" fill-rule="evenodd" d="M2.22 0a1 1 0 0 0-1 1h1-1V14.285c0 4.648 1.353 7.91 3.973 10.603 2.554 2.625 6.275 4.663 10.852 7.002a1 1 0 0 0 .873.018c4.482-2.06 8.211-4.038 10.804-6.718 2.648-2.736 4.057-6.143 4.057-10.905V1.001a1 1 0 0 0-1-1H2.22Zm1 4.33V2h26.56v12.284c0 1.951-.257 3.612-.747 5.062l-11.96-8.372a1 1 0 0 0-1.146 0L3.99 19.33c-.508-1.431-.77-3.08-.77-5.045V4.331Zm1.608 16.815c.492.85 1.093 1.622 1.799 2.348 2.214 2.276 5.49 4.132 9.896 6.394 4.27-1.981 7.533-3.785 9.762-6.088.773-.8 1.427-1.665 1.954-2.632a.998.998 0 0 1-.294-.142L16.5 13.015 5.055 21.026a.998.998 0 0 1-.227.119Z" clip-rule="evenodd"/></svg>