<svg xmlns="http://www.w3.org/2000/svg" width="33" height="32" fill="none" viewBox="0 0 33 32"><path fill="#111827" fill-rule="evenodd" d="M2.22 0a1 1 0 0 0-1 1h1-1V14.285c0 4.648 1.353 7.91 3.973 10.603 2.554 2.625 6.275 4.663 10.852 7.002a1 1 0 0 0 .873.018c4.482-2.06 8.211-4.038 10.804-6.718 2.648-2.736 4.058-6.143 4.058-10.905V1.001a1 1 0 0 0-1-1H2.22Zm1 4.33V2h26.56v12.284c0 4.3-1.246 7.19-3.495 9.515-2.23 2.303-5.492 4.107-9.762 6.088-4.405-2.262-7.682-4.118-9.896-6.394-2.22-2.282-3.406-5.026-3.406-9.209V4.331ZM16.5 8.154a1 1 0 0 1 1 1v6.25a1 1 0 1 1-2 0v-6.25a1 1 0 0 1 1-1Zm0 14.749a1.875 1.875 0 1 0 0-3.75 1.875 1.875 0 0 0 0 3.75Z" clip-rule="evenodd"/></svg>