<svg xmlns="http://www.w3.org/2000/svg" width="33" height="32" fill="none" viewBox="0 0 33 32"><path fill="#111827" fill-rule="evenodd" d="M2.22 0a1 1 0 0 0-1 1h1-1V14.285c0 4.648 1.353 7.91 3.973 10.603 2.554 2.625 6.275 4.663 10.852 7.002a.996.996 0 0 0 .884.013c4.478-2.058 8.202-4.035 10.793-6.713 2.648-2.736 4.057-6.143 4.057-10.905V1.001a1 1 0 0 0-1-1H2.22ZM17.5 29.429c3.794-1.806 6.73-3.505 8.785-5.63 1.973-2.038 3.174-4.513 3.439-7.992H17.5v13.622Zm12.28-15.622V2H17.453a1 1 0 0 1 .047.305v11.5h12.28ZM15.547 2H3.22v11.805H15.5v-11.5a1 1 0 0 1 .047-.305ZM3.278 15.806c.26 3.348 1.41 5.694 3.349 7.687 2.04 2.096 4.98 3.837 8.873 5.865V15.806H3.277Z" clip-rule="evenodd"/></svg>