<svg xmlns="http://www.w3.org/2000/svg" width="33" height="33" fill="none" viewBox="0 0 33 33"><path fill="#111827" fill-rule="evenodd" d="M1.5 1.963a1 1 0 1 0 0 2h2.362a.123.123 0 0 1 .118.09l1.366 4.779a.981.981 0 0 0 .012.043l3.7 12.947a3.246 3.246 0 0 0 3.12 2.354h13.456a3.246 3.246 0 0 0 3.12-2.354l3.706-12.97a1 1 0 0 0-.961-1.274H7.068L5.903 3.503a2.123 2.123 0 0 0-2.04-1.54H1.5Zm9.48 19.31L7.64 9.578h22.534l-3.341 11.695a1.245 1.245 0 0 1-1.198.903H12.178a1.246 1.246 0 0 1-1.198-.903Zm.627 9.764a2.246 2.246 0 1 0 0-4.492 2.246 2.246 0 0 0 0 4.491Zm14.598 0a2.246 2.246 0 1 0 0-4.492 2.246 2.246 0 0 0 0 4.491Z" clip-rule="evenodd"/></svg>