<svg xmlns="http://www.w3.org/2000/svg" width="33" height="33" fill="none" viewBox="0 0 33 33"><path fill="#111827" fill-rule="evenodd" d="M2.61.501a1 1 0 0 0 0 2h2.186a.04.04 0 0 1 .038.029L6.1 6.954q.005.023.012.044l3.425 11.988a3.08 3.08 0 0 0 2.962 2.234h12.461a3.08 3.08 0 0 0 2.962-2.233l3.432-12.011A1 1 0 0 0 30.39 5.7H7.82L6.756 1.98A2.04 2.04 0 0 0 4.796.5zm8.85 17.936L8.391 7.701h20.673l-3.067 10.736a1.08 1.08 0 0 1-1.039.783H12.498a1.08 1.08 0 0 1-1.039-.783m.974 7.748a2.157 2.157 0 1 0 0 4.314 2.157 2.157 0 0 0 0-4.314m-4.157 2.157a4.157 4.157 0 1 1 8.314 0 4.157 4.157 0 0 1-8.314 0m16.785-2.157a2.157 2.157 0 1 0 0 4.314 2.157 2.157 0 0 0 0-4.314m-4.157 2.157a4.157 4.157 0 1 1 8.314 0 4.157 4.157 0 0 1-8.314 0" clip-rule="evenodd"/></svg>