<svg xmlns="http://www.w3.org/2000/svg" width="33" height="33" fill="none"><path fill="#111827" fill-rule="evenodd" d="M25.61 3.415a1 1 0 1 0-1.414 1.414l2.874 2.874h-.87a9 9 0 0 0-7.271 3.696l-.442.606a1 1 0 0 0 1.616 1.178l.441-.605A7 7 0 0 1 26.2 9.703h.9l-2.904 2.904a1 1 0 1 0 1.415 1.414l4.596-4.596a.997.997 0 0 0 .293-.71v-.012a.999.999 0 0 0-.404-.803L25.61 3.415Zm0 15.564a1 1 0 1 0-1.414 1.414l2.89 2.889H26.2a7 7 0 0 1-5.655-2.875l-6.56-8.993a9 9 0 0 0-7.272-3.696H3.5a1 1 0 1 0 0 2h3.213a7 7 0 0 1 5.656 2.875l6.56 8.993a9 9 0 0 0 7.27 3.696h.886l-2.889 2.89a1 1 0 1 0 1.415 1.413l4.596-4.596a.998.998 0 0 0-.01-1.424l-4.586-4.586ZM3.5 25.267a1 1 0 1 1 0-2h3.213a7 7 0 0 0 5.656-2.875l.441-.605a1 1 0 0 1 1.616 1.178l-.441.606a9 9 0 0 1-7.272 3.696H3.5Z" clip-rule="evenodd"/></svg>