<svg xmlns="http://www.w3.org/2000/svg" width="33" height="33" fill="none" viewBox="0 0 33 33"><path fill="#111827" fill-rule="evenodd" d="M25.61 3.415a1 1 0 1 0-1.414 1.414l2.874 2.874h-4.937a1 1 0 0 0-.808.41l-2.838 3.892a1 1 0 0 0 1.616 1.178l2.538-3.48h4.46l-2.905 2.904a1 1 0 1 0 1.415 1.414l4.596-4.596a1 1 0 0 0 .293-.71v-.012a1 1 0 0 0-.404-.803zm0 15.564a1 1 0 1 0-1.414 1.414l2.89 2.889h-4.444L11.588 8.129a1 1 0 0 0-.808-.411H3.5a1 1 0 1 0 0 2h6.772L21.325 24.87a1 1 0 0 0 .808.411h4.952l-2.889 2.89a1 1 0 1 0 1.415 1.413l4.596-4.596a1 1 0 0 0-.01-1.424zM3.5 25.267a1 1 0 1 1 0-2h6.772l2.538-3.48a1 1 0 0 1 1.616 1.178l-2.838 3.891a1 1 0 0 1-.808.411z" clip-rule="evenodd"/></svg>