<svg xmlns="http://www.w3.org/2000/svg" width="33" height="33" fill="none" viewBox="0 0 33 33"><path fill="#111827" fill-rule="evenodd" d="M1.5 3.277a1 1 0 0 0-1 1v24.446a1 1 0 0 0 1 1h18.544a1 1 0 1 0 0-2h-8.987V5.277h18.779V19.91a1 1 0 1 0 2 0V4.277a1 1 0 0 0-1-1H1.5Zm7.557 2H2.5v22.446h6.556V5.277Zm5.438 9.513a1 1 0 0 1-.366-1.366l2.769-4.796a1 1 0 0 1 1.366-.366l4.796 2.769a1 1 0 0 1 .366 1.366l-2.77 4.796a1 1 0 0 1-1.365.366l-4.796-2.769Zm1.866-1.232 3.064 1.769 1.769-3.064-3.064-1.769-1.77 3.064Zm10.481 6.976a1 1 0 0 0-1.673.448l-1.963 7.328a1 1 0 0 0 1.224 1.225l7.328-1.964a1 1 0 0 0 .448-1.673l-5.364-5.364Zm2.725 5.554-3.981 1.066 1.067-3.98 2.914 2.914Z" clip-rule="evenodd"/></svg>