<svg xmlns="http://www.w3.org/2000/svg" width="33" height="33" fill="none" viewBox="0 0 33 33"><path fill="#111827" fill-rule="evenodd" d="M27.434 2.206a1 1 0 0 1 .95.69l.736 2.264h2.38a1 1 0 0 1 .587 1.809l-1.925 1.398.735 2.263a1 1 0 0 1-1.538 1.118l-1.925-1.398-1.925 1.398a1 1 0 0 1-1.54-1.118l.736-2.263L22.78 6.97a1 1 0 0 1 .588-1.81h2.38l.735-2.262a1 1 0 0 1 .95-.691m0 4.236-.01.027a1 1 0 0 1-.95.69h-.028l.022.017a1 1 0 0 1 .364 1.118l-.009.027.023-.017a1 1 0 0 1 1.175 0l.023.017-.009-.027a1 1 0 0 1 .364-1.118l.023-.016h-.029a1 1 0 0 1-.95-.691zM1.5 30.794a1 1 0 0 1-1-1V5.727a1 1 0 0 1 1-1h18.256a1 1 0 1 1 0 2h-8.832v22.067h18.457V14.403a1 1 0 1 1 2 0v15.391a1 1 0 0 1-1 1H1.501m7.424-2V6.727H2.5v22.067zm10.91-14.398a1 1 0 0 0-1.902 0l-.33 1.016h-1.069a1 1 0 0 0-.588 1.81l.865.627-.33 1.017a1 1 0 0 0 1.538 1.118l.865-.628.864.628a1 1 0 0 0 1.54-1.118l-.33-1.017.864-.628a1 1 0 0 0-.588-1.809h-1.069z" clip-rule="evenodd"/></svg>