<svg xmlns="http://www.w3.org/2000/svg" width="33" height="32" fill="none" viewBox="0 0 33 32"><path fill="#111827" fill-rule="evenodd" d="M2.977 1a1 1 0 0 1 1-1h16.28a1 1 0 0 1 .707.294L29.73 9.06a1 1 0 0 1 .293.707v21.232a1 1 0 0 1-1 1H3.977a1 1 0 0 1-1-1zm2 1V30h23.046V10.181l-8.18-8.18zM16.5 13.72h7.514a1 1 0 0 1 1 1v11.27a1 1 0 0 1-1 1H8.987a1 1 0 0 1-1-1v-5.585a1 1 0 0 1 0-.1v-5.584a1 1 0 0 1 1-1zm-6.513 7.635v3.635H15.5v-3.634zM17.5 24.99h5.514v-3.634H17.5zm5.514-5.634V15.72H17.5v3.634zM15.5 15.72v3.634H9.987v-3.634z" clip-rule="evenodd"/></svg>