<svg xmlns="http://www.w3.org/2000/svg" width="33" height="33" fill="none" viewBox="0 0 33 33"><path fill="#111827" fill-rule="evenodd" d="M1.5.39h-1v6.904h23.719V.389H1.5m1 4.904V2.389h19.719v2.905zm7.281 19.912h-1v6.905H32.5v-6.905H9.781m1 4.905v-2.905H30.5v2.905zm0-19.493v2.905h16.814v8.293H30.5V10.618H10.781m-1-2H32.5v15.198h-6.905v-8.293H8.78V8.618zm-8.281 0h-1v15.198h6.905v-.064H24.22v-6.905H7.405V8.618H1.5m3.905 13.134v.064H2.5V10.618h2.905v8.23H22.22v2.904H5.405" clip-rule="evenodd"/></svg>