<svg xmlns="http://www.w3.org/2000/svg" width="33" height="33" fill="none" viewBox="0 0 33 33"><path fill="#111827" fill-rule="evenodd" d="M1.5.39h-1v6.904h23.719V.389H1.5Zm1 4.904V2.389h19.719v2.905H2.5Zm7.281 19.912h-1v6.905H32.5v-6.905H9.781Zm1 4.905v-2.905H30.5v2.905H10.781Zm0-19.493v2.905h16.814v8.293H30.5V10.617H10.781Zm-1-2H32.5v15.197h-6.905v-8.292H8.78V8.618h1Zm-8.281 0h-1v15.197h6.905v-.063H24.22v-6.905H7.405V8.618H1.5Zm3.905 13.134v.064H2.5V10.617h2.905v8.23H22.22v2.904H5.405Z" clip-rule="evenodd"/></svg>