<svg xmlns="http://www.w3.org/2000/svg" width="33" height="33" fill="none" viewBox="0 0 33 33"><path fill="#111827" fill-rule="evenodd" d="M16.5 2.5c7.731 0 13.999 6.268 13.999 14 0 7.731-6.268 13.999-14 13.999-7.73 0-13.998-6.268-13.998-14C2.5 8.77 8.768 2.502 16.5 2.502m15.999 14c0-8.836-7.163-16-16-16C7.665.5.502 7.665.502 16.5S7.664 32.499 16.5 32.499s15.999-7.163 15.999-16M22.437 8.624a1 1 0 0 0-1 1v5.061l-10.34-6.53A1 1 0 0 0 9.563 9v15a1 1 0 0 0 1.534.845l10.34-6.53v5.06a1 1 0 1 0 2 0V9.624a1 1 0 0 0-1-1M20.566 16.5l-9.002-5.685v11.37z" clip-rule="evenodd"/></svg>