<svg xmlns="http://www.w3.org/2000/svg" width="33" height="32" fill="none"><path fill="#111827" fill-rule="evenodd" d="M3.842 14.66C3.842 7.667 9.509 2 16.5 2c6.99 0 12.658 5.667 12.658 12.658 0 4.337-2.18 8.165-5.509 10.448a1.511 1.511 0 0 0-.659 1.245v3.647h-3.115v-4.21a1 1 0 1 0-2 0V30h-2.75v-4.21a1 1 0 1 0-2 0V30h-2.883v-3.491c0-.52-.268-.988-.683-1.262A12.646 12.646 0 0 1 3.842 14.66ZM16.5 0C8.405.001 1.842 6.564 1.842 14.659c0 5.034 2.538 9.475 6.4 12.112V30.5a1.5 1.5 0 0 0 1.5 1.5H23.49a1.5 1.5 0 0 0 1.5-1.5v-3.89a14.641 14.641 0 0 0 6.168-11.95C31.158 6.564 24.595.001 16.5.001Zm-5.345 14.912a1.97 1.97 0 1 0 0 3.939 1.97 1.97 0 0 0 0-3.939Zm-3.969 1.97a3.97 3.97 0 1 1 7.939 0 3.97 3.97 0 0 1-7.939 0Zm14.659-1.97a1.97 1.97 0 1 0 0 3.938 1.97 1.97 0 0 0 0-3.938Zm-3.97 1.97a3.97 3.97 0 1 1 7.939 0 3.97 3.97 0 0 1-7.939 0Z" clip-rule="evenodd"/></svg>