<svg xmlns="http://www.w3.org/2000/svg" width="33" height="33" fill="none" viewBox="0 0 33 33"><path fill="#111827" fill-rule="evenodd" d="M3.842 15.16C3.842 8.167 9.509 2.5 16.5 2.5s12.658 5.667 12.658 12.658c0 4.337-2.18 8.165-5.509 10.448a1.51 1.51 0 0 0-.659 1.245v3.647h-3.115v-4.21a1 1 0 1 0-2 0v4.21h-2.75v-4.21a1 1 0 1 0-2 0v4.21h-2.883v-3.491c0-.52-.268-.988-.683-1.262A12.65 12.65 0 0 1 3.842 15.16M16.5.5C8.405.501 1.842 7.064 1.842 15.159c0 5.034 2.538 9.475 6.4 12.112V31a1.5 1.5 0 0 0 1.5 1.5h13.749a1.5 1.5 0 0 0 1.5-1.5v-3.89a14.64 14.64 0 0 0 6.167-11.95C31.158 7.064 24.596.501 16.5.501m-5.344 14.912a1.97 1.97 0 1 0 0 3.939 1.97 1.97 0 0 0 0-3.939m-3.97 1.97a3.97 3.97 0 1 1 7.939 0 3.97 3.97 0 0 1-7.939 0m14.659-1.97a1.97 1.97 0 1 0 0 3.938 1.97 1.97 0 0 0 0-3.938m-3.97 1.97a3.97 3.97 0 1 1 7.939 0 3.97 3.97 0 0 1-7.939 0" clip-rule="evenodd"/></svg>