<svg width="32" height="32" fill="none" xmlns="http://www.w3.org/2000/svg"><path d="M16 7a3 3 0 1 1 6 0v5a4 4 0 0 1-4 4h-1.94a.06.06 0 0 1-.06-.06V7ZM22 13a3 3 0 1 1 6 0 3 3 0 0 1-3 3h-2.97a.03.03 0 0 1-.03-.03V13ZM16 25a3 3 0 1 0 6 0 3 3 0 0 0-3-3h-2.97a.03.03 0 0 0-.03.03V25ZM10 19a3 3 0 1 1-6 0 3 3 0 0 1 3-3h2.97a.03.03 0 0 1 .03.03V19Z" stroke="#1C1B1F" stroke-width="2"/><path d="M16 7a3 3 0 1 0-6 0 3 3 0 0 0 3 3h2.97a.03.03 0 0 0 .03-.03V7ZM16 25a3 3 0 1 1-6 0v-5a4 4 0 0 1 4-4h1.94a.06.06 0 0 1 .06.06V25ZM25 16a3 3 0 1 1 0 6h-5a4 4 0 0 1-4-4v-1.94a.06.06 0 0 1 .06-.06H25ZM7 16a3 3 0 1 1 0-6h5a4 4 0 0 1 4 4v1.94a.06.06 0 0 1-.06.06H7Z" stroke="#1C1B1F" stroke-width="2"/></svg>