<svg xmlns="http://www.w3.org/2000/svg" width="33" height="33" fill="none" viewBox="0 0 33 33"><path fill="#111827" fill-rule="evenodd" d="M29.239 2.153a1 1 0 1 0-2 0V18.88a4.262 4.262 0 0 0 0 8.285v3.683a1 1 0 1 0 2 0v-3.683a4.262 4.262 0 0 0 0-8.286zm-3.261 20.868a2.26 2.26 0 0 1 2.243-2.26h.035a2.26 2.26 0 1 1-2.278 2.26M16.5 1.153a1 1 0 0 1 1 1v3.683a4.262 4.262 0 0 1 0 8.285v16.726a1 1 0 0 1-2 0V14.121a4.262 4.262 0 0 1 0-8.285V2.153a1 1 0 0 1 1-1m-.018 6.565a2.26 2.26 0 1 0 .036 0h-.036M3.762 21.947a4.262 4.262 0 0 1 0-8.285V2.153a1 1 0 0 1 2 0v11.509a4.262 4.262 0 0 1 0 8.285v8.9a1 1 0 1 1-2 0zm.99-6.403h.02a2.26 2.26 0 1 1-.02 0" clip-rule="evenodd"/></svg>