<svg xmlns="http://www.w3.org/2000/svg" width="33" height="33" fill="none" viewBox="0 0 33 33"><path fill="#111827" fill-rule="evenodd" d="M2.5 16.5c0-7.732 6.269-14 14-14 7.732 0 14 6.268 14 14 0 7.731-6.268 13.999-14 13.999-7.731 0-14-6.268-14-14m14-16C7.664.5.5 7.665.5 16.5s7.164 15.999 16 15.999 16-7.163 16-16c0-8.835-7.164-15.998-16-15.998m-6.25 20a1 1 0 1 0 0 2h12.5a1 1 0 1 0 0-2zm.625-5.25a1.875 1.875 0 1 0 0-3.75 1.875 1.875 0 0 0 0 3.75M24 13.375a1.875 1.875 0 1 1-3.75 0 1.875 1.875 0 0 1 3.75 0" clip-rule="evenodd"/></svg>