<svg xmlns="http://www.w3.org/2000/svg" width="35" height="35" fill="none" viewBox="0 0 35 35"><path fill="#111827" d="M11.5 16.167a2 2 0 1 0 0-4 2 2 0 0 0 0 4M23.5 16.167a2 2 0 1 0 0-4 2 2 0 0 0 0 4"/><path stroke="#111827" stroke-linecap="round" stroke-linejoin="round" stroke-width="2" d="M24.43 21.5a8.003 8.003 0 0 1-13.86 0"/><path stroke="#111827" stroke-miterlimit="10" stroke-width="2" d="M1.5 17.5c0 8.837 7.163 16 16 16 1.355 0 2.67-.168 3.927-.485a.5.5 0 0 0 .221-.124l11.1-10.743a.5.5 0 0 0 .13-.218c.405-1.407.622-2.893.622-4.43 0-8.837-7.163-16-16-16s-16 7.163-16 16Z"/></svg>