<svg xmlns="http://www.w3.org/2000/svg" width="32" height="33" fill="none"><path stroke="#1C1B1F" stroke-miterlimit="10" stroke-width="2" d="M16 28.5c6.627 0 12-5.373 12-12s-5.373-12-12-12-12 5.373-12 12 5.373 12 12 12Z"/><path fill="#1C1B1F" d="M11.5 15.5a1.5 1.5 0 1 0 0-3 1.5 1.5 0 0 0 0 3ZM20.5 15.5a1.5 1.5 0 1 0 0-3 1.5 1.5 0 0 0 0 3Z"/><path stroke="#1C1B1F" stroke-linecap="round" stroke-width="2" d="m10.01 22.125 1.884-2.456a.1.1 0 0 1 .16.001l1.768 2.35a.1.1 0 0 0 .158.003l1.857-2.36a.1.1 0 0 1 .157 0l1.9 2.362a.1.1 0 0 0 .159-.003l1.773-2.358a.1.1 0 0 1 .156-.005l2.113 2.466"/></svg>