<svg xmlns="http://www.w3.org/2000/svg" width="35" height="35" fill="none" viewBox="0 0 35 35"><path stroke="#111827" stroke-miterlimit="10" stroke-width="2" d="M17.5 33.5c8.837 0 16-7.163 16-16s-7.163-16-16-16-16 7.163-16 16 7.163 16 16 16Z"/><path fill="#111827" d="M11.5 16.167a2 2 0 1 0 0-4 2 2 0 0 0 0 4M23.5 16.167a2 2 0 1 0 0-4 2 2 0 0 0 0 4"/><path stroke="#111827" stroke-linecap="round" stroke-width="2" d="m9.513 25 2.54-3.309a.1.1 0 0 1 .158 0l2.41 3.205a.1.1 0 0 0 .16.002l2.528-3.213a.1.1 0 0 1 .157 0l2.587 3.215a.1.1 0 0 0 .158-.003l2.416-3.211a.1.1 0 0 1 .155-.005L25.627 25"/></svg>