<svg xmlns="http://www.w3.org/2000/svg" width="33" height="32" fill="none" viewBox="0 0 33 32"><g clip-path="url(#a)"><path fill="#111827" fill-rule="evenodd" d="M13.015.001a1 1 0 0 1 1.003.997l.026 9.296a1 1 0 0 1-1.523.855L4.756 6.385a1 1 0 0 1 1.046-1.704l6.237 3.826-.021-7.503A1 1 0 0 1 13.015 0Zm15.598 4.981a1 1 0 0 1-.362 1.367l-8.038 4.671a1 1 0 0 1-1.502-.89l.244-9.108a1 1 0 0 1 2 .054l-.196 7.315 6.487-3.77a1 1 0 0 1 1.367.361Zm-9.63 26.02a1 1 0 1 0 2-.006l-.022-7.503 6.237 3.827a1 1 0 0 0 1.046-1.705l-7.765-4.764a1 1 0 0 0-1.523.855l.026 9.296ZM4.386 27.018a1 1 0 0 1 .362-1.367l8.038-4.671a1 1 0 0 1 1.502.89l-.243 9.108a1 1 0 0 1-2-.054l.196-7.314-6.488 3.77a1 1 0 0 1-1.367-.362Zm-2.12-16.37a1 1 0 1 0-.995 1.736l6.509 3.733-6.433 3.488a1 1 0 0 0 .954 1.758l8.008-4.343a1 1 0 0 0 .021-1.746l-8.064-4.625Zm29.831.37a1 1 0 0 0-1.365-.37l-8.064 4.626a1 1 0 0 0 .021 1.746l8.009 4.343a1 1 0 1 0 .953-1.758l-6.433-3.488 6.51-3.733a1 1 0 0 0 .37-1.365Zm-19.328 4.35v1.415l2.892 2.892h1.414l2.892-2.892v-1.414l-2.892-2.893h-1.414l-2.893 2.893Zm3.599 2.186-1.478-1.478 1.478-1.478 1.478 1.478-1.478 1.478Z" clip-rule="evenodd"/></g><defs><clipPath id="a"><path fill="#fff" d="M.5 0h32v32H.5z"/></clipPath></defs></svg>