<svg xmlns="http://www.w3.org/2000/svg" width="33" height="33" fill="none"><path fill="#111827" fill-rule="evenodd" d="M11.712.828a1 1 0 0 1 1.414 0L16.5 4.202 19.874.828a1 1 0 1 1 1.414 1.414L17.5 6.031v8.736l7.562-4.368 1.39-5.178a1 1 0 1 1 1.931.518l-1.237 4.612 4.612 1.238a1 1 0 0 1-.518 1.931l-5.178-1.389L18.5 16.5l7.563 4.368 5.178-1.389a1 1 0 0 1 .518 1.932l-4.612 1.237 1.237 4.612a1 1 0 0 1-1.931.518l-1.39-5.178-7.562-4.368v8.737l3.788 3.789a1 1 0 1 1-1.414 1.414L16.5 28.798l-3.374 3.374a1 1 0 1 1-1.414-1.414l3.788-3.789v-8.737l-7.562 4.369-1.39 5.177a1 1 0 1 1-1.931-.518l1.237-4.612-4.612-1.237a1 1 0 0 1 .518-1.932l5.178 1.39 7.563-4.37-7.563-4.368-5.178 1.39a1 1 0 0 1-.518-1.932l4.612-1.238L4.617 5.74a1 1 0 1 1 1.931-.518l1.39 5.178 7.562 4.368V6.031l-3.788-3.789a1 1 0 0 1 0-1.414Z" clip-rule="evenodd"/></svg>