<svg xmlns="http://www.w3.org/2000/svg" width="33" height="33" fill="none" viewBox="0 0 33 33"><path fill="#111827" fill-rule="evenodd" d="M13.223 2.886A14 14 0 0 1 16.5 2.5c1.129 0 2.226.134 3.277.386L16.5 5.264zM3.053 25.175C5.904 29.582 10.862 32.5 16.5 32.5c1.393 0 2.744-.178 4.033-.513l.006-.002a16.03 16.03 0 0 0 9.473-6.913 15.9 15.9 0 0 0 2.455-7.543q.012-.084.01-.167.023-.429.023-.862c0-3.825-1.342-7.336-3.581-10.089a1 1 0 0 0-.108-.13A15.97 15.97 0 0 0 16.5.5 15.97 15.97 0 0 0 4.192 6.276q-.063.064-.114.138A15.93 15.93 0 0 0 .523 17.357q-.003.088.01.175a15.9 15.9 0 0 0 2.52 7.643M26.972 7.207a14 14 0 0 0-4.866-3.54L17.5 7.01v2.418l5.416 3.935 2.3-.747zm-1.137 7.311-2.3.747-2.068 6.368 1.42 1.957 5.69-.004a13.9 13.9 0 0 0 1.858-5.722zm4.624.89a13.9 13.9 0 0 0-2.024-6.23l-1.249 3.85zm-9.19 9.357-1.42-1.956h-6.696l-1.421 1.956 1.761 5.41c.97.213 1.975.325 3.008.325s2.039-.112 3.008-.324zm.582 4.676a14.04 14.04 0 0 0 5.3-3.854l-4.046.002zm-16-3.854a14.04 14.04 0 0 0 5.3 3.854l-1.254-3.852zm4.263-1.997 1.42-1.957-2.068-6.367-2.3-.748-4.6 3.346c.201 2.073.854 4.014 1.859 5.722zM4.566 9.178a13.9 13.9 0 0 0-2.024 6.23l3.272-2.38zm1.463-1.97 1.754 5.408 2.3.748L15.5 9.428V7.01l-4.605-3.343a14 14 0 0 0-4.866 3.54m7.34 13.601-1.935-5.955 5.066-3.68 5.065 3.68-1.935 5.955z" clip-rule="evenodd"/></svg>