<svg xmlns="http://www.w3.org/2000/svg" width="33" height="32" fill="none" viewBox="0 0 33 32"><path fill="#111827" fill-rule="evenodd" d="M1.502 2.291a1 1 0 1 0 0 2h30a1 1 0 1 0 0-2h-30Zm24.005 8.473a1 1 0 0 1 1 1v14.53l4.284-4.283a1 1 0 0 1 1.414 1.414l-5.983 5.983a1 1 0 0 1-1.422.008l-5.99-5.991a1 1 0 0 1 1.413-1.414l4.284 4.284V11.764a1 1 0 0 1 1-1ZM.502 14.588a1 1 0 0 1 1-1H14.21a1 1 0 1 1 0 2H1.502a1 1 0 0 1-1-1Zm0 11.296a1 1 0 0 1 1-1h9.884a1 1 0 1 1 0 2H1.502a1 1 0 0 1-1-1Z" clip-rule="evenodd"/></svg>