<svg xmlns="http://www.w3.org/2000/svg" width="33" height="33" fill="none" viewBox="0 0 33 33"><path fill="#111827" fill-rule="evenodd" d="M4.741 2.077a1 1 0 0 0-1.48 1.345l6.095 6.704H7.091a6.59 6.59 0 0 0 0 13.18h1.864l9.614 7.3a1 1 0 0 0 1.605-.797v-7.783l8.089 8.898a1 1 0 1 0 1.48-1.346L4.74 2.077Zm13.508 17.832-7.075-7.783H7.091a4.59 4.59 0 0 0 0 9.18h2.2a1 1 0 0 1 .605.204l8.277 6.284v-7.503c0-.135.028-.264.076-.382Zm9.25-7.16a1 1 0 1 0-2 0v7.501a1 1 0 1 0 2 0v-7.5Zm4-3.5a1 1 0 0 1 1 1V22.75a1 1 0 1 1-2 0v-12.5a1 1 0 0 1 1-1ZM20.174 3.193a1 1 0 0 0-1.627-.78l-4.94 3.967a1 1 0 0 0 1.252 1.56l3.315-2.662v7.506a1 1 0 0 0 2 0V3.192Z" clip-rule="evenodd"/></svg>