<svg xmlns="http://www.w3.org/2000/svg" width="33" height="33" fill="none" viewBox="0 0 33 33"><path fill="#111827" fill-rule="evenodd" d="M20.174 3.19a1 1 0 0 0-1.626-.779L8.94 10.126H7.09a6.59 6.59 0 0 0 0 13.18h1.864l9.615 7.3a1 1 0 0 0 1.604-.797zM7.091 21.308a4.59 4.59 0 1 1 0-9.181h2.2a1 1 0 0 0 .627-.22l8.256-6.63v22.518L9.896 21.51a1 1 0 0 0-.604-.203zM31.5 9.249a1 1 0 0 1 1 1v12.502a1 1 0 0 1-2 0V10.249a1 1 0 0 1 1-1m-5 2.5a1 1 0 0 1 1 1v7.501a1 1 0 1 1-2 0v-7.5a1 1 0 0 1 1-1" clip-rule="evenodd"/></svg>