<svg xmlns="http://www.w3.org/2000/svg" width="33" height="33" fill="none"><path fill="#111827" fill-rule="evenodd" d="M20.171 3.193a1 1 0 0 0-1.626-.78l-9.607 7.714H7.09a6.59 6.59 0 0 0 0 13.18h1.864l9.613 7.297a1 1 0 0 0 1.604-.797V3.193ZM7.091 21.306a4.59 4.59 0 0 1 0-9.18h.995v9.18H7.09Zm2.995.349 8.085 6.137V5.28l-8.085 6.491v9.885ZM29.252 8.623a1 1 0 1 0-1.415 1.414 9.086 9.086 0 0 1 0 12.852 1 1 0 0 0 1.415 1.414 11.088 11.088 0 0 0 0-15.68Zm-5.377 3.963a1 1 0 0 1 1.414 0 5.483 5.483 0 0 1 0 7.754 1 1 0 0 1-1.414-1.414 3.486 3.486 0 0 0 0-4.926 1 1 0 0 1 0-1.414Z" clip-rule="evenodd"/></svg>