<svg xmlns="http://www.w3.org/2000/svg" width="33" height="33" fill="none"><path fill="#111827" fill-rule="evenodd" d="M3.328 2.01a1 1 0 0 1 1.413.068l24.998 27.498a1 1 0 1 1-1.48 1.346l-8.088-8.897v7.782a1 1 0 0 1-1.604.796l-9.613-7.297H7.09a6.59 6.59 0 0 1 0-13.18h2.265L3.26 3.424a1 1 0 0 1 .067-1.412Zm6.758 10.117h1.087l7.074 7.781a.997.997 0 0 0-.076.382v7.502l-8.085-6.137v-9.528Zm-2 0H7.09a4.59 4.59 0 1 0 0 9.179h.996v-9.18Zm19.751-3.505a1 1 0 0 1 1.415 0 11.087 11.087 0 0 1 0 15.68 1 1 0 1 1-1.415-1.414 9.086 9.086 0 0 0 0-12.851 1 1 0 0 1 0-1.415Zm-3.962 3.963a1 1 0 0 1 1.414 0 5.48 5.48 0 0 1 0 7.755 1 1 0 0 1-1.414-1.414 3.486 3.486 0 0 0 0-4.926 1 1 0 0 1 0-1.415ZM20.17 3.193a1 1 0 0 0-1.626-.78l-4.94 3.967a1 1 0 1 0 1.252 1.56l3.314-2.662v7.505a1 1 0 1 0 2 0v-9.59Z" clip-rule="evenodd"/></svg>