<svg xmlns="http://www.w3.org/2000/svg" width="33" height="32" fill="none"><path fill="#111827" fill-rule="evenodd" d="M16.5 0a1 1 0 0 1 1 1v5a1 1 0 1 1-2 0V1a1 1 0 0 1 1-1Zm9 16a1 1 0 0 1 1-1h5a1 1 0 1 1 0 2h-5a1 1 0 0 1-1-1Zm-1.222 6.363a1 1 0 0 0-1.415 1.415l3.536 3.535a1 1 0 1 0 1.414-1.414l-3.535-3.536ZM16.5 25a1 1 0 0 1 1 1v5a1 1 0 1 1-2 0v-5a1 1 0 0 1 1-1Zm-6.364-1.221a1 1 0 0 0-1.414-1.415L5.187 25.9A1 1 0 1 0 6.6 27.313l3.535-3.535ZM.502 16a1 1 0 0 1 1-1h5a1 1 0 1 1 0 2h-5a1 1 0 0 1-1-1ZM6.6 4.687a1 1 0 0 0-1.414 1.414l3.535 3.536a1 1 0 0 0 1.415-1.415L6.6 4.687Z" clip-rule="evenodd"/></svg>