<svg xmlns="http://www.w3.org/2000/svg" width="33" height="33" fill="none" viewBox="0 0 33 33"><path stroke="#111827" stroke-linecap="round" stroke-linejoin="round" stroke-width="2" d="M15.9 17.1a1.2 1.2 0 0 1 1.2 1.2 2.4 2.4 0 0 1-2.4 2.4 3.587 3.587 0 0 1-3.6-3.6 4.8 4.8 0 0 1 4.8-4.8 6 6 0 0 1 6 6 7.2 7.2 0 0 1-7.2 7.2 8.4 8.4 0 0 1-8.4-8.4 9.615 9.615 0 0 1 9.6-9.6 10.8 10.8 0 0 1 10.8 10.8 12 12 0 0 1-12 12A13.2 13.2 0 0 1 1.5 17.1 14.4 14.4 0 0 1 15.9 2.7a15.6 15.6 0 0 1 15.6 15.6"/></svg>