<svg width="32" height="32" fill="none" xmlns="http://www.w3.org/2000/svg"><path d="M15.52 16.48a.96.96 0 0 1 .96.96 1.92 1.92 0 0 1-1.92 1.92 2.87 2.87 0 0 1-2.88-2.88 3.84 3.84 0 0 1 3.84-3.84 4.8 4.8 0 0 1 4.8 4.8 5.76 5.76 0 0 1-5.76 5.76 6.72 6.72 0 0 1-6.72-6.72 7.692 7.692 0 0 1 7.68-7.68 8.64 8.64 0 0 1 8.64 8.64 9.599 9.599 0 0 1-9.6 9.6A10.56 10.56 0 0 1 4 16.48 11.52 11.52 0 0 1 15.52 4.96 12.48 12.48 0 0 1 28 17.44" stroke="#1C1B1F" stroke-width="2" stroke-linecap="round" stroke-linejoin="round"/></svg>