<svg xmlns="http://www.w3.org/2000/svg" width="33" height="32" fill="none" viewBox="0 0 33 32"><path fill="#111827" fill-rule="evenodd" d="M16.5 0a1 1 0 0 1 1 1v1.864h.91a5.775 5.775 0 0 1 5.775 5.775 1 1 0 1 1-2 0 3.775 3.775 0 0 0-3.775-3.775h-.91v7.55h1.865a5.775 5.775 0 0 1 0 11.55H17.5v4.622l3.029-3.029a1 1 0 0 1 1.414 1.415l-4.732 4.731A.992.992 0 0 1 16.5 32a.996.996 0 0 1-.713-.299l-4.73-4.73a1 1 0 0 1 1.414-1.414l3.029 3.03v-4.624h-1.865a5.774 5.774 0 0 1-5.774-5.775 1 1 0 1 1 2 0 3.775 3.775 0 0 0 3.774 3.775H15.5v-7.55h-1.387a5.775 5.775 0 0 1 0-11.549H15.5V1a1 1 0 0 1 1-1Zm-2.387 4.864H15.5v7.55h-1.387a3.775 3.775 0 0 1 0-7.55Zm5.252 17.1H17.5v-7.55h1.865a3.775 3.775 0 0 1 0 7.55Z" clip-rule="evenodd"/></svg>