<svg xmlns="http://www.w3.org/2000/svg" width="33" height="32" fill="none" viewBox="0 0 33 32"><path fill="#111827" fill-rule="evenodd" d="M.501 1a1 1 0 0 1 1-1h29.998a1 1 0 0 1 1 1v30a1 1 0 0 1-1 1H1.501a1 1 0 0 1-1-1zm2 1v28h27.998V2zM17.5 7.945q.49-.06 1-.06h3.117a1 1 0 1 1 0 2H18.5q-.51 0-.999.08v12.071q.488.081 1 .082h3.117a1 1 0 1 1 0 2H18.5q-.508 0-.999-.061v2.424a1 1 0 1 1-2 0v-2.936a8.12 8.12 0 0 1 0-15.088V5.52a1 1 0 1 1 2 0zm-2 2.724A6.12 6.12 0 0 0 12.383 16a6.12 6.12 0 0 0 3.117 5.332z" clip-rule="evenodd"/></svg>