<svg xmlns="http://www.w3.org/2000/svg" width="33" height="32" fill="none"><path fill="#111827" fill-rule="evenodd" d="M1.501 0a1 1 0 0 0-1 1v12a1 1 0 0 0 1 1h12a1 1 0 0 0 1-1V1a1 1 0 0 0-1-1h-12Zm1 12V2h10v10h-10Zm-1 6a1 1 0 0 0-1 1v12a1 1 0 0 0 1 1h12a1 1 0 0 0 1-1V19a1 1 0 0 0-1-1h-12Zm1 12V20h10v10h-10ZM18.5 1a1 1 0 0 1 1-1h12a1 1 0 0 1 1 1v12a1 1 0 0 1-1 1h-12a1 1 0 0 1-1-1V1Zm2 1v10h10V2h-10Zm-1 16a1 1 0 0 0-1 1v12a1 1 0 0 0 1 1h12a1 1 0 0 0 1-1V19a1 1 0 0 0-1-1h-12Zm1 12V20h10v10h-10Z" clip-rule="evenodd"/></svg>