<svg xmlns="http://www.w3.org/2000/svg" width="33" height="32" fill="none" viewBox="0 0 33 32"><path fill="#111827" fill-rule="evenodd" d="M19.017.294a1 1 0 0 1 1.415 0l9.2 9.201a1 1 0 0 1-1.413 1.414l-9.202-9.201a1 1 0 0 1 0-1.414m-4.085 6.713a1 1 0 0 0-1 1.732l11.286 6.515a1 1 0 0 0 1-1.732zm-4.773 8.62a1 1 0 0 1 1.225-.707l12.573 3.371a1 1 0 1 1-.518 1.932l-12.573-3.371a1 1 0 0 1-.707-1.225m-1.174 8.858a1 1 0 0 1 1-1h13.029a1 1 0 1 1 0 2H9.985a1 1 0 0 1-1-1m-4.514-2.606a1 1 0 1 0-2 0V31a1 1 0 0 0 1 1H29.53a1 1 0 0 0 1-1v-9.12a1 1 0 0 0-2 0V30H4.47z" clip-rule="evenodd"/></svg>