<svg xmlns="http://www.w3.org/2000/svg" width="33" height="32" fill="none"><path fill="#111827" fill-rule="evenodd" d="M16.012.128a1 1 0 0 1 .976 0l12.793 7.159a1 1 0 0 1 .023 1.732l-12.793 7.613a1 1 0 0 1-1.023 0L3.196 9.019a1 1 0 0 1 .023-1.732L16.012.128ZM5.707 8.186 16.5 14.61l10.793-6.423L16.5 2.146 5.707 8.187Zm-2.86 7.075a1 1 0 0 1 1.371-.348l12.282 7.31 12.281-7.31a1 1 0 0 1 1.023 1.719l-12.793 7.613a1 1 0 0 1-1.023 0L3.196 16.632a1 1 0 0 1-.348-1.37Zm1.371 7.265a1 1 0 0 0-1.022 1.72l12.792 7.612a1 1 0 0 0 1.023 0l12.793-7.613a1 1 0 1 0-1.023-1.719L16.5 29.836l-12.282-7.31Z" clip-rule="evenodd"/></svg>