<svg xmlns="http://www.w3.org/2000/svg" width="33" height="33" fill="none"><path fill="#111827" fill-rule="evenodd" d="M12.233 4.674a2 2 0 0 1 1.955-2.423h5.194a2 2 0 0 1 1.936 2.501l-3.123 12.056h-3.333L12.233 4.674Zm1.801 14.134h14.907v6.553H4.059v-6.553h9.976Zm-1.218-2-2.538-11.71A4 4 0 0 1 14.188.25h5.194c2.617 0 4.528 2.47 3.872 5.003l-2.993 11.554h9.68a1 1 0 0 1 1 1v8.553a1 1 0 0 1-1 1H3.059a1 1 0 0 1-1-1v-8.553a1 1 0 0 1 1-1h9.757ZM2.059 31.249a1 1 0 0 1 1-1H29.94a1 1 0 1 1 0 2H3.059a1 1 0 0 1-1-1Z" clip-rule="evenodd"/></svg>