<svg xmlns="http://www.w3.org/2000/svg" width="33" height="32" fill="none" viewBox="0 0 33 32"><path fill="#111827" fill-rule="evenodd" d="m11.286 13.132 4.276-7.7v17.467l-6.454 4.689 2.575-7.925a1 1 0 0 0-.363-1.118l-6.742-4.898h5.834a1 1 0 0 0 .874-.515ZM16.5 24.69l-8.706 6.325a1 1 0 0 1-1.539-1.118l3.302-10.161-8.644-6.28a1 1 0 0 1 .588-1.81h8.322l5.74-10.337A1 1 0 0 1 16.5.796a1 1 0 0 1 .946.53l1.497 2.696a1 1 0 0 1-1.381 1.348v17.62l1.896 1.377a1 1 0 0 1-1.176 1.618L16.5 24.69Zm5.456-15.242a1 1 0 1 0-1.749.97l1.507 2.714a1 1 0 0 0 .874.515h2.228a1 1 0 1 0 0-2h-1.64l-1.22-2.199Zm7.315 2.199a1 1 0 0 0-.587 1.809l-.08.058a1 1 0 0 0 1.175 1.618l2.308-1.676a1 1 0 0 0-.588-1.81H29.27Zm-4.108 6.839a1 1 0 0 0-1.176-1.618l-2.307 1.677a1 1 0 0 0-.364 1.118l.882 2.713a1 1 0 1 0 1.902-.618l-.657-2.022 1.72-1.25Zm.7 8.698a1 1 0 0 0-1.942.445 1 1 0 0 0-1.023 1.71l2.308 1.676a1 1 0 0 0 1.538-1.118l-.881-2.713Z" clip-rule="evenodd"/></svg>