<svg xmlns="http://www.w3.org/2000/svg" width="33" height="33" fill="none" viewBox="0 0 33 33"><path fill="#111827" fill-rule="evenodd" d="m4.554 4.002.004-.006a2.53 2.53 0 0 1 1.746-.7h20.391a2.53 2.53 0 0 1 1.747.7l.003.006q.04.07.11.24c.093.226.202.537.321.92.239.76.501 1.738.746 2.736.244.997.467 2 .629 2.808.08.404.145.754.188 1.026q.033.205.048.334c.01.09.012.128.012.13v1.961c0 2.269-1.86 4.14-4.078 4.098a4 4 0 0 1-3.921-4 1 1 0 1 0-2 0 4 4 0 0 1-8 0 1 1 0 1 0-2 0 4 4 0 0 1-3.921 4c-2.219.042-4.078-1.83-4.078-4.098v-1.96c0-.003.001-.04.012-.13q.014-.13.047-.335c.044-.272.108-.622.189-1.026a70 70 0 0 1 .629-2.808c.244-.998.507-1.975.745-2.736.12-.383.229-.694.322-.92q.07-.17.11-.24m23.872-.034.002.004zm-6.21 14.489a6 6 0 0 1-.716-.885q-.33.497-.758.926a6 6 0 0 1-9.242-.926 6 6 0 0 1-4.883 2.682 5.9 5.9 0 0 1-1.839-.257v9.707h23.443v-9.707c-.58.178-1.197.27-1.838.257a6 6 0 0 1-4.167-1.797m7.961.504a6.16 6.16 0 0 0 2.322-4.804v-1.96c0-.208-.04-.498-.085-.78a30 30 0 0 0-.202-1.104 72 72 0 0 0-.648-2.89 49 49 0 0 0-.78-2.86c-.127-.407-.255-.78-.379-1.08a5 5 0 0 0-.199-.43 1.9 1.9 0 0 0-.308-.43 4.53 4.53 0 0 0-3.203-1.327H6.305a4.53 4.53 0 0 0-3.203 1.326 1.9 1.9 0 0 0-.308.431c-.071.132-.138.279-.2.43a14 14 0 0 0-.38 1.08c-.256.818-.529 1.84-.779 2.86a72 72 0 0 0-.647 2.89c-.084.42-.154.797-.203 1.103a5.6 5.6 0 0 0-.084.781v1.96c0 1.923.906 3.676 2.321 4.804a1 1 0 0 0-.044.294v11.45a1 1 0 0 0 1 1h25.443a1 1 0 0 0 1-1v-11.45q0-.154-.044-.294M4.571 3.972l.003-.004z" clip-rule="evenodd"/></svg>