<svg xmlns="http://www.w3.org/2000/svg" width="33" height="32" fill="none"><path fill="#111827" fill-rule="evenodd" d="M16.807.05a1 1 0 0 0-.615 0L1.193 4.894a1 1 0 0 0-.017 1.898l.683.234V18.5a1 1 0 1 0 2 0V7.714l5.874 2.019a8.729 8.729 0 0 0-2.149 5.746 8.754 8.754 0 0 0 4.058 7.393c-5.553 1.546-7.66 5.567-7.946 8.01a1 1 0 1 0 1.987.233c.236-2.02 2.544-6.739 10.618-6.873 4.064-.068 6.648 1.14 8.245 2.576 1.62 1.458 2.29 3.208 2.423 4.302a1 1 0 0 0 1.985-.242c-.189-1.552-1.075-3.751-3.07-5.547-1.186-1.066-2.744-1.972-4.74-2.522a8.752 8.752 0 0 0 3.96-7.33c0-2.16-.782-4.137-2.077-5.664l8.797-3.022a1 1 0 0 0-.018-1.898L16.807.05ZM9.584 15.48a6.74 6.74 0 0 1 2.241-5.028l4.35 1.494a1 1 0 0 0 .65 0l4.123-1.417a6.76 6.76 0 1 1-11.364 4.95ZM16.5 9.942 4.663 5.876 16.5 2.052l11.837 3.824L16.5 9.943Z" clip-rule="evenodd"/></svg>