<svg xmlns="http://www.w3.org/2000/svg" width="33" height="33" fill="none" viewBox="0 0 33 33"><path fill="#111827" fill-rule="evenodd" d="M16.5.5a1 1 0 0 1 1 1v1.2a1 1 0 0 1-2 0V1.5a1 1 0 0 1 1-1m0 8a8 8 0 1 0 0 16 8 8 0 0 0 0-16m-10 8c0-5.523 4.477-10 10-10s10 4.477 10 10-4.477 10-10 10-10-4.478-10-10m.103-11.311a1 1 0 0 0-1.414 1.414l.839.839a1 1 0 0 0 1.414-1.414zM.5 16.499a1 1 0 0 1 1-1h1.2a1 1 0 1 1 0 2H1.5a1 1 0 0 1-1-1m6.94 10.473a1 1 0 0 0-1.413-1.415l-.84.84a1 1 0 1 0 1.415 1.414zm9.059 2.327a1 1 0 0 1 1 1v1.2a1 1 0 0 1-2 0v-1.2a1 1 0 0 1 1-1m10.471-3.742a1 1 0 0 0-1.414 1.415l.84.839a1 1 0 1 0 1.414-1.415zM29.3 16.5a1 1 0 0 1 1-1h1.2a1 1 0 0 1 0 2h-1.2a1 1 0 0 1-1-1m-1.488-9.897a1 1 0 0 0-1.415-1.414l-.839.839a1 1 0 1 0 1.415 1.414z" clip-rule="evenodd"/></svg>