<svg xmlns="http://www.w3.org/2000/svg" width="32" height="32" fill="none"><path stroke="#1C1B1F" stroke-linecap="round" stroke-linejoin="round" stroke-width="2" d="M28 18H4M21 18l5.925 5.925M6 18l5.925 5.925"/><path stroke="#1C1B1F" stroke-linecap="round" stroke-width="2" d="M9.117 6.5H9a5 5 0 0 0-5 5v9.675M22.883 6.5H23a5 5 0 0 1 5 5v9.675"/><path stroke="#1C1B1F" stroke-width="2" d="M4 18.357c0-.197.16-.357.357-.357h8.286c.197 0 .357.16.357.357V21a4.5 4.5 0 1 1-9 0v-2.643ZM19 18.357c0-.197.16-.357.357-.357h8.286c.197 0 .357.16.357.357V21a4.5 4.5 0 1 1-9 0v-2.643Z"/></svg>