<svg xmlns="http://www.w3.org/2000/svg" width="33" height="33" fill="none"><path fill="#111827" fill-rule="evenodd" d="M10.37 4.897a1 1 0 0 1 1.308.539l1.031 2.477a1 1 0 0 1-1.846.769L9.832 6.204a1 1 0 0 1 .539-1.307ZM1.717 13.55a1 1 0 0 1 1.307-.539l2.478 1.031a1 1 0 1 1-.769 1.847l-2.477-1.031a1 1 0 0 1-.539-1.308Zm29.029 1.308a1 1 0 1 0-.768-1.847l-2.478 1.031a1 1 0 1 0 .768 1.847l2.478-1.031Zm-8.116-9.962a1 1 0 0 1 .54 1.307l-1.032 2.478a1 1 0 1 1-1.846-.769l1.03-2.477a1 1 0 0 1 1.308-.54ZM1.501 20.823a1 1 0 0 0 0 2H31.5a1 1 0 1 0 0-2H25.46a9.038 9.038 0 0 0-4.945-9.25 9.036 9.036 0 0 0-12.977 9.25H1.501Zm8.06 0a7.035 7.035 0 1 1 13.879 0H9.56ZM4.785 27.18a1 1 0 0 1 1-1h21.428a1 1 0 1 1 0 2H5.786a1 1 0 0 1-1-1Z" clip-rule="evenodd"/></svg>