<svg xmlns="http://www.w3.org/2000/svg" width="33" height="32" fill="none" viewBox="0 0 33 32"><path stroke="#111827" stroke-width="2" d="m8.3 7.798 9.023-5.758c5.927-3.548 12.752 2.657 10.291 8.438-1.461-1.162-3.09-1.875-4.327-2.197.47-1.868-1.697-3.253-3.206-2.288L11.04 11.73c-2.235 1.546.148 4.724 2.358 3.39l3.446-2.196c7.732-4.364 15.051 6.114 7.858 11.248L15.68 29.93c-5.437 3.476-12.837-2.093-10.292-8.437 1.352 1.023 2.788 1.776 4.327 2.196-.34 2.145 1.825 3.188 3.229 2.308l9.02-5.757c2.225-1.67-.164-4.69-2.355-3.39l-3.46 2.196C8.506 23.514 1.017 12.933 8.3 7.798Z"/></svg>