<svg xmlns="http://www.w3.org/2000/svg" width="33" height="32" fill="none"><g clip-path="url(#a)"><path stroke="#111827" stroke-width="2" d="M27.63 14.431c5.14-8.292-5.165-16.836-12.488-12.05L8.177 6.82c-3.372 2.196-4.837 6.416-2.78 10.753-5.142 7.8 4.864 16.936 12.487 12.057l6.965-4.44c3.79-2.496 4.659-6.799 2.78-10.76ZM10.191 9.692l6.955-4.438c4.569-2.735 9.83 2.048 7.933 6.504-1.127-.895-2.382-1.446-3.336-1.693.363-1.44-1.308-2.508-2.47-1.764l-6.97 4.422c-1.724 1.191.114 3.641 1.817 2.613l2.656-1.693c5.96-3.363 11.601 4.713 6.057 8.67l-6.954 4.439c-4.191 2.68-9.895-1.614-7.933-6.504 1.042.789 2.149 1.369 3.335 1.693a1.665 1.665 0 0 0 2.489 1.78l6.952-4.439c1.716-1.286-.126-3.614-1.815-2.613l-2.666 1.693c-5.892 3.444-11.664-4.712-6.05-8.67Z"/></g><defs><clipPath id="a"><path fill="#fff" d="M.5 0h32v32H.5z"/></clipPath></defs></svg>