<svg xmlns="http://www.w3.org/2000/svg" width="33" height="32" fill="none" viewBox="0 0 33 32"><path fill="#111827" fill-rule="evenodd" d="M1.5.001a1 1 0 0 0-1 1v24.924A6.074 6.074 0 0 0 6.576 32h24.924a1 1 0 0 0 1-1V20.851a1 1 0 0 0-1-1h-6.513l5.416-3.928a1 1 0 0 0 .222-1.397l-5.959-8.214a1 1 0 0 0-1.396-.222l-10.62 7.704V1a1 1 0 0 0-1-1H1.5ZM12.65 16.265v9.66c0 .14-.005.278-.014.415l15.783-11.449-4.784-6.595-10.986 7.969Zm-2.857 12.16-.01.013a4.074 4.074 0 0 1-7.28-2.513V2.001h8.147v23.924c0 .942-.32 1.81-.857 2.5Zm1.474 1.358 1.025-.723.011-.008 9.927-7.2h8.27v8.147h-19.42c.065-.07.127-.143.187-.216Zm-2.764-4.567a1.928 1.928 0 1 1-3.855 0 1.928 1.928 0 0 1 3.855 0Z" clip-rule="evenodd"/></svg>