<svg xmlns="http://www.w3.org/2000/svg" width="33" height="32" fill="none" viewBox="0 0 33 32"><path fill="#111827" fill-rule="evenodd" d="M32.206.402a1 1 0 0 1 .291.765l-.569 9.778a1 1 0 0 1-.342.697l-12.452 10.83 2.425 2.424a1 1 0 0 1 0 1.415l-4.196 4.195a1 1 0 0 1-1.414 0l-4.237-4.237-5.33 5.33a1 1 0 0 1-1.414 0L.794 27.423a1 1 0 0 1 0-1.415l5.329-5.329-3.64-3.64a1 1 0 0 1 0-1.414l4.195-4.196a1 1 0 0 1 1.415 0l2.043 2.043 10.83-12.452a1 1 0 0 1 .696-.342L31.441.11a1 1 0 0 1 .765.292Zm-10.008 2.25L11.571 14.87l2.168 2.167 8.687-8.687a1 1 0 1 1 1.415 1.414l-8.688 8.688 2.584 2.584 12.22-10.628.478-8.237-8.236.48ZM8.244 19.973l-3.64-3.64 2.781-2.781 12.052 12.052-2.781 2.781-4.237-4.237a1 1 0 0 0-1.415 0l-5.329 5.329-2.76-2.76 5.329-5.33a1 1 0 0 0 0-1.414Z" clip-rule="evenodd"/></svg>