<svg xmlns="http://www.w3.org/2000/svg" width="33" height="32" fill="none" viewBox="0 0 33 32"><path fill="#111827" fill-rule="evenodd" d="M23.921.372a1 1 0 0 1 1.415 0l6.87 6.87a1 1 0 0 1-1.414 1.414l-2.728-2.728-4.303 4.303 3.126 3.127a1 1 0 0 1 .1.115l1.784 1.785a1 1 0 0 1-1.414 1.414l-1.185-1.185-12.897 12.897a1 1 0 0 1-.732.293l-7.204-.18-3.13 3.131a1 1 0 0 1-1.415-1.414l3.12-3.12-.18-7.225a1 1 0 0 1 .293-.732l4.05-4.05a1 1 0 0 1 .216-.215l3.79-3.792a1 1 0 0 1 .218-.216l4.624-4.624-1.019-1.019a1 1 0 0 1 1.414-1.414l1.619 1.618q.06.045.115.1l3.292 3.292 4.304-4.303-2.729-2.728a1 1 0 0 1 0-1.414M18.34 7.654l-4.025 4.025 3.006 3.006a1 1 0 0 1-1.414 1.414l-3.007-3.006-2.593 2.594 3.006 3.006a1 1 0 1 1-1.414 1.414l-3.006-3.006-3.147 3.147.156 6.263 6.263.156 12.594-12.594-3.113-3.113-.014-.014-.013-.013z" clip-rule="evenodd"/></svg>