<svg xmlns="http://www.w3.org/2000/svg" width="33" height="32" fill="none" viewBox="0 0 33 32"><path fill="#111827" fill-rule="evenodd" d="M13.837.835a1 1 0 0 0-.92.61l-1.756 4.15H8.895a1 1 0 0 0-.866.499l-5.499 9.5H1.5a1 1 0 1 0 0 2h1.144v12.571a1 1 0 0 0 1 1h5.892a1 1 0 0 0 1-1v-4.357h11.928v4.357a1 1 0 0 0 1 1h5.892a1 1 0 0 0 1-1V17.594H31.5a1 1 0 1 0 0-2h-1.03l-5.498-9.5a1 1 0 0 0-.866-.5H21.84l-1.755-4.148a1 1 0 0 0-.921-.61zm14.52 24.973h-3.893v3.357h3.892zM4.643 29.165v-3.357h3.892v3.357zm8.689-23.57 1.167-2.76h4l1.167 2.76zm10.196 2 4.592 7.934H4.879L9.47 7.595zm-18.885 10v6.213h23.712v-6.214zm2.106 3.073a1 1 0 0 1 1-1h2.5a1 1 0 1 1 0 2h-2.5a1 1 0 0 1-1-1m16-1a1 1 0 0 0 0 2h2.5a1 1 0 1 0 0-2z" clip-rule="evenodd"/></svg>