<svg xmlns="http://www.w3.org/2000/svg" width="33" height="32" fill="none" viewBox="0 0 33 32"><path fill="#111827" fill-rule="evenodd" d="M16.465 0C7.657.02.52 7.158.501 15.966a1.02 1.02 0 0 0 0 .035c0 8.836 7.163 15.999 16 15.999 8.835 0 15.998-7.163 15.998-16C32.5 7.165 25.336.002 16.5.002h-.035ZM2.532 16.94A15.999 15.999 0 0 0 17.439 2.032c6.983.462 12.567 6.045 13.03 13.029A16 16 0 0 0 15.56 29.968c-6.983-.463-12.567-6.046-13.029-13.03Zm.009-2.006A14 14 0 0 0 15.433 2.041C8.553 2.559 3.06 8.052 2.541 14.933ZM17.567 29.96c6.88-.518 12.374-6.011 12.892-12.893A13.999 13.999 0 0 0 17.567 29.96Z" clip-rule="evenodd"/></svg>