<svg xmlns="http://www.w3.org/2000/svg" width="33" height="33" fill="none" viewBox="0 0 33 33"><path fill="#111827" fill-rule="evenodd" d="M16.465.5C7.657.52.52 7.658.501 16.466v.035c0 8.836 7.163 15.999 16 15.999 8.835 0 15.998-7.163 15.998-16C32.5 7.665 25.336.502 16.5.502zM2.532 17.44A16 16 0 0 0 17.439 2.532c6.983.462 12.567 6.045 13.03 13.029A16 16 0 0 0 15.56 30.468c-6.983-.463-12.567-6.046-13.029-13.03m.009-2.006A14 14 0 0 0 15.433 2.541C8.553 3.059 3.06 8.552 2.541 15.433M17.567 30.46c6.88-.518 12.374-6.011 12.892-12.893A14 14 0 0 0 17.567 30.46" clip-rule="evenodd"/></svg>