<svg xmlns="http://www.w3.org/2000/svg" width="33" height="32" fill="none" viewBox="0 0 33 32"><g clip-path="url(#a)"><path fill="#111827" fill-rule="evenodd" d="M15.885 1.717V-.002l-1.495.85L2.178 7.796l-.505.288V16.76l1.505-.881 5.822-3.407v15.551l.5.289 4.886 2.823 1.5.867V1.717ZM3.672 13.272V9.247l10.213-5.81v25.1l-2.886-1.668V8.984l-1.505.88-5.822 3.408ZM18.609.848l-1.494-.85v32.004l1.5-.867 4.885-2.823.5-.289V21.14l2.194 1.259 1.515.868-.018-1.746-.054-5.482-.006-.568-.49-.286L24 13.356v-.884l5.822 3.407 1.505.88V8.085l-.505-.288L18.609.848Zm.506 27.689v-25.1l10.213 5.81v4.025l-5.823-3.407L22 8.985v5.521l.497.289 3.146 1.831.031 3.168-2.176-1.248-1.498-.86v9.183l-2.885 1.668Z" clip-rule="evenodd"/></g><defs><clipPath id="a"><path fill="#fff" d="M.5 0h32v32H.5z"/></clipPath></defs></svg>