<svg xmlns="http://www.w3.org/2000/svg" width="33" height="32" fill="none" viewBox="0 0 33 32"><path fill="#111827" fill-rule="evenodd" d="M16.5 7c-3.568 0-5.61 2.015-5.61 4v.008c-.003.233.033.465.104.687a1 1 0 0 1-1.904.612 4.185 4.185 0 0 1-.2-1.31C8.891 7.46 12.336 5 16.5 5c3.237 0 5.967 1.447 7.09 3.752a1 1 0 1 1-1.799.875C21.096 8.2 19.207 7.001 16.5 7.001Zm-12 9a1 1 0 0 1 1-1H27.5a1 1 0 1 1 0 2h-5.012c1.193.916 2.013 2.201 2.013 4 0 1.787-1.016 3.31-2.47 4.349-1.454 1.039-3.413 1.65-5.53 1.65-2.117 0-4.076-.611-5.53-1.65-1.454-1.038-2.47-2.562-2.47-4.35a1 1 0 0 1 2 0c0 .975.551 1.95 1.632 2.722C13.21 24.491 14.752 25 16.5 25c1.748 0 3.29-.507 4.368-1.278C21.948 22.95 22.5 21.974 22.5 21c0-1.111-.476-1.862-1.317-2.478-.87-.636-2.093-1.096-3.526-1.522H5.5a1 1 0 0 1-1-1Z" clip-rule="evenodd"/></svg>