<svg xmlns="http://www.w3.org/2000/svg" width="33" height="32" fill="none" viewBox="0 0 33 32"><path fill="#111827" fill-rule="evenodd" d="m15.508 17.196-3.177-5.911-3.15 5.91h6.327Zm2.497.421-4.354-8.102c-.567-1.056-2.082-1.053-2.645.005L4.618 21.506a1 1 0 0 0 1.765.94l1.733-3.25h8.467l1.748 3.253a1 1 0 0 0 1.762-.946l-1.97-3.667a.995.995 0 0 0-.118-.218Zm3.169-4.09a1 1 0 0 1 1-1h2.325a4 4 0 0 1 4 4v5.748a1 1 0 0 1-1.898.44c-.636.36-1.38.56-2.145.56-2.103 0-4.043-1.518-4.043-3.662s1.94-3.663 4.043-3.663c.724 0 1.43.18 2.042.504a2 2 0 0 0-1.999-1.927h-2.325a1 1 0 0 1-1-1Zm1.24 6.086c0-.797.784-1.663 2.042-1.663 1.258 0 2.043.866 2.043 1.663s-.785 1.662-2.043 1.662-2.043-.865-2.043-1.662Z" clip-rule="evenodd"/></svg>