<svg xmlns="http://www.w3.org/2000/svg" width="33" height="32" fill="none" viewBox="0 0 33 32"><path fill="#111827" fill-rule="evenodd" d="M6.5 7.69a1 1 0 1 0-2 0v13.199a1 1 0 1 0 2 0v-5.6h9.44v5.6a1 1 0 0 0 2 0V7.688a1 1 0 1 0-2 0v5.6H6.5v-5.6Zm15.72 4.718a1 1 0 1 0 0 2h3.374l-2.343 3.397a1 1 0 0 0 .823 1.568c.565 0 1.2.236 1.691.64.49.405.734.887.734 1.329a1.969 1.969 0 0 1-3.502 1.235 1 1 0 1 0-1.556 1.256 3.969 3.969 0 0 0 7.058-2.492c0-1.197-.649-2.2-1.461-2.87a4.915 4.915 0 0 0-1.29-.764l2.574-3.73a1 1 0 0 0-.823-1.569h-5.28Z" clip-rule="evenodd"/></svg>