<svg xmlns="http://www.w3.org/2000/svg" width="33" height="32" fill="none" viewBox="0 0 33 32"><path fill="#111827" fill-rule="evenodd" d="M6.5 8.08a1 1 0 1 0-2 0v13.2a1 1 0 1 0 2 0v-5.6h9.44v5.6a1 1 0 1 0 2 0V8.08a1 1 0 1 0-2 0v5.6H6.5zm16.567 7.19a1.858 1.858 0 0 1 3.433.986c0 .215-.021.333-.178.601l-.006.008c-.019.027-.085.122-.221.308-.15.203-.35.473-.588.789-.475.631-1.087 1.436-1.691 2.229a1126 1126 0 0 1-2.186 2.855l-.15.195-.04.052-.01.013-.002.003-.001.001.793.61-.793-.61a1 1 0 0 0 .793 1.61h5.28a1 1 0 0 0 0-2h-3.253l1.159-1.516c.606-.794 1.22-1.603 1.7-2.24.238-.318.446-.596.601-.808.137-.187.277-.38.34-.488.331-.564.453-1.03.453-1.612a3.858 3.858 0 0 0-7.127-2.05 1 1 0 0 0 1.694 1.064" clip-rule="evenodd"/></svg>