<svg xmlns="http://www.w3.org/2000/svg" width="33" height="33" fill="none" viewBox="0 0 33 33"><path fill="#111827" fill-rule="evenodd" d="M12.575 2.5c-1.68 0-2.895 1.233-2.895 2.58v13.158a1 1 0 0 1-.452.923 6.165 6.165 0 1 0 6.708 0 .999.999 0 0 1-.466-.846V5.078c0-1.346-1.214-2.578-2.895-2.578Zm4.895 15.294V5.079c0-2.607-2.273-4.578-4.895-4.578C9.953.5 7.68 2.472 7.68 5.079v12.726a8.165 8.165 0 1 0 9.79-.01Zm7.434-9.026a1.679 1.679 0 1 0 0 3.357 1.679 1.679 0 0 0 0-3.357Zm-3.679 1.679a3.679 3.679 0 1 1 7.357 0 3.679 3.679 0 0 1-7.357 0Zm-8.643 12.785a1.679 1.679 0 1 0 0 3.357 1.679 1.679 0 0 0 0-3.357Zm1-1.862v-9.852a1 1 0 0 0-2 0v9.852a3.68 3.68 0 0 0 1 7.22 3.679 3.679 0 0 0 1-7.22Z" clip-rule="evenodd"/></svg>