<svg xmlns="http://www.w3.org/2000/svg" width="33" height="33" fill="none"><path fill="#111827" fill-rule="evenodd" d="M11.879 2.5c-1.68 0-2.895 1.233-2.895 2.58v13.158a1 1 0 0 1-.452.923 6.165 6.165 0 1 0 6.708 0 .999.999 0 0 1-.466-.846V5.078c0-1.346-1.215-2.578-2.895-2.578Zm4.895 15.294V5.079c0-2.607-2.273-4.578-4.895-4.578-2.622 0-4.895 1.971-4.895 4.578v12.726a8.165 8.165 0 1 0 9.79-.01Zm8.433-12.008a1 1 0 1 0-2 0v2.909l-2.762-.9a1 1 0 1 0-.619 1.902l2.764.9-1.71 2.356a1 1 0 1 0 1.619 1.175l1.708-2.354 1.709 2.354a1 1 0 0 0 1.618-1.175l-1.71-2.356 2.764-.9a1 1 0 0 0-.62-1.902l-2.76.9V5.786ZM11.886 14.43a1 1 0 0 1 1 1v5.566a3.68 3.68 0 0 1-1 7.22 3.679 3.679 0 0 1-1-7.22V15.43a1 1 0 0 1 1-1Zm0 8.429a1.679 1.679 0 1 0 0 3.357 1.679 1.679 0 0 0 0-3.357Z" clip-rule="evenodd"/></svg>