<svg xmlns="http://www.w3.org/2000/svg" width="33" height="33" fill="none" viewBox="0 0 33 33"><path fill="#111827" fill-rule="evenodd" d="M16.493 2.5c-1.68 0-2.895 1.233-2.895 2.58v13.158a1 1 0 0 1-.452.923 6.165 6.165 0 1 0 6.708 0 .999.999 0 0 1-.466-.846V5.078c0-1.346-1.215-2.578-2.895-2.578Zm4.895 15.294V5.079c0-2.607-2.273-4.578-4.895-4.578-2.622 0-4.895 1.971-4.895 4.578v12.726a8.165 8.165 0 1 0 9.79-.01Zm-3.888-6.65a1 1 0 1 0-2 0v9.851a3.68 3.68 0 0 0 1 7.22 3.678 3.678 0 0 0 1-7.22v-9.852Zm-2.678 13.392a1.679 1.679 0 1 1 3.357 0 1.679 1.679 0 0 1-3.357 0Z" clip-rule="evenodd"/></svg>