<svg xmlns="http://www.w3.org/2000/svg" width="33" height="33" fill="none" viewBox="0 0 33 33"><path fill="#111827" fill-rule="evenodd" d="M12.02 2.5c-1.68 0-2.896 1.233-2.896 2.58v13.158a1 1 0 0 1-.451.923 6.165 6.165 0 1 0 6.708 0l-.047-.032a1 1 0 0 1-.42-.815V5.08c0-1.346-1.214-2.578-2.894-2.578m4.895 15.294V5.079c0-2.607-2.273-4.578-4.895-4.578S7.124 2.472 7.124 5.079v12.726a8.165 8.165 0 1 0 9.79-.01M13.027 5.786a1 1 0 1 0-2 0v15.21a3.68 3.68 0 0 0 1 7.219 3.679 3.679 0 0 0 1-7.22zm-2.679 18.75a1.679 1.679 0 1 1 3.357 0 1.679 1.679 0 0 1-3.357 0M21.044 8.567a3.68 3.68 0 0 1 4.011.799 1.68 1.68 0 0 0 2.376 0 1 1 0 0 1 1.415 1.413 3.68 3.68 0 0 1-5.206 0 1.68 1.68 0 0 0-2.375 0 1 1 0 1 1-1.415-1.413 3.7 3.7 0 0 1 1.194-.799m1.409 5.077a3.68 3.68 0 0 0-2.603 1.078 1 1 0 1 0 1.415 1.414 1.68 1.68 0 0 1 2.375 0 3.68 3.68 0 0 0 5.206 0 1 1 0 0 0-1.415-1.414 1.68 1.68 0 0 1-2.376 0 3.68 3.68 0 0 0-2.602-1.078" clip-rule="evenodd"/></svg>