<svg xmlns="http://www.w3.org/2000/svg" width="33" height="32" fill="none" viewBox="0 0 33 32"><path fill="#111827" fill-rule="evenodd" d="M4.793 10.316a.5.5 0 0 0-.328.122.5.5 0 0 0-.265-.075h-.614a.5.5 0 0 0-.266.076L.734 12.062a.5.5 0 0 0-.234.434l.028 1.484a.5.5 0 0 0 .5.49H4.2a.5.5 0 0 0 .092-.008l-.001 6.722a.5.5 0 0 0 .5.5h3.47a.5.5 0 0 0 .5-.5v-6.712h1.716a.5.5 0 0 0 .5-.5v-3.156a.5.5 0 0 0-.5-.5zm.498 10.368.002-9.368h4.684v2.156H8.26a.5.5 0 0 0-.5.5v6.712zm23.244-10.246a.5.5 0 0 0-.328-.122h-5.684a.5.5 0 0 0-.5.5v3.156a.5.5 0 0 0 .5.5h1.716v6.712a.5.5 0 0 0 .5.5h3.47a.5.5 0 0 0 .5-.5l-.002-6.722q.045.008.092.008h3.173a.5.5 0 0 0 .5-.49l.028-1.485a.5.5 0 0 0-.234-.433L29.68 10.44a.5.5 0 0 0-.266-.076h-.615a.5.5 0 0 0-.264.075m-.826 10.246-.002-9.368h-4.684v2.156h1.716a.5.5 0 0 1 .5.5v6.712zM3.7 11.381 1.505 12.76l.014.711H3.7zm27.795 1.378L29.3 11.381v2.09h2.182zm-10.228 8.849a.5.5 0 0 1-.266.076h-.615a.5.5 0 0 1-.453-.288 1 1 0 0 1-.637.23H16.85a1 1 0 0 1-1-1v-9.31a1 1 0 0 1 1-1h2.445a1 1 0 0 1 1 1v6.269a1 1 0 0 1 .09-.009h3.173a.5.5 0 0 1 .5.49l.028 1.485a.5.5 0 0 1-.234.433zm-.38-.942 2.195-1.378-.014-.712h-2.182zm-8.814-6.354a1 1 0 0 0-1 1v5.314a1 1 0 0 0 1 1h2.444a1 1 0 0 0 1-1v-5.314a1 1 0 0 0-.395-.797.5.5 0 0 0 .447-.498l-.005-3.168a.5.5 0 0 0-.5-.5l-3.553.003a.5.5 0 0 0-.5.5v.546a.5.5 0 0 0 .08.272l1.699 2.62.015.022zm0 1h2.444v5.314h-2.444zm7.223-3.996H16.85v9.31h2.445zm-5.815 2.202-1.404-2.167 2.488-.001.003 2.168z" clip-rule="evenodd"/></svg>