<svg xmlns="http://www.w3.org/2000/svg" width="33" height="33" fill="none" viewBox="0 0 33 33"><path fill="#111827" fill-rule="evenodd" d="M13.039.5a1 1 0 1 0 0 2h6.922a1 1 0 1 0 0-2zM16.5 7.117c-6.457 0-11.692 5.234-11.692 11.692 0 6.457 5.235 11.691 11.692 11.691s11.692-5.234 11.692-11.691S22.957 7.116 16.5 7.116M2.808 18.808c0-7.562 6.13-13.692 13.692-13.692s13.692 6.13 13.692 13.692c0 7.561-6.13 13.691-13.692 13.691S2.808 26.37 2.808 18.807m20.11-6.418a1 1 0 0 1 0 1.414l-5.71 5.71a1 1 0 0 1-1.415-1.413l5.71-5.711a1 1 0 0 1 1.415 0" clip-rule="evenodd"/></svg>