<svg xmlns="http://www.w3.org/2000/svg" width="33" height="32" fill="none" viewBox="0 0 33 32"><path fill="#111827" fill-rule="evenodd" d="M2.5 14.846c0-3.064.624-5.79 1.585-7.711.982-1.963 2.153-2.811 3.157-2.826.55.008 1.175.267 1.798.82.488.459.97 1.118 1.415 2.006.956 1.914 1.578 4.624 1.584 7.672v.078c-.006 3.049-.628 5.759-1.585 7.672-.99 1.982-2.174 2.827-3.184 2.827s-2.194-.845-3.185-2.827c-.961-1.921-1.584-4.646-1.584-7.71m-.204-8.605c1.088-2.176 2.769-3.903 4.918-3.932H23.5a9 9 0 0 1 9 9v17.383a1 1 0 0 1-1 1h-18.46a1 1 0 0 1-1-1v-4.849c-1.1 2.006-2.724 3.541-4.77 3.541-2.175 0-3.876-1.738-4.973-3.932C1.17 21.198.501 18.154.501 14.846s.668-6.351 1.795-8.605m11.742 7.512h1.349a1 1 0 1 1 0 2h-1.348v11.939h16.46v-11.94h-1.486a1 1 0 1 1 0-2h1.486V11.31a7 7 0 0 0-7-7H11.028c.401.461.765.983 1.085 1.544 1.164 2.036 1.902 4.805 1.925 7.9M9 14.846a1.73 1.73 0 1 1-3.461 0 1.73 1.73 0 0 1 3.461 0m10.929-1.093a1 1 0 1 0 0 2h4.542a1 1 0 1 0 0-2z" clip-rule="evenodd"/></svg>