<svg xmlns="http://www.w3.org/2000/svg" width="33" height="32" fill="none" viewBox="0 0 33 32"><path fill="#111827" fill-rule="evenodd" d="M6.9 0a1 1 0 0 0-1 1v11H3.3a1 1 0 0 0-1 1v4a9 9 0 0 0 8.369 8.978l-.966 4.825a1 1 0 0 0 .981 1.196h11.632a1 1 0 0 0 .98-1.196l-.964-4.826A9 9 0 0 0 30.699 17V13a1 1 0 0 0-1-1h-2.6V1a1 1 0 0 0-1-1zm-.003 14H28.7v3a7 7 0 0 1-7 7H11.301a7 7 0 0 1-7-7v-3zM25.1 12V2H7.901v10zM11.7 4.8a1 1 0 1 0 0 2h2.4a1 1 0 1 0 0-2zM12.704 26l-.8 4h9.192l-.8-4z" clip-rule="evenodd"/></svg>