<svg xmlns="http://www.w3.org/2000/svg" width="33" height="33" fill="none"><path fill="#111827" fill-rule="evenodd" d="M16.5 2.5c-7.732 0-14 6.268-14 14 0 7.731 6.268 13.999 14 13.999 7.731 0 13.999-6.268 13.999-14 0-7.73-6.268-13.998-14-13.998Zm-16 14c0-8.836 7.164-16 16-16s15.999 7.164 15.999 16-7.163 15.999-16 15.999c-8.835 0-15.998-7.163-15.998-16Zm19.405 2.217a5.052 5.052 0 0 0-2.457-9.467h-4.654c-.577 0-1.044.467-1.044 1.044V22.75a1 1 0 0 0 2 0v-3.396h3.698c.15 0 .3-.007.448-.02l2.783 3.988a1 1 0 0 0 1.64-1.145l-2.414-3.46Zm-2.78-1.363H13.75V11.25h3.698a3.052 3.052 0 0 1 0 6.104h-.323Z" clip-rule="evenodd"/></svg>