<svg xmlns="http://www.w3.org/2000/svg" width="33" height="32" fill="none" viewBox="0 0 33 32"><path fill="#111827" fill-rule="evenodd" d="M.794 16.707a1 1 0 0 1 0-1.414l14.999-15a1 1 0 0 1 1.414 0l15 15a1 1 0 0 1 0 1.414l-15 15a1 1 0 0 1-1.414 0zM2.915 16 16.5 29.585 30.085 16 16.5 2.415zm14.873-4.457a1 1 0 0 1 1.414 0l3.696 3.696a1 1 0 0 1 .347.757v.008a1 1 0 0 1-.293.703l-3.75 3.75a1 1 0 0 1-1.414-1.414l2.046-2.047h-8.079v2.754a1 1 0 1 1-2 0v-3.754a1 1 0 0 1 1-1h9.072l-2.04-2.039a1 1 0 0 1 0-1.414" clip-rule="evenodd"/></svg>