<svg xmlns="http://www.w3.org/2000/svg" width="33" height="32" fill="none" viewBox="0 0 33 32"><path fill="#111827" fill-rule="evenodd" d="M6.894.698A1 1 0 0 1 7.847 0h17.306a1 1 0 0 1 .953.697l4.038 12.691c.054.169.062.348.024.52a.996.996 0 0 1-.102.334l-3.96 12.444a1 1 0 0 1-.953.697h-2.038l2.261 3.015a1 1 0 0 1-1.6 1.2l-3.161-4.215h-8.23l-3.161 4.215a1 1 0 1 1-1.6-1.2l2.26-3.015H7.848a1 1 0 0 1-.953-.697L2.856 13.995a1 1 0 0 1 0-.606L6.894.698ZM27.922 13l-3.5-11H8.578L5.082 12.987l11.316 2.118 11.524-2.104Zm-22.629 2.06 3.285 10.323H15.5v-8.412L5.293 15.06ZM17.5 16.937l10.202-1.863-3.28 10.31H17.5v-8.447Zm-5.615-8.86a1 1 0 1 0 0 2h9.23a1 1 0 1 0 0-2h-9.23Z" clip-rule="evenodd"/></svg>