<svg xmlns="http://www.w3.org/2000/svg" width="33" height="32" fill="none" viewBox="0 0 33 32"><path fill="#111827" fill-rule="evenodd" d="M12.386.5a1 1 0 0 1 1.366-.366l3.223 1.86a1.002 1.002 0 0 1 .392 1.381L15.49 6.624a1 1 0 1 1-1.732-1l.939-1.626c-6.361.878-11.26 6.336-11.26 12.939 0 3.4 1.298 6.496 3.428 8.82A1 1 0 0 1 5.39 27.11a15.012 15.012 0 0 1-3.953-10.172c0-7.235 5.101-13.28 11.904-14.73l-.59-.341A1 1 0 0 1 12.386.5Zm9.842 3.551a1 1 0 0 1 1.353-.411c4.747 2.532 7.981 7.536 7.981 13.297 0 3.75-1.372 7.183-3.64 9.82a1 1 0 0 1-1.516-1.305 13.007 13.007 0 0 0 3.156-8.515A13.06 13.06 0 0 0 22.64 5.404a1 1 0 0 1-.411-1.353ZM16.5 9.923a7.498 7.498 0 0 0-3.315 14.226 1 1 0 0 1 .558.897v2.405h5.504v-2.4a1 1 0 0 1 .559-.898A7.498 7.498 0 0 0 16.5 9.923ZM7 17.42a9.498 9.498 0 1 1 14.246 8.228v1.802a2 2 0 0 1-2 2h-5.504a2 2 0 0 1-2-2v-1.807A9.494 9.494 0 0 1 7 17.42Zm10.529-6.034a1 1 0 1 0-.335 1.972 4.092 4.092 0 0 1 3.347 3.343 1 1 0 1 0 1.972-.337 6.091 6.091 0 0 0-4.984-4.978ZM12.748 30a1 1 0 1 0 0 2h7.504a1 1 0 1 0 0-2h-7.504Z" clip-rule="evenodd"/></svg>