<svg xmlns="http://www.w3.org/2000/svg" width="33" height="32" fill="none" viewBox="0 0 33 32"><path fill="#111827" fill-rule="evenodd" d="M4.385 0a1 1 0 0 0-1 1v25.384a1 1 0 0 0 1 1h5.5l-2.261 3.015a1 1 0 0 0 1.6 1.2l3.161-4.215h8.23l3.162 4.215a1 1 0 0 0 1.6-1.2l-2.262-3.015h5.5a1 1 0 0 0 1-1V1a1 1 0 0 0-1-1zm23.23 13.846V2.001H5.385v11.845zm-22.23 2h22.23v9.538H5.385zm6.5 5.346a1.73 1.73 0 1 1-3.461 0 1.73 1.73 0 0 1 3.461 0m10.96 1.73a1.73 1.73 0 1 0 0-3.46 1.73 1.73 0 0 0 0 3.46" clip-rule="evenodd"/></svg>