<svg xmlns="http://www.w3.org/2000/svg" width="33" height="33" fill="none" viewBox="0 0 33 33"><path fill="#111827" fill-rule="evenodd" d="M12.386.5a1 1 0 0 1 1.366-.366l3.223 1.86a1.002 1.002 0 0 1 .392 1.381L15.49 6.624a1 1 0 1 1-1.732-1l.939-1.626c-6.361.878-11.26 6.336-11.26 12.939 0 3.4 1.298 6.496 3.428 8.82A1 1 0 0 1 5.39 27.11a15.012 15.012 0 0 1-3.953-10.172c0-7.235 5.101-13.28 11.904-14.73l-.59-.341A1 1 0 0 1 12.386.5Zm9.842 3.551a1 1 0 0 1 1.353-.411c4.747 2.532 7.981 7.536 7.981 13.297 0 3.75-1.372 7.183-3.64 9.82a1 1 0 0 1-1.516-1.305 13.007 13.007 0 0 0 3.156-8.515A13.06 13.06 0 0 0 22.64 5.404a1 1 0 0 1-.411-1.353ZM16.5 9.955a7.49 7.49 0 0 0-3.31 14.21 1 1 0 0 1 .557.897v2.402H15.5v-5.006l-3.606-3.606a1 1 0 0 1 1.414-1.414L16.5 20.63l3.192-3.192a1 1 0 0 1 1.414 1.414L17.5 22.458v5.006h1.744v-2.397a1 1 0 0 1 .558-.898A7.49 7.49 0 0 0 16.5 9.954Zm-9.49 7.49a9.49 9.49 0 1 1 14.234 8.22v1.799a2 2 0 0 1-2 2h-5.497a2 2 0 0 1-2-2V25.66a9.486 9.486 0 0 1-4.737-8.215Zm4.742 13.566a1 1 0 0 1 1-1h7.496a1 1 0 0 1 0 2h-7.496a1 1 0 0 1-1-1Z" clip-rule="evenodd"/></svg>