<svg xmlns="http://www.w3.org/2000/svg" width="33" height="33" fill="none" viewBox="0 0 33 33"><path fill="#111827" fill-rule="evenodd" d="M9.095 9.292a7.365 7.365 0 0 1 14.683-.022l.06.761.751.142A7.364 7.364 0 1 1 17.5 22.057V17.117l6.37-3.186a1 1 0 1 0-.894-1.788L17.5 14.88v-4.15a1 1 0 0 0-2 0v5.748a.97.97 0 0 0 0 .042v1.822l-5.476-2.738a1 1 0 1 0-.895 1.789l6.371 3.185v1.479a7.364 7.364 0 1 1-7.201-11.862l.738-.151.058-.752ZM15.5 24.829A9.364 9.364 0 0 1 .423 17.41c0-4.27 2.857-7.87 6.762-8.998.7-4.481 4.575-7.91 9.252-7.91 4.665 0 8.532 3.41 9.246 7.873 3.973 1.085 6.894 4.718 6.894 9.035a9.364 9.364 0 0 1-15.077 7.42v6.67a1 1 0 0 1-2 0v-6.67Z" clip-rule="evenodd"/></svg>