<svg xmlns="http://www.w3.org/2000/svg" width="33" height="32" fill="none" viewBox="0 0 33 32"><path fill="#111827" fill-rule="evenodd" d="M20.9 2.8a1 1 0 0 1 1-1h9.599a1 1 0 0 1 1 1v9.6a1 1 0 0 1-1 1h-9.6a1 1 0 0 1-1-1V8.556h-3.496v14.836H20.9V19.6a1 1 0 0 1 1-1h9.599a1 1 0 0 1 1 1v9.6a1 1 0 0 1-1 1h-9.6a1 1 0 0 1-1-1v-3.808h-4.496a1 1 0 0 1-1-1V17H10.9v3.2a1 1 0 0 1-1 1H1.5a1 1 0 0 1-1-1v-8.4a1 1 0 0 1 1-1h8.4a1 1 0 0 1 1 1V15h4.503V7.556a1 1 0 0 1 1-1H20.9V2.801Zm2 1v7.6h7.599V3.8h-7.6Zm0 16.8v7.6h7.599v-7.6h-7.6ZM2.5 19.2v-6.4h6.4v6.4H2.5Z" clip-rule="evenodd"/></svg>