<svg xmlns="http://www.w3.org/2000/svg" width="33" height="32" fill="none"><path fill="#111827" fill-rule="evenodd" d="M.5 5.822a1 1 0 0 1 1-1h21.428a1 1 0 0 1 1 1v1.143h5.428a1 1 0 0 1 .928.626l2.142 5.314a1 1 0 0 1 .073.374v9.685a1 1 0 0 1-1 1H28.63a4.216 4.216 0 0 1-8.19 0h-7.88a4.216 4.216 0 0 1-8.19 0H1.5a1 1 0 0 1-1-1V5.822Zm28.13 16.142H30.5v-7.647h-6.57v4.476a4.216 4.216 0 0 1 4.702 3.17Zm1.403-9.647-1.352-3.352h-4.753v3.352h6.105Zm-8.105 5.219v2.117a4.215 4.215 0 0 0-1.487 2.31H12.56a4.216 4.216 0 0 0-8.19 0H2.5v-4.427h19.428Zm0-9.586v7.586H2.501V6.822h19.427V7.95Zm.393 15.014a2.214 2.214 0 1 1 4.428 0 2.214 2.214 0 0 1-4.428 0Zm-11.642.01a2.214 2.214 0 1 1 0-.02v.02Z" clip-rule="evenodd"/></svg>