<svg xmlns="http://www.w3.org/2000/svg" width="32" height="32" fill="none"><path stroke="#1C1B1F" stroke-linecap="round" stroke-linejoin="round" stroke-width="2" d="M4 16.429h17.143M21.143 13.854H28"/><path stroke="#1C1B1F" stroke-linejoin="round" stroke-miterlimit="10" stroke-width="2" d="M22.429 24.143a2.571 2.571 0 1 0 0-5.143 2.571 2.571 0 0 0 0 5.143ZM9.571 24.143a2.571 2.571 0 1 0 0-5.143 2.571 2.571 0 0 0 0 5.143Z"/><path stroke="#1C1B1F" stroke-linecap="round" stroke-linejoin="round" stroke-width="2" d="M19.857 21.571h-7.714"/><path stroke="#1C1B1F" stroke-linejoin="round" stroke-width="2" d="M7.02 21.572H4V7.857h17.143v11.44m-8.95 2.274h7.667M21.143 19.298V9.57h5.143L28 13.823v7.748h-3.429"/></svg>