<svg xmlns="http://www.w3.org/2000/svg" width="33" height="32" fill="none" viewBox="0 0 33 32"><path fill="#111827" fill-rule="evenodd" d="M.5 5.822a1 1 0 0 1 1-1h21.428a1 1 0 0 1 1 1v1.143h5.428a1 1 0 0 1 .928.626l2.142 5.314a1 1 0 0 1 .073.374v9.685a1 1 0 0 1-1 1H28.63a4.216 4.216 0 0 1-8.19 0h-7.88a4.216 4.216 0 0 1-8.19 0H1.5a1 1 0 0 1-1-1V5.822m28.13 16.142H30.5v-7.647h-6.57v4.476q.296-.043.606-.043a4.216 4.216 0 0 1 4.095 3.214m1.403-9.647-1.352-3.352h-4.753v3.352zm-8.105 5.219v2.117a4.2 4.2 0 0 0-1.487 2.31H12.56a4.216 4.216 0 0 0-8.19 0H2.5v-4.427zm0-9.586v7.586H2.501V6.822h19.427zm.393 15.014a2.214 2.214 0 1 1 4.428 0 2.214 2.214 0 0 1-4.428 0m-11.642.01a2.214 2.214 0 1 1 0-.02v.02" clip-rule="evenodd"/></svg>