<svg xmlns="http://www.w3.org/2000/svg" width="33" height="33" fill="none" viewBox="0 0 33 33"><path fill="#111827" fill-rule="evenodd" d="M24.264 4.562h-3.74a1 1 0 0 0-1 1.011v.036a2.977 2.977 0 1 1-5.954 0v-.036a1 1 0 0 0-1-1.011H8.736a1 1 0 0 0-.451.107L1.05 8.319a1 1 0 0 0-.436 1.357l3.65 6.968a1 1 0 0 0 .886.536h3.33c-.08 2.895-.346 5.826-.675 9.455l-.065.713a1 1 0 0 0 .996 1.09h15.529a1 1 0 0 0 .997-1.071l-.128-1.77v-.006c-.232-3.164-.425-5.818-.496-8.411h3.211a1 1 0 0 0 .886-.536l3.65-6.968a1 1 0 0 0-.435-1.357l-7.223-3.644a1 1 0 0 0-.462-.113zm2.98 10.618 2.898-5.533-5.041-2.544c-.341 3.184-.484 5.29-.364 8.077zM2.857 9.647l2.898 5.533h2.636c.03-2.974-.09-5.052-.466-8.09zm7.027-3.085c1.023 7.729.623 12.43-.053 19.877H23.19l-.052-.702v-.018c-.522-7.152-.865-11.85-.005-19.157h-1.7a4.979 4.979 0 0 1-9.772 0z" clip-rule="evenodd"/></svg>