<svg xmlns="http://www.w3.org/2000/svg" width="33" height="32" fill="none" viewBox="0 0 33 32"><path fill="#111827" fill-rule="evenodd" d="M3.356 0a1.5 1.5 0 0 0-1.5 1.5v23.108a1.5 1.5 0 0 0 1.5 1.5H7.24v4.389c0 1.286 1.513 1.976 2.484 1.132l6.354-5.521h6.532a1.5 1.5 0 0 0 1.004-.385l7.034-6.331a1.5 1.5 0 0 0 .497-1.115V1.5a1.5 1.5 0 0 0-1.5-1.5zm.5 24.108V2h25.289v16.054l-6.726 6.054h-6.527a1.5 1.5 0 0 0-.984.367L9.24 29.4v-3.792a1.5 1.5 0 0 0-1.5-1.5zM15.268 7.285a1 1 0 0 1 1 1v7.396a1 1 0 0 1-2 0V8.285a1 1 0 0 1 1-1m7.395 0a1 1 0 0 1 1 1v7.396a1 1 0 0 1-2 0V8.285a1 1 0 0 1 1-1" clip-rule="evenodd"/></svg>