<svg xmlns="http://www.w3.org/2000/svg" width="33" height="33" fill="none" viewBox="0 0 33 33"><path fill="#111827" fill-rule="evenodd" d="M10.545 7.786a.982.982 0 0 0 1.404 0L15.55 4.13v12.782a1 1 0 1 0 2 0V4.131l3.601 3.655a.982.982 0 0 0 1.404 0 1.018 1.018 0 0 0 0-1.425L17.27.999a.866.866 0 0 0-.018-.018l-.001-.002a.982.982 0 0 0-1.404 0l-.003.003a1.05 1.05 0 0 0-.015.015l-5.285 5.364a1.018 1.018 0 0 0 0 1.425ZM1.501 18.888a1 1 0 0 0-1 1v11.428a1 1 0 0 0 1 1h29.998a1 1 0 0 0 1-1V19.888a1 1 0 0 0-1-1H24a1 1 0 0 0 0 2h6.5v9.428H2.501v-9.428H9a1 1 0 1 0 0-2H1.5Zm25.433 6.947c0 .97-.775 1.757-1.73 1.757-.957 0-1.731-.787-1.731-1.757 0-.97.774-1.756 1.73-1.756s1.731.786 1.731 1.756Z" clip-rule="evenodd"/></svg>