<svg xmlns="http://www.w3.org/2000/svg" width="32" height="33" fill="none"><path stroke="#1C1B1F" stroke-linecap="round" stroke-linejoin="round" stroke-width="2" d="M15.96 20.317a3.534 3.534 0 1 0 0-7.068 3.534 3.534 0 0 0 0 7.068Z"/><path stroke="#1C1B1F" stroke-linecap="round" stroke-linejoin="round" stroke-width="2" d="M20.68 25.037a4.72 4.72 0 1 0-9.44 0M27.96 20.317a4.72 4.72 0 0 0-5.016-4.71"/><path stroke="#1C1B1F" stroke-linecap="round" stroke-linejoin="round" stroke-width="2" d="M22.939 15.585a3.534 3.534 0 1 0-3.037-4.684M3.96 20.317a4.72 4.72 0 0 1 5.017-4.71"/><path stroke="#1C1B1F" stroke-linecap="round" stroke-linejoin="round" stroke-width="2" d="M8.981 15.585a3.534 3.534 0 1 1 3.037-4.684"/></svg>