<svg xmlns="http://www.w3.org/2000/svg" width="33" height="33" fill="none" viewBox="0 0 33 33"><path fill="#111827" fill-rule="evenodd" d="M10.918 5.74a6.052 6.052 0 1 0 0 12.103 6.052 6.052 0 0 0 0-12.103M2.867 11.79a8.052 8.052 0 1 1 12.192 6.907 10.42 10.42 0 0 1 6.277 9.562 1 1 0 0 1-2 0 8.417 8.417 0 0 0-16.835 0 1 1 0 1 1-2 0 10.42 10.42 0 0 1 6.277-9.562 8.05 8.05 0 0 1-3.911-6.907m26.104 3.533a1 1 0 0 0-2 0v2.528h-2.528a1 1 0 1 0 0 2h2.528v2.528a1 1 0 1 0 2 0v-2.528h2.528a1 1 0 1 0 0-2h-2.528z" clip-rule="evenodd"/></svg>