<svg xmlns="http://www.w3.org/2000/svg" width="33" height="33" fill="none" viewBox="0 0 33 33"><path fill="#111827" fill-rule="evenodd" d="M28.5 1.5a1 1 0 1 0-2 0v.985a3.45 3.45 0 0 0-1.358.785l-.853-.493a1 1 0 1 0-1 1.733l.852.492a3.46 3.46 0 0 0 0 1.569l-.852.492a1 1 0 1 0 1 1.732l.853-.492c.382.357.845.63 1.359.785v.984a1 1 0 0 0 2 0v-.984a3.45 3.45 0 0 0 1.358-.785l.853.492a1 1 0 0 0 1-1.732l-.852-.492a3.46 3.46 0 0 0 0-1.57l.852-.491a1 1 0 0 0-1-1.733l-.853.493a3.45 3.45 0 0 0-1.358-.785zm.255 3.562-.007-.014a1.45 1.45 0 0 0-1.24-.71h-.015a1.45 1.45 0 0 0-1.24.71l-.007.014-.01.015a1.44 1.44 0 0 0 .002 1.42l.008.014.007.013a1.448 1.448 0 0 0 2.496-.001l.006-.012.008-.013a1.44 1.44 0 0 0 0-1.422zM2.788 16.806c0-7.562 6.13-13.693 13.693-13.693a1 1 0 1 0 0-2C7.814 1.113.788 8.139.788 16.806S7.814 32.499 16.48 32.499s15.693-7.026 15.693-15.693a1 1 0 1 0-2 0c0 4.269-1.953 8.081-5.015 10.592a8.84 8.84 0 0 0-4.883-6.367 6.858 6.858 0 1 0-7.589 0 8.84 8.84 0 0 0-4.885 6.367 13.67 13.67 0 0 1-5.014-10.592m6.877 11.879a13.63 13.63 0 0 0 6.816 1.814c2.481 0 4.809-.66 6.816-1.814a6.823 6.823 0 0 0-13.632 0m6.816-18.226a4.858 4.858 0 1 0 0 9.716 4.858 4.858 0 0 0 0-9.716" clip-rule="evenodd"/></svg>