<svg xmlns="http://www.w3.org/2000/svg" width="33" height="33" fill="none"><path fill="#111827" fill-rule="evenodd" d="M4.902 11.723a6.154 6.154 0 1 1 6.215 6.154h-.123a6.154 6.154 0 0 1-6.092-6.154Zm14.307 0a8.15 8.15 0 0 1-3.985 7.01 10.556 10.556 0 0 1 6.384 9.697 1 1 0 1 1-2 0 8.554 8.554 0 0 0-8.49-8.553h-.127a8.553 8.553 0 0 0-8.49 8.553 1 1 0 1 1-2 0c0-4.348 2.63-8.082 6.385-9.698a8.154 8.154 0 1 1 12.323-7.009Zm2.737-8.153a1 1 0 1 0 0 2 6.154 6.154 0 0 1 .061 12.307h-.062a1 1 0 1 0 .064 2 8.554 8.554 0 0 1 8.49 8.553 1 1 0 1 0 2 0c0-4.348-2.63-8.081-6.384-9.698A8.154 8.154 0 0 0 21.946 3.57Z" clip-rule="evenodd"/></svg>