<svg xmlns="http://www.w3.org/2000/svg" width="33" height="33" fill="none"><path fill="#111827" fill-rule="evenodd" d="M8.513 8.743a4.25 4.25 0 1 0 0 8.502 4.25 4.25 0 0 0 0-8.502Zm-6.25 4.25a6.25 6.25 0 1 1 9.856 5.107 8.012 8.012 0 0 1 4.406 7.157 1 1 0 1 1-2 0 6.012 6.012 0 1 0-12.025 0 1 1 0 1 1-2 0A8.012 8.012 0 0 1 4.907 18.1a6.243 6.243 0 0 1-2.645-5.106Zm15.101-3.06a1 1 0 0 1 1-1H31.5a1 1 0 0 1 0 2H18.364a1 1 0 0 1-1-1Zm0 6.567a1 1 0 0 1 1-1H31.5a1 1 0 0 1 0 2H18.364a1 1 0 0 1-1-1Zm4.284 5.567a1 1 0 1 0 0 2h9.851a1 1 0 1 0 0-2h-9.851Z" clip-rule="evenodd"/></svg>