<svg xmlns="http://www.w3.org/2000/svg" width="33" height="33" fill="none" viewBox="0 0 33 33"><path fill="#111827" fill-rule="evenodd" d="M8.016 5.792a3.06 3.06 0 1 1 3.076 3.06h-.03a3.06 3.06 0 0 1-3.046-3.06m-.144 3.916a5.06 5.06 0 1 1 6.41 0c.9.52 1.662 1.25 2.218 2.124a6.46 6.46 0 0 1 2.218-2.124 5.06 5.06 0 1 1 6.41 0 6.42 6.42 0 0 1 3.218 5.568 1 1 0 0 1-2 0 4.423 4.423 0 0 0-4.407-4.424h-.031a4.423 4.423 0 0 0-4.408 4.424 1 1 0 0 1-2 0 4.423 4.423 0 0 0-4.407-4.424h-.032a4.423 4.423 0 0 0-4.407 4.424 1 1 0 0 1-2 0 6.42 6.42 0 0 1 3.218-5.568m14.066-.855a3.06 3.06 0 1 0-.015 0zM8.016 21.785a3.06 3.06 0 1 1 3.076 3.061h-.03a3.06 3.06 0 0 1-3.046-3.06m8.122 0a5.05 5.05 0 0 1-1.856 3.917c.9.519 1.662 1.25 2.218 2.124a6.46 6.46 0 0 1 2.218-2.124 5.06 5.06 0 1 1 6.41 0 6.42 6.42 0 0 1 3.218 5.567 1 1 0 1 1-2 0 4.423 4.423 0 0 0-4.407-4.423h-.031A4.423 4.423 0 0 0 17.5 31.27a1 1 0 0 1-.987 1H16.5a1 1 0 0 1-1-1 4.423 4.423 0 0 0-4.407-4.423h-.032a4.423 4.423 0 0 0-4.407 4.423 1 1 0 1 1-2 0 6.42 6.42 0 0 1 3.218-5.567 5.06 5.06 0 1 1 8.266-3.916m5.785 3.061h.015a3.061 3.061 0 1 0-.03 0z" clip-rule="evenodd"/></svg>