<svg xmlns="http://www.w3.org/2000/svg" width="33" height="33" fill="none" viewBox="0 0 33 33"><path fill="#111827" fill-rule="evenodd" d="M16.5 2.5c-7.732 0-14 6.268-14 14 0 4.377 2.01 8.284 5.155 10.851a9 9 0 0 1 5.014-6.535 6.98 6.98 0 1 1 7.663 0 9 9 0 0 1 5.013 6.535A13.97 13.97 0 0 0 30.499 16.5c0-7.732-6.268-14-14-14m6.98 26.138a6.986 6.986 0 0 0-13.96 0 13.94 13.94 0 0 0 6.98 1.861c2.541 0 4.925-.677 6.98-1.861M.5 16.5c0-8.836 7.164-16 16-16s15.999 7.164 15.999 16-7.163 15.999-16 15.999c-8.835 0-15.998-7.163-15.998-16m16-6.5a4.98 4.98 0 1 0 0 9.96 4.98 4.98 0 0 0 0-9.96" clip-rule="evenodd"/></svg>