<svg width="32" height="33" fill="none" xmlns="http://www.w3.org/2000/svg"><path d="M25 9.5a2 2 0 1 0 0-4 2 2 0 0 0 0 4ZM25 5.5V4M23.268 6.5l-1.3-.75M23.268 8.5l-1.3.75M25 9.5V11M26.732 8.5l1.3.75M26.732 6.5l1.3-.75M28 16.5c0 6.627-5.373 12-12 12s-12-5.373-12-12 5.373-12 12-12" stroke="#1C1B1F" stroke-width="2" stroke-linecap="round" stroke-linejoin="round"/><path d="M16 20.068a4.784 4.784 0 1 0 0-9.568 4.784 4.784 0 0 0 0 9.568Z" stroke="#1C1B1F" stroke-width="2" stroke-linecap="round" stroke-linejoin="round"/><path d="M22.39 26.458a6.39 6.39 0 1 0-12.78 0" stroke="#1C1B1F" stroke-width="2" stroke-linecap="round" stroke-linejoin="round"/></svg>