<svg xmlns="http://www.w3.org/2000/svg" width="33" height="33" fill="none"><path fill="#111827" fill-rule="evenodd" d="M2.5 16.5c0-7.732 6.268-14 14-14a1 1 0 1 0 0-2C7.664.5.5 7.665.5 16.5s7.164 15.999 16 15.999 15.999-7.163 15.999-16a1 1 0 0 0-2 0c0 4.378-2.008 8.285-5.154 10.852a9 9 0 0 0-5.014-6.535 6.98 6.98 0 1 0-7.663 0 8.999 8.999 0 0 0-5.013 6.535A13.971 13.971 0 0 1 2.501 16.5Zm7.02 12.138a13.935 13.935 0 0 0 6.98 1.861c2.541 0 4.925-.677 6.98-1.861a6.986 6.986 0 0 0-13.96 0ZM24 4.25a1 1 0 1 0 0 2h7.5a1 1 0 0 0 0-2H24ZM16.5 10a4.98 4.98 0 1 0 0 9.96 4.98 4.98 0 0 0 0-9.96Z" clip-rule="evenodd"/></svg>