<svg xmlns="http://www.w3.org/2000/svg" width="32" height="33" fill="none"><path stroke="#1C1B1F" stroke-linecap="round" stroke-linejoin="round" stroke-width="2" d="M25.27 18.302a1.802 1.802 0 1 0 0-3.604 1.802 1.802 0 0 0 0 3.604ZM25.27 14.698v-1.351M23.709 15.6l-1.17-.676M23.709 17.4l-1.17.677M25.27 18.302v1.351M26.83 17.4l1.17.677M26.83 15.6l1.17-.676M12.657 18.654a6.482 6.482 0 1 0 0-12.965 6.482 6.482 0 0 0 0 12.965Z"/><path stroke="#1C1B1F" stroke-linecap="round" stroke-linejoin="round" stroke-width="2" d="M21.314 27.31A8.657 8.657 0 0 0 4 27.31"/></svg>