<svg xmlns="http://www.w3.org/2000/svg" width="33" height="33" fill="none"><path fill="#111827" fill-rule="evenodd" d="M25.6 5.183a5.42 5.42 0 0 0-5.118 3.636 1 1 0 1 0 1.889.657 3.42 3.42 0 0 1 6.646 1.125 3.418 3.418 0 0 1-3.396 3.417h-.043a3.42 3.42 0 0 1-.271-.012 1 1 0 0 0-1.059 1.221 1 1 0 0 0 1.043.8c.094-.005.19-.008.286-.009h.045a4.9 4.9 0 0 1 4.877 4.9 1 1 0 1 0 2 0 6.898 6.898 0 0 0-3.569-6.044 5.418 5.418 0 0 0-3.33-9.69ZM13.081 16.5a3.418 3.418 0 1 1 3.439 3.418H16.479a3.418 3.418 0 0 1-3.397-3.418Zm.087 4.273a5.418 5.418 0 1 1 6.661 0 6.898 6.898 0 0 1 3.569 6.044 1 1 0 1 1-2 0 4.9 4.9 0 0 0-4.877-4.9h-.045a4.9 4.9 0 0 0-4.877 4.9 1 1 0 1 1-2 0 6.898 6.898 0 0 1 3.57-6.044Zm-5.747-6.755H7.38a3.418 3.418 0 1 1 3.249-4.542 1 1 0 0 0 1.889-.657A5.42 5.42 0 0 0 1.983 10.6c0 1.736.817 3.281 2.087 4.273A6.898 6.898 0 0 0 .5 20.918a1 1 0 1 0 2 0 4.9 4.9 0 0 1 4.878-4.9h.045c.096 0 .192.004.286.01a1 1 0 0 0 1.043-.8 1 1 0 0 0-1.059-1.222 3.42 3.42 0 0 1-.271.012Z" clip-rule="evenodd"/></svg>