<svg width="32" height="32" fill="none" xmlns="http://www.w3.org/2000/svg"><path d="M24 23.5v3M8 23.5v3" stroke="#1C1B1F" stroke-width="2" stroke-linecap="round" stroke-linejoin="round"/><path d="M19.925 16.13a1.63 1.63 0 1 0 0-3.26 1.63 1.63 0 0 0 0 3.26ZM7.851 12.527a1 1 0 1 0 0-2 1 1 0 0 0 0 2ZM7.851 15.472a1 1 0 1 0 0-2 1 1 0 0 0 0 2ZM7.851 18.472a1 1 0 1 0 0-2 1 1 0 0 0 0 2ZM10.851 12.527a1 1 0 1 0 0-2 1 1 0 0 0 0 2ZM10.851 15.472a1 1 0 1 0 0-2 1 1 0 0 0 0 2ZM10.851 18.472a1 1 0 1 0 0-2 1 1 0 0 0 0 2Z" fill="#1C1B1F"/><path d="M19.925 18.575a4.075 4.075 0 1 0 0-8.15 4.075 4.075 0 0 0 0 8.15Z" stroke="#1C1B1F" stroke-width="2" stroke-linecap="round" stroke-linejoin="round"/><path d="M4 5.5h24v18H4v-18Z" stroke="#1C1B1F" stroke-width="2" stroke-linejoin="round"/></svg>