<svg xmlns="http://www.w3.org/2000/svg" width="33" height="32" fill="none" viewBox="0 0 33 32"><path fill="#111827" fill-rule="evenodd" d="M12.93 5.94h13.244l.299.427 4.926 7.038 1.101 1.573H21.93l-.3-.382-2.797-3.559h-8.451l.724-1.447 1.548-3.097zm1.237 2-.549 1.097h6.187l.3.382 2.797 3.56h5.757L25.133 7.94zM12.93 26.06h13.243l.299-.427 4.926-7.038 1.101-1.573H21.93l-.3.382-2.797 3.559h-8.451l.724 1.447 1.548 3.097zm1.236-2-.549-1.097h6.187l.3-.382 2.797-3.56h5.757l-3.526 5.039zm3.102-12.12-.385-.385-.532.114L.515 15.07.5 17.022l15.788 3.644.54.124.392-.392 3.547-3.546.707-.707-.707-.707zm-1.071 6.652-10.874-2.51L16.24 13.74l2.405 2.406z" clip-rule="evenodd"/></svg>