<svg xmlns="http://www.w3.org/2000/svg" width="33" height="32" fill="none" viewBox="0 0 33 32"><path fill="#111827" fill-rule="evenodd" d="M10.072 3.215a1 1 0 0 0-1 1v23.57a1 1 0 0 0 1 1h12.856a1 1 0 0 0 1-1V4.215a1 1 0 0 0-1-1zm1 23.57V5.215h10.856v21.57zM6.786 10.644a1 1 0 1 0-2 0v10.713a1 1 0 1 0 2 0zm20.428-1a1 1 0 0 1 1 1v10.713a1 1 0 1 1-2 0V10.644a1 1 0 0 1 1-1m4.285 2.142a1 1 0 0 1 1 1v6.428a1 1 0 0 1-2 0v-6.428a1 1 0 0 1 1-1m-29.998 0a1 1 0 0 1 1 1v6.428a1 1 0 1 1-2 0v-6.428a1 1 0 0 1 1-1" clip-rule="evenodd"/></svg>