<svg xmlns="http://www.w3.org/2000/svg" width="33" height="33" fill="none" viewBox="0 0 33 33"><path fill="#111827" fill-rule="evenodd" d="M2.192.761a1 1 0 0 1 1.412.067l27.272 29.999a1 1 0 1 1-1.48 1.345l-5.1-5.61a1 1 0 0 1-.296.044H6.5a6 6 0 0 1-6-6V7.394a1 1 0 0 1 1-1h4.46l-3.836-4.22A1 1 0 0 1 2.192.762m5.587 7.632 14.74 16.214H6.5a4 4 0 0 1-4-4V8.393zm6.484-1a1 1 0 0 1 1-1H19a6 6 0 0 1 6 6v.617l5.963-3.783a1 1 0 0 1 1.536.845v12.856a1 1 0 0 1-1.536.845l-7.5-4.757A1 1 0 0 1 23 18.17v-5.778a4 4 0 0 0-4-4h-3.737a1 1 0 0 1-1-1M25 17.622l5.5 3.488v-9.22L25 15.38z" clip-rule="evenodd"/></svg>