<svg xmlns="http://www.w3.org/2000/svg" width="33" height="33" fill="none" viewBox="0 0 33 33"><path fill="#111827" fill-rule="evenodd" d="M1.501 2.75a1 1 0 0 0-1 1v25a1 1 0 0 0 1 1h29.998a1 1 0 0 0 1-1v-25a1 1 0 0 0-1-1zm1 25v-23h27.998v23zm5-11.5c0-1.686.908-3.288 2.528-4.503S13.934 9.75 16.5 9.75s4.85.782 6.47 1.997 2.53 2.817 2.53 4.503-.91 3.288-2.53 4.503-3.904 1.997-6.47 1.997-4.85-.782-6.47-1.997S7.5 17.936 7.5 16.25m9-8.5c-2.958 0-5.673.898-7.672 2.397-1.999 1.5-3.328 3.647-3.328 6.103s1.33 4.604 3.328 6.103c2 1.499 4.714 2.396 7.671 2.396s5.672-.897 7.67-2.396c2-1.5 3.33-3.647 3.33-6.103s-1.33-4.604-3.33-6.103C22.173 8.648 19.458 7.75 16.5 7.75" clip-rule="evenodd"/></svg>