<svg xmlns="http://www.w3.org/2000/svg" width="33" height="32" fill="none" viewBox="0 0 33 32"><path fill="#111827" fill-rule="evenodd" d="M.501 2.25a1 1 0 0 1 1-1h29.998a1 1 0 0 1 1 1v22.5a1 1 0 0 1-1 1H1.501a1 1 0 0 1-1-1zm2 1v20.5h27.998V3.25zm8 26.499a1 1 0 0 1 1-1H21.5a1 1 0 0 1 0 2h-10a1 1 0 0 1-1-1m6.487-24.566a1 1 0 0 0-.976 0L9.267 8.957a1 1 0 0 0-.511.873v7.546a1 1 0 0 0 .511.873l6.745 3.774a1 1 0 0 0 .976 0l6.745-3.774a1 1 0 0 0 .511-.873V9.855a1 1 0 0 0-.512-.897zm-.488 2.02 4.71 2.634-4.609 2.618-4.755-2.649zm-.925 6.97-4.82-2.685v5.302l4.82 2.697zm2 .029v5.2l4.67-2.612v-5.24z" clip-rule="evenodd"/></svg>