<svg xmlns="http://www.w3.org/2000/svg" width="33" height="33" fill="none" viewBox="0 0 33 33"><path fill="#111827" fill-rule="evenodd" d="M14.562 2.634c-1.48.205-2.885.64-4.18 1.27l3.45 5.975q.014.022.027.047l3.218 5.574h5.51a14.01 14.01 0 0 0-8.025-12.866m-5.91 2.272 2.938 5.09a16 16 0 0 0-8.036 11.84A14 14 0 0 1 2.5 16.5c0-4.823 2.439-9.076 6.15-11.594M16.5 32.5c-5.21 0-9.838-2.49-12.76-6.345a1 1 0 0 1-.094-.126A15.93 15.93 0 0 1 .501 16.5C.5 8.332 6.62 1.593 14.527.62A16.17 16.17 0 0 1 16.5.501C25.336.5 32.499 7.664 32.499 16.5a15.95 15.95 0 0 1-1.298 6.323C28.749 28.516 23.09 32.5 16.5 32.5m12.98-10.745c.538-1.329.878-2.76.984-4.254H17.077l-2.755 4.77a14 14 0 0 0 15.158-.516m-16.157 2.25a16 16 0 0 0 14.265 1.042A13.98 13.98 0 0 1 16.5 30.5c-2.194 0-4.27-.505-6.117-1.404zM7.21 17.09a14 14 0 0 0-1.751 8.018 14 14 0 0 0 3.191 2.985L15.345 16.5l-2.755-4.771a14 14 0 0 0-5.379 5.362M18.355 2.623A16 16 0 0 1 24.586 15.5h5.878c-.47-6.647-5.58-12.013-12.11-12.877" clip-rule="evenodd"/></svg>