<svg xmlns="http://www.w3.org/2000/svg" width="33" height="33" fill="none" viewBox="0 0 33 33"><path fill="#111827" fill-rule="evenodd" d="M14.562 2.634c-1.48.205-2.885.64-4.18 1.27l3.45 5.975c.01.015.018.03.027.047l3.218 5.574h5.51a14.007 14.007 0 0 0-8.025-12.866Zm-5.91 2.272 2.938 5.09a16.006 16.006 0 0 0-8.036 11.84A13.958 13.958 0 0 1 2.5 16.5c0-4.823 2.439-9.076 6.15-11.594ZM16.5 32.5c-5.21 0-9.838-2.49-12.76-6.345a.999.999 0 0 1-.094-.126A15.928 15.928 0 0 1 .501 16.5C.5 8.332 6.62 1.593 14.527.62A16.17 16.17 0 0 1 16.5.501C25.336.5 32.499 7.664 32.499 16.5a15.948 15.948 0 0 1-1.298 6.323C28.749 28.515 23.09 32.5 16.5 32.5Zm12.98-10.745c.538-1.329.878-2.76.984-4.254h-6.906a.98.98 0 0 1-.035 0h-6.446l-2.755 4.77a14.005 14.005 0 0 0 15.158-.516Zm-16.157 2.25a16.005 16.005 0 0 0 14.265 1.042A13.976 13.976 0 0 1 16.5 30.5c-2.194 0-4.27-.505-6.117-1.404l2.94-5.092ZM7.21 17.09a14.006 14.006 0 0 0-1.751 8.018 14.077 14.077 0 0 0 3.191 2.985L15.345 16.5l-2.755-4.771a14.007 14.007 0 0 0-5.379 5.362ZM18.355 2.623A16.004 16.004 0 0 1 24.586 15.5h5.878c-.47-6.647-5.58-12.013-12.11-12.877Z" clip-rule="evenodd"/></svg>