<svg xmlns="http://www.w3.org/2000/svg" width="33" height="32" fill="none" viewBox="0 0 33 32"><path fill="#111827" fill-rule="evenodd" d="M2.22.001a1 1 0 0 0-1 1h1-1v13.283c0 4.648 1.353 7.91 3.973 10.603 2.554 2.625 6.275 4.664 10.852 7.003a1 1 0 0 0 .873.018c4.482-2.06 8.21-4.039 10.804-6.718 2.648-2.737 4.057-6.144 4.057-10.906V1.001a1 1 0 0 0-1-1H2.22m1 4.33v-2.33h26.56v12.283c0 4.3-1.246 7.19-3.495 9.515-2.23 2.303-5.492 4.107-9.762 6.088-4.406-2.261-7.682-4.118-9.896-6.394-2.22-2.281-3.406-5.026-3.407-9.209zm5.102 8.49a11.654 11.654 0 0 1 16.356 0 1 1 0 0 0 1.403-1.425 13.654 13.654 0 0 0-19.162 0 1 1 0 1 0 1.403 1.425m8.178.79a7.52 7.52 0 0 0-5.255 2.14 1 1 0 1 1-1.397-1.43 9.52 9.52 0 0 1 13.305 0 1 1 0 1 1-1.398 1.43 7.52 7.52 0 0 0-5.255-2.14m0 4.14a3.38 3.38 0 0 0-2.335.937 1 1 0 1 1-1.381-1.446 5.38 5.38 0 0 1 7.432 0 1 1 0 0 1-1.38 1.446 3.38 3.38 0 0 0-2.336-.936m0 4.177a1.035 1.035 0 1 0 0-2.07 1.035 1.035 0 0 0 0 2.07" clip-rule="evenodd"/></svg>