<svg xmlns="http://www.w3.org/2000/svg" width="33" height="32" fill="none" viewBox="0 0 33 32"><path stroke="#111827" stroke-width="2" d="m30.434 4.234-6.171-2.97a1.866 1.866 0 0 0-2.134.362L10.309 12.41 5.156 8.505a1.247 1.247 0 0 0-1.597.068l-1.65 1.504a1.248 1.248 0 0 0-.004 1.846L6.374 16l-4.468 4.077a1.247 1.247 0 0 0 .005 1.846l1.65 1.504c.449.404 1.118.434 1.596.068l5.151-3.911 11.827 10.79c.556.562 1.41.708 2.129.361l6.177-2.974a1.869 1.869 0 0 0 1.059-1.689V5.922a1.88 1.88 0 0 0-1.064-1.69l-.002.002Zm-6.431 18.578-8.974-6.811 8.974-6.812v13.623Z"/></svg>