<svg xmlns="http://www.w3.org/2000/svg" width="33" height="32" fill="none" viewBox="0 0 33 32"><path fill="#111827" fill-rule="evenodd" d="M3.756 3.141a.984.984 0 1 1 1.97 0 .984.984 0 0 1-1.97 0M4.741.157a2.984 2.984 0 1 0 0 5.969 2.984 2.984 0 0 0 0-5.969m23.426 8.299a2.333 2.333 0 1 0 0 4.666 2.333 2.333 0 0 0 0-4.666m-4.333 2.333a4.333 4.333 0 1 1 8.666 0 4.333 4.333 0 0 1-8.666 0M2.5 11.046a2.333 2.333 0 1 1 4.666 0 2.333 2.333 0 0 1-4.666 0m2.333-4.334a4.333 4.333 0 1 0 0 8.667 4.333 4.333 0 0 0 0-8.667m9.333 14.582a2.333 2.333 0 1 1 4.667 0 2.333 2.333 0 0 1-4.667 0m2.334-4.333a4.333 4.333 0 1 0 0 8.667 4.333 4.333 0 0 0 0-8.667m-14 9.084a2.333 2.333 0 1 1 4.666 0 2.333 2.333 0 0 1-4.666 0m2.333-4.333a4.333 4.333 0 1 0 0 8.667 4.333 4.333 0 0 0 0-8.667m-.092-4.259a.985.985 0 1 0 0 1.969.985.985 0 0 0 0-1.969m-2.985.985a2.984 2.984 0 1 1 5.97 0 2.984 2.984 0 0 1-5.97 0M16.5 5.098a.984.984 0 1 0 0 1.97.984.984 0 0 0 0-1.97m-2.984.985a2.984 2.984 0 1 1 5.969 0 2.984 2.984 0 0 1-5.97 0m13.76-2.942a.984.984 0 1 1 1.968 0 .984.984 0 0 1-1.969 0M28.26.157a2.984 2.984 0 1 0 0 5.969 2.984 2.984 0 0 0 0-5.969m0 17.295a.984.984 0 1 0 0 1.97.984.984 0 0 0 0-1.97m-2.985.985a2.984 2.984 0 1 1 5.97 0 2.984 2.984 0 0 1-5.97 0m2 7.609a.984.984 0 1 1 1.969 0 .984.984 0 0 1-1.969 0m.985-2.985a2.984 2.984 0 1 0 0 5.97 2.984 2.984 0 0 0 0-5.97M16.5 12.746a.984.984 0 1 0 0 1.969.984.984 0 0 0 0-1.969m-2.984.985a2.984 2.984 0 1 1 5.969 0 2.984 2.984 0 0 1-5.97 0m2 15.128a.984.984 0 1 1 1.968 0 .984.984 0 0 1-1.968 0m.984-2.985a2.984 2.984 0 1 0 0 5.969 2.984 2.984 0 0 0 0-5.969" clip-rule="evenodd"/></svg>