<svg xmlns="http://www.w3.org/2000/svg" width="33" height="32" fill="none" viewBox="0 0 33 32"><path fill="#111827" fill-rule="evenodd" d="M10.308 0a1 1 0 0 0-.707.293L.809 9.065a1 1 0 0 0-.294.707l-.014 12.42a1 1 0 0 0 .292.707l8.772 8.792a1 1 0 0 0 .707.294l12.42.014a1 1 0 0 0 .707-.292l8.792-8.772a1 1 0 0 0 .294-.707l.014-12.42a1 1 0 0 0-.292-.707L23.435.309a1 1 0 0 0-.707-.294zM2.515 10.189l8.205-8.187 11.592.013 8.187 8.206-.014 11.591-8.205 8.187-11.592-.013-8.187-8.205zM16.5 7.5a1 1 0 0 1 1 1v8.75a1 1 0 1 1-2 0V8.5a1 1 0 0 1 1-1m0 17.25a1.875 1.875 0 1 0 0-3.75 1.875 1.875 0 0 0 0 3.75" clip-rule="evenodd"/></svg>