<svg xmlns="http://www.w3.org/2000/svg" width="325" height="31" fill="none"><path fill="#111827" d="M8.48 29.5.16.7h3.06l6.74 23.78L16.66.72 19.74.7l6.74 23.78L33.18.7h3.08l-8.3 28.8H25L18.2 5.88 11.44 29.5H8.48Zm38 .6c-2.108 0-3.934-.467-5.48-1.4-1.534-.933-2.728-2.247-3.58-3.94-.854-1.693-1.28-3.68-1.28-5.96 0-2.36.42-4.4 1.26-6.12.84-1.72 2.02-3.047 3.54-3.98 1.532-.933 3.34-1.4 5.42-1.4 2.132 0 3.952.493 5.46 1.48 1.506.973 2.646 2.373 3.42 4.2.772 1.827 1.126 4.007 1.06 6.54h-3v-1.04c-.054-2.8-.66-4.913-1.82-6.34-1.148-1.427-2.828-2.14-5.04-2.14-2.32 0-4.1.753-5.34 2.26-1.228 1.507-1.84 3.653-1.84 6.44 0 2.72.612 4.833 1.84 6.34 1.24 1.493 2.992 2.24 5.26 2.24 1.546 0 2.892-.353 4.04-1.06 1.16-.72 2.072-1.753 2.74-3.1l2.74 1.06c-.854 1.88-2.114 3.34-3.78 4.38-1.654 1.027-3.528 1.54-5.62 1.54Zm-8.26-10.58v-2.46h16.5v2.46h-16.5ZM66.526 30.1c-1.627 0-2.994-.293-4.1-.88-1.093-.587-1.913-1.367-2.46-2.34a6.384 6.384 0 0 1-.82-3.18c0-1.173.233-2.173.7-3a5.977 5.977 0 0 1 1.94-2.06c.827-.533 1.78-.94 2.86-1.22 1.093-.267 2.3-.5 3.62-.7a90.906 90.906 0 0 1 3.9-.54c1.28-.16 2.4-.313 3.36-.46l-1.04.64c.04-2.133-.373-3.713-1.24-4.74-.867-1.027-2.373-1.54-4.52-1.54-1.48 0-2.734.333-3.76 1-1.014.667-1.727 1.72-2.14 3.16l-2.86-.84c.493-1.933 1.486-3.433 2.98-4.5 1.493-1.067 3.433-1.6 5.82-1.6 1.973 0 3.647.373 5.02 1.12 1.386.733 2.366 1.8 2.94 3.2.266.627.44 1.327.52 2.1.08.773.12 1.56.12 2.36V29.5h-2.62v-5.42l.76.32c-.734 1.853-1.874 3.267-3.42 4.24-1.547.973-3.4 1.46-5.56 1.46Zm.34-2.54c1.373 0 2.573-.247 3.6-.74 1.026-.493 1.853-1.167 2.48-2.02a6.93 6.93 0 0 0 1.22-2.92c.16-.693.246-1.453.26-2.28.013-.84.02-1.467.02-1.88l1.12.58c-1 .133-2.087.267-3.26.4-1.16.133-2.307.287-3.44.46-1.12.173-2.133.38-3.04.62a8.239 8.239 0 0 0-1.78.74 4.108 4.108 0 0 0-1.42 1.24c-.36.52-.54 1.167-.54 1.94 0 .627.153 1.233.46 1.82.32.587.827 1.073 1.52 1.46.707.387 1.64.58 2.8.58Zm27.466 1.94a14.396 14.396 0 0 1-3.6.3c-1.173-.053-2.226-.307-3.16-.76-.92-.453-1.62-1.16-2.1-2.12-.386-.8-.6-1.607-.64-2.42a88.621 88.621 0 0 1-.04-2.82V1.9h2.92v19.66c0 .907.007 1.667.02 2.28.027.6.167 1.133.42 1.6.48.893 1.24 1.427 2.28 1.6 1.054.173 2.354.133 3.9-.12v2.58Zm-14.16-19.08V7.9h14.16v2.52h-14.16ZM114.19 29.5V18.48c0-1.2-.113-2.3-.34-3.3-.227-1.013-.593-1.893-1.1-2.64a5.026 5.026 0 0 0-1.94-1.76c-.787-.413-1.747-.62-2.88-.62-1.04 0-1.96.18-2.76.54-.787.36-1.453.88-2 1.56-.533.667-.94 1.48-1.22 2.44s-.42 2.053-.42 3.28l-2.08-.46c0-2.213.387-4.073 1.16-5.58.773-1.507 1.84-2.647 3.2-3.42 1.36-.773 2.92-1.16 4.68-1.16 1.293 0 2.42.2 3.38.6.973.4 1.793.94 2.46 1.62.68.68 1.227 1.46 1.64 2.34.413.867.713 1.793.9 2.78.187.973.28 1.947.28 2.92V29.5h-2.96Zm-15.62 0V.7h2.66v16.26h.3V29.5h-2.96Zm32.91.6c-2.107 0-3.933-.467-5.48-1.4-1.533-.933-2.727-2.247-3.58-3.94-.853-1.693-1.28-3.68-1.28-5.96 0-2.36.42-4.4 1.26-6.12.84-1.72 2.02-3.047 3.54-3.98 1.533-.933 3.34-1.4 5.42-1.4 2.133 0 3.953.493 5.46 1.48 1.507.973 2.647 2.373 3.42 4.2.773 1.827 1.127 4.007 1.06 6.54h-3v-1.04c-.053-2.8-.66-4.913-1.82-6.34-1.147-1.427-2.827-2.14-5.04-2.14-2.32 0-4.1.753-5.34 2.26-1.227 1.507-1.84 3.653-1.84 6.44 0 2.72.613 4.833 1.84 6.34 1.24 1.493 2.993 2.24 5.26 2.24 1.547 0 2.893-.353 4.04-1.06 1.16-.72 2.073-1.753 2.74-3.1l2.74 1.06c-.853 1.88-2.113 3.34-3.78 4.38-1.653 1.027-3.527 1.54-5.62 1.54Zm-8.26-10.58v-2.46h16.5v2.46h-16.5Zm22.519 9.98V7.9h2.64v5.2l-.52-.68c.24-.64.553-1.227.94-1.76a6.07 6.07 0 0 1 1.26-1.34 5.696 5.696 0 0 1 1.96-1.12c.746-.267 1.5-.42 2.26-.46.76-.053 1.453 0 2.08.16v2.76c-.787-.2-1.647-.247-2.58-.14-.934.107-1.794.48-2.58 1.12a5.366 5.366 0 0 0-1.62 2.02c-.36.773-.6 1.6-.72 2.48-.12.867-.18 1.727-.18 2.58V29.5h-2.94Zm31.681.6c-1.6 0-3.086-.227-4.46-.68-1.36-.467-2.5-1.193-3.42-2.18a7.598 7.598 0 0 1-1.6-2.58c-.346-.96-.54-1.973-.58-3.04a9.835 9.835 0 0 1 .44-3.02c.307-1 .787-1.887 1.44-2.66.387-.48.82-.88 1.3-1.2.494-.32 1-.593 1.52-.82-1-1.04-1.766-2-2.3-2.88-.52-.893-.78-1.987-.78-3.28 0-1.48.374-2.833 1.12-4.06a6.978 6.978 0 0 1 3.14-2.74 8.519 8.519 0 0 1 2.08-.64c.72-.133 1.434-.2 2.14-.2 1.08 0 2.14.153 3.18.46 1.04.293 1.927.76 2.66 1.4.494.387.927.847 1.3 1.38.374.52.667 1.067.88 1.64l-2.84.84a4.124 4.124 0 0 0-1.4-1.82 4.486 4.486 0 0 0-1.76-.84 8.29 8.29 0 0 0-1.98-.24c-1.133 0-2.16.22-3.08.66-.8.4-1.4.953-1.8 1.66-.4.707-.6 1.533-.6 2.48 0 .813.134 1.487.4 2.02.267.52.654 1.087 1.16 1.7.294.32.62.647.98.98.36.32.727.653 1.1 1l9.12 8.46c.054-.373.087-.733.1-1.08.014-.36.02-.713.02-1.06l-.02-4.22h2.78v4.42c0 1.053-.04 1.913-.12 2.58-.08.667-.186 1.22-.32 1.66l3.72 3.42-1.94 2.06-3.18-3c-.44.573-1 1.087-1.68 1.54a9.663 9.663 0 0 1-2 1.06c-.72.32-1.48.533-2.28.64-.8.12-1.613.18-2.44.18Zm.04-2.84c.76 0 1.447-.047 2.06-.14a5.572 5.572 0 0 0 1.76-.58c.707-.373 1.234-.72 1.58-1.04.347-.333.627-.627.84-.88l-9.36-8.56a6.783 6.783 0 0 0-1.58.72c-.48.293-.893.647-1.24 1.06a4.816 4.816 0 0 0-.86 1.66 6.924 6.924 0 0 0-.28 1.98c.027.733.147 1.413.36 2.04.227.613.56 1.16 1 1.64.627.733 1.467 1.267 2.52 1.6 1.054.333 2.12.5 3.2.5Zm24.763 2.24V.7h2.96l15.86 23.6V.7h2.96v28.8h-2.96l-15.86-23.62V29.5h-2.96Zm33.563.6c-1.627 0-2.994-.293-4.1-.88-1.094-.587-1.914-1.367-2.46-2.34a6.381 6.381 0 0 1-.82-3.18c0-1.173.233-2.173.7-3a5.972 5.972 0 0 1 1.94-2.06c.826-.533 1.78-.94 2.86-1.22 1.093-.267 2.3-.5 3.62-.7a90.775 90.775 0 0 1 3.9-.54c1.28-.16 2.4-.313 3.36-.46l-1.04.64c.04-2.133-.374-3.713-1.24-4.74-.867-1.027-2.374-1.54-4.52-1.54-1.48 0-2.734.333-3.76 1-1.014.667-1.727 1.72-2.14 3.16l-2.86-.84c.493-1.933 1.486-3.433 2.98-4.5 1.493-1.067 3.433-1.6 5.82-1.6 1.973 0 3.646.373 5.02 1.12 1.386.733 2.366 1.8 2.94 3.2.266.627.44 1.327.52 2.1.08.773.12 1.56.12 2.36V29.5h-2.62v-5.42l.76.32c-.734 1.853-1.874 3.267-3.42 4.24-1.547.973-3.4 1.46-5.56 1.46Zm.34-2.54c1.373 0 2.573-.247 3.6-.74 1.026-.493 1.853-1.167 2.48-2.02a6.942 6.942 0 0 0 1.22-2.92c.16-.693.246-1.453.26-2.28.013-.84.02-1.467.02-1.88l1.12.58c-1 .133-2.087.267-3.26.4-1.16.133-2.307.287-3.44.46a29.63 29.63 0 0 0-3.04.62 8.22 8.22 0 0 0-1.78.74 4.1 4.1 0 0 0-1.42 1.24c-.36.52-.54 1.167-.54 1.94 0 .627.153 1.233.46 1.82.32.587.826 1.073 1.52 1.46.706.387 1.64.58 2.8.58Zm27.466 1.94a14.394 14.394 0 0 1-3.6.3c-1.173-.053-2.226-.307-3.16-.76-.92-.453-1.62-1.16-2.1-2.12-.386-.8-.6-1.607-.64-2.42a90.441 90.441 0 0 1-.04-2.82V1.9h2.92v19.66c0 .907.007 1.667.02 2.28.027.6.167 1.133.42 1.6.48.893 1.24 1.427 2.28 1.6 1.054.173 2.354.133 3.9-.12v2.58Zm-14.16-19.08V7.9h14.16v2.52h-14.16Zm26.676 19.62c-1.293 0-2.427-.2-3.4-.6-.96-.4-1.78-.94-2.46-1.62a8.528 8.528 0 0 1-1.62-2.32 11.722 11.722 0 0 1-.9-2.78 15.759 15.759 0 0 1-.28-2.94V7.9h2.96v11.02c0 1.187.113 2.287.34 3.3.227 1.013.587 1.9 1.08 2.66a5.284 5.284 0 0 0 1.94 1.74c.8.413 1.767.62 2.9.62 1.04 0 1.953-.18 2.74-.54.8-.36 1.467-.873 2-1.54.547-.68.96-1.5 1.24-2.46.28-.973.42-2.067.42-3.28l2.08.46c0 2.213-.387 4.073-1.16 5.58-.773 1.507-1.84 2.647-3.2 3.42-1.36.773-2.92 1.16-4.68 1.16Zm7.26-.54v-5.32h-.3V7.9h2.94v21.6h-2.64Zm8.23 0V7.9h2.64v5.2l-.52-.68c.24-.64.553-1.227.94-1.76a6.117 6.117 0 0 1 1.26-1.34 5.696 5.696 0 0 1 1.96-1.12c.747-.267 1.5-.42 2.26-.46.76-.053 1.453 0 2.08.16v2.76c-.787-.2-1.647-.247-2.58-.14-.933.107-1.793.48-2.58 1.12a5.366 5.366 0 0 0-1.62 2.02c-.36.773-.6 1.6-.72 2.48-.12.867-.18 1.727-.18 2.58V29.5h-2.94Zm23.163.6c-2.106 0-3.933-.467-5.48-1.4-1.533-.933-2.726-2.247-3.58-3.94-.853-1.693-1.28-3.68-1.28-5.96 0-2.36.42-4.4 1.26-6.12.84-1.72 2.02-3.047 3.54-3.98 1.534-.933 3.34-1.4 5.42-1.4 2.134 0 3.954.493 5.46 1.48 1.507.973 2.647 2.373 3.42 4.2.774 1.827 1.127 4.007 1.06 6.54h-3v-1.04c-.053-2.8-.66-4.913-1.82-6.34-1.146-1.427-2.826-2.14-5.04-2.14-2.32 0-4.1.753-5.34 2.26-1.226 1.507-1.84 3.653-1.84 6.44 0 2.72.614 4.833 1.84 6.34 1.24 1.493 2.994 2.24 5.26 2.24 1.547 0 2.894-.353 4.04-1.06 1.16-.72 2.074-1.753 2.74-3.1l2.74 1.06c-.853 1.88-2.113 3.34-3.78 4.38-1.653 1.027-3.526 1.54-5.62 1.54Zm-8.26-10.58v-2.46H323v2.46h-16.5Z"/></svg>