<svg xmlns="http://www.w3.org/2000/svg" width="33" height="33" fill="none" viewBox="0 0 33 33"><path fill="#111827" fill-rule="evenodd" d="M6.25 14c0-5.66 4.59-10.25 10.25-10.25S26.75 8.34 26.75 14c0 5.659-4.586 10.246-10.244 10.25h-.012C10.836 24.245 6.25 19.658 6.25 14Zm22.5 0c0 6.428-4.953 11.7-11.25 12.21v3.039h13.999a1 1 0 1 1 0 2H1.501a1 1 0 1 1 0-2H15.5v-3.04C9.203 25.7 4.25 20.43 4.25 14c0-6.765 5.485-12.25 12.25-12.25S28.75 7.236 28.75 14ZM12.5 14a4 4 0 1 1 8 0 4 4 0 0 1-8 0Zm4-6a6 6 0 1 0 0 12 6 6 0 0 0 0-12Z" clip-rule="evenodd"/></svg>