<svg xmlns="http://www.w3.org/2000/svg" width="33" height="32" fill="none"><path fill="#111827" fill-rule="evenodd" d="M18.642 3.277a5.361 5.361 0 0 0-4.25 9.692 1 1 0 0 1-.09 1.73l-3.729 6.152a3.812 3.812 0 1 1-1.73-1.005l3.566-5.882a7.361 7.361 0 1 1 11.759-2.822 1 1 0 1 1-1.864-.726 5.36 5.36 0 0 0-3.662-7.139Zm-9.94 18.647a1.813 1.813 0 1 0 .12.069 1.014 1.014 0 0 1-.12-.069Zm9.506-9.749a3.812 3.812 0 1 1 1.751-.966l2.856 5.335A7.362 7.362 0 1 1 19.8 28.6a1 1 0 0 1 1.45-1.377 5.361 5.361 0 1 0 1.54-8.512 1 1 0 0 1-1.367-.53l-3.214-6.005Zm3.983 14.05a3.794 3.794 0 0 1-.984-1.695h-6.061a7.363 7.363 0 0 1-11.81 4.737A7.36 7.36 0 0 1 5.854 16.38a1 1 0 1 1 .545 1.924 5.36 5.36 0 1 0 6.821 5.32.999.999 0 0 1 .072-.343 1 1 0 0 1 .969-.75h6.945a3.812 3.812 0 1 1 .984 3.696ZM15.496 8.47a1.812 1.812 0 1 1 3.624 0 1.812 1.812 0 0 1-3.624 0Zm10.672 13.779a1.812 1.812 0 1 0-2.563 2.563 1.812 1.812 0 0 0 2.563-2.563Z" clip-rule="evenodd"/></svg>