<svg xmlns="http://www.w3.org/2000/svg" width="33" height="32" fill="none"><path fill="#111827" fill-rule="evenodd" d="M17.382 1.91A14.118 14.118 0 0 0 4.349 23.187a.94.94 0 0 1 .105.754l-1.487 5.204a.314.314 0 0 0 .388.388l5.204-1.487a.941.941 0 0 1 .753.105 14.118 14.118 0 1 0 8.07-26.241Zm-8.69 28.056a16 16 0 1 0-6.158-6.159l-1.377 4.82a2.196 2.196 0 0 0 2.716 2.716l4.82-1.377Zm3.42-21.191a3.45 3.45 0 0 0-3.453 3.437A11.613 11.613 0 0 0 20.286 23.84a3.466 3.466 0 0 0 3.44-3.456l.94.003h-.94a.14.14 0 0 0-.072-.122l-3.21-1.835a.315.315 0 0 0-.318.003l-2.456 1.474a.941.941 0 0 1-.87.05 8.503 8.503 0 0 1-4.26-4.258.941.941 0 0 1 .052-.87l1.473-2.456a.315.315 0 0 0 .004-.318l-1.835-3.21a.14.14 0 0 0-.123-.071Zm0-1.883a5.331 5.331 0 0 0-5.335 5.315v.001a13.495 13.495 0 0 0 13.515 13.515h.005a5.348 5.348 0 0 0 5.31-5.333v-.002a2.023 2.023 0 0 0-1.019-1.757l-3.21-1.834a2.196 2.196 0 0 0-2.22.023l-2.016 1.21a6.62 6.62 0 0 1-2.672-2.673l1.21-2.015a2.197 2.197 0 0 0 .023-2.22l-1.835-3.21a2.022 2.022 0 0 0-1.756-1.02Z" clip-rule="evenodd"/></svg>