<svg xmlns="http://www.w3.org/2000/svg" width="33" height="33" fill="none" viewBox="0 0 33 33"><path fill="#111827" fill-rule="evenodd" d="M10.003 2.5a1.941 1.941 0 1 0 0 3.883 1.941 1.941 0 0 0 0-3.882M6.062 4.443a3.941 3.941 0 1 1 5.087 3.772v3.463h8.265a1 1 0 1 1 0 2h-8.265v3.409h11.624a1 1 0 0 1 .89.543l4.34 8.449 2.908-.986a1 1 0 1 1 .642 1.894l-3.725 1.263a1 1 0 0 1-1.21-.49l-4.455-8.673H10.149a1 1 0 0 1-1-1v-4.16a8.41 8.41 0 1 0 10.425 8.687 1 1 0 1 1 1.996.125A10.41 10.41 0 1 1 9.15 11.877V8.29a3.94 3.94 0 0 1-3.087-3.848" clip-rule="evenodd"/></svg>