<svg xmlns="http://www.w3.org/2000/svg" width="33" height="32" fill="none" viewBox="0 0 33 32"><path fill="#111827" fill-rule="evenodd" d="M16.5 13.128a13.391 13.391 0 0 0-9.358 3.813 1 1 0 1 1-1.397-1.43 15.39 15.39 0 0 1 21.511 0 1 1 0 1 1-1.398 1.43 13.391 13.391 0 0 0-9.358-3.813Zm0 6.995a6.4 6.4 0 0 0-4.42 1.772A1 1 0 0 1 10.7 20.45a8.4 8.4 0 0 1 11.603 0 1 1 0 1 1-1.382 1.446 6.4 6.4 0 0 0-4.42-1.772Zm1.75 5.994a1.749 1.749 0 1 1-3.497 0 1.749 1.749 0 0 1 3.497 0Z" clip-rule="evenodd"/></svg>