<svg xmlns="http://www.w3.org/2000/svg" width="33" height="32" fill="none" viewBox="0 0 33 32"><path fill="#111827" fill-rule="evenodd" d="M4.17 2.436a1 1 0 0 1 1.413.068L9.126 6.4l.034.038 5.155 5.67.03.032 7.617 8.38.03.034L28.9 28.15a1 1 0 1 1-1.48 1.345l-6.874-7.562a6.405 6.405 0 0 0-8.465.336 1 1 0 1 1-1.381-1.447 8.4 8.4 0 0 1 6.772-2.27l-4.23-4.653a13.27 13.27 0 0 0-6.097 3.414 1 1 0 1 1-1.402-1.427 15.3 15.3 0 0 1 5.999-3.637L8.142 8.291a20.3 20.3 0 0 0-5.938 4.074 1 1 0 1 1-1.406-1.421 22.3 22.3 0 0 1 5.936-4.202L4.104 3.85a1 1 0 0 1 .067-1.413m26.626 9.93a20.26 20.26 0 0 0-14.294-5.858H16.5c-.97 0-1.94.068-2.9.204a1 1 0 1 1-.28-1.98 23 23 0 0 1 3.18-.224h-.002l.002 1v-1a22.26 22.26 0 0 1 15.702 6.435 1 1 0 0 1-1.406 1.422m-11.75.325a1 1 0 0 1 1.212-.727 15.27 15.27 0 0 1 7 3.923 1 1 0 0 1-1.402 1.427 13.26 13.26 0 0 0-6.083-3.41 1 1 0 0 1-.727-1.213m-.796 13.8a1.749 1.749 0 1 1-3.498.001 1.749 1.749 0 0 1 3.498 0" clip-rule="evenodd"/></svg>