<svg width="32" height="33" fill="none" xmlns="http://www.w3.org/2000/svg"><path d="M4 16.55h21.343A2.664 2.664 0 0 0 28 13.886v0a2.647 2.647 0 0 0-2.64-2.648v0a2.64 2.64 0 0 0-2.64 2.64v.035M4 11.237h10.729a2.664 2.664 0 0 0 2.657-2.666v0a2.647 2.647 0 0 0-2.64-2.648v0a2.64 2.64 0 0 0-2.64 2.64v.035M4 21.763h10.729a2.664 2.664 0 0 1 2.657 2.665v0a2.647 2.647 0 0 1-2.64 2.649v0a2.64 2.64 0 0 1-2.64-2.64V24.4" stroke="#1C1B1F" stroke-width="2" stroke-linecap="round" stroke-linejoin="round"/></svg>