<svg xmlns="http://www.w3.org/2000/svg" width="33" height="32" fill="none" viewBox="0 0 33 32"><path fill="#111827" fill-rule="evenodd" d="M32.499 1a1 1 0 0 0-1.18-.983l-13.636 2.5a1 1 0 0 0-.82.984v9.772a1 1 0 0 0 1 1H31.5a1 1 0 0 0 1-1zM18.863 12.274V4.334L30.5 2.201v10.072zm-1 5.454a1 1 0 0 0-1 1v9.772a1 1 0 0 0 .82.984l13.636 2.5a1 1 0 0 0 1.18-.984V18.727a1 1 0 0 0-1-1zm1 9.939v-7.939H30.5v10.072zM.501 18.727a1 1 0 0 1 1-1h10.908a1 1 0 0 1 1 1v8.801a1 1 0 0 1-1.223.975l-10.909-2.5a1 1 0 0 1-.776-.975zm2 1v4.505l8.908 2.041v-6.546zM13.409 4.472a1 1 0 0 0-1.223-.975l-10.909 2.5a1 1 0 0 0-.776.975v6.301a1 1 0 0 0 1 1h10.908a1 1 0 0 0 1-1zM2.501 12.273V7.769l8.908-2.042v6.546z" clip-rule="evenodd"/></svg>