<svg xmlns="http://www.w3.org/2000/svg" width="33" height="33" fill="none" viewBox="0 0 33 33"><path fill="#111827" fill-rule="evenodd" d="M9.817.5A1.5 1.5 0 0 0 8.39 1.54L4.63 13.172a1 1 0 0 0-.05.323c0 5.98 4.826 10.834 10.797 10.878V30.5h-4.804a1 1 0 1 0 0 2H22.18a1 1 0 1 0 0-2h-4.803v-6.125h.165c6.008 0 10.878-4.87 10.878-10.878q0-.18-.06-.348L24.274 1.504A1.5 1.5 0 0 0 22.859.5zm5.642 21.874A8.88 8.88 0 0 1 6.58 13.64l.137-.425c1.364-.693 4.552-1.724 9.211.606 4.8 2.4 8.407 1.715 10.41.877a8.88 8.88 0 0 1-8.797 7.675zm10.599-9.747c-1.359.699-4.559 1.744-9.234-.594-4.02-2.01-7.208-1.856-9.317-1.258L10.181 2.5h12.323z" clip-rule="evenodd"/></svg>