<svg xmlns="http://www.w3.org/2000/svg" width="33" height="32" fill="none" viewBox="0 0 33 32"><g clip-path="url(#a)"><path fill="#111827" fill-rule="evenodd" d="M18.378.704 15.639.078c.205 0 .425-.015.673-.031.32-.022.686-.047 1.127-.047 1.643 0 2.973.548 4.225 1.252.173.086.322.269.474.454.122.15.247.302.386.406.626.235 1.252.392 1.878.313v-.234c.704.156 1.409.939 1.409 1.486h-3.208c-.079 0-.235.079-.313.157.078.078.235.234.313.234q.222-.001.478-.008c.55-.015 1.193-.033 1.79.087l-.033.057c-.245.41-.696 1.17-1.218.647 0-.157-3.052-.078-3.834.078-.156 0-.313.313-.235.47.35.85 1.182 1.381 1.96 1.878.438.28.86.55 1.17.86 2.19 1.721 2.895 3.286 2.425 6.26-1.175 4.633-3.024 5.415-6.625 6.94-.473.2-.976.412-1.512.648-1.33.626-2.112 2.113-1.877 3.6.547 3.207 5.633 4.068 6.65.312.313-1.486-.078-3.599-2.895-4.224a25 25 0 0 0 3.521-1.878q.235-.235.47 0c3.13 2.895 3.912 8.215-1.252 11.345-3.678 2.034-8.294.313-9.78-3.6-1.487-3.99.86-8.293 5.007-9.154 2.973-.469 6.025-3.599 4.694-6.493-.59-1.3-2.295-2.599-3.734-3.696-.468-.356-.908-.692-1.273-.999-.206-.124-.543-.095-.918-.064-.337.029-.705.06-1.038-.014.156-.118.252-.234.347-.351s.19-.234.347-.351c-.704-.434-1.141-.493-1.68-.566-.24-.033-.5-.068-.813-.14.234-.47 1.247-1.017 1.951-1.095q-.03-.304-.048-.534c-.077-.967-.084-1.06-1.434-1.736.803-.535 1.512-.416 2.201-.301.721.12 1.42.237 2.18-.403-.938-.313-1.877-.626-2.738-1.174.44.03.874.108 1.306.186.716.129 1.428.257 2.161.16zm-6.572 20.108c-3.756-2.347-3.99-8.294.234-10.876 3.13-1.956 6.65-1.251 8.998 2.191.313.548.313 1.409.156 2.034-.625 2.113-2.19 3.287-4.303 3.756a3.3 3.3 0 0 0 1.252-1.956c.704-4.382-6.103-4.85-5.79-.156-.078 1.33.94 2.268 2.895 2.581-1.017.626-1.878 1.174-2.816 2.348-.157.234-.313.234-.626.078m-.944 3.394c-1.204.226-2.474.463-3.673.987.548-2.269 2.504-3.834 4.851-3.834-.626.783-.938 1.8-1.017 2.817zM20.956 2.61l.235.235-.313.157c-.157.078-.235 0-.313-.079-.157-.234.313-.39.39-.313" clip-rule="evenodd"/></g><defs><clipPath id="a"><path fill="#fff" d="M.5 0h32v32H.5z"/></clipPath></defs></svg>