<svg xmlns="http://www.w3.org/2000/svg" width="33" height="32" fill="none"><path fill="#111827" fill-rule="evenodd" d="M24.087 2.199a8.207 8.207 0 0 0-7.607 2.207 8.211 8.211 0 0 0-2.009 8.337 1 1 0 0 1-.225 1.07L3.42 24.64a3.14 3.14 0 1 0 4.44 4.44l10.576-10.576a1 1 0 0 1 1.219-.51l.043.014.019.006a8.212 8.212 0 0 0 8.377-1.994 8.207 8.207 0 0 0 2.207-7.607l-3.365 3.365a4.394 4.394 0 1 1-6.214-6.214l3.364-3.365Zm2.553.258a1 1 0 0 0-.312-1.626 10.215 10.215 0 0 0-11.262 2.16 10.208 10.208 0 0 0-2.654 9.829L2.006 23.225a5.14 5.14 0 0 0 7.269 7.269L19.68 20.088c3.396.893 7.164.01 9.828-2.654a10.215 10.215 0 0 0 2.16-11.262 1 1 0 0 0-1.625-.312l-.009-.008-4.512 4.512a2.394 2.394 0 0 1-3.386-3.386l4.512-4.512-.008-.009Z" clip-rule="evenodd"/></svg>