<svg xmlns="http://www.w3.org/2000/svg" width="33" height="32" fill="none" viewBox="0 0 33 32"><path fill="#111827" fill-rule="evenodd" d="M.501 1a1 1 0 0 1 1-1h29.998a1 1 0 0 1 1 1v30a1 1 0 0 1-1 1H1.501a1 1 0 0 1-1-1V1Zm2 1v28h27.998V2H2.501Zm2.773 16.997a1 1 0 0 1 1.39.256l1.304 1.894 1.304-1.893a1 1 0 1 1 1.647 1.134L9.182 22.91l1.737 2.523a1 1 0 0 1-1.647 1.134l-1.304-1.893-1.303 1.893a1 1 0 0 1-1.648-1.134l1.737-2.523-1.737-2.522a1 1 0 0 1 .257-1.391Zm10.39-2.636a1.44 1.44 0 1 0-.161 2.872h.039a1.446 1.446 0 0 0 1.093-.526 1.44 1.44 0 0 0 .327-.913v-.001a1.433 1.433 0 0 0-.42-1.016l-.002-.001a1.44 1.44 0 0 0-.877-.415Zm2.364 3.79a3.44 3.44 0 0 0 .934-2.355l-1-.002h1a3.432 3.432 0 0 0-1.008-2.433 3.44 3.44 0 0 0-4.938 4.79 3.884 3.884 0 1 0 6.39 2.966v.001l-1-.001h1a3.873 3.873 0 0 0-1.378-2.967Zm-2.527 1.082h.042a1.883 1.883 0 0 1 1.31.552h.002a1.875 1.875 0 0 1 .55 1.33v.002a1.883 1.883 0 1 1-1.904-1.884Zm9.953-6.738a1 1 0 0 1 .346 1.371l-1.746 2.924a4.105 4.105 0 1 1-3.47 1.91l3.499-5.859a1 1 0 0 1 1.37-.346Zm-3.24 7.378a2.105 2.105 0 1 0 .07-.116l-.06.098-.01.018ZM6 4.501a.5.5 0 0 1 .5.5v3.06a.5.5 0 0 1-1 0V5a.5.5 0 0 1 .5-.5Zm3.5.5a.5.5 0 0 0-1 0v3.06a.5.5 0 0 0 1 0V5Zm2.5-.5a.5.5 0 0 1 .5.5v3.06a.5.5 0 0 1-1 0V5a.5.5 0 0 1 .5-.5Zm3.5.5a.5.5 0 0 0-1 0v3.06a.5.5 0 0 0 1 0V5Zm2.5-.5a.5.5 0 0 1 .5.5v3.06a.5.5 0 0 1-1 0V5a.5.5 0 0 1 .5-.5Zm3.5.5a.5.5 0 0 0-1 0v3.06a.5.5 0 0 0 1 0V5Zm2.5-.5a.5.5 0 0 1 .5.5v3.06a.5.5 0 0 1-1 0V5a.5.5 0 0 1 .5-.5Zm3.5.5a.5.5 0 0 0-1 0v3.06a.5.5 0 0 0 1 0V5Z" clip-rule="evenodd"/></svg>