<svg xmlns="http://www.w3.org/2000/svg" width="33" height="32" fill="none" viewBox="0 0 33 32"><path fill="#111827" fill-rule="evenodd" d="M16.5 2c-7.732 0-14 6.268-14 14 0 7.731 6.268 13.999 14 13.999 7.731 0 13.999-6.268 13.999-14 0-7.73-6.268-13.998-14-13.998ZM.5 16c0-8.836 7.164-16 16-16s15.999 7.164 15.999 16-7.163 15.999-16 15.999c-8.835 0-15.998-7.163-15.998-16Zm21.707-5.707a1 1 0 0 1 0 1.414L17.914 16l4.293 4.293a1 1 0 1 1-1.415 1.414L16.5 17.414l-4.293 4.293a1 1 0 1 1-1.414-1.415L15.086 16l-4.293-4.293a1 1 0 0 1 1.414-1.414l4.293 4.293 4.293-4.293a1 1 0 0 1 1.414 0Z" clip-rule="evenodd"/></svg>