<svg xmlns="http://www.w3.org/2000/svg" width="33" height="32" fill="none" viewBox="0 0 33 32"><path fill="#111827" d="m2.28 24.104.97-.247-.002-.005-.968.252Zm0-16.208.968.252.001-.005-.969-.247Zm1.39-1.571L3.31 5.39l-.005.002.364.932ZM16.5 4.52l-.006 1h.012l-.006-1Zm12.83 1.805.364-.932-.005-.002-.359.934Zm.885.618-.75.662.75-.662Zm.505.953-.97.247.002.005.968-.252Zm0 16.208-.968-.252-.002.005.97.247Zm-.505.954.749.662-.75-.662Zm-.885.617.359.934.005-.002-.364-.932ZM16.5 27.48l.006-1h-.012l.006 1ZM3.67 25.675l-.364.932.005.002.359-.934Zm-.885-.617.75-.663-.75.663ZM21.59 16l.53.849a1 1 0 0 0 0-1.697l-.53.848Zm-7.398-4.615.53-.849a1 1 0 0 0-1.53.849h1Zm0 9.23h-1a1 1 0 0 0 1.53.849l-.53-.848ZM.5 16c0 4.359.45 6.964.813 8.356l1.935-.504C2.937 22.656 2.5 20.225 2.5 16h-2Zm.813-8.356C.95 9.036.5 11.641.5 16h2c0-4.224.437-6.656.748-7.852l-1.935-.504Zm.723-1.364a3.296 3.296 0 0 0-.725 1.37l1.938.493c.051-.2.149-.384.285-.538L2.036 6.28Zm1.27-.887c-.488.191-.923.495-1.27.887l1.498 1.325c.137-.154.308-.274.5-.349l-.728-1.863ZM16.5 4.52l.006-1h-.002a1.808 1.808 0 0 0-.096 0c-.063 0-.154 0-.271.002a61.875 61.875 0 0 0-4.325.209c-2.623.22-5.948.68-8.5 1.66l.717 1.867c2.275-.874 5.365-1.317 7.95-1.535a59.877 59.877 0 0 1 4.178-.201 30.407 30.407 0 0 1 .317-.002h.019l.007-1Zm13.189.872c-2.553-.981-5.878-1.44-8.5-1.662a61.869 61.869 0 0 0-4.326-.208 32.8 32.8 0 0 0-.367-.002h-.002l.006 1 .006 1h.02a15.276 15.276 0 0 1 .317.002 59.885 59.885 0 0 1 4.177.202c2.586.217 5.676.66 7.951 1.534l.718-1.867Zm1.275.888a3.296 3.296 0 0 0-1.27-.887l-.728 1.863c.192.075.363.195.5.35l1.498-1.326Zm.725 1.37a3.297 3.297 0 0 0-.725-1.37l-1.498 1.325c.136.154.234.339.284.538l1.939-.494ZM32.5 16c0-4.359-.45-6.964-.813-8.356l-1.935.504c.311 1.196.748 3.628.748 7.852h2Zm-.813 8.356c.363-1.392.813-3.997.813-8.356h-2c0 4.225-.437 6.656-.748 7.852l1.935.504Zm-.723 1.364c.347-.392.595-.862.725-1.369l-1.939-.494c-.05.2-.148.384-.284.538l1.498 1.325Zm-1.27.887c.488-.19.923-.495 1.27-.887l-1.498-1.325a1.295 1.295 0 0 1-.5.349l.728 1.863ZM16.5 27.48l-.006 1H16.592c.063 0 .154 0 .271-.002a61.818 61.818 0 0 0 4.325-.209c2.623-.22 5.948-.68 8.5-1.66l-.716-1.867c-2.276.874-5.366 1.317-7.952 1.535a59.803 59.803 0 0 1-4.177.201c-.11.002-.196.002-.253.002h-.083l-.007 1Zm-13.189-.871c2.553.98 5.878 1.44 8.5 1.66a61.812 61.812 0 0 0 4.326.21H16.506l-.006-1-.006-1h-.337a59.811 59.811 0 0 1-4.177-.202c-2.586-.218-5.676-.66-7.952-1.535l-.717 1.867Zm-1.275-.89c.347.393.782.697 1.27.888l.728-1.863a1.295 1.295 0 0 1-.5-.349L2.036 25.72Zm-.725-1.368c.13.507.378.977.725 1.369l1.498-1.325a1.295 1.295 0 0 1-.285-.538l-1.938.494Zm20.808-9.2-7.397-4.615-1.059 1.697 7.398 4.616 1.058-1.697Zm-7.397 6.313 7.397-4.615-1.058-1.697-7.398 4.615 1.059 1.697Zm-1.53-10.08v9.232h2v-9.231h-2Z"/></svg>