<svg width="32" height="32" fill="none" xmlns="http://www.w3.org/2000/svg"><path d="m20.072 16-5.918-3.692v7.384L20.072 16Z" stroke="#1C1B1F" stroke-width="2" stroke-linejoin="round"/><path d="M4 16c0 3.433.355 5.448.624 6.483a1.836 1.836 0 0 0 1.112 1.257C9.599 25.225 16 25.184 16 25.184s6.401.04 10.264-1.444a1.837 1.837 0 0 0 1.112-1.257c.27-1.035.624-3.05.624-6.483s-.355-5.448-.624-6.483a1.836 1.836 0 0 0-1.112-1.257C22.401 6.776 16 6.816 16 6.816S9.599 6.776 5.736 8.26a1.837 1.837 0 0 0-1.112 1.257C4.354 10.552 4 12.567 4 16Z" stroke="#1C1B1F" stroke-width="2" stroke-linecap="round" stroke-linejoin="round"/></svg>