<svg width="32" height="32" viewBox="0 0 32 32" fill="none" xmlns="http://www.w3.org/2000/svg">
<path d="M16.75 18C18.9591 18 20.75 16.2091 20.75 14C20.75 11.7909 18.9591 10 16.75 10C14.5409 10 12.75 11.7909 12.75 14C12.75 16.2091 14.5409 18 16.75 18Z" stroke="#1C1B1F" stroke-width="2" stroke-linecap="round" stroke-linejoin="round"/>
<path d="M5.25 13.5H8.25" stroke="#1C1B1F" stroke-width="2" stroke-linecap="round" stroke-linejoin="round"/>
<path d="M5.25 8.5H8.25" stroke="#1C1B1F" stroke-width="2" stroke-linecap="round" stroke-linejoin="round"/>
<path d="M5.25 18.5H8.25" stroke="#1C1B1F" stroke-width="2" stroke-linecap="round" stroke-linejoin="round"/>
<path d="M5.25 23.5H8.25" stroke="#1C1B1F" stroke-width="2" stroke-linecap="round" stroke-linejoin="round"/>
<path d="M10.7495 20.9997C11.4482 20.0684 12.3542 19.3124 13.3956 18.7918C14.437 18.2711 15.5854 18 16.7497 18C17.914 18 19.0624 18.271 20.1038 18.7916C21.1453 19.3122 22.0513 20.0681 22.75 20.9995" stroke="#1C1B1F" stroke-width="2" stroke-linecap="round" stroke-linejoin="round"/>
<rect x="6.75" y="4" width="20" height="24" stroke="#1C1B1F" stroke-width="2" stroke-linejoin="round"/>
</svg>
