<svg width="33" height="32" viewBox="0 0 33 32" fill="none" xmlns="http://www.w3.org/2000/svg">
<path fill-rule="evenodd" clip-rule="evenodd" d="M4.93824 0.000915527C4.38595 0.000915527 3.93824 0.448631 3.93824 1.00092V5.62557H3.06323C2.51095 5.62557 2.06323 6.07328 2.06323 6.62557C2.06323 7.17785 2.51095 7.62557 3.06323 7.62557H3.93824V11.8752H3.06323C2.51095 11.8752 2.06323 12.3229 2.06323 12.8752C2.06323 13.4275 2.51095 13.8752 3.06323 13.8752H3.93824V18.1248H3.06323C2.51095 18.1248 2.06323 18.5725 2.06323 19.1248C2.06323 19.6771 2.51095 20.1248 3.06323 20.1248H3.93824V24.3744H3.06323C2.51095 24.3744 2.06323 24.8221 2.06323 25.3744C2.06323 25.9267 2.51095 26.3744 3.06323 26.3744H3.93824V30.9991C3.93824 31.5514 4.38595 31.9991 4.93824 31.9991H29.9367C30.489 31.9991 30.9367 31.5514 30.9367 30.9991V1.00092C30.9367 0.448631 30.489 0.000915527 29.9367 0.000915527H4.93824ZM5.93824 26.3744V29.9991H28.9367V2.00092H5.93824V5.62557H6.813C7.36529 5.62557 7.813 6.07328 7.813 6.62557C7.813 7.17785 7.36529 7.62557 6.813 7.62557H5.93824V11.8752H6.813C7.36529 11.8752 7.813 12.3229 7.813 12.8752C7.813 13.4275 7.36529 13.8752 6.813 13.8752H5.93824V18.1248H6.813C7.36529 18.1248 7.813 18.5725 7.813 19.1248C7.813 19.6771 7.36529 20.1248 6.813 20.1248H5.93824V24.3744H6.813C7.36529 24.3744 7.813 24.8221 7.813 25.3744C7.813 25.9267 7.36529 26.3744 6.813 26.3744H5.93824ZM17.4372 9.50045C15.2283 9.50045 13.4375 11.2912 13.4375 13.5001C13.4375 15.7091 15.2283 17.4998 17.4372 17.4998C19.6462 17.4998 21.4369 15.7091 21.4369 13.5001C21.4369 11.2912 19.6462 9.50045 17.4372 9.50045ZM11.4375 13.5001C11.4375 10.1866 14.1237 7.50045 17.4372 7.50045C20.7508 7.50045 23.4369 10.1866 23.4369 13.5001C23.4369 15.4015 22.5525 17.0963 21.1725 18.1955C21.4793 18.3139 21.781 18.4471 22.0765 18.5948C23.5171 19.315 24.7703 20.3605 25.7368 21.6488C26.0682 22.0906 25.9788 22.7174 25.537 23.0489C25.0953 23.3803 24.4684 23.2909 24.137 22.8491C23.3568 21.8091 22.3452 20.9651 21.1823 20.3838C20.0194 19.8025 18.7371 19.4998 17.437 19.4999C16.1369 19.4999 14.8546 19.8026 13.6918 20.3839C12.5289 20.9653 11.5173 21.8094 10.7371 22.8494C10.4057 23.2912 9.77889 23.3807 9.3371 23.0492C8.89531 22.7178 8.80584 22.091 9.13726 21.6492C10.1037 20.3609 11.3569 19.3152 12.7974 18.595C13.093 18.4472 13.3949 18.314 13.7019 18.1955C12.322 17.0963 11.4375 15.4015 11.4375 13.5001Z" fill="#111827"/>
</svg>
