<svg width="33" height="33" viewBox="0 0 33 33" fill="none" xmlns="http://www.w3.org/2000/svg">
<path fill-rule="evenodd" clip-rule="evenodd" d="M2.91001 16.5002C2.91001 8.88124 9.08641 2.70483 16.7054 2.70483C20.3613 2.70483 23.685 4.12691 26.1536 6.44808C25.8946 6.87866 25.7456 7.38295 25.7456 7.92204C25.7456 9.50355 27.0277 10.7856 28.6092 10.7856C28.8237 10.7856 29.0328 10.762 29.2338 10.7173C30.047 12.4761 30.5008 14.4352 30.5008 16.5002C30.5008 20.2578 28.9984 23.6645 26.5617 26.1525H17.2769C17.4108 25.9824 17.4906 25.7678 17.4906 25.5346V22.368C18.3613 22.8699 19.3718 23.1575 20.4494 23.1575C23.7261 23.1575 26.3824 20.5012 26.3824 17.2245C26.3824 14.5804 24.6535 12.3418 22.2647 11.5747C21.7092 8.87327 19.3189 6.84247 16.4534 6.84247C13.5787 6.84247 11.1822 8.88641 10.6368 11.6009C8.28946 12.3917 6.59878 14.6097 6.59878 17.2245C6.59878 20.5012 9.25507 23.1575 12.5318 23.1575C13.6094 23.1575 14.6199 22.8699 15.4906 22.368V25.5346C15.4906 25.7678 15.5704 25.9824 15.7042 26.1525H6.9633V26.2677C6.33373 25.6398 5.7645 24.9514 5.26508 24.2119C5.85483 23.6874 6.22635 22.9228 6.22635 22.0715C6.22635 20.49 4.94429 19.2079 3.36278 19.2079C3.30031 19.2079 3.2383 19.2099 3.17682 19.2138C3.00181 18.3365 2.91001 17.4291 2.91001 16.5002ZM1.31503 20.0698C1.05005 18.9227 0.91001 17.7278 0.91001 16.5002C0.91001 7.77667 7.98184 0.704834 16.7054 0.704834C20.997 0.704834 24.8889 2.41639 27.7357 5.19414C28.011 5.10603 28.3045 5.05846 28.6092 5.05846C30.1907 5.05846 31.4727 6.34053 31.4727 7.92204C31.4727 8.55316 31.2686 9.13659 30.9227 9.60989C31.9337 11.6922 32.5008 14.03 32.5008 16.5002C32.5008 25.2238 25.4289 32.2956 16.7054 32.2956C11.0834 32.2956 6.14748 29.3585 3.34827 24.935C1.77344 24.9272 0.499207 23.6481 0.499207 22.0715C0.499207 21.2924 0.810299 20.5861 1.31503 20.0698ZM9.31717 28.1525C11.4531 29.5096 13.9874 30.2956 16.7054 30.2956C19.4233 30.2956 21.9577 29.5096 24.0936 28.1525H9.31717ZM27.7456 7.92204C27.7456 7.4451 28.1322 7.05846 28.6092 7.05846C29.0861 7.05846 29.4727 7.4451 29.4727 7.92204C29.4727 8.39898 29.0861 8.78561 28.6092 8.78561C28.1322 8.78561 27.7456 8.39898 27.7456 7.92204ZM12.5322 12.4689C12.688 10.4405 14.3846 8.84247 16.4534 8.84247C18.5182 8.84247 20.2123 10.4343 20.3738 12.457L20.4346 13.2183L21.185 13.36C23.0055 13.7039 24.3824 15.3045 24.3824 17.2245C24.3824 19.3967 22.6215 21.1575 20.4494 21.1575C19.2704 21.1575 18.2127 20.6397 17.4906 19.8158V18.7494L17.4908 18.7256L17.4906 18.711V17.306L19.2804 16.411C19.7744 16.1641 19.9746 15.5634 19.7277 15.0694C19.4807 14.5754 18.88 14.3752 18.386 14.6222L17.4906 15.0699V13.2851C17.4906 12.7328 17.0429 12.2851 16.4906 12.2851C15.9383 12.2851 15.4906 12.7328 15.4906 13.2851V16.6678C15.4903 16.6817 15.4903 16.6957 15.4906 16.7096V17.1114L13.3444 16.0383C12.8504 15.7913 12.2497 15.9915 12.0027 16.4855C11.7557 16.9795 11.956 17.5802 12.4499 17.8271L15.4906 19.3475V19.8158C14.7685 20.6397 13.7107 21.1575 12.5318 21.1575C10.3596 21.1575 8.59878 19.3967 8.59878 17.2245C8.59878 15.3258 9.94528 13.7393 11.7361 13.3719L12.4744 13.2204L12.5322 12.4689ZM3.36278 21.2079C2.88584 21.2079 2.49921 21.5945 2.49921 22.0715C2.49921 22.5484 2.88584 22.935 3.36278 22.935C3.83972 22.935 4.22635 22.5484 4.22635 22.0715C4.22635 21.5945 3.83972 21.2079 3.36278 21.2079Z" fill="#111827"/>
</svg>
