<svg width="33" height="32" viewBox="0 0 33 32" fill="none" xmlns="http://www.w3.org/2000/svg">
<path fill-rule="evenodd" clip-rule="evenodd" d="M5.47581 0.444384C5.23774 0.327505 4.96299 0.309987 4.712 0.395685C4.46101 0.481382 4.25434 0.663275 4.13746 0.901348L1.29689 6.68737C-0.163438 9.66195 1.0641 13.2571 4.03868 14.7175L28.5004 26.7266C28.9961 26.97 29.5953 26.7654 29.8387 26.2697L32.0895 21.685C33.063 19.7019 32.2447 17.3051 30.2616 16.3316L22.0685 12.3093L19.8594 4.23001C19.7837 3.95335 19.5929 3.72249 19.3355 3.5961L15.3221 1.62577C15.031 1.48286 14.6886 1.48998 14.4037 1.64488C14.1188 1.79977 13.9267 2.0832 13.8884 2.40522L13.2261 7.96823L10.7275 6.74155L10.1421 3.20175C10.0894 2.88313 9.88612 2.60956 9.59621 2.46724L5.47581 0.444384ZM3.09221 7.56876L5.49208 2.68039L8.25288 4.03577L8.83822 7.57556C8.8909 7.89419 9.09422 8.16775 9.38413 8.31008L13.6116 10.3855C13.9027 10.5284 14.245 10.5213 14.5299 10.3664C14.8148 10.2115 15.0069 9.92806 15.0452 9.60604L15.7075 4.04303L18.0492 5.19262L20.2583 13.2719C20.3339 13.5485 20.5247 13.7794 20.7822 13.9058L29.3802 18.1269C30.3718 18.6137 30.7809 19.8121 30.2942 20.8036L28.4841 24.4906L4.92006 12.9222C2.93701 11.9486 2.11865 9.55181 3.09221 7.56876ZM1.50012 29.658C0.947837 29.658 0.500122 30.1058 0.500122 30.658C0.500122 31.2103 0.947837 31.658 1.50012 31.658H28.0948C28.6471 31.658 29.0948 31.2103 29.0948 30.658C29.0948 30.1058 28.6471 29.658 28.0948 29.658H1.50012Z" fill="#111827"/>
</svg>
