<svg width="33" height="32" viewBox="0 0 33 32" fill="none" xmlns="http://www.w3.org/2000/svg">
<path fill-rule="evenodd" clip-rule="evenodd" d="M26.3094 5.41806C26.7681 5.11041 27.3893 5.23283 27.6969 5.69149L30.1114 9.29115L10.8643 22.2012C9.02964 23.4318 6.54477 22.9422 5.31417 21.1075L2.88851 17.4912L5.07927 16.0217L8.07141 17.147C8.37369 17.2607 8.71226 17.2214 8.98047 17.0415L12.5187 14.6682C12.788 14.4876 12.953 14.1876 12.9613 13.8634C12.9696 13.5392 12.8202 13.2311 12.5605 13.0369L8.60942 10.0823L10.4218 8.86663L17.7093 10.7795C17.9867 10.8523 18.282 10.8025 18.5202 10.6427L26.3094 5.41806ZM29.3579 4.5774C28.4349 3.20141 26.5713 2.83415 25.1953 3.7571L17.7807 8.73046L10.4933 6.81763C10.2159 6.74482 9.92053 6.79462 9.68234 6.95439L6.32328 9.20749C6.05396 9.38813 5.88897 9.68816 5.88066 10.0123C5.87234 10.3365 6.02175 10.6446 6.28146 10.8388L10.2325 13.7934L8.29375 15.0939L5.30161 13.9686C4.99933 13.8549 4.66076 13.8942 4.39255 14.0741L0.943933 16.3873C0.723676 16.535 0.571129 16.7642 0.51985 17.0244C0.468571 17.2846 0.522762 17.5545 0.6705 17.7748L3.65321 22.2216C5.49911 24.9736 9.22641 25.7081 11.9784 23.8622L32.056 10.3951C32.5147 10.0874 32.6371 9.4662 32.3294 9.00754L29.3579 4.5774ZM6.46964 26.7517C5.91735 26.7517 5.46964 27.1995 5.46964 27.7517C5.46964 28.304 5.91735 28.7517 6.46964 28.7517H31.4989C32.0512 28.7517 32.4989 28.304 32.4989 27.7517C32.4989 27.1995 32.0512 26.7517 31.4989 26.7517H6.46964Z" fill="#111827"/>
</svg>
