<svg width="33" height="32" viewBox="0 0 33 32" fill="none" xmlns="http://www.w3.org/2000/svg">
<path fill-rule="evenodd" clip-rule="evenodd" d="M10.6259 5.59668C10.3016 5.59668 9.99744 5.75393 9.80995 6.01853C9.62246 6.28313 9.57493 6.62221 9.68242 6.92817L11.233 11.3413H9.07036L7.29934 8.86187C7.11163 8.59907 6.80856 8.44311 6.48561 8.44311H2.50061C1.94833 8.44311 1.50061 8.89082 1.50061 9.44311V15.3798C1.50061 18.1412 3.73919 20.3798 6.50061 20.3798H30.4992C31.0515 20.3798 31.4992 19.9321 31.4992 19.3798V15.3413C31.4992 13.1322 29.7084 11.3413 27.4992 11.3413H20.0303L15.257 5.93483C15.0672 5.71983 14.7942 5.59668 14.5074 5.59668H10.6259ZM13.5877 12.0098L12.0372 7.59668H14.0563L18.8296 13.0032C19.0194 13.2182 19.2924 13.3413 19.5792 13.3413H27.4992C28.6038 13.3413 29.4992 14.2367 29.4992 15.3413V18.3798H6.50061C4.84376 18.3798 3.50061 17.0366 3.50061 15.3798V10.4431H5.97099L7.74201 12.9225C7.92972 13.1853 8.23279 13.3413 8.55575 13.3413H12.6443C12.9686 13.3413 13.2727 13.1841 13.4602 12.9195C13.6477 12.6549 13.6952 12.3158 13.5877 12.0098ZM7.46461 24.4033C6.91233 24.4033 6.46461 24.851 6.46461 25.4033C6.46461 25.9556 6.91233 26.4033 7.46461 26.4033H25.5352C26.0875 26.4033 26.5352 25.9556 26.5352 25.4033C26.5352 24.851 26.0875 24.4033 25.5352 24.4033H7.46461Z" fill="#111827"/>
</svg>
