<svg width="33" height="33" viewBox="0 0 33 33" fill="none" xmlns="http://www.w3.org/2000/svg">
<path fill-rule="evenodd" clip-rule="evenodd" d="M1.50085 2.37573C0.94857 2.37573 0.500854 2.82345 0.500854 3.37573V25.8744C0.500854 26.4266 0.94857 26.8744 1.50085 26.8744H5.24156C5.79384 26.8744 6.24156 26.4266 6.24156 25.8744C6.24156 25.3221 5.79384 24.8744 5.24156 24.8744H2.50085V4.37573H30.499V24.8744H27.8129C27.2607 24.8744 26.8129 25.3221 26.8129 25.8744C26.8129 26.4266 27.2607 26.8744 27.8129 26.8744H31.499C32.0513 26.8744 32.499 26.4266 32.499 25.8744V3.37573C32.499 2.82345 32.0513 2.37573 31.499 2.37573H1.50085ZM17.2592 20.2239C17.0692 20.0022 16.7919 19.8746 16.4999 19.8746C16.208 19.8746 15.9307 20.0022 15.7407 20.2239L8.24114 28.9733C7.98698 29.2698 7.92869 29.6871 8.09188 30.0419C8.25506 30.3967 8.60986 30.624 9.00039 30.624H23.9995C24.39 30.624 24.7448 30.3967 24.908 30.0419C25.0712 29.6871 25.0129 29.2698 24.7587 28.9733L17.2592 20.2239ZM16.4999 22.4112L21.8252 28.624H11.1746L16.4999 22.4112Z" fill="#111827"/>
</svg>
