<svg width="33" height="33" viewBox="0 0 33 33" fill="none" xmlns="http://www.w3.org/2000/svg">
<path fill-rule="evenodd" clip-rule="evenodd" d="M7.20772 3.22615C7.59825 2.83563 7.59825 2.20246 7.20772 1.81194C6.8172 1.42141 6.18403 1.42141 5.79351 1.81194L0.793809 6.81164C0.403284 7.20216 0.403284 7.83533 0.793809 8.22585C1.18433 8.61638 1.8175 8.61638 2.20802 8.22585L7.20772 3.22615ZM25.7923 1.81194C26.1828 1.42141 26.816 1.42141 27.2065 1.81194L32.2062 6.81164C32.5967 7.20216 32.5967 7.83533 32.2062 8.22585C31.8157 8.61638 31.1825 8.61638 30.792 8.22585L25.7923 3.22615C25.4018 2.83563 25.4018 2.20246 25.7923 1.81194ZM4.53714 17.5181C4.53714 10.9112 9.89309 5.55521 16.5 5.55521C23.1069 5.55521 28.4628 10.9112 28.4628 17.5181C28.4628 24.125 23.1069 29.4809 16.5 29.4809C9.89309 29.4809 4.53714 24.125 4.53714 17.5181ZM16.5 3.55521C8.78852 3.55521 2.53714 9.80659 2.53714 17.5181C2.53714 25.2295 8.78852 31.4809 16.5 31.4809C24.2115 31.4809 30.4628 25.2295 30.4628 17.5181C30.4628 9.80659 24.2115 3.55521 16.5 3.55521ZM17.5 9.269C17.5 8.71671 17.0523 8.269 16.5 8.269C15.9477 8.269 15.5 8.71671 15.5 9.269V17.5181C15.5 18.0704 15.9477 18.5181 16.5 18.5181H24.7491C25.3014 18.5181 25.7491 18.0704 25.7491 17.5181C25.7491 16.9658 25.3014 16.5181 24.7491 16.5181H17.5V9.269Z" fill="#111827"/>
</svg>
