<svg width="33" height="32" viewBox="0 0 33 32" fill="none" xmlns="http://www.w3.org/2000/svg">
<path fill-rule="evenodd" clip-rule="evenodd" d="M8.23272 5.4251C10.4253 3.23252 13.3991 2.00073 16.4999 2.00073C19.6007 2.00073 22.5745 3.23252 24.767 5.4251C26.9596 7.61769 28.1914 10.5915 28.1914 13.6923C28.1914 16.8817 26.3178 20.9959 23.7772 24.3728C22.5205 26.0432 21.1404 27.4786 19.8226 28.4859C18.4728 29.5177 17.3215 29.9989 16.4999 29.9989C15.6783 29.9989 14.5269 29.5177 13.1771 28.4859C11.8594 27.4786 10.4793 26.0432 9.22255 24.3728C6.68194 20.9959 4.80835 16.8817 4.80835 13.6923C4.80835 10.5915 6.04013 7.61769 8.23272 5.4251ZM16.4999 0.000732422C12.8687 0.000732422 9.38617 1.44323 6.81851 4.01089C4.25085 6.57855 2.80835 10.061 2.80835 13.6923C2.80835 17.512 4.97298 22.0511 7.62435 25.5752C8.96364 27.3554 10.468 28.9324 11.9625 30.0749C13.4251 31.1929 15.0139 31.9989 16.4999 31.9989C17.9858 31.9989 19.5747 31.1929 21.0372 30.0749C22.5318 28.9324 24.0361 27.3554 25.3754 25.5752C28.0268 22.0511 30.1914 17.512 30.1914 13.6923C30.1914 10.061 28.7489 6.57855 26.1813 4.01089C23.6136 1.44323 20.1311 0.000732422 16.4999 0.000732422ZM12.9248 18.0923C12.8766 18.1404 12.8113 18.1675 12.7432 18.1675C11.675 18.1675 10.6506 17.7432 9.89527 16.9879C9.13996 16.2325 8.71563 15.2081 8.71563 14.14V13.5115C8.71563 13.4434 8.74269 13.3781 8.79087 13.3299C8.83904 13.2817 8.90438 13.2546 8.97251 13.2546C10.0407 13.2546 11.0651 13.679 11.8204 14.4343C12.5757 15.1896 13 16.214 13 17.2822V17.9106C13 17.9787 12.973 18.0441 12.9248 18.0923ZM12.7432 20.1675C13.3417 20.1675 13.9158 19.9297 14.339 19.5065C14.7623 19.0832 15 18.5092 15 17.9106V17.2822C15 15.6836 14.365 14.1504 13.2346 13.0201C12.1042 11.8897 10.5711 11.2546 8.97251 11.2546C8.37395 11.2546 7.7999 11.4924 7.37666 11.9157C6.95341 12.3389 6.71563 12.913 6.71563 13.5115V14.14C6.71563 15.7386 7.35067 17.2717 8.48105 18.4021C9.61143 19.5325 11.1446 20.1675 12.7432 20.1675ZM24.0273 13.2549C22.9591 13.2549 21.9347 13.6792 21.1794 14.4346C20.4241 15.1899 19.9997 16.2143 19.9997 17.2825V17.9109C19.9997 17.979 20.0268 18.0444 20.075 18.0925C20.1231 18.1407 20.1885 18.1678 20.2566 18.1678C21.3248 18.1678 22.3492 17.7435 23.1045 16.9881C23.8598 16.2328 24.2841 15.2084 24.2841 14.1402V13.5118C24.2841 13.4437 24.2571 13.3783 24.2089 13.3302C24.1607 13.282 24.0954 13.2549 24.0273 13.2549ZM19.7652 13.0203C20.8955 11.89 22.4287 11.2549 24.0273 11.2549C24.6258 11.2549 25.1999 11.4927 25.6231 11.9159C26.0464 12.3392 26.2841 12.9132 26.2841 13.5118V14.1402C26.2841 15.7388 25.6491 17.272 24.5187 18.4024C23.3883 19.5327 21.8552 20.1678 20.2566 20.1678C19.6581 20.1678 19.084 19.93 18.6608 19.5068C18.2375 19.0835 17.9997 18.5095 17.9997 17.9109V17.2825C17.9997 15.6839 18.6348 14.1507 19.7652 13.0203ZM19.3465 24.9183C19.8117 24.6207 19.9474 24.0022 19.6498 23.537C19.3521 23.0718 18.7336 22.9361 18.2685 23.2337C17.4254 23.7732 16.9159 23.9393 16.4965 23.9396C16.0785 23.94 15.5718 23.7759 14.7345 23.2357C14.2704 22.9363 13.6515 23.0698 13.3521 23.5339C13.0527 23.998 13.1862 24.6169 13.6502 24.9163C14.6016 25.5301 15.5047 25.9405 16.4982 25.9396C17.4903 25.9388 18.394 25.5279 19.3465 24.9183Z" fill="#111827"/>
</svg>
