<svg width="33" height="33" viewBox="0 0 33 33" fill="none" xmlns="http://www.w3.org/2000/svg">
<path fill-rule="evenodd" clip-rule="evenodd" d="M8.23272 5.9251C10.4253 3.73252 13.3991 2.50073 16.4999 2.50073C19.6007 2.50073 22.5745 3.73252 24.767 5.9251C26.9596 8.11769 28.1914 11.0915 28.1914 14.1923C28.1914 17.3817 26.3178 21.4959 23.7772 24.8728C22.5205 26.5432 21.1404 27.9786 19.8226 28.9859C18.4728 30.0177 17.3215 30.4989 16.4999 30.4989C15.6783 30.4989 14.5269 30.0177 13.1771 28.9859C11.8594 27.9786 10.4793 26.5432 9.22255 24.8728C6.68194 21.4959 4.80835 17.3817 4.80835 14.1923C4.80835 11.0915 6.04013 8.11769 8.23272 5.9251ZM16.4999 0.500732C12.8687 0.500732 9.38617 1.94323 6.81851 4.51089C4.25085 7.07855 2.80835 10.561 2.80835 14.1923C2.80835 18.012 4.97298 22.5511 7.62435 26.0752C8.96364 27.8554 10.468 29.4324 11.9625 30.5749C13.4251 31.6929 15.0139 32.4989 16.4999 32.4989C17.9858 32.4989 19.5747 31.6929 21.0372 30.5749C22.5318 29.4324 24.0361 27.8554 25.3754 26.0752C28.0268 22.5511 30.1914 18.012 30.1914 14.1923C30.1914 10.561 28.7489 7.07855 26.1813 4.51089C23.6136 1.94323 20.1311 0.500732 16.4999 0.500732ZM12.9248 18.5923C12.8766 18.6404 12.8113 18.6675 12.7432 18.6675C11.675 18.6675 10.6506 18.2432 9.89527 17.4879C9.13996 16.7325 8.71563 15.7081 8.71563 14.64V14.0115C8.71563 13.9434 8.74269 13.8781 8.79087 13.8299C8.83904 13.7817 8.90438 13.7546 8.97251 13.7546C10.0407 13.7546 11.0651 14.179 11.8204 14.9343C12.5757 15.6896 13 16.714 13 17.7822V18.4106C13 18.4787 12.973 18.5441 12.9248 18.5923ZM12.7432 20.6675C13.3417 20.6675 13.9158 20.4297 14.339 20.0065C14.7623 19.5832 15 19.0092 15 18.4106V17.7822C15 16.1836 14.365 14.6504 13.2346 13.5201C12.1042 12.3897 10.5711 11.7546 8.97251 11.7546C8.37395 11.7546 7.7999 11.9924 7.37666 12.4157C6.95341 12.8389 6.71563 13.413 6.71563 14.0115V14.64C6.71563 16.2386 7.35067 17.7717 8.48105 18.9021C9.61143 20.0325 11.1446 20.6675 12.7432 20.6675ZM24.0273 13.7549C22.9591 13.7549 21.9347 14.1792 21.1794 14.9346C20.4241 15.6899 19.9997 16.7143 19.9997 17.7825V18.4109C19.9997 18.479 20.0268 18.5444 20.075 18.5925C20.1231 18.6407 20.1885 18.6678 20.2566 18.6678C21.3248 18.6678 22.3492 18.2435 23.1045 17.4881C23.8598 16.7328 24.2841 15.7084 24.2841 14.6402V14.0118C24.2841 13.9437 24.2571 13.8783 24.2089 13.8302C24.1607 13.782 24.0954 13.7549 24.0273 13.7549ZM19.7652 13.5203C20.8955 12.39 22.4287 11.7549 24.0273 11.7549C24.6258 11.7549 25.1999 11.9927 25.6231 12.4159C26.0464 12.8392 26.2841 13.4132 26.2841 14.0118V14.6402C26.2841 16.2388 25.6491 17.772 24.5187 18.9024C23.3883 20.0327 21.8552 20.6678 20.2566 20.6678C19.6581 20.6678 19.084 20.43 18.6608 20.0068C18.2375 19.5835 17.9997 19.0095 17.9997 18.4109V17.7825C17.9997 16.1839 18.6348 14.6507 19.7652 13.5203ZM19.3465 25.4183C19.8117 25.1207 19.9474 24.5022 19.6498 24.037C19.3521 23.5718 18.7336 23.4361 18.2685 23.7337C17.4254 24.2732 16.9159 24.4393 16.4965 24.4396C16.0785 24.44 15.5718 24.2759 14.7345 23.7357C14.2704 23.4363 13.6515 23.5698 13.3521 24.0339C13.0527 24.498 13.1862 25.1169 13.6502 25.4163C14.6016 26.0301 15.5047 26.4405 16.4982 26.4396C17.4903 26.4388 18.394 26.0279 19.3465 25.4183Z" fill="#111827"/>
</svg>
