<svg width="33" height="32" viewBox="0 0 33 32" fill="none" xmlns="http://www.w3.org/2000/svg">
<path fill-rule="evenodd" clip-rule="evenodd" d="M23.3175 31.999C23.8698 31.999 24.3175 31.5513 24.3175 30.999V17.0001H30.1353C30.6876 17.0001 31.1353 16.5524 31.1353 16.0001C31.1353 15.4478 30.6876 15.0001 30.1353 15.0001H24.3175V1.00085C24.3175 0.44857 23.8698 0.000854492 23.3175 0.000854492H9.68197C9.12969 0.000854492 8.68197 0.44857 8.68197 1.00085V15.0001H2.8645C2.31222 15.0001 1.8645 15.4478 1.8645 16.0001C1.8645 16.5524 2.31222 17.0001 2.8645 17.0001H8.68197V30.999C8.68197 31.5513 9.12969 31.999 9.68197 31.999H23.3175ZM10.682 16.0247V29.999H22.3175V16.0001V2.00085H10.682V15.9755C10.6822 15.9837 10.6823 15.9919 10.6823 16.0001C10.6823 16.0083 10.6822 16.0165 10.682 16.0247Z" fill="#111827"/>
</svg>
