<svg width="33" height="32" viewBox="0 0 33 32" fill="none" xmlns="http://www.w3.org/2000/svg">
<path fill-rule="evenodd" clip-rule="evenodd" d="M3.73831 28.3902C3.73831 28.9425 4.18603 29.3902 4.73831 29.3902H13.8855C14.4378 29.3902 14.8855 28.9425 14.8855 28.3902V17.0001H18.1128V25.1296C18.1128 25.6819 18.5605 26.1296 19.1128 26.1296H28.26C28.8122 26.1296 29.26 25.6819 29.26 25.1296V17.0001H31.4989C32.0512 17.0001 32.4989 16.5524 32.4989 16.0001C32.4989 15.4478 32.0512 15.0001 31.4989 15.0001H29.26V6.87045C29.26 6.31816 28.8122 5.87045 28.26 5.87045H19.1128C18.5605 5.87045 18.1128 6.31816 18.1128 6.87045V15.0001H14.8855V3.60986C14.8855 3.05758 14.4378 2.60986 13.8855 2.60986H4.73831C4.18603 2.60986 3.73831 3.05758 3.73831 3.60986V15.0001H1.50073C0.948448 15.0001 0.500732 15.4478 0.500732 16.0001C0.500732 16.5524 0.948448 17.0001 1.50073 17.0001H3.73831V28.3902ZM5.73831 27.3902V4.60986H12.8855V27.3902H5.73831ZM20.1128 7.87045V24.1296H27.26V7.87045H20.1128Z" fill="#111827"/>
</svg>
