<svg width="33" height="32" viewBox="0 0 33 32" fill="none" xmlns="http://www.w3.org/2000/svg">
<path fill-rule="evenodd" clip-rule="evenodd" d="M30.499 26.7993C30.499 27.3516 30.9467 27.7993 31.499 27.7993C32.0513 27.7993 32.499 27.3516 32.499 26.7993V5.20068C32.499 4.6484 32.0513 4.20068 31.499 4.20068C30.9467 4.20068 30.499 4.6484 30.499 5.20068V26.7993ZM0.500732 21.9996C0.500732 22.5519 0.948448 22.9996 1.50073 22.9996H26.6991C27.2514 22.9996 27.6991 22.5519 27.6991 21.9996V10.0004C27.6991 9.44812 27.2514 9.0004 26.6991 9.0004H1.50073C0.948448 9.0004 0.500732 9.44812 0.500732 10.0004V21.9996ZM25.6991 20.9996H2.50073L2.50073 11.0004H25.6991V20.9996Z" fill="#111827"/>
</svg>
