<svg width="33" height="32" viewBox="0 0 33 32" fill="none" xmlns="http://www.w3.org/2000/svg">
<path fill-rule="evenodd" clip-rule="evenodd" d="M10.5005 0.000854492C9.9482 0.000854492 9.50049 0.44857 9.50049 1.00085V26.1993C9.50049 26.7516 9.9482 27.1993 10.5005 27.1993H22.4998C23.052 27.1993 23.4998 26.7516 23.4998 26.1993V1.00085C23.4998 0.44857 23.052 0.000854492 22.4998 0.000854492H10.5005ZM11.5005 25.1993V2.00085H21.4998V25.1993H11.5005ZM5.70068 29.999C5.1484 29.999 4.70068 30.4467 4.70068 30.999C4.70068 31.5513 5.1484 31.999 5.70068 31.999H27.2994C27.8517 31.999 28.2994 31.5513 28.2994 30.999C28.2994 30.4467 27.8517 29.999 27.2994 29.999H5.70068Z" fill="#111827"/>
</svg>
