<svg width="33" height="32" viewBox="0 0 33 32" fill="none" xmlns="http://www.w3.org/2000/svg">
<path fill-rule="evenodd" clip-rule="evenodd" d="M3.73856 25.7812C3.73856 26.3335 4.18627 26.7812 4.73856 26.7812H13.8857C14.438 26.7812 14.8857 26.3335 14.8857 25.7812V1.00092C14.8857 0.448631 14.438 0.000915527 13.8857 0.000915527H4.73856C4.18627 0.000915527 3.73856 0.448631 3.73856 1.00092V25.7812ZM5.73856 24.7812V2.00092H12.8857V24.7812H5.73856ZM0.500977 30.9991C0.500977 31.5514 0.948692 31.9991 1.50098 31.9991H31.4991C32.0514 31.9991 32.4991 31.5514 32.4991 30.9991C32.4991 30.4468 32.0514 29.9991 31.4991 29.9991H1.50098C0.948692 29.9991 0.500977 30.4468 0.500977 30.9991ZM19.113 26.7812C18.5607 26.7812 18.113 26.3335 18.113 25.7812V7.52205C18.113 6.96976 18.5607 6.52205 19.113 6.52205H28.2602C28.8125 6.52205 29.2602 6.96976 29.2602 7.52205V25.7812C29.2602 26.3335 28.8125 26.7812 28.2602 26.7812H19.113ZM20.113 8.52205V24.7812H27.2602V8.52205H20.113Z" fill="#111827"/>
</svg>
