<svg width="33" height="32" viewBox="0 0 33 32" fill="none" xmlns="http://www.w3.org/2000/svg">
<path fill-rule="evenodd" clip-rule="evenodd" d="M1.50073 31.999C0.948448 31.999 0.500732 31.5513 0.500732 30.999V1.00092C0.500732 0.448631 0.948448 0.000915527 1.50073 0.000915527C2.05302 0.000915527 2.50073 0.448631 2.50073 1.00092V30.999C2.50073 31.5513 2.05302 31.999 1.50073 31.999ZM6.71864 28.7616C6.16635 28.7616 5.71864 28.3139 5.71864 27.7616V18.6144C5.71864 18.0621 6.16635 17.6144 6.71864 17.6144H31.4989C32.0512 17.6144 32.4989 18.0621 32.4989 18.6144V27.7616C32.4989 28.3139 32.0512 28.7616 31.4989 28.7616H6.71864ZM7.71864 26.7616H30.4989V19.6144H7.71864V26.7616ZM5.71864 13.3874C5.71864 13.9397 6.16635 14.3874 6.71864 14.3874H24.9778C25.5301 14.3874 25.9778 13.9397 25.9778 13.3874V4.24021C25.9778 3.68793 25.5301 3.24021 24.9778 3.24021H6.71864C6.16635 3.24021 5.71864 3.68793 5.71864 4.24021V13.3874ZM23.9778 12.3874H7.71864V5.24021H23.9778V12.3874Z" fill="#111827"/>
</svg>
