<svg width="33" height="32" viewBox="0 0 33 32" fill="none" xmlns="http://www.w3.org/2000/svg">
<path fill-rule="evenodd" clip-rule="evenodd" d="M16.5002 31.9991C17.0525 31.9991 17.5002 31.5514 17.5002 30.9991V28.7615H28.8902C29.4425 28.7615 29.8902 28.3138 29.8902 27.7615V18.6143C29.8902 18.062 29.4425 17.6143 28.8902 17.6143H17.5002V14.3873H25.6299C26.1821 14.3873 26.6299 13.9396 26.6299 13.3873V4.2401C26.6299 3.68782 26.1821 3.2401 25.6299 3.2401H17.5002V1.00092C17.5002 0.448631 17.0525 0.000915527 16.5002 0.000915527C15.9479 0.000915527 15.5002 0.448631 15.5002 1.00092V3.2401H7.37069C6.81841 3.2401 6.37069 3.68782 6.37069 4.2401V13.3873C6.37069 13.9396 6.81841 14.3873 7.37069 14.3873H15.5002V17.6143H4.10986C3.55758 17.6143 3.10986 18.062 3.10986 18.6143V27.7615C3.10986 28.3138 3.55758 28.7615 4.10986 28.7615H15.5002V30.9991C15.5002 31.5514 15.9479 31.9991 16.5002 31.9991ZM27.8902 26.7615H5.10986V19.6143H27.8902V26.7615ZM8.37069 12.3873H24.6299V5.2401H8.37069V12.3873Z" fill="#111827"/>
</svg>
