<svg width="33" height="32" viewBox="0 0 33 32" fill="none" xmlns="http://www.w3.org/2000/svg">
<path fill-rule="evenodd" clip-rule="evenodd" d="M31.5002 32.0002C32.0525 32.0002 32.5002 31.5525 32.5002 31.0002V0.999756C32.5002 0.44747 32.0525 -0.000244141 31.5002 -0.000244141C30.948 -0.000244141 30.5002 0.44747 30.5002 0.999756V31.0002C30.5002 31.5525 30.948 32.0002 31.5002 32.0002ZM26.2817 28.7624C26.834 28.7624 27.2817 28.3147 27.2817 27.7624V18.6146C27.2817 18.0623 26.834 17.6146 26.2817 17.6146H1.49951C0.947227 17.6146 0.499512 18.0623 0.499512 18.6146V27.7624C0.499512 28.3147 0.947227 28.7624 1.49951 28.7624H26.2817ZM25.2817 26.7624H2.49951V19.6146H25.2817V26.7624ZM27.2817 13.3871C27.2817 13.9394 26.834 14.3871 26.2817 14.3871H8.02114C7.46886 14.3871 7.02114 13.9394 7.02114 13.3871V4.23925C7.02114 3.68697 7.46886 3.23925 8.02114 3.23925H26.2817C26.834 3.23925 27.2817 3.68697 27.2817 4.23925V13.3871ZM9.02114 12.3871H25.2817V5.23925H9.02114V12.3871Z" fill="#111827"/>
</svg>
