<svg width="32" height="32" viewBox="0 0 32 32" fill="none" xmlns="http://www.w3.org/2000/svg">
<path fill-rule="evenodd" clip-rule="evenodd" d="M5.20068 2.00085C4.6484 2.00085 4.20068 1.55314 4.20068 1.00085C4.20068 0.44857 4.6484 0.000854492 5.20068 0.000854492H26.7994C27.3517 0.000854492 27.7994 0.44857 27.7994 1.00085C27.7994 1.55314 27.3517 2.00085 26.7994 2.00085H5.20068ZM10.0005 31.999C9.4482 31.999 9.00049 31.5513 9.00049 30.999V5.80054C9.00049 5.24825 9.4482 4.80054 10.0005 4.80054H21.9998C22.552 4.80054 22.9998 5.24825 22.9998 5.80054V30.999C22.9998 31.5513 22.552 31.999 21.9998 31.999H10.0005ZM11.0005 6.80054V29.999H20.9998V6.80054H11.0005Z" fill="#111827"/>
</svg>
