<svg width="33" height="32" viewBox="0 0 33 32" fill="none" xmlns="http://www.w3.org/2000/svg">
<path fill-rule="evenodd" clip-rule="evenodd" d="M0.499756 0.999878C0.499756 0.447593 0.947471 -0.00012207 1.49976 -0.00012207H31.5001C32.0524 -0.00012207 32.5001 0.447593 32.5001 0.999878C32.5001 1.55216 32.0524 1.99988 31.5001 1.99988H1.49976C0.947471 1.99988 0.499756 1.55216 0.499756 0.999878ZM3.73755 6.21799C3.73755 5.66571 4.18527 5.21799 4.73755 5.21799H13.8854C14.4377 5.21799 14.8854 5.66571 14.8854 6.21799V31.0001C14.8854 31.5524 14.4377 32.0001 13.8854 32.0001H4.73755C4.18527 32.0001 3.73755 31.5524 3.73755 31.0001V6.21799ZM5.73755 7.21799V30.0001H12.8854V7.21799H5.73755ZM19.1127 5.21799C18.5604 5.21799 18.1127 5.66571 18.1127 6.21799V24.4785C18.1127 25.0308 18.5604 25.4785 19.1127 25.4785H28.2605C28.8128 25.4785 29.2605 25.0308 29.2605 24.4785V6.21799C29.2605 5.66571 28.8128 5.21799 28.2605 5.21799H19.1127ZM20.1127 23.4785V7.21799H27.2605V23.4785H20.1127Z" fill="#111827"/>
</svg>
