<svg width="33" height="32" viewBox="0 0 33 32" fill="none" xmlns="http://www.w3.org/2000/svg">
<path fill-rule="evenodd" clip-rule="evenodd" d="M13.7262 9.23454L10.391 8.75336C10.1328 8.71612 9.94463 8.48582 9.9782 8.22718C10.537 3.92178 14.9127 2.22804 19.6307 3.11019C23.6061 3.85349 24.3717 7.06686 24.2663 8.53598V13.1541C24.0697 15.6123 24.3951 17.1166 24.5824 17.5614C24.715 17.9195 24.9702 18.2942 25.2427 18.624C25.6388 19.1033 25.6366 19.84 25.1585 20.2376L22.6596 22.316C22.5143 22.4369 22.3127 22.4647 22.1637 22.3485C21.5502 21.8708 20.5624 20.6391 20.0873 20.0021C18.1382 21.7756 17.1548 22.3024 14.7844 22.5307C12.4139 22.7589 8.95461 20.7396 9.34091 16.982C9.72722 13.2243 11.7992 12.1707 13.3971 11.4508C14.6754 10.8749 17.9566 10.5202 19.4375 10.4148C19.7886 7.64749 18.5068 6.70975 17.822 6.5868C15.5606 5.96774 14.5215 7.68839 14.199 8.90531C14.1429 9.11688 13.9428 9.26579 13.7262 9.23454ZM14.3199 16.051C14.6545 13.4186 17.8706 13.0023 19.4367 13.1231C19.7877 17.268 18.0991 18.406 17.4349 18.8537L17.3732 18.8954C16.7598 19.3137 13.9015 19.3415 14.3199 16.051ZM26.8577 26.2377C27.6836 26.139 29.5161 25.9759 30.2392 26.1131C31.143 26.2845 31.0806 26.9234 30.9092 27.5467C30.7378 28.17 30.2703 29.6192 30.021 30.2892C29.8216 30.8253 30.2496 30.6996 30.4885 30.5697C31.1793 29.8529 32.5485 27.8864 32.4987 25.7547C32.5091 25.5001 32.3273 24.9693 31.517 24.882C30.5041 24.773 28.1823 24.773 26.8577 25.6924C26.6136 25.8585 26.2718 26.2002 26.8577 26.2377ZM0.856933 25.4333C4.74713 28.2088 15.8301 32.4429 29.0405 27.1754C29.3654 27.1843 29.9104 27.3431 29.4915 27.9076C24.5606 31.3931 11.8974 35.8786 0.692223 25.9368C0.515864 25.7888 0.301904 25.4809 0.856933 25.4333Z" fill="#111827"/>
</svg>
