<svg width="33" height="32" viewBox="0 0 33 32" fill="none" xmlns="http://www.w3.org/2000/svg">
<path fill-rule="evenodd" clip-rule="evenodd" d="M13.7262 9.23442L10.391 8.75324C10.1328 8.716 9.94463 8.4857 9.9782 8.22706C10.537 3.92166 14.9127 2.22792 19.6307 3.11007C23.6061 3.85336 24.3717 7.06674 24.2663 8.53586V13.1539C24.0697 15.6122 24.3951 17.1165 24.5824 17.5613C24.715 17.9193 24.9702 18.2941 25.2427 18.6238C25.6388 19.1032 25.6366 19.8399 25.1585 20.2375L22.6596 22.3159C22.5143 22.4367 22.3127 22.4645 22.1637 22.3484C21.5502 21.8706 20.5624 20.639 20.0873 20.002C18.1382 21.7755 17.1548 22.3023 14.7844 22.5306C12.4139 22.7588 8.95461 20.7395 9.34091 16.9818C9.72722 13.2242 11.7992 12.1706 13.3971 11.4507C14.6754 10.8748 17.9566 10.5201 19.4375 10.4147C19.7886 7.64737 18.5068 6.70963 17.822 6.58667C15.5606 5.96762 14.5215 7.68826 14.199 8.90519C14.1429 9.11676 13.9428 9.26567 13.7262 9.23442ZM14.3199 16.0509C14.6545 13.4185 17.8706 13.0021 19.4367 13.123C19.7877 17.2679 18.0991 18.4059 17.4349 18.8536L17.3732 18.8953C16.7598 19.3136 13.9015 19.3414 14.3199 16.0509ZM26.8577 26.2376C27.6836 26.1389 29.5161 25.9758 30.2392 26.1129C31.143 26.2843 31.0806 26.9232 30.9092 27.5465C30.7378 28.1699 30.2703 29.619 30.021 30.2891C29.8216 30.8251 30.2496 30.6994 30.4885 30.5696C31.1793 29.8528 32.5485 27.8862 32.4987 25.7545C32.5091 25.5 32.3273 24.9692 31.517 24.8819C30.5041 24.7728 28.1823 24.7729 26.8577 25.6923C26.6136 25.8584 26.2718 26.2 26.8577 26.2376ZM0.856933 25.4332C4.74713 28.2087 15.8301 32.4428 29.0405 27.1753C29.3654 27.1841 29.9104 27.343 29.4915 27.9075C24.5606 31.393 11.8974 35.8784 0.692223 25.9367C0.515864 25.7887 0.301904 25.4808 0.856933 25.4332Z" fill="#111827"/>
</svg>
