<svg width="32" height="32" viewBox="0 0 32 32" fill="none" xmlns="http://www.w3.org/2000/svg">
<path d="M16.0114 27.503V8.70062" stroke="#1C1B1F" stroke-width="2" stroke-linecap="round" stroke-linejoin="round"/>
<path d="M16.0113 8.7006C17.3093 8.7006 18.3616 7.64833 18.3616 6.3503C18.3616 5.05226 17.3093 4 16.0113 4C14.7133 4 13.661 5.05226 13.661 6.3503C13.661 7.64833 14.7133 8.7006 16.0113 8.7006Z" stroke="#1C1B1F" stroke-width="2" stroke-linecap="round" stroke-linejoin="round"/>
<path d="M11.3108 13.4012H20.712" stroke="#1C1B1F" stroke-width="2" stroke-linecap="round" stroke-linejoin="round"/>
<path d="M5.67004 17.1617C6.46228 21.33 8.00405 22.5037 12.0817 23.1779C15.035 23.5355 15.0424 24.786 15.8664 28C16.7794 24.8258 17.3289 23.5753 19.7401 23.1779C24.0963 22.481 25.5119 21.1417 26.3299 17.1617" stroke="#1C1B1F" stroke-width="2" stroke-linecap="round" stroke-linejoin="round"/>
</svg>
