<svg width="33" height="32" viewBox="0 0 33 32" fill="none" xmlns="http://www.w3.org/2000/svg">
<path fill-rule="evenodd" clip-rule="evenodd" d="M14.5766 3.93861C14.5766 2.86845 15.4441 2.00092 16.5143 2.00092C17.5844 2.00092 18.452 2.86845 18.452 3.93861C18.452 5.00877 17.5844 5.8763 16.5143 5.8763C15.4441 5.8763 14.5766 5.00877 14.5766 3.93861ZM16.5143 0.000915527C14.3395 0.000915527 12.5766 1.76388 12.5766 3.93861C12.5766 5.76778 13.8238 7.30564 15.5142 7.74819V11.7517H10.639C10.0867 11.7517 9.63896 12.1994 9.63896 12.7517C9.63896 13.3039 10.0867 13.7517 10.639 13.7517H15.5142V25.6945C14.6948 24.6784 13.4951 24.1965 11.7447 23.9817C9.24616 23.567 7.74145 23.0258 6.72602 22.1079C5.72394 21.202 5.05095 19.792 4.57073 17.2653C4.46761 16.7227 3.94417 16.3665 3.4016 16.4696C2.85903 16.5727 2.50278 17.0961 2.6059 17.6387C3.11592 20.3222 3.9016 22.2507 5.38482 23.5915C6.85188 24.9177 8.85356 25.5309 11.4393 25.9584C11.4536 25.9608 11.4679 25.9628 11.4822 25.9645C13.1837 26.1706 13.7532 26.5928 14.1175 27.1763C14.3374 27.5283 14.52 28.0044 14.7163 28.6978C14.8385 29.1295 14.9534 29.596 15.0855 30.1324L15.0856 30.1324C15.1695 30.473 15.2603 30.8416 15.3643 31.2474C15.4764 31.6845 15.8673 31.9924 16.3184 31.999C16.7696 32.0055 17.1693 31.7091 17.294 31.2755C17.3535 31.0689 17.4112 30.8708 17.4675 30.6808C17.4713 30.669 17.4748 30.657 17.4781 30.645C17.967 29.0002 18.3529 27.9688 18.86 27.2727C19.3568 26.5905 20.0146 26.1768 21.3353 25.9588C24.1075 25.5151 26.1548 24.841 27.6282 23.4871C29.1129 22.123 29.8662 20.2071 30.3911 17.6533C30.5023 17.1124 30.1539 16.5837 29.613 16.4725C29.072 16.3613 28.5433 16.7097 28.4321 17.2507C27.9345 19.6716 27.2919 21.0802 26.2751 22.0144C25.2474 22.9586 23.6884 23.557 21.0169 23.9843L21.0122 23.9851C19.4873 24.2364 18.3683 24.7619 17.5142 25.753V13.7517H22.3897C22.942 13.7517 23.3897 13.3039 23.3897 12.7517C23.3897 12.1994 22.942 11.7517 22.3897 11.7517H17.5142V7.74822C19.2047 7.30573 20.452 5.76783 20.452 3.93861C20.452 1.76388 18.689 0.000915527 16.5143 0.000915527Z" fill="#111827"/>
</svg>
