<svg width="32" height="32" viewBox="0 0 32 32" fill="none" xmlns="http://www.w3.org/2000/svg">
<path d="M20.1539 20.6154C20.9186 20.6154 21.5385 19.9955 21.5385 19.2308C21.5385 18.4661 20.9186 17.8462 20.1539 17.8462C19.3892 17.8462 18.7693 18.4661 18.7693 19.2308C18.7693 19.9955 19.3892 20.6154 20.1539 20.6154Z" fill="#1C1B1F"/>
<path d="M11.846 20.6154C12.6107 20.6154 13.2307 19.9955 13.2307 19.2308C13.2307 18.4661 12.6107 17.8462 11.846 17.8462C11.0813 17.8462 10.4614 18.4661 10.4614 19.2308C10.4614 19.9955 11.0813 20.6154 11.846 20.6154Z" fill="#1C1B1F"/>
<path d="M4 23.3847V20.7457C4 14.1136 9.32542 8.6385 15.9576 8.61555C17.537 8.60997 19.102 8.91623 20.5628 9.51678C22.0236 10.1173 23.3515 11.0004 24.4703 12.1152C25.5891 13.2301 26.4768 14.5548 27.0825 16.0135C27.6882 17.4721 28 19.036 28 20.6155V23.3847C28 23.6295 27.9027 23.8643 27.7296 24.0374C27.5565 24.2105 27.3217 24.3078 27.0769 24.3078H4.92308C4.67826 24.3078 4.44347 24.2105 4.27036 24.0374C4.09725 23.8643 4 23.6295 4 23.3847Z" stroke="#1C1B1F" stroke-width="2" stroke-linecap="round" stroke-linejoin="round"/>
<path d="M4.9231 7.69238L8.5084 11.2777" stroke="#1C1B1F" stroke-width="2" stroke-linecap="round" stroke-linejoin="round"/>
<path d="M27.077 7.69238L23.512 11.2574" stroke="#1C1B1F" stroke-width="2" stroke-linecap="round" stroke-linejoin="round"/>
</svg>
