<svg width="33" height="32" viewBox="0 0 33 32" fill="none" xmlns="http://www.w3.org/2000/svg">
<path fill-rule="evenodd" clip-rule="evenodd" d="M1.94525 4.90703C2.33577 4.5165 2.96894 4.5165 3.35946 4.90703L7.22182 8.76939C9.81919 6.89342 12.9976 5.78 16.4436 5.76806L16.4437 5.76806C18.5498 5.76062 20.6367 6.16902 22.5846 6.96983C23.7238 7.43819 24.8025 8.03538 25.8001 8.7479L29.641 4.90703C30.0315 4.5165 30.6647 4.5165 31.0552 4.90703C31.4458 5.29755 31.4458 5.93072 31.0552 6.32124L27.3596 10.0168C27.5073 10.1533 27.6525 10.2926 27.7952 10.4348C29.2871 11.9215 30.4709 13.688 31.2786 15.6331C32.0863 17.5782 32.5021 19.6637 32.5021 21.7698V25.2318C32.5021 25.8031 32.2751 26.351 31.8712 26.7549C31.4672 27.1589 30.9194 27.3858 30.3481 27.3858H2.65228C2.08101 27.3858 1.53313 27.1589 1.12918 26.7549C0.725228 26.351 0.498291 25.8031 0.498291 25.2318V21.9327C0.498291 17.2591 2.48518 13.012 5.66927 10.0453L1.94525 6.32124C1.55472 5.93072 1.55472 5.29755 1.94525 4.90703ZM25.2582 10.8451C25.2635 10.8494 25.2688 10.8537 25.2742 10.8579C25.6606 11.1686 26.0309 11.5002 26.3835 11.8515C27.6889 13.1524 28.7247 14.6981 29.4315 16.4001C30.1383 18.1021 30.5021 19.9269 30.5021 21.7698V25.2318C30.5021 25.2727 30.4858 25.3118 30.457 25.3407C30.4281 25.3696 30.3889 25.3858 30.3481 25.3858H2.65228C2.61144 25.3858 2.57227 25.3696 2.54339 25.3407C2.51452 25.3118 2.49829 25.2727 2.49829 25.2318V21.9327C2.49829 17.4877 4.54396 13.4933 7.74524 10.8883C7.75751 10.8789 7.76961 10.8691 7.78152 10.8589C10.1595 8.93693 13.1698 7.7794 16.4506 7.76804L16.4507 7.76804C18.2936 7.76153 20.1196 8.11888 21.8241 8.81962C23.062 9.3285 24.218 10.0112 25.2582 10.8451ZM11.3063 21.769C12.262 21.769 13.0368 20.9942 13.0368 20.0385C13.0368 19.0828 12.262 18.308 11.3063 18.308C10.3505 18.308 9.57577 19.0828 9.57577 20.0385C9.57577 20.9942 10.3505 21.769 11.3063 21.769ZM21.6929 21.769C22.6486 21.769 23.4234 20.9942 23.4234 20.0385C23.4234 19.0828 22.6486 18.308 21.6929 18.308C20.7371 18.308 19.9624 19.0828 19.9624 20.0385C19.9624 20.9942 20.7371 21.769 21.6929 21.769Z" fill="#111827"/>
</svg>
