<svg width="33" height="32" viewBox="0 0 33 32" fill="none" xmlns="http://www.w3.org/2000/svg">
<path fill-rule="evenodd" clip-rule="evenodd" d="M16.1595 0.0840208C16.4151 -0.0272809 16.7055 -0.0268488 16.9608 0.085213L31.3739 6.41302C31.7839 6.59305 32.0243 7.02378 31.9622 7.46731L29.5014 25.0443C29.4562 25.3675 29.256 25.6483 28.9653 25.7966L17.013 31.8899C16.7313 32.0335 16.3983 32.0355 16.115 31.8952L3.81095 25.8018C3.51064 25.653 3.30479 25.3638 3.26267 25.0313L1.03629 7.45432C0.980485 7.01374 1.22193 6.58914 1.62909 6.41182L16.1595 0.0840208ZM3.11459 7.94633L5.17939 24.2477L16.5523 29.8799L27.5929 24.2513L29.8765 7.93991L16.5571 2.09227L3.11459 7.94633ZM13.293 18.095L11.945 20.7839C11.6975 21.2776 11.0966 21.4772 10.6028 21.2297C10.1091 20.9822 9.90955 20.3813 10.1571 19.8876L15.5328 9.16476C15.9352 8.36216 17.0777 8.35362 17.4921 9.15013L23.0704 19.8743C23.3253 20.3642 23.1347 20.968 22.6448 21.2229C22.1548 21.4778 21.551 21.2872 21.2961 20.7972L19.8905 18.095H13.293ZM18.8502 16.095H14.2957L16.531 11.6364L18.8502 16.095Z" fill="#111827"/>
</svg>
