<svg width="33" height="32" viewBox="0 0 33 32" fill="none" xmlns="http://www.w3.org/2000/svg">
<g clip-path="url(#clip0_566_32)">
<path fill-rule="evenodd" clip-rule="evenodd" d="M14.4482 2.63319C14.6163 2.34198 14.9271 2.1626 15.2633 2.1626H17.73C18.0662 2.1626 18.3769 2.34198 18.545 2.63319L32.3739 26.5855C32.5424 26.8773 32.542 27.237 32.3729 27.5285L31.305 29.3687C31.1366 29.6589 30.8265 29.8375 30.491 29.8375H18.7626C18.2428 29.8375 17.8214 29.4161 17.8214 28.8963V23.5249C17.8214 23.0051 18.2428 22.5837 18.7626 22.5837H21.181L16.7361 14.8848L12.2911 22.5837H14.6524C15.1722 22.5837 15.5936 23.0051 15.5936 23.5249V28.8963C15.5936 29.4161 15.1722 29.8375 14.6524 29.8375H2.7139C2.40392 29.8375 2.11381 29.6849 1.93824 29.4294L0.665513 27.5775C0.460035 27.2785 0.444699 26.888 0.626095 26.5738L14.4482 2.63319ZM15.8067 4.04495L2.55317 27.0007L3.2091 27.9552H13.7112V24.466H10.6609C10.3247 24.466 10.014 24.2866 9.84584 23.9954C9.67771 23.7042 9.67771 23.3455 9.84584 23.0543L15.921 12.5318C16.0891 12.2406 16.3998 12.0612 16.7361 12.0612C17.0723 12.0612 17.383 12.2406 17.5511 12.5318L23.6263 23.0543C23.7944 23.3455 23.7944 23.7042 23.6263 23.9954C23.4582 24.2866 23.1475 24.466 22.8112 24.466H19.7038V27.9552H29.949L30.4714 27.0549L17.1866 4.04495H15.8067Z" fill="#111827"/>
</g>
<defs>
<clipPath id="clip0_566_32">
<rect width="32" height="32" fill="white" transform="translate(0.5)"/>
</clipPath>
</defs>
</svg>
