<svg width="33" height="33" viewBox="0 0 33 33" fill="none" xmlns="http://www.w3.org/2000/svg">
<path fill-rule="evenodd" clip-rule="evenodd" d="M5.1632 8.28573C7.57955 4.95654 11.4265 2.73313 15.8015 2.51813L18.747 10.7656L14.7455 10.0351C14.7294 10.0318 14.7133 10.0288 14.697 10.0263L5.1632 8.28573ZM4.03945 10.1136L12.6572 11.6869L10.0141 14.7985L10.0021 14.8127L3.71616 22.2127C2.93539 20.4682 2.50122 18.5347 2.50122 16.4998C2.50122 14.1993 3.05615 12.0284 4.03945 10.1136ZM10.4105 17.4211L4.73991 24.0967C6.98692 27.568 10.7291 29.9812 15.0547 30.4249L11.7935 21.2935C11.7888 21.2811 11.7843 21.2685 11.7801 21.2559L10.4105 17.4211ZM17.1986 30.4815L14.2531 22.2341L18.2512 22.964C18.2695 22.9679 18.288 22.9712 18.3065 22.9741L27.8368 24.714C25.4205 28.0431 21.5736 30.2665 17.1986 30.4815ZM20.3429 21.3128L28.9606 22.8861C29.9439 20.9713 30.4988 18.8004 30.4988 16.4998C30.4988 14.465 30.0647 12.5316 29.284 10.7871L22.9986 18.1865C22.9943 18.1916 22.9899 18.1968 22.9855 18.2018L20.3429 21.3128ZM22.5897 15.5786L28.2602 8.90303C26.0132 5.43172 22.2711 3.01842 17.9454 2.57472L21.2121 11.7214L21.2146 11.7284L22.5897 15.5786ZM21.0946 17.3387L18.0711 20.898L13.4764 20.0592L11.9056 15.661L14.9291 12.1017L19.5238 12.9405L21.0946 17.3387ZM16.5277 32.4986C25.3509 32.4837 32.4988 25.3265 32.4988 16.4998C32.4988 7.67193 25.3489 0.513998 16.5241 0.501023C16.5081 0.500637 16.4921 0.500635 16.4761 0.501022C7.65119 0.513954 0.501221 7.6719 0.501221 16.4998C0.501221 25.3265 7.64928 32.4838 16.4725 32.4986C16.4909 32.4991 16.5093 32.4991 16.5277 32.4986Z" fill="#111827"/>
</svg>
