<svg width="32" height="32" viewBox="0 0 32 32" fill="none" xmlns="http://www.w3.org/2000/svg">
<path d="M17.7495 6.41247C18.023 5.70236 18.5052 5.09176 19.1326 4.66111C19.76 4.23047 20.5031 3.99997 21.2641 4" stroke="#1C1B1F" stroke-width="2" stroke-linecap="round" stroke-linejoin="round"/>
<path d="M27.2067 21.7569C25.7271 25.3708 23.0412 28 20.7935 28H12.3229C9.02875 28 4.79346 22.353 4.79346 16.2353C4.79347 14.8727 5.1879 13.5391 5.92913 12.3957C6.67036 11.2523 7.72671 10.3478 8.97066 9.79151C10.2146 9.23522 11.593 9.05087 12.9394 9.26072C14.2858 9.47057 15.5427 10.0656 16.5584 10.9741L16.5582 10.9739C17.2772 10.3308 18.1205 9.84194 19.0358 9.53744C19.9512 9.23294 20.9192 9.11927 21.8802 9.20345C22.8412 9.28763 23.7747 9.56787 24.6232 10.0269C25.4716 10.4859 26.217 11.1139 26.8133 11.8722L26.8133 11.8722C25.9489 12.395 25.2404 13.14 24.7618 14.0297C24.2832 14.9193 24.0519 15.921 24.092 16.9304C24.1321 17.9398 24.4422 18.92 24.9899 19.7689C25.5376 20.6177 26.3029 21.3041 27.2061 21.7567L27.2067 21.7569Z" stroke="#1C1B1F" stroke-width="2" stroke-linecap="round" stroke-linejoin="round"/>
</svg>
