<svg width="33" height="32" viewBox="0 0 33 32" fill="none" xmlns="http://www.w3.org/2000/svg">
<path fill-rule="evenodd" clip-rule="evenodd" d="M16.5 2.00085C13.4708 2.00085 10.5234 2.98312 8.10016 4.80016C5.67692 6.61719 3.90864 9.17094 3.06069 12.078C2.21274 14.9851 2.33086 18.0887 3.39732 20.923C4.46379 23.7573 6.42108 26.1693 8.97544 27.797C9.4412 28.0938 9.57817 28.712 9.28138 29.1777C8.98458 29.6435 8.36641 29.7805 7.90065 29.4837C4.98138 27.6234 2.74436 24.8667 1.52545 21.6273C0.306543 18.3879 0.171534 14.8406 1.1407 11.518C2.10986 8.19535 4.13088 5.27667 6.90033 3.20003C9.66977 1.1234 13.0382 0.000854492 16.5 0.000854492C19.9619 0.000854492 23.3303 1.1234 26.0997 3.20003C28.8692 5.27667 30.8902 8.19535 31.8594 11.518C32.8285 14.8406 32.6935 18.3879 31.4746 21.6273C30.2557 24.8667 28.0187 27.6234 25.0994 29.4837C24.6337 29.7805 24.0155 29.6435 23.7187 29.1777C23.4219 28.712 23.5589 28.0938 24.0246 27.797C26.579 26.1693 28.5363 23.7573 29.6028 20.923C30.6692 18.0887 30.7873 14.9851 29.9394 12.078C29.0914 9.17094 27.3232 6.61719 24.8999 4.80016C22.4767 2.98312 19.5292 2.00085 16.5 2.00085ZM12.3054 8.06602C13.5986 7.38494 15.0383 7.02901 16.5 7.02901C17.9617 7.02901 19.4014 7.38494 20.6946 8.06602C21.9878 8.74709 23.0956 9.7328 23.9222 10.9379C24.7487 12.143 25.2693 13.5312 25.4387 14.9825C25.6082 16.4338 25.4215 17.9045 24.8948 19.2675C24.6957 19.7827 24.952 20.3617 25.4671 20.5608C25.9823 20.7598 26.5613 20.5036 26.7604 19.9884C27.4042 18.3224 27.6324 16.5246 27.4252 14.7505C27.2181 12.9765 26.5818 11.2796 25.5715 9.80663C24.5612 8.33363 23.2072 7.12885 21.6266 6.29643C20.046 5.46401 18.2865 5.02901 16.5 5.02901C14.7136 5.02901 12.954 5.46401 11.3735 6.29643C9.79291 7.12885 8.43892 8.33363 7.42859 9.80663C6.41825 11.2796 5.782 12.9765 5.57485 14.7505C5.36771 16.5246 5.59591 18.3224 6.23972 19.9884C6.43879 20.5036 7.01779 20.7598 7.53295 20.5608C8.04811 20.3617 8.30435 19.7827 8.10528 19.2675C7.57858 17.9045 7.39189 16.4338 7.56136 14.9825C7.73082 13.5312 8.25133 12.143 9.0779 10.9379C9.90448 9.7328 11.0122 8.74709 12.3054 8.06602ZM13.7503 14.7544C13.7503 13.2366 14.9811 12.0057 16.5 12.0057C18.0189 12.0057 19.2498 13.2366 19.2498 14.7544C19.2498 16.2722 18.0189 17.5032 16.5 17.5032C14.9811 17.5032 13.7503 16.2722 13.7503 14.7544ZM16.5 10.0057C13.8771 10.0057 11.7503 12.1315 11.7503 14.7544C11.7503 15.9704 12.2074 17.0796 12.9591 17.9196C11.9076 18.5432 11.2835 19.7868 11.5445 21.0918L13.2441 29.5875C13.5247 30.9897 14.7559 31.999 16.1859 31.999H16.8138C18.2438 31.999 19.475 30.9897 19.7555 29.5875L21.4552 21.0918C21.7162 19.7869 21.0922 18.5434 20.0408 17.9197C20.7926 17.0797 21.2498 15.9705 21.2498 14.7544C21.2498 12.1315 19.123 10.0057 16.5 10.0057ZM13.5057 20.6995C13.3819 20.0807 13.8552 19.5033 14.4862 19.5033H18.5134C19.1445 19.5033 19.6178 20.0807 19.494 20.6995L17.7944 29.1952C17.7009 29.6626 17.2905 29.999 16.8138 29.999H16.1859C15.7092 29.999 15.2988 29.6626 15.2053 29.1952L13.5057 20.6995Z" fill="#111827"/>
</svg>
