<svg width="33" height="34" viewBox="0 0 33 34" fill="none" xmlns="http://www.w3.org/2000/svg">
<path fill-rule="evenodd" clip-rule="evenodd" d="M20.9821 3.64912C21.5998 3.22509 22.3315 2.99814 23.0808 2.99817C23.6331 2.99819 24.0808 2.55049 24.0808 1.9982C24.0808 1.44592 23.6331 0.998188 23.0808 0.998169C21.9275 0.998128 20.8011 1.34748 19.8502 2.00021C18.8993 2.65293 18.1684 3.57841 17.7539 4.65471C17.5554 5.17009 17.8123 5.7488 18.3276 5.94731C18.843 6.14581 19.4217 5.88893 19.6202 5.37356C19.8895 4.67436 20.3643 4.07315 20.9821 3.64912ZM8.12038 10.1514C9.49929 9.53474 11.0272 9.3304 12.5197 9.56301C14.0122 9.79563 15.4054 10.4553 16.5313 11.4623C16.9192 11.8092 17.5068 11.7999 17.8834 11.4451C18.6763 10.7406 19.6042 10.2046 20.6108 9.86975C21.6255 9.53221 22.6985 9.40621 23.7638 9.49952C24.8291 9.59284 25.8639 9.90349 26.8044 10.4123C27.4353 10.7536 28.0147 11.1792 28.5274 11.6761C27.7312 12.3362 27.0664 13.1458 26.5729 14.0631C25.8898 15.3327 25.5597 16.7624 25.617 18.203C25.6743 19.6436 26.1168 21.0425 26.8985 22.2539C27.5072 23.1974 28.3044 24.0003 29.2361 24.6144C28.3938 26.4196 27.3098 27.9598 26.1632 29.0778C24.8286 30.3792 23.5246 31.002 22.4925 31.002H11.9029C11.1541 31.002 10.2538 30.676 9.28257 29.9704C8.3196 29.2708 7.34886 28.2411 6.48074 26.9563C4.74192 24.3828 3.48999 20.8982 3.48999 17.2943C3.49001 15.7838 3.92723 14.3056 4.74888 13.0381C5.57052 11.7706 6.74148 10.768 8.12038 10.1514ZM12.8277 7.58687C14.4169 7.83456 15.9165 8.46785 17.1977 9.42576C18.0396 8.79635 18.9786 8.30498 19.9795 7.97201C21.2535 7.54819 22.6008 7.38999 23.9383 7.50715C25.2758 7.62432 26.5751 8.01437 27.756 8.65322C28.9369 9.29208 29.9744 10.1662 30.8043 11.2216C31.1389 11.647 31.0742 12.2615 30.6584 12.608L30.6584 12.608C30.6198 12.6402 30.5787 12.6694 30.5357 12.6954C29.6081 13.2564 28.8478 14.0559 28.3342 15.0106C27.8206 15.9653 27.5724 17.0403 27.6154 18.1235C27.6585 19.2068 27.9912 20.2586 28.579 21.1696C29.1646 22.0772 29.9822 22.8119 30.9469 23.2975C31.4183 23.5259 31.6366 24.0847 31.4355 24.576C30.4655 26.9451 29.0916 29.0159 27.5595 30.5098C26.0503 31.9813 24.2703 33.002 22.4925 33.002H11.9029C10.5926 33.002 9.28686 32.4456 8.10705 31.5885C6.91901 30.7254 5.7939 29.5121 4.82356 28.076C2.88545 25.2076 1.48999 21.3384 1.48999 17.2943C1.49001 15.3977 2.03899 13.5416 3.07065 11.9502C4.10231 10.3587 5.57256 9.09989 7.30391 8.32563C9.03527 7.55137 10.9537 7.2948 12.8277 7.58687Z" fill="#111827"/>
</svg>
