<svg width="33" height="32" viewBox="0 0 33 32" fill="none" xmlns="http://www.w3.org/2000/svg">
<path fill-rule="evenodd" clip-rule="evenodd" d="M20.9821 2.64912C21.5998 2.22509 22.3315 1.99814 23.0808 1.99817C23.6331 1.99819 24.0808 1.55049 24.0808 0.998204C24.0808 0.44592 23.6331 -0.0018115 23.0808 -0.00183105C21.9275 -0.00187182 20.8011 0.347482 19.8502 1.00021C18.8993 1.65293 18.1684 2.57841 17.7539 3.65471C17.5554 4.17009 17.8123 4.7488 18.3276 4.94731C18.843 5.14581 19.4217 4.88893 19.6202 4.37356C19.8895 3.67436 20.3643 3.07315 20.9821 2.64912ZM8.12038 9.15139C9.49929 8.53474 11.0272 8.3304 12.5197 8.56301C14.0122 8.79563 15.4054 9.45526 16.5313 10.4623C16.9192 10.8092 17.5068 10.7999 17.8834 10.4451C18.6763 9.74059 19.6042 9.20461 20.6108 8.86975C21.6255 8.53221 22.6985 8.40621 23.7638 8.49952C24.8291 8.59284 25.8639 8.90349 26.8044 9.4123C27.4353 9.75359 28.0147 10.1792 28.5274 10.6761C27.7312 11.3362 27.0664 12.1458 26.5729 13.0631C25.8898 14.3327 25.5597 15.7624 25.617 17.203C25.6743 18.6436 26.1168 20.0425 26.8985 21.2539C27.5072 22.1974 28.3044 23.0003 29.2361 23.6144C28.3938 25.4196 27.3098 26.9598 26.1632 28.0778C24.8286 29.3792 23.5246 30.002 22.4925 30.002H11.9029C11.1541 30.002 10.2538 29.676 9.28257 28.9704C8.3196 28.2708 7.34886 27.2411 6.48074 25.9563C4.74192 23.3828 3.48999 19.8982 3.48999 16.2943C3.49001 14.7838 3.92723 13.3056 4.74888 12.0381C5.57052 10.7706 6.74148 9.76803 8.12038 9.15139ZM12.8277 6.58687C14.4169 6.83456 15.9165 7.46785 17.1977 8.42576C18.0396 7.79635 18.9786 7.30498 19.9795 6.97201C21.2535 6.54819 22.6008 6.38999 23.9383 6.50715C25.2758 6.62432 26.5751 7.01437 27.756 7.65322C28.9369 8.29208 29.9744 9.16619 30.8043 10.2216C31.1389 10.647 31.0742 11.2615 30.6584 11.608L30.6584 11.608C30.6198 11.6402 30.5787 11.6694 30.5357 11.6954C29.6081 12.2564 28.8478 13.0559 28.3342 14.0106C27.8206 14.9653 27.5724 16.0403 27.6154 17.1235C27.6585 18.2068 27.9912 19.2586 28.579 20.1696C29.1646 21.0772 29.9822 21.8119 30.9469 22.2975C31.4183 22.5259 31.6366 23.0847 31.4355 23.576C30.4655 25.9451 29.0916 28.0159 27.5595 29.5098C26.0503 30.9813 24.2703 32.002 22.4925 32.002H11.9029C10.5926 32.002 9.28686 31.4456 8.10705 30.5885C6.91901 29.7254 5.7939 28.5121 4.82356 27.076C2.88545 24.2076 1.48999 20.3384 1.48999 16.2943C1.49001 14.3977 2.03899 12.5416 3.07065 10.9502C4.10231 9.35872 5.57256 8.09989 7.30391 7.32563C9.03527 6.55137 10.9537 6.2948 12.8277 6.58687Z" fill="#111827"/>
</svg>
