<svg width="33" height="32" viewBox="0 0 33 32" fill="none" xmlns="http://www.w3.org/2000/svg">
<path fill-rule="evenodd" clip-rule="evenodd" d="M20.8222 3.81693C21.1031 3.3414 20.9453 2.72821 20.4697 2.44735C19.9942 2.16649 19.381 2.3243 19.1002 2.79984L16.5009 7.20065L13.8993 2.79951C13.6182 2.32408 13.005 2.1665 12.5296 2.44754C12.0541 2.72859 11.8965 3.34183 12.1776 3.81726L15.3398 9.16663L8.48723 20.7688H1.50073C0.948448 20.7688 0.500732 21.2165 0.500732 21.7688C0.500732 22.3211 0.948448 22.7688 1.50073 22.7688H9.03601C9.05003 22.7691 9.06404 22.7691 9.07803 22.7688H18.5911C19.1434 22.7688 19.5911 22.3211 19.5911 21.7688C19.5911 21.2165 19.1434 20.7688 18.5911 20.7688H10.81L20.8222 3.81693ZM20.0434 13.198C19.7624 12.7225 19.1492 12.5648 18.6737 12.8458C18.1983 13.1268 18.0406 13.74 18.3216 14.2155L23.0359 22.1929C23.0629 22.2506 23.0953 22.3053 23.1324 22.3563L27.1769 29.2002C27.4578 29.6757 28.0711 29.8333 28.5465 29.5524C29.022 29.2714 29.1796 28.6582 28.8987 28.1827L25.6993 22.7688H31.499C32.0513 22.7688 32.499 22.3211 32.499 21.7688C32.499 21.2165 32.0513 20.7688 31.499 20.7688H24.5174L20.0434 13.198ZM6.84282 25.5242C7.3177 25.8061 7.47409 26.4197 7.19213 26.8946L5.82202 29.2021C5.54005 29.677 4.92651 29.8334 4.45162 29.5514C3.97674 29.2695 3.82034 28.6559 4.10231 28.181L5.47242 25.8735C5.75439 25.3986 6.36793 25.2422 6.84282 25.5242Z" fill="#111827"/>
</svg>
