<svg width="32" height="32" viewBox="0 0 32 32" fill="none" xmlns="http://www.w3.org/2000/svg">
<path d="M8.5 11C9.32843 11 10 10.3284 10 9.5C10 8.67157 9.32843 8 8.5 8C7.67157 8 7 8.67157 7 9.5C7 10.3284 7.67157 11 8.5 11Z" fill="#1C1B1F"/>
<path d="M13.5 11C14.3284 11 15 10.3284 15 9.5C15 8.67157 14.3284 8 13.5 8C12.6716 8 12 8.67157 12 9.5C12 10.3284 12.6716 11 13.5 11Z" fill="#1C1B1F"/>
<path d="M4 6H28V26H4V6Z" stroke="#1C1B1F" stroke-width="2" stroke-linejoin="round"/>
<path d="M4 13L28 13" stroke="#1C1B1F" stroke-width="2" stroke-linecap="round" stroke-linejoin="round"/>
</svg>
