<svg width="33" height="32" viewBox="0 0 33 32" fill="none" xmlns="http://www.w3.org/2000/svg">
<path fill-rule="evenodd" clip-rule="evenodd" d="M0.500916 3.50076C0.500916 2.94848 0.948631 2.50076 1.50092 2.50076H31.4991C32.0514 2.50076 32.4991 2.94848 32.4991 3.50076V12.2502V28.4992C32.4991 29.0515 32.0514 29.4992 31.4991 29.4992H1.50092C0.948631 29.4992 0.500916 29.0515 0.500916 28.4992V12.2502V3.50076ZM2.50092 13.2502V27.4992H30.4991V13.2502L2.50092 13.2502ZM30.4991 11.2502L2.50092 11.2502V4.50076H30.4991V11.2502ZM9.00045 7.87549C9.00045 8.91096 8.16104 9.75038 7.12557 9.75038C6.0901 9.75038 5.25068 8.91096 5.25068 7.87549C5.25068 6.84002 6.0901 6.00061 7.12557 6.00061C8.16104 6.00061 9.00045 6.84002 9.00045 7.87549ZM15.2501 7.87549C15.2501 8.91096 14.4107 9.75038 13.3752 9.75038C12.3397 9.75038 11.5003 8.91096 11.5003 7.87549C11.5003 6.84002 12.3397 6.00061 13.3752 6.00061C14.4107 6.00061 15.2501 6.84002 15.2501 7.87549Z" fill="#111827"/>
</svg>
