<svg width="33" height="32" viewBox="0 0 33 32" fill="none" xmlns="http://www.w3.org/2000/svg">
<path fill-rule="evenodd" clip-rule="evenodd" d="M3.52172 0.78356C3.69111 0.444776 4.03738 0.230774 4.41615 0.230774H28.584C28.9627 0.230774 29.309 0.444776 29.4784 0.78356L32.1548 6.13643C32.2257 6.27107 32.2667 6.42384 32.2692 6.58596L32.2693 6.6028V30.7692C32.2693 31.3215 31.8216 31.7692 31.2693 31.7692H1.73083C1.17855 31.7692 0.730835 31.3215 0.730835 30.7692V6.60281V6.60141L0.730934 6.58722C0.733195 6.42464 0.774254 6.27144 0.845271 6.13646L3.52172 0.78356ZM5.03418 2.23077L3.34887 5.6014H29.6512L27.9659 2.23077H5.03418ZM2.73083 29.7692V7.60141H30.2693V29.7692H2.73083ZM16.5001 10.972C15.9478 10.972 15.5001 11.4197 15.5001 11.972V22.9845L11.5107 18.9951C11.1201 18.6046 10.487 18.6046 10.0964 18.9951C9.70592 19.3856 9.70592 20.0188 10.0964 20.4093L15.7929 26.1057C15.9156 26.2285 16.0622 26.3126 16.2178 26.3582C16.26 26.3706 16.3034 26.3803 16.3478 26.3871C16.3679 26.3901 16.3883 26.3926 16.4089 26.3945C16.468 26.3999 16.5276 26.4 16.5868 26.3949C16.7999 26.3766 16.994 26.2914 17.1478 26.1604C17.1706 26.141 17.1926 26.1206 17.2135 26.0993L22.9035 20.4093C23.294 20.0188 23.294 19.3856 22.9035 18.9951C22.5129 18.6046 21.8798 18.6046 21.4893 18.9951L17.5001 22.9843V11.972C17.5001 11.4197 17.0523 10.972 16.5001 10.972Z" fill="#111827"/>
</svg>
