<svg width="33" height="32" viewBox="0 0 33 32" fill="none" xmlns="http://www.w3.org/2000/svg">
<path fill-rule="evenodd" clip-rule="evenodd" d="M1.50085 4.61603C0.94857 4.61603 0.500854 5.06374 0.500854 5.61603V12.2532C0.500854 12.8054 0.94857 13.2532 1.50085 13.2532H2.45357V26.384C2.45357 26.9363 2.90128 27.384 3.45357 27.384H29.1916C29.7438 27.384 30.1916 26.9363 30.1916 26.384V13.2532H31.499C32.0513 13.2532 32.499 12.8054 32.499 12.2532V5.61603C32.499 5.06374 32.0513 4.61603 31.499 4.61603H1.50085ZM2.50085 11.2532V6.61603H30.499V11.2532H2.50085ZM4.45357 13.2532V25.384H28.1916V13.2532H4.45357ZM12.0385 17.1537C12.0385 16.6015 12.4862 16.1537 13.0385 16.1537H19.9612C20.5134 16.1537 20.9612 16.6015 20.9612 17.1537C20.9612 17.706 20.5134 18.1537 19.9612 18.1537H13.0385C12.4862 18.1537 12.0385 17.706 12.0385 17.1537Z" fill="#111827"/>
</svg>
