<svg width="33" height="32" viewBox="0 0 33 32" fill="none" xmlns="http://www.w3.org/2000/svg">
<path fill-rule="evenodd" clip-rule="evenodd" d="M1.50085 0.000915527C0.94857 0.000915527 0.500854 0.448631 0.500854 1.00092V30.9991C0.500854 31.5514 0.94857 31.9991 1.50085 31.9991H31.499C32.0513 31.9991 32.499 31.5514 32.499 30.9991V1.00092C32.499 0.448631 32.0513 0.000915527 31.499 0.000915527H1.50085ZM2.50085 20.4108V2.00092H30.499V20.4108H24.6451C24.3799 20.4108 24.1255 20.5161 23.938 20.7037L19.8152 24.8265H12.9881L8.86528 20.7037C8.67774 20.5161 8.42339 20.4108 8.15817 20.4108H2.50085ZM2.50085 22.4108V29.9991H30.499V22.4108H25.0593L20.9365 26.5336C20.749 26.7211 20.4946 26.8265 20.2294 26.8265H12.5738C12.3086 26.8265 12.0543 26.7211 11.8667 26.5336L7.74396 22.4108H2.50085ZM17.501 6.45512C17.501 5.90284 17.0533 5.45512 16.501 5.45512C15.9487 5.45512 15.501 5.90284 15.501 6.45512L15.501 17.6765L10.8971 13.0726C10.5065 12.6821 9.87337 12.6821 9.48285 13.0726C9.09232 13.4631 9.09232 14.0963 9.48285 14.4868L15.7938 20.7978C15.9149 20.9188 16.0593 21.0024 16.2125 21.0484C16.2567 21.0617 16.3022 21.072 16.3487 21.0791C16.4351 21.0923 16.5228 21.0942 16.6096 21.0848C16.6952 21.0755 16.7777 21.0555 16.8554 21.026C16.9689 20.9831 17.0762 20.9187 17.171 20.8331C17.1852 20.8201 17.1992 20.8068 17.2127 20.7931L23.519 14.4868C23.9095 14.0963 23.9095 13.4631 23.519 13.0726C23.1285 12.6821 22.4953 12.6821 22.1048 13.0726L17.501 17.6764V6.45512Z" fill="#111827"/>
</svg>
