<svg width="33" height="33" viewBox="0 0 33 33" fill="none" xmlns="http://www.w3.org/2000/svg">
<path fill-rule="evenodd" clip-rule="evenodd" d="M10.0712 6.25C9.19973 6.25 8.36398 6.59618 7.74778 7.21238C7.13158 7.82859 6.7854 8.66434 6.7854 9.53578V11.8454C7.13416 11.9126 7.47695 12.0151 7.80832 12.1524C8.77417 12.5524 9.59969 13.2299 10.1805 14.0992C10.7613 14.9684 11.0713 15.9903 11.0713 17.0358V18.1787H21.9287V17.0358C21.9287 15.9903 22.2387 14.9684 22.8195 14.0992C23.4003 13.2299 24.2258 12.5524 25.1917 12.1524C25.5229 12.0151 25.8656 11.9127 26.2143 11.8455V9.53578C26.2143 8.66434 25.8681 7.82859 25.2519 7.21238C24.6357 6.59618 23.8 6.25 22.9285 6.25H10.0712ZM28.2143 11.8454V9.53578C28.2143 8.1339 27.6574 6.78944 26.6661 5.79817C25.6748 4.80689 24.3304 4.25 22.9285 4.25H10.0712C8.6693 4.25 7.32484 4.80689 6.33357 5.79817C5.34229 6.78944 4.7854 8.1339 4.7854 9.53578V11.8455C4.77504 11.8475 4.76468 11.8495 4.75433 11.8516C3.72899 12.0555 2.78716 12.5589 2.04793 13.2982C1.3087 14.0374 0.805276 14.9792 0.601323 16.0046C0.39737 17.0299 0.502046 18.0927 0.902114 19.0586C1.30218 20.0244 1.97967 20.8499 2.84892 21.4307C3.43777 21.8242 4.0967 22.0934 4.78554 22.2261V26.6788C4.78554 27.2282 5.00378 27.755 5.39225 28.1435C5.78072 28.532 6.3076 28.7502 6.85698 28.7502H26.143C26.6924 28.7502 27.2192 28.532 27.6077 28.1435C27.9962 27.755 28.2144 27.2282 28.2144 26.6788V22.2261C28.9033 22.0934 29.5622 21.8242 30.1511 21.4307C31.0203 20.8499 31.6978 20.0244 32.0979 19.0586C32.4979 18.0927 32.6026 17.0299 32.3986 16.0046C32.1947 14.9792 31.6913 14.0374 30.952 13.2982C30.2128 12.5589 29.271 12.0555 28.2456 11.8516C28.2352 11.8495 28.2247 11.8474 28.2143 11.8454ZM27.2006 13.75C27.2052 13.7501 27.2097 13.7501 27.2143 13.7501C27.2188 13.7501 27.2234 13.7501 27.2279 13.75C27.4377 13.7509 27.6478 13.7718 27.8555 13.8131C28.4928 13.9399 29.0783 14.2529 29.5378 14.7124C29.9974 15.1719 30.3103 15.7574 30.4371 16.3948C30.5639 17.0321 30.4988 17.6928 30.2501 18.2932C30.0014 18.8936 29.5803 19.4068 29.0399 19.7678C28.4996 20.1288 27.8643 20.3216 27.2144 20.3216C26.6621 20.3216 26.2144 20.7693 26.2144 21.3216V26.6788C26.2144 26.6977 26.2069 26.7159 26.1935 26.7293C26.1801 26.7427 26.1619 26.7502 26.143 26.7502H23.9287V17.0358C23.9287 16.3859 24.1214 15.7506 24.4824 15.2103C24.8435 14.6699 25.3566 14.2488 25.957 14.0001C26.3533 13.836 26.7758 13.7518 27.2006 13.75ZM5.77171 13.75C5.5621 13.7509 5.35207 13.7718 5.14451 13.8131C4.50714 13.9399 3.92167 14.2529 3.46214 14.7124C3.00262 15.1719 2.68968 15.7574 2.56289 16.3948C2.43611 17.0321 2.50118 17.6928 2.74987 18.2932C2.99857 18.8936 3.41971 19.4068 3.96006 19.7678C4.5004 20.1288 5.13567 20.3216 5.78554 20.3216C6.33782 20.3216 6.78554 20.7693 6.78554 21.3216V26.6788C6.78554 26.6977 6.79306 26.7159 6.80646 26.7293C6.81986 26.7427 6.83803 26.7502 6.85698 26.7502H9.07132V19.1872C9.07129 19.1844 9.07128 19.1815 9.07128 19.1787C9.07128 19.1759 9.07129 19.173 9.07132 19.1702V17.0358C9.07132 16.3859 8.87861 15.7506 8.51756 15.2103C8.15652 14.6699 7.64335 14.2488 7.04295 14.0001C6.6467 13.836 6.22421 13.7518 5.79948 13.75C5.79479 13.7501 5.7901 13.7501 5.7854 13.7501C5.78083 13.7501 5.77626 13.7501 5.77171 13.75ZM11.0713 20.1787V26.7502H21.9287V20.1787H11.0713Z" fill="#111827"/>
</svg>
