<svg width="32" height="32" viewBox="0 0 32 32" fill="none" xmlns="http://www.w3.org/2000/svg">
<path d="M10.8572 18.1428H21.1429" stroke="#1C1B1F" stroke-width="2" stroke-linecap="round" stroke-linejoin="round"/>
<path d="M7.42847 13V10.4286C7.42847 9.51926 7.78969 8.64719 8.43267 8.00421C9.07565 7.36122 9.94772 7 10.857 7H21.1428C22.0521 7 22.9241 7.36122 23.5671 8.00421C24.2101 8.64719 24.5713 9.51926 24.5713 10.4286V13" stroke="#1C1B1F" stroke-width="2" stroke-linecap="round" stroke-linejoin="round"/>
<path d="M10.8571 24.8571V16.4286C10.8571 15.7505 10.6561 15.0876 10.2793 14.5238C9.90259 13.9599 9.36712 13.5205 8.74063 13.261C8.11414 13.0015 7.42477 12.9336 6.75969 13.0659C6.09461 13.1982 5.4837 13.5247 5.00421 14.0042C4.52471 14.4837 4.19817 15.0946 4.06588 15.7597C3.93359 16.4248 4.00149 17.1141 4.26099 17.7406C4.52049 18.3671 4.95993 18.9026 5.52376 19.2793C6.08759 19.6561 6.75047 19.8571 7.42857 19.8571V24.1429C7.42857 24.3702 7.51888 24.5882 7.67962 24.7489C7.84037 24.9097 8.05839 25 8.28572 25H23.7143C23.9416 25 24.1596 24.9097 24.3204 24.7489C24.4811 24.5882 24.5714 24.3702 24.5714 24.1429V19.8571C25.2495 19.8571 25.9124 19.6561 26.4762 19.2793C27.0401 18.9026 27.4795 18.3671 27.739 17.7406C27.9985 17.1141 28.0664 16.4248 27.9341 15.7597C27.8018 15.0946 27.4753 14.4837 26.9958 14.0042C26.5163 13.5247 25.9054 13.1982 25.2403 13.0659C24.5752 12.9336 23.8859 13.0015 23.2594 13.261C22.6329 13.5205 22.0974 13.9599 21.7207 14.5238C21.3439 15.0876 21.1429 15.7505 21.1429 16.4286V24.8571" stroke="#1C1B1F" stroke-width="2" stroke-linecap="round" stroke-linejoin="round"/>
</svg>
