<svg width="33" height="32" viewBox="0 0 33 32" fill="none" xmlns="http://www.w3.org/2000/svg">
<path fill-rule="evenodd" clip-rule="evenodd" d="M0.500977 1.00092C0.500977 0.448631 0.948692 0.000915527 1.50098 0.000915527H31.4991C32.0514 0.000915527 32.4991 0.448631 32.4991 1.00092V30.9991C32.4991 31.5514 32.0514 31.9991 31.4991 31.9991H1.50098C0.948692 31.9991 0.500977 31.5514 0.500977 30.9991V1.00092ZM2.50098 2.00092V29.9991H30.4991V2.00092H2.50098ZM12.081 11.9196C12.6333 11.9196 13.081 12.3673 13.081 12.9196V18.0049L20.212 10.8738C20.6025 10.4833 21.2357 10.4833 21.6262 10.8738C22.0168 11.2643 22.0168 11.8975 21.6262 12.288L14.4951 19.4191H19.5805C20.1328 19.4191 20.5805 19.8668 20.5805 20.4191C20.5805 20.9714 20.1328 21.4191 19.5805 21.4191H12.0861M12.081 21.4191C12.0524 21.4191 12.0241 21.4179 11.9961 21.4156C11.9093 21.4083 11.8256 21.3899 11.7465 21.3618C11.6104 21.3137 11.4827 21.2351 11.3738 21.1263C11.2301 20.9825 11.1392 20.8059 11.1013 20.6207C11.0971 20.6003 11.0936 20.5798 11.0907 20.559C11.0836 20.5084 11.0803 20.4574 11.081 20.4065V12.9196C11.081 12.3673 11.5287 11.9196 12.081 11.9196" fill="#111827"/>
</svg>
