<svg width="33" height="32" viewBox="0 0 33 32" fill="none" xmlns="http://www.w3.org/2000/svg">
<path fill-rule="evenodd" clip-rule="evenodd" d="M21.0217 4.47827C21.0217 3.92599 20.574 3.47827 20.0217 3.47827C19.4694 3.47827 19.0217 3.92599 19.0217 4.47827V12.4783C19.0217 13.0306 19.4694 13.4783 20.0217 13.4783H28.0217C28.574 13.4783 29.0217 13.0306 29.0217 12.4783C29.0217 11.926 28.574 11.4783 28.0217 11.4783H21.0217V4.47827ZM4.97852 18.5219C4.42623 18.5219 3.97852 18.9696 3.97852 19.5219C3.97852 20.0741 4.42623 20.5219 4.97852 20.5219H11.9785V27.5219C11.9785 28.0741 12.4262 28.5219 12.9785 28.5219C13.5308 28.5219 13.9785 28.0741 13.9785 27.5219V19.5219C13.9785 18.9696 13.5308 18.5219 12.9785 18.5219H4.97852Z" fill="#111827"/>
<path fill-rule="evenodd" clip-rule="evenodd" d="M29.2066 4.70747C29.5971 4.31695 29.5971 3.68378 29.2066 3.29326C28.8161 2.90274 28.1829 2.90274 27.7924 3.29326L19.3145 11.7711C18.924 12.1616 18.924 12.7948 19.3145 13.1853C19.7051 13.5759 20.3382 13.5759 20.7288 13.1853L29.2066 4.70747ZM3.79338 27.2926C3.40286 27.6832 3.40286 28.3163 3.79338 28.7069C4.18391 29.0974 4.81707 29.0974 5.20759 28.7069L13.6855 20.229C14.076 19.8384 14.076 19.2053 13.6855 18.8147C13.295 18.4242 12.6618 18.4242 12.2713 18.8147L3.79338 27.2926Z" fill="#111827"/>
</svg>
