<svg width="33" height="32" viewBox="0 0 33 32" fill="none" xmlns="http://www.w3.org/2000/svg">
<path fill-rule="evenodd" clip-rule="evenodd" d="M4.49956 4.09076C3.94727 4.09076 3.49956 4.53847 3.49956 5.09076V26.9092C3.49956 27.4615 3.94727 27.9092 4.49956 27.9092C5.05184 27.9092 5.49956 27.4615 5.49956 26.9092V5.09076C5.49956 4.53847 5.05184 4.09076 4.49956 4.09076ZM14.1995 10.6595C13.809 10.2689 13.1758 10.2689 12.7853 10.6595L8.16883 15.2759C7.98078 15.4577 7.86386 15.7126 7.86386 15.9949C7.86386 16.1605 7.90414 16.3168 7.97544 16.4544C8.01065 16.5224 8.05421 16.5873 8.10612 16.6475C8.12365 16.6678 8.14199 16.6874 8.16108 16.7063L12.7853 21.3305C13.1758 21.721 13.809 21.721 14.1995 21.3305C14.59 20.9399 14.59 20.3068 14.1995 19.9163L11.2781 16.9949H28.5005C29.0528 16.9949 29.5005 16.5472 29.5005 15.9949C29.5005 15.4426 29.0528 14.9949 28.5005 14.9949H11.2783L14.1995 12.0737C14.59 11.6832 14.59 11.05 14.1995 10.6595Z" fill="#111827"/>
</svg>
