<svg width="33" height="32" viewBox="0 0 33 32" fill="none" xmlns="http://www.w3.org/2000/svg">
<path fill-rule="evenodd" clip-rule="evenodd" d="M13.6264 9.45909C14.0169 9.06857 14.6501 9.06857 15.0406 9.45909C15.4311 9.84962 15.4311 10.4828 15.0406 10.8733L10.9138 15.0001L24.5002 15.0001C25.0525 15.0001 25.5002 15.4478 25.5002 16.0001C25.5002 16.5524 25.0525 17.0001 24.5002 17.0001L10.9138 17.0001L15.0406 21.1269C15.4311 21.5174 15.4311 22.1506 15.0406 22.5411C14.6501 22.9317 14.0169 22.9317 13.6264 22.5411L7.80015 16.7149C7.76517 16.6807 7.7327 16.6439 7.70302 16.6049C7.57532 16.4369 7.49951 16.2274 7.49951 16.0001C7.49951 15.8353 7.53939 15.6798 7.61003 15.5427C7.64046 15.4835 7.67719 15.4268 7.7202 15.3734C7.74477 15.3429 7.7711 15.3139 7.79903 15.2865L13.6264 9.45909Z" fill="#111827"/>
</svg>
