<svg width="33" height="32" viewBox="0 0 33 32" fill="none" xmlns="http://www.w3.org/2000/svg">
<path fill-rule="evenodd" clip-rule="evenodd" d="M2.50073 16C2.50073 8.26852 8.76834 2.00092 16.4998 2.00092C24.2313 2.00092 30.4989 8.26852 30.4989 16C30.4989 23.7315 24.2313 29.9991 16.4998 29.9991C8.76834 29.9991 2.50073 23.7315 2.50073 16ZM16.4998 0.000915527C7.66377 0.000915527 0.500732 7.16395 0.500732 16C0.500732 24.8361 7.66377 31.9991 16.4998 31.9991C25.3359 31.9991 32.4989 24.8361 32.4989 16C32.4989 7.16395 25.3359 0.000915527 16.4998 0.000915527ZM16.2602 9.9899C16.6508 10.3804 16.6508 11.0136 16.2602 11.4041L12.6644 15H22.7494C23.3017 15 23.7494 15.4477 23.7494 16C23.7494 16.5523 23.3017 17 22.7494 17H12.6644L16.2602 20.5959C16.6508 20.9864 16.6508 21.6195 16.2602 22.0101C15.8697 22.4006 15.2366 22.4006 14.846 22.0101L9.54305 16.7071C9.43724 16.6013 9.3601 16.4777 9.31163 16.3459C9.28076 16.2621 9.26077 16.1731 9.25339 16.0806C9.24908 16.0269 9.24908 15.973 9.25339 15.9194C9.26086 15.8258 9.28121 15.7358 9.31269 15.6512C9.36122 15.5205 9.43801 15.3979 9.54305 15.2929L14.846 9.9899C15.2366 9.59938 15.8697 9.59938 16.2602 9.9899Z" fill="#111827"/>
</svg>
