<svg width="33" height="32" viewBox="0 0 33 32" fill="none" xmlns="http://www.w3.org/2000/svg">
<path fill-rule="evenodd" clip-rule="evenodd" d="M9.03193 22.0793C8.64141 22.4699 8.64141 23.103 9.03193 23.4935C9.42246 23.8841 10.0556 23.8841 10.4461 23.4935L28.4997 5.44V11.4759C28.4997 12.0281 28.9474 12.4759 29.4997 12.4759C30.052 12.4759 30.4997 12.0281 30.4997 11.4759V3.02606C30.4997 2.88456 30.4703 2.74993 30.4173 2.62793C30.3687 2.51568 30.2985 2.41053 30.2067 2.31877C30.0065 2.1186 29.7426 2.02103 29.4803 2.02606L21.0499 2.02606C20.4976 2.02606 20.0499 2.47378 20.0499 3.02606C20.0499 3.57835 20.4976 4.02606 21.0499 4.02606H27.0852L9.03193 22.0793ZM2.50049 9.47521C2.50049 8.92292 2.9482 8.47521 3.50049 8.47521H15.4822C16.0345 8.47521 16.4822 8.92292 16.4822 9.47521C16.4822 10.0275 16.0345 10.4752 15.4822 10.4752H4.50049V27.9741H21.9993V17.0417C21.9993 16.4894 22.4471 16.0417 22.9993 16.0417C23.5516 16.0417 23.9993 16.4894 23.9993 17.0417V28.9741C23.9993 29.5263 23.5516 29.9741 22.9993 29.9741H3.50049C2.9482 29.9741 2.50049 29.5263 2.50049 28.9741V9.47521Z" fill="#111827"/>
</svg>
