<svg width="33" height="32" viewBox="0 0 33 32" fill="none" xmlns="http://www.w3.org/2000/svg">
<path fill-rule="evenodd" clip-rule="evenodd" d="M16.5004 4.09143C17.0527 4.09143 17.5004 4.53915 17.5004 5.09143V26.9086C17.5004 27.4608 17.0527 27.9086 16.5004 27.9086C15.9481 27.9086 15.5004 27.4608 15.5004 26.9086V5.09143C15.5004 4.53915 15.9481 4.09143 16.5004 4.09143ZM22.1847 15.0001L25.1081 12.0768C25.4986 11.6863 25.4986 11.0531 25.1081 10.6626C24.7175 10.272 24.0844 10.272 23.6939 10.6626L19.0657 15.2907C18.8866 15.4698 18.7896 15.7 18.7748 15.9344C18.7734 15.9561 18.7727 15.978 18.7727 16.0001C18.7727 16.2975 18.9025 16.5646 19.1086 16.7477L23.6939 21.333C24.0844 21.7235 24.7175 21.7235 25.1081 21.333C25.4986 20.9425 25.4986 20.3093 25.1081 19.9188L22.1894 17.0001H28.4996C29.0519 17.0001 29.4996 16.5524 29.4996 16.0001C29.4996 15.4478 29.0519 15.0001 28.4996 15.0001H22.1847ZM7.89255 10.6627C8.30506 10.2955 8.95605 10.3144 9.34658 10.7049L13.8941 15.2525C13.9219 15.2773 13.9482 15.3037 13.973 15.3314L13.9747 15.333C14.3652 15.7236 14.3474 16.3378 13.9349 16.7051L13.9332 16.7066C13.9066 16.733 13.8786 16.758 13.8492 16.7813L9.04617 21.057C8.63366 21.4242 7.98267 21.4053 7.59214 21.0148C7.20162 20.6243 7.21945 20.01 7.63196 19.6428L10.603 16.998H4.50073C3.94845 16.998 3.50073 16.5502 3.50073 15.998C3.50073 15.4457 3.94845 14.998 4.50073 14.998H10.8159L7.85274 12.0348C7.46221 11.6442 7.48004 11.03 7.89255 10.6627Z" fill="#111827"/>
</svg>
