<svg width="33" height="32" viewBox="0 0 33 32" fill="none" xmlns="http://www.w3.org/2000/svg">
<path fill-rule="evenodd" clip-rule="evenodd" d="M12.1627 6.76121C13.9899 6.00433 16.0006 5.8063 17.9404 6.19215C19.8802 6.578 21.662 7.53041 23.0606 8.92894L25.5961 11.4645H22.0105C21.4582 11.4645 21.0105 11.9122 21.0105 12.4645C21.0105 13.0168 21.4582 13.4645 22.0105 13.4645H28.0105C28.5628 13.4645 29.0105 13.0168 29.0105 12.4645V6.46448C29.0105 5.91219 28.5628 5.46448 28.0105 5.46448C27.4582 5.46448 27.0105 5.91219 27.0105 6.46448V10.0504L24.4748 7.51472C22.7966 5.83649 20.6584 4.6936 18.3306 4.23058C16.0028 3.76756 13.59 4.0052 11.3973 4.91345C9.20459 5.8217 7.33044 7.35977 6.01187 9.33316C4.69329 11.3066 3.9895 13.6266 3.9895 16C3.9895 18.3734 4.69329 20.6935 6.01187 22.6668C7.33044 24.6402 9.20459 26.1783 11.3973 27.0866C13.59 27.9948 16.0028 28.2325 18.3306 27.7694C20.6584 27.3064 22.7966 26.1635 24.4748 24.4853C24.8653 24.0948 24.8653 23.4616 24.4748 23.0711C24.0843 22.6805 23.4511 22.6805 23.0606 23.0711C21.662 24.4696 19.8802 25.422 17.9404 25.8079C16.0006 26.1937 13.9899 25.9957 12.1627 25.2388C10.3354 24.4819 8.77362 23.2002 7.67481 21.5557C6.57599 19.9112 5.9895 17.9778 5.9895 16C5.9895 14.0222 6.57599 12.0888 7.67481 10.4443C8.77362 8.79981 10.3354 7.51809 12.1627 6.76121Z" fill="#111827"/>
</svg>
