<svg width="33" height="32" viewBox="0 0 33 32" fill="none" xmlns="http://www.w3.org/2000/svg">
<path fill-rule="evenodd" clip-rule="evenodd" d="M2.49976 16C2.49976 8.26787 8.76787 1.99976 16.5 1.99976C24.2321 1.99976 30.5002 8.26787 30.5002 16C30.5002 23.7321 24.2321 30.0002 16.5 30.0002C8.76787 30.0002 2.49976 23.7321 2.49976 16ZM16.5 -0.000244141C7.6633 -0.000244141 0.499756 7.1633 0.499756 16C0.499756 24.8367 7.6633 32.0002 16.5 32.0002C25.3367 32.0002 32.5002 24.8367 32.5002 16C32.5002 7.1633 25.3367 -0.000244141 16.5 -0.000244141ZM16.4998 8.74969C17.052 8.74969 17.4998 9.19741 17.4998 9.74969V19.8355L21.0959 16.2393C21.4865 15.8488 22.1196 15.8488 22.5102 16.2393C22.9007 16.6299 22.9007 17.263 22.5102 17.6535L17.2173 22.9464C17.0355 23.1336 16.7812 23.2499 16.4998 23.2499C16.3555 23.2499 16.2184 23.2193 16.0945 23.1644C15.985 23.1159 15.8824 23.0467 15.7926 22.9569L10.4892 17.6535C10.0987 17.263 10.0987 16.6299 10.4892 16.2393C10.8797 15.8488 11.5129 15.8488 11.9034 16.2393L15.4998 19.8357V9.74969C15.4998 9.19741 15.9475 8.74969 16.4998 8.74969Z" fill="#111827"/>
</svg>
