<svg width="33" height="32" viewBox="0 0 33 32" fill="none" xmlns="http://www.w3.org/2000/svg">
<path fill-rule="evenodd" clip-rule="evenodd" d="M0.500977 1.00104C0.500977 0.448753 0.948692 0.0010376 1.50098 0.0010376H31.4989C32.0512 0.0010376 32.4989 0.448753 32.4989 1.00104V30.999C32.4989 31.5513 32.0512 31.999 31.4989 31.999H1.50098C0.948692 31.999 0.500977 31.5513 0.500977 30.999V1.00104ZM2.50098 2.00104V29.999H30.4989V2.00104H2.50098ZM16.2604 9.98989C16.6509 10.3804 16.6509 11.0136 16.2604 11.4041L12.6645 15H22.7496C23.3019 15 23.7496 15.4477 23.7496 16C23.7496 16.5523 23.3019 17 22.7496 17H12.6646L16.2604 20.5958C16.6509 20.9863 16.6509 21.6195 16.2604 22.01C15.8699 22.4005 15.2367 22.4005 14.8462 22.01L9.54325 16.707C9.42121 16.585 9.33731 16.4393 9.29155 16.2847C9.28077 16.2482 9.27211 16.2113 9.26556 16.1741C9.21095 15.8638 9.30351 15.5326 9.54325 15.2928L14.8462 9.98989C15.2367 9.59937 15.8699 9.59937 16.2604 9.98989Z" fill="#111827"/>
</svg>
