<svg width="33" height="32" viewBox="0 0 33 32" fill="none" xmlns="http://www.w3.org/2000/svg">
<path fill-rule="evenodd" clip-rule="evenodd" d="M24.9644 6.17156C24.5739 5.78103 23.9407 5.78103 23.5502 6.17156C23.1597 6.56208 23.1597 7.19524 23.5502 7.58577L26.0858 10.1213H11.5C10.4494 10.1213 9.40913 10.3283 8.43852 10.7303C7.46792 11.1323 6.58601 11.7216 5.84314 12.4645C5.10027 13.2073 4.511 14.0893 4.10896 15.0599C3.70693 16.0305 3.5 17.0708 3.5 18.1213V18.1213C3.5 20.2431 4.34285 22.2779 5.84315 23.7782C7.34344 25.2785 9.37827 26.1213 11.5 26.1213H22.5C23.0523 26.1213 23.5 25.6736 23.5 25.1213C23.5 24.5691 23.0523 24.1213 22.5 24.1213H11.5C9.9087 24.1213 8.38258 23.4892 7.25736 22.364C6.13214 21.2388 5.5 19.7126 5.5 18.1213V18.1213C5.5 17.3334 5.65519 16.5532 5.95672 15.8252C6.25825 15.0973 6.7002 14.4358 7.25735 13.8787C7.81451 13.3215 8.47594 12.8796 9.20389 12.5781C9.93184 12.2765 10.7121 12.1213 11.5 12.1213H26.0857L23.5502 14.6568C23.1597 15.0474 23.1597 15.6805 23.5502 16.071C23.9407 16.4616 24.5739 16.4616 24.9644 16.071L29.2 11.8355C29.2289 11.8072 29.2561 11.7771 29.2814 11.7455C29.3274 11.688 29.3662 11.6265 29.3977 11.5624C29.4632 11.4294 29.5 11.2796 29.5 11.1213C29.5 10.9775 29.4696 10.8407 29.4149 10.7171C29.3676 10.6099 29.3005 10.5093 29.2136 10.4208C29.2113 10.4185 29.2091 10.4162 29.2068 10.4139M24.9644 6.17156L29.2068 10.4139L24.9644 6.17156Z" fill="#111827"/>
</svg>
