<svg width="33" height="32" viewBox="0 0 33 32" fill="none" xmlns="http://www.w3.org/2000/svg">
<path fill-rule="evenodd" clip-rule="evenodd" d="M25.171 24.7456C25.198 24.7214 25.2236 24.6957 25.2477 24.6687C25.3182 24.59 25.374 24.5029 25.4152 24.4108C25.4711 24.2861 25.5022 24.1478 25.5022 24.0022V16.0022C25.5022 15.4499 25.0545 15.0022 24.5022 15.0022C23.9499 15.0022 23.5022 15.4499 23.5022 16.0022V21.588L9.20491 7.29072C8.81439 6.9002 8.18122 6.9002 7.7907 7.29072C7.40017 7.68125 7.40017 8.31441 7.7907 8.70493L22.088 23.0022H16.5022C15.9499 23.0022 15.5022 23.4499 15.5022 24.0022C15.5022 24.5545 15.9499 25.0022 16.5022 25.0022H24.502C24.5021 25.0022 24.5021 25.0022 24.5022 25.0022C24.7594 25.0022 24.9939 24.9051 25.171 24.7456Z" fill="#111827"/>
</svg>
