<svg width="33" height="32" viewBox="0 0 33 32" fill="none" xmlns="http://www.w3.org/2000/svg">
<path fill-rule="evenodd" clip-rule="evenodd" d="M6.67156 7.53553C6.28103 7.92606 6.28103 8.55922 6.67156 8.94975C7.06208 9.34027 7.69524 9.34027 8.08577 8.94975L10.6213 6.41418V21C10.6213 22.0506 10.8283 23.0909 11.2303 24.0615C11.6323 25.0321 12.2216 25.914 12.9645 26.6569C13.7073 27.3998 14.5893 27.989 15.5599 28.3911C16.5305 28.7931 17.5708 29 18.6213 29C20.7431 29 22.7779 28.1572 24.2782 26.6569C25.7785 25.1566 26.6213 23.1218 26.6213 21V10C26.6213 9.44774 26.1736 9.00003 25.6213 9.00003C25.0691 9.00003 24.6213 9.44774 24.6213 10V21C24.6213 22.5913 23.9892 24.1174 22.864 25.2427C21.7388 26.3679 20.2126 27 18.6213 27C17.8334 27 17.0532 26.8448 16.3252 26.5433C15.5973 26.2418 14.9358 25.7998 14.3787 25.2427C13.8215 24.6855 13.3796 24.0241 13.0781 23.2961C12.7765 22.5682 12.6213 21.788 12.6213 21V6.41425L15.1568 8.94975C15.5474 9.34027 16.1805 9.34027 16.571 8.94975C16.9616 8.55922 16.9616 7.92606 16.571 7.53553L12.3311 3.29554C12.3236 3.28806 12.3161 3.2807 12.3084 3.27345C12.2134 3.1835 12.1051 3.11574 11.99 3.07017C11.8952 3.03258 11.7934 3.00905 11.687 3.00215C11.6405 2.9991 11.5937 2.9993 11.5472 3.00273C11.4549 3.0095 11.3661 3.02878 11.2825 3.0589C11.1481 3.10719 11.0219 3.18519 10.9142 3.29289L6.67156 7.53553Z" fill="#111827"/>
</svg>
