<svg width="33" height="32" viewBox="0 0 33 32" fill="none" xmlns="http://www.w3.org/2000/svg">
<path fill-rule="evenodd" clip-rule="evenodd" d="M0.500732 1.00092C0.500732 0.448631 0.948448 0.000915527 1.50073 0.000915527H31.4989C32.0512 0.000915527 32.4989 0.448631 32.4989 1.00092V30.9991C32.4989 31.5514 32.0512 31.9991 31.4989 31.9991H1.50073C0.948448 31.9991 0.500732 31.5514 0.500732 30.9991V1.00092ZM2.50073 2.00092V29.9991H30.4989V2.00092H2.50073ZM16.7395 10.2932C17.13 9.90272 17.7632 9.90272 18.1537 10.2932L23.4076 15.5471C23.6044 15.7193 23.7331 15.9675 23.748 16.2459C23.7636 16.5206 23.6666 16.8006 23.4567 17.0104L18.1537 22.3134C17.7632 22.7039 17.13 22.7039 16.7395 22.3134C16.349 21.9229 16.349 21.2897 16.7395 20.8992L20.3387 17.3H10.2501C9.69785 17.3 9.25013 16.8523 9.25013 16.3C9.25013 15.7477 9.69785 15.3 10.2501 15.3H20.332L16.7395 11.7075C16.349 11.3169 16.349 10.6838 16.7395 10.2932Z" fill="#111827"/>
</svg>
