<svg width="33" height="32" viewBox="0 0 33 32" fill="none" xmlns="http://www.w3.org/2000/svg">
<path fill-rule="evenodd" clip-rule="evenodd" d="M2.49976 16C2.49976 8.2679 8.76787 1.99979 16.5 1.99979C24.2321 1.99979 30.5002 8.2679 30.5002 16C30.5002 23.7321 24.2321 30.0002 16.5 30.0002C8.76787 30.0002 2.49976 23.7321 2.49976 16ZM16.5 -0.000213623C7.6633 -0.000213623 0.499756 7.16333 0.499756 16C0.499756 24.8367 7.6633 32.0002 16.5 32.0002C25.3367 32.0002 32.5002 24.8367 32.5002 16C32.5002 7.16333 25.3367 -0.000213623 16.5 -0.000213623ZM21.6263 10.8732C21.2358 10.4827 20.6026 10.4827 20.2121 10.8732L13.0804 18.0049V12.9192C13.0804 12.3669 12.6327 11.9192 12.0804 11.9192C11.5281 11.9192 11.0804 12.3669 11.0804 12.9192V20.4008C11.0756 20.6628 11.1732 20.9264 11.3731 21.1264C11.4839 21.2371 11.6141 21.3164 11.7528 21.3644C11.8554 21.3999 11.9657 21.4193 12.0804 21.4193H19.5805C20.1328 21.4193 20.5805 20.9716 20.5805 20.4193C20.5805 19.867 20.1328 19.4193 19.5805 19.4193H14.4945L21.6263 12.2874C22.0169 11.8969 22.0169 11.2637 21.6263 10.8732Z" fill="#111827"/>
</svg>
