<svg width="33" height="32" viewBox="0 0 33 32" fill="none" xmlns="http://www.w3.org/2000/svg">
<path fill-rule="evenodd" clip-rule="evenodd" d="M24.9644 7.17156C24.5739 6.78103 23.9407 6.78103 23.5502 7.17156C23.1597 7.56208 23.1597 8.19524 23.5502 8.58577L26.0858 11.1213H16.5C13.0522 11.1213 9.74558 12.491 7.30761 14.929C4.86964 17.3669 3.5 20.6735 3.5 24.1213C3.5 24.6736 3.94772 25.1213 4.5 25.1213C5.05228 25.1213 5.5 24.6736 5.5 24.1213C5.5 21.204 6.65893 18.4061 8.72183 16.3432C10.7847 14.2803 13.5826 13.1213 16.5 13.1213H26.0857L23.5502 15.6568C23.1597 16.0474 23.1597 16.6805 23.5502 17.071C23.9407 17.4616 24.5739 17.4616 24.9644 17.071L29.2 12.8355C29.2289 12.8072 29.2561 12.7771 29.2814 12.7455C29.3274 12.688 29.3662 12.6265 29.3977 12.5624C29.4632 12.4294 29.5 12.2796 29.5 12.1213C29.5 11.9775 29.4696 11.8407 29.4149 11.7171C29.3676 11.6099 29.3005 11.5093 29.2136 11.4208C29.2113 11.4185 29.2091 11.4162 29.2068 11.4139M24.9644 7.17156L29.2068 11.4139L24.9644 7.17156Z" fill="#111827"/>
</svg>
