<svg width="33" height="32" viewBox="0 0 33 32" fill="none" xmlns="http://www.w3.org/2000/svg">
<path fill-rule="evenodd" clip-rule="evenodd" d="M15.4251 4.0011C15.4251 3.44881 15.8728 3.0011 16.4251 3.0011H24.4251C24.9773 3.0011 25.4251 3.44881 25.4251 4.0011V12.0011C25.4251 12.5534 24.9773 13.0011 24.4251 13.0011C23.8728 13.0011 23.4251 12.5534 23.4251 12.0011V6.38974L8.30772 21.5071C7.91719 21.8976 7.28403 21.8976 6.8935 21.5071C6.50298 21.1166 6.50298 20.4834 6.8935 20.0929L21.9853 5.0011H16.4251C15.8728 5.0011 15.4251 4.55338 15.4251 4.0011ZM3.00073 27.9989C3.00073 27.4467 3.44845 26.9989 4.00073 26.9989H27.9992C28.5514 26.9989 28.9992 27.4467 28.9992 27.9989C28.9992 28.5512 28.5514 28.9989 27.9992 28.9989H4.00073C3.44845 28.9989 3.00073 28.5512 3.00073 27.9989Z" fill="#111827"/>
</svg>
