<svg width="33" height="32" viewBox="0 0 33 32" fill="none" xmlns="http://www.w3.org/2000/svg">
<path fill-rule="evenodd" clip-rule="evenodd" d="M19.3143 11.7713C18.9238 12.1619 18.9238 12.795 19.3143 13.1856C19.7048 13.5761 20.338 13.5761 20.7285 13.1856L27.4979 6.41615V10.0383C27.4979 10.5906 27.9456 11.0383 28.4979 11.0383C29.0502 11.0383 29.4979 10.5906 29.4979 10.0383V4.02803C29.5049 3.76337 29.4074 3.49647 29.2054 3.29448C29.0065 3.09562 28.7447 2.99802 28.4841 3.00169L22.4613 3.00169C21.909 3.00169 21.4613 3.4494 21.4613 4.00169C21.4613 4.55397 21.909 5.00169 22.4613 5.00169H26.084L19.3143 11.7713ZM4.50171 20.9616C5.05399 20.9616 5.50171 21.4093 5.50171 21.9616V25.5844L12.2716 18.8145C12.6621 18.424 13.2953 18.424 13.6858 18.8145C14.0763 19.205 14.0763 19.8382 13.6858 20.2287L6.91629 26.9983H10.5384C11.0907 26.9983 11.5384 27.446 11.5384 27.9983C11.5384 28.5506 11.0907 28.9983 10.5384 28.9983H4.52072C4.26817 29.003 4.01417 28.9126 3.81704 28.7271C3.74606 28.6604 3.68483 28.5835 3.6357 28.4986C3.55049 28.3515 3.50171 28.1806 3.50171 27.9983V21.9616C3.50171 21.4093 3.94942 20.9616 4.50171 20.9616Z" fill="#111827"/>
</svg>
