<svg width="33" height="32" viewBox="0 0 33 32" fill="none" xmlns="http://www.w3.org/2000/svg">
<path fill-rule="evenodd" clip-rule="evenodd" d="M16.5747 5.06104C17.127 5.06104 17.5747 5.50875 17.5747 6.06104V25.9391C17.5747 26.4914 17.127 26.9391 16.5747 26.9391C16.0224 26.9391 15.5747 26.4914 15.5747 25.9391V6.06104C15.5747 5.50875 16.0224 5.06104 16.5747 5.06104ZM6.91214 15L9.42375 12.4884C9.81428 12.0978 9.81428 11.4647 9.42375 11.0742C9.03323 10.6836 8.40007 10.6836 8.00954 11.0742L3.79276 15.2909C3.61562 15.4681 3.51883 15.6951 3.50239 15.9268C3.50064 15.951 3.49976 15.9754 3.49976 16C3.49976 16.2956 3.628 16.5612 3.83189 16.7443L8.00954 20.9219C8.40007 21.3125 9.03323 21.3125 9.42375 20.9219C9.81428 20.5314 9.81428 19.8982 9.42375 19.5077L6.91602 17H12.451C13.0033 17 13.451 16.5523 13.451 16C13.451 15.4477 13.0033 15 12.451 15H6.91214ZM23.548 11.0741C23.9605 10.7069 24.6115 10.7258 25.002 11.1163L29.2188 15.3331C29.6093 15.7236 29.5915 16.3379 29.179 16.7051L24.7248 20.6703C24.3123 21.0375 23.6613 21.0186 23.2708 20.6281C22.8802 20.2376 22.8981 19.6233 23.3106 19.2561L25.8471 16.998H20.2796C19.7273 16.998 19.2796 16.5503 19.2796 15.998C19.2796 15.4457 19.7273 14.998 20.2796 14.998H26.06L23.5082 12.4461C23.1177 12.0556 23.1355 11.4413 23.548 11.0741Z" fill="#111827"/>
</svg>
