<svg width="33" height="32" viewBox="0 0 33 32" fill="none" xmlns="http://www.w3.org/2000/svg">
<path fill-rule="evenodd" clip-rule="evenodd" d="M12.1502 11.8346C14.1143 11.0046 16.2743 10.7878 18.358 11.2106C20.4418 11.6335 22.3587 12.6778 23.8651 14.2147L26.1196 16.5148H22.5C21.9477 16.5148 21.5 16.9625 21.5 17.5148C21.5 18.0671 21.9477 18.5148 22.5 18.5148H28.5C28.6565 18.5148 28.8047 18.4788 28.9366 18.4147C29.0026 18.3826 29.0659 18.3429 29.1251 18.2954C29.1702 18.2592 29.2122 18.2191 29.2504 18.1757C29.3183 18.0989 29.3723 18.0141 29.4125 17.9245C29.4687 17.7994 29.5 17.6608 29.5 17.5148V11.5148C29.5 10.9625 29.0523 10.5148 28.5 10.5148C27.9477 10.5148 27.5 10.9625 27.5 11.5148V15.0659L25.2934 12.8147C23.5099 10.9952 21.2352 9.75373 18.7557 9.25056C16.2761 8.74736 13.7062 9.00581 11.3717 9.99232C9.0375 10.9787 7.04565 12.6478 5.64573 14.7853C4.24595 16.9226 3.5 19.4333 3.5 22C3.5 22.5523 3.94772 23 4.5 23C5.05229 23 5.5 22.5523 5.5 22C5.5 19.82 6.13372 17.6906 7.31883 15.8811C8.5038 14.0718 10.186 12.6647 12.1502 11.8346Z" fill="#111827"/>
</svg>
