<svg width="33" height="32" viewBox="0 0 33 32" fill="none" xmlns="http://www.w3.org/2000/svg">
<path fill-rule="evenodd" clip-rule="evenodd" d="M17.5003 4.00049C17.5003 3.4482 17.0526 3.00049 16.5003 3.00049C15.948 3.00049 15.5003 3.4482 15.5003 4.00049V10.3136L12.5789 7.39222C12.1884 7.0017 11.5552 7.0017 11.1647 7.39222C10.7742 7.78275 10.7742 8.41591 11.1647 8.80644L15.7928 13.4346C16.0092 13.651 16.3001 13.7475 16.583 13.724C16.8335 13.7035 17.0579 13.5907 17.222 13.4196L21.8352 8.80644C22.2257 8.41591 22.2257 7.78275 21.8352 7.39222C21.4447 7.0017 20.8115 7.0017 20.421 7.39222L17.5003 10.3129V4.00049ZM4.59131 16C4.59131 15.4477 5.03902 15 5.59131 15H27.4086C27.9609 15 28.4086 15.4477 28.4086 16C28.4086 16.5523 27.9609 17 27.4086 17H5.59131C5.03902 17 4.59131 16.5523 4.59131 16ZM15.5002 21.6865V27.9996C15.5002 28.5519 15.9479 28.9996 16.5002 28.9996C17.0525 28.9996 17.5002 28.5519 17.5002 27.9996V21.6872L20.4209 24.6079C20.8114 24.9984 21.4446 24.9984 21.8351 24.6079C22.2256 24.2174 22.2256 23.5842 21.8351 23.1937L17.2235 18.5821C17.0414 18.3914 16.7847 18.2727 16.5002 18.2727C16.483 18.2727 16.4658 18.2731 16.4488 18.274C16.3837 18.2773 16.3202 18.2868 16.259 18.3019C16.0882 18.3441 15.9263 18.432 15.7927 18.5655L11.1646 23.1937C10.7741 23.5842 10.7741 24.2174 11.1646 24.6079C11.5551 24.9984 12.1883 24.9984 12.5788 24.6079L15.5002 21.6865Z" fill="#111827"/>
</svg>
