<svg width="33" height="32" viewBox="0 0 33 32" fill="none" xmlns="http://www.w3.org/2000/svg">
<path fill-rule="evenodd" clip-rule="evenodd" d="M12.2121 20.9595C12.0582 20.9137 11.9132 20.8299 11.7917 20.7084C11.5908 20.5075 11.4932 20.2424 11.499 19.9791V14.0013C11.499 13.449 11.9467 13.0013 12.499 13.0013C13.0513 13.0013 13.499 13.449 13.499 14.0013V17.5869L19.7942 11.2917C20.1847 10.9011 20.8179 10.9011 21.2084 11.2917C21.5989 11.6822 21.5989 12.3154 21.2084 12.7059L14.913 19.0013H18.499C19.0513 19.0013 19.499 19.449 19.499 20.0013C19.499 20.5536 19.0513 21.0013 18.499 21.0013H12.4995H12.499C12.4855 21.0013 12.472 21.001 12.4586 21.0005C12.3732 20.9971 12.2906 20.983 12.2121 20.9595Z" fill="#111827"/>
</svg>
