<svg width="33" height="32" viewBox="0 0 33 32" fill="none" xmlns="http://www.w3.org/2000/svg">
<path fill-rule="evenodd" clip-rule="evenodd" d="M2.50073 16C2.50073 8.26852 8.76834 2.00092 16.4998 2.00092C24.2313 2.00092 30.4989 8.26852 30.4989 16C30.4989 23.7315 24.2313 29.9991 16.4998 29.9991C8.76834 29.9991 2.50073 23.7315 2.50073 16ZM16.4998 0.000915527C7.66377 0.000915527 0.500732 7.16395 0.500732 16C0.500732 24.8361 7.66377 31.9991 16.4998 31.9991C25.3359 31.9991 32.4989 24.8361 32.4989 16C32.4989 7.16395 25.3359 0.000915527 16.4998 0.000915527ZM16.7393 9.9899C16.3488 10.3804 16.3488 11.0136 16.7393 11.4041L20.3352 15H10.2502C9.69794 15 9.25022 15.4477 9.25022 16C9.25022 16.5523 9.69794 17 10.2502 17H20.3352L16.7393 20.5959C16.3488 20.9864 16.3488 21.6195 16.7393 22.0101C17.1299 22.4006 17.763 22.4006 18.1536 22.0101L23.4517 16.7119C23.4696 16.6943 23.4867 16.6761 23.5032 16.6572C23.5671 16.584 23.6186 16.5037 23.6577 16.4191C23.7166 16.2916 23.7495 16.1496 23.7495 16C23.7495 15.8503 23.7166 15.7084 23.6577 15.5809C23.6188 15.4966 23.5675 15.4165 23.5039 15.3435C23.4872 15.3244 23.4697 15.3058 23.4516 15.288L18.1536 9.9899C17.763 9.59938 17.1299 9.59938 16.7393 9.9899Z" fill="#111827"/>
</svg>
