<svg width="33" height="32" viewBox="0 0 33 32" fill="none" xmlns="http://www.w3.org/2000/svg">
<path fill-rule="evenodd" clip-rule="evenodd" d="M9.99748 22.5242C9.60696 22.1337 9.60696 21.5005 9.99748 21.11L25.2285 5.87903H19.7578C19.2055 5.87903 18.7578 5.43131 18.7578 4.87903C18.7578 4.32674 19.2055 3.87903 19.7578 3.87903L27.6393 3.87903L27.6461 3.87903L27.7578 3.87903C28.3101 3.87903 28.7578 4.32674 28.7578 4.87903V12.879C28.7578 13.4313 28.3101 13.879 27.7578 13.879C27.2055 13.879 26.7578 13.4313 26.7578 12.879V7.17812L11.4117 22.5242C11.0212 22.9148 10.388 22.9148 9.99748 22.5242ZM5.35718 9.40718C4.80489 9.40718 4.35718 9.8549 4.35718 10.4072V27.121C4.35718 27.6732 4.80489 28.121 5.35718 28.121H22.071C22.6232 28.121 23.071 27.6732 23.071 27.121V16.8929C23.071 16.3406 22.6232 15.8929 22.071 15.8929C21.5187 15.8929 21.071 16.3406 21.071 16.8929V26.121H6.35718V11.4072H15.6275C16.1798 11.4072 16.6275 10.9595 16.6275 10.4072C16.6275 9.8549 16.1798 9.40718 15.6275 9.40718H5.35718Z" fill="#111827"/>
</svg>
