<svg width="33" height="32" viewBox="0 0 33 32" fill="none" xmlns="http://www.w3.org/2000/svg">
<path fill-rule="evenodd" clip-rule="evenodd" d="M11.9036 4.9893C11.5131 4.59878 10.88 4.59878 10.4894 4.9893C10.0989 5.37983 10.0989 6.01299 10.4894 6.40352L15.7929 11.707C16.1834 12.0975 16.8166 12.0975 17.2071 11.707L22.5105 6.40352C22.9011 6.01299 22.9011 5.37983 22.5105 4.9893C22.12 4.59878 21.4868 4.59878 21.0963 4.9893L16.5 9.58564L11.9036 4.9893ZM10.4894 25.5965C10.0989 25.987 10.0989 26.6202 10.4894 27.0107C10.88 27.4012 11.5131 27.4012 11.9036 27.0107L16.5 22.4144L21.0963 27.0107C21.4868 27.4012 22.12 27.4012 22.5105 27.0107C22.9011 26.6202 22.9011 25.987 22.5105 25.5965L17.2071 20.293C16.8166 19.9025 16.1834 19.9025 15.7929 20.293L10.4894 25.5965ZM27.5108 9.42998C27.9014 9.8205 27.9014 10.4537 27.5108 10.8442L22.9145 15.4405L27.5108 20.0369C27.9014 20.4274 27.9014 21.0605 27.5108 21.4511C27.1203 21.8416 26.4871 21.8416 26.0966 21.4511L20.7932 16.1476C20.4026 15.7571 20.4026 15.1239 20.7932 14.7334L26.0966 9.42998C26.4871 9.03945 27.1203 9.03945 27.5108 9.42998ZM6.94297 9.46961C6.55245 9.07908 5.90146 9.06019 5.48895 9.42741C5.07643 9.79464 5.05861 10.4089 5.44913 10.7994L10.0455 15.3958L5.19033 19.7178C4.77782 20.0851 4.75999 20.6993 5.15052 21.0899C5.54104 21.4804 6.19203 21.4993 6.60454 21.132L12.2066 16.1451C12.6191 15.7778 12.6369 15.1636 12.2464 14.7731L6.94297 9.46961Z" fill="#111827"/>
<path fill-rule="evenodd" clip-rule="evenodd" d="M17.5002 0.999634C17.5002 0.447349 17.0525 -0.000366211 16.5002 -0.000366211C15.948 -0.000366211 15.5002 0.447349 15.5002 0.999634V10.9999C15.5002 11.5522 15.948 11.9999 16.5002 11.9999C17.0525 11.9999 17.5002 11.5522 17.5002 10.9999V0.999634ZM17.5002 21.0001C17.5002 20.4478 17.0525 20.0001 16.5002 20.0001C15.948 20.0001 15.5002 20.4478 15.5002 21.0001V31.0004C15.5002 31.5527 15.948 32.0004 16.5002 32.0004C17.0525 32.0004 17.5002 31.5527 17.5002 31.0004V21.0001ZM20.5002 15.4406C20.5002 14.8883 20.948 14.4406 21.5002 14.4406H31.5005C32.0528 14.4406 32.5005 14.8883 32.5005 15.4406C32.5005 15.9928 32.0528 16.4406 31.5005 16.4406H21.5002C20.948 16.4406 20.5002 15.9928 20.5002 15.4406ZM1.49951 14.4379C0.947227 14.4379 0.499512 14.8856 0.499512 15.4379C0.499512 15.9902 0.947227 16.4379 1.49951 16.4379H11.4998C12.0521 16.4379 12.4998 15.9902 12.4998 15.4379C12.4998 14.8856 12.0521 14.4379 11.4998 14.4379H1.49951Z" fill="#111827"/>
</svg>
