<svg width="33" height="32" viewBox="0 0 33 32" fill="none" xmlns="http://www.w3.org/2000/svg">
<path fill-rule="evenodd" clip-rule="evenodd" d="M18.6372 10.1598C18.2467 10.5503 18.2467 11.1835 18.6372 11.574C19.0277 11.9646 19.6609 11.9646 20.0514 11.574L22.922 8.70347V24.7108H4.50049C3.9482 24.7108 3.50049 25.1585 3.50049 25.7108C3.50049 26.263 3.9482 26.7108 4.50049 26.7108H23.922C24.4742 26.7108 24.922 26.263 24.922 25.7108V8.70345L27.7925 11.574C28.1831 11.9646 28.8162 11.9646 29.2068 11.574C29.5973 11.1835 29.5973 10.5503 29.2068 10.1598L24.6291 5.58214C24.5233 5.47633 24.3996 5.39919 24.2679 5.35071C24.1832 5.31949 24.0931 5.2994 23.9994 5.29223C23.8547 5.28106 23.708 5.30126 23.5704 5.35284C23.4407 5.40143 23.3191 5.47786 23.2149 5.58214L18.6372 10.1598Z" fill="#111827"/>
</svg>
