<svg width="33" height="32" viewBox="0 0 33 32" fill="none" xmlns="http://www.w3.org/2000/svg">
<path fill-rule="evenodd" clip-rule="evenodd" d="M17.5 4.00003C17.5 3.59557 17.2564 3.23093 16.8827 3.07615C16.509 2.92137 16.0789 3.00692 15.7929 3.29292L3.79289 15.2929C3.40237 15.6834 3.40237 16.3166 3.79289 16.7071L15.7929 28.7071C16.0789 28.9931 16.509 29.0787 16.8827 28.9239C17.2564 28.7691 17.5 28.4045 17.5 28V23H24.5C25.0523 23 25.5 22.5523 25.5 22V10C25.5 9.44774 25.0523 9.00003 24.5 9.00003H17.5V4.00003ZM15.5 25.5858L5.91421 16L15.5 6.41424V10C15.5 10.5523 15.9477 11 16.5 11H23.5V21H16.5C15.9477 21 15.5 21.4477 15.5 22V25.5858ZM29.5 10C29.5 9.44774 29.0523 9.00003 28.5 9.00003C27.9477 9.00003 27.5 9.44774 27.5 10V22C27.5 22.5523 27.9477 23 28.5 23C29.0523 23 29.5 22.5523 29.5 22V10Z" fill="#111827"/>
</svg>
