<svg width="33" height="32" viewBox="0 0 33 32" fill="none" xmlns="http://www.w3.org/2000/svg">
<path fill-rule="evenodd" clip-rule="evenodd" d="M9.50003 4C9.50003 3.44772 9.94774 3 10.5 3H22.5C23.0523 3 23.5 3.44772 23.5 4C23.5 4.55228 23.0523 5 22.5 5H10.5C9.94774 5 9.50003 4.55228 9.50003 4ZM9.50003 12C9.50003 11.4477 9.94774 11 10.5 11H22.5C23.0523 11 23.5 11.4477 23.5 12V15H28.5C28.9045 15 29.2691 15.2436 29.4239 15.6173C29.5787 15.991 29.4931 16.4211 29.2071 16.7071L17.2071 28.7071C16.8166 29.0976 16.1834 29.0976 15.7929 28.7071L3.79292 16.7071C3.50692 16.4211 3.42137 15.991 3.57615 15.6173C3.73093 15.2436 4.09557 15 4.50003 15H9.50003V12ZM11.5 13V16C11.5 16.5523 11.0523 17 10.5 17H6.91424L16.5 26.5858L26.0858 17H22.5C21.9477 17 21.5 16.5523 21.5 16V13H11.5ZM10.5 7C9.94774 7 9.50003 7.44772 9.50003 8C9.50003 8.55228 9.94774 9 10.5 9H22.5C23.0523 9 23.5 8.55228 23.5 8C23.5 7.44772 23.0523 7 22.5 7H10.5Z" fill="#111827"/>
</svg>
