<svg width="33" height="32" viewBox="0 0 33 32" fill="none" xmlns="http://www.w3.org/2000/svg">
<path fill-rule="evenodd" clip-rule="evenodd" d="M10.538 5.59687C10.1475 5.9874 10.1476 6.62048 10.5382 7.0109C10.9289 7.40132 11.5621 7.40124 11.9526 7.01072L16.5485 2.41487L21.1455 7.00952C21.5361 7.39994 22.1694 7.39986 22.5599 7.00933C22.9504 6.61881 22.9504 5.98572 22.5597 5.5953L17.2554 0.293739C16.8648 -0.0966832 16.2315 -0.0966001 15.841 0.293924L10.538 5.59687ZM11.9524 24.9905C11.5618 24.6001 10.9286 24.6001 10.538 24.9907C10.1475 25.3812 10.1476 26.0143 10.5382 26.4047L15.8426 31.7063C16.2332 32.0967 16.8664 32.0966 17.257 31.7061L22.5599 26.4031C22.9504 26.0126 22.9504 25.3795 22.5597 24.9891C22.1691 24.5987 21.5359 24.5988 21.1453 24.9893L16.5495 29.5851L11.9524 24.9905ZM7.51128 10.0389C7.9018 10.4295 7.9018 11.0626 7.51128 11.4532L2.91543 16.049L7.51128 20.6448C7.9018 21.0354 7.9018 21.6685 7.51128 22.0591C7.12075 22.4496 6.48759 22.4496 6.09706 22.0591L0.794114 16.7561C0.403589 16.3656 0.40359 15.7324 0.794114 15.3419L6.09706 10.0389C6.48759 9.64843 7.12075 9.64843 7.51128 10.0389ZM26.9029 10.0374C26.5124 9.6469 25.8793 9.64698 25.4889 10.0376C25.0985 10.4282 25.0986 11.0615 25.4891 11.452L30.0849 16.0478L25.4903 20.6449C25.0999 21.0355 25.1 21.6688 25.4905 22.0593C25.881 22.4498 26.5141 22.4497 26.9045 22.0591L32.2061 16.7548C32.5965 16.3641 32.5964 15.7309 32.2059 15.3404L26.9029 10.0374Z" fill="#111827"/>
<path fill-rule="evenodd" clip-rule="evenodd" d="M17.5483 1.00085C17.5483 0.44857 17.1006 0.000854492 16.5483 0.000854492C15.9961 0.000854492 15.5483 0.44857 15.5483 1.00085V11.0002C15.5483 11.5525 15.9961 12.0002 16.5483 12.0002C17.1006 12.0002 17.5483 11.5525 17.5483 11.0002V1.00085ZM17.5483 20.9998C17.5483 20.4475 17.1006 19.9998 16.5483 19.9998C15.9961 19.9998 15.5483 20.4475 15.5483 20.9998V30.9991C15.5483 31.5514 15.9961 31.9991 16.5483 31.9991C17.1006 31.9991 17.5483 31.5514 17.5483 30.9991V20.9998ZM0.500977 16.0476C0.500977 15.4953 0.948692 15.0476 1.50098 15.0476H11.5003C12.0526 15.0476 12.5003 15.4953 12.5003 16.0476C12.5003 16.5999 12.0526 17.0476 11.5003 17.0476H1.50098C0.948692 17.0476 0.500977 16.5999 0.500977 16.0476ZM21.4995 15.0449C20.9472 15.0449 20.4995 15.4926 20.4995 16.0449C20.4995 16.5972 20.9472 17.0449 21.4995 17.0449H31.4988C32.0511 17.0449 32.4988 16.5972 32.4988 16.0449C32.4988 15.4926 32.0511 15.0449 31.4988 15.0449H21.4995Z" fill="#111827"/>
</svg>
