<svg width="33" height="32" viewBox="0 0 33 32" fill="none" xmlns="http://www.w3.org/2000/svg">
<path fill-rule="evenodd" clip-rule="evenodd" d="M10.7559 11.6702C11.1465 12.0608 11.7796 12.0608 12.1701 11.6702C12.5607 11.2797 12.5607 10.6465 12.1701 10.256L3.91395 1.99982H9.05508C9.60736 1.99982 10.0551 1.55211 10.0551 0.999824C10.0551 0.447539 9.60736 -0.000176464 9.05508 -0.000176464L1.51134 -0.000176491C1.25154 -0.00318914 0.990797 0.0944195 0.792567 0.292649C0.590935 0.494282 0.493407 0.760596 0.499985 1.0248L0.499985 8.55492C0.499985 9.1072 0.9477 9.55492 1.49999 9.55492C2.05227 9.55492 2.49999 9.1072 2.49999 8.55492V3.41428L10.7559 11.6702ZM22.9449 0.999859C22.9449 0.447574 23.3926 -0.000141156 23.9449 -0.000141156H31.5C31.5335 -0.000141156 31.5666 0.00150969 31.5993 0.00473454C31.8214 0.0266381 32.0376 0.122651 32.2077 0.292773C32.4122 0.49724 32.5096 0.76822 32.5 1.03607V8.55495C32.5 9.10724 32.0522 9.55495 31.5 9.55495C30.9477 9.55495 30.5 9.10724 30.5 8.55495V3.41475L22.2443 11.6704C21.8538 12.0609 21.2206 12.0609 20.8301 11.6704C20.4396 11.2799 20.4396 10.6467 20.8301 10.2562L29.0864 1.99986H23.9449C23.3926 1.99986 22.9449 1.55214 22.9449 0.999859ZM1.49951 22.4451C2.0518 22.4451 2.49951 22.8928 2.49951 23.4451V28.586L10.7559 20.3296C11.1465 19.9391 11.7796 19.9391 12.1702 20.3296C12.5607 20.7201 12.5607 21.3533 12.1702 21.7438L3.91379 30.0002H9.0546C9.60689 30.0002 10.0546 30.4479 10.0546 31.0002C10.0546 31.5525 9.60689 32.0002 9.0546 32.0002H1.49951C0.947227 32.0002 0.499512 31.5525 0.499512 31.0002V23.4451C0.499512 22.8928 0.947227 22.4451 1.49951 22.4451ZM31.5 22.445C32.0522 22.445 32.5 22.8927 32.5 23.445V30.9657C32.5091 31.2329 32.4116 31.5031 32.2077 31.7071C32.0638 31.851 31.887 31.9419 31.7015 31.9797C31.6364 31.9931 31.569 32.0001 31.5 32.0001H23.9449C23.3926 32.0001 22.9449 31.5523 22.9449 31.0001C22.9449 30.4478 23.3926 30.0001 23.9449 30.0001H29.0864L20.83 21.7437C20.4395 21.3532 20.4395 20.7201 20.83 20.3295C21.2206 19.939 21.8537 19.939 22.2443 20.3295L30.5 28.5852V23.445C30.5 22.8927 30.9477 22.445 31.5 22.445Z" fill="#111827"/>
</svg>
