<svg width="33" height="32" viewBox="0 0 33 32" fill="none" xmlns="http://www.w3.org/2000/svg">
<path fill-rule="evenodd" clip-rule="evenodd" d="M9.45051 7.58644C9.84103 7.19592 9.84103 6.56275 9.45051 6.17223C9.05998 5.7817 8.42682 5.7817 8.03629 6.17223L3.80051 10.408C3.77181 10.4362 3.7448 10.4661 3.71965 10.4975C3.67947 10.5477 3.64482 10.6009 3.61572 10.6562C3.54245 10.7952 3.50098 10.9536 3.50098 11.1217C3.50098 11.3127 3.55451 11.4911 3.64738 11.6429C3.65481 11.655 3.66252 11.6671 3.67051 11.679C3.7091 11.7363 3.75349 11.7895 3.80283 11.8377L8.03629 16.0711C8.42682 16.4616 9.05998 16.4616 9.45051 16.0711C9.84103 15.6806 9.84103 15.0474 9.45051 14.6569L6.9153 12.1217H21.4998C22.2876 12.1217 23.0678 12.2769 23.7957 12.5784C24.5236 12.8799 25.1849 13.3218 25.742 13.8789C26.2991 14.436 26.7411 15.0974 27.0426 15.8253C27.3441 16.5532 27.4993 17.3333 27.4993 18.1212C27.4993 19.7124 26.8672 21.2384 25.742 22.3635C24.6169 23.4886 23.0909 24.1207 21.4998 24.1207H10.5005C9.94826 24.1207 9.50055 24.5684 9.50055 25.1207C9.50055 25.673 9.94826 26.1207 10.5005 26.1207H21.4998C23.6214 26.1207 25.6561 25.2779 27.1563 23.7777C28.6565 22.2775 29.4993 20.2428 29.4993 18.1212C29.4993 17.0707 29.2923 16.0305 28.8903 15.0599C28.4883 14.0894 27.8991 13.2075 27.1563 12.4647C26.4134 11.7219 25.5316 11.1326 24.561 10.7306C23.5905 10.3286 22.5503 10.1217 21.4998 10.1217H6.91525L9.45051 7.58644Z" fill="#111827"/>
</svg>
