<svg width="33" height="32" viewBox="0 0 33 32" fill="none" xmlns="http://www.w3.org/2000/svg">
<path fill-rule="evenodd" clip-rule="evenodd" d="M21.4998 1.99988C22.052 1.99988 22.4998 2.44759 22.4998 2.99988V9.99988H29.4998C30.052 9.99988 30.4998 10.4476 30.4998 10.9999C30.4998 11.5522 30.052 11.9999 29.4998 11.9999H21.4998C20.9475 11.9999 20.4998 11.5522 20.4998 10.9999V2.99988C20.4998 2.44759 20.9475 1.99988 21.4998 1.99988ZM21.5 20C20.9477 20 20.5 20.4477 20.5 21V29C20.5 29.5523 20.9477 30 21.5 30C22.0523 30 22.5 29.5523 22.5 29V22H29.5C30.0523 22 30.5 21.5523 30.5 21C30.5 20.4477 30.0523 20 29.5 20H21.5ZM3.49976 20.0001C2.94747 20.0001 2.49976 20.4478 2.49976 21.0001C2.49976 21.5524 2.94747 22.0001 3.49976 22.0001H10.4998V29.0001C10.4998 29.5524 10.9475 30.0001 11.4998 30.0001C12.052 30.0001 12.4998 29.5524 12.4998 29.0001V21.0001C12.4998 20.4478 12.052 20.0001 11.4998 20.0001H3.49976ZM12.5 3.00012C12.5 2.44784 12.0523 2.00012 11.5 2.00012C10.9477 2.00012 10.5 2.44784 10.5 3.00012V10.0001H3.5C2.94772 10.0001 2.5 10.4478 2.5 11.0001C2.5 11.5524 2.94772 12.0001 3.5 12.0001H11.5C12.0523 12.0001 12.5 11.5524 12.5 11.0001V3.00012Z" fill="#111827"/>
<path fill-rule="evenodd" clip-rule="evenodd" d="M32.2073 0.292649C32.5978 0.683173 32.5978 1.31634 32.2073 1.70686L22.2071 11.707C21.8166 12.0975 21.1834 12.0975 20.7929 11.707C20.4024 11.3165 20.4024 10.6833 20.7929 10.2928L30.7931 0.292649C31.1836 -0.0978752 31.8167 -0.0978752 32.2073 0.292649ZM12.2068 21.7071C12.5973 21.3166 12.5973 20.6834 12.2068 20.2929C11.8163 19.9024 11.1831 19.9024 10.7926 20.2929L0.792405 30.2931C0.401881 30.6836 0.401881 31.3167 0.792405 31.7073C1.18293 32.0978 1.81609 32.0978 2.20662 31.7073L12.2068 21.7071ZM22.2071 20.293C21.8166 19.9025 21.1834 19.9025 20.7929 20.293C20.4024 20.6835 20.4024 21.3167 20.7929 21.7072L30.793 31.7074C31.1836 32.0979 31.8167 32.0979 32.2073 31.7074C32.5978 31.3169 32.5978 30.6837 32.2073 30.2932L22.2071 20.293ZM2.20686 0.292893C1.81634 -0.0976311 1.18317 -0.0976311 0.792649 0.292893C0.402125 0.683417 0.402125 1.31658 0.792649 1.70711L10.7928 11.7073C11.1833 12.0978 11.8165 12.0978 12.207 11.7073C12.5975 11.3167 12.5975 10.6836 12.207 10.2931L2.20686 0.292893Z" fill="#111827"/>
</svg>
