<svg width="33" height="32" viewBox="0 0 33 32" fill="none" xmlns="http://www.w3.org/2000/svg">
<path fill-rule="evenodd" clip-rule="evenodd" d="M17.8843 10.4017C17.4961 10.0089 17.4961 9.37194 17.8843 8.9791L23.5073 3.28865C23.8845 2.90699 24.4893 2.89613 24.8794 3.25607C24.9033 3.27756 24.9262 3.3002 24.9479 3.32388L30.5362 8.9791C30.9243 9.37194 30.9243 10.0089 30.5362 10.4017C30.148 10.7946 29.5186 10.7946 29.1304 10.4017L25.2111 6.43544V28C25.2111 28.5523 24.7634 29 24.2111 29C23.6588 29 23.2111 28.5523 23.2111 28V6.43367L19.29 10.4017C18.9018 10.7946 18.2725 10.7946 17.8843 10.4017ZM9.77652 3.99998C9.77652 3.4477 9.32881 2.99998 8.77652 2.99998C8.22424 2.99998 7.77652 3.4477 7.77652 3.99998V25.5524L3.86927 21.5983C3.48108 21.2055 2.8517 21.2055 2.46351 21.5983C2.07532 21.9911 2.07532 22.6281 2.46351 23.0209L7.97629 28.5998C8.09191 28.7538 8.25096 28.8733 8.43526 28.9402C8.79002 29.0769 9.20654 29.0006 9.49233 28.7114L15.1154 23.0209C15.5036 22.6281 15.5036 21.9911 15.1154 21.5983C14.7272 21.2055 14.0978 21.2055 13.7096 21.5983L9.77652 25.5785V3.99998Z" fill="#111827"/>
</svg>
