<svg width="33" height="32" viewBox="0 0 33 32" fill="none" xmlns="http://www.w3.org/2000/svg">
<path fill-rule="evenodd" clip-rule="evenodd" d="M18.6213 3C17.5708 3 16.5305 3.20693 15.5599 3.60896C14.5893 4.011 13.7073 4.60027 12.9645 5.34314C12.2216 6.08601 11.6323 6.96792 11.2303 7.93852C10.8283 8.90913 10.6213 9.94941 10.6213 11V25.5858L8.08577 23.0503C7.69524 22.6598 7.06208 22.6598 6.67156 23.0503C6.28103 23.4408 6.28103 24.074 6.67156 24.4645L10.9142 28.7071C11.0218 28.8147 11.1477 28.8926 11.2819 28.9409C11.3656 28.9711 11.4545 28.9905 11.5469 28.9973C11.5933 29.0007 11.6399 29.0009 11.6864 28.9979C11.9116 28.9833 12.1328 28.8929 12.3084 28.7266C12.3161 28.7193 12.3236 28.712 12.3311 28.7045L16.571 24.4645C16.9616 24.074 16.9616 23.4408 16.571 23.0503C16.1805 22.6598 15.5474 22.6598 15.1568 23.0503L12.6213 25.5858V11C12.6213 10.2121 12.7765 9.43184 13.0781 8.70389C13.3796 7.97594 13.8215 7.31451 14.3787 6.75735C14.9358 6.2002 15.5973 5.75825 16.3252 5.45672C17.0532 5.15519 17.8334 5 18.6213 5H18.6213C20.2126 5 21.7388 5.63214 22.864 6.75736C23.9892 7.88258 24.6213 9.4087 24.6213 11V22C24.6213 22.5523 25.0691 23 25.6213 23C26.1736 23 26.6213 22.5523 26.6213 22V11C26.6213 8.87827 25.7785 6.84344 24.2782 5.34315C22.7779 3.84285 20.7431 3 18.6213 3H18.6213Z" fill="#111827"/>
</svg>
