<svg width="33" height="32" viewBox="0 0 33 32" fill="none" xmlns="http://www.w3.org/2000/svg">
<path fill-rule="evenodd" clip-rule="evenodd" d="M3.96532 8.15606C3.88594 8.20652 3.81416 8.26786 3.75207 8.33799C3.69898 8.39786 3.65425 8.46272 3.61794 8.53101C3.54333 8.67103 3.50104 8.83088 3.50104 9.00061V15.0001C3.50104 15.5524 3.94876 16.0001 4.50104 16.0001C5.05333 16.0001 5.50104 15.5524 5.50104 15.0001V11.5582L16.6883 23.6777C16.8776 23.8827 17.144 23.9994 17.4231 23.9994C17.7022 23.9994 17.9686 23.8827 18.1579 23.6777L29.2338 11.6787C29.6084 11.2729 29.5831 10.6402 29.1773 10.2656C28.7715 9.89103 28.1388 9.91633 27.7642 10.3222L17.4231 21.5251L6.78511 10.0006H10.5005C11.0528 10.0006 11.5005 9.5529 11.5005 9.00061C11.5005 8.44833 11.0528 8.00061 10.5005 8.00061H4.50405H4.50104C4.48643 8.00061 4.47191 8.00092 4.45745 8.00154" fill="#111827"/>
</svg>
