<svg width="33" height="32" viewBox="0 0 33 32" fill="none" xmlns="http://www.w3.org/2000/svg">
<path fill-rule="evenodd" clip-rule="evenodd" d="M27.2071 6.70711C27.5976 6.31658 27.5976 5.68342 27.2071 5.29289C26.8166 4.90237 26.1834 4.90237 25.7929 5.29289L7.5 23.5858V18.5C7.5 17.9477 7.05228 17.5 6.5 17.5C5.94772 17.5 5.5 17.9477 5.5 18.5V26C5.5 26.1356 5.52699 26.2649 5.57588 26.3828C5.62357 26.498 5.69374 26.6062 5.7864 26.7005C5.79071 26.7049 5.79506 26.7093 5.79945 26.7136C5.99387 26.9045 6.24693 27 6.5 27H14C14.5523 27 15 26.5523 15 26C15 25.4477 14.5523 25 14 25H8.91421L27.2071 6.70711Z" fill="#111827"/>
</svg>
