<svg width="33" height="32" viewBox="0 0 33 32" fill="none" xmlns="http://www.w3.org/2000/svg">
<path fill-rule="evenodd" clip-rule="evenodd" d="M9.07838 5.28925C8.52609 5.28925 8.07838 5.73696 8.07838 6.28925V23.2967L5.2076 20.4259C4.81707 20.0354 4.18391 20.0354 3.79338 20.4259C3.40286 20.8164 3.40286 21.4496 3.79338 21.8401L8.37104 26.4178C8.51482 26.5616 8.6915 26.6524 8.87684 26.6903C8.89314 26.6936 8.90958 26.6966 8.92616 26.6991C9.00522 26.7112 9.08545 26.7138 9.16502 26.7069C9.29554 26.6957 9.4189 26.6594 9.53026 26.6029C9.57708 26.5792 9.62178 26.5518 9.664 26.5213C9.71149 26.4869 9.75585 26.4485 9.79655 26.4065L14.3629 21.8401C14.7534 21.4496 14.7534 20.8164 14.3629 20.4259C13.9724 20.0354 13.3392 20.0354 12.9487 20.4259L10.0784 23.2962V7.28925H28.4998C29.052 7.28925 29.4998 6.84153 29.4998 6.28925C29.4998 5.73696 29.052 5.28925 28.4998 5.28925H9.07838Z" fill="#111827"/>
</svg>
