<svg width="33" height="32" viewBox="0 0 33 32" fill="none" xmlns="http://www.w3.org/2000/svg">
<path fill-rule="evenodd" clip-rule="evenodd" d="M25.171 7.25443C25.198 7.27867 25.2236 7.30435 25.2477 7.33135C25.3182 7.41001 25.374 7.49714 25.4152 7.58922C25.4711 7.71397 25.5022 7.85228 25.5022 7.99783V15.9978C25.5022 16.5501 25.0545 16.9978 24.5022 16.9978C23.9499 16.9978 23.5022 16.5501 23.5022 15.9978V10.412L9.20491 24.7093C8.81439 25.0998 8.18122 25.0998 7.7907 24.7093C7.40017 24.3188 7.40017 23.6856 7.7907 23.2951L22.088 8.99783H16.5022C15.9499 8.99783 15.5022 8.55012 15.5022 7.99783C15.5022 7.44555 15.9499 6.99783 16.5022 6.99783H24.502C24.5021 6.99783 24.5021 6.99783 24.5022 6.99783C24.7594 6.99783 24.9939 7.09491 25.171 7.25443Z" fill="#111827"/>
</svg>
