<svg width="33" height="32" viewBox="0 0 33 32" fill="none" xmlns="http://www.w3.org/2000/svg">
<path fill-rule="evenodd" clip-rule="evenodd" d="M21.6028 4.91345C19.41 4.0052 16.9972 3.76756 14.6695 4.23058C12.3417 4.6936 10.2035 5.83649 8.52528 7.51472L5.9895 10.0505V6.46448C5.9895 5.91219 5.54179 5.46448 4.9895 5.46448C4.43722 5.46448 3.9895 5.91219 3.9895 6.46448V12.4645C3.9895 13.0168 4.43722 13.4645 4.9895 13.4645H10.9895C11.5418 13.4645 11.9895 13.0168 11.9895 12.4645C11.9895 11.9122 11.5418 11.4645 10.9895 11.4645H7.40395L9.93949 8.92894C11.338 7.53041 13.1198 6.578 15.0597 6.19215C16.9995 5.8063 19.0101 6.00433 20.8374 6.76121C22.6647 7.51809 24.2264 8.79981 25.3253 10.4443C26.4241 12.0888 27.0106 14.0222 27.0106 16C27.0106 17.9778 26.4241 19.9112 25.3253 21.5557C24.2264 23.2002 22.6647 24.4819 20.8374 25.2388C19.0101 25.9957 16.9995 26.1937 15.0597 25.8079C13.1198 25.422 11.338 24.4696 9.93949 23.0711C9.54897 22.6805 8.9158 22.6805 8.52528 23.0711C8.13475 23.4616 8.13475 24.0948 8.52528 24.4853C10.2035 26.1635 12.3417 27.3064 14.6695 27.7694C16.9972 28.2325 19.41 27.9948 21.6028 27.0866C23.7955 26.1783 25.6696 24.6402 26.9882 22.6668C28.3068 20.6935 29.0106 18.3734 29.0106 16C29.0106 13.6266 28.3068 11.3066 26.9882 9.33316C25.6696 7.35977 23.7955 5.8217 21.6028 4.91345Z" fill="#111827"/>
</svg>
