<svg width="33" height="32" viewBox="0 0 33 32" fill="none" xmlns="http://www.w3.org/2000/svg">
<path fill-rule="evenodd" clip-rule="evenodd" d="M16.8112 21.9527C16.7132 21.9847 16.6085 22.0021 16.4998 22.0021C16.2173 22.0021 15.9622 21.885 15.7804 21.6967L11.5502 17.4666C11.1597 17.076 11.1597 16.4429 11.5502 16.0523C11.9407 15.6618 12.5739 15.6618 12.9644 16.0523L15.4998 18.5877V10.9979C15.4998 10.4456 15.9475 9.9979 16.4998 9.9979C17.052 9.9979 17.4998 10.4456 17.4998 10.9979V18.5881L20.0355 16.0523C20.426 15.6618 21.0592 15.6618 21.4497 16.0523C21.8402 16.4429 21.8402 17.076 21.4497 17.4666L17.2071 21.7092C17.092 21.8242 16.9559 21.9054 16.8112 21.9527Z" fill="#111827"/>
</svg>
