<svg width="33" height="32" viewBox="0 0 33 32" fill="none" xmlns="http://www.w3.org/2000/svg">
<path fill-rule="evenodd" clip-rule="evenodd" d="M20.728 3.06057C20.6194 3.02014 20.5018 2.99805 20.3791 2.99805C20.0978 2.99805 19.8436 3.11422 19.6619 3.3012L15.4288 7.53429C15.0383 7.92481 15.0383 8.55798 15.4288 8.9485C15.8194 9.33903 16.4525 9.33903 16.8431 8.9485L19.3791 6.41241V16C19.3791 18.9179 18.22 21.7163 16.1567 23.7795C14.0935 25.8428 11.2951 27.0019 8.3772 27.0019C7.82491 27.0019 7.3772 27.4497 7.3772 28.0019C7.3772 28.5542 7.82491 29.0019 8.3772 29.0019C11.8255 29.0019 15.1326 27.6321 17.571 25.1938C20.0093 22.7554 21.3791 19.4483 21.3791 16V6.41215L23.9155 8.9485C24.306 9.33903 24.9392 9.33903 25.3297 8.9485C25.7202 8.55798 25.7202 7.92481 25.3297 7.53429L21.0864 3.29096C20.9813 3.1859 20.8587 3.1091 20.728 3.06057Z" fill="#111827"/>
</svg>
