<svg width="33" height="32" viewBox="0 0 33 32" fill="none" xmlns="http://www.w3.org/2000/svg">
<path fill-rule="evenodd" clip-rule="evenodd" d="M0.500977 1.00092C0.500977 0.448631 0.948692 0.000915527 1.50098 0.000915527H31.4991C32.0514 0.000915527 32.4991 0.448631 32.4991 1.00092V30.9991C32.4991 31.5514 32.0514 31.9991 31.4991 31.9991H1.50098C0.948692 31.9991 0.500977 31.5514 0.500977 30.9991V1.00092ZM2.50098 2.00092V29.9991H30.4991V2.00092H2.50098ZM12.4196 11.5809C12.4196 11.0286 12.8673 10.5809 13.4196 10.5809H20.9069C20.9522 10.5804 20.9975 10.5829 21.0425 10.5884C21.1215 10.5982 21.1977 10.6171 21.27 10.6442C21.3806 10.6856 21.4855 10.7473 21.5787 10.8292C21.6198 10.8653 21.658 10.9048 21.6927 10.9471C21.7342 10.9977 21.77 11.0513 21.8001 11.1072C21.876 11.2482 21.9191 11.4095 21.9191 11.5809V19.0804C21.9191 19.6327 21.4714 20.0804 20.9191 20.0804C20.3668 20.0804 19.9191 19.6327 19.9191 19.0804V13.9949L12.7878 21.1262C12.3973 21.5168 11.7641 21.5168 11.3736 21.1262C10.9831 20.7357 10.9831 20.1025 11.3736 19.712L18.5047 12.5809H13.4196C12.8673 12.5809 12.4196 12.1332 12.4196 11.5809Z" fill="#111827"/>
</svg>
