<svg width="33" height="32" viewBox="0 0 33 32" fill="none" xmlns="http://www.w3.org/2000/svg">
<path fill-rule="evenodd" clip-rule="evenodd" d="M7.67156 7.53553C7.28103 7.92606 7.28103 8.55922 7.67156 8.94975C8.06208 9.34027 8.69524 9.34027 9.08577 8.94975L11.6213 6.41418V16C11.6213 19.4478 12.991 22.7544 15.429 25.1924C17.8669 27.6304 21.1735 29 24.6213 29C25.1736 29 25.6213 28.5523 25.6213 28C25.6213 27.4477 25.1736 27 24.6213 27C21.704 27 18.9061 25.8411 16.8432 23.7782C14.7803 21.7153 13.6213 18.9174 13.6213 16V6.41425L16.1568 8.94975C16.5474 9.34027 17.1805 9.34027 17.571 8.94975C17.9616 8.55922 17.9616 7.92606 17.571 7.53553L13.3311 3.29554C13.3236 3.28806 13.3161 3.2807 13.3084 3.27345C13.2134 3.1835 13.1051 3.11574 12.99 3.07017C12.8952 3.03258 12.7934 3.00905 12.687 3.00215C12.6405 2.9991 12.5937 2.9993 12.5472 3.00273C12.4549 3.0095 12.3661 3.02878 12.2825 3.0589C12.1481 3.10719 12.0219 3.18519 11.9142 3.29289L7.67156 7.53553Z" fill="#111827"/>
</svg>
