<svg width="33" height="32" viewBox="0 0 33 32" fill="none" xmlns="http://www.w3.org/2000/svg">
<path fill-rule="evenodd" clip-rule="evenodd" d="M20.7892 11.0409C20.9427 11.0869 21.0872 11.1704 21.2084 11.2916C21.4093 11.4925 21.5069 11.7577 21.5011 12.0209V17.9987C21.5011 18.551 21.0534 18.9987 20.5011 18.9987C19.9488 18.9987 19.5011 18.551 19.5011 17.9987V14.4132L13.2059 20.7084C12.8154 21.0989 12.1822 21.0989 11.7917 20.7084C11.4011 20.3179 11.4011 19.6847 11.7917 19.2942L18.0871 12.9987H14.5011C13.9488 12.9987 13.5011 12.551 13.5011 11.9987C13.5011 11.4465 13.9488 10.9987 14.5011 10.9987H20.5011C20.5139 10.9987 20.5268 10.999 20.5397 10.9995C20.6261 11.0028 20.7098 11.017 20.7892 11.0409Z" fill="#111827"/>
</svg>
