<svg width="33" height="32" viewBox="0 0 33 32" fill="none" xmlns="http://www.w3.org/2000/svg">
<path fill-rule="evenodd" clip-rule="evenodd" d="M0.500977 1.00092C0.500977 0.448631 0.948692 0.000915527 1.50098 0.000915527H31.4991C32.0514 0.000915527 32.4991 0.448631 32.4991 1.00092V30.9991C32.4991 31.5514 32.0514 31.9991 31.4991 31.9991H1.50098C0.948692 31.9991 0.500977 31.5514 0.500977 30.9991V1.00092ZM2.50098 2.00092V29.9991H30.4991V2.00092H2.50098ZM10.4897 16.2395C10.8803 15.849 11.5134 15.849 11.904 16.2395L15.5 19.8356V9.75037C15.5 9.19809 15.9478 8.75037 16.5 8.75037C17.0523 8.75037 17.5 9.19809 17.5 9.75037V19.8351L21.0957 16.2395C21.4862 15.849 22.1194 15.849 22.5099 16.2395C22.9004 16.63 22.9004 17.2632 22.5099 17.6537L17.2206 22.943C17.0387 23.132 16.7831 23.2496 16.5 23.2496C16.3791 23.2496 16.2631 23.2281 16.1557 23.1888C16.0233 23.1403 15.899 23.063 15.7927 22.9567L10.4897 17.6537C10.0992 17.2632 10.0992 16.63 10.4897 16.2395Z" fill="#111827"/>
</svg>
