<svg width="33" height="32" viewBox="0 0 33 32" fill="none" xmlns="http://www.w3.org/2000/svg">
<path fill-rule="evenodd" clip-rule="evenodd" d="M10.136 6.75736C11.2612 5.63214 12.7874 5 14.3787 5H14.3787C15.1666 5 15.9468 5.15519 16.6748 5.45672C17.4027 5.75825 18.0642 6.2002 18.6213 6.75735C19.1785 7.3145 19.6204 7.97594 19.9219 8.70389C20.2235 9.43184 20.3787 10.2121 20.3787 11V25.5858L17.8431 23.0503C17.4526 22.6598 16.8194 22.6598 16.4289 23.0503C16.0384 23.4408 16.0384 24.074 16.4289 24.4645L20.6715 28.7071C20.7791 28.8147 20.905 28.8926 21.0392 28.9409C21.1229 28.9711 21.2118 28.9905 21.3042 28.9973C21.3506 29.0007 21.3973 29.0009 21.4437 28.9979C21.6689 28.9833 21.8901 28.8929 22.0658 28.7266C22.0734 28.7193 22.081 28.7119 22.0884 28.7045L26.3284 24.4645C26.7189 24.074 26.7189 23.4408 26.3284 23.0503C25.9379 22.6598 25.3047 22.6598 24.9142 23.0503L22.3787 25.5858V11C22.3787 9.94941 22.1717 8.90913 21.7697 7.93852C21.3677 6.96792 20.7784 6.08601 20.0355 5.34314C19.2927 4.60027 18.4107 4.011 17.4401 3.60896C16.4695 3.20693 15.4292 3 14.3787 3H14.3787C12.2569 3 10.2221 3.84285 8.72181 5.34315C7.22152 6.84344 6.37866 8.87827 6.37866 11V22C6.37866 22.5523 6.82638 23 7.37866 23C7.93095 23 8.37866 22.5523 8.37866 22V11C8.37866 9.4087 9.0108 7.88258 10.136 6.75736Z" fill="#111827"/>
</svg>
