<svg width="33" height="32" viewBox="0 0 33 32" fill="none" xmlns="http://www.w3.org/2000/svg">
<path fill-rule="evenodd" clip-rule="evenodd" d="M0.500977 1.00092C0.500977 0.448631 0.948692 0.000915527 1.50098 0.000915527H31.4991C32.0514 0.000915527 32.4991 0.448631 32.4991 1.00092V30.9991C32.4991 31.5514 32.0514 31.9991 31.4991 31.9991H1.50098C0.948692 31.9991 0.500977 31.5514 0.500977 30.9991V1.00092ZM2.50098 2.00092V29.9991H30.4991V2.00092H2.50098ZM12.0931 10.5809C12.0581 10.5805 12.0231 10.5819 11.9882 10.5851C11.4793 10.6318 11.0807 11.0598 11.0807 11.5809V19.0804C11.0807 19.6327 11.5284 20.0804 12.0807 20.0804C12.633 20.0804 13.0807 19.6327 13.0807 19.0804V13.9947L20.2123 21.1262C20.6028 21.5168 21.236 21.5168 21.6265 21.1262C22.017 20.7357 22.017 20.1025 21.6265 19.712L14.4954 12.5809H19.5803C20.1325 12.5809 20.5803 12.1332 20.5803 11.5809C20.5803 11.0286 20.1325 10.5809 19.5803 10.5809H12.0931Z" fill="#111827"/>
</svg>
