<svg width="33" height="32" viewBox="0 0 33 32" fill="none" xmlns="http://www.w3.org/2000/svg">
<path fill-rule="evenodd" clip-rule="evenodd" d="M9.99748 22.5242C9.60696 22.1337 9.60696 21.5006 9.99748 21.11L25.2284 5.87915H20.3999C19.8476 5.87915 19.3999 5.43144 19.3999 4.87915C19.3999 4.32687 19.8476 3.87915 20.3999 3.87915L27.6274 3.87915C27.8884 3.87518 28.1507 3.97278 28.3498 4.17193C28.4358 4.25792 28.5029 4.35568 28.551 4.46002C28.6099 4.5875 28.6428 4.72949 28.6428 4.87915V12.122C28.6428 12.6743 28.1951 13.122 27.6428 13.122C27.0905 13.122 26.6428 12.6743 26.6428 12.122V7.29316L11.4117 22.5242C11.0212 22.9148 10.388 22.9148 9.99748 22.5242ZM5.35718 9.40719C4.80489 9.40719 4.35718 9.85491 4.35718 10.4072V27.121C4.35718 27.6733 4.80489 28.121 5.35718 28.121H22.071C22.6232 28.121 23.071 27.6733 23.071 27.121V16.8929C23.071 16.3406 22.6232 15.8929 22.071 15.8929C21.5187 15.8929 21.071 16.3406 21.071 16.8929V26.121H6.35718V11.4072H15.6275C16.1798 11.4072 16.6275 10.9595 16.6275 10.4072C16.6275 9.85491 16.1798 9.40719 15.6275 9.40719H5.35718Z" fill="#111827"/>
</svg>
