<svg width="33" height="32" viewBox="0 0 33 32" fill="none" xmlns="http://www.w3.org/2000/svg">
<path fill-rule="evenodd" clip-rule="evenodd" d="M7.78931 4.00043C7.78931 3.44814 7.34159 3.00043 6.78931 3.00043C6.23702 3.00043 5.78931 3.44814 5.78931 4.00043V23.4219C5.78931 23.9742 6.23702 24.4219 6.78931 24.4219H23.7966L20.926 27.2925C20.5355 27.683 20.5355 28.3162 20.926 28.7067C21.3165 29.0972 21.9497 29.0972 22.3402 28.7067L26.9179 24.129C27.0349 24.012 27.1169 23.8732 27.1638 23.7257C27.1828 23.6658 27.1964 23.6034 27.2039 23.5392C27.2124 23.4674 27.213 23.3949 27.2059 23.323C27.1975 23.237 27.1781 23.1542 27.1493 23.076C27.1008 22.9442 27.0237 22.8206 26.9179 22.7148L22.3402 18.1371C21.9497 17.7466 21.3165 17.7466 20.926 18.1371C20.5355 18.5277 20.5355 19.1608 20.926 19.5513L23.7965 22.4219H7.78931V4.00043Z" fill="#111827"/>
</svg>
