<svg width="33" height="32" viewBox="0 0 33 32" fill="none" xmlns="http://www.w3.org/2000/svg">
<path fill-rule="evenodd" clip-rule="evenodd" d="M9.4978 16.0022C9.4978 15.4499 9.05009 15.0022 8.4978 15.0022C7.94552 15.0022 7.4978 15.4499 7.4978 16.0022V24.0022C7.4978 24.2701 7.60317 24.5134 7.77473 24.693C7.78525 24.704 7.79602 24.7147 7.80703 24.7253C7.898 24.8123 8.00136 24.8788 8.11127 24.9248C8.23018 24.9746 8.36077 25.0022 8.4978 25.0022H16.4978C17.0501 25.0022 17.4978 24.5545 17.4978 24.0022C17.4978 23.4499 17.0501 23.0022 16.4978 23.0022H10.912L25.2093 8.70491C25.5998 8.31438 25.5998 7.68122 25.2093 7.2907C24.8188 6.90017 24.1856 6.90017 23.7951 7.2907L9.4978 21.588V16.0022Z" fill="#111827"/>
</svg>
