<svg width="33" height="32" viewBox="0 0 33 32" fill="none" xmlns="http://www.w3.org/2000/svg">
<path fill-rule="evenodd" clip-rule="evenodd" d="M16.8827 3.07615C17.2564 3.23093 17.5 3.59557 17.5 4.00003V9.00003H20.5C21.0523 9.00003 21.5 9.44774 21.5 10V22C21.5 22.5523 21.0523 23 20.5 23H17.5V28C17.5 28.4045 17.2564 28.7691 16.8827 28.9239C16.509 29.0787 16.0789 28.9931 15.7929 28.7071L3.79289 16.7071C3.40237 16.3166 3.40237 15.6834 3.79289 15.2929L15.7929 3.29292C16.0789 3.00692 16.509 2.92137 16.8827 3.07615ZM5.91421 16L15.5 25.5858V22C15.5 21.4477 15.9477 21 16.5 21H19.5V11H16.5C15.9477 11 15.5 10.5523 15.5 10V6.41424L5.91421 16ZM28.5 9.00003C29.0523 9.00003 29.5 9.44774 29.5 10V22C29.5 22.5523 29.0523 23 28.5 23C27.9477 23 27.5 22.5523 27.5 22V10C27.5 9.44774 27.9477 9.00003 28.5 9.00003ZM25.5 10C25.5 9.44774 25.0523 9.00003 24.5 9.00003C23.9477 9.00003 23.5 9.44774 23.5 10V22C23.5 22.5523 23.9477 23 24.5 23C25.0523 23 25.5 22.5523 25.5 22V10Z" fill="#111827"/>
</svg>
