<svg width="33" height="32" viewBox="0 0 33 32" fill="none" xmlns="http://www.w3.org/2000/svg">
<path fill-rule="evenodd" clip-rule="evenodd" d="M5 4.00031C5 3.44802 5.44772 3.00031 6 3.00031H26.9999C27.5522 3.00031 27.9999 3.44802 27.9999 4.00031C27.9999 4.55259 27.5522 5.00031 26.9999 5.00031H6C5.44772 5.00031 5 4.55259 5 4.00031ZM15.4999 10.6152V27.9997C15.4999 28.552 15.9476 28.9997 16.4999 28.9997C17.0522 28.9997 17.4999 28.552 17.4999 27.9997V10.6148L20.2478 13.3627C20.6383 13.7532 21.2715 13.7532 21.662 13.3627C22.0525 12.9721 22.0525 12.339 21.662 11.9485L17.2072 7.49369C17.0937 7.38019 16.9597 7.29968 16.8172 7.25215C16.7175 7.21884 16.6108 7.20079 16.4999 7.20079C16.218 7.20079 15.9633 7.31747 15.7815 7.50518L11.3382 11.9485C10.9477 12.339 10.9477 12.9721 11.3382 13.3627C11.7288 13.7532 12.3619 13.7532 12.7525 13.3627L15.4999 10.6152Z" fill="#111827"/>
</svg>
