<svg width="33" height="32" viewBox="0 0 33 32" fill="none" xmlns="http://www.w3.org/2000/svg">
<path fill-rule="evenodd" clip-rule="evenodd" d="M15.4251 27.9989C15.4251 28.5512 15.8728 28.9989 16.4251 28.9989H24.4251C24.9773 28.9989 25.4251 28.5512 25.4251 27.9989V19.9989C25.4251 19.4466 24.9773 18.9989 24.4251 18.9989C23.8728 18.9989 23.4251 19.4466 23.4251 19.9989V25.6103L8.30772 10.4929C7.91719 10.1024 7.28403 10.1024 6.8935 10.4929C6.50298 10.8834 6.50298 11.5166 6.8935 11.9071L21.9853 26.9989H16.4251C15.8728 26.9989 15.4251 27.4466 15.4251 27.9989ZM3.00073 4.00106C3.00073 4.55334 3.44845 5.00106 4.00073 5.00106H27.9992C28.5514 5.00106 28.9992 4.55334 28.9992 4.00106C28.9992 3.44878 28.5514 3.00106 27.9992 3.00106H4.00073C3.44845 3.00106 3.00073 3.44878 3.00073 4.00106Z" fill="#111827"/>
</svg>
