<svg width="33" height="32" viewBox="0 0 33 32" fill="none" xmlns="http://www.w3.org/2000/svg">
<path fill-rule="evenodd" clip-rule="evenodd" d="M16.5749 4.0011C16.5749 3.44881 16.1272 3.0011 15.5749 3.0011H7.57494C7.02266 3.0011 6.57494 3.44881 6.57494 4.0011V12.0011C6.57494 12.5534 7.02266 13.0011 7.57494 13.0011C8.12723 13.0011 8.57494 12.5534 8.57494 12.0011V6.38974L23.6923 21.5071C24.0828 21.8976 24.716 21.8976 25.1065 21.5071C25.497 21.1166 25.497 20.4834 25.1065 20.0929L10.0147 5.0011H15.5749C16.1272 5.0011 16.5749 4.55338 16.5749 4.0011ZM28.9993 27.9989C28.9993 27.4467 28.5516 26.9989 27.9993 26.9989H4.00085C3.44856 26.9989 3.00085 27.4467 3.00085 27.9989C3.00085 28.5512 3.44856 28.9989 4.00085 28.9989H27.9993C28.5516 28.9989 28.9993 28.5512 28.9993 27.9989Z" fill="#111827"/>
</svg>
