<svg width="33" height="32" viewBox="0 0 33 32" fill="none" xmlns="http://www.w3.org/2000/svg">
<path fill-rule="evenodd" clip-rule="evenodd" d="M0.500977 1.00092C0.500977 0.448631 0.948692 0.000915527 1.50098 0.000915527H31.4991C32.0514 0.000915527 32.4991 0.448631 32.4991 1.00092V30.9991C32.4991 31.5514 32.0514 31.9991 31.4991 31.9991H1.50098C0.948692 31.9991 0.500977 31.5514 0.500977 30.9991V1.00092ZM2.50098 2.00092V29.9991H30.4991V2.00092H2.50098ZM20.9191 11.9196C21.4714 11.9196 21.9191 12.3673 21.9191 12.9196V20.4191C21.9191 20.6575 21.8358 20.8763 21.6966 21.0481C21.6598 21.0935 21.6191 21.1356 21.5751 21.174C21.4846 21.2528 21.3833 21.3126 21.2764 21.3534C21.2004 21.3825 21.1199 21.4026 21.0364 21.4123C20.9935 21.4174 20.9504 21.4196 20.9074 21.4191H13.4196C12.8673 21.4191 12.4196 20.9714 12.4196 20.4191C12.4196 19.8668 12.8673 19.4191 13.4196 19.4191H18.5047L11.3736 12.288C10.9831 11.8975 10.9831 11.2643 11.3736 10.8738C11.7641 10.4833 12.3973 10.4833 12.7878 10.8738L19.9191 18.0051V12.9196C19.9191 12.3673 20.3668 11.9196 20.9191 11.9196Z" fill="#111827"/>
</svg>
