<svg width="33" height="32" viewBox="0 0 33 32" fill="none" xmlns="http://www.w3.org/2000/svg">
<path fill-rule="evenodd" clip-rule="evenodd" d="M29.2067 4.70747C29.5972 4.31695 29.5972 3.68378 29.2067 3.29326C28.8161 2.90274 28.183 2.90274 27.7924 3.29326L21.0218 10.0639V6.44071C21.0218 5.88843 20.5741 5.44071 20.0218 5.44071C19.4695 5.44071 19.0218 5.88843 19.0218 6.44071V12.4655C19.0185 12.7256 19.1161 12.9868 19.3146 13.1853C19.5136 13.3843 19.7756 13.4819 20.0364 13.4781H26.0592C26.6115 13.4781 27.0592 13.0304 27.0592 12.4781C27.0592 11.9258 26.6115 11.4781 26.0592 11.4781H22.436L29.2067 4.70747ZM6.9412 18.5218C6.38892 18.5218 5.9412 18.9695 5.9412 19.5218C5.9412 20.0741 6.38892 20.5218 6.9412 20.5218H10.5643L3.79338 27.2927C3.40286 27.6832 3.40286 28.3164 3.79338 28.7069C4.18391 29.0974 4.81707 29.0974 5.2076 28.7069L11.9786 21.9359V25.5592C11.9786 26.1115 12.4263 26.5592 12.9786 26.5592C13.5309 26.5592 13.9786 26.1115 13.9786 25.5592V19.5218C13.9786 18.9695 13.5309 18.5218 12.9786 18.5218H6.9412Z" fill="#111827"/>
</svg>
