<svg width="33" height="32" viewBox="0 0 33 32" fill="none" xmlns="http://www.w3.org/2000/svg">
<path fill-rule="evenodd" clip-rule="evenodd" d="M10.5 5.87866C9.94772 5.87866 9.5 6.32638 9.5 6.87866C9.5 7.43095 9.94772 7.87866 10.5 7.87866H21.5C23.0913 7.87866 24.6174 8.5108 25.7426 9.63602C26.8679 10.7612 27.5 12.2874 27.5 13.8787C27.5 14.6666 27.3448 15.4468 27.0433 16.1748C26.7418 16.9027 26.2998 17.5642 25.7426 18.1213C25.1855 18.6785 24.5241 19.1204 23.7961 19.4219C23.0682 19.7235 22.2879 19.8787 21.5 19.8787H6.91427L9.44978 17.3432C9.84031 16.9526 9.84031 16.3195 9.44978 15.9289C9.05926 15.5384 8.42609 15.5384 8.03557 15.9289L3.79953 20.165C3.77375 20.1903 3.74934 20.217 3.72642 20.2449C3.67559 20.3068 3.63331 20.3734 3.5996 20.4431C3.53578 20.5747 3.5 20.7225 3.5 20.8787C3.5 21.024 3.531 21.1621 3.58674 21.2866C3.63037 21.3844 3.69046 21.4765 3.76701 21.5589C3.77632 21.5689 3.78583 21.5788 3.79554 21.5884L8.03557 25.8284C8.42609 26.219 9.05926 26.219 9.44978 25.8284C9.84031 25.4379 9.84031 24.8047 9.44978 24.4142L6.91422 21.8787H21.5C22.5506 21.8787 23.5909 21.6717 24.5615 21.2697C25.5321 20.8677 26.414 20.2784 27.1569 19.5355C27.8997 18.7927 28.489 17.9107 28.891 16.9401C29.2931 15.9695 29.5 14.9292 29.5 13.8787C29.5 11.7569 28.6571 9.7221 27.1569 8.22181C25.6566 6.72152 23.6217 5.87866 21.5 5.87866H10.5Z" fill="#111827"/>
</svg>
