<svg width="33" height="32" viewBox="0 0 33 32" fill="none" xmlns="http://www.w3.org/2000/svg">
<path fill-rule="evenodd" clip-rule="evenodd" d="M10.7914 11.7056C10.4009 11.3151 10.4009 10.682 10.7914 10.2914C11.182 9.9009 11.8151 9.9009 12.2056 10.2914L20.5012 18.587V13.0015C20.5012 12.4492 20.9489 12.0015 21.5012 12.0015C22.0535 12.0015 22.5012 12.4492 22.5012 13.0015V20.9811C22.5065 21.2437 22.409 21.5081 22.2085 21.7085C22.1012 21.8159 21.9755 21.8938 21.8415 21.9421C21.7353 21.9805 21.6207 22.0015 21.5012 22.0015H13.5012C12.9489 22.0015 12.5012 21.5538 12.5012 21.0015C12.5012 20.4492 12.9489 20.0015 13.5012 20.0015H19.0873L10.7914 11.7056Z" fill="#111827"/>
</svg>
