<svg width="33" height="32" viewBox="0 0 33 32" fill="none" xmlns="http://www.w3.org/2000/svg">
<path fill-rule="evenodd" clip-rule="evenodd" d="M5.5 7.87866C5.5 7.32638 5.05228 6.87866 4.5 6.87866C3.94772 6.87866 3.5 7.32638 3.5 7.87866C3.5 11.3265 4.86964 14.6331 7.30761 17.071C9.74558 19.509 13.0522 20.8787 16.5 20.8787H26.0858L23.5502 23.4142C23.1597 23.8047 23.1597 24.4379 23.5502 24.8284C23.9407 25.219 24.5739 25.219 24.9644 24.8284L29.2045 20.5884C29.2142 20.5788 29.2237 20.5689 29.233 20.5589C29.3094 20.4767 29.3694 20.3848 29.413 20.2873C29.4689 20.1625 29.5 20.0242 29.5 19.8787C29.5 19.7225 29.4642 19.5747 29.4004 19.4431C29.3667 19.3734 29.3244 19.3068 29.2736 19.2449C29.2507 19.217 29.2262 19.1903 29.2005 19.165L24.9644 14.9289C24.5739 14.5384 23.9407 14.5384 23.5502 14.9289C23.1597 15.3195 23.1597 15.9526 23.5502 16.3432L26.0857 18.8787H16.5C13.5826 18.8787 10.7847 17.7197 8.72183 15.6568C6.65893 13.5939 5.5 10.796 5.5 7.87866Z" fill="#111827"/>
</svg>
