<svg width="33" height="32" viewBox="0 0 33 32" fill="none" xmlns="http://www.w3.org/2000/svg">
<path fill-rule="evenodd" clip-rule="evenodd" d="M15.7929 3.29289C16.1834 2.90237 16.8166 2.90237 17.2071 3.29289L29.2071 15.2929C29.4931 15.5789 29.5787 16.009 29.4239 16.3827C29.2691 16.7564 28.9045 17 28.5 17H23.5V20C23.5 20.5523 23.0523 21 22.5 21H10.5C9.94774 21 9.50003 20.5523 9.50003 20V17H4.50003C4.09557 17 3.73093 16.7564 3.57615 16.3827C3.42137 16.009 3.50692 15.5789 3.79292 15.2929L15.7929 3.29289ZM6.91424 15H10.5C11.0523 15 11.5 15.4477 11.5 16V19H21.5V16C21.5 15.4477 21.9477 15 22.5 15H26.0858L16.5 5.41421L6.91424 15ZM9.50003 28C9.50003 27.4477 9.94774 27 10.5 27H22.5C23.0523 27 23.5 27.4477 23.5 28C23.5 28.5523 23.0523 29 22.5 29H10.5C9.94774 29 9.50003 28.5523 9.50003 28ZM10.5 23C9.94774 23 9.50003 23.4477 9.50003 24C9.50003 24.5523 9.94774 25 10.5 25H22.5C23.0523 25 23.5 24.5523 23.5 24C23.5 23.4477 23.0523 23 22.5 23H10.5Z" fill="#111827"/>
</svg>
