<svg width="33" height="32" viewBox="0 0 33 32" fill="none" xmlns="http://www.w3.org/2000/svg">
<path fill-rule="evenodd" clip-rule="evenodd" d="M9.83411 4C9.83411 3.44772 9.3864 3 8.83411 3C8.28183 3 7.83411 3.44772 7.83411 4V25.5655L5.26844 22.9691C4.88025 22.5763 4.25087 22.5763 3.86268 22.9691C3.47449 23.362 3.47449 23.9989 3.86268 24.3917L8.07997 28.6596C8.08728 28.667 8.09466 28.6742 8.10213 28.6813C8.2847 28.8774 8.54509 29 8.83411 29C9.25014 29 9.60683 28.746 9.75751 28.3845L13.703 24.3917C14.0912 23.9989 14.0912 23.362 13.703 22.9691C13.3148 22.5763 12.6855 22.5763 12.2973 22.9691L9.83411 25.4618V4ZM23.2687 28V6.43446L20.703 9.03089C20.3148 9.42373 19.6854 9.42373 19.2972 9.03089C18.9091 8.63804 18.9091 8.00112 19.2972 7.60827L23.5145 3.34044C23.5218 3.33304 23.5292 3.32578 23.5367 3.31867C23.7193 3.12262 23.9797 3 24.2687 3C24.6847 3 25.0414 3.25405 25.1921 3.61547L29.1376 7.60827C29.5258 8.00112 29.5258 8.63804 29.1376 9.03089C28.7494 9.42373 28.12 9.42373 27.7318 9.03089L25.2687 6.53822V28C25.2687 28.5523 24.821 29 24.2687 29C23.7164 29 23.2687 28.5523 23.2687 28Z" fill="#111827"/>
</svg>
