<svg width="33" height="32" viewBox="0 0 33 32" fill="none" xmlns="http://www.w3.org/2000/svg">
<path fill-rule="evenodd" clip-rule="evenodd" d="M22.8433 8.92891C22.4528 8.53839 21.8196 8.53839 21.4291 8.92891C21.0386 9.31943 21.0386 9.9526 21.4291 10.3431L26.0797 14.9937H4.5C3.94772 14.9937 3.5 15.4415 3.5 15.9937C3.5 16.546 3.94772 16.9937 4.5 16.9937H26.0922L21.4291 21.6568C21.0386 22.0474 21.0386 22.6805 21.4291 23.071C21.8196 23.4616 22.4528 23.4616 22.8433 23.071L29.2073 16.7071C29.411 16.5034 29.5084 16.2337 29.4996 15.9668C29.4917 15.6682 29.353 15.4023 29.1386 15.2242L22.8433 8.92891Z" fill="#111827"/>
</svg>
