<svg width="33" height="32" viewBox="0 0 33 32" fill="none" xmlns="http://www.w3.org/2000/svg">
<path fill-rule="evenodd" clip-rule="evenodd" d="M29.0347 8.15606C29.1141 8.20652 29.1858 8.26786 29.2479 8.33799C29.301 8.39786 29.3458 8.46272 29.3821 8.53101C29.4567 8.67103 29.499 8.83088 29.499 9.00061V15.0001C29.499 15.5524 29.0512 16.0001 28.499 16.0001C27.9467 16.0001 27.499 15.5524 27.499 15.0001V11.5582L16.3117 23.6777C16.1224 23.8827 15.856 23.9994 15.5769 23.9994C15.2978 23.9994 15.0314 23.8827 14.8421 23.6777L3.76618 11.6787C3.39157 11.2729 3.41688 10.6402 3.8227 10.2656C4.22852 9.89103 4.86118 9.91633 5.23579 10.3222L15.5769 21.5251L26.2149 10.0006H22.4995C21.9472 10.0006 21.4995 9.5529 21.4995 9.00061C21.4995 8.44833 21.9472 8.00061 22.4995 8.00061H28.496H28.499C28.5136 8.00061 28.5281 8.00092 28.5425 8.00154" fill="#111827"/>
</svg>
