<svg width="33" height="32" viewBox="0 0 33 32" fill="none" xmlns="http://www.w3.org/2000/svg">
<path fill-rule="evenodd" clip-rule="evenodd" d="M17.4154 0.502566C17.2427 0.202722 16.919 0.000854492 16.5482 0.000854492C16.5392 0.000854492 16.5303 0.000972114 16.5214 0.0012059C16.2581 -0.00457047 15.993 0.0930009 15.792 0.293911L10.4891 5.59686C10.0986 5.98739 10.0986 6.62047 10.4893 7.01089C10.8799 7.40131 11.5132 7.40123 11.9037 7.0107L15.5482 3.3662V11.0002C15.5482 11.5525 15.9959 12.0002 16.5482 12.0002C17.1005 12.0002 17.5482 11.5525 17.5482 11.0002V3.46298L21.0966 7.0095C21.4872 7.39993 22.1204 7.39984 22.511 7.00932C22.9015 6.61879 22.9014 5.98571 22.5108 5.59529L17.4154 0.502566ZM10.4891 24.9905C10.8796 24.6 11.5129 24.5999 11.9035 24.9903L15.5482 28.6331V20.9998C15.5482 20.4475 15.9959 19.9998 16.5482 19.9998C17.1005 19.9998 17.5482 20.4475 17.5482 20.9998V28.5373L21.0964 24.9891C21.4869 24.5986 22.1201 24.5985 22.5108 24.9889C22.9014 25.3793 22.9015 26.0124 22.511 26.4029L17.4139 31.5C17.2408 31.7984 16.9179 31.9991 16.5482 31.9991C16.5383 31.9991 16.5285 31.999 16.5187 31.9987C16.2568 32.0034 15.9935 31.9058 15.7936 31.7061L10.4893 26.4045C10.0986 26.0141 10.0986 25.381 10.4891 24.9905ZM3.91556 15.0476L7.51126 11.4519C7.90178 11.0614 7.90178 10.4282 7.51126 10.0377C7.12073 9.64718 6.48757 9.64718 6.09704 10.0377L0.810205 15.3245C0.619665 15.5066 0.500977 15.7633 0.500977 16.0476C0.500977 16.3276 0.616017 16.5807 0.801404 16.7622L6.09704 22.0578C6.48757 22.4483 7.12073 22.4483 7.51126 22.0578C7.90178 21.6673 7.90178 21.0341 7.51126 20.6436L3.91527 17.0476H11.5003C12.0526 17.0476 12.5003 16.5999 12.5003 16.0476C12.5003 15.4953 12.0526 15.0476 11.5003 15.0476H3.91556ZM25.4888 9.98842C25.8793 9.59779 26.5123 9.59771 26.9029 9.98824L32.2058 15.2912C32.4065 15.4918 32.504 15.7565 32.4985 16.0195C32.4988 16.0279 32.4989 16.0364 32.4989 16.0449C32.4989 16.4133 32.2996 16.7352 32.003 16.9087L26.9044 22.0099C26.514 22.4005 25.8809 22.4006 25.4904 22.0101C25.0999 21.6196 25.0998 20.9863 25.4902 20.5957L29.0392 17.0449H21.4995C20.9472 17.0449 20.4995 16.5972 20.4995 16.0449C20.4995 15.4926 20.9472 15.0449 21.4995 15.0449H29.1311L25.489 11.4028C25.0985 11.0123 25.0984 10.379 25.4888 9.98842Z" fill="#111827"/>
</svg>
