<svg width="33" height="32" viewBox="0 0 33 32" fill="none" xmlns="http://www.w3.org/2000/svg">
<path fill-rule="evenodd" clip-rule="evenodd" d="M17.2071 3.29292C16.9211 3.00692 16.491 2.92137 16.1173 3.07615C15.7436 3.23093 15.5 3.59557 15.5 4.00003V9.00003H8.5C7.94772 9.00003 7.5 9.44774 7.5 10V22C7.5 22.5523 7.94772 23 8.5 23H15.5V28C15.5 28.4045 15.7436 28.7691 16.1173 28.9239C16.491 29.0787 16.9211 28.9931 17.2071 28.7071L29.2071 16.7071C29.5976 16.3166 29.5976 15.6834 29.2071 15.2929L17.2071 3.29292ZM17.5 10V6.41424L27.0858 16L17.5 25.5858V22C17.5 21.4477 17.0523 21 16.5 21H9.5V11H16.5C17.0523 11 17.5 10.5523 17.5 10ZM5.5 10C5.5 9.44774 5.05228 9.00003 4.5 9.00003C3.94772 9.00003 3.5 9.44774 3.5 10V22C3.5 22.5523 3.94772 23 4.5 23C5.05228 23 5.5 22.5523 5.5 22V10Z" fill="#111827"/>
</svg>
