<svg width="33" height="32" viewBox="0 0 33 32" fill="none" xmlns="http://www.w3.org/2000/svg">
<path fill-rule="evenodd" clip-rule="evenodd" d="M29.5 24.1213C29.5 24.6736 29.0523 25.1213 28.5 25.1213C27.9477 25.1213 27.5 24.6736 27.5 24.1213C27.5 21.204 26.3411 18.4061 24.2782 16.3432C22.2153 14.2803 19.4174 13.1213 16.5 13.1213H6.91427L9.44978 15.6568C9.84031 16.0474 9.84031 16.6805 9.44978 17.0711C9.05926 17.4616 8.42609 17.4616 8.03557 17.0711L3.79953 12.835C3.77375 12.8097 3.74934 12.783 3.72642 12.7551C3.67559 12.6932 3.63331 12.6266 3.5996 12.5569C3.53578 12.4253 3.5 12.2775 3.5 12.1213C3.5 11.976 3.531 11.8379 3.58674 11.7134C3.63037 11.6156 3.69046 11.5235 3.76701 11.4411C3.77632 11.4311 3.78583 11.4212 3.79554 11.4116L8.03557 7.17156C8.42609 6.78104 9.05926 6.78104 9.44978 7.17156C9.84031 7.56209 9.84031 8.19525 9.44978 8.58578L6.91422 11.1213H16.5C19.9478 11.1213 23.2544 12.491 25.6924 14.929C28.1304 17.3669 29.5 20.6735 29.5 24.1213Z" fill="#111827"/>
</svg>
