<svg width="33" height="32" viewBox="0 0 33 32" fill="none" xmlns="http://www.w3.org/2000/svg">
<path fill-rule="evenodd" clip-rule="evenodd" d="M21.6283 9.99232C19.2938 9.00581 16.7239 8.74736 14.2443 9.25056C11.7648 9.75373 9.49005 10.9952 7.70657 12.8147L5.5 15.0659V11.5148C5.5 10.9625 5.05229 10.5148 4.5 10.5148C3.94772 10.5148 3.5 10.9625 3.5 11.5148L3.5 17.5147L3.5 17.5148C3.5 17.6608 3.53128 17.7994 3.58752 17.9245C3.62771 18.0141 3.68173 18.0989 3.74955 18.1757C3.7871 18.2183 3.82823 18.2577 3.87246 18.2934C3.93396 18.3431 3.99995 18.3844 4.06891 18.4173C4.19944 18.4798 4.34564 18.5148 4.5 18.5148H10.5C11.0523 18.5148 11.5 18.0671 11.5 17.5148C11.5 16.9625 11.0523 16.5148 10.5 16.5148H6.8804L9.13487 14.2147C10.6413 12.6778 12.5582 11.6335 14.642 11.2106C16.7257 10.7878 18.8857 11.0046 20.8498 11.8346C22.814 12.6647 24.4962 14.0718 25.6812 15.8811C26.8663 17.6906 27.5 19.82 27.5 22C27.5 22.5523 27.9477 23 28.5 23C29.0523 23 29.5 22.5523 29.5 22C29.5 19.4333 28.754 16.9226 27.3543 14.7853C25.9543 12.6478 23.9625 10.9787 21.6283 9.99232Z" fill="#111827"/>
</svg>
