<svg width="33" height="32" viewBox="0 0 33 32" fill="none" xmlns="http://www.w3.org/2000/svg">
<path fill-rule="evenodd" clip-rule="evenodd" d="M15.4998 6.41446V12.3586C15.4998 12.9109 15.9476 13.3586 16.4998 13.3586C17.0521 13.3586 17.4998 12.9109 17.4998 12.3586V6.41453L20.2254 9.14006C20.6159 9.53058 21.2491 9.53058 21.6396 9.14006C22.0301 8.74953 22.0301 8.11637 21.6396 7.72585L17.214 3.30022C17.1864 3.27214 17.1573 3.24568 17.1266 3.22099C17.0683 3.17399 17.006 3.1345 16.9409 3.10252C16.8079 3.03703 16.6581 3.00024 16.4998 3.00024C16.3562 3.00024 16.2196 3.03054 16.0961 3.08509C15.986 3.13362 15.8829 3.20298 15.7927 3.29317L11.36 7.72585C10.9695 8.11637 10.9695 8.74954 11.36 9.14006C11.7506 9.53058 12.3837 9.53058 12.7742 9.14006L15.4998 6.41446ZM5.052 16C5.052 15.4477 5.49972 15 6.052 15H26.9478C27.5001 15 27.9478 15.4477 27.9478 16C27.9478 16.5522 27.5001 17 26.9478 17H6.052C5.49972 17 5.052 16.5522 5.052 16ZM11.36 22.8598C11.7505 22.4693 12.3837 22.4693 12.7742 22.8598L15.4998 25.5854V19.6414C15.4998 19.0892 15.9475 18.6414 16.4998 18.6414C17.0521 18.6414 17.4998 19.0892 17.4998 19.6414V25.5854L20.2253 22.8598C20.6158 22.4693 21.249 22.4693 21.6395 22.8598C22.0301 23.2504 22.0301 23.8835 21.6395 24.2741L17.2183 28.6953C17.0365 28.8831 16.7818 28.9998 16.4998 28.9998C16.2191 28.9998 15.9653 28.8841 15.7837 28.6978L11.36 24.2741C10.9695 23.8835 10.9695 23.2504 11.36 22.8598Z" fill="#111827"/>
</svg>
