<svg width="33" height="32" viewBox="0 0 33 32" fill="none" xmlns="http://www.w3.org/2000/svg">
<path fill-rule="evenodd" clip-rule="evenodd" d="M4.50049 5.28912C3.9482 5.28912 3.50049 5.73684 3.50049 6.28912C3.50049 6.84141 3.9482 7.28912 4.50049 7.28912H22.9221V23.2971L20.051 20.426C19.6605 20.0355 19.0274 20.0355 18.6368 20.426C18.2463 20.8165 18.2463 21.4497 18.6368 21.8402L23.2146 26.418C23.4295 26.6329 23.7179 26.7295 23.9989 26.7079C24.253 26.6886 24.4806 26.5743 24.6462 26.4005L29.2065 21.8402C29.597 21.4497 29.597 20.8165 29.2065 20.426C28.816 20.0355 28.1828 20.0355 27.7923 20.426L24.9221 23.2962V6.28912C24.9221 5.73684 24.4744 5.28912 23.9221 5.28912H4.50049Z" fill="#111827"/>
</svg>
