<svg width="33" height="32" viewBox="0 0 33 32" fill="none" xmlns="http://www.w3.org/2000/svg">
<path fill-rule="evenodd" clip-rule="evenodd" d="M21.8215 3.10344C21.6879 3.03734 21.5375 3.00018 21.3784 3.00018C21.0934 3.00018 20.8362 3.11943 20.6541 3.31077L16.429 7.53582C16.0385 7.92635 16.0385 8.55951 16.429 8.95004C16.8195 9.34056 17.4527 9.34056 17.8432 8.95004L20.3784 6.41483V20.9999C20.3784 21.7878 20.2232 22.568 19.9217 23.296C19.6202 24.0239 19.1782 24.6853 18.6211 25.2425C18.064 25.7996 17.4025 26.2415 16.6746 26.5431C15.9467 26.8446 15.1665 26.9998 14.3785 26.9998C12.7873 26.9998 11.2612 26.3676 10.136 25.2425C9.01079 24.1173 8.37866 22.5912 8.37866 20.9999V10.0001C8.37866 9.4478 7.93095 9.00008 7.37866 9.00008C6.82638 9.00008 6.37866 9.4478 6.37866 10.0001V20.9999C6.37866 23.1216 7.2215 25.1564 8.72177 26.6567C10.222 28.1569 12.2568 28.9998 14.3786 28.9998C15.4291 28.9998 16.4694 28.7929 17.44 28.3908C18.4106 27.9888 19.2925 27.3995 20.0353 26.6567C20.7782 25.9138 21.3674 25.0319 21.7695 24.0613C22.1715 23.0907 22.3784 22.0505 22.3784 20.9999V6.41433L24.9141 8.95004C25.3047 9.34056 25.9378 9.34056 26.3284 8.95004C26.7189 8.55951 26.7189 7.92635 26.3284 7.53582L22.0858 3.29326C22.0064 3.21383 21.9169 3.15056 21.8215 3.10344Z" fill="#111827"/>
</svg>
