<svg width="33" height="32" viewBox="0 0 33 32" fill="none" xmlns="http://www.w3.org/2000/svg">
<path fill-rule="evenodd" clip-rule="evenodd" d="M16.5749 27.9989C16.5749 28.5512 16.1272 28.9989 15.5749 28.9989H7.57494C7.02266 28.9989 6.57494 28.5512 6.57494 27.9989V19.9989C6.57494 19.4466 7.02266 18.9989 7.57494 18.9989C8.12723 18.9989 8.57494 19.4466 8.57494 19.9989V25.6103L23.6923 10.4929C24.0828 10.1024 24.716 10.1024 25.1065 10.4929C25.497 10.8834 25.497 11.5166 25.1065 11.9071L10.0147 26.9989H15.5749C16.1272 26.9989 16.5749 27.4466 16.5749 27.9989ZM28.9993 4.00106C28.9993 4.55334 28.5516 5.00106 27.9993 5.00106H4.00085C3.44856 5.00106 3.00085 4.55334 3.00085 4.00106C3.00085 3.44878 3.44856 3.00106 4.00085 3.00106H27.9993C28.5516 3.00106 28.9993 3.44878 28.9993 4.00106Z" fill="#111827"/>
</svg>
