<svg width="33" height="32" viewBox="0 0 33 32" fill="none" xmlns="http://www.w3.org/2000/svg">
<path fill-rule="evenodd" clip-rule="evenodd" d="M17.2071 3.29289C16.8166 2.90237 16.1834 2.90237 15.7929 3.29289L3.79292 15.2929C3.50692 15.5789 3.42137 16.009 3.57615 16.3827C3.73093 16.7564 4.09557 17 4.50003 17H9.50003V24C9.50003 24.5523 9.94774 25 10.5 25H22.5C23.0523 25 23.5 24.5523 23.5 24V17H28.5C28.9045 17 29.2691 16.7564 29.4239 16.3827C29.5787 16.009 29.4931 15.5789 29.2071 15.2929L17.2071 3.29289ZM10.5 15H6.91424L16.5 5.41421L26.0858 15H22.5C21.9477 15 21.5 15.4477 21.5 16V23H11.5V16C11.5 15.4477 11.0523 15 10.5 15ZM10.5 27C9.94774 27 9.50003 27.4477 9.50003 28C9.50003 28.5523 9.94774 29 10.5 29H22.5C23.0523 29 23.5 28.5523 23.5 28C23.5 27.4477 23.0523 27 22.5 27H10.5Z" fill="#111827"/>
</svg>
