<svg width="33" height="32" viewBox="0 0 33 32" fill="none" xmlns="http://www.w3.org/2000/svg">
<path fill-rule="evenodd" clip-rule="evenodd" d="M32.2074 1.70686C32.5979 1.31634 32.5979 0.683173 32.2074 0.292649C31.8169 -0.0978752 31.1837 -0.0978752 30.7932 0.292649L22.5002 8.5857V3.4998C22.5002 2.94751 22.0524 2.4998 21.5002 2.4998C20.9479 2.4998 20.5002 2.94751 20.5002 3.4998V10.9977L20.5003 11.0185C20.5026 11.1462 20.5289 11.2681 20.5749 11.3799C20.6237 11.4989 20.6964 11.6104 20.793 11.707C20.8889 11.8029 20.9994 11.8752 21.1174 11.924C21.2353 11.9729 21.3646 11.9999 21.5002 11.9999H29.0003C29.5526 11.9999 30.0003 11.5522 30.0003 10.9999C30.0003 10.4476 29.5526 9.99992 29.0003 9.99992H23.9144L32.2074 1.70686ZM0.792649 30.2931C0.402125 30.6836 0.402125 31.3168 0.792649 31.7073C1.18317 32.0978 1.81634 32.0978 2.20686 31.7073L10.5 23.4141V28.5003C10.5 29.0526 10.9478 29.5003 11.5 29.5003C12.0523 29.5003 12.5 29.0526 12.5 28.5003V21.0002C12.5 20.8386 12.4617 20.6859 12.3937 20.5508C12.3469 20.4578 12.2847 20.3706 12.207 20.2929C12.085 20.1709 11.9393 20.087 11.7846 20.0412C11.753 20.0319 11.721 20.0241 11.6888 20.0179C11.6213 20.005 11.5526 19.9991 11.4841 20.0002H3.99992C3.44763 20.0002 2.99992 20.4479 2.99992 21.0002C2.99992 21.5524 3.44763 22.0002 3.99992 22.0002H9.08558L0.792649 30.2931ZM30.7932 31.7073C31.1837 32.0978 31.8169 32.0978 32.2074 31.7073C32.5979 31.3168 32.5979 30.6836 32.2074 30.2931L23.9145 22.0001H29.0002C29.5525 22.0001 30.0002 21.5524 30.0002 21.0001C30.0002 20.4478 29.5525 20.0001 29.0002 20.0001H21.5131C21.4614 19.9995 21.4097 20.0028 21.3584 20.0101C21.2949 20.0191 21.2334 20.034 21.1743 20.0544C21.0451 20.0988 20.9232 20.1704 20.8175 20.2693C20.7949 20.2904 20.7732 20.3127 20.7526 20.3358C20.6928 20.403 20.6436 20.4763 20.6051 20.5535C20.5379 20.688 20.5001 20.8396 20.5001 21.0001V28.5002C20.5001 29.0525 20.9478 29.5002 21.5001 29.5002C22.0523 29.5002 22.5001 29.0525 22.5001 28.5002V23.4142L30.7932 31.7073ZM11.5 2.49978C12.0523 2.49978 12.5 2.9475 12.5 3.49978V10.9856C12.5038 11.2463 12.4062 11.5083 12.2072 11.7072C12.0065 11.9079 11.7417 12.0055 11.4787 11.9999H3.9999C3.44762 11.9999 2.9999 11.5522 2.9999 10.9999C2.9999 10.4476 3.44762 9.9999 3.9999 9.9999H9.08569L0.792862 1.70708C0.402338 1.31655 0.402338 0.683386 0.792862 0.292862C1.18339 -0.0976624 1.81655 -0.0976624 2.20708 0.292862L10.5 8.58581V3.49978C10.5 2.9475 10.9477 2.49978 11.5 2.49978Z" fill="#111827"/>
</svg>
