<svg width="33" height="32" viewBox="0 0 33 32" fill="none" xmlns="http://www.w3.org/2000/svg">
<path fill-rule="evenodd" clip-rule="evenodd" d="M5.79289 6.70711C5.40237 6.31658 5.40237 5.68342 5.79289 5.29289C6.18342 4.90237 6.81658 4.90237 7.20711 5.29289L25.5 23.5858V18.5C25.5 17.9477 25.9477 17.5 26.5 17.5C27.0523 17.5 27.5 17.9477 27.5 18.5V26C27.5 26.1356 27.473 26.2649 27.4241 26.3828C27.3764 26.498 27.3063 26.6062 27.2136 26.7005C27.2093 26.7049 27.2049 26.7093 27.2005 26.7136C27.0061 26.9045 26.7531 27 26.5 27H19C18.4477 27 18 26.5523 18 26C18 25.4477 18.4477 25 19 25H24.0858L5.79289 6.70711Z" fill="#111827"/>
</svg>
