<svg width="33" height="32" viewBox="0 0 33 32" fill="none" xmlns="http://www.w3.org/2000/svg">
<path fill-rule="evenodd" clip-rule="evenodd" d="M9.44975 8.58577C9.84027 8.19524 9.84027 7.56208 9.44975 7.17156C9.05922 6.78103 8.42606 6.78103 8.03553 7.17156L3.79289 11.4142C3.40237 11.8047 3.40237 12.4379 3.79289 12.8284L8.03553 17.071C8.42606 17.4616 9.05922 17.4616 9.44975 17.071C9.84027 16.6805 9.84027 16.0474 9.44975 15.6568L5.91421 12.1213L9.44975 8.58577ZM15.4497 7.17156C15.8403 7.56208 15.8403 8.19524 15.4497 8.58577L12.9142 11.1213H16.5C19.9478 11.1213 23.2544 12.491 25.6924 14.929C28.1303 17.3669 29.5 20.6735 29.5 24.1213C29.5 24.6736 29.0522 25.1213 28.5 25.1213C27.9477 25.1213 27.5 24.6736 27.5 24.1213C27.5 21.204 26.341 18.4061 24.2781 16.3432C22.2152 14.2803 19.4173 13.1213 16.5 13.1213H12.9142L15.4497 15.6568C15.8403 16.0474 15.8403 16.6805 15.4497 17.071C15.0592 17.4616 14.4261 17.4616 14.0355 17.071L9.79997 12.8355C9.77177 12.8078 9.7452 12.7785 9.72042 12.7477C9.67355 12.6896 9.63416 12.6274 9.60224 12.5624C9.53675 12.4294 9.49996 12.2796 9.49996 12.1213C9.49996 11.9777 9.53027 11.841 9.58483 11.7176C9.63336 11.6075 9.70272 11.5044 9.79289 11.4142L14.0355 7.17156C14.4261 6.78103 15.0592 6.78103 15.4497 7.17156Z" fill="#111827"/>
</svg>
