<svg width="33" height="32" viewBox="0 0 33 32" fill="none" xmlns="http://www.w3.org/2000/svg">
<path fill-rule="evenodd" clip-rule="evenodd" d="M10.951 2.0241C11.3461 2.40992 11.3461 3.03545 10.951 3.42126L6.96819 7.30969H28.4891C29.0413 7.30969 29.4891 7.7574 29.4891 8.30969C29.4891 8.86197 29.0413 9.30969 28.4891 9.30969H6.96483L10.951 13.2014C11.3461 13.5872 11.3461 14.2127 10.951 14.5986C10.5558 14.9844 9.91508 14.9844 9.5199 14.5986L3.79565 9.00991C3.41277 8.6361 3.40086 8.03727 3.7599 7.64945C3.78923 7.61612 3.82074 7.58475 3.85421 7.55557L9.5199 2.0241C9.91508 1.63829 10.5558 1.63829 10.951 2.0241ZM4.51098 22.6787C3.95869 22.6787 3.51098 23.1264 3.51098 23.6787C3.51098 24.231 3.95869 24.6787 4.51098 24.6787H26.0438L22.049 28.5788C21.6538 28.9646 21.6538 29.5902 22.049 29.976C22.4442 30.3618 23.0849 30.3618 23.4801 29.976L29.2043 24.3873C29.5432 24.0565 29.5915 23.5493 29.3491 23.1682C29.2831 23.0571 29.196 22.9599 29.0935 22.882L23.4801 17.4015C23.0849 17.0157 22.4442 17.0157 22.049 17.4015C21.6538 17.7873 21.6538 18.4129 22.049 18.7987L26.0232 22.6787H4.51098Z" fill="#111827"/>
</svg>
