<svg width="33" height="32" viewBox="0 0 33 32" fill="none" xmlns="http://www.w3.org/2000/svg">
<path fill-rule="evenodd" clip-rule="evenodd" d="M17.1137 5.00055C18.5582 5.00055 19.9886 5.28506 21.3231 5.83784C22.6576 6.39062 23.8702 7.20083 24.8916 8.22223C25.2821 8.61276 25.9153 8.61276 26.3058 8.22223C26.6963 7.83171 26.6963 7.19855 26.3058 6.80802C25.0987 5.6009 23.6656 4.64337 22.0884 3.99008C20.5113 3.33679 18.8209 3.00055 17.1137 3.00055C15.4066 3.00055 13.7162 3.33679 12.139 3.99008C10.5619 4.64337 9.12881 5.6009 7.92169 6.80802L5.0006 9.72911V5.59815C5.0006 5.04586 4.55289 4.59815 4.0006 4.59815C3.44832 4.59815 3.0006 5.04586 3.0006 5.59815V12.1433C3.0006 12.3068 3.03981 12.461 3.10933 12.5972C3.13237 12.6425 3.15908 12.6863 3.18945 12.7283C3.24743 12.8086 3.31704 12.8799 3.39579 12.9398C3.44038 12.9737 3.48717 13.0034 3.53561 13.0289C3.67452 13.102 3.83273 13.1433 4.0006 13.1433H10.5458C11.0981 13.1433 11.5458 12.6956 11.5458 12.1433C11.5458 11.5911 11.0981 11.1433 10.5458 11.1433H6.4148L9.33591 8.22223C10.3573 7.20083 11.5699 6.39062 12.9044 5.83784C14.2389 5.28506 15.6693 5.00055 17.1137 5.00055ZM28.9995 19.8568C28.9995 19.7212 28.9725 19.592 28.9236 19.474C28.8748 19.3561 28.8025 19.2456 28.7066 19.1497C28.5257 18.9688 28.2757 18.8568 27.9995 18.8568H27.9991H21.4543C20.902 18.8568 20.4543 19.3045 20.4543 19.8568C20.4543 20.4091 20.902 20.8568 21.4543 20.8568H25.5853L22.6643 23.7779C21.6429 24.7993 20.4303 25.6095 19.0958 26.1623C17.7612 26.715 16.3309 26.9996 14.8864 26.9996C13.4419 26.9996 12.0116 26.715 10.6771 26.1623C9.34256 25.6095 8.12998 24.7993 7.10858 23.7779C6.71806 23.3873 6.08489 23.3873 5.69437 23.7779C5.30384 24.1684 5.30384 24.8016 5.69437 25.1921C6.90149 26.3992 8.33454 27.3567 9.91172 28.01C11.4889 28.6633 13.1793 28.9996 14.8864 28.9996C16.5935 28.9996 18.2839 28.6633 19.8611 28.01C21.4383 27.3567 22.8714 26.3992 24.0785 25.1921L26.9995 22.271V26.402C26.9995 26.9543 27.4472 27.402 27.9995 27.402C28.5518 27.402 28.9995 26.9543 28.9995 26.402V19.8572V19.8568Z" fill="#111827"/>
</svg>
