<svg width="33" height="32" viewBox="0 0 33 32" fill="none" xmlns="http://www.w3.org/2000/svg">
<path fill-rule="evenodd" clip-rule="evenodd" d="M22.2085 11.7056C22.5991 11.3151 22.5991 10.682 22.2085 10.2914C21.818 9.9009 21.1848 9.9009 20.7943 10.2914L12.4987 18.587V13.0015C12.4987 12.4492 12.051 12.0015 11.4987 12.0015C10.9465 12.0015 10.4987 12.4492 10.4987 13.0015L10.4987 20.9811C10.4934 21.2438 10.591 21.5081 10.7914 21.7085C10.8988 21.8159 11.0245 21.8938 11.1585 21.9421C11.2647 21.9805 11.3793 22.0015 11.4987 22.0015H19.4987C20.051 22.0015 20.4987 21.5538 20.4987 21.0015C20.4987 20.4492 20.051 20.0015 19.4987 20.0015H13.9127L22.2085 11.7056Z" fill="#111827"/>
</svg>
