<svg width="33" height="32" viewBox="0 0 33 32" fill="none" xmlns="http://www.w3.org/2000/svg">
<path fill-rule="evenodd" clip-rule="evenodd" d="M14.3628 10.1598C14.7533 10.5503 14.7533 11.1835 14.3628 11.574C13.9723 11.9646 13.3391 11.9646 12.9486 11.574L10.078 8.70347V24.7108H28.4995C29.0518 24.7108 29.4995 25.1585 29.4995 25.7108C29.4995 26.263 29.0518 26.7108 28.4995 26.7108H9.07804C8.52575 26.7108 8.07804 26.263 8.07804 25.7108V8.70345L5.20745 11.574C4.81693 11.9646 4.18377 11.9646 3.79324 11.574C3.40272 11.1835 3.40272 10.5503 3.79324 10.1598L8.37093 5.58214C8.47674 5.47633 8.60036 5.39919 8.73214 5.35071C8.81684 5.31949 8.90691 5.2994 9.00061 5.29223C9.14534 5.28106 9.29203 5.30126 9.42964 5.35284C9.55928 5.40143 9.68086 5.47786 9.78514 5.58214L14.3628 10.1598Z" fill="#111827"/>
</svg>
