<svg width="33" height="32" viewBox="0 0 33 32" fill="none" xmlns="http://www.w3.org/2000/svg">
<path fill-rule="evenodd" clip-rule="evenodd" d="M1.49976 -0.000366211C0.947471 -0.000366211 0.499756 0.447349 0.499756 0.999634V8.99963C0.499756 9.55192 0.947471 9.99963 1.49976 9.99963C2.05204 9.99963 2.49976 9.55192 2.49976 8.99963V1.99963H9.49976C10.052 1.99963 10.4998 1.55192 10.4998 0.999634C10.4998 0.447349 10.052 -0.000366211 9.49976 -0.000366211H1.49976ZM23.5 -0.000244141C22.9477 -0.000244141 22.5 0.447471 22.5 0.999756C22.5 1.55204 22.9477 1.99976 23.5 1.99976H30.5V8.99976C30.5 9.55204 30.9477 9.99976 31.5 9.99976C32.0523 9.99976 32.5 9.55204 32.5 8.99976V0.999756C32.5 0.447471 32.0523 -0.000244141 31.5 -0.000244141H23.5ZM1.49976 22C2.05204 22 2.49976 22.4477 2.49976 23V30H9.49976C10.052 30 10.4998 30.4477 10.4998 31C10.4998 31.5523 10.052 32 9.49976 32H1.49976C0.947471 32 0.499756 31.5523 0.499756 31V23C0.499756 22.4477 0.947471 22 1.49976 22ZM32.5005 22.9999C32.5005 22.4476 32.0528 21.9999 31.5005 21.9999C30.9482 21.9999 30.5005 22.4476 30.5005 22.9999V29.9999H23.5005C22.9482 29.9999 22.5005 30.4476 22.5005 30.9999C22.5005 31.5522 22.9482 31.9999 23.5005 31.9999H31.5005C32.0528 31.9999 32.5005 31.5522 32.5005 30.9999V22.9999Z" fill="#111827"/>
<path fill-rule="evenodd" clip-rule="evenodd" d="M10.7558 11.6701C11.1463 12.0606 11.7795 12.0606 12.17 11.6701C12.5605 11.2796 12.5605 10.6464 12.17 10.2559L2.20665 0.292528C1.81613 -0.097997 1.18296 -0.0979967 0.79244 0.292528C0.401916 0.683052 0.401915 1.31622 0.79244 1.70674L10.7558 11.6701ZM20.83 10.256C20.4395 10.6465 20.4395 11.2797 20.83 11.6702C21.2205 12.0608 21.8537 12.0608 22.2442 11.6702L32.2076 1.70683C32.5982 1.3163 32.5982 0.68314 32.2076 0.292615C31.8171 -0.097909 31.1839 -0.0979093 30.7934 0.292615L20.83 10.256ZM12.17 20.3295C12.5605 20.72 12.5605 21.3532 12.17 21.7437L2.20662 31.7071C1.81609 32.0976 1.18293 32.0976 0.792405 31.7071C0.401881 31.3166 0.401881 30.6834 0.792405 30.2929L10.7558 20.3295C11.1463 19.939 11.7795 19.939 12.17 20.3295ZM22.2442 20.3294C21.8537 19.9389 21.2205 19.9389 20.83 20.3294C20.4395 20.7199 20.4395 21.3531 20.83 21.7436L30.7934 31.707C31.1839 32.0975 31.8171 32.0975 32.2076 31.707C32.5982 31.3165 32.5982 30.6833 32.2076 30.2928L22.2442 20.3294Z" fill="#111827"/>
</svg>
