<svg width="32" height="32" viewBox="0 0 32 32" fill="none" xmlns="http://www.w3.org/2000/svg">
<path d="M21 12.4645H27V6.46448" stroke="#1C1B1F" stroke-width="2" stroke-linecap="round" stroke-linejoin="round"/>
<path d="M7.20093 8.22183C8.22237 7.20038 9.435 6.39013 10.7696 5.83733C12.1042 5.28452 13.5346 5 14.9791 5C16.4236 5 17.854 5.28452 19.1886 5.83733C20.5232 6.39013 21.7358 7.20038 22.7573 8.22183L26.9999 12.4645" stroke="#1C1B1F" stroke-width="2" stroke-linecap="round" stroke-linejoin="round"/>
<path d="M11 19.5355H5V25.5355" stroke="#1C1B1F" stroke-width="2" stroke-linecap="round" stroke-linejoin="round"/>
<path d="M24.799 23.7782C23.7775 24.7996 22.5649 25.6099 21.2303 26.1627C19.8958 26.7155 18.4654 27 17.0208 27C15.5763 27 14.1459 26.7155 12.8113 26.1627C11.4767 25.6099 10.2641 24.7996 9.24264 23.7782L5 19.5355" stroke="#1C1B1F" stroke-width="2" stroke-linecap="round" stroke-linejoin="round"/>
</svg>
