<svg width="33" height="32" viewBox="0 0 33 32" fill="none" xmlns="http://www.w3.org/2000/svg">
<path fill-rule="evenodd" clip-rule="evenodd" d="M2.49976 16C2.49976 8.26787 8.76787 1.99976 16.5 1.99976C24.2321 1.99976 30.5002 8.26787 30.5002 16C30.5002 23.7321 24.2321 30.0002 16.5 30.0002C8.76787 30.0002 2.49976 23.7321 2.49976 16ZM16.5 -0.000244141C7.6633 -0.000244141 0.499756 7.1633 0.499756 16C0.499756 24.8367 7.6633 32.0002 16.5 32.0002C25.3367 32.0002 32.5002 24.8367 32.5002 16C32.5002 7.1633 25.3367 -0.000244141 16.5 -0.000244141ZM11.3733 10.8732C11.7638 10.4826 12.3969 10.4826 12.7875 10.8732L19.919 18.0047V12.9191C19.919 12.3668 20.3667 11.9191 20.919 11.9191C21.4713 11.9191 21.919 12.3668 21.919 12.9191V20.3949C21.9254 20.6589 21.8279 20.9249 21.6264 21.1263C21.5037 21.2491 21.357 21.3332 21.2014 21.3788C21.1118 21.4051 21.0171 21.4192 20.919 21.4192H13.4189C12.8666 21.4192 12.4189 20.9715 12.4189 20.4192C12.4189 19.867 12.8666 19.4192 13.4189 19.4192H18.5051L11.3733 12.2874C10.9827 11.8968 10.9827 11.2637 11.3733 10.8732Z" fill="#111827"/>
</svg>
