<svg width="33" height="32" viewBox="0 0 33 32" fill="none" xmlns="http://www.w3.org/2000/svg">
<path fill-rule="evenodd" clip-rule="evenodd" d="M24.6213 3C21.1735 3 17.8669 4.36964 15.429 6.80761C12.991 9.24558 11.6213 12.5522 11.6213 16V25.5858L9.08577 23.0503C8.69524 22.6598 8.06208 22.6598 7.67156 23.0503C7.28103 23.4408 7.28103 24.074 7.67156 24.4645L11.9142 28.7071C12.0218 28.8147 12.1477 28.8926 12.2819 28.9409C12.3656 28.9711 12.4545 28.9905 12.5469 28.9973C12.5933 29.0007 12.6399 29.0009 12.6864 28.9979C12.9116 28.9833 13.1328 28.8929 13.3084 28.7266C13.3161 28.7193 13.3236 28.712 13.3311 28.7045L17.571 24.4645C17.9616 24.074 17.9616 23.4408 17.571 23.0503C17.1805 22.6598 16.5474 22.6598 16.1568 23.0503L13.6213 25.5858V16C13.6213 13.0826 14.7803 10.2847 16.8432 8.22183C18.9061 6.15893 21.704 5 24.6213 5C25.1736 5 25.6213 4.55228 25.6213 4C25.6213 3.44772 25.1736 3 24.6213 3Z" fill="#111827"/>
</svg>
