<svg width="33" height="32" viewBox="0 0 33 32" fill="none" xmlns="http://www.w3.org/2000/svg">
<path fill-rule="evenodd" clip-rule="evenodd" d="M22.3402 3.29332C21.9497 2.9028 21.3165 2.9028 20.926 3.29332C20.5355 3.68384 20.5355 4.31701 20.926 4.70753L23.7966 7.57815H6.78931C6.23702 7.57815 5.78931 8.02586 5.78931 8.57815V27.9996C5.78931 28.5518 6.23702 28.9996 6.78931 28.9996C7.34159 28.9996 7.78931 28.5518 7.78931 27.9996V9.57815H23.7965L20.926 12.4487C20.5355 12.8392 20.5355 13.4724 20.926 13.8629C21.3165 14.2534 21.9497 14.2534 22.3402 13.8629L26.9179 9.28521C27.0252 9.17787 27.1031 9.05221 27.1514 8.91829C27.1784 8.84364 27.1968 8.76485 27.2053 8.68314C27.2133 8.60721 27.2126 8.53053 27.2032 8.45472C27.196 8.39618 27.1837 8.33919 27.1668 8.28423C27.1205 8.13302 27.0375 7.99062 26.9179 7.87099L22.3402 3.29332Z" fill="#111827"/>
</svg>
