<svg width="33" height="32" viewBox="0 0 33 32" fill="none" xmlns="http://www.w3.org/2000/svg">
<path fill-rule="evenodd" clip-rule="evenodd" d="M15.8003 4.0011C15.8003 3.44881 15.3526 3.0011 14.8003 3.0011H7.60076C7.469 3.0011 7.34319 3.02658 7.22799 3.07289C7.10622 3.1217 6.99211 3.19542 6.89348 3.29405C6.69349 3.49404 6.59592 3.75766 6.60076 4.01974V11.2006C6.60076 11.7529 7.04847 12.2006 7.60076 12.2006C8.15304 12.2006 8.60076 11.7529 8.60076 11.2006V6.41554L23.6923 21.5071C24.0828 21.8976 24.716 21.8976 25.1065 21.5071C25.497 21.1165 25.497 20.4834 25.1065 20.0929L10.0147 5.0011H14.8003C15.3526 5.0011 15.8003 4.55338 15.8003 4.0011ZM28.9993 27.9989C28.9993 27.4466 28.5516 26.9989 27.9993 26.9989H4.00085C3.44856 26.9989 3.00085 27.4466 3.00085 27.9989C3.00085 28.5512 3.44856 28.9989 4.00085 28.9989H27.9993C28.5516 28.9989 28.9993 28.5512 28.9993 27.9989Z" fill="#111827"/>
</svg>
