<svg width="33" height="32" viewBox="0 0 33 32" fill="none" xmlns="http://www.w3.org/2000/svg">
<path fill-rule="evenodd" clip-rule="evenodd" d="M9.4978 15.9978C9.4978 16.5501 9.05009 16.9978 8.4978 16.9978C7.94552 16.9978 7.4978 16.5501 7.4978 15.9978V7.9978C7.4978 7.72987 7.60317 7.48656 7.77473 7.30703C7.78525 7.29602 7.79602 7.28525 7.80703 7.27473C7.898 7.18774 8.00136 7.12125 8.11127 7.07525C8.23018 7.02536 8.36077 6.9978 8.4978 6.9978H16.4978C17.0501 6.9978 17.4978 7.44552 17.4978 7.9978C17.4978 8.55009 17.0501 8.9978 16.4978 8.9978H10.912L25.2093 23.2951C25.5998 23.6856 25.5998 24.3188 25.2093 24.7093C24.8188 25.0998 24.1856 25.0998 23.7951 24.7093L9.4978 10.412V15.9978Z" fill="#111827"/>
</svg>
