<svg width="33" height="32" viewBox="0 0 33 32" fill="none" xmlns="http://www.w3.org/2000/svg">
<path fill-rule="evenodd" clip-rule="evenodd" d="M16.4999 2.23077C8.89541 2.23077 2.73071 8.39547 2.73071 16C2.73071 23.6045 8.89541 29.7692 16.4999 29.7692C24.1045 29.7692 30.2692 23.6045 30.2692 16C30.2692 8.39547 24.1045 2.23077 16.4999 2.23077ZM0.730713 16C0.730713 7.2909 7.79084 0.230774 16.4999 0.230774C25.2091 0.230774 32.2692 7.2909 32.2692 16C32.2692 24.7091 25.2091 31.7692 16.4999 31.7692C7.79084 31.7692 0.730713 24.7091 0.730713 16ZM12.1564 10.6486C12.1362 10.6484 12.116 10.6489 12.0958 10.65C11.568 10.6773 11.1484 11.1139 11.1484 11.6486V19.0332C11.1484 19.5855 11.5961 20.0332 12.1484 20.0332C12.7007 20.0332 13.1484 19.5855 13.1484 19.0332V14.0625L20.1444 21.0585C20.5349 21.449 21.1681 21.449 21.5586 21.0585C21.9491 20.668 21.9491 20.0348 21.5586 19.6443L14.5629 12.6486H19.533C20.0853 12.6486 20.533 12.2009 20.533 11.6486C20.533 11.0963 20.0853 10.6486 19.533 10.6486H12.1564Z" fill="#111827"/>
</svg>
