<svg width="33" height="32" viewBox="0 0 33 32" fill="none" xmlns="http://www.w3.org/2000/svg">
<path fill-rule="evenodd" clip-rule="evenodd" d="M17.4999 4.00024C17.4999 3.44796 17.0522 3.00024 16.4999 3.00024C15.9477 3.00024 15.4999 3.44796 15.4999 4.00024V21.3855L12.7522 18.6377C12.3617 18.2472 11.7285 18.2472 11.338 18.6377C10.9475 19.0283 10.9475 19.6614 11.338 20.0519L15.7929 24.5068C15.9116 24.6255 16.0527 24.7081 16.2026 24.7546C16.2537 24.7705 16.3066 24.7825 16.3608 24.79C16.6609 24.8319 16.9763 24.7375 17.2071 24.5068L21.6619 20.0519C22.0525 19.6614 22.0525 19.0283 21.6619 18.6377C21.2714 18.2472 20.6382 18.2472 20.2477 18.6377L17.4999 21.3855V4.00024ZM4.99976 27.9997C4.99976 27.4474 5.44747 26.9997 5.99976 26.9997H27.0001C27.5524 26.9997 28.0001 27.4474 28.0001 27.9997C28.0001 28.552 27.5524 28.9997 27.0001 28.9997H5.99976C5.44747 28.9997 4.99976 28.552 4.99976 27.9997Z" fill="#111827"/>
</svg>
