<svg width="33" height="32" viewBox="0 0 33 32" fill="none" xmlns="http://www.w3.org/2000/svg">
<path fill-rule="evenodd" clip-rule="evenodd" d="M29.5 7.87866C29.5 7.32638 29.0523 6.87866 28.5 6.87866C27.9477 6.87866 27.5 7.32638 27.5 7.87866C27.5 10.796 26.3411 13.5939 24.2782 15.6568C22.2153 17.7197 19.4174 18.8787 16.5 18.8787H6.91427L9.44978 16.3432C9.84031 15.9526 9.84031 15.3195 9.44978 14.9289C9.05926 14.5384 8.42609 14.5384 8.03557 14.9289L3.79953 19.165C3.77375 19.1903 3.74934 19.217 3.72642 19.2449C3.67559 19.3068 3.63331 19.3734 3.5996 19.4431C3.53578 19.5747 3.5 19.7225 3.5 19.8787C3.5 20.024 3.531 20.1621 3.58674 20.2866C3.63037 20.3844 3.69046 20.4765 3.76701 20.5589C3.77632 20.5689 3.78583 20.5788 3.79554 20.5884L8.03557 24.8284C8.42609 25.219 9.05926 25.219 9.44978 24.8284C9.84031 24.4379 9.84031 23.8047 9.44978 23.4142L6.91422 20.8787H16.5C19.9478 20.8787 23.2544 19.509 25.6924 17.071C28.1304 14.6331 29.5 11.3265 29.5 7.87866Z" fill="#111827"/>
</svg>
