<svg width="33" height="32" viewBox="0 0 33 32" fill="none" xmlns="http://www.w3.org/2000/svg">
<path fill-rule="evenodd" clip-rule="evenodd" d="M16.3003 27.9989C16.3003 28.5512 15.8526 28.9989 15.3003 28.9989H8.10076C7.969 28.9989 7.84319 28.9734 7.72799 28.9271C7.60622 28.8783 7.49211 28.8046 7.39348 28.7059C7.19349 28.506 7.09592 28.2423 7.10076 27.9803V20.7994C7.10076 20.2471 7.54847 19.7994 8.10076 19.7994C8.65304 19.7994 9.10076 20.2471 9.10076 20.7994V25.5845L24.1923 10.4929C24.5828 10.1024 25.216 10.1024 25.6065 10.4929C25.997 10.8835 25.997 11.5166 25.6065 11.9071L10.5147 26.9989H15.3003C15.8526 26.9989 16.3003 27.4466 16.3003 27.9989ZM29.4993 4.00108C29.4993 4.55336 29.0516 5.00108 28.4993 5.00108H4.50085C3.94856 5.00108 3.50085 4.55336 3.50085 4.00108C3.50085 3.44879 3.94856 3.00108 4.50085 3.00108H28.4993C29.0516 3.00108 29.4993 3.44879 29.4993 4.00108Z" fill="#111827"/>
</svg>
