<svg width="33" height="32" viewBox="0 0 33 32" fill="none" xmlns="http://www.w3.org/2000/svg">
<path fill-rule="evenodd" clip-rule="evenodd" d="M17.4998 4.99948C17.4998 4.4472 17.0521 3.99948 16.4998 3.99948C15.9475 3.99948 15.4998 4.4472 15.4998 4.99948V24.5862L11.3731 20.4595C10.9826 20.069 10.3494 20.069 9.95891 20.4595C9.56838 20.85 9.56838 21.4832 9.95891 21.8737L15.783 27.6978C15.8308 27.747 15.8837 27.7912 15.9407 27.8298C15.9703 27.8497 16.001 27.8682 16.0327 27.885C16.1721 27.9588 16.3311 28.0005 16.4998 28.0005C16.6354 28.0005 16.7647 27.9735 16.8827 27.9246C17.0006 27.8758 17.1111 27.8035 17.207 27.7076L23.0409 21.8737C23.4315 21.4832 23.4315 20.85 23.0409 20.4595C22.6504 20.069 22.0173 20.069 21.6267 20.4595L17.4998 24.5864V4.99948Z" fill="#111827"/>
</svg>
