<svg width="33" height="32" viewBox="0 0 33 32" fill="none" xmlns="http://www.w3.org/2000/svg">
<path fill-rule="evenodd" clip-rule="evenodd" d="M2.49976 16C2.49976 8.26787 8.76787 1.99976 16.5 1.99976C24.2321 1.99976 30.5002 8.26787 30.5002 16C30.5002 23.7321 24.2321 30.0002 16.5 30.0002C8.76787 30.0002 2.49976 23.7321 2.49976 16ZM16.5 -0.000244141C7.6633 -0.000244141 0.499756 7.1633 0.499756 16C0.499756 24.8367 7.6633 32.0002 16.5 32.0002C25.3367 32.0002 32.5002 24.8367 32.5002 16C32.5002 7.1633 25.3367 -0.000244141 16.5 -0.000244141ZM10.4892 15.7602C10.0987 15.3697 10.0987 14.7365 10.4892 14.346L15.7926 9.04258C15.8986 8.93651 16.0226 8.85925 16.1548 8.8108C16.2623 8.77127 16.3785 8.74969 16.4998 8.74969C16.7314 8.74969 16.9447 8.82846 17.1142 8.96068C17.1498 8.98843 17.1834 9.01853 17.2149 9.05076L22.5102 14.346C22.9007 14.7365 22.9007 15.3697 22.5102 15.7602C22.1196 16.1507 21.4865 16.1507 21.0959 15.7602L17.4998 12.164V22.2499C17.4998 22.8022 17.052 23.2499 16.4998 23.2499C15.9475 23.2499 15.4998 22.8022 15.4998 22.2499V12.1638L11.9034 15.7602C11.5129 16.1507 10.8797 16.1507 10.4892 15.7602Z" fill="#111827"/>
</svg>
