<svg width="33" height="32" viewBox="0 0 33 32" fill="none" xmlns="http://www.w3.org/2000/svg">
<path fill-rule="evenodd" clip-rule="evenodd" d="M28.5004 4.09076C29.0527 4.09076 29.5004 4.53847 29.5004 5.09076V26.9092C29.5004 27.4615 29.0527 27.9092 28.5004 27.9092C27.9482 27.9092 27.5004 27.4615 27.5004 26.9092V5.09076C27.5004 4.53847 27.9482 4.09076 28.5004 4.09076ZM18.8005 10.6595C19.191 10.2689 19.8242 10.2689 20.2147 10.6595L24.8312 15.2759C25.0192 15.4577 25.1361 15.7126 25.1361 15.9949C25.1361 16.1605 25.0959 16.3168 25.0246 16.4544C24.9893 16.5224 24.9458 16.5873 24.8939 16.6475C24.8764 16.6678 24.858 16.6874 24.8389 16.7063L20.2147 21.3305C19.8242 21.721 19.191 21.721 18.8005 21.3305C18.41 20.9399 18.41 20.3068 18.8005 19.9163L21.7219 16.9949H4.49951C3.94723 16.9949 3.49951 16.5472 3.49951 15.9949C3.49951 15.4426 3.94723 14.9949 4.49951 14.9949H21.7217L18.8005 12.0737C18.41 11.6832 18.41 11.05 18.8005 10.6595Z" fill="#111827"/>
</svg>
