<svg width="33" height="32" viewBox="0 0 33 32" fill="none" xmlns="http://www.w3.org/2000/svg">
<path fill-rule="evenodd" clip-rule="evenodd" d="M2.49976 16C2.49976 8.26787 8.76787 1.99976 16.5 1.99976C24.2321 1.99976 30.5002 8.26787 30.5002 16C30.5002 23.7321 24.2321 30.0002 16.5 30.0002C8.76787 30.0002 2.49976 23.7321 2.49976 16ZM16.5 -0.000244141C7.6633 -0.000244141 0.499756 7.1633 0.499756 16C0.499756 24.8367 7.6633 32.0002 16.5 32.0002C25.3367 32.0002 32.5002 24.8367 32.5002 16C32.5002 7.1633 25.3367 -0.000244141 16.5 -0.000244141ZM21.6263 10.8732C21.2358 10.4826 20.6026 10.4826 20.2121 10.8732L13.0804 18.0049V12.9191C13.0804 12.3668 12.6327 11.9191 12.0804 11.9191C11.5281 11.9191 11.0804 12.3668 11.0804 12.9191V20.4007C11.0756 20.6628 11.1732 20.9264 11.3731 21.1263C11.4839 21.2371 11.6141 21.3164 11.7528 21.3643C11.8554 21.3999 11.9657 21.4192 12.0804 21.4192H19.5805C20.1328 21.4192 20.5805 20.9715 20.5805 20.4192C20.5805 19.867 20.1328 19.4192 19.5805 19.4192H14.4945L21.6263 12.2874C22.0169 11.8968 22.0169 11.2637 21.6263 10.8732Z" fill="#111827"/>
</svg>
