<svg width="33" height="32" viewBox="0 0 33 32" fill="none" xmlns="http://www.w3.org/2000/svg">
<path fill-rule="evenodd" clip-rule="evenodd" d="M17.4999 4.00024C17.4999 3.44796 17.0522 3.00024 16.4999 3.00024C15.9477 3.00024 15.4999 3.44796 15.4999 4.00024V21.3852L10.8431 16.7284C10.4526 16.3379 9.8194 16.3379 9.42888 16.7284C9.03836 17.1189 9.03836 17.7521 9.42888 18.1426L15.7822 24.4959C15.9639 24.6832 16.2183 24.7996 16.4999 24.7996C16.7813 24.7996 17.0356 24.6834 17.2173 24.4963L23.571 18.1426C23.9615 17.7521 23.9615 17.1189 23.571 16.7284C23.1805 16.3379 22.5473 16.3379 22.1568 16.7284L17.4999 21.3852V4.00024ZM4.99976 27.9997C4.99976 27.4474 5.44747 26.9997 5.99976 26.9997H27.0001C27.5524 26.9997 28.0001 27.4474 28.0001 27.9997C28.0001 28.552 27.5524 28.9997 27.0001 28.9997H5.99976C5.44747 28.9997 4.99976 28.552 4.99976 27.9997Z" fill="#111827"/>
</svg>
