<svg width="33" height="32" viewBox="0 0 33 32" fill="none" xmlns="http://www.w3.org/2000/svg">
<path fill-rule="evenodd" clip-rule="evenodd" d="M11.499 12.0209C11.4932 11.7577 11.5908 11.4925 11.7917 11.2916C11.9132 11.1701 12.0582 11.0864 12.2121 11.0405C12.303 11.0133 12.3993 10.9987 12.499 10.9987H18.499C19.0513 10.9987 19.499 11.4465 19.499 11.9987C19.499 12.551 19.0513 12.9987 18.499 12.9987H14.913L21.2084 19.2942C21.5989 19.6847 21.5989 20.3179 21.2084 20.7084C20.8179 21.0989 20.1847 21.0989 19.7942 20.7084L13.499 14.4132V17.9987C13.499 18.551 13.0513 18.9987 12.499 18.9987C11.9467 18.9987 11.499 18.551 11.499 17.9987V12.0209Z" fill="#111827"/>
</svg>
