<svg width="33" height="32" viewBox="0 0 33 32" fill="none" xmlns="http://www.w3.org/2000/svg">
<path fill-rule="evenodd" clip-rule="evenodd" d="M11.5 5.87866C9.37827 5.87866 7.34344 6.72152 5.84315 8.22181C4.34285 9.7221 3.5 11.7569 3.5 13.8787V13.8787C3.5 14.9292 3.70693 15.9695 4.10896 16.9401C4.511 17.9107 5.10027 18.7927 5.84314 19.5355C6.58601 20.2784 7.46792 20.8677 8.43852 21.2697C9.40913 21.6717 10.4494 21.8787 11.5 21.8787H26.0858L23.5502 24.4142C23.1597 24.8047 23.1597 25.4379 23.5502 25.8284C23.9407 26.219 24.5739 26.219 24.9644 25.8284L29.2045 21.5884C29.2142 21.5788 29.2237 21.5689 29.233 21.5589C29.3094 21.4767 29.3694 21.3848 29.413 21.2873C29.4689 21.1625 29.5 21.0242 29.5 20.8787C29.5 20.7225 29.4642 20.5747 29.4004 20.4431C29.3667 20.3734 29.3244 20.3068 29.2736 20.2449C29.2507 20.217 29.2262 20.1903 29.2005 20.165L24.9644 15.9289C24.5739 15.5384 23.9407 15.5384 23.5502 15.9289C23.1597 16.3195 23.1597 16.9526 23.5502 17.3432L26.0857 19.8787H11.5C10.7121 19.8787 9.93184 19.7235 9.20389 19.4219C8.47594 19.1204 7.8145 18.6785 7.25735 18.1213C6.7002 17.5642 6.25825 16.9027 5.95672 16.1748C5.65519 15.4468 5.5 14.6666 5.5 13.8787V13.8787C5.5 12.2874 6.13214 10.7612 7.25736 9.63602C8.38258 8.5108 9.9087 7.87866 11.5 7.87866H22.5C23.0523 7.87866 23.5 7.43095 23.5 6.87866C23.5 6.32638 23.0523 5.87866 22.5 5.87866H11.5Z" fill="#111827"/>
</svg>
