<svg width="33" height="32" viewBox="0 0 33 32" fill="none" xmlns="http://www.w3.org/2000/svg">
<path fill-rule="evenodd" clip-rule="evenodd" d="M15.0334 20.9498C15.4239 21.3403 16.0571 21.3403 16.4476 20.9498C16.8381 20.5592 16.8381 19.9261 16.4476 19.5356L13.9123 17.0002L21.502 17.0002C22.0543 17.0002 22.502 16.5525 22.502 16.0002C22.502 15.4479 22.0543 15.0002 21.502 15.0002L13.9118 15.0002L16.4476 12.4645C16.8381 12.074 16.8381 11.4408 16.4476 11.0503C16.0571 10.6598 15.4239 10.6598 15.0334 11.0503L10.7907 15.2929C10.6826 15.4011 10.6044 15.5278 10.5562 15.6628C10.5184 15.7682 10.4978 15.8818 10.4978 16.0002C10.4978 16.2831 10.6152 16.5385 10.804 16.7204L15.0334 20.9498Z" fill="#111827"/>
</svg>
