<svg width="33" height="32" viewBox="0 0 33 32" fill="none" xmlns="http://www.w3.org/2000/svg">
<path fill-rule="evenodd" clip-rule="evenodd" d="M27.2071 25.2929C27.5976 25.6834 27.5976 26.3166 27.2071 26.7071C26.8166 27.0976 26.1834 27.0976 25.7929 26.7071L7.5 8.41421V13.5C7.5 14.0523 7.05228 14.5 6.5 14.5C5.94772 14.5 5.5 14.0523 5.5 13.5V6C5.5 5.86441 5.52699 5.73512 5.57588 5.61722C5.62357 5.50195 5.69374 5.3938 5.7864 5.29945C5.79071 5.29506 5.79506 5.29071 5.79945 5.2864C5.99387 5.09546 6.24693 5 6.5 5H14C14.5523 5 15 5.44772 15 6C15 6.55228 14.5523 7 14 7H8.91421L27.2071 25.2929Z" fill="#111827"/>
</svg>
