<svg width="33" height="32" viewBox="0 0 33 32" fill="none" xmlns="http://www.w3.org/2000/svg">
<path fill-rule="evenodd" clip-rule="evenodd" d="M20.7892 11.0409C20.9427 11.0869 21.0872 11.1705 21.2084 11.2917C21.4093 11.4926 21.5069 11.7577 21.5011 12.021V17.9988C21.5011 18.5511 21.0534 18.9988 20.5011 18.9988C19.9488 18.9988 19.5011 18.5511 19.5011 17.9988V14.4132L13.2059 20.7084C12.8154 21.0989 12.1822 21.0989 11.7917 20.7084C11.4011 20.3179 11.4011 19.6847 11.7917 19.2942L18.0871 12.9988H14.5011C13.9488 12.9988 13.5011 12.5511 13.5011 11.9988C13.5011 11.4465 13.9488 10.9988 14.5011 10.9988H20.5011C20.5139 10.9988 20.5268 10.999 20.5397 10.9995C20.6261 11.0028 20.7098 11.0171 20.7892 11.0409Z" fill="#111827"/>
</svg>
