<svg width="33" height="32" viewBox="0 0 33 32" fill="none" xmlns="http://www.w3.org/2000/svg">
<path fill-rule="evenodd" clip-rule="evenodd" d="M16.1997 27.9989C16.1997 28.5512 16.6474 28.9989 17.1997 28.9989H24.3992C24.531 28.9989 24.6568 28.9734 24.772 28.9271C24.8938 28.8783 25.0079 28.8046 25.1065 28.7059C25.3065 28.506 25.4041 28.2423 25.3992 27.9803V20.7994C25.3992 20.2471 24.9515 19.7994 24.3992 19.7994C23.847 19.7994 23.3992 20.2471 23.3992 20.7994V25.5845L8.30772 10.4929C7.91719 10.1024 7.28403 10.1024 6.8935 10.4929C6.50298 10.8835 6.50298 11.5166 6.8935 11.9071L21.9853 26.9989H17.1997C16.6474 26.9989 16.1997 27.4466 16.1997 27.9989ZM3.00073 4.00108C3.00073 4.55336 3.44845 5.00108 4.00073 5.00108H27.9992C28.5514 5.00108 28.9992 4.55336 28.9992 4.00108C28.9992 3.44879 28.5514 3.00108 27.9992 3.00108H4.00073C3.44845 3.00108 3.00073 3.44879 3.00073 4.00108Z" fill="#111827"/>
</svg>
