<svg width="33" height="32" viewBox="0 0 33 32" fill="none" xmlns="http://www.w3.org/2000/svg">
<path fill-rule="evenodd" clip-rule="evenodd" d="M22.3738 9.45903C21.9833 9.06851 21.3501 9.06851 20.9596 9.45903C20.569 9.84956 20.569 10.4827 20.9596 10.8732L25.0806 14.9943H5.49951C4.94723 14.9943 4.49951 15.442 4.49951 15.9943C4.49951 16.5466 4.94723 16.9943 5.49951 16.9943H25.092L20.9596 21.1267C20.569 21.5173 20.569 22.1504 20.9596 22.5409C21.3501 22.9315 21.9833 22.9315 22.3738 22.5409L28.2076 16.7071C28.4115 16.5032 28.5089 16.2332 28.4999 15.9661C28.4917 15.6694 28.3543 15.405 28.142 15.2272L22.3738 9.45903Z" fill="#111827"/>
</svg>
