<svg width="33" height="32" viewBox="0 0 33 32" fill="none" xmlns="http://www.w3.org/2000/svg">
<path fill-rule="evenodd" clip-rule="evenodd" d="M17.4998 4C17.4998 3.44772 17.052 3 16.4998 3C15.9475 3 15.4998 3.44772 15.4998 4V25.5856L10.8431 20.9289C10.4526 20.5384 9.8194 20.5384 9.42888 20.9289C9.03836 21.3194 9.03836 21.9526 9.42888 22.3431L15.7804 28.6946C15.9622 28.8829 16.2173 29 16.4998 29C16.616 29 16.7276 28.9802 16.8314 28.9437C16.9686 28.8956 17.0974 28.8167 17.2071 28.7071L23.571 22.3431C23.9615 21.9526 23.9615 21.3194 23.571 20.9289C23.1805 20.5384 22.5473 20.5384 22.1568 20.9289L17.4998 25.586V4Z" fill="#111827"/>
</svg>
