<svg width="33" height="32" viewBox="0 0 33 32" fill="none" xmlns="http://www.w3.org/2000/svg">
<path fill-rule="evenodd" clip-rule="evenodd" d="M5.79289 25.2929C5.40237 25.6834 5.40237 26.3166 5.79289 26.7071C6.18342 27.0976 6.81658 27.0976 7.20711 26.7071L25.5 8.41421V13.5C25.5 14.0523 25.9477 14.5 26.5 14.5C27.0523 14.5 27.5 14.0523 27.5 13.5V6C27.5 5.86441 27.473 5.73512 27.4241 5.61722C27.3764 5.50195 27.3063 5.3938 27.2136 5.29945C27.2093 5.29506 27.2049 5.29071 27.2005 5.2864C27.0061 5.09546 26.7531 5 26.5 5H19C18.4477 5 18 5.44772 18 6C18 6.55228 18.4477 7 19 7H24.0858L5.79289 25.2929Z" fill="#111827"/>
</svg>
