<svg width="33" height="32" viewBox="0 0 33 32" fill="none" xmlns="http://www.w3.org/2000/svg">
<path fill-rule="evenodd" clip-rule="evenodd" d="M16.8543 4.06411C16.7442 4.02232 16.6247 3.99945 16.4998 3.99945C16.3394 3.99945 16.1877 4.03725 16.0533 4.10442C15.9983 4.13187 15.9453 4.16471 15.8951 4.20293C15.8557 4.23288 15.8186 4.26569 15.7841 4.30104L9.95891 10.1263C9.56838 10.5168 9.56838 11.15 9.95891 11.5405C10.3494 11.931 10.9826 11.931 11.3731 11.5405L15.4998 7.41377V27.0005C15.4998 27.5528 15.9475 28.0005 16.4998 28.0005C17.0521 28.0005 17.4998 27.5528 17.4998 27.0005V7.41358L21.6267 11.5405C22.0173 11.931 22.6504 11.931 23.0409 11.5405C23.4315 11.15 23.4315 10.5168 23.0409 10.1263L17.207 4.29235C17.1035 4.18883 16.9829 4.11275 16.8543 4.06411Z" fill="#111827"/>
</svg>
