<svg width="33" height="32" viewBox="0 0 33 32" fill="none" xmlns="http://www.w3.org/2000/svg">
<path fill-rule="evenodd" clip-rule="evenodd" d="M27.2108 4.00043C27.2108 3.44814 26.763 3.00043 26.2108 3.00043C25.6585 3.00043 25.2108 3.44814 25.2108 4.00043V22.4219H9.20357L12.0741 19.5513C12.4646 19.1608 12.4646 18.5277 12.0741 18.1371C11.6836 17.7466 11.0504 17.7466 10.6599 18.1371L6.08688 22.7101C6.07162 22.7252 6.05685 22.7407 6.04258 22.7567C5.96687 22.8416 5.90813 22.9362 5.86636 23.0363C5.82268 23.1407 5.79621 23.2542 5.79049 23.3731C5.78876 23.4088 5.78893 23.4446 5.791 23.4803C5.79677 23.5804 5.81728 23.6766 5.85039 23.7668C5.89884 23.8989 5.97611 24.0229 6.0822 24.129L10.6599 28.7067C11.0504 29.0972 11.6836 29.0972 12.0741 28.7067C12.4646 28.3162 12.4646 27.683 12.0741 27.2925L9.20347 24.4219H26.2108C26.763 24.4219 27.2108 23.9742 27.2108 23.4219V4.00043Z" fill="#111827"/>
</svg>
