<svg width="33" height="32" viewBox="0 0 33 32" fill="none" xmlns="http://www.w3.org/2000/svg">
<path fill-rule="evenodd" clip-rule="evenodd" d="M9.51573 3.42925C9.91091 3.81507 9.91091 4.4406 9.51573 4.82642L6.96634 7.31541H28.489C29.0413 7.31541 29.489 7.76313 29.489 8.31541C29.489 8.8677 29.0413 9.31541 28.489 9.31541H6.96618L9.51573 11.8046C9.91091 12.1904 9.91091 12.8159 9.51573 13.2017C9.12056 13.5875 8.47985 13.5875 8.08467 13.2017L3.82861 9.04649C3.81768 9.03628 3.80697 9.02583 3.79651 9.01515L3.79541 9.01407C3.40096 8.62897 3.40023 8.00505 3.7932 7.61907C3.80578 7.60611 3.8187 7.59349 3.83195 7.58123L8.08467 3.42925C8.47985 3.04344 9.12056 3.04344 9.51573 3.42925ZM4.51091 22.6844C3.95863 22.6844 3.51091 23.1321 3.51091 23.6844C3.51091 24.2367 3.95863 24.6844 4.51091 24.6844H26.0337L23.4842 27.1736C23.089 27.5594 23.089 28.1849 23.4842 28.5707C23.8793 28.9565 24.52 28.9565 24.9152 28.5707L29.1713 24.4155C29.1822 24.4053 29.1929 24.3948 29.2034 24.3842L29.2045 24.3831C29.5989 23.998 29.5997 23.3741 29.2067 22.9881C29.1941 22.9751 29.1812 22.9625 29.1679 22.9502L24.9152 18.7983C24.52 18.4124 23.8793 18.4124 23.4842 18.7983C23.089 19.1841 23.089 19.8096 23.4842 20.1954L26.0336 22.6844H4.51091Z" fill="#111827"/>
</svg>
