<svg width="33" height="33" viewBox="0 0 33 33" fill="none" xmlns="http://www.w3.org/2000/svg">
<path fill-rule="evenodd" clip-rule="evenodd" d="M2.50085 8.80089C2.50085 7.66796 3.41927 6.74953 4.55221 6.74951H4.55224C4.71252 6.74952 4.9535 6.79439 5.20891 6.88742C5.47168 6.98312 5.644 7.091 5.70414 7.14424C5.70276 7.14302 5.70302 7.14327 5.70517 7.14535C5.71052 7.1505 5.72754 7.1669 5.76039 7.20019C5.80115 7.2415 5.85444 7.29672 5.91978 7.36542C6.05017 7.50253 6.21973 7.68406 6.41657 7.89675C6.52785 8.01699 6.6472 8.14648 6.77224 8.28257C5.99834 8.48153 5.25568 8.79872 4.57151 9.22633C4.06646 9.54199 3.60154 9.91267 3.18437 10.3299C2.76402 9.95359 2.50085 9.40745 2.50085 8.80089ZM1.96116 11.9153C1.06977 11.1729 0.500854 10.0539 0.500854 8.80089C0.500854 6.56338 2.31472 4.74951 4.55224 4.74951H4.55226C5.01167 4.74952 5.49022 4.86136 5.89334 5.00817C6.2891 5.15231 6.71431 5.36741 7.02983 5.64673C7.16892 5.76986 7.51046 6.13422 7.88441 6.53828C8.28344 6.96943 8.78178 7.51469 9.27355 8.05523C10.2296 9.10608 11.1666 10.1455 11.3143 10.3094L11.4158 10.4093C11.7659 10.6871 12.207 10.8523 12.6893 10.8523C13.8222 10.8523 14.7406 9.93384 14.7406 8.80089C14.7406 7.66795 13.8222 6.74951 12.6893 6.74951C12.137 6.74951 11.6893 6.3018 11.6893 5.74951C11.6893 5.19723 12.137 4.74951 12.6893 4.74951C14.9268 4.74951 16.7406 6.56338 16.7406 8.80089C16.7406 11.0384 14.9268 12.8523 12.6893 12.8523C11.7114 12.8523 10.8122 12.5046 10.1122 11.9271L10.0784 11.8992L10.0472 11.8685L9.90067 11.7243C9.88133 11.7052 9.86121 11.6845 9.83932 11.6602C9.75699 11.5688 9.12859 10.8716 8.3799 10.046C7.40667 10.1032 6.46132 10.4037 5.63152 10.9223C4.70496 11.5014 3.95975 12.3292 3.48086 13.3114C3.00197 14.2935 2.80867 15.3904 2.92299 16.4771C3.03731 17.5637 3.45465 18.5964 4.12744 19.4574C4.80023 20.3183 5.70139 20.9729 6.72819 21.3465C7.05001 21.4636 7.38012 21.5517 7.71461 21.6103L7.7213 15.0795C7.72187 14.5272 8.17005 14.08 8.72233 14.0806C9.27461 14.0811 9.72187 14.5293 9.7213 15.0816L9.71461 21.6129C9.78819 21.6002 9.86162 21.5861 9.93485 21.5705C11.0036 21.3432 11.987 20.8202 12.7729 20.0611C13.5589 19.302 14.1157 18.3374 14.3799 17.2772C14.5135 16.7413 15.0562 16.4151 15.5921 16.5487C16.128 16.6823 16.4541 17.225 16.3206 17.7608C15.9657 19.1847 15.2179 20.4802 14.1624 21.4997C13.1069 22.5191 11.7862 23.2215 10.3509 23.5267C8.91552 23.832 7.4233 23.7277 6.04432 23.226C4.66534 22.7242 3.45509 21.8451 2.55154 20.6888C1.64799 19.5326 1.0875 18.1457 0.933965 16.6863C0.780434 15.2269 1.04004 13.7538 1.68319 12.4348C1.76949 12.2578 1.86224 12.0845 1.96116 11.9153ZM19.1151 13.5897C19.1151 13.0374 19.5628 12.5897 20.1151 12.5897H31.4989C32.0512 12.5897 32.4989 13.0374 32.4989 13.5897C32.4989 14.142 32.0512 14.5897 31.4989 14.5897H20.1151C19.5628 14.5897 19.1151 14.142 19.1151 13.5897ZM19.1151 18.1432C19.1151 17.5909 19.5628 17.1432 20.1151 17.1432H31.4989C32.0512 17.1432 32.4989 17.5909 32.4989 18.1432C32.4989 18.6955 32.0512 19.1432 31.4989 19.1432H20.1151C19.5628 19.1432 19.1151 18.6955 19.1151 18.1432ZM20.1151 21.6967C19.5628 21.6967 19.1151 22.1444 19.1151 22.6967C19.1151 23.2489 19.5628 23.6967 20.1151 23.6967H31.4989C32.0512 23.6967 32.4989 23.2489 32.4989 22.6967C32.4989 22.1444 32.0512 21.6967 31.4989 21.6967H20.1151ZM6.59298 27.2501C6.59298 26.6979 7.04069 26.2501 7.59298 26.2501H31.499C32.0513 26.2501 32.499 26.6979 32.499 27.2501C32.499 27.8024 32.0513 28.2501 31.499 28.2501H7.59298C7.04069 28.2501 6.59298 27.8024 6.59298 27.2501Z" fill="#111827"/>
</svg>
