<svg width="33" height="33" viewBox="0 0 33 33" fill="none" xmlns="http://www.w3.org/2000/svg">
<path fill-rule="evenodd" clip-rule="evenodd" d="M2.77345 7.50057H1.50085C0.94857 7.50057 0.500854 7.05286 0.500854 6.50057C0.500854 5.94829 0.94857 5.50057 1.50085 5.50057H3.72294C3.73087 5.50057 3.73877 5.50067 3.74665 5.50085C4.09551 5.49147 4.43196 5.66584 4.62266 5.97252L9.2386 13.3959L13.9436 5.96559C14.1348 5.66371 14.4677 5.49242 14.8127 5.50078C14.8196 5.50064 14.8265 5.50057 14.8334 5.50057H17.0555C17.6078 5.50057 18.0555 5.94829 18.0555 6.50057C18.0555 7.05286 17.6078 7.50057 17.0555 7.50057H15.7885V16.6111H16.4999C17.0522 16.6111 17.4999 17.0588 17.4999 17.6111C17.4999 18.1634 17.0522 18.6111 16.4999 18.6111H13.1668C12.6145 18.6111 12.1668 18.1634 12.1668 17.6111C12.1668 17.0588 12.6145 16.6111 13.1668 16.6111H13.7885V9.94902L10.0758 15.8123C9.89164 16.1031 9.57095 16.2787 9.2268 16.2773C8.88265 16.2759 8.56341 16.0976 8.38168 15.8054L4.77345 10.0026V16.6111H5.38955C5.94183 16.6111 6.38955 17.0588 6.38955 17.6111C6.38955 18.1634 5.94183 18.6111 5.38955 18.6111H2.05642C1.50413 18.6111 1.05642 18.1634 1.05642 17.6111C1.05642 17.0588 1.50413 16.6111 2.05642 16.6111H2.77345V7.50057ZM20.4997 13.1668C20.4997 12.6146 20.9474 12.1668 21.4997 12.1668H31.499C32.0513 12.1668 32.499 12.6146 32.499 13.1668C32.499 13.7191 32.0513 14.1668 31.499 14.1668H21.4997C20.9474 14.1668 20.4997 13.7191 20.4997 13.1668ZM21.4997 16.6111C20.9474 16.6111 20.4997 17.0588 20.4997 17.6111C20.4997 18.1634 20.9474 18.6111 21.4997 18.6111H31.499C32.0513 18.6111 32.499 18.1634 32.499 17.6111C32.499 17.0588 32.0513 16.6111 31.499 16.6111H21.4997ZM7.16712 22.0551C7.16712 21.5028 7.61483 21.0551 8.16712 21.0551H31.499C32.0513 21.0551 32.499 21.5028 32.499 22.0551C32.499 22.6074 32.0513 23.0551 31.499 23.0551H8.16712C7.61483 23.0551 7.16712 22.6074 7.16712 22.0551ZM8.16712 25.4996C7.61483 25.4996 7.16712 25.9473 7.16712 26.4996C7.16712 27.0519 7.61483 27.4996 8.16712 27.4996H31.499C32.0513 27.4996 32.499 27.0519 32.499 26.4996C32.499 25.9473 32.0513 25.4996 31.499 25.4996H8.16712Z" fill="#111827"/>
</svg>
