<svg width="32" height="33" viewBox="0 0 32 33" fill="none" xmlns="http://www.w3.org/2000/svg">
<path d="M18.8923 14.1719H28" stroke="#1C1B1F" stroke-width="2" stroke-linecap="round" stroke-linejoin="round"/>
<path d="M18.8923 17.8149H28" stroke="#1C1B1F" stroke-width="2" stroke-linecap="round" stroke-linejoin="round"/>
<path d="M18.8923 21.4578H28" stroke="#1C1B1F" stroke-width="2" stroke-linecap="round" stroke-linejoin="round"/>
<path d="M8.87402 25.1008H28" stroke="#1C1B1F" stroke-width="2" stroke-linecap="round" stroke-linejoin="round"/>
<path d="M15.0802 17.3157C14.8325 18.3094 14.3107 19.2135 13.574 19.9249C12.8374 20.6364 11.9157 21.1266 10.914 21.3396C9.91234 21.5526 8.87094 21.4799 7.90857 21.1297C6.9462 20.7795 6.10158 20.166 5.47101 19.3591C4.84044 18.5521 4.44928 17.5842 4.34213 16.5658C4.23498 15.5473 4.41616 14.5192 4.865 13.5987C5.31384 12.6782 6.01229 11.9023 6.88072 11.3595C7.74915 10.8168 8.75261 10.5289 9.77671 10.5288" stroke="#1C1B1F" stroke-width="2" stroke-linecap="round" stroke-linejoin="round"/>
<path d="M9.77674 15.3645L9.77051 21.4454" stroke="#1C1B1F" stroke-width="2" stroke-linecap="round" stroke-linejoin="round"/>
<path d="M12.9513 7.89917C14.2995 7.89917 15.3925 8.99216 15.3925 10.3404C15.3925 11.6887 14.2995 12.7817 12.9513 12.7817C12.3615 12.7817 11.8206 12.5726 11.3987 12.2244L11.2836 12.1112C11.2765 12.1042 11.2699 12.0973 11.2632 12.0899C11.0743 11.8803 8.18387 8.67335 7.89315 8.41598C7.59259 8.14991 6.93704 7.89918 6.44126 7.89917C5.09299 7.89917 4 8.99216 4 10.3404C4 11.2988 4.55224 12.1282 5.35587 12.5277" stroke="#1C1B1F" stroke-width="2" stroke-linecap="round"/>
</svg>
