<svg width="33" height="33" viewBox="0 0 33 33" fill="none" xmlns="http://www.w3.org/2000/svg">
<path fill-rule="evenodd" clip-rule="evenodd" d="M1.50085 3.00073C0.94857 3.00073 0.500854 3.44845 0.500854 4.00073V28.9992C0.500854 29.5515 0.94857 29.9992 1.50085 29.9992H31.499C32.0513 29.9992 32.499 29.5515 32.499 28.9992V4.00073C32.499 3.44845 32.0513 3.00073 31.499 3.00073H1.50085ZM2.50085 27.9992V5.00073H30.499V27.9992H2.50085ZM8.37555 10.5003C7.82327 10.5003 7.37555 10.948 7.37555 11.5003C7.37555 12.0526 7.82327 12.5003 8.37555 12.5003H24.6246C25.1768 12.5003 25.6246 12.0526 25.6246 11.5003C25.6246 10.948 25.1768 10.5003 24.6246 10.5003H8.37555ZM8.37555 15.5C7.82327 15.5 7.37555 15.9477 7.37555 16.5C7.37555 17.0522 7.82327 17.5 8.37555 17.5H24.6246C25.1768 17.5 25.6246 17.0522 25.6246 16.5C25.6246 15.9477 25.1768 15.5 24.6246 15.5H8.37555ZM7.37555 21.4996C7.37555 20.9474 7.82327 20.4996 8.37555 20.4996H24.6246C25.1768 20.4996 25.6246 20.9474 25.6246 21.4996C25.6246 22.0519 25.1768 22.4996 24.6246 22.4996H8.37555C7.82327 22.4996 7.37555 22.0519 7.37555 21.4996Z" fill="#111827"/>
</svg>
