<svg width="33" height="32" viewBox="0 0 33 32" fill="none" xmlns="http://www.w3.org/2000/svg">
<path fill-rule="evenodd" clip-rule="evenodd" d="M16.4999 2.63245C17.0522 2.63245 17.4999 3.08016 17.4999 3.63245V15.9286L29.1953 12.1279C29.7206 11.9572 30.2847 12.2446 30.4554 12.7699C30.6261 13.2951 30.3387 13.8593 29.8135 14.03L18.1174 17.8309L25.3417 27.7799C25.6662 28.2268 25.5669 28.8521 25.12 29.1766C24.6732 29.5012 24.0478 29.4019 23.7233 28.955L16.4999 19.0071L9.27648 28.9551C8.95198 29.402 8.32664 29.5012 7.87974 29.1767C7.43284 28.8522 7.33362 28.2268 7.65813 27.7799L14.8824 17.8308L3.18633 14.03C2.66108 13.8593 2.37366 13.2951 2.54434 12.7699C2.71503 12.2446 3.2792 11.9572 3.80445 12.1279L15.4999 15.9286V3.63245C15.4999 3.08016 15.9476 2.63245 16.4999 2.63245Z" fill="#111827"/>
</svg>
