<svg width="32" height="32" viewBox="0 0 32 32" fill="none" xmlns="http://www.w3.org/2000/svg">
<path fill-rule="evenodd" clip-rule="evenodd" d="M19.5876 4.60135C19.7857 4.84471 19.8866 5.17308 20.0886 5.82983L24.5006 20.1771C22.8694 19.3394 21.096 18.7352 19.2258 18.4092L16.3531 8.79962C16.3061 8.64238 16.1602 8.53452 15.9946 8.53452C15.8285 8.53452 15.6823 8.64295 15.6357 8.80073L12.7978 18.4044C10.9189 18.7289 9.13751 19.3341 7.49927 20.1749L11.933 5.8265C12.1355 5.17088 12.2369 4.84308 12.4349 4.60017C12.6097 4.38573 12.8371 4.21919 13.0954 4.11641C13.388 4 13.7343 4 14.4269 4H17.5936C18.2871 4 18.6339 4 18.9268 4.11666C19.1853 4.22028 19.4128 4.38652 19.5876 4.60135Z" stroke="#1C1B1F" stroke-width="2"/>
<path d="M16.754 25.407C16.4343 25.7782 16.2345 26.2386 16.2105 26.8463C15.894 26.4535 15.7057 25.9565 15.7057 25.4176L15.7057 25.3498C15.7057 25.3498 15.7057 25.3498 15.7057 25.3497C15.7057 25.3497 15.7057 25.3497 15.7057 25.3496C15.7058 25.3364 15.7058 25.3228 15.7058 25.309C15.7066 24.9547 15.7076 24.4412 15.533 24.0157C15.4351 23.7775 15.2755 23.5458 15.0197 23.3785C14.7658 23.2124 14.4592 23.1372 14.1135 23.1372C13.5856 23.1372 13.1128 23.3835 12.8088 23.7685C12.6107 23.4185 12.493 23.0573 12.4239 22.7363C12.3672 22.4728 12.345 22.2434 12.3369 22.0817C12.3329 22.0012 12.3325 21.9382 12.3329 21.8971C12.3331 21.8766 12.3336 21.8616 12.3339 21.8527L12.3343 21.8439C12.3343 21.8437 12.3343 21.8435 12.3343 21.8434C12.3343 21.8431 12.3343 21.8431 12.3343 21.8431L12.3351 21.8295V21.8141C12.3351 21.7034 12.3391 21.5748 12.3493 21.4374C12.6518 21.6418 13.0069 21.81 13.3835 21.9439C14.1891 22.2304 15.1901 22.3954 16.264 22.3954C17.6038 22.3954 18.8635 22.1371 19.7611 21.6816C19.7633 21.7255 19.7644 21.7697 19.7644 21.8141C19.7644 22.269 19.6485 22.6957 19.4444 23.0687C19.0471 23.7947 18.4767 24.1604 17.8657 24.5439L17.8657 24.5439C17.8558 24.5502 17.8459 24.5564 17.8359 24.5626C17.4753 24.789 17.064 25.047 16.754 25.407Z" fill="#1C1B1F" stroke="#1C1B1F"/>
</svg>
