<svg width="33" height="32" viewBox="0 0 33 32" fill="none" xmlns="http://www.w3.org/2000/svg">
<g clip-path="url(#clip0_6_1470)">
<path fill-rule="evenodd" clip-rule="evenodd" d="M21.0022 1.75464C21.2507 2.06003 21.3774 2.4721 21.6309 3.29625L27.1675 21.3006C25.1205 20.2494 22.8951 19.4912 20.5482 19.0822L16.9432 7.02304C16.8842 6.82572 16.7012 6.69036 16.4933 6.69036C16.2849 6.69036 16.1015 6.82643 16.043 7.02443L12.4817 19.0761C10.1239 19.4833 7.88835 20.2428 5.83252 21.2978L11.3964 3.29207C11.6506 2.46934 11.7777 2.05798 12.0262 1.75315C12.2456 1.48405 12.531 1.27506 12.8551 1.14609C13.2223 1 13.6568 1 14.526 1H18.4999C19.3702 1 19.8054 1 20.1729 1.14639C20.4973 1.27642 20.7828 1.48504 21.0022 1.75464Z" stroke="#111827" stroke-width="2"/>
<path fill-rule="evenodd" clip-rule="evenodd" d="M21.6646 22.0398C20.7518 22.8123 18.93 23.3392 16.8316 23.3392C14.256 23.3392 12.0973 22.5455 11.5244 21.478C11.3197 22.0898 11.2737 22.79 11.2737 23.2373C11.2737 23.2373 11.1388 25.4337 12.682 26.9612C12.682 26.168 13.3316 25.5251 14.1329 25.5251C15.5063 25.5251 15.5047 26.7111 15.5035 27.6734C15.5035 27.7023 15.5034 27.7309 15.5034 27.7592C15.5034 29.2199 16.4052 30.472 17.6878 30.9999C17.4962 30.6099 17.3888 30.1718 17.3888 29.7091C17.3888 28.316 18.2149 27.7972 19.1751 27.1943C19.9392 26.7147 20.788 26.1819 21.373 25.1128C21.6782 24.555 21.8516 23.9162 21.8516 23.2373C21.8516 22.8198 21.786 22.4174 21.6646 22.0398Z" stroke="#111827" stroke-width="2"/>
</g>
<defs>
<clipPath id="clip0_6_1470">
<rect width="32" height="32" fill="white" transform="translate(0.5)"/>
</clipPath>
</defs>
</svg>
