<svg width="32" height="32" viewBox="0 0 32 32" fill="none" xmlns="http://www.w3.org/2000/svg">
<path d="M16.001 20.999C18.7624 20.999 21.001 18.7604 21.001 15.999C21.001 13.2375 18.7624 10.999 16.001 10.999C13.2396 10.999 11.001 13.2375 11.001 15.999C11.001 18.7604 13.2396 20.999 16.001 20.999Z" stroke="#1C1B1F" stroke-width="2" stroke-linecap="round" stroke-linejoin="round"/>
<path d="M22.6363 25.9992C20.4084 27.4778 17.7506 28.17 15.0846 27.966C12.4186 27.7621 9.89703 26.6736 7.92004 24.8734C5.94305 23.0732 4.62386 20.6643 4.1718 18.029C3.71975 15.3937 4.1607 12.6828 5.42471 10.3267C6.68872 7.97049 8.70339 6.10391 11.149 5.02311C13.5947 3.9423 16.3312 3.70918 18.9244 4.36072C21.5176 5.01227 23.819 6.51116 25.4633 8.61958C27.1077 10.728 28.0008 13.3252 28.0011 15.999C28.0011 18.7604 27.0011 20.999 24.5011 20.999C22.0011 20.999 21.0011 18.7604 21.0011 15.999V10.999" stroke="#1C1B1F" stroke-width="2" stroke-linecap="round" stroke-linejoin="round"/>
</svg>
