<svg width="33" height="32" viewBox="0 0 33 32" fill="none" xmlns="http://www.w3.org/2000/svg">
<path d="M16.5012 22.2482C19.9527 22.2482 22.7506 19.4502 22.7506 15.9987C22.7506 12.5473 19.9527 9.74927 16.5012 9.74927C13.0497 9.74927 10.2517 12.5473 10.2517 15.9987C10.2517 19.4502 13.0497 22.2482 16.5012 22.2482Z" stroke="#111827" stroke-width="2" stroke-linecap="round" stroke-linejoin="round"/>
<path d="M24.7946 28.498C22.01 30.3461 18.6881 31.2112 15.3558 30.9563C12.0236 30.7014 8.87189 29.341 6.40086 27.0909C3.92983 24.8408 2.28098 21.8299 1.71596 18.5361C1.15093 15.2422 1.70208 11.854 3.28196 8.90899C4.86184 5.96401 7.37995 3.63099 10.4367 2.2801C13.4935 0.929209 16.9139 0.637827 20.1552 1.45219C23.3964 2.26655 26.2729 4.14001 28.3281 6.77531C30.3834 9.4106 31.4997 12.6568 31.5 15.9988C31.5 19.4503 30.2501 22.2482 27.1254 22.2482C24.0006 22.2482 22.7507 19.4503 22.7507 15.9988V9.7493" stroke="#111827" stroke-width="2" stroke-linecap="round" stroke-linejoin="round"/>
</svg>
