<svg width="33" height="33" viewBox="0 0 33 33" fill="none" xmlns="http://www.w3.org/2000/svg">
<path fill-rule="evenodd" clip-rule="evenodd" d="M3.73876 9.93666C4.42524 11.4622 5.38249 13.1193 6.57906 14.8302C7.73991 13.3703 9.04521 11.9054 10.4753 10.4754C11.9054 9.04524 13.3703 7.7399 14.8303 6.57901C13.1194 5.38244 11.4622 4.42518 9.93672 3.7387C8.25178 2.98047 6.77751 2.57532 5.59806 2.51114C4.41797 2.44693 3.65053 2.7253 3.18794 3.18788C2.72536 3.65047 2.44699 4.41791 2.5112 5.598C2.57538 6.77744 2.98053 8.25172 3.73876 9.93666ZM1.91491 10.7574C2.72896 12.5664 3.87823 14.5145 5.31228 16.5C3.87823 18.4856 2.72896 20.4337 1.91491 22.2427C1.09847 24.057 0.596413 25.7816 0.514154 27.2934C0.431931 28.8045 0.767894 30.2205 1.77373 31.2264C2.77957 32.2322 4.19561 32.5682 5.70673 32.486C7.21848 32.4037 8.94312 31.9017 10.7575 31.0852C12.5664 30.2712 14.5145 29.1219 16.5001 27.6878C18.4856 29.1218 20.4336 30.271 22.2426 31.0851C24.0569 31.9015 25.7816 32.4036 27.2933 32.4858C28.8044 32.5681 30.2205 32.2321 31.2263 31.2262C32.2321 30.2204 32.5681 28.8044 32.4859 27.2933C32.4036 25.7815 31.9016 24.0569 31.0851 22.2425C30.2711 20.4336 29.1219 18.4855 27.6879 16.5C29.1219 14.5145 30.2711 12.5665 31.0851 10.7575C31.9016 8.9432 32.4036 7.21856 32.4859 5.7068C32.5681 4.19569 32.2321 2.77965 31.2263 1.77381C30.2205 0.767972 28.8044 0.432008 27.2933 0.514233C25.7816 0.59649 24.0569 1.09854 22.2426 1.91499C20.4336 2.72902 18.4856 3.87825 16.5001 5.31224C14.5145 3.87818 12.5664 2.7289 10.7575 1.91485C8.94312 1.0984 7.21848 0.596352 5.70673 0.514093C4.19561 0.43187 2.77957 0.767833 1.77373 1.77367C0.767894 2.77951 0.431931 4.19555 0.514154 5.70666C0.596413 7.21842 1.09847 8.94306 1.91491 10.7574ZM9.93672 29.2614C11.4622 28.5749 13.1194 27.6176 14.8303 26.421C13.3703 25.2602 11.9054 23.9548 10.4753 22.5247C9.04521 21.0946 7.73991 19.6298 6.57906 18.1698C5.38249 19.8807 4.42524 21.5379 3.73876 23.0634C2.98053 24.7483 2.57538 26.2226 2.5112 27.4021C2.44699 28.5821 2.72536 29.3496 3.18794 29.8122C3.65053 30.2748 4.41797 30.5531 5.59806 30.4889C6.77751 30.4247 8.25178 30.0196 9.93672 29.2614ZM11.8895 21.1105C13.413 22.634 14.9677 24.0009 16.5001 25.1895C18.0324 24.0009 19.587 22.6341 21.1105 21.1106C22.6341 19.5871 24.0009 18.0324 25.1895 16.5C24.0009 14.9676 22.6341 13.413 21.1105 11.8894C19.587 10.366 18.0324 8.99915 16.5001 7.81059C14.9677 8.99918 13.413 10.366 11.8895 11.8896C10.366 13.4131 8.9992 14.9677 7.81063 16.5C8.9992 18.0324 10.366 19.587 11.8895 21.1105ZM23.0633 29.2612C21.5379 28.5748 19.8808 27.6175 18.1699 26.421C19.6299 25.2602 21.0947 23.9549 22.5247 22.5248C23.9549 21.0947 25.2602 19.6298 26.4211 18.1699C27.6176 19.8807 28.5748 21.5378 29.2613 23.0633C30.0195 24.7482 30.4247 26.2225 30.4888 27.4019C30.553 28.582 30.2747 29.3494 29.8121 29.812C29.3495 30.2746 28.5821 30.553 27.402 30.4888C26.2225 30.4246 24.7483 30.0194 23.0633 29.2612ZM29.2613 9.9368C28.5748 11.4623 27.6176 13.1194 26.4211 14.8302C25.2602 13.3702 23.9549 11.9054 22.5247 10.4752C21.0947 9.04516 19.6299 7.73987 18.1699 6.57902C19.8808 5.38251 21.5379 4.42529 23.0633 3.73884C24.7483 2.98061 26.2225 2.57546 27.402 2.51128C28.5821 2.44707 29.3495 2.72544 29.8121 3.18802C30.2747 3.65061 30.553 4.41805 30.4888 5.59814C30.4247 6.77758 30.0195 8.25186 29.2613 9.9368ZM18.5478 16.5001C18.5478 17.6328 17.6296 18.5511 16.4968 18.5511C15.3641 18.5511 14.4458 17.6328 14.4458 16.5001C14.4458 15.3674 15.3641 14.4491 16.4968 14.4491C17.6296 14.4491 18.5478 15.3674 18.5478 16.5001Z" fill="#111827"/>
</svg>
