<svg width="32" height="33" viewBox="0 0 32 33" fill="none" xmlns="http://www.w3.org/2000/svg">
<path d="M24.6999 25.1997C26.5225 23.3771 24.1048 18.0046 19.2999 13.1997C14.4951 8.39486 9.12252 5.97721 7.29999 7.79974C5.47745 9.62228 7.89511 14.9948 12.7 19.7997C17.5048 24.6046 22.8774 27.0222 24.6999 25.1997Z" stroke="#1C1B1F" stroke-width="2" stroke-linecap="round" stroke-linejoin="round"/>
<path d="M19.2999 19.7998C24.1048 14.9949 26.5225 9.62237 24.6999 7.79983C22.8774 5.9773 17.5048 8.39495 12.7 13.1998C7.89511 18.0047 5.47745 23.3772 7.29999 25.1998C9.12252 27.0223 14.4951 24.6046 19.2999 19.7998Z" stroke="#1C1B1F" stroke-width="2" stroke-linecap="round" stroke-linejoin="round"/>
<path d="M15.9979 17.7726C16.7008 17.7726 17.2707 17.2028 17.2707 16.4998C17.2707 15.7969 16.7008 15.2271 15.9979 15.2271C15.2949 15.2271 14.7251 15.7969 14.7251 16.4998C14.7251 17.2028 15.2949 17.7726 15.9979 17.7726Z" fill="#1C1B1F"/>
</svg>
