<svg width="33" height="33" viewBox="0 0 33 33" fill="none" xmlns="http://www.w3.org/2000/svg">
<path fill-rule="evenodd" clip-rule="evenodd" d="M10.5475 3.95776C8.1231 3.95776 6.15771 5.92315 6.15771 8.34758C6.15771 9.20338 6.4016 9.99916 6.82323 10.6728C6.99385 10.9453 7.02298 11.2833 6.90151 11.5811C6.78004 11.8788 6.52279 12.1 6.2102 12.1754C4.08064 12.6894 2.49951 14.6086 2.49951 16.8947C2.49951 19.1401 4.02461 21.0302 6.09498 21.5845C6.13807 21.585 6.18162 21.5883 6.22542 21.5945L6.8156 21.6784C7.10085 21.7189 7.39052 21.6444 7.62088 21.4714C7.85124 21.2983 8.00342 21.0408 8.04394 20.7556C8.12162 20.2088 8.62785 19.8285 9.17464 19.9062C9.72144 19.9838 10.1017 20.4901 10.0241 21.0369C9.90894 21.8473 9.47659 22.5788 8.82214 23.0704C8.43524 23.3611 7.98944 23.5538 7.52216 23.6391C7.41483 23.9897 7.35693 24.3626 7.35693 24.7503C7.35693 26.8435 9.05381 28.5404 11.147 28.5404C13.2034 28.5404 14.8776 26.9023 14.9355 24.8603C14.936 24.8453 14.9367 24.8303 14.9378 24.8155V21.8485C14.9309 21.1314 14.643 20.4452 14.1354 19.9377C13.6216 19.4238 12.9247 19.1352 12.1981 19.1352C11.6458 19.1352 11.1981 18.6875 11.1981 18.1352C11.1981 17.5829 11.6458 17.1352 12.1981 17.1352C13.186 17.1352 14.1422 17.4436 14.9378 18.0072V8.37782C14.9375 8.3677 14.9373 8.35755 14.9373 8.34735C14.9372 5.92303 12.9719 3.95776 10.5475 3.95776ZM16.9378 24.8887V22.9597L16.9379 22.9435V21.875L16.9378 21.8402V8.3473C16.9378 8.33617 16.9376 8.32508 16.9372 8.31403C16.9192 4.80047 14.0653 1.95776 10.5475 1.95776C7.01853 1.95776 4.15771 4.81858 4.15771 8.34758C4.15771 9.14952 4.30586 9.91813 4.5764 10.6266C2.17494 11.6924 0.499512 14.0969 0.499512 16.8947C0.499512 20.0358 2.6118 22.6827 5.49391 23.4936C5.40419 23.8987 5.35693 24.3193 5.35693 24.7503C5.35693 27.948 7.94924 30.5404 11.147 30.5404C14.2617 30.5404 16.8017 28.0813 16.9319 24.9983C16.9358 24.9623 16.9378 24.9257 16.9378 24.8887ZM19.102 7.00269C18.5497 7.00269 18.102 7.4504 18.102 8.00269C18.102 8.55497 18.5497 9.00269 19.102 9.00269H23.0407C23.3036 9.27651 23.6733 9.44696 24.0828 9.44696C24.8804 9.44696 25.5269 8.80039 25.5269 8.0028C25.5269 7.20522 24.8804 6.55864 24.0828 6.55864C23.6734 6.55864 23.3038 6.729 23.041 7.00269H19.102ZM24.6163 9.70625C24.2608 9.70625 23.9321 9.89494 23.7528 10.2019L22.2393 12.793H19.102C18.5497 12.793 18.102 13.2407 18.102 13.793C18.102 14.3452 18.5497 14.793 19.102 14.793H22.8133C23.1688 14.793 23.4975 14.6043 23.6768 14.2973L25.1903 11.7062H28.1613C28.4242 11.9804 28.7941 12.151 29.2038 12.151C30.0014 12.151 30.648 11.5044 30.648 10.7068C30.648 9.90926 30.0014 9.26269 29.2038 9.26269C28.7947 9.26269 28.4252 9.43284 28.1625 9.70625H24.6163ZM18.102 18.0212C18.102 17.4689 18.5497 17.0212 19.102 17.0212H23.041C23.3038 16.7475 23.6734 16.5771 24.0828 16.5771C24.8804 16.5771 25.5269 17.2237 25.5269 18.0213C25.5269 18.8189 24.8804 19.4655 24.0828 19.4655C23.6733 19.4655 23.3036 19.295 23.0407 19.0212H19.102C18.5497 19.0212 18.102 18.5735 18.102 18.0212ZM28.151 21.2142L29.6118 19.7779L29.6118 19.7717C29.6118 18.9741 30.2584 18.3275 31.056 18.3275C31.8536 18.3275 32.5001 18.9741 32.5001 19.7717C32.5001 20.5693 31.8536 21.2158 31.056 21.2158C31.0382 21.2158 31.0205 21.2155 31.0029 21.2149L29.2614 22.9272C29.0744 23.1111 28.8226 23.2142 28.5603 23.2142H19.102C18.5497 23.2142 18.102 22.7665 18.102 22.2142C18.102 21.6619 18.5497 21.2142 19.102 21.2142H28.151ZM18.102 25.475C18.102 24.9227 18.5497 24.475 19.102 24.475H25.0454C25.3082 24.2015 25.6777 24.0312 26.087 24.0312C26.8846 24.0312 27.5312 24.6778 27.5312 25.4754C27.5312 26.2729 26.8846 26.9195 26.087 26.9195C25.6774 26.9195 25.3076 26.749 25.0447 26.475H19.102C18.5497 26.475 18.102 26.0273 18.102 25.475ZM12.668 10.1546C12.668 9.60232 12.2203 9.1546 11.668 9.1546C11.1157 9.1546 10.668 9.60232 10.668 10.1546V11.2193C10.668 11.9424 10.3807 12.6358 9.86945 13.1471C9.35816 13.6584 8.66469 13.9456 7.94162 13.9456C7.38933 13.9456 6.94162 14.3934 6.94162 14.9456C6.94162 15.4979 7.38933 15.9456 7.94162 15.9456C9.19513 15.9456 10.3973 15.4477 11.2837 14.5613C12.17 13.675 12.668 12.4728 12.668 11.2193V10.1546Z" fill="#111827"/>
</svg>
