<svg width="33" height="32" viewBox="0 0 33 32" fill="none" xmlns="http://www.w3.org/2000/svg">
<path fill-rule="evenodd" clip-rule="evenodd" d="M5.25 3.75C4.69772 3.75 4.25 4.19772 4.25 4.75V10.7499C4.25 11.3022 4.69772 11.7499 5.25 11.7499C5.80228 11.7499 6.25 11.3022 6.25 10.7499V5.75H11.2499C11.8022 5.75 12.2499 5.30228 12.2499 4.75C12.2499 4.19772 11.8022 3.75 11.2499 3.75H5.25ZM21.75 3.75009C21.1977 3.75009 20.75 4.19781 20.75 4.75009C20.75 5.30238 21.1977 5.75009 21.75 5.75009H26.7499V10.75C26.7499 11.3023 27.1976 11.75 27.7499 11.75C28.3022 11.75 28.7499 11.3023 28.7499 10.75V4.75009C28.7499 4.19781 28.3022 3.75009 27.7499 3.75009H21.75ZM5.25 20.2501C5.80228 20.2501 6.25 20.6978 6.25 21.2501V26.25H11.2499C11.8022 26.25 12.2499 26.6977 12.2499 27.25C12.2499 27.8023 11.8022 28.25 11.2499 28.25H5.25C4.69772 28.25 4.25 27.8023 4.25 27.25V21.2501C4.25 20.6978 4.69772 20.2501 5.25 20.2501ZM28.7503 21.25C28.7503 20.6977 28.3026 20.25 27.7503 20.25C27.198 20.25 26.7503 20.6977 26.7503 21.25V26.2499H21.7504C21.1981 26.2499 20.7504 26.6976 20.7504 27.2499C20.7504 27.8022 21.1981 28.2499 21.7504 28.2499H27.7503C28.3026 28.2499 28.7503 27.8022 28.7503 27.2499V21.25Z" fill="#111827"/>
<path fill-rule="evenodd" clip-rule="evenodd" d="M16.5001 17.4139L5.95688 27.9571C5.56636 28.3476 4.93319 28.3476 4.54267 27.9571C4.15215 27.5666 4.15215 26.9334 4.54267 26.5429L15.0855 16L4.54265 5.45713C4.15212 5.06661 4.15212 4.43344 4.54265 4.04292C4.93317 3.65239 5.56634 3.65239 5.95686 4.04292L16.5 14.5861L27.0432 4.04289C27.4337 3.65237 28.0669 3.65237 28.4574 4.04289C28.848 4.43342 28.848 5.06658 28.4574 5.45711L17.9146 16L28.4574 26.5428C28.8479 26.9333 28.8479 27.5665 28.4574 27.957C28.0669 28.3475 27.4337 28.3475 27.0432 27.957L16.5001 17.4139Z" fill="#111827"/>
</svg>
