<svg width="33" height="32" viewBox="0 0 33 32" fill="none" xmlns="http://www.w3.org/2000/svg">
<path fill-rule="evenodd" clip-rule="evenodd" d="M12.9059 2.64671L12.9059 6.90251L15.0733 6.42636V1.59605L12.9059 2.64671ZM15.0733 0.484748L11.9059 2.02016L11.9059 7.1222L11.9059 8.14604L12.9059 7.92636L16.0733 7.23052V1.1113V0L15.0733 0.484748ZM4.67573 5.2722V26.4106L2.86816 25.4566V6.2262L4.67573 5.2722ZM28.3245 5.2722V26.4106L30.1321 25.4566V6.2262L28.3245 5.2722ZM11.9059 24.7754L11.9059 23.7535L12.9059 23.9642L16.0733 24.6314V30.7684V31.8619L15.0733 31.4193L11.9059 30.0174L11.9059 24.7754ZM12.9059 29.3664L12.9059 24.9861L15.0733 25.4427V30.3258L12.9059 29.3664ZM11.1528 9.03782V6.67795L6.62909 5.48534L5.6297 5.22187L5.62727 6.2554L5.58195 25.476L5.57951 26.5108L6.58013 26.247L11.1026 25.0548V22.8957L16.7261 21.8915L21.9981 22.9459V25.0548L26.4208 26.2423L27.4208 26.5108V25.4754V6.25973V5.22187L26.4208 5.49965L21.9981 6.72816V9.08803L16.4751 10.1424L11.1528 9.03782ZM22.9981 7.48825V9.08803V9.91518L22.1857 10.0703L16.6626 11.1247L16.4669 11.1621L16.2718 11.1216L10.9496 10.017L10.1528 9.85158V9.03782V7.44849L6.62665 6.51887L6.58257 25.2122L10.1026 24.2842V22.8957V22.0585L10.9268 21.9113L16.5503 20.9071L16.7366 20.8738L16.9222 20.911L22.1943 21.9654L22.9981 22.1261V22.9459V24.2879L26.4208 25.2069V6.53751L22.9981 7.48825ZM17.0775 19.7827L18.0775 19.6381L21.2449 19.1802L21.2449 12.5023L18.0775 12.1206L17.0775 12.0002V13.0074V18.7723V19.7827ZM20.2449 18.3144L18.0775 18.6277V13.1279L20.2449 13.389L20.2449 18.3144ZM16.0732 12.0002L15.0732 12.1207L11.9058 12.5023L11.9058 19.1802L15.0732 19.6381L16.0732 19.7827V18.7723V13.0074V12.0002ZM12.9058 13.389L15.0732 13.1279V18.6277L12.9058 18.3144L12.9058 13.389ZM20.2451 2.64671L20.2451 7.04052L18.0777 6.56436V1.59605L20.2451 2.64671ZM18.0777 0.484748L21.2451 2.02016L21.2451 7.2602L21.2451 8.28405L20.2451 8.06436L17.0777 7.36853V1.1113V0L18.0777 0.484748ZM21.2451 24.7754L21.2451 23.7535L20.2451 23.9642L17.0777 24.6314V30.8926V31.9999L18.0777 31.5242L21.2451 30.0174L21.2451 24.7754ZM20.2451 29.3857L20.2451 24.9861L18.0777 25.4427V30.4168L20.2451 29.3857ZM16.4871 8.09864L13.8622 8.71625L16.4613 9.38534L19.1377 8.76773L16.4871 8.09864ZM13.8622 23.2642L16.4871 22.6466L19.1377 23.3157L16.4613 23.9333L13.8622 23.2642Z" fill="#111827"/>
</svg>
