<svg width="33" height="32" viewBox="0 0 33 32" fill="none" xmlns="http://www.w3.org/2000/svg">
<path fill-rule="evenodd" clip-rule="evenodd" d="M18.8025 4.44132C18.9959 4.01331 18.8654 3.50838 18.4888 3.22772C18.1122 2.94706 17.591 2.96631 17.2361 3.27398L8.38925 10.9443C8.3013 11.0206 8.22735 11.1116 8.17071 11.2133L0.624429 24.7611C0.451916 25.0709 0.456279 25.4488 0.635895 25.7544C0.815511 26.0601 1.14353 26.2478 1.49805 26.2478H8.30337C8.69632 26.2478 9.05285 26.0176 9.21466 25.6595L18.8025 4.44132ZM3.19972 24.2478L9.83233 12.3402L15.1037 7.76985L7.65789 24.2478H3.19972ZM20.7258 5.35809C20.5461 5.01677 20.1861 4.80925 19.8006 4.8248C19.4152 4.84036 19.0731 5.07621 18.9215 5.43091L14.3731 16.0706C14.2285 16.4087 14.2812 16.7988 14.5101 17.0864L20.6957 24.8583L8.31791 26.985C7.80606 27.0729 7.44673 27.538 7.49086 28.0555C7.53499 28.573 7.96789 28.9705 8.48724 28.9705H31.5019C31.8522 28.9705 32.177 28.7872 32.358 28.4873C32.539 28.1874 32.5499 27.8146 32.3867 27.5046L20.7258 5.35809ZM16.4467 16.308L19.9348 8.14855L29.8452 26.9705H20.2131L22.6997 26.5433C23.0481 26.4835 23.3389 26.2442 23.4648 25.9139C23.5907 25.5837 23.5329 25.2115 23.3128 24.935L16.4467 16.308Z" fill="#111827"/>
</svg>
