<svg width="33" height="32" viewBox="0 0 33 32" fill="none" xmlns="http://www.w3.org/2000/svg">
<path fill-rule="evenodd" clip-rule="evenodd" d="M18.3931 3.83748C18.4899 3.62348 18.4246 3.37101 18.2363 3.23068C18.048 3.09035 17.7874 3.09997 17.61 3.25381L8.46906 11.1791C8.42509 11.2172 8.38811 11.2627 8.35979 11.3136L0.562703 25.3117C0.476446 25.4666 0.478628 25.6555 0.568436 25.8083C0.658244 25.9612 0.822253 26.055 0.999512 26.055H8.03102C8.22749 26.055 8.40576 25.9399 8.48666 25.7609L18.3931 3.83748ZM1.85035 25.055L9.1906 11.877L16.5438 5.50174L7.70828 25.055H1.85035ZM19.5891 5.24089C19.4931 5.06987 19.3059 4.97078 19.1105 4.98749C18.9151 5.0042 18.7475 5.13363 18.6819 5.31848L14.7812 16.3118C14.7235 16.4745 14.7538 16.6554 14.8612 16.7904L21.8135 25.5256L8.13628 27.8755C7.88036 27.9195 7.70069 28.152 7.72275 28.4108C7.74482 28.6695 7.96127 28.8683 8.22094 28.8683H32.0005C32.1781 28.8683 32.3423 28.7741 32.432 28.6209C32.5217 28.4677 32.5234 28.2783 32.4365 28.1235L19.5891 5.24089ZM15.8164 16.3848L19.2561 6.69052L31.1464 27.8683H14.0839L22.8155 26.3681C22.9897 26.3382 23.1351 26.2185 23.1981 26.0534C23.261 25.8883 23.2321 25.7022 23.1221 25.5639L15.8164 16.3848Z" fill="#111827"/>
</svg>
