<svg width="32" height="33" viewBox="0 0 32 33" fill="none" xmlns="http://www.w3.org/2000/svg">
<path d="M16 28.5C22.6274 28.5 28 23.1274 28 16.5C28 9.87258 22.6274 4.5 16 4.5C9.37258 4.5 4 9.87258 4 16.5C4 23.1274 9.37258 28.5 16 28.5Z" stroke="#1C1B1F" stroke-width="2" stroke-linecap="round" stroke-linejoin="round"/>
<path d="M11.5 18C12.3284 18 13 17.3284 13 16.5C13 15.6716 12.3284 15 11.5 15C10.6716 15 10 15.6716 10 16.5C10 17.3284 10.6716 18 11.5 18Z" fill="#1C1B1F"/>
<path d="M20.5 18C21.3284 18 22 17.3284 22 16.5C22 15.6716 21.3284 15 20.5 15C19.6716 15 19 15.6716 19 16.5C19 17.3284 19.6716 18 20.5 18Z" fill="#1C1B1F"/>
<path d="M19.3173 21.5004C18.3339 22.1523 17.1801 22.5 16.0002 22.5C14.8203 22.5001 13.6665 22.1524 12.683 21.5005" stroke="#1C1B1F" stroke-width="2" stroke-linecap="round" stroke-linejoin="round"/>
<path d="M14.9435 4.7439C14.233 6.17333 13.774 7.24993 13.4135 8.38672C12.9584 9.8219 14.1154 11.2134 15.621 11.2134V11.2134C16.9349 11.2134 18 10.1483 18 8.83442V8.56566" stroke="#1C1B1F" stroke-width="2" stroke-linecap="round"/>
</svg>
