<svg width="33" height="33" viewBox="0 0 33 33" fill="none" xmlns="http://www.w3.org/2000/svg">
<path fill-rule="evenodd" clip-rule="evenodd" d="M13.5914 2.8034C7.25581 4.14214 2.50085 9.76575 2.50085 16.4999C2.50085 24.2314 8.76846 30.499 16.4999 30.499C24.2314 30.499 30.499 24.2314 30.499 16.4999C30.499 8.76846 24.2314 2.50085 16.4999 2.50085C16.3144 2.50085 16.1298 2.50446 15.9461 2.51161C15.1454 4.14053 14.6284 5.3741 14.2203 6.6612C13.8838 7.72257 14.7259 8.89206 16.0263 8.89206C17.1163 8.89206 17.9998 8.00849 17.9998 6.91854V6.58262C17.9998 6.03033 18.4476 5.58262 18.9998 5.58262C19.5521 5.58262 19.9998 6.03033 19.9998 6.58262V6.91854C19.9998 9.11306 18.2208 10.8921 16.0263 10.8921C13.5629 10.8921 11.5128 8.58307 12.3139 6.05669C12.6527 4.98815 13.0565 3.96667 13.5914 2.8034ZM0.500854 16.4999C0.500854 7.66389 7.66389 0.500854 16.4999 0.500854C25.336 0.500854 32.499 7.66389 32.499 16.4999C32.499 25.336 25.336 32.499 16.4999 32.499C7.66389 32.499 0.500854 25.336 0.500854 16.4999ZM10.8753 18.3748C11.9107 18.3748 12.7502 17.5354 12.7502 16.4999C12.7502 15.4645 11.9107 14.625 10.8753 14.625C9.8398 14.625 9.00039 15.4645 9.00039 16.4999C9.00039 17.5354 9.8398 18.3748 10.8753 18.3748ZM23.9995 16.4999C23.9995 17.5354 23.16 18.3748 22.1246 18.3748C21.0891 18.3748 20.2497 17.5354 20.2497 16.4999C20.2497 15.4645 21.0891 14.625 22.1246 14.625C23.16 14.625 23.9995 15.4645 23.9995 16.4999ZM21.4799 22.1975C21.785 22.6578 21.6592 23.2784 21.1989 23.5835C19.8058 24.507 18.1715 24.9995 16.5002 24.9995C14.8288 24.9996 13.1945 24.5071 11.8014 23.5837C11.3411 23.2786 11.2153 22.6581 11.5204 22.1977C11.8255 21.7374 12.4461 21.6116 12.9064 21.9167C13.9719 22.6229 15.2219 22.9996 16.5002 22.9995C17.7784 22.9995 19.0284 22.6228 20.0938 21.9165C20.5542 21.6114 21.1747 21.7372 21.4799 22.1975Z" fill="#111827"/>
</svg>
