<svg width="33" height="32" viewBox="0 0 33 32" fill="none" xmlns="http://www.w3.org/2000/svg">
<path fill-rule="evenodd" clip-rule="evenodd" d="M8.64335 3.40732C8.29704 3.40732 7.97537 3.5865 7.79309 3.88096L0.650651 15.4187C0.451806 15.7399 0.450947 16.1458 0.648431 16.4678L7.79087 28.1155C7.97269 28.412 8.29553 28.5927 8.64335 28.5927H31.4991C32.0514 28.5927 32.4991 28.145 32.4991 27.5927V4.40732C32.4991 3.85503 32.0514 3.40732 31.4991 3.40732H8.64335ZM2.67548 15.9476L9.20041 5.40732H30.4991V26.5927H9.20319L2.67548 15.9476ZM22.9543 11.7007C23.3448 12.0912 23.3448 12.7244 22.9543 13.1149L20.1894 15.8798L22.9543 18.6446C23.3448 19.0351 23.3448 19.6683 22.9543 20.0588C22.5638 20.4493 21.9306 20.4493 21.5401 20.0588L18.7752 17.294L16.0104 20.0588C15.6199 20.4493 14.9867 20.4493 14.5962 20.0588C14.2056 19.6683 14.2056 19.0351 14.5962 18.6446L17.361 15.8798L14.5962 13.1149C14.2056 12.7244 14.2056 12.0912 14.5962 11.7007C14.9867 11.3102 15.6199 11.3102 16.0104 11.7007L18.7752 14.4655L21.5401 11.7007C21.9306 11.3102 22.5638 11.3102 22.9543 11.7007Z" fill="#111827"/>
</svg>
