<svg width="33" height="33" viewBox="0 0 33 33" fill="none" xmlns="http://www.w3.org/2000/svg">
<path fill-rule="evenodd" clip-rule="evenodd" d="M11.2146 4.57226C11.2146 2.91541 12.5577 1.57227 14.2146 1.57227H18.7855C20.4423 1.57227 21.7855 2.91541 21.7855 4.57227V5.85791H22.2136C25.5273 5.85791 28.2136 8.5442 28.2136 11.8579V12.2151V15.647V19.2695H29.499C31.1559 19.2695 32.499 20.6126 32.499 22.2695V26.8403C32.499 28.4972 31.1559 29.8403 29.499 29.8403H28.2136V29.9278C28.2136 30.7563 27.542 31.4278 26.7136 31.4278H6.28638C5.45795 31.4278 4.78638 30.7563 4.78638 29.9278V29.8403H3.50073C1.84388 29.8403 0.500733 28.4972 0.500733 26.8403L0.500732 22.2695C0.500732 20.6126 1.84388 19.2695 3.50073 19.2695H4.78638V15.7342V12.2151V11.8579C4.78638 8.5442 7.47267 5.85791 10.7864 5.85791H11.2146V4.57226ZM6.78638 12.2151V15.7342C6.78638 16.8391 7.19837 17.7506 7.92417 18.1932C8.54008 18.5688 9.23959 18.898 10.0013 19.1765V18.2164C10.0013 17.6641 10.449 17.2164 11.0013 17.2164C11.5536 17.2164 12.0013 17.6641 12.0013 18.2164V19.7602C13.3522 20.0658 14.8157 20.2349 16.3061 20.251C17.9872 20.2691 19.6622 20.0921 21.2083 19.7181V18.2164C21.2083 17.6641 21.656 17.2164 22.2083 17.2164C22.7606 17.2164 23.2083 17.6641 23.2083 18.2164V19.0925C23.8442 18.8427 24.4424 18.5525 24.9915 18.2215C25.7695 17.7526 26.2136 16.7897 26.2136 15.647V12.2151V11.8579C26.2136 9.64877 24.4227 7.85791 22.2136 7.85791H10.7864C8.57724 7.85791 6.78638 9.64877 6.78638 11.8579V12.2151ZM26.2136 19.8131C26.152 19.8549 26.0887 19.8954 26.0239 19.9345C25.1611 20.4545 24.2121 20.8815 23.2083 21.221V22.3234C23.2083 22.8757 22.7606 23.3234 22.2083 23.3234C21.656 23.3234 21.2083 22.8757 21.2083 22.3234V21.7696C19.6094 22.1145 17.9322 22.2687 16.2845 22.2509C14.8355 22.2352 13.3834 22.0863 12.0013 21.8055V22.3234C12.0013 22.8757 11.5536 23.3234 11.0013 23.3234C10.449 23.3234 10.0013 22.8757 10.0013 22.3234V21.2894C8.86304 20.9275 7.80699 20.4643 6.88284 19.9007C6.85025 19.8809 6.8181 19.8606 6.78638 19.8401V29.4278H26.2136V28.8482L26.2136 28.8403L26.2136 28.8324V20.2773L26.2136 20.2695L26.2136 20.2616V19.8131ZM28.2136 21.2695V27.8403H29.499C30.0513 27.8403 30.499 27.3926 30.499 26.8403V22.2695C30.499 21.7172 30.0513 21.2695 29.499 21.2695H28.2136ZM4.78638 21.2695H3.50073C2.94845 21.2695 2.50073 21.7172 2.50073 22.2695L2.50073 26.8403C2.50073 27.3926 2.94845 27.8403 3.50073 27.8403H4.78638V21.2695ZM19.7855 4.57227V5.85791H13.2146V4.57226C13.2146 4.01998 13.6623 3.57227 14.2146 3.57227H18.7855C19.3378 3.57227 19.7855 4.01998 19.7855 4.57227Z" fill="#111827"/>
</svg>
