<svg width="32" height="33" viewBox="0 0 32 33" fill="none" xmlns="http://www.w3.org/2000/svg">
<path d="M20.5671 17.8733V21.1591" stroke="#1C1B1F" stroke-width="2" stroke-linecap="round" stroke-linejoin="round"/>
<path d="M11.6008 17.8733V21.1591" stroke="#1C1B1F" stroke-width="2" stroke-linecap="round" stroke-linejoin="round"/>
<path d="M7.42871 13.7859C7.42871 11.0245 9.66729 8.78589 12.4287 8.78589H19.5716C22.333 8.78589 24.5716 11.0245 24.5716 13.7859V27.1431C24.5716 27.4192 24.3477 27.6431 24.0716 27.6431H7.92871C7.65257 27.6431 7.42871 27.4192 7.42871 27.1431V13.7859Z" stroke="#1C1B1F" stroke-width="2"/>
<path d="M19.4287 8.78575V7.35718C19.4287 6.25261 18.5333 5.35718 17.4287 5.35718H14.5715C13.467 5.35718 12.5715 6.25261 12.5715 7.35718V8.78575" stroke="#1C1B1F" stroke-width="2" stroke-linecap="round"/>
<path d="M7.42858 19.5159L6 19.5159C4.89543 19.5159 4 20.4113 4 21.5159L4 24.373C4 25.4776 4.89543 26.373 6 26.373L7.42858 26.373" stroke="#1C1B1F" stroke-width="2" stroke-linecap="round"/>
<path d="M24.5714 19.5159L26 19.5159C27.1046 19.5159 28 20.4113 28 21.5159L28 24.373C28 25.4776 27.1046 26.373 26 26.373L24.5714 26.373" stroke="#1C1B1F" stroke-width="2" stroke-linecap="round"/>
<path d="M7.42871 13.072V15.4765C7.42871 16.7933 7.92358 18.1121 9.07895 18.7437C12.71 20.7287 18.9087 20.9016 22.8344 18.7755C24.0375 18.1239 24.5716 16.7575 24.5716 15.3893V13.072" stroke="#1C1B1F" stroke-width="2" stroke-linecap="round"/>
</svg>
