<svg width="32" height="32" viewBox="0 0 32 32" fill="none" xmlns="http://www.w3.org/2000/svg">
<path d="M20.5671 17.3733V20.6591" stroke="#1C1B1F" stroke-width="2" stroke-linecap="round" stroke-linejoin="round"/>
<path d="M11.6008 17.3733V20.6591" stroke="#1C1B1F" stroke-width="2" stroke-linecap="round" stroke-linejoin="round"/>
<path d="M7.42871 13.2859C7.42871 10.5245 9.66729 8.28589 12.4287 8.28589H19.5716C22.333 8.28589 24.5716 10.5245 24.5716 13.2859V26.6431C24.5716 26.9192 24.3477 27.1431 24.0716 27.1431H7.92871C7.65257 27.1431 7.42871 26.9192 7.42871 26.6431V13.2859Z" stroke="#1C1B1F" stroke-width="2"/>
<path d="M19.4287 8.28575V6.85718C19.4287 5.75261 18.5333 4.85718 17.4287 4.85718H14.5715C13.467 4.85718 12.5715 5.75261 12.5715 6.85718V8.28575" stroke="#1C1B1F" stroke-width="2" stroke-linecap="round"/>
<path d="M7.42858 19.0159L6 19.0159C4.89543 19.0159 4 19.9113 4 21.0159L4 23.873C4 24.9776 4.89543 25.873 6 25.873L7.42858 25.873" stroke="#1C1B1F" stroke-width="2" stroke-linecap="round"/>
<path d="M24.5714 19.0159L26 19.0159C27.1046 19.0159 28 19.9113 28 21.0159L28 23.873C28 24.9776 27.1046 25.873 26 25.873L24.5714 25.873" stroke="#1C1B1F" stroke-width="2" stroke-linecap="round"/>
<path d="M7.42871 12.572V14.9765C7.42871 16.2933 7.92358 17.6121 9.07895 18.2437C12.71 20.2287 18.9087 20.4016 22.8344 18.2755C24.0375 17.6239 24.5716 16.2575 24.5716 14.8893V12.572" stroke="#1C1B1F" stroke-width="2" stroke-linecap="round"/>
</svg>
