<svg width="32" height="32" viewBox="0 0 32 32" fill="none" xmlns="http://www.w3.org/2000/svg">
<path fill-rule="evenodd" clip-rule="evenodd" d="M9.96204 2.39185H8.96204V3.39185V5.25812C8.96204 5.8104 9.40975 6.25812 9.96204 6.25812C10.5143 6.25812 10.962 5.8104 10.962 5.25812V4.39185H22.8824C23.4347 4.39185 23.8824 3.94413 23.8824 3.39185C23.8824 2.83956 23.4347 2.39185 22.8824 2.39185H9.96204ZM27.4631 5.14426C27.8086 5.09157 28.1617 5.12173 28.4933 5.23226C28.8248 5.34278 29.1254 5.53052 29.3701 5.77998C29.6149 6.02945 29.7969 6.3335 29.9011 6.6671C30.0053 7.0007 30.0288 7.35428 29.9695 7.69872C29.9108 8.04019 29.7725 8.36297 29.5658 8.64095C29.0898 9.24649 28.1998 9.53028 27.0719 9.53028L24.2703 9.53028L24.2699 9.53028C24.0936 9.53005 23.9194 9.49235 23.7588 9.4197C23.598 9.34698 23.4546 9.24091 23.338 9.10852C23.2214 8.97613 23.1342 8.82046 23.0824 8.65182C23.0306 8.48319 23.0152 8.30546 23.0373 8.13042C23.0594 7.95539 23.1184 7.78706 23.2106 7.6366C23.3027 7.48614 23.4258 7.357 23.5716 7.25774L23.5907 7.24504C23.5902 7.27148 23.5899 7.29794 23.5899 7.32441C23.5899 7.87669 24.0375 8.32445 24.5898 8.32451C25.1421 8.32456 25.5899 7.87689 25.5899 7.3246C25.5899 6.97511 25.673 6.63062 25.8323 6.31954C25.9916 6.00845 26.2225 5.73966 26.5061 5.53533C26.7896 5.33099 27.1176 5.19695 27.4631 5.14426ZM31.1604 9.84811L30.3604 9.24817L31.1497 9.86211C30.1031 11.2077 28.4175 11.5303 27.0719 11.5303H24.2693H24.2684C23.8083 11.5298 23.3536 11.4315 22.9344 11.2419C22.5153 11.0523 22.1413 10.7757 21.8372 10.4305C21.5331 10.0853 21.3059 9.6793 21.1707 9.23956C21.0355 8.79982 20.9954 8.33635 21.053 7.87992C21.1106 7.42349 21.2647 6.98454 21.5049 6.59219C21.7452 6.19985 22.0661 5.86309 22.4464 5.60427C22.8268 5.34545 23.2578 5.17049 23.711 5.09099C23.8938 5.05891 24.0786 5.04268 24.2632 5.04221C24.5469 4.60319 24.9107 4.21982 25.3367 3.91277C25.8774 3.52316 26.5028 3.26759 27.1616 3.16712C27.8204 3.06665 28.4936 3.12416 29.1258 3.3349C29.7579 3.54565 30.331 3.9036 30.7977 4.37926C31.2644 4.85492 31.6114 5.43467 31.8101 6.07074C32.0088 6.70681 32.0535 7.381 31.9406 8.03774C31.8276 8.69448 31.5602 9.31498 31.1604 9.84811ZM28.07 12.4753C28.6223 12.4753 29.07 12.9231 29.07 13.4753V23.3878V24.3878H28.07H22.9111C22.3589 24.3878 21.9111 23.9401 21.9111 23.3878C21.9111 22.8355 22.3589 22.3878 22.9111 22.3878H27.07V13.4753C27.07 12.9231 27.5177 12.4753 28.07 12.4753ZM1.9988 13.1414C1.9988 12.2552 2.67112 11.2328 4.24606 10.3737C5.78318 9.53527 7.97501 8.98577 10.4507 8.98577C12.9265 8.98577 15.1183 9.53527 16.6554 10.3737C18.2273 11.2311 18.9001 12.2512 18.9027 13.1362L18.9027 13.1414V13.1499C18.8983 14.0341 18.2253 15.0527 16.6554 15.909C15.1183 16.7475 12.9265 17.297 10.4507 17.297C7.97501 17.297 5.78318 16.7475 4.24606 15.909C2.67112 15.05 1.9988 14.0276 1.9988 13.1414ZM18.9027 16.8116C18.5086 17.1287 18.0734 17.4138 17.6131 17.6648C15.7293 18.6924 13.1952 19.297 10.4507 19.297C7.70631 19.297 5.17216 18.6924 3.28836 17.6648C2.8281 17.4138 2.39286 17.1286 1.99878 16.8116V18.297V18.297C1.99878 19.1832 2.6711 20.2056 4.24604 21.0647C5.78316 21.9031 7.97498 22.4526 10.4507 22.4526C12.9264 22.4526 15.1183 21.9031 16.6554 21.0647C18.2303 20.2056 18.9027 19.1832 18.9027 18.297V18.297V16.8116ZM-0.0012207 13.1414V18.297V18.297V23.4526C-0.0012207 25.4138 1.44234 26.9691 3.28834 27.976C5.17214 29.0036 7.70629 29.6082 10.4507 29.6082C13.1951 29.6082 15.7293 29.0036 17.6131 27.976C19.4591 26.9691 20.9027 25.4138 20.9027 23.4526V18.297V18.297V13.1543L20.9027 13.1414C20.9027 11.1802 19.4591 9.62482 17.6131 8.61791C15.7293 7.59038 13.1952 6.98577 10.4507 6.98577C7.70631 6.98577 5.17216 7.59038 3.28836 8.61791C1.44476 9.62351 0.00254704 11.1762 -0.00119184 13.1337L-0.0012207 13.1414ZM1.99878 23.4526V21.9673C2.39286 22.2843 2.82809 22.5694 3.28834 22.8205C5.17214 23.848 7.70629 24.4526 10.4507 24.4526C13.1951 24.4526 15.7293 23.848 17.6131 22.8205C18.0733 22.5694 18.5086 22.2843 18.9027 21.9673V23.4526C18.9027 24.3388 18.2303 25.3612 16.6554 26.2203C15.1183 27.0587 12.9264 27.6082 10.4507 27.6082C7.97498 27.6082 5.78316 27.0587 4.24604 26.2203C2.6711 25.3612 1.99878 24.3388 1.99878 23.4526Z" fill="#111827"/>
</svg>
