<svg width="35" height="36" viewBox="0 0 35 36" fill="none" xmlns="http://www.w3.org/2000/svg">
<path fill-rule="evenodd" clip-rule="evenodd" d="M15.711 7.3635C16.7464 6.32805 18.1508 5.74634 19.6152 5.74634C21.0795 5.74634 22.4839 6.32805 23.5193 7.3635C24.3159 8.1601 24.844 9.17504 25.0452 10.2677H14.1851C14.3863 9.17504 14.9144 8.1601 15.711 7.3635ZM13.0867 12.2677C13.0891 12.2677 13.0914 12.2677 13.0938 12.2677C13.0962 12.2677 13.0986 12.2677 13.1009 12.2677H26.1294C26.1318 12.2677 26.1341 12.2677 26.1365 12.2677C26.1389 12.2677 26.1413 12.2677 26.1436 12.2677H32.962V33.7445H6.26807V12.2677H13.0867ZM12.1606 10.2677C12.3786 8.64207 13.1241 7.12199 14.2968 5.94929C15.7073 4.53876 17.6204 3.74634 19.6152 3.74634C21.6099 3.74634 23.523 4.53876 24.9336 5.94929C26.1063 7.12199 26.8517 8.64207 27.0698 10.2677H33.962C34.5143 10.2677 34.962 10.7154 34.962 11.2677V34.7445C34.962 35.2968 34.5143 35.7445 33.962 35.7445H5.26807C4.71578 35.7445 4.26807 35.2968 4.26807 34.7445V11.2677C4.26807 10.7154 4.71578 10.2677 5.26807 10.2677H12.1606Z" fill="#111827"/>
</svg>
