<svg width="33" height="33" viewBox="0 0 33 33" fill="none" xmlns="http://www.w3.org/2000/svg">
<path fill-rule="evenodd" clip-rule="evenodd" d="M12.596 4.1179C13.6314 3.08244 15.0358 2.50073 16.5002 2.50073C17.9645 2.50073 19.3689 3.08244 20.4044 4.1179C21.2009 4.91449 21.729 5.92944 21.9302 7.02206H11.0701C11.2713 5.92944 11.7994 4.91449 12.596 4.1179ZM9.9717 9.02206C9.97407 9.02208 9.97644 9.02209 9.97882 9.02209C9.98119 9.02209 9.98356 9.02208 9.98593 9.02206H23.0144C23.0168 9.02208 23.0191 9.02209 23.0215 9.02209C23.0239 9.02209 23.0263 9.02208 23.0286 9.02206H29.847V30.4989H3.15308V9.02206H9.9717ZM9.04556 7.02206C9.26361 5.39646 10.0091 3.87639 11.1818 2.70369C12.5923 1.29316 14.5054 0.500732 16.5002 0.500732C18.495 0.500732 20.408 1.29316 21.8186 2.70369C22.9913 3.87639 23.7367 5.39646 23.9548 7.02206H30.847C31.3993 7.02206 31.847 7.46978 31.847 8.02206V31.4989C31.847 32.0512 31.3993 32.4989 30.847 32.4989H2.15308C1.60079 32.4989 1.15308 32.0512 1.15308 31.4989V8.02206C1.15308 7.46978 1.60079 7.02206 2.15308 7.02206H9.04556Z" fill="#111827"/>
</svg>
