<svg width="32" height="32" viewBox="0 0 32 32" fill="none" xmlns="http://www.w3.org/2000/svg">
<path d="M25.2339 13.2339C25.2339 18.3356 21.1017 24.3146 16 24.3146C10.8983 24.3146 6.76611 18.3356 6.76611 13.2339C6.76611 10.7849 7.73897 8.43623 9.47066 6.70454C11.2023 4.97285 13.551 4 16 4C18.449 4 20.7977 4.97285 22.5294 6.70454C24.261 8.43623 25.2339 10.7849 25.2339 13.2339V13.2339Z" stroke="#1C1B1F" stroke-width="2" stroke-linecap="round" stroke-linejoin="round"/>
<path d="M16.9233 7.77417C18.0579 7.96309 19.1051 8.50188 19.9184 9.31521C20.7318 10.1285 21.2706 11.1757 21.4595 12.3103" stroke="#1C1B1F" stroke-width="2" stroke-linecap="round" stroke-linejoin="round"/>
<path d="M14.8812 24.4263L13.6278 27.3C13.4837 27.6303 13.7257 27.9999 14.0861 27.9999H17.8575C18.2133 27.9999 18.4553 27.6388 18.32 27.3098L17.1345 24.4263" stroke="#1C1B1F" stroke-width="2" stroke-linecap="round"/>
</svg>
