<svg width="33" height="33" viewBox="0 0 33 33" fill="none" xmlns="http://www.w3.org/2000/svg">
<path fill-rule="evenodd" clip-rule="evenodd" d="M16.5 2.50073C13.7041 2.50073 11.0228 3.61137 9.04585 5.58833C7.06889 7.56528 5.95825 10.2466 5.95825 13.0424C5.95825 15.9823 7.15836 19.232 9.12498 21.742C11.0945 24.2558 13.7178 25.8925 16.5 25.8925C19.2821 25.8925 21.9054 24.2558 23.8749 21.742C25.8416 19.232 27.0417 15.9823 27.0417 13.0424C27.0417 10.2466 25.931 7.56528 23.9541 5.58833C21.9771 3.61137 19.2958 2.50073 16.5 2.50073ZM7.63163 4.17411C9.98366 1.82209 13.1737 0.500732 16.5 0.500732C19.8262 0.500732 23.0163 1.82209 25.3683 4.17411C27.7203 6.52614 29.0417 9.71617 29.0417 13.0424C29.0417 16.4793 27.6593 20.1547 25.4493 22.9755C23.8127 25.0643 21.6592 26.7588 19.1896 27.4954L20.3955 30.4286C20.8014 31.4157 20.0755 32.4989 19.0082 32.4989H13.9168C12.8358 32.4989 12.1097 31.3901 12.5419 30.3992L13.8087 27.4949C11.3398 26.7581 9.18681 25.0638 7.55064 22.9755C5.3406 20.1547 3.95825 16.4793 3.95825 13.0424C3.95825 9.71617 5.27961 6.52614 7.63163 4.17411ZM15.8279 27.868L14.6804 30.4989H18.262L17.1802 27.8674C16.9553 27.884 16.7285 27.8925 16.5 27.8925C16.2741 27.8925 16.0501 27.8842 15.8279 27.868ZM16.6675 6.05394C16.7582 5.50915 17.2734 5.14105 17.8182 5.23176C19.442 5.50213 20.9407 6.27325 22.1047 7.43726C23.2687 8.60128 24.0399 10.1 24.3102 11.7238C24.4009 12.2686 24.0328 12.7838 23.4881 12.8745C22.9433 12.9652 22.4281 12.5971 22.3374 12.0523C22.1355 10.8398 21.5597 9.72066 20.6905 8.85148C19.8213 7.98229 18.7022 7.40649 17.4897 7.2046C16.9449 7.11389 16.5768 6.59872 16.6675 6.05394Z" fill="#111827"/>
</svg>
