<svg width="33" height="32" viewBox="0 0 33 32" fill="none" xmlns="http://www.w3.org/2000/svg">
<path fill-rule="evenodd" clip-rule="evenodd" d="M6.50049 7.00055C6.50049 6.44826 6.9482 6.00055 7.50049 6.00055H12.5002C13.0525 6.00055 13.5002 6.44826 13.5002 7.00055V15H19.4997V7.00055C19.4997 6.44826 19.9474 6.00055 20.4997 6.00055H25.4994C26.0517 6.00055 26.4994 6.44826 26.4994 7.00055V9.0004H29.4991C30.0514 9.0004 30.4991 9.44811 30.4991 10.0004V15H31.499C32.0513 15 32.499 15.4477 32.499 16C32.499 16.5523 32.0513 17 31.499 17H30.4991V21.9997C30.4991 22.5519 30.0514 22.9997 29.4991 22.9997H26.4994V24.9994C26.4994 25.5517 26.0517 25.9994 25.4994 25.9994H20.4997C19.9474 25.9994 19.4997 25.5517 19.4997 24.9994V17H13.5002V24.9994C13.5002 25.5517 13.0525 25.9994 12.5002 25.9994H7.50049C6.9482 25.9994 6.50049 25.5517 6.50049 24.9994V22.9997H3.50073C2.94845 22.9997 2.50073 22.5519 2.50073 21.9997V17H1.50085C0.94857 17 0.500854 16.5523 0.500854 16C0.500854 15.4477 0.94857 15 1.50085 15H2.50073V10.0004C2.50073 9.44811 2.94845 9.0004 3.50073 9.0004H6.50049V7.00055ZM8.50049 10.0004V21.9997L8.50049 23.9994H11.5002V16.0014L11.5002 16L11.5002 15.9986V8.00055H8.50049L8.50049 10.0004ZM6.50049 11.0004H4.50073V16V20.9997H6.50049V11.0004ZM28.4991 20.9997H26.4994V11.0004H28.4991V16V20.9997ZM24.4994 8.00055L24.4994 10.0004V21.9997L24.4994 23.9994H21.4997V16V8.00055H24.4994Z" fill="#111827"/>
</svg>
