<svg width="33" height="33" viewBox="0 0 33 33" fill="none" xmlns="http://www.w3.org/2000/svg">
<path fill-rule="evenodd" clip-rule="evenodd" d="M0.500732 4.00073C0.500732 3.44845 0.948448 3.00073 1.50073 3.00073H9.00028C9.55257 3.00073 10.0003 3.44845 10.0003 4.00073C10.0003 4.55302 9.55257 5.00073 9.00028 5.00073H2.50073V11.5003C2.50073 12.0526 2.05302 12.5003 1.50073 12.5003C0.948448 12.5003 0.500732 12.0526 0.500732 11.5003V4.00073ZM10.0003 10.2504C10.0003 9.69807 9.55256 9.25035 9.00028 9.25035C8.44799 9.25035 8.00028 9.69807 8.00028 10.2504V22.7496C8.00028 23.3019 8.44799 23.7496 9.00028 23.7496C9.55256 23.7496 10.0003 23.3019 10.0003 22.7496V10.2504ZM24.9994 10.2504C24.9994 9.69807 24.5516 9.25035 23.9994 9.25035C23.4471 9.25035 22.9994 9.69807 22.9994 10.2504V22.7496C22.9994 23.3019 23.4471 23.7496 23.9994 23.7496C24.5516 23.7496 24.9994 23.3019 24.9994 22.7496V10.2504ZM18.9997 9.25035C19.552 9.25035 19.9997 9.69807 19.9997 10.2504V22.7496C19.9997 23.3019 19.552 23.7496 18.9997 23.7496C18.4474 23.7496 17.9997 23.3019 17.9997 22.7496V10.2504C17.9997 9.69807 18.4474 9.25035 18.9997 9.25035ZM15 10.2504C15 9.69807 14.5523 9.25035 14 9.25035C13.4477 9.25035 13 9.69807 13 10.2504V22.7496C13 23.3019 13.4477 23.7496 14 23.7496C14.5523 23.7496 15 23.3019 15 22.7496V10.2504ZM23.9994 3.00073C23.4471 3.00073 22.9994 3.44845 22.9994 4.00073C22.9994 4.55302 23.4471 5.00073 23.9994 5.00073H30.4989V11.5003C30.4989 12.0526 30.9466 12.5003 31.4989 12.5003C32.0512 12.5003 32.4989 12.0526 32.4989 11.5003V4.00073C32.4989 3.44845 32.0512 3.00073 31.4989 3.00073H23.9994ZM31.4989 20.4997C32.0512 20.4997 32.4989 20.9474 32.4989 21.4997V28.9992C32.4989 29.5515 32.0512 29.9992 31.4989 29.9992H23.9994C23.4471 29.9992 22.9994 29.5515 22.9994 28.9992C22.9994 28.4469 23.4471 27.9992 23.9994 27.9992H30.4989V21.4997C30.4989 20.9474 30.9466 20.4997 31.4989 20.4997ZM2.50073 21.4997C2.50073 20.9474 2.05302 20.4997 1.50073 20.4997C0.948448 20.4997 0.500732 20.9474 0.500732 21.4997V28.9992C0.500732 29.5515 0.948448 29.9992 1.50073 29.9992H9.00028C9.55257 29.9992 10.0003 29.5515 10.0003 28.9992C10.0003 28.4469 9.55257 27.9992 9.00028 27.9992H2.50073V21.4997Z" fill="#111827"/>
</svg>
