<svg width="33" height="32" viewBox="0 0 33 32" fill="none" xmlns="http://www.w3.org/2000/svg">
<path fill-rule="evenodd" clip-rule="evenodd" d="M9.73994 7.76978H2.50085V8.08627L12.8759 18.4613H20.4315L9.73994 7.76978ZM23.2599 18.4613H25.7148C25.7199 18.4612 25.725 18.4612 25.7302 18.4612C25.7353 18.4612 25.7404 18.4612 25.7456 18.4613H30.499V18.145L20.1238 7.76978H12.5684L23.2599 18.4613ZM10.1542 5.76978L1.50085 5.76978C0.94857 5.76978 0.500855 6.21749 0.500855 6.76978L0.500854 8.50048L0.500855 19.4613C0.500855 20.0136 0.94857 20.4613 1.50085 20.4613H6.26968V25.2301C6.26968 25.7824 6.7174 26.2301 7.26968 26.2301C7.82196 26.2301 8.26968 25.7824 8.26968 25.2301V20.4613H12.4522C12.4585 20.4614 12.4649 20.4614 12.4712 20.4613H24.7302V25.2301C24.7302 25.7824 25.1779 26.2301 25.7302 26.2301C26.2825 26.2301 26.7302 25.7824 26.7302 25.2301V20.4613H31.499C32.0513 20.4613 32.499 20.0136 32.499 19.4613V6.76978C32.499 6.21749 32.0513 5.76978 31.499 5.76978L20.538 5.76978H10.1542ZM22.9523 7.76978L30.499 15.3165V7.76978H22.9523ZM10.0475 18.4613L2.50085 10.9147V18.4613H7.25427C7.2594 18.4612 7.26453 18.4612 7.26968 18.4612C7.27483 18.4612 7.27996 18.4612 7.28509 18.4613H10.0475Z" fill="#111827"/>
</svg>
