<svg width="33" height="33" viewBox="0 0 33 33" fill="none" xmlns="http://www.w3.org/2000/svg">
<path fill-rule="evenodd" clip-rule="evenodd" d="M5.87534 7.38379C3.77185 9.83309 2.50073 13.018 2.50073 16.4998C2.50073 19.9816 3.77183 23.1665 5.87529 25.6158C6.24579 25.184 6.58815 24.7318 6.90116 24.262C7.20738 23.8024 7.82822 23.678 8.28783 23.9843C8.74744 24.2905 8.87179 24.9113 8.56557 25.3709C8.17814 25.9524 7.75139 26.5103 7.28709 27.0405C9.74897 29.194 12.972 30.4989 16.4998 30.4989C20.0276 30.4989 23.2506 29.194 25.7125 27.0405C25.2482 26.5103 24.8215 25.9524 24.434 25.3709C24.1278 24.9113 24.2522 24.2905 24.7118 23.9843C25.1714 23.678 25.7922 23.8024 26.0984 24.262C26.4115 24.7318 26.7538 25.184 27.1243 25.6158C29.2278 23.1665 30.4989 19.9816 30.4989 16.4998C30.4989 13.018 29.2278 9.83308 27.1243 7.38378C26.7538 7.81549 26.4115 8.26765 26.0985 8.7374C25.7923 9.19701 25.1715 9.32135 24.7119 9.01512C24.2522 8.70889 24.1279 8.08806 24.4341 7.62844C24.8215 7.04702 25.2482 6.48917 25.7125 5.9591C23.2506 3.80564 20.0276 2.50073 16.4998 2.50073C12.972 2.50073 9.74903 3.80564 7.28715 5.95911C7.75139 6.48918 8.17808 7.04702 8.56547 7.62844C8.8717 8.08806 8.74736 8.70889 8.28775 9.01512C7.82814 9.32135 7.2073 9.19701 6.90108 8.7374C6.5881 8.26766 6.2458 7.8155 5.87534 7.38379ZM5.16055 5.21302C2.28069 8.10618 0.500732 12.0951 0.500732 16.4998C0.500732 25.3359 7.66377 32.4989 16.4998 32.4989C25.3359 32.4989 32.4989 25.3359 32.4989 16.4998C32.4989 12.0942 30.7182 8.10454 27.8373 5.21123L27.83 5.2039L27.8277 5.20161C24.9313 2.29762 20.9254 0.500732 16.4998 0.500732C12.0751 0.500732 8.06997 2.29689 5.17368 5.19985C5.17231 5.2012 5.17095 5.20255 5.16958 5.2039C5.16655 5.20693 5.16354 5.20997 5.16055 5.21302ZM23.231 12.599C23.7727 12.7065 24.1247 13.2329 24.0172 13.7746C23.8403 14.6656 23.7494 15.5779 23.7494 16.4997C23.7494 17.4215 23.8403 18.3338 24.0171 19.2248C24.1247 19.7665 23.7727 20.2928 23.2309 20.4003C22.6892 20.5079 22.1629 20.1559 22.0554 19.6141C21.8533 18.5958 21.7494 17.553 21.7494 16.4997C21.7494 15.4463 21.8533 14.4036 22.0554 13.3852C22.163 12.8435 22.6893 12.4915 23.231 12.599ZM8.98244 13.7746C8.87492 13.2329 9.2269 12.7065 9.76862 12.599C10.3103 12.4915 10.8366 12.8435 10.9442 13.3852C11.1463 14.4036 11.2502 15.4463 11.2502 16.4997C11.2502 17.553 11.1463 18.5958 10.9442 19.6141C10.8367 20.1559 10.3104 20.5079 9.76866 20.4003C9.22694 20.2928 8.87495 19.7665 8.98246 19.2248C9.1593 18.3338 9.2502 17.4215 9.25019 16.4997C9.25019 15.5779 9.15928 14.6656 8.98244 13.7746Z" fill="#111827"/>
</svg>
