<svg width="33" height="32" viewBox="0 0 33 32" fill="none" xmlns="http://www.w3.org/2000/svg">
<path fill-rule="evenodd" clip-rule="evenodd" d="M5.87534 6.88379C3.77185 9.33309 2.50073 12.518 2.50073 15.9998C2.50073 19.4816 3.77183 22.6665 5.87529 25.1158C6.24579 24.684 6.58815 24.2318 6.90116 23.762C7.20738 23.3024 7.82822 23.178 8.28783 23.4843C8.74744 23.7905 8.87179 24.4113 8.56557 24.8709C8.17814 25.4524 7.75139 26.0103 7.28709 26.5405C9.74897 28.694 12.972 29.9989 16.4998 29.9989C20.0276 29.9989 23.2506 28.694 25.7125 26.5405C25.2482 26.0103 24.8215 25.4524 24.434 24.8709C24.1278 24.4113 24.2522 23.7905 24.7118 23.4843C25.1714 23.178 25.7922 23.3024 26.0984 23.762C26.4115 24.2318 26.7538 24.684 27.1243 25.1158C29.2278 22.6665 30.4989 19.4816 30.4989 15.9998C30.4989 12.518 29.2278 9.33308 27.1243 6.88378C26.7538 7.31549 26.4115 7.76765 26.0985 8.2374C25.7923 8.69701 25.1715 8.82135 24.7119 8.51512C24.2522 8.20889 24.1279 7.58806 24.4341 7.12844C24.8215 6.54702 25.2482 5.98917 25.7125 5.4591C23.2506 3.30564 20.0276 2.00073 16.4998 2.00073C12.972 2.00073 9.74903 3.30564 7.28715 5.45911C7.75139 5.98918 8.17808 6.54702 8.56547 7.12844C8.8717 7.58806 8.74736 8.20889 8.28775 8.51512C7.82814 8.82135 7.2073 8.69701 6.90108 8.2374C6.5881 7.76766 6.2458 7.3155 5.87534 6.88379ZM5.16055 4.71302C2.28069 7.60618 0.500732 11.5951 0.500732 15.9998C0.500732 24.8359 7.66377 31.9989 16.4998 31.9989C25.3359 31.9989 32.4989 24.8359 32.4989 15.9998C32.4989 11.5942 30.7182 7.60454 27.8373 4.71123L27.83 4.7039L27.8277 4.70161C24.9313 1.79762 20.9254 0.000732422 16.4998 0.000732422C12.0751 0.000732422 8.06997 1.79689 5.17368 4.69985C5.17231 4.7012 5.17095 4.70255 5.16958 4.7039C5.16655 4.70693 5.16354 4.70997 5.16055 4.71302ZM23.231 12.099C23.7727 12.2065 24.1247 12.7329 24.0172 13.2746C23.8403 14.1656 23.7494 15.0779 23.7494 15.9997C23.7494 16.9215 23.8403 17.8338 24.0171 18.7248C24.1247 19.2665 23.7727 19.7928 23.2309 19.9003C22.6892 20.0079 22.1629 19.6559 22.0554 19.1141C21.8533 18.0958 21.7494 17.053 21.7494 15.9997C21.7494 14.9463 21.8533 13.9036 22.0554 12.8852C22.163 12.3435 22.6893 11.9915 23.231 12.099ZM8.98244 13.2746C8.87492 12.7329 9.2269 12.2065 9.76862 12.099C10.3103 11.9915 10.8366 12.3435 10.9442 12.8852C11.1463 13.9036 11.2502 14.9463 11.2502 15.9997C11.2502 17.053 11.1463 18.0958 10.9442 19.1141C10.8367 19.6559 10.3104 20.0079 9.76866 19.9003C9.22694 19.7928 8.87495 19.2665 8.98246 18.7248C9.1593 17.8338 9.2502 16.9215 9.25019 15.9997C9.25019 15.0779 9.15928 14.1656 8.98244 13.2746Z" fill="#111827"/>
</svg>
