<svg width="33" height="33" viewBox="0 0 33 33" fill="none" xmlns="http://www.w3.org/2000/svg">
<path fill-rule="evenodd" clip-rule="evenodd" d="M15.4998 2.5359C12.3649 2.75716 9.51505 4.0106 7.28793 5.95842C8.44096 7.2723 9.37177 8.76862 10.0411 10.3885C10.7143 12.0177 11.1119 13.745 11.2199 15.4998H15.4998V2.5359ZM16.4998 0.500732C12.0778 0.500732 8.07471 2.29477 5.17882 5.1947L5.16854 5.20483L5.15533 5.21826C2.27854 8.111 0.500732 12.0978 0.500732 16.4998C0.500732 25.3359 7.66377 32.4989 16.4998 32.4989C25.3359 32.4989 32.4989 25.3359 32.4989 16.4998C32.4989 12.0942 30.7182 8.10454 27.8373 5.21123L27.83 5.2039L27.8277 5.20161C24.9313 2.29762 20.9254 0.500732 16.4998 0.500732ZM17.4998 2.5359V15.4998H21.7807C22.0014 11.9728 23.3845 8.61709 25.7125 5.9591C23.4852 4.01088 20.635 2.75718 17.4998 2.5359ZM15.4998 17.4998H11.2199C11.1119 19.2546 10.7143 20.9818 10.0412 22.6109C9.3718 24.2309 8.44095 25.7272 7.28788 27.0412C9.51501 28.989 12.3649 30.2425 15.4998 30.4637V17.4998ZM17.4998 30.4637V17.4998H21.7807C22.0014 21.0268 23.3846 24.3825 25.7125 27.0405C23.4853 28.9887 20.6351 30.2425 17.4998 30.4637ZM8.19269 11.1523C8.76573 12.5391 9.11045 14.0073 9.21559 15.4998H2.5359C2.75403 12.4093 3.97532 9.59578 5.87614 7.38287C6.84245 8.50644 7.62507 9.77855 8.19269 11.1523ZM9.21559 17.4998H2.5359C2.75402 20.5903 3.97529 23.4038 5.87608 25.6167C6.84244 24.4931 7.62509 23.2209 8.19272 21.8472C8.76573 20.4604 9.11044 18.9923 9.21559 17.4998ZM27.1243 7.38378C29.0246 9.59655 30.2456 12.4097 30.4637 15.4998H23.7851C23.9994 12.5066 25.1706 9.66057 27.1243 7.38378ZM30.4637 17.4998H23.7852C23.9994 20.493 25.1706 23.339 27.1243 25.6158C29.0247 23.403 30.2456 20.5899 30.4637 17.4998Z" fill="#111827"/>
</svg>
