<svg width="33" height="32" viewBox="0 0 33 32" fill="none" xmlns="http://www.w3.org/2000/svg">
<path fill-rule="evenodd" clip-rule="evenodd" d="M15.4998 2.0359C12.3649 2.25716 9.51505 3.5106 7.28793 5.45842C8.44096 6.7723 9.37177 8.26862 10.0411 9.88853C10.7143 11.5177 11.1119 13.245 11.2199 14.9998H15.4998V2.0359ZM16.4998 0.000732422C12.0778 0.000732422 8.07471 1.79477 5.17882 4.6947L5.16854 4.70483L5.15533 4.71826C2.27854 7.611 0.500732 11.5978 0.500732 15.9998C0.500732 24.8359 7.66377 31.9989 16.4998 31.9989C25.3359 31.9989 32.4989 24.8359 32.4989 15.9998C32.4989 11.5942 30.7182 7.60454 27.8373 4.71123L27.83 4.7039L27.8277 4.70161C24.9313 1.79762 20.9254 0.000732422 16.4998 0.000732422ZM17.4998 2.0359V14.9998H21.7807C22.0014 11.4728 23.3845 8.11709 25.7125 5.4591C23.4852 3.51088 20.635 2.25718 17.4998 2.0359ZM15.4998 16.9998H11.2199C11.1119 18.7546 10.7143 20.4818 10.0412 22.1109C9.3718 23.7309 8.44095 25.2272 7.28788 26.5412C9.51501 28.489 12.3649 29.7425 15.4998 29.9637V16.9998ZM17.4998 29.9637V16.9998H21.7807C22.0014 20.5268 23.3846 23.8825 25.7125 26.5405C23.4853 28.4887 20.6351 29.7425 17.4998 29.9637ZM8.19269 10.6523C8.76573 12.0391 9.11045 13.5073 9.21559 14.9998H2.5359C2.75403 11.9093 3.97532 9.09578 5.87614 6.88287C6.84245 8.00644 7.62507 9.27855 8.19269 10.6523ZM9.21559 16.9998H2.5359C2.75402 20.0903 3.97529 22.9038 5.87608 25.1167C6.84244 23.9931 7.62509 22.7209 8.19272 21.3472C8.76573 19.9604 9.11044 18.4923 9.21559 16.9998ZM27.1243 6.88378C29.0246 9.09655 30.2456 11.9097 30.4637 14.9998H23.7851C23.9994 12.0066 25.1706 9.16057 27.1243 6.88378ZM30.4637 16.9998H23.7852C23.9994 19.993 25.1706 22.839 27.1243 25.1158C29.0247 22.903 30.2456 20.0899 30.4637 16.9998Z" fill="#111827"/>
</svg>
