<svg width="32" height="33" viewBox="0 0 32 33" fill="none" xmlns="http://www.w3.org/2000/svg">
<path d="M10 23.7856V26.3571" stroke="#1C1B1F" stroke-width="2" stroke-linecap="round" stroke-linejoin="round"/>
<path d="M22 23.7856V26.3571" stroke="#1C1B1F" stroke-width="2" stroke-linecap="round" stroke-linejoin="round"/>
<path d="M4 14.8572C4 14.581 4.22386 14.3572 4.5 14.3572H27.5C27.7761 14.3572 28 14.581 28 14.8572V18.7857C28 21.5472 25.7614 23.7857 23 23.7857H9C6.23858 23.7857 4 21.5472 4 18.7858V14.8572Z" stroke="#1C1B1F" stroke-width="2"/>
<rect x="16.8572" y="14.3569" width="6.85714" height="4.28583" rx="0.5" stroke="#1C1B1F" stroke-width="2"/>
<path d="M8.28564 14.357V8.64282C8.28564 7.53825 9.18108 6.64282 10.2856 6.64282H10.5714C11.6759 6.64282 12.5714 7.53825 12.5714 8.64282V8.78564" stroke="#1C1B1F" stroke-width="2" stroke-linecap="round"/>
</svg>
