<svg width="33" height="33" viewBox="0 0 33 33" fill="none" xmlns="http://www.w3.org/2000/svg">
<path fill-rule="evenodd" clip-rule="evenodd" d="M8.85744 3.1792C7.20059 3.1792 5.85744 4.52234 5.85744 6.1792V12.8216H2.00073C1.17231 12.8216 0.500732 13.4931 0.500732 14.3216V20.6066C0.500732 23.9203 3.18702 26.6066 6.50073 26.6066H8.00027V28.8206C8.00027 29.3729 8.44798 29.8206 9.00027 29.8206C9.55255 29.8206 10.0003 29.3729 10.0003 28.8206V26.6066H22.9993V28.8206C22.9993 29.3729 23.4471 29.8206 23.9993 29.8206C24.5516 29.8206 24.9993 29.3729 24.9993 28.8206V26.6066H26.4989C29.8126 26.6066 32.4989 23.9203 32.4989 20.6066V14.3216C32.4989 13.4931 31.8273 12.8216 30.9989 12.8216H25.6696L25.6422 12.8213H18.0713L18.044 12.8216H7.85744V6.1792C7.85744 5.62691 8.30515 5.1792 8.85744 5.1792H10.2143C10.7665 5.1792 11.2143 5.62691 11.2143 6.1792V6.85756C11.2143 7.40984 11.662 7.85756 12.2143 7.85756C12.7665 7.85756 13.2143 7.40984 13.2143 6.85756V6.1792C13.2143 4.52234 11.8711 3.1792 10.2143 3.1792H8.85744ZM2.50073 14.8216H16.5713V18.6783C16.5713 19.5067 17.2429 20.1783 18.0713 20.1783H25.6422C26.4707 20.1783 27.1422 19.5067 27.1422 18.6783V14.8216H30.4989V20.6066C30.4989 22.8157 28.708 24.6066 26.4989 24.6066H24.0088L23.9993 24.6065L23.9899 24.6066H9.00973L9.00027 24.6065L8.9908 24.6066H6.50073C4.29159 24.6066 2.50073 22.8157 2.50073 20.6066V14.8216ZM25.1422 14.8216H18.5713V18.1783H25.1422V14.8216Z" fill="#111827"/>
</svg>
