<svg width="33" height="32" viewBox="0 0 33 32" fill="none" xmlns="http://www.w3.org/2000/svg">
<path fill-rule="evenodd" clip-rule="evenodd" d="M1.50092 5.18243C0.948631 5.18243 0.500916 5.63015 0.500916 6.18243V25.8176C0.500916 26.3699 0.948631 26.8176 1.50092 26.8176H26.5903C27.1426 26.8176 27.5903 26.3699 27.5903 25.8176V6.18243C27.5903 5.63015 27.1426 5.18243 26.5903 5.18243H1.50092ZM2.50092 24.8176V7.18243H25.5903V24.8176H2.50092ZM7.50061 9.75049C7.50061 9.1982 7.05289 8.75049 6.50061 8.75049C5.94832 8.75049 5.50061 9.1982 5.50061 9.75049V22.2497C5.50061 22.802 5.94832 23.2497 6.50061 23.2497C7.05289 23.2497 7.50061 22.802 7.50061 22.2497V9.75049ZM11.5003 8.75049C12.0526 8.75049 12.5003 9.1982 12.5003 9.75049V22.2497C12.5003 22.802 12.0526 23.2497 11.5003 23.2497C10.948 23.2497 10.5003 22.802 10.5003 22.2497V9.75049C10.5003 9.1982 10.948 8.75049 11.5003 8.75049ZM16.5 8.75049C17.0523 8.75049 17.5 9.1982 17.5 9.75049V22.2497C17.5 22.802 17.0523 23.2497 16.5 23.2497C15.9477 23.2497 15.5 22.802 15.5 22.2497V9.75049C15.5 9.1982 15.9477 8.75049 16.5 8.75049ZM31.4991 10.6366C32.0514 10.6366 32.4991 11.0844 32.4991 11.6366V20.3634C32.4991 20.9157 32.0514 21.3634 31.4991 21.3634C30.9468 21.3634 30.4991 20.9157 30.4991 20.3634V11.6366C30.4991 11.0844 30.9468 10.6366 31.4991 10.6366Z" fill="#111827"/>
</svg>
