<svg width="33" height="32" viewBox="0 0 33 32" fill="none" xmlns="http://www.w3.org/2000/svg">
<path fill-rule="evenodd" clip-rule="evenodd" d="M12.1366 0.000915527C11.5844 0.000915527 11.1366 0.448631 11.1366 1.00092C11.1366 1.5532 11.5844 2.00092 12.1366 2.00092H20.8634C21.4157 2.00092 21.8634 1.5532 21.8634 1.00092C21.8634 0.448631 21.4157 0.000915527 20.8634 0.000915527H12.1366ZM18.125 11.5798C18.125 11.0276 17.6773 10.5798 17.125 10.5798C16.5727 10.5798 16.125 11.0276 16.125 11.5798V17.8295C16.125 18.3817 16.5727 18.8295 17.125 18.8295C17.6773 18.8295 18.125 18.3817 18.125 17.8295V11.5798ZM17.125 25.329C18.1605 25.329 18.9999 24.4896 18.9999 23.4541C18.9999 22.4187 18.1605 21.5793 17.125 21.5793C16.0895 21.5793 15.2501 22.4187 15.2501 23.4541C15.2501 24.4896 16.0895 25.329 17.125 25.329ZM5.68243 30.9991C5.68243 31.5514 6.13015 31.9991 6.68243 31.9991H26.3176C26.8699 31.9991 27.3176 31.5514 27.3176 30.9991V5.90972C27.3176 5.35744 26.8699 4.90972 26.3176 4.90972H6.68243C6.13015 4.90972 5.68243 5.35744 5.68243 5.90972V30.9991ZM25.3176 29.9991H7.68243V6.90972H25.3176V29.9991Z" fill="#111827"/>
</svg>
