<svg width="33" height="32" viewBox="0 0 33 32" fill="none" xmlns="http://www.w3.org/2000/svg">
<path fill-rule="evenodd" clip-rule="evenodd" d="M1.50092 5.18243C0.948631 5.18243 0.500916 5.63015 0.500916 6.18243V25.8176C0.500916 26.3699 0.948631 26.8176 1.50092 26.8176H26.5903C27.1426 26.8176 27.5903 26.3699 27.5903 25.8176V6.18243C27.5903 5.63015 27.1426 5.18243 26.5903 5.18243H1.50092ZM2.50092 24.8176V7.18243H25.5903V24.8176H2.50092ZM14.5211 9.47778C15.0335 9.68397 15.2817 10.2665 15.0755 10.7788L13.4047 14.9305H16.3038C16.6334 14.9305 16.9419 15.0929 17.1284 15.3647C17.3149 15.6365 17.3555 15.9827 17.2369 16.2902L15.0808 21.8826C14.8822 22.3979 14.3034 22.6546 13.788 22.456C13.2727 22.2573 13.016 21.6785 13.2147 21.1632L14.8466 16.9305H11.9243C11.5921 16.9305 11.2816 16.7655 11.0956 16.4903C10.9097 16.215 10.8726 15.8653 10.9966 15.5572L13.2201 10.0321C13.4263 9.51978 14.0088 9.27159 14.5211 9.47778ZM31.4991 10.6366C32.0514 10.6366 32.4991 11.0844 32.4991 11.6366V20.3634C32.4991 20.9157 32.0514 21.3634 31.4991 21.3634C30.9468 21.3634 30.4991 20.9157 30.4991 20.3634V11.6366C30.4991 11.0844 30.9468 10.6366 31.4991 10.6366Z" fill="#111827"/>
</svg>
