<svg width="33" height="32" viewBox="0 0 33 32" fill="none" xmlns="http://www.w3.org/2000/svg">
<path fill-rule="evenodd" clip-rule="evenodd" d="M11.1366 1.00092C11.1366 0.448631 11.5844 0.000915527 12.1366 0.000915527H20.8634C21.4157 0.000915527 21.8634 0.448631 21.8634 1.00092C21.8634 1.5532 21.4157 2.00092 20.8634 2.00092H12.1366C11.5844 2.00092 11.1366 1.5532 11.1366 1.00092ZM16.8712 11.8995C17.3836 12.1057 17.6318 12.6882 17.4256 13.2006L15.7548 17.3522H18.654C18.9836 17.3522 19.292 17.5147 19.4785 17.7864C19.665 18.0582 19.7056 18.4044 19.587 18.712L17.431 24.3044C17.2323 24.8197 16.6535 25.0764 16.1382 24.8777C15.6229 24.679 15.3662 24.1002 15.5648 23.5849L17.1967 19.3522H14.2744C13.9422 19.3522 13.6317 19.1873 13.4457 18.912C13.2598 18.6367 13.2227 18.2871 13.3467 17.9789L15.5702 12.4539C15.7764 11.9415 16.3589 11.6933 16.8712 11.8995ZM5.68243 30.9991C5.68243 31.5514 6.13015 31.9991 6.68243 31.9991H26.3176C26.8699 31.9991 27.3176 31.5514 27.3176 30.9991V5.90972C27.3176 5.35744 26.8699 4.90972 26.3176 4.90972H6.68243C6.13015 4.90972 5.68243 5.35744 5.68243 5.90972V30.9991ZM25.3176 29.9991H7.68243V6.90972H25.3176V29.9991Z" fill="#111827"/>
</svg>
