<svg width="33" height="32" viewBox="0 0 33 32" fill="none" xmlns="http://www.w3.org/2000/svg">
<path fill-rule="evenodd" clip-rule="evenodd" d="M1.50092 5.18243C0.948631 5.18243 0.500916 5.63015 0.500916 6.18243V25.8176C0.500916 26.3699 0.948631 26.8176 1.50092 26.8176H26.5903C27.1426 26.8176 27.5903 26.3699 27.5903 25.8176V6.18243C27.5903 5.63015 27.1426 5.18243 26.5903 5.18243H1.50092ZM2.50092 24.8176V7.18243H25.5903V24.8176H2.50092ZM15.0457 9.75043C15.0457 9.19814 14.5979 8.75043 14.0457 8.75043C13.4934 8.75043 13.0457 9.19814 13.0457 9.75043V16C13.0457 16.5523 13.4934 17 14.0457 17C14.5979 17 15.0457 16.5523 15.0457 16V9.75043ZM32.4991 11.6366C32.4991 11.0844 32.0513 10.6366 31.4991 10.6366C30.9468 10.6366 30.4991 11.0844 30.4991 11.6366V20.3634C30.4991 20.9157 30.9468 21.3634 31.4991 21.3634C32.0513 21.3634 32.4991 20.9157 32.4991 20.3634V11.6366ZM14.0456 23.4996C15.0811 23.4996 15.9205 22.6601 15.9205 21.6247C15.9205 20.5892 15.0811 19.7498 14.0456 19.7498C13.0101 19.7498 12.1707 20.5892 12.1707 21.6247C12.1707 22.6601 13.0101 23.4996 14.0456 23.4996Z" fill="#111827"/>
</svg>
