<svg width="33" height="32" viewBox="0 0 33 32" fill="none" xmlns="http://www.w3.org/2000/svg">
<path fill-rule="evenodd" clip-rule="evenodd" d="M1.50085 4.28638C2.05314 4.28638 2.50085 4.73409 2.50085 5.28638V8.57179H13.2858H26.499C29.8127 8.57179 32.499 11.2581 32.499 14.5718V20.8568C32.499 20.9509 32.4903 21.0431 32.4738 21.1324C32.4903 21.2046 32.499 21.2797 32.499 21.3568V26.7136C32.499 27.2659 32.0513 27.7136 31.499 27.7136C30.9467 27.7136 30.499 27.2659 30.499 26.7136V22.3568H2.50085V26.7136C2.50085 27.2659 2.05314 27.7136 1.50085 27.7136C0.94857 27.7136 0.500854 27.2659 0.500854 26.7136V21.3568C0.500854 21.2797 0.50959 21.2046 0.526125 21.1324C0.50953 21.0431 0.500854 20.9509 0.500854 20.8568V9.57183V9.57179V5.28638C0.500854 4.73409 0.94857 4.28638 1.50085 4.28638ZM2.50085 10.5718H12.2858V20.3568H2.50085V10.5718ZM14.2858 10.5718V20.3568H30.499V14.5718C30.499 12.3627 28.7082 10.5718 26.499 10.5718H14.2858Z" fill="#111827"/>
</svg>
