<svg width="33" height="33" viewBox="0 0 33 33" fill="none" xmlns="http://www.w3.org/2000/svg">
<path fill-rule="evenodd" clip-rule="evenodd" d="M27.8102 0.794114C27.4197 0.40359 26.7865 0.40359 26.396 0.794114C26.0055 1.18464 26.0055 1.8178 26.396 2.20833L26.7027 2.51504L19.652 7.61454L14.2398 8.86899C14.0576 8.91124 13.8908 9.00377 13.7585 9.13606L0.943529 21.9511C0.558915 22.3357 0.552248 22.9572 0.928521 23.3499L9.3976 32.1905C9.58364 32.3847 9.84007 32.4958 10.109 32.4986C10.3779 32.5015 10.6367 32.396 10.8268 32.2058L23.8275 19.2051C23.9617 19.0709 24.0549 18.9014 24.0963 18.7163L25.3143 13.2712L30.4116 6.22396L30.642 6.45428C31.0325 6.8448 31.6656 6.8448 32.0562 6.45428C32.4467 6.06376 32.4467 5.43059 32.0562 5.04007L27.8102 0.794114ZM28.9793 4.79164L28.1351 3.94737L20.6605 9.35341C20.5526 9.4315 20.4301 9.48722 20.3003 9.51731L14.9703 10.7527L13.6318 12.0912L20.8724 19.3318L22.2079 17.9962L23.4074 12.6337C23.4371 12.5011 23.4935 12.376 23.5731 12.2659L28.9793 4.79164ZM19.4582 20.746L12.2176 13.5054L6.20145 19.5216L13.442 26.7622L19.4582 20.746ZM12.0278 28.1764L4.78723 20.9358L3.04984 22.6732L10.1351 30.0691L12.0278 28.1764Z" fill="#111827"/>
</svg>
