<svg width="32" height="32" viewBox="0 0 32 32" fill="none" xmlns="http://www.w3.org/2000/svg">
<path d="M18.7693 18.7734C18.7693 21.3224 20.8357 23.3888 23.3847 23.3888C24.6187 23.3888 25.7395 22.9045 26.5676 22.1157M18.7693 18.7734C18.7693 16.2243 20.8357 14.158 23.3847 14.158C25.765 14.158 27.7245 15.9599 27.9734 18.2742C28.0029 18.5487 27.7762 18.7734 27.5001 18.7734H18.7693Z" stroke="#1C1B1F" stroke-width="2" stroke-linecap="round"/>
<path d="M19.6921 10.4574H27.0767" stroke="#1C1B1F" stroke-width="2" stroke-linecap="round" stroke-linejoin="round"/>
<path d="M4 8.6594C4 8.63278 4.02158 8.61121 4.04819 8.61121H10.2348C12.1409 8.61121 13.6861 10.1564 13.6861 12.0626V12.0626C13.6861 13.9687 12.1409 15.5139 10.2348 15.5139H4.04819C4.02158 15.5139 4 15.4924 4 15.4657V8.6594Z" stroke="#1C1B1F" stroke-width="2"/>
<path d="M4 15.5714C4 15.5397 4.0257 15.514 4.05741 15.514H11.6052C13.7775 15.514 15.5384 17.275 15.5384 19.4472V19.4472C15.5384 21.6195 13.7775 23.3804 11.6052 23.3804H4.05741C4.0257 23.3804 4 23.3547 4 23.323V15.5714Z" stroke="#1C1B1F" stroke-width="2"/>
</svg>
