<svg width="33" height="32" viewBox="0 0 33 32" fill="none" xmlns="http://www.w3.org/2000/svg">
<path fill-rule="evenodd" clip-rule="evenodd" d="M0.500977 6.81894C0.500977 6.23337 0.975676 5.75867 1.56125 5.75867H9.29899C12.2353 5.75867 14.6157 8.13905 14.6157 11.0754C14.6157 12.5141 14.0443 13.8194 13.1159 14.7766C15.347 15.6247 16.9325 17.783 16.9325 20.3116C16.9325 23.5808 14.2823 26.231 11.0131 26.231H1.57278C0.980841 26.231 0.500977 25.7511 0.500977 25.1592V15.464C0.500977 15.4417 0.501654 15.4197 0.50299 15.3977C0.501654 15.376 0.500977 15.354 0.500977 15.3319V6.81894ZM2.50098 7.75867V14.3921H9.29899C11.1308 14.3921 12.6157 12.9072 12.6157 11.0754C12.6157 9.24362 11.1308 7.75867 9.29899 7.75867H2.50098ZM21.1275 8.06772C20.5752 8.06772 20.1275 8.51544 20.1275 9.06772C20.1275 9.62001 20.5752 10.0677 21.1275 10.0677H30.3637C30.916 10.0677 31.3637 9.62001 31.3637 9.06772C31.3637 8.51544 30.916 8.06772 30.3637 8.06772H21.1275ZM31.0185 20.4687H21.0781C21.5377 22.6245 23.4529 24.2414 25.7458 24.2414C27.0223 24.2414 28.1798 23.7416 29.0371 22.925C29.4369 22.5441 30.0699 22.5595 30.4508 22.9594C30.8318 23.3592 30.8164 23.9922 30.4165 24.3732C29.2023 25.5298 27.5561 26.2414 25.7458 26.2414C22.0054 26.2414 18.9732 23.2092 18.9732 19.4687C18.9732 15.7283 22.0054 12.6961 25.7458 12.6961C29.2892 12.6961 32.1962 15.4166 32.4935 18.8835C32.572 19.7988 31.8225 20.4687 31.0185 20.4687ZM21.0781 18.4687C21.5377 16.313 23.4529 14.6961 25.7458 14.6961C28.0385 14.6961 29.9544 16.3133 30.4137 18.4687H21.0781ZM2.50098 24.231V16.3922H11.0131C13.1777 16.3922 14.9325 18.1469 14.9325 20.3116C14.9325 22.4762 13.1777 24.231 11.0131 24.231H2.50098Z" fill="#111827"/>
</svg>
