<svg width="33" height="32" viewBox="0 0 33 32" fill="none" xmlns="http://www.w3.org/2000/svg">
<path fill-rule="evenodd" clip-rule="evenodd" d="M2.0196 25.3015C1.84713 24.9693 1.87397 24.5688 2.08921 24.2626L2.09054 24.2607L2.09632 24.2524L2.12095 24.217C2.14301 24.1851 2.17609 24.137 2.21877 24.0741C2.30414 23.9483 2.42777 23.7637 2.57828 23.532C2.87971 23.0679 3.28686 22.4179 3.7097 21.675C4.57521 20.1544 5.43273 18.3697 5.67103 17.0049C5.83541 16.0636 5.87291 15.0479 5.8111 13.9927C5.61793 10.6949 6.55099 7.23962 8.37744 4.58656C10.2113 1.92267 13.0041 0 16.5 0C19.996 0 22.7887 1.92267 24.6226 4.58656C26.4491 7.23962 27.3821 10.6949 27.189 13.9927C27.1272 15.0479 27.1647 16.0636 27.329 17.0049C27.5673 18.3697 28.4249 20.1544 29.2904 21.675C29.7132 22.4179 30.1204 23.0679 30.4218 23.532C30.5723 23.7637 30.6959 23.9483 30.7813 24.0741C30.824 24.137 30.8571 24.1851 30.8791 24.217L30.9038 24.2524L30.9095 24.2607L30.9107 24.2624C31.126 24.5686 31.1529 24.9693 30.9805 25.3015C30.808 25.6337 30.4648 25.8421 30.0905 25.8421H22.5019V26.0709C22.5019 27.6482 21.8659 29.1578 20.7387 30.2686C19.6121 31.3789 18.0871 32 16.5 32C14.9129 32 13.3879 31.3789 12.2612 30.2686C11.1341 29.1578 10.4981 27.6482 10.4981 26.0709V25.8421H2.90958C2.53526 25.8421 2.1921 25.6337 2.0196 25.3015ZM12.5037 25.8421V26.0709C12.5037 27.1067 12.9211 28.1031 13.669 28.84C14.4173 29.5775 15.4354 29.9944 16.5 29.9944C17.5646 29.9944 18.5826 29.5775 19.331 28.84C20.0789 28.1031 20.4963 27.1067 20.4963 26.0709V25.8421H12.5037ZM28.2411 23.8365C28.025 23.4862 27.7888 23.0914 27.5473 22.6671C26.6735 21.1319 25.6564 19.0856 25.3533 17.3499C25.1566 16.2232 25.1181 15.048 25.1868 13.8754C25.355 11.0045 24.5337 7.99425 22.9706 5.72384C21.4151 3.46426 19.1832 2.00561 16.5 2.00561C13.8169 2.00561 11.585 3.46426 10.0294 5.72384C8.46641 7.99425 7.64512 11.0045 7.81328 13.8754C7.88196 15.048 7.84349 16.2232 7.64675 17.3499C7.34369 19.0856 6.32655 21.1319 5.45274 22.6671C5.21125 23.0914 4.97506 23.4862 4.75894 23.8365H28.2411Z" fill="#111827"/>
</svg>
