<svg width="32" height="32" viewBox="0 0 32 32" fill="none" xmlns="http://www.w3.org/2000/svg">
<path d="M11.9999 23.0728V24.0582C11.9999 25.1036 12.4214 26.1062 13.1715 26.8455C13.9217 27.5847 14.9391 28 15.9999 28C17.0608 28 18.0782 27.5847 18.8284 26.8455C19.5785 26.1062 19.9999 25.1036 19.9999 24.0582V23.0728" stroke="#1C1B1F" stroke-width="2" stroke-linecap="round" stroke-linejoin="round"/>
<path d="M5.12561 23.0728C5.12561 23.0728 7.69244 19.423 8.12561 16.9421C8.27008 16.1147 8.30048 15.2382 8.24827 14.3469C7.95915 9.41117 11.0557 4.00007 16 4.00007V4.00007C20.9442 4.00007 24.0408 9.41117 23.7517 14.3469C23.6994 15.2382 23.7298 16.1147 23.8743 16.9421C24.3075 19.423 26.8743 23.0728 26.8743 23.0728H5.12561Z" stroke="#1C1B1F" stroke-width="2" stroke-linejoin="round"/>
</svg>
