<svg width="33" height="32" viewBox="0 0 33 32" fill="none" xmlns="http://www.w3.org/2000/svg">
<path fill-rule="evenodd" clip-rule="evenodd" d="M2.10226 24.4733L2.10216 24.4735L2.10215 24.4735C1.88752 24.7788 1.86076 25.1782 2.03275 25.5094C2.20476 25.8407 2.54696 26.0486 2.92023 26.0486H30.0797C30.453 26.0486 30.7952 25.8407 30.9672 25.5094C31.1392 25.1782 31.1124 24.7788 30.8978 24.4735L30.8977 24.4733L30.8976 24.4733L30.8964 24.4716L30.8907 24.4633L30.8661 24.4278C30.844 24.396 30.8109 24.3479 30.7683 24.285C30.683 24.1594 30.5594 23.9749 30.409 23.7433C30.1078 23.2795 29.701 22.6301 29.2785 21.8877C28.4136 20.3683 27.5566 18.5848 27.3184 17.2207C27.1542 16.2799 27.1167 15.2649 27.1785 14.2103C27.3714 10.9156 26.4392 7.46349 24.6145 4.8129C22.7823 2.15152 19.9924 0.230835 16.5 0.230835C13.0076 0.230835 10.2176 2.15152 8.38544 4.8129C6.56069 7.46348 5.62848 10.9156 5.82147 14.2103C5.88324 15.2649 5.84577 16.2799 5.68149 17.2207C5.44331 18.5848 4.58631 20.3683 3.72147 21.8877C3.29895 22.6301 2.89209 23.2795 2.59089 23.7433C2.44049 23.9749 2.31695 24.1594 2.23163 24.285C2.18898 24.3479 2.15593 24.396 2.13388 24.4278L2.10926 24.4633L2.10349 24.4716L2.1023 24.4733L2.10226 24.4733ZM27.5403 22.8771C27.7823 23.3022 28.019 23.6978 28.2354 24.0486H4.76453C4.98098 23.6978 5.21765 23.3022 5.45964 22.8771C6.33275 21.3431 7.34892 19.2986 7.65168 17.5647C7.84824 16.439 7.88668 15.2649 7.81805 14.0934C7.65 11.2244 8.47075 8.21601 10.0328 5.947C11.5874 3.68881 13.8181 2.23083 16.5 2.23083C19.1818 2.23083 21.4125 3.68881 22.9671 5.947C24.5292 8.21601 25.3499 11.2244 25.1819 14.0934C25.1133 15.2649 25.1517 16.439 25.3482 17.5647C25.651 19.2986 26.6672 21.3431 27.5403 22.8771ZM12.0424 11.2211C12.0424 10.6688 12.4901 10.2211 13.0424 10.2211H19.0902C19.4738 10.2211 19.8236 10.4405 19.9905 10.7859C20.1575 11.1313 20.1121 11.5418 19.8738 11.8424L15.1115 17.8485H19.0902C19.6425 17.8485 20.0902 18.2962 20.0902 18.8485C20.0902 19.4008 19.6425 19.8485 19.0902 19.8485H13.0424C12.6587 19.8485 12.3089 19.6291 12.142 19.2837C11.9751 18.9383 12.0204 18.5278 12.2588 18.2272L17.0211 12.2211H13.0424C12.4901 12.2211 12.0424 11.7733 12.0424 11.2211ZM10.5769 30.7692C10.5769 30.2169 11.0246 29.7692 11.5769 29.7692H21.423C21.9753 29.7692 22.423 30.2169 22.423 30.7692C22.423 31.3215 21.9753 31.7692 21.423 31.7692H11.5769C11.0246 31.7692 10.5769 31.3215 10.5769 30.7692Z" fill="#111827"/>
</svg>
