<svg width="32" height="32" viewBox="0 0 32 32" fill="none" xmlns="http://www.w3.org/2000/svg">
<path d="M12.1602 28H19.8397" stroke="#1C1B1F" stroke-width="2" stroke-linecap="round" stroke-linejoin="round"/>
<path d="M22.6515 4C24.6048 5.23312 26.1794 6.982 27.2014 9.05358" stroke="#1C1B1F" stroke-width="2" stroke-linecap="round" stroke-linejoin="round"/>
<path d="M4.79846 9.05358C5.82051 6.982 7.3951 5.23312 9.34841 4" stroke="#1C1B1F" stroke-width="2" stroke-linecap="round" stroke-linejoin="round"/>
<path d="M5.56116 23.2701C5.56116 23.2701 8.02517 19.7665 8.44099 17.3851C8.57967 16.5908 8.60885 15.7494 8.55874 14.8938C8.2812 10.1558 11.2538 4.96141 15.9999 4.96141V4.96141C20.7461 4.96141 23.7186 10.1558 23.4411 14.8938C23.391 15.7494 23.4202 16.5908 23.5589 17.3851C23.9747 19.7665 26.4387 23.2701 26.4387 23.2701H5.56116Z" stroke="#1C1B1F" stroke-width="2" stroke-linejoin="round"/>
</svg>
