<svg width="33" height="32" viewBox="0 0 33 32" fill="none" xmlns="http://www.w3.org/2000/svg">
<path fill-rule="evenodd" clip-rule="evenodd" d="M2.10229 24.2571L2.10219 24.2573L2.10218 24.2573C1.88755 24.5626 1.86079 24.962 2.03278 25.2932C2.20479 25.6245 2.54699 25.8324 2.92026 25.8324H10.5048V26.063C10.5048 27.6385 11.1401 29.1464 12.266 30.2559C13.3914 31.3649 14.9147 31.9854 16.5 31.9854C18.0853 31.9854 19.6086 31.3649 20.734 30.2559C21.8599 29.1464 22.4951 27.6385 22.4951 26.063V25.8324H30.0797C30.453 25.8324 30.7952 25.6245 30.9672 25.2932C31.1392 24.962 31.1124 24.5626 30.8978 24.2573L30.8977 24.2571L30.8977 24.2571L30.8965 24.2554L30.8907 24.2471L30.8661 24.2116C30.844 24.1798 30.811 24.1317 30.7683 24.0689C30.683 23.9432 30.5595 23.7587 30.4091 23.5271C30.1079 23.0634 29.701 22.4139 29.2785 21.6715C28.4137 20.1521 27.5567 18.3686 27.3185 17.0045C27.1542 16.0637 27.1167 15.0487 27.1785 13.9941C27.3715 10.6994 26.4393 7.2473 24.6145 4.59672C22.7823 1.93533 19.9924 0.0146484 16.5 0.0146484C13.0076 0.0146484 10.2176 1.93533 8.38547 4.59672C6.56072 7.2473 5.62851 10.6994 5.8215 13.9941C5.88328 15.0487 5.8458 16.0637 5.68152 17.0045C5.44334 18.3686 4.58634 20.1521 3.7215 21.6715C3.29898 22.4139 2.89212 23.0634 2.59092 23.5271C2.44052 23.7587 2.31698 23.9432 2.23166 24.0689C2.18901 24.1317 2.15596 24.1798 2.13391 24.2116L2.10929 24.2471L2.10352 24.2554L2.10233 24.2571L2.10229 24.2571ZM21.4951 23.8324H28.2354C28.019 23.4816 27.7823 23.086 27.5403 22.6609C26.6672 21.1269 25.651 19.0825 25.3483 17.3485C25.1517 16.2228 25.1133 15.0487 25.1819 13.8772C25.35 11.0082 24.5292 7.99982 22.9672 5.73082C21.4125 3.47262 19.1819 2.01465 16.5 2.01465C13.8181 2.01465 11.5874 3.47262 10.0328 5.73082C8.47078 7.99982 7.65003 11.0082 7.81808 13.8772C7.88671 15.0487 7.84827 16.2228 7.65171 17.3485C7.34895 19.0825 6.33279 21.1269 5.45967 22.6609C5.21768 23.086 4.98101 23.4816 4.76456 23.8324H11.5048H21.4951ZM12.5048 25.8324H20.4951V26.063C20.4951 27.0985 20.0778 28.0946 19.3302 28.8314C18.582 29.5686 17.5642 29.9854 16.5 29.9854C15.4357 29.9854 14.4179 29.5686 13.6698 28.8314C12.9221 28.0946 12.5048 27.0985 12.5048 26.063V25.8324ZM12.0424 11.0049C12.0424 10.4526 12.4901 10.0049 13.0424 10.0049H19.0902C19.4738 10.0049 19.8236 10.2243 19.9906 10.5697C20.1575 10.9151 20.1121 11.3256 19.8738 11.6262L15.1115 17.6323H19.0902C19.6425 17.6323 20.0902 18.0801 20.0902 18.6323C20.0902 19.1846 19.6425 19.6323 19.0902 19.6323H13.0424C12.6588 19.6323 12.3089 19.4129 12.142 19.0675C11.9751 18.7221 12.0205 18.3116 12.2588 18.011L17.0211 12.0049H13.0424C12.4901 12.0049 12.0424 11.5571 12.0424 11.0049Z" fill="#111827"/>
</svg>
