<svg width="33" height="32" viewBox="0 0 33 32" fill="none" xmlns="http://www.w3.org/2000/svg">
<path fill-rule="evenodd" clip-rule="evenodd" d="M2.64044 25.4953C2.46845 25.1641 2.49522 24.7647 2.70986 24.4593L2.70995 24.4592L2.70997 24.4592L2.71108 24.4576L2.71655 24.4498L2.73996 24.4161C2.76095 24.3857 2.79245 24.3399 2.83312 24.28C2.91446 24.1601 3.0323 23.9842 3.17579 23.7633C3.46317 23.3208 3.85134 22.7011 4.25442 21.9929C5.08037 20.5418 5.89546 18.844 6.12154 17.5492C6.27774 16.6546 6.31352 15.6886 6.25467 14.6839C6.06975 11.5271 6.96274 8.21949 8.71171 5.67899C10.4681 3.12768 13.1457 1.28259 16.5 1.28259C19.8542 1.28259 22.5318 3.12768 24.2882 5.67899C26.0372 8.21949 26.9302 11.5271 26.7453 14.6839C26.6864 15.6886 26.7222 16.6546 26.8784 17.5492C27.1045 18.844 27.9196 20.5418 28.7455 21.9929C29.1486 22.7011 29.5368 23.3208 29.8241 23.7633C29.9676 23.9842 30.0855 24.1601 30.1668 24.28C30.2075 24.3399 30.239 24.3857 30.26 24.4161L30.2834 24.4498L30.2889 24.4576L30.29 24.4592L30.29 24.4592L30.2901 24.4594C30.5047 24.7647 30.5315 25.1641 30.3595 25.4953C30.1875 25.8266 29.8453 26.0345 29.472 26.0345H22.2715V26.21C22.2715 27.7271 21.6598 29.179 20.5759 30.2472C19.4924 31.3149 18.026 31.9121 16.4999 31.9121C14.9739 31.9121 13.5075 31.3149 12.424 30.2472C11.34 29.179 10.7283 27.7271 10.7283 26.21V26.0345H3.52793C3.15466 26.0345 2.81246 25.8266 2.64044 25.4953ZM12.7283 26.0345V26.21C12.7283 27.1871 13.1221 28.1272 13.8278 28.8226C14.534 29.5186 15.4949 29.9121 16.4999 29.9121C17.5049 29.9121 18.4658 29.5186 19.1721 28.8226C19.8778 28.1272 20.2715 27.1871 20.2715 26.21V26.0345H12.7283ZM11.7283 24.0345H21.2715H27.6301C27.4347 23.7162 27.2232 23.3616 27.0073 22.9823C26.1731 21.5166 25.1989 19.5578 24.9082 17.8932C24.7197 16.8138 24.683 15.6887 24.7487 14.5669C24.9087 11.8358 24.1271 8.97201 22.6409 6.81309C21.162 4.66496 19.0437 3.28259 16.5 3.28259C13.9562 3.28259 11.8379 4.66497 10.3591 6.81309C8.8728 8.97201 8.09127 11.8358 8.25124 14.5669C8.31695 15.6887 8.28021 16.8138 8.09173 17.8932C7.80107 19.5578 6.82682 21.5166 5.99259 22.9823C5.7767 23.3616 5.56525 23.7162 5.36979 24.0345H11.7283Z" fill="#111827"/>
</svg>
