<svg width="33" height="32" viewBox="0 0 33 32" fill="none" xmlns="http://www.w3.org/2000/svg">
<path d="M25.348 0.155385C24.8784 -0.141063 24.2575 -0.000706497 23.961 0.468881C23.6646 0.938468 23.8049 1.55946 24.2745 1.85591C26.5585 3.29782 28.3997 5.34283 29.5948 7.76517C29.8406 8.26318 30.4435 8.46772 30.9415 8.22202C31.4395 7.97631 31.644 7.37341 31.3983 6.87539C30.0393 4.1207 27.9455 1.79513 25.348 0.155385Z" fill="#111827"/>
<path fill-rule="evenodd" clip-rule="evenodd" d="M10.6965 26.0899H3.45634C3.08101 26.0899 2.73692 25.8809 2.56396 25.5478C2.39101 25.2147 2.41793 24.8131 2.63376 24.5061L2.63499 24.5043L2.64048 24.4965L2.66402 24.4626C2.68513 24.4321 2.71681 24.386 2.75769 24.3257C2.83949 24.2052 2.95798 24.0283 3.10226 23.8062C3.39123 23.3612 3.78153 22.7382 4.18684 22.0261C5.01735 20.567 5.83694 18.8597 6.06426 17.5578C6.22133 16.6583 6.2573 15.6869 6.19812 14.6767C6.01219 11.5025 6.91011 8.17662 8.66872 5.6221C10.4348 3.05671 13.1272 1.20145 16.5 1.20145C19.8727 1.20145 22.5651 3.05671 24.3312 5.6221C26.0898 8.17662 26.9877 11.5025 26.8018 14.6767C26.7426 15.6869 26.7786 16.6583 26.9357 17.5578C27.163 18.8597 27.9826 20.567 28.8131 22.0261C29.2184 22.7382 29.6087 23.3612 29.8977 23.8062C30.0419 24.0283 30.1604 24.2052 30.2422 24.3257C30.2831 24.386 30.3148 24.4321 30.3359 24.4626L30.3594 24.4965L30.3661 24.5059C30.5819 24.8129 30.6089 25.2147 30.436 25.5478C30.263 25.8809 29.9189 26.0899 29.5436 26.0899H22.3034V26.2664C22.3034 27.7919 21.6883 29.2518 20.5983 30.3259C19.5089 31.3995 18.0344 32 16.4999 32C14.9655 32 13.4909 31.3995 12.4015 30.3259C11.3115 29.2518 10.6965 27.7919 10.6965 26.2664V26.0899ZM12.7075 26.0899V26.2664C12.7075 27.2489 13.1034 28.1942 13.813 28.8935C14.5232 29.5932 15.4894 29.989 16.4999 29.989C17.5105 29.989 18.4767 29.5932 19.1868 28.8935C19.8964 28.1942 20.2923 27.2489 20.2923 26.2664V26.0899H12.7075ZM27.6916 24.0789C27.495 23.7589 27.2824 23.4023 27.0653 23.0209C26.2265 21.5471 25.2469 19.5775 24.9546 17.9037C24.7651 16.8183 24.7281 15.687 24.7942 14.5591C24.9551 11.8129 24.1692 8.9333 22.6747 6.76246C21.1877 4.60248 19.0577 3.21248 16.5 3.21248C13.9422 3.21248 11.8122 4.60248 10.3252 6.76246C8.83071 8.9333 8.04486 11.8129 8.20572 14.5591C8.27179 15.687 8.23484 16.8183 8.04532 17.9037C7.75307 19.5775 6.77343 21.5471 5.9346 23.0209C5.71752 23.4023 5.5049 23.7589 5.30837 24.0789H27.6916Z" fill="#111827"/>
<path d="M9.03896 0.468881C9.3354 0.938469 9.19505 1.55946 8.72546 1.85591C6.44141 3.29782 4.6002 5.34283 3.40511 7.76517C3.1594 8.26319 2.55649 8.46773 2.05847 8.22202C1.56045 7.97632 1.35591 7.37341 1.60162 6.87539C2.96069 4.1207 5.0545 1.79513 7.65193 0.155385C8.12151 -0.141063 8.74251 -0.000706257 9.03896 0.468881Z" fill="#111827"/>
</svg>
