<svg width="33" height="32" viewBox="0 0 33 32" fill="none" xmlns="http://www.w3.org/2000/svg">
<path fill-rule="evenodd" clip-rule="evenodd" d="M16.4999 0.0146484C13.7478 0.0146484 11.419 1.21157 9.66032 3.0317C9.27655 3.42886 9.28741 4.06193 9.68458 4.4457C10.0736 4.82161 10.689 4.81889 11.0747 4.44536C11.0828 4.43755 11.0907 4.42957 11.0986 4.42144C12.5416 2.92805 14.3722 2.01465 16.4999 2.01465C19.1821 2.01465 21.4131 3.4728 22.9679 5.73125C24.5301 8.00051 25.3509 11.0092 25.1829 13.8785C25.1142 15.0502 25.1527 16.2244 25.3492 17.3502C25.4557 17.9601 25.6505 18.6084 25.8962 19.2593C26.3492 20.4593 26.9754 21.6685 27.5415 22.6631C27.988 23.4475 28.4163 24.1312 28.7331 24.6189C28.8917 24.8631 29.0228 25.0589 29.1149 25.1946C29.161 25.2624 29.1973 25.3153 29.2225 25.3517L29.2517 25.3938L29.2597 25.4053L29.262 25.4085L29.2627 25.4095L29.2629 25.4099C29.263 25.41 29.2631 25.4101 29.9587 24.921L29.2631 25.4101C29.5808 25.8619 30.2046 25.9706 30.6563 25.6528C31.1081 25.3352 31.2167 24.7115 30.8992 24.2598L30.8991 24.2596L30.899 24.2596L30.8978 24.2579L30.8921 24.2496L30.8674 24.2141C30.8454 24.1823 30.8123 24.1342 30.7697 24.0713C30.6843 23.9456 30.5608 23.7611 30.4104 23.5295C30.1091 23.0657 29.7022 22.4162 29.2797 21.6738C28.4147 20.1542 27.5576 18.3704 27.3194 17.0062C27.1551 16.0653 27.1177 15.0501 27.1794 13.9955C27.3724 10.7005 26.4401 7.24799 24.6152 4.59715C22.7829 1.93551 19.9926 0.0146484 16.4999 0.0146484ZM7.03173 7.07312L3.27088 2.93618C2.89937 2.52752 2.92949 1.89507 3.33815 1.52357C3.74681 1.15206 4.37925 1.18218 4.75076 1.59083L29.7291 29.067C30.1006 29.4757 30.0705 30.1081 29.6618 30.4796C29.2532 30.8511 28.6207 30.821 28.2492 30.4123L24.0879 25.8349H2.91877C2.5455 25.8349 2.2033 25.627 2.03128 25.2957C1.8593 24.9645 1.88605 24.5651 2.10067 24.2598L2.1007 24.2598L2.10074 24.2597L2.1008 24.2596L2.10084 24.2596L2.10203 24.2579L2.1078 24.2496L2.13242 24.2141C2.15447 24.1823 2.18753 24.1342 2.23018 24.0713C2.31551 23.9456 2.43906 23.7611 2.58948 23.5295C2.89072 23.0657 3.29761 22.4162 3.72019 21.6738C4.58511 20.1542 5.44222 18.3704 5.68042 17.0062C5.84472 16.0653 5.8822 15.0501 5.82042 13.9955C5.68277 11.6456 6.11754 9.22406 7.03173 7.07312ZM8.53721 8.72914C7.97224 10.3724 7.71597 12.1537 7.817 13.8785C7.88563 15.0502 7.84719 16.2244 7.65061 17.3502C7.34783 19.0843 6.33156 21.1289 5.45836 22.6631C5.2163 23.0884 4.97958 23.484 4.76307 23.8349H22.2697L8.53721 8.72914ZM10.5043 30.9854C10.5043 30.4331 10.9521 29.9854 11.5043 29.9854H21.4957C22.048 29.9854 22.4957 30.4331 22.4957 30.9854C22.4957 31.5376 22.048 31.9854 21.4957 31.9854H11.5043C10.9521 31.9854 10.5043 31.5376 10.5043 30.9854Z" fill="#111827"/>
</svg>
