<svg width="33" height="32" viewBox="0 0 33 32" fill="none" xmlns="http://www.w3.org/2000/svg">
<path d="M16.5 0.0146484C13.7481 0.0146484 11.4196 1.21146 9.66101 3.03141C9.27724 3.42858 9.2881 4.06165 9.68527 4.44542C10.0743 4.82133 10.6897 4.8186 11.0754 4.44507C11.0835 4.43726 11.0914 4.42929 11.0993 4.42116C12.5421 2.92794 14.3725 2.01465 16.5 2.01465C19.1819 2.01465 21.4125 3.47262 22.9672 5.73082C24.5292 7.99982 25.35 11.0082 25.1819 13.8772C25.1133 15.0487 25.1517 16.2229 25.3483 17.3485C25.4547 17.9582 25.6494 18.6063 25.895 19.2571C26.348 20.4571 26.9742 21.6663 27.5403 22.6609C27.9868 23.4453 28.4151 24.1289 28.7318 24.6165C28.8903 24.8606 29.0215 25.0565 29.1136 25.1921C29.1596 25.26 29.1959 25.3129 29.2211 25.3493L29.2503 25.3913L29.2583 25.4028L29.2613 25.4071C29.2614 25.4072 29.2618 25.4077 29.9832 24.9003L29.2613 25.4071C29.579 25.8588 30.2032 25.9681 30.655 25.6504C31.1067 25.3327 31.2154 24.709 30.8978 24.2573L30.8965 24.2554L30.8907 24.2471L30.8661 24.2117C30.844 24.1798 30.811 24.1317 30.7683 24.0689C30.683 23.9432 30.5595 23.7587 30.4091 23.5272C30.1079 23.0634 29.701 22.4139 29.2785 21.6716C28.4137 20.1521 27.5566 18.3686 27.3185 17.0045C27.1542 16.0637 27.1167 15.0487 27.1785 13.9942C27.3715 10.6994 26.4393 7.2473 24.6145 4.59672C22.7823 1.93533 19.9924 0.0146484 16.5 0.0146484Z" fill="#111827"/>
<path fill-rule="evenodd" clip-rule="evenodd" d="M7.03264 7.07252L3.27221 2.93605C2.90071 2.52739 2.93082 1.89494 3.33948 1.52343C3.74814 1.15193 4.38059 1.18204 4.75209 1.5907L29.7278 29.064C30.0993 29.4727 30.0692 30.1051 29.6606 30.4766C29.2519 30.8481 28.6195 30.818 28.2479 30.4094L24.0871 25.8324H22.4951V26.063C22.4951 27.6385 21.8599 29.1464 20.734 30.2559C19.6086 31.3649 18.0853 31.9854 16.5 31.9854C14.9146 31.9854 13.3913 31.3649 12.2659 30.2559C11.1401 29.1464 10.5048 27.6385 10.5048 26.063V25.8324H2.92023C2.54696 25.8324 2.20477 25.6245 2.03275 25.2932C1.86076 24.962 1.88752 24.5626 2.10214 24.2573L2.10349 24.2554L2.10927 24.2471L2.13388 24.2117C2.15593 24.1798 2.18899 24.1317 2.23163 24.0689C2.31695 23.9432 2.44049 23.7587 2.59089 23.5272C2.8921 23.0634 3.29895 22.4139 3.72148 21.6716C4.58631 20.1521 5.44332 18.3686 5.6815 17.0045C5.84577 16.0637 5.88325 15.0487 5.82148 13.9942C5.68385 11.6445 6.11856 9.22324 7.03264 7.07252ZM8.53813 8.72855C7.97327 10.3716 7.71704 12.1526 7.81806 13.8772C7.88668 15.0487 7.84824 16.2229 7.65169 17.3485C7.34893 19.0825 6.33276 21.1269 5.45965 22.6609C5.21765 23.0861 4.98099 23.4816 4.76453 23.8324H11.4955C11.4986 23.8324 11.5017 23.8324 11.5048 23.8324C11.5079 23.8324 11.511 23.8324 11.5141 23.8324H21.4858C21.4889 23.8324 21.492 23.8324 21.4951 23.8324C21.4982 23.8324 21.5013 23.8324 21.5044 23.8324H22.2689L8.53813 8.72855ZM20.4951 25.8324H12.5048V26.063C12.5048 27.0985 12.9221 28.0946 13.6698 28.8314C14.4179 29.5686 15.4357 29.9854 16.5 29.9854C17.5642 29.9854 18.582 29.5686 19.3302 28.8314C20.0778 28.0946 20.4951 27.0985 20.4951 26.063V25.8324Z" fill="#111827"/>
</svg>
