<svg width="33" height="32" viewBox="0 0 33 32" fill="none" xmlns="http://www.w3.org/2000/svg">
<path fill-rule="evenodd" clip-rule="evenodd" d="M2.10233 24.2571L2.10224 24.2572L2.10222 24.2572C1.8876 24.5625 1.86084 24.9619 2.03282 25.2932C2.20484 25.6244 2.54704 25.8323 2.92031 25.8323H30.0797C30.453 25.8323 30.7952 25.6244 30.9672 25.2932C31.1392 24.9619 31.1124 24.5625 30.8978 24.2572L30.8977 24.2571L30.8976 24.257L30.8965 24.2553L30.8907 24.247L30.8661 24.2116C30.844 24.1797 30.811 24.1316 30.7683 24.0688C30.683 23.9431 30.5595 23.7586 30.4091 23.5271C30.1079 23.0633 29.701 22.4138 29.2785 21.6715C28.4136 20.152 27.5566 18.3685 27.3185 17.0045C27.1542 16.0636 27.1167 15.0486 27.1785 13.9941C27.3715 10.6994 26.4393 7.24728 24.6145 4.59671C22.7823 1.93533 19.9924 0.0146484 16.5 0.0146484C13.0076 0.0146484 10.2177 1.93533 8.3855 4.5967C6.56076 7.24728 5.62855 10.6994 5.82154 13.9941C5.88331 15.0486 5.84583 16.0636 5.68156 17.0045C5.44338 18.3685 4.58638 20.152 3.72155 21.6715C3.29902 22.4138 2.89217 23.0633 2.59096 23.5271C2.44056 23.7586 2.31702 23.9431 2.23171 24.0688C2.18906 24.1316 2.156 24.1797 2.13396 24.2116L2.10934 24.247L2.10357 24.2553L2.10238 24.257L2.10233 24.2571ZM27.5403 22.6608C27.7823 23.086 28.019 23.4815 28.2354 23.8323H4.76461C4.98106 23.4815 5.21772 23.086 5.45971 22.6608C6.33282 21.1268 7.34899 19.0824 7.65175 17.3485C7.8483 16.2228 7.88674 15.0487 7.81812 13.8772C7.65006 11.0082 8.47082 7.9998 10.0329 5.7308C11.5875 3.47261 13.8181 2.01465 16.5 2.01465C19.1819 2.01465 21.4125 3.47262 22.9672 5.73081C24.5292 7.9998 25.35 11.0082 25.1819 13.8772C25.1133 15.0487 25.1517 16.2228 25.3483 17.3485C25.651 19.0824 26.6672 21.1268 27.5403 22.6608ZM11.5049 29.9854C10.9526 29.9854 10.5049 30.4331 10.5049 30.9854C10.5049 31.5377 10.9526 31.9854 11.5049 31.9854H21.4952C22.0475 31.9854 22.4952 31.5377 22.4952 30.9854C22.4952 30.4331 22.0475 29.9854 21.4952 29.9854H11.5049Z" fill="#111827"/>
</svg>
