<svg width="32" height="32" viewBox="0 0 32 32" fill="none" xmlns="http://www.w3.org/2000/svg">
<path d="M12.1602 23.2702V24.2161C12.1602 25.2197 12.5647 26.1821 13.2848 26.8917C14.0049 27.6013 14.9816 28 15.9999 28C17.0183 28 17.995 27.6013 18.7151 26.8917C19.4352 26.1821 19.8397 25.2197 19.8397 24.2161V23.2702" stroke="#1C1B1F" stroke-width="2" stroke-linecap="round" stroke-linejoin="round"/>
<path d="M22.6515 4C24.6048 5.23312 26.1794 6.982 27.2014 9.05358" stroke="#1C1B1F" stroke-width="2" stroke-linecap="round" stroke-linejoin="round"/>
<path d="M4.79852 9.05359C5.82057 6.982 7.39516 5.23312 9.34848 4" stroke="#1C1B1F" stroke-width="2" stroke-linecap="round" stroke-linejoin="round"/>
<path d="M5.56116 23.2702C5.56116 23.2702 8.02517 19.7665 8.44099 17.3851C8.57968 16.5908 8.60886 15.7494 8.55874 14.8938C8.2812 10.1558 11.2538 4.96141 15.9999 4.96141V4.96141C20.7461 4.96141 23.7187 10.1558 23.4411 14.8938C23.391 15.7494 23.4202 16.5908 23.5589 17.3851C23.9747 19.7665 26.4387 23.2702 26.4387 23.2702H5.56116Z" stroke="#1C1B1F" stroke-width="2" stroke-linejoin="round"/>
</svg>
