<svg width="33" height="32" viewBox="0 0 33 32" fill="none" xmlns="http://www.w3.org/2000/svg">
<path fill-rule="evenodd" clip-rule="evenodd" d="M14.2857 9.57175C14.2857 8.34894 15.277 7.35767 16.4998 7.35767C17.7226 7.35767 18.7139 8.34894 18.7139 9.57175C18.7139 10.7945 17.7226 11.7858 16.4998 11.7858C15.277 11.7858 14.2857 10.7945 14.2857 9.57175ZM9.63626 10.5718H1.50073C0.948448 10.5718 0.500732 10.1241 0.500732 9.57179C0.500732 9.01951 0.948448 8.57179 1.50073 8.57179H12.405C12.854 6.72711 14.5169 5.35767 16.4998 5.35767C18.4826 5.35767 20.1456 6.72711 20.5945 8.57179H31.4989C32.0512 8.57179 32.4989 9.01951 32.4989 9.57179C32.4989 10.1241 32.0512 10.5718 31.4989 10.5718H23.3633C24.3108 11.174 25.1796 11.9013 25.9444 12.738C27.379 14.3073 28.3971 16.2061 28.9122 18.2604C30.942 18.5634 32.4988 20.314 32.4988 22.4281C32.4988 24.7555 30.6121 26.6422 28.2847 26.6422C25.9574 26.6422 24.0707 24.7555 24.0707 22.4281C24.0707 20.5884 25.2495 19.0241 26.8931 18.4493C26.4377 16.8302 25.609 15.3353 24.4682 14.0874C23.3298 12.842 21.9187 11.8842 20.3508 11.2854C19.6942 12.7587 18.217 13.7858 16.4998 13.7858C14.7826 13.7858 13.3053 12.7587 12.6487 11.2854C11.0809 11.8842 9.6697 12.842 8.53128 14.0874C7.39049 15.3353 6.56182 16.8302 6.10644 18.4492C7.75 19.024 8.92889 20.5884 8.92889 22.4281C8.92889 24.7555 7.04218 26.6422 4.71481 26.6422C2.38744 26.6422 0.500732 24.7555 0.500732 22.4281C0.500732 20.314 2.05757 18.5634 4.08735 18.2604C4.60243 16.2061 5.62056 14.3073 7.0551 12.738C7.81996 11.9013 8.6887 11.174 9.63626 10.5718ZM4.71481 20.214C3.49201 20.214 2.50073 21.2053 2.50073 22.4281C2.50073 23.6509 3.49201 24.6422 4.71481 24.6422C5.93761 24.6422 6.92889 23.6509 6.92889 22.4281C6.92889 21.2053 5.93761 20.214 4.71481 20.214ZM26.0707 22.4281C26.0707 21.2053 27.0619 20.214 28.2847 20.214C29.5075 20.214 30.4988 21.2053 30.4988 22.4281C30.4988 23.6509 29.5075 24.6422 28.2847 24.6422C27.0619 24.6422 26.0707 23.6509 26.0707 22.4281Z" fill="#111827"/>
</svg>
