<svg width="32" height="32" viewBox="0 0 32 32" fill="none" xmlns="http://www.w3.org/2000/svg">
<path d="M4 10.8571H13.4286" stroke="#1C1B1F" stroke-width="2" stroke-linecap="round" stroke-linejoin="round"/>
<path d="M18.5715 10.8571H28.0001" stroke="#1C1B1F" stroke-width="2" stroke-linecap="round" stroke-linejoin="round"/>
<path d="M15.9999 13.4285C17.4201 13.4285 18.5713 12.2772 18.5713 10.8571C18.5713 9.43691 17.4201 8.28564 15.9999 8.28564C14.5797 8.28564 13.4285 9.43691 13.4285 10.8571C13.4285 12.2772 14.5797 13.4285 15.9999 13.4285Z" stroke="#1C1B1F" stroke-width="2" stroke-linecap="round" stroke-linejoin="round"/>
<path d="M6.57143 23.7143C7.99159 23.7143 9.14286 22.563 9.14286 21.1428C9.14286 19.7227 7.99159 18.5714 6.57143 18.5714C5.15127 18.5714 4 19.7227 4 21.1428C4 22.563 5.15127 23.7143 6.57143 23.7143Z" stroke="#1C1B1F" stroke-width="2" stroke-linecap="round" stroke-linejoin="round"/>
<path d="M25.4286 23.7143C26.8488 23.7143 28 22.563 28 21.1428C28 19.7227 26.8488 18.5714 25.4286 18.5714C24.0084 18.5714 22.8572 19.7227 22.8572 21.1428C22.8572 22.563 24.0084 23.7143 25.4286 23.7143Z" stroke="#1C1B1F" stroke-width="2" stroke-linecap="round" stroke-linejoin="round"/>
<path d="M18.55 11.2106C20.247 11.687 21.7766 12.6289 22.9657 13.9298C24.1549 15.2307 24.9561 16.8385 25.2786 18.5713" stroke="#1C1B1F" stroke-width="2" stroke-linecap="round" stroke-linejoin="round"/>
<path d="M6.72144 18.5713C7.04394 16.8385 7.84514 15.2307 9.03431 13.9298C10.2235 12.6289 11.7531 11.687 13.45 11.2106" stroke="#1C1B1F" stroke-width="2" stroke-linecap="round" stroke-linejoin="round"/>
</svg>
