<svg width="32" height="32" viewBox="0 0 32 32" fill="none" xmlns="http://www.w3.org/2000/svg">
<path d="M24 22.7863C26.2091 22.7863 28 20.9955 28 18.7863C28 16.5772 26.2091 14.7863 24 14.7863C21.7909 14.7863 20 16.5772 20 18.7863C20 20.9955 21.7909 22.7863 24 22.7863Z" stroke="#1C1B1F" stroke-width="2" stroke-linecap="round" stroke-linejoin="round"/>
<path d="M8 22.7863C10.2091 22.7863 12 20.9955 12 18.7863C12 16.5772 10.2091 14.7863 8 14.7863C5.79086 14.7863 4 16.5772 4 18.7863C4 20.9955 5.79086 22.7863 8 22.7863Z" stroke="#1C1B1F" stroke-width="2" stroke-linecap="round" stroke-linejoin="round"/>
<path d="M7.98523 9.21375H11.0911L16.3406 18.8815" stroke="#1C1B1F" stroke-width="2" stroke-linecap="round" stroke-linejoin="round"/>
<path d="M24.0399 18.8378L18.3967 9.25751H24.0399V10.7875" stroke="#1C1B1F" stroke-width="2" stroke-linecap="round" stroke-linejoin="round"/>
<path d="M7.96118 18.8424L12.8022 12.4163H19.9994" stroke="#1C1B1F" stroke-width="2" stroke-linecap="round" stroke-linejoin="round"/>
</svg>
