<svg width="33" height="32" viewBox="0 0 33 32" fill="none" xmlns="http://www.w3.org/2000/svg">
<path fill-rule="evenodd" clip-rule="evenodd" d="M6.4821 6.5177C5.92982 6.5177 5.4821 6.96542 5.4821 7.5177C5.4821 8.06999 5.92982 8.5177 6.4821 8.5177H9.76927L11.3374 11.4057L9.26517 14.1564C8.43783 13.7261 7.49759 13.4829 6.50056 13.4829C3.18701 13.4829 0.500854 16.169 0.500854 19.4826C0.500854 22.7961 3.18701 25.4823 6.50056 25.4823C9.8141 25.4823 12.5003 22.7961 12.5003 19.4826C12.5003 17.8868 11.8772 16.4365 10.8612 15.3617L12.3862 13.3373L16.0469 20.0789C16.3104 20.5642 16.9175 20.744 17.4028 20.4805C17.8882 20.217 18.068 19.6099 17.8045 19.1245L14.2186 12.5206H21.2497L22.6431 14.8861C21.3327 15.9867 20.4996 17.6374 20.4996 19.4826C20.4996 22.7961 23.1858 25.4823 26.4993 25.4823C29.8129 25.4823 32.499 22.7961 32.499 19.4826C32.499 16.169 29.8129 13.4829 26.4993 13.4829C25.7485 13.4829 25.0299 13.6208 24.3674 13.8727L21.2452 8.57232H25.5491V9.48463C25.5491 10.0369 25.9969 10.4846 26.5491 10.4846C27.1014 10.4846 27.5491 10.0369 27.5491 9.48463V7.57232C27.5491 7.02003 27.1014 6.57232 26.5491 6.57232H19.4956C19.1368 6.57232 18.8055 6.76457 18.6274 7.0761C18.4494 7.38763 18.4519 7.77068 18.634 8.07985L20.0717 10.5206H13.1326L11.243 7.04052C11.0681 6.71833 10.7308 6.5177 10.3642 6.5177H6.4821ZM8.0359 15.7882L5.6532 18.951C5.32089 19.3922 5.4091 20.0192 5.85022 20.3515C6.29134 20.6838 6.91833 20.5956 7.25064 20.1545L9.63174 16.9937C10.1754 17.6768 10.5003 18.5417 10.5003 19.4826C10.5003 21.6916 8.70953 23.4823 6.50056 23.4823C4.29158 23.4823 2.50085 21.6916 2.50085 19.4826C2.50085 17.2736 4.29158 15.4829 6.50056 15.4829C7.04454 15.4829 7.56315 15.5915 8.0359 15.7882ZM26.4993 15.4829C26.1199 15.4829 25.7529 15.5357 25.4051 15.6344L27.4108 19.0394C27.6911 19.5153 27.5325 20.1283 27.0567 20.4086C26.5808 20.6889 25.9678 20.5303 25.6875 20.0545L23.6797 16.6458C22.9509 17.3703 22.4996 18.3738 22.4996 19.4826C22.4996 21.6916 24.2904 23.4823 26.4993 23.4823C28.7083 23.4823 30.499 21.6916 30.499 19.4826C30.499 17.2736 28.7083 15.4829 26.4993 15.4829Z" fill="#111827"/>
</svg>
