<svg width="33" height="32" viewBox="0 0 33 32" fill="none" xmlns="http://www.w3.org/2000/svg">
<g clip-path="url(#clip0_303_57)">
<path fill-rule="evenodd" clip-rule="evenodd" d="M32.2111 16.5L32.4998 16L32.2111 15.5L24.7886 2.6438L24.4999 2.1438L23.9226 2.1438L9.07748 2.1438L8.50013 2.1438L8.21146 2.6438L0.788919 15.5L0.500244 16L0.788919 16.5L8.21146 29.3562L8.50013 29.8562H9.07748H23.9226H24.4999L24.7886 29.3562L32.2111 16.5ZM9.65483 4.1438L23.3452 4.1438L30.1904 16L23.3452 27.8562H9.65483L2.80965 16L9.65483 4.1438ZM12.9504 17.1034V15.1869L14.1896 15.1752V18.3622C13.6728 18.0591 13.2456 17.6244 12.9504 17.1034ZM15.2692 18.7772V13.5979H16.5084V18.7772C16.0988 18.8527 15.6788 18.8527 15.2692 18.7772ZM18.8542 17.0958V17.0992L18.8553 17.0939L18.8542 17.0958ZM18.8542 15.9639V17.0958C18.5585 17.6148 18.1315 18.047 17.6161 18.349V15.9639H18.8542ZM15.7756 10.6398C13.2153 10.6398 11.1398 12.7153 11.1398 15.2755C11.1398 17.8357 13.2153 19.9112 15.7756 19.9112C18.3358 19.9112 20.4113 17.8357 20.4113 15.2755C20.4113 12.7153 18.3358 10.6398 15.7756 10.6398ZM9.13977 15.2755C9.13977 11.6107 12.1107 8.63981 15.7756 8.63981C19.4404 8.63981 22.4113 11.6107 22.4113 15.2755C22.4113 16.7472 21.9322 18.107 21.1214 19.2075L23.5659 21.6519C23.9564 22.0424 23.9564 22.6756 23.5659 23.0661C23.1754 23.4566 22.5422 23.4566 22.1517 23.0661L19.7071 20.6216C18.6068 21.4322 17.2471 21.9112 15.7756 21.9112C12.1107 21.9112 9.13977 18.9403 9.13977 15.2755Z" fill="#111827"/>
</g>
<defs>
<clipPath id="clip0_303_57">
<rect width="32" height="32" fill="white" transform="translate(0.5)"/>
</clipPath>
</defs>
</svg>
