<svg width="33" height="32" viewBox="0 0 33 32" fill="none" xmlns="http://www.w3.org/2000/svg">
<g clip-path="url(#clip0_303_57)">
<path fill-rule="evenodd" clip-rule="evenodd" d="M7.74 29.0978L0.779 17.0408C0.407 16.3968 0.407 15.6028 0.779 14.9588L7.74 2.90233C8.1115 2.25883 8.7975 1.86233 9.54 1.86133H23.4685C24.2085 1.86483 24.891 2.26133 25.261 2.90233L32.221 14.9588C32.593 15.6028 32.593 16.3968 32.221 17.0408L25.26 29.0978C24.8885 29.7413 24.2025 30.1378 23.46 30.1388H9.535C8.7935 30.1363 8.11 29.7398 7.7385 29.0978H7.74ZM8.7092 27.6488L2.51837 16.9258C2.18753 16.353 2.18753 15.6469 2.51837 15.0741L8.7092 4.35158C9.0396 3.77928 9.6497 3.42665 10.3101 3.42576H22.6975C23.3556 3.42887 23.9626 3.7815 24.2917 4.35158L30.4816 15.0741C30.8125 15.6469 30.8125 16.353 30.4816 16.9258L24.2908 27.6488C23.9604 28.2211 23.3503 28.5737 22.6899 28.5746H10.3056C9.64615 28.5724 9.03827 28.2198 8.70787 27.6488H8.7092ZM21 19.4764L23.1335 21.6149C23.1962 21.6777 23.2315 21.7629 23.2315 21.8516C23.2315 21.9404 23.1962 22.0256 23.1335 22.0884L22.5735 22.6484C22.5107 22.7111 22.4255 22.7464 22.3367 22.7464C22.2479 22.7464 22.1628 22.7111 22.1 22.6484L19.9615 20.5099C19.9392 20.4877 19.9202 20.4624 19.905 20.4349C18.7383 21.3453 17.2684 21.7766 15.7948 21.6409C14.3211 21.5053 12.9546 20.8129 11.9737 19.7049C10.9928 18.5968 10.4712 17.1565 10.5153 15.6773C10.5594 14.1981 11.1657 12.7913 12.2108 11.7436C13.256 10.6959 14.6612 10.0861 16.1403 10.0384C17.6194 9.99074 19.061 10.5088 20.1715 11.487C21.2819 12.4652 21.9777 13.8299 22.1169 15.3032C22.2562 16.7765 21.8285 18.2475 20.921 19.4164C20.9501 19.4324 20.9768 19.4526 21 19.4764ZM13.8892 19.4948C14.6087 19.9755 15.4546 20.232 16.32 20.2319C17.4801 20.2318 18.5927 19.7708 19.4131 18.9505C20.2334 18.1301 20.6943 17.0175 20.6945 15.8574C20.6946 14.9921 20.4381 14.1461 19.9574 13.4266C19.4767 12.707 18.7934 12.1462 17.9939 11.815C17.1945 11.4838 16.3148 11.3971 15.4661 11.5659C14.6174 11.7347 13.8378 12.1514 13.2259 12.7633C12.614 13.3752 12.1973 14.1548 12.0285 15.0035C11.8597 15.8522 11.9464 16.7319 12.2776 17.5314C12.6088 18.3308 13.1696 19.0141 13.8892 19.4948ZM13.5235 17.4319V15.6239L14.6925 15.6129V18.6194C14.205 18.3334 13.802 17.9234 13.5235 17.4319ZM15.711 19.0109V14.1249H16.88V19.0109C16.4936 19.0821 16.0974 19.0821 15.711 19.0109ZM19.093 17.4246V17.4279L19.094 17.4229C19.0936 17.4235 19.0933 17.4241 19.093 17.4246ZM19.093 16.3569V17.4246C18.814 17.9143 18.4112 18.322 17.925 18.6069V16.3569H19.093Z" fill="#111827"/>
</g>
<defs>
<clipPath id="clip0_303_57">
<rect width="32" height="32" fill="white" transform="translate(0.5)"/>
</clipPath>
</defs>
</svg>
