<svg width="32" height="32" viewBox="0 0 32 32" fill="none" xmlns="http://www.w3.org/2000/svg">
<path d="M13.2307 11.8164H18.7692" stroke="#1C1B1F" stroke-width="2" stroke-linecap="round" stroke-linejoin="round"/>
<path d="M8.61538 25.201C11.1644 25.201 13.2308 23.1346 13.2308 20.5856C13.2308 18.0366 11.1644 15.9702 8.61538 15.9702C6.06638 15.9702 4 18.0366 4 20.5856C4 23.1346 6.06638 25.201 8.61538 25.201Z" stroke="#1C1B1F" stroke-width="2" stroke-linecap="round" stroke-linejoin="round"/>
<path d="M23.3847 25.201C25.9337 25.201 28.0001 23.1346 28.0001 20.5856C28.0001 18.0366 25.9337 15.9702 23.3847 15.9702C20.8357 15.9702 18.7693 18.0366 18.7693 20.5856C18.7693 23.1346 20.8357 25.201 23.3847 25.201Z" stroke="#1C1B1F" stroke-width="2" stroke-linecap="round" stroke-linejoin="round"/>
<path d="M4.65771 18.2039L9.27156 7.24725C10.7867 6.61394 11.6603 6.68585 13.2338 7.24725L13.1671 19.8213" stroke="#1C1B1F" stroke-width="2" stroke-linecap="round" stroke-linejoin="round"/>
<path d="M27.3452 18.2039L22.7314 7.24725C21.2162 6.61394 20.3426 6.68585 18.7692 7.24725L18.8359 19.8213" stroke="#1C1B1F" stroke-width="2" stroke-linecap="round" stroke-linejoin="round"/>
</svg>
