<svg width="33" height="33" viewBox="0 0 33 33" fill="none" xmlns="http://www.w3.org/2000/svg">
<path fill-rule="evenodd" clip-rule="evenodd" d="M8.84861 6.33489L4.81094 15.9233C5.57306 15.626 6.40228 15.4629 7.26961 15.4629C9.10033 15.4629 10.7613 16.1897 11.9797 17.3705L12.0386 6.27864C11.433 6.09347 10.9642 6.00621 10.524 5.99966C10.0361 5.99241 9.52494 6.08398 8.84861 6.33489ZM7.16835 5.17166L1.41805 18.8271C0.834848 19.8273 0.500732 20.9905 0.500732 22.2318C0.500732 25.9701 3.53126 29.0006 7.26961 29.0006C11.008 29.0006 14.0385 25.9701 14.0385 22.2318C14.0385 21.879 14.0115 21.5326 13.9595 21.1944L14.0068 12.2709H18.9965L19.0437 21.1721C18.9894 21.5173 18.9613 21.8713 18.9613 22.2318C18.9613 25.9701 21.9918 29.0006 25.7301 29.0006C29.4685 29.0006 32.499 25.9701 32.499 22.2318C32.499 20.9998 32.1699 19.8447 31.5947 18.8496L25.835 5.17166C25.7333 4.93014 25.5408 4.73819 25.299 4.63712C24.274 4.20868 23.387 3.98595 22.4496 3.99988C21.5281 4.01359 20.6397 4.25584 19.6249 4.61791C19.2249 4.76062 18.9587 5.1404 18.9609 5.56506L18.9859 10.2709H14.0174L14.0424 5.56506C14.0447 5.1404 13.7784 4.76062 13.3785 4.61791C12.3636 4.25584 11.4752 4.01359 10.5537 3.99988C9.61633 3.98595 8.72931 4.20868 7.70432 4.63712C7.46252 4.73819 7.27006 4.93014 7.16835 5.17166ZM28.1931 15.9249L24.1547 6.33489C23.4784 6.08398 22.9672 5.99241 22.4793 5.99966C22.0391 6.00621 21.5703 6.09347 20.9647 6.27864L21.0236 17.367C22.2417 16.1883 23.9012 15.4629 25.7301 15.4629C26.5991 15.4629 27.4298 15.6266 28.1931 15.9249ZM21.0135 21.5236C21.027 21.4704 21.0363 21.4154 21.0409 21.3592C21.4509 19.1421 23.3944 17.4629 25.7301 17.4629C28.3639 17.4629 30.499 19.598 30.499 22.2318C30.499 24.8655 28.3639 27.0006 25.7301 27.0006C23.0963 27.0006 20.9613 24.8655 20.9613 22.2318C20.9613 21.9911 20.9791 21.7547 21.0135 21.5236ZM11.9788 21.4749C11.9744 21.4531 11.9707 21.431 11.9677 21.4087C11.5778 19.1672 9.62271 17.4629 7.26961 17.4629C4.63583 17.4629 2.50073 19.598 2.50073 22.2318C2.50073 24.8655 4.63583 27.0006 7.26961 27.0006C9.90338 27.0006 12.0385 24.8655 12.0385 22.2318C12.0385 21.9742 12.0181 21.7214 11.9788 21.4749Z" fill="#111827"/>
</svg>
