<svg width="32" height="33" viewBox="0 0 32 33" fill="none" xmlns="http://www.w3.org/2000/svg">
<path d="M20.7143 12.2096C21.4244 12.2096 22 11.634 22 10.9239C22 10.2138 21.4244 9.63818 20.7143 9.63818C20.0042 9.63818 19.4286 10.2138 19.4286 10.9239C19.4286 11.634 20.0042 12.2096 20.7143 12.2096Z" fill="#1C1B1F"/>
<path d="M16 18.2096L11.7143 23.3525" stroke="#1C1B1F" stroke-width="2" stroke-linecap="round" stroke-linejoin="round"/>
<path d="M25.4286 13.9239V16.4954C25.4286 19.2233 24.3449 21.8395 22.416 23.7685C20.487 25.6974 17.8708 26.7811 15.1429 26.7811H4L14.2857 13.9239V11.7811C14.288 10.4276 14.7829 9.12128 15.6779 8.10603C16.573 7.09077 17.807 6.43605 19.1495 6.26413C20.492 6.09222 21.8511 6.41488 22.9731 7.17184C24.0951 7.9288 24.9032 9.06831 25.2464 10.3775L28 12.2097L25.4286 13.9239Z" stroke="#1C1B1F" stroke-width="2" stroke-linecap="round" stroke-linejoin="round"/>
</svg>
