<svg width="33" height="33" viewBox="0 0 33 33" fill="none" xmlns="http://www.w3.org/2000/svg">
<path fill-rule="evenodd" clip-rule="evenodd" d="M20.5636 4.69774C22.0007 4.51372 23.4556 4.8591 24.6566 5.66938C25.8576 6.47966 26.7226 7.69943 27.09 9.10086C27.1522 9.33798 27.2993 9.54401 27.5034 9.6798L29.6951 11.1381L27.7303 12.448C27.4521 12.6334 27.285 12.9457 27.285 13.28V16.4941C27.285 19.6386 26.0358 22.6543 23.8123 24.8778C21.5889 27.1013 18.5731 28.3505 15.4286 28.3505H3.58155L15.1381 13.9047C15.28 13.7274 15.3573 13.5071 15.3573 13.28L15.3573 10.6033L15.3573 10.6027C15.3598 9.15414 15.8896 7.75599 16.8475 6.66937C17.8056 5.5826 19.1266 4.88176 20.5636 4.69774ZM25.7752 4.01142C24.1714 2.92941 22.2286 2.4682 20.3096 2.71394C18.3906 2.95967 16.6267 3.89554 15.3473 5.34676C14.0679 6.79797 13.3605 8.66529 13.3573 10.5999L13.3573 10.6016V12.9292L0.720056 28.7258C0.47992 29.0259 0.433102 29.4372 0.599622 29.7836C0.766142 30.1301 1.11652 30.3505 1.50092 30.3505H15.4286C19.1036 30.3505 22.628 28.8906 25.2266 26.292C27.8251 23.6935 29.285 20.169 29.285 16.4941V13.8152L32.0538 11.9693C32.3321 11.7838 32.4992 11.4714 32.4991 11.1368C32.4989 10.8023 32.3315 10.49 32.053 10.3047L28.9161 8.21751C28.3758 6.50451 27.2705 5.02028 25.7752 4.01142ZM22.3925 11.1373C23.2801 11.1373 23.9996 10.4178 23.9996 9.53027C23.9996 8.64272 23.2801 7.92322 22.3925 7.92322C21.505 7.92322 20.7855 8.64272 20.7855 9.53027C20.7855 10.4178 21.505 11.1373 22.3925 11.1373ZM17.1402 17.8685C17.5645 18.2221 17.6218 18.8527 17.2683 19.2769L11.9114 25.7051C11.5579 26.1294 10.9273 26.1867 10.503 25.8332C10.0788 25.4796 10.0214 24.849 10.375 24.4247L15.7318 17.9966C16.0854 17.5723 16.716 17.515 17.1402 17.8685Z" fill="#111827"/>
</svg>
