<svg width="33" height="32" viewBox="0 0 33 32" fill="none" xmlns="http://www.w3.org/2000/svg">
<path fill-rule="evenodd" clip-rule="evenodd" d="M1.50074 1.46692C1.20757 1.46692 0.929173 1.59556 0.739175 1.81883C0.549177 2.0421 0.466721 2.33749 0.513617 2.62688L4.89964 29.693C4.97811 30.1772 5.39622 30.533 5.88676 30.533H27.1908C27.6824 30.533 28.101 30.1757 28.1783 29.6902L32.4865 2.62411C32.5325 2.33507 32.4495 2.04039 32.2596 1.81776C32.0696 1.59514 31.7916 1.46692 31.4989 1.46692H1.50074ZM6.73776 28.533L2.67583 3.46692H30.3271L26.3373 28.533H6.73776ZM14.5893 19.2406L13.3086 12.7591L19.7798 12.7591L18.6273 19.2406H14.5893ZM20.9733 10.7591L12.0917 10.7591C11.7925 10.7591 11.5091 10.8931 11.3191 11.1242C11.1292 11.3554 11.0527 11.6595 11.1107 11.953L12.7865 20.4344C12.8791 20.9029 13.29 21.2406 13.7675 21.2406H19.4651C19.9499 21.2406 20.3648 20.8929 20.4497 20.4157L21.9579 11.9342C22.0097 11.6429 21.9299 11.3436 21.7399 11.1169C21.5499 10.8901 21.2692 10.7591 20.9733 10.7591Z" fill="#111827"/>
</svg>
