<svg width="33" height="32" viewBox="0 0 33 32" fill="none" xmlns="http://www.w3.org/2000/svg">
<path fill-rule="evenodd" clip-rule="evenodd" d="M18.55 11.6502C18.2186 11.2084 17.5918 11.1188 17.15 11.4502L13.7503 13.9999V3.00092L17.15 5.55067C17.5918 5.88205 18.2186 5.7925 18.55 5.35067C18.8813 4.90884 18.7918 4.28204 18.35 3.95067L13.3503 0.20092C13.0473 -0.026342 12.6419 -0.0628983 12.3031 0.106495C11.9643 0.275887 11.7503 0.62215 11.7503 1.00092V13.9999L3.35088 7.70033C2.90906 7.36896 2.28225 7.4585 1.95088 7.90033C1.61951 8.34216 1.70906 8.96896 2.15088 9.30033L11.0836 15.9999L2.15088 22.6995C1.70906 23.0308 1.61951 23.6576 1.95088 24.0995C2.28225 24.5413 2.90906 24.6308 3.35088 24.2995L11.7503 17.9999V30.9991C11.7503 31.3778 11.9643 31.7241 12.3031 31.8935C12.6418 32.0629 13.0472 32.0263 13.3503 31.7991L23.3496 24.2996C23.6015 24.1107 23.7496 23.8143 23.7496 23.4996C23.7496 23.1848 23.6015 22.8884 23.3496 22.6996L14.4169 16L18.35 13.0502C18.7918 12.7188 18.8813 12.092 18.55 11.6502ZM30.9563 4.04358C31.3468 4.4341 31.3468 5.06727 30.9563 5.45779L27.9136 8.50045L30.9563 11.5431C31.3468 11.9336 31.3468 12.5668 30.9563 12.9573C30.5658 13.3479 29.9326 13.3479 29.5421 12.9573L26.4994 9.91467L23.4568 12.9573C23.0662 13.3479 22.4331 13.3479 22.0425 12.9573C21.652 12.5668 21.652 11.9336 22.0425 11.5431L25.0852 8.50045L22.0425 5.45779C21.652 5.06727 21.652 4.4341 22.0425 4.04358C22.4331 3.65305 23.0662 3.65305 23.4568 4.04358L26.4994 7.08624L29.5421 4.04358C29.9326 3.65305 30.5658 3.65305 30.9563 4.04358ZM21.083 23.4996L13.7503 18.0001V28.9991L21.083 23.4996Z" fill="#111827"/>
</svg>
