<svg width="33" height="32" viewBox="0 0 33 32" fill="none" xmlns="http://www.w3.org/2000/svg">
<path fill-rule="evenodd" clip-rule="evenodd" d="M27.4994 8.50043C27.4994 8.18567 27.3512 7.88928 27.0994 7.70042L17.1 0.20092C16.797 -0.0263428 16.3916 -0.0628972 16.0528 0.106494C15.714 0.275886 15.5 0.622149 15.5 1.00092V13.9999L7.10064 7.70033C6.65881 7.36896 6.03201 7.4585 5.70064 7.90033C5.36927 8.34216 5.45881 8.96896 5.90064 9.30033L14.8334 15.9999L5.90064 22.6995C5.45881 23.0308 5.36927 23.6576 5.70064 24.0995C6.03201 24.5413 6.65881 24.6308 7.10064 24.2995L15.5 17.9999V30.9991C15.5 31.3778 15.714 31.7241 16.0528 31.8935C16.3916 32.0629 16.797 32.0263 17.1 31.7991L27.0994 24.2996C27.3512 24.1107 27.4994 23.8143 27.4994 23.4996C27.4994 23.1848 27.3512 22.8884 27.0994 22.6996L18.1666 16L27.0994 9.30043C27.3512 9.11157 27.4994 8.81518 27.4994 8.50043ZM17.5 13.9999V3.00092L24.8327 8.50043L17.5 13.9999ZM24.8327 23.4996L17.5 18.0001V28.9991L24.8327 23.4996Z" fill="#111827"/>
</svg>
