<svg width="33" height="32" viewBox="0 0 33 32" fill="none" xmlns="http://www.w3.org/2000/svg">
<path fill-rule="evenodd" clip-rule="evenodd" d="M26.2951 8.47532C26.2874 8.1695 26.1401 7.88403 25.8954 7.70048L15.896 0.200981C15.593 -0.0262814 15.1876 -0.0628367 14.8488 0.106556C14.51 0.275948 14.296 0.62221 14.296 1.00098V11.0003C14.296 11.5526 14.7437 12.0003 15.296 12.0003C15.8483 12.0003 16.296 11.5526 16.296 11.0003V3.00098L23.6828 8.54107L18.9879 12.4464C18.5633 12.7995 18.5054 13.4301 18.8586 13.8547C19.2118 14.2792 19.8423 14.3371 20.2669 13.984L25.9349 9.26928C26.1701 9.07365 26.3028 8.78113 26.2951 8.47532ZM4.67363 6.81981C4.23123 6.4892 3.60459 6.57982 3.27398 7.02222C2.94337 7.46462 3.03399 8.09127 3.47639 8.42188L13.6231 16.0047L4.69665 22.6995C4.25482 23.0309 4.16528 23.6577 4.49665 24.0995C4.82802 24.5413 5.45482 24.6309 5.89665 24.2995L14.296 18V30.9991C14.296 31.3779 14.51 31.7241 14.8488 31.8935C15.1876 32.0629 15.593 32.0264 15.896 31.7991L25.3102 24.7385L28.3264 26.9926C28.7688 27.3232 29.3954 27.2326 29.726 26.7902C30.0566 26.3478 29.966 25.7211 29.5236 25.3905L18.2531 16.9679L15.9177 15.2163C15.8826 15.1885 15.8459 15.1632 15.808 15.1406L4.67363 6.81981ZM16.296 18.0021L17.0543 18.5688L23.6287 23.4996L16.296 28.9991V18.0021Z" fill="#111827"/>
</svg>
