<svg width="33" height="32" viewBox="0 0 33 32" fill="none" xmlns="http://www.w3.org/2000/svg">
<path fill-rule="evenodd" clip-rule="evenodd" d="M26.8744 8.50043C26.8744 8.18567 26.7262 7.88928 26.4744 7.70042L16.4751 0.20092C16.172 -0.0263428 15.7666 -0.0628972 15.4278 0.106494C15.0891 0.275886 14.8751 0.622149 14.8751 1.00092V13.9999L6.47564 7.70033C6.03381 7.36896 5.40701 7.4585 5.07564 7.90033C4.74427 8.34216 4.83381 8.96896 5.27564 9.30033L14.2084 15.9999L5.27564 22.6995C4.83381 23.0308 4.74427 23.6576 5.07564 24.0995C5.40701 24.5413 6.03381 24.6308 6.47564 24.2995L14.8751 17.9999V30.9991C14.8751 31.3778 15.0891 31.7241 15.4278 31.8935C15.7666 32.0629 16.172 32.0263 16.4751 31.7991L26.4744 24.2996C26.7262 24.1107 26.8744 23.8143 26.8744 23.4996C26.8744 23.1848 26.7262 22.8884 26.4744 22.6996L17.5416 16L26.4744 9.30043C26.7262 9.11157 26.8744 8.81518 26.8744 8.50043ZM16.8751 13.9999V3.00092L24.2078 8.50043L16.8751 13.9999ZM5.25068 17.8749C6.28615 17.8749 7.12556 17.0355 7.12556 16C7.12556 14.9645 6.28615 14.1251 5.25068 14.1251C4.21521 14.1251 3.37579 14.9645 3.37579 16C3.37579 17.0355 4.21521 17.8749 5.25068 17.8749ZM29.6242 16C29.6242 17.0355 28.7848 17.8749 27.7493 17.8749C26.7139 17.8749 25.8744 17.0355 25.8744 16C25.8744 14.9645 26.7139 14.1251 27.7493 14.1251C28.7848 14.1251 29.6242 14.9645 29.6242 16ZM24.2078 23.4996L16.8751 18.0001V28.9991L24.2078 23.4996Z" fill="#111827"/>
</svg>
