<svg width="33" height="32" viewBox="0 0 33 32" fill="none" xmlns="http://www.w3.org/2000/svg">
<path fill-rule="evenodd" clip-rule="evenodd" d="M17.5469 1.00085C17.5469 0.44857 17.0992 0.000854492 16.5469 0.000854492C15.9947 0.000854492 15.5469 0.44857 15.5469 1.00085V3.4679H6.14575C5.59346 3.4679 5.14575 3.91562 5.14575 4.4679V13.1859L2.358 14.1428L2.34392 14.1477C2.27961 14.1705 2.22159 14.1985 2.16999 14.2289C2.06771 14.2893 1.99161 14.3586 1.93763 14.4177C1.83528 14.5299 1.78062 14.6407 1.754 14.7015C1.70069 14.8232 1.67685 14.9398 1.66385 15.0143C1.63523 15.1782 1.61366 15.421 1.60002 15.8043C1.57228 16.5841 1.57341 18.0921 1.67933 21.0416C1.80065 24.4202 3.72732 26.6268 6.42092 28.2198C9.03804 29.7675 12.5264 30.8267 16.0847 31.9071L16.0847 31.9071L16.1743 31.9343C16.4536 32.0191 16.7532 32.0209 17.0349 31.9379C20.6143 30.8819 24.1503 29.7073 26.7972 28.0748C29.4634 26.4305 31.4153 24.1969 31.4153 21.0057V20.9739V20.9423V20.9107V20.8792V20.8479V20.8167V20.7856V20.7546V20.7237V20.6929V20.6622V20.6317V20.6012V20.5709V20.5407V20.5106V20.4806V20.4507V20.4209V20.3912V20.3616V20.3322V20.3028V20.2736V20.2445V20.2155V20.1866V20.1577V20.1291V20.1005V20.072V20.0436V20.0153V19.9872V19.9591V19.9312V19.9033V19.8756V19.848V19.8205V19.793V19.7657V19.7385V19.7114V19.6844V19.6575V19.6307V19.6041V19.5775V19.551V19.5246V19.4984V19.4722V19.4461V19.4202V19.3943V19.3685V19.3429V19.3173V19.2919V19.2665V19.2413V19.2161V19.1911V19.1661V19.1413V19.1165V19.0919V19.0673V19.0429V19.0185V18.9943V18.9701V18.9461V18.9221V18.8983V18.8745V18.8509V18.8273V18.8038V18.7805V18.7572V18.734V18.711V18.688V18.6651V18.6423V18.6196V18.597V18.5745V18.5521V18.5298V18.5076V18.4855V18.4635V18.4415V18.4197V18.398V18.3763V18.3548V18.3333V18.3119V18.2907V18.2695V18.2484V18.2274V18.2065V18.1857V18.165V18.1443V18.1238V18.1034V18.083V18.0627V18.0426V18.0225V18.0025V17.9826V17.9628V17.9431V17.9234V17.9039V17.8844V17.8651V17.8458V17.8266V17.8075V17.7885V17.7695V17.7507V17.732V17.7133V17.6947V17.6762V17.6578V17.6395V17.6213V17.6031V17.5851V17.5671V17.5492V17.5314V17.5137V17.4961V17.4785V17.461V17.4437V17.4264V17.4092V17.392V17.375V17.358V17.3411V17.3244V17.3076V17.291V17.2745V17.258V17.2416V17.2253V17.2091V17.1929V17.1769V17.1609V17.145V17.1292V17.1135V17.0978V17.0822V17.0667V17.0513V17.036V17.0207V17.0055V16.9904V16.9754V16.9604V16.9456V16.9308V16.9161V16.9014V16.8869V16.8724V16.858V16.8437V16.8294V16.8152V16.8011V16.7871V16.7732V16.7593V16.7455V16.7318V16.7181V16.7045V16.691V16.6776V16.6643V16.651V16.6378V16.6247V16.6116V16.5986V16.5857V16.5729V16.5601V16.5474V16.5348V16.5222V16.5098V16.4974V16.485V16.4728V16.4606V16.4484V16.4364V16.4244V16.4125V16.4006V16.3889V16.3772V16.3655V16.354V16.3425V16.331V16.3197V16.3084V16.2972V16.286V16.2749V16.2639V16.253V16.2421V16.2312V16.2205V16.2098V16.1992V16.1886V16.1781V16.1677V16.1574V16.1471V16.1368V16.1267V16.1166V16.1065V16.0966V16.0867V16.0768V16.067V16.0573V16.0477V16.0381V16.0286V16.0191V16.0097V16.0004V15.9911V15.9819V15.9727V15.9636V15.9546V15.9456V15.9367V15.9279V15.9191V15.9104V15.9017V15.8931V15.8845V15.876V15.8676V15.8592V15.8509V15.8427V15.8345V15.8263V15.8183V15.8102V15.8023V15.7944V15.7865V15.7787V15.771V15.7633V15.7557V15.7481V15.7406V15.7332V15.7258V15.7184V15.7111V15.7039V15.6967V15.6896V15.6825V15.6755V15.6686V15.6617V15.6548V15.648V15.6413V15.6346V15.6279V15.6213V15.6148V15.6083V15.6019V15.5955V15.5892V15.5829V15.5767V15.5705V15.5644V15.5583V15.5523V15.5463V15.5404V15.5345V15.5287V15.5229V15.5172V15.5115V15.5059V15.5003V15.4948V15.4893V15.4839V15.4785V15.4731V15.4678V15.4626V15.4574V15.4522V15.4471V15.4421V15.4371V15.4321V15.4272V15.4223V15.4175V15.4127V15.408V15.4033V15.3986V15.394V15.3895V15.385V15.3805V15.376V15.3717V15.3673V15.363V15.3588V15.3546V15.3504V15.3463V15.3422V15.3381V15.3341V15.3302V15.3262V15.3224V15.3185V15.3147V15.311V15.3072V15.3036V15.2999V15.2963V15.2928V15.2893V15.2858V15.2823V15.2789V15.2756V15.2722V15.2689V15.2657V15.2625V15.2593V15.2562V15.2531V15.25V15.247V15.244V15.241V15.2381V15.2352V15.2324V15.2296V15.2268V15.224V15.2213V15.2187V15.216V15.2134V15.2108V15.2083V15.2058V15.2033V15.2009V15.1985V15.1961V15.1938V15.1915V15.1892V15.187V15.1848V15.1826V15.1804V15.1783V15.1762V15.1742V15.1721V15.1702V15.1682V15.1663V15.1644V15.1625V15.1606V15.1588V15.157V15.1553V15.1536V15.1519V15.1502V15.1485V15.1469V15.1453V15.1438V15.1422V15.1407V15.1393V15.1378V15.1364V15.135V15.1336V15.1322V15.1309V15.1296V15.1284V15.1271V15.1259V15.1247V15.1235V15.1224V15.1212V15.1201V15.1191V15.118V15.117V15.116V15.115V15.114V15.1131V15.1122V15.1113V15.1104V15.1095V15.1087V15.1079V15.1071V15.1063V15.1056V15.1049V15.1041V15.1035V15.1028V15.1021V15.1015V15.1009V15.1003V15.0997V15.0992V15.0987V15.0981V15.0976V15.0972V15.0967V15.0962V15.0958V15.0954V15.095V15.0946V15.0943V15.0939V15.0936V15.0933V15.093V15.0927V15.0924V15.0922V15.0919V15.0917V15.0915V15.0913V15.0911V15.091V15.0908V15.0907V15.0905V15.0904V15.0903V15.0902V15.0902V15.0901V15.0901V15.09V15.09V15.09C31.4153 14.6638 31.1452 14.2845 30.7425 14.145L27.9482 13.1774V4.4679C27.9482 3.91562 27.5005 3.4679 26.9482 3.4679H17.5469V1.00085ZM16.5392 5.4679C16.5418 5.46792 16.5444 5.46793 16.5469 5.46793C16.5495 5.46793 16.5521 5.46792 16.5547 5.4679H25.9482V12.4848L16.9355 9.3639C16.8198 9.32382 16.6985 9.30562 16.5778 9.30931C16.5675 9.309 16.5573 9.30884 16.5469 9.30884C16.362 9.30884 16.1888 9.35906 16.0401 9.4466L7.14575 12.4995V5.4679H16.5392ZM15.5469 21.8032V11.7304L3.60042 15.8309L3.59876 15.8754C3.57364 16.5814 3.57252 18.0314 3.67804 20.9698C3.76677 23.4407 5.10574 25.1185 7.43898 26.4983C9.79566 27.892 13.005 28.8815 16.6125 29.9772C20.1471 28.9307 23.387 27.8283 25.7473 26.3725C28.1204 24.9089 29.4153 23.2136 29.4153 21.0057V20.9739V20.9423V20.9107V20.8792V20.8479V20.8167V20.7856V20.7546V20.7237V20.6929V20.6622V20.6317V20.6012V20.5709V20.5407V20.5106V20.4806V20.4507V20.4209V20.3912V20.3616V20.3322V20.3028V20.2736V20.2445V20.2155V20.1866V20.1577V20.1291V20.1005V20.072V20.0436V20.0153V19.9872V19.9591V19.9312V19.9033V19.8756V19.848V19.8205V19.793V19.7657V19.7385V19.7114V19.6844V19.6575V19.6307V19.6041V19.5775V19.551V19.5246V19.4984V19.4722V19.4461V19.4202V19.3943V19.3685V19.3429V19.3173V19.2919V19.2665V19.2413V19.2161V19.1911V19.1661V19.1413V19.1165V19.0919V19.0673V19.0429V19.0185V18.9943V18.9701V18.9461V18.9221V18.8983V18.8745V18.8509V18.8273V18.8038V18.7805V18.7572V18.734V18.711V18.688V18.6651V18.6423V18.6196V18.597V18.5745V18.5521V18.5298V18.5076V18.4855V18.4635V18.4415V18.4197V18.398V18.3763V18.3548V18.3333V18.3119V18.2907V18.2695V18.2484V18.2274V18.2065V18.1857V18.165V18.1443V18.1238V18.1034V18.083V18.0627V18.0426V18.0225V18.0025V17.9826V17.9628V17.9431V17.9234V17.9039V17.8844V17.8651V17.8458V17.8266V17.8075V17.7885V17.7695V17.7507V17.732V17.7133V17.6947V17.6762V17.6578V17.6395V17.6213V17.6031V17.5851V17.5671V17.5492V17.5314V17.5137V17.4961V17.4785V17.461V17.4437V17.4264V17.4092V17.392V17.375V17.358V17.3411V17.3244V17.3076V17.291V17.2745V17.258V17.2416V17.2253V17.2091V17.1929V17.1769V17.1609V17.145V17.1292V17.1135V17.0978V17.0822V17.0667V17.0513V17.036V17.0207V17.0055V16.9904V16.9754V16.9604V16.9456V16.9308V16.9161V16.9014V16.8869V16.8724V16.858V16.8437V16.8294V16.8152V16.8011V16.7871V16.7732V16.7593V16.7455V16.7318V16.7181V16.7045V16.691V16.6776V16.6643V16.651V16.6378V16.6247V16.6116V16.5986V16.5857V16.5729V16.5601V16.5474V16.5348V16.5222V16.5098V16.4974V16.485V16.4728V16.4606V16.4484V16.4364V16.4244V16.4125V16.4006V16.3889V16.3772V16.3655V16.354V16.3425V16.331V16.3197V16.3084V16.2972V16.286V16.2749V16.2639V16.253V16.2421V16.2312V16.2205V16.2098V16.1992V16.1886V16.1781V16.1677V16.1574V16.1471V16.1368V16.1267V16.1166V16.1065V16.0966V16.0867V16.0768V16.067V16.0573V16.0477V16.0381V16.0286V16.0191V16.0097V16.0004V15.9911V15.9819V15.9727V15.9636V15.9546V15.9456V15.9367V15.9279V15.9191V15.9104V15.9017V15.8931V15.8845V15.876V15.8676V15.8592V15.8509V15.8427V15.8345V15.8263V15.8183V15.8102V15.8023V15.8019L17.5469 11.6921V21.8032C17.5469 22.3555 17.0992 22.8032 16.5469 22.8032C15.9947 22.8032 15.5469 22.3555 15.5469 21.8032ZM3.63363 15.3608L3.63404 15.3583C3.63502 15.3527 3.63504 15.354 3.63363 15.3608Z" fill="#111827"/>
</svg>
