<svg width="33" height="32" viewBox="0 0 33 32" fill="none" xmlns="http://www.w3.org/2000/svg">
<g clip-path="url(#clip0_754_104)">
<path fill-rule="evenodd" clip-rule="evenodd" d="M16.4999 -0.000244141L16.9999 0.288431L29.8565 7.71119L30.3565 7.99986V8.57721V23.4227V24.0001L29.8565 24.2887L16.9999 31.7115L16.4999 32.0002L15.9999 31.7115L3.14331 24.2887L2.64331 24.0001V23.4227V8.57721V7.99986L3.14331 7.71119L8.73295 4.48401L8.73291 4.4552L9.24622 4.1687L10.2333 3.61779L15.9999 0.288431L16.4999 -0.000244141ZM4.64331 9.15456L8.73557 6.7919L8.74703 16.8925C8.73822 17.0477 8.73376 17.204 8.73376 17.3613C8.73376 21.8673 12.3866 25.5201 16.8926 25.5201C21.3986 25.5201 25.0515 21.8673 25.0515 17.3613C25.0515 12.8553 21.3986 9.2024 16.8926 9.2024C15.8768 9.2024 14.9033 9.38845 14.0051 9.72841L14.0051 3.74955L16.4999 2.30916L28.3565 9.15456V22.8454L16.4999 29.6908L4.64331 22.8454V9.15456ZM11.2207 5.35712L10.7343 5.63795L10.7471 16.92L10.7471 16.9509L10.7452 16.9817C10.7376 17.1071 10.7338 17.2337 10.7338 17.3613C10.7338 20.7627 13.4912 23.5201 16.8926 23.5201C20.2941 23.5201 23.0515 20.7627 23.0515 17.3613C23.0515 13.9598 20.2941 11.2024 16.8926 11.2024C15.6581 11.2024 14.5113 11.5646 13.5488 12.1881L12.0051 13.1884L12.0051 11.3489L12.0051 4.91932L11.2207 5.35712ZM12.0847 17.3615C12.0847 14.7059 14.2374 12.5532 16.8929 12.5532C19.5484 12.5532 21.7012 14.7059 21.7012 17.3615C21.7012 20.017 19.5484 22.1697 16.8929 22.1697C14.2374 22.1697 12.0847 20.017 12.0847 17.3615ZM16.8929 14.5532C15.3419 14.5532 14.0847 15.8105 14.0847 17.3615C14.0847 18.2079 14.4591 18.9669 15.0514 19.4817C15.0768 19.4106 15.1184 19.3471 15.1718 19.2959V18.1102C15.0312 18.0262 14.937 17.8724 14.937 17.6967C14.937 17.4308 15.1525 17.2153 15.4183 17.2153C15.4961 17.2153 15.5695 17.2337 15.6345 17.2665L16.9944 16.4813L17.1194 16.4091L17.2444 16.4813L18.6829 17.3118C18.7146 17.3052 18.7475 17.3018 18.7812 17.3018C19.0471 17.3018 19.2626 17.5173 19.2626 17.7831C19.2626 17.9419 19.1857 18.0828 19.067 18.1705V19.1391C19.4634 18.6549 19.7012 18.036 19.7012 17.3615C19.7012 15.8105 18.4439 14.5532 16.8929 14.5532ZM17.5167 20.1002L18.567 19.4938V18.2143C18.4087 18.1355 18.2999 17.972 18.2999 17.7831C18.2999 17.746 18.3041 17.7098 18.312 17.675L17.1194 16.9865L15.8997 17.6907L15.8997 17.6967C15.8997 17.8695 15.8086 18.021 15.6718 18.1059V19.1917C15.8554 19.2596 15.9863 19.4362 15.9863 19.6434C15.9863 19.6539 15.986 19.6644 15.9853 19.6748L16.8418 20.1693C16.8588 20.1696 16.8758 20.1697 16.8929 20.1697C17.1073 20.1697 17.3161 20.1457 17.5167 20.1002Z" fill="#111827"/>
</g>
<defs>
<clipPath id="clip0_754_104">
<rect width="32" height="32" fill="white" transform="translate(0.5)"/>
</clipPath>
</defs>
</svg>
