<svg width="33" height="32" viewBox="0 0 33 32" fill="none" xmlns="http://www.w3.org/2000/svg">
<g clip-path="url(#clip0_568_174)">
<path fill-rule="evenodd" clip-rule="evenodd" d="M20.9226 1.49951L19.6962 3.62378L20.9226 5.74804H23.3755L24.6019 3.62378L23.3755 1.49951L20.9226 1.49951ZM20.4896 -0.000488281H23.8085H24.2415L24.458 0.374512L26.1175 3.24878L26.334 3.62378L26.1175 3.99878L24.458 6.87304L24.2415 7.24804H23.8085H20.9174L19.3279 9.90493L21.9752 14.4901L21.9872 14.5109H24.7902L25.9164 12.5604L26.1329 12.1854H26.5659H29.2276H29.6607L29.8772 12.5604L31.208 14.8655L31.4245 15.2405L31.208 15.6155L29.8772 17.9206L29.6607 18.2956H29.2276H26.5659H26.1329L25.9164 17.9206L24.8139 16.0109H21.9632L19.3133 20.6006L19.2563 20.6993L20.3882 23.0326H22.0002H22.4332L22.6497 23.4076L23.6916 25.2121L23.9081 25.5871L23.6916 25.9621L22.6497 27.7666L22.4332 28.1416H22.0002H19.9165H19.4835L19.267 27.7666L18.2251 25.9621L18.0086 25.5871L18.2251 25.2121L19.0691 23.7502L17.9051 21.3506H12.849L12.4288 22.2798L13.3112 23.8081L13.5277 24.1831L13.3112 24.5581L12.4289 26.0862L13.1546 27.5635H14.4186H14.8517L15.0682 27.9385L15.916 29.407L16.1325 29.782L15.916 30.157L15.0682 31.6256L14.8517 32.0006H14.4186H12.7229H12.2899L12.0734 31.6256L11.2256 30.157L11.0091 29.782L11.2256 29.407L11.8542 28.3183L11.1089 26.8012H9.86564L9.15074 28.3126L9.78263 29.407L9.99913 29.782L9.78263 30.157L8.93477 31.6256L8.71827 32.0006H8.28525H6.58955H6.15653L5.94003 31.6256L5.09217 30.157L4.87567 29.782L5.09217 29.407L5.94003 27.9385L6.15653 27.5635H6.58955H7.84571L8.56062 26.0521L7.90416 24.9151H7.08735L6.44573 26.0264L6.22922 26.4014H5.79621H4.1005H3.66749L3.45098 26.0264L2.60313 24.5579L2.38662 24.1829L2.60313 23.8079L3.45098 22.3394L3.66749 21.9644H4.1005H5.79621H6.22922L6.44573 22.3394L7.0668 23.4151H7.92501L8.77659 21.9401L8.9931 21.5651H9.42611H11.1057L11.4758 20.7467L11.3915 20.6006L8.73149 15.9934H7.18667L6.32652 17.4832L6.11002 17.8582H5.677H3.51998H3.08697L2.87046 17.4832L1.79195 15.6151L1.57544 15.2401L1.79195 14.8651L2.87046 12.9971L3.08697 12.6221H3.51998H5.677H6.11002L6.32652 12.9971L7.19039 14.4934H8.7277L8.7296 14.4901L11.3915 9.87958L11.4127 9.84279L9.99815 7.24774H7.69743H7.26442L7.04791 6.87274L5.67866 4.50113L5.46216 4.12613L5.67866 3.75113L7.04791 1.37952L7.26442 1.00452H7.69743L10.4359 1.00452H10.8689L11.0854 1.37952L12.4547 3.75113L12.6712 4.12613L12.4547 4.50113L11.2998 6.50152L12.7323 9.12958H18.0143H18.0439L19.6209 6.49347L18.1806 3.99878L17.9641 3.62378L18.1806 3.24878L19.8401 0.374512L20.0566 -0.000488281H20.4896ZM10.0286 15.2401L12.6905 10.6296H18.0143L20.6762 15.2401L18.0143 19.8506H12.6905L10.0286 15.2401ZM14.0468 12.9788L12.7411 15.2403L14.0468 17.5019H16.6582L17.9638 15.2403L16.6582 12.9788H14.0468ZM13.6138 11.4788H17.0912H17.5242L17.7407 11.8538L19.4794 14.8653L19.6959 15.2403L19.4794 15.6153L17.7407 18.6269L17.5242 19.0019H17.0912H13.6138H13.1808L12.9643 18.6269L11.2256 15.6153L11.0091 15.2403L11.2256 14.8653L12.9643 11.8538L13.1808 11.4788H13.6138ZM26.1011 15.2405L26.9989 13.6854H28.7946L29.6925 15.2405L28.7946 16.7956H26.9989L26.1011 15.2405ZM7.19421 4.12613L8.13044 2.50452L10.0029 2.50452L10.9391 4.12613L10.0029 5.74774H8.13044L7.19421 4.12613ZM3.95299 14.1221L3.30749 15.2401L3.95299 16.3582H5.24399L5.88949 15.2401L5.24399 14.1221H3.95299ZM9.21362 24.1831L9.85912 23.0651H11.1501L11.7956 24.1831L11.1501 25.3012H9.85913L9.21362 24.1831ZM4.53351 23.4644L4.11867 24.1829L4.53351 24.9014H5.3632L5.77804 24.1829L5.3632 23.4644H4.53351ZM6.60772 29.782L7.02256 29.0635H7.85224L8.26708 29.782L7.85224 30.5006H7.02256L6.60772 29.782ZM13.1559 29.0635L12.7411 29.782L13.1559 30.5006H13.9856L14.4005 29.782L13.9856 29.0635H13.1559ZM19.7407 25.5871L20.3495 24.5326H21.5672L22.176 25.5871L21.5672 26.6416H20.3495L19.7407 25.5871Z" fill="#111827"/>
</g>
<defs>
<clipPath id="clip0_568_174">
<rect width="32" height="32" fill="white" transform="translate(0.5)"/>
</clipPath>
</defs>
</svg>
