<svg width="33" height="33" viewBox="0 0 33 33" fill="none" xmlns="http://www.w3.org/2000/svg">
<path fill-rule="evenodd" clip-rule="evenodd" d="M10.1814 0.500977C9.62912 0.500977 9.1814 0.948692 9.1814 1.50098V5.55542H5.12695C4.57467 5.55542 4.12695 6.00314 4.12695 6.55542V31.4991C4.12695 31.8769 4.33989 32.2224 4.67738 32.3923C5.01486 32.5622 5.41926 32.5273 5.72271 32.3022L14.0145 26.1517L22.2186 32.2993C22.5216 32.5264 22.927 32.5628 23.2657 32.3934C23.6043 32.224 23.8183 31.8777 23.8183 31.4991V24.6132L27.2667 27.2401C27.5691 27.4704 27.9759 27.5094 28.3166 27.3407C28.6572 27.172 28.8727 26.8247 28.8727 26.4446V1.50098C28.8727 0.948692 28.425 0.500977 27.8727 0.500977H10.1814ZM23.8183 22.0991L26.8727 24.4258V2.50098H11.1814V5.55542H22.8183C23.3705 5.55542 23.8183 6.00314 23.8183 6.55542V22.0991ZM6.12695 29.5122V7.55542H21.8183V29.5001L14.6172 24.1041C14.2632 23.8388 13.777 23.8377 13.4217 24.1012L6.12695 29.5122Z" fill="#111827"/>
</svg>
