<svg width="33" height="32" viewBox="0 0 33 32" fill="none" xmlns="http://www.w3.org/2000/svg">
<path fill-rule="evenodd" clip-rule="evenodd" d="M1.50073 2.34863C0.948448 2.34863 0.500732 2.79635 0.500732 3.34863V24.2787C0.500732 24.8309 0.948448 25.2787 1.50073 25.2787H11.6511C12.7756 25.2787 13.8056 25.9075 14.3195 26.9077L15.4213 29.0524C15.6548 29.5067 16.0887 29.6866 16.4999 29.6458C16.9111 29.6866 17.345 29.5067 17.5784 29.0524L18.6802 26.9077C19.1941 25.9075 20.2242 25.2787 21.3487 25.2787H31.499C32.0513 25.2787 32.499 24.8309 32.499 24.2787V3.34863C32.499 2.79635 32.0513 2.34863 31.499 2.34863H20.5C18.8643 2.34863 17.4121 3.13404 16.4999 4.34829C15.5877 3.13404 14.1354 2.34863 12.4998 2.34863H1.50073ZM2.50073 23.2787V4.34863H12.4998C14.1566 4.34863 15.4998 5.69178 15.4998 7.34863V25.0866C14.5617 23.9556 13.1572 23.2787 11.6511 23.2787H2.50073ZM30.499 23.2787V4.34863H20.5C18.8431 4.34863 17.5 5.69178 17.5 7.34863V25.0866C18.438 23.9556 19.8425 23.2787 21.3487 23.2787H30.499Z" fill="#111827"/>
</svg>
