<svg width="33" height="33" viewBox="0 0 33 33" fill="none" xmlns="http://www.w3.org/2000/svg">
<path fill-rule="evenodd" clip-rule="evenodd" d="M1.50073 2.84863C0.948448 2.84863 0.500732 3.29635 0.500732 3.84863V24.7787C0.500732 25.3309 0.948448 25.7787 1.50073 25.7787H11.6511C12.7756 25.7787 13.8056 26.4075 14.3195 27.4077L15.4213 29.5524C15.6548 30.0067 16.0887 30.1866 16.4999 30.1458C16.9111 30.1866 17.345 30.0067 17.5784 29.5524L18.6802 27.4077C19.1941 26.4075 20.2242 25.7787 21.3487 25.7787H31.499C32.0513 25.7787 32.499 25.3309 32.499 24.7787V3.84863C32.499 3.29635 32.0513 2.84863 31.499 2.84863H20.5C18.8643 2.84863 17.4121 3.63404 16.4999 4.84829C15.5877 3.63404 14.1354 2.84863 12.4998 2.84863H1.50073ZM2.50073 23.7787V4.84863H12.4998C14.1566 4.84863 15.4998 6.19178 15.4998 7.84863V25.5866C14.5617 24.4556 13.1572 23.7787 11.6511 23.7787H2.50073ZM30.499 23.7787V4.84863H20.5C18.8431 4.84863 17.5 6.19178 17.5 7.84863V25.5866C18.438 24.4556 19.8425 23.7787 21.3487 23.7787H30.499Z" fill="#111827"/>
</svg>
