<svg width="33" height="33" viewBox="0 0 33 33" fill="none" xmlns="http://www.w3.org/2000/svg">
<path fill-rule="evenodd" clip-rule="evenodd" d="M17.8254 11.5169V24.3886V30.7739C17.8254 31.3262 17.3777 31.7739 16.8254 31.7739H9.16316H9.163H1.50073C0.948448 31.7739 0.500732 31.3262 0.500732 30.7739V9.06381V2.67834C0.500732 2.12606 0.948448 1.67834 1.50073 1.67834H9.163H9.16316H16.8254C17.358 1.67834 17.7934 2.09471 17.8237 2.61971L23.9683 0.973287C24.5017 0.830345 25.0501 1.14693 25.193 1.68039L26.8162 7.73803C26.8302 7.77356 26.8424 7.81027 26.8525 7.84806C26.8626 7.88585 26.8704 7.92372 26.876 7.96151L30.783 22.5427C30.7968 22.5777 30.8088 22.6139 30.8188 22.6511C30.8287 22.6883 30.8365 22.7256 30.842 22.7629L32.4647 28.8186C32.6076 29.3521 32.291 29.9004 31.7576 30.0434L24.3562 32.0266C23.8228 32.1695 23.2744 31.8529 23.1315 31.3195L17.8254 11.5169ZM19.7036 10.7989L23.1524 23.67L28.6219 22.2045L25.1731 9.33334L19.7036 10.7989ZM24.6554 7.40148L23.52 3.16396L18.0505 4.6295L19.1859 8.86703L24.6554 7.40148ZM29.1395 24.1363L23.67 25.6019L24.8045 29.8359L30.274 28.3703L29.1395 24.1363ZM8.163 29.7739V24.3886V10.0638H2.50073V29.7739H8.163ZM8.163 8.06381V3.67834H2.50073V8.06381H8.163ZM15.8254 29.7739H10.1632V25.3886H15.8254V29.7739ZM15.8254 3.67834V23.3886H10.1632V9.06381V3.67834H15.8254Z" fill="#111827"/>
</svg>
