<svg width="33" height="32" viewBox="0 0 33 32" fill="none" xmlns="http://www.w3.org/2000/svg">
<path fill-rule="evenodd" clip-rule="evenodd" d="M17.8254 11.0169V23.8886V30.2739C17.8254 30.8262 17.3777 31.2739 16.8254 31.2739H9.16316H9.163H1.50073C0.948448 31.2739 0.500732 30.8262 0.500732 30.2739V8.56381V2.17834C0.500732 1.62606 0.948448 1.17834 1.50073 1.17834H9.163H9.16316H16.8254C17.358 1.17834 17.7934 1.59471 17.8237 2.11971L23.9683 0.473287C24.5017 0.330345 25.0501 0.646928 25.193 1.18039L26.8162 7.23803C26.8302 7.27356 26.8424 7.31027 26.8525 7.34806C26.8626 7.38585 26.8704 7.42372 26.876 7.46151L30.783 22.0427C30.7968 22.0777 30.8088 22.1139 30.8188 22.1511C30.8287 22.1883 30.8365 22.2256 30.842 22.2629L32.4647 28.3186C32.6076 28.8521 32.291 29.4004 31.7576 29.5434L24.3562 31.5266C23.8228 31.6695 23.2744 31.3529 23.1315 30.8195L17.8254 11.0169ZM19.7036 10.2989L23.1524 23.17L28.6219 21.7045L25.1731 8.83334L19.7036 10.2989ZM24.6554 6.90148L23.52 2.66396L18.0505 4.1295L19.1859 8.36703L24.6554 6.90148ZM29.1395 23.6363L23.67 25.1019L24.8045 29.3359L30.274 27.8703L29.1395 23.6363ZM8.163 29.2739V23.8886V9.56381H2.50073V29.2739H8.163ZM8.163 7.56381V3.17834H2.50073V7.56381H8.163ZM15.8254 29.2739H10.1632V24.8886H15.8254V29.2739ZM15.8254 3.17834V22.8886H10.1632V8.56381V3.17834H15.8254Z" fill="#111827"/>
</svg>
