<svg width="33" height="32" viewBox="0 0 33 32" fill="none" xmlns="http://www.w3.org/2000/svg">
<path fill-rule="evenodd" clip-rule="evenodd" d="M29.9878 25.9552C29.9878 26.5075 29.5401 26.9552 28.9878 26.9552L7.01221 26.9552C5.90854 26.9552 5.01367 27.8492 5.01221 28.9525L5.01221 28.9552L5.01221 29.9991H26.4977C27.0499 29.9991 27.4977 30.4469 27.4977 30.9991C27.4977 31.5514 27.0499 31.9991 26.4977 31.9991H4.01221C3.74699 31.9991 3.49264 31.8938 3.3051 31.7063C3.11756 31.5187 3.01221 31.2644 3.01221 30.9991L3.01221 30.4193L3.01221 28.9552L3.01221 28.9514L3.01221 4.00098C3.01221 1.79184 4.80307 0.000976466 7.01221 0.000976563L28.9878 0.000977523C29.5401 0.000977547 29.9878 0.448693 29.9878 1.00098V25.9552ZM5.01221 4.00098L5.01221 25.4904C5.60056 25.15 6.28363 24.9552 7.01221 24.9552L27.9878 24.9552V2.00098L25.0136 2.00098V15.9411C25.0136 16.3204 24.799 16.6671 24.4594 16.8362C24.1198 17.0053 23.7138 16.9677 23.411 16.7391L19.008 13.4145L14.5562 16.7421C14.253 16.9687 13.8479 17.0047 13.5095 16.8351C13.1711 16.6656 12.9575 16.3196 12.9575 15.9411V2.00098L7.01221 2.00098C5.90764 2.00098 5.01221 2.89641 5.01221 4.00098ZM14.9575 2.00098V13.9452L18.4124 11.3628C18.7688 11.0963 19.2585 11.0975 19.6137 11.3657L23.0136 13.9329V2.00098L14.9575 2.00098Z" fill="#111827"/>
</svg>
