<svg width="33" height="33" viewBox="0 0 33 33" fill="none" xmlns="http://www.w3.org/2000/svg">
<path fill-rule="evenodd" clip-rule="evenodd" d="M10.1814 0.500977C9.62911 0.500977 9.1814 0.948692 9.1814 1.50098C9.1814 2.05326 9.62911 2.50098 10.1814 2.50098H26.8727V26.4446C26.8727 26.9969 27.3204 27.4446 27.8727 27.4446C28.425 27.4446 28.8727 26.9969 28.8727 26.4446V1.50098C28.8727 0.948692 28.425 0.500977 27.8727 0.500977H10.1814ZM5.12695 5.55542C4.57467 5.55542 4.12695 6.00314 4.12695 6.55542V31.4991C4.12695 31.8769 4.33989 32.2224 4.67738 32.3923C5.01486 32.5622 5.41926 32.5273 5.72271 32.3022L14.0145 26.1517L22.2186 32.2993C22.5216 32.5264 22.927 32.5628 23.2657 32.3934C23.6043 32.224 23.8183 31.8777 23.8183 31.4991V6.55542C23.8183 6.00314 23.3705 5.55542 22.8183 5.55542H5.12695ZM6.12695 29.5122V7.55542H21.8183V29.5001L14.6172 24.1041C14.2632 23.8388 13.777 23.8377 13.4217 24.1012L6.12695 29.5122Z" fill="#111827"/>
</svg>
