<svg width="33" height="33" viewBox="0 0 33 33" fill="none" xmlns="http://www.w3.org/2000/svg">
<path fill-rule="evenodd" clip-rule="evenodd" d="M6.06567 0.500732C5.51339 0.500732 5.06567 0.948448 5.06567 1.50073V22.369V23.6735V31.499C5.06567 31.8621 5.26254 32.1967 5.57996 32.3731C5.89739 32.5495 6.28549 32.5399 6.59384 32.3481L16.5502 26.1552L26.4021 32.3457C26.7103 32.5393 27.0993 32.5502 27.4178 32.3742C27.7364 32.1981 27.9341 31.8629 27.9341 31.499V23.6735V22.369V1.50073C27.9341 0.948448 27.4864 0.500732 26.9341 0.500732H6.06567ZM25.9341 24.2261L16.5502 18.3297L7.06567 24.2291V29.6993L16.0247 24.1268C16.3495 23.9247 16.761 23.9257 17.0849 24.1292L25.9341 29.6896V24.2261ZM7.06567 21.8738V2.50073H25.9341V21.8641L17.0849 16.3037C16.761 16.1002 16.3495 16.0992 16.0247 16.3013L7.06567 21.8738Z" fill="#111827"/>
</svg>
