<svg width="33" height="32" viewBox="0 0 33 32" fill="none" xmlns="http://www.w3.org/2000/svg">
<path fill-rule="evenodd" clip-rule="evenodd" d="M10.1814 0.000976562C9.62911 0.000976562 9.1814 0.448692 9.1814 1.00098C9.1814 1.55326 9.62911 2.00098 10.1814 2.00098H26.8727V25.9446C26.8727 26.4969 27.3204 26.9446 27.8727 26.9446C28.425 26.9446 28.8727 26.4969 28.8727 25.9446V1.00098C28.8727 0.448692 28.425 0.000976562 27.8727 0.000976562H10.1814ZM5.12695 5.05542C4.57467 5.05542 4.12695 5.50314 4.12695 6.05542V30.9991C4.12695 31.3769 4.33989 31.7224 4.67738 31.8923C5.01486 32.0622 5.41926 32.0273 5.72271 31.8022L14.0145 25.6517L22.2186 31.7993C22.5216 32.0264 22.927 32.0628 23.2657 31.8934C23.6043 31.724 23.8183 31.3777 23.8183 30.9991V6.05542C23.8183 5.50314 23.3705 5.05542 22.8183 5.05542H5.12695ZM6.12695 29.0122V7.05542H21.8183V29.0001L14.6172 23.6041C14.2632 23.3388 13.777 23.3377 13.4217 23.6012L6.12695 29.0122Z" fill="#111827"/>
</svg>
