<svg width="33" height="32" viewBox="0 0 33 32" fill="none" xmlns="http://www.w3.org/2000/svg">
<path fill-rule="evenodd" clip-rule="evenodd" d="M0.500732 1.00092C0.500732 0.448631 0.948448 0.000915527 1.50073 0.000915527H9.68206C10.2343 0.000915527 10.6821 0.448631 10.6821 1.00092V4.09157H22.3178V1.00092C22.3178 0.448631 22.7655 0.000915527 23.3178 0.000915527H31.4992C32.0514 0.000915527 32.4992 0.448631 32.4992 1.00092V9.18225C32.4992 9.73453 32.0514 10.1822 31.4992 10.1822H28.4082V21.8177H31.4992C32.0514 21.8177 32.4992 22.2654 32.4992 22.8177V30.999C32.4992 31.5513 32.0514 31.999 31.4992 31.999H23.3178C22.7655 31.999 22.3178 31.5513 22.3178 30.999V27.9085H10.6821V30.999C10.6821 31.5513 10.2343 31.999 9.68206 31.999H1.50073C0.948448 31.999 0.500732 31.5513 0.500732 30.999V22.8177C0.500732 22.2654 0.948448 21.8177 1.50073 21.8177H4.59115V10.1822H1.50073C0.948448 10.1822 0.500732 9.73453 0.500732 9.18225V1.00092ZM22.3178 25.9085V22.8177C22.3178 22.2654 22.7655 21.8177 23.3178 21.8177H26.4082V10.1822H23.3178C22.7655 10.1822 22.3178 9.73453 22.3178 9.18225V6.09157H10.6821V9.18225C10.6821 9.73453 10.2343 10.1822 9.68206 10.1822H6.59115V21.8177H9.68206C10.2343 21.8177 10.6821 22.2654 10.6821 22.8177V25.9085H22.3178ZM27.391 23.8177H24.3178V29.999H30.4992V23.8177H27.4254C27.4197 23.8178 27.414 23.8178 27.4082 23.8178C27.4025 23.8178 27.3968 23.8178 27.391 23.8177ZM5.57395 23.8177H2.50073V29.999H8.68206V26.9137L8.68205 26.9085L8.68206 26.9033V23.8177H5.60835L5.59115 23.8178L5.57395 23.8177ZM8.68206 2.00092V5.08635L8.68205 5.09157L8.68206 5.0968V8.18225H2.50073V2.00092H8.68206ZM24.3178 2.00092V8.18225H30.4992V2.00092H24.3178Z" fill="#111827"/>
</svg>
