<svg width="33" height="32" viewBox="0 0 33 32" fill="none" xmlns="http://www.w3.org/2000/svg">
<path fill-rule="evenodd" clip-rule="evenodd" d="M9.00134 4.00183C7.89332 4.00183 6.96781 4.19146 6.21768 4.59256C5.45073 5.00267 4.9347 5.59805 4.60211 6.28402C4.00054 7.52476 4.00133 9.09839 4.00197 10.3776L4.00201 10.5009C4.00201 11.9502 3.98106 13.064 3.60228 13.8452C3.43495 14.1904 3.20111 14.4542 2.84325 14.6456C2.46857 14.8459 1.89433 15 1.00269 15C0.450401 15 0.00268555 15.4477 0.00268555 16C0.00268555 16.5523 0.450401 17 1.00269 17C1.89433 17 2.46857 17.154 2.84325 17.3544C3.20111 17.5457 3.43495 17.8096 3.60228 18.1547C3.98106 18.936 4.00201 20.0498 4.00201 21.499L4.00197 21.6223C4.00133 22.9016 4.00054 24.4752 4.60211 25.7159C4.9347 26.4019 5.45073 26.9973 6.21768 27.4074C6.96781 27.8085 7.89332 27.9981 9.00134 27.9981C9.55362 27.9981 10.0013 27.5504 10.0013 26.9981C10.0013 26.4458 9.55362 25.9981 9.00134 25.9981C8.10969 25.9981 7.53546 25.8441 7.16077 25.6437C6.80291 25.4523 6.56907 25.1885 6.40174 24.8434C6.02296 24.0621 6.00201 22.9483 6.00201 21.499L6.00205 21.3758C6.00269 20.0965 6.00348 18.5229 5.40191 17.2822C5.16752 16.7987 4.84201 16.3603 4.40178 16C4.84201 15.6397 5.16752 15.2012 5.40191 14.7178C6.00348 13.477 6.00269 11.9034 6.00205 10.6242L6.00201 10.5009C6.00201 9.05165 6.02296 7.93781 6.40174 7.15656C6.56907 6.81145 6.80291 6.54761 7.16077 6.35625C7.53546 6.1559 8.10969 6.00183 9.00134 6.00183C9.55362 6.00183 10.0013 5.55412 10.0013 5.00183C10.0013 4.44955 9.55362 4.00183 9.00134 4.00183ZM23.9987 4.00183C23.4464 4.00183 22.9987 4.44955 22.9987 5.00183C22.9987 5.55412 23.4464 6.00183 23.9987 6.00183C24.8903 6.00183 25.4645 6.1559 25.8392 6.35625C26.1971 6.54761 26.4309 6.81145 26.5983 7.15656C26.977 7.93781 26.998 9.05165 26.998 10.5009L26.9979 10.6242C26.9973 11.9034 26.9965 13.477 27.5981 14.7178C27.8325 15.2012 28.158 15.6397 28.5982 16C28.158 16.3603 27.8325 16.7987 27.5981 17.2822C26.9965 18.5229 26.9973 20.0965 26.9979 21.3758L26.998 21.499C26.998 22.9483 26.977 24.0621 26.5983 24.8434C26.4309 25.1885 26.1971 25.4523 25.8392 25.6437C25.4645 25.8441 24.8903 25.9981 23.9987 25.9981C23.4464 25.9981 22.9987 26.4458 22.9987 26.9981C22.9987 27.5504 23.4464 27.9981 23.9987 27.9981C25.1067 27.9981 26.0322 27.8085 26.7823 27.4074C27.5493 26.9973 28.0653 26.4019 28.3979 25.7159C28.9995 24.4752 28.9987 22.9016 28.998 21.6223L28.998 21.499C28.998 20.0498 29.0189 18.936 29.3977 18.1547C29.565 17.8096 29.7989 17.5457 30.1567 17.3544C30.5314 17.154 31.1057 17 31.9973 17C32.5496 17 32.9973 16.5523 32.9973 16C32.9973 15.4477 32.5496 15 31.9973 15C31.1057 15 30.5314 14.8459 30.1567 14.6456C29.7989 14.4542 29.565 14.1904 29.3977 13.8452C29.0189 13.064 28.998 11.9502 28.998 10.5009L28.998 10.3776C28.9987 9.09839 28.9995 7.52476 28.3979 6.28402C28.0653 5.59805 27.5493 5.00267 26.7823 4.59256C26.0322 4.19146 25.1067 4.00183 23.9987 4.00183Z" fill="#111827"/>
</svg>
