<svg width="33" height="32" viewBox="0 0 33 32" fill="none" xmlns="http://www.w3.org/2000/svg">
<path fill-rule="evenodd" clip-rule="evenodd" d="M10.6935 6.48389C9.81117 6.48389 9.05488 6.63473 8.43168 6.96797C7.79165 7.31021 7.36024 7.80864 7.08406 8.37826C6.59495 9.38704 6.59595 10.6526 6.59671 11.6288L6.59677 11.742C6.59677 12.881 6.57583 13.6845 6.30986 14.2331C6.19895 14.4619 6.04972 14.6288 5.81878 14.7522C5.57101 14.8847 5.16601 15 4.5 15C3.94772 15 3.5 15.4477 3.5 16C3.5 16.5523 3.94772 17 4.5 17C5.16601 17 5.57101 17.1153 5.81878 17.2478C6.04972 17.3713 6.19895 17.5382 6.30986 17.7669C6.57583 18.3155 6.59677 19.1191 6.59677 20.2581L6.59671 20.3712C6.59595 21.3475 6.59495 22.613 7.08406 23.6218C7.36024 24.1914 7.79165 24.6898 8.43168 25.0321C9.05488 25.3653 9.81117 25.5161 10.6935 25.5161C11.2458 25.5161 11.6935 25.0684 11.6935 24.5161C11.6935 23.9639 11.2458 23.5161 10.6935 23.5161C10.0275 23.5161 9.62253 23.4009 9.37477 23.2684C9.14383 23.1449 8.9946 22.978 8.88368 22.7492C8.61772 22.2007 8.59677 21.3971 8.59677 20.2581L8.59683 20.1449C8.5976 19.1687 8.5986 17.9032 8.10949 16.8944C7.95098 16.5675 7.74133 16.264 7.47045 16C7.74133 15.7361 7.95098 15.4326 8.10949 15.1056C8.5986 14.0969 8.5976 12.8313 8.59683 11.8551L8.59677 11.742C8.59677 10.6029 8.61772 9.79936 8.88368 9.25081C8.9946 9.02204 9.14383 8.85515 9.37477 8.73166C9.62253 8.59917 10.0275 8.48389 10.6935 8.48389C11.2458 8.48389 11.6935 8.03617 11.6935 7.48389C11.6935 6.9316 11.2458 6.48389 10.6935 6.48389ZM22.3064 6.48389C21.7541 6.48389 21.3064 6.9316 21.3064 7.48389C21.3064 8.03617 21.7541 8.48389 22.3064 8.48389C22.9724 8.48389 23.3774 8.59917 23.6252 8.73166C23.8561 8.85515 24.0053 9.02204 24.1163 9.25081C24.3822 9.79936 24.4032 10.6029 24.4032 11.742L24.4031 11.8551C24.4023 12.8313 24.4013 14.0969 24.8905 15.1056C25.049 15.4326 25.2586 15.7361 25.5295 16C25.2586 16.264 25.049 16.5675 24.8905 16.8944C24.4013 17.9032 24.4023 19.1687 24.4031 20.1449L24.4032 20.2581C24.4032 21.3971 24.3822 22.2007 24.1163 22.7492C24.0053 22.978 23.8561 23.1449 23.6252 23.2684C23.3774 23.4009 22.9724 23.5161 22.3064 23.5161C21.7541 23.5161 21.3064 23.9639 21.3064 24.5161C21.3064 25.0684 21.7541 25.5161 22.3064 25.5161C23.1888 25.5161 23.9451 25.3653 24.5683 25.0321C25.2083 24.6898 25.6397 24.1914 25.9159 23.6218C26.405 22.613 26.404 21.3475 26.4032 20.3712L26.4032 20.2581C26.4032 19.1191 26.4241 18.3155 26.6901 17.7669C26.801 17.5382 26.9502 17.3713 27.1812 17.2478C27.4289 17.1153 27.8339 17 28.4999 17C29.0522 17 29.4999 16.5523 29.4999 16C29.4999 15.4477 29.0522 15 28.4999 15C27.8339 15 27.4289 14.8847 27.1812 14.7522C26.9502 14.6288 26.801 14.4619 26.6901 14.2331C26.4241 13.6845 26.4032 12.881 26.4032 11.742L26.4032 11.6288C26.404 10.6526 26.405 9.38704 25.9159 8.37826C25.6397 7.80864 25.2083 7.31021 24.5683 6.96797C23.9451 6.63473 23.1888 6.48389 22.3064 6.48389Z" fill="#111827"/>
</svg>
