<svg width="33" height="32" viewBox="0 0 33 32" fill="none" xmlns="http://www.w3.org/2000/svg">
<path fill-rule="evenodd" clip-rule="evenodd" d="M5.5105 3C4.95821 3 4.5105 3.44772 4.5105 4V28C4.5105 28.5523 4.95821 29 5.5105 29H10.4917C11.044 29 11.4917 28.5523 11.4917 28C11.4917 27.4477 11.044 27 10.4917 27H6.5105V5H10.4933C11.0456 5 11.4933 4.55228 11.4933 4C11.4933 3.44772 11.0456 3 10.4933 3H5.5105ZM22.5263 3C21.974 3 21.5263 3.44772 21.5263 4C21.5263 4.55228 21.974 5 22.5263 5H26.4895V27H22.4932C21.9409 27 21.4932 27.4477 21.4932 28C21.4932 28.5523 21.9409 29 22.4932 29H27.4895C28.0417 29 28.4895 28.5523 28.4895 28V4C28.4895 3.44772 28.0417 3 27.4895 3H22.5263Z" fill="#111827"/>
</svg>
