<svg width="32" height="32" viewBox="0 0 32 32" fill="none" xmlns="http://www.w3.org/2000/svg">
<path d="M12.451 10.9345V11.8193C12.451 12.6405 12.1248 13.4281 11.5441 14.0089C10.9634 14.5896 10.1757 14.9158 9.35449 14.9158" stroke="#1C1B1F" stroke-width="2" stroke-linecap="round" stroke-linejoin="round"/>
<path d="M7.81134 21.2657L8.30177 21.3353C8.75701 21.4 9.2193 21.2812 9.58693 21.005C9.95456 20.7288 10.1974 20.3179 10.2621 19.8627" stroke="#1C1B1F" stroke-width="2" stroke-linecap="round" stroke-linejoin="round"/>
<path d="M21.8836 19.3948L21.9602 19.8842C22.0313 20.3384 22.28 20.7459 22.6515 21.0168C23.023 21.2877 23.4869 21.4 23.9412 21.3289" stroke="#1C1B1F" stroke-width="2" stroke-linecap="round" stroke-linejoin="round"/>
<path d="M16.0001 21.5642V20.6763C16.0001 19.8521 15.6727 19.0616 15.0898 18.4788C14.507 17.896 13.7166 17.5686 12.8923 17.5686" stroke="#1C1B1F" stroke-width="2" stroke-linecap="round" stroke-linejoin="round"/>
<path d="M15.9999 21.5642V20.6763C15.9999 19.8521 16.3273 19.0616 16.9102 18.4788C17.493 17.896 18.2834 17.5686 19.1077 17.5686" stroke="#1C1B1F" stroke-width="2" stroke-linecap="round" stroke-linejoin="round"/>
<path d="M19.4927 10.9345V11.8193C19.4927 12.6405 19.8189 13.4281 20.3996 14.0089C20.9804 14.5896 21.768 14.9158 22.5892 14.9158" stroke="#1C1B1F" stroke-width="2" stroke-linecap="round" stroke-linejoin="round"/>
<path d="M15.9984 23.1811V22.1811C15.4571 22.1811 15.0142 22.6117 14.9988 23.1527L15.9984 23.1811ZM8.41031 21.3813L9.31616 21.8049C9.45405 21.51 9.43979 21.1665 9.27794 20.8841C9.11609 20.6016 8.8269 20.4157 8.50279 20.3856L8.41031 21.3813ZM7.72013 11.806L7.95477 12.7781C8.26735 12.7026 8.52458 12.4815 8.64604 12.1838C8.76751 11.886 8.7384 11.5481 8.56781 11.2755L7.72013 11.806ZM16 23.1811V24.1811C16.5523 24.1811 17 23.7334 17 23.1811H16ZM14.9988 23.1527C14.9531 24.7587 13.6362 26.0471 12.0187 26.0471V28.0471C14.7217 28.0471 16.9216 25.8944 16.998 23.2095L14.9988 23.1527ZM12.0187 26.0471C10.3722 26.0471 9.03744 24.7123 9.03744 23.0658H7.03744C7.03744 25.8169 9.26763 28.0471 12.0187 28.0471V26.0471ZM9.03744 23.0658C9.03744 22.6131 9.13765 22.1866 9.31616 21.8049L7.50446 20.9577C7.20451 21.5991 7.03744 22.3143 7.03744 23.0658H9.03744ZM8.50279 20.3856C6.53848 20.2031 5 18.5488 5 16.5363H3C3 19.5914 5.33465 22.0999 8.31783 22.377L8.50279 20.3856ZM5 16.5363C5 14.7161 6.25892 13.1874 7.95477 12.7781L7.4855 10.8339C4.91238 11.455 3 13.7711 3 16.5363H5ZM8.56781 11.2755C8.23376 10.7417 8.0405 10.1113 8.0405 9.43269H6.0405C6.0405 10.4974 6.34515 11.494 6.87246 12.3365L8.56781 11.2755ZM8.0405 9.43269C8.0405 7.51088 9.59844 5.95294 11.5203 5.95294V3.95294C8.49387 3.95294 6.0405 6.40631 6.0405 9.43269H8.0405ZM11.5203 5.95294C13.4421 5.95294 15 7.51088 15 9.43269H17C17 6.40631 14.5466 3.95294 11.5203 3.95294V5.95294ZM15 9.43269C15 9.43299 15 9.43334 15 9.4341C15 9.43474 15 9.43578 15 9.43687H17C17 9.43657 17 9.43622 17 9.43547C17 9.43483 17 9.43379 17 9.43269H15ZM15 9.43687V23.0658H17V9.43687H15ZM15 23.0658V23.1811H17V23.0658H15ZM16 22.1811H15.9984V24.1811H16V22.1811Z" fill="#1C1B1F"/>
<path d="M16.0016 23.1811V22.1811C16.5429 22.1811 16.9858 22.6117 17.0012 23.1527L16.0016 23.1811ZM23.5897 21.3813L22.6838 21.8049C22.546 21.51 22.5602 21.1665 22.7221 20.8841C22.8839 20.6016 23.1731 20.4157 23.4972 20.3856L23.5897 21.3813ZM24.2799 11.806L24.0452 12.7781C23.7327 12.7026 23.4754 12.4815 23.354 12.1838C23.2325 11.886 23.2616 11.5481 23.4322 11.2755L24.2799 11.806ZM16 23.1811V24.1811C15.4477 24.1811 15 23.7334 15 23.1811H16ZM17.0012 23.1527C17.0469 24.7587 18.3638 26.0471 19.9813 26.0471V28.0471C17.2783 28.0471 15.0784 25.8944 15.002 23.2095L17.0012 23.1527ZM19.9813 26.0471C21.6278 26.0471 22.9626 24.7123 22.9626 23.0658H24.9626C24.9626 25.8169 22.7324 28.0471 19.9813 28.0471V26.0471ZM22.9626 23.0658C22.9626 22.6131 22.8623 22.1866 22.6838 21.8049L24.4955 20.9577C24.7955 21.5991 24.9626 22.3143 24.9626 23.0658H22.9626ZM23.4972 20.3856C25.4615 20.2031 27 18.5488 27 16.5363H29C29 19.5914 26.6653 22.0999 23.6822 22.377L23.4972 20.3856ZM27 16.5363C27 14.7161 25.7411 13.1874 24.0452 12.7781L24.5145 10.8339C27.0876 11.455 29 13.7711 29 16.5363H27ZM23.4322 11.2755C23.7662 10.7417 23.9595 10.1113 23.9595 9.43269H25.9595C25.9595 10.4974 25.6549 11.494 25.1275 12.3365L23.4322 11.2755ZM23.9595 9.43269C23.9595 7.51088 22.4016 5.95294 20.4797 5.95294V3.95294C23.5061 3.95294 25.9595 6.40631 25.9595 9.43269H23.9595ZM20.4797 5.95294C18.5579 5.95294 17 7.51088 17 9.43269H15C15 6.40631 17.4534 3.95294 20.4797 3.95294V5.95294ZM17 9.43269C17 9.43299 17 9.43334 17 9.4341C17 9.43474 17 9.43578 17 9.43687H15C15 9.43657 15 9.43622 15 9.43547C15 9.43483 15 9.43379 15 9.43269H17ZM17 9.43687V23.0658H15V9.43687H17ZM17 23.0658V23.1811H15V23.0658H17ZM16 22.1811H16.0016V24.1811H16V22.1811Z" fill="#1C1B1F"/>
</svg>
