<svg width="33" height="32" viewBox="0 0 33 32" fill="none" xmlns="http://www.w3.org/2000/svg">
<path fill-rule="evenodd" clip-rule="evenodd" d="M10.9007 3.19202C8.36053 3.19202 6.30133 5.25122 6.30133 7.79137C6.30133 8.68783 6.5568 9.52157 6.99848 10.2273C7.16906 10.4999 7.19817 10.8378 7.0767 11.1356C6.95524 11.4333 6.69801 11.6544 6.38543 11.7299C4.15609 12.268 2.50085 14.2771 2.50085 16.6704C2.50085 19.0231 4.10016 21.0032 6.27043 21.5816C6.31497 21.5819 6.36 21.5852 6.40532 21.5916L7.01832 21.6787C7.32476 21.7222 7.63594 21.6422 7.8834 21.4563C8.13087 21.2704 8.29435 20.9938 8.33788 20.6874C8.41556 20.1406 8.92179 19.7603 9.46858 19.838C10.0154 19.9157 10.3957 20.4219 10.318 20.9687C10.1999 21.8003 9.75622 22.5509 9.08466 23.0554C8.68136 23.3584 8.2157 23.5577 7.72791 23.643C7.61076 24.0175 7.54746 24.4166 7.54746 24.8317C7.54746 27.0277 9.32771 28.808 11.5238 28.808C13.6811 28.808 15.4375 27.0896 15.4984 24.9473C15.4987 24.9363 15.4992 24.9253 15.4999 24.9143V24.8626V24.8625L15.4998 24.8317L15.4999 24.8009V24.8008V22.9668L15.4998 22.9549V21.845L15.4999 21.8119C15.4912 21.0588 15.1884 20.3385 14.6552 19.8054C14.1143 19.2645 13.3806 18.9606 12.6156 18.9606C12.0634 18.9606 11.6156 18.5129 11.6156 17.9606C11.6156 17.4083 12.0634 16.9606 12.6156 16.9606C13.6591 16.9606 14.6681 17.2945 15.4999 17.9031V7.81758L15.4998 7.79137C15.4998 7.78042 15.4999 7.76948 15.4999 7.75854C15.4823 5.2335 13.4299 3.19202 10.9007 3.19202ZM16.4999 4.29688C15.3338 2.43226 13.2621 1.19202 10.9007 1.19202C7.25596 1.19202 4.30133 4.14665 4.30133 7.79137C4.30133 8.63254 4.45914 9.43817 4.74689 10.1793C2.24762 11.2728 0.500854 13.7667 0.500854 16.6704C0.500854 19.9288 2.70084 22.6725 5.69697 23.4984C5.59909 23.9276 5.54746 24.374 5.54746 24.8317C5.54746 28.1323 8.22314 30.808 11.5238 30.808C13.5999 30.808 15.4287 29.7494 16.4999 28.1424C17.5711 29.7494 19.3999 30.808 21.4761 30.808C24.7767 30.808 27.4524 28.1323 27.4524 24.8317C27.4524 24.374 27.4008 23.9276 27.3029 23.4984C30.299 22.6725 32.499 19.9288 32.499 16.6704C32.499 13.7667 30.7522 11.2728 28.253 10.1793C28.5407 9.43817 28.6985 8.63254 28.6985 7.79137C28.6985 4.14665 25.7439 1.19202 22.0992 1.19202C19.7378 1.19202 17.6661 2.43226 16.4999 4.29688ZM17.5 24.9143V24.8626V24.8625L17.5001 24.8317L17.5 24.8009V24.8008V22.97L17.5001 22.9549V21.845L17.5 21.8119C17.5086 21.0588 17.8115 20.3385 18.3446 19.8054C18.8855 19.2645 19.6192 18.9606 20.3842 18.9606C20.9365 18.9606 21.3842 18.5129 21.3842 17.9606C21.3842 17.4083 20.9365 16.9606 20.3842 16.9606C19.3408 16.9606 18.3317 17.2945 17.5 17.9031V7.81758L17.5 7.79137C17.5 7.78042 17.5 7.76948 17.4999 7.75855C17.5176 5.2335 19.57 3.19202 22.0992 3.19202C24.6393 3.19202 26.6985 5.25122 26.6985 7.79137C26.6985 8.68783 26.4431 9.52157 26.0014 10.2273C25.8308 10.4999 25.8017 10.8378 25.9232 11.1356C26.0446 11.4333 26.3019 11.6544 26.6144 11.7299C28.8438 12.268 30.499 14.2771 30.499 16.6704C30.499 19.148 28.7254 21.2123 26.3792 21.6617C26.3434 21.6634 26.3073 21.667 26.2711 21.6727C25.9653 21.7206 25.653 21.645 25.4029 21.4626C25.1529 21.2803 24.9855 21.006 24.9376 20.7002L24.8418 20.0885C24.7564 19.5429 24.2448 19.1698 23.6992 19.2552C23.1536 19.3406 22.7805 19.8522 22.8659 20.3979L22.9617 21.0096C23.0916 21.8394 23.5458 22.5836 24.2245 23.0786C24.5365 23.3061 24.8841 23.4724 25.2493 23.573C25.3809 23.9677 25.4524 24.3906 25.4524 24.8317C25.4524 27.0277 23.6721 28.808 21.4761 28.808C19.3187 28.808 17.5623 27.0896 17.5014 24.9473C17.5011 24.9363 17.5006 24.9253 17.5 24.9143ZM13.064 9.66855C13.064 9.11627 12.6162 8.66855 12.064 8.66855C11.5117 8.66855 11.064 9.11627 11.064 9.66855V10.7744C11.064 11.5357 10.7615 12.2658 10.2232 12.8041C9.6849 13.3424 8.95479 13.6449 8.1935 13.6449C7.64122 13.6449 7.1935 14.0926 7.1935 14.6449C7.1935 15.1971 7.64122 15.6449 8.1935 15.6449C9.48523 15.6449 10.724 15.1317 11.6374 14.2183C12.5508 13.3049 13.064 12.0661 13.064 10.7744V9.66855ZM19.8655 9.66855C19.8655 9.11627 20.3132 8.66855 20.8655 8.66855C21.4178 8.66855 21.8655 9.11627 21.8655 9.66855V10.7744C21.8655 11.5357 22.1679 12.2658 22.7063 12.8041C23.2446 13.3424 23.9747 13.6449 24.736 13.6449C25.2883 13.6449 25.736 14.0926 25.736 14.6449C25.736 15.1971 25.2883 15.6449 24.736 15.6449C23.4443 15.6449 22.2054 15.1317 21.292 14.2183C20.3787 13.3049 19.8655 12.0661 19.8655 10.7744V9.66855Z" fill="#111827"/>
</svg>
