<svg width="33" height="33" viewBox="0 0 33 33" fill="none" xmlns="http://www.w3.org/2000/svg">
<path fill-rule="evenodd" clip-rule="evenodd" d="M3.63555 0.955456C3.82005 0.671828 4.13546 0.500731 4.47381 0.500732L28.5262 0.500811C28.8646 0.500812 29.18 0.67191 29.3645 0.955539C30.8711 3.27169 31.7244 5.95162 31.8345 8.71247C31.9445 11.4733 31.3071 14.2127 29.9896 16.6414C28.6721 19.0701 26.7234 21.098 24.3491 22.5112C22.262 23.7534 19.9141 24.4801 17.4999 24.6377V30.4988H23.0212C23.5735 30.4988 24.0212 30.9465 24.0212 31.4988C24.0212 32.0511 23.5735 32.4988 23.0212 32.4988H16.5202L16.4999 32.499L16.4796 32.4988H9.97881C9.42653 32.4988 8.97881 32.0511 8.97881 31.4988C8.97881 30.9465 9.42653 30.4988 9.97881 30.4988H15.4999V24.6377C13.0857 24.48 10.7379 23.7534 8.6508 22.5111C6.2765 21.098 4.32776 19.07 3.01028 16.6413C1.6928 14.2126 1.05545 11.4732 1.1655 8.71237C1.27556 5.95152 2.12893 3.27159 3.63555 0.955456ZM5.02909 2.50073C3.89494 4.40748 3.2525 6.56961 3.16391 8.79203C3.11755 9.95508 3.22371 11.1138 3.47572 12.2395H29.5242C29.7762 11.1138 29.8824 9.95514 29.8361 8.79211C29.7475 6.56969 29.1051 4.40756 27.9709 2.50081L5.02909 2.50073ZM28.9084 14.2395H4.09159C4.2874 14.7337 4.51318 15.2174 4.76828 15.6876C5.91406 17.7998 7.60884 19.5635 9.67372 20.7925C11.7386 22.0215 14.097 22.6703 16.4999 22.6703C18.9029 22.6703 21.2613 22.0216 23.3262 20.7926C25.3911 19.5636 27.0858 17.7999 28.2316 15.6877C28.4868 15.2174 28.7125 14.7338 28.9084 14.2395Z" fill="#111827"/>
</svg>
