<svg width="33" height="32" viewBox="0 0 33 32" fill="none" xmlns="http://www.w3.org/2000/svg">
<path fill-rule="evenodd" clip-rule="evenodd" d="M10.2516 1.25204C9.69929 1.25204 9.25158 1.69976 9.25158 2.25204V6.25137H1.50232C0.950035 6.25137 0.502319 6.69908 0.502319 7.25137V13.5003V23.499V29.748C0.502319 30.3003 0.950035 30.748 1.50232 30.748H31.4978C32.0501 30.748 32.4978 30.3003 32.4978 29.748V23.499V13.5003V7.25137C32.4978 6.69908 32.0501 6.25137 31.4978 6.25137H23.7497V2.25204C23.7497 1.69976 23.302 1.25204 22.7497 1.25204H10.2516ZM11.2516 6.2513V3.25204H21.7497V6.2513H11.2516ZM30.4978 8.25137V12.5003H2.50232V8.25137H30.4978ZM30.4978 14.5003H2.50232V22.499H30.4978V14.5003ZM2.50232 28.748V24.499H30.4978V28.748H2.50232Z" fill="#111827"/>
</svg>
