<svg width="33" height="32" viewBox="0 0 33 32" fill="none" xmlns="http://www.w3.org/2000/svg">
<path fill-rule="evenodd" clip-rule="evenodd" d="M10.2495 1.25107C9.69723 1.25107 9.24951 1.69878 9.24951 2.25107V6.25067H1.50151C0.949225 6.25067 0.501509 6.69839 0.501509 7.25067V15.7036C0.500797 15.7254 0.500801 15.7471 0.501509 15.7688V29.7489C0.501509 30.3012 0.949225 30.7489 1.50151 30.7489H31.4991C32.0514 30.7489 32.4991 30.3012 32.4991 29.7489V15.7437V15.726V7.25067C32.4991 6.69839 32.0514 6.25067 31.4991 6.25067H23.7485V2.25107C23.7485 1.69878 23.3008 1.25107 22.7485 1.25107H10.2495ZM22.7495 8.25067C22.7492 8.25067 22.7489 8.25067 22.7485 8.25067H10.2495C10.2492 8.25067 10.2489 8.25067 10.2485 8.25067H2.50151V15.1539C6.78358 17.5185 11.5995 18.7574 16.4974 18.7497H16.5005C21.3994 18.7574 26.2164 17.5179 30.4991 15.1524V8.25067H22.7495ZM21.7485 6.25067V3.25107H11.2495V6.25067H21.7485ZM2.50151 28.7489V17.4165C6.83226 19.6113 11.6277 20.7571 16.4989 20.7497C21.3712 20.7571 26.1677 19.6108 30.4991 17.415V28.7489H2.50151ZM14.6241 13.7501C14.0718 13.7501 13.6241 14.1978 13.6241 14.7501C13.6241 15.3023 14.0718 15.7501 14.6241 15.7501H18.3738C18.9261 15.7501 19.3738 15.3023 19.3738 14.7501C19.3738 14.1978 18.9261 13.7501 18.3738 13.7501H14.6241Z" fill="#111827"/>
</svg>
