<svg width="33" height="32" viewBox="0 0 33 32" fill="none" xmlns="http://www.w3.org/2000/svg">
<path fill-rule="evenodd" clip-rule="evenodd" d="M27.8087 4.69006C27.4179 4.29987 26.7847 4.30041 26.3945 4.69126C26.0043 5.08212 26.0049 5.71529 26.3957 6.10548C27.6965 7.40405 28.7285 8.94636 29.4326 10.6442C30.1367 12.342 30.4991 14.162 30.4991 16C30.4991 17.838 30.1367 19.658 29.4326 21.3558C28.7285 23.0536 27.6965 24.596 26.3957 25.8945C26.0049 26.2847 26.0043 26.9179 26.3945 27.3087C26.7847 27.6996 27.4179 27.7001 27.8087 27.31C29.2956 25.8256 30.4752 24.0627 31.28 22.122C32.0849 20.1813 32.4991 18.101 32.4991 16C32.4991 13.899 32.0849 11.8187 31.28 9.87802C30.4752 7.93733 29.2956 6.17439 27.8087 4.69006ZM6.60558 4.69129C6.99577 5.08215 6.99523 5.71532 6.60438 6.10551C5.30359 7.40408 4.27161 8.94639 3.56751 10.6442C2.8634 12.342 2.50098 14.162 2.50098 16C2.50098 17.8381 2.8634 19.6581 3.56751 21.3559C4.27161 23.0537 5.30359 24.596 6.60438 25.8946C6.99523 26.2848 6.99577 26.9179 6.60558 27.3088C6.21539 27.6996 5.58223 27.7002 5.19137 27.31C3.7045 25.8257 2.5249 24.0627 1.72007 22.122C0.915243 20.1813 0.500977 18.101 0.500977 16C0.500977 13.8991 0.915243 11.8187 1.72007 9.87805C2.5249 7.93736 3.7045 6.17442 5.19137 4.69009C5.58223 4.2999 6.21539 4.30044 6.60558 4.69129ZM10.392 8.4778C10.7822 8.86866 10.7816 9.50182 10.3908 9.89201C9.58776 10.6936 8.95071 11.6457 8.51606 12.6938C8.0814 13.7419 7.85767 14.8654 7.85767 16C7.85767 17.1347 8.0814 18.2582 8.51606 19.3062C8.95071 20.3543 9.58776 21.3064 10.3908 22.108C10.7816 22.4982 10.7822 23.1314 10.392 23.5223C10.0018 23.9131 9.36861 23.9137 8.97775 23.5235C7.98868 22.5361 7.204 21.3634 6.66862 20.0724C6.13325 18.7814 5.85767 17.3976 5.85767 16C5.85767 14.6025 6.13325 13.2186 6.66862 11.9277C7.204 10.6367 7.98868 9.46398 8.97775 8.47659C9.36861 8.0864 10.0018 8.08694 10.392 8.4778ZM16.5 12.716C14.6864 12.716 13.2161 14.1863 13.2161 16C13.2161 17.8137 14.6864 19.2839 16.5 19.2839C18.3137 19.2839 19.784 17.8137 19.784 16C19.784 14.1863 18.3137 12.716 16.5 12.716ZM11.2161 16C11.2161 13.0817 13.5818 10.716 16.5 10.716C19.4183 10.716 21.784 13.0817 21.784 16C21.784 18.9182 19.4183 21.2839 16.5 21.2839C13.5818 21.2839 11.2161 18.9182 11.2161 16ZM24.0223 8.47659C23.6315 8.0864 22.9983 8.08694 22.6081 8.4778C22.2179 8.86866 22.2185 9.50182 22.6093 9.89201C23.4123 10.6936 24.0494 11.6457 24.484 12.6938C24.9187 13.7419 25.1424 14.8654 25.1424 16C25.1424 17.1347 24.9187 18.2582 24.484 19.3062C24.0494 20.3543 23.4123 21.3064 22.6093 22.108C22.2185 22.4982 22.2179 23.1314 22.6081 23.5223C22.9983 23.9131 23.6315 23.9137 24.0223 23.5235C25.0114 22.5361 25.7961 21.3634 26.3314 20.0724C26.8668 18.7814 27.1424 17.3976 27.1424 16C27.1424 14.6025 26.8668 13.2186 26.3314 11.9277C25.7961 10.6367 25.0114 9.46398 24.0223 8.47659Z" fill="#111827"/>
</svg>
