<svg width="33" height="32" viewBox="0 0 33 32" fill="none" xmlns="http://www.w3.org/2000/svg">
<path fill-rule="evenodd" clip-rule="evenodd" d="M6.41074 2.50122C5.85846 2.50122 5.41074 2.94894 5.41074 3.50122V7.50073H1.50214C0.949853 7.50073 0.502137 7.94845 0.502137 8.50073V13.4503C0.501326 13.4668 0.500916 13.4835 0.500916 13.5002C0.500916 13.5169 0.501326 13.5335 0.502137 13.55V28.4987C0.502137 29.051 0.949853 29.4987 1.50214 29.4987H26.5905C27.1428 29.4987 27.5905 29.051 27.5905 28.4987V24.4992H31.4991C32.0514 24.4992 32.4991 24.0515 32.4991 23.4992V3.50122C32.4991 2.94894 32.0514 2.50122 31.4991 2.50122H6.41074ZM25.5905 23.3501C25.5832 23.3987 25.5794 23.4485 25.5794 23.4992C25.5794 23.5499 25.5832 23.5996 25.5905 23.6483V27.4987H2.50214V14.5002H25.5905V23.3501ZM27.5905 22.4992H30.4991V4.50122H7.41074V7.50073H26.5905C27.1428 7.50073 27.5905 7.94845 27.5905 8.50073V22.4992ZM25.5905 9.50073V12.5002H2.50214V9.50073H25.5905Z" fill="#111827"/>
</svg>
