<svg width="33" height="32" viewBox="0 0 33 32" fill="none" xmlns="http://www.w3.org/2000/svg">
<path fill-rule="evenodd" clip-rule="evenodd" d="M16.1886 2.58691C11.7822 2.58691 7.97907 5.17018 6.21116 8.90488L3.56246 7.37566C3.08417 7.09952 2.47258 7.26339 2.19644 7.74168C1.9203 8.21998 2.08417 8.83157 2.56246 9.10771L5.51605 10.813C5.28102 11.7091 5.15587 12.6498 5.15587 13.6196V14.9999L1.50098 14.9999C0.948692 14.9999 0.500977 15.4476 0.500977 15.9999C0.500976 16.5522 0.948691 16.9999 1.50098 16.9999L5.15587 16.9999V18.3803C5.15587 19.3501 5.28101 20.2907 5.51603 21.1869L2.56246 22.8921C2.08417 23.1682 1.9203 23.7798 2.19644 24.2581C2.47258 24.7364 3.08417 24.9003 3.56246 24.6241L6.21112 23.0949C7.97902 26.8297 11.7821 29.413 16.1886 29.413C16.2689 29.413 16.349 29.4121 16.4289 29.4104C16.4524 29.4121 16.4761 29.4129 16.5 29.4129C16.545 29.4129 16.5892 29.41 16.6325 29.4042C20.9594 29.233 24.6456 26.5699 26.2958 22.8104L29.4374 24.6242C29.9157 24.9003 30.5273 24.7364 30.8034 24.2582C31.0795 23.7799 30.9157 23.1683 30.4374 22.8921L26.9387 20.8722C27.1236 20.0714 27.2213 19.2372 27.2213 18.3802V16.9999L31.4991 16.9999C32.0514 16.9999 32.4991 16.5522 32.4991 15.9999C32.4991 15.4476 32.0514 14.9999 31.4991 14.9999L27.2213 14.9999V13.6196C27.2213 12.7627 27.1236 11.9285 26.9387 11.1277L30.4374 9.10771C30.9157 8.83157 31.0796 8.21998 30.8034 7.74168C30.5273 7.26339 29.9157 7.09952 29.4374 7.37566L26.2958 9.18945C24.5894 5.30204 20.7061 2.58691 16.1886 2.58691ZM25.2213 14.9999V13.6196C25.2213 8.631 21.1772 4.58691 16.1886 4.58691C11.2 4.58691 7.15587 8.63101 7.15587 13.6196V14.9999L16.4969 14.9999L16.5 14.9999L16.5032 14.9999L25.2213 14.9999ZM7.15587 16.9999V18.3803C7.15587 23.1372 10.8331 27.0354 15.5 27.3871V16.9999L7.15587 16.9999ZM17.5 27.3185C21.8672 26.6833 25.2213 22.9235 25.2213 18.3802V16.9999L17.5 16.9999V27.3185ZM12.8795 12.8968C13.7364 12.8968 14.4311 12.2021 14.4311 11.3451C14.4311 10.4882 13.7364 9.79352 12.8795 9.79352C12.0225 9.79352 11.3278 10.4882 11.3278 11.3451C11.3278 12.2021 12.0225 12.8968 12.8795 12.8968ZM20.1205 12.8968C20.9774 12.8968 21.6721 12.2021 21.6721 11.3451C21.6721 10.4882 20.9774 9.79352 20.1205 9.79352C19.2635 9.79352 18.5688 10.4882 18.5688 11.3451C18.5688 12.2021 19.2635 12.8968 20.1205 12.8968Z" fill="#111827"/>
</svg>
