<svg width="32" height="32" viewBox="0 0 32 32" fill="none" xmlns="http://www.w3.org/2000/svg">
<path d="M28 16.5917H4" stroke="#1C1B1F" stroke-width="2" stroke-linecap="round" stroke-linejoin="round"/>
<path d="M19.5 13.5917C20.3284 13.5917 21 12.9201 21 12.0917C21 11.2632 20.3284 10.5917 19.5 10.5917C18.6716 10.5917 18 11.2632 18 12.0917C18 12.9201 18.6716 13.5917 19.5 13.5917Z" fill="#1C1B1F"/>
<path d="M12.5 13.5917C13.3284 13.5917 14 12.9201 14 12.0917C14 11.2632 13.3284 10.5917 12.5 10.5917C11.6716 10.5917 11 11.2632 11 12.0917C11 12.9201 11.6716 13.5917 12.5 13.5917Z" fill="#1C1B1F"/>
<path d="M6.66333 5.47717L10.4656 8.47717" stroke="#1C1B1F" stroke-width="2" stroke-linecap="round" stroke-linejoin="round"/>
<path d="M25.4804 5.47717L21.6782 8.47717" stroke="#1C1B1F" stroke-width="2" stroke-linecap="round" stroke-linejoin="round"/>
<rect x="7.97339" y="6.66064" width="16.0533" height="19.8621" rx="8.02667" stroke="#1C1B1F" stroke-width="2"/>
</svg>
