<svg width="33" height="32" viewBox="0 0 33 32" fill="none" xmlns="http://www.w3.org/2000/svg">
<path fill-rule="evenodd" clip-rule="evenodd" d="M29.1351 2.2279C29.4772 2.66148 29.403 3.29028 28.9694 3.63239L24.7121 6.9915C26.466 8.94492 27.5329 11.5276 27.5329 14.3594V15.7397H31.4991C32.0514 15.7397 32.4991 16.1874 32.4991 16.7397C32.4991 17.292 32.0514 17.7397 31.4991 17.7397H27.5329V19.12C27.5329 25.2133 22.5934 30.1528 16.5002 30.1528C10.407 30.1528 5.46743 25.2133 5.46743 19.1201V17.7397H1.50098C0.948692 17.7397 0.500977 17.292 0.500977 16.7397C0.500977 16.1874 0.948692 15.7397 1.50098 15.7397H5.46743V14.3594C5.46743 11.4875 6.56478 8.87186 8.36306 6.90893L4.21029 3.63239C3.77671 3.2903 3.70255 2.66149 4.04464 2.22792C4.38673 1.79434 5.01554 1.72017 5.44912 2.06227L9.86353 5.54524C11.7104 4.15248 14.0088 3.32671 16.5002 3.32671C19.0327 3.32671 21.366 4.18003 23.2281 5.61485L27.7306 2.06228C28.1642 1.72018 28.793 1.79433 29.1351 2.2279ZM7.46743 17.7397V19.1201C7.46743 24.1087 11.5115 28.1528 16.5002 28.1528C21.4888 28.1528 25.5329 24.1087 25.5329 19.12V17.7397H7.46743ZM25.5329 15.7397H7.46743V14.3594C7.46743 9.37081 11.5115 5.32671 16.5002 5.32671C21.4888 5.32671 25.5329 9.3708 25.5329 14.3594V15.7397ZM22.7497 11.115C22.7497 12.1505 21.9102 12.9899 20.8748 12.9899C19.8393 12.9899 18.9999 12.1505 18.9999 11.115C18.9999 10.0796 19.8393 9.24014 20.8748 9.24014C21.9102 9.24014 22.7497 10.0796 22.7497 11.115ZM12.1253 12.9899C13.1608 12.9899 14.0002 12.1505 14.0002 11.115C14.0002 10.0796 13.1608 9.24014 12.1253 9.24014C11.0898 9.24014 10.2504 10.0796 10.2504 11.115C10.2504 12.1505 11.0898 12.9899 12.1253 12.9899Z" fill="#111827"/>
</svg>
