<svg width="33" height="33" viewBox="0 0 33 33" fill="none" xmlns="http://www.w3.org/2000/svg">
<path fill-rule="evenodd" clip-rule="evenodd" d="M2.64258 4.20264C2.64258 3.65035 3.0903 3.20264 3.64258 3.20264H18.6417C19.194 3.20264 19.6417 3.65035 19.6417 4.20264V11.7268H29.3557C29.9079 11.7268 30.3557 12.1745 30.3557 12.7268V27.7974H31.4989C32.0512 27.7974 32.4989 28.2451 32.4989 28.7974C32.4989 29.3497 32.0512 29.7974 31.4989 29.7974H1.50073C0.948448 29.7974 0.500732 29.3497 0.500732 28.7974C0.500732 28.2451 0.948448 27.7974 1.50073 27.7974H2.64258V4.20264ZM4.64258 5.20264V27.7974H17.6417V5.20264H4.64258ZM8.99953 8.51291C8.44725 8.51291 7.99953 8.96063 7.99953 9.51291C7.99953 10.0652 8.44725 10.5129 8.99953 10.5129H13.285C13.8373 10.5129 14.285 10.0652 14.285 9.51291C14.285 8.96063 13.8373 8.51291 13.285 8.51291H8.99953ZM7.99953 15.9412C7.99953 15.3889 8.44725 14.9412 8.99953 14.9412H13.285C13.8373 14.9412 14.285 15.3889 14.285 15.9412C14.285 16.4934 13.8373 16.9412 13.285 16.9412H8.99953C8.44725 16.9412 7.99953 16.4934 7.99953 15.9412ZM8.99953 21.3692C8.44725 21.3692 7.99953 21.8169 7.99953 22.3692C7.99953 22.9214 8.44725 23.3692 8.99953 23.3692H13.285C13.8373 23.3692 14.285 22.9214 14.285 22.3692C14.285 21.8169 13.8373 21.3692 13.285 21.3692H8.99953ZM21.9273 23.4404C21.9273 22.8882 22.375 22.4404 22.9273 22.4404H25.07C25.6223 22.4404 26.07 22.8882 26.07 23.4404C26.07 23.9927 25.6223 24.4404 25.07 24.4404H22.9273C22.375 24.4404 21.9273 23.9927 21.9273 23.4404ZM22.9273 17.0835C22.375 17.0835 21.9273 17.5312 21.9273 18.0835C21.9273 18.6358 22.375 19.0835 22.9273 19.0835H25.07C25.6223 19.0835 26.07 18.6358 26.07 18.0835C26.07 17.5312 25.6223 17.0835 25.07 17.0835H22.9273ZM19.6419 27.7971V13.7268H28.3557V27.7971H19.6419Z" fill="#111827"/>
</svg>
