<svg width="33" height="32" viewBox="0 0 33 32" fill="none" xmlns="http://www.w3.org/2000/svg">
<path fill-rule="evenodd" clip-rule="evenodd" d="M7.47913 0.000915527C4.16542 0.000915527 1.47913 2.68721 1.47913 6.00091V14.0435V25.782V25.782V26.782V30.9991C1.47913 31.5514 1.92684 31.9991 2.47913 31.9991H9.00046C9.55274 31.9991 10.0005 31.5514 10.0005 30.9991V26.782H22.9995V30.9991C22.9995 31.5514 23.4472 31.9991 23.9995 31.9991H30.5209C31.0731 31.9991 31.5209 31.5514 31.5209 30.9991V25.782C31.5209 25.7804 31.5209 25.7788 31.5208 25.7772V14.0435V6.00092C31.5208 2.68721 28.8346 0.000915527 25.5209 0.000915527H7.47913ZM29.5209 26.782H24.9995V29.9991H29.5209V26.782ZM3.47913 29.9991V26.782H8.00046V29.9991H3.47913ZM29.5208 13.0435V6.00092C29.5208 3.79178 27.73 2.00092 25.5209 2.00092H7.47913C5.26999 2.00092 3.47913 3.79178 3.47913 6.00091V13.0435H29.5208ZM3.47913 15.0435H29.5208V24.782H3.47913V15.0435ZM11.283 19.9128C11.283 20.9932 10.4071 21.8692 9.32659 21.8692C8.2461 21.8692 7.37019 20.9932 7.37019 19.9128C7.37019 18.8323 8.2461 17.9564 9.32659 17.9564C10.4071 17.9564 11.283 18.8323 11.283 19.9128ZM23.6736 21.8692C24.7541 21.8692 25.63 20.9932 25.63 19.9128C25.63 18.8323 24.7541 17.9564 23.6736 17.9564C22.5931 17.9564 21.7172 18.8323 21.7172 19.9128C21.7172 20.9932 22.5931 21.8692 23.6736 21.8692Z" fill="#111827"/>
</svg>
