<svg width="33" height="33" viewBox="0 0 33 33" fill="none" xmlns="http://www.w3.org/2000/svg">
<path fill-rule="evenodd" clip-rule="evenodd" d="M10.8401 0.706965C10.4016 0.371179 9.77392 0.454429 9.43813 0.892911C9.10234 1.33139 9.1856 1.95906 9.62408 2.29485L11.9719 4.09279C13.2412 5.06484 14.2109 6.34259 14.8095 7.78125C13.4193 6.56114 11.5971 5.82144 9.60207 5.82144C5.24018 5.82144 1.70416 9.35745 1.70416 13.7193C1.70416 17.1312 3.86762 20.0378 6.89752 21.142C5.5032 22.3235 4.61813 24.0875 4.61813 26.0582C4.61813 29.6154 7.50183 32.4991 11.0591 32.4991C13.3477 32.4991 15.3575 31.3055 16.5 29.5067C17.6424 31.3055 19.6523 32.4991 21.9409 32.4991C25.4981 32.4991 28.3818 29.6154 28.3818 26.0582C28.3818 24.0875 27.4967 22.3235 26.1024 21.142C29.1323 20.0378 31.2958 17.1312 31.2958 13.7193C31.2958 9.35745 27.7598 5.82144 23.3979 5.82144C21.4028 5.82144 19.5806 6.56117 18.1904 7.7813C18.789 6.34262 19.7587 5.06485 21.028 4.09279L23.3758 2.29485C23.8143 1.95906 23.8976 1.33139 23.5618 0.892911C23.226 0.454429 22.5983 0.371179 22.1598 0.706965L19.812 2.50491C18.3665 3.61187 17.2389 5.04319 16.5 6.65573C15.761 5.04319 14.6334 3.61187 13.1879 2.50491L10.8401 0.706965ZM15.4999 21.6173V26.077C15.4898 28.521 13.5054 30.4991 11.0591 30.4991C8.6064 30.4991 6.61813 28.5109 6.61813 26.0582C6.61813 23.6056 8.6064 21.6173 11.0591 21.6173H15.4999ZM17.5 21.6173V26.0582L17.5 26.0665C17.5045 28.5154 19.491 30.4991 21.9409 30.4991C24.3935 30.4991 26.3818 28.5109 26.3818 26.0582C26.3818 23.6056 24.3935 21.6173 21.9409 21.6173H17.5ZM15.4999 13.6974L15.4999 19.6172H9.60207C6.34474 19.6172 3.70416 16.9767 3.70416 13.7193C3.70416 10.462 6.34475 7.82144 9.60207 7.82144C12.8521 7.82144 15.4881 10.4502 15.4999 13.6974ZM17.5 19.6172H23.3979C26.6552 19.6172 29.2958 16.9767 29.2958 13.7193C29.2958 10.462 26.6552 7.82144 23.3979 7.82144C20.1439 7.82144 17.5054 10.4566 17.5 13.7093L17.5 13.7193V19.6172Z" fill="#111827"/>
</svg>
