<svg width="32" height="33" viewBox="0 0 32 33" fill="none" xmlns="http://www.w3.org/2000/svg">
<path d="M16 24.4318L16 13.2776C16 10.1653 14.5509 7.23047 12.0799 5.33821L10.9854 4.5" stroke="#1C1B1F" stroke-width="2" stroke-linecap="round" stroke-linejoin="round"/>
<path d="M16 24.4318L16 13.2776C16 10.1653 17.4491 7.23047 19.92 5.33821L21.0146 4.5" stroke="#1C1B1F" stroke-width="2" stroke-linecap="round" stroke-linejoin="round"/>
<path d="M16 14.2754C16 11.2275 18.4708 8.75671 21.5187 8.75671V8.75671C24.5666 8.75671 27.0374 11.2275 27.0374 14.2754V14.2754C27.0374 17.3233 24.5666 19.7941 21.5187 19.7941H16V14.2754Z" stroke="#1C1B1F" stroke-width="2" stroke-linejoin="round"/>
<path d="M16 14.2754C16 11.2275 13.5292 8.75671 10.4813 8.75671V8.75671C7.43344 8.75671 4.96264 11.2275 4.96264 14.2754V14.2754C4.96264 17.3233 7.43344 19.7941 10.4813 19.7941H16V14.2754Z" stroke="#1C1B1F" stroke-width="2" stroke-linejoin="round"/>
<path d="M16 24.147C16 26.5511 17.9489 28.5 20.353 28.5V28.5C22.7571 28.5 24.706 26.5511 24.706 24.147V24.147C24.706 21.7429 22.7571 19.794 20.353 19.794H16V24.147Z" stroke="#1C1B1F" stroke-width="2" stroke-linejoin="round"/>
<path d="M16 24.147C16 26.5511 14.0511 28.5 11.647 28.5V28.5C9.24288 28.5 7.29397 26.5511 7.29397 24.147V24.147C7.29397 21.7429 9.24288 19.794 11.647 19.794H16V24.147Z" stroke="#1C1B1F" stroke-width="2" stroke-linejoin="round"/>
</svg>
