<svg width="33" height="33" viewBox="0 0 33 33" fill="none" xmlns="http://www.w3.org/2000/svg">
<path fill-rule="evenodd" clip-rule="evenodd" d="M13.9437 4.7135C14.6217 4.03554 15.5412 3.65466 16.5 3.65466C17.4588 3.65466 18.3783 4.03554 19.0563 4.7135C19.7342 5.39146 20.1151 6.31098 20.1151 7.26976V18.2306C20.1151 18.7829 20.5628 19.2306 21.1151 19.2306H22.8458L22.8507 19.2306C23.878 19.2255 24.8618 18.8152 25.5883 18.0887C26.3147 17.3623 26.7251 16.3785 26.7302 15.3512C26.7327 14.8508 26.9325 14.3717 27.2863 14.0179C27.639 13.6653 28.1161 13.4655 28.6146 13.4618C29.1132 13.4655 29.5903 13.6653 29.9429 14.0179C30.2962 14.3712 30.496 14.8494 30.4991 15.349C30.4983 17.3778 29.6921 19.3233 28.2575 20.7579C26.8222 22.1932 24.8755 22.9995 22.8458 22.9995H21.1151C20.5628 22.9995 20.1151 23.4472 20.1151 23.9995V29.3453H12.8849V18.2306C12.8849 17.6783 12.4372 17.2306 11.8849 17.2306H10.1542C8.12444 17.2306 6.17779 16.4243 4.74252 14.989C3.30787 13.5544 2.50162 11.6088 2.50092 9.57998C2.504 9.08047 2.70379 8.60226 3.05704 8.249C3.40967 7.89638 3.88681 7.69667 4.38535 7.69289C4.8839 7.69667 5.36104 7.89638 5.71366 8.249C6.06746 8.6028 6.26732 9.08194 6.2698 9.58228C6.2749 10.6096 6.68527 11.5934 7.41171 12.3198C8.13814 13.0463 9.12194 13.4566 10.1493 13.4617V13.4618H10.1542H11.8849C12.4372 13.4618 12.8849 13.014 12.8849 12.4618V7.26976C12.8849 6.31098 13.2658 5.39146 13.9437 4.7135ZM10.8849 29.3453V19.2306H10.1542C7.59401 19.2306 5.13865 18.2136 3.32831 16.4032C1.51796 14.5929 0.500916 12.1375 0.500916 9.57731V9.57235H0.500928C0.506026 8.54503 0.916391 7.56123 1.64283 6.83479C2.36927 6.10835 3.35307 5.69799 4.38039 5.69289L4.39032 5.69284L4.39032 5.69289C5.41764 5.69799 6.40144 6.10835 7.12788 6.83479C7.85432 7.56123 8.26468 8.54503 8.26978 9.57235C8.27226 10.0727 8.47212 10.5518 8.82592 10.9056C9.17919 11.2589 9.65743 11.4587 10.157 11.4618H10.8849V7.26976C10.8849 5.78055 11.4765 4.35232 12.5295 3.29929C13.5826 2.24625 15.0108 1.65466 16.5 1.65466C17.9892 1.65466 19.4174 2.24625 20.4705 3.29929C21.5235 4.35232 22.1151 5.78055 22.1151 7.26976V17.2306H22.843C23.3426 17.2276 23.8208 17.0278 24.1741 16.6745C24.5279 16.3207 24.7277 15.8416 24.7302 15.3412C24.7353 14.3139 25.1457 13.3301 25.8721 12.6037C26.5985 11.8772 27.5823 11.4669 28.6097 11.4618L28.6196 11.4617V11.4618C29.6469 11.4669 30.6307 11.8772 31.3572 12.6037C32.0836 13.3301 32.494 14.3139 32.4991 15.3412L32.4991 15.3462C32.4991 17.9064 31.482 20.3618 29.6717 22.1721C27.8613 23.9825 25.406 24.9995 22.8458 24.9995H22.1151V29.3453H29.1915C29.7438 29.3453 30.1915 29.793 30.1915 30.3453C30.1915 30.8976 29.7438 31.3453 29.1915 31.3453H3.80848C3.25619 31.3453 2.80848 30.8976 2.80848 30.3453C2.80848 29.793 3.25619 29.3453 3.80848 29.3453H10.8849Z" fill="#111827"/>
</svg>
