<svg width="32" height="33" viewBox="0 0 32 33" fill="none" xmlns="http://www.w3.org/2000/svg">
<path d="M5.84613 27.5769H26.1538" stroke="#1C1B1F" stroke-width="2" stroke-linecap="round" stroke-linejoin="round"/>
<path d="M12.3077 27.5769V17.8846H10.9231C9.08696 17.8846 7.32605 17.1552 6.02772 15.8569C4.72939 14.5586 4 12.7977 4 10.9616V10.9616C4.00303 10.3505 4.24714 9.76524 4.67926 9.33312C5.11138 8.901 5.69659 8.6569 6.30769 8.65386C6.9188 8.6569 7.50401 8.901 7.93613 9.33312C8.36825 9.76524 8.61235 10.3505 8.61538 10.9616C8.61842 11.5727 8.86252 12.1579 9.29464 12.59C9.72676 13.0221 10.312 13.2662 10.9231 13.2692H12.3077V9.1154C12.3077 8.13614 12.6967 7.19699 13.3891 6.50455C14.0816 5.81211 15.0207 5.4231 16 5.4231V5.4231C16.9793 5.4231 17.9184 5.81211 18.6109 6.50455C19.3033 7.19699 19.6923 8.13614 19.6923 9.1154V17.8846H21.0769C21.688 17.8816 22.2732 17.6375 22.7054 17.2054C23.1375 16.7733 23.3816 16.188 23.3846 15.5769V15.5769C23.3876 14.9658 23.6318 14.3806 24.0639 13.9485C24.496 13.5164 25.0812 13.2723 25.6923 13.2692C26.3034 13.2723 26.8886 13.5164 27.3207 13.9485C27.7529 14.3806 27.997 14.9658 28 15.5769V15.5769C28 17.4131 27.2706 19.174 25.9723 20.4723C24.6739 21.7706 22.913 22.5 21.0769 22.5H19.6923V27.5769" stroke="#1C1B1F" stroke-width="2" stroke-linecap="round" stroke-linejoin="round"/>
</svg>
