<svg width="33" height="33" viewBox="0 0 33 33" fill="none" xmlns="http://www.w3.org/2000/svg">
<path fill-rule="evenodd" clip-rule="evenodd" d="M16.4996 1.5L17.154 0.743831C16.7836 0.42334 16.2356 0.418239 15.8594 0.731779L16.4996 1.5ZM17.4998 10.2612C18.9346 9.63982 19.8573 8.77602 20.2527 7.68111C20.6967 6.45139 20.3696 5.21337 19.9006 4.23932C19.4251 3.25166 18.7299 2.37719 18.1794 1.76742C17.8999 1.45789 17.6483 1.20616 17.465 1.03051C17.3732 0.942517 17.2981 0.873158 17.2447 0.824705C17.218 0.800467 17.1967 0.781423 17.1813 0.767859L17.1629 0.751643L17.1572 0.746674L17.1553 0.744985L17.1545 0.744341C17.1542 0.744075 17.154 0.743831 16.4996 1.5C15.8594 0.731779 15.8591 0.732017 15.8588 0.732276L15.858 0.732908L15.856 0.734572L15.8502 0.739491L15.8312 0.755606C15.8154 0.769102 15.7933 0.788076 15.7656 0.812243C15.7103 0.860553 15.6325 0.929765 15.5373 1.01761C15.3474 1.19295 15.0864 1.44436 14.7965 1.75358C14.2257 2.36238 13.5035 3.23686 13.0089 4.22593C12.5215 5.20088 12.1766 6.45017 12.6425 7.69258C13.0558 8.79461 14.0157 9.65458 15.4998 10.2712V13.0379C15.4998 13.5902 15.9475 14.0379 16.4998 14.0379C17.0521 14.0379 17.4998 13.5902 17.4998 13.0379V10.2612ZM16.2555 3.12146C16.3353 3.03635 16.4126 2.95632 16.486 2.88197C16.5528 2.95237 16.6227 3.02775 16.6948 3.10762C17.186 3.65171 17.7408 4.36381 18.0986 5.10696C18.463 5.86371 18.5525 6.50073 18.3716 7.00182C18.2134 7.43995 17.7586 8.01576 16.4928 8.5139C15.1549 8.0093 14.6781 7.42491 14.5152 6.99034C14.332 6.50194 14.4199 5.8762 14.7978 5.12035C15.1687 4.37862 15.7445 3.66652 16.2555 3.12146Z" fill="#111827"/>
<path d="M21.4041 18.52C21.4041 19.8206 20.8874 21.068 19.9677 21.9876C19.0481 22.9073 17.8007 23.424 16.5001 23.424C15.1995 23.424 13.9522 22.9073 13.0325 21.9876C12.1129 21.068 11.5962 19.8206 11.5962 18.52" stroke="#111827" stroke-width="2" stroke-linecap="round" stroke-linejoin="round"/>
<path d="M11.596 18.5197C11.596 19.8037 11.0923 21.0366 10.1933 21.9533C9.29422 22.8701 8.07146 23.3977 6.78765 23.4227C4.03841 23.4753 1.78809 21.1726 1.78809 18.4228V16.5004C1.78809 15.5823 2.15279 14.7019 2.80197 14.0527C3.45114 13.4035 4.33162 13.0388 5.24969 13.0388H27.7501C28.6682 13.0388 29.5487 13.4035 30.1979 14.0527C30.847 14.7019 31.2117 15.5823 31.2117 16.5004V18.4228C31.2117 21.1726 28.9614 23.4753 26.2122 23.4227C24.9284 23.3977 23.7056 22.8701 22.8065 21.9533C21.9075 21.0366 21.4039 19.8037 21.4039 18.5197" stroke="#111827" stroke-width="2" stroke-linecap="round" stroke-linejoin="round"/>
<path d="M29.1925 22.4531V30.3471C29.1925 30.6531 29.0709 30.9466 28.8545 31.163C28.6381 31.3794 28.3446 31.501 28.0386 31.501H4.96124C4.65522 31.501 4.36173 31.3794 4.14533 31.163C3.92894 30.9466 3.80737 30.6531 3.80737 30.3471V22.4532" stroke="#111827" stroke-width="2" stroke-linecap="round" stroke-linejoin="round"/>
</svg>
