<svg width="32" height="32" viewBox="0 0 32 32" fill="none" xmlns="http://www.w3.org/2000/svg">
<path d="M16 13.2308V10.4615" stroke="#1C1B1F" stroke-width="2" stroke-linecap="round" stroke-linejoin="round"/>
<path d="M15.9999 10.4615C21.3332 8.61538 15.9999 4 15.9999 4C15.9999 4 10.4614 8.61538 15.9999 10.4615Z" stroke="#1C1B1F" stroke-width="2" stroke-linecap="round" stroke-linejoin="round"/>
<path d="M19.9231 17.6154C19.9231 18.6558 19.5097 19.6537 18.774 20.3894C18.0383 21.1251 17.0404 21.5384 16 21.5384C14.9595 21.5384 13.9617 21.1251 13.2259 20.3894C12.4902 19.6537 12.0769 18.6558 12.0769 17.6154" stroke="#1C1B1F" stroke-width="2" stroke-linecap="round" stroke-linejoin="round"/>
<path d="M12.0769 17.6153C12.0769 18.6425 11.674 19.6288 10.9547 20.3622C10.2355 21.0956 9.25731 21.5176 8.23029 21.5377C6.03093 21.5797 4.23071 19.7376 4.23071 17.5378V15.9999C4.23071 15.2655 4.52247 14.5611 5.0418 14.0418C5.56113 13.5225 6.2655 13.2307 6.99994 13.2307H24.9999C25.7344 13.2307 26.4387 13.5225 26.9581 14.0418C27.4774 14.5611 27.7692 15.2655 27.7692 15.9999V17.5378C27.7692 19.7376 25.9689 21.5797 23.7696 21.5377C22.7426 21.5176 21.7644 21.0956 21.0451 20.3622C20.3259 19.6288 19.923 18.6425 19.923 17.6153" stroke="#1C1B1F" stroke-width="2" stroke-linecap="round" stroke-linejoin="round"/>
<path d="M26.1539 20.762V27.077C26.1539 27.3218 26.0566 27.5566 25.8835 27.7297C25.7104 27.9028 25.4756 28.0001 25.2308 28.0001H6.76927C6.52445 28.0001 6.28966 27.9028 6.11655 27.7297C5.94344 27.5566 5.84619 27.3218 5.84619 27.077V20.762" stroke="#1C1B1F" stroke-width="2" stroke-linecap="round" stroke-linejoin="round"/>
</svg>
