<svg width="32" height="32" viewBox="0 0 32 32" fill="none" xmlns="http://www.w3.org/2000/svg">
<path d="M11 20C11.8284 20 12.5 19.3284 12.5 18.5C12.5 17.6716 11.8284 17 11 17C10.1716 17 9.5 17.6716 9.5 18.5C9.5 19.3284 10.1716 20 11 20Z" fill="#1C1B1F"/>
<path d="M16 20C16.8284 20 17.5 19.3284 17.5 18.5C17.5 17.6716 16.8284 17 16 17C15.1716 17 14.5 17.6716 14.5 18.5C14.5 19.3284 15.1716 20 16 20Z" fill="#1C1B1F"/>
<path d="M21 20C21.8284 20 22.5 19.3284 22.5 18.5C22.5 17.6716 21.8284 17 21 17C20.1716 17 19.5 17.6716 19.5 18.5C19.5 19.3284 20.1716 20 21 20Z" fill="#1C1B1F"/>
<path d="M11 25C11.8284 25 12.5 24.3284 12.5 23.5C12.5 22.6716 11.8284 22 11 22C10.1716 22 9.5 22.6716 9.5 23.5C9.5 24.3284 10.1716 25 11 25Z" fill="#1C1B1F"/>
<path d="M16 25C16.8284 25 17.5 24.3284 17.5 23.5C17.5 22.6716 16.8284 22 16 22C15.1716 22 14.5 22.6716 14.5 23.5C14.5 24.3284 15.1716 25 16 25Z" fill="#1C1B1F"/>
<path d="M21 25C21.8284 25 22.5 24.3284 22.5 23.5C22.5 22.6716 21.8284 22 21 22C20.1716 22 19.5 22.6716 19.5 23.5C19.5 24.3284 20.1716 25 21 25Z" fill="#1C1B1F"/>
<rect x="6" y="4" width="20" height="24" stroke="#1C1B1F" stroke-width="2" stroke-linejoin="round"/>
<rect x="10" y="8" width="12" height="6" stroke="#1C1B1F" stroke-width="2" stroke-linejoin="round"/>
</svg>
