<svg width="33" height="33" viewBox="0 0 33 33" fill="none" xmlns="http://www.w3.org/2000/svg">
<path fill-rule="evenodd" clip-rule="evenodd" d="M9.00047 0.500854C9.55275 0.500854 10.0005 0.94857 10.0005 1.50085V3.0007H22.9995V1.50085C22.9995 0.94857 23.4472 0.500854 23.9995 0.500854C24.5518 0.500854 24.9995 0.94857 24.9995 1.50085V3.0007H30.2492C30.8015 3.0007 31.2492 3.44841 31.2492 4.0007V11.5002V31.499C31.2492 32.0513 30.8015 32.499 30.2492 32.499H2.75085C2.19857 32.499 1.75085 32.0513 1.75085 31.499V11.5002V4.0007C1.75085 3.44841 2.19857 3.0007 2.75085 3.0007H8.00047V1.50085C8.00047 0.94857 8.44818 0.500854 9.00047 0.500854ZM8.00047 5.0007H3.75085V10.5002H29.2492V5.0007H24.9995V6.50055C24.9995 7.05283 24.5518 7.50055 23.9995 7.50055C23.4472 7.50055 22.9995 7.05283 22.9995 6.50055V5.0007H10.0005V6.50055C10.0005 7.05283 9.55275 7.50055 9.00047 7.50055C8.44818 7.50055 8.00047 7.05283 8.00047 6.50055V5.0007ZM29.2492 12.5002H3.75085V30.499H29.2492V12.5002ZM22.8515 17.0638C23.2304 17.4657 23.2117 18.0986 22.8099 18.4774L15.5186 25.352C15.1327 25.7159 14.5299 25.7151 14.1449 25.3504L10.1868 21.6006C9.7859 21.2208 9.7688 20.5878 10.1486 20.1869C10.5285 19.786 11.1614 19.7689 11.5623 20.1487L14.8343 23.2485L21.4379 17.0222C21.8397 16.6434 22.4726 16.662 22.8515 17.0638Z" fill="#111827"/>
</svg>
