<svg width="33" height="33" viewBox="0 0 33 33" fill="none" xmlns="http://www.w3.org/2000/svg">
<path fill-rule="evenodd" clip-rule="evenodd" d="M10.0005 1.50085C10.0005 0.94857 9.55275 0.500854 9.00047 0.500854C8.44818 0.500854 8.00047 0.94857 8.00047 1.50085V3.0007H2.75085C2.19857 3.0007 1.75085 3.44841 1.75085 4.0007V11.5002V31.499C1.75085 32.0513 2.19857 32.499 2.75085 32.499H30.2492C30.8015 32.499 31.2492 32.0513 31.2492 31.499V11.5002V4.0007C31.2492 3.44841 30.8015 3.0007 30.2492 3.0007H24.9995V1.50085C24.9995 0.94857 24.5518 0.500854 23.9995 0.500854C23.4472 0.500854 22.9995 0.94857 22.9995 1.50085V3.0007H10.0005V1.50085ZM8.00047 5.0007V6.50055C8.00047 7.05283 8.44818 7.50055 9.00047 7.50055C9.55275 7.50055 10.0005 7.05283 10.0005 6.50055V5.0007H22.9995V6.50055C22.9995 7.05283 23.4472 7.50055 23.9995 7.50055C24.5518 7.50055 24.9995 7.05283 24.9995 6.50055V5.0007H29.2492V10.5002H3.75085V5.0007H8.00047ZM3.75085 12.5002V30.499H29.2492V12.5002H3.75085ZM20.9569 18.4569C21.3474 18.0664 21.3474 17.4333 20.9569 17.0427C20.5664 16.6522 19.9332 16.6522 19.5427 17.0427L16.5 20.0854L13.4574 17.0427C13.0668 16.6522 12.4337 16.6522 12.0432 17.0427C11.6526 17.4333 11.6526 18.0664 12.0432 18.4569L15.0858 21.4996L12.0432 24.5423C11.6526 24.9328 11.6526 25.566 12.0432 25.9565C12.4337 26.347 13.0668 26.347 13.4574 25.9565L16.5 22.9138L19.5427 25.9565C19.9332 26.347 20.5664 26.347 20.9569 25.9565C21.3474 25.566 21.3474 24.9328 20.9569 24.5423L17.9142 21.4996L20.9569 18.4569Z" fill="#111827"/>
</svg>
