<svg width="33" height="33" viewBox="0 0 33 33" fill="none" xmlns="http://www.w3.org/2000/svg">
<path fill-rule="evenodd" clip-rule="evenodd" d="M10.0005 1.50085C10.0005 0.94857 9.55275 0.500854 9.00047 0.500854C8.44818 0.500854 8.00047 0.94857 8.00047 1.50085V3.0007H2.75085C2.19857 3.0007 1.75085 3.44841 1.75085 4.0007V11.5002V31.499C1.75085 32.0513 2.19857 32.499 2.75085 32.499H30.2492C30.8015 32.499 31.2492 32.0513 31.2492 31.499V11.5002V4.0007C31.2492 3.44841 30.8015 3.0007 30.2492 3.0007H24.9996V1.50085C24.9996 0.94857 24.5519 0.500854 23.9996 0.500854C23.4473 0.500854 22.9996 0.94857 22.9996 1.50085V3.0007H10.0005V1.50085ZM8.00047 5.0007V6.50055C8.00047 7.05283 8.44818 7.50055 9.00047 7.50055C9.55275 7.50055 10.0005 7.05283 10.0005 6.50055V5.0007H22.9996V6.50055C22.9996 7.05283 23.4473 7.50055 23.9996 7.50055C24.5519 7.50055 24.9996 7.05283 24.9996 6.50055V5.0007H29.2492V10.5002H3.75085V5.0007H8.00047ZM3.75085 12.5002V30.499H29.2492V12.5002H3.75085ZM9.87535 17.7494C9.87535 17.1971 10.3231 16.7494 10.8753 16.7494H14.6197C15.5063 16.7494 16.0286 17.7444 15.5251 18.4741L13.8884 20.846C14.1942 20.9984 14.4789 21.1899 14.7294 21.412C15.3279 21.9425 15.8102 22.724 15.8102 23.6614C15.8102 25.4356 14.372 26.8739 12.5978 26.8739C11.5868 26.8739 10.6845 26.4057 10.0972 25.6782C9.75033 25.2484 9.81749 24.6189 10.2472 24.272C10.677 23.9251 11.3066 23.9922 11.6535 24.422C11.8773 24.6993 12.2168 24.8739 12.5978 24.8739C13.2674 24.8739 13.8102 24.331 13.8102 23.6614C13.8102 23.4402 13.6941 23.1669 13.4028 22.9086C13.1108 22.6498 12.7217 22.4825 12.3662 22.4535C11.5864 22.3898 11.0221 21.4785 11.5425 20.7243L12.9053 18.7494H10.8753C10.3231 18.7494 9.87535 18.3016 9.87535 17.7494ZM22.4997 18.6607C22.4997 17.4767 21.1924 16.7595 20.1938 17.3956L18.8851 18.2292C18.4193 18.526 18.2823 19.1441 18.579 19.6099C18.8757 20.0757 19.4939 20.2128 19.9597 19.9161L20.4997 19.572V25.8739C20.4997 26.4261 20.9474 26.8739 21.4997 26.8739C22.052 26.8739 22.4997 26.4261 22.4997 25.8739V18.6607Z" fill="#111827"/>
</svg>
