<svg width="33" height="33" viewBox="0 0 33 33" fill="none" xmlns="http://www.w3.org/2000/svg">
<path fill-rule="evenodd" clip-rule="evenodd" d="M10.0005 1.50085C10.0005 0.94857 9.55275 0.500854 9.00047 0.500854C8.44818 0.500854 8.00047 0.94857 8.00047 1.50085V3.0007H2.75085C2.19857 3.0007 1.75085 3.44841 1.75085 4.0007V11.5002V31.499C1.75085 32.0513 2.19857 32.499 2.75085 32.499H30.2492C30.8015 32.499 31.2492 32.0513 31.2492 31.499V11.5002V4.0007C31.2492 3.44841 30.8015 3.0007 30.2492 3.0007H24.9995V1.50085C24.9995 0.94857 24.5518 0.500854 23.9995 0.500854C23.4472 0.500854 22.9995 0.94857 22.9995 1.50085V3.0007H10.0005V1.50085ZM8.00047 5.0007V6.50055C8.00047 7.05283 8.44818 7.50055 9.00047 7.50055C9.55275 7.50055 10.0005 7.05283 10.0005 6.50055V5.0007H22.9995V6.50055C22.9995 7.05283 23.4472 7.50055 23.9995 7.50055C24.5518 7.50055 24.9995 7.05283 24.9995 6.50055V5.0007H29.2492V10.5002H3.75085V5.0007H8.00047ZM3.75085 12.5002V30.499H29.2492V12.5002H3.75085ZM11.1253 21.4996C11.1253 20.9473 11.573 20.4996 12.1253 20.4996H15.5V17.1249C15.5 16.5726 15.9477 16.1249 16.5 16.1249C17.0523 16.1249 17.5 16.5726 17.5 17.1249V20.4996H20.8747C21.427 20.4996 21.8747 20.9473 21.8747 21.4996C21.8747 22.0519 21.427 22.4996 20.8747 22.4996H17.5V25.8743C17.5 26.4266 17.0523 26.8743 16.5 26.8743C15.9477 26.8743 15.5 26.4266 15.5 25.8743V22.4996H12.1253C11.573 22.4996 11.1253 22.0519 11.1253 21.4996Z" fill="#111827"/>
</svg>
