<svg width="33" height="33" viewBox="0 0 33 33" fill="none" xmlns="http://www.w3.org/2000/svg">
<path fill-rule="evenodd" clip-rule="evenodd" d="M3.07951 0.760799C3.48817 0.389292 4.12061 0.419409 4.49212 0.828067L31.7632 30.8262C32.1347 31.2349 32.1046 31.8673 31.6959 32.2389C31.2873 32.6104 30.6548 32.5802 30.2833 32.1716L28.5028 30.213C28.3513 30.3055 28.1732 30.3587 27.9828 30.3587H1.50085C0.94857 30.3587 0.500854 29.911 0.500854 29.3587V6.86011C0.500854 6.30783 0.94857 5.86011 1.50085 5.86011H6.36379L3.01224 2.17341C2.64073 1.76475 2.67085 1.13231 3.07951 0.760799ZM8.11603 7.78758C8.00033 7.83436 7.87387 7.86011 7.74141 7.86011H2.50085V28.3587H26.8171L21.1872 22.1659C19.9892 23.3653 18.3309 24.1092 16.4999 24.1092C12.8412 24.1092 9.87527 21.1432 9.87527 17.4845C9.87527 15.4261 10.8148 13.5873 12.285 12.3735L8.11603 7.78758ZM13.6326 13.8558L19.8396 20.6836C18.9967 21.5634 17.8126 22.1092 16.4999 22.1092C13.9458 22.1092 11.8753 20.0386 11.8753 17.4845C11.8753 16.0144 12.5605 14.7041 13.6326 13.8558ZM32.499 24.9556C32.499 25.5079 32.0513 25.9556 31.499 25.9556C30.9467 25.9556 30.499 25.5079 30.499 24.9556V7.86011H24.0632C23.7315 7.86011 23.4214 7.69568 23.2354 7.42113L20.9935 4.11312H11.5254C10.9731 4.11312 10.5254 3.6654 10.5254 3.11312C10.5254 2.56084 10.9731 2.11312 11.5254 2.11312H21.5238C21.8554 2.11312 22.1655 2.27755 22.3516 2.5521L24.5935 5.86011H31.499C32.0513 5.86011 32.499 6.30783 32.499 6.86011V24.9556Z" fill="#111827"/>
</svg>
