<svg width="32" height="33" viewBox="0 0 32 33" fill="none" xmlns="http://www.w3.org/2000/svg">
<path d="M28 26.999H4V8.99902H9.99275L12.0201 6.00125H20.0193L22.051 8.99902H28V26.999Z" stroke="#1C1B1F" stroke-width="2" stroke-linecap="round" stroke-linejoin="round"/>
<path d="M18.3888 16.2491H21.2553V13.3826" stroke="#1C1B1F" stroke-width="2" stroke-linecap="round" stroke-linejoin="round"/>
<path d="M11.7963 14.2221C12.2843 13.7341 12.8636 13.347 13.5012 13.0829C14.1388 12.8188 14.8222 12.6829 15.5124 12.6829C16.2025 12.6829 16.8859 12.8188 17.5235 13.0829C18.1611 13.347 18.7404 13.7341 19.2284 14.2221L21.2554 16.2491" stroke="#1C1B1F" stroke-width="2" stroke-linecap="round" stroke-linejoin="round"/>
<path d="M13.6112 19.6274H10.7446V22.494" stroke="#1C1B1F" stroke-width="2" stroke-linecap="round" stroke-linejoin="round"/>
<path d="M20.2038 21.6544C19.7158 22.1424 19.1364 22.5295 18.4988 22.7936C17.8612 23.0577 17.1778 23.1937 16.4877 23.1937C15.7975 23.1937 15.1141 23.0577 14.4765 22.7936C13.8389 22.5295 13.2596 22.1424 12.7716 21.6544L10.7446 19.6274" stroke="#1C1B1F" stroke-width="2" stroke-linecap="round" stroke-linejoin="round"/>
</svg>
