<svg width="33" height="33" viewBox="0 0 33 33" fill="none" xmlns="http://www.w3.org/2000/svg">
<path fill-rule="evenodd" clip-rule="evenodd" d="M1.50085 30.6228C0.94857 30.6228 0.500854 30.1751 0.500854 29.6228V7.12419C0.500854 6.57191 0.94857 6.12419 1.50085 6.12419H8.46041L10.6971 2.81699C10.883 2.54197 11.1934 2.3772 11.5254 2.3772H21.5238C21.8554 2.3772 22.1655 2.54163 22.3516 2.81618L24.5935 6.12419H31.499C32.0513 6.12419 32.499 6.57191 32.499 7.12419V29.6228C32.499 30.1751 32.0513 30.6228 31.499 30.6228H1.50085ZM2.50085 8.12419V28.6228H30.499V8.12419H24.0632C23.7315 8.12419 23.4214 7.95976 23.2354 7.68521L20.9935 4.3772H12.0563L9.81968 7.6844C9.63369 7.95942 9.32333 8.12419 8.99133 8.12419H2.50085ZM11.8753 17.7483C11.8753 15.1942 13.9458 13.1237 16.4999 13.1237C19.0541 13.1237 21.1246 15.1942 21.1246 17.7483C21.1246 20.3024 19.0541 22.373 16.4999 22.373C13.9458 22.373 11.8753 20.3024 11.8753 17.7483ZM16.4999 11.1237C12.8412 11.1237 9.87527 14.0896 9.87527 17.7483C9.87527 21.407 12.8412 24.373 16.4999 24.373C20.1586 24.373 23.1246 21.407 23.1246 17.7483C23.1246 14.0896 20.1586 11.1237 16.4999 11.1237Z" fill="#111827"/>
</svg>
