<svg width="33" height="33" viewBox="0 0 33 33" fill="none" xmlns="http://www.w3.org/2000/svg">
<path fill-rule="evenodd" clip-rule="evenodd" d="M0.500854 29.6228C0.500854 30.1751 0.94857 30.6228 1.50085 30.6228H31.499C32.0513 30.6228 32.499 30.1751 32.499 29.6228V7.12419C32.499 6.57191 32.0513 6.12419 31.499 6.12419H24.5935L22.3516 2.81618C22.1655 2.54163 21.8554 2.3772 21.5238 2.3772H11.5254C11.1934 2.3772 10.883 2.54197 10.6971 2.81699L8.46041 6.12419H1.50085C0.94857 6.12419 0.500854 6.57191 0.500854 7.12419V29.6228ZM2.50085 28.6228V8.12419H8.99133C9.32333 8.12419 9.63369 7.95942 9.81968 7.6844L12.0563 4.3772H20.9935L23.2354 7.68521C23.4214 7.95976 23.7315 8.12419 24.0632 8.12419H30.499V28.6228H2.50085ZM23.0689 11.6031C23.6212 11.6031 24.0689 12.0508 24.0689 12.6031V16.1861C24.0689 16.3314 24.0379 16.4695 23.9821 16.5941C23.9337 16.7027 23.8649 16.8043 23.7759 16.8934C23.5757 17.0936 23.3117 17.1911 23.0494 17.1861H19.4859C18.9336 17.1861 18.4859 16.7384 18.4859 16.1861C18.4859 15.6338 18.9336 15.1861 19.4859 15.1861H20.6544L19.8281 14.3598C19.311 13.8427 18.6971 13.4325 18.0215 13.1527C17.3459 12.8728 16.6217 12.7288 15.8904 12.7288C15.1591 12.7288 14.435 12.8728 13.7594 13.1527C13.0837 13.4325 12.4698 13.8427 11.9527 14.3598C11.5622 14.7503 10.929 14.7503 10.5385 14.3598C10.148 13.9693 10.148 13.3361 10.5385 12.9456C11.2413 12.2428 12.0757 11.6853 12.994 11.3049C13.9123 10.9245 14.8965 10.7288 15.8904 10.7288C16.8844 10.7288 17.8686 10.9245 18.7869 11.3049C19.7052 11.6853 20.5395 12.2428 21.2424 12.9456L22.0689 13.7721V12.6031C22.0689 12.0508 22.5166 11.6031 23.0689 11.6031ZM9.92206 19.4086C9.66923 19.4109 9.4171 19.5086 9.22419 19.7015C9.12831 19.7973 9.05597 19.9079 9.00717 20.0258C8.95864 20.1428 8.93169 20.2711 8.9313 20.4056C8.9313 20.4066 8.9313 20.4076 8.9313 20.4086V20.4093V23.9915C8.9313 24.5438 9.37901 24.9915 9.9313 24.9915C10.4836 24.9915 10.9313 24.5438 10.9313 23.9915V22.8228L11.7577 23.6492C12.4606 24.3521 13.2949 24.9096 14.2132 25.2899C15.1315 25.6703 16.1157 25.8661 17.1097 25.8661C18.1036 25.8661 19.0878 25.6703 20.0061 25.2899C20.9244 24.9096 21.7588 24.3521 22.4616 23.6492C22.8521 23.2587 22.8521 22.6255 22.4616 22.235C22.0711 21.8445 21.4379 21.8445 21.0474 22.235C20.5303 22.7521 19.9164 23.1623 19.2407 23.4422C18.5651 23.722 17.841 23.8661 17.1097 23.8661C16.3784 23.8661 15.6542 23.722 14.9786 23.4422C14.3029 23.1623 13.6891 22.7521 13.1719 22.235L12.3455 21.4086H13.5143C14.0665 21.4086 14.5143 20.9609 14.5143 20.4086C14.5143 19.8563 14.0665 19.4086 13.5143 19.4086H9.93227C9.92887 19.4086 9.92547 19.4086 9.92206 19.4086Z" fill="#111827"/>
</svg>
