<svg width="33" height="33" viewBox="0 0 33 33" fill="none" xmlns="http://www.w3.org/2000/svg">
<path fill-rule="evenodd" clip-rule="evenodd" d="M3.05411 21.7965C2.52783 21.629 1.96544 21.9199 1.79798 22.4462C1.63053 22.9725 1.92142 23.5349 2.44771 23.7023L13.2019 27.1241L2.44771 30.5459C1.92142 30.7134 1.63053 31.2758 1.79798 31.8021C1.96544 32.3283 2.52783 32.6192 3.05411 32.4518L16.5 28.1735L29.9459 32.4518C30.4722 32.6192 31.0346 32.3283 31.2021 31.8021C31.3695 31.2758 31.0786 30.7134 30.5523 30.5459L19.7981 27.1241L30.5523 23.7023C31.0786 23.5349 31.3695 22.9725 31.2021 22.4462C31.0346 21.9199 30.4722 21.629 29.9459 21.7965L16.5 26.0747L3.05411 21.7965Z" fill="#111827"/>
<path fill-rule="evenodd" clip-rule="evenodd" d="M16.5 1.50098L17.0241 0.649318C16.7027 0.451529 16.2973 0.451529 15.9759 0.649318L16.5 1.50098ZM16.536 22.4996C18.943 22.4901 21.2493 21.5299 22.952 19.8272C24.6632 18.116 25.6245 15.7952 25.6245 13.3752C25.6245 9.54866 23.3755 6.33995 21.2826 4.16649C20.2218 3.0649 19.1643 2.19078 18.3727 1.59205C17.9761 1.29206 17.6442 1.0596 17.4091 0.900701C17.2915 0.821217 17.1979 0.760032 17.1325 0.717905C17.0997 0.696839 17.074 0.680528 17.0558 0.669068L17.0341 0.655523L17.0277 0.651499L17.0255 0.650178L17.0247 0.64969C17.0244 0.649495 17.0241 0.649318 16.5 1.50098C15.9759 0.649318 15.9756 0.649495 15.9753 0.64969L15.9745 0.650178L15.9724 0.651499L15.9659 0.655523L15.9443 0.669068C15.926 0.680528 15.9003 0.696839 15.8676 0.717905C15.8021 0.760032 15.7086 0.821217 15.591 0.900701C15.3559 1.0596 15.0239 1.29206 14.6273 1.59205C13.8358 2.19078 12.7783 3.0649 11.7175 4.16649C9.62451 6.33995 7.37555 9.54866 7.37555 13.3752C7.37555 15.7952 8.33687 18.116 10.048 19.8272C11.7507 21.5299 14.057 22.4901 16.464 22.4996C16.476 22.4997 16.488 22.4998 16.5 22.4998C16.512 22.4998 16.524 22.4997 16.536 22.4996ZM21.1356 18.7854C21.2739 18.6669 21.4081 18.5427 21.5378 18.413C22.8739 17.0769 23.6245 15.2647 23.6245 13.3752C23.6245 10.3272 21.8112 7.5988 19.8419 5.55378C18.8716 4.54613 17.898 3.74067 17.1662 3.18713C16.9098 2.99318 16.6841 2.83095 16.5 2.70257C16.3159 2.83095 16.0903 2.99318 15.8338 3.18713C15.102 3.74067 14.1284 4.54613 13.1581 5.55378C11.1888 7.5988 9.37555 10.3272 9.37555 13.3752C9.37555 15.2647 10.1262 17.0769 11.4623 18.413C11.592 18.5427 11.7262 18.6669 11.8645 18.7854C11.7891 18.4481 11.7503 18.101 11.7503 17.75C11.7503 15.5372 12.8529 13.7501 13.8659 12.5682C14.3791 11.9694 14.8904 11.501 15.2739 11.1814C15.4664 11.021 15.6285 10.8966 15.745 10.8106C15.8034 10.7675 15.8505 10.7339 15.8844 10.7102C15.9014 10.6983 15.9152 10.6888 15.9254 10.6818L15.9381 10.6732L15.9424 10.6703L15.944 10.6692L15.9447 10.6688C15.945 10.6685 15.9453 10.6683 16.5 11.5004C17.0547 10.6683 17.055 10.6685 17.0553 10.6688L17.056 10.6692L17.0577 10.6703L17.062 10.6732L17.0747 10.6818C17.0849 10.6888 17.0986 10.6983 17.1156 10.7102C17.1496 10.7339 17.1967 10.7675 17.255 10.8106C17.3716 10.8966 17.5337 11.021 17.7261 11.1814C18.1097 11.501 18.6209 11.9694 19.1342 12.5682C20.1471 13.7501 21.2498 15.5372 21.2498 17.75C21.2498 18.101 21.2109 18.4481 21.1356 18.7854ZM16.5 11.5004L15.9453 10.6683C16.2812 10.4444 16.7188 10.4444 17.0547 10.6683L16.5 11.5004ZM16.5 20.4997C16.5082 20.4997 16.5163 20.4997 16.5245 20.4996L16.5 20.4997ZM16.5245 20.4996C17.2449 20.4932 17.9345 20.2043 18.4444 19.6944C18.9601 19.1787 19.2498 18.4793 19.2498 17.75C19.2498 16.213 18.4775 14.8754 17.6156 13.8698C17.2151 13.4025 16.8127 13.0279 16.5 12.7634C16.1874 13.0279 15.785 13.4025 15.3844 13.8698C14.5225 14.8754 13.7503 16.213 13.7503 17.75C13.7503 18.4793 14.04 19.1787 14.5557 19.6944C15.0656 20.2043 15.7551 20.4932 16.4756 20.4996" fill="#111827"/>
</svg>
