<svg width="32" height="32" viewBox="0 0 32 32" fill="none" xmlns="http://www.w3.org/2000/svg">
<path d="M4 11H28" stroke="#1C1B1F" stroke-width="2" stroke-linecap="round" stroke-linejoin="round"/>
<path d="M4 15V14C3.44772 14 3 14.4477 3 15H4ZM11.9568 15L12.9567 14.9812C12.9464 14.4363 12.5018 14 11.9568 14V15ZM4 25H3C3 25.5523 3.44772 26 4 26V25ZM27.96 25V26C28.5122 26 28.96 25.5523 28.96 25H27.96ZM27.96 15H28.96C28.96 14.4477 28.5122 14 27.96 14V15ZM19.9493 15V14C19.4044 14 18.9597 14.4363 18.9495 14.9812L19.9493 15ZM4 16H11.9568V14H4V16ZM5 25V15H3V25H5ZM27.96 24H4V26H27.96V24ZM26.96 15V25H28.96V15H26.96ZM19.9493 16H27.96V14H19.9493V16ZM18.9495 14.9812C18.9448 15.2307 18.7787 15.5961 18.2276 15.9453C17.6882 16.2872 16.8873 16.5299 15.9531 16.5299V18.5299C17.2097 18.5299 18.3938 18.2078 19.2981 17.6347C20.1909 17.069 20.9275 16.1694 20.9491 15.0188L18.9495 14.9812ZM15.9531 16.5299C15.0189 16.5299 14.218 16.2872 13.6785 15.9453C13.1275 15.5961 12.9613 15.2307 12.9567 14.9812L10.957 15.0188C10.9786 16.1694 11.7152 17.069 12.608 17.6347C13.5124 18.2078 14.6965 18.5299 15.9531 18.5299V16.5299Z" fill="#1C1B1F"/>
<rect x="4" y="7" width="24" height="18" stroke="#1C1B1F" stroke-width="2" stroke-linejoin="round"/>
</svg>
