<svg width="32" height="33" viewBox="0 0 32 33" fill="none" xmlns="http://www.w3.org/2000/svg">
<path d="M4 11.5H28" stroke="#1C1B1F" stroke-width="2" stroke-linecap="round" stroke-linejoin="round"/>
<path d="M4 15.5V14.5C3.44772 14.5 3 14.9477 3 15.5H4ZM11.9568 15.5L12.9567 15.4812C12.9464 14.9363 12.5018 14.5 11.9568 14.5V15.5ZM4 25.5H3C3 26.0523 3.44772 26.5 4 26.5V25.5ZM27.96 25.5V26.5C28.5122 26.5 28.96 26.0523 28.96 25.5H27.96ZM27.96 15.5H28.96C28.96 14.9477 28.5122 14.5 27.96 14.5V15.5ZM19.9493 15.5V14.5C19.4044 14.5 18.9597 14.9363 18.9495 15.4812L19.9493 15.5ZM4 16.5H11.9568V14.5H4V16.5ZM5 25.5V15.5H3V25.5H5ZM27.96 24.5H4V26.5H27.96V24.5ZM26.96 15.5V25.5H28.96V15.5H26.96ZM19.9493 16.5H27.96V14.5H19.9493V16.5ZM18.9495 15.4812C18.9448 15.7307 18.7787 16.0961 18.2276 16.4453C17.6882 16.7872 16.8873 17.0299 15.9531 17.0299V19.0299C17.2097 19.0299 18.3938 18.7078 19.2981 18.1347C20.1909 17.569 20.9275 16.6694 20.9491 15.5188L18.9495 15.4812ZM15.9531 17.0299C15.0189 17.0299 14.218 16.7872 13.6785 16.4453C13.1275 16.0961 12.9613 15.7307 12.9567 15.4812L10.957 15.5188C10.9786 16.6694 11.7152 17.569 12.608 18.1347C13.5124 18.7078 14.6965 19.0299 15.9531 19.0299V17.0299Z" fill="#1C1B1F"/>
<rect x="4" y="7.5" width="24" height="18" stroke="#1C1B1F" stroke-width="2" stroke-linejoin="round"/>
</svg>
