<svg width="33" height="32" viewBox="0 0 33 32" fill="none" xmlns="http://www.w3.org/2000/svg">
<path fill-rule="evenodd" clip-rule="evenodd" d="M6.5006 2.50079C5.94832 2.50079 5.5006 2.94851 5.5006 3.50079C5.5006 4.05308 5.94832 4.50079 6.5006 4.50079H30.4991V23.4996C30.4991 24.0518 30.9468 24.4996 31.4991 24.4996C32.0513 24.4996 32.4991 24.0518 32.4991 23.4996V3.50079C32.4991 2.94851 32.0513 2.50079 31.4991 2.50079H6.5006ZM1.50092 7.50048C0.948631 7.50048 0.500916 7.9482 0.500916 8.50048V28.4993C0.500916 29.0515 0.948631 29.4993 1.50092 29.4993H26.4994C27.0517 29.4993 27.4994 29.0515 27.4994 28.4993V8.50048C27.4994 7.9482 27.0517 7.50048 26.4994 7.50048H1.50092ZM2.50092 27.4993V9.50048H25.4994V27.4993H2.50092Z" fill="#111827"/>
</svg>
