<svg width="33" height="32" viewBox="0 0 33 32" fill="none" xmlns="http://www.w3.org/2000/svg">
<path fill-rule="evenodd" clip-rule="evenodd" d="M5.58733 2.47027C5.74784 2.10914 6.10596 1.8764 6.50115 1.8764H26.4989C26.8941 1.8764 27.2522 2.10914 27.4127 2.47027L32.3808 13.6484C32.4558 13.7888 32.4983 13.949 32.4983 14.1193L32.4984 29.1235C32.4984 29.3887 32.393 29.6431 32.2055 29.8306C32.0179 30.0182 31.7636 30.1235 31.4984 30.1235H24.9735C24.4213 30.1235 23.9735 29.6758 23.9735 29.1235V25.1241H8.95191V29.1235C8.95191 29.6758 8.5042 30.1235 7.95191 30.1235H1.50174C0.949454 30.1235 0.501739 29.6758 0.501739 29.1235V24.1241L0.501709 14.1193C0.501708 13.949 0.544238 13.7888 0.619251 13.6485L5.58733 2.47027ZM2.50171 14.3373L2.50174 24.1241V28.1235H6.95191V24.1241C6.95191 23.5718 7.39963 23.1241 7.95191 23.1241H24.9735C25.5258 23.1241 25.9735 23.5718 25.9735 24.1241V28.1235H30.4984L30.4983 14.3373L25.849 3.8764H7.15102L2.50171 14.3373ZM6.36774 14.1252C6.36774 13.5729 6.81545 13.1252 7.36774 13.1252H25.6325C26.1848 13.1252 26.6325 13.5729 26.6325 14.1252C26.6325 14.6775 26.1848 15.1252 25.6325 15.1252H7.36774C6.81545 15.1252 6.36774 14.6775 6.36774 14.1252Z" fill="#111827"/>
</svg>
