<svg width="33" height="33" viewBox="0 0 33 33" fill="none" xmlns="http://www.w3.org/2000/svg">
<path fill-rule="evenodd" clip-rule="evenodd" d="M22.8936 3.32835C19.069 0.596441 13.9311 0.596442 10.1064 3.32835L7.70289 5.04513L2.01553 1.63272C1.7066 1.44736 1.32185 1.44251 1.00834 1.62001C0.69483 1.79752 0.501038 2.12994 0.501038 2.49021V20.7206C0.501038 26.7957 5.42591 31.7206 11.501 31.7206H16.4854C16.4902 31.7206 16.4951 31.7207 16.5 31.7207C16.5049 31.7207 16.5098 31.7206 16.5146 31.7206H21.499C27.5741 31.7206 32.499 26.7957 32.499 20.7206V2.49021C32.499 2.12994 32.3052 1.79752 31.9917 1.62001C31.6782 1.44251 31.2934 1.44736 30.9845 1.63272L25.2971 5.04513L22.8936 3.32835ZM17.5 29.7206H21.499C26.4695 29.7206 30.499 25.6911 30.499 20.7206V4.2564L25.7639 7.09745C25.4225 7.30228 24.9921 7.28509 24.6682 7.05369L22.4997 5.50476V9.47203C22.4997 10.0243 22.052 10.472 21.4997 10.472C20.9474 10.472 20.4997 10.0243 20.4997 9.47203V4.21651C19.5478 3.74396 18.5317 3.45013 17.5 3.33502V9.47191C17.5 10.0242 17.0523 10.4719 16.5 10.4719C15.9477 10.4719 15.5 10.0242 15.5 9.47191V3.33502C14.4683 3.45013 13.4522 3.74397 12.5003 4.21653V9.47203C12.5003 10.0243 12.0526 10.472 11.5003 10.472C10.948 10.472 10.5003 10.0243 10.5003 9.47203V5.50479L8.33185 7.05369C8.00788 7.28509 7.57751 7.30228 7.23611 7.09745L2.50104 4.2564V20.7206C2.50104 25.6911 6.53048 29.7206 11.501 29.7206H15.5V26.1352L13.2931 23.9282C12.9026 23.5377 12.9026 22.9045 13.2931 22.514C13.6836 22.1235 14.3168 22.1235 14.7073 22.514L16.5 24.3067L18.2927 22.514C18.6833 22.1235 19.3164 22.1235 19.707 22.514C20.0975 22.9045 20.0975 23.5377 19.707 23.9282L17.5 26.1352V29.7206ZM11.5004 17.5965C11.5004 18.6319 10.6609 19.4714 9.62549 19.4714C8.59002 19.4714 7.75061 18.6319 7.75061 17.5965C7.75061 16.561 8.59002 15.7216 9.62549 15.7216C10.6609 15.7216 11.5004 16.561 11.5004 17.5965ZM23.3745 19.4714C24.41 19.4714 25.2494 18.6319 25.2494 17.5965C25.2494 16.561 24.41 15.7216 23.3745 15.7216C22.3391 15.7216 21.4997 16.561 21.4997 17.5965C21.4997 18.6319 22.3391 19.4714 23.3745 19.4714Z" fill="#111827"/>
</svg>
