<svg width="32" height="33" viewBox="0 0 32 33" fill="none" xmlns="http://www.w3.org/2000/svg">
<path d="M16 24.5953V28.5" stroke="#1C1B1F" stroke-width="2" stroke-linecap="round" stroke-linejoin="round"/>
<path d="M10.6311 19.7144C11.4398 19.7144 12.0953 19.0588 12.0953 18.2501C12.0953 17.4415 11.4398 16.7859 10.6311 16.7859C9.82238 16.7859 9.16681 17.4415 9.16681 18.2501C9.16681 19.0588 9.82238 19.7144 10.6311 19.7144Z" fill="#1C1B1F"/>
<path d="M21.369 19.7144C22.1776 19.7144 22.8332 19.0588 22.8332 18.2501C22.8332 17.4415 22.1776 16.7859 21.369 16.7859C20.5603 16.7859 19.9047 17.4415 19.9047 18.2501C19.9047 19.0588 20.5603 19.7144 21.369 19.7144Z" fill="#1C1B1F"/>
<path d="M16 7.02417V11.905" stroke="#1C1B1F" stroke-width="2" stroke-linecap="round" stroke-linejoin="round"/>
<path d="M17.9524 22.6429L16 24.5953L14.0477 22.6429" stroke="#1C1B1F" stroke-width="2" stroke-linecap="round" stroke-linejoin="round"/>
<path d="M12.0953 7.63428V11.905" stroke="#1C1B1F" stroke-width="2" stroke-linecap="round" stroke-linejoin="round"/>
<path d="M19.9047 7.63428V11.905" stroke="#1C1B1F" stroke-width="2" stroke-linecap="round" stroke-linejoin="round"/>
<path d="M4.28595 6.45234L9.16681 9.38086L10.1876 8.6517C13.6646 6.16815 18.3354 6.16815 21.8124 8.6517L22.8332 9.38086L27.7141 6.45234V18.5C27.7141 24.0229 23.2369 28.5 17.7141 28.5H14.2859C8.76309 28.5 4.28595 24.0228 4.28595 18.5V6.45234Z" stroke="#1C1B1F" stroke-width="2" stroke-linejoin="round"/>
</svg>
