<svg width="33" height="32" viewBox="0 0 33 32" fill="none" xmlns="http://www.w3.org/2000/svg">
<path fill-rule="evenodd" clip-rule="evenodd" d="M32.4991 1.00088C32.4991 0.596421 32.2554 0.231785 31.8817 0.0770042C31.5081 -0.0777768 31.078 0.00777893 30.792 0.293777L0.793838 30.2919C0.50784 30.5779 0.422284 31.008 0.577065 31.3817C0.731846 31.7554 1.09648 31.999 1.50094 31.999H26.4884C26.492 31.999 26.4957 31.9991 26.4994 31.9991C26.503 31.9991 26.5067 31.999 26.5104 31.999H31.4991C32.0513 31.999 32.4991 31.5513 32.4991 30.999V1.00088ZM27.4994 29.999H30.4991V3.4151L27.4994 6.41478V29.999ZM25.4994 8.41478L3.91516 29.999H25.4994V8.41478Z" fill="#111827"/>
</svg>
