<svg width="33" height="32" viewBox="0 0 33 32" fill="none" xmlns="http://www.w3.org/2000/svg">
<path fill-rule="evenodd" clip-rule="evenodd" d="M28.5486 1.74363C28.9223 1.89841 29.166 2.26305 29.166 2.66751V9.33376C29.166 9.88605 28.7182 10.3338 28.166 10.3338C27.6137 10.3338 27.166 9.88605 27.166 9.33376V5.08172L3.91516 28.3325H27.166V22.6663C27.166 22.114 27.6137 21.6663 28.166 21.6663C28.7182 21.6663 29.166 22.114 29.166 22.6663V29.3325C29.166 29.8848 28.7182 30.3325 28.166 30.3325H1.50094C1.09648 30.3325 0.731846 30.0889 0.577065 29.7152C0.422284 29.3415 0.50784 28.9114 0.793838 28.6254L27.4588 1.9604C27.7448 1.6744 28.175 1.58885 28.5486 1.74363ZM32.2062 11.9598C32.5967 12.3504 32.5967 12.9835 32.2062 13.3741L29.5802 16.0001L32.2062 18.6261C32.5967 19.0166 32.5967 19.6498 32.2062 20.0403C31.8157 20.4308 31.1825 20.4308 30.792 20.0403L28.166 17.4143L25.5399 20.0403C25.1494 20.4308 24.5162 20.4308 24.1257 20.0403C23.7352 19.6498 23.7352 19.0166 24.1257 18.6261L26.7517 16.0001L24.1257 13.3741C23.7352 12.9835 23.7352 12.3504 24.1257 11.9598C24.5162 11.5693 25.1494 11.5693 25.5399 11.9598L28.166 14.5859L30.792 11.9598C31.1825 11.5693 31.8157 11.5693 32.2062 11.9598Z" fill="#111827"/>
</svg>
