<svg width="33" height="32" viewBox="0 0 33 32" fill="none" xmlns="http://www.w3.org/2000/svg">
<path fill-rule="evenodd" clip-rule="evenodd" d="M32.499 1.00094C32.499 0.596483 32.2554 0.231846 31.8817 0.0770652C31.508 -0.0777157 31.0779 0.00783992 30.7919 0.293838L0.793838 30.2919C0.50784 30.5779 0.422284 31.008 0.577065 31.3817C0.731846 31.7554 1.09648 31.999 1.50094 31.999H7.73694C7.74149 31.9991 7.74605 31.9991 7.75062 31.9991C7.75518 31.9991 7.75974 31.9991 7.76429 31.999H13.989C13.9927 31.9991 13.9964 31.9991 14.0002 31.9991C14.0039 31.9991 14.0076 31.9991 14.0113 31.999H20.2383C20.2422 31.9991 20.246 31.9991 20.2498 31.9991C20.2537 31.9991 20.2575 31.9991 20.2613 31.999H26.4872C26.4913 31.9991 26.4953 31.9991 26.4994 31.9991C26.5034 31.9991 26.5075 31.9991 26.5115 31.999H31.499C32.0513 31.999 32.499 31.5513 32.499 30.999V1.00094ZM27.4994 29.999H30.499V3.41516L27.4994 6.4148V29.999ZM25.4994 8.4148L21.2498 12.6644V29.999H25.4994V8.4148ZM19.2498 29.999V14.6644L14.976 18.9382C14.9918 19.0088 15.0002 19.0823 15.0002 19.1577L15.0002 29.999H19.2498ZM13.0002 29.999L13.0002 20.914L8.75061 25.1636V29.999H13.0002ZM6.75062 29.999L6.75061 27.1636L3.91516 29.999H6.75062Z" fill="#111827"/>
</svg>
