<svg width="33" height="32" viewBox="0 0 33 32" fill="none" xmlns="http://www.w3.org/2000/svg">
<path fill-rule="evenodd" clip-rule="evenodd" d="M32.4991 1.00094C32.4991 0.596483 32.2554 0.231846 31.8818 0.0770652C31.5081 -0.0777158 31.078 0.00783997 30.792 0.293838L19.14 11.9458C18.7495 12.3363 18.7495 12.9695 19.14 13.36C19.5306 13.7505 20.1637 13.7505 20.5542 13.36L30.4991 3.41516V26.0882C30.4991 26.6405 30.9468 27.0882 31.4991 27.0882C32.0514 27.0882 32.4991 26.6405 32.4991 26.0882V1.00094ZM15.1186 15.9672L3.26085 2.9236C2.88934 2.51494 2.91946 1.8825 3.32812 1.51099C3.73677 1.13948 4.36922 1.1696 4.74073 1.57826L17.2331 15.3199C17.2381 15.3252 17.243 15.3306 17.2478 15.3361L30.7756 30.2166C31.0826 30.5543 31.1153 31.0448 30.8868 31.4146C30.7291 31.7595 30.381 31.9991 29.977 31.9991H1.50094C1.09648 31.9991 0.731846 31.7554 0.577065 31.3818C0.422284 31.0081 0.50784 30.578 0.793838 30.292L15.1186 15.9672ZM16.4655 17.4487L3.91516 29.9991H27.8749L16.4655 17.4487Z" fill="#111827"/>
</svg>
