<svg width="33" height="33" viewBox="0 0 33 33" fill="none" xmlns="http://www.w3.org/2000/svg">
<path fill-rule="evenodd" clip-rule="evenodd" d="M0.500732 4.00073C0.500732 3.44845 0.948448 3.00073 1.50073 3.00073H31.4989C32.0512 3.00073 32.4989 3.44845 32.4989 4.00073V28.9992C32.4989 29.5515 32.0512 29.9992 31.4989 29.9992H20.2349C19.7295 29.9992 19.3035 29.622 19.2423 29.1203C19.1662 28.4972 18.7738 27.4495 17.7963 26.5702C16.842 25.7117 15.2675 24.959 12.7281 25.0013C7.70115 25.0851 6.36537 27.9935 6.23421 29.1153C6.17529 29.6193 5.74834 29.9992 5.24098 29.9992H1.50073C0.948448 29.9992 0.500732 29.5515 0.500732 28.9992V4.00073ZM2.50073 5.00073V27.9992H4.44291C4.93005 26.4695 6.27451 24.5988 8.94332 23.6374C7.60436 22.537 6.75035 20.8682 6.75035 18.9998C6.75035 15.6863 9.4365 13.0001 12.75 13.0001C16.0636 13.0001 18.7497 15.6863 18.7497 18.9998C18.7497 20.8433 17.9183 22.4926 16.61 23.5932C17.6323 23.9633 18.4665 24.4829 19.1339 25.0833C20.1478 25.9954 20.7441 27.0652 21.0346 27.9992H30.4989V5.00073H2.50073ZM12.75 15.0001C10.5411 15.0001 8.75035 16.7908 8.75035 18.9998C8.75035 21.2088 10.5411 22.9995 12.75 22.9995C14.959 22.9995 16.7497 21.2088 16.7497 18.9998C16.7497 16.7908 14.959 15.0001 12.75 15.0001ZM6.50042 8.00042C5.94814 8.00042 5.50042 8.44814 5.50042 9.00042V11.8064C5.50042 12.3587 5.94814 12.8064 6.50042 12.8064C7.05271 12.8064 7.50042 12.3587 7.50042 11.8064V10.0004H25.4992V23.008H23.5633C23.011 23.008 22.5633 23.4557 22.5633 24.008C22.5633 24.5603 23.011 25.008 23.5633 25.008H26.4992C27.0515 25.008 27.4992 24.5603 27.4992 24.008V9.00042C27.4992 8.44814 27.0515 8.00042 26.4992 8.00042H6.50042Z" fill="#111827"/>
</svg>
