<svg width="33" height="33" viewBox="0 0 33 33" fill="none" xmlns="http://www.w3.org/2000/svg">
<path fill-rule="evenodd" clip-rule="evenodd" d="M3.64332 5.32202C3.09103 5.32202 2.64332 5.76974 2.64332 6.32202V25.6778H1.50073C0.948448 25.6778 0.500732 26.1255 0.500732 26.6778C0.500732 27.2301 0.948448 27.6778 1.50073 27.6778H3.62741L3.64332 27.6779H15.4105L15.4285 27.6781H25.0708L25.0888 27.6779H29.356L29.3719 27.6778H31.4989C32.0512 27.6778 32.4989 27.2301 32.4989 26.6778C32.4989 26.1255 32.0512 25.6778 31.4989 25.6778H30.356V6.32202C30.356 5.76974 29.9083 5.32202 29.356 5.32202H3.64332ZM16.4285 25.6778H24.0708V23.3926H16.4285V25.6778ZM26.0708 22.3926V25.6778H28.356V7.32202H4.64332V25.6778H6.92873V10.6074C6.92873 10.0552 7.37645 9.60744 7.92873 9.60744H25.0705C25.6228 9.60744 26.0705 10.0552 26.0705 10.6074V17.1057C26.0705 17.658 25.6228 18.1057 25.0705 18.1057C24.5183 18.1057 24.0705 17.658 24.0705 17.1057V11.6074H8.92873V25.6778H14.4285V22.3926C14.4285 21.8403 14.8762 21.3926 15.4285 21.3926H25.0708C25.6231 21.3926 26.0708 21.8403 26.0708 22.3926Z" fill="#111827"/>
</svg>
