<svg width="33" height="32" viewBox="0 0 33 32" fill="none" xmlns="http://www.w3.org/2000/svg">
<path fill-rule="evenodd" clip-rule="evenodd" d="M2.64332 5.82202C2.64332 5.26974 3.09103 4.82202 3.64332 4.82202H29.356C29.9083 4.82202 30.356 5.26974 30.356 5.82202V21.1272C30.356 21.6795 29.9083 22.1272 29.356 22.1272C28.8037 22.1272 28.356 21.6795 28.356 21.1272V6.82202H4.64332V21.1272C4.64332 21.6795 4.1956 22.1272 3.64332 22.1272C3.09103 22.1272 2.64332 21.6795 2.64332 21.1272V5.82202ZM0.500732 26.1778C0.500732 25.6255 0.948448 25.1778 1.50073 25.1778H14.4285V21.8926C14.4285 21.3403 14.8762 20.8926 15.4285 20.8926H23.9994C24.5517 20.8926 24.9994 21.3403 24.9994 21.8926V25.1778H31.4989C32.0512 25.1778 32.4989 25.6255 32.4989 26.1778C32.4989 26.7301 32.0512 27.1778 31.4989 27.1778H24.0234C24.0154 27.178 24.0074 27.1781 23.9994 27.1781H15.4285C15.4205 27.1781 15.4125 27.178 15.4045 27.1778H1.50073C0.948448 27.1778 0.500732 26.7301 0.500732 26.1778ZM22.9994 25.1778V22.8926H16.4285V25.1778H22.9994Z" fill="#111827"/>
</svg>
