<svg width="33" height="33" viewBox="0 0 33 33" fill="none" xmlns="http://www.w3.org/2000/svg">
<path fill-rule="evenodd" clip-rule="evenodd" d="M2.64332 6.32202C2.64332 5.76974 3.09103 5.32202 3.64332 5.32202H29.356C29.9083 5.32202 30.356 5.76974 30.356 6.32202V21.6272C30.356 22.1795 29.9083 22.6272 29.356 22.6272C28.8037 22.6272 28.356 22.1795 28.356 21.6272V7.32202H4.64332V21.6272C4.64332 22.1795 4.1956 22.6272 3.64332 22.6272C3.09103 22.6272 2.64332 22.1795 2.64332 21.6272V6.32202ZM0.500732 26.6778C0.500732 26.1255 0.948448 25.6778 1.50073 25.6778H14.4285V22.3926C14.4285 21.8403 14.8762 21.3926 15.4285 21.3926H23.9994C24.5517 21.3926 24.9994 21.8403 24.9994 22.3926V25.6778H31.4989C32.0512 25.6778 32.4989 26.1255 32.4989 26.6778C32.4989 27.2301 32.0512 27.6778 31.4989 27.6778H24.0234C24.0154 27.678 24.0074 27.6781 23.9994 27.6781H15.4285C15.4205 27.6781 15.4125 27.678 15.4045 27.6778H1.50073C0.948448 27.6778 0.500732 27.2301 0.500732 26.6778ZM22.9994 25.6778V23.3926H16.4285V25.6778H22.9994Z" fill="#111827"/>
</svg>
