<svg width="33" height="32" viewBox="0 0 33 32" fill="none" xmlns="http://www.w3.org/2000/svg">
<path fill-rule="evenodd" clip-rule="evenodd" d="M0.500732 3.50073C0.500732 2.94845 0.948448 2.50073 1.50073 2.50073H31.4989C32.0512 2.50073 32.4989 2.94845 32.4989 3.50073V28.4992C32.4989 29.0515 32.0512 29.4992 31.4989 29.4992H20.2349C19.7295 29.4992 19.3035 29.122 19.2423 28.6203C19.1662 27.9972 18.7738 26.9495 17.7963 26.0702C16.842 25.2117 15.2675 24.459 12.7281 24.5013C7.70115 24.5851 6.36537 27.4935 6.23421 28.6153C6.17529 29.1193 5.74834 29.4992 5.24098 29.4992H1.50073C0.948448 29.4992 0.500732 29.0515 0.500732 28.4992V3.50073ZM2.50073 4.50073V27.4992H4.44291C4.93005 25.9695 6.27451 24.0988 8.94332 23.1374C7.60436 22.037 6.75035 20.3682 6.75035 18.4998C6.75035 15.1863 9.4365 12.5001 12.75 12.5001C16.0636 12.5001 18.7497 15.1863 18.7497 18.4998C18.7497 20.3433 17.9183 21.9926 16.61 23.0932C17.6323 23.4633 18.4665 23.9829 19.1339 24.5833C20.1478 25.4954 20.7441 26.5652 21.0346 27.4992H30.4989V4.50073H2.50073ZM12.75 14.5001C10.5411 14.5001 8.75035 16.2908 8.75035 18.4998C8.75035 20.7088 10.5411 22.4995 12.75 22.4995C14.959 22.4995 16.7497 20.7088 16.7497 18.4998C16.7497 16.2908 14.959 14.5001 12.75 14.5001ZM6.50042 7.50042C5.94814 7.50042 5.50042 7.94814 5.50042 8.50042V11.3064C5.50042 11.8587 5.94814 12.3064 6.50042 12.3064C7.05271 12.3064 7.50042 11.8587 7.50042 11.3064V9.50042H25.4992V22.508H23.5633C23.011 22.508 22.5633 22.9557 22.5633 23.508C22.5633 24.0603 23.011 24.508 23.5633 24.508H26.4992C27.0515 24.508 27.4992 24.0603 27.4992 23.508V8.50042C27.4992 7.94814 27.0515 7.50042 26.4992 7.50042H6.50042Z" fill="#111827"/>
</svg>
