<svg width="32" height="32" viewBox="0 0 32 32" fill="none" xmlns="http://www.w3.org/2000/svg">
<path d="M16.0022 16V4" stroke="#1C1B1F" stroke-width="2" stroke-linecap="round" stroke-linejoin="round"/>
<path d="M26.3945 10L5.60986 22" stroke="#1C1B1F" stroke-width="2" stroke-linecap="round" stroke-linejoin="round"/>
<path d="M16.0022 4C18.1046 4.00039 20.1701 4.55313 21.9917 5.60288C23.8132 6.65263 25.3271 8.16254 26.3815 9.9814C27.436 11.8003 27.9941 13.8643 28 15.9667C28.0058 18.0691 27.4592 20.1361 26.4148 21.9608C25.3705 23.7855 23.8651 25.3038 22.0493 26.3637C20.2336 27.4235 18.1713 27.9877 16.0689 27.9998C13.9665 28.0119 11.8978 27.4714 10.0701 26.4324C8.24227 25.3935 6.71952 23.8926 5.6543 22.08" stroke="#1C1B1F" stroke-width="2" stroke-linecap="round" stroke-linejoin="round"/>
<path d="M11.9871 4.68738C7.33305 6.3601 4 10.8601 4 16.1489C4 16.8458 4.05787 17.529 4.16901 18.1938L11.9871 13.6903V4.68738Z" stroke="#1C1B1F" stroke-width="2" stroke-linecap="round" stroke-linejoin="round"/>
</svg>
