<svg width="33" height="32" viewBox="0 0 33 32" fill="none" xmlns="http://www.w3.org/2000/svg">
<path fill-rule="evenodd" clip-rule="evenodd" d="M16.502 -0.000366211L16.5244 -0.000118825C19.3202 0.0041842 22.0662 0.740992 24.4888 2.13707C26.9069 3.53059 28.9183 5.53228 30.3235 7.94318C30.3356 7.96132 30.3472 7.97998 30.3582 7.99914C30.3693 8.01831 30.3797 8.03769 30.3893 8.05725C31.7647 10.4624 32.4923 13.184 32.5 15.9556C32.5078 18.7589 31.7789 21.515 30.3864 23.948C28.994 26.3809 26.9867 28.4054 24.5657 29.8185C22.1447 31.2317 19.3949 31.984 16.5917 32.0001C13.7884 32.0162 11.0302 31.2955 8.5931 29.9102C6.15602 28.5249 4.12566 26.5237 2.70534 24.1069C2.69184 24.0839 2.67937 24.0606 2.6679 24.0371C2.66004 24.0247 2.65241 24.0122 2.64502 23.9994C2.36888 23.5211 2.53275 22.9095 3.01104 22.6333L15.502 15.4217V0.999634C15.502 0.447349 15.9497 -0.000366211 16.502 -0.000366211ZM23.4902 3.86992C25.3331 4.93193 26.9059 6.39763 28.0935 8.15198L17.502 14.267V2.03577C19.6066 2.18681 21.6545 2.81206 23.4902 3.86992ZM17.0369 16.8449L29.0935 9.88405C30.0114 11.7742 30.4941 13.8511 30.5 15.9612C30.5068 18.4141 29.8691 20.8257 28.6506 22.9545C27.4322 25.0833 25.6759 26.8547 23.5575 28.0912C21.4391 29.3278 19.033 29.986 16.5802 30.0001C14.1273 30.0142 11.7139 29.3836 9.58142 28.1715C7.70827 27.1067 6.1097 25.6261 4.90632 23.8485L16.9648 16.8866C16.9894 16.8737 17.0135 16.8598 17.0369 16.8449ZM12.484 1.85857C12.484 1.53302 12.3255 1.22784 12.0592 1.04057C11.7929 0.853307 11.4521 0.807393 11.1458 0.917506C4.9373 3.14892 0.5 9.14624 0.5 16.1857C0.5 17.1122 0.576952 18.0214 0.724953 18.9067C0.778978 19.2299 0.987901 19.5061 1.28418 19.6461C1.58045 19.786 1.92649 19.7719 2.21042 19.6084L11.9831 13.9789C12.293 13.8004 12.484 13.47 12.484 13.1123V1.85857ZM2.5 16.1857C2.5 10.5242 5.76643 5.64225 10.484 3.36182V12.5343L2.52957 17.1164C2.50996 16.8088 2.5 16.4985 2.5 16.1857Z" fill="#111827"/>
</svg>
