<svg width="33" height="32" viewBox="0 0 33 32" fill="none" xmlns="http://www.w3.org/2000/svg">
<path fill-rule="evenodd" clip-rule="evenodd" d="M4.89917 31.0009C4.89917 31.5532 4.45145 32.0009 3.89917 32.0009C3.34689 32.0009 2.89917 31.5532 2.89917 31.0009V0.999146C2.89917 0.446859 3.34689 -0.000854492 3.89917 -0.000854492C4.45145 -0.000854492 4.89917 0.446859 4.89917 0.999146V2.39938H21.9003C22.4525 2.39938 22.9003 2.84709 22.9003 3.39938V10.7998H29.1008C29.6531 10.7998 30.1008 11.2475 30.1008 11.7998V20.2002C30.1008 20.7525 29.6531 21.2002 29.1008 21.2002H15.6999V28.6008C15.6999 29.1531 15.2522 29.6008 14.6999 29.6008H4.89917V31.0009ZM4.8992 10.7998H20.9003V4.39938H4.8992V10.7998ZM21.9003 12.7998H4.89928V19.2002H28.1008V12.7998H21.9139L21.9003 12.7998ZM4.89924 27.6008H13.6999V21.2004H4.89924V27.6008Z" fill="#111827"/>
</svg>
