<svg width="33" height="32" viewBox="0 0 33 32" fill="none" xmlns="http://www.w3.org/2000/svg">
<path fill-rule="evenodd" clip-rule="evenodd" d="M1.50085 2.36694C2.05314 2.36694 2.50085 2.81466 2.50085 3.36694V18.7306L10.7269 11.4891C11.0987 11.1617 11.6542 11.156 12.0327 11.4756L21.548 19.5089L29.436 9.40561H23.8305C23.2782 9.40561 22.8305 8.95789 22.8305 8.40561C22.8305 7.85332 23.2782 7.40561 23.8305 7.40561H31.412C31.5213 7.39728 31.6321 7.40681 31.7397 7.43476C32.1757 7.54249 32.499 7.9363 32.499 8.40561V16.0742C32.499 16.6264 32.0513 17.0742 31.499 17.0742C30.9467 17.0742 30.499 16.6264 30.499 16.0742V11.294L22.485 21.5586C22.3177 21.7729 22.0704 21.9099 21.8 21.9379C21.5296 21.966 21.2594 21.8827 21.0517 21.7074L11.4013 13.5599L2.50085 21.3952V27.6331H31.499C32.0513 27.6331 32.499 28.0808 32.499 28.6331C32.499 29.1854 32.0513 29.6331 31.499 29.6331H1.50085C0.94857 29.6331 0.500854 29.1854 0.500854 28.6331V20.9486V20.9386V3.36694C0.500854 2.81466 0.94857 2.36694 1.50085 2.36694Z" fill="#111827"/>
</svg>
