<svg width="33" height="32" viewBox="0 0 33 32" fill="none" xmlns="http://www.w3.org/2000/svg">
<path fill-rule="evenodd" clip-rule="evenodd" d="M20.6996 2.40063C20.1473 2.40063 19.6996 2.84835 19.6996 3.40063V9.60021H12.3003C11.748 9.60021 11.3003 10.0479 11.3003 10.6002V16.7998H3.90075C3.34847 16.7998 2.90075 17.2475 2.90075 17.7998V27.5992H1.50085C0.94857 27.5992 0.500854 28.0469 0.500854 28.5992C0.500854 29.1515 0.94857 29.5992 1.50085 29.5992H31.499C32.0513 29.5992 32.499 29.1515 32.499 28.5992C32.499 28.0469 32.0513 27.5992 31.499 27.5992H30.099V3.40063C30.099 2.84835 29.6513 2.40063 29.099 2.40063H20.6996ZM21.6997 10.6002V27.5991H28.099V4.40063H21.6996V10.5816L21.6997 10.6002ZM13.3003 11.6002H19.6996V27.5991H13.3003V11.6002ZM4.90075 27.5991V18.7998H11.3002V27.5991H4.90075Z" fill="#111827"/>
</svg>
