<svg width="33" height="32" viewBox="0 0 33 32" fill="none" xmlns="http://www.w3.org/2000/svg">
<path fill-rule="evenodd" clip-rule="evenodd" d="M2.50099 3.36694C2.50099 2.81466 2.05327 2.36694 1.50099 2.36694C0.948704 2.36694 0.500989 2.81466 0.500989 3.36694V20.9387C0.500972 20.9421 0.500972 20.9454 0.500989 20.9488V28.6331C0.500989 29.1854 0.948704 29.6331 1.50099 29.6331H31.4991C32.0514 29.6331 32.4991 29.1854 32.4991 28.6331C32.4991 28.0808 32.0514 27.6331 31.4991 27.6331H2.50099V21.3953L11.4014 13.56L21.0518 21.7075C21.2596 21.8828 21.5297 21.9661 21.8001 21.938C22.0705 21.91 22.3179 21.773 22.4851 21.5588L32.276 9.01827C32.6159 8.58294 32.5385 7.95452 32.1032 7.61465C31.6679 7.27478 31.0395 7.35215 30.6996 7.78748L21.5481 19.509L12.0329 11.4757C11.6543 11.1561 11.0988 11.1618 10.727 11.4892L2.50099 18.7308V3.36694Z" fill="#111827"/>
</svg>
