<svg width="33" height="32" viewBox="0 0 33 32" fill="none" xmlns="http://www.w3.org/2000/svg">
<path fill-rule="evenodd" clip-rule="evenodd" d="M17.5 14.2678V2.03603C21.9075 2.34714 25.7517 4.69855 28.0937 8.15151L17.5 14.2678ZM16.979 16.878C16.9927 16.8705 17.0061 16.8628 17.0194 16.8547L29.0953 9.88266C29.9945 11.7308 30.499 13.8065 30.499 15.9999C30.499 23.7314 24.2314 29.999 16.4999 29.999C11.677 29.999 7.42369 27.5601 4.90611 23.8483L16.979 16.878ZM15.5 15.4225V2.03601C8.23523 2.5487 2.50085 8.60465 2.50085 15.9999C2.50085 18.1934 3.00532 20.269 3.90456 22.1171L15.5 15.4225ZM0.500854 15.9999C0.500854 7.16389 7.66389 0.000854492 16.4999 0.000854492H16.5C25.336 0.000913186 32.499 7.16392 32.499 15.9999C32.499 24.836 25.336 31.999 16.4999 31.999C7.66389 31.999 0.500854 24.836 0.500854 15.9999Z" fill="#111827"/>
</svg>
