<svg width="32" height="32" viewBox="0 0 32 32" fill="none" xmlns="http://www.w3.org/2000/svg">
<path d="M16 14.9981C16.8284 14.9981 17.5 14.3265 17.5 13.4981C17.5 12.6697 16.8284 11.9981 16 11.9981C15.1716 11.9981 14.5 12.6697 14.5 13.4981C14.5 14.3265 15.1716 14.9981 16 14.9981Z" fill="#1C1B1F"/>
<path d="M10 14.9981C10.8284 14.9981 11.5 14.3265 11.5 13.4981C11.5 12.6697 10.8284 11.9981 10 11.9981C9.17157 11.9981 8.5 12.6697 8.5 13.4981C8.5 14.3265 9.17157 14.9981 10 14.9981Z" fill="#1C1B1F"/>
<path d="M22 14.9981C22.8284 14.9981 23.5 14.3265 23.5 13.4981C23.5 12.6697 22.8284 11.9981 22 11.9981C21.1716 11.9981 20.5 12.6697 20.5 13.4981C20.5 14.3265 21.1716 14.9981 22 14.9981Z" fill="#1C1B1F"/>
<path d="M28 4.49817H4V21.0222V27.5019L10.3039 22.3866H28V4.49817Z" stroke="#1C1B1F" stroke-width="2" stroke-linejoin="round"/>
</svg>
