<svg width="32" height="32" viewBox="0 0 32 32" fill="none" xmlns="http://www.w3.org/2000/svg">
<path d="M16 14.5C16.8284 14.5 17.5 13.8284 17.5 13C17.5 12.1716 16.8284 11.5 16 11.5C15.1716 11.5 14.5 12.1716 14.5 13C14.5 13.8284 15.1716 14.5 16 14.5Z" fill="#1C1B1F"/>
<path d="M10 14.5C10.8284 14.5 11.5 13.8284 11.5 13C11.5 12.1716 10.8284 11.5 10 11.5C9.17157 11.5 8.5 12.1716 8.5 13C8.5 13.8284 9.17157 14.5 10 14.5Z" fill="#1C1B1F"/>
<path d="M22 14.5C22.8284 14.5 23.5 13.8284 23.5 13C23.5 12.1716 22.8284 11.5 22 11.5C21.1716 11.5 20.5 12.1716 20.5 13C20.5 13.8284 21.1716 14.5 22 14.5Z" fill="#1C1B1F"/>
<path d="M28 4H4V21.935H12.0309L15.992 28L20.0154 21.935H28V4Z" stroke="#1C1B1F" stroke-width="2" stroke-linejoin="round"/>
</svg>
