<svg width="33" height="32" viewBox="0 0 33 32" fill="none" xmlns="http://www.w3.org/2000/svg">
<path fill-rule="evenodd" clip-rule="evenodd" d="M4.24967 7.04517C5.95894 4.6824 8.73822 3.14764 11.8769 3.14764C17.0708 3.14764 21.2792 7.35253 21.2792 12.5369C21.2792 17.7212 17.0708 21.9261 11.8769 21.9261H2.50073V11.8311C2.63295 10.0517 3.2615 8.41115 4.24967 7.04517ZM11.8769 1.14764C8.07008 1.14764 4.69879 3.0121 2.62923 5.87292C1.42299 7.54035 0.656951 9.54843 0.503219 11.7245C0.501562 11.7479 0.500732 11.7714 0.500732 11.795V22.9261C0.500732 23.4784 0.948448 23.9261 1.50073 23.9261H10.6296C12.3672 27.9971 16.4104 30.8523 21.1228 30.8523H31.499C32.0513 30.8523 32.499 30.4046 32.499 29.8523V18.7212C32.499 18.6977 32.4982 18.6741 32.4965 18.6507C32.3428 16.4746 31.5768 14.4666 30.3705 12.7991C28.5361 10.2633 25.679 8.51006 22.4004 8.14464C20.6791 4.03465 16.6149 1.14764 11.8769 1.14764ZM23.0537 10.2719C23.2016 11.0039 23.2792 11.7613 23.2792 12.5369C23.2792 18.5084 18.6789 23.4047 12.8273 23.8871C14.4113 26.8428 17.5327 28.8523 21.1228 28.8523H30.499V18.7573C30.3668 16.9779 29.7382 15.3374 28.7501 13.9714C27.401 12.1065 25.3852 10.7577 23.0537 10.2719Z" fill="#111827"/>
</svg>
