<svg width="33" height="32" viewBox="0 0 33 32" fill="none" xmlns="http://www.w3.org/2000/svg">
<path fill-rule="evenodd" clip-rule="evenodd" d="M1.50073 0.000915527C0.948448 0.000915527 0.500732 0.448631 0.500732 1.00092V23.4182C0.500732 23.9705 0.948448 24.4182 1.50073 24.4182H10.9975L15.6526 31.5459C15.8366 31.8276 16.1499 31.9979 16.4863 31.9991C16.8227 32.0003 17.1372 31.8322 17.3232 31.5519L22.0555 24.4182H31.4989C32.0512 24.4182 32.4989 23.9705 32.4989 23.4182V1.00092C32.4989 0.448631 32.0512 0.000915527 31.4989 0.000915527H1.50073ZM2.50073 22.4182V2.00092H30.4989V22.4182H21.5188C21.1837 22.4182 20.8708 22.5861 20.6855 22.8654L16.4964 29.1803L12.376 22.8714C12.1913 22.5887 11.8764 22.4182 11.5387 22.4182H2.50073ZM10.8753 12.2502C10.8753 13.2857 10.0359 14.1251 9.00039 14.1251C7.96492 14.1251 7.12551 13.2857 7.12551 12.2502C7.12551 11.2147 7.96492 10.3753 9.00039 10.3753C10.0359 10.3753 10.8753 11.2147 10.8753 12.2502ZM18.3748 12.2502C18.3748 13.2857 17.5354 14.1251 16.4999 14.1251C15.4645 14.1251 14.625 13.2857 14.625 12.2502C14.625 11.2147 15.4645 10.3753 16.4999 10.3753C17.5354 10.3753 18.3748 11.2147 18.3748 12.2502ZM23.9992 14.1251C25.0347 14.1251 25.8741 13.2857 25.8741 12.2502C25.8741 11.2147 25.0347 10.3753 23.9992 10.3753C22.9637 10.3753 22.1243 11.2147 22.1243 12.2502C22.1243 13.2857 22.9637 14.1251 23.9992 14.1251Z" fill="#111827"/>
</svg>
