<svg width="33" height="32" viewBox="0 0 33 32" fill="none" xmlns="http://www.w3.org/2000/svg">
<path fill-rule="evenodd" clip-rule="evenodd" d="M1.50073 0.000915527C0.948448 0.000915527 0.500732 0.448631 0.500732 1.00092V23.4182C0.500732 23.9705 0.948448 24.4182 1.50073 24.4182H10.9975L15.6526 31.5459C15.8366 31.8276 16.1499 31.9979 16.4863 31.9991C16.8227 32.0003 17.1372 31.8322 17.3232 31.5519L22.0555 24.4182H31.4989C32.0512 24.4182 32.4989 23.9705 32.4989 23.4182V1.00092C32.4989 0.448631 32.0512 0.000915527 31.4989 0.000915527H1.50073ZM2.50073 22.4182V2.00092H30.4989V22.4182H21.5188C21.1837 22.4182 20.8708 22.5861 20.6855 22.8654L16.4964 29.1803L12.376 22.8714C12.1913 22.5887 11.8764 22.4182 11.5387 22.4182H2.50073ZM10.5001 9.75028C10.5001 9.198 10.9478 8.75028 11.5001 8.75028H21.4995C22.0518 8.75028 22.4995 9.198 22.4995 9.75028C22.4995 10.3026 22.0518 10.7503 21.4995 10.7503H11.5001C10.9478 10.7503 10.5001 10.3026 10.5001 9.75028ZM10.5001 14.75C10.5001 14.1977 10.9478 13.75 11.5001 13.75H21.4995C22.0518 13.75 22.4995 14.1977 22.4995 14.75C22.4995 15.3023 22.0518 15.75 21.4995 15.75H11.5001C10.9478 15.75 10.5001 15.3023 10.5001 14.75Z" fill="#111827"/>
</svg>
