<svg width="33" height="32" viewBox="0 0 33 32" fill="none" xmlns="http://www.w3.org/2000/svg">
<path fill-rule="evenodd" clip-rule="evenodd" d="M5.10991 7.81148C7.65753 4.28982 11.8014 2.00092 16.481 2.00092C24.224 2.00092 30.4989 8.2697 30.4989 16C30.4989 23.7303 24.224 29.9991 16.481 29.9991H2.50073V14.9648C2.69521 12.305 3.63354 9.85231 5.10991 7.81148ZM16.481 0.000915527C11.1332 0.000915527 6.39739 2.61952 3.48947 6.63923C1.79497 8.98158 0.719154 11.8019 0.503219 14.8584C0.501562 14.8819 0.500732 14.9054 0.500732 14.9289V30.9991C0.500732 31.5514 0.948448 31.9991 1.50073 31.9991H16.481C25.3262 31.9991 32.4989 24.8372 32.4989 16C32.4989 7.16277 25.3262 0.000915527 16.481 0.000915527ZM10.8753 16C10.8753 17.0355 10.0359 17.8749 9.00039 17.8749C7.96492 17.8749 7.12551 17.0355 7.12551 16C7.12551 14.9646 7.96492 14.1252 9.00039 14.1252C10.0359 14.1252 10.8753 14.9646 10.8753 16ZM18.3748 16C18.3748 17.0355 17.5354 17.8749 16.4999 17.8749C15.4645 17.8749 14.625 17.0355 14.625 16C14.625 14.9646 15.4645 14.1252 16.4999 14.1252C17.5354 14.1252 18.3748 14.9646 18.3748 16ZM23.9992 17.8749C25.0347 17.8749 25.8741 17.0355 25.8741 16C25.8741 14.9646 25.0347 14.1252 23.9992 14.1252C22.9637 14.1252 22.1243 14.9646 22.1243 16C22.1243 17.0355 22.9637 17.8749 23.9992 17.8749Z" fill="#111827"/>
</svg>
