<svg width="32" height="32" viewBox="0 0 32 32" fill="none" xmlns="http://www.w3.org/2000/svg">
<path d="M12.3042 21.5324C16.8905 21.5324 20.6085 17.8144 20.6085 13.2281C20.6085 8.64182 16.8905 4.92389 12.3042 4.92389C7.71793 4.92389 4 8.64182 4 13.2281C4 14.6022 4.33372 15.8983 4.92454 17.0398C4.98119 17.1493 4.9989 17.2751 4.97074 17.3951L4.18803 20.731C4.10236 21.0961 4.43431 21.4221 4.79785 21.3298L8.02641 20.5102C8.15127 20.4785 8.2832 20.4968 8.39682 20.5575C9.56141 21.1797 10.8916 21.5324 12.3042 21.5324Z" stroke="#1C1B1F" stroke-width="2"/>
<path d="M11.8738 21.5675C13.0216 24.7785 16.0903 27.0761 19.6958 27.0761C21.1084 27.0761 22.4386 26.7234 23.6032 26.1013C23.7168 26.0406 23.8487 26.0222 23.9736 26.0539L27.2022 26.8736C27.5657 26.9659 27.8976 26.6399 27.812 26.2747L27.0293 22.9389C27.0011 22.8189 27.0188 22.6931 27.0755 22.5836C27.6663 21.4421 28 20.146 28 18.7719C28 14.4368 24.6782 10.8775 20.441 10.5006" stroke="#1C1B1F" stroke-width="2" stroke-linecap="round"/>
</svg>
