<svg width="33" height="32" viewBox="0 0 33 32" fill="none" xmlns="http://www.w3.org/2000/svg">
<path fill-rule="evenodd" clip-rule="evenodd" d="M2.50073 16C2.50073 8.26852 8.76834 2.00092 16.4998 2.00092C24.2313 2.00092 30.4989 8.26852 30.4989 16C30.4989 23.7315 24.2313 29.9991 16.4998 29.9991C14.0629 29.9991 11.7742 29.3773 9.78067 28.2844C9.45208 28.1043 9.06087 28.0481 8.684 28.1437L2.85036 29.6247L4.2629 23.6046C4.34786 23.2425 4.29366 22.8693 4.12557 22.5526C3.08859 20.5986 2.50073 18.3694 2.50073 16ZM16.4998 0.000915527C7.66377 0.000915527 0.500732 7.16395 0.500732 16C0.500732 18.6387 1.14031 21.1309 2.27367 23.3272L0.715207 29.9693C0.458174 31.0647 1.45403 32.0427 2.54464 31.7658L8.98884 30.1298C11.2294 31.3232 13.7871 31.9991 16.4998 31.9991C25.3359 31.9991 32.4989 24.8361 32.4989 16C32.4989 7.16395 25.3359 0.000915527 16.4998 0.000915527ZM10.5001 13.5001C10.5001 12.9479 10.9478 12.5001 11.5001 12.5001H21.4995C22.0518 12.5001 22.4995 12.9479 22.4995 13.5001C22.4995 14.0524 22.0518 14.5001 21.4995 14.5001H11.5001C10.9478 14.5001 10.5001 14.0524 10.5001 13.5001ZM10.5001 18.4999C10.5001 17.9476 10.9478 17.4999 11.5001 17.4999H21.4995C22.0518 17.4999 22.4995 17.9476 22.4995 18.4999C22.4995 19.0521 22.0518 19.4999 21.4995 19.4999H11.5001C10.9478 19.4999 10.5001 19.0521 10.5001 18.4999Z" fill="#111827"/>
</svg>
