<svg width="33" height="32" viewBox="0 0 33 32" fill="none" xmlns="http://www.w3.org/2000/svg">
<path fill-rule="evenodd" clip-rule="evenodd" d="M1.50073 0.623566C0.948448 0.623566 0.500732 1.07128 0.500732 1.62357V22.2773V30.3764C0.500732 30.7621 0.7225 31.1134 1.07067 31.2792C1.41884 31.4451 1.83136 31.396 2.13083 31.153L9.73484 24.9828H31.4989C32.0512 24.9828 32.4989 24.5351 32.4989 23.9828V1.62357C32.4989 1.07128 32.0512 0.623566 31.4989 0.623566H1.50073ZM2.50073 22.2773V2.62357H30.4989V22.9828H9.38016C9.15071 22.9828 8.92823 23.0617 8.75006 23.2063L2.50073 28.2772V22.2773ZM10.8753 12.8728C10.8753 13.9082 10.0359 14.7477 9.00039 14.7477C7.96492 14.7477 7.12551 13.9082 7.12551 12.8728C7.12551 11.8373 7.96492 10.9979 9.00039 10.9979C10.0359 10.9979 10.8753 11.8373 10.8753 12.8728ZM18.3748 12.8728C18.3748 13.9082 17.5354 14.7477 16.4999 14.7477C15.4645 14.7477 14.625 13.9082 14.625 12.8728C14.625 11.8373 15.4645 10.9979 16.4999 10.9979C17.5354 10.9979 18.3748 11.8373 18.3748 12.8728ZM23.9992 14.7477C25.0347 14.7477 25.8741 13.9082 25.8741 12.8728C25.8741 11.8373 25.0347 10.9979 23.9992 10.9979C22.9637 10.9979 22.1243 11.8373 22.1243 12.8728C22.1243 13.9082 22.9637 14.7477 23.9992 14.7477Z" fill="#111827"/>
</svg>
