<svg width="33" height="32" viewBox="0 0 33 32" fill="none" xmlns="http://www.w3.org/2000/svg">
<path fill-rule="evenodd" clip-rule="evenodd" d="M2.49976 16C2.49976 8.26787 8.76787 1.99976 16.5 1.99976C24.2321 1.99976 30.5002 8.26787 30.5002 16C30.5002 23.7321 24.2321 30.0002 16.5 30.0002C14.1296 30.0002 11.8996 29.412 9.94511 28.3743C9.51079 28.1437 8.99299 28.0662 8.48905 28.1941L2.84939 29.6259L4.21834 23.7915C4.33195 23.3073 4.25729 22.8133 4.04202 22.3948C3.0565 20.479 2.49976 18.306 2.49976 16ZM16.5 -0.000244141C7.6633 -0.000244141 0.499756 7.1633 0.499756 16C0.499756 18.6316 1.13585 21.1175 2.26355 23.3097C2.27137 23.3249 2.27113 23.3339 2.27103 23.3354L0.902265 29.169C0.559554 30.6296 1.88736 31.9335 3.34152 31.5644L8.98064 30.1328C8.98119 30.1327 8.98252 30.1327 8.98475 30.133C8.98953 30.1336 8.99752 30.1356 9.00729 30.1408C11.2436 31.3281 13.7948 32.0002 16.5 32.0002C25.3367 32.0002 32.5002 24.8367 32.5002 16C32.5002 7.1633 25.3367 -0.000244141 16.5 -0.000244141ZM11.8728 11.3727C12.2633 10.9822 12.8965 10.9822 13.287 11.3727L16.4999 14.5856L19.7128 11.3727C20.1033 10.9822 20.7365 10.9822 21.127 11.3727C21.5175 11.7632 21.5175 12.3964 21.127 12.7869L17.9141 15.9998L21.127 19.2127C21.5175 19.6032 21.5175 20.2363 21.127 20.6269C20.7365 21.0174 20.1033 21.0174 19.7128 20.6269L16.4999 17.414L13.287 20.6269C12.8965 21.0174 12.2633 21.0174 11.8728 20.6269C11.4823 20.2363 11.4823 19.6032 11.8728 19.2127L15.0857 15.9998L11.8728 12.7869C11.4823 12.3964 11.4823 11.7632 11.8728 11.3727Z" fill="#111827"/>
</svg>
