<svg width="33" height="32" viewBox="0 0 33 32" fill="none" xmlns="http://www.w3.org/2000/svg">
<path fill-rule="evenodd" clip-rule="evenodd" d="M2.50073 12.5354C2.50073 7.35516 6.70014 3.15576 11.8804 3.15576C17.0606 3.15576 21.26 7.35516 21.26 12.5354C21.26 17.7156 17.0606 21.915 11.8804 21.915C10.2669 21.915 8.75141 21.5085 7.4277 20.793C7.10265 20.6174 6.71384 20.5598 6.33598 20.6558L2.85036 21.5407L3.69857 17.9256C3.78376 17.5626 3.72835 17.1917 3.56438 16.8784C2.88526 15.581 2.50073 14.1046 2.50073 12.5354ZM11.8804 1.15576C5.59557 1.15576 0.500732 6.2506 0.500732 12.5354C0.500732 14.3711 0.936117 16.1078 1.71003 17.6453L0.715207 21.8852C0.458173 22.9807 1.45403 23.9586 2.54464 23.6817L6.64389 22.641C7.85648 23.2705 9.1965 23.6881 10.6138 23.8452C12.3291 27.9543 16.3856 30.8443 21.1194 30.8443C23.0057 30.8443 24.7874 30.3846 26.3559 29.5703L30.4551 30.611C31.5457 30.8879 32.5416 29.9099 32.2845 28.8145L31.2897 24.5746C32.0636 23.037 32.499 21.3003 32.499 19.4647C32.499 13.6079 28.0753 8.78552 22.3863 8.15484C20.6704 4.04451 16.6128 1.15576 11.8804 1.15576ZM23.0367 10.281C23.1832 11.0097 23.26 11.7636 23.26 12.5354C23.26 18.4973 18.6752 23.3884 12.839 23.8752C14.4179 26.833 17.5347 28.8443 21.1194 28.8443C22.7328 28.8443 24.2483 28.4377 25.572 27.7223C25.8971 27.5466 26.2859 27.4891 26.6638 27.585L30.1494 28.4699L29.3012 24.8549C29.216 24.4918 29.2714 24.1209 29.4354 23.8077C30.1145 22.5102 30.499 21.0338 30.499 19.4647C30.499 14.9417 27.297 11.1656 23.0367 10.281Z" fill="#111827"/>
</svg>
