<svg width="33" height="32" viewBox="0 0 33 32" fill="none" xmlns="http://www.w3.org/2000/svg">
<path fill-rule="evenodd" clip-rule="evenodd" d="M1.49756 0.6203C0.945274 0.6203 0.497559 1.06802 0.497559 1.6203V22.2787V30.3796C0.497559 30.7653 0.719326 31.1165 1.0675 31.2824C1.41567 31.4483 1.82818 31.3991 2.12765 31.1561L9.73342 24.9845H31.5024C32.0547 24.9845 32.5024 24.5368 32.5024 23.9845V1.6203C32.5024 1.06802 32.0547 0.6203 31.5024 0.6203H1.49756ZM2.49756 22.2787V2.6203H30.5024V22.9845H9.37874C9.14929 22.9845 8.92682 23.0634 8.74865 23.208L2.49756 28.2804V22.2787ZM12.1172 8.41243C12.5077 8.02191 13.1409 8.02191 13.5314 8.41243L16.4999 11.3809L19.4684 8.41243C19.8589 8.02191 20.492 8.02191 20.8826 8.41243C21.2731 8.80296 21.2731 9.43612 20.8826 9.82665L17.9141 12.7951L20.8826 15.7636C21.2731 16.1541 21.2731 16.7873 20.8826 17.1778C20.492 17.5683 19.8589 17.5683 19.4684 17.1778L16.4999 14.2093L13.5314 17.1778C13.1409 17.5683 12.5077 17.5683 12.1172 17.1778C11.7267 16.7873 11.7267 16.1541 12.1172 15.7636L15.0857 12.7951L12.1172 9.82665C11.7267 9.43612 11.7267 8.80296 12.1172 8.41243Z" fill="#111827"/>
</svg>
