<svg width="33" height="32" viewBox="0 0 33 32" fill="none" xmlns="http://www.w3.org/2000/svg">
<path fill-rule="evenodd" clip-rule="evenodd" d="M5.10991 7.81148C7.65753 4.28982 11.8014 2.00092 16.481 2.00092C24.224 2.00092 30.4989 8.2697 30.4989 16C30.4989 23.7303 24.224 29.9991 16.481 29.9991H2.50073V14.9648C2.69521 12.305 3.63354 9.85231 5.10991 7.81148ZM16.481 0.000915527C11.1332 0.000915527 6.39739 2.61952 3.48947 6.63923C1.79497 8.98158 0.719154 11.8019 0.503219 14.8584C0.501562 14.8819 0.500732 14.9054 0.500732 14.9289V30.9991C0.500732 31.5514 0.948448 31.9991 1.50073 31.9991H16.481C25.3262 31.9991 32.4989 24.8372 32.4989 16C32.4989 7.16277 25.3262 0.000915527 16.481 0.000915527ZM10.5001 13.499C10.5001 12.9467 10.9478 12.499 11.5001 12.499H20.8745C21.4268 12.499 21.8745 12.9467 21.8745 13.499C21.8745 14.0513 21.4268 14.499 20.8745 14.499H11.5001C10.9478 14.499 10.5001 14.0513 10.5001 13.499ZM10.5001 18.4986C10.5001 17.9463 10.9478 17.4986 11.5001 17.4986H20.8745C21.4268 17.4986 21.8745 17.9463 21.8745 18.4986C21.8745 19.0509 21.4268 19.4986 20.8745 19.4986H11.5001C10.9478 19.4986 10.5001 19.0509 10.5001 18.4986Z" fill="#111827"/>
</svg>
