<svg width="33" height="32" viewBox="0 0 33 32" fill="none" xmlns="http://www.w3.org/2000/svg">
<path fill-rule="evenodd" clip-rule="evenodd" d="M2.50073 16C2.50073 8.26852 8.76834 2.00092 16.4998 2.00092C24.2313 2.00092 30.4989 8.26852 30.4989 16C30.4989 23.7315 24.2313 29.9991 16.4998 29.9991C14.0629 29.9991 11.7742 29.3773 9.78067 28.2844C9.45208 28.1043 9.06087 28.0481 8.684 28.1437L2.85036 29.6247L4.2629 23.6046C4.34786 23.2425 4.29366 22.8693 4.12557 22.5526C3.08859 20.5986 2.50073 18.3694 2.50073 16ZM16.4998 0.000915527C7.66377 0.000915527 0.500732 7.16395 0.500732 16C0.500732 18.6387 1.14031 21.1309 2.27367 23.3272L0.715207 29.9693C0.458174 31.0647 1.45403 32.0427 2.54464 31.7658L8.98884 30.1298C11.2294 31.3232 13.7871 31.9991 16.4998 31.9991C25.3359 31.9991 32.4989 24.8361 32.4989 16C32.4989 7.16395 25.3359 0.000915527 16.4998 0.000915527ZM10.8753 16C10.8753 17.0355 10.0359 17.8749 9.00039 17.8749C7.96492 17.8749 7.12551 17.0355 7.12551 16C7.12551 14.9645 7.96492 14.1251 9.00039 14.1251C10.0359 14.1251 10.8753 14.9645 10.8753 16ZM18.3748 16C18.3748 17.0355 17.5354 17.8749 16.4999 17.8749C15.4645 17.8749 14.625 17.0355 14.625 16C14.625 14.9645 15.4645 14.1251 16.4999 14.1251C17.5354 14.1251 18.3748 14.9645 18.3748 16ZM23.9992 17.8749C25.0347 17.8749 25.8741 17.0355 25.8741 16C25.8741 14.9645 25.0347 14.1251 23.9992 14.1251C22.9637 14.1251 22.1243 14.9645 22.1243 16C22.1243 17.0355 22.9637 17.8749 23.9992 17.8749Z" fill="#111827"/>
</svg>
