<svg width="33" height="32" viewBox="0 0 33 32" fill="none" xmlns="http://www.w3.org/2000/svg">
<path fill-rule="evenodd" clip-rule="evenodd" d="M1.50073 0.623566C0.948448 0.623566 0.500732 1.07128 0.500732 1.62357V22.2773V30.3764C0.500732 30.7621 0.7225 31.1134 1.07067 31.2792C1.41884 31.4451 1.83136 31.396 2.13083 31.153L9.73484 24.9828H31.4989C32.0512 24.9828 32.4989 24.5351 32.4989 23.9828V1.62357C32.4989 1.07128 32.0512 0.623566 31.4989 0.623566H1.50073ZM2.50073 22.2773V2.62357H30.4989V22.9828H9.38016C9.15071 22.9828 8.92823 23.0617 8.75006 23.2063L2.50073 28.2772V22.2773ZM10.5001 11.0921C10.5001 10.5398 10.9478 10.0921 11.5001 10.0921H21.4995C22.0518 10.0921 22.4995 10.5398 22.4995 11.0921C22.4995 11.6444 22.0518 12.0921 21.4995 12.0921H11.5001C10.9478 12.0921 10.5001 11.6444 10.5001 11.0921ZM10.5001 16.0918C10.5001 15.5396 10.9478 15.0918 11.5001 15.0918H21.4995C22.0518 15.0918 22.4995 15.5396 22.4995 16.0918C22.4995 16.6441 22.0518 17.0918 21.4995 17.0918H11.5001C10.9478 17.0918 10.5001 16.6441 10.5001 16.0918Z" fill="#111827"/>
</svg>
