<svg width="32" height="32" viewBox="0 0 32 32" fill="none" xmlns="http://www.w3.org/2000/svg">
<path d="M16 17.5C16.8284 17.5 17.5 16.8284 17.5 16C17.5 15.1716 16.8284 14.5 16 14.5C15.1716 14.5 14.5 15.1716 14.5 16C14.5 16.8284 15.1716 17.5 16 17.5Z" fill="#1C1B1F"/>
<path d="M10 17.5C10.8284 17.5 11.5 16.8284 11.5 16C11.5 15.1716 10.8284 14.5 10 14.5C9.17157 14.5 8.5 15.1716 8.5 16C8.5 16.8284 9.17157 17.5 10 17.5Z" fill="#1C1B1F"/>
<path d="M22 17.5C22.8284 17.5 23.5 16.8284 23.5 16C23.5 15.1716 22.8284 14.5 22 14.5C21.1716 14.5 20.5 15.1716 20.5 16C20.5 16.8284 21.1716 17.5 22 17.5Z" fill="#1C1B1F"/>
<path d="M15.9849 28C22.6207 28 28 22.6274 28 16C28 9.37258 22.6207 4 15.9849 4C11.9737 4 8.42165 5.96312 6.2393 8.97985C4.96832 10.7368 4.16192 12.8511 4 15.1431V28H15.9849Z" stroke="#1C1B1F" stroke-width="2" stroke-linejoin="round"/>
</svg>
