<svg width="32" height="32" viewBox="0 0 32 32" fill="none" xmlns="http://www.w3.org/2000/svg">
<path d="M16 17.5C16.8284 17.5 17.5 16.8284 17.5 16C17.5 15.1716 16.8284 14.5 16 14.5C15.1716 14.5 14.5 15.1716 14.5 16C14.5 16.8284 15.1716 17.5 16 17.5Z" fill="#1C1B1F"/>
<path d="M10 17.5C10.8284 17.5 11.5 16.8284 11.5 16C11.5 15.1716 10.8284 14.5 10 14.5C9.17157 14.5 8.5 15.1716 8.5 16C8.5 16.8284 9.17157 17.5 10 17.5Z" fill="#1C1B1F"/>
<path d="M22 17.5C22.8284 17.5 23.5 16.8284 23.5 16C23.5 15.1716 22.8284 14.5 22 14.5C21.1716 14.5 20.5 15.1716 20.5 16C20.5 16.8284 21.1716 17.5 22 17.5Z" fill="#1C1B1F"/>
<path d="M16 28C22.6274 28 28 22.6274 28 16C28 9.37258 22.6274 4 16 4C9.37258 4 4 9.37258 4 16C4 18.0159 4.4971 19.9158 5.37542 21.5836C5.43284 21.6926 5.45038 21.8186 5.42223 21.9386L4.18803 27.1986C4.10236 27.5638 4.43431 27.8897 4.79785 27.7975L9.90493 26.5009C10.0298 26.4692 10.1618 26.4873 10.275 26.5489C11.9765 27.4743 13.9269 28 16 28Z" stroke="#1C1B1F" stroke-width="2"/>
</svg>
