<svg width="33" height="32" viewBox="0 0 33 32" fill="none" xmlns="http://www.w3.org/2000/svg">
<path fill-rule="evenodd" clip-rule="evenodd" d="M32.5 4.35309C32.5 6.43227 30.8145 8.11779 28.7353 8.11779C26.6561 8.11779 24.9706 6.43227 24.9706 4.35309C24.9706 2.2739 26.6561 0.588379 28.7353 0.588379C30.8145 0.588379 32.5 2.2739 32.5 4.35309ZM28.846 23.5985V9.29257C29.4722 9.27879 30.0697 9.14851 30.6176 8.92253V24.4843C30.6176 24.9735 30.2211 25.3701 29.7318 25.3701H9.14546L1.94396 31.2137C1.67869 31.429 1.31327 31.4725 1.00486 31.3256C0.696445 31.1786 0.5 30.8675 0.5 30.5259V3.35654C0.5 2.86732 0.896592 2.47073 1.38581 2.47073H24.1658C23.9398 3.01867 23.8095 3.61616 23.7958 4.24236H2.27163V28.6663L8.27313 23.7965C8.43096 23.6684 8.62803 23.5985 8.83128 23.5985H28.846Z" fill="#111827"/>
</svg>
