<svg width="33" height="32" viewBox="0 0 33 32" fill="none" xmlns="http://www.w3.org/2000/svg">
<path fill-rule="evenodd" clip-rule="evenodd" d="M5.10915 7.81079C7.65698 4.28884 11.8012 1.99976 16.4811 1.99976C24.2248 1.99976 30.5002 8.26906 30.5002 16C30.5002 23.7309 24.2248 30.0002 16.4811 30.0002H2.49976V14.9647C2.69425 12.3047 3.63265 9.8518 5.10915 7.81079ZM16.4811 -0.000244141C11.133 -0.000244141 6.39684 2.61854 3.48871 6.63854C1.79409 8.98107 0.718193 11.8016 0.502242 14.8583C0.500585 14.8818 0.499756 14.9053 0.499756 14.9288V30.0002C0.499756 31.1048 1.39519 32.0002 2.49976 32.0002H16.4811C25.327 32.0002 32.5002 24.8379 32.5002 16C32.5002 7.16212 25.327 -0.000244141 16.4811 -0.000244141ZM11.8728 11.3727C12.2633 10.9822 12.8965 10.9822 13.287 11.3727L16.4999 14.5856L19.7128 11.3727C20.1033 10.9822 20.7365 10.9822 21.127 11.3727C21.5175 11.7632 21.5175 12.3964 21.127 12.7869L17.9141 15.9998L21.127 19.2127C21.5175 19.6032 21.5175 20.2363 21.127 20.6269C20.7365 21.0174 20.1033 21.0174 19.7128 20.6269L16.4999 17.414L13.287 20.6269C12.8965 21.0174 12.2633 21.0174 11.8728 20.6269C11.4823 20.2363 11.4823 19.6032 11.8728 19.2127L15.0857 15.9998L11.8728 12.7869C11.4823 12.3964 11.4823 11.7632 11.8728 11.3727Z" fill="#111827"/>
</svg>
