<svg width="33" height="32" viewBox="0 0 33 32" fill="none" xmlns="http://www.w3.org/2000/svg">
<path fill-rule="evenodd" clip-rule="evenodd" d="M1.50073 0.388977C0.948448 0.388977 0.500732 0.836692 0.500732 1.38898V16.8792V22.9536C0.500732 23.3392 0.7225 23.6905 1.07067 23.8564C1.41884 24.0222 1.83136 23.9731 2.13083 23.7301L7.76496 19.1583H8.00046V25.8158C8.00046 26.3681 8.44818 26.8158 9.00046 26.8158H25.2348L30.8689 31.3876C31.1684 31.6306 31.5809 31.6797 31.9291 31.5138C32.2772 31.348 32.499 30.9967 32.499 30.611V24.5367V9.04647C32.499 8.49418 32.0513 8.04647 31.499 8.04647H24.9993V1.38898C24.9993 0.836692 24.5516 0.388977 23.9993 0.388977H1.50073ZM22.9993 8.93539C22.9953 8.97186 22.9932 9.00892 22.9932 9.04647C22.9932 9.08401 22.9953 9.12107 22.9993 9.15755V17.1583H9.18328C9.12401 17.1474 9.0629 17.1417 9.00046 17.1417C8.93802 17.1417 8.87691 17.1474 8.81764 17.1583H7.41028C7.18083 17.1583 6.95836 17.2372 6.78019 17.3818L2.50073 20.8543V16.8792V2.38898H22.9993V8.93539ZM10.0005 19.1583H23.9993C24.5516 19.1583 24.9993 18.7106 24.9993 18.1583V10.0465H30.499V24.5367V28.5118L26.2196 25.0393C26.0414 24.8947 25.8189 24.8158 25.5895 24.8158H10.0005V19.1583Z" fill="#111827"/>
</svg>
