<svg width="33" height="32" viewBox="0 0 33 32" fill="none" xmlns="http://www.w3.org/2000/svg">
<path fill-rule="evenodd" clip-rule="evenodd" d="M1.50092 0.000915527C0.948631 0.000915527 0.500916 0.448631 0.500916 1.00092V30.9991C0.500916 31.5514 0.948631 31.9991 1.50092 31.9991H31.4991C32.0514 31.9991 32.4991 31.5514 32.4991 30.9991V1.00092C32.4991 0.448631 32.0514 0.000915527 31.4991 0.000915527H1.50092ZM2.50092 29.9991V2.00092H30.4991V29.9991H2.50092ZM24.69 12.6327C25.0895 12.2513 25.1042 11.6184 24.7229 11.2189C24.3416 10.8194 23.7086 10.8046 23.3091 11.186L14.0001 20.0718L9.69093 15.9584C9.29143 15.5771 8.65844 15.5918 8.2771 15.9913C7.89576 16.3908 7.91047 17.0238 8.30997 17.4051L13.3096 22.1776C13.696 22.5464 14.3041 22.5464 14.6906 22.1776L24.69 12.6327Z" fill="#111827"/>
</svg>
