<svg width="33" height="32" viewBox="0 0 33 32" fill="none" xmlns="http://www.w3.org/2000/svg">
<path fill-rule="evenodd" clip-rule="evenodd" d="M1.50092 0.000915527C0.948631 0.000915527 0.500916 0.448631 0.500916 1.00092V17.2499C0.500916 17.8022 0.948631 18.2499 1.50092 18.2499C2.0532 18.2499 2.50092 17.8022 2.50092 17.2499V2.00092H30.4991V29.9991H15.2501C14.6978 29.9991 14.2501 30.4468 14.2501 30.9991C14.2501 31.5514 14.6978 31.9991 15.2501 31.9991H31.4991C32.0514 31.9991 32.4991 31.5514 32.4991 30.9991V1.00092C32.4991 0.448631 32.0514 0.000915527 31.4991 0.000915527H1.50092ZM17.2071 20.4569C17.5976 20.0663 17.5976 19.4332 17.2071 19.0426C16.8166 18.6521 16.1834 18.6521 15.7929 19.0426L6.50061 28.3349L2.20802 24.0423C1.8175 23.6518 1.18433 23.6518 0.793809 24.0423C0.403284 24.4329 0.403284 25.066 0.793809 25.4566L5.7935 30.4563C5.98104 30.6438 6.23539 30.7491 6.50061 30.7491C6.76583 30.7491 7.02018 30.6438 7.20772 30.4563L17.2071 20.4569Z" fill="#111827"/>
</svg>
