<svg width="33" height="32" viewBox="0 0 33 32" fill="none" xmlns="http://www.w3.org/2000/svg">
<path fill-rule="evenodd" clip-rule="evenodd" d="M23.2736 10.3518C23.6641 9.96124 23.6641 9.32807 23.2736 8.93755C22.8831 8.54702 22.2499 8.54702 21.8594 8.93755L15.4739 15.323C15.0834 15.7135 15.0834 16.3467 15.4739 16.7372C15.8644 17.1277 16.4976 17.1277 16.8881 16.7372L23.2736 10.3518ZM4.20749 15.2932C3.81695 14.9027 3.18379 14.9027 2.79327 15.2932C2.40276 15.6837 2.40277 16.3169 2.79331 16.7074L9.14867 23.0625C9.5392 23.453 10.1723 23.453 10.5629 23.0625L11.4381 22.1873C11.8286 21.7968 11.8286 21.1636 11.4381 20.7731C11.0476 20.3825 10.4144 20.3825 10.0239 20.7731L9.85574 20.9412L4.20749 15.2932ZM30.2067 10.3518C30.5972 9.96124 30.5972 9.32807 30.2067 8.93755C29.8162 8.54702 29.183 8.54702 28.7925 8.93755L16.7889 20.9412L11.1406 15.2932C10.7501 14.9027 10.1169 14.9027 9.7264 15.2932C9.33588 15.6837 9.3359 16.3169 9.72643 16.7074L16.0818 23.0625C16.4723 23.453 17.1055 23.453 17.496 23.0625L30.2067 10.3518Z" fill="#111827"/>
</svg>
