<svg width="33" height="32" viewBox="0 0 33 32" fill="none" xmlns="http://www.w3.org/2000/svg">
<path fill-rule="evenodd" clip-rule="evenodd" d="M2.50092 16C2.50092 8.26852 8.76852 2.00092 16.5 2.00092C24.2315 2.00092 30.4991 8.26852 30.4991 16C30.4991 23.7315 24.2315 29.9991 16.5 29.9991C8.76852 29.9991 2.50092 23.7315 2.50092 16ZM16.5 0.000915527C7.66395 0.000915527 0.500916 7.16395 0.500916 16C0.500916 24.8361 7.66395 31.9991 16.5 31.9991C25.3361 31.9991 32.4991 24.8361 32.4991 16C32.4991 7.16395 25.3361 0.000915527 16.5 0.000915527ZM24.065 12.9736C24.4645 12.5922 24.4793 11.9592 24.0979 11.5597C23.7166 11.1602 23.0836 11.1455 22.6841 11.5269L14.2084 19.6172L10.3159 15.9016C9.9164 15.5203 9.2834 15.535 8.90206 15.9345C8.52072 16.334 8.53544 16.967 8.93493 17.3483L13.5179 21.723C13.9044 22.0919 14.5125 22.0919 14.8989 21.723L24.065 12.9736Z" fill="#111827"/>
</svg>
