<svg width="33" height="32" viewBox="0 0 33 32" fill="none" xmlns="http://www.w3.org/2000/svg">
<path fill-rule="evenodd" clip-rule="evenodd" d="M16.4998 2.00085C8.76834 2.00085 2.50073 8.26846 2.50073 15.9999C2.50073 23.7314 8.76834 29.999 16.4998 29.999C24.2313 29.999 30.4989 23.7314 30.4989 15.9999C30.4989 8.26846 24.2313 2.00085 16.4998 2.00085ZM0.500732 15.9999C0.500732 7.16389 7.66377 0.000854492 16.4998 0.000854492C25.3359 0.000854492 32.4989 7.16389 32.4989 15.9999C32.4989 24.836 25.3359 31.999 16.4998 31.999C7.66377 31.999 0.500732 24.836 0.500732 15.9999ZM15.7925 8.89158C16.183 8.50105 16.8162 8.50105 17.2067 8.89158L22.5097 14.1946C22.9002 14.5851 22.9002 15.2182 22.5097 15.6088C22.1191 15.9993 21.486 15.9993 21.0955 15.6088L16.4996 11.0129L11.9037 15.6088C11.5132 15.9993 10.88 15.9993 10.4895 15.6088C10.099 15.2182 10.099 14.5851 10.4895 14.1946L15.7925 8.89158ZM17.2067 16.3911C16.8162 16.0006 16.183 16.0006 15.7925 16.3911L10.4895 21.6941C10.099 22.0846 10.099 22.7178 10.4895 23.1083C10.88 23.4988 11.5132 23.4988 11.9037 23.1083L16.4996 18.5124L21.0955 23.1083C21.486 23.4988 22.1191 23.4988 22.5097 23.1083C22.9002 22.7178 22.9002 22.0846 22.5097 21.6941L17.2067 16.3911Z" fill="#111827"/>
</svg>
