<svg width="33" height="32" viewBox="0 0 33 32" fill="none" xmlns="http://www.w3.org/2000/svg">
<path fill-rule="evenodd" clip-rule="evenodd" d="M16.4998 2.00085C8.76834 2.00085 2.50073 8.26846 2.50073 15.9999C2.50073 23.7314 8.76834 29.999 16.4998 29.999C24.2313 29.999 30.4989 23.7314 30.4989 15.9999C30.4989 8.26846 24.2313 2.00085 16.4998 2.00085ZM0.500732 15.9999C0.500732 7.16389 7.66377 0.000854492 16.4998 0.000854492C25.3359 0.000854492 32.4989 7.16389 32.4989 15.9999C32.4989 24.836 25.3359 31.999 16.4998 31.999C7.66377 31.999 0.500732 24.836 0.500732 15.9999ZM16.1085 9.98987C16.499 10.3804 16.499 11.0136 16.1085 11.4041L11.5127 16L16.1085 20.5958C16.499 20.9864 16.499 21.6195 16.1085 22.01C15.718 22.4006 15.0848 22.4006 14.6943 22.01L9.39133 16.7071C9.00081 16.3165 9.00081 15.6834 9.39133 15.2928L14.6943 9.98987C15.0848 9.59935 15.718 9.59935 16.1085 9.98987ZM23.6081 11.4041C23.9986 11.0136 23.9986 10.3804 23.6081 9.98987C23.2175 9.59935 22.5844 9.59935 22.1938 9.98987L16.8909 15.2928C16.5003 15.6834 16.5003 16.3165 16.8909 16.7071L22.1938 22.01C22.5844 22.4006 23.2175 22.4006 23.6081 22.01C23.9986 21.6195 23.9986 20.9864 23.6081 20.5958L19.0122 16L23.6081 11.4041Z" fill="#111827"/>
</svg>
