<svg width="33" height="32" viewBox="0 0 33 32" fill="none" xmlns="http://www.w3.org/2000/svg">
<path fill-rule="evenodd" clip-rule="evenodd" d="M16.4998 2.00092C8.76834 2.00092 2.50073 8.26852 2.50073 16C2.50073 23.7315 8.76834 29.9991 16.4998 29.9991C24.2313 29.9991 30.4989 23.7315 30.4989 16C30.4989 8.26852 24.2313 2.00092 16.4998 2.00092ZM0.500732 16C0.500732 7.16395 7.66377 0.000915527 16.4998 0.000915527C25.3359 0.000915527 32.4989 7.16395 32.4989 16C32.4989 24.8361 25.3359 31.9991 16.4998 31.9991C7.66377 31.9991 0.500732 24.8361 0.500732 16ZM10.4895 16.3912C10.88 16.0007 11.5132 16.0007 11.9037 16.3912L16.4996 20.987L21.0955 16.3912C21.486 16.0007 22.1191 16.0007 22.5097 16.3912C22.9002 16.7817 22.9002 17.4149 22.5097 17.8054L17.2067 23.1084C16.8162 23.4989 16.183 23.4989 15.7925 23.1084L10.4895 17.8054C10.099 17.4149 10.099 16.7817 10.4895 16.3912ZM11.9037 8.89164C11.5132 8.50111 10.88 8.50111 10.4895 8.89164C10.099 9.28216 10.099 9.91533 10.4895 10.3059L15.7925 15.6088C16.183 15.9994 16.8162 15.9994 17.2067 15.6088L22.5097 10.3059C22.9002 9.91533 22.9002 9.28216 22.5097 8.89164C22.1191 8.50111 21.486 8.50111 21.0955 8.89164L16.4996 13.4875L11.9037 8.89164Z" fill="#111827"/>
</svg>
