<svg width="33" height="32" viewBox="0 0 33 32" fill="none" xmlns="http://www.w3.org/2000/svg">
<path fill-rule="evenodd" clip-rule="evenodd" d="M16.4998 2.00092C8.76834 2.00092 2.50073 8.26852 2.50073 16C2.50073 23.7315 8.76834 29.9991 16.4998 29.9991C24.2313 29.9991 30.4989 23.7315 30.4989 16C30.4989 8.26852 24.2313 2.00092 16.4998 2.00092ZM0.500732 16C0.500732 7.16395 7.66377 0.000915527 16.4998 0.000915527C25.3359 0.000915527 32.4989 7.16395 32.4989 16C32.4989 24.8361 25.3359 31.9991 16.4998 31.9991C7.66377 31.9991 0.500732 24.8361 0.500732 16ZM16.1085 9.98993C16.499 10.3805 16.499 11.0136 16.1085 11.4041L11.5127 16L16.1085 20.5959C16.499 20.9864 16.499 21.6196 16.1085 22.0101C15.718 22.4006 15.0848 22.4006 14.6943 22.0101L9.39133 16.7071C9.00081 16.3166 9.00081 15.6834 9.39133 15.2929L14.6943 9.98993C15.0848 9.59941 15.718 9.59941 16.1085 9.98993ZM23.6081 11.4041C23.9986 11.0136 23.9986 10.3805 23.6081 9.98993C23.2175 9.59941 22.5844 9.59941 22.1938 9.98993L16.8909 15.2929C16.5003 15.6834 16.5003 16.3166 16.8909 16.7071L22.1938 22.0101C22.5844 22.4006 23.2175 22.4006 23.6081 22.0101C23.9986 21.6196 23.9986 20.9864 23.6081 20.5959L19.0122 16L23.6081 11.4041Z" fill="#111827"/>
</svg>
