<svg width="33" height="32" viewBox="0 0 33 32" fill="none" xmlns="http://www.w3.org/2000/svg">
<path fill-rule="evenodd" clip-rule="evenodd" d="M2.50073 15.9999C2.50073 8.26846 8.76834 2.00085 16.4998 2.00085C24.2313 2.00085 30.4989 8.26846 30.4989 15.9999C30.4989 23.7314 24.2313 29.999 16.4998 29.999C8.76834 29.999 2.50073 23.7314 2.50073 15.9999ZM16.4998 0.000854492C7.66377 0.000854492 0.500732 7.16389 0.500732 15.9999C0.500732 24.836 7.66377 31.999 16.4998 31.999C25.3359 31.999 32.4989 24.836 32.4989 15.9999C32.4989 7.16389 25.3359 0.000854492 16.4998 0.000854492ZM17.2069 12.168C16.8164 11.7775 16.1832 11.7775 15.7927 12.168L9.54308 18.4176C9.15256 18.8082 9.15256 19.4413 9.54308 19.8318C9.93361 20.2224 10.5668 20.2224 10.9573 19.8318L16.4998 14.2893L22.0423 19.8318C22.4328 20.2224 23.066 20.2224 23.4565 19.8318C23.8471 19.4413 23.8471 18.8082 23.4565 18.4176L17.2069 12.168Z" fill="#111827"/>
</svg>
