<svg width="33" height="32" viewBox="0 0 33 32" fill="none" xmlns="http://www.w3.org/2000/svg">
<path fill-rule="evenodd" clip-rule="evenodd" d="M25.9571 9.45821C26.3476 9.06768 26.3476 8.43452 25.9571 8.04399C25.5666 7.65347 24.9334 7.65347 24.5429 8.04399L17.2941 15.2928C16.9036 15.6833 16.9036 16.3165 17.2941 16.707L24.5429 23.9558C24.9334 24.3463 25.5666 24.3463 25.9571 23.9558C26.3476 23.5652 26.3476 22.9321 25.9571 22.5415L19.4154 15.9999L25.9571 9.45821ZM15.7059 9.45836C16.0964 9.06783 16.0964 8.43467 15.7059 8.04414C15.3154 7.65362 14.6822 7.65362 14.2917 8.04414L7.04289 15.2929C6.65237 15.6834 6.65237 16.3166 7.04289 16.7071L14.2917 23.9559C14.6822 24.3464 15.3154 24.3464 15.7059 23.9559C16.0964 23.5654 16.0964 22.9322 15.7059 22.5417L9.16421 16L15.7059 9.45836Z" fill="#111827"/>
</svg>
