<svg width="33" height="32" viewBox="0 0 33 32" fill="none" xmlns="http://www.w3.org/2000/svg">
<path fill-rule="evenodd" clip-rule="evenodd" d="M16.4998 2.00085C8.76834 2.00085 2.50073 8.26846 2.50073 15.9999C2.50073 23.7314 8.76834 29.999 16.4998 29.999C24.2313 29.999 30.4989 23.7314 30.4989 15.9999C30.4989 8.26846 24.2313 2.00085 16.4998 2.00085ZM0.500732 15.9999C0.500732 7.16389 7.66377 0.000854492 16.4998 0.000854492C25.3359 0.000854492 32.4989 7.16389 32.4989 15.9999C32.4989 24.836 25.3359 31.999 16.4998 31.999C7.66377 31.999 0.500732 24.836 0.500732 15.9999ZM10.4895 16.3911C10.88 16.0006 11.5132 16.0006 11.9037 16.3911L16.4996 20.987L21.0955 16.3911C21.486 16.0006 22.1191 16.0006 22.5097 16.3911C22.9002 16.7816 22.9002 17.4148 22.5097 17.8053L17.2067 23.1083C16.8162 23.4988 16.183 23.4988 15.7925 23.1083L10.4895 17.8053C10.099 17.4148 10.099 16.7816 10.4895 16.3911ZM11.9037 8.89158C11.5132 8.50105 10.88 8.50105 10.4895 8.89158C10.099 9.2821 10.099 9.91527 10.4895 10.3058L15.7925 15.6088C16.183 15.9993 16.8162 15.9993 17.2067 15.6088L22.5097 10.3058C22.9002 9.91527 22.9002 9.2821 22.5097 8.89158C22.1191 8.50105 21.486 8.50105 21.0955 8.89158L16.4996 13.4874L11.9037 8.89158Z" fill="#111827"/>
</svg>
