<svg width="33" height="32" viewBox="0 0 33 32" fill="none" xmlns="http://www.w3.org/2000/svg">
<path fill-rule="evenodd" clip-rule="evenodd" d="M8.45711 8.04411C8.06658 7.65359 7.43342 7.65359 7.04289 8.04411C6.65237 8.43464 6.65237 9.0678 7.04289 9.45833L13.5846 16L7.04289 22.5417C6.65237 22.9322 6.65237 23.5654 7.04289 23.9559C7.43342 24.3464 8.06658 24.3464 8.45711 23.9559L15.7059 16.7071C16.0964 16.3166 16.0964 15.6834 15.7059 15.2929L8.45711 8.04411ZM18.7083 8.04411C18.3178 7.65359 17.6846 7.65359 17.2941 8.04411C16.9036 8.43464 16.9036 9.0678 17.2941 9.45833L23.8358 16L17.2941 22.5417C16.9036 22.9322 16.9036 23.5654 17.2941 23.9559C17.6846 24.3464 18.3178 24.3464 18.7083 23.9559L25.9571 16.7071C26.3476 16.3166 26.3476 15.6834 25.9571 15.2929L18.7083 8.04411Z" fill="#111827"/>
</svg>
