<svg width="33" height="32" viewBox="0 0 33 32" fill="none" xmlns="http://www.w3.org/2000/svg">
<path fill-rule="evenodd" clip-rule="evenodd" d="M2.50073 16C2.50073 8.26852 8.76834 2.00092 16.4998 2.00092C24.2313 2.00092 30.4989 8.26852 30.4989 16C30.4989 23.7315 24.2313 29.9991 16.4998 29.9991C8.76834 29.9991 2.50073 23.7315 2.50073 16ZM16.4998 0.000915527C7.66377 0.000915527 0.500732 7.16395 0.500732 16C0.500732 24.8361 7.66377 31.9991 16.4998 31.9991C25.3359 31.9991 32.4989 24.8361 32.4989 16C32.4989 7.16395 25.3359 0.000915527 16.4998 0.000915527ZM19.0817 10.4575C19.4722 10.067 19.4722 9.43379 19.0817 9.04327C18.6912 8.65274 18.058 8.65274 17.6675 9.04327L11.4178 15.2929C11.0273 15.6834 11.0273 16.3166 11.4178 16.7071L17.6675 22.9567C18.058 23.3472 18.6912 23.3472 19.0817 22.9567C19.4722 22.5662 19.4722 21.933 19.0817 21.5425L13.5392 16L19.0817 10.4575Z" fill="#111827"/>
</svg>
