<svg width="33" height="32" viewBox="0 0 33 32" fill="none" xmlns="http://www.w3.org/2000/svg">
<path fill-rule="evenodd" clip-rule="evenodd" d="M16.4998 2.00092C8.76834 2.00092 2.50073 8.26852 2.50073 16C2.50073 23.7315 8.76834 29.9991 16.4998 29.9991C24.2313 29.9991 30.4989 23.7315 30.4989 16C30.4989 8.26852 24.2313 2.00092 16.4998 2.00092ZM0.500732 16C0.500732 7.16395 7.66377 0.000915527 16.4998 0.000915527C25.3359 0.000915527 32.4989 7.16395 32.4989 16C32.4989 24.8361 25.3359 31.9991 16.4998 31.9991C7.66377 31.9991 0.500732 24.8361 0.500732 16ZM15.7925 8.89164C16.183 8.50111 16.8162 8.50111 17.2067 8.89164L22.5097 14.1946C22.9002 14.5851 22.9002 15.2183 22.5097 15.6088C22.1191 15.9994 21.486 15.9994 21.0955 15.6088L16.4996 11.013L11.9037 15.6088C11.5132 15.9994 10.88 15.9994 10.4895 15.6088C10.099 15.2183 10.099 14.5851 10.4895 14.1946L15.7925 8.89164ZM17.2067 16.3912C16.8162 16.0007 16.183 16.0007 15.7925 16.3912L10.4895 21.6942C10.099 22.0847 10.099 22.7178 10.4895 23.1084C10.88 23.4989 11.5132 23.4989 11.9037 23.1084L16.4996 18.5125L21.0955 23.1084C21.486 23.4989 22.1191 23.4989 22.5097 23.1084C22.9002 22.7178 22.9002 22.0847 22.5097 21.6942L17.2067 16.3912Z" fill="#111827"/>
</svg>
