<svg width="33" height="32" viewBox="0 0 33 32" fill="none" xmlns="http://www.w3.org/2000/svg">
<path fill-rule="evenodd" clip-rule="evenodd" d="M17.2073 8.29289C16.8167 7.90237 16.1836 7.90237 15.7931 8.29289L9.99407 14.0919C9.60354 14.4824 9.60354 15.1156 9.99407 15.5061C10.3846 15.8966 11.0178 15.8966 11.4083 15.5061L16.5002 10.4142L21.592 15.5061C21.9826 15.8966 22.6157 15.8966 23.0063 15.5061C23.3968 15.1156 23.3968 14.4824 23.0063 14.0919L17.2073 8.29289ZM23.0063 22.2928L17.2073 16.4938C16.8167 16.1033 16.1836 16.1033 15.7931 16.4938L9.99407 22.2928C9.60354 22.6833 9.60354 23.3165 9.99407 23.707C10.3846 24.0975 11.0178 24.0975 11.4083 23.707L16.5002 18.6151L21.592 23.707C21.9826 24.0975 22.6157 24.0975 23.0063 23.707C23.3968 23.3165 23.3968 22.6833 23.0063 22.2928Z" fill="#111827"/>
</svg>
