<svg width="33" height="32" viewBox="0 0 33 32" fill="none" xmlns="http://www.w3.org/2000/svg">
<path fill-rule="evenodd" clip-rule="evenodd" d="M16.4998 2.00092C8.76834 2.00092 2.50073 8.26852 2.50073 16C2.50073 23.7315 8.76834 29.9991 16.4998 29.9991C24.2313 29.9991 30.4989 23.7315 30.4989 16C30.4989 8.26852 24.2313 2.00092 16.4998 2.00092ZM0.500732 16C0.500732 7.16395 7.66377 0.000915527 16.4998 0.000915527C25.3359 0.000915527 32.4989 7.16395 32.4989 16C32.4989 24.8361 25.3359 31.9991 16.4998 31.9991C7.66377 31.9991 0.500732 24.8361 0.500732 16ZM9.39133 9.98993C9.78186 9.59941 10.415 9.59941 10.8055 9.98993L16.1085 15.2929C16.499 15.6834 16.499 16.3166 16.1085 16.7071L10.8055 22.0101C10.415 22.4006 9.78186 22.4006 9.39133 22.0101C9.00081 21.6196 9.00081 20.9864 9.39133 20.5959L13.9872 16L9.39133 11.4041C9.00081 11.0136 9.00081 10.3805 9.39133 9.98993ZM18.3051 9.98993C17.9146 9.59941 17.2814 9.59941 16.8909 9.98993C16.5003 10.3805 16.5003 11.0136 16.8909 11.4041L21.4867 16L16.8909 20.5959C16.5003 20.9864 16.5003 21.6196 16.8909 22.0101C17.2814 22.4006 17.9146 22.4006 18.3051 22.0101L23.6081 16.7071C23.9986 16.3166 23.9986 15.6834 23.6081 15.2929L18.3051 9.98993Z" fill="#111827"/>
</svg>
