<svg width="33" height="32" viewBox="0 0 33 32" fill="none" xmlns="http://www.w3.org/2000/svg">
<path fill-rule="evenodd" clip-rule="evenodd" d="M2.50073 15.9999C2.50073 8.26846 8.76834 2.00085 16.4998 2.00085C24.2313 2.00085 30.4989 8.26846 30.4989 15.9999C30.4989 23.7314 24.2313 29.999 16.4998 29.999C8.76834 29.999 2.50073 23.7314 2.50073 15.9999ZM16.4998 0.000854492C7.66377 0.000854492 0.500732 7.16389 0.500732 15.9999C0.500732 24.836 7.66377 31.999 16.4998 31.999C25.3359 31.999 32.4989 24.836 32.4989 15.9999C32.4989 7.16389 25.3359 0.000854492 16.4998 0.000854492ZM10.9573 13.4179C10.5668 13.0274 9.93361 13.0274 9.54308 13.4179C9.15256 13.8085 9.15256 14.4416 9.54308 14.8321L15.7927 21.0818C16.1832 21.4723 16.8164 21.4723 17.2069 21.0818L23.4565 14.8321C23.8471 14.4416 23.8471 13.8085 23.4565 13.4179C23.066 13.0274 22.4328 13.0274 22.0423 13.4179L16.4998 18.9604L10.9573 13.4179Z" fill="#111827"/>
</svg>
