<svg width="33" height="32" viewBox="0 0 33 32" fill="none" xmlns="http://www.w3.org/2000/svg">
<path fill-rule="evenodd" clip-rule="evenodd" d="M11.4083 8.29289C11.0178 7.90237 10.3846 7.90237 9.99407 8.29289C9.60354 8.68342 9.60354 9.31658 9.99407 9.70711L15.793 15.5061C16.1836 15.8966 16.8167 15.8966 17.2073 15.5061L23.0062 9.70711C23.3968 9.31658 23.3968 8.68342 23.0062 8.29289C22.6157 7.90237 21.9825 7.90237 21.592 8.29289L16.5001 13.3848L11.4083 8.29289ZM11.4083 16.4939C11.0178 16.1034 10.3846 16.1034 9.99407 16.4939C9.60354 16.8845 9.60354 17.5176 9.99407 17.9082L15.793 23.7071C16.1836 24.0977 16.8167 24.0977 17.2073 23.7071L23.0062 17.9082C23.3968 17.5176 23.3968 16.8845 23.0062 16.4939C22.6157 16.1034 21.9825 16.1034 21.592 16.4939L16.5001 21.5858L11.4083 16.4939Z" fill="#111827"/>
</svg>
