<svg width="33" height="32" viewBox="0 0 33 32" fill="none" xmlns="http://www.w3.org/2000/svg">
<path fill-rule="evenodd" clip-rule="evenodd" d="M11.1224 13.5598C10.7319 13.9504 10.0987 13.9504 9.70818 13.5598C9.31765 13.1693 9.31765 12.5361 9.70818 12.1456L15.7917 6.06206C16.1823 5.67153 16.8154 5.67153 17.2059 6.06206L23.2895 12.1456C23.68 12.5361 23.68 13.1693 23.2895 13.5598C22.899 13.9504 22.2658 13.9504 21.8753 13.5598L16.4988 8.18338L11.1224 13.5598ZM11.1224 18.44C10.7319 18.0495 10.0987 18.0495 9.70818 18.44C9.31765 18.8306 9.31765 19.4637 9.70818 19.8543L15.7917 25.9378C16.1823 26.3283 16.8154 26.3283 17.2059 25.9378L23.2895 19.8543C23.68 19.4637 23.68 18.8306 23.2895 18.44C22.899 18.0495 22.2658 18.0495 21.8753 18.44L16.4988 23.8165L11.1224 18.44Z" fill="#111827"/>
</svg>
