<svg width="33" height="32" viewBox="0 0 33 32" fill="none" xmlns="http://www.w3.org/2000/svg">
<path fill-rule="evenodd" clip-rule="evenodd" d="M9.95833 6.54289C9.5678 6.15237 8.93464 6.15237 8.54411 6.54289C8.15359 6.93342 8.15359 7.56658 8.54411 7.95711L15.7928 15.2058C16.1833 15.5963 16.8165 15.5963 17.207 15.2058L24.4557 7.95711C24.8463 7.56658 24.8463 6.93342 24.4557 6.54289C24.0652 6.15237 23.4321 6.15237 23.0415 6.54289L16.4999 13.0845L9.95833 6.54289ZM9.95833 16.7942C9.5678 16.4037 8.93464 16.4037 8.54411 16.7942C8.15359 17.1847 8.15359 17.8179 8.54411 18.2084L15.7928 25.4571C16.1833 25.8476 16.8165 25.8476 17.207 25.4571L24.4557 18.2084C24.8463 17.8179 24.8463 17.1847 24.4557 16.7942C24.0652 16.4037 23.4321 16.4037 23.0415 16.7942L16.4999 23.3358L9.95833 16.7942Z" fill="#111827"/>
</svg>
