<svg width="33" height="32" viewBox="0 0 33 32" fill="none" xmlns="http://www.w3.org/2000/svg">
<path fill-rule="evenodd" clip-rule="evenodd" d="M10.2071 9.49394C9.81658 9.10342 9.18342 9.10342 8.79289 9.49394C8.40237 9.88447 8.40237 10.5176 8.79289 10.9082L13.8848 16L8.79289 21.0919C8.40237 21.4824 8.40237 22.1156 8.79289 22.5061C9.18342 22.8967 9.81658 22.8967 10.2071 22.5061L16.0061 16.7071C16.3966 16.3166 16.3966 15.6835 16.0061 15.2929L10.2071 9.49394ZM18.408 9.49394C18.0175 9.10342 17.3843 9.10342 16.9938 9.49394C16.6033 9.88447 16.6033 10.5176 16.9938 10.9082L22.0857 16L16.9938 21.0919C16.6033 21.4824 16.6033 22.1156 16.9938 22.5061C17.3843 22.8967 18.0175 22.8967 18.408 22.5061L24.207 16.7071C24.5975 16.3166 24.5975 15.6835 24.207 15.2929L18.408 9.49394Z" fill="#111827"/>
</svg>
