<svg width="33" height="32" viewBox="0 0 33 32" fill="none" xmlns="http://www.w3.org/2000/svg">
<path fill-rule="evenodd" clip-rule="evenodd" d="M2.50073 15.9999C2.50073 8.26846 8.76834 2.00085 16.4998 2.00085C24.2313 2.00085 30.4989 8.26846 30.4989 15.9999C30.4989 23.7314 24.2313 29.999 16.4998 29.999C8.76834 29.999 2.50073 23.7314 2.50073 15.9999ZM16.4998 0.000854492C7.66377 0.000854492 0.500732 7.16389 0.500732 15.9999C0.500732 24.836 7.66377 31.999 16.4998 31.999C25.3359 31.999 32.4989 24.836 32.4989 15.9999C32.4989 7.16389 25.3359 0.000854492 16.4998 0.000854492ZM15.3321 9.04321C14.9416 8.65268 14.3085 8.65268 13.9179 9.04321C13.5274 9.43373 13.5274 10.0669 13.9179 10.4574L19.4604 15.9999L13.9179 21.5424C13.5274 21.933 13.5274 22.5661 13.9179 22.9567C14.3085 23.3472 14.9416 23.3472 15.3321 22.9567L21.5818 16.707C21.9723 16.3165 21.9723 15.6833 21.5818 15.2928L15.3321 9.04321Z" fill="#111827"/>
</svg>
