<svg width="32" height="32" viewBox="0 0 32 32" fill="none" xmlns="http://www.w3.org/2000/svg">
<path d="M16.0001 22.0689C16.7618 22.0689 17.3793 21.4514 17.3793 20.6897C17.3793 19.928 16.7618 19.3105 16.0001 19.3105C15.2384 19.3105 14.621 19.928 14.621 20.6897C14.621 21.4514 15.2384 22.0689 16.0001 22.0689Z" fill="#1C1B1F"/>
<path d="M15.9293 4.04736L12.5343 6.68773H7.11195V11.6858L4 15.8351L7.11195 19.4658V24.5581H12.5343L15.9293 27.953L19.1355 24.5581H25.0295V19.4658L28 15.8351L25.0295 11.6858V6.68773H19.1355L15.9293 4.04736Z" stroke="#1C1B1F" stroke-width="2" stroke-linecap="round" stroke-linejoin="round"/>
<path d="M12.9172 13.0143C12.9172 11.3118 14.2974 9.93164 15.9999 9.93164C17.7024 9.93164 19.0825 11.3118 19.0825 13.0143C19.0825 14.7168 17.7024 16.0969 15.9999 16.0969V17.5367" stroke="#1C1B1F" stroke-width="2" stroke-linecap="round" stroke-linejoin="round"/>
</svg>
