<svg width="33" height="32" viewBox="0 0 33 32" fill="none" xmlns="http://www.w3.org/2000/svg">
<path fill-rule="evenodd" clip-rule="evenodd" d="M2.50073 7.13687C2.50073 4.30033 4.8002 2.00085 7.63674 2.00085C10.4733 2.00085 12.7728 4.30033 12.7728 7.13687C12.7728 9.97341 10.4733 12.2729 7.63674 12.2729C4.8002 12.2729 2.50073 9.97341 2.50073 7.13687ZM7.63674 0.000854492C3.69563 0.000854492 0.500732 3.19576 0.500732 7.13687C0.500732 11.078 3.69563 14.2729 7.63674 14.2729C11.5779 14.2729 14.7728 11.078 14.7728 7.13687C14.7728 3.19576 11.5779 0.000854492 7.63674 0.000854492ZM20.2269 7.13687C20.2269 4.30033 22.5264 2.00085 25.3629 2.00085C28.1995 2.00085 30.499 4.30033 30.499 7.13687C30.499 9.97341 28.1995 12.2729 25.3629 12.2729C22.5264 12.2729 20.2269 9.97341 20.2269 7.13687ZM25.3629 0.000854492C21.4218 0.000854492 18.2269 3.19576 18.2269 7.13687C18.2269 11.078 21.4218 14.2729 25.3629 14.2729C29.3041 14.2729 32.499 11.078 32.499 7.13687C32.499 3.19576 29.3041 0.000854492 25.3629 0.000854492ZM7.63674 19.7271C4.8002 19.7271 2.50073 22.0265 2.50073 24.8631C2.50073 27.6996 4.8002 29.9991 7.63674 29.9991C10.4733 29.9991 12.7728 27.6996 12.7728 24.8631C12.7728 22.0265 10.4733 19.7271 7.63674 19.7271ZM0.500732 24.8631C0.500732 20.922 3.69563 17.7271 7.63674 17.7271C11.5779 17.7271 14.7728 20.922 14.7728 24.8631C14.7728 28.8042 11.5779 31.9991 7.63674 31.9991C3.69563 31.9991 0.500732 28.8042 0.500732 24.8631ZM20.2269 24.8631C20.2269 22.0265 22.5264 19.7271 25.3629 19.7271C28.1995 19.7271 30.499 22.0265 30.499 24.8631C30.499 27.6996 28.1995 29.9991 25.3629 29.9991C22.5264 29.9991 20.2269 27.6996 20.2269 24.8631ZM25.3629 17.7271C21.4218 17.7271 18.2269 20.922 18.2269 24.8631C18.2269 28.8042 21.4218 31.9991 25.3629 31.9991C29.3041 31.9991 32.499 28.8042 32.499 24.8631C32.499 20.922 29.3041 17.7271 25.3629 17.7271Z" fill="#111827"/>
</svg>
