<svg width="33" height="32" viewBox="0 0 33 32" fill="none" xmlns="http://www.w3.org/2000/svg">
<path fill-rule="evenodd" clip-rule="evenodd" d="M17.0473 0.287875C16.6861 -0.00954964 16.167 -0.016791 15.7976 0.270443L11.825 3.36007H5.39055C4.83827 3.36007 4.39055 3.80778 4.39055 4.36007V10.2739L0.700852 15.1936C0.419639 15.5685 0.436576 16.0885 0.741595 16.4444L4.39055 20.7015V26.6967C4.39055 27.249 4.83827 27.6967 5.39055 27.6967H11.7539L15.7045 31.6471C15.8955 31.8382 16.1557 31.9438 16.4258 31.9399C16.696 31.9361 16.9531 31.8231 17.1386 31.6267L20.8502 27.6967H27.7861C28.3384 27.6967 28.7861 27.249 28.7861 26.6967V20.6886L32.273 16.4268C32.5591 16.0771 32.5752 15.5789 32.3121 15.2115L28.7861 10.2862V4.36007C28.7861 3.80778 28.3384 3.36007 27.7861 3.36007H20.7779L17.0473 0.287875ZM12.782 5.14944L16.3937 2.34054L19.7834 5.13201C19.9625 5.27945 20.1872 5.36007 20.4191 5.36007H26.7861V10.6073C26.7861 10.816 26.8514 11.0196 26.973 11.1894L30.2401 15.753L27.0121 19.6984C26.8659 19.877 26.7861 20.1008 26.7861 20.3316V25.6967H20.4191C20.144 25.6967 19.881 25.81 19.6921 26.01L16.3911 29.5053L12.8752 25.9896C12.6877 25.802 12.4333 25.6967 12.1681 25.6967H6.39055V20.3316C6.39055 20.0929 6.30516 19.8621 6.14981 19.6808L2.78215 15.7518L6.19055 11.2072C6.32037 11.0342 6.39055 10.8236 6.39055 10.6073V5.36007H12.1681C12.3905 5.36007 12.6065 5.28595 12.782 5.14944ZM21.7445 13.632C22.135 13.2415 22.135 12.6083 21.7445 12.2178C21.354 11.8273 20.7208 11.8273 20.3303 12.2178L14.8882 17.6599L12.6696 15.4412C12.279 15.0507 11.6459 15.0507 11.2553 15.4412C10.8648 15.8317 10.8648 16.4649 11.2553 16.8554L14.1811 19.7812C14.5716 20.1717 15.2048 20.1717 15.5953 19.7812L21.7445 13.632Z" fill="#111827"/>
</svg>
