<svg width="32" height="32" viewBox="0 0 32 32" fill="none" xmlns="http://www.w3.org/2000/svg">
<path d="M8.90909 13.8182C11.6203 13.8182 13.8182 11.6203 13.8182 8.90909C13.8182 6.19787 11.6203 4 8.90909 4C6.19787 4 4 6.19787 4 8.90909C4 11.6203 6.19787 13.8182 8.90909 13.8182Z" stroke="#1C1B1F" stroke-width="2" stroke-linecap="round" stroke-linejoin="round"/>
<path d="M23.091 13.8182C25.8022 13.8182 28.0001 11.6203 28.0001 8.90909C28.0001 6.19787 25.8022 4 23.091 4C20.3798 4 18.1819 6.19787 18.1819 8.90909C18.1819 11.6203 20.3798 13.8182 23.091 13.8182Z" stroke="#1C1B1F" stroke-width="2" stroke-linecap="round" stroke-linejoin="round"/>
<path d="M8.90909 27.9999C11.6203 27.9999 13.8182 25.8021 13.8182 23.0909C13.8182 20.3796 11.6203 18.1818 8.90909 18.1818C6.19787 18.1818 4 20.3796 4 23.0909C4 25.8021 6.19787 27.9999 8.90909 27.9999Z" stroke="#1C1B1F" stroke-width="2" stroke-linecap="round" stroke-linejoin="round"/>
<path d="M23.0908 19.2727V26.9091" stroke="#1C1B1F" stroke-width="2" stroke-linecap="round" stroke-linejoin="round"/>
<path d="M26.9091 23.0909H19.2727" stroke="#1C1B1F" stroke-width="2" stroke-linecap="round" stroke-linejoin="round"/>
</svg>
