<svg width="33" height="32" viewBox="0 0 33 32" fill="none" xmlns="http://www.w3.org/2000/svg">
<path fill-rule="evenodd" clip-rule="evenodd" d="M15.7976 0.270443C16.167 -0.016791 16.6861 -0.00954964 17.0473 0.287875L20.7779 3.36007H27.7861C28.3384 3.36007 28.7861 3.80778 28.7861 4.36007V10.2862L32.3121 15.2115C32.5752 15.5789 32.5591 16.0771 32.273 16.4268L28.7861 20.6886V26.6967C28.7861 27.249 28.3384 27.6967 27.7861 27.6967H20.8502L17.1386 31.6267C16.9531 31.8231 16.696 31.9361 16.4258 31.9399C16.1557 31.9438 15.8955 31.8382 15.7045 31.6471L11.7539 27.6967H5.39055C4.83827 27.6967 4.39055 27.249 4.39055 26.6967V20.7015L0.741595 16.4444C0.436576 16.0885 0.419639 15.5685 0.700852 15.1936L4.39055 10.2739V4.36007C4.39055 3.80778 4.83827 3.36007 5.39055 3.36007H11.825L15.7976 0.270443ZM16.3937 2.34054L12.782 5.14944C12.6065 5.28595 12.3905 5.36007 12.1681 5.36007H6.39055V10.6073C6.39055 10.8236 6.32037 11.0342 6.19055 11.2072L2.78215 15.7518L6.14981 19.6808C6.30516 19.8621 6.39055 20.0929 6.39055 20.3316V25.6967H12.1681C12.4333 25.6967 12.6877 25.802 12.8752 25.9896L16.3911 29.5053L19.6921 26.01C19.881 25.81 20.144 25.6967 20.4191 25.6967H26.7861V20.3316C26.7861 20.1008 26.8659 19.877 27.0121 19.6984L30.2401 15.753L26.973 11.1894C26.8514 11.0196 26.7861 10.816 26.7861 10.6073V5.36007H20.4191C20.1872 5.36007 19.9625 5.27945 19.7834 5.13201L16.3937 2.34054ZM16.5001 23.5853C17.4522 23.5853 18.224 22.8135 18.224 21.8614C18.224 20.9094 17.4522 20.1376 16.5001 20.1376C15.5481 20.1376 14.7763 20.9094 14.7763 21.8614C14.7763 22.8135 15.5481 23.5853 16.5001 23.5853ZM13.6468 12.2678C13.6468 10.692 14.9242 9.41469 16.4999 9.41469C18.0756 9.41469 19.3529 10.692 19.3529 12.2678C19.3529 13.8435 18.0756 15.1208 16.4999 15.1208C15.9476 15.1208 15.4999 15.5685 15.4999 16.1208V17.9204C15.4999 18.4727 15.9476 18.9204 16.4999 18.9204C17.0521 18.9204 17.4999 18.4727 17.4999 17.9204V17.0177C19.7004 16.5567 21.3529 14.6052 21.3529 12.2678C21.3529 9.58748 19.1801 7.41468 16.4999 7.41468C13.8196 7.41468 11.6468 9.58748 11.6468 12.2678C11.6468 12.82 12.0945 13.2678 12.6468 13.2678C13.1991 13.2678 13.6468 12.82 13.6468 12.2678Z" fill="#111827"/>
</svg>
