<svg width="33" height="32" viewBox="0 0 33 32" fill="none" xmlns="http://www.w3.org/2000/svg">
<path fill-rule="evenodd" clip-rule="evenodd" d="M2.50073 15.9999C2.50073 8.26846 8.76834 2.00085 16.4998 2.00085C20.0056 2.00085 23.2105 3.28956 25.6664 5.4191L17.9805 13.105L5.91898 25.1665C3.78944 22.7106 2.50073 19.5058 2.50073 15.9999ZM15.7271 18.1868L18.6876 15.2263L27.7686 24.3074C26.9354 25.4358 25.9367 26.4346 24.8083 27.268L15.7271 18.1868ZM14.3129 19.601L11.3524 22.5615L18.629 29.8381C20.2138 29.5963 21.7112 29.0887 23.0742 28.3623L14.3129 19.601ZM7.33319 26.5807L9.9382 23.9757L15.9509 29.9885C12.66 29.8616 9.66038 28.5986 7.33319 26.5807ZM25.1924 29.4339C22.6896 31.0567 19.7048 31.999 16.4998 31.999C12.0903 31.999 8.09741 30.2151 5.20348 27.3297L5.18656 27.3132L5.17003 27.2962C2.2846 24.4023 0.500732 20.4095 0.500732 15.9999C0.500732 7.16389 7.66377 0.000854492 16.4998 0.000854492C25.3359 0.000854492 32.4989 7.16389 32.4989 15.9999C32.4989 19.2051 31.5564 22.1902 29.9334 24.6931C29.9158 24.7235 29.8964 24.7531 29.8753 24.7819C28.6744 26.6073 27.1099 28.1722 25.2848 29.3735C25.2549 29.3955 25.224 29.4156 25.1924 29.4339ZM20.1018 13.8121L28.8629 22.5732C29.589 21.2102 30.0964 19.7129 30.3381 18.1283L23.0619 10.852L20.1018 13.8121ZM24.4761 9.43783L30.4883 15.45C30.3612 12.1595 29.0983 9.16026 27.0806 6.83331L24.4761 9.43783Z" fill="#111827"/>
</svg>
