<svg width="33" height="32" viewBox="0 0 33 32" fill="none" xmlns="http://www.w3.org/2000/svg">
<path fill-rule="evenodd" clip-rule="evenodd" d="M17.4998 3.08734V2.03602C24.7646 2.54876 30.4989 8.60469 30.4989 15.9999L30.4986 16.0862L17.4998 3.08734ZM15.4998 3.50225V12.2504V12.2518V20.9999C15.4998 21.0004 15.4998 21.0008 15.4998 21.0013V29.9639C8.23504 29.4511 2.50073 23.3952 2.50073 15.9999C2.50073 8.6047 8.23504 2.54877 15.4998 2.03602V3.50086V3.50225ZM17.4998 23.4148V29.9639C19.3408 29.8339 21.0835 29.348 22.6595 28.5745L17.4998 23.4148ZM24.4426 27.5292C25.5987 26.7312 26.6289 25.7638 27.4973 24.6628L17.4998 14.6653V20.5864L24.4426 27.5292ZM17.4998 11.8369L28.6394 22.9765C29.3984 21.6586 29.949 20.2054 30.2461 18.6621L17.4998 5.91577V11.8369ZM32.4989 15.9999C32.4989 24.836 25.3359 31.999 16.4998 31.999C7.66377 31.999 0.500732 24.836 0.500732 15.9999C0.500732 7.16389 7.66377 0.000854492 16.4998 0.000854492C25.3359 0.000854492 32.4989 7.16389 32.4989 15.9999Z" fill="#111827"/>
</svg>
