<svg width="33" height="32" viewBox="0 0 33 32" fill="none" xmlns="http://www.w3.org/2000/svg">
<path fill-rule="evenodd" clip-rule="evenodd" d="M7.63674 2.00085C4.8002 2.00085 2.50073 4.30033 2.50073 7.13687C2.50073 9.97341 4.8002 12.2729 7.63674 12.2729C10.4733 12.2729 12.7728 9.97341 12.7728 7.13687C12.7728 4.30033 10.4733 2.00085 7.63674 2.00085ZM0.500732 7.13687C0.500732 3.19576 3.69563 0.000854492 7.63674 0.000854492C11.5779 0.000854492 14.7728 3.19576 14.7728 7.13687C14.7728 11.078 11.5779 14.2729 7.63674 14.2729C3.69563 14.2729 0.500732 11.078 0.500732 7.13687ZM25.3629 2.00085C22.5264 2.00085 20.2269 4.30033 20.2269 7.13687C20.2269 9.97341 22.5264 12.2729 25.3629 12.2729C28.1995 12.2729 30.499 9.97341 30.499 7.13687C30.499 4.30033 28.1995 2.00085 25.3629 2.00085ZM18.2269 7.13687C18.2269 3.19576 21.4218 0.000854492 25.3629 0.000854492C29.3041 0.000854492 32.499 3.19576 32.499 7.13687C32.499 11.078 29.3041 14.2729 25.3629 14.2729C21.4218 14.2729 18.2269 11.078 18.2269 7.13687ZM2.50073 24.8631C2.50073 22.0265 4.8002 19.7271 7.63674 19.7271C10.4733 19.7271 12.7728 22.0265 12.7728 24.8631C12.7728 27.6996 10.4733 29.9991 7.63674 29.9991C4.8002 29.9991 2.50073 27.6996 2.50073 24.8631ZM7.63674 17.7271C3.69563 17.7271 0.500732 20.922 0.500732 24.8631C0.500732 28.8042 3.69563 31.9991 7.63674 31.9991C11.5779 31.9991 14.7728 28.8042 14.7728 24.8631C14.7728 20.922 11.5779 17.7271 7.63674 17.7271ZM25.3627 19.0906C25.915 19.0906 26.3627 19.5383 26.3627 20.0906V23.8632H30.1354C30.6877 23.8632 31.1354 24.3109 31.1354 24.8632C31.1354 25.4155 30.6877 25.8632 30.1354 25.8632H26.3627V29.6355C26.3627 30.1878 25.915 30.6355 25.3627 30.6355C24.8104 30.6355 24.3627 30.1878 24.3627 29.6355V25.8632H20.5905C20.0382 25.8632 19.5905 25.4155 19.5905 24.8632C19.5905 24.3109 20.0382 23.8632 20.5905 23.8632H24.3627V20.0906C24.3627 19.5383 24.8104 19.0906 25.3627 19.0906Z" fill="#111827"/>
</svg>
