<svg width="33" height="32" viewBox="0 0 33 32" fill="none" xmlns="http://www.w3.org/2000/svg">
<path fill-rule="evenodd" clip-rule="evenodd" d="M17.0473 0.287875C16.6861 -0.00954964 16.167 -0.016791 15.7976 0.270443L11.825 3.36007H5.39055C4.83827 3.36007 4.39055 3.80778 4.39055 4.36007V10.2739L0.700852 15.1936C0.419639 15.5685 0.436576 16.0885 0.741595 16.4444L4.39055 20.7015V26.6967C4.39055 27.249 4.83827 27.6967 5.39055 27.6967H11.7539L15.7045 31.6471C15.8955 31.8382 16.1557 31.9438 16.4258 31.9399C16.696 31.9361 16.9531 31.8231 17.1386 31.6267L20.8502 27.6967H27.7861C28.3384 27.6967 28.7861 27.249 28.7861 26.6967V20.6886L32.273 16.4268C32.5591 16.0771 32.5752 15.5789 32.3121 15.2115L28.7861 10.2862V4.36007C28.7861 3.80778 28.3384 3.36007 27.7861 3.36007H20.7779L17.0473 0.287875ZM12.782 5.14944L16.3937 2.34054L19.7834 5.13201C19.9625 5.27945 20.1872 5.36007 20.4191 5.36007H26.7861V10.6073C26.7861 10.816 26.8514 11.0196 26.973 11.1894L30.2401 15.753L27.0121 19.6984C26.8659 19.877 26.7861 20.1008 26.7861 20.3316V25.6967H20.4191C20.144 25.6967 19.881 25.81 19.6921 26.01L16.3911 29.5053L12.8752 25.9896C12.6877 25.802 12.4333 25.6967 12.1681 25.6967H6.39055V20.3316C6.39055 20.0929 6.30516 19.8621 6.14981 19.6808L2.78215 15.7518L6.19055 11.2072C6.32037 11.0342 6.39055 10.8236 6.39055 10.6073V5.36007H12.1681C12.3905 5.36007 12.6065 5.28595 12.782 5.14944ZM16.5 8.28804C17.0523 8.28804 17.5 8.73576 17.5 9.28804V17.1888C17.5 17.7411 17.0523 18.1888 16.5 18.1888C15.9478 18.1888 15.5 17.7411 15.5 17.1888V9.28804C15.5 8.73576 15.9478 8.28804 16.5 8.28804ZM16.5 23.9608C17.435 23.9608 18.193 23.2028 18.193 22.2678C18.193 21.3327 17.435 20.5747 16.5 20.5747C15.565 20.5747 14.807 21.3327 14.807 22.2678C14.807 23.2028 15.565 23.9608 16.5 23.9608Z" fill="#111827"/>
</svg>
