<svg width="32" height="32" viewBox="0 0 32 32" fill="none" xmlns="http://www.w3.org/2000/svg">
<path d="M16 14.56C18.6509 14.56 20.8 12.4109 20.8 9.75996C20.8 7.10899 18.6509 4.95996 16 4.95996C13.349 4.95996 11.2 7.10899 11.2 9.75996C11.2 12.4109 13.349 14.56 16 14.56Z" stroke="#1C1B1F" stroke-width="2" stroke-linecap="round" stroke-linejoin="round"/>
<path d="M23.1999 27.0399C25.8509 27.0399 27.9999 24.8909 27.9999 22.2399C27.9999 19.589 25.8509 17.4399 23.1999 17.4399C20.5489 17.4399 18.3999 19.589 18.3999 22.2399C18.3999 24.8909 20.5489 27.0399 23.1999 27.0399Z" stroke="#1C1B1F" stroke-width="2" stroke-linecap="round" stroke-linejoin="round"/>
<path d="M8.8 27.0399C11.451 27.0399 13.6 24.8909 13.6 22.2399C13.6 19.589 11.451 17.4399 8.8 17.4399C6.14903 17.4399 4 19.589 4 22.2399C4 24.8909 6.14903 27.0399 8.8 27.0399Z" stroke="#1C1B1F" stroke-width="2" stroke-linecap="round" stroke-linejoin="round"/>
</svg>
