<svg width="33" height="32" viewBox="0 0 33 32" fill="none" xmlns="http://www.w3.org/2000/svg">
<g clip-path="url(#clip0_304_205)">
<path fill-rule="evenodd" clip-rule="evenodd" d="M0.501709 1.66333H1.50171H4.88666H5.88666V2.66333V29.3368V30.3368H4.88666H1.50171H0.501709V29.3368V2.66333V1.66333ZM2.50171 3.66333V28.3368H3.88666V3.66333H2.50171ZM7.23313 1.66333H8.23313H11.6181H12.6181V2.66333V29.3368V30.3368H11.6181H8.23313H7.23313V29.3368V2.66333V1.66333ZM9.23313 3.66333V28.3368H10.6181V3.66333H9.23313ZM14.8367 1.66333H13.8367V2.66333V29.3368V30.3368H14.8367H18.2216H19.2216V29.3368V2.66333V1.66333H18.2216H14.8367ZM15.8367 28.3368V3.66333H17.2216V28.3368H15.8367ZM20.4402 1.66333H21.4402H24.8251H25.8251V2.66333V29.3368V30.3368H24.8251H21.4402H20.4402V29.3368V2.66333V1.66333ZM22.4402 3.66333V28.3368H23.8251V3.66333H22.4402ZM28.1134 12.5428H27.1134V13.5428V18.5167V19.5167H28.1134H31.4984H32.4984V18.5167V13.5428V12.5428H31.4984H28.1134ZM29.1134 17.5167V14.5428H30.4984V17.5167H29.1134Z" fill="#111827"/>
</g>
<defs>
<clipPath id="clip0_304_205">
<rect width="32" height="32" fill="white" transform="translate(0.5)"/>
</clipPath>
</defs>
</svg>
