<svg width="33" height="32" viewBox="0 0 33 32" fill="none" xmlns="http://www.w3.org/2000/svg">
<path fill-rule="evenodd" clip-rule="evenodd" d="M9.99893 4.40078C9.67721 5.20455 9.50024 6.08188 9.50024 7.00055V8.20047C9.50024 8.75276 9.94795 9.20047 10.5002 9.20047H22.4995C23.0518 9.20047 23.4995 8.75276 23.4995 8.20047V7.00055C23.4995 6.08188 23.3225 5.20455 23.0008 4.40078H27.4993V29.9991H5.50073V4.40078H9.99893ZM11.2237 2.40078H4.50073C3.94845 2.40078 3.50073 2.8485 3.50073 3.40078V30.9991C3.50073 31.5514 3.94845 31.9991 4.50073 31.9991H28.4993C29.0515 31.9991 29.4993 31.5514 29.4993 30.9991V3.40078C29.4993 2.8485 29.0515 2.40078 28.4993 2.40078H21.7761C20.4929 0.930143 18.6049 0.000915527 16.4999 0.000915527C14.3948 0.000915527 12.5068 0.930143 11.2237 2.40078ZM11.5002 7.00055C11.5002 4.23933 13.7386 2.00092 16.4999 2.00092C19.2611 2.00092 21.4995 4.23933 21.4995 7.00055V7.20047H11.5002V7.00055ZM11.5003 13.7501C10.948 13.7501 10.5003 14.1978 10.5003 14.7501C10.5003 15.3023 10.948 15.7501 11.5003 15.7501H21.4997C22.052 15.7501 22.4997 15.3023 22.4997 14.7501C22.4997 14.1978 22.052 13.7501 21.4997 13.7501H11.5003ZM11.5003 18.7498C10.948 18.7498 10.5003 19.1975 10.5003 19.7498C10.5003 20.302 10.948 20.7498 11.5003 20.7498H21.4997C22.052 20.7498 22.4997 20.302 22.4997 19.7498C22.4997 19.1975 22.052 18.7498 21.4997 18.7498H11.5003Z" fill="#111827"/>
</svg>
