<svg width="33" height="33" viewBox="0 0 33 33" fill="none" xmlns="http://www.w3.org/2000/svg">
<path fill-rule="evenodd" clip-rule="evenodd" d="M14.1736 1.46066C17.1481 0.868996 20.2312 1.17266 23.0332 2.33325C25.8351 3.49384 28.2299 5.45924 29.9148 7.9809C31.5998 10.5026 32.4991 13.4672 32.4991 16.5C32.4991 19.5328 31.5998 22.4974 29.9148 25.0191C28.2299 27.5408 25.8351 29.5062 23.0332 30.6667C20.2312 31.8273 17.1481 32.131 14.1736 31.5393C11.1991 30.9477 8.46684 29.4873 6.32235 27.3428C5.93182 26.9522 5.93182 26.3191 6.32235 25.9285C6.71287 25.538 7.34603 25.538 7.73656 25.9285C9.60135 27.7933 11.9772 29.0633 14.5638 29.5778C17.1503 30.0923 19.8313 29.8282 22.2678 28.819C24.7043 27.8098 26.7867 26.1007 28.2519 23.908C29.7171 21.7152 30.4991 19.1372 30.4991 16.5C30.4991 13.8628 29.7171 11.2848 28.2519 9.09204C26.7867 6.89928 24.7043 5.19023 22.2678 4.18101C19.8313 3.17179 17.1503 2.90774 14.5638 3.42223C11.9772 3.93673 9.60135 5.20666 7.73656 7.07145L3.91508 10.8929H9.65241C10.2047 10.8929 10.6524 11.3406 10.6524 11.8929C10.6524 12.4452 10.2047 12.8929 9.65241 12.8929H1.50134C1.40432 12.8929 1.31053 12.8791 1.22183 12.8533C1.06512 12.808 0.917327 12.7235 0.793809 12.6C0.591098 12.3973 0.493609 12.1292 0.501342 11.8636L0.501342 3.74186C0.501342 3.18957 0.949058 2.74186 1.50134 2.74186C2.05363 2.74186 2.50134 3.18957 2.50134 3.74186V9.47824L6.32235 5.65724C8.46684 3.51274 11.1991 2.05233 14.1736 1.46066ZM18.1651 8.68137C18.1651 8.12909 17.7174 7.68137 17.1651 7.68137C16.6129 7.68137 16.1651 8.12909 16.1651 8.68137V16.4809C16.1644 16.5232 16.1663 16.5654 16.1708 16.6073C16.2029 16.9023 16.3655 17.1793 16.6342 17.3475C16.6473 17.3557 16.6605 17.3636 16.674 17.3712L23.4362 21.2753C23.9145 21.5515 24.5261 21.3876 24.8022 20.9093C25.0784 20.431 24.9145 19.8194 24.4362 19.5433L18.1651 15.9227V8.68137Z" fill="#111827"/>
</svg>
