<svg width="32" height="33" viewBox="0 0 32 33" fill="none" xmlns="http://www.w3.org/2000/svg">
<path d="M16.5321 10.2448V16.5" stroke="#1C1B1F" stroke-width="2" stroke-linecap="round" stroke-linejoin="round"/>
<path d="M21.9493 19.6276L16.5321 16.5" stroke="#1C1B1F" stroke-width="2" stroke-linecap="round" stroke-linejoin="round"/>
<path d="M8.4231 24.609C10.0269 26.2128 12.0703 27.305 14.2948 27.7475C16.5194 28.19 18.8252 27.9629 20.9207 27.0949C23.0162 26.227 24.8072 24.7571 26.0673 22.8712C27.3274 20.9853 28 18.7681 28 16.5C28 14.2319 27.3274 12.0147 26.0673 10.1288C24.8072 8.24289 23.0162 6.77303 20.9207 5.90505C18.8252 5.03707 16.5194 4.80997 14.2948 5.25246C12.0703 5.69495 10.0269 6.78716 8.4231 8.39097L4 12.8141" stroke="#1C1B1F" stroke-width="2" stroke-linecap="round" stroke-linejoin="round"/>
<path d="M10.5212 12.8141H3.99999V6.29283" stroke="#1C1B1F" stroke-width="2" stroke-linecap="round" stroke-linejoin="round"/>
</svg>
