<svg width="33" height="33" viewBox="0 0 33 33" fill="none" xmlns="http://www.w3.org/2000/svg">
<path fill-rule="evenodd" clip-rule="evenodd" d="M16.5 2.50085C8.76852 2.50085 2.50092 8.76846 2.50092 16.4999C2.50092 24.2314 8.76852 30.499 16.5 30.499C24.2315 30.499 30.4991 24.2314 30.4991 16.4999C30.4991 8.76846 24.2315 2.50085 16.5 2.50085ZM0.500916 16.4999C0.500916 7.66389 7.66395 0.500854 16.5 0.500854C25.3361 0.500854 32.4991 7.66389 32.4991 16.4999C32.4991 25.336 25.3361 32.499 16.5 32.499C7.66395 32.499 0.500916 25.336 0.500916 16.4999ZM16.1172 15.5759C16.2343 15.5274 16.3625 15.5004 16.497 15.5001C16.498 15.5 16.499 15.5 16.5 15.5H16.5007H25.2495C25.8018 15.5 26.2495 15.9478 26.2495 16.5C26.2495 17.0523 25.8018 17.5 25.2495 17.5H18.9142L23.3939 21.9797C23.7844 22.3703 23.7844 23.0034 23.3939 23.394C23.0034 23.7845 22.3702 23.7845 21.9797 23.394L15.7929 17.2072C15.697 17.1113 15.6247 17.0008 15.5759 16.8828C15.5273 16.7658 15.5004 16.6375 15.5 16.503C15.5 16.502 15.5 16.501 15.5 16.5C15.5 16.499 15.5 16.498 15.5 16.497C15.5008 16.2254 15.6099 15.9793 15.7864 15.7995C15.7907 15.7951 15.7951 15.7908 15.7995 15.7864C15.8938 15.6938 16.002 15.6236 16.1172 15.5759Z" fill="#111827"/>
</svg>
