<svg width="32" height="33" viewBox="0 0 32 33" fill="none" xmlns="http://www.w3.org/2000/svg">
<path d="M15.4678 10.2449V16.5001" stroke="#1C1B1F" stroke-width="2" stroke-linecap="round" stroke-linejoin="round"/>
<path d="M20.885 19.6277L15.4678 16.5001" stroke="#1C1B1F" stroke-width="2" stroke-linecap="round" stroke-linejoin="round"/>
<path d="M23.5769 24.6091C21.973 26.2129 19.9297 27.3051 17.7051 27.7476C15.4806 28.1901 13.1748 27.963 11.0793 27.095C8.98382 26.227 7.19279 24.7572 5.93268 22.8713C4.67258 20.9854 4 18.7682 4 16.5001C4 14.232 4.67258 12.0148 5.93268 10.1289C7.19279 8.24301 8.98382 6.77314 11.0793 5.90517C13.1748 5.0372 15.4806 4.81009 17.7051 5.25258C19.9297 5.69507 21.973 6.78728 23.5769 8.39109L27.9999 12.8142" stroke="#1C1B1F" stroke-width="2" stroke-linecap="round" stroke-linejoin="round"/>
<path d="M21.7448 12.8142H28V6.55902" stroke="#1C1B1F" stroke-width="2" stroke-linecap="round" stroke-linejoin="round"/>
</svg>
