<svg width="33" height="33" viewBox="0 0 33 33" fill="none" xmlns="http://www.w3.org/2000/svg">
<path fill-rule="evenodd" clip-rule="evenodd" d="M2.50092 16.4999C2.50092 8.76846 8.76852 2.50085 16.5 2.50085C24.2315 2.50085 30.4991 8.76846 30.4991 16.4999C30.4991 24.2314 24.2315 30.499 16.5 30.499C8.76852 30.499 2.50092 24.2314 2.50092 16.4999ZM16.5 0.500854C7.66395 0.500854 0.500916 7.66389 0.500916 16.4999C0.500916 25.336 7.66395 32.499 16.5 32.499C25.3361 32.499 32.4991 25.336 32.4991 16.4999C32.4991 7.66389 25.3361 0.500854 16.5 0.500854ZM17.5 7.75047C17.5 7.19818 17.0523 6.75047 16.5 6.75047C15.9477 6.75047 15.5 7.19818 15.5 7.75047V16.4999C15.5 17.0522 15.9477 17.4999 16.5 17.4999H25.2495C25.8018 17.4999 26.2495 17.0522 26.2495 16.4999C26.2495 15.9476 25.8018 15.4999 25.2495 15.4999H17.5V7.75047Z" fill="#111827"/>
</svg>
