<svg width="32" height="32" viewBox="0 0 32 32" fill="none" xmlns="http://www.w3.org/2000/svg">
<path d="M12.5677 24.573H9.99562C9.14453 24.5722 8.30334 24.3904 7.5279 24.0396C6.75245 23.6888 6.06049 23.1771 5.49793 22.5384C4.93538 21.8998 4.5151 21.1487 4.26499 20.3352C4.01488 19.5217 3.94066 18.6643 4.04726 17.8199C4.15386 16.9755 4.43884 16.1634 4.88328 15.4376C5.32773 14.7118 5.92147 14.0888 6.6251 13.61C7.32873 13.1311 8.12616 12.8075 8.96445 12.6604C9.80275 12.5133 10.6627 12.5463 11.4873 12.757" stroke="#1C1B1F" stroke-width="2" stroke-linecap="round" stroke-linejoin="round"/>
<path d="M10.853 15.9996C10.8531 14.6411 11.176 13.3022 11.7951 12.093C12.4142 10.8839 13.3118 9.83912 14.4139 9.04489C15.5159 8.25067 16.791 7.72969 18.1339 7.52488C19.4768 7.32007 20.8491 7.4373 22.1379 7.86691C23.4266 8.29652 24.5948 9.0262 25.5461 9.99584C26.4975 10.9655 27.2049 12.1473 27.61 13.4439C28.015 14.7406 28.1062 16.1149 27.8759 17.4537C27.6456 18.7925 27.1006 20.0574 26.2855 21.1442" stroke="#1C1B1F" stroke-width="2" stroke-linecap="round" stroke-linejoin="round"/>
<path d="M14.9317 18.9357L18.5691 22.5731L22.2066 18.9357" stroke="#1C1B1F" stroke-width="2" stroke-linecap="round" stroke-linejoin="round"/>
<path d="M18.5691 13.9996L18.5691 22.5731" stroke="#1C1B1F" stroke-width="2" stroke-linecap="round" stroke-linejoin="round"/>
</svg>
