<svg width="33" height="32" viewBox="0 0 33 32" fill="none" xmlns="http://www.w3.org/2000/svg">
<path fill-rule="evenodd" clip-rule="evenodd" d="M19.3177 6.39627C20.8395 6.16419 22.3946 6.29703 23.8549 6.78385C25.3153 7.27067 26.639 8.09753 27.7171 9.1963C28.7952 10.2951 29.5968 11.6343 30.0558 13.1036C30.5148 14.5729 30.6181 16.1303 30.3572 17.6474C30.0967 19.1616 29.4809 20.5924 28.5602 21.8224C27.8957 22.6755 27.1142 23.469 26.3692 24.1395C25.1627 25.2254 23.5056 25.7148 21.7415 25.7148H8.9966C8.07471 25.7139 7.16354 25.5169 6.32359 25.1369C5.48364 24.757 4.73411 24.2027 4.12476 23.5109C3.51541 22.8191 3.06016 22.0056 2.78925 21.1244C2.51833 20.2432 2.43794 19.3145 2.55341 18.3999C2.66887 17.4852 2.97756 16.6056 3.45898 15.8194C3.94039 15.0332 4.58353 14.3583 5.34569 13.8397C6.10786 13.321 6.97163 12.9704 7.87966 12.8111C8.42626 12.7152 8.98137 12.69 9.53152 12.7349C9.22464 13.7922 9.06728 14.891 9.06717 15.9994C9.06711 16.5517 9.51479 16.9994 10.0671 16.9995C10.6194 16.9995 11.0671 16.5519 11.0672 15.9996C11.0673 14.4602 11.4333 12.943 12.1348 11.5728C12.8364 10.2026 13.8535 9.01871 15.1023 8.11872C16.3512 7.21872 17.796 6.62835 19.3177 6.39627ZM7.53407 10.8412C8.44342 10.6817 9.37079 10.6717 10.2799 10.8098C10.3044 10.7601 10.3293 10.7106 10.3546 10.6613C11.2006 9.00901 12.4271 7.58143 13.933 6.49616C15.4389 5.41089 17.1812 4.69899 19.0162 4.41913C20.8512 4.13927 22.7265 4.29946 24.4874 4.8865C26.2484 5.47353 27.8447 6.47061 29.1447 7.79558C30.4448 9.12054 31.4114 10.7355 31.9648 12.5073C32.5183 14.2791 32.6429 16.157 32.3282 17.9864C32.0136 19.8158 31.2687 21.5442 30.1551 23.0292L30.1444 23.0432C29.3865 24.0176 28.5143 24.8996 27.7072 25.626C26.0355 27.1306 23.8499 27.7148 21.7415 27.7148H8.99563H8.99466C7.78913 27.7136 6.59764 27.456 5.49927 26.9592C4.4009 26.4623 3.42078 25.7375 2.62395 24.8329C1.82712 23.9282 1.23182 22.8645 0.877554 21.7122C0.523288 20.5599 0.418162 19.3454 0.569155 18.1494C0.720147 16.9533 1.1238 15.8031 1.75333 14.775C2.38286 13.7469 3.22386 12.8644 4.22051 12.1862C5.21717 11.508 6.34668 11.0495 7.53407 10.8412ZM26.3261 15.4187C26.7166 15.0282 26.7166 14.395 26.3261 14.0045C25.9356 13.614 25.3024 13.614 24.9119 14.0045L19.2928 19.6236L16.8368 17.1676C16.4463 16.7771 15.8131 16.7771 15.4226 17.1676C15.0321 17.5581 15.0321 18.1913 15.4226 18.5818L18.5857 21.7449C18.9762 22.1354 19.6094 22.1354 19.9999 21.7449L26.3261 15.4187Z" fill="#111827"/>
</svg>
