<svg width="32" height="33" viewBox="0 0 32 33" fill="none" xmlns="http://www.w3.org/2000/svg">
<path d="M16 28.5L18.9223 24.1206H13.3334L16.2556 19.7411" stroke="#1C1B1F" stroke-width="2" stroke-linecap="round" stroke-linejoin="round"/>
<path d="M11.9888 9.23788C11.2558 9.05058 10.4914 9.02132 9.74622 9.15204C9.00107 9.28276 8.29225 9.57048 7.6668 9.99609C7.04135 10.4217 6.51358 10.9755 6.11851 11.6207C5.72345 12.2659 5.47014 12.9877 5.37538 13.7383C5.28063 14.4888 5.3466 15.251 5.56892 15.9741C5.79124 16.6972 6.16482 17.3648 6.66487 17.9325C7.16492 18.5002 7.78 18.9551 8.46928 19.2669C9.15856 19.5787 9.90629 19.7403 10.6628 19.7411H18.8711C20.8073 19.7411 22.7492 19.219 24.1166 17.8482C24.4716 17.4922 24.8236 17.1034 25.1428 16.6931C25.8672 15.7271 26.3517 14.6027 26.5564 13.4127C26.7611 12.2227 26.6801 11.0011 26.32 9.8485C25.96 8.69593 25.3312 7.64541 24.4855 6.78352C23.6398 5.92162 22.6014 5.27301 21.4559 4.89114C20.3104 4.50927 19.0905 4.40506 17.8968 4.58711C16.7031 4.76916 15.5698 5.23226 14.5902 5.93824C13.6105 6.64421 12.8127 7.57286 12.2624 8.64767C11.7121 9.72247 11.425 10.9127 11.4249 12.1202" stroke="#1C1B1F" stroke-width="2" stroke-linecap="round" stroke-linejoin="round"/>
</svg>
