<svg width="33" height="32" viewBox="0 0 33 32" fill="none" xmlns="http://www.w3.org/2000/svg">
<g clip-path="url(#clip0_212_273)">
<path d="M17.0949 15.1802C17.5295 15.0256 18.5309 14.5642 18.7322 13.5403L16.4762 13.3883C16.4762 13.3883 15.8655 13.1736 15.5362 12.1349C15.5362 12.1349 14.1736 11.4016 14.2682 10.3456C14.2682 10.3456 14.4789 9.02962 15.6069 8.84162C15.6069 8.84162 16.7829 8.55095 17.0229 10.4309C17.0229 10.4309 17.5762 12.0229 16.4975 12.1349C16.4975 12.1349 16.2642 12.6483 17.1109 12.6709C17.1109 12.6709 18.1415 12.9776 18.8709 12.3656C18.8709 12.3656 19.3655 11.9109 19.9535 11.9976C19.9535 11.9976 20.0802 11.7723 19.8335 11.6323C19.8335 11.6323 18.3709 10.3803 18.1149 8.60962C18.1149 8.60962 16.9082 8.44162 16.7575 7.58829C16.7575 7.58829 16.4762 6.26563 17.5682 6.00164C17.5682 6.00164 18.2642 5.84297 18.6175 6.00164C18.6175 6.00164 19.5069 3.57899 22.0442 3.16432C22.0442 3.16432 24.1415 2.67099 24.8895 4.25765C24.8895 4.25765 25.1988 5.12031 25.0308 5.8443C25.0308 5.8443 24.8548 6.6363 25.0402 6.83896C25.0402 6.83896 25.7188 6.67897 26.0001 7.1203C26.2815 7.56029 26.4055 8.50429 25.8415 8.72429C25.8415 8.72429 26.0095 9.47361 25.4455 9.98428C25.4455 9.98428 23.6562 11.0243 23.1455 11.9043C23.1455 11.9043 22.9882 12.1056 22.9082 12.1763C22.7093 12.351 22.4744 12.4798 22.2202 12.5536C22.2202 12.5536 22.0082 12.6469 21.7708 12.5296C21.7708 12.5296 21.7002 12.8829 22.0975 12.9443C22.0975 12.9443 22.8508 12.8403 23.6708 12.5896L29.5948 10.4696C29.5948 10.4696 29.3201 9.72961 29.5401 9.36828C29.5401 9.36828 29.6615 9.17628 29.7721 9.13495C29.9775 9.05628 30.2228 8.66562 30.2335 8.36029C30.2335 8.36029 30.1761 7.58696 30.7308 7.55229C30.7308 7.55229 31.2641 7.52029 31.2188 8.17229L31.1801 8.60029C31.1801 8.60029 31.9934 8.29362 32.2654 8.84695C32.2654 8.84695 32.8148 9.96161 32.2321 10.8603C32.2321 10.8603 31.3748 11.7043 30.2468 11.1736L29.8601 10.9349C29.8601 10.9349 22.9695 13.7883 22.8895 13.9749C22.8895 13.9749 22.3495 14.2482 21.9468 14.9789C21.9468 14.9789 20.5642 17.4456 19.8509 18.0989C19.8509 18.0989 19.3842 18.6629 19.0495 18.8029L19.1215 18.9976C19.5842 19.0469 19.9229 18.9349 19.9229 18.9349C21.2095 18.3189 21.3962 18.7936 21.3962 18.7936C21.8655 19.1296 21.6682 20.0975 21.6682 20.0975C25.2628 23.5509 21.3962 26.9348 21.3962 26.9348C20.7895 27.1988 20.5042 26.9348 20.5042 26.9348C20.3988 26.7762 21.3975 25.9135 21.3975 25.9135C23.2215 23.7269 21.6055 21.3642 21.6055 21.3642C18.9082 18.4576 16.2055 20.6269 16.2055 20.6269C14.9895 21.9842 15.1655 23.4642 15.1655 23.4642C14.9535 23.8869 14.6016 23.7109 14.6016 23.7109C14.1256 23.1469 14.6016 21.6669 14.6016 21.6669C15.3069 20.0269 16.8042 19.3575 16.8042 19.3575L17.0295 19.1762C17.3015 17.9296 16.8509 16.4269 16.8509 16.4269C15.6175 13.4856 13.5336 12.9896 12.8109 12.9069C12.8202 12.9683 12.8216 12.9829 12.8109 12.9069C12.6509 12.8896 12.5576 12.8909 12.5576 12.8909C9.46825 12.5976 8.05226 15.2762 8.05226 15.2762C7.2256 16.0096 7.2776 17.6962 7.2776 17.6962C9.30959 18.1536 9.80825 19.4229 9.80825 19.4229C9.94958 19.9509 9.34425 19.7815 9.34425 19.7815C7.46026 18.2522 6.5136 18.1789 6.5136 18.1789C4.59362 17.8322 3.29496 19.0642 3.29496 19.0642C2.5163 19.6042 1.82563 20.7722 1.82563 20.7722C0.709642 22.7455 1.40697 24.6282 1.40697 24.6282C1.78963 26.5388 4.06962 27.8082 4.06962 27.8082C5.15495 28.3708 6.31494 28.2042 6.31494 28.2042C7.25893 27.9882 7.04027 28.4855 7.04027 28.4855C6.7736 28.8855 6.41494 28.8908 6.41494 28.8908C4.37762 29.0255 3.46029 28.3388 3.46029 28.3388C-1.09301 25.4788 0.962973 20.7855 0.962973 20.7855C3.09629 16.6269 6.5496 17.5082 6.5496 17.5082C6.61894 16.2562 7.6416 14.5122 7.6416 14.5122C9.16159 12.6189 10.8629 12.2109 11.8829 12.1603L11.8882 12.1549C11.8882 12.1549 11.8642 10.8123 12.2749 9.67228C12.2749 9.67228 12.4882 9.09228 13.2389 7.95762C13.3576 7.77896 13.7322 7.30029 13.8496 6.8643C13.8496 6.8643 14.4842 4.86831 12.2109 4.55098C12.2109 4.55098 11.4869 4.42298 11.0136 4.80431C10.7136 5.04431 10.4309 5.18564 10.2136 5.24431C10.2136 5.24431 9.13892 5.61364 9.17359 4.92698C9.17359 4.92698 8.98026 3.90432 11.4136 3.62299C11.4136 3.62299 14.3869 3.11232 14.7336 5.47364C14.7336 5.47364 15.2189 6.91763 13.4562 9.08562C13.4562 9.08562 12.4936 10.5763 12.7136 12.1976C12.744 12.202 12.7743 12.2078 12.8042 12.2149C15.9055 12.7536 17.0855 15.1642 17.0855 15.1642L17.0949 15.1802ZM17.5242 16.0442L18.5869 18.1802C20.4362 17.4282 21.2268 14.9349 21.2268 14.9349C21.7335 13.6789 20.9455 13.4909 20.9455 13.4909C20.4042 13.3496 20.0175 13.8909 20.0175 13.8909C18.8042 15.3629 17.7895 15.9162 17.5242 16.0442ZM23.2362 5.17364C21.5095 3.51765 19.8522 5.63097 19.8522 5.63097C18.8309 6.93496 19.9589 8.76829 19.9589 8.76829C19.5002 8.87495 19.2882 9.19095 19.2882 9.19095C18.9722 10.7776 20.7682 11.8696 20.7682 11.8696C22.1428 12.7856 22.9895 11.5869 22.9895 11.5869C23.3415 10.7763 25.2442 9.43761 25.2442 9.43761C25.8788 8.80295 25.2442 8.09896 25.2442 8.09896C24.5748 7.62296 24.4695 6.79496 24.4695 6.79496C24.4162 6.08964 24.5228 5.22697 24.5228 5.22697C24.1695 4.59231 23.2362 5.17364 23.2362 5.17364ZM18.2842 6.7603C18.1775 6.47763 17.8175 6.56563 17.8175 6.56563C17.1042 6.69763 17.2535 7.49896 17.2535 7.49896C17.3069 8.05496 17.8882 8.14296 17.8882 8.14296C17.8954 7.65471 18.032 7.17845 18.2842 6.7603ZM24.8748 7.38429C24.7948 7.55229 24.9628 7.66696 24.9628 7.66696C25.1988 7.82296 25.4202 8.09896 25.4202 8.09896C25.5268 8.19496 25.6935 8.09896 25.6935 8.09896C25.9201 7.76962 25.5268 7.38429 25.5268 7.38429C25.2628 7.1203 24.8748 7.38429 24.8748 7.38429ZM16.6629 10.4949C16.6629 10.4949 16.4869 9.59628 15.9002 9.34828C15.9002 9.34828 15.4762 9.23762 15.1602 9.60161C15.1602 9.60161 14.5776 10.1949 14.7722 10.9176C14.7722 10.9176 15.1069 11.7109 15.9935 11.8749C15.9935 11.8749 16.4935 12.0283 16.7802 11.2696C16.7802 11.2696 16.8535 11.0349 16.6629 10.4949ZM29.7681 10.0576C29.9001 10.2096 29.9788 10.4629 29.9788 10.4629C29.9961 11.0563 30.8148 11.0229 30.8148 11.0229C31.7321 11.0629 32.0588 10.4896 32.0588 10.4896C32.3334 10.0136 32.2281 9.09095 31.9254 8.91895C31.6214 8.74562 30.9494 8.91895 30.9494 8.91895C31.1121 8.60162 31.0134 8.09896 31.0134 8.09896C30.9548 7.55763 30.4988 7.86962 30.4988 7.86962C30.2241 8.07496 30.3575 8.66295 30.3575 8.66295C30.3441 9.03628 29.8615 9.20295 29.8615 9.20295C29.4935 9.58028 29.7681 10.0576 29.7681 10.0576ZM21.8748 7.44163C21.8615 7.60163 21.6762 7.52963 21.6762 7.52963C21.6282 7.18296 21.1735 7.09896 21.1735 7.09896C20.6975 7.11896 20.6988 7.47229 20.6988 7.47229C20.4335 7.63629 20.3762 7.39763 20.3762 7.39763C20.5308 6.79496 21.1615 6.91763 21.1615 6.91763C21.8255 6.95763 21.8748 7.44163 21.8748 7.44163ZM22.8855 7.51496C22.8855 7.51496 22.9215 7.02163 23.3308 6.9283C23.3308 6.9283 23.9255 6.73763 24.1842 7.26963C24.1842 7.26963 24.2775 7.48563 24.1935 7.54563C24.1935 7.54563 24.0068 7.61363 23.9522 7.28963C23.9522 7.28963 23.8015 6.9963 23.5042 7.05896C23.5042 7.05896 23.2402 7.08696 23.1735 7.36563C23.1735 7.36563 23.1602 7.65896 22.8855 7.51496ZM20.6508 9.16162C20.7868 9.07895 20.9802 9.14962 21.1042 9.22428C21.2375 9.30695 21.3842 9.38428 21.5255 9.45095C21.8042 9.58295 22.0922 9.66695 22.4068 9.66695C22.5708 9.66695 22.7455 9.68295 22.9055 9.66028C23.0388 9.64161 23.1762 9.62695 23.3108 9.61361C23.477 9.60151 23.6394 9.55808 23.7895 9.48561C23.8628 9.44695 23.9362 9.41628 24.0082 9.37361C24.0748 9.33228 24.1362 9.27761 24.2002 9.23762C24.2308 9.21895 24.3095 9.16028 24.3468 9.16695C24.3935 9.17495 24.4388 9.30428 24.4268 9.34828C24.3362 9.37495 24.2495 9.44695 24.1628 9.48828C24.0428 9.54695 23.9322 9.62561 23.8228 9.70161C23.6682 9.80828 23.4868 9.95761 23.3882 10.1189C23.1575 10.4963 22.8948 10.8816 22.5135 11.1176C22.3129 11.2317 22.0841 11.2867 21.8535 11.2763C21.6322 11.2763 21.3522 11.2363 21.1615 11.1163C20.9757 11.0144 20.837 10.8441 20.7748 10.6416C20.7162 10.4309 20.7748 10.2189 20.7748 10.0043C20.7748 9.83761 20.8188 9.59095 20.7402 9.44428C20.7135 9.39361 20.7028 9.40828 20.6575 9.36828C20.6228 9.33895 20.6042 9.28161 20.6215 9.21762C20.6242 9.20695 20.6402 9.16028 20.6508 9.16162ZM22.3722 8.47495C22.3716 8.49894 22.3664 8.5226 22.3567 8.54456C22.3471 8.56652 22.3332 8.58637 22.3159 8.60296C22.2985 8.61955 22.2781 8.63256 22.2557 8.64126C22.2334 8.64995 22.2095 8.65415 22.1855 8.65362C22.1615 8.65415 22.1377 8.64995 22.1153 8.64126C22.0929 8.63256 22.0725 8.61955 22.0552 8.60296C22.0378 8.58637 22.0239 8.56652 22.0143 8.54456C22.0046 8.5226 21.9994 8.49894 21.9988 8.47495C21.9988 8.37629 22.0815 8.29629 22.1855 8.29629C22.2882 8.29629 22.3722 8.37629 22.3722 8.47495ZM23.1388 8.44429C23.1383 8.46828 23.1331 8.49193 23.1234 8.51389C23.1137 8.53586 23.0998 8.5557 23.0825 8.57229C23.0652 8.58888 23.0447 8.6019 23.0224 8.61059C23 8.61928 22.9762 8.62348 22.9522 8.62295C22.9282 8.62348 22.9043 8.61928 22.882 8.61059C22.8596 8.6019 22.8392 8.58888 22.8218 8.57229C22.8045 8.5557 22.7906 8.53586 22.7809 8.51389C22.7713 8.49193 22.766 8.46828 22.7655 8.44429C22.7655 8.34562 22.8482 8.26562 22.9522 8.26562C23.0548 8.26562 23.1388 8.34562 23.1388 8.44429Z" fill="black"/>
</g>
<defs>
<clipPath id="clip0_212_273">
<rect width="32" height="32" fill="white" transform="translate(0.5)"/>
</clipPath>
</defs>
</svg>
