<svg width="32" height="33" viewBox="0 0 32 33" fill="none" xmlns="http://www.w3.org/2000/svg">
<path d="M15.077 28.5L18.1116 23.8846" stroke="#1C1B1F" stroke-width="2" stroke-linecap="round" stroke-linejoin="round"/>
<path d="M12.6193 25.7308L16.2654 20.3273" stroke="#1C1B1F" stroke-width="2" stroke-linecap="round" stroke-linejoin="round"/>
<path d="M11.8345 9.42011C11.0733 9.2256 10.2795 9.19521 9.50567 9.33096C8.73186 9.46671 7.99577 9.7655 7.34627 10.2075C6.69676 10.6495 6.14869 11.2245 5.73843 11.8945C5.32818 12.5645 5.06512 13.3141 4.96672 14.0936C4.86832 14.873 4.93683 15.6645 5.1677 16.4154C5.39857 17.1664 5.78652 17.8596 6.3058 18.4491C6.82509 19.0387 7.46382 19.511 8.17962 19.8348C8.89541 20.1586 9.67189 20.3265 10.4575 20.3272H19.0956C21.0318 20.3272 22.9704 19.803 24.3477 18.4422C24.7438 18.0509 25.1387 17.6194 25.4944 17.1621C26.2467 16.1589 26.7499 14.9913 26.9624 13.7555C27.175 12.5197 27.0908 11.2511 26.7169 10.0542C26.343 8.85731 25.6901 7.76639 24.8119 6.87134C23.9336 5.9763 22.8553 5.30274 21.6657 4.90618C20.4762 4.50962 19.2094 4.40141 17.9698 4.59046C16.7302 4.77952 15.5532 5.26042 14.5359 5.99355C13.5186 6.72668 12.6901 7.69105 12.1186 8.80719C11.5471 9.92334 11.249 11.1593 11.2489 12.4132" stroke="#1C1B1F" stroke-width="2" stroke-linecap="round" stroke-linejoin="round"/>
</svg>
