<svg width="32" height="33" viewBox="0 0 32 33" fill="none" xmlns="http://www.w3.org/2000/svg">
<path d="M10.2534 24.0795C10.9858 24.0795 11.5795 23.4858 11.5795 22.7534C11.5795 22.021 10.9858 21.4272 10.2534 21.4272C9.52095 21.4272 8.92722 22.021 8.92722 22.7534C8.92722 23.4858 9.52095 24.0795 10.2534 24.0795Z" fill="#1C1B1F"/>
<path d="M14.6739 25.8477C15.4063 25.8477 16 25.254 16 24.5216C16 23.7892 15.4063 23.1954 14.6739 23.1954C13.9415 23.1954 13.3477 23.7892 13.3477 24.5216C13.3477 25.254 13.9415 25.8477 14.6739 25.8477Z" fill="#1C1B1F"/>
<path d="M19.9785 24.0795C20.7109 24.0795 21.3046 23.4858 21.3046 22.7534C21.3046 22.021 20.7109 21.4272 19.9785 21.4272C19.2461 21.4272 18.6523 22.021 18.6523 22.7534C18.6523 23.4858 19.2461 24.0795 19.9785 24.0795Z" fill="#1C1B1F"/>
<path d="M9.36927 28.5C10.1017 28.5 10.6954 27.9062 10.6954 27.1738C10.6954 26.4414 10.1017 25.8477 9.36927 25.8477C8.63686 25.8477 8.04312 26.4414 8.04312 27.1738C8.04312 27.9062 8.63686 28.5 9.36927 28.5Z" fill="#1C1B1F"/>
<path d="M19.0944 28.5C19.8268 28.5 20.4205 27.9062 20.4205 27.1738C20.4205 26.4414 19.8268 25.8477 19.0944 25.8477C18.362 25.8477 17.7682 26.4414 17.7682 27.1738C17.7682 27.9062 18.362 28.5 19.0944 28.5Z" fill="#1C1B1F"/>
<path d="M12.0104 9.21236C11.2813 9.02606 10.521 8.99696 9.77988 9.12698C9.03875 9.25699 8.33374 9.54316 7.71166 9.96649C7.08958 10.3898 6.56465 10.9406 6.17172 11.5823C5.77879 12.224 5.52684 12.942 5.43259 13.6885C5.33835 14.435 5.40396 15.1931 5.62508 15.9123C5.84621 16.6315 6.21778 17.2955 6.71513 17.8601C7.21249 18.4248 7.82425 18.8772 8.50982 19.1873C9.19539 19.4974 9.93908 19.6582 10.6915 19.6589H18.8397C20.7758 19.6589 22.7182 19.1373 24.0841 17.765C24.4334 17.414 24.7794 17.0312 25.0935 16.6274C25.814 15.6666 26.2959 14.5483 26.4995 13.3647C26.7031 12.1811 26.6225 10.966 26.2644 9.81969C25.9063 8.67333 25.2809 7.62847 24.4398 6.77121C23.5986 5.91396 22.5659 5.26884 21.4265 4.88903C20.2871 4.50922 19.0738 4.40557 17.8866 4.58664C16.6993 4.76771 15.5721 5.22831 14.5977 5.93049C13.6234 6.63266 12.8299 7.55631 12.2825 8.62532C11.7351 9.69434 11.4496 10.8781 11.4495 12.0791" stroke="#1C1B1F" stroke-width="2" stroke-linecap="round" stroke-linejoin="round"/>
</svg>
