<svg width="33" height="33" viewBox="0 0 33 33" fill="none" xmlns="http://www.w3.org/2000/svg">
<path d="M10.8592 12.4463C9.82842 12.1829 8.75343 12.1418 7.70557 12.3256C6.6577 12.5094 5.66092 12.9141 4.78138 13.5126C3.90184 14.1111 3.15966 14.8898 2.6041 15.7971C2.04855 16.7044 1.69233 17.7195 1.55908 18.775C1.42583 19.8305 1.5186 20.9023 1.83124 21.9191C2.14387 22.936 2.66922 23.8748 3.37242 24.6731C4.07561 25.4715 4.94057 26.1111 5.90987 26.5496C6.87917 26.9881 7.93066 27.2154 8.99453 27.2164H21.7428C23.6789 27.2164 25.6003 26.6796 27.0394 25.3844C27.8167 24.6849 28.645 23.8457 29.3569 22.9303C30.3757 21.5718 31.0571 19.9907 31.3449 18.3172C31.6327 16.6437 31.5188 14.9258 31.0125 13.305C30.5062 11.6842 29.6219 10.2069 28.4327 8.99489C27.2435 7.78284 25.7832 6.87074 24.1723 6.33373C22.5614 5.79672 20.846 5.65019 19.1674 5.90619C17.4887 6.1622 15.8949 6.81343 14.5174 7.80621C13.1398 8.79899 12.0178 10.1049 11.2439 11.6163C10.47 13.1278 10.0664 14.8015 10.0662 16.4995" stroke="#111827" stroke-width="2" stroke-linecap="round" stroke-linejoin="round"/>
</svg>
