<svg width="33" height="33" viewBox="0 0 33 33" fill="none" xmlns="http://www.w3.org/2000/svg">
<path fill-rule="evenodd" clip-rule="evenodd" d="M19.1128 2.6025C20.5056 2.39008 21.9289 2.51167 23.2654 2.95722C24.602 3.40278 25.8136 4.15956 26.8003 5.1652C27.787 6.17084 28.5207 7.39655 28.9408 8.74134C29.3609 10.0861 29.4554 11.5115 29.2166 12.9C28.9782 14.2856 28.4148 15.5949 27.5724 16.7205C27.0106 17.4417 26.3567 18.1176 25.7203 18.7027C24.5316 19.7956 22.8773 20.2836 21.1108 20.2836H16.8477C16.8377 20.2834 16.8276 20.2834 16.8176 20.2836H9.57332C8.73317 20.2828 7.9028 20.1033 7.13732 19.757C6.37185 19.4107 5.68878 18.9056 5.13346 18.2751C4.57814 17.6447 4.16326 16.9033 3.91637 16.1003C3.66947 15.2972 3.59621 14.4508 3.70144 13.6173C3.80667 12.7837 4.08798 11.9821 4.52671 11.2656C4.96544 10.5491 5.55155 9.93413 6.24614 9.46147C6.94072 8.98881 7.7279 8.66929 8.55541 8.52412C9.02257 8.44216 9.49656 8.41683 9.96723 8.44773C9.69905 9.40265 9.56164 10.393 9.56154 11.3917C9.56149 11.9439 10.0092 12.3917 10.5614 12.3917C11.1137 12.3918 11.5615 11.9441 11.5615 11.3918C11.5617 9.98297 11.8966 8.59429 12.5387 7.34024C13.1808 6.08619 14.1117 5.00266 15.2547 4.17895C16.3977 3.35523 17.72 2.81491 19.1128 2.6025ZM14.9506 22.2836H9.57235H9.57138C8.44759 22.2825 7.3369 22.0424 6.313 21.5792C5.28911 21.116 4.37545 20.4404 3.63265 19.5971C2.88986 18.7538 2.33492 17.7622 2.00468 16.688C1.67443 15.6138 1.57643 14.4817 1.71719 13.3668C1.85794 12.2519 2.23423 11.1796 2.82107 10.2212C3.40791 9.26283 4.19188 8.44023 5.12096 7.808C6.05003 7.17577 7.10295 6.74838 8.20983 6.5542C9.03902 6.40873 9.88429 6.39663 10.7139 6.51669C10.7287 6.48731 10.7435 6.45799 10.7585 6.42874C11.545 4.89262 12.6853 3.56538 14.0854 2.55639C15.4854 1.5474 17.1052 0.885546 18.8113 0.625357C20.5173 0.365168 22.2608 0.514097 23.8979 1.05987C25.5351 1.60565 27.0192 2.53264 28.2279 3.76448C29.4365 4.99631 30.3352 6.49771 30.8498 8.14498C31.3644 9.79224 31.4802 11.5382 31.1876 13.239C30.8951 14.9398 30.2026 16.5467 29.1672 17.9274L29.1565 17.9414C28.5079 18.7753 27.77 19.5351 27.0739 20.175C25.412 21.703 23.2166 22.2836 21.1108 22.2836H17.3633L13.1033 28.5969C12.7944 29.0547 12.1728 29.1754 11.715 28.8665C11.2572 28.5576 11.1365 27.936 11.4454 27.4782L14.9506 22.2836ZM19.6887 24.8945C20.1501 25.1979 20.2783 25.818 19.9748 26.2794L16.1818 32.0483C15.8784 32.5097 15.2583 32.6379 14.7969 32.3345C14.3354 32.031 14.2073 31.411 14.5107 30.9495L18.3037 25.1806C18.6071 24.7192 19.2272 24.591 19.6887 24.8945Z" fill="#111827"/>
</svg>
