<svg width="32" height="32" viewBox="0 0 32 32" fill="none" xmlns="http://www.w3.org/2000/svg">
<path d="M11.4873 12.757C10.6627 12.5463 9.80275 12.5134 8.96445 12.6604C8.12616 12.8075 7.32873 13.1312 6.6251 13.61C5.92147 14.0888 5.32773 14.7118 4.88328 15.4376C4.43884 16.1635 4.15386 16.9755 4.04726 17.8199C3.94066 18.6643 4.01488 19.5217 4.26499 20.3352C4.5151 21.1488 4.93538 21.8998 5.49793 22.5384C6.06049 23.1771 6.75245 23.6888 7.5279 24.0396C8.30334 24.3904 9.14453 24.5722 9.99562 24.5731H19.6008C21.537 24.5731 23.4699 24.0445 24.8664 22.7033C25.3539 22.2351 25.8473 21.7077 26.2856 21.1442C27.1006 20.0574 27.6457 18.7925 27.8759 17.4537C28.1062 16.1149 28.015 14.7406 27.61 13.4439C27.2049 12.1473 26.4976 10.9655 25.5462 9.99584C24.5948 9.0262 23.4266 8.29652 22.1379 7.86691C20.8491 7.4373 19.4768 7.32007 18.1339 7.52488C16.791 7.72969 15.516 8.25067 14.4139 9.04489C13.3118 9.83912 12.4143 10.8839 11.7951 12.093C11.176 13.3022 10.8531 14.6411 10.853 15.9996" stroke="#1C1B1F" stroke-width="2" stroke-linecap="round" stroke-linejoin="round"/>
<path d="M23.2963 14.9692L18.2346 20.0309L15.7037 17.5" stroke="#1C1B1F" stroke-width="2" stroke-linecap="round" stroke-linejoin="round"/>
</svg>
