<svg width="32" height="33" viewBox="0 0 32 33" fill="none" xmlns="http://www.w3.org/2000/svg">
<path d="M11.2615 8.58741L10.7743 5.84985" stroke="#1C1B1F" stroke-width="2" stroke-linecap="round" stroke-linejoin="round"/>
<path d="M7.45948 10.8139L5.17432 9.21313" stroke="#1C1B1F" stroke-width="2" stroke-linecap="round" stroke-linejoin="round"/>
<path d="M6.73756 15.1211L4 15.6083" stroke="#1C1B1F" stroke-width="2" stroke-linecap="round" stroke-linejoin="round"/>
<path d="M15.4142 9.59962L17.015 7.31445" stroke="#1C1B1F" stroke-width="2" stroke-linecap="round" stroke-linejoin="round"/>
<path d="M7.90649 17.1489C7.30203 16.4371 6.89667 15.578 6.73155 14.6589C6.51257 13.4156 6.75571 12.1351 7.41517 11.0586C8.07464 9.98215 9.10493 9.1839 10.312 8.81421C11.5191 8.44453 12.8197 8.52893 13.9689 9.05152C15.1181 9.5741 16.0366 10.4988 16.5514 11.6515" stroke="#1C1B1F" stroke-width="2" stroke-linecap="round" stroke-linejoin="round"/>
<path d="M12.6765 16.1849C11.9113 15.9894 11.1132 15.9588 10.3353 16.0953C9.55738 16.2318 8.81738 16.5321 8.16442 16.9765C7.51146 17.4208 6.96047 17.9989 6.54804 18.6725C6.1356 19.3461 5.87114 20.0997 5.77222 20.8832C5.6733 21.6668 5.74217 22.4625 5.97427 23.2174C6.20637 23.9723 6.59638 24.6693 7.11842 25.262C7.64047 25.8546 8.2826 26.3295 9.0022 26.655C9.7218 26.9805 10.5024 27.1493 11.2922 27.15H19.992C21.9282 27.15 23.8664 26.6255 25.2451 25.266C25.647 24.8697 26.0481 24.4321 26.409 23.9681C27.1653 22.9596 27.6712 21.7857 27.8849 20.5434C28.0985 19.301 28.014 18.0257 27.6381 16.8224C27.2622 15.6191 26.6058 14.5224 25.7229 13.6226C24.84 12.7228 23.7559 12.0457 22.56 11.647C21.3641 11.2483 20.0906 11.1395 18.8444 11.3296C17.5982 11.5196 16.415 12.0031 15.3923 12.7401C14.3696 13.4772 13.5367 14.4467 12.9621 15.5687C12.3876 16.6908 12.0879 17.9334 12.0878 19.194" stroke="#1C1B1F" stroke-width="2" stroke-linecap="round" stroke-linejoin="round"/>
</svg>
