<svg width="32" height="33" viewBox="0 0 32 33" fill="none" xmlns="http://www.w3.org/2000/svg">
<path d="M11.4873 13.257C10.6627 13.0463 9.80275 13.0134 8.96445 13.1604C8.12616 13.3075 7.32873 13.6312 6.6251 14.11C5.92147 14.5888 5.32773 15.2118 4.88328 15.9376C4.43884 16.6635 4.15386 17.4755 4.04726 18.3199C3.94066 19.1643 4.01488 20.0217 4.26499 20.8352C4.5151 21.6488 4.93538 22.3998 5.49793 23.0384C6.06049 23.6771 6.75245 24.1888 7.5279 24.5396C8.30334 24.8904 9.14453 25.0722 9.99562 25.0731H19.6008C21.537 25.0731 23.4699 24.5445 24.8664 23.2033C25.3539 22.7351 25.8473 22.2077 26.2856 21.6442C27.1006 20.5574 27.6457 19.2925 27.8759 17.9537C28.1062 16.6149 28.015 15.2406 27.61 13.9439C27.2049 12.6473 26.4976 11.4655 25.5462 10.4958C24.5948 9.5262 23.4266 8.79652 22.1379 8.36691C20.8491 7.9373 19.4768 7.82007 18.1339 8.02488C16.791 8.22969 15.516 8.75067 14.4139 9.54489C13.3118 10.3391 12.4143 11.3839 11.7951 12.593C11.176 13.8022 10.8531 15.1411 10.853 16.4996" stroke="#1C1B1F" stroke-width="2" stroke-linecap="round" stroke-linejoin="round"/>
</svg>
