<svg width="33" height="33" viewBox="0 0 33 33" fill="none" xmlns="http://www.w3.org/2000/svg">
<path fill-rule="evenodd" clip-rule="evenodd" d="M19.0869 2.60485C20.4634 2.39492 21.87 2.51508 23.191 2.95543C24.5119 3.39577 25.7093 4.1437 26.6845 5.13758C27.6597 6.13146 28.3847 7.34283 28.7999 8.67189C29.2151 10.0009 29.3085 11.4096 29.0725 12.7819C28.837 14.1513 28.2801 15.4453 27.4476 16.5576C26.8987 17.2622 26.2608 17.9233 25.6382 18.4974C24.452 19.5913 22.7979 20.0792 21.0311 20.0792H9.64614C8.81631 20.0784 7.99614 19.9011 7.24007 19.559C6.484 19.217 5.80933 18.7181 5.26083 18.0954C4.71233 17.4727 4.30255 16.7404 4.05869 15.9472C3.81483 15.154 3.74247 14.3181 3.8464 13.4948C3.95034 12.6715 4.2282 11.8797 4.66154 11.172C5.09488 10.4643 5.67378 9.85686 6.35983 9.39001C7.04588 8.92316 7.82339 8.60756 8.64073 8.46417C9.09787 8.38398 9.56163 8.35868 10.0223 8.3879C9.75896 9.32983 9.62405 10.3065 9.62395 11.2912C9.6239 11.8435 10.0716 12.2913 10.6239 12.2913C11.1761 12.2914 11.6239 11.8437 11.624 11.2914C11.6241 9.899 11.9551 8.52657 12.5897 7.28718C13.2243 6.0478 14.1443 4.97694 15.2739 4.16286C16.4035 3.34878 17.7104 2.81477 19.0869 2.60485ZM8.29515 6.49426C9.11422 6.35057 9.94913 6.33821 10.7688 6.45601C10.7822 6.42918 10.7958 6.40241 10.8095 6.37568C11.5885 4.85423 12.7179 3.53966 14.1046 2.54031C15.4913 1.54095 17.0956 0.885413 18.7854 0.627708C20.4751 0.370004 22.2019 0.517511 23.8235 1.05807C25.445 1.59864 26.9149 2.51678 28.1121 3.73686C29.3092 4.95693 30.1993 6.444 30.7089 8.07553C31.2186 9.70706 31.3333 11.4364 31.0436 13.1209C30.7538 14.8055 30.0679 16.3971 29.0424 17.7645L29.0317 17.7785C28.3969 18.5947 27.6759 19.339 26.994 19.9677C25.3335 21.4989 23.1366 22.0792 21.0311 22.0792H9.64516H9.64419C8.53073 22.0781 7.43024 21.8402 6.41575 21.3813C5.40127 20.9223 4.49599 20.2529 3.76002 19.4173C3.02405 18.5818 2.47421 17.5993 2.147 16.535C1.81979 15.4707 1.72269 14.349 1.86215 13.2443C2.00161 12.1396 2.37444 11.0772 2.95589 10.1276C3.53734 9.17801 4.31412 8.36296 5.23465 7.73654C6.15519 7.11012 7.19844 6.68665 8.29515 6.49426ZM10.7918 25.075C10.7918 26.0208 10.0251 26.7874 9.07932 26.7874C8.13356 26.7874 7.36686 26.0208 7.36686 25.075C7.36686 24.1292 8.13356 23.3625 9.07932 23.3625C10.0251 23.3625 10.7918 24.1292 10.7918 25.075ZM16.5 27.3583C16.5 28.304 15.7333 29.0707 14.7875 29.0707C13.8417 29.0707 13.075 28.304 13.075 27.3583C13.075 26.4125 13.8417 25.6458 14.7875 25.6458C15.7333 25.6458 16.5 26.4125 16.5 27.3583ZM21.6373 26.7874C22.5831 26.7874 23.3498 26.0208 23.3498 25.075C23.3498 24.1292 22.5831 23.3625 21.6373 23.3625C20.6916 23.3625 19.9249 24.1292 19.9249 25.075C19.9249 26.0208 20.6916 26.7874 21.6373 26.7874ZM9.65014 30.7831C9.65014 31.7289 8.88344 32.4956 7.93768 32.4956C6.99191 32.4956 6.22522 31.7289 6.22522 30.7831C6.22522 29.8374 6.99191 29.0707 7.93768 29.0707C8.88344 29.0707 9.65014 29.8374 9.65014 30.7831ZM20.4957 32.4956C21.4415 32.4956 22.2082 31.7289 22.2082 30.7831C22.2082 29.8374 21.4415 29.0707 20.4957 29.0707C19.5499 29.0707 18.7833 29.8374 18.7833 30.7831C18.7833 31.7289 19.5499 32.4956 20.4957 32.4956Z" fill="#111827"/>
</svg>
