<svg width="33" height="33" viewBox="0 0 33 33" fill="none" xmlns="http://www.w3.org/2000/svg">
<path fill-rule="evenodd" clip-rule="evenodd" d="M19.2089 2.62071C20.6622 2.39907 22.1474 2.52593 23.542 2.99084C24.9366 3.45576 26.2008 4.24542 27.2304 5.29475C28.26 6.34408 29.0255 7.62304 29.4639 9.02626C29.9022 10.4295 30.0009 11.9168 29.7517 13.3656C29.503 14.8115 28.9149 16.1778 28.0358 17.3524C27.426 18.1352 26.7127 18.8662 26.0251 19.4918C24.8276 20.5813 23.172 21.07 21.4067 21.07H9.30274C8.42424 21.0691 7.55596 20.8814 6.75555 20.5194C5.95514 20.1573 5.24089 19.6291 4.66022 18.9699C4.07955 18.3106 3.64573 17.5354 3.38757 16.6957C3.1294 15.856 3.05279 14.971 3.16283 14.0994C3.27286 13.2278 3.56702 12.3896 4.02577 11.6404C4.48453 10.8912 5.09739 10.2481 5.82368 9.75387C6.54997 9.25963 7.37308 8.92553 8.23837 8.77373C8.74278 8.68524 9.25479 8.65988 9.76275 8.69721C9.47645 9.70023 9.32969 10.7416 9.32959 11.7917C9.32954 12.344 9.77721 12.7918 10.3295 12.7918C10.8818 12.7919 11.3295 12.3442 11.3296 11.7919C11.3297 10.3218 11.6792 8.87282 12.3492 7.56429C13.0192 6.25575 13.9905 5.12515 15.1832 4.26565C16.3758 3.40615 17.7556 2.84235 19.2089 2.62071ZM7.89278 6.80381C8.75957 6.65175 9.64335 6.64062 10.5103 6.76911C10.5296 6.73024 10.5492 6.69146 10.569 6.65279C11.3834 5.06218 12.5641 3.68787 14.0139 2.64309C15.4636 1.59832 17.1408 0.912984 18.9074 0.643567C20.6739 0.37415 22.4792 0.528361 24.1745 1.09349C25.8698 1.65863 27.4065 2.6185 28.658 3.89403C29.9095 5.16955 30.8401 6.72421 31.3729 8.4299C31.9057 10.1356 32.0256 11.9435 31.7227 13.7046C31.4198 15.4657 30.7028 17.1296 29.6306 18.5593L29.62 18.5733C28.9201 19.473 28.1195 20.2902 27.3711 20.9711C25.7043 22.4876 23.5138 23.07 21.4067 23.07H9.30177L9.3008 23.07C8.13866 23.0689 6.99006 22.8206 5.93123 22.3416C4.8724 21.8626 3.92755 21.1639 3.15941 20.2918C2.39126 19.4197 1.81739 18.3943 1.47587 17.2834C1.13436 16.1726 1.03302 15.0019 1.17858 13.8489C1.32413 12.6959 1.71326 11.5871 2.32013 10.596C2.927 9.60488 3.73772 8.7542 4.6985 8.1004C5.65928 7.4466 6.74813 7.00462 7.89278 6.80381ZM8.1082 25.6901C7.55591 25.6901 7.1082 26.1379 7.1082 26.6901C7.1082 27.2424 7.55591 27.6901 8.1082 27.6901H15.3012C15.8535 27.6901 16.3012 27.2424 16.3012 26.6901C16.3012 26.1379 15.8535 25.6901 15.3012 25.6901H8.1082ZM21.2953 25.6901C20.743 25.6901 20.2953 26.1379 20.2953 26.6901C20.2953 27.2424 20.743 27.6901 21.2953 27.6901H24.8918C25.4441 27.6901 25.8918 27.2424 25.8918 26.6901C25.8918 26.1379 25.4441 25.6901 24.8918 25.6901H21.2953ZM11.9035 31.4854C11.9035 30.9331 12.3512 30.4854 12.9035 30.4854H21.2953C21.8476 30.4854 22.2953 30.9331 22.2953 31.4854C22.2953 32.0377 21.8476 32.4854 21.2953 32.4854H12.9035C12.3512 32.4854 11.9035 32.0377 11.9035 31.4854Z" fill="#111827"/>
</svg>
