<svg width="32" height="33" viewBox="0 0 32 33" fill="none" xmlns="http://www.w3.org/2000/svg">
<path d="M7.86208 18.7354C6.82109 18.2937 6.22372 17.7853 5.49616 16.9196C4.7686 16.0539 4.25595 15.0286 4 13.9271C4.52944 14.0438 5.0698 14.1038 5.61194 14.1062C7.51109 14.1032 9.33161 13.3475 10.6745 12.0046C12.0174 10.6617 12.7732 8.84117 12.7761 6.94202C12.7737 6.39987 12.7137 5.85952 12.597 5.33008C14.1761 5.69473 15.5849 6.58401 16.5934 7.85269C17.6018 9.12138 18.1503 10.6945 18.1493 12.3152C18.1493 12.4271 18.1493 12.539 18.1381 12.651" stroke="#1C1B1F" stroke-width="2" stroke-linecap="round" stroke-linejoin="round"/>
<path d="M13.2125 17.0884C12.4741 16.8997 11.7039 16.8702 10.9532 17.0019C10.2025 17.1336 9.4884 17.4235 8.85828 17.8523C8.22817 18.2811 7.69646 18.839 7.29845 19.489C6.90044 20.139 6.64523 20.8662 6.54977 21.6224C6.45431 22.3786 6.52077 23.1464 6.74475 23.8749C6.96873 24.6034 7.3451 25.276 7.84888 25.8479C8.35266 26.4199 8.97233 26.8781 9.66676 27.1923C10.3612 27.5064 11.1145 27.6692 11.8767 27.67H20.1684C22.1046 27.67 24.0458 27.1475 25.4151 25.7787C25.7781 25.4158 26.1384 25.0187 26.4647 24.5993C27.1945 23.6261 27.6827 22.4933 27.8889 21.2944C28.0951 20.0955 28.0135 18.8648 27.6507 17.7036C27.288 16.5424 26.6545 15.4841 25.8025 14.6157C24.9505 13.7474 23.9044 13.094 22.7503 12.7092C21.5962 12.3245 20.3673 12.2195 19.1647 12.4029C17.9621 12.5864 16.8202 13.0529 15.8333 13.7642C14.8464 14.4754 14.0426 15.411 13.4882 16.4938C12.9337 17.5766 12.6446 18.7757 12.6444 19.9922" stroke="#1C1B1F" stroke-width="2" stroke-linecap="round" stroke-linejoin="round"/>
</svg>
