<svg width="33" height="33" viewBox="0 0 33 33" fill="none" xmlns="http://www.w3.org/2000/svg">
<path fill-rule="evenodd" clip-rule="evenodd" d="M19.0216 2.59831C20.357 2.39465 21.7216 2.51122 23.0031 2.93842C24.2846 3.36562 25.4463 4.09122 26.3923 5.05542C27.3384 6.01963 28.0418 7.19484 28.4446 8.48421C28.8474 9.77359 28.938 11.1402 28.7091 12.4715C28.4806 13.7999 27.9404 15.0552 27.1329 16.1343C26.6163 16.7974 26.0181 17.4213 25.4304 17.9674C24.2508 19.0637 22.5979 19.5509 20.8301 19.5509H16.8276C16.8228 19.5509 16.818 19.5509 16.8131 19.5509H9.82987C9.02609 19.5501 8.23166 19.3784 7.49933 19.0471C6.76699 18.7158 6.11349 18.2325 5.58221 17.6294C5.05092 17.0262 4.65401 16.317 4.4178 15.5487C4.18159 14.7804 4.1115 13.9706 4.21218 13.1732C4.31285 12.3757 4.58199 11.6088 5.00172 10.9233C5.42146 10.2378 5.9822 9.64945 6.64672 9.19725C7.31123 8.74505 8.06433 8.43936 8.85603 8.30047C9.2879 8.22471 9.72588 8.19953 10.1612 8.22459C9.91014 9.13374 9.78155 10.0757 9.78145 11.0253C9.7814 11.5776 10.2291 12.0254 10.7814 12.0254C11.3336 12.0255 11.7814 11.5778 11.7815 11.0255C11.7816 9.67469 12.1027 8.34323 12.7183 7.14085C13.334 5.93846 14.2265 4.89958 15.3224 4.10981C16.4183 3.32003 17.6862 2.80197 19.0216 2.59831ZM14.9501 21.5509H9.8289L9.82793 21.5509C8.74051 21.5498 7.66576 21.3175 6.67501 20.8693C5.68425 20.4211 4.80016 19.7673 4.0814 18.9513C3.36264 18.1353 2.82566 17.1758 2.50611 16.1364C2.18655 15.097 2.09173 14.0015 2.22792 12.9227C2.36412 11.8438 2.72823 10.8063 3.29608 9.8789C3.86393 8.95153 4.62253 8.15555 5.52154 7.54378C6.42054 6.93201 7.43938 6.51845 8.51044 6.33056C9.30399 6.19134 10.1128 6.17836 10.9071 6.29048L10.9381 6.22934C11.6982 4.74489 12.8001 3.4623 14.1531 2.48725C15.5061 1.5122 17.0714 0.872606 18.72 0.621169C20.3687 0.369732 22.0535 0.513652 23.6356 1.04107C25.2178 1.56848 26.6519 2.4643 27.8199 3.6547C28.9879 4.8451 29.8563 6.296 30.3536 7.88785C30.8509 9.4797 30.9628 11.1669 30.6801 12.8105C30.3974 14.4541 29.7282 16.007 28.7277 17.3412L28.717 17.3552C28.1168 18.1268 27.4379 18.8322 26.7919 19.4325C25.135 20.9723 22.9346 21.5509 20.8301 21.5509H17.3544L15.0363 25.025H20.1526C20.5214 25.025 20.8603 25.228 21.0343 25.5533C21.2083 25.8785 21.1891 26.2732 20.9844 26.58L17.3319 32.054C17.0253 32.5134 16.4044 32.6373 15.945 32.3308C15.4856 32.0242 15.3617 31.4033 15.6682 30.9439L18.2831 27.025H13.1669C12.798 27.025 12.4591 26.8219 12.2851 26.4966C12.1112 26.1714 12.1304 25.7768 12.3351 25.4699L14.9501 21.5509Z" fill="#111827"/>
</svg>
