<svg width="33" height="33" viewBox="0 0 33 33" fill="none" xmlns="http://www.w3.org/2000/svg">
<path d="M6.3276 19.294C5.02636 18.7419 4.27965 18.1064 3.3702 17.0243C2.46075 15.9422 1.81993 14.6605 1.5 13.2836C2.1618 13.4295 2.83725 13.5045 3.51493 13.5075C5.88886 13.5038 8.16451 12.5591 9.84314 10.8805C11.5218 9.20187 12.4665 6.92622 12.4702 4.55228C12.4672 3.8746 12.3921 3.19916 12.2463 2.53735C14.2201 2.99316 15.9812 4.10476 17.2417 5.69062C18.5023 7.27648 19.1879 9.24288 19.1866 11.2687C19.1866 11.4086 19.1866 11.5486 19.1726 11.6885" stroke="#111827" stroke-width="2" stroke-linecap="round" stroke-linejoin="round"/>
<path d="M13.0156 17.2354C12.0926 16.9995 11.1299 16.9626 10.1915 17.1272C9.25311 17.2919 8.36047 17.6542 7.57282 18.1902C6.78518 18.7262 6.12054 19.4236 5.62303 20.2361C5.12552 21.0486 4.80651 21.9576 4.68718 22.9028C4.56785 23.848 4.65093 24.8078 4.93091 25.7185C5.21088 26.6291 5.68134 27.4698 6.31107 28.1847C6.9408 28.8997 7.71538 29.4725 8.58342 29.8651C9.45145 30.2578 10.3931 30.4614 11.3458 30.4623H21.7104C24.1307 30.4623 26.5572 29.8092 28.2689 28.0982C28.7227 27.6446 29.173 27.1482 29.5808 26.624C30.4931 25.4074 31.1033 23.9915 31.3611 22.4928C31.6188 20.9942 31.5168 19.4558 31.0634 18.0043C30.61 16.5529 29.8181 15.2299 28.7531 14.1445C27.6881 13.0591 26.3805 12.2423 24.9379 11.7614C23.4953 11.2805 21.9591 11.1492 20.4558 11.3785C18.9525 11.6078 17.5253 12.191 16.2916 13.08C15.058 13.9691 14.0532 15.1385 13.3602 16.4921C12.6672 17.8456 12.3057 19.3444 12.3055 20.8651" stroke="#111827" stroke-width="2" stroke-linecap="round" stroke-linejoin="round"/>
</svg>
