<svg width="32" height="33" viewBox="0 0 32 33" fill="none" xmlns="http://www.w3.org/2000/svg">
<path d="M15.04 24.66H9.27998" stroke="#1C1B1F" stroke-width="2" stroke-linecap="round" stroke-linejoin="round"/>
<path d="M22.72 24.66H19.84" stroke="#1C1B1F" stroke-width="2" stroke-linecap="round" stroke-linejoin="round"/>
<path d="M19.84 28.5H13.12" stroke="#1C1B1F" stroke-width="2" stroke-linecap="round" stroke-linejoin="round"/>
<path d="M11.6678 9.61691C10.8762 9.41462 10.0506 9.38302 9.24586 9.5242C8.44109 9.66538 7.67556 9.97612 7.00008 10.4358C6.32459 10.8954 5.7546 11.4935 5.32793 12.1903C4.90127 12.8871 4.62769 13.6667 4.52535 14.4773C4.42301 15.2879 4.49426 16.1111 4.73437 16.892C4.97448 17.673 5.37794 18.394 5.918 19.0071C6.45805 19.6202 7.12234 20.1115 7.86676 20.4482C8.61119 20.785 9.41872 20.9595 10.2358 20.9603H19.3381C21.2743 20.9603 23.2099 20.4339 24.5969 19.083C25.0369 18.6544 25.4789 18.1768 25.8741 17.6686C26.6565 16.6253 27.1798 15.411 27.4009 14.1257C27.6219 12.8405 27.5344 11.5212 27.1456 10.2764C26.7567 9.0316 26.0776 7.89705 25.1643 6.9662C24.251 6.03535 23.1295 5.33485 21.8923 4.92243C20.6552 4.51001 19.3377 4.39747 18.0485 4.59408C16.7593 4.7907 15.5353 5.29084 14.4773 6.05329C13.4193 6.81575 12.5577 7.81869 11.9633 8.97948C11.369 10.1403 11.059 11.4257 11.0588 12.7298" stroke="#1C1B1F" stroke-width="2" stroke-linecap="round" stroke-linejoin="round"/>
</svg>
