<svg width="33" height="32" viewBox="0 0 33 32" fill="none" xmlns="http://www.w3.org/2000/svg">
<path fill-rule="evenodd" clip-rule="evenodd" d="M5.66017 1.57358C5.30445 1.15111 4.6736 1.097 4.25113 1.45273C3.82867 1.80845 3.77456 2.4393 4.13028 2.86177L10.5242 10.4554C10.4577 10.5244 10.4001 10.6042 10.3541 10.694C10.3289 10.7434 10.3039 10.7929 10.2794 10.8426C9.37021 10.7044 8.44275 10.7144 7.53331 10.874C6.34583 11.0823 5.21623 11.5408 4.2195 12.2191C3.22277 12.8974 2.38171 13.7799 1.75213 14.8081C1.12255 15.8362 0.718867 16.9866 0.567863 18.1827C0.416859 19.3788 0.521993 20.5934 0.876285 21.7458C1.23058 22.8981 1.82593 23.962 2.62282 24.8667C3.4197 25.7714 4.3999 26.4963 5.49836 26.9932C6.59681 27.4901 7.78839 27.7477 8.99401 27.7488H8.99498H24.9647C25.0037 27.7488 25.0422 27.7466 25.08 27.7423L27.3401 30.4264C27.6958 30.8489 28.3267 30.903 28.7491 30.5473C29.1716 30.1915 29.2257 29.5607 28.87 29.1382L5.66017 1.57358ZM23.4015 25.7488L11.9021 12.0918C11.3522 13.3308 11.0667 14.6732 11.0666 16.0327C11.0666 16.585 10.6188 17.0327 10.0665 17.0326C9.51423 17.0326 9.06656 16.5848 9.06661 16.0325C9.06672 14.924 9.22411 13.8251 9.53103 12.7677C8.9808 12.7228 8.42559 12.748 7.8789 12.8439C6.97077 13.0032 6.10692 13.3539 5.34468 13.8726C4.58244 14.3913 3.93924 15.0662 3.45777 15.8525C2.97631 16.6388 2.66759 17.5185 2.55211 18.4332C2.43663 19.3479 2.51703 20.2767 2.78798 21.158C3.05892 22.0393 3.51421 22.8529 4.12362 23.5447C4.73304 24.2366 5.48264 24.7909 6.32268 25.1709C7.16271 25.551 8.07397 25.7479 8.99596 25.7488H23.4015ZM19.318 6.42849C20.8399 6.19638 22.3951 6.32923 23.8556 6.8161C25.3161 7.30297 26.64 8.12991 27.7182 9.22878C28.7964 10.3277 29.598 11.667 30.0571 13.1365C30.5161 14.6059 30.6194 16.1634 30.3585 17.6807C30.098 19.195 29.4821 20.6259 28.5614 21.856C28.2904 22.2039 27.9993 22.5428 27.698 22.8683C27.3229 23.2737 27.3474 23.9064 27.7528 24.2815C28.1581 24.6566 28.7908 24.6321 29.1659 24.2267C29.5025 23.863 29.8334 23.4782 30.1455 23.0769L30.1562 23.0629C31.2699 21.5778 32.0149 19.8492 32.3295 18.0197C32.6442 16.1902 32.5196 14.312 31.9661 12.5401C31.4126 10.7682 30.4459 9.15313 29.1458 7.82806C27.8456 6.50299 26.2492 5.50583 24.4881 4.91875C22.727 4.33167 20.8516 4.17147 19.0164 4.45135C17.1813 4.73123 15.4389 5.44318 13.9328 6.52854C13.4848 6.85144 13.3833 7.47642 13.7062 7.92448C14.0291 8.37253 14.6541 8.47399 15.1021 8.15109C16.3511 7.25101 17.7961 6.66059 19.318 6.42849Z" fill="#111827"/>
</svg>
