<svg width="32" height="32" viewBox="0 0 32 32" fill="none" xmlns="http://www.w3.org/2000/svg">
<path d="M12.4656 27.3806L14.1774 22.026C13.1369 23.2464 11.5883 24.0203 9.85888 24.0203C6.72612 24.0203 4.18652 21.4807 4.18652 18.348C4.18652 15.2152 6.72612 12.6756 9.85888 12.6756C10.3438 12.6756 10.8104 12.6812 11.2597 12.7957C10.6677 11.8999 10.3231 10.8264 10.3231 9.67235C10.3231 6.5396 12.8627 4 15.9954 4C19.1282 4 21.6678 6.5396 21.6678 9.67235C21.6678 10.8264 21.3232 11.8999 20.7312 12.7957C21.1774 12.6829 21.6601 12.6756 22.1413 12.6756C25.2741 12.6756 27.8137 15.2152 27.8137 18.348C27.8137 21.4807 25.2741 24.0203 22.1413 24.0203C20.4781 24.0203 18.9822 23.3046 17.9446 22.1643L19.5396 27.3884C19.6331 27.6924 19.4058 28 19.0878 28H12.915C12.5935 28 12.3658 27.6861 12.4656 27.3806Z" stroke="#1C1B1F" stroke-width="2" stroke-linecap="round" stroke-linejoin="round"/>
</svg>
