<svg width="33" height="33" viewBox="0 0 33 33" fill="none" xmlns="http://www.w3.org/2000/svg">
<path d="M12.0818 30.7257L14.2215 24.0324C12.9209 25.558 10.9851 26.5254 8.82335 26.5254C4.90741 26.5254 1.73291 23.3509 1.73291 19.435C1.73291 15.519 4.90741 12.3445 8.82335 12.3445C9.42952 12.3445 10.0127 12.3515 10.5743 12.4946C9.83439 11.3749 9.40362 10.033 9.40362 8.59044C9.40362 4.6745 12.5781 1.5 16.4941 1.5C20.41 1.5 23.5845 4.6745 23.5845 8.59044C23.5845 10.033 23.1537 11.3749 22.4138 12.4946C22.9715 12.3536 23.5749 12.3445 24.1764 12.3445C28.0923 12.3445 31.2668 15.519 31.2668 19.435C31.2668 23.3509 28.0923 26.5254 24.1764 26.5254C22.0974 26.5254 20.2275 25.6307 18.9305 24.2053L20.9243 30.7355C21.0411 31.1155 20.757 31.5 20.3595 31.5H12.6435C12.2417 31.5 11.957 31.1076 12.0818 30.7257Z" stroke="#111827" stroke-width="2" stroke-linecap="round" stroke-linejoin="round"/>
</svg>
