<svg width="33" height="32" viewBox="0 0 33 32" fill="none" xmlns="http://www.w3.org/2000/svg">
<path d="M12.0818 30.2257L14.2215 23.5324C12.9209 25.058 10.9851 26.0254 8.82335 26.0254C4.90741 26.0254 1.73291 22.8509 1.73291 18.935C1.73291 15.019 4.90741 11.8445 8.82335 11.8445C9.42952 11.8445 10.0127 11.8515 10.5743 11.9946C9.83439 10.8749 9.40362 9.53297 9.40362 8.09044C9.40362 4.1745 12.5781 1 16.4941 1C20.41 1 23.5845 4.1745 23.5845 8.09044C23.5845 9.53297 23.1537 10.8749 22.4138 11.9946C22.9715 11.8536 23.5749 11.8445 24.1764 11.8445C28.0923 11.8445 31.2668 15.019 31.2668 18.935C31.2668 22.8509 28.0923 26.0254 24.1764 26.0254C22.0974 26.0254 20.2275 25.1307 18.9305 23.7053L20.9243 30.2355C21.0411 30.6155 20.757 31 20.3595 31H12.6435C12.2417 31 11.957 30.6076 12.0818 30.2257Z" stroke="#111827" stroke-width="2" stroke-linecap="round" stroke-linejoin="round"/>
</svg>
