<svg width="33" height="32" viewBox="0 0 33 32" fill="none" xmlns="http://www.w3.org/2000/svg">
<path fill-rule="evenodd" clip-rule="evenodd" d="M16.9882 0.12819C16.6848 -0.0415908 16.3149 -0.0415908 16.0115 0.12819L2.60763 7.62868C2.29166 7.80549 2.09595 8.13927 2.09595 8.50134V23.4985C2.09595 23.8606 2.29166 24.1944 2.60763 24.3712L16.0115 31.8717C16.3149 32.0415 16.6848 32.0415 16.9882 31.8717L23.6606 28.138C23.7052 28.1171 23.7481 28.0931 23.7888 28.0662L30.3921 24.3712C30.708 24.1944 30.9037 23.8606 30.9037 23.4985V15.8566V15.8326V8.50134C30.9037 8.13927 30.708 7.80549 30.3921 7.62868L16.9882 0.12819ZM28.9037 15.2602V10.221L17.6489 16.615L17.6489 29.2101L22.2384 26.642V19.5899C22.2384 19.2284 22.4335 18.8951 22.7486 18.718L28.9037 15.2602ZM15.6489 29.3769L10.7608 26.6417V19.5812C10.7608 19.223 10.5692 18.8922 10.2585 18.7139L4.09595 15.1773V10.1168L15.6489 16.5518L15.6489 29.3769ZM16.7053 14.8509L27.869 8.50865L23.4376 6.02895L16.9679 9.457C16.6751 9.61217 16.3244 9.61217 16.0315 9.457L9.56202 6.02901L5.22455 8.45615L16.7053 14.8509ZM24.2384 25.5228L28.9037 22.9122V17.5542L24.2384 20.1751V25.5228ZM8.7608 25.5225V20.1603L4.09595 17.4833V22.9122L8.7608 25.5225ZM11.6396 4.86644L16.4997 7.44167L21.36 4.86638L16.4998 2.14677L11.6396 4.86644Z" fill="#111827"/>
</svg>
