<svg width="33" height="32" viewBox="0 0 33 32" fill="none" xmlns="http://www.w3.org/2000/svg">
<path fill-rule="evenodd" clip-rule="evenodd" d="M16.0114 1.85268C16.3149 1.6829 16.6847 1.6829 16.9881 1.85268L31.9871 10.2458C32.2989 10.4202 32.4939 10.7478 32.4987 11.1051C32.4994 11.1541 32.4964 11.2026 32.4901 11.2504C32.496 11.2943 32.499 11.3392 32.499 11.3847V20.3174C32.499 20.325 32.4989 20.3326 32.4988 20.3401C32.5018 20.6955 32.3158 21.026 32.0102 21.2079L17.0112 30.1339C16.696 30.3215 16.3035 30.3215 15.9884 30.1339L0.98933 21.2079C0.682577 21.0253 0.496416 20.6931 0.500808 20.3362C0.500758 20.3321 0.500733 20.328 0.500733 20.3238L0.500733 11.3847C0.500733 11.3394 0.503741 11.2949 0.509568 11.2512C0.503142 11.2032 0.500165 11.1544 0.500822 11.1051C0.505583 10.7478 0.700605 10.4202 1.01241 10.2458L16.0114 1.85268ZM2.50073 18.643L7.49413 15.8488L2.50073 12.8772L2.50073 18.643ZM9.47895 17.03L3.50093 20.3752L15.4997 27.5158V20.6131L9.47895 17.03ZM17.4997 27.5158L29.4986 20.3752L23.5206 17.03L17.4997 20.6131V27.5158ZM21.505 15.9022L16.4998 18.8808L11.4945 15.9022L16.4915 13.106C16.4943 13.106 16.497 13.106 16.4997 13.106C16.5025 13.106 16.5052 13.106 16.508 13.106L21.505 15.9022ZM25.5054 15.8488L30.499 18.6431V12.8771L25.5054 15.8488ZM23.4898 14.721L17.4997 11.3691V4.43083L29.4986 11.1451L23.4898 14.721ZM15.4997 11.3691V4.43084L3.50093 11.1451L9.50972 14.721L15.4997 11.3691Z" fill="#111827"/>
</svg>
