<svg width="33" height="32" viewBox="0 0 33 32" fill="none" xmlns="http://www.w3.org/2000/svg">
<path fill-rule="evenodd" clip-rule="evenodd" d="M19.8016 6.92144C20.3207 7.11018 20.5884 7.68394 20.3997 8.20298L14.4805 24.4807C14.2918 24.9997 13.718 25.2675 13.199 25.0787C12.6799 24.89 12.4122 24.3162 12.6009 23.7972L18.5201 7.51949C18.7088 7.00046 19.2826 6.7327 19.8016 6.92144ZM9.73591 10.7648C10.1264 11.1554 10.1264 11.7885 9.73591 12.1791L5.9147 16.0003L9.73591 19.8215C10.1264 20.212 10.1264 20.8452 9.73591 21.2357C9.34539 21.6262 8.71222 21.6262 8.3217 21.2357L3.79338 16.7074C3.40286 16.3168 3.40286 15.6837 3.79338 15.2932L8.3217 10.7648C8.71222 10.3743 9.34539 10.3743 9.73591 10.7648ZM24.6784 10.7648C24.2879 10.3743 23.6548 10.3743 23.2642 10.7648C22.8737 11.1554 22.8737 11.7885 23.2642 12.1791L27.0854 16.0003L23.2642 19.8215C22.8737 20.212 22.8737 20.8452 23.2642 21.2357C23.6548 21.6262 24.2879 21.6262 24.6784 21.2357L29.2068 16.7074C29.5973 16.3168 29.5973 15.6837 29.2068 15.2932L24.6784 10.7648Z" fill="#111827"/>
</svg>
