<svg width="32" height="32" viewBox="0 0 32 32" fill="none" xmlns="http://www.w3.org/2000/svg">
<path d="M10.4614 4.92285V8.61516" stroke="#1C1B1F" stroke-width="2" stroke-linecap="round" stroke-linejoin="round"/>
<path d="M14.1538 4.92285V8.61516" stroke="#1C1B1F" stroke-width="2" stroke-linecap="round" stroke-linejoin="round"/>
<path d="M17.8462 4.92285V8.61516" stroke="#1C1B1F" stroke-width="2" stroke-linecap="round" stroke-linejoin="round"/>
<path d="M4 27.0767H24.3077" stroke="#1C1B1F" stroke-width="2" stroke-linecap="round" stroke-linejoin="round"/>
<path d="M9.91883 27.077C8.15227 26.2661 6.65555 24.9653 5.60638 23.329C4.55722 21.6927 3.99969 19.7896 4 17.8458V12.3074H24.3077V17.8458C24.308 19.7896 23.7505 21.6927 22.7013 23.329C21.6521 24.9653 20.1554 26.2662 18.3888 27.0771" stroke="#1C1B1F" stroke-width="2" stroke-linecap="round" stroke-linejoin="round"/>
<path d="M24.3078 12.3074C25.2871 12.3074 26.2262 12.6964 26.9186 13.3888C27.6111 14.0813 28.0001 15.0204 28.0001 15.9997V16.9228C28.0001 17.902 27.6111 18.8412 26.9186 19.5336C26.2262 20.2261 25.2871 20.6151 24.3078 20.6151H23.918" stroke="#1C1B1F" stroke-width="2" stroke-linecap="round" stroke-linejoin="round"/>
</svg>
