<svg width="32" height="33" viewBox="0 0 32 33" fill="none" xmlns="http://www.w3.org/2000/svg">
<path d="M10.4614 5.42285V9.11516" stroke="#1C1B1F" stroke-width="2" stroke-linecap="round" stroke-linejoin="round"/>
<path d="M14.1538 5.42285V9.11516" stroke="#1C1B1F" stroke-width="2" stroke-linecap="round" stroke-linejoin="round"/>
<path d="M17.8462 5.42285V9.11516" stroke="#1C1B1F" stroke-width="2" stroke-linecap="round" stroke-linejoin="round"/>
<path d="M4 27.5767H24.3077" stroke="#1C1B1F" stroke-width="2" stroke-linecap="round" stroke-linejoin="round"/>
<path d="M9.91883 27.577C8.15227 26.7661 6.65555 25.4653 5.60638 23.829C4.55722 22.1927 3.99969 20.2896 4 18.3458V12.8074H24.3077V18.3458C24.308 20.2896 23.7505 22.1927 22.7013 23.829C21.6521 25.4653 20.1554 26.7662 18.3888 27.5771" stroke="#1C1B1F" stroke-width="2" stroke-linecap="round" stroke-linejoin="round"/>
<path d="M24.3078 12.8074C25.2871 12.8074 26.2262 13.1964 26.9186 13.8888C27.6111 14.5813 28.0001 15.5204 28.0001 16.4997V17.4228C28.0001 18.402 27.6111 19.3412 26.9186 20.0336C26.2262 20.7261 25.2871 21.1151 24.3078 21.1151H23.918" stroke="#1C1B1F" stroke-width="2" stroke-linecap="round" stroke-linejoin="round"/>
</svg>
