<svg width="33" height="33" viewBox="0 0 33 33" fill="none" xmlns="http://www.w3.org/2000/svg">
<path fill-rule="evenodd" clip-rule="evenodd" d="M10.5772 2.6543C10.5772 2.10201 10.1295 1.6543 9.57719 1.6543C9.02491 1.6543 8.57719 2.10201 8.57719 2.6543V7.26937C8.57719 7.82165 9.02491 8.26937 9.57719 8.26937C10.1295 8.26937 10.5772 7.82165 10.5772 7.26937V2.6543ZM15.1922 2.6543C15.1922 2.10201 14.7445 1.6543 14.1922 1.6543C13.64 1.6543 13.1922 2.10201 13.1922 2.6543V7.26937C13.1922 7.82165 13.64 8.26937 14.1922 8.26937C14.7445 8.26937 15.1922 7.82165 15.1922 7.26937V2.6543ZM18.8075 1.6543C19.3598 1.6543 19.8075 2.10201 19.8075 2.6543V7.26937C19.8075 7.82165 19.3598 8.26937 18.8075 8.26937C18.2553 8.26937 17.8075 7.82165 17.8075 7.26937V2.6543C17.8075 2.10201 18.2553 1.6543 18.8075 1.6543ZM1.50098 29.3446C0.948692 29.3446 0.500977 29.7923 0.500977 30.3446C0.500977 30.8969 0.948692 31.3446 1.50098 31.3446H8.85648C8.88451 31.3458 8.91248 31.3458 8.94033 31.3446H19.4435C19.472 31.3458 19.5006 31.3458 19.5292 31.3446H26.8839C27.4362 31.3446 27.8839 30.8969 27.8839 30.3446C27.8839 29.7923 27.4362 29.3446 26.8839 29.3446H22.9376C24.015 28.4501 24.9543 27.391 25.7178 26.2003C26.3101 25.2766 26.7861 24.2899 27.1395 23.2625C28.5357 23.199 29.8618 22.6164 30.8544 21.6237C31.9075 20.5707 32.4991 19.1424 32.4991 17.6532V16.4995C32.4991 15.0103 31.9075 13.582 30.8544 12.529C29.8014 11.476 28.3732 10.8844 26.884 10.8844C26.8839 10.8844 26.8839 10.8844 26.8839 10.8844H1.50098C0.948692 10.8844 0.500977 11.3321 0.500977 11.8844V18.8068V18.807C0.500584 21.4279 1.25235 23.9939 2.667 26.2002C3.43051 27.391 4.3698 28.4501 5.44721 29.3446H1.50098ZM27.8839 13.0254V18.8068V18.807C27.884 19.6061 27.8142 20.4 27.677 21.1803C28.3396 21.0313 28.9524 20.6973 29.4402 20.2095C30.1182 19.5315 30.4991 18.612 30.4991 17.6532V16.4995C30.4991 15.5407 30.1182 14.6212 29.4402 13.9432C29.0036 13.5066 28.4668 13.1932 27.8839 13.0254ZM25.4706 21.8905C25.7437 20.8907 25.884 19.8541 25.8839 18.8072V18.807V12.8844H2.50098V18.807V18.8072C2.50062 21.0453 3.14258 23.2366 4.35064 25.1207C5.51985 26.9443 7.1718 28.406 9.12094 29.3446H19.2639C21.213 28.406 22.865 26.9443 24.0342 25.1207C24.637 24.1806 25.0989 23.1639 25.4103 22.1032C25.4226 22.0292 25.443 21.958 25.4706 21.8905Z" fill="#111827"/>
</svg>
