<svg width="33" height="32" viewBox="0 0 33 32" fill="none" xmlns="http://www.w3.org/2000/svg">
<g clip-path="url(#clip0_341_276)">
<path fill-rule="evenodd" clip-rule="evenodd" d="M15.0479 16.1801L15.0491 16.1796C15.6264 15.9421 16.3038 15.6712 17.049 15.3733C19.9984 14.1941 24.0089 12.5906 27.0739 10.9498L27.0753 10.9491C28.2469 10.323 28.9494 9.6702 29.3681 9.02209C29.7769 8.3892 30.0002 7.62999 30.0002 6.63359C30.0002 4.07636 27.9265 2.00269 25.3693 2.00269H10.0239C5.86708 2.00269 2.5 5.37174 2.5 9.52662C2.5 13.6048 5.52258 17.0506 10.8688 17.0506C11.5765 17.0506 13.0067 17.0214 15.0479 16.1801ZM28.0178 12.713C30.7886 11.2326 32.0002 9.27128 32.0002 6.63359C32.0002 2.97179 29.0311 0.00268555 25.3693 0.00268555H10.0239C4.76214 0.00268555 0.5 4.26754 0.5 9.52662C0.5 14.7857 4.49593 19.0506 10.8688 19.0506C11.7299 19.0506 13.444 19.0044 15.81 18.0292C16.355 17.805 17.0064 17.5446 17.7315 17.2549L17.7317 17.2548C20.6785 16.0771 24.8415 14.4135 28.0178 12.713ZM22.2319 17.7112L17.3993 19.716C15.0169 20.7048 13.4658 23.0301 13.4658 25.608C13.4658 29.1313 16.3208 31.9863 19.8441 31.989H25.076C29.1752 31.9917 32.5001 28.6668 32.5001 24.5676C32.5001 19.2759 27.1188 15.682 22.2319 17.7112ZM19.8446 29.989H19.8456H25.076H25.0773C28.0706 29.991 30.5001 27.5624 30.5001 24.5676C30.5001 20.7013 26.568 18.0763 22.9988 19.5583L22.9982 19.5586L18.166 21.5632L18.1656 21.5633C16.5306 22.2421 15.4658 23.8381 15.4658 25.608C15.4658 28.0261 17.4249 29.9866 19.8446 29.989ZM2.50537 25.7957C2.50537 23.8686 4.06835 22.3057 5.99535 22.3057C7.92236 22.3057 9.48534 23.8686 9.48534 25.7957V26.5074C9.48534 28.4344 7.92237 29.9973 5.99535 29.9973C4.06834 29.9973 2.50537 28.4344 2.50537 26.5074V25.7957ZM5.99535 20.3057C2.96378 20.3057 0.505371 22.7641 0.505371 25.7957V26.5074C0.505371 29.5389 2.96378 31.9973 5.99535 31.9973C9.02693 31.9973 11.4853 29.5389 11.4853 26.5074V25.7957C11.4853 22.7641 9.02693 20.3057 5.99535 20.3057Z" fill="#111827"/>
</g>
<defs>
<clipPath id="clip0_341_276">
<rect width="32" height="32" fill="white" transform="translate(0.5)"/>
</clipPath>
</defs>
</svg>
