<svg width="32" height="32" viewBox="0 0 32 32" fill="none" xmlns="http://www.w3.org/2000/svg">
<path d="M18.6245 16C18.6245 9.37258 16.1449 4 13.0861 4C10.0273 4 7.54761 9.37258 7.54761 16C7.54761 22.6274 10.0273 28 13.0861 28C16.1449 28 18.6245 22.6274 18.6245 16Z" stroke="#1C1B1F" stroke-width="2" stroke-linecap="round" stroke-linejoin="round"/>
<path d="M18.6245 16L24.163 16" stroke="#1C1B1F" stroke-width="2" stroke-linecap="round" stroke-linejoin="round"/>
<path d="M13.377 28L18.2834 28C19.5225 28 20.7568 27.5675 21.4866 26.5661C25.2543 21.3962 25.612 11.2294 21.5192 5.52025C20.7675 4.47162 19.4882 4 18.1979 4L13.377 4" stroke="#1C1B1F" stroke-width="2" stroke-linecap="round"/>
<path d="M17.4829 8.61548L23.0214 8.61548" stroke="#1C1B1F" stroke-width="2" stroke-linecap="round" stroke-linejoin="round"/>
<path d="M17.4829 23.3845L23.0214 23.3845" stroke="#1C1B1F" stroke-width="2" stroke-linecap="round" stroke-linejoin="round"/>
</svg>
