<svg width="32" height="33" viewBox="0 0 32 33" fill="none" xmlns="http://www.w3.org/2000/svg">
<path d="M18.6245 16.5C18.6245 9.87258 16.1449 4.5 13.0861 4.5C10.0273 4.5 7.54761 9.87258 7.54761 16.5C7.54761 23.1274 10.0273 28.5 13.0861 28.5C16.1449 28.5 18.6245 23.1274 18.6245 16.5Z" stroke="#1C1B1F" stroke-width="2" stroke-linecap="round" stroke-linejoin="round"/>
<path d="M18.6245 16.5L24.163 16.5" stroke="#1C1B1F" stroke-width="2" stroke-linecap="round" stroke-linejoin="round"/>
<path d="M13.377 28.5L18.2834 28.5C19.5225 28.5 20.7568 28.0675 21.4866 27.0661C25.2543 21.8962 25.612 11.7294 21.5192 6.02025C20.7675 4.97162 19.4882 4.5 18.1979 4.5L13.377 4.5" stroke="#1C1B1F" stroke-width="2" stroke-linecap="round"/>
<path d="M17.4829 9.11548L23.0214 9.11548" stroke="#1C1B1F" stroke-width="2" stroke-linecap="round" stroke-linejoin="round"/>
<path d="M17.4829 23.8845L23.0214 23.8845" stroke="#1C1B1F" stroke-width="2" stroke-linecap="round" stroke-linejoin="round"/>
</svg>
