<svg width="32" height="33" viewBox="0 0 32 33" fill="none" xmlns="http://www.w3.org/2000/svg">
<path d="M12.5714 15.9525C17.3053 15.9525 21.1428 14.1923 21.1428 12.0209C21.1428 9.84958 17.3053 8.08936 12.5714 8.08936C7.83755 8.08936 4 9.84958 4 12.0209C4 14.1923 7.83755 15.9525 12.5714 15.9525Z" stroke="#1C1B1F" stroke-width="2" stroke-linecap="round" stroke-linejoin="round"/>
<path d="M12.5713 15.9524V19.884" stroke="#1C1B1F" stroke-width="2" stroke-linecap="round" stroke-linejoin="round"/>
<path d="M4 12.2273V15.1428C4 16.3872 4.43551 17.6395 5.49149 18.298C9.14743 20.5778 15.5953 20.781 19.5675 18.3317C20.6703 17.6516 21.1428 16.3528 21.1428 15.0572V12.2273" stroke="#1C1B1F" stroke-width="2" stroke-linecap="round"/>
<path d="M17.8462 15.1421V19.0737" stroke="#1C1B1F" stroke-width="2" stroke-linecap="round" stroke-linejoin="round"/>
<path d="M7.29663 15.1421V19.0737" stroke="#1C1B1F" stroke-width="2" stroke-linecap="round" stroke-linejoin="round"/>
<path d="M20.9487 12.9724C24.9574 13.3015 27.9999 14.9089 27.9999 16.8423C27.9999 19.0137 24.1624 20.7739 19.4285 20.7739C17.6295 20.7739 15.96 20.5197 14.5813 20.0853" stroke="#1C1B1F" stroke-width="2" stroke-linecap="round" stroke-linejoin="round"/>
<path d="M19.4285 20.7739V24.7055" stroke="#1C1B1F" stroke-width="2" stroke-linecap="round" stroke-linejoin="round"/>
<path d="M28 17.0488V19.8787C28 21.1743 27.5275 22.4732 26.4247 23.1532C22.4115 25.6278 15.8715 25.3949 12.2366 23.0484C11.2624 22.4195 10.8572 21.2559 10.8572 20.0964V20.0964" stroke="#1C1B1F" stroke-width="2" stroke-linecap="round"/>
<path d="M24.7031 19.9636V23.8952" stroke="#1C1B1F" stroke-width="2" stroke-linecap="round" stroke-linejoin="round"/>
<path d="M14.1538 20.0894L14.1538 23.8952" stroke="#1C1B1F" stroke-width="2" stroke-linecap="round" stroke-linejoin="round"/>
</svg>
