<svg width="33" height="33" viewBox="0 0 33 33" fill="none" xmlns="http://www.w3.org/2000/svg">
<path fill-rule="evenodd" clip-rule="evenodd" d="M8.87062 26.687C10.0893 29.3274 11.5712 30.4991 12.8577 30.4991C14.1442 30.4991 15.6262 29.3274 16.8448 26.687C18.0227 24.1348 18.7784 20.5403 18.7804 16.5159L18.7802 16.5001L18.7804 16.4843C18.7784 12.4598 18.0227 8.86528 16.8448 6.31317C15.6262 3.67277 14.1442 2.50098 12.8577 2.50098C11.5712 2.50098 10.0893 3.67277 8.87062 6.31317C7.69118 8.86861 6.93506 12.4692 6.93506 16.5001C6.93506 20.5309 7.69118 24.1315 8.87062 26.687ZM19.689 24.7302C20.3081 22.5894 20.6883 20.1245 20.7657 17.5001H26.0448C25.9486 20.0544 25.5055 22.5372 24.7569 24.7302H19.689ZM19.0035 26.7302C18.8936 27.003 18.7793 27.2682 18.6607 27.5251C18.1421 28.6488 17.5109 29.6747 16.7761 30.4991H19.8351C20.8622 30.4991 21.7565 30.1395 22.2813 29.4722C22.9106 28.6722 23.4687 27.7484 23.95 26.7302H19.0035ZM13.1034 32.4923C13.0221 32.4968 12.9402 32.4991 12.8577 32.4991C10.3209 32.4991 8.34156 30.3133 7.0547 27.5251C5.72863 24.6519 4.93506 20.753 4.93506 16.5001C4.93506 12.2471 5.72863 8.3482 7.0547 5.47505C8.34156 2.68684 10.3209 0.500977 12.8577 0.500977C12.9402 0.500977 13.0221 0.503287 13.1034 0.507854C13.142 0.503312 13.1814 0.500977 13.2213 0.500977L19.7496 0.500977C21.2659 0.500977 22.869 1.06049 23.8916 2.38839C26.8402 6.21701 28.1302 11.6232 28.0622 16.8358C27.9942 22.0438 26.5677 27.2579 23.8533 30.7087C22.8459 31.9894 21.2863 32.4991 19.8351 32.4991H13.2213C13.1814 32.4991 13.142 32.4968 13.1034 32.4923ZM16.7761 2.50098C17.5109 3.32537 18.1421 4.35129 18.6607 5.47505C18.7792 5.73182 18.8935 5.99679 19.0033 6.26946L23.934 6.26946C23.469 5.30765 22.927 4.41366 22.3071 3.60872C21.7552 2.89218 20.8139 2.50098 19.7496 2.50098H16.7761ZM20.7657 15.5001C20.6883 12.8755 20.308 10.4103 19.6889 8.26946L24.7589 8.26946C25.5366 10.5025 25.9637 12.9822 26.0488 15.5001H20.7657Z" fill="#111827"/>
</svg>
