<svg width="33" height="32" viewBox="0 0 33 32" fill="none" xmlns="http://www.w3.org/2000/svg">
<path fill-rule="evenodd" clip-rule="evenodd" d="M4.00073 31.999C3.44845 31.999 3.00073 31.5513 3.00073 30.999V1.00085C3.00073 0.44857 3.44845 0.000854492 4.00073 0.000854492H14.0001C14.5524 0.000854492 15.0001 0.44857 15.0001 1.00085V30.999C15.0001 31.5513 14.5524 31.999 14.0001 31.999H4.00073ZM5.00073 2.00085V29.999H13.0001V2.00085H5.00073ZM18.9998 31.999C18.4475 31.999 17.9998 31.5513 17.9998 30.999V1.00085C17.9998 0.44857 18.4475 0.000854492 18.9998 0.000854492H28.9992C29.5515 0.000854492 29.9992 0.44857 29.9992 1.00085V30.999C29.9992 31.5513 29.5515 31.999 28.9992 31.999H18.9998ZM19.9998 2.00085V29.999H27.9992V2.00085H19.9998Z" fill="#111827"/>
</svg>
