<svg width="33" height="32" viewBox="0 0 33 32" fill="none" xmlns="http://www.w3.org/2000/svg">
<g clip-path="url(#clip0_257_971)">
<path d="M14.4516 0.636381C13.6031 -0.212127 12.2274 -0.212127 11.3789 0.636381C10.5304 1.48489 10.5304 2.86059 11.3789 3.7091L28.4495 20.7798C29.298 21.6283 30.6737 21.6283 31.5222 20.7798C32.3708 19.9313 32.3708 18.5555 31.5222 17.707L14.4516 0.636381Z" fill="black"/>
<path d="M1.13638 10.8787C1.98489 10.0302 3.36059 10.0302 4.2091 10.8787L21.2798 27.9494C22.1283 28.7979 22.1283 30.1736 21.2798 31.0221C20.4313 31.8706 19.0555 31.8706 18.207 31.0221L1.13638 13.9515C0.287873 13.103 0.287873 11.7273 1.13638 10.8787Z" fill="black"/>
<path d="M11.7202 11.2202C12.5687 10.3717 13.9445 10.3717 14.793 11.2202L31.8636 28.2909C32.7121 29.1394 32.7121 30.5151 31.8636 31.3636C31.0151 32.2121 29.6394 32.2121 28.7909 31.3636L11.7202 14.293C10.8717 13.4445 10.8717 12.0687 11.7202 11.2202Z" fill="black"/>
</g>
<defs>
<clipPath id="clip0_257_971">
<rect width="32" height="32" fill="white" transform="translate(0.5)"/>
</clipPath>
</defs>
</svg>
