<svg width="33" height="32" viewBox="0 0 33 32" fill="none" xmlns="http://www.w3.org/2000/svg">
<path fill-rule="evenodd" clip-rule="evenodd" d="M6.75119 0.00189209C10.2026 0.00189209 13.0005 2.79982 13.0005 6.25125V10.5006H19.9995V6.25125C19.9995 2.79982 22.7974 0.00189209 26.2488 0.00189209C29.7002 0.00189209 32.4982 2.79982 32.4982 6.25125C32.4982 9.70267 29.7002 12.5006 26.2488 12.5006H21.9994V19.4994H26.2488C29.7002 19.4994 32.4982 22.2974 32.4982 25.7488C32.4982 29.2002 29.7002 31.9982 26.2488 31.9982C22.7974 31.9982 19.9995 29.2002 19.9995 25.7488V21.4995H13.0005V25.7488C13.0005 29.2002 10.2026 31.9982 6.75119 31.9982C3.29976 31.9982 0.501831 29.2002 0.501831 25.7488C0.501831 22.2974 3.29976 19.4994 6.75119 19.4994H11.0005V12.5006H6.75119C3.29976 12.5006 0.501831 9.70267 0.501831 6.25125C0.501831 2.79982 3.29976 0.00189209 6.75119 0.00189209ZM11.0005 6.25125C11.0005 3.90439 9.09804 2.00189 6.75119 2.00189C4.40433 2.00189 2.50183 3.90439 2.50183 6.25125C2.50183 8.5981 4.40433 10.5006 6.75119 10.5006H11.0005V6.25125ZM26.2488 2.00189C23.902 2.00189 21.9995 3.90439 21.9995 6.25125V10.5006H26.2488C28.5957 10.5006 30.4982 8.5981 30.4982 6.25125C30.4982 3.90439 28.5957 2.00189 26.2488 2.00189ZM13.0005 12.5006V19.4995H19.9994V12.5006H13.0005ZM26.2488 29.9982C23.902 29.9982 21.9995 28.0957 21.9995 25.7488V21.4994H26.2488C28.5957 21.4994 30.4982 23.4019 30.4982 25.7488C30.4982 28.0957 28.5957 29.9982 26.2488 29.9982ZM11.0005 25.7488C11.0005 28.0957 9.09804 29.9982 6.75119 29.9982C4.40433 29.9982 2.50183 28.0957 2.50183 25.7488C2.50183 23.4019 4.40433 21.4994 6.75119 21.4994H11.0005V25.7488Z" fill="#111827"/>
</svg>
