<svg width="33" height="32" viewBox="0 0 33 32" fill="none" xmlns="http://www.w3.org/2000/svg">
<path fill-rule="evenodd" clip-rule="evenodd" d="M2.50085 16C2.50085 8.26852 8.76846 2.00092 16.4999 2.00092C24.2314 2.00092 30.499 8.26852 30.499 16C30.499 23.7315 24.2314 29.9991 16.4999 29.9991C8.76846 29.9991 2.50085 23.7315 2.50085 16ZM16.4999 0.000915527C7.66389 0.000915527 0.500854 7.16395 0.500854 16C0.500854 24.8361 7.66389 31.9991 16.4999 31.9991C25.336 31.9991 32.499 24.8361 32.499 16C32.499 7.16395 25.336 0.000915527 16.4999 0.000915527ZM24.4513 9.35427C24.6229 8.97477 24.5413 8.52867 24.2465 8.23448C23.9517 7.94029 23.5054 7.85962 23.1262 8.03197L13.4339 12.4381C13.207 12.5413 13.0267 12.7254 12.9286 12.9545L8.9513 22.2348C8.79023 22.6106 8.8742 23.0466 9.16334 23.3358C9.45247 23.6249 9.88851 23.7089 10.2644 23.5478L19.5446 19.5707C19.7743 19.4723 19.9589 19.2913 20.0619 19.0635L24.4513 9.35427ZM11.7744 20.7248L14.6142 14.0985L21.5337 10.9529L18.3995 17.8855L11.7744 20.7248Z" fill="#111827"/>
</svg>
