<svg width="33" height="32" viewBox="0 0 33 32" fill="none" xmlns="http://www.w3.org/2000/svg">
<path fill-rule="evenodd" clip-rule="evenodd" d="M5.2507 0.000915527C4.69842 0.000915527 4.2507 0.448631 4.2507 1.00092V30.9991C4.2507 31.5514 4.69842 31.9991 5.2507 31.9991H27.7493C28.3016 31.9991 28.7493 31.5514 28.7493 30.9991V1.00092C28.7493 0.448631 28.3016 0.000915527 27.7493 0.000915527H5.2507ZM6.2507 29.9991V2.00092H26.7493V29.9991H6.2507ZM11.5003 6.25053C10.948 6.25053 10.5003 6.69824 10.5003 7.25053C10.5003 7.80281 10.948 8.25053 11.5003 8.25053H21.4997C22.052 8.25053 22.4997 7.80281 22.4997 7.25053C22.4997 6.69824 22.052 6.25053 21.4997 6.25053H11.5003ZM11.5003 11.2502C10.948 11.2502 10.5003 11.6979 10.5003 12.2502C10.5003 12.8025 10.948 13.2502 11.5003 13.2502H21.4997C22.052 13.2502 22.4997 12.8025 22.4997 12.2502C22.4997 11.6979 22.052 11.2502 21.4997 11.2502H11.5003ZM16.5 25.9994C17.5355 25.9994 18.3749 25.16 18.3749 24.1245C18.3749 23.0891 17.5355 22.2497 16.5 22.2497C15.4645 22.2497 14.6251 23.0891 14.6251 24.1245C14.6251 25.16 15.4645 25.9994 16.5 25.9994Z" fill="#111827"/>
</svg>
