<svg width="33" height="32" viewBox="0 0 33 32" fill="none" xmlns="http://www.w3.org/2000/svg">
<path fill-rule="evenodd" clip-rule="evenodd" d="M13.3735 2.19713C13.8518 1.92099 14.4634 2.08486 14.7396 2.56316L16.0368 4.81002C16.7237 4.68073 17.4318 4.6132 18.1549 4.6132C18.8779 4.6132 19.5859 4.68071 20.2727 4.80998L21.5699 2.56315C21.7025 2.33347 21.921 2.16587 22.1771 2.09723C22.4333 2.02858 22.7063 2.06452 22.936 2.19713L27.7179 4.95796C28.1962 5.23411 28.36 5.8457 28.0839 6.32399L26.7858 8.57241C27.7051 9.63982 28.4303 10.8804 28.9056 12.2393H31.4992C32.0515 12.2393 32.4992 12.687 32.4992 13.2393V18.7609C32.4992 19.3132 32.0515 19.7609 31.4992 19.7609H28.9054C28.43 21.1197 27.7048 22.3601 26.7856 23.4275L28.0838 25.6761C28.36 26.1544 28.1961 26.766 27.7178 27.0422L22.9359 29.803C22.7062 29.9356 22.4333 29.9716 22.1771 29.9029C21.9209 29.8343 21.7025 29.6667 21.5699 29.437L20.2724 27.1897C19.5857 27.3189 18.8778 27.3864 18.1549 27.3864C17.4319 27.3864 16.7239 27.3189 16.0371 27.1897L14.7396 29.437C14.607 29.6667 14.3886 29.8343 14.1324 29.9029C13.8762 29.9715 13.6033 29.9356 13.3736 29.803L8.59167 27.0422C8.36199 26.9096 8.19439 26.6911 8.12575 26.435C8.0571 26.1788 8.09304 25.9058 8.22565 25.6761L9.52402 23.4273C8.65576 22.4192 7.96066 21.2566 7.48571 19.9858H9.6539C10.1092 20.9551 10.7258 21.8343 11.4696 22.5889C11.7855 22.9093 11.8485 23.4013 11.6235 23.7909L10.4577 25.8101L13.5076 27.571L14.6721 25.554C14.8969 25.1646 15.354 24.9731 15.7893 25.0861C16.5439 25.2819 17.3365 25.3864 18.1549 25.3864C18.9732 25.3864 19.7656 25.2819 20.5202 25.0861C20.9555 24.9732 21.4126 25.1646 21.6375 25.554L22.8019 27.571L25.8518 25.8101L24.6861 23.7911C24.4611 23.4014 24.5241 22.9095 24.8399 22.589C25.9494 21.4636 26.7758 20.0608 27.2063 18.4957C27.3257 18.0617 27.7203 17.7609 28.1705 17.7609H30.4992V14.2393H28.1706C27.7205 14.2393 27.3258 13.9385 27.2064 13.5044C26.776 11.9393 25.9496 10.5363 24.8402 9.41078C24.5243 9.09035 24.4613 8.59844 24.6863 8.20879L25.8518 6.19001L22.802 4.42918L21.6378 6.44566C21.4129 6.8351 20.9558 7.02656 20.5205 6.91358C19.7658 6.71771 18.9733 6.6132 18.1549 6.6132C17.3364 6.6132 16.5438 6.71773 15.789 6.91363C15.3537 7.02661 14.8966 6.83515 14.6717 6.44571L13.5075 4.42918L10.4576 6.19002L11.6233 8.20893C11.8482 8.59858 11.7853 9.09048 11.4694 9.41091C10.7421 10.1489 10.1364 11.006 9.6842 11.9499H7.50979C7.98399 10.7041 8.67021 9.56371 9.52381 8.57257L8.22559 6.32399C7.94945 5.8457 8.11332 5.23411 8.59161 4.95797L13.3735 2.19713ZM18.0475 11.4936C19.3694 11.4936 20.5595 12.0629 21.3845 12.971H19.3507C17.6779 12.971 16.3218 14.3271 16.3218 15.9999C16.3218 17.6728 17.6779 19.0288 19.3507 19.0288H21.3847C20.5598 19.9371 19.3696 20.5066 18.0475 20.5066C16.2945 20.5066 14.7734 19.5057 14.0278 18.0399C14.0229 18.0299 14.0179 18.0199 14.0127 18.01L14.0066 17.9977C13.792 17.5647 13.3058 17.3556 12.8561 17.4744H3.97521C3.16095 17.4744 2.50085 16.8143 2.50085 16C2.50085 15.1857 3.16095 14.5256 3.97521 14.5256L13.1268 14.5256C13.5281 14.5256 13.8742 14.2893 14.0335 13.9482C14.0378 13.9402 14.0421 13.9322 14.0464 13.9242C14.7986 12.4778 16.309 11.4936 18.0475 11.4936ZM23.5352 14.893C23.4138 14.9414 23.2885 14.9642 23.1652 14.9642V14.971L19.3507 14.971C18.7825 14.971 18.3218 15.4317 18.3218 15.9999C18.3218 16.5682 18.7825 17.0288 19.3507 17.0288H23.1652V17.036C23.2885 17.0359 23.4138 17.0588 23.5352 17.1072C24.0483 17.3115 24.2986 17.8931 24.0943 18.4062C23.1384 20.8069 20.7926 22.5066 18.0475 22.5066C15.7303 22.5066 13.6975 21.2951 12.5455 19.4744L3.97521 19.4744C2.05638 19.4744 0.500854 17.9188 0.500854 16C0.500854 14.0812 2.05638 12.5256 3.97521 12.5256L12.5455 12.5256C13.6975 10.7051 15.7303 9.4936 18.0475 9.4936C20.7926 9.4936 23.1384 11.1933 24.0943 13.594C24.2986 14.1071 24.0483 14.6887 23.5352 14.893Z" fill="#111827"/>
</svg>
