<svg width="33" height="32" viewBox="0 0 33 32" fill="none" xmlns="http://www.w3.org/2000/svg">
<path fill-rule="evenodd" clip-rule="evenodd" d="M18.6395 1.00073C18.6395 0.448448 18.1918 0.000732422 17.6395 0.000732422C17.0873 0.000732422 16.6395 0.448448 16.6395 1.00073V4.52188C16.6395 5.07416 17.0873 5.52188 17.6395 5.52188C18.1918 5.52188 18.6395 5.07416 18.6395 4.52188V1.00073ZM28.2031 1.17442C28.7554 1.17442 29.2031 1.62213 29.2031 2.17442H28.2031C29.2031 2.17442 29.2031 2.17492 29.2031 2.17543L29.2031 2.17654L29.2031 2.17899L29.2031 2.1849L29.2029 2.20064C29.2027 2.21285 29.2023 2.22847 29.2017 2.24727C29.2005 2.28486 29.1981 2.33536 29.1937 2.39696C29.1849 2.51983 29.1679 2.68882 29.1345 2.88899C29.0686 3.28459 28.9348 3.82734 28.6574 4.3822C28.378 4.94097 27.9432 5.53017 27.2723 5.97743C26.5952 6.42887 25.7372 6.69556 24.682 6.69556C23.9767 6.69556 23.5142 6.86901 23.201 7.07779C22.8816 7.29074 22.6562 7.58183 22.4954 7.90335C22.3327 8.22878 22.2463 8.56631 22.2022 8.83092C22.1806 8.96086 22.1701 9.06696 22.1652 9.13665C22.1627 9.17133 22.1616 9.19648 22.1611 9.21048L22.1608 9.2225C22.1577 9.77212 21.7112 10.2167 21.1608 10.2167C20.6085 10.2167 20.1608 9.76899 20.1608 9.21671H21.1608C20.1608 9.21671 20.1608 9.2162 20.1608 9.21569L20.1608 9.21458L20.1608 9.21213L20.1609 9.20622L20.1611 9.19048C20.1613 9.17827 20.1616 9.16265 20.1622 9.14385C20.1635 9.10626 20.1658 9.05576 20.1702 8.99416C20.179 8.87129 20.1961 8.7023 20.2295 8.50213C20.2954 8.10653 20.4291 7.56378 20.7065 7.00892C20.9859 6.45015 21.4207 5.86095 22.0916 5.41369C22.7688 4.96225 23.6267 4.69556 24.682 4.69556C25.3873 4.69556 25.8498 4.52211 26.1629 4.31333C26.4824 4.10038 26.7078 3.80929 26.8685 3.48777C27.0313 3.16235 27.1176 2.82481 27.1617 2.5602C27.1834 2.43026 27.1938 2.32416 27.1988 2.25447C27.2013 2.21979 27.2023 2.19464 27.2028 2.18064L27.2031 2.16861C27.2063 1.619 27.6528 1.17442 28.2031 1.17442ZM5.22072 22.86L2.91793 29.3589L9.42354 27.0628L5.22072 22.86ZM11.5141 26.3249L5.96071 20.7716L7.98433 15.0605L17.231 24.3072L11.5141 26.3249ZM11.7184 28.3737L27.1723 22.9193C27.4967 22.8048 27.7395 22.5317 27.8151 22.1961C27.8907 21.8605 27.7884 21.5096 27.5445 21.2671L11.0034 4.82616C10.7603 4.58457 10.4105 4.48427 10.0763 4.56038C9.7422 4.63649 9.47031 4.8784 9.35585 5.20142L0.333328 30.665C0.204636 31.0282 0.296068 31.433 0.568366 31.7056C0.840663 31.9783 1.24538 32.0702 1.60873 31.9419L11.4618 28.4643C11.5502 28.4462 11.6366 28.416 11.7184 28.3737ZM19.3216 23.5693L25.0054 21.5632L10.7136 7.35796L8.72433 12.972L19.3216 23.5693ZM27.4956 14.3781C27.8861 13.9875 28.5193 13.9875 28.9098 14.3781L31.2572 16.7255C31.6477 17.116 31.6477 17.7492 31.2572 18.1397C30.8667 18.5302 30.2335 18.5302 29.843 18.1397L27.4956 15.7923C27.1051 15.4018 27.1051 14.7686 27.4956 14.3781ZM32.0401 10.1654C32.564 9.99079 32.8472 9.42447 32.6725 8.90053C32.4979 8.37659 31.9315 8.09343 31.4076 8.26807L27.8865 9.44179C27.3625 9.61644 27.0794 10.1828 27.254 10.7067C27.4286 11.2306 27.995 11.5138 28.5189 11.3392L32.0401 10.1654Z" fill="#111827"/>
</svg>
