<svg width="33" height="32" viewBox="0 0 33 32" fill="none" xmlns="http://www.w3.org/2000/svg">
<path d="M16.5003 0C17.8482 0 18.941 1.09273 18.941 2.44068V11.3114L26.2074 6.22338C27.3116 5.45022 28.8335 5.71857 29.6066 6.82275C30.3798 7.92692 30.1114 9.4488 29.0072 10.2219L20.7553 16L29.0072 21.7781C30.1114 22.5512 30.3798 24.0731 29.6066 25.1773C28.8335 26.2814 27.3116 26.5498 26.2074 25.7766L18.941 20.6886V29.5593C18.941 30.9073 17.8482 32 16.5003 32C15.1523 32 14.0596 30.9073 14.0596 29.5593V20.6884L6.79295 25.7766C5.68878 26.5497 4.1669 26.2814 3.39375 25.1772C2.6206 24.073 2.88894 22.5511 3.99312 21.778L12.2449 16L3.99312 10.222C2.88894 9.44886 2.6206 7.92698 3.39375 6.82281C4.1669 5.71863 5.68878 5.45028 6.79295 6.22344L14.0596 11.3116V2.44068C14.0596 1.09273 15.1523 0 16.5003 0Z" fill="#111827"/>
</svg>
