<svg width="33" height="33" viewBox="0 0 33 33" fill="none" xmlns="http://www.w3.org/2000/svg">
<path fill-rule="evenodd" clip-rule="evenodd" d="M18.6395 1.50073C18.6395 0.948448 18.1918 0.500732 17.6395 0.500732C17.0873 0.500732 16.6395 0.948448 16.6395 1.50073V5.02188C16.6395 5.57416 17.0873 6.02188 17.6395 6.02188C18.1918 6.02188 18.6395 5.57416 18.6395 5.02188V1.50073ZM28.2031 1.67442C28.7554 1.67442 29.2031 2.12213 29.2031 2.67442H28.2031C29.2031 2.67442 29.2031 2.67492 29.2031 2.67543L29.2031 2.67654L29.2031 2.67899L29.2031 2.6849L29.2029 2.70064C29.2027 2.71285 29.2023 2.72847 29.2017 2.74727C29.2005 2.78486 29.1981 2.83536 29.1937 2.89696C29.1849 3.01983 29.1679 3.18882 29.1345 3.38899C29.0686 3.78459 28.9348 4.32734 28.6574 4.8822C28.378 5.44097 27.9432 6.03017 27.2723 6.47743C26.5952 6.92887 25.7372 7.19556 24.682 7.19556C23.9767 7.19556 23.5142 7.36901 23.201 7.57779C22.8816 7.79074 22.6562 8.08183 22.4954 8.40335C22.3327 8.72878 22.2463 9.06631 22.2022 9.33092C22.1806 9.46086 22.1701 9.56696 22.1652 9.63665C22.1627 9.67133 22.1616 9.69648 22.1611 9.71048L22.1608 9.7225C22.1577 10.2721 21.7112 10.7167 21.1608 10.7167C20.6085 10.7167 20.1608 10.269 20.1608 9.71671H21.1608C20.1608 9.71671 20.1608 9.7162 20.1608 9.71569L20.1608 9.71458L20.1608 9.71213L20.1609 9.70622L20.1611 9.69048C20.1613 9.67827 20.1616 9.66265 20.1622 9.64385C20.1635 9.60626 20.1658 9.55576 20.1702 9.49416C20.179 9.37129 20.1961 9.2023 20.2295 9.00213C20.2954 8.60653 20.4291 8.06378 20.7065 7.50892C20.9859 6.95015 21.4207 6.36095 22.0916 5.91369C22.7688 5.46225 23.6267 5.19556 24.682 5.19556C25.3873 5.19556 25.8498 5.02211 26.1629 4.81333C26.4824 4.60038 26.7078 4.30929 26.8685 3.98777C27.0313 3.66235 27.1176 3.32481 27.1617 3.0602C27.1834 2.93026 27.1938 2.82416 27.1988 2.75447C27.2013 2.71979 27.2023 2.69464 27.2028 2.68064L27.2031 2.66861C27.2063 2.119 27.6528 1.67442 28.2031 1.67442ZM5.22072 23.36L2.91793 29.8589L9.42354 27.5628L5.22072 23.36ZM11.5141 26.8249L5.96071 21.2716L7.98433 15.5605L17.231 24.8072L11.5141 26.8249ZM11.7184 28.8737L27.1723 23.4193C27.4967 23.3048 27.7395 23.0317 27.8151 22.6961C27.8907 22.3605 27.7884 22.0096 27.5445 21.7671L11.0034 5.32616C10.7603 5.08457 10.4105 4.98427 10.0763 5.06038C9.7422 5.13649 9.47031 5.3784 9.35585 5.70142L0.333328 31.165C0.204636 31.5282 0.296068 31.933 0.568366 32.2056C0.840663 32.4783 1.24538 32.5702 1.60873 32.4419L11.4618 28.9643C11.5502 28.9462 11.6366 28.916 11.7184 28.8737ZM19.3216 24.0693L25.0054 22.0632L10.7136 7.85796L8.72433 13.472L19.3216 24.0693ZM27.4956 14.8781C27.8861 14.4875 28.5193 14.4875 28.9098 14.8781L31.2572 17.2255C31.6477 17.616 31.6477 18.2492 31.2572 18.6397C30.8667 19.0302 30.2335 19.0302 29.843 18.6397L27.4956 16.2923C27.1051 15.9018 27.1051 15.2686 27.4956 14.8781ZM32.0401 10.6654C32.564 10.4908 32.8472 9.92447 32.6725 9.40053C32.4979 8.87659 31.9315 8.59343 31.4076 8.76807L27.8865 9.94179C27.3625 10.1164 27.0794 10.6828 27.254 11.2067C27.4286 11.7306 27.995 12.0138 28.5189 11.8392L32.0401 10.6654Z" fill="#111827"/>
</svg>
