<svg width="33" height="32" viewBox="0 0 33 32" fill="none" xmlns="http://www.w3.org/2000/svg">
<path fill-rule="evenodd" clip-rule="evenodd" d="M21.8129 2.27712C22.069 2.20848 22.342 2.24441 22.5717 2.37702L27.287 5.09943C27.7653 5.37557 27.9292 5.98716 27.6531 6.46546L26.3779 8.67407C27.2804 9.72379 27.9929 10.9427 28.4611 12.2775H31.0087C31.5609 12.2775 32.0087 12.7252 32.0087 13.2775V18.7223C32.0087 19.2746 31.5609 19.7223 31.0087 19.7223H28.4609C27.9926 21.057 27.2802 22.2758 26.3777 23.3255L27.6531 25.5344C27.9292 26.0127 27.7653 26.6243 27.287 26.9004L22.5717 29.6228C22.0934 29.899 21.4818 29.7351 21.2057 29.2568L19.9312 27.0493C19.2561 27.1757 18.5604 27.2417 17.8501 27.2417C17.1398 27.2417 16.444 27.1757 15.769 27.0493L14.4945 29.2568C14.2184 29.7351 13.6068 29.8989 13.1285 29.6228L8.41312 26.9004C8.18344 26.7678 8.01584 26.5494 7.9472 26.2932C7.87855 26.037 7.91449 25.764 8.0471 25.5344L9.32244 23.3254C8.46709 22.3305 7.7824 21.1836 7.3146 19.9302H9.48286C9.93091 20.8822 10.537 21.7459 11.2679 22.4873C11.5837 22.8077 11.6467 23.2997 11.4217 23.6893L10.2791 25.6683L13.2625 27.3907L14.4038 25.4139C14.6286 25.0245 15.0857 24.833 15.521 24.946C16.264 25.1388 17.0443 25.2417 17.8501 25.2417C18.6559 25.2417 19.4362 25.1388 20.1792 24.946C20.6144 24.833 21.0715 25.0245 21.2964 25.4139L22.4377 27.3908L25.421 25.6684L24.2784 23.6894C24.0535 23.2997 24.1164 22.8078 24.4323 22.4874C25.5247 21.3792 26.3383 19.998 26.7621 18.4571C26.8815 18.0231 27.2762 17.7223 27.7263 17.7223H30.0087V14.2775H27.7265C27.2763 14.2775 26.8816 13.9767 26.7623 13.5427C26.3385 12.0017 25.5249 10.6204 24.4325 9.51213C24.1166 9.1917 24.0537 8.69979 24.2786 8.31014L25.421 6.33148L22.4377 4.60907L21.2967 6.58545C21.0718 6.97489 20.6147 7.16635 20.1794 7.05337C19.4363 6.86051 18.656 6.75761 17.8501 6.75761C17.0442 6.75761 16.2638 6.86052 15.5208 7.05339C15.0855 7.16637 14.6284 6.97491 14.4035 6.58547L13.2624 4.60909L10.2791 6.33151L11.4215 8.3102C11.6465 8.69984 11.5835 9.19175 11.2677 9.51219C10.5531 10.2372 9.95772 11.0791 9.51279 12.0061H7.33832C7.80538 10.7773 8.48134 9.65227 9.32226 8.67414L8.04709 6.46548C7.77095 5.98719 7.93482 5.3756 8.41312 5.09946L13.1285 2.37704C13.3582 2.24444 13.6311 2.2085 13.8873 2.27714C14.1435 2.34579 14.3619 2.51338 14.4945 2.74307L15.7687 4.95009C16.4438 4.82364 17.1397 4.75761 17.8501 4.75761C18.5605 4.75761 19.2563 4.82363 19.9314 4.95008L21.2057 2.74304C21.3383 2.51336 21.5567 2.34576 21.8129 2.27712ZM17.7442 11.5701C19.0323 11.5701 20.1931 12.12 21.0031 12.9991L19.0294 12.9991C17.3721 12.9991 16.0287 14.3425 16.0287 15.9998C16.0287 17.657 17.3721 19.0004 19.0294 19.0004H21.0034C20.1933 19.8797 19.0324 20.4298 17.7442 20.4298C16.0218 20.4298 14.5271 19.4469 13.7938 18.0071C13.7884 17.9958 13.7828 17.9847 13.777 17.9737L13.772 17.9635C13.5577 17.5311 13.0725 17.322 12.6233 17.4398H3.86778C3.07253 17.4398 2.42786 16.7951 2.42786 15.9998C2.42786 15.2046 3.07253 14.5599 3.86778 14.5599H12.892C13.2933 14.5599 13.6394 14.3235 13.7987 13.9824C13.8029 13.9748 13.807 13.9671 13.8111 13.9593C14.5506 12.5375 16.0352 11.5701 17.7442 11.5701ZM23.1607 14.9212C23.0392 14.9695 22.914 14.9924 22.7908 14.9924V14.9991H19.0294C18.4767 14.9991 18.0287 15.4471 18.0287 15.9998C18.0287 16.5524 18.4767 17.0004 19.0294 17.0004L22.7908 17.0004V17.0075C22.914 17.0074 23.0392 17.0303 23.1607 17.0787C23.6738 17.283 23.9241 17.8646 23.7198 18.3777C22.7751 20.7501 20.457 22.4298 17.7442 22.4298C15.457 22.4298 13.4502 21.2354 12.311 19.4398H3.86778C1.96796 19.4398 0.427857 17.8997 0.427856 15.9998C0.427856 14.1 1.96796 12.5599 3.86778 12.5599H12.3111C13.4502 10.7645 15.457 9.57007 17.7442 9.57007C20.457 9.57007 22.7751 11.2498 23.7198 13.6222C23.9241 14.1353 23.6738 14.7168 23.1607 14.9212Z" fill="#111827"/>
</svg>
