<svg width="33" height="32" viewBox="0 0 33 32" fill="none" xmlns="http://www.w3.org/2000/svg">
<path fill-rule="evenodd" clip-rule="evenodd" d="M19.6346 0.126576C19.9552 -0.0515565 20.3476 -0.0398527 20.6571 0.157071L32.0169 7.38603C32.3156 7.56686 32.499 7.89105 32.499 8.24146V20.6543C32.499 21.0087 32.3114 21.3366 32.006 21.5163L14.4439 31.8469C14.4333 31.8535 14.4226 31.8599 14.4118 31.8662C14.1013 32.0445 13.7191 32.0432 13.4098 31.8628L0.996861 24.6219C0.689644 24.4427 0.500732 24.1138 0.500732 23.7581V11.3456L0.500787 11.3344C0.504557 10.975 0.700905 10.6453 1.01509 10.4707L19.6346 0.126576ZM25.3266 13.0325L21.1189 15.5076C21.1194 15.5176 21.1198 15.5277 21.12 15.5378C21.1202 15.5452 21.1202 15.5527 21.1202 15.5601V25.5993L25.3266 23.125V13.0325ZM27.3266 11.8561V21.9485L30.499 20.0824V9.98995L27.3266 11.8561ZM14.9139 19.1576L19.1202 16.6833V26.7758L14.9139 29.2501V19.1576ZM20.0855 2.16397L29.5834 8.20807L13.9114 17.4268L3.5217 11.3661L20.0855 2.16397ZM2.50073 23.1837V13.0862L12.9137 19.1604V29.258L2.50073 23.1837Z" fill="#111827"/>
</svg>
