<svg width="32" height="33" viewBox="0 0 32 33" fill="none" xmlns="http://www.w3.org/2000/svg">
<path d="M27.9995 16.434C28.0114 18.0243 27.7061 19.601 27.1014 21.0719C26.4968 22.5428 25.6048 23.8784 24.4779 25.0005C19.8597 29.6106 12.3146 29.6624 7.63668 25.1129C5.91979 23.4444 4.74125 21.3005 4.25261 18.9568C3.76396 16.6131 3.98755 14.1768 4.89463 11.9612C5.80171 9.7456 7.3508 7.85198 9.34271 6.52384C11.3346 5.1957 13.6783 4.49376 16.0723 4.50828C16.2222 4.50858 16.3702 4.54254 16.5053 4.60764C16.6403 4.67274 16.759 4.76733 16.8527 4.88444C16.9463 5.00154 17.0124 5.13816 17.0462 5.28424C17.08 5.43031 17.0806 5.5821 17.0479 5.72843C16.9167 6.31007 16.9172 6.91368 17.0494 7.49509C17.1816 8.07649 17.4422 8.62098 17.812 9.0887C18.1818 9.55642 18.6515 9.93553 19.1867 10.1983C19.722 10.461 20.3092 10.6008 20.9054 10.6073C21.1686 10.6095 21.4205 10.715 21.6066 10.9012C21.7928 11.0873 21.8983 11.3392 21.9005 11.6024C21.907 12.1986 22.0468 12.7858 22.3095 13.3211C22.5723 13.8563 22.9514 14.326 23.4191 14.6958C23.8868 15.0656 24.4313 15.3261 25.0126 15.4583C25.594 15.5906 26.1977 15.5911 26.7793 15.4599C26.9255 15.4272 27.0772 15.4277 27.2232 15.4614C27.3692 15.495 27.5058 15.561 27.6229 15.6545C27.74 15.748 27.8346 15.8666 27.8998 16.0015C27.965 16.1364 27.999 16.2842 27.9995 16.434V16.434Z" stroke="#1C1B1F" stroke-width="2" stroke-linecap="round" stroke-linejoin="round"/>
<path d="M19.5002 23.5076C20.3287 23.5076 21.0002 22.836 21.0002 22.0076C21.0002 21.1791 20.3287 20.5076 19.5002 20.5076C18.6718 20.5076 18.0002 21.1791 18.0002 22.0076C18.0002 22.836 18.6718 23.5076 19.5002 23.5076Z" fill="#1C1B1F"/>
<path d="M11.5002 22.5076C12.3287 22.5076 13.0002 21.836 13.0002 21.0076C13.0002 20.1791 12.3287 19.5076 11.5002 19.5076C10.6718 19.5076 10.0002 20.1791 10.0002 21.0076C10.0002 21.836 10.6718 22.5076 11.5002 22.5076Z" fill="#1C1B1F"/>
<path d="M10.5002 15.5076C11.3287 15.5076 12.0002 14.836 12.0002 14.0076C12.0002 13.1791 11.3287 12.5076 10.5002 12.5076C9.67182 12.5076 9.00024 13.1791 9.00024 14.0076C9.00024 14.836 9.67182 15.5076 10.5002 15.5076Z" fill="#1C1B1F"/>
<path d="M17.0002 17.5076C17.8287 17.5076 18.5002 16.836 18.5002 16.0076C18.5002 15.1791 17.8287 14.5076 17.0002 14.5076C16.1718 14.5076 15.5002 15.1791 15.5002 16.0076C15.5002 16.836 16.1718 17.5076 17.0002 17.5076Z" fill="#1C1B1F"/>
</svg>
