<svg width="33" height="33" viewBox="0 0 33 33" fill="none" xmlns="http://www.w3.org/2000/svg">
<path fill-rule="evenodd" clip-rule="evenodd" d="M14.0339 6.10034C14.0339 5.54806 13.5861 5.10034 13.0339 5.10034C12.4816 5.10034 12.0339 5.54806 12.0339 6.10034V9.56688C12.0339 10.1192 12.4816 10.5669 13.0339 10.5669C13.5861 10.5669 14.0339 10.1192 14.0339 9.56688V6.10034ZM17.5003 6.10034C17.5003 5.54806 17.0526 5.10034 16.5003 5.10034C15.948 5.10034 15.5003 5.54806 15.5003 6.10034V9.56688C15.5003 10.1192 15.948 10.5669 16.5003 10.5669C17.0526 10.5669 17.5003 10.1192 17.5003 9.56688V6.10034ZM19.9668 5.10034C20.5191 5.10034 20.9668 5.54806 20.9668 6.10034V9.56688C20.9668 10.1192 20.5191 10.5669 19.9668 10.5669C19.4145 10.5669 18.9668 10.1192 18.9668 9.56688V6.10034C18.9668 5.54806 19.4145 5.10034 19.9668 5.10034ZM30.0997 15.5666C30.5415 15.2352 30.631 14.6084 30.2997 14.1666C29.9683 13.7248 29.3415 13.6352 28.8997 13.9666L27.033 15.3666V13.0335C27.033 12.4812 26.5853 12.0335 26.033 12.0335H6.967C6.41472 12.0335 5.967 12.4812 5.967 13.0335V15.3664L4.10055 13.9666C3.65872 13.6352 3.03192 13.7248 2.70055 14.1666C2.36918 14.6084 2.45872 15.2352 2.90055 15.5666L5.967 17.8664V24.8997C5.967 26.5566 7.31015 27.8997 8.967 27.8997H24.033C25.6898 27.8997 27.033 26.5566 27.033 24.8997V17.8666L30.0997 15.5666ZM7.967 17.3841V24.8997C7.967 25.452 8.41472 25.8997 8.967 25.8997H24.033C24.5853 25.8997 25.033 25.452 25.033 24.8997V14.0335H7.967V17.3504C7.96719 17.3616 7.96719 17.3729 7.967 17.3841Z" fill="#111827"/>
</svg>
