<svg width="33" height="33" viewBox="0 0 33 33" fill="none" xmlns="http://www.w3.org/2000/svg">
<path d="M31.4996 16.4176C31.5145 18.4055 31.1328 20.3763 30.377 22.215C29.6211 24.0536 28.5062 25.7231 27.0975 27.1257C21.3247 32.8884 11.8933 32.9531 6.04587 27.2663C3.89975 25.1806 2.42657 22.5006 1.81576 19.571C1.20495 16.6414 1.48444 13.596 2.6183 10.8265C3.75215 8.05698 5.68852 5.68995 8.17842 4.02976C10.6683 2.36957 13.5979 1.49214 16.5905 1.51029C16.7779 1.51067 16.9628 1.55311 17.1317 1.63449C17.3005 1.71587 17.4489 1.83411 17.5659 1.98049C17.683 2.12686 17.7657 2.29765 17.8079 2.48024C17.8501 2.66283 17.8508 2.85258 17.81 3.03548C17.646 3.76253 17.6466 4.51706 17.8119 5.24382C17.9772 5.97059 18.3028 6.6512 18.7651 7.23585C19.2273 7.82051 19.8145 8.2944 20.4835 8.62284C21.1526 8.95129 21.8866 9.12597 22.6319 9.13411C22.9609 9.13684 23.2757 9.26877 23.5084 9.50146C23.7411 9.73415 23.873 10.049 23.8758 10.378C23.8839 11.1233 24.0586 11.8573 24.387 12.5263C24.7155 13.1954 25.1893 13.7825 25.774 14.2447C26.3586 14.707 27.0392 15.0327 27.766 15.198C28.4927 15.3632 29.2472 15.3639 29.9743 15.1999C30.1571 15.159 30.3467 15.1596 30.5292 15.2017C30.7117 15.2438 30.8824 15.3263 31.0288 15.4432C31.1751 15.56 31.2934 15.7082 31.3749 15.8769C31.4564 16.0455 31.499 16.2303 31.4996 16.4176Z" stroke="#111827" stroke-width="2" stroke-linecap="round" stroke-linejoin="round"/>
<path fill-rule="evenodd" clip-rule="evenodd" d="M9.62526 15.2595C10.6608 15.2595 11.5003 14.4201 11.5003 13.3845C11.5003 12.349 10.6608 11.5095 9.62526 11.5095C8.58972 11.5095 7.75024 12.349 7.75024 13.3845C7.75024 14.4201 8.58972 15.2595 9.62526 15.2595ZM12.7504 22.1345C12.7504 23.1701 11.9109 24.0095 10.8754 24.0095C9.83982 24.0095 9.00035 23.1701 9.00035 22.1345C9.00035 21.099 9.83982 20.2595 10.8754 20.2595C11.9109 20.2595 12.7504 21.099 12.7504 22.1345ZM22.7504 23.3845C22.7504 24.4201 21.911 25.2595 20.8754 25.2595C19.8399 25.2595 19.0004 24.4201 19.0004 23.3845C19.0004 22.349 19.8399 21.5095 20.8754 21.5095C21.911 21.5095 22.7504 22.349 22.7504 23.3845ZM19.6254 15.8845C19.6254 16.92 18.7859 17.7595 17.7504 17.7595C16.7149 17.7595 15.8754 16.92 15.8754 15.8845C15.8754 14.8489 16.7149 14.0095 17.7504 14.0095C18.7859 14.0095 19.6254 14.8489 19.6254 15.8845Z" fill="#111827"/>
</svg>
