<svg width="32" height="32" viewBox="0 0 32 32" fill="none" xmlns="http://www.w3.org/2000/svg">
<path d="M27.9995 15.934C28.0114 17.5243 27.7061 19.101 27.1014 20.5719C26.4968 22.0428 25.6048 23.3784 24.4779 24.5005C19.8597 29.1106 12.3146 29.1624 7.63668 24.6129C5.91979 22.9444 4.74125 20.8005 4.25261 18.4568C3.76396 16.1131 3.98755 13.6768 4.89463 11.4612C5.80171 9.2456 7.3508 7.35198 9.34271 6.02384C11.3346 4.6957 13.6783 3.99376 16.0723 4.00828C16.2222 4.00858 16.3702 4.04254 16.5053 4.10764C16.6403 4.17274 16.759 4.26733 16.8527 4.38444C16.9463 4.50154 17.0124 4.63816 17.0462 4.78424C17.08 4.93031 17.0806 5.0821 17.0479 5.22843C16.9167 5.81007 16.9172 6.41368 17.0494 6.99509C17.1816 7.57649 17.4422 8.12098 17.812 8.5887C18.1818 9.05642 18.6515 9.43553 19.1867 9.69829C19.722 9.96104 20.3092 10.1008 20.9054 10.1073C21.1686 10.1095 21.4205 10.215 21.6066 10.4012C21.7928 10.5873 21.8983 10.8392 21.9005 11.1024C21.907 11.6986 22.0468 12.2858 22.3095 12.8211C22.5723 13.3563 22.9514 13.826 23.4191 14.1958C23.8868 14.5656 24.4313 14.8261 25.0126 14.9583C25.594 15.0906 26.1977 15.0911 26.7793 14.9599C26.9255 14.9272 27.0772 14.9277 27.2232 14.9614C27.3692 14.995 27.5058 15.061 27.6229 15.1545C27.74 15.248 27.8346 15.3666 27.8998 15.5015C27.965 15.6364 27.999 15.7842 27.9995 15.934V15.934Z" stroke="#1C1B1F" stroke-width="2" stroke-linecap="round" stroke-linejoin="round"/>
<path d="M19.5002 23.0076C20.3287 23.0076 21.0002 22.336 21.0002 21.5076C21.0002 20.6791 20.3287 20.0076 19.5002 20.0076C18.6718 20.0076 18.0002 20.6791 18.0002 21.5076C18.0002 22.336 18.6718 23.0076 19.5002 23.0076Z" fill="#1C1B1F"/>
<path d="M11.5002 22.0076C12.3287 22.0076 13.0002 21.336 13.0002 20.5076C13.0002 19.6791 12.3287 19.0076 11.5002 19.0076C10.6718 19.0076 10.0002 19.6791 10.0002 20.5076C10.0002 21.336 10.6718 22.0076 11.5002 22.0076Z" fill="#1C1B1F"/>
<path d="M10.5002 15.0076C11.3287 15.0076 12.0002 14.336 12.0002 13.5076C12.0002 12.6791 11.3287 12.0076 10.5002 12.0076C9.67182 12.0076 9.00024 12.6791 9.00024 13.5076C9.00024 14.336 9.67182 15.0076 10.5002 15.0076Z" fill="#1C1B1F"/>
<path d="M17.0002 17.0076C17.8287 17.0076 18.5002 16.336 18.5002 15.5076C18.5002 14.6791 17.8287 14.0076 17.0002 14.0076C16.1718 14.0076 15.5002 14.6791 15.5002 15.5076C15.5002 16.336 16.1718 17.0076 17.0002 17.0076Z" fill="#1C1B1F"/>
</svg>
