<svg width="33" height="32" viewBox="0 0 33 32" fill="none" xmlns="http://www.w3.org/2000/svg">
<path fill-rule="evenodd" clip-rule="evenodd" d="M7.09374 0.000915527C6.54146 0.000915527 6.09374 0.448631 6.09374 1.00092C6.09374 1.5532 6.54146 2.00092 7.09374 2.00092H30.499V25.4062C30.499 25.9585 30.9467 26.4062 31.499 26.4062C32.0513 26.4062 32.499 25.9585 32.499 25.4062V1.00092C32.499 0.448631 32.0513 0.000915527 31.499 0.000915527H7.09374ZM1.50085 5.5938C0.94857 5.5938 0.500854 6.04152 0.500854 6.5938V30.9991C0.500854 31.5514 0.94857 31.9991 1.50085 31.9991H25.9061C26.4584 31.9991 26.9061 31.5514 26.9061 30.9991V6.5938C26.9061 6.04152 26.4584 5.5938 25.9061 5.5938H1.50085ZM2.50085 29.9991V7.5938H24.9061V29.9991H2.50085Z" fill="#111827"/>
</svg>
