<svg width="32" height="33" viewBox="0 0 32 33" fill="none" xmlns="http://www.w3.org/2000/svg">
<path d="M16 28.5C22.6274 28.5 28 23.1274 28 16.5C28 9.87258 22.6274 4.5 16 4.5C9.37258 4.5 4 9.87258 4 16.5C4 23.1274 9.37258 28.5 16 28.5Z" stroke="#1C1B1F" stroke-width="2" stroke-linecap="round" stroke-linejoin="round"/>
<path d="M20.0001 19.5003C19.3704 20.3396 18.4925 20.9596 17.4909 21.2723C16.4892 21.585 15.4146 21.5747 14.4191 21.2428C13.4237 20.9109 12.5579 20.2742 11.9444 19.4229C11.3309 18.5716 11.0007 17.5489 11.0007 16.4995C11.0007 15.4502 11.3309 14.4275 11.9444 13.5762C12.5579 12.7249 13.4236 12.0882 14.4191 11.7563C15.4145 11.4243 16.4892 11.414 17.4908 11.7267C18.4925 12.0394 19.3703 12.6593 20.0001 13.4987" stroke="#1C1B1F" stroke-width="2" stroke-linecap="round" stroke-linejoin="round"/>
</svg>
