<svg width="33" height="33" viewBox="0 0 33 33" fill="none" xmlns="http://www.w3.org/2000/svg">
<path fill-rule="evenodd" clip-rule="evenodd" d="M2.50085 16.4998C2.50085 8.76834 8.76846 2.50073 16.4999 2.50073C24.2314 2.50073 30.499 8.76834 30.499 16.4998C30.499 24.2313 24.2314 30.4989 16.4999 30.4989C8.76846 30.4989 2.50085 24.2313 2.50085 16.4998ZM16.4999 0.500732C7.66389 0.500732 0.500854 7.66377 0.500854 16.4998C0.500854 25.3359 7.66389 32.4989 16.4999 32.4989C25.336 32.4989 32.499 25.3359 32.499 16.4998C32.499 7.66377 25.336 0.500732 16.4999 0.500732ZM14.8403 11.519C15.8854 11.1705 17.0137 11.1597 18.0654 11.488C19.117 11.8163 20.0387 12.4672 20.6999 13.3484C21.0314 13.7902 21.6582 13.8796 22.1 13.5481C22.5417 13.2167 22.6312 12.5898 22.2997 12.1481C21.3866 10.9311 20.1137 10.0323 18.6614 9.57887C17.2091 9.12546 15.651 9.14045 14.2076 9.62173C12.7643 10.103 11.509 11.0262 10.6195 12.2605C9.72994 13.4948 9.25128 14.9777 9.25129 16.4991C9.2513 18.0206 9.72997 19.5034 10.6195 20.7377C11.5091 21.972 12.7644 22.8952 14.2077 23.3764C15.651 23.8577 17.2092 23.8727 18.6615 23.4193C20.1138 22.9658 21.3866 22.067 22.2997 20.85C22.6312 20.4082 22.5418 19.7814 22.1 19.45C21.6583 19.1185 21.0314 19.2079 20.7 19.6497C20.0388 20.5309 19.1171 21.1818 18.0654 21.5101C17.0138 21.8385 15.8855 21.8276 14.8404 21.4791C13.7952 21.1307 12.8862 20.4622 12.2421 19.5684C11.5979 18.6746 11.2513 17.6008 11.2513 16.4991C11.2513 15.3974 11.5979 14.3236 12.242 13.4298C12.8862 12.536 13.7952 11.8675 14.8403 11.519Z" fill="#111827"/>
</svg>
