<svg width="33" height="32" viewBox="0 0 33 32" fill="none" xmlns="http://www.w3.org/2000/svg">
<path fill-rule="evenodd" clip-rule="evenodd" d="M9.68229 0.000915527C9.13 0.000915527 8.68229 0.448631 8.68229 1.00092V8.18238H1.50085C0.94857 8.18238 0.500854 8.63009 0.500854 9.18238V30.9991C0.500854 31.5514 0.94857 31.9991 1.50085 31.9991H23.3176C23.8698 31.9991 24.3176 31.5514 24.3176 30.9991V23.8176H31.499C32.0513 23.8176 32.499 23.3699 32.499 22.8176V1.00092C32.499 0.448631 32.0513 0.000915527 31.499 0.000915527H9.68229ZM24.3176 21.8176H30.499V2.00092H10.6823V8.18238H23.3176C23.8698 8.18238 24.3176 8.63009 24.3176 9.18238V21.8176ZM2.50085 29.9991V10.1824H22.3176V29.9991H2.50085Z" fill="#111827"/>
</svg>
