<svg width="33" height="33" viewBox="0 0 33 33" fill="none" xmlns="http://www.w3.org/2000/svg">
<path fill-rule="evenodd" clip-rule="evenodd" d="M1.50085 0.500732C0.94857 0.500732 0.500854 0.948448 0.500854 1.50073V9.05529C0.500854 9.60758 0.94857 10.0553 1.50085 10.0553C2.05314 10.0553 2.50085 9.60758 2.50085 9.05529V2.50073H9.05542C9.6077 2.50073 10.0554 2.05302 10.0554 1.50073C10.0554 0.948448 9.6077 0.500732 9.05542 0.500732H1.50085ZM23.9445 0.500732C23.3923 0.500732 22.9445 0.948448 22.9445 1.50073C22.9445 2.05302 23.3923 2.50073 23.9445 2.50073H30.4991V9.05529C30.4991 9.60758 30.9468 10.0553 31.4991 10.0553C32.0514 10.0553 32.4991 9.60758 32.4991 9.05529V1.50073C32.4991 0.948448 32.0514 0.500732 31.4991 0.500732H23.9445ZM1.50085 22.9444C2.05314 22.9444 2.50085 23.3921 2.50085 23.9444V30.499H9.05542C9.6077 30.499 10.0554 30.9467 10.0554 31.499C10.0554 32.0513 9.6077 32.499 9.05542 32.499H1.50085C0.94857 32.499 0.500854 32.0513 0.500854 31.499V23.9444C0.500854 23.3921 0.94857 22.9444 1.50085 22.9444ZM32.4991 23.9442C32.4991 23.3919 32.0514 22.9442 31.4991 22.9442C30.9468 22.9442 30.4991 23.3919 30.4991 23.9442V30.4987H23.9445C23.3923 30.4987 22.9445 30.9464 22.9445 31.4987C22.9445 32.051 23.3923 32.4987 23.9445 32.4987H31.4991C32.0514 32.4987 32.4991 32.051 32.4991 31.4987V23.9442Z" fill="#111827"/>
</svg>
