<svg width="33" height="33" viewBox="0 0 33 33" fill="none" xmlns="http://www.w3.org/2000/svg">
<path fill-rule="evenodd" clip-rule="evenodd" d="M22.4996 0.500977C23.0519 0.500977 23.4996 0.948692 23.4996 1.50098V9.50039H31.4991C32.0513 9.50039 32.4991 9.94811 32.4991 10.5004C32.4991 11.0527 32.0513 11.5004 31.4991 11.5004H22.4996C21.9473 11.5004 21.4996 11.0527 21.4996 10.5004V1.50098C21.4996 0.948692 21.9473 0.500977 22.4996 0.500977ZM1.50085 21.4996C0.94857 21.4996 0.500854 21.9473 0.500854 22.4996C0.500854 23.0519 0.94857 23.4996 1.50085 23.4996H9.50027V31.4991C9.50027 32.0513 9.94799 32.4991 10.5003 32.4991C11.0526 32.4991 11.5003 32.0513 11.5003 31.4991V22.4996C11.5003 21.9473 11.0526 21.4996 10.5003 21.4996H1.50085ZM22.4996 21.4996C21.9473 21.4996 21.4996 21.9473 21.4996 22.4996V31.4991C21.4996 32.0513 21.9473 32.4991 22.4996 32.4991C23.0519 32.4991 23.4996 32.0513 23.4996 31.4991V23.4996H31.4991C32.0513 23.4996 32.4991 23.0519 32.4991 22.4996C32.4991 21.9473 32.0513 21.4996 31.4991 21.4996H22.4996ZM11.5003 1.50098C11.5003 0.948692 11.0526 0.500977 10.5003 0.500977C9.94799 0.500977 9.50027 0.948692 9.50027 1.50098V9.50039H1.50085C0.94857 9.50039 0.500854 9.94811 0.500854 10.5004C0.500854 11.0527 0.94857 11.5004 1.50085 11.5004H10.5003C11.0526 11.5004 11.5003 11.0527 11.5003 10.5004V1.50098Z" fill="#111827"/>
</svg>
