<svg width="33" height="32" viewBox="0 0 33 32" fill="none" xmlns="http://www.w3.org/2000/svg">
<path fill-rule="evenodd" clip-rule="evenodd" d="M12.7555 0.499679C13.0317 0.0213861 13.6433 -0.142489 14.1216 0.133653L16.8388 1.70243C17.2194 1.83953 17.4929 2.20098 17.4997 2.62722C17.5061 2.80824 17.4634 2.99321 17.3662 3.16164L15.7042 6.04025C15.4281 6.51854 14.8165 6.68241 14.3382 6.40627C13.8599 6.13013 13.696 5.51854 13.9722 5.04025L14.7089 3.7642C8.27789 4.63801 3.32153 10.1511 3.32153 16.8218C3.32153 19.9204 4.3897 22.7668 6.17865 25.0167C6.52237 25.449 6.45057 26.0781 6.01829 26.4218C5.586 26.7655 4.95692 26.6937 4.61319 26.2614C2.553 23.6704 1.32153 20.3885 1.32153 16.8218C1.32153 9.53113 6.46188 3.44101 13.3161 1.978L13.1216 1.8657C12.6433 1.58956 12.4794 0.977971 12.7555 0.499679ZM17.5003 9.18606C17.5003 8.63377 17.0526 8.18606 16.5003 8.18606C15.948 8.18606 15.5003 8.63377 15.5003 9.18606V9.94803H15.0317C13.9875 9.94803 12.9861 10.3628 12.2478 11.1011C11.5095 11.8394 11.0947 12.8408 11.0947 13.885C11.0947 14.9291 11.5095 15.9305 12.2478 16.6688C12.9861 17.4071 13.9875 17.8219 15.0317 17.8219H15.5003V21.6957H14.738C14.2243 21.6957 13.7316 21.4917 13.3683 21.1284C13.0051 20.7652 12.801 20.2725 12.801 19.7588C12.801 19.2065 12.3533 18.7588 11.801 18.7588C11.2488 18.7588 10.801 19.2065 10.801 19.7588C10.801 20.8029 11.2158 21.8043 11.9541 22.5426C12.6925 23.2809 13.6938 23.6957 14.738 23.6957H15.5003V24.4581C15.5003 25.0104 15.948 25.4581 16.5003 25.4581C17.0526 25.4581 17.5003 25.0104 17.5003 24.4581V23.6957H18.2623C19.3064 23.6957 20.3078 23.2809 21.0461 22.5426C21.7844 21.8043 22.1992 20.8029 22.1992 19.7588C22.1992 18.7147 21.7844 17.7133 21.0461 16.975C20.3078 16.2367 19.3064 15.8219 18.2623 15.8219H17.5003V11.948H17.6749C17.9292 11.948 18.1811 11.9981 18.4161 12.0955C18.6511 12.1928 18.8646 12.3355 19.0445 12.5153C19.2244 12.6952 19.367 12.9087 19.4644 13.1437C19.5617 13.3787 19.6118 13.6306 19.6118 13.885C19.6118 14.4372 20.0595 14.885 20.6118 14.885C21.1641 14.885 21.6118 14.4372 21.6118 13.885C21.6118 13.3679 21.51 12.856 21.3121 12.3784C21.1143 11.9007 20.8243 11.4667 20.4587 11.1011C20.0931 10.7355 19.6591 10.4456 19.1815 10.2477C18.7038 10.0499 18.1919 9.94803 17.6749 9.94803H17.5003V9.18606ZM15.5003 11.948H15.0317C14.5179 11.948 14.0253 12.1521 13.662 12.5153C13.2988 12.8786 13.0947 13.3712 13.0947 13.885C13.0947 14.3987 13.2988 14.8913 13.662 15.2546C14.0253 15.6178 14.5179 15.8219 15.0317 15.8219H15.5003V11.948ZM17.5003 21.6957H18.2623C18.776 21.6957 19.2686 21.4917 19.6319 21.1284C19.9951 20.7652 20.1992 20.2725 20.1992 19.7588C20.1992 19.2451 19.9951 18.7524 19.6319 18.3892C19.2686 18.0259 18.776 17.8219 18.2623 17.8219H17.5003V21.6957ZM23.367 3.28245C22.8747 3.03226 22.2727 3.22858 22.0225 3.72095C21.7723 4.21331 21.9686 4.81527 22.461 5.06546C26.7459 7.24278 29.6782 11.6908 29.6782 16.8218C29.6782 19.8823 28.6362 22.6965 26.8869 24.9331C26.5467 25.3682 26.6235 25.9967 27.0586 26.3369C27.4936 26.6771 28.1221 26.6003 28.4623 26.1653C30.4769 23.5894 31.6782 20.3445 31.6782 16.8218C31.6782 10.9089 28.2969 5.78751 23.367 3.28245ZM8.84919 27.5533C8.39978 27.2323 7.77523 27.3364 7.45422 27.7858C7.13321 28.2352 7.2373 28.8598 7.68671 29.1808C10.1715 30.9556 13.2152 32.0002 16.4998 32.0002C19.5577 32.0002 22.4072 31.0949 24.7911 29.5374C25.2535 29.2353 25.3835 28.6156 25.0814 28.1533C24.7793 27.6909 24.1596 27.561 23.6973 27.863C21.6286 29.2145 19.1575 30.0002 16.4998 30.0002C13.6456 30.0002 11.006 29.0939 8.84919 27.5533Z" fill="#111827"/>
</svg>
