<svg width="33" height="32" viewBox="0 0 33 32" fill="none" xmlns="http://www.w3.org/2000/svg">
<path d="M24.5565 21.7994C24.3454 21.6284 24.1119 21.5073 23.8693 21.4221C24.1168 21.3327 24.3541 21.2058 24.5679 21.0273C24.8174 20.819 24.9984 20.5728 25.125 20.3026V22.5249C24.9966 22.2533 24.8121 22.0065 24.5565 21.7994ZM25.125 15.6408V17.7492C25.0079 17.4858 24.8452 17.2419 24.6275 17.0283C24.3745 16.78 24.0817 16.6065 23.768 16.4907C24.0683 16.4522 24.4917 16.3601 24.8344 16.0299C24.9603 15.9087 25.0542 15.7758 25.125 15.6408ZM8.16567 16.03C8.50835 16.3601 8.93171 16.4522 9.23202 16.4907C8.91833 16.6065 8.62546 16.78 8.37249 17.0283C8.15479 17.242 7.99203 17.486 7.87495 17.7494V15.6405C7.94568 15.7756 8.03971 15.9086 8.16567 16.03ZM7.87495 22.5251V20.3024C8.00153 20.5726 8.18256 20.819 8.43208 21.0273C8.64588 21.2058 8.88318 21.3327 9.1307 21.4221C8.88806 21.5073 8.65463 21.6284 8.44354 21.7994C8.18782 22.0066 8.00329 22.2535 7.87495 22.5251ZM7.12686 25.4346C7.39856 25.1684 7.58469 24.8551 7.70335 24.5155C7.81374 24.9893 8.05328 25.4199 8.49922 25.7313C9.06609 26.1271 9.78508 26.1801 10.3549 26.1902L10.3631 26.1903L10.3713 26.1903L22.6282 26.2059L22.6377 26.2059L22.6471 26.2057C23.2239 26.1955 23.9431 26.1373 24.5096 25.7336C24.95 25.4197 25.1872 24.9893 25.2969 24.5166C25.4155 24.8558 25.6014 25.1689 25.8725 25.435C26.4138 25.9662 27.1376 26.1553 27.8574 26.1681L27.8839 26.1685L27.9103 26.1676C29.1759 26.123 30.1347 25.4282 30.7192 24.2801C31.2679 23.2023 31.5 21.7179 31.5 19.919V15.5442C31.5 15.5442 31.5 15.5442 31.5 15.5442C31.5 14.2765 31.2536 13.1585 30.6226 12.3328C30.165 11.7338 29.5622 11.3617 28.8751 11.1798V10.2956V10.2941C28.8751 8.67413 28.4401 7.41856 27.3202 6.65136C26.3173 5.96434 24.9542 5.82363 23.547 5.7972L23.5451 5.79705L23.5072 5.79418L23.4693 5.79419L9.49981 5.79651L9.49106 5.79651L9.48232 5.79666C8.06479 5.8217 6.68969 5.95957 5.67985 6.65137C4.55994 7.41858 4.12503 8.67415 4.12503 10.2941V10.2956V11.1798C3.43789 11.3617 2.83512 11.7338 2.37742 12.3328C1.74646 13.1585 1.5 14.2765 1.5 15.5442V19.9191C1.5 21.7179 1.73205 23.2019 2.28095 24.2794C2.86572 25.4273 3.8247 26.121 5.08973 26.1657L5.1162 26.1666L5.14269 26.1661C5.86159 26.1534 6.58539 25.9652 7.12686 25.4346Z" stroke="#111827" stroke-width="2"/>
</svg>
