<svg width="33" height="33" viewBox="0 0 33 33" fill="none" xmlns="http://www.w3.org/2000/svg">
<path d="M24.4598 19.5921C24.4598 20.5866 23.9357 21.074 22.9597 21.0913V21.0921H10.9597V21.0913C9.98369 21.074 9.45968 20.5866 9.45968 19.5921C9.45968 18.5975 9.98369 18.1101 10.9597 18.0929V18.0921H22.9597V18.0929C23.9357 18.1101 24.4598 18.5975 24.4598 19.5921M22.9597 21.8428V21.842H10.9597V21.8428C9.98369 21.8601 9.45968 22.3475 9.45968 23.3421C9.45968 24.3367 9.98369 24.8241 10.9597 24.8413V24.8421H22.9597V24.8413C23.9357 24.8241 24.4598 24.3367 24.4598 23.3421C24.4598 22.3475 23.9357 21.8601 22.9597 21.8428ZM26.7098 13.5937V13.5929C25.7338 13.6102 25.2097 14.0975 25.2097 15.0921V23.3421C25.2097 24.3367 25.7337 24.8241 26.7098 24.8413V24.8396C28.1737 24.7879 28.9597 23.3258 28.9597 20.342V16.5921C28.9598 14.603 28.1737 13.6282 26.7098 13.5937M7.20974 13.5929V13.5937C5.74569 13.6282 4.95972 14.6029 4.95972 16.5921V20.3421C4.95972 23.3259 5.74569 24.7879 7.20974 24.8396V24.8414C8.18574 24.8241 8.70967 24.3368 8.70967 23.3422V15.0921C8.70967 14.0975 8.18574 13.6102 7.20974 13.5929M26.7098 12.8421C26.7098 10.3556 25.3997 9.13721 22.9597 9.09411V9.09204H10.9597V9.09411C8.51973 9.13721 7.20974 10.3556 7.20974 12.8421V12.8433C8.67371 12.8692 9.45968 13.6002 9.45968 15.0921C9.45968 16.5839 10.2457 17.315 11.7097 17.3409V17.3421H22.2097V17.3409C23.6738 17.315 24.4598 16.5839 24.4598 15.0921C24.4598 13.6002 25.2457 12.8692 26.7098 12.8433V12.8421Z" fill="#1C1B1F"/>
</svg>
