<svg width="33" height="32" viewBox="0 0 33 32" fill="none" xmlns="http://www.w3.org/2000/svg">
<path fill-rule="evenodd" clip-rule="evenodd" d="M19.9617 0.000854492C20.514 0.000854492 20.9617 0.44857 20.9617 1.00085V3.46228H28.038C28.5903 3.46228 29.038 3.90999 29.038 4.46228V11.5386H31.4991C32.0514 11.5386 32.4991 11.9864 32.4991 12.5386C32.4991 13.0909 32.0514 13.5386 31.4991 13.5386H29.038V18.4614H31.4991C32.0514 18.4614 32.4991 18.9091 32.4991 19.4614C32.4991 20.0136 32.0514 20.4614 31.4991 20.4614H29.038V27.5379C29.038 28.0902 28.5903 28.5379 28.038 28.5379H20.9617V30.9991C20.9617 31.5514 20.514 31.9991 19.9617 31.9991C19.4094 31.9991 18.9617 31.5514 18.9617 30.9991V28.5379H14.0386V30.9991C14.0386 31.5514 13.5909 31.9991 13.0386 31.9991C12.4864 31.9991 12.0386 31.5514 12.0386 30.9991V28.5379H4.9624C4.41011 28.5379 3.9624 28.0902 3.9624 27.5379V20.4614H1.50098C0.948692 20.4614 0.500977 20.0136 0.500977 19.4614C0.500977 18.9091 0.948692 18.4614 1.50098 18.4614H3.9624V13.5386H1.50098C0.948692 13.5386 0.500977 13.0909 0.500977 12.5386C0.500977 11.9864 0.948692 11.5386 1.50098 11.5386H3.9624V4.46228C3.9624 3.90999 4.41011 3.46228 4.9624 3.46228H12.0386V1.00085C12.0386 0.44857 12.4864 0.000854492 13.0386 0.000854492C13.5909 0.000854492 14.0386 0.44857 14.0386 1.00085V3.46228H18.9617V1.00085C18.9617 0.44857 19.4094 0.000854492 19.9617 0.000854492ZM27.038 5.46228V12.5154L27.0377 12.5386L27.038 12.5619V19.4381L27.0377 19.4614L27.038 19.4846V26.5379H19.9788L19.9617 26.5377L19.9446 26.5379H13.0557L13.0386 26.5377L13.0216 26.5379H5.9624V5.46228H27.038ZM12.9619 10.9618C12.1335 10.9618 11.4619 11.6334 11.4619 12.4618V19.5383C11.4619 20.3667 12.1335 21.0383 12.9619 21.0383H20.0384C20.8668 21.0383 21.5384 20.3667 21.5384 19.5383V12.4618C21.5384 11.6334 20.8668 10.9618 20.0384 10.9618H12.9619ZM13.4619 19.0383V12.9618H19.5384V19.0383H13.4619Z" fill="#111827"/>
</svg>
