<svg width="33" height="33" viewBox="0 0 33 33" fill="none" xmlns="http://www.w3.org/2000/svg">
<path fill-rule="evenodd" clip-rule="evenodd" d="M3.50122 6.50049C2.94894 6.50049 2.50122 6.9482 2.50122 7.50049V12.5681C2.50073 12.5809 2.50049 12.5938 2.50049 12.6068C2.50049 12.6197 2.50073 12.6326 2.50122 12.6454V25.4994C2.50122 26.0517 2.94894 26.4994 3.50122 26.4994H29.4997C30.052 26.4994 30.4997 26.0517 30.4997 25.4994V7.50049C30.4997 6.9482 30.052 6.50049 29.4997 6.50049H3.50122ZM4.50122 13.6068V24.4994H28.4997V13.6068H4.50122ZM28.4997 11.6068V8.50049H4.50122V11.6068H28.4997ZM21.4996 20.4999C20.9473 20.4999 20.4996 20.9477 20.4996 21.4999C20.4996 22.0522 20.9473 22.4999 21.4996 22.4999H25.4993C26.0516 22.4999 26.4993 22.0522 26.4993 21.4999C26.4993 20.9477 26.0516 20.4999 25.4993 20.4999H21.4996ZM14.4999 21.4999C14.4999 20.9477 14.9476 20.4999 15.4999 20.4999H17.499C18.0513 20.4999 18.499 20.9477 18.499 21.4999C18.499 22.0522 18.0513 22.4999 17.499 22.4999H15.4999C14.9476 22.4999 14.4999 22.0522 14.4999 21.4999Z" fill="#111827"/>
</svg>
