<svg width="33" height="33" viewBox="0 0 33 33" fill="none" xmlns="http://www.w3.org/2000/svg">
<path fill-rule="evenodd" clip-rule="evenodd" d="M1.50147 5.11597C0.94918 5.11597 0.501465 5.56368 0.501465 6.11597V11.9691C0.500978 11.9819 0.500732 11.9948 0.500732 12.0077C0.500732 12.0207 0.500978 12.0336 0.501465 12.0464V26.8839C0.501465 27.4362 0.94918 27.8839 1.50147 27.8839H31.4996C32.0519 27.8839 32.4996 27.4362 32.4996 26.8839V6.11597C32.4996 5.56368 32.0519 5.11597 31.4996 5.11597H1.50147ZM2.50147 13.0077V25.8839H30.4996V13.0077H2.50147ZM30.4996 11.0077V7.11597H2.50147V11.0077H30.4996ZM22.2686 21.2694C21.7163 21.2694 21.2686 21.7171 21.2686 22.2694C21.2686 22.8217 21.7163 23.2694 22.2686 23.2694H26.8837C27.436 23.2694 27.8837 22.8217 27.8837 22.2694C27.8837 21.7171 27.436 21.2694 26.8837 21.2694H22.2686ZM14.346 22.2694C14.346 21.7171 14.7937 21.2694 15.346 21.2694H17.6526C18.2049 21.2694 18.6526 21.7171 18.6526 22.2694C18.6526 22.8217 18.2049 23.2694 17.6526 23.2694H15.346C14.7937 23.2694 14.346 22.8217 14.346 22.2694Z" fill="#111827"/>
</svg>
