<svg width="33" height="32" viewBox="0 0 33 32" fill="none" xmlns="http://www.w3.org/2000/svg">
<g clip-path="url(#clip0_751_46)">
<path fill-rule="evenodd" clip-rule="evenodd" d="M9.69948 3.14375C12.4601 1.09787 15.8155 -0.0112215 19.2713 -0.00164752C22.7339 0.00794555 26.0896 1.14007 28.8419 3.20901C29.803 3.93146 29.8263 5.2781 29.0692 6.08769L25.4416 9.96646C24.4662 11.0094 22.9639 10.9743 21.9294 10.3421C21.1261 9.85116 20.2931 9.59209 19.2447 9.58919C19.1092 9.58881 18.9818 9.58803 18.8616 9.5873C17.7641 9.58061 17.271 9.57761 16.7405 9.91744C15.7232 10.5691 14.2523 10.6093 13.2763 9.61381L9.51661 6.0842L9.49761 6.06636L9.47956 6.04755C8.70248 5.23785 8.72036 3.86937 9.69948 3.14375ZM10.962 4.69784L14.662 8.17149L14.681 8.18933L14.6991 8.20813C14.8847 8.4015 15.2737 8.48187 15.6617 8.23333C16.7256 7.55183 17.854 7.56926 18.858 7.58476C18.9911 7.58682 19.122 7.58884 19.2503 7.58919C20.6771 7.59315 21.8673 7.96018 22.9723 8.63554C23.3883 8.88973 23.7952 8.79891 23.9809 8.60035L27.5741 4.75832C25.1783 2.97936 22.2679 2.00666 19.2658 1.99834C16.2718 1.99005 13.3638 2.94138 10.962 4.69784ZM5.22542 16.0455C5.21564 13.04 6.17287 10.1209 7.94087 7.71309L11.5908 11.1029C11.7875 11.2856 11.8968 11.7159 11.6465 12.2075C11.0393 13.4 10.8195 14.6737 10.8239 16.0273C10.8284 17.4174 11.1077 18.4921 11.7544 19.5483C12.0071 19.961 11.9264 20.3527 11.743 20.5372L7.97292 24.3302C6.20333 21.9396 5.23515 19.0385 5.22542 16.0455ZM9.26492 6.21328C8.45175 5.45805 7.10318 5.48722 6.38495 6.45336C4.3285 9.21962 3.21415 12.5855 3.22543 16.052C3.23666 19.5059 4.36471 22.8527 6.42483 25.5999C7.16496 26.5869 8.55349 26.5831 9.35349 25.7783L13.1615 21.9472C14.1462 20.9565 14.0725 19.5042 13.46 18.5039C13.031 17.8032 12.8274 17.0985 12.8239 16.0207C12.8202 14.8914 13.0028 13.9515 13.4288 13.115C13.9488 12.0937 13.9991 10.6101 12.9518 9.63745L9.26492 6.21328ZM25.4966 22.2157C24.4857 21.2528 23.061 21.3817 22.0954 21.8778C21.3325 22.2699 20.4862 22.3943 19.2637 22.4013C18.0513 22.4082 17.1798 22.2812 16.3961 21.8872C15.4174 21.3952 13.9818 21.2901 12.9843 22.275L9.39132 25.8227C8.58491 26.6189 8.57522 28.0049 9.55666 28.7494C12.3553 30.8723 15.785 32.022 19.3186 32.0018C22.8497 31.9816 26.2636 30.7944 29.0368 28.6425C30.0146 27.8838 29.9841 26.4902 29.1599 25.7052L25.4966 22.2157ZM23.0095 23.6567C23.5129 23.3981 23.9323 23.4878 24.1172 23.6639L27.7412 27.116C25.3273 28.965 22.3675 29.9843 19.3071 30.0018C16.2443 30.0193 13.2707 29.0323 10.8346 27.2082L14.3895 23.6982C14.5728 23.5172 14.9939 23.4208 15.4978 23.6741C16.6924 24.2747 17.9322 24.409 19.2751 24.4013C20.6072 24.3937 21.8293 24.2632 23.0095 23.6567ZM15.7167 16.0001C15.7167 14.0615 17.2883 12.4899 19.2269 12.4899C21.1656 12.4899 22.7372 14.0615 22.7372 16.0001C22.7372 17.9388 21.1656 19.5104 19.2269 19.5104C17.2883 19.5104 15.7167 17.9388 15.7167 16.0001ZM19.2269 10.4899C16.1837 10.4899 13.7167 12.9569 13.7167 16.0001C13.7167 19.0433 16.1837 21.5104 19.2269 21.5104C22.2702 21.5104 24.7372 19.0433 24.7372 16.0001C24.7372 12.9569 22.2702 10.4899 19.2269 10.4899Z" fill="#111827"/>
</g>
<defs>
<clipPath id="clip0_751_46">
<rect width="32" height="32" fill="white" transform="translate(0.5)"/>
</clipPath>
</defs>
</svg>
