<svg width="33" height="32" viewBox="0 0 33 32" fill="none" xmlns="http://www.w3.org/2000/svg">
<path fill-rule="evenodd" clip-rule="evenodd" d="M8.27015 1.00134C8.27015 0.449058 7.82244 0.00134277 7.27015 0.00134277C6.71787 0.00134277 6.27015 0.449058 6.27015 1.00134V5.77052H1.50098C0.948692 5.77052 0.500977 6.21823 0.500977 6.77052C0.500977 7.3228 0.948692 7.77052 1.50098 7.77052H6.27015V25.2304C6.27015 25.7827 6.71787 26.2304 7.27015 26.2304H24.7294V30.9986C24.7294 31.5509 25.1771 31.9986 25.7294 31.9986C26.2816 31.9986 26.7294 31.5509 26.7294 30.9986V26.2304H31.499C32.0513 26.2304 32.499 25.7827 32.499 25.2304C32.499 24.6781 32.0513 24.2304 31.499 24.2304H25.7618C25.751 24.23 25.7402 24.2299 25.7294 24.2299C25.7185 24.2299 25.7077 24.23 25.697 24.2304H8.27015V1.00134ZM10.8842 6.77052C10.8842 6.21823 11.3319 5.77052 11.8842 5.77052H25.7304C26.2827 5.77052 26.7304 6.21823 26.7304 6.77052V20.6157C26.7304 21.168 26.2827 21.6157 25.7304 21.6157C25.1782 21.6157 24.7304 21.168 24.7304 20.6157V7.77052H11.8842C11.3319 7.77052 10.8842 7.3228 10.8842 6.77052Z" fill="#111827"/>
</svg>
