<svg width="33" height="32" viewBox="0 0 33 32" fill="none" xmlns="http://www.w3.org/2000/svg">
<path fill-rule="evenodd" clip-rule="evenodd" d="M17.5 7.52226V2.03609C24.4345 2.52557 29.9744 8.06556 30.4639 15H24.9776C24.4254 15 23.9776 15.4477 23.9776 16C23.9776 16.5523 24.4254 17 24.9776 17H30.4639C29.9744 23.9344 24.4345 29.4744 17.5 29.9639V24.4778C17.5 23.9255 17.0523 23.4778 16.5 23.4778C15.9478 23.4778 15.5 23.9255 15.5 24.4778V29.9639C8.56552 29.4745 3.02545 23.9345 2.53602 17H8.02219C8.57448 17 9.02219 16.5523 9.02219 16C9.02219 15.4477 8.57448 15 8.02219 15H2.53602C3.02546 8.06549 8.56553 2.52546 15.5 2.03607V7.52226C15.5 8.07454 15.9478 8.52226 16.5 8.52226C17.0523 8.52226 17.5 8.07454 17.5 7.52226ZM32.499 16C32.499 24.8336 25.34 31.995 16.5074 31.9991L16.5 31.9991L16.4927 31.9991C7.65998 31.9952 0.500854 24.8336 0.500854 16C0.500854 7.16395 7.66389 0.000915527 16.4999 0.000915527H16.5C25.336 0.000973707 32.499 7.16399 32.499 16Z" fill="#111827"/>
</svg>
