<svg width="32" height="32" viewBox="0 0 32 32" fill="none" xmlns="http://www.w3.org/2000/svg">
<path d="M15.9999 25.7778C21.4001 25.7778 25.7777 21.4001 25.7777 16C25.7777 10.5999 21.4001 6.22223 15.9999 6.22223C10.5998 6.22223 6.22217 10.5999 6.22217 16C6.22217 21.4001 10.5998 25.7778 15.9999 25.7778Z" stroke="#1C1B1F" stroke-width="2" stroke-linecap="round" stroke-linejoin="round"/>
<path d="M16 4V8.44444" stroke="#1C1B1F" stroke-width="2" stroke-linecap="round" stroke-linejoin="round"/>
<path d="M4 16H8.44444" stroke="#1C1B1F" stroke-width="2" stroke-linecap="round" stroke-linejoin="round"/>
<path d="M16 28V23.5555" stroke="#1C1B1F" stroke-width="2" stroke-linecap="round" stroke-linejoin="round"/>
<path d="M28 16H23.5555" stroke="#1C1B1F" stroke-width="2" stroke-linecap="round" stroke-linejoin="round"/>
<path d="M16 19.5556C17.9637 19.5556 19.5556 17.9637 19.5556 16C19.5556 14.0363 17.9637 12.4445 16 12.4445C14.0363 12.4445 12.4445 14.0363 12.4445 16C12.4445 17.9637 14.0363 19.5556 16 19.5556Z" stroke="#1C1B1F" stroke-width="2" stroke-linecap="round" stroke-linejoin="round"/>
</svg>
