<svg width="33" height="32" viewBox="0 0 33 32" fill="none" xmlns="http://www.w3.org/2000/svg">
<path fill-rule="evenodd" clip-rule="evenodd" d="M17.5001 1.00092C17.5001 0.448631 17.0523 0.000915527 16.5001 0.000915527C15.9478 0.000915527 15.5001 0.448631 15.5001 1.00092V2.81578C8.9952 3.30215 3.80213 8.49517 3.31567 15H1.50085C0.94857 15 0.500854 15.4477 0.500854 16C0.500854 16.5523 0.94857 17 1.50085 17H3.31567C3.80209 23.5049 8.99518 28.6979 15.5001 29.1843V30.9991C15.5001 31.5514 15.9478 31.9991 16.5001 31.9991C17.0523 31.9991 17.5001 31.5514 17.5001 30.9991V29.1843C24.0048 28.6978 29.1977 23.5048 29.6842 17H31.499C32.0513 17 32.499 16.5523 32.499 16C32.499 15.4477 32.0513 15 31.499 15H29.6841C29.1977 8.49526 24.0048 3.3023 17.5001 2.8158V1.00092ZM25.9438 15H27.6774C27.2006 9.60051 22.8995 5.29939 17.5001 4.8225V6.55614C17.5001 7.10842 17.0523 7.55614 16.5001 7.55614C15.9478 7.55614 15.5001 7.10842 15.5001 6.55614V4.82248C10.1004 5.29924 5.79922 9.60041 5.32237 15H7.05608C7.60836 15 8.05608 15.4477 8.05608 16C8.05608 16.5523 7.60836 17 7.05608 17H5.32237C5.79918 22.3996 10.1004 26.7008 15.5001 27.1776V25.4439C15.5001 24.8916 15.9478 24.4439 16.5001 24.4439C17.0523 24.4439 17.5001 24.8916 17.5001 25.4439V27.1776C22.8996 26.7007 27.2006 22.3995 27.6775 17H25.9438C25.3915 17 24.9438 16.5523 24.9438 16C24.9438 15.4477 25.3915 15 25.9438 15ZM13.0558 16C13.0558 14.0979 14.5978 12.5559 16.5 12.5559C18.4021 12.5559 19.9442 14.0979 19.9442 16C19.9442 17.9022 18.4021 19.4442 16.5 19.4442C14.5978 19.4442 13.0558 17.9022 13.0558 16ZM16.5 10.5559C13.4932 10.5559 11.0558 12.9933 11.0558 16C11.0558 19.0068 13.4932 21.4442 16.5 21.4442C19.5067 21.4442 21.9442 19.0068 21.9442 16C21.9442 12.9933 19.5067 10.5559 16.5 10.5559Z" fill="#111827"/>
</svg>
