<svg width="33" height="33" viewBox="0 0 33 33" fill="none" xmlns="http://www.w3.org/2000/svg">
<path fill-rule="evenodd" clip-rule="evenodd" d="M17.6115 4.58466C17.4366 4.26019 17.0973 4.05831 16.7286 4.05933C16.36 4.06035 16.0218 4.26412 15.8486 4.58956L11.0143 13.6742L1.96716 8.90737C1.61898 8.72392 1.19559 8.76174 0.885442 9.004C0.575298 9.24626 0.436081 9.6479 0.529765 10.0301L4.9779 28.1785C5.04264 28.4427 5.21216 28.6691 5.4474 28.8055C5.68263 28.942 5.9633 28.9767 6.22472 28.9018C14.5271 26.5217 23.8165 27.9131 27.3886 28.9041C27.6545 28.9779 27.9391 28.9385 28.175 28.7952C28.4109 28.652 28.5771 28.4176 28.6342 28.1477L32.4774 9.99925C32.5586 9.61575 32.4083 9.22017 32.0928 8.98743C31.7774 8.75468 31.3551 8.72769 31.0126 8.91839L22.5038 13.6563L17.6115 4.58466ZM12.312 15.4929L16.7373 7.17698L21.2245 15.4978C21.3515 15.7332 21.5676 15.908 21.8244 15.983C22.0813 16.058 22.3574 16.0269 22.5912 15.8968L30.0655 11.7349L26.893 26.7164C22.7576 25.758 14.4642 24.753 6.67705 26.7095L3.00141 11.7129L10.9631 15.9078C11.4503 16.1645 12.0533 15.979 12.312 15.4929ZM12.5815 23.6621C15.3251 23.3734 18.0913 23.3734 20.8349 23.6621C21.3842 23.7199 21.8763 23.3214 21.934 22.7722C21.9918 22.2229 21.5934 21.7308 21.0442 21.6731C18.1615 21.3698 15.2549 21.3698 12.3722 21.6731C11.823 21.7308 11.4246 22.2229 11.4824 22.7722C11.5402 23.3214 12.0323 23.7199 12.5815 23.6621Z" fill="#111827"/>
</svg>
