<svg width="33" height="32" viewBox="0 0 33 32" fill="none" xmlns="http://www.w3.org/2000/svg">
<path fill-rule="evenodd" clip-rule="evenodd" d="M17.6115 4.08466C17.4366 3.76019 17.0973 3.55831 16.7286 3.55933C16.36 3.56035 16.0218 3.76412 15.8486 4.08956L11.0143 13.1742L1.96716 8.40737C1.61898 8.22392 1.19559 8.26174 0.885442 8.504C0.575298 8.74626 0.436081 9.1479 0.529765 9.53013L4.9779 27.6785C5.04264 27.9427 5.21216 28.1691 5.4474 28.3055C5.68263 28.442 5.9633 28.4767 6.22472 28.4018C14.5271 26.0217 23.8165 27.4131 27.3886 28.4041C27.6545 28.4779 27.9391 28.4385 28.175 28.2952C28.4109 28.152 28.5771 27.9176 28.6342 27.6477L32.4774 9.49925C32.5586 9.11575 32.4083 8.72017 32.0928 8.48743C31.7774 8.25468 31.3551 8.22769 31.0126 8.41839L22.5038 13.1563L17.6115 4.08466ZM12.312 14.9929L16.7373 6.67698L21.2245 14.9978C21.3515 15.2332 21.5676 15.408 21.8244 15.483C22.0813 15.558 22.3574 15.5269 22.5912 15.3968L30.0655 11.2349L26.893 26.2164C22.7576 25.258 14.4642 24.253 6.67705 26.2095L3.00141 11.2129L10.9631 15.4078C11.4503 15.6645 12.0533 15.479 12.312 14.9929ZM12.5815 23.1621C15.3251 22.8734 18.0913 22.8734 20.8349 23.1621C21.3842 23.2199 21.8763 22.8214 21.934 22.2722C21.9918 21.7229 21.5934 21.2308 21.0442 21.1731C18.1615 20.8698 15.2549 20.8698 12.3722 21.1731C11.823 21.2308 11.4246 21.7229 11.4824 22.2722C11.5402 22.8214 12.0323 23.2199 12.5815 23.1621Z" fill="#111827"/>
</svg>
