<svg width="33" height="32" viewBox="0 0 33 32" fill="none" xmlns="http://www.w3.org/2000/svg">
<path fill-rule="evenodd" clip-rule="evenodd" d="M16.0115 0.128313C16.3149 -0.0414688 16.6848 -0.0414688 16.9882 0.128313L30.3921 7.6288C30.6531 7.77489 30.8321 8.02814 30.8864 8.31597C30.8996 8.38512 30.9053 8.4549 30.9037 8.52417V23.4987C30.9037 23.8607 30.708 24.1945 30.3921 24.3713L16.9882 31.8718C16.6848 32.0416 16.3149 32.0416 16.0115 31.8718L2.60763 24.3713C2.29166 24.1945 2.09595 23.8607 2.09595 23.4987V8.50146C2.09595 8.13939 2.29166 7.80561 2.60763 7.6288L16.0115 0.128313ZM16.4998 2.14689L27.8692 8.50891L16.8188 14.7868C16.7636 14.7774 16.7068 14.7724 16.6489 14.7724C16.6224 14.7724 16.5962 14.7735 16.5702 14.7755L5.22479 8.45613L16.4998 2.14689ZM15.6489 16.5516L4.09595 10.1167V22.9123L15.6489 29.377V16.5516ZM17.6489 29.2103L28.9037 22.9123V10.2214L17.6489 16.6154V29.2103Z" fill="#111827"/>
</svg>
