<svg width="33" height="33" viewBox="0 0 33 33" fill="none" xmlns="http://www.w3.org/2000/svg">
<path fill-rule="evenodd" clip-rule="evenodd" d="M6.25643 1.98267C5.99191 1.64957 5.54564 1.52026 5.14401 1.66033C4.74239 1.8004 4.47332 2.1792 4.47332 2.60455V12.8253H1.50195C0.949668 12.8253 0.501953 13.273 0.501953 13.8253C0.501953 14.3775 0.949668 14.8253 1.50195 14.8253H4.47332V18.2791H1.50195C0.949668 18.2791 0.501953 18.7268 0.501953 19.2791C0.501953 19.8314 0.949668 20.2791 1.50195 20.2791H4.47332V30.3956C4.47332 30.9479 4.92104 31.3956 5.47332 31.3956C6.02561 31.3956 6.47332 30.9479 6.47332 30.3956V20.2791H18.2321L26.7596 31.0175C27.0241 31.3505 27.4704 31.4799 27.872 31.3398C28.2737 31.1997 28.5427 30.8209 28.5427 30.3956V20.2791H31.4983C32.0506 20.2791 32.4983 19.8314 32.4983 19.2791C32.4983 18.7268 32.0506 18.2791 31.4983 18.2791H28.5427V14.8253H31.4983C32.0506 14.8253 32.4983 14.3775 32.4983 13.8253C32.4983 13.273 32.0506 12.8253 31.4983 12.8253H28.5427V2.60455C28.5427 2.05226 28.095 1.60455 27.5427 1.60455C26.9904 1.60455 26.5427 2.05226 26.5427 2.60455V12.8253H14.8667L6.25643 1.98267ZM12.3128 12.8253L6.47332 5.47182V12.8253H12.3128ZM6.47332 14.8253H13.9011L16.6438 18.2791H6.47332V14.8253ZM19.1977 18.2791L16.455 14.8253H26.5427V18.2791H19.1977ZM20.786 20.2791L26.5427 27.5283V20.2791H20.786Z" fill="#111827"/>
</svg>
