<svg width="33" height="33" viewBox="0 0 33 33" fill="none" xmlns="http://www.w3.org/2000/svg">
<path fill-rule="evenodd" clip-rule="evenodd" d="M16.4998 0.500977C16.8032 0.500975 17.0901 0.63866 17.2799 0.875285L28.946 15.4198C29.2324 15.7769 29.2398 16.2827 28.9641 16.648L17.298 32.1017C17.109 32.352 16.8135 32.4991 16.4998 32.4991C16.1862 32.4991 15.8907 32.352 15.7017 32.1016L4.03586 16.648C3.76011 16.2827 3.76754 15.7769 4.05391 15.4198L15.7198 0.875293C15.9096 0.638666 16.1965 0.500978 16.4998 0.500977ZM6.42706 15.6576L15.5681 4.26089V19.8674L6.42706 15.6576ZM8.00479 18.5861L15.5681 28.6051V22.0693L8.00479 18.5861ZM17.5681 22.0568V28.4243L24.9198 18.6859L17.5681 22.0568ZM26.614 15.7088L17.5681 4.43104V19.8566L26.614 15.7088Z" fill="#111827"/>
</svg>
