<svg width="33" height="33" viewBox="0 0 33 33" fill="none" xmlns="http://www.w3.org/2000/svg">
<path fill-rule="evenodd" clip-rule="evenodd" d="M6.13214 2.86826C5.78241 2.44081 5.15239 2.37781 4.72495 2.72754C4.2975 3.07727 4.2345 3.70729 4.58423 4.13473L14.3895 16.119H9.07219C8.51991 16.119 8.07219 16.5667 8.07219 17.119C8.07219 17.6712 8.51991 18.119 9.07219 18.119H15.5V21.0711H9.07219C8.51991 21.0711 8.07219 21.5188 8.07219 22.0711C8.07219 22.6233 8.51991 23.0711 9.07219 23.0711H15.5V29.4986C15.5 30.0509 15.9477 30.4986 16.5 30.4986C17.0523 30.4986 17.5 30.0509 17.5 29.4986V23.0711H23.9278C24.4801 23.0711 24.9278 22.6233 24.9278 22.0711C24.9278 21.5188 24.4801 21.0711 23.9278 21.0711H17.5V18.119H23.9278C24.4801 18.119 24.9278 17.6712 24.9278 17.119C24.9278 16.5667 24.4801 16.119 23.9278 16.119H18.6102L28.4155 4.13473C28.7652 3.70729 28.7022 3.07727 28.2748 2.72754C27.8473 2.37781 27.2173 2.44081 26.8676 2.86826L16.4999 15.5399L6.13214 2.86826Z" fill="#111827"/>
</svg>
