<svg width="33" height="33" viewBox="0 0 33 33" fill="none" xmlns="http://www.w3.org/2000/svg">
<path fill-rule="evenodd" clip-rule="evenodd" d="M10.5915 2.50146C10.0392 2.50146 9.5915 2.94918 9.5915 3.50146V17.8634H5.86475C5.31246 17.8634 4.86475 18.3111 4.86475 18.8634C4.86475 19.4157 5.31246 19.8634 5.86475 19.8634H9.5915V22.5903H5.86475C5.31246 22.5903 4.86475 23.038 4.86475 23.5903C4.86475 24.1426 5.31246 24.5903 5.86475 24.5903H9.5915V29.4986C9.5915 30.0509 10.0392 30.4986 10.5915 30.4986C11.1438 30.4986 11.5915 30.0509 11.5915 29.4986V24.5903H18.8633C19.4156 24.5903 19.8633 24.1426 19.8633 23.5903C19.8633 23.038 19.4156 22.5903 18.8633 22.5903H11.5915V19.8634H19.4542C21.7565 19.8634 23.9645 18.9488 25.5925 17.3208C27.2205 15.6928 28.1351 13.4848 28.1351 11.1824C28.1351 8.88011 27.2205 6.67206 25.5925 5.04406C23.9645 3.41607 21.7565 2.50146 19.4542 2.50146H10.5915ZM19.4542 17.8634H11.5915V4.50146H19.4542C21.2261 4.50146 22.9254 5.20535 24.1783 6.45828C25.4313 7.71121 26.1351 9.41054 26.1351 11.1824C26.1351 12.9543 25.4313 14.6537 24.1783 15.9066C22.9254 17.1595 21.2261 17.8634 19.4542 17.8634Z" fill="#111827"/>
</svg>
