<svg width="33" height="33" viewBox="0 0 33 33" fill="none" xmlns="http://www.w3.org/2000/svg">
<path fill-rule="evenodd" clip-rule="evenodd" d="M17.4996 3.50146C17.4996 2.94918 17.0519 2.50146 16.4996 2.50146C15.9473 2.50146 15.4996 2.94918 15.4996 3.50146V5.50108H14.0004C12.4092 5.50108 10.8832 6.13317 9.75812 7.25828C8.63301 8.3834 8.00092 9.90938 8.00092 11.5005C8.00092 13.0917 8.63301 14.6177 9.75812 15.7428C10.8832 16.8679 12.4092 17.5 14.0004 17.5H15.4996V25.4989H13.5004C12.4397 25.4989 11.4224 25.0775 10.6724 24.3275C9.92235 23.5774 9.50098 22.5602 9.50098 21.4994C9.50098 20.9472 9.05326 20.4994 8.50098 20.4994C7.94869 20.4994 7.50098 20.9472 7.50098 21.4994C7.50098 23.0906 8.13306 24.6166 9.25818 25.7417C10.3833 26.8668 11.9093 27.4989 13.5004 27.4989H15.4996V29.4986C15.4996 30.0509 15.9473 30.4986 16.4996 30.4986C17.0519 30.4986 17.4996 30.0509 17.4996 29.4986V27.4989H19.4998C21.0909 27.4989 22.6169 26.8668 23.742 25.7417C24.8671 24.6166 25.4992 23.0906 25.4992 21.4994C25.4992 19.9083 24.8671 18.3823 23.742 17.2572C22.6169 16.1321 21.0909 15.5 19.4998 15.5H17.4996V7.50108H18.4999C19.0251 7.50108 19.5452 7.60453 20.0304 7.80552C20.5156 8.00652 20.9565 8.30111 21.3279 8.6725C21.6993 9.04388 21.9939 9.48478 22.1949 9.97001C22.3959 10.4552 22.4993 10.9753 22.4993 11.5005C22.4993 12.0528 22.9471 12.5005 23.4993 12.5005C24.0516 12.5005 24.4993 12.0528 24.4993 11.5005C24.4993 10.7127 24.3442 9.93253 24.0427 9.20465C23.7412 8.47676 23.2992 7.81538 22.7421 7.25828C22.185 6.70118 21.5237 6.25927 20.7958 5.95776C20.0679 5.65626 19.2877 5.50108 18.4999 5.50108H17.4996V3.50146ZM15.4996 7.50108H14.0004C12.9397 7.50108 11.9224 7.92245 11.1723 8.6725C10.4223 9.42254 10.0009 10.4398 10.0009 11.5005C10.0009 12.5613 10.4223 13.5785 11.1723 14.3286C11.9224 15.0786 12.9397 15.5 14.0004 15.5H15.4996V7.50108ZM17.4996 17.5V25.4989H19.4998C20.5605 25.4989 21.5778 25.0775 22.3278 24.3275C23.0779 23.5774 23.4992 22.5602 23.4992 21.4994C23.4992 20.4387 23.0779 19.4214 22.3278 18.6714C21.5778 17.9214 20.5605 17.5 19.4998 17.5H17.4996Z" fill="#111827"/>
</svg>
