<svg width="33" height="33" viewBox="0 0 33 33" fill="none" xmlns="http://www.w3.org/2000/svg">
<path fill-rule="evenodd" clip-rule="evenodd" d="M12.544 4.50146H7.45756C6.90528 4.50146 6.45756 4.05375 6.45756 3.50146C6.45756 2.94918 6.90528 2.50146 7.45756 2.50146H12.544H25.5425C26.0948 2.50146 26.5425 2.94918 26.5425 3.50146C26.5425 4.05375 26.0948 4.50146 25.5425 4.50146H17.9651C18.1306 4.64287 18.2911 4.7912 18.4462 4.94625C19.357 5.85704 20.0355 6.95663 20.4438 8.15304H25.5425C26.0948 8.15304 26.5425 8.60075 26.5425 9.15304C26.5425 9.70532 26.0948 10.153 25.5425 10.153H20.862C20.8812 10.3835 20.891 10.6155 20.891 10.8485C20.891 13.0623 20.0116 15.1854 18.4462 16.7507C16.8808 18.3161 14.7577 19.1955 12.544 19.1955H10.0442L20.5637 28.7587C20.9723 29.1302 21.0024 29.7626 20.6309 30.1713C20.2594 30.5799 19.627 30.6101 19.2183 30.2386L6.78489 18.9354C6.47919 18.6575 6.37586 18.2203 6.52484 17.8349C6.67381 17.4496 7.04442 17.1955 7.45756 17.1955H12.544C14.2273 17.1955 15.8417 16.5268 17.032 15.3365C18.2223 14.1462 18.891 12.5318 18.891 10.8485C18.891 10.615 18.8781 10.3829 18.8528 10.153H7.45756C6.90528 10.153 6.45756 9.70532 6.45756 9.15304C6.45756 8.60075 6.90528 8.15304 7.45756 8.15304H18.2902C17.9807 7.4933 17.5571 6.88561 17.032 6.36046C15.8417 5.17017 14.2273 4.50146 12.544 4.50146Z" fill="#111827"/>
</svg>
