<svg width="33" height="33" viewBox="0 0 33 33" fill="none" xmlns="http://www.w3.org/2000/svg">
<path fill-rule="evenodd" clip-rule="evenodd" d="M7.04655 5.45581C6.49427 5.45581 6.04655 5.90353 6.04655 6.45581C6.04655 7.0081 6.49427 7.45581 7.04655 7.45581H25.9536C26.5059 7.45581 26.9536 7.0081 26.9536 6.45581C26.9536 5.90353 26.5059 5.45581 25.9536 5.45581H7.04655ZM4.68283 13.7276C4.13055 13.7276 3.68283 14.1753 3.68283 14.7276C3.68283 15.2799 4.13055 15.7276 4.68283 15.7276H11.955V17.091C11.955 19.333 11.0644 21.4832 9.47902 23.0685C7.89368 24.6539 5.74348 25.5445 3.50146 25.5445C2.94918 25.5445 2.50146 25.9922 2.50146 26.5445C2.50146 27.0968 2.94918 27.5445 3.50146 27.5445C6.27392 27.5445 8.93282 26.4432 10.8932 24.4827C12.8537 22.5223 13.955 19.8634 13.955 17.091V15.7276H19.045V22.9994C19.045 24.2049 19.5239 25.3609 20.3763 26.2133C21.2286 27.0657 22.3847 27.5445 23.5901 27.5445H29.4986C30.0509 27.5445 30.4986 27.0968 30.4986 26.5445V22.9994C30.4986 22.4472 30.0509 21.9994 29.4986 21.9994C28.9463 21.9994 28.4986 22.4472 28.4986 22.9994V25.5445H23.5901C22.9151 25.5445 22.2678 25.2764 21.7905 24.7991C21.3132 24.3218 21.045 23.6744 21.045 22.9994V15.7276H28.3167C28.869 15.7276 29.3167 15.2799 29.3167 14.7276C29.3167 14.1753 28.869 13.7276 28.3167 13.7276H20.045H12.955H4.68283Z" fill="#111827"/>
</svg>
