<svg width="33" height="33" viewBox="0 0 33 33" fill="none" xmlns="http://www.w3.org/2000/svg">
<path fill-rule="evenodd" clip-rule="evenodd" d="M5.3565 8.69615C5.14863 8.18448 4.56533 7.9382 4.05365 8.14606C3.54198 8.35393 3.29569 8.93723 3.50356 9.44891L5.96204 15.5006H3.50146C2.94918 15.5006 2.50146 15.9483 2.50146 16.5006C2.50146 17.0528 2.94918 17.5006 3.50146 17.5006H6.77454L9.53862 24.3044C9.69178 24.6814 10.0581 24.928 10.4651 24.928C10.872 24.928 11.2384 24.6814 11.3916 24.3044L14.1556 17.5006H18.8447L21.6087 24.3044C21.7619 24.6814 22.1283 24.928 22.5352 24.928C22.9421 24.928 23.3085 24.6814 23.4617 24.3044L26.2257 17.5006H29.4986C30.0509 17.5006 30.4986 17.0528 30.4986 16.5006C30.4986 15.9483 30.0509 15.5006 29.4986 15.5006H27.0382L29.4967 9.44891C29.7046 8.93723 29.4583 8.35393 28.9466 8.14606C28.435 7.9382 27.8517 8.18448 27.6438 8.69615L24.8795 15.5006H20.1909L17.4266 8.69615C17.2734 8.31913 16.9071 8.07253 16.5001 8.07253C16.0932 8.07253 15.7268 8.31913 15.5737 8.69615L12.8094 15.5006H8.12078L5.3565 8.69615ZM8.93328 17.5006L10.4651 21.2711L11.9969 17.5006H8.93328ZM14.9681 15.5006H18.0322L16.5001 11.7294L14.9681 15.5006ZM21.0034 17.5006L22.5352 21.2711L24.067 17.5006H21.0034Z" fill="#111827"/>
</svg>
