<svg width="32" height="33" viewBox="0 0 32 33" fill="none" xmlns="http://www.w3.org/2000/svg">
<path d="M16 6.5V26.5" stroke="#1C1B1F" stroke-width="2" stroke-linecap="round" stroke-linejoin="round"/>
<path d="M21.3847 12.6538C21.3847 12.1487 21.2852 11.6485 21.0919 11.1819C20.8986 10.7153 20.6153 10.2913 20.2581 9.93413C19.901 9.57698 19.477 9.29368 19.0104 9.10039C18.5437 8.9071 18.0436 8.80762 17.5385 8.80762H14.077C13.0569 8.80762 12.0786 9.21284 11.3573 9.93413C10.636 10.6554 10.2308 11.6337 10.2308 12.6538C10.2308 13.6738 10.636 14.6521 11.3573 15.3734C12.0786 16.0947 13.0569 16.4999 14.077 16.4999H18.3077C19.3278 16.4999 20.3061 16.9051 21.0274 17.6264C21.7487 18.3477 22.1539 19.326 22.1539 20.3461C22.1539 21.3661 21.7487 22.3444 21.0274 23.0657C20.3061 23.787 19.3278 24.1922 18.3077 24.1922H13.6923C12.6723 24.1922 11.694 23.787 10.9727 23.0657C10.2514 22.3444 9.84619 21.3661 9.84619 20.3461" stroke="#1C1B1F" stroke-width="2" stroke-linecap="round" stroke-linejoin="round"/>
</svg>
