<svg width="32" height="32" viewBox="0 0 32 32" fill="none" xmlns="http://www.w3.org/2000/svg">
<path d="M11.2003 15.5999H18.4003C19.4612 15.5999 20.4786 16.0213 21.2287 16.7715C21.9789 17.5216 22.4003 18.539 22.4003 19.5999C22.4003 20.6608 21.9789 21.6782 21.2287 22.4283C20.4786 23.1785 19.4612 23.5999 18.4003 23.5999L11.1997 23.5994V8.39941L17.2003 8.3999C18.1551 8.3999 19.0707 8.77919 19.7459 9.45432C20.421 10.1294 20.8003 11.0451 20.8003 11.9999C20.8003 12.9547 20.421 13.8704 19.7459 14.5455C19.0707 15.2206 18.1551 15.5999 17.2003 15.5999" stroke="#1C1B1F" stroke-width="2" stroke-linecap="round" stroke-linejoin="round"/>
<path d="M9.59985 8.39941H11.1999" stroke="#1C1B1F" stroke-width="2" stroke-linecap="round" stroke-linejoin="round"/>
<path d="M9.59985 23.5996H11.1999" stroke="#1C1B1F" stroke-width="2" stroke-linecap="round" stroke-linejoin="round"/>
<path d="M13.6006 8.4V6" stroke="#1C1B1F" stroke-width="2" stroke-linecap="round" stroke-linejoin="round"/>
<path d="M16.8003 8.4V6" stroke="#1C1B1F" stroke-width="2" stroke-linecap="round" stroke-linejoin="round"/>
<path d="M13.6006 26.0001V23.6001" stroke="#1C1B1F" stroke-width="2" stroke-linecap="round" stroke-linejoin="round"/>
<path d="M16.8003 26.0001V23.6001" stroke="#1C1B1F" stroke-width="2" stroke-linecap="round" stroke-linejoin="round"/>
</svg>
