<svg width="33" height="33" viewBox="0 0 33 33" fill="none" xmlns="http://www.w3.org/2000/svg">
<path fill-rule="evenodd" clip-rule="evenodd" d="M21.7099 4.68661C19.8409 4.31483 17.9035 4.50564 16.1429 5.23491C14.3823 5.96417 12.8775 7.19914 11.8188 8.78364C10.9462 10.0895 10.409 11.5845 10.247 13.1367H19.8302C20.3824 13.1367 20.8302 13.5844 20.8302 14.1367C20.8302 14.689 20.3824 15.1367 19.8302 15.1367H10.195V17.8634H17.4668C18.0191 17.8634 18.4668 18.3111 18.4668 18.8634C18.4668 19.4156 18.0191 19.8634 17.4668 19.8634H10.247C10.4089 21.4155 10.9462 22.9105 11.8188 24.2164C12.8775 25.8009 14.3823 27.0359 16.1429 27.7652C17.9035 28.4944 19.8409 28.6853 21.7099 28.3135C23.5789 27.9417 25.2958 27.024 26.6433 25.6765C27.0338 25.286 27.667 25.286 28.0575 25.6765C28.448 26.0671 28.448 26.7002 28.0575 27.0908C26.4303 28.718 24.3571 29.8261 22.1001 30.2751C19.8431 30.724 17.5036 30.4936 15.3776 29.6129C13.2515 28.7323 11.4343 27.241 10.1559 25.3276C9.06331 23.6925 8.40608 21.8119 8.23801 19.8634H5.6499C5.09762 19.8634 4.6499 19.4156 4.6499 18.8634C4.6499 18.3111 5.09762 17.8634 5.6499 17.8634H8.19497V15.1367H5.6499C5.09762 15.1367 4.6499 14.689 4.6499 14.1367C4.6499 13.5844 5.09762 13.1367 5.6499 13.1367H8.23802C8.40609 11.1882 9.06332 9.30759 10.1559 7.6725C11.4343 5.7591 13.2515 4.26779 15.3776 3.38715C17.5036 2.50651 19.8431 2.27609 22.1001 2.72504C24.3571 3.17398 26.4303 4.28213 28.0575 5.90934C28.448 6.29986 28.448 6.93303 28.0575 7.32355C27.667 7.71408 27.0338 7.71408 26.6433 7.32355C25.2958 5.97605 23.5789 5.05838 21.7099 4.68661Z" fill="#111827"/>
</svg>
