<svg width="33" height="33" viewBox="0 0 33 33" fill="none" xmlns="http://www.w3.org/2000/svg">
<path fill-rule="evenodd" clip-rule="evenodd" d="M16.4996 2.50146C17.0519 2.50146 17.4996 2.94918 17.4996 3.50146V5.50107H18.4998C19.2877 5.50107 20.0678 5.65625 20.7957 5.95775C21.5236 6.25925 22.185 6.70117 22.742 7.25826C23.2991 7.81536 23.7411 8.47673 24.0426 9.20462C24.3441 9.9325 24.4992 10.7126 24.4992 11.5005C24.4992 12.0528 24.0515 12.5005 23.4992 12.5005C22.947 12.5005 22.4992 12.0528 22.4992 11.5005C22.4992 10.9753 22.3958 10.4552 22.1948 9.96998C21.9938 9.48475 21.6992 9.04386 21.3278 8.67248C20.9565 8.3011 20.5156 8.0065 20.0303 7.80551C19.5451 7.60452 19.025 7.50107 18.4998 7.50107H16.509C16.5059 7.5011 16.5027 7.50112 16.4996 7.50112C16.4965 7.50112 16.4934 7.5011 16.4902 7.50107H14.0003C12.9396 7.50107 11.9224 7.92244 11.1723 8.67248C10.4223 9.42251 10.0009 10.4398 10.0009 11.5005C10.0009 12.5612 10.4223 13.5785 11.1723 14.3285C11.9224 15.0785 12.9396 15.4999 14.0003 15.4999H19.4997C21.0908 15.4999 22.6168 16.132 23.7419 17.2571C24.867 18.3822 25.4991 19.9082 25.4991 21.4993C25.4991 23.0905 24.867 24.6165 23.7419 25.7416C22.6168 26.8667 21.0908 27.4988 19.4997 27.4988H17.4996V29.4985C17.4996 30.0508 17.0519 30.4985 16.4996 30.4985C15.9473 30.4985 15.4996 30.0508 15.4996 29.4985V27.4988H13.5004C11.9093 27.4988 10.3833 26.8667 9.25817 25.7416C8.13306 24.6165 7.50098 23.0905 7.50098 21.4993C7.50098 20.9471 7.94869 20.4993 8.50098 20.4993C9.05326 20.4993 9.50098 20.9471 9.50098 21.4993C9.50098 22.56 9.92234 23.5773 10.6724 24.3274C11.4224 25.0774 12.4397 25.4988 13.5004 25.4988H19.4997C20.5604 25.4988 21.5777 25.0774 22.3277 24.3274C23.0778 23.5773 23.4991 22.56 23.4991 21.4993C23.4991 20.4386 23.0778 19.4214 22.3277 18.6713C21.5777 17.9213 20.5604 17.4999 19.4997 17.4999H14.0003C12.4092 17.4999 10.8832 16.8678 9.75811 15.7427C8.633 14.6176 8.00092 13.0916 8.00092 11.5005C8.00092 9.90935 8.633 8.38337 9.75811 7.25826C10.8832 6.13315 12.4092 5.50107 14.0003 5.50107H15.4996V3.50146C15.4996 2.94918 15.9473 2.50146 16.4996 2.50146Z" fill="#111827"/>
</svg>
