<svg width="32" height="33" viewBox="0 0 32 33" fill="none" xmlns="http://www.w3.org/2000/svg">
<path d="M11.2003 16.0999H18.4003C19.4612 16.0999 20.4786 16.5213 21.2287 17.2715C21.9789 18.0216 22.4003 19.039 22.4003 20.0999C22.4003 21.1608 21.9789 22.1782 21.2287 22.9283C20.4786 23.6785 19.4612 24.0999 18.4003 24.0999L11.1997 24.0994V8.89941L17.2003 8.8999C18.1551 8.8999 19.0707 9.27919 19.7459 9.95432C20.421 10.6294 20.8003 11.5451 20.8003 12.4999C20.8003 13.4547 20.421 14.3704 19.7459 15.0455C19.0707 15.7206 18.1551 16.0999 17.2003 16.0999" stroke="#1C1B1F" stroke-width="2" stroke-linecap="round" stroke-linejoin="round"/>
<path d="M9.59985 8.89941H11.1999" stroke="#1C1B1F" stroke-width="2" stroke-linecap="round" stroke-linejoin="round"/>
<path d="M9.59985 24.0996H11.1999" stroke="#1C1B1F" stroke-width="2" stroke-linecap="round" stroke-linejoin="round"/>
<path d="M13.6006 8.9V6.5" stroke="#1C1B1F" stroke-width="2" stroke-linecap="round" stroke-linejoin="round"/>
<path d="M16.8003 8.9V6.5" stroke="#1C1B1F" stroke-width="2" stroke-linecap="round" stroke-linejoin="round"/>
<path d="M13.6006 26.5001V24.1001" stroke="#1C1B1F" stroke-width="2" stroke-linecap="round" stroke-linejoin="round"/>
<path d="M16.8003 26.5001V24.1001" stroke="#1C1B1F" stroke-width="2" stroke-linecap="round" stroke-linejoin="round"/>
</svg>
