<svg width="33" height="33" viewBox="0 0 33 33" fill="none" xmlns="http://www.w3.org/2000/svg">
<path fill-rule="evenodd" clip-rule="evenodd" d="M16.7531 4.94364C17.8145 4.50398 18.9825 4.38895 20.1093 4.61308C21.2361 4.83721 22.2711 5.39045 23.0835 6.20282C23.474 6.59334 24.1071 6.59334 24.4977 6.20282C24.8882 5.81229 24.8882 5.17913 24.4977 4.78861C23.4056 3.69653 22.0142 2.95281 20.4994 2.65151C18.9847 2.35021 17.4146 2.50485 15.9877 3.09588C14.5609 3.68691 13.3413 4.68778 12.4833 5.97192C11.6252 7.25607 11.1673 8.76582 11.1673 10.3102V16.738H6.59644C6.04415 16.738 5.59644 17.1857 5.59644 17.738C5.59644 18.2903 6.04415 18.738 6.59644 18.738H11.1673V23.9278C11.1673 25.1401 10.6857 26.3027 9.82849 27.1599C8.9713 28.0171 7.80869 28.4986 6.59644 28.4986C6.04415 28.4986 5.59644 28.9463 5.59644 29.4986C5.59644 30.0509 6.04415 30.4986 6.59644 30.4986H26.4038C26.9561 30.4986 27.4038 30.0509 27.4038 29.4986C27.4038 28.9463 26.9561 28.4986 26.4038 28.4986H11.317C12.5027 27.274 13.1673 25.6352 13.1673 23.9278V18.738H18.976C19.5283 18.738 19.976 18.2903 19.976 17.738C19.976 17.1857 19.5283 16.738 18.976 16.738H13.1673V10.3102C13.1673 9.16138 13.5079 8.03831 14.1462 7.08306C14.7845 6.12781 15.6917 5.38329 16.7531 4.94364Z" fill="#111827"/>
</svg>
