<svg width="32" height="32" viewBox="0 0 32 32" fill="none" xmlns="http://www.w3.org/2000/svg">
<path d="M16 6V26" stroke="#1C1B1F" stroke-width="2" stroke-linecap="round" stroke-linejoin="round"/>
<path d="M21.3847 12.1538C21.3847 11.6487 21.2852 11.1485 21.0919 10.6819C20.8986 10.2153 20.6153 9.79128 20.2581 9.43413C19.901 9.07698 19.477 8.79368 19.0104 8.60039C18.5437 8.4071 18.0436 8.30762 17.5385 8.30762H14.077C13.0569 8.30762 12.0786 8.71284 11.3573 9.43413C10.636 10.1554 10.2308 11.1337 10.2308 12.1538C10.2308 13.1738 10.636 14.1521 11.3573 14.8734C12.0786 15.5947 13.0569 15.9999 14.077 15.9999H18.3077C19.3278 15.9999 20.3061 16.4051 21.0274 17.1264C21.7487 17.8477 22.1539 18.826 22.1539 19.8461C22.1539 20.8661 21.7487 21.8444 21.0274 22.5657C20.3061 23.287 19.3278 23.6922 18.3077 23.6922H13.6923C12.6723 23.6922 11.694 23.287 10.9727 22.5657C10.2514 21.8444 9.84619 20.8661 9.84619 19.8461" stroke="#1C1B1F" stroke-width="2" stroke-linecap="round" stroke-linejoin="round"/>
</svg>
