<svg width="33" height="33" viewBox="0 0 33 33" fill="none" xmlns="http://www.w3.org/2000/svg">
<path fill-rule="evenodd" clip-rule="evenodd" d="M13.3806 2.50146C13.9329 2.50146 14.3806 2.94918 14.3806 3.50146V5.62047L16.5401 5.62065V3.50146C16.5401 2.94918 16.9878 2.50146 17.5401 2.50146C18.0924 2.50146 18.5401 2.94918 18.5401 3.50146V5.64107C19.8705 5.75387 21.1247 6.33286 22.0761 7.28424C23.1412 8.34934 23.7395 9.79393 23.7395 11.3002C23.7395 12.8065 23.1412 14.2511 22.0761 15.3162C22.0356 15.3566 21.9946 15.3964 21.9531 15.4355C22.7134 15.7443 23.4121 16.2039 24.0035 16.7954C25.1662 17.958 25.8193 19.5349 25.8193 21.179C25.8193 22.8232 25.1662 24.4001 24.0035 25.5627C22.8409 26.7253 21.2641 27.3784 19.6199 27.3784H19.6198L18.5401 27.3784V29.4987C18.5401 30.051 18.0924 30.4987 17.5401 30.4987C16.9878 30.4987 16.5401 30.051 16.5401 29.4987V27.3782L14.3806 27.3781V29.4987C14.3806 30.051 13.9329 30.4987 13.3806 30.4987C12.8284 30.4987 12.3806 30.051 12.3806 29.4987V27.3779L10.2929 27.3778L10.2796 27.3781L10.2604 27.3783H8.18066C7.62838 27.3783 7.18066 26.9306 7.18066 26.3783C7.18066 25.826 7.62838 25.3783 8.18066 25.3783H9.26027V7.62013H8.18066C7.62838 7.62013 7.18066 7.17242 7.18066 6.62013C7.18066 6.06785 7.62838 5.62013 8.18066 5.62013H10.2602H10.2603H10.2604H10.2606L12.3806 5.62031V3.50146C12.3806 2.94918 12.8284 2.50146 13.3806 2.50146ZM17.5126 7.62072C17.5217 7.62097 17.5309 7.62109 17.5401 7.62109C17.5492 7.62109 17.5583 7.62097 17.5674 7.62073L18.06 7.62077H18.0601C19.036 7.62077 19.9718 8.00842 20.6619 8.69845C21.3519 9.38848 21.7395 10.3244 21.7395 11.3002C21.7395 12.2761 21.3519 13.2119 20.6619 13.902C19.9718 14.592 19.0359 14.9797 18.0601 14.9797H11.2603V7.62022L13.3426 7.62039C13.3552 7.62086 13.3679 7.62109 13.3806 7.62109C13.3933 7.62109 13.4059 7.62086 13.4185 7.62039L17.5126 7.62072ZM11.2603 16.9797V25.3779L19.6199 25.3784H19.62C20.7337 25.3784 21.8018 24.936 22.5893 24.1485C23.3769 23.3609 23.8193 22.2928 23.8193 21.179C23.8193 20.0653 23.3769 18.9972 22.5893 18.2096C21.8018 17.4221 20.7337 16.9797 19.6199 16.9797H18.0601H11.2603Z" fill="#111827"/>
</svg>
