<svg width="33" height="32" viewBox="0 0 33 32" fill="none" xmlns="http://www.w3.org/2000/svg">
<path fill-rule="evenodd" clip-rule="evenodd" d="M12.5531 0.956057C12.4205 0.726373 12.2021 0.558774 11.9459 0.490131C11.6897 0.421488 11.4167 0.457424 11.1871 0.590032L5.81119 3.69379C5.3329 3.96994 5.16902 4.58153 5.44517 5.05982L6.9489 7.66437C5.87912 8.88924 5.04059 10.3226 4.50248 11.8962H1.49829C0.946006 11.8962 0.498291 12.3439 0.498291 12.8962V19.1037C0.498291 19.656 0.946006 20.1037 1.49829 20.1037H4.50256C5.04068 21.6773 5.87918 23.1105 6.94891 24.3354L5.44516 26.9399C5.16901 27.4182 5.33289 28.0298 5.81118 28.306L11.1871 31.4097C11.6653 31.6859 12.2769 31.522 12.5531 31.0437L14.0558 28.441C14.8473 28.5957 15.6646 28.6766 16.5 28.6766C17.3354 28.6766 18.1527 28.5957 18.9443 28.441L20.447 31.0437C20.7231 31.522 21.3347 31.6858 21.813 31.4097L27.1889 28.3059C27.6671 28.0298 27.831 27.4182 27.5549 26.9399L26.0511 24.3353C27.1208 23.1105 27.9593 21.6773 28.4974 20.1037H31.5019C32.0542 20.1037 32.5019 19.656 32.5019 19.1037V12.8962C32.5019 12.3439 32.0542 11.8962 31.5019 11.8962H28.4975C27.9594 10.3226 27.1209 8.88927 26.0511 7.66441L27.5549 5.05983C27.831 4.58154 27.6671 3.96995 27.1888 3.69381L21.813 0.590047C21.5833 0.457438 21.3103 0.421503 21.0542 0.490146C20.798 0.558789 20.5796 0.726388 20.4469 0.956072L18.9443 3.55876C18.1527 3.40406 17.3354 3.32312 16.5 3.32312C15.6646 3.32312 14.8473 3.40406 14.0558 3.55875L12.5531 0.956057ZM9.04976 7.30315L7.67722 4.92584L11.321 2.82208L12.6921 5.19685C12.917 5.58629 13.3741 5.77775 13.8094 5.66478C14.6679 5.44197 15.5693 5.32312 16.5 5.32312C17.4307 5.32312 18.3322 5.44197 19.1907 5.66479C19.6259 5.77776 20.0831 5.5863 20.3079 5.19686L21.679 2.8221L25.3228 4.92586L23.9503 7.30319C23.7253 7.69284 23.7883 8.18476 24.1041 8.50519C25.3659 9.78527 26.3059 11.3809 26.7956 13.1614C26.9149 13.5954 27.3096 13.8962 27.7598 13.8962H30.5019V18.1037H27.7597C27.3095 18.1037 26.9149 18.4045 26.7955 18.8385C26.3058 20.6189 25.3658 22.2145 24.1041 23.4945C23.7883 23.815 23.7253 24.3069 23.9503 24.6965L25.3228 27.0739L21.679 29.1777L20.3079 26.8029C20.0831 26.4134 19.6259 26.222 19.1907 26.3349C18.3321 26.5577 17.4307 26.6766 16.5 26.6766C15.5693 26.6766 14.6679 26.5577 13.8094 26.3349C13.3741 26.222 12.917 26.4134 12.6921 26.8029L11.321 29.1777L7.67721 27.0739L9.04977 24.6966C9.27473 24.3069 9.21177 23.815 8.89592 23.4946C7.63417 22.2145 6.69417 20.6189 6.20449 18.8385C6.08511 18.4045 5.69044 18.1037 5.24029 18.1037H2.49829V13.8962H5.24023C5.69039 13.8962 6.08506 13.5954 6.20443 13.1614C6.69409 11.3809 7.63411 9.78524 8.89591 8.50515C9.21176 8.18472 9.27472 7.69281 9.04976 7.30315ZM16.9883 8.00047C16.6848 7.83069 16.315 7.83069 16.0116 8.00047L9.64275 11.5643C9.32678 11.7411 9.13107 12.0749 9.13107 12.437V19.5629C9.13107 19.925 9.32678 20.2588 9.64275 20.4356L16.0116 23.9994C16.315 24.1692 16.6848 24.1692 16.9883 23.9994L23.3571 20.4356C23.6731 20.2588 23.8688 19.925 23.8688 19.5629V12.459C23.8711 12.3559 23.8574 12.2517 23.8268 12.1501C23.7533 11.9048 23.587 11.693 23.3571 11.5643L16.9883 8.00047ZM20.8336 12.4441L16.4999 10.019L12.2192 12.4144L16.5953 14.8519L20.8336 12.4441ZM11.1311 14.0977V18.9766L15.5707 21.4609V16.5705L11.1311 14.0977ZM21.8688 18.9766L17.5707 21.3817V16.598L21.8688 14.1562V18.9766Z" fill="#111827"/>
</svg>
