<svg width="33" height="32" viewBox="0 0 33 32" fill="none" xmlns="http://www.w3.org/2000/svg">
<path fill-rule="evenodd" clip-rule="evenodd" d="M7.78442 5.92891C7.78442 5.20218 8.41277 4.26495 10.0712 3.44987C11.6648 2.66664 13.9364 2.15381 16.5001 2.15381C19.0638 2.15381 21.3354 2.66664 22.929 3.44987C24.5874 4.26495 25.2158 5.20218 25.2158 5.92891C25.2158 6.65564 24.5874 7.59288 22.929 8.40796C21.3354 9.19118 19.0638 9.70402 16.5001 9.70402C13.9364 9.70402 11.6648 9.19118 10.0712 8.40796C8.41277 7.59288 7.78442 6.65564 7.78442 5.92891ZM16.5001 0.153809C13.698 0.153809 11.1118 0.709918 9.18899 1.65494C7.33101 2.56811 5.78442 4.01842 5.78442 5.92891C5.78442 5.92895 5.78442 5.92899 5.78442 5.92902V26.3917C5.78442 27.5906 6.32163 28.8328 7.45045 29.5292C12.7577 32.8032 20.1026 32.4224 25.3561 29.5473C26.5903 28.8718 27.2158 27.5631 27.2158 26.2712V5.92902C27.2158 5.92899 27.2158 5.92895 27.2158 5.92891C27.2158 4.01842 25.6692 2.56811 23.8112 1.65494C21.8884 0.709918 19.3022 0.153809 16.5001 0.153809ZM25.2158 9.35323C24.7859 9.67413 24.3098 9.95785 23.8112 10.2029C21.8884 11.1479 19.3022 11.704 16.5001 11.704C13.698 11.704 11.1118 11.1479 9.18899 10.2029C8.69042 9.95785 8.21428 9.67413 7.78442 9.35323V26.3917C7.78442 27.0291 8.06652 27.5593 8.50052 27.827C13.0941 30.6608 19.6609 30.3842 24.3959 27.7928C24.8912 27.5217 25.2158 26.9509 25.2158 26.2712V9.35323Z" fill="#111827"/>
</svg>
