<svg width="33" height="33" viewBox="0 0 33 33" fill="none" xmlns="http://www.w3.org/2000/svg">
<path fill-rule="evenodd" clip-rule="evenodd" d="M26.9509 5.16667L27.6618 4.90233L27.3133 3.96503L26.1259 4.40652L26.5559 3.21557L25.6154 2.87598L25.368 3.56098L25.1601 2.91057L24.2076 3.2151L24.7882 5.03115L19.711 10.1083L20.4181 10.8154L25.4915 5.7421L27.3252 6.34083L27.6356 5.39022L26.9509 5.16667ZM15.3926 3.61639L15.077 4.30562L15.7186 3.97989L16.1713 4.87155L14.4514 5.74476V12.9189H13.4514V5.73937L11.7566 4.86578L12.2148 3.97692L12.8223 4.29006L12.5127 3.63061L13.4179 3.20565L13.956 4.35183L14.4834 3.20006L15.3926 3.61639ZM8.99736 9.83246L9.685 8.94838L8.60973 8.80941L8.73791 7.81766L9.82425 7.95806L9.40953 6.96274L10.3326 6.57812L10.7498 7.57939L11.4492 6.68026L12.2385 7.29421L11.5488 8.18096L12.6493 8.32319L12.5211 9.31494L11.4133 9.17176L12.9934 12.9639L12.0703 13.3485L10.4863 9.54697L9.7867 10.4464L8.99736 9.83246ZM18.9402 9.83246L18.2526 8.94838L19.3278 8.80941L19.1996 7.81766L18.1133 7.95806L18.528 6.96274L17.6049 6.57812L17.1877 7.57939L16.4884 6.68026L15.6991 7.29421L16.3888 8.18096L15.2883 8.32319L15.4165 9.31494L16.5243 9.17176L14.9442 12.9639L15.8673 13.3485L17.4513 9.54697L18.1509 10.4464L18.9402 9.83246ZM30.9012 10.5397L30.7624 11.6511L29.7701 11.527L29.9114 10.3962L26.1031 11.9643L25.7224 11.0396L29.5211 9.47548L28.6364 8.79335L29.2471 8.00144L30.126 8.67917L30.2653 7.5644L31.2576 7.68842L31.1164 8.81859L32.1192 8.40564L32.5 9.33032L31.5029 9.74088L32.3703 10.4097L31.7596 11.2016L30.9012 10.5397ZM4.02887 14.1256L4.90487 13.4464L3.85212 13.0118L4.23372 12.0875L5.28127 12.52L5.13003 11.3994L6.12104 11.2656L6.2723 12.3864L7.16853 11.6916L7.78122 12.4819L6.88048 13.1802L10.6611 14.741L10.2795 15.6653L6.5045 14.1068L6.65663 15.234L5.66562 15.3678L5.51341 14.24L4.64155 14.9159L4.02887 14.1256ZM10.6899 18.5361L6.88955 20.1483L7.75695 20.8207L7.1443 21.611L6.28097 20.9418L6.14625 22.0331L5.15379 21.9105L5.28744 20.828L4.26256 21.2627L3.87203 20.3421L4.92893 19.8938L4.00464 19.1773L4.61728 18.387L5.50395 19.0743L5.64073 17.9663L6.63319 18.0889L6.49224 19.2306L10.2993 17.6156L10.6899 18.5361ZM9.41995 26.4051L9.85638 25.3402L8.71773 25.4912L8.58628 24.4999L9.69424 24.353L9.02851 23.4572L9.83112 22.8607L10.5024 23.7639L12.0764 19.9235L13.0017 20.3027L11.4364 24.1219L12.4966 23.9814L12.6281 24.9727L11.5109 25.1208L12.2068 26.0572L11.4042 26.6537L10.7561 25.7818L10.3453 26.7843L9.41995 26.4051ZM16.3679 25.1141L15.6901 25.9836L16.4788 26.5984L17.1756 25.7046L17.6093 26.7569L18.5338 26.3758L18.1089 25.3448L19.23 25.4934L19.3614 24.5021L18.2299 24.3521L18.9159 23.4722L18.1273 22.8574L17.4446 23.7331L15.8924 19.9671L14.9678 20.3482L16.525 24.1262L15.4271 23.9807L15.2958 24.9721L16.3679 25.1141ZM22.662 20.7899L23.6943 21.213L24.0736 20.2878L23.0443 19.8658L23.9297 19.195L23.3258 18.398L22.4239 19.0812L22.27 17.9763L21.2795 18.1143L21.4315 19.2046L17.6487 17.6539L17.2694 18.5792L21.0441 20.1266L20.1622 20.7948L20.7661 21.5919L21.6688 20.9079L21.823 22.014L22.8134 21.8759L22.662 20.7899ZM6.071 7.10542L5.8069 6.39515L4.8696 6.74367L5.31109 7.93102L4.12013 7.50103L3.78054 8.44161L4.46549 8.68891L3.81465 8.89699L4.11918 9.8495L5.93523 9.26887L11.0124 14.346L11.7195 13.6389L6.64618 8.5656L7.24491 6.73193L6.29431 6.42153L6.071 7.10542ZM3.04493 16.1687L10.2193 16.1687V17.1687L3.03923 17.1687L2.16579 18.8632L1.27693 18.405L1.58992 17.7978L0.930562 18.1073L0.505602 17.2021L1.65178 16.6641L0.500015 16.1367L0.916349 15.2274L1.60582 15.5432L1.2799 14.9012L2.17156 14.4485L3.04493 16.1687ZM11.5922 19.5251L6.515 24.6023L7.09552 26.418L6.14302 26.7226L5.93507 26.0722L5.68776 26.7572L4.74718 26.4176L5.17717 25.2266L3.98982 25.6681L3.6413 24.7308L4.35221 24.4665L3.66756 24.2429L3.97795 23.2923L5.81195 23.8911L10.8851 18.818L11.5922 19.5251ZM14.4595 27.5848V20.4044H13.4595V27.5792L11.7393 28.4525L12.192 29.3442L12.8339 29.0182L12.5182 29.7077L13.4274 30.124L13.9548 28.9723L14.4929 30.1185L15.3981 29.6935L15.0886 29.0341L15.6958 29.3471L16.154 28.4583L14.4595 27.5848ZM16.9243 18.9037L22.0017 23.981L23.8174 23.4005L24.1219 24.353L23.4713 24.561L24.1565 24.8084L23.8169 25.749L22.626 25.319L23.0675 26.5064L22.1302 26.8549L21.8658 26.1439L21.6423 26.8285L20.6917 26.5181L21.2905 24.6841L16.2172 19.6108L16.9243 18.9037ZM24.8924 17.1406L17.7177 17.1406V16.1406L24.8978 16.1406L25.7714 14.4459L26.6603 14.9041L26.3474 15.511L27.0068 15.2015L27.4317 16.1067L26.2855 16.6448L27.4373 17.1722L27.021 18.0814L26.3312 17.7655L26.6573 18.4079L25.7656 18.8606L24.8924 17.1406Z" fill="#111827"/>
</svg>
