<svg width="33" height="32" viewBox="0 0 33 32" fill="none" xmlns="http://www.w3.org/2000/svg">
<path fill-rule="evenodd" clip-rule="evenodd" d="M7.40585 4.27163C5.09139 5.53406 3.96167 7.11374 3.96167 8.61545C3.96167 10.1172 5.09139 11.6968 7.40585 12.9593C9.68248 14.2011 12.8959 15.0001 16.5001 15.0001C20.1043 15.0001 23.3178 14.2011 25.5944 12.9593C27.9089 11.6968 29.0386 10.1172 29.0386 8.61545C29.0386 7.11374 27.9089 5.53406 25.5944 4.27163C23.3178 3.02983 20.1043 2.23083 16.5001 2.23083C12.8959 2.23083 9.68248 3.02983 7.40585 4.27163ZM6.44814 2.51584C3.86263 3.92612 1.96167 6.03875 1.96167 8.61545V16.0001V23.3847C1.96167 25.9614 3.86263 28.074 6.44814 29.4843C9.07146 30.9152 12.6272 31.7693 16.5001 31.7693C20.373 31.7693 23.9288 30.9152 26.5521 29.4843C29.1376 28.074 31.0386 25.9614 31.0386 23.3847V16.0001V8.61545C31.0386 6.03875 29.1376 3.92612 26.5521 2.51584C23.9288 1.08494 20.373 0.230835 16.5001 0.230835C12.6272 0.230835 9.07146 1.08494 6.44814 2.51584ZM29.0386 20.298V23.3847C29.0386 24.8864 27.9089 26.4661 25.5944 27.7285C23.3178 28.9703 20.1043 29.7693 16.5001 29.7693C12.8959 29.7693 9.68248 28.9703 7.40585 27.7285C5.09139 26.4661 3.96167 24.8864 3.96167 23.3847V20.298C4.66155 20.9835 5.50976 21.5878 6.44814 22.0997C9.07146 23.5306 12.6272 24.3847 16.5001 24.3847C20.373 24.3847 23.9288 23.5306 26.5521 22.0997C27.4905 21.5878 28.3387 20.9835 29.0386 20.298ZM3.96167 16.0001C3.96167 17.5018 5.09139 19.0815 7.40585 20.3439C9.68248 21.5857 12.8959 22.3847 16.5001 22.3847C20.1043 22.3847 23.3178 21.5857 25.5944 20.3439C27.9089 19.0815 29.0386 17.5018 29.0386 16.0001V12.9134C28.3387 13.5989 27.4905 14.2032 26.5521 14.7151C23.9288 16.146 20.373 17.0001 16.5001 17.0001C12.6272 17.0001 9.07146 16.146 6.44814 14.7151C5.50976 14.2032 4.66155 13.5989 3.96167 12.9134V16.0001Z" fill="#111827"/>
</svg>
