<svg width="33" height="32" viewBox="0 0 33 32" fill="none" xmlns="http://www.w3.org/2000/svg">
<path fill-rule="evenodd" clip-rule="evenodd" d="M18.893 2.0918C20.1475 1.90047 21.4295 2.00998 22.6335 2.41132C23.8374 2.81265 24.9287 3.49432 25.8175 4.40014C26.7062 5.30597 27.3671 6.41002 27.7455 7.62133C28.1239 8.83264 28.209 10.1165 27.9939 11.3672C27.8254 12.3468 27.4765 13.2841 26.9673 14.1323C26.5124 13.7011 25.9765 13.3261 25.4007 13.012C23.6961 12.0822 21.4096 11.5381 18.9386 11.5381C16.4677 11.5381 14.1812 12.0822 12.4766 13.012C10.8132 13.9193 9.48245 15.3358 9.47712 17.1426L9.47706 17.1535V17.969C8.97121 17.8998 8.47673 17.7577 8.00927 17.5463C7.32362 17.2361 6.71179 16.7837 6.21437 16.219C5.71696 15.6542 5.34535 14.9902 5.1242 14.2709C4.90305 13.5516 4.83742 12.7934 4.93168 12.0468C5.02594 11.3002 5.27792 10.5822 5.6709 9.94039C6.06387 9.29861 6.58886 8.74775 7.21102 8.32437C7.83317 7.901 8.53826 7.6148 9.27948 7.48477C9.66172 7.41771 10.0491 7.39297 10.4346 7.4103C10.2075 8.25469 10.0913 9.12813 10.0912 10.0086C10.0912 10.5609 10.5388 11.0086 11.0911 11.0087C11.6434 11.0087 12.0912 10.5611 12.0912 10.0088C12.0913 8.73973 12.393 7.48888 12.9714 6.3593C13.5497 5.22972 14.3882 4.25374 15.4178 3.51178C16.4473 2.76982 17.6384 2.28313 18.893 2.0918ZM9.47706 19.9825C8.68626 19.9042 7.91188 19.6973 7.18495 19.3685C6.24089 18.9414 5.39845 18.3185 4.71356 17.5409C4.02868 16.7634 3.517 15.849 3.2125 14.8586C2.90801 13.8682 2.81765 12.8243 2.94743 11.7963C3.07721 10.7683 3.42416 9.77966 3.96525 8.89599C4.50634 8.01232 5.2292 7.25384 6.08584 6.6709C6.94248 6.08796 7.91331 5.69389 8.9339 5.51485C9.67725 5.38444 10.4346 5.37028 11.1791 5.47134L11.1912 5.4478C11.9139 4.03615 12.9618 2.81646 14.2485 1.88923C15.5351 0.961993 17.0236 0.353764 18.5914 0.114658C20.1592 -0.124447 21.7614 0.0124139 23.266 0.513965C24.7705 1.01552 26.1343 1.8674 27.245 2.99942C28.3558 4.13144 29.1816 5.51119 29.6545 7.02497C30.1274 8.53876 30.2338 10.1432 29.965 11.7062C29.7032 13.2283 29.0928 14.6685 28.1824 15.9146C28.3229 16.3037 28.4002 16.7173 28.4002 17.1535L28.4001 17.1711V21.7596L28.4002 21.7689V26.3843C28.4002 28.1962 27.0675 29.6166 25.4007 30.5257C23.6961 31.4555 21.4096 31.9996 18.9386 31.9996C16.4677 31.9996 14.1812 31.4555 12.4766 30.5257C10.8098 29.6166 9.4771 28.1962 9.4771 26.3843V21.7863L9.47706 21.7689V19.9825ZM11.4771 17.1535C11.4771 16.4165 12.0386 15.5291 13.4343 14.7678C14.7922 14.0271 16.7364 13.5381 18.9386 13.5381C21.1409 13.5381 23.0851 14.0271 24.443 14.7678C25.8342 15.5267 26.3966 16.4108 26.4002 17.1464L26.4001 17.1535V17.1645C26.3946 17.8993 25.8317 18.7817 24.443 19.5392C23.0851 20.2798 21.1409 20.7689 18.9386 20.7689C16.7364 20.7689 14.7922 20.2798 13.4343 19.5392C12.0386 18.7779 11.4771 17.8905 11.4771 17.1535ZM26.4001 20.6535C26.088 20.8893 25.7518 21.1035 25.4007 21.2949C23.6961 22.2247 21.4096 22.7689 18.9386 22.7689C16.4677 22.7689 14.1812 22.2247 12.4766 21.2949C12.1255 21.1034 11.7892 20.8892 11.4771 20.6535V21.7597L11.4771 21.7689V21.7798C11.4826 22.5146 12.0454 23.397 13.4342 24.1545C14.7921 24.8952 16.7364 25.3842 18.9386 25.3842C21.1408 25.3842 23.0851 24.8952 24.443 24.1545C25.8387 23.3932 26.4001 22.5059 26.4001 21.7689V20.6535ZM11.4771 26.3843V25.2689C11.7892 25.5047 12.1255 25.7188 12.4765 25.9103C14.1811 26.8401 16.4677 27.3842 18.9386 27.3842C21.4095 27.3842 23.6961 26.8401 25.4007 25.9103C25.7518 25.7188 26.0881 25.5046 26.4002 25.2689V26.3843C26.4002 27.1213 25.8387 28.0086 24.443 28.7699C23.0851 29.5106 21.1409 29.9996 18.9386 29.9996C16.7364 29.9996 14.7922 29.5106 13.4343 28.7699C12.0386 28.0086 11.4771 27.1213 11.4771 26.3843Z" fill="#111827"/>
</svg>
