<svg width="33" height="32" viewBox="0 0 33 32" fill="none" xmlns="http://www.w3.org/2000/svg">
<path fill-rule="evenodd" clip-rule="evenodd" d="M7.40585 4.27163C5.09139 5.53406 3.96167 7.11374 3.96167 8.61545C3.96167 10.1172 5.09139 11.6968 7.40585 12.9593C9.68248 14.2011 12.8959 15.0001 16.5001 15.0001C20.1043 15.0001 23.3178 14.2011 25.5944 12.9593C27.8987 11.7024 29.0287 10.131 29.0385 8.63516V8.61545L29.0386 8.60551C29.0336 7.10677 27.9038 5.53128 25.5944 4.27163C23.3178 3.02983 20.1043 2.23083 16.5001 2.23083C12.8959 2.23083 9.68248 3.02983 7.40585 4.27163ZM26.5521 14.7151C27.4905 14.2032 28.3387 13.5989 29.0385 12.9134V16.0001C29.0385 17.5018 27.9088 19.0814 25.5944 20.3439C23.3177 21.5857 20.1043 22.3847 16.5001 22.3847C12.8959 22.3847 9.68242 21.5857 7.40578 20.3439C5.10153 19.087 3.97158 17.5157 3.96167 16.0199V16.0001C3.96167 15.9962 3.96165 15.9923 3.9616 15.9885V12.9133C4.6615 13.5988 5.50973 14.2032 6.44814 14.7151C9.07146 16.146 12.6272 17.0001 16.5001 17.0001C20.373 17.0001 23.9288 16.146 26.5521 14.7151ZM1.96167 16.0263C1.96163 16.0176 1.9616 16.0088 1.9616 16.0001V8.61545L1.96168 8.60319C1.9677 6.03205 3.86674 3.92388 6.44814 2.51584C9.07146 1.08494 12.6272 0.230835 16.5001 0.230835C20.373 0.230835 23.9288 1.08494 26.5521 2.51584C29.1376 3.92612 31.0386 6.03875 31.0386 8.61545L31.0385 8.64151V15.9886C31.0386 15.9924 31.0386 15.9962 31.0386 16.0001V23.3847C31.0386 25.9614 29.1376 28.074 26.5521 29.4843C23.9288 30.9152 20.373 31.7693 16.5001 31.7693C12.6272 31.7693 9.07146 30.9152 6.44814 29.4843C3.86263 28.074 1.96167 25.9614 1.96167 23.3847V16.0263ZM3.96167 20.298V23.3847C3.96167 24.8864 5.09139 26.4661 7.40585 27.7285C9.68248 28.9703 12.8959 29.7693 16.5001 29.7693C20.1043 29.7693 23.3178 28.9703 25.5944 27.7285C27.9089 26.4661 29.0386 24.8864 29.0386 23.3847V20.2979C28.3387 20.9834 27.4905 21.5878 26.5521 22.0997C23.9287 23.5306 20.373 24.3847 16.5001 24.3847C12.6272 24.3847 9.0714 23.5306 6.44808 22.0997C5.50973 21.5878 4.66154 20.9835 3.96167 20.298Z" fill="#111827"/>
</svg>
