<svg width="32" height="32" viewBox="0 0 32 32" fill="none" xmlns="http://www.w3.org/2000/svg">
<path d="M1.27197 8.35448V9.31364L16.007 17.6125L29.2268 10.2033V13.2198L16.007 20.6985L2.02262 12.7472L1.27197 13.1503V18.9192L16.007 27.2042L29.2268 19.8089V22.7559L16.007 30.2207L2.02262 22.2693L1.27197 22.6864V23.715L16.007 32L30.7281 23.715V17.96L30.0469 17.543L16.007 25.4944L2.84278 17.96V15.013L16.007 22.4083L30.7281 14.1095V8.42398L30.0469 8.02085L16.007 15.9722L3.52393 8.91051L16.007 1.84883L26.3493 7.67333L27.239 7.13119V6.36664L16.007 0L1.27197 8.35448Z" fill="#111827"/>
</svg>
