<svg width="33" height="33" viewBox="0 0 33 33" fill="none" xmlns="http://www.w3.org/2000/svg">
<path fill-rule="evenodd" clip-rule="evenodd" d="M4.52196 2.7758C4.91248 2.38528 5.54565 2.38528 5.93617 2.7758L8.64584 5.48548C10.0128 4.66398 11.6133 4.19157 13.3242 4.19157C15.0447 4.19157 16.6537 4.66929 18.0256 5.49932L20.7491 2.7758C21.1397 2.38528 21.7728 2.38528 22.1633 2.7758C22.5539 3.16633 22.5539 3.79949 22.1633 4.19002L20.1871 6.16629C18.86 6.2038 17.5869 6.4569 16.4015 6.8918C15.4706 6.44306 14.4268 6.19157 13.3242 6.19157C10.1158 6.19157 7.40475 8.32119 6.52754 11.244H10.7292C10.2877 11.8692 9.90444 12.5385 9.58743 13.244H6.22919L6.22906 13.2868V17.128C6.22906 19.7009 7.59855 21.9539 9.64833 23.1979C10.1291 24.2337 10.7534 25.1893 11.4957 26.0393C8.70984 25.4707 6.38745 23.6285 5.16316 21.1474H1.46826C0.915977 21.1474 0.468262 20.6997 0.468262 20.1474C0.468262 19.5951 0.915977 19.1474 1.46826 19.1474H4.45405C4.31159 18.519 4.23419 17.8659 4.22931 17.1956H1.46826C0.915977 17.1956 0.468262 16.7479 0.468262 16.1956C0.468262 15.6433 0.915977 15.1956 1.46826 15.1956H4.22906V13.2868L4.22916 13.244H1.46826C0.915977 13.244 0.468262 12.7963 0.468262 12.244C0.468262 11.6917 0.915977 11.244 1.46826 11.244H4.45937C4.86361 9.48254 5.77934 7.91629 7.04188 6.70994L4.52196 4.19002C4.13143 3.79949 4.13143 3.16633 4.52196 2.7758ZM11.5354 18.1541C11.5354 13.1853 15.5634 9.15723 20.5323 9.15723C25.5011 9.15723 29.5291 13.1853 29.5291 18.1541C29.5291 20.6315 28.5278 22.875 26.9078 24.502L26.8932 24.5163L26.879 24.5308C25.2521 26.1501 23.0091 27.151 20.5323 27.151C15.5634 27.151 11.5354 23.1229 11.5354 18.1541ZM27.5684 26.6057C25.6616 28.1949 23.2086 29.151 20.5323 29.151C14.4589 29.151 9.5354 24.2275 9.5354 18.1541C9.5354 12.0807 14.4589 7.15723 20.5323 7.15723C26.6057 7.15723 31.5291 12.0807 31.5291 18.1541C31.5291 20.831 30.5726 23.2846 28.9827 25.1916L32.236 28.4448C32.6265 28.8354 32.6265 29.4685 32.236 29.859C31.8455 30.2496 31.2123 30.2496 30.8218 29.859L27.5684 26.6057ZM20.1212 11.244C20.0187 10.9026 19.8912 10.5719 19.7408 10.2542C20.5164 10.1791 21.2531 10.2274 21.9387 10.3605C22.0366 10.6488 22.1204 10.9436 22.1894 11.244H24.3648C25.0954 11.6436 25.6972 12.1065 26.1378 12.5303C26.0147 12.9431 25.6322 13.244 25.1794 13.244H22.4196L22.4197 13.2868V15.1956H25.1802C25.7325 15.1956 26.1802 15.6434 26.1802 16.1956C26.1802 16.7479 25.7325 17.1956 25.1802 17.1956H22.4194C22.4145 17.866 22.3371 18.5191 22.1947 19.1475H25.1796C25.7319 19.1475 26.1796 19.5952 26.1796 20.1475C26.1796 20.6998 25.7319 21.1475 25.1796 21.1475H21.4856C20.5904 22.9615 19.1083 24.434 17.2872 25.3169C16.4891 24.9257 15.8194 24.4596 15.26 23.956C18.2378 23.1135 20.4197 20.3756 20.4197 17.128V13.2868L20.4195 13.244H14.3577C15.0904 12.3265 15.9296 11.6542 16.6098 11.244H20.1212ZM14.3243 16.1956V22.9621C13.1432 21.4783 12.7214 19.8904 12.6784 18.9968C12.5093 17.5538 12.7431 16.2856 13.1913 15.2044C13.2348 15.1986 13.2792 15.1956 13.3243 15.1956C13.8765 15.1956 14.3243 15.6434 14.3243 16.1956Z" fill="#111827"/>
</svg>
