<svg width="32" height="33" viewBox="0 0 32 33" fill="none" xmlns="http://www.w3.org/2000/svg">
<path d="M24.485 7.76472L23.7779 8.47183L24.485 7.76472ZM7.51447 7.76472L8.22158 8.47183L7.51447 7.76472ZM7.51447 24.7353L8.22158 24.0282L7.51447 24.7353ZM15.6951 21.1171L15.7156 22.1169L15.7253 22.1167L15.735 22.1163L15.6951 21.1171ZM15.8123 21.1125L15.7793 20.113L15.7723 20.1133L15.8123 21.1125ZM16.2388 21.0984L17.1726 21.4563L17.7119 20.0493L16.2059 20.0989L16.2388 21.0984ZM16.131 21.3796L15.1973 21.0217L15.0396 21.4329L15.2366 21.8269L16.131 21.3796ZM16.1451 21.4078L17.0648 21.0152L17.053 20.9875L17.0395 20.9606L16.1451 21.4078ZM16.2294 21.6281L17.1781 21.3118L17.1761 21.3059L16.2294 21.6281ZM16.2388 21.6562L17.1966 21.3689L17.1923 21.3543L17.1875 21.34L16.2388 21.6562ZM16.2529 21.7031L17.2145 21.4283L17.2107 21.4157L16.2529 21.7031ZM16.2716 21.7687L15.3101 22.0434L15.3161 22.0643L15.3229 22.0849L16.2716 21.7687ZM16.2857 21.8109L15.337 22.1271L15.3463 22.155L15.3572 22.1823L16.2857 21.8109ZM16.3044 21.8578L17.2692 21.5946L17.2542 21.5395L17.2329 21.4864L16.3044 21.8578ZM16.3185 21.9093L17.2886 21.6668L17.2861 21.6565L17.2833 21.6462L16.3185 21.9093ZM16.3373 21.9843L15.3671 22.2269L15.3721 22.2468L15.3779 22.2665L16.3373 21.9843ZM16.3607 22.064L17.3255 21.8009L17.3229 21.7914L17.3201 21.7818L16.3607 22.064ZM16.3748 22.1156L15.41 22.3787L15.4112 22.3832L16.3748 22.1156ZM16.3982 22.2L17.3654 21.9454L17.3617 21.9323L16.3982 22.2ZM16.4216 22.289L17.4002 22.083L17.395 22.0586L17.3887 22.0345L16.4216 22.289ZM16.4404 22.3781L15.4618 22.5841L15.4657 22.6024L15.4702 22.6206L16.4404 22.3781ZM16.4638 22.4718L15.4937 22.7144L15.4977 22.7305L15.5023 22.7465L16.4638 22.4718ZM16.4826 22.5375L17.4577 22.3158L17.4516 22.2891L17.4441 22.2627L16.4826 22.5375ZM16.5294 22.7437L15.5543 22.9653L15.5556 22.9709L16.5294 22.7437ZM16.5623 22.8843L17.5451 22.7L17.5411 22.6785L17.5361 22.6571L16.5623 22.8843ZM16.5763 22.9593L15.5934 23.1436L15.5953 23.1535L15.5973 23.1633L16.5763 22.9593ZM16.5998 23.0718L17.5804 22.8757L17.5787 22.8679L16.5998 23.0718ZM16.6232 23.189L15.6426 23.3851L15.6455 23.3995L15.6488 23.4139L16.6232 23.189ZM16.6513 23.3109L17.6339 23.125L17.6302 23.1054L17.6257 23.086L16.6513 23.3109ZM16.6841 23.4843L15.7015 23.6702L15.7035 23.6804L16.6841 23.4843ZM16.7123 23.625L17.6946 23.4378L17.6928 23.4288L16.7123 23.625ZM16.7498 23.8218L15.7674 24.0089V24.0089L16.7498 23.8218ZM16.7685 23.9203L15.7862 24.1074L15.7881 24.1176L15.7903 24.1278L16.7685 23.9203ZM16.8013 24.075L17.7861 23.9012L17.7831 23.8843L17.7796 23.8674L16.8013 24.075ZM16.8294 24.2343L17.8147 24.063L17.8142 24.0605L16.8294 24.2343ZM16.8669 24.45L15.8816 24.6213L15.8841 24.6342L16.8669 24.45ZM16.9091 24.675L17.8966 24.517L17.8945 24.5038L17.892 24.4907L16.9091 24.675ZM16.9466 24.9093L15.9592 25.0673L15.9605 25.0752L15.9618 25.0831L16.9466 24.9093ZM16.9888 25.1484L17.9742 24.9778L17.9736 24.9746L16.9888 25.1484ZM17.031 25.3921L18.0174 25.2277L18.0164 25.2216L17.031 25.3921ZM17.0732 25.6453L18.0605 25.4866L18.0596 25.4809L17.0732 25.6453ZM17.1154 25.9078L16.128 26.0664L16.1284 26.0684L17.1154 25.9078ZM17.1482 26.1093L18.1371 25.9603L18.1352 25.9487L17.1482 26.1093ZM17.1998 26.4515L16.2109 26.6005L16.2121 26.6082L16.2134 26.6159L17.1998 26.4515ZM17.2232 26.5921L18.2113 26.4381L18.2096 26.4277L17.2232 26.5921ZM17.2794 26.9531L18.2695 26.8116L18.2675 26.7991L17.2794 26.9531ZM17.3216 27.2484L16.3317 27.3898L16.3333 27.4013L16.3352 27.4128L17.3216 27.2484ZM17.3591 27.4734L18.35 27.3383L18.348 27.3236L18.3455 27.309L17.3591 27.4734ZM17.4013 27.7828L16.4105 27.9179L16.4115 27.9252L16.4126 27.9326L17.4013 27.7828ZM17.4248 27.9375L16.436 28.0873L16.5831 29.0582L17.5566 28.9287L17.4248 27.9375ZM23.9544 24.525L23.2173 23.8492L23.2167 23.8498L23.9544 24.525ZM24.006 24.4687L24.7432 25.1444L25.1141 24.7397L24.9718 24.2095L24.006 24.4687ZM23.7669 23.5781L22.8009 23.8363L22.8011 23.8373L23.7669 23.5781ZM23.1341 21.2109L24.1002 20.9526L24.1002 20.9525L23.1341 21.2109ZM22.7404 19.739L23.7064 19.4806L23.7063 19.48L22.7404 19.739ZM22.3935 18.4453L23.3594 18.1863L23.358 18.1812L22.3935 18.4453ZM22.1779 17.6578L21.2133 17.9216L21.2134 17.9219L22.1779 17.6578ZM22.0419 17.1609L21.0754 17.4176L21.0774 17.4248L22.0419 17.1609ZM21.9623 16.8609L22.9287 16.6042L22.9263 16.5951L22.9238 16.5862L21.9623 16.8609ZM21.8873 16.5984L20.9171 16.8409L20.9212 16.8571L20.9257 16.8731L21.8873 16.5984ZM21.8591 16.4859L22.8293 16.2433L22.8228 16.2174L22.8149 16.1918L21.8591 16.4859ZM21.8404 16.425L20.8789 16.6997L20.8816 16.7094L20.8846 16.719L21.8404 16.425ZM21.831 16.3921L22.7925 16.1174L22.7866 16.0965L22.7797 16.0759L21.831 16.3921ZM21.8216 16.364L20.8667 16.6608L20.8697 16.6705L20.8729 16.6802L21.8216 16.364ZM19.7826 13.3921L20.3984 12.6042L20.3981 12.604L19.7826 13.3921ZM16.5301 16.0304L15.823 15.3232L15.823 15.3232L16.5301 16.0304ZM15.4695 16.0304L14.7624 16.7375L14.7624 16.7375L15.4695 16.0304ZM15.4695 14.9697L14.7624 14.2626L14.7624 14.2626L15.4695 14.9697ZM15.9998 5.25C18.9171 5.25 21.715 6.40893 23.7779 8.47183L25.1921 7.05761C22.7542 4.61964 19.4476 3.25 15.9998 3.25V5.25ZM8.22158 8.47183C10.2845 6.40893 13.0824 5.25 15.9998 5.25V3.25C12.5519 3.25 9.24534 4.61964 6.80737 7.05761L8.22158 8.47183ZM4.99976 16.25C4.99976 13.3326 6.15868 10.5347 8.22158 8.47183L6.80737 7.05761C4.36939 9.49558 2.99976 12.8022 2.99976 16.25H4.99976ZM8.22158 24.0282C6.15868 21.9653 4.99976 19.1674 4.99976 16.25H2.99976C2.99976 19.6978 4.36939 23.0044 6.80737 25.4424L8.22158 24.0282ZM15.9998 27.25C13.0824 27.25 10.2845 26.0911 8.22158 24.0282L6.80737 25.4424C9.24534 27.8804 12.5519 29.25 15.9998 29.25V27.25ZM23.7779 24.0282C21.715 26.0911 18.9171 27.25 15.9998 27.25V29.25C19.4476 29.25 22.7542 27.8804 25.1921 25.4424L23.7779 24.0282ZM26.9998 16.25C26.9998 19.1674 25.8408 21.9653 23.7779 24.0282L25.1921 25.4424C27.6301 23.0044 28.9998 19.6978 28.9998 16.25H26.9998ZM23.7779 8.47183C25.8408 10.5347 26.9998 13.3326 26.9998 16.25H28.9998C28.9998 12.8022 27.6301 9.49558 25.1921 7.05761L23.7779 8.47183ZM10.3248 16.9734C10.3248 14.9907 12.3746 13.0421 15.531 13.0421V11.0421C11.7125 11.0421 8.32476 13.4904 8.32476 16.9734H10.3248ZM15.6745 20.1174C13.8681 20.1545 12.4934 19.7847 11.6046 19.2046C10.7489 18.646 10.3248 17.8904 10.3248 16.9734H8.32476C8.32476 18.6345 9.14983 19.9906 10.5114 20.8793C11.8397 21.7464 13.6502 22.1594 15.7156 22.1169L15.6745 20.1174ZM15.7723 20.1133L15.6551 20.1179L15.735 22.1163L15.8522 22.1117L15.7723 20.1133ZM16.2059 20.0989L15.7793 20.113L15.8452 22.1119L16.2718 22.0978L16.2059 20.0989ZM17.0647 21.7376L17.1726 21.4563L15.3051 20.7405L15.1973 21.0217L17.0647 21.7376ZM17.0395 20.9606L17.0254 20.9324L15.2366 21.8269L15.2506 21.855L17.0395 20.9606ZM17.1761 21.3059C17.1427 21.2076 17.1055 21.1106 17.0648 21.0152L15.2253 21.8003C15.2464 21.8496 15.2655 21.8996 15.2828 21.9503L17.1761 21.3059ZM17.1875 21.34L17.1781 21.3118L15.2808 21.9443L15.2901 21.9724L17.1875 21.34ZM17.2107 21.4157L17.1966 21.3689L15.281 21.9435L15.295 21.9904L17.2107 21.4157ZM17.2332 21.494L17.2144 21.4284L15.2914 21.9778L15.3101 22.0434L17.2332 21.494ZM17.2344 21.4947L17.2203 21.4525L15.3229 22.0849L15.337 22.1271L17.2344 21.4947ZM17.2329 21.4864L17.2142 21.4395L15.3572 22.1823L15.376 22.2291L17.2329 21.4864ZM17.2833 21.6462L17.2692 21.5946L15.3397 22.1209L15.3537 22.1725L17.2833 21.6462ZM17.3074 21.7418L17.2886 21.6668L15.3484 22.1519L15.3671 22.2269L17.3074 21.7418ZM17.3201 21.7818L17.2966 21.7022L15.3779 22.2665L15.4013 22.3462L17.3201 21.7818ZM17.3395 21.8525L17.3255 21.8009L15.3959 22.3271L15.41 22.3787L17.3395 21.8525ZM17.3617 21.9323L17.3383 21.8479L15.4112 22.3832L15.4347 22.4676L17.3617 21.9323ZM17.3887 22.0345L17.3653 21.9455L15.4311 22.4544L15.4546 22.5435L17.3887 22.0345ZM17.4189 22.1721L17.4002 22.083L15.4431 22.495L15.4618 22.5841L17.4189 22.1721ZM17.434 22.2293L17.4105 22.1355L15.4702 22.6206L15.4937 22.7144L17.434 22.2293ZM17.4441 22.2627L17.4253 22.1971L15.5023 22.7465L15.521 22.8122L17.4441 22.2627ZM17.4811 22.419L17.4577 22.3158L15.5074 22.7591L15.5309 22.8622L17.4811 22.419ZM17.5046 22.5221L17.4811 22.419L15.5309 22.8622L15.5543 22.9653L17.5046 22.5221ZM17.5361 22.6571L17.5033 22.5165L15.5556 22.9709L15.5884 23.1116L17.5361 22.6571ZM17.5592 22.775L17.5451 22.7L15.5794 23.0686L15.5934 23.1436L17.5592 22.775ZM17.5787 22.8679L17.5553 22.7554L15.5973 23.1633L15.6208 23.2758L17.5787 22.8679ZM17.6038 22.9929L17.5803 22.8757L15.6192 23.2679L15.6426 23.3851L17.6038 22.9929ZM17.6257 23.086L17.5976 22.9642L15.6488 23.4139L15.6769 23.5357L17.6257 23.086ZM17.6667 23.2984L17.6339 23.125L15.6687 23.4968L15.7016 23.6702L17.6667 23.2984ZM17.6928 23.4288L17.6647 23.2882L15.7035 23.6804L15.7317 23.8211L17.6928 23.4288ZM17.7321 23.6347L17.6946 23.4378L15.7299 23.8121L15.7674 24.0089L17.7321 23.6347ZM17.7508 23.7332L17.7321 23.6347L15.7674 24.0089L15.7862 24.1074L17.7508 23.7332ZM17.7796 23.8674L17.7467 23.7128L15.7903 24.1278L15.8231 24.2825L17.7796 23.8674ZM17.8142 24.0605L17.7861 23.9012L15.8165 24.2487L15.8447 24.4081L17.8142 24.0605ZM17.8522 24.2786L17.8147 24.063L15.8442 24.4057L15.8817 24.6213L17.8522 24.2786ZM17.892 24.4907L17.8498 24.2657L15.8841 24.6342L15.9263 24.8592L17.892 24.4907ZM17.9341 24.7513L17.8966 24.517L15.9217 24.8329L15.9592 25.0673L17.9341 24.7513ZM17.9736 24.9746L17.9314 24.7355L15.9618 25.0831L16.004 25.3222L17.9736 24.9746ZM18.0164 25.2216L17.9742 24.9779L16.0035 25.3189L16.0457 25.5627L18.0164 25.2216ZM18.0596 25.4809L18.0174 25.2277L16.0446 25.5565L16.0868 25.8097L18.0596 25.4809ZM18.1027 25.7491L18.0605 25.4866L16.0859 25.8039L16.128 26.0664L18.1027 25.7491ZM18.1352 25.9487L18.1024 25.7471L16.1284 26.0684L16.1612 26.27L18.1352 25.9487ZM18.1886 26.3025L18.137 25.9603L16.1594 26.2583L16.2109 26.6005L18.1886 26.3025ZM18.2096 26.4277L18.1861 26.2871L16.2134 26.6159L16.2368 26.7565L18.2096 26.4277ZM18.2675 26.7991L18.2113 26.4382L16.2351 26.7461L16.2914 27.1071L18.2675 26.7991ZM18.3116 27.107L18.2694 26.8117L16.2895 27.0945L16.3317 27.3898L18.3116 27.107ZM18.3455 27.309L18.308 27.084L16.3352 27.4128L16.3727 27.6378L18.3455 27.309ZM18.3921 27.6477L18.35 27.3383L16.3683 27.6085L16.4105 27.9179L18.3921 27.6477ZM18.4135 27.7876L18.39 27.633L16.4126 27.9326L16.436 28.0873L18.4135 27.7876ZM23.2167 23.8498C21.7015 25.5055 19.6263 26.6359 17.2929 26.9462L17.5566 28.9287C20.3701 28.5546 22.8699 27.1913 24.6921 25.2001L23.2167 23.8498ZM23.2688 23.793L23.2173 23.8492L24.6916 25.2007L24.7432 25.1444L23.2688 23.793ZM22.8011 23.8373L23.0402 24.7279L24.9718 24.2095L24.7328 23.3188L22.8011 23.8373ZM22.1681 21.4691L22.8009 23.8363L24.733 23.3198L24.1002 20.9526L22.1681 21.4691ZM21.7743 19.9974L22.1681 21.4693L24.1002 20.9525L23.7064 19.4806L21.7743 19.9974ZM21.4276 18.7042L21.7745 19.998L23.7063 19.48L23.3594 18.1863L21.4276 18.7042ZM21.2134 17.9219L21.429 18.7094L23.358 18.1812L23.1424 17.3937L21.2134 17.9219ZM21.0774 17.4248L21.2133 17.9216L23.1424 17.3939L23.0065 16.897L21.0774 17.4248ZM20.9958 17.1176L21.0755 17.4176L23.0084 16.9042L22.9287 16.6042L20.9958 17.1176ZM20.9257 16.8731L21.0007 17.1356L22.9238 16.5862L22.8488 16.3237L20.9257 16.8731ZM20.889 16.7284L20.9171 16.8409L22.8574 16.3558L22.8293 16.2433L20.889 16.7284ZM20.8846 16.719L20.9033 16.78L22.8149 16.1918L22.7962 16.1309L20.8846 16.719ZM20.8695 16.6669L20.8789 16.6997L22.8019 16.1502L22.7925 16.1174L20.8695 16.6669ZM20.8729 16.6802L20.8823 16.7083L22.7797 16.0759L22.7703 16.0478L20.8729 16.6802ZM19.1668 14.18C19.9676 14.8059 20.5598 15.6732 20.8667 16.6608L22.7766 16.0673C22.3522 14.7017 21.5288 13.4878 20.3984 12.6042L19.1668 14.18ZM15.531 13.0421C17.0195 13.0421 18.2331 13.4509 19.167 14.1803L20.3981 12.604C19.0633 11.5615 17.3988 11.0421 15.531 11.0421V13.0421ZM17.2372 14.2626C16.9091 13.9344 16.4639 13.75 15.9998 13.75V15.75C15.9335 15.75 15.8699 15.7237 15.823 15.6768L17.2372 14.2626ZM17.7498 15.5C17.7498 15.0359 17.5654 14.5908 17.2372 14.2626L15.823 15.6768C15.7761 15.6299 15.7498 15.5663 15.7498 15.5H17.7498ZM17.2372 16.7375C17.5654 16.4093 17.7498 15.9641 17.7498 15.5H15.7498C15.7498 15.4337 15.7761 15.3701 15.823 15.3232L17.2372 16.7375ZM15.9998 17.25C16.4639 17.25 16.9091 17.0657 17.2372 16.7375L15.823 15.3232C15.8699 15.2764 15.9335 15.25 15.9998 15.25V17.25ZM14.7624 16.7375C15.0906 17.0657 15.5357 17.25 15.9998 17.25V15.25C16.0661 15.25 16.1297 15.2764 16.1766 15.3232L14.7624 16.7375ZM14.2498 15.5C14.2498 15.9642 14.4342 16.4093 14.7624 16.7375L16.1766 15.3232C16.2235 15.3701 16.2498 15.4337 16.2498 15.5H14.2498ZM14.7624 14.2626C14.4342 14.5908 14.2498 15.0359 14.2498 15.5H16.2498C16.2498 15.5663 16.2235 15.6299 16.1766 15.6768L14.7624 14.2626ZM15.9998 13.75C15.5357 13.75 15.0906 13.9344 14.7624 14.2626L16.1766 15.6768C16.1297 15.7237 16.0661 15.75 15.9998 15.75V13.75Z" fill="#1C1B1F"/>
</svg>
