<svg width="33" height="32" viewBox="0 0 33 32" fill="none" xmlns="http://www.w3.org/2000/svg">
<path d="M27.1066 5.3934L26.3995 6.1005L27.1066 5.3934ZM5.8934 5.3934L6.6005 6.1005L5.8934 5.3934ZM5.8934 26.6066L6.6005 25.8995L5.8934 26.6066ZM16.1188 22.084L16.1393 23.0838L16.149 23.0836L16.1587 23.0832L16.1188 22.084ZM16.2653 22.0782L16.2323 21.0787L16.2253 21.079L16.2653 22.0782ZM16.7985 22.0606L17.7322 22.4185L18.2716 21.0115L16.7655 21.0612L16.7985 22.0606ZM16.6637 22.4122L15.7299 22.0542L15.5723 22.4655L15.7693 22.8594L16.6637 22.4122ZM16.6813 22.4473L17.601 22.0547L17.5892 22.027L17.5757 22.0001L16.6813 22.4473ZM16.7867 22.7227L17.7354 22.4065L17.7334 22.4005L16.7867 22.7227ZM16.7985 22.7579L17.7563 22.4705L17.7519 22.456L17.7471 22.4416L16.7985 22.7579ZM16.816 22.8165L17.7776 22.5417L17.7739 22.5291L16.816 22.8165ZM16.8395 22.8985L15.878 23.1732L15.8839 23.1941L15.8908 23.2147L16.8395 22.8985ZM16.8571 22.9512L15.9084 23.2675L15.9177 23.2953L15.9286 23.3226L16.8571 22.9512ZM16.8805 23.0098L17.8453 22.7467L17.8302 22.6915L17.809 22.6384L16.8805 23.0098ZM16.8981 23.0743L17.8682 22.8317L17.8656 22.8214L17.8628 22.8111L16.8981 23.0743ZM16.9215 23.168L15.9514 23.4106L15.9563 23.4305L15.9621 23.4502L16.9215 23.168ZM16.9508 23.2676L17.9156 23.0045L17.913 22.995L17.9102 22.9855L16.9508 23.2676ZM16.9684 23.3321L16.0036 23.5952L16.0049 23.5997L16.9684 23.3321ZM16.9977 23.4376L17.9648 23.183L17.9612 23.1699L16.9977 23.4376ZM17.027 23.5489L18.0055 23.3429L18.0004 23.3185L17.9941 23.2944L17.027 23.5489ZM17.0504 23.6602L16.0719 23.8662L16.0757 23.8846L16.0803 23.9028L17.0504 23.6602ZM17.0797 23.7774L16.1096 24.0199L16.1136 24.0361L16.1182 24.0521L17.0797 23.7774ZM17.1031 23.8594L18.0783 23.6378L18.0722 23.6111L18.0647 23.5847L17.1031 23.8594ZM17.1617 24.1172L16.1866 24.3389L16.1879 24.3445L17.1617 24.1172ZM17.2028 24.293L18.1856 24.1087L18.1816 24.0872L18.1766 24.0658L17.2028 24.293ZM17.2203 24.3868L16.2375 24.5711L16.2393 24.5809L16.2414 24.5907L17.2203 24.3868ZM17.2496 24.5274L18.2302 24.3313L18.2286 24.3235L17.2496 24.5274ZM17.2789 24.6739L16.2983 24.87L16.3012 24.8844L16.3045 24.8987L17.2789 24.6739ZM17.3141 24.8262L18.2967 24.6403L18.293 24.6208L18.2885 24.6014L17.3141 24.8262ZM17.3551 25.043L16.3725 25.2289L16.3745 25.2391L17.3551 25.043ZM17.3903 25.2188L18.3726 25.0317L18.3708 25.0227L17.3903 25.2188ZM17.4371 25.4649L16.4548 25.652L16.4548 25.652L17.4371 25.4649ZM17.4606 25.588L16.4782 25.7751L16.4802 25.7853L16.4823 25.7955L17.4606 25.588ZM17.5016 25.7813L18.4864 25.6075L18.4834 25.5906L18.4798 25.5738L17.5016 25.7813ZM17.5367 25.9805L18.522 25.8092L18.5215 25.8067L17.5367 25.9805ZM17.5836 26.2501L16.5983 26.4214L16.6007 26.4344L17.5836 26.2501ZM17.6364 26.5313L18.6238 26.3733L18.6217 26.3601L18.6192 26.347L17.6364 26.5313ZM17.6832 26.8243L16.6958 26.9823L16.6971 26.9902L16.6984 26.9981L17.6832 26.8243ZM17.736 27.1231L18.7213 26.9526L18.7207 26.9493L17.736 27.1231ZM17.7887 27.4278L18.7751 27.2634L18.774 27.2573L17.7887 27.4278ZM17.8414 27.7442L18.8288 27.5855L18.8278 27.5798L17.8414 27.7442ZM17.8942 28.0723L16.9068 28.231L16.9072 28.233L17.8942 28.0723ZM17.9352 28.3243L18.9241 28.1753L18.9222 28.1636L17.9352 28.3243ZM17.9996 28.752L17.0108 28.901L17.012 28.9087L17.0132 28.9164L17.9996 28.752ZM18.0289 28.9278L19.0171 28.7738L19.0153 28.7634L18.0289 28.9278ZM18.0992 29.379L19.0893 29.2375L19.0873 29.225L18.0992 29.379ZM18.152 29.7481L17.162 29.8895L17.1637 29.901L17.1656 29.9125L18.152 29.7481ZM18.1989 30.0294L19.1897 29.8942L19.1877 29.8796L19.1852 29.865L18.1989 30.0294ZM18.2516 30.4161L17.2608 30.5512L17.2618 30.5585L17.2629 30.5659L18.2516 30.4161ZM18.2809 30.6094L17.2922 30.7592L17.4393 31.7301L18.4127 31.6007L18.2809 30.6094ZM26.443 26.3438L25.7058 25.6681L25.7053 25.6687L26.443 26.3438ZM26.5074 26.2735L27.2446 26.9492L27.6156 26.5445L27.4733 26.0143L26.5074 26.2735ZM26.2086 25.1602L25.2425 25.4185L25.2428 25.4195L26.2086 25.1602ZM25.4176 22.2012L26.3837 21.943L26.3836 21.9428L25.4176 22.2012ZM24.9254 20.3614L25.8914 20.103L25.8913 20.1024L24.9254 20.3614ZM24.4918 18.7442L25.4577 18.4852L25.4563 18.4801L24.4918 18.7442ZM24.2223 17.7598L23.2577 18.0237L23.2578 18.0239L24.2223 17.7598ZM24.0524 17.1387L23.0859 17.3955L23.0878 17.4026L24.0524 17.1387ZM23.9528 16.7637L24.9192 16.507L24.9168 16.498L24.9143 16.489L23.9528 16.7637ZM23.859 16.4356L22.8889 16.6782L22.8929 16.6943L22.8975 16.7103L23.859 16.4356ZM23.8239 16.295L24.794 16.0524L24.7875 16.0265L24.7796 16.0009L23.8239 16.295ZM23.8004 16.2188L22.8389 16.4935L22.8417 16.5032L22.8446 16.5129L23.8004 16.2188ZM23.7887 16.1778L24.7502 15.9031L24.7443 15.8822L24.7374 15.8616L23.7887 16.1778ZM23.777 16.1426L22.822 16.4394L22.8251 16.4492L22.8283 16.4589L23.777 16.1426ZM21.2281 12.4278L21.8439 11.6399L21.8437 11.6397L21.2281 12.4278ZM16.5 2C20.213 2 23.774 3.475 26.3995 6.1005L27.8137 4.68629C24.8131 1.68571 20.7435 0 16.5 0V2ZM6.6005 6.1005C9.22601 3.475 12.787 2 16.5 2V0C12.2565 0 8.18687 1.68571 5.18629 4.68629L6.6005 6.1005ZM2.5 16C2.5 12.287 3.975 8.72601 6.6005 6.1005L5.18629 4.68629C2.18571 7.68687 0.5 11.7565 0.5 16H2.5ZM6.6005 25.8995C3.975 23.274 2.5 19.713 2.5 16H0.5C0.5 20.2435 2.18571 24.3131 5.18629 27.3137L6.6005 25.8995ZM16.5 30C12.787 30 9.22601 28.525 6.6005 25.8995L5.18629 27.3137C8.18687 30.3143 12.2565 32 16.5 32V30ZM26.3995 25.8995C23.774 28.525 20.213 30 16.5 30V32C20.7435 32 24.8131 30.3143 27.8137 27.3137L26.3995 25.8995ZM30.5 16C30.5 19.713 29.025 23.274 26.3995 25.8995L27.8137 27.3137C30.8143 24.3131 32.5 20.2435 32.5 16H30.5ZM26.3995 6.1005C29.025 8.72601 30.5 12.287 30.5 16H32.5C32.5 11.7565 30.8143 7.68687 27.8137 4.68629L26.3995 6.1005ZM9.15588 16.9044C9.15588 14.2385 11.8854 11.7403 15.9137 11.7403V9.7403C11.2233 9.7403 7.15588 12.7382 7.15588 16.9044H9.15588ZM16.0982 21.0843C13.8078 21.1314 12.0349 20.6637 10.869 19.9027C9.73618 19.1632 9.15588 18.1436 9.15588 16.9044H7.15588C7.15588 18.8877 8.13711 20.5078 9.77578 21.5774C11.3813 22.6255 13.5899 23.1363 16.1393 23.0838L16.0982 21.0843ZM16.2253 21.079L16.0788 21.0848L16.1587 23.0832L16.3052 23.0774L16.2253 21.079ZM16.7655 21.0612L16.2323 21.0787L16.2982 23.0776L16.8314 23.0601L16.7655 21.0612ZM17.5974 22.7701L17.7322 22.4185L15.8647 21.7027L15.7299 22.0542L17.5974 22.7701ZM17.5757 22.0001L17.5581 21.965L15.7693 22.8594L15.7868 22.8945L17.5757 22.0001ZM17.7334 22.4005C17.6936 22.2836 17.6495 22.1683 17.601 22.0547L15.7616 22.8399C15.7903 22.9072 15.8165 22.9756 15.8401 23.0449L17.7334 22.4005ZM17.7471 22.4416L17.7354 22.4065L15.8381 23.0389L15.8498 23.0741L17.7471 22.4416ZM17.7739 22.5291L17.7563 22.4705L15.8406 23.0452L15.8582 23.1038L17.7739 22.5291ZM17.801 22.6238L17.7776 22.5417L15.8545 23.0912L15.878 23.1732L17.801 22.6238ZM17.8057 22.635L17.7882 22.5823L15.8908 23.2147L15.9084 23.2675L17.8057 22.635ZM17.809 22.6384L17.7855 22.5799L15.9286 23.3226L15.952 23.3812L17.809 22.6384ZM17.8628 22.8111L17.8453 22.7467L15.9157 23.273L15.9333 23.3374L17.8628 22.8111ZM17.8917 22.9255L17.8682 22.8317L15.9279 23.3168L15.9514 23.4106L17.8917 22.9255ZM17.9102 22.9855L17.8809 22.8859L15.9621 23.4502L15.9914 23.5498L17.9102 22.9855ZM17.9331 23.069L17.9156 23.0045L15.986 23.5307L16.0036 23.5952L17.9331 23.069ZM17.9612 23.1699L17.9319 23.0644L16.0049 23.5997L16.0342 23.7052L17.9612 23.1699ZM17.9941 23.2944L17.9648 23.1831L16.0306 23.6921L16.0599 23.8034L17.9941 23.2944ZM18.029 23.4542L18.0055 23.3429L16.0484 23.7549L16.0719 23.8662L18.029 23.4542ZM18.0499 23.5349L18.0206 23.4177L16.0803 23.9028L16.1096 24.0199L18.0499 23.5349ZM18.0647 23.5847L18.0412 23.5027L16.1182 24.0521L16.1416 24.1342L18.0647 23.5847ZM18.1076 23.7667L18.0783 23.6378L16.128 24.0811L16.1573 24.21L18.1076 23.7667ZM18.1369 23.8956L18.1076 23.7667L16.1573 24.21L16.1866 24.3389L18.1369 23.8956ZM18.1766 24.0658L18.1356 23.89L16.1879 24.3445L16.2289 24.5203L18.1766 24.0658ZM18.2032 24.2025L18.1856 24.1087L16.2199 24.4773L16.2375 24.5711L18.2032 24.2025ZM18.2286 24.3235L18.1993 24.1828L16.2414 24.5907L16.2707 24.7314L18.2286 24.3235ZM18.2595 24.4778L18.2302 24.3313L16.2691 24.7235L16.2983 24.87L18.2595 24.4778ZM18.2885 24.6014L18.2533 24.449L16.3045 24.8987L16.3397 25.0511L18.2885 24.6014ZM18.3377 24.8571L18.2967 24.6403L16.3315 25.0121L16.3725 25.2289L18.3377 24.8571ZM18.3708 25.0227L18.3357 24.8469L16.3745 25.2391L16.4097 25.4149L18.3708 25.0227ZM18.4195 25.2778L18.3726 25.0317L16.4079 25.4059L16.4548 25.652L18.4195 25.2778ZM18.4429 25.4008L18.4195 25.2778L16.4548 25.652L16.4782 25.7751L18.4429 25.4008ZM18.4798 25.5738L18.4388 25.3804L16.4823 25.7955L16.5234 25.9888L18.4798 25.5738ZM18.5215 25.8067L18.4864 25.6075L16.5168 25.9551L16.552 26.1543L18.5215 25.8067ZM18.5688 26.0787L18.522 25.8092L16.5515 26.1519L16.5984 26.4214L18.5688 26.0787ZM18.6192 26.347L18.5665 26.0658L16.6007 26.4344L16.6535 26.7156L18.6192 26.347ZM18.6707 26.6663L18.6238 26.3733L16.6489 26.6893L16.6958 26.9823L18.6707 26.6663ZM18.7207 26.9493L18.668 26.6505L16.6984 26.9981L16.7512 27.2969L18.7207 26.9493ZM18.774 27.2573L18.7213 26.9526L16.7506 27.2936L16.8033 27.5983L18.774 27.2573ZM18.8278 27.5798L18.7751 27.2634L16.8023 27.5922L16.855 27.9086L18.8278 27.5798ZM18.8815 27.9136L18.8288 27.5855L16.8541 27.9029L16.9068 28.231L18.8815 27.9136ZM18.9222 28.1636L18.8812 27.9117L16.9072 28.233L16.9482 28.4849L18.9222 28.1636ZM18.9885 28.603L18.924 28.1753L16.9463 28.4733L17.0108 28.901L18.9885 28.603ZM19.0153 28.7634L18.986 28.5876L17.0132 28.9164L17.0425 29.0922L19.0153 28.7634ZM19.0873 29.225L19.017 28.7738L17.0409 29.0818L17.1112 29.533L19.0873 29.225ZM19.1419 29.6067L19.0892 29.2375L17.1093 29.5204L17.162 29.8895L19.1419 29.6067ZM19.1852 29.865L19.1384 29.5837L17.1656 29.9125L17.2125 30.1938L19.1852 29.865ZM19.2424 30.281L19.1897 29.8942L17.208 30.1645L17.2608 30.5512L19.2424 30.281ZM19.2696 30.4596L19.2403 30.2663L17.2629 30.5659L17.2922 30.7592L19.2696 30.4596ZM25.7053 25.6687C23.7729 27.7802 21.1258 29.2224 18.1491 29.6182L18.4127 31.6007C21.8696 31.1411 24.9412 29.466 27.1807 27.0189L25.7053 25.6687ZM25.7703 25.5978L25.7058 25.6681L27.1802 27.0195L27.2446 26.9492L25.7703 25.5978ZM25.2428 25.4195L25.5416 26.5327L27.4733 26.0143L27.1744 24.901L25.2428 25.4195ZM24.4515 22.4595L25.2425 25.4185L27.1747 24.902L26.3837 21.943L24.4515 22.4595ZM23.9594 20.6198L24.4516 22.4597L26.3836 21.9428L25.8914 20.103L23.9594 20.6198ZM23.5259 19.0032L23.9595 20.6204L25.8913 20.1024L25.4577 18.4852L23.5259 19.0032ZM23.2578 18.0239L23.5273 19.0083L25.4563 18.4801L25.1868 17.4957L23.2578 18.0239ZM23.0878 17.4026L23.2577 18.0237L25.1868 17.4959L25.0169 16.8748L23.0878 17.4026ZM22.9863 17.0205L23.0859 17.3955L25.0189 16.882L24.9192 16.507L22.9863 17.0205ZM22.8975 16.7103L22.9912 17.0385L24.9143 16.489L24.8205 16.1609L22.8975 16.7103ZM22.8537 16.5375L22.8889 16.6782L24.8291 16.1931L24.794 16.0524L22.8537 16.5375ZM22.8446 16.5129L22.8681 16.589L24.7796 16.0009L24.7562 15.9247L22.8446 16.5129ZM22.8272 16.4525L22.8389 16.4935L24.7619 15.9441L24.7502 15.9031L22.8272 16.4525ZM22.8283 16.4589L22.84 16.494L24.7374 15.8616L24.7257 15.8264L22.8283 16.4589ZM20.6124 13.2157C21.6545 14.0302 22.4237 15.1577 22.822 16.4394L24.7319 15.8459C24.2162 14.1862 23.2158 12.7121 21.8439 11.6399L20.6124 13.2157ZM15.9137 11.7403C17.8217 11.7403 19.3951 12.265 20.6126 13.2159L21.8437 11.6397C20.2253 10.3757 18.201 9.7403 15.9137 9.7403V11.7403ZM17.8701 13.6925C17.5068 13.3292 17.014 13.1251 16.5001 13.1251V15.1251C16.4835 15.1251 16.4676 15.1185 16.4559 15.1068L17.8701 13.6925ZM18.4376 15.0626C18.4376 14.5487 18.2335 14.0559 17.8701 13.6925L16.4559 15.1068C16.4442 15.095 16.4376 15.0791 16.4376 15.0626H18.4376ZM17.8701 16.4326C18.2335 16.0692 18.4376 15.5764 18.4376 15.0626H16.4376C16.4376 15.046 16.4442 15.0301 16.4559 15.0184L17.8701 16.4326ZM16.5001 17.0001C17.014 17.0001 17.5068 16.7959 17.8701 16.4326L16.4559 15.0184C16.4677 15.0066 16.4835 15.0001 16.5001 15.0001V17.0001ZM15.1301 16.4326C15.4935 16.7959 15.9863 17.0001 16.5001 17.0001V15.0001C16.5167 15.0001 16.5326 15.0066 16.5443 15.0184L15.1301 16.4326ZM14.5626 15.0626C14.5626 15.5764 14.7667 16.0692 15.1301 16.4326L16.5443 15.0184C16.556 15.0301 16.5626 15.046 16.5626 15.0626H14.5626ZM15.1301 13.6925C14.7667 14.0559 14.5626 14.5487 14.5626 15.0626H16.5626C16.5626 15.0791 16.556 15.095 16.5443 15.1068L15.1301 13.6925ZM16.5001 13.1251C15.9863 13.1251 15.4935 13.3292 15.1301 13.6925L16.5443 15.1068C16.5326 15.1185 16.5167 15.1251 16.5001 15.1251V13.1251Z" fill="#111827"/>
</svg>
