<svg width="33" height="32" viewBox="0 0 33 32" fill="none" xmlns="http://www.w3.org/2000/svg">
<path fill-rule="evenodd" clip-rule="evenodd" d="M19.7141 5.21497C19.6747 5.21497 19.6427 5.24692 19.6427 5.28633V26.7136C19.6427 26.753 19.6747 26.785 19.7141 26.785H30.4277C30.4671 26.785 30.4991 26.753 30.4991 26.7136V5.28633C30.4991 5.24692 30.4671 5.21497 30.4277 5.21497H19.7141ZM17.6427 5.28633C17.6427 4.14235 18.5701 3.21497 19.7141 3.21497H30.4277C31.5717 3.21497 32.4991 4.14235 32.4991 5.28633V26.7136C32.4991 27.8576 31.5717 28.785 30.4277 28.785H19.7141C18.5701 28.785 17.6427 27.8576 17.6427 26.7136V5.28633ZM21.9281 8.50044C21.9281 7.94816 22.3759 7.50044 22.9281 7.50044H27.2136C27.7659 7.50044 28.2136 7.94816 28.2136 8.50044C28.2136 9.05273 27.7659 9.50044 27.2136 9.50044H22.9281C22.3759 9.50044 21.9281 9.05273 21.9281 8.50044ZM6.92907 27.785C6.92907 27.2327 7.37678 26.785 7.92907 26.785H10.1432V24.4996H1.50092C0.948631 24.4996 0.500916 24.0519 0.500916 23.4996V9.57186C0.500916 9.01957 0.948631 8.57186 1.50092 8.57186H15.4286C15.9809 8.57186 16.4286 9.01957 16.4286 9.57186C16.4286 10.1241 15.9809 10.5719 15.4286 10.5719H2.50092V22.4996H11.132C11.1357 22.4995 11.1395 22.4995 11.1432 22.4995C11.1469 22.4995 11.1506 22.4995 11.1544 22.4996H15.4286C15.9809 22.4996 16.4286 22.9473 16.4286 23.4996C16.4286 24.0519 15.9809 24.4996 15.4286 24.4996H12.1432V26.785H14.3572C14.9095 26.785 15.3572 27.2327 15.3572 27.785C15.3572 28.3373 14.9095 28.785 14.3572 28.785H7.92907C7.37678 28.785 6.92907 28.3373 6.92907 27.785ZM22.9281 11.7859C22.3759 11.7859 21.9281 12.2336 21.9281 12.7859C21.9281 13.3381 22.3759 13.7859 22.9281 13.7859H27.2136C27.7659 13.7859 28.2136 13.3381 28.2136 12.7859C28.2136 12.2336 27.7659 11.7859 27.2136 11.7859H22.9281ZM25.0709 24.5709C25.9584 24.5709 26.6779 23.8514 26.6779 22.9639C26.6779 22.0763 25.9584 21.3568 25.0709 21.3568C24.1833 21.3568 23.4639 22.0763 23.4639 22.9639C23.4639 23.8514 24.1833 24.5709 25.0709 24.5709Z" fill="#111827"/>
</svg>
