<svg width="33" height="32" viewBox="0 0 33 32" fill="none" xmlns="http://www.w3.org/2000/svg">
<path fill-rule="evenodd" clip-rule="evenodd" d="M8.04824 4.91475C7.05806 5.99446 6.30896 7.89724 6.30896 9.67984V14.7136H26.691V10.2106C26.691 8.31131 25.8527 6.31278 24.7682 5.20018C24.2296 4.64761 23.7193 4.40167 23.3092 4.37285C22.9492 4.34755 22.4838 4.47601 21.9472 5.10334C21.6651 5.43313 21.4044 5.78269 21.1237 6.15906L20.9929 6.33428C20.6718 6.76353 20.3191 7.22551 19.9226 7.64034C19.1043 8.4964 18.0406 9.2099 16.5 9.2099C14.8624 9.2099 13.734 8.37311 12.8701 7.44159C12.4575 6.99665 12.0795 6.50218 11.7324 6.04809L11.7324 6.04807L11.704 6.01094C11.3379 5.53213 11.0015 5.09476 10.6399 4.70676C10.123 4.15201 9.69779 4.05847 9.37736 4.09417C9.00585 4.13557 8.54021 4.3783 8.04824 4.91475ZM9.15587 2.10648C10.2294 1.98685 11.2481 2.42571 12.1031 3.34326C12.5419 3.81413 12.9358 4.32929 13.2928 4.79619C13.661 5.27772 13.9894 5.70722 14.3366 6.08161C15.015 6.8131 15.6504 7.2099 16.5 7.2099C17.3179 7.2099 17.8934 6.86877 18.4768 6.25838C18.7812 5.94 19.0701 5.5658 19.3914 5.13625L19.5162 4.96897C19.7939 4.59648 20.0983 4.18806 20.4274 3.80333C21.2843 2.80146 22.3287 2.29901 23.4494 2.37777C24.5201 2.45301 25.4615 3.0461 26.2004 3.80418C27.671 5.31289 28.691 7.82221 28.691 10.2106V14.7137H31.4991C32.0514 14.7137 32.4991 15.1614 32.4991 15.7137C32.4991 16.266 32.0514 16.7137 31.4991 16.7137H1.50092C0.948631 16.7137 0.500916 16.266 0.500916 15.7137C0.500916 15.1614 0.948631 14.7137 1.50092 14.7137H4.30896V9.67984C4.30896 7.43751 5.21914 5.04059 6.57424 3.56297C7.25491 2.82075 8.1334 2.22041 9.15587 2.10648ZM5.50073 24.7132C5.50073 22.946 6.93331 21.5134 8.70048 21.5134C10.464 21.5134 11.8943 22.9401 11.9002 24.7022L11.9001 24.7126L11.9002 24.7234C11.8947 26.4859 10.4642 27.9129 8.70048 27.9129C6.93331 27.9129 5.50073 26.4803 5.50073 24.7132ZM8.70048 19.5134C11.23 19.5134 13.3376 21.3196 13.804 23.7126H19.1959C19.6623 21.3196 21.77 19.5134 24.2995 19.5134C27.1712 19.5134 29.4992 21.8414 29.4992 24.7132C29.4992 27.5849 27.1712 29.9129 24.2995 29.9129C21.7696 29.9129 19.6617 28.1062 19.1957 25.7126H13.8043C13.3382 28.1062 11.2303 29.9129 8.70048 29.9129C5.82874 29.9129 3.50073 27.5849 3.50073 24.7132C3.50073 21.8414 5.82874 19.5134 8.70048 19.5134ZM21.0997 24.7132C21.0997 22.946 22.5323 21.5134 24.2995 21.5134C26.0666 21.5134 27.4992 22.946 27.4992 24.7132C27.4992 26.4803 26.0666 27.9129 24.2995 27.9129C22.5323 27.9129 21.0997 26.4803 21.0997 24.7132Z" fill="#111827"/>
</svg>
