<svg width="32" height="32" viewBox="0 0 32 32" fill="none" xmlns="http://www.w3.org/2000/svg">
<path d="M9.76002 26.6043C11.6157 26.6043 13.12 25.1 13.12 23.2443C13.12 21.3886 11.6157 19.8843 9.76002 19.8843C7.90435 19.8843 6.40002 21.3886 6.40002 23.2443C6.40002 25.1 7.90435 26.6043 9.76002 26.6043Z" stroke="#1C1B1F" stroke-width="2" stroke-linecap="round" stroke-linejoin="round"/>
<path d="M22.24 26.6043C24.0957 26.6043 25.6 25.1 25.6 23.2443C25.6 21.3886 24.0957 19.8843 22.24 19.8843C20.3843 19.8843 18.88 21.3886 18.88 23.2443C18.88 25.1 20.3843 26.6043 22.24 26.6043Z" stroke="#1C1B1F" stroke-width="2" stroke-linecap="round" stroke-linejoin="round"/>
<path d="M13.12 23.2441H18.88" stroke="#1C1B1F" stroke-width="2" stroke-linecap="round" stroke-linejoin="round"/>
<path d="M4 16.0442H28" stroke="#1C1B1F" stroke-width="2" stroke-linecap="round" stroke-linejoin="round"/>
<path d="M7.04663 12.5452V16.0442H24.9534V13.076C24.9534 8.7882 21.4529 4.74557 18.8723 8.16982C18.128 9.15749 17.3653 10.0409 16 10.0409C14.4741 10.0409 13.6287 8.88012 12.7399 7.7191C10.2933 4.52314 7.04663 8.52024 7.04663 12.5452Z" stroke="#1C1B1F" stroke-width="2" stroke-linejoin="round"/>
</svg>
