<svg width="33" height="32" viewBox="0 0 33 32" fill="none" xmlns="http://www.w3.org/2000/svg">
<path fill-rule="evenodd" clip-rule="evenodd" d="M11.6175 6.77661C11.6175 4.13815 13.7564 1.99927 16.3948 1.99927C19.0333 1.99927 21.1722 4.13815 21.1722 6.77661C21.1722 9.41506 19.0333 11.5539 16.3948 11.5539C13.7564 11.5539 11.6175 9.41506 11.6175 6.77661ZM16.3948 -0.000732422C12.6518 -0.000732422 9.61751 3.03359 9.61751 6.77661C9.61751 9.12432 10.8112 11.1932 12.6248 12.4095C11.1764 13.1054 9.95039 14.1898 9.08175 15.5264H1.47339C0.921104 15.5264 0.473389 15.9741 0.473389 16.5264V31.0005C0.473389 31.5528 0.921104 32.0005 1.47339 32.0005H31.5056C32.0579 32.0005 32.5056 31.5528 32.5056 31.0005V16.5264C32.5056 15.9741 32.0579 15.5264 31.5056 15.5264H23.7073C22.8387 14.1899 21.6128 13.1056 20.1646 12.4096C21.9783 11.1934 23.1722 9.12443 23.1722 6.77661C23.1722 3.03359 20.1379 -0.000732422 16.3948 -0.000732422ZM21.1486 15.5264H11.6405C12.8568 14.3071 14.5381 13.5541 16.3945 13.5541C18.251 13.5541 19.9323 14.3071 21.1486 15.5264ZM2.47339 17.5264V30.0005H30.5056V17.5264H2.47339ZM18.8031 20.3575C18.9918 19.8384 18.7241 19.2647 18.205 19.0759C17.686 18.8872 17.1122 19.155 16.9235 19.674L14.1979 27.1694C14.0091 27.6885 14.2769 28.2622 14.7959 28.451C15.315 28.6397 15.8887 28.3719 16.0775 27.8529L18.8031 20.3575ZM13.7672 22.3856C14.1577 21.9951 14.1577 21.362 13.7672 20.9714C13.3766 20.5809 12.7435 20.5809 12.353 20.9714L10.2678 23.0566C10.0803 23.2441 9.9749 23.4985 9.9749 23.7637C9.9749 24.0289 10.0803 24.2833 10.2678 24.4708L12.353 26.556C12.7435 26.9465 13.3766 26.9465 13.7672 26.556C14.1577 26.1654 14.1577 25.5323 13.7672 25.1418L12.3891 23.7637L13.7672 22.3856ZM19.2336 20.9714C19.6241 20.5809 20.2573 20.5809 20.6478 20.9714L22.733 23.0566C22.9205 23.2441 23.0259 23.4985 23.0259 23.7637C23.0259 24.0289 22.9205 24.2833 22.733 24.4708L20.6478 26.556C20.2573 26.9465 19.6241 26.9465 19.2336 26.556C18.8431 26.1654 18.8431 25.5323 19.2336 25.1418L20.6117 23.7637L19.2336 22.3856C18.8431 21.9951 18.8431 21.362 19.2336 20.9714Z" fill="#111827"/>
</svg>
