<svg width="33" height="34" viewBox="0 0 33 34" fill="none" xmlns="http://www.w3.org/2000/svg">
<path fill-rule="evenodd" clip-rule="evenodd" d="M9.26817 0.998291C7.61132 0.998291 6.26817 2.34144 6.26817 3.99829V30.0017C6.26817 31.6586 7.61131 33.0017 9.26817 33.0017H23.7318C25.3887 33.0017 26.7318 31.6586 26.7318 30.0017V3.99829C26.7318 2.34144 25.3887 0.998291 23.7318 0.998291H9.26817ZM8.26817 3.99829C8.26817 3.44601 8.71589 2.99829 9.26817 2.99829H23.7318C24.2841 2.99829 24.7318 3.446 24.7318 3.99829V30.0017C24.7318 30.554 24.2841 31.0017 23.7318 31.0017H9.26817C8.71589 31.0017 8.26817 30.554 8.26817 30.0017V3.99829ZM18.3752 7.62394C18.3752 8.65959 17.5356 9.49916 16.5 9.49916C15.4643 9.49916 14.6248 8.65959 14.6248 7.62394C14.6248 6.58829 15.4643 5.74872 16.5 5.74872C17.5356 5.74872 18.3752 6.58829 18.3752 7.62394Z" fill="#111827"/>
</svg>
