<svg width="33" height="32" viewBox="0 0 33 32" fill="none" xmlns="http://www.w3.org/2000/svg">
<path fill-rule="evenodd" clip-rule="evenodd" d="M9.26817 -0.00170898C7.61132 -0.00170898 6.26817 1.34144 6.26817 2.99829V29.0017C6.26817 30.6586 7.61131 32.0017 9.26817 32.0017H23.7318C25.3887 32.0017 26.7318 30.6586 26.7318 29.0017V2.99829C26.7318 1.34144 25.3887 -0.00170898 23.7318 -0.00170898H9.26817ZM8.26817 2.99829C8.26817 2.44601 8.71589 1.99829 9.26817 1.99829H23.7318C24.2841 1.99829 24.7318 2.446 24.7318 2.99829V29.0017C24.7318 29.554 24.2841 30.0017 23.7318 30.0017H9.26817C8.71589 30.0017 8.26817 29.554 8.26817 29.0017V2.99829ZM18.3752 6.62394C18.3752 7.65959 17.5356 8.49916 16.5 8.49916C15.4643 8.49916 14.6248 7.65959 14.6248 6.62394C14.6248 5.58829 15.4643 4.74872 16.5 4.74872C17.5356 4.74872 18.3752 5.58829 18.3752 6.62394Z" fill="#111827"/>
</svg>
