<svg width="33" height="32" viewBox="0 0 33 32" fill="none" xmlns="http://www.w3.org/2000/svg">
<path fill-rule="evenodd" clip-rule="evenodd" d="M9.26981 0.000915527C7.61295 0.000915527 6.26981 1.34406 6.26981 3.00091V5.60813C6.26979 5.61076 6.26978 5.6134 6.26978 5.61604C6.26978 5.61868 6.26979 5.62131 6.26981 5.62395V23.9724C6.26979 23.975 6.26978 23.9777 6.26978 23.9803C6.26978 23.9829 6.26979 23.9856 6.26981 23.9882V28.9991C6.26981 30.6559 7.61296 31.9991 9.26981 31.9991H23.7302C25.3871 31.9991 26.7302 30.6559 26.7302 28.9991V23.9803V5.61604V3.00092C26.7302 1.34406 25.3871 0.000915527 23.7302 0.000915527H9.26981ZM24.7302 4.61604V3.00092C24.7302 2.44863 24.2825 2.00092 23.7302 2.00092H9.26981C8.71752 2.00092 8.26981 2.44863 8.26981 3.00091V4.61604H24.7302ZM8.26981 6.61604H24.7302V22.9803H8.26981V6.61604ZM8.26981 24.9803V28.9991C8.26981 29.5514 8.71752 29.9991 9.26981 29.9991H23.7302C24.2825 29.9991 24.7302 29.5514 24.7302 28.9991V24.9803H8.26981ZM14.6894 26.4942C14.1372 26.4942 13.6894 26.9419 13.6894 27.4942C13.6894 28.0465 14.1372 28.4942 14.6894 28.4942H18.3105C18.8628 28.4942 19.3105 28.0465 19.3105 27.4942C19.3105 26.9419 18.8628 26.4942 18.3105 26.4942H14.6894Z" fill="#111827"/>
</svg>
