<svg width="33" height="32" viewBox="0 0 33 32" fill="none" xmlns="http://www.w3.org/2000/svg">
<path fill-rule="evenodd" clip-rule="evenodd" d="M6.00079 0.000915527C4.34394 0.000915527 3.00079 1.34406 3.00079 3.00091V28.9991C3.00079 30.6559 4.34394 31.9991 6.00079 31.9991H26.9992C28.6561 31.9991 29.9992 30.6559 29.9992 28.9991V3.00092C29.9992 1.34406 28.6561 0.000915527 26.9992 0.000915527H6.00079ZM5.00079 3.00091C5.00079 2.44863 5.44851 2.00092 6.00079 2.00092H26.9992C27.5515 2.00092 27.9992 2.44863 27.9992 3.00092V28.9991C27.9992 29.5514 27.5515 29.9991 26.9992 29.9991H6.00079C5.44851 29.9991 5.00079 29.5514 5.00079 28.9991V3.00091ZM11.5003 5.00061C10.948 5.00061 10.5003 5.44832 10.5003 6.00061C10.5003 6.55289 10.948 7.00061 11.5003 7.00061H21.4997C22.052 7.00061 22.4997 6.55289 22.4997 6.00061C22.4997 5.44832 22.052 5.00061 21.4997 5.00061H11.5003Z" fill="#111827"/>
</svg>
