<svg width="33" height="32" viewBox="0 0 33 32" fill="none" xmlns="http://www.w3.org/2000/svg">
<path fill-rule="evenodd" clip-rule="evenodd" d="M6.00079 0.000915527C4.34394 0.000915527 3.00079 1.34406 3.00079 3.00091V28.9991C3.00079 30.6559 4.34394 31.9991 6.00079 31.9991H26.9992C28.6561 31.9991 29.9992 30.6559 29.9992 28.9991V3.00092C29.9992 1.34406 28.6561 0.000915527 26.9992 0.000915527H6.00079ZM5.00079 3.00091C5.00079 2.44863 5.44851 2.00092 6.00079 2.00092H26.9992C27.5515 2.00092 27.9992 2.44863 27.9992 3.00092V28.9991C27.9992 29.5514 27.5515 29.9991 26.9992 29.9991H6.00079C5.44851 29.9991 5.00079 29.5514 5.00079 28.9991V3.00091ZM18.3749 6.62557C18.3749 7.66104 17.5355 8.50045 16.5001 8.50045C15.4646 8.50045 14.6252 7.66104 14.6252 6.62557C14.6252 5.5901 15.4646 4.75068 16.5001 4.75068C17.5355 4.75068 18.3749 5.5901 18.3749 6.62557Z" fill="#111827"/>
</svg>
