<svg width="33" height="32" viewBox="0 0 33 32" fill="none" xmlns="http://www.w3.org/2000/svg">
<path d="M8.00099 8.62593H7.00099V9.62593H8.00099V8.62593ZM8.00099 1.36255V0.362549H7.00099V1.36255H8.00099ZM15.1657 8.62593H16.1657V7.62593H15.1657V8.62593ZM15.1657 15.9696V16.9696H16.1657V15.9696H15.1657ZM8.06076 15.9696V14.9696H7.06076V15.9696H8.06076ZM8.06076 23.2536V24.2536H9.06076V23.2536H8.06076ZM1.5 23.2536V22.2536H0.5V23.2536H1.5ZM1.5 30.6372H0.5V31.6372H1.5V30.6372ZM9.00099 8.62593V1.36255H7.00099V8.62593H9.00099ZM15.1657 7.62593H8.00099V9.62593H15.1657V7.62593ZM16.1657 15.9696V8.62593H14.1657V15.9696H16.1657ZM8.06076 16.9696H15.1657V14.9696H8.06076V16.9696ZM9.06076 23.2536V15.9696H7.06076V23.2536H9.06076ZM1.5 24.2536H8.06076V22.2536H1.5V24.2536ZM2.5 30.6372V23.2536H0.5V30.6372H2.5ZM16.8627 29.6372H1.5V31.6372H16.8627V29.6372ZM30.5 15.9999C30.5 23.5315 24.3944 29.6372 16.8627 29.6372V31.6372C25.4989 31.6372 32.5 24.6361 32.5 15.9999H30.5ZM16.8627 2.36255C24.3944 2.36255 30.5 8.46818 30.5 15.9999H32.5C32.5 7.36361 25.4989 0.362549 16.8627 0.362549V2.36255ZM8.00099 2.36255H16.8627V0.362549H8.00099V2.36255Z" fill="#111827"/>
</svg>
