<svg width="33" height="33" viewBox="0 0 33 33" fill="none" xmlns="http://www.w3.org/2000/svg">
<path fill-rule="evenodd" clip-rule="evenodd" d="M1.50098 0.500977C0.948692 0.500977 0.500977 0.948692 0.500977 1.50098V31.4991C0.500977 32.0514 0.948692 32.4991 1.50098 32.4991H31.4991C32.0514 32.4991 32.4991 32.0514 32.4991 31.4991V1.50098C32.4991 0.948692 32.0514 0.500977 31.4991 0.500977H1.50098ZM2.50098 30.4991V2.50098H30.4991V30.4991H2.50098ZM10.8754 11.5004C11.9109 11.5004 12.7503 10.6609 12.7503 9.62547C12.7503 8.59 11.9109 7.75059 10.8754 7.75059C9.83993 7.75059 9.00051 8.59 9.00051 9.62547C9.00051 10.6609 9.83993 11.5004 10.8754 11.5004ZM22.1247 11.5004C23.1602 11.5004 23.9996 10.6609 23.9996 9.62547C23.9996 8.59 23.1602 7.75059 22.1247 7.75059C21.0892 7.75059 20.2498 8.59 20.2498 9.62547C20.2498 10.6609 21.0892 11.5004 22.1247 11.5004ZM12.7503 16.5002C12.7503 17.5356 11.9109 18.3751 10.8754 18.3751C9.83993 18.3751 9.00051 17.5356 9.00051 16.5002C9.00051 15.4647 9.83993 14.6253 10.8754 14.6253C11.9109 14.6253 12.7503 15.4647 12.7503 16.5002ZM22.1247 18.3751C23.1602 18.3751 23.9996 17.5356 23.9996 16.5002C23.9996 15.4647 23.1602 14.6253 22.1247 14.6253C21.0892 14.6253 20.2498 15.4647 20.2498 16.5002C20.2498 17.5356 21.0892 18.3751 22.1247 18.3751ZM12.7503 23.3746C12.7503 24.4101 11.9109 25.2495 10.8754 25.2495C9.83993 25.2495 9.00051 24.4101 9.00051 23.3746C9.00051 22.3391 9.83993 21.4997 10.8754 21.4997C11.9109 21.4997 12.7503 22.3391 12.7503 23.3746ZM22.1247 25.2495C23.1602 25.2495 23.9996 24.4101 23.9996 23.3746C23.9996 22.3391 23.1602 21.4997 22.1247 21.4997C21.0892 21.4997 20.2498 22.3391 20.2498 23.3746C20.2498 24.4101 21.0892 25.2495 22.1247 25.2495Z" fill="#111827"/>
</svg>
