<svg width="33" height="33" viewBox="0 0 33 33" fill="none" xmlns="http://www.w3.org/2000/svg">
<path fill-rule="evenodd" clip-rule="evenodd" d="M1.50098 0.500977C0.948692 0.500977 0.500977 0.948692 0.500977 1.50098V31.4991C0.500977 32.0514 0.948692 32.4991 1.50098 32.4991H31.4991C32.0514 32.4991 32.4991 32.0514 32.4991 31.4991V1.50098C32.4991 0.948692 32.0514 0.500977 31.4991 0.500977H1.50098ZM2.50098 30.4991V2.50098H30.4991V30.4991H2.50098ZM18.3751 16.5002C18.3751 17.5356 17.5356 18.3751 16.5002 18.3751C15.4647 18.3751 14.6253 17.5356 14.6253 16.5002C14.6253 15.4647 15.4647 14.6253 16.5002 14.6253C17.5356 14.6253 18.3751 15.4647 18.3751 16.5002Z" fill="#111827"/>
</svg>
