<svg width="33" height="33" viewBox="0 0 33 33" fill="none" xmlns="http://www.w3.org/2000/svg">
<path fill-rule="evenodd" clip-rule="evenodd" d="M1.50098 0.500977C0.948692 0.500977 0.500977 0.948692 0.500977 1.50098V31.4991C0.500977 32.0514 0.948692 32.4991 1.50098 32.4991H31.4991C32.0514 32.4991 32.4991 32.0514 32.4991 31.4991V1.50098C32.4991 0.948692 32.0514 0.500977 31.4991 0.500977H1.50098ZM2.50098 30.4991V2.50098H30.4991V30.4991H2.50098ZM13.3752 15.2501C14.4107 15.2501 15.2501 14.4107 15.2501 13.3752C15.2501 12.3398 14.4107 11.5004 13.3752 11.5004C12.3398 11.5004 11.5004 12.3398 11.5004 13.3752C11.5004 14.4107 12.3398 15.2501 13.3752 15.2501ZM19.6249 21.4997C20.6603 21.4997 21.4997 20.6603 21.4997 19.6249C21.4997 18.5894 20.6603 17.75 19.6249 17.75C18.5894 17.75 17.75 18.5894 17.75 19.6249C17.75 20.6603 18.5894 21.4997 19.6249 21.4997Z" fill="#111827"/>
</svg>
