<svg width="33" height="32" viewBox="0 0 33 32" fill="none" xmlns="http://www.w3.org/2000/svg">
<path fill-rule="evenodd" clip-rule="evenodd" d="M1.50098 0.000976562C0.948692 0.000976562 0.500977 0.448692 0.500977 1.00098V30.9991C0.500977 31.5514 0.948692 31.9991 1.50098 31.9991H31.4991C32.0514 31.9991 32.4991 31.5514 32.4991 30.9991V1.00098C32.4991 0.448692 32.0514 0.000976562 31.4991 0.000976562H1.50098ZM2.50098 29.9991V2.00098H30.4991V29.9991H2.50098ZM13.3752 14.7501C14.4107 14.7501 15.2501 13.9107 15.2501 12.8752C15.2501 11.8398 14.4107 11.0004 13.3752 11.0004C12.3398 11.0004 11.5004 11.8398 11.5004 12.8752C11.5004 13.9107 12.3398 14.7501 13.3752 14.7501ZM19.6249 20.9997C20.6603 20.9997 21.4997 20.1603 21.4997 19.1249C21.4997 18.0894 20.6603 17.25 19.6249 17.25C18.5894 17.25 17.75 18.0894 17.75 19.1249C17.75 20.1603 18.5894 20.9997 19.6249 20.9997Z" fill="#111827"/>
</svg>
