<svg width="33" height="32" viewBox="0 0 33 32" fill="none" xmlns="http://www.w3.org/2000/svg">
<path fill-rule="evenodd" clip-rule="evenodd" d="M1.50098 0.000976562C0.948692 0.000976562 0.500977 0.448692 0.500977 1.00098V30.9991C0.500977 31.5514 0.948692 31.9991 1.50098 31.9991H31.4991C32.0514 31.9991 32.4991 31.5514 32.4991 30.9991V1.00098C32.4991 0.448692 32.0514 0.000976562 31.4991 0.000976562H1.50098ZM2.50098 29.9991V2.00098H30.4991V29.9991H2.50098ZM18.3751 16.0002C18.3751 17.0356 17.5356 17.8751 16.5002 17.8751C15.4647 17.8751 14.6253 17.0356 14.6253 16.0002C14.6253 14.9647 15.4647 14.1253 16.5002 14.1253C17.5356 14.1253 18.3751 14.9647 18.3751 16.0002Z" fill="#111827"/>
</svg>
