<svg width="33" height="32" viewBox="0 0 33 32" fill="none" xmlns="http://www.w3.org/2000/svg">
<path fill-rule="evenodd" clip-rule="evenodd" d="M1.50098 0.000976562C0.948692 0.000976562 0.500977 0.448692 0.500977 1.00098V30.9991C0.500977 31.5514 0.948692 31.9991 1.50098 31.9991H31.4991C32.0514 31.9991 32.4991 31.5514 32.4991 30.9991V1.00098C32.4991 0.448692 32.0514 0.000976562 31.4991 0.000976562H1.50098ZM2.50098 29.9991V2.00098H30.4991V29.9991H2.50098ZM12.1253 13.5002C13.1608 13.5002 14.0002 12.6608 14.0002 11.6253C14.0002 10.5898 13.1608 9.75043 12.1253 9.75043C11.0898 9.75043 10.2504 10.5898 10.2504 11.6253C10.2504 12.6608 11.0898 13.5002 12.1253 13.5002ZM20.8748 13.5002C21.9102 13.5002 22.7497 12.6608 22.7497 11.6253C22.7497 10.5898 21.9102 9.75043 20.8748 9.75043C19.8393 9.75043 18.9999 10.5898 18.9999 11.6253C18.9999 12.6608 19.8393 13.5002 20.8748 13.5002ZM14.0002 20.3748C14.0002 21.4102 13.1608 22.2497 12.1253 22.2497C11.0898 22.2497 10.2504 21.4102 10.2504 20.3748C10.2504 19.3393 11.0898 18.4999 12.1253 18.4999C13.1608 18.4999 14.0002 19.3393 14.0002 20.3748ZM20.8748 22.2497C21.9102 22.2497 22.7497 21.4102 22.7497 20.3748C22.7497 19.3393 21.9102 18.4999 20.8748 18.4999C19.8393 18.4999 18.9999 19.3393 18.9999 20.3748C18.9999 21.4102 19.8393 22.2497 20.8748 22.2497Z" fill="#111827"/>
</svg>
