<svg width="33" height="33" viewBox="0 0 33 33" fill="none" xmlns="http://www.w3.org/2000/svg">
<path fill-rule="evenodd" clip-rule="evenodd" d="M1.50098 0.500977C0.948692 0.500977 0.500977 0.948692 0.500977 1.50098V31.4991C0.500977 32.0514 0.948692 32.4991 1.50098 32.4991H31.4991C32.0514 32.4991 32.4991 32.0514 32.4991 31.4991V1.50098C32.4991 0.948692 32.0514 0.500977 31.4991 0.500977H1.50098ZM2.50098 30.4991V2.50098H30.4991V30.4991H2.50098ZM12.1253 14.0002C13.1608 14.0002 14.0002 13.1608 14.0002 12.1253C14.0002 11.0898 13.1608 10.2504 12.1253 10.2504C11.0898 10.2504 10.2504 11.0898 10.2504 12.1253C10.2504 13.1608 11.0898 14.0002 12.1253 14.0002ZM20.8748 14.0002C21.9102 14.0002 22.7497 13.1608 22.7497 12.1253C22.7497 11.0898 21.9102 10.2504 20.8748 10.2504C19.8393 10.2504 18.9999 11.0898 18.9999 12.1253C18.9999 13.1608 19.8393 14.0002 20.8748 14.0002ZM14.0002 20.8748C14.0002 21.9102 13.1608 22.7497 12.1253 22.7497C11.0898 22.7497 10.2504 21.9102 10.2504 20.8748C10.2504 19.8393 11.0898 18.9999 12.1253 18.9999C13.1608 18.9999 14.0002 19.8393 14.0002 20.8748ZM20.8748 22.7497C21.9102 22.7497 22.7497 21.9102 22.7497 20.8748C22.7497 19.8393 21.9102 18.9999 20.8748 18.9999C19.8393 18.9999 18.9999 19.8393 18.9999 20.8748C18.9999 21.9102 19.8393 22.7497 20.8748 22.7497Z" fill="#111827"/>
</svg>
