<svg width="33" height="33" viewBox="0 0 33 33" fill="none" xmlns="http://www.w3.org/2000/svg">
<path fill-rule="evenodd" clip-rule="evenodd" d="M1.50098 0.500977C0.948692 0.500977 0.500977 0.948692 0.500977 1.50098V31.4991C0.500977 32.0514 0.948692 32.4991 1.50098 32.4991H31.4991C32.0514 32.4991 32.4991 32.0514 32.4991 31.4991V1.50098C32.4991 0.948692 32.0514 0.500977 31.4991 0.500977H1.50098ZM2.50098 30.4991V2.50098H30.4991V30.4991H2.50098ZM12.7503 10.8754C12.7503 11.9109 11.9109 12.7503 10.8754 12.7503C9.83993 12.7503 9.00051 11.9109 9.00051 10.8754C9.00051 9.83993 9.83993 9.00051 10.8754 9.00051C11.9109 9.00051 12.7503 9.83993 12.7503 10.8754ZM23.9996 10.8754C23.9996 11.9109 23.1602 12.7503 22.1247 12.7503C21.0892 12.7503 20.2498 11.9109 20.2498 10.8754C20.2498 9.83993 21.0892 9.00051 22.1247 9.00051C23.1602 9.00051 23.9996 9.83993 23.9996 10.8754ZM10.8754 23.9996C11.9109 23.9996 12.7503 23.1602 12.7503 22.1247C12.7503 21.0892 11.9109 20.2498 10.8754 20.2498C9.83993 20.2498 9.00051 21.0892 9.00051 22.1247C9.00051 23.1602 9.83993 23.9996 10.8754 23.9996ZM18.3751 16.5002C18.3751 17.5356 17.5356 18.3751 16.5002 18.3751C15.4647 18.3751 14.6253 17.5356 14.6253 16.5002C14.6253 15.4647 15.4647 14.6253 16.5002 14.6253C17.5356 14.6253 18.3751 15.4647 18.3751 16.5002ZM22.1247 23.9996C23.1602 23.9996 23.9996 23.1602 23.9996 22.1247C23.9996 21.0892 23.1602 20.2498 22.1247 20.2498C21.0892 20.2498 20.2498 21.0892 20.2498 22.1247C20.2498 23.1602 21.0892 23.9996 22.1247 23.9996Z" fill="#111827"/>
</svg>
