<svg width="33" height="32" viewBox="0 0 33 32" fill="none" xmlns="http://www.w3.org/2000/svg">
<path fill-rule="evenodd" clip-rule="evenodd" d="M16.5 -0.000488281C7.66581 -0.000488281 0.503795 7.15888 0.49951 15.9921L0.499268 16.4923H0.99951H6.89726H7.39687L7.39726 15.9927C7.40122 10.9688 11.4751 6.89738 16.4999 6.89738C21.5272 6.89738 25.6026 10.9728 25.6026 16C25.6026 20.8659 21.7846 24.8401 16.981 25.0902V19.4929V18.9929H16.481H10.4869H9.98688V19.4929V25.0063H6.38107V21.6546V21.1546H5.88107H2.02931H1.52931V21.6546V25.5064V26.0064H2.02931H5.38089V30.1125V30.6125H5.88089H10.487H10.987V30.1125V25.9869H15.9813V31.5004V31.9998L16.4807 32.0004L16.5 32.0005C25.3368 32.0005 32.5005 24.8368 32.5005 16C32.5005 7.16317 25.3368 -0.000488281 16.5 -0.000488281ZM6.4098 15.4923H1.50794C1.77563 7.44281 8.38535 0.999512 16.5 0.999512C24.7845 0.999512 31.5005 7.71545 31.5005 16C31.5005 24.1235 25.0431 30.7388 16.9813 30.9929V26.0914C22.3373 25.8401 26.6026 21.4182 26.6026 16C26.6026 10.4205 22.0794 5.89738 16.4999 5.89738C11.0906 5.89738 6.67429 10.1487 6.4098 15.4923ZM6.38107 26.0064H6.38089V29.6125H9.98703V26.0063H6.38107V26.0064ZM5.38107 22.1546V25.0063H5.38089V25.0064H2.52931V22.1546H5.38107ZM10.9869 24.9869V19.9929H15.981V24.9869H10.9869Z" fill="#111827"/>
</svg>
