<svg width="33" height="32" viewBox="0 0 33 32" fill="none" xmlns="http://www.w3.org/2000/svg">
<path fill-rule="evenodd" clip-rule="evenodd" d="M16.5002 -0.00195312C7.66522 -0.00195312 0.502568 7.15806 0.498288 15.992L0.497803 16.9925H1.49829H7.2064H8.20562L8.2064 15.9933C8.20999 11.4158 11.9219 7.70619 16.5002 7.70619C21.0807 7.70619 24.7939 11.4194 24.7939 16C24.7939 20.2484 21.5996 23.7507 17.4817 24.2363V19.3804V18.3804H16.4817H10.6805H9.68047V19.3804V24.2004H7.2228V21.4726V20.4726H6.2228H2.49494H1.49494V21.4726V25.2005V26.2005H2.49494H5.22261V29.6584V30.6584H6.22261H10.6806H11.6806V29.6584V26.1817H15.4823V31.0018V32.0005L16.481 32.0018L16.5002 32.0018C25.3378 32.0018 32.5021 24.8375 32.5021 15.9999C32.5021 7.16234 25.3378 -0.00195312 16.5002 -0.00195312ZM6.25507 14.9925H2.53397C3.05032 7.72971 9.1059 1.99805 16.5002 1.99805C24.2332 1.99805 30.5021 8.26691 30.5021 15.9999C30.5021 23.4028 24.7571 29.4639 17.4823 29.9679V26.2475C22.7067 25.753 26.7939 21.3538 26.7939 16C26.7939 10.3149 22.1853 5.70619 16.5002 5.70619C11.155 5.70619 6.76137 9.78022 6.25507 14.9925ZM7.2228 26.2005H7.22261V28.6584H9.68059V26.2004H7.2228V26.2005ZM5.2228 22.4726V24.2004H5.22261V24.2005H3.49494V22.4726H5.2228ZM11.6805 24.1817V20.3804H15.4817V24.1817H11.6805Z" fill="#111827"/>
</svg>
