<svg width="33" height="33" viewBox="0 0 33 33" fill="none" xmlns="http://www.w3.org/2000/svg">
<path fill-rule="evenodd" clip-rule="evenodd" d="M16.4999 2.50073C8.76846 2.50073 2.50085 8.76834 2.50085 16.4998C2.50085 24.2313 8.76846 30.4989 16.4999 30.4989C24.2314 30.4989 30.499 24.2313 30.499 16.4998C30.499 8.76834 24.2314 2.50073 16.4999 2.50073ZM0.500854 16.4998C0.500854 7.66377 7.66389 0.500732 16.4999 0.500732C25.336 0.500732 32.499 7.66377 32.499 16.4998C32.499 25.3359 25.336 32.4989 16.4999 32.4989C7.66389 32.4989 0.500854 25.3359 0.500854 16.4998ZM16.4999 12.5001C14.291 12.5001 12.5002 14.2908 12.5002 16.4998C12.5002 18.7088 14.291 20.4995 16.4999 20.4995C18.7089 20.4995 20.4996 18.7088 20.4996 16.4998C20.4996 14.2908 18.7089 12.5001 16.4999 12.5001ZM10.5002 16.4998C10.5002 13.1863 13.1864 10.5001 16.4999 10.5001C19.8135 10.5001 22.4996 13.1863 22.4996 16.4998C22.4996 19.8133 19.8135 22.4995 16.4999 22.4995C13.1864 22.4995 10.5002 19.8133 10.5002 16.4998ZM21.6672 6.34736C21.1227 6.25481 20.6063 6.62117 20.5138 7.16564C20.4212 7.71012 20.7876 8.22653 21.332 8.31908C22.5402 8.52444 23.6548 9.09988 24.5219 9.96591C25.389 10.8319 25.9658 11.9458 26.1727 13.1538C26.2659 13.6981 26.7828 14.0639 27.3271 13.9706C27.8715 13.8774 28.2372 13.3605 28.144 12.8162C27.8672 11.2 27.0955 9.70958 25.9353 8.55083C24.7751 7.39207 23.2837 6.62214 21.6672 6.34736Z" fill="#111827"/>
</svg>
