<svg width="33" height="32" viewBox="0 0 33 32" fill="none" xmlns="http://www.w3.org/2000/svg">
<path fill-rule="evenodd" clip-rule="evenodd" d="M12.1465 4.44398C11.951 3.94541 11.3974 3.68937 10.8908 3.86324L5.6838 5.65066C5.37371 5.75711 5.13549 6.00879 5.04624 6.32425L0.538782 22.2559C0.433889 22.6267 0.551325 23.0247 0.84067 23.2791C1.63963 23.9817 3.04085 25.0459 4.70214 26.0101C6.35382 26.9687 8.33578 27.8715 10.2823 28.1789C10.6817 28.2419 11.0799 28.0582 11.2911 27.7133L13.4311 24.218C14.386 24.3262 15.3479 24.3774 16.3116 24.3709C17.4104 24.3783 18.5068 24.3107 19.5932 24.1692L21.4453 27.6598C21.6663 28.0763 22.1483 28.2819 22.6018 28.1531C23.697 27.8421 25.4635 27.234 27.2569 26.4069C29.0311 25.5887 30.929 24.5126 32.2062 23.2353C32.4681 22.9734 32.5638 22.5884 32.455 22.2344L27.5589 6.30273C27.464 5.99391 27.2258 5.74997 26.9193 5.6478L21.5569 3.86038C21.0521 3.69212 20.504 3.94862 20.3097 4.44398L19.0267 7.71556C18.1261 7.61981 17.2195 7.57466 16.3112 7.58076C15.3494 7.5743 14.3894 7.62532 13.4363 7.73305L12.1465 4.44398ZM11.412 8.0493L10.6342 6.06588L6.82821 7.37237L2.63912 22.1787C3.38081 22.7783 4.46244 23.5586 5.70607 24.2803C7.054 25.0627 8.53718 25.7439 9.94852 26.0758L11.294 23.8784C10.4989 23.7152 9.71158 23.5119 8.93497 23.2688C8.4079 23.1038 8.11436 22.5428 8.27932 22.0158C8.44429 21.4887 9.0053 21.1951 9.53237 21.3601C11.7238 22.046 14.0085 22.387 16.3046 22.3709L16.3186 22.3708V22.3709C18.6148 22.387 20.8995 22.046 23.0908 21.3601C23.6179 21.1952 24.1789 21.4887 24.3439 22.0158C24.5089 22.5429 24.2153 23.1039 23.6882 23.2688C23.0211 23.4776 22.3461 23.6571 21.6651 23.807L22.8257 25.9942C23.8101 25.6761 25.1076 25.1957 26.4194 24.5908C27.906 23.9052 29.3374 23.0927 30.3584 22.2205L25.7984 7.38237L21.8251 6.05795L21.0561 8.01894C21.9439 8.1905 22.8225 8.41202 23.6879 8.68286C24.215 8.84783 24.5085 9.40883 24.3435 9.93591C24.1786 10.463 23.6176 10.7565 23.0905 10.5916C20.8991 9.90568 18.6144 9.56468 16.3182 9.58076L16.3042 9.58086L16.3042 9.58076C14.008 9.56468 11.7233 9.90569 9.53189 10.5916C9.00482 10.7566 8.44381 10.463 8.27884 9.93595C8.11387 9.40888 8.40741 8.84787 8.93448 8.6829C9.74967 8.42775 10.5767 8.21638 11.412 8.0493ZM12.0854 19.6734C12.9606 19.6734 13.6701 18.9639 13.6701 18.0887C13.6701 17.2135 12.9606 16.504 12.0854 16.504C11.2102 16.504 10.5007 17.2135 10.5007 18.0887C10.5007 18.9639 11.2102 19.6734 12.0854 19.6734ZM20.537 19.6734C21.4122 19.6734 22.1217 18.9639 22.1217 18.0887C22.1217 17.2135 21.4122 16.504 20.537 16.504C19.6618 16.504 18.9523 17.2135 18.9523 18.0887C18.9523 18.9639 19.6618 19.6734 20.537 19.6734Z" fill="#111827"/>
</svg>
