<svg width="32" height="32" viewBox="0 0 32 32" fill="none" xmlns="http://www.w3.org/2000/svg">
<path d="M11.8793 19.4286C12.6962 19.4286 13.3584 18.7664 13.3584 17.9495C13.3584 17.1326 12.6962 16.4703 11.8793 16.4703C11.0624 16.4703 10.4001 17.1326 10.4001 17.9495C10.4001 18.7664 11.0624 19.4286 11.8793 19.4286Z" fill="#1C1B1F"/>
<path d="M19.768 19.4286C20.5849 19.4286 21.2471 18.7664 21.2471 17.9495C21.2471 17.1326 20.5849 16.4703 19.768 16.4703C18.9511 16.4703 18.2888 17.1326 18.2888 17.9495C18.2888 18.7664 18.9511 19.4286 19.768 19.4286Z" fill="#1C1B1F"/>
<path d="M9.21704 10.0608C11.3548 9.39173 13.5836 9.05906 15.8236 9.07475C18.0636 9.05906 20.2924 9.39171 22.4302 10.0608" stroke="#1C1B1F" stroke-width="2" stroke-linecap="round" stroke-linejoin="round"/>
<path d="M22.4303 21.8938C20.2925 22.5629 18.0637 22.8955 15.8238 22.8799C13.5838 22.8955 11.355 22.5629 9.21729 21.8938" stroke="#1C1B1F" stroke-width="2" stroke-linecap="round" stroke-linejoin="round"/>
<path d="M12.5182 9.25383L11.0674 5.55432L6.20723 7.22269L2 22.0932C3.4024 23.3264 7.03414 25.9233 10.3419 26.4455L12.5182 22.8911M19.5544 22.8911L21.4404 26.4455C23.3989 25.8894 27.8528 24.2403 30 22.0932L25.43 7.22269L20.4248 5.55432L18.9741 9.25383" stroke="#1C1B1F" stroke-width="2" stroke-linecap="round" stroke-linejoin="round"/>
</svg>
