<svg width="33" height="33" viewBox="0 0 33 33" fill="none" xmlns="http://www.w3.org/2000/svg">
<path d="M25.2092 14.0099C25.2276 14.1433 25.299 14.2637 25.4073 14.3437C25.5156 14.4238 25.6516 14.4567 25.7845 14.4352C26.7885 14.2724 27.5131 14.4239 27.9744 14.6008C28.1292 14.6602 28.256 14.7231 28.3551 14.7794C28.2615 14.9801 28.1099 15.2443 27.8785 15.5007C27.4277 16.0003 26.6435 16.5083 25.2693 16.4026C25.054 16.3861 24.8525 16.5095 24.7694 16.7088C22.7844 21.4728 18.602 24.0959 12.9194 24.0959C10.9555 24.0959 9.51928 23.6485 8.46717 22.9893C7.41462 22.3299 6.71609 21.4395 6.25798 20.506C5.79819 19.5692 5.58268 18.5922 5.50108 17.7789C5.44831 17.2529 5.45324 16.8144 5.4774 16.5133H21.3244C22.3093 16.5133 22.9781 16.2486 23.3829 16.0462C23.5039 15.9857 23.5952 15.8788 23.636 15.7499C23.6768 15.6209 23.6637 15.481 23.5995 15.3619C23.0621 14.3638 23.1602 13.4205 23.4034 12.704C23.5129 12.3814 23.6508 12.1093 23.7696 11.9076C23.9075 12.0096 24.0694 12.1405 24.2346 12.2982C24.6842 12.7274 25.1128 13.311 25.2092 14.0099ZM28.6193 14.9587L28.6185 14.9581C28.6199 14.9593 28.6206 14.9599 28.6206 14.9599L28.6205 14.9598L28.6193 14.9587Z" stroke="#1C1B1F" stroke-linejoin="round"/>
<path fill-rule="evenodd" clip-rule="evenodd" d="M18.203 7.90417H15.717V10.1534H18.203V7.90417ZM9.78227 10.6269H12.2683V12.8762H9.78227V10.6269ZM6.82275 13.3435H9.30875V15.5927H6.82275V13.3435ZM9.78227 13.3435H12.2683V15.5927H9.78227V13.3435ZM15.2278 13.3435H12.7418V15.5927H15.2278V13.3435ZM15.7013 13.3435H18.1873V15.5927H15.7013V13.3435ZM21.1468 13.3435H18.6608V15.5927H21.1468V13.3435ZM15.2278 10.6269H12.7418V12.8762H15.2278V10.6269ZM15.7013 10.6269H18.1873V12.8762H15.7013V10.6269Z" fill="#1C1B1F"/>
</svg>
