<svg width="33" height="32" viewBox="0 0 33 32" fill="none" xmlns="http://www.w3.org/2000/svg">
<path d="M31.5 15.0222C31.5 15.0222 30.1682 13.7645 27.4307 14.2084C27.1347 12.0627 24.8411 10.8049 24.8411 10.8049C24.8411 10.8049 22.6954 13.3945 24.2492 16.28C23.8052 16.502 23.0654 16.798 21.9555 16.798H1.60885C1.23891 18.2037 1.23891 27.5262 11.4493 27.5262C18.7741 27.5262 24.2492 24.1228 26.8388 17.9078C30.6861 18.2037 31.5 15.0222 31.5 15.0222Z" stroke="#111827" stroke-width="2" stroke-linejoin="round"/>
<path fill-rule="evenodd" clip-rule="evenodd" d="M14.9458 4.47388H16.0524H16.9458H18.0524V5.28465V6.47388V7.28465H16.9458H16.0524H14.9458V6.47388V5.28465V4.47388ZM8.63447 7.87756H7.52783V8.68833V9.87756V10.6883H8.63447H9.52783H10.6345V9.87756V8.68833V7.87756H9.52783H8.63447ZM4.93476 11.2733H3.82812V12.0841V13.2733V14.0841H4.93476H5.82812H6.93476V13.2733V12.0841V11.2733H5.82812H4.93476ZM8.63447 11.2733H7.52783V12.0841V13.2733V14.0841H8.63447H9.52783H10.6345V13.2733V12.0841V11.2733H9.52783H8.63447ZM11.2271 11.2733H12.3337H13.2271H14.3337V12.0841V13.2733V14.0841H13.2271H12.3337H11.2271V13.2733V12.0841V11.2733ZM16.0332 11.2733H14.9265V12.0841V13.2733V14.0841H16.0332H16.9265H18.0332V13.2733V12.0841V11.2733H16.9265H16.0332ZM18.6257 11.2733H19.7324H20.6257H21.7324V12.0841V13.2733V14.0841H20.6257H19.7324H18.6257V13.2733V12.0841V11.2733ZM11.2271 7.87756H12.3337H13.2271H14.3337V8.68833V9.87756V10.6883H13.2271H12.3337H11.2271V9.87756V8.68833V7.87756ZM16.0332 7.87756H14.9265V8.68833V9.87756V10.6883H16.0332H16.9265H18.0332V9.87756V8.68833V7.87756H16.9265H16.0332Z" fill="#111827"/>
</svg>
