<svg width="33" height="33" viewBox="0 0 33 33" fill="none" xmlns="http://www.w3.org/2000/svg">
<path fill-rule="evenodd" clip-rule="evenodd" d="M4.02102 1.66033C3.7886 1.80754 3.6271 2.044 3.57453 2.31404L0.519413 18.0074C0.4344 18.4441 0.648097 18.8844 1.04375 19.0878C1.43941 19.2912 1.92187 19.2088 2.22755 18.8856L3.27401 17.779V25.4947C3.27401 28.8084 5.9603 31.4947 9.27401 31.4947H23.726C27.0397 31.4947 29.726 28.8084 29.726 25.4947V17.779L30.7724 18.8856C31.0781 19.2088 31.5606 19.2912 31.9562 19.0878C32.3519 18.8844 32.5656 18.4441 32.4806 18.0074L29.4255 2.31404C29.3729 2.044 29.2114 1.80754 28.979 1.66033C28.7466 1.51312 28.4638 1.46817 28.1972 1.53605L19.2269 3.81999H13.7731L4.80284 1.53605C4.53623 1.46817 4.25343 1.51312 4.02102 1.66033ZM20.8837 5.51812C20.9063 5.495 20.9277 5.4708 20.948 5.44559L27.6646 3.73544L29.8594 15.0093L20.8837 5.51812ZM18.4165 5.81999H14.5835L5.27273 15.6655C5.27358 15.6824 5.27401 15.6993 5.27401 15.7164V25.4947C5.27401 27.7038 7.06487 29.4947 9.27401 29.4947H15.5V27.2411L13.3477 25.0888C12.9572 24.6983 12.9572 24.0651 13.3477 23.6746C13.7382 23.2841 14.3714 23.2841 14.7619 23.6746L16.5 25.4127L18.2381 23.6746C18.6286 23.2841 19.2618 23.2841 19.6523 23.6746C20.0428 24.0651 20.0428 24.6983 19.6523 25.0888L17.5 27.2412V29.4947H23.726C25.9351 29.4947 27.726 27.7038 27.726 25.4947V15.7164C27.726 15.6994 27.7264 15.6824 27.7273 15.6655L18.4165 5.81999ZM12.1162 5.51815C12.0937 5.49502 12.0722 5.4708 12.052 5.44557L5.33536 3.73544L3.14062 15.0093L12.1162 5.51815ZM12.8322 18.8799C12.8322 19.8928 12.0111 20.7138 10.9983 20.7138C9.98545 20.7138 9.16438 19.8928 9.16438 18.8799C9.16438 17.8671 9.98545 17.046 10.9983 17.046C12.0111 17.046 12.8322 17.8671 12.8322 18.8799ZM22.0017 20.7138C23.0145 20.7138 23.8356 19.8928 23.8356 18.8799C23.8356 17.8671 23.0145 17.046 22.0017 17.046C20.9888 17.046 20.1678 17.8671 20.1678 18.8799C20.1678 19.8928 20.9888 20.7138 22.0017 20.7138Z" fill="#111827"/>
</svg>
