<svg width="32" height="33" viewBox="0 0 32 33" fill="none" xmlns="http://www.w3.org/2000/svg">
<path d="M16 24.7621V27.6965" stroke="#1C1B1F" stroke-width="2" stroke-linecap="round" stroke-linejoin="round"/>
<path d="M11.5984 19.8713C12.4087 19.8713 13.0656 19.2144 13.0656 18.4041C13.0656 17.5938 12.4087 16.9369 11.5984 16.9369C10.7881 16.9369 10.1312 17.5938 10.1312 18.4041C10.1312 19.2144 10.7881 19.8713 11.5984 19.8713Z" fill="#1C1B1F"/>
<path d="M20.4017 19.8713C21.212 19.8713 21.8689 19.2144 21.8689 18.4041C21.8689 17.5938 21.212 16.9369 20.4017 16.9369C19.5913 16.9369 18.9344 17.5938 18.9344 18.4041C18.9344 19.2144 19.5913 19.8713 20.4017 19.8713Z" fill="#1C1B1F"/>
<path d="M17.9563 22.8058L16 24.7621L14.0437 22.8058" stroke="#1C1B1F" stroke-width="2" stroke-linecap="round" stroke-linejoin="round"/>
<path d="M13.0656 7.15552H18.9344" stroke="#1C1B1F" stroke-width="2" stroke-linecap="round" stroke-linejoin="round"/>
<path d="M6.2186 15.8732V22.6965C6.2186 25.458 8.45717 27.6965 11.2186 27.6965H20.7815C23.5429 27.6965 25.7815 25.458 25.7815 22.6965V15.8732" stroke="#1C1B1F" stroke-width="2" stroke-linecap="round" stroke-linejoin="round"/>
<path d="M6.44427 5.30347L14.0437 7.23838L4.00002 17.8589L6.44427 5.30347Z" stroke="#1C1B1F" stroke-width="2" stroke-linecap="round" stroke-linejoin="round"/>
<path d="M25.5558 5.30347L17.9563 7.23838L28 17.8589L25.5558 5.30347Z" stroke="#1C1B1F" stroke-width="2" stroke-linecap="round" stroke-linejoin="round"/>
</svg>
