<svg width="33" height="32" viewBox="0 0 33 32" fill="none" xmlns="http://www.w3.org/2000/svg">
<path fill-rule="evenodd" clip-rule="evenodd" d="M12.7697 2.50346C8.94075 3.55941 5.76942 6.20111 4.00659 9.67773H1.79871C4.24975 3.98591 9.90954 0.000976562 16.5001 0.000976562C23.0906 0.000976562 28.7504 3.98591 31.2014 9.67773H28.9935C27.2307 6.20111 24.0594 3.5594 20.2304 2.50346C20.8456 3.27384 21.3827 4.22066 21.8385 5.28523C22.3852 6.56206 22.8314 8.04699 23.1548 9.67773H21.1127C20.8229 8.32754 20.4447 7.11124 19.9999 6.07243C19.4661 4.82576 18.8562 3.88082 18.2299 3.2621C17.6079 2.6476 17.0244 2.40363 16.5001 2.40363C15.9757 2.40363 15.3922 2.6476 14.7702 3.2621C14.1439 3.88082 13.534 4.82576 13.0002 6.07243C12.5554 7.11124 12.1772 8.32754 11.8874 9.67773H9.84528C10.1687 8.04699 10.6149 6.56206 11.1616 5.28523C11.6174 4.22067 12.1545 3.27384 12.7697 2.50346ZM16.5001 31.9991C9.91684 31.9991 4.26229 28.023 1.80687 22.3413H4.0162C5.78093 25.8086 8.94769 28.4426 12.7697 29.4967C12.1545 28.7263 11.6174 27.7795 11.1616 26.7149C10.617 25.443 10.1721 23.9646 9.84904 22.3413H11.8915C12.1807 23.684 12.5575 24.8937 13.0002 25.9277C13.534 27.1744 14.1439 28.1193 14.7702 28.738C15.3922 29.3525 15.9757 29.5965 16.5001 29.5965C17.0244 29.5965 17.6079 29.3525 18.2299 28.738C18.8562 28.1193 19.4661 27.1744 19.9999 25.9277C20.4426 24.8937 20.8194 23.684 21.1087 22.3413H23.1511C22.828 23.9646 22.3831 25.443 21.8385 26.7149C21.3827 27.7795 20.8456 28.7263 20.2304 29.4967C24.0524 28.4426 27.2192 25.8086 28.9839 22.3413H31.1933C28.7378 28.023 23.0833 31.9991 16.5001 31.9991ZM0.5 16.001C0.5 14.4983 0.707155 13.044 1.09446 11.665H3.06067C2.62024 13.0312 2.38234 14.4883 2.38234 16.001C2.38234 17.52 2.62223 18.9829 3.06619 20.354H1.09927C0.70887 18.97 0.5 17.5099 0.5 16.001ZM31.9005 20.354C32.2909 18.97 32.4998 17.5099 32.4998 16.001C32.4998 14.4983 32.2926 13.044 31.9053 11.665H29.9391C30.3795 13.0312 30.6174 14.4883 30.6174 16.001C30.6174 17.52 30.3775 18.9829 29.9336 20.354H31.9005ZM5.29513 18.5097L3.90625 13.406H5.33832L6.12912 16.835H6.17564L6.99966 13.406H8.40516L9.24247 16.8151H9.28567L10.0632 13.406H11.4919L10.1064 18.5097H8.60784L7.73065 15.2999H7.66752L6.79033 18.5097H5.29513ZM13.2538 18.5097L11.8649 13.406H13.297L14.0878 16.835H14.1343L14.9583 13.406H16.3638L17.2011 16.8151H17.2443L18.0218 13.406H19.4506L18.065 18.5097H16.5665L15.6893 15.2999H15.6262L14.749 18.5097H13.2538ZM19.8235 13.406L21.2124 18.5097H22.7076L23.5848 15.2999H23.6479L24.5251 18.5097H26.0237L27.4092 13.406H25.9805L25.203 16.8151H25.1598L24.3224 13.406H22.917L22.0929 16.835H22.0464L21.2556 13.406H19.8235ZM28.2972 18.5961C28.0779 18.5961 27.8896 18.5185 27.7323 18.3635C27.5773 18.2062 27.4998 18.0179 27.4998 17.7986C27.4998 17.5815 27.5773 17.3955 27.7323 17.2404C27.8896 17.0853 28.0779 17.0078 28.2972 17.0078C28.5099 17.0078 28.6959 17.0853 28.8554 17.2404C29.0149 17.3955 29.0946 17.5815 29.0946 17.7986C29.0946 17.9448 29.057 18.0788 28.9817 18.2007C28.9086 18.3203 28.8122 18.4166 28.6926 18.4897C28.573 18.5606 28.4412 18.5961 28.2972 18.5961Z" fill="#111827"/>
</svg>
