<svg width="33" height="32" viewBox="0 0 33 32" fill="none" xmlns="http://www.w3.org/2000/svg">
<path fill-rule="evenodd" clip-rule="evenodd" d="M6.11591 1.15466C5.56363 1.15466 5.11591 1.60238 5.11591 2.15466V28.8452H1.50085C0.94857 28.8452 0.500854 29.2929 0.500854 29.8452C0.500854 30.3975 0.94857 30.8452 1.50085 30.8452H6.10391C6.10791 30.8453 6.11191 30.8453 6.11591 30.8453H26.8839C26.8879 30.8453 26.8919 30.8453 26.8959 30.8452H31.499C32.0513 30.8452 32.499 30.3975 32.499 29.8452C32.499 29.2929 32.0513 28.8452 31.499 28.8452H27.8839V2.15466C27.8839 1.60238 27.4362 1.15466 26.8839 1.15466H6.11591ZM25.8839 28.8452V3.15466H7.11591V28.8452H25.8839ZM20.5382 17.7306C21.4941 17.7306 22.2689 16.9557 22.2689 15.9999C22.2689 15.0441 21.4941 14.2693 20.5382 14.2693C19.5824 14.2693 18.8076 15.0441 18.8076 15.9999C18.8076 16.9557 19.5824 17.7306 20.5382 17.7306Z" fill="#111827"/>
</svg>
