<svg width="32" height="32" viewBox="0 0 32 32" fill="none" xmlns="http://www.w3.org/2000/svg">
<path d="M16 18.7692C17.5294 18.7692 18.7692 17.5294 18.7692 16C18.7692 14.4706 17.5294 13.2308 16 13.2308C14.4706 13.2308 13.2308 14.4706 13.2308 16C13.2308 17.5294 14.4706 18.7692 16 18.7692Z" stroke="#1C1B1F" stroke-width="2" stroke-miterlimit="10"/>
<path d="M6.76923 18.7692C8.29863 18.7692 9.53846 17.5294 9.53846 16C9.53846 14.4706 8.29863 13.2308 6.76923 13.2308C5.23983 13.2308 4 14.4706 4 16C4 17.5294 5.23983 18.7692 6.76923 18.7692Z" stroke="#1C1B1F" stroke-width="2" stroke-miterlimit="10"/>
<path d="M25.2308 18.7692C26.7602 18.7692 28 17.5294 28 16C28 14.4706 26.7602 13.2308 25.2308 13.2308C23.7014 13.2308 22.4615 14.4706 22.4615 16C22.4615 17.5294 23.7014 18.7692 25.2308 18.7692Z" stroke="#1C1B1F" stroke-width="2" stroke-miterlimit="10"/>
</svg>
