<svg width="33" height="32" viewBox="0 0 33 32" fill="none" xmlns="http://www.w3.org/2000/svg">
<path fill-rule="evenodd" clip-rule="evenodd" d="M2.50092 16C2.50092 8.26852 8.76852 2.00092 16.5 2.00092C24.2315 2.00092 30.4991 8.26852 30.4991 16C30.4991 23.7315 24.2315 29.9991 16.5 29.9991C8.76852 29.9991 2.50092 23.7315 2.50092 16ZM16.5 0.000915527C7.66395 0.000915527 0.500916 7.16395 0.500916 16C0.500916 24.8361 7.66395 31.9991 16.5 31.9991C25.3361 31.9991 32.4991 24.8361 32.4991 16C32.4991 7.16395 25.3361 0.000915527 16.5 0.000915527ZM18.3749 16C18.3749 17.0355 17.5355 17.8749 16.5 17.8749C15.4645 17.8749 14.6251 17.0355 14.6251 16C14.6251 14.9646 15.4645 14.1252 16.5 14.1252C17.5355 14.1252 18.3749 14.9646 18.3749 16ZM16.5 10.3753C17.5355 10.3753 18.3749 9.53592 18.3749 8.50045C18.3749 7.46498 17.5355 6.62557 16.5 6.62557C15.4645 6.62557 14.6251 7.46498 14.6251 8.50045C14.6251 9.53592 15.4645 10.3753 16.5 10.3753ZM18.3749 23.4995C18.3749 24.535 17.5355 25.3744 16.5 25.3744C15.4645 25.3744 14.6251 24.535 14.6251 23.4995C14.6251 22.4641 15.4645 21.6246 16.5 21.6246C17.5355 21.6246 18.3749 22.4641 18.3749 23.4995Z" fill="#111827"/>
</svg>
