<svg width="33" height="32" viewBox="0 0 33 32" fill="none" xmlns="http://www.w3.org/2000/svg">
<path fill-rule="evenodd" clip-rule="evenodd" d="M2.50092 16C2.50092 8.26852 8.76852 2.00092 16.5 2.00092C24.2315 2.00092 30.4991 8.26852 30.4991 16C30.4991 23.7315 24.2315 29.9991 16.5 29.9991C8.76852 29.9991 2.50092 23.7315 2.50092 16ZM16.5 0.000915527C7.66395 0.000915527 0.500916 7.16395 0.500916 16C0.500916 24.8361 7.66395 31.9991 16.5 31.9991C25.3361 31.9991 32.4991 24.8361 32.4991 16C32.4991 7.16395 25.3361 0.000915527 16.5 0.000915527ZM18.3749 16C18.3749 17.0355 17.5355 17.8749 16.5 17.8749C15.4645 17.8749 14.6251 17.0355 14.6251 16C14.6251 14.9646 15.4645 14.1252 16.5 14.1252C17.5355 14.1252 18.3749 14.9646 18.3749 16ZM23.9995 17.8749C25.035 17.8749 25.8744 17.0355 25.8744 16C25.8744 14.9646 25.035 14.1252 23.9995 14.1252C22.9641 14.1252 22.1246 14.9646 22.1246 16C22.1246 17.0355 22.9641 17.8749 23.9995 17.8749ZM10.8753 16C10.8753 17.0355 10.0359 17.8749 9.00045 17.8749C7.96498 17.8749 7.12557 17.0355 7.12557 16C7.12557 14.9646 7.96498 14.1252 9.00045 14.1252C10.0359 14.1252 10.8753 14.9646 10.8753 16Z" fill="#111827"/>
</svg>
