<svg width="32" height="32" viewBox="0 0 32 32" fill="none" xmlns="http://www.w3.org/2000/svg">
<path d="M11.2308 18.7692C12.7602 18.7692 14 17.5294 14 16C14 14.4706 12.7602 13.2308 11.2308 13.2308C9.70137 13.2308 8.46155 14.4706 8.46155 16C8.46155 17.5294 9.70137 18.7692 11.2308 18.7692Z" stroke="#1C1B1F" stroke-width="2" stroke-miterlimit="10"/>
<path d="M11.2308 9.53846C12.7602 9.53846 14 8.29863 14 6.76923C14 5.23983 12.7602 4 11.2308 4C9.70137 4 8.46155 5.23983 8.46155 6.76923C8.46155 8.29863 9.70137 9.53846 11.2308 9.53846Z" stroke="#1C1B1F" stroke-width="2" stroke-miterlimit="10"/>
<path d="M11.2308 28C12.7602 28 14 26.7602 14 25.2308C14 23.7014 12.7602 22.4615 11.2308 22.4615C9.70137 22.4615 8.46155 23.7014 8.46155 25.2308C8.46155 26.7602 9.70137 28 11.2308 28Z" stroke="#1C1B1F" stroke-width="2" stroke-miterlimit="10"/>
<path d="M20.7692 18.7692C22.2986 18.7692 23.5385 17.5294 23.5385 16C23.5385 14.4706 22.2986 13.2308 20.7692 13.2308C19.2398 13.2308 18 14.4706 18 16C18 17.5294 19.2398 18.7692 20.7692 18.7692Z" stroke="#1C1B1F" stroke-width="2" stroke-miterlimit="10"/>
<path d="M20.7692 9.53846C22.2986 9.53846 23.5385 8.29863 23.5385 6.76923C23.5385 5.23983 22.2986 4 20.7692 4C19.2398 4 18 5.23983 18 6.76923C18 8.29863 19.2398 9.53846 20.7692 9.53846Z" stroke="#1C1B1F" stroke-width="2" stroke-miterlimit="10"/>
<path d="M20.7692 28C22.2986 28 23.5385 26.7602 23.5385 25.2308C23.5385 23.7014 22.2986 22.4615 20.7692 22.4615C19.2398 22.4615 18 23.7014 18 25.2308C18 26.7602 19.2398 28 20.7692 28Z" stroke="#1C1B1F" stroke-width="2" stroke-miterlimit="10"/>
</svg>
