<svg width="33" height="32" viewBox="0 0 33 32" fill="none" xmlns="http://www.w3.org/2000/svg">
<path fill-rule="evenodd" clip-rule="evenodd" d="M4.96224 13.5386C3.60289 13.5386 2.50092 14.6406 2.50092 16C2.50092 17.3593 3.60289 18.4613 4.96224 18.4613C6.32159 18.4613 7.42356 17.3593 7.42356 16C7.42356 14.6406 6.32159 13.5386 4.96224 13.5386ZM0.500916 16C0.500916 13.536 2.49832 11.5386 4.96224 11.5386C7.42616 11.5386 9.42356 13.536 9.42356 16C9.42356 18.4639 7.42616 20.4613 4.96224 20.4613C2.49832 20.4613 0.500916 18.4639 0.500916 16ZM16.5 13.5386C15.1407 13.5386 14.0387 14.6406 14.0387 16C14.0387 17.3593 15.1407 18.4613 16.5 18.4613C17.8594 18.4613 18.9613 17.3593 18.9613 16C18.9613 14.6406 17.8594 13.5386 16.5 13.5386ZM12.0387 16C12.0387 13.536 14.0361 11.5386 16.5 11.5386C18.9639 11.5386 20.9613 13.536 20.9613 16C20.9613 18.4639 18.9639 20.4613 16.5 20.4613C14.0361 20.4613 12.0387 18.4639 12.0387 16ZM25.5764 16C25.5764 14.6406 26.6784 13.5386 28.0378 13.5386C29.3971 13.5386 30.4991 14.6406 30.4991 16C30.4991 17.3593 29.3971 18.4613 28.0378 18.4613C26.6784 18.4613 25.5764 17.3593 25.5764 16ZM28.0378 11.5386C25.5738 11.5386 23.5764 13.536 23.5764 16C23.5764 18.4639 25.5738 20.4613 28.0378 20.4613C30.5017 20.4613 32.4991 18.4639 32.4991 16C32.4991 13.536 30.5017 11.5386 28.0378 11.5386Z" fill="#111827"/>
</svg>
