<svg width="32" height="32" viewBox="0 0 32 32" fill="none" xmlns="http://www.w3.org/2000/svg">
<path d="M16 14C17.5294 14 18.7692 12.7602 18.7692 11.2308C18.7692 9.70137 17.5294 8.46155 16 8.46155C14.4706 8.46155 13.2308 9.70137 13.2308 11.2308C13.2308 12.7602 14.4706 14 16 14Z" stroke="#1C1B1F" stroke-width="2" stroke-miterlimit="10"/>
<path d="M6.76923 14C8.29863 14 9.53846 12.7602 9.53846 11.2308C9.53846 9.70137 8.29863 8.46155 6.76923 8.46155C5.23983 8.46155 4 9.70137 4 11.2308C4 12.7602 5.23983 14 6.76923 14Z" stroke="#1C1B1F" stroke-width="2" stroke-miterlimit="10"/>
<path d="M25.2308 14C26.7602 14 28 12.7602 28 11.2308C28 9.70137 26.7602 8.46155 25.2308 8.46155C23.7014 8.46155 22.4615 9.70137 22.4615 11.2308C22.4615 12.7602 23.7014 14 25.2308 14Z" stroke="#1C1B1F" stroke-width="2" stroke-miterlimit="10"/>
<path d="M16 23.5385C17.5294 23.5385 18.7692 22.2986 18.7692 20.7692C18.7692 19.2398 17.5294 18 16 18C14.4706 18 13.2308 19.2398 13.2308 20.7692C13.2308 22.2986 14.4706 23.5385 16 23.5385Z" stroke="#1C1B1F" stroke-width="2" stroke-miterlimit="10"/>
<path d="M6.76923 23.5385C8.29863 23.5385 9.53846 22.2986 9.53846 20.7692C9.53846 19.2398 8.29863 18 6.76923 18C5.23983 18 4 19.2398 4 20.7692C4 22.2986 5.23983 23.5385 6.76923 23.5385Z" stroke="#1C1B1F" stroke-width="2" stroke-miterlimit="10"/>
<path d="M25.2308 23.5385C26.7602 23.5385 28 22.2986 28 20.7692C28 19.2398 26.7602 18 25.2308 18C23.7014 18 22.4615 19.2398 22.4615 20.7692C22.4615 22.2986 23.7014 23.5385 25.2308 23.5385Z" stroke="#1C1B1F" stroke-width="2" stroke-miterlimit="10"/>
</svg>
