<svg width="33" height="32" viewBox="0 0 33 32" fill="none" xmlns="http://www.w3.org/2000/svg">
<path fill-rule="evenodd" clip-rule="evenodd" d="M2.50092 10.0388C2.50092 8.67949 3.60289 7.57751 4.96224 7.57751C6.3216 7.57751 7.42357 8.67949 7.42357 10.0388C7.42357 11.3982 6.3216 12.5002 4.96224 12.5002C3.60289 12.5002 2.50092 11.3982 2.50092 10.0388ZM4.96224 5.57751C2.49832 5.57751 0.500916 7.57492 0.500916 10.0388C0.500916 12.5028 2.49832 14.5002 4.96224 14.5002C7.42617 14.5002 9.42357 12.5028 9.42357 10.0388C9.42357 7.57492 7.42617 5.57751 4.96224 5.57751ZM14.0387 10.0388C14.0387 8.67949 15.1406 7.57752 16.5 7.57752C17.8594 7.57752 18.9613 8.67949 18.9613 10.0388C18.9613 11.3982 17.8594 12.5002 16.5 12.5002C15.1406 12.5002 14.0387 11.3982 14.0387 10.0388ZM16.5 5.57752C14.0361 5.57752 12.0387 7.57492 12.0387 10.0388C12.0387 12.5028 14.0361 14.5002 16.5 14.5002C18.9639 14.5002 20.9613 12.5028 20.9613 10.0388C20.9613 7.57492 18.9639 5.57752 16.5 5.57752ZM28.0378 7.57752C26.6784 7.57752 25.5764 8.67949 25.5764 10.0388C25.5764 11.3982 26.6784 12.5002 28.0378 12.5002C29.3971 12.5002 30.4991 11.3982 30.4991 10.0388C30.4991 8.67949 29.3971 7.57752 28.0378 7.57752ZM23.5764 10.0388C23.5764 7.57492 25.5738 5.57752 28.0378 5.57752C30.5017 5.57752 32.4991 7.57492 32.4991 10.0388C32.4991 12.5028 30.5017 14.5002 28.0378 14.5002C25.5738 14.5002 23.5764 12.5028 23.5764 10.0388ZM14.0387 21.9612C14.0387 20.6018 15.1406 19.4999 16.5 19.4999C17.8594 19.4999 18.9613 20.6018 18.9613 21.9612C18.9613 23.3205 17.8594 24.4225 16.5 24.4225C15.1406 24.4225 14.0387 23.3205 14.0387 21.9612ZM16.5 17.4999C14.0361 17.4999 12.0387 19.4973 12.0387 21.9612C12.0387 24.4251 14.0361 26.4225 16.5 26.4225C18.9639 26.4225 20.9613 24.4251 20.9613 21.9612C20.9613 19.4973 18.9639 17.4999 16.5 17.4999ZM4.96224 19.4999C3.60289 19.4999 2.50092 20.6018 2.50092 21.9612C2.50092 23.3205 3.60289 24.4225 4.96224 24.4225C6.3216 24.4225 7.42357 23.3205 7.42357 21.9612C7.42357 20.6018 6.3216 19.4999 4.96224 19.4999ZM0.500916 21.9612C0.500916 19.4973 2.49832 17.4999 4.96224 17.4999C7.42617 17.4999 9.42357 19.4973 9.42357 21.9612C9.42357 24.4251 7.42617 26.4225 4.96224 26.4225C2.49832 26.4225 0.500916 24.4251 0.500916 21.9612ZM25.5764 21.9612C25.5764 20.6018 26.6784 19.4999 28.0378 19.4999C29.3971 19.4999 30.4991 20.6018 30.4991 21.9612C30.4991 23.3205 29.3971 24.4225 28.0378 24.4225C26.6784 24.4225 25.5764 23.3205 25.5764 21.9612ZM28.0378 17.4999C25.5738 17.4999 23.5764 19.4973 23.5764 21.9612C23.5764 24.4251 25.5738 26.4225 28.0378 26.4225C30.5017 26.4225 32.4991 24.4251 32.4991 21.9612C32.4991 19.4973 30.5017 17.4999 28.0378 17.4999Z" fill="#111827"/>
</svg>
