<svg width="32" height="33" viewBox="0 0 32 33" fill="none" xmlns="http://www.w3.org/2000/svg">
<path d="M25.2759 13.2401V5.34619H4.96899V25.6531H13.146" stroke="#1C1B1F" stroke-width="2" stroke-linecap="round" stroke-linejoin="round" stroke-dasharray="4 4"/>
<path d="M20.9568 16.7078V9.66553H9.28833V21.334H17.3075" stroke="#1C1B1F" stroke-width="2" stroke-linecap="round" stroke-linejoin="round"/>
<path d="M20.2753 20.1944L17.875 16.0369C17.4816 15.3556 16.6105 15.1222 15.9292 15.5156V15.5156C15.2479 15.9089 15.0144 16.7801 15.4078 17.4614L18.6381 23.0564" stroke="#1C1B1F" stroke-width="2" stroke-linecap="round"/>
<path d="M23.0027 19.2208L22.0959 17.6502C21.7026 16.9689 20.8314 16.7355 20.1501 17.1288V17.1288C19.4688 17.5222 19.2354 18.3934 19.6287 19.0747L20.5355 20.6453" stroke="#1C1B1F" stroke-width="2" stroke-linecap="round"/>
<path d="M16.2422 24.6044L15.9573 24.111C15.4852 23.2934 15.7654 22.248 16.5829 21.776L17.3231 21.3486M26.3247 19.2767L25.0427 17.0563C24.6494 16.375 23.7782 16.1416 23.0969 16.535C22.4156 16.9283 22.1822 17.7995 22.5755 18.4808L23.0028 19.2208M26.1949 19.0519C27.7863 21.8083 27.1157 25.0702 24.0967 26.8133C20.8668 28.678 17.7623 27.2375 16.1709 24.481" stroke="#1C1B1F" stroke-width="2" stroke-linecap="round"/>
</svg>
