<svg width="33" height="33" viewBox="0 0 33 33" fill="none" xmlns="http://www.w3.org/2000/svg">
<path fill-rule="evenodd" clip-rule="evenodd" d="M0.664551 1.49939C0.664551 0.947105 1.11227 0.49939 1.66455 0.49939H3.94042C4.49271 0.49939 4.94042 0.947105 4.94042 1.49939C4.94042 2.05167 4.49271 2.49939 3.94042 2.49939H2.66455V3.77526C2.66455 4.32755 2.21684 4.77527 1.66455 4.77527C1.11227 4.77527 0.664551 4.32755 0.664551 3.77526V1.49939ZM7.49217 1.49939C7.49217 0.947105 7.93988 0.49939 8.49217 0.49939H13.0439C13.5962 0.49939 14.0439 0.947105 14.0439 1.49939C14.0439 2.05167 13.5962 2.49939 13.0439 2.49939H8.49217C7.93988 2.49939 7.49217 2.05167 7.49217 1.49939ZM16.5957 1.49939C16.5957 0.947105 17.0434 0.49939 17.5957 0.49939H22.1474C22.6997 0.49939 23.1474 0.947105 23.1474 1.49939C23.1474 2.05167 22.6997 2.49939 22.1474 2.49939H17.5957C17.0434 2.49939 16.5957 2.05167 16.5957 1.49939ZM25.6992 1.49939C25.6992 0.947105 26.1469 0.49939 26.6992 0.49939H28.975C29.5273 0.49939 29.975 0.947105 29.975 1.49939V4.15348C29.975 4.70576 29.5273 5.15348 28.975 5.15348C28.4227 5.15348 27.975 4.70576 27.975 4.15348V2.49939H26.6992C26.1469 2.49939 25.6992 2.05167 25.6992 1.49939ZM1.66455 7.32701C2.21684 7.32701 2.66455 7.77472 2.66455 8.32701V12.8788C2.66455 13.431 2.21684 13.8788 1.66455 13.8788C1.11227 13.8788 0.664551 13.431 0.664551 12.8788V8.32701C0.664551 7.77472 1.11227 7.32701 1.66455 7.32701ZM28.975 8.46166C29.5273 8.46166 29.975 8.90937 29.975 9.46166V12.1157C29.975 12.668 29.5273 13.1157 28.975 13.1157C28.4227 13.1157 27.975 12.668 27.975 12.1157V9.46166C27.975 8.90937 28.4227 8.46166 28.975 8.46166ZM1.66455 16.4305C2.21684 16.4305 2.66455 16.8782 2.66455 17.4305V21.9822C2.66455 22.5345 2.21684 22.9822 1.66455 22.9822C1.11227 22.9822 0.664551 22.5345 0.664551 21.9822V17.4305C0.664551 16.8782 1.11227 16.4305 1.66455 16.4305ZM1.66455 25.534C2.21684 25.534 2.66455 25.9817 2.66455 26.534V27.8099H4.41383C4.96611 27.8099 5.41383 28.2576 5.41383 28.8099C5.41383 29.3621 4.96611 29.8099 4.41383 29.8099H1.66455C1.11227 29.8099 0.664551 29.3621 0.664551 28.8099V26.534C0.664551 25.9817 1.11227 25.534 1.66455 25.534ZM8.91238 28.8099C8.91238 28.2576 9.3601 27.8099 9.91238 27.8099H12.6617C13.2139 27.8099 13.6617 28.2576 13.6617 28.8099C13.6617 29.3621 13.2139 29.8099 12.6617 29.8099H9.91238C9.3601 29.8099 8.91238 29.3621 8.91238 28.8099ZM6.47358 7.30842C6.47358 6.75613 6.92129 6.30842 7.47358 6.30842H23.1663C23.7186 6.30842 24.1663 6.75613 24.1663 7.30842V16.3154C24.3184 16.379 24.4654 16.4556 24.6056 16.5447C24.8433 16.2012 25.1589 15.9036 25.5447 15.6809C26.9393 14.8758 28.7225 15.3536 29.5276 16.7481L31.0772 19.432L31.2517 19.7343C31.279 19.7816 31.3021 19.8303 31.3209 19.8798C32.3122 21.8168 32.5916 23.9298 32.0953 25.9057C31.5587 28.042 30.1347 29.9397 27.8893 31.2361C25.4824 32.6257 23.0534 32.8118 20.9097 32.0786C18.8714 31.3814 17.171 29.882 16.0036 27.9687C15.9882 27.9464 15.9736 27.9233 15.9598 27.8994L15.864 27.7335L15.5767 27.2358C14.9794 26.2013 15.0061 24.9779 15.54 24.0012H7.47358C6.92129 24.0012 6.47358 23.5535 6.47358 23.0012V7.30842ZM18.2451 24.1954L17.7841 24.4615C17.1629 24.8202 16.95 25.6146 17.3087 26.2358L17.5961 26.7335C18.567 28.4152 19.9695 29.6432 21.557 30.1862C23.1219 30.7215 24.9524 30.6223 26.8893 29.5041C28.7042 28.4562 29.7612 26.9884 30.1555 25.4185C30.5516 23.8416 30.2984 22.0832 29.3451 20.432L27.7956 17.7481C27.5427 17.3102 26.9827 17.1601 26.5447 17.413C26.1067 17.6658 25.9566 18.2259 26.2095 18.6639L26.7841 19.6591C26.9567 19.9581 26.9574 20.3091 26.8169 20.5978C26.7859 20.6614 26.7481 20.722 26.7037 20.7783C26.6273 20.8753 26.5315 20.9597 26.4181 21.0252C25.9398 21.3014 25.3282 21.1375 25.052 20.6592L23.8325 18.5469C23.5796 18.1089 23.0196 17.9589 22.5816 18.2117C22.1436 18.4646 21.9936 19.0247 22.2464 19.4626L23.466 21.5749C23.7421 22.0532 23.5782 22.6648 23.0999 22.9409C22.6217 23.2171 22.0101 23.0532 21.7339 22.5749L21.3939 21.9861L21.3836 21.9686L18.1555 16.3773C17.9026 15.9393 17.3426 15.7892 16.9046 16.0421C16.4666 16.295 16.3165 16.855 16.5694 17.293L20.9138 24.8177C21.1899 25.296 21.0261 25.9076 20.5478 26.1837C20.0695 26.4599 19.4579 26.296 19.1817 25.8177L18.2451 24.1954ZM22.1663 8.30842V16.2222C21.9666 16.2851 21.7705 16.3706 21.5816 16.4797C21.3045 16.6397 21.0636 16.8383 20.8618 17.0648L19.8875 15.3773C19.0824 13.9827 17.2992 13.5049 15.9046 14.3101C14.51 15.1152 14.0322 16.8984 14.8374 18.293L16.9783 22.0012H8.47358V8.30842H22.1663Z" fill="#111827"/>
</svg>
