<svg width="32" height="32" viewBox="0 0 32 32" fill="none" xmlns="http://www.w3.org/2000/svg">
<path d="M16 28C22.6274 28 28 22.6274 28 16C28 9.37258 22.6274 4 16 4C9.37258 4 4 9.37258 4 16C4 22.6274 9.37258 28 16 28Z" stroke="#1C1B1F" stroke-width="2" stroke-linecap="round" stroke-linejoin="round"/>
<path d="M8.87817 25.6589C10.6582 22.7101 13.17 20.2712 16.17 18.5789C19.17 16.8865 22.5564 15.9981 26.0008 15.9998C26.6754 15.9998 27.3417 16.0326 27.9996 16.0984" stroke="#1C1B1F" stroke-width="2" stroke-linecap="round" stroke-linejoin="round"/>
<path d="M23.5038 6.63635C21.63 8.93944 19.266 10.7955 16.5841 12.0693C13.9022 13.3432 10.9699 14.0026 8.00086 13.9998C6.73619 14.0004 5.47429 13.8816 4.23193 13.6452" stroke="#1C1B1F" stroke-width="2" stroke-linecap="round" stroke-linejoin="round"/>
<path d="M10.7412 5.21069C13.7486 6.97529 16.2421 9.49579 17.9742 12.522C19.7064 15.5482 20.6168 18.9748 20.6153 22.4616C20.6164 24.0954 20.4178 25.7231 20.0239 27.3087" stroke="#1C1B1F" stroke-width="2" stroke-linecap="round" stroke-linejoin="round"/>
</svg>
