<svg width="33" height="32" viewBox="0 0 33 32" fill="none" xmlns="http://www.w3.org/2000/svg">
<path fill-rule="evenodd" clip-rule="evenodd" d="M2.49976 16C2.49976 15.4845 2.52762 14.9754 2.58192 14.4744C3.88001 14.6661 5.17546 14.75 6.50027 14.7494C10.3974 14.7532 14.2462 13.8875 17.7665 12.2155C20.9862 10.6862 23.8272 8.54415 26.1707 5.87655C28.585 8.18353 30.1754 11.3455 30.4558 14.8763C27.5888 14.6589 24.6838 15.0951 22.1714 15.7647C21.6253 14.1272 20.9169 12.5412 20.0525 11.0311L20.0346 10.9998C19.3224 11.4278 18.5876 11.8231 17.8319 12.1846L17.8828 12.273C18.6558 13.6236 19.291 15.0413 19.7827 16.5047C18.2407 17.0511 16.9629 17.6427 16.098 18.1346C12.459 20.1874 9.43639 22.961 7.15479 26.4248C4.29737 23.8616 2.49976 20.1407 2.49976 16ZM6.50032 12.2494C5.33869 12.25 4.20808 12.183 3.07276 12.0227C4.11344 8.50397 6.49962 5.56289 9.63538 3.79535C12.3045 5.42224 14.6197 7.55637 16.4541 10.0695C13.335 11.5085 9.93931 12.2528 6.50213 12.2494L6.50032 12.2494ZM18.6867 8.89195C20.7519 7.65772 22.6063 6.11976 24.2096 4.31191C21.9986 2.85056 19.3487 1.99976 16.5 1.99976C15.0693 1.99976 13.6888 2.21434 12.3888 2.61309C14.8307 4.33288 16.9605 6.45671 18.6867 8.89195ZM9.14928 27.9175C11.2857 29.2381 13.8039 30.0002 16.5 30.0002C17.8569 30.0002 19.1687 29.8072 20.4095 29.4471C20.8157 27.6866 21.0203 25.8852 21.019 24.0777V24.0762C21.0198 22.2869 20.8184 20.511 20.4233 18.781C21.2123 18.4855 22.0174 18.2431 22.8192 18.0458C23.2831 20.014 23.5199 22.0374 23.5191 24.0765C23.52 25.4947 23.4063 26.9095 23.1796 28.3071C27.1819 26.1302 30.0041 22.058 30.4411 17.2954C27.3187 17.1524 21.5568 17.5898 17.3263 20.3121C14.0539 22.1581 11.2263 24.7875 9.14928 27.9175ZM16.5 -0.000244141C7.6633 -0.000244141 0.499756 7.1633 0.499756 16C0.499756 24.8367 7.6633 32.0002 16.5 32.0002C25.3367 32.0002 32.5002 24.8367 32.5002 16C32.5002 7.1633 25.3367 -0.000244141 16.5 -0.000244141Z" fill="#111827"/>
</svg>
