<svg width="33" height="32" viewBox="0 0 33 32" fill="none" xmlns="http://www.w3.org/2000/svg">
<path fill-rule="evenodd" clip-rule="evenodd" d="M16.4999 1.00085L17.0734 0.181623C16.7291 -0.0594015 16.2708 -0.0594015 15.9265 0.181623L16.4999 1.00085ZM6.47421 26.99C6.82693 27.4597 7.2142 27.9066 7.63438 28.3268C9.98567 30.6781 13.1747 31.999 16.4999 31.999C19.8251 31.999 23.0142 30.6781 25.3654 28.3268C27.0993 26.5929 28.2729 24.4035 28.7697 22.0398C28.7825 21.9941 28.7922 21.9471 28.7984 21.899C28.9565 21.102 29.0377 20.2858 29.0377 19.4613C29.0377 13.9092 25.9651 9.06382 23.0234 5.68089C21.5403 3.97538 20.0599 2.6062 18.9503 1.66311C18.3949 1.19097 17.9306 0.824068 17.6029 0.573651C17.439 0.448406 17.3092 0.352188 17.2191 0.286405C17.174 0.25351 17.1389 0.228215 17.1144 0.210695L17.0856 0.190265L17.0774 0.184462L17.0749 0.182671L17.074 0.182054C17.0737 0.181823 17.0734 0.181623 16.4999 1.00085C15.9265 0.181623 15.9262 0.181823 15.9258 0.182054L15.925 0.182671L15.9224 0.184462L15.9142 0.190265L15.8855 0.210695C15.8609 0.228215 15.8258 0.25351 15.7807 0.286405C15.6906 0.352188 15.5608 0.448406 15.3969 0.573651C15.0693 0.824068 14.6049 1.19097 14.0495 1.66311C12.94 2.6062 11.4595 3.97538 9.97643 5.68089C7.03475 9.06382 3.96216 13.9092 3.96216 19.4613C3.96216 20.285 4.04323 21.1005 4.20095 21.8969C4.20729 21.9464 4.21725 21.9949 4.23057 22.0419C4.60598 23.8266 5.36722 25.5118 6.46414 26.9766C6.46746 26.9811 6.47082 26.9856 6.47421 26.99ZM9.55182 27.3839C11.4679 29.0644 13.9357 29.999 16.4999 29.999C19.0641 29.999 21.5319 29.0644 23.448 27.3839H9.55182ZM25.2158 25.3839C25.7659 24.5745 26.1993 23.694 26.5051 22.7689H6.4947C6.80057 23.694 7.23398 24.5745 7.784 25.3839H25.2158ZM27.0377 19.4613C27.0377 19.9007 27.0102 20.3374 26.9563 20.7689H6.04356C5.98961 20.3374 5.96216 19.9007 5.96216 19.4613C5.96216 19.0216 5.98448 18.5856 6.0272 18.1538H26.9726C27.0153 18.5856 27.0377 19.0216 27.0377 19.4613ZM15.3448 3.18699C15.8096 2.79186 16.2049 2.47639 16.4999 2.24838C16.7949 2.47639 17.1902 2.79186 17.655 3.18699C18.7089 4.08273 20.1128 5.38165 21.5142 6.99325C23.6803 9.48427 25.7696 12.6407 26.6282 16.1538H6.37163C7.23027 12.6407 9.31953 9.48427 11.4856 6.99325C12.887 5.38165 14.291 4.08273 15.3448 3.18699Z" fill="#111827"/>
</svg>
