<svg width="33" height="33" viewBox="0 0 33 33" fill="none" xmlns="http://www.w3.org/2000/svg">
<path fill-rule="evenodd" clip-rule="evenodd" d="M16.5 1.50085L17.0735 0.681623C16.7291 0.440598 16.2708 0.440598 15.9265 0.681623L16.5 1.50085ZM15.3449 3.68699C15.8097 3.29186 16.205 2.97639 16.5 2.74838C16.795 2.97639 17.1903 3.29186 17.6551 3.68699C18.7089 4.58273 20.1129 5.88165 21.5143 7.49325C24.3415 10.7445 27.0377 15.1293 27.0377 19.9613C27.0377 22.7561 25.9275 25.4364 23.9513 27.4126C21.9751 29.3888 19.2948 30.499 16.5 30.499C13.7052 30.499 11.0249 29.3888 9.04867 27.4126C7.07246 25.4364 5.96223 22.7561 5.96223 19.9613C5.96223 15.1293 8.65852 10.7445 11.4857 7.49325C12.8871 5.88165 14.2911 4.58273 15.3449 3.68699ZM16.5 1.50085C15.9265 0.681623 15.9262 0.681823 15.9259 0.682054L15.925 0.682671L15.9225 0.684462L15.9143 0.690265L15.8855 0.710695C15.861 0.728215 15.8259 0.75351 15.7808 0.786405C15.6907 0.852188 15.5609 0.948406 15.397 1.07365C15.0693 1.32407 14.605 1.69097 14.0496 2.16311C12.9401 3.1062 11.4596 4.47538 9.97651 6.18089C7.03483 9.56382 3.96223 14.4092 3.96223 19.9613C3.96223 23.2865 5.28317 26.4755 7.63446 28.8268C9.98574 31.1781 13.1748 32.499 16.5 32.499C19.8252 32.499 23.0142 31.1781 25.3655 28.8268C27.7168 26.4755 29.0377 23.2865 29.0377 19.9613C29.0377 14.4092 25.9652 9.56382 23.0235 6.18089C21.5404 4.47538 20.0599 3.1062 18.9504 2.16311C18.395 1.69097 17.9306 1.32407 17.603 1.07365C17.4391 0.948406 17.3093 0.852188 17.2192 0.786405C17.1741 0.75351 17.139 0.728215 17.1145 0.710695L17.0857 0.690265L17.0775 0.684462L17.0749 0.682671L17.0741 0.682054C17.0737 0.681823 17.0735 0.681623 16.5 1.50085ZM24.3072 21.2992C24.4009 20.7549 24.0356 20.2377 23.4913 20.144C22.9471 20.0503 22.4299 20.4156 22.3362 20.9599C22.1287 22.1654 21.5521 23.2768 20.686 24.1406C19.8199 25.0045 18.7071 25.5782 17.5011 25.7827C16.9565 25.875 16.59 26.3912 16.6823 26.9357C16.7746 27.4803 17.2908 27.8468 17.8353 27.7545C19.4496 27.4809 20.9392 26.7129 22.0984 25.5566C23.2577 24.4004 24.0294 22.9128 24.3072 21.2992Z" fill="#111827"/>
</svg>
