<svg width="33" height="32" viewBox="0 0 33 32" fill="none" xmlns="http://www.w3.org/2000/svg">
<path fill-rule="evenodd" clip-rule="evenodd" d="M17.0805 0.186635C16.9168 0.0696746 16.7163 0.000854492 16.4998 0.000854492C16.279 0.000854492 16.0749 0.0724325 15.9094 0.193653L15.8855 0.210695C15.8609 0.228215 15.8258 0.25351 15.7807 0.286405C15.6906 0.352188 15.5608 0.448406 15.3969 0.573651C15.0693 0.824068 14.6049 1.19097 14.0495 1.66311C12.94 2.6062 11.4595 3.97538 9.97643 5.68089C7.03475 9.06382 3.96216 13.9092 3.96216 19.4613C3.96216 22.7865 5.2831 25.9755 7.63438 28.3268C9.98564 30.6781 13.1746 31.999 16.4998 31.999H16.4999C19.2155 31.999 21.8402 31.1181 23.992 29.5144C24.0121 29.5005 24.0317 29.4857 24.051 29.4702C24.5125 29.122 24.9519 28.7403 25.3654 28.3268C26.2055 27.4867 26.9141 26.5397 27.4779 25.5177C27.5028 25.4787 27.5247 25.4382 27.5437 25.3968C28.5156 23.5883 29.0377 21.5517 29.0377 19.4613C29.0377 13.9092 25.9651 9.06382 23.0234 5.68089C21.5403 3.97538 20.0599 2.6062 18.9503 1.66311C18.3949 1.19097 17.9306 0.824068 17.6029 0.573651C17.439 0.448406 17.3092 0.352188 17.2191 0.286405C17.174 0.25351 17.1389 0.228215 17.1144 0.210695L17.0856 0.190265L17.0805 0.186635ZM23.9512 26.9126C23.8018 27.062 23.6483 27.2065 23.4911 27.3459L17.4998 21.3547V17.2603L25.3778 25.1382C24.9709 25.7746 24.4937 26.3701 23.9512 26.9126ZM21.8542 28.5374L17.4998 24.1831V29.9515C19.0437 29.8044 20.5296 29.3188 21.8542 28.5374ZM15.4998 21.7682V21.7696V29.9515C13.072 29.7201 10.7877 28.6517 9.0486 26.9126C7.07238 24.9364 5.96216 22.2561 5.96216 19.4613C5.96216 14.6293 8.65844 10.2445 11.4856 6.99325C12.887 5.38165 14.291 4.08273 15.3448 3.18699C15.3974 3.14229 15.4491 3.09862 15.4998 3.05598V7.92275V7.92414V14.8453V14.8467V21.7682ZM26.3288 23.2608C26.7449 22.1845 26.9847 21.0387 27.0298 19.8677L17.4998 10.3377V14.4318L26.3288 23.2608ZM21.5142 6.99325C23.8074 9.63043 26.0145 13.0134 26.7664 16.7758L17.4998 7.50923V3.0558C17.5506 3.0985 17.6024 3.14223 17.655 3.18699C18.7089 4.08273 20.1128 5.38165 21.5142 6.99325Z" fill="#111827"/>
</svg>
