<svg width="32" height="33" viewBox="0 0 32 33" fill="none" xmlns="http://www.w3.org/2000/svg">
<path d="M22 19.2693C22 19.8814 21.7569 20.4683 21.3241 20.9011C20.8913 21.3339 20.3044 21.577 19.6923 21.577C19.0803 21.577 18.4933 21.3339 18.0606 20.9011C17.6278 20.4683 17.3846 19.8814 17.3846 19.2693C17.3846 16.5001 20.6154 16.5001 20.6154 13.7309C20.6154 12.5068 20.1292 11.3328 19.2636 10.4673C18.398 9.60174 17.2241 9.11548 16 9.11548C14.776 9.11548 13.602 9.60174 12.7365 10.4673C11.8709 11.3328 11.3846 12.5068 11.3846 13.7309" stroke="#1C1B1F" stroke-width="2" stroke-linecap="round" stroke-linejoin="round"/>
<path d="M19.9162 26.6543C19.2508 27.4607 18.3526 28.042 17.3445 28.3188C16.3363 28.5956 15.2673 28.5545 14.2834 28.2009C13.2996 27.8474 12.4488 27.1988 11.8474 26.3437C11.2459 25.4885 10.9232 24.4685 10.9231 23.4231C10.9231 18.6358 6.76929 20.1923 6.76929 13.7308C6.76929 11.2826 7.74181 8.93473 9.47292 7.20363C11.204 5.47252 13.5519 4.5 16.0001 4.5C18.4482 4.5 20.7961 5.47252 22.5272 7.20363C24.2583 8.93473 25.2308 11.2826 25.2308 13.7308" stroke="#1C1B1F" stroke-width="2" stroke-linecap="round" stroke-linejoin="round"/>
</svg>
