<svg width="33" height="33" viewBox="0 0 33 33" fill="none" xmlns="http://www.w3.org/2000/svg">
<path fill-rule="evenodd" clip-rule="evenodd" d="M9.17369 5.76536C11.1167 3.82231 13.7521 2.73071 16.5 2.73071C19.2479 2.73071 21.8832 3.82231 23.8263 5.76536C25.7693 7.70842 26.8609 10.3438 26.8609 13.0917C26.8609 13.6439 27.3086 14.0917 27.8609 14.0917C28.4132 14.0917 28.8609 13.6439 28.8609 13.0917C28.8609 9.81333 27.5586 6.66928 25.2405 4.35115C22.9224 2.03302 19.7783 0.730713 16.5 0.730713C13.2217 0.730713 10.0776 2.03302 7.75948 4.35115C5.44135 6.66928 4.13904 9.81333 4.13904 13.0917C4.13904 15.188 4.47634 16.7106 5.03108 17.9036C5.58686 19.0989 6.32853 19.8901 6.99558 20.5433C7.10201 20.6476 7.20434 20.7465 7.30277 20.8417L7.30309 20.842L7.3031 20.842C7.84344 21.3645 8.26603 21.7731 8.60269 22.3162C8.97105 22.9105 9.25146 23.7078 9.25146 25.0207C9.2515 26.5133 9.71233 27.9696 10.571 29.1905C11.4297 30.4114 12.6444 31.3375 14.0491 31.8422C15.4538 32.3469 16.9801 32.4057 18.4195 32.0105C19.8588 31.6152 21.1411 30.7853 22.0911 29.634C22.4426 29.208 22.3822 28.5777 21.9563 28.2262C21.5303 27.8747 20.9 27.9351 20.5485 28.3611C19.8606 29.1947 18.9321 29.7957 17.8899 30.0818C16.8477 30.368 15.7425 30.3255 14.7254 29.96C13.7082 29.5945 12.8287 28.924 12.2069 28.0399C11.5852 27.1559 11.2515 26.1014 11.2515 25.0207C11.2515 23.3875 10.8928 22.2147 10.3026 21.2625C9.82327 20.4892 9.19811 19.8881 8.65984 19.3706L8.65971 19.3705C8.56858 19.2829 8.47994 19.1977 8.39493 19.1144C7.78386 18.516 7.24743 17.9267 6.84463 17.0604C6.44078 16.1919 6.13904 14.9716 6.13904 13.0917C6.13904 10.3438 7.23063 7.70842 9.17369 5.76536ZM16.4999 6.4113C14.7282 6.4113 13.029 7.11514 11.7761 8.36797C10.5233 9.6208 9.81948 11.32 9.81948 13.0918C9.81948 13.6441 10.2672 14.0918 10.8195 14.0918C11.3718 14.0918 11.8195 13.6441 11.8195 13.0918C11.8195 11.8504 12.3126 10.6599 13.1904 9.78218C14.0681 8.90442 15.2586 8.4113 16.4999 8.4113C17.7413 8.4113 18.9318 8.90442 19.8095 9.78218C20.6873 10.6599 21.1804 11.8504 21.1804 13.0918C21.1804 14.2931 20.552 14.8746 19.5415 15.7408L19.4866 15.7878C18.5138 16.6209 17.2041 17.7424 17.2041 19.9083C17.2041 20.9268 17.6087 21.9036 18.3289 22.6238C19.0491 23.344 20.0258 23.7486 21.0443 23.7486C22.0628 23.7486 23.0396 23.344 23.7598 22.6238C24.48 21.9036 24.8846 20.9268 24.8846 19.9083C24.8846 19.3561 24.4368 18.9083 23.8846 18.9083C23.3323 18.9083 22.8846 19.3561 22.8846 19.9083C22.8846 20.3964 22.6907 20.8645 22.3456 21.2096C22.0005 21.5547 21.5324 21.7486 21.0443 21.7486C20.5563 21.7486 20.0882 21.5547 19.7431 21.2096C19.398 20.8645 19.2041 20.3964 19.2041 19.9083C19.2041 18.707 19.8325 18.1255 20.843 17.2593L20.8979 17.2123C21.8707 16.3793 23.1804 15.2577 23.1804 13.0918C23.1804 11.32 22.4766 9.6208 21.2238 8.36797C19.9709 7.11514 18.2717 6.4113 16.4999 6.4113Z" fill="#111827"/>
</svg>
