<svg width="32" height="33" viewBox="0 0 32 33" fill="none" xmlns="http://www.w3.org/2000/svg">
<path d="M6.76929 6.34619L25.2309 26.6539" stroke="#1C1B1F" stroke-width="2" stroke-linecap="round" stroke-linejoin="round"/>
<path d="M11.7803 11.8582C11.5186 12.4477 11.3838 13.0856 11.3846 13.7306" stroke="#1C1B1F" stroke-width="2" stroke-linecap="round" stroke-linejoin="round"/>
<path d="M11.2667 5.80432C12.668 4.96813 14.2659 4.51827 15.8976 4.50054C17.5293 4.48282 19.1366 4.89786 20.5557 5.7034C21.9749 6.50894 23.1551 7.67621 23.9764 9.08631C24.7976 10.4964 25.2305 12.099 25.2308 13.7308" stroke="#1C1B1F" stroke-width="2" stroke-linecap="round" stroke-linejoin="round"/>
<path d="M19.9162 26.6544C19.2508 27.4608 18.3527 28.0421 17.3445 28.3189C16.3364 28.5957 15.2673 28.5545 14.2835 28.201C13.2996 27.8475 12.4488 27.1989 11.8474 26.3437C11.246 25.4886 10.9232 24.4686 10.9232 23.4232C10.9232 18.6358 6.7693 20.1924 6.7693 13.7308C6.76619 11.7763 7.38637 9.87167 8.53974 8.2937" stroke="#1C1B1F" stroke-width="2" stroke-linecap="round" stroke-linejoin="round"/>
<path d="M20.0473 15.4626C20.4275 14.9665 20.6279 14.3559 20.6156 13.7309C20.615 12.9963 20.4393 12.2725 20.103 11.6195C19.7667 10.9665 19.2795 10.4031 18.6818 9.97607C18.0841 9.54907 17.3932 9.27077 16.6665 9.16428C15.9397 9.05778 15.198 9.12617 14.5029 9.36375" stroke="#1C1B1F" stroke-width="2" stroke-linecap="round" stroke-linejoin="round"/>
<path d="M20.4876 21.4362C20.1388 21.5639 19.7643 21.6055 19.396 21.5576C19.0276 21.5096 18.6763 21.3735 18.3717 21.1609C18.0672 20.9482 17.8185 20.6652 17.6466 20.3358C17.4748 20.0065 17.385 19.6406 17.3847 19.2692C17.3805 18.9126 17.4427 18.5584 17.5679 18.2246" stroke="#1C1B1F" stroke-width="2" stroke-linecap="round" stroke-linejoin="round"/>
</svg>
