<svg width="32" height="32" viewBox="0 0 32 32" fill="none" xmlns="http://www.w3.org/2000/svg">
<path d="M25.2308 18.7692C25.2308 21.2174 24.2583 23.5653 22.5272 25.2964C20.7961 27.0275 18.4482 28 16.0001 28C13.5519 28 11.204 27.0275 9.47292 25.2964C7.74181 23.5653 6.76929 21.2174 6.76929 18.7692C6.76929 11.3846 12.3077 4 16.0001 4C19.6924 4 25.2308 11.3846 25.2308 18.7692Z" stroke="#1C1B1F" stroke-width="2" stroke-linecap="round" stroke-linejoin="round"/>
<path d="M21.0895 7.5459L16.1046 12.9841C16.0554 13.0378 16.0782 13.1243 16.1474 13.1468L19.4801 14.2288C19.5274 14.2442 19.5562 14.292 19.5477 14.341L18.7759 18.7903" stroke="#1C1B1F" stroke-width="2" stroke-linecap="round"/>
</svg>
