<svg width="33" height="33" viewBox="0 0 33 33" fill="none" xmlns="http://www.w3.org/2000/svg">
<path fill-rule="evenodd" clip-rule="evenodd" d="M5.96216 19.9611C5.96216 15.5803 7.61196 11.155 9.83242 7.82431C10.9404 6.16237 12.1686 4.80638 13.3641 3.87653C14.5782 2.93222 15.6619 2.50073 16.4999 2.50073C17.3379 2.50073 18.4216 2.93222 19.6357 3.87653C20.299 4.39238 20.9723 5.03939 21.6295 5.79703L15.8673 12.0833C15.3262 12.6735 15.5769 13.6256 16.3385 13.8728L19.8194 15.003L18.9843 19.8168C18.8899 20.3609 19.2545 20.8786 19.7987 20.973C20.3428 21.0674 20.8605 20.7028 20.9549 20.1586L21.9233 14.5759C22.0169 14.0367 21.6997 13.5107 21.1792 13.3417L18.2875 12.4028L22.8756 7.39751C22.9737 7.53741 23.071 7.6797 23.1674 7.82431C25.3879 11.155 27.0377 15.5803 27.0377 19.9611C27.0377 22.7559 25.9274 25.4363 23.9512 27.4125C21.975 29.3887 19.2947 30.4989 16.4999 30.4989C13.7051 30.4989 11.0248 29.3887 9.0486 27.4125C7.07238 25.4363 5.96216 22.7559 5.96216 19.9611ZM16.4999 0.500732C15.0304 0.500732 13.5181 1.22302 12.1362 2.29782C10.7357 3.38708 9.36792 4.91552 8.16832 6.71491C5.77368 10.3069 3.96216 15.1117 3.96216 19.9611C3.96216 23.2864 5.2831 26.4754 7.63438 28.8267C9.98567 31.178 13.1747 32.4989 16.4999 32.4989C19.8251 32.4989 23.0142 31.178 25.3654 28.8267C27.7167 26.4754 29.0377 23.2864 29.0377 19.9611C29.0377 15.1117 27.2261 10.3069 24.8315 6.71491C23.6319 4.91552 22.2641 3.38708 20.8636 2.29782C19.4817 1.22302 17.9694 0.500732 16.4999 0.500732Z" fill="#111827"/>
</svg>
