<svg width="32" height="33" viewBox="0 0 32 33" fill="none" xmlns="http://www.w3.org/2000/svg">
<path d="M25.2308 19.2692C25.2308 21.7174 24.2583 24.0653 22.5272 25.7964C20.7961 27.5275 18.4482 28.5 16.0001 28.5C13.5519 28.5 11.204 27.5275 9.47292 25.7964C7.74181 24.0653 6.76929 21.7174 6.76929 19.2692C6.76929 11.8846 12.3077 4.5 16.0001 4.5C19.6924 4.5 25.2308 11.8846 25.2308 19.2692Z" stroke="#1C1B1F" stroke-width="2" stroke-linecap="round" stroke-linejoin="round"/>
<path d="M21.0895 8.0459L16.1046 13.4841C16.0554 13.5378 16.0782 13.6243 16.1474 13.6468L19.4801 14.7288C19.5274 14.7442 19.5562 14.792 19.5477 14.841L18.7759 19.2903" stroke="#1C1B1F" stroke-width="2" stroke-linecap="round"/>
</svg>
