<svg width="33" height="33" viewBox="0 0 33 33" fill="none" xmlns="http://www.w3.org/2000/svg">
<path fill-rule="evenodd" clip-rule="evenodd" d="M17.062 1.16945C16.8721 0.950336 16.5964 0.824463 16.3064 0.824463C16.0164 0.824463 15.7407 0.950336 15.5508 1.16945L0.745377 18.2487C0.488912 18.5446 0.428703 18.9629 0.591317 19.3191C0.753932 19.6752 1.10945 19.9037 1.50099 19.9037H31.1119C31.5034 19.9037 31.8589 19.6752 32.0215 19.3191C32.1841 18.9629 32.1239 18.5446 31.8675 18.2487L17.062 1.16945ZM16.3064 3.35114L28.9216 17.9037H3.69128L16.3064 3.35114ZM1.50099 23.3578C0.948707 23.3578 0.500992 23.8055 0.500992 24.3578V31.1755C0.500992 31.7278 0.948707 32.1755 1.50099 32.1755H31.4991C32.0514 32.1755 32.4991 31.7278 32.4991 31.1755V24.3578C32.4991 23.8055 32.0514 23.3578 31.4991 23.3578H1.50099ZM2.50099 30.1755V25.3578H30.4991V30.1755H2.50099Z" fill="#111827"/>
</svg>
