<svg width="33" height="33" viewBox="0 0 33 33" fill="none" xmlns="http://www.w3.org/2000/svg">
<path fill-rule="evenodd" clip-rule="evenodd" d="M17.2272 2.50426C17.0377 2.25993 16.746 2.11694 16.4368 2.11694C16.1277 2.11694 15.8359 2.25993 15.6465 2.50426L0.710535 21.7707C0.476706 22.0724 0.434947 22.4808 0.602896 22.8235C0.770846 23.1662 1.11921 23.3834 1.50086 23.3834H31.3728C31.7544 23.3834 32.1028 23.1662 32.2708 22.8235C32.4387 22.4808 32.397 22.0724 32.1631 21.7707L17.2272 2.50426ZM16.4368 4.7491L29.3323 21.3834H3.54139L16.4368 4.7491ZM1.50086 28.8829C0.948577 28.8829 0.500862 29.3306 0.500862 29.8829C0.500862 30.4352 0.948577 30.8829 1.50086 30.8829H31.499C32.0513 30.8829 32.499 30.4352 32.499 29.8829C32.499 29.3306 32.0513 28.8829 31.499 28.8829H1.50086Z" fill="#111827"/>
</svg>
