<svg width="33" height="33" viewBox="0 0 33 33" fill="none" xmlns="http://www.w3.org/2000/svg">
<path fill-rule="evenodd" clip-rule="evenodd" d="M1.50098 2.50073C0.948692 2.50073 0.500977 2.94845 0.500977 3.50073V28.4992C0.500977 29.0515 0.948692 29.4992 1.50098 29.4992H31.4991C32.0514 29.4992 32.4991 29.0515 32.4991 28.4992V3.50073C32.4991 2.94845 32.0514 2.50073 31.4991 2.50073H1.50098ZM2.50098 27.4992V4.50073H30.4991V27.4992H2.50098ZM19.7167 10.0809C19.9054 9.56182 19.6376 8.98806 19.1186 8.79932C18.5996 8.61058 18.0258 8.87833 17.8371 9.39737L13.2837 21.9191C13.095 22.4381 13.3627 23.0119 13.8818 23.2006C14.4008 23.3894 14.9746 23.1216 15.1633 22.6026L19.7167 10.0809ZM11.4598 13.2239C11.8503 12.8334 11.8503 12.2002 11.4598 11.8097C11.0692 11.4191 10.4361 11.4191 10.0455 11.8097L6.56211 15.2931C6.17159 15.6836 6.17159 16.3168 6.56211 16.7073L10.0455 20.1907C10.4361 20.5813 11.0692 20.5813 11.4598 20.1907C11.8503 19.8002 11.8503 19.167 11.4598 18.7765L8.68343 16.0002L11.4598 13.2239ZM21.5402 11.8097C21.9308 11.4191 22.5639 11.4191 22.9545 11.8097L26.4379 15.2931C26.8284 15.6836 26.8284 16.3168 26.4379 16.7073L22.9545 20.1907C22.5639 20.5813 21.9308 20.5813 21.5402 20.1907C21.1497 19.8002 21.1497 19.167 21.5402 18.7765L24.3166 16.0002L21.5402 13.2239C21.1497 12.8334 21.1497 12.2002 21.5402 11.8097Z" fill="#111827"/>
</svg>
