<svg width="33" height="32" viewBox="0 0 33 32" fill="none" xmlns="http://www.w3.org/2000/svg">
<path fill-rule="evenodd" clip-rule="evenodd" d="M1.50073 3.75068C0.948448 3.75068 0.500732 4.19839 0.500732 4.75068V27.2493C0.500732 27.8016 0.948448 28.2493 1.50073 28.2493H31.4989C32.0512 28.2493 32.4989 27.8016 32.4989 27.2493V4.77495C32.505 4.52551 32.4183 4.27347 32.2363 4.07501C32.1272 3.95596 31.9959 3.86937 31.8546 3.81577C31.7441 3.77371 31.6242 3.75068 31.4989 3.75068H1.50073ZM28.9285 5.75068H4.07177L16.5001 17.1433L18.5297 15.2828C18.5443 15.2687 18.5591 15.2551 18.5743 15.242L28.9285 5.75068ZM2.50073 7.0237V24.9761L12.2929 15.9999L2.50073 7.0237ZM4.07156 26.2493H28.9279L19.227 17.3569L17.1758 19.237C16.7935 19.5875 16.2067 19.5875 15.8244 19.237L13.7728 17.3564L4.07156 26.2493ZM30.4989 24.9763V7.02423L20.7068 16.0003L30.4989 24.9763Z" fill="#111827"/>
</svg>
