<svg width="33" height="32" viewBox="0 0 33 32" fill="none" xmlns="http://www.w3.org/2000/svg">
<path fill-rule="evenodd" clip-rule="evenodd" d="M0.722575 4.12255C0.739036 4.10219 0.756279 4.08248 0.77426 4.06348C0.868767 3.96351 0.979193 3.88727 1.09797 3.8351C1.21679 3.78275 1.34774 3.75286 1.48543 3.75079C1.49176 3.75069 1.4981 3.75066 1.50444 3.75068H31.4952C31.5015 3.75066 31.5079 3.75069 31.5142 3.75079C31.6519 3.75286 31.7828 3.78275 31.9017 3.8351C32.0202 3.88718 32.1305 3.96324 32.2249 4.06294C32.3947 4.24217 32.4989 4.48426 32.4989 4.75068V4.75398V27.2493C32.4989 27.8016 32.0512 28.2493 31.4989 28.2493H1.50073C0.948448 28.2493 0.500732 27.8016 0.500732 27.2493V4.75384V4.75068C0.500732 4.72959 0.501385 4.70865 0.502672 4.68788C0.515901 4.47438 0.596125 4.27901 0.722575 4.12255ZM2.50073 7.02391V26.2493H30.4989V7.02391L17.1755 19.237C16.7932 19.5875 16.2064 19.5875 15.8241 19.237L2.50073 7.02391ZM28.9281 5.75068H4.07153L16.4998 17.1433L28.9281 5.75068Z" fill="#111827"/>
</svg>
