<svg width="33" height="32" viewBox="0 0 33 32" fill="none" xmlns="http://www.w3.org/2000/svg">
<path fill-rule="evenodd" clip-rule="evenodd" d="M17.0194 1.41514C16.6831 1.19135 16.2453 1.19182 15.9095 1.41632L0.944904 11.4221C0.667357 11.6076 0.500732 11.9195 0.500732 12.2534V29.7523C0.500732 30.3046 0.948448 30.7523 1.50073 30.7523H31.4989C32.0512 30.7523 32.4989 30.3046 32.4989 29.7523V12.2534C32.4989 11.9187 32.3315 11.6063 32.053 11.4209L17.0194 1.41514ZM3.25161 12.2856L16.4666 3.44971L29.4907 12.118L18.7566 19.6116H13.7059L3.25161 12.2856ZM2.50073 14.2016V28.7523H30.4989V13.8533L19.6436 21.4315C19.4757 21.5487 19.2759 21.6116 19.0712 21.6116H13.3904C13.1851 21.6116 12.9847 21.5484 12.8166 21.4305L2.50073 14.2016Z" fill="#111827"/>
</svg>
