<svg width="33" height="32" viewBox="0 0 33 32" fill="none" xmlns="http://www.w3.org/2000/svg">
<path fill-rule="evenodd" clip-rule="evenodd" d="M17.0196 1.41527C16.6834 1.19147 16.2455 1.19194 15.9097 1.41644L0.96286 11.4103C0.877474 11.4648 0.799257 11.5331 0.731737 11.6145C0.704208 11.6477 0.678908 11.6825 0.655966 11.7188C0.549034 11.8875 0.498708 12.0774 0.501055 12.2652V29.7523C0.501055 30.3046 0.94877 30.7523 1.50106 30.7523H31.4991C32.0514 30.7523 32.4991 30.3046 32.4991 29.7523V12.2651C32.5014 12.0772 32.451 11.8871 32.3438 11.7183C32.3212 11.6825 32.2962 11.6481 32.2691 11.6154C32.2009 11.533 32.1219 11.464 32.0355 11.4092L17.0196 1.41527ZM29.7368 12.2818L16.4668 3.44983L3.26064 12.2799L14.0929 20.0029H18.9072L29.7368 12.2818ZM2.50105 14.1946V27.7408L12.0451 20.9992L2.50105 14.1946ZM4.53558 28.7523H28.4651L18.9099 22.0029H14.0907L4.53558 28.7523ZM30.4991 27.7404V14.1946L20.9552 20.999L30.4991 27.7404Z" fill="#111827"/>
</svg>
