<svg width="33" height="33" viewBox="0 0 33 33" fill="none" xmlns="http://www.w3.org/2000/svg">
<path fill-rule="evenodd" clip-rule="evenodd" d="M23.9776 6.06592C23.9776 5.51363 24.4254 5.06592 24.9776 5.06592H31.499C32.0513 5.06592 32.499 5.51363 32.499 6.06592C32.499 6.6182 32.0513 7.06592 31.499 7.06592H24.9776C24.4254 7.06592 23.9776 6.6182 23.9776 6.06592ZM1.50085 10.2828C0.94857 10.2828 0.500854 10.7306 0.500854 11.2828C0.500854 11.8351 0.94857 12.2828 1.50085 12.2828H8.0222C8.57448 12.2828 9.0222 11.8351 9.0222 11.2828C9.0222 10.7306 8.57448 10.2828 8.0222 10.2828H1.50085ZM1.50085 15.4998C0.94857 15.4998 0.500854 15.9475 0.500854 16.4998C0.500854 17.0521 0.94857 17.4998 1.50085 17.4998H8.0222C8.57448 17.4998 9.0222 17.0521 9.0222 16.4998C9.0222 15.9475 8.57448 15.4998 8.0222 15.4998H1.50085ZM0.500854 21.7172C0.500854 21.1649 0.94857 20.7172 1.50085 20.7172H8.0222C8.57448 20.7172 9.0222 21.1649 9.0222 21.7172C9.0222 22.2695 8.57448 22.7172 8.0222 22.7172H1.50085C0.94857 22.7172 0.500854 22.2695 0.500854 21.7172ZM1.50085 25.9341C0.94857 25.9341 0.500854 26.3818 0.500854 26.9341C0.500854 27.4864 0.94857 27.9341 1.50085 27.9341H8.0222C8.57448 27.9341 9.0222 27.4864 9.0222 26.9341C9.0222 26.3818 8.57448 25.9341 8.0222 25.9341H1.50085ZM12.2394 16.4998C12.2394 15.9475 12.6871 15.4998 13.2394 15.4998H19.7607C20.313 15.4998 20.7607 15.9475 20.7607 16.4998C20.7607 17.0521 20.313 17.4998 19.7607 17.4998H13.2394C12.6871 17.4998 12.2394 17.0521 12.2394 16.4998ZM13.2394 20.7172C12.6871 20.7172 12.2394 21.1649 12.2394 21.7172C12.2394 22.2695 12.6871 22.7172 13.2394 22.7172H19.7607C20.313 22.7172 20.7607 22.2695 20.7607 21.7172C20.7607 21.1649 20.313 20.7172 19.7607 20.7172H13.2394ZM12.2394 26.9341C12.2394 26.3818 12.6871 25.9341 13.2394 25.9341H19.7607C20.313 25.9341 20.7607 26.3818 20.7607 26.9341C20.7607 27.4864 20.313 27.9341 19.7607 27.9341H13.2394C12.6871 27.9341 12.2394 27.4864 12.2394 26.9341ZM24.9776 10.2828C24.4254 10.2828 23.9776 10.7306 23.9776 11.2828C23.9776 11.8351 24.4254 12.2828 24.9776 12.2828H31.499C32.0513 12.2828 32.499 11.8351 32.499 11.2828C32.499 10.7306 32.0513 10.2828 31.499 10.2828H24.9776ZM24.9776 15.4998C24.4254 15.4998 23.9776 15.9475 23.9776 16.4998C23.9776 17.0521 24.4254 17.4998 24.9776 17.4998H31.499C32.0513 17.4998 32.499 17.0521 32.499 16.4998C32.499 15.9475 32.0513 15.4998 31.499 15.4998H24.9776ZM23.9776 21.7172C23.9776 21.1649 24.4254 20.7172 24.9776 20.7172H31.499C32.0513 20.7172 32.499 21.1649 32.499 21.7172C32.499 22.2695 32.0513 22.7172 31.499 22.7172H24.9776C24.4254 22.7172 23.9776 22.2695 23.9776 21.7172ZM24.9776 25.9341C24.4254 25.9341 23.9776 26.3818 23.9776 26.9341C23.9776 27.4864 24.4254 27.9341 24.9776 27.9341H31.499C32.0513 27.9341 32.499 27.4864 32.499 26.9341C32.499 26.3818 32.0513 25.9341 31.499 25.9341H24.9776Z" fill="#111827"/>
</svg>
