<svg width="33" height="32" viewBox="0 0 33 32" fill="none" xmlns="http://www.w3.org/2000/svg">
<path fill-rule="evenodd" clip-rule="evenodd" d="M20.8545 2.26341C21.248 1.8759 21.886 1.8759 22.2796 2.26341L32.204 12.0362C32.5975 12.4237 32.5975 13.0519 32.204 13.4395L17.3898 28.0273H28.8081C29.3604 28.0273 29.8081 28.475 29.8081 29.0273C29.8081 29.5795 29.3604 30.0273 28.8081 30.0273H14.8247C14.774 30.0273 14.7242 30.0235 14.6756 30.0162H7.91355C7.6463 30.0162 7.39 29.9117 7.20103 29.7256L0.796116 23.4186C0.402597 23.0311 0.402597 22.4028 0.796116 22.0153L20.8545 2.26341ZM21.567 4.36833L12.9482 12.8554L21.3822 21.2893L30.0664 12.7378L21.567 4.36833ZM2.93371 22.7169L11.5231 14.2587L19.9571 22.6927L14.5352 28.0317H8.33095L2.93371 22.7169Z" fill="#111827"/>
</svg>
