<svg width="33" height="32" viewBox="0 0 33 32" fill="none" xmlns="http://www.w3.org/2000/svg">
<path fill-rule="evenodd" clip-rule="evenodd" d="M4.5 11.0022C5.05228 11.0022 5.5 10.5544 5.5 10.0022V5.50031H27.5V10.0022C27.5 10.5544 27.9477 11.0022 28.5 11.0022C29.0523 11.0022 29.5 10.5544 29.5 10.0022V4.50031C29.5 3.94802 29.0523 3.50031 28.5 3.50031H4.5C3.94772 3.50031 3.5 3.94802 3.5 4.50031V10.0022C3.5 10.5544 3.94772 11.0022 4.5 11.0022ZM15.5005 14.9158V27.4996C15.5005 28.0519 15.9482 28.4996 16.5005 28.4996C17.0528 28.4996 17.5005 28.0519 17.5005 27.4996V14.9163L21.0957 18.5114C21.4862 18.902 22.1194 18.902 22.5099 18.5114C22.9004 18.1209 22.9004 17.4878 22.5099 17.0972L17.2192 11.8065C17.0487 11.6304 16.8142 11.5167 16.5531 11.5032C16.4985 11.5003 16.4436 11.5019 16.3892 11.508C16.3388 11.5135 16.2896 11.5229 16.2417 11.5357C16.0774 11.5795 15.9221 11.6658 15.7932 11.7947L10.4906 17.0972C10.1001 17.4878 10.1001 18.1209 10.4906 18.5114C10.8812 18.902 11.5143 18.902 11.9049 18.5114L15.5005 14.9158Z" fill="#111827"/>
</svg>
