<svg width="33" height="32" viewBox="0 0 33 32" fill="none" xmlns="http://www.w3.org/2000/svg">
<path fill-rule="evenodd" clip-rule="evenodd" d="M16.6401 24.6422C12.6962 24.6973 8.50253 22.043 2.84653 15.8918C8.24285 9.92869 12.315 7.32156 16.2569 7.35742C20.2204 7.39348 24.4392 10.0973 30.1279 15.9171C24.6785 21.8208 20.5848 24.5872 16.6401 24.6422ZM32.2223 15.2056C26.216 8.93612 21.305 5.40327 16.2751 5.35751C11.2184 5.3115 6.45762 8.78547 0.750855 15.2347C0.413888 15.6155 0.416345 16.1886 0.756567 16.5665C6.71995 23.1904 11.6115 26.7126 16.668 26.642C21.7121 26.5716 26.4927 22.9272 32.242 16.568C32.5937 16.179 32.5851 15.5843 32.2223 15.2056ZM12.8123 15.9999C12.8123 13.9633 14.4633 12.3124 16.4999 12.3124C18.5365 12.3124 20.1875 13.9633 20.1875 15.9999C20.1875 18.0365 18.5365 19.6875 16.4999 19.6875C14.4633 19.6875 12.8123 18.0365 12.8123 15.9999ZM16.4999 10.3124C13.3588 10.3124 10.8123 12.8588 10.8123 15.9999C10.8123 19.1411 13.3588 21.6875 16.4999 21.6875C19.6411 21.6875 22.1875 19.1411 22.1875 15.9999C22.1875 12.8588 19.6411 10.3124 16.4999 10.3124Z" fill="#111827"/>
</svg>
