<svg width="33" height="32" viewBox="0 0 33 32" fill="none" xmlns="http://www.w3.org/2000/svg">
<path fill-rule="evenodd" clip-rule="evenodd" d="M2.29488 8.75564C1.9478 8.32603 1.31818 8.25913 0.88858 8.6062C0.458976 8.95327 0.39207 9.58289 0.739142 10.0125C1.54631 11.0116 2.55681 12.0941 3.78491 13.1239L0.634141 18.5812C0.357999 19.0595 0.521875 19.671 1.00017 19.9472C1.47846 20.2233 2.09005 20.0595 2.36619 19.5812L5.39017 14.3435C7.03396 15.47 8.98255 16.449 11.2587 17.0634L10.3105 22.4406C10.2146 22.9845 10.5778 23.5032 11.1217 23.5991C11.6656 23.695 12.1842 23.3318 12.2801 22.7879L13.2154 17.4837C14.2531 17.6512 15.3503 17.7432 16.5086 17.7432C17.662 17.7432 18.7546 17.652 19.7883 17.4858L20.7235 22.7896C20.8194 23.3335 21.3381 23.6966 21.882 23.6007C22.4259 23.5048 22.789 22.9862 22.6931 22.4423L21.7453 17.0669C24.0242 16.4536 25.9751 15.4747 27.6207 14.3478L30.628 19.5566C30.9041 20.0349 31.5157 20.1987 31.994 19.9226C32.4723 19.6465 32.6362 19.0349 32.36 18.5566L29.2264 13.1289C30.4572 12.0977 31.4696 11.0133 32.2781 10.0125C32.6252 9.58293 32.5583 8.95331 32.1287 8.60624C31.6991 8.25916 31.0694 8.32607 30.7224 8.75567C29.8499 9.83561 28.732 11.0071 27.3458 12.0766C27.3292 12.0886 27.3131 12.1011 27.2974 12.1139C24.6917 14.1109 21.1455 15.7432 16.5086 15.7432C11.8737 15.7432 8.32853 14.1123 5.72317 12.1164C5.70179 12.0985 5.67952 12.0813 5.65637 12.065C4.27712 10.9986 3.16418 9.83166 2.29488 8.75564Z" fill="#111827"/>
</svg>
