<svg width="32" height="32" viewBox="0 0 32 32" fill="none" xmlns="http://www.w3.org/2000/svg">
<path d="M23.1252 14.2263L23.7833 14.8844C23.9834 15.0845 24.1421 15.322 24.2504 15.5834C24.3587 15.8448 24.4144 16.125 24.4144 16.4079C24.4144 16.6909 24.3587 16.971 24.2504 17.2324C24.1421 17.4938 23.9834 17.7314 23.7833 17.9314L22.8367 18.878C22.6347 19.08 22.3607 19.1935 22.075 19.1935C21.7893 19.1935 21.5153 19.08 21.3132 18.878L13.1412 10.706C12.9392 10.504 12.8257 10.2299 12.8257 9.94423C12.8257 9.65852 12.9392 9.3845 13.1412 9.18248L14.0878 8.23589C14.2879 8.03582 14.5254 7.87712 14.7868 7.76884C15.0482 7.66056 15.3284 7.60483 15.6113 7.60483C15.8942 7.60483 16.1744 7.66056 16.4358 7.76884C16.6972 7.87712 16.9347 8.03582 17.1348 8.23589L17.7929 8.89401L21.508 5.17899C22.9607 3.72625 25.3277 3.63725 26.8197 5.04963C27.186 5.39591 27.4792 5.81211 27.6819 6.27364C27.8845 6.73517 27.9926 7.23265 27.9997 7.73667C28.0068 8.24069 27.9127 8.74101 27.7231 9.20805C27.5335 9.67509 27.2521 10.0994 26.8957 10.4558L23.1252 14.2263Z" stroke="#1C1B1F" stroke-width="2" stroke-linecap="round" stroke-linejoin="round"/>
<path d="M20.2742 17.839L12.7332 25.38C12.1985 25.9152 11.5323 26.3001 10.8015 26.496C10.0708 26.6919 9.30138 26.6919 8.57066 26.496L5.41931 27.8717C5.22086 27.9583 5.0009 27.9831 4.78813 27.9429C4.57536 27.9027 4.37966 27.7993 4.22654 27.6461V27.6461C4.11661 27.5362 4.04236 27.3957 4.01347 27.2429C3.98458 27.0902 4.0024 26.9322 4.0646 26.7898L5.52324 23.4486C5.32732 22.7178 5.32731 21.9484 5.52322 21.2177C5.71912 20.4869 6.10402 19.8207 6.63919 19.286L14.1802 11.745" stroke="#1C1B1F" stroke-width="2" stroke-linecap="round" stroke-linejoin="round"/>
</svg>
