<svg width="33" height="33" viewBox="0 0 33 33" fill="none" xmlns="http://www.w3.org/2000/svg">
<path fill-rule="evenodd" clip-rule="evenodd" d="M29.1264 3.5002C27.7152 2.15317 25.4175 2.20718 23.9916 3.63317L19.4156 8.20916C19.025 8.59969 18.3919 8.59969 18.0013 8.20916L17.1919 7.39967C16.8798 7.09337 16.4599 6.92172 16.0225 6.92172C15.5852 6.92172 15.1653 7.09337 14.8532 7.39967L13.6956 8.55734L13.6902 8.56275L13.6901 8.56273C13.6593 8.5931 13.6348 8.6293 13.6181 8.66922C13.6014 8.70914 13.5928 8.75199 13.5928 8.79527C13.5928 8.83855 13.6014 8.8814 13.6181 8.92132C13.6348 8.96125 13.6593 8.99744 13.6901 9.02781L13.6956 9.03319L13.6956 9.03321L14.9723 10.31L22.4663 17.804L23.7429 19.0805L23.7483 19.0859L23.7483 19.0859C23.7786 19.1168 23.8148 19.1413 23.8547 19.158C23.8947 19.1747 23.9375 19.1833 23.9808 19.1833C24.0241 19.1833 24.0669 19.1747 24.1068 19.158C24.1468 19.1413 24.183 19.1168 24.2133 19.0859L24.2187 19.0805L24.2187 19.0805L25.3741 17.9252L25.3764 17.9229C25.6827 17.6108 25.8544 17.1909 25.8544 16.7535C25.8544 16.3161 25.6827 15.8963 25.3764 15.5842L24.5669 14.7747C24.1764 14.3842 24.1764 13.751 24.5669 13.3605L29.2077 8.71967L29.2084 8.71902C29.5512 8.37464 29.8216 7.96515 30.0037 7.51466C30.1859 7.0639 30.276 6.58121 30.2688 6.09505C30.2615 5.6089 30.157 5.12912 29.9613 4.68401C29.7657 4.2389 29.4829 3.83746 29.1297 3.50336L29.1264 3.5002ZM12.2868 10.4528L12.851 11.017L4.27543 19.5926C3.48736 20.3721 2.92053 21.347 2.63298 22.4175C2.37683 23.3711 2.3505 24.3701 2.55381 25.3328L0.898985 29.1328C0.738355 29.4934 0.691252 29.8945 0.764029 30.2826C0.837233 30.6731 1.02822 31.0317 1.31131 31.3104L1.31449 31.3135C1.64619 31.6371 2.06697 31.8542 2.5229 31.9371C2.97845 32.02 3.44836 31.965 3.87247 31.7792L3.8735 31.7787L7.44364 30.2225C8.40634 30.4258 9.40524 30.3994 10.3588 30.1433C11.4293 29.8558 12.4042 29.289 13.1836 28.5009L13.1859 28.4986L19.4811 22.2034C19.5643 22.1426 19.6377 22.0691 19.6986 21.986L21.7592 19.9253L22.3233 20.4893L22.3263 20.4923C22.5421 20.7107 22.7991 20.8842 23.0823 21.0028C23.3669 21.1219 23.6723 21.1833 23.9808 21.1833C24.2893 21.1833 24.5947 21.1219 24.8793 21.0028C25.1625 20.8842 25.4195 20.7107 25.6353 20.4923L25.6383 20.4893L26.7935 19.3341L26.7935 19.3342L26.7987 19.3289C27.4752 18.6424 27.8544 17.7173 27.8544 16.7535C27.8544 15.7897 27.4752 14.8647 26.7987 14.1782L26.7987 14.1781L26.7935 14.1729L26.6882 14.0676L30.6234 10.1324L30.6249 10.1309C31.1564 9.59724 31.5756 8.96254 31.8579 8.26425C32.1402 7.56597 32.2798 6.81823 32.2686 6.06513C32.2573 5.31203 32.0953 4.56881 31.7923 3.87928C31.4896 3.19052 31.0522 2.56926 30.5058 2.05205C28.2694 -0.081156 24.7321 0.0642124 22.5773 2.21895L18.7085 6.08784L18.6032 5.98254L18.6032 5.98252L18.5979 5.97734C17.9114 5.3009 16.9863 4.92172 16.0225 4.92172C15.0588 4.92172 14.1337 5.3009 13.4472 5.97734L13.4472 5.97732L13.4419 5.98254L12.2837 7.14076C12.0654 7.3566 11.8919 7.61355 11.7733 7.89678C11.6541 8.18135 11.5928 8.48677 11.5928 8.79527C11.5928 9.10377 11.6541 9.40919 11.7733 9.69376C11.8919 9.97697 12.0653 10.2339 12.2837 10.4497L12.2868 10.4528ZM18.4601 20.3959L20.345 18.5111L14.2652 12.4313L6.30053 20.3959H18.4601ZM4.74934 22.3959C4.67595 22.5711 4.61412 22.7516 4.56452 22.9363C4.36871 23.6653 4.3703 24.4332 4.56914 25.1614C4.62919 25.3813 4.61231 25.6151 4.5213 25.8241L2.74246 29.9088C2.78301 29.9394 2.83031 29.9602 2.88067 29.9694C2.94464 29.981 3.01061 29.9733 3.07015 29.9472L3.07224 29.9463L6.95189 28.2551C7.16095 28.164 7.39489 28.1471 7.6149 28.2071C8.34305 28.406 9.111 28.4076 9.83997 28.2118C10.569 28.016 11.2327 27.6298 11.7633 27.0929L11.7675 27.0886L11.7675 27.0886L16.4601 22.3959H4.74934Z" fill="#111827"/>
</svg>
