<svg width="32" height="33" viewBox="0 0 32 33" fill="none" xmlns="http://www.w3.org/2000/svg">
<path d="M23.129 14.4767L23.7891 15.1368C24.1889 15.5426 24.413 16.0894 24.413 16.6591C24.413 17.2287 24.1889 17.7755 23.7891 18.1813L22.8461 19.1243C22.7458 19.2261 22.6263 19.3069 22.4945 19.3621C22.3626 19.4173 22.2211 19.4458 22.0782 19.4458C21.9353 19.4458 21.7938 19.4173 21.662 19.3621C21.5302 19.3069 21.4107 19.2261 21.3104 19.1243L13.1469 10.9608C13.0451 10.8605 12.9643 10.741 12.9091 10.6092C12.8539 10.4773 12.8254 10.3359 12.8254 10.193C12.8254 10.05 12.8539 9.90856 12.9091 9.77673C12.9643 9.64491 13.0451 9.52538 13.1469 9.4251L14.0899 8.48213C14.4957 8.08231 15.0425 7.85818 15.6121 7.85818C16.1818 7.85818 16.7286 8.08231 17.1344 8.48213L17.7944 9.14221L21.5125 5.42421C22.9673 3.96933 25.3382 3.88851 26.82 5.30297C27.1858 5.64895 27.4787 6.06467 27.6813 6.52562C27.8839 6.98657 27.9921 7.48342 27.9996 7.98686C28.0072 8.49031 27.9138 8.99018 27.7251 9.45698C27.5364 9.92378 27.2562 10.3481 26.9009 10.7049L23.129 14.4767Z" stroke="#1C1B1F" stroke-width="2" stroke-linecap="round" stroke-linejoin="round"/>
<path d="M20.2732 18.0871L12.7294 25.6309C12.1971 26.1696 11.531 26.5571 10.7996 26.7536C10.0681 26.9501 9.29753 26.9485 8.56688 26.749L5.41466 28.123C5.21807 28.2092 5.0002 28.2348 4.789 28.1964C4.57779 28.158 4.38286 28.0574 4.2292 27.9075V27.9075C4.11745 27.7975 4.04205 27.6559 4.01315 27.5017C3.98425 27.3476 4.00324 27.1883 4.06755 27.0453L5.52242 23.7045C5.32291 22.9738 5.3213 22.2033 5.51778 21.4718C5.71426 20.7403 6.10175 20.0743 6.64052 19.5419L14.1843 11.9982" stroke="#1C1B1F" stroke-width="2" stroke-linecap="round" stroke-linejoin="round"/>
<path d="M5.95361 20.431H17.9428" stroke="#1C1B1F" stroke-width="2" stroke-linecap="round" stroke-linejoin="round"/>
</svg>
