<svg width="33" height="33" viewBox="0 0 33 33" fill="none" xmlns="http://www.w3.org/2000/svg">
<path fill-rule="evenodd" clip-rule="evenodd" d="M29.3369 3.03878C27.885 1.66437 25.5443 1.72894 24.0919 3.18136L19.4483 7.825C19.2607 8.01254 19.0064 8.11789 18.7412 8.11789C18.4759 8.11789 18.2216 8.01254 18.0341 7.825L17.2114 7.00237C17.0542 6.84515 16.8675 6.72043 16.6621 6.63535C16.4567 6.55026 16.2365 6.50646 16.0142 6.50646C15.7919 6.50646 15.5717 6.55026 15.3663 6.63535C15.1608 6.72043 14.9742 6.84515 14.817 7.00237L13.6338 8.18557C13.5688 8.25056 13.5323 8.33871 13.5323 8.43062C13.5323 8.52254 13.5688 8.61069 13.6338 8.67568L23.8485 18.8904C23.9135 18.9554 24.0017 18.9919 24.0936 18.9919C24.1855 18.9919 24.2736 18.9554 24.3386 18.8904L25.5218 17.7072C25.679 17.55 25.8038 17.3634 25.8889 17.1579C25.9739 16.9525 26.0177 16.7323 26.0177 16.51C26.0177 16.2877 25.9739 16.0675 25.8889 15.8621C25.8038 15.6567 25.6791 15.47 25.5218 15.3128L24.6992 14.4902C24.5117 14.3026 24.4063 14.0483 24.4063 13.783C24.4063 13.5178 24.5117 13.2635 24.6992 13.0759L29.4122 8.36297C29.7632 8.01198 30.0402 7.59417 30.2269 7.13425C30.4137 6.67433 30.5063 6.18164 30.4993 5.68531C30.4923 5.18897 30.3859 4.69908 30.1863 4.24459C29.9868 3.7901 29.6981 3.38024 29.3374 3.03924L29.3369 3.03878ZM30.7113 1.58586C28.4332 -0.570086 24.8569 -0.412042 22.6777 1.76714L18.7412 5.70368L18.6256 5.58816C18.2827 5.24522 17.8756 4.97318 17.4275 4.78759C16.9794 4.60199 16.4992 4.50646 16.0142 4.50646C15.5292 4.50646 15.049 4.60199 14.6009 4.78759C14.1528 4.97318 13.7457 5.24522 13.4028 5.58816L12.2196 6.77135C11.7795 7.21142 11.5323 7.80828 11.5323 8.43062C11.5323 9.05297 11.7795 9.64983 12.2196 10.0899L12.8112 10.6815L4.09258 19.4001C3.29938 20.1926 2.72891 21.18 2.43856 22.2631C2.17962 23.2289 2.15162 24.2404 2.35456 25.2162L0.664769 29.0868C0.506596 29.4492 0.461283 29.8507 0.534737 30.2392C0.608192 30.6276 0.797006 30.9849 1.07655 31.2645C1.41006 31.598 1.83635 31.8233 2.29981 31.9109C2.76328 31.9986 3.24239 31.9445 3.67466 31.7558L3.27457 30.8393L3.67467 31.7558L7.30804 30.1696C8.28377 30.3725 9.29526 30.3445 10.2611 30.0856C11.344 29.7953 12.3313 29.2249 13.1238 28.4319L13.1241 28.4316L19.2124 22.3433C19.5063 22.2436 19.7389 22.0111 19.8385 21.7172L21.8427 19.713L22.4343 20.3046C22.8744 20.7447 23.4712 20.9919 24.0936 20.9919C24.7159 20.9919 25.3128 20.7447 25.7528 20.3046L26.936 19.1214C27.279 18.7785 27.551 18.3714 27.7366 17.9233C27.9222 17.4752 28.0177 16.995 28.0177 16.51C28.0177 16.025 27.9222 15.5448 27.7366 15.0967C27.551 14.6486 27.279 14.2415 26.936 13.8986L26.8205 13.783L30.8264 9.77718L30.1193 9.07008L30.8264 9.77718C31.3664 9.23712 31.7927 8.59426 32.08 7.88661C32.3673 7.17896 32.5098 6.42088 32.4991 5.65721C32.4884 4.89353 32.3246 4.13976 32.0176 3.44046C31.7105 2.74116 31.2663 2.11053 30.7113 1.58586ZM20.4285 18.2988L14.2254 12.0957L5.9251 20.396H18.3313L20.4285 18.2988ZM16.3313 22.396H4.49283C4.44622 22.522 4.40532 22.6505 4.37034 22.781C4.17095 23.5247 4.17096 24.3078 4.37037 25.0516C4.42908 25.2705 4.41165 25.5029 4.32096 25.7106L2.50708 29.8656C2.5536 29.9064 2.61033 29.9342 2.67143 29.9457C2.73988 29.9587 2.81064 29.9507 2.87448 29.9228L6.81356 28.2032C7.0213 28.1125 7.25368 28.0951 7.47262 28.1538C8.21635 28.3532 8.99948 28.3532 9.74321 28.1538C10.4869 27.9544 11.165 27.5627 11.7093 27.018L11.7096 27.0177L16.3313 22.396Z" fill="#111827"/>
</svg>
