<svg width="33" height="32" viewBox="0 0 33 32" fill="none" xmlns="http://www.w3.org/2000/svg">
<path fill-rule="evenodd" clip-rule="evenodd" d="M24.0919 3.18127C25.5443 1.72885 27.8849 1.66428 29.3368 3.03869L29.3373 3.03915C29.698 3.38015 29.9867 3.79001 30.1863 4.2445C30.3859 4.69899 30.4923 5.18888 30.4993 5.68522C30.5062 6.18155 30.4136 6.67424 30.2269 7.13416C30.0402 7.59408 29.7631 8.01189 29.4121 8.36288L24.6991 13.0758C24.5116 13.2634 24.4062 13.5177 24.4062 13.783C24.4062 14.0482 24.5116 14.3025 24.6991 14.4901L25.5218 15.3127C25.679 15.4699 25.8037 15.6566 25.8888 15.862C25.9739 16.0674 26.0177 16.2876 26.0177 16.5099C26.0177 16.7323 25.9739 16.9524 25.8888 17.1578C25.8037 17.3633 25.679 17.5499 25.5218 17.7071L24.3386 18.8903C24.2736 18.9553 24.1854 18.9918 24.0935 18.9918C24.0016 18.9918 23.9135 18.9553 23.8485 18.8903L13.6337 8.67559C13.5687 8.6106 13.5322 8.52245 13.5322 8.43053C13.5322 8.33862 13.5687 8.25047 13.6337 8.18548L14.8169 7.00228C14.9741 6.84506 15.1608 6.72034 15.3662 6.63525C15.5716 6.55017 15.7918 6.50637 16.0141 6.50637C16.2365 6.50637 16.4567 6.55017 16.6621 6.63525C16.8675 6.72034 17.0541 6.84506 17.2114 7.00228L18.034 7.82491C18.2215 8.01245 18.4759 8.1178 18.7411 8.1178C19.0063 8.1178 19.2607 8.01245 19.4482 7.82491L24.0919 3.18127ZM22.6776 1.76705C24.8568 -0.412133 28.4332 -0.570176 30.7112 1.58577C31.2663 2.11044 31.7104 2.74107 32.0175 3.44037C32.3246 4.13967 32.4883 4.89344 32.4991 5.65712C32.5098 6.42079 32.3673 7.17887 32.08 7.88652C31.7927 8.59417 31.3664 9.23703 30.8263 9.77709L30.1192 9.06998L30.8263 9.77709L26.8205 13.783L26.936 13.8985C27.2789 14.2414 27.551 14.6485 27.7366 15.0966C27.9222 15.5447 28.0177 16.0249 28.0177 16.5099C28.0177 16.9949 27.9222 17.4751 27.7366 17.9232C27.551 18.3713 27.2789 18.7784 26.936 19.1213L25.7528 20.3045C25.3127 20.7446 24.7159 20.9918 24.0935 20.9918C23.4712 20.9918 22.8743 20.7446 22.4342 20.3045L21.8426 19.7129L13.124 28.4315L13.1237 28.4318C12.3313 29.2248 11.3439 29.7952 10.2611 30.0855C9.2952 30.3444 8.28372 30.3725 7.30799 30.1695L3.67461 31.7557L3.27452 30.8392L3.67461 31.7557C3.24233 31.9444 2.76322 31.9985 2.29976 31.9108C1.8363 31.8232 1.41001 31.5979 1.0765 31.2644C0.796951 30.9848 0.608137 30.6275 0.534682 30.2391C0.461228 29.8506 0.506541 29.4491 0.664714 29.0867L2.3545 25.2161C2.15157 24.2403 2.17957 23.2288 2.43851 22.263C2.72886 21.1799 3.29933 20.1925 4.09252 19.4L12.8111 10.6814L12.2195 10.0898C11.7794 9.64974 11.5322 9.05288 11.5322 8.43053C11.5322 7.80819 11.7794 7.21133 12.2195 6.77126L13.4027 5.58806C13.7456 5.24513 14.1528 4.97309 14.6008 4.7875C15.0489 4.6019 15.5292 4.50637 16.0141 4.50637C16.4991 4.50637 16.9794 4.6019 17.4274 4.7875C17.8755 4.97309 18.2826 5.24512 18.6256 5.58806L18.7411 5.70359L22.6776 1.76705ZM14.2253 12.0956L5.50644 20.8145L5.50614 20.8148C4.96143 21.359 4.56968 22.0371 4.37029 22.7809C4.1709 23.5246 4.17091 24.3077 4.37032 25.0515C4.42902 25.2704 4.4116 25.5028 4.32091 25.7106L2.50703 29.8655C2.55355 29.9063 2.61028 29.9341 2.67138 29.9457C2.73982 29.9586 2.81058 29.9506 2.87443 29.9227L6.81351 28.2031C7.02124 28.1124 7.25363 28.095 7.47256 28.1537C8.21629 28.3531 8.99942 28.3531 9.74316 28.1537C10.4869 27.9543 11.165 27.5626 11.7092 27.0179L11.7095 27.0176L20.4284 18.2987L14.2253 12.0956Z" fill="#111827"/>
</svg>
