<svg width="33" height="32" viewBox="0 0 33 32" fill="none" xmlns="http://www.w3.org/2000/svg">
<path fill-rule="evenodd" clip-rule="evenodd" d="M24.0919 3.18136C25.5443 1.72894 27.885 1.66437 29.3369 3.03878L29.3374 3.03924C29.6981 3.38024 29.9868 3.7901 30.1863 4.24459C30.3859 4.69908 30.4923 5.18898 30.4993 5.68531C30.5063 6.18164 30.4137 6.67433 30.2269 7.13425C30.0402 7.59417 29.7632 8.01198 29.4122 8.36297L24.6992 13.0759C24.5117 13.2635 24.4063 13.5178 24.4063 13.783C24.4063 14.0483 24.5117 14.3026 24.6992 14.4902L25.5218 15.3128C25.6791 15.47 25.8038 15.6567 25.8889 15.8621C25.9739 16.0675 26.0177 16.2877 26.0177 16.51C26.0177 16.7323 25.9739 16.9525 25.8889 17.1579C25.8038 17.3634 25.6791 17.55 25.5218 17.7072L24.3386 18.8904C24.2736 18.9554 24.1855 18.9919 24.0936 18.9919C24.0017 18.9919 23.9135 18.9554 23.8485 18.8904L13.6338 8.67568C13.5688 8.61069 13.5323 8.52254 13.5323 8.43062C13.5323 8.33871 13.5688 8.25056 13.6338 8.18557L14.817 7.00237C14.9742 6.84515 15.1608 6.72043 15.3663 6.63535C15.5717 6.55026 15.7919 6.50646 16.0142 6.50646C16.2365 6.50646 16.4567 6.55026 16.6621 6.63535C16.8676 6.72043 17.0542 6.84515 17.2114 7.00237L18.0341 7.825C18.2216 8.01254 18.4759 8.11789 18.7412 8.11789C19.0064 8.11789 19.2607 8.01254 19.4483 7.825L24.0919 3.18136ZM22.6777 1.76714C24.8569 -0.412042 28.4332 -0.570086 30.7113 1.58586C31.2663 2.11053 31.7105 2.74116 32.0176 3.44046C32.3246 4.13976 32.4884 4.89353 32.4991 5.65721C32.5098 6.42088 32.3673 7.17896 32.08 7.88661C31.7927 8.59426 31.3664 9.23712 30.8264 9.77718L30.1799 9.13068L30.8264 9.77718L26.8205 13.783L26.936 13.8986C27.279 14.2415 27.551 14.6486 27.7366 15.0967C27.9222 15.5448 28.0177 16.025 28.0177 16.51C28.0177 16.995 27.9222 17.4752 27.7366 17.9233C27.551 18.3714 27.279 18.7785 26.936 19.1214L25.7528 20.3046C25.3128 20.7447 24.7159 20.9919 24.0936 20.9919C23.4712 20.9919 22.8744 20.7447 22.4343 20.3046L21.8427 19.713L13.1241 28.4316L13.1238 28.4319C12.3313 29.2249 11.344 29.7953 10.2611 30.0856C9.29526 30.3445 8.28377 30.3725 7.30804 30.1696L3.67467 31.7558C3.24239 31.9445 2.76328 31.9986 2.29981 31.9109C1.83741 31.8235 1.41201 31.599 1.07884 31.2668L1.07655 31.2645C0.797006 30.9849 0.608192 30.6276 0.534737 30.2392C0.461283 29.8507 0.506596 29.4492 0.664769 29.0868L1.58124 29.4869L0.664769 29.0868L2.35456 25.2162C2.15162 24.2404 2.17962 23.2289 2.43856 22.2631C2.72887 21.1802 3.29924 20.1928 4.09228 19.4004L4.09258 19.4001L12.8112 10.6815L12.2196 10.0899C11.7795 9.64983 11.5323 9.05297 11.5323 8.43062C11.5323 7.80828 11.7795 7.21142 12.2196 6.77135L13.4028 5.58816C13.7457 5.24522 14.1528 4.97318 14.6009 4.78759C15.049 4.60199 15.5292 4.50646 16.0142 4.50646C16.4992 4.50646 16.9794 4.60199 17.4275 4.78759C17.8756 4.97318 18.2827 5.24521 18.6256 5.58816L18.7412 5.70368L22.6777 1.76714ZM14.2254 12.0957L5.50649 20.8146L5.50619 20.8149C4.96149 21.3591 4.56973 22.0372 4.37034 22.781C4.17095 23.5247 4.17096 24.3078 4.37037 25.0516C4.42908 25.2705 4.41165 25.5029 4.32096 25.7106L2.50708 29.8656C2.5536 29.9064 2.61033 29.9342 2.67143 29.9457C2.73988 29.9587 2.81064 29.9507 2.87448 29.9228L6.81356 28.2032C7.0213 28.1125 7.25368 28.0951 7.47262 28.1538C8.21635 28.3532 8.99948 28.3532 9.74321 28.1538C10.4869 27.9544 11.165 27.5627 11.7093 27.018L11.7096 27.0177L20.4285 18.2988L14.2254 12.0957Z" fill="#111827"/>
</svg>
