<svg width="32" height="33" viewBox="0 0 32 33" fill="none" xmlns="http://www.w3.org/2000/svg">
<path d="M8.5 25.9885C10.9853 25.9885 13 23.9738 13 21.4885C13 19.0032 10.9853 16.9885 8.5 16.9885C6.01472 16.9885 4 19.0032 4 21.4885C4 23.9738 6.01472 25.9885 8.5 25.9885Z" stroke="#1C1B1F" stroke-width="2" stroke-linecap="round" stroke-linejoin="round"/>
<path d="M23.5 25.9885C25.9853 25.9885 28 23.9738 28 21.4885C28 19.0032 25.9853 16.9885 23.5 16.9885C21.0147 16.9885 19 19.0032 19 21.4885C19 23.9738 21.0147 25.9885 23.5 25.9885Z" stroke="#1C1B1F" stroke-width="2" stroke-linecap="round" stroke-linejoin="round"/>
<path d="M13 20.9885H19" stroke="#1C1B1F" stroke-width="2" stroke-linecap="round" stroke-linejoin="round"/>
<path d="M9.11743 7.01172H9C6.23858 7.01172 4 9.2503 4 12.0117V21.687" stroke="#1C1B1F" stroke-width="2" stroke-linecap="round"/>
<path d="M22.8826 7.01172H23C25.7614 7.01172 28 9.2503 28 12.0117V21.687" stroke="#1C1B1F" stroke-width="2" stroke-linecap="round"/>
</svg>
