<svg width="32" height="32" viewBox="0 0 32 32" fill="none" xmlns="http://www.w3.org/2000/svg">
<path d="M8.5 25.4885C10.9853 25.4885 13 23.4738 13 20.9885C13 18.5032 10.9853 16.4885 8.5 16.4885C6.01472 16.4885 4 18.5032 4 20.9885C4 23.4738 6.01472 25.4885 8.5 25.4885Z" stroke="#1C1B1F" stroke-width="2" stroke-linecap="round" stroke-linejoin="round"/>
<path d="M23.5 25.4885C25.9853 25.4885 28 23.4738 28 20.9885C28 18.5032 25.9853 16.4885 23.5 16.4885C21.0147 16.4885 19 18.5032 19 20.9885C19 23.4738 21.0147 25.4885 23.5 25.4885Z" stroke="#1C1B1F" stroke-width="2" stroke-linecap="round" stroke-linejoin="round"/>
<path d="M13 20.4885H19" stroke="#1C1B1F" stroke-width="2" stroke-linecap="round" stroke-linejoin="round"/>
<path d="M9.11743 6.51172H9C6.23858 6.51172 4 8.7503 4 11.5117V21.187" stroke="#1C1B1F" stroke-width="2" stroke-linecap="round"/>
<path d="M22.8826 6.51172H23C25.7614 6.51172 28 8.7503 28 11.5117V21.187" stroke="#1C1B1F" stroke-width="2" stroke-linecap="round"/>
</svg>
