<svg width="32" height="32" viewBox="0 0 32 32" fill="none" xmlns="http://www.w3.org/2000/svg">
<path d="M18.4182 18.8663C17.7653 19.4177 16.9215 19.7501 16 19.7501C13.9289 19.7501 12.25 18.0711 12.25 16.0001C12.25 15.1633 12.5241 14.3905 12.9874 13.7666M16.5045 12.2837C18.1539 12.5055 19.4635 13.7996 19.7087 15.4415" stroke="#1C1B1F" stroke-width="2" stroke-linecap="round" stroke-linejoin="round"/>
<path d="M15.8292 8.28613C19.481 8.3269 23.1966 10.9039 28 15.9178C27.0498 16.9688 26.1419 17.9157 25.2671 18.7572M9.9412 10.3615C8.10476 11.6273 6.16082 13.4758 4 15.9178C11.0539 23.753 15.76 25.5726 21.4569 21.8715" stroke="#1C1B1F" stroke-width="2" stroke-linecap="round" stroke-linejoin="round"/>
<path d="M6.67578 6.6759L25.324 25.3241" stroke="#1C1B1F" stroke-width="2" stroke-linecap="round" stroke-linejoin="round"/>
</svg>
