<svg width="33" height="32" viewBox="0 0 33 32" fill="none" xmlns="http://www.w3.org/2000/svg">
<path fill-rule="evenodd" clip-rule="evenodd" d="M5.55245 3.63847C5.16193 3.24795 4.52876 3.24795 4.13824 3.63847C3.74771 4.029 3.74771 4.66216 4.13824 5.05269L7.69172 8.60617C5.50494 10.2237 3.22495 12.44 0.752076 15.2346C0.415108 15.6154 0.417566 16.1885 0.757788 16.5664C5.18613 21.4852 9.00226 24.6666 12.7159 25.9691C16.4092 27.2644 19.8728 26.6623 23.4971 24.4116L27.4471 28.3615C27.8376 28.752 28.4707 28.752 28.8613 28.3615C29.2518 27.971 29.2518 27.3378 28.8613 26.9473L5.55245 3.63847ZM22.0406 22.955L19.7519 20.6663C18.8304 21.3095 17.7084 21.6873 16.5001 21.6873C13.3591 21.6873 10.8128 19.141 10.8128 16C10.8128 14.7922 11.1904 13.6699 11.8337 12.7482L9.12303 10.0375C7.19452 11.4261 5.13335 13.3657 2.84773 15.8917C6.95886 20.363 10.3146 23.0074 13.3779 24.0818C16.2566 25.0915 18.9819 24.7478 22.0406 22.955ZM13.2827 14.1971C12.9834 14.7298 12.8128 15.3441 12.8128 16C12.8128 18.0364 14.4637 19.6873 16.5001 19.6873C17.1557 19.6873 17.7701 19.5168 18.303 19.2174L13.2827 14.1971ZM15.2866 6.34712C15.2927 5.79487 15.7454 5.35218 16.2977 5.35835C21.3193 5.41441 26.2242 8.94566 32.2212 15.2055C32.5841 15.5842 32.5927 16.1789 32.2409 16.5679C31.0416 17.8945 29.8904 19.0955 28.7764 20.167C28.3784 20.5499 27.7454 20.5376 27.3625 20.1396C26.9796 19.7415 26.9919 19.1085 27.3899 18.7256C28.2695 17.8796 29.1796 16.9435 30.1268 15.9171C24.4475 10.1068 20.2332 7.40241 16.2753 7.35822C15.7231 7.35206 15.2804 6.89937 15.2866 6.34712ZM16.1395 11.2216C16.2131 10.6743 16.7165 10.2902 17.2638 10.3638C19.7673 10.7004 21.7525 12.6623 22.1247 15.1542C22.2062 15.7004 21.8295 16.2093 21.2833 16.2909C20.7371 16.3725 20.2282 15.9958 20.1466 15.4496C19.9058 13.8369 18.6172 12.5638 16.9973 12.346C16.45 12.2724 16.0659 11.769 16.1395 11.2216Z" fill="#111827"/>
</svg>
