<svg width="33" height="32" viewBox="0 0 33 32" fill="none" xmlns="http://www.w3.org/2000/svg">
<path fill-rule="evenodd" clip-rule="evenodd" d="M16.4998 2.00085C8.76834 2.00085 2.50073 8.26846 2.50073 15.9999C2.50073 23.3952 8.23504 29.4511 15.4998 29.9639V19.4998H11.5001C10.9478 19.4998 10.5001 19.0521 10.5001 18.4998C10.5001 17.9475 10.9478 17.4998 11.5001 17.4998H15.4998V13.5001C15.4998 12.2404 16.0002 11.0322 16.891 10.1415C17.7817 9.25073 18.9899 8.75031 20.2496 8.75031H22.7494C23.3017 8.75031 23.7494 9.19803 23.7494 9.75031C23.7494 10.3026 23.3017 10.7503 22.7494 10.7503H20.2496C19.5203 10.7503 18.8209 11.04 18.3052 11.5557C17.7895 12.0714 17.4998 12.7708 17.4998 13.5001V17.4998H21.4995C22.0518 17.4998 22.4995 17.9475 22.4995 18.4998C22.4995 19.0521 22.0518 19.4998 21.4995 19.4998H17.4998V29.9639C24.7646 29.4511 30.4989 23.3952 30.4989 15.9999C30.4989 8.26846 24.2313 2.00085 16.4998 2.00085ZM0.500732 15.9999C0.500732 7.16389 7.66377 0.000854492 16.4998 0.000854492C25.3359 0.000854492 32.4989 7.16389 32.4989 15.9999C32.4989 24.836 25.3359 31.999 16.4998 31.999C7.66377 31.999 0.500732 24.836 0.500732 15.9999Z" fill="#111827"/>
</svg>
