<svg width="32" height="32" viewBox="0 0 32 32" fill="none" xmlns="http://www.w3.org/2000/svg">
<path d="M12.1725 14.7548H19.8274" stroke="#1C1B1F" stroke-width="2" stroke-linecap="round" stroke-linejoin="round"/>
<path d="M12.1725 17.8167H19.8274" stroke="#1C1B1F" stroke-width="2" stroke-linecap="round" stroke-linejoin="round"/>
<path d="M7.82751 11.6928L16.0362 7.9989L24.1726 11.6928V17.8739C24.1726 20.0946 22.708 22.0491 20.5766 22.6727L16.0362 24.0011L11.4349 22.6667C9.29788 22.047 7.82751 20.0897 7.82751 17.8646V11.6928Z" stroke="#1C1B1F" stroke-width="2" stroke-linejoin="round"/>
<path d="M7.82751 11.6928H7.44475C5.54229 11.6928 4.00004 13.235 4.00004 15.1375V15.1375C4.00004 17.04 5.54229 18.5822 7.44475 18.5822H7.82751V11.6928Z" stroke="#1C1B1F" stroke-width="2" stroke-linejoin="round"/>
<path d="M24.1725 11.6928H24.5552C26.4577 11.6928 28 13.235 28 15.1375V15.1375C28 17.04 26.4577 18.5822 24.5552 18.5822H24.1725V11.6928Z" stroke="#1C1B1F" stroke-width="2" stroke-linejoin="round"/>
</svg>
