<svg width="33" height="33" viewBox="0 0 33 33" fill="none" xmlns="http://www.w3.org/2000/svg">
<path fill-rule="evenodd" clip-rule="evenodd" d="M22.7858 2.6438C22.2872 2.6438 21.8054 2.82365 21.4287 3.15034C21.0625 3.46795 20.8196 3.90361 20.7416 4.38115L18.0773 16.6806L14.3655 11.6227C14.1484 11.3268 13.7866 11.1737 13.423 11.2237C13.0593 11.2738 12.7524 11.519 12.6232 11.8626L10.7531 16.8382L5.4222 11.5073C5.13621 11.2213 4.70609 11.1357 4.33242 11.2905C3.95874 11.4453 3.7151 11.8099 3.7151 12.2144V28.3538H1.50073C0.948448 28.3538 0.500732 28.8016 0.500732 29.3538C0.500732 29.9061 0.948448 30.3538 1.50073 30.3538H4.64592C4.66878 30.3554 4.69184 30.3562 4.7151 30.3562C4.73835 30.3562 4.76142 30.3554 4.78428 30.3538H28.2159C28.2388 30.3554 28.2618 30.3562 28.2851 30.3562C28.3083 30.3562 28.3314 30.3554 28.3543 30.3538H31.4989C32.0512 30.3538 32.4989 29.9061 32.4989 29.3538C32.4989 28.8016 32.0512 28.3538 31.4989 28.3538H29.2851V18.6426C29.2851 18.5842 29.2801 18.5269 29.2705 18.4713L27.2635 4.42223C27.193 3.92863 26.9468 3.47703 26.5701 3.15034C26.1934 2.82365 25.7115 2.6438 25.2129 2.6438H22.7858ZM27.1318 17.6426L25.2836 4.70507C25.2811 4.68806 25.2727 4.67251 25.2597 4.66125C25.2467 4.65 25.2301 4.6438 25.2129 4.6438H22.7858C22.7687 4.6438 22.7521 4.64999 22.7391 4.66125C22.7261 4.67251 22.7176 4.68806 22.7152 4.70507C22.7118 4.72864 22.7076 4.75209 22.7026 4.77536L19.9153 17.6426H27.1318ZM18.6142 19.6426C18.6558 19.6452 18.6971 19.6451 18.7379 19.6426H27.2851V28.3538H5.7151V14.6286L10.4362 19.3497C10.6765 19.59 11.0224 19.6918 11.3546 19.62C11.6868 19.5481 11.9598 19.3125 12.0793 18.9944L13.8457 14.2948L17.4706 19.2342C17.659 19.4909 17.9584 19.6426 18.2768 19.6426H18.6142ZM9.07181 23.9996C9.07181 23.4473 9.51952 22.9996 10.0718 22.9996H13.8216C14.3739 22.9996 14.8216 23.4473 14.8216 23.9996C14.8216 24.5519 14.3739 24.9996 13.8216 24.9996H10.0718C9.51952 24.9996 9.07181 24.5519 9.07181 23.9996ZM18.178 23.9996C18.178 23.4473 18.6257 22.9996 19.178 22.9996H22.9278C23.4801 22.9996 23.9278 23.4473 23.9278 23.9996C23.9278 24.5519 23.4801 24.9996 22.9278 24.9996H19.178C18.6257 24.9996 18.178 24.5519 18.178 23.9996Z" fill="#111827"/>
</svg>
