<svg width="33" height="33" viewBox="0 0 33 33" fill="none" xmlns="http://www.w3.org/2000/svg">
<path fill-rule="evenodd" clip-rule="evenodd" d="M12.4093 3.90967C12.9616 3.90967 13.4093 4.35738 13.4093 4.90967V8.00017L31.499 8.00008C32.0513 8.00008 32.499 8.44779 32.499 9.00007C32.499 9.55236 32.0513 10.0001 31.499 10.0001L13.4093 10.0002V13.091C13.4093 13.6433 12.9616 14.091 12.4093 14.091C11.857 14.091 11.4093 13.6433 11.4093 13.091V9.00018V4.90967C11.4093 4.35738 11.857 3.90967 12.4093 3.90967ZM0.500854 9.00006C0.500865 8.44778 0.948588 8.00007 1.50087 8.00008L6.95507 8.00018C7.50736 8.00019 7.95507 8.44791 7.95506 9.0002C7.95505 9.55248 7.50732 10.0002 6.95504 10.0002L1.50084 10.0001C0.948552 10.0001 0.500844 9.55235 0.500854 9.00006ZM17.8635 22.9994L1.50085 22.9994C0.948568 22.9994 0.500854 23.4471 0.500854 23.9994C0.500855 24.5517 0.948571 24.9994 1.50085 24.9994L17.8635 24.9994C18.4157 24.9994 18.8635 24.5517 18.8635 23.9994C18.8635 23.4471 18.4157 22.9994 17.8635 22.9994ZM22.3177 23.9994V19.9087C22.3177 19.3565 22.7654 18.9087 23.3177 18.9087C23.87 18.9087 24.3177 19.3565 24.3177 19.9087V22.9994L31.499 22.9994C32.0513 22.9994 32.499 23.4471 32.499 23.9994C32.499 24.5517 32.0513 24.9994 31.499 24.9994L24.3177 24.9994V28.09C24.3177 28.6423 23.87 29.09 23.3177 29.09C22.7654 29.09 22.3177 28.6423 22.3177 28.09V23.9994Z" fill="#111827"/>
</svg>
