<svg width="33" height="33" viewBox="0 0 33 33" fill="none" xmlns="http://www.w3.org/2000/svg">
<path fill-rule="evenodd" clip-rule="evenodd" d="M16.5001 1.75073C17.0524 1.75073 17.5001 2.19845 17.5001 2.75073L17.5001 9.25028H20.2497C20.802 9.25028 21.2497 9.69799 21.2497 10.2503C21.2497 10.8026 20.802 11.2503 20.2497 11.2503H16.504C16.5027 11.2503 16.5014 11.2503 16.5001 11.2503C16.4987 11.2503 16.4974 11.2503 16.4961 11.2503H12.7502C12.1979 11.2503 11.7502 10.8026 11.7502 10.2503C11.7502 9.69799 12.1979 9.25028 12.7502 9.25028H15.5001L15.5001 2.75073C15.5001 2.19845 15.9478 1.75073 16.5001 1.75073ZM16.5001 14.25C17.0523 14.25 17.5001 14.6977 17.5001 15.25L17.5001 30.2491C17.5001 30.8014 17.0524 31.2491 16.5001 31.2491C15.9478 31.2491 15.5001 30.8014 15.5001 30.2491L15.5001 15.25C15.5001 14.6977 15.9478 14.25 16.5001 14.25ZM28.7494 27.7492C28.7494 27.1969 28.3016 26.7492 27.7493 26.7492C27.197 26.7492 26.7494 27.197 26.7494 27.7493L26.7495 30.2491C26.7495 30.8014 27.1973 31.2491 27.7496 31.2491C28.3018 31.249 28.7495 30.8013 28.7495 30.249L28.7494 27.7492ZM27.7495 1.75073C28.3018 1.75074 28.7495 2.19845 28.7495 2.75074L28.7494 21.7495H31.499C32.0513 21.7495 32.499 22.1972 32.499 22.7495C32.499 23.3018 32.0513 23.7495 31.499 23.7495H27.7562L27.7494 23.7495L27.7425 23.7495H23.9995C23.4472 23.7495 22.9995 23.3018 22.9995 22.7495C22.9995 22.1972 23.4472 21.7495 23.9995 21.7495H26.7494L26.7495 2.75073C26.7495 2.19844 27.1972 1.75073 27.7495 1.75073ZM5.25061 21.7495C5.80289 21.7495 6.2506 22.1972 6.2506 22.7495L6.2505 30.2491C6.2505 30.8014 5.80278 31.2491 5.25049 31.2491C4.69821 31.2491 4.2505 30.8013 4.2505 30.2491L4.2506 22.7495C4.2506 22.1972 4.69832 21.7495 5.25061 21.7495ZM6.2505 2.75073C6.2505 2.19844 5.80278 1.75073 5.2505 1.75073C4.69821 1.75074 4.2505 2.19845 4.2505 2.75074L4.25059 16.7498H1.50085C0.94857 16.7498 0.500854 17.1975 0.500854 17.7498C0.500854 18.3021 0.94857 18.7498 1.50085 18.7498H5.24537L5.2506 18.7498L5.25582 18.7498H9.00041C9.55269 18.7498 10.0004 18.3021 10.0004 17.7498C10.0004 17.1975 9.55269 16.7498 9.00041 16.7498H6.25059L6.2505 2.75073Z" fill="#111827"/>
</svg>
