<svg width="33" height="33" viewBox="0 0 33 33" fill="none" xmlns="http://www.w3.org/2000/svg">
<g clip-path="url(#clip0_508_616)">
<path d="M32.1897 19.2684C31.8207 17.89 31.134 16.6171 30.1847 15.5517C29.2354 14.4863 28.0498 13.658 26.7229 13.1332C25.396 12.6083 23.9646 12.4014 22.5433 12.5291C21.1221 12.6568 19.7505 13.1155 18.5384 13.8685L21.035 3.90037C21.0969 3.65271 21.0795 3.39186 20.9852 3.15462C20.8909 2.91739 20.7245 2.71576 20.5095 2.57819C19.473 1.92374 18.3155 1.48446 17.1059 1.28649C15.8962 1.08852 14.659 1.13591 13.4681 1.42584C12.2771 1.71576 11.1566 2.2423 10.1732 2.97412C9.1899 3.70595 8.36382 4.6281 7.74416 5.6857C7.1245 6.74331 6.72392 7.91475 6.56624 9.13034C6.40857 10.3459 6.49703 11.5808 6.82637 12.7615C7.1557 13.9422 7.71917 15.0446 8.48326 16.0031C9.24734 16.9615 10.1964 17.7565 11.274 18.3407L1.39276 21.1633C1.14727 21.2332 0.929937 21.3784 0.771421 21.5785C0.612905 21.7785 0.52121 22.0233 0.509275 22.2783C0.415491 24.3589 1.03515 26.4092 2.26565 28.0895C3.49615 29.7699 5.26367 30.9796 7.27552 31.5183C8.0515 31.7266 8.85137 31.8326 9.65483 31.8336C10.8791 31.8304 12.0904 31.5815 13.2167 31.1016C14.3431 30.6218 15.3617 29.9208 16.2123 29.0401C17.0628 28.1595 17.728 27.1171 18.1683 25.9747C18.6087 24.8323 18.8153 23.6132 18.776 22.3895L26.1607 29.5366C26.3443 29.7142 26.5792 29.8297 26.832 29.8666C27.0849 29.9035 27.3429 29.86 27.5697 29.7422C29.4174 28.7835 30.8825 27.2228 31.7226 25.3182C32.5627 23.4136 32.7275 21.2793 32.1897 19.2684ZM13.7584 18.2021C13.7584 17.7201 13.9014 17.2489 14.1692 16.8481C14.437 16.4473 14.8176 16.1349 15.263 15.9504C15.7083 15.766 16.1983 15.7177 16.6711 15.8117C17.1439 15.9058 17.5781 16.1379 17.919 16.4787C18.2598 16.8196 18.492 17.2539 18.586 17.7266C18.68 18.1994 18.6318 18.6894 18.4473 19.1348C18.2628 19.5801 17.9505 19.9607 17.5497 20.2285C17.1489 20.4963 16.6777 20.6393 16.1956 20.6393C15.5493 20.6393 14.9293 20.3825 14.4723 19.9255C14.0152 19.4684 13.7584 18.8485 13.7584 18.2021ZM8.88407 10.2812C8.88368 9.15189 9.16868 8.04076 9.71258 7.05103C10.2565 6.06129 11.0417 5.22505 11.9952 4.61994C12.9488 4.01483 14.0398 3.66049 15.1669 3.58982C16.294 3.51914 17.4207 3.73443 18.4424 4.21568L16.1606 13.3277C15.2875 13.3343 14.4322 13.5752 13.684 14.0254C12.9359 14.4756 12.3224 15.1184 11.9077 15.8868C10.9769 15.278 10.2128 14.4465 9.68474 13.4676C9.15673 12.4887 8.88151 11.3935 8.88407 10.2812ZM12.9968 28.4947C12.019 29.0596 10.9143 29.3684 9.78524 29.3922C8.65618 29.4161 7.53941 29.1543 6.53861 28.6311C5.53781 28.1079 4.68544 27.3403 4.06064 26.3996C3.43584 25.4588 3.05887 24.3755 2.96474 23.2501L11.9991 20.6698C12.4286 21.4015 13.0417 22.0084 13.7777 22.4305C14.5137 22.8526 15.3472 23.0752 16.1956 23.0765H16.3342C16.2729 24.186 15.9356 25.2627 15.3528 26.2089C14.77 27.155 13.9602 27.9407 12.9968 28.4947ZM29.1691 24.9912C28.676 25.8465 27.9998 26.582 27.1889 27.1451L20.4379 20.6119C20.8699 19.8531 21.0895 18.9919 21.0737 18.1189C21.0579 17.2459 20.8072 16.3933 20.348 15.6507C21.6369 15 23.1015 14.7829 24.5237 15.0318C25.946 15.2807 27.2498 15.9823 28.2412 17.032C29.2325 18.0817 29.8584 19.4235 30.0256 20.8576C30.1928 22.2918 29.8924 23.7416 29.1691 24.9912Z" fill="#111827"/>
</g>
<defs>
<clipPath id="clip0_508_616">
<rect width="32" height="32" fill="white" transform="translate(0.5 0.5)"/>
</clipPath>
</defs>
</svg>
