<svg width="33" height="33" viewBox="0 0 33 33" fill="none" xmlns="http://www.w3.org/2000/svg">
<path fill-rule="evenodd" clip-rule="evenodd" d="M16.4999 2.50073C8.76846 2.50073 2.50085 8.76834 2.50085 16.4998C2.50085 24.2313 8.76846 30.4989 16.4999 30.4989C24.2314 30.4989 30.499 24.2313 30.499 16.4998C30.499 8.76834 24.2314 2.50073 16.4999 2.50073ZM0.500854 16.4998C0.500854 7.66377 7.66389 0.500732 16.4999 0.500732C25.336 0.500732 32.499 7.66377 32.499 16.4998C32.499 25.3359 25.336 32.4989 16.4999 32.4989C7.66389 32.4989 0.500854 25.3359 0.500854 16.4998ZM16.8583 17.9731L9.76095 22.3815C9.45257 22.573 9.0646 22.5824 8.74733 22.406C8.43006 22.2295 8.23332 21.895 8.23332 21.532V11.4673C8.23332 11.1043 8.43006 10.7698 8.74733 10.5934C9.0646 10.4169 9.45257 10.4263 9.76095 10.6179L16.8583 15.0262V11.4673C16.8583 11.1043 17.055 10.7698 17.3723 10.5934C17.6896 10.4169 18.0775 10.4263 18.3859 10.6179L26.4878 15.6502C26.7815 15.8326 26.9601 16.1539 26.9601 16.4997C26.9601 16.8454 26.7815 17.1667 26.4878 17.3491L18.3859 22.3815C18.0775 22.573 17.6896 22.5824 17.3723 22.406C17.055 22.2295 16.8583 21.895 16.8583 21.532V17.9731ZM10.2333 19.7337V13.2657L15.4399 16.4997L10.2333 19.7337ZM24.0649 16.4997L18.8583 13.2657V19.7337L24.0649 16.4997Z" fill="#111827"/>
</svg>
