<svg width="33" height="33" viewBox="0 0 33 33" fill="none" xmlns="http://www.w3.org/2000/svg">
<path fill-rule="evenodd" clip-rule="evenodd" d="M15.9692 15.2844L2.02861 6.62538C1.72023 6.43384 1.33226 6.42446 1.01499 6.60089C0.697718 6.77731 0.500977 7.11183 0.500977 7.47485V25.5249C0.500977 25.8879 0.697718 26.2224 1.01499 26.3989C1.33226 26.5753 1.72023 26.5659 2.02861 26.3744L15.9692 17.7154V25.5249C15.9692 25.8879 16.166 26.2224 16.4833 26.3989C16.8005 26.5753 17.1885 26.5659 17.4969 26.3744L32.0268 17.3494C32.3205 17.1669 32.4991 16.8457 32.4991 16.4999C32.4991 16.1541 32.3205 15.8329 32.0268 15.6504L17.4969 6.62538C17.1885 6.43384 16.8005 6.42446 16.4833 6.60089C16.166 6.77731 15.9692 7.11183 15.9692 7.47485V15.2844ZM2.50098 9.27319V23.7266L14.1356 16.4999L2.50098 9.27319ZM29.6039 16.4999L17.9692 9.27319V23.7266L29.6039 16.4999Z" fill="#111827"/>
</svg>
