<svg width="32" height="32" viewBox="0 0 32 32" fill="none" xmlns="http://www.w3.org/2000/svg">
<path d="M20 19.9999C22.2092 19.9999 24 18.209 24 15.9999C24 13.7907 22.2092 11.9999 20 11.9999C17.7909 11.9999 16 13.7907 16 15.9999C16 18.209 17.7909 19.9999 20 19.9999Z" stroke="#1C1B1F" stroke-width="2" stroke-linecap="round" stroke-linejoin="round"/>
<path d="M16 11.9999V4H12C10.9391 4 9.92173 4.42143 9.17158 5.17158C8.42143 5.92173 8 6.93915 8 8.00002C8 9.06089 8.42143 10.0783 9.17158 10.8285C9.92173 11.5786 10.9391 12 12 12L16 11.9999Z" stroke="#1C1B1F" stroke-width="2" stroke-linecap="round" stroke-linejoin="round"/>
<path d="M16 19.9998V11.9999H12C10.9391 11.9999 9.92173 12.4213 9.17158 13.1715C8.42143 13.9216 8 14.939 8 15.9999C8 17.0608 8.42143 18.0782 9.17158 18.8283C9.92173 19.5785 10.9391 19.9999 12 19.9999L16 19.9998Z" stroke="#1C1B1F" stroke-width="2" stroke-linecap="round" stroke-linejoin="round"/>
<path d="M16 11.9999V4H20C21.0609 4 22.0783 4.42143 22.8285 5.17158C23.5786 5.92173 24 6.93915 24 8.00002C24 9.06089 23.5786 10.0783 22.8285 10.8285C22.0783 11.5786 21.0609 12 20 12L16 11.9999Z" stroke="#1C1B1F" stroke-width="2" stroke-linecap="round" stroke-linejoin="round"/>
<path d="M16 19.9999V24C16.0001 24.7911 15.7655 25.5644 15.3259 26.2223C14.8864 26.8801 14.2617 27.3928 13.5308 27.6955C12.7999 27.9983 11.9956 28.0775 11.2197 27.9232C10.4438 27.7688 9.73102 27.3879 9.1716 26.8285C8.61218 26.2691 8.23121 25.5563 8.07686 24.7804C7.92252 24.0045 8.00173 23.2002 8.30448 22.4693C8.60723 21.7384 9.11992 21.1136 9.77772 20.6741C10.4355 20.2346 11.2089 20 12 20L16 19.9999Z" stroke="#1C1B1F" stroke-width="2" stroke-linecap="round" stroke-linejoin="round"/>
</svg>
