<svg width="33" height="32" viewBox="0 0 33 32" fill="none" xmlns="http://www.w3.org/2000/svg">
<path fill-rule="evenodd" clip-rule="evenodd" d="M7.25776 1.75813C8.38293 0.632965 9.90898 0.000854492 11.5002 0.000854492H16.4999H16.4999H21.4996C23.0908 0.000854492 24.6169 0.632965 25.742 1.75813C26.8672 2.8833 27.4993 4.40935 27.4993 6.00057C27.4993 7.59179 26.8672 9.11784 25.742 10.243C25.4575 10.5275 25.1473 10.7805 24.8169 10.9998C26.4337 12.0746 27.4993 13.9127 27.4993 15.9997C27.4993 19.3133 24.8131 21.9994 21.4996 21.9994C19.963 21.9994 18.5614 21.4218 17.4999 20.4718V20.9975C17.4999 20.9982 17.4999 20.9988 17.4999 20.9995V25.9993C17.4999 27.1859 17.1481 28.3459 16.4888 29.3325C15.8296 30.3192 14.8926 31.0882 13.7963 31.5423C12.6999 31.9964 11.4936 32.1153 10.3298 31.8838C9.16593 31.6523 8.09688 31.0809 7.25779 30.2418C6.41871 29.4027 5.84729 28.3337 5.61578 27.1699C5.38427 26.006 5.50308 24.7997 5.95718 23.7034C6.41129 22.6071 7.18029 21.67 8.16693 21.0108C8.17255 21.007 8.17817 21.0033 8.1838 20.9995C7.85307 20.7802 7.54257 20.527 7.25776 20.2421C6.1326 19.117 5.50049 17.5909 5.50049 15.9997C5.50049 14.4085 6.1326 12.8824 7.25776 11.7573C7.54246 11.4726 7.85282 11.2194 8.1834 11.0001C7.85282 10.7808 7.54246 10.5277 7.25776 10.243C6.1326 9.11784 5.50049 7.59179 5.50049 6.00057C5.50049 4.40935 6.1326 2.8833 7.25776 1.75813ZM11.5002 2.00085H15.4999V9.99999H11.5002L11.4626 10.0001C10.4154 9.99027 9.4132 9.57001 8.67198 8.8288C7.92189 8.0787 7.50049 7.06136 7.50049 6.00057C7.50049 4.93978 7.92189 3.92244 8.67198 3.17234C9.42207 2.42225 10.4394 2.00085 11.5002 2.00085ZM17.4999 15.9794C17.5108 13.7961 19.271 12.0264 21.4506 12.0003L21.4996 12.0003H21.4996L21.5374 12.0002C23.729 12.0205 25.4993 13.8034 25.4993 15.9997C25.4993 18.2087 23.7086 19.9994 21.4996 19.9994C19.2974 19.9994 17.5109 18.2197 17.4999 16.02V15.9794ZM17.4999 2.00085V10.0002L21.4397 10.0003L21.4996 9.99999L21.5373 10.0001C22.5845 9.99024 23.5866 9.56999 24.3278 8.8288C25.0779 8.0787 25.4993 7.06136 25.4993 6.00057C25.4993 4.93978 25.0779 3.92244 24.3278 3.17234C23.5777 2.42225 22.5604 2.00085 21.4996 2.00085H17.4999ZM11.4626 12.0002C10.4154 12.01 9.41319 12.4303 8.67198 13.1715C7.92189 13.9216 7.50049 14.9389 7.50049 15.9997C7.50049 17.0605 7.92189 18.0778 8.67198 18.8279C9.42206 19.578 10.4394 19.9994 11.5002 19.9994H11.5002L15.4999 19.9993V16.0246L15.4999 15.9997L15.4999 15.9748V12.0002L11.5002 12.0003H11.5002L11.4626 12.0002ZM11.5002 21.9996L15.4999 21.9995V25.9993C15.4999 26.7904 15.2654 27.5637 14.8259 28.2214C14.3864 28.8792 13.7617 29.3918 13.0309 29.6946C12.3 29.9973 11.4958 30.0765 10.7199 29.9222C9.94406 29.7679 9.23137 29.387 8.672 28.8276C8.11262 28.2682 7.73168 27.5555 7.57735 26.7797C7.42301 26.0038 7.50222 25.1996 7.80495 24.4687C8.10767 23.7379 8.62033 23.1132 9.27808 22.6737C9.93583 22.2342 10.7091 21.9996 11.5002 21.9996H11.5002Z" fill="#111827"/>
</svg>
