<svg width="33" height="32" viewBox="0 0 33 32" fill="none" xmlns="http://www.w3.org/2000/svg">
<path fill-rule="evenodd" clip-rule="evenodd" d="M2.08203 1.00037C2.08203 0.448081 2.52975 0.000366211 3.08203 0.000366211H20.5453C20.8113 0.000366211 21.0663 0.106312 21.2539 0.294775L30.6131 9.69407C30.7997 9.88148 30.9044 10.1352 30.9044 10.3997V17.0938C30.9044 17.6461 30.4567 18.0938 29.9044 18.0938C29.3522 18.0938 28.9044 17.6461 28.9044 17.0938V11.3085H20.6364C20.0841 11.3085 19.6364 10.8608 19.6364 10.3085V2.00037H4.08203V17.0938C4.08203 17.6461 3.63432 18.0938 3.08203 18.0938C2.52975 18.0938 2.08203 17.6461 2.08203 17.0938V1.00037ZM21.6364 3.58464V9.30852H27.3652L21.6364 3.58464ZM7.05425 22.0549C4.30817 22.0549 2.08203 24.281 2.08203 27.0271C2.08203 29.7732 4.30817 31.9994 7.05425 31.9994H8.79476C9.34704 31.9994 9.79476 31.5516 9.79476 30.9994C9.79476 30.4471 9.34704 29.9994 8.79476 29.9994H7.05425C5.41274 29.9994 4.08203 28.6686 4.08203 27.0271C4.08203 25.3856 5.41274 24.0549 7.05425 24.0549H8.79476C9.34704 24.0549 9.79476 23.6072 9.79476 23.0549C9.79476 22.5026 9.34704 22.0549 8.79476 22.0549H7.05425ZM12.6435 25.041C12.6435 23.3918 13.9804 22.0549 15.6296 22.0549H19.3562C19.9085 22.0549 20.3562 22.5026 20.3562 23.0549C20.3562 23.6072 19.9085 24.0549 19.3562 24.0549H15.6296C15.085 24.0549 14.6435 24.4964 14.6435 25.041C14.6435 25.5856 15.085 26.0271 15.6296 26.0271H17.46C17.5038 26.0271 17.5469 26.0299 17.5891 26.0354C19.136 26.1475 20.3562 27.4381 20.3562 29.0136C20.3562 30.6627 19.0192 31.9997 17.37 31.9997H13.6434C13.0911 31.9997 12.6434 31.552 12.6434 30.9997C12.6434 30.4474 13.0911 29.9997 13.6434 29.9997H17.37C17.9147 29.9997 18.3562 29.5582 18.3562 29.0136C18.3562 28.469 17.9147 28.0275 17.37 28.0275H15.4876C15.4203 28.0275 15.3546 28.0208 15.291 28.0081C13.8012 27.84 12.6435 26.5757 12.6435 25.041ZM26.1913 22.0549C24.5422 22.0549 23.2052 23.3918 23.2052 25.041C23.2052 26.5756 24.3628 27.8398 25.8524 28.0081C25.916 28.0208 25.9819 28.0275 26.0492 28.0275H27.9316C28.4763 28.0275 28.9178 28.469 28.9178 29.0136C28.9178 29.5582 28.4763 29.9997 27.9316 29.9997H24.205C23.6527 29.9997 23.205 30.4474 23.205 30.9997C23.205 31.552 23.6527 31.9997 24.205 31.9997H27.9316C29.5808 31.9997 30.9178 30.6627 30.9178 29.0136C30.9178 27.4382 29.6978 26.1477 28.151 26.0354C28.1087 26.0299 28.0655 26.0271 28.0217 26.0271H26.1913C25.6467 26.0271 25.2052 25.5856 25.2052 25.041C25.2052 24.4964 25.6467 24.0549 26.1913 24.0549H29.918C30.4702 24.0549 30.918 23.6072 30.918 23.0549C30.918 22.5026 30.4702 22.0549 29.918 22.0549H26.1913Z" fill="#111827"/>
</svg>
