<svg width="33" height="32" viewBox="0 0 33 32" fill="none" xmlns="http://www.w3.org/2000/svg">
<path fill-rule="evenodd" clip-rule="evenodd" d="M4.00647 0.000854492C3.45418 0.000854492 3.00647 0.44857 3.00647 1.00085V15.9778C3.00647 16.53 3.45418 16.9778 4.00647 16.9778C4.55875 16.9778 5.00647 16.53 5.00647 15.9778V2.00085H19.367V9.67623C19.367 10.2285 19.8147 10.6762 20.367 10.6762H28.0049V29.999H22.7531C22.2008 29.999 21.7531 30.4467 21.7531 30.999C21.7531 31.5513 22.2008 31.999 22.7531 31.999H29.0049C29.5572 31.999 30.0049 31.5513 30.0049 30.999V9.76099C30.0049 9.49652 29.9002 9.24281 29.7136 9.0554L20.9909 0.295264C20.8032 0.1068 20.5482 0.000854492 20.2822 0.000854492H4.00647ZM21.367 8.67623V3.57364L26.474 8.67623H21.367ZM2.99512 20.9996C2.99512 20.4473 3.44283 19.9996 3.99512 19.9996H12.2529C14.123 19.9996 15.6934 21.283 16.1313 23.017L18.4647 21.5169C18.7724 21.3191 19.1635 21.3051 19.4846 21.4804C19.8057 21.6556 20.0054 21.9923 20.0054 22.3581V28.8784C20.0054 29.2442 19.8057 29.5808 19.4846 29.7561C19.1635 29.9314 18.7724 29.9174 18.4647 29.7196L16.2529 28.2976V30.2368C16.2529 30.7891 15.8052 31.2368 15.2529 31.2368H6.99512C4.78598 31.2368 2.99512 29.4459 2.99512 27.2368V20.9996ZM14.2529 24.7618C14.2529 24.7647 14.2529 24.7677 14.2529 24.7706V25.6182V26.4659C14.2529 26.4688 14.2529 26.4718 14.2529 26.4747V29.2368H6.99512C5.89055 29.2368 4.99512 28.3413 4.99512 27.2368V21.9996H12.2529C13.3575 21.9996 14.2529 22.8951 14.2529 23.9996V24.7618ZM16.2529 25.92L18.0054 27.0467V24.1898L16.2529 25.3165V25.92Z" fill="#111827"/>
</svg>
