<svg width="33" height="32" viewBox="0 0 33 32" fill="none" xmlns="http://www.w3.org/2000/svg">
<path fill-rule="evenodd" clip-rule="evenodd" d="M4.00073 0.000854492C3.44845 0.000854492 3.00073 0.44857 3.00073 1.00085V15.9777C3.00073 16.53 3.44845 16.9777 4.00073 16.9777C4.55302 16.9777 5.00073 16.53 5.00073 15.9777V2.00085H19.3613V9.67622C19.3613 10.2285 19.809 10.6762 20.3613 10.6762H27.9992V29.999H22.7473C22.195 29.999 21.7473 30.4467 21.7473 30.999C21.7473 31.5513 22.195 31.999 22.7473 31.999H28.9992C29.5515 31.999 29.9992 31.5513 29.9992 30.999V9.76098C29.9992 9.49651 29.8944 9.2428 29.7078 9.05539L20.9851 0.295264C20.7975 0.1068 20.5425 0.000854492 20.2765 0.000854492H4.00073ZM21.3613 8.67622V3.57364L26.4683 8.67622H21.3613ZM12.1957 24.9454C12.1957 23.2787 13.5469 21.9275 15.2136 21.9275H18.9998C19.5521 21.9275 19.9998 22.3752 19.9998 22.9275C19.9998 23.4798 19.5521 23.9275 18.9998 23.9275H15.2136C14.6514 23.9275 14.1957 24.3832 14.1957 24.9454C14.1957 25.5075 14.6514 25.9633 15.2136 25.9633H17.0733C17.1154 25.9633 17.1569 25.9659 17.1976 25.9709C18.7637 26.0815 19.9998 27.387 19.9998 28.9812C19.9998 30.6479 18.6487 31.9991 16.9819 31.9991H13.1957C12.6434 31.9991 12.1957 31.5513 12.1957 30.9991C12.1957 30.4468 12.6434 29.9991 13.1957 29.9991H16.9819C17.5441 29.9991 17.9998 29.5433 17.9998 28.9812C17.9998 28.419 17.5441 27.9633 16.9819 27.9633H15.0694C15.003 27.9633 14.9382 27.9569 14.8754 27.9445C13.3679 27.7764 12.1957 26.4978 12.1957 24.9454ZM3.00073 22.9563C3.00073 22.3881 3.46135 21.9275 4.02955 21.9275H7.46841C9.30422 21.9275 10.7924 23.4157 10.7924 25.2516C10.7924 26.8691 9.63703 28.2168 8.10648 28.5144L10.3857 30.1938C10.8303 30.5214 10.9251 31.1474 10.5975 31.5921C10.2699 32.0367 9.64387 32.1315 9.19925 31.8039L5.00073 28.7103V30.9989C5.00073 31.5512 4.55302 31.9989 4.00073 31.9989C3.44845 31.9989 3.00073 31.5512 3.00073 30.9989V27.5756V22.9563ZM5.00073 26.5756H7.46841C8.19965 26.5756 8.79244 25.9828 8.79244 25.2516C8.79244 24.5203 8.19965 23.9275 7.46841 23.9275H5.00073V26.5756Z" fill="#111827"/>
</svg>
