<svg width="33" height="32" viewBox="0 0 33 32" fill="none" xmlns="http://www.w3.org/2000/svg">
<path fill-rule="evenodd" clip-rule="evenodd" d="M9.00042 0.000915527C8.44813 0.000915527 8.00042 0.448631 8.00042 1.00092V5.0006H4.00073C3.44845 5.0006 3.00073 5.44832 3.00073 6.0006V30.9991C3.00073 31.5513 3.44845 31.9991 4.00073 31.9991H23.9995C24.5518 31.9991 24.9995 31.5513 24.9995 30.9991V26.9994H28.9992C29.5515 26.9994 29.9992 26.5517 29.9992 25.9994V8.30102C29.9992 8.04361 29.8999 7.79611 29.7221 7.61004L22.7439 0.309929C22.5552 0.112559 22.2941 0.000915527 22.021 0.000915527H9.00042ZM24.9995 24.9994H27.9992V8.70209L21.5936 2.00092H10.0004V5.0006H17.0214C17.2944 5.0006 17.5556 5.11225 17.7442 5.30962L24.7224 12.6097C24.9002 12.7958 24.9995 13.0433 24.9995 13.3007V24.9994ZM5.00073 7.0006V29.9991H22.9995V13.7018L16.5939 7.0006H5.00073ZM10.2503 18.7497C9.69806 18.7497 9.25034 19.1975 9.25034 19.7497C9.25034 20.302 9.69806 20.7497 10.2503 20.7497H17.7499C18.3022 20.7497 18.7499 20.302 18.7499 19.7497C18.7499 19.1975 18.3022 18.7497 17.7499 18.7497H10.2503ZM10.2503 23.7495C9.69806 23.7495 9.25034 24.1972 9.25034 24.7495C9.25034 25.3018 9.69806 25.7495 10.2503 25.7495H17.7499C18.3022 25.7495 18.7499 25.3018 18.7499 24.7495C18.7499 24.1972 18.3022 23.7495 17.7499 23.7495H10.2503Z" fill="#111827"/>
</svg>
