<svg width="33" height="32" viewBox="0 0 33 32" fill="none" xmlns="http://www.w3.org/2000/svg">
<path fill-rule="evenodd" clip-rule="evenodd" d="M1.96511 1.00098C1.96511 0.448692 2.41283 0.000976562 2.96511 0.000976562H20.6056C20.8715 0.000976562 21.1266 0.106922 21.3142 0.295386L30.7683 9.79004C30.9549 9.97745 31.0597 10.2312 31.0597 10.4956V17.2577C31.0597 17.81 30.612 18.2577 30.0597 18.2577C29.5074 18.2577 29.0597 17.81 29.0597 17.2577V11.4035H20.6973C20.1451 11.4035 19.6973 10.9558 19.6973 10.4035V2.00098H3.96511V17.2577C3.96511 17.81 3.5174 18.2577 2.96511 18.2577C2.41283 18.2577 1.96511 17.81 1.96511 17.2577V1.00098ZM21.6973 3.58697V9.40355H27.519L21.6973 3.58697ZM17.0349 22.2644C17.0349 21.7122 16.5872 21.2644 16.0349 21.2644C15.4826 21.2644 15.0349 21.7122 15.0349 22.2644V30.9991C15.0349 31.5514 15.4826 31.9991 16.0349 31.9991C16.5872 31.9991 17.0349 31.5514 17.0349 30.9991V22.2644ZM22.3141 22.298C22.3141 21.7272 22.7769 21.2644 23.3477 21.2644H27.5447C29.486 21.2644 31.0597 22.8382 31.0597 24.7795C31.0597 26.7207 29.486 28.2945 27.5447 28.2945H24.3141V30.9991C24.3141 31.5514 23.8664 31.9991 23.3141 31.9991C22.7619 31.9991 22.3141 31.5514 22.3141 30.9991V27.2945V22.298ZM24.3141 26.2945H27.5447C28.3814 26.2945 29.0597 25.6162 29.0597 24.7795C29.0597 23.9427 28.3814 23.2644 27.5447 23.2644H24.3141V26.2945ZM2.94019 21.2644C2.3879 21.2644 1.94019 21.7122 1.94019 22.2644C1.94019 22.8167 2.3879 23.2644 2.94019 23.2644H6.79731L2.10293 30.4523C1.9022 30.7597 1.88601 31.1523 2.06075 31.4751C2.2355 31.798 2.57309 31.9991 2.94019 31.9991H8.64478C9.19707 31.9991 9.64478 31.5514 9.64478 30.9991C9.64478 30.4468 9.19707 29.9991 8.64478 29.9991H4.78766L9.48204 22.8112C9.68277 22.5039 9.69896 22.1113 9.52422 21.7884C9.34947 21.4656 9.01188 21.2644 8.64478 21.2644H2.94019Z" fill="#111827"/>
</svg>
