<svg width="33" height="32" viewBox="0 0 33 32" fill="none" xmlns="http://www.w3.org/2000/svg">
<path fill-rule="evenodd" clip-rule="evenodd" d="M2.32324 0.999268C2.32324 0.446983 2.77096 -0.000732422 3.32324 -0.000732422H20.4795C20.7455 -0.000732422 21.0005 0.105213 21.1881 0.293677L30.3827 9.52771C30.5693 9.71512 30.6741 9.96883 30.6741 10.2333V16.8098C30.6741 17.362 30.2264 17.8098 29.6741 17.8098C29.1218 17.8098 28.6741 17.362 28.6741 16.8098V11.1439H20.5689C20.0166 11.1439 19.5689 10.6961 19.5689 10.1439V1.99927H4.32324V16.8098C4.32324 17.362 3.87553 17.8098 3.32324 17.8098C2.77096 17.8098 2.32324 17.362 2.32324 16.8098V0.999268ZM23.2935 21.7214C23.7486 21.4084 24.3712 21.5235 24.6842 21.9785L26.7685 25.0085L28.8528 21.9785C29.1658 21.5235 29.7885 21.4084 30.2435 21.7214C30.6985 22.0344 30.8136 22.657 30.5006 23.112L27.9823 26.7729L30.5006 30.4338C30.8136 30.8889 30.6985 31.5115 30.2435 31.8245C29.7885 32.1375 29.1658 32.0224 28.8528 31.5674L26.7685 28.5374L24.6842 31.5674C24.3712 32.0224 23.7486 32.1375 23.2935 31.8245C22.8385 31.5115 22.7234 30.8889 23.0364 30.4338L25.5547 26.7729L23.0364 23.112C22.7234 22.657 22.8385 22.0344 23.2935 21.7214ZM9.34079 22.5553C9.34079 22.003 8.89308 21.5553 8.34079 21.5553C7.78851 21.5553 7.34079 22.003 7.34079 22.5553V29.0004C7.34079 29.5527 6.89308 30.0004 6.34079 30.0004H5.35349C4.80121 30.0004 4.35349 29.5527 4.35349 29.0004V28.1571C4.35349 27.6048 3.90578 27.1571 3.35349 27.1571C2.80121 27.1571 2.35349 27.6048 2.35349 28.1571V29.0004C2.35349 30.6573 3.69664 32.0004 5.35349 32.0004H6.34079C7.99765 32.0004 9.34079 30.6573 9.34079 29.0004V22.5553ZM12.0645 24.6666C12.0645 22.9482 13.4575 21.5553 15.1758 21.5553H19.1373C19.6896 21.5553 20.1373 22.003 20.1373 22.5553C20.1373 23.1075 19.6896 23.5553 19.1373 23.5553H15.1758C14.562 23.5553 14.0645 24.0528 14.0645 24.6666C14.0645 25.2803 14.562 25.7779 15.1758 25.7779H17.1216C17.1639 25.7779 17.2057 25.7805 17.2467 25.7856C18.862 25.8989 20.1371 27.2451 20.1371 28.8892C20.1371 30.6075 18.7442 32.0005 17.0258 32.0005H13.0643C12.5121 32.0005 12.0643 31.5528 12.0643 31.0005C12.0643 30.4482 12.5121 30.0005 13.0643 30.0005H17.0258C17.6396 30.0005 18.1371 29.5029 18.1371 28.8892C18.1371 28.2754 17.6396 27.7779 17.0258 27.7779H15.0248C14.9578 27.7779 14.8924 27.7713 14.8291 27.7588C13.274 27.5864 12.0645 26.2677 12.0645 24.6666ZM21.5689 9.14386V3.58062L27.137 9.14386H21.5689Z" fill="#111827"/>
</svg>
