<svg width="32" height="32" viewBox="0 0 32 32" fill="none" xmlns="http://www.w3.org/2000/svg">
<path d="M21.9982 28H27V11.0085L20.0214 4H7L7 15.9823" stroke="#1C1B1F" stroke-width="2" stroke-linecap="round" stroke-linejoin="round"/>
<path d="M20.0892 10.9407V4.12805L26.9078 10.9407H20.0892Z" stroke="#1C1B1F" stroke-width="2" stroke-linecap="round" stroke-linejoin="round"/>
<path d="M9.40428 22.3835C9.40428 21.7926 9.50101 21.2244 9.6795 20.6936M9.6795 20.6936C9.37228 20.6114 9.04936 20.5676 8.71621 20.5676C6.6638 20.5676 5 22.2314 5 24.2838C5 26.3362 6.6638 28 8.71621 28H14.7021C17.628 28 19.9999 25.3094 19.9999 22.3835C19.9999 19.4576 17.628 17.0857 14.7021 17.0857C12.3671 17.0857 10.3849 18.5963 9.6795 20.6936Z" stroke="#1C1B1F" stroke-width="2" stroke-linecap="round" stroke-linejoin="round"/>
</svg>
