<svg width="33" height="32" viewBox="0 0 33 32" fill="none" xmlns="http://www.w3.org/2000/svg">
<path fill-rule="evenodd" clip-rule="evenodd" d="M3.00073 1.00085C3.00073 0.44857 3.44845 0.000854492 4.00073 0.000854492H20.2765C20.5424 0.000854492 20.7974 0.1068 20.9851 0.295264L29.7078 9.05538C29.8944 9.24279 29.9991 9.49649 29.9991 9.76097V30.999C29.9991 31.5512 29.5514 31.999 28.9991 31.999H22.7473C22.195 31.999 21.7473 31.5512 21.7473 30.999C21.7473 30.4467 22.195 29.999 22.7473 29.999H27.9991V10.6762H20.3612C19.809 10.6762 19.3612 10.2285 19.3612 9.67621V2.00085H5.00073V15.9777C5.00073 16.53 4.55302 16.9777 4.00073 16.9777C3.44845 16.9777 3.00073 16.53 3.00073 15.9777V1.00085ZM21.3612 3.57364V8.67621H26.4682L21.3612 3.57364ZM19.3533 19.2026C18.9628 18.8121 18.3296 18.8121 17.9391 19.2026C17.5486 19.5931 17.5486 20.2263 17.9391 20.6168C18.3535 21.0312 18.6822 21.5232 18.9065 22.0647C19.1308 22.6061 19.2462 23.1865 19.2462 23.7725C19.2462 24.3586 19.1308 24.9389 18.9065 25.4804C18.6822 26.0218 18.3535 26.5138 17.9391 26.9282C17.5486 27.3187 17.5486 27.9519 17.9391 28.3424C18.3296 28.733 18.9628 28.733 19.3533 28.3424C19.9534 27.7423 20.4295 27.0299 20.7543 26.2457C21.079 25.4616 21.2462 24.6212 21.2462 23.7725C21.2462 22.9238 21.079 22.0834 20.7543 21.2993C20.4295 20.5152 19.9534 19.8027 19.3533 19.2026ZM7.10861 21.883H7.02776C5.90826 21.883 5.00073 22.7905 5.00073 23.91C5.00073 25.0295 5.90826 25.937 7.02776 25.937H7.10861L7.10861 21.883ZM9.10861 26.3568L9.10861 21.4512L12.57 18.6719V28.9844L9.10861 26.3568ZM14.57 16.5865C14.57 16.2018 14.3493 15.8512 14.0024 15.6848C13.6555 15.5185 13.2439 15.5659 12.9439 15.8067L7.86724 19.883H7.02776C4.80369 19.883 3.00073 21.6859 3.00073 23.91C3.00073 26.1341 4.80369 27.937 7.02776 27.937H7.88246L12.9654 31.7955C13.2679 32.0252 13.6744 32.0636 14.0146 31.8948C14.3549 31.7259 14.57 31.3789 14.57 30.999V16.5865Z" fill="#111827"/>
</svg>
