<svg width="33" height="32" viewBox="0 0 33 32" fill="none" xmlns="http://www.w3.org/2000/svg">
<path fill-rule="evenodd" clip-rule="evenodd" d="M2.0542 1.00049C2.0542 0.448204 2.50191 0.000488281 3.0542 0.000488281H20.5626C20.8285 0.000488281 21.0836 0.106434 21.2712 0.294897L30.6545 9.71846C30.8411 9.90588 30.9459 10.1596 30.9459 10.4241V17.1355C30.9459 17.6878 30.4982 18.1355 29.9459 18.1355C29.3936 18.1355 28.9459 17.6878 28.9459 17.1355V11.3328H20.6539C20.1017 11.3328 19.6539 10.8851 19.6539 10.3328V2.00049H4.0542V17.1355C4.0542 17.6878 3.60648 18.1355 3.0542 18.1355C2.50191 18.1355 2.0542 17.6878 2.0542 17.1355V1.00049ZM21.6539 3.58531V9.33278H27.4064L21.6539 3.58531ZM3.08891 21.3078C2.52103 21.3078 2.06067 21.7682 2.06067 22.3361V27.3131V30.9995C2.06067 31.5518 2.50839 31.9995 3.06067 31.9995C3.61296 31.9995 4.06067 31.5518 4.06067 30.9995V28.3131H6.2339C8.16836 28.3131 9.73654 26.7449 9.73654 24.8104C9.73654 22.876 8.16836 21.3078 6.23391 21.3078H3.08891ZM6.2339 26.3131H4.06067V23.3078H6.23391C7.06379 23.3078 7.73654 23.9806 7.73654 24.8104C7.73654 25.6403 7.06379 26.3131 6.2339 26.3131ZM13.0044 21.3483C13.4302 21.2233 13.8874 21.3938 14.1274 21.7671L17.8725 27.5941V22.3078C17.8725 21.7555 18.3202 21.3078 18.8725 21.3078C19.4248 21.3078 19.8725 21.7555 19.8725 22.3078V30.9994C19.8725 31.4432 19.5801 31.8339 19.1543 31.9589C18.7285 32.0839 18.2712 31.9134 18.0313 31.5401L14.2861 25.7132V30.9994C14.2861 31.5517 13.8384 31.9994 13.2861 31.9994C12.7339 31.9994 12.2861 31.5517 12.2861 30.9994V22.3078C12.2861 21.864 12.5786 21.4734 13.0044 21.3483ZM27.5866 21.3078C24.7342 21.3078 22.4219 23.6202 22.4219 26.4726C22.4219 29.325 24.7342 31.6374 27.5866 31.6374H29.909C30.4792 31.6374 30.9414 31.1751 30.9414 30.6049V27.1295C30.9414 26.3011 30.2699 25.6295 29.4414 25.6295H27.3719C26.8196 25.6295 26.3719 26.0772 26.3719 26.6295C26.3719 27.1818 26.8196 27.6295 27.3719 27.6295H28.9414V29.6374H27.5866C25.8388 29.6374 24.4219 28.2204 24.4219 26.4726C24.4219 24.7247 25.8388 23.3078 27.5866 23.3078H29.9414C30.4937 23.3078 30.9414 22.8601 30.9414 22.3078C30.9414 21.7555 30.4937 21.3078 29.9414 21.3078H27.5866Z" fill="#111827"/>
</svg>
