<svg width="33" height="32" viewBox="0 0 33 32" fill="none" xmlns="http://www.w3.org/2000/svg">
<path fill-rule="evenodd" clip-rule="evenodd" d="M4.00073 0.000915527C3.44845 0.000915527 3.00073 0.448631 3.00073 1.00092V30.9991C3.00073 31.5514 3.44845 31.9991 4.00073 31.9991H28.9992C29.5515 31.9991 29.9992 31.5514 29.9992 30.9991V9.76105C29.9992 9.49658 29.8944 9.24287 29.7078 9.05546L20.9851 0.295325C20.7975 0.106861 20.5425 0.000915527 20.2765 0.000915527H4.00073ZM5.00073 29.9991V2.00092H19.3613V9.67629C19.3613 10.2286 19.809 10.6763 20.3613 10.6763H27.9992V29.9991H5.00073ZM21.3613 8.67629V3.57371L26.4683 8.67629H21.3613Z" fill="#111827"/>
</svg>
