<svg width="33" height="32" viewBox="0 0 33 32" fill="none" xmlns="http://www.w3.org/2000/svg">
<path fill-rule="evenodd" clip-rule="evenodd" d="M3.26856 1.00085C3.26856 0.44857 3.71627 0.000854492 4.26856 0.000854492H20.5443C20.8103 0.000854492 21.0653 0.1068 21.2529 0.295264L29.9756 9.05538C30.1622 9.24279 30.267 9.49649 30.267 9.76097V30.9989C30.267 31.5512 29.8193 31.9989 29.267 31.9989H23.0151C22.4628 31.9989 22.0151 31.5512 22.0151 30.9989C22.0151 30.4467 22.4628 29.9989 23.0151 29.9989H28.267V10.6762H20.6293C20.0771 10.6762 19.6293 10.2285 19.6293 9.6762V2.00085H5.26856V15.9777C5.26856 16.53 4.82084 16.9777 4.26856 16.9777C3.71627 16.9777 3.26856 16.53 3.26856 15.9777V1.00085ZM21.6293 3.57364V8.6762H26.7363L21.6293 3.57364ZM9.55587 22.8322C9.55587 22.2799 9.10816 21.8322 8.55587 21.8322C8.00359 21.8322 7.55587 22.2799 7.55587 22.8322V28.9989C7.55587 29.5512 7.10816 29.9989 6.55587 29.9989H5.73303C5.18075 29.9989 4.73303 29.5512 4.73303 28.9989V28.2493C4.73303 27.697 4.28532 27.2493 3.73303 27.2493C3.18075 27.2493 2.73303 27.697 2.73303 28.2493V28.9989C2.73303 30.6558 4.07618 31.9989 5.73303 31.9989H6.55587C8.21273 31.9989 9.55587 30.6558 9.55587 28.9989V22.8322ZM12.1237 24.8739C12.1237 23.194 13.4855 21.8322 15.1654 21.8322H18.9962C19.5485 21.8322 19.9962 22.2799 19.9962 22.8322C19.9962 23.3845 19.5485 23.8322 18.9962 23.8322H15.1654C14.5901 23.8322 14.1237 24.2986 14.1237 24.8739C14.1237 25.4492 14.5901 25.9156 15.1654 25.9156H17.047C17.0894 25.9156 17.1312 25.9182 17.1722 25.9233C18.7504 26.035 19.9961 27.3507 19.9961 28.9573C19.9961 30.6372 18.6343 31.999 16.9544 31.999H13.1236C12.5713 31.999 12.1236 31.5513 12.1236 30.999C12.1236 30.4467 12.5713 29.999 13.1236 29.999H16.9544C17.5298 29.999 17.9961 29.5326 17.9961 28.9573C17.9961 28.382 17.5298 27.9157 16.9544 27.9157H15.0194C14.9527 27.9157 14.8875 27.9091 14.8245 27.8967C13.3051 27.7273 12.1237 26.4385 12.1237 24.8739Z" fill="#111827"/>
</svg>
