<svg width="32" height="32" viewBox="0 0 32 32" fill="none" xmlns="http://www.w3.org/2000/svg">
<path d="M4.29883 18.0414V4H19.5354L27.7012 12.2008V18.0414" stroke="#1C1B1F" stroke-width="2" stroke-linecap="round" stroke-linejoin="round"/>
<path d="M19.6149 12.1214V4.14978L27.5934 12.1214H19.6149Z" stroke="#1C1B1F" stroke-width="2" stroke-linecap="round" stroke-linejoin="round"/>
<path d="M5.04346 24.9905H7.63402C8.76239 24.9905 9.67711 24.0758 9.67711 22.9474V22.9474C9.67711 21.819 8.76239 20.9043 7.63402 20.9043H5.06651C5.05378 20.9043 5.04346 20.9146 5.04346 20.9273V28" stroke="#1C1B1F" stroke-width="2" stroke-linecap="round"/>
<path d="M13.3914 27.9999V20.9043L17.952 27.9999V20.9043" stroke="#1C1B1F" stroke-width="2" stroke-linecap="round" stroke-linejoin="round"/>
<path d="M26.9883 20.9043H25.0659C23.1881 20.9043 21.6659 22.4265 21.6659 24.3043V24.3043C21.6659 26.1821 23.1881 27.7044 25.0659 27.7044H26.9619C26.9765 27.7044 26.9883 27.6925 26.9883 27.6779V24.9324C26.9883 24.6563 26.7645 24.4324 26.4883 24.4324H24.8906" stroke="#1C1B1F" stroke-width="2" stroke-linecap="round"/>
</svg>
