<svg width="33" height="32" viewBox="0 0 33 32" fill="none" xmlns="http://www.w3.org/2000/svg">
<path fill-rule="evenodd" clip-rule="evenodd" d="M3.10071 0.000305176C2.54842 0.000305176 2.10071 0.44802 2.10071 1.00031V17.0803C2.10071 17.6325 2.54842 18.0803 3.10071 18.0803C3.65299 18.0803 4.10071 17.6325 4.10071 17.0803V2.00031H19.6402V10.3009C19.6402 10.8531 20.0879 11.3009 20.6402 11.3009H28.9006V17.0803C28.9006 17.6325 29.3484 18.0803 29.9006 18.0803C30.4529 18.0803 30.9006 17.6325 30.9006 17.0803V10.3917C30.9006 10.1272 30.7959 9.87354 30.6093 9.68613L21.258 0.294714C21.0703 0.106251 20.8153 0.000305176 20.5494 0.000305176H3.10071ZM21.6402 9.30086V3.58465L27.3614 9.30086H21.6402ZM2.09949 22.9102C2.09949 22.3579 2.5472 21.9102 3.09949 21.9102H6.15508C7.99035 21.9102 9.47812 23.398 9.47812 25.2332C9.47812 27.0685 7.99035 28.5563 6.15508 28.5563H4.09949V30.9781C4.09949 31.5304 3.65177 31.9781 3.09949 31.9781C2.5472 31.9781 2.09949 31.5304 2.09949 30.9781V27.5563V22.9102ZM4.09949 26.5563H6.15508C6.88577 26.5563 7.47812 25.9639 7.47812 25.2332C7.47812 24.5025 6.88577 23.9102 6.15508 23.9102H4.09949V26.5563ZM13.8574 21.9102C13.3051 21.9102 12.8574 22.3579 12.8574 22.9102V30.9781C12.8574 31.5304 13.3051 31.9781 13.8574 31.9781H15.8751C18.6552 31.9781 20.909 29.7244 20.909 26.9442C20.909 24.164 18.6552 21.9102 15.8751 21.9102H13.8574ZM15.8751 23.9102C17.5507 23.9102 18.909 25.2686 18.909 26.9442C18.909 28.6198 17.5507 29.9781 15.8751 29.9781H14.8574V23.9102H15.8751ZM24.0233 22.9359C24.0233 22.3836 24.471 21.9359 25.0233 21.9359H29.8699C30.4222 21.9359 30.8699 22.3836 30.8699 22.9359C30.8699 23.4882 30.4222 23.9359 29.8699 23.9359H26.0233V26.4343H29.1956C29.7479 26.4343 30.1956 26.882 30.1956 27.4343C30.1956 27.9866 29.7479 28.4343 29.1956 28.4343H26.0233V30.9997C26.0233 31.552 25.5756 31.9997 25.0233 31.9997C24.471 31.9997 24.0233 31.552 24.0233 30.9997V22.9359Z" fill="#111827"/>
</svg>
