<svg width="32" height="32" viewBox="0 0 32 32" fill="none" xmlns="http://www.w3.org/2000/svg">
<path d="M6.15906 21.6327L10.8206 27.8481" stroke="#1C1B1F" stroke-width="2" stroke-linecap="round" stroke-linejoin="round"/>
<path d="M10.8206 21.6327L6.15906 27.8481" stroke="#1C1B1F" stroke-width="2" stroke-linecap="round" stroke-linejoin="round"/>
<path d="M4 18.4225V4.02246H19.6257L28 12.4327V18.4225" stroke="#1C1B1F" stroke-width="2" stroke-linecap="round" stroke-linejoin="round"/>
<path d="M19.7072 12.3513V4.17615L27.8895 12.3513H19.7072Z" stroke="#1C1B1F" stroke-width="2" stroke-linecap="round" stroke-linejoin="round"/>
<path d="M26.3591 21.6327H23.0359C22.1777 21.6327 21.4821 22.3284 21.4821 23.1865V23.1865C21.4821 24.0447 22.1777 24.7404 23.0359 24.7404H24.7403" stroke="#1C1B1F" stroke-width="2" stroke-linecap="round"/>
<path d="M23.0565 24.7405H24.8053C25.6635 24.7405 26.3591 25.4362 26.3591 26.2943V26.2943C26.3591 27.1525 25.6635 27.8481 24.8053 27.8481H21.4821" stroke="#1C1B1F" stroke-width="2" stroke-linecap="round"/>
<path d="M18.5899 27.9776H14.9642V21.6327" stroke="#1C1B1F" stroke-width="2" stroke-linecap="round" stroke-linejoin="round"/>
</svg>
