<svg width="33" height="32" viewBox="0 0 33 32" fill="none" xmlns="http://www.w3.org/2000/svg">
<path fill-rule="evenodd" clip-rule="evenodd" d="M2.24462 0.999756C2.24462 0.447471 2.69234 -0.000244141 3.24462 -0.000244141H20.5154C20.7813 -0.000244141 21.0364 0.105702 21.224 0.294165L30.4799 9.58983C30.6666 9.77724 30.7713 10.0309 30.7713 10.2954V16.9158C30.7713 17.4681 30.3236 17.9158 29.7713 17.9158C29.219 17.9158 28.7713 17.4681 28.7713 16.9158V11.2047H20.6051C20.0529 11.2047 19.6051 10.757 19.6051 10.2047V1.99976H4.24462V16.9158C4.24462 17.4681 3.79691 17.9158 3.24462 17.9158C2.69234 17.9158 2.24462 17.4681 2.24462 16.9158V0.999756ZM24.0611 21.013C23.5088 21.013 23.0611 21.4607 23.0611 22.013C23.0611 22.5653 23.5088 23.013 24.0611 23.013H25.9094V31.0004C25.9094 31.5527 26.3571 32.0004 26.9094 32.0004C27.4616 32.0004 27.9094 31.5527 27.9094 31.0004V23.013H29.7577C30.3099 23.013 30.7577 22.5653 30.7577 22.013C30.7577 21.4607 30.3099 21.013 29.7577 21.013H26.9094H24.0611ZM21.6051 9.20471V3.58156L27.2332 9.20471H21.6051ZM2.22876 22.0471C2.22876 21.4787 2.68954 21.0179 3.25794 21.0179H6.50814C8.48883 21.0179 10.0945 22.6236 10.0945 24.6043C10.0945 26.5849 8.48883 28.1906 6.50814 28.1906H4.22876V31.0004C4.22876 31.5526 3.78104 32.0004 3.22876 32.0004C2.67647 32.0004 2.22876 31.5526 2.22876 31.0004V27.1906V22.0471ZM4.22876 26.1906H6.50814C7.38427 26.1906 8.0945 25.4804 8.0945 24.6043C8.0945 23.7281 7.38426 23.0179 6.50814 23.0179H4.22876V26.1906ZM13.8784 21.0179C13.31 21.0179 12.8492 21.4787 12.8492 22.0471V27.1906V31.0004C12.8492 31.5526 13.2969 32.0004 13.8492 32.0004C14.4015 32.0004 14.8492 31.5526 14.8492 31.0004V28.1906H17.1286C19.1093 28.1906 20.7149 26.5849 20.7149 24.6043C20.7149 22.6236 19.1093 21.0179 17.1286 21.0179H13.8784ZM17.1286 26.1906H14.8492V23.0179H17.1286C18.0047 23.0179 18.7149 23.7281 18.7149 24.6043C18.7149 25.4804 18.0047 26.1906 17.1286 26.1906Z" fill="#111827"/>
</svg>
