<svg width="32" height="32" viewBox="0 0 32 32" fill="none" xmlns="http://www.w3.org/2000/svg">
<path d="M20.9982 27.9999H26V11.0084L19.0214 3.99988H6L6 15.9821" stroke="#1C1B1F" stroke-width="2" stroke-linecap="round" stroke-linejoin="round"/>
<path d="M19.0892 10.9406V4.12793L25.9078 10.9406H19.0892Z" stroke="#1C1B1F" stroke-width="2" stroke-linecap="round" stroke-linejoin="round"/>
<path d="M9.43005 21.4661V26.0706C9.43005 27.1361 8.56629 27.9998 7.50079 27.9998V27.9998C6.43529 27.9998 5.57153 27.1361 5.57153 26.0706V25.8" stroke="#1C1B1F" stroke-width="2" stroke-linecap="round"/>
<path d="M17.7828 21.4661H14.7179C13.8158 21.4661 13.0845 22.1974 13.0845 23.0995V23.0995C13.0845 24.0016 13.8158 24.733 14.7179 24.733H16.2233" stroke="#1C1B1F" stroke-width="2" stroke-linecap="round"/>
<path d="M14.6011 24.733H16.1493C17.0514 24.733 17.7827 25.4644 17.7827 26.3665V26.3665C17.7827 27.2686 17.0514 27.9999 16.1493 27.9999H13.0844" stroke="#1C1B1F" stroke-width="2" stroke-linecap="round"/>
</svg>
