<svg width="32" height="32" viewBox="0 0 32 32" fill="none" xmlns="http://www.w3.org/2000/svg">
<path d="M21.6975 21.6974L26.3591 27.9128" stroke="#1C1B1F" stroke-width="2" stroke-linecap="round" stroke-linejoin="round"/>
<path d="M26.3591 21.6974L21.6975 27.9128" stroke="#1C1B1F" stroke-width="2" stroke-linecap="round" stroke-linejoin="round"/>
<path d="M10.3027 21.6974H5.64111" stroke="#1C1B1F" stroke-width="2" stroke-linecap="round" stroke-linejoin="round"/>
<path d="M7.97192 27.9128V21.6974" stroke="#1C1B1F" stroke-width="2" stroke-linecap="round" stroke-linejoin="round"/>
<path d="M18.0718 21.1444H14.8969C13.9624 21.1444 13.2048 21.902 13.2048 22.8365V22.8365C13.2048 23.771 13.9624 24.5286 14.8969 24.5286H16.4564" stroke="#1C1B1F" stroke-width="2" stroke-linecap="round"/>
<path d="M14.776 24.5287H16.3797C17.3142 24.5287 18.0718 25.2863 18.0718 26.2208V26.2208C18.0718 27.1553 17.3142 27.9129 16.3797 27.9129H13.2048" stroke="#1C1B1F" stroke-width="2" stroke-linecap="round"/>
<path d="M4 18.4872V4.08716H19.6257L28 12.4974V18.4872" stroke="#1C1B1F" stroke-width="2" stroke-linecap="round" stroke-linejoin="round"/>
<path d="M19.7072 12.416V4.24084L27.8895 12.416H19.7072Z" stroke="#1C1B1F" stroke-width="2" stroke-linecap="round" stroke-linejoin="round"/>
</svg>
