<svg width="32" height="32" viewBox="0 0 32 32" fill="none" xmlns="http://www.w3.org/2000/svg">
<path d="M20.8755 21.9875L25.3848 28" stroke="#1C1B1F" stroke-width="2" stroke-linecap="round" stroke-linejoin="round"/>
<path d="M25.3848 21.9875L20.8755 28" stroke="#1C1B1F" stroke-width="2" stroke-linecap="round" stroke-linejoin="round"/>
<path d="M8.84379 21.4526V26.0667C8.84379 27.1344 7.97825 27.9999 6.91054 27.9999V27.9999C5.84284 27.9999 4.97729 27.1344 4.97729 26.0667V25.7955" stroke="#1C1B1F" stroke-width="2" stroke-linecap="round"/>
<path d="M17.2138 21.4526H14.1426C13.2386 21.4526 12.5057 22.1855 12.5057 23.0895V23.0895C12.5057 23.9935 13.2386 24.7263 14.1426 24.7263H15.6511" stroke="#1C1B1F" stroke-width="2" stroke-linecap="round"/>
<path d="M14.0256 24.7263H15.5769C16.4809 24.7263 17.2137 25.4591 17.2137 26.3631V26.3631C17.2137 27.2671 16.4809 28 15.5769 28H12.5057" stroke="#1C1B1F" stroke-width="2" stroke-linecap="round"/>
<path d="M4.39185 17.9297V4H19.5072L27.608 12.1356V17.9297" stroke="#1C1B1F" stroke-width="2" stroke-linecap="round" stroke-linejoin="round"/>
<path d="M19.5861 12.0568V4.14856L27.5011 12.0568H19.5861Z" stroke="#1C1B1F" stroke-width="2" stroke-linecap="round" stroke-linejoin="round"/>
</svg>
