<svg width="33" height="32" viewBox="0 0 33 32" fill="none" xmlns="http://www.w3.org/2000/svg">
<path fill-rule="evenodd" clip-rule="evenodd" d="M3.00073 1.00092C3.00073 0.448631 3.44845 0.000915527 4.00073 0.000915527H20.2765C20.5425 0.000915527 20.7975 0.106861 20.9851 0.295325L29.7078 9.05546C29.8944 9.24287 29.9992 9.49658 29.9992 9.76105V30.9991C29.9992 31.5514 29.5515 31.9991 28.9992 31.9991H4.00073C3.44845 31.9991 3.00073 31.5514 3.00073 30.9991V1.00092ZM5.00073 2.00092V29.9991H27.9992V10.6763H20.3613C19.809 10.6763 19.3613 10.2286 19.3613 9.67629V2.00092H5.00073ZM11.7502 19.7498C11.7502 19.1975 12.1979 18.7498 12.7502 18.7498H20.2497C20.802 18.7498 21.2497 19.1975 21.2497 19.7498C21.2497 20.3021 20.802 20.7498 20.2497 20.7498H12.7502C12.1979 20.7498 11.7502 20.3021 11.7502 19.7498ZM21.3613 8.67629V3.57371L26.4683 8.67629H21.3613Z" fill="#111827"/>
</svg>
