<svg width="33" height="34" viewBox="0 0 33 34" fill="none" xmlns="http://www.w3.org/2000/svg">
<path d="M21.1643 33H29.8334V10.3447L20.5286 1H3.16675L3.16675 16.9763" stroke="#111827" stroke-width="2" stroke-linecap="round" stroke-linejoin="round"/>
<path d="M20.619 10.2543V1.17078L29.7105 10.2543H20.619Z" stroke="#111827" stroke-width="2" stroke-linecap="round" stroke-linejoin="round"/>
<path d="M11.1138 28.2955C12.7706 28.2955 14.1138 26.9524 14.1138 25.2955C14.1138 23.6387 12.7706 22.2955 11.1138 22.2955C9.45692 22.2955 8.11377 23.6387 8.11377 25.2955C8.11377 26.9524 9.45692 28.2955 11.1138 28.2955Z" stroke="#111827" stroke-width="2" stroke-linecap="round" stroke-linejoin="round"/>
<path d="M13.6634 33L12.7973 33.5C13.0735 33.9782 13.6851 34.1421 14.1634 33.866L13.6634 33ZM12.6722 31.2832L13.5382 30.7832C13.3133 30.3937 12.8562 30.2023 12.421 30.3152L12.6722 31.2832ZM16.5112 31.3558L17.0112 32.2218C17.2409 32.0892 17.4085 31.8708 17.4771 31.6146C17.5457 31.3584 17.5098 31.0855 17.3772 30.8558L16.5112 31.3558ZM15.5192 29.6377L14.8071 28.9357C14.4912 29.2561 14.4282 29.748 14.6532 30.1377L15.5192 29.6377ZM17.0786 26.9397V25.9397C16.6284 25.9397 16.2337 26.2405 16.1144 26.6745L17.0786 26.9397ZM19.0609 26.9397V27.9397C19.6131 27.9397 20.0609 27.492 20.0609 26.9397H19.0609ZM19.0609 23.6513H20.0609C20.0609 23.0991 19.6131 22.6513 19.0609 22.6513V23.6513ZM17.0786 23.6513L16.1144 23.9165C16.2338 24.3506 16.6284 24.6513 17.0786 24.6513V23.6513ZM15.5193 20.9533L14.6532 20.4533C14.4283 20.843 14.4912 21.3349 14.8071 21.6553L15.5193 20.9533ZM16.5112 19.2353L17.3772 19.7353C17.5098 19.5056 17.5457 19.2326 17.4771 18.9764C17.4085 18.7203 17.2409 18.5018 17.0112 18.3692L16.5112 19.2353ZM13.6634 17.5911L14.1634 16.725C13.6851 16.4489 13.0735 16.6128 12.7973 17.0911L13.6634 17.5911ZM12.6722 19.3078L12.421 20.2757C12.8563 20.3887 13.3134 20.1972 13.5382 19.8078L12.6722 19.3078ZM9.5553 19.3078L8.68928 19.8078C8.91412 20.1973 9.37127 20.3887 9.80654 20.2758L9.5553 19.3078ZM8.56412 17.5911L9.43014 17.0911C9.29754 16.8614 9.07912 16.6938 8.82294 16.6251C8.56676 16.5565 8.2938 16.5924 8.06412 16.725L8.56412 17.5911ZM5.7163 19.2353L5.2163 18.3692C4.73801 18.6454 4.57413 19.257 4.85028 19.7353L5.7163 19.2353ZM6.70829 20.9534L7.42049 21.6554C7.73633 21.335 7.79928 20.8431 7.57432 20.4534L6.70829 20.9534ZM5.14909 23.6513V24.6513C5.59925 24.6513 5.99392 24.3506 6.11329 23.9165L5.14909 23.6513ZM3.16675 23.6513V22.6513C2.61446 22.6513 2.16675 23.0991 2.16675 23.6513H3.16675ZM3.16675 26.9397H2.16675C2.16675 27.492 2.61446 27.9397 3.16675 27.9397V26.9397ZM5.14913 26.9397L6.11332 26.6745C5.99394 26.2405 5.59928 25.9397 5.14913 25.9397V26.9397ZM6.70833 29.6375L7.57435 30.1375C7.79932 29.7479 7.73636 29.256 7.42051 28.9355L6.70833 29.6375ZM5.71631 31.3558L4.85028 30.8558C4.57414 31.3341 4.73801 31.9456 5.21631 32.2218L5.71631 31.3558ZM8.56412 33L8.06412 33.866C8.29381 33.9986 8.56676 34.0345 8.82294 33.9659C9.07912 33.8972 9.29754 33.7296 9.43015 33.5L8.56412 33ZM9.55535 31.2831L9.80657 30.3152C9.37131 30.2022 8.91417 30.3937 8.68932 30.7831L9.55535 31.2831ZM14.5294 32.5L13.5382 30.7832L11.8061 31.7832L12.7973 33.5L14.5294 32.5ZM16.0112 30.4897L13.1634 32.1339L14.1634 33.866L17.0112 32.2218L16.0112 30.4897ZM14.6532 30.1377L15.6451 31.8558L17.3772 30.8558L16.3853 29.1377L14.6532 30.1377ZM16.1144 26.6745C15.8768 27.5384 15.4204 28.3134 14.8071 28.9357L16.2314 30.3397C17.0789 29.4799 17.7124 28.406 18.0428 27.2049L16.1144 26.6745ZM19.0609 25.9397H17.0786V27.9397H19.0609V25.9397ZM18.0609 23.6513V26.9397H20.0609V23.6513H18.0609ZM17.0786 24.6513H19.0609V22.6513H17.0786V24.6513ZM14.8071 21.6553C15.4205 22.2776 15.8768 23.0526 16.1144 23.9165L18.0428 23.3862C17.7124 22.185 17.079 21.1111 16.2314 20.2513L14.8071 21.6553ZM15.6452 18.7353L14.6532 20.4533L16.3853 21.4533L17.3772 19.7353L15.6452 18.7353ZM13.1634 18.4571L16.0112 20.1013L17.0112 18.3692L14.1634 16.725L13.1634 18.4571ZM13.5382 19.8078L14.5294 18.0911L12.7973 17.0911L11.8062 18.8078L13.5382 19.8078ZM11.1138 20.1098C11.5666 20.1098 12.0045 20.1676 12.421 20.2757L12.9234 18.3399C12.3442 18.1895 11.7376 18.1098 11.1138 18.1098V20.1098ZM9.80654 20.2758C10.2231 20.1676 10.661 20.1098 11.1138 20.1098V18.1098C10.49 18.1098 9.88333 18.1896 9.30407 18.3399L9.80654 20.2758ZM7.69809 18.0911L8.68928 19.8078L10.4213 18.8078L9.43014 17.0911L7.69809 18.0911ZM6.2163 20.1013L9.06412 18.4571L8.06412 16.725L5.2163 18.3692L6.2163 20.1013ZM7.57432 20.4534L6.58233 18.7353L4.85028 19.7353L5.84227 21.4534L7.57432 20.4534ZM6.11329 23.9165C6.35087 23.0527 6.80716 22.2777 7.42049 21.6554L5.9961 20.2514C5.14862 21.1113 4.51522 22.1851 4.18489 23.3862L6.11329 23.9165ZM3.16675 24.6513H5.14909V22.6513H3.16675V24.6513ZM4.16675 26.9397V23.6513H2.16675V26.9397H4.16675ZM5.14913 25.9397H3.16675V27.9397H5.14913V25.9397ZM7.42051 28.9355C6.8072 28.3133 6.35091 27.5383 6.11332 26.6745L4.18493 27.2049C4.51528 28.406 5.14867 29.4797 5.99614 30.3395L7.42051 28.9355ZM6.58233 31.8558L7.57435 30.1375L5.8423 29.1375L4.85028 30.8558L6.58233 31.8558ZM9.06412 32.1339L6.21631 30.4897L5.21631 32.2218L8.06412 33.866L9.06412 32.1339ZM8.68932 30.7831L7.6981 32.5L9.43015 33.5L10.4214 31.7831L8.68932 30.7831ZM11.1138 30.4811C10.661 30.4811 10.2231 30.4233 9.80657 30.3152L9.30412 32.251C9.88337 32.4014 10.49 32.4811 11.1138 32.4811V30.4811ZM12.421 30.3152C12.0045 30.4233 11.5666 30.4811 11.1138 30.4811V32.4811C11.7376 32.4811 12.3442 32.4014 12.9234 32.2511L12.421 30.3152Z" fill="#111827"/>
</svg>
