<svg width="33" height="32" viewBox="0 0 33 32" fill="none" xmlns="http://www.w3.org/2000/svg">
<path fill-rule="evenodd" clip-rule="evenodd" d="M3.00073 1.00092C3.00073 0.448631 3.44845 0.000915527 4.00073 0.000915527H20.2765C20.5425 0.000915527 20.7975 0.106861 20.9851 0.295325L29.7078 9.05546C29.8944 9.24287 29.9992 9.49658 29.9992 9.76105V30.9991C29.9992 31.5514 29.5515 31.9991 28.9992 31.9991H4.00073C3.44845 31.9991 3.00073 31.5514 3.00073 30.9991V1.00092ZM5.00073 2.00092V29.9991H27.9992V10.6763H20.3613C19.809 10.6763 19.3613 10.2286 19.3613 9.67629V2.00092H5.00073ZM12.4993 19.1248C12.4993 17.261 14.0102 15.7501 15.874 15.7501C17.7378 15.7501 19.2488 17.261 19.2488 19.1248C19.2488 20.9886 17.7378 22.4995 15.874 22.4995C14.0102 22.4995 12.4993 20.9886 12.4993 19.1248ZM15.874 13.7501C12.9056 13.7501 10.4993 16.1564 10.4993 19.1248C10.4993 22.0932 12.9056 24.4995 15.874 24.4995C16.9969 24.4995 18.0393 24.1552 18.9015 23.5664L20.7603 25.4252C21.1508 25.8157 21.784 25.8157 22.1745 25.4252C22.565 25.0346 22.565 24.4015 22.1745 24.0109L20.3157 22.1521C20.9045 21.29 21.2488 20.2476 21.2488 19.1248C21.2488 16.1564 18.8424 13.7501 15.874 13.7501ZM21.3613 8.67629V3.57371L26.4683 8.67629H21.3613Z" fill="#111827"/>
</svg>
