<svg width="33" height="32" viewBox="0 0 33 32" fill="none" xmlns="http://www.w3.org/2000/svg">
<path fill-rule="evenodd" clip-rule="evenodd" d="M3.00073 1.00085C3.00073 0.44857 3.44845 0.000854492 4.00073 0.000854492H20.2765C20.5425 0.000854492 20.7975 0.1068 20.9851 0.295264L29.7078 9.05539C29.8944 9.24281 29.9992 9.49651 29.9992 9.76099V30.999C29.9992 31.5513 29.5515 31.999 28.9992 31.999H23.9972C23.445 31.999 22.9972 31.5513 22.9972 30.999C22.9972 30.4467 23.445 29.999 23.9972 29.999H27.9992V10.6762H20.3612C19.8089 10.6762 19.3612 10.2285 19.3612 9.67622V2.00085H5.00073V15.9777C5.00073 16.53 4.55302 16.9777 4.00073 16.9777C3.44845 16.9777 3.00073 16.53 3.00073 15.9777V1.00085ZM14.1708 19.0954C14.5286 19.1027 14.8553 19.3005 15.0274 19.6143L21.0095 30.518C21.1795 30.8278 21.1733 31.2044 20.9933 31.5084C20.8133 31.8125 20.4862 31.999 20.1328 31.999H4.00073C3.6464 31.999 3.31853 31.8115 3.13885 31.5061C2.95917 31.2007 2.95451 30.8231 3.1266 30.5133L7.6867 22.3062C7.85704 21.9996 8.17553 21.8047 8.52603 21.7924C8.87653 21.7802 9.20781 21.9525 9.39906 22.2465L10.5876 24.0734L13.2941 19.5793C13.4787 19.2728 13.8131 19.0882 14.1708 19.0954ZM14.1103 22.1007L11.4769 26.4734C11.2992 26.7685 10.9821 26.9513 10.6377 26.9573C10.2932 26.9633 9.96994 26.7915 9.78208 26.5028L8.62831 24.7293L5.70035 29.999H18.4436L14.1103 22.1007ZM21.3612 8.67622V3.57364L26.4682 8.67622H21.3612Z" fill="#111827"/>
</svg>
