<svg width="32" height="32" viewBox="0 0 32 32" fill="none" xmlns="http://www.w3.org/2000/svg">
<path d="M4.41577 17.901V4H19.5L27.5841 12.1188V17.901" stroke="#1C1B1F" stroke-width="2" stroke-linecap="round" stroke-linejoin="round"/>
<path d="M19.5786 12.0402V4.14832L27.4774 12.0402H19.5786Z" stroke="#1C1B1F" stroke-width="2" stroke-linecap="round" stroke-linejoin="round"/>
<path d="M8.59246 21.5078V26.083C8.59246 27.1417 7.73421 27.9999 6.6755 27.9999V27.9999C5.6168 27.9999 4.75854 27.1417 4.75854 26.083V25.8141" stroke="#1C1B1F" stroke-width="2" stroke-linecap="round"/>
<path d="M13.2841 25.1159H15.7667C16.848 25.1159 17.7246 24.2393 17.7246 23.1579V23.1579C17.7246 22.0766 16.848 21.2 15.7667 21.2H13.3062C13.2939 21.2 13.2841 21.2098 13.2841 21.222V28" stroke="#1C1B1F" stroke-width="2" stroke-linecap="round"/>
<path d="M26.7559 21.2H24.8335C22.9557 21.2 21.4335 22.7222 21.4335 24.6V24.6C21.4335 26.4778 22.9557 28 24.8335 28H26.7294C26.7441 28 26.7559 27.9882 26.7559 27.9735V25.2281C26.7559 24.9519 26.5321 24.7281 26.2559 24.7281H24.6582" stroke="#1C1B1F" stroke-width="2" stroke-linecap="round"/>
</svg>
