<svg width="33" height="32" viewBox="0 0 33 32" fill="none" xmlns="http://www.w3.org/2000/svg">
<path fill-rule="evenodd" clip-rule="evenodd" d="M2.44672 0C1.89443 0 1.44672 0.447715 1.44672 1V17.8639C1.44672 18.4162 1.89443 18.8639 2.44672 18.8639C2.999 18.8639 3.44672 18.4162 3.44672 17.8639V2H19.8417V10.7542C19.8417 11.3065 20.2894 11.7542 20.8417 11.7542H29.5533V17.8639C29.5533 18.4162 30.001 18.8639 30.5533 18.8639C31.1056 18.8639 31.5533 18.4162 31.5533 17.8639V10.8493C31.5533 10.5848 31.4485 10.3311 31.2619 10.1437L21.4547 0.294409C21.2671 0.105946 21.0121 0 20.7461 0H2.44672ZM3.45088 23.56C3.45088 23.0077 3.00317 22.56 2.45088 22.56C1.8986 22.56 1.45088 23.0077 1.45088 23.56V27.28V30.9998C1.45088 31.5521 1.8986 31.9998 2.45088 31.9998C3.00317 31.9998 3.45088 31.5521 3.45088 30.9998V28.28H6.01423V30.9998C6.01423 31.5521 6.46195 31.9998 7.01423 31.9998C7.56651 31.9998 8.01423 31.5521 8.01423 30.9998V23.56C8.01423 23.0077 7.56651 22.56 7.01423 22.56C6.46195 22.56 6.01423 23.0077 6.01423 23.56V26.28H3.45088V23.56ZM9.29546 23.56C9.29546 23.0077 9.74318 22.56 10.2955 22.56H12.4831H14.6696C15.2219 22.56 15.6696 23.0077 15.6696 23.56C15.6696 24.1123 15.2219 24.56 14.6696 24.56H13.4831V30.9998C13.4831 31.5521 13.0354 31.9998 12.4831 31.9998C11.9308 31.9998 11.4831 31.5521 11.4831 30.9998V24.56H10.2955C9.74318 24.56 9.29546 24.1123 9.29546 23.56ZM27.2487 22.56C27.8009 22.56 28.2487 23.0077 28.2487 23.56V29.9998H30.5299C31.0822 29.9998 31.5299 30.4475 31.5299 30.9998C31.5299 31.5521 31.0822 31.9998 30.5299 31.9998H27.2487C26.6964 31.9998 26.2487 31.5521 26.2487 30.9998V23.56C26.2487 23.0077 26.6964 22.56 27.2487 22.56ZM21.8417 3.5929V9.7542H28.0083L21.8417 3.5929ZM18.8678 23.0999C18.6556 22.6905 18.1911 22.4792 17.7431 22.5884C17.2952 22.6976 16.9799 23.0989 16.9799 23.56V30.9998C16.9799 31.5521 17.4276 31.9998 17.9799 31.9998C18.5322 31.9998 18.9799 31.5521 18.9799 30.9998V27.663L19.8564 29.3543C20.027 29.6835 20.3658 29.8913 20.7366 29.8941C21.1074 29.897 21.4493 29.6944 21.625 29.3678L22.6129 27.5308V30.9998C22.6129 31.5521 23.0606 31.9998 23.6129 31.9998C24.1652 31.9998 24.6129 31.5521 24.6129 30.9998V23.56C24.6129 23.1018 24.3015 22.7022 23.8571 22.5903C23.4128 22.4784 22.9492 22.6828 22.7322 23.0863L20.7606 26.7524L18.8678 23.0999Z" fill="#111827"/>
</svg>
