<svg width="32" height="32" viewBox="0 0 32 32" fill="none" xmlns="http://www.w3.org/2000/svg">
<path d="M4.76367 17.4836V4H19.395L27.2364 11.875V17.4836" stroke="#1C1B1F" stroke-width="2" stroke-linecap="round" stroke-linejoin="round"/>
<path d="M19.4713 11.7988V4.14386L27.1329 11.7988H19.4713Z" stroke="#1C1B1F" stroke-width="2" stroke-linecap="round" stroke-linejoin="round"/>
<path d="M9.40722 21.5424H7.99246C6.20925 21.5424 4.76367 22.988 4.76367 24.7712V24.7712C4.76367 26.5544 6.20925 28 7.99246 28H9.40722" stroke="#1C1B1F" stroke-width="2" stroke-linecap="round"/>
<path d="M17.9921 21.5424H14.9629C14.0713 21.5424 13.3485 22.2652 13.3485 23.1568V23.1568C13.3485 24.0484 14.0713 24.7712 14.9629 24.7712H16.4507" stroke="#1C1B1F" stroke-width="2" stroke-linecap="round"/>
<path d="M26.5771 21.5424H23.548C22.6564 21.5424 21.9336 22.2652 21.9336 23.1568V23.1568C21.9336 24.0484 22.6564 24.7712 23.548 24.7712H25.0358" stroke="#1C1B1F" stroke-width="2" stroke-linecap="round"/>
<path d="M14.8476 24.7712H16.3777C17.2693 24.7712 17.9921 25.494 17.9921 26.3856V26.3856C17.9921 27.2772 17.2693 28 16.3777 28H13.3485" stroke="#1C1B1F" stroke-width="2" stroke-linecap="round"/>
<path d="M23.4325 24.7712H24.9626C25.8542 24.7712 26.577 25.494 26.577 26.3856V26.3856C26.577 27.2772 25.8542 28 24.9626 28H21.9335" stroke="#1C1B1F" stroke-width="2" stroke-linecap="round"/>
</svg>
