<svg width="33" height="32" viewBox="0 0 33 32" fill="none" xmlns="http://www.w3.org/2000/svg">
<path fill-rule="evenodd" clip-rule="evenodd" d="M1.88354 1.00122C1.88354 0.448936 2.33126 0.0012207 2.88354 0.0012207H20.6044C20.8703 0.0012207 21.1253 0.107166 21.313 0.29563L30.8101 9.83354C30.9967 10.0209 31.1015 10.2747 31.1015 10.5391V17.332C31.1015 17.8843 30.6538 18.332 30.1015 18.332C29.5492 18.332 29.1015 17.8843 29.1015 17.332V11.4467H20.697C20.1447 11.4467 19.697 10.999 19.697 10.4467V2.00122H3.88354V17.332C3.88354 17.8843 3.43583 18.332 2.88354 18.332C2.33126 18.332 1.88354 17.8843 1.88354 17.332V1.00122ZM21.697 3.58811V9.44672H27.5607L21.697 3.58811ZM3.69653 21.8437C3.36945 21.3987 2.74355 21.3031 2.29853 21.6302C1.85351 21.9572 1.75791 22.5831 2.08498 23.0282L4.79112 26.7101L2.08498 30.392C1.75791 30.837 1.85351 31.4629 2.29853 31.79C2.74355 32.1171 3.36945 32.0215 3.69653 31.5765L6.03217 28.3986L8.36781 31.5765C8.69488 32.0215 9.32079 32.1171 9.7658 31.79C10.2108 31.4629 10.3064 30.837 9.97935 30.392L7.27321 26.7101L9.97935 23.0282C10.3064 22.5831 10.2108 21.9572 9.7658 21.6302C9.32079 21.3031 8.69488 21.3987 8.36781 21.8437L6.03217 25.0215L3.69653 21.8437ZM25.6838 21.436C23.9493 21.436 22.5431 22.8422 22.5431 24.5767C22.5431 26.2985 23.9287 27.6967 25.6456 27.7172L25.6643 27.7174H25.6647L25.6838 27.7174H27.9346L27.9454 27.7174H27.9749C28.6049 27.7174 29.1156 28.2281 29.1156 28.8581C29.1156 29.488 28.6049 29.9987 27.9749 29.9987H23.5423C22.99 29.9987 22.5423 30.4465 22.5423 30.9987C22.5423 31.551 22.99 31.9987 23.5423 31.9987H27.9749C29.7094 31.9987 31.1156 30.5926 31.1156 28.8581C31.1156 27.1235 29.7094 25.7174 27.9749 25.7174H25.6723C25.0476 25.7112 24.5431 25.2029 24.5431 24.5767C24.5431 23.9468 25.0538 23.436 25.6838 23.436H30.1164C30.6687 23.436 31.1164 22.9883 31.1164 22.436C31.1164 21.8838 30.6687 21.436 30.1164 21.436H25.6838ZM15.7584 22.436C15.7584 21.8838 15.3107 21.436 14.7584 21.436C14.2061 21.436 13.7584 21.8838 13.7584 22.436V30.9876C13.7584 31.5399 14.2061 31.9876 14.7584 31.9876H19.6451C20.1974 31.9876 20.6451 31.5399 20.6451 30.9876C20.6451 30.4354 20.1974 29.9876 19.6451 29.9876H15.7584V22.436Z" fill="#111827"/>
</svg>
