<svg width="33" height="32" viewBox="0 0 33 32" fill="none" xmlns="http://www.w3.org/2000/svg">
<path fill-rule="evenodd" clip-rule="evenodd" d="M1.80786 1.00159C1.80786 0.449302 2.25558 0.00158691 2.80786 0.00158691H20.6369C20.9029 0.00158691 21.1579 0.107533 21.3455 0.295996L30.9007 9.89215C31.0873 10.0796 31.192 10.3333 31.192 10.5977V17.4321C31.192 17.9844 30.7443 18.4321 30.192 18.4321C29.6398 18.4321 29.192 17.9844 29.192 17.4321V11.5048H20.7299C20.1776 11.5048 19.7299 11.057 19.7299 10.5048V2.00159H3.80786V17.4321C3.80786 17.9844 3.36015 18.4321 2.80786 18.4321C2.25558 18.4321 1.80786 17.9844 1.80786 17.4321V1.00159ZM25.6059 22.1396C25.0536 22.1396 24.6059 22.5873 24.6059 23.1396V27.0691V30.9984C24.6059 31.5507 25.0536 31.9984 25.6059 31.9984H30.1901C30.7424 31.9984 31.1901 31.5507 31.1901 30.9984C31.1901 30.4461 30.7424 29.9984 30.1901 29.9984H26.6059V28.0691H29.5352C30.0875 28.0691 30.5352 27.6214 30.5352 27.0691C30.5352 26.5169 30.0875 26.0691 29.5352 26.0691H26.6059V24.1396H30.1901C30.7424 24.1396 31.1901 23.6919 31.1901 23.1396C31.1901 22.5873 30.7424 22.1396 30.1901 22.1396H25.6059ZM21.7299 9.50475V3.58952L27.6502 9.50475H21.7299ZM2.48721 22.2078C3.0018 22.0073 3.58152 22.2619 3.78205 22.7765L5.95014 28.3405L8.31246 22.7503C8.52745 22.2416 9.11413 22.0035 9.62285 22.2185C10.1316 22.4335 10.3697 23.0201 10.1547 23.5289L6.83372 31.3876C6.67529 31.7625 6.30543 32.004 5.89846 31.9982C5.49149 31.9925 5.12861 31.7406 4.98083 31.3614L1.91853 23.5027C1.71801 22.9881 1.97261 22.4084 2.48721 22.2078ZM15.4728 23.1396C15.4728 22.5873 15.0251 22.1396 14.4728 22.1396C13.9205 22.1396 13.4728 22.5873 13.4728 23.1396V28.9984C13.4728 30.6552 14.8159 31.9984 16.4728 31.9984H18.2794C19.9363 31.9984 21.2794 30.6552 21.2794 28.9984V23.1396C21.2794 22.5873 20.8317 22.1396 20.2794 22.1396C19.7271 22.1396 19.2794 22.5873 19.2794 23.1396V28.9984C19.2794 29.5507 18.8317 29.9984 18.2794 29.9984H16.4728C15.9205 29.9984 15.4728 29.5507 15.4728 28.9984V23.1396Z" fill="#111827"/>
</svg>
