<svg width="33" height="32" viewBox="0 0 33 32" fill="none" xmlns="http://www.w3.org/2000/svg">
<path fill-rule="evenodd" clip-rule="evenodd" d="M4.00073 0.000915527C3.44845 0.000915527 3.00073 0.448631 3.00073 1.00092V30.9991C3.00073 31.5514 3.44845 31.9991 4.00073 31.9991H28.9992C29.5515 31.9991 29.9992 31.5514 29.9992 30.9991V9.76105C29.9992 9.49658 29.8944 9.24287 29.7078 9.05546L20.9851 0.295325C20.7975 0.106861 20.5425 0.000915527 20.2765 0.000915527H4.00073ZM5.00073 29.9991V2.00092H19.3613V9.67629C19.3613 10.2286 19.809 10.6763 20.3613 10.6763H27.9992V29.9991H5.00073ZM21.3613 8.67629V3.57371L26.4683 8.67629H21.3613ZM16.5002 25.5038C17.0525 25.5038 17.5002 25.0561 17.5002 24.5038V17.1645L20.3072 19.9715C20.6978 20.362 21.3309 20.362 21.7215 19.9715C22.112 19.581 22.112 18.9478 21.7215 18.5573L17.2164 14.0522C17.1838 14.0188 17.1488 13.9876 17.1119 13.959C17.0455 13.9075 16.9742 13.8656 16.8997 13.8331C16.8061 13.7923 16.705 13.7654 16.599 13.755C16.3112 13.7265 16.0134 13.8225 15.7929 14.043L11.2786 18.5573C10.8881 18.9478 10.8881 19.581 11.2786 19.9715C11.6691 20.362 12.3023 20.362 12.6928 19.9715L15.5002 17.1641V24.5038C15.5002 25.0561 15.9479 25.5038 16.5002 25.5038Z" fill="#111827"/>
</svg>
