<svg width="33" height="32" viewBox="0 0 33 32" fill="none" xmlns="http://www.w3.org/2000/svg">
<path fill-rule="evenodd" clip-rule="evenodd" d="M3.00073 1.00085C3.00073 0.44857 3.44845 0.000854492 4.00073 0.000854492H20.2765C20.5424 0.000854492 20.7974 0.1068 20.9851 0.295264L29.7078 9.05538C29.8944 9.24279 29.9991 9.49649 29.9991 9.76097V30.9989C29.9991 31.5512 29.5514 31.9989 28.9991 31.9989H22.7473C22.195 31.9989 21.7473 31.5512 21.7473 30.9989C21.7473 30.4467 22.195 29.9989 22.7473 29.9989H27.9991V10.6762H20.3611C19.8089 10.6762 19.3611 10.2285 19.3611 9.6762V2.00085H5.00073V15.9777C5.00073 16.53 4.55302 16.9777 4.00073 16.9777C3.44845 16.9777 3.00073 16.53 3.00073 15.9777V1.00085ZM4.00073 22.4994C3.44845 22.4994 3.00073 22.9472 3.00073 23.4994C3.00073 24.0517 3.44845 24.4994 4.00073 24.4994H5.813V30.999C5.813 31.5513 6.26071 31.999 6.813 31.999C7.36528 31.999 7.813 31.5513 7.813 30.999V24.4994H9.62537C10.1777 24.4994 10.6254 24.0517 10.6254 23.4994C10.6254 22.9472 10.1777 22.4994 9.62537 22.4994H6.813H4.00073ZM21.3611 8.6762V3.57364L26.4681 8.6762H21.3611ZM12.5638 24.8739C12.5638 23.194 13.9256 21.8322 15.6055 21.8322H19.4363C19.9886 21.8322 20.4363 22.2799 20.4363 22.8322C20.4363 23.3845 19.9886 23.8322 19.4363 23.8322H15.6055C15.0302 23.8322 14.5638 24.2986 14.5638 24.8739C14.5638 25.4492 15.0302 25.9156 15.6055 25.9156H17.4871C17.5295 25.9156 17.5714 25.9182 17.6124 25.9233C19.1906 26.0351 20.4361 27.3508 20.4361 28.9573C20.4361 30.6372 19.0743 31.999 17.3944 31.999H13.5636C13.0113 31.999 12.5636 31.5513 12.5636 30.999C12.5636 30.4467 13.0113 29.999 13.5636 29.999H17.3944C17.9697 29.999 18.4361 29.5326 18.4361 28.9573C18.4361 28.382 17.9697 27.9157 17.3944 27.9157H15.4594C15.3926 27.9157 15.3274 27.9091 15.2643 27.8967C13.745 27.7271 12.5638 26.4384 12.5638 24.8739Z" fill="#111827"/>
</svg>
