<svg width="32" height="32" viewBox="0 0 32 32" fill="none" xmlns="http://www.w3.org/2000/svg">
<path d="M26 21H21.5" stroke="#1C1B1F" stroke-width="2" stroke-linecap="round" stroke-linejoin="round"/>
<path d="M23.75 28V21" stroke="#1C1B1F" stroke-width="2" stroke-linecap="round" stroke-linejoin="round"/>
<path d="M4.29883 18.0414V4H19.5354L27.7012 12.2008V18.0414" stroke="#1C1B1F" stroke-width="2" stroke-linecap="round" stroke-linejoin="round"/>
<path d="M19.6149 12.1214V4.14978L27.5934 12.1214H19.6149Z" stroke="#1C1B1F" stroke-width="2" stroke-linecap="round" stroke-linejoin="round"/>
<path d="M5.04346 24.9905H7.63402C8.76239 24.9905 9.67711 24.0758 9.67711 22.9474V22.9474C9.67711 21.819 8.76239 20.9043 7.63402 20.9043H5.06651C5.05378 20.9043 5.04346 20.9146 5.04346 20.9273V28" stroke="#1C1B1F" stroke-width="2" stroke-linecap="round"/>
<path d="M13.4332 24.9905H16.0237C17.1521 24.9905 18.0668 24.0758 18.0668 22.9474V22.9474C18.0668 21.819 17.1521 20.9043 16.0237 20.9043H13.4562C13.4435 20.9043 13.4332 20.9146 13.4332 20.9273V28" stroke="#1C1B1F" stroke-width="2" stroke-linecap="round"/>
</svg>
