<svg width="32" height="32" viewBox="0 0 32 32" fill="none" xmlns="http://www.w3.org/2000/svg">
<path d="M20.9982 28H26V11.0085L19.0214 4H6L6 15.9823" stroke="#1C1B1F" stroke-width="2" stroke-linecap="round" stroke-linejoin="round"/>
<path d="M19.0892 10.9407V4.12805L25.9078 10.9407H19.0892Z" stroke="#1C1B1F" stroke-width="2" stroke-linecap="round" stroke-linejoin="round"/>
<path d="M17.717 19.1281C18.1229 19.5339 18.4448 20.0157 18.6645 20.546C18.8841 21.0762 18.9971 21.6445 18.9971 22.2185C18.9971 22.7924 18.8841 23.3608 18.6645 23.891C18.4448 24.4213 18.1229 24.9031 17.717 25.3089" stroke="#1C1B1F" stroke-width="2" stroke-linecap="round" stroke-linejoin="round"/>
<path d="M9.2865 19.9776L9.2865 24.665" stroke="#1C1B1F" stroke-width="2" stroke-linecap="round" stroke-linejoin="round"/>
<path d="M13.6559 28V16.4692L9.37485 19.9066H8.42177C7.08427 19.9066 6 20.9909 6 22.3284C6 23.6659 7.08426 24.7502 8.42177 24.7502H9.37485L13.6559 28Z" stroke="#1C1B1F" stroke-width="2" stroke-linecap="round" stroke-linejoin="round"/>
</svg>
