<svg width="33" height="32" viewBox="0 0 33 32" fill="none" xmlns="http://www.w3.org/2000/svg">
<path fill-rule="evenodd" clip-rule="evenodd" d="M3.00073 1.00085C3.00073 0.44857 3.44845 0.000854492 4.00073 0.000854492H20.2765C20.5425 0.000854492 20.7975 0.1068 20.9851 0.295264L29.7078 9.0554C29.8944 9.24281 29.9992 9.49651 29.9992 9.76099V30.999C29.9992 31.5513 29.5515 31.999 28.9992 31.999H22.7473C22.195 31.999 21.7473 31.5513 21.7473 30.999C21.7473 30.4467 22.195 29.999 22.7473 29.999H27.9992V10.6762H20.3613C19.809 10.6762 19.3613 10.2285 19.3613 9.67623V2.00085H5.00073V15.9778C5.00073 16.53 4.55302 16.9778 4.00073 16.9778C3.44845 16.9778 3.00073 16.53 3.00073 15.9778V1.00085ZM4.00073 22.4995C3.44845 22.4995 3.00073 22.9472 3.00073 23.4995C3.00073 24.0518 3.44845 24.4995 4.00073 24.4995H5.81312V30.999C5.81312 31.5513 6.26084 31.999 6.81312 31.999C7.36541 31.999 7.81312 31.5513 7.81312 30.999V24.4995H9.62539C10.1777 24.4995 10.6254 24.0518 10.6254 23.4995C10.6254 22.9472 10.1777 22.4995 9.62539 22.4995H6.81312H4.00073ZM21.3613 8.67623V3.57364L26.4683 8.67623H21.3613ZM20.3101 22.6196C20.7344 22.9731 20.7918 23.6037 20.4383 24.028L17.8013 27.1935L20.4383 30.3589C20.7918 30.7833 20.7344 31.4138 20.3101 31.7673C19.8858 32.1208 19.2552 32.0634 18.9017 31.6391L16.4997 28.7558L14.0978 31.6391C13.7443 32.0634 13.1137 32.1208 12.6894 31.7673C12.2651 31.4138 12.2076 30.7833 12.5611 30.3589L15.1982 27.1935L12.5611 24.028C12.2076 23.6037 12.2651 22.9731 12.6894 22.6196C13.1137 22.2661 13.7443 22.3235 14.0978 22.7479L16.4997 25.6311L18.9017 22.7479C19.2552 22.3235 19.8858 22.2661 20.3101 22.6196Z" fill="#111827"/>
</svg>
