<svg width="32" height="32" viewBox="0 0 32 32" fill="none" xmlns="http://www.w3.org/2000/svg">
<path d="M4.76367 17.4836V4H19.395L27.2364 11.875V17.4836" stroke="#1C1B1F" stroke-width="2" stroke-linecap="round" stroke-linejoin="round"/>
<path d="M19.4713 11.7988V4.14386L27.1329 11.7988H19.4713Z" stroke="#1C1B1F" stroke-width="2" stroke-linecap="round" stroke-linejoin="round"/>
<path d="M16.3451 28C17.9113 28 19.1809 26.5554 19.1809 24.7733C19.1809 22.9913 17.9113 21.5467 16.3451 21.5467C14.7789 21.5467 13.5092 22.9913 13.5092 24.7733C13.5092 26.5554 14.7789 28 16.3451 28Z" stroke="#1C1B1F" stroke-width="2" stroke-linecap="round" stroke-linejoin="round"/>
<path d="M4.76368 21.5424H6.17843C7.96165 21.5424 9.40723 22.988 9.40723 24.7712C9.40723 26.5544 7.96165 28 6.17844 28H4.76368V21.5424Z" stroke="#1C1B1F" stroke-width="2" stroke-linecap="round" stroke-linejoin="round"/>
<path d="M27.2363 21.5424H25.8216C24.0384 21.5424 22.5928 22.988 22.5928 24.7712V24.7712C22.5928 26.5544 24.0384 28 25.8216 28H27.2363" stroke="#1C1B1F" stroke-width="2" stroke-linecap="round"/>
</svg>
