<svg width="33" height="32" viewBox="0 0 33 32" fill="none" xmlns="http://www.w3.org/2000/svg">
<path fill-rule="evenodd" clip-rule="evenodd" d="M4.00073 0.000976562C3.44845 0.000976562 3.00073 0.448692 3.00073 1.00098V30.9991C3.00073 31.5514 3.44845 31.9991 4.00073 31.9991H28.9992C29.5515 31.9991 29.9992 31.5514 29.9992 30.9991V9.76111C29.9992 9.49664 29.8944 9.24293 29.7078 9.05552L20.9851 0.295386C20.7975 0.106922 20.5425 0.000976562 20.2765 0.000976562H4.00073ZM5.00073 29.9991V2.00098H8.86008V4.0011H8.30292C7.75063 4.0011 7.30292 4.44881 7.30292 5.0011C7.30292 5.55338 7.75063 6.0011 8.30292 6.0011H8.86008V8.0011H8.30292C7.75063 8.0011 7.30292 8.44881 7.30292 9.0011C7.30292 9.55338 7.75063 10.0011 8.30292 10.0011H8.86008V12.0011H8.30292C7.75063 12.0011 7.30292 12.4488 7.30292 13.0011C7.30292 13.5534 7.75063 14.0011 8.30292 14.0011H8.86008V16H10.8601V14.0011H11.4171C11.9693 14.0011 12.4171 13.5534 12.4171 13.0011C12.4171 12.4488 11.9693 12.0011 11.4171 12.0011H10.8601V10.0011H11.4171C11.9693 10.0011 12.4171 9.55338 12.4171 9.0011C12.4171 8.44881 11.9693 8.0011 11.4171 8.0011H10.8601V6.0011H11.4171C11.9693 6.0011 12.4171 5.55338 12.4171 5.0011C12.4171 4.44881 11.9693 4.0011 11.4171 4.0011H10.8601V2.00098H19.3613V9.67632C19.3613 10.2286 19.809 10.6763 20.3613 10.6763H27.9992V29.9991H5.00073ZM21.3613 8.67632V3.57374L26.4683 8.67632H21.3613ZM7.31519 17.0011C7.31519 16.4488 7.7629 16.0011 8.31519 16.0011H11.3732C11.9255 16.0011 12.3732 16.4488 12.3732 17.0011V19.8066L12.8095 21.3576C13.3621 23.3227 11.8853 25.2721 9.84402 25.2721C7.80269 25.2721 6.32589 23.3227 6.87857 21.3576L7.31519 19.8052V17.0011ZM9.31519 18.0011V18.9437H10.3732V18.0011H9.31519ZM8.80387 21.8991L9.07254 20.9438H10.6155L10.8842 21.8991C11.078 22.5884 10.56 23.2721 9.84402 23.2721C9.12801 23.2721 8.61002 22.5884 8.80387 21.8991Z" fill="#111827"/>
</svg>
