<svg width="33" height="32" viewBox="0 0 33 32" fill="none" xmlns="http://www.w3.org/2000/svg">
<path fill-rule="evenodd" clip-rule="evenodd" d="M3.00073 1.00092C3.00073 0.448631 3.44845 0.000915527 4.00073 0.000915527H20.2765C20.5425 0.000915527 20.7975 0.106861 20.9851 0.295325L29.7078 9.05546C29.8944 9.24287 29.9992 9.49658 29.9992 9.76105V30.9991C29.9992 31.5514 29.5515 31.9991 28.9992 31.9991H4.00073C3.44845 31.9991 3.00073 31.5514 3.00073 30.9991V1.00092ZM5.00073 2.00092V29.9991H27.9992V10.6763H20.3613C19.809 10.6763 19.3613 10.2286 19.3613 9.67629V2.00092H5.00073ZM13.4573 15.2929C13.0668 14.9024 12.4336 14.9024 12.0431 15.2929C11.6526 15.6834 11.6526 16.3166 12.0431 16.7071L15.0857 19.7498L12.0431 22.7924C11.6526 23.1829 11.6526 23.8161 12.0431 24.2066C12.4336 24.5972 13.0668 24.5972 13.4573 24.2066L16.5 21.164L19.5426 24.2066C19.9332 24.5972 20.5663 24.5972 20.9568 24.2066C21.3474 23.8161 21.3474 23.1829 20.9568 22.7924L17.9142 19.7498L20.9568 16.7071C21.3474 16.3166 21.3474 15.6834 20.9568 15.2929C20.5663 14.9024 19.9332 14.9024 19.5426 15.2929L16.5 18.3355L13.4573 15.2929ZM21.3613 8.67629V3.57371L26.4683 8.67629H21.3613Z" fill="#111827"/>
</svg>
