<svg width="33" height="32" viewBox="0 0 33 32" fill="none" xmlns="http://www.w3.org/2000/svg">
<path fill-rule="evenodd" clip-rule="evenodd" d="M3.00073 1.00085C3.00073 0.44857 3.44845 0.000854492 4.00073 0.000854492H20.2765C20.5424 0.000854492 20.7974 0.1068 20.9851 0.295264L29.7078 9.05538C29.8944 9.24279 29.9992 9.4965 29.9992 9.76097V30.999C29.9992 31.5513 29.5514 31.999 28.9992 31.999H22.7473C22.195 31.999 21.7473 31.5513 21.7473 30.999C21.7473 30.4467 22.195 29.999 22.7473 29.999H27.9992V10.6762H20.3612C19.809 10.6762 19.3612 10.2285 19.3612 9.67621V2.00085H5.00073V15.9777C5.00073 16.53 4.55302 16.9777 4.00073 16.9777C3.44845 16.9777 3.00073 16.53 3.00073 15.9777V1.00085ZM10.2518 16.8084C7.78238 16.8084 5.78055 18.8102 5.78055 21.2796V22.3624H4.00354C3.45126 22.3624 3.00354 22.8101 3.00354 23.3624V30.9991C3.00354 31.5514 3.45126 31.9991 4.00354 31.9991H16.4999C17.0522 31.9991 17.4999 31.5514 17.4999 30.9991V23.3624C17.4999 22.8101 17.0522 22.3624 16.4999 22.3624H14.723V21.2796C14.723 18.8102 12.7211 16.8084 10.2518 16.8084ZM7.78055 21.2796C7.78055 19.9148 8.88695 18.8084 10.2518 18.8084C11.6166 18.8084 12.723 19.9148 12.723 21.2796V22.3623H7.78055V21.2796ZM5.00354 29.9991V24.3624H15.4999V29.9991H5.00354ZM21.3612 8.67621V3.57364L26.4683 8.67621H21.3612Z" fill="#111827"/>
</svg>
