<svg width="32" height="32" viewBox="0 0 32 32" fill="none" xmlns="http://www.w3.org/2000/svg">
<path d="M4.78638 17.4564V4H19.3881L27.2137 11.8591V17.4564" stroke="#1C1B1F" stroke-width="2" stroke-linecap="round" stroke-linejoin="round"/>
<path d="M19.4642 11.783V4.14355L27.1104 11.783H19.4642Z" stroke="#1C1B1F" stroke-width="2" stroke-linecap="round" stroke-linejoin="round"/>
<path d="M21.9216 21.507L24.1694 27.7492C24.2007 27.8361 24.323 27.8378 24.3566 27.7517L26.7952 21.507" stroke="#1C1B1F" stroke-width="2" stroke-linecap="round"/>
<path d="M9.42054 21.507H8.03289C6.23989 21.507 4.78638 22.9605 4.78638 24.7535V24.7535C4.78638 26.5465 6.23989 28 8.03289 28H9.42054" stroke="#1C1B1F" stroke-width="2" stroke-linecap="round"/>
<path d="M17.988 21.507H14.9771C14.0806 21.507 13.3539 22.2337 13.3539 23.1302V23.1302C13.3539 24.0267 14.0806 24.7535 14.9771 24.7535H16.4498" stroke="#1C1B1F" stroke-width="2" stroke-linecap="round"/>
<path d="M14.8499 24.7535H16.3648C17.2613 24.7535 17.988 25.4802 17.988 26.3767V26.3767C17.988 27.2732 17.2613 28 16.3648 28H13.3539" stroke="#1C1B1F" stroke-width="2" stroke-linecap="round"/>
</svg>
