<svg width="33" height="32" viewBox="0 0 33 32" fill="none" xmlns="http://www.w3.org/2000/svg">
<path fill-rule="evenodd" clip-rule="evenodd" d="M2.1859 0.999023C2.1859 0.446739 2.63362 -0.000976562 3.1859 -0.000976562H20.5301C20.796 -0.000976562 21.051 0.104969 21.2387 0.293433L30.534 9.62861C30.7206 9.81602 30.8253 10.0697 30.8253 10.3342V16.9827C30.8253 17.535 30.3776 17.9827 29.8253 17.9827C29.2731 17.9827 28.8253 17.535 28.8253 16.9827V11.2439H20.6204C20.0681 11.2439 19.6204 10.7962 19.6204 10.2439V1.99902H4.1859V16.9827C4.1859 17.535 3.73819 17.9827 3.1859 17.9827C2.63362 17.9827 2.1859 17.535 2.1859 16.9827V0.999023ZM24.6455 21.7276C24.3323 21.2727 23.7096 21.1578 23.2547 21.471C22.7998 21.7842 22.685 22.4068 22.9981 22.8617L25.6049 26.6478L22.9981 30.4338C22.685 30.8887 22.7998 31.5114 23.2547 31.8246C23.7096 32.1378 24.3323 32.0229 24.6455 31.568L26.819 28.4112L28.9925 31.568C29.3057 32.0229 29.9283 32.1378 30.3832 31.8246C30.8381 31.5114 30.953 30.8887 30.6398 30.4338L28.0331 26.6478L30.6398 22.8617C30.953 22.4068 30.8381 21.7842 30.3832 21.471C29.9283 21.1578 29.3057 21.2727 28.9925 21.7276L26.819 24.8844L24.6455 21.7276ZM2.17468 22.2946C2.17468 21.7424 2.6224 21.2946 3.17468 21.2946H6.17199H9.169C9.72128 21.2946 10.169 21.7424 10.169 22.2946C10.169 22.8469 9.72128 23.2946 9.169 23.2946H7.17199L7.17199 31.0009C7.17199 31.5532 6.72427 32.0009 6.17199 32.0009C5.6197 32.0009 5.17199 31.5532 5.17199 31.0009L5.17199 23.2946H3.17468C2.6224 23.2946 2.17468 22.8469 2.17468 22.2946ZM11.901 24.4734C11.901 22.7195 13.3228 21.2976 15.0768 21.2976H19.1595C19.7118 21.2976 20.1595 21.7453 20.1595 22.2976C20.1595 22.8499 19.7118 23.2976 19.1595 23.2976H15.0768C14.4274 23.2976 13.901 23.824 13.901 24.4734C13.901 25.1229 14.4274 25.6493 15.0768 25.6493H17.0821C17.1246 25.6493 17.1665 25.652 17.2077 25.6571C18.8571 25.7721 20.1595 27.1466 20.1595 28.8252C20.1595 30.5792 18.7376 32.0011 16.9836 32.0011H12.9009C12.3487 32.0011 11.9009 31.5533 11.9009 31.0011C11.9009 30.4488 12.3487 30.0011 12.9009 30.0011H16.9836C17.633 30.0011 18.1595 29.4746 18.1595 28.8252C18.1595 28.1758 17.633 27.6493 16.9836 27.6493H14.9213C14.854 27.6493 14.7883 27.6427 14.7247 27.63C13.1364 27.4548 11.901 26.1084 11.901 24.4734ZM21.6204 9.24387V3.58231L27.2869 9.24387H21.6204Z" fill="#111827"/>
</svg>
