<svg width="33" height="32" viewBox="0 0 33 32" fill="none" xmlns="http://www.w3.org/2000/svg">
<path fill-rule="evenodd" clip-rule="evenodd" d="M3.05347 0.000488281C2.50118 0.000488281 2.05347 0.448204 2.05347 1.00049V17.1363C2.05347 17.6886 2.50118 18.1363 3.05347 18.1363C3.60575 18.1363 4.05347 17.6886 4.05347 17.1363V2.00049H19.654V10.3332C19.654 10.8855 20.1017 11.3332 20.654 11.3332H28.9465V17.1363C28.9465 17.6886 29.3942 18.1363 29.9465 18.1363C30.4988 18.1363 30.9465 17.6886 30.9465 17.1363V10.4245C30.9465 10.16 30.8417 9.90634 30.6551 9.71893L21.2713 0.294897C21.0837 0.106434 20.8287 0.000488281 20.5627 0.000488281H3.05347ZM21.654 9.33324V3.58531L27.4069 9.33324H21.654ZM23.6447 22.1277C24.1643 21.9406 24.7372 22.2101 24.9244 22.7297L26.8772 28.1531L29.0048 22.7048C29.2057 22.1903 29.7856 21.9361 30.3 22.137C30.8145 22.3379 31.0687 22.9178 30.8678 23.4323L27.8677 31.1149C27.498 32.0615 26.1524 32.0436 25.8081 31.0875L23.0426 23.4073C22.8555 22.8877 23.1251 22.3148 23.6447 22.1277ZM7.01891 22.0685C4.27657 22.0685 2.05347 24.2916 2.05347 27.034C2.05347 29.7763 4.27657 31.9994 7.01891 31.9994H8.71386C9.26615 31.9994 9.71386 31.5517 9.71386 30.9994C9.71386 30.4471 9.26615 29.9994 8.71386 29.9994H7.01891C5.38114 29.9994 4.05347 28.6717 4.05347 27.034C4.05347 25.3962 5.38114 24.0685 7.01891 24.0685H8.71386C9.26615 24.0685 9.71386 23.6208 9.71386 23.0685C9.71386 22.5162 9.26615 22.0685 8.71386 22.0685H7.01891ZM12.5182 25.0512C12.5182 23.4039 13.8536 22.0685 15.501 22.0685H19.1786C19.7309 22.0685 20.1786 22.5162 20.1786 23.0685C20.1786 23.6208 19.7309 24.0685 19.1786 24.0685H15.501C14.9582 24.0685 14.5182 24.5085 14.5182 25.0512C14.5182 25.594 14.9582 26.034 15.5009 26.034H17.2998C17.3482 26.034 17.3958 26.0374 17.4424 26.0441C18.9744 26.1694 20.1786 27.4524 20.1786 29.0167C20.1786 30.664 18.8432 31.9994 17.1959 31.9994H13.5182C12.9659 31.9994 12.5182 31.5517 12.5182 30.9994C12.5182 30.4472 12.9659 29.9994 13.5182 29.9994H17.1959C17.7386 29.9994 18.1786 29.5595 18.1786 29.0167C18.1786 28.474 17.7386 28.034 17.1959 28.034H15.3455C15.273 28.034 15.2023 28.0263 15.1342 28.0116C13.6599 27.8308 12.5182 26.5744 12.5182 25.0512Z" fill="#111827"/>
</svg>
