<svg width="33" height="32" viewBox="0 0 33 32" fill="none" xmlns="http://www.w3.org/2000/svg">
<path fill-rule="evenodd" clip-rule="evenodd" d="M4.00073 0.000915527C3.44845 0.000915527 3.00073 0.448631 3.00073 1.00092V2.8758C3.00073 3.42809 3.44845 3.8758 4.00073 3.8758C4.55302 3.8758 5.00073 3.42809 5.00073 2.8758V2.00092H6.0352C6.58749 2.00092 7.0352 1.5532 7.0352 1.00092C7.0352 0.448631 6.58749 0.000915527 6.0352 0.000915527H4.00073ZM10.1041 0.000915527C9.55187 0.000915527 9.10415 0.448631 9.10415 1.00092C9.10415 1.5532 9.55187 2.00092 10.1041 2.00092H14.1731C14.7254 2.00092 15.1731 1.5532 15.1731 1.00092C15.1731 0.448631 14.7254 0.000915527 14.1731 0.000915527H10.1041ZM18.242 0.000915527C17.6898 0.000915527 17.242 0.448631 17.242 1.00092C17.242 1.5532 17.6898 2.00092 18.242 2.00092H19.3613V9.67629C19.3613 10.2286 19.809 10.6763 20.3613 10.6763H27.9992V11.5309C27.9992 12.0832 28.4469 12.5309 28.9992 12.5309C29.5515 12.5309 29.9992 12.0832 29.9992 11.5309V9.76105C29.9992 9.49658 29.8944 9.24287 29.7078 9.05546L28.6175 7.96044C28.5622 7.90494 28.5021 7.85729 28.4384 7.81748L26.5934 5.97407C26.5511 5.90135 26.4989 5.83281 26.4368 5.77041L24.2561 3.58038C24.1855 3.50942 24.1068 3.45128 24.0231 3.40597L22.2588 1.64329C22.2126 1.55218 22.1515 1.46666 22.0755 1.39034L20.9851 0.295325C20.7975 0.106861 20.5425 0.000915527 20.2765 0.000915527H18.242ZM5.00073 6.62557C5.00073 6.07329 4.55302 5.62557 4.00073 5.62557C3.44845 5.62557 3.00073 6.07329 3.00073 6.62557V10.3753C3.00073 10.9276 3.44845 11.3753 4.00073 11.3753C4.55302 11.3753 5.00073 10.9276 5.00073 10.3753V6.62557ZM5.00073 14.1251C5.00073 13.5728 4.55302 13.1251 4.00073 13.1251C3.44845 13.1251 3.00073 13.5728 3.00073 14.1251V17.8749C3.00073 18.4272 3.44845 18.8749 4.00073 18.8749C4.55302 18.8749 5.00073 18.4272 5.00073 17.8749V14.1251ZM29.9992 15.0706C29.9992 14.5183 29.5515 14.0706 28.9992 14.0706C28.4469 14.0706 27.9992 14.5183 27.9992 15.0706V18.6102C27.9992 19.1625 28.4469 19.6102 28.9992 19.6102C29.5515 19.6102 29.9992 19.1625 29.9992 18.6102V15.0706ZM5.00073 21.6247C5.00073 21.0724 4.55302 20.6247 4.00073 20.6247C3.44845 20.6247 3.00073 21.0724 3.00073 21.6247V25.3744C3.00073 25.9267 3.44845 26.3744 4.00073 26.3744C4.55302 26.3744 5.00073 25.9267 5.00073 25.3744V21.6247ZM29.9992 22.1499C29.9992 21.5976 29.5515 21.1499 28.9992 21.1499C28.4469 21.1499 27.9992 21.5976 27.9992 22.1499V25.6896C27.9992 26.2419 28.4469 26.6896 28.9992 26.6896C29.5515 26.6896 29.9992 26.2419 29.9992 25.6896V22.1499ZM5.00073 29.1242C5.00073 28.5719 4.55302 28.1242 4.00073 28.1242C3.44845 28.1242 3.00073 28.5719 3.00073 29.1242V30.9991C3.00073 31.5514 3.44845 31.9991 4.00073 31.9991H6.08394C6.63622 31.9991 7.08394 31.5514 7.08394 30.9991C7.08394 30.4468 6.63622 29.9991 6.08394 29.9991H5.00073V29.1242ZM29.9992 29.2292C29.9992 28.677 29.5515 28.2292 28.9992 28.2292C28.4469 28.2292 27.9992 28.677 27.9992 29.2292V29.9991H26.916C26.3637 29.9991 25.916 30.4468 25.916 30.9991C25.916 31.5514 26.3637 31.9991 26.916 31.9991H28.9992C29.5515 31.9991 29.9992 31.5514 29.9992 30.9991V29.2292ZM10.2504 29.9991C9.69807 29.9991 9.25035 30.4468 9.25035 30.9991C9.25035 31.5514 9.69807 31.9991 10.2504 31.9991H14.4168C14.969 31.9991 15.4168 31.5514 15.4168 30.9991C15.4168 30.4468 14.969 29.9991 14.4168 29.9991H10.2504ZM18.5832 29.9991C18.0309 29.9991 17.5832 30.4468 17.5832 30.9991C17.5832 31.5514 18.0309 31.9991 18.5832 31.9991H22.7496C23.3019 31.9991 23.7496 31.5514 23.7496 30.9991C23.7496 30.4468 23.3019 29.9991 22.7496 29.9991H18.5832ZM21.3613 8.67629V3.57371L26.4683 8.67629H21.3613Z" fill="#111827"/>
</svg>
