<svg width="32" height="32" viewBox="0 0 32 32" fill="none" xmlns="http://www.w3.org/2000/svg">
<path d="M20.9982 28H26V11.0085L19.0214 4H6L6 15.9823" stroke="#1C1B1F" stroke-width="2" stroke-linecap="round" stroke-linejoin="round"/>
<path d="M19.0892 10.9407V4.12805L25.9078 10.9407H19.0892Z" stroke="#1C1B1F" stroke-width="2" stroke-linecap="round" stroke-linejoin="round"/>
<path d="M18 21.5425H14.9708C14.0792 21.5425 13.3564 22.2653 13.3564 23.1569V23.1569C13.3564 24.0485 14.0792 24.7713 14.9708 24.7713H16.4587" stroke="#1C1B1F" stroke-width="2" stroke-linecap="round"/>
<path d="M14.8555 24.7712H16.3856C17.2772 24.7712 18 25.494 18 26.3856V26.3856C18 27.2772 17.2772 28 16.3856 28H13.3565" stroke="#1C1B1F" stroke-width="2" stroke-linecap="round"/>
<path d="M6 25.2612H8.77431C9.8012 25.2612 10.6337 24.4287 10.6337 23.4018V23.4018C10.6337 22.3749 9.8012 21.5425 8.77431 21.5425H6.02305C6.01032 21.5425 6 21.5528 6 21.5655V28" stroke="#1C1B1F" stroke-width="2" stroke-linecap="round"/>
<path d="M7.01025 25.3301L10.6337 28" stroke="#1C1B1F" stroke-width="2" stroke-linecap="round"/>
</svg>
