<svg width="33" height="32" viewBox="0 0 33 32" fill="none" xmlns="http://www.w3.org/2000/svg">
<path fill-rule="evenodd" clip-rule="evenodd" d="M3.00073 1.00085C3.00073 0.44857 3.44845 0.000854492 4.00073 0.000854492H20.2765C20.5425 0.000854492 20.7975 0.1068 20.9851 0.295264L29.7078 9.0554C29.8944 9.24281 29.9992 9.49652 29.9992 9.76099V30.999C29.9992 31.5513 29.5515 31.999 28.9992 31.999H22.7473C22.195 31.999 21.7473 31.5513 21.7473 30.999C21.7473 30.4467 22.195 29.999 22.7473 29.999H27.9992V10.6762H20.3613C19.809 10.6762 19.3613 10.2285 19.3613 9.67623V2.00085H5.00073V15.9778C5.00073 16.53 4.55302 16.9778 4.00073 16.9778C3.44845 16.9778 3.00073 16.53 3.00073 15.9778V1.00085ZM21.3613 3.57364V8.67623H26.4683L21.3613 3.57364ZM10.0273 23.4099C10.6579 21.5347 12.4306 20.1862 14.5156 20.1862C17.1301 20.1862 19.2496 22.3056 19.2496 24.9202C19.2496 27.6113 17.0564 29.9991 14.5156 29.9991H8.03682C6.36771 29.9991 5.01464 28.646 5.01464 26.9769C5.01464 25.3707 6.26767 24.0571 7.84955 23.9604C7.80471 24.2742 7.78155 24.5947 7.78155 24.9202C7.78155 25.4725 8.22926 25.9202 8.78154 25.9202C9.33383 25.9202 9.78154 25.4725 9.78154 24.9202C9.78154 24.3904 9.86818 23.8829 10.0273 23.4099ZM8.03682 21.9547C8.17908 21.9547 8.32011 21.9607 8.45965 21.9723C9.55243 19.7315 11.8525 18.1862 14.5156 18.1862C18.2346 18.1862 21.2496 21.2011 21.2496 24.9202C21.2496 28.5626 18.3083 31.9991 14.5156 31.9991H8.03682C5.26314 31.9991 3.01464 29.7506 3.01464 26.9769C3.01464 24.2032 5.26314 21.9547 8.03682 21.9547Z" fill="#111827"/>
</svg>
