<svg width="33" height="32" viewBox="0 0 33 32" fill="none" xmlns="http://www.w3.org/2000/svg">
<path fill-rule="evenodd" clip-rule="evenodd" d="M1.97978 1.00085C1.97978 0.44857 2.4275 0.000854492 2.97978 0.000854492H20.585C20.851 0.000854492 21.106 0.1068 21.2937 0.295264L30.7289 9.77097C30.9155 9.95838 31.0202 10.2121 31.0202 10.4766V17.2251C31.0202 17.7774 30.5725 18.2251 30.0202 18.2251C29.468 18.2251 29.0202 17.7774 29.0202 17.2251V11.3846H20.6769C20.1246 11.3846 19.6769 10.9369 19.6769 10.3846V2.00085H3.97978V17.2251C3.97978 17.7774 3.53207 18.2251 2.97978 18.2251C2.4275 18.2251 1.97978 17.7774 1.97978 17.2251V1.00085ZM21.6769 3.58643V9.38458H27.4801L21.6769 3.58643ZM14.495 27.1197C14.495 25.4041 15.6912 24.2401 16.9047 24.2401C18.1181 24.2401 19.3144 25.4041 19.3144 27.1197C19.3144 28.8352 18.1181 29.9993 16.9047 29.9993C15.6912 29.9993 14.495 28.8352 14.495 27.1197ZM16.9047 22.2401C14.3519 22.2401 12.495 24.55 12.495 27.1197C12.495 29.6894 14.3519 31.9993 16.9047 31.9993C19.4575 31.9993 21.3144 29.6894 21.3144 27.1197C21.3144 24.55 19.4575 22.2401 16.9047 22.2401ZM9.56293 27.1169C9.56293 24.4205 7.37711 22.2347 4.68077 22.2347H2.97974C2.42745 22.2347 1.97974 22.6824 1.97974 23.2347V30.999C1.97974 31.5513 2.42745 31.999 2.97974 31.999H4.68077C7.37711 31.999 9.56293 29.8132 9.56293 27.1169ZM4.68077 24.2347C6.27254 24.2347 7.56293 25.5251 7.56293 27.1169C7.56293 28.7087 6.27254 29.999 4.68077 29.999H3.97974V24.2347H4.68077ZM28.2988 22.2347C25.6025 22.2347 23.4167 24.4205 23.4167 27.1169C23.4167 29.8132 25.6025 31.999 28.2988 31.999H29.9999C30.5522 31.999 30.9999 31.5513 30.9999 30.999C30.9999 30.4468 30.5522 29.999 29.9999 29.999H28.2988C26.7071 29.999 25.4167 28.7087 25.4167 27.1169C25.4167 25.5251 26.7071 24.2347 28.2988 24.2347H29.9999C30.5522 24.2347 30.9999 23.787 30.9999 23.2347C30.9999 22.6824 30.5522 22.2347 29.9999 22.2347H28.2988Z" fill="#111827"/>
</svg>
