<svg width="33" height="32" viewBox="0 0 33 32" fill="none" xmlns="http://www.w3.org/2000/svg">
<path fill-rule="evenodd" clip-rule="evenodd" d="M2.05347 1.00049C2.05347 0.448204 2.50119 0.000488281 3.05347 0.000488281H20.569C20.835 0.000488281 21.09 0.106434 21.2777 0.294897L30.6648 9.72233C30.8514 9.90974 30.9562 10.1634 30.9562 10.4279V17.1421C30.9562 17.6944 30.5085 18.1421 29.9562 18.1421C29.4039 18.1421 28.9562 17.6944 28.9562 17.1421V11.3367H20.6605C20.1082 11.3367 19.6605 10.889 19.6605 10.3367V2.00049H4.05347V17.1421C4.05347 17.6944 3.60576 18.1421 3.05347 18.1421C2.50119 18.1421 2.05347 17.6944 2.05347 17.1421V1.00049ZM21.6605 3.58546V9.33669H27.4167L21.6605 3.58546ZM8.72906 22.6915C8.72906 22.1392 8.28134 21.6915 7.72906 21.6915C7.17678 21.6915 6.72906 22.1392 6.72906 22.6915V28.9994C6.72906 29.5517 6.28135 29.9994 5.72906 29.9994H5.04382C4.49154 29.9994 4.04382 29.5517 4.04382 28.9994V28.2023C4.04382 27.65 3.59611 27.2023 3.04382 27.2023C2.49154 27.2023 2.04382 27.65 2.04382 28.2023V28.9994C2.04382 30.6563 3.38697 31.9994 5.04382 31.9994H5.72906C7.38591 31.9994 8.72906 30.6563 8.72906 28.9994V22.6915ZM12.4625 22.7164C12.4625 22.1492 12.9223 21.6894 13.4895 21.6894H16.4963C18.3701 21.6894 19.8891 23.2084 19.8891 25.0821C19.8891 26.9559 18.3701 28.4749 16.4963 28.4749H14.4625V30.9994C14.4625 31.5517 14.0147 31.9994 13.4625 31.9994C12.9102 31.9994 12.4625 31.5517 12.4625 30.9994V27.4749V22.7164ZM14.4625 26.4749H16.4963C17.2655 26.4749 17.8891 25.8513 17.8891 25.0821C17.8891 24.3129 17.2655 23.6894 16.4963 23.6894H14.4625V26.4749ZM27.5764 21.6894C24.7293 21.6894 22.4214 23.9974 22.4214 26.8444C22.4214 29.6914 24.7293 31.9994 27.5764 31.9994H29.8933C30.4635 31.9994 30.9257 31.5372 30.9257 30.967V27.5009C30.9257 26.6725 30.2541 26.0009 29.4257 26.0009H27.3622C26.8099 26.0009 26.3622 26.4486 26.3622 27.0009C26.3622 27.5532 26.8099 28.0009 27.3622 28.0009H28.9257V29.9994H27.5764C25.8339 29.9994 24.4214 28.5868 24.4214 26.8444C24.4214 25.1019 25.8339 23.6894 27.5764 23.6894H29.9257C30.478 23.6894 30.9257 23.2417 30.9257 22.6894C30.9257 22.1371 30.478 21.6894 29.9257 21.6894H27.5764Z" fill="#111827"/>
</svg>
