<svg width="33" height="32" viewBox="0 0 33 32" fill="none" xmlns="http://www.w3.org/2000/svg">
<path fill-rule="evenodd" clip-rule="evenodd" d="M4.00073 0.000915527C3.44845 0.000915527 3.00073 0.448631 3.00073 1.00092V30.9991C3.00073 31.5514 3.44845 31.9991 4.00073 31.9991H28.9992C29.5515 31.9991 29.9992 31.5514 29.9992 30.9991V9.76105C29.9992 9.49658 29.8944 9.24287 29.7078 9.05546L20.9851 0.295325C20.7975 0.106861 20.5425 0.000915527 20.2765 0.000915527H4.00073ZM5.00073 29.9991V2.00092H19.3613V9.67629C19.3613 10.2286 19.809 10.6763 20.3613 10.6763H27.9992V29.9991H5.00073ZM21.3613 8.67629V3.57371L26.4683 8.67629H21.3613ZM16.5002 13.7501C17.0525 13.7501 17.5002 14.1978 17.5002 14.7501V22.0894L20.3072 19.2823C20.6978 18.8918 21.3309 18.8918 21.7215 19.2823C22.112 19.6729 22.112 20.306 21.7215 20.6966L17.2164 25.2016C17.1832 25.2357 17.1475 25.2674 17.1097 25.2965C17.0448 25.3466 16.9752 25.3876 16.9025 25.4195C16.8081 25.461 16.706 25.4884 16.599 25.4989C16.5154 25.5072 16.431 25.5049 16.3479 25.4922C16.3192 25.4878 16.291 25.4822 16.2632 25.4755C16.0908 25.4336 15.9275 25.3454 15.7929 25.2109L11.2786 20.6966C10.8881 20.306 10.8881 19.6729 11.2786 19.2823C11.6691 18.8918 12.3023 18.8918 12.6928 19.2823L15.5002 22.0897V14.7501C15.5002 14.1978 15.9479 13.7501 16.5002 13.7501Z" fill="#111827"/>
</svg>
