<svg width="32" height="33" viewBox="0 0 32 33" fill="none" xmlns="http://www.w3.org/2000/svg">
<path d="M10.5 11.5C11.3284 11.5 12 10.8284 12 10C12 9.17157 11.3284 8.5 10.5 8.5C9.67157 8.5 9 9.17157 9 10C9 10.8284 9.67157 11.5 10.5 11.5Z" fill="#1C1B1F"/>
<path d="M10.5 24.5C11.3284 24.5 12 23.8284 12 23C12 22.1716 11.3284 21.5 10.5 21.5C9.67157 21.5 9 22.1716 9 23C9 23.8284 9.67157 24.5 10.5 24.5Z" fill="#1C1B1F"/>
<path d="M10.5 18C11.3284 18 12 17.3284 12 16.5C12 15.6716 11.3284 15 10.5 15C9.67157 15 9 15.6716 9 16.5C9 17.3284 9.67157 18 10.5 18Z" fill="#1C1B1F"/>
<rect x="6" y="4.5" width="20" height="24" stroke="#1C1B1F" stroke-width="2" stroke-linejoin="round"/>
</svg>
