<svg width="33" height="32" viewBox="0 0 33 32" fill="none" xmlns="http://www.w3.org/2000/svg">
<path fill-rule="evenodd" clip-rule="evenodd" d="M1.24241 7.78281C0.70894 7.92575 0.392357 8.47409 0.535299 9.00756L2.21483 15.2756V30.5723C2.21483 31.1246 2.66254 31.5723 3.21483 31.5723H31.4991C32.0514 31.5723 32.4991 31.1246 32.4991 30.5723V15.1445C32.4991 14.5922 32.0514 14.1445 31.4991 14.1445H10.8091L14.5601 13.1394C14.6156 13.1294 14.6702 13.1148 14.7232 13.0957L30.7942 8.78949C31.3277 8.64655 31.6442 8.09822 31.5013 7.56475L29.7877 1.16941C29.6447 0.635941 29.0964 0.319359 28.5629 0.462301L1.24241 7.78281ZM14.5213 11.0793L22.984 8.81167L17.3259 5.54381L8.87104 7.80928L14.5213 11.0793ZM6.14182 8.54057L2.72597 9.45584L3.92196 13.9193L11.7921 11.8105L6.14182 8.54057ZM20.0575 4.81187L25.7157 8.07973L29.3106 7.11646L28.1146 2.65297L20.0575 4.81187ZM4.21483 16.1445V29.5723H30.4991V16.1445H4.21483Z" fill="#111827"/>
</svg>
