<svg width="33" height="33" viewBox="0 0 33 33" fill="none" xmlns="http://www.w3.org/2000/svg">
<path fill-rule="evenodd" clip-rule="evenodd" d="M16.5 3.00073H23.9995H31.499C32.0513 3.00073 32.499 3.44845 32.499 4.00073V9.00042V23.9995V28.9992C32.499 29.5515 32.0513 29.9992 31.499 29.9992H16.5H1.50085C0.94857 29.9992 0.500854 29.5515 0.500854 28.9992V23.9995V9.00042V4.00073C0.500854 3.44845 0.94857 3.00073 1.50085 3.00073H9.00039H16.5ZM8.00039 5.00073H2.50085V8.00042H8.00039V5.00073ZM2.50085 10.0004V22.9995H9.00039H15.5V10.0004H9.00351L9.00039 10.0004L8.99727 10.0004H2.50085ZM2.50085 24.9995V27.9992H8.00039V24.9995H2.50085ZM10.0004 27.9992H15.5V24.9995H10.0004V27.9992ZM17.5 27.9992H22.9995V24.9995H17.5V27.9992ZM24.9995 27.9992H30.499V24.9995H24.9995V27.9992ZM30.499 22.9995V10.0004H24.0026L23.9995 10.0004L23.9963 10.0004H17.5V22.9995H23.9995H30.499ZM30.499 8.00042V5.00073H24.9995V8.00042H30.499ZM22.9995 5.00073H17.5V8.00042H22.9995V5.00073ZM15.5 5.00073V8.00042H10.0004V5.00073H15.5Z" fill="#111827"/>
</svg>
