<svg width="33" height="33" viewBox="0 0 33 33" fill="none" xmlns="http://www.w3.org/2000/svg">
<path fill-rule="evenodd" clip-rule="evenodd" d="M4.00073 0.500977C3.44845 0.500977 3.00073 0.948692 3.00073 1.50098V31.4991C3.00073 32.0514 3.44845 32.4991 4.00073 32.4991H28.9992C29.5515 32.4991 29.9992 32.0514 29.9992 31.4991V1.50098C29.9992 0.948692 29.5515 0.500977 28.9992 0.500977H4.00073ZM5.00073 30.4991V2.50098H27.9992V30.4991H5.00073ZM11.5003 8.37555C11.5003 9.41102 10.6609 10.2504 9.62539 10.2504C8.58991 10.2504 7.7505 9.41102 7.7505 8.37555C7.7505 7.34008 8.58991 6.50067 9.62539 6.50067C10.6609 6.50067 11.5003 7.34008 11.5003 8.37555ZM11.5003 24.6245C11.5003 25.66 10.6609 26.4994 9.62539 26.4994C8.58991 26.4994 7.7505 25.66 7.7505 24.6245C7.7505 23.5891 8.58991 22.7497 9.62539 22.7497C10.6609 22.7497 11.5003 23.5891 11.5003 24.6245ZM9.62539 18.3751C10.6609 18.3751 11.5003 17.5356 11.5003 16.5002C11.5003 15.4647 10.6609 14.6253 9.62539 14.6253C8.58991 14.6253 7.7505 15.4647 7.7505 16.5002C7.7505 17.5356 8.58991 18.3751 9.62539 18.3751Z" fill="#111827"/>
</svg>
