<svg width="32" height="32" viewBox="0 0 32 32" fill="none" xmlns="http://www.w3.org/2000/svg">
<path d="M22.2604 16.1807C22.2651 19.921 21.5365 23.6259 20.1158 27.0859" stroke="#1C1B1F" stroke-width="2" stroke-linecap="round" stroke-linejoin="round"/>
<path d="M20.7983 12.3538C20.0233 11.4875 19.0035 10.8769 17.8739 10.6028C16.7443 10.3287 15.558 10.404 14.4722 10.8188C13.3863 11.2337 12.452 11.9684 11.7928 12.9258C11.1336 13.8833 10.7807 15.0183 10.7806 16.1807C10.7852 19.0979 10.0451 21.9679 8.63062 24.5192" stroke="#1C1B1F" stroke-width="2" stroke-linecap="round" stroke-linejoin="round"/>
<path d="M12.6938 5.35441C14.4256 4.74406 16.2784 4.55771 18.097 4.81099C19.9156 5.06427 21.647 5.7498 23.1461 6.81012C24.6452 7.87043 25.8682 9.27465 26.7128 10.9051C27.5573 12.5355 27.9987 14.3446 28 16.1807C28.0016 18.7555 27.7153 21.3225 27.1466 23.8337" stroke="#1C1B1F" stroke-width="2" stroke-linecap="round" stroke-linejoin="round"/>
<path d="M4 20.9636C4.68809 19.4631 5.04319 17.8313 5.04089 16.1805C5.03907 14.5651 5.37907 12.9675 6.03856 11.4928C6.69805 10.0181 7.6621 8.69964 8.86738 7.62402" stroke="#1C1B1F" stroke-width="2" stroke-linecap="round" stroke-linejoin="round"/>
<path d="M14.4373 25.7471C14.1948 26.2755 13.9331 26.7928 13.6522 27.299" stroke="#1C1B1F" stroke-width="2" stroke-linecap="round" stroke-linejoin="round"/>
<path d="M16.5191 16.1804C16.5205 18.1165 16.2775 20.045 15.7958 21.9202" stroke="#1C1B1F" stroke-width="2" stroke-linecap="round" stroke-linejoin="round"/>
</svg>
