<svg width="33" height="32" viewBox="0 0 33 32" fill="none" xmlns="http://www.w3.org/2000/svg">
<path d="M24.3254 16.2256C24.3313 20.901 23.4206 25.5322 21.6447 29.8572" stroke="#111827" stroke-width="2" stroke-linecap="round" stroke-linejoin="round"/>
<path d="M22.4979 11.4419C21.5292 10.359 20.2544 9.59571 18.8424 9.25309C17.4303 8.91048 15.9476 9.00466 14.5902 9.52318C13.2329 10.0417 12.0649 10.9601 11.241 12.1569C10.417 13.3537 9.97582 14.7725 9.97581 16.2255C9.98146 19.8719 9.05642 23.4595 7.28827 26.6486" stroke="#111827" stroke-width="2" stroke-linecap="round" stroke-linejoin="round"/>
<path d="M12.3673 2.69277C14.532 1.92982 16.848 1.69689 19.1213 2.01349C21.3945 2.33009 23.5588 3.18701 25.4326 4.5124C27.3064 5.8378 28.8353 7.59306 29.8909 9.63108C30.9466 11.6691 31.4984 13.9305 31.5 16.2257C31.502 19.4442 31.1442 22.6528 30.4333 25.7919" stroke="#111827" stroke-width="2" stroke-linecap="round" stroke-linejoin="round"/>
<path d="M1.5 22.2043C2.36012 20.3286 2.80399 18.2889 2.80112 16.2254C2.79884 14.2061 3.22384 12.2091 4.0482 10.3658C4.87256 8.5224 6.07763 6.87431 7.58423 5.52979" stroke="#111827" stroke-width="2" stroke-linecap="round" stroke-linejoin="round"/>
<path d="M14.5466 28.1836C14.2435 28.8441 13.9164 29.4908 13.5653 30.1235" stroke="#111827" stroke-width="2" stroke-linecap="round" stroke-linejoin="round"/>
<path d="M17.1489 16.2253C17.1507 18.6454 16.8469 21.0561 16.2448 23.4001" stroke="#111827" stroke-width="2" stroke-linecap="round" stroke-linejoin="round"/>
</svg>
