<svg width="33" height="32" viewBox="0 0 33 32" fill="none" xmlns="http://www.w3.org/2000/svg">
<path d="M5.16846 24.6919C6.50348 22.0053 7.1961 19.0453 7.1917 16.0453C7.19032 14.5874 7.5174 13.148 8.14864 11.8339C8.77987 10.5198 9.69905 9.36474 10.8379 8.45459" stroke="#111827" stroke-width="2" stroke-linecap="round" stroke-linejoin="round"/>
<path d="M16.915 16.0452C16.9227 20.9872 15.6689 25.8494 13.2725 30.1714" stroke="#111827" stroke-width="2" stroke-linecap="round" stroke-linejoin="round"/>
<path d="M12.0532 16.0453C12.0532 14.7559 12.5654 13.5193 13.4772 12.6075C14.3889 11.6958 15.6255 11.1836 16.9149 11.1836C18.2043 11.1836 19.4409 11.6958 20.3526 12.6075C21.2644 13.5193 21.7766 14.7559 21.7766 16.0453C21.7837 21.0564 20.6798 26.0068 18.5443 30.5401" stroke="#111827" stroke-width="2" stroke-linecap="round" stroke-linejoin="round"/>
<path d="M30.6734 24.5529C31.2246 21.7505 31.5014 18.9011 31.5 16.045C31.5 12.1768 29.9634 8.46704 27.2281 5.73182C24.4929 2.99659 20.7832 1.45996 16.915 1.45996C13.0468 1.45996 9.33701 2.99659 6.60179 5.73182C3.86656 8.46704 2.32993 12.1768 2.32993 16.045C2.33174 17.701 2.05107 19.3451 1.5 20.9067" stroke="#111827" stroke-width="2" stroke-linecap="round" stroke-linejoin="round"/>
<path d="M11.5672 20.9067C11.0483 23.4624 10.1189 25.9172 8.81506 28.1757" stroke="#111827" stroke-width="2" stroke-linecap="round" stroke-linejoin="round"/>
<path d="M15.6995 6.39725C17.068 6.22609 18.4573 6.34779 19.7753 6.7543C21.0932 7.1608 22.3097 7.84282 23.344 8.75514C24.3784 9.66746 25.207 10.7892 25.7749 12.0461C26.3429 13.3029 26.6371 14.6662 26.6382 16.0454C26.6386 17.6706 26.5381 19.2942 26.3373 20.907" stroke="#111827" stroke-width="2" stroke-linecap="round" stroke-linejoin="round"/>
<path d="M25.4131 25.7686C25.1817 26.6678 24.9193 27.554 24.626 28.4273" stroke="#111827" stroke-width="2" stroke-linecap="round" stroke-linejoin="round"/>
</svg>
