<svg width="32" height="32" viewBox="0 0 32 32" fill="none" xmlns="http://www.w3.org/2000/svg">
<path d="M6.93481 22.9535C8.00283 20.8042 8.55693 18.4362 8.55341 16.0362C8.55231 14.8699 8.81397 13.7183 9.31896 12.6671C9.82395 11.6158 10.5593 10.6917 11.4704 9.96362" stroke="#1C1B1F" stroke-width="2" stroke-linecap="round" stroke-linejoin="round"/>
<path d="M16.332 16.0361C16.3381 19.9897 15.3351 23.8795 13.418 27.3372" stroke="#1C1B1F" stroke-width="2" stroke-linecap="round" stroke-linejoin="round"/>
<path d="M12.4426 16.0361C12.4426 15.0046 12.8524 14.0153 13.5818 13.2859C14.3112 12.5565 15.3005 12.1467 16.332 12.1467C17.3635 12.1467 18.3528 12.5565 19.0821 13.2859C19.8115 14.0153 20.2213 15.0046 20.2213 16.0361C20.227 20.045 19.3439 24.0053 17.6355 27.6319" stroke="#1C1B1F" stroke-width="2" stroke-linecap="round" stroke-linejoin="round"/>
<path d="M27.3387 22.8423C27.7796 20.6004 28.0011 18.3208 28 16.0359C28 12.9414 26.7707 9.97358 24.5825 7.78541C22.3943 5.59723 19.4265 4.36792 16.332 4.36792C13.2374 4.36792 10.2696 5.59723 8.08143 7.78541C5.89325 9.97358 4.66394 12.9414 4.66394 16.0359C4.66539 17.3607 4.44086 18.676 4 19.9253" stroke="#1C1B1F" stroke-width="2" stroke-linecap="round" stroke-linejoin="round"/>
<path d="M12.0537 19.9253C11.6386 21.9698 10.8951 23.9337 9.85205 25.7404" stroke="#1C1B1F" stroke-width="2" stroke-linecap="round" stroke-linejoin="round"/>
<path d="M15.3596 8.31775C16.4545 8.18082 17.5659 8.27818 18.6203 8.60339C19.6746 8.92859 20.6478 9.47421 21.4753 10.2041C22.3028 10.9339 22.9657 11.8313 23.42 12.8368C23.8743 13.8423 24.1098 14.9329 24.1106 16.0363C24.1109 17.3364 24.0305 18.6353 23.8699 19.9255" stroke="#1C1B1F" stroke-width="2" stroke-linecap="round" stroke-linejoin="round"/>
<path d="M23.1305 23.8147C22.9453 24.5341 22.7354 25.2431 22.5007 25.9417" stroke="#1C1B1F" stroke-width="2" stroke-linecap="round" stroke-linejoin="round"/>
</svg>
