<svg width="33" height="33" viewBox="0 0 33 33" fill="none" xmlns="http://www.w3.org/2000/svg">
<path fill-rule="evenodd" clip-rule="evenodd" d="M0.500732 4.38525C0.500732 3.83297 0.948448 3.38525 1.50073 3.38525H8.36577C8.91805 3.38525 9.36577 3.83297 9.36577 4.38525V6.90273H23.5467V4.38525C23.5467 3.83297 23.9944 3.38525 24.5467 3.38525H31.4989C32.0512 3.38525 32.4989 3.83297 32.4989 4.38525V18.6145C32.4989 24.6897 27.574 29.6145 21.4989 29.6145H11.5007C5.4256 29.6145 0.500732 24.6897 0.500732 18.6145V4.38525ZM2.50073 5.38525V18.6145C2.50073 23.5851 6.53017 27.6145 11.5007 27.6145H21.4989C26.4695 27.6145 30.4989 23.5851 30.4989 18.6145V5.38525H25.5467V7.90273C25.5467 8.45501 25.099 8.90273 24.5467 8.90273H8.36577C7.81348 8.90273 7.36577 8.45501 7.36577 7.90273V5.38525H2.50073ZM13.0385 18.2308C13.0385 19.1866 12.2637 19.9614 11.3079 19.9614C10.3521 19.9614 9.57721 19.1866 9.57721 18.2308C9.57721 17.2749 10.3521 16.5001 11.3079 16.5001C12.2637 16.5001 13.0385 17.2749 13.0385 18.2308ZM23.4226 18.2308C23.4226 19.1866 22.6477 19.9614 21.6919 19.9614C20.7361 19.9614 19.9612 19.1866 19.9612 18.2308C19.9612 17.2749 20.7361 16.5001 21.6919 16.5001C22.6477 16.5001 23.4226 17.2749 23.4226 18.2308ZM11.1158 12.0387C7.80208 12.0387 5.11579 14.725 5.11579 18.0387V18.4227C5.11579 21.7364 7.80209 24.4227 11.1158 24.4227H21.8838C25.1975 24.4227 27.8838 21.7364 27.8838 18.4227V18.0387C27.8838 14.725 25.1975 12.0387 21.8838 12.0387H11.1158ZM7.11579 18.0387C7.11579 15.8295 8.90665 14.0387 11.1158 14.0387H21.8838C24.0929 14.0387 25.8838 15.8295 25.8838 18.0387V18.4227C25.8838 20.6318 24.0929 22.4227 21.8838 22.4227H11.1158C8.90666 22.4227 7.11579 20.6318 7.11579 18.4227V18.0387Z" fill="#111827"/>
</svg>
