<svg width="32" height="32" viewBox="0 0 32 32" fill="none" xmlns="http://www.w3.org/2000/svg">
<path d="M11.846 18.7692C12.6107 18.7692 13.2307 18.1493 13.2307 17.3846C13.2307 16.6199 12.6107 16 11.846 16C11.0813 16 10.4614 16.6199 10.4614 17.3846C10.4614 18.1493 11.0813 18.7692 11.846 18.7692Z" fill="#1C1B1F"/>
<path d="M20.1539 18.7692C20.9186 18.7692 21.5385 18.1493 21.5385 17.3846C21.5385 16.6199 20.9186 16 20.1539 16C19.3892 16 18.7693 16.6199 18.7693 17.3846C18.7693 18.1493 19.3892 18.7692 20.1539 18.7692Z" fill="#1C1B1F"/>
<path d="M28 15.6922V6.30762H22.4379V9.12177H9.49236V6.30762H4V15.6922C4 21.2151 8.47715 25.6922 14 25.6922H18C23.5228 25.6922 28 21.2151 28 15.6922Z" stroke="#1C1B1F" stroke-width="2" stroke-linejoin="round"/>
<rect x="7.69238" y="13.2307" width="16.6154" height="8.30769" rx="4.15385" stroke="#1C1B1F" stroke-width="2"/>
</svg>
