<svg width="33" height="33" viewBox="0 0 33 33" fill="none" xmlns="http://www.w3.org/2000/svg">
<path fill-rule="evenodd" clip-rule="evenodd" d="M19.9556 0.792671C19.7257 0.563572 19.3989 0.460286 19.0791 0.515643C18.7594 0.570999 18.4863 0.778112 18.3468 1.07115L13.7528 10.7211L8.86312 7.46944C8.64215 7.3225 8.37184 7.26941 8.11172 7.32186C7.85159 7.37431 7.62298 7.528 7.47622 7.74909C5.19308 11.1886 3.21407 15.2841 3.21407 19.2132C3.21407 22.7369 4.61383 26.1162 7.10543 28.6078C9.59702 31.0994 12.9764 32.4991 16.5 32.4991C20.0236 32.4991 23.403 31.0994 25.8946 28.6078C28.3862 26.1162 29.7859 22.7369 29.7859 19.2132C29.7859 11.1499 24.21 5.0325 19.9556 0.792671ZM15.0627 12.6225L19.5405 3.21664C23.5627 7.3484 27.7859 12.6141 27.7859 19.2132C27.7859 22.2064 26.5969 25.077 24.4804 27.1936C22.3638 29.3101 19.4932 30.4991 16.5 30.4991C13.5068 30.4991 10.6362 29.3101 8.51964 27.1936C6.40312 25.077 5.21407 22.2064 5.21407 19.2132C5.21407 16.1641 6.64892 12.8123 8.59995 9.69629L13.6061 13.0254C13.8476 13.186 14.1469 13.2338 14.4264 13.1565C14.7059 13.0792 14.9381 12.8844 15.0627 12.6225ZM25.0055 20.5395C25.0918 19.994 24.7196 19.4819 24.1741 19.3955C23.6286 19.3092 23.1164 19.6815 23.0301 20.227C22.8111 21.6112 22.1593 22.8905 21.1683 23.8815C20.1774 24.8725 18.898 25.5242 17.5138 25.7433C16.9683 25.8296 16.5961 26.3418 16.6824 26.8873C16.7687 27.4328 17.2809 27.805 17.8264 27.7187C19.6279 27.4336 21.2929 26.5854 22.5826 25.2957C23.8723 24.006 24.7205 22.341 25.0055 20.5395Z" fill="#111827"/>
</svg>
