<svg width="33" height="32" viewBox="0 0 33 32" fill="none" xmlns="http://www.w3.org/2000/svg">
<path fill-rule="evenodd" clip-rule="evenodd" d="M10.2503 1.25085C9.69803 1.25085 9.25031 1.69857 9.25031 2.25085V6.25054H1.50085C0.94857 6.25054 0.500854 6.69826 0.500854 7.25054V29.7492C0.500854 30.3015 0.94857 30.7492 1.50085 30.7492H31.499C32.0513 30.7492 32.499 30.3015 32.499 29.7492V7.25054C32.499 6.69826 32.0513 6.25054 31.499 6.25054H23.7495V2.25085C23.7495 1.69857 23.3018 1.25085 22.7495 1.25085H10.2503ZM21.7495 6.25054V3.25085H11.2503V6.25054H21.7495ZM2.50085 8.25054V28.7492H30.499V8.25054H2.50085ZM17.5 14.1251C17.5 13.5729 17.0523 13.1251 16.5 13.1251C15.9478 13.1251 15.5 13.5729 15.5 14.1251V17.4999H12.1252C11.5729 17.4999 11.1252 17.9476 11.1252 18.4999C11.1252 19.0522 11.5729 19.4999 12.1252 19.4999H15.5V22.8746C15.5 23.4269 15.9478 23.8746 16.5 23.8746C17.0523 23.8746 17.5 23.4269 17.5 22.8746V19.4999H20.8747C21.4269 19.4999 21.8747 19.0522 21.8747 18.4999C21.8747 17.9476 21.4269 17.4999 20.8747 17.4999H17.5V14.1251Z" fill="#111827"/>
</svg>
