<svg width="32" height="33" viewBox="0 0 32 33" fill="none" xmlns="http://www.w3.org/2000/svg">
<path d="M20.3749 10.7214C21.1501 10.7214 21.7785 10.093 21.7785 9.31787C21.7785 8.5427 21.1501 7.91431 20.3749 7.91431C19.5998 7.91431 18.9714 8.5427 18.9714 9.31787C18.9714 10.093 19.5998 10.7214 20.3749 10.7214Z" fill="#1C1B1F"/>
<path d="M4 21.95C31.1122 27.8801 28.3051 9.25946 27.5331 5.69206C27.4933 5.51495 27.404 5.35278 27.2756 5.22441C27.1472 5.09604 26.9851 5.00674 26.8079 4.96689C23.2405 4.19493 4.61991 1.3878 10.55 28.5" stroke="#1C1B1F" stroke-width="2" stroke-linecap="round" stroke-linejoin="round"/>
<path d="M25.6734 18.2071C24.1722 18.2276 22.6822 17.9468 21.2914 17.3814C19.9006 16.816 18.6374 15.9774 17.5763 14.9153C16.5153 13.8532 15.678 12.589 15.114 11.1977C14.55 9.80631 14.2708 8.31598 14.2928 6.81482" stroke="#1C1B1F" stroke-width="2" stroke-linecap="round" stroke-linejoin="round"/>
</svg>
