<svg width="33" height="33" viewBox="0 0 33 33" fill="none" xmlns="http://www.w3.org/2000/svg">
<path fill-rule="evenodd" clip-rule="evenodd" d="M23.8864 0.508157C26.6849 0.440747 29.0591 0.855703 30.2206 1.10704L30.2286 1.10878L30.2286 1.10881C30.6347 1.20017 31.0064 1.4049 31.3007 1.6992C31.595 1.99349 31.7998 2.36527 31.8911 2.77132L31.8929 2.77933L31.8929 2.77933C32.1442 3.94083 32.5592 6.31506 32.4918 9.11352C32.4245 11.9061 31.8753 15.1899 30.1378 18.1138C28.383 21.0669 25.4581 23.5794 20.7931 24.8553C17.8218 25.668 14.1603 25.9755 9.6573 25.5975C9.88795 27.3569 10.2197 29.2496 10.6649 31.2851C10.7829 31.8247 10.4412 32.3577 9.9017 32.4757C9.36217 32.5937 8.82914 32.252 8.71113 31.7125C8.21623 29.4498 7.85485 27.3444 7.61437 25.3856C5.65556 25.1451 3.55011 24.7837 1.28745 24.2888C0.747925 24.1708 0.406213 23.6378 0.524221 23.0982C0.642229 22.5587 1.17527 22.217 1.7148 22.335C3.75038 22.7802 5.64302 23.112 7.40241 23.3426C7.02442 18.8397 7.33196 15.1781 8.14462 12.2068C9.24436 8.18595 11.2628 5.45779 13.6902 3.6574C13.7456 3.60654 13.8068 3.56186 13.8726 3.52444C14.2036 3.28717 14.5418 3.0667 14.8861 2.86213C17.81 1.12464 21.0939 0.575425 23.8864 0.508157ZM13.4832 6.48347C12.0336 7.96559 10.8258 9.98481 10.0738 12.7345C9.31262 15.5174 9.01498 19.0642 9.43012 23.5698C13.9358 23.985 17.4826 23.6873 20.2655 22.9262C23.0153 22.1741 25.0345 20.9662 26.5167 19.5166C25.2222 19.3532 23.9515 19.0216 22.7373 18.528C20.8751 17.7709 19.1836 16.6481 17.7629 15.2259C16.3421 13.8037 15.2211 12.1111 14.4659 10.2481C13.9755 9.03833 13.6459 7.77268 13.4832 6.48347ZM28.0791 17.631C26.5057 17.5923 24.951 17.269 23.4905 16.6752C21.876 16.0189 20.4095 15.0454 19.1778 13.8124C17.9461 12.5794 16.9741 11.1119 16.3194 9.49678C15.7289 8.03998 15.4073 6.4897 15.3687 4.92105C15.5466 4.80236 15.7264 4.68926 15.9078 4.58148C18.4333 3.08075 21.3408 2.57006 23.9346 2.50758C26.5179 2.44535 28.7218 2.82934 29.7919 3.06058C29.8277 3.06909 29.8605 3.08737 29.8865 3.11341C29.9126 3.13945 29.9309 3.17221 29.9394 3.20801C30.1706 4.27811 30.5546 6.48203 30.4924 9.06536C30.4299 11.6592 29.9192 14.5667 28.4185 17.0922C28.3107 17.2734 28.1977 17.4532 28.0791 17.631ZM21.9684 9.2771C22.9373 9.2771 23.7227 8.49166 23.7227 7.52277C23.7227 6.55387 22.9373 5.76843 21.9684 5.76843C20.9995 5.76843 20.214 6.55387 20.214 7.52277C20.214 8.49166 20.9995 9.2771 21.9684 9.2771Z" fill="#111827"/>
</svg>
