<svg width="32" height="33" viewBox="0 0 32 33" fill="none" xmlns="http://www.w3.org/2000/svg">
<path d="M20.6606 10.4885C21.4067 10.4885 22.0115 9.88366 22.0115 9.1376C22.0115 8.39154 21.4067 7.78674 20.6606 7.78674C19.9146 7.78674 19.3098 8.39154 19.3098 9.1376C19.3098 9.88366 19.9146 10.4885 20.6606 10.4885Z" fill="#1C1B1F"/>
<path d="M24.0716 19.483H23.8127C22.3796 19.483 21.0052 18.9137 19.9918 17.9004C18.9785 16.887 18.4092 15.5126 18.4092 14.0796C16.9781 14.0796 15.6054 13.5118 14.5924 12.5009C13.5794 11.49 13.0088 10.1185 13.0058 8.68738C13.0039 8.60092 13.0077 8.51444 13.017 8.42847" stroke="#1C1B1F" stroke-width="2" stroke-linecap="round" stroke-linejoin="round"/>
<path d="M10.1014 17.8282L4 20.3948L10.304 22.196L12.1052 28.5L14.6718 22.3986C30.2517 22.0271 28.1804 8.56357 27.55 5.63671C27.5106 5.46975 27.4255 5.31706 27.3042 5.19576C27.1829 5.07447 27.0303 4.98937 26.8633 4.95002C23.9364 4.31962 10.4729 2.2483 10.1014 17.8282Z" stroke="#1C1B1F" stroke-width="2" stroke-linecap="round" stroke-linejoin="round"/>
</svg>
