<svg width="33" height="33" viewBox="0 0 33 33" fill="none" xmlns="http://www.w3.org/2000/svg">
<path fill-rule="evenodd" clip-rule="evenodd" d="M30.2889 1.08571C28.4169 0.682516 23.0643 -0.214325 18.0683 1.57193C15.5431 2.4748 13.0954 4.06845 11.2571 6.75377C9.50278 9.31637 8.35101 12.8034 8.14917 17.4866L1.11317 20.4464C0.722008 20.611 0.477299 21.0045 0.502723 21.4281C0.528147 21.8517 0.818167 22.2131 1.22621 22.3297L8.57157 24.4284L10.6702 31.7737C10.7868 32.1818 11.1483 32.4718 11.5719 32.4972C11.9955 32.5226 12.389 32.2779 12.5535 31.8868L15.5133 24.8508C20.1966 24.6489 23.6836 23.4972 26.2462 21.7429C28.9315 19.9045 30.5251 17.4568 31.428 14.9316C33.2143 9.93568 32.3174 4.58301 31.9142 2.71104L31.91 2.69217C31.8182 2.30262 31.6196 1.94635 31.3366 1.66335C31.0536 1.38034 30.6973 1.18179 30.3078 1.08996L30.2889 1.08571ZM12.1471 9.14753C10.9935 11.338 10.2203 14.2675 10.1269 18.1839C10.1175 18.5776 9.87795 18.9291 9.51495 19.0818L4.50908 21.1876L9.65519 22.6579C9.9874 22.7529 10.2471 23.0125 10.342 23.3447L11.8123 28.4909L13.9181 23.485C14.0708 23.122 14.4223 22.8824 14.816 22.873C18.739 22.7795 21.6719 22.0038 23.8635 20.8469C22.7126 20.4719 21.6544 19.8291 20.7825 18.9572C19.5523 17.727 18.7782 16.126 18.5689 14.4169C16.8625 14.208 15.2638 13.436 14.0343 12.209C13.1659 11.3425 12.5241 10.2913 12.1471 9.14753ZM26.2307 19.2282C27.8564 17.8011 28.8965 16.0713 29.5448 14.2583C31.1314 9.82068 30.3479 4.9436 29.962 3.14594C29.955 3.12011 29.9413 3.09653 29.9224 3.07756C29.9034 3.05859 29.8798 3.04494 29.854 3.03791C28.0564 2.65208 23.1793 1.86854 18.7417 3.45517C16.9228 4.1055 15.1876 5.15027 13.7579 6.78509C13.7748 8.29001 14.3807 9.72927 15.447 10.7933C16.5258 11.8698 17.9875 12.4744 19.5114 12.4744C19.7766 12.4744 20.031 12.5797 20.2185 12.7673C20.4061 12.9548 20.5114 13.2092 20.5114 13.4744C20.5114 15.0004 21.1176 16.4639 22.1967 17.543C23.2676 18.6139 24.7172 19.2191 26.2307 19.2282ZM22.3255 8.98575C23.258 8.98575 24.014 8.2298 24.014 7.29728C24.014 6.36476 23.258 5.60881 22.3255 5.60881C21.393 5.60881 20.637 6.36476 20.637 7.29728C20.637 8.2298 21.393 8.98575 22.3255 8.98575Z" fill="#111827"/>
</svg>
