<svg width="33" height="32" viewBox="0 0 33 32" fill="none" xmlns="http://www.w3.org/2000/svg">
<path fill-rule="evenodd" clip-rule="evenodd" d="M30.4161 2.48654C27.9828 4.31155 25.7606 4.74086 23.6136 4.51875C21.3999 4.28975 19.2327 3.36972 16.894 2.36739L16.8237 2.3373C14.5636 1.3686 12.136 0.328087 9.59232 0.0649476C6.95802 -0.207567 4.23401 0.351622 1.39151 2.48087C1.37954 2.48968 1.36778 2.49875 1.35623 2.50808C1.12731 2.69244 1.00015 2.95884 0.985347 3.23317C0.984179 3.25481 0.983711 3.27649 0.983946 3.29818V23.0711C0.983867 23.0784 0.983867 23.0856 0.983946 23.0928V30.9991C0.983946 31.5514 1.43166 31.9991 1.98395 31.9991C2.53623 31.9991 2.98395 31.5514 2.98395 30.9991V23.5924C5.26174 22.0109 7.35766 21.6391 9.38653 21.849C11.6002 22.078 13.7674 22.998 16.1061 24.0004L16.1763 24.0304C18.4364 24.9991 20.8641 26.0397 23.4078 26.3028C26.0444 26.5756 28.7709 26.0151 31.6161 23.8812C31.8679 23.6924 32.0161 23.396 32.0161 23.0812V3.28654C32.0161 2.90777 31.8021 2.5615 31.4633 2.39211C31.1246 2.22272 30.7191 2.25928 30.4161 2.48654ZM2.98395 21.2353C5.25612 19.9653 7.45378 19.6384 9.59232 19.8596C12.136 20.1228 14.5636 21.1633 16.8237 22.132L16.894 22.1621C19.2327 23.1644 21.3999 24.0844 23.6136 24.3134C25.6424 24.5233 27.7383 24.1515 30.0161 22.5701V5.13245C27.744 6.40247 25.5463 6.72936 23.4078 6.50813C20.8641 6.24499 18.4364 5.20448 16.1763 4.23578L16.1061 4.20568C13.7674 3.20336 11.6002 2.28333 9.38653 2.05433C7.35766 1.84445 5.26174 2.21623 2.98395 3.79768V21.2353Z" fill="#111827"/>
</svg>
