<svg width="33" height="32" viewBox="0 0 33 32" fill="none" xmlns="http://www.w3.org/2000/svg">
<path fill-rule="evenodd" clip-rule="evenodd" d="M23.6533 4.5187C25.8003 4.74081 28.0225 4.3115 30.4559 2.48648C30.7589 2.25922 31.1643 2.22266 31.5031 2.39206C31.8419 2.56145 32.0559 2.90771 32.0559 3.28648V12.8589V12.8805V23.0812C32.0559 23.396 31.9077 23.6923 31.6559 23.8812C28.8106 26.0151 26.0841 26.5756 23.4475 26.3028C20.9038 26.0397 18.4761 24.9991 16.2161 24.0304L16.1458 24.0003C14.6247 23.3484 13.1762 22.7314 11.7403 22.3165C11.6775 22.3051 11.6168 22.2878 11.5587 22.2652C10.8479 22.0683 10.1394 21.9228 9.42622 21.849C7.39735 21.6391 5.30142 22.0109 3.02362 23.5923V30.999C3.02362 31.5513 2.5759 31.999 2.02362 31.999C1.47133 31.999 1.02362 31.5513 1.02362 30.999V23.0928V23.0711V12.8821V12.8603V3.29812C1.02339 3.27723 1.02382 3.25635 1.02489 3.23551C1.03898 2.95481 1.16881 2.7046 1.36763 2.53166C1.38938 2.51273 1.41196 2.49474 1.43531 2.47772C4.27633 0.351021 6.99897 -0.207497 9.63201 0.0648868C12.1757 0.328027 14.6033 1.36854 16.8634 2.33724L16.9337 2.36734C18.4552 3.01941 19.904 3.63664 21.3403 4.05145C21.4025 4.06286 21.4627 4.08002 21.5202 4.10236C22.2313 4.29933 22.9399 4.4449 23.6533 4.5187ZM20.1587 5.78064C18.798 5.34239 17.4808 4.77781 16.216 4.23572L16.1458 4.20563C15.0403 3.73181 13.973 3.27639 12.9211 2.90365V10.3764C14.2817 10.8146 15.5988 11.3792 16.8634 11.9212L16.8634 11.9212L16.9337 11.9513C18.0393 12.4252 19.1067 12.8806 20.1587 13.2534V5.78064ZM22.1587 13.8489V6.31029C22.5847 6.39596 23.0144 6.46328 23.4475 6.50808C25.586 6.72931 27.7837 6.40242 30.0559 5.13239V12.3593C27.7781 13.9408 25.6821 14.3125 23.6533 14.1027C23.1535 14.051 22.6562 13.9641 22.1587 13.8489ZM20.1587 15.3646C18.798 14.9263 17.4808 14.3618 16.216 13.8197L16.1458 13.7896C15.0403 13.3158 13.973 12.8603 12.9211 12.4876V20.5871C14.2817 21.0254 15.5988 21.5899 16.8634 22.132L16.9337 22.1621C18.0393 22.6359 19.1067 23.0914 20.1587 23.4641V15.3646ZM22.1587 24.0597V15.8942C22.5847 15.9799 23.0144 16.0472 23.4475 16.092C25.586 16.3133 27.7837 15.9864 30.0559 14.7164V22.5701C27.7781 24.1515 25.6821 24.5233 23.6533 24.3134C23.1535 24.2617 22.6562 24.1748 22.1587 24.0597ZM10.9211 9.8467V2.30807C10.4235 2.19291 9.92604 2.10598 9.42622 2.05427C7.39735 1.84439 5.30142 2.21617 3.02362 3.79763V11.0245C5.2958 9.75451 7.49346 9.42762 9.63201 9.64885C10.0652 9.69366 10.4949 9.761 10.9211 9.8467ZM10.9211 20.0575V11.892C10.4235 11.7769 9.92604 11.6899 9.42622 11.6382C7.39735 11.4283 5.30142 11.8001 3.02362 13.3816V21.2353C5.2958 19.9653 7.49346 19.6384 9.63201 19.8596C10.0652 19.9044 10.4949 19.9718 10.9211 20.0575Z" fill="#111827"/>
</svg>
