<svg width="33" height="33" viewBox="0 0 33 33" fill="none" xmlns="http://www.w3.org/2000/svg">
<path fill-rule="evenodd" clip-rule="evenodd" d="M16.5 1.73083L17.0145 0.873342C16.6978 0.683333 16.3022 0.683333 15.9855 0.873342L16.5 1.73083ZM16.5262 32.2692C19.9156 32.2623 23.1646 30.9129 25.5618 28.5157C27.9652 26.1124 29.3154 22.8527 29.3154 19.4539C29.3154 13.762 26.1596 9.09425 23.1318 5.91502C21.6074 4.31443 20.0861 3.05963 18.9461 2.20468C18.3754 1.7766 17.8981 1.44718 17.561 1.22325C17.3924 1.11126 17.2587 1.02554 17.1657 0.966955C17.1192 0.937661 17.0829 0.915143 17.0574 0.899508L17.0275 0.881226L17.0189 0.87598L17.0161 0.874334L17.0152 0.873756C17.0148 0.873536 17.0145 0.873342 16.5 1.73083C15.9855 0.873342 15.9852 0.873536 15.9848 0.873756L15.9838 0.874334L15.9811 0.87598L15.9724 0.881226L15.9425 0.899508C15.9171 0.915143 15.8807 0.937661 15.8342 0.966955C15.7413 1.02554 15.6076 1.11126 15.439 1.22325C15.1019 1.44718 14.6246 1.7766 14.0538 2.20468C12.9139 3.05963 11.3925 4.31443 9.86815 5.91502C6.84031 9.09425 3.6846 13.762 3.6846 19.4539C3.6846 22.8527 5.03479 26.1124 7.43814 28.5157C9.8353 30.9129 13.0844 32.2623 16.4737 32.2692C16.4825 32.2693 16.4912 32.2693 16.5 32.2693C16.5087 32.2693 16.5174 32.2693 16.5262 32.2692ZM22.7658 28.2694C23.2551 27.9216 23.7176 27.5316 24.1476 27.1015C26.1759 25.0732 27.3154 22.3223 27.3154 19.4539C27.3154 14.512 24.5634 10.3182 21.6835 7.29433C20.2541 5.79339 18.8216 4.61127 17.7461 3.80468C17.2351 3.4214 16.8066 3.12435 16.5 2.91958C16.1934 3.12435 15.7649 3.4214 15.2538 3.80468C14.1784 4.61127 12.7459 5.79339 11.3164 7.29433C8.43658 10.3182 5.6846 14.512 5.6846 19.4539C5.6846 22.3223 6.82407 25.0732 8.85235 27.1015C9.28237 27.5315 9.74486 27.9216 10.2341 28.2693C9.81526 27.3668 9.59227 26.3757 9.59227 25.3616C9.59227 22.0617 11.2415 19.4685 12.8062 17.7474C13.5939 16.881 14.3793 16.2135 14.9685 15.7619C15.2638 15.5355 15.5117 15.3618 15.6887 15.2429C15.7772 15.1835 15.8482 15.1377 15.8986 15.1057C15.9238 15.0898 15.9439 15.0773 15.9585 15.0683L15.9762 15.0574L15.9819 15.054L15.984 15.0527L15.9848 15.0522C15.9851 15.052 15.9855 15.0518 16.5 15.9093C17.0145 15.0518 17.0148 15.052 17.0151 15.0522L17.016 15.0527L17.018 15.054L17.0237 15.0574L17.0415 15.0683C17.0561 15.0773 17.0762 15.0898 17.1014 15.1057C17.1518 15.1377 17.2227 15.1835 17.3112 15.2429C17.4882 15.3618 17.7362 15.5355 18.0315 15.7619C18.6206 16.2135 19.4061 16.881 20.1937 17.7474C21.7584 19.4685 23.4076 22.0617 23.4076 25.3616C23.4076 26.3757 23.1847 27.3668 22.7658 28.2694ZM16.5 15.9093L15.9855 15.0518C16.3021 14.8618 16.6978 14.8618 17.0145 15.0518L16.5 15.9093ZM16.5202 30.2693C16.5135 30.2693 16.5067 30.2693 16.5 30.2693C16.4932 30.2693 16.4864 30.2693 16.4797 30.2693C15.1854 30.2639 13.9453 29.7475 13.0297 28.8319C12.1093 27.9115 11.5923 26.6632 11.5923 25.3616C11.5923 22.7538 12.8968 20.6209 14.2861 19.0928C14.9753 18.3346 15.6668 17.7466 16.1853 17.3491C16.2996 17.2614 16.4052 17.1833 16.5 17.115C16.5948 17.1833 16.7003 17.2614 16.8146 17.3491C17.3332 17.7466 18.0246 18.3346 18.7139 19.0928C20.1031 20.6209 21.4076 22.7538 21.4076 25.3616C21.4076 26.6632 20.8906 27.9115 19.9702 28.8319C19.0546 29.7475 17.8145 30.2639 16.5202 30.2693Z" fill="#111827"/>
</svg>
