<svg width="32" height="33" viewBox="0 0 32 33" fill="none" xmlns="http://www.w3.org/2000/svg">
<path d="M25.6 18.9C25.6 10.26 16 4.5 16 4.5C16 4.5 6.39999 10.26 6.39999 18.9C6.39999 21.4461 7.41142 23.8879 9.21177 25.6882C11.0121 27.4886 13.4539 28.5 16 28.5C18.5461 28.5 20.9879 27.4886 22.7882 25.6882C24.5886 23.8879 25.6 21.4461 25.6 18.9Z" stroke="#1C1B1F" stroke-width="2" stroke-linecap="round" stroke-linejoin="round"/>
<path d="M11.2 23.7C11.2 24.9731 11.7057 26.194 12.6059 27.0941C13.506 27.9943 14.7269 28.5 16 28.5C17.273 28.5 18.4939 27.9943 19.3941 27.0941C20.2943 26.194 20.8 24.9731 20.8 23.7C20.8 18.9 16 16.02 16 16.02C16 16.02 11.2 18.9 11.2 23.7Z" stroke="#1C1B1F" stroke-width="2" stroke-linecap="round" stroke-linejoin="round"/>
</svg>
