<svg width="33" height="32" viewBox="0 0 33 32" fill="none" xmlns="http://www.w3.org/2000/svg">
<path fill-rule="evenodd" clip-rule="evenodd" d="M7.23587 0.000915527C6.68359 0.000915527 6.23587 0.448631 6.23587 1.00092V8.60205V8.72104C6.23587 8.91986 6.29514 9.11417 6.4061 9.27915L9.24017 13.4927V30.9991C9.24017 31.5514 9.68789 31.9991 10.2402 31.9991H22.4841C23.0364 31.9991 23.4841 31.5514 23.4841 30.9991V13.5154L26.5701 9.31293C26.6962 9.14132 26.7641 8.93396 26.7641 8.72104V8.60205V1.00092C26.7641 0.448631 26.3164 0.000915527 25.7641 0.000915527H7.23587ZM24.7641 7.60205V2.00092H8.23587V7.60205L24.7641 7.60205ZM9.0336 9.60205L23.8765 9.60205L21.6781 12.5958C21.5521 12.7674 21.4841 12.9748 21.4841 13.1877V24.9994L11.2402 24.9994V13.1877C11.2402 12.9889 11.1809 12.7945 11.0699 12.6296L9.0336 9.60205ZM11.2402 26.9994V29.9991H21.4841V26.9994L11.2402 26.9994ZM17.5254 15.0671C17.5254 14.5148 17.0777 14.0671 16.5254 14.0671C15.9731 14.0671 15.5254 14.5148 15.5254 15.0671V19.8135C15.5254 20.3658 15.9731 20.8135 16.5254 20.8135C17.0777 20.8135 17.5254 20.3658 17.5254 19.8135V15.0671Z" fill="#111827"/>
</svg>
