<svg width="33" height="32" viewBox="0 0 33 32" fill="none" xmlns="http://www.w3.org/2000/svg">
<path fill-rule="evenodd" clip-rule="evenodd" d="M9.31104 1.84125C9.31104 1.28896 9.75875 0.841248 10.311 0.841248H22.5559C23.1082 0.841248 23.5559 1.28896 23.5559 1.84125C23.5559 2.39353 23.1082 2.84125 22.5559 2.84125H21.2433V11.139L32.3563 29.6439C32.5418 29.9528 32.5468 30.3377 32.3693 30.6513C32.1918 30.9649 31.8594 31.1587 31.499 31.1587H1.50085C1.14159 31.1587 0.809928 30.966 0.63204 30.6539C0.454153 30.3417 0.457378 29.9582 0.640488 29.6491L11.6038 11.1422V2.84125H10.311C9.75875 2.84125 9.31104 2.39353 9.31104 1.84125ZM13.6038 2.84125V11.4162C13.6038 11.5956 13.5556 11.7716 13.4642 11.9259L8.69714 19.973C10.7567 19.5585 13.4421 19.8803 16.8807 21.5996C19.5001 22.9093 21.4825 23.261 22.9552 23.162C24.0789 23.0864 24.9482 22.7458 25.6194 22.3107L19.386 11.9311C19.2927 11.7756 19.2433 11.5976 19.2433 11.4162V2.84125H13.6038ZM26.6495 24.0259C25.7239 24.6132 24.5501 25.0592 23.0894 25.1575C21.1712 25.2865 18.8319 24.8112 15.9863 23.3885C11.141 20.9658 8.45015 21.7915 7.0149 22.8375C7.00654 22.8436 6.99811 22.8496 6.98963 22.8554L3.25555 29.1587H29.732L26.6495 24.0259Z" fill="#111827"/>
</svg>
