<svg width="33" height="32" viewBox="0 0 33 32" fill="none" xmlns="http://www.w3.org/2000/svg">
<path fill-rule="evenodd" clip-rule="evenodd" d="M28.082 1.99756C26.7792 1.99756 25.723 3.05369 25.723 4.35649C25.723 5.65929 26.7792 6.71542 28.082 6.71542C29.3848 6.71542 30.4409 5.65929 30.4409 4.35649C30.4409 3.05369 29.3848 1.99756 28.082 1.99756ZM23.723 4.35649C23.723 1.94912 25.6746 -0.00244141 28.082 -0.00244141C30.4893 -0.00244141 32.4409 1.94912 32.4409 4.35649C32.4409 6.76386 30.4893 8.71542 28.082 8.71542C27.3026 8.71542 26.571 8.51088 25.9379 8.15255L21.2012 12.8893C21.7337 13.7442 22.0414 14.7538 22.0414 15.8352C22.0414 17.0102 21.6782 18.1003 21.0581 18.9995L23.7461 21.6876C24.1769 21.485 24.6579 21.3717 25.1655 21.3717C27.0096 21.3717 28.5046 22.8667 28.5046 24.7108C28.5046 26.555 27.0096 28.0499 25.1655 28.0499C23.3214 28.0499 21.8264 26.555 21.8264 24.7108C21.8264 24.1031 21.9888 23.5333 22.2725 23.0424L19.6472 20.417C18.9812 20.881 18.2092 21.2035 17.3749 21.3409V23.3804C19.3437 23.8003 20.8203 25.5494 20.8203 27.6434C20.8203 30.0508 18.8688 32.0024 16.4614 32.0024C14.054 32.0024 12.1024 30.0508 12.1024 27.6434C12.1024 25.6112 13.4932 23.9037 15.3749 23.421V21.3096C14.6288 21.1624 13.9362 20.8665 13.3291 20.454L8.55025 25.2328C9.00941 25.9232 9.27694 26.7521 9.27694 27.6434C9.27694 30.0508 7.32538 32.0024 4.91801 32.0024C2.51064 32.0024 0.559082 30.0508 0.559082 27.6434C0.559082 25.2361 2.51064 23.2845 4.91801 23.2845C5.70921 23.2845 6.45118 23.4953 7.09081 23.8638L11.9018 19.0528C11.2589 18.1436 10.8812 17.0335 10.8812 15.8352C10.8812 14.6283 11.2644 13.5109 11.9157 12.5979L7.74938 8.43158C7.26302 8.70811 6.70043 8.86604 6.10096 8.86604C4.25633 8.86604 2.76096 7.37067 2.76096 5.52604C2.76096 3.68141 4.25633 2.18604 6.10096 2.18604C7.94559 2.18604 9.44096 3.68141 9.44096 5.52604C9.44096 6.04252 9.32373 6.53163 9.11442 6.96819L13.3492 11.2029C14.2382 10.6045 15.309 10.2552 16.4613 10.2552C17.7385 10.2552 18.9155 10.6842 19.8559 11.4061L24.4679 6.79419C23.9976 6.09839 23.723 5.25951 23.723 4.35649ZM16.4613 12.2552C14.4841 12.2552 12.8812 13.858 12.8812 15.8352C12.8812 17.8125 14.4841 19.4153 16.4613 19.4153C18.4385 19.4153 20.0414 17.8125 20.0414 15.8352C20.0414 13.858 18.4385 12.2552 16.4613 12.2552ZM2.55908 27.6434C2.55908 26.3406 3.61521 25.2845 4.91801 25.2845C6.22081 25.2845 7.27694 26.3406 7.27694 27.6434C7.27694 28.9462 6.22081 30.0024 4.91801 30.0024C3.61521 30.0024 2.55908 28.9462 2.55908 27.6434ZM16.4614 25.2845C15.1586 25.2845 14.1024 26.3406 14.1024 27.6434C14.1024 28.9462 15.1586 30.0024 16.4614 30.0024C17.7642 30.0024 18.8203 28.9462 18.8203 27.6434C18.8203 26.3406 17.7642 25.2845 16.4614 25.2845ZM23.8264 24.7108C23.8264 23.9713 24.4259 23.3717 25.1655 23.3717C25.905 23.3717 26.5046 23.9713 26.5046 24.7108C26.5046 25.4504 25.905 26.0499 25.1655 26.0499C24.4259 26.0499 23.8264 25.4504 23.8264 24.7108ZM6.10096 4.18604C5.3609 4.18604 4.76096 4.78598 4.76096 5.52604C4.76096 6.2661 5.3609 6.86604 6.10096 6.86604C6.84102 6.86604 7.44096 6.2661 7.44096 5.52604C7.44096 4.78598 6.84102 4.18604 6.10096 4.18604Z" fill="#111827"/>
</svg>
