<svg width="33" height="32" viewBox="0 0 33 32" fill="none" xmlns="http://www.w3.org/2000/svg">
<path fill-rule="evenodd" clip-rule="evenodd" d="M11.5003 9.50185C10.948 9.50185 10.5003 9.05414 10.5003 8.50185C10.5003 7.94957 10.948 7.50185 11.5003 7.50185H20.4996V2.00098H11.0076L2.50098 10.1866V29.9991H30.4991V2.00098H22.4996V8.50185C22.4996 9.05414 22.0519 9.50185 21.4996 9.50185H11.5003ZM21.5111 0.000980139H31.4991C32.0514 0.000980139 32.4991 0.448695 32.4991 1.00098V30.9991C32.4991 31.5514 32.0514 31.9991 31.4991 31.9991H1.50098C0.948692 31.9991 0.500977 31.5514 0.500977 30.9991V9.7611C0.500977 9.48921 0.611683 9.22904 0.807596 9.04052L9.91125 0.280408C10.0976 0.101128 10.3461 0.000980139 10.6046 0.000980139H21.4882C21.492 0.000937103 21.4958 0.000915527 21.4996 0.000915527C21.5035 0.000915527 21.5073 0.000937103 21.5111 0.000980139ZM16.5009 15.7515C14.6371 15.7515 13.1262 17.2624 13.1262 19.1262C13.1262 20.99 14.6371 22.501 16.5009 22.501C18.3647 22.501 19.8756 20.99 19.8756 19.1262C19.8756 17.2624 18.3647 15.7515 16.5009 15.7515ZM11.1262 19.1262C11.1262 16.1579 13.5325 13.7515 16.5009 13.7515C19.4693 13.7515 21.8756 16.1579 21.8756 19.1262C21.8756 22.0946 19.4693 24.501 16.5009 24.501C13.5325 24.501 11.1262 22.0946 11.1262 19.1262Z" fill="#111827"/>
</svg>
