<svg width="33" height="32" viewBox="0 0 33 32" fill="none" xmlns="http://www.w3.org/2000/svg">
<path fill-rule="evenodd" clip-rule="evenodd" d="M0.500916 1.00092C0.500916 0.448631 0.948631 0.000915527 1.50092 0.000915527H22.3954C22.654 0.000915527 22.9025 0.101063 23.0888 0.280343L32.1925 9.04048C32.3884 9.229 32.4991 9.48916 32.4991 9.76105V30.9991C32.4991 31.5514 32.0514 31.9991 31.4991 31.9991H1.50092C0.948631 31.9991 0.500916 31.5514 0.500916 30.9991V1.00092ZM2.50092 2.00092V29.9991H7.31867V18.7285C7.31867 18.1762 7.76639 17.7285 8.31867 17.7285H24.6813C25.2336 17.7285 25.6813 18.1762 25.6813 18.7285V29.9991H30.4991V10.1866L21.9924 2.00092H2.50092ZM10.0457 6.45665C10.0457 5.90437 10.4934 5.45665 11.0457 5.45665H20.5906C21.1429 5.45665 21.5906 5.90437 21.5906 6.45665C21.5906 7.00893 21.1429 7.45665 20.5906 7.45665H11.0457C10.4934 7.45665 10.0457 7.00893 10.0457 6.45665ZM9.31867 29.9991V19.7285H23.6813V29.9991H9.31867Z" fill="#111827"/>
</svg>
