<svg width="32" height="32" viewBox="0 0 32 32" fill="none" xmlns="http://www.w3.org/2000/svg">
<path d="M7 24.4611C8.65685 24.4611 10 23.1179 10 21.4611C10 19.8042 8.65685 18.4611 7 18.4611C5.34315 18.4611 4 19.8042 4 21.4611C4 23.1179 5.34315 24.4611 7 24.4611Z" stroke="#1C1B1F" stroke-width="2" stroke-linecap="round" stroke-linejoin="round"/>
<path d="M10 21.4611H10.8571C12.2211 21.4611 13.5292 20.9193 14.4937 19.9548C15.4582 18.9903 16 17.6822 16 16.3183V16.3183C16 14.9543 16.5418 13.6462 17.5063 12.6817C18.4708 11.7173 19.7789 11.1754 21.1429 11.1754H28" stroke="#1C1B1F" stroke-width="2" stroke-linecap="round" stroke-linejoin="round"/>
<path d="M24.3635 7.53882L28.0001 11.1754L24.3635 14.8119" stroke="#1C1B1F" stroke-width="2" stroke-linecap="round" stroke-linejoin="round"/>
</svg>
