<svg width="32" height="33" viewBox="0 0 32 33" fill="none" xmlns="http://www.w3.org/2000/svg">
<path d="M16 24.65C17.6467 24.65 20.3742 24.6294 23.503 22.818C26.6318 21.0066 27.6507 18.7526 27.9698 17.5896C27.9992 17.4848 28.0072 17.3752 27.9935 17.2673C27.9797 17.1593 27.9445 17.0553 27.8898 16.9612C27.8351 16.8671 27.762 16.785 27.675 16.7197C27.588 16.6544 27.4887 16.6072 27.3831 16.5809C26.6318 16.3854 25.3144 16.2104 23.6265 16.6118" stroke="#1C1B1F" stroke-width="2" stroke-linecap="round" stroke-linejoin="round"/>
<path d="M8.37351 16.6016C6.68559 16.2105 5.36819 16.3855 4.61687 16.581C4.51127 16.6073 4.41202 16.6545 4.325 16.7198C4.23797 16.7851 4.16495 16.8672 4.11024 16.9613C4.05553 17.0554 4.02026 17.1594 4.00651 17.2674C3.99277 17.3753 4.00083 17.4849 4.03021 17.5897C4.34927 18.7527 5.36819 21.017 8.49701 22.8181C11.6258 24.6192 14.3533 24.6501 16 24.6501" stroke="#1C1B1F" stroke-width="2" stroke-linecap="round" stroke-linejoin="round"/>
<path d="M16 24.6501C16 24.6501 20.1169 22.4064 20.1169 16.4164C20.1169 11.7232 17.585 9.33537 16.494 8.512C16.3508 8.40667 16.1777 8.34985 16 8.34985C15.8222 8.34985 15.6491 8.40667 15.506 8.512C14.415 9.33537 11.8831 11.7232 11.8831 16.4164C11.8831 22.4064 16 24.6501 16 24.6501Z" stroke="#1C1B1F" stroke-width="2" stroke-linecap="round" stroke-linejoin="round"/>
<path d="M16 24.65C17.2351 24.3824 20.5594 22.5092 22.5561 19.0511C24.5528 15.5929 24.0588 12.8449 23.6677 11.6407C23.6079 11.4471 23.477 11.2832 23.3014 11.182C23.1257 11.0808 22.9183 11.0498 22.7208 11.0952C21.5391 11.3599 20.4336 11.8915 19.489 12.6494" stroke="#1C1B1F" stroke-width="2" stroke-linecap="round" stroke-linejoin="round"/>
<path d="M12.5109 12.6494C11.5664 11.8915 10.4609 11.3599 9.27921 11.0952C9.08167 11.0498 8.87426 11.0808 8.69863 11.182C8.523 11.2832 8.39214 11.4471 8.33233 11.6407C7.94123 12.8449 7.4472 15.6032 9.44388 19.0511C11.4406 22.499 14.7649 24.3824 16 24.65" stroke="#1C1B1F" stroke-width="2" stroke-linecap="round" stroke-linejoin="round"/>
</svg>
