<svg width="32" height="33" viewBox="0 0 32 33" fill="none" xmlns="http://www.w3.org/2000/svg">
<path d="M14.5996 13.524C13.7236 11.676 12.7996 9.37201 12.7996 7.86C12.7996 6.96888 13.1536 6.11425 13.7837 5.48412C14.4138 4.854 15.2684 4.5 16.1596 4.5C17.0507 4.5 17.9053 4.854 18.5354 5.48412C19.1656 6.11425 19.5196 6.96888 19.5196 7.86C19.5196 9.37201 18.5956 11.676 17.7196 13.524" stroke="#1C1B1F" stroke-width="2" stroke-linecap="round" stroke-linejoin="round"/>
<path d="M12.7995 16.3561C10.7595 16.2001 8.29954 15.8401 6.99154 15.0841C6.27254 14.6136 5.76107 13.8857 5.56228 13.0498C5.36348 12.2139 5.49247 11.3336 5.92273 10.5898C6.35298 9.8461 7.05181 9.29546 7.87555 9.0511C8.69928 8.80674 9.58533 8.88724 10.3515 9.27605C11.6595 10.02 13.1955 11.976 14.3595 13.668" stroke="#1C1B1F" stroke-width="2" stroke-linecap="round" stroke-linejoin="round"/>
<path d="M14.3596 19.332C13.1956 21.024 11.6596 22.98 10.3516 23.7241C9.96933 23.9741 9.54012 24.1436 9.09017 24.2222C8.64022 24.3008 8.17896 24.2869 7.73459 24.1812C7.29022 24.0755 6.87206 23.8803 6.50566 23.6076C6.13926 23.3349 5.83233 22.9903 5.6036 22.5949C5.37487 22.1995 5.22916 21.7617 5.17536 21.3081C5.12157 20.8545 5.16082 20.3947 5.29072 19.9568C5.42062 19.5189 5.63845 19.1121 5.93088 18.7612C6.22332 18.4103 6.58422 18.1227 6.99155 17.916C8.29955 17.16 10.7596 16.8 12.7996 16.644" stroke="#1C1B1F" stroke-width="2" stroke-linecap="round" stroke-linejoin="round"/>
<path d="M17.7196 19.476C18.5956 21.324 19.5196 23.628 19.5196 25.14C19.5196 26.0311 19.1656 26.8857 18.5354 27.5158C17.9053 28.146 17.0507 28.5 16.1596 28.5C15.2684 28.5 14.4138 28.146 13.7837 27.5158C13.1536 26.8857 12.7996 26.0311 12.7996 25.14C12.7996 23.628 13.7236 21.324 14.5996 19.476" stroke="#1C1B1F" stroke-width="2" stroke-linecap="round" stroke-linejoin="round"/>
<path d="M19.5196 16.644C21.5596 16.8 24.0196 17.16 25.3276 17.916C26.0466 18.3865 26.558 19.1144 26.7568 19.9503C26.9556 20.7862 26.8266 21.6665 26.3964 22.4103C25.9661 23.154 25.2673 23.7046 24.4436 23.949C23.6198 24.1934 22.7338 24.1129 21.9676 23.7241C20.6596 22.98 19.1236 21.024 17.9596 19.332" stroke="#1C1B1F" stroke-width="2" stroke-linecap="round" stroke-linejoin="round"/>
<path d="M17.9596 13.668C19.1236 11.976 20.6596 10.02 21.9676 9.27605C22.7338 8.88724 23.6198 8.80674 24.4436 9.0511C25.2673 9.29546 25.9661 9.8461 26.3964 10.5898C26.8266 11.3336 26.9556 12.2139 26.7568 13.0498C26.558 13.8857 26.0466 14.6136 25.3276 15.0841C24.0196 15.8401 21.5596 16.2001 19.5196 16.3561" stroke="#1C1B1F" stroke-width="2" stroke-linecap="round" stroke-linejoin="round"/>
<circle cx="16.12" cy="16.639" r="3.35973" fill="white" stroke="#1C1B1F" stroke-width="2"/>
</svg>
