<svg width="33" height="33" viewBox="0 0 33 33" fill="none" xmlns="http://www.w3.org/2000/svg">
<path fill-rule="evenodd" clip-rule="evenodd" d="M14.4369 3.43804C15.037 2.83797 15.8508 2.50085 16.6994 2.50085C17.5481 2.50085 18.3619 2.83797 18.962 3.43804C19.5621 4.03811 19.8992 4.85198 19.8992 5.7006C19.8992 6.47703 19.6544 7.54319 19.2386 8.75942C18.8298 9.95542 18.2843 11.2155 17.7457 12.3518C17.5091 12.8509 17.7219 13.4472 18.221 13.6838C18.2447 13.695 18.2686 13.7052 18.2926 13.7145C18.3209 13.739 18.3509 13.7623 18.3825 13.784C18.8376 14.0971 19.4602 13.9819 19.7732 13.5269C20.4886 12.487 21.3082 11.3811 22.1399 10.4288C22.9773 9.46984 23.769 8.73496 24.4326 8.35163C25.1574 7.99054 25.9925 7.91757 26.7694 8.14803C27.5539 8.38073 28.2194 8.90511 28.6291 9.61337C29.0388 10.3216 29.1617 11.1599 28.9724 11.956C28.7852 12.7431 28.3068 13.4298 27.6342 13.8781C26.9612 14.2605 25.9244 14.5792 24.6784 14.8252C23.4383 15.07 22.0741 15.2272 20.823 15.3229C20.2723 15.365 19.86 15.8455 19.9021 16.3962C19.9048 16.4314 19.9093 16.466 19.9155 16.5C19.9093 16.534 19.9048 16.5686 19.9021 16.6038C19.86 17.1544 20.2723 17.635 20.823 17.6771C22.0741 17.7728 23.4383 17.93 24.6784 18.1748C25.9244 18.4207 26.9612 18.7395 27.6341 19.1218C28.3068 19.5702 28.7852 20.2569 28.9724 21.044C29.1617 21.84 29.0388 22.6783 28.6291 23.3866C28.2194 24.0949 27.5539 24.6192 26.7694 24.8519C25.9925 25.0824 25.1574 25.0094 24.4326 24.6483C23.769 24.265 22.9773 23.5301 22.1399 22.5712C21.3082 21.6189 20.4886 20.513 19.7732 19.473C19.4602 19.018 18.8376 18.9029 18.3825 19.2159C18.351 19.2377 18.321 19.2609 18.2927 19.2854C18.2686 19.2947 18.2447 19.3049 18.221 19.3161C17.7219 19.5527 17.5091 20.149 17.7457 20.6481C18.2843 21.7844 18.8298 23.0445 19.2386 24.2405C19.6544 25.4567 19.8992 26.5229 19.8992 27.2993C19.8992 28.1479 19.5621 28.9618 18.962 29.5619C18.3619 30.1619 17.5481 30.4991 16.6994 30.4991C15.8508 30.4991 15.037 30.1619 14.4369 29.5619C13.8368 28.9618 13.4997 28.1479 13.4997 27.2993C13.4997 26.5229 13.7445 25.4567 14.1603 24.2405C14.5691 23.0445 15.1145 21.7844 15.6532 20.6481C15.8897 20.149 15.677 19.5527 15.1779 19.3161C15.1542 19.3049 15.1302 19.2946 15.1061 19.2854C15.0779 19.2609 15.0479 19.2377 15.0163 19.2159C14.5613 18.9029 13.9387 19.018 13.6257 19.473C12.9103 20.513 12.0907 21.6189 11.259 22.5712C10.4128 23.5402 9.61333 24.2804 8.94545 24.6603C8.92743 24.6705 8.90973 24.6813 8.89238 24.6927C8.52838 24.9308 8.11965 25.0922 7.69116 25.1671C7.26267 25.2419 6.82341 25.2286 6.40023 25.128C5.97705 25.0274 5.57884 24.8415 5.22992 24.5818C4.88099 24.322 4.58869 23.9939 4.37088 23.6174C4.15306 23.2409 4.01429 22.8239 3.96306 22.3919C3.91184 21.96 3.94922 21.5221 4.07292 21.1051C4.19663 20.6881 4.40406 20.3006 4.68255 19.9665C4.96104 19.6324 5.30473 19.3585 5.69263 19.1617C5.70883 19.1535 5.7248 19.1448 5.74053 19.1357C6.41267 18.7472 7.45943 18.4237 8.72045 18.1748C9.96063 17.93 11.3248 17.7728 12.5759 17.6771C13.1266 17.635 13.5389 17.1544 13.4968 16.6038C13.4941 16.5685 13.4896 16.5339 13.4834 16.4999C13.4896 16.466 13.4941 16.4314 13.4967 16.3962C13.5389 15.8455 13.1266 15.365 12.5759 15.3229C11.3247 15.2272 9.9606 15.07 8.72042 14.8252C7.47444 14.5792 6.43764 14.2605 5.76471 13.8781C5.09203 13.4298 4.61369 12.7431 4.42649 11.956C4.23718 11.1599 4.36001 10.3216 4.76975 9.61337C5.17948 8.90511 5.84498 8.38073 6.62943 8.14803C7.40632 7.91757 8.24141 7.99054 8.96621 8.35163C9.62986 8.73496 10.4215 9.46985 11.259 10.4288C12.0907 11.3811 12.9103 12.487 13.6257 13.5269C13.9387 13.9819 14.5613 14.0971 15.0163 13.784C15.0479 13.7623 15.0779 13.7391 15.1062 13.7145C15.1303 13.7053 15.1542 13.695 15.1779 13.6838C15.677 13.4472 15.8897 12.8509 15.6532 12.3518C15.1145 11.2155 14.5691 9.95542 14.1603 8.75942C13.7445 7.54319 13.4997 6.47703 13.4997 5.7006C13.4997 4.85198 13.8368 4.03811 14.4369 3.43804ZM26.3192 16.5C27.1896 16.7315 28.0043 17.0256 28.6592 17.4041C28.6751 17.4133 28.6908 17.423 28.7063 17.4331C29.8189 18.1611 30.6105 19.2877 30.9181 20.5813C31.2257 21.8749 31.0261 23.2372 30.3603 24.3881C29.6945 25.5391 28.613 26.3912 27.3382 26.7694C26.0635 27.1475 24.6923 27.0229 23.5065 26.4212C23.4924 26.4141 23.4784 26.4065 23.4646 26.3987C22.8084 26.0255 22.1473 25.4694 21.5131 24.8335C21.7467 25.6977 21.8992 26.5455 21.8992 27.2993C21.8992 28.6784 21.3514 30.0009 20.3762 30.9761C19.4011 31.9512 18.0785 32.4991 16.6994 32.4991C15.3204 32.4991 13.9978 31.9512 13.0227 30.9761C12.0475 30.0009 11.4997 28.6784 11.4997 27.2993C11.4997 26.5455 11.6522 25.6977 11.8858 24.8335C11.2603 25.4607 10.6085 26.0103 9.9612 26.3833C9.37629 26.761 8.72139 27.0174 8.03532 27.1373C7.339 27.2589 6.62519 27.2373 5.9375 27.0737C5.24981 26.9102 4.60269 26.6082 4.03568 26.1861C3.46867 25.764 2.99366 25.2307 2.6397 24.6189C2.28573 24.007 2.06023 23.3294 1.97698 22.6275C1.89373 21.9255 1.95448 21.214 2.15551 20.5363C2.35654 19.8586 2.69363 19.229 3.14618 18.686C3.5929 18.1501 4.14285 17.7095 4.76323 17.3906C5.41408 17.0186 6.21972 16.7288 7.07969 16.5C6.20932 16.2685 5.3946 15.9744 4.73968 15.5958C4.72373 15.5866 4.70803 15.577 4.6926 15.5669C3.57992 14.8389 2.7884 13.7123 2.48076 12.4187C2.17311 11.1251 2.37273 9.76281 3.03857 8.61186C3.70441 7.46091 4.78587 6.60877 6.06064 6.23062C7.33541 5.85247 8.7066 5.97704 9.89235 6.57873C9.9065 6.58591 9.92047 6.59342 9.93426 6.60127C10.5904 6.9745 11.2516 7.5306 11.8858 8.16655C11.6522 7.30228 11.4997 6.45441 11.4997 5.7006C11.4997 4.32154 12.0475 2.99897 13.0227 2.02383C13.9978 1.04868 15.3204 0.500854 16.6994 0.500854C18.0785 0.500854 19.4011 1.04868 20.3762 2.02383C21.3514 2.99897 21.8992 4.32155 21.8992 5.7006C21.8992 6.45439 21.7467 7.30225 21.5131 8.1665C22.1473 7.53057 22.8084 6.97449 23.4646 6.60127C23.4784 6.59342 23.4924 6.58591 23.5065 6.57873C24.6923 5.97704 26.0635 5.85247 27.3382 6.23062C28.613 6.60877 29.6945 7.46091 30.3603 8.61186C31.0261 9.76281 31.2257 11.1251 30.9181 12.4187C30.6105 13.7123 29.8189 14.8389 28.7063 15.5669C28.6908 15.577 28.6751 15.5866 28.6592 15.5958C28.0043 15.9744 27.1896 16.2684 26.3192 16.5Z" fill="#111827"/>
<ellipse cx="16.65" cy="16.6736" rx="4.1994" ry="4.1994" stroke="#111827" stroke-width="2"/>
</svg>
