<svg width="33" height="33" viewBox="0 0 33 33" fill="none" xmlns="http://www.w3.org/2000/svg">
<path fill-rule="evenodd" clip-rule="evenodd" d="M15.2905 5.71925C15.6411 5.46136 16.0649 5.32227 16.5 5.32227C16.9352 5.32227 17.359 5.46136 17.7096 5.71925L17.7194 5.7265L17.7194 5.72656C18.6154 6.4028 20.1739 7.81514 21.2974 10.1564C22.3342 9.51163 23.4746 9.04383 24.672 8.7754C25.1638 8.6632 25.6798 8.74073 26.117 8.99257C26.5527 9.24358 26.8779 9.64928 27.0283 10.1289C27.3735 11.1945 27.7491 13.0437 27.3411 15.4003C28.8994 15.2356 30.1452 15.42 30.9624 15.6322C31.2219 15.6976 31.4657 15.814 31.6798 15.9746C31.8955 16.1365 32.0765 16.3401 32.2121 16.5732C32.3477 16.8064 32.4351 17.0643 32.4692 17.3319C32.5031 17.5983 32.4835 17.8689 32.4113 18.1276C31.9522 19.7992 30.5326 22.8457 26.3706 25.2552C22.2412 27.646 18.6243 27.6774 16.5213 27.6776C16.5142 27.6777 16.5071 27.6778 16.5 27.6778C16.4929 27.6778 16.4858 27.6777 16.4787 27.6776C14.3757 27.6774 10.7588 27.646 6.62937 25.2552C2.46742 22.8457 1.04777 19.7992 0.588656 18.1276C0.516535 17.8689 0.496861 17.5983 0.530797 17.3319C0.56487 17.0643 0.652295 16.8064 0.787894 16.5732C0.923495 16.3401 1.10451 16.1365 1.32021 15.9746C1.53426 15.814 1.77815 15.6976 2.03764 15.6322C2.85483 15.42 4.10059 15.2356 5.65887 15.4003C5.2509 13.0437 5.62648 11.1945 5.97175 10.1289C6.12206 9.64928 6.4473 9.24358 6.88302 8.99257C7.32018 8.74073 7.83625 8.6632 8.32804 8.7754C9.52543 9.04384 10.6659 9.51165 11.7027 10.1564C12.8262 7.81516 14.3847 6.40281 15.2807 5.72656L15.2905 5.71919L15.2905 5.71925ZM10.9666 12.0635C10.0363 11.4281 8.99206 10.9737 7.88866 10.7265L7.88866 10.7266L7.88318 10.7253C7.88257 10.7252 7.88192 10.7253 7.88138 10.7256C7.88083 10.7259 7.88042 10.7264 7.88023 10.727L7.87586 10.7408C7.45415 12.0392 6.85771 15.1656 9.17886 19.1858C9.8608 20.3669 10.6776 21.3932 11.5296 22.2623C10.8426 20.7007 10.359 18.7598 10.359 16.3956C10.359 14.7484 10.5934 13.31 10.9666 12.0635ZM22.6411 16.3956C22.6411 14.7484 22.4067 13.3099 22.0335 12.0634C22.9638 11.428 24.008 10.9737 25.1113 10.7265L25.1113 10.7266L25.1168 10.7253C25.1174 10.7252 25.1181 10.7253 25.1186 10.7256C25.1192 10.7259 25.1196 10.7264 25.1198 10.727L25.1241 10.7408C25.5459 12.0392 26.1423 15.1656 23.8211 19.1858C23.1392 20.3668 22.3225 21.3931 21.4706 22.2622C22.1575 20.7005 22.6411 18.7597 22.6411 16.3956ZM16.5 25.4784C16.4425 25.4358 16.3808 25.3888 16.3154 25.3373C15.885 24.9983 15.3016 24.4692 14.7158 23.7238C13.5525 22.2435 12.359 19.8863 12.359 16.3956C12.359 10.966 15.2624 8.2484 16.4775 7.32904C16.4842 7.32463 16.492 7.32227 16.5 7.32227C16.5081 7.32227 16.5159 7.32463 16.5226 7.32904C17.7377 8.2484 20.6411 10.966 20.6411 16.3956C20.6411 19.8863 19.4476 22.2435 18.2843 23.7238C17.6985 24.4692 17.1151 24.9983 16.6846 25.3373C16.6193 25.3888 16.5576 25.4358 16.5 25.4784ZM26.7943 17.499C26.4973 18.3521 26.0929 19.2509 25.5532 20.1858C24.3164 22.3278 22.7022 24.0034 21.1706 25.2175C22.4583 24.9079 23.8731 24.3902 25.3686 23.5244C29.019 21.411 30.1448 18.8298 30.4833 17.5961L30.4848 17.5906L30.4848 17.5906L30.4853 17.5882C30.4854 17.587 30.4854 17.5857 30.4852 17.5846C30.4851 17.5834 30.4848 17.5823 30.4844 17.5812C30.4841 17.5804 30.4837 17.5796 30.4833 17.5788C30.4827 17.5778 30.482 17.5769 30.4813 17.5761L30.4792 17.5742C30.4776 17.573 30.4757 17.5721 30.4737 17.5716L30.4631 17.569L30.4631 17.5689C29.7354 17.3795 28.457 17.1938 26.7943 17.499ZM7.44683 20.1858C6.90706 19.2509 6.50272 18.3521 6.20571 17.499C4.54302 17.1938 3.26458 17.3795 2.53686 17.5689L2.53687 17.569L2.5263 17.5716C2.52431 17.5721 2.52244 17.573 2.52079 17.5742C2.51914 17.5754 2.51776 17.577 2.51673 17.5788C2.5157 17.5805 2.51503 17.5825 2.51477 17.5846C2.51451 17.5866 2.51466 17.5887 2.51522 17.5906L2.51523 17.5906L2.51675 17.5961C2.85518 18.8298 3.98098 21.411 7.63144 23.5244C9.12694 24.3902 10.5417 24.9079 11.8294 25.2175C10.2978 24.0034 8.6836 22.3278 7.44683 20.1858Z" fill="#111827"/>
</svg>
