<svg width="33" height="32" viewBox="0 0 33 32" fill="none" xmlns="http://www.w3.org/2000/svg">
<path fill-rule="evenodd" clip-rule="evenodd" d="M27.6608 4.71709C27.2703 4.32656 26.6371 4.32656 26.2466 4.71709C25.8561 5.10761 25.8561 5.74078 26.2466 6.1313L29.085 8.96973H22.9282C20.9581 8.96973 19.0687 9.75234 17.6757 11.1454C16.2826 12.5384 15.5 14.4278 15.5 16.3979C15.5 17.8375 14.9281 19.2182 13.9102 20.2362C12.8922 21.2541 11.5115 21.826 10.0719 21.826H9.89503C9.43579 19.683 7.5309 18.0763 5.25073 18.0763C2.62751 18.0763 0.500977 20.2029 0.500977 22.8261C0.500977 25.4493 2.62751 27.5758 5.25073 27.5758C7.53092 27.5758 9.43584 25.9691 9.89504 23.826H10.0719C12.0419 23.826 13.9313 23.0434 15.3244 21.6504C16.7174 20.2573 17.5 18.368 17.5 16.3979C17.5 14.9583 18.0719 13.5776 19.0899 12.5596C20.1079 11.5416 21.4885 10.9697 22.9282 10.9697H29.0847L26.2466 13.8079C25.8561 14.1984 25.8561 14.8316 26.2466 15.2221C26.6371 15.6126 27.2703 15.6126 27.6608 15.2221L32.1969 10.686C32.2332 10.6506 32.2669 10.6124 32.2975 10.5719C32.4135 10.4183 32.4863 10.2301 32.4975 10.0256C32.5039 9.91107 32.4907 9.79569 32.4579 9.68487C32.4567 9.68101 32.4556 9.67715 32.4544 9.67329C32.4079 9.52298 32.3252 9.38147 32.2062 9.26248L27.6608 4.71709ZM5.25073 20.0763C3.73208 20.0763 2.50098 21.3074 2.50098 22.8261C2.50098 24.3447 3.73208 25.5758 5.25073 25.5758C6.76938 25.5758 8.00049 24.3447 8.00049 22.8261C8.00049 21.3074 6.76938 20.0763 5.25073 20.0763Z" fill="#111827"/>
</svg>
