<svg width="33" height="32" viewBox="0 0 33 32" fill="none" xmlns="http://www.w3.org/2000/svg">
<path fill-rule="evenodd" clip-rule="evenodd" d="M10.5081 10.4829C10.5081 7.20077 13.1688 4.54004 16.451 4.54004C19.7331 4.54004 22.3939 7.20077 22.3939 10.4829C22.3939 10.8388 22.3627 11.1867 22.3031 11.5241C18.3217 12.8936 14.3158 12.7906 10.5984 11.5217C10.5391 11.185 10.5081 10.838 10.5081 10.4829ZM8.6414 9.02592C8.55383 9.49825 8.50806 9.98525 8.50806 10.4829C8.50806 11.0888 8.57606 11.6799 8.70526 12.2487C8.81989 12.7534 9.18681 13.1429 9.6477 13.308C13.9421 14.8464 18.6267 14.9806 23.2572 13.3084C23.7157 13.1428 24.0816 12.7544 24.1962 12.2507C24.3257 11.6813 24.3939 11.0895 24.3939 10.4829C24.3939 9.97202 24.3456 9.47237 24.2534 8.98829C26.0412 9.47404 27.5209 10.1131 28.5959 10.8354C29.9637 11.7545 30.4989 12.6759 30.4989 13.4605C30.4989 14.0098 30.2435 14.6167 29.6091 15.2599C28.9704 15.9074 27.9966 16.5364 26.7139 17.0864C24.1522 18.1847 20.5425 18.8887 16.4998 18.8887C12.4571 18.8887 8.8474 18.1847 6.2857 17.0864C5.00308 16.5364 4.02923 15.9074 3.39054 15.2599C2.7561 14.6167 2.50073 14.0098 2.50073 13.4605C2.50073 12.6786 3.0394 11.7537 4.41853 10.8317C5.47169 10.1276 6.90958 9.50346 8.6414 9.02592ZM9.42593 6.77295C6.98826 7.308 4.86612 8.12669 3.30698 9.16903C1.69633 10.2458 0.500732 11.698 0.500732 13.4605C0.500732 14.6857 1.08404 15.7696 1.96667 16.6644C2.84505 17.5549 4.06665 18.311 5.49759 18.9245C8.36302 20.1531 12.2528 20.8887 16.4998 20.8887C20.7468 20.8887 24.6366 20.1531 27.502 18.9245C28.933 18.311 30.1546 17.5549 31.033 16.6644C31.9156 15.7696 32.4989 14.6857 32.4989 13.4605C32.4989 11.7006 31.3132 10.2517 29.7113 9.17535C28.1254 8.10973 25.9529 7.277 23.4567 6.73679C22.1183 4.23896 19.483 2.54004 16.451 2.54004C13.4043 2.54004 10.7582 4.25537 9.42593 6.77295ZM16.412 16.4257L16.4065 18.4257L16.412 18.4257H16.4121L16.451 18.4258L16.4898 18.4257H16.4899L16.4954 18.4257L16.4899 16.4257H16.412ZM12.0225 23.8954C12.1126 23.3505 11.7438 22.8358 11.1989 22.7457C10.6541 22.6557 10.1393 23.0244 10.0493 23.5693L9.527 26.7298C9.43695 27.2747 9.80568 27.7894 10.3506 27.8795C10.8955 27.9695 11.4102 27.6008 11.5002 27.0559L12.0225 23.8954ZM21.801 22.7457C22.3459 22.6557 22.8606 23.0244 22.9506 23.5693L23.4729 26.7298C23.563 27.2747 23.1943 27.7894 22.6494 27.8795C22.1045 27.9695 21.5897 27.6008 21.4997 27.0559L20.9774 23.8954C20.8874 23.3505 21.2561 22.8358 21.801 22.7457ZM16.4998 23.1741C17.0521 23.1741 17.4998 23.6219 17.4998 24.1741V28.4596C17.4998 29.0119 17.0521 29.4596 16.4998 29.4596C15.9475 29.4596 15.4998 29.0119 15.4998 28.4596V24.1741C15.4998 23.6219 15.9475 23.1741 16.4998 23.1741Z" fill="#111827"/>
</svg>
