<svg width="33" height="33" viewBox="0 0 33 33" fill="none" xmlns="http://www.w3.org/2000/svg">
<path fill-rule="evenodd" clip-rule="evenodd" d="M10.5081 10.9829C10.5081 7.70077 13.1688 5.04004 16.451 5.04004C19.7331 5.04004 22.3939 7.70077 22.3939 10.9829C22.3939 11.3388 22.3627 11.6867 22.3031 12.0241C18.3217 13.3936 14.3158 13.2906 10.5984 12.0217C10.5391 11.685 10.5081 11.338 10.5081 10.9829ZM8.6414 9.52592C8.55383 9.99825 8.50806 10.4852 8.50806 10.9829C8.50806 11.5888 8.57606 12.1799 8.70526 12.7487C8.81989 13.2534 9.18681 13.6429 9.6477 13.808C13.9421 15.3464 18.6267 15.4806 23.2572 13.8084C23.7157 13.6428 24.0816 13.2544 24.1962 12.7507C24.3257 12.1813 24.3939 11.5895 24.3939 10.9829C24.3939 10.472 24.3456 9.97237 24.2534 9.48829C26.0412 9.97404 27.5209 10.6131 28.5959 11.3354C29.9637 12.2545 30.4989 13.1759 30.4989 13.9605C30.4989 14.5098 30.2435 15.1167 29.6091 15.7599C28.9704 16.4074 27.9966 17.0364 26.7139 17.5864C24.1522 18.6847 20.5425 19.3887 16.4998 19.3887C12.4571 19.3887 8.8474 18.6847 6.2857 17.5864C5.00308 17.0364 4.02923 16.4074 3.39054 15.7599C2.7561 15.1167 2.50073 14.5098 2.50073 13.9605C2.50073 13.1786 3.0394 12.2537 4.41853 11.3317C5.47169 10.6276 6.90958 10.0035 8.6414 9.52592ZM9.42593 7.27295C6.98826 7.808 4.86612 8.62669 3.30698 9.66903C1.69633 10.7458 0.500732 12.198 0.500732 13.9605C0.500732 15.1857 1.08404 16.2696 1.96667 17.1644C2.84505 18.0549 4.06665 18.811 5.49759 19.4245C8.36302 20.6531 12.2528 21.3887 16.4998 21.3887C20.7468 21.3887 24.6366 20.6531 27.502 19.4245C28.933 18.811 30.1546 18.0549 31.033 17.1644C31.9156 16.2696 32.4989 15.1857 32.4989 13.9605C32.4989 12.2006 31.3132 10.7517 29.7113 9.67535C28.1254 8.60973 25.9529 7.777 23.4567 7.23679C22.1183 4.73896 19.483 3.04004 16.451 3.04004C13.4043 3.04004 10.7582 4.75537 9.42593 7.27295ZM16.412 16.9257L16.4065 18.9257L16.412 18.9257H16.4121L16.451 18.9258L16.4898 18.9257H16.4899L16.4954 18.9257L16.4899 16.9257H16.412ZM12.0225 24.3954C12.1126 23.8505 11.7438 23.3358 11.1989 23.2457C10.6541 23.1557 10.1393 23.5244 10.0493 24.0693L9.527 27.2298C9.43695 27.7747 9.80568 28.2894 10.3506 28.3795C10.8955 28.4695 11.4102 28.1008 11.5002 27.5559L12.0225 24.3954ZM21.801 23.2457C22.3459 23.1557 22.8606 23.5244 22.9506 24.0693L23.4729 27.2298C23.563 27.7747 23.1943 28.2894 22.6494 28.3795C22.1045 28.4695 21.5897 28.1008 21.4997 27.5559L20.9774 24.3954C20.8874 23.8505 21.2561 23.3358 21.801 23.2457ZM16.4998 23.6741C17.0521 23.6741 17.4998 24.1219 17.4998 24.6741V28.9596C17.4998 29.5119 17.0521 29.9596 16.4998 29.9596C15.9475 29.9596 15.4998 29.5119 15.4998 28.9596V24.6741C15.4998 24.1219 15.9475 23.6741 16.4998 23.6741Z" fill="#111827"/>
</svg>
