<svg width="32" height="32" viewBox="0 0 32 32" fill="none" xmlns="http://www.w3.org/2000/svg">
<path d="M20.3716 22.1863L20.7894 24.7149" stroke="#1C1B1F" stroke-width="2" stroke-linecap="round" stroke-linejoin="round"/>
<path d="M16 22.5398V25.9684" stroke="#1C1B1F" stroke-width="2" stroke-linecap="round" stroke-linejoin="round"/>
<path d="M11.6285 22.1863L11.2107 24.7149" stroke="#1C1B1F" stroke-width="2" stroke-linecap="round" stroke-linejoin="round"/>
<path d="M21.25 9.33984C25.2464 10.1756 28 11.9327 28 13.9684C28 16.8077 22.6321 19.1113 16 19.1113C9.36786 19.1113 4 16.8077 4 13.9684C4 11.9327 6.775 10.1648 10.7929 9.33984" stroke="#1C1B1F" stroke-width="2" stroke-linecap="round" stroke-linejoin="round"/>
<path d="M10.8364 13.1106L10.5021 14.053L10.8364 13.1106ZM21.3885 12.773L20.4114 12.5603L21.3885 12.773ZM21.0861 13.1117L20.7494 12.1701L21.0861 13.1117ZM20.5156 11.5862C20.5156 11.9215 20.4795 12.2473 20.4114 12.5603L22.3656 12.9856C22.464 12.5338 22.5156 12.0654 22.5156 11.5862H20.5156ZM15.9609 7.03149C18.4764 7.03149 20.5156 9.07068 20.5156 11.5862H22.5156C22.5156 7.96611 19.5809 5.03149 15.9609 5.03149V7.03149ZM11.4062 11.5862C11.4062 9.07068 13.4454 7.03149 15.9609 7.03149V5.03149C12.3409 5.03149 9.40625 7.96611 9.40625 11.5862H11.4062ZM11.5102 12.559C11.4422 12.2464 11.4062 11.9211 11.4062 11.5862H9.40625C9.40625 12.0648 9.45772 12.5325 9.55579 12.9838L11.5102 12.559ZM10.5021 14.053C13.9493 15.2757 17.7074 15.3816 21.4227 14.0533L20.7494 12.1701C17.4902 13.3353 14.2066 13.2449 11.1707 12.1681L10.5021 14.053ZM9.55579 12.9838C9.66736 13.4971 10.0398 13.8891 10.5021 14.053L11.1707 12.1681C11.3277 12.2238 11.4674 12.3622 11.5102 12.559L9.55579 12.9838ZM20.4114 12.5603C20.4541 12.3638 20.5933 12.2259 20.7494 12.1701L21.4227 14.0533C21.8829 13.8888 22.2542 13.4978 22.3656 12.9856L20.4114 12.5603Z" fill="#1C1B1F"/>
</svg>
