<svg width="33" height="32" viewBox="0 0 33 32" fill="none" xmlns="http://www.w3.org/2000/svg">
<path fill-rule="evenodd" clip-rule="evenodd" d="M1.50092 2.50073C0.948631 2.50073 0.500916 2.94845 0.500916 3.50073V8.50042V8.50043V11.0003C0.500916 11.5526 0.948631 12.0003 1.50092 12.0003C2.0532 12.0003 2.50092 11.5526 2.50092 11.0003V9.50043H16.5C16.501 9.50043 16.5021 9.50043 16.5031 9.50042H18.3749C18.9272 9.50042 19.3749 9.05271 19.3749 8.50042C19.3749 7.94814 18.9272 7.50042 18.3749 7.50042H16.9142L12.2074 2.79363C12.0199 2.60609 11.7655 2.50073 11.5003 2.50073H1.50092ZM3.37892 7.50043H7.12245C7.12349 7.50042 7.12453 7.50042 7.12557 7.50042H10.8753C10.8764 7.50042 10.8774 7.50042 10.8785 7.50043H14.0858L11.0861 4.50073H2.50092V7.50042H3.3758C3.37684 7.50042 3.37788 7.50042 3.37892 7.50043ZM22.1247 7.50042C21.5724 7.50042 21.1247 7.94814 21.1247 8.50042C21.1247 9.05271 21.5724 9.50042 22.1247 9.50042H25.8744C26.4267 9.50042 26.8744 9.05271 26.8744 8.50042C26.8744 7.94814 26.4267 7.50042 25.8744 7.50042H22.1247ZM29.6242 7.50042C29.0719 7.50042 28.6242 7.94814 28.6242 8.50042C28.6242 9.05271 29.0719 9.50042 29.6242 9.50042H30.4991V11.0003C30.4991 11.5526 30.9468 12.0003 31.4991 12.0003C32.0514 12.0003 32.4991 11.5526 32.4991 11.0003V8.50042C32.4991 7.94814 32.0514 7.50042 31.4991 7.50042H29.6242ZM2.50092 16C2.50092 15.4477 2.0532 15 1.50092 15C0.948631 15 0.500916 15.4477 0.500916 16V20.9997C0.500916 21.5519 0.948631 21.9997 1.50092 21.9997C2.0532 21.9997 2.50092 21.5519 2.50092 20.9997V16ZM32.4991 16C32.4991 15.4477 32.0514 15 31.4991 15C30.9468 15 30.4991 15.4477 30.4991 16V20.9997C30.4991 21.5519 30.9468 21.9997 31.4991 21.9997C32.0514 21.9997 32.4991 21.5519 32.4991 20.9997V16ZM2.50092 25.9994C2.50092 25.4471 2.0532 24.9994 1.50092 24.9994C0.948631 24.9994 0.500916 25.4471 0.500916 25.9994V28.4992C0.500916 29.0515 0.948631 29.4992 1.50092 29.4992H3.3758C3.92809 29.4992 4.3758 29.0515 4.3758 28.4992C4.3758 27.9469 3.92809 27.4992 3.3758 27.4992H2.50092V25.9994ZM32.4991 25.9994C32.4991 25.4471 32.0514 24.9994 31.4991 24.9994C30.9468 24.9994 30.4991 25.4471 30.4991 25.9994V27.4992H29.6242C29.0719 27.4992 28.6242 27.9469 28.6242 28.4992C28.6242 29.0515 29.0719 29.4992 29.6242 29.4992H31.4991C32.0514 29.4992 32.4991 29.0515 32.4991 28.4992V25.9994ZM7.12557 27.4992C6.57329 27.4992 6.12557 27.9469 6.12557 28.4992C6.12557 29.0515 6.57329 29.4992 7.12557 29.4992H10.8753C11.4276 29.4992 11.8753 29.0515 11.8753 28.4992C11.8753 27.9469 11.4276 27.4992 10.8753 27.4992H7.12557ZM14.6251 27.4992C14.0728 27.4992 13.6251 27.9469 13.6251 28.4992C13.6251 29.0515 14.0728 29.4992 14.6251 29.4992H18.3749C18.9272 29.4992 19.3749 29.0515 19.3749 28.4992C19.3749 27.9469 18.9272 27.4992 18.3749 27.4992H14.6251ZM22.1247 27.4992C21.5724 27.4992 21.1247 27.9469 21.1247 28.4992C21.1247 29.0515 21.5724 29.4992 22.1247 29.4992H25.8744C26.4267 29.4992 26.8744 29.0515 26.8744 28.4992C26.8744 27.9469 26.4267 27.4992 25.8744 27.4992H22.1247Z" fill="#111827"/>
</svg>
