<svg width="33" height="32" viewBox="0 0 33 32" fill="none" xmlns="http://www.w3.org/2000/svg">
<path fill-rule="evenodd" clip-rule="evenodd" d="M0.507262 4.50897C0.507262 3.95669 0.954977 3.50897 1.50726 3.50897H10.662C10.9272 3.50897 11.1816 3.61433 11.3691 3.80187L15.6536 8.08635H28.9715C29.5238 8.08635 29.9715 8.53406 29.9715 9.08635V12.4241H31.2692C31.6648 12.4241 32.0364 12.6139 32.2677 12.9343C32.499 13.2547 32.5619 13.6666 32.4368 14.0413L27.8925 27.6509C27.7249 28.1526 27.2546 28.491 26.7248 28.491H1.73078C1.48383 28.491 1.24629 28.4171 1.04636 28.2835C0.726031 28.1169 0.507262 27.7819 0.507262 27.3959V27.3956C0.49762 27.3073 0.497539 27.218 0.507262 27.129V9.08635V4.50897ZM2.50726 21.0516L5.10754 13.2642C5.27507 12.7625 5.74539 12.4241 6.27515 12.4241H27.9715V10.0863H15.2394C14.9633 10.0863 14.7133 9.97442 14.5323 9.79346L10.2478 5.50897H2.50726V9.08635V21.0516ZM3.43838 26.0337L7.16224 14.8814H29.5616L25.8378 26.0337H3.43838Z" fill="#111827"/>
</svg>
