<svg width="33" height="32" viewBox="0 0 33 32" fill="none" xmlns="http://www.w3.org/2000/svg">
<path fill-rule="evenodd" clip-rule="evenodd" d="M1.44116 2.45099C0.888877 2.45099 0.441162 2.8987 0.441162 3.45099V8.47058V8.4706V28.549C0.441162 29.1013 0.888877 29.549 1.44116 29.549H31.5588C32.1111 29.549 32.5588 29.1013 32.5588 28.549V8.47058C32.5588 7.91829 32.1111 7.47058 31.5588 7.47058H16.9142L12.1875 2.74388C11.9999 2.55635 11.7456 2.45099 11.4804 2.45099H1.44116ZM2.44116 9.4706H16.5C16.5021 9.4706 16.5041 9.47059 16.5062 9.47058H30.5588V27.549H2.44116V9.4706ZM14.0858 7.47058L11.0662 4.45099H2.44116V7.47058H14.0858ZM11.7353 18.5098C11.7353 17.9575 12.183 17.5098 12.7353 17.5098H20.2647C20.817 17.5098 21.2647 17.9575 21.2647 18.5098C21.2647 19.0621 20.817 19.5098 20.2647 19.5098H12.7353C12.183 19.5098 11.7353 19.0621 11.7353 18.5098Z" fill="#111827"/>
</svg>
