<svg width="33" height="32" viewBox="0 0 33 32" fill="none" xmlns="http://www.w3.org/2000/svg">
<path fill-rule="evenodd" clip-rule="evenodd" d="M1.50085 3.46222C0.94857 3.46222 0.500854 3.90993 0.500854 4.46222V9.07732V9.07734V12.3011V27.5378C0.500854 28.09 0.94857 28.5378 1.50085 28.5378H28.4615H31.499C32.0513 28.5378 32.499 28.09 32.499 27.5378V13.7029V9.07734C32.499 8.52506 32.0513 8.07734 31.499 8.07734H15.7604L11.4382 3.75511C11.2506 3.56758 10.9963 3.46222 10.7311 3.46222H1.50085ZM15.6608 10.0773L11.3037 13.1209C11.1358 13.2382 10.9359 13.3011 10.7311 13.3011H2.50085V26.5378H28.4615H30.499V13.7029V10.0773H15.6608ZM2.50085 11.3011H10.4164L13.7954 8.94077L10.3168 5.46222H2.50085V9.07732V9.07734V11.3011ZM17.4996 15.375C17.4996 14.8227 17.0518 14.375 16.4996 14.375C15.9473 14.375 15.4996 14.8227 15.4996 15.375V18.1248H12.7497C12.1974 18.1248 11.7497 18.5725 11.7497 19.1248C11.7497 19.6771 12.1974 20.1248 12.7497 20.1248H15.4996V22.8745C15.4996 23.4268 15.9473 23.8745 16.4996 23.8745C17.0518 23.8745 17.4996 23.4268 17.4996 22.8745V20.1248H20.2492C20.8015 20.1248 21.2492 19.6771 21.2492 19.1248C21.2492 18.5725 20.8015 18.1248 20.2492 18.1248H17.4996V15.375Z" fill="#111827"/>
</svg>
