<svg width="33" height="32" viewBox="0 0 33 32" fill="none" xmlns="http://www.w3.org/2000/svg">
<path fill-rule="evenodd" clip-rule="evenodd" d="M0.500919 4.46222C0.500919 3.90993 0.948635 3.46222 1.50092 3.46222H10.7311C10.9963 3.46222 11.2507 3.56758 11.4382 3.75511L15.7605 8.07734H29.1915C29.7438 8.07734 30.1915 8.52506 30.1915 9.07734V12.6925H31.4991C31.8205 12.6925 32.1224 12.847 32.3103 13.1078C32.4983 13.3685 32.5494 13.7037 32.4478 14.0087L27.8327 27.854C27.6965 28.2623 27.3144 28.5378 26.884 28.5378H1.50092C1.48685 28.5378 1.47282 28.5375 1.45884 28.5369C1.23247 28.5275 1.02554 28.4429 0.862382 28.3074C0.645582 28.1273 0.506092 27.8574 0.50106 27.5547C0.500948 27.5481 0.500901 27.5415 0.500919 27.5349V9.07734V9.07732V4.46222ZM26.1632 26.5378H3.00253L6.78197 17.4922H15.0435C15.2585 17.4922 15.4678 17.4229 15.6403 17.2946L19.1387 14.6925H29.0468C29.0941 14.6993 29.1424 14.7029 29.1915 14.7029C29.2407 14.7029 29.289 14.6993 29.3362 14.6925H30.1117L26.1632 26.5378ZM28.1915 12.6925H18.8076C18.5925 12.6925 18.3833 12.7618 18.2107 12.8901L14.7123 15.4922H6.11602C5.71268 15.4922 5.34882 15.7346 5.19332 16.1067L2.50092 22.5506V9.07734V9.07732V5.46222H10.3169L14.6353 9.78066C14.8166 9.96385 15.0682 10.0773 15.3462 10.0773H28.1915V12.6925Z" fill="#111827"/>
</svg>
