<svg width="33" height="32" viewBox="0 0 33 32" fill="none" xmlns="http://www.w3.org/2000/svg">
<path fill-rule="evenodd" clip-rule="evenodd" d="M1.50092 3.46222C0.948631 3.46222 0.500916 3.90993 0.500916 4.46222V9.07732V9.07734V12.3011V27.5378C0.500916 28.09 0.948631 28.5378 1.50092 28.5378H28.4616H31.4991C32.0514 28.5378 32.4991 28.09 32.4991 27.5378V13.7029V9.07734C32.4991 8.52506 32.0514 8.07734 31.4991 8.07734H15.7605L11.4382 3.75511C11.2507 3.56758 10.9963 3.46222 10.7311 3.46222H1.50092ZM15.6609 10.0773L11.3038 13.1209C11.1359 13.2382 10.936 13.3011 10.7311 13.3011H2.50092V26.5378H28.4616H30.4991V13.7029V10.0773H15.6609ZM2.50092 11.3011H10.4164L13.7955 8.94077L10.3169 5.46222H2.50092V9.07732V9.07734V11.3011ZM11.7498 19.1248C11.7498 18.5725 12.1975 18.1248 12.7498 18.1248H20.2493C20.8016 18.1248 21.2493 18.5725 21.2493 19.1248C21.2493 19.6771 20.8016 20.1248 20.2493 20.1248H12.7498C12.1975 20.1248 11.7498 19.6771 11.7498 19.1248Z" fill="#111827"/>
</svg>
