<svg width="33" height="32" viewBox="0 0 33 32" fill="none" xmlns="http://www.w3.org/2000/svg">
<path fill-rule="evenodd" clip-rule="evenodd" d="M6.30053 3.00073C5.74825 3.00073 5.30053 3.44845 5.30053 4.00073V7.80047H1.50085C0.94857 7.80047 0.500854 8.24819 0.500854 8.80047V12.6402V12.6403V27.9993C0.500854 28.5516 0.94857 28.9993 1.50085 28.9993H24.1478H26.6993C27.2516 28.9993 27.6993 28.5516 27.6993 27.9993V24.1996H31.499C32.0513 24.1996 32.499 23.7519 32.499 23.1996V11.689V7.84061C32.499 7.28832 32.0513 6.84061 31.499 6.84061H19.2881L15.3748 3.2627C15.1905 3.09418 14.9498 3.00073 14.7 3.00073H6.30053ZM18.2178 8.57198L14.3118 5.00073H7.30053V7.80047H9.90033C10.1501 7.80047 10.3908 7.89392 10.5751 8.06244L14.4884 11.6403H26.6993C27.2516 11.6403 27.6993 12.088 27.6993 12.6403V16.4887V22.1996H30.499V11.689V8.84061H18.8998C18.6362 8.84061 18.3965 8.73863 18.2178 8.57198ZM9.51209 9.80047L13.4175 13.3711C13.5962 13.5381 13.8362 13.6403 14.1001 13.6403H25.6993V16.4887V26.9993H24.1478H2.50085V12.6403V12.6402V9.80047H9.51209Z" fill="#111827"/>
</svg>
