<svg width="33" height="32" viewBox="0 0 33 32" fill="none" xmlns="http://www.w3.org/2000/svg">
<path fill-rule="evenodd" clip-rule="evenodd" d="M1.4679 2.47333C0.915611 2.47333 0.467896 2.92104 0.467896 3.47333V8.48399V8.484V28.5267C0.467896 29.079 0.915611 29.5267 1.4679 29.5267H31.532C32.0842 29.5267 32.532 29.079 32.532 28.5267V8.48399C32.532 7.9317 32.0842 7.48399 31.532 7.48399H16.9141L12.1964 2.76622C12.0088 2.57868 11.7545 2.47333 11.4892 2.47333H1.4679ZM2.4679 9.484H16.4999C16.5019 9.484 16.5038 9.484 16.5058 9.48399H30.532V27.5267H2.4679V9.484ZM14.0857 7.48399L11.075 4.47333H2.4679V7.48399H14.0857ZM17.5 14.7473C17.5 14.195 17.0523 13.7473 16.5 13.7473C15.9478 13.7473 15.5 14.195 15.5 14.7473V17.5054H12.742C12.1897 17.5054 11.742 17.9531 11.742 18.5054C11.742 19.0576 12.1897 19.5054 12.742 19.5054H15.5V22.2633C15.5 22.8156 15.9478 23.2633 16.5 23.2633C17.0523 23.2633 17.5 22.8156 17.5 22.2633V19.5054H20.258C20.8102 19.5054 21.258 19.0576 21.258 18.5054C21.258 17.9531 20.8102 17.5054 20.258 17.5054H17.5V14.7473Z" fill="#111827"/>
</svg>
