<svg width="33" height="32" viewBox="0 0 33 32" fill="none" xmlns="http://www.w3.org/2000/svg">
<path fill-rule="evenodd" clip-rule="evenodd" d="M0.498413 4.57489C0.498413 4.02261 0.946128 3.57489 1.49841 3.57489H10.6385C10.9037 3.57489 11.158 3.68025 11.3456 3.86778L15.6227 8.14493H28.9186C29.4708 8.14493 29.9186 8.59264 29.9186 9.14493V13.166H31.5016C31.8297 13.166 32.1369 13.3269 32.3237 13.5966C32.5105 13.8663 32.5531 14.2104 32.4378 14.5175L27.4652 27.762C27.3187 28.1521 26.9457 28.4105 26.529 28.4105H26.3127C26.2573 28.4201 26.2003 28.425 26.1421 28.425H1.49841C0.946128 28.425 0.498413 27.9773 0.498413 27.425V9.14493V9.14491V4.57489ZM2.49841 22.0361L5.5852 13.8145C5.73167 13.4244 6.10469 13.166 6.52139 13.166H27.9186V10.1449H15.2085C14.9307 10.1449 14.6794 10.0317 14.4982 9.84883L10.2242 5.57489H2.49841V9.14491V9.14493V22.0361ZM2.99236 26.4105L7.2141 15.166H30.058L25.8363 26.4105H2.99236Z" fill="#111827"/>
</svg>
