<svg width="33" height="32" viewBox="0 0 33 32" fill="none" xmlns="http://www.w3.org/2000/svg">
<path fill-rule="evenodd" clip-rule="evenodd" d="M1.50092 2.50073C0.948631 2.50073 0.500916 2.94845 0.500916 3.50073V8.50042V8.50043V28.4992C0.500916 29.0515 0.948631 29.4992 1.50092 29.4992H31.4991C32.0514 29.4992 32.4991 29.0515 32.4991 28.4992V8.50042C32.4991 7.94814 32.0514 7.50042 31.4991 7.50042H16.9142L12.2074 2.79363C12.0199 2.60609 11.7655 2.50073 11.5003 2.50073H1.50092ZM2.50092 9.50043H16.5C16.501 9.50043 16.5021 9.50043 16.5031 9.50042H30.4991V27.4992H2.50092V9.50043ZM14.0858 7.50043L11.0861 4.50073H2.50092V7.50042L14.0858 7.50043Z" fill="#111827"/>
</svg>
