<svg width="33" height="32" viewBox="0 0 33 32" fill="none" xmlns="http://www.w3.org/2000/svg">
<path fill-rule="evenodd" clip-rule="evenodd" d="M2.00085 3.46228C1.17243 3.46228 0.500854 4.13385 0.500854 4.96228V9.07734V9.07739V11.3849C0.500854 11.9372 0.94857 12.3849 1.50085 12.3849C2.05314 12.3849 2.50085 11.9372 2.50085 11.3849V9.07739V9.07734V5.46228H11.1093L15.8217 9.81219L15.8217 9.81217C15.9999 9.97677 16.2382 10.0773 16.4999 10.0773H18.3748C18.9271 10.0773 19.3748 9.62963 19.3748 9.07734C19.3748 8.52506 18.9271 8.07734 18.3748 8.07734H16.8909L12.3222 3.86008C12.0451 3.60431 11.6818 3.46228 11.3048 3.46228H2.00085ZM22.1246 8.07734C21.5723 8.07734 21.1246 8.52506 21.1246 9.07734C21.1246 9.62963 21.5723 10.0773 22.1246 10.0773H25.8744C26.4267 10.0773 26.8744 9.62963 26.8744 9.07734C26.8744 8.52506 26.4267 8.07734 25.8744 8.07734H22.1246ZM29.6241 8.07734C29.0719 8.07734 28.6241 8.52506 28.6241 9.07734C28.6241 9.62963 29.0719 10.0773 29.6241 10.0773H30.499V11.4049C30.499 11.9571 30.9467 12.4049 31.499 12.4049C32.0513 12.4049 32.499 11.9571 32.499 11.4049V9.07734C32.499 8.52506 32.0513 8.07734 31.499 8.07734H29.6241ZM2.50085 16C2.50085 15.4477 2.05314 15 1.50085 15C0.94857 15 0.500854 15.4477 0.500854 16V20.6151C0.500854 21.1674 0.94857 21.6151 1.50085 21.6151C2.05314 21.6151 2.50085 21.1674 2.50085 20.6151V16ZM32.499 16.0599C32.499 15.5076 32.0513 15.0599 31.499 15.0599C30.9467 15.0599 30.499 15.5076 30.499 16.0599V18.3874V20.675C30.499 21.2273 30.9467 21.675 31.499 21.675C32.0513 21.675 32.499 21.2273 32.499 20.675V18.3874V16.0599ZM2.50085 25.2302C2.50085 24.6779 2.05314 24.2302 1.50085 24.2302C0.94857 24.2302 0.500854 24.6779 0.500854 25.2302V27.5378C0.500854 28.0901 0.94857 28.5378 1.50085 28.5378H3.89106C4.44334 28.5378 4.89106 28.0901 4.89106 27.5378C4.89106 26.9855 4.44334 26.5378 3.89106 26.5378H2.50085V25.2302ZM32.499 25.2502C32.499 24.6979 32.0513 24.2502 31.499 24.2502C30.9467 24.2502 30.499 24.6979 30.499 25.2502V26.5378H28.7799C28.2276 26.5378 27.7799 26.9855 27.7799 27.5378C27.7799 28.0901 28.2276 28.5378 28.7799 28.5378H31.499C32.0513 28.5378 32.499 28.0901 32.499 27.5378V25.2502ZM8.67147 26.5378C8.11918 26.5378 7.67147 26.9855 7.67147 27.5378C7.67147 28.0901 8.11918 28.5378 8.67147 28.5378H13.4519C14.0042 28.5378 14.4519 28.0901 14.4519 27.5378C14.4519 26.9855 14.0042 26.5378 13.4519 26.5378H8.67147ZM18.2323 26.5378C17.68 26.5378 17.2323 26.9855 17.2323 27.5378C17.2323 28.0901 17.68 28.5378 18.2323 28.5378H20.6225H23.3416C23.8939 28.5378 24.3416 28.0901 24.3416 27.5378C24.3416 26.9855 23.8939 26.5378 23.3416 26.5378H20.6225H18.2323Z" fill="#111827"/>
</svg>
