<svg width="33" height="32" viewBox="0 0 33 32" fill="none" xmlns="http://www.w3.org/2000/svg">
<path fill-rule="evenodd" clip-rule="evenodd" d="M1.50085 2.98145C0.94857 2.98145 0.500854 3.42916 0.500854 3.98145V8.59638V8.59655V28.0184C0.500854 28.5707 0.94857 29.0184 1.50085 29.0184H14.7123C15.2646 29.0184 15.7123 28.5707 15.7123 28.0184C15.7123 27.4662 15.2646 27.0184 14.7123 27.0184H2.50085V8.59655V8.59638V4.98145H11.1093L15.8217 9.33136L15.8217 9.33127C16 9.49584 16.2382 9.59638 16.4999 9.59638H30.499V12.1478C30.499 12.7001 30.9467 13.1478 31.499 13.1478C32.0513 13.1478 32.499 12.7001 32.499 12.1478V8.59638C32.499 8.0441 32.0513 7.59638 31.499 7.59638H16.8907L12.1785 3.24664C11.9938 3.07613 11.7516 2.98145 11.5002 2.98145H1.50085ZM22.4918 19.2608C22.4918 17.7421 23.7229 16.511 25.2416 16.511C26.7602 16.511 27.9913 17.7421 27.9913 19.2608C27.9913 20.7771 26.7641 22.0067 25.2487 22.0106L25.2414 22.0106L25.2343 22.0106C23.719 22.0067 22.4918 20.7771 22.4918 19.2608ZM22.1494 22.8663C21.1346 21.9952 20.4918 20.7031 20.4918 19.2608C20.4918 16.6376 22.6183 14.511 25.2416 14.511C27.8648 14.511 29.9913 16.6376 29.9913 19.2608C29.9913 20.7031 29.3485 21.9953 28.3336 22.8664C30.0805 23.9172 31.2491 25.8312 31.2491 28.0183C31.2491 28.5706 30.8014 29.0183 30.2491 29.0183C29.6968 29.0183 29.2491 28.5706 29.2491 28.0183C29.2491 25.8075 27.459 24.0148 25.2492 24.0106L25.2416 24.0106L25.2312 24.0106C23.0225 24.0161 21.2337 25.8083 21.2337 28.0183C21.2337 28.5706 20.786 29.0183 20.2337 29.0183C19.6814 29.0183 19.2337 28.5706 19.2337 28.0183C19.2337 25.8312 20.4024 23.917 22.1494 22.8663Z" fill="#111827"/>
</svg>
