<svg width="33" height="32" viewBox="0 0 33 32" fill="none" xmlns="http://www.w3.org/2000/svg">
<path fill-rule="evenodd" clip-rule="evenodd" d="M0.500854 3.50073C0.500854 2.94845 0.94857 2.50073 1.50085 2.50073H11.5002C11.7654 2.50073 12.0198 2.60609 12.2073 2.79363L16.9141 7.50042H31.499C32.0512 7.50042 32.499 7.94814 32.499 8.50042V12.2698C32.499 12.8221 32.0512 13.2698 31.499 13.2698C30.9467 13.2698 30.499 12.8221 30.499 12.2698V9.50042H2.50085V27.4992H13.9887C14.541 27.4992 14.9887 27.9469 14.9887 28.4992C14.9887 29.0514 14.541 29.4992 13.9887 29.4992H1.50085C0.94857 29.4992 0.500854 29.0514 0.500854 28.4992V8.50042V8.50042V3.50073ZM2.50085 4.50073V7.50042H14.0857L11.086 4.50073H2.50085ZM24.9863 14.4117C24.8398 14.0395 24.4856 13.7904 24.0858 13.7785C23.6859 13.7665 23.3175 13.9939 23.1489 14.3567L21.1834 18.5874L16.4435 18.8545C16.0398 18.8773 15.6895 19.141 15.5559 19.5227C15.4224 19.9044 15.5319 20.329 15.8334 20.5985L19.5949 23.9605L18.218 28.1895C18.0898 28.5832 18.2176 29.0152 18.5392 29.2759C18.8609 29.5366 19.31 29.5722 19.6686 29.3652L24.0352 26.846L28.0369 29.3471C28.3835 29.5637 28.8271 29.5476 29.1571 29.3063C29.4871 29.0651 29.637 28.6472 29.5357 28.2512L28.4442 23.9846L32.172 20.5926C32.4703 20.3212 32.5764 19.8973 32.4411 19.5174C32.3058 19.1376 31.9556 18.8762 31.553 18.8544L26.6307 18.5883L24.9863 14.4117ZM22.7448 19.9735L23.9799 17.3149L25.005 19.9185C25.1483 20.2825 25.4908 20.5296 25.8815 20.5507L29.0576 20.7224L26.6533 22.9101C26.3796 23.1591 26.2658 23.539 26.3575 23.8975L26.9791 26.3275L24.5858 24.8317C24.2724 24.6357 23.8763 24.6287 23.5561 24.8135L20.9266 26.3305L21.6986 23.9593C21.8214 23.5823 21.7098 23.1683 21.4142 22.9041L18.9656 20.7156L21.8941 20.5506C22.2624 20.5298 22.5894 20.308 22.7448 19.9735Z" fill="#111827"/>
</svg>
