<svg width="33" height="32" viewBox="0 0 33 32" fill="none" xmlns="http://www.w3.org/2000/svg">
<path fill-rule="evenodd" clip-rule="evenodd" d="M1.51465 2.51221C0.962364 2.51221 0.514648 2.95992 0.514648 3.51221V8.50733V8.50735V28.4878C0.514648 29.0401 0.962364 29.4878 1.51465 29.4878H13.9911C14.5434 29.4878 14.9911 29.0401 14.9911 28.4878C14.9911 27.9356 14.5434 27.4878 13.9911 27.4878H2.51465V9.50735H30.4854V12.2733C30.4854 12.8256 30.9331 13.2733 31.4854 13.2733C32.0377 13.2733 32.4854 12.8256 32.4854 12.2733V8.50735C32.4854 7.95506 32.0377 7.50735 31.4854 7.50735H16.9142L12.212 2.8051C12.0245 2.61756 11.7701 2.51221 11.5049 2.51221H1.51465ZM2.51465 7.50733V4.51221H11.0907L14.0858 7.50733H2.51465ZM25.2336 16.9919C23.7168 16.9919 22.4872 18.2215 22.4872 19.7382C22.4872 21.255 23.7168 22.4846 25.2336 22.4846C26.7503 22.4846 27.9799 21.255 27.9799 19.7382C27.9799 18.2215 26.7503 16.9919 25.2336 16.9919ZM20.4872 19.7382C20.4872 17.1169 22.6122 14.9919 25.2336 14.9919C27.8549 14.9919 29.9799 17.1169 29.9799 19.7382C29.9799 21.1791 29.3379 22.4699 28.3243 23.3404C30.0693 24.3905 31.2366 26.3028 31.2366 28.4877C31.2366 29.04 30.7889 29.4877 30.2366 29.4877C29.6843 29.4877 29.2366 29.04 29.2366 28.4877C29.2366 26.2769 27.4443 24.4846 25.2334 24.4846C23.0226 24.4846 21.2303 26.2769 21.2303 28.4877C21.2303 29.04 20.7826 29.4877 20.2303 29.4877C19.678 29.4877 19.2303 29.04 19.2303 28.4877C19.2303 26.3027 20.3977 24.3904 22.1427 23.3403C21.1292 22.4699 20.4872 21.179 20.4872 19.7382Z" fill="#111827"/>
</svg>
