<svg width="33" height="32" viewBox="0 0 33 32" fill="none" xmlns="http://www.w3.org/2000/svg">
<path fill-rule="evenodd" clip-rule="evenodd" d="M1.50085 3.46222C0.94857 3.46222 0.500854 3.90993 0.500854 4.46222V9.07732V9.07734V12.3011V27.5378C0.500854 28.09 0.94857 28.5378 1.50085 28.5378H28.4615H31.499C32.0513 28.5378 32.499 28.09 32.499 27.5378V13.7029V9.07734C32.499 8.52506 32.0513 8.07734 31.499 8.07734H15.7604L11.4382 3.75511C11.2506 3.56758 10.9963 3.46222 10.7311 3.46222H1.50085ZM15.6608 10.0773L11.3037 13.1209C11.1358 13.2382 10.9359 13.3011 10.7311 13.3011H2.50085V26.5378H28.4615H30.499V13.7029V10.0773H15.6608ZM2.50085 11.3011H10.4164L13.7954 8.94077L10.3168 5.46222H2.50085V9.07732V9.07734V11.3011Z" fill="#111827"/>
</svg>
