<svg width="33" height="32" viewBox="0 0 33 32" fill="none" xmlns="http://www.w3.org/2000/svg">
<path fill-rule="evenodd" clip-rule="evenodd" d="M1.50092 3.46222C0.948631 3.46222 0.500916 3.90993 0.500916 4.46222V9.07733C0.500916 9.07733 0.500916 9.07734 0.500916 9.07734V27.5378C0.500916 28.0901 0.948631 28.5378 1.50092 28.5378H28.4616H31.4991C32.0514 28.5378 32.4991 28.0901 32.4991 27.5378V13.7029V9.07734C32.4991 8.52506 32.0514 8.07734 31.4991 8.07734H16.891L12.1786 3.72742C11.9939 3.5569 11.7517 3.46222 11.5003 3.46222H1.50092ZM15.8179 9.80857L11.1093 5.46222H2.50092V9.07733C2.50092 9.07733 2.50092 9.07734 2.50092 9.07734V26.5378H28.4616H30.4991V13.7029V10.0773H16.5C16.2363 10.0773 15.9965 9.97531 15.8179 9.80857Z" fill="#111827"/>
</svg>
