<svg width="33" height="32" viewBox="0 0 33 32" fill="none" xmlns="http://www.w3.org/2000/svg">
<path fill-rule="evenodd" clip-rule="evenodd" d="M1.50085 2.98145C0.94857 2.98145 0.500854 3.42916 0.500854 3.98145V8.59638V8.59655V28.0184C0.500854 28.5707 0.94857 29.0184 1.50085 29.0184H13.4624C14.0147 29.0184 14.4624 28.5707 14.4624 28.0184C14.4624 27.4661 14.0147 27.0184 13.4624 27.0184H2.50085V8.59655V8.59638V4.98145H11.1092L15.8216 9.33135L15.8217 9.33126C16 9.49584 16.2382 9.59638 16.4999 9.59638H30.499V12.1478C30.499 12.7001 30.9467 13.1478 31.499 13.1478C32.0513 13.1478 32.499 12.7001 32.499 12.1478V8.59638C32.499 8.0441 32.0513 7.59638 31.499 7.59638H16.8907L12.1785 3.24664C11.9938 3.07613 11.7516 2.98145 11.5002 2.98145H1.50085ZM19.2497 21.1437C19.2497 20.5915 19.6974 20.1437 20.2497 20.1437H21.7495V19.269C21.7495 16.9909 23.5963 15.1442 25.8743 15.1442C28.1524 15.1442 29.9991 16.9909 29.9991 19.269V20.1437H31.499C32.0513 20.1437 32.499 20.5915 32.499 21.1437V28.0183C32.499 28.5706 32.0513 29.0183 31.499 29.0183H20.2497C19.6974 29.0183 19.2497 28.5706 19.2497 28.0183V21.1437ZM22.7335 22.1437C22.7388 22.1438 22.7442 22.1439 22.7495 22.1439H28.9991C29.0045 22.1439 29.0098 22.1438 29.0152 22.1437H30.499V27.0183H21.2497V22.1437H22.7335ZM27.9991 20.1437V19.269C27.9991 18.0955 27.0478 17.1442 25.8743 17.1442C24.7008 17.1442 23.7495 18.0955 23.7495 19.269V20.1437H27.9991Z" fill="#111827"/>
</svg>
