<svg width="33" height="32" viewBox="0 0 33 32" fill="none" xmlns="http://www.w3.org/2000/svg">
<path fill-rule="evenodd" clip-rule="evenodd" d="M1.50092 2.50073C0.948631 2.50073 0.500916 2.94845 0.500916 3.50073V8.50042V8.50043V28.4992C0.500916 29.0515 0.948631 29.4992 1.50092 29.4992H13.9888C14.5411 29.4992 14.9888 29.0515 14.9888 28.4992C14.9888 27.9469 14.5411 27.4992 13.9888 27.4992H2.50092V9.50043H16.5L16.5031 9.50042H30.4991V12.2698C30.4991 12.8221 30.9468 13.2698 31.4991 13.2698C32.0514 13.2698 32.4991 12.8221 32.4991 12.2698V8.50042C32.4991 7.94814 32.0514 7.50042 31.4991 7.50042H16.9142L12.2074 2.79363C12.0199 2.60609 11.7655 2.50073 11.5003 2.50073H1.50092ZM14.0858 7.50043L11.0861 4.50073H2.50092V7.50042L14.0858 7.50043ZM19.2497 21.6246C19.2497 21.0723 19.6975 20.6246 20.2497 20.6246H21.7497V19.7497C21.7497 17.4717 23.5964 15.6249 25.8745 15.6249C28.1525 15.6249 29.9993 17.4717 29.9993 19.7497V20.6246H31.4991C32.0513 20.6246 32.4991 21.0723 32.4991 21.6246V28.4992C32.4991 29.0515 32.0513 29.4992 31.4991 29.4992H20.2497C19.6975 29.4992 19.2497 29.0515 19.2497 28.4992V21.6246ZM22.7469 22.6246C22.7478 22.6246 22.7487 22.6246 22.7497 22.6246H28.9993C29.0002 22.6246 29.0011 22.6246 29.0021 22.6246H30.4991V27.4992H21.2497V22.6246H22.7469ZM27.9993 20.6246V19.7497C27.9993 18.5762 27.048 17.6249 25.8745 17.6249C24.701 17.6249 23.7497 18.5762 23.7497 19.7497V20.6246H27.9993Z" fill="#111827"/>
</svg>
