<svg width="33" height="32" viewBox="0 0 33 32" fill="none" xmlns="http://www.w3.org/2000/svg">
<path fill-rule="evenodd" clip-rule="evenodd" d="M1.50085 3.46222C0.94857 3.46222 0.500854 3.90993 0.500854 4.46222V9.07733C0.500854 9.07733 0.500854 9.07734 0.500854 9.07734V27.5378C0.500854 28.0901 0.94857 28.5378 1.50085 28.5378H28.4615H31.499C32.0513 28.5378 32.499 28.0901 32.499 27.5378V13.7029V9.07734C32.499 8.52506 32.0513 8.07734 31.499 8.07734H16.8909L12.1785 3.72742C11.9938 3.5569 11.7516 3.46222 11.5002 3.46222H1.50085ZM15.8178 9.80857L11.1093 5.46222H2.50085V9.07733C2.50085 9.07733 2.50085 9.07734 2.50085 9.07734V26.5378H28.4615H30.499V13.7029V10.0773H16.4999C16.2363 10.0773 15.9965 9.97531 15.8178 9.80857ZM11.7502 18.4998C11.7502 17.9476 12.1979 17.4998 12.7502 17.4998H20.2497C20.802 17.4998 21.2497 17.9476 21.2497 18.4998C21.2497 19.0521 20.802 19.4998 20.2497 19.4998H12.7502C12.1979 19.4998 11.7502 19.0521 11.7502 18.4998Z" fill="#111827"/>
</svg>
