<svg width="33" height="33" viewBox="0 0 33 33" fill="none" xmlns="http://www.w3.org/2000/svg">
<path d="M25.7452 25.7447C18.958 32.5319 9.53352 31.9909 5.00203 31.2235C4.19585 31.0875 3.45202 30.7039 2.87391 30.1257C2.2958 29.5476 1.91212 28.8038 1.77616 27.9976C1.00878 23.4661 0.467811 14.0417 7.25499 7.2545C14.0422 0.467323 23.4666 1.00829 27.9981 1.77567C28.8043 1.91163 29.5481 2.29532 30.1262 2.87343C30.7043 3.45153 31.088 4.19536 31.224 5.00154C31.9914 9.53303 32.5323 18.9575 25.7452 25.7447Z" stroke="#111827" stroke-width="2" stroke-linecap="round" stroke-linejoin="round"/>
<path fill-rule="evenodd" clip-rule="evenodd" d="M19.0982 0.793626C19.4887 0.403101 20.1219 0.403101 20.5124 0.793626L32.2062 12.4874C32.5967 12.8779 32.5967 13.5111 32.2062 13.9016C31.8156 14.2921 31.1825 14.2921 30.792 13.9016L19.0982 2.20784C18.7076 1.81731 18.7076 1.18415 19.0982 0.793626ZM22.4372 10.5626C22.8277 10.9531 22.8277 11.5863 22.4372 11.9768L19.7633 14.6507L21.4468 16.3342C21.8373 16.7247 21.8373 17.3579 21.4468 17.7484C21.0563 18.1389 20.4231 18.1389 20.0326 17.7484L18.3491 16.0649L16.0653 18.3487L17.7487 20.0321C18.1392 20.4226 18.1392 21.0558 17.7487 21.4463C17.3581 21.8369 16.725 21.8369 16.3345 21.4463L14.651 19.7629L11.9775 22.4364C11.587 22.8269 10.9538 22.8269 10.5633 22.4364C10.1728 22.0459 10.1728 21.4127 10.5633 21.0222L13.2368 18.3487L11.5533 16.6652C11.1628 16.2746 11.1628 15.6415 11.5533 15.2509C11.9438 14.8604 12.577 14.8604 12.9675 15.2509L14.651 16.9345L16.9349 14.6507L15.2514 12.9673C14.8609 12.5767 14.8609 11.9436 15.2514 11.553C15.642 11.1625 16.2751 11.1625 16.6657 11.553L18.3491 13.2365L21.0229 10.5626C21.4135 10.1721 22.0466 10.1721 22.4372 10.5626ZM2.20808 19.0979C1.81756 18.7074 1.18439 18.7074 0.79387 19.0979C0.403345 19.4885 0.403345 20.1216 0.79387 20.5121L12.4878 32.206C12.8783 32.5965 13.5114 32.5965 13.902 32.206C14.2925 31.8155 14.2925 31.1823 13.902 30.7918L2.20808 19.0979Z" fill="#111827"/>
</svg>
