<svg width="32" height="32" viewBox="0 0 32 32" fill="none" xmlns="http://www.w3.org/2000/svg">
<path d="M23.3172 23.3172C17.9454 28.689 10.4862 28.2609 6.89967 27.6535C6.26159 27.5459 5.67288 27.2422 5.21533 26.7847C4.75777 26.3271 4.4541 25.7384 4.34649 25.1003C3.73913 21.5138 3.31097 14.0546 8.68281 8.68281C14.0546 3.31097 21.5138 3.73913 25.1003 4.34649C25.7384 4.4541 26.3271 4.75777 26.7847 5.21533C27.2422 5.67288 27.5459 6.26159 27.6535 6.89967C28.2609 10.4862 28.689 17.9454 23.3172 23.3172Z" stroke="#1C1B1F" stroke-width="2" stroke-linecap="round" stroke-linejoin="round"/>
<path d="M20.1393 11.8608L11.8608 20.1393" stroke="#1C1B1F" stroke-width="2" stroke-linecap="round" stroke-linejoin="round"/>
<path d="M15.5713 12.6445L19.3554 16.4287" stroke="#1C1B1F" stroke-width="2" stroke-linecap="round" stroke-linejoin="round"/>
<path d="M12.6443 15.5713L16.4284 19.3554" stroke="#1C1B1F" stroke-width="2" stroke-linecap="round" stroke-linejoin="round"/>
<path d="M18.616 4.12891L27.8712 13.3842" stroke="#1C1B1F" stroke-width="2" stroke-linecap="round" stroke-linejoin="round"/>
<path d="M4.12866 18.6162L13.384 27.8715" stroke="#1C1B1F" stroke-width="2" stroke-linecap="round" stroke-linejoin="round"/>
</svg>
