<svg width="33" height="34" viewBox="0 0 33 34" fill="none" xmlns="http://www.w3.org/2000/svg">
<path d="M25.7452 26.2447C18.958 33.0319 9.53352 32.4909 5.00203 31.7235C4.19585 31.5875 3.45202 31.2039 2.87391 30.6257C2.2958 30.0476 1.91212 29.3038 1.77616 28.4976C1.00878 23.9661 0.467811 14.5417 7.25499 7.7545C14.0422 0.967323 23.4666 1.50829 27.9981 2.27567C28.8043 2.41163 29.5481 2.79532 30.1262 3.37343C30.7043 3.95153 31.088 4.69536 31.224 5.50154C31.9914 10.033 32.5323 19.4575 25.7452 26.2447Z" stroke="#111827" stroke-width="2" stroke-linecap="round" stroke-linejoin="round"/>
<path fill-rule="evenodd" clip-rule="evenodd" d="M19.0982 1.29363C19.4887 0.903101 20.1219 0.903101 20.5124 1.29363L32.2062 12.9874C32.5967 13.3779 32.5967 14.0111 32.2062 14.4016C31.8156 14.7921 31.1825 14.7921 30.792 14.4016L19.0982 2.70784C18.7076 2.31731 18.7076 1.68415 19.0982 1.29363ZM22.4372 11.0626C22.8277 11.4531 22.8277 12.0863 22.4372 12.4768L19.7633 15.1507L21.4468 16.8342C21.8373 17.2247 21.8373 17.8579 21.4468 18.2484C21.0563 18.6389 20.4231 18.6389 20.0326 18.2484L18.3491 16.5649L16.0653 18.8487L17.7487 20.5321C18.1392 20.9226 18.1392 21.5558 17.7487 21.9463C17.3581 22.3369 16.725 22.3369 16.3345 21.9463L14.651 20.2629L11.9775 22.9364C11.587 23.3269 10.9538 23.3269 10.5633 22.9364C10.1728 22.5459 10.1728 21.9127 10.5633 21.5222L13.2368 18.8487L11.5533 17.1652C11.1628 16.7746 11.1628 16.1415 11.5533 15.7509C11.9438 15.3604 12.577 15.3604 12.9675 15.7509L14.651 17.4345L16.9349 15.1507L15.2514 13.4673C14.8609 13.0767 14.8609 12.4436 15.2514 12.053C15.642 11.6625 16.2751 11.6625 16.6657 12.053L18.3491 13.7365L21.0229 11.0626C21.4135 10.6721 22.0466 10.6721 22.4372 11.0626ZM2.20808 19.5979C1.81756 19.2074 1.18439 19.2074 0.79387 19.5979C0.403345 19.9885 0.403345 20.6216 0.79387 21.0121L12.4878 32.706C12.8783 33.0965 13.5114 33.0965 13.902 32.706C14.2925 32.3155 14.2925 31.6823 13.902 31.2918L2.20808 19.5979Z" fill="#111827"/>
</svg>
