<svg width="33" height="33" viewBox="0 0 33 33" fill="none" xmlns="http://www.w3.org/2000/svg">
<path fill-rule="evenodd" clip-rule="evenodd" d="M0.500854 4.00073C0.500854 3.44845 0.94857 3.00073 1.50085 3.00073H31.499C32.0513 3.00073 32.499 3.44845 32.499 4.00073V28.9992C32.499 29.5515 32.0513 29.9992 31.499 29.9992H1.50085C0.94857 29.9992 0.500854 29.5515 0.500854 28.9992V4.00073ZM2.50085 5.00073V27.9992H30.499V5.00073H2.50085ZM20.4996 9.00042C20.4996 8.44814 20.9473 8.00042 21.4996 8.00042H26.4993C27.0516 8.00042 27.4993 8.44814 27.4993 9.00042V14.0001C27.4993 14.5524 27.0516 15.0001 26.4993 15.0001C25.947 15.0001 25.4993 14.5524 25.4993 14.0001V10.0004H21.4996C20.9473 10.0004 20.4996 9.55271 20.4996 9.00042ZM11.5002 24.9995C12.0525 24.9995 12.5002 24.5518 12.5002 23.9995C12.5002 23.4472 12.0525 22.9995 11.5002 22.9995H7.50054V18.9998C7.50054 18.4475 7.05282 17.9998 6.50054 17.9998C5.94825 17.9998 5.50054 18.4475 5.50054 18.9998V23.9995C5.50054 24.5518 5.94825 24.9995 6.50054 24.9995H11.5002Z" fill="#111827"/>
</svg>
