<svg width="33" height="32" viewBox="0 0 33 32" fill="none" xmlns="http://www.w3.org/2000/svg">
<path fill-rule="evenodd" clip-rule="evenodd" d="M1.50092 2.50073C0.948631 2.50073 0.500916 2.94845 0.500916 3.50073V28.4992C0.500916 29.0515 0.948631 29.4992 1.50092 29.4992H31.4991C32.0514 29.4992 32.4991 29.0515 32.4991 28.4992V3.50073C32.4991 2.94845 32.0514 2.50073 31.4991 2.50073H1.50092ZM2.50092 27.4992V4.50073H30.4991V27.4992H2.50092ZM18.9998 7.50042C18.4476 7.50042 17.9998 7.94814 17.9998 8.50042C17.9998 9.05271 18.4476 9.50042 18.9998 9.50042H25.4994V14.75C25.4994 15.3023 25.9471 15.75 26.4994 15.75C27.0517 15.75 27.4994 15.3023 27.4994 14.75V8.50042C27.4994 7.94814 27.0517 7.50042 26.4994 7.50042H18.9998ZM7.50061 17.2499C7.50061 16.6976 7.05289 16.2499 6.50061 16.2499C5.94832 16.2499 5.50061 16.6976 5.50061 17.2499V23.4995C5.50061 24.0518 5.94832 24.4995 6.50061 24.4995H14.0001C14.5524 24.4995 15.0001 24.0518 15.0001 23.4995C15.0001 22.9472 14.5524 22.4995 14.0001 22.4995H7.50061V17.2499Z" fill="#111827"/>
</svg>
