<svg width="33" height="32" viewBox="0 0 33 32" fill="none" xmlns="http://www.w3.org/2000/svg">
<path fill-rule="evenodd" clip-rule="evenodd" d="M16.4632 8.99139C16.9551 6.10877 19.4535 4.00061 22.3778 4.00061H25.9277C26.48 4.00061 26.9277 4.44833 26.9277 5.00061C26.9277 5.5529 26.48 6.00061 25.9277 6.00061H22.3778C20.4282 6.00061 18.7627 7.40605 18.4347 9.3278L16.1003 23.0085C15.6085 25.8912 13.1101 27.9993 10.1858 27.9993H7.07227C6.51998 27.9993 6.07227 27.5516 6.07227 26.9993C6.07227 26.447 6.51998 25.9993 7.07227 25.9993H10.1858C12.1354 25.9993 13.8009 24.5939 14.1288 22.6721L16.4632 8.99139ZM26.6347 20.064C27.0253 20.4546 27.0253 21.0877 26.6347 21.4782L24.2277 23.8852L26.6347 26.2922C27.0253 26.6827 27.0253 27.3159 26.6347 27.7064C26.2442 28.097 25.611 28.097 25.2205 27.7064L22.8135 25.2994L20.4065 27.7064C20.016 28.097 19.3829 28.097 18.9923 27.7064C18.6018 27.3159 18.6018 26.6827 18.9923 26.2922L21.3993 23.8852L18.9923 21.4782C18.6018 21.0877 18.6018 20.4546 18.9923 20.064C19.3829 19.6735 20.016 19.6735 20.4065 20.064L22.8135 22.471L25.2205 20.064C25.611 19.6735 26.2442 19.6735 26.6347 20.064Z" fill="#111827"/>
</svg>
