<svg width="33" height="32" viewBox="0 0 33 32" fill="none" xmlns="http://www.w3.org/2000/svg">
<path fill-rule="evenodd" clip-rule="evenodd" d="M0.501831 9.07782C0.501831 8.52554 0.949546 8.07782 1.50183 8.07782H31.4982C32.0505 8.07782 32.4982 8.52554 32.4982 9.07782C32.4982 9.6301 32.0505 10.0778 31.4982 10.0778H1.50183C0.949546 10.0778 0.501831 9.6301 0.501831 9.07782ZM6.27043 16C6.27043 15.4477 6.71814 15 7.27043 15H25.7297C26.282 15 26.7297 15.4477 26.7297 16C26.7297 16.5523 26.282 17 25.7297 17H7.27043C6.71814 17 6.27043 16.5523 6.27043 16ZM13.0388 21.9222C12.4865 21.9222 12.0388 22.3699 12.0388 22.9222C12.0388 23.4745 12.4865 23.9222 13.0388 23.9222H19.961C20.5133 23.9222 20.961 23.4745 20.961 22.9222C20.961 22.3699 20.5133 21.9222 19.961 21.9222H13.0388Z" fill="#111827"/>
</svg>
