<svg width="33" height="33" viewBox="0 0 33 33" fill="none" xmlns="http://www.w3.org/2000/svg">
<path fill-rule="evenodd" clip-rule="evenodd" d="M8.85921 6.88086C7.33 6.88086 6.00183 7.93316 5.65209 9.42184L2.57972 22.4994C2.27505 23.7962 2.87859 25.1361 4.05171 25.7673C5.29594 26.4368 6.84025 26.1285 7.73218 25.0328L12.2715 19.4561C12.7015 18.9277 13.3466 18.621 14.0279 18.621H24.1813C26.3905 18.621 28.1813 16.8301 28.1813 14.621V10.9021L28.1765 10.8772C28.1546 10.7649 28.1524 10.6534 28.1675 10.5461C27.9975 8.49362 26.2777 6.88087 24.1813 6.88087L8.85921 6.88086ZM30.1785 10.6943C30.0799 7.46691 27.4326 4.88088 24.1813 4.88087L8.85922 4.88086C6.40165 4.88086 4.26716 6.57199 3.7051 8.96442L0.632734 22.042C0.121217 24.2192 1.13451 26.4688 3.10408 27.5286C5.19304 28.6525 7.78581 28.135 9.28329 26.2953L13.8226 20.7186C13.8728 20.6568 13.9482 20.621 14.0279 20.621H19.0038L23.5833 26.2472C25.1036 28.1149 27.7359 28.6403 29.8567 27.4992C31.7937 26.457 32.8269 24.2753 32.4059 22.1163L30.1785 10.6943ZM29.4624 17.4713C28.448 19.3469 26.4634 20.621 24.1813 20.621H21.5826L25.1344 24.9846C26.0492 26.1084 27.633 26.4245 28.909 25.7379C30.0746 25.1108 30.6962 23.7981 30.4429 22.4991L29.4624 17.4713ZM12.1777 10.6778C12.1777 10.1255 11.73 9.67776 11.1777 9.67776C10.6255 9.67776 10.1777 10.1255 10.1777 10.6778V11.8085H9.04704C8.49476 11.8085 8.04704 12.2562 8.04704 12.8085C8.04704 13.3608 8.49476 13.8085 9.04704 13.8085H10.1777V14.9394C10.1777 15.4917 10.6255 15.9394 11.1777 15.9394C11.73 15.9394 12.1777 15.4917 12.1777 14.9394V13.8085H13.3087C13.861 13.8085 14.3087 13.3608 14.3087 12.8085C14.3087 12.2562 13.861 11.8085 13.3087 11.8085H12.1777V10.6778ZM18.7011 12.8085C18.7011 12.2562 19.1488 11.8085 19.7011 11.8085H23.9627C24.515 11.8085 24.9627 12.2562 24.9627 12.8085C24.9627 13.3608 24.515 13.8085 23.9627 13.8085H19.7011C19.1488 13.8085 18.7011 13.3608 18.7011 12.8085Z" fill="#111827"/>
</svg>
