<svg width="33" height="32" viewBox="0 0 33 32" fill="none" xmlns="http://www.w3.org/2000/svg">
<path fill-rule="evenodd" clip-rule="evenodd" d="M8.85921 6.38086C7.33 6.38086 6.00183 7.43316 5.65209 8.92184L2.57972 21.9994C2.27505 23.2962 2.87859 24.6361 4.05171 25.2673C5.29594 25.9368 6.84025 25.6285 7.73218 24.5328L12.2715 18.9561C12.7015 18.4277 13.3466 18.121 14.0279 18.121H24.1813C26.3905 18.121 28.1813 16.3301 28.1813 14.121V10.4021L28.1765 10.3772C28.1546 10.2649 28.1524 10.1534 28.1675 10.0461C27.9975 7.99362 26.2777 6.38087 24.1813 6.38087L8.85921 6.38086ZM30.1785 10.1943C30.0799 6.96691 27.4326 4.38088 24.1813 4.38087L8.85922 4.38086C6.40165 4.38086 4.26716 6.07199 3.7051 8.46442L0.632734 21.542C0.121217 23.7192 1.13451 25.9688 3.10408 27.0286C5.19304 28.1525 7.78581 27.635 9.28329 25.7953L13.8226 20.2186C13.8728 20.1568 13.9482 20.121 14.0279 20.121H19.0038L23.5833 25.7472C25.1036 27.6149 27.7359 28.1403 29.8567 26.9992C31.7937 25.957 32.8269 23.7753 32.4059 21.6163L30.1785 10.1943ZM29.4624 16.9713C28.448 18.8469 26.4634 20.121 24.1813 20.121H21.5826L25.1344 24.4846C26.0492 25.6084 27.633 25.9245 28.909 25.2379C30.0746 24.6108 30.6962 23.2981 30.4429 21.9991L29.4624 16.9713ZM12.1777 10.1778C12.1777 9.62547 11.73 9.17776 11.1777 9.17776C10.6255 9.17776 10.1777 9.62547 10.1777 10.1778V11.3085H9.04704C8.49476 11.3085 8.04704 11.7562 8.04704 12.3085C8.04704 12.8608 8.49476 13.3085 9.04704 13.3085H10.1777V14.4394C10.1777 14.9917 10.6255 15.4394 11.1777 15.4394C11.73 15.4394 12.1777 14.9917 12.1777 14.4394V13.3085H13.3087C13.861 13.3085 14.3087 12.8608 14.3087 12.3085C14.3087 11.7562 13.861 11.3085 13.3087 11.3085H12.1777V10.1778ZM18.7011 12.3085C18.7011 11.7562 19.1488 11.3085 19.7011 11.3085H23.9627C24.515 11.3085 24.9627 11.7562 24.9627 12.3085C24.9627 12.8608 24.515 13.3085 23.9627 13.3085H19.7011C19.1488 13.3085 18.7011 12.8608 18.7011 12.3085Z" fill="#111827"/>
</svg>
