<svg width="32" height="32" viewBox="0 0 32 32" fill="none" xmlns="http://www.w3.org/2000/svg">
<path d="M18.5083 12.7344H21.7995" stroke="#1C1B1F" stroke-width="2" stroke-linecap="round" stroke-linejoin="round"/>
<path d="M10.2805 12.7344H13.5717" stroke="#1C1B1F" stroke-width="2" stroke-linecap="round" stroke-linejoin="round"/>
<path d="M11.926 11.0886V14.3798" stroke="#1C1B1F" stroke-width="2" stroke-linecap="round" stroke-linejoin="round"/>
<path d="M6.90692 9.94229L4.53419 20.0418C4.21903 21.3833 4.84336 22.7694 6.05688 23.4223C7.34396 24.1148 8.94146 23.796 9.8641 22.6625L13.3697 18.3557C13.5552 18.1278 13.8334 17.9955 14.1272 17.9955H20.83C23.5914 17.9955 25.83 15.757 25.83 12.9956V11.7789C25.83 9.35185 23.8624 7.38429 21.4353 7.38429L10.1355 7.38428C8.59609 7.38428 7.25901 8.44363 6.90692 9.94229Z" stroke="#1C1B1F" stroke-width="2" stroke-linecap="round"/>
<path d="M25.8118 11.095L27.5621 20.0703C27.8225 21.4056 27.1835 22.755 25.9855 23.3996V23.3996C24.6738 24.1053 23.0458 23.7804 22.1055 22.6252L18.3371 17.9956" stroke="#1C1B1F" stroke-width="2" stroke-linecap="round"/>
</svg>
