<svg width="33" height="32" viewBox="0 0 33 32" fill="none" xmlns="http://www.w3.org/2000/svg">
<path fill-rule="evenodd" clip-rule="evenodd" d="M0.964818 16.7643L16.3458 32L16.3216 31.9869L16.3273 31.9926C7.67109 31.9015 0.662523 24.9397 0.5 16.3036L0.964818 16.7643ZM0.8851 12.4797C2.48811 5.3369 8.87018 0 16.4992 0C21.8563 0 26.5987 2.63164 29.5031 6.67229L29.4688 6.70105L27.3779 8.53182C24.9992 5.07448 21.0141 2.80755 16.4993 2.80755C10.7022 2.80755 5.77828 6.54512 4.00741 11.7412L20.7564 28.4847C25.0547 27.0208 28.3552 23.4015 29.3689 18.9156H22.3878V16.1901H31.9729V16.1922H32.5001C32.4098 23.7283 27.1066 30.0107 20.0278 31.6033L19.6884 31.2642L19.6848 31.2679L3.34759 14.9361L3.34732 14.9395L0.8851 12.4797Z" fill="#111827"/>
</svg>
