<svg width="33" height="33" viewBox="0 0 33 33" fill="none" xmlns="http://www.w3.org/2000/svg">
<path d="M16.3555 31L15.8781 31.8787L17.0593 30.2896L16.3555 31ZM2.04878 16.8284L1.34478 17.5386L1.34503 17.5389L2.04878 16.8284ZM16.333 30.9878L16.8105 30.1092L15.629 31.698L16.333 30.9878ZM16.3383 30.993L16.3278 31.993L18.7935 32.0189L17.0423 30.2829L16.3383 30.993ZM1.5 16.2845L2.204 15.5742L0.453834 13.8394L0.500177 16.3033L1.5 16.2845ZM1.86106 12.6996L0.885334 12.4806L0.764752 13.0179L1.15431 13.4071L1.86106 12.6996ZM28.6904 7.25532L29.3328 8.02169L30.0442 7.4254L29.5024 6.67167L28.6904 7.25532ZM28.6583 7.28224L28.0159 6.51587L28.0077 6.52279L27.9996 6.52988L28.6583 7.28224ZM26.6981 8.99857L25.8743 9.56537L26.5113 10.4913L27.3569 9.75093L26.6981 8.99857ZM4.78821 12.0074L3.84167 11.6848L3.64077 12.2743L4.08123 12.7146L4.78821 12.0074ZM20.4904 27.7043L19.7834 28.4116L20.2236 28.8516L20.8127 28.6509L20.4904 27.7043ZM28.5646 18.7335L29.54 18.9539L29.8159 17.7335H28.5646V18.7335ZM22.0198 18.7335H21.0198V19.7335H22.0198V18.7335ZM22.0198 16.1783V15.1783H21.0198V16.1783H22.0198ZM31.0058 16.1783H32.0058V15.1783H31.0058V16.1783ZM31.0058 16.1801H30.0058V17.1801H31.0058V16.1801ZM31.5001 16.1801L32.5 16.1921L32.5121 15.1801H31.5001V16.1801ZM19.8074 30.628L19.1006 31.3355L19.49 31.7245L20.0269 31.6037L19.8074 30.628ZM19.4892 30.3101L20.1959 29.6027L19.489 28.8965L18.7823 29.6028L19.4892 30.3101ZM19.4857 30.3136L18.7787 31.0208L19.4856 31.7275L20.1926 31.0209L19.4857 30.3136ZM4.16965 15.0026L4.87664 14.2954L3.34439 12.7637L3.17279 14.9234L4.16965 15.0026ZM4.16941 15.0057L3.46266 15.7131L4.99474 17.2437L5.16627 15.0849L4.16941 15.0057ZM17.0593 30.2896L2.75252 16.118L1.34503 17.5389L15.6518 31.7105L17.0593 30.2896ZM15.8555 31.8665L15.8781 31.8787L16.833 30.1214L16.8105 30.1092L15.8555 31.8665ZM15.629 31.698L15.6343 31.7032L17.0423 30.2829L17.037 30.2776L15.629 31.698ZM16.3488 29.9931C8.77443 29.9135 2.64194 23.8215 2.49982 16.2656L0.500177 16.3033C0.662631 24.9403 7.67143 31.902 16.3278 31.993L16.3488 29.9931ZM0.796004 16.9947L1.34478 17.5386L2.75277 16.1182L2.204 15.5742L0.796004 16.9947ZM16.4992 0C8.86934 0 2.4885 5.33742 0.885334 12.4806L2.83679 12.9186C4.23937 6.66915 9.82485 2 16.4992 2V0ZM29.5024 6.67167C26.5997 2.63332 21.857 0 16.4992 0V2C21.1862 2 25.3354 4.30106 27.8784 7.83898L29.5024 6.67167ZM29.3007 8.04861L29.3328 8.02169L28.048 6.48895L28.0159 6.51587L29.3007 8.04861ZM27.3569 9.75093L29.3171 8.03459L27.9996 6.52988L26.0394 8.24622L27.3569 9.75093ZM16.4994 4.63199C20.3891 4.63199 23.8229 6.58373 25.8743 9.56537L27.522 8.43178C25.1134 4.9308 21.075 2.63199 16.4994 2.63199V4.63199ZM5.73476 12.33C7.26103 7.85146 11.5053 4.63199 16.4994 4.63199V2.63199C10.6238 2.63199 5.63573 6.42055 3.84167 11.6848L5.73476 12.33ZM21.1973 26.9971L5.4952 11.3002L4.08123 12.7146L19.7834 28.4116L21.1973 26.9971ZM27.5892 18.513C26.7162 22.3761 23.8717 25.4963 20.168 26.7577L20.8127 28.6509C25.1682 27.1676 28.5123 23.5019 29.54 18.9539L27.5892 18.513ZM22.0198 19.7335H28.5646V17.7335H22.0198V19.7335ZM21.0198 16.1783V18.7335H23.0198V16.1783H21.0198ZM31.0058 15.1783H22.0198V17.1783H31.0058V15.1783ZM32.0058 16.1801V16.1783H30.0058V16.1801H32.0058ZM31.5001 15.1801H31.0058V17.1801H31.5001V15.1801ZM20.0269 31.6037C27.1057 30.011 32.4097 23.7301 32.5 16.1921L30.5001 16.1682C30.4212 22.7604 25.7819 28.2589 19.5879 29.6524L20.0269 31.6037ZM18.7824 31.0176L19.1006 31.3355L20.5141 29.9206L20.1959 29.6027L18.7824 31.0176ZM20.1926 31.0209L20.1961 31.0174L18.7823 29.6028L18.7788 29.6063L20.1926 31.0209ZM3.46266 15.7099L18.7787 31.0208L20.1927 29.6064L4.87664 14.2954L3.46266 15.7099ZM5.16627 15.0849L5.16651 15.0818L3.17279 14.9234L3.17255 14.9265L5.16627 15.0849ZM1.15431 13.4071L3.46266 15.7131L4.87616 14.2982L2.56782 11.9922L1.15431 13.4071Z" fill="#111827"/>
</svg>
