<svg width="33" height="32" viewBox="0 0 33 32" fill="none" xmlns="http://www.w3.org/2000/svg">
<path fill-rule="evenodd" clip-rule="evenodd" d="M16.5 4.61597C7.66395 4.61597 0.500916 11.779 0.500916 20.6151V26.3839C0.500916 26.9362 0.948631 27.3839 1.50092 27.3839H12.9463C12.954 27.384 12.9618 27.384 12.9696 27.3839H31.4991C32.0514 27.3839 32.4991 26.9362 32.4991 26.3839V20.615C32.4991 11.779 25.3361 4.61597 16.5 4.61597ZM15.5 6.65113V10.2311C15.5 10.7834 15.9477 11.2311 16.5 11.2311C17.0523 11.2311 17.5 10.7834 17.5 10.2311V6.65113C23.5728 7.07974 28.5762 11.3818 30.0545 17.1016L26.2714 18.1153C25.7379 18.2583 25.4214 18.8066 25.5643 19.3401C25.7072 19.8735 26.2556 20.1901 26.789 20.0472L30.4154 19.0755C30.4707 19.5811 30.4991 20.0947 30.4991 20.615V25.3839H14.9865L23.6147 14.1394C23.9509 13.7013 23.8682 13.0735 23.4301 12.7373C22.9919 12.4011 22.3642 12.4838 22.028 12.9219L12.4655 25.3839H2.50092V20.6151C2.50092 20.0947 2.5293 19.5811 2.58461 19.0755L6.21109 20.0472C6.74456 20.1901 7.2929 19.8735 7.43584 19.3401C7.57878 18.8066 7.2622 18.2583 6.72873 18.1153L2.94548 17.1016C4.42386 11.3818 9.42721 7.07975 15.5 6.65113Z" fill="#111827"/>
</svg>
