<svg width="32" height="32" viewBox="0 0 32 32" fill="none" xmlns="http://www.w3.org/2000/svg">
<path d="M16 22C19.3137 22 22 19.3137 22 16C22 12.6863 19.3137 10 16 10C12.6863 10 10 12.6863 10 16C10 19.3137 12.6863 22 16 22Z" stroke="#1C1B1F" stroke-width="2" stroke-linecap="round" stroke-linejoin="round"/>
<path d="M13.5173 25.0067H14.5173C14.5173 24.5565 14.2165 24.1619 13.7825 24.0425L13.5173 25.0067ZM13.5173 28H12.5173C12.5173 28.5523 12.965 29 13.5173 29V28ZM11.3874 24.1237L11.882 23.2545C11.4906 23.0318 10.9987 23.0982 10.6803 23.4166L11.3874 24.1237ZM9.27028 26.2408L8.56317 26.9479C8.75071 27.1355 9.00506 27.2408 9.27028 27.2408C9.5355 27.2408 9.78985 27.1355 9.97739 26.9479L9.27028 26.2408ZM5.75919 22.7297L5.05209 22.0226C4.86455 22.2102 4.75919 22.4645 4.75919 22.7297C4.75919 22.9949 4.86455 23.2493 5.05209 23.4368L5.75919 22.7297ZM7.87633 20.6126L8.58344 21.3197C8.90183 21.0013 8.96816 20.5094 8.74547 20.118L7.87633 20.6126ZM6.99333 18.4827L7.95753 18.2175C7.83815 17.7835 7.44349 17.4827 6.99333 17.4827V18.4827ZM4 18.4827H3C3 19.035 3.44772 19.4827 4 19.4827V18.4827ZM4 13.5173V12.5173C3.44772 12.5173 3 12.965 3 13.5173H4ZM6.99332 13.5173V14.5173C7.44347 14.5173 7.83814 14.2165 7.95752 13.7825L6.99332 13.5173ZM7.87631 11.3874L8.74545 11.8819C8.96814 11.4906 8.90181 10.9987 8.58342 10.6803L7.87631 11.3874ZM5.75917 9.27025L5.05207 8.56314C4.66154 8.95367 4.66154 9.58683 5.05207 9.97736L5.75917 9.27025ZM9.27026 5.75916L9.97737 5.05206C9.58684 4.66153 8.95368 4.66153 8.56315 5.05206L9.27026 5.75916ZM11.3874 7.87628L10.6803 8.58339C10.9987 8.90178 11.4906 8.96812 11.8819 8.74543L11.3874 7.87628ZM13.5173 6.99327L13.7825 7.95747C14.2165 7.83809 14.5173 7.44343 14.5173 6.99327H13.5173ZM13.5173 4V3C12.965 3 12.5173 3.44772 12.5173 4H13.5173ZM18.4827 4H19.4827C19.4827 3.44772 19.035 3 18.4827 3V4ZM18.4827 6.99325H17.4827C17.4827 7.44341 17.7835 7.83808 18.2175 7.95745L18.4827 6.99325ZM20.6127 7.87627L20.1181 8.74541C20.5095 8.9681 21.0014 8.90177 21.3198 8.58337L20.6127 7.87627ZM22.7298 5.75917L23.4369 5.05207C23.2493 4.86453 22.995 4.75917 22.7298 4.75917C22.4645 4.75917 22.2102 4.86453 22.0226 5.05207L22.7298 5.75917ZM26.2408 9.27026L26.9479 9.97737C27.3385 9.58684 27.3385 8.95368 26.9479 8.56315L26.2408 9.27026ZM24.1237 11.3874L23.4166 10.6803C23.0982 10.9986 23.0319 11.4906 23.2546 11.8819L24.1237 11.3874ZM25.0068 13.5173L24.0426 13.7825C24.1619 14.2165 24.5566 14.5173 25.0068 14.5173V13.5173ZM28 13.5173H29C29 12.965 28.5523 12.5173 28 12.5173V13.5173ZM28 18.4827V19.4827C28.5523 19.4827 29 19.035 29 18.4827H28ZM25.0067 18.4827V17.4827C24.5566 17.4827 24.1619 17.7835 24.0425 18.2175L25.0067 18.4827ZM24.1237 20.6126L23.2546 20.1181C23.0319 20.5094 23.0982 21.0013 23.4166 21.3197L24.1237 20.6126ZM26.2408 22.7297L26.9479 23.4368C27.3385 23.0463 27.3385 22.4131 26.9479 22.0226L26.2408 22.7297ZM22.7297 26.2408L22.0226 26.9479C22.4132 27.3384 23.0463 27.3384 23.4368 26.9479L22.7297 26.2408ZM20.6126 24.1237L21.3197 23.4166C21.0013 23.0982 20.5094 23.0319 20.1181 23.2546L20.6126 24.1237ZM18.4827 25.0067L18.2175 24.0425C17.7835 24.1619 17.4827 24.5565 17.4827 25.0067H18.4827ZM18.4827 28V29C19.035 29 19.4827 28.5523 19.4827 28H18.4827ZM12.5173 25.0067V28H14.5173V25.0067H12.5173ZM10.8929 24.9928C11.6275 25.4108 12.4186 25.7416 13.2521 25.9709L13.7825 24.0425C13.1115 23.8579 12.4743 23.5916 11.882 23.2545L10.8929 24.9928ZM9.97739 26.9479L12.0945 24.8308L10.6803 23.4166L8.56317 25.5337L9.97739 26.9479ZM5.05209 23.4368L8.56317 26.9479L9.97739 25.5337L6.4663 22.0226L5.05209 23.4368ZM7.16922 19.9055L5.05209 22.0226L6.4663 23.4368L8.58344 21.3197L7.16922 19.9055ZM6.02914 18.7479C6.25837 19.5814 6.58917 20.3725 7.00719 21.1072L8.74547 20.118C8.40845 19.5257 8.14206 18.8885 7.95753 18.2175L6.02914 18.7479ZM6.99333 17.4827H4V19.4827H6.99333V17.4827ZM5 18.4827V13.5173H3V18.4827H5ZM4 14.5173H6.99332V12.5173H4V14.5173ZM7.00716 10.8928C6.58915 11.6275 6.25835 12.4186 6.02912 13.2521L7.95752 13.7825C8.14205 13.1115 8.40843 12.4742 8.74545 11.8819L7.00716 10.8928ZM5.05207 9.97736L7.1692 12.0945L8.58342 10.6803L6.46628 8.56314L5.05207 9.97736ZM8.56315 5.05206L5.05207 8.56314L6.46628 9.97736L9.97737 6.46627L8.56315 5.05206ZM12.0945 7.16918L9.97737 5.05206L8.56315 6.46627L10.6803 8.58339L12.0945 7.16918ZM13.2521 6.02908C12.4186 6.25831 11.6275 6.58912 10.8928 7.00714L11.8819 8.74543C12.4742 8.40839 13.1115 8.14201 13.7825 7.95747L13.2521 6.02908ZM12.5173 4V6.99327H14.5173V4H12.5173ZM18.4827 3H13.5173V5H18.4827V3ZM19.4827 6.99325V4H17.4827V6.99325H19.4827ZM21.1072 7.00713C20.3726 6.5891 19.5814 6.25829 18.7479 6.02906L18.2175 7.95745C18.8885 8.14199 19.5258 8.40838 20.1181 8.74541L21.1072 7.00713ZM22.0226 5.05207L19.9056 7.16916L21.3198 8.58337L23.4369 6.46628L22.0226 5.05207ZM26.9479 8.56315L23.4369 5.05207L22.0226 6.46628L25.5337 9.97737L26.9479 8.56315ZM24.8309 12.0945L26.9479 9.97737L25.5337 8.56315L23.4166 10.6803L24.8309 12.0945ZM25.9709 13.2521C25.7417 12.4186 25.4109 11.6274 24.9929 10.8928L23.2546 11.8819C23.5916 12.4742 23.858 13.1115 24.0426 13.7825L25.9709 13.2521ZM25.0068 14.5173H28V12.5173H25.0068V14.5173ZM27 13.5173V18.4827H29V13.5173H27ZM28 17.4827H25.0067V19.4827H28V17.4827ZM24.9929 21.1072C25.4109 20.3726 25.7417 19.5814 25.9709 18.7479L24.0425 18.2175C23.858 18.8885 23.5916 19.5258 23.2546 20.1181L24.9929 21.1072ZM26.9479 22.0226L24.8308 19.9055L23.4166 21.3197L25.5337 23.4368L26.9479 22.0226ZM23.4368 26.9479L26.9479 23.4368L25.5337 22.0226L22.0226 25.5337L23.4368 26.9479ZM19.9055 24.8308L22.0226 26.9479L23.4368 25.5337L21.3197 23.4166L19.9055 24.8308ZM18.7479 25.9709C19.5814 25.7417 20.3725 25.4109 21.1072 24.9928L20.1181 23.2546C19.5258 23.5916 18.8885 23.858 18.2175 24.0425L18.7479 25.9709ZM19.4827 28V25.0067H17.4827V28H19.4827ZM13.5173 29H18.4827V27H13.5173V29Z" fill="#1C1B1F"/>
</svg>
