<svg width="33" height="32" viewBox="0 0 33 32" fill="none" xmlns="http://www.w3.org/2000/svg">
<path fill-rule="evenodd" clip-rule="evenodd" d="M13.3968 0.000915527C12.8445 0.000915527 12.3968 0.448631 12.3968 1.00092V4.00458C11.8891 4.1782 11.396 4.3831 10.9198 4.61695L8.79543 2.4926C8.40491 2.10208 7.77174 2.10208 7.38122 2.4926L2.99263 6.88119C2.6021 7.27172 2.6021 7.90488 2.99263 8.29541L5.11698 10.4198C4.88311 10.896 4.6782 11.3891 4.50458 11.8968H1.50092C0.948631 11.8968 0.500916 12.3445 0.500916 12.8968V19.1032C0.500916 19.6555 0.948631 20.1032 1.50092 20.1032H4.5046C4.67822 20.6109 4.88312 21.104 5.11698 21.5802L2.99265 23.7046C2.80512 23.8921 2.69976 24.1465 2.69976 24.4117C2.69976 24.6769 2.80512 24.9312 2.99265 25.1188L7.38124 29.5074C7.77177 29.8979 8.40493 29.8979 8.79546 29.5074L10.9198 27.383C11.396 27.6169 11.8891 27.8218 12.3968 27.9954V30.9991C12.3968 31.5514 12.8445 31.9991 13.3968 31.9991H19.6032C20.1555 31.9991 20.6032 31.5514 20.6032 30.9991V27.9954C21.1109 27.8218 21.604 27.6169 22.0803 27.383L24.2045 29.5073C24.3921 29.6949 24.6464 29.8002 24.9116 29.8002C25.1769 29.8002 25.4312 29.6949 25.6188 29.5073L30.0073 25.1187C30.3979 24.7282 30.3979 24.095 30.0073 23.7045L27.8831 21.5802C28.1169 21.104 28.3218 20.6109 28.4955 20.1032H31.4991C32.0514 20.1032 32.4991 19.6555 32.4991 19.1032V12.8968C32.4991 12.3445 32.0514 11.8968 31.4991 11.8968H28.4955C28.3218 11.3891 28.1169 10.896 27.8831 10.4198L30.0074 8.29546C30.1949 8.10793 30.3003 7.85357 30.3003 7.58836C30.3003 7.32314 30.1949 7.06879 30.0074 6.88125L25.6188 2.49266C25.2283 2.10213 24.5951 2.10213 24.2046 2.49266L22.0803 4.61695C21.604 4.38308 21.1109 4.17817 20.6032 4.00454V1.00092C20.6032 0.448631 20.1555 0.000915527 19.6032 0.000915527H13.3968ZM14.3968 4.74231V2.00092H18.6032V4.74228C18.6032 5.19244 18.904 5.5871 19.338 5.70648C20.197 5.94272 21.0128 6.28373 21.7709 6.71512C22.1622 6.93781 22.6542 6.87148 22.9726 6.55309L24.9117 4.61398L27.886 7.58836L25.9469 9.52747C25.6285 9.84586 25.5622 10.3378 25.7849 10.7291C26.2163 11.4873 26.5573 12.303 26.7935 13.162C26.9129 13.596 27.3076 13.8968 27.7577 13.8968H30.4991V18.1032H27.7577C27.3076 18.1032 26.9129 18.404 26.7935 18.838C26.5573 19.697 26.2163 20.5128 25.7849 21.2709C25.5622 21.6622 25.6285 22.1541 25.9469 22.4725L27.886 24.4116L24.9116 27.386L22.9726 25.4469C22.6542 25.1285 22.1622 25.0622 21.7709 25.2849C21.0128 25.7163 20.197 26.0573 19.338 26.2935C18.904 26.4129 18.6032 26.8076 18.6032 27.2577V29.9991H14.3968V27.2577C14.3968 26.8075 14.096 26.4129 13.662 26.2935C12.803 26.0573 11.9873 25.7162 11.2292 25.2849C10.8378 25.0622 10.3459 25.1285 10.0275 25.4469L8.08835 27.3861L5.11397 24.4117L7.05312 22.4725C7.37151 22.1541 7.43784 21.6622 7.21515 21.2709C6.78377 20.5128 6.44277 19.697 6.20653 18.838C6.08715 18.404 5.69248 18.1032 5.24233 18.1032H2.50092V13.8968H5.24231C5.69247 13.8968 6.08714 13.596 6.20651 13.162C6.44275 12.303 6.78376 11.4873 7.21515 10.7291C7.43784 10.3378 7.37151 9.84586 7.05311 9.52747L5.11395 7.5883L8.08832 4.61392L10.0275 6.55309C10.3459 6.87148 10.8378 6.93781 11.2292 6.71512C11.9873 6.28375 12.803 5.94274 13.662 5.7065C14.096 5.58713 14.3968 5.19246 14.3968 4.74231ZM10.0005 16.0001C10.0005 12.4105 12.9104 9.50051 16.5 9.50051C20.0896 9.50051 22.9995 12.4105 22.9995 16.0001C22.9995 19.5897 20.0896 22.4996 16.5 22.4996C12.9104 22.4996 10.0005 19.5897 10.0005 16.0001ZM16.5 7.50051C11.8058 7.50051 8.00045 11.3059 8.00045 16.0001C8.00045 20.6942 11.8058 24.4996 16.5 24.4996C21.1942 24.4996 24.9995 20.6942 24.9995 16.0001C24.9995 11.3059 21.1942 7.50051 16.5 7.50051Z" fill="#111827"/>
</svg>
