<svg width="33" height="32" viewBox="0 0 33 32" fill="none" xmlns="http://www.w3.org/2000/svg">
<path fill-rule="evenodd" clip-rule="evenodd" d="M12.5531 0.956283C12.2769 0.47799 11.6653 0.314115 11.187 0.590257L5.81119 3.694C5.3329 3.97015 5.16903 4.58174 5.44517 5.06003L6.94891 7.66458C5.87914 8.88944 5.04063 10.3228 4.50252 11.8964H1.49826C0.945976 11.8964 0.49826 12.3441 0.49826 12.8964V19.1039C0.49826 19.6562 0.945976 20.1039 1.49826 20.1039H4.50262C5.04073 21.6774 5.87922 23.1106 6.94893 24.3354L5.44516 26.94C5.31255 27.1697 5.27661 27.4427 5.34526 27.6989C5.4139 27.955 5.5815 28.1735 5.81118 28.3061L11.187 31.4098C11.6653 31.686 12.2769 31.5221 12.5531 31.0438L14.0558 28.441C14.8473 28.5957 15.6646 28.6767 16.5 28.6767C17.3353 28.6767 18.1526 28.5957 18.9442 28.441L20.4469 31.0438C20.723 31.5221 21.3346 31.6859 21.8129 31.4098L27.1888 28.306C27.6671 28.0299 27.8309 27.4183 27.5548 26.94L26.051 24.3354C27.1208 23.1106 27.9592 21.6774 28.4974 20.1039H31.5017C32.054 20.1039 32.5017 19.6562 32.5017 19.1039V12.8964C32.5017 12.3441 32.054 11.8964 31.5017 11.8964H28.4974C27.9593 10.3227 27.1208 8.88943 26.0511 7.66457L27.5548 5.06006C27.6874 4.83037 27.7233 4.55742 27.6547 4.30124C27.586 4.04506 27.4184 3.82664 27.1887 3.69403L21.8129 0.590283C21.5832 0.457675 21.3103 0.42174 21.0541 0.490383C20.7979 0.559026 20.5795 0.726624 20.4469 0.956309L18.9442 3.55895C18.1527 3.40425 17.3354 3.32332 16.5 3.32332C15.6646 3.32332 14.8473 3.40426 14.0557 3.55895L12.5531 0.956283ZM9.04976 7.30336L7.67722 4.92606L11.321 2.82231L12.6921 5.19705C12.9169 5.58649 13.3741 5.77795 13.8093 5.66498C14.6678 5.44216 15.5693 5.32332 16.5 5.32332C17.4307 5.32332 18.3321 5.44216 19.1906 5.66498C19.6259 5.77795 20.083 5.58649 20.3079 5.19705L21.6789 2.82233L25.3227 4.92608L23.9502 7.30335C23.7252 7.693 23.7882 8.18492 24.1041 8.50535C25.3658 9.78543 26.3058 11.3811 26.7955 13.1616C26.9149 13.5956 27.3095 13.8964 27.7597 13.8964H30.5017V18.1039H27.7596C27.3095 18.1039 26.9148 18.4046 26.7954 18.8387C26.3058 20.619 25.3658 22.2146 24.104 23.4947C23.7882 23.8151 23.7252 24.307 23.9502 24.6967L25.3227 27.074L21.6789 29.1777L20.3078 26.8029C20.083 26.4135 19.6259 26.222 19.1906 26.335C18.3321 26.5578 17.4307 26.6767 16.5 26.6767C15.5693 26.6767 14.6679 26.5578 13.8094 26.335C13.3741 26.222 12.917 26.4135 12.6921 26.8029L11.321 29.1778L7.67721 27.074L9.04979 24.6966C9.27475 24.307 9.21179 23.8151 8.89594 23.4946C7.6342 22.2146 6.69422 20.619 6.20454 18.8387C6.08516 18.4046 5.6905 18.1039 5.24035 18.1039H2.49826V13.8964H5.24027C5.69043 13.8964 6.0851 13.5956 6.20447 13.1616C6.69413 11.3811 7.63413 9.78544 8.89591 8.50536C9.21176 8.18493 9.27472 7.69301 9.04976 7.30336ZM9.99928 16.0003C9.99928 12.41 12.9098 9.49944 16.5001 9.49944C20.0905 9.49944 23.001 12.41 23.001 16.0003C23.001 19.5906 20.0905 22.5012 16.5001 22.5012C12.9098 22.5012 9.99928 19.5906 9.99928 16.0003ZM16.5001 7.49944C11.8052 7.49944 7.99928 11.3054 7.99928 16.0003C7.99928 20.6952 11.8052 24.5012 16.5001 24.5012C21.195 24.5012 25.001 20.6952 25.001 16.0003C25.001 11.3054 21.195 7.49944 16.5001 7.49944Z" fill="#111827"/>
</svg>
