<svg width="33" height="33" viewBox="0 0 33 33" fill="none" xmlns="http://www.w3.org/2000/svg">
<path fill-rule="evenodd" clip-rule="evenodd" d="M29.0712 2.51465L21.5074 10.0784C19.2836 8.17774 16.397 7.03001 13.2423 7.03001C6.21302 7.03001 0.514648 12.7284 0.514648 19.7577C0.514648 26.787 6.21302 32.4853 13.2423 32.4853C20.2716 32.4853 25.97 26.787 25.97 19.7577C25.97 16.603 24.8223 13.7164 22.9216 11.4927L30.4854 3.92892V9.3331C30.4854 9.88538 30.9331 10.3331 31.4854 10.3331C32.0376 10.3331 32.4854 9.88538 32.4854 9.3331V1.5252C32.4858 1.48252 32.4835 1.43981 32.4786 1.39737C32.4705 1.32836 32.4554 1.2615 32.434 1.19752C32.3865 1.05498 32.306 0.921016 32.1925 0.807542C32.0905 0.705551 31.972 0.630196 31.8455 0.581478C31.7365 0.539365 31.6182 0.515812 31.4946 0.514691C31.4915 0.514663 31.4885 0.514648 31.4854 0.514648H23.6669C23.1146 0.514648 22.6669 0.962364 22.6669 1.51465C22.6669 2.06693 23.1146 2.51465 23.6669 2.51465H29.0712ZM13.2423 9.03001C7.31759 9.03001 2.51465 13.8329 2.51465 19.7577C2.51465 25.6824 7.31759 30.4853 13.2423 30.4853C19.167 30.4853 23.97 25.6824 23.97 19.7577C23.97 13.8329 19.167 9.03001 13.2423 9.03001Z" fill="#111827"/>
</svg>
