<svg width="33" height="33" viewBox="0 0 33 33" fill="none" xmlns="http://www.w3.org/2000/svg">
<path fill-rule="evenodd" clip-rule="evenodd" d="M32.1562 0.747108C32.1921 0.778417 32.2257 0.812247 32.2568 0.84832C32.3182 0.919465 32.3679 0.997204 32.406 1.07903C32.4657 1.2072 32.499 1.35013 32.499 1.50085V9.66671C32.499 10.219 32.0513 10.6667 31.499 10.6667C30.9467 10.6667 30.499 10.219 30.499 9.66671V3.91503L25.0875 9.32656L28.2932 12.5322C28.6837 12.9228 28.6837 13.5559 28.2932 13.9464C27.9026 14.337 27.2695 14.337 26.879 13.9464L23.6733 10.7408L20.6964 13.7176C22.3645 15.7047 23.3691 18.2675 23.3691 21.0649C23.3691 27.3798 18.2499 32.4991 11.935 32.4991C5.62009 32.4991 0.500854 27.3798 0.500854 21.0649C0.500854 14.75 5.62009 9.63077 11.935 9.63077C14.7324 9.63077 17.2952 10.6353 19.2822 12.3034L22.2591 9.32656L19.0533 6.12084C18.6628 5.73031 18.6628 5.09715 19.0533 4.70662C19.4439 4.3161 20.077 4.3161 20.4676 4.70662L23.6733 7.91235L29.0848 2.50085H23.3332C22.7809 2.50085 22.3332 2.05314 22.3332 1.50085C22.3332 0.94857 22.7809 0.500855 23.3332 0.500855L31.499 0.500854L31.499 0.500855C31.6411 0.500855 31.7762 0.530477 31.8986 0.583883C31.9904 0.623857 32.0774 0.678265 32.1562 0.747108ZM2.50085 21.0649C2.50085 15.8546 6.72466 11.6308 11.935 11.6308C17.1453 11.6308 21.3691 15.8546 21.3691 21.0649C21.3691 26.2752 17.1453 30.4991 11.935 30.4991C6.72466 30.4991 2.50085 26.2752 2.50085 21.0649Z" fill="#111827"/>
</svg>
