<svg width="33" height="33" viewBox="0 0 33 33" fill="none" xmlns="http://www.w3.org/2000/svg">
<path fill-rule="evenodd" clip-rule="evenodd" d="M19.9315 0.500854C19.3792 0.500854 18.9315 0.94857 18.9315 1.50085C18.9315 2.05314 19.3792 2.50085 19.9315 2.50085H24.8548L20.8533 6.50228C19.1585 5.00403 16.9309 4.09471 14.491 4.09471C9.18345 4.09471 4.88086 8.39731 4.88086 13.7048C4.88086 18.6747 8.6534 22.7634 13.491 23.2635V26.481H9.89881C9.34653 26.481 8.89881 26.9287 8.89881 27.481C8.89881 28.0333 9.34653 28.481 9.89881 28.481H13.491V31.499C13.491 32.0513 13.9387 32.499 14.491 32.499C15.0433 32.499 15.491 32.0513 15.491 31.499V28.481H19.0829C19.6352 28.481 20.0829 28.0333 20.0829 27.481C20.0829 26.9287 19.6352 26.481 19.0829 26.481H15.491V23.2635C20.3286 22.7633 24.1011 18.6746 24.1011 13.7048C24.1011 11.5582 23.3973 9.57594 22.2078 7.97626L26.1191 4.06494V8.68842C26.1191 9.24071 26.5668 9.68842 27.1191 9.68842C27.6714 9.68842 28.1191 9.24071 28.1191 8.68842V1.50085C28.1191 0.94857 27.6714 0.500854 27.1191 0.500854H19.9315ZM20.1327 8.59745C20.1237 8.58795 20.115 8.57831 20.1064 8.56855C18.715 7.04818 16.7143 6.09471 14.491 6.09471C10.288 6.09471 6.88086 9.50187 6.88086 13.7048C6.88086 17.9057 10.2847 21.3116 14.4848 21.3149L14.491 21.3149L14.4972 21.3149C18.6973 21.3116 22.1011 17.9057 22.1011 13.7048C22.1011 11.7393 21.3559 9.94781 20.1327 8.59745Z" fill="#111827"/>
</svg>
