<svg width="33" height="33" viewBox="0 0 33 33" fill="none" xmlns="http://www.w3.org/2000/svg">
<path fill-rule="evenodd" clip-rule="evenodd" d="M16.5 2.50085C11.5298 2.50085 7.50061 6.53003 7.50061 11.5003C7.50061 16.4684 11.5264 20.4963 16.4938 20.4997L16.5 20.4996L16.5062 20.4997C21.4736 20.4963 25.4994 16.4684 25.4994 11.5003C25.4994 6.53003 21.4703 2.50085 16.5 2.50085ZM5.50061 11.5003C5.50061 17.238 9.89384 21.9496 15.5 22.4548V26.0549H10.9449C10.3926 26.0549 9.94487 26.5026 9.94487 27.0549C9.94487 27.6072 10.3926 28.0549 10.9449 28.0549H15.5V31.499C15.5 32.0513 15.9477 32.499 16.5 32.499C17.0523 32.499 17.5 32.0513 17.5 31.499V28.0549H22.0553C22.6076 28.0549 23.0553 27.6072 23.0553 27.0549C23.0553 26.5026 22.6076 26.0549 22.0553 26.0549H17.5V22.4548C23.1062 21.9496 27.4994 17.238 27.4994 11.5003C27.4994 5.42546 22.5748 0.500854 16.5 0.500854C10.4252 0.500854 5.50061 5.42546 5.50061 11.5003Z" fill="#111827"/>
</svg>
