<svg width="33" height="33" viewBox="0 0 33 33" fill="none" xmlns="http://www.w3.org/2000/svg">
<path fill-rule="evenodd" clip-rule="evenodd" d="M12.0045 0.671089C11.5461 0.363037 10.9247 0.484911 10.6167 0.943302C10.3086 1.40169 10.4305 2.02302 10.8889 2.33107L14.7072 4.89709L10.8889 7.4631C10.4305 7.77115 10.3086 8.39248 10.6167 8.85087C10.9247 9.30926 11.5461 9.43114 12.0045 9.12308L15.5 6.77398V11.3015C10.1026 11.8055 5.87799 16.3479 5.87799 21.8771C5.87799 27.7434 10.6336 32.4991 16.5 32.4991C22.3664 32.4991 27.122 27.7434 27.122 21.8771C27.122 16.3479 22.8974 11.8055 17.5 11.3015V6.77391L20.9956 9.12308C21.454 9.43114 22.0754 9.30926 22.3834 8.85087C22.6915 8.39248 22.5696 7.77115 22.1112 7.4631L18.2929 4.89709L22.1112 2.33107C22.5696 2.02302 22.6915 1.40169 22.3834 0.943302C22.0754 0.484911 21.454 0.363037 20.9956 0.671089L16.5001 3.69225L12.0045 0.671089ZM16.4872 13.2551C16.4915 13.2551 16.4957 13.2551 16.5 13.2551C16.5043 13.2551 16.5085 13.2551 16.5128 13.2551C21.2687 13.262 25.122 17.1195 25.122 21.8771C25.122 26.6389 21.2618 30.4991 16.5 30.4991C11.7382 30.4991 7.87799 26.6389 7.87799 21.8771C7.87799 17.1195 11.7313 13.262 16.4872 13.2551Z" fill="#111827"/>
</svg>
