<svg width="33" height="33" viewBox="0 0 33 33" fill="none" xmlns="http://www.w3.org/2000/svg">
<path fill-rule="evenodd" clip-rule="evenodd" d="M6.70068 12.3002C6.70068 6.88816 11.088 2.50085 16.5 2.50085C21.912 2.50085 26.2993 6.88816 26.2993 12.3002C26.2993 17.7122 21.912 22.0995 16.5 22.0995C11.088 22.0995 6.70068 17.7122 6.70068 12.3002ZM16.5 0.500854C9.98342 0.500854 4.70068 5.78359 4.70068 12.3002C4.70068 18.48 9.45147 23.5502 15.5001 24.0577V31.4991C15.5001 32.0514 15.9478 32.4991 16.5001 32.4991C17.0523 32.4991 17.5001 32.0514 17.5001 31.4991V24.0577C23.5486 23.5501 28.2993 18.4799 28.2993 12.3002C28.2993 5.78359 23.0166 0.500854 16.5 0.500854Z" fill="#111827"/>
</svg>
