<svg width="32" height="32" viewBox="0 0 32 32" fill="none" xmlns="http://www.w3.org/2000/svg">
<path d="M12.4772 15.9999C13.311 15.9999 13.9869 15.324 13.9869 14.4902C13.9869 13.6564 13.311 12.9805 12.4772 12.9805C11.6434 12.9805 10.9675 13.6564 10.9675 14.4902C10.9675 15.324 11.6434 15.9999 12.4772 15.9999Z" fill="#1C1B1F"/>
<path d="M19.5226 15.9999C20.3564 15.9999 21.0324 15.324 21.0324 14.4902C21.0324 13.6564 20.3564 12.9805 19.5226 12.9805C18.6889 12.9805 18.0129 13.6564 18.0129 14.4902C18.0129 15.324 18.6889 15.9999 19.5226 15.9999Z" fill="#1C1B1F"/>
<path d="M27.65 28V15.6501C27.65 9.21592 22.4341 4 15.9999 4C9.56578 4 4.34985 9.21592 4.34985 15.6501V28L8.23322 24.1166L12.1166 28L15.9999 24.1166L19.8833 28L23.7667 24.1166L27.65 28Z" stroke="#1C1B1F" stroke-width="2" stroke-linejoin="round"/>
</svg>
