<svg width="33" height="33" viewBox="0 0 33 33" fill="none" xmlns="http://www.w3.org/2000/svg">
<path fill-rule="evenodd" clip-rule="evenodd" d="M16.4999 0.500732C7.90545 0.500732 0.938232 7.46795 0.938232 16.0624V31.4989C0.938232 31.9033 1.18187 32.268 1.55555 32.4228C1.92922 32.5775 2.35934 32.492 2.64534 32.206L6.79213 28.0592L10.9389 32.206C11.1265 32.3935 11.3808 32.4989 11.646 32.4989C11.9113 32.4989 12.1656 32.3935 12.3531 32.206L16.4999 28.0592L20.6467 32.206C20.8343 32.3935 21.0886 32.4989 21.3538 32.4989C21.6191 32.4989 21.8734 32.3935 22.0609 32.206L26.2077 28.0592L30.3545 32.206C30.6405 32.492 31.0707 32.5775 31.4443 32.4228C31.818 32.268 32.0616 31.9033 32.0616 31.4989V16.0624C32.0616 7.46795 25.0944 0.500732 16.4999 0.500732ZM2.93823 16.0624C2.93823 8.57252 9.01002 2.50073 16.4999 2.50073C23.9899 2.50073 30.0616 8.57252 30.0616 16.0624V29.0847L26.9148 25.9379C26.7273 25.7503 26.473 25.645 26.2077 25.645C25.9425 25.645 25.6882 25.7503 25.5006 25.9379L21.3538 30.0847L17.207 25.9379C17.0195 25.7503 16.7652 25.645 16.4999 25.645C16.2347 25.645 15.9804 25.7503 15.7928 25.9379L11.646 30.0847L7.49924 25.9379C7.3117 25.7503 7.05735 25.645 6.79213 25.645C6.52692 25.645 6.27256 25.7503 6.08503 25.9379L2.93823 29.0847V16.0624ZM12.097 16.4999C13.1391 16.4999 13.984 15.655 13.984 14.6129C13.984 13.5707 13.1391 12.7258 12.097 12.7258C11.0548 12.7258 10.21 13.5707 10.21 14.6129C10.21 15.655 11.0548 16.4999 12.097 16.4999ZM20.9031 16.4999C21.9453 16.4999 22.7901 15.655 22.7901 14.6129C22.7901 13.5707 21.9453 12.7258 20.9031 12.7258C19.861 12.7258 19.0161 13.5707 19.0161 14.6129C19.0161 15.655 19.861 16.4999 20.9031 16.4999Z" fill="#111827"/>
</svg>
