<svg width="32" height="33" viewBox="0 0 32 33" fill="none" xmlns="http://www.w3.org/2000/svg">
<path d="M16 11.7673V27.7673" stroke="#1C1B1F" stroke-width="2" stroke-linecap="round" stroke-linejoin="round"/>
<path d="M21.6569 10.353C20.2426 11.7672 16 11.7672 16 11.7672C16 11.7672 16 7.5246 17.4142 6.11038C17.9769 5.5483 18.7398 5.23268 19.5352 5.23291C20.3305 5.23314 21.0932 5.54919 21.6556 6.11159C22.218 6.67399 22.5341 7.4367 22.5343 8.23206C22.5346 9.02741 22.2189 9.7903 21.6569 10.353V10.353Z" stroke="#1C1B1F" stroke-width="2" stroke-linecap="round" stroke-linejoin="round"/>
<path d="M10.343 10.353C11.7573 11.7672 15.9999 11.7672 15.9999 11.7672C15.9999 11.7672 15.9999 7.5246 14.5857 6.11038C14.023 5.5483 13.2601 5.23268 12.4647 5.23291C11.6694 5.23314 10.9067 5.54919 10.3443 6.11159C9.78186 6.67399 9.4658 7.4367 9.46558 8.23206C9.46535 9.02741 9.78097 9.7903 10.343 10.353V10.353Z" stroke="#1C1B1F" stroke-width="2" stroke-linecap="round" stroke-linejoin="round"/>
<rect x="6" y="17.7673" width="20" height="9.99989" stroke="#1C1B1F" stroke-width="2" stroke-linejoin="round"/>
<rect x="4" y="11.7673" width="24" height="6" stroke="#1C1B1F" stroke-width="2" stroke-linejoin="round"/>
</svg>
