<svg width="32" height="32" viewBox="0 0 32 32" fill="none" xmlns="http://www.w3.org/2000/svg">
<path d="M16 11.2673V27.2673" stroke="#1C1B1F" stroke-width="2" stroke-linecap="round" stroke-linejoin="round"/>
<path d="M21.6569 9.85302C20.2426 11.2672 16 11.2672 16 11.2672C16 11.2672 16 7.0246 17.4142 5.61038C17.9769 5.0483 18.7398 4.73268 19.5352 4.73291C20.3305 4.73314 21.0932 5.04919 21.6556 5.61159C22.218 6.17399 22.5341 6.9367 22.5343 7.73206C22.5346 8.52741 22.2189 9.2903 21.6569 9.85302V9.85302Z" stroke="#1C1B1F" stroke-width="2" stroke-linecap="round" stroke-linejoin="round"/>
<path d="M10.343 9.85302C11.7573 11.2672 15.9999 11.2672 15.9999 11.2672C15.9999 11.2672 15.9999 7.0246 14.5857 5.61038C14.023 5.0483 13.2601 4.73268 12.4647 4.73291C11.6694 4.73314 10.9067 5.04919 10.3443 5.61159C9.78186 6.17399 9.4658 6.9367 9.46558 7.73206C9.46535 8.52741 9.78097 9.2903 10.343 9.85302V9.85302Z" stroke="#1C1B1F" stroke-width="2" stroke-linecap="round" stroke-linejoin="round"/>
<rect x="6" y="17.2673" width="20" height="9.99989" stroke="#1C1B1F" stroke-width="2" stroke-linejoin="round"/>
<rect x="4" y="11.2673" width="24" height="6" stroke="#1C1B1F" stroke-width="2" stroke-linejoin="round"/>
</svg>
