<svg width="33" height="33" viewBox="0 0 33 33" fill="none" xmlns="http://www.w3.org/2000/svg">
<path d="M16.4999 10.0842C16.4999 10.0842 21.8029 10.0842 23.5706 8.3165C24.2731 7.61314 24.6676 6.65958 24.6673 5.66545C24.6671 4.67132 24.272 3.71799 23.5691 3.01503C22.8661 2.31207 21.9128 1.91703 20.9186 1.91675C19.9245 1.91647 18.971 2.31097 18.2676 3.01352C16.4999 4.78118 16.4999 10.0842 16.4999 10.0842ZM16.4999 10.0842C16.4999 10.0842 11.197 10.0842 9.42929 8.3165C8.72674 7.61314 8.33224 6.65958 8.33252 5.66545C8.3328 4.67132 8.72785 3.71799 9.4308 3.01503C10.1338 2.31207 11.0871 1.91703 12.0812 1.91675C13.0754 1.91647 14.0289 2.31097 14.7323 3.01352C16.4999 4.78118 16.4999 10.0842 16.4999 10.0842Z" stroke="#111827" stroke-width="2" stroke-linecap="round" stroke-linejoin="round"/>
<path fill-rule="evenodd" clip-rule="evenodd" d="M1.50098 9.08423C0.948692 9.08423 0.500977 9.53194 0.500977 10.0842V17.5838C0.500977 18.1361 0.948692 18.5838 1.50098 18.5838H3.00082V30.0829C3.00082 30.6352 3.44854 31.0829 4.00082 31.0829H16.4831L16.5 31.083L16.517 31.0829H28.9993C29.5516 31.0829 29.9993 30.6352 29.9993 30.0829V18.5838H31.4991C32.0514 18.5838 32.4991 18.1361 32.4991 17.5838V10.0842C32.4991 9.53194 32.0514 9.08423 31.4991 9.08423H16.5H1.50098ZM15.5 11.0842H2.50098V16.5838H3.997C3.99827 16.5838 3.99955 16.5838 4.00082 16.5838H15.5V11.0842ZM29.0031 16.5838C29.0018 16.5838 29.0006 16.5838 28.9993 16.5838H17.5V11.0842H30.4991V16.5838H29.0031ZM27.9993 18.5838H17.5V29.0829H27.9993V18.5838ZM5.00082 18.5838H15.5V29.0829H5.00082V18.5838Z" fill="#111827"/>
</svg>
