<svg width="33" height="32" viewBox="0 0 33 32" fill="none" xmlns="http://www.w3.org/2000/svg">
<path fill-rule="evenodd" clip-rule="evenodd" d="M26.7264 2.00085C24.6429 2.00085 22.954 3.68981 22.954 5.77323C22.954 7.85666 24.6429 9.54561 26.7264 9.54561C28.8098 9.54561 30.4987 7.85666 30.4987 5.77323C30.4987 3.68981 28.8098 2.00085 26.7264 2.00085ZM20.954 5.77323C20.954 2.58524 23.5384 0.000854492 26.7264 0.000854492C29.9144 0.000854492 32.4987 2.58524 32.4987 5.77323C32.4987 8.8884 30.0311 11.4272 26.9439 11.5416C26.6903 14.6218 24.11 17.0426 20.9644 17.0426H11.5314C9.47288 17.0426 7.77752 18.5977 7.55598 20.5972C10.1268 21.1803 12.046 23.4794 12.046 26.2266C12.046 29.4146 9.4616 31.999 6.2736 31.999C3.0856 31.999 0.501221 29.4146 0.501221 26.2266C0.501221 23.3796 2.56225 21.0141 5.27365 20.5405V11.4593C2.56225 10.9858 0.501221 8.6202 0.501221 5.77323C0.501221 2.58524 3.0856 0.000854492 6.2736 0.000854492C9.4616 0.000854492 12.046 2.58524 12.046 5.77323C12.046 8.62016 9.98499 10.9857 7.27365 11.4593V16.8152C8.36061 15.7205 9.86687 15.0426 11.5314 15.0426H20.9644C23.0973 15.0426 24.8403 13.3732 24.958 11.2697C22.635 10.5229 20.954 8.3444 20.954 5.77323ZM6.26809 22.4542C4.18719 22.4572 2.50122 24.145 2.50122 26.2266C2.50122 28.31 4.19017 29.999 6.2736 29.999C8.35703 29.999 10.046 28.31 10.046 26.2266C10.046 24.145 8.36005 22.4572 6.27919 22.4542L6.27365 22.4542L6.26809 22.4542ZM2.50122 5.77323C2.50122 3.68981 4.19017 2.00085 6.2736 2.00085C8.35703 2.00085 10.046 3.68981 10.046 5.77323C10.046 7.85666 8.35703 9.54561 6.2736 9.54561C4.19017 9.54561 2.50122 7.85666 2.50122 5.77323Z" fill="#111827"/>
</svg>
