<svg width="32" height="32" viewBox="0 0 32 32" fill="none" xmlns="http://www.w3.org/2000/svg">
<path d="M7.81818 28.0001C9.92691 28.0001 11.6364 26.2907 11.6364 24.182C11.6364 22.0732 9.92691 20.3638 7.81818 20.3638C5.70946 20.3638 4 22.0732 4 24.182C4 26.2907 5.70946 28.0001 7.81818 28.0001Z" stroke="#1C1B1F" stroke-width="2" stroke-linecap="round" stroke-linejoin="round"/>
<path d="M24.1817 11.6362C26.2904 11.6362 27.9999 9.92678 27.9999 7.81806C27.9999 5.70934 26.2904 3.99988 24.1817 3.99988C22.073 3.99988 20.3635 5.70934 20.3635 7.81806C20.3635 9.92678 22.073 11.6362 24.1817 11.6362Z" stroke="#1C1B1F" stroke-width="2" stroke-linecap="round" stroke-linejoin="round"/>
<path d="M7.81818 11.6362C9.92691 11.6362 11.6364 9.92678 11.6364 7.81806C11.6364 5.70934 9.92691 3.99988 7.81818 3.99988C5.70946 3.99988 4 5.70934 4 7.81806C4 9.92678 5.70946 11.6362 7.81818 11.6362Z" stroke="#1C1B1F" stroke-width="2" stroke-linecap="round" stroke-linejoin="round"/>
<path d="M7.81812 11.6365V20.3637" stroke="#1C1B1F" stroke-width="2" stroke-linecap="round" stroke-linejoin="round"/>
<path d="M23.5719 11.9519V11.9519C23.5719 14.2065 21.7442 16.0342 19.4896 16.0342H12.1501C9.87153 16.0342 8.02441 17.8813 8.02441 20.1599V20.1599" stroke="#1C1B1F" stroke-width="2" stroke-linecap="round"/>
</svg>
