<svg width="33" height="32" viewBox="0 0 33 32" fill="none" xmlns="http://www.w3.org/2000/svg">
<path fill-rule="evenodd" clip-rule="evenodd" d="M22.954 5.77323C22.954 3.68981 24.6429 2.00085 26.7264 2.00085C28.8098 2.00085 30.4987 3.68981 30.4987 5.77323C30.4987 7.85666 28.8098 9.54561 26.7264 9.54561C24.6429 9.54561 22.954 7.85666 22.954 5.77323ZM26.7264 0.000854492C23.5384 0.000854492 20.954 2.58524 20.954 5.77323C20.954 8.34439 22.635 10.5229 24.958 11.2697C24.8403 13.3732 23.0973 15.0427 20.9643 15.0427H11.5314C9.86684 15.0427 8.36058 15.7205 7.27361 16.8152V11.4593C9.98498 10.9857 12.046 8.62018 12.046 5.77323C12.046 2.58524 9.4616 0.000854492 6.2736 0.000854492C3.0856 0.000854492 0.501221 2.58524 0.501221 5.77323C0.501221 8.62019 2.56224 10.9858 5.27361 11.4593V20.5405C2.56224 21.0141 0.501221 23.3797 0.501221 26.2266C0.501221 29.4146 3.0856 31.999 6.2736 31.999C9.4616 31.999 12.046 29.4146 12.046 26.2266C12.046 23.4793 10.1268 21.1803 7.55595 20.5972C7.7775 18.5977 9.47286 17.0427 11.5314 17.0427H20.9643C24.11 17.0427 26.6903 14.6219 26.9439 11.5416C30.0311 11.4272 32.4987 8.88841 32.4987 5.77323C32.4987 2.58524 29.9144 0.000854492 26.7264 0.000854492ZM6.265 22.4542C6.26787 22.4543 6.27074 22.4543 6.27361 22.4543C6.27648 22.4543 6.27935 22.4543 6.28222 22.4542C8.36168 22.4589 10.046 24.1461 10.046 26.2266C10.046 28.31 8.35703 29.999 6.2736 29.999C4.19017 29.999 2.50122 28.31 2.50122 26.2266C2.50122 24.146 4.18553 22.4589 6.265 22.4542ZM6.2736 2.00085C4.19017 2.00085 2.50122 3.68981 2.50122 5.77323C2.50122 7.85666 4.19017 9.54561 6.2736 9.54561C8.35703 9.54561 10.046 7.85666 10.046 5.77323C10.046 3.68981 8.35703 2.00085 6.2736 2.00085Z" fill="#111827"/>
</svg>
