<svg width="33" height="32" viewBox="0 0 33 32" fill="none" xmlns="http://www.w3.org/2000/svg">
<path fill-rule="evenodd" clip-rule="evenodd" d="M16.5001 10.5004C13.4627 10.5004 11.0005 12.9626 11.0005 16C11.0005 19.0373 13.4627 21.4996 16.5001 21.4996C19.5301 21.4996 21.9878 19.0492 21.9997 16.0219C21.9995 16.0146 21.9994 16.0072 21.9994 15.9998C21.9994 15.9925 21.9995 15.9851 21.9997 15.9778C21.9877 12.9506 19.53 10.5004 16.5001 10.5004ZM23.9336 14.9998C23.4446 11.3308 20.3029 8.50037 16.5001 8.50037C12.6973 8.50037 9.55552 11.3308 9.06656 14.9998H1.50073C0.948448 14.9998 0.500732 15.4476 0.500732 15.9998C0.500732 16.5521 0.948448 16.9998 1.50073 16.9998H9.06653C9.55535 20.6691 12.6972 23.4996 16.5001 23.4996C20.303 23.4996 23.4448 20.6691 23.9336 16.9998H31.4989C32.0512 16.9998 32.4989 16.5521 32.4989 15.9998C32.4989 15.4476 32.0512 14.9998 31.4989 14.9998H23.9336Z" fill="#111827"/>
</svg>
