<svg width="32" height="32" viewBox="0 0 32 32" fill="none" xmlns="http://www.w3.org/2000/svg">
<path d="M24.5002 27C26.4332 27 28.0002 25.433 28.0002 23.5C28.0002 21.567 26.4332 20 24.5002 20C22.5672 20 21.0002 21.567 21.0002 23.5C21.0002 25.433 22.5672 27 24.5002 27Z" stroke="#1C1B1F" stroke-width="2" stroke-linecap="round" stroke-linejoin="round"/>
<path d="M7.5 12C9.433 12 11 10.433 11 8.5C11 6.567 9.433 5 7.5 5C5.567 5 4 6.567 4 8.5C4 10.433 5.567 12 7.5 12Z" stroke="#1C1B1F" stroke-width="2" stroke-linecap="round" stroke-linejoin="round"/>
<path d="M14.0002 20V26H8.00024" stroke="#1C1B1F" stroke-width="2" stroke-linecap="round" stroke-linejoin="round"/>
<path d="M24 6H18V12" stroke="#1C1B1F" stroke-width="2" stroke-linecap="round" stroke-linejoin="round"/>
<path d="M7.93457 12.0116V19.2007L14.0003 26" stroke="#1C1B1F" stroke-width="2" stroke-linecap="round" stroke-linejoin="round"/>
<path d="M24.0659 20.0005V12.7993L18.0001 6.00002" stroke="#1C1B1F" stroke-width="2" stroke-linecap="round" stroke-linejoin="round"/>
</svg>
