<svg width="33" height="32" viewBox="0 0 33 32" fill="none" xmlns="http://www.w3.org/2000/svg">
<path fill-rule="evenodd" clip-rule="evenodd" d="M5.87504 3.25C4.01106 3.25 2.5 4.76106 2.5 6.62504C2.5 8.48903 4.01106 10.0001 5.87504 10.0001C7.73903 10.0001 9.25009 8.48903 9.25009 6.62504C9.25009 4.76106 7.73903 3.25 5.87504 3.25ZM0.5 6.62504C0.5 3.65649 2.90649 1.25 5.87504 1.25C8.8436 1.25 11.2501 3.65649 11.2501 6.62504C11.2501 9.05738 9.63446 11.1124 7.41782 11.7754V19.6196L12.9999 25.8768V20.9999C12.9999 20.4477 13.4476 19.9999 13.9999 19.9999C14.5522 19.9999 14.9999 20.4477 14.9999 20.9999V28.4791C15.0057 28.7611 14.8928 29.0438 14.6658 29.2463C14.4719 29.4193 14.2292 29.5029 13.9884 29.5H6.49983C5.94755 29.5 5.49983 29.0523 5.49983 28.5C5.49983 27.9477 5.94755 27.5 6.49983 27.5H11.7678L5.6716 20.6666C5.50815 20.4833 5.41782 20.2464 5.41782 20.0008V11.9809C2.66327 11.7489 0.5 9.43959 0.5 6.62504ZM27.1253 21.9999C25.2613 21.9999 23.7502 23.511 23.7502 25.375C23.7502 27.239 25.2613 28.75 27.1253 28.75C28.9892 28.75 30.5003 27.239 30.5003 25.375C30.5003 23.511 28.9892 21.9999 27.1253 21.9999ZM27.5824 20.0191V11.999C27.5824 11.7534 27.4921 11.5165 27.3286 11.3333L21.2324 4.4998H26.5003C27.0526 4.4998 27.5003 4.05208 27.5003 3.4998C27.5003 2.94751 27.0526 2.4998 26.5003 2.4998H19.011C18.7704 2.49712 18.5281 2.58075 18.3344 2.75353C18.1396 2.92736 18.0288 3.16029 18.005 3.40114C18.0014 3.43804 17.9998 3.47512 18.0002 3.51221V10.9999C18.0002 11.5522 18.4479 11.9999 19.0002 11.9999C19.5525 11.9999 20.0002 11.5522 20.0002 10.9999V6.12291L25.5824 12.3802V20.2246C23.3658 20.8877 21.7502 22.9427 21.7502 25.375C21.7502 28.3435 24.1567 30.75 27.1253 30.75C30.0938 30.75 32.5003 28.3435 32.5003 25.375C32.5003 22.5604 30.337 20.2511 27.5824 20.0191Z" fill="#111827"/>
</svg>
