<svg width="33" height="32" viewBox="0 0 33 32" fill="none" xmlns="http://www.w3.org/2000/svg">
<path fill-rule="evenodd" clip-rule="evenodd" d="M26.503 1.99976C24.4194 1.99976 22.7303 3.68887 22.7303 5.77249C22.7303 7.85611 24.4194 9.54522 26.503 9.54522C28.5866 9.54522 30.2758 7.85611 30.2758 5.77249C30.2758 3.68887 28.5866 1.99976 26.503 1.99976ZM20.7303 5.77249C20.7303 2.5843 23.3148 -0.000244141 26.503 -0.000244141C29.6912 -0.000244141 32.2758 2.5843 32.2758 5.77249C32.2758 8.61975 30.2144 10.9856 27.5027 11.459V15.7574C27.5027 16.3097 27.055 16.7574 26.5027 16.7574H17.4997L17.4994 20.5411C20.2109 21.0147 22.2719 23.3804 22.2719 26.2275C22.2719 29.4157 19.6874 32.0002 16.4992 32.0002C13.311 32.0002 10.7265 29.4157 10.7265 26.2275C10.7265 23.3803 12.7877 21.0145 15.4994 20.541L15.4997 16.7574H6.49672C5.94444 16.7574 5.49672 16.3097 5.49672 15.7574V11.4591C2.78534 10.9854 0.724365 8.61973 0.724365 5.77272C0.724365 2.58453 3.30891 -1.46031e-05 6.4971 -1.46031e-05C9.68529 -1.46031e-05 12.2698 2.58453 12.2698 5.77272C12.2698 8.62 10.2085 10.9858 7.49672 11.4592V14.7574H25.5027V11.4589C22.7913 10.9852 20.7303 8.61952 20.7303 5.77249ZM16.4992 22.4548C14.4156 22.4548 12.7265 24.1439 12.7265 26.2275C12.7265 28.3111 14.4156 30.0002 16.4992 30.0002C18.5828 30.0002 20.2719 28.3111 20.2719 26.2275C20.2719 24.1439 18.5828 22.4548 16.4992 22.4548ZM2.72437 5.77272C2.72437 3.6891 4.41348 1.99999 6.4971 1.99999C8.58072 1.99999 10.2698 3.6891 10.2698 5.77272C10.2698 7.85634 8.58072 9.54545 6.4971 9.54545C4.41348 9.54545 2.72437 7.85634 2.72437 5.77272Z" fill="#111827"/>
</svg>
