<svg width="32" height="32" viewBox="0 0 32 32" fill="none" xmlns="http://www.w3.org/2000/svg">
<path d="M15.9998 28C18.1085 28 19.8179 26.2906 19.8179 24.1819C19.8179 22.0732 18.1085 20.3638 15.9998 20.3638C13.8911 20.3638 12.1816 22.0732 12.1816 24.1819C12.1816 26.2906 13.8911 28 15.9998 28Z" stroke="#1C1B1F" stroke-width="2" stroke-linecap="round" stroke-linejoin="round"/>
<path d="M24.0025 11.6363C26.1112 11.6363 27.8206 9.92684 27.8206 7.81814C27.8206 5.70944 26.1112 4 24.0025 4C21.8938 4 20.1843 5.70944 20.1843 7.81814C20.1843 9.92684 21.8938 11.6363 24.0025 11.6363Z" stroke="#1C1B1F" stroke-width="2" stroke-linecap="round" stroke-linejoin="round"/>
<path d="M7.99783 11.6363C10.1065 11.6363 11.816 9.92684 11.816 7.81814C11.816 5.70944 10.1065 4 7.99783 4C5.88913 4 4.17969 5.70944 4.17969 7.81814C4.17969 9.92684 5.88913 11.6363 7.99783 11.6363Z" stroke="#1C1B1F" stroke-width="2" stroke-linecap="round" stroke-linejoin="round"/>
<path d="M16.0001 16.0001L15.9998 20.3637" stroke="#1C1B1F" stroke-width="2" stroke-linecap="round" stroke-linejoin="round"/>
<path d="M24.0024 11.6454V15.806H7.9978V11.6454" stroke="#1C1B1F" stroke-width="2" stroke-linecap="round" stroke-linejoin="round"/>
</svg>
