<svg width="32" height="32" viewBox="0 0 32 32" fill="none" xmlns="http://www.w3.org/2000/svg">
<circle cx="16" cy="16.1936" r="13" stroke="#1C1B1F" stroke-width="1.5"/>
<path d="M12.6841 9.80324L12.2603 10.422C12.435 10.5417 12.6521 10.5819 12.8581 10.5328L12.6841 9.80324ZM9.23779 8.54227L9.14077 7.79857C8.87956 7.83264 8.65538 8.00126 8.55019 8.24277L9.23779 8.54227ZM9.08688 11.8753L9.66058 12.3584C9.84394 12.1407 9.88822 11.8379 9.77489 11.5767L9.08688 11.8753ZM7.73542 15.7854L8.48542 15.7855L7.73542 15.7854ZM12.0056 21.6372L12.2189 20.9182C12.2084 20.9151 12.1979 20.9122 12.1874 20.9096L12.0056 21.6372ZM13.7886 22.0226L14.3022 22.5692C14.5121 22.3719 14.5905 22.072 14.5039 21.7973C14.4174 21.5226 14.1813 21.3217 13.8963 21.2804L13.7886 22.0226ZM12.8818 23.5327L13.0995 24.2504C13.3471 24.1753 13.5385 23.9779 13.6059 23.7281L12.8818 23.5327ZM12.7887 23.5609L12.571 22.8432C12.5544 22.8483 12.5379 22.8539 12.5216 22.8601L12.7887 23.5609ZM9.12853 22.5537L9.77979 22.1817L9.7794 22.1811L9.12853 22.5537ZM9.11907 22.5372L9.76994 22.1645L9.76904 22.163L9.11907 22.5372ZM8.56777 21.8363L9.12224 21.3313C9.11806 21.3267 9.11382 21.3222 9.10953 21.3177L8.56777 21.8363ZM6.64815 21.1877L6.4575 20.4623C6.39356 20.4791 6.33211 20.5043 6.27477 20.5372L6.64815 21.1877ZM7.11099 21.9859L7.50595 21.3484H7.50595L7.11099 21.9859ZM8.60721 24.1436L7.90553 24.4085C7.92266 24.4539 7.94416 24.4975 7.96971 24.5387L8.60721 24.1436ZM12.7705 25.346H13.5205C13.5205 25.1095 13.409 24.8869 13.2195 24.7453C13.0301 24.6037 12.7849 24.5598 12.5581 24.6268L12.7705 25.346ZM12.8372 28.8041L12.1027 28.9557C12.1625 29.2455 12.3871 29.4731 12.6761 29.5366L12.8372 28.8041ZM19.163 28.7988L19.3283 29.5304C19.6159 29.4654 19.8387 29.238 19.8978 28.9492L19.163 28.7988ZM18.2167 22.0284L18.1111 21.2859C17.826 21.3264 17.5893 21.5267 17.502 21.8011C17.4147 22.0756 17.4923 22.3758 17.7016 22.5736L18.2167 22.0284ZM21.1239 21.2461L21.4231 21.9338C21.4304 21.9307 21.4376 21.9274 21.4448 21.924L21.1239 21.2461ZM22.9874 11.8149L22.2868 11.5472C22.1909 11.7982 22.2366 12.0813 22.4066 12.2894L22.9874 11.8149ZM22.7861 8.55481L23.4664 8.2391C23.3592 8.00815 23.1422 7.84735 22.8901 7.81206L22.7861 8.55481ZM19.3671 9.79529L19.1998 10.5264C19.3996 10.5721 19.6093 10.5341 19.7803 10.4212L19.3671 9.79529ZM21.1239 21.2461L20.8247 20.5584C20.8174 20.5615 20.8102 20.5648 20.803 20.5682L21.1239 21.2461ZM12.8581 10.5328C13.7775 10.3135 14.8555 10.1953 16.0725 10.1953V8.69529C14.7622 8.69529 13.5645 8.8222 12.5101 9.0737L12.8581 10.5328ZM9.33482 9.28596C9.71237 9.23671 10.2627 9.37452 10.8731 9.64487C11.4563 9.9032 11.9813 10.2309 12.2603 10.422L13.1079 9.18449C12.7804 8.9601 12.1733 8.58023 11.4806 8.27338C10.8149 7.97855 9.9454 7.6936 9.14077 7.79857L9.33482 9.28596ZM9.77489 11.5767C9.58686 11.1435 9.55151 10.6104 9.61217 10.0768C9.67238 9.54706 9.81952 9.08485 9.9254 8.84176L8.55019 8.24277C8.38715 8.61709 8.19947 9.22375 8.12176 9.90737C8.04451 10.5871 8.06815 11.4118 8.39888 12.1739L9.77489 11.5767ZM8.48542 15.7855C8.48553 14.3191 8.9395 13.2147 9.66058 12.3584L8.51319 11.3922C7.55776 12.5268 6.98556 13.9759 6.98542 15.7854L8.48542 15.7855ZM12.1874 20.9096C10.0769 20.3822 8.4852 18.4943 8.48542 15.7855L6.98542 15.7854C6.98515 19.1396 9.00451 21.6604 11.8238 22.3648L12.1874 20.9096ZM13.8963 21.2804C13.2936 21.193 12.7306 21.0699 12.2189 20.9182L11.7923 22.3562C12.3786 22.5301 13.0127 22.668 13.6809 22.7649L13.8963 21.2804ZM13.6059 23.7281C13.7269 23.2795 13.9715 22.88 14.3022 22.5692L13.275 21.4761C12.7464 21.9729 12.3529 22.6136 12.1577 23.3373L13.6059 23.7281ZM13.0065 24.2786L13.0995 24.2504L12.664 22.815L12.571 22.8432L13.0065 24.2786ZM8.47727 22.9257C8.57876 23.1034 8.94204 23.7459 9.69887 24.1843C10.4938 24.6448 11.6041 24.815 13.0558 24.2617L12.5216 22.8601C11.4398 23.2723 10.8084 23.0935 10.4507 22.8864C10.055 22.6571 9.85495 22.3133 9.77979 22.1817L8.47727 22.9257ZM8.4682 22.9098L8.47766 22.9264L9.7794 22.1811L9.76994 22.1645L8.4682 22.9098ZM8.01329 22.3413C8.07172 22.4055 8.17014 22.5179 8.26623 22.6363C8.3699 22.7642 8.44131 22.8631 8.4691 22.9114L9.76904 22.163C9.60279 21.8742 9.25011 21.4717 9.12224 21.3313L8.01329 22.3413ZM6.83881 21.913C6.97429 21.8774 7.54401 21.8515 8.026 22.355L9.10953 21.3177C8.18025 20.347 7.01373 20.3161 6.4575 20.4623L6.83881 21.913ZM7.50595 21.3484C7.30799 21.2257 7.21225 21.146 7.17315 21.1071C7.12399 21.0583 7.20717 21.1179 7.23534 21.2805C7.2512 21.3721 7.24506 21.4739 7.21084 21.573C7.17827 21.6673 7.12932 21.7334 7.09296 21.7731C7.03456 21.837 6.97513 21.8648 7.02153 21.8381L6.27477 20.5372C6.25512 20.5485 6.10929 20.6261 5.98625 20.7606C5.83485 20.9261 5.69859 21.1973 5.75734 21.5365C5.8065 21.8203 5.97454 22.0308 6.11623 22.1715C6.26798 22.3222 6.46907 22.4705 6.71603 22.6235L7.50595 21.3484ZM9.30889 23.8788C9.19232 23.57 8.97524 23.0961 8.68698 22.633C8.4096 22.1874 8.01165 21.6616 7.50595 21.3484L6.71603 22.6235C6.92221 22.7512 7.17131 23.0366 7.41354 23.4257C7.64489 23.7974 7.81997 24.1818 7.90553 24.4085L9.30889 23.8788ZM12.5581 24.6268C12.1579 24.7449 11.4879 24.8393 10.8282 24.7303C10.1819 24.6235 9.60897 24.3363 9.2447 23.7485L7.96971 24.5387C8.62592 25.5975 9.64712 26.0555 10.5836 26.2103C11.5067 26.3628 12.4081 26.2351 12.983 26.0653L12.5581 24.6268ZM13.5205 28.1483V25.346H12.0205V28.1483H13.5205ZM13.5717 28.6526C13.5382 28.4904 13.5205 28.3218 13.5205 28.1483H12.0205C12.0205 28.4242 12.0487 28.6943 12.1027 28.9557L13.5717 28.6526ZM18.9978 28.0673C16.0897 28.7243 14.3064 28.3593 12.9983 28.0716L12.6761 29.5366C14.0901 29.8476 16.1181 30.2557 19.3283 29.5304L18.9978 28.0673ZM18.4786 28.1483C18.4786 28.3204 18.4612 28.4876 18.4283 28.6485L19.8978 28.9492C19.9509 28.6898 19.9786 28.4219 19.9786 28.1483H18.4786ZM18.4786 24.376V28.1483H19.9786V24.376H18.4786ZM17.7016 22.5736C18.181 23.0265 18.4786 23.6659 18.4786 24.376H19.9786C19.9786 23.2364 19.4986 22.2077 18.7318 21.4833L17.7016 22.5736ZM20.8247 20.5584C20.0807 20.882 19.1568 21.1373 18.1111 21.2859L18.3223 22.771C19.4765 22.6069 20.5345 22.3204 21.4231 21.9338L20.8247 20.5584ZM23.6283 15.7854C23.6283 17.9407 22.4349 19.7958 20.803 20.5682L21.4448 21.924C23.6435 20.8832 25.1283 18.4715 25.1283 15.7854H23.6283ZM22.4066 12.2894C23.1636 13.2161 23.6283 14.4381 23.6283 15.7854H25.1283C25.1283 14.0905 24.543 12.5337 23.5682 11.3404L22.4066 12.2894ZM22.1058 8.87053C22.2083 9.09141 22.3552 9.52313 22.421 10.0344C22.487 10.5462 22.4646 11.0818 22.2868 11.5472L23.688 12.0826C23.9827 11.3112 23.9943 10.5067 23.9087 9.84266C23.8231 9.17802 23.633 8.5981 23.4664 8.2391L22.1058 8.87053ZM19.7803 10.4212C20.0996 10.2104 20.6176 9.88574 21.1846 9.63477C21.7754 9.37325 22.3042 9.24467 22.6821 9.29757L22.8901 7.81206C22.084 7.69923 21.2345 7.97229 20.5774 8.26314C19.8965 8.56455 19.297 8.94295 18.954 9.16934L19.7803 10.4212ZM16.0725 10.1953C17.2075 10.1953 18.2728 10.3143 19.1998 10.5264L19.5344 9.06418C18.487 8.82452 17.3087 8.69529 16.0725 8.69529V10.1953ZM21.4231 21.9338C21.4472 21.9233 21.4713 21.9127 21.4952 21.9021L20.8844 20.5321C20.8646 20.5409 20.8447 20.5496 20.8247 20.5584L21.4231 21.9338ZM20.803 20.5682C20.6244 20.6527 20.4405 20.7244 20.2522 20.7824L20.6935 22.216C20.9517 22.1365 21.2026 22.0386 21.4448 21.924L20.803 20.5682Z" fill="#1C1B1F"/>
</svg>
