<svg width="33" height="32" viewBox="0 0 33 32" fill="none" xmlns="http://www.w3.org/2000/svg">
<path fill-rule="evenodd" clip-rule="evenodd" d="M16.5 2.00024C8.76814 2.00024 2.50024 8.26814 2.50024 16C2.50024 22.0732 6.36744 27.2432 11.7737 29.1818V26.7457C10.5337 26.8606 8.86732 26.6209 7.96992 25.173C7.73671 24.5551 7.06494 23.1922 6.24355 22.6834C5.21682 22.0473 5.5571 21.8498 5.70952 21.7623C6.10857 21.6574 7.11023 21.6602 7.92442 22.5107C8.07891 22.6803 8.42241 23.0795 8.56052 23.3194L8.57144 23.3385C8.7508 23.6525 9.62129 25.1766 11.8199 24.7785C11.8878 24.2953 12.0289 23.8348 12.2318 23.4093C12.0261 23.3584 11.8244 23.3038 11.6273 23.2456C8.32196 22.4095 5.9638 19.4485 5.96411 15.5288C5.96426 13.6446 6.49487 12.0893 7.40254 10.8297C7.20613 10.0996 7.20503 9.35953 7.27644 8.73146C7.36769 7.92896 7.58785 7.21612 7.78108 6.77248L8.00716 6.25344L8.56853 6.18021C9.53512 6.05411 10.5669 6.39598 11.3398 6.73829C11.9337 7.00133 12.4731 7.30996 12.8692 7.55913C13.9904 7.32902 15.237 7.2135 16.5836 7.2135C17.8578 7.2135 19.0801 7.3317 20.1914 7.55337C20.5927 7.30244 21.1331 6.98962 21.7275 6.72651C22.4916 6.3883 23.5005 6.06029 24.469 6.19585L25.0082 6.27132L25.2374 6.76524C25.4354 7.19187 25.6586 7.87435 25.7592 8.65505C25.8396 9.27878 25.8478 10.0128 25.6684 10.7512C26.6123 12.0855 27.1671 13.7423 27.1671 15.5289C27.1671 18.6758 25.4278 21.5085 22.8399 22.7334L22.8256 22.7402L22.811 22.7465C22.1932 23.0153 21.5075 23.2418 20.7727 23.4212C21.063 24.0344 21.2252 24.7198 21.2252 25.4411V29.1822C26.632 27.2439 30.4997 22.0736 30.4997 16C30.4997 8.26814 24.2318 2.00024 16.5 2.00024ZM0.500244 16C0.500244 7.16357 7.66357 0.000244141 16.5 0.000244141C25.3364 0.000244141 32.4997 7.16357 32.4997 16C32.4997 24.8364 25.3364 31.9997 16.5 31.9997C7.66357 31.9997 0.500244 24.8364 0.500244 16ZM9.26364 8.95741C9.29504 8.68127 9.34742 8.4216 9.40624 8.19565C9.73174 8.25683 10.1144 8.38296 10.5299 8.56697C11.1929 8.86061 11.7913 9.234 12.1089 9.45155L12.4747 9.7021L12.906 9.59923C13.9547 9.34911 15.1879 9.2135 16.5836 9.2135C17.8844 9.2135 19.1035 9.34989 20.1624 9.59223L20.5794 9.68765L20.9364 9.45203C21.3028 9.2102 21.8931 8.84039 22.537 8.55536C22.9426 8.37584 23.3141 8.2553 23.6324 8.19964C23.6899 8.40872 23.7421 8.65036 23.7756 8.91062C23.85 9.48753 23.8232 10.0814 23.6284 10.591L23.4216 11.132L23.788 11.5806C24.6419 12.6259 25.1671 14.0057 25.1671 15.5289C25.1671 17.9618 23.8231 20.0479 21.9983 20.919C21.3909 21.1819 20.675 21.4063 19.8737 21.5746C19.2575 21.704 18.8774 22.163 18.7178 22.6021C18.5601 23.0361 18.5643 23.5795 18.8445 24.0506C19.0861 24.4569 19.2252 24.9312 19.2252 25.4411V29.623C16.8197 30.0624 15.0923 29.8498 13.7737 29.5888V25.4411C13.7737 24.9286 13.9142 24.452 14.1581 24.0443C14.4395 23.5739 14.4453 23.0307 14.2888 22.5963C14.1305 22.1568 13.7518 21.6968 13.1362 21.5655C12.8007 21.4939 12.4799 21.4124 12.1755 21.3221L12.1546 21.3159L12.1335 21.3107C9.76197 20.7181 7.96387 18.5966 7.96411 15.529C7.96424 13.8677 8.47748 12.6244 9.2885 11.6613L9.68753 11.1875L9.44099 10.6192C9.23693 10.1488 9.19513 9.55998 9.26364 8.95741Z" fill="#111827"/>
</svg>
