<svg width="33" height="32" viewBox="0 0 33 32" fill="none" xmlns="http://www.w3.org/2000/svg">
<circle cx="16.5" cy="16" r="14.9997" stroke="#111827" stroke-width="2"/>
<path d="M7.92442 22.5107C7.11023 21.6602 6.10857 21.6574 5.70952 21.7623C5.5571 21.8498 5.21682 22.0473 6.24355 22.6834C7.06494 23.1922 7.73671 24.5551 7.96992 25.173C9.15476 27.0847 11.6801 26.8903 12.7947 26.5541L13.3126 24.2553L12.7947 24.5006C9.81441 25.6364 8.73316 23.6192 8.56052 23.3194C8.42241 23.0795 8.07891 22.6803 7.92442 22.5107Z" fill="#111827"/>
<path d="M8.69789 7.17181C8.38764 7.88412 7.92531 9.63805 8.5236 11.0172C7.55632 12.1658 6.96426 13.6389 6.96411 15.5289C6.96383 19.0268 9.04707 21.5702 11.8911 22.2808C12.2217 22.3789 12.5679 22.4668 12.9276 22.5435C13.3371 22.6309 13.515 23.1715 13.3 23.5308C12.9658 24.0894 12.7737 24.7428 12.7737 25.4411V29.7936C12.7737 30.0529 12.7425 30.1587 12.7929 30.403C14.3633 30.7484 16.6508 31.2456 20.1805 30.4481C20.2301 30.2056 20.2252 30.0507 20.2252 29.7936V25.4411C20.2252 24.7464 20.0351 24.0962 19.704 23.5395C19.49 23.1796 19.6695 22.6393 20.0793 22.5532C20.9433 22.3717 21.7305 22.1261 22.4121 21.8296C24.622 20.7835 26.1671 18.3219 26.1671 15.5289C26.1671 13.774 25.5615 12.171 24.5625 10.948C25.108 9.52086 24.6409 7.8553 24.3303 7.18619C22.9642 6.99498 21.1498 8.11297 20.3855 8.61743C19.2463 8.35673 17.9518 8.2135 16.5836 8.2135C15.1256 8.2135 13.8127 8.35491 12.674 8.62652C11.9739 8.14702 10.0617 6.99389 8.69789 7.17181Z" stroke="#111827" stroke-width="2"/>
</svg>
