<svg width="33" height="32" viewBox="0 0 33 32" fill="none" xmlns="http://www.w3.org/2000/svg">
<path fill-rule="evenodd" clip-rule="evenodd" d="M2.50024 16C2.50024 8.26814 8.76814 2.00024 16.5 2.00024C24.2318 2.00024 30.4997 8.26814 30.4997 16C30.4997 22.0736 26.632 27.2439 21.2252 29.1822V25.441C21.2252 24.7185 21.0627 24.0336 20.7727 23.4211C21.1836 23.3208 21.5788 23.2058 21.955 23.0772L21.955 23.0773C22.2541 22.9852 22.5447 22.8722 22.8253 22.7402L22.8952 22.7094L22.8943 22.7073C25.4521 21.4686 27.167 18.6537 27.167 15.5288C27.167 13.7421 26.6122 12.0852 25.6683 10.7509C25.8476 10.0126 25.8394 9.27859 25.759 8.65489C25.6584 7.87422 25.4352 7.19176 25.2372 6.76514C25.0943 6.45721 24.805 6.24281 24.4688 6.19575C23.5003 6.06019 22.4914 6.3882 21.7273 6.72641C21.1329 6.98952 20.5925 7.30234 20.1912 7.55327C19.0799 7.33162 17.8577 7.21344 16.5836 7.21344C15.2369 7.21344 13.9903 7.32896 12.8691 7.55908C12.473 7.30992 11.9336 7.00128 11.3397 6.73823C10.5668 6.3959 9.53496 6.05401 8.56834 6.18011C8.22006 6.22554 7.92115 6.45037 7.78089 6.77238C7.58765 7.21603 7.36748 7.92891 7.27624 8.73145C7.20484 9.35954 7.20594 10.0996 7.4024 10.8297C6.49479 12.0893 5.96423 13.6447 5.96408 15.5288C5.96376 19.4484 8.32195 22.4095 11.6273 23.2456C11.8244 23.3037 12.026 23.3583 12.2318 23.4093C12.1898 23.4974 12.1504 23.5871 12.1137 23.6782C11.0989 23.9906 10.5031 23.802 10.1644 23.6057C9.74017 23.36 9.52397 22.9901 9.43962 22.8424L9.43911 22.8415L9.42819 22.8225L9.42698 22.8204C9.2268 22.4727 8.81001 21.9981 8.66355 21.8373L8.65819 21.8314L8.6466 21.8191C7.53423 20.6572 6.13471 20.6165 5.45514 20.7951C5.36989 20.8175 5.28797 20.8511 5.21152 20.8949L5.20637 20.8978C5.16975 20.9183 4.99541 21.0156 4.8463 21.1786C4.65024 21.3929 4.47241 21.7463 4.54886 22.1877C4.61251 22.5552 4.82895 22.8224 5.00074 22.9929C5.18594 23.1768 5.42743 23.3542 5.71677 23.5334C5.92778 23.6641 6.20185 23.9718 6.47818 24.4157C6.74 24.8363 6.93825 25.2719 7.03418 25.526C7.05703 25.5866 7.08569 25.6447 7.11977 25.6997C7.90316 26.9637 9.12177 27.5074 10.2285 27.6903C10.7644 27.7788 11.2935 27.7873 11.7737 27.7493V29.1819C6.36745 27.2432 2.50024 22.0732 2.50024 16ZM16.5 0.000244141C7.66357 0.000244141 0.500244 7.16357 0.500244 16C0.500244 24.8364 7.66357 31.9997 16.5 31.9997C25.3364 31.9997 32.4997 24.8364 32.4997 16C32.4997 7.16357 25.3364 0.000244141 16.5 0.000244141ZM9.26344 8.95737C9.29484 8.68121 9.34722 8.42152 9.40605 8.19555C9.73156 8.25673 10.1143 8.38287 10.5298 8.5669C11.1928 8.86056 11.7912 9.23397 12.1088 9.45149C12.3417 9.61105 12.6313 9.66469 12.9059 9.59918C13.9546 9.34905 15.1878 9.21344 16.5836 9.21344C17.8843 9.21344 19.1033 9.34982 20.1623 9.59213C20.4286 9.65307 20.7082 9.60241 20.9362 9.45192C21.3026 9.2101 21.8929 8.84028 22.5368 8.55526C22.9424 8.37574 23.3139 8.2552 23.6322 8.19954C23.6897 8.40861 23.7419 8.65023 23.7754 8.91048C23.8498 9.48737 23.823 10.0812 23.6283 10.5908C23.5004 10.9254 23.5613 11.3029 23.7879 11.5804C24.6418 12.6257 25.167 14.0055 25.167 15.5288C25.167 17.9617 23.8231 20.0478 21.9983 20.919C21.1553 21.2837 20.1066 21.573 18.9168 21.7422C18.5366 21.7962 18.2209 22.0632 18.1045 22.4292C17.9882 22.7951 18.0916 23.1954 18.3708 23.4591C18.8982 23.9573 19.2252 24.6602 19.2252 25.441V29.7144C16.7769 30.173 15.0787 29.978 13.7737 29.7227V26.5602C13.7737 26.2448 13.6249 25.948 13.3723 25.7592C13.2031 25.6327 13.0006 25.5647 12.7944 25.5604C12.9003 25.5262 13.0078 25.4887 13.1169 25.4477L13.1924 25.4248C13.5225 25.3247 13.7777 25.0615 13.8675 24.7284C14.0005 24.2355 14.2694 23.7962 14.6333 23.4542C14.9131 23.1913 15.0176 22.7913 14.9023 22.4251C14.7869 22.0588 14.472 21.791 14.092 21.7359C13.4026 21.6359 12.7592 21.4952 12.1755 21.3221C12.1616 21.3179 12.1476 21.3141 12.1335 21.3106C9.76193 20.718 7.96383 18.5965 7.96408 15.5289C7.96421 13.8677 8.47741 12.6244 9.28839 11.6613C9.53285 11.371 9.59191 10.9673 9.44084 10.6192C9.23675 10.1488 9.19493 9.55996 9.26344 8.95737ZM6.39855 21.5614C6.39876 21.5614 6.40129 21.5641 6.40552 21.5693C6.40045 21.564 6.39834 21.5614 6.39855 21.5614Z" fill="#111827"/>
</svg>
