<svg width="32" height="32" viewBox="0 0 32 32" fill="none" xmlns="http://www.w3.org/2000/svg">
<path d="M19.1614 28.8065L18.427 28.6544C18.3747 28.907 18.4558 29.1688 18.6419 29.3475C18.828 29.5262 19.0929 29.5967 19.3432 29.5342L19.1614 28.8065ZM12.8376 28.8063L12.6557 29.5339C12.906 29.5964 13.1709 29.526 13.357 29.3473C13.5431 29.1686 13.6243 28.9068 13.572 28.6542L12.8376 28.8063ZM12.7705 25.346H13.5205C13.5205 25.1095 13.4089 24.8868 13.2195 24.7452C13.03 24.6036 12.7849 24.5597 12.558 24.6267L12.7705 25.346ZM8.60714 24.1436L7.90546 24.4084C7.92259 24.4538 7.94409 24.4975 7.96965 24.5387L8.60714 24.1436ZM7.11093 21.9859L7.50589 21.3483H7.50589L7.11093 21.9859ZM6.64809 21.1876L6.45743 20.4623C6.39349 20.4791 6.33205 20.5043 6.27471 20.5372L6.64809 21.1876ZM8.5677 21.8363L9.12217 21.3312C9.11799 21.3266 9.11376 21.3221 9.10946 21.3176L8.5677 21.8363ZM9.119 22.5371L9.76989 22.1645L9.76897 22.1629L9.119 22.5371ZM9.12847 22.5537L9.77973 22.1817L9.77935 22.181L9.12847 22.5537ZM12.7887 23.5609L12.5709 22.8432C12.5543 22.8482 12.5378 22.8538 12.5216 22.86L12.7887 23.5609ZM12.8817 23.5326L13.0994 24.2503C13.347 24.1752 13.5384 23.9778 13.6058 23.728L12.8817 23.5326ZM13.7885 22.0226L14.3022 22.5691C14.512 22.3719 14.5904 22.0719 14.5039 21.7972C14.4173 21.5226 14.1812 21.3217 13.8962 21.2804L13.7885 22.0226ZM12.0055 21.6372L12.2188 20.9181C12.2084 20.915 12.1979 20.9122 12.1873 20.9095L12.0055 21.6372ZM7.73535 15.7854L8.48535 15.7854L7.73535 15.7854ZM9.08682 11.8753L9.66051 12.3584C9.84387 12.1406 9.88815 11.8378 9.77482 11.5767L9.08682 11.8753ZM9.23773 8.54222L9.14071 7.79852C8.8795 7.8326 8.65531 8.00121 8.55012 8.24272L9.23773 8.54222ZM12.684 9.80319L12.2602 10.4219C12.4349 10.5416 12.6521 10.5819 12.858 10.5327L12.684 9.80319ZM19.3671 9.79524L19.1998 10.5263C19.3995 10.572 19.6092 10.534 19.7802 10.4212L19.3671 9.79524ZM22.786 8.55477L23.4663 8.23905C23.3592 8.0081 23.1421 7.8473 22.89 7.81201L22.786 8.55477ZM22.9873 11.8149L22.2867 11.5472C22.1908 11.7981 22.2365 12.0813 22.4065 12.2894L22.9873 11.8149ZM21.1238 21.246L21.423 21.9338C21.4303 21.9306 21.4375 21.9273 21.4447 21.9239L21.1238 21.246ZM18.2166 22.0284L18.1111 21.2859C17.8259 21.3264 17.5892 21.5266 17.5019 21.8011C17.4146 22.0756 17.4922 22.3758 17.7016 22.5736L18.2166 22.0284ZM21.1238 21.246L20.8246 20.5583C20.8173 20.5615 20.8101 20.5647 20.803 20.5681L21.1238 21.246ZM28.25 16.1936C28.25 21.9306 24.3055 26.7482 18.9796 28.0789L19.3432 29.5342C25.3211 28.0406 29.75 22.6353 29.75 16.1936H28.25ZM16 3.9436C22.7655 3.9436 28.25 9.42812 28.25 16.1936H29.75C29.75 8.59969 23.5939 2.4436 16 2.4436V3.9436ZM3.75 16.1936C3.75 9.42812 9.23451 3.9436 16 3.9436V2.4436C8.40608 2.4436 2.25 8.59969 2.25 16.1936H3.75ZM13.0194 28.0786C7.694 26.7477 3.75 21.9303 3.75 16.1936H2.25C2.25 22.6349 6.6784 28.04 12.6557 29.5339L13.0194 28.0786ZM13.572 28.6542C13.5383 28.4915 13.5205 28.3223 13.5205 28.1482H12.0205C12.0205 28.4251 12.0489 28.6961 12.1031 28.9583L13.572 28.6542ZM13.5205 28.1482V25.346H12.0205V28.1482H13.5205ZM12.558 24.6267C12.1579 24.7449 11.4879 24.8393 10.8281 24.7303C10.1819 24.6235 9.6089 24.3362 9.24463 23.7485L7.96965 24.5387C8.62586 25.5975 9.64705 26.0554 10.5836 26.2102C11.5066 26.3627 12.4081 26.2351 12.9829 26.0653L12.558 24.6267ZM9.30882 23.8787C9.19225 23.5699 8.97517 23.096 8.68691 22.633C8.40953 22.1874 8.01159 21.6616 7.50589 21.3483L6.71597 22.6235C6.92215 22.7512 7.17125 23.0365 7.41348 23.4257C7.64482 23.7973 7.81991 24.1818 7.90546 24.4084L9.30882 23.8787ZM7.50589 21.3483C7.30792 21.2257 7.21218 21.1459 7.17308 21.1071C7.12393 21.0583 7.20711 21.1179 7.23527 21.2805C7.25114 21.3721 7.24499 21.4739 7.21078 21.573C7.17821 21.6673 7.12926 21.7333 7.0929 21.7731C7.0345 21.8369 6.97507 21.8647 7.02147 21.8381L6.27471 20.5372C6.25506 20.5485 6.10923 20.6261 5.98618 20.7606C5.83479 20.9261 5.69853 21.1973 5.75728 21.5365C5.80643 21.8203 5.97448 22.0308 6.11617 22.1715C6.26791 22.3222 6.46901 22.4705 6.71597 22.6235L7.50589 21.3483ZM6.83874 21.913C6.97422 21.8774 7.54394 21.8514 8.02594 22.3549L9.10946 21.3176C8.18018 20.3469 7.01367 20.3161 6.45743 20.4623L6.83874 21.913ZM8.01323 22.3413C8.07166 22.4054 8.17008 22.5178 8.26617 22.6363C8.36983 22.7641 8.44125 22.8631 8.46904 22.9114L9.76897 22.1629C9.60272 21.8742 9.25005 21.4716 9.12217 21.3312L8.01323 22.3413ZM8.46812 22.9098L8.47758 22.9263L9.77935 22.181L9.76989 22.1645L8.46812 22.9098ZM8.47721 22.9256C8.57869 23.1033 8.94197 23.7459 9.69881 24.1843C10.4937 24.6448 11.6041 24.8149 13.0557 24.2617L12.5216 22.86C11.4398 23.2723 10.8083 23.0935 10.4507 22.8863C10.055 22.6571 9.85488 22.3133 9.77973 22.1817L8.47721 22.9256ZM13.0064 24.2786L13.0994 24.2503L12.664 22.8149L12.5709 22.8432L13.0064 24.2786ZM13.6058 23.728C13.7269 23.2794 13.9714 22.88 14.3022 22.5691L13.2749 21.4761C12.7464 21.9728 12.3529 22.6136 12.1576 23.3373L13.6058 23.728ZM13.8962 21.2804C13.2936 21.193 12.7305 21.0699 12.2188 20.9181L11.7922 22.3562C12.3786 22.5301 13.0126 22.6679 13.6809 22.7648L13.8962 21.2804ZM12.1873 20.9095C10.0768 20.3822 8.48513 18.4943 8.48535 15.7854L6.98535 15.7853C6.98508 19.1396 9.00444 21.6604 11.8237 22.3648L12.1873 20.9095ZM8.48535 15.7854C8.48547 14.319 8.93944 13.2147 9.66051 12.3584L8.51313 11.3922C7.55769 12.5268 6.98549 13.9758 6.98535 15.7853L8.48535 15.7854ZM9.77482 11.5767C9.5868 11.1434 9.55144 10.6104 9.6121 10.0767C9.67231 9.54701 9.81946 9.0848 9.92534 8.84171L8.55012 8.24272C8.38708 8.61704 8.1994 9.2237 8.1217 9.90732C8.04444 10.587 8.06809 11.4118 8.39882 12.1738L9.77482 11.5767ZM9.33475 9.28592C9.71231 9.23666 10.2627 9.37447 10.873 9.64482C11.4563 9.90315 11.9813 10.2309 12.2602 10.4219L13.1079 9.18444C12.7803 8.96005 12.1733 8.58018 11.4805 8.27333C10.8149 7.9785 9.94534 7.69355 9.14071 7.79852L9.33475 9.28592ZM12.858 10.5327C13.7774 10.3134 14.8555 10.1952 16.0724 10.1952V8.69524C14.7621 8.69524 13.5645 8.82215 12.51 9.07365L12.858 10.5327ZM16.0724 10.1952C17.2075 10.1952 18.2727 10.3142 19.1998 10.5263L19.5343 9.06413C18.4869 8.82448 17.3086 8.69524 16.0724 8.69524V10.1952ZM19.7802 10.4212C20.0996 10.2104 20.6175 9.88569 21.1845 9.63473C21.7753 9.3732 22.3041 9.24462 22.6821 9.29753L22.89 7.81201C22.0839 7.69918 21.2344 7.97224 20.5773 8.26309C19.8964 8.5645 19.2969 8.9429 18.9539 9.16929L19.7802 10.4212ZM22.1057 8.87048C22.2082 9.09136 22.3551 9.52308 22.421 10.0343C22.4869 10.5461 22.4646 11.0817 22.2867 11.5472L23.6879 12.0826C23.9827 11.3112 23.9942 10.5067 23.9087 9.84261C23.823 9.17797 23.6329 8.59805 23.4663 8.23905L22.1057 8.87048ZM22.4065 12.2894C23.1635 13.2161 23.6282 14.438 23.6282 15.7853H25.1282C25.1282 14.0904 24.5429 12.5336 23.5681 11.3404L22.4065 12.2894ZM23.6282 15.7853C23.6282 17.9406 22.4348 19.7957 20.803 20.5681L21.4447 21.9239C23.6435 20.8832 25.1282 18.4715 25.1282 15.7853H23.6282ZM20.8246 20.5583C20.0807 20.882 19.1568 21.1372 18.1111 21.2859L18.3222 22.7709C19.4765 22.6068 20.5344 22.3204 21.423 21.9338L20.8246 20.5583ZM17.7016 22.5736C18.181 23.0265 18.4785 23.6659 18.4785 24.376H19.9785C19.9785 23.2364 19.4985 22.2077 18.7317 21.4832L17.7016 22.5736ZM18.4785 24.376V28.1482H19.9785V24.376H18.4785ZM18.4785 28.1482C18.4785 28.3224 18.4607 28.4916 18.427 28.6544L19.8958 28.9586C19.9501 28.6964 19.9785 28.4252 19.9785 28.1482H18.4785ZM21.4231 21.9338C21.4472 21.9233 21.4712 21.9127 21.4951 21.902L20.8843 20.532C20.8646 20.5408 20.8447 20.5496 20.8246 20.5583L21.4231 21.9338ZM20.803 20.5681C20.6243 20.6527 20.4404 20.7244 20.2521 20.7823L20.6934 22.216C20.9517 22.1365 21.2025 22.0386 21.4447 21.9239L20.803 20.5681Z" fill="#1C1B1F"/>
</svg>
