<svg width="33" height="32" viewBox="0 0 33 32" fill="none" xmlns="http://www.w3.org/2000/svg">
<path fill-rule="evenodd" clip-rule="evenodd" d="M5.70938 1.76124C6.12236 1.71982 6.51799 1.9378 6.70361 2.30903L11.0547 11.011H22.3844L26.113 2.36043C26.2807 1.97131 26.6754 1.73013 27.0982 1.75849C27.521 1.78685 27.88 2.07858 27.9943 2.48662L32.462 18.443C32.5754 18.8478 32.4235 19.2802 32.082 19.5252L17.4021 30.0564C17.1204 30.2585 16.7594 30.2974 16.4468 30.172C16.0641 30.1687 15.7044 29.9443 15.542 29.5793L0.934511 19.5367C0.584916 19.2963 0.425025 18.8616 0.53561 18.452L4.84376 2.49559C4.95195 2.09489 5.29641 1.80267 5.70938 1.76124ZM16.5501 26.531L21.5088 13.011H11.5818L16.5501 26.531ZM8.80486 10.9834L6.08978 5.55342L4.6237 10.9834H8.80486ZM4.0837 12.9834H9.44092L14.3454 26.3296L2.65103 18.2897L4.0837 12.9834ZM30.3474 18.3082L18.6073 26.7304L23.6491 12.9834H28.8564L30.3474 18.3082ZM26.8306 5.74827L28.2964 10.9834H24.5741L26.8306 5.74827Z" fill="#111827"/>
</svg>
