<svg width="33" height="32" viewBox="0 0 33 32" fill="none" xmlns="http://www.w3.org/2000/svg">
<g clip-path="url(#clip0_707_134)">
<path fill-rule="evenodd" clip-rule="evenodd" d="M6.67521 18.2618L10.3764 20.3963V15.2198L26.3236 6.00924L32.4575 9.55595L32.4984 9.57918L32.4999 9.58185L32.5 10.3307L32.4988 10.3313V22.4786L17.2028 31.3131L17.2029 31.3146L16.5561 31.6892L16.5516 31.6892L16.5478 31.6893L16.276 31.5302L0.5 22.4264V9.52115L16.4537 0.310547L22.6289 3.87468L6.67521 13.0853V18.2618ZM15.8912 29.8008L1.80554 21.6725V10.2749L16.4538 1.81799L20.0175 3.87484L5.36967 12.3315V19.0159L11.682 22.6563V15.9735L26.3233 7.5171L30.5316 9.95044L15.8451 18.3273L15.8912 29.8008ZM17.1968 29.8089L31.1933 21.725V11.076L17.1537 19.0839L17.1968 29.8089Z" fill="#111827"/>
</g>
<defs>
<clipPath id="clip0_707_134">
<rect width="32" height="32" fill="white" transform="translate(0.5)"/>
</clipPath>
</defs>
</svg>
