<svg width="33" height="32" viewBox="0 0 33 32" fill="none" xmlns="http://www.w3.org/2000/svg">
<path fill-rule="evenodd" clip-rule="evenodd" d="M2.50098 5.77349C2.50098 3.69005 4.18993 2.0011 6.27336 2.0011C8.3568 2.0011 10.0458 3.69005 10.0458 5.77349C10.0458 7.85692 8.3568 9.54587 6.27336 9.54587C4.18993 9.54587 2.50098 7.85692 2.50098 5.77349ZM6.27336 0.00109863C3.08536 0.00109863 0.500977 2.58548 0.500977 5.77349C0.500977 8.61609 2.5557 10.9788 5.26096 11.4574V20.5426C2.5557 21.0211 0.500977 23.3839 0.500977 26.2265C0.500977 29.4145 3.08536 31.9988 6.27336 31.9988C9.46137 31.9988 12.0458 29.4145 12.0458 26.2265C12.0458 23.3752 9.97845 21.0067 7.26096 20.5382V13.1803L9.60336 15.794C11.6899 18.1222 14.6686 19.4526 17.795 19.4526H21.127C21.7552 21.9605 24.0241 23.8179 26.7267 23.8179C29.9147 23.8179 32.4991 21.2335 32.4991 18.0455C32.4991 14.8575 29.9147 12.2731 26.7267 12.2731C23.7389 12.2731 21.2812 14.5431 20.9844 17.4526H17.795C15.2371 17.4526 12.7999 16.3641 11.0928 14.4592L8.18986 11.2201C10.4358 10.4298 12.0458 8.28967 12.0458 5.77349C12.0458 2.58548 9.46137 0.00109863 6.27336 0.00109863ZM6.13227 22.4567C6.1744 22.4621 6.21736 22.4649 6.26096 22.4649C6.30634 22.4649 6.35102 22.4618 6.3948 22.456C8.42203 22.5201 10.0458 24.1837 10.0458 26.2265C10.0458 28.3099 8.3568 29.9988 6.27336 29.9988C4.18993 29.9988 2.50098 28.3099 2.50098 26.2265C2.50098 24.1903 4.11421 22.5309 6.13227 22.4567ZM26.7267 14.2731C24.6433 14.2731 22.9543 15.9621 22.9543 18.0455C22.9543 20.1289 24.6433 21.8179 26.7267 21.8179C28.8101 21.8179 30.4991 20.1289 30.4991 18.0455C30.4991 15.9621 28.8101 14.2731 26.7267 14.2731Z" fill="#111827"/>
</svg>
