<svg width="32" height="32" viewBox="0 0 32 32" fill="none" xmlns="http://www.w3.org/2000/svg">
<path d="M7.81814 27.9998C9.92684 27.9998 11.6363 26.2904 11.6363 24.1817C11.6363 22.073 9.92684 20.3635 7.81814 20.3635C5.70944 20.3635 4 22.073 4 24.1817C4 26.2904 5.70944 27.9998 7.81814 27.9998Z" stroke="#1C1B1F" stroke-width="2" stroke-linecap="round" stroke-linejoin="round"/>
<path d="M7.81814 11.6364C9.92684 11.6364 11.6363 9.92696 11.6363 7.81826C11.6363 5.70956 9.92684 4.00012 7.81814 4.00012C5.70944 4.00012 4 5.70956 4 7.81826C4 9.92696 5.70944 11.6364 7.81814 11.6364Z" stroke="#1C1B1F" stroke-width="2" stroke-linecap="round" stroke-linejoin="round"/>
<path d="M24.1819 21.4545C26.2906 21.4545 28 19.7451 28 17.6364C28 15.5277 26.2906 13.8182 24.1819 13.8182C22.0732 13.8182 20.3638 15.5277 20.3638 17.6364C20.3638 19.7451 22.0732 21.4545 24.1819 21.4545Z" stroke="#1C1B1F" stroke-width="2" stroke-linecap="round" stroke-linejoin="round"/>
<path d="M20.3455 17.9621H17.9289C15.0868 17.9621 12.3789 16.7527 10.482 14.6361L7.80811 11.6526V20.3721" stroke="#1C1B1F" stroke-width="2" stroke-linecap="round" stroke-linejoin="round"/>
</svg>
