<svg width="33" height="33" viewBox="0 0 33 33" fill="none" xmlns="http://www.w3.org/2000/svg">
<path fill-rule="evenodd" clip-rule="evenodd" d="M3.49878 16.2499C3.49878 9.06958 9.31958 3.24878 16.4999 3.24878C23.6802 3.24878 29.501 9.06958 29.501 16.2499C29.501 23.4302 23.6802 29.251 16.4999 29.251C9.31958 29.251 3.49878 23.4302 3.49878 16.2499ZM16.4999 0.248779C7.66272 0.248779 0.498779 7.41272 0.498779 16.2499C0.498779 25.0871 7.66272 32.251 16.4999 32.251C25.3371 32.251 32.501 25.0871 32.501 16.2499C32.501 7.41272 25.3371 0.248779 16.4999 0.248779ZM16.5 12.6246C18.5021 12.6246 20.1252 14.2477 20.1252 16.2498C20.1252 18.252 18.5021 19.8751 16.5 19.8751C14.4978 19.8751 12.8747 18.252 12.8747 16.2498C12.8747 14.2477 14.4978 12.6246 16.5 12.6246Z" fill="#111827"/>
</svg>
