<svg width="32" height="32" viewBox="0 0 32 32" fill="none" xmlns="http://www.w3.org/2000/svg">
<path d="M7.81813 27.9999C9.92682 27.9999 11.6363 26.2905 11.6363 24.1818C11.6363 22.0731 9.92682 20.3636 7.81813 20.3636C5.70943 20.3636 4 22.0731 4 24.1818C4 26.2905 5.70943 27.9999 7.81813 27.9999Z" stroke="#1C1B1F" stroke-width="2" stroke-linecap="round" stroke-linejoin="round"/>
<path d="M7.81813 11.6365C9.92682 11.6365 11.6363 9.92707 11.6363 7.81837C11.6363 5.70968 9.92682 4.00024 7.81813 4.00024C5.70943 4.00024 4 5.70968 4 7.81837C4 9.92707 5.70943 11.6365 7.81813 11.6365Z" stroke="#1C1B1F" stroke-width="2" stroke-linecap="round" stroke-linejoin="round"/>
<path d="M7.81812 11.6365V20.3636" stroke="#1C1B1F" stroke-width="2" stroke-linecap="round" stroke-linejoin="round"/>
<path d="M24.1819 27.9999C26.2906 27.9999 28 26.2905 28 24.1818C28 22.0731 26.2906 20.3636 24.1819 20.3636C22.0732 20.3636 20.3638 22.0731 20.3638 24.1818C20.3638 26.2905 22.0732 27.9999 24.1819 27.9999Z" stroke="#1C1B1F" stroke-width="2" stroke-linecap="round" stroke-linejoin="round"/>
<path d="M23.6362 5.09119H17.0908V11.6366" stroke="#1C1B1F" stroke-width="2" stroke-linecap="round" stroke-linejoin="round"/>
<path d="M23.708 20.3641V12.5084L17.0909 5.09111" stroke="#1C1B1F" stroke-width="2" stroke-linecap="round" stroke-linejoin="round"/>
</svg>
