<svg width="33" height="32" viewBox="0 0 33 32" fill="none" xmlns="http://www.w3.org/2000/svg">
<path fill-rule="evenodd" clip-rule="evenodd" d="M6.27316 2.00085C4.18971 2.00085 2.50073 3.68983 2.50073 5.77328C2.50073 7.8553 4.18738 9.54339 6.26886 9.54571L6.27316 9.5457L6.27746 9.54571C8.35894 9.54339 10.0456 7.85531 10.0456 5.77328C10.0456 3.68983 8.35662 2.00085 6.27316 2.00085ZM7.27316 11.4594C9.98456 10.9859 12.0456 8.62026 12.0456 5.77328C12.0456 2.58526 9.46119 0.000854492 6.27316 0.000854492C3.08514 0.000854492 0.500732 2.58526 0.500732 5.77328C0.500732 8.62026 2.56176 10.9859 5.27316 11.4594V20.5405C2.56176 21.0141 0.500732 23.3797 0.500732 26.2266C0.500732 29.4147 3.08514 31.9991 6.27316 31.9991C9.46119 31.9991 12.0456 29.4147 12.0456 26.2266C12.0456 23.3797 9.98456 21.0141 7.27316 20.5405V11.4594ZM6.27316 22.4542C4.18971 22.4542 2.50073 24.1432 2.50073 26.2266C2.50073 28.3101 4.18971 29.9991 6.27316 29.9991C8.35662 29.9991 10.0456 28.3101 10.0456 26.2266C10.0456 24.1432 8.35662 22.4542 6.27316 22.4542ZM26.7269 22.4542C24.6434 22.4542 22.9545 24.1432 22.9545 26.2266C22.9545 28.3101 24.6434 29.9991 26.7269 29.9991C28.8103 29.9991 30.4993 28.3101 30.4993 26.2266C30.4993 24.1432 28.8103 22.4542 26.7269 22.4542ZM27.1346 20.4684V11.6356C27.1346 11.3901 27.0443 11.1531 26.8808 10.9699L20.0958 3.36434H26.0449C26.5972 3.36434 27.0449 2.91662 27.0449 2.36434C27.0449 1.81205 26.5972 1.36434 26.0449 1.36434H17.8636C17.5808 1.36434 17.3253 1.48178 17.1434 1.67055C17.0663 1.75049 17.0049 1.84055 16.9595 1.9366C16.9022 2.05743 16.8684 2.19156 16.8641 2.33311C16.8637 2.34575 16.8635 2.35841 16.8636 2.37106V10.5456C16.8636 11.0979 17.3113 11.5456 17.8636 11.5456C18.4159 11.5456 18.8636 11.0979 18.8636 10.5456V4.98752L25.1346 12.0169V20.6766C22.721 21.3678 20.9545 23.5909 20.9545 26.2266C20.9545 29.4147 23.5389 31.9991 26.7269 31.9991C29.9149 31.9991 32.4993 29.4147 32.4993 26.2266C32.4993 23.1757 30.1324 20.6776 27.1346 20.4684Z" fill="#111827"/>
</svg>
