<svg width="33" height="32" viewBox="0 0 33 32" fill="none" xmlns="http://www.w3.org/2000/svg">
<path fill-rule="evenodd" clip-rule="evenodd" d="M6.27316 2.00103C4.1897 2.00103 2.50073 3.69001 2.50073 5.77346C2.50073 7.85341 4.18401 9.5402 6.26263 9.54588L6.27316 9.54582L6.28369 9.54588C8.3623 9.5402 10.0456 7.85341 10.0456 5.77346C10.0456 3.69001 8.35661 2.00103 6.27316 2.00103ZM7.27316 11.4596C9.98456 10.986 12.0456 8.62044 12.0456 5.77346C12.0456 2.58544 9.46118 0.00103378 6.27316 0.00103378C3.08513 0.00103378 0.500729 2.58544 0.500729 5.77346C0.500729 8.62044 2.56176 10.986 5.27316 11.4596V20.5406C2.56176 21.0142 0.500732 23.3798 0.500732 26.2268C0.500732 29.4148 3.08514 31.9992 6.27316 31.9992C9.46119 31.9992 12.0456 29.4148 12.0456 26.2268C12.0456 23.3798 9.98456 21.0142 7.27316 20.5406V11.4596ZM6.27316 22.4543C4.18971 22.4543 2.50073 24.1433 2.50073 26.2268C2.50073 28.3102 4.18971 29.9992 6.27316 29.9992C8.35662 29.9992 10.0456 28.3102 10.0456 26.2268C10.0456 24.1433 8.35662 22.4543 6.27316 22.4543ZM26.7269 22.4543C24.6434 22.4543 22.9545 24.1433 22.9545 26.2268C22.9545 28.3102 24.6434 29.9992 26.7269 29.9992C28.8103 29.9992 30.4993 28.3102 30.4993 26.2268C30.4993 24.1433 28.8103 22.4543 26.7269 22.4543ZM27.1346 20.4685V11.6358C27.1346 11.3903 27.0443 11.1533 26.8808 10.9701L20.0958 3.36456H26.0448C26.5971 3.36456 27.0448 2.91684 27.0448 2.36456C27.0448 1.81227 26.5971 1.36456 26.0448 1.36456H17.7191C17.1669 1.36456 16.7191 1.81227 16.7191 2.36456V10.6902C16.7191 11.2425 17.1669 11.6902 17.7191 11.6902C18.2714 11.6902 18.7191 11.2425 18.7191 10.6902V4.82576L25.1346 12.017V20.6768C22.721 21.3679 20.9545 23.5911 20.9545 26.2268C20.9545 29.4148 23.5389 31.9992 26.7269 31.9992C29.9149 31.9992 32.4993 29.4148 32.4993 26.2268C32.4993 23.1758 30.1324 20.6777 27.1346 20.4685Z" fill="#111827"/>
</svg>
