<svg width="33" height="33" viewBox="0 0 33 33" fill="none" xmlns="http://www.w3.org/2000/svg">
<path fill-rule="evenodd" clip-rule="evenodd" d="M31.2063 1.95955C31.5969 1.56902 31.5969 0.935859 31.2063 0.545335C30.8158 0.15481 30.1827 0.15481 29.7921 0.545335L26.7318 3.60567L23.6715 0.545335C23.2809 0.15481 22.6478 0.15481 22.2572 0.545335C21.8667 0.935859 21.8667 1.56902 22.2572 1.95955L25.3176 5.01988L22.2572 8.08021C21.8667 8.47074 21.8667 9.1039 22.2572 9.49443C22.6478 9.88495 23.2809 9.88495 23.6715 9.49443L26.7318 6.4341L29.7921 9.49443C30.1827 9.88495 30.8158 9.88495 31.2063 9.49443C31.5969 9.1039 31.5969 8.47074 31.2063 8.08021L28.146 5.01988L31.2063 1.95955Z" fill="#111827"/>
<path fill-rule="evenodd" clip-rule="evenodd" d="M6.27316 2.25098C4.18971 2.25098 2.50073 3.93995 2.50073 6.02341C2.50073 8.10686 4.18971 9.79583 6.27316 9.79583C8.35662 9.79583 10.0456 8.10686 10.0456 6.02341C10.0456 3.93995 8.35662 2.25098 6.27316 2.25098ZM0.500732 6.02341C0.500732 2.83538 3.08514 0.250977 6.27316 0.250977C9.46119 0.250977 12.0456 2.83538 12.0456 6.02341C12.0456 8.87037 9.98458 11.236 7.27319 11.7095V20.7907C9.98458 21.2642 12.0456 23.6298 12.0456 26.4768C12.0456 29.6648 9.46119 32.2492 6.27316 32.2492C3.08514 32.2492 0.500732 29.6648 0.500732 26.4768C0.500732 23.6298 2.56178 21.2642 5.27319 20.7906V11.7095C2.56178 11.236 0.500732 8.87039 0.500732 6.02341ZM6.27316 22.7043C4.18971 22.7043 2.50073 24.3933 2.50073 26.4768C2.50073 28.5602 4.18971 30.2492 6.27316 30.2492C8.35662 30.2492 10.0456 28.5602 10.0456 26.4768C10.0456 24.3933 8.35662 22.7043 6.27316 22.7043ZM26.7268 9.7959C27.2791 9.7959 27.7268 10.2436 27.7268 10.7959V20.7907C30.4382 21.2642 32.4992 23.6298 32.4992 26.4768C32.4992 29.6648 29.9148 32.2492 26.7268 32.2492C23.5387 32.2492 20.9543 29.6648 20.9543 26.4768C20.9543 23.6298 23.0154 21.2642 25.7268 20.7906V10.7959C25.7268 10.2436 26.1745 9.7959 26.7268 9.7959ZM22.9543 26.4768C22.9543 24.3933 24.6433 22.7043 26.7268 22.7043C28.8102 22.7043 30.4992 24.3933 30.4992 26.4768C30.4992 28.5602 28.8102 30.2492 26.7268 30.2492C24.6433 30.2492 22.9543 28.5602 22.9543 26.4768ZM31.2063 0.545335C31.5969 0.935859 31.5969 1.56902 31.2063 1.95955L28.146 5.01988L31.2063 8.08021C31.5969 8.47074 31.5969 9.1039 31.2063 9.49443C30.8158 9.88495 30.1827 9.88495 29.7921 9.49443L26.7318 6.4341L23.6715 9.49443C23.2809 9.88495 22.6478 9.88495 22.2572 9.49443C21.8667 9.1039 21.8667 8.47074 22.2572 8.08021L25.3176 5.01988L22.2572 1.95955C21.8667 1.56902 21.8667 0.935859 22.2572 0.545335C22.6478 0.15481 23.2809 0.15481 23.6715 0.545335L26.7318 3.60567L29.7921 0.545335C30.1827 0.15481 30.8158 0.15481 31.2063 0.545335Z" fill="#111827"/>
</svg>
