<svg width="33" height="32" viewBox="0 0 33 32" fill="none" xmlns="http://www.w3.org/2000/svg">
<path fill-rule="evenodd" clip-rule="evenodd" d="M12.7697 2.50335C7.15829 4.05084 2.9593 9.00414 2.53611 14.9999H9.26447C9.36982 11.2582 10.0629 7.85133 11.1616 5.28511C11.6174 4.22055 12.1546 3.27373 12.7697 2.50335ZM2.5361 16.9999C2.95927 22.9958 7.15827 27.9491 12.7698 29.4966C12.1546 28.7262 11.6174 27.7794 11.1616 26.7148C10.0629 24.1486 9.36982 20.7417 9.26447 16.9999H2.5361ZM20.2304 29.4966C25.8418 27.949 30.0408 22.9957 30.4639 16.9999H23.7356C23.6303 20.7417 22.9372 24.1486 21.8385 26.7148C21.3827 27.7794 20.8456 28.7262 20.2304 29.4966ZM32.4991 15.9904C32.4939 7.15873 25.3329 0.00087738 16.5 0.00087738C7.66397 0.00087738 0.500938 7.16391 0.500938 16C0.500938 24.836 7.66397 31.999 16.5 31.999C25.3329 31.999 32.494 24.8412 32.4991 16.0095C32.4991 16.0063 32.4991 16.0031 32.4991 15.9999C32.4991 15.9967 32.4991 15.9936 32.4991 15.9904ZM30.4639 14.9999H23.7356C23.6303 11.2582 22.9372 7.85133 21.8385 5.28511C21.3827 4.22056 20.8456 3.27375 20.2304 2.50338C25.8418 4.0509 30.0407 9.00417 30.4639 14.9999ZM19.9999 6.07231C20.9746 8.34878 21.6297 11.4776 21.7348 14.9999H11.2653C11.3704 11.4776 12.0255 8.34878 13.0002 6.07231C13.534 4.82564 14.1439 3.8807 14.7702 3.26198C15.3922 2.64748 15.9757 2.40351 16.5001 2.40351C17.0244 2.40351 17.6079 2.64748 18.2299 3.26198C18.8562 3.8807 19.4661 4.82564 19.9999 6.07231ZM13.0002 25.9276C12.0255 23.6511 11.3704 20.5223 11.2653 16.9999H21.7348C21.6297 20.5223 20.9746 23.6511 19.9999 25.9276C19.4661 27.1743 18.8562 28.1192 18.2299 28.7379C17.6079 29.3524 17.0244 29.5964 16.5001 29.5964C15.9757 29.5964 15.3922 29.3524 14.7702 28.7379C14.1439 28.1192 13.534 27.1743 13.0002 25.9276Z" fill="#111827"/>
</svg>
