<svg width="33" height="32" viewBox="0 0 33 32" fill="none" xmlns="http://www.w3.org/2000/svg">
<path fill-rule="evenodd" clip-rule="evenodd" d="M6.59475 6.10749C9.12859 3.57043 12.631 2.00092 16.4999 2.00092C17.6226 2.00092 18.7144 2.13307 19.7606 2.38267C19.7783 2.43693 19.8008 2.49042 19.8284 2.54257L20.8571 4.48574L15.0557 9.61255H10.2339C9.79904 9.61255 9.41402 9.8936 9.28148 10.3078L8.31223 13.3368L7.64818 13.1787L6.13881 9.11L6.59475 6.10749ZM22.993 4.24585L22.5239 3.35969C27.2404 5.61143 30.499 10.4252 30.499 16C30.499 17.7925 30.1621 19.5063 29.5482 21.0816L21.5999 16.4988C21.4772 16.4281 21.3408 16.3842 21.1999 16.3701L16.5429 15.9044C16.1143 15.8615 15.7065 16.0979 15.5306 16.4911L15.3786 16.8309H13.9107L12.6483 14.6849C12.5103 14.4503 12.2827 14.2821 12.018 14.2191L10.2635 13.8014L10.9639 11.6126H15.4342C15.6781 11.6126 15.9136 11.5234 16.0964 11.3619L22.7714 5.46304C23.1175 5.15718 23.2091 4.65407 22.993 4.24585ZM14.4838 18.8309H13.3387C12.9843 18.8309 12.6564 18.6433 12.4768 18.3379L11.1404 16.0661L6.66492 15.0005C6.33999 14.9231 6.07514 14.6886 5.95897 14.3755L4.17377 9.56325C4.15769 9.5199 4.14468 9.47562 4.13479 9.43074C3.09186 11.3897 2.50085 13.6258 2.50085 16C2.50085 23.5643 8.50033 29.7273 16.0005 29.9903L16.3258 27.6587L13.0158 23.4132C12.7883 23.1213 12.7405 22.7277 12.8916 22.3899L14.4838 18.8309ZM18.0302 29.9164C22.606 29.4189 26.5198 26.7164 28.6869 22.8936L20.7871 18.3388L17.0617 17.9662L14.9629 22.6577L18.1634 26.7628C18.3297 26.9762 18.4025 27.2479 18.3651 27.5159L18.0302 29.9164ZM16.4999 0.000915527C7.66389 0.000915527 0.500854 7.16395 0.500854 16C0.500854 24.8361 7.66389 31.9991 16.4999 31.9991C25.336 31.9991 32.499 24.8361 32.499 16C32.499 7.16395 25.336 0.000915527 16.4999 0.000915527Z" fill="#111827"/>
</svg>
