<svg width="33" height="32" viewBox="0 0 33 32" fill="none" xmlns="http://www.w3.org/2000/svg">
<path fill-rule="evenodd" clip-rule="evenodd" d="M16.4999 2.00092C8.76846 2.00092 2.50085 8.26852 2.50085 16C2.50085 18.6586 3.24197 21.1441 4.52887 23.2612L5.56405 22.6935V16.6878C5.56405 16.4903 5.62249 16.2973 5.732 16.133L9.72146 10.149C10.0126 9.71225 10.5918 9.57494 11.048 9.8345L15.2041 12.1991L20.1585 11.5296L23.6699 7.27546V3.97393C21.5728 2.72094 19.1204 2.00092 16.4999 2.00092ZM16.4999 31.9991C11.1301 31.9991 6.37821 29.3536 3.47633 25.295C3.41182 25.23 3.35523 25.155 3.309 25.0707C3.29891 25.0523 3.28946 25.0337 3.28065 25.015C1.52662 22.4479 0.500854 19.3438 0.500854 16C0.500854 7.16395 7.66389 0.000915527 16.4999 0.000915527C25.336 0.000915527 32.499 7.16395 32.499 16C32.499 24.8361 25.336 31.9991 16.4999 31.9991ZM7.04489 24.1624L5.69562 24.9024C8.26324 28.015 12.1499 29.9991 16.4999 29.9991C19.4266 29.9991 22.1434 29.101 24.39 27.5654L23.3813 26.5567L18.9543 25.323C18.488 25.193 18.1817 24.7477 18.2272 24.2657L18.6108 20.1996C18.6465 19.8214 18.8935 19.496 19.2482 19.3599L25.846 16.8282C26.2147 16.6867 26.6321 16.7754 26.9114 17.0547L29.9048 20.0481C30.2913 18.7666 30.499 17.4076 30.499 16C30.499 11.7759 28.6282 7.98882 25.6699 5.42207V7.63485C25.6699 7.86717 25.589 8.09224 25.4411 8.27141L21.4517 13.1047C21.2915 13.2989 21.0639 13.4255 20.8144 13.4592L15.1372 14.2264C14.92 14.2557 14.6992 14.2129 14.5087 14.1045L10.8688 12.0336L7.56405 16.9905V23.2856C7.56405 23.6507 7.36504 23.9868 7.04489 24.1624ZM29.1117 22.0834L25.9563 18.928L20.5437 21.005L20.2969 23.6209L24.1712 24.7006C24.337 24.7468 24.4881 24.8351 24.6098 24.9568L25.9663 26.3133C27.2642 25.1214 28.3365 23.6876 29.1117 22.0834Z" fill="#111827"/>
</svg>
