<svg width="33" height="32" viewBox="0 0 33 32" fill="none" xmlns="http://www.w3.org/2000/svg">
<path fill-rule="evenodd" clip-rule="evenodd" d="M12.7696 2.5034C7.15818 4.05091 2.95921 9.0042 2.53602 15H9.26435C9.3697 11.2582 10.0627 7.85138 11.1615 5.28517C11.6173 4.2206 12.1544 3.27378 12.7696 2.5034ZM20.2302 2.5034C20.8454 3.27377 21.3826 4.2206 21.8384 5.28517C22.9371 7.85138 23.6302 11.2582 23.7355 15H30.4639C30.0407 9.0042 25.8417 4.05089 20.2302 2.5034ZM21.7347 15C21.6296 11.4776 20.9745 8.34884 19.9998 6.07237C19.466 4.8257 18.8561 3.88076 18.2298 3.26204C17.6077 2.64754 17.0243 2.40357 16.4999 2.40357C15.9755 2.40357 15.3921 2.64754 14.7701 3.26204C14.1438 3.88076 13.5338 4.8257 13.0001 6.07237C12.0254 8.34884 11.3703 11.4776 11.2652 15H21.7347ZM11.2652 17H21.7347C21.6296 20.5224 20.9745 23.6512 19.9998 25.9277C19.466 27.1743 18.8561 28.1193 18.2298 28.738C17.6077 29.3525 17.0243 29.5965 16.4999 29.5965C15.9755 29.5965 15.3921 29.3525 14.7701 28.738C14.1438 28.1193 13.5338 27.1743 13.0001 25.9277C12.0254 23.6512 11.3703 20.5224 11.2652 17ZM9.26435 17H2.53602C2.95919 22.9958 7.15816 27.9491 12.7696 29.4966C12.1544 28.7262 11.6173 27.7794 11.1615 26.7149C10.0627 24.1486 9.36969 20.7418 9.26435 17ZM20.2303 29.4966C20.8454 28.7262 21.3826 27.7794 21.8384 26.7149C22.9371 24.1486 23.6302 20.7418 23.7355 17H30.4639C30.0407 22.9958 25.8417 27.9491 20.2303 29.4966ZM16.4999 0.000915527C7.66389 0.000915527 0.500854 7.16395 0.500854 16C0.500854 24.8361 7.66389 31.9991 16.4999 31.9991C25.336 31.9991 32.499 24.8361 32.499 16C32.499 7.16395 25.336 0.000915527 16.4999 0.000915527Z" fill="#111827"/>
</svg>
