<svg width="33" height="32" viewBox="0 0 33 32" fill="none" xmlns="http://www.w3.org/2000/svg">
<path fill-rule="evenodd" clip-rule="evenodd" d="M8.95281 11.5125C8.95281 6.2594 13.2113 2.00092 18.4644 2.00092C23.7175 2.00092 27.976 6.2594 27.976 11.5125C27.976 16.7656 23.7175 21.0241 18.4644 21.0241C13.2113 21.0241 8.95281 16.7656 8.95281 11.5125ZM18.4644 0.000915527C12.1067 0.000915527 6.95281 5.15483 6.95281 11.5125C6.95281 17.8702 12.1067 23.0241 18.4644 23.0241C24.8221 23.0241 29.976 17.8702 29.976 11.5125C29.976 5.15483 24.8221 0.000915527 18.4644 0.000915527ZM13.5292 29.9991C12.9769 29.9991 12.5292 30.4468 12.5292 30.9991C12.5292 31.5514 12.9769 31.9991 13.5292 31.9991H22.8728C23.4251 31.9991 23.8728 31.5514 23.8728 30.9991C23.8728 30.4468 23.4251 29.9991 22.8728 29.9991H19.2011V27.3131C22.8602 27.1569 26.3473 25.7105 29.0428 23.2306C29.4493 22.8566 29.4756 22.224 29.1017 21.8176C28.7278 21.4111 28.0951 21.3848 27.6887 21.7587C25.1994 24.0489 21.935 25.3272 18.5387 25.3272C14.9544 25.3272 11.5168 23.9034 8.98232 21.3688C6.4478 18.8343 5.02393 15.3968 5.02393 11.8124C5.02393 8.41621 6.30226 5.15177 8.59245 2.66246C8.96638 2.25602 8.94002 1.6234 8.53358 1.24947C8.12714 0.87554 7.49452 0.901896 7.12059 1.30834C4.49144 4.16609 3.02393 7.91359 3.02393 11.8124C3.02393 15.9272 4.65852 19.8735 7.56811 22.7831C10.1607 25.3757 13.5765 26.956 17.2011 27.2695V29.9991H13.5292Z" fill="#111827"/>
</svg>
