<svg width="33" height="32" viewBox="0 0 33 32" fill="none" xmlns="http://www.w3.org/2000/svg">
<path fill-rule="evenodd" clip-rule="evenodd" d="M12.7696 2.5034C8.82305 3.59177 5.57515 6.36479 3.84807 10.0003H9.78314C10.1105 8.24254 10.579 6.64571 11.1615 5.28517C11.6173 4.2206 12.1544 3.27378 12.7696 2.5034ZM9.48072 12.0003H3.08056C2.70339 13.2676 2.50085 14.6102 2.50085 16C2.50085 17.3899 2.7034 18.7324 3.08057 19.9997H9.48072C9.33003 18.721 9.25031 17.3797 9.25031 16C9.25031 14.6204 9.33003 13.279 9.48072 12.0003ZM11.4955 19.9997C11.3365 18.7373 11.2503 17.3951 11.2503 16C11.2503 14.6049 11.3365 13.2627 11.4955 12.0003H21.5044C21.6633 13.2627 21.7495 14.6049 21.7495 16C21.7495 17.3951 21.6633 18.7373 21.5044 19.9997H11.4955ZM9.78314 21.9997H3.84809C5.57517 25.6352 8.82305 28.4082 12.7696 29.4966C12.1544 28.7262 11.6173 27.7794 11.1615 26.7149C10.579 25.3543 10.1105 23.7575 9.78314 21.9997ZM20.2303 29.4966C24.1768 28.4082 27.4247 25.6352 29.1518 21.9997H23.2167C22.8894 23.7575 22.4209 25.3543 21.8384 26.7149C21.3826 27.7794 20.8454 28.7262 20.2303 29.4966ZM21.1796 21.9997C20.8822 23.4792 20.4797 24.8067 19.9998 25.9277C19.466 27.1743 18.8561 28.1193 18.2298 28.738C17.6077 29.3525 17.0243 29.5965 16.4999 29.5965C15.9755 29.5965 15.3921 29.3525 14.7701 28.738C14.1438 28.1193 13.5338 27.1743 13.0001 25.9277C12.5201 24.8067 12.1177 23.4792 11.8202 21.9997H21.1796ZM23.5191 19.9997H29.9193C30.2965 18.7324 30.499 17.3899 30.499 16C30.499 14.6102 30.2965 13.2676 29.9193 12.0003H23.5191C23.6698 13.279 23.7495 14.6204 23.7495 16C23.7495 17.3797 23.6698 18.721 23.5191 19.9997ZM23.2167 10.0003H29.1518C27.4247 6.36478 24.1768 3.59176 20.2302 2.5034C20.8454 3.27377 21.3826 4.2206 21.8384 5.28517C22.4209 6.64571 22.8894 8.24254 23.2167 10.0003ZM21.1796 10.0003H11.8202C12.1177 8.52085 12.5201 7.19329 13.0001 6.07237C13.5338 4.8257 14.1438 3.88076 14.7701 3.26204C15.3921 2.64754 15.9755 2.40357 16.4999 2.40357C17.0243 2.40357 17.6077 2.64754 18.2298 3.26204C18.8561 3.88076 19.466 4.8257 19.9998 6.07237C20.4797 7.19329 20.8822 8.52085 21.1796 10.0003ZM16.4999 0.000915527C7.66389 0.000915527 0.500854 7.16395 0.500854 16C0.500854 24.8361 7.66389 31.9991 16.4999 31.9991C25.336 31.9991 32.499 24.8361 32.499 16C32.499 7.16395 25.336 0.000915527 16.4999 0.000915527Z" fill="#111827"/>
</svg>
