<svg width="32" height="32" viewBox="0 0 32 32" fill="none" xmlns="http://www.w3.org/2000/svg">
<path d="M17.5716 20.8196C22.2162 20.8196 25.9814 17.0544 25.9814 12.4098C25.9814 7.76519 22.2162 4 17.5716 4C12.9271 4 9.16187 7.76519 9.16187 12.4098C9.16187 17.0544 12.9271 20.8196 17.5716 20.8196Z" stroke="#1C1B1F" stroke-width="2" stroke-linecap="round" stroke-linejoin="round"/>
<path d="M13.6233 28H21.0986" stroke="#1C1B1F" stroke-width="2" stroke-linecap="round" stroke-linejoin="round"/>
<path d="M17.361 24.2623V28" stroke="#1C1B1F" stroke-width="2" stroke-linecap="round" stroke-linejoin="round"/>
<path d="M25.4932 21.1961C23.3543 23.1639 20.5493 24.2623 17.6311 24.2623C14.5513 24.2623 11.5976 23.0389 9.41979 20.8611C7.24202 18.6833 6.01855 15.7296 6.01855 12.6498C6.01855 9.73156 7.11696 6.92661 9.08482 4.78766" stroke="#1C1B1F" stroke-width="2" stroke-linecap="round" stroke-linejoin="round"/>
</svg>
