<svg width="32" height="32" viewBox="0 0 32 32" fill="none" xmlns="http://www.w3.org/2000/svg">
<path d="M16 28C22.6274 28 28 22.6274 28 16C28 9.37258 22.6274 4 16 4C9.37258 4 4 9.37258 4 16C4 22.6274 9.37258 28 16 28Z" stroke="#1C1B1F" stroke-width="2" stroke-linecap="round" stroke-linejoin="round"/>
<path d="M7.28557 7.95752L6.88855 10.572L8.3168 14.422L12.2289 15.3535L13.4708 17.4648H15.5821" stroke="#1C1B1F" stroke-width="2" stroke-linecap="round" stroke-linejoin="round"/>
<path d="M19.3701 4.85907L20.4878 6.9704L15.1474 11.6898H10.9869L9.99341 14.7946" stroke="#1C1B1F" stroke-width="2" stroke-linecap="round" stroke-linejoin="round"/>
<path d="M26.5734 21.0664L19.6806 17.0922L15.9548 16.7196L13.8435 21.439L16.6999 25.1027L16.3273 27.7729" stroke="#1C1B1F" stroke-width="2" stroke-linecap="round" stroke-linejoin="round"/>
</svg>
