<svg width="33" height="32" viewBox="0 0 33 32" fill="none" xmlns="http://www.w3.org/2000/svg">
<path fill-rule="evenodd" clip-rule="evenodd" d="M17.0765 0.000976562C16.8113 0.000976562 16.5569 0.106333 16.3694 0.29387C16.1819 0.481406 16.0765 0.73576 16.0765 1.00098V7.80005C15.1704 7.09613 14.1407 6.55511 13.0324 6.2089C11.0985 5.60479 9.0235 5.62448 7.10141 6.26518C5.17931 6.90588 3.50753 8.1351 2.32287 9.77873C1.13821 11.4224 0.500732 13.3971 0.500732 15.4231C0.500732 15.9754 0.948448 16.4231 1.50073 16.4231H8.30032C7.59633 17.3292 7.05525 18.3591 6.70902 19.4675C6.10492 21.4014 6.12461 23.4763 6.7653 25.3984C7.406 27.3205 8.63522 28.9923 10.2789 30.1769C11.9225 31.3616 13.8972 31.9991 15.9232 31.9991C16.4755 31.9991 16.9232 31.5514 16.9232 30.9991V24.2C17.8293 24.904 18.8591 25.445 19.9675 25.7912C21.9014 26.3953 23.9763 26.3756 25.8984 25.7349C27.8205 25.0942 29.4923 23.865 30.6769 22.2214C31.8616 20.5778 32.4991 18.6031 32.4991 16.577C32.4991 16.0247 32.0514 15.577 31.4991 15.577H24.6994C25.4034 14.6709 25.9445 13.641 26.2907 12.5326C26.8948 10.5987 26.8751 8.52374 26.2345 6.60165C25.5938 4.67956 24.3645 3.00778 22.7209 1.82312C21.0773 0.638457 19.1026 0.000976562 17.0765 0.000976562ZM22.2624 17.577C22.267 17.577 22.2716 17.577 22.2762 17.577H30.4335C30.2688 18.8264 29.7973 20.0213 29.0545 21.052C28.1152 22.3551 26.7898 23.3296 25.266 23.8376C23.7421 24.3455 22.097 24.3611 20.5638 23.8822C19.134 23.4356 17.869 22.5799 16.9232 21.4244V17.577H22.2624ZM21.9237 15.577C23.0793 14.6312 23.935 13.3662 24.3817 11.9363C24.8607 10.403 24.845 8.75797 24.3371 7.23411C23.8291 5.71024 22.8546 4.38482 21.5515 3.4456C20.5208 2.70272 19.3259 2.23124 18.0765 2.06658V10.2072C18.0769 10.2226 18.0769 10.2381 18.0765 10.2536V15.4025L18.0767 15.4231L18.0765 15.4437V15.577H21.9237ZM14.9232 16.5599V16.4231H11.076C9.92038 17.3689 9.06471 18.6339 8.61805 20.0638C8.1391 21.597 8.15471 23.2421 8.66267 24.766C9.17063 26.2898 10.1452 27.6152 11.4483 28.5545C12.479 29.2973 13.6739 29.7688 14.9232 29.9335V21.7899C14.923 21.7765 14.923 21.763 14.9232 21.7496V16.5941C14.9232 16.5884 14.9231 16.5827 14.9231 16.577C14.9231 16.5713 14.9232 16.5656 14.9232 16.5599ZM10.7178 14.4231C10.7263 14.423 10.7347 14.423 10.7431 14.4231H15.9167L15.9232 14.4231L15.9298 14.4231H16.0765V10.5757C15.1308 9.42015 13.8658 8.56456 12.436 8.11793C10.9028 7.63898 9.25773 7.65459 7.73386 8.16255C6.20999 8.6705 4.88458 9.64505 3.94536 10.9481C3.20248 11.9788 2.73099 13.1737 2.56634 14.4231H10.7178Z" fill="#111827"/>
</svg>
