<svg width="33" height="32" viewBox="0 0 33 32" fill="none" xmlns="http://www.w3.org/2000/svg">
<path fill-rule="evenodd" clip-rule="evenodd" d="M30.7695 16.0001C30.7695 15.6395 30.5754 15.3069 30.2615 15.1295L3.72249 0.130397C3.41289 -0.0445808 3.03366 -0.0419696 2.7265 0.137256C2.41934 0.316482 2.23047 0.645351 2.23047 1.00098V30.9991C2.23047 31.3548 2.41934 31.6836 2.7265 31.8629C3.03366 32.0421 3.41289 32.0447 3.72249 31.8697L30.2615 16.8706C30.5754 16.6932 30.7695 16.3606 30.7695 16.0001ZM4.23047 27.9415V4.01661L16.1929 15.979L4.23047 27.9415ZM7.6446 27.3558L20.3748 20.161L17.6071 17.3932L7.6446 27.3558ZM17.6071 14.5648L20.348 11.8239L7.74132 4.69904L17.6071 14.5648ZM22.1551 12.8453L27.7371 16.0001L22.1819 19.1397L19.0213 15.979L22.1551 12.8453Z" fill="#111827"/>
</svg>
