<svg width="33" height="32" viewBox="0 0 33 32" fill="none" xmlns="http://www.w3.org/2000/svg">
<path fill-rule="evenodd" clip-rule="evenodd" d="M16.4997 0.000854492C17.052 0.000854492 17.4997 0.44857 17.4997 1.00085V4.46219C17.4997 5.01448 17.052 5.46219 16.4997 5.46219C15.9475 5.46219 15.4997 5.01448 15.4997 4.46219V1.00085C15.4997 0.44857 15.9475 0.000854492 16.4997 0.000854492ZM23.4228 6.34663C23.9751 6.34663 24.4228 6.79435 24.4228 7.34663V10.808C24.4228 11.3603 23.9751 11.808 23.4228 11.808C22.8705 11.808 22.4228 11.3603 22.4228 10.808V7.34663C22.4228 6.79435 22.8705 6.34663 23.4228 6.34663ZM17.4997 27.5377C17.4997 26.9854 17.052 26.5377 16.4997 26.5377C15.9475 26.5377 15.4997 26.9854 15.4997 27.5377V30.9991C15.4997 31.5514 15.9475 31.9991 16.4997 31.9991C17.052 31.9991 17.4997 31.5514 17.4997 30.9991V27.5377ZM16.4997 8.07722C17.052 8.07722 17.4997 8.52494 17.4997 9.07722V22.9226C17.4997 23.4749 17.052 23.9226 16.4997 23.9226C15.9475 23.9226 15.4997 23.4749 15.4997 22.9226V9.07722C15.4997 8.52494 15.9475 8.07722 16.4997 8.07722ZM10.5774 7.34663C10.5774 6.79435 10.1297 6.34663 9.57739 6.34663C9.0251 6.34663 8.57739 6.79435 8.57739 7.34663V16.5769C8.57739 17.1292 9.0251 17.5769 9.57739 17.5769C10.1297 17.5769 10.5774 17.1292 10.5774 16.5769V7.34663ZM23.4228 14.423C23.9751 14.423 24.4228 14.8707 24.4228 15.423V24.6532C24.4228 25.2055 23.9751 25.6532 23.4228 25.6532C22.8705 25.6532 22.4228 25.2055 22.4228 24.6532V15.423C22.4228 14.8707 22.8705 14.423 23.4228 14.423ZM3.65454 14.2692C3.65454 13.7169 3.20683 13.2692 2.65454 13.2692C2.10226 13.2692 1.65454 13.7169 1.65454 14.2692V17.7306C1.65454 18.2829 2.10226 18.7306 2.65454 18.7306C3.20683 18.7306 3.65454 18.2829 3.65454 17.7306V14.2692ZM9.57739 20.192C10.1297 20.192 10.5774 20.6397 10.5774 21.192V24.6533C10.5774 25.2056 10.1297 25.6533 9.57739 25.6533C9.0251 25.6533 8.57739 25.2056 8.57739 24.6533V21.192C8.57739 20.6397 9.0251 20.192 9.57739 20.192ZM31.3452 14.2692C31.3452 13.7169 30.8975 13.2692 30.3452 13.2692C29.7929 13.2692 29.3452 13.7169 29.3452 14.2692V17.7306C29.3452 18.2829 29.7929 18.7306 30.3452 18.7306C30.8975 18.7306 31.3452 18.2829 31.3452 17.7306V14.2692Z" fill="#111827"/>
</svg>
