<svg width="32" height="32" viewBox="0 0 32 32" fill="none" xmlns="http://www.w3.org/2000/svg">
<path d="M16.4614 16.4615V4C17.9145 4 19.3307 4.45718 20.5094 5.30679C21.6882 6.15639 22.5697 7.35534 23.0292 8.73381C23.4887 10.1123 23.5028 11.6004 23.0696 12.9873C22.6363 14.3743 21.7777 15.5897 20.6153 16.4615" stroke="#1C1B1F" stroke-width="2" stroke-linecap="round" stroke-linejoin="round"/>
<path d="M16.4615 15.5384H4C4 14.0854 4.45718 12.6692 5.30679 11.4904C6.15639 10.3117 7.35534 9.43012 8.73381 8.97063C10.1123 8.51114 11.6004 8.49702 12.9873 8.93026C14.3743 9.36351 15.5897 10.2222 16.4615 11.3846" stroke="#1C1B1F" stroke-width="2" stroke-linecap="round" stroke-linejoin="round"/>
<path d="M15.5386 15.5385V28C14.0855 28 12.6693 27.5428 11.4906 26.6932C10.3118 25.8436 9.43024 24.6447 8.97075 23.2662C8.51126 21.8877 8.49714 20.3996 8.93038 19.0127C9.36363 17.6257 10.2223 16.4103 11.3847 15.5385" stroke="#1C1B1F" stroke-width="2" stroke-linecap="round" stroke-linejoin="round"/>
<path d="M15.5386 16.4615H28.0001C28.0001 17.9146 27.5429 19.3308 26.6933 20.5095C25.8437 21.6883 24.6448 22.5699 23.2663 23.0294C21.8878 23.4888 20.3997 23.503 19.0128 23.0697C17.6259 22.6365 16.4104 21.7778 15.5386 20.6154" stroke="#1C1B1F" stroke-width="2" stroke-linecap="round" stroke-linejoin="round"/>
</svg>
