<svg width="32" height="32" viewBox="0 0 32 32" fill="none" xmlns="http://www.w3.org/2000/svg">
<path fill-rule="evenodd" clip-rule="evenodd" d="M3.72589 12.0738C5.30951 6.82611 10.1802 3.00342 15.946 3.00342C21.6736 3.00342 26.5179 6.77565 28.1342 11.9695C30.476 13.6814 32 16.4516 32 19.578C32 24.7798 27.7831 28.9967 22.5813 28.9967C22.4342 28.9967 22.2878 28.9933 22.1422 28.9866H9.85657C9.71139 28.9933 9.56541 28.9966 9.41872 28.9966C4.21691 28.9966 0 24.7797 0 19.5779C0 16.5143 1.46355 13.7925 3.72589 12.0738ZM15.946 4.88577C10.9333 4.88577 6.71012 8.27643 5.44937 12.8911L5.36018 13.2175L5.08356 13.4124C3.14536 14.778 1.88235 17.0305 1.88235 19.5779C1.88235 23.7401 5.2565 27.1143 9.41872 27.1143C9.54296 27.1143 9.66643 27.1113 9.78905 27.1054L9.81174 27.1043H22.1871L22.2099 27.1054C22.3329 27.1113 22.4567 27.1144 22.5813 27.1144C26.7435 27.1144 30.1176 23.7402 30.1176 19.578C30.1176 16.9789 28.8028 14.6867 26.7977 13.3304L26.5125 13.1376L26.4191 12.8063C25.13 8.23488 20.9279 4.88577 15.946 4.88577ZM13.0786 10.897C14.529 11.5091 15.7931 12.4736 16.7641 13.6818L17.282 14.3264L12.1219 19.7047L11.5227 18.5183C11.1336 17.7478 10.3366 17.2228 9.41869 17.2228C8.118 17.2228 7.06359 18.2772 7.06359 19.5779C7.06359 20.815 8.01797 21.83 9.22996 21.9256L13.3482 21.9253L13.343 21.9129L14.7903 21.9191H22.4959C23.772 21.9191 24.8065 20.8847 24.8065 19.6085C24.8065 18.3324 23.772 17.2979 22.4959 17.2979H21.4343L21.5259 16.2729C21.6507 14.8779 21.2854 13.7067 20.8406 12.8752C19.8588 11.2093 18.0486 10.0949 15.9791 10.0949C14.9182 10.0949 13.9262 10.3874 13.0786 10.897ZM16.1795 23.8015L16.181 23.8051L9.16463 23.808L9.13334 23.8059C6.92565 23.6586 5.18124 21.8224 5.18124 19.5779C5.18124 17.2377 7.07841 15.3405 9.41869 15.3405C10.6142 15.3405 11.6931 15.8356 12.4628 16.6304L14.7477 14.2489C13.7267 13.2278 12.4152 12.4992 10.95 12.197L9.32033 11.8609L10.448 10.6374C11.821 9.14776 13.7915 8.21251 15.9791 8.21251C18.7501 8.21251 21.1699 9.71168 22.4735 11.9387L22.4819 11.953L22.4898 11.9677C22.9786 12.875 23.3948 14.0887 23.4306 15.5202C25.2964 15.9449 26.6889 17.6141 26.6889 19.6085C26.6889 21.9242 24.8116 23.8015 22.4959 23.8015H16.1795Z" fill="#111827"/>
</svg>
