<svg width="32" height="33" viewBox="0 0 32 33" fill="none" xmlns="http://www.w3.org/2000/svg">
<path fill-rule="evenodd" clip-rule="evenodd" d="M1.00073 5.87561C0.448448 5.87561 0.000732422 6.32333 0.000732422 6.87561C0.000732422 7.4279 0.448448 7.87561 1.00073 7.87561H30.9988C31.5511 7.87561 31.9988 7.4279 31.9988 6.87561C31.9988 6.32333 31.5511 5.87561 30.9988 5.87561H1.00073ZM1.00073 12.1252C0.448448 12.1252 0.000732422 12.5729 0.000732422 13.1252C0.000732422 13.6775 0.448448 14.1252 1.00073 14.1252H13.4999C14.0522 14.1252 14.4999 13.6775 14.4999 13.1252C14.4999 12.5729 14.0522 12.1252 13.4999 12.1252H1.00073ZM18.4996 12.1252C17.9473 12.1252 17.4996 12.5729 17.4996 13.1252C17.4996 13.6775 17.9473 14.1252 18.4996 14.1252H30.9988C31.5511 14.1252 31.9988 13.6775 31.9988 13.1252C31.9988 12.5729 31.5511 12.1252 30.9988 12.1252H18.4996ZM0.000732422 19.3748C0.000732422 18.8225 0.448448 18.3748 1.00073 18.3748H7.8753C8.42759 18.3748 8.8753 18.8225 8.8753 19.3748C8.8753 19.9271 8.42759 20.3748 7.8753 20.3748H1.00073C0.448448 20.3748 0.000732422 19.9271 0.000732422 19.3748ZM24.1244 18.3748C23.5721 18.3748 23.1244 18.8225 23.1244 19.3748C23.1244 19.9271 23.5721 20.3748 24.1244 20.3748H30.9989C31.5512 20.3748 31.9989 19.9271 31.9989 19.3748C31.9989 18.8225 31.5512 18.3748 30.9989 18.3748H24.1244ZM11.25 19.3748C11.25 18.8225 11.6977 18.3748 12.25 18.3748H19.7495C20.3018 18.3748 20.7495 18.8225 20.7495 19.3748C20.7495 19.9271 20.3018 20.3748 19.7495 20.3748H12.25C11.6977 20.3748 11.25 19.9271 11.25 19.3748ZM1.00073 24.6244C0.448448 24.6244 0.000732422 25.0721 0.000732422 25.6244C0.000732422 26.1767 0.448448 26.6244 1.00073 26.6244H4.7505C5.30278 26.6244 5.7505 26.1767 5.7505 25.6244C5.7505 25.0721 5.30278 24.6244 4.7505 24.6244H1.00073ZM8.75018 25.6244C8.75018 25.0721 9.19789 24.6244 9.75018 24.6244H13.4999C14.0522 24.6244 14.4999 25.0721 14.4999 25.6244C14.4999 26.1767 14.0522 26.6244 13.4999 26.6244H9.75018C9.19789 26.6244 8.75018 26.1767 8.75018 25.6244ZM18.4996 24.6244C17.9473 24.6244 17.4996 25.0721 17.4996 25.6244C17.4996 26.1767 17.9473 26.6244 18.4996 26.6244H22.2494C22.8017 26.6244 23.2494 26.1767 23.2494 25.6244C23.2494 25.0721 22.8017 24.6244 22.2494 24.6244H18.4996ZM26.2491 25.6244C26.2491 25.0721 26.6968 24.6244 27.2491 24.6244H30.9988C31.5511 24.6244 31.9988 25.0721 31.9988 25.6244C31.9988 26.1767 31.5511 26.6244 30.9988 26.6244H27.2491C26.6968 26.6244 26.2491 26.1767 26.2491 25.6244Z" fill="#111827"/>
</svg>
