<svg width="33" height="33" viewBox="0 0 33 33" fill="none" xmlns="http://www.w3.org/2000/svg">
<path d="M27.9993 14.186V20.6602C27.9997 20.8652 27.93 21.0647 27.8007 21.2287C26.9586 22.2932 23.4062 26.1874 16.5 26.1874C9.59384 26.1874 6.04144 22.2932 5.19941 21.2287C5.07005 21.0647 5.00032 20.8652 5.00073 20.6602V14.186" stroke="#111827" stroke-width="2" stroke-linecap="round" stroke-linejoin="round"/>
<path fill-rule="evenodd" clip-rule="evenodd" d="M16.9881 2.49623C16.6847 2.32645 16.3149 2.32645 16.0115 2.49623L1.01241 10.8893C0.700605 11.0638 0.505583 11.3914 0.500822 11.7487C0.49606 12.106 0.682284 12.4386 0.98933 12.6214L15.9884 21.5475C16.3036 21.735 16.6961 21.735 17.0112 21.5475L22.9453 18.016V29.6312C22.9453 30.1834 23.393 30.6312 23.9453 30.6312C24.4976 30.6312 24.9453 30.1834 24.9453 29.6312V16.8258L32.0103 12.6214C32.3174 12.4386 32.5036 12.106 32.4988 11.7487C32.4941 11.3914 32.299 11.0638 31.9872 10.8893L16.9881 2.49623ZM24.4852 14.7723L29.4987 11.7887L16.4998 4.51481L3.50093 11.7887L16.4998 19.5244L22.474 15.9691L16.0144 12.5657C15.5257 12.3082 15.3383 11.7034 15.5958 11.2148C15.8532 10.7262 16.458 10.5388 16.9466 10.7962L24.4114 14.7293C24.4367 14.7427 24.4613 14.757 24.4852 14.7723Z" fill="#111827"/>
</svg>
