<svg width="33" height="32" viewBox="0 0 33 32" fill="none" xmlns="http://www.w3.org/2000/svg">
<path d="M27.9993 13.686V20.1602C27.9997 20.3652 27.93 20.5647 27.8007 20.7287C26.9586 21.7932 23.4062 25.6874 16.5 25.6874C9.59384 25.6874 6.04144 21.7932 5.19941 20.7287C5.07005 20.5647 5.00032 20.3652 5.00073 20.1602V13.686" stroke="#111827" stroke-width="2" stroke-linecap="round" stroke-linejoin="round"/>
<path fill-rule="evenodd" clip-rule="evenodd" d="M16.9881 1.99623C16.6847 1.82645 16.3149 1.82645 16.0115 1.99623L1.01241 10.3893C0.700605 10.5638 0.505583 10.8914 0.500822 11.2487C0.49606 11.606 0.682284 11.9386 0.98933 12.1214L15.9884 21.0475C16.3036 21.235 16.6961 21.235 17.0112 21.0475L22.9453 17.516V29.1312C22.9453 29.6834 23.393 30.1312 23.9453 30.1312C24.4976 30.1312 24.9453 29.6834 24.9453 29.1312V16.3258L32.0103 12.1214C32.3174 11.9386 32.5036 11.606 32.4988 11.2487C32.4941 10.8914 32.299 10.5638 31.9872 10.3893L16.9881 1.99623ZM24.4852 14.2723L29.4987 11.2887L16.4998 4.01481L3.50093 11.2887L16.4998 19.0244L22.474 15.4691L16.0144 12.0657C15.5257 11.8082 15.3383 11.2034 15.5958 10.7148C15.8532 10.2262 16.458 10.0388 16.9466 10.2962L24.4114 14.2293C24.4367 14.2427 24.4613 14.257 24.4852 14.2723Z" fill="#111827"/>
</svg>
