<svg width="32" height="32" viewBox="0 0 32 32" fill="none" xmlns="http://www.w3.org/2000/svg">
<path d="M5.80297 24.1283C6.79872 24.1283 7.60593 23.3211 7.60593 22.3253C7.60593 21.3296 6.79872 20.5223 5.80297 20.5223C4.80722 20.5223 4 21.3296 4 22.3253C4 23.3211 4.80722 24.1283 5.80297 24.1283Z" stroke="#1C1B1F" stroke-width="2" stroke-linecap="round" stroke-linejoin="round"/>
<path d="M12.917 16.8867C13.9127 16.8867 14.7199 16.0795 14.7199 15.0837C14.7199 14.088 13.9127 13.2808 12.917 13.2808C11.9212 13.2808 11.114 14.088 11.114 15.0837C11.114 16.0795 11.9212 16.8867 12.917 16.8867Z" stroke="#1C1B1F" stroke-width="2" stroke-linecap="round" stroke-linejoin="round"/>
<path d="M26.197 11.4776C27.1928 11.4776 28 10.6704 28 9.67467C28 8.67892 27.1928 7.8717 26.197 7.8717C25.2013 7.8717 24.394 8.67892 24.394 9.67467C24.394 10.6704 25.2013 11.4776 26.197 11.4776Z" stroke="#1C1B1F" stroke-width="2" stroke-linecap="round" stroke-linejoin="round"/>
<path d="M20.345 24.0758C21.3407 24.0758 22.1479 23.2686 22.1479 22.2728C22.1479 21.2771 21.3407 20.4698 20.345 20.4698C19.3492 20.4698 18.542 21.2771 18.542 22.2728C18.542 23.2686 19.3492 24.0758 20.345 24.0758Z" stroke="#1C1B1F" stroke-width="2" stroke-linecap="round" stroke-linejoin="round"/>
<path d="M7.09473 21.0537L11.5877 16.5608M25.4023 11.3815L21.5297 20.7246M14.2594 16.4501L18.863 21.0537" stroke="#1C1B1F" stroke-width="2" stroke-linecap="round" stroke-linejoin="round"/>
</svg>
