<svg width="33" height="32" viewBox="0 0 33 32" fill="none" xmlns="http://www.w3.org/2000/svg">
<path fill-rule="evenodd" clip-rule="evenodd" d="M27.9919 8.09379C27.9919 7.40145 28.5531 6.84021 29.2454 6.84021C29.9378 6.84021 30.499 7.40145 30.499 8.09379C30.499 8.78612 29.9378 9.34736 29.2454 9.34736C28.5531 9.34736 27.9919 8.78612 27.9919 8.09379ZM29.2454 4.84021C27.4485 4.84021 25.9919 6.29689 25.9919 8.09379C25.9919 9.04777 26.4024 9.90585 27.0565 10.501L22.8245 20.7112C22.5406 20.6303 22.2408 20.5869 21.9309 20.5869C21.3106 20.5869 20.7309 20.7605 20.2377 21.0617L15.5332 16.3572C15.7676 15.9077 15.9001 15.3967 15.9001 14.8547C15.9001 13.0578 14.4434 11.6012 12.6465 11.6012C10.8496 11.6012 9.39291 13.0578 9.39291 14.8547C9.39291 15.4375 9.54611 15.9844 9.81444 16.4575L5.25392 21.0181C4.8052 20.7846 4.29522 20.6527 3.75443 20.6527C1.95753 20.6527 0.500854 22.1093 0.500854 23.9062C0.500854 25.7031 1.95753 27.1598 3.75443 27.1598C5.55133 27.1598 7.00801 25.7031 7.00801 23.9062C7.00801 23.379 6.88257 22.881 6.65992 22.4405L11.2883 17.8121C11.7016 18.0023 12.1617 18.1083 12.6465 18.1083C13.1726 18.1083 13.6695 17.9834 14.1093 17.7617L18.9296 22.582C18.7671 22.9692 18.6773 23.3943 18.6773 23.8405C18.6773 25.6374 20.134 27.0941 21.9309 27.0941C23.7278 27.0941 25.1844 25.6374 25.1844 23.8405C25.1844 23.0956 24.9341 22.4092 24.513 21.8608L28.8792 11.327C28.9994 11.3404 29.1216 11.3474 29.2454 11.3474C31.0423 11.3474 32.499 9.89069 32.499 8.09379C32.499 6.29689 31.0423 4.84021 29.2454 4.84021ZM12.6465 13.6012C11.9542 13.6012 11.3929 14.1624 11.3929 14.8547C11.3929 15.5471 11.9542 16.1083 12.6465 16.1083C13.3388 16.1083 13.9001 15.5471 13.9001 14.8547C13.9001 14.1624 13.3388 13.6012 12.6465 13.6012ZM3.75443 22.6527C3.0621 22.6527 2.50085 23.2139 2.50085 23.9062C2.50085 24.5986 3.0621 25.1598 3.75443 25.1598C4.44676 25.1598 5.00801 24.5986 5.00801 23.9062C5.00801 23.2139 4.44676 22.6527 3.75443 22.6527ZM21.9309 22.5869C21.2385 22.5869 20.6773 23.1482 20.6773 23.8405C20.6773 24.5328 21.2385 25.0941 21.9309 25.0941C22.6232 25.0941 23.1844 24.5328 23.1844 23.8405C23.1844 23.1482 22.6232 22.5869 21.9309 22.5869Z" fill="#111827"/>
</svg>
