<svg width="33" height="17" viewBox="0 0 33 17" fill="none" xmlns="http://www.w3.org/2000/svg">
<path d="M25.378 5.08911C24.9551 5.08911 24.5575 5.25293 24.2599 5.55052L23.0572 6.74998C22.7327 7.07356 22.5661 7.52286 22.6002 7.98347C22.6026 8.00862 22.6051 8.03376 22.6075 8.0597C22.6506 8.41328 22.806 8.732 23.0572 8.98177C23.2304 9.15452 23.4215 9.26402 23.6533 9.34026C23.6655 9.40999 23.672 9.48052 23.672 9.5511C23.672 9.86901 23.5484 10.1674 23.3239 10.3913L23.2499 10.4651C22.8482 10.328 22.5132 10.1277 22.2107 9.82602C21.809 9.42537 21.5431 8.91933 21.4431 8.36383L21.4292 8.28676L21.3682 8.33626C21.3268 8.36949 21.2877 8.4052 21.2512 8.44166L20.0485 9.64112C19.4321 10.2558 19.4321 11.2574 20.0485 11.8721C20.3567 12.1795 20.7616 12.3336 21.1674 12.3336C21.5732 12.3336 21.9773 12.1795 22.2855 11.8721L23.4882 10.6727C24.1046 10.0579 24.1046 9.05721 23.4882 8.44166C23.3239 8.27788 23.128 8.15458 22.906 8.07513C22.8938 8.00292 22.8872 7.93075 22.8872 7.86022C22.8872 7.51473 23.0239 7.18709 23.2743 6.93731C23.6769 7.07435 24.0338 7.29659 24.3355 7.59745C24.7364 7.99726 25.0015 8.50251 25.1031 9.05964L25.117 9.13667L25.178 9.08721C25.2195 9.05398 25.2585 9.01827 25.2959 8.98098L26.4986 7.78156C27.115 7.1668 27.1158 6.16528 26.4986 5.55052C26.2001 5.25293 25.8033 5.08911 25.3796 5.08911H25.378Z" fill="black"/>
<path d="M24.7335 0.702393H8.99697C4.51313 0.702393 0.865234 4.34044 0.865234 8.81218C0.865234 13.2839 4.51313 16.922 8.99697 16.922H24.7335C29.2173 16.922 32.8652 13.2839 32.8652 8.81218C32.8652 4.34044 29.2173 0.702393 24.7335 0.702393ZM16.9718 13.4169C16.7124 13.4704 16.4204 13.4801 16.222 13.2734C16.1488 13.4412 15.9781 13.3528 15.8463 13.331C15.8341 13.365 15.8236 13.395 15.8122 13.4291C15.3739 13.4583 15.0453 13.0122 14.8364 12.6757C14.4216 12.4518 13.9508 12.3156 13.5271 12.0812C13.5027 12.4673 13.5873 12.9457 13.2189 13.1947C13.2003 13.9367 14.3444 13.2823 14.4493 13.8354C14.368 13.8443 14.2777 13.8224 14.2127 13.8848C13.9142 14.1744 13.5719 13.6659 13.2279 13.8759C12.766 14.1079 12.7197 14.2976 12.148 14.3455C12.1163 14.2976 12.1293 14.266 12.1561 14.2368C12.3172 14.0503 12.3286 13.8305 12.6034 13.751C12.3204 13.7064 12.0838 13.8621 11.8455 13.9854C11.5357 14.1119 11.5381 13.6999 11.0616 14.0073C11.0087 13.9643 11.034 13.9254 11.0641 13.8921C11.1852 13.7445 11.3446 13.7226 11.5243 13.7308C10.6404 13.2393 10.224 14.3317 9.81583 13.7883C9.69305 13.8208 9.6467 13.931 9.56944 14.0089C9.50277 13.9359 9.55318 13.8475 9.55645 13.7616C9.47675 13.7243 9.37589 13.7064 9.39948 13.5791C9.24335 13.5264 9.13441 13.6188 9.01813 13.7064C8.9132 13.6253 9.08886 13.5069 9.12137 13.4226C9.2149 13.2604 9.42793 13.3893 9.53608 13.2725C9.84348 13.0982 10.272 13.3812 10.6233 13.3334C10.8941 13.3674 11.2291 13.0901 11.0933 12.8135C10.8038 12.4445 10.8551 11.962 10.8486 11.5208C10.8128 11.2637 10.194 10.9361 10.0151 10.6587C9.79387 10.409 9.62148 10.1195 9.44909 9.83483C8.82701 8.63374 9.02299 7.09046 8.23908 5.97536C7.88454 6.17082 7.42265 6.07837 7.11692 5.8164C6.95183 5.96644 6.9445 6.16269 6.93151 6.37114C6.53549 5.9762 6.5851 5.23006 6.90142 4.79053C7.03073 4.61698 7.18523 4.47425 7.35761 4.34855C7.39663 4.32016 7.40966 4.29259 7.40882 4.2488C7.72191 2.84419 9.85731 3.11505 10.5322 4.11012C11.0218 4.72243 11.1698 5.53256 11.7252 6.10109C12.4724 6.91692 13.3239 7.63544 14.0134 8.50399C14.6656 9.29794 15.1315 10.2289 15.5381 11.1673C15.704 11.4786 15.7056 11.8606 15.9512 12.1266C16.0724 12.2872 16.6644 12.7243 16.5359 12.8792C16.6099 13.0398 17.1628 13.2612 16.9709 13.4169H16.9718ZM27.3429 8.62565L26.1403 9.82507C25.8199 10.1446 25.4239 10.383 24.9945 10.5136L24.9726 10.5201L24.9644 10.5412C24.8246 10.9094 24.6123 11.2378 24.3326 11.516L23.1299 12.7154C22.6054 13.2385 21.9077 13.5264 21.1645 13.5264C20.4212 13.5264 19.7235 13.2385 19.199 12.7154C18.1151 11.6344 18.1151 9.87615 19.199 8.79513L20.4017 7.59571C20.7237 7.27456 21.1092 7.04344 21.5459 6.90962L21.5678 6.90313L21.5759 6.88205C21.7158 6.51384 21.9288 6.18461 22.2094 5.90399L23.4121 4.70457C23.9366 4.18149 24.6343 3.89359 25.3775 3.89359C26.1208 3.89359 26.8184 4.18149 27.3429 4.70457C27.8675 5.22763 28.1561 5.92348 28.1561 6.66471C28.1561 7.40595 27.8675 8.10255 27.3429 8.62485V8.62565Z" fill="black"/>
<path d="M12.0795 11.9652C11.9738 12.3755 11.9397 13.0738 11.4046 13.094C11.3607 13.3309 11.5689 13.42 11.7591 13.3438C11.947 13.2579 12.0364 13.412 12.0999 13.5652C12.3902 13.6074 12.8195 13.4687 12.8358 13.1257C12.4024 12.8767 12.2682 12.4031 12.0803 11.9644L12.0795 11.9652Z" fill="black"/>
</svg>
