<svg width="32" height="32" viewBox="0 0 32 32" fill="none" xmlns="http://www.w3.org/2000/svg">
<path d="M4 16.4617H28" stroke="#1C1B1F" stroke-width="2" stroke-linecap="round" stroke-linejoin="round"/>
<path d="M4.41772 21.8373L8.86512 19.8204C8.89034 19.809 8.91917 19.8085 8.94475 19.8191L13.769 21.8207C13.7944 21.8313 13.8231 21.8309 13.8482 21.8196L18.3077 19.8205C18.3333 19.809 18.3626 19.8089 18.3884 19.82L23.003 21.8197C23.0288 21.8309 23.0581 21.8307 23.0837 21.8192L27.5825 19.8025" stroke="#1C1B1F" stroke-width="2" stroke-linecap="round"/>
<path d="M6.76929 21.0771V21.6156C6.76929 24.3771 9.00786 26.6156 11.7693 26.6156H20.2308C22.9922 26.6156 25.2308 24.3771 25.2308 21.6156V21.0771" stroke="#1C1B1F" stroke-width="2" stroke-linecap="round"/>
<path d="M13.2883 5.38467H18.7116C22.7698 5.38467 26.0595 8.67443 26.0595 12.7325C26.0595 12.7528 26.0431 12.7693 26.0228 12.7693H5.97717C5.95688 12.7693 5.94043 12.7528 5.94043 12.7325C5.94043 8.67443 9.23019 5.38467 13.2883 5.38467Z" stroke="#1C1B1F" stroke-width="2" stroke-linecap="round"/>
</svg>
