<svg width="33" height="33" viewBox="0 0 33 33" fill="none" xmlns="http://www.w3.org/2000/svg">
<path fill-rule="evenodd" clip-rule="evenodd" d="M13.1103 4.23169C8.913 4.23169 5.45366 7.39135 4.98106 11.4619H28.0184C27.5458 7.39135 24.0864 4.23169 19.8891 4.23169H13.1103ZM3.97197 13.4619C3.39432 13.4619 2.92605 12.9936 2.92605 12.416C2.92605 6.79135 7.4857 2.23169 13.1103 2.23169H19.8891C25.5137 2.23169 30.0734 6.79135 30.0734 12.416C30.0734 12.9936 29.6051 13.4619 29.0274 13.4619H3.97197ZM1.50073 16.0772C0.948448 16.0772 0.500732 16.5249 0.500732 17.0772C0.500732 17.6295 0.948448 18.0772 1.50073 18.0772H31.4989C32.0512 18.0772 32.4989 17.6295 32.4989 17.0772C32.4989 16.5249 32.0512 16.0772 31.4989 16.0772H1.50073ZM31.3862 22.1649C31.8902 21.939 32.1156 21.3473 31.8897 20.8433C31.6637 20.3394 31.0721 20.114 30.5681 20.3399L25.2969 22.7029L19.8727 20.3524C19.5892 20.2296 19.2672 20.2316 18.9853 20.3579L13.7458 22.7067L8.05458 20.3454C7.77325 20.2287 7.45611 20.2338 7.17872 20.3596L1.60993 22.885C1.10695 23.1131 0.884113 23.7058 1.11221 24.2087C1.34031 24.7117 1.93296 24.9346 2.43595 24.7065L3.96215 24.0143V24.7683C3.96215 28.082 6.64845 30.7683 9.96215 30.7683H23.0377C26.3514 30.7683 29.0377 28.0821 29.0377 24.7683V23.2177L31.3862 22.1649ZM5.96215 24.7683V23.1074L7.64895 22.3424L13.3381 24.7028C13.6179 24.8189 13.9332 24.8145 14.2096 24.6906L19.4414 22.3452L24.8656 24.6958C25.1491 24.8186 25.4711 24.8166 25.753 24.6902L27.0377 24.1143V24.7683C27.0377 26.9775 25.2468 28.7683 23.0377 28.7683H9.96215C7.75301 28.7683 5.96215 26.9775 5.96215 24.7683Z" fill="#111827"/>
</svg>
