<svg width="33" height="33" viewBox="0 0 33 33" fill="none" xmlns="http://www.w3.org/2000/svg">
<path fill-rule="evenodd" clip-rule="evenodd" d="M16.2689 7.56788L17.5187 8.19276C17.432 8.24832 17.3507 8.31306 17.2762 8.38635L12.0928 13.4861C11.4989 14.0705 11.495 15.0269 12.0842 15.616L12.9554 16.4872C14.5175 18.0493 17.0501 18.0493 18.6122 16.4872L19.5132 15.5862L24.1054 18.8989L20.4177 22.7748L12.8763 20.8978L6.34033 15.8055L9.89791 9.64355L16.2689 7.56788ZM16.9799 5.6873L21.5164 7.95559H23.479L26.5458 6.18496C27.2633 5.77074 28.1806 6.01655 28.5949 6.73399L32.2983 13.1485C32.7125 13.8659 32.4667 14.7833 31.7492 15.1975L28.7267 16.9426C28.72 16.9501 28.7131 16.9576 28.706 16.965L21.666 24.3642C21.294 24.7552 20.7407 24.9162 20.217 24.7858L12.2904 22.813C12.0868 22.7624 11.8962 22.6696 11.7307 22.5407L5.32499 17.5498L4.46516 17.0534L1.2508 15.1975C0.53336 14.7833 0.287548 13.8659 0.701762 13.1485L4.40518 6.73399C4.81939 6.01655 5.73678 5.77074 6.45422 6.18496L9.19693 7.76846L15.8444 5.60272C16.2193 5.48057 16.6273 5.51096 16.9799 5.6873ZM18.5329 9.95559H23.2823L26.8066 16.0599L25.4968 17.4365L20.3382 13.7152C19.7414 13.2847 18.9203 13.3507 18.4 13.871L17.198 15.073C16.417 15.854 15.1506 15.854 14.3696 15.073L13.8548 14.5582L18.5329 9.95559ZM2.68381 13.7155L5.88723 8.16701L7.80256 9.27282L4.59914 14.8213L2.68381 13.7155ZM30.3162 13.7155L27.1128 8.16701L25.1975 9.27282L28.4009 14.8213L30.3162 13.7155ZM7.80332 21.8641C7.38399 21.5047 6.75269 21.5532 6.39327 21.9726C6.03384 22.3919 6.0824 23.0232 6.50173 23.3826L9.65287 26.0836C9.83189 26.2371 10.0446 26.3462 10.2736 26.402L14.5395 27.4425C15.076 27.5734 15.6171 27.2445 15.748 26.708C15.8788 26.1714 15.55 25.6304 15.0134 25.4995L10.8637 24.4873L7.80332 21.8641Z" fill="#111827"/>
</svg>
