<svg width="33" height="33" viewBox="0 0 33 33" fill="none" xmlns="http://www.w3.org/2000/svg">
<path fill-rule="evenodd" clip-rule="evenodd" d="M26.0984 3.37959C25.117 2.81282 24.0037 2.5145 22.8705 2.51465C22.3182 2.51472 21.8704 2.06707 21.8703 1.51478C21.8703 0.962497 22.3179 0.514722 22.8702 0.514649C24.3547 0.514451 25.8131 0.905236 27.0986 1.64769C28.3842 2.39013 29.4515 3.45806 30.1932 4.74401C30.4692 5.22242 30.305 5.83394 29.8266 6.10988C29.3482 6.38582 28.7367 6.22169 28.4607 5.74328C27.8945 4.7616 27.0798 3.94637 26.0984 3.37959ZM4.01647 25.4544C4.49516 25.179 5.10652 25.3437 5.38198 25.8224C6.48859 27.7454 8.0081 29.3989 9.83097 30.6637C10.2847 30.9785 10.3974 31.6016 10.0825 32.0553C9.76768 32.5091 9.14461 32.6217 8.69086 32.3069C6.62487 30.8734 4.9027 28.9994 3.64851 26.82C3.37305 26.3413 3.53779 25.7299 4.01647 25.4544ZM6.78329 4.06662C8.24575 3.22228 10.0593 3.53698 11.1603 4.72571C11.457 4.25967 11.8672 3.85621 12.3788 3.56087C14.0764 2.58075 16.2471 3.1624 17.2272 4.86001L22.0114 13.1464L21.9055 10.9868L21.9054 10.9851C21.803 9.02835 23.3058 7.35865 25.2628 7.25535C27.2203 7.15202 28.8909 8.65513 28.9942 10.6126L28.9951 10.6315L29.259 18.4282L29.259 18.4302C29.3849 22.3809 27.3673 26.2838 23.6828 28.411C18.3764 31.4747 11.5994 29.7041 8.55351 24.4285L3.14896 15.0675C2.16885 13.3699 2.75049 11.1992 4.4481 10.2191C4.92914 9.94134 5.44816 9.78901 5.96732 9.75194L5.48416 8.91508C4.50404 7.21747 5.08568 5.04674 6.78329 4.06662ZM16.6194 16.0044C16.5493 16.0449 16.4764 16.0759 16.402 16.0978C15.969 16.2258 15.489 16.0466 15.2533 15.6384L9.8997 6.36576C9.47187 5.62474 8.52432 5.37084 7.78329 5.79867C7.04227 6.22651 6.78837 7.17405 7.21621 7.91508L9.28475 11.4979L9.29656 11.5182L12.5699 17.1877C12.846 17.666 12.6821 18.2776 12.2038 18.5537C12.1022 18.6124 11.9946 18.6512 11.8854 18.6714C11.8019 18.6868 11.7174 18.6913 11.6341 18.6854C11.3139 18.6628 11.0103 18.4867 10.8377 18.1877L7.55666 12.5048C7.12519 11.7741 6.18463 11.5259 5.4481 11.9511C4.70708 12.3789 4.45318 13.3265 4.88101 14.0675L10.2856 23.4285C12.7701 27.7317 18.3171 29.1995 22.6828 26.6789C25.7097 24.9314 27.3631 21.7298 27.26 18.4939L26.9966 10.7098C26.9472 9.85934 26.2199 9.20761 25.3682 9.25257C24.5137 9.29768 23.8576 10.0269 23.9027 10.8814L23.9029 10.8851L24.071 14.3133C24.1135 15.1787 23.575 15.7871 22.909 16.0051C21.3048 17.1749 20.8993 18.9473 21.5281 20.0363C21.8042 20.5146 21.6403 21.1262 21.162 21.4023C20.6838 21.6785 20.0722 21.5146 19.796 21.0363C18.6794 19.1023 19.3096 16.7863 20.8632 15.1578L15.4952 5.86001C15.0674 5.11898 14.1198 4.86509 13.3788 5.29292C12.6378 5.72075 12.3839 6.6683 12.8117 7.40932L16.9854 14.6384C17.2615 15.1167 17.0977 15.7283 16.6194 16.0044Z" fill="#111827"/>
</svg>
