<svg width="33" height="33" viewBox="0 0 33 33" fill="none" xmlns="http://www.w3.org/2000/svg">
<path fill-rule="evenodd" clip-rule="evenodd" d="M23.3329 0.535177C23.8664 0.678119 24.183 1.22646 24.04 1.75992L23.5113 3.73327C23.3683 4.26673 22.82 4.58331 22.2865 4.44037C21.7531 4.29743 21.4365 3.74909 21.5794 3.21563L22.1082 1.24228C22.2511 0.708817 22.7995 0.392235 23.3329 0.535177ZM27.5059 2.48096C27.9584 2.79773 28.0683 3.42128 27.7515 3.87368L26.5797 5.54718C26.263 5.99958 25.6394 6.10953 25.187 5.79275C24.7346 5.47598 24.6246 4.85243 24.9414 4.40002L26.1132 2.72653C26.43 2.27413 27.0535 2.16418 27.5059 2.48096ZM30.5162 7.12958C30.9686 6.8128 31.0785 6.18925 30.7617 5.73685C30.445 5.28444 29.8214 5.1745 29.369 5.49127L27.6955 6.66307C27.2431 6.97984 27.1332 7.60339 27.4499 8.05579C27.7667 8.5082 28.3903 8.61815 28.8427 8.30137L30.5162 7.12958ZM8.50704 11.4774C8.15635 10.87 7.37965 10.6619 6.77225 11.0126C6.16484 11.3633 5.95672 12.14 6.30741 12.7474L11.0743 21.0039C11.1828 21.1917 11.2233 21.4001 11.2037 21.6007C11.1734 21.911 10.9988 22.2026 10.7082 22.3704C10.23 22.6465 9.61836 22.4827 9.34222 22.0044L6.42762 16.9561C6.07693 16.3487 5.30024 16.1406 4.69283 16.4913C4.08543 16.842 3.87731 17.6187 4.228 18.2261L9.04029 26.5612C11.2218 30.3396 16.0936 31.63 19.9293 29.4154C22.5882 27.8803 24.0404 25.0686 23.9502 22.2268L23.9502 22.2257L23.7542 16.4347C23.7532 16.4216 23.7525 16.4083 23.7521 16.395L23.7141 15.2734C23.6615 14.5881 23.0711 14.0666 22.381 14.103C21.6806 14.14 21.1428 14.7377 21.1797 15.4381L21.1799 15.4419L21.3513 18.9361C21.429 20.5194 19.3267 21.1383 18.534 19.7655L13.4892 11.0276C13.1385 10.4202 12.3618 10.2121 11.7544 10.5627C11.1546 10.909 10.9442 11.6707 11.2767 12.2746L15.006 18.734C15.1198 18.9311 15.1589 19.151 15.132 19.3606C15.0937 19.6597 14.9212 19.938 14.6399 20.1004C14.1616 20.3766 13.55 20.2127 13.2739 19.7344L9.55755 13.2975L9.5367 13.2609L8.50704 11.4774ZM25.7119 15.1728L25.516 9.38509L25.5151 9.3662C25.4254 7.66549 24.1764 6.19643 22.2755 6.29677C20.4728 6.39194 19.0883 7.92997 19.1824 9.73253L19.1825 9.73455L19.2546 11.2045L15.2212 4.21856C14.3183 2.65457 12.3184 2.1187 10.7544 3.02167C10.3241 3.27009 9.97166 3.60153 9.70557 3.98408C8.67655 2.97326 7.06271 2.727 5.75261 3.48339C4.19998 4.3798 3.64989 6.35367 4.51511 7.92391L4.53279 7.95599L4.55277 7.98669L5.50601 9.45169C4.14998 10.4182 3.72571 12.2758 4.57536 13.7474L4.92081 14.3457C4.50022 14.3983 4.08297 14.534 3.69283 14.7593C2.12884 15.6622 1.59298 17.6621 2.49595 19.2261L7.30824 27.5612C10.0511 32.312 16.1529 33.9051 20.9293 31.1475C24.246 29.2326 26.0625 25.7189 25.9492 22.162L25.9491 22.16L25.7141 15.2177L25.7133 15.1988C25.7129 15.1901 25.7124 15.1815 25.7119 15.1728ZM23.614 12.3153C23.1999 12.1571 22.7468 12.0809 22.2756 12.1058C21.9369 12.1237 21.613 12.1925 21.3109 12.3044L21.1799 9.63285L21.1797 9.62912C21.1427 8.92872 21.6805 8.33096 22.3809 8.29399C22.9818 8.26227 23.472 8.66563 23.5175 9.46311L23.614 12.3153ZM19.2672 14.6087C18.9805 14.493 18.7209 14.2801 18.534 13.9564L13.4892 5.21856C13.1385 4.61115 12.3618 4.40304 11.7544 4.75372C11.147 5.10441 10.9389 5.8811 11.2896 6.48851L11.2929 6.49435L11.2929 6.49436L12.3336 8.32531C12.3461 8.34732 12.3577 8.36959 12.3684 8.3921C13.5048 8.38584 14.6124 8.97297 15.2213 10.0276L19.2546 17.0135L19.1825 15.5436L19.1824 15.5412C19.1657 15.2198 19.1959 14.9067 19.2672 14.6087ZM9.70882 9.7885C9.11167 9.19639 8.31355 8.86535 7.49264 8.84312C7.48038 8.82072 7.46718 8.79862 7.45302 8.77686L6.25192 6.93094C5.93367 6.31917 6.15219 5.56209 6.75261 5.21544C7.36739 4.86049 8.15254 5.06795 8.51231 5.67818L10.3609 9.09732C10.1063 9.29813 9.88806 9.53175 9.70882 9.7885Z" fill="#111827"/>
</svg>
