<svg width="33" height="33" viewBox="0 0 33 33" fill="none" xmlns="http://www.w3.org/2000/svg">
<path fill-rule="evenodd" clip-rule="evenodd" d="M9.33743 4.58215C9.33743 2.32811 11.1647 0.500854 13.4187 0.500854C15.6728 0.500854 17.5 2.32811 17.5 4.58215V8.65815C18.1094 8.2962 18.821 8.08837 19.5812 8.08837C21.38 8.08837 22.907 9.25208 23.4505 10.8677C24.1041 10.4229 24.8936 10.1629 25.7439 10.1629C27.9979 10.1629 29.8252 11.9902 29.8252 14.2442V19.2288V19.7902C29.8252 19.8551 29.819 19.9186 29.8072 19.98C29.6447 23.3567 28.3852 26.3956 26.2086 28.6417C23.8667 31.0583 20.5191 32.4991 16.5 32.4991C12.1949 32.4991 8.83268 30.873 6.55873 28.2679C4.38441 25.7769 3.26006 22.4563 3.17947 18.9631C3.17638 18.9311 3.1748 18.8986 3.1748 18.8658V18.5577L3.1748 17.6333C3.1748 15.0389 5.27797 12.9358 7.87236 12.9358H9.33743V4.58215ZM9.33743 14.9358H7.87236C6.38254 14.9358 5.1748 16.1435 5.1748 17.6333V18.5577C5.1748 21.8018 6.17801 24.7903 8.06546 26.9527C9.93723 29.097 12.7376 30.4991 16.5 30.4991C20.0219 30.4991 22.8369 29.2471 24.7723 27.2499C26.7128 25.2475 27.8252 22.4377 27.8252 19.2288V14.2442C27.8252 13.0947 26.8933 12.1629 25.7439 12.1629C24.5944 12.1629 23.6626 13.0947 23.6626 14.2442V16.0927C23.6626 16.2998 23.5996 16.4922 23.4917 16.6518C23.424 16.752 23.3386 16.8393 23.2401 16.9092C23.0769 17.0248 22.8777 17.0927 22.6625 17.0927C22.1102 17.0927 21.6625 16.645 21.6625 16.0927V12.1697C21.6625 11.0202 20.7307 10.0884 19.5812 10.0884C18.4381 10.0884 17.5103 11.0099 17.5 12.1506V14.9666L17.4999 14.9798V16.0927C17.4999 16.645 17.0522 17.0927 16.4999 17.0927C15.9477 17.0927 15.4999 16.645 15.4999 16.0927V12.1697L15.5 12.1429V4.58215C15.5 3.43268 14.5682 2.50085 13.4187 2.50085C12.2693 2.50085 11.3374 3.43268 11.3374 4.58215V18.5574C11.3374 19.1097 10.8897 19.5574 10.3374 19.5574C9.78515 19.5574 9.33743 19.1097 9.33743 18.5574V14.9358Z" fill="#111827"/>
</svg>
