<svg width="33" height="33" viewBox="0 0 33 33" fill="none" xmlns="http://www.w3.org/2000/svg">
<path fill-rule="evenodd" clip-rule="evenodd" d="M12.7501 0.500854C10.1268 0.500854 8.00027 2.62741 8.00027 5.25064V9.12534H6.00059C2.96317 9.12534 0.500854 11.5877 0.500854 14.6251L0.500855 15.75V16.125C0.500855 16.1604 0.502693 16.1953 0.50628 16.2298C0.601718 20.4418 1.95631 24.4351 4.56541 27.4241C7.28907 30.5444 11.3198 32.499 16.5 32.499C21.3371 32.499 25.3532 30.7662 28.1591 27.8707C30.7713 25.1751 32.2861 21.5221 32.4782 17.4541C32.4919 17.3882 32.4991 17.3199 32.4991 17.2499V16.5667V8.25045C32.4991 5.62722 30.3726 3.50067 27.7493 3.50067C26.6931 3.50067 25.7173 3.84545 24.9285 4.42862C24.5392 2.19717 22.5925 0.500854 20.2496 0.500854C18.7254 0.500854 17.3689 1.21876 16.4998 2.33488C15.6307 1.21876 14.2742 0.500854 12.7501 0.500854ZM24.1633 13.7368C24.1141 13.7449 24.0637 13.7495 24.0123 13.7501C24.008 13.7502 24.0037 13.7502 23.9994 13.7502C23.4471 13.7502 22.9994 13.3025 22.9994 12.7502V5.25063C22.9994 3.73197 21.7683 2.50085 20.2496 2.50085C18.731 2.50085 17.4998 3.73197 17.4998 5.25063V12.7502C17.4998 13.3025 17.0521 13.7502 16.4998 13.7502C15.9475 13.7502 15.4998 13.3025 15.4998 12.7502V5.25063C15.4998 3.73197 14.2687 2.50085 12.7501 2.50085C11.2314 2.50085 10.0003 3.73197 10.0003 5.25064V15.75C10.0003 16.3023 9.55256 16.75 9.00027 16.75C8.44799 16.75 8.00027 16.3023 8.00027 15.75V11.1253H6.00059C4.06774 11.1253 2.50085 12.6922 2.50085 14.6251V15.7498V15.75C2.50085 19.741 3.73499 23.4314 6.07214 26.1089C8.39362 28.7684 11.8624 30.499 16.5 30.499C20.8399 30.499 24.3234 28.955 26.7228 26.4789C29.1273 23.9977 30.4991 20.5224 30.4991 16.5667V8.25045C30.4991 6.73179 29.268 5.50067 27.7493 5.50067C26.2307 5.50067 24.9995 6.73179 24.9995 8.25045V12.7502C24.9995 13.2467 24.6377 13.6587 24.1633 13.7368Z" fill="#111827"/>
</svg>
