<svg width="33" height="33" viewBox="0 0 33 33" fill="none" xmlns="http://www.w3.org/2000/svg">
<path fill-rule="evenodd" clip-rule="evenodd" d="M12.7502 1.12585C10.1679 1.12585 8.06689 3.18654 8.00194 5.75317C7.22564 5.2006 6.27608 4.87562 5.25062 4.87562C2.6274 4.87562 0.500854 7.00216 0.500854 9.62539V12.1252C0.500854 12.1844 0.501938 12.2434 0.504085 12.3021C0.502026 12.3283 0.500977 12.3547 0.500977 12.3815C0.500977 17.4618 1.83686 22.3092 4.51633 25.9137C7.21725 29.547 11.258 31.874 16.5 31.874C21.3933 31.874 25.4236 29.8119 28.2121 26.4331C30.976 23.084 32.4867 18.4874 32.4989 13.4029C32.499 13.3936 32.499 13.3844 32.499 13.3752C32.499 13.3713 32.499 13.3674 32.499 13.3635C32.499 13.3558 32.499 13.3481 32.499 13.3404C32.499 13.3306 32.4989 13.3209 32.4986 13.3112C32.4644 10.7175 30.3511 8.62539 27.7492 8.62539H24.9995V5.87562C24.9995 3.2524 22.8729 1.12585 20.2497 1.12585C18.7255 1.12585 17.369 1.84376 16.4999 2.95988C15.6308 1.84376 14.2743 1.12585 12.7502 1.12585ZM30.499 13.3654C30.4937 11.8512 29.2647 10.6254 27.7492 10.6254L20.2497 10.6254C18.7311 10.6254 17.4999 11.8565 17.4999 13.3752C17.4999 14.8938 18.7311 16.1249 20.2497 16.1249H27.7492C29.2616 16.1249 30.4887 14.9041 30.4989 13.3941C30.499 13.3846 30.499 13.375 30.499 13.3654ZM30.1178 17.4931C29.4206 17.895 28.6118 18.1249 27.7492 18.1249H22.5166L22.5127 18.1249C19.7442 18.1249 17.4999 20.3692 17.4999 23.1377C17.4999 23.69 17.0522 24.1377 16.4999 24.1377C15.9476 24.1377 15.4999 23.69 15.4999 23.1377C15.4999 20.9102 16.5385 18.9252 18.1578 17.6406C17.2458 17.1925 16.4984 16.4605 16.0311 15.5598C15.1783 16.3746 14.0227 16.875 12.7502 16.875C11.226 16.875 9.8695 16.1571 9.00039 15.041C8.13127 16.1571 6.77479 16.875 5.25062 16.875C4.34517 16.875 3.4989 16.6216 2.77883 16.182C3.26923 19.4514 4.40187 22.4074 6.12142 24.7205C8.4656 27.8739 11.9243 29.874 16.5 29.874C20.7837 29.874 24.2529 28.0884 26.6696 25.1601C28.3574 23.115 29.5479 20.4902 30.1178 17.4931ZM10.0004 5.87562C10.0004 4.35697 11.2315 3.12585 12.7502 3.12585C14.2688 3.12585 15.4999 4.35697 15.4999 5.87562V12.1252C15.4999 13.6439 14.2688 14.875 12.7502 14.875C11.2315 14.875 10.0004 13.6439 10.0004 12.1252V5.87562ZM5.25062 6.87562C3.73197 6.87562 2.50085 8.10673 2.50085 9.62539V12.1252C2.50085 13.6439 3.73197 14.875 5.25062 14.875C6.76927 14.875 8.00039 13.6439 8.00039 12.1252V9.62539C8.00039 8.10674 6.76927 6.87562 5.25062 6.87562ZM17.4999 5.87562C17.4999 4.35697 18.731 3.12585 20.2497 3.12585C21.7684 3.12585 22.9995 4.35697 22.9995 5.87562V8.62538H17.4999V5.87562Z" fill="#111827"/>
</svg>
