<svg width="32" height="33" viewBox="0 0 32 33" fill="none" xmlns="http://www.w3.org/2000/svg">
<path d="M16 15.2732V6.96519C16 5.6037 14.8963 4.5 13.5348 4.5V4.5C12.1733 4.5 11.0696 5.6037 11.0696 6.96519V18.1461" stroke="#1C1B1F" stroke-width="2" stroke-linecap="round"/>
<path d="M20.9303 16.1741V13.0355C20.9303 11.674 19.8266 10.5703 18.4651 10.5703V10.5703C17.1036 10.5703 15.9999 11.674 15.9999 13.0355V16.1741" stroke="#1C1B1F" stroke-width="2" stroke-linecap="round"/>
<path d="M6.13916 18.3928L6.13916 17.4068C6.13916 15.773 7.4636 14.4485 9.09739 14.4485H10.5765M25.8607 19.1324V14.6953C25.8607 13.3338 24.757 12.2301 23.3955 12.2301C22.034 12.2301 20.9303 13.3338 20.9303 14.6953V16.1742M25.8607 18.6832C25.8607 24.1915 22.0331 28.5 15.9999 28.5C9.54554 28.5 6.13916 23.6546 6.13916 18.1463" stroke="#1C1B1F" stroke-width="2" stroke-linecap="round"/>
</svg>
