<svg width="32" height="33" viewBox="0 0 32 33" fill="none" xmlns="http://www.w3.org/2000/svg">
<path d="M10.2031 28.4999C8.64602 27.4196 7.34807 26.0072 6.40283 24.3646" stroke="#1C1B1F" stroke-width="2" stroke-linecap="round" stroke-linejoin="round"/>
<path d="M21.1013 4.5C22.1495 4.49986 23.1791 4.77577 24.0868 5.29997C24.9944 5.82417 25.748 6.57817 26.2717 7.48611" stroke="#1C1B1F" stroke-width="2" stroke-linecap="round" stroke-linejoin="round"/>
<path d="M12.1593 17.4511L7.87229 10.0257C7.30856 9.04929 7.6431 7.80076 8.61951 7.23703V7.23703C9.59592 6.6733 10.8444 7.00784 11.4082 7.98425L15.6952 15.4096" stroke="#1C1B1F" stroke-width="2" stroke-linecap="round"/>
<path d="M12.1593 17.4511L9.53812 12.911C8.97439 11.9346 7.72586 11.6001 6.74946 12.1638C5.77305 12.7276 5.43851 13.9761 6.00224 14.9525L10.3301 22.4486C12.5444 26.2839 17.4789 27.5805 21.3515 25.3446C24.0386 23.7932 25.5085 20.9486 25.4168 18.0711L25.2055 11.8277C25.1461 10.7018 24.1852 9.83728 23.0593 9.89672C21.9334 9.95615 21.0688 10.917 21.1283 12.0429L21.2629 14.7881C21.2915 15.3703 20.5184 15.5979 20.227 15.0931L15.8889 7.57929C15.3251 6.60288 14.0766 6.26834 13.1002 6.83207C12.1238 7.3958 11.7892 8.64433 12.353 9.62074L15.6952 15.4096" stroke="#1C1B1F" stroke-width="2" stroke-linecap="round" stroke-linejoin="round"/>
<path d="M19.3329 19.7322C18.4861 18.2655 19.2778 16.223 21.1013 15.1702" stroke="#1C1B1F" stroke-width="2" stroke-linecap="round"/>
</svg>
