<svg width="32" height="33" viewBox="0 0 32 33" fill="none" xmlns="http://www.w3.org/2000/svg">
<path d="M16 13.5V7.50001C16 5.84315 14.6569 4.5 13 4.5V4.5C11.3431 4.5 10 5.84315 10 7.50001V15.9" stroke="#1C1B1F" stroke-width="2" stroke-linecap="round"/>
<path d="M22 13.5V7.50001C22 5.84315 20.6569 4.5 19 4.5V4.5C17.3431 4.5 16 5.84315 16 7.50001V13.5" stroke="#1C1B1F" stroke-width="2" stroke-linecap="round"/>
<path d="M4 16.2L4 15C4 13.0118 5.61178 11.4 7.60001 11.4H9.40002M28.0001 17.1001V9.90003C28.0001 8.24317 26.6569 6.90002 25.0001 6.90002C23.3432 6.90002 22.0001 8.24317 22.0001 9.90003V13.5M28.0001 16.5534C28.0001 23.2568 23.3421 28.5 16 28.5C8.14539 28.5 4 22.6034 4 15.9001" stroke="#1C1B1F" stroke-width="2" stroke-linecap="round"/>
</svg>
