<svg width="33" height="33" viewBox="0 0 33 33" fill="none" xmlns="http://www.w3.org/2000/svg">
<path fill-rule="evenodd" clip-rule="evenodd" d="M17.7299 3.55378C17.3919 1.81416 15.8602 0.500854 14.0217 0.500854C11.9354 0.500854 10.2441 2.19214 10.2441 4.27844V5.47774C9.71436 5.19471 9.10922 5.03425 8.46661 5.03425C6.38031 5.03425 4.68903 6.72553 4.68903 8.81184V20.5888C4.68903 27.1758 10.0782 32.4991 16.7055 32.4991C19.0538 32.4991 21.282 31.6473 23.068 30.493C24.8427 29.346 26.2791 27.8361 26.9869 26.4004C27.6836 24.987 27.9964 22.8813 28.1484 21.2506C28.3045 19.5753 28.3052 18.2153 28.3052 18.194V18.1932C28.3052 18.0426 28.3066 17.8894 28.308 17.7353V17.7353C28.3146 17.0176 28.3215 16.278 28.1872 15.6623C28.0974 15.2507 27.9384 14.8403 27.6531 14.4643C27.3676 14.0881 26.9935 13.7963 26.5436 13.5673C25.509 13.0406 24.3459 13.0361 23.3546 13.4561V6.84976C23.3546 4.76346 21.6633 3.07217 19.577 3.07217C18.9061 3.07217 18.276 3.24708 17.7299 3.55378ZM15.8286 15.0743C15.8095 14.9971 15.7993 14.9164 15.7993 14.8333V4.27844C15.7993 3.29671 15.0035 2.50085 14.0217 2.50085C13.04 2.50085 12.2441 3.29671 12.2441 4.27844V8.78835C12.2442 8.79617 12.2442 8.804 12.2442 8.81184V14.8336C12.2442 15.3859 11.7965 15.8336 11.2442 15.8336C10.7663 15.8336 10.3667 15.4983 10.2677 15.0502C10.2523 14.9803 10.2441 14.9078 10.2441 14.8333V8.79572C10.2355 7.82141 9.44298 7.03425 8.46661 7.03425C7.48488 7.03425 6.68903 7.83011 6.68903 8.81184V20.5888C6.68903 26.053 11.1644 30.4991 16.7055 30.4991C18.579 30.4991 20.4354 29.8131 21.9823 28.8133C23.5406 27.8061 24.6855 26.5456 25.193 25.5161C25.71 24.4673 26.0048 22.6975 26.157 21.0649C26.3041 19.4867 26.3052 18.2017 26.3052 18.1937V18.1937V18.1932C26.3052 17.9819 26.3064 17.7893 26.3076 17.6126V17.6122C26.3122 16.915 26.3151 16.4644 26.2331 16.0885C26.19 15.8905 26.1306 15.7664 26.0599 15.6733C25.9894 15.5804 25.8698 15.4685 25.6363 15.3496C24.8261 14.9372 23.8485 15.2052 23.3546 15.9418V16.6298C23.3546 17.1821 22.9068 17.6298 22.3546 17.6298C21.8023 17.6298 21.3546 17.1821 21.3546 16.6298V15.6949C21.3542 15.6803 21.3542 15.6656 21.3546 15.6509V6.84976C21.3546 5.86803 20.5587 5.07217 19.577 5.07217C18.5952 5.07217 17.7994 5.86803 17.7994 6.84976V14.8336C17.7994 15.3858 17.3517 15.8336 16.7994 15.8336C16.3301 15.8336 15.9363 15.5103 15.8286 15.0743ZM16.4994 17.7317C12.9762 17.7317 10.8852 20.4091 10.1568 21.5336L10.1568 21.5336L10.1523 21.5407C9.94893 21.8605 9.84092 22.2317 9.84092 22.6106C9.84092 22.9896 9.94893 23.3608 10.1523 23.6806L10.1523 23.6806L10.1568 23.6876C10.8852 24.8122 12.9762 27.4896 16.4994 27.4896C20.0226 27.4896 22.1136 24.8122 22.842 23.6876L22.842 23.6877L22.8465 23.6806C23.0499 23.3608 23.1579 22.9896 23.1579 22.6106C23.1579 22.2316 23.0499 21.8605 22.8465 21.5407L22.8465 21.5407L22.842 21.5336C22.1136 20.4091 20.0226 17.7317 16.4994 17.7317ZM16.4994 25.4896C14.0669 25.4896 12.4996 23.622 11.8421 22.6106C12.4996 21.5993 14.0669 19.7317 16.4994 19.7317C18.9319 19.7317 20.4992 21.5993 21.1567 22.6106C20.4992 23.622 18.9319 25.4896 16.4994 25.4896ZM17.9542 22.6105C17.9542 23.4139 17.3029 24.0651 16.4996 24.0651C15.6962 24.0651 15.045 23.4139 15.045 22.6105C15.045 21.8072 15.6962 21.1559 16.4996 21.1559C17.3029 21.1559 17.9542 21.8072 17.9542 22.6105Z" fill="#111827"/>
</svg>
