<svg width="32" height="33" viewBox="0 0 32 33" fill="none" xmlns="http://www.w3.org/2000/svg">
<path d="M10.4214 16.0556V6.72222C10.4214 5.49492 11.4163 4.5 12.6436 4.5V4.5C13.8709 4.5 14.8658 5.49493 14.8658 6.72223V16.0556" stroke="#1C1B1F" stroke-width="2" stroke-linecap="round"/>
<path d="M10.4214 16.0556V10.349C10.4214 9.1217 9.42647 8.12678 8.19917 8.12678C6.97187 8.12678 5.97695 9.1217 5.97695 10.349V19.7712C5.97695 24.592 9.92303 28.5 14.7908 28.5C18.1684 28.5 21.1022 26.6184 22.582 23.8559L25.7809 17.8551C26.3377 16.7614 25.9024 15.4234 24.8086 14.8666C23.7149 14.3098 22.3769 14.7451 21.8201 15.8389L20.255 18.8852C20.0153 19.3519 19.3103 19.1814 19.3103 18.6567V8.77923C19.3103 7.55193 18.3154 6.55701 17.0881 6.55701C15.8608 6.55701 14.8658 7.55193 14.8658 8.77923V16.0556" stroke="#1C1B1F" stroke-width="2" stroke-linecap="round" stroke-linejoin="round"/>
<path d="M15.5479 22.4991C15.5479 20.6555 17.4059 19.1609 19.6979 19.1609" stroke="#1C1B1F" stroke-width="2" stroke-linecap="round"/>
</svg>
