<svg width="32" height="33" viewBox="0 0 32 33" fill="none" xmlns="http://www.w3.org/2000/svg">
<path d="M16 13V8C16 6.34315 14.6569 5 13 5C11.3431 5 10 6.34315 10 8V13C10 14.6569 11.3431 16 13 16C14.6569 16 16 14.6569 16 13Z" stroke="#1C1B1F" stroke-width="2" stroke-linecap="round"/>
<path d="M19 17L25 17C26.6569 17 28 15.6569 28 14C28 12.3431 26.6569 11 25 11L19 11C17.3431 11 16 12.3431 16 14C16 15.6569 17.3431 17 19 17Z" stroke="#1C1B1F" stroke-width="2" stroke-linecap="round"/>
<path d="M10 13V11C10 9.34315 8.65685 8 7 8C5.34315 8 4 9.34315 4 11V13C4 14.6569 5.34315 16 7 16C8.65685 16 10 14.6569 10 13Z" stroke="#1C1B1F" stroke-width="2" stroke-linecap="round"/>
<path d="M22 10.9701V8C22 6.34315 20.6569 5 19 5C17.3431 5 16 6.34315 16 8V10.9701C16 10.9866 16.0134 11 16.0299 11H21.9701C21.9866 11 22 10.9866 22 10.9701Z" stroke="#1C1B1F" stroke-width="2" stroke-linecap="round"/>
<path d="M16 21.8105C16 19.1537 18.1537 17 20.8105 17" stroke="#1C1B1F" stroke-width="2" stroke-linecap="round"/>
<path d="M28 13.9722C28 21.8433 23.3422 27.9999 16.0001 27.9999C8.14549 27.9999 4.00012 21.0761 4.00012 13.205" stroke="#1C1B1F" stroke-width="2" stroke-linecap="round"/>
</svg>
