<svg width="32" height="33" viewBox="0 0 32 33" fill="none" xmlns="http://www.w3.org/2000/svg">
<path d="M7.07239 9.28238C7.21046 9.04323 7.51625 8.96129 7.7554 9.09937L10.2053 10.5138L6.88289 16.2683L4.43302 14.8539C4.19387 14.7158 4.11193 14.41 4.25001 14.1709L7.07239 9.28238Z" stroke="#1C1B1F" stroke-width="2"/>
<path d="M24.9276 9.28238C24.7895 9.04323 24.4837 8.96129 24.2446 9.09937L21.7947 10.5138L25.1171 16.2683L27.567 14.8539C27.8061 14.7158 27.8881 14.41 27.75 14.1709L24.9276 9.28238Z" stroke="#1C1B1F" stroke-width="2"/>
<path d="M9.9447 10.5375L15.6858 8.66706C15.8107 8.62634 15.9467 8.63647 16.0643 8.69525L19.7486 10.5375" stroke="#1C1B1F" stroke-width="2" stroke-linecap="round"/>
<path d="M6.69202 15.9729L12.6986 20.6528C12.7537 20.6958 12.8173 20.7267 12.8851 20.7436L19.0696 22.2828C19.2442 22.3263 19.4286 22.2726 19.5526 22.1423L25.075 16.3381" stroke="#1C1B1F" stroke-width="2" stroke-linecap="round"/>
<path d="M22.1179 10.5524H17.4879C17.3567 10.5524 17.2308 10.6039 17.1373 10.696L13.1462 14.6226C12.9483 14.8174 12.947 15.1362 13.1434 15.3326L13.3126 15.5018C14.4842 16.6734 16.3837 16.6734 17.5553 15.5018L17.9976 15.0595C18.171 14.8861 18.4447 14.864 18.6436 15.0076L23.1574 18.2637" stroke="#1C1B1F" stroke-width="2" stroke-linecap="round"/>
<path d="M8.61176 21.3553L11.0834 23.4739C11.1431 23.5251 11.214 23.5614 11.2903 23.5801L14.6377 24.3965" stroke="#1C1B1F" stroke-width="2" stroke-linecap="round"/>
</svg>
