<svg width="33" height="32" viewBox="0 0 33 32" fill="none" xmlns="http://www.w3.org/2000/svg">
<path fill-rule="evenodd" clip-rule="evenodd" d="M15.5 2.00092H13.0289C12.4767 2.00092 12.0289 1.5532 12.0289 1.00092C12.0289 0.448631 12.4767 0.000915527 13.0289 0.000915527H16.5H24.8377C25.39 0.000915527 25.8377 0.448631 25.8377 1.00092V3.96309C25.8377 4.51537 25.39 4.96309 24.8377 4.96309C24.2854 4.96309 23.8377 4.51537 23.8377 3.96309V2.00092H17.5V5.95549H23.7131C24.2653 5.95549 24.7131 6.40321 24.7131 6.95549V11.9664H28.5218C29.0741 11.9664 29.5218 12.4141 29.5218 12.9664V30.9991C29.5218 31.5514 29.0741 31.9991 28.5218 31.9991H4.47815C3.92586 31.9991 3.47815 31.5514 3.47815 30.9991V12.9664C3.47815 12.4141 3.92586 11.9664 4.47815 11.9664H8.28687V6.95549C8.28687 6.40321 8.73459 5.95549 9.28687 5.95549H15.5V2.00092ZM22.7131 7.95549V11.9664H10.2869V7.95549H22.7131ZM5.47815 29.9991V13.9664H27.5218V29.9991H5.47815Z" fill="#111827"/>
</svg>
