<svg width="33" height="33" viewBox="0 0 33 33" fill="none" xmlns="http://www.w3.org/2000/svg">
<path fill-rule="evenodd" clip-rule="evenodd" d="M18.7554 16.491C18.5769 16.7641 18.2684 16.9445 17.9178 16.9445C17.3655 16.9445 16.9178 16.4968 16.9178 15.9445V6.84965C16.9178 5.86791 16.122 5.07205 15.1402 5.07205C14.1585 5.07205 13.3626 5.86791 13.3626 6.84965V19.7124C13.3626 21.2864 11.2477 21.7978 10.5284 20.3979L8.33606 16.1306L8.33436 16.1273C7.88899 15.2524 6.8187 14.9042 5.94379 15.3495C5.07139 15.7936 4.72268 16.8591 5.16224 17.7326L9.1548 25.2221L9.15525 25.223C10.8361 28.3602 14.1699 30.4991 18.0117 30.4991C23.5528 30.4991 28.0282 26.053 28.0282 20.5888V8.81174C28.0282 7.83 27.2324 7.03414 26.2506 7.03414C25.2754 7.03414 24.4837 7.81938 24.4731 8.79205V15.9444C24.4731 16.1246 24.4255 16.2936 24.3421 16.4396C24.1699 16.7412 23.8452 16.9446 23.473 16.9446C22.9207 16.9446 22.473 16.4968 22.473 15.9446V8.81174C22.473 8.80216 22.473 8.79259 22.4731 8.78303V4.27846C22.4731 3.29671 21.6773 2.50085 20.6955 2.50085C19.7138 2.50085 18.9179 3.29671 18.9179 4.27846V15.9444C18.9179 16.1461 18.8582 16.3339 18.7554 16.491ZM24.4731 5.47761C25.0029 5.19459 25.608 5.03414 26.2506 5.03414C28.3369 5.03414 30.0282 6.72543 30.0282 8.81174V20.5888C30.0282 27.1758 24.6391 32.4991 18.0117 32.4991C13.4103 32.4991 9.41014 29.9346 7.39178 26.1665L7.39084 26.1647L3.39243 18.6642L3.38369 18.6474C2.43723 16.7881 3.17721 14.5136 5.03649 13.5672C6.89519 12.621 9.16885 13.3602 10.1158 15.2183L10.1167 15.22L11.3626 17.645V6.84965C11.3626 4.76334 13.0539 3.07205 15.1402 3.07205C15.8112 3.07205 16.4412 3.24697 16.9874 3.5537C17.3254 1.81412 18.8571 0.500854 20.6955 0.500854C22.7818 0.500854 24.4731 2.19214 24.4731 4.27846V5.47761Z" fill="#111827"/>
</svg>
