<svg width="32" height="33" viewBox="0 0 32 33" fill="none" xmlns="http://www.w3.org/2000/svg">
<path d="M21.5787 16.0556V6.72222C21.5787 5.49492 20.5837 4.5 19.3564 4.5V4.5C18.1291 4.5 17.1342 5.49493 17.1342 6.72223V16.0556" stroke="#1C1B1F" stroke-width="2" stroke-linecap="round"/>
<path d="M21.5787 16.0556V10.349C21.5787 9.1217 22.5736 8.12678 23.8009 8.12678C25.0282 8.12678 26.0231 9.1217 26.0231 10.349V19.7712C26.0231 24.592 22.077 28.5 17.2093 28.5C13.8317 28.5 10.8978 26.6184 9.41811 23.8559L6.21917 17.8551C5.6624 16.7614 6.0977 15.4234 7.19144 14.8666C8.28519 14.3098 9.62319 14.7451 10.18 15.8389L11.745 18.8852C11.9848 19.3519 12.6898 19.1814 12.6898 18.6567V8.77923C12.6898 7.55193 13.6847 6.55701 14.912 6.55701C16.1393 6.55701 17.1342 7.55193 17.1342 8.77923V16.0556" stroke="#1C1B1F" stroke-width="2" stroke-linecap="round" stroke-linejoin="round"/>
</svg>
