<svg width="32" height="33" viewBox="0 0 32 33" fill="none" xmlns="http://www.w3.org/2000/svg">
<path d="M21.2597 4.5L20.8367 6.07878" stroke="#1C1B1F" stroke-width="2" stroke-linecap="round" stroke-linejoin="round"/>
<path d="M24.3464 5.93933L23.4089 7.27822" stroke="#1C1B1F" stroke-width="2" stroke-linecap="round" stroke-linejoin="round"/>
<path d="M26.7549 8.34778L25.416 9.28528" stroke="#1C1B1F" stroke-width="2" stroke-linecap="round" stroke-linejoin="round"/>
<path d="M10.9662 20.5034L7.15243 13.8978C6.65093 13.0292 6.94854 11.9185 7.81716 11.417C8.68578 10.9155 9.79648 11.2131 10.298 12.0817L14.1118 18.6873" stroke="#1C1B1F" stroke-width="2" stroke-linecap="round"/>
<path d="M10.9662 20.5036L8.6344 16.4648C8.13291 15.5961 7.02221 15.2985 6.15358 15.8C5.28496 16.3015 4.98735 17.4122 5.48885 18.2808L9.33895 24.9494C11.3088 28.3613 15.6986 29.5148 19.1437 27.5257C21.5342 26.1456 22.8418 23.615 22.7602 21.0552L22.5722 15.501C22.5193 14.4994 21.6645 13.7303 20.6629 13.7832C19.6613 13.836 18.8922 14.6909 18.9451 15.6925L19.0822 18.488C19.1032 18.9163 18.5346 19.0837 18.3202 18.7124L14.2841 11.7216C13.7826 10.853 12.6719 10.5553 11.8033 11.0568C10.9346 11.5583 10.637 12.669 11.1385 13.5377L14.1118 18.6875" stroke="#1C1B1F" stroke-width="2" stroke-linecap="round" stroke-linejoin="round"/>
<path d="M8.09137 10.7573L7.1122 9.25245C6.63021 8.37771 6.93664 7.27813 7.80157 6.77876C8.67887 6.27225 9.80067 6.57284 10.3072 7.45013L12.0185 10.6154" stroke="#1C1B1F" stroke-width="2" stroke-linecap="round"/>
<path d="M11.9711 10.3552L11.1385 8.89033C10.637 8.02171 10.9346 6.911 11.8032 6.40951C12.6719 5.90801 13.7826 6.20562 14.2841 7.07424L18.3202 14.065C18.5346 14.4363 19.1032 14.2689 19.0822 13.8407L18.9451 11.0451C18.8922 10.0435 19.6613 9.18871 20.6629 9.13584C21.6645 9.08297 22.3608 9.83318 22.4137 10.8348L22.6017 16.389" stroke="#1C1B1F" stroke-width="2" stroke-linecap="round" stroke-linejoin="round"/>
</svg>
