<svg width="33" height="33" viewBox="0 0 33 33" fill="none" xmlns="http://www.w3.org/2000/svg">
<path fill-rule="evenodd" clip-rule="evenodd" d="M13.0905 5.52299C13.9947 4.61881 15.221 4.11084 16.4997 4.11084C17.7784 4.11084 19.0048 4.61881 19.9089 5.52299C20.6351 6.24913 21.1057 7.18305 21.2629 8.185H11.7366C11.8937 7.18305 12.3643 6.24913 13.0905 5.52299ZM9.67832 10.185V13.5893C9.67832 14.1416 10.126 14.5893 10.6783 14.5893C11.2306 14.5893 11.6783 14.1416 11.6783 13.5893V10.185H21.3211V13.5893C21.3211 14.1416 21.7688 14.5893 22.3211 14.5893C22.8734 14.5893 23.3211 14.1416 23.3211 13.5893V10.185H28.2765L30.3801 28.889H2.61951L4.72313 10.185H9.67832ZM9.71935 8.185C9.88839 6.65071 10.5744 5.21067 11.6763 4.10878C12.9555 2.82952 14.6906 2.11084 16.4997 2.11084C18.3089 2.11084 20.0439 2.82952 21.3232 4.10878C22.425 5.21067 23.111 6.65071 23.2801 8.185H29.1703C29.6794 8.185 30.1072 8.56739 30.1641 9.07324L32.4926 29.7773C32.5244 30.0601 32.4342 30.3432 32.2445 30.5554C32.0548 30.7677 31.7836 30.889 31.4989 30.889H1.50074C1.21606 30.889 0.944877 30.7677 0.755162 30.5554C0.565448 30.3432 0.475186 30.0601 0.507003 29.7773L2.83556 9.07324C2.89245 8.56739 3.32026 8.185 3.82929 8.185H9.71935Z" fill="#111827"/>
</svg>
