<svg width="33" height="33" viewBox="0 0 33 33" fill="none" xmlns="http://www.w3.org/2000/svg">
<path fill-rule="evenodd" clip-rule="evenodd" d="M16.0823 15.9444C16.0823 16.0965 16.0483 16.2407 15.9875 16.3698C15.8277 16.7094 15.4824 16.9445 15.0822 16.9445C14.5299 16.9445 14.0822 16.4968 14.0822 15.9445V6.84965L14.0823 6.82539V4.27846C14.0823 3.29671 13.2864 2.50085 12.3047 2.50085C11.3229 2.50085 10.5271 3.29671 10.5271 4.27846V15.9444C10.5271 16.0771 10.5012 16.2038 10.4543 16.3196C10.3059 16.6861 9.94664 16.9446 9.527 16.9446C8.97472 16.9446 8.527 16.4968 8.527 15.9446V8.81174C8.527 7.83 7.73114 7.03414 6.7494 7.03414C5.76766 7.03414 4.9718 7.83 4.9718 8.81174V20.5888C4.9718 26.053 9.44722 30.4991 14.9883 30.4991C18.8301 30.4991 22.1639 28.3602 23.8448 25.223L23.8452 25.2221L27.8378 17.7326C28.2773 16.8591 27.9286 15.7936 27.0562 15.3495C26.1813 14.9042 25.111 15.2524 24.6657 16.1273L24.6639 16.1306L22.4716 20.3979C21.9916 21.3321 20.8901 21.4151 20.2103 20.8992C18.2033 21.2311 16.9346 22.6348 16.9346 23.9983C16.9346 24.5506 16.4869 24.9983 15.9346 24.9983C15.3823 24.9983 14.9346 24.5506 14.9346 23.9983C14.9346 21.429 17.0539 19.5168 19.6374 18.9788V6.84965C19.6374 5.86791 18.8415 5.07205 17.8598 5.07205C16.8836 5.07205 16.0912 5.85893 16.0823 6.83301V15.9444ZM8.52708 4.27846V5.47771C7.99726 5.19462 7.39208 5.03414 6.7494 5.03414C4.66309 5.03414 2.9718 6.72543 2.9718 8.81174V20.5888C2.9718 27.1758 8.36096 32.4991 14.9883 32.4991C19.5897 32.4991 23.5899 29.9346 25.6082 26.1665L25.6092 26.1647L29.6076 18.6642L29.6163 18.6474C30.5628 16.7881 29.8228 14.5136 27.9635 13.5672C26.1048 12.621 23.8312 13.3602 22.8842 15.2183L22.8833 15.22L21.6374 17.645V6.84965C21.6374 4.76334 19.9461 3.07205 17.8598 3.07205C17.1889 3.07205 16.5589 3.24694 16.0128 3.5536C15.6747 1.81407 14.1431 0.500854 12.3047 0.500854C10.2184 0.500854 8.52708 2.19214 8.52708 4.27846Z" fill="#111827"/>
</svg>
