<svg width="33" height="32" viewBox="0 0 33 32" fill="none" xmlns="http://www.w3.org/2000/svg">
<path fill-rule="evenodd" clip-rule="evenodd" d="M1.50092 6.92358C0.948631 6.92358 0.500916 7.3713 0.500916 7.92358V24.0764C0.500916 24.6287 0.948631 25.0764 1.50092 25.0764H31.4991C32.0514 25.0764 32.4991 24.6287 32.4991 24.0764V7.92358C32.4991 7.3713 32.0514 6.92358 31.4991 6.92358H1.50092ZM2.50092 23.0764V8.92358H30.4991V23.0764H2.50092ZM26.884 16C26.884 16.9558 26.1091 17.7306 25.1533 17.7306C24.1975 17.7306 23.4226 16.9558 23.4226 16C23.4226 15.0441 24.1975 14.2693 25.1533 14.2693C26.1091 14.2693 26.884 15.0441 26.884 16Z" fill="#111827"/>
</svg>
