<svg width="32" height="32" viewBox="0 0 32 32" fill="none" xmlns="http://www.w3.org/2000/svg">
<path d="M23.0909 11.091C23.9947 11.091 24.7273 10.3583 24.7273 9.4546C24.7273 8.55086 23.9947 7.81824 23.0909 7.81824C22.1872 7.81824 21.4546 8.55086 21.4546 9.4546C21.4546 10.3583 22.1872 11.091 23.0909 11.091Z" fill="#1C1B1F"/>
<path d="M23.0909 24.1818C23.9947 24.1818 24.7273 23.4492 24.7273 22.5455C24.7273 21.6417 23.9947 20.9091 23.0909 20.9091C22.1872 20.9091 21.4546 21.6417 21.4546 22.5455C21.4546 23.4492 22.1872 24.1818 23.0909 24.1818Z" fill="#1C1B1F"/>
<path d="M4 5.09094H28V13.8182H4V5.09094Z" stroke="#1C1B1F" stroke-width="2" stroke-linejoin="round"/>
<path d="M4 18.1818H28V26.9091H4V18.1818Z" stroke="#1C1B1F" stroke-width="2" stroke-linejoin="round"/>
</svg>
