<svg width="33" height="32" viewBox="0 0 33 32" fill="none" xmlns="http://www.w3.org/2000/svg">
<path fill-rule="evenodd" clip-rule="evenodd" d="M24.4838 3.34532C24.5826 2.80194 24.2222 2.28136 23.6788 2.18256C23.1354 2.08377 22.6149 2.44417 22.5161 2.98755L21.1805 10.3333H13.8801L15.1507 3.34532C15.2495 2.80194 14.889 2.28136 14.3457 2.18256C13.8023 2.08377 13.2817 2.44417 13.1829 2.98755L11.8473 10.3333H4.1968C3.64452 10.3333 3.1968 10.781 3.1968 11.3333C3.1968 11.8856 3.64452 12.3333 4.1968 12.3333H11.4837L10.1503 19.6667H2.49976C1.94747 19.6667 1.49976 20.1144 1.49976 20.6667C1.49976 21.219 1.94747 21.6667 2.49976 21.6667H9.78671L8.51617 28.6547C8.41737 29.198 8.77778 29.7186 9.32115 29.8174C9.86453 29.9162 10.3851 29.5558 10.4839 29.0124L11.8195 21.6667H19.1198L17.8493 28.6547C17.7505 29.198 18.1109 29.7186 18.6543 29.8174C19.1977 29.9162 19.7183 29.5558 19.8171 29.0124L21.1526 21.6667H28.8033C29.3555 21.6667 29.8033 21.219 29.8033 20.6667C29.8033 20.1144 29.3555 19.6667 28.8033 19.6667H21.5163L22.8496 12.3333H30.5003C31.0526 12.3333 31.5003 11.8856 31.5003 11.3333C31.5003 10.781 31.0526 10.3333 30.5003 10.3333H23.2133L24.4838 3.34532ZM19.4835 19.6667L20.8168 12.3333H13.5165L12.1831 19.6667H19.4835Z" fill="#111827"/>
</svg>
