<svg width="33" height="32" viewBox="0 0 33 32" fill="none" xmlns="http://www.w3.org/2000/svg">
<path fill-rule="evenodd" clip-rule="evenodd" d="M21.5905 1.00165C22.1427 1.00165 22.5905 1.44936 22.5905 2.00165V9.90965H30.4984C31.0507 9.90965 31.4984 10.3574 31.4984 10.9097C31.4984 11.4619 31.0507 11.9097 30.4984 11.9097H22.5905V20.0903H30.4984C31.0507 20.0903 31.4984 20.538 31.4984 21.0903C31.4984 21.6426 31.0507 22.0903 30.4984 22.0903H22.5905V29.9983C22.5905 30.5506 22.1427 30.9983 21.5905 30.9983C21.0382 30.9983 20.5905 30.5506 20.5905 29.9983V22.0903H12.4095V29.9983C12.4095 30.5506 11.9618 30.9983 11.4095 30.9983C10.8572 30.9983 10.4095 30.5506 10.4095 29.9983V22.0903H2.50171C1.94942 22.0903 1.50171 21.6426 1.50171 21.0903C1.50171 20.538 1.94942 20.0903 2.50171 20.0903H10.4095V11.9097H2.50171C1.94942 11.9097 1.50171 11.4619 1.50171 10.9097C1.50171 10.3574 1.94942 9.90965 2.50171 9.90965H10.4095V2.00165C10.4095 1.44936 10.8572 1.00165 11.4095 1.00165C11.9618 1.00165 12.4095 1.44936 12.4095 2.00165V9.90965H20.5905V2.00165C20.5905 1.44936 21.0382 1.00165 21.5905 1.00165ZM12.4095 11.9097V20.0903H20.5905V11.9097H12.4095Z" fill="#111827"/>
</svg>
