<svg width="33" height="33" viewBox="0 0 33 33" fill="none" xmlns="http://www.w3.org/2000/svg">
<path d="M31.5 18.2814V26.9656V29.6054H23.8542V18.2814H31.5ZM31.5 18.2814C31.5 16.3169 31.1112 14.3718 30.356 12.5583C29.6007 10.7448 28.494 9.09864 27.0997 7.7148C25.7053 6.33096 24.0508 5.23678 22.2316 4.49533C20.4124 3.75388 18.4644 3.37982 16.5 3.39471C14.5356 3.37982 12.5876 3.75388 10.7684 4.49533C8.94916 5.23678 7.29469 6.33096 5.90032 7.7148C4.50595 9.09864 3.39926 10.7448 2.64404 12.5583C1.88882 14.3718 1.5 16.3169 1.5 18.2814M1.5 18.2814V26.9656V29.6054H8.91909V18.2814H1.5Z" stroke="#111827" stroke-width="2" stroke-linecap="round" stroke-linejoin="round"/>
</svg>
