<svg width="32" height="33" viewBox="0 0 32 33" fill="none" xmlns="http://www.w3.org/2000/svg">
<path d="M27.0428 15.4598V21.853V23.7964H21.414V15.4598H27.0428ZM27.0428 15.4598C27.0428 14.0135 26.7566 12.5816 26.2006 11.2465C25.6446 9.91137 24.8299 8.6995 23.8033 7.68073C22.7768 6.66196 21.5588 5.85643 20.2195 5.31058C18.8802 4.76473 17.4461 4.48935 15.9999 4.50031C14.5537 4.48935 13.1196 4.76473 11.7803 5.31058C10.4411 5.85643 9.22304 6.66196 8.19652 7.68073C7.16999 8.6995 6.35525 9.91137 5.79926 11.2465C5.24328 12.5816 4.95703 14.0135 4.95703 15.4598M4.95703 15.4598V21.853V23.7964H10.4189V15.4598H4.95703Z" stroke="#1C1B1F" stroke-width="2" stroke-linecap="round" stroke-linejoin="round"/>
<path d="M16.7885 28.5H24.0429C25.6997 28.5 27.0429 27.1568 27.0429 25.5V21.3967" stroke="#1C1B1F" stroke-width="2" stroke-linecap="round" stroke-linejoin="round"/>
</svg>
