<svg width="32" height="33" viewBox="0 0 32 33" fill="none" xmlns="http://www.w3.org/2000/svg">
<path d="M28 17.9253V24.8727V26.9845H21.8834V17.9253H28ZM28 17.9253C28 16.3537 27.6889 14.7977 27.0848 13.3468C26.4806 11.896 25.5952 10.5791 24.4797 9.47203C23.3642 8.36496 22.0407 7.48962 20.5853 6.89646C19.1299 6.3033 17.5716 6.00405 16 6.01597C14.4284 6.00405 12.8701 6.3033 11.4147 6.89646C9.95933 7.48962 8.63575 8.36496 7.52026 9.47203C6.40476 10.5791 5.51941 11.896 4.91523 13.3468C4.31105 14.7977 4 16.3537 4 17.9253M4 17.9253V24.8727V26.9845H9.93527V17.9253H4Z" stroke="#1C1B1F" stroke-width="2" stroke-linecap="round" stroke-linejoin="round"/>
</svg>
