<svg width="33" height="33" viewBox="0 0 33 33" fill="none" xmlns="http://www.w3.org/2000/svg">
<path fill-rule="evenodd" clip-rule="evenodd" d="M22.1515 1.58786C20.3577 0.856734 18.437 0.487413 16.5 0.501099C14.5629 0.487413 12.6422 0.856734 10.8484 1.58786C9.05215 2.31994 7.41859 3.40028 6.04184 4.76663C4.6651 6.13297 3.5724 7.7583 2.82672 9.54891C2.08105 11.3395 1.69714 13.26 1.69714 15.1997V23.1907V25.6198C1.69714 26.1721 2.14486 26.6198 2.69714 26.6198H9.52409C10.0764 26.6198 10.5241 26.1721 10.5241 25.6198V15.1997C10.5241 14.6474 10.0764 14.1997 9.52409 14.1997H3.73658C3.84189 12.8665 4.15731 11.5562 4.67303 10.3178C5.31724 8.7708 6.26127 7.36663 7.45069 6.18619C8.6401 5.00576 10.0514 4.07241 11.6032 3.43994C13.155 2.80747 14.8167 2.48839 16.4924 2.5011H16.5075C18.1832 2.48839 19.8449 2.80747 21.3967 3.43994C22.9485 4.07241 24.3598 5.00576 25.5492 6.18619C26.7386 7.36663 27.6827 8.7708 28.3269 10.3178C28.8426 11.5562 29.158 12.8665 29.2633 14.1997H23.2672C22.7149 14.1997 22.2672 14.6474 22.2672 15.1997V25.6198C22.2672 26.1721 22.7149 26.6198 23.2672 26.6198H29.3029V28.499C29.3029 29.6036 28.4075 30.499 27.3029 30.499H17.4856C16.9333 30.499 16.4856 30.9467 16.4856 31.499C16.4856 32.0513 16.9333 32.499 17.4856 32.499H27.3029C29.512 32.499 31.3029 30.7081 31.3029 28.499V22.6204C31.3029 22.6152 31.3028 22.6099 31.3028 22.6047V15.1997C31.3028 13.26 30.9189 11.3395 30.1732 9.54891C29.4275 7.7583 28.3348 6.13298 26.9581 4.76663C25.5813 3.40028 23.9478 2.31994 22.1515 1.58786ZM3.69714 23.1907V16.1997H8.52409V24.6198H3.69714V23.1907ZM24.2672 16.1997H29.3028V23.1907V24.6198H24.2672V16.1997Z" fill="#111827"/>
</svg>
