<svg width="33" height="32" viewBox="0 0 33 32" fill="none" xmlns="http://www.w3.org/2000/svg">
<path fill-rule="evenodd" clip-rule="evenodd" d="M0.500854 16C0.500854 21.8776 5.26556 26.6423 11.1431 26.6423H17.5713C18.1236 26.6423 18.5713 26.1946 18.5713 25.6423V6.35773C18.5713 5.80544 18.1236 5.35773 17.5713 5.35773H11.1431C5.26556 5.35773 0.500854 10.1224 0.500854 16ZM11.1431 24.6423C6.37013 24.6423 2.50085 20.773 2.50085 16C2.50085 11.227 6.37013 7.35773 11.1431 7.35773H16.5713V24.6423H11.1431ZM21.8568 8.57189C21.3045 8.57189 20.8568 9.01961 20.8568 9.57189C20.8568 10.1242 21.3045 10.5719 21.8568 10.5719H31.499C32.0513 10.5719 32.499 10.1242 32.499 9.57189C32.499 9.01961 32.0513 8.57189 31.499 8.57189H21.8568ZM21.8568 21.4282C21.3045 21.4282 20.8568 21.8759 20.8568 22.4282C20.8568 22.9805 21.3045 23.4282 21.8568 23.4282H31.499C32.0513 23.4282 32.499 22.9805 32.499 22.4282C32.499 21.8759 32.0513 21.4282 31.499 21.4282H21.8568ZM20.8568 16C20.8568 15.4477 21.3045 15 21.8568 15H31.499C32.0513 15 32.499 15.4477 32.499 16C32.499 16.5522 32.0513 17 31.499 17H21.8568C21.3045 17 20.8568 16.5522 20.8568 16Z" fill="#111827"/>
</svg>
