<svg width="33" height="33" viewBox="0 0 33 33" fill="none" xmlns="http://www.w3.org/2000/svg">
<path d="M16.5 29.7001C16.5 29.7001 1.5 21.3001 1.5 11.1001C1.50031 9.29726 2.12498 7.55021 3.26782 6.15593C4.41066 4.76166 6.00111 3.80622 7.76878 3.45207C9.53645 3.09792 11.3722 3.36691 12.964 4.21331C14.5557 5.05971 15.8052 6.43127 16.5 8.09481L16.5 8.09482C17.1948 6.43128 18.4443 5.05972 20.036 4.21332C21.6278 3.36691 23.4635 3.09792 25.2312 3.45207C26.9989 3.80622 28.5893 4.76166 29.7322 6.15593C30.875 7.55021 31.4997 9.29726 31.5 11.1001C31.5 21.3001 16.5 29.7001 16.5 29.7001Z" stroke="#111827" stroke-width="2" stroke-linecap="round" stroke-linejoin="round"/>
</svg>
