<svg width="32" height="32" viewBox="0 0 32 32" fill="none" xmlns="http://www.w3.org/2000/svg">
<path d="M15.796 8.83166C15.1577 7.58314 14.1175 6.586 12.8431 6.00103C11.5687 5.41607 10.1345 5.27739 8.77162 5.60736C7.40877 5.93733 6.19678 6.71671 5.33111 7.81981C4.46543 8.92291 3.99653 10.2854 4.00002 11.6877C4.00002 19.8477 16 26.5676 16 26.5676C16 26.5676 28 19.8477 28 11.6877C28.0014 10.4524 27.6363 9.24458 26.9507 8.21708C26.2651 7.18957 25.29 6.38865 24.1489 5.91575C23.0078 5.44286 21.752 5.31928 20.5406 5.56065C19.3292 5.80203 18.2167 6.39751 17.344 7.27167L13.504 11.1117L17.344 14.9517L15.424 16.8717" stroke="#1C1B1F" stroke-width="2" stroke-linecap="round" stroke-linejoin="round"/>
</svg>
