<svg width="33" height="33" viewBox="0 0 33 33" fill="none" xmlns="http://www.w3.org/2000/svg">
<path d="M17.3662 28.7653L29.0907 17.0408C31.9716 14.16 32.3966 9.4206 29.6703 6.39307C28.9875 5.63253 28.1568 5.0191 27.229 4.59021C26.3012 4.16131 25.2958 3.92595 24.274 3.89847C23.2523 3.87099 22.2356 4.05198 21.2861 4.4304C20.3366 4.80881 19.4742 5.37671 18.7514 6.09945L16.5477 8.30313L14.6451 6.40047C11.7642 3.51964 7.02485 3.09462 3.99732 5.82086C3.23678 6.50374 2.62335 7.33441 2.19446 8.2622C1.76556 9.18998 1.5302 10.1954 1.50272 11.2172C1.47524 12.2389 1.65623 13.2556 2.03464 14.2051C2.41306 15.1546 2.98096 16.017 3.7037 16.7398L15.7292 28.7653C15.9463 28.9824 16.2407 29.1044 16.5477 29.1044C16.8547 29.1044 17.1491 28.9824 17.3662 28.7653V28.7653Z" stroke="#111827" stroke-width="2" stroke-linecap="round" stroke-linejoin="round"/>
</svg>
