<svg width="33" height="32" viewBox="0 0 33 32" fill="none" xmlns="http://www.w3.org/2000/svg">
<path d="M17.3662 28.2653L29.0907 16.5408C31.9716 13.66 32.3966 8.9206 29.6703 5.89307C28.9875 5.13253 28.1568 4.5191 27.229 4.09021C26.3012 3.66131 25.2958 3.42595 24.274 3.39847C23.2523 3.37099 22.2356 3.55198 21.2861 3.9304C20.3366 4.30881 19.4742 4.87671 18.7514 5.59945L16.5477 7.80313L14.6451 5.90047C11.7642 3.01964 7.02485 2.59462 3.99732 5.32086C3.23678 6.00374 2.62335 6.83441 2.19446 7.7622C1.76556 8.68998 1.5302 9.69543 1.50272 10.7172C1.47524 11.7389 1.65623 12.7556 2.03464 13.7051C2.41306 14.6546 2.98096 15.517 3.7037 16.2398L15.7292 28.2653C15.9463 28.4824 16.2407 28.6044 16.5477 28.6044C16.8547 28.6044 17.1491 28.4824 17.3662 28.2653V28.2653Z" stroke="#111827" stroke-width="2" stroke-linecap="round" stroke-linejoin="round"/>
</svg>
