<svg width="32" height="32" viewBox="0 0 32 32" fill="none" xmlns="http://www.w3.org/2000/svg">
<path d="M16 26.56C16 26.56 4 19.84 4 11.68C4.00024 10.2377 4.49998 8.84007 5.41425 7.72465C6.32852 6.60923 7.60089 5.84488 9.01503 5.56156C10.4292 5.27824 11.8978 5.49343 13.1712 6.17055C14.4446 6.84767 15.4442 7.94492 16 9.27575L16 9.27576C16.5558 7.94493 17.5554 6.84768 18.8288 6.17055C20.1022 5.49343 21.5708 5.27824 22.985 5.56156C24.3991 5.84488 25.6715 6.60923 26.5857 7.72465C27.5 8.84007 27.9998 10.2377 28 11.68C28 19.84 16 26.56 16 26.56Z" stroke="#1C1B1F" stroke-width="2" stroke-linecap="round" stroke-linejoin="round"/>
</svg>
