<svg width="32" height="32" viewBox="0 0 32 32" fill="none" xmlns="http://www.w3.org/2000/svg">
<path d="M4.47998 16H9.27998L11.2 13.12L15.04 18.88L16.96 16H19.84" stroke="#1C1B1F" stroke-width="2" stroke-linecap="round" stroke-linejoin="round"/>
<path d="M4.01371 12.1592C4.00463 12.0001 4.00006 11.8403 4 11.68C4.00024 10.2378 4.49998 8.84013 5.41425 7.72471C6.32852 6.60929 7.60089 5.84494 9.01503 5.56162C10.4292 5.2783 11.8978 5.49349 13.1712 6.17061C14.4446 6.84773 15.4442 7.94498 16 9.27581L16 9.27582C16.5558 7.94499 17.5554 6.84774 18.8288 6.17062C20.1022 5.49349 21.5708 5.2783 22.985 5.56162C24.3991 5.84494 25.6715 6.60929 26.5857 7.72471C27.5 8.84013 27.9998 10.2378 28 11.68C28 19.84 16 26.56 16 26.56C16 26.56 11.2066 23.8757 7.6789 19.8401" stroke="#1C1B1F" stroke-width="2" stroke-linecap="round" stroke-linejoin="round"/>
</svg>
