<svg width="33" height="32" viewBox="0 0 33 32" fill="none" xmlns="http://www.w3.org/2000/svg">
<path d="M1.93811 10.7108C1.93841 8.93435 2.55396 7.21281 3.68011 5.8389C4.80626 4.46498 6.37349 3.5235 8.11535 3.17452C9.8572 2.82554 11.6662 3.0906 13.2347 3.92464C14.8032 4.75868 16.0344 6.11022 16.7191 7.74946C17.4037 6.11021 18.6349 4.75869 20.2034 3.92465C21.7719 3.09061 23.5809 2.82554 25.3228 3.17452C27.0646 3.5235 28.6318 4.46498 29.758 5.8389C30.8841 7.21281 31.4997 8.93435 31.5 10.7108C31.5 20.0425 18.7592 27.8452 16.9354 28.9144C16.7967 28.9956 16.6414 28.9956 16.5027 28.9144C15.317 28.2193 9.51724 24.6782 5.60391 19.7213" stroke="#111827" stroke-width="2" stroke-linecap="round" stroke-linejoin="round"/>
<path d="M21.4489 16.032H17.9014L15.5365 19.5794L10.8066 12.4846L8.44162 16.032H1.5" stroke="#111827" stroke-width="2" stroke-linecap="round" stroke-linejoin="round"/>
<path d="M21.4489 16.032H17.9014L15.5365 19.5794L10.8066 12.4846L8.44162 16.032H1.5" stroke="#111827" stroke-width="2" stroke-linecap="round" stroke-linejoin="round"/>
</svg>
