<svg width="33" height="33" viewBox="0 0 33 33" fill="none" xmlns="http://www.w3.org/2000/svg">
<path d="M16.245 7.5397C15.4471 5.97905 14.1469 4.73262 12.5539 4.00141C10.9609 3.27021 9.16808 3.09686 7.46452 3.50932C5.76096 3.92178 4.24598 4.89601 3.16388 6.27489C2.08179 7.65377 1.49566 9.35692 1.50002 11.1097C1.50002 21.3097 16.5 29.7097 16.5 29.7097C16.5 29.7097 31.5 21.3097 31.5 11.1097C31.5018 9.56568 31.0453 8.05585 30.1884 6.77147C29.3314 5.48709 28.1126 4.48593 26.6862 3.89481C25.2598 3.3037 23.69 3.14922 22.1758 3.45094C20.6615 3.75266 19.2709 4.49701 18.18 5.5897L13.38 10.3897L18.18 15.1897L15.78 17.5897" stroke="#111827" stroke-width="2" stroke-linecap="round" stroke-linejoin="round"/>
</svg>
