<svg width="33" height="33" viewBox="0 0 33 33" fill="none" xmlns="http://www.w3.org/2000/svg">
<path fill-rule="evenodd" clip-rule="evenodd" d="M24.303 2.89758C23.1448 2.86537 21.9922 3.06964 20.9157 3.49791C19.8391 3.92617 18.8611 4.56945 18.0415 5.38843L18.039 5.39101L16.5497 6.89007L15.3639 5.6952L15.3639 5.69519L15.3594 5.69074C12.1426 2.49 6.80949 1.95504 3.33819 5.07664C2.47533 5.84928 1.779 6.78968 1.29171 7.84043C0.804263 8.89154 0.536242 10.031 0.504028 11.1892C0.471813 12.3474 0.676081 13.5 1.10435 14.5766C1.53262 15.6532 2.1759 16.6311 2.99488 17.4507L2.99514 17.4509L15.0176 29.4734L15.021 29.4768C15.4277 29.8796 15.9769 30.1056 16.5493 30.1056C17.1217 30.1056 17.671 29.8796 18.0777 29.4768L17.3739 28.7662L18.0811 29.4734L29.7997 17.7548L29.8015 17.753C33.0022 14.5362 33.5372 9.20304 30.4156 5.73174C29.6429 4.86888 28.7025 4.17255 27.6518 3.68527C26.6007 3.19782 25.4612 2.9298 24.303 2.89758ZM16.6703 28.0558L16.6693 28.0568C16.6372 28.088 16.5942 28.1056 16.5493 28.1056C16.5045 28.1056 16.4615 28.088 16.4294 28.0568L16.4284 28.0558L4.40961 16.037L4.40935 16.0367C3.78267 15.4095 3.29044 14.6611 2.96271 13.8373C2.63493 13.0134 2.4786 12.1312 2.50325 11.2448C2.52791 10.3584 2.73304 9.48631 3.1061 8.68185C3.47917 7.87739 4.01234 7.15744 4.67304 6.56599L4.67483 6.56439C7.25023 4.24776 11.3766 4.55129 13.9467 7.10639L15.1688 8.33791L13.4968 10.1667C13.1358 10.5615 13.1495 11.1704 13.5277 11.5486L17.4502 15.4711L15.8425 17.0788C15.452 17.4693 15.452 18.1025 15.8425 18.493C16.233 18.8835 16.8662 18.8835 17.2567 18.493L19.5715 16.1782C19.962 15.7877 19.962 15.1545 19.5715 14.764L15.6181 10.8106L17.2809 8.99177L19.4552 6.80316L19.4565 6.80194C20.0835 6.17572 20.8315 5.68382 21.6549 5.35626C22.4789 5.02849 23.361 4.87215 24.2474 4.89681C25.1338 4.92146 26.0059 5.12659 26.8104 5.49966C27.6148 5.87273 28.3348 6.4059 28.9262 7.0666L28.9278 7.06838C31.2449 9.64425 30.9408 13.7716 28.3845 16.3416L28.3837 16.3423L16.6703 28.0558Z" fill="#111827"/>
</svg>
