<svg width="33" height="32" viewBox="0 0 33 32" fill="none" xmlns="http://www.w3.org/2000/svg">
<path fill-rule="evenodd" clip-rule="evenodd" d="M24.303 2.39758C23.1448 2.36537 21.9922 2.56964 20.9157 2.99791C19.8391 3.42617 18.8611 4.06945 18.0415 4.88843L18.039 4.89101L16.5497 6.39007L15.3639 5.1952L15.3639 5.19519L15.3594 5.19074C12.1426 1.99 6.80949 1.45504 3.33819 4.57664C2.47533 5.34928 1.779 6.28968 1.29171 7.34043C0.804263 8.39154 0.536242 9.53101 0.504028 10.6892C0.471813 11.8474 0.676081 13 1.10435 14.0766C1.53262 15.1532 2.1759 16.1311 2.99488 16.9507L2.99514 16.9509L15.0176 28.9734L15.021 28.9768C15.4277 29.3796 15.9769 29.6056 16.5493 29.6056C17.1217 29.6056 17.671 29.3796 18.0777 28.9768L17.3739 28.2662L18.0811 28.9734L29.7997 17.2548L29.8015 17.253C33.0022 14.0362 33.5372 8.70304 30.4156 5.23174C29.6429 4.36888 28.7025 3.67255 27.6518 3.18527C26.6007 2.69782 25.4612 2.4298 24.303 2.39758ZM16.6703 27.5558L16.6693 27.5568C16.6372 27.588 16.5942 27.6056 16.5493 27.6056C16.5045 27.6056 16.4615 27.588 16.4294 27.5568L16.4284 27.5558L4.40961 15.537L4.40935 15.5367C3.78267 14.9095 3.29044 14.1611 2.96271 13.3373C2.63493 12.5134 2.4786 11.6312 2.50325 10.7448C2.52791 9.85839 2.73304 8.98631 3.1061 8.18185C3.47917 7.37739 4.01234 6.65744 4.67304 6.06599L4.67483 6.06439C7.25023 3.74776 11.3766 4.05129 13.9467 6.60639L15.1688 7.83791L13.4968 9.66674C13.1358 10.0615 13.1495 10.6704 13.5277 11.0486L17.4502 14.9711L15.8425 16.5788C15.452 16.9693 15.452 17.6025 15.8425 17.993C16.233 18.3835 16.8662 18.3835 17.2567 17.993L19.5715 15.6782C19.962 15.2877 19.962 14.6545 19.5715 14.264L15.6181 10.3106L17.2809 8.49177L19.4552 6.30316L19.4565 6.30194C20.0835 5.67572 20.8315 5.18382 21.6549 4.85626C22.4789 4.52849 23.361 4.37215 24.2474 4.39681C25.1338 4.42146 26.0059 4.62659 26.8104 4.99966C27.6148 5.37273 28.3348 5.9059 28.9262 6.5666L28.9278 6.56838C31.2449 9.14425 30.9408 13.2716 28.3845 15.8416L28.3837 15.8423L16.6703 27.5558Z" fill="#111827"/>
</svg>
