<svg width="33" height="32" viewBox="0 0 33 32" fill="none" xmlns="http://www.w3.org/2000/svg">
<path d="M16.245 7.0397C15.4471 5.47905 14.1469 4.23262 12.5539 3.50141C10.9609 2.77021 9.16808 2.59686 7.46452 3.00932C5.76096 3.42178 4.24598 4.39601 3.16388 5.77489C2.08179 7.15377 1.49566 8.85692 1.50002 10.6097C1.50002 20.8097 16.5 29.2097 16.5 29.2097C16.5 29.2097 31.5 20.8097 31.5 10.6097C31.5018 9.06568 31.0453 7.55585 30.1884 6.27147C29.3314 4.98709 28.1126 3.98593 26.6862 3.39481C25.2598 2.8037 23.69 2.64922 22.1758 2.95094C20.6615 3.25266 19.2709 3.99701 18.18 5.0897L13.38 9.8897L18.18 14.6897L15.78 17.0897" stroke="#111827" stroke-width="2" stroke-linecap="round" stroke-linejoin="round"/>
</svg>
