<svg width="32" height="32" viewBox="0 0 32 32" fill="none" xmlns="http://www.w3.org/2000/svg">
<path d="M16.6997 25.8138L26.0754 16.4381C28.3788 14.1232 28.7145 10.3381 26.5384 7.91898C25.9926 7.30934 25.3283 6.81738 24.586 6.47314C23.8437 6.1289 23.0391 5.93963 22.2211 5.91688C21.4032 5.89413 20.5893 6.03838 19.829 6.34082C19.0687 6.64327 18.3781 7.09755 17.7993 7.67591L16.0399 9.44688L14.5236 7.91898C12.2086 5.61557 8.4236 5.2799 6.00443 7.45599C5.39479 8.00173 4.90282 8.66604 4.55859 9.40833C4.21435 10.1506 4.02508 10.9553 4.00233 11.7732C3.97958 12.5911 4.12383 13.4051 4.42627 14.1654C4.72872 14.9257 5.183 15.6163 5.76136 16.1951L15.3801 25.8138C15.5557 25.9877 15.7928 26.0853 16.0399 26.0853C16.287 26.0853 16.5241 25.9877 16.6997 25.8138V25.8138Z" stroke="#1C1B1F" stroke-width="2" stroke-linecap="round" stroke-linejoin="round"/>
<path d="M16.04 9.44702L14.188 11.4726L17.892 15.1766L16.04 17.0286" stroke="#1C1B1F" stroke-width="2" stroke-linecap="round" stroke-linejoin="round"/>
</svg>
