<svg width="32" height="32" viewBox="0 0 32 32" fill="none" xmlns="http://www.w3.org/2000/svg">
<path d="M16.693 25.8122L26.0726 16.4326C28.3773 14.1279 28.7173 10.3364 26.5363 7.91436C25.99 7.30593 25.3254 6.81519 24.5832 6.47207C23.841 6.12895 23.0366 5.94066 22.2192 5.91868C21.4018 5.8967 20.5885 6.04149 19.8289 6.34422C19.0693 6.64695 18.3793 7.10127 17.8011 7.67946L16.0382 9.4424L14.5161 7.92028C12.2114 5.61561 8.41988 5.2756 5.99786 7.45659C5.38943 8.00289 4.89868 8.66743 4.55557 9.40966C4.21245 10.1519 4.02416 10.9562 4.00218 11.7737C3.98019 12.5911 4.12499 13.4044 4.42772 14.164C4.73045 14.9236 5.18477 15.6135 5.76296 16.1917L15.3834 25.8122C15.557 25.9858 15.7926 26.0834 16.0382 26.0834C16.2838 26.0834 16.5193 25.9858 16.693 25.8122V25.8122Z" stroke="#1C1B1F" stroke-width="2" stroke-linecap="round" stroke-linejoin="round"/>
</svg>
