<svg width="33" height="32" viewBox="0 0 33 32" fill="none" xmlns="http://www.w3.org/2000/svg">
<path d="M25.391 25.7358C26.3321 27.0793 26.6743 28.4615 26.157 28.8238C25.6396 29.1861 24.4579 28.3907 23.5168 27.0472C23.1706 26.5526 22.9072 26.0526 22.7361 25.6008C21.1908 26.6328 19.4035 27.2825 17.5253 27.4723C17.6336 27.9268 17.6991 28.4575 17.6991 29.031C17.6991 30.6712 17.1871 32 16.5548 32C15.9225 32 15.4105 30.6712 15.4105 29.031C15.4105 28.4695 15.4733 27.9522 15.5776 27.5044C13.6874 27.372 11.8814 26.7732 10.3053 25.788C10.1356 26.1903 9.90429 26.6181 9.60485 27.0472C8.66376 28.3907 7.48204 29.1861 6.9647 28.8238C6.44736 28.4615 6.78958 27.0793 7.73068 25.7358C8.04616 25.2853 8.38838 24.9043 8.72391 24.5996C8.0729 24.0154 7.48337 23.355 6.97406 22.6224L8.47661 21.5771C10.2746 24.1624 13.2275 25.7051 16.3743 25.7051C19.5292 25.7051 22.4848 24.1571 24.2828 21.5637L25.7867 22.6064C25.3215 23.2775 24.7881 23.8857 24.2052 24.4325C24.6009 24.7546 25.014 25.1984 25.391 25.7358ZM8.84957 7.51675C8.05418 8.21188 7.34702 9.01796 6.75616 9.93233L8.29347 10.9256C10.0741 8.1691 13.0952 6.52352 16.3757 6.52352C19.7644 6.52352 22.839 8.25332 24.5983 11.1501L26.1623 10.1997C25.5808 9.24254 24.875 8.39636 24.0769 7.66647C24.51 7.33896 24.9739 6.86039 25.391 6.26418C26.3321 4.92071 26.6743 3.53847 26.157 3.17621C25.6396 2.81394 24.4579 3.60932 23.5168 4.9528C23.1238 5.51291 22.8431 6.0757 22.6786 6.57298C21.1387 5.55569 19.3567 4.92606 17.4652 4.7496C17.6095 4.25232 17.6991 3.64007 17.6991 2.96767C17.6991 1.32877 17.1871 0 16.5548 0C15.9225 0 15.4105 1.32877 15.4105 2.969C15.4105 3.62537 15.4947 4.22692 15.6338 4.71752C13.7449 4.83783 11.9482 5.41933 10.3802 6.38449C10.2091 5.93533 9.94841 5.44206 9.60485 4.9528C8.66509 3.60932 7.48337 2.81527 6.96604 3.17754C6.4487 3.53981 6.79092 4.92205 7.73202 6.26552C8.08627 6.77082 8.47527 7.1986 8.84957 7.51675ZM1.12695 20.4154H3.32998V17.1109H5.81506V20.4167H8.01809V12.0886H5.8164V15.1886H3.32998V12.0886H1.12695V20.4154ZM9.86419 12.0886V20.4154H15.3731V18.5706H12.0672V17.0841H14.7836V15.2394H12.0672V13.932H15.2448V12.0872L9.86419 12.0886ZM16.9866 12.0886V20.4154H22.3418V18.5706H19.1896V12.0886H16.9866ZM23.7761 12.0886V20.4154H25.8V17.9557C25.8 17.7418 25.7893 17.5079 25.7679 17.2512C25.7466 16.9946 25.7225 16.7326 25.6971 16.4639C25.6717 16.1952 25.6409 15.9318 25.6075 15.6765C25.5728 15.4198 25.5434 15.1899 25.518 14.9854H25.5688L26.2345 16.9331L27.3881 19.739H28.2076L29.3599 16.9331L30.051 14.9854H30.1018C30.0764 15.1899 30.0457 15.4212 30.0122 15.6778C29.9775 15.9345 29.9481 16.1965 29.9227 16.4652C29.8973 16.7339 29.8732 16.9972 29.8518 17.2526C29.8304 17.5092 29.8197 17.7432 29.8197 17.9571V20.4167H31.873V12.0886H29.5925L28.3372 15.5482L27.8761 16.9063H27.8253L27.3641 15.5482L26.0567 12.0886H23.7761Z" fill="#111827"/>
</svg>
