<svg width="33" height="33" viewBox="0 0 33 33" fill="none" xmlns="http://www.w3.org/2000/svg">
<rect x="6.15894" y="4.25" width="21.6016" height="24" rx="2" stroke="#1C1B1F"/>
<path fill-rule="evenodd" clip-rule="evenodd" d="M18.1601 11.7493H20.5608C21.6455 10.5206 22.1983 9.21249 22.3603 7.84994H19.9619C19.6946 9.20983 19.1033 10.5103 18.1601 11.7493ZM21.3164 14.921C20.8307 14.4326 19.9439 13.8493 18.4608 13.8493C16.8337 13.8493 15.1577 14.2733 13.9598 14.6614V7.84998H11.5591V18.2573L13.2556 17.4888L13.2559 17.4886C13.2974 17.4701 16.025 16.25 18.4608 16.25C19.6789 16.25 19.9489 16.9207 19.9618 17.4811V24.6501H22.3599V17.4502C22.3625 17.2962 22.3473 15.9645 21.3164 14.921ZM14.2611 22.249L11.5592 24.6501V19.8486L14.2611 22.249Z" fill="#1C1B1F"/>
</svg>
