<svg width="33" height="32" viewBox="0 0 33 32" fill="none" xmlns="http://www.w3.org/2000/svg">
<path fill-rule="evenodd" clip-rule="evenodd" d="M4.99731 -0.00183105C3.34046 -0.00183105 1.99731 1.34131 1.99731 2.99817V29.0019C1.99731 30.6588 3.34046 32.0019 4.99732 32.0019H28.0027C29.6596 32.0019 31.0027 30.6588 31.0027 29.0019V2.99817C31.0027 1.34131 29.6596 -0.00183105 28.0027 -0.00183105H4.99731ZM3.99731 2.99817C3.99731 2.44588 4.44503 1.99817 4.99731 1.99817H28.0027C28.555 1.99817 29.0027 2.44589 29.0027 2.99817V29.0019C29.0027 29.5542 28.555 30.0019 28.0027 30.0019H4.99732C4.44503 30.0019 3.99731 29.5542 3.99731 29.0019V2.99817ZM20.2539 4.49868H19.4313L19.2726 5.30584C18.9703 6.84412 18.2998 8.33052 17.2057 9.76783L15.9833 11.3735H18.0014H21.0026H21.4538L21.7523 11.0353C23.2395 9.35057 24.0182 7.52673 24.2453 5.61676L24.3782 4.49868H23.2523H20.2539ZM19.8595 9.37355C20.3855 8.44442 20.7807 7.48573 21.0471 6.49868H22.0416C21.7717 7.48125 21.2901 8.44046 20.5384 9.37355H19.8595ZM9.74869 4.49872H8.74869V5.49872V18.5096V20.0604L8.74891 20.0603V20.499V26.5016V28.728L10.4132 27.249L13.7909 24.2473L14.6322 23.4997L13.7908 22.7523L10.4131 19.7514L10.0814 19.4567L10.1614 19.4205L12.2776 18.4617L12.2783 18.4614L12.2798 18.4607C12.3798 18.4162 15.5877 17.0001 18.3769 17.0001C18.9564 17.0001 19.1173 17.1551 19.1483 17.1884C19.1945 17.238 19.247 17.3421 19.2534 17.5523V26.5015V27.5015H20.2534H23.2514H24.2514V26.5015V17.5078C24.2553 17.1968 24.2179 15.2146 22.6583 13.6358L22.6559 13.6335C21.8843 12.8577 20.5285 11.9988 18.3769 11.9988C16.7525 11.9988 15.1151 12.3109 13.75 12.6757V5.49872V4.49872H12.75H9.74869ZM10.7487 16.9587V6.49872H11.75V14.0141V15.3892L13.0582 14.9654C14.5154 14.4933 16.4954 13.9988 18.3769 13.9988C19.932 13.9988 20.7933 14.5974 21.2365 15.0425C22.2356 16.0548 22.2534 17.3741 22.2515 17.4833L22.2514 17.4919V17.5006V25.5015H21.2534V17.5392V17.5276L21.2532 17.5161C21.242 17.0324 21.1186 16.3694 20.612 15.8254C20.0895 15.2644 19.3203 15.0001 18.3769 15.0001C15.111 15.0001 11.543 16.5993 11.4626 16.6353L11.4623 16.6354L11.462 16.6356L11.462 16.6355L11.4617 16.6357L11.457 16.6378L10.7487 16.9587ZM10.7489 24.2751V22.725L11.6211 23.4999L10.7489 24.2751Z" fill="#111827"/>
</svg>
