<svg width="33" height="34" viewBox="0 0 33 34" fill="none" xmlns="http://www.w3.org/2000/svg">
<path fill-rule="evenodd" clip-rule="evenodd" d="M4.99731 0.998169C3.34046 0.998169 1.99731 2.34131 1.99731 3.99817V30.0019C1.99731 31.6588 3.34046 33.0019 4.99732 33.0019H28.0027C29.6596 33.0019 31.0027 31.6588 31.0027 30.0019V3.99817C31.0027 2.34131 29.6596 0.998169 28.0027 0.998169H4.99731ZM3.99731 3.99817C3.99731 3.44588 4.44503 2.99817 4.99731 2.99817H28.0027C28.555 2.99817 29.0027 3.44589 29.0027 3.99817V30.0019C29.0027 30.5542 28.555 31.0019 28.0027 31.0019H4.99732C4.44503 31.0019 3.99731 30.5542 3.99731 30.0019V3.99817ZM20.2539 5.49868H19.4313L19.2726 6.30584C18.9703 7.84412 18.2998 9.33052 17.2057 10.7678L15.9833 12.3735H18.0014H21.0026H21.4538L21.7523 12.0353C23.2395 10.3506 24.0182 8.52673 24.2453 6.61676L24.3782 5.49868H23.2523H20.2539ZM19.8595 10.3735C20.3855 9.44442 20.7807 8.48573 21.0471 7.49868H22.0416C21.7717 8.48125 21.2901 9.44046 20.5384 10.3735H19.8595ZM9.74869 5.49872H8.74869V6.49872V19.5096V21.0604L8.74891 21.0603V21.499V27.5016V29.728L10.4132 28.249L13.7909 25.2473L14.6322 24.4997L13.7908 23.7523L10.4131 20.7514L10.0814 20.4567L10.1614 20.4205L12.2776 19.4617L12.2783 19.4614L12.2798 19.4607C12.3798 19.4162 15.5877 18.0001 18.3769 18.0001C18.9564 18.0001 19.1173 18.1551 19.1483 18.1884C19.1945 18.238 19.247 18.3421 19.2534 18.5523V27.5015V28.5015H20.2534H23.2514H24.2514V27.5015V18.5078C24.2553 18.1968 24.2179 16.2146 22.6583 14.6358L22.6559 14.6335C21.8843 13.8577 20.5285 12.9988 18.3769 12.9988C16.7525 12.9988 15.1151 13.3109 13.75 13.6757V6.49872V5.49872H12.75H9.74869ZM10.7487 17.9587V7.49872H11.75V15.0141V16.3892L13.0582 15.9654C14.5154 15.4933 16.4954 14.9988 18.3769 14.9988C19.932 14.9988 20.7933 15.5974 21.2365 16.0425C22.2356 17.0548 22.2534 18.3741 22.2515 18.4833L22.2514 18.4919V18.5006V26.5015H21.2534V18.5392V18.5276L21.2532 18.5161C21.242 18.0324 21.1186 17.3694 20.612 16.8254C20.0895 16.2644 19.3203 16.0001 18.3769 16.0001C15.111 16.0001 11.543 17.5993 11.4626 17.6353L11.4623 17.6354L11.462 17.6356L11.462 17.6355L11.4617 17.6357L11.457 17.6378L10.7487 17.9587ZM10.7489 25.2751V23.725L11.6211 24.4999L10.7489 25.2751Z" fill="#111827"/>
</svg>
