<svg width="33" height="32" viewBox="0 0 33 32" fill="none" xmlns="http://www.w3.org/2000/svg">
<path fill-rule="evenodd" clip-rule="evenodd" d="M4.99731 -0.00195312C3.34046 -0.00195312 1.99731 1.34119 1.99731 2.99805V29.0018C1.99731 30.6587 3.34046 32.0018 4.99732 32.0018H28.0027C29.6596 32.0018 31.0027 30.6587 31.0027 29.0018V2.99805C31.0027 1.34119 29.6596 -0.00195312 28.0027 -0.00195312H4.99731ZM3.99731 2.99805C3.99731 2.44576 4.44503 1.99805 4.99731 1.99805H28.0027C28.555 1.99805 29.0027 2.44576 29.0027 2.99805V29.0018C29.0027 29.5541 28.555 30.0018 28.0027 30.0018H4.99732C4.44503 30.0018 3.99731 29.5541 3.99731 29.0018V2.99805ZM21.0026 10.3734H18.0014C19.1805 8.82439 19.9198 7.19861 20.2539 5.49852H23.2523C23.0497 7.20193 22.3586 8.83726 21.0026 10.3734ZM18.3769 12.9987C20.231 12.9987 21.3396 13.7279 21.9469 14.3385C23.2356 15.643 23.2547 17.3078 23.2514 17.5004V26.5014H20.2534V17.539C20.2372 16.8384 19.8998 16 18.3769 16C15.3318 16 11.922 17.5251 11.87 17.5484L11.8696 17.5485L9.74869 18.5094V5.49856H12.75V14.0139C14.2475 13.5287 16.3427 12.9987 18.3769 12.9987ZM9.74891 26.5014L13.1267 23.4997L9.74891 20.4988V26.5014Z" fill="#111827"/>
</svg>
