<svg width="33" height="32" viewBox="0 0 33 32" fill="none" xmlns="http://www.w3.org/2000/svg">
<path fill-rule="evenodd" clip-rule="evenodd" d="M16.4998 2.00085C8.76834 2.00085 2.50073 8.26846 2.50073 15.9999C2.50073 21.0777 5.20415 25.524 9.25019 27.978V18.4998C9.25019 17.9475 9.69791 17.4998 10.2502 17.4998H11.75V11.0002C11.75 10.6215 11.964 10.2752 12.3028 10.1058L19.8024 6.35604C20.1124 6.20105 20.4805 6.21761 20.7753 6.39982C21.0701 6.58202 21.2496 6.90389 21.2496 7.25047V17.4998H22.7494C23.3017 17.4998 23.7494 17.9475 23.7494 18.4998V27.9781C27.7955 25.524 30.4989 21.0777 30.4989 15.9999C30.4989 8.26846 24.2313 2.00085 16.4998 2.00085ZM19.2496 17.4998V8.8685L13.75 11.6183V17.4998H19.2496ZM9.85867 30.5598C9.84177 30.5526 9.82511 30.545 9.80871 30.5369C4.31428 28.0037 0.500732 22.4472 0.500732 15.9999C0.500732 7.16389 7.66377 0.000854492 16.4998 0.000854492C25.3359 0.000854492 32.4989 7.16389 32.4989 15.9999C32.4989 22.4473 28.6852 28.0039 23.1907 30.537C23.1819 30.5413 23.1731 30.5455 23.1642 30.5496C23.1566 30.5531 23.1489 30.5564 23.1412 30.5597C21.1183 31.484 18.8692 31.999 16.4998 31.999C14.1305 31.999 11.8815 31.484 9.85867 30.5598ZM16.4998 29.999C18.3563 29.999 20.1283 29.6377 21.7494 28.9815V19.4998H11.2502V28.9814C12.8713 29.6377 14.6434 29.999 16.4998 29.999Z" fill="#111827"/>
</svg>
