<svg width="33" height="32" viewBox="0 0 33 32" fill="none" xmlns="http://www.w3.org/2000/svg">
<path fill-rule="evenodd" clip-rule="evenodd" d="M16.9991 6.94766V3.66075C17.3653 3.62821 17.7362 3.61157 18.1112 3.61157C24.9532 3.61157 30.4997 9.15808 30.4997 16C30.4997 22.842 24.9532 28.3885 18.1112 28.3885C16.7825 28.3885 15.5041 28.1797 14.3061 27.7935L17.6809 21.2305C19.3734 21.0212 20.9586 20.2536 22.1771 19.0351C23.62 17.5922 24.4306 15.6352 24.4306 13.5947C24.4306 13.0424 23.9829 12.5947 23.4306 12.5947C22.8783 12.5947 22.4306 13.0424 22.4306 13.5947C22.4306 15.1048 21.8307 16.5531 20.7629 17.6209C19.9057 18.4781 18.8034 19.0337 17.6206 19.2196C17.5346 19.1724 17.441 19.1375 17.3426 19.1171C14.9087 18.6126 12.9924 18.3325 11.1333 18.3244C9.4279 18.317 7.80611 18.5384 5.90509 18.9907L3.09665 16.1822L16.5287 7.79591C16.8213 7.61322 16.9991 7.29262 16.9991 6.94766ZM10.0144 25.3766C10.7559 26.0176 11.574 26.5719 12.4529 27.024L15.6428 20.8206C13.8868 20.4954 12.4721 20.3303 11.1246 20.3244C9.471 20.3172 7.87646 20.5498 5.84235 21.0656C5.50069 21.1523 5.13866 21.0527 4.88943 20.8034L0.793144 16.7071C0.577599 16.4916 0.472137 16.1895 0.5067 15.8867C0.541264 15.5838 0.712079 15.3132 0.970648 15.1518L14.9991 6.39311V2.77723C14.9991 2.28538 15.3568 1.86655 15.8426 1.78956C16.5822 1.67235 17.34 1.61157 18.1112 1.61157C26.0578 1.61157 32.4997 8.05351 32.4997 16C32.4997 23.9466 26.0578 30.3885 18.1112 30.3885C16.1274 30.3885 14.2348 29.9864 12.5126 29.2584C11.1173 28.6685 9.83502 27.8652 8.70649 26.8897C8.28866 26.5285 8.24271 25.8971 8.60387 25.4792C8.96503 25.0614 9.59652 25.0154 10.0144 25.3766ZM16.5611 13.7678C17.4851 13.7678 18.2341 13.0188 18.2341 12.0948C18.2341 11.1708 17.4851 10.4217 16.5611 10.4217C15.6371 10.4217 14.888 11.1708 14.888 12.0948C14.888 13.0188 15.6371 13.7678 16.5611 13.7678Z" fill="#111827"/>
</svg>
