<svg width="32" height="32" viewBox="0 0 32 32" fill="none" xmlns="http://www.w3.org/2000/svg">
<path d="M21.5447 14.0757C21.5447 15.496 20.9805 16.8581 19.9762 17.8624C18.9719 18.8667 17.6098 19.4309 16.1895 19.4309" stroke="#1C1B1F" stroke-width="2" stroke-linecap="round" stroke-linejoin="round"/>
<path d="M16.0493 14.215C16.7887 14.215 17.3881 13.6156 17.3881 12.8762C17.3881 12.1368 16.7887 11.5374 16.0493 11.5374C15.3099 11.5374 14.7104 12.1368 14.7104 12.8762C14.7104 13.6156 15.3099 14.215 16.0493 14.215Z" fill="#1C1B1F"/>
<path d="M10.2882 24.1067C11.1287 24.8331 12.0833 25.4311 13.1216 25.87M13.1216 25.87C14.4026 26.4115 15.8108 26.711 17.289 26.711C23.2045 26.711 28 21.9155 28 16C28 10.0845 23.2045 5.28906 17.289 5.28906C16.7141 5.28906 16.1497 5.33436 15.5993 5.42159V8.75799L4 16L7.27708 19.2771C10.6208 18.4292 12.6578 18.4783 16.5117 19.2771L13.1216 25.87Z" stroke="#1C1B1F" stroke-width="2" stroke-linecap="round" stroke-linejoin="round"/>
</svg>
