<svg width="33" height="33" viewBox="0 0 33 33" fill="none" xmlns="http://www.w3.org/2000/svg">
<path d="M8.28271 26.492C8.28271 25.4789 9.10394 24.6577 10.117 24.6577H24.3633C25.3764 24.6577 26.1976 25.4789 26.1976 26.492C26.1976 27.505 25.3764 28.3262 24.3633 28.3262H10.117C9.10394 28.3262 8.28271 27.505 8.28271 26.492Z" stroke="#111827" stroke-width="2"/>
<path d="M10.683 28.3259H23.7973L26.1976 31.5016H8.28271L10.683 28.3259Z" stroke="#111827" stroke-width="2" stroke-linejoin="round"/>
<path d="M6.80249 12.2463C8.0253 9.29229 11.4465 5.96618 13.0042 4.67237C12.2471 4.25943 10.9763 3.14423 11.9503 1.98692C12.9242 0.829615 15.101 1.99269 16.0676 2.71889C24.4719 3.31592 26.3188 13.8211 26.1918 18.9991C26.1442 19.6164 25.7821 21.0666 24.7149 21.929C23.6476 22.7914 23.4761 24.1074 23.5238 24.6576H10.2298C9.75326 23.6783 9.54427 20.9163 12.5206 17.7026C15.497 14.4889 15.7704 13.0749 15.5351 12.7696C14.1118 13.7581 12.5783 13.7048 11.9894 13.5546C11.378 15.0083 10.0308 15.992 9.43356 16.3021C7.81985 15.6276 7.00714 13.3172 6.80249 12.2463Z" stroke="#111827" stroke-width="2" stroke-linejoin="round"/>
</svg>
