<svg width="33" height="33" viewBox="0 0 33 33" fill="none" xmlns="http://www.w3.org/2000/svg">
<path fill-rule="evenodd" clip-rule="evenodd" d="M16.9991 7.44766V4.16075C17.3653 4.12821 17.7362 4.11157 18.1112 4.11157C24.9532 4.11157 30.4997 9.65808 30.4997 16.5C30.4997 23.342 24.9532 28.8885 18.1112 28.8885C16.7825 28.8885 15.5041 28.6797 14.3061 28.2935L17.6809 21.7305C19.3734 21.5212 20.9586 20.7536 22.1771 19.5351C23.62 18.0922 24.4306 16.1352 24.4306 14.0947C24.4306 13.5424 23.9829 13.0947 23.4306 13.0947C22.8783 13.0947 22.4306 13.5424 22.4306 14.0947C22.4306 15.6048 21.8307 17.0531 20.7629 18.1209C19.9057 18.9781 18.8034 19.5337 17.6206 19.7196C17.5346 19.6724 17.441 19.6375 17.3426 19.6171C14.9087 19.1126 12.9924 18.8325 11.1333 18.8244C9.4279 18.817 7.80611 19.0384 5.90509 19.4907L3.09665 16.6822L16.5287 8.29591C16.8213 8.11322 16.9991 7.79262 16.9991 7.44766ZM10.0144 25.8766C10.7559 26.5176 11.574 27.0719 12.4529 27.524L15.6428 21.3206C13.8868 20.9954 12.4721 20.8303 11.1246 20.8244C9.471 20.8172 7.87646 21.0498 5.84235 21.5656C5.50069 21.6523 5.13866 21.5527 4.88943 21.3034L0.793144 17.2071C0.577599 16.9916 0.472137 16.6895 0.5067 16.3867C0.541264 16.0838 0.712079 15.8132 0.970648 15.6518L14.9991 6.89311V3.27723C14.9991 2.78538 15.3568 2.36655 15.8426 2.28956C16.5822 2.17235 17.34 2.11157 18.1112 2.11157C26.0578 2.11157 32.4997 8.55351 32.4997 16.5C32.4997 24.4466 26.0578 30.8885 18.1112 30.8885C16.1274 30.8885 14.2348 30.4864 12.5126 29.7584C11.1173 29.1685 9.83502 28.3652 8.70649 27.3897C8.28866 27.0285 8.24271 26.3971 8.60387 25.9792C8.96503 25.5614 9.59652 25.5154 10.0144 25.8766ZM16.5611 14.2678C17.4851 14.2678 18.2341 13.5188 18.2341 12.5948C18.2341 11.6708 17.4851 10.9217 16.5611 10.9217C15.6371 10.9217 14.888 11.6708 14.888 12.5948C14.888 13.5188 15.6371 14.2678 16.5611 14.2678Z" fill="#111827"/>
</svg>
