<svg width="33" height="33" viewBox="0 0 33 33" fill="none" xmlns="http://www.w3.org/2000/svg">
<path fill-rule="evenodd" clip-rule="evenodd" d="M6.18747 0.500854C5.63518 0.500854 5.18747 0.94857 5.18747 1.50085V3.76553C5.18747 7.22786 6.81761 10.4881 9.58747 12.5655L14.8333 16.4999L9.58747 20.4343C6.81761 22.5117 5.18747 25.772 5.18747 29.2343V31.499C5.18747 32.0513 5.63518 32.499 6.18747 32.499H26.8125C27.3648 32.499 27.8125 32.0513 27.8125 31.499V29.2343C27.8125 25.772 26.1824 22.5117 23.4125 20.4343L18.1667 16.4999L23.4125 12.5655C26.1824 10.4881 27.8125 7.22786 27.8125 3.76553V1.50085C27.8125 0.94857 27.3648 0.500854 26.8125 0.500854H6.18747ZM7.18747 3.76553V2.50085H25.8125V3.76553C25.8125 6.59835 24.4788 9.26584 22.2125 10.9655L16.5 15.2499L10.7875 10.9655C8.52122 9.26584 7.18747 6.59834 7.18747 3.76553ZM7.18747 29.2343V30.499H25.8125V29.2343C25.8125 26.4015 24.4788 23.734 22.2125 22.0343L16.5 17.7499L10.7875 22.0343C8.52122 23.734 7.18747 26.4015 7.18747 29.2343Z" fill="#111827"/>
</svg>
