<svg width="33" height="33" viewBox="0 0 33 33" fill="none" xmlns="http://www.w3.org/2000/svg">
<path fill-rule="evenodd" clip-rule="evenodd" d="M5.18744 1.50085C5.18744 0.94857 5.63515 0.500854 6.18744 0.500854H26.8125C27.3648 0.500854 27.8125 0.94857 27.8125 1.50085V5.99893C27.8125 9.63951 26.0113 13.0443 23.0016 15.0926L20.9338 16.4999L23.0016 17.9072C26.0113 19.9556 27.8125 23.3603 27.8125 27.0009V31.499C27.8125 32.0513 27.3648 32.499 26.8125 32.499H6.18744C5.63515 32.499 5.18744 32.0513 5.18744 31.499V27.0009C5.18744 23.3603 6.98869 19.9556 9.99835 17.9072L12.0661 16.4999L9.99835 15.0926C6.98869 13.0443 5.18744 9.63951 5.18744 5.99893V1.50085ZM14.582 15.8253C14.5224 15.7599 14.4555 15.704 14.3834 15.6578L11.1236 13.4392C10.2406 12.8382 9.48466 12.0945 8.87826 11.2503H24.1217C23.5153 12.0945 22.7594 12.8382 21.8763 13.4392L18.6166 15.6578C18.5444 15.704 18.4774 15.76 18.4178 15.8255C18.247 16.0122 18.1565 16.2544 18.1563 16.4999C18.1565 16.7454 18.247 16.9876 18.4177 17.1742C18.4774 17.2398 18.5444 17.2959 18.6166 17.3421L21.8763 19.5606C24.3388 21.2366 25.8125 24.0223 25.8125 27.0009V30.499H7.18744V27.0009C7.18744 24.0223 8.66119 21.2366 11.1236 19.5606L14.3834 17.3421C14.4555 17.2959 14.5225 17.2399 14.5821 17.1744C14.6444 17.1063 14.6961 17.0307 14.7365 16.9503C14.8089 16.8073 14.8438 16.653 14.8437 16.4999C14.8438 16.3469 14.8089 16.1926 14.7366 16.0495C14.6961 15.9691 14.6444 15.8935 14.582 15.8253ZM25.8125 5.99893C25.8125 7.19744 25.5739 8.36472 25.1283 9.44103C24.9634 9.32107 24.7603 9.25031 24.5408 9.25031H8.45899C8.23949 9.25031 8.03652 9.32104 7.8716 9.44093C7.42602 8.36465 7.18744 7.1974 7.18744 5.99893V2.50085H25.8125V5.99893Z" fill="#111827"/>
</svg>
