<svg width="33" height="33" viewBox="0 0 33 33" fill="none" xmlns="http://www.w3.org/2000/svg">
<path fill-rule="evenodd" clip-rule="evenodd" d="M5.18747 1.50085C5.18747 0.94857 5.63518 0.500854 6.18747 0.500854H26.8125C27.3648 0.500854 27.8125 0.94857 27.8125 1.50085V3.76553C27.8125 7.22786 26.1824 10.4881 23.4125 12.5655L18.1667 16.4999L23.4125 20.4343C26.1824 22.5117 27.8125 25.772 27.8125 29.2343V31.499C27.8125 32.0513 27.3648 32.499 26.8125 32.499H6.18747C5.63518 32.499 5.18747 32.0513 5.18747 31.499V29.2343C5.18747 25.772 6.81761 22.5117 9.58747 20.4343L14.8333 16.4999L9.58747 12.5655C6.81761 10.4881 5.18747 7.22786 5.18747 3.76553V1.50085ZM7.18747 2.50085V3.76553C7.18747 4.35312 7.24485 4.93361 7.35604 5.49981H25.644C25.7552 4.93361 25.8125 4.35312 25.8125 3.76553V2.50085H7.18747ZM10.7875 10.9655C9.56612 10.0495 8.61561 8.85241 7.99875 7.49981H25.0013C24.3844 8.8524 23.4339 10.0495 22.2125 10.9655L16.5 15.2499L10.7875 10.9655ZM7.18747 29.2343V30.499H25.8125V29.2343C25.8125 26.4015 24.4788 23.734 22.2125 22.0343L16.5 17.7499L10.7875 22.0343C8.52122 23.734 7.18747 26.4015 7.18747 29.2343Z" fill="#111827"/>
</svg>
