<svg width="33" height="33" viewBox="0 0 33 33" fill="none" xmlns="http://www.w3.org/2000/svg">
<path fill-rule="evenodd" clip-rule="evenodd" d="M6.18745 0.500854C5.63517 0.500854 5.18745 0.94857 5.18745 1.50085V5.99893C5.18745 9.63951 6.9887 13.0443 9.99837 15.0926L12.0661 16.4999L9.99837 17.9072C6.9887 19.9556 5.18745 23.3603 5.18745 27.0009V31.499C5.18745 32.0513 5.63517 32.499 6.18745 32.499H26.8125C27.3648 32.499 27.8125 32.0513 27.8125 31.499V27.0009C27.8125 23.3603 26.0113 19.9556 23.0016 17.9072L20.9338 16.4999L23.0016 15.0926C26.0113 13.0443 27.8125 9.63951 27.8125 5.99893V1.50085C27.8125 0.94857 27.3648 0.500854 26.8125 0.500854H6.18745ZM18.4177 17.1742C18.4774 17.2398 18.5444 17.2959 18.6166 17.3421L21.8763 19.5606C24.3388 21.2366 25.8125 24.0223 25.8125 27.0009V30.499H7.18745V27.0009C7.18745 24.0223 8.6612 21.2366 11.1237 19.5606L14.3834 17.3421C14.4555 17.2959 14.5225 17.2399 14.5821 17.1744C14.6444 17.1063 14.6961 17.0307 14.7366 16.9503C14.8089 16.8073 14.8438 16.653 14.8437 16.4999C14.8438 16.3469 14.8089 16.1926 14.7366 16.0495C14.6961 15.9691 14.6444 15.8935 14.582 15.8253C14.5224 15.7599 14.4555 15.704 14.3834 15.6578L11.1237 13.4392C8.6612 11.7633 7.18745 8.97759 7.18745 5.99893V2.50085H25.8125V5.99893C25.8125 8.97759 24.3388 11.7633 21.8763 13.4392L18.6166 15.6578C18.5444 15.704 18.4774 15.76 18.4178 15.8255C18.247 16.0122 18.1566 16.2544 18.1563 16.4999C18.1566 16.7454 18.247 16.9876 18.4177 17.1742Z" fill="#111827"/>
</svg>
