<svg width="33" height="32" viewBox="0 0 33 32" fill="none" xmlns="http://www.w3.org/2000/svg">
<path fill-rule="evenodd" clip-rule="evenodd" d="M17.0063 2.9204C16.6283 2.59608 16.0693 2.59934 15.6951 2.92804L3.51532 13.6276C3.29919 13.8174 3.1753 14.0912 3.1753 14.3788V27.3207H1.50085C0.94857 27.3207 0.500854 27.7684 0.500854 28.3207C0.500854 28.873 0.94857 29.3207 1.50085 29.3207H31.499C32.0513 29.3207 32.499 28.873 32.499 28.3207C32.499 27.7684 32.0513 27.3207 31.499 27.3207H29.8247V14.3788C29.8247 14.0871 29.6973 13.8099 29.4759 13.6199L17.0063 2.9204ZM18.98 27.3207V20.9834H13.8268V27.3207H18.98ZM5.1753 14.8314L16.3628 5.0036L27.8247 14.8385V27.3207H20.98V19.9834C20.98 19.4311 20.5322 18.9834 19.98 18.9834H12.8268C12.2745 18.9834 11.8268 19.4311 11.8268 19.9834V27.3207H5.1753V14.8314Z" fill="#111827"/>
</svg>
