<svg width="33" height="32" viewBox="0 0 33 32" fill="none" xmlns="http://www.w3.org/2000/svg">
<g clip-path="url(#clip0_341_274)">
<path fill-rule="evenodd" clip-rule="evenodd" d="M5.44357 17.5656C4.72554 17.6226 4.24965 18.0395 4.10146 18.2408L2.93546 19.5086C2.45752 19.4315 1.88836 19.7656 1.66352 19.9422C0.538052 20.9752 0.892648 22.1777 1.21063 22.6499C0.131411 23.6906 0.51692 24.9143 0.844578 25.3961C-0.157555 27.0304 1.44197 28.3447 2.367 28.7976C2.96442 29.1124 4.67383 29.8672 6.73205 30.3683C9.30484 30.9946 11.5684 30.7701 12.7785 30.2234C13.9886 29.6766 15.5267 28.0948 15.3955 26.1339C15.2905 24.5651 14.2972 23.3808 13.8136 22.9848C12.8864 22.0867 12.1006 20.4188 11.8236 19.6971C11.6972 19.2889 11.185 18.4171 10.1469 18.1955C9.1089 17.9739 8.33425 18.6619 8.07668 19.0337C7.26754 17.9913 6.3411 17.4943 5.44357 17.5656ZM13.2666 27.9871C14.2679 26.5189 14.1968 25.4169 12.8232 24.044C11.4493 22.6709 10.6497 20.663 10.6497 20.663C10.6497 20.663 10.3513 19.4968 9.67066 19.6039C8.99002 19.711 8.49073 21.4537 9.91588 22.5206C11.3409 23.5874 9.63229 24.3107 9.08378 23.3096C8.53527 22.3084 7.03769 19.7348 6.26131 19.2425C5.48492 18.7502 4.93891 19.0262 5.12192 20.0408C5.21283 20.5444 6.0583 21.404 6.8482 22.2071C7.64961 23.0219 8.39379 23.7786 8.23464 24.0463C7.91885 24.578 6.80666 23.4216 6.80666 23.4216C6.80666 23.4216 3.32408 20.2523 2.56604 21.0782C1.86716 21.8393 2.94457 22.4863 4.60504 23.4835L4.60579 23.484C4.74692 23.5687 4.89239 23.6561 5.04136 23.7462C6.94162 24.8966 7.08941 25.2 6.81966 25.6353C6.7201 25.7961 6.08435 25.4145 5.30227 24.9451L5.30158 24.9446C3.96784 24.1437 2.20923 23.0879 1.96083 24.033C1.74599 24.8508 3.03949 25.3519 4.21279 25.8064L4.2128 25.8064L4.21324 25.8066L4.21357 25.8067C5.19101 26.1854 6.08498 26.5317 5.95337 27.0017C5.81708 27.4892 5.07823 27.0826 4.27064 26.6382C3.36397 26.1393 2.37054 25.5927 2.04541 26.2095C1.43101 27.3756 6.28435 28.7483 6.32438 28.7585C7.89251 29.1652 11.8749 30.027 13.2666 27.9871ZM27.5564 17.5657C28.2745 17.6228 28.7503 18.0397 28.8985 18.241L30.0645 19.5088C30.5425 19.4317 31.1116 19.7657 31.3365 19.9424C32.4619 20.9754 32.1073 22.1779 31.7894 22.6501C32.8686 23.6908 32.4831 24.9145 32.1554 25.3963C33.1575 27.0306 31.558 28.3449 30.633 28.7978C30.0356 29.1126 28.3262 29.8674 26.2679 30.3684C23.6952 30.9948 21.4316 30.7703 20.2215 30.2235C19.0114 29.6768 17.4733 28.095 17.6045 26.1341C17.7095 24.5653 18.7028 23.381 19.1864 22.9849C20.1136 22.0869 20.8994 20.419 21.1764 19.6973C21.3028 19.2891 21.815 18.4173 22.8531 18.1956C23.8911 17.974 24.6657 18.6621 24.9233 19.0339C25.7325 17.9914 26.6589 17.4944 27.5564 17.5657ZM19.7169 27.9871C18.7156 26.5189 18.7867 25.4169 20.1604 24.044C21.5342 22.6709 22.3338 20.663 22.3338 20.663C22.3338 20.663 22.6322 19.4968 23.3129 19.6039C23.9935 19.711 24.4928 21.4537 23.0678 22.5206C21.6426 23.5874 23.3512 24.3107 23.8997 23.3096C24.4484 22.3084 25.945 19.7348 26.7214 19.2425C27.4977 18.7502 28.0441 19.0262 27.8609 20.0408C27.7702 20.5441 26.9257 21.4029 26.1362 22.2057L26.1346 22.2073L26.1344 22.2075C25.3331 23.0222 24.5891 23.7786 24.748 24.0463C25.0638 24.578 26.1768 23.4209 26.1768 23.4209C26.1768 23.4209 29.6593 20.2518 30.4176 21.0777C31.1164 21.8388 30.0386 22.486 28.3776 23.4835C28.2323 23.5707 28.0871 23.6581 27.9422 23.7457C26.0419 24.8961 25.8941 25.1996 26.1637 25.6346C26.2634 25.7955 26.8987 25.4141 27.6802 24.9449L27.6817 24.944L27.6828 24.9434C29.0165 24.1427 30.7743 23.0875 31.0227 24.0325C31.2377 24.8502 29.9442 25.3513 28.771 25.8058L28.7703 25.8061L28.77 25.8062C27.7925 26.1849 26.8985 26.5312 27.03 27.0012C27.1661 27.4885 27.9048 27.082 28.7122 26.6375L28.7124 26.6375C29.619 26.1385 30.6125 25.5918 30.9374 26.209C31.552 27.3757 26.6978 28.7472 26.6586 28.7572C25.0905 29.1652 21.1081 30.027 19.7169 27.9871Z" fill="#111827"/>
<path fill-rule="evenodd" clip-rule="evenodd" d="M20.4392 11.9108C20.6364 11.9806 20.783 12.1928 20.9225 12.3948C21.111 12.6677 21.2865 12.9218 21.5557 12.7786C21.8734 12.6097 22.1338 12.3504 22.3039 12.0335C22.4743 11.7165 22.5468 11.3563 22.5125 10.9982C22.4868 10.7304 22.402 10.4716 22.2642 10.2406C22.1264 10.0095 21.9391 9.81189 21.7159 9.66195C21.4925 9.51201 21.2386 9.41349 20.9727 9.37347C20.7066 9.33345 20.435 9.35295 20.1775 9.43054C19.9199 9.50809 19.6828 9.64179 19.4831 9.82199C19.2835 10.0022 19.1261 10.2244 19.0227 10.4727C18.9193 10.7209 18.8721 10.9891 18.8846 11.2577C18.8973 11.5265 18.9692 11.7889 19.0955 12.0264C19.2202 12.2612 19.4972 12.1504 19.7894 12.0335C20.0185 11.9419 20.2572 11.8464 20.4392 11.9108ZM11.8687 11.9108C11.6717 11.9805 11.5251 12.1927 11.3857 12.3944L11.3855 12.3948C11.197 12.6679 11.0213 12.9218 10.7522 12.7786C10.3528 12.5671 10.0464 12.2143 9.89287 11.7892C9.73935 11.3641 9.74964 10.897 9.92174 10.479C10.0938 10.0611 10.4154 9.72216 10.8238 9.52838C11.2322 9.3346 11.6981 9.29985 12.1307 9.43087C12.4751 9.5346 12.7811 9.73811 13.01 10.0157C13.2388 10.2932 13.3801 10.6324 13.4163 10.9903C13.4524 11.3482 13.3815 11.7088 13.2127 12.0264C13.0878 12.2611 12.811 12.1505 12.5189 12.0338L12.5185 12.0336C12.2893 11.9419 12.0509 11.8464 11.8687 11.9108ZM19.1133 19.7099C20.4717 18.6398 20.9707 16.8925 20.9707 15.8161C20.9707 14.9653 20.3983 15.2331 19.482 15.6868L19.4303 15.7124L19.4296 15.7127C18.5886 16.1292 17.4691 16.6836 16.2403 16.6836C15.011 16.6836 13.8913 16.1289 13.0503 15.7122L13.0503 15.7122C12.1043 15.2436 11.5109 14.9497 11.5109 15.8163C11.5109 16.9267 12.0417 18.7499 13.4988 19.809C13.5236 19.7586 13.5498 19.7089 13.5772 19.66C13.5498 19.7089 13.5237 19.7585 13.4989 19.8088C14.1902 20.3111 15.09 20.6411 16.2406 20.6411C17.4652 20.6411 18.4056 20.2672 19.1131 19.7097C18.9049 19.3223 18.6203 18.9863 18.2807 18.7195C18.6204 18.9863 18.9051 19.3224 19.1133 19.7099ZM16.8138 18.6474C16.7394 18.7625 16.6641 18.8789 16.5881 18.9697C16.6639 18.8792 16.7389 18.7632 16.8131 18.6485L16.8137 18.6476C16.8862 18.5353 16.958 18.4242 17.0289 18.3395C16.958 18.4242 16.8863 18.5352 16.8138 18.6474ZM8.07944 13.6182C8.27297 13.5992 8.45879 13.5327 8.62041 13.4246C8.81482 13.2946 8.96653 13.1101 9.05603 12.8941C9.14551 12.678 9.16897 12.4403 9.12337 12.2109C9.07786 11.9816 8.96531 11.7707 8.79997 11.6052C8.63464 11.4398 8.42394 11.3271 8.19453 11.2815C7.96513 11.2358 7.72735 11.2592 7.51124 11.3487C7.29514 11.4383 7.11047 11.5899 6.98055 11.7844C6.87244 11.946 6.80586 12.1319 6.78674 12.3254C6.7676 12.5189 6.79655 12.7141 6.87095 12.8937C6.93024 13.0374 7.0173 13.1678 7.12715 13.2776C7.23699 13.3875 7.36746 13.4746 7.51104 13.5338C7.69066 13.6084 7.88591 13.6374 8.07944 13.6182ZM24.9973 13.6182C25.1908 13.5992 25.3766 13.5327 25.5383 13.4246C25.7328 13.2946 25.8843 13.1101 25.9739 12.8941C26.0634 12.678 26.087 12.4403 26.0413 12.2109C25.9957 11.9816 25.8831 11.7709 25.7176 11.6055C25.594 11.4818 25.4445 11.3871 25.2799 11.3281C25.1154 11.2691 24.9397 11.2474 24.7656 11.2645C24.5916 11.2816 24.4236 11.3371 24.2736 11.427C24.1236 11.517 23.9953 11.6389 23.8983 11.7844C23.7903 11.946 23.7238 12.1319 23.7046 12.3254C23.6856 12.5189 23.7144 12.7141 23.7887 12.8937C23.848 13.0374 23.9351 13.1678 24.0449 13.2776C24.1547 13.3875 24.2851 13.4744 24.4288 13.5338C24.6084 13.6084 24.8036 13.6374 24.9973 13.6182Z" fill="#111827"/>
<path fill-rule="evenodd" clip-rule="evenodd" d="M18.7287 29.1004C17.9785 29.2253 17.208 29.2903 16.4225 29.2903C15.684 29.2903 14.9589 29.2329 14.2514 29.1222C14.5866 28.7549 14.8825 28.3225 15.0905 27.8409C15.5282 27.8871 15.9726 27.9107 16.4224 27.9107C16.9231 27.9107 17.417 27.8814 17.9024 27.8245C18.1066 28.3031 18.3979 28.7336 18.7287 29.1004ZM29.8276 19.2512C30.1992 17.9898 30.3987 16.6543 30.3987 15.2721C30.3987 7.53007 24.1413 1.25391 16.4225 1.25391C8.70364 1.25391 2.44629 7.53007 2.44629 15.2721C2.44629 16.7008 2.65938 18.0796 3.05543 19.3783L4.10146 18.2409C4.11626 18.2208 4.13434 18.1985 4.1556 18.1747C3.93723 17.2427 3.82171 16.2709 3.82171 15.2721C3.82171 8.292 9.46325 2.6335 16.4224 2.6335C23.3816 2.6335 29.0232 8.292 29.0232 15.2721C29.0232 16.2265 28.9177 17.1563 28.7178 18.0502C28.7993 18.1217 28.86 18.1887 28.8986 18.2411L29.8276 19.2512Z" fill="#111827"/>
</g>
<defs>
<clipPath id="clip0_341_274">
<rect width="32" height="32" fill="white" transform="translate(0.5)"/>
</clipPath>
</defs>
</svg>
