<svg width="33" height="32" viewBox="0 0 33 32" fill="none" xmlns="http://www.w3.org/2000/svg">
<path d="M0.5 9.6001V10.4758H6.72874V9.6001H0.5ZM7.61123 9.6001V10.4758H16.4875C16.4875 10.4758 15.5808 9.6001 14.38 9.6001H7.61123ZM18.2287 9.6001V10.4758H23.5987L23.28 9.6001H18.2287ZM27.4487 9.6001L27.13 10.4758H32.4512V9.6001H27.4487ZM0.5 11.3032V12.1789H6.72874V11.3032H0.5ZM7.61123 11.3044V12.179H17.5175C17.5175 12.179 17.4018 11.505 17.2 11.3044H7.61123ZM18.2287 11.3044V12.179H24.1875L23.8925 11.3044H18.2287ZM26.8112 11.3044L26.5162 12.179H32.4512V11.3044H26.8112ZM2.28998 13.0063V13.8833H4.98749V13.0063H2.28998ZM9.40125 13.0063V13.8833H12.0988V13.0063H9.40125ZM14.7225 13.0063V13.8833H17.42C17.42 13.8833 17.5913 13.4202 17.5913 13.0063H14.7225ZM20.0188 13.0063V13.8833H24.8012L24.4825 13.0063H20.0188ZM26.2237 13.0063L25.9037 13.8833H30.71V13.0063H26.2237ZM2.28998 14.7107V15.5864H4.98749V14.7107H2.28998ZM9.40125 14.7107V15.5864H16.2912C16.2912 15.5864 16.8676 15.1371 17.0512 14.7107H9.40125ZM20.0188 14.7107V15.5864H22.7163V15.0989L22.8875 15.5864H27.8288L28.0125 15.0989V15.5864H30.71V14.7107H25.6462L25.3775 15.4524L25.1075 14.7107H20.0188ZM2.28998 16.4138V17.2895H4.98749V16.4138H2.28998ZM9.40125 16.4138V17.2895H17.0512C16.8676 16.8645 16.2912 16.4138 16.2912 16.4138H9.40125ZM20.0188 16.4138V17.2895H22.7163V16.4138H20.0188ZM23.2062 16.4138L23.5325 17.2895H27.2375L27.5475 16.4138H23.2062ZM28.0125 16.4138V17.2895H30.71V16.4138H28.0125ZM2.28998 18.1169V18.9926H4.98749V18.1169H2.28998ZM9.40125 18.1169V18.9926H12.0988V18.1169H9.40125ZM14.7225 18.1169V18.9926H17.5912C17.5912 18.5793 17.42 18.1169 17.42 18.1169H14.7225ZM20.0188 18.1169V18.9926H22.7163V18.1169H20.0188ZM23.8188 18.1169L24.135 18.9926H26.6188L26.9375 18.1169H23.8188ZM28.0125 18.1169V18.9926H30.71V18.1169H28.0125ZM0.548736 19.82V20.697H6.77747V19.82H0.548736ZM7.61123 19.82V20.697H17.2C17.4018 20.4962 17.5175 19.82 17.5175 19.82H7.61123ZM18.2775 19.82V20.697H22.7163V19.82H18.2775ZM24.4325 19.82L24.7575 20.697H26.0212L26.3262 19.82H24.4325ZM28.0125 19.82V20.697H32.5V19.82H28.0125ZM0.548736 21.5244V22.4001H6.77747V21.5244H0.548736ZM7.61123 21.5244V22.3989H14.38C15.5808 22.3989 16.4875 21.5244 16.4875 21.5244H7.61123ZM18.2775 21.5244V22.4001H22.7163V21.5244H18.2775ZM25.0487 21.5244L25.3612 22.3976L25.415 22.3989L25.7325 21.5244H25.0487ZM28.0125 21.5244V22.4001H32.5V21.5244H28.0125Z" fill="#111827"/>
</svg>
