<svg width="33" height="32" viewBox="0 0 33 32" fill="none" xmlns="http://www.w3.org/2000/svg">
<path d="M0.5 9.59998V10.4757H6.72874V9.59998H0.5ZM7.61123 9.59998V10.4757H16.4875C16.4875 10.4757 15.5808 9.59998 14.38 9.59998H7.61123ZM18.2287 9.59998V10.4757H23.5987L23.28 9.59998H18.2287ZM27.4487 9.59998L27.13 10.4757H32.4512V9.59998H27.4487ZM0.5 11.3031V12.1788H6.72874V11.3031H0.5ZM7.61123 11.3043V12.1789H17.5175C17.5175 12.1789 17.4018 11.5048 17.2 11.3043H7.61123ZM18.2287 11.3043V12.1789H24.1875L23.8925 11.3043H18.2287ZM26.8112 11.3043L26.5162 12.1789H32.4512V11.3043H26.8112ZM2.28998 13.0062V13.8832H4.98749V13.0062H2.28998ZM9.40125 13.0062V13.8832H12.0988V13.0062H9.40125ZM14.7225 13.0062V13.8832H17.42C17.42 13.8832 17.5913 13.42 17.5913 13.0062H14.7225ZM20.0188 13.0062V13.8832H24.8012L24.4825 13.0062H20.0188ZM26.2237 13.0062L25.9037 13.8832H30.71V13.0062H26.2237ZM2.28998 14.7106V15.5863H4.98749V14.7106H2.28998ZM9.40125 14.7106V15.5863H16.2912C16.2912 15.5863 16.8676 15.137 17.0512 14.7106H9.40125ZM20.0188 14.7106V15.5863H22.7163V15.0988L22.8875 15.5863H27.8288L28.0125 15.0988V15.5863H30.71V14.7106H25.6462L25.3775 15.4523L25.1075 14.7106H20.0188ZM2.28998 16.4137V17.2894H4.98749V16.4137H2.28998ZM9.40125 16.4137V17.2894H17.0512C16.8676 16.8644 16.2912 16.4137 16.2912 16.4137H9.40125ZM20.0188 16.4137V17.2894H22.7163V16.4137H20.0188ZM23.2062 16.4137L23.5325 17.2894H27.2375L27.5475 16.4137H23.2062ZM28.0125 16.4137V17.2894H30.71V16.4137H28.0125ZM2.28998 18.1168V18.9925H4.98749V18.1168H2.28998ZM9.40125 18.1168V18.9925H12.0988V18.1168H9.40125ZM14.7225 18.1168V18.9925H17.5912C17.5912 18.5792 17.42 18.1168 17.42 18.1168H14.7225ZM20.0188 18.1168V18.9925H22.7163V18.1168H20.0188ZM23.8188 18.1168L24.135 18.9925H26.6188L26.9375 18.1168H23.8188ZM28.0125 18.1168V18.9925H30.71V18.1168H28.0125ZM0.548736 19.8199V20.6969H6.77747V19.8199H0.548736ZM7.61123 19.8199V20.6969H17.2C17.4018 20.4961 17.5175 19.8199 17.5175 19.8199H7.61123ZM18.2775 19.8199V20.6969H22.7163V19.8199H18.2775ZM24.4325 19.8199L24.7575 20.6969H26.0212L26.3262 19.8199H24.4325ZM28.0125 19.8199V20.6969H32.5V19.8199H28.0125ZM0.548736 21.5242V22.4H6.77747V21.5242H0.548736ZM7.61123 21.5242V22.3987H14.38C15.5808 22.3987 16.4875 21.5242 16.4875 21.5242H7.61123ZM18.2775 21.5242V22.4H22.7163V21.5242H18.2775ZM25.0487 21.5242L25.3612 22.3975L25.415 22.3987L25.7325 21.5242H25.0487ZM28.0125 21.5242V22.4H32.5V21.5242H28.0125Z" fill="#111827"/>
</svg>
