<svg width="33" height="33" viewBox="0 0 33 33" fill="none" xmlns="http://www.w3.org/2000/svg">
<path fill-rule="evenodd" clip-rule="evenodd" d="M1.50085 3.00073C0.94857 3.00073 0.500854 3.44845 0.500854 4.00073V28.9992C0.500854 29.5515 0.94857 29.9992 1.50085 29.9992H31.499C32.0513 29.9992 32.499 29.5515 32.499 28.9992V4.00073C32.499 3.44845 32.0513 3.00073 31.499 3.00073H1.50085ZM2.50085 27.9992V5.00073H30.499V27.9992H2.50085ZM19.2497 14.0001C19.2497 13.4478 19.6974 13.0001 20.2497 13.0001H26.4993C27.0516 13.0001 27.4993 13.4478 27.4993 14.0001C27.4993 14.5524 27.0516 15.0001 26.4993 15.0001H20.2497C19.6974 15.0001 19.2497 14.5524 19.2497 14.0001ZM19.2497 18.9999C19.2497 18.4476 19.6974 17.9999 20.2497 17.9999H26.4993C27.0516 17.9999 27.4993 18.4476 27.4993 18.9999C27.4993 19.5522 27.0516 19.9999 26.4993 19.9999H20.2497C19.6974 19.9999 19.2497 19.5522 19.2497 18.9999ZM11.5537 10.6255C9.82947 10.6255 8.43169 12.0233 8.43169 13.7475C8.43169 15.4674 9.82236 16.8624 11.5406 16.8695C11.5449 16.8695 11.5493 16.8695 11.5537 16.8695C11.5581 16.8695 11.5624 16.8695 11.5668 16.8695C13.285 16.8624 14.6757 15.4674 14.6757 13.7475C14.6757 12.0233 13.278 10.6255 11.5537 10.6255ZM14.7809 17.7252C15.937 16.7861 16.6757 15.3531 16.6757 13.7475C16.6757 10.9187 14.3825 8.62551 11.5537 8.62551C8.7249 8.62551 6.43169 10.9187 6.43169 13.7475C6.43169 15.3531 7.17041 16.7861 8.3265 17.7252C6.36829 18.8463 5.04884 20.9562 5.04884 23.3743C5.04884 23.9266 5.49655 24.3743 6.04884 24.3743C6.60112 24.3743 7.04884 23.9266 7.04884 23.3743C7.04884 20.891 9.05816 18.8771 11.5397 18.8695C11.5444 18.8695 11.549 18.8695 11.5537 18.8695C11.5584 18.8695 11.563 18.8695 11.5677 18.8695C14.0492 18.8771 16.0585 20.8911 16.0585 23.3743C16.0585 23.9266 16.5062 24.3743 17.0585 24.3743C17.6108 24.3743 18.0585 23.9266 18.0585 23.3743C18.0585 20.9562 16.7391 18.8463 14.7809 17.7252Z" fill="#111827"/>
</svg>
