<svg width="33" height="33" viewBox="0 0 33 33" fill="none" xmlns="http://www.w3.org/2000/svg">
<path fill-rule="evenodd" clip-rule="evenodd" d="M0.500854 1.50098C0.500854 0.948692 0.94857 0.500977 1.50085 0.500977H31.499C32.0513 0.500977 32.499 0.948692 32.499 1.50098V31.4991C32.499 32.0514 32.0513 32.4991 31.499 32.4991H1.50085C0.94857 32.4991 0.500854 32.0514 0.500854 31.4991V1.50098ZM2.50085 24.3285V30.4991H30.499V26.6011L23.8647 18.64L19.0025 24.4747C18.8125 24.7027 18.531 24.8345 18.2343 24.8345C17.9375 24.8345 17.656 24.7027 17.466 24.4747L9.92254 15.4225L2.50085 24.3285ZM2.50085 21.2044L9.15431 13.2202C9.34431 12.9922 9.62576 12.8604 9.92254 12.8604C10.2193 12.8604 10.5008 12.9922 10.6908 13.2202L18.2343 22.2724L23.0965 16.4377C23.2865 16.2097 23.568 16.0779 23.8647 16.0779C24.1615 16.0779 24.443 16.2097 24.633 16.4377L30.499 23.477V2.50098H2.50085V21.2044ZM20.8747 13.5002C21.9101 13.5002 22.7495 12.4929 22.7495 11.2504C22.7495 10.0078 21.9101 9.00051 20.8747 9.00051C19.8392 9.00051 18.9998 10.0078 18.9998 11.2504C18.9998 12.4929 19.8392 13.5002 20.8747 13.5002Z" fill="#111827"/>
</svg>
