<svg width="33" height="33" viewBox="0 0 33 33" fill="none" xmlns="http://www.w3.org/2000/svg">
<path fill-rule="evenodd" clip-rule="evenodd" d="M0.500854 4.00073C0.500854 3.44845 0.94857 3.00073 1.50085 3.00073H31.499C32.0513 3.00073 32.499 3.44845 32.499 4.00073V28.9992C32.499 29.5515 32.0513 29.9992 31.499 29.9992H1.50085C0.94857 29.9992 0.500854 29.5515 0.500854 28.9992V4.00073ZM2.50085 23.1363V27.9992H30.499V25.0302L23.8647 18.3959L18.9414 23.3193C18.5508 23.7098 17.9177 23.7098 17.5271 23.3193L9.92254 15.7146L2.50085 23.1363ZM2.50085 20.3079L9.21543 13.5933C9.60595 13.2028 10.2391 13.2028 10.6296 13.5933L18.2343 21.1979L23.1576 16.2746C23.5481 15.884 24.1813 15.884 24.5718 16.2746L30.499 22.2018V5.00073H2.50085V20.3079ZM20.8747 14.0001C21.9101 14.0001 22.7495 13.1607 22.7495 12.1252C22.7495 11.0898 21.9101 10.2503 20.8747 10.2503C19.8392 10.2503 18.9998 11.0898 18.9998 12.1252C18.9998 13.1607 19.8392 14.0001 20.8747 14.0001Z" fill="#111827"/>
</svg>
