<svg width="33" height="32" viewBox="0 0 33 32" fill="none" xmlns="http://www.w3.org/2000/svg">
<g clip-path="url(#clip0_349_635)">
<path d="M16.5001 32C15.1522 32 14.0594 30.9073 14.0594 29.5593V2.44068C14.0594 1.09273 15.1522 0 16.5001 0C17.848 0 18.9408 1.09273 18.9408 2.44068V29.5593C18.9408 30.9073 17.848 32 16.5001 32Z" fill="#111827"/>
<path d="M24.6357 26.5763C23.2877 26.5763 22.195 25.4835 22.195 24.1356V7.86441C22.195 6.51646 23.2877 5.42373 24.6357 5.42373C25.9836 5.42373 27.0764 6.51646 27.0764 7.86441V24.1356C27.0764 25.4835 25.9836 26.5763 24.6357 26.5763Z" fill="#111827"/>
<path d="M5.92383 24.1356C5.92383 25.4835 7.01656 26.5763 8.36451 26.5763C9.71246 26.5763 10.8052 25.4835 10.8052 24.1356V7.86441C10.8052 6.51646 9.71246 5.42373 8.36451 5.42373C7.01656 5.42373 5.92383 6.51646 5.92383 7.86441V24.1356Z" fill="#111827"/>
</g>
<defs>
<clipPath id="clip0_349_635">
<rect width="32" height="32" fill="white" transform="translate(0.5)"/>
</clipPath>
</defs>
</svg>
