<svg width="33" height="33" viewBox="0 0 33 33" fill="none" xmlns="http://www.w3.org/2000/svg">
<g clip-path="url(#clip0_349_635)">
<path fill-rule="evenodd" clip-rule="evenodd" d="M16.4819 2.24927C15.5969 2.24927 14.8796 2.96665 14.8796 3.85159C14.8796 4.73652 15.5969 5.4539 16.4819 5.4539C17.3668 5.4539 18.0842 4.73652 18.0842 3.85159C18.0842 2.96665 17.3668 2.24927 16.4819 2.24927ZM12.8796 3.85159C12.8796 1.86208 14.4924 0.249268 16.4819 0.249268C18.4714 0.249268 20.0842 1.86208 20.0842 3.85159C20.0842 4.51336 19.9058 5.13345 19.5944 5.66637L23.4191 11.6727L25.0374 10.7856C25.0331 10.7135 25.0309 10.6408 25.0309 10.5675C25.0309 8.57803 26.6437 6.96521 28.6332 6.96521C30.6227 6.96521 32.2355 8.57803 32.2355 10.5675C32.2355 12.557 30.6227 14.1698 28.6332 14.1698C28.4128 14.1698 28.197 14.15 27.9874 14.1121L26.4602 16.4483L28.1783 19.1463C28.3621 19.1174 28.5506 19.1024 28.7425 19.1024C30.732 19.1024 32.3448 20.7152 32.3448 22.7047C32.3448 24.6942 30.732 26.307 28.7425 26.307C26.753 26.307 25.1402 24.6942 25.1402 22.7047C25.1402 22.5867 25.1459 22.4701 25.157 22.355L23.2736 21.3226L19.7052 26.781C20.0359 27.3256 20.2264 27.9648 20.2264 28.6485C20.2264 30.6381 18.6136 32.2509 16.6241 32.2509C14.6346 32.2509 13.0218 30.6381 13.0218 28.6485C13.0218 27.9645 13.2124 27.325 13.5435 26.7803L9.97548 21.3226L7.85313 22.4859C7.85746 22.5583 7.85966 22.6313 7.85966 22.7047C7.85966 24.6942 6.24685 26.307 4.25735 26.307C2.26784 26.307 0.655029 24.6942 0.655029 22.7047C0.655029 20.7152 2.26784 19.1024 4.25735 19.1024C4.52752 19.1024 4.79074 19.1322 5.04392 19.1885L6.7889 16.4483L5.26155 14.112C5.05187 14.15 4.83587 14.1698 4.61523 14.1698C2.62573 14.1698 1.01292 12.557 1.01292 10.5675C1.01292 8.57803 2.62573 6.96521 4.61523 6.96521C6.60474 6.96521 8.21755 8.57803 8.21755 10.5675C8.21755 10.6407 8.21537 10.7133 8.21107 10.7853L9.82996 11.6727L13.5119 5.89077C13.113 5.31096 12.8796 4.60853 12.8796 3.85159ZM15.0704 7.16685L11.5875 12.6361L14.0558 13.9891C14.7092 13.3247 15.6186 12.9127 16.6241 12.9127C17.6298 12.9127 18.5392 13.3248 19.1928 13.9894L21.6615 12.6361L18.1134 7.06414C17.6235 7.31339 17.0691 7.4539 16.4819 7.4539C15.9809 7.4539 15.5038 7.35164 15.0704 7.16685ZM20.1447 15.7483C20.1982 15.9954 20.2264 16.2519 20.2264 16.515C20.2264 16.7924 20.1951 17.0624 20.1357 17.3218L22.6122 18.6793L24.08 16.434L22.7381 14.3268L20.1447 15.7483ZM19.1638 19.0698C18.5125 19.7172 17.615 20.1173 16.6241 20.1173C15.6334 20.1173 14.736 19.7174 14.0848 19.0701L11.7346 20.3583L15.039 25.4128C15.5173 25.1781 16.0553 25.0462 16.6241 25.0462C17.1932 25.0462 17.7314 25.1782 18.2099 25.4132L21.5145 20.3583L19.1638 19.0698ZM13.1126 17.3222C13.0532 17.0627 13.0218 16.7925 13.0218 16.515C13.0218 16.2518 13.05 15.9951 13.1036 15.7479L10.511 14.3268L9.16906 16.434L10.6369 18.6793L13.1126 17.3222ZM7.52583 12.6905C7.38827 12.8788 7.23288 13.0532 7.06215 13.2113L7.96793 14.5968L8.75337 13.3634L7.52583 12.6905ZM6.80054 20.1535C6.93357 20.2861 7.0563 20.4291 7.16741 20.581L8.87779 19.6435L7.99002 18.2856L6.80054 20.1535ZM25.9055 20.4845C26.0407 20.312 26.1913 20.1521 26.3552 20.007L25.2591 18.2856L24.3713 19.6435L25.9055 20.4845ZM26.1867 13.2116C26.0159 13.0535 25.8604 12.879 25.7228 12.6907L24.4957 13.3633L25.2811 14.5968L26.1867 13.2116ZM4.61523 8.96521C3.7303 8.96521 3.01292 9.68259 3.01292 10.5675C3.01292 11.4525 3.7303 12.1698 4.61523 12.1698C5.50017 12.1698 6.21755 11.4525 6.21755 10.5675C6.21755 9.68259 5.50017 8.96521 4.61523 8.96521ZM27.0309 10.5675C27.0309 9.68259 27.7483 8.96521 28.6332 8.96521C29.5182 8.96521 30.2355 9.68259 30.2355 10.5675C30.2355 11.4525 29.5182 12.1698 28.6332 12.1698C27.7483 12.1698 27.0309 11.4525 27.0309 10.5675ZM15.0218 16.515C15.0218 15.6301 15.7392 14.9127 16.6241 14.9127C17.509 14.9127 18.2264 15.6301 18.2264 16.515C18.2264 17.3999 17.509 18.1173 16.6241 18.1173C15.7392 18.1173 15.0218 17.3999 15.0218 16.515ZM2.65503 22.7047C2.65503 21.8198 3.37241 21.1024 4.25735 21.1024C5.14228 21.1024 5.85966 21.8198 5.85966 22.7047C5.85966 23.5897 5.14228 24.307 4.25735 24.307C3.37241 24.307 2.65503 23.5897 2.65503 22.7047ZM28.7425 21.1024C27.8576 21.1024 27.1402 21.8198 27.1402 22.7047C27.1402 23.5897 27.8576 24.307 28.7425 24.307C29.6275 24.307 30.3448 23.5897 30.3448 22.7047C30.3448 21.8198 29.6275 21.1024 28.7425 21.1024ZM15.0218 28.6485C15.0218 27.7636 15.7392 27.0462 16.6241 27.0462C17.509 27.0462 18.2264 27.7636 18.2264 28.6485C18.2264 29.5335 17.509 30.2509 16.6241 30.2509C15.7392 30.2509 15.0218 29.5335 15.0218 28.6485Z" fill="#111827"/>
</g>
<defs>
<clipPath id="clip0_349_635">
<rect width="32" height="32" fill="white" transform="translate(0.5 0.25)"/>
</clipPath>
</defs>
</svg>
