<svg width="33" height="32" viewBox="0 0 33 32" fill="none" xmlns="http://www.w3.org/2000/svg">
<path d="M13.3771 19.4134C12.24 21.2246 10.2249 22.4286 7.92857 22.4286C4.37817 22.4286 1.5 19.5504 1.5 16C1.5 12.4496 4.37817 9.57141 7.92857 9.57141C9.23413 9.57145 10.9604 10.2317 11.7518 10.9323C12.5326 11.6235 20.4341 20.3936 20.6474 20.6303C20.6541 20.6378 20.6554 20.6387 20.6625 20.6457L20.983 20.9612C22.0941 21.8779 23.5185 22.4286 25.0714 22.4286C28.6218 22.4286 31.5 19.5504 31.5 16C31.5 12.4496 28.6218 9.57141 25.0714 9.57141C23.0546 9.57141 21.2548 10.5001 20.0761 11.9532" stroke="#111827" stroke-width="2" stroke-linecap="round"/>
</svg>
