<svg width="32" height="32" viewBox="0 0 32 32" fill="none" xmlns="http://www.w3.org/2000/svg">
<path d="M13.918 18.2756C13.16 19.483 11.8166 20.2857 10.2857 20.2857C7.91878 20.2857 6 18.3669 6 15.9999C6 13.633 7.91878 11.7142 10.2857 11.7142C11.1561 11.7143 12.3069 12.1544 12.8346 12.6215C13.3515 13.0792 18.5509 18.8492 18.7613 19.0828C18.768 19.0902 18.7714 19.0936 18.7786 19.1006L18.9887 19.3074C19.7294 19.9186 20.679 20.2857 21.7143 20.2857C24.0812 20.2857 26 18.3669 26 15.9999C26 13.633 24.0812 11.7142 21.7143 11.7142C20.3698 11.7142 19.1698 12.3334 18.3841 13.3021" stroke="#1C1B1F" stroke-width="2" stroke-linecap="round"/>
</svg>
