<svg width="33" height="32" viewBox="0 0 33 32" fill="none" xmlns="http://www.w3.org/2000/svg">
<path fill-rule="evenodd" clip-rule="evenodd" d="M16.5 2.00073C8.76852 2.00073 2.50092 8.26834 2.50092 15.9998C2.50092 23.7313 8.76852 29.9989 16.5 29.9989C24.2315 29.9989 30.4991 23.7313 30.4991 15.9998C30.4991 8.26834 24.2315 2.00073 16.5 2.00073ZM0.500916 15.9998C0.500916 7.16377 7.66395 0.000732422 16.5 0.000732422C25.3361 0.000732422 32.4991 7.16377 32.4991 15.9998C32.4991 24.8359 25.3361 31.9989 16.5 31.9989C7.66395 31.9989 0.500916 24.8359 0.500916 15.9998ZM16.5 13.7501C17.0523 13.7501 17.5 14.1978 17.5 14.7501V23.4996C17.5 24.0519 17.0523 24.4996 16.5 24.4996C15.9477 24.4996 15.5 24.0519 15.5 23.4996V14.7501C15.5 14.1978 15.9477 13.7501 16.5 13.7501ZM18.0624 9.12523C18.0624 10.1607 17.223 11.0001 16.1875 11.0001C15.152 11.0001 14.3126 10.1607 14.3126 9.12523C14.3126 8.08976 15.152 7.25035 16.1875 7.25035C17.223 7.25035 18.0624 8.08976 18.0624 9.12523Z" fill="#111827"/>
</svg>
