<svg width="33" height="32" viewBox="0 0 33 32" fill="none" xmlns="http://www.w3.org/2000/svg">
<path fill-rule="evenodd" clip-rule="evenodd" d="M15.9175 0.123578C15.6051 -0.0495079 15.2241 -0.04285 14.9179 0.141046L4.00273 6.6973C3.69814 6.88025 3.5135 7.2111 3.51771 7.56639C3.52192 7.92168 3.71435 8.24806 4.02319 8.42375L16.8301 15.709C17.3101 15.9821 17.9207 15.8143 18.1937 15.3343C18.4668 14.8542 18.299 14.2437 17.819 13.9706L6.49881 7.53107L15.453 2.1527L28.2571 9.24694C28.7402 9.51461 29.3488 9.33996 29.6165 8.85687C29.8841 8.37378 29.7095 7.76518 29.2264 7.49752L15.9175 0.123578ZM2.74745 9.90082C3.05581 9.71863 3.43806 9.71528 3.74958 9.89202L15.9693 16.8251C16.4496 17.0976 16.6181 17.708 16.3455 18.1883C16.073 18.6687 15.4627 18.8372 14.9823 18.5646L4.27786 12.4912L4.41444 23.3878L15.7401 29.9403C16.2181 30.2169 16.3814 30.8287 16.1048 31.3067C15.8283 31.7847 15.2165 31.9481 14.7385 31.6715L2.92086 24.8343C2.61577 24.6578 2.42614 24.3337 2.42172 23.9812L2.25618 10.7743C2.25169 10.4162 2.43908 10.083 2.74745 9.90082ZM30.5519 10.2759C30.841 10.7465 30.6938 11.3623 30.2232 11.6514L18.9555 18.5729L18.9915 29.2339L29.227 23.058C29.6998 22.7727 30.3145 22.9247 30.5998 23.3976C30.8851 23.8705 30.7331 24.4851 30.2602 24.7704L18.5141 31.8579C18.2057 32.0439 17.8212 32.0498 17.5073 31.8733C17.1934 31.6968 16.9987 31.3651 16.9975 31.005L16.9536 18.0181C16.9525 17.6694 17.133 17.3452 17.4302 17.1627L29.1764 9.94724C29.647 9.65816 30.2628 9.80531 30.5519 10.2759Z" fill="#111827"/>
</svg>
