<svg width="33" height="32" viewBox="0 0 33 32" fill="none" xmlns="http://www.w3.org/2000/svg">
<path fill-rule="evenodd" clip-rule="evenodd" d="M0.500977 6.00085C0.500977 2.68714 3.18727 0.000854492 6.50098 0.000854492H26.4991C29.8129 0.000854492 32.4991 2.68715 32.4991 6.00085V25.999C32.4991 29.3127 29.8129 31.999 26.4991 31.999H6.50098C3.18727 31.999 0.500977 29.3127 0.500977 25.999V6.00085ZM6.50098 2.00085C4.29184 2.00085 2.50098 3.79171 2.50098 6.00085V25.999C2.50098 28.2082 4.29184 29.999 6.50098 29.999H26.4991C28.7083 29.999 30.4991 28.2082 30.4991 25.999V6.00085C30.4991 3.79172 28.7083 2.00085 26.4991 2.00085H6.50098ZM16.5 10.4786C13.4507 10.4786 10.9787 12.9506 10.9787 15.9999C10.9787 19.0493 13.4507 21.5213 16.5 21.5213C19.5494 21.5213 22.0214 19.0493 22.0214 15.9999C22.0214 12.9506 19.5494 10.4786 16.5 10.4786ZM8.9787 15.9999C8.9787 11.846 12.3461 8.47858 16.5 8.47858C20.654 8.47858 24.0214 11.846 24.0214 15.9999C24.0214 20.1538 20.654 23.5213 16.5 23.5213C12.3461 23.5213 8.9787 20.1538 8.9787 15.9999ZM26.934 7.52222C26.934 8.60271 26.058 9.47862 24.9775 9.47862C23.8971 9.47862 23.0211 8.60271 23.0211 7.52222C23.0211 6.44173 23.8971 5.56582 24.9775 5.56582C26.058 5.56582 26.934 6.44173 26.934 7.52222Z" fill="#111827"/>
</svg>
