<svg width="33" height="32" viewBox="0 0 33 32" fill="none" xmlns="http://www.w3.org/2000/svg">
<path fill-rule="evenodd" clip-rule="evenodd" d="M1.18286 -0.000244141H0.182861V0.999756V31.0002V32.0002H1.18286H31.1833H32.1833V31.0002V0.999756V-0.000244141H31.1833H1.18286ZM2.18286 30.0002V1.99976H30.1833V30.0002H2.18286ZM15.2829 25.3749H4.03269V27.2499H15.2829V25.3749ZM12.0578 4.89959V7.14962H10.3328V15.0247H12.0578V17.3498H5.90772V15.0247H7.63274V7.14962H5.90772V4.89959H12.0578ZM15.5829 16.9748C16.3497 17.3577 17.2016 17.5384 18.0579 17.4998C19.1152 17.4462 20.1329 17.0808 20.9829 16.4498C21.4727 16.0023 21.8351 15.4329 22.033 14.7997C22.2595 14.1756 22.3614 13.5131 22.333 12.8497V4.74958H19.5579V12.7747C19.6165 13.3381 19.4553 13.9023 19.1079 14.3497C18.82 14.7133 18.3703 14.9101 17.9079 14.8747C17.4874 14.8917 17.0709 14.7876 16.7079 14.5747C16.3221 14.3192 15.9694 14.0169 15.6579 13.6747L13.9328 15.6248C14.3963 16.1712 14.9555 16.6286 15.5829 16.9748Z" fill="#111827"/>
</svg>
