<svg width="33" height="32" viewBox="0 0 33 32" fill="none" xmlns="http://www.w3.org/2000/svg">
<path fill-rule="evenodd" clip-rule="evenodd" d="M10.5322 0.135606C11.0105 -0.140536 11.6221 0.0233392 11.8983 0.501632L13.459 3.20483C14.2802 3.04286 15.1285 2.95808 15.9957 2.95808C16.8629 2.95808 17.7112 3.04286 18.5324 3.20481L20.0931 0.501634C20.3692 0.0233419 20.9808 -0.140533 21.4591 0.135609L27.003 3.3364C27.4813 3.61254 27.6452 4.22413 27.369 4.70242L25.8072 7.40762C26.9196 8.67695 27.7902 10.1648 28.3459 11.7993H31.4664C32.0187 11.7993 32.4664 12.247 32.4664 12.7993V19.2009C32.4664 19.7532 32.0187 20.2009 31.4664 20.2009H28.3458C27.79 21.8352 26.9194 23.323 25.807 24.5923L27.369 27.2978C27.6452 27.7761 27.4813 28.3877 27.003 28.6638L21.4591 31.8646C21.2294 31.9972 20.9564 32.0331 20.7002 31.9645C20.4441 31.8959 20.2257 31.7283 20.093 31.4986L18.5321 28.7949C17.711 28.9568 16.8628 29.0416 15.9957 29.0416C15.1286 29.0416 14.2804 28.9568 13.4592 28.7949L11.8983 31.4986C11.7657 31.7283 11.5472 31.8959 11.2911 31.9645C11.0349 32.0331 10.7619 31.9972 10.5322 31.8646L4.98831 28.6638C4.51002 28.3877 4.34615 27.7761 4.62229 27.2978L6.18434 24.5922C5.168 23.4326 4.35351 22.0905 3.79655 20.6208H5.96419C6.50279 21.7879 7.23946 22.8457 8.13169 23.7508C8.44754 24.0713 8.51051 24.5632 8.28554 24.9528L6.85434 27.4318L10.6662 29.6325L12.0959 27.1562C12.3208 26.7668 12.7779 26.5753 13.2132 26.6883C14.101 26.9187 15.0333 27.0416 15.9957 27.0416C16.9581 27.0416 17.8903 26.9187 18.7782 26.6883C19.2134 26.5753 19.6706 26.7668 19.8954 27.1562L21.3251 29.6325L25.137 27.4318L23.7058 24.9529C23.4808 24.5632 23.5438 24.0713 23.8597 23.7509C25.1645 22.4271 26.1367 20.777 26.6432 18.9357C26.7625 18.5016 27.1572 18.2009 27.6074 18.2009H30.4664V13.7993H27.6075C27.1573 13.7993 26.7627 13.4985 26.6433 13.0645C26.1369 11.2231 25.1647 9.57281 23.8598 8.24898C23.544 7.92855 23.481 7.43664 23.706 7.04699L25.137 4.56845L21.3251 2.36766L19.8957 4.84352C19.6708 5.23296 19.2137 5.42442 18.7784 5.31145C17.8905 5.08099 16.9582 4.95808 15.9957 4.95808C15.0332 4.95808 14.1009 5.081 13.2129 5.31147C12.7777 5.42444 12.3205 5.23298 12.0957 4.84354L10.6662 2.36766L6.85433 4.56845L8.28535 7.04704C8.51031 7.43669 8.44735 7.92859 8.13151 8.24903C7.25838 9.13484 6.53422 10.1668 5.99889 11.3044H3.82504C4.38109 9.86396 5.18509 8.54767 6.18416 7.40767L4.62228 4.70242C4.48967 4.47274 4.45374 4.19978 4.52238 3.9436C4.59102 3.68742 4.75862 3.469 4.98831 3.3364L10.5322 0.135606ZM15.9958 7.26531C15.4435 7.26531 14.9958 7.71303 14.9958 8.26531C14.9958 8.8176 15.4435 9.26531 15.9958 9.26531C19.7157 9.26531 22.7312 12.2808 22.7312 16.0007C22.7312 19.7205 19.7157 22.7361 15.9958 22.7361C15.4435 22.7361 14.9958 23.1838 14.9958 23.7361C14.9958 24.2884 15.4435 24.7361 15.9958 24.7361C20.8202 24.7361 24.7312 20.8251 24.7312 16.0007C24.7312 11.1763 20.8202 7.26531 15.9958 7.26531ZM11.6541 10.4726C12.0446 10.0821 12.6778 10.0821 13.0683 10.4726L17.8889 15.2931C18.0168 15.4211 18.1028 15.575 18.1469 15.7379C18.1617 15.7926 18.1718 15.8483 18.1772 15.9044C18.1803 15.9364 18.1818 15.9685 18.1818 16.0006C18.1818 16.0006 18.1818 16.0006 18.1818 16.0006C18.1818 16.2844 18.0635 16.5407 17.8736 16.7227L13.0683 21.5279C12.6778 21.9184 12.0446 21.9184 11.6541 21.5279C11.2636 21.1374 11.2636 20.5042 11.6541 20.1137L14.7672 17.0006L1.53357 17.0006C0.981284 17.0006 0.533569 16.5529 0.533569 16.0006C0.533569 15.4483 0.981285 15.0006 1.53357 15.0006L14.7679 15.0006L11.6541 11.8868C11.2636 11.4963 11.2636 10.8631 11.6541 10.4726Z" fill="#111827"/>
</svg>
