<svg width="32" height="32" viewBox="0 0 32 32" fill="none" xmlns="http://www.w3.org/2000/svg">
<path d="M15.1302 21.6736C18.2635 21.6736 20.8036 19.1336 20.8036 16.0003C20.8036 12.867 18.2635 10.3269 15.1302 10.3269" stroke="#1C1B1F" stroke-width="2" stroke-linecap="round" stroke-linejoin="round"/>
<path fill-rule="evenodd" clip-rule="evenodd" d="M12.3558 4.49961C12.0797 4.02131 11.4681 3.85744 10.9898 4.13358L6.92368 6.48114C6.44539 6.75728 6.28151 7.36887 6.55766 7.84716L7.60873 9.66767C6.89175 10.5185 6.3161 11.4933 5.91868 12.5559H8.09397C8.4677 11.794 8.96188 11.1011 9.55217 10.5023C9.86802 10.1818 9.93098 9.68992 9.70601 9.30027L8.78971 7.71319L11.1237 6.36563L12.0389 7.95075C12.2638 8.34019 12.7209 8.53165 13.1562 8.41868C13.7857 8.25528 14.447 8.16806 15.1301 8.16806C15.8132 8.16806 16.4745 8.25528 17.104 8.41867C17.5393 8.53164 17.9965 8.34018 18.2213 7.95074L19.1364 6.36567L21.4705 7.71322L20.5542 9.30025C20.3292 9.6899 20.3922 10.1818 20.7081 10.5022C21.6339 11.4415 22.3233 12.6121 22.6824 13.9177C22.8017 14.3517 23.1964 14.6525 23.6466 14.6525H25.4768V17.3476H23.6465C23.1963 17.3476 22.8017 17.6484 22.6823 18.0824C22.3232 19.3879 21.6338 20.5583 20.708 21.4975C20.3921 21.818 20.3292 22.3099 20.5541 22.6995L21.4705 24.2867L19.1364 25.6343L18.2212 24.049C17.9963 23.6596 17.5392 23.4681 17.104 23.5811C16.4744 23.7444 15.8132 23.8317 15.1301 23.8317C14.447 23.8317 13.7858 23.7444 13.1563 23.5811C12.721 23.4681 12.2639 23.6595 12.039 24.049L11.1237 25.6343L8.78971 24.2867L9.70609 22.6995C9.93105 22.3099 9.86809 21.8179 9.55224 21.4975C8.94777 20.8843 8.44408 20.1725 8.06731 19.3889H5.89833C6.29636 20.4729 6.87946 21.4666 7.6088 22.3321L6.55766 24.1528C6.42505 24.3824 6.38911 24.6554 6.45775 24.9116C6.5264 25.1678 6.694 25.3862 6.92368 25.5188L10.9898 27.8663C11.2195 27.999 11.4924 28.0349 11.7486 27.9662C12.0048 27.8976 12.2232 27.73 12.3558 27.5003L13.4063 25.6809C13.9665 25.78 14.5426 25.8317 15.1301 25.8317C15.7176 25.8317 16.2937 25.78 16.8539 25.6809L17.9044 27.5003C18.1805 27.9786 18.7921 28.1425 19.2704 27.8663L23.3365 25.5188C23.5662 25.3861 23.7338 25.1677 23.8024 24.9115C23.8711 24.6554 23.8351 24.3824 23.7025 24.1527L22.6514 22.3322C23.39 21.4557 23.9786 20.4476 24.377 19.3476H26.4768C27.0291 19.3476 27.4768 18.8999 27.4768 18.3476V13.6525C27.4768 13.1002 27.0291 12.6525 26.4768 12.6525H24.3771C23.9788 11.5524 23.3901 10.5442 22.6515 9.66764L23.7025 7.8472C23.8351 7.61752 23.8711 7.34456 23.8024 7.08838C23.7338 6.8322 23.5662 6.61378 23.3365 6.48117L19.2704 4.13362C18.7921 3.85747 18.1805 4.02135 17.9044 4.49964L16.8541 6.31887C16.2938 6.2197 15.7176 6.16806 15.1301 6.16806C14.5426 6.16806 13.9664 6.2197 13.4061 6.31887L12.3558 4.49961Z" fill="#1C1B1F"/>
<path d="M12.4645 12.4645L16 16L12.4645 19.5355" stroke="#1C1B1F" stroke-width="2" stroke-linecap="round" stroke-linejoin="round"/>
<path d="M16 16.0002L4.52316 16.0002" stroke="#1C1B1F" stroke-width="2" stroke-linecap="round" stroke-linejoin="round"/>
</svg>
