<svg width="33" height="32" viewBox="0 0 33 32" fill="none" xmlns="http://www.w3.org/2000/svg">
<path fill-rule="evenodd" clip-rule="evenodd" d="M2.50098 11.3848C2.50098 6.20221 6.70233 2.00085 11.885 2.00085C16.3266 2.00085 20.0475 5.08673 21.0207 9.23149C16.9493 9.26456 13.3872 11.4349 11.4014 14.6757C11.3962 14.684 11.3911 14.6923 11.3861 14.7007C10.3513 16.3993 9.74882 18.3902 9.73149 20.5206C5.58679 19.5473 2.50098 15.8264 2.50098 11.3848ZM12.5041 16.8796C12.0068 18.0243 11.7311 19.2875 11.7311 20.6151C11.7311 20.666 11.7315 20.7169 11.7323 20.7676C11.7831 20.7684 11.834 20.7688 11.885 20.7688C13.2125 20.7688 14.4757 20.4931 15.6204 19.9959L12.5041 16.8796ZM17.4179 18.965C18.2012 18.3922 18.8924 17.701 19.4652 16.9176L15.5824 13.0348C14.799 13.6076 14.1078 14.2988 13.535 15.0821L17.4179 18.965ZM9.90301 22.5969C4.56062 21.659 0.500977 16.996 0.500977 11.3848C0.500977 5.09764 5.59776 0.000854492 11.885 0.000854492C17.4962 0.000854492 22.1592 4.06058 23.097 9.40304C28.4394 10.3409 32.4991 15.0039 32.4991 20.6151C32.4991 26.9023 27.4023 31.9991 21.1151 31.9991C15.5039 31.9991 10.8409 27.9394 9.90301 22.5969ZM23.2686 11.4794C27.4133 12.4526 30.4991 16.1735 30.4991 20.6151C30.4991 25.7977 26.2977 29.9991 21.1151 29.9991C16.6734 29.9991 12.9525 26.9132 11.9793 22.7684C16.0485 22.7354 19.6089 20.5674 21.5953 17.3296C21.603 17.3177 21.6104 17.3056 21.6175 17.2934C22.6501 15.5961 23.2512 13.6073 23.2686 11.4794ZM17.3799 12.0039L20.4961 15.1201C20.9933 13.9755 21.2689 12.7123 21.2689 11.3848C21.2689 11.3339 21.2685 11.2831 21.2677 11.2323C21.2169 11.2315 21.1661 11.2311 21.1151 11.2311C19.7876 11.2311 18.5245 11.5067 17.3799 12.0039Z" fill="#111827"/>
</svg>
