<svg width="33" height="32" viewBox="0 0 33 32" fill="none" xmlns="http://www.w3.org/2000/svg">
<path fill-rule="evenodd" clip-rule="evenodd" d="M16.5002 1.99817C8.76715 1.99817 2.49829 8.26703 2.49829 16.0001C2.49829 23.7331 8.76715 30.0019 16.5002 30.0019C24.2332 30.0019 30.5021 23.7331 30.5021 16.0001C30.5021 13.679 29.9373 11.4898 28.9377 9.56248C29.5602 9.26531 30.1036 8.82934 30.5281 8.29462C31.7863 10.5803 32.5021 13.2066 32.5021 16.0001C32.5021 24.8377 25.3378 32.0019 16.5002 32.0019C7.66258 32.0019 0.498291 24.8377 0.498291 16.0001C0.498291 7.16246 7.66258 -0.00183105 16.5002 -0.00183105C19.2934 -0.00183105 21.9195 0.713853 24.2051 1.97185C23.6704 2.39632 23.2344 2.93981 22.9373 3.56228C21.01 2.56284 18.8211 1.99817 16.5002 1.99817ZM27.0014 5.9988C27.2778 5.9988 27.5018 5.7748 27.5018 5.49848C27.5018 5.22217 27.2778 4.99817 27.0014 4.99817C26.7251 4.99817 26.5011 5.22217 26.5011 5.49848C26.5011 5.7748 26.7251 5.9988 27.0014 5.9988ZM27.0014 7.9988C28.3823 7.9988 29.5018 6.87937 29.5018 5.49848C29.5018 4.1176 28.3823 2.99817 27.0014 2.99817C25.6206 2.99817 24.5011 4.1176 24.5011 5.49848C24.5011 6.87937 25.6206 7.9988 27.0014 7.9988ZM16.5006 21.0339C19.2625 21.0339 21.5015 18.7949 21.5015 16.033C21.5015 13.2711 19.2625 11.0322 16.5006 11.0322C13.7387 11.0322 11.4997 13.2711 11.4997 16.033C11.4997 18.7949 13.7387 21.0339 16.5006 21.0339ZM16.5006 23.0339C20.3671 23.0339 23.5015 19.8995 23.5015 16.033C23.5015 12.1666 20.3671 9.03215 16.5006 9.03215C12.6341 9.03215 9.49974 12.1666 9.49974 16.033C9.49974 19.8995 12.6341 23.0339 16.5006 23.0339Z" fill="#111827"/>
</svg>
