<svg width="32" height="33" viewBox="0 0 32 33" fill="none" xmlns="http://www.w3.org/2000/svg">
<path d="M16.0121 5.48131H16.0142C17.7146 5.48131 19.3233 5.84257 20.8448 6.54658C20.5591 6.83704 20.3157 7.16797 20.1246 7.52998C18.8284 6.96599 17.4543 6.671 16.0284 6.671C10.3348 6.671 5.71801 11.3029 5.71801 16.9814C5.71801 22.659 10.3196 27.2918 16.0142 27.2918C21.7079 27.2918 26.3246 22.6599 26.3246 16.9814C26.3246 15.7329 26.1099 14.5048 25.6547 13.3345C26.0238 13.1628 26.3626 12.9395 26.6649 12.6752C27.2249 14.0504 27.5 15.4957 27.5 16.953C27.5 23.2882 22.3352 28.453 16 28.453C9.66477 28.453 4.5 23.2882 4.5 16.953C4.5 10.6177 9.66433 5.45417 16.0121 5.48131ZM16.0142 12.0217C18.7372 12.0217 20.9746 14.2428 20.9882 16.9968C20.9875 19.7485 18.7661 21.9696 16.0142 21.9696C13.2619 21.9696 11.0403 19.7479 11.0403 16.9956C11.0403 14.2442 13.2753 12.0217 16.0142 12.0217ZM23.8483 7.50038C24.9542 7.50038 25.8507 8.39687 25.8507 9.50275C25.8507 10.6086 24.9542 11.5051 23.8483 11.5051C22.7425 11.5051 21.846 10.6086 21.846 9.50275C21.846 8.39687 22.7425 7.50038 23.8483 7.50038Z" fill="#1C1B1F" stroke="#1C1B1F"/>
</svg>
