<svg width="33" height="34" viewBox="0 0 33 34" fill="none" xmlns="http://www.w3.org/2000/svg">
<path fill-rule="evenodd" clip-rule="evenodd" d="M16.5002 2.99817C8.76715 2.99817 2.49829 9.26703 2.49829 17.0001C2.49829 24.7331 8.76715 31.0019 16.5002 31.0019C24.2332 31.0019 30.5021 24.7331 30.5021 17.0001C30.5021 14.679 29.9373 12.4898 28.9377 10.5625C29.5602 10.2653 30.1036 9.82934 30.5281 9.29462C31.7863 11.5803 32.5021 14.2066 32.5021 17.0001C32.5021 25.8377 25.3378 33.0019 16.5002 33.0019C7.66258 33.0019 0.498291 25.8377 0.498291 17.0001C0.498291 8.16246 7.66258 0.998169 16.5002 0.998169C19.2934 0.998169 21.9195 1.71385 24.2051 2.97185C23.6704 3.39632 23.2344 3.93981 22.9373 4.56228C21.01 3.56284 18.8211 2.99817 16.5002 2.99817ZM27.0014 6.9988C27.2778 6.9988 27.5018 6.7748 27.5018 6.49848C27.5018 6.22217 27.2778 5.99817 27.0014 5.99817C26.7251 5.99817 26.5011 6.22217 26.5011 6.49848C26.5011 6.7748 26.7251 6.9988 27.0014 6.9988ZM27.0014 8.9988C28.3823 8.9988 29.5018 7.87937 29.5018 6.49848C29.5018 5.1176 28.3823 3.99817 27.0014 3.99817C25.6206 3.99817 24.5011 5.1176 24.5011 6.49848C24.5011 7.87937 25.6206 8.9988 27.0014 8.9988ZM16.5006 22.0339C19.2625 22.0339 21.5015 19.7949 21.5015 17.033C21.5015 14.2711 19.2625 12.0322 16.5006 12.0322C13.7387 12.0322 11.4997 14.2711 11.4997 17.033C11.4997 19.7949 13.7387 22.0339 16.5006 22.0339ZM16.5006 24.0339C20.3671 24.0339 23.5015 20.8995 23.5015 17.033C23.5015 13.1666 20.3671 10.0322 16.5006 10.0322C12.6341 10.0322 9.49974 13.1666 9.49974 17.033C9.49974 20.8995 12.6341 24.0339 16.5006 24.0339Z" fill="#111827"/>
</svg>
