<svg width="33" height="32" viewBox="0 0 33 32" fill="none" xmlns="http://www.w3.org/2000/svg">
<path fill-rule="evenodd" clip-rule="evenodd" d="M1.50098 0.000976562C0.948692 0.000976562 0.500977 0.448692 0.500977 1.00098V30.9991C0.500977 31.5514 0.948692 31.9991 1.50098 31.9991H31.4991C32.0514 31.9991 32.4991 31.5514 32.4991 30.9991V1.00098C32.4991 0.448692 32.0514 0.000976562 31.4991 0.000976562H1.50098ZM2.50098 29.9991V2.00098H30.4991V29.9991H2.50098ZM10.0569 23.8137L7.63489 25.2795L7.63477 25.2793C8.33591 26.7665 9.71706 27.9988 12.0964 27.9988C14.7311 27.9988 16.537 26.5965 16.537 23.5158V13.3606H13.5626V23.4738C13.5626 24.9609 12.9463 25.3432 11.969 25.3432C10.9493 25.3432 10.5243 24.6422 10.0569 23.8137ZM20.5743 23.5586L18.1525 24.9608L18.1524 24.9609C19.0234 26.6819 20.8081 27.9991 23.57 27.9991C26.3958 27.9991 28.4991 26.5333 28.4991 23.8561C28.4991 21.3705 27.0756 20.2658 24.5473 19.1821L23.8037 18.8635C22.529 18.3111 21.9766 17.9497 21.9766 17.0574C21.9766 16.3351 22.529 15.7827 23.4002 15.7827C24.25 15.7827 24.8022 16.1439 25.3122 17.0574L27.6282 15.5701C26.6509 13.8492 25.2912 13.1904 23.4003 13.1904C20.7445 13.1904 19.0448 14.8902 19.0448 17.1211C19.0448 19.5431 20.4683 20.6905 22.6142 21.6038L23.3576 21.9228C24.7174 22.5175 25.5247 22.8787 25.5247 23.8985C25.5247 24.7484 24.7389 25.3646 23.5064 25.3646C22.0405 25.3646 21.2119 24.5997 20.5743 23.5586Z" fill="#111827"/>
</svg>
