<svg width="33" height="32" viewBox="0 0 33 32" fill="none" xmlns="http://www.w3.org/2000/svg">
<path fill-rule="evenodd" clip-rule="evenodd" d="M5.19854 3.21497C4.73723 3.21497 4.33579 3.53053 4.22683 3.97879L2.58967 10.7146H1.50085C0.94857 10.7146 0.500854 11.1623 0.500854 11.7146C0.500854 12.2668 0.94857 12.7146 1.50085 12.7146H2.64356V22.4282V22.4282V22.4282V27.785C2.64356 28.3373 3.09128 28.785 3.64356 28.785H9.53608C10.0884 28.785 10.5361 28.3373 10.5361 27.785V23.4282H22.4638V27.7849C22.4638 28.3372 22.9115 28.7849 23.4638 28.7849H29.3563C29.9085 28.7849 30.3563 28.3372 30.3563 27.7849V22.4353C30.3563 22.4329 30.3563 22.4305 30.3563 22.4282V12.7146H31.499C32.0513 12.7146 32.499 12.2668 32.499 11.7146C32.499 11.1623 32.0513 10.7146 31.499 10.7146H30.4102L28.773 3.97879C28.6641 3.53053 28.2626 3.21497 27.8013 3.21497H5.19854ZM28.3563 23.4282H24.4638V26.7849H28.3563V23.4282ZM23.4761 21.4282H28.3563V12.7146H4.64356V21.4282H13.3573V16C13.3573 15.4477 13.8051 15 14.3573 15C14.9096 15 15.3573 15.4477 15.3573 16V21.4282H17.6425V16C17.6425 15.4477 18.0902 15 18.6425 15C19.1948 15 19.6425 15.4477 19.6425 16V21.4282H23.4515C23.4556 21.4281 23.4597 21.4281 23.4638 21.4281C23.4679 21.4281 23.472 21.4281 23.4761 21.4282ZM4.64356 26.785V23.4282H8.53608V26.785H4.64356ZM4.64791 10.7145L5.9846 5.21497H27.0153L28.352 10.7145H4.64791ZM9.00037 18.1428C9.88792 18.1428 10.6074 17.4233 10.6074 16.5357C10.6074 15.6482 9.88792 14.9287 9.00037 14.9287C8.11283 14.9287 7.39333 15.6482 7.39333 16.5357C7.39333 17.4233 8.11283 18.1428 9.00037 18.1428ZM25.6065 16.5357C25.6065 17.4233 24.887 18.1428 23.9994 18.1428C23.1119 18.1428 22.3924 17.4233 22.3924 16.5357C22.3924 15.6482 23.1119 14.9287 23.9994 14.9287C24.887 14.9287 25.6065 15.6482 25.6065 16.5357Z" fill="#111827"/>
</svg>
