<svg width="33" height="32" viewBox="0 0 33 32" fill="none" xmlns="http://www.w3.org/2000/svg">
<path d="M4.35294 16.7091V16.687V13.315H5.09247V16.9685C5.12683 17.2629 5.10154 17.5613 5.01809 17.8457C4.93466 18.1302 4.79478 18.3949 4.60681 18.6241C4.25746 18.9255 3.80983 19.0884 3.3485 19.0822L3.27124 18.5303C3.5688 18.5305 3.85587 18.4204 4.07699 18.2212C4.27567 17.9895 4.35294 17.6749 4.35294 16.7091ZM9.86814 16.2738C9.86814 16.6877 9.86814 17.0574 9.90125 17.3775H9.24451L9.20036 16.7208C9.06299 16.9532 8.86654 17.145 8.63099 17.2768C8.39543 17.4087 8.12917 17.4758 7.85927 17.4714C7.21908 17.4714 6.45748 17.1237 6.45748 15.7053V13.3488H7.19701V15.5563C7.19701 16.3234 7.43432 16.8367 8.1021 16.8367C8.23949 16.8382 8.37579 16.8122 8.50301 16.7603C8.63023 16.7084 8.7458 16.6316 8.84295 16.5345C8.9401 16.4373 9.01688 16.3217 9.06878 16.1945C9.12067 16.0673 9.14665 15.931 9.14517 15.7936V13.3212H9.88469V16.2517L9.86814 16.2738ZM11.2699 14.6618C11.2699 14.1485 11.2699 13.7291 11.2368 13.3483H11.8991L11.9322 14.0381C12.0798 13.7889 12.2922 13.5844 12.5468 13.4464C12.8015 13.3083 13.0888 13.242 13.3782 13.2545C14.3605 13.2545 15.1 14.0768 15.1 15.302C15.1 16.7479 14.2115 17.4654 13.2512 17.4654C13.0054 17.4763 12.761 17.4237 12.5415 17.3125C12.322 17.2013 12.135 17.0353 11.9984 16.8307V19.0382H11.2699V14.6783V14.6618ZM11.9984 15.7379C12.0004 15.8381 12.0115 15.9378 12.0316 16.036C12.0942 16.281 12.2367 16.4982 12.4366 16.6531C12.6365 16.8081 12.8824 16.8919 13.1353 16.8914C13.9135 16.8914 14.3716 16.2567 14.3716 15.3351C14.3716 14.5293 13.9411 13.8395 13.1629 13.8395C12.855 13.8647 12.5668 14.0013 12.3524 14.2239C12.138 14.4464 12.0122 14.7394 11.9984 15.0481V15.7379ZM16.4177 13.3446L17.3062 15.7232C17.4 15.9881 17.4994 16.3082 17.5656 16.5455C17.6428 16.3027 17.7256 15.9937 17.825 15.7067L18.6307 13.3446H19.4089L18.3051 16.2144C17.7532 17.5941 17.4166 18.3061 16.9088 18.7365C16.6531 18.9701 16.3413 19.1336 16.0037 19.2112L15.8216 18.593C16.0577 18.5155 16.2768 18.3938 16.4673 18.2343C16.7366 18.0149 16.9502 17.7351 17.091 17.4175C17.1211 17.3625 17.1416 17.3028 17.1517 17.2409C17.1454 17.1743 17.1286 17.1091 17.102 17.0478L15.6009 13.3336H16.4066L16.4177 13.3446ZM21.3721 12.1868V13.3457H22.4318V13.8976H21.3721V16.0721C21.3721 16.5688 21.5156 16.8557 21.924 16.8557C22.0691 16.8581 22.2138 16.8414 22.3545 16.8061L22.3876 17.3579C22.1766 17.431 21.954 17.4647 21.7309 17.4573C21.5831 17.4665 21.435 17.4437 21.2969 17.3904C21.1588 17.337 21.0338 17.2544 20.9306 17.1482C20.7058 16.8476 20.6033 16.4729 20.6436 16.0996V13.8921H20.0145V13.3402H20.6547V12.3579L21.3721 12.1868ZM23.7941 15.4902C23.7791 15.6773 23.8049 15.8655 23.8698 16.0417C23.9347 16.2179 24.037 16.3779 24.1698 16.5107C24.3026 16.6435 24.4626 16.7458 24.6388 16.8107C24.815 16.8756 25.0032 16.9014 25.1903 16.8864C25.5689 16.8949 25.945 16.8234 26.2941 16.6767L26.421 17.2286C25.9927 17.4051 25.532 17.4897 25.0689 17.477C24.7989 17.4954 24.5282 17.4553 24.2751 17.3593C24.0221 17.2633 23.7929 17.1137 23.6031 16.9208C23.4133 16.7279 23.2675 16.4962 23.1757 16.2416C23.0839 15.9871 23.0482 15.7157 23.0711 15.446C23.0711 14.2319 23.7941 13.2716 24.9751 13.2716C26.2996 13.2716 26.6308 14.4305 26.6308 15.1701C26.6378 15.284 26.6378 15.3983 26.6308 15.5122H23.7775L23.7941 15.4902ZM25.9575 14.9383C25.9788 14.7907 25.9682 14.6403 25.9264 14.4972C25.8847 14.3541 25.8128 14.2216 25.7155 14.1086C25.6182 13.9957 25.4979 13.9049 25.3625 13.8423C25.2272 13.7798 25.08 13.747 24.931 13.7462C24.6277 13.7681 24.3436 13.9026 24.1343 14.1231C23.9251 14.3436 23.8057 14.6343 23.7996 14.9383H25.9575ZM27.7528 14.5996C27.7528 14.1249 27.7528 13.7165 27.7197 13.3413H28.382V14.1305H28.4151C28.4846 13.8869 28.6282 13.671 28.826 13.5127C29.0238 13.3545 29.266 13.2618 29.5189 13.2474C29.5885 13.2383 29.659 13.2383 29.7286 13.2474V13.9373C29.6443 13.9275 29.5591 13.9275 29.4747 13.9373C29.2242 13.947 28.9858 14.0476 28.804 14.2202C28.6222 14.3929 28.5095 14.6258 28.4869 14.8755C28.4662 14.9884 28.4551 15.1029 28.4537 15.2177V17.3645H27.7253V14.6051L27.7528 14.5996Z" fill="#111827"/>
<path fill-rule="evenodd" clip-rule="evenodd" d="M24.1755 2.37182C24.1755 1.61785 24.7924 1.00024 25.5612 1.00024C26.33 1.00024 26.9468 1.61785 26.9468 2.37182C26.9468 3.1258 26.33 3.7434 25.5612 3.7434C24.7924 3.7434 24.1755 3.1258 24.1755 2.37182ZM25.5612 0.000244141C24.2472 0.000244141 23.1755 1.05851 23.1755 2.37182C23.1755 3.68514 24.2472 4.7434 25.5612 4.7434C26.8752 4.7434 27.9468 3.68514 27.9468 2.37182C27.9468 1.05851 26.8752 0.000244141 25.5612 0.000244141ZM9.91862 7.35681C8.50683 7.85018 7.38155 8.46602 6.51396 9.06377C8.60766 5.78043 12.3001 3.59938 16.507 3.59938C20.6828 3.59938 24.3518 5.74834 26.4534 8.99129C24.4042 7.59437 22.3315 7.03378 21.2547 6.79534C16.5389 5.64595 11.8239 6.6293 9.91862 7.35681ZM16.507 2.59938C10.9948 2.59938 6.29399 6.05459 4.4847 10.9048L5.32917 11.4091C5.95519 10.6949 7.51264 9.25549 10.2551 8.29854L10.2622 8.29607L10.2691 8.29339C12.0261 7.62067 16.5394 6.67382 21.0229 7.76811L21.0228 7.76822L21.0335 7.77057C22.3842 8.06926 25.3059 8.8869 27.6502 11.2899L28.4743 10.7602C26.6263 5.98613 21.9643 2.59938 16.507 2.59938ZM5.33597 19.2385L4.47914 19.7279C6.28435 24.5859 10.9891 28.0482 16.507 28.0482C21.9613 28.0482 26.6211 24.6652 28.4713 19.8953L27.6441 19.3686C26.5035 20.559 24.3557 22.1844 20.563 22.9762L20.551 22.9787L20.5391 22.9818C18.9625 23.3927 14.5553 23.8357 9.89327 22.1998C9.36368 21.9927 8.49778 21.5938 7.62156 21.0699C6.73398 20.5392 5.87641 19.9041 5.33597 19.2385ZM16.507 27.0482C12.2783 27.0482 8.56941 24.8445 6.48155 21.5327C6.69021 21.6719 6.90058 21.8039 7.10837 21.9281C8.03939 22.4848 8.95995 22.9092 9.53776 23.1346L9.54567 23.1376L9.55368 23.1405C14.4193 24.8502 19.0262 24.4061 20.7793 23.9526C23.27 23.4311 25.1101 22.5623 26.4505 21.6609C24.3483 24.9013 20.6808 27.0482 16.507 27.0482ZM5.45298 3.9503C4.97584 3.9503 4.59546 4.33321 4.59546 4.79768C4.59546 5.26214 4.97584 5.64505 5.45298 5.64505C5.93011 5.64505 6.31049 5.26214 6.31049 4.79768C6.31049 4.33321 5.93011 3.9503 5.45298 3.9503ZM3.59546 4.79768C3.59546 3.77387 4.43064 2.9503 5.45298 2.9503C6.47531 2.9503 7.31049 3.77387 7.31049 4.79768C7.31049 5.82148 6.47531 6.64505 5.45298 6.64505C4.43064 6.64505 3.59546 5.82148 3.59546 4.79768ZM5.45149 29.1424C5.45149 28.1203 6.28731 27.2854 7.32624 27.2854C8.36518 27.2854 9.201 28.1203 9.201 29.1424C9.201 30.1645 8.36518 30.9994 7.32624 30.9994C6.28731 30.9994 5.45149 30.1645 5.45149 29.1424ZM7.32624 26.2854C5.7421 26.2854 4.45149 27.561 4.45149 29.1424C4.45149 30.7238 5.7421 31.9994 7.32624 31.9994C8.91038 31.9994 10.201 30.7238 10.201 29.1424C10.201 27.561 8.91038 26.2854 7.32624 26.2854Z" fill="#111827"/>
</svg>
