<svg width="33" height="32" viewBox="0 0 33 32" fill="none" xmlns="http://www.w3.org/2000/svg">
<g clip-path="url(#clip0_286_12)">
<path fill-rule="evenodd" clip-rule="evenodd" d="M12.0348 1.98047C10.6786 1.98047 9.57922 3.07987 9.57922 4.43606C9.57922 5.79224 10.6786 6.89165 12.0348 6.89165C13.391 6.89165 14.4904 5.79224 14.4904 4.43606C14.4904 3.07987 13.391 1.98047 12.0348 1.98047ZM7.57922 4.43606C7.57922 1.9753 9.57406 -0.0195312 12.0348 -0.0195312C14.4956 -0.0195312 16.4904 1.9753 16.4904 4.43606C16.4904 6.55298 15.0141 8.32509 13.0348 8.77898V10.7549C14.2389 10.9831 15.2999 11.6156 16.0712 12.5059L17.5916 11.6281C17.4621 11.2106 17.3924 10.7668 17.3924 10.3067C17.3924 7.84597 19.3872 5.85114 21.848 5.85114C24.3087 5.85114 26.3036 7.84597 26.3036 10.3067C26.3036 12.7675 24.3087 14.7623 21.848 14.7623C20.5668 14.7623 19.4119 14.2216 18.5991 13.3558L17.075 14.2358C17.2682 14.788 17.3733 15.3817 17.3733 15.9999C17.3733 16.6487 17.2576 17.2704 17.0457 17.8456L18.5466 18.7121C19.3618 17.8133 20.539 17.2487 21.848 17.2487C24.3087 17.2487 26.3036 19.2436 26.3036 21.7043C26.3036 24.1651 24.3087 26.1599 21.848 26.1599C19.3872 26.1599 17.3924 24.1651 17.3924 21.7043C17.3924 21.2714 17.4541 20.853 17.5693 20.4573L16.0137 19.5592C15.2476 20.4151 14.2093 21.0223 13.0348 21.2449V23.2209C15.0141 23.6748 16.4904 25.4469 16.4904 27.5639C16.4904 30.0246 14.4956 32.0195 12.0348 32.0195C9.57406 32.0195 7.57922 30.0246 7.57922 27.5639C7.57922 25.4469 9.05557 23.6748 11.0348 23.2209V21.2449C8.56442 20.7768 6.69629 18.6065 6.69629 15.9999C6.69629 13.3933 8.56442 11.223 11.0348 10.7549V8.77899C9.05557 8.32513 7.57922 6.553 7.57922 4.43606ZM12.0348 12.6614C10.191 12.6614 8.69629 14.1561 8.69629 15.9999C8.69629 17.8437 10.191 19.3384 12.0348 19.3384C13.8786 19.3384 15.3733 17.8437 15.3733 15.9999C15.3733 14.1561 13.8786 12.6614 12.0348 12.6614ZM9.57922 27.5639C9.57922 26.2077 10.6786 25.1083 12.0348 25.1083C13.391 25.1083 14.4904 26.2077 14.4904 27.5639C14.4904 28.92 13.391 30.0195 12.0348 30.0195C10.6786 30.0195 9.57922 28.92 9.57922 27.5639ZM21.848 19.2487C20.4918 19.2487 19.3924 20.3481 19.3924 21.7043C19.3924 23.0605 20.4918 24.1599 21.848 24.1599C23.2042 24.1599 24.3036 23.0605 24.3036 21.7043C24.3036 20.3481 23.2042 19.2487 21.848 19.2487ZM19.3924 10.3067C19.3924 8.95054 20.4918 7.85114 21.848 7.85114C23.2042 7.85114 24.3036 8.95054 24.3036 10.3067C24.3036 11.6629 23.2042 12.7623 21.848 12.7623C20.4918 12.7623 19.3924 11.6629 19.3924 10.3067Z" fill="#111827"/>
</g>
<defs>
<clipPath id="clip0_286_12">
<rect width="32" height="32" fill="white" transform="translate(0.5)"/>
</clipPath>
</defs>
</svg>
