<svg width="33" height="32" viewBox="0 0 33 32" fill="none" xmlns="http://www.w3.org/2000/svg">
<path fill-rule="evenodd" clip-rule="evenodd" d="M1.50092 1.36438C0.948631 1.36438 0.500916 1.8121 0.500916 2.36438V13.2728V13.2729V29.6356C0.500916 30.1878 0.948631 30.6356 1.50092 30.6356H11.0458C11.5981 30.6356 12.0458 30.1878 12.0458 29.6356V19.727H20.9542V24.1949C20.9542 24.7472 21.4019 25.1949 21.9542 25.1949H31.499C32.0513 25.1949 32.499 24.7472 32.499 24.1949V13.2729V13.2728V2.36438C32.499 1.8121 32.0513 1.36438 31.499 1.36438H21.9542H21.9542H11.0458H11.0458H1.50092ZM20.9542 3.36438H12.0458V13.2728V13.2729L12.0458 17.727H20.9542V13.2729V13.2728V3.36438ZM22.9542 12.2728V3.36438H30.499V12.2728H22.9542ZM22.9542 18.7367C22.9542 18.7335 22.9542 18.7303 22.9542 18.727V14.2729H30.499V23.1949H22.9542V18.7367ZM10.0458 18.727V14.2729H2.50092V28.6356H10.0458V18.7321L10.0458 18.727ZM10.0458 12.2728V3.36438H2.50092V12.2728H10.0458Z" fill="#111827"/>
</svg>
