<svg width="32" height="32" viewBox="0 0 32 32" fill="none" xmlns="http://www.w3.org/2000/svg">
<path d="M21.8913 11.6301C22.6828 11.6301 23.3245 10.9884 23.3245 10.1969C23.3245 9.40534 22.6828 8.76367 21.8913 8.76367C21.0997 8.76367 20.4581 9.40534 20.4581 10.1969C20.4581 10.9884 21.0997 11.6301 21.8913 11.6301Z" fill="#1C1B1F"/>
<path d="M4.05259 22.4676L11.6168 14.959C11.3657 14.1602 11.2303 13.3102 11.2303 12.4285C11.2303 7.77357 15.0039 4 19.6588 4C24.3138 4 28.0873 7.77357 28.0873 12.4285C28.0873 17.0834 24.3138 20.857 19.6588 20.857C18.61 20.857 17.6058 20.6654 16.6795 20.3153L15.6496 21.4357C15.56 21.5253 15.4385 21.5756 15.3118 21.5756H12.5771C12.3132 21.5756 12.0993 21.7895 12.0993 22.0533V24.2001C12.0993 24.464 11.8854 24.6779 11.6216 24.6779H9.60676C9.34291 24.6779 9.12902 24.8918 9.12902 25.1556L9.12902 27.5223C9.12902 27.7861 8.91513 28 8.65128 28H4.3904C4.12655 28 3.91266 27.7861 3.91266 27.5223V22.8055C3.91266 22.6788 3.96299 22.5572 4.05259 22.4676Z" stroke="#1C1B1F" stroke-width="2" stroke-linecap="round" stroke-linejoin="round"/>
</svg>
