<svg width="33" height="32" viewBox="0 0 33 32" fill="none" xmlns="http://www.w3.org/2000/svg">
<path fill-rule="evenodd" clip-rule="evenodd" d="M11.5808 11.5677C11.5808 6.34321 15.8161 2.10791 21.0406 2.10791C26.2651 2.10791 30.5004 6.34321 30.5004 11.5677C30.5004 16.7922 26.2651 21.0275 21.0406 21.0275C19.8615 21.0275 18.7351 20.8123 17.6968 20.4199C17.3148 20.2755 16.8834 20.3779 16.6071 20.6785L15.4664 21.9193H12.2521C11.3723 21.9193 10.6592 22.6324 10.6592 23.5121V25.7692H8.56591C7.68619 25.7692 6.97304 26.4824 6.97303 27.3621L6.97304 29.892H2.49951L2.49951 24.6151L11.7649 15.4177C12.0302 15.1543 12.1265 14.7649 12.0143 14.4082C11.7329 13.5128 11.5808 12.559 11.5808 11.5677ZM21.0406 0.10791C14.7115 0.10791 9.58077 5.23864 9.58077 11.5677C9.58077 12.5491 9.70436 13.503 9.93723 14.4139L0.968664 23.3166L0.966054 23.3192C0.66733 23.6179 0.499513 24.0231 0.499513 24.4455L0.499512 30.2991C0.499512 31.1788 1.21267 31.892 2.09239 31.892H7.38016C8.25989 31.892 8.97303 31.1788 8.97303 30.2991L8.97303 27.7692H11.0663C11.946 27.7692 12.6592 27.0561 12.6592 26.1763V23.9193H15.6458C16.0683 23.9193 16.4734 23.7515 16.7722 23.4527L16.7837 23.441C16.7878 23.4368 16.7918 23.4325 16.7958 23.4282C16.7976 23.4263 16.7994 23.4244 16.8012 23.4224L17.637 22.5133C18.7133 22.8477 19.8567 23.0275 21.0406 23.0275C27.3696 23.0275 32.5004 17.8968 32.5004 11.5677C32.5004 5.23864 27.3696 0.10791 21.0406 0.10791ZM25.5897 8.79814C25.5897 9.78045 24.7934 10.5768 23.811 10.5768C22.8287 10.5768 22.0324 9.78045 22.0324 8.79814C22.0324 7.81583 22.8287 7.01952 23.811 7.01952C24.7934 7.01952 25.5897 7.81583 25.5897 8.79814Z" fill="#111827"/>
</svg>
