<svg width="33" height="32" viewBox="0 0 33 32" fill="none" xmlns="http://www.w3.org/2000/svg">
<path fill-rule="evenodd" clip-rule="evenodd" d="M1.50092 4.61603C0.948631 4.61603 0.500916 5.06374 0.500916 5.61603V26.384C0.500916 26.9363 0.948631 27.384 1.50092 27.384H31.4991C32.0514 27.384 32.4991 26.9363 32.4991 26.384V5.61603C32.4991 5.06374 32.0514 4.61603 31.4991 4.61603H1.50092ZM2.50092 25.384V6.61603H30.4991V25.384H2.50092ZM6.11601 10.3849C5.56372 10.3849 5.11601 10.8326 5.11601 11.3849C5.11601 11.9371 5.56372 12.3849 6.11601 12.3849H26.884C27.4363 12.3849 27.884 11.9371 27.884 11.3849C27.884 10.8326 27.4363 10.3849 26.884 10.3849H6.11601ZM6.11601 15C5.56372 15 5.11601 15.4478 5.11601 16C5.11601 16.5523 5.56372 17 6.11601 17H26.884C27.4363 17 27.884 16.5523 27.884 16C27.884 15.4478 27.4363 15 26.884 15H6.11601ZM5.11601 20.6151C5.11601 20.0628 5.56372 19.6151 6.11601 19.6151H7.26978C7.82207 19.6151 8.26978 20.0628 8.26978 20.6151C8.26978 21.1674 7.82207 21.6151 7.26978 21.6151H6.11601C5.56372 21.6151 5.11601 21.1674 5.11601 20.6151ZM11.8849 19.6151C11.3326 19.6151 10.8849 20.0628 10.8849 20.6151C10.8849 21.1674 11.3326 21.6151 11.8849 21.6151H21.1151C21.6674 21.6151 22.1151 21.1674 22.1151 20.6151C22.1151 20.0628 21.6674 19.6151 21.1151 19.6151H11.8849ZM24.7302 20.6151C24.7302 20.0628 25.1779 19.6151 25.7302 19.6151H26.884C27.4363 19.6151 27.884 20.0628 27.884 20.6151C27.884 21.1674 27.4363 21.6151 26.884 21.6151H25.7302C25.1779 21.6151 24.7302 21.1674 24.7302 20.6151Z" fill="#111827"/>
</svg>
