<svg width="33" height="32" viewBox="0 0 33 32" fill="none" xmlns="http://www.w3.org/2000/svg">
<path fill-rule="evenodd" clip-rule="evenodd" d="M2.50092 15.9998C2.50092 8.26834 8.76852 2.00073 16.5 2.00073C24.2315 2.00073 30.4991 8.26834 30.4991 15.9998C30.4991 23.7313 24.2315 29.9989 16.5 29.9989C8.76852 29.9989 2.50092 23.7313 2.50092 15.9998ZM16.5 0.000732422C7.66395 0.000732422 0.500916 7.16377 0.500916 15.9998C0.500916 24.8359 7.66395 31.9989 16.5 31.9989C25.3361 31.9989 32.4991 24.8359 32.4991 15.9998C32.4991 7.16377 25.3361 0.000732422 16.5 0.000732422ZM13.1126 12.9206C13.1126 11.0498 14.6292 9.53326 16.5 9.53326C18.3708 9.53326 19.8874 11.0498 19.8874 12.9206C19.8874 14.1745 19.2067 15.2705 18.1899 15.8572C17.7806 16.0934 17.5925 16.5839 17.739 17.0333L19.5097 22.4661H13.4903L15.261 17.0333C15.4075 16.5839 15.2194 16.0934 14.8101 15.8572C13.7933 15.2705 13.1126 14.1745 13.1126 12.9206ZM16.5 7.53326C13.5246 7.53326 11.1126 9.94527 11.1126 12.9206C11.1126 14.6209 11.9006 16.1362 13.1284 17.1227L11.1618 23.1562C11.0626 23.4607 11.1152 23.7943 11.3033 24.0535C11.4915 24.3127 11.7923 24.4661 12.1126 24.4661H20.8874C21.2077 24.4661 21.5085 24.3127 21.6967 24.0535C21.8848 23.7943 21.9374 23.4607 21.8382 23.1562L19.8716 17.1227C21.0994 16.1362 21.8874 14.6209 21.8874 12.9206C21.8874 9.94527 19.4754 7.53326 16.5 7.53326Z" fill="#111827"/>
</svg>
