<svg width="33" height="32" viewBox="0 0 33 32" fill="none" xmlns="http://www.w3.org/2000/svg">
<path fill-rule="evenodd" clip-rule="evenodd" d="M1.50092 0.000915527C0.948631 0.000915527 0.500916 0.448631 0.500916 1.00092V30.9991C0.500916 31.5514 0.948631 31.9991 1.50092 31.9991H31.4991C32.0514 31.9991 32.4991 31.5514 32.4991 30.9991V1.00092C32.4991 0.448631 32.0514 0.000915527 31.4991 0.000915527H1.50092ZM2.50092 29.9991V2.00092H30.4991V29.9991H2.50092ZM15.0105 23.26C14.62 23.6505 13.9869 23.6505 13.5963 23.26L8.29336 17.957C8.19865 17.8623 8.12691 17.7534 8.07814 17.637C8.0281 17.518 8.00045 17.3872 8.00045 17.2499C8.00045 17.1035 8.0319 16.9645 8.08842 16.8392C8.12709 16.7533 8.1785 16.6717 8.24266 16.5974C8.26053 16.5766 8.27925 16.5566 8.29875 16.5374L13.5963 11.2399C13.9869 10.8493 14.62 10.8493 15.0105 11.2399C15.4011 11.6304 15.4011 12.2635 15.0105 12.6541L11.4147 16.2499H22.9995V12.2502C22.9995 11.6979 23.4472 11.2502 23.9995 11.2502C24.5518 11.2502 24.9995 11.6979 24.9995 12.2502V17.2499C24.9995 17.8022 24.5518 18.2499 23.9995 18.2499H11.4147L15.0105 21.8458C15.4011 22.2363 15.4011 22.8695 15.0105 23.26Z" fill="#111827"/>
</svg>
