<svg width="32" height="32" viewBox="0 0 32 32" fill="none" xmlns="http://www.w3.org/2000/svg">
<path d="M18.1333 11.9116L24.3073 18.0857C24.3073 18.0857 15.9998 29.1624 4 26.3932L24.0601 5.83873C24.2744 5.62434 24.5288 5.45426 24.8088 5.33821C25.0888 5.22215 25.3889 5.1624 25.692 5.16235C25.9951 5.16231 26.2953 5.22198 26.5753 5.33795C26.8553 5.45392 27.1098 5.62392 27.3241 5.83825C27.5384 6.05257 27.7084 6.30702 27.8244 6.58706C27.9404 6.8671 28 7.16724 28 7.47034C28 7.77344 27.9402 8.07357 27.8241 8.35357C27.7081 8.63358 27.538 8.88797 27.3236 9.10224L21.5122 15.292" stroke="#1C1B1F" stroke-width="2" stroke-linecap="round" stroke-linejoin="round"/>
</svg>
