<svg width="33" height="33" viewBox="0 0 33 33" fill="none" xmlns="http://www.w3.org/2000/svg">
<path d="M19.1666 11.3895L26.8841 19.107C26.8841 19.107 16.4997 32.9529 1.5 29.4914L26.5751 3.79835C26.843 3.53037 27.161 3.31777 27.511 3.1727C27.861 3.02763 28.2361 2.95294 28.615 2.95288C28.9939 2.95282 29.3691 3.02741 29.7191 3.17237C30.0692 3.31734 30.3872 3.52984 30.6551 3.79775C30.923 4.06566 31.1355 4.38372 31.2805 4.73376C31.4255 5.08381 31.5001 5.45899 31.5 5.83787C31.4999 6.21674 31.4252 6.5919 31.2802 6.9419C31.1351 7.29191 30.9225 7.60991 30.6545 7.87773L23.3903 15.6149" stroke="#111827" stroke-width="2" stroke-linecap="round" stroke-linejoin="round"/>
</svg>
