<svg width="33" height="32" viewBox="0 0 33 32" fill="none" xmlns="http://www.w3.org/2000/svg">
<g clip-path="url(#clip0_418_303)">
<path fill-rule="evenodd" clip-rule="evenodd" d="M16.9339 0.473055C16.6597 0.341013 16.3404 0.341013 16.0662 0.473055L4.03531 6.26681C3.76112 6.39885 3.56198 6.64857 3.49426 6.94526L0.522884 19.9637C0.455165 20.2604 0.526237 20.5718 0.71598 20.8097L9.04159 31.2497C9.23134 31.4877 9.5191 31.6262 9.82343 31.6262H23.1767C23.481 31.6262 23.7688 31.4877 23.9585 31.2497L32.2841 20.8097C32.4739 20.5718 32.5449 20.2604 32.4772 19.9637L29.5058 6.94526C29.4381 6.64857 29.239 6.39885 28.9648 6.26681L16.9339 0.473055ZM2.5799 19.9393L5.33696 7.8598L16.5001 2.48394L27.6631 7.8598L30.4202 19.9393L22.6951 29.6262H10.305L2.5799 19.9393ZM15.8183 6.47578C15.9325 6.34884 16.0923 6.27228 16.2629 6.26283L16.2642 6.25876C16.4347 6.26822 16.5946 6.34478 16.7088 6.47171C16.8231 6.59865 16.8824 6.76565 16.8739 6.93621V7.10964C16.8571 7.30439 16.829 7.49802 16.7899 7.68954C16.731 8.05541 16.7079 8.42614 16.7208 8.7965C16.7448 8.92024 16.8163 9.02966 16.92 9.10135C16.9206 9.11059 16.9216 9.12451 16.9228 9.14148C16.9273 9.20413 16.9349 9.30836 16.9349 9.37233C18.8638 9.5475 20.6635 10.417 21.9995 11.8193L22.2312 11.654C22.3559 11.6752 22.484 11.6612 22.6011 11.6133C22.8987 11.3926 23.1741 11.1435 23.4235 10.8695C23.5507 10.7195 23.6864 10.577 23.83 10.4427C23.8679 10.4102 23.9235 10.3668 23.9655 10.3343C24.0257 10.2703 24.0989 10.22 24.1802 10.1867C24.2616 10.1534 24.3491 10.138 24.4369 10.1415C24.5247 10.1449 24.6107 10.1672 24.6892 10.2068C24.7676 10.2464 24.8366 10.3023 24.8916 10.3709C24.9465 10.4395 24.9861 10.519 25.0077 10.6042C25.0292 10.6894 25.0322 10.7782 25.0165 10.8647C25.0008 10.9511 24.9666 11.0332 24.9165 11.1053C24.8663 11.1774 24.8012 11.2379 24.7256 11.2827C24.7135 11.2925 24.7003 11.3033 24.6868 11.3144C24.6536 11.3417 24.6181 11.3709 24.5901 11.3911C24.427 11.4992 24.2578 11.5979 24.0834 11.6865C23.7607 11.8692 23.4567 12.0829 23.1756 12.3247C23.0935 12.4204 23.0522 12.5444 23.0604 12.6702L22.8436 12.8639C23.9258 14.4769 24.378 16.431 24.1145 18.3554L24.3611 18.4272C24.4216 18.5404 24.5127 18.6343 24.624 18.6981C24.9817 18.7936 25.3479 18.854 25.7174 18.8783C25.9132 18.8829 26.1087 18.8987 26.3027 18.9258C26.3357 18.9318 26.3776 18.9424 26.4173 18.9524C26.4396 18.958 26.4612 18.9634 26.4802 18.9678C26.5644 18.9793 26.6453 19.0082 26.7177 19.0526C26.7901 19.0971 26.8524 19.1561 26.9008 19.226C26.9492 19.2958 26.9825 19.375 26.9986 19.4584C27.0147 19.5419 27.0133 19.6277 26.9944 19.7106C26.9755 19.7934 26.9396 19.8714 26.889 19.9396C26.8383 20.0079 26.774 20.0648 26.7002 20.1068C26.6263 20.1488 26.5445 20.175 26.46 20.1837C26.3755 20.1924 26.2901 20.1835 26.2092 20.1574H26.1875C26.1708 20.1538 26.1528 20.1502 26.1344 20.1465C26.0978 20.1392 26.0602 20.1316 26.0304 20.1235C25.8458 20.0634 25.6649 19.9928 25.4884 19.9121C25.1449 19.7735 24.7887 19.6687 24.4248 19.5992C24.2989 19.595 24.1764 19.6402 24.0834 19.7252C24.04 19.7157 23.9018 19.6913 23.8232 19.6791C23.2319 21.5365 21.978 23.1115 20.3005 24.1042C20.3291 24.1885 20.363 24.2709 20.4021 24.3508C20.3395 24.46 20.3224 24.5895 20.3547 24.7112C20.5034 25.051 20.6849 25.3754 20.8966 25.68C21.0152 25.8357 21.1247 25.9981 21.2245 26.1664C21.2452 26.2043 21.2718 26.2608 21.2934 26.3069C21.2973 26.3151 21.301 26.323 21.3045 26.3303C21.3474 26.4036 21.3747 26.4851 21.3845 26.5695C21.3943 26.6539 21.3864 26.7395 21.3614 26.8207C21.3363 26.9019 21.2946 26.977 21.2389 27.0412C21.1833 27.1055 21.1148 27.1574 21.038 27.1937C20.9612 27.2301 20.8776 27.25 20.7927 27.2523C20.7077 27.2546 20.6232 27.2392 20.5445 27.207C20.4659 27.1749 20.3947 27.1267 20.3357 27.0656C20.2766 27.0045 20.231 26.9317 20.2016 26.852C20.1938 26.8359 20.1849 26.8181 20.1758 26.7997C20.1579 26.7637 20.1391 26.7257 20.1257 26.6961C20.0558 26.5132 19.9966 26.3263 19.9482 26.1366C19.8423 25.7819 19.7021 25.4384 19.5295 25.1109C19.4545 25.0093 19.3426 24.9412 19.2179 24.9212C19.1999 24.8972 19.1559 24.8182 19.1183 24.7508C19.1051 24.7271 19.0926 24.7048 19.0824 24.6868C17.2673 25.3739 15.2628 25.3686 13.4514 24.6719L13.3159 24.9226C13.2167 24.9409 13.1255 24.9891 13.0544 25.0608C12.8462 25.4022 12.6871 25.7712 12.5816 26.1569C12.5337 26.3467 12.4749 26.5335 12.4054 26.7165C12.3919 26.7472 12.3729 26.7851 12.355 26.821C12.346 26.839 12.3372 26.8565 12.3296 26.8723C12.3004 26.9524 12.2548 27.0256 12.1957 27.0871C12.1367 27.1486 12.0654 27.1971 11.9865 27.2295C11.9076 27.2619 11.8228 27.2774 11.7375 27.2751C11.6523 27.2728 11.5684 27.2527 11.4914 27.2161C11.4143 27.1796 11.3458 27.1273 11.2901 27.0627C11.2344 26.9981 11.1929 26.9225 11.1681 26.8409C11.1433 26.7593 11.1358 26.6734 11.1461 26.5888C11.1565 26.5041 11.1844 26.4226 11.228 26.3493C11.2364 26.3321 11.2458 26.312 11.2555 26.291C11.2727 26.2541 11.291 26.2148 11.3066 26.1854C11.4065 26.0166 11.5159 25.8538 11.6345 25.6976C11.85 25.3849 12.0351 25.0523 12.1873 24.7044C12.2037 24.5864 12.1848 24.4662 12.1331 24.3589L12.2442 24.088C10.5726 23.1029 9.31947 21.5398 8.72145 19.694L8.45047 19.7401C8.34729 19.667 8.22574 19.6243 8.09955 19.6168C7.73569 19.6863 7.37948 19.7911 7.03595 19.9298C6.85943 20.01 6.67849 20.0801 6.49399 20.1398C6.46181 20.1488 6.41844 20.1579 6.37772 20.1664C6.36357 20.1693 6.34974 20.1722 6.33682 20.175H6.31514C6.23428 20.2011 6.14887 20.2101 6.06435 20.2014C5.97983 20.1927 5.89804 20.1665 5.82419 20.1244C5.75035 20.0824 5.68605 20.0255 5.6354 19.9573C5.58474 19.889 5.54884 19.811 5.52997 19.7282C5.5111 19.6453 5.50967 19.5595 5.52578 19.476C5.54189 19.3926 5.57519 19.3135 5.62355 19.2436C5.67191 19.1737 5.73428 19.1147 5.80669 19.0702C5.8791 19.0258 5.95997 18.9969 6.04416 18.9854H6.05364L6.06219 18.9833C6.11113 18.9714 6.17274 18.9564 6.21623 18.9474C6.41027 18.9204 6.6057 18.9046 6.80155 18.9C7.17101 18.8756 7.53721 18.8153 7.89496 18.7198C8.00139 18.6503 8.09077 18.5577 8.15646 18.4488L8.41253 18.3743C8.13522 16.4486 8.57862 14.4883 9.65769 12.8693L9.46258 12.6946C9.45568 12.568 9.41343 12.446 9.34064 12.3423C9.05956 12.1005 8.75552 11.8868 8.43286 11.7041C8.25887 11.6155 8.09013 11.5168 7.92748 11.4088C7.90423 11.3915 7.87606 11.3683 7.84818 11.3453C7.83219 11.3321 7.81629 11.319 7.80147 11.3071H7.79199C7.65303 11.2076 7.55918 11.057 7.531 10.8884C7.50281 10.7198 7.54258 10.5468 7.64159 10.4075C7.70003 10.3359 7.77453 10.279 7.85904 10.2416C7.94355 10.2042 8.0357 10.1872 8.128 10.192C8.28327 10.1985 8.43239 10.2545 8.55344 10.3519C8.55853 10.3559 8.56385 10.36 8.56931 10.3642C8.60895 10.3948 8.65679 10.4317 8.68893 10.4603C8.83256 10.5946 8.96828 10.7371 9.09541 10.8871C9.34471 11.1612 9.62016 11.4103 9.91783 11.631C10.0296 11.6898 10.16 11.7024 10.2809 11.6662C10.3009 11.6777 10.3475 11.7115 10.3964 11.7469C10.4337 11.774 10.4725 11.8021 10.5018 11.822C11.5742 10.6823 12.9628 9.88911 14.4893 9.54441C14.8525 9.46216 15.221 9.40557 15.5922 9.37504L15.6071 9.11626C15.7017 9.03201 15.7704 8.92249 15.8049 8.80056C15.8183 8.43025 15.7957 8.05951 15.7372 7.69361C15.698 7.50208 15.67 7.30846 15.6531 7.11371V6.95789V6.94028C15.6446 6.76971 15.704 6.60272 15.8183 6.47578ZM15.3171 14.1958L15.4987 10.9955C15.2815 11.022 15.0658 11.0595 14.8524 11.108C13.7095 11.3648 12.6611 11.9359 11.8255 12.7569L14.45 14.6023C14.5286 14.6578 14.6206 14.6915 14.7166 14.6997C14.8125 14.7079 14.9089 14.6904 14.9958 14.649C15.0828 14.6076 15.1571 14.5438 15.2112 14.4642C15.2653 14.3845 15.2972 14.2919 15.3036 14.1958H15.3171ZM20.6866 12.7569C19.6933 11.7845 18.4079 11.1656 17.0284 10.9955L17.214 14.1999C17.2203 14.2962 17.2521 14.389 17.3063 14.4689C17.3605 14.5488 17.435 14.6127 17.5221 14.6542C17.6093 14.6956 17.7059 14.713 17.802 14.7046C17.8982 14.6962 17.9903 14.6623 18.0689 14.6063H18.0784L20.6866 12.7569ZM13.2658 16.0954L10.869 13.9519V13.9533C10.1402 15.1436 9.82842 16.5427 9.98287 17.9299L13.0544 17.0438V17.033C13.1474 17.0061 13.2314 16.9549 13.2978 16.8846C13.3642 16.8143 13.4106 16.7275 13.4322 16.6332C13.4538 16.5389 13.4497 16.4406 13.4205 16.3484C13.3912 16.2562 13.3378 16.1735 13.2658 16.1089V16.0954ZM22.5577 17.9177C22.6913 16.531 22.3687 15.1387 21.6391 13.9519L21.6432 13.9641L19.2599 16.0967C19.1879 16.1613 19.1345 16.244 19.1053 16.3362C19.076 16.4284 19.0719 16.5267 19.0935 16.621C19.1151 16.7153 19.1615 16.8021 19.2279 16.8724C19.2943 16.9427 19.3784 16.9939 19.4713 17.0208V17.0343L22.5577 17.9177ZM16.7533 16.2553H15.771L15.1586 17.0167L15.3781 17.9651L16.2615 18.3906L17.1435 17.9665L17.363 17.0181L16.7533 16.2553ZM19.0418 18.8756C19.0012 18.8678 18.9598 18.8646 18.9185 18.8662V18.8756C18.832 18.8808 18.7481 18.9066 18.6737 18.9509C18.5993 18.9952 18.5365 19.0566 18.4908 19.1301C18.445 19.2036 18.4175 19.2871 18.4106 19.3734C18.4037 19.4597 18.4175 19.5464 18.451 19.6263L19.684 22.607C20.8593 21.8545 21.7511 20.7325 22.219 19.4176L19.0418 18.8756ZM13.8321 18.9487C13.7554 18.9057 13.6694 18.882 13.5815 18.8797L13.5774 18.8729C13.542 18.8726 13.5066 18.8758 13.4717 18.8824L10.3216 19.4176C10.7947 20.7257 11.6862 21.8411 12.858 22.5908L14.0774 19.6412L14.0679 19.629C14.1016 19.5477 14.115 19.4595 14.1069 19.372C14.0989 19.2844 14.0697 19.2001 14.0218 19.1264C13.9739 19.0526 13.9088 18.9916 13.8321 18.9487ZM16.5293 20.244C16.4422 20.194 16.3429 20.1692 16.2425 20.1723V20.1777C16.1482 20.1813 16.0565 20.2094 15.9764 20.2593C15.8963 20.3092 15.8307 20.3792 15.7859 20.4622L14.2373 23.2628C15.3462 23.6404 16.5383 23.7019 17.6801 23.4403C17.8897 23.3929 18.0968 23.335 18.3006 23.2669L16.7479 20.4555H16.7357C16.6878 20.3672 16.6163 20.294 16.5293 20.244Z" fill="#111827"/>
</g>
<defs>
<clipPath id="clip0_418_303">
<rect width="32" height="32" fill="white" transform="translate(0.5)"/>
</clipPath>
</defs>
</svg>
