<svg width="33" height="33" viewBox="0 0 33 33" fill="none" xmlns="http://www.w3.org/2000/svg">
<path fill-rule="evenodd" clip-rule="evenodd" d="M6.50049 0.500732C7.05277 0.500732 7.50049 0.948448 7.50049 1.50073V6.75035H25.4993V1.50073C25.4993 0.948448 25.947 0.500732 26.4993 0.500732C27.0515 0.500732 27.4993 0.948448 27.4993 1.50073V7.7441L27.4993 7.75035L27.4993 7.75659V16.4936L27.4993 16.4998L27.4993 16.506V25.243C27.4993 25.2451 27.4993 25.2472 27.4993 25.2493C27.4993 25.2513 27.4993 25.2534 27.4993 25.2555V31.4989C27.4993 32.0512 27.0515 32.4989 26.4993 32.4989C25.947 32.4989 25.4993 32.0512 25.4993 31.4989V26.2493H7.50049V31.4989C7.50049 32.0512 7.05277 32.4989 6.50049 32.4989C5.9482 32.4989 5.50049 32.0512 5.50049 31.4989V25.2493V16.4998V7.75035V1.50073C5.50049 0.948448 5.9482 0.500732 6.50049 0.500732ZM7.50049 24.2493H25.4993V17.4998H7.50049V24.2493ZM25.4993 8.75035V15.4998H7.50049V8.75035H25.4993Z" fill="#111827"/>
</svg>
