<svg width="33" height="32" viewBox="0 0 33 32" fill="none" xmlns="http://www.w3.org/2000/svg">
<path fill-rule="evenodd" clip-rule="evenodd" d="M7.45023 2.00037C6.89794 2.00037 6.45023 2.44808 6.45023 3.00037C6.45023 3.55265 6.89794 4.00037 7.45023 4.00037L11.9504 4.00037L14.7346 10.8913L3.75047 28.4696C3.45781 28.9379 3.60024 29.5549 4.0686 29.8475C4.53697 30.1402 5.1539 29.9978 5.44657 29.5294L15.6606 13.1835L22.1379 29.2153C22.334 29.7007 22.8712 29.9527 23.3697 29.7932L28.7062 28.0866C29.2323 27.9184 29.5223 27.3556 29.3541 26.8295C29.1859 26.3035 28.6231 26.0134 28.097 26.1817L23.6446 27.6055L13.5521 2.62576C13.3994 2.2478 13.0326 2.00037 12.6249 2.00037L7.45023 2.00037Z" fill="#111827"/>
</svg>
