<svg width="33" height="33" viewBox="0 0 33 33" fill="none" xmlns="http://www.w3.org/2000/svg">
<path fill-rule="evenodd" clip-rule="evenodd" d="M7.98321 3.61523C7.58318 3.61523 7.22164 3.85363 7.06407 4.22132L0.581591 19.3471C0.449178 19.6561 0.480851 20.0109 0.665895 20.2915C0.850939 20.5721 1.16459 20.741 1.50074 20.741H15.4998V27.3845H12.1782C11.6259 27.3845 11.1782 27.8322 11.1782 28.3845C11.1782 28.9368 11.6259 29.3845 12.1782 29.3845H16.4827L16.4998 29.3847L16.5169 29.3845H20.8215C21.3738 29.3845 21.8215 28.9368 21.8215 28.3845C21.8215 27.8322 21.3738 27.3845 20.8215 27.3845H17.4998V20.741H25.2233V25.1434C25.2233 25.6957 25.671 26.1434 26.2233 26.1434C26.7756 26.1434 27.2233 25.6957 27.2233 25.1434V20.741H31.4989C31.835 20.741 32.1487 20.5721 32.3337 20.2915C32.5188 20.0109 32.5505 19.6561 32.418 19.3471L25.9356 4.22132C25.778 3.85363 25.4165 3.61523 25.0164 3.61523H7.98321ZM3.01727 18.741L8.64261 5.61523H24.357L29.9824 18.741H3.01727Z" fill="#111827"/>
</svg>
