<svg width="33" height="32" viewBox="0 0 33 32" fill="none" xmlns="http://www.w3.org/2000/svg">
<rect x="1" y="8.14355" width="31" height="15.7126" rx="7.85631" stroke="#111827"/>
<mask id="path-2-inside-1_963_180" fill="white">
<path fill-rule="evenodd" clip-rule="evenodd" d="M16.0962 20.4938C15.8533 20.5439 15.5799 20.553 15.3941 20.3594C15.3391 20.4856 15.225 20.4571 15.1183 20.4303L15.1183 20.4303C15.0922 20.4238 15.0666 20.4173 15.0423 20.4133C15.0309 20.4452 15.021 20.4733 15.0103 20.5052C14.5999 20.5325 14.2923 20.1148 14.0966 19.7997C13.9083 19.698 13.7076 19.6157 13.5056 19.5328L13.5056 19.5328C13.291 19.4447 13.0749 19.3561 12.8706 19.243C12.8661 19.3133 12.8655 19.3868 12.8649 19.4614C12.8625 19.7706 12.8599 20.0979 12.582 20.2857C12.5726 20.6584 12.8765 20.6549 13.1754 20.6514C13.4338 20.6485 13.6886 20.6455 13.7341 20.8856C13.7137 20.8879 13.6927 20.888 13.6718 20.8882C13.6144 20.8887 13.5571 20.8891 13.5125 20.932C13.367 21.0731 13.2104 21.0117 13.0482 20.9482C12.8989 20.8897 12.7448 20.8293 12.5904 20.9236C12.4506 20.9938 12.3515 21.0598 12.2633 21.1186C12.0785 21.2417 11.9415 21.333 11.5791 21.3633C11.5494 21.3185 11.5616 21.2889 11.5867 21.2616C11.6364 21.204 11.6709 21.1431 11.704 21.0846C11.7713 20.9655 11.833 20.8566 12.0055 20.8066C11.7747 20.7703 11.5768 20.8762 11.3822 20.9804L11.3821 20.9804C11.3533 20.9959 11.3246 21.0113 11.2958 21.0261C11.1741 21.0758 11.1039 21.0368 11.0304 20.996C10.9287 20.9395 10.8208 20.8795 10.5618 21.0466C10.5123 21.0064 10.5359 20.9699 10.5641 20.9388C10.6775 20.8006 10.8268 20.7801 10.9951 20.7877C10.5563 20.5438 10.2406 20.7165 9.98386 20.857C9.75618 20.9815 9.57484 21.0807 9.39518 20.8416C9.31363 20.8632 9.26809 20.9214 9.22268 20.9794C9.20407 21.0032 9.18548 21.027 9.16445 21.0482C9.12015 20.9997 9.13106 20.9439 9.14222 20.8868C9.14679 20.8635 9.1514 20.8399 9.15229 20.8165C9.14116 20.8113 9.12959 20.8065 9.11804 20.8017C9.05209 20.7743 8.9865 20.7471 9.0053 20.6457C8.86706 20.599 8.76832 20.6738 8.66592 20.7515L8.64819 20.7649C8.58094 20.7129 8.63677 20.6446 8.68846 20.5813C8.7123 20.5521 8.73526 20.524 8.74487 20.4991C8.79236 20.4167 8.87273 20.4145 8.95252 20.4124C9.0199 20.4105 9.08685 20.4087 9.13322 20.3586C9.29969 20.2642 9.5041 20.313 9.71053 20.3623C9.86104 20.3983 10.0126 20.4345 10.1513 20.4156C10.4049 20.4474 10.7186 20.1877 10.5915 19.9287C10.3596 19.6332 10.3611 19.2599 10.3626 18.8995C10.3629 18.8386 10.3631 18.778 10.3623 18.7183C10.3432 18.5816 10.1483 18.4237 9.9527 18.2652L9.9527 18.2652C9.80366 18.1444 9.65419 18.0233 9.58176 17.911C9.38266 17.6861 9.22579 17.427 9.07056 17.1705L9.05176 17.1394C8.78717 16.6286 8.68061 16.0516 8.57434 15.4761C8.44663 14.7846 8.31932 14.0952 7.91866 13.5253C7.58666 13.7083 7.15413 13.6218 6.86784 13.3764C6.71783 13.5128 6.70691 13.6899 6.69528 13.8786L6.69421 13.8959C6.32337 13.5261 6.36983 12.8274 6.66604 12.4158C6.78713 12.2533 6.9318 12.1196 7.09323 12.0019C7.12976 11.9753 7.14197 11.9495 7.14118 11.9085C7.43437 10.5932 9.43402 10.8468 10.066 11.7786C10.2745 12.0394 10.4169 12.3385 10.559 12.6371C10.7294 12.9952 10.8996 13.3528 11.1831 13.643C11.4577 13.9428 11.7474 14.2286 12.0369 14.5143C12.4853 14.9567 12.9336 15.399 13.3259 15.8932C13.9366 16.6367 14.373 17.5085 14.7537 18.3872C14.8158 18.5037 14.8533 18.6307 14.8906 18.7572C14.9467 18.9472 15.0025 19.136 15.1406 19.2855C15.1739 19.3298 15.2455 19.3964 15.3268 19.4722C15.5218 19.6539 15.773 19.8879 15.6881 19.9903C15.7141 20.0469 15.8038 20.1115 15.8958 20.1779C16.0483 20.288 16.2075 20.4028 16.0954 20.4938H16.0962ZM25.8081 16.0071L24.6819 17.1303C24.3819 17.4295 24.0111 17.6528 23.609 17.775L23.5884 17.7811L23.5808 17.8008C23.4498 18.1456 23.2511 18.4532 22.9891 18.7137L21.8629 19.8369C21.3717 20.3267 20.7184 20.5963 20.0224 20.5963C19.3264 20.5963 18.673 20.3267 18.1819 19.8369C17.1669 18.8246 17.1669 17.1781 18.1819 16.1658L19.3081 15.0426C19.6097 14.7419 19.9706 14.5255 20.3795 14.4002L20.4001 14.3941L20.4077 14.3743C20.5387 14.0295 20.7382 13.7212 21.0009 13.4585L22.1271 12.3353C22.6183 11.8455 23.2716 11.5759 23.9676 11.5759C24.6636 11.5759 25.317 11.8455 25.8081 12.3353C26.2993 12.8251 26.5696 13.4767 26.5696 14.1708C26.5696 14.8649 26.2993 15.5173 25.8081 16.0064V16.0071ZM23.9684 12.6955C23.5724 12.6955 23.2 12.8489 22.9213 13.1275L21.7951 14.2507C21.4913 14.5537 21.3352 14.9745 21.3671 15.4058L21.374 15.4772C21.4144 15.8083 21.5598 16.1068 21.7951 16.3407C21.9573 16.5024 22.1362 16.605 22.3533 16.6764C22.3647 16.7417 22.3708 16.8077 22.3708 16.8738C22.3708 17.1715 22.255 17.451 22.0448 17.6606L21.9755 17.7297C21.5994 17.6013 21.2857 17.4138 21.0024 17.1312C20.6262 16.7561 20.3772 16.2822 20.2836 15.762L20.2706 15.6898L20.2135 15.7362C20.1747 15.7673 20.1381 15.8007 20.1039 15.8349L18.9776 16.9581C18.4004 17.5337 18.4004 18.4716 18.9776 19.0473C19.2662 19.3351 19.6454 19.4794 20.0254 19.4794C20.4054 19.4794 20.7839 19.3351 21.0725 19.0473L22.1987 17.9241C22.7759 17.3484 22.7759 16.4113 22.1987 15.8349C22.0448 15.6815 21.8614 15.5661 21.6535 15.4916C21.6421 15.424 21.6359 15.3565 21.6359 15.2904C21.6359 14.9669 21.7639 14.6601 21.9984 14.4262C22.3754 14.5545 22.7096 14.7626 22.9921 15.0443C23.3675 15.4187 23.6158 15.8919 23.711 16.4136L23.7239 16.4857L23.781 16.4394C23.8199 16.4083 23.8564 16.3748 23.8915 16.3399L25.0177 15.2167C25.5949 14.6411 25.5956 13.7032 25.0177 13.1275C24.7382 12.8489 24.3666 12.6955 23.9699 12.6955H23.9684ZM11.4682 19.3486C11.4837 19.2724 11.4985 19.1997 11.5153 19.1346L11.516 19.1339C11.5421 19.1947 11.567 19.2562 11.5919 19.3176C11.7353 19.6714 11.8777 20.0227 12.2235 20.2214C12.2082 20.5426 11.8062 20.6724 11.5343 20.6329C11.4749 20.4894 11.3912 20.3451 11.2153 20.4256C11.0371 20.497 10.8421 20.4135 10.8833 20.1917C11.2995 20.1759 11.392 19.7221 11.4682 19.3486Z"/>
</mask>
<path d="M15.3941 20.3594L16.1157 19.667L15.0772 18.5847L14.4775 19.9596L15.3941 20.3594ZM16.0962 20.4938L16.2983 21.4732L16.0962 19.4938V20.4938ZM15.1183 20.4303L14.8552 21.3951L14.8652 21.3978L14.8751 21.4003L15.1183 20.4303ZM15.1183 20.4303L15.3814 19.4655L15.3715 19.4628L15.3615 19.4603L15.1183 20.4303ZM15.0423 20.4133L15.2061 19.4268L14.3825 19.29L14.1009 20.076L15.0423 20.4133ZM15.0103 20.5052L15.0768 21.503L15.7459 21.4584L15.9587 20.8224L15.0103 20.5052ZM14.0966 19.7997L14.9461 19.2722L14.8057 19.0461L14.5715 18.9197L14.0966 19.7997ZM13.5056 19.5328L13.0995 20.4466L13.1126 20.4525L13.126 20.4579L13.5056 19.5328ZM13.5056 19.5328L13.9117 18.619L13.8986 18.6131L13.8853 18.6077L13.5056 19.5328ZM12.8706 19.243L13.3547 18.368L11.9722 17.6031L11.8726 19.18L12.8706 19.243ZM12.8649 19.4614L13.8649 19.4693V19.4693L12.8649 19.4614ZM12.582 20.2857L12.022 19.4572L11.5952 19.7456L11.5823 20.2605L12.582 20.2857ZM13.1754 20.6514L13.187 21.6514L13.1754 20.6514ZM13.7341 20.8856L13.8433 21.8797L14.918 21.7616L14.7166 20.6993L13.7341 20.8856ZM13.6718 20.8882L13.6797 21.8882H13.6798L13.6718 20.8882ZM13.5125 20.932L12.8201 20.2104L12.8162 20.2142L13.5125 20.932ZM13.0482 20.9482L12.6835 21.8793L12.6835 21.8793L13.0482 20.9482ZM12.5904 20.9236L13.0391 21.8173L13.0761 21.7987L13.1115 21.7771L12.5904 20.9236ZM12.2633 21.1186L11.7089 20.2864L11.7089 20.2864L12.2633 21.1186ZM11.5791 21.3633L10.7452 21.9153L11.0722 22.4093L11.6625 22.3598L11.5791 21.3633ZM11.5867 21.2616L12.3229 21.9384L12.3334 21.9269L12.3437 21.915L11.5867 21.2616ZM11.704 21.0846L12.5743 21.577L11.704 21.0846ZM12.0055 20.8066L12.2834 21.7673L12.1612 19.8188L12.0055 20.8066ZM11.3822 20.9804L11.808 21.8853L11.8314 21.8742L11.8541 21.862L11.3822 20.9804ZM11.3821 20.9804L10.9563 20.0756L10.933 20.0866L10.9102 20.0988L11.3821 20.9804ZM11.2958 21.0261L11.6739 21.9519L11.7154 21.935L11.7553 21.9143L11.2958 21.0261ZM11.0304 20.996L10.5447 21.8701L10.5447 21.8701L11.0304 20.996ZM10.5618 21.0466L9.93126 21.8228L10.4943 22.2801L11.1038 21.887L10.5618 21.0466ZM10.5641 20.9388L11.3054 21.6099L11.3217 21.592L11.3371 21.5732L10.5641 20.9388ZM10.9951 20.7877L10.9499 21.7867L11.481 19.9137L10.9951 20.7877ZM9.98386 20.857L10.4638 21.7343L10.4638 21.7343L9.98386 20.857ZM9.39518 20.8416L10.1947 20.2409L9.79043 19.7029L9.13975 19.8748L9.39518 20.8416ZM9.22268 20.9794L10.0103 21.5956L10.0103 21.5956L9.22268 20.9794ZM9.16445 21.0482L8.42621 21.7227L9.13458 22.498L9.87429 21.7525L9.16445 21.0482ZM9.14222 20.8868L10.1236 21.0788L10.1236 21.0788L9.14222 20.8868ZM9.15229 20.8165L10.1516 20.8545L10.1768 20.1919L9.57615 19.9108L9.15229 20.8165ZM9.11804 20.8017L9.5015 19.8782L9.50148 19.8782L9.11804 20.8017ZM9.0053 20.6457L9.98857 20.8279L10.1465 19.9755L9.32523 19.6982L9.0053 20.6457ZM8.66592 20.7515L9.26924 21.549L9.27006 21.5483L8.66592 20.7515ZM8.64819 20.7649L8.03666 21.5561L8.64168 22.0237L9.2515 21.5624L8.64819 20.7649ZM8.68846 20.5813L9.46289 21.214L9.46289 21.214L8.68846 20.5813ZM8.74487 20.4991L7.87859 19.9995L7.83975 20.0669L7.81179 20.1394L8.74487 20.4991ZM8.95252 20.4124L8.97993 21.412H8.97994L8.95252 20.4124ZM9.13322 20.3586L8.63989 19.4887L8.50491 19.5653L8.39947 19.6792L9.13322 20.3586ZM9.71053 20.3623L9.94284 19.3897L9.94283 19.3897L9.71053 20.3623ZM10.1513 20.4156L10.276 19.4234L10.1462 19.4071L10.0165 19.4247L10.1513 20.4156ZM10.5915 19.9287L11.4891 19.488L11.4429 19.3939L11.3782 19.3115L10.5915 19.9287ZM10.3626 18.8995L9.36264 18.8954L10.3626 18.8995ZM10.3623 18.7183L11.3621 18.7035L11.3612 18.6417L11.3527 18.5804L10.3623 18.7183ZM9.9527 18.2652L9.2456 18.9723L9.28254 19.0092L9.32314 19.0421L9.9527 18.2652ZM9.9527 18.2652L10.6598 17.558L10.6229 17.5211L10.5823 17.4882L9.9527 18.2652ZM9.58176 17.911L10.4221 17.369L10.3809 17.305L10.3304 17.248L9.58176 17.911ZM9.07056 17.1705L9.92607 16.6527L9.92602 16.6526L9.07056 17.1705ZM9.05176 17.1394L8.16379 17.5993L8.17908 17.6288L8.19629 17.6573L9.05176 17.1394ZM8.57434 15.4761L7.59097 15.6577H7.59097L8.57434 15.4761ZM7.91866 13.5253L8.73674 12.9502L8.22108 12.2167L7.43586 12.6496L7.91866 13.5253ZM6.86784 13.3764L7.51852 12.6171L6.8484 12.0429L6.1953 12.6364L6.86784 13.3764ZM6.69528 13.8786L7.69338 13.9403L7.69339 13.9401L6.69528 13.8786ZM6.69421 13.8959L5.98807 14.604L7.55562 16.1673L7.6923 13.9577L6.69421 13.8959ZM6.66604 12.4158L5.86416 11.8183L5.85921 11.8249L5.85438 11.8317L6.66604 12.4158ZM7.09323 12.0019L6.50495 11.1932L6.50405 11.1939L7.09323 12.0019ZM7.14118 11.9085L6.16514 11.6909L6.13908 11.8078L6.14137 11.9276L7.14118 11.9085ZM10.066 11.7786L9.23845 12.34L9.26048 12.3724L9.28499 12.4031L10.066 11.7786ZM10.559 12.6371L9.65604 13.0669L9.65604 13.0669L10.559 12.6371ZM11.1831 13.643L11.9205 12.9676L11.9097 12.9557L11.8985 12.9442L11.1831 13.643ZM12.0369 14.5143L12.7393 13.8025V13.8025L12.0369 14.5143ZM13.3259 15.8932L12.5427 16.515L12.5479 16.5215L12.5532 16.5279L13.3259 15.8932ZM14.7537 18.3872L13.8361 18.7847L13.8522 18.8217L13.8711 18.8573L14.7537 18.3872ZM14.8906 18.7572L13.9316 19.0403L14.8906 18.7572ZM15.1406 19.2855L15.9389 18.6833L15.909 18.6437L15.8753 18.6072L15.1406 19.2855ZM15.3268 19.4722L16.0085 18.7406L16.0085 18.7405L15.3268 19.4722ZM15.6881 19.9903L14.9184 19.3519L14.5162 19.8368L14.7799 20.4089L15.6881 19.9903ZM15.8958 20.1779L16.4809 19.367L15.8958 20.1779ZM16.0954 20.4938L15.4653 19.7173L13.2761 21.4938H16.0954V20.4938ZM24.6819 17.1303L25.3881 17.8384L25.3881 17.8383L24.6819 17.1303ZM25.8081 16.0071L26.5143 16.7152L26.8081 16.4221V16.0071H25.8081ZM23.609 17.775L23.8926 18.734L23.8999 18.7318L23.609 17.775ZM23.5884 17.7811L23.3047 16.8222L22.8325 16.9619L22.6553 17.4214L23.5884 17.7811ZM23.5808 17.8008L22.6477 17.4411L22.646 17.4457L23.5808 17.8008ZM22.9891 18.7137L22.284 18.0046L22.283 18.0056L22.9891 18.7137ZM21.8629 19.8369L21.1567 19.1288L21.1567 19.1288L21.8629 19.8369ZM18.1819 19.8369L18.8881 19.1288L18.888 19.1288L18.1819 19.8369ZM18.1819 16.1658L17.4757 15.4577L17.4757 15.4578L18.1819 16.1658ZM19.3081 15.0426L18.602 14.3346L18.602 14.3346L19.3081 15.0426ZM20.3795 14.4002L20.0958 13.4412L20.0865 13.4441L20.3795 14.4002ZM20.4001 14.3941L20.6838 15.353L21.1559 15.2133L21.3331 14.7539L20.4001 14.3941ZM20.4077 14.3743L21.3407 14.7342L21.3425 14.7295L20.4077 14.3743ZM21.0009 13.4585L20.2948 12.7504L20.2938 12.7514L21.0009 13.4585ZM22.1271 12.3353L22.8333 13.0433V13.0433L22.1271 12.3353ZM25.8081 12.3353L25.102 13.0433L25.102 13.0434L25.8081 12.3353ZM25.8081 16.0064L25.1025 15.2977L24.8081 15.5909V16.0064H25.8081ZM22.9213 13.1275L23.6275 13.8356L23.6284 13.8347L22.9213 13.1275ZM21.7951 14.2507L22.5012 14.9588L22.5012 14.9588L21.7951 14.2507ZM21.3671 15.4058L20.3699 15.4798L20.3707 15.4907L20.3717 15.5016L21.3671 15.4058ZM21.374 15.4772L20.3786 15.573L20.3798 15.5856L20.3814 15.5981L21.374 15.4772ZM21.7951 16.3407L22.5012 15.6326L22.5001 15.6315L21.7951 16.3407ZM22.3533 16.6764L23.3383 16.5041L23.2351 15.9137L22.6657 15.7264L22.3533 16.6764ZM22.0448 17.6606L21.3387 16.9524L21.3387 16.9525L22.0448 17.6606ZM21.9755 17.7297L21.6526 18.6761L22.2413 18.877L22.6817 18.4377L21.9755 17.7297ZM21.0024 17.1312L20.2962 17.8393L20.2962 17.8393L21.0024 17.1312ZM20.2836 15.762L19.2993 15.9386L19.2994 15.9392L20.2836 15.762ZM20.2706 15.6898L21.2549 15.5132L20.9558 13.8463L19.6406 14.9132L20.2706 15.6898ZM20.2135 15.7362L20.8391 16.5163L20.8435 16.5128L20.2135 15.7362ZM20.1039 15.8349L19.3979 15.1266L19.3977 15.1268L20.1039 15.8349ZM18.9776 16.9581L19.6838 17.6662L19.6838 17.6661L18.9776 16.9581ZM18.9776 19.0473L18.2715 19.7553H18.2715L18.9776 19.0473ZM21.0725 19.0473L21.7786 19.7553L21.0725 19.0473ZM22.1987 17.9241L22.9048 18.6322L22.9049 18.6321L22.1987 17.9241ZM22.1987 15.8349L22.9053 15.1273L22.9047 15.1267L22.1987 15.8349ZM21.6535 15.4916L20.6674 15.6582L20.765 16.2358L21.3165 16.4332L21.6535 15.4916ZM21.9984 14.4262L22.3207 13.4795L21.7324 13.2792L21.2923 13.7181L21.9984 14.4262ZM22.9921 15.0443L23.6983 14.3363L23.6983 14.3363L22.9921 15.0443ZM23.711 16.4136L24.6952 16.2369L24.6947 16.2341L23.711 16.4136ZM23.7239 16.4857L22.7396 16.6624L23.0387 18.3284L24.3536 17.2625L23.7239 16.4857ZM23.781 16.4394L23.1558 15.6589L23.1514 15.6626L23.781 16.4394ZM23.8915 16.3399L24.5974 17.0482L24.5976 17.048L23.8915 16.3399ZM25.0177 15.2167L25.7238 15.9248L25.7239 15.9248L25.0177 15.2167ZM25.0177 13.1275L24.3116 13.8356L24.312 13.836L25.0177 13.1275ZM11.5153 19.1346L10.8082 18.4275L10.6151 18.6206L10.5469 18.8851L11.5153 19.1346ZM11.4682 19.3486L10.4883 19.1488L11.4682 19.3486ZM11.516 19.1339L12.4353 18.7403L11.8537 17.3819L10.8089 18.4267L11.516 19.1339ZM11.5919 19.3176L10.6651 19.6932L10.6651 19.6933L11.5919 19.3176ZM12.2235 20.2214L13.2224 20.2687L13.2513 19.6585L12.7216 19.3542L12.2235 20.2214ZM11.5343 20.6329L10.6104 21.0154L10.8278 21.5408L11.3906 21.6226L11.5343 20.6329ZM11.2153 20.4256L11.5872 21.3539L11.6095 21.345L11.6314 21.3349L11.2153 20.4256ZM10.8833 20.1917L10.8454 19.1924L10.0459 19.2227L9.90003 20.0094L10.8833 20.1917ZM14.6726 21.0517C15.2499 21.6534 16.0168 21.5312 16.2983 21.4732L15.8942 19.5144C15.8627 19.5209 15.843 19.5234 15.8326 19.5242C15.822 19.525 15.8298 19.5234 15.8512 19.5261C15.8736 19.529 15.9152 19.5372 15.9665 19.5609C16.02 19.5855 16.0721 19.6216 16.1157 19.667L14.6726 21.0517ZM14.8751 21.4003C14.8794 21.4013 15.1217 21.4748 15.3836 21.4464C15.5448 21.4289 15.7432 21.3732 15.932 21.2355C16.1207 21.0979 16.2396 20.9224 16.3107 20.7591L14.4775 19.9596C14.5212 19.8595 14.6052 19.7278 14.7536 19.6195C14.9022 19.5111 15.0552 19.4703 15.1676 19.4581C15.2702 19.4469 15.3447 19.4588 15.3647 19.4621C15.3839 19.4654 15.3956 19.4689 15.3616 19.4603L14.8751 21.4003ZM14.8552 21.3951L14.8552 21.3951L15.3815 19.4655L15.3814 19.4655L14.8552 21.3951ZM14.8785 21.3998C14.8704 21.3984 14.8642 21.3972 14.8606 21.3965C14.8569 21.3957 14.8548 21.3953 14.855 21.3953C14.8552 21.3953 14.8566 21.3957 14.8602 21.3966C14.864 21.3975 14.8682 21.3985 14.8751 21.4003L15.3615 19.4603C15.3443 19.456 15.2778 19.4387 15.2061 19.4268L14.8785 21.3998ZM15.9587 20.8224C15.9662 20.7999 15.9735 20.7791 15.9837 20.7506L14.1009 20.076C14.0883 20.1112 14.0758 20.1467 14.062 20.1879L15.9587 20.8224ZM13.247 20.3272C13.3562 20.503 13.5399 20.7814 13.796 21.017C14.0525 21.2528 14.4895 21.5421 15.0768 21.503L14.9438 19.5074C15.0254 19.5019 15.0922 19.5209 15.1315 19.5385C15.165 19.5536 15.1703 19.5636 15.1498 19.5448C15.1301 19.5266 15.1003 19.4945 15.062 19.4437C15.0243 19.3939 14.9861 19.3365 14.9461 19.2722L13.247 20.3272ZM13.126 20.4579C13.3367 20.5444 13.4877 20.6074 13.6216 20.6797L14.5715 18.9197C14.3288 18.7887 14.0785 18.687 13.8853 18.6077L13.126 20.4579ZM13.0995 20.4466L13.0995 20.4466L13.9118 18.619L13.9117 18.619L13.0995 20.4466ZM12.3865 20.118C12.65 20.2638 12.9203 20.3735 13.1259 20.4579L13.8853 18.6077C13.6617 18.5159 13.4998 18.4483 13.3547 18.368L12.3865 20.118ZM13.8649 19.4693C13.8656 19.3891 13.8662 19.3439 13.8686 19.306L11.8726 19.18C11.8661 19.2827 11.8655 19.3844 11.865 19.4534L13.8649 19.4693ZM13.1419 21.1142C13.5343 20.849 13.718 20.4799 13.7974 20.1597C13.8667 19.8803 13.8639 19.5981 13.8649 19.4693L11.865 19.4534C11.8643 19.5356 11.8637 19.5859 11.8608 19.6304C11.8581 19.6728 11.8546 19.6845 11.8562 19.6784C11.8582 19.6701 11.8685 19.633 11.8991 19.5847C11.9321 19.5328 11.9759 19.4884 12.022 19.4572L13.1419 21.1142ZM13.1639 19.6515C13.0803 19.6525 13.0479 19.6522 13.0262 19.6507C13.0026 19.649 13.0548 19.649 13.1374 19.6823C13.2366 19.7224 13.3792 19.8113 13.4816 19.9786C13.578 20.1361 13.5826 20.2721 13.5816 20.3109L11.5823 20.2605C11.5766 20.4857 11.6157 20.761 11.7757 21.0226C11.9418 21.2939 12.1774 21.4516 12.3887 21.5369C12.7266 21.6733 13.1062 21.6523 13.187 21.6514L13.1639 19.6515ZM14.7166 20.6993C14.6712 20.4602 14.5588 20.223 14.3618 20.0311C14.1746 19.8487 13.9657 19.7603 13.808 19.7155C13.5372 19.6385 13.2466 19.6506 13.1639 19.6515L13.187 21.6514C13.258 21.6506 13.2906 21.6505 13.3152 21.6518C13.3406 21.653 13.3135 21.6542 13.2611 21.6393C13.2052 21.6234 13.0846 21.579 12.966 21.4635C12.8377 21.3385 12.7742 21.191 12.7516 21.072L14.7166 20.6993ZM13.6798 21.8882C13.6913 21.8881 13.7638 21.8884 13.8433 21.8797L13.6249 19.8916C13.6482 19.8891 13.6649 19.8884 13.6703 19.8882C13.6732 19.8881 13.6746 19.8881 13.6733 19.8882C13.6717 19.8882 13.6695 19.8882 13.6638 19.8882L13.6798 21.8882ZM14.2049 21.6535C14.0604 21.7922 13.8994 21.8511 13.7873 21.874C13.7027 21.8913 13.6318 21.8886 13.6797 21.8882L13.6638 19.8882C13.6544 19.8883 13.5262 19.8861 13.3874 19.9144C13.2212 19.9483 13.0093 20.0289 12.8201 20.2104L14.2049 21.6535ZM12.6835 21.8793C12.729 21.8971 12.9565 21.9955 13.2142 22.0142C13.5552 22.039 13.9168 21.933 14.2088 21.6497L12.8162 20.2142C12.8732 20.1589 12.9589 20.0981 13.0729 20.0585C13.1856 20.0193 13.287 20.0142 13.3591 20.0195C13.4251 20.0243 13.4666 20.0377 13.4682 20.0382C13.4705 20.0389 13.468 20.0382 13.4578 20.0344C13.447 20.0304 13.4347 20.0256 13.413 20.0171L12.6835 21.8793ZM13.1115 21.7771C13.0427 21.8191 12.9626 21.8499 12.8772 21.8647C12.7947 21.879 12.727 21.8751 12.6837 21.8691C12.643 21.8635 12.6198 21.8553 12.6238 21.8566C12.6303 21.8588 12.6415 21.8629 12.6835 21.8793L13.413 20.0171C13.3527 19.9935 12.7097 19.6791 12.0692 20.0702L13.1115 21.7771ZM12.8178 21.9508C12.9024 21.8944 12.9581 21.8579 13.0391 21.8173L12.1416 20.03C11.9432 20.1296 11.8007 20.2252 11.7089 20.2864L12.8178 21.9508ZM11.6625 22.3598C11.919 22.3384 12.148 22.2907 12.3665 22.2013C12.575 22.116 12.734 22.0066 12.8178 21.9508L11.7089 20.2864C11.6078 20.3537 11.6059 20.3515 11.6091 20.3502C11.6222 20.3449 11.6016 20.3579 11.4957 20.3668L11.6625 22.3598ZM10.8506 20.5847C10.7829 20.6584 10.6194 20.8523 10.5735 21.157C10.5237 21.488 10.6385 21.7541 10.7452 21.9153L12.413 20.8113C12.49 20.9277 12.5961 21.1566 12.5512 21.4547C12.5103 21.7266 12.3654 21.8921 12.3229 21.9384L10.8506 20.5847ZM10.8336 20.5922C10.8293 20.5997 10.826 20.6056 10.8228 20.6112C10.8197 20.6167 10.8172 20.621 10.8151 20.6247C10.8108 20.632 10.8088 20.6351 10.8084 20.6357C10.8078 20.6366 10.8151 20.625 10.8297 20.6081L12.3437 21.915C12.4672 21.772 12.546 21.627 12.5743 21.577L10.8336 20.5922ZM11.7277 19.846C11.1369 20.0169 10.9059 20.4644 10.8336 20.5922L12.5743 21.577C12.5938 21.5425 12.5958 21.5397 12.5948 21.5412C12.5915 21.5464 12.5747 21.5718 12.5444 21.6041C12.5121 21.6385 12.47 21.6748 12.4183 21.7066C12.3671 21.738 12.3198 21.7567 12.2834 21.7673L11.7277 19.846ZM11.8541 21.862C11.8792 21.8486 11.8992 21.8379 11.9185 21.8278C11.9374 21.818 11.9526 21.8103 11.9655 21.804C11.9922 21.7911 12.0027 21.7874 12.0027 21.7874C12.0017 21.7878 11.9851 21.7934 11.9566 21.7968C11.9265 21.8004 11.8896 21.8007 11.8499 21.7945L12.1612 19.8188C11.5462 19.7219 11.051 20.0235 10.9102 20.0988L11.8541 21.862ZM11.8079 21.8853L11.808 21.8853L10.9564 20.0756L10.9563 20.0756L11.8079 21.8853ZM11.7553 21.9143C11.7914 21.8957 11.8264 21.8769 11.8541 21.8621L10.9102 20.0988C10.8803 20.1148 10.8578 20.1269 10.8363 20.138L11.7553 21.9143ZM10.5447 21.8701C10.5611 21.8792 10.7274 21.9799 10.9432 22.0244C11.2003 22.0774 11.4501 22.0433 11.6739 21.9519L10.9178 20.1004C10.9615 20.0825 11.0252 20.0627 11.1057 20.0539C11.1884 20.045 11.2704 20.0498 11.3469 20.0656C11.4787 20.0928 11.5732 20.1536 11.5161 20.1218L10.5447 21.8701ZM11.1038 21.887C11.1458 21.8599 11.0411 21.9406 10.839 21.9373C10.6321 21.934 10.484 21.8364 10.5447 21.8701L11.5161 20.1219C11.4751 20.0991 11.2222 19.9432 10.8712 19.9376C10.525 19.932 10.2368 20.0662 10.0197 20.2063L11.1038 21.887ZM9.82271 20.2677C9.80948 20.2823 9.60812 20.4862 9.54952 20.8126C9.46446 21.2865 9.7102 21.6432 9.93126 21.8228L11.1923 20.2705C11.2638 20.3286 11.3722 20.436 11.449 20.6063C11.5319 20.7902 11.5502 20.9868 11.5181 21.166C11.4889 21.3286 11.4244 21.4441 11.3866 21.503C11.3484 21.5626 11.3129 21.6016 11.3054 21.6099L9.82271 20.2677ZM11.0402 19.7887C10.7781 19.7769 10.2123 19.7912 9.79107 20.3044L11.3371 21.5732C11.3035 21.6141 11.2585 21.6565 11.2018 21.6935C11.1454 21.7302 11.09 21.7535 11.0427 21.7675C10.9581 21.7925 10.908 21.7848 10.9499 21.7867L11.0402 19.7887ZM10.4638 21.7343C10.4973 21.7159 10.521 21.703 10.5439 21.6911C10.5659 21.6797 10.5816 21.6722 10.5934 21.6669C10.6174 21.6563 10.6172 21.6589 10.6006 21.662C10.5919 21.6635 10.5798 21.665 10.5653 21.6653C10.5507 21.6655 10.5364 21.6644 10.5234 21.6622C10.4954 21.6575 10.4895 21.6508 10.5091 21.6617L11.481 19.9137C11.0617 19.6805 10.6382 19.6221 10.2418 19.6944C9.8933 19.758 9.61426 19.9193 9.5039 19.9797L10.4638 21.7343ZM8.59568 21.4423C8.70713 21.5906 8.867 21.751 9.09207 21.861C9.32841 21.9764 9.56836 22.0028 9.77977 21.9798C10.1162 21.9432 10.4104 21.7635 10.4638 21.7343L9.5039 19.9797C9.4738 19.9961 9.45452 20.0067 9.43728 20.0157C9.42937 20.0198 9.42365 20.0227 9.41957 20.0247C9.4155 20.0267 9.41387 20.0274 9.41425 20.0272C9.41463 20.0271 9.41783 20.0257 9.42346 20.0235C9.4291 20.0213 9.43799 20.0181 9.44977 20.0144C9.47276 20.0073 9.51168 19.9972 9.56325 19.9915C9.67841 19.979 9.8251 19.9932 9.9698 20.0639C10.1032 20.129 10.1731 20.2122 10.1947 20.2409L8.59568 21.4423ZM10.0103 21.5956C10.0425 21.5545 10.0128 21.5966 9.96393 21.6405C9.89848 21.6993 9.79317 21.7708 9.65061 21.8084L9.13975 19.8748C8.68975 19.9937 8.45683 20.3354 8.43504 20.3633L10.0103 21.5956ZM9.87429 21.7525C9.94384 21.6824 9.99809 21.6112 10.0103 21.5956L8.43505 20.3633C8.43003 20.3697 8.42761 20.3728 8.42556 20.3753C8.42376 20.3776 8.42385 20.3775 8.42515 20.3759C8.42745 20.3731 8.43788 20.3607 8.45462 20.3438L9.87429 21.7525ZM8.16082 20.6948C8.16041 20.697 8.1249 20.8502 8.13389 21.0228C8.14544 21.2443 8.22448 21.5019 8.42621 21.7227L9.9027 20.3736C9.97254 20.4501 10.0317 20.5426 10.0727 20.648C10.1129 20.7514 10.1274 20.8457 10.1312 20.9186C10.1373 21.0369 10.1129 21.1337 10.1236 21.0788L8.16082 20.6948ZM8.15301 20.7785C8.15453 20.7387 8.15875 20.7093 8.16064 20.6972C8.16224 20.687 8.16373 20.68 8.16082 20.6948L10.1236 21.0788C10.1254 21.0697 10.1472 20.969 10.1516 20.8545L8.15301 20.7785ZM8.73458 21.7253C8.73768 21.7266 8.73931 21.7272 8.74074 21.7278C8.74203 21.7284 8.74225 21.7285 8.74184 21.7283C8.74122 21.728 8.7361 21.7259 8.72843 21.7223L9.57615 19.9108C9.54159 19.8946 9.50936 19.8814 9.5015 19.8782L8.73458 21.7253ZM8.02204 20.4635C7.96402 20.7766 8.02716 21.1549 8.31313 21.4488C8.42392 21.5627 8.53664 21.6293 8.60304 21.6644C8.66622 21.6977 8.72659 21.722 8.7346 21.7253L9.50148 19.8782C9.47651 19.8678 9.50395 19.8784 9.53687 19.8958C9.57301 19.9148 9.65815 19.9632 9.74664 20.0541C9.84408 20.1543 9.92944 20.2897 9.97283 20.4547C10.0141 20.6115 10.0041 20.7441 9.98857 20.8279L8.02204 20.4635ZM9.27006 21.5483C9.30024 21.5255 9.30119 21.5252 9.29728 21.5278C9.29096 21.532 9.25739 21.5542 9.20339 21.5764C9.14591 21.6001 9.06393 21.6245 8.96327 21.6301C8.86061 21.6357 8.76565 21.6202 8.68537 21.5931L9.32523 19.6982C8.61851 19.4596 8.09501 19.9294 8.06179 19.9546L9.27006 21.5483ZM9.2515 21.5624L9.26924 21.549L8.06261 19.954L8.04487 19.9674L9.2515 21.5624ZM7.91403 19.9486C7.90539 19.9592 7.87013 20.0018 7.83575 20.0501C7.80292 20.0963 7.73879 20.1914 7.6894 20.3209C7.63844 20.4545 7.58227 20.6803 7.64477 20.9494C7.71058 21.2328 7.87694 21.4327 8.03666 21.5561L9.25971 19.9737C9.38581 20.0711 9.53393 20.243 9.59291 20.4969C9.64859 20.7366 9.597 20.9317 9.55805 21.0338C9.52067 21.1317 9.47598 21.1947 9.46606 21.2086C9.45458 21.2248 9.44568 21.235 9.46289 21.214L7.91403 19.9486ZM7.81179 20.1394C7.83398 20.0818 7.85754 20.0384 7.87319 20.0117C7.88923 19.9844 7.903 19.9647 7.91025 19.9546C7.92161 19.9388 7.9305 19.9285 7.91403 19.9486L9.46289 21.214C9.47026 21.2049 9.50255 21.166 9.53376 21.1226C9.56183 21.0836 9.62766 20.9892 9.67796 20.8587L7.81179 20.1394ZM8.92511 19.4127C8.91532 19.413 8.7321 19.4113 8.54154 19.4702C8.29368 19.5467 8.0429 19.7146 7.87859 19.9995L9.61116 20.9986C9.56089 21.0858 9.48892 21.1726 9.39353 21.2455C9.29967 21.3173 9.20612 21.3581 9.13163 21.3811C9.06105 21.4029 9.00627 21.4091 8.98507 21.411C8.96681 21.4127 8.95409 21.4127 8.97993 21.412L8.92511 19.4127ZM8.39947 19.6792C8.5498 19.5168 8.72379 19.4521 8.83171 19.4278C8.91253 19.4097 8.97958 19.4112 8.9251 19.4127L8.97994 21.412C8.99283 21.4116 9.12705 21.4113 9.26979 21.3793C9.43962 21.3411 9.67027 21.2504 9.86697 21.038L8.39947 19.6792ZM9.94283 19.3897C9.85815 19.3694 9.67084 19.322 9.47394 19.3088C9.26097 19.2945 8.95183 19.3118 8.63989 19.4887L9.62655 21.2284C9.48109 21.3109 9.35738 21.3055 9.33984 21.3043C9.33123 21.3037 9.33612 21.3034 9.36283 21.3087C9.39096 21.3142 9.42309 21.3218 9.47822 21.3349L9.94283 19.3897ZM10.0165 19.4247C10.0479 19.4204 10.0706 19.4205 10.0811 19.4209C10.0915 19.4213 10.0936 19.4221 10.0847 19.4207C10.0757 19.4193 10.0605 19.4166 10.0356 19.4112C10.0098 19.4056 9.98219 19.3991 9.94284 19.3897L9.47821 21.3349C9.58134 21.3596 9.92655 21.4554 10.2862 21.4064L10.0165 19.4247ZM9.69384 20.3695C9.61712 20.2133 9.60153 20.0328 9.64347 19.8696C9.68152 19.7216 9.75618 19.6245 9.81051 19.5707C9.89676 19.4853 10.049 19.3948 10.276 19.4234L10.0266 21.4078C10.5072 21.4682 10.9431 21.2638 11.2178 20.9918C11.5128 20.6996 11.7996 20.1204 11.4891 19.488L9.69384 20.3695ZM9.36264 18.8954C9.36145 19.1838 9.32255 19.9314 9.80468 20.546L11.3782 19.3115C11.3959 19.334 11.3868 19.3409 11.3767 19.2785C11.3638 19.1988 11.3618 19.0995 11.3626 18.9037L9.36264 18.8954ZM9.36237 18.733C9.36308 18.7817 9.3629 18.8328 9.36264 18.8954L11.3626 18.9037C11.3629 18.8444 11.3632 18.7743 11.3621 18.7035L9.36237 18.733ZM9.32314 19.0421C9.3739 19.0832 9.41309 19.1151 9.44828 19.145C9.48347 19.175 9.50303 19.1933 9.51279 19.2032C9.52475 19.2153 9.5078 19.2004 9.48224 19.1616C9.46839 19.1405 9.44747 19.1056 9.42702 19.0575C9.40646 19.0092 9.38364 18.9411 9.37181 18.8561L11.3527 18.5804C11.2941 18.1596 11.0188 17.8817 10.9346 17.7966C10.8126 17.6733 10.668 17.5577 10.5823 17.4882L9.32314 19.0421ZM9.24559 18.9723L9.2456 18.9723L10.6598 17.558L10.6598 17.558L9.24559 18.9723ZM8.74139 18.453C8.84817 18.6185 8.97948 18.746 9.06412 18.8233C9.1551 18.9064 9.25392 18.986 9.32314 19.0421L10.5823 17.4882C10.5024 17.4235 10.452 17.3822 10.4129 17.3465C10.4044 17.3388 10.3982 17.3328 10.3937 17.3284C10.3892 17.324 10.3874 17.3219 10.3876 17.3222C10.3877 17.3224 10.3911 17.326 10.3966 17.333C10.4021 17.3399 10.4112 17.3519 10.4221 17.369L8.74139 18.453ZM8.21504 17.6883C8.36209 17.9312 8.56392 18.27 8.83313 18.574L10.3304 17.248C10.2014 17.1023 10.0895 16.9227 9.92607 16.6527L8.21504 17.6883ZM8.19629 17.6573L8.21509 17.6883L9.92602 16.6526L9.90722 16.6216L8.19629 17.6573ZM7.59097 15.6577C7.69208 16.2053 7.81904 16.9337 8.16379 17.5993L9.93973 16.6795C9.7553 16.3234 9.66915 15.8979 9.55771 15.2945L7.59097 15.6577ZM7.10058 14.1004C7.35426 14.4613 7.45556 14.9245 7.59097 15.6577L9.55771 15.2945C9.4377 14.6447 9.28437 13.7292 8.73674 12.9502L7.10058 14.1004ZM6.21717 14.1358C6.74954 14.592 7.6292 14.8268 8.40146 14.401L7.43586 12.6496C7.46342 12.6344 7.48839 12.6275 7.50597 12.6249C7.52279 12.6223 7.53192 12.6237 7.53286 12.6239C7.53374 12.624 7.53073 12.6235 7.52573 12.6212C7.52075 12.6189 7.51822 12.6168 7.51852 12.6171L6.21717 14.1358ZM7.69339 13.9401C7.69658 13.8884 7.69813 13.8665 7.70001 13.8495C7.70159 13.8351 7.70137 13.8453 7.69507 13.8686C7.68821 13.894 7.67393 13.9361 7.64579 13.9849C7.61679 14.0353 7.58037 14.0802 7.54038 14.1165L6.1953 12.6364C5.70221 13.0845 5.70501 13.6899 5.69718 13.8171L7.69339 13.9401ZM7.6923 13.9577L7.69338 13.9403L5.69719 13.8168L5.69612 13.8342L7.6923 13.9577ZM5.85438 11.8317C5.5741 12.2211 5.43386 12.7044 5.43001 13.1631C5.42617 13.6209 5.56071 14.1778 5.98807 14.604L7.40036 13.1878C7.42824 13.2157 7.43621 13.238 7.43607 13.2376C7.43535 13.2355 7.42964 13.2165 7.42994 13.1799C7.43025 13.1438 7.43642 13.1035 7.44812 13.066C7.46002 13.0277 7.47329 13.006 7.4777 12.9999L5.85438 11.8317ZM6.50405 11.1939C6.2806 11.3568 6.05781 11.5584 5.86416 11.8183L7.46792 13.0133C7.51645 12.9481 7.583 12.8824 7.68242 12.8099L6.50405 11.1939ZM6.14137 11.9276C6.13977 11.844 6.14994 11.6855 6.23839 11.5102C6.32529 11.3379 6.44312 11.2382 6.50495 11.1932L7.68151 12.8106C7.77988 12.739 7.92207 12.6131 8.02401 12.411C8.1275 12.2059 8.14338 12.0139 8.141 11.8894L6.14137 11.9276ZM10.8936 11.2173C10.3534 10.4208 9.35443 10.0226 8.50168 10.0012C8.05311 9.98992 7.55245 10.078 7.10939 10.3503C6.64352 10.6366 6.29805 11.0946 6.16514 11.6909L8.11723 12.1261C8.13091 12.0647 8.14534 12.0611 8.15662 12.0542C8.19071 12.0333 8.28444 11.9964 8.45142 12.0006C8.61444 12.0047 8.79477 12.0477 8.95242 12.1231C9.11357 12.2001 9.20237 12.2868 9.23845 12.34L10.8936 11.2173ZM11.462 12.2074C11.3281 11.9261 11.1397 11.5201 10.8471 11.1542L9.28499 12.4031C9.40935 12.5586 9.50562 12.7508 9.65604 13.0669L11.462 12.2074ZM11.8985 12.9442C11.7498 12.7921 11.6439 12.5897 11.462 12.2074L9.65604 13.0669C9.81494 13.4007 10.0493 13.9134 10.4678 14.3418L11.8985 12.9442ZM12.7393 13.8025C12.4467 13.5138 12.1752 13.2456 11.9205 12.9676L10.4457 14.3185C10.7403 14.64 11.048 14.9434 11.3346 15.2261L12.7393 13.8025ZM14.1091 15.2714C13.6728 14.7219 13.1805 14.2378 12.7393 13.8025L11.3346 15.2261C11.7902 15.6756 12.1944 16.0762 12.5427 16.515L14.1091 15.2714ZM15.6713 17.9896C15.2797 17.0859 14.7993 16.1113 14.0987 15.2584L12.5532 16.5279C13.074 17.162 13.4662 17.931 13.8361 18.7847L15.6713 17.9896ZM15.8497 18.474C15.8173 18.3644 15.7541 18.1381 15.6363 17.917L13.8711 18.8573C13.871 18.8572 13.8768 18.868 13.8879 18.8995C13.8999 18.9339 13.9117 18.973 13.9316 19.0403L15.8497 18.474ZM15.8753 18.6072C15.9052 18.6395 15.9123 18.6621 15.9048 18.6444C15.9006 18.6347 15.8941 18.6178 15.8845 18.5884C15.8744 18.5575 15.8644 18.5239 15.8497 18.474L13.9316 19.0403C13.9766 19.1929 14.0841 19.6154 14.4058 19.9639L15.8753 18.6072ZM16.0085 18.7405C15.9877 18.7212 15.9702 18.7049 15.954 18.6897C15.938 18.6745 15.9259 18.6629 15.9166 18.6538C15.907 18.6444 15.904 18.6411 15.9053 18.6425C15.9062 18.6435 15.9096 18.6471 15.9146 18.653C15.9195 18.6587 15.9281 18.6691 15.9389 18.6833L14.3422 19.8877C14.4425 20.0207 14.6011 20.1628 14.6451 20.2038L16.0085 18.7405ZM16.4578 20.6287C16.8089 20.2053 16.7041 19.7354 16.6315 19.5414C16.5593 19.3485 16.4479 19.2033 16.3878 19.1296C16.2588 18.9711 16.0906 18.8171 16.0085 18.7406L14.6451 20.2038C14.758 20.309 14.8129 20.3628 14.837 20.3924C14.8535 20.4127 14.8011 20.3565 14.7582 20.242C14.7347 20.179 14.6977 20.0557 14.7063 19.8931C14.7159 19.7134 14.7804 19.5182 14.9184 19.3519L16.4578 20.6287ZM16.4809 19.367C16.4565 19.3494 16.4409 19.3381 16.4275 19.328C16.4142 19.3181 16.4113 19.3154 16.4142 19.3179C16.4158 19.3193 16.4358 19.3361 16.463 19.3664C16.4773 19.3824 16.4974 19.4063 16.5196 19.4379C16.5415 19.4692 16.5696 19.514 16.5962 19.5717L14.7799 20.4089C14.8919 20.6519 15.0726 20.8025 15.1202 20.8429C15.1933 20.905 15.2734 20.962 15.3107 20.9889L16.4809 19.367ZM16.7255 21.2703C16.9398 21.0964 17.157 20.7827 17.1311 20.3605C17.1102 20.0194 16.936 19.7904 16.8631 19.7029C16.7188 19.5297 16.5167 19.3928 16.4809 19.367L15.3107 20.9889C15.3531 21.0195 15.3709 21.0326 15.3829 21.0422C15.3988 21.0549 15.3682 21.0332 15.3265 20.9831C15.2986 20.9495 15.1526 20.7732 15.1348 20.4826C15.1121 20.1109 15.3071 19.8457 15.4653 19.7173L16.7255 21.2703ZM16.0962 19.4938H16.0954V21.4938H16.0962V19.4938ZM25.3881 17.8383L26.5143 16.7152L25.102 15.299L23.9758 16.4222L25.3881 17.8383ZM23.8999 18.7318C24.4609 18.5612 24.9737 18.2516 25.3881 17.8384L23.9758 16.4222C23.79 16.6075 23.5612 16.7443 23.3181 16.8183L23.8999 18.7318ZM23.8721 18.74L23.8926 18.7339L23.3253 16.8161L23.3047 16.8222L23.8721 18.74ZM24.5139 18.1606L24.5215 18.1408L22.6553 17.4214L22.6477 17.4411L24.5139 18.1606ZM23.6943 19.4228C24.0579 19.0611 24.3346 18.6326 24.5156 18.156L22.646 17.4457C22.5651 17.6587 22.4442 17.8453 22.284 18.0046L23.6943 19.4228ZM22.569 20.5449L23.6953 19.4218L22.283 18.0056L21.1567 19.1288L22.569 20.5449ZM20.0224 21.5963C20.9821 21.5963 21.8897 21.2224 22.569 20.5449L21.1567 19.1288C20.8537 19.431 20.4547 19.5963 20.0224 19.5963V21.5963ZM17.4757 20.5449C18.1551 21.2225 19.0627 21.5963 20.0224 21.5963V19.5963C19.5901 19.5963 19.191 19.431 18.8881 19.1288L17.4757 20.5449ZM17.4757 15.4578C16.0689 16.8608 16.0689 19.1419 17.4757 20.5449L18.888 19.1288C18.2648 18.5073 18.2648 17.4954 18.888 16.8739L17.4757 15.4578ZM18.602 14.3346L17.4757 15.4577L18.888 16.8739L20.0143 15.7507L18.602 14.3346ZM20.0865 13.4441C19.5225 13.6169 19.0195 13.9182 18.602 14.3346L20.0143 15.7507C20.1998 15.5656 20.4188 15.434 20.6725 15.3563L20.0865 13.4441ZM20.1164 13.4352L20.0959 13.4412L20.6632 15.3591L20.6838 15.353L20.1164 13.4352ZM19.4747 14.0145L19.4671 14.0342L21.3331 14.7539L21.3407 14.7342L19.4747 14.0145ZM20.2938 12.7514C19.9316 13.1137 19.6543 13.5418 19.4729 14.0192L21.3425 14.7295C21.4231 14.5173 21.5448 14.3288 21.7081 14.1655L20.2938 12.7514ZM21.421 11.6272L20.2948 12.7504L21.7071 14.1665L22.8333 13.0433L21.421 11.6272ZM23.9676 10.5759C23.0079 10.5759 22.1003 10.9497 21.421 11.6272L22.8333 13.0433C23.1363 12.7412 23.5354 12.5759 23.9676 12.5759V10.5759ZM26.5143 11.6272C25.835 10.9498 24.9274 10.5759 23.9676 10.5759V12.5759C24.3999 12.5759 24.799 12.7412 25.102 13.0433L26.5143 11.6272ZM27.5696 14.1708C27.5696 13.2112 27.1937 12.3048 26.5142 11.6272L25.102 13.0434C25.4049 13.3454 25.5696 13.7422 25.5696 14.1708H27.5696ZM26.5137 16.715C27.194 16.0376 27.5696 15.13 27.5696 14.1708H25.5696C25.5696 14.5999 25.4046 14.9969 25.1025 15.2977L26.5137 16.715ZM26.8081 16.0071V16.0064H24.8081V16.0071H26.8081ZM23.6284 13.8347C23.7181 13.745 23.8355 13.6955 23.9684 13.6955V11.6955C23.3093 11.6955 22.682 11.9527 22.2143 12.4204L23.6284 13.8347ZM22.5012 14.9588L23.6275 13.8356L22.2152 12.4195L21.0889 13.5427L22.5012 14.9588ZM22.3644 15.3319C22.3538 15.1891 22.4053 15.0545 22.5012 14.9588L21.0889 13.5427C20.5773 14.053 20.3165 14.7599 20.3699 15.4798L22.3644 15.3319ZM22.3694 15.3814L22.3626 15.3101L20.3717 15.5016L20.3786 15.573L22.3694 15.3814ZM22.5001 15.6315C22.4251 15.5569 22.3801 15.4661 22.3667 15.3563L20.3814 15.5981C20.4486 16.1505 20.6945 16.6566 21.0901 17.0498L22.5001 15.6315ZM22.6657 15.7264C22.5775 15.6974 22.5392 15.6705 22.5012 15.6326L21.089 17.0487C21.3754 17.3343 21.6949 17.5125 22.0408 17.6263L22.6657 15.7264ZM23.3708 16.8738C23.3708 16.7464 23.359 16.6226 23.3383 16.5041L21.3682 16.8486C21.3703 16.8607 21.3708 16.869 21.3708 16.8738H23.3708ZM22.7509 18.3687C23.15 17.9707 23.3708 17.4362 23.3708 16.8738H21.3708C21.3708 16.9068 21.3601 16.9312 21.3387 16.9524L22.7509 18.3687ZM22.6817 18.4377L22.751 18.3686L21.3387 16.9525L21.2694 17.0216L22.6817 18.4377ZM20.2962 17.8393C20.6952 18.2372 21.143 18.5022 21.6526 18.6761L22.2985 16.7833C22.0558 16.7004 21.8761 16.5903 21.7086 16.4232L20.2962 17.8393ZM19.2994 15.9392C19.4296 16.6621 19.7764 17.3208 20.2962 17.8393L21.7086 16.4232C21.4761 16.1913 21.3249 15.9023 21.2677 15.5848L19.2994 15.9392ZM19.2863 15.8664L19.2993 15.9386L21.2678 15.5854L21.2549 15.5132L19.2863 15.8664ZM20.8435 16.5128L20.9006 16.4664L19.6406 14.9132L19.5835 14.9596L20.8435 16.5128ZM20.8098 16.5431C20.8236 16.5294 20.8334 16.5209 20.8391 16.5163L19.5879 14.956C19.516 15.0137 19.4526 15.0721 19.3979 15.1266L20.8098 16.5431ZM19.6838 17.6661L20.81 16.5429L19.3977 15.1268L18.2715 16.25L19.6838 17.6661ZM19.6838 18.3392C19.4984 18.1543 19.4984 17.851 19.6838 17.6662L18.2715 16.25C17.3025 17.2164 17.3025 18.7889 18.2715 19.7553L19.6838 18.3392ZM20.0254 18.4794C19.8983 18.4794 19.7767 18.4319 19.6838 18.3392L18.2715 19.7553C18.7558 20.2383 19.3925 20.4794 20.0254 20.4794V18.4794ZM20.3663 18.3392C20.273 18.4322 20.152 18.4794 20.0254 18.4794V20.4794C20.6589 20.4794 21.2947 20.2379 21.7786 19.7553L20.3663 18.3392ZM21.4926 17.216L20.3663 18.3392L21.7786 19.7553L22.9048 18.6322L21.4926 17.216ZM21.4921 16.5425C21.6784 16.7285 21.6777 17.0314 21.4925 17.216L22.9049 18.6321C23.8741 17.6655 23.8734 16.0941 22.9053 15.1273L21.4921 16.5425ZM21.3165 16.4332C21.3882 16.4588 21.4451 16.4956 21.4927 16.5431L22.9047 15.1267C22.6446 14.8674 22.3345 14.6733 21.9905 14.5501L21.3165 16.4332ZM20.6359 15.2904C20.6359 15.4176 20.6477 15.5411 20.6674 15.6582L22.6395 15.3251C22.6364 15.307 22.6359 15.2953 22.6359 15.2904H20.6359ZM21.2923 13.7181C20.8729 14.1363 20.6359 14.6965 20.6359 15.2904H22.6359C22.6359 15.2372 22.6548 15.1838 22.7046 15.1342L21.2923 13.7181ZM23.6983 14.3363C23.3082 13.9472 22.8428 13.6573 22.3207 13.4795L21.6761 15.3728C21.9079 15.4517 22.1111 15.578 22.286 15.7524L23.6983 14.3363ZM24.6947 16.2341C24.5631 15.5123 24.2181 14.8547 23.6983 14.3363L22.286 15.7524C22.517 15.9828 22.6685 16.2714 22.7272 16.593L24.6947 16.2341ZM24.7082 16.309L24.6952 16.2369L22.7267 16.5903L22.7396 16.6624L24.7082 16.309ZM23.1514 15.6626L23.0942 15.7089L24.3536 17.2625L24.4107 17.2162L23.1514 15.6626ZM23.1855 15.6317C23.1704 15.6467 23.1608 15.6549 23.1558 15.659L24.4063 17.2198C24.4789 17.1616 24.5425 17.1029 24.5974 17.0482L23.1855 15.6317ZM24.3115 14.5087L23.1853 15.6318L24.5976 17.048L25.7238 15.9248L24.3115 14.5087ZM24.312 13.836C24.497 14.0203 24.4975 14.3232 24.3115 14.5087L25.7239 15.9248C26.6923 14.959 26.6943 13.3861 25.7234 12.419L24.312 13.836ZM23.9699 13.6955C24.103 13.6955 24.2204 13.7447 24.3116 13.8356L25.7238 12.4194C25.2561 11.953 24.6302 11.6955 23.9699 11.6955V13.6955ZM23.9684 13.6955H23.9699V11.6955H23.9684V13.6955ZM10.5469 18.8851C10.5226 18.9797 10.5026 19.079 10.4883 19.1488L12.448 19.5483C12.4648 19.4659 12.4745 19.4196 12.4837 19.3841L10.5469 18.8851ZM10.8089 18.4267L10.8082 18.4275L12.2224 19.8417L12.2231 19.841L10.8089 18.4267ZM12.5187 18.942C12.4944 18.8821 12.4658 18.8115 12.4353 18.7403L10.5968 19.5275C10.6183 19.5778 10.6396 19.6303 10.6651 19.6932L12.5187 18.942ZM12.7216 19.3542C12.7212 19.354 12.721 19.3539 12.7211 19.3539C12.7211 19.3539 12.7211 19.354 12.7211 19.3539C12.7211 19.3539 12.7208 19.3537 12.7204 19.3533C12.7199 19.3529 12.7191 19.3521 12.7179 19.3509C12.7133 19.3461 12.7014 19.3326 12.6829 19.3028C12.638 19.2299 12.5965 19.134 12.5187 18.942L10.6651 19.6933C10.7849 19.9887 11.0333 20.6909 11.7254 21.0885L12.7216 19.3542ZM11.3906 21.6226C11.7185 21.6702 12.0932 21.6202 12.4196 21.4582C12.7599 21.2893 13.192 20.9093 13.2224 20.2687L11.2246 20.174C11.2311 20.0366 11.2832 19.9094 11.358 19.8131C11.4259 19.7257 11.496 19.6838 11.5307 19.6666C11.5664 19.6489 11.5911 19.6438 11.6035 19.6419C11.6153 19.6401 11.639 19.6377 11.678 19.6433L11.3906 21.6226ZM11.6314 21.3349C11.5443 21.3748 11.3919 21.4207 11.1993 21.3952C11.003 21.3691 10.8548 21.2806 10.7608 21.1986C10.6758 21.1244 10.6332 21.0546 10.6206 21.033C10.6065 21.0088 10.6029 20.9974 10.6104 21.0154L12.4583 20.2505C12.4288 20.1792 12.3202 19.905 12.0761 19.692C11.9318 19.566 11.726 19.4476 11.4626 19.4126C11.2031 19.3781 10.9742 19.4362 10.7992 19.5163L11.6314 21.3349ZM9.90003 20.0094C9.81548 20.4654 9.97483 20.9883 10.451 21.2752C10.8472 21.5138 11.2815 21.4763 11.5872 21.3539L10.8434 19.4973C10.9708 19.4463 11.2186 19.4028 11.483 19.562C11.6256 19.6479 11.7499 19.7836 11.8202 19.958C11.8887 20.1278 11.8842 20.2788 11.8665 20.374L9.90003 20.0094ZM10.4883 19.1488C10.4682 19.2474 10.4542 19.3143 10.4381 19.3736C10.422 19.4329 10.4128 19.4491 10.4169 19.4413C10.4216 19.4323 10.4569 19.367 10.5448 19.302C10.5897 19.2687 10.6419 19.2405 10.699 19.2208C10.7556 19.2013 10.8063 19.1939 10.8454 19.1924L10.9212 21.191C11.5935 21.1655 11.9944 20.741 12.1896 20.3673C12.3522 20.056 12.4172 19.6995 12.448 19.5483L10.4883 19.1488Z" fill="#111827" mask="url(#path-2-inside-1_963_180)"/>
</svg>
