<svg width="33" height="32" viewBox="0 0 33 32" fill="none" xmlns="http://www.w3.org/2000/svg">
<path fill-rule="evenodd" clip-rule="evenodd" d="M0.500916 3.0462C0.500916 2.49392 0.948631 2.0462 1.50092 2.0462H31.4991C32.0514 2.0462 32.4991 2.49392 32.4991 3.0462V23.4995C32.4991 24.0518 32.0514 24.4995 31.4991 24.4995H1.50092C0.948631 24.4995 0.500916 24.0518 0.500916 23.4995V3.0462ZM2.50092 4.0462V22.4995H30.4991V4.0462H2.50092ZM0.500916 28.9537C0.500915 28.4015 0.948631 27.9537 1.50092 27.9537L31.4991 27.9537C32.0513 27.9537 32.4991 28.4015 32.4991 28.9537C32.4991 29.506 32.0513 29.9537 31.4991 29.9537L1.50092 29.9537C0.948631 29.9537 0.500916 29.506 0.500916 28.9537ZM16.5 8.50041C17.2531 8.50041 17.8636 7.88993 17.8636 7.13686C17.8636 6.38379 17.2531 5.77331 16.5 5.77331C15.747 5.77331 15.1365 6.38379 15.1365 7.13686C15.1365 7.88993 15.747 8.50041 16.5 8.50041Z" fill="#111827"/>
</svg>
