<svg width="33" height="32" viewBox="0 0 33 32" fill="none" xmlns="http://www.w3.org/2000/svg">
<g clip-path="url(#clip0_6_1688)">
<path d="M2.18298 4.39934L1.97095 24.177L13.7435 30.9991M2.18298 4.39934L8.01548 1L14.0266 4.40434M2.18298 4.39934L7.92203 8.01303M14.0266 4.40434L14.0136 16.8071M14.0266 4.40434L7.92203 8.01303M14.0136 16.8071L18.8754 14.0538M14.0136 16.8071L7.91435 20.519M18.8754 14.0538V7.71521M18.8754 14.0538L24.9038 17.5235M18.8754 7.71521L24.9622 4.16695L31.0292 7.72277M18.8754 7.71521L24.9038 11.3098M31.0292 7.72277V13.9003L24.9038 17.5235M31.0292 7.72277L24.9038 11.3098M24.9038 17.5235V24.4802L13.7451 31L13.7435 30.9991M24.9038 17.5235V11.3098M24.9038 17.5235L13.6905 24.0347M7.92203 8.01303L7.91435 20.519M7.91435 20.519L13.6905 24.0347M13.6905 24.0347L13.7435 30.9991" stroke="#111827" stroke-width="2"/>
</g>
<defs>
<clipPath id="clip0_6_1688">
<rect width="32" height="32" fill="white" transform="translate(0.5)"/>
</clipPath>
</defs>
</svg>
