<svg width="33" height="32" viewBox="0 0 33 32" fill="none" xmlns="http://www.w3.org/2000/svg">
<g clip-path="url(#clip0_6_1688)">
<path fill-rule="evenodd" clip-rule="evenodd" d="M7.46697 0L1.20315 3.62635L0.983398 24.7253L13.5548 32L25.9724 24.7253V17.978L32.0164 14.5055V7.16483L25.5548 3.36263L19.0493 7.16483V13.9121L13.8845 16.8571V3.62635L7.46697 0ZM7.0111 7.77355L1.9847 4.88379L1.98479 24.2145L12.9706 30.6229V24.8497L7.0111 21.356V7.77355ZM7.99609 7.76653L12.992 4.90853V17.3981L7.99609 20.3461V7.76653ZM19.5444 14.7344L8.64909 21.0748L13.532 23.9899L24.4638 17.5766L19.5444 14.7344ZM13.985 24.9053L24.9015 18.5786V24.2799L13.985 30.6015V24.9053ZM24.9938 11.1912L20.056 8.3278V13.8792L24.9938 16.8303V11.1912ZM20.5283 7.40858L25.5197 4.5057L30.3856 7.40858L25.5197 10.3533L20.5283 7.40858ZM31.01 8.28271L25.9876 11.1827V16.8775L31.01 13.8725V8.28271ZM2.52051 4.01128L7.54871 1.12533L12.5062 4.01128L7.54871 6.91497L2.52051 4.01128Z" fill="#111827"/>
</g>
<defs>
<clipPath id="clip0_6_1688">
<rect width="32" height="32" fill="white" transform="translate(0.5)"/>
</clipPath>
</defs>
</svg>
