<svg width="33" height="33" viewBox="0 0 33 33" fill="none" xmlns="http://www.w3.org/2000/svg">
<path fill-rule="evenodd" clip-rule="evenodd" d="M5.80544 25.7804L21.1831 10.4028C21.5736 10.0122 22.2067 10.0122 22.5973 10.4028C22.9878 10.7933 22.9878 11.4264 22.5973 11.817L7.21964 27.1946C13.2806 30.3471 19.1191 29.5021 23.4176 25.5001C27.9275 21.3012 30.9154 13.4618 30.4522 2.54792C19.5383 2.08466 11.6989 5.07262 7.50001 9.58253C3.49798 13.881 2.65296 19.7195 5.80544 25.7804ZM4.32899 27.2568C0.487982 20.342 1.26674 13.3425 6.03622 8.21969C10.8987 2.99704 19.7365 -0.0931576 31.4639 0.596688C31.9699 0.626456 32.3736 1.03018 32.4034 1.53624C33.0933 13.2636 30.0031 22.1014 24.7804 26.9639C19.6576 31.7334 12.658 32.5121 5.74319 28.6711L2.20802 32.2062C1.8175 32.5967 1.18433 32.5967 0.793809 32.2062C0.403284 31.8157 0.403284 31.1825 0.793809 30.792L4.32899 27.2568Z" fill="#111827"/>
</svg>
