<svg width="33" height="32" viewBox="0 0 33 32" fill="none" xmlns="http://www.w3.org/2000/svg">
<path fill-rule="evenodd" clip-rule="evenodd" d="M2.50085 16C2.50085 12.4941 3.7896 9.28926 5.9192 6.83329L10.7154 11.6295C9.79579 12.8446 9.25031 14.3586 9.25031 16C9.25031 17.6414 9.79579 19.1553 10.7154 20.3705L5.91919 25.1667C3.7896 22.7107 2.50085 19.5059 2.50085 16ZM7.33341 26.5809C9.78936 28.7104 12.9942 29.9991 16.4999 29.9991C20.0057 29.9991 23.2106 28.7104 25.6665 26.5809L20.8703 21.7847C19.6552 22.7042 18.1412 23.2496 16.4999 23.2496C14.8586 23.2496 13.3447 22.7042 12.1296 21.7847L7.33341 26.5809ZM12.7987 19.7228C13.7478 20.6665 15.0558 21.2496 16.4999 21.2496C17.9459 21.2496 19.2553 20.665 20.2047 19.7193L20.2119 19.712L20.2191 19.7048C21.1649 18.7554 21.7495 17.446 21.7495 16C21.7495 14.5536 21.1646 13.2439 20.2184 12.2944L20.2119 12.2879L20.2055 12.2815C19.256 11.3353 17.9463 10.7504 16.4999 10.7504C15.0555 10.7504 13.7474 11.3337 12.7982 12.2776L12.7881 12.2879L12.7777 12.2981C11.8337 13.2473 11.2503 14.5555 11.2503 16C11.2503 17.4442 11.8335 18.7522 12.7772 19.7013C12.7809 19.7049 12.7845 19.7084 12.7881 19.712C12.7917 19.7156 12.7952 19.7192 12.7987 19.7228ZM27.0807 25.1666L22.2846 20.3705C23.2041 19.1553 23.7495 17.6413 23.7495 16C23.7495 14.3586 23.2041 12.8447 22.2845 11.6295L27.0807 6.83334C29.2103 9.2893 30.499 12.4942 30.499 16C30.499 19.5058 29.2103 22.7107 27.0807 25.1666ZM25.6665 5.41913C23.2106 3.28961 20.0057 2.00092 16.4999 2.00092C12.9942 2.00092 9.78937 3.28959 7.33343 5.41909L12.1296 10.2153C13.3447 9.29579 14.8586 8.75037 16.4999 8.75037C18.1412 8.75037 19.6552 9.29581 20.8703 10.2153L25.6665 5.41913ZM16.4999 0.000915527C7.66389 0.000915527 0.500854 7.16395 0.500854 16C0.500854 24.8361 7.66389 31.9991 16.4999 31.9991C25.336 31.9991 32.499 24.8361 32.499 16C32.499 7.16395 25.336 0.000915527 16.4999 0.000915527Z" fill="#111827"/>
</svg>
