<svg width="33" height="32" viewBox="0 0 33 32" fill="none" xmlns="http://www.w3.org/2000/svg">
<path fill-rule="evenodd" clip-rule="evenodd" d="M20.871 1.19044C20.9551 0.754682 20.742 0.315633 20.3475 0.1122C19.9531 -0.0912337 19.4718 -0.0103771 19.1655 0.310771L13.3184 6.4414C12.9372 6.84106 12.9522 7.47405 13.3518 7.85522C13.7515 8.23639 14.3845 8.22141 14.7656 7.82176L18.2618 4.1561L16.8766 11.3339C16.7851 11.8081 17.0455 12.2799 17.4956 12.4552L24.873 15.3285L23.2329 17.0477C22.8517 17.4473 22.8666 18.0803 23.2662 18.4615C23.6658 18.8427 24.2988 18.8278 24.68 18.4282L27.3507 15.6288C27.581 15.3874 27.6757 15.0471 27.6033 14.7215C27.5309 14.3959 27.3009 14.1278 26.9901 14.0067L18.9984 10.8941L20.871 1.19044ZM11.1527 11.6099L6.43132 16.5602L13.9605 19.3545C14.4267 19.5275 14.6949 20.0167 14.5902 20.5027L13.0299 27.7424L19.9898 20.447L11.1527 11.6099ZM21.4044 21.8616L12.0286 31.6893C11.7195 32.0133 11.2327 32.0923 10.837 31.8828C10.4413 31.6732 10.2332 31.2261 10.3275 30.7884L12.4525 20.9282L4.31138 17.9067C3.996 17.7896 3.7606 17.5219 3.68494 17.1941C3.60929 16.8663 3.70351 16.5224 3.93568 16.279L9.73808 10.1953L3.29369 3.75088C2.90316 3.36035 2.90316 2.72719 3.29369 2.33666C3.68421 1.94614 4.31738 1.94614 4.7079 2.33666L29.7063 27.3351C30.0968 27.7256 30.0968 28.3588 29.7063 28.7493C29.3158 29.1398 28.6826 29.1398 28.2921 28.7493L21.4044 21.8616Z" fill="#111827"/>
</svg>
