<svg width="33" height="32" viewBox="0 0 33 32" fill="none" xmlns="http://www.w3.org/2000/svg">
<path fill-rule="evenodd" clip-rule="evenodd" d="M5.95294 12.548C5.95294 6.723 10.675 2.00092 16.5 2.00092C22.325 2.00092 27.0471 6.723 27.0471 12.548C27.0471 16.7022 24.6455 20.2973 21.1504 22.0173C20.8086 22.1856 20.592 22.5335 20.592 22.9146V26.535H17.5V19.2173L22.51 14.2073C22.9006 13.8167 22.9006 13.1836 22.51 12.793C22.1195 12.4025 21.4863 12.4025 21.0958 12.793L16.4999 17.3889L11.9041 12.793C11.5135 12.4025 10.8804 12.4025 10.4899 12.793C10.0993 13.1836 10.0993 13.8167 10.4899 14.2073L15.5 19.2174V26.535H12.3955V22.9084C12.3955 22.5278 12.1794 22.1802 11.8381 22.0117C8.34925 20.2895 5.95294 16.6976 5.95294 12.548ZM16.5 0.000915527C9.57045 0.000915527 3.95294 5.61843 3.95294 12.548C3.95294 17.2631 6.55393 21.369 10.3955 23.5123V26.535C10.3955 27.6395 11.2909 28.535 12.3955 28.535H20.592C21.6966 28.535 22.592 27.6395 22.592 26.535V23.5193C26.4404 21.378 29.0471 17.2682 29.0471 12.548C29.0471 5.61843 23.4296 0.000915527 16.5 0.000915527ZM11.4019 29.9991C10.8496 29.9991 10.4019 30.4468 10.4019 30.9991C10.4019 31.5513 10.8496 31.9991 11.4019 31.9991H21.598C22.1503 31.9991 22.598 31.5513 22.598 30.9991C22.598 30.4468 22.1503 29.9991 21.598 29.9991H11.4019Z" fill="#111827"/>
</svg>
