<svg width="33" height="32" viewBox="0 0 33 32" fill="none" xmlns="http://www.w3.org/2000/svg">
<path fill-rule="evenodd" clip-rule="evenodd" d="M5.95294 12.548C5.95294 6.723 10.675 2.00092 16.5 2.00092C22.325 2.00092 27.0471 6.723 27.0471 12.548C27.0471 16.7022 24.6455 20.2974 21.1504 22.0173C20.8085 22.1856 20.592 22.5335 20.592 22.9146V26.535L12.3954 26.535V22.9084C12.3954 22.5278 12.1794 22.1801 11.8381 22.0117C8.34924 20.2894 5.95294 16.6976 5.95294 12.548ZM16.5 0.000915527C9.57045 0.000915527 3.95294 5.61843 3.95294 12.548C3.95294 17.2631 6.55392 21.369 10.3954 23.5122V26.535C10.3954 27.6395 11.2909 28.535 12.3954 28.535H20.592C21.6965 28.535 22.592 27.6395 22.592 26.535V23.5193C26.4404 21.378 29.0471 17.2682 29.0471 12.548C29.0471 5.61843 23.4296 0.000915527 16.5 0.000915527ZM16.6865 5.52208C16.779 4.9776 17.2954 4.61125 17.8399 4.70379C19.4565 4.97857 20.9478 5.74851 22.108 6.90726C23.2682 8.06602 24.04 9.55642 24.3167 11.1726C24.41 11.717 24.0442 12.2339 23.4999 12.3271C22.9555 12.4203 22.4386 12.0546 22.3454 11.5102C22.1386 10.3023 21.5618 9.18838 20.6947 8.32235C19.8276 7.45632 18.7129 6.88088 17.5048 6.67551C16.9603 6.58296 16.5939 6.06655 16.6865 5.52208ZM10.402 30.9991C10.402 30.4468 10.8497 29.9991 11.402 29.9991H21.598C22.1503 29.9991 22.598 30.4468 22.598 30.9991C22.598 31.5513 22.1503 31.9991 21.598 31.9991H11.402C10.8497 31.9991 10.402 31.5513 10.402 30.9991Z" fill="#111827"/>
</svg>
