<svg width="32" height="32" viewBox="0 0 32 32" fill="none" xmlns="http://www.w3.org/2000/svg">
<path d="M11.9213 28H20.0786" stroke="#1C1B1F" stroke-width="2" stroke-linecap="round" stroke-linejoin="round"/>
<path d="M20.0738 21.532L19.6323 20.6348C19.2904 20.803 19.0738 21.1509 19.0738 21.532H20.0738ZM11.9161 21.527H12.9161C12.9161 21.1464 12.7 20.7988 12.3587 20.6303L11.9161 21.527ZM24.2382 13.2382C24.2382 16.4827 22.3628 19.291 19.6323 20.6348L20.5154 22.4292C23.9033 20.7619 26.2382 17.2737 26.2382 13.2382H24.2382ZM16 5C20.5498 5 24.2382 8.68837 24.2382 13.2382H26.2382C26.2382 7.5838 21.6544 3 16 3V5ZM7.76178 13.2382C7.76178 8.68837 11.4502 5 16 5V3C10.3456 3 5.76178 7.5838 5.76178 13.2382H7.76178ZM12.3587 20.6303C9.63311 19.2849 7.76178 16.4791 7.76178 13.2382H5.76178C5.76178 17.2692 8.09153 20.7543 11.4735 22.4237L12.3587 20.6303ZM12.9161 24.2285V21.527H10.9161V24.2285H12.9161ZM12.9161 24.2285H12.9161H10.9161C10.9161 25.3331 11.8115 26.2285 12.9161 26.2285V24.2285ZM19.0738 24.2285H12.9161V26.2285H19.0738V24.2285ZM19.0738 24.2285V26.2285C20.1784 26.2285 21.0738 25.3331 21.0738 24.2285H19.0738ZM19.0738 21.532V24.2285H21.0738V21.532H19.0738Z" fill="#1C1B1F"/>
<path d="M16 25V18" stroke="#1C1B1F" stroke-width="2" stroke-linecap="round" stroke-linejoin="round"/>
<path d="M20.2426 14L15.9999 18.2426L11.7573 14" stroke="#1C1B1F" stroke-width="2" stroke-linecap="round" stroke-linejoin="round"/>
</svg>
