<svg width="33" height="32" viewBox="0 0 33 32" fill="none" xmlns="http://www.w3.org/2000/svg">
<path fill-rule="evenodd" clip-rule="evenodd" d="M27.4083 2.00085C25.7014 2.00085 24.3176 3.38459 24.3176 5.09152C24.3176 6.79845 25.7014 8.18219 27.4083 8.18219C29.1152 8.18219 30.499 6.79845 30.499 5.09152C30.499 3.38459 29.1152 2.00085 27.4083 2.00085ZM22.3176 5.09152C22.3176 2.28002 24.5968 0.000854492 27.4083 0.000854492C30.2198 0.000854492 32.499 2.28002 32.499 5.09152C32.499 7.90302 30.2198 10.1822 27.4083 10.1822C26.3641 10.1822 25.3934 9.86781 24.5855 9.32853L9.82841 24.0856C10.3677 24.8935 10.6821 25.8642 10.6821 26.9084C10.6821 29.7199 8.4029 31.9991 5.5914 31.9991C2.7799 31.9991 0.500732 29.7199 0.500732 26.9084C0.500732 24.0969 2.7799 21.8178 5.5914 21.8178C6.63559 21.8178 7.60635 22.1321 8.4142 22.6714L23.1713 7.91432C22.632 7.10648 22.3176 6.13571 22.3176 5.09152ZM5.5914 23.8178C3.88447 23.8178 2.50073 25.2015 2.50073 26.9084C2.50073 28.6154 3.88447 29.9991 5.5914 29.9991C7.29833 29.9991 8.68207 28.6154 8.68207 26.9084C8.68207 25.2015 7.29833 23.8178 5.5914 23.8178Z" fill="#111827"/>
</svg>
