<svg width="32" height="32" viewBox="0 0 32 32" fill="none" xmlns="http://www.w3.org/2000/svg">
<path d="M6.57143 26.2858C7.99159 26.2858 9.14286 25.1345 9.14286 23.7144C9.14286 22.2942 7.99159 21.1429 6.57143 21.1429C5.15127 21.1429 4 22.2942 4 23.7144C4 25.1345 5.15127 26.2858 6.57143 26.2858Z" stroke="#1C1B1F" stroke-width="2" stroke-linecap="round" stroke-linejoin="round"/>
<path d="M12.5714 15.143C13.9916 15.143 15.1429 13.9917 15.1429 12.5716C15.1429 11.1514 13.9916 10.0001 12.5714 10.0001C11.1513 10.0001 10 11.1514 10 12.5716C10 13.9917 11.1513 15.143 12.5714 15.143Z" stroke="#1C1B1F" stroke-width="2" stroke-linecap="round" stroke-linejoin="round"/>
<path d="M19.4286 22C20.8488 22 22 20.8488 22 19.4286C22 18.0084 20.8488 16.8572 19.4286 16.8572C18.0084 16.8572 16.8572 18.0084 16.8572 19.4286C16.8572 20.8488 18.0084 22 19.4286 22Z" stroke="#1C1B1F" stroke-width="2" stroke-linecap="round" stroke-linejoin="round"/>
<path d="M25.4286 10.8572C26.8488 10.8572 28 9.70594 28 8.28578C28 6.86562 26.8488 5.71436 25.4286 5.71436C24.0084 5.71436 22.8572 6.86562 22.8572 8.28578C22.8572 9.70594 24.0084 10.8572 25.4286 10.8572Z" stroke="#1C1B1F" stroke-width="2" stroke-linecap="round" stroke-linejoin="round"/>
<path d="M11.352 14.8359L7.79053 21.4502" stroke="#1C1B1F" stroke-width="2" stroke-linecap="round" stroke-linejoin="round"/>
<path d="M17.6102 17.6104L14.3896 14.3898" stroke="#1C1B1F" stroke-width="2" stroke-linecap="round" stroke-linejoin="round"/>
<path d="M24.2093 10.55L20.6477 17.1645" stroke="#1C1B1F" stroke-width="2" stroke-linecap="round" stroke-linejoin="round"/>
</svg>
