<svg width="33" height="32" viewBox="0 0 33 32" fill="none" xmlns="http://www.w3.org/2000/svg">
<path fill-rule="evenodd" clip-rule="evenodd" d="M28.2859 4.1427C27.0629 4.1427 26.0715 5.1341 26.0715 6.35704C26.0715 7.19391 26.5358 7.92236 27.2208 8.29888C27.2259 8.30153 27.2311 8.30424 27.2362 8.307C27.2416 8.30992 27.247 8.31289 27.2524 8.3159C27.5609 8.47902 27.9126 8.57139 28.2859 8.57139C29.5088 8.57139 30.5002 7.57999 30.5002 6.35704C30.5002 5.1341 29.5088 4.1427 28.2859 4.1427ZM27.2251 10.4368C27.564 10.5246 27.9195 10.5714 28.2859 10.5714C30.6134 10.5714 32.5002 8.68456 32.5002 6.35704C32.5002 4.02953 30.6134 2.1427 28.2859 2.1427C25.9584 2.1427 24.0715 4.02953 24.0715 6.35704C24.0715 7.59953 24.6092 8.71644 25.4646 9.48777L21.847 16.2061C21.508 16.1182 21.1524 16.0714 20.7859 16.0714C19.9844 16.0714 19.2353 16.2951 18.5974 16.6835L15.8166 13.9028C16.205 13.2649 16.4287 12.5158 16.4287 11.7143C16.4287 9.38683 14.5419 7.5 12.2143 7.5C9.88683 7.5 8 9.38683 8 11.7143C8 12.9567 8.53753 14.0734 9.3927 14.8447L5.77498 21.5634C5.43604 21.4755 5.08053 21.4287 4.7141 21.4287C2.38658 21.4287 0.499756 23.3155 0.499756 25.6431C0.499756 27.9706 2.38658 29.8574 4.7141 29.8574C7.04162 29.8574 8.92844 27.9706 8.92844 25.6431C8.92844 24.4006 8.39079 23.2837 7.53546 22.5124L11.1531 15.7939C11.4922 15.8819 11.8478 15.9287 12.2143 15.9287C13.0156 15.9287 13.7646 15.7051 14.4023 15.3169L17.1833 18.0978C16.7951 18.7356 16.5715 19.4846 16.5715 20.2858C16.5715 22.6133 18.4584 24.5001 20.7859 24.5001C23.1134 24.5001 25.0002 22.6133 25.0002 20.2858C25.0002 19.0434 24.4627 17.9266 23.6075 17.1553L27.2251 10.4368ZM21.8143 18.3242C21.8214 18.3283 21.8286 18.3323 21.8359 18.3362C21.8427 18.3399 21.8496 18.3435 21.8565 18.347C22.5385 18.7244 23.0002 19.4511 23.0002 20.2858C23.0002 21.5087 22.0088 22.5001 20.7859 22.5001C19.5629 22.5001 18.5715 21.5087 18.5715 20.2858C18.5715 19.6883 18.8081 19.1462 19.1927 18.7478C19.2 18.7411 19.2072 18.7342 19.2144 18.7272C19.2165 18.7251 19.2185 18.7231 19.2206 18.721C19.2298 18.7118 19.2388 18.7024 19.2476 18.6929C19.646 18.3081 20.1883 18.0714 20.7859 18.0714C21.1571 18.0714 21.507 18.1628 21.8143 18.3242ZM12.2143 9.5C10.9914 9.5 10 10.4914 10 11.7143C10 12.9373 10.9914 13.9287 12.2143 13.9287C12.8177 13.9287 13.3647 13.6874 13.764 13.296L13.7797 13.28L13.7958 13.2643C14.1873 12.8649 14.4287 12.3178 14.4287 11.7143C14.4287 10.4914 13.4373 9.5 12.2143 9.5ZM5.74252 23.6815C5.43522 23.5201 5.08533 23.4287 4.7141 23.4287C3.49115 23.4287 2.49976 24.4201 2.49976 25.6431C2.49976 26.866 3.49115 27.8574 4.7141 27.8574C5.93705 27.8574 6.92844 26.866 6.92844 25.6431C6.92844 24.8083 6.46655 24.0814 5.7844 23.7041L5.76383 23.6933L5.74252 23.6815Z" fill="#111827"/>
</svg>
