<svg width="32" height="32" viewBox="0 0 32 32" fill="none" xmlns="http://www.w3.org/2000/svg">
<path d="M14.9563 13.9132V22.261" stroke="#1C1B1F" stroke-width="2" stroke-linecap="round" stroke-linejoin="round"/>
<path d="M10.7825 13.9132V22.261" stroke="#1C1B1F" stroke-width="2" stroke-linecap="round" stroke-linejoin="round"/>
<path d="M14.9563 17.5654C14.9563 16.5968 15.3411 15.6678 16.026 14.9829C16.7109 14.298 17.6399 13.9132 18.6085 13.9132C19.5771 13.9132 20.506 14.298 21.191 14.9829C21.8759 15.6678 22.2606 16.5968 22.2606 17.5654V22.261" stroke="#1C1B1F" stroke-width="2" stroke-linecap="round" stroke-linejoin="round"/>
<path d="M10.7825 11.3044C11.6469 11.3044 12.3477 10.6036 12.3477 9.73917C12.3477 8.87472 11.6469 8.17395 10.7825 8.17395C9.91806 8.17395 9.21729 8.87472 9.21729 9.73917C9.21729 10.6036 9.91806 11.3044 10.7825 11.3044Z" fill="#1C1B1F"/>
<rect x="4" y="4" width="24" height="24" stroke="#1C1B1F" stroke-width="2" stroke-linejoin="round"/>
</svg>
