<svg width="32" height="32" viewBox="0 0 32 32" fill="none" xmlns="http://www.w3.org/2000/svg">
<path d="M11.2 7.6V4" stroke="#1C1B1F" stroke-width="2" stroke-linecap="round" stroke-linejoin="round"/>
<path d="M20.8 28V24.4" stroke="#1C1B1F" stroke-width="2" stroke-linecap="round" stroke-linejoin="round"/>
<path d="M7.6 11.2H4" stroke="#1C1B1F" stroke-width="2" stroke-linecap="round" stroke-linejoin="round"/>
<path d="M28 20.8H24.4" stroke="#1C1B1F" stroke-width="2" stroke-linecap="round" stroke-linejoin="round"/>
<path d="M7.45447 16.0603L5.75741 17.7574C4.63275 18.8827 4.00108 20.4086 4.00131 21.9996C4.00155 23.5906 4.63367 25.1164 5.75867 26.2414C6.88367 27.3664 8.40943 27.9985 10.0004 27.9987C11.5914 27.999 13.1174 27.3673 14.2427 26.2426L15.9398 24.5456" stroke="#1C1B1F" stroke-width="2" stroke-linecap="round" stroke-linejoin="round"/>
<path d="M24.5457 15.9397L26.2427 14.2426C27.3674 13.1173 27.9991 11.5913 27.9988 10.0003C27.9986 8.40934 27.3665 6.88358 26.2415 5.75858C25.1165 4.63358 23.5907 4.00146 21.9997 4.00122C20.4087 4.00098 18.8828 4.63265 17.7575 5.75732L16.0604 7.45437" stroke="#1C1B1F" stroke-width="2" stroke-linecap="round" stroke-linejoin="round"/>
</svg>
