<svg width="32" height="32" viewBox="0 0 32 32" fill="none" xmlns="http://www.w3.org/2000/svg">
<path d="M11.6323 20.367L20.3677 11.6317" stroke="#1C1B1F" stroke-width="2" stroke-linecap="round" stroke-linejoin="round"/>
<path d="M18.1835 22.5518L14.5438 26.1916C13.3853 27.3497 11.8143 28.0001 10.1763 28C8.5383 27.9999 6.96741 27.3491 5.80916 26.1908C4.6509 25.0326 4.00014 23.4617 4 21.8237C3.99986 20.1857 4.65035 18.6147 5.80841 17.4562L9.44816 13.8165" stroke="#1C1B1F" stroke-width="2" stroke-linecap="round" stroke-linejoin="round"/>
<path d="M22.5519 18.1835L26.1916 14.5438C27.3497 13.3853 28.0002 11.8143 28 10.1763C27.9999 8.5383 27.3491 6.96741 26.1909 5.80916C25.0326 4.6509 23.4617 4.00014 21.8237 4C20.1857 3.99986 18.6147 4.65035 17.4562 5.80841L13.8165 9.44815" stroke="#1C1B1F" stroke-width="2" stroke-linecap="round" stroke-linejoin="round"/>
</svg>
