<svg width="33" height="32" viewBox="0 0 33 32" fill="none" xmlns="http://www.w3.org/2000/svg">
<path fill-rule="evenodd" clip-rule="evenodd" d="M23.7793 0.000915559C21.4667 0.000717612 19.2487 0.919097 17.6132 2.55406L17.6131 2.55418L13.0636 7.10359C12.6731 7.49411 12.6731 8.12727 13.0636 8.5178C13.4542 8.90832 14.0873 8.90832 14.4779 8.5178L19.0271 3.96852L19.0273 3.9684C20.2877 2.70847 21.9969 2.00076 23.7791 2.00092C25.5613 2.00107 27.2705 2.70912 28.5307 3.96933C29.7909 5.22955 30.499 6.93872 30.4991 8.72094C30.4993 10.5031 29.7916 12.2123 28.5316 13.4728L28.5315 13.4729L23.9822 18.0222C23.5917 18.4127 23.5917 19.0458 23.9822 19.4364C24.3727 19.8269 25.0059 19.8269 25.3964 19.4364L29.9458 14.887L29.946 14.8868C31.5809 13.2513 32.4993 11.0334 32.4991 8.72077C32.4989 6.40818 31.5802 4.19037 29.9449 2.55512C28.3097 0.919873 26.0918 0.00111339 23.7793 0.000915559ZM22.6663 9.83281C23.0569 10.2233 23.0569 10.8565 22.6663 11.247L11.7478 22.1656C11.3572 22.5561 10.7241 22.5561 10.3335 22.1656C9.94302 21.7751 9.94302 21.1419 10.3335 20.7514L21.2521 9.83281C21.6426 9.44229 22.2758 9.44229 22.6663 9.83281ZM9.01779 12.5636C9.40831 12.9542 9.40831 13.5873 9.01779 13.9779L4.4685 18.5271L4.46838 18.5273C3.20846 19.7877 2.50075 21.4969 2.5009 23.2791C2.50105 25.0613 3.2091 26.7705 4.46932 28.0307C5.72953 29.2909 7.43871 29.9989 9.22092 29.9991C11.0031 29.9992 12.7123 29.2915 13.9727 28.0316L13.9729 28.0315L18.5222 23.4822C18.9127 23.0917 19.5458 23.0917 19.9364 23.4822C20.3269 23.8727 20.3269 24.5059 19.9364 24.8964L15.387 29.4458L15.3868 29.4459C13.7513 31.0809 11.5333 31.9993 9.22075 31.9991C6.90816 31.9989 4.69035 31.0801 3.0551 29.4449C1.41986 27.8096 0.501098 25.5918 0.5009 23.2792C0.500702 20.9667 1.41908 18.7487 3.05405 17.1132L3.05417 17.113L7.60358 12.5636C7.9941 12.1731 8.62726 12.1731 9.01779 12.5636Z" fill="#111827"/>
</svg>
