<svg width="33" height="32" viewBox="0 0 33 32" fill="none" xmlns="http://www.w3.org/2000/svg">
<path fill-rule="evenodd" clip-rule="evenodd" d="M11.5004 1.00092C11.5004 0.448631 11.0527 0.000915527 10.5004 0.000915527C9.9481 0.000915527 9.50038 0.448631 9.50038 1.00092V5.50063C9.50038 6.05292 9.9481 6.50063 10.5004 6.50063C11.0527 6.50063 11.5004 6.05292 11.5004 5.50063V1.00092ZM23.4996 26.4994C23.4996 25.9471 23.0519 25.4994 22.4996 25.4994C21.9474 25.4994 21.4996 25.9471 21.4996 26.4994V30.9991C21.4996 31.5514 21.9474 31.9991 22.4996 31.9991C23.0519 31.9991 23.4996 31.5514 23.4996 30.9991V26.4994ZM0.500946 10.0004C0.500946 9.44813 0.948661 9.00041 1.50095 9.00041H6.00066C6.55295 9.00041 7.00066 9.44813 7.00066 10.0004C7.00066 10.5527 6.55295 11.0004 6.00066 11.0004H1.50095C0.948661 11.0004 0.500946 10.5527 0.500946 10.0004ZM26.9993 20.9996C26.4471 20.9996 25.9993 21.4473 25.9993 21.9996C25.9993 22.5519 26.4471 22.9996 26.9993 22.9996H31.4991C32.0513 22.9996 32.4991 22.5519 32.4991 21.9996C32.4991 21.4473 32.0513 20.9996 31.4991 20.9996H26.9993ZM6.52588 15.3683C6.9164 15.7588 6.9164 16.3919 6.52588 16.7825L4.4049 18.9034L4.40469 18.9037C3.18652 20.1227 2.50234 21.7756 2.5026 23.4989C2.50285 25.2224 3.1876 26.8751 4.40626 28.0938C5.62492 29.3125 7.27771 29.9972 9.00116 29.9975C10.7245 29.9977 12.3774 29.3135 13.5964 28.0954L13.5966 28.0952L15.7176 25.9742C16.1081 25.5837 16.7413 25.5837 17.1318 25.9742C17.5223 26.3647 17.5223 26.9979 17.1318 27.3884L15.0106 29.5096L15.0104 29.5098C13.4163 31.103 11.2546 31.9978 9.00086 31.9975C6.74708 31.9971 4.58571 31.1017 2.99205 29.508C1.39839 27.9144 0.50293 25.753 0.502596 23.4992C0.502261 21.2454 1.39708 19.0838 2.99026 17.4897L2.99047 17.4894L5.11166 15.3683C5.50219 14.9777 6.13535 14.9777 6.52588 15.3683ZM23.9993 0.00244296C21.7456 0.00210822 19.5839 0.896925 17.9898 2.49011L17.9896 2.49032L15.8684 4.6115C15.4779 5.00203 15.4779 5.63519 15.8684 6.02572C16.2589 6.41624 16.8921 6.41624 17.2826 6.02572L19.4036 3.90475L19.4038 3.90454C20.6228 2.68637 22.2757 2.00219 23.999 2.00244C25.7225 2.0027 27.3753 2.68745 28.5939 3.90611C29.8126 5.12477 30.4973 6.77756 30.4976 8.50101C30.4979 10.2244 29.8137 11.8773 28.5955 13.0963L28.5953 13.0965L26.4743 15.2174C26.0838 15.608 26.0838 16.2411 26.4743 16.6317C26.8649 17.0222 27.498 17.0222 27.8885 16.6317L30.0097 14.5105L30.0099 14.5103C31.6031 12.9161 32.4979 10.7545 32.4976 8.50071C32.4973 6.24693 31.6018 4.08556 30.0082 2.4919C28.4145 0.898236 26.2531 0.00277764 23.9993 0.00244296Z" fill="#111827"/>
</svg>
