<svg width="33" height="32" viewBox="0 0 33 32" fill="none" xmlns="http://www.w3.org/2000/svg">
<path fill-rule="evenodd" clip-rule="evenodd" d="M1.50098 0.000854492C0.948692 0.000854492 0.500977 0.44857 0.500977 1.00085V30.999C0.500977 31.5513 0.948692 31.999 1.50098 31.999H31.4991C32.0514 31.999 32.4991 31.5513 32.4991 30.999V1.00085C32.4991 0.44857 32.0514 0.000854492 31.4991 0.000854492H1.50098ZM2.50098 29.999V2.00085H30.4991V29.999H2.50098ZM9.97866 10.1309C11.0592 10.1309 11.9351 9.25498 11.9351 8.17449C11.9351 7.094 11.0592 6.21809 9.97866 6.21809C8.89817 6.21809 8.02226 7.094 8.02226 8.17449C8.02226 9.25498 8.89817 10.1309 9.97866 10.1309ZM15.1956 12.3917C15.7479 12.3917 16.1956 12.8394 16.1956 13.3917V13.6833C17.1919 12.8522 18.4523 12.3918 19.7603 12.3918C21.2362 12.3918 22.6516 12.9781 23.6953 14.0217C24.7389 15.0653 25.3252 16.4808 25.3252 17.9567V23.8259C25.3252 24.3782 24.8775 24.8259 24.3252 24.8259C23.7729 24.8259 23.3252 24.3782 23.3252 23.8259V17.9567C23.3252 17.0112 22.9496 16.1045 22.2811 15.4359C21.6125 14.7674 20.7057 14.3918 19.7603 14.3918C18.8148 14.3918 17.908 14.7674 17.2395 15.4359C16.5819 16.0935 16.2078 16.9814 16.1956 17.91V23.8258C16.1956 24.3781 15.7479 24.8258 15.1956 24.8258C14.6433 24.8258 14.1956 24.3781 14.1956 23.8258V17.9817L14.1954 17.9714L14.1953 17.9567C14.1953 17.9498 14.1953 17.9429 14.1954 17.936C14.1954 17.9235 14.1955 17.9109 14.1956 17.8984V13.3917C14.1956 12.8394 14.6433 12.3917 15.1956 12.3917ZM9.9784 12.3918C10.5307 12.3918 10.9784 12.8395 10.9784 13.3918V23.8259C10.9784 24.3782 10.5307 24.8259 9.9784 24.8259C9.42611 24.8259 8.9784 24.3782 8.9784 23.8259V13.3918C8.9784 12.8395 9.42611 12.3918 9.9784 12.3918Z" fill="#111827"/>
</svg>
