<svg width="33" height="32" viewBox="0 0 33 32" fill="none" xmlns="http://www.w3.org/2000/svg">
<path d="M18.6835 22.5518L15.0438 26.1915C13.8853 27.3496 12.3143 28.0001 10.6763 27.9999C9.0383 27.9998 7.46741 27.349 6.30916 26.1908C5.1509 25.0325 4.50014 23.4616 4.5 21.8236C4.49986 20.1856 5.15035 18.6146 6.30841 17.4561L9.94816 13.8164" stroke="#111827" stroke-width="2" stroke-linecap="round" stroke-linejoin="round"/>
<path d="M23.0519 18.1835L26.6916 14.5438C27.8497 13.3853 28.5002 11.8143 28.5 10.1763C28.4999 8.5383 27.8491 6.96741 26.6909 5.80916C25.5326 4.6509 23.9617 4.00014 22.3237 4C20.6857 3.99986 19.1147 4.65035 17.9562 5.80841L14.3165 9.44815" stroke="#111827" stroke-width="2" stroke-linecap="round" stroke-linejoin="round"/>
</svg>
