<svg width="32" height="32" viewBox="0 0 32 32" fill="none" xmlns="http://www.w3.org/2000/svg">
<path fill-rule="evenodd" clip-rule="evenodd" d="M19.4408 22.0973C19.5789 22.3365 19.8847 22.4184 20.1238 22.2803L23.4045 20.3862C23.6437 20.2481 23.7256 19.9423 23.5875 19.7032L22.5836 17.9643C22.4711 17.7694 22.5037 17.5244 22.6547 17.3577C22.8875 17.1008 23.1057 16.8304 23.3079 16.5478L27.3397 19.7305V24.541C25.8043 24.9762 24.6794 26.3884 24.6794 28.0633C24.6794 30.085 26.3183 31.7239 28.34 31.7239C30.3617 31.7239 32.0006 30.085 32.0006 28.0633C32.0006 26.3881 30.8755 24.9758 29.3397 24.5408V19.2458C29.3397 18.9398 29.1996 18.6506 28.9593 18.4609L24.3586 14.8292C24.3371 14.8122 24.3152 14.7963 24.2928 14.7814C24.3897 14.5494 24.4772 14.3124 24.5548 14.0711C24.6237 13.8568 24.8197 13.7059 25.0447 13.7059H27.0502C27.3264 13.7059 27.5502 13.482 27.5502 13.2059V9.41763C27.5502 9.14149 27.3264 8.91763 27.0502 8.91763H25.0447C24.8196 8.91763 24.6237 8.76674 24.5548 8.55246C24.1585 7.31989 23.5039 6.20314 22.6548 5.26598C22.5037 5.09927 22.4711 4.85427 22.5836 4.65944L23.5876 2.92041C23.7257 2.68126 23.6438 2.37547 23.4046 2.2374L20.1239 0.343268C19.8847 0.205197 19.579 0.287134 19.4409 0.52628L18.4379 2.26356C18.3254 2.45828 18.0972 2.55257 17.8773 2.50539C17.2651 2.374 16.6298 2.30483 15.9783 2.30483C15.3268 2.30483 14.6915 2.374 14.0793 2.50539C13.8595 2.55257 13.6312 2.45827 13.5188 2.26356L12.5157 0.526207C12.3776 0.287061 12.0718 0.205123 11.8327 0.343194L8.55196 2.23732C8.31282 2.37539 8.23088 2.68119 8.36895 2.92034L9.37302 4.65943C9.4855 4.85426 9.45292 5.09926 9.30187 5.26597C8.45269 6.20313 7.7981 7.31989 7.40184 8.55246C7.33296 8.76674 7.13701 8.91763 6.91193 8.91763H4.90656C4.63041 8.91763 4.40656 9.14149 4.40656 9.41763V13.2059C4.40656 13.482 4.63041 13.7059 4.90656 13.7059H6.91188C7.13696 13.7059 7.33291 13.8568 7.40179 14.0711C7.48196 14.3205 7.5727 14.5651 7.67349 14.8045C7.66251 14.8124 7.65164 14.8207 7.64088 14.8292L3.04016 18.4609C2.79992 18.6506 2.65976 18.9398 2.65976 19.2458L2.65976 24.5409C1.1242 24.9761 -0.000732422 26.3883 -0.000732422 28.0633C-0.000732422 30.085 1.63819 31.7239 3.6599 31.7239C5.68161 31.7239 7.32053 30.085 7.32053 28.0633C7.32053 26.3882 6.19546 24.9759 4.65976 24.5408L4.65976 19.7305L8.66419 16.5694C8.86206 16.8442 9.07503 17.1074 9.30189 17.3577C9.45295 17.5245 9.48553 17.7695 9.37304 17.9643L8.36904 19.7033C8.23097 19.9424 8.31291 20.2482 8.55205 20.3863L11.8328 22.2804C12.0719 22.4185 12.3777 22.3365 12.5158 22.0974L13.5188 20.3601C13.6312 20.1654 13.8595 20.0711 14.0793 20.1183C14.3809 20.183 14.688 20.2326 14.9999 20.2663V23.8663C13.4642 24.3014 12.3391 25.7137 12.3391 27.3887C12.3391 29.4104 13.9781 31.0494 15.9998 31.0494C18.0215 31.0494 19.6604 29.4104 19.6604 27.3887C19.6604 25.7138 18.5354 24.3015 16.9999 23.8664V20.2616C17.297 20.228 17.5897 20.18 17.8773 20.1183C18.0971 20.0711 18.3254 20.1654 18.4378 20.3601L19.4408 22.0973ZM15.9784 17.0979C19.1739 17.0979 21.7643 14.5075 21.7643 11.312C21.7643 8.11651 19.1739 5.52607 15.9784 5.52607C12.7829 5.52607 10.1925 8.11651 10.1925 11.312C10.1925 14.5075 12.7829 17.0979 15.9784 17.0979ZM15.9998 25.7281C15.0826 25.7281 14.3391 26.4716 14.3391 27.3887C14.3391 28.3059 15.0826 29.0494 15.9998 29.0494C16.9169 29.0494 17.6604 28.3059 17.6604 27.3887C17.6604 26.4716 16.9169 25.7281 15.9998 25.7281ZM26.6794 28.0633C26.6794 27.1461 27.4229 26.4026 28.34 26.4026C29.2572 26.4026 30.0006 27.1461 30.0006 28.0633C30.0006 28.9804 29.2572 29.7239 28.34 29.7239C27.4229 29.7239 26.6794 28.9804 26.6794 28.0633ZM3.6599 26.4026C2.74276 26.4026 1.99927 27.1461 1.99927 28.0633C1.99927 28.9804 2.74276 29.7239 3.6599 29.7239C4.57704 29.7239 5.32053 28.9804 5.32053 28.0633C5.32053 27.1461 4.57704 26.4026 3.6599 26.4026Z" fill="#111827"/>
</svg>
