<svg width="33" height="32" viewBox="0 0 33 32" fill="none" xmlns="http://www.w3.org/2000/svg">
<path fill-rule="evenodd" clip-rule="evenodd" d="M11.2833 2.69514C11.6738 2.30462 11.6738 1.67145 11.2833 1.28093C10.8928 0.890406 10.2596 0.890406 9.86909 1.28093L4.42742 6.72261L2.20894 4.50413C1.81841 4.1136 1.18525 4.1136 0.794724 4.50413C0.4042 4.89465 0.4042 5.52782 0.794724 5.91834L3.72031 8.84393C4.11083 9.23445 4.744 9.23445 5.13452 8.84393L11.2833 2.69514ZM16.4593 4.06311C15.9071 4.06311 15.4593 4.51083 15.4593 5.06311C15.4593 5.6154 15.9071 6.06311 16.4593 6.06311H31.4981C32.0504 6.06311 32.4981 5.6154 32.4981 5.06311C32.4981 4.51083 32.0504 4.06311 31.4981 4.06311H16.4593ZM16.4593 15.0003C15.9071 15.0003 15.4593 15.4481 15.4593 16.0003C15.4593 16.5526 15.9071 17.0003 16.4593 17.0003H31.4981C32.0504 17.0003 32.4981 16.5526 32.4981 16.0003C32.4981 15.4481 32.0504 15.0003 31.4981 15.0003H16.4593ZM15.4593 26.9377C15.4593 26.3854 15.9071 25.9377 16.4593 25.9377H31.4981C32.0504 25.9377 32.4981 26.3854 32.4981 26.9377C32.4981 27.49 32.0504 27.9377 31.4981 27.9377H16.4593C15.9071 27.9377 15.4593 27.49 15.4593 26.9377ZM11.2833 12.2189C11.6738 12.6094 11.6738 13.2426 11.2833 13.6331L5.13452 19.7819C4.744 20.1724 4.11083 20.1724 3.72031 19.7819L0.794724 16.8563C0.4042 16.4658 0.4042 15.8326 0.794724 15.4421C1.18525 15.0516 1.81841 15.0516 2.20894 15.4421L4.42742 17.6606L9.86909 12.2189C10.2596 11.8284 10.8928 11.8284 11.2833 12.2189ZM11.2833 24.5703C11.6738 24.1798 11.6738 23.5466 11.2833 23.1561C10.8928 22.7656 10.2596 22.7656 9.86909 23.1561L4.42742 28.5978L2.20894 26.3793C1.81841 25.9888 1.18525 25.9888 0.794724 26.3793C0.4042 26.7698 0.4042 27.403 0.794724 27.7935L3.72031 30.7191C4.11083 31.1096 4.744 31.1096 5.13452 30.7191L11.2833 24.5703Z" fill="#111827"/>
</svg>
