<svg width="33" height="32" viewBox="0 0 33 32" fill="none" xmlns="http://www.w3.org/2000/svg">
<path fill-rule="evenodd" clip-rule="evenodd" d="M4.54365 5.21762C4.54365 6.33418 3.6385 7.23933 2.52194 7.23933C1.40539 7.23933 0.500244 6.33418 0.500244 5.21762C0.500244 4.10107 1.40539 3.19592 2.52194 3.19592C3.6385 3.19592 4.54365 4.10107 4.54365 5.21762ZM9.93477 4.2176C9.38249 4.2176 8.93477 4.66532 8.93477 5.2176C8.93477 5.76989 9.38249 6.2176 9.93477 6.2176H31.4996C32.0519 6.2176 32.4996 5.76989 32.4996 5.2176C32.4996 4.66532 32.0519 4.2176 31.4996 4.2176H9.93477ZM9.93593 15C9.38365 15 8.93593 15.4477 8.93593 16C8.93593 16.5523 9.38365 17 9.93593 17H31.4997C32.052 17 32.4997 16.5523 32.4997 16C32.4997 15.4477 32.052 15 31.4997 15H9.93593ZM8.93593 26.7825C8.93593 26.2302 9.38365 25.7825 9.93593 25.7825H31.4997C32.052 25.7825 32.4997 26.2302 32.4997 26.7825C32.4997 27.3347 32.052 27.7825 31.4997 27.7825H9.93593C9.38365 27.7825 8.93593 27.3347 8.93593 26.7825ZM2.52194 18.0218C3.6385 18.0218 4.54365 17.1166 4.54365 16.0001C4.54365 14.8835 3.6385 13.9784 2.52194 13.9784C1.40539 13.9784 0.500244 14.8835 0.500244 16.0001C0.500244 17.1166 1.40539 18.0218 2.52194 18.0218ZM4.54365 26.7824C4.54365 27.899 3.6385 28.8041 2.52194 28.8041C1.40539 28.8041 0.500244 27.899 0.500244 26.7824C0.500244 25.6659 1.40539 24.7607 2.52194 24.7607C3.6385 24.7607 4.54365 25.6659 4.54365 26.7824Z" fill="#111827"/>
</svg>
