<svg width="33" height="32" viewBox="0 0 33 32" fill="none" xmlns="http://www.w3.org/2000/svg">
<path fill-rule="evenodd" clip-rule="evenodd" d="M0.500122 3.04572C0.500122 2.49343 0.947837 2.04572 1.50012 2.04572H31.4994C32.0517 2.04572 32.4994 2.49343 32.4994 3.04572C32.4994 3.598 32.0517 4.04572 31.4994 4.04572H1.50012C0.947837 4.04572 0.500122 3.598 0.500122 3.04572ZM0.500122 13.9545C0.500122 13.4023 0.947837 12.9545 1.50012 12.9545H31.4994C32.0517 12.9545 32.4994 13.4023 32.4994 13.9545C32.4994 14.5068 32.0517 14.9545 31.4994 14.9545H1.50012C0.947837 14.9545 0.500122 14.5068 0.500122 13.9545ZM1.50012 23.8634C0.947837 23.8634 0.500122 24.3111 0.500122 24.8634C0.500122 25.4157 0.947837 25.8634 1.50012 25.8634H19.227C19.7793 25.8634 20.227 25.4157 20.227 24.8634C20.227 24.3111 19.7793 23.8634 19.227 23.8634H1.50012ZM22.3181 24.8634C22.3181 24.3111 22.7659 23.8634 23.3181 23.8634H26.4089V20.7726C26.4089 20.2203 26.8566 19.7726 27.4089 19.7726C27.9612 19.7726 28.4089 20.2203 28.4089 20.7726V23.8634H31.4998C32.0521 23.8634 32.4998 24.3111 32.4998 24.8634C32.4998 25.4157 32.0521 25.8634 31.4998 25.8634H28.4089V28.9542C28.4089 29.5065 27.9612 29.9542 27.4089 29.9542C26.8566 29.9542 26.4089 29.5065 26.4089 28.9542V25.8634H23.3181C22.7659 25.8634 22.3181 25.4157 22.3181 24.8634Z" fill="#111827"/>
</svg>
