<svg width="32" height="32" viewBox="0 0 32 32" fill="none" xmlns="http://www.w3.org/2000/svg">
<path d="M12.0869 9.04346H25.9999" stroke="#1C1B1F" stroke-width="2" stroke-linecap="round" stroke-linejoin="round"/>
<path d="M12.0876 16H26" stroke="#1C1B1F" stroke-width="2" stroke-linecap="round" stroke-linejoin="round"/>
<path d="M12.0876 22.9565H26" stroke="#1C1B1F" stroke-width="2" stroke-linecap="round" stroke-linejoin="round"/>
<path d="M7.30435 10.3478C8.02472 10.3478 8.60869 9.76385 8.60869 9.04348C8.60869 8.32311 8.02472 7.73914 7.30435 7.73914C6.58398 7.73914 6 8.32311 6 9.04348C6 9.76385 6.58398 10.3478 7.30435 10.3478Z" fill="#1C1B1F"/>
<path d="M7.30435 17.3044C8.02472 17.3044 8.60869 16.7204 8.60869 16C8.60869 15.2797 8.02472 14.6957 7.30435 14.6957C6.58398 14.6957 6 15.2797 6 16C6 16.7204 6.58398 17.3044 7.30435 17.3044Z" fill="#1C1B1F"/>
<path d="M7.30435 24.2609C8.02472 24.2609 8.60869 23.6769 8.60869 22.9565C8.60869 22.2361 8.02472 21.6522 7.30435 21.6522C6.58398 21.6522 6 22.2361 6 22.9565C6 23.6769 6.58398 24.2609 7.30435 24.2609Z" fill="#1C1B1F"/>
</svg>
