<svg width="33" height="32" viewBox="0 0 33 32" fill="none" xmlns="http://www.w3.org/2000/svg">
<path fill-rule="evenodd" clip-rule="evenodd" d="M1.50183 4.09222C0.949546 4.09222 0.501831 4.53994 0.501831 5.09222C0.501831 5.64451 0.949546 6.09222 1.50183 6.09222H4.22877C4.78105 6.09222 5.22877 5.64451 5.22877 5.09222C5.22877 4.53994 4.78105 4.09222 4.22877 4.09222H1.50183ZM11.0461 4.09222C10.4938 4.09222 10.0461 4.53994 10.0461 5.09222C10.0461 5.64451 10.4938 6.09222 11.0461 6.09222H31.4981C32.0504 6.09222 32.4981 5.64451 32.4981 5.09222C32.4981 4.53994 32.0504 4.09222 31.4981 4.09222H11.0461ZM11.0472 15C10.4949 15 10.0472 15.4477 10.0472 16C10.0472 16.5523 10.4949 17 11.0472 17H31.4981C32.0504 17 32.4981 16.5523 32.4981 16C32.4981 15.4477 32.0504 15 31.4981 15H11.0472ZM10.0472 26.9078C10.0472 26.3555 10.4949 25.9078 11.0472 25.9078H31.4981C32.0504 25.9078 32.4981 26.3555 32.4981 26.9078C32.4981 27.4601 32.0504 27.9078 31.4981 27.9078H11.0472C10.4949 27.9078 10.0472 27.4601 10.0472 26.9078ZM0.502871 16C0.502871 15.4477 0.950586 15 1.50287 15H4.22876C4.78104 15 5.22876 15.4477 5.22876 16C5.22876 16.5523 4.78104 17 4.22876 17H1.50287C0.950586 17 0.502871 16.5523 0.502871 16ZM1.50287 25.9078C0.950586 25.9078 0.502871 26.3555 0.502871 26.9078C0.502871 27.4601 0.950586 27.9078 1.50287 27.9078H4.22876C4.78104 27.9078 5.22876 27.4601 5.22876 26.9078C5.22876 26.3555 4.78104 25.9078 4.22876 25.9078H1.50287Z" fill="#111827"/>
</svg>
