<svg width="33" height="32" viewBox="0 0 33 32" fill="none" xmlns="http://www.w3.org/2000/svg">
<path fill-rule="evenodd" clip-rule="evenodd" d="M0.500854 4.12573C0.500854 3.57345 0.94857 3.12573 1.50085 3.12573H28.9992C29.5515 3.12573 29.9992 3.57345 29.9992 4.12573C29.9992 4.67802 29.5515 5.12573 28.9992 5.12573H1.50085C0.94857 5.12573 0.500854 4.67802 0.500854 4.12573ZM0.500854 14.1251C0.500854 13.5728 0.94857 13.1251 1.50085 13.1251H28.9992C29.5515 13.1251 29.9992 13.5728 29.9992 14.1251C29.9992 14.6774 29.5515 15.1251 28.9992 15.1251H1.50085C0.94857 15.1251 0.500854 14.6774 0.500854 14.1251ZM1.50085 23.1246C0.94857 23.1246 0.500854 23.5723 0.500854 24.1246C0.500854 24.6769 0.94857 25.1246 1.50085 25.1246H17.7499C18.3022 25.1246 18.7499 24.6769 18.7499 24.1246C18.7499 23.5723 18.3022 23.1246 17.7499 23.1246H1.50085ZM22.9995 24.1246C22.9995 23.5723 23.4472 23.1246 23.9995 23.1246H26.7494V20.3747C26.7494 19.8225 27.1971 19.3747 27.7494 19.3747C28.3017 19.3747 28.7494 19.8225 28.7494 20.3747V23.1246H31.499C32.0513 23.1246 32.499 23.5723 32.499 24.1246C32.499 24.6769 32.0513 25.1246 31.499 25.1246H28.7494V27.8743C28.7494 28.4266 28.3017 28.8743 27.7494 28.8743C27.1971 28.8743 26.7494 28.4266 26.7494 27.8743V25.1246H23.9995C23.4472 25.1246 22.9995 24.6769 22.9995 24.1246Z" fill="#111827"/>
</svg>
