<svg width="33" height="32" viewBox="0 0 33 32" fill="none" xmlns="http://www.w3.org/2000/svg">
<path fill-rule="evenodd" clip-rule="evenodd" d="M1.50037 2.19141C0.948081 2.19141 0.500366 2.63912 0.500366 3.19141C0.500366 3.74369 0.948081 4.19141 1.50037 4.19141H31.4997C32.052 4.19141 32.4997 3.74369 32.4997 3.19141C32.4997 2.63912 32.052 2.19141 31.4997 2.19141H1.50037ZM1.50037 13.1002C0.948081 13.1002 0.500366 13.5479 0.500366 14.1002C0.500366 14.6525 0.948081 15.1002 1.50037 15.1002H31.4997C32.052 15.1002 32.4997 14.6525 32.4997 14.1002C32.4997 13.5479 32.052 13.1002 31.4997 13.1002H1.50037ZM0.500366 25.0091C0.500366 24.4568 0.948081 24.0091 1.50037 24.0091H19.2272C19.7795 24.0091 20.2272 24.4568 20.2272 25.0091C20.2272 25.5614 19.7795 26.0091 19.2272 26.0091H1.50037C0.948081 26.0091 0.500366 25.5614 0.500366 25.0091ZM30.7851 24.593C31.1088 24.7872 31.1088 25.2563 30.7851 25.4505L23.642 29.7365C23.3087 29.9365 22.8847 29.6964 22.8847 29.3078V20.7357C22.8847 20.3471 23.3087 20.107 23.642 20.307L30.7851 24.593Z" fill="#111827"/>
</svg>
