<svg width="33" height="32" viewBox="0 0 33 32" fill="none" xmlns="http://www.w3.org/2000/svg">
<path fill-rule="evenodd" clip-rule="evenodd" d="M0.501831 5.09229C0.501831 4.54 0.949546 4.09229 1.50183 4.09229H31.4982C32.0505 4.09229 32.4982 4.54 32.4982 5.09229C32.4982 5.64457 32.0505 6.09229 31.4982 6.09229H1.50183C0.949546 6.09229 0.501831 5.64457 0.501831 5.09229ZM0.501831 16.0001C0.501831 15.4478 0.949546 15.0001 1.50183 15.0001H31.4982C32.0505 15.0001 32.4982 15.4478 32.4982 16.0001C32.4982 16.5524 32.0505 17.0001 31.4982 17.0001H1.50183C0.949546 17.0001 0.501831 16.5524 0.501831 16.0001ZM1.50183 25.9078C0.949546 25.9078 0.501831 26.3555 0.501831 26.9078C0.501831 27.4601 0.949546 27.9078 1.50183 27.9078H31.4982C32.0505 27.9078 32.4982 27.4601 32.4982 26.9078C32.4982 26.3555 32.0505 25.9078 31.4982 25.9078H1.50183Z" fill="#111827"/>
</svg>
