<svg width="33" height="32" viewBox="0 0 33 32" fill="none" xmlns="http://www.w3.org/2000/svg">
<path fill-rule="evenodd" clip-rule="evenodd" d="M13.6057 0.000732422C10.292 0.000732422 7.60574 2.68703 7.60574 6.00074V12.6317H2.29034C1.73806 12.6317 1.29034 13.0794 1.29034 13.6317V30.999C1.29034 31.5513 1.73806 31.999 2.29034 31.999H30.7097C31.262 31.999 31.7097 31.5513 31.7097 30.999V13.6317C31.7097 13.0794 31.262 12.6317 30.7097 12.6317H9.60574V6.00074C9.60574 3.7916 11.3966 2.00073 13.6057 2.00073H19.3943C21.6034 2.00073 23.3943 3.79159 23.3943 6.00073V7.31614C23.3943 7.86842 23.842 8.31614 24.3943 8.31614C24.9465 8.31614 25.3943 7.86842 25.3943 7.31614V6.00073C25.3943 2.68702 22.708 0.000732422 19.3943 0.000732422H13.6057ZM3.29034 14.6317V16.8469H29.7097V14.6317H3.29034ZM3.29034 21.3151V18.8469H29.7097V21.3151H3.29034ZM3.29034 23.3151H29.7097V25.8491H3.29034V23.3151ZM3.29034 27.8491H29.7097V29.999H3.29034V27.8491Z" fill="#111827"/>
</svg>
