<svg width="32" height="32" viewBox="0 0 32 32" fill="none" xmlns="http://www.w3.org/2000/svg">
<path d="M16 22.5525C16.8284 22.5525 17.5 21.8809 17.5 21.0525C17.5 20.2241 16.8284 19.5525 16 19.5525C15.1716 19.5525 14.5 20.2241 14.5 21.0525C14.5 21.8809 15.1716 22.5525 16 22.5525Z" fill="#1C1B1F"/>
<path d="M4.63159 14.1052H27.3684V28H4.63159V14.1052Z" stroke="#1C1B1F" stroke-width="2" stroke-linejoin="round"/>
<path d="M9.6842 9C9.6842 6.23858 11.9228 4 14.6842 4H17.3158C20.0772 4 22.3158 6.23858 22.3158 9V13.6053C22.3158 13.8814 22.0919 14.1053 21.8158 14.1053H10.1842C9.90806 14.1053 9.6842 13.8814 9.6842 13.6053V9Z" stroke="#1C1B1F" stroke-width="2"/>
</svg>
