<svg width="33" height="32" viewBox="0 0 33 32" fill="none" xmlns="http://www.w3.org/2000/svg">
<path fill-rule="evenodd" clip-rule="evenodd" d="M13.6057 0.000732422C10.292 0.000732422 7.60575 2.68703 7.60575 6.00074V12.6317H2.29028C1.738 12.6317 1.29028 13.0794 1.29028 13.6317V30.999C1.29028 31.5513 1.738 31.999 2.29028 31.999H30.7096C31.2619 31.999 31.7096 31.5513 31.7096 30.999V13.6317C31.7096 13.0794 31.2619 12.6317 30.7096 12.6317H25.3943V6.00073C25.3943 2.68702 22.708 0.000732422 19.3943 0.000732422H13.6057ZM9.60574 6.00074C9.60574 3.7916 11.3966 2.00073 13.6057 2.00073H19.3943C21.6034 2.00073 23.3943 3.79159 23.3943 6.00073V12.6315H9.60574V6.00074ZM3.29028 14.6317V29.999H29.7096V14.6317H3.29028ZM14.7353 20.6564C14.7353 19.6819 15.5253 18.8919 16.4998 18.8919C17.4743 18.8919 18.2643 19.6819 18.2643 20.6564C18.2643 21.628 17.479 22.4162 16.5085 22.4209L16.4999 22.4209L16.4912 22.4209C15.5207 22.4163 14.7353 21.6281 14.7353 20.6564ZM15.4999 24.2867C13.9062 23.8487 12.7353 22.3893 12.7353 20.6564C12.7353 18.5773 14.4207 16.8919 16.4998 16.8919C18.5789 16.8919 20.2643 18.5773 20.2643 20.6564C20.2643 22.3892 19.0936 23.8486 17.4999 24.2866V26.7383C17.4999 27.2906 17.0522 27.7383 16.4999 27.7383C15.9476 27.7383 15.4999 27.2906 15.4999 26.7383V24.2867Z" fill="#111827"/>
</svg>
