<svg width="33" height="32" viewBox="0 0 33 32" fill="none" xmlns="http://www.w3.org/2000/svg">
<path fill-rule="evenodd" clip-rule="evenodd" d="M2.85986 0.000976562C2.30758 0.000976562 1.85986 0.448692 1.85986 1.00098V9.11753V17.359C1.85986 25.4445 8.41449 31.9991 16.5 31.9991C24.5856 31.9991 31.1402 25.4445 31.1402 17.359V1.00098C31.1402 0.448692 30.6925 0.000976562 30.1402 0.000976562H20.5955C20.0432 0.000976562 19.5955 0.448692 19.5955 1.00098V9.00943C19.5917 9.04494 19.5897 9.08101 19.5897 9.11753C19.5897 9.15406 19.5917 9.19012 19.5955 9.22564V15.9836C19.5955 17.6785 18.2215 19.0525 16.5266 19.0525C14.8317 19.0525 13.4577 17.6785 13.4577 15.9836V1.00098C13.4577 0.448692 13.01 0.000976562 12.4577 0.000976562H2.85986ZM21.5955 10.1175V15.9836C21.5955 18.783 19.3261 21.0525 16.5266 21.0525C13.7271 21.0525 11.4577 18.7831 11.4577 15.9836V10.1175L3.85986 10.1175V17.359C3.85986 24.3399 9.51906 29.9991 16.5 29.9991C23.481 29.9991 29.1402 24.3399 29.1402 17.359V10.1175H21.5955ZM29.1402 8.11753V2.00098H21.5955V8.11753H29.1402ZM3.85986 8.11753L11.4577 8.11753V2.00098H3.85986V8.11753Z" fill="#111827"/>
</svg>
