<svg width="33" height="32" viewBox="0 0 33 32" fill="none" xmlns="http://www.w3.org/2000/svg">
<path fill-rule="evenodd" clip-rule="evenodd" d="M12.164 5.14667C16.3584 0.952249 23.1589 0.952249 27.3533 5.14667C31.5477 9.34109 31.5477 16.1416 27.3533 20.336L23.0445 24.6448L18.6172 20.2176L22.0889 16.7458C23.8472 14.9876 23.8472 12.137 22.0889 10.3787C20.3307 8.62052 17.4801 8.62052 15.7219 10.3787L12.2501 13.8505L7.85509 9.45557L12.164 5.14667ZM5.74092 8.74131C5.73851 8.74367 5.73612 8.74604 5.73373 8.74842C5.73135 8.75081 5.72898 8.7532 5.72662 8.75561L0.79387 13.6884C0.606333 13.8759 0.500977 14.1302 0.500977 14.3955C0.500977 14.6607 0.606333 14.915 0.79387 15.1026L6.60306 20.9118C6.99358 21.3023 7.62675 21.3023 8.01727 20.9118L12.8872 16.0419C12.9125 16.0211 12.937 15.9989 12.9606 15.9753C12.9842 15.9517 13.0064 15.9272 13.0272 15.9019L17.1361 11.793C18.1133 10.8158 19.6976 10.8158 20.6747 11.793C21.6519 12.7701 21.6519 14.3544 20.6747 15.3316L11.5559 24.4504C11.1654 24.8409 11.1654 25.4741 11.5559 25.8646L17.3974 31.7061C17.7879 32.0967 18.4211 32.0967 18.8116 31.7061L23.7386 26.7791C23.743 26.7749 23.7474 26.7706 23.7517 26.7663C23.756 26.762 23.7603 26.7576 23.7646 26.7532L28.7675 21.7502C33.743 16.7748 33.743 8.70793 28.7675 3.73246C23.7921 -1.24301 15.7252 -1.24301 10.7498 3.73246L5.74092 8.74131ZM21.6303 26.0591L17.203 21.6318L13.6772 25.1575L18.1045 29.5848L21.6303 26.0591ZM10.8359 15.2648L7.31017 18.7904L2.91519 14.3955L6.44088 10.8698L10.8359 15.2648Z" fill="#111827"/>
</svg>
