<svg width="33" height="32" viewBox="0 0 33 32" fill="none" xmlns="http://www.w3.org/2000/svg">
<path fill-rule="evenodd" clip-rule="evenodd" d="M2.85986 0.000854492C2.30758 0.000854492 1.85986 0.44857 1.85986 1.00085V9.11741V17.3588C1.85986 25.4444 8.41449 31.999 16.5 31.999C24.5856 31.999 31.1402 25.4444 31.1402 17.3588V1.00085C31.1402 0.44857 30.6925 0.000854492 30.1402 0.000854492H20.5955C20.0432 0.000854492 19.5955 0.44857 19.5955 1.00085V9.0093C19.5917 9.04482 19.5897 9.08088 19.5897 9.11741C19.5897 9.15393 19.5917 9.19 19.5955 9.22551V15.9835C19.5955 17.6784 18.2215 19.0523 16.5266 19.0523C14.8317 19.0523 13.4577 17.6784 13.4577 15.9835V1.00085C13.4577 0.44857 13.01 0.000854492 12.4577 0.000854492H2.85986ZM21.5955 10.1174V15.9835C21.5955 18.7829 19.3261 21.0523 16.5266 21.0523C13.7271 21.0523 11.4577 18.7829 11.4577 15.9835V10.1174L3.85986 10.1174V17.3588C3.85986 24.3398 9.51906 29.999 16.5 29.999C23.481 29.999 29.1402 24.3398 29.1402 17.3588V10.1174H21.5955ZM29.1402 8.11741V2.00085H21.5955V8.11741H29.1402ZM3.85986 8.11741L11.4577 8.11741V2.00085H3.85986V8.11741Z" fill="#111827"/>
</svg>
