<svg width="33" height="32" viewBox="0 0 33 32" fill="none" xmlns="http://www.w3.org/2000/svg">
<path fill-rule="evenodd" clip-rule="evenodd" d="M14.8755 4.00037C9.14575 4.00037 4.50089 8.64523 4.50089 14.375C4.50089 20.1047 9.14575 24.7495 14.8755 24.7495C20.6052 24.7495 25.2501 20.1047 25.2501 14.375C25.2501 8.64523 20.6052 4.00037 14.8755 4.00037ZM2.50089 14.375C2.50089 7.54066 8.04118 2.00037 14.8755 2.00037C21.7098 2.00037 27.2501 7.54066 27.2501 14.375C27.2501 17.4324 26.1413 20.2308 24.3038 22.3901L30.2062 28.2925C30.5968 28.683 30.5968 29.3162 30.2062 29.7067C29.8157 30.0973 29.1826 30.0973 28.792 29.7067L22.8895 23.8042C20.7304 25.6411 17.9324 26.7495 14.8755 26.7495C8.04118 26.7495 2.50089 21.2092 2.50089 14.375ZM15.8755 10.0423C15.8755 9.49004 15.4278 9.04232 14.8755 9.04232C14.3232 9.04232 13.8755 9.49004 13.8755 10.0423V13.3755H10.5423C9.99001 13.3755 9.54229 13.8232 9.54229 14.3755C9.54229 14.9277 9.99001 15.3755 10.5423 15.3755H13.8755V18.7087C13.8755 19.261 14.3232 19.7087 14.8755 19.7087C15.4278 19.7087 15.8755 19.261 15.8755 18.7087V15.3755H19.2086C19.7609 15.3755 20.2086 14.9277 20.2086 14.3755C20.2086 13.8232 19.7609 13.3755 19.2086 13.3755H15.8755V10.0423Z" fill="#111827"/>
</svg>
