<svg width="32" height="32" viewBox="0 0 32 32" fill="none" xmlns="http://www.w3.org/2000/svg">
<path d="M7.69238 28H24.3078" stroke="#1C1B1F" stroke-width="2" stroke-linecap="round" stroke-linejoin="round"/>
<path d="M16 16.9231C18.0393 16.9231 19.6924 15.27 19.6924 13.2308C19.6924 11.1916 18.0393 9.53845 16 9.53845C13.9608 9.53845 12.3077 11.1916 12.3077 13.2308C12.3077 15.27 13.9608 16.9231 16 16.9231Z" stroke="#1C1B1F" stroke-width="2" stroke-linecap="round" stroke-linejoin="round"/>
<path d="M25.2308 13.2308C25.2308 21.5385 16.0001 28 16.0001 28C16.0001 28 6.76929 21.5385 6.76929 13.2308C6.76929 10.7826 7.74181 8.43473 9.47292 6.70363C11.204 4.97252 13.5519 4 16.0001 4C18.4482 4 20.7961 4.97252 22.5272 6.70363C24.2583 8.43473 25.2308 10.7826 25.2308 13.2308V13.2308Z" stroke="#1C1B1F" stroke-width="2" stroke-linecap="round" stroke-linejoin="round"/>
</svg>
