<svg width="33" height="32" viewBox="0 0 33 32" fill="none" xmlns="http://www.w3.org/2000/svg">
<path fill-rule="evenodd" clip-rule="evenodd" d="M9.0486 5.08735C11.0248 3.11114 13.7051 2.00092 16.4999 2.00092C19.2947 2.00092 21.975 3.11114 23.9512 5.08735C25.9274 7.06357 27.0377 9.74389 27.0377 12.5387C27.0377 17.3706 24.3414 21.7554 21.5142 25.0067C20.1128 26.6183 18.7089 27.9172 17.655 28.813C17.1902 29.2081 16.7949 29.5235 16.4999 29.7516C16.2049 29.5235 15.8096 29.2081 15.3448 28.813C14.291 27.9172 12.887 26.6183 11.4856 25.0067C8.65844 21.7554 5.96216 17.3706 5.96216 12.5387C5.96216 9.74389 7.07238 7.06357 9.0486 5.08735ZM15.9258 31.8179C15.9262 31.8181 15.9265 31.8183 16.4999 30.9991L15.9265 31.8183C16.2708 32.0593 16.7291 32.0593 17.0734 31.8183L16.4999 30.9991C17.0734 31.8183 17.0737 31.8181 17.074 31.8179L17.0749 31.8173L17.0774 31.8155L17.0856 31.8097L17.1144 31.7892C17.1389 31.7717 17.174 31.7464 17.2191 31.7135C17.3092 31.6478 17.439 31.5515 17.6029 31.4263C17.9306 31.1759 18.3949 30.809 18.9503 30.3368C20.0599 29.3937 21.5403 28.0246 23.0234 26.319C25.9651 22.9361 29.0377 18.0907 29.0377 12.5387C29.0377 9.21345 27.7167 6.02443 25.3654 3.67314C23.0142 1.32185 19.8251 0.000915527 16.4999 0.000915527C13.1747 0.000915527 9.98567 1.32185 7.63438 3.67314C5.2831 6.02443 3.96216 9.21345 3.96216 12.5387C3.96216 18.0907 7.03475 22.9361 9.97643 26.319C11.4595 28.0246 12.94 29.3937 14.0495 30.3368C14.6049 30.809 15.0693 31.1759 15.3969 31.4263C15.5608 31.5515 15.6906 31.6478 15.7807 31.7135C15.8258 31.7464 15.8609 31.7717 15.8855 31.7892L15.9142 31.8097L15.9224 31.8155L15.925 31.8173L15.9258 31.8179ZM12.8848 12.5386C12.8848 10.542 14.5033 8.92351 16.4999 8.92351C18.4964 8.92351 20.115 10.542 20.115 12.5386C20.115 14.5352 18.4964 16.1537 16.4999 16.1537C14.5033 16.1537 12.8848 14.5352 12.8848 12.5386ZM16.4999 6.92351C13.3987 6.92351 10.8847 9.43747 10.8847 12.5386C10.8847 15.6397 13.3987 18.1537 16.4999 18.1537C19.601 18.1537 22.115 15.6397 22.115 12.5386C22.115 9.43747 19.601 6.92351 16.4999 6.92351Z" fill="#111827"/>
</svg>
