<svg width="33" height="32" viewBox="0 0 33 32" fill="none" xmlns="http://www.w3.org/2000/svg">
<path fill-rule="evenodd" clip-rule="evenodd" d="M9.0486 5.08735C11.0248 3.11114 13.7051 2.00092 16.4999 2.00092C19.2947 2.00092 21.975 3.11114 23.9512 5.08735C25.9274 7.06357 27.0377 9.74389 27.0377 12.5387C27.0377 17.3706 24.3414 21.7554 21.5142 25.0067C20.1128 26.6183 18.7089 27.9172 17.655 28.813C17.1902 29.2081 16.7949 29.5235 16.4999 29.7516C16.2049 29.5235 15.8096 29.2081 15.3448 28.813C14.291 27.9172 12.887 26.6183 11.4856 25.0067C8.65844 21.7554 5.96216 17.3706 5.96216 12.5387C5.96216 9.74389 7.07238 7.06357 9.0486 5.08735ZM16.4925 31.9991H6.1158C5.56352 31.9991 5.1158 31.5513 5.1158 30.9991C5.1158 30.4468 5.56352 29.9991 6.1158 29.9991H13.6575C12.6036 29.0783 11.291 27.8308 9.97643 26.319C7.03475 22.9361 3.96216 18.0907 3.96216 12.5387C3.96216 9.21345 5.2831 6.02443 7.63438 3.67314C9.98567 1.32185 13.1747 0.000915527 16.4999 0.000915527C19.8251 0.000915527 23.0142 1.32185 25.3654 3.67314C27.7167 6.02443 29.0377 9.21345 29.0377 12.5387C29.0377 18.0907 25.9651 22.9361 23.0234 26.319C21.7088 27.8308 20.3963 29.0783 19.3423 29.9991H26.8838C27.436 29.9991 27.8838 30.4468 27.8838 30.9991C27.8838 31.5513 27.436 31.9991 26.8838 31.9991H16.5073C16.5024 31.9991 16.4975 31.9991 16.4925 31.9991ZM16.4999 8.92351C14.5033 8.92351 12.8848 10.542 12.8848 12.5386C12.8848 14.5352 14.5033 16.1537 16.4999 16.1537C18.4964 16.1537 20.115 14.5352 20.115 12.5386C20.115 10.542 18.4964 8.92351 16.4999 8.92351ZM10.8847 12.5386C10.8847 9.43747 13.3987 6.92351 16.4999 6.92351C19.601 6.92351 22.115 9.43747 22.115 12.5386C22.115 15.6397 19.601 18.1537 16.4999 18.1537C13.3987 18.1537 10.8847 15.6397 10.8847 12.5386Z" fill="#111827"/>
</svg>
