<svg width="33" height="32" viewBox="0 0 33 32" fill="none" xmlns="http://www.w3.org/2000/svg">
<path fill-rule="evenodd" clip-rule="evenodd" d="M11.9746 1.36978C11.7628 1.25546 11.5093 1.21681 11.2574 1.27979L1.25722 3.77983C0.812053 3.89112 0.499756 4.2911 0.499756 4.74997V27.2503C0.499756 27.5582 0.641627 27.849 0.884344 28.0385C1.12706 28.228 1.44355 28.2951 1.74229 28.2205L11.3836 25.8101L21.0528 30.6448C21.2664 30.7515 21.511 30.7784 21.7426 30.7205L31.7427 28.2205C32.1879 28.1092 32.5002 27.7092 32.5002 27.2503V4.74997C32.5002 4.44203 32.3583 4.15127 32.1156 3.96176C31.8729 3.77226 31.5564 3.70514 31.2577 3.77983L21.7641 6.15321C21.6799 6.1302 21.5913 6.11792 21.4998 6.11792C21.4907 6.11792 21.4817 6.11804 21.4726 6.11828L11.9746 1.36978ZM20.4998 7.86795L12.46 3.84847L12.46 24.1123L20.4998 28.1322L20.4998 7.86795ZM22.4998 28.4696L30.5002 26.4695V6.03075L22.4998 8.03084L22.4998 28.4696ZM2.49976 5.53075L10.46 3.54068L10.46 23.9795L2.49976 25.9695V5.53075Z" fill="#111827"/>
</svg>
