<svg width="33" height="32" viewBox="0 0 33 32" fill="none" xmlns="http://www.w3.org/2000/svg">
<path d="M31.3656 6.33683C31.2847 6.26801 31.1812 6.23157 31.0751 6.23454C30.7846 6.23454 30.4102 6.43093 30.2097 6.5414L30.1289 6.58232C29.791 6.74609 29.423 6.83869 29.0478 6.8544C28.6632 6.86667 28.3318 6.88918 27.9001 6.93316C25.3429 7.19706 24.2025 9.15687 23.1039 11.0522C22.5065 12.0833 21.8887 13.1491 21.0418 13.9746C20.866 14.1442 20.6794 14.3024 20.4833 14.4481C19.6067 15.1017 18.5061 15.5631 17.6459 15.8924C16.8204 16.2075 15.9214 16.4908 15.0509 16.7649C14.2551 17.0155 13.5023 17.2518 12.8108 17.5096C12.4989 17.6252 12.2339 17.7141 11.9997 17.7919C11.3706 17.9965 10.9155 18.153 10.2526 18.6102C9.99386 18.7871 9.73405 18.9784 9.5571 19.1216C9.03019 19.5418 8.56409 20.033 8.17214 20.5812C7.83465 21.0875 7.44484 21.5568 7.00914 21.9815C6.87003 22.1186 6.62045 22.1861 6.24916 22.1861C5.81239 22.1861 5.2846 22.0961 4.72407 22.001C4.16354 21.9058 3.55186 21.7964 3.04043 21.7964C2.62413 21.7964 2.30704 21.8639 2.06871 22.001C2.06871 22.001 1.6698 22.2342 1.5 22.5359L1.6657 22.6106C1.92281 22.7502 2.16103 22.922 2.37455 23.122C2.59566 23.3281 2.84293 23.5042 3.10999 23.6457C3.19598 23.6784 3.27406 23.729 3.33911 23.794C3.26853 23.8963 3.16624 24.0283 3.05884 24.1694C2.46865 24.9417 2.12497 25.4296 2.32238 25.6955C2.41689 25.745 2.52265 25.769 2.62924 25.7651C3.91703 25.7651 4.60746 25.4306 5.48303 25.0072C5.73568 24.8844 5.99446 24.7576 6.30132 24.6287C6.81275 24.4067 7.36305 24.0528 7.94609 23.6785C8.71835 23.1824 9.5172 22.6689 10.2905 22.4203C10.9277 22.226 11.5914 22.1328 12.2575 22.1442C13.0757 22.1442 13.937 22.2536 14.7676 22.36C15.3874 22.4398 16.0277 22.5216 16.6568 22.5646C16.9013 22.5789 17.1273 22.586 17.3482 22.586C17.6424 22.5868 17.9364 22.5715 18.2289 22.54L18.2985 22.5155C18.7404 22.2444 18.947 21.6624 19.1464 21.0998C19.2753 20.7377 19.3837 20.4125 19.5556 20.2058C19.5659 20.1955 19.5772 20.1862 19.5893 20.1782C19.5974 20.1737 19.6067 20.1721 19.6158 20.1736C19.6249 20.1751 19.6333 20.1796 19.6395 20.1864C19.6413 20.1917 19.6413 20.1975 19.6395 20.2028C19.5372 22.403 18.6504 23.7992 17.7553 25.0409L17.1478 25.6782C17.1478 25.6782 17.9845 25.6782 18.4611 25.494C20.2 24.9744 21.5133 23.8288 22.4687 22.002C22.7042 21.5331 22.9145 21.052 23.0988 20.5608C23.1152 20.5199 23.2665 20.4442 23.2512 20.6559C23.2512 20.7183 23.243 20.7878 23.2379 20.8605C23.2379 20.9034 23.2318 20.9474 23.2297 20.9914C23.2041 21.2983 23.1274 21.9468 23.1274 21.9468L23.6644 21.6593C24.9594 20.841 25.9577 19.1901 26.7146 16.6217C27.0307 15.5518 27.2608 14.4891 27.4644 13.5531C27.7078 12.428 27.9175 11.4634 28.1579 11.0891C28.5353 10.5019 29.1112 10.1051 29.6686 9.71944C29.7454 9.66727 29.821 9.61715 29.8957 9.56192C30.5974 9.06992 31.294 8.50223 31.4464 7.44357V7.42004C31.563 6.63039 31.4679 6.434 31.3656 6.33683Z" stroke="#111827"/>
</svg>
