<svg width="32" height="33" viewBox="0 0 32 33" fill="none" xmlns="http://www.w3.org/2000/svg">
<path d="M27.8925 8.51946C27.8278 8.4644 27.745 8.43525 27.6601 8.43764C27.4277 8.43764 27.1282 8.59475 26.9678 8.68312L26.9031 8.71585C26.6328 8.84687 26.3384 8.92095 26.0382 8.93352C25.7305 8.94334 25.4654 8.96134 25.1201 8.99653C23.0744 9.20765 22.162 10.7755 21.2831 12.2918C20.8052 13.1166 20.311 13.9693 19.6334 14.6296C19.4928 14.7654 19.3436 14.8919 19.1867 15.0085C18.4854 15.5314 17.6049 15.9004 16.9167 16.1639C16.2564 16.416 15.5371 16.6426 14.8407 16.8619C14.2041 17.0624 13.6018 17.2514 13.0487 17.4577C12.7991 17.5501 12.5871 17.6213 12.3998 17.6835C11.8965 17.8472 11.5324 17.9724 11.0021 18.3381C10.7951 18.4797 10.5872 18.6327 10.4457 18.7473C10.0241 19.0834 9.65127 19.4764 9.33771 19.915C9.06772 20.32 8.75587 20.6955 8.40731 21.0352C8.29603 21.1449 8.09636 21.1989 7.79932 21.1989C7.44991 21.1989 7.02768 21.1269 6.57925 21.0508C6.13083 20.9747 5.64149 20.8871 5.23235 20.8871C4.8993 20.8871 4.64563 20.9411 4.45497 21.0508C4.45497 21.0508 4.13584 21.2373 4 21.4787L4.13256 21.5385C4.33825 21.6501 4.52882 21.7876 4.69964 21.9476C4.87653 22.1125 5.07434 22.2533 5.28799 22.3666C5.35678 22.3927 5.41925 22.4332 5.47129 22.4852C5.41482 22.5671 5.333 22.6726 5.24708 22.7855C4.77492 23.4034 4.49998 23.7937 4.65791 24.0064C4.73351 24.046 4.81812 24.0652 4.90339 24.0621C5.93362 24.0621 6.48597 23.7945 7.18642 23.4557C7.38854 23.3575 7.59557 23.2561 7.84106 23.153C8.2502 22.9754 8.69044 22.6923 9.15687 22.3928C9.77468 21.9959 10.4138 21.5851 11.0324 21.3863C11.5421 21.2308 12.0731 21.1563 12.606 21.1653C13.2606 21.1653 13.9496 21.2529 14.6141 21.338C15.1099 21.4018 15.6222 21.4673 16.1254 21.5016C16.321 21.5131 16.5018 21.5188 16.6786 21.5188C16.9139 21.5195 17.1491 21.5072 17.3831 21.482L17.4388 21.4624C17.7923 21.2455 17.9576 20.7799 18.1172 20.3299C18.2203 20.0402 18.307 19.78 18.4445 19.6147C18.4527 19.6064 18.4617 19.599 18.4715 19.5926C18.4779 19.589 18.4854 19.5877 18.4927 19.5889C18.4999 19.5901 18.5066 19.5937 18.5116 19.5991C18.513 19.6034 18.513 19.608 18.5116 19.6122C18.4297 21.3724 17.7203 22.4893 17.0043 23.4827L16.5182 23.9925C16.5182 23.9925 17.1876 23.9925 17.5689 23.8452C18.96 23.4295 20.0107 22.5131 20.775 21.0516C20.9633 20.6765 21.1316 20.2916 21.279 19.8986C21.2921 19.8659 21.4132 19.8053 21.401 19.9747C21.401 20.0246 21.3944 20.0803 21.3903 20.1384C21.3903 20.1727 21.3854 20.2079 21.3838 20.2431C21.3633 20.4886 21.3019 21.0074 21.3019 21.0074L21.7315 20.7775C22.7675 20.1228 23.5662 18.8021 24.1717 16.7474C24.4245 15.8914 24.6087 15.0412 24.7715 14.2925C24.9662 13.3924 25.134 12.6207 25.3263 12.3212C25.6282 11.8515 26.0889 11.534 26.5349 11.2256C26.5963 11.1838 26.6568 11.1437 26.7166 11.0995C27.2779 10.7059 27.8352 10.2518 27.9571 9.40486V9.38603C28.0504 8.75431 27.9743 8.5972 27.8925 8.51946Z" stroke="#1C1B1F"/>
</svg>
