<svg width="33" height="32" viewBox="0 0 33 32" fill="none" xmlns="http://www.w3.org/2000/svg">
<path fill-rule="evenodd" clip-rule="evenodd" d="M2.50073 15.9999C2.50073 8.26846 8.76834 2.00085 16.4998 2.00085C24.2313 2.00085 30.4989 8.26846 30.4989 15.9999C30.4989 20.5348 28.3426 24.5661 24.9994 27.1244V22.2495C24.9994 21.6973 24.5516 21.2495 23.9994 21.2495H22.4995V17.2498C22.4995 16.6976 22.0518 16.2498 21.4995 16.2498H20.3802L18.1644 7.38666C17.9975 6.71891 17.3975 6.25047 16.7092 6.25047H16.2905C15.6022 6.25047 15.0022 6.71892 14.8353 7.38666L12.6195 16.2498H11.5001C10.9478 16.2498 10.5001 16.6976 10.5001 17.2498V21.2495H9.00027C8.44798 21.2495 8.00027 21.6973 8.00027 22.2495V27.1243C4.65703 24.5661 2.50073 20.5348 2.50073 15.9999ZM13.3789 18.2498C13.3937 18.2502 13.4085 18.2502 13.4232 18.2498H19.5765C19.5912 18.2502 19.606 18.2502 19.6209 18.2498H20.4995V21.2495H12.5001V18.2498H13.3789ZM18.3186 16.2498H14.6811L16.4999 8.9747L18.3186 16.2498ZM21.4995 23.2495L21.4967 23.2495H11.5029L11.5001 23.2495L11.4973 23.2495H10.0003V28.3895L10.0002 28.4019C11.9425 29.4219 14.1537 29.999 16.4998 29.999C18.8459 29.999 21.0572 29.4219 22.9994 28.4019L22.9994 28.3895V23.2495H21.5023L21.4995 23.2495ZM16.4998 0.000854492C7.66377 0.000854492 0.500732 7.16389 0.500732 15.9999C0.500732 24.836 7.66377 31.999 16.4998 31.999C25.3359 31.999 32.4989 24.836 32.4989 15.9999C32.4989 7.16389 25.3359 0.000854492 16.4998 0.000854492Z" fill="#111827"/>
</svg>
