<svg width="33" height="33" viewBox="0 0 33 33" fill="none" xmlns="http://www.w3.org/2000/svg">
<path fill-rule="evenodd" clip-rule="evenodd" d="M1.50101 3.17139C1.09128 3.17139 0.72301 3.42133 0.5717 3.80209C0.42039 4.18286 0.516661 4.6174 0.814632 4.89863L15.9289 19.1637V27.8282H11.3252C10.7729 27.8282 10.3252 28.2759 10.3252 28.8282C10.3252 29.3805 10.7729 29.8282 11.3252 29.8282H16.913L16.9289 29.8283L16.9449 29.8282H22.5329C23.0852 29.8282 23.5329 29.3805 23.5329 28.8282C23.5329 28.2759 23.0852 27.8282 22.5329 27.8282H17.9289V19.1651L32.2065 4.87826C32.4923 4.59221 32.5778 4.16215 32.4229 3.78855C32.2681 3.41496 31.9035 3.17139 31.4991 3.17139H1.50101ZM6.66493 7.67009L4.01746 5.17139H29.086L26.6045 7.65449H6.84184C6.78147 7.65449 6.72235 7.65984 6.66493 7.67009ZM8.76747 9.65449L16.9181 17.3472L24.6058 9.65449H8.76747Z" fill="#111827"/>
</svg>
