<svg width="33" height="33" viewBox="0 0 33 33" fill="none" xmlns="http://www.w3.org/2000/svg">
<path fill-rule="evenodd" clip-rule="evenodd" d="M31.3569 1.24193C31.2417 0.936315 30.9901 0.675815 30.6377 0.573909C30.3397 0.487736 30.0822 0.547382 29.9383 0.597484L30.2082 1.37286L29.9383 0.597486C25.6786 2.08057 14.6382 4.12243 3.6253 0.788236C2.64856 0.492526 1.5914 1.16004 1.52742 2.23833C1.41759 4.08943 1.19948 8.89054 1.58148 13.1944L1.59313 13.3257C1.83146 16.0156 2.24583 20.6923 4.11128 24.7262C5.06635 26.7915 6.42173 28.736 8.37028 30.164C10.3305 31.6006 12.8307 32.4698 15.988 32.4698C21.1264 32.4698 24.893 30.6671 27.4111 27.228C29.8813 23.8545 31.0566 19.0308 31.3637 13.1582C31.608 8.48491 31.6571 5.67017 31.6264 3.96913C31.6111 3.119 31.5757 2.53387 31.5323 2.12678C31.4907 1.7366 31.4365 1.45313 31.3569 1.24193ZM29.6267 4.00518C29.6177 3.50432 29.6016 3.11449 29.5824 2.81231C24.5681 4.30927 14.084 5.90836 3.49693 2.83618C3.38601 4.91527 3.23405 9.19141 3.57365 13.0175L3.57765 13.0626C3.81899 15.7821 4.20853 20.1716 5.92658 23.8868C6.78339 25.7396 7.95052 27.3768 9.55254 28.5509C11.1429 29.7164 13.2213 30.4698 15.988 30.4698C20.5968 30.4698 23.7155 28.8898 25.7975 26.0465C27.9274 23.1376 29.067 18.7794 29.3664 13.0537C29.6097 8.40066 29.6562 5.63871 29.6267 4.00518ZM8.83412 13.3257C8.46622 12.9138 7.83406 12.8781 7.42215 13.246C7.01024 13.6139 6.97455 14.246 7.34245 14.6579C7.78757 15.1563 8.33294 15.5551 8.94284 15.8281C9.55274 16.1011 10.2134 16.2422 10.8816 16.2422C11.5499 16.2422 12.2106 16.1011 12.8205 15.8281C13.4304 15.5551 13.9757 15.1563 14.4208 14.6579C14.7887 14.246 14.7531 13.6139 14.3411 13.246C13.9292 12.8781 13.2971 12.9138 12.9292 13.3257C12.6717 13.614 12.3562 13.8447 12.0033 14.0027C11.6505 14.1606 11.2682 14.2422 10.8816 14.2422C10.4951 14.2422 10.1128 14.1606 9.75999 14.0027C9.40714 13.8447 9.09163 13.614 8.83412 13.3257ZM20.0699 13.3257C19.702 12.9138 19.0698 12.8781 18.6579 13.246C18.246 13.6139 18.2103 14.246 18.5782 14.6579C19.0233 15.1563 19.5687 15.5551 20.1786 15.8281C20.7885 16.1011 21.4492 16.2422 22.1174 16.2422C22.7856 16.2422 23.4463 16.1011 24.0562 15.8281C24.6661 15.5551 25.2115 15.1563 25.6566 14.6579C26.0245 14.246 25.9888 13.6139 25.5769 13.246C25.165 12.8781 24.5328 12.9138 24.1649 13.3257C23.9074 13.614 23.5919 13.8447 23.2391 14.0027C22.8862 14.1606 22.504 14.2422 22.1174 14.2422C21.7308 14.2422 21.3486 14.1606 20.9957 14.0027C20.6429 13.8447 20.3274 13.614 20.0699 13.3257ZM11.8113 23.1463C13.2009 22.2234 14.8319 21.7312 16.5 21.7312C18.1681 21.7312 19.7991 22.2234 21.1886 23.1463C21.6487 23.4518 21.774 24.0725 21.4684 24.5325C21.1629 24.9926 20.5422 25.1179 20.0822 24.8123C19.0205 24.1073 17.7744 23.7312 16.5 23.7312C15.2255 23.7312 13.9794 24.1073 12.9178 24.8123C12.4577 25.1179 11.8371 24.9926 11.5315 24.5325C11.226 24.0725 11.3512 23.4518 11.8113 23.1463Z" fill="#111827"/>
</svg>
