<svg width="32" height="32" viewBox="0 0 32 32" fill="none" xmlns="http://www.w3.org/2000/svg">
<path d="M18.2622 14C18.5436 14.3151 18.8884 14.5672 19.274 14.7398C19.6596 14.9124 20.0773 15.0016 20.4997 15.0016C20.9222 15.0016 21.3398 14.9124 21.7254 14.7398C22.111 14.5672 22.4558 14.3151 22.7372 14" stroke="#1C1B1F" stroke-width="2" stroke-linecap="round" stroke-linejoin="round"/>
<path d="M9.26221 14C9.54362 14.3151 9.8884 14.5672 10.274 14.7398C10.6596 14.9124 11.0773 15.0016 11.4997 15.0016C11.9222 15.0016 12.3398 14.9124 12.7254 14.7398C13.111 14.5672 13.4558 14.3151 13.7372 14" stroke="#1C1B1F" stroke-width="2" stroke-linecap="round" stroke-linejoin="round"/>
<path d="M19.3125 22C18.3308 21.348 17.1785 21.0002 16 21.0002C14.8215 21.0002 13.6692 21.348 12.6875 22" stroke="#1C1B1F" stroke-width="2" stroke-linecap="round" stroke-linejoin="round"/>
<path d="M4.84807 13.2904C4.54755 9.90457 4.719 6.10749 4.8065 4.63284C4.82567 4.30967 5.14535 4.0967 5.4552 4.19051C14.4782 6.92227 23.4996 5.25584 27.0275 4.02754C27.0813 4.00881 27.1308 4.01652 27.1509 4.06983C27.259 4.35652 27.4966 5.81998 27.106 13.2904C26.6202 22.5807 23.3975 28 15.5899 28C6.09954 28 5.23078 17.6022 4.84807 13.2904Z" stroke="#1C1B1F" stroke-width="2" stroke-linecap="round"/>
</svg>
