<svg width="32" height="32" viewBox="0 0 32 32" fill="none" xmlns="http://www.w3.org/2000/svg">
<path d="M18.1707 14.67C18.4544 14.3523 18.8021 14.098 19.191 13.924C19.5798 13.7499 20.0011 13.6599 20.4271 13.6599C20.8531 13.6599 21.2744 13.7499 21.6632 13.924C22.0521 14.098 22.3998 14.3523 22.6836 14.67" stroke="#1C1B1F" stroke-width="2" stroke-linecap="round" stroke-linejoin="round"/>
<path d="M9.09424 14.67C9.37803 14.3523 9.72573 14.098 10.1146 13.924C10.5034 13.7499 10.9247 13.6599 11.3507 13.6599C11.7767 13.6599 12.198 13.7499 12.5868 13.924C12.9756 14.098 13.3234 14.3523 13.6071 14.67" stroke="#1C1B1F" stroke-width="2" stroke-linecap="round" stroke-linejoin="round"/>
<path d="M19.2295 20.7209C18.2394 21.3785 17.0774 21.7292 15.8889 21.7292C14.7004 21.7292 13.5384 21.3785 12.5483 20.7209" stroke="#1C1B1F" stroke-width="2" stroke-linecap="round" stroke-linejoin="round"/>
<path d="M4.84807 13.2904C4.54755 9.90457 4.719 6.10749 4.8065 4.63284C4.82567 4.30967 5.14535 4.0967 5.4552 4.19051C14.4782 6.92227 23.4996 5.25584 27.0275 4.02754C27.0813 4.00881 27.1308 4.01652 27.1509 4.06983C27.259 4.35652 27.4966 5.81998 27.106 13.2904C26.6202 22.5807 23.3975 28 15.5899 28C6.09954 28 5.23078 17.6022 4.84807 13.2904Z" stroke="#1C1B1F" stroke-width="2" stroke-linecap="round"/>
</svg>
