<svg width="33" height="33" viewBox="0 0 33 33" fill="none" xmlns="http://www.w3.org/2000/svg">
<path fill-rule="evenodd" clip-rule="evenodd" d="M31.3842 1.21275C31.269 0.907074 31.0174 0.646541 30.6649 0.544621C30.3668 0.458432 30.1093 0.518084 29.9653 0.568213C25.697 2.0543 14.6345 4.10022 3.59961 0.75936C2.62212 0.463421 1.56417 1.13146 1.50015 2.21053C1.3901 4.06524 1.17157 8.87563 1.55431 13.1877L1.56597 13.3192C1.80478 16.0145 2.21993 20.7 4.08889 24.7415C5.04573 26.8106 6.40358 28.7586 8.3556 30.1892C10.3193 31.6284 12.824 32.4991 15.9871 32.4991C21.1351 32.4991 24.9083 30.6931 27.431 27.2479C29.9056 23.8682 31.0832 19.0355 31.3909 13.1515C31.6357 8.46914 31.6849 5.64895 31.6541 3.94464C31.6388 3.09288 31.6033 2.50666 31.5598 2.09886C31.5181 1.70796 31.4639 1.42414 31.3842 1.21276L31.3842 1.21275ZM3.46973 2.80687C14.0796 5.88635 24.5866 4.28306 29.6099 2.78294C29.6292 3.08609 29.6454 3.47748 29.6545 3.98069C29.684 5.61749 29.6374 8.38489 29.3936 13.0471C29.0936 18.7842 27.9517 23.1513 25.8173 26.0663C23.7309 28.9158 20.6054 30.4991 15.9871 30.4991C13.2145 30.4991 11.1317 29.7441 9.53786 28.576C7.93237 27.3994 6.76277 25.7587 5.90419 23.9021C4.18263 20.1793 3.79231 15.781 3.55049 13.0561L3.54648 13.0109C3.20606 9.17564 3.35858 4.88915 3.46973 2.80687ZM9.54665 14.8047C9.90452 14.6445 10.2922 14.5617 10.6843 14.5617C11.0764 14.5617 11.4641 14.6445 11.8219 14.8047C12.1798 14.9649 12.4998 15.1989 12.761 15.4913C13.1289 15.9032 13.761 15.9389 14.173 15.571C14.5849 15.2031 14.6206 14.571 14.2527 14.1591C13.8039 13.6566 13.254 13.2545 12.6391 12.9793C12.0241 12.704 11.358 12.5617 10.6843 12.5617C10.0106 12.5617 9.34443 12.704 8.7295 12.9793C8.11457 13.2545 7.56471 13.6566 7.11591 14.1591C6.74802 14.571 6.7837 15.2031 7.19561 15.571C7.60753 15.9389 8.23968 15.9032 8.60758 15.4913C8.86877 15.1989 9.18877 14.9649 9.54665 14.8047ZM20.9001 14.8047C21.258 14.6445 21.6456 14.5617 22.0377 14.5617C22.4298 14.5617 22.8175 14.6445 23.1754 14.8047C23.5332 14.9649 23.8532 15.1989 24.1144 15.4913C24.4823 15.9032 25.1145 15.9389 25.5264 15.571C25.9383 15.2031 25.974 14.571 25.6061 14.1591C25.1573 13.6566 24.6075 13.2545 23.9925 12.9793C23.3776 12.704 22.7115 12.5617 22.0377 12.5617C21.364 12.5617 20.6979 12.704 20.0829 12.9793C19.468 13.2545 18.9181 13.6566 18.4694 14.1591C18.1015 14.571 18.1371 15.2031 18.5491 15.571C18.961 15.9389 19.5931 15.9032 19.961 15.4913C20.2222 15.1989 20.5422 14.9649 20.9001 14.8047ZM11.3493 21.8408C11.6549 21.3807 12.2755 21.2555 12.7356 21.561C13.81 22.2746 15.0712 22.6552 16.361 22.6552C17.6508 22.6552 18.9119 22.2746 19.9864 21.561C20.4464 21.2555 21.0671 21.3807 21.3726 21.8408C21.6782 22.3009 21.5529 22.9215 21.0928 23.2271C19.6905 24.1584 18.0445 24.6552 16.361 24.6552C14.6775 24.6552 13.0315 24.1584 11.6291 23.2271C11.1691 22.9215 11.0438 22.3009 11.3493 21.8408Z" fill="#111827"/>
</svg>
