<svg width="33" height="32" viewBox="0 0 33 32" fill="none" xmlns="http://www.w3.org/2000/svg">
<path fill-rule="evenodd" clip-rule="evenodd" d="M31.3569 0.74193C31.2417 0.436315 30.9901 0.175815 30.6377 0.0739093C30.3397 -0.0122641 30.0822 0.0473821 29.9383 0.0974841L30.2082 0.872864L29.9383 0.0974857C25.6786 1.58057 14.6382 3.62243 3.6253 0.288236C2.64856 -0.00747371 1.5914 0.660041 1.52742 1.73833C1.41759 3.58943 1.19948 8.39054 1.58148 12.6944L1.59313 12.8257C1.83146 15.5156 2.24583 20.1923 4.11128 24.2262C5.06635 26.2915 6.42173 28.236 8.37028 29.664C10.3305 31.1006 12.8307 31.9698 15.988 31.9698C21.1264 31.9698 24.893 30.1671 27.4111 26.728C29.8813 23.3545 31.0566 18.5308 31.3637 12.6582C31.608 7.98491 31.6571 5.17017 31.6264 3.46913C31.6111 2.619 31.5757 2.03387 31.5323 1.62678C31.4907 1.2366 31.4365 0.953132 31.3569 0.74193ZM29.6267 3.50518C29.6177 3.00432 29.6016 2.61449 29.5824 2.31231C24.5681 3.80927 14.084 5.40836 3.49693 2.33618C3.38601 4.41527 3.23405 8.69141 3.57365 12.5175L3.57765 12.5626C3.81899 15.2821 4.20853 19.6716 5.92658 23.3868C6.78339 25.2396 7.95052 26.8768 9.55254 28.0509C11.1429 29.2164 13.2213 29.9698 15.988 29.9698C20.5968 29.9698 23.7155 28.3898 25.7975 25.5465C27.9274 22.6376 29.067 18.2794 29.3664 12.5537C29.6097 7.90066 29.6562 5.13871 29.6267 3.50518ZM8.83412 12.8257C8.46622 12.4138 7.83406 12.3781 7.42215 12.746C7.01024 13.1139 6.97455 13.746 7.34245 14.1579C7.78757 14.6563 8.33294 15.0551 8.94284 15.3281C9.55274 15.6011 10.2134 15.7422 10.8816 15.7422C11.5499 15.7422 12.2106 15.6011 12.8205 15.3281C13.4304 15.0551 13.9757 14.6563 14.4208 14.1579C14.7887 13.746 14.7531 13.1139 14.3411 12.746C13.9292 12.3781 13.2971 12.4138 12.9292 12.8257C12.6717 13.114 12.3562 13.3447 12.0033 13.5027C11.6505 13.6606 11.2682 13.7422 10.8816 13.7422C10.4951 13.7422 10.1128 13.6606 9.75999 13.5027C9.40714 13.3447 9.09163 13.114 8.83412 12.8257ZM20.0699 12.8257C19.702 12.4138 19.0698 12.3781 18.6579 12.746C18.246 13.1139 18.2103 13.746 18.5782 14.1579C19.0233 14.6563 19.5687 15.0551 20.1786 15.3281C20.7885 15.6011 21.4492 15.7422 22.1174 15.7422C22.7856 15.7422 23.4463 15.6011 24.0562 15.3281C24.6661 15.0551 25.2115 14.6563 25.6566 14.1579C26.0245 13.746 25.9888 13.1139 25.5769 12.746C25.165 12.3781 24.5328 12.4138 24.1649 12.8257C23.9074 13.114 23.5919 13.3447 23.2391 13.5027C22.8862 13.6606 22.504 13.7422 22.1174 13.7422C21.7308 13.7422 21.3486 13.6606 20.9957 13.5027C20.6429 13.3447 20.3274 13.114 20.0699 12.8257ZM11.8113 22.6463C13.2009 21.7234 14.8319 21.2312 16.5 21.2312C18.1681 21.2312 19.7991 21.7234 21.1886 22.6463C21.6487 22.9518 21.774 23.5725 21.4684 24.0325C21.1629 24.4926 20.5422 24.6179 20.0822 24.3123C19.0205 23.6073 17.7744 23.2312 16.5 23.2312C15.2255 23.2312 13.9794 23.6073 12.9178 24.3123C12.4577 24.6179 11.8371 24.4926 11.5315 24.0325C11.226 23.5725 11.3512 22.9518 11.8113 22.6463Z" fill="#111827"/>
</svg>
