<svg width="33" height="32" viewBox="0 0 33 32" fill="none" xmlns="http://www.w3.org/2000/svg">
<path fill-rule="evenodd" clip-rule="evenodd" d="M16.5 2.00073C11.1353 2.00073 6.78638 6.34966 6.78638 11.7143C6.78638 17.079 11.1353 21.428 16.5 21.428C21.8647 21.428 26.2136 17.079 26.2136 11.7143C26.2136 6.34966 21.8647 2.00073 16.5 2.00073ZM4.78638 11.7143C4.78638 5.24509 10.0307 0.000732422 16.5 0.000732422C22.9692 0.000732422 28.2136 5.24509 28.2136 11.7143C28.2136 15.3634 26.545 18.6228 23.9292 20.7711V30.9989C23.9292 31.3523 23.7426 31.6794 23.4385 31.8594C23.1344 32.0395 22.7579 32.0456 22.4481 31.8756L16.5308 28.6284L10.5494 31.8776C10.2395 32.0459 9.8639 32.0386 9.56083 31.8584C9.25776 31.6781 9.07204 31.3515 9.07204 30.9989V20.7721C6.4555 18.6238 4.78638 15.364 4.78638 11.7143ZM11.072 22.0971V29.3177L16.0559 26.6103C16.3549 26.4479 16.716 26.4487 17.0143 26.6124L21.9292 29.3095V22.0965C20.3062 22.9469 18.4593 23.428 16.5 23.428C14.5412 23.428 12.6947 22.9471 11.072 22.0971ZM16.5002 6.28615C13.5023 6.28615 11.072 8.71642 11.072 11.7143C11.072 14.7122 13.5023 17.1425 16.5002 17.1425C19.4981 17.1425 21.9284 14.7122 21.9284 11.7143C21.9284 8.71642 19.4981 6.28615 16.5002 6.28615ZM9.07204 11.7143C9.07204 7.61185 12.3977 4.28615 16.5002 4.28615C20.6027 4.28615 23.9284 7.61185 23.9284 11.7143C23.9284 15.8168 20.6027 19.1425 16.5002 19.1425C12.3977 19.1425 9.07204 15.8168 9.07204 11.7143Z" fill="#111827"/>
</svg>
