<svg width="32" height="32" viewBox="0 0 32 32" fill="none" xmlns="http://www.w3.org/2000/svg">
<path d="M15.9999 21.1429C20.7338 21.1429 24.5713 17.3053 24.5713 12.5714C24.5713 7.83756 20.7338 4 15.9999 4C11.266 4 7.42847 7.83756 7.42847 12.5714C7.42847 17.3053 11.266 21.1429 15.9999 21.1429Z" stroke="#1C1B1F" stroke-width="2" stroke-linecap="round" stroke-linejoin="round"/>
<path d="M15.9998 17.7142C18.8401 17.7142 21.1427 15.4116 21.1427 12.5713C21.1427 9.731 18.8401 7.42847 15.9998 7.42847C13.1595 7.42847 10.8569 9.731 10.8569 12.5713C10.8569 15.4116 13.1595 17.7142 15.9998 17.7142Z" stroke="#1C1B1F" stroke-width="2" stroke-linecap="round" stroke-linejoin="round"/>
<path d="M10.8569 19.4663V28.0001L16.0262 25.192L21.1433 28.0001V19.4663" stroke="#1C1B1F" stroke-width="2" stroke-linecap="round" stroke-linejoin="round"/>
</svg>
