<svg width="33" height="32" viewBox="0 0 33 32" fill="none" xmlns="http://www.w3.org/2000/svg">
<path fill-rule="evenodd" clip-rule="evenodd" d="M9.00025 8.96472C5.47453 8.96472 2.50073 12.0484 2.50073 15.9999C2.50073 19.9515 5.47453 23.0351 9.00025 23.0351C12.526 23.0351 15.4998 19.9515 15.4998 15.9999C15.4998 12.0484 12.526 8.96472 9.00025 8.96472ZM0.500732 15.9999C0.500732 11.076 4.24223 6.96472 9.00025 6.96472C13.7583 6.96472 17.4998 11.076 17.4998 15.9999C17.4998 20.9238 13.7583 25.0351 9.00025 25.0351C4.24223 25.0351 0.500732 20.9238 0.500732 15.9999ZM22.6454 11.0908C22.1288 12.2962 21.7849 14.0311 21.7849 15.9999C21.7849 17.9686 22.1288 19.7035 22.6454 20.9089C22.9045 21.5134 23.1873 21.9387 23.4504 22.1983C23.7091 22.4537 23.8934 22.4994 23.999 22.4994C24.1046 22.4994 24.2888 22.4537 24.5476 22.1983C24.8107 21.9387 25.0935 21.5134 25.3525 20.9089C25.8691 19.7035 26.2131 17.9686 26.2131 15.9999C26.2131 14.0311 25.8691 12.2962 25.3525 11.0908C25.0935 10.4864 24.8107 10.0611 24.5476 9.80146C24.2888 9.54607 24.1046 9.50037 23.999 9.50037C23.8934 9.50037 23.7091 9.54607 23.4504 9.80146C23.1873 10.0611 22.9045 10.4864 22.6454 11.0908ZM22.0455 8.37797C22.5558 7.87437 23.217 7.50037 23.999 7.50037C24.7809 7.50037 25.4422 7.87437 25.9525 8.37797C26.4585 8.87732 26.8682 9.55032 27.1908 10.303C27.8375 11.8119 28.2131 13.8268 28.2131 15.9999C28.2131 18.173 27.8375 20.1878 27.1908 21.6968C26.8682 22.4494 26.4585 23.1224 25.9525 23.6218C25.4422 24.1254 24.7809 24.4994 23.999 24.4994C23.217 24.4994 22.5558 24.1254 22.0455 23.6218C21.5395 23.1224 21.1297 22.4494 20.8071 21.6968C20.1605 20.1878 19.7849 18.173 19.7849 15.9999C19.7849 13.8268 20.1605 11.8119 20.8071 10.303C21.1297 9.55032 21.5395 8.87732 22.0455 8.37797ZM32.499 8.50037C32.499 7.94808 32.0513 7.50037 31.499 7.50037C30.9467 7.50037 30.499 7.94808 30.499 8.50037V23.4994C30.499 24.0517 30.9467 24.4994 31.499 24.4994C32.0513 24.4994 32.499 24.0517 32.499 23.4994V8.50037Z" fill="#111827"/>
</svg>
