<svg width="33" height="32" viewBox="0 0 33 32" fill="none" xmlns="http://www.w3.org/2000/svg">
<path fill-rule="evenodd" clip-rule="evenodd" d="M3.02779 1.8996C1.94854 1.21426 0.499756 1.97073 0.499756 3.2828V28.7158C0.499756 30.1242 2.13396 30.8485 3.19094 29.9857C6.13034 27.5863 8.57298 26.1032 11.2186 25.0576C13.6075 24.1135 16.1978 23.5113 19.5369 22.9358V28.1639C19.5369 28.7162 19.9846 29.1639 20.5369 29.1639H25.537C26.0893 29.1639 26.537 28.7162 26.537 28.1639V22.6533C28.5036 22.2135 29.9913 21.3656 30.9966 20.1383C32.0713 18.8263 32.5002 17.1958 32.5002 15.4635C32.5002 13.6281 31.7525 11.8396 30.5676 10.5083C29.3806 9.1747 27.6951 8.23755 25.7862 8.23755L25.7855 8.23755L20.6446 8.24151C13.6485 7.14634 9.6882 6.12911 3.02779 1.8996ZM25.9277 20.993C25.8786 20.9722 25.8274 20.9551 25.7746 20.9422L25.7432 20.7749C25.7732 20.7693 25.803 20.7636 25.8327 20.7577H25.9277V20.993ZM25.8327 20.7577H21.5416V21.7537L21.5416 21.7565V10.2408L25.7862 10.2375V9.23755L25.787 10.2375C27.0175 10.2378 28.1887 10.8437 29.0736 11.838C29.9608 12.8347 30.5002 14.1592 30.5002 15.4635C30.5002 16.8708 30.1549 18.0097 29.4494 18.871C28.757 19.7162 27.6264 20.4056 25.8327 20.7577ZM24.537 22.7577V27.1639H21.5369V22.7577H24.537ZM10.4835 23.1976C13.1445 22.146 15.9919 21.507 19.5416 20.9061L19.5416 10.0913C13.0226 9.03794 8.8863 7.90626 2.49976 3.93012V27.9746C5.31458 25.7404 7.78357 24.2647 10.4835 23.1976Z" fill="#111827"/>
</svg>
