<svg width="33" height="32" viewBox="0 0 33 32" fill="none" xmlns="http://www.w3.org/2000/svg">
<path fill-rule="evenodd" clip-rule="evenodd" d="M1.78062 2.3305C1.47846 2.24241 1.15246 2.30171 0.900686 2.49057C0.648908 2.67943 0.500732 2.9758 0.500732 3.29054V27.4454C0.500732 27.7601 0.648908 28.0565 0.900686 28.2453C1.15246 28.4342 1.47846 28.4935 1.78062 28.4054L20.4934 22.9498V28.7095C20.4934 29.2618 20.9411 29.7095 21.4934 29.7095H26.4909C27.0432 29.7095 27.4909 29.2618 27.4909 28.7095V21.2127C27.4909 21.1117 27.476 21.0142 27.4481 20.9222L31.7788 19.6597C32.2055 19.5353 32.4989 19.1441 32.4989 18.6996V12.0362C32.4989 11.5918 32.2055 11.2006 31.7788 11.0762L1.78062 2.3305ZM25.4909 21.4928L22.4934 22.3668V27.7095H25.4909V21.4928ZM22.4934 20.2835L30.4989 17.9496V12.7863L22.4934 10.4524V20.2835ZM20.4934 9.86931L2.50073 4.62371V26.1122L20.4934 20.8666V9.86931Z" fill="#111827"/>
</svg>
