<svg width="33" height="32" viewBox="0 0 33 32" fill="none" xmlns="http://www.w3.org/2000/svg">
<g clip-path="url(#clip0_304_243)">
<path fill-rule="evenodd" clip-rule="evenodd" d="M2.09579 0.595459H2.9499H9.97265H10.3576L10.6432 0.853585C10.9823 1.16012 11.4742 1.73108 11.9987 2.3802C12.5389 3.04882 13.1596 3.85815 13.7696 4.68434C14.8632 6.16548 15.9772 7.77419 16.517 8.7314C18.9614 4.77726 21.401 1.89271 22.3616 0.901843L22.6563 0.597897H23.0796H30.2341H31.091L31.2223 1.44473C32.8665 12.0527 32.5794 25.1295 32.2321 30.3472L32.17 31.2808H31.2343H24.026H22.7627L23.0527 30.0513C24.5899 23.5322 24.8867 15.0543 24.8407 11.4075C24.5825 11.8559 24.2979 12.4173 23.9948 13.0695C22.6026 16.0657 20.9633 20.6675 19.8756 24.0104L19.6509 24.701H18.9247H14.3409H13.6595L13.4102 24.0669C12.7904 22.4904 12.2316 21.056 11.7264 19.7594L11.7264 19.7592L11.7263 19.7592C10.136 15.6771 9.07807 12.9617 8.32491 11.4792L8.28915 11.4093C8.28014 11.4533 8.27106 11.4987 8.26192 11.5456C8.11682 12.29 8.08885 13.5055 8.16762 15.061C8.24519 16.593 8.42139 18.3776 8.64962 20.2191C9.10596 23.9011 9.76419 27.7622 10.2308 30.1895L10.4644 31.4049L9.22706 31.378L1.96487 31.2203L1.09529 31.2014L0.99346 30.3376C-0.240752 19.8681 1.12751 6.7106 1.96221 1.43907L2.09579 0.595459ZM3.80963 2.59546C3.01048 8.08111 1.90485 19.7013 2.88454 29.2398L8.03931 29.3518C7.59622 26.9244 7.05749 23.6335 6.6648 20.4651C6.43336 18.5976 6.25111 16.7607 6.17018 15.1622C6.09043 13.5872 6.10389 12.1633 6.29886 11.1629C6.40843 10.6008 6.5341 10.1005 6.69647 9.71344C6.77766 9.51988 6.88756 9.30635 7.04435 9.11942C7.20374 8.9294 7.45956 8.71189 7.82881 8.63805C8.20877 8.56208 8.53936 8.6716 8.77419 8.80972C8.99682 8.94068 9.17316 9.11816 9.30906 9.28017C9.58082 9.60415 9.84434 10.0544 10.108 10.5733C10.9098 12.1516 12.0229 15.0092 13.6309 19.1374L13.6315 19.1389C14.059 20.2365 14.5216 21.4239 15.0225 22.701H18.2004C19.2891 19.411 20.8328 15.1283 22.1811 12.2267C22.5433 11.4473 22.9002 10.7481 23.2389 10.1865C23.5566 9.65959 23.9262 9.13561 24.3409 8.82597C24.5505 8.66952 24.9089 8.46391 25.3645 8.50418C25.8729 8.54912 26.2054 8.8676 26.3887 9.15582C26.5607 9.4263 26.6554 9.74336 26.7152 10.0398C26.7777 10.3497 26.8162 10.712 26.8361 11.1207L26.8369 11.1364L26.8372 11.1521C26.8957 14.5249 26.6551 22.5979 25.271 29.2808H30.2931C30.5956 23.7913 30.7586 12.255 29.3722 2.5979H23.5127C22.4837 3.72503 20.3245 6.35994 18.1582 9.88027C18.08 10.0609 17.9727 10.2602 17.8335 10.4459C17.6806 10.6498 17.4249 10.9238 17.0452 11.0695C16.6016 11.2399 16.118 11.1846 15.7034 10.9102C15.3429 10.6718 15.0819 10.3017 14.8788 9.90578C14.5017 9.17043 13.375 7.5169 12.1607 5.87233C11.5632 5.06315 10.9606 4.27778 10.443 3.63718C10.0798 3.18762 9.77806 2.83422 9.55721 2.59546H3.80963ZM13.3901 27.9305C12.9901 27.9305 12.6659 28.2547 12.6659 28.6547C12.6659 29.0546 12.9901 29.3788 13.3901 29.3788C13.79 29.3788 14.1142 29.0546 14.1142 28.6547C14.1142 28.2547 13.79 27.9305 13.3901 27.9305ZM10.6659 28.6547C10.6659 27.1501 11.8856 25.9305 13.3901 25.9305C14.8946 25.9305 16.1142 27.1501 16.1142 28.6547C16.1142 30.1592 14.8946 31.3788 13.3901 31.3788C11.8856 31.3788 10.6659 30.1592 10.6659 28.6547ZM19.0329 28.6547C19.0329 28.2547 19.3571 27.9305 19.757 27.9305C20.157 27.9305 20.4812 28.2547 20.4812 28.6547C20.4812 29.0546 20.157 29.3788 19.757 29.3788C19.3571 29.3788 19.0329 29.0546 19.0329 28.6547ZM19.757 25.9305C18.2525 25.9305 17.0329 27.1501 17.0329 28.6547C17.0329 30.1592 18.2525 31.3788 19.757 31.3788C21.2615 31.3788 22.4812 30.1592 22.4812 28.6547C22.4812 27.1501 21.2615 25.9305 19.757 25.9305Z" fill="#111827"/>
</g>
<defs>
<clipPath id="clip0_304_243">
<rect width="32" height="32" fill="white" transform="translate(0.5)"/>
</clipPath>
</defs>
</svg>
