<svg width="33" height="32" viewBox="0 0 33 32" fill="none" xmlns="http://www.w3.org/2000/svg">
<path fill-rule="evenodd" clip-rule="evenodd" d="M7.9123 4.94425C10.6057 2.85212 13.9703 1.8152 17.3741 2.0282C20.778 2.24121 23.987 3.68948 26.3986 6.10108C28.8102 8.51267 30.2585 11.7217 30.4716 15.1255C30.6846 18.5294 29.6477 21.894 27.5555 24.5874C25.4634 27.2809 22.46 29.1179 19.1093 29.7536C15.7644 30.3882 12.3032 29.7821 9.3732 28.0492C9.13652 27.9029 8.84624 27.8603 8.57281 27.9384L3.39025 29.4191C3.3473 29.4314 3.30186 29.432 3.25862 29.4207C3.21538 29.4095 3.17593 29.387 3.14435 29.3554C3.11277 29.3238 3.0902 29.2844 3.079 29.2411C3.0678 29.1979 3.06836 29.1525 3.08063 29.1095L2.11911 28.8348L3.08063 29.1095L4.56136 23.9269C4.64068 23.6494 4.59477 23.3597 4.45016 23.1259C2.71752 20.1961 2.11158 16.7351 2.74611 13.3906C3.38181 10.0398 5.21886 7.03639 7.9123 4.94425ZM19.4821 31.7186C15.7957 32.418 11.9856 31.7988 8.7156 29.9776L3.93969 31.3422C3.5538 31.4524 3.14544 31.4575 2.75694 31.3568C2.36844 31.2561 2.01392 31.0534 1.73013 30.7696C1.44634 30.4858 1.24361 30.1313 1.14294 29.7428C1.04227 29.3543 1.04733 28.9459 1.15758 28.5601L2.52213 23.7841C0.700992 20.5142 0.0817829 16.7041 0.781158 13.0178C1.50769 9.18831 3.60719 5.7558 6.68543 3.36476C9.76367 0.973734 13.6089 -0.211329 17.4991 0.0321071C21.3892 0.275543 25.0567 1.93073 27.8128 4.68686C30.569 7.44299 32.2242 11.1105 32.4676 15.0006C32.7111 18.8908 31.5261 22.736 29.135 25.8143C26.744 28.8925 23.3115 30.992 19.4821 31.7186ZM14.7123 12.7858C14.3218 12.3952 13.6886 12.3952 13.2981 12.7858L8.29634 17.7875C7.90582 18.1781 7.90582 18.8112 8.29634 19.2018C8.68686 19.5923 9.32003 19.5923 9.71055 19.2018L14.0052 14.9071L18.2999 19.2018C18.6904 19.5923 19.3236 19.5923 19.7141 19.2018L24.7159 14.2C25.1064 13.8095 25.1064 13.1763 24.7159 12.7858C24.3254 12.3952 23.6922 12.3952 23.3017 12.7858L19.007 17.0804L14.7123 12.7858Z" fill="#111827"/>
</svg>
