<svg width="32" height="32" viewBox="0 0 32 32" fill="none" xmlns="http://www.w3.org/2000/svg">
<path d="M5.6793 22.1223C4.18776 19.6079 3.6654 16.6355 4.21033 13.7632C4.75526 10.891 6.32998 8.31645 8.63879 6.52308C10.9476 4.7297 13.8317 3.84085 16.7495 4.02344C19.6673 4.20603 22.418 5.44749 24.4853 7.51471C26.5525 9.58192 27.794 12.3327 27.9766 15.2505C28.1592 18.1683 27.2703 21.0523 25.477 23.3612C23.6836 25.67 21.1091 27.2447 18.2368 27.7897C15.3646 28.3346 12.3922 27.8123 9.87777 26.3207L9.8778 26.3206L5.7315 27.5053C5.55995 27.5543 5.37842 27.5565 5.20571 27.5118C5.033 27.467 4.87541 27.3769 4.74925 27.2507C4.62309 27.1246 4.53297 26.967 4.48822 26.7943C4.44347 26.6216 4.44571 26.44 4.49473 26.2685L5.67939 22.1222L5.6793 22.1223Z" stroke="#1C1B1F" stroke-width="2" stroke-linecap="round" stroke-linejoin="round"/>
<path d="M10.0024 17.9958L14.0041 13.9941L18.0058 17.9958L22.0074 13.9941" stroke="#1C1B1F" stroke-width="2" stroke-linecap="round" stroke-linejoin="round"/>
</svg>
