<svg width="33" height="32" viewBox="0 0 33 32" fill="none" xmlns="http://www.w3.org/2000/svg">
<g clip-path="url(#clip0_489_481)">
<path d="M3.91637 19.3594C3.91637 14.121 6.53559 8.65476 9.61032 8.65476C11.3185 8.65476 12.6851 9.67967 14.8488 12.7544C12.7989 15.943 11.5463 17.879 11.5463 17.879C8.81317 22.2064 7.90213 23.1174 6.42171 23.1174C4.94128 23.2313 3.91637 21.8647 3.91637 19.3594ZM21.7954 17.4234L19.8594 14.2348C19.4039 13.4377 18.8345 12.6405 18.379 11.9573C20.0872 9.33803 21.4537 7.97149 23.1619 7.97149C26.5783 7.97149 29.3114 13.096 29.3114 19.4733C29.3114 21.8647 28.5142 23.2313 26.9199 23.2313C25.3256 23.2313 24.7562 22.2064 21.7954 17.4234ZM16.8986 9.67967C14.3932 6.37718 12.2295 5.12451 9.7242 5.12451C4.48577 5.12451 0.5 12.0711 0.5 19.3594C0.5 23.9145 2.6637 26.7615 6.30783 26.7615C8.92705 26.7615 10.7491 25.5089 14.1655 19.5871C14.1655 19.5871 15.532 17.0818 16.5569 15.3736C16.8986 15.943 17.2402 16.5124 17.5819 17.1957L19.1762 19.9288C22.2509 25.1672 23.9591 26.8754 27.0338 26.8754C30.5641 26.8754 32.5 23.9145 32.5 19.2455C32.3861 11.5017 28.2865 5.12451 23.3897 5.12451C20.7705 5.12451 18.7206 7.17433 16.8986 9.67967Z" fill="black"/>
</g>
<defs>
<clipPath id="clip0_489_481">
<rect width="32" height="32" fill="white" transform="translate(0.5)"/>
</clipPath>
</defs>
</svg>
