<svg width="33" height="32" viewBox="0 0 33 32" fill="none" xmlns="http://www.w3.org/2000/svg">
<path fill-rule="evenodd" clip-rule="evenodd" d="M17.1017 0.600709L17.1003 0.600708L17.0995 0.600708C15.4712 0.600377 13.8431 0.858254 12.2774 1.37413C9.34655 2.33979 6.77732 4.16232 4.89861 6.60036H1.50098C0.948692 6.60036 0.500977 7.04807 0.500977 7.60036V24.3995C0.500977 24.9518 0.948692 25.3995 1.50098 25.3995H4.89856C6.77728 27.8375 9.34652 29.6601 12.2774 30.6258C15.373 31.6457 18.7123 31.6571 21.8147 30.6585C24.9172 29.6599 27.6228 27.7026 29.5421 25.0685C31.4444 22.4578 32.4771 19.3157 32.4953 16.087C32.4978 16.0584 32.4991 16.0293 32.4991 16C32.4991 15.9707 32.4978 15.9417 32.4953 15.9131C32.4771 12.6843 31.4444 9.54213 29.5421 6.9314C27.6228 4.29727 24.9172 2.34003 21.8147 1.34139C20.2822 0.848085 18.6919 0.601259 17.1017 0.600709ZM5.41456 8.60036C5.40483 8.6005 5.3951 8.6005 5.38536 8.60036H2.50098V23.3995H5.39042H5.4095H18.5V16.0261C18.4998 16.0175 18.4997 16.0088 18.4997 16C18.4997 15.9913 18.4998 15.9826 18.5 15.9739V8.60036H17.1082L17.1003 8.60039L17.0924 8.60036H5.41456ZM12.9033 28.7262C10.8693 28.0561 9.0355 26.9116 7.54705 25.3995H16.1003V29.3621C15.019 29.2815 13.9453 29.0695 12.9033 28.7262ZM18.1003 29.3615V25.3995H19.5C20.0523 25.3995 20.5 24.9518 20.5 24.3995V17H30.4582C30.2725 19.4813 29.3987 21.8691 27.9257 23.8907C26.2557 26.1827 23.9014 27.8858 21.2019 28.7547C20.1897 29.0805 19.1484 29.2828 18.1003 29.3615ZM30.4582 15H20.5V7.60036C20.5 7.04807 20.0523 6.60036 19.5 6.60036H18.1003V2.63837C19.1484 2.71711 20.1897 2.91936 21.2019 3.24519C23.9014 4.11413 26.2557 5.81717 27.9257 8.10919C29.3988 10.1308 30.2726 12.5187 30.4582 15ZM16.1003 2.63778V6.60036H7.5471C9.03555 5.08823 10.8693 3.94382 12.9033 3.27368C13.9453 2.93036 15.019 2.71837 16.1003 2.63778ZM8.12467 11.1974C7.5592 11.1974 7.10079 11.6558 7.10079 12.2212V17.1278V19.8024C7.10079 20.3547 7.5485 20.8024 8.10079 20.8024C8.65307 20.8024 9.10079 20.3547 9.10079 19.8024V18.1278H10.5007C12.3784 18.1278 13.9005 16.6056 13.9005 14.7279V14.6626C13.9005 12.7488 12.3491 11.1974 10.4353 11.1974H8.12467ZM10.5007 16.1278H9.10079V13.1974H10.4353C11.2445 13.1974 11.9005 13.8534 11.9005 14.6626V14.7279C11.9005 15.5011 11.2738 16.1278 10.5007 16.1278Z" fill="#111827"/>
</svg>
