<svg width="33" height="32" viewBox="0 0 33 32" fill="none" xmlns="http://www.w3.org/2000/svg">
<path fill-rule="evenodd" clip-rule="evenodd" d="M18.9997 0.000854492H30.249C30.8013 0.000854492 31.249 0.44857 31.249 1.00085V30.999C31.249 31.5513 30.8013 31.999 30.249 31.999H7.75042C7.19813 31.999 6.75042 31.5513 6.75042 30.999V25.7494H2.75073C2.19845 25.7494 1.75073 25.3017 1.75073 24.7494V7.25046C1.75073 6.69818 2.19845 6.25046 2.75073 6.25046H6.75042V1.00085C6.75042 0.44857 7.19813 0.000854492 7.75042 0.000854492H18.9997ZM8.75042 6.25046H17.9997V2.00085H8.75042V6.25046ZM19.9997 2.00085V6.25046H21.4996C22.0519 6.25046 22.4996 6.69818 22.4996 7.25046V10.0002H29.249V2.00085H19.9997ZM29.249 12.0002H22.4996V19.9996H29.249V12.0002ZM29.249 21.9996H22.4996V24.7494C22.4996 25.3017 22.0519 25.7494 21.4996 25.7494H19.9997V29.999H29.249V21.9996ZM17.9997 29.999V25.7494H8.75042V29.999H17.9997ZM3.75073 8.25046H18.9963L18.9997 8.25047L19.0031 8.25046H20.4996V10.9943L20.4996 11.0002L20.4996 11.0061V20.9937L20.4996 20.9996L20.4996 21.0055V23.7494H19.0056L18.9997 23.7494L18.9938 23.7494H3.75073V8.25046ZM8.71264 11.4501C9.15446 11.1188 9.78127 11.2083 10.1126 11.6501L12.125 14.3332L14.1373 11.6501C14.4687 11.2083 15.0955 11.1188 15.5373 11.4501C15.9791 11.7815 16.0687 12.4083 15.7373 12.8501L13.375 15.9999L15.7373 19.1497C16.0687 19.5915 15.9791 20.2183 15.5373 20.5497C15.0955 20.8811 14.4687 20.7915 14.1373 20.3497L12.125 17.6666L10.1126 20.3497C9.78127 20.7915 9.15446 20.8811 8.71264 20.5497C8.27081 20.2183 8.18127 19.5915 8.51264 19.1497L10.875 15.9999L8.51264 12.8501C8.18127 12.4083 8.27081 11.7815 8.71264 11.4501Z" fill="#111827"/>
</svg>
