<svg width="32" height="32" viewBox="0 0 32 32" fill="none" xmlns="http://www.w3.org/2000/svg">
<path d="M16.48 22.72V27.52" stroke="#1C1B1F" stroke-width="2" stroke-linecap="round" stroke-linejoin="round"/>
<path d="M16.48 4.47998V9.27998" stroke="#1C1B1F" stroke-width="2" stroke-linecap="round" stroke-linejoin="round"/>
<path d="M18.3999 16H27.9999" stroke="#1C1B1F" stroke-width="2" stroke-linecap="round" stroke-linejoin="round"/>
<path d="M7.12012 9.27998C8.54239 7.2996 10.5563 5.82155 12.8721 5.05857C15.1878 4.29558 17.6859 4.287 20.0068 5.03408C22.3277 5.78115 24.3518 7.24534 25.7876 9.2159C27.2234 11.1865 27.997 13.5618 27.997 16C27.997 18.4382 27.2234 20.8135 25.7876 22.7841C24.3518 24.7546 22.3277 26.2188 20.0068 26.9659C17.6859 27.713 15.1878 27.7044 12.8721 26.9414C10.5563 26.1784 8.54239 24.7004 7.12012 22.72" stroke="#1C1B1F" stroke-width="2" stroke-linecap="round" stroke-linejoin="round"/>
<rect x="4" y="9.28003" width="14.4" height="13.44" stroke="#1C1B1F" stroke-width="2" stroke-linejoin="round"/>
<path d="M9.28003 16.9023H11.2V16.9023C12.2604 16.9023 13.12 16.0427 13.12 14.9823V14.93C13.12 13.8408 12.237 12.9578 11.1477 12.9578H9.29913C9.28858 12.9578 9.28003 12.9663 9.28003 12.9769V19.0421" stroke="#1C1B1F" stroke-width="2" stroke-linecap="round"/>
</svg>
