<svg width="32" height="32" viewBox="0 0 32 32" fill="none" xmlns="http://www.w3.org/2000/svg">
<path d="M13.8402 13.6011H9.52051" stroke="#1C1B1F" stroke-width="2" stroke-linecap="round" stroke-linejoin="round"/>
<path d="M11.6804 19.3606V13.6011" stroke="#1C1B1F" stroke-width="2" stroke-linecap="round" stroke-linejoin="round"/>
<path d="M13.6363 9.76137C13.2562 9.1038 13.0796 8.34827 13.129 7.59034C13.1783 6.8324 13.4513 6.10613 13.9134 5.50338C14.3756 4.90063 15.0061 4.44848 15.7253 4.20413C16.4444 3.95978 17.2199 3.9342 17.9536 4.13064C18.6873 4.32707 19.3462 4.73669 19.8471 5.30768C20.348 5.87867 20.6682 6.58538 20.7674 7.33842C20.8665 8.09145 20.7401 8.85698 20.4042 9.53816C20.0682 10.2193 19.5377 10.7856 18.8799 11.1653" stroke="#1C1B1F" stroke-width="2" stroke-linecap="round" stroke-linejoin="round"/>
<path d="M20.5715 6.54576C21.0047 6.03319 21.5915 5.67394 22.245 5.52132C22.8985 5.36871 23.5837 5.43088 24.1991 5.69859C24.8144 5.96631 25.3271 6.42531 25.6609 7.00746C25.9947 7.5896 26.1319 8.26387 26.0521 8.93018C25.9724 9.59648 25.6799 10.2193 25.2181 10.7062C24.7563 11.1931 24.1498 11.5181 23.4886 11.633C22.8275 11.7479 22.1469 11.6466 21.5479 11.344C20.9489 11.0415 20.4635 10.5538 20.1636 9.9535" stroke="#1C1B1F" stroke-width="2" stroke-linecap="round" stroke-linejoin="round"/>
<rect x="4.48096" y="9.76147" width="14.3989" height="13.439" stroke="#1C1B1F" stroke-width="2" stroke-linejoin="round"/>
<path d="M10.5166 22.7204V22.7204C10.5166 25.6362 12.8804 28 15.7962 28H16.8177C20.2978 28 23.1189 25.1789 23.1189 21.6989V11.7625C23.1189 11.7176 23.0825 11.6813 23.0377 11.6813H18.8966" stroke="#1C1B1F" stroke-width="2"/>
<path d="M18.8799 11.6813H27.4619C27.4935 11.6813 27.5192 11.7069 27.5192 11.7386V18.8807C27.5192 21.2664 25.5852 23.2004 23.1995 23.2004V23.2004" stroke="#1C1B1F" stroke-width="2"/>
</svg>
