<svg width="33" height="32" viewBox="0 0 33 32" fill="none" xmlns="http://www.w3.org/2000/svg">
<path fill-rule="evenodd" clip-rule="evenodd" d="M16.4783 2.20284C17.1899 1.96105 17.9572 1.93575 18.6832 2.13012C19.4092 2.32449 20.0612 2.7298 20.5568 3.29479C20.8539 3.63356 21.0869 4.02061 21.2469 4.43688C21.2617 4.49333 21.2814 4.54867 21.3061 4.60216C21.3816 4.82946 21.4358 5.06445 21.4674 5.30418C21.5655 6.04929 21.4404 6.80677 21.108 7.4808C21.0673 7.56328 21.0238 7.64405 20.9774 7.723C20.8077 7.41271 20.4782 7.20227 20.0996 7.20227H14.1694C13.9624 6.68087 13.8725 6.11783 13.9093 5.55345C13.9581 4.80348 14.2282 4.08484 14.6855 3.48843C15.1428 2.89201 15.7667 2.44462 16.4783 2.20284ZM13.539 9.20227H13.5539H19.0996V9.9447C19.0994 9.95344 19.0994 9.96219 19.0996 9.97094V23.9999H3.10205V9.20227H13.539ZM12.0733 7.20227C11.9293 6.62428 11.8744 6.02442 11.9135 5.42356C11.988 4.27881 12.4003 3.18187 13.0983 2.2715C13.7964 1.36112 14.7487 0.678218 15.8349 0.30916C16.9211 -0.0598979 18.0923 -0.0985259 19.2004 0.198162C20.3086 0.49485 21.3038 1.11352 22.0603 1.97593C22.2305 2.16995 22.3869 2.37435 22.5288 2.58758C23.0004 2.28202 23.5242 2.05793 24.0784 1.92849C25.1047 1.68882 26.1809 1.78645 27.1473 2.20689C28.1136 2.62733 28.9187 3.34817 29.4429 4.26241C29.9672 5.17665 30.1826 6.23556 30.0574 7.28197C29.9565 8.12484 29.6388 8.92341 29.14 9.6018H30.8264C31.4182 9.6018 31.898 10.0816 31.898 10.6734V19.6006C31.898 22.9911 29.2611 25.7658 25.9262 25.9858C24.7352 29.4832 21.4224 31.999 17.522 31.999H16.2451C12.5972 31.999 9.54958 29.4285 8.81481 25.9999H2.10205C1.54977 25.9999 1.10205 25.5522 1.10205 24.9999V8.20227C1.10205 7.64999 1.54977 7.20227 2.10205 7.20227H12.0733ZM26.3631 23.9149C28.3789 23.5133 29.898 21.7343 29.898 19.6006V11.6018H26.398V23.123C26.398 23.3899 26.3862 23.654 26.3631 23.9149ZM24.398 11.6018H21.0996V24.9999C21.0996 25.5522 20.6518 25.9999 20.0996 25.9999H10.878C11.5664 28.3126 13.7089 29.999 16.2451 29.999H17.522C21.3195 29.999 24.398 26.9205 24.398 23.123V11.6018ZM23.4503 5.04307C23.4246 4.84832 23.3892 4.65562 23.3443 4.46565C23.6879 4.18132 24.0944 3.97857 24.5333 3.87608C25.1406 3.73425 25.7775 3.79203 26.3494 4.04084C26.9213 4.28965 27.3977 4.71624 27.7079 5.25728C28.0182 5.79832 28.1457 6.42497 28.0716 7.04423C27.9974 7.66348 27.7256 8.24233 27.2964 8.69485C26.8672 9.14736 26.3035 9.44943 25.6891 9.55622C25.0746 9.663 24.4421 9.5688 23.8854 9.28761C23.4826 9.08415 23.135 8.79064 22.8681 8.43255C22.8794 8.41028 22.8906 8.38792 22.9017 8.36548C23.4091 7.33665 23.6 6.18042 23.4503 5.04307ZM7.40127 13.0015C7.40127 12.4492 7.84899 12.0015 8.40127 12.0015H11.1008H13.8005C14.3528 12.0015 14.8005 12.4492 14.8005 13.0015C14.8005 13.5537 14.3528 14.0015 13.8005 14.0015H12.1008V20.2005C12.1008 20.7528 11.653 21.2005 11.1008 21.2005C10.5485 21.2005 10.1008 20.7528 10.1008 20.2005V14.0015H8.40127C7.84899 14.0015 7.40127 13.5537 7.40127 13.0015Z" fill="#111827"/>
</svg>
