<svg width="33" height="32" viewBox="0 0 33 32" fill="none" xmlns="http://www.w3.org/2000/svg">
<path fill-rule="evenodd" clip-rule="evenodd" d="M6.75042 1.00085C6.75042 0.44857 7.19814 0.000854492 7.75042 0.000854492H30.2491C30.8013 0.000854492 31.2491 0.44857 31.2491 1.00085V30.999C31.2491 31.5513 30.8013 31.999 30.2491 31.999H7.75042C7.19814 31.999 6.75042 31.5513 6.75042 30.999V25.7494H2.75073C2.19845 25.7494 1.75073 25.3017 1.75073 24.7494V7.25047C1.75073 6.69818 2.19845 6.25047 2.75073 6.25047H6.75042V1.00085ZM8.75042 29.999V25.7494H21.4996C22.0519 25.7494 22.4996 25.3017 22.4996 24.7494V21.9996H29.2491V29.999H8.75042ZM29.2491 12.0002V19.9996H22.4996V12.0002H29.2491ZM29.2491 2.00085V10.0002H22.4996V7.25047C22.4996 6.69818 22.0519 6.25047 21.4996 6.25047H8.75042V2.00085H29.2491ZM20.4996 10.9943V8.25047H3.75073V23.7494H20.4996V21.0055L20.4996 20.9996L20.4996 20.9937V11.0062L20.4996 11.0002L20.4996 10.9943ZM17.5184 12.6415C17.6641 12.1088 17.3504 11.5588 16.8177 11.413C16.285 11.2673 15.735 11.581 15.5893 12.1137L14.3171 16.7638L12.9227 13.491C12.766 13.1231 12.4052 12.8839 12.0053 12.8829C11.6054 12.8819 11.2433 13.1192 11.0847 13.4864L9.72693 16.6297L8.66996 12.148C8.54318 11.6105 8.00465 11.2775 7.46711 11.4043C6.92958 11.5311 6.59659 12.0696 6.72336 12.6071L8.47375 20.0289C8.57273 20.4485 8.92957 20.7575 9.35908 20.7954C9.7886 20.8334 10.1941 20.5917 10.3651 20.1959L11.9964 16.4194L13.6034 20.1913C13.7702 20.5828 14.1665 20.8259 14.5911 20.797C15.0158 20.7682 15.3756 20.4737 15.4879 20.0632L17.5184 12.6415Z" fill="#111827"/>
</svg>
