<svg width="33" height="33" viewBox="0 0 33 33" fill="none" xmlns="http://www.w3.org/2000/svg">
<path fill-rule="evenodd" clip-rule="evenodd" d="M22.3438 2.92017C20.349 2.92017 18.5214 3.63641 17.1043 4.82577L28.5932 16.3147C29.7826 14.8976 30.4988 13.07 30.4988 11.0752C30.4988 6.5713 26.8477 2.92017 22.3438 2.92017ZM14.9545 4.0902C14.9888 4.05593 15.0249 4.02467 15.0626 3.99641C16.9077 2.09892 19.4881 0.920166 22.3438 0.920166C27.9523 0.920166 32.4988 5.46673 32.4988 11.0752C32.4988 13.9308 31.3202 16.5111 29.4228 18.3561C29.3945 18.3939 29.3632 18.4302 29.3288 18.4645C29.2793 18.5141 29.2258 18.5574 29.1694 18.5943C27.3663 20.2321 24.9716 21.2302 22.3438 21.2302C21.8677 21.2302 21.3992 21.1975 20.9405 21.1341L5.21635 31.9045C4.81918 32.1766 4.28454 32.127 3.94413 31.7866L0.793999 28.6365C0.437295 28.2798 0.402125 27.7133 0.711969 27.3152L12.2812 12.4511C12.2203 12.0012 12.1888 11.5419 12.1888 11.0752C12.1888 8.44729 13.187 6.05252 14.8249 4.24937C14.8618 4.19308 14.905 4.13969 14.9545 4.0902ZM12.9254 14.8796L2.83265 27.8467L4.77119 29.7853L18.4127 20.4413C15.9234 19.3953 13.9388 17.3858 12.9254 14.8796ZM22.3438 19.2302C24.1317 19.2302 25.7852 18.6549 27.1293 17.6792L15.7398 6.28968C14.7641 7.63377 14.1888 9.28729 14.1888 11.0752C14.1888 15.5791 17.8399 19.2302 22.3438 19.2302ZM13.1214 21.7119C13.5119 21.3213 13.5119 20.6882 13.1214 20.2976C12.7309 19.9071 12.0977 19.9071 11.7072 20.2976L9.99059 22.0142C9.60007 22.4047 9.60007 23.0379 9.99059 23.4284C10.3811 23.8189 11.0143 23.8189 11.4048 23.4284L13.1214 21.7119Z" fill="#111827"/>
</svg>
