<svg width="32" height="33" viewBox="0 0 32 33" fill="none" xmlns="http://www.w3.org/2000/svg">
<path d="M16 24.9443V28.4999" stroke="#1C1B1F" stroke-width="2" stroke-linecap="round" stroke-linejoin="round"/>
<path d="M7.11108 7.16675L24.8889 26.7223" stroke="#1C1B1F" stroke-width="2" stroke-linecap="round" stroke-linejoin="round"/>
<path d="M16 24.3291V27.6112" stroke="#1C1B1F" stroke-width="2" stroke-linecap="round" stroke-linejoin="round"/>
<path d="M23.3395 17.7649C23.2423 18.6331 22.9929 19.4695 22.6096 20.2385M20.9233 22.4486C19.5693 23.6595 17.8165 24.329 15.9999 24.329C14.1834 24.329 12.4306 23.6595 11.0766 22.4486C9.72262 21.2376 8.8624 19.5701 8.6604 17.7649" stroke="#1C1B1F" stroke-width="2" stroke-linecap="round" stroke-linejoin="round"/>
<path d="M11.8975 8.67103V8.60256C11.8975 6.33678 13.7342 4.5 16 4.5V4.5C18.2658 4.5 20.1026 6.33678 20.1026 8.60256V16.2508M11.8975 12.4738V17.047C11.8975 19.2561 13.6883 21.047 15.8975 21.047H19.4809" stroke="#1C1B1F" stroke-width="2" stroke-linecap="round" stroke-linejoin="round"/>
</svg>
