<svg width="33" height="33" viewBox="0 0 33 33" fill="none" xmlns="http://www.w3.org/2000/svg">
<path fill-rule="evenodd" clip-rule="evenodd" d="M10.0765 6.92897H22.9232C22.9267 6.92895 22.9302 6.92895 22.9337 6.92897H31.4989C32.0512 6.92897 32.4989 7.37668 32.4989 7.92897V15.4168C32.499 15.4249 32.499 15.4329 32.4989 15.441V17.5589C32.499 17.5669 32.499 17.5749 32.4989 17.583V25.0708C32.4989 25.6231 32.0512 26.0708 31.4989 26.0708H22.9435C22.9335 26.0709 22.9234 26.0709 22.9134 26.0708H10.0863C10.0763 26.0709 10.0662 26.0709 10.0562 26.0708H1.50075C0.948461 26.0708 0.500746 25.6231 0.500746 25.0708V17.5762C0.500728 17.5727 0.500728 17.5692 0.500746 17.5657V15.4342C0.500728 15.4307 0.500728 15.4272 0.500746 15.4237V7.92897C0.500746 7.37668 0.948461 6.92897 1.50075 6.92897H10.066C10.0695 6.92895 10.073 6.92895 10.0765 6.92897ZM2.50075 15.8823V17.1176L10.4473 24.0708H22.5524L30.4989 17.1176V15.8822L22.5523 8.92897H10.4474L2.50075 15.8823ZM7.4102 8.92897L2.50075 13.2247V8.92897H7.4102ZM25.5895 8.92897L30.4989 13.2247V8.92897H25.5895ZM30.4989 19.7752L25.5896 24.0708H30.4989V19.7752ZM7.41008 24.0708L2.50075 19.7751V24.0708H7.41008ZM13.2144 16.4998C13.2144 14.6853 14.6853 13.2144 16.4999 13.2144C18.3144 13.2144 19.7853 14.6853 19.7853 16.4998C19.7853 18.3143 18.3144 19.7853 16.4999 19.7853C14.6853 19.7853 13.2144 18.3143 13.2144 16.4998ZM16.4999 11.2144C13.5808 11.2144 11.2144 13.5808 11.2144 16.4998C11.2144 19.4189 13.5808 21.7853 16.4999 21.7853C19.4189 21.7853 21.7853 19.4189 21.7853 16.4998C21.7853 13.5808 19.4189 11.2144 16.4999 11.2144Z" fill="#111827"/>
</svg>
