<svg width="33" height="32" viewBox="0 0 33 32" fill="none" xmlns="http://www.w3.org/2000/svg">
<path d="M14.402 4.34048C15.4164 2.83914 16.276 1.3378 16.4651 1.01609C16.4823 0.994638 16.5167 0.994638 16.5339 1.01609C16.7058 1.3378 17.5827 2.83914 18.597 4.34048C27.262 18.1314 17.2388 27.4397 17.2388 27.4397L17.1528 27.504C17.0841 28.941 16.895 31 16.895 31H16.5167H16.1385C16.1385 31 15.9494 28.941 15.8806 27.504L15.7946 27.4182C15.7603 27.4397 5.73704 18.1314 14.402 4.34048ZM16.4995 27.2252C16.4995 27.2252 16.9465 26.7534 17.0669 26.496V26.4745L16.5167 11.4611C16.5167 11.4182 16.4651 11.4182 16.4651 11.4611L15.915 26.4745V26.496C16.0353 26.7534 16.4995 27.2252 16.4995 27.2252Z" stroke="#111827"/>
</svg>
