<svg width="32" height="33" viewBox="0 0 32 33" fill="none" xmlns="http://www.w3.org/2000/svg">
<path d="M13.7619 7.63943C14.8439 6.43835 15.7608 5.23728 15.9626 4.97991C15.9809 4.96275 16.0176 4.96275 16.0359 4.97991C16.2193 5.23728 17.1546 6.43835 18.2366 7.63943C27.4792 18.6721 16.7878 26.1188 16.7878 26.1188L16.6961 26.1703C16.6228 27.3199 16.421 28.967 16.421 28.967H16.0176H15.6141C15.6141 28.967 15.4124 27.3199 15.3391 26.1703L15.2474 26.1016C15.2107 26.1188 4.51927 18.6721 13.7619 7.63943ZM15.9993 25.9472C15.9993 25.9472 16.4761 25.5697 16.6044 25.3638V25.3467L16.0176 13.3359C16.0176 13.3016 15.9626 13.3016 15.9626 13.3359L15.3757 25.3467V25.3638C15.5041 25.5697 15.9993 25.9472 15.9993 25.9472Z" stroke="#1C1B1F" stroke-width="2"/>
</svg>
