<svg width="33" height="32" viewBox="0 0 33 32" fill="none" xmlns="http://www.w3.org/2000/svg">
<path fill-rule="evenodd" clip-rule="evenodd" d="M1.50092 1.25085C0.948631 1.25085 0.500916 1.69857 0.500916 2.25085V24.7495C0.500916 25.3018 0.948631 25.7495 1.50092 25.7495H31.4991C32.0514 25.7495 32.4991 25.3018 32.4991 24.7495V2.25085C32.4991 1.69857 32.0514 1.25085 31.4991 1.25085H1.50092ZM2.50092 23.7495V3.25085H30.4991V23.7495H2.50092ZM11.8483 7.84032C12.1577 7.66168 12.5389 7.66168 12.8483 7.84032L21.1517 12.6343C21.4611 12.8129 21.6517 13.143 21.6517 13.5003C21.6517 13.8575 21.4611 14.1877 21.1517 14.3663L12.8483 19.1602C12.5389 19.3389 12.1577 19.3389 11.8483 19.1602C11.5389 18.9816 11.3483 18.6515 11.3483 18.2942V8.70634C11.3483 8.34908 11.5389 8.01895 11.8483 7.84032ZM13.3483 10.4384V16.5622L18.6517 13.5003L13.3483 10.4384ZM10.5003 29.7491C10.5003 29.1969 10.948 28.7491 11.5003 28.7491H21.4997C22.052 28.7491 22.4997 29.1969 22.4997 29.7491C22.4997 30.3014 22.052 30.7491 21.4997 30.7491H11.5003C10.948 30.7491 10.5003 30.3014 10.5003 29.7491Z" fill="#111827"/>
</svg>
