<svg width="32" height="33" viewBox="0 0 32 33" fill="none" xmlns="http://www.w3.org/2000/svg">
<path d="M28 12.5027H22.351" stroke="#1C1B1F" stroke-width="2" stroke-linecap="round" stroke-linejoin="round"/>
<path d="M19.5266 4.9707V8.73669" stroke="#1C1B1F" stroke-width="2" stroke-linecap="round" stroke-linejoin="round"/>
<path d="M21.4095 6.85364H17.6436" stroke="#1C1B1F" stroke-width="2" stroke-linecap="round" stroke-linejoin="round"/>
<path d="M25.2579 20.1053C23.4094 20.6236 21.4563 20.6406 19.5991 20.1545C17.7419 19.6684 16.0475 18.6967 14.6901 17.3392C13.3326 15.9817 12.3609 14.2874 11.8748 12.4302C11.3886 10.573 11.4056 8.61984 11.924 6.77136C10.1015 7.27861 8.44382 8.25448 7.11592 9.60177C5.78802 10.9491 4.83628 12.6208 4.35551 14.4504C3.87474 16.2799 3.88171 18.2036 4.37573 20.0296C4.86975 21.8557 5.83358 23.5204 7.17122 24.8581C8.50885 26.1957 10.1736 27.1595 11.9997 27.6536C13.8257 28.1476 15.7493 28.1545 17.5789 27.6738C19.4085 27.193 21.0802 26.2413 22.4275 24.9134C23.7748 23.5855 24.7507 21.9277 25.2579 20.1053Z" stroke="#1C1B1F" stroke-width="2" stroke-linecap="round" stroke-linejoin="round"/>
</svg>
