<svg width="33" height="33" viewBox="0 0 33 33" fill="none" xmlns="http://www.w3.org/2000/svg">
<path d="M31.5 20.3174C28.8914 21.0489 26.135 21.0729 23.5141 20.3868C20.8931 19.7008 18.502 18.3295 16.5862 16.4138C14.6705 14.498 13.2992 12.1069 12.6132 9.48594C11.9271 6.86497 11.9511 4.10864 12.6826 1.5C10.1107 2.21584 7.7713 3.59303 5.89731 5.49439C4.02332 7.39574 2.68019 9.75491 2.00171 12.3369C1.32322 14.9189 1.33306 17.6336 2.03024 20.2106C2.72743 22.7876 4.08762 25.1369 5.97534 27.0247C7.86307 28.9124 10.2124 30.2726 12.7894 30.9698C15.3664 31.6669 18.0811 31.6768 20.6631 30.9983C23.2451 30.3198 25.6043 28.9767 27.5056 27.1027C29.407 25.2287 30.7842 22.8893 31.5 20.3174Z" stroke="#111827" stroke-width="2" stroke-linecap="round" stroke-linejoin="round"/>
</svg>
