<svg width="33" height="33" viewBox="0 0 33 33" fill="none" xmlns="http://www.w3.org/2000/svg">
<path fill-rule="evenodd" clip-rule="evenodd" d="M21.9079 2.08911C21.9079 1.53683 21.4602 1.08911 20.9079 1.08911C20.3557 1.08911 19.9079 1.53683 19.9079 2.08911V3.44283H18.5543C18.002 3.44283 17.5543 3.89054 17.5543 4.44283C17.5543 4.99511 18.002 5.44283 18.5543 5.44283H19.9079V6.79631C19.9079 7.34859 20.3557 7.79631 20.9079 7.79631C21.4602 7.79631 21.9079 7.34859 21.9079 6.79631V5.44283H23.2615C23.8138 5.44283 24.2615 4.99511 24.2615 4.44283C24.2615 3.89054 23.8138 3.44283 23.2615 3.44283H21.9079V2.08911ZM24.4383 10.5035C23.886 10.5035 23.4383 10.9512 23.4383 11.5035C23.4383 12.0558 23.886 12.5035 24.4383 12.5035H31.4991C32.0513 12.5035 32.4991 12.0558 32.4991 11.5035C32.4991 10.9512 32.0513 10.5035 31.4991 10.5035H24.4383ZM12.3681 4.60995C12.4656 4.26229 12.3681 3.88908 12.1131 3.63352C11.858 3.37797 11.485 3.27975 11.1371 3.37657C8.69092 4.05744 6.46579 5.36733 4.68337 7.17579C2.90094 8.98424 1.62344 11.2281 0.978108 13.684C0.332775 16.1398 0.342134 18.7218 1.00525 21.1729C1.66837 23.624 2.9621 25.8586 4.75759 27.6541C6.55307 29.4495 8.78764 30.7433 11.2387 31.4064C13.6898 32.0695 16.2719 32.0789 18.7277 31.4335C21.1835 30.7882 23.4274 29.5107 25.2359 27.7283C27.0443 25.9459 28.3542 23.7207 29.0351 21.2745C29.1319 20.9267 29.0337 20.5536 28.7781 20.2986C28.5226 20.0435 28.1493 19.946 27.8017 20.0435C25.6621 20.6435 23.4015 20.6631 21.2518 20.1005C19.1022 19.5378 17.141 18.4131 15.5698 16.8419C13.9985 15.2706 12.8738 13.3095 12.3112 11.1598C11.7485 9.01017 11.7682 6.74949 12.3681 4.60995ZM6.10779 8.57971C7.24224 7.4287 8.58463 6.51188 10.0581 5.87446C9.77447 7.8006 9.88019 9.77065 10.3764 11.6663C11.0289 14.1593 12.3333 16.4338 14.1556 18.2561C15.9778 20.0783 18.2523 21.3827 20.7454 22.0353C22.641 22.5315 24.611 22.6372 26.5372 22.3535C25.8998 23.827 24.9829 25.1694 23.8319 26.3038C22.2724 27.841 20.3373 28.9427 18.2194 29.4992C16.1015 30.0557 13.8748 30.0477 11.761 29.4758C9.64726 28.9039 7.7202 27.7882 6.1718 26.2398C4.6234 24.6914 3.50771 22.7644 2.93585 20.6506C2.36398 18.5368 2.35591 16.3101 2.91244 14.1923C3.46896 12.0744 4.57066 10.1393 6.10779 8.57971Z" fill="#111827"/>
</svg>
