<svg width="32" height="33" viewBox="0 0 32 33" fill="none" xmlns="http://www.w3.org/2000/svg">
<path d="M28 19.5539C25.9131 20.1391 23.708 20.1583 21.6112 19.6095C19.5145 19.0606 17.6016 17.9636 16.069 16.431C14.5364 14.8984 13.4394 12.9855 12.8905 10.8888C12.3417 8.79198 12.3609 6.58691 12.9461 4.5C10.8886 5.07268 9.01704 6.17443 7.51785 7.69551C6.01866 9.2166 4.94415 11.1039 4.40137 13.1695C3.85858 15.2351 3.86645 17.4069 4.4242 19.4685C4.98194 21.5301 6.0701 23.4095 7.58027 24.9197C9.09045 26.4299 10.9699 27.5181 13.0315 28.0758C15.0931 28.6336 17.2649 28.6414 19.3305 28.0986C21.3961 27.5558 23.2834 26.4813 24.8045 24.9822C26.3256 23.483 27.4273 21.6114 28 19.5539Z" stroke="#1C1B1F" stroke-width="2" stroke-linecap="round" stroke-linejoin="round"/>
</svg>
