<svg width="33" height="33" viewBox="0 0 33 33" fill="none" xmlns="http://www.w3.org/2000/svg">
<path fill-rule="evenodd" clip-rule="evenodd" d="M19.788 8.36473C19.788 7.51298 20.4784 6.82251 21.3302 6.82251C22.1819 6.82251 22.8724 7.51298 22.8724 8.36473C22.8724 9.21647 22.1819 9.90694 21.3302 9.90694C20.4784 9.90694 19.788 9.21647 19.788 8.36473ZM21.3302 4.82251C19.3739 4.82251 17.788 6.40841 17.788 8.36473C17.788 10.321 19.3739 11.9069 21.3302 11.9069C23.2865 11.9069 24.8724 10.321 24.8724 8.36473C24.8724 6.40841 23.2865 4.82251 21.3302 4.82251ZM3.30516 26.1773L7.77511 19.0253H15.5645L20.0344 26.1773H3.30516ZM11.6698 12.7938L9.0251 17.0253H14.3145L11.6698 12.7938ZM11.6698 9.90699C12.0146 9.90699 12.335 10.0846 12.5178 10.377L18.704 20.275L22.6862 13.9034C22.8689 13.611 23.1894 13.4334 23.5342 13.4334C23.879 13.4334 24.1994 13.611 24.3822 13.9034L32.3471 26.6474C32.5398 26.9556 32.55 27.3442 32.3737 27.6621C32.1975 27.9801 31.8626 28.1774 31.4991 28.1774H21.9197C21.9057 28.1774 21.8918 28.1771 21.8779 28.1765C21.8649 28.177 21.8518 28.1773 21.8386 28.1773H1.50092C1.13739 28.1773 0.8025 27.98 0.626274 27.6621C0.450048 27.3441 0.460249 26.9556 0.652916 26.6473L10.8218 10.377C11.0045 10.0846 11.325 9.90699 11.6698 9.90699ZM22.393 26.1774H29.6948L23.5342 16.3202L19.8832 22.1618L22.393 26.1774Z" fill="#111827"/>
</svg>
