<svg width="33" height="32" viewBox="0 0 33 32" fill="none" xmlns="http://www.w3.org/2000/svg">
<path fill-rule="evenodd" clip-rule="evenodd" d="M16.5 0.000854492C10.2966 0.000854492 5.2677 5.02971 5.2677 11.2331V20.7667C5.2677 26.9702 10.2966 31.999 16.5 31.999C22.7034 31.999 27.7322 26.9702 27.7322 20.7668V11.2331C27.7322 5.02971 22.7034 0.000854492 16.5 0.000854492ZM7.2677 11.2331C7.2677 6.13428 11.4011 2.00085 16.5 2.00085C21.5988 2.00085 25.7322 6.13428 25.7322 11.2331V20.7668C25.7322 25.8656 21.5988 29.999 16.5 29.999C11.4011 29.999 7.2677 25.8656 7.2677 20.7667V11.2331ZM17.5 5.16042C17.5 4.60814 17.0523 4.16042 16.5 4.16042C15.9477 4.16042 15.5 4.60813 15.5 5.16042L15.5 9.3403C15.5 9.89258 15.9477 10.3403 16.5 10.3403C17.0523 10.3403 17.5 9.89258 17.5 9.3403L17.5 5.16042Z" fill="#111827"/>
</svg>
