<svg width="33" height="32" viewBox="0 0 33 32" fill="none" xmlns="http://www.w3.org/2000/svg">
<path fill-rule="evenodd" clip-rule="evenodd" d="M16.5 0.000854492C10.2966 0.000854492 5.2677 5.02971 5.2677 11.2331V13.5001V20.7667C5.2677 26.9702 10.2966 31.999 16.5 31.999C22.7034 31.999 27.7322 26.9702 27.7322 20.7668V11.2331C27.7322 5.02971 22.7034 0.000854492 16.5 0.000854492ZM7.2677 14.5001V20.7667C7.2677 25.8656 11.4011 29.999 16.5 29.999C21.5988 29.999 25.7322 25.8656 25.7322 20.7668V14.5001H7.2677ZM25.7322 12.5001H7.2677V11.2331C7.2677 6.13428 11.4011 2.00085 16.5 2.00085C21.5988 2.00085 25.7322 6.13428 25.7322 11.2331V12.5001ZM16.5 4.16042C17.0522 4.16042 17.5 4.60814 17.5 5.16042L17.5 9.3403C17.5 9.89258 17.0522 10.3403 16.5 10.3403C15.9477 10.3403 15.5 9.89258 15.5 9.3403L15.5 5.16042C15.5 4.60813 15.9477 4.16042 16.5 4.16042Z" fill="#111827"/>
</svg>
