<svg width="33" height="32" viewBox="0 0 33 32" fill="none" xmlns="http://www.w3.org/2000/svg">
<path fill-rule="evenodd" clip-rule="evenodd" d="M1.50038 0.000366211C0.948097 0.000366211 0.500381 0.448081 0.500381 1.00037V2.87532C0.500381 3.4276 0.948097 3.87532 1.50038 3.87532C2.05267 3.87532 2.50038 3.4276 2.50038 2.87532V2.00037H3.37533C3.92762 2.00037 4.37533 1.55265 4.37533 1.00037C4.37533 0.448081 3.92762 0.000366211 3.37533 0.000366211H1.50038ZM7.12524 0.000366211C6.57295 0.000366211 6.12524 0.448081 6.12524 1.00037C6.12524 1.55265 6.57295 2.00037 7.12524 2.00037H10.8751C11.4274 2.00037 11.8751 1.55265 11.8751 1.00037C11.8751 0.448081 11.4274 0.000366211 10.8751 0.000366211H7.12524ZM14.625 0.000366211C14.0728 0.000366211 13.625 0.448081 13.625 1.00037C13.625 1.55265 14.0728 2.00037 14.625 2.00037H18.375C18.9272 2.00037 19.375 1.55265 19.375 1.00037C19.375 0.448081 18.9272 0.000366211 18.375 0.000366211H14.625ZM22.1249 0.000366211C21.5726 0.000366211 21.1249 0.448081 21.1249 1.00037C21.1249 1.55265 21.5726 2.00037 22.1249 2.00037H25.8748C26.427 2.00037 26.8748 1.55265 26.8748 1.00037C26.8748 0.448081 26.427 0.000366211 25.8748 0.000366211H22.1249ZM29.6247 0.000366211C29.0724 0.000366211 28.6247 0.448081 28.6247 1.00037C28.6247 1.55265 29.0724 2.00037 29.6247 2.00037H30.4996V2.73267C30.4996 3.28496 30.9473 3.73267 31.4996 3.73267C32.0519 3.73267 32.4996 3.28496 32.4996 2.73267V1.00037C32.4996 0.448081 32.0519 0.000366211 31.4996 0.000366211H29.6247ZM32.4996 6.19729C32.4996 5.645 32.0519 5.19729 31.4996 5.19729C30.9473 5.19729 30.4996 5.645 30.4996 6.19729V9.6619C30.4996 10.2142 30.9473 10.6619 31.4996 10.6619C32.0519 10.6619 32.4996 10.2142 32.4996 9.6619V6.19729ZM2.50038 6.62522C2.50038 6.07294 2.05267 5.62522 1.50038 5.62522C0.948097 5.62522 0.500381 6.07294 0.500381 6.62522V10.3751C0.500381 10.9274 0.948097 11.3751 1.50038 11.3751C2.05267 11.3751 2.50038 10.9274 2.50038 10.3751V6.62522ZM32.4996 13.1265C32.4996 12.5742 32.0519 12.1265 31.4996 12.1265C30.9473 12.1265 30.4996 12.5742 30.4996 13.1265V14.8588C30.4996 15.4111 30.9473 15.8588 31.4996 15.8588C32.0519 15.8588 32.4996 15.4111 32.4996 14.8588V13.1265ZM2.50038 14.125C2.50038 13.5727 2.05267 13.125 1.50038 13.125C0.948097 13.125 0.500381 13.5727 0.500381 14.125V17.8749C0.500381 18.4272 0.948097 18.8749 1.50038 18.8749C2.05267 18.8749 2.50038 18.4272 2.50038 17.8749V14.125ZM2.50038 21.6248C2.50038 21.0726 2.05267 20.6248 1.50038 20.6248C0.948097 20.6248 0.500381 21.0726 0.500381 21.6248V25.3747C0.500381 25.927 0.948097 26.3747 1.50038 26.3747C2.05267 26.3747 2.50038 25.927 2.50038 25.3747V21.6248ZM2.50038 29.1246C2.50038 28.5724 2.05267 28.1246 1.50038 28.1246C0.948097 28.1246 0.500381 28.5724 0.500381 29.1246V30.9996C0.500381 31.5519 0.948097 31.9996 1.50038 31.9996H3.28497C3.83725 31.9996 4.28497 31.5519 4.28497 30.9996C4.28497 30.4473 3.83725 29.9996 3.28497 29.9996H2.50038V29.1246ZM6.85414 29.9996C6.30186 29.9996 5.85414 30.4473 5.85414 30.9996C5.85414 31.5519 6.30186 31.9996 6.85414 31.9996H10.4233C10.9756 31.9996 11.4233 31.5519 11.4233 30.9996C11.4233 30.4473 10.9756 29.9996 10.4233 29.9996H6.85414ZM13.9925 29.9996C13.4402 29.9996 12.9925 30.4473 12.9925 30.9996C12.9925 31.5519 13.4402 31.9996 13.9925 31.9996H15.7771C16.3294 31.9996 16.7771 31.5519 16.7771 30.9996C16.7771 30.4473 16.3294 29.9996 15.7771 29.9996H13.9925ZM15.5031 16.2881C15.397 15.9356 15.4932 15.5534 15.7534 15.2931C16.0135 15.0327 16.3957 14.9364 16.7482 15.0422L31.7871 19.5568C32.1841 19.6759 32.4664 20.0276 32.4969 20.4409C32.5274 20.8542 32.2999 21.2435 31.9247 21.4197L25.1008 24.6247L21.8769 31.4279C21.6997 31.8017 21.3107 32.0279 20.8982 31.9968C20.4856 31.9658 20.1348 31.6839 20.0156 31.2877L15.5031 16.2881ZM23.9258 22.967L28.7084 20.7207L17.9539 17.4923L21.1823 28.2233L23.4472 23.4439C23.5466 23.2342 23.7157 23.0656 23.9258 22.967Z" fill="#111827"/>
</svg>
