<svg width="32" height="32" viewBox="0 0 32 32" fill="none" xmlns="http://www.w3.org/2000/svg">
<path fill-rule="evenodd" clip-rule="evenodd" d="M20.7287 2.11182C20.7287 1.28339 20.0571 0.611816 19.2287 0.611816H12.719C11.8906 0.611816 11.219 1.28339 11.219 2.11182V8.62154C11.219 9.44997 11.8906 10.1215 12.719 10.1215H14.9761L14.9758 13.2062H4.75362C4.20134 13.2062 3.75362 13.6539 3.75362 14.2062L3.75362 19.1216C3.75362 19.6739 4.20134 20.1216 4.75362 20.1216C5.30591 20.1216 5.75362 19.6739 5.75362 19.1216V15.2062H14.9756L14.9753 19.1215C14.9753 19.6738 15.4229 20.1215 15.9752 20.1216C16.5275 20.1216 16.9753 19.674 16.9753 19.1217L16.9756 15.2062H25.7227V19.1216C25.7227 19.6739 26.1704 20.1216 26.7227 20.1216C27.275 20.1216 27.7227 19.6739 27.7227 19.1216V14.2062C27.7227 13.6539 27.275 13.2062 26.7227 13.2062H16.9758L16.9761 10.1215H19.2287C20.0571 10.1215 20.7287 9.44997 20.7287 8.62154V2.11182ZM13.219 2.61182L18.7287 2.61182V8.12154L13.219 8.12154V2.61182ZM9.50948 23.3782C9.50948 22.5497 8.83791 21.8782 8.00948 21.8782H1.49976C0.67133 21.8782 -0.00024382 22.5497 -0.000243856 23.3782L-0.000244141 29.8879C-0.000244177 30.7163 0.671326 31.3879 1.49975 31.3879H8.00948C8.83791 31.3879 9.50948 30.7163 9.50948 29.8879V23.3782ZM1.99976 23.8782H7.50948L7.50948 29.3879H1.99976L1.99976 23.8782ZM32.0002 23.3782C32.0002 22.5497 31.3286 21.8782 30.5002 21.8782H23.9905C23.1621 21.8782 22.4905 22.5497 22.4905 23.3782V29.8879C22.4905 30.7163 23.162 31.3879 23.9905 31.3879H30.5002C31.3286 31.3879 32.0002 30.7163 32.0002 29.8879V23.3782ZM24.4905 23.8782H30.0002V29.3879H24.4905V23.8782ZM19.2287 21.8782C20.0571 21.8782 20.7287 22.5497 20.7287 23.3782V29.8879C20.7287 30.7163 20.0571 31.3879 19.2287 31.3879H12.719C11.8906 31.3879 11.219 30.7163 11.219 29.8879V23.3782C11.219 22.5497 11.8906 21.8782 12.719 21.8782H19.2287ZM18.7287 23.8782H13.219V29.3879H18.7287V23.8782Z" fill="#111827"/>
</svg>
