<svg width="33" height="33" viewBox="0 0 33 33" fill="none" xmlns="http://www.w3.org/2000/svg">
<path fill-rule="evenodd" clip-rule="evenodd" d="M16.7564 0.545824C16.4529 0.451459 16.1226 0.507017 15.8666 0.695485C15.6107 0.883953 15.4595 1.18288 15.4595 1.50074V19.884C14.0876 18.403 12.126 17.476 9.94799 17.476C5.79952 17.476 2.43652 20.839 2.43652 24.9875C2.43652 29.1359 5.79952 32.4989 9.94799 32.4989C13.9626 32.4989 17.2416 29.3494 17.449 25.3864C17.456 25.339 17.4595 25.2904 17.4595 25.241V2.85884L29.2664 6.52946C29.7938 6.69342 30.3542 6.3988 30.5182 5.87142C30.6821 5.34403 30.3875 4.78358 29.8601 4.61963L16.7564 0.545824ZM4.43652 24.9875C4.43652 21.9436 6.90409 19.476 9.94799 19.476C12.9919 19.476 15.4595 21.9436 15.4595 24.9875C15.4595 28.0314 12.9919 30.4989 9.94799 30.4989C6.90409 30.4989 4.43652 28.0314 4.43652 24.9875Z" fill="#111827"/>
</svg>
