<svg width="32" height="33" viewBox="0 0 32 33" fill="none" xmlns="http://www.w3.org/2000/svg">
<path d="M25.12 4.5V10.26" stroke="#1C1B1F" stroke-width="2" stroke-linecap="round" stroke-linejoin="round"/>
<path d="M28 7.38013H22.24" stroke="#1C1B1F" stroke-width="2" stroke-linecap="round" stroke-linejoin="round"/>
<path d="M22.72 24.6409C24.5757 24.6409 26.08 23.1292 26.08 21.2643C26.08 19.3995 24.5757 17.8877 22.72 17.8877C20.8643 17.8877 19.36 19.3995 19.36 21.2643C19.36 23.1292 20.8643 24.6409 22.72 24.6409Z" stroke="#1C1B1F" stroke-width="2" stroke-linecap="round" stroke-linejoin="round"/>
<path d="M7.36001 28.5001C9.21569 28.5001 10.72 26.9883 10.72 25.1235C10.72 23.2586 9.21569 21.7468 7.36001 21.7468C5.50433 21.7468 4 23.2586 4 25.1235C4 26.9883 5.50433 28.5001 7.36001 28.5001Z" stroke="#1C1B1F" stroke-width="2" stroke-linecap="round" stroke-linejoin="round"/>
<path d="M10.72 25.1788L10.72 8.41455L17.4794 6.63851M26.08 21.0789V14.3222" stroke="#1C1B1F" stroke-width="2" stroke-linecap="round" stroke-linejoin="round"/>
<path d="M10.7158 13.9244L20.2121 11.5168" stroke="#1C1B1F" stroke-width="2" stroke-linecap="round" stroke-linejoin="round"/>
</svg>
