<svg width="33" height="33" viewBox="0 0 33 33" fill="none" xmlns="http://www.w3.org/2000/svg">
<path fill-rule="evenodd" clip-rule="evenodd" d="M28.8993 1.50098C28.8993 0.948692 28.4515 0.500977 27.8993 0.500977C27.347 0.500977 26.8993 0.948692 26.8993 1.50098V4.1007H24.2994C23.7471 4.1007 23.2994 4.54842 23.2994 5.1007C23.2994 5.65299 23.7471 6.1007 24.2994 6.1007H26.8993V8.70053C26.8993 9.25281 27.347 9.70053 27.8993 9.70053C28.4515 9.70053 28.8993 9.25281 28.8993 8.70053V6.1007H31.499C32.0512 6.1007 32.499 5.65299 32.499 5.1007C32.499 4.54842 32.0512 4.1007 31.499 4.1007H28.8993V1.50098ZM24.8994 19.2345C23.1369 19.2345 21.6997 20.6718 21.6997 22.455C21.6997 24.2383 23.1369 25.6756 24.8994 25.6756C26.6619 25.6756 28.0992 24.2383 28.0992 22.455C28.0992 20.6718 26.6619 19.2345 24.8994 19.2345ZM19.6997 22.455C19.6997 19.5765 22.023 17.2345 24.8994 17.2345C26.1073 17.2345 27.2176 17.6475 28.0993 18.3397V13.7779C28.0993 13.2256 28.547 12.7779 29.0993 12.7779C29.6516 12.7779 30.0993 13.2256 30.0993 13.7779V22.2232C30.0993 22.2474 30.0984 22.2713 30.0968 22.2951C30.0984 22.3482 30.0992 22.4015 30.0992 22.455C30.0992 25.3336 27.7758 27.6756 24.8994 27.6756C22.023 27.6756 19.6997 25.3336 19.6997 22.455ZM2.50098 27.2786C2.50098 25.4953 3.93819 24.058 5.70071 24.058C7.46323 24.058 8.90045 25.4953 8.90045 27.2786C8.90045 29.0618 7.46323 30.4991 5.70071 30.4991C3.93819 30.4991 2.50098 29.0618 2.50098 27.2786ZM5.70071 22.058C2.82433 22.058 0.500977 24.4 0.500977 27.2786C0.500977 30.1571 2.82433 32.4991 5.70071 32.4991C8.53552 32.4991 10.8332 30.2243 10.899 27.403C10.9 27.3847 10.9005 27.3663 10.9005 27.3478V14.0574L22.0105 11.2408C22.5459 11.1051 22.8698 10.561 22.7341 10.0257C22.5984 9.49035 22.0544 9.16639 21.519 9.30211L10.9005 11.9942V7.16503L18.6034 5.14111C19.1375 5.00076 19.4568 4.45397 19.3164 3.91981C19.1761 3.38566 18.6293 3.06642 18.0951 3.20676L9.64638 5.42667C9.20689 5.54214 8.9005 5.93943 8.9005 6.39384V13.1757C8.89327 13.2441 8.89308 13.3139 8.9005 13.3843V23.1632C8.01879 22.471 6.90851 22.058 5.70071 22.058Z" fill="#111827"/>
</svg>
