<svg width="33" height="33" viewBox="0 0 33 33" fill="none" xmlns="http://www.w3.org/2000/svg">
<path fill-rule="evenodd" clip-rule="evenodd" d="M16.7566 0.544847C16.4531 0.450483 16.1228 0.50604 15.8668 0.694508C15.6109 0.882976 15.4597 1.1819 15.4597 1.49976V9.34491C15.4594 9.35999 15.4594 9.37504 15.4597 9.39004V19.8846C14.0877 18.4034 12.126 17.4763 9.94772 17.4763C5.799 17.4763 2.43579 20.8395 2.43579 24.9882C2.43579 29.137 5.799 32.5002 9.94772 32.5002C13.9626 32.5002 17.2418 29.3505 17.4492 25.3873C17.4562 25.3398 17.4597 25.2912 17.4597 25.2417V10.6906L29.2911 14.0517C29.5927 14.1374 29.917 14.0767 30.1672 13.8877C30.4173 13.6987 30.5644 13.4033 30.5644 13.0898V5.57385C30.5644 5.13593 30.2794 4.74895 29.8612 4.61894L16.7566 0.544847ZM28.5644 11.7662L17.4597 8.61149V2.85787L28.5644 6.31018V11.7662ZM4.43579 24.9882C4.43579 21.9441 6.90357 19.4763 9.94772 19.4763C12.9919 19.4763 15.4597 21.9441 15.4597 24.9882C15.4597 28.0324 12.9919 30.5002 9.94772 30.5002C6.90357 30.5002 4.43579 28.0324 4.43579 24.9882Z" fill="#111827"/>
</svg>
