<svg width="32" height="33" viewBox="0 0 32 33" fill="none" xmlns="http://www.w3.org/2000/svg">
<path d="M23.6812 24.6593C25.5372 24.6593 27.0417 23.1547 27.0417 21.2988C27.0417 19.4428 25.5372 17.9382 23.6812 17.9382C21.8252 17.9382 20.3207 19.4428 20.3207 21.2988C20.3207 23.1547 21.8252 24.6593 23.6812 24.6593Z" stroke="#1C1B1F" stroke-width="2" stroke-linecap="round" stroke-linejoin="round"/>
<path d="M8.31878 28.5001C10.1747 28.5001 11.6793 26.9955 11.6793 25.1396C11.6793 23.2836 10.1747 21.7791 8.31878 21.7791C6.46281 21.7791 4.95825 23.2836 4.95825 25.1396C4.95825 26.9955 6.46281 28.5001 8.31878 28.5001Z" stroke="#1C1B1F" stroke-width="2" stroke-linecap="round" stroke-linejoin="round"/>
<path d="M11.6793 25.1946L11.6793 8.51027L27.0417 4.5V21.1142" stroke="#1C1B1F" stroke-width="2" stroke-linecap="round" stroke-linejoin="round"/>
</svg>
