<svg width="33" height="33" viewBox="0 0 33 33" fill="none" xmlns="http://www.w3.org/2000/svg">
<path fill-rule="evenodd" clip-rule="evenodd" d="M30.9126 0.709356C31.1577 0.898716 31.3013 1.19099 31.3013 1.50074V8.64783C31.3014 8.65756 31.3014 8.66727 31.3013 8.67696V22.2672C31.3013 22.2911 31.3004 22.3147 31.2988 22.3382C31.3004 22.3912 31.3012 22.4444 31.3012 22.4978C31.3012 25.3699 28.9729 27.6982 26.1008 27.6982C23.2287 27.6982 20.9004 25.3699 20.9004 22.4978C20.9004 19.6257 23.2287 17.2974 26.1008 17.2974C27.3078 17.2974 28.4188 17.7086 29.3013 18.3986V9.93615L12.0995 14.1505V27.3673C12.0995 27.3865 12.099 27.4055 12.0979 27.4244C12.0311 30.2384 9.72903 32.499 6.899 32.499C4.0269 32.499 1.69861 30.1707 1.69861 27.2986C1.69861 24.4265 4.0269 22.0982 6.899 22.0982C8.10603 22.0982 9.21702 22.5094 10.0995 23.1994V13.472C10.0919 13.4008 10.0921 13.3302 10.0995 13.2611V6.51326C10.0995 6.05825 10.4067 5.66061 10.8469 5.54568L30.0487 0.533165C30.3484 0.454927 30.6675 0.519997 30.9126 0.709356ZM12.0995 12.0914L29.3013 7.877V2.7953L12.0995 7.28572V12.0914ZM22.9004 22.4978C22.9004 20.7303 24.3333 19.2974 26.1008 19.2974C27.8683 19.2974 29.3012 20.7303 29.3012 22.4978C29.3012 24.2653 27.8683 25.6982 26.1008 25.6982C24.3333 25.6982 22.9004 24.2653 22.9004 22.4978ZM3.69861 27.2986C3.69861 25.531 5.13147 24.0982 6.899 24.0982C8.66653 24.0982 10.0994 25.531 10.0994 27.2986C10.0994 29.0661 8.66653 30.499 6.899 30.499C5.13147 30.499 3.69861 29.0661 3.69861 27.2986Z" fill="#111827"/>
</svg>
