<svg width="33" height="32" viewBox="0 0 33 32" fill="none" xmlns="http://www.w3.org/2000/svg">
<path fill-rule="evenodd" clip-rule="evenodd" d="M25.75 25.1953C26.8899 24.7146 28.2232 24.5523 29.9686 24.5996C29.9265 24.2497 29.2582 23.8415 28.7992 23.5611C28.67 23.4822 28.5574 23.4134 28.48 23.3589C28.3353 23.257 28.1897 23.1532 28.043 23.0488C27.4754 22.6446 26.8931 22.2299 26.2959 21.8696C26.0425 21.7169 25.6699 21.5866 25.3257 21.4664C25.1358 21.3999 24.9544 21.3366 24.8067 21.2741C24.6237 21.1969 24.3729 21.1204 24.1036 21.0383C23.5012 20.8546 22.8066 20.6428 22.5733 20.3312C21.9659 19.5196 21.5368 18.5444 21.1077 17.5688C21.0833 17.5134 21.0589 17.4581 21.0345 17.4027C20.8172 16.9093 20.5722 16.4036 20.3257 15.8948C20.0561 15.3382 19.7847 14.778 19.5457 14.226C19.4524 14.0104 19.3786 13.8037 19.3062 13.6006C19.2026 13.3103 19.1016 13.0275 18.9502 12.737C17.3501 9.66954 15.0111 7.09809 12.15 5.29173C11.2111 4.69868 10.1771 4.15339 9.02328 3.80269C8.67482 3.6968 8.28931 3.67901 7.89931 3.66101C7.55873 3.6453 7.21473 3.62942 6.88899 3.55458H6.44232C6.19052 3.48057 5.9652 3.28222 5.75026 3.093C5.63129 2.98827 5.5155 2.88634 5.40016 2.80984C4.72596 2.36339 4.0617 2.04851 3.26566 1.71793C2.96582 1.59322 2.16402 1.29757 1.87611 1.51936C1.70718 1.57508 1.63177 1.64651 1.57804 1.81721C1.40999 2.0704 1.56411 2.46444 1.67755 2.71055C1.89383 3.18047 2.17543 3.52596 2.46265 3.87834C2.59887 4.04547 2.73636 4.21415 2.86874 4.39839C2.92036 4.47022 2.97354 4.54342 3.02757 4.61779C3.3626 5.07896 3.73025 5.58503 3.96065 6.08601C4.25046 6.71587 4.45679 7.38174 4.66216 8.04454C4.85356 8.66223 5.04413 9.27724 5.30066 9.85794C5.50498 10.3203 5.79973 10.8475 6.09493 11.2479C6.18038 11.3639 6.28991 11.4697 6.40123 11.5773C6.60077 11.7702 6.8061 11.9687 6.88899 12.2408C7.10425 12.5784 6.72532 13.5637 6.48667 14.1843C6.42526 14.344 6.37314 14.4795 6.34281 14.5736C5.77121 16.3508 5.89173 18.8369 6.54183 20.3808C6.56138 20.4273 6.58084 20.4743 6.60043 20.5217C6.83816 21.0965 7.09419 21.7156 7.7328 21.8696C7.75537 21.8519 7.76035 21.8463 7.76652 21.8428C7.77425 21.8385 7.78385 21.8374 7.83231 21.8201C7.86149 21.5842 7.88689 21.3499 7.91198 21.1186C8.01333 20.1842 8.10945 19.298 8.42779 18.5443C8.58195 18.1792 8.82267 17.8855 9.05989 17.596C9.20481 17.4192 9.34841 17.244 9.47017 17.0551C9.62825 17.1464 9.67962 17.3549 9.73048 17.5614C9.7554 17.6626 9.78019 17.7632 9.81734 17.8494C9.86746 17.9655 9.91784 18.0834 9.96868 18.2023C10.2152 18.7791 10.4723 19.3805 10.7606 19.9341C11.4888 21.3332 12.2882 22.6769 13.1926 23.9048C13.5139 24.3411 13.9457 24.8145 14.3342 25.1953C14.3971 25.257 14.4654 25.3074 14.533 25.3572C14.6427 25.438 14.7505 25.5175 14.8304 25.642H14.8802V25.6917C14.4517 25.5453 14.1308 25.2149 13.8194 24.894C13.6463 24.7157 13.4761 24.5404 13.2919 24.4013C12.2975 23.6503 11.1237 22.5374 10.4626 21.4727L9.56923 19.686V19.6363C9.49013 19.7416 9.47709 19.8536 9.46182 19.9848C9.45305 20.0601 9.44355 20.1417 9.42042 20.232C9.34062 20.5425 9.30124 20.8649 9.26318 21.1764C9.1674 21.9604 9.08 22.6758 8.37804 22.9617C7.25672 23.4188 6.44121 22.2269 6.09493 21.6713C4.96654 19.8609 4.67399 16.8209 5.4497 14.3748C5.50958 14.186 5.55076 13.9823 5.59187 13.7789C5.66903 13.3974 5.74597 13.0168 5.9459 12.737C5.91291 12.4804 5.76293 12.346 5.6124 12.2111C5.53689 12.1434 5.46125 12.0756 5.40016 11.9922C5.10187 11.5858 4.84183 11.1068 4.60589 10.6522C4.26475 9.99595 4.0055 9.25472 3.74987 8.52387C3.65554 8.2542 3.56171 7.98594 3.46445 7.72387C3.39984 7.54993 3.35795 7.38003 3.31664 7.21245C3.2642 6.99978 3.21269 6.79085 3.11684 6.58221C2.91212 6.13609 2.57995 5.6912 2.27011 5.2762C2.18572 5.16317 2.10298 5.05236 2.02493 4.94435C1.94169 4.82907 1.83449 4.69669 1.71554 4.5498C1.09226 3.78012 0.146477 2.61218 0.63539 1.42008C1.55748 -0.828974 4.75051 0.881861 5.99543 1.66818C6.12464 1.74981 6.25961 1.86722 6.39702 1.98676C6.59237 2.1567 6.79265 2.33092 6.98828 2.4127L8.62614 2.51221C8.74777 2.54102 8.86861 2.56903 8.98848 2.59682C9.87139 2.80147 10.7019 2.99397 11.4059 3.40555C15.1639 5.60396 17.5898 7.84018 19.8435 11.5456C20.157 12.0613 20.3707 12.611 20.5903 13.1755C20.6996 13.4565 20.8103 13.7412 20.9354 14.0272C21.4874 15.2896 22.0992 16.6 22.7221 17.7996C22.8172 17.9826 22.9034 18.1707 22.9891 18.358C23.1719 18.7571 23.353 19.1527 23.6155 19.4872C23.7225 19.6237 23.9463 19.6985 24.1574 19.769C24.2678 19.8059 24.3747 19.8416 24.4595 19.8844C24.741 20.0265 25.0404 20.1558 25.3417 20.286C25.8262 20.4954 26.3154 20.7068 26.7426 20.9765C27.9917 21.7648 29.2048 22.7103 30.316 23.6567C30.5567 23.8616 30.7501 24.1201 30.9435 24.3784C31.0915 24.5762 31.2394 24.7738 31.4083 24.9472V25.1458C31.1232 25.227 30.8381 25.3086 30.5533 25.3901L30.3659 25.4436C29.9836 25.5423 29.6269 25.5794 29.2734 25.616C28.9142 25.6533 28.5582 25.6903 28.1821 25.7912C28.0988 25.8135 28.0113 25.8377 27.921 25.8627C27.5294 25.9711 27.084 26.0944 26.6928 26.1384L26.7426 26.1882C26.9484 26.7623 27.8066 27.2666 28.521 27.6864C28.79 27.8445 29.0386 27.9906 29.2243 28.1239C30.0756 28.7348 30.8765 29.4703 31.5074 30.3077L32.1526 30.9529C32.2216 31.0528 32.2672 31.1675 32.3128 31.2822C32.3641 31.4113 32.4154 31.5403 32.5 31.6479V31.6977C32.3055 31.6287 32.171 31.4945 32.0382 31.3618C31.9635 31.2873 31.8893 31.2132 31.8052 31.1515C31.6676 31.0504 31.5292 30.946 31.3902 30.8411C31.0516 30.5856 30.7096 30.3274 30.3659 30.1093C29.9431 29.8411 29.4856 29.6321 29.0247 29.4217C28.5891 29.2227 28.1505 29.0224 27.7354 28.7693C27.3196 28.5157 26.9178 28.2106 26.5266 27.9138C26.466 27.8677 26.4056 27.8219 26.3455 27.7765C25.9355 27.4669 25.4758 26.8767 25.2038 26.4363C25.1448 26.3405 25.1056 26.2362 25.067 26.1337C25.0131 25.9903 24.9604 25.8503 24.8566 25.7415C24.8957 25.441 25.1889 25.361 25.47 25.2843C25.5686 25.2573 25.6658 25.2308 25.75 25.1953ZM6.88907 5.78797C7.16127 5.7287 7.41867 5.68227 7.78264 5.6889C7.85493 5.75896 7.94287 5.81978 8.03136 5.88099C8.16184 5.97122 8.29353 6.06231 8.37812 6.1851C8.4245 6.25236 8.45417 6.32116 8.48304 6.38811C8.52052 6.47502 8.55665 6.5588 8.62622 6.632C8.62777 7.1607 8.48691 7.5072 8.17955 7.7239L8.13002 7.77344C7.96441 7.42604 7.79894 7.07858 7.6336 6.73106C7.54876 6.60983 7.4497 6.50069 7.35018 6.39105C7.19757 6.22292 7.04389 6.05361 6.93883 5.83772H6.88907V5.78797Z" fill="#111827"/>
</svg>
