<svg width="33" height="33" viewBox="0 0 33 33" fill="none" xmlns="http://www.w3.org/2000/svg">
<path fill-rule="evenodd" clip-rule="evenodd" d="M24.031 23.9963C24.9024 23.6288 25.9217 23.5047 27.2559 23.5409H27.2561C27.2239 23.2734 26.713 22.9614 26.3621 22.7471C26.2632 22.6867 26.1771 22.6341 26.1179 22.5924C26.0073 22.5145 25.896 22.4352 25.7839 22.3554C25.35 22.0464 24.9048 21.7293 24.4483 21.454C24.2546 21.3372 23.9698 21.2376 23.7067 21.1457C23.5615 21.0949 23.4228 21.0465 23.3099 20.9987C23.17 20.9397 22.9783 20.8812 22.7724 20.8184C22.3119 20.678 21.781 20.5161 21.6026 20.278C21.1382 19.6575 20.8102 18.912 20.4822 18.1662C20.4635 18.1239 20.4449 18.0815 20.4263 18.0392C20.2601 17.6621 20.0728 17.2755 19.8844 16.8865C19.6783 16.4611 19.4708 16.0328 19.2881 15.6108C19.2168 15.446 19.1604 15.288 19.105 15.1328C19.0258 14.9108 18.9487 14.6946 18.8329 14.4725C17.6097 12.1276 15.8217 10.1619 13.6345 8.78102C12.9168 8.32766 12.1263 7.91082 11.2443 7.64272C10.9779 7.56178 10.6832 7.54818 10.3851 7.53442C10.1247 7.52241 9.86175 7.51027 9.61274 7.45306H9.27129C9.0788 7.39648 8.90655 7.24485 8.74224 7.1002C8.65129 7.02014 8.56278 6.94222 8.47461 6.88374C7.95921 6.54245 7.45143 6.30175 6.84289 6.04903C6.61367 5.9537 6.00074 5.72769 5.78065 5.89724C5.65151 5.93984 5.59387 5.99443 5.55279 6.12493C5.42432 6.31848 5.54214 6.61971 5.62886 6.80784C5.7942 7.16707 6.00946 7.43118 6.22903 7.70056C6.33317 7.82832 6.43827 7.95727 6.53947 8.09811C6.57893 8.15302 6.61958 8.20898 6.66089 8.26583C6.917 8.61837 7.19804 9.00523 7.37418 9.38821C7.59572 9.8697 7.75344 10.3787 7.91044 10.8854C8.05676 11.3576 8.20244 11.8277 8.39854 12.2717C8.55473 12.6251 8.78006 13.0281 9.00572 13.3342C9.07104 13.4228 9.15477 13.5038 9.23988 13.586C9.39241 13.7335 9.54938 13.8852 9.61274 14.0932C9.7773 14.3513 9.48763 15.1045 9.30519 15.5789C9.25824 15.701 9.21839 15.8046 9.19522 15.8766C8.75825 17.2351 8.85038 19.1356 9.34735 20.3158C9.3623 20.3514 9.37718 20.3873 9.39215 20.4235C9.57388 20.8629 9.76961 21.3362 10.2578 21.454C10.275 21.4404 10.2788 21.4362 10.2836 21.4335C10.2895 21.4302 10.2968 21.4293 10.3339 21.4161C10.3562 21.2357 10.3756 21.0567 10.3948 20.8799C10.4722 20.1656 10.5457 19.4881 10.7891 18.912C10.9069 18.6328 11.0909 18.4083 11.2723 18.187C11.3831 18.0519 11.4928 17.9179 11.5859 17.7735C11.7068 17.8433 11.746 18.0027 11.7849 18.1606C11.804 18.2379 11.8229 18.3148 11.8513 18.3807C11.8896 18.4695 11.9281 18.5596 11.967 18.6505C12.1555 19.0914 12.352 19.5511 12.5724 19.9744C13.1291 21.0439 13.7401 22.0711 14.4315 23.0098C14.6771 23.3433 15.0072 23.7052 15.3042 23.9963C15.3523 24.0435 15.4045 24.0819 15.4562 24.12C15.5401 24.1818 15.6225 24.2426 15.6836 24.3377H15.7216V24.3758C15.394 24.2639 15.1488 24.0112 14.9107 23.766C14.7783 23.6296 14.6482 23.4956 14.5074 23.3893C13.7472 22.8152 12.85 21.9644 12.3446 21.1505L11.6616 19.7847V19.7467C11.6012 19.8272 11.5912 19.9128 11.5795 20.0131C11.5728 20.0707 11.5656 20.133 11.5479 20.2021C11.4869 20.4395 11.4568 20.6859 11.4277 20.9241C11.3545 21.5234 11.2877 22.0702 10.751 22.2888C9.89385 22.6382 9.27044 21.7271 9.00572 21.3023C8.14312 19.9184 7.91949 17.5945 8.51247 15.7246C8.55825 15.5802 8.58973 15.4245 8.62116 15.2691C8.68014 14.9774 8.73896 14.6865 8.8918 14.4725C8.86658 14.2764 8.75192 14.1737 8.63685 14.0705C8.57913 14.0188 8.5213 13.967 8.47461 13.9032C8.24658 13.5925 8.04779 13.2264 7.86743 12.8788C7.60665 12.3772 7.40846 11.8105 7.21304 11.2518C7.14094 11.0457 7.06921 10.8406 6.99485 10.6403C6.94546 10.5073 6.91344 10.3774 6.88186 10.2493C6.84177 10.0867 6.8024 9.92702 6.72913 9.76753C6.57262 9.42649 6.3187 9.08639 6.08184 8.76915C6.01733 8.68274 5.95408 8.59803 5.89442 8.51546C5.83078 8.42734 5.74883 8.32614 5.6579 8.21385C5.18144 7.62547 4.45844 6.73265 4.83218 5.82134C5.53707 4.10206 7.97798 5.4099 8.92966 6.011C9.02843 6.0734 9.13161 6.16316 9.23666 6.25454C9.38599 6.38445 9.53909 6.51763 9.68864 6.58015L10.9407 6.65622C11.0337 6.67824 11.1261 6.69966 11.2177 6.7209C11.8926 6.87734 12.5275 7.0245 13.0657 7.33913C15.9385 9.0197 17.793 10.7292 19.5158 13.5617C19.7554 13.956 19.9188 14.3762 20.0867 14.8078C20.1702 15.0226 20.2549 15.2402 20.3505 15.4589C20.7724 16.4239 21.2402 17.4256 21.7163 18.3426C21.789 18.4825 21.8549 18.6263 21.9205 18.7695C22.0602 19.0746 22.1986 19.377 22.3993 19.6327C22.4811 19.7371 22.6522 19.7942 22.8135 19.8482C22.8979 19.8763 22.9796 19.9036 23.0445 19.9363C23.2597 20.045 23.4886 20.1439 23.7189 20.2434C24.0892 20.4034 24.4633 20.5651 24.7898 20.7712C25.7447 21.3738 26.672 22.0966 27.5214 22.8201C27.7055 22.9767 27.8534 23.1744 28.0011 23.3718C28.1143 23.523 28.2273 23.6741 28.3565 23.8066V23.9584C28.138 24.0207 27.9196 24.0832 27.7013 24.1456L27.5597 24.1861C27.2674 24.2616 26.9947 24.2899 26.7244 24.3179C26.4498 24.3464 26.1778 24.3746 25.8902 24.4518C25.8266 24.4689 25.7597 24.4874 25.6906 24.5065C25.3913 24.5893 25.0508 24.6836 24.7518 24.7172L24.7898 24.7553C24.9471 25.1941 25.6032 25.5797 26.1493 25.9006C26.3549 26.0214 26.545 26.1331 26.6869 26.235C27.3377 26.7021 27.95 27.2643 28.4322 27.9044L28.9255 28.3977C28.9782 28.474 29.0131 28.5617 29.0479 28.6494C29.0872 28.7481 29.1264 28.8467 29.191 28.929V28.967C29.0423 28.9143 28.9396 28.8117 28.838 28.7103C28.7809 28.6533 28.7242 28.5967 28.6599 28.5495C28.5547 28.4722 28.4489 28.3924 28.3426 28.3122C28.0838 28.1168 27.8223 27.9195 27.5597 27.7528C27.2364 27.5477 26.8867 27.388 26.5344 27.2271C26.2014 27.075 25.8661 26.9219 25.5488 26.7284C25.2309 26.5345 24.9237 26.3014 24.6247 26.0744C24.5784 26.0392 24.5322 26.0042 24.4862 25.9695C24.1728 25.7328 23.8214 25.2816 23.6135 24.9449C23.5683 24.8717 23.5384 24.792 23.5089 24.7136C23.4677 24.604 23.4274 24.497 23.3481 24.4138C23.378 24.1841 23.6021 24.1229 23.8169 24.0643C23.8924 24.0437 23.9666 24.0234 24.031 23.9963ZM9.61283 9.16038C9.82091 9.11507 10.0177 9.07958 10.2959 9.08465C10.3512 9.13821 10.4184 9.1847 10.486 9.23148C10.5858 9.30047 10.6865 9.37009 10.7511 9.46397C10.7866 9.51538 10.8093 9.56798 10.8313 9.61916C10.86 9.68559 10.8876 9.74964 10.9408 9.80559C10.942 10.2098 10.8343 10.4746 10.5993 10.6403L10.5615 10.6782C10.4349 10.4126 10.3084 10.147 10.182 9.88132C10.1171 9.78865 10.0414 9.70522 9.96532 9.6214C9.84866 9.49287 9.73118 9.36345 9.65086 9.19841H9.61283V9.16038Z" fill="#1C1B1F"/>
</svg>
