<svg width="33" height="33" viewBox="0 0 33 33" fill="none" xmlns="http://www.w3.org/2000/svg">
<path fill-rule="evenodd" clip-rule="evenodd" d="M30.1366 2.25661C27.7914 -0.0886014 23.9883 -0.086206 21.646 2.26196L17.7564 6.16134C17.6294 6.28872 17.5257 6.45467 17.4727 6.6535C16.5651 10.0546 12.6173 18.7955 3.87841 27.9461C2.776 28.9979 1.80021 29.9723 0.997435 30.8077C0.621453 31.199 0.626153 31.8188 1.00803 32.2043C1.3899 32.5898 2.00958 32.6005 2.40444 32.2282C3.41796 31.2728 4.37977 30.3157 5.29164 29.362C7.58289 27.1778 10.4299 24.6541 13.3935 22.3695C15.582 20.6824 17.8179 19.1383 19.9282 17.959C22.0529 16.7716 23.9831 15.9925 25.5728 15.7681C25.8157 15.7339 26.0323 15.6209 26.1965 15.4567L30.524 11.1293C32.8671 8.7861 32.8671 4.9871 30.524 2.64395L30.1366 2.25661ZM18.9526 16.2131C16.8611 17.3819 14.6846 18.8717 12.5736 20.4783C16.5017 14.8265 18.5987 10.0073 19.3396 7.40614L23.062 3.6744C24.6235 2.10895 27.1589 2.10735 28.7224 3.67083L29.1098 4.05817C30.6719 5.62027 30.6719 8.15294 29.1098 9.71504L24.9893 13.8355C23.1195 14.1582 21.0483 15.042 18.9526 16.2131ZM27.2132 7.17281C27.6037 6.78228 27.6037 6.14912 27.2132 5.75859C26.8227 5.36807 26.1895 5.36807 25.799 5.75859L23.0688 8.48881C22.6782 8.87934 22.6782 9.5125 23.0688 9.90303C23.4593 10.2936 24.0925 10.2936 24.483 9.90303L27.2132 7.17281Z" fill="#111827"/>
</svg>
