<svg width="33" height="32" viewBox="0 0 33 32" fill="none" xmlns="http://www.w3.org/2000/svg">
<path fill-rule="evenodd" clip-rule="evenodd" d="M21.1573 -0.0012207L22.8661 1.71583L28.7297 7.60781L29.0199 7.89935L29.0209 8.31065L29.0605 23.797L29.0615 24.189L28.7959 24.4773L27.7979 25.5602L26.9349 26.4965L26.8735 26.4043L22.9923 30.2855L22.1239 31.1539L21.4495 30.1276L12.5752 16.6229V29.5785V32.001L10.8664 30.2839L5.00269 24.392L4.71256 24.1004L4.7115 23.6891L4.6719 8.20272L4.6709 7.81071L4.93656 7.52246L5.93459 6.43956L6.79754 5.50323L6.87819 5.62452L10.7445 1.71882L11.614 0.84037L12.2915 1.87422L21.1573 15.4029V2.42123V-0.0012207ZM23.1573 4.84369V17.2038L27.0587 23.0708L27.022 8.72708L23.1573 4.84369ZM8.51957 6.80929L22.4465 28.0029L25.2113 25.2381L11.2962 4.00429L8.51957 6.80929ZM10.5752 14.796V27.1561L6.71045 23.2727L6.67376 8.92899L10.5752 14.796Z" fill="#111827"/>
</svg>
