<svg width="32" height="33" viewBox="0 0 32 33" fill="none" xmlns="http://www.w3.org/2000/svg">
<path d="M20.1697 6.15102C20.3124 5.98863 20.4291 5.80186 20.506 5.58322C21.98 6.34107 22.6504 7.83943 22.5201 9.26644C22.3759 10.8454 21.2481 12.3388 19.0462 12.5815C18.8079 12.6078 18.6218 12.7995 18.6026 13.0385C18.5834 13.2775 18.7366 13.4964 18.9676 13.5604C21.722 14.3228 24.1689 12.7306 24.9162 10.4298C28.265 14.8409 27.8543 19.1124 26.5003 21.9025C26.4626 21.4847 26.3942 21.0534 26.2882 20.606C26.2331 20.3735 26.0212 20.2125 25.7825 20.2217C25.5438 20.2308 25.3449 20.4076 25.3077 20.6436C25.0404 22.3422 24.4039 23.8945 23.2174 25.247C23.2372 25.1917 23.2559 25.1376 23.2735 25.0845C23.3758 24.7749 23.4389 24.5069 23.4959 24.2586C23.4997 24.2422 23.5034 24.226 23.5071 24.2098C23.5601 23.9785 23.6087 23.7664 23.6822 23.5279C23.7567 23.2865 23.6394 23.0275 23.4089 22.9242C23.1784 22.8209 22.907 22.9058 22.7765 23.122C21.5344 25.1787 19.8844 26.6363 17.767 27.3873C18.438 26.8193 18.983 26.2123 19.4739 25.5945C19.6128 25.4197 19.619 25.1741 19.4891 24.9925C19.3592 24.811 19.1248 24.7375 18.9145 24.8125C18.5151 24.9549 18.1258 25.0923 17.762 25.2109C19.046 23.6677 19.5394 21.5942 19.0987 19.6794C19.0443 19.4431 18.8283 19.2799 18.5862 19.2921C18.3441 19.3044 18.1456 19.4885 18.1153 19.7291C18.0235 20.4587 17.677 21.3283 17.1193 22.1088C16.5627 22.888 15.8208 23.5436 14.9678 23.886C14.0689 24.247 12.6107 24.5653 11.0786 24.0421C11.1151 23.9908 11.1422 23.9322 11.1574 23.8686C11.2034 23.6762 11.1316 23.4747 10.9742 23.3548C9.96604 22.5861 9.92107 21.4307 10.0541 20.9478C10.0545 20.948 10.0644 20.9234 10.0945 20.8743C10.129 20.8181 10.1787 20.7484 10.2415 20.6764C10.3715 20.5275 10.5302 20.4002 10.6938 20.3384L10.5169 19.8707L10.6938 20.3384C10.8226 20.2896 10.9554 20.2638 11.0707 20.2606C11.178 20.2576 11.2456 20.2747 11.2784 20.2886C11.2768 20.3209 11.2653 20.3933 11.2057 20.5177C11.1965 20.5369 11.1885 20.5567 11.1819 20.5769C11.0688 20.9194 11.0756 21.2528 11.1869 21.5538C11.2957 21.848 11.4926 22.0806 11.7136 22.2543C12.145 22.5932 12.7346 22.7612 13.2404 22.7329C13.3908 22.7245 13.5295 22.6487 13.6178 22.5265C13.6669 22.4585 13.714 22.3907 13.7592 22.323C13.7674 22.3286 13.7758 22.3341 13.7844 22.3393C13.9496 22.4391 14.1574 22.435 14.3184 22.3288C14.7595 22.0378 15.0912 21.5314 15.3598 21.0084C15.4191 21.0336 15.4858 21.0711 15.5529 21.1204C15.6465 21.1891 15.7244 21.2687 15.7761 21.3432C15.8305 21.4216 15.8369 21.4659 15.8371 21.4706C15.8503 21.743 16.0792 21.9546 16.3518 21.9463C16.6243 21.938 16.8399 21.7129 16.8365 21.4403C16.8169 19.868 15.9553 17.8773 14.3711 16.4291C12.7656 14.9613 10.4075 14.0402 7.41072 14.6463C7.33825 14.661 7.27054 14.6914 7.21207 14.7347C7.16073 14.6057 7.05653 14.5003 6.91969 14.4501C6.77055 14.3953 6.60856 14.4157 6.48016 14.4968C6.41204 14.4266 6.32287 14.3758 6.22078 14.355C6.14383 14.3394 5.97107 14.2647 5.79391 14.0988C5.62455 13.9402 5.4768 13.7216 5.41152 13.4465C5.37678 13.3001 5.27797 13.1772 5.1425 13.1117C4.74273 12.9186 4.58991 12.7146 4.53431 12.568C4.4791 12.4224 4.48839 12.2509 4.57907 12.0567C4.67161 11.8585 4.83916 11.6629 5.04462 11.5149C5.25282 11.3649 5.4611 11.2912 5.61691 11.2844C7.03649 11.2231 7.89712 10.3552 8.79376 9.45089C8.89794 9.34582 9.00261 9.24026 9.10871 9.13541C10.0143 8.24042 11.6882 7.79906 13.524 7.78139C15.3445 7.76387 17.1675 8.16537 18.2722 8.79037C18.4499 8.89089 18.6708 8.87331 18.8303 8.74596C18.9899 8.61862 19.056 8.40708 18.9973 8.21155C18.8436 7.69894 18.8823 7.42492 18.9474 7.26579C19.0155 7.09911 19.1477 6.96679 19.3788 6.79619C19.418 6.76722 19.4629 6.73553 19.5116 6.70117C19.7103 6.56088 19.9719 6.37616 20.1697 6.15102ZM18.6877 5.21106C18.8146 5.29263 18.8971 5.3877 18.9409 5.48559C18.8943 5.52643 18.837 5.57274 18.7659 5.62808C18.7636 5.62989 18.7612 5.63171 18.7589 5.63354C18.7563 5.57264 18.7504 5.51072 18.7409 5.448C18.7289 5.36868 18.7113 5.28956 18.6877 5.21106Z" stroke="#1C1B1F" stroke-linejoin="round"/>
</svg>
