<svg width="33" height="32" viewBox="0 0 33 32" fill="none" xmlns="http://www.w3.org/2000/svg">
<g clip-path="url(#clip0_6_1689)">
<path d="M22.31 2.44875C22.4453 2.29482 22.565 2.12627 22.6642 1.94121C24.2846 2.92802 25.0145 4.67693 24.8615 6.35228C24.683 8.30722 23.2961 10.1659 20.5251 10.4714C20.0485 10.5239 19.6763 10.9073 19.6379 11.3853C19.5995 11.8633 19.9058 12.3012 20.3679 12.4291C23.9853 13.4304 27.2293 11.5277 28.4831 8.62494C32.0812 13.6721 31.9745 18.5209 30.6652 22.0036C30.6291 21.8129 30.5881 21.6201 30.5419 21.4251C30.4317 20.9602 30.008 20.6382 29.5306 20.6565C29.0531 20.6748 28.6553 21.0283 28.581 21.5003C28.3209 23.1527 27.7939 24.6956 26.8989 26.1032C26.9468 25.9012 26.9965 25.7068 27.0615 25.4961C27.2105 25.0134 26.9759 24.4954 26.5149 24.2888C26.0538 24.0822 25.5111 24.2519 25.2499 24.6844C23.9845 26.7799 22.4001 28.393 20.4558 29.4627C20.7888 29.0999 21.0983 28.7314 21.3928 28.3607C21.6706 28.0112 21.683 27.5199 21.4233 27.1568C21.1635 26.7937 20.6946 26.6467 20.2741 26.7967C20.0952 26.8604 19.9185 26.9233 19.7445 26.9845C21.0402 24.973 21.4877 22.5 20.9564 20.1917C20.8477 19.7192 20.4156 19.3928 19.9314 19.4173C19.4472 19.4418 19.0503 19.8101 18.9897 20.2911C18.8752 21.2008 18.4379 22.3089 17.7212 23.312C17.0066 24.3122 16.0644 25.1385 14.9995 25.5661C13.9103 26.0034 12.1996 26.3848 10.3794 25.8717C10.4445 25.5048 10.3 25.1299 10.0011 24.902C8.81123 23.9947 8.74519 22.6405 8.88567 22.0763C8.89082 22.0667 8.89875 22.0527 8.91017 22.0341C8.94643 21.975 9.00164 21.897 9.07315 21.8151C9.2247 21.6415 9.39324 21.5136 9.54296 21.4569L9.18913 20.5216L9.54296 21.4569C9.61177 21.4309 9.68078 21.4113 9.74673 21.3977C9.58661 21.909 9.59824 22.4173 9.76984 22.8813C9.94081 23.3437 10.2473 23.7013 10.5789 23.9618C11.221 24.4662 12.0878 24.7127 12.839 24.6707C13.14 24.6539 13.4174 24.5023 13.5939 24.2579C13.606 24.2412 13.6179 24.2246 13.6298 24.2079C13.9024 24.2816 14.1985 24.2375 14.4415 24.0773C15.0026 23.7071 15.4313 23.117 15.7726 22.5088C15.8401 22.5664 15.8931 22.6252 15.9277 22.6751C15.9404 22.6934 15.9484 22.707 15.9531 22.716C16.0017 23.2388 16.4492 23.6383 16.9791 23.6222C17.5242 23.6056 17.9555 23.1555 17.9487 22.6102C17.9212 20.4112 16.7252 17.6725 14.5531 15.6868C12.3382 13.6619 9.08731 12.3987 4.98155 13.229C4.95533 13.2343 4.92943 13.2407 4.90389 13.248C4.79792 13.1311 4.6634 13.0383 4.50776 12.9812C4.29124 12.9017 4.06117 12.9014 3.8531 12.9692C3.75529 12.9089 3.64565 12.8647 3.52733 12.8407C3.52745 12.8407 3.52744 12.8407 3.5273 12.8407C3.52598 12.8404 3.51284 12.8373 3.48841 12.8278C3.46218 12.8177 3.42801 12.8022 3.38776 12.7799C3.30647 12.735 3.21257 12.6694 3.11973 12.5824C2.93417 12.4086 2.77605 12.1728 2.70635 11.879C2.63688 11.5863 2.43927 11.3404 2.16832 11.2095C1.6874 10.9772 1.55949 10.7598 1.52409 10.6664C1.48948 10.5752 1.48191 10.4415 1.57413 10.2439C1.67005 10.0385 1.853 9.82007 2.08767 9.651C2.32784 9.47796 2.54409 9.41172 2.67026 9.40627C4.70154 9.31852 5.94449 8.06142 7.12854 6.86389C7.26809 6.72276 7.40681 6.58245 7.54591 6.44499C8.65998 5.34402 10.7822 4.75914 13.2018 4.73585C15.591 4.71286 17.9588 5.2421 19.3654 6.03795C19.7208 6.23899 20.1626 6.20384 20.4817 5.94914C20.8008 5.69445 20.933 5.27137 20.8157 4.88032C20.6241 4.24147 20.69 3.95954 20.7384 3.8412C20.793 3.70775 20.9054 3.57682 21.203 3.35712C21.2461 3.32529 21.2987 3.28828 21.358 3.24652C21.621 3.06133 22.0164 2.78282 22.31 2.44875ZM15.4421 22.3203C15.4376 22.3199 15.4353 22.3194 15.4352 22.3193C15.4352 22.3191 15.4374 22.3194 15.4421 22.3203ZM15.9591 22.7289C15.9591 22.7289 15.959 22.7285 15.9587 22.7277L15.9591 22.7289Z" stroke="#111827" stroke-width="2" stroke-linejoin="round"/>
</g>
<defs>
<clipPath id="clip0_6_1689">
<rect width="32" height="32" fill="white" transform="translate(0.5)"/>
</clipPath>
</defs>
</svg>
