<svg width="33" height="33" viewBox="0 0 33 33" fill="none" xmlns="http://www.w3.org/2000/svg">
<path fill-rule="evenodd" clip-rule="evenodd" d="M0.500854 3.49902C0.500854 2.94674 0.94857 2.49902 1.50085 2.49902H31.499C32.0513 2.49902 32.499 2.94674 32.499 3.49902V29.5009C32.499 29.847 32.3201 30.1685 32.0259 30.3508C31.7318 30.5332 31.3643 30.5505 31.0543 30.3965L26.5981 28.1838L21.8457 30.4067C21.5667 30.5372 21.2431 30.5318 20.9686 30.3922L16.6264 28.183L11.7077 30.4117C11.4354 30.5351 11.1222 30.5302 10.8539 30.3983L6.36073 28.1898L1.94793 30.3954C1.63794 30.5503 1.26984 30.5337 0.975057 30.3515C0.680278 30.1693 0.500854 29.8474 0.500854 29.5009V3.49902ZM2.50085 4.49902V27.8831L5.90995 26.1793C6.18931 26.0396 6.51786 26.0385 6.79814 26.1763L11.3124 28.3952L16.2387 26.1629C16.5154 26.0375 16.8341 26.0447 17.1049 26.1825L21.4405 28.3883L26.1874 26.1679C26.4633 26.0389 26.783 26.0426 27.0558 26.1781L30.499 27.8878V4.49902H2.50085ZM18.9998 12.4984C18.4475 12.4984 17.9998 12.9461 17.9998 13.4984C17.9998 14.0507 18.4475 14.4984 18.9998 14.4984H26.4993C27.0516 14.4984 27.4993 14.0507 27.4993 13.4984C27.4993 12.9461 27.0516 12.4984 26.4993 12.4984H18.9998ZM18.9998 17.4981C18.4475 17.4981 17.9998 17.9458 17.9998 18.4981C17.9998 19.0504 18.4475 19.4981 18.9998 19.4981H26.4993C27.0516 19.4981 27.4993 19.0504 27.4993 18.4981C27.4993 17.9458 27.0516 17.4981 26.4993 17.4981H18.9998ZM6.50055 9.99856C5.94826 9.99856 5.50055 10.4463 5.50055 10.9986V20.9979C5.50055 21.5502 5.94826 21.9979 6.50055 21.9979H14.0001C14.5524 21.9979 15.0001 21.5502 15.0001 20.9979V10.9986C15.0001 10.4463 14.5524 9.99856 14.0001 9.99856H6.50055ZM7.50055 19.9979V11.9986H13.0001V19.9979H7.50055Z" fill="#111827"/>
</svg>
