<svg width="33" height="33" viewBox="0 0 33 33" fill="none" xmlns="http://www.w3.org/2000/svg">
<path fill-rule="evenodd" clip-rule="evenodd" d="M6.02643 5.19336C5.47415 5.19336 5.02643 5.64107 5.02643 6.19336V25.8064H3.76364H3.50086C2.94857 25.8064 2.50085 25.3587 2.50085 24.8064V10.9838C2.50085 10.4316 2.05314 9.98384 1.50085 9.98384C0.94857 9.98384 0.500854 10.4316 0.500854 10.9838V24.8064C0.500854 26.4633 1.844 27.8064 3.50086 27.8064H3.76364H6.02643H31.499C32.0513 27.8064 32.499 27.3587 32.499 26.8064V6.19336C32.499 5.64107 32.0513 5.19336 31.499 5.19336H6.02643ZM30.499 25.8064H7.02643V7.19336H30.499V25.8064ZM11.9455 14.3104C11.9455 13.7581 12.3932 13.3104 12.9455 13.3104H24.5415C25.0938 13.3104 25.5415 13.7581 25.5415 14.3104C25.5415 14.8627 25.0938 15.3104 24.5415 15.3104H12.9455C12.3932 15.3104 11.9455 14.8627 11.9455 14.3104ZM11.9455 18.9489C11.9455 18.3966 12.3932 17.9489 12.9455 17.9489H24.5415C25.0938 17.9489 25.5415 18.3966 25.5415 18.9489C25.5415 19.5012 25.0938 19.9489 24.5415 19.9489H12.9455C12.3932 19.9489 11.9455 19.5012 11.9455 18.9489Z" fill="#111827"/>
</svg>
