<svg width="33" height="32" viewBox="0 0 33 32" fill="none" xmlns="http://www.w3.org/2000/svg">
<path fill-rule="evenodd" clip-rule="evenodd" d="M2.50073 15.9999C2.50073 8.26846 8.76834 2.00085 16.4998 2.00085C24.2313 2.00085 30.4989 8.26846 30.4989 15.9999C30.4989 20.7505 28.1327 24.9483 24.5145 27.4792L10.4033 7.93297C10.3894 7.91316 10.3748 7.89389 10.3595 7.87518C10.1878 7.66522 9.93239 7.52637 9.64425 7.50952C9.5215 7.50216 9.39697 7.5173 9.2773 7.55602C9.15763 7.59467 9.04784 7.65526 8.95264 7.73305C8.72875 7.91544 8.60293 8.17765 8.58669 8.44851C8.58525 8.47254 8.58467 8.49664 8.58496 8.52076V23.9167C8.58496 24.469 9.03268 24.9167 9.58496 24.9167C10.1372 24.9167 10.585 24.469 10.585 23.9167V11.6014L22.7913 28.509C20.8998 29.4622 18.7625 29.999 16.4998 29.999C8.76834 29.999 2.50073 23.7314 2.50073 15.9999ZM16.4998 0.000854492C7.66377 0.000854492 0.500732 7.16389 0.500732 15.9999C0.500732 24.836 7.66377 31.999 16.4998 31.999C25.3359 31.999 32.4989 24.836 32.4989 15.9999C32.4989 7.16389 25.3359 0.000854492 16.4998 0.000854492ZM22.6245 7.50779C23.1768 7.50779 23.6245 7.95551 23.6245 8.50779V19.5512C23.6245 20.1035 23.1768 20.5512 22.6245 20.5512C22.0722 20.5512 21.6245 20.1035 21.6245 19.5512V8.50779C21.6245 7.95551 22.0722 7.50779 22.6245 7.50779Z" fill="#111827"/>
</svg>
