<svg width="33" height="32" viewBox="0 0 33 32" fill="none" xmlns="http://www.w3.org/2000/svg">
<path fill-rule="evenodd" clip-rule="evenodd" d="M2.50073 15.9999C2.50073 8.26846 8.76834 2.00085 16.4998 2.00085C24.2313 2.00085 30.4989 8.26846 30.4989 15.9999C30.4989 20.7505 28.1326 24.9483 24.5145 27.4792L10.4032 7.93292C10.3893 7.91312 10.3747 7.89385 10.3594 7.87514C10.1877 7.66518 9.93229 7.52633 9.64414 7.50948C9.52139 7.50212 9.39687 7.51726 9.27719 7.55597C9.15753 7.59463 9.04773 7.65522 8.95253 7.73301C8.72864 7.9154 8.60283 8.17761 8.58659 8.44847C8.58514 8.4725 8.58457 8.4966 8.58486 8.52072V23.9167C8.58486 24.469 9.03257 24.9167 9.58486 24.9167C10.1371 24.9167 10.5849 24.469 10.5849 23.9167V11.6013L22.7912 28.509C20.8997 29.4622 18.7625 29.999 16.4998 29.999C8.76834 29.999 2.50073 23.7314 2.50073 15.9999ZM16.4998 0.000854492C7.66377 0.000854492 0.500732 7.16389 0.500732 15.9999C0.500732 24.836 7.66377 31.999 16.4998 31.999C25.3359 31.999 32.4989 24.836 32.4989 15.9999C32.4989 7.16389 25.3359 0.000854492 16.4998 0.000854492ZM22.6244 7.50775C23.1767 7.50775 23.6244 7.95547 23.6244 8.50775V19.5512C23.6244 20.1035 23.1767 20.5512 22.6244 20.5512C22.0721 20.5512 21.6244 20.1035 21.6244 19.5512V8.50775C21.6244 7.95547 22.0721 7.50775 22.6244 7.50775Z" fill="#111827"/>
</svg>
