<svg width="33" height="32" viewBox="0 0 33 32" fill="none" xmlns="http://www.w3.org/2000/svg">
<path fill-rule="evenodd" clip-rule="evenodd" d="M17.8256 4.71915C17.8256 3.92354 17.1806 3.27856 16.385 3.27856C15.5894 3.27856 14.9444 3.92354 14.9444 4.71915C14.9444 5.51476 15.5894 6.15973 16.385 6.15973C17.1806 6.15973 17.8256 5.51476 17.8256 4.71915ZM16.385 1.27856C18.2852 1.27856 19.8256 2.81897 19.8256 4.71915C19.8256 6.27154 18.7975 7.5838 17.385 8.01216V11.6365L20.9052 13.6064L25.4677 9.04384C25.2438 8.58722 25.1181 8.07371 25.1181 7.53083C25.1181 5.63065 26.6585 4.09025 28.5587 4.09025C30.4588 4.09025 31.9992 5.63065 31.9992 7.53083C31.9992 9.43102 30.4588 10.9714 28.5587 10.9714C27.9295 10.9714 27.3398 10.8025 26.8324 10.5076L22.7188 14.6212L24.692 15.7254C24.9201 15.853 25.0855 16.0624 25.1599 16.3053C25.1921 16.4097 25.2063 16.5169 25.2037 16.6229V25.3462C25.2037 25.7083 25.008 26.0421 24.692 26.2189L16.8732 30.5941C16.5698 30.7639 16.2 30.7639 15.8966 30.5941L8.07781 26.2189C7.76184 26.0421 7.56613 25.7083 7.56613 25.3462V16.598C7.56613 16.236 7.76184 15.9022 8.07781 15.7254L9.55748 14.8974L5.16769 10.5076C4.66025 10.8025 4.07051 10.9714 3.44132 10.9714C1.54113 10.9714 0.000732422 9.43102 0.000732422 7.53083C0.000732422 5.63065 1.54113 4.09025 3.44132 4.09025C5.3415 4.09025 6.8819 5.63065 6.8819 7.53083C6.8819 8.07368 6.75618 8.58716 6.53227 9.04376L11.3711 13.8826L15.385 11.6365V8.01214C13.9725 7.58376 12.9444 6.27152 12.9444 4.71915C12.9444 2.81897 14.4848 1.27856 16.385 1.27856ZM3.44132 6.09025C2.6457 6.09025 2.00073 6.73522 2.00073 7.53083C2.00073 8.32644 2.6457 8.97142 3.44132 8.97142C4.23693 8.97142 4.8819 8.32644 4.8819 7.53083C4.8819 6.73522 4.23693 6.09025 3.44132 6.09025ZM28.5587 6.09025C29.3543 6.09025 29.9992 6.73522 29.9992 7.53083C29.9992 8.32644 29.3543 8.97142 28.5587 8.97142C27.763 8.97142 27.1181 8.32644 27.1181 7.53083C27.1181 6.73522 27.763 6.09025 28.5587 6.09025ZM22.1687 16.6052L16.3849 13.3688L10.6627 16.5708L16.5031 19.8239L22.1687 16.6052ZM9.56613 18.2494V24.7599L15.4719 28.0646V21.5388L9.56613 18.2494ZM23.2037 24.7599L17.4719 27.9673V21.5738L23.2037 18.3174V24.7599Z" fill="#111827"/>
</svg>
