<svg width="33" height="33" viewBox="0 0 33 33" fill="none" xmlns="http://www.w3.org/2000/svg">
<path d="M16.9552 28.533C16.6361 28.533 16.3123 28.4472 16.0313 28.2853L13.0929 26.547C12.6548 26.2994 12.8691 26.2137 13.0119 26.1661C13.5977 25.9613 13.7168 25.9184 14.3406 25.5612C14.4073 25.5231 14.493 25.5374 14.5597 25.5803L16.8171 26.9185C16.898 26.9661 17.0123 26.9661 17.0885 26.9185L25.8846 21.8418C25.9656 21.7942 26.018 21.6989 26.018 21.6037V11.4503C26.018 11.3503 25.9656 11.2598 25.8799 11.2074L17.0885 6.1355C17.0076 6.08788 16.898 6.08788 16.8171 6.1355L8.03049 11.2122C7.94477 11.2598 7.89239 11.3551 7.89239 11.4551V21.6037C7.89239 21.6989 7.94477 21.7942 8.03049 21.8371L10.4403 23.2277C11.7499 23.8801 12.55 23.1134 12.55 22.3371V12.3171C12.55 12.1742 12.6643 12.0647 12.8072 12.0647H13.9216C14.0597 12.0647 14.1787 12.1742 14.1787 12.3171V22.3419C14.1787 24.0849 13.2262 25.085 11.5737 25.085C11.0641 25.085 10.6641 25.085 9.54969 24.5326L7.2447 23.2039C6.67322 22.8753 6.3208 22.2609 6.3208 21.5989V11.4503C6.3208 10.7931 6.67322 10.174 7.2447 9.84539L16.0313 4.7687C16.5885 4.45438 17.3267 4.45438 17.8791 4.7687L26.6752 9.85015C27.2467 10.1788 27.5991 10.7931 27.5991 11.4551V21.6037C27.5991 22.2609 27.2467 22.8753 26.6752 23.2086L17.8791 28.2853C17.5981 28.4472 17.279 28.533 16.9552 28.533ZM24.0559 18.5272C24.0559 16.627 22.77 16.1222 20.0698 15.765C17.3362 15.4031 17.06 15.2174 17.06 14.5792C17.06 14.0506 17.2933 13.3457 19.3173 13.3457C21.1223 13.3457 21.789 13.7363 22.0652 14.9554C22.089 15.0697 22.1938 15.1554 22.3129 15.1554H23.4558C23.5273 15.1554 23.5939 15.1269 23.6416 15.0745C23.6892 15.0221 23.713 14.9507 23.7082 14.8792C23.532 12.779 22.1367 11.8027 19.3173 11.8027C16.8076 11.8027 15.3122 12.86 15.3122 14.6363C15.3122 16.5603 16.8028 17.0937 19.2078 17.3318C22.089 17.6128 22.3129 18.0367 22.3129 18.6034C22.3129 19.5845 21.5223 20.0035 19.6697 20.0035C17.3409 20.0035 16.8314 19.4178 16.6599 18.2605C16.6409 18.1367 16.5361 18.0462 16.4075 18.0462H15.2693C15.1264 18.0462 15.0169 18.1605 15.0169 18.2986C15.0169 19.7797 15.8217 21.5466 19.6745 21.5466C22.4557 21.5418 24.0559 20.4417 24.0559 18.5272V18.5272Z" fill="#1C1B1F"/>
</svg>
