<svg width="33" height="32" viewBox="0 0 33 32" fill="none" xmlns="http://www.w3.org/2000/svg">
<g clip-path="url(#clip0_6_1685)">
<path fill-rule="evenodd" clip-rule="evenodd" d="M29.5758 7.2193L17.5665 0.285756C16.9066 -0.0952524 16.0935 -0.0952515 15.4336 0.285756L3.42437 7.2193C2.76444 7.60031 2.35791 8.30444 2.35791 9.06646V22.9335C2.35791 23.6956 2.76444 24.3997 3.42437 24.7807L6.58524 26.6056C6.60689 26.6181 6.63168 26.6224 6.65536 26.6186L6.97303 26.8032L6.97435 26.804C8.14072 27.4774 9.51207 27.263 10.5527 26.6201C11.5926 25.9778 12.4109 24.8434 12.4229 23.52L12.4229 23.515L12.4175 10.0569L8.89683 10.0463L8.84358 23.1285L8.84357 23.1296C8.84314 23.1695 8.83921 23.1961 8.83544 23.2126L8.82586 23.2135L6.15695 21.6978C6.12358 21.6789 6.10296 21.6435 6.10296 21.6051L6.10296 9.95033C6.10296 9.91196 6.12358 9.87655 6.15695 9.8576L16.4476 4.01356C16.4802 3.99501 16.5202 3.99501 16.5529 4.01356L26.8435 9.8576C26.8769 9.87655 26.8975 9.91196 26.8975 9.95033V21.6051C26.8975 21.6435 26.8769 21.6789 26.8435 21.6978L16.5529 27.5419C16.5202 27.5604 16.4802 27.5604 16.4476 27.5419L14.0343 26.1713C14.0117 26.1585 13.9855 26.1545 13.9605 26.1595C12.8866 25.7263 11.6316 26.2846 11.2645 27.4275C11.0081 28.2255 11.2688 29.0851 11.8927 29.6091C11.8929 29.6446 11.9103 29.6801 11.946 29.7007L15.4336 31.7142C16.0935 32.0952 16.9066 32.0952 17.5665 31.7142L29.5758 24.7807C30.2357 24.3997 30.6422 23.6956 30.6422 22.9335V9.06645C30.6422 8.30444 30.2357 7.60031 29.5758 7.2193ZM14.7622 30.0952L15.9668 30.7907C16.2968 30.9812 16.7033 30.9812 17.0333 30.7907L29.0426 23.8571C29.3725 23.6666 29.5758 23.3145 29.5758 22.9335V9.06645C29.5758 8.68545 29.3725 8.33338 29.0426 8.14288L17.0333 1.20933C16.7033 1.01883 16.2968 1.01883 15.9668 1.20933L3.95759 8.14288C3.62763 8.33338 3.42437 8.68545 3.42437 9.06646V22.9335C3.42437 23.3145 3.62763 23.6666 3.95759 23.8571L3.96856 23.8635L3.98586 23.8337L7.50759 25.8804C8.24687 26.3069 9.1902 26.2083 9.99226 25.7128C10.7946 25.2172 11.3475 24.389 11.3565 23.5127L11.3515 11.1201L9.95894 11.1159L9.91001 23.1355L9.90999 23.1381C9.90759 23.4028 9.84278 23.6635 9.67874 23.8776C9.511 24.0965 9.2801 24.2136 9.04797 24.2582C8.61551 24.3412 8.14885 24.1852 7.77997 23.9723L7.76967 23.9663L5.67309 22.6925L5.69253 22.6605L5.57632 22.5945C5.24265 22.405 5.03651 22.0509 5.03651 21.6672V9.88826C5.03651 9.50454 5.24265 9.1504 5.57632 8.96091L15.9736 3.0563C16.3002 2.87083 16.7003 2.87083 17.0269 3.0563L27.4241 8.96091C27.7578 9.1504 27.9639 9.50453 27.9639 9.88826V21.6672C27.9639 22.0509 27.7578 22.405 27.4241 22.5945L17.0269 28.4991C16.7003 28.6846 16.3002 28.6846 15.9736 28.4991L15.067 27.9842L15.0502 28.0127L13.6954 27.2147C13.1599 26.8992 12.4699 27.1619 12.2798 27.7537C12.1398 28.1895 12.3236 28.6638 12.7206 28.8916L14.7762 30.0707L14.7622 30.0952Z" fill="#111827"/>
<path fill-rule="evenodd" clip-rule="evenodd" d="M15.3606 11.0743C16.3299 10.3887 17.687 10.0505 19.2998 10.0505C21.0638 10.0505 22.4882 10.2766 23.5107 10.908C24.5786 11.5674 25.1281 12.6155 25.2474 14.0382L25.2482 14.0473C25.2633 14.2734 25.189 14.5056 25.0284 14.6823C24.8649 14.8621 24.6375 14.9567 24.4047 14.9567H22.9948C22.5986 14.9567 22.2519 14.6778 22.1686 14.2913C22.0924 13.9562 21.9981 13.7357 21.8919 13.5835C21.7912 13.4393 21.6654 13.3355 21.4848 13.255C21.0794 13.0745 20.4347 13.0203 19.2998 13.0203C18.091 13.0203 17.5417 13.235 17.2987 13.4241C17.0958 13.582 17.0485 13.7687 17.0485 14.0085C17.0485 14.1776 17.0699 14.2181 17.0767 14.2293C17.0807 14.2358 17.1157 14.2935 17.3125 14.3756C17.7403 14.5541 18.5901 14.7166 20.2979 14.9427C21.9556 15.1619 23.294 15.4363 24.2164 16.0079C24.6934 16.3035 25.0692 16.6836 25.3204 17.1776C25.5691 17.6668 25.6781 18.2336 25.6781 18.8785C25.6781 20.2309 25.1015 21.3264 24.0316 22.0633C22.9873 22.7825 21.5152 23.1331 19.7413 23.1362C17.2937 23.1362 15.7034 22.576 14.7249 21.6777C13.7377 20.7714 13.4618 19.6043 13.4618 18.5965C13.4618 18.1383 13.8291 17.752 14.3064 17.752H15.7104C16.1297 17.752 16.4849 18.0531 16.5488 18.4685L16.5493 18.4714C16.6462 19.1257 16.8181 19.4794 17.1744 19.7152C17.5777 19.982 18.3149 20.1664 19.7345 20.1664C20.8598 20.1664 21.5636 20.035 21.972 19.8187C22.1641 19.7169 22.2768 19.6034 22.3458 19.4849C22.4157 19.3646 22.4616 19.2028 22.4616 18.9725C22.4616 18.8271 22.4452 18.7689 22.4256 18.7321C22.4095 18.702 22.3601 18.6278 22.1705 18.5312C21.7573 18.3208 20.8936 18.1084 19.1129 17.9347C17.6255 17.7875 16.3168 17.5431 15.3753 16.9787C14.8923 16.6892 14.4964 16.3104 14.2251 15.8143C13.9548 15.3201 13.8261 14.7419 13.8261 14.079C13.8261 12.8125 14.3695 11.7754 15.3606 11.0743ZM15.9765 11.945C15.2714 12.4438 14.8925 13.1544 14.8925 14.079C14.8925 14.6028 14.9936 14.9969 15.1608 15.3027C15.327 15.6066 15.5761 15.8557 15.9236 16.064C16.6431 16.4953 17.7378 16.7269 19.2169 16.8733C20.9899 17.0463 22.0412 17.2686 22.6545 17.5809C22.9782 17.7458 23.2199 17.9551 23.3667 18.2304C23.5099 18.4991 23.5281 18.7684 23.5281 18.9725C23.5281 19.3473 23.4521 19.7039 23.2677 20.0209C23.0824 20.3396 22.8086 20.5823 22.4712 20.761C21.8207 21.1057 20.8944 21.2328 19.7345 21.2328C18.2814 21.2328 17.268 21.0559 16.5859 20.6046C15.9173 20.1621 15.6532 19.5186 15.5257 18.8184H14.5339C14.5719 19.565 14.8117 20.3096 15.4461 20.8921C16.1521 21.5402 17.4353 22.0697 19.74 22.0697C21.3965 22.0668 22.6265 21.7361 23.4267 21.185C24.2014 20.6514 24.6117 19.8877 24.6117 18.8785C24.6117 18.3515 24.5225 17.9614 24.3697 17.6609C24.2193 17.3651 23.9904 17.1225 23.6546 16.9144C22.9513 16.4785 21.8311 16.2212 20.158 15.9999C18.4938 15.7796 17.4873 15.6042 16.9017 15.3598C16.5929 15.2309 16.3312 15.0558 16.1656 14.7835C16.0031 14.5164 15.982 14.233 15.982 14.0085C15.982 13.5963 16.0786 13.0223 16.6438 12.5824C17.1689 12.1738 18.0118 11.9538 19.2998 11.9538C20.3912 11.9538 21.271 11.9924 21.9186 12.2808C22.2645 12.4348 22.5474 12.6594 22.7663 12.973C22.95 13.2361 23.0764 13.5443 23.1681 13.8902H24.1596C24.0269 12.863 23.617 12.2271 22.9504 11.8154C22.1885 11.345 21.0135 11.1169 19.2998 11.1169C17.8167 11.1169 16.7035 11.4307 15.9765 11.945Z" fill="#111827"/>
</g>
<defs>
<clipPath id="clip0_6_1685">
<rect width="32" height="32" fill="white" transform="translate(0.5)"/>
</clipPath>
</defs>
</svg>
