<svg width="33" height="32" viewBox="0 0 33 32" fill="none" xmlns="http://www.w3.org/2000/svg">
<path fill-rule="evenodd" clip-rule="evenodd" d="M13.0523 0.436105C13.3635 -0.020145 13.9857 -0.13772 14.4419 0.173494L17.1634 2.02987C17.6197 2.34108 17.7372 2.96323 17.426 3.41948L15.5697 6.14098C15.2584 6.59723 14.6363 6.71481 14.18 6.40359C13.7238 6.09238 13.6062 5.47023 13.9174 5.01398L14.5846 4.03589C8.28422 4.96247 3.448 10.3907 3.448 16.9484C3.448 20.0174 4.50593 22.8364 6.27775 25.0648C6.62147 25.4971 6.54967 26.1262 6.11739 26.4699C5.6851 26.8136 5.05602 26.7418 4.71229 26.3095C2.66923 23.74 1.448 20.4855 1.448 16.9484C1.448 9.56474 6.7645 3.42278 13.7783 2.14178L13.3149 1.82572C12.8587 1.51451 12.7411 0.892355 13.0523 0.436105ZM21.9657 3.96011C22.2159 3.46775 22.8178 3.27143 23.3102 3.52162C28.199 6.00584 31.5522 11.0847 31.5522 16.9484C31.5522 20.4418 30.3609 23.6597 28.3631 26.2142C28.0229 26.6492 27.3944 26.726 26.9594 26.3858C26.5243 26.0456 26.4475 25.4171 26.7877 24.9821C28.5202 22.7669 29.5522 19.9796 29.5522 16.9484C29.5522 11.8665 26.648 7.46111 22.4042 5.30463C21.9118 5.05444 21.7155 4.45248 21.9657 3.96011ZM7.52776 27.8096C7.84877 27.3602 8.47332 27.2561 8.92273 27.5771C11.0589 29.103 13.6732 30.0005 16.5001 30.0005C19.1323 30.0005 21.5798 29.2224 23.6286 27.8839C24.091 27.5818 24.7107 27.7118 25.0127 28.1741C25.3148 28.6365 25.1848 29.2562 24.7225 29.5583C22.3583 31.1028 19.5325 32.0005 16.5001 32.0005C13.2428 32.0005 10.2244 30.9647 7.76025 29.2046C7.31083 28.8836 7.20674 28.259 7.52776 27.8096ZM18.977 25.0066C19.1151 25.2458 19.4209 25.3277 19.66 25.1896L21.84 23.931C22.0791 23.793 22.1611 23.4872 22.023 23.248L21.4025 22.1733C21.29 21.9784 21.323 21.7338 21.4715 21.5648C22.0409 20.9169 22.4856 20.1568 22.7682 19.322C22.8404 19.1088 23.0359 18.9577 23.261 18.9577H24.5001C24.7763 18.9577 25.0001 18.7338 25.0001 18.4577V15.9405C25.0001 15.6644 24.7763 15.4405 24.5001 15.4405H23.2609C23.0358 15.4405 22.8404 15.2894 22.7682 15.0762C22.4855 14.2415 22.0408 13.4815 21.4715 12.8336C21.323 12.6647 21.29 12.42 21.4025 12.2251L22.0231 11.1502C22.1612 10.9111 22.0792 10.6053 21.8401 10.4672L19.6601 9.20863C19.421 9.07056 19.1152 9.1525 18.9771 9.39165L18.3572 10.4654C18.2448 10.6601 18.0166 10.7538 17.796 10.71C17.377 10.6268 16.9436 10.5832 16.5001 10.5832C16.0566 10.5832 15.6232 10.6268 15.2041 10.7101C14.9836 10.7539 14.7553 10.6601 14.6429 10.4654L14.023 9.39162C13.8849 9.15248 13.5791 9.07054 13.34 9.20861L11.16 10.4672C10.9209 10.6053 10.839 10.9111 10.977 11.1502L11.5977 12.2252C11.7102 12.42 11.6772 12.6647 11.5287 12.8337C10.9594 13.4815 10.5147 14.2415 10.2321 15.0762C10.1599 15.2894 9.96443 15.4405 9.73935 15.4405H8.50012C8.22398 15.4405 8.00012 15.6644 8.00012 15.9405V18.4577C8.00012 18.7338 8.22398 18.9577 8.50012 18.9577H9.73929C9.96437 18.9577 10.1598 19.1088 10.232 19.322C10.5146 20.1568 10.9593 20.9168 11.5287 21.5647C11.6772 21.7337 11.7102 21.9784 11.5977 22.1732L10.9771 23.2481C10.8391 23.4872 10.921 23.793 11.1601 23.9311L13.3401 25.1897C13.5792 25.3277 13.885 25.2458 14.0231 25.0066L14.6429 23.933C14.7554 23.7383 14.9836 23.6445 15.2041 23.6883C15.6232 23.7716 16.0566 23.8152 16.5001 23.8152C16.9436 23.8152 17.377 23.7716 17.796 23.6884C18.0166 23.6446 18.2448 23.7383 18.3572 23.933L18.977 25.0066ZM16.5002 21.4493C18.8474 21.4493 20.7502 19.5465 20.7502 17.1993C20.7502 14.8521 18.8474 12.9493 16.5002 12.9493C14.153 12.9493 12.2502 14.8521 12.2502 17.1993C12.2502 19.5465 14.153 21.4493 16.5002 21.4493Z" fill="#111827"/>
</svg>
