<svg width="33" height="32" viewBox="0 0 33 32" fill="none" xmlns="http://www.w3.org/2000/svg">
<path fill-rule="evenodd" clip-rule="evenodd" d="M9.57736 0.000915527C10.1296 0.000915527 10.5774 0.448631 10.5774 1.00092V2.30845H15.5V1.00092C15.5 0.448631 15.9477 0.000915527 16.5 0.000915527C17.0523 0.000915527 17.5 0.448631 17.5 1.00092V2.30845H22.4227V1.00092C22.4227 0.448631 22.8704 0.000915527 23.4227 0.000915527C23.9749 0.000915527 24.4227 0.448631 24.4227 1.00092V2.30845H28.2537C28.806 2.30845 29.2537 2.75616 29.2537 3.30845V30.9991C29.2537 31.5514 28.806 31.9991 28.2537 31.9991H4.74628C4.19399 31.9991 3.74628 31.5514 3.74628 30.9991V3.30845C3.74628 2.75616 4.19399 2.30845 4.74628 2.30845H8.57736V1.00092C8.57736 0.448631 9.02507 0.000915527 9.57736 0.000915527ZM8.57736 4.30845H5.74628V29.9991H27.2537V4.30845H24.4227V5.61602C24.4227 6.16831 23.9749 6.61602 23.4227 6.61602C22.8704 6.61602 22.4227 6.16831 22.4227 5.61602V4.30845H17.5V5.61602C17.5 6.16831 17.0523 6.61602 16.5 6.61602C15.9477 6.61602 15.5 6.16831 15.5 5.61602V4.30845H10.5774V5.61602C10.5774 6.16831 10.1296 6.61602 9.57736 6.61602C9.02507 6.61602 8.57736 6.16831 8.57736 5.61602V4.30845ZM11.8849 15C11.3326 15 10.8849 15.4477 10.8849 16C10.8849 16.5523 11.3326 17 11.8849 17H21.1151C21.6674 17 22.1151 16.5523 22.1151 16C22.1151 15.4477 21.6674 15 21.1151 15H11.8849ZM11.8849 19.6152C11.3326 19.6152 10.8849 20.0629 10.8849 20.6152C10.8849 21.1675 11.3326 21.6152 11.8849 21.6152H21.1151C21.6674 21.6152 22.1151 21.1675 22.1151 20.6152C22.1151 20.0629 21.6674 19.6152 21.1151 19.6152H11.8849Z" fill="#111827"/>
</svg>
