<svg width="33" height="32" viewBox="0 0 33 32" fill="none" xmlns="http://www.w3.org/2000/svg">
<path fill-rule="evenodd" clip-rule="evenodd" d="M1.50232 31.9978C0.950035 31.9978 0.502319 31.55 0.502319 30.9978V1.00226C0.502319 0.449972 0.950035 0.0022583 1.50232 0.0022583H31.4978C32.0501 0.0022583 32.4978 0.449972 32.4978 1.00226V22.2384C32.4978 22.5344 32.3666 22.8153 32.1396 23.0053L21.6733 31.7646C21.4934 31.9152 21.2662 31.9978 21.0315 31.9978H1.50232ZM2.50232 2.00226V29.9978H20.1336V22.3233C20.1336 21.771 20.5813 21.3233 21.1336 21.3233H30.4978V2.00226H2.50232ZM22.1336 23.3233V28.704L28.596 23.3233H22.1336Z" fill="#111827"/>
</svg>
