<svg width="33" height="32" viewBox="0 0 33 32" fill="none" xmlns="http://www.w3.org/2000/svg">
<path fill-rule="evenodd" clip-rule="evenodd" d="M2.50085 2.00092H17.282C17.8343 2.00092 18.282 1.5532 18.282 1.00092C18.282 0.448631 17.8343 0.000915527 17.282 0.000915527H2.00085C1.17243 0.000915527 0.500854 0.672486 0.500854 1.50091V30.4991C0.500854 31.3275 1.17243 31.9991 2.00085 31.9991H30.999C31.8275 31.9991 32.499 31.3275 32.499 30.4991V13.5108C32.499 12.9585 32.0513 12.5108 31.499 12.5108C30.9467 12.5108 30.499 12.9585 30.499 13.5108V29.9991H2.50085V2.00092ZM24.7106 0.292617C25.1013 -0.0967381 25.7335 -0.0961835 26.1236 0.293856L32.2061 6.37641C32.5954 6.76565 32.5968 7.39628 32.2094 7.78733L19.183 20.9354C18.9952 21.125 18.7394 21.2316 18.4726 21.2316L11.7393 21.2317C11.4573 21.2317 11.1883 21.1126 10.9988 20.9037C10.8092 20.6948 10.7167 20.4156 10.744 20.1349L11.3467 13.9329C11.3692 13.7016 11.4715 13.4853 11.6361 13.3213L24.7106 0.292617ZM22.2695 5.5486L13.3025 14.4842L12.8412 19.2316L18.0556 19.2316L26.9625 10.2416L22.2695 5.5486ZM23.6862 4.13687L28.3701 8.8208L30.0881 7.08679L25.4152 2.41394L23.6862 4.13687Z" fill="#111827"/>
</svg>
