<svg width="33" height="32" viewBox="0 0 33 32" fill="none" xmlns="http://www.w3.org/2000/svg">
<path fill-rule="evenodd" clip-rule="evenodd" d="M0.500854 30.9991C0.500854 31.5514 0.94857 31.9991 1.50085 31.9991H21.0318C21.2665 31.9991 21.4936 31.9166 21.6736 31.766L32.1408 23.0058C32.3679 22.8158 32.499 22.535 32.499 22.2389V1.00092C32.499 0.448631 32.0513 0.000915527 31.499 0.000915527H1.50085C0.94857 0.000915527 0.500854 0.448631 0.500854 1.00092V30.9991ZM2.50085 29.9991V2.00092H30.499V21.3238H21.1337C20.5814 21.3238 20.1337 21.7715 20.1337 22.3238V29.9991H2.50085ZM10.0457 10.5459C10.0457 9.99358 10.4934 9.54587 11.0457 9.54587H21.9541C22.5064 9.54587 22.9541 9.99358 22.9541 10.5459C22.9541 11.0982 22.5064 11.5459 21.9541 11.5459H11.0457C10.4934 11.5459 10.0457 11.0982 10.0457 10.5459ZM10.0457 16C10.0457 15.4477 10.4934 15 11.0457 15H21.9541C22.5064 15 22.9541 15.4477 22.9541 16C22.9541 16.5523 22.5064 17 21.9541 17H11.0457C10.4934 17 10.0457 16.5523 10.0457 16ZM11.0457 20.4543C10.4934 20.4543 10.0457 20.902 10.0457 21.4543C10.0457 22.0066 10.4934 22.4543 11.0457 22.4543H16.4999C17.0522 22.4543 17.4999 22.0066 17.4999 21.4543C17.4999 20.902 17.0522 20.4543 16.4999 20.4543H11.0457ZM22.1337 23.3238V28.7052L28.597 23.3238H22.1337Z" fill="#111827"/>
</svg>
