<svg width="33" height="32" viewBox="0 0 33 32" fill="none" xmlns="http://www.w3.org/2000/svg">
<path fill-rule="evenodd" clip-rule="evenodd" d="M1.50092 0.000915527C0.948631 0.000915527 0.500916 0.448631 0.500916 1.00092V30.9991C0.500916 31.5514 0.948631 31.9991 1.50092 31.9991H9.00051H31.4991C32.0514 31.9991 32.4991 31.5514 32.4991 30.9991V1.00092C32.4991 0.448631 32.0514 0.000915527 31.4991 0.000915527H9.00051H1.50092ZM8.00051 2.00092H2.50092V29.9991H8.00051L8.00051 2.00092ZM10.0005 29.9991L10.0005 2.00092H30.4991V29.9991H10.0005ZM14.0001 12.5001C13.4479 12.5001 13.0001 12.9479 13.0001 13.5001C13.0001 14.0524 13.4479 14.5001 14.0001 14.5001H23.9995C24.5518 14.5001 24.9995 14.0524 24.9995 13.5001C24.9995 12.9479 24.5518 12.5001 23.9995 12.5001H14.0001ZM14.0001 17.4998C13.4479 17.4998 13.0001 17.9475 13.0001 18.4998C13.0001 19.0521 13.4479 19.4998 14.0001 19.4998H23.9995C24.5518 19.4998 24.9995 19.0521 24.9995 18.4998C24.9995 17.9475 24.5518 17.4998 23.9995 17.4998H14.0001Z" fill="#111827"/>
</svg>
