<svg width="33" height="32" viewBox="0 0 33 32" fill="none" xmlns="http://www.w3.org/2000/svg">
<path fill-rule="evenodd" clip-rule="evenodd" d="M1.49957 -0.000732422C0.947288 -0.000732422 0.499573 0.446983 0.499573 0.999268V31.0008C0.499573 31.5531 0.947288 32.0008 1.49957 32.0008H31.5004C32.0527 32.0008 32.5004 31.5531 32.5004 31.0008V16C32.5004 15.4478 32.0527 15 31.5004 15C30.9481 15 30.5004 15.4478 30.5004 16V30.0008H2.49957V1.99927H16.5C17.0523 1.99927 17.5 1.55155 17.5 0.999268C17.5 0.446983 17.0523 -0.000732422 16.5 -0.000732422H1.49957ZM23.3596 5.57766C23.3596 3.60979 24.9549 2.01452 26.9228 2.01452C28.8906 2.01452 30.4859 3.60979 30.4859 5.57766C30.4859 7.54552 28.8906 9.14079 26.9228 9.14079C24.9549 9.14079 23.3596 7.54552 23.3596 5.57766ZM26.9228 0.0145203C23.8503 0.0145203 21.3596 2.50522 21.3596 5.57766C21.3596 8.65009 23.8503 11.1408 26.9228 11.1408C29.9952 11.1408 32.4859 8.65009 32.4859 5.57766C32.4859 2.50522 29.9952 0.0145203 26.9228 0.0145203Z" fill="#111827"/>
</svg>
