<svg width="33" height="32" viewBox="0 0 33 32" fill="none" xmlns="http://www.w3.org/2000/svg">
<path fill-rule="evenodd" clip-rule="evenodd" d="M0.501709 10.0056H1.00171H9.7626H10.2626H10.2626H10.7626H19.0233H19.5233H19.5235H20.0235H31.9984H32.4984V10.5056V19.7663V20.2663H31.9984H29.2042H28.7042V19.7663V13.839H27.8727V19.7663V20.2663H27.3727H25.544H25.044V19.7663V13.839H24.2125V19.7663V20.2663H23.7125L20.0235 20.2663H19.5235L19.5233 20.2663H19.0233L15.9684 20.2663V21.4944V21.9944H15.4684H10.2626H9.7626V21.4944V20.2663H7.42879H6.92879V19.7663V13.839H6.09729V19.7663V20.2663H5.59729H1.00171H0.501709V19.7663V10.5056V10.0056ZM19.0233 11.0056V19.2663H15.4684H14.9684V19.7663V20.9944H10.7626V11.0056H19.0233ZM20.0235 19.2663H23.2125V13.339V12.839H23.7125H25.544H26.044V13.339V19.2663H26.8727V13.339V12.839H27.3727H29.2042H29.7042V13.339V19.2663H31.4984V11.0056H20.0235V19.2663ZM1.50171 11.0056V19.2663H5.09729V13.339V12.839H5.59729H7.42879H7.92879V13.339V19.2663H9.76258V11.0056H1.50171ZM14.1531 12.839H14.6531H16.4846H16.9846V13.339V16.8984V17.3984H16.4846H14.6531H14.1531V16.8984V13.339V12.839ZM15.1531 13.839V16.3984H15.9846V13.839H15.1531Z" fill="#111827"/>
</svg>
