<svg width="33" height="32" viewBox="0 0 33 32" fill="none" xmlns="http://www.w3.org/2000/svg">
<path fill-rule="evenodd" clip-rule="evenodd" d="M16.5 2.0022C8.76922 2.0022 2.5022 8.26922 2.5022 16C2.5022 23.7307 8.76922 29.9978 16.5 29.9978C24.2307 29.9978 30.4978 23.7307 30.4978 16C30.4978 8.26922 24.2307 2.0022 16.5 2.0022ZM0.502197 16C0.502197 7.16465 7.66465 0.00219727 16.5 0.00219727C25.3353 0.00219727 32.4978 7.16465 32.4978 16C32.4978 24.8353 25.3353 31.9978 16.5 31.9978C7.66465 31.9978 0.502197 24.8353 0.502197 16ZM21.1621 16.1759C21.1573 16.1845 21.1523 16.1931 21.1472 16.2016L21.1461 16.2034C21.127 16.2362 21.1076 16.2687 21.0879 16.301L16.1091 24.6371C15.8259 25.1113 15.212 25.2661 14.7378 24.9829C14.2637 24.6997 14.1089 24.0857 14.3921 23.6116L17.2522 18.8227C17.0064 18.8571 16.7552 18.8749 16.4999 18.8749C13.5317 18.8749 11.1255 16.4688 11.1255 13.5006C11.1255 10.5324 13.5317 8.12623 16.4999 8.12623C19.4681 8.12623 21.8742 10.5324 21.8742 13.5006C21.8742 14.4746 21.6151 15.3881 21.1621 16.1759ZM13.1255 13.5006C13.1255 11.637 14.6363 10.1262 16.4999 10.1262C18.3635 10.1262 19.8742 11.637 19.8742 13.5006C19.8742 15.3642 18.3635 16.8749 16.4999 16.8749C14.6363 16.8749 13.1255 15.3642 13.1255 13.5006Z" fill="#111827"/>
</svg>
