<svg width="33" height="32" viewBox="0 0 33 32" fill="none" xmlns="http://www.w3.org/2000/svg">
<path fill-rule="evenodd" clip-rule="evenodd" d="M1.50085 0.000854492C0.94857 0.000854492 0.500854 0.44857 0.500854 1.00085V30.999C0.500854 31.5513 0.94857 31.999 1.50085 31.999H31.499C32.0513 31.999 32.499 31.5513 32.499 30.999V1.00085C32.499 0.44857 32.0513 0.000854492 31.499 0.000854492H1.50085ZM2.50085 29.999V2.00085H30.499V29.999H2.50085ZM16.4999 10.1253C14.6361 10.1253 13.1252 11.6363 13.1252 13.5001C13.1252 15.3639 14.6361 16.8748 16.4999 16.8748C17.7095 16.8748 18.7705 16.2384 19.3663 15.2822L19.43 15.1755L19.4313 15.1734C19.7134 14.6802 19.8747 14.109 19.8747 13.5001C19.8747 11.6363 18.3637 10.1253 16.4999 10.1253ZM16.4999 18.8748C16.7551 18.8748 17.0061 18.857 17.2517 18.8227L14.3915 23.6117C14.1083 24.0859 14.2631 24.6998 14.7372 24.983C15.2114 25.2662 15.8253 25.1114 16.1085 24.6373L21.0664 16.3361C21.5787 15.5129 21.8747 14.541 21.8747 13.5001C21.8747 10.5317 19.4683 8.12535 16.4999 8.12535C13.5315 8.12535 11.1252 10.5317 11.1252 13.5001C11.1252 16.4685 13.5315 18.8748 16.4999 18.8748Z" fill="#111827"/>
</svg>
