<svg width="33" height="32" viewBox="0 0 33 32" fill="none" xmlns="http://www.w3.org/2000/svg">
<path fill-rule="evenodd" clip-rule="evenodd" d="M1.50085 0.000854492C0.94857 0.000854492 0.500854 0.44857 0.500854 1.00085V30.999C0.500854 31.5513 0.94857 31.999 1.50085 31.999H31.499C32.0513 31.999 32.499 31.5513 32.499 30.999V1.00085C32.499 0.44857 32.0513 0.000854492 31.499 0.000854492H1.50085ZM2.50085 29.999V2.00085H30.499V29.999H2.50085ZM12.8677 7.50039C12.3154 7.50039 11.8677 7.9481 11.8677 8.50039C11.8677 9.05267 12.3154 9.50039 12.8677 9.50039H18.2271L14.5961 14.7625C14.3851 15.0685 14.3611 15.4662 14.5338 15.7953C14.7066 16.1244 15.0476 16.3305 15.4192 16.3305C16.2926 16.3305 17.2502 16.692 17.9853 17.2983C18.7203 17.9044 19.1321 18.6649 19.1321 19.415C19.1321 21.1185 17.7511 22.4995 16.0476 22.4995C15.0777 22.4995 14.2129 22.053 13.6458 21.3505C13.2989 20.9208 12.6693 20.8536 12.2396 21.2005C11.8098 21.5474 11.7427 22.177 12.0896 22.6068C13.02 23.7594 14.4477 24.4995 16.0476 24.4995C18.8557 24.4995 21.1321 22.2231 21.1321 19.415C21.1321 17.9093 20.3154 16.6275 19.2578 15.7553C18.6426 15.2479 17.9118 14.8486 17.1359 14.6034L20.9552 9.06832C21.1663 8.76241 21.1903 8.36468 21.0175 8.0356C20.8448 7.70652 20.5038 7.50039 20.1321 7.50039H12.8677Z" fill="#111827"/>
</svg>
