<svg width="33" height="32" viewBox="0 0 33 32" fill="none" xmlns="http://www.w3.org/2000/svg">
<path fill-rule="evenodd" clip-rule="evenodd" d="M2.50085 15.9999C2.50085 8.26846 8.76846 2.00085 16.4999 2.00085C24.2314 2.00085 30.499 8.26846 30.499 15.9999C30.499 23.7314 24.2314 29.999 16.4999 29.999C8.76846 29.999 2.50085 23.7314 2.50085 15.9999ZM16.4999 0.000854492C7.66389 0.000854492 0.500854 7.16389 0.500854 15.9999C0.500854 24.836 7.66389 31.999 16.4999 31.999C25.336 31.999 32.499 24.836 32.499 15.9999C32.499 7.16389 25.336 0.000854492 16.4999 0.000854492ZM12.7626 7.50039C12.2103 7.50039 11.7626 7.94811 11.7626 8.50039C11.7626 9.05268 12.2103 9.50039 12.7626 9.50039H18.8629L14.4347 23.1917C14.2648 23.7172 14.553 24.281 15.0785 24.4509C15.6039 24.6209 16.1677 24.3327 16.3377 23.8072L21.1888 8.80813C21.2873 8.50378 21.2342 8.17071 21.046 7.91206C20.8578 7.65341 20.5572 7.50039 20.2374 7.50039H12.7626Z" fill="#111827"/>
</svg>
