<svg width="33" height="32" viewBox="0 0 33 32" fill="none" xmlns="http://www.w3.org/2000/svg">
<path fill-rule="evenodd" clip-rule="evenodd" d="M2.50085 15.9999C2.50085 8.26846 8.76846 2.00085 16.4999 2.00085C24.2314 2.00085 30.499 8.26846 30.499 15.9999C30.499 23.7314 24.2314 29.999 16.4999 29.999C8.76846 29.999 2.50085 23.7314 2.50085 15.9999ZM16.4999 0.000854492C7.66389 0.000854492 0.500854 7.16389 0.500854 15.9999C0.500854 24.836 7.66389 31.999 16.4999 31.999C25.336 31.999 32.499 24.836 32.499 15.9999C32.499 7.16389 25.336 0.000854492 16.4999 0.000854492ZM12.5002 15.9999C12.5002 14.0989 13.0157 12.423 13.7967 11.2517C14.5822 10.0733 15.5577 9.50039 16.4999 9.50039C17.4422 9.50039 18.4176 10.0733 19.2032 11.2517C19.9841 12.423 20.4996 14.0989 20.4996 15.9999C20.4996 17.901 19.9841 19.5768 19.2032 20.7482C18.4176 21.9266 17.4422 22.4995 16.4999 22.4995C15.5577 22.4995 14.5822 21.9266 13.7967 20.7482C13.0157 19.5768 12.5002 17.901 12.5002 15.9999ZM16.4999 7.50039C14.6809 7.50039 13.1565 8.60632 12.1326 10.1423C11.1039 11.6852 10.5002 13.7591 10.5002 15.9999C10.5002 18.2408 11.1039 20.3147 12.1326 21.8576C13.1565 23.3935 14.6809 24.4995 16.4999 24.4995C18.3189 24.4995 19.8433 23.3935 20.8673 21.8576C21.8959 20.3147 22.4996 18.2408 22.4996 15.9999C22.4996 13.7591 21.8959 11.6852 20.8673 10.1423C19.8433 8.60632 18.3189 7.50039 16.4999 7.50039Z" fill="#111827"/>
</svg>
