<svg width="32" height="32" viewBox="0 0 32 32" fill="none" xmlns="http://www.w3.org/2000/svg">
<path d="M16 28C22.6274 28 28 22.6274 28 16C28 9.37258 22.6274 4 16 4C9.37258 4 4 9.37258 4 16C4 22.6274 9.37258 28 16 28Z" stroke="#1C1B1F" stroke-width="2" stroke-miterlimit="10" stroke-linejoin="round"/>
<path d="M18.75 12.75C18.75 13.3862 18.5294 14.0028 18.1258 14.4946C17.7222 14.9864 17.1605 15.323 16.5365 15.4472C15.9125 15.5713 15.2648 15.4752 14.7037 15.1753C14.1426 14.8754 13.7028 14.3902 13.4593 13.8024C13.2159 13.2146 13.1837 12.5606 13.3684 11.9517C13.5531 11.3429 13.9432 10.8169 14.4722 10.4635C15.0012 10.11 15.6364 9.95089 16.2695 10.0132C16.9027 10.0756 17.4947 10.3556 17.9445 10.8055C18.2003 11.0605 18.4031 11.3636 18.5413 11.6974C18.6796 12.0311 18.7505 12.3888 18.75 12.75V12.75Z" stroke="#1C1B1F" stroke-width="2" stroke-linecap="round" stroke-linejoin="round"/>
<path d="M19.25 18.75C19.25 19.5019 18.9893 20.2306 18.5123 20.8118C18.0353 21.393 17.3715 21.7909 16.634 21.9376C15.8966 22.0842 15.1311 21.9707 14.468 21.6162C13.8048 21.2618 13.2851 20.6884 12.9974 19.9937C12.7097 19.2991 12.6717 18.5261 12.8899 17.8066C13.1082 17.0871 13.5692 16.4655 14.1944 16.0477C14.8196 15.63 15.5703 15.442 16.3186 15.5157C17.0668 15.5894 17.7664 15.9202 18.2981 16.4519C18.6003 16.7534 18.84 17.1116 19.0034 17.506C19.1667 17.9003 19.2506 18.3231 19.25 18.75V18.75Z" stroke="#1C1B1F" stroke-width="2" stroke-linecap="round" stroke-linejoin="round"/>
</svg>
