<svg width="33" height="32" viewBox="0 0 33 32" fill="none" xmlns="http://www.w3.org/2000/svg">
<path fill-rule="evenodd" clip-rule="evenodd" d="M1.50085 0.000854492C0.94857 0.000854492 0.500854 0.44857 0.500854 1.00085V30.999C0.500854 31.5513 0.94857 31.999 1.50085 31.999H31.499C32.0513 31.999 32.499 31.5513 32.499 30.999V1.00085C32.499 0.44857 32.0513 0.000854492 31.499 0.000854492H1.50085ZM2.50085 29.999V2.00085H30.499V29.999H2.50085ZM18.2623 7.64129C18.7365 7.9244 18.8914 8.53832 18.6083 9.01252L15.7485 13.8026C15.994 13.7683 16.2449 13.7505 16.4999 13.7505C19.4683 13.7505 21.8747 16.1568 21.8747 19.1252C21.8747 22.0936 19.4683 24.5 16.4999 24.5C13.5315 24.5 11.1252 22.0936 11.1252 19.1252C11.1252 18.0691 11.4298 17.0841 11.956 16.2533L16.8911 7.98728C17.1742 7.51308 17.7881 7.35817 18.2623 7.64129ZM13.5704 17.4508C13.5656 17.4588 13.5607 17.4668 13.5557 17.4747C13.2815 17.9627 13.1252 18.5257 13.1252 19.1252C13.1252 20.989 14.6361 22.5 16.4999 22.5C18.3637 22.5 19.8747 20.989 19.8747 19.1252C19.8747 17.2614 18.3637 15.7505 16.4999 15.7505C15.3042 15.7505 14.2536 16.3724 13.6542 17.3104L13.5704 17.4508Z" fill="#111827"/>
</svg>
