<svg width="33" height="32" viewBox="0 0 33 32" fill="none" xmlns="http://www.w3.org/2000/svg">
<path fill-rule="evenodd" clip-rule="evenodd" d="M1.50085 0.000854492C0.94857 0.000854492 0.500854 0.44857 0.500854 1.00085V30.999C0.500854 31.5513 0.94857 31.999 1.50085 31.999H31.499C32.0513 31.999 32.499 31.5513 32.499 30.999V1.00085C32.499 0.44857 32.0513 0.000854492 31.499 0.000854492H1.50085ZM2.50085 29.999V2.00085H30.499V29.999H2.50085ZM16.7389 9.51217C16.1778 9.4569 15.6148 9.59792 15.1459 9.91119C14.6771 10.2245 14.3314 10.6906 14.1677 11.2302C14.004 11.7698 14.0325 12.3495 14.2483 12.8704C14.4641 13.3914 14.8538 13.8214 15.3511 14.0872C15.7045 14.2761 16.0966 14.3738 16.4924 14.375H16.5076C16.6638 14.3745 16.8205 14.359 16.9755 14.3282C17.5286 14.2182 18.0264 13.9198 18.3841 13.4839C18.7418 13.048 18.9373 12.5016 18.9373 11.9377V11.9364C18.9377 11.6167 18.875 11.3001 18.7526 11.0047C18.6303 10.7093 18.4507 10.441 18.2244 10.2152L18.2235 10.2143C17.8247 9.81558 17.3001 9.56744 16.7389 9.51217ZM12.4005 13.6358C12.6662 14.2772 13.0768 14.843 13.5948 15.2917C12.6682 15.941 11.9848 16.8829 11.6558 17.9678C11.3158 19.0885 11.3749 20.2925 11.8231 21.3745C12.2713 22.4565 13.0808 23.3497 14.1137 23.9018C15.1466 24.4539 16.339 24.6307 17.4876 24.4022C18.6363 24.1738 19.6702 23.5541 20.4132 22.6487C21.1559 21.7437 21.562 20.6093 21.5623 19.4386L20.5623 19.4373H21.5623V19.4378C21.563 18.7727 21.4324 18.1141 21.1779 17.4996C20.9234 16.8852 20.55 16.3271 20.0792 15.8574C19.8703 15.6484 19.6446 15.4594 19.4053 15.2917C19.5941 15.1281 19.7698 14.948 19.9301 14.7527C20.5811 13.9595 20.937 12.9652 20.9373 11.939L19.9373 11.9377H20.9373V11.9383C20.938 11.3553 20.8235 10.7779 20.6004 10.2393C20.3772 9.70063 20.0499 9.21134 19.6371 8.79954C18.9113 8.07395 17.9563 7.6224 16.935 7.5218C15.9133 7.42118 14.8884 7.67791 14.0348 8.24825C13.1812 8.8186 12.5518 9.66726 12.2538 10.6496C11.9558 11.632 12.0077 12.6874 12.4005 13.6358ZM14.7987 16.8911C15.3019 16.5549 15.8913 16.3766 16.4919 16.375H16.5081C16.6053 16.3753 16.7028 16.3802 16.8002 16.3898C17.5052 16.4592 18.1644 16.771 18.6654 17.2719L18.6663 17.2728C18.9508 17.5566 19.1764 17.8938 19.3302 18.265C19.4839 18.6362 19.5628 19.0342 19.5623 19.436V19.4373C19.5623 20.1457 19.3166 20.8323 18.8672 21.3799C18.4177 21.9276 17.7923 22.3025 17.0974 22.4407C16.4026 22.5789 15.6813 22.4719 15.0565 22.1379C14.4317 21.804 13.942 21.2637 13.6709 20.6091C13.3998 19.9546 13.364 19.2263 13.5696 18.5483C13.7753 17.8704 14.2097 17.2847 14.7987 16.8911Z" fill="#111827"/>
</svg>
