<svg width="33" height="32" viewBox="0 0 33 32" fill="none" xmlns="http://www.w3.org/2000/svg">
<path fill-rule="evenodd" clip-rule="evenodd" d="M1.50085 0.000854492C0.94857 0.000854492 0.500854 0.44857 0.500854 1.00085V30.999C0.500854 31.5513 0.94857 31.999 1.50085 31.999H31.499C32.0513 31.999 32.499 31.5513 32.499 30.999V1.00085C32.499 0.44857 32.0513 0.000854492 31.499 0.000854492H1.50085ZM2.50085 29.999V2.00085H30.499V29.999H2.50085ZM12.5002 15.9999C12.5002 14.0989 13.0157 12.423 13.7967 11.2517C14.5822 10.0733 15.5577 9.50039 16.4999 9.50039C17.4422 9.50039 18.4176 10.0733 19.2032 11.2517C19.9841 12.423 20.4996 14.0989 20.4996 15.9999C20.4996 17.901 19.9841 19.5768 19.2032 20.7482C18.4176 21.9266 17.4422 22.4995 16.4999 22.4995C15.5577 22.4995 14.5822 21.9266 13.7967 20.7482C13.0157 19.5768 12.5002 17.901 12.5002 15.9999ZM16.4999 7.50039C14.6809 7.50039 13.1565 8.60632 12.1326 10.1423C11.1039 11.6852 10.5002 13.7591 10.5002 15.9999C10.5002 18.2408 11.1039 20.3147 12.1326 21.8576C13.1565 23.3935 14.6809 24.4995 16.4999 24.4995C18.3189 24.4995 19.8433 23.3935 20.8673 21.8576C21.8959 20.3147 22.4996 18.2408 22.4996 15.9999C22.4996 13.7591 21.8959 11.6852 20.8673 10.1423C19.8433 8.60632 18.3189 7.50039 16.4999 7.50039Z" fill="#111827"/>
</svg>
