<svg width="33" height="32" viewBox="0 0 33 32" fill="none" xmlns="http://www.w3.org/2000/svg">
<path fill-rule="evenodd" clip-rule="evenodd" d="M1.50085 0.000854492C0.94857 0.000854492 0.500854 0.44857 0.500854 1.00085V30.999C0.500854 31.5513 0.94857 31.999 1.50085 31.999H31.499C32.0513 31.999 32.499 31.5513 32.499 30.999V1.00085C32.499 0.44857 32.0513 0.000854492 31.499 0.000854492H1.50085ZM2.50085 29.999V2.00085H30.499V29.999H2.50085ZM13.5836 10.9425C14.1289 10.0741 15.0925 9.50039 16.1892 9.50039C17.8869 9.50039 19.2632 10.8766 19.2632 12.5743C19.2632 12.9594 19.2124 13.2015 18.9515 13.6468C18.9523 13.6453 18.9516 13.6464 18.949 13.6504C18.941 13.6624 18.9152 13.701 18.861 13.7777C18.7974 13.8676 18.7112 13.9868 18.604 14.1328C18.3902 14.4243 18.1015 14.8113 17.7624 15.2623C17.0847 16.1636 16.2125 17.3112 15.35 18.442C14.4877 19.5724 13.6362 20.6844 13.0001 21.514C12.6821 21.9287 12.418 22.2728 12.2334 22.5131L12.0194 22.7917L11.9632 22.8649L11.9488 22.8837L11.9451 22.8884L11.9442 22.8896L11.944 22.8899C11.944 22.8899 11.9439 22.89 12.7367 23.4995L11.9439 22.89C11.7118 23.192 11.6713 23.5996 11.8396 23.9413C12.008 24.2831 12.3558 24.4995 12.7367 24.4995H20.2632C20.8155 24.4995 21.2632 24.0518 21.2632 23.4995C21.2632 22.9472 20.8155 22.4995 20.2632 22.4995H14.7647C15.3778 21.6996 16.1544 20.685 16.9401 19.655C17.8035 18.5232 18.679 17.3711 19.3609 16.4642C19.7017 16.0111 19.9958 15.6168 20.2166 15.3159C20.4185 15.0408 20.6009 14.7879 20.6771 14.6578C21.1118 13.9158 21.2632 13.3262 21.2632 12.5743C21.2632 9.77207 18.9915 7.50039 16.1892 7.50039C14.376 7.50039 12.7858 8.45226 11.8899 9.87883C11.5961 10.3465 11.7372 10.9638 12.2049 11.2575C12.6726 11.5512 13.2898 11.4102 13.5836 10.9425Z" fill="#111827"/>
</svg>
