<svg width="33" height="32" viewBox="0 0 33 32" fill="none" xmlns="http://www.w3.org/2000/svg">
<path fill-rule="evenodd" clip-rule="evenodd" d="M1.50085 0.000854492C0.94857 0.000854492 0.500854 0.44857 0.500854 1.00085V30.999C0.500854 31.5513 0.94857 31.999 1.50085 31.999H31.499C32.0513 31.999 32.499 31.5513 32.499 30.999V1.00085C32.499 0.44857 32.0513 0.000854492 31.499 0.000854492H1.50085ZM2.50085 29.999V2.00085H30.499V29.999H2.50085ZM12.7626 7.50039C12.2103 7.50039 11.7626 7.9481 11.7626 8.50039C11.7626 9.05267 12.2103 9.50039 12.7626 9.50039H18.8629L14.4347 23.1917C14.2648 23.7172 14.553 24.281 15.0785 24.4509C15.6039 24.6209 16.1677 24.3327 16.3377 23.8072L21.1888 8.80812C21.2873 8.50378 21.2342 8.17071 21.046 7.91206C20.8578 7.65341 20.5572 7.50039 20.2374 7.50039H12.7626Z" fill="#111827"/>
</svg>
