<svg width="33" height="32" viewBox="0 0 33 32" fill="none" xmlns="http://www.w3.org/2000/svg">
<path fill-rule="evenodd" clip-rule="evenodd" d="M1.50085 0.000854492C0.94857 0.000854492 0.500854 0.44857 0.500854 1.00085V30.999C0.500854 31.5513 0.94857 31.999 1.50085 31.999H31.499C32.0513 31.999 32.499 31.5513 32.499 30.999V1.00085C32.499 0.44857 32.0513 0.000854492 31.499 0.000854492H1.50085ZM2.50085 29.999V2.00085H30.499V29.999H2.50085ZM16.7389 9.51213C16.1777 9.45686 15.6148 9.59788 15.1459 9.91115C14.6771 10.2244 14.3313 10.6906 14.1676 11.2302C14.004 11.7698 14.0324 12.3494 14.2482 12.8704C14.464 13.3914 14.8538 13.8214 15.3511 14.0872C15.7044 14.2761 16.0966 14.3737 16.4924 14.375H16.5076C16.6638 14.3745 16.8204 14.359 16.9755 14.3281C17.5285 14.2181 18.0263 13.9198 18.384 13.4839C18.7418 13.048 18.9373 12.5016 18.9373 11.9377V11.9364C18.9377 11.6167 18.8749 11.3 18.7526 11.0046C18.6302 10.7093 18.4507 10.441 18.2243 10.2152L18.2234 10.2143C17.8247 9.81554 17.3 9.5674 16.7389 9.51213ZM12.4005 13.6358C12.6662 14.2772 13.0767 14.8429 13.5947 15.2916C12.6681 15.941 11.9848 16.8829 11.6557 17.9677C11.3157 19.0885 11.3749 20.2924 11.8231 21.3745C12.2713 22.4565 13.0808 23.3496 14.1137 23.9017C15.1465 24.4538 16.3389 24.6307 17.4876 24.4022C18.6363 24.1737 19.6702 23.554 20.4132 22.6487C21.1559 21.7437 21.5619 20.6092 21.5622 19.4385V19.4372H20.5622L21.5622 19.4385C21.5631 18.7732 21.4325 18.1143 21.1779 17.4996C20.9233 16.8851 20.5499 16.3269 20.079 15.8571C19.8701 15.6482 19.6445 15.4593 19.4053 15.2916C19.5941 15.1281 19.7698 14.9479 19.9301 14.7527C20.581 13.9594 20.937 12.9651 20.9373 11.939L19.9373 11.9377H20.9373V11.9382C20.9379 11.3552 20.8234 10.7779 20.6003 10.2393C20.3772 9.70059 20.0499 9.2113 19.6371 8.7995C18.9112 8.07391 17.9563 7.62236 16.9349 7.52176C15.9133 7.42114 14.8883 7.67787 14.0348 8.24821C13.1812 8.81855 12.5518 9.66722 12.2538 10.6496C11.9558 11.632 12.0076 12.6873 12.4005 13.6358ZM16.4919 16.375L13.5947 15.2916C13.8427 15.5064 14.1152 15.6944 14.4083 15.851C15.0533 16.1958 15.7693 16.3736 16.4919 16.375ZM16.4919 16.375H16.5081C16.6053 16.3752 16.7027 16.3801 16.8001 16.3897C17.5052 16.4592 18.1644 16.7709 18.6653 17.2719L18.6662 17.2728C18.9507 17.5566 19.1763 17.8937 19.3301 18.2649C19.4839 18.6362 19.5628 19.0341 19.5622 19.4359L19.5622 19.4372C19.5622 20.1457 19.3166 20.8322 18.8671 21.3799C18.4177 21.9275 17.7923 22.3024 17.0974 22.4406C16.4025 22.5788 15.6813 22.4719 15.0565 22.1379C14.4316 21.8039 13.942 21.2636 13.6708 20.6091C13.3997 19.9546 13.3639 19.2263 13.5696 18.5483C13.7753 17.8703 14.2096 17.2847 14.7987 16.8911C15.3018 16.5549 15.8913 16.3766 16.4919 16.375Z" fill="#111827"/>
</svg>
