<svg width="33" height="32" viewBox="0 0 33 32" fill="none" xmlns="http://www.w3.org/2000/svg">
<path fill-rule="evenodd" clip-rule="evenodd" d="M2.50085 15.9999C2.50085 8.26846 8.76846 2.00085 16.4999 2.00085C24.2314 2.00085 30.499 8.26846 30.499 15.9999C30.499 23.7314 24.2314 29.999 16.4999 29.999C8.76846 29.999 2.50085 23.7314 2.50085 15.9999ZM16.4999 0.000854492C7.66389 0.000854492 0.500854 7.16389 0.500854 15.9999C0.500854 24.836 7.66389 31.999 16.4999 31.999C25.336 31.999 32.499 24.836 32.499 15.9999C32.499 7.16389 25.336 0.000854492 16.4999 0.000854492ZM18.0326 8.50039C18.0326 8.13532 17.8337 7.79927 17.5136 7.62367C17.1935 7.44807 16.8032 7.46084 16.4953 7.65698L12.6603 10.1C12.1945 10.3967 12.0575 11.0149 12.3542 11.4807C12.6509 11.9465 13.2691 12.0835 13.7349 11.7868L16.0326 10.3231V23.4995C16.0326 24.0518 16.4803 24.4995 17.0326 24.4995C17.5849 24.4995 18.0326 24.0518 18.0326 23.4995V8.50039Z" fill="#111827"/>
</svg>
