<svg width="33" height="32" viewBox="0 0 33 32" fill="none" xmlns="http://www.w3.org/2000/svg">
<path fill-rule="evenodd" clip-rule="evenodd" d="M1.50085 0.000854492C0.94857 0.000854492 0.500854 0.44857 0.500854 1.00085V30.999C0.500854 31.5513 0.94857 31.999 1.50085 31.999H31.499C32.0513 31.999 32.499 31.5513 32.499 30.999V1.00085C32.499 0.44857 32.0513 0.000854492 31.499 0.000854492H1.50085ZM2.50085 29.999V2.00085H30.499V29.999H2.50085ZM18.34 8.50039C18.34 8.13532 18.1411 7.79927 17.821 7.62367C17.501 7.44807 17.1106 7.46084 16.8027 7.65698L12.9677 10.1C12.5019 10.3967 12.3649 11.0149 12.6616 11.4807C12.9583 11.9465 13.5765 12.0835 14.0423 11.7868L16.34 10.3231V23.4995C16.34 24.0518 16.7877 24.4995 17.34 24.4995C17.8923 24.4995 18.34 24.0518 18.34 23.4995V8.50039Z" fill="#111827"/>
</svg>
