<svg width="32" height="32" viewBox="0 0 32 32" fill="none" xmlns="http://www.w3.org/2000/svg">
<path d="M20.8816 10.5833C20.8789 11.1928 20.7505 11.7952 20.5045 12.3528C20.2584 12.9104 19.9001 13.4113 19.4518 13.8243C18.5096 14.6877 17.278 15.1667 16 15.1667C14.7219 15.1667 13.4903 14.6877 12.5481 13.8243C12.0976 13.4131 11.7378 12.9125 11.4916 12.3545C11.2454 11.7965 11.1183 11.1933 11.1183 10.5833C11.1183 9.97343 11.2454 9.37021 11.4916 8.81219C11.7378 8.25417 12.0976 7.7536 12.5481 7.34243C13.4903 6.47898 14.7219 6 16 6C17.278 6 18.5096 6.47898 19.4518 7.34243C19.9001 7.75534 20.2584 8.25626 20.5045 8.81388C20.7505 9.37151 20.8789 9.97387 20.8816 10.5833V10.5833Z" stroke="#1C1B1F" stroke-width="2" stroke-linecap="round" stroke-linejoin="round"/>
<path d="M21.7692 20.5833C21.7659 21.3036 21.6142 22.0155 21.3235 22.6745C21.0327 23.3335 20.6092 23.9255 20.0794 24.4135C18.9659 25.4339 17.5103 26 16 26C14.4896 26 13.034 25.4339 11.9205 24.4135C11.3881 23.9275 10.9629 23.336 10.6719 22.6765C10.381 22.017 10.2307 21.3041 10.2307 20.5833C10.2307 19.8625 10.381 19.1496 10.6719 18.4901C10.9629 17.8306 11.3881 17.2391 11.9205 16.7531C13.034 15.7327 14.4896 15.1666 16 15.1666C17.5103 15.1666 18.9659 15.7327 20.0794 16.7531C20.6092 17.2411 21.0327 17.8331 21.3235 18.4921C21.6142 19.1511 21.7659 19.863 21.7692 20.5833Z" stroke="#1C1B1F" stroke-width="2" stroke-linecap="round" stroke-linejoin="round"/>
</svg>
