<svg width="33" height="32" viewBox="0 0 33 32" fill="none" xmlns="http://www.w3.org/2000/svg">
<path fill-rule="evenodd" clip-rule="evenodd" d="M2.50085 15.9999C2.50085 8.26846 8.76846 2.00085 16.4999 2.00085C24.2314 2.00085 30.499 8.26846 30.499 15.9999C30.499 23.7314 24.2314 29.999 16.4999 29.999C8.76846 29.999 2.50085 23.7314 2.50085 15.9999ZM16.4999 0.000854492C7.66389 0.000854492 0.500854 7.16389 0.500854 15.9999C0.500854 24.836 7.66389 31.999 16.4999 31.999C25.336 31.999 32.499 24.836 32.499 15.9999C32.499 7.16389 25.336 0.000854492 16.4999 0.000854492ZM13.9743 8.12535C13.4839 8.12535 13.0659 8.48091 12.9872 8.96492L11.7631 16.4961C11.6935 16.9244 11.9081 17.3488 12.2944 17.5466C12.6806 17.7444 13.1504 17.6705 13.4573 17.3636C13.9292 16.8917 14.5305 16.5702 15.1851 16.44C15.8397 16.3098 16.5183 16.3766 17.1349 16.6321C17.7515 16.8875 18.2786 17.32 18.6494 17.875C19.0202 18.4299 19.2181 19.0824 19.2181 19.7498C19.2181 20.4173 19.0202 21.0697 18.6494 21.6247C18.2786 22.1796 17.7515 22.6122 17.1349 22.8676C16.5183 23.123 15.8398 23.1898 15.1851 23.0596C14.5305 22.9294 13.9292 22.608 13.4573 22.136C13.0667 21.7455 12.4336 21.7455 12.0431 22.136C11.6525 22.5266 11.6525 23.1597 12.043 23.5502C12.7947 24.3019 13.7524 24.8138 14.7949 25.0212C15.8375 25.2286 16.9182 25.1221 17.9003 24.7153C18.8824 24.3085 19.7218 23.6197 20.3123 22.7358C20.9029 21.852 21.2181 20.8128 21.2181 19.7498C21.2181 18.6868 20.9029 17.6477 20.3123 16.7638C19.7218 15.88 18.8824 15.1911 17.9003 14.7843C16.9182 14.3775 15.8375 14.2711 14.7949 14.4785C14.5536 14.5265 14.3168 14.5908 14.0861 14.6706L14.8249 10.1254H20.2497C20.802 10.1254 21.2497 9.67764 21.2497 9.12535C21.2497 8.57307 20.802 8.12535 20.2497 8.12535H13.9743Z" fill="#111827"/>
</svg>
