<svg width="33" height="32" viewBox="0 0 33 32" fill="none" xmlns="http://www.w3.org/2000/svg">
<path fill-rule="evenodd" clip-rule="evenodd" d="M2.50085 15.9999C2.50085 8.26846 8.76846 2.00085 16.4999 2.00085C24.2314 2.00085 30.499 8.26846 30.499 15.9999C30.499 23.7314 24.2314 29.999 16.4999 29.999C8.76846 29.999 2.50085 23.7314 2.50085 15.9999ZM16.4999 0.000854492C7.66389 0.000854492 0.500854 7.16389 0.500854 15.9999C0.500854 24.836 7.66389 31.999 16.4999 31.999C25.336 31.999 32.499 24.836 32.499 15.9999C32.499 7.16389 25.336 0.000854492 16.4999 0.000854492ZM12.8677 7.50039C12.3154 7.50039 11.8677 7.94811 11.8677 8.50039C11.8677 9.05268 12.3154 9.50039 12.8677 9.50039H18.2271L14.5962 14.7626C14.3851 15.0685 14.3611 15.4662 14.5338 15.7953C14.7066 16.1244 15.0476 16.3305 15.4192 16.3305C16.2926 16.3305 17.2502 16.692 17.9853 17.2983C18.7203 17.9044 19.1321 18.6649 19.1321 19.415C19.1321 21.1185 17.7511 22.4995 16.0476 22.4995C15.0777 22.4995 14.2129 22.053 13.6458 21.3505C13.2989 20.9208 12.6693 20.8536 12.2396 21.2005C11.8098 21.5474 11.7427 22.177 12.0896 22.6068C13.02 23.7594 14.4477 24.4995 16.0476 24.4995C18.8557 24.4995 21.1321 22.2231 21.1321 19.415C21.1321 17.9093 20.3154 16.6275 19.2578 15.7553C18.6426 15.2479 17.9118 14.8486 17.1359 14.6034L20.9552 9.06833C21.1663 8.76242 21.1903 8.36468 21.0175 8.0356C20.8448 7.70652 20.5038 7.50039 20.1321 7.50039H12.8677Z" fill="#111827"/>
</svg>
