<svg width="33" height="32" viewBox="0 0 33 32" fill="none" xmlns="http://www.w3.org/2000/svg">
<path d="M22.358 9.50001C22.3547 10.2314 22.2006 10.9542 21.9054 11.6234C21.6102 12.2925 21.1801 12.8936 20.6422 13.3891C19.5115 14.4252 18.0336 15 16.5 15C14.9663 15 13.4884 14.4252 12.3577 13.3891C11.8172 12.8957 11.3854 12.295 11.09 11.6254C10.7945 10.9558 10.642 10.2319 10.642 9.50001C10.642 8.76811 10.7945 8.04426 11.09 7.37463C11.3854 6.70501 11.8172 6.10432 12.3577 5.61091C13.4884 4.57477 14.9663 4 16.5 4C18.0336 4 19.5115 4.57477 20.6422 5.61091C21.1801 6.10641 21.6102 6.70751 21.9054 7.37666C22.2006 8.04581 22.3547 8.76864 22.358 9.50001V9.50001Z" stroke="#111827" stroke-width="2" stroke-linecap="round" stroke-linejoin="round"/>
<path d="M23.4231 21.5C23.4192 22.3644 23.2371 23.2186 22.8882 24.0094C22.5393 24.8002 22.0311 25.5106 21.3954 26.0962C20.0591 27.3207 18.3125 28 16.5 28C14.6875 28 12.9409 27.3207 11.6046 26.0962C10.9658 25.5131 10.4555 24.8032 10.1064 24.0118C9.75723 23.2204 9.5769 22.365 9.5769 21.5C9.5769 20.635 9.75723 19.7796 10.1064 18.9882C10.4555 18.1968 10.9658 17.4869 11.6046 16.9038C12.9409 15.6793 14.6875 15 16.5 15C18.3125 15 20.0591 15.6793 21.3954 16.9038C22.0311 17.4894 22.5393 18.1998 22.8882 18.9906C23.2371 19.7814 23.4192 20.6357 23.4231 21.5Z" stroke="#111827" stroke-width="2" stroke-linecap="round" stroke-linejoin="round"/>
</svg>
