<svg width="33" height="32" viewBox="0 0 33 32" fill="none" xmlns="http://www.w3.org/2000/svg">
<path fill-rule="evenodd" clip-rule="evenodd" d="M1.50085 0.000854492C0.94857 0.000854492 0.500854 0.44857 0.500854 1.00085V30.999C0.500854 31.5513 0.94857 31.999 1.50085 31.999H31.499C32.0513 31.999 32.499 31.5513 32.499 30.999V1.00085C32.499 0.44857 32.0513 0.000854492 31.499 0.000854492H1.50085ZM2.50085 29.999V2.00085H30.499V29.999H2.50085ZM15.9181 7.55918C16.4379 7.74575 16.708 8.31839 16.5215 8.83821L13.3802 17.5903H18.2506V13.8528C18.2506 13.3005 18.6983 12.8528 19.2506 12.8528C19.8029 12.8528 20.2506 13.3005 20.2506 13.8528V23.4994C20.2506 24.0517 19.8029 24.4994 19.2506 24.4994C18.6983 24.4994 18.2506 24.0517 18.2506 23.4994V19.5903H11.9588C11.6333 19.5903 11.3282 19.4319 11.1409 19.1657C10.9536 18.8995 10.9076 18.5588 11.0176 18.2525L14.639 8.16257C14.8256 7.64275 15.3982 7.37261 15.9181 7.55918Z" fill="#111827"/>
</svg>
