<svg width="32" height="32" viewBox="0 0 32 32" fill="none" xmlns="http://www.w3.org/2000/svg">
<path d="M16 28C22.6274 28 28 22.6274 28 16C28 9.37258 22.6274 4 16 4C9.37258 4 4 9.37258 4 16C4 22.6274 9.37258 28 16 28Z" stroke="#1C1B1F" stroke-width="2" stroke-miterlimit="10"/>
<path d="M19 10.5H13.9793L13 16.5253C13.4895 16.0358 14.1131 15.7025 14.792 15.5674C15.4709 15.4324 16.1747 15.5017 16.8142 15.7666C17.4537 16.0315 18.0003 16.4801 18.3849 17.0556C18.7695 17.6312 18.9747 18.3079 18.9747 19.0001C18.9747 19.6923 18.7695 20.369 18.3849 20.9445C18.0003 21.5201 17.4537 21.9687 16.8142 22.2336C16.1747 22.4985 15.4709 22.5678 14.792 22.4328C14.1131 22.2977 13.4895 21.9644 13 21.4749" stroke="#1C1B1F" stroke-width="2" stroke-linecap="round" stroke-linejoin="round"/>
</svg>
