<svg width="33" height="32" viewBox="0 0 33 32" fill="none" xmlns="http://www.w3.org/2000/svg">
<path fill-rule="evenodd" clip-rule="evenodd" d="M16.4999 2.00085C8.76846 2.00085 2.50085 8.26846 2.50085 15.9999C2.50085 23.7314 8.76846 29.999 16.4999 29.999C24.2314 29.999 30.499 23.7314 30.499 15.9999C30.499 8.26846 24.2314 2.00085 16.4999 2.00085ZM0.500854 15.9999C0.500854 7.16389 7.66389 0.000854492 16.4999 0.000854492C25.336 0.000854492 32.499 7.16389 32.499 15.9999C32.499 24.836 25.336 31.999 16.4999 31.999C7.66389 31.999 0.500854 24.836 0.500854 15.9999ZM18.2625 7.01704C18.7367 7.30025 18.8915 7.91421 18.6082 8.38835L15.7478 13.1773C15.9935 13.1428 16.2447 13.125 16.4999 13.125C19.4683 13.125 21.8747 15.5314 21.8747 18.4998C21.8747 21.4682 19.4683 23.8745 16.4999 23.8745C13.5315 23.8745 11.1252 21.4682 11.1252 18.4998C11.1252 17.4696 11.4151 16.507 11.9177 15.6893L16.8912 7.36275C17.1744 6.88861 17.7884 6.73383 18.2625 7.01704ZM13.5858 16.7968C13.293 17.2967 13.1252 17.8786 13.1252 18.4998C13.1252 20.3636 14.6361 21.8745 16.4999 21.8745C18.3637 21.8745 19.8747 20.3636 19.8747 18.4998C19.8747 16.636 18.3637 15.125 16.4999 15.125C15.2781 15.125 14.208 15.7743 13.6157 16.7467L13.5858 16.7968Z" fill="#111827"/>
</svg>
