<svg width="33" height="32" viewBox="0 0 33 32" fill="none" xmlns="http://www.w3.org/2000/svg">
<path fill-rule="evenodd" clip-rule="evenodd" d="M1.50085 0.000854492C0.94857 0.000854492 0.500854 0.44857 0.500854 1.00085V30.999C0.500854 31.5513 0.94857 31.999 1.50085 31.999H31.499C32.0513 31.999 32.499 31.5513 32.499 30.999V1.00085C32.499 0.44857 32.0513 0.000854492 31.499 0.000854492H1.50085ZM2.50085 29.999V2.00085H30.499V29.999H2.50085ZM13.9743 7.50039C13.4839 7.50039 13.0659 7.85595 12.9872 8.33996L11.7631 15.8711C11.6935 16.2995 11.9081 16.7238 12.2944 16.9216C12.6806 17.1194 13.1504 17.0455 13.4573 16.7386C13.9292 16.2667 14.5305 15.9453 15.1851 15.8151C15.8397 15.6849 16.5183 15.7517 17.1349 16.0071C17.7515 16.2625 18.2786 16.6951 18.6494 17.25C19.0202 17.805 19.2181 18.4574 19.2181 19.1249C19.2181 19.7923 19.0202 20.4448 18.6494 20.9997C18.2786 21.5547 17.7515 21.9872 17.1349 22.2426C16.5183 22.498 15.8397 22.5649 15.1851 22.4346C14.5305 22.3044 13.9292 21.983 13.4573 21.5111C13.0667 21.1205 12.4336 21.1205 12.0431 21.5111C11.6525 21.9016 11.6525 22.5348 12.043 22.9253C12.7947 23.6769 13.7524 24.1888 14.7949 24.3962C15.8375 24.6036 16.9182 24.4972 17.9003 24.0904C18.8824 23.6836 19.7218 22.9947 20.3123 22.1108C20.9029 21.227 21.2181 20.1879 21.2181 19.1249C21.2181 18.0619 20.9029 17.0227 20.3123 16.1389C19.7218 15.255 18.8824 14.5661 17.9003 14.1593C16.9182 13.7526 15.8375 13.6461 14.7949 13.8535C14.5536 13.9015 14.3168 13.9658 14.0861 14.0457L14.8248 9.50039H20.2497C20.802 9.50039 21.2497 9.05267 21.2497 8.50039C21.2497 7.9481 20.802 7.50039 20.2497 7.50039H13.9743Z" fill="#111827"/>
</svg>
