<svg width="33" height="32" viewBox="0 0 33 32" fill="none" xmlns="http://www.w3.org/2000/svg">
<path fill-rule="evenodd" clip-rule="evenodd" d="M16.4999 2.00085C8.76846 2.00085 2.50085 8.26846 2.50085 15.9999C2.50085 23.7314 8.76846 29.999 16.4999 29.999C24.2314 29.999 30.499 23.7314 30.499 15.9999C30.499 8.26846 24.2314 2.00085 16.4999 2.00085ZM0.500854 15.9999C0.500854 7.16389 7.66389 0.000854492 16.4999 0.000854492C25.336 0.000854492 32.499 7.16389 32.499 15.9999C32.499 24.836 25.336 31.999 16.4999 31.999C7.66389 31.999 0.500854 24.836 0.500854 15.9999ZM19.0898 12.8528C19.6421 12.8528 20.0898 13.3005 20.0898 13.8528V23.4994C20.0898 24.0517 19.6421 24.4994 19.0898 24.4994C18.5375 24.4994 18.0898 24.0517 18.0898 23.4994V19.5903H11.798C11.4725 19.5903 11.1674 19.4319 10.9801 19.1657C10.7928 18.8995 10.7468 18.5588 10.8568 18.2525L14.4782 8.16257C14.6648 7.64276 15.2375 7.37261 15.7573 7.55918C16.2771 7.74575 16.5472 8.31839 16.3607 8.83821L13.2194 17.5903H18.0898V13.8528C18.0898 13.3005 18.5375 12.8528 19.0898 12.8528Z" fill="#111827"/>
</svg>
