<svg width="33" height="32" viewBox="0 0 33 32" fill="none" xmlns="http://www.w3.org/2000/svg">
<path fill-rule="evenodd" clip-rule="evenodd" d="M17 0.134829C16.6906 -0.0438037 16.3094 -0.0438037 16 0.134829L3.01041 7.63437C2.70101 7.813 2.51041 8.14313 2.51041 8.5004V23.4995C2.51041 23.8567 2.70101 24.1869 3.01041 24.3655L16 31.865C16.3094 32.0437 16.6906 32.0437 17 31.865L29.9896 24.3655C30.299 24.1869 30.4896 23.8567 30.4896 23.4995V8.5004C30.4896 8.14313 30.299 7.813 29.9896 7.63437L17 0.134829ZM4.51041 22.9221V9.07775L16.5 2.15556L28.4896 9.07775V22.9221L16.5 29.8443L4.51041 22.9221ZM11.8754 15.9999C11.8754 13.4458 13.9459 11.3753 16.5 11.3753C19.0541 11.3753 21.1247 13.4458 21.1247 15.9999C21.1247 18.5541 19.0541 20.6246 16.5 20.6246C13.9459 20.6246 11.8754 18.5541 11.8754 15.9999ZM16.5 9.37527C12.8413 9.37527 9.87536 12.3412 9.87536 15.9999C9.87536 19.6586 12.8413 22.6246 16.5 22.6246C20.1587 22.6246 23.1247 19.6586 23.1247 15.9999C23.1247 12.3412 20.1587 9.37527 16.5 9.37527Z" fill="#111827"/>
</svg>
