<svg width="33" height="32" viewBox="0 0 33 32" fill="none" xmlns="http://www.w3.org/2000/svg">
<g clip-path="url(#clip0_6_1690)">
<path fill-rule="evenodd" clip-rule="evenodd" d="M18.3271 13.5709L14.405 6.99086C13.7042 5.8022 11.9848 5.8022 11.2841 6.99086L1.75377 23.1557C1.04181 24.3633 1.91241 25.8873 3.31426 25.8873H10.9091C13.3346 25.8873 15.5751 24.5911 16.7843 22.4886L21.9309 13.5396L27.3286 22.8035H20.1208L18.3558 25.9009H29.6857C31.0876 25.9009 31.9582 24.377 31.2462 23.1694L23.5398 10.098C22.839 8.9093 21.1196 8.90931 20.4188 10.098L18.3271 13.5709ZM16.5076 16.5919L12.9028 10.4249L5.64154 22.8396L9.18326 22.8625C11.2175 22.8756 13.119 21.8989 14.2953 20.2651L16.5076 16.5919Z" stroke="#111827" stroke-width="2"/>
</g>
<defs>
<clipPath id="clip0_6_1690">
<rect width="32" height="32" fill="white" transform="translate(0.5)"/>
</clipPath>
</defs>
</svg>
