<svg width="33" height="32" viewBox="0 0 33 32" fill="none" xmlns="http://www.w3.org/2000/svg">
<path fill-rule="evenodd" clip-rule="evenodd" d="M4.85522 2.95695C5.44782 2.39279 6.21899 2.05797 7.03106 2.00753L13.039 4.9079C11.6873 5.258 10.3902 5.81341 9.19463 6.56063C8.17269 7.19935 7.24421 7.96623 6.42963 8.83852C5.72966 8.66894 5.09553 8.28432 4.62001 7.73283C4.03875 7.05872 3.73898 6.1869 3.78277 5.29787C3.82655 4.40883 4.21054 3.57069 4.85522 2.95695ZM5.10362 10.4987C4.34129 10.174 3.65589 9.67739 3.10533 9.03887C2.18882 7.97595 1.71615 6.60128 1.78519 5.19948C1.85423 3.79769 2.45968 2.47612 3.4762 1.50839C4.49272 0.540671 5.84245 0.000906826 7.24595 0.000854493C7.39652 0.00084889 7.54514 0.0348438 7.68073 0.100303L25.9688 8.92901C26.81 8.8768 27.6062 8.51951 28.2057 7.9201C28.8559 7.26983 29.2212 6.38788 29.2212 5.46827C29.2212 4.54865 28.8559 3.6667 28.2057 3.01644C27.5554 2.36617 26.6734 2.00085 25.7538 2.00085C25.2016 2.00085 24.7538 1.55314 24.7538 1.00085C24.7538 0.44857 25.2016 0.000854493 25.7538 0.000854493C27.2039 0.000854493 28.5945 0.576884 29.6199 1.60222C30.6452 2.62756 31.2212 4.01822 31.2212 5.46827C31.2212 6.91831 30.6452 8.30897 29.6199 9.33431C28.5945 10.3596 27.2039 10.9357 25.7538 10.9357C25.6033 10.9357 25.4547 10.9017 25.3191 10.8362L16.2751 6.47016C14.1448 6.50914 12.0637 7.12596 10.2546 8.25661C8.38509 9.42511 6.88147 11.0954 5.9152 13.077C5.12473 14.6982 4.7199 16.4743 4.72504 18.2673L10.8948 14.9768C10.907 14.9699 10.9193 14.9633 10.9318 14.957L16.0181 12.2443C16.3281 12.079 16.702 12.0885 17.0032 12.2692C17.3044 12.4499 17.4887 12.7754 17.4887 13.1267V29.9566C17.974 29.9152 18.4579 29.8437 18.9376 29.7417C21.094 29.2831 23.0783 28.2278 24.664 26.6962C26.2498 25.1646 27.3734 23.2182 27.9065 21.0789C28.0401 20.543 28.5828 20.2169 29.1187 20.3505C29.6546 20.484 29.9807 21.0267 29.8472 21.5626C29.2234 24.0655 27.9088 26.3428 26.0535 28.1348C24.1981 29.9268 21.8766 31.1614 19.3536 31.6979C16.8305 32.2344 14.2075 32.0513 11.7835 31.1693C11.5313 31.0775 11.2823 30.9785 11.0367 30.8726C11.0006 30.8592 10.9655 30.8439 10.9315 30.8266C8.86107 29.9127 7.04325 28.5002 5.64392 26.7094C4.13728 24.7814 3.17328 22.4886 2.8478 20.0683C2.83988 20.0274 2.83458 19.9864 2.83184 19.9453C2.82052 19.855 2.81008 19.7645 2.80054 19.6738C2.53067 17.1085 2.987 14.519 4.11753 12.2005C4.40631 11.6082 4.73613 11.0397 5.10362 10.4987ZM12.3831 29.2588C12.4112 29.2692 12.4393 29.2796 12.4674 29.2898C13.4456 29.6457 14.4616 29.8685 15.4887 29.9563V14.7933L12.3831 16.4497V29.2588ZM10.3831 17.5163V28.2897C9.17277 27.5546 8.09954 26.6037 7.21982 25.478C6.06199 23.9963 5.27911 22.2626 4.93073 20.4242L10.3831 17.5163ZM23.5089 20.7851C24.5664 20.7851 25.4236 19.9279 25.4236 18.8705C25.4236 17.8131 24.5664 16.9559 23.5089 16.9559C22.4515 16.9559 21.5943 17.8131 21.5943 18.8705C21.5943 19.9279 22.4515 20.7851 23.5089 20.7851Z" fill="#111827"/>
</svg>
