<svg width="32" height="32" viewBox="0 0 32 32" fill="none" xmlns="http://www.w3.org/2000/svg">
<path d="M21.6075 19.8283C22.4534 19.8283 23.1392 19.1425 23.1392 18.2965C23.1392 17.4506 22.4534 16.7648 21.6075 16.7648C20.7615 16.7648 20.0757 17.4506 20.0757 18.2965C20.0757 19.1425 20.7615 19.8283 21.6075 19.8283Z" fill="#1C1B1F"/>
<path d="M25.9018 20.2569C25.4389 22.1139 24.4637 23.8034 23.0871 25.133C21.7106 26.4625 19.9882 27.3785 18.1163 27.7766C16.2444 28.1746 14.2983 28.0387 12.4998 27.3844C10.7014 26.73 9.12306 25.5835 7.94469 24.0755C6.76631 22.5675 6.03534 20.7588 5.83511 18.8556C5.63488 16.9523 5.97345 15.0311 6.81222 13.3109C7.65098 11.5907 8.9562 10.1408 10.5791 9.12653C12.2019 8.11222 14.0771 7.5743 15.9909 7.5741" stroke="#1C1B1F" stroke-width="2" stroke-linecap="round" stroke-linejoin="round"/>
<path d="M8.24515 11.1312C7.3321 11.0411 6.48869 10.6032 5.88955 9.90835C5.29041 9.2135 4.98142 8.31485 5.02655 7.39846C5.07168 6.48207 5.46748 5.61814 6.132 4.98551C6.79652 4.35289 7.67887 4.00003 8.59637 4L23.4035 11.1483C24.3515 11.1483 25.2606 10.7717 25.9308 10.1014C26.6011 9.43116 26.9777 8.52207 26.9777 7.57414C26.9777 6.62622 26.6011 5.71712 25.9308 5.04684C25.2606 4.37656 24.3515 4 23.4035 4" stroke="#1C1B1F" stroke-width="2" stroke-linecap="round" stroke-linejoin="round"/>
<path d="M5.86328 19.1027L15.991 13.7013V27.9979" stroke="#1C1B1F" stroke-width="2" stroke-linecap="round" stroke-linejoin="round"/>
<path d="M11.9062 15.8798V27.1481" stroke="#1C1B1F" stroke-width="2" stroke-linecap="round" stroke-linejoin="round"/>
</svg>
