<svg width="32" height="32" viewBox="0 0 32 32" fill="none" xmlns="http://www.w3.org/2000/svg">
<path d="M20.8344 4.08258C20.9775 4.08383 21.1141 4.14185 21.2144 4.24387L27.8453 10.9916C27.9456 11.0936 28.0012 11.2313 28 11.3743L27.9174 20.8344C27.9162 20.9775 27.8582 21.1141 27.7561 21.2144L21.0084 27.8453C20.9064 27.9456 20.7687 28.0012 20.6257 28L11.1656 27.9174C11.0225 27.9162 10.8859 27.8582 10.7856 27.7561L4.15466 21.0084C4.0544 20.9064 3.99877 20.7687 4.00002 20.6257L4.08258 11.1656C4.08383 11.0225 4.14185 10.8859 4.24387 10.7856L10.9916 4.15466C11.0936 4.0544 11.2313 3.99877 11.3743 4.00002L20.8344 4.08258Z" stroke="#1C1B1F" stroke-width="2" stroke-linejoin="round"/>
</svg>
