<svg width="33" height="32" viewBox="0 0 33 32" fill="none" xmlns="http://www.w3.org/2000/svg">
<path d="M22.543 1.10322C22.7218 1.10478 22.8927 1.17731 23.018 1.30484L31.3067 9.73945C31.432 9.86698 31.5015 10.0391 31.5 10.2179L31.3968 22.043C31.3952 22.2218 31.3227 22.3927 31.1952 22.518L22.7606 30.8067C22.633 30.932 22.4609 31.0015 22.2821 31L10.457 30.8968C10.2782 30.8952 10.1073 30.8227 9.98199 30.6952L1.69332 22.2606C1.568 22.133 1.49847 21.9609 1.50003 21.7821L1.60322 9.95698C1.60478 9.77818 1.67731 9.60732 1.80484 9.48199L10.2395 1.19332C10.367 1.068 10.5391 0.998465 10.7179 1.00003L22.543 1.10322Z" stroke="#111827" stroke-width="2" stroke-linejoin="round"/>
</svg>
