<svg width="32" height="32" viewBox="0 0 32 32" fill="none" xmlns="http://www.w3.org/2000/svg">
<path fill-rule="evenodd" clip-rule="evenodd" d="M10.9581 0.30983L10.4005 0.1604L9.99222 0.568649L4.4181 6.14277L4.00985 6.55102L4.15928 7.1087L6.16745 14.6033L5.98213 14.7886L0.408004 20.3627L-0.000244141 20.771L0.149185 21.3287L2.18946 28.9431L2.33889 29.5007L2.89656 29.6502L10.511 31.6904L11.0686 31.8399L11.4769 31.4316L11.5306 31.3779C11.5415 31.3679 11.5522 31.3575 11.5629 31.3469L17.0517 25.8581L17.1451 25.7646L17.4372 25.8429L25.0516 27.8832L25.6093 28.0326L26.0175 27.6243L26.0743 27.5676C26.0841 27.5585 26.0937 27.5491 26.1033 27.5396L31.5921 22.0508L32.0003 21.6425L31.8509 21.0849L29.8423 13.5885L29.8357 13.5649L29.8102 13.4699L29.6608 12.9122L29.1031 12.7628L21.4887 10.7225L21.3221 10.6779L21.3206 10.6722L19.312 3.17586C19.309 3.16494 19.306 3.15412 19.3027 3.1434L19.2796 3.05721L19.1302 2.49953L18.5725 2.3501L10.9581 0.30983ZM6.24056 7.14874L10.9982 2.39111L16.3819 3.83366L11.9608 8.25473L11.5473 8.66828L11.7049 9.23147L13.3438 15.0845L7.98197 13.6478L6.24056 7.14874ZM17.7964 5.24887L13.7892 9.25598L15.2822 14.588L19.2386 10.6316L17.7964 5.24887ZM16.7711 17.5614L21.5287 12.8038L26.9124 14.2463L22.4914 18.6674L22.0778 19.081L22.2355 19.6441L23.8743 25.4972L18.5125 24.0605L16.7711 17.5614ZM28.3269 15.6614L24.3196 19.6687L25.8126 25.0009L29.7692 21.0442L28.3269 15.6614ZM6.98809 16.6111L2.23047 21.3687L3.97188 27.8677L9.33369 29.3044L7.69485 23.4514L7.53716 22.8882L7.95071 22.4747L12.3718 18.0536L6.98809 16.6111ZM9.77915 23.4759L13.7863 19.4688L15.2285 24.8515L11.2721 28.808L9.77915 23.4759Z" fill="#111827"/>
</svg>
