<svg width="33" height="32" viewBox="0 0 33 32" fill="none" xmlns="http://www.w3.org/2000/svg">
<path fill-rule="evenodd" clip-rule="evenodd" d="M16.5 2C8.76787 2 2.49976 8.26812 2.49976 16.0002C2.49976 23.7323 8.76787 30.0005 16.5 30.0005C24.2321 30.0005 30.5002 23.7323 30.5002 16.0002C30.5002 8.26812 24.2321 2 16.5 2ZM0.499756 16.0002C0.499756 7.16355 7.6633 0 16.5 0C25.3367 0 32.5002 7.16355 32.5002 16.0002C32.5002 24.8369 25.3367 32.0005 16.5 32.0005C7.6633 32.0005 0.499756 24.8369 0.499756 16.0002ZM25.9088 15.9995C25.9088 14.9827 25.0844 14.1584 24.0676 14.1584C23.0508 14.1584 22.2265 14.9827 22.2265 15.9995C22.2265 17.0163 23.0508 17.8406 24.0676 17.8406C25.0844 17.8406 25.9088 17.0163 25.9088 15.9995ZM20.7828 24.3768C22.7054 23.3938 24.2312 21.7794 25.1044 19.8046L21.6665 18.2845C21.1422 19.4703 20.226 20.4397 19.0716 21.0299C17.9172 21.6202 16.5949 21.7954 15.3267 21.5261C14.0584 21.2569 12.9214 20.5595 12.1063 19.5512C11.2913 18.5429 10.848 17.2848 10.8507 15.9883C10.8534 14.6918 11.302 13.4356 12.1212 12.4307C12.9404 11.4258 14.0804 10.7332 15.3497 10.4692C16.6191 10.2053 17.9407 10.386 19.0926 10.981C20.2445 11.5761 21.1567 12.5493 21.676 13.7372L25.1202 12.2315C24.2553 10.2531 22.7361 8.63237 20.8177 7.64138C18.8993 6.65039 16.6985 6.34944 14.5844 6.78904C12.4704 7.22864 10.572 8.38204 9.20767 10.0557C7.84337 11.7293 7.09627 13.8212 7.09177 15.9805C7.08727 18.1397 7.82563 20.2348 9.18294 21.9141C10.5402 23.5934 12.4339 24.7547 14.546 25.2031C16.6582 25.6515 18.8603 25.3597 20.7828 24.3768Z" fill="#111827"/>
</svg>
