<svg width="32" height="32" viewBox="0 0 32 32" fill="none" xmlns="http://www.w3.org/2000/svg">
<g clip-path="url(#clip0_294_330)">
<path fill-rule="evenodd" clip-rule="evenodd" d="M13.1893 1.83104C12.7816 1.10381 12.0034 0.612305 11.1105 0.612305C9.79522 0.612305 8.72901 1.67851 8.72901 2.99375C8.72901 3.32487 8.79659 3.6402 8.9187 3.92671L2.63041 12.9264C2.54858 12.9179 2.46552 12.9135 2.38144 12.9135C1.06621 12.9135 0 13.9797 0 15.295C0 16.421 0.781562 17.3646 1.83182 17.6127L5.34043 26.4342C5.04137 26.8323 4.86415 27.3271 4.86415 27.8633C4.86415 29.1786 5.93036 30.2448 7.24559 30.2448C7.91266 30.2448 8.51567 29.9705 8.948 29.5286L20.7749 30.6833C21.2064 31.1185 21.8047 31.3881 22.466 31.3881C23.7813 31.3881 24.8475 30.3218 24.8475 29.0066C24.8475 28.6552 24.7714 28.3215 24.6347 28.0213L29.8276 19.1271C31.045 19.0212 32.0001 17.9995 32.0001 16.7547C32.0001 15.6369 31.23 14.6991 30.1915 14.4426L25.8317 6.61236C25.9965 6.28847 26.0895 5.92185 26.0895 5.53351C26.0895 4.21827 25.0233 3.15206 23.708 3.15206C23.1547 3.15206 22.6455 3.34075 22.2412 3.65728L13.1893 1.83104ZM11.5383 5.33686C12.3457 5.19039 13.0112 4.63691 13.3148 3.89666L21.3022 5.50813L10.8697 9.76002C10.7756 9.67351 10.6745 9.59448 10.5674 9.52387L11.5383 5.33686ZM8.58273 9.22911L9.0442 7.23897L5.3308 12.5535L6.88025 11.6443C6.8779 11.6009 6.87671 11.5573 6.87671 11.5134C6.87671 10.4328 7.59647 9.52028 8.58273 9.22911ZM7.82 13.4117L4.76128 15.2067C4.76235 15.236 4.76289 15.2654 4.76289 15.295C4.76289 16.0707 4.39201 16.7598 3.81791 17.1946L6.67657 24.382L7.97767 13.5217C7.92359 13.4871 7.87099 13.4504 7.82 13.4117ZM9.95985 13.7898L8.51522 25.8482C8.72159 25.9785 8.90655 26.1396 9.06364 26.3251L19.1027 22.0864C19.1005 22.0447 19.0995 22.0028 19.0995 21.9606C19.0995 21.8263 19.1106 21.6947 19.1319 21.5665L10.0595 13.7567C10.0266 13.7684 9.99339 13.7795 9.95985 13.7898ZM11.4891 12.3484L20.2716 19.9086C20.5691 19.7329 20.9082 19.62 21.2706 19.5883L22.3606 7.49736C22.2838 7.44458 22.2103 7.38742 22.1404 7.32624L11.6378 11.6067C11.6278 11.8668 11.5761 12.1162 11.4891 12.3484ZM22.8542 23.9064C23.4275 23.501 23.8138 22.8487 23.8581 22.1043L27.1046 19.8244L23.1161 26.6557L22.8542 23.9064ZM20.0441 23.8599C20.2897 24.046 20.5725 24.1855 20.8793 24.2654L21.1423 27.0266C20.609 27.3839 20.2281 27.9509 20.1175 28.6096L10.9212 27.7117L20.0441 23.8599ZM28.1471 14.8821L24.3222 8.01269L23.2326 20.0996L27.289 17.251C27.255 17.0909 27.2372 16.9249 27.2372 16.7547C27.2372 15.9948 27.593 15.3181 28.1471 14.8821Z" fill="#111827"/>
</g>
<defs>
<clipPath id="clip0_294_330">
<rect width="32" height="32" fill="white"/>
</clipPath>
</defs>
</svg>
