<svg width="32" height="32" viewBox="0 0 32 32" fill="none" xmlns="http://www.w3.org/2000/svg">
<g clip-path="url(#clip0_294_330)">
<path fill-rule="evenodd" clip-rule="evenodd" d="M12.2613 2.42112C12.0276 2.78391 11.6201 3.02416 11.1565 3.02416C11.1018 3.02416 11.0479 3.02082 10.995 3.01434L9.37244 10.0118C9.47316 10.0659 9.56602 10.1326 9.64885 10.21L22.7669 4.68855C22.7661 4.66886 22.7656 4.64905 22.7656 4.62915C22.7656 4.59951 22.7666 4.5701 22.7685 4.54096L12.2613 2.42112ZM9.8865 2.0464C9.85829 1.93931 9.84326 1.82688 9.84326 1.71093C9.84326 0.985658 10.4312 0.397705 11.1565 0.397705C11.7879 0.397705 12.3153 0.843341 12.4412 1.43726L23.2427 3.61647C23.4698 3.42873 23.7612 3.31592 24.0789 3.31592C24.8041 3.31592 25.3921 3.90387 25.3921 4.62915C25.3921 4.88766 25.3174 5.12872 25.1884 5.33193L30.5715 14.9999C30.6095 14.9966 30.6479 14.9949 30.6868 14.9949C31.412 14.9949 32 15.5828 32 16.3081C32 17.0334 31.412 17.6213 30.6868 17.6213C30.6656 17.6213 30.6446 17.6208 30.6237 17.6198L23.699 29.4803C23.8735 29.7032 23.9775 29.984 23.9775 30.2891C23.9775 31.0143 23.3896 31.6023 22.6643 31.6023C22.106 31.6023 21.6291 31.2539 21.4391 30.7627L7.82294 29.4333C7.60467 29.595 7.3345 29.6907 7.04199 29.6907C6.31671 29.6907 5.72876 29.1027 5.72876 28.3774C5.72876 28.2686 5.74199 28.1629 5.76693 28.0618L1.29588 16.8204C0.578598 16.8111 0 16.2268 0 15.5073C0 14.782 0.587953 14.1941 1.31323 14.1941C1.3413 14.1941 1.36916 14.195 1.39679 14.1967L9.8865 2.0464ZM2.22551 16.4519C2.47273 16.2131 2.62646 15.8782 2.62646 15.5073C2.62646 15.4144 2.61681 15.3238 2.59847 15.2363L7.8704 12.1426C7.94242 12.208 8.02172 12.2655 8.10695 12.3137L6.36445 26.8583L2.22551 16.4519ZM9.09934 12.4369L7.34279 27.0988C7.61462 27.1625 7.85393 27.3107 8.03155 27.5141L20.4966 22.2511C20.4966 22.2496 20.4966 22.2481 20.4966 22.2466C20.4966 22.2062 20.4984 22.1663 20.502 22.1268L9.20596 12.4028C9.17109 12.4156 9.13552 12.427 9.09934 12.4369ZM9.94551 11.72L20.9859 21.2239C21.1818 21.0659 21.424 20.963 21.689 20.9388L23.3136 5.6965C23.2703 5.66536 23.2289 5.63165 23.1897 5.59558L10.065 11.1198C10.0656 11.1364 10.0659 11.1531 10.0659 11.1699C10.0659 11.3663 10.0228 11.5527 9.94551 11.72ZM24.295 5.92468L22.6643 21.224L29.4111 16.6211C29.3865 16.5208 29.3735 16.416 29.3735 16.3081C29.3735 15.9851 29.4901 15.6894 29.6835 15.4607L24.3662 5.91085C24.3427 5.9161 24.3189 5.92071 24.295 5.92468ZM22.4357 23.4013C22.8451 23.179 23.123 22.7452 23.123 22.2466C23.123 22.2057 23.1212 22.1652 23.1175 22.1253L29.2965 17.9098L22.9483 28.7828L22.4357 23.4013ZM20.8805 23.1745C21.0345 23.3286 21.2265 23.4447 21.4413 23.5074L21.9804 29.1677C21.7526 29.307 21.5705 29.5138 21.4619 29.7602L8.35126 28.4802C8.35168 28.4748 8.35206 28.4694 8.35241 28.4641L20.8805 23.1745ZM8.36866 9.91373C7.83074 10.078 7.43945 10.5782 7.43945 11.1699C7.43945 11.1918 7.43999 11.2135 7.44104 11.2351L2.77133 13.9754L9.7392 4.00314L8.36866 9.91373Z" fill="#111827"/>
</g>
<defs>
<clipPath id="clip0_294_330">
<rect width="32" height="32" fill="white"/>
</clipPath>
</defs>
</svg>
