<svg width="33" height="32" viewBox="0 0 33 32" fill="none" xmlns="http://www.w3.org/2000/svg">
<g clip-path="url(#clip0_341_275)">
<path d="M30.2091 13.0948C30.5669 12.0173 30.6906 10.8758 30.5721 9.74668C30.4535 8.61754 30.0953 7.5267 29.5215 6.54703C28.6708 5.06627 27.3718 3.89391 25.8119 3.19898C24.2519 2.50405 22.5116 2.32245 20.8418 2.68037C19.8931 1.62512 18.6835 0.838062 17.3344 0.39825C15.9853 -0.0415622 14.5442 -0.118647 13.1559 0.174739C11.7675 0.468124 10.4809 1.12165 9.42505 2.06968C8.36923 3.01771 7.58145 4.22686 7.14083 5.5757C6.02838 5.80382 4.97744 6.26675 4.05823 6.93356C3.13903 7.60036 2.37273 8.45569 1.81056 9.44237C0.950608 10.9207 0.58307 12.6341 0.761083 14.3351C0.939096 16.036 1.65344 17.6363 2.80083 18.9045C2.44171 19.9815 2.31673 21.1227 2.43423 22.2519C2.55173 23.3811 2.90901 24.4721 3.48216 25.4521C4.33395 26.9334 5.63405 28.106 7.19511 28.801C8.75616 29.4959 10.4975 29.6773 12.1683 29.3189C12.922 30.1676 13.8481 30.8458 14.8847 31.3081C15.9214 31.7705 17.0447 32.0063 18.1798 32C19.8913 32.0015 21.559 31.4592 22.9423 30.4513C24.3255 29.4433 25.3527 28.0219 25.8755 26.3922C26.9878 26.1637 28.0386 25.7006 28.9577 25.0338C29.8769 24.367 30.6433 23.5119 31.2058 22.5254C32.0555 21.0493 32.4168 19.3423 32.2378 17.6484C32.0587 15.9546 31.3487 14.3606 30.2091 13.0948ZM18.1798 29.9056C16.7781 29.9078 15.4203 29.4165 14.3446 28.5178L14.5338 28.4106L20.9048 24.733C21.0634 24.64 21.195 24.5074 21.2868 24.3481C21.3786 24.1889 21.4274 24.0085 21.4284 23.8246V14.8421L24.1218 16.4002C24.1351 16.407 24.1466 16.4168 24.1554 16.4288C24.1642 16.4409 24.17 16.4548 24.1724 16.4696V23.913C24.169 25.5013 23.5366 27.0236 22.4135 28.1467C21.2904 29.2698 19.7681 29.9022 18.1798 29.9056ZM5.29883 24.405C4.59586 23.1912 4.34346 21.7683 4.58603 20.3868L4.77536 20.5004L11.1527 24.178C11.3105 24.2706 11.4901 24.3194 11.6731 24.3194C11.8561 24.3194 12.0357 24.2706 12.1935 24.178L19.9839 19.6866V22.7965C19.9832 22.8126 19.9788 22.8284 19.9711 22.8426C19.9635 22.8568 19.9527 22.869 19.9396 22.8785L13.4866 26.6002C12.1094 27.3936 10.4737 27.608 8.93857 27.1964C7.40346 26.7848 6.0944 25.7809 5.29883 24.405ZM3.62096 10.5274C4.32881 9.30579 5.44607 8.37401 6.77496 7.89703V15.4666C6.77256 15.6495 6.81929 15.8297 6.91026 15.9883C7.00124 16.147 7.13312 16.2783 7.29216 16.3686L15.0447 20.841L12.3512 22.399C12.3367 22.4068 12.3204 22.4108 12.3039 22.4108C12.2874 22.4108 12.2711 22.4068 12.2566 22.399L5.81616 18.6837C4.44158 17.8869 3.43876 16.5779 3.02732 15.0433C2.61587 13.5087 2.82934 11.8735 3.62096 10.496V10.5274ZM25.7494 15.6685L17.9716 11.152L20.6588 9.59997C20.6734 9.59223 20.6897 9.58818 20.7062 9.58818C20.7227 9.58818 20.7389 9.59223 20.7535 9.59997L27.1939 13.3217C28.1786 13.8899 28.9814 14.7265 29.5085 15.7338C30.0356 16.7412 30.2653 17.8777 30.1707 19.0106C30.0761 20.1436 29.6612 21.2263 28.9744 22.1323C28.2876 23.0383 27.3572 23.7302 26.2919 24.1273V16.5577C26.2863 16.3751 26.2333 16.1972 26.1382 16.0412C26.0431 15.8853 25.9092 15.757 25.7494 15.6685ZM28.4303 11.6377L28.241 11.5241L21.8763 7.81503C21.7175 7.72186 21.5368 7.67275 21.3527 7.67275C21.1686 7.67275 20.9879 7.72186 20.8291 7.81503L13.0452 12.3062V9.1965C13.0436 9.18069 13.0462 9.16472 13.0529 9.15029C13.0595 9.13586 13.07 9.12349 13.0831 9.1145L19.5235 5.39903C20.5106 4.83039 21.6392 4.55455 22.7773 4.60378C23.9154 4.653 25.0159 5.02526 25.9502 5.67701C26.8845 6.32876 27.6139 7.23306 28.0531 8.28414C28.4924 9.33522 28.6232 10.4896 28.4304 11.6124L28.4303 11.6377ZM11.5752 17.1506L8.88189 15.5989C8.86842 15.5908 8.8569 15.5798 8.84814 15.5667C8.83938 15.5537 8.83361 15.5388 8.83123 15.5233V8.0989C8.83271 6.95993 9.1584 5.84492 9.77023 4.88423C10.3821 3.92354 11.2547 3.15688 12.2862 2.67389C13.3177 2.19089 14.4654 2.01151 15.595 2.15674C16.7247 2.30196 17.7897 2.76578 18.6655 3.49397L18.4762 3.6013L12.1052 7.27863C11.9467 7.37163 11.815 7.50428 11.7232 7.66354C11.6314 7.82281 11.5826 8.00321 11.5816 8.18703L11.5752 17.1506ZM13.0387 13.9968L16.508 11.997L19.9839 13.9968V17.996L16.5207 19.9956L13.0451 17.996L13.0387 13.9968Z" fill="#111827"/>
</g>
<defs>
<clipPath id="clip0_341_275">
<rect width="32" height="32" fill="white" transform="translate(0.5)"/>
</clipPath>
</defs>
</svg>
