<svg width="32" height="32" viewBox="0 0 32 32" fill="none" xmlns="http://www.w3.org/2000/svg">
<path d="M21.3466 30.0148C24.589 28.7778 27.3022 26.4548 29.0239 23.4417C30.7455 20.4285 31.3692 16.9117 30.7885 13.4902C30.2079 10.0688 28.4589 6.95461 25.8395 4.67818C23.2202 2.40175 19.8925 1.10398 16.4236 1.00598C12.9546 0.907986 9.55902 2.01583 6.81532 4.14075C4.07162 6.26568 2.14959 9.2762 1.37672 12.6594C0.603852 16.0425 1.02796 19.589 2.57678 22.6946C4.12561 25.8001 6.70332 28.2725 9.8707 29.6906L12.9348 22.8465C11.3508 22.1373 10.0618 20.9009 9.28722 19.3479C8.51267 17.7948 8.30058 16.0213 8.68709 14.3294C9.07359 12.6375 10.0348 11.132 11.4069 10.0693C12.7789 9.0067 14.477 8.45268 16.2118 8.50168C17.9466 8.55069 19.6107 9.19969 20.9206 10.3381C22.2305 11.4765 23.1052 13.0339 23.3956 14.7449C23.6859 16.4559 23.3741 18.2147 22.5131 19.7215C21.6521 21.2283 20.2953 22.39 18.6738 23.0086L21.3466 30.0148Z" stroke="#111827" stroke-width="2"/>
</svg>
