<svg width="33" height="32" viewBox="0 0 33 32" fill="none" xmlns="http://www.w3.org/2000/svg">
<g clip-path="url(#clip0_389_251)">
<path fill-rule="evenodd" clip-rule="evenodd" d="M32.5 16C32.5 16.4905 32.4779 16.9758 32.4347 17.455C32.4301 17.5063 32.387 17.5454 32.3355 17.5454H0.664552C0.613019 17.5454 0.56989 17.5063 0.565264 17.455C0.522068 16.9758 0.5 16.4905 0.5 16C0.5 15.5096 0.522059 15.0244 0.565239 14.5453C0.569864 14.494 0.612993 14.4548 0.664526 14.4548L32.3355 14.4548C32.387 14.4548 32.4301 14.494 32.4348 14.5453C32.4779 15.0244 32.5 15.5096 32.5 16ZM30.6308 8.60346C30.6681 8.60346 30.7022 8.62414 30.7194 8.65721C31.1964 9.5791 31.5864 10.5533 31.8785 11.569C31.8968 11.6325 31.8489 11.6957 31.7827 11.6957L1.21731 11.6957C1.15114 11.6957 1.10322 11.6325 1.1215 11.569C1.41362 10.5533 1.80362 9.5791 2.28064 8.65721C2.29776 8.62414 2.33194 8.60346 2.36918 8.60346L30.6308 8.60346ZM28.6526 5.84428C28.7371 5.84428 28.7833 5.74617 28.7288 5.68163C25.7938 2.2068 21.4046 0 16.5 0C11.5954 0 7.20622 2.2068 4.27125 5.68163C4.21674 5.74617 4.26292 5.84428 4.3474 5.84428L28.6526 5.84428ZM2.36905 23.3963C2.33181 23.3963 2.29763 23.3756 2.28052 23.3425C1.80359 22.4208 1.41366 21.4468 1.12158 20.4313C1.10329 20.3677 1.15122 20.3046 1.21739 20.3046H31.7826C31.8488 20.3046 31.8967 20.3677 31.8784 20.4313C31.5863 21.4468 31.1964 22.4208 30.7195 23.3425C30.7024 23.3756 30.6682 23.3963 30.631 23.3963L2.36905 23.3963ZM4.34719 26.1555C4.26271 26.1555 4.21653 26.2536 4.27104 26.3181C7.20602 29.7931 11.5953 32 16.5 32C21.4047 32 25.794 29.7931 28.729 26.3181C28.7835 26.2536 28.7373 26.1555 28.6528 26.1555L4.34719 26.1555Z" fill="#111827"/>
</g>
<defs>
<clipPath id="clip0_389_251">
<rect width="32" height="32" fill="white" transform="translate(0.5)"/>
</clipPath>
</defs>
</svg>
