<svg width="33" height="32" viewBox="0 0 33 32" fill="none" xmlns="http://www.w3.org/2000/svg">
<g clip-path="url(#clip0_389_251)">
<path fill-rule="evenodd" clip-rule="evenodd" d="M11.0315 31.5509C13.191 31.5509 15.1293 30.6038 16.4536 29.1022C17.7779 30.6038 19.7162 31.5509 21.8757 31.5509C25.8672 31.5509 29.1029 28.3152 29.1029 24.3237C29.1029 22.8776 28.6782 21.5307 27.9467 20.4009C30.6145 19.3379 32.5 16.7314 32.5 13.6845C32.5 9.69302 29.2643 6.4573 25.2728 6.4573C24.6998 6.4573 24.1424 6.52398 23.6079 6.64999C23.1097 3.14454 20.0962 0.448975 16.4531 0.448975C12.7183 0.448975 9.64528 3.2818 9.26538 6.91593C8.76969 6.80848 8.25505 6.75189 7.72719 6.75189C3.73572 6.75189 0.5 9.98761 0.5 13.9791C0.5 16.9417 2.28267 19.488 4.83387 20.6038C4.18022 21.6905 3.8043 22.9632 3.8043 24.3237C3.8043 28.3152 7.04002 31.5509 11.0315 31.5509ZM16.5 23.9012C20.4915 23.9012 23.7272 20.6655 23.7272 16.674C23.7272 12.6825 20.4915 9.44682 16.5 9.44682C12.5085 9.44682 9.27282 12.6825 9.27282 16.674C9.27282 20.6655 12.5085 23.9012 16.5 23.9012Z" fill="#111827"/>
</g>
<defs>
<clipPath id="clip0_389_251">
<rect width="32" height="32" fill="white" transform="translate(0.5)"/>
</clipPath>
</defs>
</svg>
