<svg width="33" height="32" viewBox="0 0 33 32" fill="none" xmlns="http://www.w3.org/2000/svg">
<path fill-rule="evenodd" clip-rule="evenodd" d="M23.9131 2.00085V8.16317C23.9131 8.71546 24.3608 9.16317 24.9131 9.16317C25.4654 9.16317 25.9131 8.71546 25.9131 8.16317V2.00085H28.7208V11.9707H4.2793V6.00085C4.2793 3.79172 6.07016 2.00085 8.27929 2.00085H23.9131ZM24.9131 0.000854492H29.7208C30.2731 0.000854492 30.7208 0.44857 30.7208 1.00085L30.7208 12.9707L30.7208 18.801C30.7208 19.3532 30.2731 19.801 29.7208 19.801H21.2125L21.8692 26.2611C22.1813 29.3316 19.7713 31.999 16.6849 31.999C13.5986 31.999 11.1886 29.3316 11.5007 26.261L12.1574 19.801H3.2793C2.72701 19.801 2.2793 19.3532 2.2793 18.801V12.9707V6.00085C2.2793 2.68715 4.96559 0.000854492 8.27929 0.000854492H24.9131ZM4.2793 13.9707V17.801H13.2642C13.547 17.801 13.8166 17.9207 14.0062 18.1306C14.1958 18.3404 14.2877 18.6207 14.2591 18.9021L13.4904 26.4633C13.2981 28.3553 14.7832 29.999 16.6849 29.999C18.5867 29.999 20.0718 28.3553 19.8795 26.4633L19.1108 18.9021C19.0822 18.6207 19.1741 18.3404 19.3637 18.1306C19.5533 17.9207 19.8229 17.801 20.1057 17.801H28.7208V13.9707H4.2793Z" fill="#111827"/>
</svg>
