<svg width="32" height="32" viewBox="0 0 32 32" fill="none" xmlns="http://www.w3.org/2000/svg">
<path d="M15.6718 17.3421C16.7699 17.3421 17.6602 16.4518 17.6602 15.3537C17.6602 14.2555 16.7699 13.3652 15.6718 13.3652C14.5736 13.3652 13.6833 14.2555 13.6833 15.3537C13.6833 16.4518 14.5736 17.3421 15.6718 17.3421Z" stroke="#1C1B1F" stroke-width="2" stroke-linecap="round" stroke-linejoin="round"/>
<path d="M24.0232 24.1022C24.0232 22.1144 26.0116 20.1254 26.0116 20.1254C26.0116 20.1254 28 22.1144 28 24.1022C28 24.6296 27.7905 25.1353 27.4176 25.5082C27.0447 25.8811 26.539 26.0906 26.0116 26.0906C25.4843 26.0906 24.9785 25.8811 24.6056 25.5082C24.2327 25.1353 24.0232 24.6296 24.0232 24.1022V24.1022Z" stroke="#1C1B1F" stroke-width="2" stroke-linecap="round" stroke-linejoin="round"/>
<path d="M14.2657 13.9476L7.10742 6.78931" stroke="#1C1B1F" stroke-width="2" stroke-linecap="round" stroke-linejoin="round"/>
<path d="M4 16L14.6858 5.3142L25.3716 16L14.6858 26.6858L4 16Z" stroke="#1C1B1F" stroke-width="2" stroke-linejoin="round"/>
</svg>
