<svg width="33" height="32" viewBox="0 0 33 32" fill="none" xmlns="http://www.w3.org/2000/svg">
<path fill-rule="evenodd" clip-rule="evenodd" d="M31.3115 1.11428C29.8273 -0.36996 27.4208 -0.369961 25.9366 1.11428L17.5945 9.45637L14.8022 6.83529C14.4109 6.46802 13.7995 6.47505 13.4168 6.85122L0.874455 19.1792C0.684243 19.3661 0.576598 19.6213 0.575449 19.888C0.574299 20.1547 0.67974 20.4109 0.868333 20.5995L11.9749 31.706C12.1624 31.8936 12.4168 31.9989 12.682 31.9989C12.9472 31.9989 13.2016 31.8936 13.3891 31.706L25.4859 19.6092C25.8765 19.2187 25.8765 18.5855 25.4859 18.195L22.5458 15.2549L31.3115 6.48918C32.7957 5.00494 32.7957 2.59851 31.3115 1.11428ZM27.3508 2.52849C28.054 1.8253 29.1941 1.8253 29.8973 2.52849C30.6005 3.23168 30.6005 4.37178 29.8973 5.07496L20.4245 14.5478C20.034 14.9383 20.034 15.5715 20.4245 15.962L23.3646 18.9021L20.5015 21.7653L10.8826 12.1464L14.1337 8.9509L16.9321 11.5777C17.3258 11.9472 17.9418 11.9375 18.3236 11.5557L27.3508 2.52849ZM9.45623 13.5485L2.99578 19.8985L5.29616 22.1988L9.01941 18.4756C9.40994 18.0851 10.0431 18.0851 10.4336 18.4756C10.8242 18.8661 10.8242 19.4993 10.4336 19.8898L6.71037 23.6131L9.03926 25.9419L12.7625 22.2187C13.153 21.8282 13.7862 21.8282 14.1767 22.2187C14.5672 22.6092 14.5672 23.2424 14.1767 23.6329L10.4535 27.3562L12.682 29.5847L19.0872 23.1795L9.45623 13.5485Z" fill="#111827"/>
</svg>
