<svg width="33" height="32" viewBox="0 0 33 32" fill="none" xmlns="http://www.w3.org/2000/svg">
<path fill-rule="evenodd" clip-rule="evenodd" d="M18.238 12.4837C17.6004 13.2348 17.0285 13.9482 16.5372 14.5835C17.1115 14.9355 17.6456 15.3554 18.1268 15.8367C18.6081 16.318 19.0281 16.852 19.38 17.4264C20.0154 16.9351 20.7288 16.3632 21.4799 15.7256C20.631 14.4358 19.5278 13.3326 18.238 12.4837ZM17.2705 10.5427C16.2474 11.7123 15.3657 12.8178 14.6729 13.7277C14.3607 13.6274 14.042 13.5447 13.7182 13.4803C12.048 13.148 10.3167 13.3185 8.74339 13.9702C7.17006 14.6219 5.8253 15.7255 4.87919 17.1415C3.93307 18.5575 3.42809 20.2222 3.42809 21.9251C3.42809 22.8736 3.326 23.7147 3.16299 24.4536L0.871362 28.7586C0.543435 29.0244 0.417535 29.4678 0.557405 29.8665C0.697979 30.2672 1.07634 30.5355 1.50103 30.5355H12.0384C13.7414 30.5355 15.4061 30.0305 16.8221 29.0844C18.238 28.1383 19.3416 26.7935 19.9933 25.2202C20.645 23.6468 20.8155 21.9156 20.4833 20.2453C20.4189 19.9215 20.3361 19.6028 20.2358 19.2906C21.1445 18.5988 22.2481 17.7187 23.4158 16.6975C23.4278 16.6875 23.4395 16.6773 23.4509 16.6668C24.7614 15.5188 26.1508 14.194 27.4347 12.759C30.1004 9.77923 32.4991 6.11953 32.4991 2.46448C32.4991 1.91219 32.0514 1.46448 31.4991 1.46448C27.844 1.46448 24.1843 3.86317 21.2045 6.529C19.7677 7.81443 18.4414 9.20573 17.2923 10.5177C17.2849 10.5259 17.2776 10.5342 17.2705 10.5427ZM19.5713 10.9705C20.9107 11.8931 22.0705 13.0528 22.9931 14.3923C23.9862 13.4828 24.9974 12.4837 25.9441 11.4255C28.2336 8.86628 30.0033 6.11787 30.4105 3.55311C27.8457 3.96029 25.0972 5.72997 22.538 8.01955C21.4798 8.96625 20.4807 9.97736 19.5713 10.9705ZM3.16179 24.459L3.16299 24.4536L8.74339 13.9702L3.16179 24.459ZM0.875701 28.755L3.16179 24.459C2.90551 25.6177 2.49943 26.5245 2.10262 27.1991C1.77578 27.7547 1.4525 28.1571 1.21844 28.4146C1.10149 28.5433 1.00716 28.6353 0.946354 28.6918C0.915966 28.72 0.894012 28.7393 0.881866 28.7497L0.875701 28.755ZM0.875701 28.755L0.87554 28.7553L0.875378 28.7554L0.874795 28.7558L0.874528 28.7561L0.873514 28.7569L0.871728 28.7583L0.875701 28.755ZM13.328 15.4418C12.0458 15.1868 10.7166 15.3177 9.50876 15.818C8.30088 16.3183 7.26848 17.1656 6.54213 18.2526C5.81577 19.3397 5.42809 20.6177 5.42809 21.9251C5.42809 24.7546 4.63974 26.8306 3.82649 28.2131C3.76054 28.3252 3.69449 28.4327 3.62877 28.5355H12.0384C13.3458 28.5355 14.6239 28.1478 15.7109 27.4214C16.798 26.6951 17.6453 25.6627 18.1456 24.4548C18.6459 23.2469 18.7768 21.9178 18.5217 20.6355C18.2667 19.3533 17.6371 18.1754 16.7126 17.2509C15.7882 16.3265 14.6103 15.6969 13.328 15.4418Z" fill="#111827"/>
</svg>
