<svg width="32" height="32" viewBox="0 0 32 32" fill="none" xmlns="http://www.w3.org/2000/svg">
<path d="M4 26.8291H12.4305C13.6347 26.8291 14.8119 26.472 15.8132 25.803C16.8144 25.1339 17.5948 24.183 18.0557 23.0704C18.5165 21.9579 18.6371 20.7337 18.4022 19.5526C18.1672 18.3715 17.5873 17.2866 16.7358 16.4351C15.8843 15.5836 14.7994 15.0037 13.6183 14.7687C12.4372 14.5338 11.213 14.6544 10.1004 15.1152C8.98788 15.576 8.03696 16.3564 7.36793 17.3577C6.69889 18.359 6.3418 19.5362 6.3418 20.7404C6.3418 24.9556 4 26.8291 4 26.8291Z" stroke="#1C1B1F" stroke-width="2" stroke-linecap="round" stroke-linejoin="round"/>
<path d="M14.8201 15.1387C17.0675 12.1099 22.7853 5.1709 28.0001 5.1709C28.0001 10.3856 21.0613 16.1034 18.0324 18.3509" stroke="#1C1B1F" stroke-width="2" stroke-linecap="round" stroke-linejoin="round"/>
<path d="M17.2266 12.1515C18.8163 13.0419 20.129 14.3546 21.0194 15.9444" stroke="#1C1B1F" stroke-width="2" stroke-linecap="round" stroke-linejoin="round"/>
</svg>
