<svg width="33" height="32" viewBox="0 0 33 32" fill="none" xmlns="http://www.w3.org/2000/svg">
<path fill-rule="evenodd" clip-rule="evenodd" d="M4.67136 2.90601C4.11907 2.90601 3.67136 3.35372 3.67136 3.90601V8.27249H1.50073C0.948448 8.27249 0.500732 8.7202 0.500732 9.27249C0.500732 9.82477 0.948448 10.2725 1.50073 10.2725H3.67136V14.5885C3.67136 15.1408 4.11907 15.5885 4.67136 15.5885H27.1047C27.6569 15.5885 28.1047 15.1408 28.1047 14.5885V10.2725H30.4989V15.9008C30.4989 16.3337 30.2203 16.7175 29.8087 16.8516L16.5351 21.1762C15.9177 21.3774 15.4998 21.953 15.4998 22.6024V28.0939C15.4998 28.6462 15.9475 29.0939 16.4998 29.0939C17.0521 29.0939 17.4998 28.6462 17.4998 28.0939V22.9654L30.4282 18.7532C31.6631 18.3509 32.4989 17.1996 32.4989 15.9008V9.77249C32.4989 8.94406 31.8273 8.27249 30.9989 8.27249H28.1047V3.90601C28.1047 3.35372 27.6569 2.90601 27.1047 2.90601H4.67136ZM5.67136 13.5885V4.90601H26.1047V13.5885H5.67136Z" fill="#111827"/>
</svg>
