<svg width="33" height="32" viewBox="0 0 33 32" fill="none" xmlns="http://www.w3.org/2000/svg">
<path fill-rule="evenodd" clip-rule="evenodd" d="M0.793626 15.2929C0.403101 15.6834 0.403101 16.3165 0.793626 16.7071L14.1502 30.0636C14.5407 30.4541 15.1738 30.4541 15.5644 30.0636L28.9209 16.7071C29.3114 16.3165 29.3114 15.6834 28.9209 15.2929L15.5644 1.93633C15.1738 1.5458 14.5407 1.5458 14.1502 1.93633L9.1993 6.88719L6.09224 3.78013C5.70172 3.38961 5.06856 3.38961 4.67803 3.78013C4.28751 4.17066 4.28751 4.80382 4.67803 5.19435L7.78508 8.3014L0.793626 15.2929ZM9.1993 9.71561L2.91495 16L14.8573 27.9423L26.7996 16L14.8573 4.05765L10.6135 8.3014L14.4354 12.1233C14.9276 11.8574 15.491 11.7065 16.0896 11.7065C18.0146 11.7065 19.575 13.2669 19.575 15.1919C19.575 17.1168 18.0146 18.6773 16.0896 18.6773C14.1647 18.6773 12.6043 17.1168 12.6043 15.1919C12.6043 14.5932 12.7552 14.0297 13.0212 13.5375L9.1993 9.71561ZM15.0397 14.1418L15.0239 14.1572C14.7642 14.4247 14.6043 14.7896 14.6043 15.1919C14.6043 16.0122 15.2693 16.6773 16.0896 16.6773C16.91 16.6773 17.575 16.0122 17.575 15.1919C17.575 14.3715 16.91 13.7065 16.0896 13.7065C15.6874 13.7065 15.3225 13.8664 15.0551 14.126L15.0397 14.1418ZM29.0139 21.1561L29.7211 20.4491C29.5335 20.2615 29.2792 20.1561 29.0139 20.1561C28.7486 20.1561 28.4942 20.2615 28.3067 20.4491L29.0139 21.1561ZM29.0139 21.1561C29.7211 20.4491 29.7213 20.4493 29.7215 20.4495L29.7219 20.4499L29.7229 20.451L29.7257 20.4537L29.7339 20.462L29.7605 20.4893C29.7827 20.5123 29.8135 20.5445 29.8518 20.5856C29.9283 20.6676 30.0349 20.7849 30.1616 20.9327C30.4139 21.2272 30.7506 21.6479 31.0887 22.1551C31.7432 23.1369 32.4993 24.584 32.4993 26.1269C32.4993 27.0513 32.1321 27.9378 31.4784 28.5915C30.8248 29.2451 29.9383 29.6123 29.0139 29.6123C28.0895 29.6123 27.203 29.2451 26.5493 28.5915C25.8957 27.9378 25.5285 27.0513 25.5285 26.1269C25.5285 24.584 26.2846 23.1369 26.9391 22.1551C27.2772 21.6479 27.6139 21.2272 27.8662 20.9327C27.9928 20.7849 28.0994 20.6676 28.1759 20.5856C28.2142 20.5445 28.2451 20.5123 28.2673 20.4893L28.2939 20.462L28.3021 20.4537L28.3048 20.451L28.3059 20.4499L28.3063 20.4495C28.3065 20.4493 28.3067 20.4491 29.0139 21.1561ZM29.4245 23.2644C29.2851 23.0553 29.1453 22.8629 29.0139 22.6916C28.8824 22.8629 28.7427 23.0553 28.6033 23.2644C28.0151 24.1468 27.5285 25.1852 27.5285 26.1269C27.5285 26.5209 27.685 26.8987 27.9636 27.1772C28.2421 27.4558 28.6199 27.6123 29.0139 27.6123C29.4078 27.6123 29.7857 27.4558 30.0642 27.1772C30.3428 26.8987 30.4993 26.5209 30.4993 26.1269C30.4993 25.1852 30.0127 24.1468 29.4245 23.2644Z" fill="#111827"/>
</svg>
