<svg width="33" height="32" viewBox="0 0 33 32" fill="none" xmlns="http://www.w3.org/2000/svg">
<path d="M31.1271 19.6564C31.385 18.5196 31.5099 17.3567 31.4994 16.1911C31.43 7.9365 24.6002 1.23744 16.3457 1.32059C12.8202 1.35744 9.42026 2.63479 6.7426 4.92848C4.06494 7.22216 2.28065 10.3856 1.70286 13.8637C1.12506 17.3418 1.79069 20.9122 3.58291 23.9485C5.37514 26.9847 8.17946 29.2927 11.5037 30.4675C12.0693 30.6667 12.6745 30.7274 13.2684 30.6445C13.8623 30.5615 14.4276 30.3374 14.917 29.9908C15.4064 29.6443 15.8056 29.1854 16.081 28.6528C16.3564 28.1201 16.5001 27.5291 16.5 26.9295V26.3197C16.5 25.3252 16.8951 24.3713 17.5983 23.6681C18.3016 22.9648 19.2554 22.5697 20.25 22.5697H27.4701C28.3196 22.5703 29.1441 22.2824 29.8085 21.7531C30.4729 21.2238 30.9378 20.4845 31.1271 19.6564Z" stroke="#111827" stroke-width="2" stroke-linecap="round" stroke-linejoin="round"/>
<path fill-rule="evenodd" clip-rule="evenodd" d="M18.375 8.1947C18.375 9.23023 17.5356 10.0697 16.5 10.0697C15.4645 10.0697 14.625 9.23023 14.625 8.1947C14.625 7.15917 15.4645 6.3197 16.5 6.3197C17.5356 6.3197 18.375 7.15917 18.375 8.1947ZM11.3386 12.2572C11.3386 13.2927 10.4991 14.1322 9.46362 14.1322C8.42809 14.1322 7.58862 13.2927 7.58862 12.2572C7.58862 11.2217 8.42809 10.3822 9.46362 10.3822C10.4991 10.3822 11.3386 11.2217 11.3386 12.2572ZM9.46362 22.2571C10.4991 22.2571 11.3386 21.4177 11.3386 20.3822C11.3386 19.3466 10.4991 18.5072 9.46362 18.5072C8.42809 18.5072 7.58862 19.3466 7.58862 20.3822C7.58862 21.4177 8.42809 22.2571 9.46362 22.2571ZM25.4114 12.2572C25.4114 13.2927 24.572 14.1322 23.5364 14.1322C22.5009 14.1322 21.6615 13.2927 21.6615 12.2572C21.6615 11.2217 22.5009 10.3822 23.5364 10.3822C24.572 10.3822 25.4114 11.2217 25.4114 12.2572Z" fill="#111827"/>
</svg>
