<svg width="32" height="32" viewBox="0 0 32 32" fill="none" xmlns="http://www.w3.org/2000/svg">
<path d="M27.7017 18.9249C27.9081 18.0155 28.008 17.0852 27.9996 16.1526C27.9441 9.54897 22.4802 4.18971 15.8766 4.25623C13.0562 4.28571 10.3362 5.30759 8.19409 7.14255C6.05196 8.9775 4.62452 11.5083 4.16229 14.2907C3.70005 17.0732 4.23255 19.9296 5.66634 22.3586C7.10012 24.7876 9.34359 26.634 12.003 27.5738C12.4555 27.7332 12.9396 27.7818 13.4147 27.7154C13.8899 27.6491 14.3421 27.4698 14.7336 27.1925C15.1252 26.9153 15.4445 26.5482 15.6648 26.122C15.8852 25.6959 16.0001 25.2231 16 24.7434V24.2556C16 23.46 16.3161 22.6969 16.8787 22.1343C17.4413 21.5717 18.2044 21.2556 19 21.2556H24.7762C25.4558 21.2561 26.1153 21.0257 26.6468 20.6023C27.1784 20.1788 27.5503 19.5874 27.7017 18.9249V18.9249Z" stroke="#1C1B1F" stroke-width="2" stroke-linecap="round" stroke-linejoin="round"/>
<path d="M16 11.2556C16.8284 11.2556 17.5 10.584 17.5 9.75562C17.5 8.92719 16.8284 8.25562 16 8.25562C15.1716 8.25562 14.5 8.92719 14.5 9.75562C14.5 10.584 15.1716 11.2556 16 11.2556Z" fill="#1C1B1F"/>
<path d="M10.3708 14.5056C11.1993 14.5056 11.8708 13.834 11.8708 13.0056C11.8708 12.1772 11.1993 11.5056 10.3708 11.5056C9.54242 11.5056 8.87085 12.1772 8.87085 13.0056C8.87085 13.834 9.54242 14.5056 10.3708 14.5056Z" fill="#1C1B1F"/>
<path d="M10.3708 21.0056C11.1993 21.0056 11.8708 20.334 11.8708 19.5056C11.8708 18.6772 11.1993 18.0056 10.3708 18.0056C9.54242 18.0056 8.87085 18.6772 8.87085 19.5056C8.87085 20.334 9.54242 21.0056 10.3708 21.0056Z" fill="#1C1B1F"/>
<path d="M21.6292 14.5056C22.4576 14.5056 23.1292 13.834 23.1292 13.0056C23.1292 12.1772 22.4576 11.5056 21.6292 11.5056C20.8007 11.5056 20.1292 12.1772 20.1292 13.0056C20.1292 13.834 20.8007 14.5056 21.6292 14.5056Z" fill="#1C1B1F"/>
</svg>
