<svg width="33" height="32" viewBox="0 0 33 32" fill="none" xmlns="http://www.w3.org/2000/svg">
<path fill-rule="evenodd" clip-rule="evenodd" d="M17.3685 1.99429C17.1922 1.67653 16.8573 1.47943 16.4939 1.47949C16.1305 1.47955 15.7957 1.67675 15.6195 1.99458L0.626179 29.0355C0.427998 29.3929 0.46726 29.835 0.725335 30.1519C0.983409 30.4688 1.40835 30.5968 1.79851 30.4751L16.4998 25.8895L31.2011 30.4751C31.5913 30.5968 32.0163 30.4688 32.2744 30.1518C32.5325 29.8348 32.5716 29.3926 32.3733 29.0352L17.3685 1.99429ZM3.58555 27.8226L16.4944 4.5411L29.413 27.8223L17.4996 24.1063V15.3675C17.4996 14.8152 17.0519 14.3675 16.4996 14.3675C15.9473 14.3675 15.4996 14.8152 15.4996 15.3675V24.1065L3.58555 27.8226Z" fill="#111827"/>
</svg>
