<svg width="33" height="32" viewBox="0 0 33 32" fill="none" xmlns="http://www.w3.org/2000/svg">
<path fill-rule="evenodd" clip-rule="evenodd" d="M30.5037 15.0531C30.8219 15.2288 31.0197 15.5632 31.0205 15.9266C31.0212 16.29 30.8247 16.6252 30.5073 16.8021L3.46661 31.8726C3.10927 32.0717 2.66666 32.0331 2.34917 31.7752C2.03167 31.5172 1.90333 31.0918 2.02515 30.7013L6.61069 16L2.02515 1.29869C1.90355 0.908858 2.0312 0.484259 2.3476 0.226105C2.664 -0.0320507 3.10558 -0.0718895 3.46308 0.125464L30.5037 15.0531ZM8.39375 17.0002L4.67994 28.9067L27.9589 15.9327L4.67559 3.07934L8.39387 15.0002H17.1327C17.685 15.0002 18.1327 15.4479 18.1327 16.0002C18.1327 16.5525 17.685 17.0002 17.1327 17.0002H8.39375Z" fill="#111827"/>
</svg>
