<svg width="33" height="32" viewBox="0 0 33 32" fill="none" xmlns="http://www.w3.org/2000/svg">
<path fill-rule="evenodd" clip-rule="evenodd" d="M32.4567 1.32822C32.5628 0.975766 32.4666 0.593561 32.2064 0.33323C31.9463 0.0728995 31.5641 -0.0234717 31.2116 0.0823498L1.21347 9.08756C0.81654 9.20672 0.534236 9.55836 0.503708 9.97167C0.47318 10.385 0.700754 10.7743 1.07587 10.9505L15.0106 17.4952L21.5943 31.3881C21.7714 31.762 22.1605 31.9881 22.573 31.9571C22.9855 31.926 23.3363 31.6441 23.4555 31.248L32.4567 1.32822ZM15.5356 15.5322L4.29225 10.2515L30.0059 2.53247L22.2889 28.1836L16.9593 16.937L22.8995 10.9967C23.2901 10.6062 23.2901 9.97303 22.8995 9.58251C22.509 9.19198 21.8758 9.19198 21.4853 9.58251L15.5356 15.5322Z" fill="#111827"/>
</svg>
