<svg width="33" height="33" viewBox="0 0 33 33" fill="none" xmlns="http://www.w3.org/2000/svg">
<path fill-rule="evenodd" clip-rule="evenodd" d="M13.883 2.76053C11.3074 3.27534 8.9191 4.54057 7.03444 6.42523C4.75839 8.70128 3.38575 11.7119 3.14728 14.8998H9.54136C9.58098 9.49914 11.8113 5.30046 13.883 2.76053ZM9.6659 16.8998H5.02951L13.1447 22.8867L9.73567 17.0452C9.70846 16.9985 9.68515 16.9499 9.6659 16.8998ZM20.0701 22.6545L27.7855 16.8998H23.4435C23.4238 16.9511 23.3998 17.0009 23.3717 17.0486L20.0701 22.6545ZM21.1383 16.8998L16.5314 24.7219L11.9665 16.8998H21.1383ZM21.4899 14.8998H11.5418C11.5923 8.95875 14.5947 4.66186 16.5622 2.79544C18.5024 4.44616 19.7548 6.86039 20.5189 9.36463C21.125 11.3511 21.4041 13.3313 21.4899 14.8998ZM23.4926 14.8998H29.8707C29.6323 11.7119 28.2596 8.70128 25.9836 6.42523C24.1553 4.5969 21.853 3.35153 19.3655 2.80871C20.832 4.58753 21.8026 6.71877 22.4318 8.78094C23.1021 10.9778 23.4057 13.1625 23.4926 14.8998ZM16.5341 0.500753C20.6091 0.507372 24.5158 2.12903 27.3978 5.01102C30.2857 7.8989 31.9081 11.8157 31.9081 15.8998C31.9081 16.165 31.8027 16.4194 31.6152 16.6069C31.4937 16.7284 31.3442 16.8154 31.1819 16.8616L17.5091 27.0598V30.499H18.9091C19.4614 30.499 19.9091 30.9467 19.9091 31.499C19.9091 32.0513 19.4614 32.499 18.9091 32.499H14.1094C13.5571 32.499 13.1094 32.0513 13.1094 31.499C13.1094 30.9467 13.5571 30.499 14.1094 30.499H15.5091V27.1162L1.49795 16.7798C1.17622 16.5425 1.03788 16.1488 1.1104 15.781C1.14155 11.7398 2.76036 7.87088 5.62023 5.01102C8.50811 2.12313 12.4249 0.500732 16.509 0.500732C16.5139 0.500732 16.5188 0.500735 16.5236 0.500739" fill="#111827"/>
</svg>
