<svg width="33" height="32" viewBox="0 0 33 32" fill="none" xmlns="http://www.w3.org/2000/svg">
<path fill-rule="evenodd" clip-rule="evenodd" d="M13.883 2.26053C11.3074 2.77534 8.9191 4.04057 7.03444 5.92523C4.75839 8.20128 3.38575 11.2119 3.14728 14.3998H9.54136C9.58098 8.99914 11.8113 4.80046 13.883 2.26053ZM9.6659 16.3998H5.02951L13.1447 22.3867L9.73567 16.5452C9.70846 16.4985 9.68515 16.4499 9.6659 16.3998ZM20.0701 22.1545L27.7855 16.3998H23.4435C23.4238 16.4511 23.3998 16.5009 23.3717 16.5486L20.0701 22.1545ZM21.1383 16.3998L16.5314 24.2219L11.9665 16.3998H21.1383ZM21.4899 14.3998H11.5418C11.5923 8.45875 14.5947 4.16186 16.5622 2.29544C18.5024 3.94616 19.7548 6.36039 20.5189 8.86463C21.125 10.8511 21.4041 12.8313 21.4899 14.3998ZM23.4926 14.3998H29.8707C29.6323 11.2119 28.2596 8.20128 25.9836 5.92523C24.1553 4.0969 21.853 2.85153 19.3655 2.30871C20.832 4.08753 21.8026 6.21877 22.4318 8.28094C23.1021 10.4778 23.4057 12.6625 23.4926 14.3998ZM16.5341 0.000752766C20.6091 0.00737207 24.5158 1.62903 27.3978 4.51102C30.2857 7.3989 31.9081 11.3157 31.9081 15.3998C31.9081 15.665 31.8027 15.9194 31.6152 16.1069C31.4937 16.2284 31.3442 16.3154 31.1819 16.3616L17.5091 26.5598V29.999H18.9091C19.4614 29.999 19.9091 30.4467 19.9091 30.999C19.9091 31.5513 19.4614 31.999 18.9091 31.999H14.1094C13.5571 31.999 13.1094 31.5513 13.1094 30.999C13.1094 30.4467 13.5571 29.999 14.1094 29.999H15.5091V26.6162L1.49795 16.2798C1.17622 16.0425 1.03788 15.6488 1.1104 15.281C1.14155 11.2398 2.76036 7.37088 5.62023 4.51102C8.50811 1.62313 12.4249 0.000732422 16.509 0.000732422C16.5139 0.000732422 16.5188 0.000734707 16.5236 0.000739324" fill="#111827"/>
</svg>
