<svg width="33" height="32" viewBox="0 0 33 32" fill="none" xmlns="http://www.w3.org/2000/svg">
<path fill-rule="evenodd" clip-rule="evenodd" d="M1.50085 3.65625C2.05314 3.65625 2.50085 4.10397 2.50085 4.65625V27.3437C2.50085 27.896 2.05314 28.3437 1.50085 28.3437C0.94857 28.3437 0.500854 27.896 0.500854 27.3437V4.65625C0.500854 4.10397 0.94857 3.65625 1.50085 3.65625ZM11.5842 9.9584C12.1364 9.9584 12.5842 10.4061 12.5842 10.9584V14.6225L16.0641 13.4892C16.5892 13.3182 17.1536 13.6053 17.3246 14.1304C17.4956 14.6556 17.2085 15.2199 16.6834 15.3909L13.2009 16.5251L15.3554 19.4933C15.6798 19.9402 15.5805 20.5655 15.1336 20.89C14.6866 21.2144 14.0613 21.1151 13.7369 20.6681L11.5842 17.7025L9.43151 20.6681C9.10708 21.1151 8.48175 21.2144 8.0348 20.89C7.58785 20.5655 7.48853 19.9402 7.81295 19.4933L9.96747 16.5251L6.48486 15.3909C5.95972 15.2199 5.67264 14.6556 5.84366 14.1304C6.01468 13.6053 6.57902 13.3182 7.10416 13.4892L10.5842 14.6225V10.9584C10.5842 10.4061 11.0319 9.9584 11.5842 9.9584ZM27.7092 10.9584C27.7092 10.4061 27.2615 9.9584 26.7092 9.9584C26.1569 9.9584 25.7092 10.4061 25.7092 10.9584V14.6225L22.2292 13.4892C21.704 13.3182 21.1397 13.6053 20.9687 14.1304C20.7977 14.6556 21.0847 15.2199 21.6099 15.3909L25.0924 16.525L22.9379 19.4933C22.6134 19.9402 22.7128 20.5655 23.1597 20.89C23.6067 21.2144 24.232 21.1151 24.5564 20.6681L26.7091 17.7024L28.8619 20.6681C29.1863 21.1151 29.8116 21.2144 30.2586 20.89C30.7055 20.5655 30.8049 19.9402 30.4804 19.4933L28.3259 16.5251L31.8084 15.3909C32.3335 15.2199 32.6206 14.6556 32.4496 14.1304C32.2786 13.6053 31.7142 13.3182 31.1891 13.4892L27.7092 14.6225V10.9584ZM27.705 14.6239L27.7092 10.9584L27.7047 14.624L27.705 14.6239Z" fill="#111827"/>
</svg>
