<svg width="33" height="32" viewBox="0 0 33 32" fill="none" xmlns="http://www.w3.org/2000/svg">
<path fill-rule="evenodd" clip-rule="evenodd" d="M7.77218 1.90063C7.21989 1.90063 6.77218 2.34835 6.77218 2.90063C6.77218 3.45292 7.21989 3.90063 7.77218 3.90063H22.6415C24.8638 3.90063 26.6653 5.70218 26.6653 7.92449C26.6653 10.1468 24.8638 11.9483 22.6415 11.9483H7.67107C3.71107 11.9483 0.500854 15.1586 0.500854 19.1186C0.500854 23.0786 3.71107 26.2888 7.67108 26.2888H23.0745C23.5144 28.4628 25.4358 30.0994 27.7395 30.0994C30.3681 30.0994 32.4991 27.9685 32.4991 25.3398C32.4991 22.7112 30.3681 20.5803 27.7395 20.5803C25.472 20.5803 23.5749 22.1659 23.0964 24.2888H7.67108C4.81564 24.2888 2.50085 21.974 2.50085 19.1186C2.50085 16.2631 4.81564 13.9483 7.67107 13.9483H22.6415C25.9683 13.9483 28.6653 11.2514 28.6653 7.92449C28.6653 4.59761 25.9683 1.90063 22.6415 1.90063H7.77218ZM24.9799 25.3398C24.9799 23.8158 26.2154 22.5803 27.7395 22.5803C29.2636 22.5803 30.4991 23.8158 30.4991 25.3398C30.4991 26.8639 29.2636 28.0994 27.7395 28.0994C26.2154 28.0994 24.9799 26.8639 24.9799 25.3398Z" fill="#111827"/>
</svg>
