<svg width="33" height="33" viewBox="0 0 33 33" fill="none" xmlns="http://www.w3.org/2000/svg">
<path fill-rule="evenodd" clip-rule="evenodd" d="M16.4999 2.50073C8.76846 2.50073 2.50085 8.76834 2.50085 16.4998C2.50085 24.2313 8.76846 30.4989 16.4999 30.4989C24.2314 30.4989 30.499 24.2313 30.499 16.4998C30.499 8.76834 24.2314 2.50073 16.4999 2.50073ZM0.500854 16.4998C0.500854 7.66377 7.66389 0.500732 16.4999 0.500732C25.336 0.500732 32.499 7.66377 32.499 16.4998C32.499 25.3359 25.336 32.4989 16.4999 32.4989C7.66389 32.4989 0.500854 25.3359 0.500854 16.4998ZM12.7502 10.5001C13.3024 10.5001 13.7502 10.9478 13.7502 11.5001V21.4995C13.7502 22.0518 13.3024 22.4995 12.7502 22.4995C12.1979 22.4995 11.7502 22.0518 11.7502 21.4995V11.5001C11.7502 10.9478 12.1979 10.5001 12.7502 10.5001ZM21.2497 11.5001C21.2497 10.9478 20.802 10.5001 20.2497 10.5001C19.6974 10.5001 19.2497 10.9478 19.2497 11.5001V21.4995C19.2497 22.0518 19.6974 22.4995 20.2497 22.4995C20.802 22.4995 21.2497 22.0518 21.2497 21.4995V11.5001Z" fill="#111827"/>
</svg>
