<svg width="33" height="33" viewBox="0 0 33 33" fill="none" xmlns="http://www.w3.org/2000/svg">
<path fill-rule="evenodd" clip-rule="evenodd" d="M9.42357 6.69279C9.42357 5.65204 10.2673 4.80835 11.308 4.80835C12.3488 4.80835 13.1925 5.65204 13.1925 6.69279C13.1925 7.73354 12.3488 8.57723 11.308 8.57723C10.2673 8.57723 9.42357 7.73354 9.42357 6.69279ZM11.308 2.80835C9.16269 2.80835 7.42357 4.54747 7.42357 6.69279C7.42357 8.83811 9.16269 10.5772 11.308 10.5772C13.4533 10.5772 15.1925 8.83811 15.1925 6.69279C15.1925 4.54747 13.4533 2.80835 11.308 2.80835ZM4.38536 11.7312C3.34461 11.7312 2.50092 12.5749 2.50092 13.6156C2.50092 14.6564 3.34461 15.5001 4.38536 15.5001C5.4261 15.5001 6.2698 14.6564 6.2698 13.6156C6.2698 12.5749 5.4261 11.7312 4.38536 11.7312ZM0.500916 13.6156C0.500916 11.4703 2.24004 9.73119 4.38536 9.73119C6.53067 9.73119 8.2698 11.4703 8.2698 13.6156C8.2698 15.7609 6.53067 17.5001 4.38536 17.5001C2.24004 17.5001 0.500916 15.7609 0.500916 13.6156ZM28.6147 11.7312C27.5739 11.7312 26.7302 12.5749 26.7302 13.6156C26.7302 14.6564 27.5739 15.5001 28.6147 15.5001C29.6554 15.5001 30.4991 14.6564 30.4991 13.6156C30.4991 12.5749 29.6554 11.7312 28.6147 11.7312ZM24.7302 13.6156C24.7302 11.4703 26.4693 9.73119 28.6147 9.73119C30.76 9.73119 32.4991 11.4703 32.4991 13.6156C32.4991 15.7609 30.76 17.5001 28.6147 17.5001C26.4693 17.5001 24.7302 15.7609 24.7302 13.6156ZM21.692 4.80835C20.6513 4.80835 19.8076 5.65204 19.8076 6.69279C19.8076 7.73354 20.6513 8.57723 21.692 8.57723C22.7328 8.57723 23.5765 7.73354 23.5765 6.69279C23.5765 5.65204 22.7328 4.80835 21.692 4.80835ZM17.8076 6.69279C17.8076 4.54747 19.5467 2.80835 21.692 2.80835C23.8373 2.80835 25.5765 4.54747 25.5765 6.69279C25.5765 8.83811 23.8373 10.5772 21.692 10.5772C19.5467 10.5772 17.8076 8.83811 17.8076 6.69279ZM16.5 12.0158C15.156 12.0158 13.8485 12.453 12.7749 13.2616C11.7013 14.0701 10.92 15.206 10.5488 16.4978C10.1645 17.8353 9.26837 18.9674 8.05492 19.6486C6.96313 20.2451 6.10028 21.1872 5.60192 22.3273C5.10271 23.4692 4.99762 24.7448 5.30321 25.9531C5.6088 27.1614 6.30769 28.2337 7.2898 29.001C8.2719 29.7684 9.48138 30.1872 10.7277 30.1914L10.7305 30.1914C11.4816 30.1919 12.2253 30.0432 12.9185 29.754C14.0539 29.2834 15.2709 29.0412 16.5 29.0412C17.7291 29.0412 18.9461 29.2834 20.0815 29.754C20.7747 30.0432 21.5184 30.1919 22.2695 30.1914L22.2723 30.1914C23.5186 30.1872 24.7281 29.7684 25.7102 29.001C26.6923 28.2337 27.3912 27.1614 27.6968 25.9531C28.0024 24.7448 27.8973 23.4692 27.3981 22.3273C26.8997 21.1872 26.0369 20.245 24.9451 19.6486C23.7316 18.9674 22.8355 17.8353 22.4512 16.4978C22.08 15.206 21.2987 14.0701 20.2251 13.2616C19.1515 12.453 17.844 12.0158 16.5 12.0158ZM20.529 17.0501L20.5292 17.0508C21.0597 18.8963 22.2971 20.4579 23.9724 21.3962L23.9724 21.3962L23.9826 21.4018C24.6873 21.7857 25.2441 22.3931 25.5655 23.1283C25.8869 23.8636 25.9546 24.6848 25.7579 25.4627C25.5611 26.2407 25.1111 26.931 24.4789 27.425C23.8469 27.9188 23.0686 28.1884 22.2666 28.1914C21.7808 28.1915 21.2997 28.0952 20.8513 27.908L20.8491 27.9071C19.4704 27.3355 17.9925 27.0412 16.5 27.0412C15.0075 27.0412 13.5296 27.3355 12.1509 27.9071L12.1487 27.908C11.7003 28.0952 11.2193 28.1915 10.7334 28.1914C9.93139 28.1884 9.15315 27.9188 8.52116 27.425C7.88886 26.931 7.4389 26.2407 7.24216 25.4627C7.04541 24.6848 7.11307 23.8636 7.43447 23.1283C7.75587 22.3931 8.31275 21.7857 9.01737 21.4018L9.0174 21.4019L9.02758 21.3962C10.7032 20.4578 11.9407 18.8959 12.471 17.0501C12.7223 16.1756 13.2513 15.4066 13.9781 14.8592C14.7049 14.3118 15.5901 14.0158 16.5 14.0158C17.4099 14.0158 18.2951 14.3118 19.0219 14.8592C19.7487 15.4066 20.2777 16.1756 20.529 17.0501Z" fill="#111827"/>
</svg>
