<svg width="32" height="33" viewBox="0 0 32 33" fill="none" xmlns="http://www.w3.org/2000/svg">
<path d="M25.6923 16.5C26.9668 16.5 28 15.4668 28 14.1923C28 12.9178 26.9668 11.8846 25.6923 11.8846C24.4178 11.8846 23.3846 12.9178 23.3846 14.1923C23.3846 15.4668 24.4178 16.5 25.6923 16.5Z" stroke="#1C1B1F" stroke-width="2" stroke-linecap="round" stroke-linejoin="round"/>
<path d="M6.30769 16.5C7.5822 16.5 8.61538 15.4668 8.61538 14.1923C8.61538 12.9178 7.5822 11.8846 6.30769 11.8846C5.03319 11.8846 4 12.9178 4 14.1923C4 15.4668 5.03319 16.5 6.30769 16.5Z" stroke="#1C1B1F" stroke-width="2" stroke-linecap="round" stroke-linejoin="round"/>
<path d="M11.8461 10.9616C13.1206 10.9616 14.1538 9.92839 14.1538 8.65388C14.1538 7.37938 13.1206 6.34619 11.8461 6.34619C10.5716 6.34619 9.53845 7.37938 9.53845 8.65388C9.53845 9.92839 10.5716 10.9616 11.8461 10.9616Z" stroke="#1C1B1F" stroke-width="2" stroke-linecap="round" stroke-linejoin="round"/>
<path d="M20.1538 10.9616C21.4283 10.9616 22.4615 9.92839 22.4615 8.65388C22.4615 7.37938 21.4283 6.34619 20.1538 6.34619C18.8793 6.34619 17.8461 7.37938 17.8461 8.65388C17.8461 9.92839 18.8793 10.9616 20.1538 10.9616Z" stroke="#1C1B1F" stroke-width="2" stroke-linecap="round" stroke-linejoin="round"/>
<path d="M22.3693 19.7192C21.2126 19.0715 20.3584 17.9934 19.9923 16.7192V16.7192C19.7433 15.8527 19.2192 15.0907 18.499 14.5483C17.7788 14.0059 16.9016 13.7125 16 13.7125C15.0984 13.7125 14.2213 14.0059 13.5011 14.5483C12.7809 15.0907 12.2567 15.8527 12.0077 16.7192C11.6416 17.9934 10.7874 19.0715 9.63079 19.7192C8.91112 20.1113 8.34235 20.7317 8.01409 21.4826C7.68582 22.2336 7.61672 23.0724 7.81767 23.8669C8.01861 24.6614 8.47819 25.3665 9.12398 25.8711C9.76978 26.3757 10.5651 26.651 11.3846 26.6539C11.8798 26.6542 12.37 26.5561 12.8269 26.3654C13.8328 25.9483 14.9111 25.7336 16 25.7336C17.089 25.7336 18.1672 25.9483 19.1731 26.3654C19.63 26.5561 20.1203 26.6542 20.6154 26.6539C21.4349 26.651 22.2303 26.3757 22.8761 25.8711C23.5219 25.3665 23.9814 24.6614 24.1824 23.8669C24.3833 23.0724 24.3142 22.2336 23.986 21.4826C23.6577 20.7317 23.0889 20.1113 22.3693 19.7192Z" stroke="#1C1B1F" stroke-width="2" stroke-linecap="round" stroke-linejoin="round"/>
</svg>
