<svg width="33" height="33" viewBox="0 0 33 33" fill="none" xmlns="http://www.w3.org/2000/svg">
<path fill-rule="evenodd" clip-rule="evenodd" d="M23.9999 3.86621C20.4102 3.86621 17.5002 6.7762 17.5002 10.3658C17.5002 13.9555 20.4102 16.8655 23.9999 16.8655C27.5895 16.8655 30.4995 13.9555 30.4995 10.3658C30.4995 6.7762 27.5895 3.86621 23.9999 3.86621ZM15.5002 10.3658C15.5002 5.67163 19.3057 1.86621 23.9999 1.86621C28.6941 1.86621 32.4995 5.67163 32.4995 10.3658C32.4995 15.0601 28.6941 18.8655 23.9999 18.8655C19.3057 18.8655 15.5002 15.0601 15.5002 10.3658ZM23.9998 4.99093C24.5521 4.99093 24.9998 5.43865 24.9998 5.99093V6.24104H25.8749C26.4271 6.24104 26.8749 6.68876 26.8749 7.24104C26.8749 7.79333 26.4271 8.24104 25.8749 8.24104H23.0625C22.9133 8.24104 22.7703 8.3003 22.6648 8.40577C22.5593 8.51125 22.5001 8.6543 22.5001 8.80347C22.5001 8.95263 22.5593 9.09569 22.6648 9.20116C22.7703 9.30664 22.9133 9.36589 23.0625 9.36589H24.9374C25.617 9.36589 26.2688 9.63586 26.7493 10.1164C27.2299 10.597 27.4998 11.2487 27.4998 11.9283C27.4998 12.6079 27.2299 13.2597 26.7493 13.7402C26.2835 14.206 25.6568 14.474 24.9998 14.49V14.7401C24.9998 15.2923 24.5521 15.7401 23.9998 15.7401C23.4475 15.7401 22.9998 15.2923 22.9998 14.7401V14.4907H22.125C21.5728 14.4907 21.125 14.043 21.125 13.4907C21.125 12.9385 21.5728 12.4907 22.125 12.4907H23.9835L23.9998 12.4906L24.0161 12.4907H24.9374C25.0866 12.4907 25.2296 12.4315 25.3351 12.326C25.4406 12.2205 25.4998 12.0775 25.4998 11.9283C25.4998 11.7792 25.4406 11.6361 25.3351 11.5306C25.2296 11.4251 25.0866 11.3659 24.9374 11.3659H23.0625C22.3829 11.3659 21.7311 11.0959 21.2506 10.6154C20.77 10.1348 20.5001 9.48307 20.5001 8.80347C20.5001 8.12387 20.77 7.47211 21.2506 6.99156C21.7163 6.52581 22.3429 6.25787 22.9998 6.24181V5.99093C22.9998 5.43865 23.4475 4.99093 23.9998 4.99093ZM30.4996 29.1339V17.8093C31.2861 17.1219 31.9627 16.3118 32.4996 15.409V30.1339C32.4996 30.6862 32.0519 31.1339 31.4996 31.1339H1.50147C0.94918 31.1339 0.501465 30.6862 0.501465 30.1339V15.2964C0.500978 15.2836 0.500732 15.2707 0.500732 15.2577C0.500732 15.2448 0.500978 15.2319 0.501465 15.2191V9.36597C0.501465 8.81368 0.94918 8.36597 1.50147 8.36597H14.3206C14.1879 9.01183 14.1182 9.68069 14.1182 10.3658V10.366H2.50147V14.2577H14.9141C15.2203 14.9717 15.6082 15.6422 16.066 16.2577H2.50147V29.1339H30.4996ZM22.2686 24.5194C21.7163 24.5194 21.2686 24.9671 21.2686 25.5194C21.2686 26.0717 21.7163 26.5194 22.2686 26.5194H26.8837C27.436 26.5194 27.8837 26.0717 27.8837 25.5194C27.8837 24.9671 27.436 24.5194 26.8837 24.5194H22.2686ZM14.346 25.5194C14.346 24.9671 14.7937 24.5194 15.346 24.5194H17.6526C18.2049 24.5194 18.6526 24.9671 18.6526 25.5194C18.6526 26.0717 18.2049 26.5194 17.6526 26.5194H15.346C14.7937 26.5194 14.346 26.0717 14.346 25.5194Z" fill="#111827"/>
</svg>
