<svg width="33" height="32" viewBox="0 0 33 32" fill="none" xmlns="http://www.w3.org/2000/svg">
<path fill-rule="evenodd" clip-rule="evenodd" d="M15.4998 2.03608C8.23504 2.54883 2.50073 8.60476 2.50073 16C2.50073 18.6112 3.21566 21.0555 4.46046 23.1477L15.4998 15.4771V2.03608ZM16.4998 0.000915527C7.66377 0.000915527 0.500732 7.16395 0.500732 16C0.500732 24.8361 7.66377 31.9991 16.4998 31.9991C25.3359 31.9991 32.4989 24.8361 32.4989 16C32.4989 7.16395 25.3359 0.000915527 16.4998 0.000915527ZM17.4998 2.03608V15.4794L28.5132 23.1911C29.774 21.0893 30.4989 18.6293 30.4989 16C30.4989 8.60475 24.7646 2.54882 17.4998 2.03608ZM15.4998 17.9125L5.60308 24.7891C7.97334 27.7241 11.5052 29.682 15.4998 29.9639V17.9125ZM17.4998 29.9639V17.921L27.3647 24.8284C24.9947 27.7416 21.4766 29.6832 17.4998 29.9639Z" fill="#111827"/>
</svg>
