<svg width="33" height="32" viewBox="0 0 33 32" fill="none" xmlns="http://www.w3.org/2000/svg">
<path fill-rule="evenodd" clip-rule="evenodd" d="M21.549 0.56865C21.9395 0.178126 22.5727 0.178126 22.9632 0.56865L32.2057 9.81114C32.5962 10.2017 32.5962 10.8348 32.2057 11.2254L27.8351 15.5959L29.0064 20.0542C29.1419 20.57 28.9934 21.1189 28.6163 21.496L22.1683 27.944C21.7778 28.3345 21.1446 28.3345 20.7541 27.944C20.3636 27.5534 20.3636 26.9203 20.7541 26.5298L26.9991 20.2848L26.1975 17.2336L12.0311 31.3999C11.9341 31.497 11.8221 31.5699 11.7025 31.6187C11.5608 31.6898 11.4 31.728 11.2305 31.7238L1.47703 31.483C1.2046 31.4763 0.94671 31.3587 0.763023 31.1574C0.579335 30.9561 0.485758 30.6885 0.503939 30.4166L1.09322 21.6034C1.04637 21.2992 1.1401 20.9775 1.3744 20.7432L21.549 0.56865ZM26.7269 13.8757L30.0844 10.5182L22.2561 2.68997L18.8987 6.04737L26.7269 13.8757ZM17.4845 7.46158L25.3127 15.2899L11.324 29.2786L3.49573 21.4503L17.4845 7.46158ZM2.95496 23.738L8.88221 29.6653L2.56907 29.5094L2.95496 23.738Z" fill="#111827"/>
</svg>
