<svg width="33" height="32" viewBox="0 0 33 32" fill="none" xmlns="http://www.w3.org/2000/svg">
<path fill-rule="evenodd" clip-rule="evenodd" d="M2.50073 15.9999C2.50073 8.26846 8.76834 2.00085 16.4998 2.00085C24.2313 2.00085 30.4989 8.26846 30.4989 15.9999C30.4989 20.6204 28.2605 24.718 24.8089 27.2675V22.3682C24.8089 22.2175 24.7748 22.0686 24.7092 21.9329L17.4 6.81519C17.2331 6.46997 16.8835 6.2506 16.5 6.25047C16.1166 6.25034 15.7668 6.46947 15.5997 6.81457L8.29503 21.8963C8.22922 22.0322 8.19503 22.1813 8.19503 22.3322V25.3745V27.2707C4.74101 24.7214 2.50073 20.6223 2.50073 15.9999ZM10.195 25.3745V28.5023C11.7591 29.2926 13.4915 29.798 15.3243 29.9504V25.5477C15.3144 25.4914 15.3093 25.4336 15.3093 25.3745C15.3093 24.6287 15.0278 23.9233 14.542 23.4112C14.0578 22.9009 13.4128 22.6247 12.7522 22.6247C12.0915 22.6247 11.4465 22.9009 10.9624 23.4112C10.4766 23.9233 10.195 24.6287 10.195 25.3745ZM17.3243 29.9751C19.2886 29.8611 21.1442 29.342 22.8089 28.5001V25.387C22.8089 25.3828 22.8088 25.3786 22.8088 25.3745C22.8088 24.6452 22.5191 23.9458 22.0035 23.4301C21.4878 22.9144 20.7884 22.6247 20.0591 22.6247C19.3298 22.6247 18.6304 22.9144 18.1147 23.4301C17.6453 23.8995 17.3631 24.5212 17.3163 25.1791C17.3215 25.2207 17.3243 25.2632 17.3243 25.3063V29.9751ZM22.0715 21.0721C21.4474 20.7802 20.7613 20.6247 20.0591 20.6247C18.7994 20.6247 17.5912 21.1251 16.7005 22.0159C16.5683 22.148 16.4448 22.2871 16.3302 22.4324C16.2256 22.2942 16.1131 22.1614 15.9929 22.0348C15.1429 21.1387 13.9783 20.6247 12.7522 20.6247C12.1219 20.6247 11.5079 20.7605 10.9445 21.0142L13.3273 16.0946H19.6649L22.0715 21.0721ZM16.4989 9.5462L18.698 14.0946H14.296L16.4989 9.5462ZM16.4998 0.000854492C7.66377 0.000854492 0.500732 7.16389 0.500732 15.9999C0.500732 24.836 7.66377 31.999 16.4998 31.999C25.3359 31.999 32.4989 24.836 32.4989 15.9999C32.4989 7.16389 25.3359 0.000854492 16.4998 0.000854492Z" fill="#111827"/>
</svg>
