<svg width="33" height="32" viewBox="0 0 33 32" fill="none" xmlns="http://www.w3.org/2000/svg">
<path fill-rule="evenodd" clip-rule="evenodd" d="M21.549 0.56865C21.9395 0.178126 22.5727 0.178126 22.9632 0.56865L32.2057 9.81114C32.5962 10.2017 32.5962 10.8348 32.2057 11.2254L12.0311 31.3999L12.0106 31.3794C11.8217 31.5969 11.5409 31.7315 11.2305 31.7238L1.47703 31.483C1.2046 31.4763 0.94671 31.3587 0.763023 31.1574C0.579335 30.9561 0.485758 30.6885 0.503939 30.4166L1.10235 21.4669C1.12027 21.1989 1.24218 20.9627 1.42606 20.7949L1.3744 20.7432L21.549 0.56865ZM25.3127 15.2899L10.8878 29.7148L2.56907 29.5094L3.08014 21.8659L17.4845 7.46158L25.3127 15.2899ZM26.7269 13.8757L30.0844 10.5182L22.2561 2.68997L18.8987 6.04737L26.7269 13.8757Z" fill="#111827"/>
</svg>
