<svg width="33" height="32" viewBox="0 0 33 32" fill="none" xmlns="http://www.w3.org/2000/svg">
<path fill-rule="evenodd" clip-rule="evenodd" d="M22.9632 0.56865C22.5727 0.178126 21.9395 0.178126 21.549 0.56865L1.3744 20.7432C1.14008 20.9776 1.04636 21.2992 1.09323 21.6034L0.503939 30.4167C0.485758 30.6887 0.579335 30.9562 0.763023 31.1575C0.94671 31.3588 1.2046 31.4764 1.47703 31.4832L11.2305 31.724C11.2824 31.7252 11.3336 31.7225 11.3836 31.7161L30.6812 31.7161C31.2335 31.7161 31.6812 31.2684 31.6812 30.7161C31.6812 30.1638 31.2335 29.7161 30.6812 29.7161L13.7149 29.7161L32.2057 11.2254C32.5962 10.8348 32.5962 10.2017 32.2057 9.81114L22.9632 0.56865ZM2.56907 29.5095L2.95497 23.738L8.88233 29.6654L2.56907 29.5095ZM18.8987 6.04737L22.2561 2.68997L30.0844 10.5182L26.7269 13.8757L18.8987 6.04737ZM17.4845 7.46158L3.49572 21.4503L11.324 29.2786L25.3127 15.2899L17.4845 7.46158Z" fill="#111827"/>
</svg>
