<svg width="32" height="32" viewBox="0 0 32 32" fill="none" xmlns="http://www.w3.org/2000/svg">
<path d="M16 28C22.6274 28 28 22.6274 28 16C28 9.37258 22.6274 4 16 4C9.37258 4 4 9.37258 4 16C4 22.6274 9.37258 28 16 28Z" stroke="#1C1B1F" stroke-width="2" stroke-linecap="round" stroke-linejoin="round"/>
<path d="M10.1558 26.3668V21.0662L15.9998 9L21.8476 21.0949V26.3668" stroke="#1C1B1F" stroke-width="2" stroke-linecap="round" stroke-linejoin="round"/>
<path d="M13.0122 15.2756H18.9877" stroke="#1C1B1F" stroke-width="2" stroke-linecap="round"/>
<path d="M21.8475 23.5C21.8475 22.7044 21.5315 21.9413 20.9689 21.3787C20.4062 20.8161 19.6432 20.5 18.8475 20.5C18.0519 20.5 17.2888 20.8161 16.7262 21.3787C16.1636 21.9413 15.8475 22.7044 15.8475 23.5C15.8475 22.7044 15.5477 21.9413 15.014 21.3787C14.4803 20.8161 13.7564 20.5 13.0016 20.5C12.2469 20.5 11.523 20.8161 10.9893 21.3787C10.4556 21.9413 10.1558 22.7044 10.1558 23.5M15.8595 23.4454V27.7598" stroke="#1C1B1F" stroke-width="2" stroke-linecap="round" stroke-linejoin="round"/>
</svg>
