<svg width="33" height="32" viewBox="0 0 33 32" fill="none" xmlns="http://www.w3.org/2000/svg">
<path fill-rule="evenodd" clip-rule="evenodd" d="M21.549 0.56865C21.9395 0.178126 22.5727 0.178126 22.9632 0.56865L32.2057 9.81114C32.5962 10.2017 32.5962 10.8348 32.2057 11.2254L12.0311 31.3999C11.9344 31.4966 11.8229 31.5694 11.7038 31.6182C11.5617 31.6896 11.4005 31.7282 11.2305 31.724L1.47703 31.4832C1.2046 31.4764 0.94671 31.3588 0.763023 31.1575C0.579335 30.9562 0.485758 30.6887 0.503939 30.4167L1.09323 21.6034C1.04636 21.2992 1.14008 20.9776 1.3744 20.7432L21.549 0.56865ZM2.95497 23.738L8.88233 29.6654L2.56907 29.5095L2.95497 23.738ZM17.4845 7.46158L3.49572 21.4503L11.324 29.2786L25.3127 15.2899L17.4845 7.46158ZM18.8987 6.04737L26.7269 13.8757L30.0844 10.5182L22.2561 2.68997L18.8987 6.04737Z" fill="#111827"/>
</svg>
