<svg width="33" height="32" viewBox="0 0 33 32" fill="none" xmlns="http://www.w3.org/2000/svg">
<path fill-rule="evenodd" clip-rule="evenodd" d="M9.41383 0.000854492C8.86155 0.000854492 8.41383 0.44857 8.41383 1.00085V7.16488L4.51068 14.6249C4.33573 14.9593 4.36392 15.3637 4.58359 15.6706L15.9725 31.5811C16.1628 31.8469 16.4709 32.0029 16.7977 31.999C17.1246 31.995 17.4288 31.8316 17.6126 31.5613L28.4302 15.6508C28.6248 15.3646 28.6576 14.9982 28.5169 14.682L25.1553 7.12674V1.00085C25.1553 0.44857 24.7076 0.000854492 24.1553 0.000854492H9.41383ZM23.1553 6.38719V2.00085H10.4138V6.38719H23.1553ZM10.0315 8.38719L6.56806 15.0069L15.7846 27.8825V18.7087C14.2648 18.2744 13.1523 16.875 13.1523 15.2158C13.1523 13.2096 14.7786 11.5834 16.7847 11.5834C18.7908 11.5834 20.4171 13.2096 20.4171 15.2158C20.4171 16.8751 19.3045 18.2746 17.7846 18.7088V27.7513L26.4634 14.9865L23.5271 8.38719H10.0315ZM15.1523 15.2158C15.1523 14.3142 15.8832 13.5834 16.7847 13.5834C17.6863 13.5834 18.4171 14.3142 18.4171 15.2158C18.4171 16.1173 17.6863 16.8482 16.7847 16.8482C15.8832 16.8482 15.1523 16.1173 15.1523 15.2158Z" fill="#111827"/>
</svg>
