<svg width="32" height="32" viewBox="0 0 32 32" fill="none" xmlns="http://www.w3.org/2000/svg">
<path d="M12.5388 19.5336L4.4034 27.669" stroke="#1C1B1F" stroke-width="2" stroke-linecap="round" stroke-linejoin="round"/>
<path d="M12.945 19.0995C13.881 20.0355 15.3987 20.0355 16.3347 19.0995C17.2708 18.1634 17.2708 16.6458 16.3347 15.7097C15.3987 14.7737 13.881 14.7737 12.945 15.7097C12.0089 16.6458 12.0089 18.1634 12.945 19.0995Z" stroke="#1C1B1F" stroke-width="2" stroke-linecap="round" stroke-linejoin="round"/>
<path d="M7.12003 10.4158L14.0099 8.25915C14.212 8.19589 14.4325 8.25009 14.5823 8.39984L23.5745 17.392C23.7334 17.551 23.7839 17.7886 23.7033 17.9985L21.1971 24.5225C21.1265 24.7063 20.9659 24.8406 20.7724 24.8774L4.67579 27.9446C4.287 28.0187 3.9432 27.6831 4.00787 27.2926L6.72861 10.8659C6.7637 10.654 6.91508 10.48 7.12003 10.4158Z" stroke="#1C1B1F" stroke-width="2" stroke-linecap="round" stroke-linejoin="round"/>
<path d="M23.8555 17.6811L28.0001 13.5365L18.5088 4.04517L14.3642 8.18973" stroke="#1C1B1F" stroke-width="2" stroke-linecap="round" stroke-linejoin="round"/>
</svg>
