<svg width="33" height="32" viewBox="0 0 33 32" fill="none" xmlns="http://www.w3.org/2000/svg">
<path fill-rule="evenodd" clip-rule="evenodd" d="M20.3428 0.350144C19.9523 -0.0403801 19.3192 -0.0403801 18.9286 0.350144L13.9675 5.31132C13.8824 5.3243 13.7977 5.34378 13.7141 5.36996L5.10239 8.06559C4.48607 8.25851 4.03085 8.78197 3.92532 9.4191L0.524644 29.9509C0.33016 31.1252 1.36404 32.1344 2.53322 31.9116L22.6526 28.078C23.2343 27.9671 23.7174 27.5634 23.9297 27.0106L27.0622 18.8562C27.0784 18.8138 27.0929 18.7711 27.1057 18.7281L32.2061 13.6276C32.5967 13.2371 32.5967 12.604 32.2061 12.2134L20.3428 0.350144ZM26.3238 16.6815L30.0848 12.9205L19.6357 2.47146L15.8748 6.23244L26.3238 16.6815ZM14.1447 7.33086L5.86941 9.92119L2.81529 28.3607L11.3696 19.8064C10.4502 18.2714 10.6518 16.2523 11.9744 14.9297C13.535 13.3692 16.065 13.3692 17.6255 14.9297C19.1861 16.4902 19.1861 19.0203 17.6255 20.5808C16.3155 21.8908 14.3222 22.1011 12.7928 21.2116L4.50436 29.5L22.1203 26.1434L25.1279 18.314L14.1447 7.33086ZM13.3887 16.3439C14.1681 15.5645 15.4319 15.5645 16.2113 16.3439C16.9908 17.1234 16.9908 18.3871 16.2113 19.1666C15.4319 19.9461 14.1681 19.9461 13.3887 19.1666C12.6092 18.3871 12.6092 17.1234 13.3887 16.3439Z" fill="#111827"/>
</svg>
