<svg width="33" height="32" viewBox="0 0 33 32" fill="none" xmlns="http://www.w3.org/2000/svg">
<path fill-rule="evenodd" clip-rule="evenodd" d="M9.3516 6.00244C7.77805 6.00244 6.50244 7.27805 6.50244 8.8516C6.50244 10.4251 7.77805 11.7008 9.3516 11.7008C10.9251 11.7008 12.2008 10.4251 12.2008 8.8516C12.2008 7.27805 10.9251 6.00244 9.3516 6.00244ZM4.50244 8.8516C4.50244 6.17348 6.67348 4.00244 9.3516 4.00244C12.0297 4.00244 14.2008 6.17348 14.2008 8.8516C14.2008 11.5297 12.0297 13.7008 9.3516 13.7008C6.67348 13.7008 4.50244 11.5297 4.50244 8.8516ZM27.1051 5.39524C27.4956 5.78577 27.4956 6.41893 27.1051 6.80946L7.30946 26.6051C6.91893 26.9956 6.28577 26.9956 5.89524 26.6051C5.50472 26.2146 5.50472 25.5814 5.89524 25.1909L25.6909 5.39524C26.0814 5.00472 26.7146 5.00472 27.1051 5.39524ZM20.7994 23.1486C20.7994 21.575 22.075 20.2994 23.6486 20.2994C25.2221 20.2994 26.4977 21.575 26.4977 23.1486C26.4977 24.7221 25.2221 25.9977 23.6486 25.9977C22.075 25.9977 20.7994 24.7221 20.7994 23.1486ZM23.6486 18.2994C20.9705 18.2994 18.7994 20.4705 18.7994 23.1486C18.7994 25.8267 20.9705 27.9977 23.6486 27.9977C26.3267 27.9977 28.4977 25.8267 28.4977 23.1486C28.4977 20.4705 26.3267 18.2994 23.6486 18.2994Z" fill="#111827"/>
</svg>
