<svg width="33" height="33" viewBox="0 0 33 33" fill="none" xmlns="http://www.w3.org/2000/svg">
<path fill-rule="evenodd" clip-rule="evenodd" d="M13.7985 5.18757C13.7985 3.70374 15.0014 2.50085 16.4852 2.50085C17.969 2.50085 19.1719 3.70374 19.1719 5.18757C19.1719 6.6714 17.969 7.87429 16.4852 7.87429C15.0014 7.87429 13.7985 6.6714 13.7985 5.18757ZM16.4852 0.500854C13.8968 0.500854 11.7985 2.59917 11.7985 5.18757C11.7985 7.77597 13.8968 9.87429 16.4852 9.87429C19.0736 9.87429 21.1719 7.77597 21.1719 5.18757C21.1719 2.59917 19.0736 0.500854 16.4852 0.500854ZM12.4175 10.1415C12.1294 10.1415 11.8552 10.2658 11.6653 10.4825L4.67205 18.4644C4.32495 18.8606 4.34465 19.458 4.71709 19.8305L6.87733 21.9907C7.22867 22.3421 7.78467 22.3822 8.18277 22.0849L11.4232 19.665L8.60176 29.3144C8.49921 29.6651 8.5961 30.0438 8.85446 30.3021L10.7584 32.2061C10.9716 32.4193 11.2695 32.5249 11.5692 32.4936C11.869 32.4624 12.1387 32.2976 12.3033 32.0451L16.7935 25.1559L21.0892 32.029C21.2507 32.2874 21.5213 32.4581 21.8241 32.4926C22.1269 32.5271 22.4288 32.4216 22.6443 32.2061L24.8412 30.0093C25.104 29.7465 25.1994 29.3597 25.0889 29.0049L22.2814 19.9884L24.7781 22.0541C25.1756 22.3829 25.7579 22.3555 26.1227 21.9907L28.2829 19.8305C28.6459 19.4675 28.6751 18.8886 28.3504 18.4909L21.8331 10.509C21.6432 10.2764 21.3588 10.1415 21.0585 10.1415H12.4175ZM6.79327 19.0782L12.8709 12.1415H20.584L26.2294 19.0556L25.3519 19.9331L20.9637 16.3025C20.6227 16.0204 20.1368 15.996 19.7692 16.2425C19.4017 16.489 19.2398 16.9477 19.3714 17.3703L22.9996 29.0224L22.119 29.903L17.6592 22.7674C17.4783 22.4779 17.1621 22.3007 16.8207 22.2975C16.4793 22.2942 16.1599 22.4654 15.9735 22.7514L11.3009 29.9202L10.6877 29.3069L14.1829 17.3536C14.3036 16.9408 14.1467 16.4969 13.7934 16.2516C13.44 16.0062 12.9694 16.0144 12.6247 16.2717L7.67956 19.9645L6.79327 19.0782Z" fill="#111827"/>
</svg>
