<svg width="33" height="33" viewBox="0 0 33 33" fill="none" xmlns="http://www.w3.org/2000/svg">
<path fill-rule="evenodd" clip-rule="evenodd" d="M5.89985 9.20961C5.89985 5.5042 8.90368 2.50037 12.6091 2.50037C16.3145 2.50037 19.3183 5.5042 19.3183 9.20961C19.3183 12.9036 16.333 15.9003 12.6433 15.9188L12.6088 15.9187L12.5746 15.9188C8.88506 15.9002 5.89985 12.9035 5.89985 9.20961ZM8.28959 16.7739C5.66703 15.2731 3.89985 12.4477 3.89985 9.20961C3.89985 4.39963 7.79911 0.500366 12.6091 0.500366C17.4191 0.500366 21.3183 4.39963 21.3183 9.20961C21.3183 12.448 19.5509 15.2735 16.928 16.7742C17.9065 17.1795 18.8157 17.7183 19.6326 18.3676C20.7278 16.3879 22.8373 15.0474 25.2599 15.0474C28.8093 15.0474 31.6866 17.9247 31.6866 21.4741C31.6866 25.0235 28.8093 27.9008 25.2599 27.9008C24.7041 27.9008 24.1637 27.83 23.6478 27.6966L23.4148 27.9501C23.4053 27.9604 23.3956 27.9705 23.3857 27.9804C23.1513 28.2148 22.8372 28.351 22.5071 28.3626L21.4516 28.4349L21.3914 29.1124C21.3615 29.7861 20.8217 30.3272 20.1485 30.3593L19.5455 30.4168L19.4793 31.2454C19.4513 31.9429 18.8771 32.4998 18.1727 32.4998H15.4294C14.7072 32.4998 14.1218 31.9144 14.1218 31.1922L14.1218 28.1553C14.1218 27.8085 14.2595 27.4759 14.5047 27.2307L14.5074 27.2281L18.97 22.7982C18.8803 22.3702 18.8332 21.9272 18.8332 21.4741C18.8332 21.1057 18.8642 20.7445 18.9238 20.3931C17.273 18.8639 15.0687 17.9278 12.6441 17.9188L12.6091 17.9188L12.5734 17.9188C7.45592 17.9378 3.31329 22.0922 3.31329 27.2142C3.31329 27.7665 2.86558 28.2142 2.31329 28.2142C1.76101 28.2142 1.31329 27.7665 1.31329 27.2142C1.31329 22.5057 4.19426 18.47 8.28959 16.7739ZM26.697 20.9595C27.2065 20.9595 27.6196 20.5465 27.6196 20.037C27.6196 19.5275 27.2065 19.1145 26.697 19.1145C26.1875 19.1145 25.7745 19.5275 25.7745 20.037C25.7745 20.5465 26.1875 20.9595 26.697 20.9595ZM20.8332 21.4741C20.8332 19.0293 22.8151 17.0474 25.2599 17.0474C27.7047 17.0474 29.6866 19.0293 29.6866 21.4741C29.6866 23.9189 27.7047 25.9008 25.2599 25.9008C24.7072 25.9008 24.1804 25.8 23.6953 25.6166C23.3133 25.4722 22.8819 25.5746 22.6055 25.8752L22.1386 26.3832L20.7676 26.477C20.0861 26.5003 19.5371 27.0451 19.5069 27.7247L19.4453 28.4172L18.8374 28.4751C18.1622 28.5073 17.6212 29.0515 17.5942 29.728L17.5325 30.4998H16.1218L16.1218 28.4436L20.7866 23.813C21.0519 23.5496 21.1482 23.1602 21.036 22.8034C20.9045 22.3851 20.8332 21.9388 20.8332 21.4741Z" fill="#111827"/>
</svg>
