<svg width="33" height="33" viewBox="0 0 33 33" fill="none" xmlns="http://www.w3.org/2000/svg">
<path fill-rule="evenodd" clip-rule="evenodd" d="M17.5809 4.96215C17.5809 3.60281 18.6829 2.50085 20.0422 2.50085C21.4016 2.50085 22.5035 3.60281 22.5035 4.96215C22.5035 6.32149 21.4016 7.42345 20.0422 7.42345C18.6829 7.42345 17.5809 6.32149 17.5809 4.96215ZM20.0422 0.500854C17.5783 0.500854 15.5809 2.49824 15.5809 4.96215C15.5809 7.42606 17.5783 9.42345 20.0422 9.42345C22.5061 9.42345 24.5035 7.42606 24.5035 4.96215C24.5035 2.49824 22.5061 0.500854 20.0422 0.500854ZM15.7939 12.2254C14.3566 11.7489 12.6085 12.1041 10.783 12.984C8.70322 13.9864 6.78887 15.5492 5.67534 16.677C5.28731 17.07 4.65416 17.074 4.26116 16.686C3.86815 16.298 3.86412 15.6648 4.25215 15.2718C5.48191 14.0263 7.5782 12.3084 9.91463 11.1824C12.2129 10.0746 15.0211 9.41292 17.4416 10.7772C17.5462 10.8362 17.6393 10.9135 17.7165 11.0055C18.7334 12.2171 20.496 13.9958 22.4429 15.3634C23.4152 16.0465 24.4047 16.6065 25.3467 16.9492C26.2929 17.2935 27.1283 17.396 27.831 17.2488C28.3715 17.1355 28.9015 17.4819 29.0148 18.0224C29.128 18.563 28.7816 19.093 28.2411 19.2063C27.0511 19.4556 25.8193 19.2494 24.6629 18.8287C23.5025 18.4065 22.3543 17.7454 21.2932 16.9999C19.8097 15.9578 18.4401 14.711 17.3742 13.6067L15.1826 18.6474L20.5622 22.5068C20.824 22.6946 20.9793 22.9971 20.9793 23.3193V31.4881C20.9793 32.0404 20.5316 32.4881 19.9793 32.4881C19.427 32.4881 18.9793 32.0404 18.9793 31.4881V23.8326L14.3668 20.5236L9.42165 31.8975C9.20144 32.404 8.61233 32.636 8.10585 32.4158C7.59937 32.1956 7.3673 31.6065 7.58751 31.1L15.7939 12.2254Z" fill="#111827"/>
</svg>
