<svg width="33" height="33" viewBox="0 0 33 33" fill="none" xmlns="http://www.w3.org/2000/svg">
<path fill-rule="evenodd" clip-rule="evenodd" d="M13.8779 5.10367C13.8779 3.66469 15.0444 2.49817 16.4834 2.49817C17.9224 2.49817 19.0889 3.66469 19.0889 5.10367C19.0889 6.54265 17.9224 7.70917 16.4834 7.70917C15.0444 7.70917 13.8779 6.54265 13.8779 5.10367ZM16.4834 0.498169C13.9398 0.498169 11.8779 2.56012 11.8779 5.10367C11.8779 7.64722 13.9398 9.70917 16.4834 9.70917C19.0269 9.70917 21.0889 7.64722 21.0889 5.10367C21.0889 2.56012 19.0269 0.498169 16.4834 0.498169ZM26.533 16.2623C24.2624 15.4609 21.1383 14.6613 17.5003 14.5341V20.3738C17.544 20.4136 17.5859 20.4565 17.6257 20.5024L26.5955 30.8468C26.9574 31.264 26.9124 31.8956 26.4951 32.2574C26.0779 32.6192 25.4463 32.5743 25.0845 32.157L16.4875 22.2426L7.65561 32.1667C7.28845 32.5793 6.65636 32.6161 6.24379 32.2489C5.83123 31.8817 5.79442 31.2496 6.16159 30.8371L15.3719 20.4878C15.4127 20.442 15.4556 20.3993 15.5003 20.3598V14.534C11.862 14.6612 8.73781 15.4608 6.46704 16.2623C5.23034 16.6988 4.25131 17.1342 3.58588 17.4579C3.25331 17.6197 2.99952 17.7534 2.83152 17.845C2.74754 17.8908 2.68504 17.9261 2.6449 17.9491C2.62483 17.9606 2.61036 17.969 2.6016 17.9742L2.59274 17.9794L2.59253 17.9795L2.59208 17.9798C2.11856 18.2636 1.5046 18.11 1.22054 17.6365C0.936391 17.163 1.08996 16.5487 1.56354 16.2645L2.07803 17.122C1.56354 16.2645 1.56382 16.2644 1.56412 16.2642L1.56485 16.2638L1.56671 16.2626L1.5721 16.2594L1.58946 16.2492C1.60394 16.2407 1.62424 16.2289 1.65024 16.214C1.70224 16.1842 1.77706 16.142 1.87382 16.0892C2.06731 15.9837 2.34871 15.8357 2.71095 15.6594C3.43514 15.3071 4.48421 14.8412 5.8014 14.3763C8.43301 13.4475 12.1529 12.5165 16.5 12.5165C20.8471 12.5165 24.5671 13.4475 27.1987 14.3763C28.5159 14.8412 29.5649 15.3071 30.2891 15.6594C30.6514 15.8357 30.9328 15.9837 31.1263 16.0892C31.223 16.142 31.2978 16.1842 31.3498 16.214C31.3758 16.2289 31.3961 16.2407 31.4106 16.2492L31.428 16.2594L31.4334 16.2626L31.4352 16.2638L31.436 16.2642C31.4363 16.2644 31.4365 16.2645 30.922 17.122L31.4365 16.2645C31.9101 16.5487 32.0637 17.163 31.7795 17.6365C31.4956 18.1098 30.8819 18.2635 30.4084 17.9801L30.4084 17.98L30.4083 17.98L30.4081 17.9799L30.408 17.9798L30.4076 17.9795L30.4073 17.9794L30.3985 17.9742L30.3813 17.9641L30.3552 17.9491C30.315 17.9261 30.2525 17.8908 30.1686 17.845C30.0006 17.7534 29.7468 17.6197 29.4142 17.4579C28.7488 17.1342 27.7697 16.6988 26.533 16.2623Z" fill="#111827"/>
</svg>
