<svg width="33" height="33" viewBox="0 0 33 33" fill="none" xmlns="http://www.w3.org/2000/svg">
<path fill-rule="evenodd" clip-rule="evenodd" d="M30.356 3.39356C30.356 3.09257 30.2205 2.80759 29.9869 2.61769C29.7534 2.4278 29.4467 2.35319 29.1521 2.41458L3.43936 7.7714C2.97564 7.86801 2.64332 8.2767 2.64332 8.75038V15.2499H1.50073C0.948448 15.2499 0.500732 15.6976 0.500732 16.2499C0.500732 16.8022 0.948448 17.2499 1.50073 17.2499H2.64332V23.7495C2.64332 24.2231 2.97564 24.6318 3.43936 24.7284L29.1521 30.0853C29.4467 30.1467 29.7534 30.072 29.9869 29.8822C30.2205 29.6923 30.356 29.4073 30.356 29.1063V17.2499H31.4989C32.0512 17.2499 32.4989 16.8022 32.4989 16.2499C32.4989 15.6976 32.0512 15.2499 31.4989 15.2499H30.356V3.39356ZM28.356 15.2499V4.62337L4.64332 9.56352V15.2499H28.356ZM4.64332 17.2499V22.9363L28.356 27.8765V17.2499H4.64332Z" fill="#111827"/>
</svg>
