<svg width="33" height="33" viewBox="0 0 33 33" fill="none" xmlns="http://www.w3.org/2000/svg">
<path fill-rule="evenodd" clip-rule="evenodd" d="M18.1001 5.10063C18.1001 3.66482 19.264 2.50085 20.6998 2.50085C22.1357 2.50085 23.2996 3.66482 23.2996 5.10063C23.2996 6.53645 22.1357 7.70041 20.6998 7.70041C19.264 7.70041 18.1001 6.53645 18.1001 5.10063ZM20.6998 0.500854C18.1595 0.500854 16.1001 2.56025 16.1001 5.10063C16.1001 7.64102 18.1595 9.70041 20.6998 9.70041C23.2402 9.70041 25.2996 7.64102 25.2996 5.10063C25.2996 2.56025 23.2402 0.500854 20.6998 0.500854ZM17.1449 12.9881C15.4109 11.3917 13.399 10.8469 11.5227 10.8315C9.50812 10.8149 7.68898 11.4127 6.66502 11.9485C6.17568 12.2045 5.57142 12.0154 5.31537 11.5261C5.05932 11.0367 5.24844 10.4325 5.73779 10.1764C7.01647 9.50735 9.15735 8.81195 11.5392 8.83152C13.9456 8.8513 16.6358 9.60486 18.8824 11.8871C22.5834 15.6468 27.8787 15.4807 30.0458 14.9143C30.5802 14.7746 31.1265 15.0946 31.2662 15.6289C31.4059 16.1632 31.0859 16.7096 30.5516 16.8493C28.2578 17.4488 23.0332 17.7038 18.8059 14.4796C18.3363 15.9896 17.4677 18.1351 16.1226 20.2609C17.5352 20.687 19.3567 21.4251 21.0062 22.6799C23.3293 24.4471 25.2996 27.2377 25.2996 31.499C25.2996 32.0513 24.8518 32.499 24.2996 32.499C23.7473 32.499 23.2996 32.0513 23.2996 31.499C23.2996 27.9608 21.7052 25.7245 19.7953 24.2717C18.1304 23.0052 16.2184 22.3346 14.9033 21.9966L14.8867 22.0178C12.2777 25.3494 8.27285 28.2614 2.6015 27.6943C2.05195 27.6394 1.65101 27.1493 1.70597 26.5998C1.76092 26.0502 2.25096 25.6493 2.80051 25.7042C7.56228 26.1804 10.962 23.7858 13.3121 20.7847C13.4312 20.6326 13.5473 20.4793 13.6606 20.3249C13.6786 20.2974 13.698 20.2709 13.7185 20.2455C15.7337 17.4691 16.8111 14.4053 17.1449 12.9881Z" fill="#111827"/>
</svg>
