<svg width="33" height="32" viewBox="0 0 33 32" fill="none" xmlns="http://www.w3.org/2000/svg">
<path d="M10.071 16.1068C11.4263 18.8777 13.6725 21.1136 16.4496 22.4564C16.6528 22.5527 16.8775 22.5944 17.1017 22.5774C17.3259 22.5604 17.5419 22.4854 17.7282 22.3596L21.8173 19.6329C21.9982 19.5123 22.2062 19.4388 22.4227 19.4189C22.6392 19.399 22.8572 19.4334 23.0569 19.5191L30.7069 22.7976C30.9667 22.908 31.1837 23.0998 31.325 23.3443C31.4664 23.5887 31.5245 23.8724 31.4906 24.1527C31.2488 26.0447 30.3256 27.7837 28.894 29.0441C27.4623 30.3046 25.6203 30.9999 23.7129 31C17.8217 31 12.1718 28.6597 8.00602 24.494C3.84029 20.3282 1.5 14.6783 1.5 8.78706C1.5001 6.87965 2.19545 5.03767 3.45585 3.60602C4.71625 2.17437 6.45527 1.25123 8.3473 1.00943C8.6276 0.975514 8.91133 1.03361 9.15574 1.17496C9.40015 1.31631 9.59201 1.53326 9.7024 1.79313L12.9838 9.44971C13.0687 9.64776 13.1033 9.86372 13.0845 10.0784C13.0657 10.293 12.9941 10.4997 12.8761 10.68L10.1589 14.8318C10.0352 15.0185 9.9621 15.2342 9.94669 15.4577C9.93128 15.6811 9.9741 15.9048 10.071 16.1068V16.1068Z" stroke="#111827" stroke-width="2" stroke-linecap="round" stroke-linejoin="round"/>
</svg>
