<svg width="33" height="32" viewBox="0 0 33 32" fill="none" xmlns="http://www.w3.org/2000/svg">
<path d="M20.2248 12.3598C17.7937 11.5258 15.1531 11.5319 12.726 12.3769C12.5495 12.4399 12.3925 12.5477 12.2704 12.6898C12.1483 12.8319 12.0653 13.0033 12.0296 13.1872L11.227 17.2027C11.1915 17.3803 11.1122 17.5463 10.9964 17.6855C10.8806 17.8247 10.7319 17.9329 10.5637 18.0001L4.12527 20.5755C3.90713 20.6636 3.66628 20.6784 3.43901 20.6177C3.21174 20.557 3.01035 20.424 2.8652 20.2389C1.89297 18.9818 1.4123 17.4134 1.51319 15.8273C1.61408 14.2413 2.28961 12.7465 3.4133 11.6227C6.88411 8.15184 11.5915 6.20197 16.5 6.20197C21.4085 6.20197 26.1159 8.15184 29.5867 11.6227C30.7104 12.7465 31.3859 14.2413 31.4868 15.8273C31.5877 17.4134 31.107 18.9818 30.1348 20.2389C29.9896 20.424 29.7883 20.557 29.561 20.6177C29.3337 20.6784 29.0929 20.6636 28.8747 20.5755L22.4307 17.9979C22.264 17.9312 22.1164 17.8244 22.001 17.6869C21.8856 17.5493 21.806 17.3854 21.7693 17.2097L20.9241 13.1628C20.8869 12.9799 20.803 12.8098 20.6804 12.669C20.5578 12.5283 20.4008 12.4218 20.2248 12.3598Z" stroke="#111827" stroke-width="2" stroke-linecap="round" stroke-linejoin="round"/>
<path d="M4.52466 25.7981H28.4754" stroke="#111827" stroke-width="2" stroke-linecap="round" stroke-linejoin="round"/>
</svg>
