<svg width="32" height="32" viewBox="0 0 32 32" fill="none" xmlns="http://www.w3.org/2000/svg">
<path d="M7.29077 6.41968L24.7095 25.5803" stroke="#1C1B1F" stroke-width="2" stroke-linecap="round" stroke-linejoin="round"/>
<path d="M14.5841 14.4425C14.0387 14.5274 13.502 14.6616 12.9808 14.8434C12.8396 14.8938 12.714 14.9801 12.6163 15.0937C12.5187 15.2074 12.4523 15.3445 12.4237 15.4917L11.7816 18.7041C11.7532 18.8461 11.6898 18.9789 11.5971 19.0903C11.5045 19.2017 11.3855 19.2882 11.251 19.342L6.10021 21.4023C5.9257 21.4727 5.73302 21.4846 5.55121 21.436C5.36939 21.3874 5.20828 21.2811 5.09216 21.133C4.31437 20.1273 3.92984 18.8726 4.01055 17.6037C4.09126 16.3349 4.63169 15.139 5.53064 14.24C7.12097 12.645 9.05554 11.4356 11.1859 10.7044" stroke="#1C1B1F" stroke-width="2" stroke-linecap="round" stroke-linejoin="round"/>
<path d="M15.1863 9.92564C17.2648 9.80891 19.3446 10.1329 21.2891 10.8765C23.2336 11.62 24.9989 12.7662 26.4693 14.2399C27.3683 15.139 27.9087 16.3349 27.9894 17.6037C28.0701 18.8725 27.6856 20.1272 26.9078 21.1329C26.7917 21.281 26.6306 21.3874 26.4488 21.436C26.267 21.4845 26.0743 21.4727 25.8998 21.4023L25.459 21.2259" stroke="#1C1B1F" stroke-width="2" stroke-linecap="round" stroke-linejoin="round"/>
</svg>
