<svg width="33" height="32" viewBox="0 0 33 32" fill="none" xmlns="http://www.w3.org/2000/svg">
<path fill-rule="evenodd" clip-rule="evenodd" d="M6.35338 3.35169C5.98187 2.94303 5.34942 2.91291 4.94076 3.28442C4.5321 3.65593 4.50199 4.28838 4.8735 4.69703L8.76213 8.97453C6.50467 9.94939 4.44838 11.3458 2.7057 13.0934C1.41029 14.3892 0.631525 16.1127 0.515205 17.9413C0.39887 19.7701 0.953125 21.5786 2.07419 23.0282L2.07417 23.0282L2.07829 23.0334C2.35722 23.3892 2.74421 23.6446 3.18094 23.7613C3.61692 23.8778 4.07889 23.8497 4.49749 23.6812L4.49968 23.6803L10.9353 21.1061C11.2579 20.977 11.5433 20.7695 11.7655 20.5024C11.9876 20.2353 12.1397 19.9169 12.2078 19.5762L13.0105 15.5606L13.0105 15.5606L13.0115 15.5552C13.0141 15.5418 13.0202 15.5293 13.0291 15.5189C13.0377 15.5089 13.0486 15.5013 13.0609 15.4966C13.487 15.3483 13.922 15.2278 14.3634 15.1359L26.6474 28.6483C27.0189 29.057 27.6513 29.0871 28.06 28.7156C28.4686 28.3441 28.4988 27.7116 28.1273 27.303L15.4825 13.3937C15.475 13.3852 15.4673 13.3768 15.4596 13.3685L11.2388 8.72566C11.2284 8.71367 11.2178 8.70195 11.2069 8.69052L6.35338 3.35169ZM13.0609 15.4966C13.0614 15.4964 13.0619 15.4962 13.0624 15.496L12.7262 14.5542L13.0555 15.4985C13.0573 15.4978 13.0591 15.4972 13.0609 15.4966ZM4.12147 14.506C5.84782 12.7747 7.91728 11.4275 10.194 10.5496L12.8432 13.4638C12.6936 13.5097 12.5448 13.5584 12.3969 13.61L12.3969 13.61L12.39 13.6124C12.05 13.7338 11.7475 13.9416 11.5122 14.2154C11.2776 14.4884 11.1179 14.8177 11.0488 15.1709L11.0482 15.1739L10.2466 19.1842C10.2437 19.1986 10.2372 19.2121 10.2278 19.2235C10.2184 19.2348 10.2062 19.2436 10.1925 19.2491L3.75393 21.8246L3.75097 21.8258C3.73387 21.8327 3.71498 21.8338 3.69716 21.8291C3.67985 21.8244 3.66445 21.8145 3.65315 21.8006C2.8318 20.7365 2.42583 19.4098 2.51117 18.0682C2.59662 16.7249 3.16877 15.4589 4.12049 14.507L4.12147 14.506ZM3.65315 21.8006C3.65282 21.8002 3.65249 21.7998 3.65217 21.7994L2.86523 22.4164L3.65627 21.8046C3.65523 21.8033 3.65419 21.8019 3.65315 21.8006ZM15.5387 9.40508C17.9962 9.26708 20.4551 9.65018 22.7542 10.5293C25.0532 11.4083 27.1404 12.7635 28.8789 14.506L28.8796 14.5067C29.8314 15.4586 30.4035 16.7246 30.489 18.0679C30.5743 19.4095 30.1683 20.7362 29.347 21.8003C29.3357 21.8142 29.3203 21.8241 29.303 21.8288C29.2851 21.8335 29.2663 21.8324 29.2492 21.8255L29.2462 21.8243L28.6952 21.6039C28.1824 21.3987 27.6004 21.6482 27.3953 22.1609C27.1902 22.6737 27.4396 23.2557 27.9524 23.4608L28.5004 23.68L28.5023 23.6808C28.921 23.8493 29.3831 23.8775 29.8192 23.761C30.2559 23.6443 30.6429 23.3889 30.9218 23.0331L30.9219 23.0331L30.9259 23.0279C32.047 21.5783 32.6013 19.7698 32.4849 17.941C32.3686 16.1125 31.5899 14.3891 30.2947 13.0934C28.3571 11.1514 26.0308 9.64094 23.4685 8.66117C20.9061 7.6814 18.1655 7.25442 15.4266 7.40823C14.8752 7.43919 14.4532 7.91131 14.4842 8.46272C14.5152 9.01414 14.9873 9.43605 15.5387 9.40508Z" fill="#111827"/>
</svg>
