<svg width="32" height="32" viewBox="0 0 32 32" fill="none" xmlns="http://www.w3.org/2000/svg">
<path d="M18.9798 13.0879C17.035 12.4207 14.9225 12.4255 12.9808 13.1015C12.8396 13.1519 12.714 13.2382 12.6163 13.3518C12.5187 13.4655 12.4523 13.6027 12.4237 13.7498L11.7816 16.9622C11.7532 17.1043 11.6898 17.237 11.5971 17.3484C11.5045 17.4598 11.3855 17.5463 11.251 17.6001L6.10021 19.6604C5.9257 19.7309 5.73302 19.7427 5.55121 19.6941C5.36939 19.6456 5.20828 19.5392 5.09216 19.3911C4.31437 18.3854 3.92984 17.1307 4.01055 15.8619C4.09126 14.593 4.63169 13.3972 5.53064 12.4981C8.30729 9.72146 12.0732 8.16156 16 8.16156C19.9268 8.16156 23.6927 9.72146 26.4694 12.4981C27.3683 13.3972 27.9087 14.593 27.9894 15.8619C28.0702 17.1307 27.6856 18.3854 26.9078 19.3911C26.7917 19.5392 26.6306 19.6456 26.4488 19.6941C26.267 19.7427 26.0743 19.7309 25.8998 19.6604L20.7445 17.5983C20.6112 17.545 20.4931 17.4595 20.4008 17.3495C20.3085 17.2394 20.2448 17.1083 20.2154 16.9677L19.5393 13.7302C19.5096 13.5839 19.4424 13.4478 19.3443 13.3352C19.2462 13.2226 19.1207 13.1374 18.9798 13.0879Z" stroke="#1C1B1F" stroke-width="2" stroke-linecap="round" stroke-linejoin="round"/>
<path d="M6.41968 23.8384H25.5803" stroke="#1C1B1F" stroke-width="2" stroke-linecap="round" stroke-linejoin="round"/>
</svg>
