<svg width="33" height="32" viewBox="0 0 33 32" fill="none" xmlns="http://www.w3.org/2000/svg">
<path fill-rule="evenodd" clip-rule="evenodd" d="M8.47001 2.00284C6.82108 2.21465 5.30565 3.01969 4.20703 4.26757C3.10745 5.51655 2.50082 7.12351 2.50073 8.78756C2.50073 14.4132 4.73552 19.8084 8.71346 23.7864C12.6914 27.7643 18.0866 29.9991 23.7123 29.9991L19.5469 22.3483L19.5469 22.3483L23.7123 29.9991C25.3763 29.999 26.9833 29.3924 28.2323 28.2928C29.4801 27.1942 30.2852 25.6787 30.497 24.0298C30.5043 23.9655 30.4907 23.9005 30.4583 23.8444C30.4255 23.7877 30.3751 23.7432 30.3148 23.7176L30.3119 23.7163L22.6624 20.438C22.6156 20.4179 22.5644 20.4098 22.5136 20.4145C22.4629 20.4192 22.414 20.4364 22.3716 20.4647L19.5469 22.3483L18.5867 20.5847L21.262 18.8007C21.5813 18.5879 21.9486 18.458 22.3307 18.4229C22.7128 18.3878 23.0976 18.4486 23.4503 18.5997L31.0968 21.8768L31.0988 21.8776C31.5573 22.0729 31.9401 22.4117 32.1896 22.8432C32.4395 23.2752 32.5422 23.7768 32.4822 24.2723L32.4814 24.279L32.4814 24.279C32.2088 26.4122 31.168 28.3729 29.5538 29.7939C27.9397 31.215 25.8629 31.999 23.7124 31.9991H23.7123C17.5562 31.9991 11.6523 29.5536 7.29925 25.2006C2.94623 20.8476 0.500732 14.9436 0.500732 8.78751V8.78745C0.500845 6.6369 1.28483 4.56013 2.70589 2.94599C4.12696 1.33185 6.08765 0.291031 8.22085 0.0184177L8.22747 0.0175714L8.22748 0.0175935C8.72299 -0.0423715 9.22457 0.0603227 9.65664 0.310205C10.0881 0.559751 10.427 0.942589 10.6222 1.40117L10.623 1.40302L13.903 9.05619C14.0528 9.40579 14.1138 9.78702 14.0807 10.1659C14.0475 10.5448 13.9212 10.9096 13.7129 11.2279L13.5926 11.4117L9.57029 4.0238L9.57028 4.02377L8.78349 2.18792L8.78223 2.18498C8.75662 2.12467 8.71209 2.07432 8.65537 2.04152C8.5993 2.0091 8.53432 1.99555 8.47001 2.00284ZM13.5926 11.4117L9.57029 4.0238L12.0647 9.84403C12.0846 9.8905 12.0927 9.94117 12.0883 9.99153C12.0839 10.0419 12.0671 10.0904 12.0394 10.1327L9.3253 14.2797L9.32363 14.2823C9.10548 14.6127 8.97651 14.9939 8.94927 15.3889C8.92197 15.7849 8.99786 16.1813 9.16953 16.5392L9.1695 16.5392L9.17289 16.5461C10.6266 19.5181 13.0356 21.9161 16.0141 23.3563L16.0141 23.3563L16.0212 23.3597C16.3813 23.5303 16.7796 23.6042 17.1769 23.5742C17.5731 23.5442 17.9547 23.4119 18.2844 23.1902L18.2873 23.1882L19.5469 22.3483L18.5867 20.5847L18.5867 20.5847L13.5926 11.4117L13.5926 11.4117ZM13.5926 11.4117L18.5867 20.5847L17.1732 21.5273L17.1732 21.5272L17.1687 21.5303C17.1262 21.5589 17.0771 21.576 17.0261 21.5799C16.9759 21.5837 16.9256 21.5746 16.88 21.5534C14.3084 20.3088 12.2281 18.238 10.9718 15.672C10.9505 15.6266 10.9411 15.5765 10.9445 15.5265C10.948 15.4756 10.9647 15.4265 10.9929 15.3839L10.9958 15.3795L13.5926 11.4117ZM21.0992 2.5613C21.6515 2.5613 22.0992 3.00902 22.0992 3.5613V8.98648L29.1416 1.94412C29.5321 1.5536 30.1653 1.5536 30.5558 1.94412C30.9463 2.33465 30.9463 2.96781 30.5558 3.35834L23.5134 10.4007H28.9386C29.4909 10.4007 29.9386 10.8484 29.9386 11.4007C29.9386 11.953 29.4909 12.4007 28.9386 12.4007H21.1041M21.0992 12.4007C21.0757 12.4007 21.0524 12.3999 21.0293 12.3983C20.7971 12.3821 20.5696 12.2853 20.3921 12.1078C20.2947 12.0104 20.2216 11.8979 20.1728 11.7778C20.1315 11.6765 20.1063 11.5669 20.1005 11.4521C20.0997 11.4351 20.0992 11.4179 20.0992 11.4007C20.0992 11.4004 20.0992 11.4 20.0992 11.3997V3.5613C20.0992 3.00902 20.5469 2.5613 21.0992 2.5613" fill="#111827"/>
</svg>
