<svg width="32" height="32" viewBox="0 0 32 32" fill="none" xmlns="http://www.w3.org/2000/svg">
<path d="M10.8568 16.0854C11.9411 18.3022 13.738 20.0909 15.9597 21.1651C16.1222 21.2421 16.302 21.2755 16.4814 21.2619C16.6607 21.2484 16.8335 21.1883 16.9826 21.0877L20.2539 18.9064C20.3985 18.8099 20.565 18.751 20.7382 18.7351C20.9113 18.7192 21.0857 18.7468 21.2456 18.8153L27.3655 21.4381C27.5734 21.5264 27.7469 21.6799 27.86 21.8754C27.9731 22.0709 28.0196 22.2979 27.9925 22.5222C27.799 24.0358 27.0605 25.427 25.9152 26.4353C24.7699 27.4436 23.2963 27.9999 21.7703 28C17.0574 28 12.5374 26.1278 9.20482 22.7952C5.87223 19.4626 4 14.9426 4 10.2297C4.00008 8.70372 4.55636 7.23014 5.56468 6.08482C6.573 4.9395 7.96422 4.20098 9.47784 4.00755C9.70208 3.98041 9.92906 4.02688 10.1246 4.13997C10.3201 4.25305 10.4736 4.42661 10.5619 4.6345L13.187 10.7598C13.2549 10.9182 13.2826 11.091 13.2676 11.2627C13.2525 11.4344 13.1953 11.5997 13.1009 11.744L10.9271 15.0654C10.8282 15.2148 10.7697 15.3874 10.7574 15.5661C10.745 15.7449 10.7793 15.9238 10.8568 16.0854V16.0854Z" stroke="#1C1B1F" stroke-width="2" stroke-linecap="round" stroke-linejoin="round"/>
<path d="M19.6797 6.0484L25.9516 12.3203" stroke="#1C1B1F" stroke-width="2" stroke-linecap="round" stroke-linejoin="round"/>
<path d="M25.9516 6.0484L19.6797 12.3203" stroke="#1C1B1F" stroke-width="2" stroke-linecap="round" stroke-linejoin="round"/>
</svg>
