<svg width="35" height="33" viewBox="0 0 35 33" fill="none" xmlns="http://www.w3.org/2000/svg">
<path d="M10.656 12.405H6.90562C6.88357 12.4034 6.86143 12.4061 6.84045 12.4131C6.81947 12.42 6.80007 12.4311 6.78337 12.4455C6.76667 12.46 6.75299 12.4776 6.74313 12.4974C6.73326 12.5172 6.7274 12.5387 6.72588 12.5608L4.97649 21.3197C4.96559 21.3442 4.95996 21.3708 4.95996 21.3976C4.95996 21.4244 4.96559 21.451 4.97649 21.4755C4.9926 21.4947 5.01279 21.51 5.0356 21.5204C5.05841 21.5308 5.08325 21.5359 5.1083 21.5354H7.06138C7.10403 21.5389 7.14639 21.5259 7.1798 21.4992C7.21321 21.4725 7.23514 21.434 7.24111 21.3916L7.68445 19.2109H9.20619C9.83773 19.2247 10.4678 19.144 11.0754 18.9712C11.5986 18.8257 12.082 18.5635 12.4893 18.2044C12.8238 17.9141 13.1073 17.5698 13.328 17.1859C13.537 16.8119 13.6866 16.4076 13.7714 15.9877C13.902 15.5476 13.9244 15.0825 13.8368 14.6319C13.7492 14.1814 13.5541 13.7586 13.2681 13.3995C12.9293 13.0564 12.5208 12.79 12.0701 12.6184C11.6195 12.4468 11.1372 12.3741 10.656 12.405ZM11.3989 15.7241C11.3272 16.2429 11.0722 16.7189 10.68 17.0661C10.1883 17.3679 9.61364 17.5063 9.03843 17.4615H8.07986L8.7269 14.1544H9.92511C10.4041 14.0957 10.8876 14.2198 11.2791 14.5019C11.4708 14.7176 11.4708 15.125 11.3989 15.7241Z" stroke="#1C1B1F"/>
<path d="M21.4243 15.2855C20.7756 14.8086 19.9724 14.5907 19.1716 14.6744H17.7458L18.1412 12.5655C18.1529 12.5412 18.1589 12.5146 18.1589 12.4876C18.1589 12.4607 18.1529 12.4341 18.1412 12.4098C18.0986 12.3942 18.0519 12.3942 18.0094 12.4098H16.1282C16.0875 12.4093 16.0481 12.4237 16.0173 12.4501C15.9864 12.4766 15.9662 12.5133 15.9604 12.5535L14.3069 21.2645C14.2953 21.2867 14.2893 21.3114 14.2893 21.3364C14.2893 21.3615 14.2953 21.3861 14.3069 21.4083C14.321 21.4304 14.3405 21.4486 14.3636 21.4612C14.3866 21.4738 14.4124 21.4803 14.4387 21.4802H16.2839C16.3264 21.4803 16.3674 21.4643 16.3985 21.4354C16.4297 21.4065 16.4487 21.3668 16.4517 21.3245L17.3743 16.4477H18.7043C19.2435 16.4477 19.4352 16.5676 19.4951 16.6394C19.5439 16.7572 19.569 16.8834 19.569 17.0109C19.569 17.1384 19.5439 17.2646 19.4951 17.3823L18.7642 21.2645C18.7527 21.2867 18.7467 21.3114 18.7467 21.3364C18.7467 21.3615 18.7527 21.3861 18.7642 21.4083C18.7791 21.4297 18.7988 21.4474 18.8216 21.4598C18.8445 21.4723 18.87 21.4793 18.896 21.4802H20.7653C20.8084 21.4783 20.8496 21.4618 20.8822 21.4336C20.9148 21.4053 20.9369 21.3669 20.945 21.3245L21.7118 17.2505C21.8356 16.9257 21.8741 16.5745 21.8238 16.2306C21.7734 15.8866 21.6359 15.5613 21.4243 15.2855Z" stroke="#1C1B1F"/>
<path d="M22.4386 21.4784H24.3198C24.3604 21.4788 24.3998 21.4645 24.4307 21.438C24.4615 21.4116 24.4817 21.3748 24.4875 21.3346L24.9069 19.1539H26.3687C26.9806 19.1692 27.5912 19.0883 28.178 18.9142C28.6535 18.757 29.0875 18.4949 29.4481 18.1474C29.772 17.8563 30.0435 17.5118 30.2509 17.1289C30.4561 16.7543 30.6016 16.3501 30.6823 15.9307C30.8096 15.491 30.8315 15.0276 30.7461 14.5779C30.6607 14.1282 30.4706 13.705 30.191 13.3425C29.8671 13.0134 29.4751 12.7592 29.0425 12.5977C28.6098 12.4363 28.1471 12.3715 27.6868 12.4079H24.0921C24.049 12.4099 24.0078 12.4263 23.9752 12.4546C23.9426 12.4829 23.9204 12.5213 23.9124 12.5637L22.2589 21.2627C22.2405 21.313 22.2405 21.3682 22.2589 21.4185C22.2817 21.4423 22.31 21.4602 22.3413 21.4706C22.3726 21.4811 22.406 21.4837 22.4386 21.4784ZM25.8535 14.0974H27.0517C27.2797 14.0668 27.5114 14.0817 27.7336 14.1414C27.9557 14.201 28.1638 14.3042 28.3458 14.4449C28.5495 14.6606 28.5854 15.068 28.4776 15.6431C28.4175 16.1577 28.1752 16.6337 27.7946 16.9851C27.32 17.2856 26.7609 17.4243 26.201 17.3805H25.2424L25.8535 14.0974Z" stroke="#1C1B1F"/>
</svg>
