<svg width="33" height="32" viewBox="0 0 33 32" fill="none" xmlns="http://www.w3.org/2000/svg">
<path d="M8.11377 10.7029H3.75913C3.73353 10.701 3.70782 10.7042 3.68346 10.7122C3.6591 10.7203 3.63658 10.7331 3.61719 10.7499C3.59779 10.7667 3.58191 10.7872 3.57046 10.8102C3.559 10.8331 3.5522 10.8581 3.55044 10.8837L1.5192 21.0539C1.50654 21.0823 1.5 21.1131 1.5 21.1443C1.5 21.1755 1.50654 21.2063 1.5192 21.2347C1.53789 21.257 1.56134 21.2748 1.58782 21.2869C1.61431 21.2989 1.64315 21.3049 1.67223 21.3043H3.93999C3.9895 21.3083 4.03869 21.2933 4.07748 21.2623C4.11628 21.2312 4.14175 21.1865 4.14868 21.1373L4.66344 18.6052H6.43035C7.16364 18.6214 7.89521 18.5276 8.60071 18.327C9.20817 18.158 9.76945 17.8536 10.2424 17.4366C10.6308 17.0995 10.96 16.6998 11.2163 16.254C11.4589 15.8197 11.6326 15.3504 11.7311 14.8628C11.8827 14.3518 11.9088 13.8118 11.807 13.2886C11.7053 12.7654 11.4788 12.2745 11.1467 11.8576C10.7534 11.4592 10.279 11.1499 9.75573 10.9507C9.23247 10.7515 8.67252 10.6669 8.11377 10.7029ZM8.97635 14.5567C8.89313 15.1591 8.59702 15.7119 8.1416 16.1149C7.57068 16.4654 6.90345 16.6261 6.23557 16.574H5.12256L5.87384 12.7341H7.2651C7.82125 12.666 8.38264 12.81 8.83723 13.1376C9.05983 13.388 9.05983 13.861 8.97635 14.5567Z" stroke="#111827"/>
<path d="M20.6168 14.0474C19.8636 13.4937 18.931 13.2407 18.0012 13.3379H16.3456L16.8047 10.8893C16.8183 10.861 16.8253 10.8301 16.8253 10.7988C16.8253 10.7675 16.8183 10.7366 16.8047 10.7084C16.7553 10.6903 16.7011 10.6903 16.6517 10.7084H14.4674C14.4202 10.7079 14.3745 10.7246 14.3387 10.7553C14.3028 10.786 14.2794 10.8286 14.2726 10.8753L12.3527 20.9898C12.3393 21.0156 12.3323 21.0442 12.3323 21.0733C12.3323 21.1023 12.3393 21.131 12.3527 21.1568C12.3691 21.1824 12.3917 21.2036 12.4185 21.2181C12.4452 21.2327 12.4753 21.2403 12.5057 21.2402H14.6483C14.6976 21.2404 14.7452 21.2218 14.7813 21.1882C14.8175 21.1546 14.8395 21.1086 14.843 21.0594L15.9143 15.3969H17.4586C18.0847 15.3969 18.3073 15.5361 18.3769 15.6195C18.4335 15.7563 18.4626 15.9028 18.4626 16.0508C18.4626 16.1988 18.4335 16.3454 18.3769 16.4821L17.5282 20.9898C17.5148 21.0156 17.5078 21.0442 17.5078 21.0733C17.5078 21.1023 17.5148 21.131 17.5282 21.1568C17.5455 21.1816 17.5683 21.2021 17.5948 21.2166C17.6214 21.2311 17.651 21.2392 17.6812 21.2402H19.8516C19.9017 21.238 19.9495 21.2189 19.9874 21.1861C20.0252 21.1533 20.0509 21.1086 20.0603 21.0594L20.9507 16.3291C21.0943 15.9519 21.1391 15.5442 21.0806 15.1448C21.0222 14.7454 20.8625 14.3676 20.6168 14.0474Z" stroke="#111827"/>
<path d="M21.795 21.2381H23.9792C24.0264 21.2386 24.0722 21.222 24.108 21.1912C24.1438 21.1605 24.1673 21.1179 24.174 21.0712L24.6609 18.5391H26.3583C27.0688 18.5569 27.7777 18.463 28.4591 18.2608C29.0112 18.0782 29.5151 17.7739 29.9338 17.3704C30.3098 17.0324 30.6251 16.6324 30.866 16.1878C31.1042 15.7529 31.2732 15.2835 31.3668 14.7966C31.5146 14.2861 31.54 13.748 31.4409 13.2258C31.3418 12.7037 31.121 12.2123 30.7964 11.7915C30.4203 11.4093 29.9651 11.1141 29.4628 10.9267C28.9605 10.7392 28.4232 10.664 27.8887 10.7063H23.7149C23.6648 10.7085 23.617 10.7276 23.5791 10.7604C23.5412 10.7933 23.5155 10.8379 23.5062 10.8871L21.5863 20.9877C21.565 21.0461 21.565 21.1101 21.5863 21.1686C21.6128 21.1962 21.6457 21.217 21.682 21.2291C21.7184 21.2412 21.7571 21.2443 21.795 21.2381ZM25.76 12.668H27.1513C27.416 12.6324 27.6851 12.6498 27.943 12.719C28.201 12.7883 28.4426 12.9081 28.6539 13.0714C28.8904 13.3219 28.9321 13.7949 28.8069 14.4627C28.7371 15.0601 28.4558 15.6129 28.0139 16.0209C27.4629 16.3698 26.8137 16.5309 26.1635 16.48H25.0505L25.76 12.668Z" stroke="#111827"/>
</svg>
