<svg width="33" height="32" viewBox="0 0 33 32" fill="none" xmlns="http://www.w3.org/2000/svg">
<path fill-rule="evenodd" clip-rule="evenodd" d="M1.50098 0.000976562C0.948692 0.000976562 0.500977 0.448692 0.500977 1.00098V30.9991C0.500977 31.5513 0.948692 31.9991 1.50098 31.9991H10.3562L10.3641 31.9991L10.372 31.9991H22.628L22.6359 31.9991L22.6438 31.9991H31.4991C32.0513 31.9991 32.4991 31.5513 32.4991 30.9991V1.00098C32.4991 0.448692 32.0513 0.000976562 31.4991 0.000976562H26.0448H19.227H13.7729H6.95518H1.50098ZM18.227 2.00098H14.7729V18.7271C14.7729 19.2794 14.3252 19.7271 13.7729 19.7271H11.3641V29.9991H21.6359V19.7271H19.227C18.6747 19.7271 18.227 19.2794 18.227 18.7271V2.00098ZM23.6359 19.7271V29.9991H30.4991V2.00098H27.0448V18.7271C27.0448 19.2794 26.5971 19.7271 26.0448 19.7271H23.6359ZM25.0448 2.00098H20.227V17.7271H25.0448V2.00098ZM7.95518 2.00098H12.7729V17.7271H7.95518V2.00098ZM2.50098 2.00098H5.95518V18.7271C5.95518 19.2794 6.4029 19.7271 6.95518 19.7271H9.36406V29.9991H2.50098V2.00098Z" fill="#111827"/>
</svg>
