<svg width="33" height="33" viewBox="0 0 33 33" fill="none" xmlns="http://www.w3.org/2000/svg">
<path fill-rule="evenodd" clip-rule="evenodd" d="M3.6941 0.238281H2.6941V1.23828V1.41776L2.69409 1.48359C2.69404 2.37008 2.694 3.1339 2.77624 3.74556C2.86437 4.40107 3.06311 5.02942 3.57278 5.53909C4.08244 6.04875 4.71079 6.24749 5.36631 6.33562C5.97796 6.41786 6.74177 6.41782 7.62824 6.41777H7.62826L7.6941 6.41777H25.3059L25.3717 6.41777H25.3718C26.2582 6.41782 27.022 6.41786 27.6337 6.33562C28.2892 6.24749 28.9176 6.04875 29.4272 5.53909C29.9369 5.02942 30.1356 4.40107 30.2238 3.74556C30.306 3.13389 30.306 2.37007 30.3059 1.48357L30.3059 1.41776V1.23828V0.238281H29.3059H3.6941ZM4.7584 3.47906C4.71579 3.16214 4.70138 2.76766 4.69653 2.23828H28.3035C28.2986 2.76766 28.2842 3.16214 28.2416 3.47906C28.1833 3.9128 28.0891 4.04875 28.013 4.12487C27.9369 4.201 27.8009 4.29514 27.3672 4.35346C26.9047 4.41564 26.277 4.41777 25.3059 4.41777H7.6941C6.72302 4.41777 6.09531 4.41564 5.6328 4.35346C5.19906 4.29514 5.06311 4.201 4.98699 4.12487C4.91087 4.04875 4.81672 3.9128 4.7584 3.47906ZM7.20985 6.91121C4.71587 6.91121 2.69411 8.93298 2.69411 11.427V27.7423C2.69411 30.2362 4.71587 32.258 7.20985 32.258C9.70382 32.258 11.7256 30.2362 11.7256 27.7423V11.427C11.7256 8.93298 9.70382 6.91121 7.20985 6.91121ZM4.69411 11.427C4.69411 10.0375 5.82044 8.91121 7.20985 8.91121C8.59925 8.91121 9.72558 10.0375 9.72558 11.427V27.7423C9.72558 29.1317 8.59925 30.258 7.20985 30.258C5.82044 30.258 4.69411 29.1317 4.69411 27.7423V11.427ZM25.7902 20.3566C23.2962 20.3566 21.2745 22.3784 21.2745 24.8723V27.7423C21.2745 30.2363 23.2962 32.2581 25.7902 32.2581C28.2842 32.2581 30.3059 30.2363 30.3059 27.7423V24.8723C30.3059 22.3784 28.2842 20.3566 25.7902 20.3566ZM23.2745 24.8723C23.2745 23.4829 24.4008 22.3566 25.7902 22.3566C27.1796 22.3566 28.3059 23.4829 28.3059 24.8723V27.7423C28.3059 29.1317 27.1796 30.2581 25.7902 30.2581C24.4008 30.2581 23.2745 29.1317 23.2745 27.7423V24.8723ZM21.2745 11.4269C21.2745 8.93297 23.2962 6.91121 25.7902 6.91121C28.2842 6.91121 30.3059 8.93298 30.3059 11.427V15.3474C30.3059 17.8413 28.2842 19.8631 25.7902 19.8631C23.2962 19.8631 21.2745 17.8413 21.2745 15.3474V11.4269ZM25.7902 8.91121C24.4008 8.91121 23.2745 10.0375 23.2745 11.4269V15.3474C23.2745 16.7368 24.4008 17.8631 25.7902 17.8631C27.1796 17.8631 28.3059 16.7368 28.3059 15.3474V11.427C28.3059 10.0375 27.1796 8.91121 25.7902 8.91121ZM16.5001 6.91146C14.1358 6.91146 12.2191 8.82812 12.2191 11.1924V18.506C12.2191 20.8703 14.1358 22.787 16.5001 22.787C18.8644 22.787 20.7811 20.8703 20.7811 18.506V11.1924C20.7811 8.82811 18.8644 6.91146 16.5001 6.91146ZM14.2191 11.1924C14.2191 9.93268 15.2403 8.91146 16.5001 8.91146C17.7598 8.91146 18.7811 9.93268 18.7811 11.1924V18.506C18.7811 19.7657 17.7598 20.787 16.5001 20.787C15.2403 20.787 14.2191 19.7657 14.2191 18.506V11.1924ZM12.2191 27.5613C12.2191 25.197 14.1358 23.2804 16.5001 23.2804C18.8644 23.2804 20.7811 25.197 20.7811 27.5613V27.9771C20.7811 30.3414 18.8644 32.258 16.5001 32.258C14.1358 32.258 12.2191 30.3414 12.2191 27.9771V27.5613ZM16.5001 25.2804C15.2403 25.2804 14.2191 26.3016 14.2191 27.5613V27.9771C14.2191 29.2368 15.2403 30.258 16.5001 30.258C17.7598 30.258 18.7811 29.2368 18.7811 27.9771V27.5613C18.7811 26.3016 17.7598 25.2804 16.5001 25.2804Z" fill="#111827"/>
</svg>
