<svg width="33" height="32" viewBox="0 0 33 32" fill="none" xmlns="http://www.w3.org/2000/svg">
<path fill-rule="evenodd" clip-rule="evenodd" d="M18.3681 2.42617C21.6005 -0.806284 26.8414 -0.806282 30.0738 2.42617C33.3063 5.65863 33.3063 10.8995 30.0738 14.1319L22.4051 21.8006C22.3901 21.8178 22.3744 21.8346 22.3581 21.851C22.3417 21.8673 22.325 21.883 22.3078 21.898L14.6319 29.5738C11.3995 32.8063 6.15863 32.8063 2.92618 29.5738C-0.30628 26.3414 -0.306286 21.1005 2.92617 17.8681L10.6009 10.1934C10.6162 10.1758 10.6322 10.1586 10.649 10.1418C10.6657 10.1251 10.6829 10.109 10.7005 10.0937L18.3681 2.42617ZM11.3578 12.2649L4.34039 19.2823C1.88898 21.7337 1.88898 25.7082 4.34039 28.1596C6.7918 30.611 10.7663 30.611 13.2177 28.1596L20.2351 21.1422L11.3578 12.2649ZM21.6493 19.728L12.772 10.8507L19.7823 3.84039C22.2337 1.38898 26.2082 1.38898 28.6596 3.84039C31.111 6.2918 31.111 10.2663 28.6596 12.7177L21.6493 19.728ZM26.3089 8.94533C26.6926 9.34256 26.6817 9.97563 26.2844 10.3593L22.3569 14.153C21.9597 14.5367 21.3266 14.5257 20.9429 14.1285C20.5592 13.7313 20.5702 13.0982 20.9674 12.7145L24.8949 8.92082C25.2922 8.53713 25.9252 8.5481 26.3089 8.94533Z" fill="#111827"/>
</svg>
