<svg width="32" height="32" viewBox="0 0 32 32" fill="none" xmlns="http://www.w3.org/2000/svg">
<path fill-rule="evenodd" clip-rule="evenodd" d="M14.8796 4.53111L17.5765 2.95202L16.9278 6.68094L18.8983 7.02368L19.5461 3.29921L21.5709 5.72765L23.107 4.44685L19.6991 0.359654C19.3861 -0.0157492 18.8476 -0.109873 18.4258 0.137098L13.869 2.8052L14.8796 4.53111ZM13.1871 14.1798L15.8839 12.6007L15.2353 16.3296L17.2057 16.6723L17.8536 12.9479L19.8784 15.3763L21.4145 14.0955L18.0066 10.0083C17.6936 9.63291 17.1551 9.53879 16.7333 9.78576L12.1765 12.4539L13.1871 14.1798ZM14.3126 21.6015L11.6157 23.1806L10.6051 21.4546L15.1619 18.7865C15.5837 18.5396 16.1222 18.6337 16.4352 19.0091L19.8432 23.0963L18.3071 24.3771L16.2822 21.9486L15.6344 25.6731L13.664 25.3304L14.3126 21.6015ZM23.2531 20.2466L26.9592 20.9923L24.4781 22.9526L25.718 24.5219L29.8936 21.2229C30.1305 21.0357 30.2623 20.7598 30.273 20.4752C30.2803 20.2869 30.2338 20.1054 30.1454 19.9482L27.6026 15.3304L25.8506 16.2951L27.358 19.0325L23.6477 18.2859L23.2531 20.2466ZM21.5183 29.0499L19.3226 25.9724L20.9507 24.8109L23.1488 27.8917L23.9194 24.8633L25.8576 25.3564L24.5593 30.459C24.5127 30.6545 24.4074 30.8368 24.2481 30.977C24.1689 31.0468 24.0791 31.1039 23.9818 31.1458C23.9615 31.1546 23.9409 31.1626 23.9202 31.17C23.7898 31.2162 23.6481 31.2359 23.5026 31.2237L18.1998 30.778L18.3673 28.785L21.5183 29.0499ZM10.2442 27.1616L7.2277 26.3449L10.3419 24.194L9.20531 22.5483L6.0947 24.6967L6.40761 21.5503L4.41743 21.3524L3.89081 26.6478C3.84244 27.1342 4.15275 27.5843 4.62454 27.712L9.72143 29.0921L10.2442 27.1616ZM4.71593 16.9543L6.37035 19.6056L4.67358 20.6644L1.87822 16.1846C1.61947 15.7699 1.69839 15.2289 2.06483 14.9055L6.05444 11.3838L7.37798 12.8832L5.00753 14.9756L8.74878 15.5183L8.46166 17.4976L4.71593 16.9543ZM8.32 11.0313L8.82887 7.94784L11.2825 10.8297L12.8053 9.53314L10.3546 6.6547L13.5165 6.64916L13.513 4.64917L8.19141 4.65848C7.70263 4.65933 7.2861 5.01339 7.20651 5.49565L6.34669 10.7056L8.32 11.0313ZM25.2298 9.19228L22.3381 8.00696L23.0966 6.15639L27.9825 8.15911C28.4348 8.34449 28.6868 8.82963 28.5783 9.30623L27.3978 14.4952L25.4476 14.0515L26.149 10.9685L22.7956 12.7138L21.8723 10.9396L25.2298 9.19228ZM13.7839 31.9998C14.8035 31.9998 15.63 31.1732 15.63 30.1537C15.63 29.1341 14.8035 28.3076 13.7839 28.3076C12.7644 28.3076 11.9379 29.1341 11.9379 30.1537C11.9379 31.1732 12.7644 31.9998 13.7839 31.9998Z" fill="#111827"/>
</svg>
