<svg width="32" height="32" viewBox="0 0 32 32" fill="none" xmlns="http://www.w3.org/2000/svg">
<path d="M15.0005 11L11.0005 28" stroke="#1C1B1F" stroke-width="2" stroke-linecap="round" stroke-linejoin="round"/>
<path d="M7.69344 19.5692C6.82353 18.2716 6.26971 16.7882 6.07638 15.238C5.88306 13.6878 6.0556 12.1139 6.58018 10.6424C7.10476 9.17085 7.96679 7.84271 9.09717 6.76439C10.2275 5.68608 11.5948 4.88758 13.0894 4.43291C14.584 3.97825 16.1643 3.88005 17.7037 4.1462C19.2431 4.41235 20.6987 5.03544 21.9538 5.96553C23.209 6.89561 24.2288 8.10682 24.9315 9.50207C25.6343 10.8973 26.0003 12.4378 26.0004 14C26.0004 19.5228 22.0004 23 18.0004 23C14.0004 23 12.7964 20.3667 12.7964 20.3667" stroke="#1C1B1F" stroke-width="2" stroke-linecap="round" stroke-linejoin="round"/>
</svg>
