<svg width="33" height="32" viewBox="0 0 33 32" fill="none" xmlns="http://www.w3.org/2000/svg">
<path fill-rule="evenodd" clip-rule="evenodd" d="M13.8805 5.38962C15.2256 4.98042 16.6479 4.89205 18.0333 5.13158L16.4987 11.0625C16.5292 10.5844 16.2115 10.14 15.7295 10.0266C15.1919 9.90009 14.6536 10.2334 14.5271 10.771L12.3271 20.1206C12.3242 20.1324 12.3214 20.1442 12.3188 20.1561L10.5271 27.771C10.4006 28.3086 10.7338 28.8469 11.2714 28.9734C11.8091 29.0999 12.3474 28.7666 12.4739 28.229L13.8213 22.5028C14.7962 23.2843 16.3036 24 18.5004 24C23.0891 24 27.5004 20.038 27.5004 14V14C27.5003 12.2815 27.0976 10.587 26.3247 9.05225C25.5517 7.51749 24.4299 6.18516 23.0492 5.16207C21.6685 4.13898 20.0674 3.45358 18.3741 3.16082C16.6808 2.86806 14.9424 2.97607 13.2984 3.4762C11.6543 3.97634 10.1503 4.85468 8.90692 6.04082C7.66351 7.22696 6.71528 8.68791 6.13825 10.3066C5.56121 11.9252 5.37141 13.6565 5.58407 15.3618C5.79673 17.067 6.40593 18.6987 7.36283 20.126C7.67037 20.5847 8.29156 20.7073 8.75029 20.3998C9.20903 20.0922 9.3316 19.471 9.02406 19.0123C8.24113 17.8445 7.74269 16.5094 7.5687 15.1143C7.3947 13.7191 7.54999 12.3025 8.02212 10.9781C8.49424 9.65379 9.27007 8.45845 10.2874 7.48797C11.3048 6.51748 12.5353 5.79883 13.8805 5.38962ZM14.3631 20.2001C14.4956 20.3865 14.7122 20.6469 15.0334 20.9108C15.6626 21.4279 16.7411 22 18.5004 22C21.9117 22 25.5004 19.0077 25.5004 14L26.5004 14H25.5004C25.5003 12.594 25.1709 11.2076 24.5384 9.95189C23.906 8.69616 22.9881 7.60606 21.8585 6.76898C20.7288 5.9319 19.4188 5.37112 18.0333 5.13158L16.4979 11.0743C16.494 11.1256 16.4861 11.1773 16.4739 11.229L14.3631 20.2001Z" fill="#111827"/>
</svg>
