<svg width="32" height="32" viewBox="0 0 32 32" fill="none" xmlns="http://www.w3.org/2000/svg">
<path d="M16.7893 18.8359L25.9534 28.0001" stroke="#1C1B1F" stroke-width="2" stroke-linecap="round" stroke-linejoin="round"/>
<path d="M13.3003 5.79301C13.2954 5.77856 13.3032 5.76291 13.3177 5.75806V5.75806C16.2075 4.78708 19.3372 6.34259 20.3082 9.23239L20.3697 9.4153C21.3407 12.3051 19.7851 15.4349 16.8953 16.4058V16.4058C16.8809 16.4107 16.8652 16.4029 16.8604 16.3885L13.3003 5.79301Z" stroke="#1C1B1F" stroke-width="2"/>
<path d="M26.2009 13.2435C26.2154 13.2386 26.231 13.2463 26.2359 13.2607V13.2607C27.2184 16.1467 25.6753 19.2826 22.7894 20.265L22.6067 20.3272C19.7208 21.3097 16.5849 19.7666 15.6024 16.8807V16.8807C15.5975 16.8663 15.6052 16.8506 15.6197 16.8457L26.2009 13.2435Z" stroke="#1C1B1F" stroke-width="2"/>
<path d="M18.687 26.0373C18.6919 26.0518 18.6841 26.0674 18.6696 26.0723V26.0723C15.7801 27.0439 12.6499 25.4891 11.6783 22.5996L11.6168 22.4167C10.6451 19.5271 12.1999 16.3969 15.0895 15.4253V15.4253C15.104 15.4204 15.1196 15.4282 15.1245 15.4427L18.687 26.0373Z" stroke="#1C1B1F" stroke-width="2"/>
<path d="M16.3772 14.9815C16.3916 14.9766 16.3994 14.961 16.3945 14.9465V14.9465C15.4171 12.0589 12.2838 10.5103 9.3962 11.4878L9.21343 11.5496C6.3258 12.527 4.77726 15.6603 5.75467 18.5479V18.5479C5.75956 18.5623 5.77522 18.5701 5.78966 18.5652L16.3772 14.9815Z" stroke="#1C1B1F" stroke-width="2"/>
</svg>
