<svg width="33" height="33" viewBox="0 0 33 33" fill="none" xmlns="http://www.w3.org/2000/svg">
<path fill-rule="evenodd" clip-rule="evenodd" d="M11.9618 2.25126C11.7794 1.70849 12.0716 1.12066 12.6143 0.938301C16.9853 -0.530362 21.7193 1.82244 23.188 6.19344L23.2698 6.43698C24.0767 8.83842 23.7301 11.3494 22.529 13.3683L29.7638 10.9054C30.3058 10.7209 30.8948 11.0107 31.0793 11.5527C32.5653 15.9178 30.2314 20.6611 25.8662 22.1471L25.623 22.2299C24.529 22.6024 23.4111 22.7349 22.3268 22.6555L30.463 30.7917C30.8535 31.1823 30.8535 31.8154 30.463 32.206C30.0725 32.5965 29.4393 32.5965 29.0488 32.206L18.8101 21.9673L21.0294 28.5672C21.2119 29.1099 20.9199 29.6978 20.3772 29.8803C16.0065 31.35 11.272 28.9983 9.80231 24.6276L9.72043 24.3841C8.91045 21.9753 9.2612 19.456 10.4709 17.4336L3.23058 19.8843C2.68822 20.0679 2.09974 19.7771 1.91617 19.2347C0.437776 14.867 2.78004 10.1278 7.14776 8.6494L7.3911 8.56703C9.79249 7.7542 12.3062 8.09631 14.3285 9.29498L11.9618 2.25126ZM18.0251 14.0174C18.017 13.9444 18.0009 13.8711 17.9764 13.7986C17.9103 13.6034 17.8377 13.4122 17.7589 13.2252L14.1875 2.59616C17.226 2.06485 20.2796 3.81691 21.2921 6.83044L21.374 7.07398C22.3865 10.0875 21.0104 13.3279 18.2676 14.7391L18.0251 14.0174ZM15.0286 17.0168C15.0155 16.9782 15.0047 16.9394 14.9963 16.9005L14.7207 16.0808C11.9782 17.4926 10.6029 20.7334 11.6161 23.7467L11.698 23.9902C12.7113 27.0035 15.7652 28.7548 18.8036 28.2228L15.1309 17.3008C15.0953 17.2071 15.0612 17.1125 15.0286 17.0168ZM18.9157 19.2444L18.2619 18.5906C18.2189 18.5476 18.1729 18.5093 18.1246 18.4758C17.8083 18.1095 17.5309 17.7031 17.3011 17.2608L29.4277 13.1325C29.9711 16.1688 28.2312 19.2293 25.2217 20.2538L24.9785 20.3366C22.8276 21.0688 20.556 20.5814 18.9157 19.2444ZM3.57052 17.6578L15.7044 13.5507C14.2871 10.811 11.0436 9.44219 8.03232 10.4614L7.78898 10.5438C4.77771 11.5631 3.03245 14.6205 3.57052 17.6578Z" fill="#111827"/>
</svg>
