<svg width="33" height="32" viewBox="0 0 33 32" fill="none" xmlns="http://www.w3.org/2000/svg">
<path fill-rule="evenodd" clip-rule="evenodd" d="M11.9618 1.75126C11.7794 1.20852 12.0716 0.620674 12.6143 0.438301C16.9853 -1.03036 21.7193 1.32244 23.188 5.69344L23.2698 5.93696C24.0767 8.33841 23.7301 10.8494 22.529 12.8683L29.7638 10.4054C30.3058 10.2209 30.8948 10.5107 31.0793 11.0527C32.5653 15.4178 30.2314 20.1611 25.8662 21.6471L25.623 21.7299C24.529 22.1024 23.4111 22.2349 22.3268 22.1555L30.463 30.2917C30.8535 30.6823 30.8535 31.3154 30.463 31.706C30.0725 32.0965 29.4393 32.0965 29.0488 31.706L18.8101 21.4673L21.0294 28.0672C21.2119 28.6099 20.9199 29.1978 20.3772 29.3803C16.0065 30.85 11.272 28.4983 9.80231 24.1276L9.72043 23.8841C8.91045 21.4753 9.2612 18.956 10.4709 16.9336L3.23058 19.3843C2.68822 19.5679 2.09974 19.2771 1.91617 18.7347C0.437776 14.367 2.78004 9.62779 7.14776 8.1494L7.3911 8.06703C9.79249 7.2542 12.3062 7.59631 14.3285 8.79498L11.9618 1.75126ZM18.0251 13.5174C18.017 13.4444 18.0009 13.3711 17.9764 13.2986C17.9103 13.1034 17.8377 12.9122 17.7589 12.7252L14.1875 2.09616C17.226 1.56485 20.2796 3.31691 21.2921 6.33044L21.3739 6.57397C22.3865 9.58751 21.0104 12.8279 18.2676 14.2391L18.0251 13.5174ZM15.0286 16.5168C15.0155 16.4782 15.0047 16.4394 14.9963 16.4005L14.7207 15.5808C11.9782 16.9926 10.6029 20.2334 11.6161 23.2467L11.698 23.4902C12.7113 26.5035 15.7652 28.2548 18.8036 27.7228L15.1309 16.8008C15.0953 16.7071 15.0612 16.6125 15.0286 16.5168ZM18.9157 18.7444L18.2619 18.0906C18.2189 18.0476 18.1729 18.0093 18.1246 17.9758C17.8083 17.6095 17.5309 17.2031 17.3011 16.7608L29.4277 12.6325C29.9711 15.6688 28.2312 18.7293 25.2217 19.7538L24.9785 19.8366C22.8276 20.5688 20.556 20.0814 18.9157 18.7444ZM3.57052 17.1578L15.7044 13.0507C14.2871 10.311 11.0436 8.94219 8.03232 9.96145L7.78898 10.0438C4.77771 11.0631 3.03245 14.1205 3.57052 17.1578Z" fill="#111827"/>
</svg>
