<svg width="32" height="34" viewBox="0 0 32 34" fill="none" xmlns="http://www.w3.org/2000/svg">
<path d="M4.14109 14.6474C4.0165 14.4505 3.97214 14.2134 4.01714 13.9848C4.06215 13.7562 4.19308 13.5536 4.38299 13.4186C7.77176 10.995 11.8337 9.69189 16 9.69189C20.1663 9.69189 24.2282 10.995 27.617 13.4186C27.8069 13.5536 27.9379 13.7562 27.9829 13.9848C28.0279 14.2134 27.9835 14.4505 27.8589 14.6474L16.7655 32.0799C16.6835 32.2087 16.5704 32.3147 16.4366 32.3881C16.3028 32.4616 16.1526 32.5001 16 32.5001C15.8474 32.5001 15.6972 32.4616 15.5634 32.3881C15.4296 32.3147 15.3165 32.2087 15.2345 32.0799L4.14109 14.6474Z" stroke="#1C1B1F" stroke-width="2" stroke-linecap="round" stroke-linejoin="round"/>
<path d="M5.65015 17.0188C8.56945 14.6278 12.2265 13.3213 16 13.3213C19.7735 13.3213 23.4306 14.6278 26.3499 17.0188" stroke="#1C1B1F" stroke-width="2" stroke-linecap="round" stroke-linejoin="round"/>
<path d="M20.1191 26.8105C19.6436 26.6748 19.2064 26.4301 18.8422 26.0957C18.478 25.7613 18.1969 25.3465 18.0213 24.8843C17.8457 24.4221 17.7804 23.9253 17.8307 23.4334C17.8809 22.9415 18.0453 22.4682 18.3107 22.051C18.5762 21.6339 18.9354 21.2845 19.3596 21.0306C19.7839 20.7768 20.2616 20.6255 20.7547 20.5888C21.2478 20.5522 21.7426 20.6311 22.1998 20.8194C22.657 21.0077 23.0639 21.3001 23.3881 21.6733" stroke="#1C1B1F" stroke-width="2" stroke-linecap="round" stroke-linejoin="round"/>
<path d="M8.04932 20.7891C8.25892 20.2504 8.61156 19.7791 9.06925 19.426C9.52693 19.0729 10.0723 18.8514 10.6466 18.7854C11.2208 18.7194 11.8022 18.8114 12.3281 19.0514C12.854 19.2915 13.3043 19.6705 13.6307 20.1476C13.9571 20.6247 14.147 21.1818 14.1801 21.7589C14.2132 22.336 14.0882 22.9112 13.8185 23.4225C13.5488 23.9338 13.1447 24.3618 12.6497 24.6603C12.1547 24.9589 11.5877 25.1167 11.0096 25.1168C10.9405 25.1168 10.8719 25.1146 10.8038 25.1102" stroke="#1C1B1F" stroke-width="2" stroke-linecap="round" stroke-linejoin="round"/>
</svg>
