<svg width="32" height="33" viewBox="0 0 32 33" fill="none" xmlns="http://www.w3.org/2000/svg">
<path d="M4.14109 14.1474C4.0165 13.9505 3.97214 13.7134 4.01714 13.4848C4.06215 13.2562 4.19308 13.0536 4.38299 12.9186C7.77176 10.495 11.8337 9.19189 16 9.19189C20.1663 9.19189 24.2282 10.495 27.617 12.9186C27.8069 13.0536 27.9379 13.2562 27.9829 13.4848C28.0279 13.7134 27.9835 13.9505 27.8589 14.1474L16.7655 31.5799C16.6835 31.7087 16.5704 31.8147 16.4366 31.8881C16.3028 31.9616 16.1526 32.0001 16 32.0001C15.8474 32.0001 15.6972 31.9616 15.5634 31.8881C15.4296 31.8147 15.3165 31.7087 15.2345 31.5799L4.14109 14.1474Z" stroke="#1C1B1F" stroke-width="2" stroke-linecap="round" stroke-linejoin="round"/>
<path d="M5.65015 16.5188C8.56945 14.1278 12.2265 12.8213 16 12.8213C19.7735 12.8213 23.4306 14.1278 26.3499 16.5188" stroke="#1C1B1F" stroke-width="2" stroke-linecap="round" stroke-linejoin="round"/>
<path d="M20.1191 26.3105C19.6436 26.1748 19.2064 25.9301 18.8422 25.5957C18.478 25.2613 18.1969 24.8465 18.0213 24.3843C17.8457 23.9221 17.7804 23.4253 17.8307 22.9334C17.8809 22.4415 18.0453 21.9682 18.3107 21.551C18.5762 21.1339 18.9354 20.7845 19.3596 20.5306C19.7839 20.2768 20.2616 20.1255 20.7547 20.0888C21.2478 20.0522 21.7426 20.1311 22.1998 20.3194C22.657 20.5077 23.0639 20.8001 23.3881 21.1733" stroke="#1C1B1F" stroke-width="2" stroke-linecap="round" stroke-linejoin="round"/>
<path d="M8.04932 20.2891C8.25892 19.7504 8.61156 19.2791 9.06925 18.926C9.52693 18.5729 10.0723 18.3514 10.6466 18.2854C11.2208 18.2194 11.8022 18.3114 12.3281 18.5514C12.854 18.7915 13.3043 19.1705 13.6307 19.6476C13.9571 20.1247 14.147 20.6818 14.1801 21.2589C14.2132 21.836 14.0882 22.4112 13.8185 22.9225C13.5488 23.4338 13.1447 23.8618 12.6497 24.1603C12.1547 24.4589 11.5877 24.6167 11.0096 24.6168C10.9405 24.6168 10.8719 24.6146 10.8038 24.6102" stroke="#1C1B1F" stroke-width="2" stroke-linecap="round" stroke-linejoin="round"/>
</svg>
