<svg width="33" height="33" viewBox="0 0 33 33" fill="none" xmlns="http://www.w3.org/2000/svg">
<path fill-rule="evenodd" clip-rule="evenodd" d="M2.56117 7.71711C6.62719 4.80909 11.5009 3.24561 16.4998 3.24561C21.4987 3.24561 26.3724 4.80909 30.4385 7.71711L30.4409 7.71887C30.4697 7.7393 30.4895 7.76996 30.4963 7.80456C30.5031 7.83899 30.4965 7.8747 30.4778 7.90441L30.4775 7.90484L29.1819 9.9408C25.5135 7.24498 21.0719 5.78223 16.5 5.78223C11.928 5.78223 7.48625 7.24503 3.8178 9.94094L2.52209 7.90484L2.52175 7.90429C2.50316 7.87461 2.49656 7.83894 2.50333 7.80456C2.51014 7.76996 2.52996 7.73929 2.5587 7.71887L2.5587 7.71887L2.56117 7.71711ZM2.71253 11.9293C2.71679 11.9362 2.72114 11.9431 2.72559 11.9499L14.6994 30.7658C14.8921 31.0687 15.1581 31.318 15.4729 31.4908C15.7876 31.6636 16.1408 31.7541 16.4998 31.7541C16.8588 31.7541 17.2121 31.6636 17.5268 31.4908C17.8415 31.318 18.1075 31.0687 18.3003 30.7658L30.2672 11.9607C30.2766 11.9467 30.2855 11.9326 30.2941 11.9183L32.1662 8.97647L32.1676 8.97435C32.4601 8.51202 32.5643 7.95509 32.4586 7.41825C32.353 6.88185 32.046 6.40632 31.6006 6.08938C27.1954 2.93925 21.9154 1.24561 16.4998 1.24561C11.0842 1.24561 5.8041 2.93928 1.39894 6.08946C0.953613 6.4064 0.646583 6.8819 0.540997 7.41825C0.435314 7.95509 0.539492 8.51201 0.832081 8.97435L0.833425 8.97647L2.71253 11.9293ZM28.1055 11.6323L16.613 29.692C16.6008 29.7111 16.5841 29.7267 16.5644 29.7376C16.5446 29.7484 16.5224 29.7541 16.4998 29.7541C16.4773 29.7541 16.4551 29.7484 16.4353 29.7376C16.4155 29.7267 16.3988 29.7111 16.3867 29.692L4.89422 11.6325C8.24071 9.13733 12.31 7.78223 16.5 7.78223C20.6899 7.78223 24.7591 9.13728 28.1055 11.6323Z" fill="#111827"/>
<path d="M21.6485 23.6422C21.0542 23.4727 20.5077 23.1668 20.0525 22.7488C19.5973 22.3308 19.2459 21.8123 19.0264 21.2346C18.8069 20.6569 18.7253 20.036 18.7881 19.4212C18.8509 18.8064 19.0564 18.2147 19.3882 17.6933C19.72 17.1719 20.1689 16.7352 20.6992 16.4179C21.2296 16.1006 21.8267 15.9115 22.443 15.8657C23.0593 15.8198 23.6777 15.9185 24.2492 16.1538C24.8206 16.3892 25.3292 16.7547 25.7345 17.2212M6.56226 16.1161C6.82424 15.4427 7.26502 14.8537 7.83709 14.4123C8.40916 13.971 9.09083 13.6942 9.80863 13.6117C10.5264 13.5292 11.2531 13.6441 11.9104 13.9441C12.5677 14.2442 13.1306 14.7179 13.5386 15.3142C13.9465 15.9106 14.1839 16.6069 14.2253 17.3283C14.2666 18.0496 14.1104 18.7686 13.7733 19.4076C13.4362 20.0467 12.9311 20.5817 12.3124 20.9549C11.6937 21.328 10.9849 21.5253 10.2624 21.5254C10.176 21.5254 10.0902 21.5227 10.0052 21.5172" stroke="#111827" stroke-width="2" stroke-linecap="round" stroke-linejoin="round"/>
</svg>
