<svg width="33" height="33" viewBox="0 0 33 33" fill="none" xmlns="http://www.w3.org/2000/svg">
<path fill-rule="evenodd" clip-rule="evenodd" d="M5.78828 16.5C5.78828 10.584 10.5842 5.78809 16.5002 5.78809C19.0783 5.78809 21.4437 6.69887 23.2921 8.21622C23.3232 8.24564 23.3562 8.27296 23.3906 8.29806C25.1643 9.78967 26.4472 11.846 26.9624 14.1902C24.8847 16.1723 22.0214 18.3014 18.6624 20.2389C15.3013 22.1775 12.0238 23.5928 9.26707 24.4011C7.12897 22.4427 5.78828 19.6279 5.78828 16.5ZM7.00365 24.9505C5.86318 23.6698 4.97789 22.1569 4.42757 20.4915C3.74705 21.2882 3.2402 22.0241 2.91561 22.6713C2.39993 23.6997 2.45791 24.2574 2.60624 24.5173C2.7425 24.7499 3.11751 25.0413 4.05175 25.1459C4.814 25.2312 5.80966 25.1718 7.00365 24.9505ZM3.89012 18.1168C2.66288 19.3788 1.70507 20.6237 1.12782 21.7748C0.516785 22.9932 0.21109 24.3651 0.873832 25.5167L0.875963 25.5204C1.47925 26.5585 2.63359 26.9996 3.82923 27.1334C5.04929 27.27 6.53846 27.119 8.17019 26.7522C8.37271 26.7067 8.57831 26.6576 8.78681 26.6051C10.926 28.2404 13.5996 29.2119 16.5002 29.2119C23.5208 29.2119 29.2121 23.5206 29.2121 16.5C29.2121 15.9505 29.1772 15.4091 29.1096 14.878C29.2609 14.7222 29.4076 14.5671 29.5497 14.413C30.6829 13.1833 31.5577 11.9693 32.0489 10.845C32.5301 9.74367 32.7254 8.52351 32.1264 7.4834L32.1264 7.48339L32.123 7.47759C31.4523 6.33089 30.1141 5.90905 28.7511 5.82961C27.4678 5.75483 25.9152 5.96234 24.2127 6.39427C22.0737 4.75932 19.4004 3.78809 16.5002 3.78809C9.47958 3.78809 3.78828 9.47939 3.78828 16.5C3.78828 17.0477 3.82292 17.5873 3.89012 18.1168ZM25.9948 8.04731C27.135 9.3272 28.0204 10.8392 28.5711 12.5035C29.36 11.5797 29.9093 10.7468 30.2162 10.0443C30.5919 9.18454 30.5268 8.71646 30.395 8.48452C30.2389 8.22094 29.7796 7.89295 28.6347 7.82623C27.9127 7.78415 27.0236 7.8557 25.9948 8.04731ZM27.2108 16.6672C27.1214 22.5061 22.3603 27.2119 16.5002 27.2119C14.6056 27.2119 12.826 26.72 11.2819 25.8571C13.8744 24.9662 16.7546 23.6481 19.6616 21.9713C22.5652 20.2966 25.1444 18.4645 27.2108 16.6672Z" fill="#111827"/>
</svg>
