<svg width="33" height="32" viewBox="0 0 33 32" fill="none" xmlns="http://www.w3.org/2000/svg">
<mask id="path-1-inside-1_6_1687" fill="white">
<path fill-rule="evenodd" clip-rule="evenodd" d="M7.66551 3.30532C9.3942 1.61646 11.4814 0.564907 13.9589 0.134726C15.122 -0.0723982 17.4322 -0.0325668 18.4519 0.198456C20.3877 0.652537 22.1801 1.55273 23.8053 2.89904C25.2392 4.08602 26.6413 6.11743 27.0396 7.58323C27.1671 8.07714 27.175 8.19664 27.0874 8.63479C27.0316 8.89768 26.9042 9.28803 26.8086 9.48718C26.474 10.2121 25.6375 10.8654 24.8568 11.0167C24.6895 11.0486 22.5386 11.0804 20.085 11.0804L15.6239 11.0884L15.1459 11.2796C14.4926 11.5425 13.7677 12.2674 13.5048 12.9207L13.3136 13.3986L13.3375 18.2979C13.3614 22.9503 13.3535 23.245 13.2021 24.1372C13.0189 25.1888 12.756 26.0332 12.3895 26.7661C10.9397 29.642 8.27892 31.538 5.14815 31.9203C4.7817 31.9602 4.37542 32 4.24796 32H4.0249L4.0488 21.2216L4.0727 10.4511L4.25593 9.59074C4.78967 7.06542 5.88902 5.04198 7.66551 3.30532ZM27.7772 10.4494C27.8728 10.2502 28.0002 9.85985 28.056 9.59696C28.077 9.49222 28.3497 9.442 28.3829 9.54352C28.6936 10.4933 29.0088 11.799 28.9721 12.9515C28.9721 19.573 23.6043 24.9408 16.9828 24.9408C16.0397 24.9408 15.1221 24.8319 14.2417 24.626C14.3239 23.9418 14.3255 23.0366 14.3061 19.2601L14.2822 14.3608L14.4734 13.8828C14.7363 13.2296 15.4613 12.5047 16.1145 12.2418L16.5925 12.0506L21.0536 12.0426C23.5072 12.0426 25.6581 12.0108 25.8254 11.9789C26.6061 11.8275 27.4426 11.1743 27.7772 10.4494Z"/>
</mask>
<path d="M13.9589 0.134726L14.3011 2.10526L14.3096 2.10375L13.9589 0.134726ZM7.66551 3.30532L6.26787 1.87472L6.26742 1.87516L7.66551 3.30532ZM18.4519 0.198456L18.9086 -1.74869L18.9012 -1.75043L18.8938 -1.75211L18.4519 0.198456ZM23.8053 2.89904L22.5294 4.43919L22.53 4.43968L23.8053 2.89904ZM27.0396 7.58323L28.9762 7.08348L28.973 7.07111L28.9696 7.05877L27.0396 7.58323ZM27.0874 8.63479L29.0439 9.0498L29.0463 9.03842L29.0486 9.02702L27.0874 8.63479ZM26.8086 9.48718L25.0055 8.62172L24.999 8.63534L24.9927 8.64907L26.8086 9.48718ZM24.8568 11.0167L25.2311 12.9814L25.2375 12.9802L24.8568 11.0167ZM20.085 11.0804V9.08044L20.0814 9.08045L20.085 11.0804ZM15.6239 11.0884L15.6203 9.08842L15.237 9.0891L14.8811 9.23146L15.6239 11.0884ZM15.1459 11.2796L14.4031 9.42265L14.3992 9.42422L15.1459 11.2796ZM13.5048 12.9207L11.6494 12.174L11.6479 12.1779L13.5048 12.9207ZM13.3136 13.3986L11.4567 12.6559L11.3118 13.0182L11.3137 13.4084L13.3136 13.3986ZM13.3375 18.2979L11.3376 18.3077L11.3376 18.3082L13.3375 18.2979ZM13.2021 24.1372L15.1724 24.4806L15.1739 24.4717L13.2021 24.1372ZM12.3895 26.7661L14.1754 27.6665L14.1784 27.6606L12.3895 26.7661ZM5.14815 31.9203L5.36427 33.9086L5.37746 33.9072L5.39063 33.9056L5.14815 31.9203ZM4.0249 32L2.02491 31.9956L2.02046 34H4.0249V32ZM4.0488 21.2216L2.04881 21.2171V21.2171L4.0488 21.2216ZM4.0727 10.4511L2.11657 10.0345L2.07317 10.2383L2.07271 10.4467L4.0727 10.4511ZM4.25593 9.59074L6.21206 10.0073L6.2127 10.0043L4.25593 9.59074ZM28.056 9.59696L30.0125 10.012L30.0149 10.0006L30.0172 9.9892L28.056 9.59696ZM27.7772 10.4494L25.9741 9.58389L25.9676 9.59752L25.9613 9.61125L27.7772 10.4494ZM28.3829 9.54352L30.2838 8.92171L30.2838 8.92169L28.3829 9.54352ZM28.9721 12.9515L26.9732 12.8879L26.9721 12.9197V12.9515H28.9721ZM14.2417 24.626L12.256 24.3873L12.0422 26.1656L13.7862 26.5734L14.2417 24.626ZM14.3061 19.2601L12.3062 19.2699L12.3062 19.2704L14.3061 19.2601ZM14.2822 14.3608L12.4253 13.618L12.2804 13.9804L12.2823 14.3706L14.2822 14.3608ZM14.4734 13.8828L12.618 13.1362L12.6165 13.1401L14.4734 13.8828ZM16.1145 12.2418L15.3717 10.3848L15.3678 10.3864L16.1145 12.2418ZM16.5925 12.0506L16.5889 10.0506L16.2056 10.0513L15.8497 10.1936L16.5925 12.0506ZM21.0536 12.0426V10.0426L21.05 10.0426L21.0536 12.0426ZM25.8254 11.9789L26.1997 13.9436L26.2061 13.9423L25.8254 11.9789ZM13.6168 -1.83579C10.758 -1.33941 8.2979 -0.108526 6.26787 1.87472L9.06315 4.73592C10.4905 3.34145 12.2048 2.46923 14.3011 2.10524L13.6168 -1.83579ZM18.8938 -1.75211C18.1781 -1.91427 17.1796 -1.98394 16.2896 -1.99748C15.3891 -2.01119 14.374 -1.97066 13.6083 -1.8343L14.3096 2.10375C14.7069 2.03299 15.4285 1.98987 16.2287 2.00205C17.0396 2.0144 17.706 2.08016 18.01 2.14902L18.8938 -1.75211ZM25.0812 1.35889C23.2301 -0.174564 21.1602 -1.22056 18.9086 -1.74869L17.9952 2.14561C19.6153 2.52563 21.1301 3.28002 22.5294 4.43919L25.0812 1.35889ZM28.9696 7.05877C28.6897 6.02888 28.1087 4.94482 27.4567 4.00029C26.794 3.04043 25.9652 2.09067 25.0806 1.35839L22.53 4.43968C23.0793 4.89439 23.6685 5.55382 24.1649 6.27286C24.6719 7.00723 24.9911 7.67178 25.1096 8.10769L28.9696 7.05877ZM29.0486 9.02702C29.0974 8.78258 29.1612 8.44067 29.1419 8.03479C29.1239 7.65749 29.0372 7.32003 28.9762 7.08348L25.103 8.08299C25.1174 8.13869 25.1281 8.18133 25.1363 8.21581C25.1445 8.25019 25.1489 8.27081 25.1511 8.28223C25.1552 8.30265 25.1489 8.27627 25.1464 8.22505C25.1452 8.20019 25.1453 8.17633 25.1462 8.15506C25.1471 8.13448 25.1485 8.12142 25.1488 8.11874C25.1491 8.11688 25.1482 8.12445 25.1445 8.1459C25.1408 8.1677 25.1351 8.19816 25.1262 8.24256L29.0486 9.02702ZM28.6116 10.3527C28.7897 9.98172 28.9623 9.43443 29.0439 9.0498L25.1309 8.21977C25.1221 8.26149 25.098 8.3532 25.0619 8.46341C25.0453 8.51442 25.0295 8.55884 25.0165 8.59284C25.0019 8.63087 24.9977 8.63804 25.0055 8.62172L28.6116 10.3527ZM25.2375 12.9802C25.9998 12.8324 26.6892 12.4675 27.2329 12.0419C27.7766 11.6162 28.2977 11.0334 28.6245 10.3253L24.9927 8.64907C24.9931 8.64811 24.9896 8.65586 24.9796 8.67136C24.9697 8.68675 24.9549 8.70735 24.9345 8.73195C24.8925 8.78243 24.8357 8.83856 24.7671 8.89222C24.6986 8.94588 24.6303 8.98766 24.571 9.01643C24.5421 9.03046 24.5185 9.03987 24.5011 9.04586C24.4835 9.05189 24.4751 9.05348 24.4762 9.05328L25.2375 12.9802ZM20.085 13.0804C21.3195 13.0804 22.4799 13.0724 23.3559 13.0603C23.793 13.0543 24.165 13.0472 24.4424 13.0393C24.5799 13.0354 24.703 13.0311 24.8028 13.0262C24.8325 13.0247 25.0429 13.0172 25.2311 12.9814L24.4826 9.05204C24.6289 9.02417 24.7356 9.02464 24.606 9.03102C24.5466 9.03395 24.455 9.03735 24.329 9.04092C24.0793 9.048 23.729 9.05481 23.3007 9.06072C22.446 9.07252 21.3042 9.08045 20.085 9.08045V13.0804ZM15.6274 13.0884L20.0886 13.0804L20.0814 9.08045L15.6203 9.08842L15.6274 13.0884ZM15.8887 13.1366L16.3666 12.9454L14.8811 9.23146L14.4031 9.42265L15.8887 13.1366ZM15.3602 13.6673C15.3575 13.674 15.3709 13.6407 15.4169 13.5751C15.4611 13.5123 15.521 13.4401 15.5932 13.368C15.6653 13.2958 15.7375 13.2359 15.8004 13.1917C15.866 13.1456 15.8992 13.1323 15.8926 13.135L14.3992 9.42422C13.7561 9.68301 13.1928 10.1115 12.7648 10.5395C12.3367 10.9676 11.9082 11.5309 11.6494 12.174L15.3602 13.6673ZM15.1706 14.1414L15.3618 13.6634L11.6479 12.1779L11.4567 12.6559L15.1706 14.1414ZM15.3375 18.2882L15.3136 13.3889L11.3137 13.4084L11.3376 18.3077L15.3375 18.2882ZM15.1739 24.4717C15.3619 23.3637 15.3609 22.8481 15.3375 18.2877L11.3376 18.3082C11.3619 23.0524 11.345 23.1263 11.2303 23.8027L15.1739 24.4717ZM14.1784 27.6606C14.652 26.7134 14.9646 25.6735 15.1724 24.4806L11.2318 23.7939C11.0732 24.7041 10.86 25.353 10.6007 25.8717L14.1784 27.6606ZM5.39063 33.9056C9.20285 33.44 12.4329 31.1227 14.1754 27.6665L10.6037 25.8658C9.4464 28.1612 7.35498 29.6359 4.90568 29.9351L5.39063 33.9056ZM4.24796 34C4.51274 34 5.05812 33.9419 5.36427 33.9086L4.93204 29.932C4.75481 29.9513 4.57395 29.9699 4.42627 29.9834C4.35203 29.9902 4.29284 29.9951 4.25008 29.9981C4.19306 30.0021 4.20404 30 4.24796 30V34ZM4.0249 34H4.24796V30H4.0249V34ZM2.04881 21.2171L2.02491 31.9956L6.0249 32.0044L6.0488 21.226L2.04881 21.2171ZM2.07271 10.4467L2.04881 21.2171L6.0488 21.226L6.0727 10.4555L2.07271 10.4467ZM2.29979 9.17416L2.11657 10.0345L6.02883 10.8677L6.21206 10.0073L2.29979 9.17416ZM6.26742 1.87516C4.19786 3.89832 2.91152 6.27986 2.29915 9.17717L6.2127 10.0043C6.66782 7.85098 7.58018 6.18564 9.0636 4.73548L6.26742 1.87516ZM26.0995 9.18195C26.0907 9.22367 26.0666 9.31538 26.0305 9.42559C26.0139 9.47659 25.9981 9.52102 25.9851 9.55502C25.9705 9.59305 25.9663 9.60022 25.9741 9.58389L29.5802 11.3148C29.7583 10.9439 29.9309 10.3966 30.0125 10.012L26.0995 9.18195ZM30.2838 8.92169C29.9756 7.9796 29.1822 7.65161 28.8231 7.55842C28.4396 7.45893 28.1005 7.48301 27.8742 7.52212C27.6386 7.56285 27.3504 7.65021 27.0638 7.82639C26.8263 7.97242 26.258 8.38905 26.0949 9.20472L30.0172 9.9892C29.8645 10.7525 29.3382 11.1236 29.1587 11.2339C28.9302 11.3744 28.7162 11.4359 28.5556 11.4637C28.4042 11.4898 28.1408 11.5138 27.8185 11.4302C27.5205 11.3529 26.7736 11.0567 26.4821 10.1654L30.2838 8.92169ZM30.9711 13.015C31.0187 11.5192 30.6216 9.95424 30.2838 8.92171L26.482 10.1653C26.7657 11.0324 26.9989 12.0787 26.9732 12.8879L30.9711 13.015ZM16.9828 26.9408C24.7089 26.9408 30.9721 20.6776 30.9721 12.9515H26.9721C26.9721 18.4684 22.4998 22.9408 16.9828 22.9408V26.9408ZM13.7862 26.5734C14.8148 26.814 15.8853 26.9408 16.9828 26.9408V22.9408C16.1942 22.9408 15.4293 22.8498 14.6972 22.6786L13.7862 26.5734ZM12.3062 19.2704C12.326 23.1352 12.319 23.8633 12.256 24.3873L16.2274 24.8647C16.3289 24.0203 16.3251 22.9381 16.3061 19.2498L12.3062 19.2704ZM12.2823 14.3706L12.3062 19.2699L16.3061 19.2504L16.2822 14.3511L12.2823 14.3706ZM12.6165 13.1401L12.4253 13.618L16.1392 15.1036L16.3304 14.6256L12.6165 13.1401ZM15.3678 10.3864C14.7247 10.6452 14.1614 11.0737 13.7334 11.5017C13.3053 11.9298 12.8769 12.4931 12.6181 13.1362L16.3288 14.6295C16.3261 14.6362 16.3395 14.6029 16.3856 14.5373C16.4297 14.4745 16.4897 14.4023 16.5618 14.3301C16.6339 14.258 16.7061 14.198 16.769 14.1539C16.8346 14.1078 16.8678 14.0945 16.8612 14.0972L15.3678 10.3864ZM15.8497 10.1936L15.3717 10.3848L16.8573 14.0987L17.3353 13.9075L15.8497 10.1936ZM21.05 10.0426L16.5889 10.0506L16.5961 14.0506L21.0572 14.0426L21.05 10.0426ZM25.4512 10.0142C25.5975 9.98635 25.7042 9.98682 25.5746 9.9932C25.5152 9.99613 25.4236 9.99953 25.2976 10.0031C25.048 10.0102 24.6976 10.017 24.2693 10.0229C23.4146 10.0347 22.2728 10.0426 21.0536 10.0426V14.0426C22.2881 14.0426 23.4485 14.0346 24.3245 14.0225C24.7616 14.0165 25.1336 14.0094 25.411 14.0015C25.5485 13.9976 25.6716 13.9933 25.7714 13.9884C25.8011 13.9869 26.0115 13.9794 26.1997 13.9436L25.4512 10.0142ZM25.9613 9.61125C25.9617 9.61029 25.9582 9.61804 25.9482 9.63354C25.9383 9.64893 25.9236 9.66953 25.9031 9.69412C25.8611 9.74461 25.8043 9.80074 25.7358 9.8544C25.6672 9.90805 25.599 9.94984 25.5397 9.97861C25.5108 9.99263 25.4871 10.002 25.4697 10.008C25.4521 10.0141 25.4437 10.0157 25.4448 10.0155L26.2061 13.9423C26.9684 13.7945 27.6578 13.4297 28.2015 13.004C28.7452 12.5784 29.2663 11.9956 29.5931 11.2875L25.9613 9.61125Z" fill="#111827" mask="url(#path-1-inside-1_6_1687)"/>
</svg>
