<svg width="33" height="32" viewBox="0 0 33 32" fill="none" xmlns="http://www.w3.org/2000/svg">
<g clip-path="url(#clip0_569_251)">
<path fill-rule="evenodd" clip-rule="evenodd" d="M32.2915 1.40332C32.6199 1.82572 32.5577 2.43179 32.1502 2.77861L10.8252 20.9316C10.6189 21.1073 10.35 21.1917 10.0803 21.1655C9.81056 21.1392 9.56301 21.0047 9.39433 20.7925L0.71559 9.87812C0.495383 9.60119 0.437905 9.22851 0.564443 8.8981C0.690981 8.56769 0.982695 8.32874 1.33155 8.26974L6.22539 7.44211C6.586 7.38113 6.95113 7.52186 7.17752 7.80909L12.3467 14.3675L30.9238 1.20127C31.3603 0.891889 31.9631 0.98093 32.2915 1.40332ZM13.6875 15.8686L12.7278 16.5487C12.2934 16.8567 11.6939 16.7701 11.3642 16.3519L5.97398 9.51303L3.33533 9.95927L10.3162 18.7384L13.6875 15.8686ZM18.481 17.1012C18.7452 17.1295 18.9874 17.2617 19.154 17.4689L27.7422 28.1476C27.9651 28.4247 28.024 28.7994 27.897 29.1316C27.7699 29.4637 27.4759 29.7034 27.125 29.7611L22.0627 30.5922C21.7047 30.6509 21.343 30.5112 21.1174 30.2271L15.8539 23.5964L4.21963 30.8323C3.77111 31.1113 3.18299 30.9933 2.87674 30.5629C2.57049 30.1326 2.65174 29.5383 3.06226 29.2059L17.7455 17.3183C17.952 17.1511 18.2167 17.073 18.481 17.1012ZM16.0337 21.2775C16.3463 21.2623 16.6593 21.3942 16.866 21.6546L22.3185 28.5234L25.1094 28.0652L18.2242 19.5041L16.0337 21.2775ZM9.75206 7.41791C9.30872 7.74726 9.21632 8.37364 9.54567 8.81698L11.9922 12.1102C12.3215 12.5535 12.9479 12.6459 13.3912 12.3166L16.6845 9.87006C17.1278 9.54071 17.2202 8.91433 16.8908 8.47099L14.4443 5.17779C14.115 4.73445 13.4886 4.64205 13.0453 4.9714L9.75206 7.41791ZM13.0013 10.1148L11.7475 8.42702L13.4352 7.1732L14.689 8.86095L13.0013 10.1148Z" fill="#111827"/>
</g>
<defs>
<clipPath id="clip0_569_251">
<rect width="32" height="32" fill="white" transform="translate(0.5)"/>
</clipPath>
</defs>
</svg>
