<svg width="33" height="33" viewBox="0 0 33 33" fill="none" xmlns="http://www.w3.org/2000/svg">
<path fill-rule="evenodd" clip-rule="evenodd" d="M16.4999 0.500732C16.1485 0.500732 15.7996 0.512079 15.4535 0.534442L15.5825 2.53028C15.8857 2.51069 16.1916 2.50073 16.4999 2.50073C16.6858 2.50073 16.8708 2.50435 17.0548 2.51151C20.3734 2.64087 23.3954 3.92542 25.73 5.97429C26.1894 6.37753 26.6222 6.81036 27.0255 7.2698C29.0937 9.62646 30.3831 12.6836 30.4916 16.0391C30.4965 16.1921 30.499 16.3456 30.499 16.4998C30.499 16.6875 30.4953 16.8744 30.488 17.0602C30.3575 20.3766 29.0732 23.3965 27.0255 25.7298C26.6222 26.1893 26.1894 26.6221 25.73 27.0253C23.3733 29.0936 20.3162 30.383 16.9606 30.4915C16.8077 30.4964 16.6541 30.4989 16.4999 30.4989C16.1916 30.4989 15.8857 30.4889 15.5825 30.4694L15.4535 32.4652C15.7996 32.4876 16.1485 32.4989 16.4999 32.4989C16.7111 32.4989 16.9213 32.4948 17.1306 32.4867C20.9249 32.3396 24.3802 30.8711 27.0492 28.5285C27.5739 28.068 28.0682 27.5738 28.5286 27.0491C30.8929 24.3554 32.3668 20.8608 32.4906 17.025C32.4962 16.8506 32.499 16.6755 32.499 16.4998C32.499 16.2895 32.495 16.0802 32.4869 15.8718C32.3404 12.0764 30.8718 8.62016 28.5286 5.95052C28.0682 5.42586 27.5739 4.9316 27.0492 4.47113C24.233 1.99932 20.5415 0.500732 16.4999 0.500732ZM13.3786 0.805238C12.6873 0.942009 12.0118 1.12332 11.3555 1.34607L11.9983 3.23997C12.5719 3.04529 13.1623 2.8868 13.7668 2.76721L13.3786 0.805238ZM9.42161 2.14799C8.79316 2.4585 8.18815 2.809 7.60989 3.19613L8.72253 4.85807C9.22863 4.51924 9.75794 4.21261 10.3075 3.94107L9.42161 2.14799ZM5.95064 4.47113C5.42598 4.9316 4.93173 5.42586 4.47125 5.95052L5.97441 7.2698C6.37765 6.81036 6.81048 6.37753 7.26992 5.97429L5.95064 4.47113ZM3.19625 7.60977C2.80912 8.18803 2.45862 8.79304 2.14811 9.42149L3.94119 10.3074C4.21274 9.75782 4.51936 9.22851 4.85819 8.72241L3.19625 7.60977ZM1.34619 11.3554C1.12345 12.0117 0.942131 12.6871 0.80536 13.3785L2.76734 13.7666C2.88692 13.1622 3.04541 12.5718 3.2401 11.9981L1.34619 11.3554ZM0.534564 15.4534C0.512201 15.7995 0.500854 16.1484 0.500854 16.4998C0.500854 16.8512 0.512201 17.2002 0.534564 17.5462L2.5304 17.4173C2.51081 17.1141 2.50085 16.8082 2.50085 16.4998C2.50085 16.1914 2.51081 15.8855 2.5304 15.5824L0.534564 15.4534ZM0.80536 19.6211C0.942131 20.3125 1.12345 20.9879 1.34619 21.6443L3.2401 21.0015C3.04541 20.4279 2.88692 19.8375 2.76734 19.233L0.80536 19.6211ZM2.14811 23.5781C2.45862 24.2066 2.80912 24.8116 3.19625 25.3899L4.85819 24.2772C4.51936 23.7711 4.21274 23.2418 3.94119 22.6922L2.14811 23.5781ZM4.47125 27.0491C4.93173 27.5738 5.42598 28.068 5.95064 28.5285L7.26992 27.0253C6.81048 26.6221 6.37765 26.1893 5.97441 25.7298L4.47125 27.0491ZM7.60989 29.8035C8.18815 30.1906 8.79316 30.5411 9.42161 30.8516L10.3075 29.0586C9.75794 28.787 9.22863 28.4804 8.72253 28.1416L7.60989 29.8035ZM11.3555 31.6536C12.0118 31.8763 12.6873 32.0576 13.3786 32.1944L13.7668 30.2324C13.1623 30.1128 12.5719 29.9543 11.9983 29.7597L11.3555 31.6536ZM24.623 16.4998C24.623 16.154 24.4444 15.8328 24.1507 15.6503L12.0767 8.15078C11.7683 7.95924 11.3804 7.94986 11.0631 8.12629C10.7458 8.30271 10.5491 8.63723 10.5491 9.00025V23.9993C10.5491 24.3624 10.7458 24.6969 11.0631 24.8733C11.3804 25.0497 11.7683 25.0404 12.0767 24.8488L24.1507 17.3493C24.4444 17.1668 24.623 16.8456 24.623 16.4998ZM12.5491 22.201V10.7986L21.7278 16.4998L12.5491 22.201Z" fill="#111827"/>
</svg>
