<svg width="33" height="33" viewBox="0 0 33 33" fill="none" xmlns="http://www.w3.org/2000/svg">
<path fill-rule="evenodd" clip-rule="evenodd" d="M0.500854 5.10059C0.500854 4.5483 0.94857 4.10059 1.50085 4.10059H27.899C28.4512 4.10059 28.899 4.5483 28.899 5.10059C28.899 5.65287 28.4512 6.10059 27.899 6.10059H1.50085C0.94857 6.10059 0.500854 5.65287 0.500854 5.10059ZM0.500854 14.7C0.500854 14.1477 0.94857 13.7 1.50085 13.7H18.2496C18.8019 13.7 19.2496 14.1477 19.2496 14.7C19.2496 15.2522 18.8019 15.7 18.2496 15.7H1.50085C0.94857 15.7 0.500854 15.2522 0.500854 14.7ZM1.50085 23.2991C0.94857 23.2991 0.500854 23.7468 0.500854 24.2991C0.500854 24.8514 0.94857 25.2991 1.50085 25.2991H11.0502C11.6024 25.2991 12.0502 24.8514 12.0502 24.2991C12.0502 23.7468 11.6024 23.2991 11.0502 23.2991H1.50085ZM20.1421 21.3592C18.6123 21.3592 17.3721 22.5993 17.3721 24.1291C17.3721 25.6589 18.6123 26.8991 20.1421 26.8991C21.6719 26.8991 22.912 25.6589 22.912 24.1291C22.912 22.5993 21.6719 21.3592 20.1421 21.3592ZM15.3721 24.1291C15.3721 21.4948 17.5077 19.3592 20.1421 19.3592C21.175 19.3592 22.1312 19.6875 22.9121 20.2455V10.5309C22.9121 10.213 23.0632 9.91407 23.3192 9.7256C23.5752 9.53713 23.9055 9.48157 24.209 9.57594L31.7957 11.9345C32.323 12.0985 32.6177 12.659 32.4537 13.1863C32.2897 13.7137 31.7293 14.0083 31.2019 13.8444L24.9121 11.889V24.2758C24.9121 24.3179 24.9095 24.3594 24.9045 24.4002C24.7639 26.9085 22.6855 28.8991 20.1421 28.8991C17.5077 28.8991 15.3721 26.7635 15.3721 24.1291Z" fill="#111827"/>
</svg>
