<svg width="32" height="32" viewBox="0 0 32 32" fill="none" xmlns="http://www.w3.org/2000/svg">
<path d="M28 20L25 19" stroke="#1C1B1F" stroke-width="2" stroke-linecap="round" stroke-linejoin="round"/>
<path d="M7 13L4 12" stroke="#1C1B1F" stroke-width="2" stroke-linecap="round" stroke-linejoin="round"/>
<path d="M12 4L13 7" stroke="#1C1B1F" stroke-width="2" stroke-linecap="round" stroke-linejoin="round"/>
<path d="M19 25L20 28" stroke="#1C1B1F" stroke-width="2" stroke-linecap="round" stroke-linejoin="round"/>
<path d="M10.6747 21.3253L6.94702 25.053" stroke="#1C1B1F" stroke-width="2" stroke-linecap="round" stroke-linejoin="round"/>
<path d="M20.7644 20.7644L11.2354 11.2355" stroke="#1C1B1F" stroke-width="2" stroke-linecap="round" stroke-linejoin="round"/>
<path d="M9.20749 19.8271C8.42644 19.046 8.42644 17.7797 9.20749 16.9986L13.108 13.0981L19.0099 18.9999L15.1093 22.9005C14.3283 23.6815 13.062 23.6815 12.2809 22.9005L9.20749 19.8271Z" stroke="#1C1B1F" stroke-width="2" stroke-linejoin="round"/>
<path d="M21.3253 10.6747L25.053 6.94702" stroke="#1C1B1F" stroke-width="2" stroke-linecap="round" stroke-linejoin="round"/>
<path d="M19.827 9.20743C19.0459 8.42638 17.7796 8.42638 16.9986 9.20743L13.098 13.108L18.9999 19.0098L22.9004 15.1093C23.6815 14.3282 23.6815 13.0619 22.9004 12.2809L19.827 9.20743Z" stroke="#1C1B1F" stroke-width="2" stroke-linejoin="round"/>
</svg>
