<svg width="33" height="32" viewBox="0 0 33 32" fill="none" xmlns="http://www.w3.org/2000/svg">
<path fill-rule="evenodd" clip-rule="evenodd" d="M25.0066 0.293748C25.3971 0.684272 25.3971 1.31744 25.0066 1.70796L19.7253 6.98925L25.5107 12.7746L30.792 7.49333C31.1825 7.1028 31.8157 7.1028 32.2062 7.49333C32.5967 7.88385 32.5967 8.51702 32.2062 8.90754L26.9249 14.1888L29.3888 16.6527C29.4319 16.6958 29.4703 16.7419 29.5039 16.7903L31.0062 18.2927C31.3968 18.6832 31.3968 19.3163 31.0062 19.7069C30.6157 20.0974 29.9825 20.0974 29.592 19.7069L28.6705 18.7853L18.8275 28.6283C17.6559 29.7998 15.7564 29.7998 14.5848 28.6283L9.93539 23.9788L2.20802 31.7062C1.8175 32.0967 1.18433 32.0967 0.793809 31.7062C0.403284 31.3157 0.403284 30.6825 0.793809 30.292L8.52118 22.5646L4.11486 18.1583C2.94328 16.9867 2.94328 15.0872 4.11486 13.9156L13.9578 4.07266L12.7931 2.90791C12.4025 2.51739 12.4025 1.88422 12.7931 1.4937C13.1836 1.10317 13.8168 1.10317 14.2073 1.4937L15.9528 3.23924C16.0012 3.27284 16.0473 3.31119 16.0904 3.35431L18.3111 5.57504L23.5924 0.293748C23.9829 -0.0967766 24.6161 -0.0967766 25.0066 0.293748ZM15.372 5.48687L5.52907 15.3298C5.13855 15.7204 5.13855 16.3535 5.52907 16.7441L15.9991 27.214C16.3896 27.6046 17.0228 27.6046 17.4133 27.214L27.2562 17.3711L24.7924 14.9072L17.5928 7.70759L15.372 5.48687Z" fill="#111827"/>
</svg>
