<svg width="33" height="32" viewBox="0 0 33 32" fill="none" xmlns="http://www.w3.org/2000/svg">
<path fill-rule="evenodd" clip-rule="evenodd" d="M28.2345 5.70236L32.2062 1.73067C32.5967 1.34014 32.5967 0.706977 32.2062 0.316453C31.8157 -0.0740715 31.1825 -0.0740715 30.792 0.316453L26.8203 4.28815L25.3207 2.78852C24.1491 1.61695 22.2496 1.61695 21.078 2.78852L16.5626 7.30396L16.2312 6.97256C15.8407 6.58204 15.2075 6.58204 14.817 6.97256C14.4265 7.36309 14.4265 7.99625 14.817 8.38678L15.7608 9.33062C15.7876 9.36573 15.8171 9.39946 15.8492 9.43156L23.2261 16.8084C23.2582 16.8405 23.2919 16.87 23.327 16.8968L24.1357 17.7055C24.5262 18.096 25.1593 18.096 25.5499 17.7055C25.9404 17.3149 25.9404 16.6818 25.5499 16.2912L25.3537 16.095L29.8691 11.5796C31.0407 10.408 31.0407 8.50853 29.8691 7.33696L28.2345 5.70236ZM23.9395 14.6808L28.4549 10.1654C28.8454 9.77486 28.8454 9.1417 28.4549 8.75117L23.9065 4.20273C23.5159 3.81221 22.8828 3.81221 22.4922 4.20273L17.9768 8.71817L23.9395 14.6808ZM14.8549 15.0431C15.2454 14.6526 15.2454 14.0194 14.8549 13.6289C14.4643 13.2384 13.8312 13.2384 13.4406 13.6289L10.8258 16.2437L9.90876 15.3266C9.87694 15.2948 9.84351 15.2656 9.80873 15.239L8.8641 14.2943C8.47358 13.9038 7.84041 13.9038 7.44989 14.2943C7.05936 14.6848 7.05936 15.318 7.44989 15.7085L7.78127 16.0399L3.26572 20.5555C2.09415 21.727 2.09415 23.6265 3.26572 24.7981L4.76537 26.2977L0.793809 30.2693C0.403284 30.6598 0.403284 31.293 0.793809 31.6835C1.18433 32.074 1.8175 32.074 2.20802 31.6835L6.17958 27.712L7.81416 29.3465C8.98573 30.5181 10.8852 30.5181 12.0568 29.3465L16.5723 24.831L16.7686 25.0272C17.1591 25.4177 17.7923 25.4177 18.1828 25.0272C18.5733 24.6367 18.5733 24.0035 18.1828 23.613L17.3733 22.8035C17.3467 22.7687 17.3174 22.7353 17.2856 22.7035L16.2337 21.6516L18.8486 19.0368C19.2391 18.6462 19.2391 18.0131 18.8486 17.6226C18.458 17.232 17.8249 17.232 17.4343 17.6226L14.8195 20.2374L12.2401 17.6579L14.8549 15.0431ZM4.67994 21.9697L9.19548 17.4541L10.107 18.3656L10.1125 18.3712L10.1181 18.3768L14.1062 22.3649L15.1581 23.4168L10.6426 27.9323C10.2521 28.3229 9.6189 28.3229 9.22837 27.9323L4.67994 23.3839C4.28941 22.9934 4.28941 22.3602 4.67994 21.9697Z" fill="#111827"/>
</svg>
