<svg width="32" height="32" viewBox="0 0 32 32" fill="none" xmlns="http://www.w3.org/2000/svg">
<path d="M7.7277 24.254L4 27.9817" stroke="#1C1B1F" stroke-width="2" stroke-linecap="round" stroke-linejoin="round"/>
<path d="M11.4554 17.3312L14.1181 14.6686" stroke="#1C1B1F" stroke-width="2" stroke-linecap="round" stroke-linejoin="round"/>
<path d="M17.3132 17.8638L14.6506 20.5264" stroke="#1C1B1F" stroke-width="2" stroke-linecap="round" stroke-linejoin="round"/>
<path d="M16.7806 22.6565L9.32523 15.201" stroke="#1C1B1F" stroke-width="2" stroke-linecap="round" stroke-linejoin="round"/>
<path d="M6.26044 22.7559C5.47939 21.9748 5.47939 20.7085 6.26044 19.9275L10.161 16.0269L16.0628 21.9288L12.1623 25.8293C11.3812 26.6104 10.1149 26.6104 9.33387 25.8293L6.26044 22.7559Z" stroke="#1C1B1F" stroke-width="2" stroke-linejoin="round"/>
<path d="M24.2723 7.74577L28 4.01807" stroke="#1C1B1F" stroke-width="2" stroke-linecap="round" stroke-linejoin="round"/>
<path d="M22.6746 16.7987L15.2192 9.34326" stroke="#1C1B1F" stroke-width="2" stroke-linecap="round" stroke-linejoin="round"/>
<path d="M22.774 6.27847C21.993 5.49742 20.7266 5.49742 19.9456 6.27847L16.045 10.179L21.9469 16.0809L25.8474 12.1803C26.6285 11.3993 26.6285 10.133 25.8474 9.3519L22.774 6.27847Z" stroke="#1C1B1F" stroke-width="2" stroke-linejoin="round"/>
</svg>
