<svg width="33" height="32" viewBox="0 0 33 32" fill="none" xmlns="http://www.w3.org/2000/svg">
<path fill-rule="evenodd" clip-rule="evenodd" d="M12.4491 0.68502C12.2745 0.161077 11.7081 -0.122083 11.1842 0.0525646C10.6603 0.227212 10.3771 0.793532 10.5517 1.31748L11.8016 5.06717C11.9763 5.59111 12.5426 5.87427 13.0665 5.69962C13.5905 5.52498 13.8737 4.95866 13.699 4.43471L12.4491 0.68502ZM0.552565 10.6843C0.727212 10.1603 1.29353 9.87715 1.81748 10.0518L5.56717 11.3017C6.09111 11.4763 6.37427 12.0427 6.19962 12.5666C6.02498 13.0906 5.45866 13.3737 4.93471 13.1991L1.18502 11.9492C0.661077 11.7745 0.377917 11.2082 0.552565 10.6843ZM26.8004 19.4336C26.9751 18.9096 27.5414 18.6265 28.0653 18.8011L31.815 20.051C32.339 20.2257 32.6221 20.792 32.4475 21.3159C32.2728 21.8399 31.7065 22.123 31.1826 21.9484L27.4329 20.6985C26.9089 20.5238 26.6258 19.9575 26.8004 19.4336ZM19.9335 26.3005C20.4574 26.1259 21.0237 26.409 21.1984 26.933L22.4483 30.6827C22.6229 31.2066 22.3398 31.7729 21.8158 31.9476C21.2919 32.1222 20.7256 31.8391 20.5509 31.3151L19.301 27.5654C19.1264 27.0415 19.4095 26.4752 19.9335 26.3005ZM9.86334 24.0509L5.8918 28.0225C5.50128 28.413 4.86811 28.413 4.47759 28.0225C4.08706 27.632 4.08706 26.9988 4.47759 26.6083L8.44912 22.6367L6.94956 21.1372C5.77799 19.9656 5.77798 18.0661 6.94956 16.8945L11.4649 12.3792L9.8377 10.752C9.44718 10.3615 9.44718 9.72832 9.8377 9.33779C10.2282 8.94727 10.8614 8.94727 11.2519 9.33779L12.879 10.9649L17.3944 6.4495C18.566 5.27792 20.4655 5.27792 21.637 6.4495L23.1367 7.94915L27.1082 3.97768C27.4987 3.58715 28.1319 3.58715 28.5224 3.97768C28.9129 4.3682 28.9129 5.00137 28.5224 5.39189L24.5509 9.36337L26.1853 10.9978C27.3569 12.1694 27.3569 14.0689 26.1853 15.2404L21.6699 19.7558L23.1621 21.248C23.5527 21.6385 23.5527 22.2717 23.1621 22.6622C22.7716 23.0527 22.1384 23.0527 21.7479 22.6622L20.2558 21.1701L15.7405 25.6855C14.5689 26.857 12.6694 26.857 11.4978 25.6855L9.86334 24.0509ZM14.2995 12.3729L18.8086 7.86371C19.1991 7.47319 19.8323 7.47319 20.2228 7.86371L24.7711 12.412C25.1616 12.8025 25.1616 13.4357 24.7711 13.8262L20.262 18.3354L14.2995 12.3729ZM12.8729 13.7996L8.36377 18.3087C7.97325 18.6993 7.97325 19.3324 8.36377 19.723L12.9121 24.2712C13.3026 24.6618 13.9358 24.6618 14.3263 24.2712L18.8354 19.7621L12.8729 13.7996Z" fill="#111827"/>
</svg>
