<svg width="33" height="32" viewBox="0 0 33 32" fill="none" xmlns="http://www.w3.org/2000/svg">
<path fill-rule="evenodd" clip-rule="evenodd" d="M17.5001 5.00244C17.5001 4.45016 17.0523 4.00244 16.5001 4.00244C15.9478 4.00244 15.5001 4.45016 15.5001 5.00244V15.0001H5.50244C4.95016 15.0001 4.50244 15.4478 4.50244 16.0001C4.50244 16.5523 4.95016 17.0001 5.50244 17.0001H15.5001V26.9977C15.5001 27.55 15.9478 27.9977 16.5001 27.9977C17.0523 27.9977 17.5001 27.55 17.5001 26.9977V17.0001H27.4977C28.05 17.0001 28.4977 16.5523 28.4977 16.0001C28.4977 15.4478 28.05 15.0001 27.4977 15.0001H17.5001V5.00244Z" fill="#111827"/>
</svg>
