<svg width="33" height="32" viewBox="0 0 33 32" fill="none" xmlns="http://www.w3.org/2000/svg">
<path fill-rule="evenodd" clip-rule="evenodd" d="M16.4999 2.00085C8.76846 2.00085 2.50085 8.26846 2.50085 15.9999C2.50085 23.7314 8.76846 29.999 16.4999 29.999C24.2314 29.999 30.499 23.7314 30.499 15.9999C30.499 8.26846 24.2314 2.00085 16.4999 2.00085ZM0.500854 15.9999C0.500854 7.16389 7.66389 0.000854492 16.4999 0.000854492C25.336 0.000854492 32.499 7.16389 32.499 15.9999C32.499 24.836 25.336 31.999 16.4999 31.999C7.66389 31.999 0.500854 24.836 0.500854 15.9999ZM9.25031 16C9.25031 15.4478 9.69803 15 10.2503 15H15.5V9.75031C15.5 9.19803 15.9478 8.75031 16.5 8.75031C17.0523 8.75031 17.5 9.19803 17.5 9.75031V15H22.7495C23.3018 15 23.7495 15.4478 23.7495 16C23.7495 16.5523 23.3018 17 22.7495 17H17.5V22.2495C17.5 22.8018 17.0523 23.2495 16.5 23.2495C15.9478 23.2495 15.5 22.8018 15.5 22.2495V17H10.2503C9.69803 17 9.25031 16.5523 9.25031 16Z" fill="#111827"/>
</svg>
