<svg width="33" height="32" viewBox="0 0 33 32" fill="none" xmlns="http://www.w3.org/2000/svg">
<path fill-rule="evenodd" clip-rule="evenodd" d="M10.083 5.37451C10.6353 5.37451 11.083 5.82223 11.083 6.37451V9.95803H14.6666C15.2189 9.95803 15.6666 10.4057 15.6666 10.958C15.6666 11.5103 15.2189 11.958 14.6666 11.958H11.083V15.5416C11.083 16.0939 10.6353 16.5416 10.083 16.5416C9.53075 16.5416 9.08303 16.0939 9.08303 15.5416V11.958H5.49951C4.94723 11.958 4.49951 11.5103 4.49951 10.958C4.49951 10.4057 4.94723 9.95803 5.49951 9.95803H9.08303V6.37451C9.08303 5.82223 9.53075 5.37451 10.083 5.37451ZM25.4576 9.83188C25.8481 9.44135 25.8481 8.80819 25.4576 8.41766C25.0671 8.02714 24.4339 8.02714 24.0434 8.41766L7.54266 24.9184C7.15214 25.3089 7.15214 25.9421 7.54266 26.3326C7.93319 26.7231 8.56635 26.7231 8.95688 26.3326L25.4576 9.83188ZM18.3336 22.7918C17.7813 22.7918 17.3336 23.2396 17.3336 23.7918C17.3336 24.3441 17.7813 24.7918 18.3336 24.7918H27.5006C28.0529 24.7918 28.5006 24.3441 28.5006 23.7918C28.5006 23.2396 28.0529 22.7918 27.5006 22.7918H18.3336Z" fill="#111827"/>
</svg>
