<svg width="33" height="32" viewBox="0 0 33 32" fill="none" xmlns="http://www.w3.org/2000/svg">
<path fill-rule="evenodd" clip-rule="evenodd" d="M7.33321 5.41899C9.55362 3.49369 12.3861 2.25566 15.4998 2.0359V6.301C13.5576 6.49889 11.784 7.26687 10.3491 8.43493L7.33321 5.41899ZM5.16941 4.70412C2.28434 7.59801 0.500732 11.5906 0.500732 15.9998C0.500732 24.8359 7.66377 31.9989 16.4998 31.9989C25.3359 31.9989 32.4989 24.8359 32.4989 15.9998C32.4989 7.16377 25.3359 0.000732422 16.4998 0.000732422C12.0906 0.000732422 8.09801 1.78434 5.20412 4.66941L5.18656 4.68656L5.16941 4.70412ZM5.91879 25.1662C3.99359 22.9458 2.75565 20.1134 2.5359 16.9998H6.801C6.99887 18.9419 7.76678 20.7154 8.93473 22.1502L5.91879 25.1662ZM7.33297 26.5804C9.55341 28.5059 12.386 29.744 15.4998 29.9637V25.6986C13.5575 25.5007 11.7838 24.7327 10.3489 23.5645L7.33297 26.5804ZM25.6664 26.5806C23.446 28.506 20.6135 29.744 17.4998 29.9637V25.6986C19.442 25.5007 21.2156 24.7328 22.6505 23.5647L25.6664 26.5806ZM27.0806 25.1664C29.006 22.946 30.244 20.1135 30.4637 16.9998H26.1986C26.0007 18.942 25.2328 20.7156 24.0647 22.1505L27.0806 25.1664ZM27.0804 6.83297C29.0059 9.05341 30.244 11.886 30.4637 14.9998H26.1986C26.0007 13.0575 25.2327 11.2838 24.0645 9.8489L27.0804 6.83297ZM25.6662 5.41879C23.4458 3.49359 20.6134 2.25565 17.4998 2.0359V6.301C19.4419 6.49887 21.2154 7.26678 22.6502 8.43473L25.6662 5.41879ZM21.9855 10.5261C23.3831 11.9268 24.2478 13.8595 24.2493 15.9942L24.2493 15.9998L24.2493 16.0054C24.2478 18.1341 23.388 20.0619 21.9973 21.4616C21.9912 21.4674 21.9852 21.4733 21.9793 21.4793C21.9733 21.4852 21.9675 21.4912 21.9617 21.4973C20.562 22.888 18.6341 23.7478 16.5054 23.7493L16.4998 23.7493L16.4942 23.7493C14.3595 23.7478 12.4268 22.8831 11.0261 21.4855L11.0199 21.4793L11.0137 21.4731C9.6158 20.072 8.75121 18.1385 8.75035 16.003L8.75035 15.9998C8.75035 11.721 12.2182 8.25209 16.4966 8.25035L16.4998 8.25035C18.6365 8.25035 20.5712 9.1151 21.9731 10.5137C21.9752 10.5158 21.9772 10.5179 21.9793 10.5199C21.9813 10.522 21.9834 10.5241 21.9855 10.5261ZM2.5359 14.9998H6.801C6.99889 13.0576 7.76687 11.284 8.93493 9.84914L5.91899 6.83321C3.99369 9.05362 2.75566 11.8861 2.5359 14.9998Z" fill="#111827"/>
</svg>
