<svg width="33" height="33" viewBox="0 0 33 33" fill="none" xmlns="http://www.w3.org/2000/svg">
<path fill-rule="evenodd" clip-rule="evenodd" d="M7.33321 5.91899C9.55362 3.99369 12.3861 2.75566 15.4998 2.5359V6.801C13.5576 6.99889 11.784 7.76687 10.3491 8.93493L7.33321 5.91899ZM5.16941 5.20412C2.28434 8.09801 0.500732 12.0906 0.500732 16.4998C0.500732 25.3359 7.66377 32.4989 16.4998 32.4989C25.3359 32.4989 32.4989 25.3359 32.4989 16.4998C32.4989 7.66377 25.3359 0.500732 16.4998 0.500732C12.0906 0.500732 8.09801 2.28434 5.20412 5.16941L5.18656 5.18656L5.16941 5.20412ZM5.91879 25.6662C3.99359 23.4458 2.75565 20.6134 2.5359 17.4998H6.801C6.99887 19.4419 7.76678 21.2154 8.93473 22.6502L5.91879 25.6662ZM7.33297 27.0804C9.55341 29.0059 12.386 30.244 15.4998 30.4637V26.1986C13.5575 26.0007 11.7838 25.2327 10.3489 24.0645L7.33297 27.0804ZM25.6664 27.0806C23.446 29.006 20.6135 30.244 17.4998 30.4637V26.1986C19.442 26.0007 21.2156 25.2328 22.6505 24.0647L25.6664 27.0806ZM27.0806 25.6664C29.006 23.446 30.244 20.6135 30.4637 17.4998H26.1986C26.0007 19.442 25.2328 21.2156 24.0647 22.6505L27.0806 25.6664ZM27.0804 7.33297C29.0059 9.55341 30.244 12.386 30.4637 15.4998H26.1986C26.0007 13.5575 25.2327 11.7838 24.0645 10.3489L27.0804 7.33297ZM25.6662 5.91879C23.4458 3.99359 20.6134 2.75565 17.4998 2.5359V6.801C19.4419 6.99887 21.2154 7.76678 22.6502 8.93473L25.6662 5.91879ZM21.9855 11.0261C23.3831 12.4268 24.2478 14.3595 24.2493 16.4942L24.2493 16.4998L24.2493 16.5054C24.2478 18.6341 23.388 20.5619 21.9973 21.9616C21.9912 21.9674 21.9852 21.9733 21.9793 21.9793C21.9733 21.9852 21.9675 21.9912 21.9617 21.9973C20.562 23.388 18.6341 24.2478 16.5054 24.2493L16.4998 24.2493L16.4942 24.2493C14.3595 24.2478 12.4268 23.3831 11.0261 21.9855L11.0199 21.9793L11.0137 21.9731C9.6158 20.572 8.75121 18.6385 8.75035 16.503L8.75035 16.4998C8.75035 12.221 12.2182 8.75209 16.4966 8.75035L16.4998 8.75035C18.6365 8.75035 20.5712 9.6151 21.9731 11.0137C21.9752 11.0158 21.9772 11.0179 21.9793 11.0199C21.9813 11.022 21.9834 11.0241 21.9855 11.0261ZM2.5359 15.4998H6.801C6.99889 13.5576 7.76687 11.784 8.93493 10.3491L5.91899 7.33321C3.99369 9.55362 2.75566 12.3861 2.5359 15.4998Z" fill="#111827"/>
</svg>
