<svg width="33" height="32" viewBox="0 0 33 32" fill="none" xmlns="http://www.w3.org/2000/svg">
<path fill-rule="evenodd" clip-rule="evenodd" d="M12.7502 0.715088C12.1979 0.715088 11.7502 1.1628 11.7502 1.71509C11.7502 2.26737 12.1979 2.71509 12.7502 2.71509H20.2497C20.802 2.71509 21.2497 2.26737 21.2497 1.71509C21.2497 1.1628 20.802 0.715088 20.2497 0.715088H12.7502ZM8.04656 6.21468C8.22521 5.90534 8.5553 5.71478 8.91253 5.71478H24.0873C24.4445 5.71478 24.7746 5.90534 24.9533 6.21468L30.4392 15.7143H31.499C32.0513 15.7143 32.499 16.162 32.499 16.7143C32.499 17.2666 32.0513 17.7143 31.499 17.7143H30.3563V24.9281L30.3563 24.9352V30.2848C30.3563 30.8371 29.9085 31.2848 29.3563 31.2848H23.4638C22.9115 31.2848 22.4638 30.8371 22.4638 30.2848V25.9281H10.5361V30.2848C10.5361 30.8371 10.0884 31.2848 9.53608 31.2848H3.64356C3.09128 31.2848 2.64356 30.8371 2.64356 30.2848V24.9281V24.928V17.7143H1.50085C0.94857 17.7143 0.500854 17.2666 0.500854 16.7143C0.500854 16.162 0.94857 15.7143 1.50085 15.7143H2.56058L8.04656 6.21468ZM24.4638 25.9281H28.3563V29.2848H24.4638V25.9281ZM28.3563 23.9281H23.4779L23.4638 23.928L23.4497 23.9281H9.55017L9.53608 23.928L9.52199 23.9281H4.64356V17.7143H28.3563V23.9281ZM4.64356 25.9281V29.2848H8.53608V25.9281H4.64356ZM9.48981 7.71478L4.908 15.6487H28.0918L23.51 7.71478H9.48981ZM7.75047 19.7883C7.19818 19.7883 6.75047 20.236 6.75047 20.7883C6.75047 21.3406 7.19818 21.7883 7.75047 21.7883H10.2503C10.8026 21.7883 11.2503 21.3406 11.2503 20.7883C11.2503 20.236 10.8026 19.7883 10.2503 19.7883H7.75047ZM21.7495 20.7883C21.7495 20.236 22.1973 19.7883 22.7495 19.7883H25.2494C25.8017 19.7883 26.2494 20.236 26.2494 20.7883C26.2494 21.3406 25.8017 21.7883 25.2494 21.7883H22.7495C22.1973 21.7883 21.7495 21.3406 21.7495 20.7883Z" fill="#111827"/>
</svg>
