<svg width="32" height="32" viewBox="0 0 32 32" fill="none" xmlns="http://www.w3.org/2000/svg">
<path d="M15.5556 9.77779C17.0283 9.77779 18.2222 8.58388 18.2222 7.11112C18.2222 5.63837 17.0283 4.44446 15.5556 4.44446C14.0828 4.44446 12.8889 5.63837 12.8889 7.11112C12.8889 8.58388 14.0828 9.77779 15.5556 9.77779Z" stroke="#1C1B1F" stroke-width="2" stroke-linecap="round" stroke-linejoin="round"/>
<path d="M6.66667 17.7778C8.13943 17.7778 9.33333 16.5839 9.33333 15.1111C9.33333 13.6384 8.13943 12.4445 6.66667 12.4445C5.19391 12.4445 4 13.6384 4 15.1111C4 16.5839 5.19391 17.7778 6.66667 17.7778Z" stroke="#1C1B1F" stroke-width="2" stroke-linecap="round" stroke-linejoin="round"/>
<path d="M19.9999 27.5556C21.4727 27.5556 22.6666 26.3617 22.6666 24.889C22.6666 23.4162 21.4727 22.2223 19.9999 22.2223C18.5272 22.2223 17.3333 23.4162 17.3333 24.889C17.3333 26.3617 18.5272 27.5556 19.9999 27.5556Z" stroke="#1C1B1F" stroke-width="2" stroke-linecap="round" stroke-linejoin="round"/>
<path d="M25.3334 12.4444C26.8062 12.4444 28.0001 11.2505 28.0001 9.77775C28.0001 8.30499 26.8062 7.11108 25.3334 7.11108C23.8607 7.11108 22.6667 8.30499 22.6667 9.77775C22.6667 11.2505 23.8607 12.4444 25.3334 12.4444Z" stroke="#1C1B1F" stroke-width="2" stroke-linecap="round" stroke-linejoin="round"/>
<path d="M22.7609 9.07629L18.1279 7.81274" stroke="#1C1B1F" stroke-width="2" stroke-linecap="round" stroke-linejoin="round"/>
<path d="M13.5733 8.89502L8.64868 13.3272" stroke="#1C1B1F" stroke-width="2" stroke-linecap="round" stroke-linejoin="round"/>
<path d="M8.81738 16.6882L17.8493 23.3116" stroke="#1C1B1F" stroke-width="2" stroke-linecap="round" stroke-linejoin="round"/>
<path d="M20.8877 22.3737L24.4456 12.2928" stroke="#1C1B1F" stroke-width="2" stroke-linecap="round" stroke-linejoin="round"/>
</svg>
