<svg width="33" height="32" viewBox="0 0 33 32" fill="none" xmlns="http://www.w3.org/2000/svg">
<path fill-rule="evenodd" clip-rule="evenodd" d="M13.6115 4.88952C13.6115 3.60097 14.6561 2.5564 15.9446 2.5564C17.2332 2.5564 18.2777 3.60097 18.2777 4.88952C18.2777 5.0883 18.2529 5.28128 18.2061 5.46551C18.2022 5.47802 18.1984 5.49066 18.195 5.50343C18.1914 5.51644 18.1881 5.52945 18.1851 5.54247C17.9027 6.51322 17.0065 7.22264 15.9446 7.22264C14.6561 7.22264 13.6115 6.17806 13.6115 4.88952ZM20.2777 4.88952C20.2777 4.93797 20.2769 4.98623 20.2754 5.03429L24.3606 6.14844C25.0958 4.80244 26.5243 3.8894 28.166 3.8894C30.5591 3.8894 32.4991 5.82941 32.4991 8.22252C32.4991 10.6156 30.5591 12.5556 28.166 12.5556C28.0105 12.5556 27.857 12.5475 27.7058 12.5315L23.8462 23.467C25.0415 24.2384 25.8329 25.582 25.8329 27.1104C25.8329 29.5035 23.8929 31.4435 21.4997 31.4435C19.1066 31.4435 17.1666 29.5035 17.1666 27.1104C17.1666 26.5118 17.288 25.9415 17.5075 25.4229L7.6426 18.1886C6.88624 18.833 5.90559 19.2219 4.8341 19.2219C2.44098 19.2219 0.500977 17.2819 0.500977 14.8888C0.500977 12.4957 2.44098 10.5557 4.8341 10.5557C5.74997 10.5557 6.59947 10.8398 7.29926 11.3248L12.1411 6.96709C11.8035 6.35026 11.6115 5.64231 11.6115 4.88952C11.6115 2.4964 13.5515 0.556396 15.9446 0.556396C18.3377 0.556396 20.2777 2.4964 20.2777 4.88952ZM21.9602 22.8015L25.8197 11.8661C24.6243 11.0947 23.8329 9.75102 23.8329 8.22252C23.8329 8.17423 23.8337 8.12613 23.8352 8.07821L19.7498 6.96401C19.0146 8.30978 17.5862 9.22264 15.9446 9.22264C15.0287 9.22264 14.1791 8.93845 13.4793 8.45344L8.63752 12.811C8.97522 13.4279 9.16722 14.1359 9.16722 14.8888C9.16722 15.4875 9.0458 16.0578 8.82625 16.5765L18.6911 23.8107C19.4475 23.1663 20.4282 22.7773 21.4997 22.7773C21.6553 22.7773 21.8089 22.7855 21.9602 22.8015ZM6.55832 13.317C6.13164 12.8492 5.51714 12.5557 4.8341 12.5557C3.54555 12.5557 2.50098 13.6002 2.50098 14.8888C2.50098 16.1773 3.54555 17.2219 4.8341 17.2219C6.12264 17.2219 7.16722 16.1773 7.16722 14.8888C7.16722 14.2941 6.94476 13.7514 6.57851 13.3394L6.56818 13.3281L6.55832 13.317ZM25.9101 7.62759L25.9054 7.64325C25.858 7.82847 25.8329 8.02256 25.8329 8.22252C25.8329 9.51107 26.8775 10.5556 28.166 10.5556C29.4545 10.5556 30.4991 9.51107 30.4991 8.22252C30.4991 6.93398 29.4545 5.8894 28.166 5.8894C27.1027 5.8894 26.2055 6.6007 25.9244 7.57342L25.9194 7.59348L25.9153 7.60899L25.9101 7.62759ZM21.4997 24.7773C20.2112 24.7773 19.1666 25.8219 19.1666 27.1104C19.1666 28.399 20.2112 29.4435 21.4997 29.4435C22.7883 29.4435 23.8329 28.399 23.8329 27.1104C23.8329 25.8219 22.7883 24.7773 21.4997 24.7773Z" fill="#111827"/>
</svg>
