<svg width="32" height="33" viewBox="0 0 32 33" fill="none" xmlns="http://www.w3.org/2000/svg">
<path d="M11.0044 13.5127L13.0027 28.4999" stroke="#1C1B1F" stroke-width="2" stroke-linecap="round" stroke-linejoin="round"/>
<path d="M20.9959 13.5127L18.9976 28.4999" stroke="#1C1B1F" stroke-width="2" stroke-linecap="round" stroke-linejoin="round"/>
<path d="M26.9907 12.014C26.991 11.2379 26.7904 10.475 26.4085 9.79944C26.0265 9.12388 25.4762 8.55868 24.811 8.15884C24.1459 7.759 23.3886 7.53814 22.6128 7.51773C21.837 7.49733 21.0691 7.67808 20.3839 8.0424C20.1686 7.0396 19.6159 6.14093 18.8182 5.49629C18.0204 4.85165 17.0258 4.5 16.0001 4.5C14.9745 4.5 13.9798 4.85165 13.1821 5.49629C12.3843 6.14093 11.8317 7.0396 11.6164 8.0424C10.9311 7.67808 10.1633 7.49733 9.38746 7.51773C8.61166 7.53814 7.85435 7.759 7.18921 8.15884C6.52407 8.55868 5.97375 9.12388 5.59179 9.79944C5.20983 10.475 5.00923 11.2379 5.00952 12.014" stroke="#1C1B1F" stroke-width="2" stroke-linecap="round" stroke-linejoin="round"/>
<path d="M7.97712 28.4214L4.4061 12.1657C4.3905 12.0947 4.45347 12.0313 4.52458 12.0464L11.0939 13.4442C11.1123 13.4481 11.1315 13.4467 11.1492 13.4402L15.8235 11.7215C15.845 11.7136 15.8686 11.7133 15.8903 11.7207L20.9296 13.4412C20.9468 13.4471 20.9652 13.4482 20.983 13.4443L27.4733 12.0473C27.5449 12.0318 27.6082 12.0962 27.5917 12.1676L23.8329 28.4225C23.8224 28.4679 23.782 28.5 23.7355 28.5H8.07479C8.02783 28.5 7.9872 28.4673 7.97712 28.4214Z" stroke="#1C1B1F" stroke-width="2" stroke-linecap="round" stroke-linejoin="round"/>
</svg>
