<svg width="33" height="33" viewBox="0 0 33 33" fill="none" xmlns="http://www.w3.org/2000/svg">
<path fill-rule="evenodd" clip-rule="evenodd" d="M12.3503 1.96823C13.5253 1.01869 14.9904 0.500732 16.5012 0.500732C18.0119 0.500732 19.477 1.01869 20.652 1.96823C21.5167 2.66696 22.1859 3.56832 22.6055 4.58431C23.3093 4.3596 24.0486 4.25345 24.7928 4.27302C25.935 4.30306 27.05 4.62825 28.0294 5.21695C29.0087 5.80565 29.8189 6.63781 30.3813 7.63247C30.7889 8.35336 31.0562 9.14183 31.1723 9.95625C31.7238 10.0966 32.1142 10.6605 31.9729 11.2715L27.2613 31.6467C27.146 32.1456 26.7016 32.4989 26.1896 32.4989H20.2588C20.2523 32.4989 20.2457 32.4989 20.2392 32.4989H12.7632C12.7566 32.4989 12.7501 32.4989 12.7435 32.4989H6.57494C6.05836 32.4989 5.61139 32.1394 5.50056 31.6349L1.02441 11.2589C0.890781 10.6506 1.28138 10.0931 1.83018 9.95487C1.9464 9.14093 2.21365 8.35295 2.62101 7.63247C3.18339 6.63781 3.99365 5.80565 4.97296 5.21695C5.95227 4.62825 7.06728 4.30306 8.20952 4.27302C8.95373 4.25345 9.69298 4.3596 10.3969 4.58431C10.8164 3.56832 11.4856 2.66696 12.3503 1.96823ZM3.80673 10.2616L10.3297 11.6495L15.9435 9.58535C16.1803 9.49829 16.4398 9.49526 16.6786 9.57677L22.7561 11.6518L29.1961 10.2655C29.1172 9.68757 28.9293 9.12786 28.6403 8.61682C28.2478 7.92266 27.6824 7.34192 26.9989 6.93108C26.3155 6.52024 25.5373 6.2933 24.7402 6.27233C23.9431 6.25136 23.1541 6.43709 22.45 6.81143C22.1731 6.95864 21.8432 6.96745 21.5588 6.83521C21.2745 6.70297 21.0686 6.445 21.0028 6.1384C20.7817 5.10863 20.2142 4.1858 19.395 3.52382C18.5758 2.86184 17.5544 2.50073 16.5012 2.50073C15.4479 2.50073 14.4265 2.86184 13.6073 3.52382C12.7881 4.1858 12.2206 5.10863 11.9995 6.1384C11.9337 6.445 11.7278 6.70297 11.4435 6.83521C11.1591 6.96745 10.8292 6.95864 10.5523 6.81143C9.84826 6.43709 9.05925 6.25136 8.26211 6.27233C7.46496 6.2933 6.68682 6.52024 6.00338 6.93108C5.31994 7.34192 4.75448 7.92266 4.362 8.61682C4.0737 9.12673 3.88596 9.68508 3.80673 10.2616ZM13.6301 30.4989H19.3722L21.6536 13.3887L16.3343 11.5726L11.351 13.405L13.6301 30.4989ZM9.34387 13.4846L11.6124 30.4989H7.29869L3.27748 12.1938L9.34387 13.4846ZM23.6559 13.5039L21.3899 30.4989H25.474L29.705 12.2018L23.6559 13.5039Z" fill="#111827"/>
</svg>
