<svg width="33" height="32" viewBox="0 0 33 32" fill="none" xmlns="http://www.w3.org/2000/svg">
<g clip-path="url(#clip0_6_1675)">
<mask id="path-1-inside-1_6_1675" fill="white">
<path fill-rule="evenodd" clip-rule="evenodd" d="M24.5398 21.2862C24.447 19.4951 25.3317 19.173 25.9488 18.998C25.8833 18.9052 25.7958 18.796 25.6977 18.6704C25.3811 18.2826 24.9821 17.78 24.6602 16.9993C24.6111 16.8791 24.4635 16.617 24.2725 16.2729C23.4588 14.8148 21.8533 11.9368 22.17 9.9653C22.3939 8.56197 23.4643 7.63344 26.1348 7.91196C26.1293 7.88476 26.1183 7.85735 26.1076 7.82994C25.9819 7.46962 25.78 6.99439 25.485 6.46477C24.3159 4.34059 21.7766 1.37537 17.2548 1.30432C11.7993 1.21155 10.8052 6.63977 10.6252 8.9225C10.8902 8.75876 11.1679 8.61635 11.4555 8.49661C11.9138 8.31107 12.4327 8.15252 12.9516 8.07051C13.4921 7.9887 14.0382 7.99967 14.5299 8.15231C15.2999 8.39267 15.9115 8.96614 16.1519 10.0583C16.9927 13.963 16.2391 15.645 15.649 16.9611C15.2174 17.9113 15.3966 17.5059 15.1257 18.2681C15.0268 18.5457 14.94 18.8072 14.8795 19.0471C14.944 19.0312 15.0097 19.0203 15.076 19.0144C15.431 18.9818 15.8459 19.1237 16.1354 19.3311C16.4466 19.555 16.6977 19.9046 16.8398 20.2923C16.9655 20.6529 16.949 20.9969 16.9436 21.3737C16.9054 23.1266 16.9164 24.8578 16.9817 26.2668C17.0473 27.6704 17.162 28.7189 17.3148 29.1121C17.4787 29.5215 17.7409 30.1277 18.2379 30.5483C18.7184 30.9577 19.4612 31.2036 20.6406 30.9523C21.6728 30.7283 22.3718 30.4119 22.8306 29.9312C23.2948 29.4559 23.5514 28.7787 23.7152 27.8395C23.8299 27.1513 23.9937 25.9499 24.1468 24.7595C24.3323 23.3069 24.4962 21.8163 24.5398 21.2862ZM11.7226 22.1439C13.5191 21.7724 13.6996 21.5487 14.2786 20.8114C14.4859 20.5476 14.7084 20.296 14.9448 20.0579C15.001 19.9997 15.077 19.9645 15.1578 19.9594C15.2887 19.9484 15.4744 20.0195 15.5893 20.1015C15.7422 20.2107 15.8731 20.3965 15.9497 20.6039C16.0205 20.8171 16.0481 21.0792 15.9113 21.2702C15.2396 22.2042 14.4148 22.5972 13.6448 22.7283C12.8641 22.8647 12.127 22.7283 11.6842 22.6191C11.466 22.5643 11.2147 22.4606 11.0509 22.3459C11.1818 22.2803 11.4006 22.2093 11.7226 22.1439ZM11.2037 18.7252C11.0576 18.6006 10.9189 18.4675 10.7886 18.3265C10.1063 17.5782 9.64753 16.5953 9.5438 15.4977C9.5038 15.0957 9.51294 14.6904 9.571 14.2906C9.80039 12.6469 9.7131 11.1669 9.66398 10.3969C9.6528 10.1949 9.64184 10.0418 9.64753 9.92187C9.64184 9.88371 9.5166 4.94147 12.3287 2.17803C9.78963 1.34248 1.58132 -0.661741 2.02934 8.35999C2.09492 9.67603 3.13793 15.0551 4.72174 18.807C5.21826 19.9866 5.77023 20.9969 6.35446 21.6467C6.84044 22.1873 7.33739 22.4496 7.81788 22.2748C8.08017 22.1818 8.36395 21.9634 8.66461 21.6029C9.48094 20.6176 10.3277 19.6579 11.2037 18.7252ZM21.236 1.20059C23.8082 2.33658 25.4247 4.39519 26.3094 6.01189C26.5814 6.49376 26.8116 6.99802 26.9975 7.51917C27.1614 7.97774 27.2214 8.33827 27.194 8.49661C27.194 8.51306 27.1888 8.5295 27.1888 8.54573C27.2107 9.21746 27.1287 9.76901 27.0357 10.348C26.9701 10.7958 26.8993 11.2601 26.8774 11.8061C26.8609 12.325 26.9265 12.8711 26.9975 13.4391C27.1723 14.8862 27.3579 16.4262 26.3859 18.0208C26.4023 18.0427 26.4188 18.0646 26.435 18.0811C26.4732 18.13 26.5116 18.1793 26.5497 18.223C28.2263 15.5852 29.4496 12.6853 30.1485 10.146C30.9566 7.22442 31.0823 4.84322 30.4161 3.98596C29.2638 2.51684 27.855 1.71418 26.4513 1.30453C24.458 0.73084 22.4702 0.949267 21.236 1.20059ZM10.5923 9.91639C10.5923 10.0583 10.6035 10.2004 10.6087 10.3423C10.6577 11.1342 10.7508 12.6689 10.505 14.4218C10.4561 14.7604 10.4502 15.0935 10.4831 15.4102C10.56 16.2587 10.9129 17.0587 11.4879 17.6874C12.0285 18.2826 12.7439 18.6866 13.5305 18.796C13.6726 18.8179 13.82 18.8232 13.9621 18.8287C14.0334 18.5396 14.1331 18.2402 14.2472 17.9269C14.404 17.4954 14.4472 17.3202 14.7867 16.5734C15.322 15.3828 16.0043 13.8647 15.2235 10.2548C15.0762 9.55586 14.7047 9.19532 14.2514 9.05343C13.9075 8.94401 13.5035 8.94401 13.0884 9.00431C12.6515 9.06988 12.2092 9.21177 11.8105 9.37011C11.1217 9.65432 10.5976 9.89446 10.5923 9.91639ZM13.3937 9.52318C13.742 9.44854 14.216 9.51264 14.5299 9.68152C14.7099 9.78525 14.8082 9.92187 14.7917 10.0692C14.7757 10.1839 14.6608 10.3478 14.4862 10.4679C14.3224 10.5772 14.0983 10.6592 13.8582 10.6263H13.8525C13.6178 10.5936 13.4101 10.457 13.2628 10.3041C13.1202 10.1513 13.0313 9.98639 13.0391 9.84449C13.0469 9.7026 13.1506 9.5839 13.3937 9.52318ZM26.2436 8.86789C24.081 8.60013 23.2455 9.19005 23.0981 10.1131C22.8358 11.7623 24.3323 14.4492 25.0966 15.8198C25.3041 16.1858 25.4572 16.4698 25.5282 16.6389C25.61 16.8247 25.692 16.9995 25.7793 17.1523C26.3471 15.951 26.1997 14.7167 26.0578 13.5481C25.9868 12.9419 25.9159 12.352 25.9322 11.7785C25.9541 11.1833 26.0306 10.6864 26.1015 10.2111C26.1727 9.76901 26.2383 9.34291 26.2436 8.86789ZM26.5114 19.8173C26.4403 19.8392 26.3583 19.861 26.2765 19.8881C25.9488 19.9811 25.43 20.123 25.4846 21.2481C25.5284 21.2917 25.6703 21.3353 25.8833 21.3737C26.2164 21.4448 26.6587 21.4557 27.1285 21.4336C27.9476 21.3847 28.8213 21.2097 29.3785 20.9533C29.952 20.6855 30.4325 20.3634 30.7273 20.0794C29.4968 20.3086 27.6275 20.66 26.5114 19.8173ZM25.3646 9.52318C25.3811 9.62143 25.299 9.79073 25.1626 9.93283C24.9973 10.1047 24.8055 10.2095 24.6022 10.2322C24.4441 10.2499 24.279 10.2181 24.1141 10.1293C23.9199 10.0216 23.7776 9.87506 23.7751 9.72769C23.7734 9.62691 23.8369 9.52571 23.9942 9.43568C24.1253 9.36463 24.3108 9.30454 24.5185 9.27186C24.726 9.24445 24.9227 9.24993 25.0701 9.2883C25.2389 9.32668 25.3479 9.40848 25.3646 9.52318ZM27.0791 19.1456C27.2976 19.3533 28.0349 19.6754 30.5088 19.162C30.9893 19.0638 31.3279 19.0857 31.5464 19.1894C31.8304 19.3258 31.956 19.5498 31.9341 19.8445C31.9231 20.0248 31.8413 20.2103 31.7047 20.4017C31.3878 20.8386 30.6617 21.3956 29.7715 21.8108C29.1108 22.1165 28.1004 22.3242 27.1774 22.3788C26.6368 22.406 26.1179 22.384 25.6975 22.3022C25.5938 22.2803 25.4901 22.2531 25.3971 22.2259C25.3208 22.9194 25.2058 23.8913 25.0804 24.8745C24.9273 26.1087 24.758 27.332 24.6435 27.9982C24.4468 29.1285 24.1194 29.9588 23.513 30.5867C22.9067 31.2145 22.0604 31.6132 20.8371 31.8755C19.3081 32.2032 18.303 31.8428 17.626 31.2746C16.9598 30.7121 16.6431 29.9639 16.4409 29.4614C16.2389 28.9647 16.1076 27.8015 16.0367 26.3105C15.9878 25.2238 15.9659 23.9404 15.9767 22.6077C15.2885 23.2303 14.5297 23.5361 13.8086 23.6619C12.8533 23.8255 11.9794 23.6672 11.4552 23.5361C11.0728 23.4378 10.5976 23.2246 10.319 22.9626C10.1552 22.8095 10.046 22.6297 10.0131 22.4222C9.98065 22.1816 10.0515 21.947 10.2754 21.7395C10.4883 21.5373 10.8816 21.3573 11.5366 21.2206C12.9895 20.9204 13.1204 20.7566 13.5354 20.2268C13.6421 20.0921 13.7532 19.961 13.8685 19.8335C13.8632 19.8116 13.8632 19.7899 13.8632 19.768C13.708 19.7637 13.553 19.7509 13.3992 19.7296C12.9058 19.6589 12.4288 19.5018 11.9899 19.2655C11.5967 19.6807 10.543 20.8219 9.39031 22.209C8.98108 22.706 8.55476 23.0119 8.12908 23.1648C7.22817 23.4869 6.40317 23.1102 5.64963 22.2801C4.99456 21.5483 4.39367 20.4505 3.85309 19.1728C2.22564 15.3172 1.15543 9.76332 1.08416 8.40342C0.527342 -2.78087 11.4441 0.828879 13.1805 1.4732C14.2128 0.768791 15.5455 0.331936 17.271 0.359134C18.1065 0.369886 18.8875 0.473618 19.6028 0.648613C19.9469 0.555845 20.4329 0.419222 20.4603 0.408259C20.5259 0.391813 20.6022 0.375579 20.7007 0.353652C21.984 0.0532086 24.3323 -0.285185 26.7133 0.402777C28.286 0.856077 29.8643 1.7572 31.1586 3.40637C32.0106 4.4985 31.9396 7.19638 31.0549 10.3965C30.2959 13.1494 28.9415 16.3168 27.0791 19.1456Z"/>
</mask>
<path fill-rule="evenodd" clip-rule="evenodd" d="M24.5398 21.2862C24.447 19.4951 25.3317 19.173 25.9488 18.998C25.8833 18.9052 25.7958 18.796 25.6977 18.6704C25.3811 18.2826 24.9821 17.78 24.6602 16.9993C24.6111 16.8791 24.4635 16.617 24.2725 16.2729C23.4588 14.8148 21.8533 11.9368 22.17 9.9653C22.3939 8.56197 23.4643 7.63344 26.1348 7.91196C26.1293 7.88476 26.1183 7.85735 26.1076 7.82994C25.9819 7.46962 25.78 6.99439 25.485 6.46477C24.3159 4.34059 21.7766 1.37537 17.2548 1.30432C11.7993 1.21155 10.8052 6.63977 10.6252 8.9225C10.8902 8.75876 11.1679 8.61635 11.4555 8.49661C11.9138 8.31107 12.4327 8.15252 12.9516 8.07051C13.4921 7.9887 14.0382 7.99967 14.5299 8.15231C15.2999 8.39267 15.9115 8.96614 16.1519 10.0583C16.9927 13.963 16.2391 15.645 15.649 16.9611C15.2174 17.9113 15.3966 17.5059 15.1257 18.2681C15.0268 18.5457 14.94 18.8072 14.8795 19.0471C14.944 19.0312 15.0097 19.0203 15.076 19.0144C15.431 18.9818 15.8459 19.1237 16.1354 19.3311C16.4466 19.555 16.6977 19.9046 16.8398 20.2923C16.9655 20.6529 16.949 20.9969 16.9436 21.3737C16.9054 23.1266 16.9164 24.8578 16.9817 26.2668C17.0473 27.6704 17.162 28.7189 17.3148 29.1121C17.4787 29.5215 17.7409 30.1277 18.2379 30.5483C18.7184 30.9577 19.4612 31.2036 20.6406 30.9523C21.6728 30.7283 22.3718 30.4119 22.8306 29.9312C23.2948 29.4559 23.5514 28.7787 23.7152 27.8395C23.8299 27.1513 23.9937 25.9499 24.1468 24.7595C24.3323 23.3069 24.4962 21.8163 24.5398 21.2862ZM11.7226 22.1439C13.5191 21.7724 13.6996 21.5487 14.2786 20.8114C14.4859 20.5476 14.7084 20.296 14.9448 20.0579C15.001 19.9997 15.077 19.9645 15.1578 19.9594C15.2887 19.9484 15.4744 20.0195 15.5893 20.1015C15.7422 20.2107 15.8731 20.3965 15.9497 20.6039C16.0205 20.8171 16.0481 21.0792 15.9113 21.2702C15.2396 22.2042 14.4148 22.5972 13.6448 22.7283C12.8641 22.8647 12.127 22.7283 11.6842 22.6191C11.466 22.5643 11.2147 22.4606 11.0509 22.3459C11.1818 22.2803 11.4006 22.2093 11.7226 22.1439ZM11.2037 18.7252C11.0576 18.6006 10.9189 18.4675 10.7886 18.3265C10.1063 17.5782 9.64753 16.5953 9.5438 15.4977C9.5038 15.0957 9.51294 14.6904 9.571 14.2906C9.80039 12.6469 9.7131 11.1669 9.66398 10.3969C9.6528 10.1949 9.64184 10.0418 9.64753 9.92187C9.64184 9.88371 9.5166 4.94147 12.3287 2.17803C9.78963 1.34248 1.58132 -0.661741 2.02934 8.35999C2.09492 9.67603 3.13793 15.0551 4.72174 18.807C5.21826 19.9866 5.77023 20.9969 6.35446 21.6467C6.84044 22.1873 7.33739 22.4496 7.81788 22.2748C8.08017 22.1818 8.36395 21.9634 8.66461 21.6029C9.48094 20.6176 10.3277 19.6579 11.2037 18.7252ZM21.236 1.20059C23.8082 2.33658 25.4247 4.39519 26.3094 6.01189C26.5814 6.49376 26.8116 6.99802 26.9975 7.51917C27.1614 7.97774 27.2214 8.33827 27.194 8.49661C27.194 8.51306 27.1888 8.5295 27.1888 8.54573C27.2107 9.21746 27.1287 9.76901 27.0357 10.348C26.9701 10.7958 26.8993 11.2601 26.8774 11.8061C26.8609 12.325 26.9265 12.8711 26.9975 13.4391C27.1723 14.8862 27.3579 16.4262 26.3859 18.0208C26.4023 18.0427 26.4188 18.0646 26.435 18.0811C26.4732 18.13 26.5116 18.1793 26.5497 18.223C28.2263 15.5852 29.4496 12.6853 30.1485 10.146C30.9566 7.22442 31.0823 4.84322 30.4161 3.98596C29.2638 2.51684 27.855 1.71418 26.4513 1.30453C24.458 0.73084 22.4702 0.949267 21.236 1.20059ZM10.5923 9.91639C10.5923 10.0583 10.6035 10.2004 10.6087 10.3423C10.6577 11.1342 10.7508 12.6689 10.505 14.4218C10.4561 14.7604 10.4502 15.0935 10.4831 15.4102C10.56 16.2587 10.9129 17.0587 11.4879 17.6874C12.0285 18.2826 12.7439 18.6866 13.5305 18.796C13.6726 18.8179 13.82 18.8232 13.9621 18.8287C14.0334 18.5396 14.1331 18.2402 14.2472 17.9269C14.404 17.4954 14.4472 17.3202 14.7867 16.5734C15.322 15.3828 16.0043 13.8647 15.2235 10.2548C15.0762 9.55586 14.7047 9.19532 14.2514 9.05343C13.9075 8.94401 13.5035 8.94401 13.0884 9.00431C12.6515 9.06988 12.2092 9.21177 11.8105 9.37011C11.1217 9.65432 10.5976 9.89446 10.5923 9.91639ZM13.3937 9.52318C13.742 9.44854 14.216 9.51264 14.5299 9.68152C14.7099 9.78525 14.8082 9.92187 14.7917 10.0692C14.7757 10.1839 14.6608 10.3478 14.4862 10.4679C14.3224 10.5772 14.0983 10.6592 13.8582 10.6263H13.8525C13.6178 10.5936 13.4101 10.457 13.2628 10.3041C13.1202 10.1513 13.0313 9.98639 13.0391 9.84449C13.0469 9.7026 13.1506 9.5839 13.3937 9.52318ZM26.2436 8.86789C24.081 8.60013 23.2455 9.19005 23.0981 10.1131C22.8358 11.7623 24.3323 14.4492 25.0966 15.8198C25.3041 16.1858 25.4572 16.4698 25.5282 16.6389C25.61 16.8247 25.692 16.9995 25.7793 17.1523C26.3471 15.951 26.1997 14.7167 26.0578 13.5481C25.9868 12.9419 25.9159 12.352 25.9322 11.7785C25.9541 11.1833 26.0306 10.6864 26.1015 10.2111C26.1727 9.76901 26.2383 9.34291 26.2436 8.86789ZM26.5114 19.8173C26.4403 19.8392 26.3583 19.861 26.2765 19.8881C25.9488 19.9811 25.43 20.123 25.4846 21.2481C25.5284 21.2917 25.6703 21.3353 25.8833 21.3737C26.2164 21.4448 26.6587 21.4557 27.1285 21.4336C27.9476 21.3847 28.8213 21.2097 29.3785 20.9533C29.952 20.6855 30.4325 20.3634 30.7273 20.0794C29.4968 20.3086 27.6275 20.66 26.5114 19.8173ZM25.3646 9.52318C25.3811 9.62143 25.299 9.79073 25.1626 9.93283C24.9973 10.1047 24.8055 10.2095 24.6022 10.2322C24.4441 10.2499 24.279 10.2181 24.1141 10.1293C23.9199 10.0216 23.7776 9.87506 23.7751 9.72769C23.7734 9.62691 23.8369 9.52571 23.9942 9.43568C24.1253 9.36463 24.3108 9.30454 24.5185 9.27186C24.726 9.24445 24.9227 9.24993 25.0701 9.2883C25.2389 9.32668 25.3479 9.40848 25.3646 9.52318ZM27.0791 19.1456C27.2976 19.3533 28.0349 19.6754 30.5088 19.162C30.9893 19.0638 31.3279 19.0857 31.5464 19.1894C31.8304 19.3258 31.956 19.5498 31.9341 19.8445C31.9231 20.0248 31.8413 20.2103 31.7047 20.4017C31.3878 20.8386 30.6617 21.3956 29.7715 21.8108C29.1108 22.1165 28.1004 22.3242 27.1774 22.3788C26.6368 22.406 26.1179 22.384 25.6975 22.3022C25.5938 22.2803 25.4901 22.2531 25.3971 22.2259C25.3208 22.9194 25.2058 23.8913 25.0804 24.8745C24.9273 26.1087 24.758 27.332 24.6435 27.9982C24.4468 29.1285 24.1194 29.9588 23.513 30.5867C22.9067 31.2145 22.0604 31.6132 20.8371 31.8755C19.3081 32.2032 18.303 31.8428 17.626 31.2746C16.9598 30.7121 16.6431 29.9639 16.4409 29.4614C16.2389 28.9647 16.1076 27.8015 16.0367 26.3105C15.9878 25.2238 15.9659 23.9404 15.9767 22.6077C15.2885 23.2303 14.5297 23.5361 13.8086 23.6619C12.8533 23.8255 11.9794 23.6672 11.4552 23.5361C11.0728 23.4378 10.5976 23.2246 10.319 22.9626C10.1552 22.8095 10.046 22.6297 10.0131 22.4222C9.98065 22.1816 10.0515 21.947 10.2754 21.7395C10.4883 21.5373 10.8816 21.3573 11.5366 21.2206C12.9895 20.9204 13.1204 20.7566 13.5354 20.2268C13.6421 20.0921 13.7532 19.961 13.8685 19.8335C13.8632 19.8116 13.8632 19.7899 13.8632 19.768C13.708 19.7637 13.553 19.7509 13.3992 19.7296C12.9058 19.6589 12.4288 19.5018 11.9899 19.2655C11.5967 19.6807 10.543 20.8219 9.39031 22.209C8.98108 22.706 8.55476 23.0119 8.12908 23.1648C7.22817 23.4869 6.40317 23.1102 5.64963 22.2801C4.99456 21.5483 4.39367 20.4505 3.85309 19.1728C2.22564 15.3172 1.15543 9.76332 1.08416 8.40342C0.527342 -2.78087 11.4441 0.828879 13.1805 1.4732C14.2128 0.768791 15.5455 0.331936 17.271 0.359134C18.1065 0.369886 18.8875 0.473618 19.6028 0.648613C19.9469 0.555845 20.4329 0.419222 20.4603 0.408259C20.5259 0.391813 20.6022 0.375579 20.7007 0.353652C21.984 0.0532086 24.3323 -0.285185 26.7133 0.402777C28.286 0.856077 29.8643 1.7572 31.1586 3.40637C32.0106 4.4985 31.9396 7.19638 31.0549 10.3965C30.2959 13.1494 28.9415 16.3168 27.0791 19.1456Z" stroke="#111827" stroke-width="2" mask="url(#path-1-inside-1_6_1675)"/>
</g>
<defs>
<clipPath id="clip0_6_1675">
<rect width="32" height="32" fill="white" transform="translate(0.5)"/>
</clipPath>
</defs>
</svg>
