<svg width="33" height="33" viewBox="0 0 33 33" fill="none" xmlns="http://www.w3.org/2000/svg">
<mask id="path-1-inside-1_7291_2400" fill="white">
<path fill-rule="evenodd" clip-rule="evenodd" d="M22.6712 20.7222C22.6053 19.4499 23.2338 19.221 23.6721 19.0967C23.6256 19.0308 23.5634 18.9532 23.4938 18.864C23.2688 18.5885 22.9854 18.2315 22.7567 17.6769C22.7218 17.5915 22.617 17.4054 22.4813 17.1609C21.9033 16.1251 20.7628 14.0808 20.9878 12.6803C21.1469 11.6834 21.9072 11.0238 23.8042 11.2216C23.8003 11.2023 23.7925 11.1829 23.7849 11.1634C23.6956 10.9074 23.5522 10.5698 23.3426 10.1936C22.5122 8.68469 20.7083 6.57832 17.4962 6.52785C13.6209 6.46195 12.9147 10.3179 12.7868 11.9395C12.9751 11.8232 13.1723 11.722 13.3766 11.637C13.7022 11.5052 14.0708 11.3925 14.4394 11.3343C14.8234 11.2762 15.2113 11.284 15.5606 11.3924C16.1075 11.5631 16.542 11.9705 16.7128 12.7463C17.31 15.5201 16.7748 16.7149 16.3556 17.6498C16.049 18.3248 16.1763 18.0368 15.9838 18.5782C15.9136 18.7755 15.8519 18.9612 15.8089 19.1316C15.8548 19.1203 15.9014 19.1126 15.9485 19.1084C16.2007 19.0852 16.4954 19.186 16.7011 19.3334C16.9221 19.4924 17.1005 19.7407 17.2015 20.0162C17.2907 20.2723 17.279 20.5167 17.2751 20.7843C17.248 22.0295 17.2558 23.2593 17.3023 24.2602C17.3488 25.2572 17.4303 26.002 17.5389 26.2813C17.6553 26.5722 17.8416 27.0028 18.1946 27.3016C18.5359 27.5924 19.0636 27.7671 19.9014 27.5885C20.6346 27.4295 21.1311 27.2047 21.457 26.8632C21.7868 26.5256 21.9691 26.0446 22.0855 25.3773C22.1669 24.8885 22.2833 24.0351 22.392 23.1895C22.5238 22.1576 22.6402 21.0987 22.6712 20.7222ZM13.5664 21.3314C14.8426 21.0675 14.9708 20.9086 15.3821 20.3849C15.5293 20.1975 15.6874 20.0187 15.8553 19.8496C15.8953 19.8083 15.9492 19.7833 16.0066 19.7797C16.0996 19.7719 16.2315 19.8224 16.3132 19.8806C16.4218 19.9582 16.5148 20.0901 16.5691 20.2375C16.6195 20.3889 16.6391 20.5751 16.5419 20.7108C16.0647 21.3743 15.4788 21.6534 14.9318 21.7466C14.3772 21.8435 13.8536 21.7466 13.5391 21.669C13.3841 21.6301 13.2056 21.5564 13.0892 21.4749C13.1822 21.4283 13.3377 21.3779 13.5664 21.3314ZM13.1978 18.9029C13.094 18.8144 12.9955 18.7199 12.9029 18.6197C12.4183 18.0882 12.0924 17.3899 12.0187 16.6102C11.9903 16.3247 11.9967 16.0368 12.038 15.7528C12.2009 14.5852 12.1389 13.5338 12.104 12.9868C12.0961 12.8434 12.0883 12.7346 12.0924 12.6494C12.0883 12.6223 11.9993 9.11154 13.997 7.1485C12.1933 6.55496 6.36244 5.13124 6.68071 11.5399C6.72728 12.4748 7.4682 16.2959 8.59327 18.961C8.94598 19.799 9.33808 20.5167 9.75309 20.9783C10.0983 21.3623 10.4513 21.5486 10.7926 21.4244C10.979 21.3584 11.1806 21.2032 11.3941 20.9471C11.974 20.2472 12.5755 19.5654 13.1978 18.9029ZM20.3243 6.45416C22.1515 7.26113 23.2998 8.72348 23.9282 9.87192C24.1214 10.2142 24.285 10.5724 24.4171 10.9426C24.5335 11.2684 24.5761 11.5245 24.5567 11.637C24.5567 11.6486 24.5529 11.6603 24.5529 11.6719C24.5685 12.149 24.5102 12.5408 24.4442 12.9521C24.3976 13.2702 24.3473 13.6 24.3317 13.9879C24.32 14.3565 24.3666 14.7444 24.4171 15.1479C24.5412 16.1759 24.673 17.2698 23.9826 18.4025C23.9943 18.4181 24.006 18.4337 24.0175 18.4454C24.0446 18.4801 24.0719 18.5152 24.099 18.5462C25.2899 16.6724 26.1589 14.6124 26.6554 12.8086C27.2295 10.7332 27.3187 9.04174 26.8455 8.43278C26.027 7.38918 25.0262 6.819 24.029 6.528C22.6131 6.12048 21.2011 6.27564 20.3243 6.45416ZM12.7635 12.6455C12.7635 12.7463 12.7714 12.8473 12.7752 12.948C12.8099 13.5106 12.8761 14.6008 12.7015 15.846C12.6667 16.0865 12.6625 16.3231 12.6859 16.5481C12.7405 17.1509 12.9912 17.7191 13.3997 18.1657C13.7837 18.5885 14.2919 18.8755 14.8507 18.9532C14.9516 18.9688 15.0563 18.9726 15.1572 18.9764C15.2079 18.7711 15.2787 18.5584 15.3597 18.3359C15.4712 18.0293 15.5019 17.9048 15.743 17.3744C16.1233 16.5286 16.6079 15.4503 16.0533 12.8859C15.9486 12.3894 15.6847 12.1333 15.3627 12.0325C15.1185 11.9548 14.8315 11.9548 14.5366 11.9976C14.2263 12.0442 13.9121 12.145 13.6288 12.2575C13.1395 12.4593 12.7672 12.6299 12.7635 12.6455ZM14.7535 12.3662C15.0009 12.3132 15.3376 12.3587 15.5606 12.4787C15.6885 12.5524 15.7583 12.6494 15.7466 12.7541C15.7352 12.8356 15.6536 12.9519 15.5296 13.0373C15.4132 13.1149 15.254 13.1732 15.0834 13.1498H15.0794C14.9127 13.1266 14.7651 13.0295 14.6605 12.9209C14.5592 12.8124 14.496 12.6952 14.5016 12.5944C14.5071 12.4936 14.5808 12.4093 14.7535 12.3662ZM23.8815 11.9007C22.3453 11.7105 21.7518 12.1296 21.6471 12.7852C21.4608 13.9568 22.5238 15.8654 23.0668 16.8391C23.2141 17.0991 23.3229 17.3008 23.3733 17.4209C23.4314 17.5529 23.4897 17.677 23.5517 17.7856C23.955 16.9322 23.8504 16.0555 23.7496 15.2253C23.6991 14.7947 23.6488 14.3757 23.6603 13.9683C23.6759 13.5455 23.7302 13.1925 23.7806 12.8549C23.8312 12.5408 23.8778 12.2381 23.8815 11.9007ZM24.0717 19.6787C24.0212 19.6943 23.963 19.7097 23.9049 19.729C23.6721 19.7951 23.3035 19.8959 23.3423 20.6951C23.3735 20.7261 23.4743 20.7571 23.6256 20.7843C23.8622 20.8348 24.1764 20.8426 24.5101 20.8269C25.092 20.7921 25.7126 20.6678 26.1084 20.4857C26.5158 20.2955 26.8571 20.0666 27.0665 19.8649C26.1925 20.0277 24.8646 20.2774 24.0717 19.6787ZM23.2571 12.3662C23.2688 12.436 23.2105 12.5562 23.1136 12.6572C22.9962 12.7793 22.8599 12.8537 22.7155 12.8699C22.6032 12.8825 22.486 12.8598 22.3688 12.7968C22.2309 12.7202 22.1298 12.6162 22.128 12.5115C22.1268 12.4399 22.1719 12.368 22.2836 12.304C22.3768 12.2536 22.5086 12.2109 22.6561 12.1877C22.8035 12.1682 22.9432 12.1721 23.0479 12.1993C23.1679 12.2266 23.2453 12.2847 23.2571 12.3662ZM24.475 19.2016C24.6302 19.3491 25.154 19.5779 26.9114 19.2132C27.2527 19.1434 27.4932 19.159 27.6484 19.2327C27.8501 19.3296 27.9394 19.4887 27.9238 19.698C27.916 19.8261 27.8579 19.9579 27.7609 20.0939C27.5358 20.4042 27.0199 20.7999 26.3876 21.0948C25.9182 21.312 25.2005 21.4595 24.5448 21.4983C24.1608 21.5176 23.7922 21.502 23.4936 21.4439C23.4199 21.4283 23.3462 21.409 23.2802 21.3897C23.226 21.8823 23.1443 22.5727 23.0552 23.2711C22.9465 24.1479 22.8262 25.0168 22.7449 25.4901C22.6052 26.293 22.3726 26.8828 21.9418 27.3288C21.5111 27.7748 20.9099 28.0581 20.041 28.2444C18.9548 28.4771 18.2409 28.2212 17.76 27.8175C17.2867 27.4179 17.0617 26.8864 16.9181 26.5295C16.7746 26.1766 16.6813 25.3504 16.631 24.2912C16.5962 23.5193 16.5807 22.6076 16.5883 21.6609C16.0995 22.1032 15.5604 22.3204 15.0482 22.4098C14.3696 22.526 13.7488 22.4135 13.3765 22.3204C13.1048 22.2506 12.7672 22.0992 12.5694 21.913C12.453 21.8043 12.3754 21.6765 12.3521 21.5291C12.329 21.3582 12.3793 21.1915 12.5384 21.0442C12.6896 20.9005 12.969 20.7726 13.4343 20.6756C14.4664 20.4623 14.5594 20.3459 14.8541 19.9696C14.93 19.8739 15.0089 19.7808 15.0908 19.6903C15.087 19.6747 15.087 19.6593 15.087 19.6437C14.9767 19.6406 14.8667 19.6315 14.7574 19.6164C14.4069 19.5662 14.068 19.4546 13.7563 19.2868C13.477 19.5817 12.7284 20.3924 11.9096 21.3777C11.6189 21.7307 11.3161 21.948 11.0137 22.0566C10.3737 22.2855 9.78769 22.0178 9.25241 21.4282C8.78707 20.9083 8.36023 20.1285 7.97622 19.2209C6.82014 16.482 6.05991 12.5368 6.00929 11.5708C5.61374 3.6259 13.3685 6.19012 14.602 6.64782C15.3353 6.14744 16.282 5.83711 17.5077 5.85643C18.1013 5.86407 18.656 5.93776 19.1642 6.06207C19.4086 5.99617 19.7538 5.89912 19.7733 5.89133C19.8199 5.87965 19.8741 5.86811 19.9441 5.85254C20.8557 5.63912 22.5238 5.39873 24.2152 5.88743C25.3323 6.20944 26.4535 6.84956 27.373 8.02106C27.9782 8.79687 27.9277 10.7133 27.2993 12.9865C26.7601 14.9421 25.798 17.1921 24.475 19.2016Z"/>
</mask>
<path fill-rule="evenodd" clip-rule="evenodd" d="M22.6712 20.7222C22.6053 19.4499 23.2338 19.221 23.6721 19.0967C23.6256 19.0308 23.5634 18.9532 23.4938 18.864C23.2688 18.5885 22.9854 18.2315 22.7567 17.6769C22.7218 17.5915 22.617 17.4054 22.4813 17.1609C21.9033 16.1251 20.7628 14.0808 20.9878 12.6803C21.1469 11.6834 21.9072 11.0238 23.8042 11.2216C23.8003 11.2023 23.7925 11.1829 23.7849 11.1634C23.6956 10.9074 23.5522 10.5698 23.3426 10.1936C22.5122 8.68469 20.7083 6.57832 17.4962 6.52785C13.6209 6.46195 12.9147 10.3179 12.7868 11.9395C12.9751 11.8232 13.1723 11.722 13.3766 11.637C13.7022 11.5052 14.0708 11.3925 14.4394 11.3343C14.8234 11.2762 15.2113 11.284 15.5606 11.3924C16.1075 11.5631 16.542 11.9705 16.7128 12.7463C17.31 15.5201 16.7748 16.7149 16.3556 17.6498C16.049 18.3248 16.1763 18.0368 15.9838 18.5782C15.9136 18.7755 15.8519 18.9612 15.8089 19.1316C15.8548 19.1203 15.9014 19.1126 15.9485 19.1084C16.2007 19.0852 16.4954 19.186 16.7011 19.3334C16.9221 19.4924 17.1005 19.7407 17.2015 20.0162C17.2907 20.2723 17.279 20.5167 17.2751 20.7843C17.248 22.0295 17.2558 23.2593 17.3023 24.2602C17.3488 25.2572 17.4303 26.002 17.5389 26.2813C17.6553 26.5722 17.8416 27.0028 18.1946 27.3016C18.5359 27.5924 19.0636 27.7671 19.9014 27.5885C20.6346 27.4295 21.1311 27.2047 21.457 26.8632C21.7868 26.5256 21.9691 26.0446 22.0855 25.3773C22.1669 24.8885 22.2833 24.0351 22.392 23.1895C22.5238 22.1576 22.6402 21.0987 22.6712 20.7222ZM13.5664 21.3314C14.8426 21.0675 14.9708 20.9086 15.3821 20.3849C15.5293 20.1975 15.6874 20.0187 15.8553 19.8496C15.8953 19.8083 15.9492 19.7833 16.0066 19.7797C16.0996 19.7719 16.2315 19.8224 16.3132 19.8806C16.4218 19.9582 16.5148 20.0901 16.5691 20.2375C16.6195 20.3889 16.6391 20.5751 16.5419 20.7108C16.0647 21.3743 15.4788 21.6534 14.9318 21.7466C14.3772 21.8435 13.8536 21.7466 13.5391 21.669C13.3841 21.6301 13.2056 21.5564 13.0892 21.4749C13.1822 21.4283 13.3377 21.3779 13.5664 21.3314ZM13.1978 18.9029C13.094 18.8144 12.9955 18.7199 12.9029 18.6197C12.4183 18.0882 12.0924 17.3899 12.0187 16.6102C11.9903 16.3247 11.9967 16.0368 12.038 15.7528C12.2009 14.5852 12.1389 13.5338 12.104 12.9868C12.0961 12.8434 12.0883 12.7346 12.0924 12.6494C12.0883 12.6223 11.9993 9.11154 13.997 7.1485C12.1933 6.55496 6.36244 5.13124 6.68071 11.5399C6.72728 12.4748 7.4682 16.2959 8.59327 18.961C8.94598 19.799 9.33808 20.5167 9.75309 20.9783C10.0983 21.3623 10.4513 21.5486 10.7926 21.4244C10.979 21.3584 11.1806 21.2032 11.3941 20.9471C11.974 20.2472 12.5755 19.5654 13.1978 18.9029ZM20.3243 6.45416C22.1515 7.26113 23.2998 8.72348 23.9282 9.87192C24.1214 10.2142 24.285 10.5724 24.4171 10.9426C24.5335 11.2684 24.5761 11.5245 24.5567 11.637C24.5567 11.6486 24.5529 11.6603 24.5529 11.6719C24.5685 12.149 24.5102 12.5408 24.4442 12.9521C24.3976 13.2702 24.3473 13.6 24.3317 13.9879C24.32 14.3565 24.3666 14.7444 24.4171 15.1479C24.5412 16.1759 24.673 17.2698 23.9826 18.4025C23.9943 18.4181 24.006 18.4337 24.0175 18.4454C24.0446 18.4801 24.0719 18.5152 24.099 18.5462C25.2899 16.6724 26.1589 14.6124 26.6554 12.8086C27.2295 10.7332 27.3187 9.04174 26.8455 8.43278C26.027 7.38918 25.0262 6.819 24.029 6.528C22.6131 6.12048 21.2011 6.27564 20.3243 6.45416ZM12.7635 12.6455C12.7635 12.7463 12.7714 12.8473 12.7752 12.948C12.8099 13.5106 12.8761 14.6008 12.7015 15.846C12.6667 16.0865 12.6625 16.3231 12.6859 16.5481C12.7405 17.1509 12.9912 17.7191 13.3997 18.1657C13.7837 18.5885 14.2919 18.8755 14.8507 18.9532C14.9516 18.9688 15.0563 18.9726 15.1572 18.9764C15.2079 18.7711 15.2787 18.5584 15.3597 18.3359C15.4712 18.0293 15.5019 17.9048 15.743 17.3744C16.1233 16.5286 16.6079 15.4503 16.0533 12.8859C15.9486 12.3894 15.6847 12.1333 15.3627 12.0325C15.1185 11.9548 14.8315 11.9548 14.5366 11.9976C14.2263 12.0442 13.9121 12.145 13.6288 12.2575C13.1395 12.4593 12.7672 12.6299 12.7635 12.6455ZM14.7535 12.3662C15.0009 12.3132 15.3376 12.3587 15.5606 12.4787C15.6885 12.5524 15.7583 12.6494 15.7466 12.7541C15.7352 12.8356 15.6536 12.9519 15.5296 13.0373C15.4132 13.1149 15.254 13.1732 15.0834 13.1498H15.0794C14.9127 13.1266 14.7651 13.0295 14.6605 12.9209C14.5592 12.8124 14.496 12.6952 14.5016 12.5944C14.5071 12.4936 14.5808 12.4093 14.7535 12.3662ZM23.8815 11.9007C22.3453 11.7105 21.7518 12.1296 21.6471 12.7852C21.4608 13.9568 22.5238 15.8654 23.0668 16.8391C23.2141 17.0991 23.3229 17.3008 23.3733 17.4209C23.4314 17.5529 23.4897 17.677 23.5517 17.7856C23.955 16.9322 23.8504 16.0555 23.7496 15.2253C23.6991 14.7947 23.6488 14.3757 23.6603 13.9683C23.6759 13.5455 23.7302 13.1925 23.7806 12.8549C23.8312 12.5408 23.8778 12.2381 23.8815 11.9007ZM24.0717 19.6787C24.0212 19.6943 23.963 19.7097 23.9049 19.729C23.6721 19.7951 23.3035 19.8959 23.3423 20.6951C23.3735 20.7261 23.4743 20.7571 23.6256 20.7843C23.8622 20.8348 24.1764 20.8426 24.5101 20.8269C25.092 20.7921 25.7126 20.6678 26.1084 20.4857C26.5158 20.2955 26.8571 20.0666 27.0665 19.8649C26.1925 20.0277 24.8646 20.2774 24.0717 19.6787ZM23.2571 12.3662C23.2688 12.436 23.2105 12.5562 23.1136 12.6572C22.9962 12.7793 22.8599 12.8537 22.7155 12.8699C22.6032 12.8825 22.486 12.8598 22.3688 12.7968C22.2309 12.7202 22.1298 12.6162 22.128 12.5115C22.1268 12.4399 22.1719 12.368 22.2836 12.304C22.3768 12.2536 22.5086 12.2109 22.6561 12.1877C22.8035 12.1682 22.9432 12.1721 23.0479 12.1993C23.1679 12.2266 23.2453 12.2847 23.2571 12.3662ZM24.475 19.2016C24.6302 19.3491 25.154 19.5779 26.9114 19.2132C27.2527 19.1434 27.4932 19.159 27.6484 19.2327C27.8501 19.3296 27.9394 19.4887 27.9238 19.698C27.916 19.8261 27.8579 19.9579 27.7609 20.0939C27.5358 20.4042 27.0199 20.7999 26.3876 21.0948C25.9182 21.312 25.2005 21.4595 24.5448 21.4983C24.1608 21.5176 23.7922 21.502 23.4936 21.4439C23.4199 21.4283 23.3462 21.409 23.2802 21.3897C23.226 21.8823 23.1443 22.5727 23.0552 23.2711C22.9465 24.1479 22.8262 25.0168 22.7449 25.4901C22.6052 26.293 22.3726 26.8828 21.9418 27.3288C21.5111 27.7748 20.9099 28.0581 20.041 28.2444C18.9548 28.4771 18.2409 28.2212 17.76 27.8175C17.2867 27.4179 17.0617 26.8864 16.9181 26.5295C16.7746 26.1766 16.6813 25.3504 16.631 24.2912C16.5962 23.5193 16.5807 22.6076 16.5883 21.6609C16.0995 22.1032 15.5604 22.3204 15.0482 22.4098C14.3696 22.526 13.7488 22.4135 13.3765 22.3204C13.1048 22.2506 12.7672 22.0992 12.5694 21.913C12.453 21.8043 12.3754 21.6765 12.3521 21.5291C12.329 21.3582 12.3793 21.1915 12.5384 21.0442C12.6896 20.9005 12.969 20.7726 13.4343 20.6756C14.4664 20.4623 14.5594 20.3459 14.8541 19.9696C14.93 19.8739 15.0089 19.7808 15.0908 19.6903C15.087 19.6747 15.087 19.6593 15.087 19.6437C14.9767 19.6406 14.8667 19.6315 14.7574 19.6164C14.4069 19.5662 14.068 19.4546 13.7563 19.2868C13.477 19.5817 12.7284 20.3924 11.9096 21.3777C11.6189 21.7307 11.3161 21.948 11.0137 22.0566C10.3737 22.2855 9.78769 22.0178 9.25241 21.4282C8.78707 20.9083 8.36023 20.1285 7.97622 19.2209C6.82014 16.482 6.05991 12.5368 6.00929 11.5708C5.61374 3.6259 13.3685 6.19012 14.602 6.64782C15.3353 6.14744 16.282 5.83711 17.5077 5.85643C18.1013 5.86407 18.656 5.93776 19.1642 6.06207C19.4086 5.99617 19.7538 5.89912 19.7733 5.89133C19.8199 5.87965 19.8741 5.86811 19.9441 5.85254C20.8557 5.63912 22.5238 5.39873 24.2152 5.88743C25.3323 6.20944 26.4535 6.84956 27.373 8.02106C27.9782 8.79687 27.9277 10.7133 27.2993 12.9865C26.7601 14.9421 25.798 17.1921 24.475 19.2016Z" stroke="#1C1B1F" stroke-width="2" mask="url(#path-1-inside-1_7291_2400)"/>
</svg>
