<svg width="33" height="32" viewBox="0 0 33 32" fill="none" xmlns="http://www.w3.org/2000/svg">
<path fill-rule="evenodd" clip-rule="evenodd" d="M16.5 0.000915527C17.0523 0.000915527 17.5 0.448631 17.5 1.00092V3.60071H30.899C31.4513 3.60071 31.899 4.04842 31.899 4.60071V24.9994C31.899 25.5517 31.4513 25.9994 30.899 25.9994H23.3802L26.8801 30.3744C27.2251 30.8056 27.1552 31.4349 26.7239 31.7799C26.2927 32.1249 25.6634 32.055 25.3184 31.6238L20.8189 25.9994H12.1808L7.68138 31.6238C7.33637 32.055 6.70708 32.1249 6.27581 31.7799C5.84455 31.4349 5.77463 30.8056 6.11964 30.3744L9.61959 25.9994H2.10083C1.54855 25.9994 1.10083 25.5517 1.10083 24.9994V4.60071C1.10083 4.04842 1.54855 3.60071 2.10083 3.60071H15.5V1.00092C15.5 0.448631 15.9477 0.000915527 16.5 0.000915527ZM11.7085 23.9994C11.7034 23.9994 11.6983 23.9994 11.6932 23.9994H3.10083V5.60071H29.899V23.9994H21.3065C21.3015 23.9994 21.2964 23.9994 21.2913 23.9994H11.7085ZM22.2995 10.6003C22.2995 10.048 21.8518 9.60027 21.2995 9.60027C20.7473 9.60027 20.2995 10.048 20.2995 10.6003V18.9997C20.2995 19.552 20.7473 19.9997 21.2995 19.9997C21.8518 19.9997 22.2995 19.552 22.2995 18.9997V10.6003ZM16.5 12.0001C17.0523 12.0001 17.5 12.4478 17.5 13.0001V18.9997C17.5 19.552 17.0523 19.9997 16.5 19.9997C15.9477 19.9997 15.5 19.552 15.5 18.9997V13.0001C15.5 12.4478 15.9477 12.0001 16.5 12.0001ZM12.7003 15.4001C12.7003 14.8478 12.2526 14.4001 11.7003 14.4001C11.148 14.4001 10.7003 14.8478 10.7003 15.4001V18.9998C10.7003 19.5521 11.148 19.9998 11.7003 19.9998C12.2526 19.9998 12.7003 19.5521 12.7003 18.9998V15.4001Z" fill="#111827"/>
</svg>
