<svg width="33" height="32" viewBox="0 0 33 32" fill="none" xmlns="http://www.w3.org/2000/svg">
<path fill-rule="evenodd" clip-rule="evenodd" d="M16.5 0.000915527C17.0523 0.000915527 17.5 0.448631 17.5 1.00092V3.60071H30.899C31.4513 3.60071 31.899 4.04842 31.899 4.60071V24.9994C31.899 25.5517 31.4513 25.9994 30.899 25.9994H23.3802L26.8801 30.3744C27.2251 30.8056 27.1552 31.4349 26.7239 31.7799C26.2927 32.1249 25.6634 32.055 25.3184 31.6238L20.8189 25.9994H12.1808L7.68138 31.6238C7.33637 32.055 6.70708 32.1249 6.27581 31.7799C5.84455 31.4349 5.77463 30.8056 6.11964 30.3744L9.61959 25.9994H2.10083C1.54855 25.9994 1.10083 25.5517 1.10083 24.9994V4.60071C1.10083 4.04842 1.54855 3.60071 2.10083 3.60071H15.5V1.00092C15.5 0.448631 15.9477 0.000915527 16.5 0.000915527ZM11.7085 23.9994C11.7034 23.9994 11.6983 23.9994 11.6932 23.9994H3.10083V5.60071H29.899V23.9994H21.3065C21.3015 23.9994 21.2964 23.9994 21.2913 23.9994H11.7085Z" fill="#111827"/>
</svg>
