<svg width="33" height="32" viewBox="0 0 33 32" fill="none" xmlns="http://www.w3.org/2000/svg">
<path fill-rule="evenodd" clip-rule="evenodd" d="M7.11266 1.99939C6.52303 1.99939 6.04504 2.47738 6.04504 3.06701V16V25.5751C6.04504 26.1274 6.49276 26.5751 7.04504 26.5751C7.59733 26.5751 8.04504 26.1274 8.04504 25.5751V17H12.5403L20.4044 24.8641L16.9749 28.2935C16.5844 28.6841 16.5844 29.3172 16.9749 29.7078C17.3654 30.0983 17.9986 30.0983 18.3891 29.7078L21.8186 26.2783L25.248 29.7077C25.6386 30.0983 26.2717 30.0983 26.6622 29.7077C27.0528 29.3172 27.0528 28.6841 26.6622 28.2935L23.2328 24.8641L26.6622 21.4346C27.0527 21.0441 27.0527 20.4109 26.6622 20.0204C26.2717 19.6299 25.6385 19.6299 25.248 20.0204L21.8186 23.4499L15.2818 16.9131C18.8804 16.3616 21.6366 13.2525 21.6366 9.4997C21.6366 5.35739 18.2786 1.99939 14.1363 1.99939H7.11266ZM14.1363 15H8.04504V3.99939H14.1363C17.174 3.99939 19.6366 6.46196 19.6366 9.4997C19.6366 12.5374 17.174 15 14.1363 15Z" fill="#111827"/>
</svg>
