<svg width="33" height="32" viewBox="0 0 33 32" fill="none" xmlns="http://www.w3.org/2000/svg">
<path fill-rule="evenodd" clip-rule="evenodd" d="M5.90045 4.37134C5.90045 3.81905 6.34816 3.37134 6.90045 3.37134H26.0993C26.6516 3.37134 27.0993 3.81905 27.0993 4.37134V9.3709H31.499C32.0513 9.3709 32.499 9.81862 32.499 10.3709V24.77C32.499 25.3223 32.0513 25.77 31.499 25.77H27.0993V27.6287C27.0993 28.181 26.6516 28.6287 26.0993 28.6287H6.90045C6.34816 28.6287 5.90045 28.181 5.90045 27.6287V25.77H1.50085C0.94857 25.77 0.500854 25.3223 0.500854 24.77V10.3709C0.500854 9.81862 0.94857 9.3709 1.50085 9.3709H5.90045V4.37134ZM5.90045 23.77V21.1703C5.90045 20.618 6.34816 20.1703 6.90045 20.1703H26.0993C26.6516 20.1703 27.0993 20.618 27.0993 21.1703V23.77H30.499V11.3709H26.1109L26.0993 11.371H6.90045L6.88877 11.3709H2.50085V23.77H5.90045ZM25.0993 5.37134V9.3709H7.90045V5.37134H25.0993ZM27.3003 15.7706C27.3003 16.7646 26.4944 17.5705 25.5004 17.5705C24.5063 17.5705 23.7005 16.7646 23.7005 15.7706C23.7005 14.7765 24.5063 13.9707 25.5004 13.9707C26.4944 13.9707 27.3003 14.7765 27.3003 15.7706ZM7.90045 26.6287V22.1703H25.0993V26.6287H7.90045Z" fill="#111827"/>
</svg>
