<svg width="33" height="32" viewBox="0 0 33 32" fill="none" xmlns="http://www.w3.org/2000/svg">
<path fill-rule="evenodd" clip-rule="evenodd" d="M2.5 15.9997C2.5 8.26763 8.76812 1.99951 16.5002 1.99951C24.2323 1.99951 30.5005 8.26763 30.5005 15.9997C30.5005 23.7319 24.2323 30 16.5002 30C8.76812 30 2.5 23.7319 2.5 15.9997ZM16.5002 -0.000488281C7.66355 -0.000488281 0.5 7.16306 0.5 15.9997C0.5 24.8364 7.66355 32 16.5002 32C25.3369 32 32.5005 24.8364 32.5005 15.9997C32.5005 7.16306 25.3369 -0.000488281 16.5002 -0.000488281ZM14.2498 11.4993H18.4995C19.7427 11.4993 20.7496 12.5071 20.7496 13.7494C20.7496 14.9916 19.7427 15.9994 18.4995 15.9994H14.2498V11.4993ZM14.2498 18.9994H18.4995C21.3993 18.9994 23.7496 16.6491 23.7496 13.7494C23.7496 10.8496 21.3993 8.49927 18.4995 8.49927H11.2497V23.4995H14.2498V18.9994Z" fill="#111827"/>
</svg>
