<svg width="33" height="32" viewBox="0 0 33 32" fill="none" xmlns="http://www.w3.org/2000/svg">
<path fill-rule="evenodd" clip-rule="evenodd" d="M7.33353 5.41882C9.78946 3.28938 12.9942 2.00073 16.4999 2.00073C24.2314 2.00073 30.499 8.26834 30.499 15.9998C30.499 19.5055 29.2104 22.7103 27.0809 25.1662L7.33353 5.41882ZM5.18269 4.69095C2.28989 7.58588 0.500854 11.5839 0.500854 15.9998C0.500854 24.8359 7.66389 31.9989 16.4999 31.9989C25.336 31.9989 32.499 24.8359 32.499 15.9998C32.499 7.16377 25.336 0.000732422 16.4999 0.000732422C12.0842 0.000732422 8.08636 1.7896 5.19146 4.68217C5.18999 4.68363 5.18852 4.68509 5.18705 4.68656C5.18559 4.68802 5.18413 4.68948 5.18269 4.69095ZM5.91929 6.83301L25.6667 26.5805C23.2108 28.7101 20.0059 29.9989 16.4999 29.9989C8.76846 29.9989 2.50085 23.7313 2.50085 15.9998C2.50085 12.4939 3.78964 9.28899 5.91929 6.83301Z" fill="#111827"/>
</svg>
