<svg width="33" height="32" viewBox="0 0 33 32" fill="none" xmlns="http://www.w3.org/2000/svg">
<path fill-rule="evenodd" clip-rule="evenodd" d="M2.50085 15.9998C2.50085 8.26834 8.76846 2.00073 16.4999 2.00073C24.2314 2.00073 30.499 8.26834 30.499 15.9998C30.499 23.7313 24.2314 29.9989 16.4999 29.9989C8.76846 29.9989 2.50085 23.7313 2.50085 15.9998ZM16.4999 0.000732422C7.66389 0.000732422 0.500854 7.16377 0.500854 15.9998C0.500854 24.8359 7.66389 31.9989 16.4999 31.9989C25.336 31.9989 32.499 24.8359 32.499 15.9998C32.499 7.16377 25.336 0.000732422 16.4999 0.000732422ZM12.788 10.8736C12.3974 10.4831 11.7643 10.4831 11.3737 10.8736C10.9832 11.2641 10.9832 11.8973 11.3737 12.2878L20.212 21.1261C20.6026 21.5167 21.2357 21.5167 21.6262 21.1261C22.0168 20.7356 22.0168 20.1024 21.6262 19.7119L12.788 10.8736Z" fill="#111827"/>
</svg>
