<svg width="33" height="32" viewBox="0 0 33 32" fill="none" xmlns="http://www.w3.org/2000/svg">
<path fill-rule="evenodd" clip-rule="evenodd" d="M2.65466 0.000915527C2.10238 0.000915527 1.65466 0.448631 1.65466 1.00092V5.61602C1.65466 6.16831 2.10238 6.61602 2.65466 6.61602H3.96225V20.7689H2.65466C2.10238 20.7689 1.65466 21.2166 1.65466 21.7689C1.65466 22.3212 2.10238 22.7689 2.65466 22.7689H4.95388L4.96225 22.7689H15.5V25.5378C14.162 25.9617 13.1924 27.2134 13.1924 28.6915C13.1924 30.5183 14.6732 31.9991 16.4999 31.9991C18.3266 31.9991 19.8075 30.5183 19.8075 28.6915C19.8075 27.2134 18.8379 25.9617 17.5 25.5379V22.7689H28.0378L28.0462 22.7689H30.3453C30.8976 22.7689 31.3453 22.3212 31.3453 21.7689C31.3453 21.2166 30.8976 20.7689 30.3453 20.7689H29.0378V6.61602H30.3453C30.8976 6.61602 31.3453 6.16831 31.3453 5.61602V1.00092C31.3453 0.448631 30.8976 0.000915527 30.3453 0.000915527H2.65466ZM3.65466 4.61602V2.00092H29.3453V4.61602H3.65466ZM27.0378 6.61604V20.7689H16.5H5.96225V6.61604H27.0378ZM21.4997 10.0003C22.0519 10.0003 22.4997 10.448 22.4997 11.0003V16C22.4997 16.5523 22.0519 17 21.4997 17C20.9474 17 20.4997 16.5523 20.4997 16V11.0003C20.4997 10.448 20.9474 10.0003 21.4997 10.0003ZM17.5 12.2502C17.5 11.6979 17.0523 11.2502 16.5 11.2502C15.9477 11.2502 15.5 11.6979 15.5 12.2502V16C15.5 16.5523 15.9477 17 16.5 17C17.0523 17 17.5 16.5523 17.5 16V12.2502ZM12.5002 13.5001C12.5002 12.9479 12.0525 12.5001 11.5002 12.5001C10.9479 12.5001 10.5002 12.9479 10.5002 13.5001V16C10.5002 16.5523 10.9479 17 11.5002 17C12.0525 17 12.5002 16.5523 12.5002 16V13.5001ZM16.4999 27.384C15.7778 27.384 15.1924 27.9694 15.1924 28.6915C15.1924 29.4137 15.7778 29.9991 16.4999 29.9991C17.2221 29.9991 17.8075 29.4137 17.8075 28.6915C17.8075 27.9694 17.2221 27.384 16.4999 27.384Z" fill="#111827"/>
</svg>
