<svg width="29" height="32" viewBox="0 0 29 32" fill="none" xmlns="http://www.w3.org/2000/svg">
<path fill-rule="evenodd" clip-rule="evenodd" d="M14.4813 4.30392C15.6698 4.30392 16.6333 3.34045 16.6333 2.15196C16.6333 0.963464 15.6698 0 14.4813 0C13.2928 0 12.3293 0.963464 12.3293 2.15196C12.3293 3.34045 13.2928 4.30392 14.4813 4.30392ZM14.4813 32C15.6698 32 16.6333 31.0365 16.6333 29.848C16.6333 28.6595 15.6698 27.696 14.4813 27.696C13.2928 27.696 12.3293 28.6595 12.3293 29.848C12.3293 31.0365 13.2928 32 14.4813 32ZM28.6577 9.05064C28.6577 10.2391 27.6942 11.2026 26.5057 11.2026C25.3172 11.2026 24.3538 10.2391 24.3538 9.05064C24.3538 7.86215 25.3172 6.89868 26.5057 6.89868C27.6942 6.89868 28.6577 7.86215 28.6577 9.05064ZM2.49424 11.2026C3.68274 11.2026 4.6462 10.2391 4.6462 9.05064C4.6462 7.86215 3.68274 6.89868 2.49424 6.89868C1.30575 6.89868 0.342285 7.86215 0.342285 9.05064C0.342285 10.2391 1.30575 11.2026 2.49424 11.2026ZM28.6577 22.8985C28.6577 24.087 27.6942 25.0505 26.5057 25.0505C25.3172 25.0505 24.3538 24.087 24.3538 22.8985C24.3538 21.71 25.3172 20.7466 26.5057 20.7466C27.6942 20.7466 28.6577 21.71 28.6577 22.8985ZM2.49424 25.0505C3.68274 25.0505 4.6462 24.087 4.6462 22.8985C4.6462 21.71 3.68274 20.7466 2.49424 20.7466C1.30575 20.7466 0.342285 21.71 0.342285 22.8985C0.342285 24.087 1.30575 25.0505 2.49424 25.0505ZM16.6011 4.58651C17.1075 4.14521 17.475 3.54847 17.6291 2.87064L24.2815 6.71139C23.7961 7.17311 23.4542 7.78436 23.3297 8.4713L16.6011 4.58651ZM25.5058 19.8285C25.8207 19.726 26.1568 19.6706 26.5058 19.6706C26.8549 19.6706 27.191 19.726 27.5058 19.8285V12.1206C27.191 12.2231 26.8549 12.2785 26.5058 12.2785C26.1568 12.2785 25.8207 12.2231 25.5058 12.1206V19.8285ZM11.3005 29.296C11.4192 28.6072 11.7562 27.9932 12.2376 27.5276L5.62023 23.707C5.44691 24.3791 5.06257 24.9664 4.54208 25.394L11.3005 29.296ZM24.4426 25.3811L17.6623 29.2957C17.5436 28.607 17.2066 27.9929 16.7251 27.5274L23.3751 23.688C23.5444 24.3613 23.9251 24.9505 24.4426 25.3811ZM2.49437 19.6706C2.13131 19.6706 1.78225 19.7306 1.45654 19.8411V12.1081C1.78225 12.2186 2.13131 12.2785 2.49437 12.2785C2.82947 12.2785 3.15265 12.2275 3.45654 12.1327V19.8164C3.15265 19.7217 2.82947 19.6706 2.49437 19.6706ZM12.3616 4.58632L5.66683 8.45156C5.53817 7.76592 5.19273 7.15671 4.70439 6.69782L11.3337 2.87036C11.4878 3.54821 11.8552 4.14498 12.3616 4.58632ZM14.6488 8.22743C14.3454 8.05765 13.9756 8.05765 13.6721 8.22743L7.16988 11.8659C6.85392 12.0427 6.6582 12.3765 6.6582 12.7386V20.0138C6.6582 20.3758 6.85392 20.7096 7.16988 20.8864L13.6721 24.5249C13.9756 24.6947 14.3454 24.6947 14.6488 24.5249L21.151 20.8864C21.467 20.7096 21.6627 20.3758 21.6627 20.0138V12.7608C21.6651 12.6536 21.6503 12.5451 21.617 12.4397C21.5417 12.1995 21.3772 11.9925 21.151 11.8659L14.6488 8.22743ZM18.6275 12.7456L14.1605 10.246L9.74717 12.7156L14.2579 15.228L18.6275 12.7456ZM8.6582 14.3984V19.4274L13.2329 21.9873V16.9464L8.6582 14.3984ZM19.6627 19.4274L15.2329 21.9063V16.9744L19.6627 14.4577V19.4274Z" fill="#111827"/>
</svg>
