<svg width="29" height="32" viewBox="0 0 29 32" fill="none" xmlns="http://www.w3.org/2000/svg">
<path fill-rule="evenodd" clip-rule="evenodd" d="M14.639 4.30392C15.8275 4.30392 16.791 3.34045 16.791 2.15196C16.791 0.963464 15.8275 0 14.639 0C13.4505 0 12.4871 0.963464 12.4871 2.15196C12.4871 3.34045 13.4505 4.30392 14.639 4.30392ZM14.639 32C15.8275 32 16.791 31.0365 16.791 29.848C16.791 28.6595 15.8275 27.696 14.639 27.696C13.4505 27.696 12.4871 28.6595 12.4871 29.848C12.4871 31.0365 13.4505 32 14.639 32ZM28.8154 9.05064C28.8154 10.2391 27.8519 11.2026 26.6634 11.2026C25.4749 11.2026 24.5115 10.2391 24.5115 9.05064C24.5115 7.86215 25.4749 6.89868 26.6634 6.89868C27.8519 6.89868 28.8154 7.86215 28.8154 9.05064ZM2.65196 11.2026C3.84045 11.2026 4.80392 10.2391 4.80392 9.05064C4.80392 7.86215 3.84045 6.89868 2.65196 6.89868C1.46346 6.89868 0.5 7.86215 0.5 9.05064C0.5 10.2391 1.46346 11.2026 2.65196 11.2026ZM28.8154 22.8985C28.8154 24.087 27.8519 25.0505 26.6634 25.0505C25.4749 25.0505 24.5115 24.087 24.5115 22.8985C24.5115 21.71 25.4749 20.7466 26.6634 20.7466C27.8519 20.7466 28.8154 21.71 28.8154 22.8985ZM2.65196 25.0505C3.84045 25.0505 4.80392 24.087 4.80392 22.8985C4.80392 21.71 3.84045 20.7466 2.65196 20.7466C1.46346 20.7466 0.5 21.71 0.5 22.8985C0.5 24.087 1.46346 25.0505 2.65196 25.0505ZM16.7588 4.58651C17.2652 4.14521 17.6327 3.54847 17.7868 2.87064L24.4392 6.71139C23.9538 7.17311 23.6119 7.78436 23.4874 8.4713L16.7588 4.58651ZM25.6635 19.8285C25.9784 19.726 26.3145 19.6706 26.6635 19.6706C27.0126 19.6706 27.3487 19.726 27.6635 19.8285V12.1206C27.3487 12.2231 27.0126 12.2785 26.6635 12.2785C26.3145 12.2785 25.9784 12.2231 25.6635 12.1206V19.8285ZM11.4583 29.296C11.5769 28.6072 11.9139 27.9932 12.3953 27.5276L5.77794 23.707C5.60462 24.3791 5.22028 24.9664 4.6998 25.394L11.4583 29.296ZM24.6003 25.3811L17.82 29.2957C17.7013 28.607 17.3643 27.9929 16.8828 27.5274L23.5328 23.688C23.7021 24.3613 24.0828 24.9505 24.6003 25.3811ZM2.65209 19.6706C2.28902 19.6706 1.93996 19.7306 1.61426 19.8411V12.1081C1.93996 12.2186 2.28902 12.2785 2.65209 12.2785C2.98719 12.2785 3.31036 12.2275 3.61426 12.1327V19.8164C3.31036 19.7217 2.98719 19.6706 2.65209 19.6706ZM12.5193 4.58632L5.82455 8.45156C5.69588 7.76592 5.35044 7.15671 4.86211 6.69782L11.4915 2.87036C11.6455 3.54821 12.0129 4.14498 12.5193 4.58632ZM14.8065 8.22743C14.5031 8.05765 14.1333 8.05765 13.8299 8.22743L7.3276 11.8659C7.01163 12.0427 6.81592 12.3765 6.81592 12.7386V20.0138C6.81592 20.3758 7.01163 20.7096 7.3276 20.8864L13.8299 24.5249C14.1333 24.6947 14.5031 24.6947 14.8065 24.5249L21.3088 20.8864C21.6247 20.7096 21.8204 20.3758 21.8204 20.0138V12.7608C21.8228 12.6536 21.808 12.5451 21.7747 12.4397C21.6995 12.1995 21.5349 11.9925 21.3088 11.8659L14.8065 8.22743ZM18.7852 12.7456L14.3182 10.246L9.90489 12.7156L14.4156 15.228L18.7852 12.7456ZM8.81592 14.3984V19.4274L13.3906 21.9873V16.9464L8.81592 14.3984ZM19.8204 19.4274L15.3906 21.9063V16.9744L19.8204 14.4577V19.4274Z" fill="#111827"/>
</svg>
