<svg width="33" height="32" viewBox="0 0 33 32" fill="none" xmlns="http://www.w3.org/2000/svg">
<path fill-rule="evenodd" clip-rule="evenodd" d="M2.65466 0.000915527C2.10238 0.000915527 1.65466 0.448631 1.65466 1.00092V5.61602C1.65466 6.16831 2.10238 6.61602 2.65466 6.61602H3.96219V20.7689H2.65466C2.10238 20.7689 1.65466 21.2166 1.65466 21.7689C1.65466 22.3212 2.10238 22.7689 2.65466 22.7689H4.95382L4.96219 22.7689H15.5V25.5378C14.162 25.9616 13.1923 27.2134 13.1923 28.6915C13.1923 30.5183 14.6732 31.9991 16.4999 31.9991C18.3266 31.9991 19.8074 30.5183 19.8074 28.6915C19.8074 27.2134 18.8378 25.9618 17.5 25.5379V22.7689H28.0377L28.0461 22.7689H30.3453C30.8976 22.7689 31.3453 22.3212 31.3453 21.7689C31.3453 21.2166 30.8976 20.7689 30.3453 20.7689H29.0377V6.61602H30.3453C30.8976 6.61602 31.3453 6.16831 31.3453 5.61602V1.00092C31.3453 0.448631 30.8976 0.000915527 30.3453 0.000915527H2.65466ZM3.65466 4.61602V2.00092H29.3453V4.61602H3.65466ZM27.0377 6.61604V20.7689H16.5H5.96219V6.61604H27.0377ZM16.4999 27.384C15.7777 27.384 15.1923 27.9694 15.1923 28.6915C15.1923 29.4137 15.7777 29.9991 16.4999 29.9991C17.222 29.9991 17.8074 29.4137 17.8074 28.6915C17.8074 27.9694 17.222 27.384 16.4999 27.384Z" fill="#111827"/>
</svg>
