<svg width="33" height="32" viewBox="0 0 33 32" fill="none" xmlns="http://www.w3.org/2000/svg">
<path fill-rule="evenodd" clip-rule="evenodd" d="M20.3512 0.293717C20.7418 -0.0966849 21.3748 -0.0966849 21.7653 0.293717L32.2061 10.7318C32.3937 10.9194 32.4991 11.1738 32.4991 11.439C32.4991 11.7043 32.3937 11.9587 32.2061 12.1462L25.9543 18.3963C25.5638 18.7868 24.9306 18.7867 24.5401 18.3962C24.1497 18.0056 24.1497 17.3724 24.5403 16.9819L30.0847 11.439L21.0583 2.41495L15.7801 7.69178C15.3895 8.08225 14.7563 8.08217 14.3658 7.6916C13.9754 7.30102 13.9755 6.66786 14.366 6.27738L20.3512 0.293717ZM10.4338 11.7901C8.51037 10.359 5.77605 10.5171 4.03027 12.2624L2.91531 13.3771L19.1275 29.5851L20.2428 28.47C21.9854 26.7279 22.146 24.0014 20.7229 22.0792L10.4338 11.7901ZM7.46728 8.82358C5.71057 8.833 3.95689 9.50771 2.61624 10.848L0.793901 12.6699C0.606308 12.8574 0.500916 13.1118 0.500916 13.3771C0.500916 13.6423 0.606308 13.8967 0.793901 14.0843L8.55798 21.8463L2.95127 27.4516C2.56069 27.8421 2.56061 28.4752 2.95109 28.8658C3.34156 29.2564 3.97472 29.2565 4.3653 28.866L9.97238 23.2604L18.4205 31.7063C18.811 32.0967 19.444 32.0967 19.8345 31.7063L21.6569 29.8844C22.9966 28.5451 23.6715 26.7933 23.6819 25.0382L29.0642 30.4205C29.4547 30.811 30.0879 30.811 30.4784 30.4205C30.8689 30.03 30.8689 29.3968 30.4784 29.0063L3.93581 2.46368C3.54528 2.07315 2.91212 2.07315 2.52159 2.46368C2.13107 2.8542 2.13107 3.48737 2.52159 3.87789L7.46728 8.82358Z" fill="#111827"/>
</svg>
