<svg width="33" height="32" viewBox="0 0 33 32" fill="none" xmlns="http://www.w3.org/2000/svg">
<path fill-rule="evenodd" clip-rule="evenodd" d="M23.6824 0.00108286H9.31754C9.30533 0.0008592 9.29316 0.000860301 9.28102 0.00108286H6.90051C6.34823 0.00108286 5.90051 0.448798 5.90051 1.00108C5.90051 1.55337 6.34823 2.00108 6.90051 2.00108H8.10852L4.86171 20.3997H3.30078C2.7485 20.3997 2.30078 20.8474 2.30078 21.3997C2.30078 21.952 2.7485 22.3997 3.30078 22.3997H5.682C5.69528 22.4 5.70851 22.4 5.7217 22.3997H15.5V30.9991C15.5 31.5514 15.9477 31.9991 16.5 31.9991C17.0523 31.9991 17.5 31.5514 17.5 30.9991V22.3997H27.2782C27.2914 22.4 27.3046 22.4 27.3179 22.3997H29.699C30.2513 22.3997 30.699 21.952 30.699 21.3997C30.699 20.8474 30.2513 20.3997 29.699 20.3997H28.1382L24.8914 2.00108H26.0992C26.6515 2.00108 27.0992 1.55337 27.0992 1.00108C27.0992 0.448798 26.6515 0.00108286 26.0992 0.00108286H23.7189C23.7068 0.000860301 23.6946 0.0008592 23.6824 0.00108286ZM22.8605 2.00108H10.1394L6.89261 20.3997H16.5H26.1073L22.8605 2.00108Z" fill="#111827"/>
</svg>
