<svg width="33" height="32" viewBox="0 0 33 32" fill="none" xmlns="http://www.w3.org/2000/svg">
<path fill-rule="evenodd" clip-rule="evenodd" d="M23.4605 2.00108H11.5871C11.0348 2.00108 10.5871 1.55337 10.5871 1.00108C10.5871 0.448798 11.0348 0.00108286 11.5871 0.00108286H24.2823C24.2946 0.0008592 24.3067 0.000860301 24.3189 0.00108286H26.6992C27.2515 0.00108286 27.6992 0.448798 27.6992 1.00108C27.6992 1.55337 27.2515 2.00108 26.6992 2.00108H25.4914L28.3463 18.179C28.4423 18.7229 28.0792 19.2416 27.5353 19.3376C26.9914 19.4336 26.4727 19.0705 26.3767 18.5266L23.4605 2.00108ZM4.42816 0.261143C4.83681 -0.110364 5.46926 -0.0802476 5.84077 0.32841L29.8392 26.7267C30.2107 27.1353 30.1806 27.7678 29.7719 28.1393C29.3633 28.5108 28.7308 28.4807 28.3593 28.072L23.2027 22.3997H18.1V30.9991C18.1 31.5514 17.6523 31.9991 17.1 31.9991C16.5477 31.9991 16.1 31.5514 16.1 30.9991V22.3997H6.32294C6.30891 22.4 6.29483 22.4 6.2807 22.3997H3.90076C3.34847 22.3997 2.90076 21.952 2.90076 21.3997C2.90076 20.8474 3.34847 20.3997 3.90076 20.3997H5.46169L8.05012 5.73191L4.36089 1.67376C3.98938 1.2651 4.0195 0.63265 4.42816 0.261143ZM9.75088 7.60274L7.49259 20.3997H17.1H21.3845L9.75088 7.60274Z" fill="#111827"/>
</svg>
