<svg width="33" height="32" viewBox="0 0 33 32" fill="none" xmlns="http://www.w3.org/2000/svg">
<path fill-rule="evenodd" clip-rule="evenodd" d="M21.7653 0.293717C21.3748 -0.0966849 20.7418 -0.0966849 20.3512 0.293717L10.9193 9.72319C8.28056 8.22383 4.86655 8.59828 2.61624 10.848L0.793901 12.6699C0.606308 12.8574 0.500916 13.1118 0.500916 13.3771C0.500916 13.6423 0.606308 13.8967 0.793901 14.0843L8.55798 21.8463L2.95127 27.4516C2.56069 27.8421 2.56061 28.4752 2.95109 28.8658C3.34156 29.2564 3.97472 29.2565 4.3653 28.866L9.97238 23.2604L18.4205 31.7063C18.811 32.0967 19.444 32.0967 19.8345 31.7063L21.6569 29.8844C23.91 27.6319 24.2828 24.2129 22.7766 21.5733L32.2061 12.1462C32.3937 11.9587 32.4991 11.7043 32.4991 11.439C32.4991 11.1738 32.3937 10.9194 32.2061 10.7318L21.7653 0.293717ZM11.7595 11.7113L21.0583 2.41494L30.0847 11.439L20.7874 20.7339C20.4346 21.0865 20.3957 21.6452 20.6962 22.0434C22.1479 23.9674 21.9962 26.7171 20.2428 28.47L19.1275 29.5851L2.91531 13.3771L4.03027 12.2624C5.78152 10.5116 8.52753 10.358 10.4519 11.8036C10.85 12.1027 11.4074 12.0633 11.7595 11.7113Z" fill="#111827"/>
</svg>
