<svg width="33" height="33" viewBox="0 0 33 33" fill="none" xmlns="http://www.w3.org/2000/svg">
<path d="M22.9959 7.50006L22.0927 7.07095C21.9455 7.38077 21.9673 7.74439 22.1506 8.03433C22.3339 8.32427 22.6529 8.50006 22.9959 8.50006V7.50006ZM15.4043 7.50006V8.50006C15.7473 8.50006 16.0664 8.32427 16.2496 8.03433C16.4329 7.74439 16.4548 7.38077 16.3076 7.07095L15.4043 7.50006ZM7.20013 15.474L6.91486 16.4324C7.21747 16.5225 7.54484 16.4644 7.79793 16.2756C8.05103 16.0869 8.20013 15.7897 8.20013 15.474H7.20013ZM7.20013 23.5261H8.20013C8.20013 23.2104 8.05103 22.9132 7.79794 22.7245C7.54484 22.5357 7.21747 22.4776 6.91487 22.5676L7.20013 23.5261ZM31.2001 23.5261H32.2001C32.2001 23.2104 32.051 22.9132 31.7979 22.7244C31.5448 22.5357 31.2175 22.4776 30.9149 22.5676L31.2001 23.5261ZM31.2001 15.474L30.9149 16.4325C31.2175 16.5225 31.5448 16.4644 31.7979 16.2757C32.051 16.0869 32.2001 15.7897 32.2001 15.474H31.2001ZM22.4001 5.7C22.4001 6.19263 22.2895 6.65663 22.0927 7.07095L23.8992 7.92917C24.2207 7.25235 24.4001 6.49573 24.4001 5.7H22.4001ZM19.2001 2.5C20.9674 2.5 22.4001 3.93269 22.4001 5.7H24.4001C24.4001 2.82812 22.072 0.5 19.2001 0.5V2.5ZM16.0001 5.7C16.0001 3.93269 17.4328 2.5 19.2001 2.5V0.5C16.3282 0.5 14.0001 2.82812 14.0001 5.7H16.0001ZM16.3076 7.07095C16.1108 6.65663 16.0001 6.19263 16.0001 5.7H14.0001C14.0001 6.49573 14.1795 7.25235 14.5011 7.92917L16.3076 7.07095ZM9.20013 8.50006H15.4043V6.50006H9.20013V8.50006ZM8.20013 9.50006C8.20013 8.94778 8.64785 8.50006 9.20013 8.50006V6.50006C7.54328 6.50006 6.20013 7.84321 6.20013 9.50006H8.20013ZM8.20013 15.474V9.50006H6.20013V15.474H8.20013ZM6.00005 16.3C6.31944 16.3 6.62621 16.3465 6.91486 16.4324L7.4854 14.5156C7.01356 14.3751 6.51469 14.3 6.00005 14.3V16.3ZM2.80005 19.5C2.80005 17.7327 4.23274 16.3 6.00005 16.3V14.3C3.12817 14.3 0.800049 16.6282 0.800049 19.5H2.80005ZM6.00005 22.7C4.23274 22.7 2.80005 21.2674 2.80005 19.5H0.800049C0.800049 22.3719 3.12817 24.7 6.00005 24.7V22.7ZM6.91487 22.5676C6.62621 22.6536 6.31944 22.7 6.00005 22.7V24.7C6.51469 24.7 7.01356 24.625 7.4854 24.4845L6.91487 22.5676ZM8.20013 29.5001V23.5261H6.20013V29.5001H8.20013ZM9.20013 30.5001C8.64785 30.5001 8.20013 30.0523 8.20013 29.5001H6.20013C6.20013 31.1569 7.54328 32.5001 9.20013 32.5001V30.5001ZM29.2001 30.5001H9.20013V32.5001H29.2001V30.5001ZM30.2001 29.5001C30.2001 30.0523 29.7524 30.5001 29.2001 30.5001V32.5001C30.857 32.5001 32.2001 31.1569 32.2001 29.5001H30.2001ZM30.2001 23.5261V29.5001H32.2001V23.5261H30.2001ZM30.9149 22.5676C30.6262 22.6536 30.3194 22.7 30 22.7V24.7C30.5147 24.7 31.0135 24.625 31.4854 24.4845L30.9149 22.5676ZM30 22.7C28.2327 22.7 26.8 21.2674 26.8 19.5H24.8C24.8 22.3719 27.1281 24.7 30 24.7V22.7ZM26.8 19.5C26.8 17.7327 28.2327 16.3 30 16.3V14.3C27.1281 14.3 24.8 16.6282 24.8 19.5H26.8ZM30 16.3C30.3194 16.3 30.6262 16.3465 30.9149 16.4325L31.4854 14.5156C31.0135 14.3751 30.5147 14.3 30 14.3V16.3ZM30.2001 9.50006V15.474H32.2001V9.50006H30.2001ZM29.2001 8.50006C29.7524 8.50006 30.2001 8.94778 30.2001 9.50006H32.2001C32.2001 7.84321 30.857 6.50006 29.2001 6.50006V8.50006ZM22.9959 8.50006H29.2001V6.50006H22.9959V8.50006Z" fill="#111827"/>
</svg>
