<svg width="33" height="32" viewBox="0 0 33 32" fill="none" xmlns="http://www.w3.org/2000/svg">
<path d="M22.9959 7.00006L22.0927 6.57095C21.9455 6.88077 21.9673 7.24439 22.1506 7.53433C22.3339 7.82427 22.6529 8.00006 22.9959 8.00006V7.00006ZM15.4043 7.00006V8.00006C15.7473 8.00006 16.0664 7.82427 16.2496 7.53433C16.4329 7.24439 16.4548 6.88077 16.3076 6.57095L15.4043 7.00006ZM7.20013 14.974L6.91486 15.9324C7.21747 16.0225 7.54484 15.9644 7.79793 15.7756C8.05103 15.5869 8.20013 15.2897 8.20013 14.974H7.20013ZM7.20013 23.0261H8.20013C8.20013 22.7104 8.05103 22.4132 7.79794 22.2245C7.54484 22.0357 7.21747 21.9776 6.91487 22.0676L7.20013 23.0261ZM31.2001 23.0261H32.2001C32.2001 22.7104 32.051 22.4132 31.7979 22.2244C31.5448 22.0357 31.2175 21.9776 30.9149 22.0676L31.2001 23.0261ZM31.2001 14.974L30.9149 15.9325C31.2175 16.0225 31.5448 15.9644 31.7979 15.7757C32.051 15.5869 32.2001 15.2897 32.2001 14.974H31.2001ZM22.4001 5.2C22.4001 5.69263 22.2895 6.15663 22.0927 6.57095L23.8992 7.42917C24.2207 6.75235 24.4001 5.99573 24.4001 5.2H22.4001ZM19.2001 2C20.9674 2 22.4001 3.43269 22.4001 5.2H24.4001C24.4001 2.32812 22.072 0 19.2001 0V2ZM16.0001 5.2C16.0001 3.43269 17.4328 2 19.2001 2V0C16.3282 0 14.0001 2.32812 14.0001 5.2H16.0001ZM16.3076 6.57095C16.1108 6.15663 16.0001 5.69263 16.0001 5.2H14.0001C14.0001 5.99573 14.1795 6.75235 14.5011 7.42917L16.3076 6.57095ZM9.20013 8.00006H15.4043V6.00006H9.20013V8.00006ZM8.20013 9.00006C8.20013 8.44778 8.64785 8.00006 9.20013 8.00006V6.00006C7.54328 6.00006 6.20013 7.34321 6.20013 9.00006H8.20013ZM8.20013 14.974V9.00006H6.20013V14.974H8.20013ZM6.00005 15.8C6.31944 15.8 6.62621 15.8465 6.91486 15.9324L7.4854 14.0156C7.01356 13.8751 6.51469 13.8 6.00005 13.8V15.8ZM2.80005 19C2.80005 17.2327 4.23274 15.8 6.00005 15.8V13.8C3.12817 13.8 0.800049 16.1282 0.800049 19H2.80005ZM6.00005 22.2C4.23274 22.2 2.80005 20.7674 2.80005 19H0.800049C0.800049 21.8719 3.12817 24.2 6.00005 24.2V22.2ZM6.91487 22.0676C6.62621 22.1536 6.31944 22.2 6.00005 22.2V24.2C6.51469 24.2 7.01356 24.125 7.4854 23.9845L6.91487 22.0676ZM8.20013 29.0001V23.0261H6.20013V29.0001H8.20013ZM9.20013 30.0001C8.64785 30.0001 8.20013 29.5523 8.20013 29.0001H6.20013C6.20013 30.6569 7.54328 32.0001 9.20013 32.0001V30.0001ZM29.2001 30.0001H9.20013V32.0001H29.2001V30.0001ZM30.2001 29.0001C30.2001 29.5523 29.7524 30.0001 29.2001 30.0001V32.0001C30.857 32.0001 32.2001 30.6569 32.2001 29.0001H30.2001ZM30.2001 23.0261V29.0001H32.2001V23.0261H30.2001ZM30.9149 22.0676C30.6262 22.1536 30.3194 22.2 30 22.2V24.2C30.5147 24.2 31.0135 24.125 31.4854 23.9845L30.9149 22.0676ZM30 22.2C28.2327 22.2 26.8 20.7674 26.8 19H24.8C24.8 21.8719 27.1281 24.2 30 24.2V22.2ZM26.8 19C26.8 17.2327 28.2327 15.8 30 15.8V13.8C27.1281 13.8 24.8 16.1282 24.8 19H26.8ZM30 15.8C30.3194 15.8 30.6262 15.8465 30.9149 15.9325L31.4854 14.0156C31.0135 13.8751 30.5147 13.8 30 13.8V15.8ZM30.2001 9.00006V14.974H32.2001V9.00006H30.2001ZM29.2001 8.00006C29.7524 8.00006 30.2001 8.44778 30.2001 9.00006H32.2001C32.2001 7.34321 30.857 6.00006 29.2001 6.00006V8.00006ZM22.9959 8.00006H29.2001V6.00006H22.9959V8.00006Z" fill="#111827"/>
</svg>
