<svg width="32" height="32" viewBox="0 0 32 32" fill="none" xmlns="http://www.w3.org/2000/svg">
<path d="M9.41058 21.7477H7.44457C5.77855 21.7477 4.80894 20.537 4.40181 18.8442C3.8554 16.5675 3.87683 15.2069 4.40181 13.0266C4.85716 11.1248 6.31425 10.1231 7.98027 10.1231H15.855H10.1284V7.21425C10.1284 5.55895 10.5677 4.66433 12.989 4.23578C14.7086 3.93043 16.7925 3.91436 18.7103 4.23042C20.2638 4.49291 21.5709 5.65537 21.5709 7.2089V10.1231M26.6008 13.0266C26.1884 11.3713 25.4062 10.1231 23.7402 10.1231H21.5921V12.6623C21.5921 14.6337 19.9207 16.2943 18.0136 16.2943H12.2924C10.7281 16.2943 9.43175 17.6336 9.43175 19.2032V24.6566C9.43175 26.2101 10.7817 27.1208 12.2924 27.5654C14.103 28.0957 15.844 28.1922 18.0136 27.5654C19.4546 27.1475 20.8742 26.3065 20.8742 24.6566V21.7477H15.1583H23.7402C25.4062 21.7477 26.0223 20.5853 26.6008 18.8442C27.2008 17.0497 27.174 15.3247 26.6008 13.0266Z" stroke="#1C1B1F" stroke-width="2" stroke-linecap="round"/>
<circle cx="13.1396" cy="7.35181" r="1.25" fill="#1C1B1F"/>
<circle cx="17.396" cy="24.5985" r="1.25" fill="#1C1B1F"/>
</svg>
