<svg width="33" height="32" viewBox="0 0 33 32" fill="none" xmlns="http://www.w3.org/2000/svg">
<g clip-path="url(#clip0_294_519)">
<path fill-rule="evenodd" clip-rule="evenodd" d="M16.9576 0V5.76577L10.1323 12.591L10.1292 12.5941C6.6174 16.0409 6.61284 21.704 10.1323 25.2235L10.1355 25.2267C13.5822 28.7385 19.2454 28.743 22.7649 25.2235L22.768 25.2204C26.2798 21.7736 26.2844 16.1105 22.7649 12.591L22.4292 12.2554L25.3636 9.32103L25.6992 9.65668C30.8223 14.7798 30.821 22.9993 25.7014 28.1556C20.6786 33.2839 12.4214 33.2783 7.3009 28.1578C2.17802 23.035 2.17802 14.7796 7.3009 9.65668L16.9576 0ZM16.0082 2.29195L7.97219 10.328C3.22006 15.0801 3.22006 22.7344 7.97219 27.4865C12.7263 32.2407 20.3778 32.2355 25.0244 27.4901L25.0267 27.4877C29.6686 22.8137 29.7768 15.4385 25.3572 10.67L23.764 12.2632C27.3194 16.1668 27.2148 22.1845 23.4347 25.8963C19.5483 29.7811 13.2814 29.7856 9.45944 25.8932C5.57485 22.0069 5.57029 15.7401 9.46257 11.9182L16.0082 5.37253V2.29195ZM20.9404 6.62673C20.2936 6.62673 19.7692 7.15107 19.7692 7.79788C19.7692 8.4447 20.2936 8.96904 20.9404 8.96904C21.5872 8.96904 22.1115 8.4447 22.1115 7.79788C22.1115 7.15107 21.5872 6.62673 20.9404 6.62673ZM18.8199 7.79788C18.8199 6.62676 19.7692 5.67737 20.9404 5.67737C22.1115 5.67737 23.0609 6.62676 23.0609 7.79788C23.0609 8.96901 22.1115 9.9184 20.9404 9.9184C19.7692 9.9184 18.8199 8.96901 18.8199 7.79788Z" fill="black"/>
</g>
<defs>
<clipPath id="clip0_294_519">
<rect width="32" height="32" fill="white" transform="translate(0.5)"/>
</clipPath>
</defs>
</svg>
