<svg width="33" height="32" viewBox="0 0 33 32" fill="none" xmlns="http://www.w3.org/2000/svg">
<path fill-rule="evenodd" clip-rule="evenodd" d="M1.50089 0.000854492C0.9486 0.000854492 0.500885 0.44857 0.500885 1.00085V13.0001C0.500885 13.5524 0.9486 14.0001 1.50089 14.0001H13.5002C14.0525 14.0001 14.5002 13.5524 14.5002 13.0001V1.00085C14.5002 0.44857 14.0525 0.000854492 13.5002 0.000854492H1.50089ZM2.50088 12.0001V2.00085H12.5002V12.0001H2.50088ZM25.4994 17.9998C26.0516 17.9998 26.4994 18.4475 26.4994 18.9998V20.9996H31.4991C32.0513 20.9996 32.4991 21.4474 32.4991 21.9996C32.4991 22.5519 32.0513 22.9996 31.4991 22.9996H26.4994V30.9991C26.4994 31.5514 26.0516 31.9991 25.4994 31.9991H19.4997C18.9475 31.9991 18.4997 31.5514 18.4997 30.9991C18.4997 30.4468 18.9475 29.9991 19.4997 29.9991H24.4994V18.9998C24.4994 18.4475 24.9471 17.9998 25.4994 17.9998ZM19.4998 17.9998C20.0521 17.9998 20.4998 18.4475 20.4998 18.9998V24.9994C20.4998 25.5517 20.0521 25.9994 19.4998 25.9994C18.9475 25.9994 18.4998 25.5517 18.4998 24.9994V18.9998C18.4998 18.4475 18.9475 17.9998 19.4998 17.9998ZM31.4991 26.9991C32.0513 26.9991 32.4991 27.4468 32.4991 27.9991V30.9989C32.4991 31.5512 32.0513 31.9989 31.4991 31.9989C30.9468 31.9989 30.4991 31.5512 30.4991 30.9989V27.9991C30.4991 27.4468 30.9468 26.9991 31.4991 26.9991ZM0.500885 18.9998C0.500885 18.4475 0.9486 17.9998 1.50089 17.9998H13.5002C14.0525 17.9998 14.5002 18.4475 14.5002 18.9998V30.9991C14.5002 31.5514 14.0525 31.9991 13.5002 31.9991H1.50089C0.9486 31.9991 0.500885 31.5514 0.500885 30.9991V18.9998ZM2.50088 19.9998V29.9991H12.5002V19.9998H2.50088ZM19.4998 0.000854492C18.9475 0.000854492 18.4998 0.44857 18.4998 1.00085V13.0001C18.4998 13.5524 18.9475 14.0001 19.4998 14.0001H31.4991C32.0514 14.0001 32.4991 13.5524 32.4991 13.0001V1.00085C32.4991 0.44857 32.0514 0.000854492 31.4991 0.000854492H19.4998ZM20.4998 12.0001V2.00085H30.4991V12.0001H20.4998Z" fill="#111827"/>
</svg>
