<svg width="33" height="32" viewBox="0 0 33 32" fill="none" xmlns="http://www.w3.org/2000/svg">
<path fill-rule="evenodd" clip-rule="evenodd" d="M16.4999 2.00073C8.76846 2.00073 2.50085 8.26834 2.50085 15.9998C2.50085 23.7313 8.76846 29.9989 16.4999 29.9989C24.2314 29.9989 30.499 23.7313 30.499 15.9998C30.499 8.26834 24.2314 2.00073 16.4999 2.00073ZM0.500854 15.9998C0.500854 7.16377 7.66389 0.000732422 16.4999 0.000732422C25.336 0.000732422 32.499 7.16377 32.499 15.9998C32.499 24.8359 25.336 31.9989 16.4999 31.9989C7.66389 31.9989 0.500854 24.8359 0.500854 15.9998ZM16.5003 23.5853C17.4523 23.5853 18.2241 22.8135 18.2241 21.8615C18.2241 20.9094 17.4523 20.1376 16.5003 20.1376C15.5482 20.1376 14.7764 20.9094 14.7764 21.8615C14.7764 22.8135 15.5482 23.5853 16.5003 23.5853ZM13.6469 12.2678C13.6469 10.6921 14.9243 9.41474 16.5 9.41474C18.0757 9.41474 19.3531 10.6921 19.3531 12.2678C19.3531 13.8435 18.0757 15.1209 16.5 15.1209C15.9477 15.1209 15.5 15.5686 15.5 16.1209V17.9205C15.5 18.4728 15.9477 18.9205 16.5 18.9205C17.0523 18.9205 17.5 18.4728 17.5 17.9205V17.0177C19.7005 16.5568 21.3531 14.6053 21.3531 12.2678C21.3531 9.58753 19.1803 7.41474 16.5 7.41474C13.8197 7.41474 11.6469 9.58753 11.6469 12.2678C11.6469 12.8201 12.0946 13.2678 12.6469 13.2678C13.1992 13.2678 13.6469 12.8201 13.6469 12.2678Z" fill="#111827"/>
</svg>
