<svg width="32" height="32" viewBox="0 0 32 32" fill="none" xmlns="http://www.w3.org/2000/svg">
<path d="M16 28C22.6274 28 28 22.6274 28 16C28 9.37258 22.6274 4 16 4C9.37258 4 4 9.37258 4 16C4 22.6274 9.37258 28 16 28Z" stroke="#1C1B1F" stroke-width="2" stroke-linecap="round" stroke-linejoin="round"/>
<path d="M16.0003 22.0686C16.7619 22.0686 17.3794 21.4512 17.3794 20.6895C17.3794 19.9278 16.7619 19.3103 16.0003 19.3103C15.2386 19.3103 14.6211 19.9278 14.6211 20.6895C14.6211 21.4512 15.2386 22.0686 16.0003 22.0686Z" fill="#1C1B1F"/>
<path d="M12.9174 13.014C12.9174 11.3115 14.2975 9.9314 16 9.9314C17.7025 9.9314 19.0826 11.3115 19.0826 13.014C19.0826 14.7165 17.7025 16.0967 16 16.0967V17.5364" stroke="#1C1B1F" stroke-width="2" stroke-linecap="round" stroke-linejoin="round"/>
</svg>
