<svg width="33" height="33" viewBox="0 0 33 33" fill="none" xmlns="http://www.w3.org/2000/svg">
<path fill-rule="evenodd" clip-rule="evenodd" d="M1.50085 5.59521C0.94857 5.59521 0.500854 6.04293 0.500854 6.59521C0.500854 7.1475 0.94857 7.59521 1.50085 7.59521H28.7019C29.2542 7.59521 29.7019 7.1475 29.7019 6.59521C29.7019 6.04293 29.2542 5.59521 28.7019 5.59521H1.50085ZM1.50085 15.4866C0.94857 15.4866 0.500854 15.9343 0.500854 16.4866C0.500854 17.0389 0.94857 17.4866 1.50085 17.4866H16.3378C16.8901 17.4866 17.3378 17.0389 17.3378 16.4866C17.3378 15.9343 16.8901 15.4866 16.3378 15.4866H1.50085ZM0.500854 26.378C0.500854 25.8257 0.94857 25.378 1.50085 25.378H16.3378C16.8901 25.378 17.3378 25.8257 17.3378 26.378C17.3378 26.9302 16.8901 27.378 16.3378 27.378H1.50085C0.94857 27.378 0.500854 26.9302 0.500854 26.378ZM32.0266 19.978C32.3204 20.1605 32.499 20.4817 32.499 20.8275C32.499 21.1733 32.3204 21.4945 32.0266 21.677L23.0474 27.2543C22.739 27.4459 22.351 27.4552 22.0337 27.2788C21.7165 27.1024 21.5197 26.7679 21.5197 26.4048V15.2502C21.5197 14.8871 21.7165 14.5526 22.0337 14.3762C22.351 14.1998 22.739 14.2091 23.0474 14.4007L32.0266 19.978ZM23.5197 17.0485V24.6065L29.6038 20.8275L23.5197 17.0485Z" fill="#111827"/>
</svg>
