<svg width="33" height="32" viewBox="0 0 33 32" fill="none" xmlns="http://www.w3.org/2000/svg">
<path fill-rule="evenodd" clip-rule="evenodd" d="M1.50073 4.80994C0.948448 4.80994 0.500732 5.25765 0.500732 5.80994V17.6842C0.500732 18.2365 0.948448 18.6842 1.50073 18.6842H12.3342C12.2852 19.7719 12.1316 21.0514 11.6504 22.1959C11.3108 23.0037 10.821 23.7088 10.1149 24.2292C9.41361 24.7461 8.43449 25.1284 7.0336 25.1911C6.48187 25.2157 6.0546 25.683 6.07928 26.2347C6.10395 26.7865 6.57123 27.2137 7.12296 27.1891C8.86147 27.1113 10.2369 26.6238 11.3015 25.8392C12.3613 25.0581 13.0488 24.0301 13.4941 22.9711C14.2566 21.1574 14.3455 19.1516 14.3558 17.8802C14.3684 17.8168 14.375 17.7513 14.375 17.6842V5.80994C14.375 5.25765 13.9273 4.80994 13.375 4.80994H1.50073ZM12.375 15.2366V6.80994H2.50073V16.6842H12.3571V15.4259C12.3571 15.3612 12.3632 15.2979 12.375 15.2366ZM18.6247 5.80994C18.6247 5.25765 19.0724 4.80994 19.6247 4.80994H31.499C32.0513 4.80994 32.499 5.25765 32.499 5.80994V17.6842C32.499 17.7513 32.4923 17.8169 32.4797 17.8804C32.4694 19.1518 32.3805 21.1575 31.618 22.9711C31.1728 24.0301 30.4853 25.0581 29.4255 25.8392C28.3609 26.6238 26.9854 27.1113 25.2469 27.1891C24.6952 27.2137 24.2279 26.7865 24.2032 26.2347C24.1786 25.683 24.6058 25.2157 25.1576 25.1911C26.5585 25.1284 27.5376 24.7461 28.2389 24.2292C28.945 23.7088 29.4348 23.0037 29.7744 22.1959C30.2555 21.0514 30.4092 19.7719 30.4582 18.6842H19.6247C19.0724 18.6842 18.6247 18.2365 18.6247 17.6842V5.80994ZM30.499 15.2365C30.4872 15.2978 30.4811 15.3611 30.4811 15.4259V16.6842H20.6247V6.80994H30.499V15.2365Z" fill="#111827"/>
</svg>
