<svg width="33" height="32" viewBox="0 0 33 32" fill="none" xmlns="http://www.w3.org/2000/svg">
<g clip-path="url(#clip0_304_312)">
<path fill-rule="evenodd" clip-rule="evenodd" d="M14.2297 0C13.1251 0 12.2297 0.895428 12.2297 2V12.0507H9.28584V2.00023C9.28584 0.89566 8.39041 0.000228822 7.28584 0.000228822H3.31834C2.21377 0.000228822 1.31834 0.89566 1.31834 2.00023V13.0292L1.31812 13.0508V30.0003C1.31812 31.1049 2.21355 32.0003 3.31812 32.0003H29.682C30.7866 32.0003 31.682 31.1049 31.682 30.0003V14.0507C31.682 12.9461 30.7866 12.0507 29.682 12.0507L20.1972 12.0507V2C20.1972 0.895431 19.3017 0 18.1972 0H14.2297ZM14.2297 2L18.1972 2V12.0507C18.1972 13.1553 19.0926 14.0507 20.1972 14.0507H29.682V30.0003H3.31812V13.0722L3.31834 13.0506V2.00023H7.28584V12.0507C7.28584 13.1553 8.18127 14.0507 9.28584 14.0507H12.2297C13.3342 14.0507 14.2297 13.1553 14.2297 12.0507V2ZM20.3675 18.1509C19.2629 18.1509 18.3675 19.0463 18.3675 20.1509V23.8533C18.3675 24.9579 19.2629 25.8533 20.3674 25.8533H24.0839C25.1884 25.8533 26.0839 24.9579 26.0839 23.8533V20.1509C26.0839 19.0463 25.1884 18.1509 24.0839 18.1509H20.3675ZM20.3675 20.1509L24.0839 20.1509V23.8533L20.3675 23.8533V20.1509Z" fill="#111827"/>
</g>
<defs>
<clipPath id="clip0_304_312">
<rect width="32" height="32" fill="white" transform="translate(0.5)"/>
</clipPath>
</defs>
</svg>
