<svg width="33" height="32" viewBox="0 0 33 32" fill="none" xmlns="http://www.w3.org/2000/svg">
<path fill-rule="evenodd" clip-rule="evenodd" d="M2.50092 15.9999C2.50092 8.26846 8.76852 2.00085 16.5 2.00085C24.2315 2.00085 30.4991 8.26846 30.4991 15.9999C30.4991 23.7314 24.2315 29.999 16.5 29.999C8.76852 29.999 2.50092 23.7314 2.50092 15.9999ZM16.5 0.000854492C7.66395 0.000854492 0.500916 7.16389 0.500916 15.9999C0.500916 24.836 7.66395 31.999 16.5 31.999C25.3361 31.999 32.4991 24.836 32.4991 15.9999C32.4991 7.16389 25.3361 0.000854492 16.5 0.000854492ZM8.75053 15.9999C8.75053 11.72 12.2201 8.25047 16.5 8.25047C20.7799 8.25047 24.2495 11.72 24.2495 15.9999C24.2495 20.2798 20.7799 23.7494 16.5 23.7494C12.2201 23.7494 8.75053 20.2798 8.75053 15.9999ZM16.5 6.25047C11.1155 6.25047 6.75053 10.6155 6.75053 15.9999C6.75053 21.3844 11.1155 25.7494 16.5 25.7494C21.8845 25.7494 26.2495 21.3844 26.2495 15.9999C26.2495 10.6155 21.8845 6.25047 16.5 6.25047Z" fill="#111827"/>
</svg>
