<svg width="33" height="32" viewBox="0 0 33 32" fill="none" xmlns="http://www.w3.org/2000/svg">
<path fill-rule="evenodd" clip-rule="evenodd" d="M5.87167 2.50073C5.31939 2.50073 4.87167 2.94845 4.87167 3.50073V7.50042H1.50098C0.948692 7.50042 0.500977 7.94814 0.500977 8.50042V28.4992C0.500977 29.0515 0.948692 29.4992 1.50098 29.4992H31.4991C32.0514 29.4992 32.4991 29.0515 32.4991 28.4992V8.50042C32.4991 7.94814 32.0514 7.50042 31.4991 7.50042H28.1282V3.50073C28.1282 2.94845 27.6805 2.50073 27.1282 2.50073H5.87167ZM5.86825 9.50042C5.86939 9.50043 5.87053 9.50043 5.87167 9.50043H27.1282C27.1294 9.50043 27.1305 9.50043 27.1317 9.50042H30.4991V27.4992H2.50098V9.50042H5.86825ZM26.1282 7.50043V4.50073H6.87167V7.50042L26.1282 7.50043ZM6.50067 12.5001C5.94838 12.5001 5.50067 12.9478 5.50067 13.5001C5.50067 14.0524 5.94838 14.5001 6.50067 14.5001H11.5004C12.0526 14.5001 12.5004 14.0524 12.5004 13.5001C12.5004 12.9478 12.0526 12.5001 11.5004 12.5001H6.50067ZM21.4997 22.4995C19.2908 22.4995 17.5 20.7088 17.5 18.4998C17.5 16.2908 19.2908 14.5001 21.4997 14.5001C23.7087 14.5001 25.4994 16.2908 25.4994 18.4998C25.4994 20.7088 23.7087 22.4995 21.4997 22.4995ZM21.4997 12.5001C18.1862 12.5001 15.5 15.1863 15.5 18.4998C15.5 21.8133 18.1862 24.4995 21.4997 24.4995C24.8133 24.4995 27.4994 21.8133 27.4994 18.4998C27.4994 15.1863 24.8133 12.5001 21.4997 12.5001ZM5.50067 18.4998C5.50067 17.9475 5.94838 17.4998 6.50067 17.4998H11.5004C12.0526 17.4998 12.5004 17.9475 12.5004 18.4998C12.5004 19.0521 12.0526 19.4998 11.5004 19.4998H6.50067C5.94838 19.4998 5.50067 19.0521 5.50067 18.4998ZM6.50067 22.4996C5.94838 22.4996 5.50067 22.9473 5.50067 23.4996C5.50067 24.0518 5.94838 24.4996 6.50067 24.4996H11.5004C12.0526 24.4996 12.5004 24.0518 12.5004 23.4996C12.5004 22.9473 12.0526 22.4996 11.5004 22.4996H6.50067Z" fill="#111827"/>
</svg>
