<svg width="32" height="33" viewBox="0 0 32 33" fill="none" xmlns="http://www.w3.org/2000/svg">
<path d="M4 21.1465V19.4322C4.00106 17.4108 4.59767 15.4346 5.71529 13.7503C6.83291 12.066 8.42201 10.7484 10.2841 9.96195C12.1462 9.1755 14.1987 8.95513 16.1853 9.32835C18.1719 9.70157 20.0045 10.6518 21.4542 12.0605" stroke="#1C1B1F" stroke-width="2" stroke-linecap="round" stroke-linejoin="round"/>
<path d="M7.42868 21.1465V19.4321C7.42811 18.164 7.77918 16.9206 8.44286 15.8401C9.10655 14.7595 10.0569 13.8842 11.1882 13.3113C12.3195 12.7384 13.5875 12.4905 14.8513 12.595C16.1151 12.6995 17.3251 13.1524 18.3469 13.9034" stroke="#1C1B1F" stroke-width="2" stroke-linecap="round" stroke-linejoin="round"/>
<path d="M10.8574 21.1465V19.4321C10.8574 18.5228 11.2186 17.6507 11.8616 17.0077C12.5046 16.3647 13.3767 16.0034 14.2861 16.0034C14.5534 16.0025 14.8197 16.0349 15.079 16.0999" stroke="#1C1B1F" stroke-width="2" stroke-linecap="round" stroke-linejoin="round"/>
<path d="M19.11 17.487C18.666 17.3736 18.203 17.3559 17.7517 17.435C17.3004 17.5142 16.8711 17.6885 16.4922 17.9463C16.1134 18.2041 15.7938 18.5395 15.5545 18.9302C15.3152 19.321 15.1618 19.7582 15.1044 20.2128C15.047 20.6674 15.087 21.129 15.2216 21.567C15.3563 22.005 15.5825 22.4093 15.8854 22.7531C16.1883 23.097 16.5608 23.3725 16.9783 23.5613C17.3958 23.7502 17.8486 23.8481 18.3069 23.8485H22.3421C24.1258 23.8485 25.9818 23.4105 27.077 22.0025V22.0025C27.5158 21.4174 27.8092 20.7364 27.9332 20.0156C28.0572 19.2949 28.0081 18.555 27.79 17.8569C27.5719 17.1588 27.1911 16.5225 26.6789 16.0005C26.1667 15.4785 25.5378 15.0856 24.844 14.8543C24.1501 14.623 23.4113 14.5599 22.6883 14.6702C21.9653 14.7805 21.2789 15.0609 20.6855 15.4885C20.0922 15.9161 19.609 16.4786 19.2757 17.1296C18.9424 17.7805 18.7685 18.5014 18.7684 19.2328" stroke="#1C1B1F" stroke-width="2" stroke-linecap="round" stroke-linejoin="round"/>
</svg>
