<svg width="33" height="33" viewBox="0 0 33 33" fill="none" xmlns="http://www.w3.org/2000/svg">
<path fill-rule="evenodd" clip-rule="evenodd" d="M9.74339 9.24741C11.8903 8.34068 14.2568 8.08659 16.5472 8.5169C18.8377 8.94721 20.9506 10.0428 22.622 11.6669C23.0181 12.0518 23.6512 12.0427 24.0361 11.6466C24.421 11.2505 24.4119 10.6174 24.0158 10.2325C22.0625 8.33456 19.5932 7.05417 16.9165 6.55129C14.2398 6.04841 11.4742 6.34534 8.96525 7.40499C6.45629 8.46464 4.31515 10.24 2.80927 12.5094C1.3034 14.7788 0.49954 17.4415 0.498108 20.1651V20.1656V22.3089C0.498108 22.8611 0.945823 23.3089 1.49811 23.3089C2.05039 23.3089 2.49811 22.8611 2.49811 22.3089V20.1659V20.1656C2.49944 17.8353 3.18729 15.557 4.47576 13.6152C5.76433 11.6733 7.59649 10.1541 9.74339 9.24741ZM10.9361 13.4052C12.1855 12.7725 13.5858 12.4987 14.9815 12.6141C16.3771 12.7295 17.7134 13.2297 18.8419 14.059C19.2869 14.3861 19.9128 14.2904 20.2399 13.8454C20.5669 13.4004 20.4713 12.7745 20.0263 12.4474C18.5998 11.3991 16.9106 10.7668 15.1463 10.6209C13.3821 10.475 11.6119 10.8212 10.0326 11.6209C8.45331 12.4206 7.12667 13.6426 6.20017 15.1511C5.27374 16.6594 4.78365 18.395 4.78437 20.1651V20.1656V22.3084C4.78437 22.8606 5.23208 23.3084 5.78437 23.3084C6.33665 23.3084 6.78437 22.8606 6.78437 22.3084V20.1651L6.78437 20.1647C6.78374 18.7643 7.17144 17.3911 7.90437 16.1978C8.63731 15.0045 9.68678 14.0378 10.9361 13.4052ZM14.6353 16.8755C14.5392 16.8772 14.4496 16.8787 14.3611 16.879L14.3575 16.879C13.4859 16.879 12.65 17.2253 12.0336 17.8416C11.4173 18.4579 11.071 19.2939 11.071 20.1655V22.3087C11.071 22.861 10.6233 23.3087 10.071 23.3087C9.51876 23.3087 9.07105 22.861 9.07105 22.3087V20.1655C9.07105 18.7634 9.62801 17.4188 10.6194 16.4274C11.6103 15.4365 12.9542 14.8796 14.3555 14.879C14.3907 14.8789 14.4535 14.8779 14.5323 14.8767L14.5324 14.8767L14.5326 14.8767L14.5329 14.8767C14.7045 14.874 14.9517 14.8702 15.1533 14.8712C15.4339 14.8726 15.8729 14.8795 16.1749 14.9552C16.7106 15.0894 17.036 15.6326 16.9017 16.1683C16.7675 16.704 16.2243 17.0294 15.6886 16.8951L15.6912 16.8959C15.6914 16.896 15.6898 16.8958 15.6862 16.8953L15.6861 16.8953C15.6716 16.8933 15.6253 16.8871 15.5359 16.8817C15.4253 16.875 15.2905 16.8719 15.1435 16.8712C14.9457 16.8702 14.7829 16.873 14.6353 16.8755ZM25.0122 15.2008C25.7594 15.0868 26.523 15.152 27.2401 15.3911C27.9571 15.6301 28.6071 16.0362 29.1365 16.5757C29.6659 17.1152 30.0595 17.7729 30.2849 18.4944C30.5103 19.2159 30.561 19.9806 30.4328 20.7256C30.3052 21.4677 30.0037 22.169 29.5531 22.7722C29.2956 23.1024 29.0001 23.4191 28.7001 23.7073C28.0049 24.375 26.988 24.687 25.8488 24.687H19.3849C18.9539 24.6866 18.5279 24.5945 18.1352 24.4168C17.7425 24.2392 17.3921 23.98 17.1072 23.6566C16.8223 23.3331 16.6095 22.9528 16.4828 22.5408C16.3561 22.1287 16.3185 21.6945 16.3725 21.2668C16.4265 20.8392 16.5708 20.4279 16.7959 20.0603C17.021 19.6927 17.3217 19.3772 17.678 19.1347C18.0344 18.8922 18.4382 18.7283 18.8627 18.6538C19.2873 18.5793 19.7228 18.596 20.1404 18.7027L20.9141 18.9004L21.2781 18.1896C21.4576 17.8389 21.7322 17.398 22.0463 16.986C22.3676 16.5644 22.6864 16.231 22.9424 16.0466C23.5556 15.6046 24.265 15.3147 25.0122 15.2008ZM27.8726 13.4937C26.8549 13.1545 25.7712 13.0619 24.7107 13.2236C23.6502 13.3854 22.6433 13.7968 21.773 14.424C21.2872 14.7741 20.8295 15.2831 20.4556 15.7736C20.2423 16.0535 20.0421 16.3461 19.8656 16.6308C19.4169 16.588 18.9634 16.6056 18.5171 16.6839C17.8132 16.8074 17.1437 17.0792 16.5528 17.4812C15.962 17.8833 15.4634 18.4065 15.0903 19.0159C14.7171 19.6254 14.4778 20.3073 14.3883 21.0164C14.2988 21.7254 14.3611 22.4454 14.5711 23.1285C14.7811 23.8116 15.134 24.4422 15.6064 24.9785C16.0787 25.5148 16.6598 25.9445 17.3109 26.239C17.962 26.5336 18.6683 26.6863 19.383 26.687L19.384 26.687H25.8488C27.3159 26.687 28.901 26.2874 30.0855 25.1497C30.4396 24.8096 30.8061 24.4189 31.1373 23.993L31.1427 23.9861L31.148 23.979C31.7916 23.1208 32.2221 22.1218 32.4039 21.0646C32.5857 20.0073 32.5138 18.922 32.1939 17.898C31.874 16.8741 31.3154 15.9408 30.5641 15.175C29.8128 14.4093 28.8903 13.833 27.8726 13.4937Z" fill="#111827"/>
</svg>
