<svg width="32" height="33" viewBox="0 0 32 33" fill="none" xmlns="http://www.w3.org/2000/svg">
<path d="M21.1429 23.3571V21.6429C21.1429 20.2789 20.601 18.9708 19.6366 18.0063C18.6721 17.0418 17.364 16.5 16 16.5C14.636 16.5 13.3279 17.0418 12.3635 18.0063C11.399 18.9708 10.8571 20.2789 10.8571 21.6429V23.3571" stroke="#1C1B1F" stroke-width="2" stroke-linecap="round" stroke-linejoin="round"/>
<path d="M24.5714 23.3571V21.6428C24.5714 19.3696 23.6684 17.1894 22.0609 15.5819C20.4534 13.9745 18.2733 13.0714 16 13.0714C13.7267 13.0714 11.5465 13.9745 9.93907 15.5819C8.33162 17.1894 7.42856 19.3696 7.42856 21.6428V23.3571" stroke="#1C1B1F" stroke-width="2" stroke-linecap="round" stroke-linejoin="round"/>
<path d="M28 23.3571V21.6428C28 18.4602 26.7357 15.408 24.4853 13.1575C22.2348 10.9071 19.1826 9.64282 16 9.64282C12.8174 9.64282 9.76516 10.9071 7.51472 13.1575C5.26428 15.408 4 18.4602 4 21.6428V23.3571" stroke="#1C1B1F" stroke-width="2" stroke-linecap="round" stroke-linejoin="round"/>
</svg>
