<svg width="32" height="32" viewBox="0 0 32 32" fill="none" xmlns="http://www.w3.org/2000/svg">
<path fill-rule="evenodd" clip-rule="evenodd" d="M8.2671 12.2597C8.52255 12.1724 8.78017 12.0916 9.03971 12.0172C8.99667 11.843 8.95686 11.6681 8.92032 11.4924C8.3355 8.66508 8.71787 6.38737 10.0237 5.63759C11.2756 4.91848 13.3233 5.66827 15.3913 7.46054C15.5951 7.63755 15.7943 7.81966 15.9888 8.00669C16.1191 7.88232 16.2517 7.76037 16.3865 7.6409C18.5538 5.72433 20.7263 4.91679 22.0307 5.6688C23.2815 6.38991 23.652 8.53127 23.1255 11.2107C23.0731 11.4761 23.0139 11.7401 22.9481 12.0024C23.2555 12.0894 23.5523 12.182 23.8364 12.2806C26.3772 13.1628 28 14.5456 28 15.9798C28 17.4612 26.2581 18.947 23.6114 19.8479C23.3968 19.9206 23.1804 19.9879 22.9624 20.0499C23.0332 20.3325 23.0961 20.6171 23.1509 20.9032C23.6529 23.5362 23.2609 25.6267 22.0134 26.3434C20.7249 27.0834 18.5623 26.3228 16.4565 24.4896C16.2901 24.3447 16.123 24.191 15.9557 24.0299C15.745 24.2323 15.5287 24.4289 15.3069 24.6194C13.2672 26.3674 11.2527 27.0733 10.0063 26.3547C8.71894 25.6126 8.30066 23.3667 8.84385 20.6342C8.88527 20.4255 8.9336 20.2124 8.98777 19.9953C8.83588 19.9507 8.68686 19.9046 8.54145 19.8565C5.79005 18.9487 4 17.481 4 15.9798C4 14.5404 5.67502 13.1483 8.2671 12.2597ZM9.13096 18.7792C9.25723 18.8208 9.38687 18.8611 9.51896 18.9001C9.81136 17.9783 10.206 16.998 10.6888 15.9854C10.228 14.9968 9.84867 14.0292 9.56445 13.1133C9.32818 13.1815 9.09876 13.2533 8.87772 13.3291C6.73993 14.0619 5.43599 15.1456 5.43599 15.9805C5.43599 16.87 6.84432 18.0246 9.13086 18.7792H9.13096ZM10.0797 20.6516C9.84857 21.8146 9.81555 22.8661 9.9687 23.6881C10.1063 24.4267 10.383 24.9191 10.7251 25.1163C11.4531 25.536 13.0101 24.9905 14.689 23.5515C14.8815 23.3866 15.0755 23.2104 15.2699 23.0241C14.619 22.315 13.9684 21.4907 13.3335 20.5753C12.2167 20.4766 11.1616 20.3153 10.2048 20.095C10.1577 20.2844 10.1158 20.47 10.0797 20.6516ZM19.6747 25.0438C20.386 25.294 20.9525 25.3011 21.2949 25.1045C22.0236 24.686 22.3265 23.0701 21.9133 20.9029C21.8642 20.6467 21.8079 20.392 21.7446 20.139C20.7984 20.3474 19.751 20.4974 18.6315 20.5878C17.9924 21.4836 17.3231 22.3069 16.6485 23.0279C16.7919 23.166 16.9386 23.3006 17.0886 23.4315C17.985 24.2118 18.8831 24.7653 19.6746 25.0438H19.6747ZM23.007 18.7737C24.1334 18.3902 25.0637 17.8919 25.7013 17.3482C26.2743 16.8595 26.5636 16.3743 26.5636 15.9805C26.5636 15.1429 25.3095 14.0743 23.2178 13.348C22.9552 13.2572 22.6901 13.1741 22.4227 13.0988C22.1335 14.0353 21.7543 15.0144 21.2967 16.0045C21.7603 17.0093 22.1449 18.004 22.4367 18.9515C22.6282 18.8969 22.8184 18.8376 23.007 18.7737ZM21.8899 11.2013C22.3241 8.99147 22.0358 7.32456 21.3102 6.90628C20.5373 6.46071 18.8284 7.09607 17.0272 8.68886C16.9121 8.79068 16.7964 8.89728 16.6806 9.00755C17.3517 9.72529 18.0149 10.5424 18.6485 11.4329C19.735 11.5332 20.775 11.6943 21.7311 11.9101C21.79 11.6751 21.843 11.4388 21.8899 11.2012V11.2013ZM11.9251 13.6518C12.151 13.2633 12.3852 12.8797 12.6276 12.5012C11.8905 12.5939 11.1843 12.7171 10.5212 12.8679C10.7202 13.5034 10.9684 14.1678 11.2606 14.849C11.4741 14.4456 11.6956 14.0464 11.9251 13.6518ZM15.9888 9.70991C15.5336 10.201 15.0777 10.7494 14.6293 11.3443C15.5389 11.3015 16.45 11.3013 17.3597 11.3437C16.9108 10.7543 16.4511 10.2067 15.9888 9.70991ZM20.0785 13.6585C20.3051 14.05 20.5225 14.4467 20.7305 14.8483C21.0179 14.1695 21.2638 13.502 21.4646 12.8575C20.8055 12.7106 20.1026 12.5905 19.3703 12.4994C19.6154 12.8802 19.8515 13.2667 20.0785 13.6585ZM19.3492 19.5319C20.1058 19.4478 20.8193 19.3338 21.4782 19.191C21.2742 18.535 21.0229 17.8532 20.7294 17.1598C20.5205 17.5617 20.3021 17.9587 20.0745 18.3503C19.8422 18.7499 19.6004 19.1438 19.3492 19.5319ZM15.9615 22.3206C16.4292 21.8179 16.8957 21.262 17.3514 20.664C16.9091 20.6813 16.4581 20.6901 15.9998 20.6901C15.5289 20.6901 15.0634 20.6796 14.6053 20.6592C15.0551 21.2681 15.5094 21.8249 15.9615 22.3206ZM11.2512 17.1245C10.9424 17.8254 10.6821 18.5036 10.4754 19.1484C11.1453 19.3006 11.8684 19.4232 12.6304 19.5142C12.3862 19.1287 12.1497 18.7384 11.9211 18.3435C11.6888 17.9422 11.4654 17.5357 11.2512 17.1245ZM12.776 17.8525C13.126 18.4579 13.4956 19.0519 13.8843 19.6334C14.5697 19.6821 15.278 19.7073 15.9998 19.7073C16.7186 19.7073 17.4179 19.685 18.0914 19.6415C18.4902 19.0614 18.8668 18.4664 19.2204 17.8579C19.5724 17.2527 19.9011 16.6343 20.206 16.0042C19.9019 15.3739 19.5741 14.7552 19.2234 14.1494V14.1496C18.8727 13.5437 18.4991 12.9513 18.1032 12.3736C17.4162 12.3219 16.7118 12.2948 15.9997 12.2948C15.2844 12.2948 14.5791 12.3221 13.8923 12.3743C13.5005 12.951 13.1292 13.5414 12.7792 14.1442C12.4272 14.7486 12.0951 15.3643 11.7833 15.9902C12.0919 16.6225 12.423 17.2437 12.7759 17.8525H12.776ZM10.7402 6.87706C9.96665 7.3214 9.66577 9.11314 10.1518 11.4629C10.1837 11.6159 10.2183 11.7684 10.2557 11.9202C11.2141 11.7 12.2548 11.5361 13.3445 11.4342C13.9793 10.5341 14.637 9.71551 15.2972 9.00705C15.1242 8.84093 14.9471 8.67912 14.766 8.52177C13.0605 7.04353 11.4665 6.4599 10.7402 6.87706ZM13.8569 15.9797C13.8569 14.801 14.8163 13.8453 16 13.8453C17.1835 13.8453 18.1431 14.801 18.1431 15.9797C18.1431 17.1585 17.1835 18.1142 16 18.1142C14.8163 18.1142 13.8569 17.1585 13.8569 15.9797Z" fill="#1C1B1F"/>
</svg>
