<svg width="33" height="32" viewBox="0 0 33 32" fill="none" xmlns="http://www.w3.org/2000/svg">
<g clip-path="url(#clip0_6_1461)">
<path fill-rule="evenodd" clip-rule="evenodd" d="M9.50043 28.1241C9.21365 27.9586 8.91595 27.5729 8.76823 26.75C8.62158 25.9331 8.65341 24.8234 8.90032 23.471C9.00149 22.9168 9.13701 22.3313 9.30612 21.7201C10.4388 21.9343 11.6495 22.0987 12.9165 22.2068C13.6437 23.2501 14.3916 24.2165 15.1435 25.0905C14.6988 25.5425 14.2595 25.9526 13.8302 26.3173C12.7824 27.2073 11.8374 27.7897 11.0566 28.0712C10.27 28.3547 9.78722 28.2897 9.50043 28.1241ZM16.5002 23.5993C16.1641 23.2021 15.8276 22.7836 15.4927 22.3453C15.826 22.3531 16.1619 22.357 16.5001 22.357C16.8384 22.357 17.1744 22.3531 17.5078 22.3453C17.1728 22.7836 16.8363 23.2021 16.5002 23.5993ZM15.125 27.8416C15.5786 27.4563 16.0383 27.0289 16.5002 26.563C16.9622 27.0289 17.4219 27.4564 17.8755 27.8417C19.0245 28.8177 20.1775 29.5605 21.2658 29.9528C22.3484 30.3431 23.5058 30.4304 24.5001 29.8563C25.4945 29.2823 25.9975 28.2363 26.2009 27.1036C26.4053 25.9649 26.3385 24.595 26.0677 23.112C25.9608 22.5264 25.8205 21.9145 25.6479 21.2813C26.2824 21.1142 26.8824 20.9298 27.4429 20.7297C28.8626 20.2226 30.0824 19.5955 30.9663 18.8491C31.8456 18.1067 32.4999 17.148 32.4999 15.9999C32.4999 14.8517 31.8456 13.8931 30.9663 13.1506C30.0824 12.4042 28.8626 11.7772 27.4429 11.2701C26.8825 11.07 26.2825 10.8856 25.6481 10.7185C25.8207 10.0854 25.961 9.47355 26.0679 8.88803C26.3386 7.40499 26.4054 6.0351 26.201 4.89643C25.9977 3.76372 25.4946 2.71773 24.5003 2.14365C23.5059 1.56956 22.3485 1.6569 21.2659 2.04715C20.1776 2.43947 19.0246 3.18226 17.8757 4.15826C17.422 4.54362 16.9622 4.97111 16.5002 5.43712C16.0382 4.97118 15.5785 4.54374 15.1249 4.15843C13.9759 3.18243 12.823 2.43963 11.7347 2.04732C10.652 1.65706 9.49465 1.56973 8.50031 2.14381C7.50596 2.71789 7.00291 3.76389 6.79957 4.89659C6.59516 6.03527 6.66196 7.40515 6.93271 8.8882C7.03959 9.47363 7.17988 10.0854 7.3524 10.7184C6.71785 10.8855 6.11779 11.0699 5.55726 11.2701C4.13752 11.7772 2.91777 12.4042 2.03385 13.1506C1.15457 13.8931 0.500244 14.8517 0.500244 15.9999C0.500244 17.148 1.15457 18.1067 2.03385 18.8491C2.91777 19.5955 4.13752 20.2226 5.55726 20.7297C6.11784 20.9299 6.71797 21.1143 7.35257 21.2814C7.18004 21.9145 7.03973 22.5263 6.93284 23.1118C6.66209 24.5948 6.59529 25.9647 6.7997 27.1034C7.00303 28.2361 7.50609 29.2821 8.50043 29.8562C9.49478 30.4303 10.6522 30.3429 11.7348 29.9527C12.8231 29.5604 13.9761 28.8176 15.125 27.8416ZM24.1003 23.4711C23.9991 22.9169 23.8635 22.3313 23.6944 21.72C22.5617 21.9342 21.351 22.0987 20.084 22.2068C19.3568 23.2501 18.6089 24.2165 17.8569 25.0905C18.3017 25.5426 18.741 25.9527 19.1703 26.3174C20.2181 27.2075 21.1632 27.7899 21.944 28.0713C22.7305 28.3549 23.2134 28.2899 23.5001 28.1243C23.7869 27.9587 24.0846 27.5731 24.2323 26.7502C24.379 25.9333 24.3472 24.8236 24.1003 23.4711ZM26.7702 18.8462C26.2398 19.0356 25.6649 19.211 25.0511 19.3701C24.6702 18.2821 24.2073 17.1514 23.6674 16.0001C24.2074 14.8487 24.6704 13.7178 25.0513 12.6297C25.665 12.7888 26.2398 12.9642 26.7702 13.1536C28.0649 13.616 29.0419 14.1433 29.676 14.6787C30.3148 15.2181 30.4999 15.6687 30.4999 15.9999C30.4999 16.331 30.3148 16.7817 29.676 17.321C29.0419 17.8565 28.0649 18.3838 26.7702 18.8462ZM23.0813 19.7995C22.9054 19.31 22.7113 18.8095 22.4993 18.3004C22.3393 18.5928 22.1748 18.8856 22.0057 19.1785C21.8367 19.4713 21.6653 19.7602 21.492 20.045C22.0389 19.9741 22.5694 19.8919 23.0813 19.7995ZM20.2737 18.1785C20.696 17.4471 21.0869 16.7189 21.4457 16.0001C21.0869 15.2812 20.6959 14.553 20.2736 13.8215C19.8512 13.09 19.416 12.3873 18.9728 11.717C18.1708 11.6683 17.3447 11.6428 16.5001 11.6428C15.6556 11.6428 14.8296 11.6683 14.0277 11.717C13.5845 12.3872 13.1493 13.0899 12.727 13.8214C12.3047 14.5529 11.9137 15.2812 11.5548 16.0001C11.9136 16.719 12.3046 17.4472 12.7269 18.1786C13.1491 18.91 13.5843 19.6126 14.0274 20.2827C14.8294 20.3314 15.6555 20.357 16.5001 20.357C17.3448 20.357 18.171 20.3314 18.9731 20.2827C19.4163 19.6126 19.8514 18.9099 20.2737 18.1785ZM23.0815 12.2003C22.9056 12.69 22.7114 13.1906 22.4993 13.6998C22.3393 13.4073 22.1747 13.1144 22.0056 12.8215C21.8365 12.5286 21.6651 12.2396 21.4917 11.9547C22.0388 12.0257 22.5695 12.1078 23.0815 12.2003ZM23.6946 10.2797C22.5617 10.0655 21.3508 9.90104 20.0837 9.79292C19.3566 8.74974 18.6088 7.78347 17.8569 6.90959C18.3017 6.45749 18.7411 6.04729 19.1705 5.68256C20.2183 4.79251 21.1634 4.2101 21.9442 3.92864C22.7307 3.64513 23.2135 3.71012 23.5003 3.8757C23.7871 4.04127 24.0848 4.42692 24.2325 5.24981C24.3791 6.06673 24.3473 7.1764 24.1004 8.52884C23.9992 9.083 23.8637 9.66857 23.6946 10.2797ZM13.8301 5.68272C14.2594 6.04741 14.6988 6.45756 15.1435 6.9096C14.3917 7.78347 13.6439 8.74973 12.9168 9.79289C11.6497 9.901 10.4388 10.0655 9.30594 10.2797C9.13686 9.66859 9.00135 9.0831 8.90019 8.52901C8.65329 7.17657 8.62145 6.06689 8.7681 5.24997C8.91582 4.42708 9.21352 4.04144 9.50031 3.87586C9.78709 3.71029 10.2699 3.64529 11.0564 3.92881C11.8372 4.21027 12.7823 4.79267 13.8301 5.68272ZM6.22993 13.1536C6.76045 12.9641 7.33534 12.7887 7.94921 12.6296C8.33014 13.7178 8.79313 14.8487 9.33307 16.0001C8.79321 17.1514 8.33029 18.2822 7.94941 19.3702C7.33546 19.2111 6.7605 19.0357 6.22993 18.8462C4.93523 18.3838 3.95831 17.8565 3.32416 17.321C2.68537 16.7817 2.50024 16.331 2.50024 15.9999C2.50024 15.6687 2.68537 15.2181 3.32416 14.6787C3.95831 14.1433 4.93523 13.616 6.22993 13.1536ZM9.919 12.2002C10.0949 12.6899 10.2891 13.1906 10.5012 13.6998C10.6612 13.4073 10.8258 13.1143 10.995 12.8214C11.1641 12.5285 11.3354 12.2395 11.5088 11.9547C10.9617 12.0256 10.431 12.1078 9.919 12.2002ZM9.91919 19.7996C10.0951 19.31 10.2892 18.8095 10.5012 18.3004C10.6612 18.5929 10.8257 18.8857 10.9948 19.1786C11.1639 19.4714 11.3352 19.7603 11.5085 20.045C10.9616 19.9741 10.4311 19.892 9.91919 19.7996ZM17.5075 9.65441C17.1726 9.21626 16.8362 8.7979 16.5002 8.40081C16.1642 8.7979 15.8278 9.21626 15.493 9.65441C15.8262 9.6467 16.162 9.64279 16.5001 9.64279C16.8383 9.64279 17.1742 9.6467 17.5075 9.65441ZM17.7144 15.9998C17.7144 16.6705 17.1707 17.2141 16.5001 17.2141C15.8295 17.2141 15.2859 16.6705 15.2859 15.9998C15.2859 15.3292 15.8295 14.7856 16.5001 14.7856C17.1707 14.7856 17.7144 15.3292 17.7144 15.9998ZM19.7144 15.9998C19.7144 17.775 18.2753 19.2141 16.5001 19.2141C14.7249 19.2141 13.2859 17.775 13.2859 15.9998C13.2859 14.2247 14.7249 12.7856 16.5001 12.7856C18.2753 12.7856 19.7144 14.2247 19.7144 15.9998Z" fill="#111827"/>
</g>
<defs>
<clipPath id="clip0_6_1461">
<rect width="32" height="32" fill="white" transform="translate(0.5)"/>
</clipPath>
</defs>
</svg>
