<svg width="33" height="33" viewBox="0 0 33 33" fill="none" xmlns="http://www.w3.org/2000/svg">
<path fill-rule="evenodd" clip-rule="evenodd" d="M2.50085 16.4998C2.50085 8.76834 8.76846 2.50073 16.4999 2.50073C24.2314 2.50073 30.499 8.76834 30.499 16.4998C30.499 24.2313 24.2314 30.4989 16.4999 30.4989C8.76846 30.4989 2.50085 24.2313 2.50085 16.4998ZM16.4999 0.500732C7.66389 0.500732 0.500854 7.66377 0.500854 16.4998C0.500854 25.3359 7.66389 32.4989 16.4999 32.4989C25.336 32.4989 32.499 25.3359 32.499 16.4998C32.499 7.66377 25.336 0.500732 16.4999 0.500732ZM7.50055 16.4998C7.50055 11.5296 11.5297 7.50042 16.4999 7.50042C21.4702 7.50042 25.4993 11.5296 25.4993 16.4998C25.4993 21.47 21.4702 25.4992 16.4999 25.4992C11.5297 25.4992 7.50055 21.47 7.50055 16.4998ZM16.4999 5.50042C10.4251 5.50042 5.50055 10.425 5.50055 16.4998C5.50055 22.5746 10.4251 27.4992 16.4999 27.4992C22.5747 27.4992 27.4993 22.5746 27.4993 16.4998C27.4993 10.425 22.5747 5.50042 16.4999 5.50042Z" fill="#111827"/>
</svg>
