<svg width="32" height="32" viewBox="0 0 32 32" fill="none" xmlns="http://www.w3.org/2000/svg">
<path d="M19 29L16 25.999L19 23" stroke="#1C1B1F" stroke-width="2" stroke-linecap="round" stroke-linejoin="round"/>
<path d="M24.3284 9.39905L23.2296 13.4977L19.1323 12.399" stroke="#1C1B1F" stroke-width="2" stroke-linecap="round" stroke-linejoin="round"/>
<path d="M9.86959 17.5962L8.77059 13.4977L4.67334 14.5962" stroke="#1C1B1F" stroke-width="2" stroke-linecap="round" stroke-linejoin="round"/>
<path d="M16 25.9991H26.997C27.3483 25.9991 27.6934 25.9066 27.9975 25.7309C28.3017 25.5552 28.5542 25.3024 28.7296 24.9981C28.9051 24.6938 28.9973 24.3487 28.997 23.9974C28.9967 23.6462 28.9039 23.3012 28.728 22.9972L25.7341 17.8248" stroke="#1C1B1F" stroke-width="2" stroke-linecap="round" stroke-linejoin="round"/>
<path d="M8.7705 13.4976L3.27198 22.9971C3.09602 23.3011 3.00322 23.6461 3.00293 23.9973C3.00264 24.3486 3.09487 24.6937 3.27033 24.998C3.44579 25.3023 3.6983 25.5551 4.00246 25.7308C4.30661 25.9065 4.65167 25.999 5.00294 25.999H11" stroke="#1C1B1F" stroke-width="2" stroke-linecap="round" stroke-linejoin="round"/>
<path d="M23.2296 13.4976L17.731 3.99809C17.5554 3.69457 17.3029 3.44258 16.9991 3.2674C16.6953 3.09222 16.3508 3 16.0001 3C15.6494 3 15.3049 3.09222 15.001 3.2674C14.6972 3.44258 14.4448 3.69457 14.2691 3.99809L11.2754 9.17025" stroke="#1C1B1F" stroke-width="2" stroke-linecap="round" stroke-linejoin="round"/>
</svg>
