<svg width="33" height="32" viewBox="0 0 33 32" fill="none" xmlns="http://www.w3.org/2000/svg">
<path fill-rule="evenodd" clip-rule="evenodd" d="M14.8478 0.441523C15.3503 0.151785 15.9202 -0.000732422 16.5002 -0.000732422C17.0802 -0.000732422 17.6501 0.151785 18.1525 0.441523C18.655 0.731262 19.0725 1.14803 19.3631 1.65003L18.5653 2.11177L19.3631 1.65003L24.5003 10.5253L25.144 8.12429C25.287 7.59084 25.8354 7.27434 26.3689 7.41736C26.9023 7.56038 27.2188 8.10877 27.0758 8.64221L25.8165 13.3393C25.756 13.599 25.5924 13.8341 25.3434 13.9782C25.096 14.1214 24.8128 14.1468 24.5588 14.0716L19.8556 12.8105C19.3222 12.6675 19.0057 12.1191 19.1487 11.5857C19.2917 11.0522 19.8401 10.7358 20.3736 10.8788L22.7652 11.5201L17.6321 2.65194C17.5172 2.45346 17.3522 2.28868 17.1535 2.17413C16.9548 2.05957 16.7295 1.99927 16.5002 1.99927C16.2709 1.99927 16.0456 2.05957 15.8469 2.17413C15.6482 2.28868 15.4832 2.45346 15.3683 2.65194L11.9137 8.62023C11.637 9.09822 11.0253 9.26142 10.5473 8.98475C10.0693 8.70808 9.9061 8.09631 10.1828 7.61832L13.6373 1.65003L14.5028 2.15099L13.6373 1.65003C13.9279 1.14803 14.3454 0.731261 14.8478 0.441523ZM9.13232 12.8883C9.07227 12.6277 8.90847 12.3917 8.65875 12.2471C8.48464 12.1463 8.29278 12.1039 8.10583 12.1138C8.03699 12.1174 7.96747 12.1282 7.89821 12.1468L3.17078 13.4143C2.63733 13.5573 2.32083 14.1057 2.46385 14.6391C2.60687 15.1726 3.15526 15.4891 3.6887 15.346L6.0808 14.7047L0.947438 23.5734C0.656404 24.0762 0.502925 24.6468 0.502443 25.2277C0.501964 25.8087 0.654499 26.3795 0.944701 26.8828C1.2349 27.3861 1.65254 27.8041 2.15558 28.0947C2.65863 28.3853 3.22934 28.5383 3.8103 28.5383H10.7304C11.2827 28.5383 11.7304 28.0906 11.7304 27.5383C11.7304 26.986 11.2827 26.5383 10.7304 26.5383H3.8103C3.58061 26.5383 3.35496 26.4778 3.15606 26.3629C2.95717 26.248 2.79204 26.0828 2.6773 25.8838C2.56256 25.6848 2.50225 25.4591 2.50244 25.2294C2.50263 24.9997 2.56332 24.7741 2.67839 24.5753L7.81561 15.7L8.45932 18.1006C8.60236 18.634 9.15076 18.9505 9.6842 18.8075C10.2176 18.6644 10.5341 18.116 10.3911 17.5826L9.13232 12.8883ZM28.5979 17.605C28.3212 17.127 27.7094 16.9638 27.2314 17.2405C26.7535 17.5172 26.5903 18.129 26.8669 18.6069L30.3216 24.5755C30.4367 24.7743 30.4974 24.9999 30.4976 25.2295C30.4978 25.4592 30.4375 25.6849 30.3227 25.8839C30.208 26.0829 30.0429 26.2482 29.844 26.3631C29.6451 26.478 29.4194 26.5385 29.1897 26.5385H18.9144L20.6684 24.7851C21.0589 24.3947 21.0591 23.7615 20.6686 23.3709C20.2781 22.9803 19.645 22.9802 19.2544 23.3707L15.793 26.831C15.6656 26.9583 15.5797 27.1115 15.5354 27.2737C15.5166 27.3421 15.505 27.4135 15.5013 27.487C15.5004 27.5041 15.4999 27.5212 15.4999 27.5385C15.4999 27.822 15.618 28.078 15.8076 28.26L19.2541 31.7077C19.6446 32.0983 20.2778 32.0984 20.6684 31.708C21.0589 31.3175 21.0591 30.6844 20.6686 30.2938L18.9139 28.5385H29.1897C29.7707 28.5385 30.3414 28.3855 30.8444 28.0949C31.3475 27.8042 31.7651 27.3863 32.0553 26.883C32.3455 26.3797 32.4981 25.8089 32.4976 25.2279C32.4971 24.6469 32.3436 24.0763 32.0526 23.5735L28.5979 17.605Z" fill="#111827"/>
</svg>
