<svg width="33" height="32" viewBox="0 0 33 32" fill="none" xmlns="http://www.w3.org/2000/svg">
<path fill-rule="evenodd" clip-rule="evenodd" d="M23.4074 4.56511C23.4961 4.02229 23.9673 3.60803 24.5352 3.60803C25.1663 3.60803 25.6779 4.11964 25.6779 4.75075C25.6779 5.38185 25.1663 5.89346 24.5352 5.89346C23.9041 5.89346 23.3924 5.38185 23.3924 4.75075C23.3924 4.6953 23.3964 4.64077 23.404 4.58744L23.4057 4.57691L23.4074 4.56511ZM21.7418 3.30917C22.2644 2.2987 23.3191 1.60803 24.5352 1.60803C26.2708 1.60803 27.6779 3.01507 27.6779 4.75075C27.6779 6.48642 26.2708 7.89346 24.5352 7.89346C22.9819 7.89346 21.6919 6.76667 21.4378 5.28593L18.3955 4.81787L17.6752 9.13983C20.5836 9.30013 23.273 10.0509 25.4899 11.2389C25.7281 11.0279 25.9902 10.8439 26.2715 10.691C26.8214 10.392 27.4309 10.2193 28.0559 10.1853C28.6808 10.1513 29.3055 10.257 29.8846 10.4946C30.4636 10.7323 30.9824 11.0959 31.4034 11.559C31.8243 12.0222 32.1368 12.5734 32.3181 13.1724C32.4995 13.7715 32.5451 14.4034 32.4517 15.0222C32.3583 15.6411 32.1283 16.2314 31.7782 16.7503C31.5856 17.0359 31.3592 17.2959 31.1047 17.5251C31.3171 18.2456 31.4263 18.9941 31.4275 19.7481L31.4275 19.7498C31.4275 22.8333 29.6212 25.5182 26.9174 27.39C24.2098 29.2646 20.5236 30.392 16.4999 30.392C12.4762 30.392 8.78999 29.2646 6.08237 27.39C3.37866 25.5182 1.57226 22.8333 1.57226 19.7498L1.57227 19.7481C1.57351 18.9942 1.6825 18.2457 1.89483 17.525C1.64042 17.2959 1.41415 17.0359 1.2215 16.7503C0.87143 16.2315 0.641336 15.6411 0.547927 15.0222C0.454518 14.4033 0.50014 13.7714 0.681479 13.1723C0.862818 12.5733 1.17532 12.0221 1.59628 11.5589C2.01725 11.0957 2.53611 10.7321 3.11516 10.4944C3.69422 10.2568 4.31893 10.1512 4.94392 10.1851C5.56891 10.2191 6.17849 10.3919 6.72836 10.6909C7.00967 10.8439 7.27173 11.0279 7.50993 11.2389C9.80931 10.0067 12.617 9.24487 15.6501 9.1244L16.5851 3.51493C16.6751 2.97496 17.1825 2.60771 17.7235 2.69095L21.7418 3.30917ZM25.1663 13.3563C22.8887 11.9718 19.8616 11.1095 16.5113 11.1076L16.4912 11.1076C13.1398 11.1091 10.1117 11.9714 7.83355 13.3563C7.38903 13.6266 6.81156 13.5108 6.50549 13.0902C6.31207 12.8244 6.06198 12.6051 5.77294 12.4479C5.48402 12.2908 5.16373 12.2001 4.83533 12.1822C4.50694 12.1643 4.1787 12.2199 3.87444 12.3447C3.57019 12.4696 3.29756 12.6606 3.07637 12.904C2.85518 13.1474 2.69098 13.437 2.5957 13.7518C2.50042 14.0665 2.47645 14.3986 2.52553 14.7238C2.57461 15.049 2.69551 15.3591 2.87945 15.6318C3.06347 15.9045 3.30559 16.1326 3.58863 16.2998C4.01516 16.5517 4.19294 17.078 4.00658 17.537C3.72108 18.2402 3.57363 18.9917 3.57226 19.7506C3.57257 21.992 4.88396 24.1279 7.22079 25.7457C9.55397 27.3609 12.8316 28.392 16.4999 28.392C20.1682 28.392 23.4458 27.3609 25.779 25.7457C28.1159 24.1278 29.4273 21.9918 29.4275 19.7503C29.4261 18.9917 29.2785 18.2404 28.993 17.5371C28.8066 17.0781 28.9844 16.5519 29.4109 16.2999C29.694 16.1327 29.9363 15.9044 30.1202 15.6318C30.3042 15.3592 30.425 15.049 30.4741 14.7238C30.5232 14.3987 30.4992 14.0666 30.4039 13.7519C30.3086 13.4371 30.1444 13.1475 29.9233 12.9042C29.7021 12.6608 29.4295 12.4697 29.1252 12.3449C28.821 12.22 28.4928 12.1645 28.1644 12.1824C27.836 12.2002 27.5157 12.291 27.2268 12.4481C26.9378 12.6052 26.6877 12.8245 26.4943 13.0902C26.1882 13.5109 25.6108 13.6266 25.1663 13.3563ZM21.8566 20.2855C23.04 20.2855 23.9993 19.3261 23.9993 18.1428C23.9993 16.9594 23.04 16 21.8566 16C20.6732 16 19.7139 16.9594 19.7139 18.1428C19.7139 19.3261 20.6732 20.2855 21.8566 20.2855ZM13.2857 18.1428C13.2857 19.3262 12.3264 20.2855 11.143 20.2855C9.95959 20.2855 9.00027 19.3262 9.00027 18.1428C9.00027 16.9594 9.95959 16.0001 11.143 16.0001C12.3264 16.0001 13.2857 16.9594 13.2857 18.1428ZM21.38 24.9244C21.871 24.6717 22.0643 24.0687 21.8115 23.5776C21.5588 23.0866 20.9559 22.8933 20.4648 23.1461C19.2383 23.7772 17.8789 24.1065 16.4996 24.1065C15.1202 24.1065 13.7608 23.7772 12.5344 23.1461C12.0433 22.8934 11.4403 23.0866 11.1876 23.5777C10.9349 24.0687 11.1281 24.6717 11.6192 24.9244C13.1287 25.7013 14.8019 26.1065 16.4996 26.1065C18.1973 26.1065 19.8704 25.7012 21.38 24.9244Z" fill="#111827"/>
</svg>
