<svg width="32" height="32" viewBox="0 0 32 32" fill="none" xmlns="http://www.w3.org/2000/svg">
<path d="M22.4286 8.71432C23.3754 8.71432 24.1429 7.94681 24.1429 7.00004C24.1429 6.05327 23.3754 5.28577 22.4286 5.28577C21.4819 5.28577 20.7144 6.05327 20.7144 7.00004C20.7144 7.94681 21.4819 8.71432 22.4286 8.71432Z" stroke="#1C1B1F" stroke-width="2" stroke-linecap="round" stroke-linejoin="round"/>
<path d="M19.5386 22.4286C18.4441 22.9918 17.231 23.2857 16.0001 23.2857C14.7692 23.2857 13.5561 22.9918 12.4617 22.4286" stroke="#1C1B1F" stroke-width="2" stroke-linecap="round" stroke-linejoin="round"/>
<path d="M16 11.2858L16.8571 6.14294L20.7341 6.7394" stroke="#1C1B1F" stroke-width="2" stroke-linecap="round" stroke-linejoin="round"/>
<path d="M8.65097 13.2013C10.6126 12.0088 13.1844 11.2858 16.0001 11.2858C18.8158 11.2858 21.3875 12.0088 23.3492 13.2013L23.349 13.2015C23.5738 12.8927 23.8644 12.6378 24.2 12.4554C24.5355 12.273 24.9075 12.1676 25.2888 12.1468C25.6702 12.1261 26.0514 12.1906 26.4047 12.3356C26.758 12.4806 27.0746 12.7025 27.3315 12.9851C27.5884 13.2677 27.779 13.604 27.8897 13.9696C28.0004 14.3351 28.0282 14.7207 27.9712 15.0984C27.9142 15.476 27.7738 15.8362 27.5602 16.1529C27.3467 16.4695 27.0652 16.7345 26.7364 16.9288L26.7366 16.9287C27.0038 17.5867 27.1417 18.2899 27.1429 19C27.1429 23.2605 22.1541 26.7142 16.0001 26.7142C9.84608 26.7142 4.85728 23.2605 4.85728 19C4.85845 18.2899 4.99638 17.5867 5.26352 16.9287L5.26374 16.9288C4.93489 16.7345 4.65343 16.4695 4.43982 16.1529C4.2262 15.8362 4.0858 15.476 4.0288 15.0984C3.9718 14.7207 3.99964 14.3351 4.11029 13.9695C4.22095 13.604 4.41164 13.2676 4.66852 12.985C4.9254 12.7023 5.24201 12.4804 5.59535 12.3354C5.9487 12.1904 6.32991 12.126 6.71128 12.1467C7.09266 12.1674 7.46463 12.2729 7.80017 12.4553C8.13571 12.6378 8.4264 12.8927 8.65111 13.2015L8.65097 13.2013Z" stroke="#1C1B1F" stroke-width="2" stroke-linecap="round" stroke-linejoin="round"/>
<path d="M11.7143 19.4286C12.661 19.4286 13.4286 18.661 13.4286 17.7143C13.4286 16.7675 12.661 16 11.7143 16C10.7675 16 10 16.7675 10 17.7143C10 18.661 10.7675 19.4286 11.7143 19.4286Z" fill="#1C1B1F"/>
<path d="M20.2858 19.4286C21.2326 19.4286 22.0001 18.661 22.0001 17.7143C22.0001 16.7675 21.2326 16 20.2858 16C19.339 16 18.5715 16.7675 18.5715 17.7143C18.5715 18.661 19.339 19.4286 20.2858 19.4286Z" fill="#1C1B1F"/>
</svg>
