<svg width="33" height="32" viewBox="0 0 33 32" fill="none" xmlns="http://www.w3.org/2000/svg">
<mask id="path-1-inside-1_6_1676" fill="white">
<path d="M14.7752 3.15083C14.7752 3.16333 14.9252 3.44457 15.1127 3.79457C15.3002 4.13831 15.4314 4.43206 15.4127 4.45081C15.3939 4.46331 14.8689 4.6633 14.2502 4.88205C13.6252 5.10705 13.1314 5.29454 13.1377 5.30079C13.1439 5.30704 13.8502 5.38204 14.7002 5.46329C15.7252 5.55704 16.2627 5.62579 16.3002 5.66954C16.3314 5.70079 16.5689 6.08203 16.8251 6.50703L17.2876 7.28202L17.3689 7.08827C17.4126 6.98827 17.5564 6.64453 17.6814 6.33828L17.9126 5.78204L19.1439 5.65079C19.8188 5.57579 20.4188 5.51954 20.4813 5.51954L20.5876 5.47579C20.5876 5.45704 20.1313 5.26955 19.5689 5.05705C19.0126 4.8508 18.5501 4.66955 18.5501 4.6633C18.5501 4.65705 18.6689 4.36331 18.8189 4.00706C18.9626 3.65082 19.0751 3.35082 19.0689 3.34457C19.0564 3.33207 18.5814 3.47582 18.0189 3.65707L17.0001 3.99456L15.9064 3.56332C14.8314 3.13833 14.7752 3.11958 14.7752 3.15083ZM21.5626 6.84452C20.2563 7.36327 19.1814 7.79451 19.1751 7.80701C19.1626 7.81951 20.1376 8.21325 21.3376 8.68825L23.5125 9.54448L23.7438 9.45074C26.1688 8.507 28.3687 7.63201 28.3625 7.61951L23.9938 5.90079C23.95 5.90704 22.8626 6.32578 21.5626 6.84452ZM9.02526 6.33828C7.76902 6.46953 6.71904 6.83202 6.27529 7.29452C5.96905 7.60701 5.91905 7.87576 6.1128 8.20075C6.39404 8.68825 7.31903 9.09449 8.59401 9.30074C9.169 9.40074 10.8502 9.38199 11.4315 9.28199C12.794 9.04449 13.6814 8.607 13.8877 8.057C13.9627 7.85076 13.9627 7.82576 13.8877 7.62576C13.6814 7.09452 12.8127 6.65078 11.5252 6.42578C10.8752 6.31953 9.66275 6.27578 9.02526 6.33828ZM32.3562 7.85076C32.2937 7.93201 32.0624 8.1195 31.8374 8.2695C31.1749 8.6945 30.325 9.08199 25.0188 11.3695C21.2876 12.9694 20.3376 13.3944 19.0501 14.0132C17.6189 14.6944 17.0251 14.8882 16.3064 14.8882C15.6627 14.8882 15.2752 14.7757 14.0752 14.2444C13.5939 14.0319 11.6252 13.2069 9.7065 12.4069C1.30037 8.91324 1.14412 8.83824 0.694125 8.35075C0.627868 8.27787 0.506627 8.32474 0.506627 8.42324V11.1421C0.506627 11.3314 0.583286 11.5126 0.719124 11.6445C0.925371 11.8445 1.61911 12.2632 1.86286 12.3319C1.93161 12.3507 2.38785 12.5382 2.88159 12.7507C3.37534 12.9632 5.7878 13.9757 8.24402 15.0007C12.3065 16.6944 13.2314 17.0819 14.6189 17.6881C15.3502 18.0131 15.7564 18.0944 16.4501 18.0694C16.9564 18.0506 17.1064 18.0194 17.5501 17.8694C17.8376 17.7756 18.3314 17.5631 18.6501 17.4006C19.7064 16.8694 20.9813 16.3069 26.0625 14.1194C30.8437 12.0569 31.4687 11.7695 31.9874 11.4132C32.5187 11.032 32.4999 11.1257 32.4999 9.28824C32.4999 8.407 32.4937 7.68826 32.4874 7.68826L32.3562 7.85076ZM15.6189 10.0007C13.6627 10.3007 12.044 10.557 12.0127 10.5695C11.969 10.582 16.8876 12.6507 17.0939 12.7069L19.3439 9.47574C19.3376 9.43199 19.3439 9.42574 15.6189 10.0007ZM32.3874 13.2757C32.3437 13.3507 32.1374 13.5257 31.9437 13.6694C31.3062 14.1069 30.35 14.5444 24.5375 17.0444C21.1938 18.4881 20.1438 18.9506 19.1501 19.4318C17.5376 20.2131 17.1501 20.3381 16.2877 20.3381C15.6189 20.3318 15.2064 20.2256 14.3189 19.8256C13.4627 19.4318 12.5065 19.0318 8.66901 17.4381C1.97536 14.6632 1.20662 14.3132 0.731624 13.8569C0.644244 13.7743 0.500377 13.8362 0.500377 13.9565V16.5256C0.500377 16.7571 0.595249 16.9785 0.762874 17.1381C1.18787 17.5381 1.14412 17.5131 8.31902 20.5006C10.9502 21.5943 13.4314 22.638 13.8314 22.8193C14.8877 23.2943 15.1939 23.4068 15.6127 23.4943C16.5876 23.6943 17.3126 23.5318 18.8939 22.763C19.9251 22.2631 21.1813 21.7068 24.225 20.3943C30.0125 17.9006 31.4374 17.2569 31.8624 16.9756C32.0124 16.8694 32.2187 16.7006 32.3187 16.5881L32.4999 16.3881V14.7632C32.4999 13.8694 32.4937 13.1382 32.4874 13.1382L32.3874 13.2757ZM32.3312 18.6006C31.9499 19.0818 31.1812 19.4506 25.2125 22.0193C21.3188 23.7005 20.1313 24.2255 18.8501 24.8318C17.5064 25.4693 17.0626 25.6068 16.2877 25.6068C15.7564 25.6068 15.2189 25.4818 14.6252 25.2193C13.2314 24.6068 12.3127 24.2193 8.24402 22.5255C3.61908 20.6006 2.13785 19.9693 1.64411 19.7256C1.18162 19.4943 0.701219 19.1667 0.594971 18.9979C0.568625 18.9534 0.500377 18.9721 0.500377 19.0238V20.4943C0.500377 22.3943 0.469128 22.2506 0.975371 22.5943C1.53786 22.9693 2.37535 23.3443 7.93152 25.6505C11.8127 27.263 13.2127 27.8505 13.9002 28.163C15.3064 28.7942 15.6814 28.8942 16.4689 28.8505C17.1876 28.8192 17.6564 28.663 18.9001 28.0692C20.1938 27.4505 21.1501 27.0192 25.3813 25.2005C31.2562 22.6693 31.8937 22.3631 32.3374 21.8506L32.4937 21.6756V20.0568C32.4937 19.1631 32.4874 18.4319 32.4812 18.4319L32.3312 18.6006Z"/>
</mask>
<path d="M14.7752 3.15083C14.7752 3.16333 14.9252 3.44457 15.1127 3.79457C15.3002 4.13831 15.4314 4.43206 15.4127 4.45081C15.3939 4.46331 14.8689 4.6633 14.2502 4.88205C13.6252 5.10705 13.1314 5.29454 13.1377 5.30079C13.1439 5.30704 13.8502 5.38204 14.7002 5.46329C15.7252 5.55704 16.2627 5.62579 16.3002 5.66954C16.3314 5.70079 16.5689 6.08203 16.8251 6.50703L17.2876 7.28202L17.3689 7.08827C17.4126 6.98827 17.5564 6.64453 17.6814 6.33828L17.9126 5.78204L19.1439 5.65079C19.8188 5.57579 20.4188 5.51954 20.4813 5.51954L20.5876 5.47579C20.5876 5.45704 20.1313 5.26955 19.5689 5.05705C19.0126 4.8508 18.5501 4.66955 18.5501 4.6633C18.5501 4.65705 18.6689 4.36331 18.8189 4.00706C18.9626 3.65082 19.0751 3.35082 19.0689 3.34457C19.0564 3.33207 18.5814 3.47582 18.0189 3.65707L17.0001 3.99456L15.9064 3.56332C14.8314 3.13833 14.7752 3.11958 14.7752 3.15083ZM21.5626 6.84452C20.2563 7.36327 19.1814 7.79451 19.1751 7.80701C19.1626 7.81951 20.1376 8.21325 21.3376 8.68825L23.5125 9.54448L23.7438 9.45074C26.1688 8.507 28.3687 7.63201 28.3625 7.61951L23.9938 5.90079C23.95 5.90704 22.8626 6.32578 21.5626 6.84452ZM9.02526 6.33828C7.76902 6.46953 6.71904 6.83202 6.27529 7.29452C5.96905 7.60701 5.91905 7.87576 6.1128 8.20075C6.39404 8.68825 7.31903 9.09449 8.59401 9.30074C9.169 9.40074 10.8502 9.38199 11.4315 9.28199C12.794 9.04449 13.6814 8.607 13.8877 8.057C13.9627 7.85076 13.9627 7.82576 13.8877 7.62576C13.6814 7.09452 12.8127 6.65078 11.5252 6.42578C10.8752 6.31953 9.66275 6.27578 9.02526 6.33828ZM32.3562 7.85076C32.2937 7.93201 32.0624 8.1195 31.8374 8.2695C31.1749 8.6945 30.325 9.08199 25.0188 11.3695C21.2876 12.9694 20.3376 13.3944 19.0501 14.0132C17.6189 14.6944 17.0251 14.8882 16.3064 14.8882C15.6627 14.8882 15.2752 14.7757 14.0752 14.2444C13.5939 14.0319 11.6252 13.2069 9.7065 12.4069C1.30037 8.91324 1.14412 8.83824 0.694125 8.35075C0.627868 8.27787 0.506627 8.32474 0.506627 8.42324V11.1421C0.506627 11.3314 0.583286 11.5126 0.719124 11.6445C0.925371 11.8445 1.61911 12.2632 1.86286 12.3319C1.93161 12.3507 2.38785 12.5382 2.88159 12.7507C3.37534 12.9632 5.7878 13.9757 8.24402 15.0007C12.3065 16.6944 13.2314 17.0819 14.6189 17.6881C15.3502 18.0131 15.7564 18.0944 16.4501 18.0694C16.9564 18.0506 17.1064 18.0194 17.5501 17.8694C17.8376 17.7756 18.3314 17.5631 18.6501 17.4006C19.7064 16.8694 20.9813 16.3069 26.0625 14.1194C30.8437 12.0569 31.4687 11.7695 31.9874 11.4132C32.5187 11.032 32.4999 11.1257 32.4999 9.28824C32.4999 8.407 32.4937 7.68826 32.4874 7.68826L32.3562 7.85076ZM15.6189 10.0007C13.6627 10.3007 12.044 10.557 12.0127 10.5695C11.969 10.582 16.8876 12.6507 17.0939 12.7069L19.3439 9.47574C19.3376 9.43199 19.3439 9.42574 15.6189 10.0007ZM32.3874 13.2757C32.3437 13.3507 32.1374 13.5257 31.9437 13.6694C31.3062 14.1069 30.35 14.5444 24.5375 17.0444C21.1938 18.4881 20.1438 18.9506 19.1501 19.4318C17.5376 20.2131 17.1501 20.3381 16.2877 20.3381C15.6189 20.3318 15.2064 20.2256 14.3189 19.8256C13.4627 19.4318 12.5065 19.0318 8.66901 17.4381C1.97536 14.6632 1.20662 14.3132 0.731624 13.8569C0.644244 13.7743 0.500377 13.8362 0.500377 13.9565V16.5256C0.500377 16.7571 0.595249 16.9785 0.762874 17.1381C1.18787 17.5381 1.14412 17.5131 8.31902 20.5006C10.9502 21.5943 13.4314 22.638 13.8314 22.8193C14.8877 23.2943 15.1939 23.4068 15.6127 23.4943C16.5876 23.6943 17.3126 23.5318 18.8939 22.763C19.9251 22.2631 21.1813 21.7068 24.225 20.3943C30.0125 17.9006 31.4374 17.2569 31.8624 16.9756C32.0124 16.8694 32.2187 16.7006 32.3187 16.5881L32.4999 16.3881V14.7632C32.4999 13.8694 32.4937 13.1382 32.4874 13.1382L32.3874 13.2757ZM32.3312 18.6006C31.9499 19.0818 31.1812 19.4506 25.2125 22.0193C21.3188 23.7005 20.1313 24.2255 18.8501 24.8318C17.5064 25.4693 17.0626 25.6068 16.2877 25.6068C15.7564 25.6068 15.2189 25.4818 14.6252 25.2193C13.2314 24.6068 12.3127 24.2193 8.24402 22.5255C3.61908 20.6006 2.13785 19.9693 1.64411 19.7256C1.18162 19.4943 0.701219 19.1667 0.594971 18.9979C0.568625 18.9534 0.500377 18.9721 0.500377 19.0238V20.4943C0.500377 22.3943 0.469128 22.2506 0.975371 22.5943C1.53786 22.9693 2.37535 23.3443 7.93152 25.6505C11.8127 27.263 13.2127 27.8505 13.9002 28.163C15.3064 28.7942 15.6814 28.8942 16.4689 28.8505C17.1876 28.8192 17.6564 28.663 18.9001 28.0692C20.1938 27.4505 21.1501 27.0192 25.3813 25.2005C31.2562 22.6693 31.8937 22.3631 32.3374 21.8506L32.4937 21.6756V20.0568C32.4937 19.1631 32.4874 18.4319 32.4812 18.4319L32.3312 18.6006Z" stroke="#111827" stroke-width="4" mask="url(#path-1-inside-1_6_1676)"/>
</svg>
