<svg width="33" height="33" viewBox="0 0 33 33" fill="none" xmlns="http://www.w3.org/2000/svg">
<path d="M15.6661 7.3301C15.6661 7.33947 15.7786 7.55041 15.9192 7.8129C16.0598 8.07071 16.1583 8.29102 16.1442 8.30508C16.1302 8.31446 15.7364 8.46446 15.2724 8.62852C14.8036 8.79727 14.4333 8.93789 14.438 8.94258C14.4427 8.94726 14.9724 9.00351 15.6098 9.06445C16.3786 9.13476 16.7817 9.18632 16.8098 9.21913C16.8333 9.24257 17.0114 9.5285 17.2036 9.84725L17.5504 10.4285L17.6114 10.2832C17.6442 10.2082 17.752 9.95037 17.8458 9.72069L18.0192 9.30351L18.9426 9.20507C19.4489 9.14882 19.8988 9.10664 19.9457 9.10664L20.0254 9.07382C20.0254 9.05976 19.6832 8.91914 19.2614 8.75977C18.8442 8.60508 18.4973 8.46915 18.4973 8.46446C18.4973 8.45977 18.5864 8.23946 18.6989 7.97228C18.8067 7.70509 18.8911 7.4801 18.8864 7.47541C18.877 7.46603 18.5207 7.57385 18.0989 7.70978L17.3348 7.9629L16.5145 7.63947C15.7083 7.32072 15.6661 7.30666 15.6661 7.3301ZM20.7566 10.1004C19.777 10.4894 18.9707 10.8129 18.966 10.8222C18.9567 10.8316 19.6879 11.1269 20.5879 11.4832L22.2191 12.1253L22.3926 12.055C24.2113 11.3472 25.8613 10.691 25.8566 10.6816L22.5801 9.39257C22.5472 9.39726 21.7316 9.71131 20.7566 10.1004ZM11.3537 9.72069C10.4115 9.81913 9.624 10.091 9.29119 10.4379C9.0615 10.6722 9.024 10.8738 9.16931 11.1175C9.38025 11.4832 10.074 11.7878 11.0302 11.9425C11.4615 12.0175 12.7224 12.0035 13.1583 11.9285C14.1802 11.7503 14.8458 11.4222 15.0005 11.0097C15.0567 10.855 15.0567 10.8363 15.0005 10.6863C14.8458 10.2879 14.1942 9.95506 13.2286 9.78631C12.7411 9.70663 11.8318 9.67382 11.3537 9.72069ZM28.8518 10.855C28.805 10.916 28.6315 11.0566 28.4628 11.1691C27.9659 11.4879 27.3284 11.7785 23.3488 13.4941C20.5504 14.6941 19.8379 15.0128 18.8723 15.4769C17.7989 15.9878 17.3536 16.1331 16.8145 16.1331C16.3317 16.1331 16.0411 16.0487 15.1411 15.6503C14.7802 15.4909 13.3036 14.8722 11.8646 14.2722C5.55999 11.6519 5.44281 11.5957 5.10531 11.23L4.96469 11.0754V13.5456L5.12406 13.7003C5.27875 13.8503 5.79905 14.1644 5.98186 14.2159C6.03342 14.23 6.3756 14.3706 6.74591 14.53C7.11622 14.6894 8.92557 15.4487 10.7677 16.2175C13.8146 17.4878 14.5083 17.7784 15.5489 18.2331C16.0973 18.4768 16.402 18.5378 16.9223 18.519C17.302 18.5049 17.4145 18.4815 17.7473 18.369C17.9629 18.2987 18.3332 18.1393 18.5723 18.0174C19.3645 17.619 20.3207 17.1971 24.1316 15.5565C27.7175 14.0097 28.1862 13.7941 28.5753 13.5269C28.9737 13.241 28.9597 13.3113 28.9597 11.9332C28.9597 11.2722 28.955 10.7332 28.9503 10.7332L28.8518 10.855ZM16.2989 12.4675C14.8317 12.6925 13.6177 12.8847 13.5943 12.8941C13.5614 12.9035 17.2504 14.455 17.4051 14.4972L19.0926 12.0738C19.0879 12.041 19.0926 12.0363 16.2989 12.4675ZM28.8753 14.9237C28.8425 14.98 28.6878 15.1112 28.5425 15.219C28.0644 15.5472 27.3472 15.8753 22.9879 17.7503C20.4801 18.8331 19.6926 19.1799 18.9473 19.5409C17.7379 20.1268 17.4473 20.2205 16.8005 20.2205C16.2989 20.2159 15.9895 20.1362 15.3239 19.8362C14.6817 19.5409 13.9646 19.2409 11.0865 18.0456C6.06623 15.9644 5.48968 15.7019 5.13343 15.3597L4.96 15.1956V17.6331L5.15687 17.8206C5.47562 18.1206 5.44281 18.1018 10.824 20.3424C12.7974 21.1627 14.6583 21.9455 14.9583 22.0815C15.7505 22.4377 15.9802 22.5221 16.2942 22.5877C17.0255 22.7377 17.5692 22.6158 18.7551 22.0393C19.5285 21.6643 20.4707 21.2471 22.7535 20.2627C27.0941 18.3924 28.1628 17.9096 28.4815 17.6987C28.594 17.619 28.7487 17.4925 28.8237 17.4081L28.9597 17.2581V16.0393C28.9597 15.369 28.955 14.8206 28.9503 14.8206L28.8753 14.9237ZM28.8331 18.9174C28.5472 19.2784 27.9706 19.5549 23.4941 21.4815C20.5738 22.7424 19.6832 23.1361 18.7223 23.5908C17.7145 24.0689 17.3817 24.172 16.8005 24.172C16.402 24.172 15.9989 24.0783 15.5536 23.8814C14.5083 23.4221 13.8192 23.1314 10.7677 21.8611C7.29903 20.4174 6.18811 19.944 5.8178 19.7612C5.47093 19.5877 5.11937 19.3393 5.03969 19.2127L4.96 19.0956V20.3377C4.96 21.7627 4.93656 21.6549 5.31624 21.9127C5.73811 22.1939 6.36623 22.4752 10.5334 24.2049C13.4443 25.4142 14.4942 25.8548 15.0099 26.0892C16.0645 26.5626 16.3458 26.6376 16.9364 26.6048C17.4754 26.5814 17.827 26.4642 18.7598 26.0189C19.7301 25.5548 20.4473 25.2314 23.6207 23.8674C28.0269 21.969 28.505 21.7393 28.8378 21.3549L28.955 21.2236V20.0096C28.955 19.3393 28.9503 18.7909 28.9456 18.7909L28.8331 18.9174Z" fill="#1C1B1F"/>
</svg>
