<svg width="32" height="32" viewBox="0 0 32 32" fill="none" xmlns="http://www.w3.org/2000/svg">
<g clip-path="url(#clip0_728_320)">
<path fill-rule="evenodd" clip-rule="evenodd" d="M8.72076 15.8984C8.93463 15.8984 9.10802 16.0718 9.10802 16.2857C9.10802 19.1136 10.6045 21.5923 12.8505 22.9725C13.0328 23.0845 13.0897 23.323 12.9777 23.5052C12.8657 23.6875 12.6272 23.7444 12.445 23.6324C9.97926 22.1171 8.3335 19.3938 8.3335 16.2857C8.3335 16.0718 8.50688 15.8984 8.72076 15.8984Z" fill="#111827"/>
<path fill-rule="evenodd" clip-rule="evenodd" d="M16.9506 8.44322C16.0797 8.44322 15.2427 8.58502 14.461 8.8465C14.2582 8.91435 14.0387 8.80492 13.9709 8.60209C13.903 8.39926 14.0125 8.17983 14.2153 8.11198C15.0752 7.82435 15.9951 7.6687 16.9506 7.6687C20.4149 7.6687 23.4009 9.713 24.7696 12.6594C24.8597 12.8534 24.7755 13.0836 24.5815 13.1738C24.3876 13.2639 24.1573 13.1797 24.0672 12.9857C22.8207 10.3025 20.1024 8.44322 16.9506 8.44322ZM11.431 10.1691C11.5815 10.3209 11.5805 10.5661 11.4286 10.7167C10.7835 11.3564 10.2491 12.1073 9.85635 12.9379C9.76493 13.1312 9.53408 13.2139 9.34072 13.1224C9.14737 13.031 9.06473 12.8002 9.15615 12.6068C9.5878 11.6938 10.175 10.8691 10.8833 10.1668C11.0352 10.0162 11.2804 10.0172 11.431 10.1691Z" fill="#111827"/>
<path fill-rule="evenodd" clip-rule="evenodd" d="M16.7332 7.08257C11.649 7.08257 7.65093 11.2459 7.65093 16.3396C7.65093 21.4309 11.82 25.6889 16.9064 25.6889C21.9971 25.6889 26.2582 21.4907 26.2582 16.4035C26.2582 15.8497 26.1973 15.1453 26.104 14.6194L26.087 14.5236L29.0461 11.3832L29.3279 11.6487L26.5017 14.6481C26.5897 15.1839 26.6455 15.8609 26.6455 16.4035C26.6455 21.7081 22.2074 26.0762 16.9064 26.0762C11.6012 26.0762 7.26367 21.6398 7.26367 16.3396C7.26367 11.0415 11.4257 6.69531 16.7332 6.69531C20.5477 6.69531 24.1335 8.93654 25.6971 12.1725L28.1804 9.39552L28.4691 9.65367L25.589 12.8744L25.4678 12.5995C24.042 9.3653 20.5069 7.08257 16.7332 7.08257Z" fill="#111827"/>
<path fill-rule="evenodd" clip-rule="evenodd" d="M16.9296 3.78415C10.0727 3.78415 4.51419 9.3427 4.51419 16.1995C4.51419 18.6721 5.23617 20.9736 6.48055 22.9077L6.84886 23.4801L2.16432 27.4298C1.39211 28.0727 1.33889 29.24 2.0494 29.9505C2.75992 30.6611 3.92722 30.6078 4.57014 29.8356L4.57409 29.8309L8.42642 25.2782L9.01665 25.767C11.1653 27.5462 13.9216 28.6149 16.9296 28.6149C23.7864 28.6149 29.345 23.0564 29.345 16.1995C29.345 14.5743 29.2118 13.2025 28.6454 11.782L29.7727 10.6308C30.4107 12.2308 30.894 14.3746 30.894 16.1995C30.894 23.9119 24.6419 30.1639 16.9296 30.1639C13.8232 30.1639 10.9522 29.1488 8.63247 27.4328L5.76059 30.8268L5.75855 30.8292C4.53221 32.2993 2.30812 32.3999 0.954067 31.0459C-0.400098 29.6917 -0.299361 27.4674 1.17111 26.2411L1.17318 26.2393L4.82241 23.1625C3.64097 21.1124 2.96516 18.7339 2.96516 16.1995C2.96516 8.48719 9.21724 2.23511 16.9296 2.23511C22.126 2.23511 26.6584 5.07379 29.0625 9.28133L27.9247 10.257C25.7851 6.51238 21.5477 3.78415 16.9296 3.78415Z" fill="#111827"/>
<path d="M13.234 23.1935C10.7769 21.8687 9.10802 19.2717 9.10802 16.2856H8.3335C8.3335 19.7144 10.336 22.6747 13.234 24.0622V23.1935Z" fill="#111827"/>
<path d="M23.491 15.3645V15.1565H20.8908V18.0661L23.491 15.3645Z" fill="#111827"/>
<path d="M20.0766 18.6932L20.0766 10.3027H17.4669L17.4669 18.0357L18.0251 17.5151L20.0766 18.6932Z" fill="#111827"/>
<path d="M17.4669 19.0949L18.1352 18.4715L20.0766 19.5863L20.0766 24.3181C19.2595 24.6363 18.3822 24.8334 17.4669 24.8875L17.4669 19.0949Z" fill="#111827"/>
<path d="M16.681 18.7687V12.1706H14.0714V19.1136L15.4244 19.9409L16.681 18.7687Z" fill="#111827"/>
<path d="M14.0714 20.0214L15.5223 20.9087L16.681 19.8279V24.8986C15.7688 24.8706 14.8917 24.7006 14.0714 24.4099V20.0214Z" fill="#111827"/>
<path d="M13.2339 18.6014L13.0713 18.502L10.8827 20.6906L11.4304 21.2382L13.1876 19.481L13.2339 19.5093V24.0259C12.1404 23.5629 11.1206 22.6908 10.6904 22.2559V15.2125H13.2339V18.6014Z" fill="#111827"/>
<path d="M20.8908 19.183L23.491 16.4814V20.6149C23.5855 20.4724 23.6755 20.3267 23.7607 20.1779C23.867 19.9923 24.1037 19.928 24.2893 20.0343C24.4748 20.1406 24.5391 20.3773 24.4328 20.5628C24.1609 21.0375 23.8451 21.4839 23.491 21.8963V21.9056C23.21 22.2344 22.9068 22.5293 22.6052 22.788C22.2637 23.0852 21.8985 23.356 21.5129 23.5972C21.4999 23.6053 21.4866 23.6125 21.4732 23.6189C21.2475 23.7593 21.0479 23.8689 20.8908 23.9461V19.183Z" fill="#111827"/>
<ellipse cx="10.9488" cy="21.151" rx="0.890697" ry="0.890697" fill="white"/>
<ellipse cx="15.5318" cy="20.3975" rx="0.890697" ry="0.890697" fill="white"/>
<ellipse cx="20.2401" cy="19.199" rx="0.890697" ry="0.890697" fill="white"/>
<ellipse cx="13.1517" cy="19.0609" rx="0.890697" ry="0.890697" fill="white"/>
<ellipse cx="18.0772" cy="18.0035" rx="0.890697" ry="0.890697" fill="white"/>
<ellipse cx="22.7886" cy="16.814" rx="0.890697" ry="0.890697" fill="white"/>
<path fill-rule="evenodd" clip-rule="evenodd" d="M25.654 13.4285C25.4368 13.4285 25.2607 13.6045 25.2607 13.8217C25.2607 14.0389 25.4368 14.215 25.654 14.215C25.8712 14.215 26.0473 14.0389 26.0473 13.8217C26.0473 13.6045 25.8712 13.4285 25.654 13.4285ZM24.9509 13.8217C24.9509 13.4334 25.2657 13.1187 25.654 13.1187C26.0423 13.1187 26.3571 13.4334 26.3571 13.8217C26.3571 14.21 26.0423 14.5248 25.654 14.5248C25.2657 14.5248 24.9509 14.21 24.9509 13.8217ZM22.7887 16.4206C22.5715 16.4206 22.3954 16.5967 22.3954 16.8139C22.3954 17.0311 22.5715 17.2072 22.7887 17.2072C23.0059 17.2072 23.182 17.0311 23.182 16.8139C23.182 16.5967 23.0059 16.4206 22.7887 16.4206ZM22.0856 16.8139C22.0856 16.4256 22.4004 16.1108 22.7887 16.1108C23.177 16.1108 23.4918 16.4256 23.4918 16.8139C23.4918 17.2022 23.177 17.517 22.7887 17.517C22.4004 17.517 22.0856 17.2022 22.0856 16.8139ZM18.0773 17.6102C17.8601 17.6102 17.684 17.7863 17.684 18.0035C17.684 18.2207 17.8601 18.3968 18.0773 18.3968C18.2945 18.3968 18.4706 18.2207 18.4706 18.0035C18.4706 17.7863 18.2945 17.6102 18.0773 17.6102ZM17.3742 18.0035C17.3742 17.6152 17.689 17.3004 18.0773 17.3004C18.4656 17.3004 18.7804 17.6152 18.7804 18.0035C18.7804 18.3918 18.4656 18.7066 18.0773 18.7066C17.689 18.7066 17.3742 18.3918 17.3742 18.0035ZM13.1517 18.6674C12.9345 18.6674 12.7584 18.8435 12.7584 19.0607C12.7584 19.2779 12.9345 19.454 13.1517 19.454C13.3689 19.454 13.5449 19.2779 13.5449 19.0607C13.5449 18.8435 13.3689 18.6674 13.1517 18.6674ZM12.4486 19.0607C12.4486 18.6724 12.7634 18.3576 13.1517 18.3576C13.54 18.3576 13.8547 18.6724 13.8547 19.0607C13.8547 19.449 13.54 19.7638 13.1517 19.7638C12.7634 19.7638 12.4486 19.449 12.4486 19.0607ZM20.2401 18.8057C20.0229 18.8057 19.8469 18.9817 19.8469 19.1989C19.8469 19.4161 20.0229 19.5922 20.2401 19.5922C20.4573 19.5922 20.6334 19.4161 20.6334 19.1989C20.6334 18.9817 20.4573 18.8057 20.2401 18.8057ZM19.5371 19.1989C19.5371 18.8106 19.8518 18.4959 20.2401 18.4959C20.6284 18.4959 20.9432 18.8106 20.9432 19.1989C20.9432 19.5872 20.6284 19.902 20.2401 19.902C19.8518 19.902 19.5371 19.5872 19.5371 19.1989ZM15.5318 20.0043C15.3146 20.0043 15.1385 20.1804 15.1385 20.3976C15.1385 20.6148 15.3146 20.7909 15.5318 20.7909C15.749 20.7909 15.925 20.6148 15.925 20.3976C15.925 20.1804 15.749 20.0043 15.5318 20.0043ZM14.8287 20.3976C14.8287 20.0093 15.1435 19.6945 15.5318 19.6945C15.9201 19.6945 16.2348 20.0093 16.2348 20.3976C16.2348 20.7859 15.9201 21.1007 15.5318 21.1007C15.1435 21.1007 14.8287 20.7859 14.8287 20.3976ZM10.9489 20.7577C10.7317 20.7577 10.5557 20.9337 10.5557 21.1509C10.5557 21.3681 10.7317 21.5442 10.9489 21.5442C11.1661 21.5442 11.3422 21.3681 11.3422 21.1509C11.3422 20.9337 11.1661 20.7577 10.9489 20.7577ZM10.2458 21.1509C10.2458 20.7626 10.5606 20.4478 10.9489 20.4478C11.3372 20.4478 11.652 20.7626 11.652 21.1509C11.652 21.5392 11.3372 21.854 10.9489 21.854C10.5606 21.854 10.2458 21.5392 10.2458 21.1509Z" fill="#111827"/>
<path d="M31.9999 7.08252L29.8517 7.70237L30.5176 8.34333L25.762 13.2843C25.8979 13.3116 26.0157 13.3891 26.095 13.4968L30.7966 8.61188L31.4626 9.25284L31.9999 7.08252Z" fill="#111827"/>
<path d="M25.3456 14.2753C25.2348 14.1999 25.153 14.085 25.1206 13.9507L22.8843 16.2741C23.0218 16.2985 23.1416 16.374 23.2233 16.4804L25.3456 14.2753Z" fill="#111827"/>
<path d="M20.5217 18.7288L22.2525 16.9306C22.2819 17.0665 22.3618 17.1837 22.4715 17.2614L20.7633 19.0363C20.723 18.9066 20.6359 18.7975 20.5217 18.7288Z" fill="#111827"/>
<path d="M19.6942 19.1437C19.7079 19.0069 19.7718 18.885 19.8673 18.7966L18.6197 18.0801C18.6007 18.2154 18.5324 18.3349 18.4335 18.4197L19.6942 19.1437Z" fill="#111827"/>
<path d="M17.8289 18.4925L16.0302 20.1702C15.9749 20.0491 15.8768 19.9516 15.7553 19.8971L17.5675 18.2067C17.6171 18.3308 17.7106 18.4325 17.8289 18.4925Z" fill="#111827"/>
<path d="M13.5257 19.461C13.6209 19.3719 13.6843 19.2492 13.697 19.1118L15.1521 20.0017C15.0579 20.0919 14.9959 20.2154 14.9848 20.3533L13.5257 19.461Z" fill="#111827"/>
<path d="M12.6266 19.2205C12.6661 19.3503 12.7524 19.4596 12.8659 19.5289L11.4546 20.9402C11.4033 20.817 11.3083 20.7166 11.189 20.6582L12.6266 19.2205Z" fill="#111827"/>
</g>
<defs>
<clipPath id="clip0_728_320">
<rect width="32" height="32" fill="white"/>
</clipPath>
</defs>
</svg>
