<svg width="32" height="32" viewBox="0 0 32 32" fill="none" xmlns="http://www.w3.org/2000/svg">
<g clip-path="url(#clip0_728_320)">
<path fill-rule="evenodd" clip-rule="evenodd" d="M8.72076 15.8984C8.93463 15.8984 9.10802 16.0718 9.10802 16.2857C9.10802 19.1136 10.6045 21.5923 12.8505 22.9725C13.0328 23.0845 13.0897 23.323 12.9777 23.5052C12.8657 23.6875 12.6272 23.7444 12.445 23.6324C9.97926 22.1171 8.3335 19.3938 8.3335 16.2857C8.3335 16.0718 8.50688 15.8984 8.72076 15.8984Z" fill="#111827"/>
<path fill-rule="evenodd" clip-rule="evenodd" d="M16.9506 8.44322C16.0797 8.44322 15.2427 8.58502 14.461 8.8465C14.2582 8.91435 14.0387 8.80492 13.9709 8.60209C13.903 8.39926 14.0125 8.17983 14.2153 8.11198C15.0752 7.82435 15.9951 7.6687 16.9506 7.6687C20.4149 7.6687 23.4009 9.713 24.7696 12.6594C24.8597 12.8534 24.7755 13.0836 24.5815 13.1738C24.3876 13.2639 24.1573 13.1797 24.0672 12.9857C22.8207 10.3025 20.1024 8.44322 16.9506 8.44322ZM11.431 10.1691C11.5815 10.3209 11.5805 10.5661 11.4286 10.7167C10.7835 11.3564 10.2491 12.1073 9.85635 12.9379C9.76493 13.1312 9.53408 13.2139 9.34072 13.1224C9.14737 13.031 9.06473 12.8002 9.15615 12.6068C9.5878 11.6938 10.175 10.8691 10.8833 10.1668C11.0352 10.0162 11.2804 10.0172 11.431 10.1691Z" fill="#111827"/>
<path fill-rule="evenodd" clip-rule="evenodd" d="M16.7332 7.08257C11.649 7.08257 7.65093 11.2459 7.65093 16.3396C7.65093 21.4309 11.82 25.6889 16.9064 25.6889C21.9971 25.6889 26.2582 21.4907 26.2582 16.4035C26.2582 15.8497 26.1973 15.1453 26.104 14.6194L26.087 14.5236L29.0461 11.3832L29.3279 11.6487L26.5017 14.6481C26.5897 15.1839 26.6455 15.8609 26.6455 16.4035C26.6455 21.7081 22.2074 26.0762 16.9064 26.0762C11.6012 26.0762 7.26367 21.6398 7.26367 16.3396C7.26367 11.0415 11.4257 6.69531 16.7332 6.69531C20.5477 6.69531 24.1335 8.93654 25.6971 12.1725L28.1804 9.39552L28.4691 9.65367L25.589 12.8744L25.4678 12.5995C24.042 9.3653 20.5069 7.08257 16.7332 7.08257Z" fill="#111827"/>
<path fill-rule="evenodd" clip-rule="evenodd" d="M16.9296 3.78415C10.0727 3.78415 4.51419 9.3427 4.51419 16.1995C4.51419 18.6721 5.23617 20.9736 6.48055 22.9077L6.84886 23.4801L2.16432 27.4298C1.39211 28.0727 1.33889 29.24 2.0494 29.9505C2.75992 30.6611 3.92722 30.6078 4.57014 29.8356L4.57409 29.8309L8.42642 25.2782L9.01665 25.767C11.1653 27.5462 13.9216 28.6149 16.9296 28.6149C23.7864 28.6149 29.345 23.0564 29.345 16.1995C29.345 14.5743 29.2118 13.2025 28.6454 11.782L29.7727 10.6308C30.4107 12.2308 30.894 14.3746 30.894 16.1995C30.894 23.9119 24.6419 30.1639 16.9296 30.1639C13.8232 30.1639 10.9522 29.1488 8.63247 27.4328L5.76059 30.8268L5.75855 30.8292C4.53221 32.2993 2.30812 32.3999 0.954067 31.0459C-0.400098 29.6917 -0.299361 27.4674 1.17111 26.2411L1.17318 26.2393L4.82241 23.1625C3.64097 21.1124 2.96516 18.7339 2.96516 16.1995C2.96516 8.48719 9.21724 2.23511 16.9296 2.23511C22.126 2.23511 26.6584 5.07379 29.0625 9.28133L27.9247 10.257C25.7851 6.51238 21.5477 3.78415 16.9296 3.78415Z" fill="#111827"/>
<path d="M13.234 23.1935C10.7769 21.8687 9.10802 19.2717 9.10802 16.2856H8.3335C8.3335 19.7144 10.336 22.6747 13.234 24.0622V23.1935Z" fill="#111827"/>
<path fill-rule="evenodd" clip-rule="evenodd" d="M20.0768 10.3027L20.0768 18.3233C19.9415 18.3484 19.817 18.4041 19.7106 18.4829L18.9667 18.0557C18.9677 18.0384 18.9682 18.021 18.9682 18.0035C18.9682 17.5116 18.5694 17.1128 18.0775 17.1128C17.8413 17.1128 17.6266 17.2047 17.4672 17.3547L17.4672 10.3027H20.0768ZM18.0775 18.8942C17.9615 18.8942 17.8508 18.872 17.7492 18.8318L17.4672 19.0949L17.4672 24.8875C18.3824 24.8334 19.2598 24.6363 20.0768 24.3181L20.0768 20.0748C19.663 19.998 19.3496 19.6351 19.3496 19.199C19.3496 19.189 19.3498 19.179 19.3501 19.169L18.5896 18.7323C18.4448 18.8343 18.2681 18.8942 18.0775 18.8942ZM21.131 19.199C21.131 19.4342 21.0399 19.648 20.891 19.8072V23.9461C21.0481 23.8689 21.2477 23.7593 21.4734 23.6189C21.4869 23.6125 21.5001 23.6053 21.5131 23.5972C21.8988 23.356 22.2639 23.0852 22.6055 22.788C22.907 22.5293 23.2102 22.2344 23.4912 21.9056V21.8963C23.8453 21.4839 24.1611 21.0375 24.433 20.5628C24.5394 20.3773 24.4751 20.1406 24.2895 20.0343C24.1039 19.928 23.8673 19.9923 23.761 20.1779C23.6757 20.3267 23.5858 20.4724 23.4912 20.6149V17.3619C23.3282 17.5706 23.0742 17.7047 22.7889 17.7047C22.6494 17.7047 22.5173 17.6726 22.3997 17.6155L21.1001 18.9657C21.1203 19.0401 21.131 19.1183 21.131 19.199ZM22.941 15.9363C22.8915 15.9278 22.8407 15.9233 22.7889 15.9233C22.297 15.9233 21.8982 16.3221 21.8982 16.814C21.8982 16.8777 21.9049 16.9397 21.9175 16.9996L20.891 18.0661V15.1565H23.4912V15.3645L22.941 15.9363ZM16.6813 12.1706V18.7687L15.8338 19.5592C15.7396 19.5253 15.638 19.5068 15.5321 19.5068C15.3332 19.5068 15.1496 19.572 15.0014 19.6821L14.0716 19.1136V12.1706H16.6813ZM14.6418 20.3701L14.0716 20.0214V24.4099C14.8919 24.7006 15.769 24.8706 16.6813 24.8986V19.8279L16.3762 20.1125C16.4064 20.202 16.4228 20.2978 16.4228 20.3975C16.4228 20.8895 16.024 21.2882 15.5321 21.2882C15.0401 21.2882 14.6414 20.8895 14.6414 20.3975C14.6414 20.3883 14.6415 20.3792 14.6418 20.3701ZM12.2894 19.2841L11.2582 20.3154C11.1619 20.2797 11.0577 20.2603 10.949 20.2603C10.8592 20.2603 10.7724 20.2736 10.6907 20.2983V15.2125H13.2341V18.1739C13.2071 18.1714 13.1796 18.1702 13.1519 18.1702C12.66 18.1702 12.2612 18.5689 12.2612 19.0609C12.2612 19.1379 12.271 19.2127 12.2894 19.2841ZM12.7927 19.8761L11.7956 20.8732C11.8242 20.9606 11.8397 21.054 11.8397 21.151C11.8397 21.6429 11.441 22.0416 10.949 22.0416C10.8592 22.0416 10.7724 22.0283 10.6907 22.0036V22.2559C11.1208 22.6908 12.1407 23.5629 13.2341 24.0259V19.9478C13.2071 19.9503 13.1796 19.9516 13.1519 19.9516C13.0241 19.9516 12.9026 19.9246 12.7927 19.8761Z" fill="#111827"/>
<path fill-rule="evenodd" clip-rule="evenodd" d="M25.654 13.4285C25.4368 13.4285 25.2607 13.6045 25.2607 13.8217C25.2607 14.0389 25.4368 14.215 25.654 14.215C25.8712 14.215 26.0473 14.0389 26.0473 13.8217C26.0473 13.6045 25.8712 13.4285 25.654 13.4285ZM24.9509 13.8217C24.9509 13.4334 25.2657 13.1187 25.654 13.1187C26.0423 13.1187 26.3571 13.4334 26.3571 13.8217C26.3571 14.21 26.0423 14.5248 25.654 14.5248C25.2657 14.5248 24.9509 14.21 24.9509 13.8217ZM22.7887 16.4206C22.5715 16.4206 22.3954 16.5967 22.3954 16.8139C22.3954 17.0311 22.5715 17.2072 22.7887 17.2072C23.0059 17.2072 23.182 17.0311 23.182 16.8139C23.182 16.5967 23.0059 16.4206 22.7887 16.4206ZM22.0856 16.8139C22.0856 16.4256 22.4004 16.1108 22.7887 16.1108C23.177 16.1108 23.4918 16.4256 23.4918 16.8139C23.4918 17.2022 23.177 17.517 22.7887 17.517C22.4004 17.517 22.0856 17.2022 22.0856 16.8139ZM18.0773 17.6102C17.8601 17.6102 17.684 17.7863 17.684 18.0035C17.684 18.2207 17.8601 18.3968 18.0773 18.3968C18.2945 18.3968 18.4706 18.2207 18.4706 18.0035C18.4706 17.7863 18.2945 17.6102 18.0773 17.6102ZM17.3742 18.0035C17.3742 17.6152 17.689 17.3004 18.0773 17.3004C18.4656 17.3004 18.7804 17.6152 18.7804 18.0035C18.7804 18.3918 18.4656 18.7066 18.0773 18.7066C17.689 18.7066 17.3742 18.3918 17.3742 18.0035ZM13.1517 18.6674C12.9345 18.6674 12.7584 18.8435 12.7584 19.0607C12.7584 19.2779 12.9345 19.454 13.1517 19.454C13.3689 19.454 13.5449 19.2779 13.5449 19.0607C13.5449 18.8435 13.3689 18.6674 13.1517 18.6674ZM12.4486 19.0607C12.4486 18.6724 12.7634 18.3576 13.1517 18.3576C13.54 18.3576 13.8547 18.6724 13.8547 19.0607C13.8547 19.449 13.54 19.7638 13.1517 19.7638C12.7634 19.7638 12.4486 19.449 12.4486 19.0607ZM20.2401 18.8057C20.0229 18.8057 19.8469 18.9817 19.8469 19.1989C19.8469 19.4161 20.0229 19.5922 20.2401 19.5922C20.4573 19.5922 20.6334 19.4161 20.6334 19.1989C20.6334 18.9817 20.4573 18.8057 20.2401 18.8057ZM19.5371 19.1989C19.5371 18.8106 19.8518 18.4959 20.2401 18.4959C20.6284 18.4959 20.9432 18.8106 20.9432 19.1989C20.9432 19.5872 20.6284 19.902 20.2401 19.902C19.8518 19.902 19.5371 19.5872 19.5371 19.1989ZM15.5318 20.0043C15.3146 20.0043 15.1385 20.1804 15.1385 20.3976C15.1385 20.6148 15.3146 20.7909 15.5318 20.7909C15.749 20.7909 15.925 20.6148 15.925 20.3976C15.925 20.1804 15.749 20.0043 15.5318 20.0043ZM14.8287 20.3976C14.8287 20.0093 15.1435 19.6945 15.5318 19.6945C15.9201 19.6945 16.2348 20.0093 16.2348 20.3976C16.2348 20.7859 15.9201 21.1007 15.5318 21.1007C15.1435 21.1007 14.8287 20.7859 14.8287 20.3976ZM10.9489 20.7577C10.7317 20.7577 10.5557 20.9337 10.5557 21.1509C10.5557 21.3681 10.7317 21.5442 10.9489 21.5442C11.1661 21.5442 11.3422 21.3681 11.3422 21.1509C11.3422 20.9337 11.1661 20.7577 10.9489 20.7577ZM10.2458 21.1509C10.2458 20.7626 10.5606 20.4478 10.9489 20.4478C11.3372 20.4478 11.652 20.7626 11.652 21.1509C11.652 21.5392 11.3372 21.854 10.9489 21.854C10.5606 21.854 10.2458 21.5392 10.2458 21.1509Z" fill="#111827"/>
<path d="M32.0001 7.08252L29.8519 7.70237L30.5179 8.34333L25.7623 13.2843C25.8982 13.3116 26.0159 13.3891 26.0953 13.4968L30.7969 8.61188L31.4628 9.25284L32.0001 7.08252Z" fill="#111827"/>
<path d="M25.3459 14.2753C25.235 14.1999 25.1532 14.085 25.1208 13.9507L22.8846 16.2741C23.0221 16.2985 23.1419 16.374 23.2235 16.4804L25.3459 14.2753Z" fill="#111827"/>
<path d="M20.522 18.7288L22.2527 16.9306C22.2822 17.0665 22.3621 17.1837 22.4718 17.2614L20.7635 19.0363C20.7233 18.9066 20.6362 18.7975 20.522 18.7288Z" fill="#111827"/>
<path d="M19.6944 19.1437C19.7081 19.0069 19.7721 18.885 19.8676 18.7966L18.6199 18.0801C18.601 18.2154 18.5327 18.3349 18.4337 18.4197L19.6944 19.1437Z" fill="#111827"/>
<path d="M17.8291 18.4925L16.0304 20.1702C15.9752 20.0491 15.8771 19.9516 15.7555 19.8971L17.5678 18.2067C17.6173 18.3308 17.7109 18.4325 17.8291 18.4925Z" fill="#111827"/>
<path d="M13.5259 19.461C13.6211 19.3719 13.6845 19.2492 13.6972 19.1118L15.1524 20.0017C15.0582 20.0919 14.9961 20.2154 14.9851 20.3533L13.5259 19.461Z" fill="#111827"/>
<path d="M12.6269 19.2205C12.6664 19.3503 12.7527 19.4596 12.8661 19.5289L11.4549 20.9402C11.4035 20.817 11.3085 20.7166 11.1892 20.6582L12.6269 19.2205Z" fill="#111827"/>
</g>
<defs>
<clipPath id="clip0_728_320">
<rect width="32" height="32" fill="white"/>
</clipPath>
</defs>
</svg>
