<svg width="33" height="33" viewBox="0 0 33 33" fill="none" xmlns="http://www.w3.org/2000/svg">
<path fill-rule="evenodd" clip-rule="evenodd" d="M25.4888 1.1154C25.8793 0.724879 26.5125 0.724879 26.903 1.1154L32.1958 6.40815C32.3828 6.58986 32.499 6.84409 32.499 7.12546C32.499 7.29998 32.4543 7.46405 32.3757 7.60686C32.351 7.65184 32.3226 7.69532 32.2904 7.73685C32.2621 7.77346 32.2313 7.80805 32.1982 7.84036L26.903 13.1356C26.5125 13.5261 25.8793 13.5261 25.4888 13.1356C25.0983 12.745 25.0983 12.1119 25.4888 11.7214L29.0847 8.12546H11.5002C9.11346 8.12546 6.82443 9.0736 5.13671 10.7613C3.449 12.449 2.50085 14.7381 2.50085 17.1248C2.50085 17.6771 2.05314 18.1248 1.50085 18.1248C0.94857 18.1248 0.500854 17.6771 0.500854 17.1248C0.500854 14.2076 1.65972 11.4099 3.7225 9.3471C5.78529 7.28432 8.58302 6.12546 11.5002 6.12546H29.0847L25.4888 2.52962C25.0983 2.13909 25.0983 1.50593 25.4888 1.1154ZM32.499 15.8749C32.499 15.3226 32.0513 14.8749 31.499 14.8749C30.9467 14.8749 30.499 15.3226 30.499 15.8749C30.499 18.2617 29.5509 20.5507 27.8632 22.2384C26.1755 23.9262 23.8864 24.8743 21.4996 24.8743H3.91518L7.51103 21.2785C7.90155 20.8879 7.90155 20.2548 7.51103 19.8642C7.12051 19.4737 6.48734 19.4737 6.09682 19.8642L0.802868 25.1582C0.616551 25.3398 0.500854 25.5935 0.500854 25.8743C0.500854 26.0457 0.543957 26.207 0.619912 26.3479C0.64621 26.3968 0.67687 26.444 0.711889 26.4888C0.739282 26.5239 0.768969 26.5572 0.800724 26.5883L6.09682 31.8844C6.48734 32.2749 7.12051 32.2749 7.51103 31.8844C7.90155 31.4939 7.90155 30.8607 7.51103 30.4702L3.91514 26.8743H21.4996C24.4169 26.8743 27.2146 25.7154 29.2774 23.6527C31.3402 21.5899 32.499 18.7921 32.499 15.8749ZM18.4585 13.6616C18.4585 12.4776 17.1512 11.7604 16.1526 12.3965L15.0038 13.1283C14.538 13.4251 14.4009 14.0432 14.6976 14.509C14.9944 14.9748 15.6125 15.1119 16.0783 14.8151L16.4585 14.5729V20.2498C16.4585 20.8021 16.9063 21.2498 17.4585 21.2498C18.0108 21.2498 18.4585 20.8021 18.4585 20.2498V13.6616Z" fill="#111827"/>
</svg>
