<svg width="33" height="33" viewBox="0 0 33 33" fill="none" xmlns="http://www.w3.org/2000/svg">
<path fill-rule="evenodd" clip-rule="evenodd" d="M26.903 1.1154C26.5125 0.724879 25.8793 0.724879 25.4888 1.1154C25.0983 1.50593 25.0983 2.13909 25.4888 2.52962L29.0847 6.12546H11.5002C8.58302 6.12546 5.78529 7.28432 3.7225 9.3471C1.65972 11.4099 0.500854 14.2076 0.500854 17.1248C0.500854 17.6771 0.94857 18.1248 1.50085 18.1248C2.05314 18.1248 2.50085 17.6771 2.50085 17.1248C2.50085 14.7381 3.449 12.449 5.13671 10.7613C6.82443 9.0736 9.11346 8.12546 11.5002 8.12546H29.0847L25.4888 11.7214C25.0983 12.1119 25.0983 12.745 25.4888 13.1356C25.8793 13.5261 26.5125 13.5261 26.903 13.1356L32.1982 7.84036C32.2313 7.80805 32.2621 7.77346 32.2904 7.73685C32.3226 7.69532 32.351 7.65184 32.3757 7.60686C32.4543 7.46405 32.499 7.29998 32.499 7.12546C32.499 6.84409 32.3828 6.58986 32.1958 6.40815L26.903 1.1154ZM31.499 14.8749C32.0513 14.8749 32.499 15.3226 32.499 15.8749C32.499 18.7921 31.3402 21.5899 29.2774 23.6527C27.2146 25.7154 24.4169 26.8743 21.4996 26.8743H3.91514L7.51103 30.4702C7.90155 30.8607 7.90155 31.4939 7.51103 31.8844C7.12051 32.2749 6.48734 32.2749 6.09682 31.8844L0.800724 26.5883C0.768969 26.5572 0.739282 26.5239 0.711889 26.4888C0.67687 26.444 0.64621 26.3968 0.619912 26.3479C0.543957 26.207 0.500854 26.0457 0.500854 25.8743C0.500854 25.5935 0.616551 25.3398 0.802868 25.1582L6.09682 19.8642C6.48734 19.4737 7.12051 19.4737 7.51103 19.8642C7.90155 20.2548 7.90155 20.8879 7.51103 21.2785L3.91518 24.8743H21.4996C23.8864 24.8743 26.1755 23.9262 27.8632 22.2384C29.5509 20.5507 30.499 18.2617 30.499 15.8749C30.499 15.3226 30.9467 14.8749 31.499 14.8749Z" fill="#111827"/>
</svg>
