<svg width="33" height="33" viewBox="0 0 33 33" fill="none" xmlns="http://www.w3.org/2000/svg">
<path fill-rule="evenodd" clip-rule="evenodd" d="M7.86569 0.503296C7.31341 0.503296 6.86569 0.951011 6.86569 1.5033V16.1708H2.00098C1.17255 16.1708 0.500977 16.8424 0.500977 17.6708V30.9968C0.500977 31.8252 1.17255 32.4968 2.00098 32.4968H15.2853C16.1138 32.4968 16.7853 31.8252 16.7853 30.9968V25.927H31.4991C32.0513 25.927 32.4991 25.4792 32.4991 24.927V1.5033C32.4991 0.951011 32.0513 0.503296 31.4991 0.503296H7.86569ZM16.7853 23.927H30.4991V2.5033H8.86569V16.1708H15.2853C15.3811 16.1708 15.4748 16.1798 15.5656 16.197L23.8105 7.95206H17.958C17.4057 7.95206 16.958 7.50435 16.958 6.95206C16.958 6.39978 17.4057 5.95206 17.958 5.95206H26.2106C26.2566 5.95141 26.3027 5.95392 26.3484 5.95958C26.8426 6.0203 27.2252 6.4415 27.2252 6.95206V15.2192C27.2252 15.7715 26.7775 16.2192 26.2252 16.2192C25.6729 16.2192 25.2252 15.7715 25.2252 15.2192V9.36583L16.7853 17.8057V23.927ZM2.50098 30.4968V18.1708H14.7853V30.4968H2.50098Z" fill="#111827"/>
</svg>
