<svg width="32" height="32" viewBox="0 0 32 32" fill="none" xmlns="http://www.w3.org/2000/svg">
<path d="M18.5002 23.269L13.5002 23.269" stroke="#1C1B1F" stroke-width="2" stroke-linecap="round" stroke-linejoin="round"/>
<path d="M16 10.1433L16 6.40039" stroke="#1C1B1F" stroke-width="2" stroke-linecap="round" stroke-linejoin="round"/>
<path d="M10.5 17.769C11.3284 17.769 12 17.0975 12 16.269C12 15.4406 11.3284 14.769 10.5 14.769C9.67157 14.769 9 15.4406 9 16.269C9 17.0975 9.67157 17.769 10.5 17.769Z" fill="#1C1B1F"/>
<path d="M21.5002 17.769C22.3287 17.769 23.0002 17.0975 23.0002 16.269C23.0002 15.4406 22.3287 14.769 21.5002 14.769C20.6718 14.769 20.0002 15.4406 20.0002 16.269C20.0002 17.0975 20.6718 17.769 21.5002 17.769Z" fill="#1C1B1F"/>
<path d="M15.9998 8.27189C17.1504 8.27189 18.0832 7.33915 18.0832 6.18856C18.0832 5.03796 17.1504 4.10522 15.9998 4.10522C14.8492 4.10522 13.9165 5.03796 13.9165 6.18856C13.9165 7.33915 14.8492 8.27189 15.9998 8.27189Z" fill="#1C1B1F"/>
<rect x="4" y="10.1433" width="24" height="17.7515" rx="5" stroke="#1C1B1F" stroke-width="2"/>
</svg>
