<svg width="33" height="32" viewBox="0 0 33 32" fill="none" xmlns="http://www.w3.org/2000/svg">
<path fill-rule="evenodd" clip-rule="evenodd" d="M14.2533 3.30469C13.701 3.30469 13.2533 3.7524 13.2533 4.30469C13.2533 4.85697 13.701 5.30469 14.2533 5.30469H18.849C19.4013 5.30469 19.849 4.85697 19.849 4.30469C19.849 3.7524 19.4013 3.30469 18.849 3.30469H14.2533ZM10.4393 7.30469C10.4393 6.7524 10.887 6.30469 11.4393 6.30469H21.6629C22.2152 6.30469 22.6629 6.7524 22.6629 7.30469C22.6629 7.85697 22.2152 8.30469 21.6629 8.30469H11.4393C10.887 8.30469 10.4393 7.85697 10.4393 7.30469ZM3.46396 12.3047C3.46396 10.6478 4.8071 9.30469 6.46396 9.30469H26.5362C28.1931 9.30469 29.5362 10.6478 29.5362 12.3047V25.6956C29.5362 27.3524 28.1931 28.6956 26.5362 28.6956H6.46396C4.80711 28.6956 3.46396 27.3524 3.46396 25.6956V12.3047ZM6.46396 11.3047C5.91167 11.3047 5.46396 11.7524 5.46396 12.3047V25.6956C5.46396 26.2478 5.91167 26.6956 6.46396 26.6956H26.5362C27.0885 26.6956 27.5362 26.2478 27.5362 25.6956V12.3047C27.5362 11.7524 27.0885 11.3047 26.5362 11.3047H6.46396ZM11.5111 22.1396C13.1679 22.1396 14.5111 20.7965 14.5111 19.1396C14.5111 17.4828 13.1679 16.1396 11.5111 16.1396C9.85422 16.1396 8.51108 17.4828 8.51108 19.1396C8.51108 20.7965 9.85422 22.1396 11.5111 22.1396ZM24.252 19.1396C24.252 20.7965 22.9089 22.1396 21.252 22.1396C19.5952 22.1396 18.252 20.7965 18.252 19.1396C18.252 17.4828 19.5952 16.1396 21.252 16.1396C22.9089 16.1396 24.252 17.4828 24.252 19.1396ZM30.1412 22.0502V16.229C31.4456 16.2344 32.5002 17.2934 32.5002 18.5978V19.6912C32.5002 20.994 31.444 22.0502 30.1412 22.0502ZM2.85898 16.229V22.0502C1.55615 22.0502 0.5 20.994 0.5 19.6912V18.5978C0.5 17.2934 1.55457 16.2344 2.85898 16.229Z" fill="#111827"/>
</svg>
