<svg width="33" height="32" viewBox="0 0 33 32" fill="none" xmlns="http://www.w3.org/2000/svg">
<path fill-rule="evenodd" clip-rule="evenodd" d="M32.1335 1.1762C32.0384 0.863916 31.7969 0.617703 31.4865 0.516636C26.2642 -1.18374 21.9956 1.72836 20.4725 3.42074L18.3444 5.54879L7.70869 5.54884C7.44347 5.54885 7.18912 5.6542 7.00158 5.84174L0.810619 12.0327C0.549954 12.2934 0.453837 12.6763 0.560505 13.0292C0.667171 13.382 0.959324 13.6476 1.32074 13.7202L9.15438 15.2942C9.1823 15.5044 9.27702 15.7074 9.43852 15.8689L16.6763 23.1067C16.7837 23.2141 16.9095 23.292 17.0435 23.3403L18.6218 31.1955C18.6944 31.5569 18.96 31.849 19.3128 31.9557C19.6657 32.0624 20.0486 31.9663 20.3093 31.7056L26.5003 25.5146C26.6878 25.3271 26.7932 25.0727 26.7932 24.8075L26.7932 14.404L29.1439 12.0533L29.1594 12.0375C32.9571 8.06704 32.7509 3.20385 32.1335 1.1762ZM25.2019 13.1669C25.1197 13.2273 25.0471 13.2999 24.9867 13.3821L17.3834 20.9854L11.5598 15.1618L21.9061 4.81555C21.9196 4.80203 21.9327 4.78812 21.9455 4.77385C23.1023 3.47606 26.3699 1.24414 30.3442 2.26602C30.6915 4.05143 30.5864 7.64607 27.7216 10.6472L25.2019 13.1669ZM24.7932 16.404L24.7932 24.3933L20.2149 28.9716L18.8782 22.319L24.7932 16.404ZM8.12291 7.54884L16.3444 7.5488L10.3906 13.5026L3.54466 12.1271L8.12291 7.54884ZM2.34555 29.0528C2.39836 29.5048 2.74963 29.8641 3.20027 29.9271C5.34409 30.227 7.41484 29.5454 9.07421 28.6548C10.74 27.7608 12.0956 26.601 12.8555 25.7799C13.2306 25.3746 13.2061 24.7419 12.8008 24.3668C12.3954 23.9916 11.7627 24.0161 11.3876 24.4215C10.7642 25.0951 9.58164 26.1126 8.12841 26.8925C6.9341 27.5335 5.62638 27.9775 4.33446 27.9979C4.46551 26.4839 5.25252 23.7065 7.95934 20.9173C8.34396 20.521 8.33447 19.8879 7.93814 19.5033C7.54181 19.1186 6.90871 19.1281 6.52409 19.5245C2.81916 23.3421 2.14456 27.3326 2.34555 29.0528Z" fill="#111827"/>
</svg>
