<svg width="33" height="32" viewBox="0 0 33 32" fill="none" xmlns="http://www.w3.org/2000/svg">
<path fill-rule="evenodd" clip-rule="evenodd" d="M17.0453 0.118494C16.7572 -0.0350841 16.4123 -0.038393 16.1214 0.10963C11.2346 2.5958 10.277 7.66467 10.3965 9.93459V14.0319L2.87553 21.5529C2.688 21.7404 2.58264 21.9948 2.58264 22.26V30.999C2.58264 31.3677 2.78545 31.7064 3.11039 31.8805C3.43533 32.0546 3.82969 32.0358 4.1366 31.8316L11.7831 26.7437C11.8811 26.6785 11.9639 26.599 12.0305 26.5098H20.9695C21.0361 26.599 21.1189 26.6785 21.2169 26.7437L28.8634 31.8316C29.1703 32.0358 29.5647 32.0546 29.8896 31.8805C30.2146 31.7064 30.4174 31.3677 30.4174 30.999V22.26C30.4174 21.9948 30.312 21.7404 30.1245 21.5529L22.6132 14.0415V9.90715L22.613 9.88492C22.491 4.40144 18.9126 1.11404 17.0453 0.118494ZM22.6132 16.87V25.2705L28.4174 29.1325V22.6742L22.6132 16.87ZM4.58264 22.6742L10.3965 16.8603V25.2641L4.58264 29.1325V22.6742ZM12.3948 9.84982C12.2954 8.11793 13.0261 4.23784 16.5507 2.1544C18.0556 3.16958 20.517 5.78009 20.6132 9.91852V24.5098H12.3965V9.90715C12.3965 9.88803 12.3959 9.86891 12.3948 9.84982ZM13.7951 29.9991C13.2428 29.9991 12.7951 30.4468 12.7951 30.9991C12.7951 31.5514 13.2428 31.9991 13.7951 31.9991H18.55C19.1023 31.9991 19.55 31.5514 19.55 30.9991C19.55 30.4468 19.1023 29.9991 18.55 29.9991H13.7951Z" fill="#111827"/>
</svg>
