<svg width="33" height="32" viewBox="0 0 33 32" fill="none" xmlns="http://www.w3.org/2000/svg">
<path fill-rule="evenodd" clip-rule="evenodd" d="M1.50098 2.72791C0.948692 2.72791 0.500977 3.17562 0.500977 3.72791V13.2728C0.500977 13.8251 0.948692 14.2728 1.50098 14.2728H31.4991C32.0514 14.2728 32.4991 13.8251 32.4991 13.2728V3.72791C32.4991 3.17562 32.0514 2.72791 31.4991 2.72791H1.50098ZM2.50098 12.2728V4.72791H30.4991V12.2728H2.50098ZM1.50098 17.7271C0.948692 17.7271 0.500977 18.1748 0.500977 18.7271V28.272C0.500977 28.8243 0.948692 29.272 1.50098 29.272H31.4991C32.0514 29.272 32.4991 28.8243 32.4991 28.272V18.7271C32.4991 18.1748 32.0514 17.7271 31.4991 17.7271H1.50098ZM2.50098 27.272V19.7271H30.4991V27.272H2.50098Z" fill="#111827"/>
</svg>
