<svg width="33" height="32" viewBox="0 0 33 32" fill="none" xmlns="http://www.w3.org/2000/svg">
<path fill-rule="evenodd" clip-rule="evenodd" d="M0.977048 1.00098C0.977048 0.448692 1.42476 0.000976562 1.97705 0.000976562C10.072 0.000976562 17.8354 3.21667 23.5593 8.94065C29.2833 14.6646 32.499 22.428 32.499 30.5229C32.499 31.0752 32.0513 31.5229 31.499 31.5229C30.9467 31.5229 30.499 31.0752 30.499 30.5229C30.499 22.9584 27.494 15.7038 22.1451 10.3549C16.7962 5.00596 9.54154 2.00098 1.97705 2.00098C1.42476 2.00098 0.977048 1.55326 0.977048 1.00098ZM1.97705 8.85753C1.42476 8.85753 0.977048 9.30524 0.977048 9.85753C0.977048 10.4098 1.42476 10.8575 1.97705 10.8575C7.19263 10.8575 12.1946 12.9294 15.8826 16.6174C19.5705 20.3054 21.6424 25.3073 21.6424 30.5229C21.6424 31.0752 22.0901 31.5229 22.6424 31.5229C23.1947 31.5229 23.6424 31.0752 23.6424 30.5229C23.6424 24.7769 21.3598 19.2662 17.2968 15.2032C13.2337 11.1401 7.72306 8.85753 1.97705 8.85753ZM1.97705 17.7143C1.42476 17.7143 0.977048 18.162 0.977048 18.7143C0.977048 19.2665 1.42476 19.7143 1.97705 19.7143C4.84372 19.7143 7.59297 20.853 9.62001 22.8801C11.6471 24.9071 12.7858 27.6564 12.7858 30.523C12.7858 31.0753 13.2335 31.523 13.7858 31.523C14.3381 31.523 14.7858 31.0753 14.7858 30.523C14.7858 27.1259 13.4363 23.868 11.0342 21.4659C8.63211 19.0638 5.37415 17.7143 1.97705 17.7143ZM4.92927 29.7848C4.92927 31.0077 3.93796 31.999 2.71512 31.999C1.49228 31.999 0.500977 31.0077 0.500977 29.7848C0.500977 28.562 1.49228 27.5707 2.71512 27.5707C3.93796 27.5707 4.92927 28.562 4.92927 29.7848Z" fill="#111827"/>
</svg>
