<svg width="32" height="32" viewBox="0 0 32 32" fill="none" xmlns="http://www.w3.org/2000/svg">
<path d="M6.95239 17.4286C8.97309 17.4286 10.911 18.2313 12.3399 19.6602C13.7687 21.089 14.5714 23.0269 14.5714 25.0476" stroke="#1C1B1F" stroke-width="2" stroke-linecap="round" stroke-linejoin="round"/>
<path d="M6.95239 11.7142C10.4886 11.7142 13.88 13.119 16.3805 15.6195C18.881 18.12 20.2857 21.5113 20.2857 25.0476" stroke="#1C1B1F" stroke-width="2" stroke-linecap="round" stroke-linejoin="round"/>
<path d="M6.95239 6C12.0041 6 16.849 8.0068 20.4211 11.5789C23.9932 15.151 26 19.9959 26 25.0476" stroke="#1C1B1F" stroke-width="2" stroke-linecap="round" stroke-linejoin="round"/>
<path d="M7.42857 26C8.21755 26 8.85714 25.3604 8.85714 24.5714C8.85714 23.7824 8.21755 23.1428 7.42857 23.1428C6.63959 23.1428 6 23.7824 6 24.5714C6 25.3604 6.63959 26 7.42857 26Z" fill="#1C1B1F"/>
</svg>
