<svg width="32" height="32" viewBox="0 0 32 32" fill="none" xmlns="http://www.w3.org/2000/svg">
<path d="M7.46338 6C12.3796 6 17.0944 7.95296 20.5707 11.4292C24.047 14.9055 26 19.6204 26 24.5366" stroke="#1C1B1F" stroke-width="2" stroke-linecap="round" stroke-linejoin="round"/>
<path d="M7.46338 14.7805C8.74457 14.7805 10.0132 15.0328 11.1969 15.5231C12.3805 16.0134 13.456 16.732 14.362 17.638C15.2679 18.5439 15.9865 19.6194 16.4768 20.8031C16.9671 21.9867 17.2195 23.2554 17.2195 24.5366" stroke="#1C1B1F" stroke-width="2" stroke-linecap="round" stroke-linejoin="round"/>
<path d="M7.46341 26C8.27164 26 8.92683 25.3448 8.92683 24.5366C8.92683 23.7284 8.27164 23.0732 7.46341 23.0732C6.65519 23.0732 6 23.7284 6 24.5366C6 25.3448 6.65519 26 7.46341 26Z" fill="#1C1B1F"/>
</svg>
