<svg width="33" height="32" viewBox="0 0 33 32" fill="none" xmlns="http://www.w3.org/2000/svg">
<path fill-rule="evenodd" clip-rule="evenodd" d="M0.477048 9.85754C0.477048 9.30526 0.924763 8.85754 1.47705 8.85754C7.22306 8.85754 12.7337 11.1401 16.7968 15.2032C20.8598 19.2662 23.1424 24.7769 23.1424 30.5229C23.1424 31.0752 22.6947 31.5229 22.1424 31.5229C21.5901 31.5229 21.1424 31.0752 21.1424 30.5229C21.1424 25.3073 19.0705 20.3054 15.3826 16.6174C11.6946 12.9294 6.69263 10.8575 1.47705 10.8575C0.924763 10.8575 0.477048 10.4098 0.477048 9.85754ZM0.477048 18.7143C0.477048 18.162 0.924763 17.7143 1.47705 17.7143C4.87415 17.7143 8.13211 19.0638 10.5342 21.4659C12.9363 23.868 14.2858 27.126 14.2858 30.5231C14.2858 31.0753 13.8381 31.5231 13.2858 31.5231C12.7335 31.5231 12.2858 31.0753 12.2858 30.5231C12.2858 27.6564 11.1471 24.9071 9.12001 22.8801C7.09297 20.8531 4.34372 19.7143 1.47705 19.7143C0.924763 19.7143 0.477048 19.2666 0.477048 18.7143ZM4.42927 29.7848C4.42927 31.0077 3.43796 31.999 2.21512 31.999C0.992284 31.999 0.000976562 31.0077 0.000976562 29.7848C0.000976562 28.562 0.992284 27.5707 2.21512 27.5707C3.43796 27.5707 4.42927 28.562 4.42927 29.7848Z" fill="#111827"/>
</svg>
