<svg width="33" height="32" viewBox="0 0 33 32" fill="none" xmlns="http://www.w3.org/2000/svg">
<g clip-path="url(#clip0_780_107)">
<path fill-rule="evenodd" clip-rule="evenodd" d="M7.0055 3.05347H6.46416L6.16819 3.50674L1.37587 10.8461L1.36873 10.8462L1.13784 11.2107L0.914266 11.5531L0.916941 11.5595L0.499023 12.2193L1.04072 12.7847L15.803 28.1928L16.5251 28.9465L17.2471 28.1928L31.9664 12.8296L32.5012 12.2714L32.0957 11.6132L31.9441 11.3671L31.9464 11.3542L31.7644 11.0755L31.6194 10.84L31.6107 10.84L26.8224 3.50674L26.5264 3.05347H25.9851H7.0055ZM20.8719 10.8422L16.6762 5.85535L12.4791 10.8439L20.8719 10.8422ZM22.611 9.80266L24.5495 5.05347H18.6153L22.611 9.80266ZM8.49236 5.05347L10.5323 10.0512L14.7372 5.05347H8.49236ZM26.2227 6.24655L24.3472 10.8415L29.2224 10.8405L26.2227 6.24655ZM11.6731 12.846L16.521 24.7228L21.3688 12.846H11.6731ZM19.3338 23.1239L23.529 12.846H29.1809L19.3338 23.1239ZM8.69601 10.8447L6.79941 6.19817L3.76479 10.8457L8.69601 10.8447ZM3.86919 12.846H9.51289L13.702 23.109L3.86919 12.846Z" fill="#111827"/>
</g>
<defs>
<clipPath id="clip0_780_107">
<rect width="32" height="32" fill="white" transform="translate(0.5)"/>
</clipPath>
</defs>
</svg>
