<svg width="32" height="32" viewBox="0 0 32 32" fill="none" xmlns="http://www.w3.org/2000/svg">
<path d="M7.69238 6.76923V4" stroke="#1C1B1F" stroke-width="2" stroke-linecap="round" stroke-linejoin="round"/>
<path d="M13.231 6.76923V4" stroke="#1C1B1F" stroke-width="2" stroke-linecap="round" stroke-linejoin="round"/>
<path d="M24.3079 6.76923V4" stroke="#1C1B1F" stroke-width="2" stroke-linecap="round" stroke-linejoin="round"/>
<path d="M7.69238 27.9999V25.2307" stroke="#1C1B1F" stroke-width="2" stroke-linecap="round" stroke-linejoin="round"/>
<path d="M13.231 27.9999V25.2307" stroke="#1C1B1F" stroke-width="2" stroke-linecap="round" stroke-linejoin="round"/>
<path d="M18.7693 6.76923V4" stroke="#1C1B1F" stroke-width="2" stroke-linecap="round" stroke-linejoin="round"/>
<path d="M18.7693 27.9999V25.2307" stroke="#1C1B1F" stroke-width="2" stroke-linecap="round" stroke-linejoin="round"/>
<path d="M24.3079 27.9999V25.2307" stroke="#1C1B1F" stroke-width="2" stroke-linecap="round" stroke-linejoin="round"/>
<rect x="7.69238" y="6.76929" width="16.6154" height="18.4615" rx="0.5" stroke="#1C1B1F" stroke-width="2"/>
<path d="M13.1972 15.6494L15.7932 11.4668C15.8314 11.4053 15.9203 11.4035 15.9609 11.4635L18.7976 15.6463C18.8194 15.6784 18.8207 15.7202 18.8008 15.7536L15.9642 20.5132C15.9245 20.5798 15.8276 20.5779 15.7905 20.5099L13.1944 15.75C13.1772 15.7184 13.1782 15.68 13.1972 15.6494Z" stroke="#1C1B1F" stroke-width="2" stroke-linecap="round" stroke-linejoin="round"/>
</svg>
