<svg width="32" height="33" viewBox="0 0 32 33" fill="none" xmlns="http://www.w3.org/2000/svg">
<path d="M7.69238 7.26923V4.5" stroke="#1C1B1F" stroke-width="2" stroke-linecap="round" stroke-linejoin="round"/>
<path d="M13.231 7.26923V4.5" stroke="#1C1B1F" stroke-width="2" stroke-linecap="round" stroke-linejoin="round"/>
<path d="M24.3079 7.26923V4.5" stroke="#1C1B1F" stroke-width="2" stroke-linecap="round" stroke-linejoin="round"/>
<path d="M7.69238 28.4999V25.7307" stroke="#1C1B1F" stroke-width="2" stroke-linecap="round" stroke-linejoin="round"/>
<path d="M13.231 28.4999V25.7307" stroke="#1C1B1F" stroke-width="2" stroke-linecap="round" stroke-linejoin="round"/>
<path d="M18.7693 7.26923V4.5" stroke="#1C1B1F" stroke-width="2" stroke-linecap="round" stroke-linejoin="round"/>
<path d="M18.7693 28.4999V25.7307" stroke="#1C1B1F" stroke-width="2" stroke-linecap="round" stroke-linejoin="round"/>
<path d="M24.3079 28.4999V25.7307" stroke="#1C1B1F" stroke-width="2" stroke-linecap="round" stroke-linejoin="round"/>
<rect x="7.69238" y="7.26929" width="16.6154" height="18.4615" rx="0.5" stroke="#1C1B1F" stroke-width="2"/>
<path d="M13.1972 16.1494L15.7932 11.9668C15.8314 11.9053 15.9203 11.9035 15.9609 11.9635L18.7976 16.1463C18.8194 16.1784 18.8207 16.2202 18.8008 16.2536L15.9642 21.0132C15.9245 21.0798 15.8276 21.0779 15.7905 21.0099L13.1944 16.25C13.1772 16.2184 13.1782 16.18 13.1972 16.1494Z" stroke="#1C1B1F" stroke-width="2" stroke-linecap="round" stroke-linejoin="round"/>
</svg>
