<svg width="33" height="32" viewBox="0 0 33 32" fill="none" xmlns="http://www.w3.org/2000/svg">
<path fill-rule="evenodd" clip-rule="evenodd" d="M22.9575 0.293748C22.567 -0.0967766 21.9338 -0.0967766 21.5433 0.293748L0.79387 21.0432C0.403346 21.4337 0.403345 22.0669 0.79387 22.4574L10.0426 31.7061C10.4331 32.0967 11.0663 32.0967 11.4568 31.7061L32.2063 10.9567C32.5968 10.5662 32.5968 9.93299 32.2063 9.54246L22.9575 0.293748ZM18.4687 6.19677L22.2504 2.41507L30.0849 10.2496L10.7497 29.5848L2.91519 21.7503L6.64332 18.0222L10.6271 22.0059C11.0176 22.3965 11.6508 22.3965 12.0413 22.0059C12.4318 21.6154 12.4318 20.9822 12.0413 20.5917L8.05753 16.608L11.8489 12.8166L15.8325 16.8002C16.223 17.1908 16.8562 17.1908 17.2467 16.8002C17.6373 16.4097 17.6373 15.7766 17.2467 15.386L13.2631 11.4024L17.0545 7.61098L21.0382 11.5947C21.4287 11.9852 22.0619 11.9852 22.4524 11.5947C22.843 11.2042 22.843 10.571 22.4524 10.1805L18.4687 6.19677Z" fill="#111827"/>
</svg>
