<svg width="33" height="32" viewBox="0 0 33 32" fill="none" xmlns="http://www.w3.org/2000/svg">
<g clip-path="url(#clip0_6_1692)">
<mask id="path-1-inside-1_6_1692" fill="white">
<path d="M16.4998 1.09717C8.28382 1.09717 1.59692 7.78722 1.59692 16C1.59692 24.2128 8.28697 30.9029 16.4998 30.9029C24.7126 30.9029 31.4026 24.2128 31.4026 16C31.4026 7.78722 24.7126 1.09717 16.4998 1.09717ZM16.4777 2.42131C16.7325 2.4279 16.9747 2.53411 17.1525 2.71728C17.3304 2.90045 17.4299 3.14608 17.4298 3.4018C17.4298 3.66184 17.3265 3.91123 17.1427 4.09511C16.9588 4.27899 16.7094 4.38229 16.4493 4.38229C16.1893 4.38229 15.9399 4.27899 15.756 4.09511C15.5721 3.91123 15.4688 3.66184 15.4688 3.4018C15.4688 3.27062 15.4951 3.14076 15.5461 3.01991C15.5971 2.89906 15.6719 2.78969 15.766 2.69826C15.8601 2.60683 15.9715 2.53521 16.0938 2.48764C16.216 2.44007 16.3466 2.41751 16.4777 2.42131ZM18.7224 4.03549C20.4437 4.35789 22.0742 5.05112 23.5006 6.06702C24.927 7.08293 26.1151 8.39716 26.9825 9.91845L25.8255 12.5289C25.6269 12.9797 25.8318 13.5094 26.2795 13.7112L28.5053 14.698C28.5743 15.3937 28.5828 16.0941 28.5305 16.7914H27.2915C27.1686 16.7914 27.1181 16.8733 27.1181 16.9931V17.5606C27.1181 18.8974 26.3646 19.1906 25.7025 19.2631C25.072 19.3356 24.3752 18.9983 24.287 18.6136C23.915 16.5234 23.297 16.0788 22.3197 15.3064C23.5335 14.5372 24.7946 13.399 24.7946 11.8794C24.7946 10.2369 23.669 9.20278 22.9029 8.6952C21.8247 7.98584 20.633 7.84397 20.3114 7.84397H7.51141C9.28134 5.86671 11.6538 4.52814 14.2614 4.03549L15.7715 5.61815C16.112 5.97441 16.6763 5.99017 17.0326 5.64653L18.7224 4.03549ZM4.78747 11.293C5.04256 11.3004 5.28472 11.407 5.46251 11.5901C5.64029 11.7731 5.73969 12.0183 5.73958 12.2735C5.73958 12.5336 5.63628 12.783 5.4524 12.9668C5.26853 13.1507 5.01913 13.254 4.75909 13.254C4.49905 13.254 4.24966 13.1507 4.06578 12.9668C3.8819 12.783 3.7786 12.5336 3.7786 12.2735C3.77854 12.1423 3.80481 12.0125 3.85585 11.8916C3.90689 11.7708 3.98166 11.6614 4.07574 11.57C4.16981 11.4786 4.28127 11.4069 4.40353 11.3594C4.52578 11.3118 4.65634 11.2892 4.78747 11.293ZM28.1648 11.3372C28.4199 11.3446 28.6621 11.4511 28.8398 11.6342C29.0176 11.8173 29.117 12.0625 29.1169 12.3177C29.1169 12.5777 29.0136 12.8271 28.8297 13.011C28.6459 13.1949 28.3965 13.2982 28.1364 13.2982C27.8764 13.2982 27.627 13.1949 27.4431 13.011C27.2592 12.8271 27.1559 12.5777 27.1559 12.3177C27.1559 12.1865 27.1822 12.0566 27.2332 11.9358C27.2842 11.8149 27.359 11.7055 27.4531 11.6141C27.5471 11.5227 27.6586 11.4511 27.7809 11.4035C27.9031 11.3559 28.0337 11.3334 28.1648 11.3372ZM6.63495 11.4948H8.34372V19.2H4.89466C4.46869 17.7042 4.33594 16.1401 4.50372 14.5939L6.61604 13.6544C7.06687 13.4526 7.2718 12.9261 7.07003 12.4753L6.63495 11.4948ZM13.7664 11.5768H17.8365C18.0478 11.5768 19.3215 11.8195 19.3215 12.7748C19.3215 13.5661 18.3441 13.8499 17.5402 13.8499H13.7632L13.7664 11.5768ZM13.7664 17.1129H16.8844C17.1682 17.1129 18.4072 17.1949 18.8013 18.7776C18.9242 19.2631 19.1985 20.8457 19.3845 21.3533C19.5705 21.9208 20.324 23.0558 21.128 23.0558H26.2164C25.8754 23.5125 25.5025 23.9444 25.1004 24.3484L23.029 23.9039C22.5467 23.7998 22.0706 24.1088 21.9666 24.5912L21.4748 26.8863C19.8932 27.6028 18.1757 27.9694 16.4394 27.9613C14.7032 27.9531 12.9892 27.5703 11.4145 26.839L10.9226 24.5439C10.8186 24.0615 10.3457 23.7525 9.86333 23.8566L7.83614 24.2917C7.45995 23.9036 7.11026 23.4907 6.78944 23.0558H16.648C16.7583 23.0558 16.834 23.0369 16.834 22.9328V19.4459C16.834 19.345 16.7583 19.323 16.648 19.323H13.7632L13.7664 17.1129ZM9.21702 25.0987C9.47212 25.1061 9.71428 25.2127 9.89206 25.3958C10.0698 25.5788 10.1692 25.824 10.1691 26.0792C10.1691 26.3393 10.0658 26.5887 9.88196 26.7726C9.69808 26.9564 9.44869 27.0597 9.18865 27.0597C8.92861 27.0597 8.67921 26.9564 8.49533 26.7726C8.31146 26.5887 8.20816 26.3393 8.20816 26.0792C8.2081 25.9481 8.23437 25.8182 8.28541 25.6973C8.33645 25.5765 8.41122 25.4671 8.50529 25.3757C8.59937 25.2843 8.71083 25.2126 8.83308 25.1651C8.95534 25.1175 9.08589 25.0949 9.21702 25.0987ZM23.7352 25.1429C23.9903 25.1503 24.2325 25.2568 24.4103 25.4399C24.5881 25.623 24.6875 25.8682 24.6874 26.1234C24.6874 26.3834 24.5841 26.6328 24.4002 26.8167C24.2163 27.0006 23.9669 27.1039 23.7069 27.1039C23.4468 27.1039 23.1974 27.0006 23.0136 26.8167C22.8297 26.6328 22.7264 26.3834 22.7264 26.1234C22.7263 25.9922 22.7526 25.8623 22.8036 25.7415C22.8547 25.6206 22.9294 25.5113 23.0235 25.4198C23.1176 25.3284 23.2291 25.2568 23.3513 25.2092C23.4736 25.1616 23.6041 25.1391 23.7352 25.1429Z"/>
</mask>
<path d="M16.4998 1.09717C8.28382 1.09717 1.59692 7.78722 1.59692 16C1.59692 24.2128 8.28697 30.9029 16.4998 30.9029C24.7126 30.9029 31.4026 24.2128 31.4026 16C31.4026 7.78722 24.7126 1.09717 16.4998 1.09717ZM16.4777 2.42131C16.7325 2.4279 16.9747 2.53411 17.1525 2.71728C17.3304 2.90045 17.4299 3.14608 17.4298 3.4018C17.4298 3.66184 17.3265 3.91123 17.1427 4.09511C16.9588 4.27899 16.7094 4.38229 16.4493 4.38229C16.1893 4.38229 15.9399 4.27899 15.756 4.09511C15.5721 3.91123 15.4688 3.66184 15.4688 3.4018C15.4688 3.27062 15.4951 3.14076 15.5461 3.01991C15.5971 2.89906 15.6719 2.78969 15.766 2.69826C15.8601 2.60683 15.9715 2.53521 16.0938 2.48764C16.216 2.44007 16.3466 2.41751 16.4777 2.42131ZM18.7224 4.03549C20.4437 4.35789 22.0742 5.05112 23.5006 6.06702C24.927 7.08293 26.1151 8.39716 26.9825 9.91845L25.8255 12.5289C25.6269 12.9797 25.8318 13.5094 26.2795 13.7112L28.5053 14.698C28.5743 15.3937 28.5828 16.0941 28.5305 16.7914H27.2915C27.1686 16.7914 27.1181 16.8733 27.1181 16.9931V17.5606C27.1181 18.8974 26.3646 19.1906 25.7025 19.2631C25.072 19.3356 24.3752 18.9983 24.287 18.6136C23.915 16.5234 23.297 16.0788 22.3197 15.3064C23.5335 14.5372 24.7946 13.399 24.7946 11.8794C24.7946 10.2369 23.669 9.20278 22.9029 8.6952C21.8247 7.98584 20.633 7.84397 20.3114 7.84397H7.51141C9.28134 5.86671 11.6538 4.52814 14.2614 4.03549L15.7715 5.61815C16.112 5.97441 16.6763 5.99017 17.0326 5.64653L18.7224 4.03549ZM4.78747 11.293C5.04256 11.3004 5.28472 11.407 5.46251 11.5901C5.64029 11.7731 5.73969 12.0183 5.73958 12.2735C5.73958 12.5336 5.63628 12.783 5.4524 12.9668C5.26853 13.1507 5.01913 13.254 4.75909 13.254C4.49905 13.254 4.24966 13.1507 4.06578 12.9668C3.8819 12.783 3.7786 12.5336 3.7786 12.2735C3.77854 12.1423 3.80481 12.0125 3.85585 11.8916C3.90689 11.7708 3.98166 11.6614 4.07574 11.57C4.16981 11.4786 4.28127 11.4069 4.40353 11.3594C4.52578 11.3118 4.65634 11.2892 4.78747 11.293ZM28.1648 11.3372C28.4199 11.3446 28.6621 11.4511 28.8398 11.6342C29.0176 11.8173 29.117 12.0625 29.1169 12.3177C29.1169 12.5777 29.0136 12.8271 28.8297 13.011C28.6459 13.1949 28.3965 13.2982 28.1364 13.2982C27.8764 13.2982 27.627 13.1949 27.4431 13.011C27.2592 12.8271 27.1559 12.5777 27.1559 12.3177C27.1559 12.1865 27.1822 12.0566 27.2332 11.9358C27.2842 11.8149 27.359 11.7055 27.4531 11.6141C27.5471 11.5227 27.6586 11.4511 27.7809 11.4035C27.9031 11.3559 28.0337 11.3334 28.1648 11.3372ZM6.63495 11.4948H8.34372V19.2H4.89466C4.46869 17.7042 4.33594 16.1401 4.50372 14.5939L6.61604 13.6544C7.06687 13.4526 7.2718 12.9261 7.07003 12.4753L6.63495 11.4948ZM13.7664 11.5768H17.8365C18.0478 11.5768 19.3215 11.8195 19.3215 12.7748C19.3215 13.5661 18.3441 13.8499 17.5402 13.8499H13.7632L13.7664 11.5768ZM13.7664 17.1129H16.8844C17.1682 17.1129 18.4072 17.1949 18.8013 18.7776C18.9242 19.2631 19.1985 20.8457 19.3845 21.3533C19.5705 21.9208 20.324 23.0558 21.128 23.0558H26.2164C25.8754 23.5125 25.5025 23.9444 25.1004 24.3484L23.029 23.9039C22.5467 23.7998 22.0706 24.1088 21.9666 24.5912L21.4748 26.8863C19.8932 27.6028 18.1757 27.9694 16.4394 27.9613C14.7032 27.9531 12.9892 27.5703 11.4145 26.839L10.9226 24.5439C10.8186 24.0615 10.3457 23.7525 9.86333 23.8566L7.83614 24.2917C7.45995 23.9036 7.11026 23.4907 6.78944 23.0558H16.648C16.7583 23.0558 16.834 23.0369 16.834 22.9328V19.4459C16.834 19.345 16.7583 19.323 16.648 19.323H13.7632L13.7664 17.1129ZM9.21702 25.0987C9.47212 25.1061 9.71428 25.2127 9.89206 25.3958C10.0698 25.5788 10.1692 25.824 10.1691 26.0792C10.1691 26.3393 10.0658 26.5887 9.88196 26.7726C9.69808 26.9564 9.44869 27.0597 9.18865 27.0597C8.92861 27.0597 8.67921 26.9564 8.49533 26.7726C8.31146 26.5887 8.20816 26.3393 8.20816 26.0792C8.2081 25.9481 8.23437 25.8182 8.28541 25.6973C8.33645 25.5765 8.41122 25.4671 8.50529 25.3757C8.59937 25.2843 8.71083 25.2126 8.83308 25.1651C8.95534 25.1175 9.08589 25.0949 9.21702 25.0987ZM23.7352 25.1429C23.9903 25.1503 24.2325 25.2568 24.4103 25.4399C24.5881 25.623 24.6875 25.8682 24.6874 26.1234C24.6874 26.3834 24.5841 26.6328 24.4002 26.8167C24.2163 27.0006 23.9669 27.1039 23.7069 27.1039C23.4468 27.1039 23.1974 27.0006 23.0136 26.8167C22.8297 26.6328 22.7264 26.3834 22.7264 26.1234C22.7263 25.9922 22.7526 25.8623 22.8036 25.7415C22.8547 25.6206 22.9294 25.5113 23.0235 25.4198C23.1176 25.3284 23.2291 25.2568 23.3513 25.2092C23.4736 25.1616 23.6041 25.1391 23.7352 25.1429Z" stroke="#111827" stroke-width="2" mask="url(#path-1-inside-1_6_1692)"/>
<path d="M30.0737 10.7033C30.001 10.517 29.9245 10.3324 29.8443 10.1493L30.406 10.2409L30.0737 10.7033ZM30.846 13.4517C30.8111 13.2552 30.7722 13.0596 30.7294 12.8651L31.2606 13.0641L30.846 13.4517ZM31.0675 15.701L31.5503 16L31.0675 16.299C31.0695 16.1994 31.0705 16.0998 31.0705 16C31.0705 15.9002 31.0695 15.8006 31.0675 15.701ZM30.7294 19.1349C30.7722 18.9404 30.8111 18.7448 30.846 18.5483L31.2606 18.9359L30.7294 19.1349ZM29.8443 21.8507C29.9245 21.6676 30.001 21.483 30.0737 21.2967L30.406 21.7591L29.8443 21.8507ZM28.4461 24.3422C28.5604 24.1786 28.6711 24.0128 28.7784 23.845L29.0142 24.3623L28.4461 24.3422ZM26.8029 26.3029C26.8736 26.2323 26.9435 26.1609 27.0125 26.089L27.1431 26.6431L26.589 26.5125C26.6609 26.4435 26.7323 26.3736 26.8029 26.3029ZM24.345 28.2784C24.5128 28.1711 24.6786 28.0604 24.8422 27.9461L24.8623 28.5142L24.345 28.2784ZM21.7967 29.5737C21.983 29.501 22.1676 29.4245 22.3507 29.3443L22.2591 29.906L21.7967 29.5737ZM19.0483 30.346C19.2448 30.3111 19.4404 30.2722 19.6349 30.2294L19.4359 30.7606L19.0483 30.346ZM16.5 30.5705C16.5998 30.5705 16.6994 30.5695 16.799 30.5675L16.5 31.0503L16.201 30.5675C16.3006 30.5695 16.4002 30.5705 16.5 30.5705ZM13.3651 30.2294C13.5596 30.2722 13.7552 30.3111 13.9517 30.346L13.5641 30.7606L13.3651 30.2294ZM10.6493 29.3443C10.8324 29.4245 11.017 29.501 11.2033 29.5737L10.7409 29.906L10.6493 29.3443ZM8.15777 27.9461C8.32139 28.0604 8.48718 28.1711 8.65502 28.2784L8.13765 28.5142L8.15777 27.9461ZM6.19707 26.3029C6.26774 26.3736 6.33906 26.4435 6.41102 26.5125L5.85693 26.6431L5.98747 26.089C6.05653 26.1609 6.1264 26.2323 6.19707 26.3029ZM4.22162 23.845C4.32886 24.0128 4.43963 24.1786 4.55388 24.3422L3.98583 24.3623L4.22162 23.845ZM2.9263 21.2967C2.99897 21.483 3.07545 21.6676 3.15571 21.8507L2.594 21.7591L2.9263 21.2967ZM2.15397 18.5483C2.18888 18.7448 2.22778 18.9404 2.27064 19.1349L1.73941 18.9359L2.15397 18.5483ZM1.92946 16C1.92946 16.0998 1.93048 16.1994 1.93252 16.299L1.4497 16L1.93252 15.701C1.93048 15.8006 1.92946 15.9002 1.92946 16ZM2.27064 12.8651C2.22778 13.0596 2.18888 13.2552 2.15397 13.4517L1.73941 13.0641L2.27064 12.8651ZM3.15571 10.1493C3.07545 10.3324 2.99897 10.517 2.92631 10.7033L2.594 10.2409L3.15571 10.1493ZM4.55388 7.65777C4.43963 7.82139 4.32886 7.98718 4.22162 8.15502L3.98583 7.63765L4.55388 7.65777ZM6.19707 5.69707C6.1264 5.76774 6.05653 5.83906 5.98747 5.91102L5.85693 5.35693L6.41102 5.48747C6.33906 5.55653 6.26774 5.6264 6.19707 5.69707ZM8.65502 3.72162C8.48718 3.82886 8.32139 3.93963 8.15777 4.05388L8.13765 3.48583L8.65502 3.72162ZM11.2033 2.4263C11.017 2.49897 10.8324 2.57545 10.6493 2.65571L10.7409 2.094L11.2033 2.4263ZM13.9517 1.65397C13.7552 1.68888 13.5596 1.72778 13.3651 1.77064L13.5641 1.23941L13.9517 1.65397ZM16.5 1.42946C16.4002 1.42946 16.3006 1.43048 16.201 1.43252L16.5 0.949702L16.799 1.43252C16.6994 1.43048 16.5998 1.42946 16.5 1.42946ZM19.6349 1.77064C19.4404 1.72778 19.2448 1.68888 19.0483 1.65397L19.4359 1.23941L19.6349 1.77064ZM22.3507 2.65571C22.1676 2.57545 21.983 2.49897 21.7967 2.4263L22.2591 2.094L22.3507 2.65571ZM24.8422 4.05388C24.6786 3.93963 24.5128 3.82886 24.345 3.72162L24.8623 3.48583L24.8422 4.05388ZM26.8029 5.69707C26.7323 5.6264 26.6609 5.55653 26.589 5.48747L27.1431 5.35693L27.0125 5.91102C26.9435 5.83906 26.8736 5.76774 26.8029 5.69707ZM28.7784 8.15502C28.6711 7.98717 28.5604 7.82139 28.4461 7.65777L29.0142 7.63765L28.7784 8.15502Z" stroke="#111827" stroke-linecap="round" stroke-linejoin="round"/>
</g>
<defs>
<clipPath id="clip0_6_1692">
<rect width="32" height="32" fill="white" transform="translate(0.5)"/>
</clipPath>
</defs>
</svg>
