<svg width="33" height="33" viewBox="0 0 33 33" fill="none" xmlns="http://www.w3.org/2000/svg">
<path d="M16.9599 5.07288C10.7979 5.07288 5.78271 10.0904 5.78271 16.25C5.78271 22.4096 10.8003 27.4272 16.9599 27.4272C23.1195 27.4272 28.137 22.4096 28.137 16.25C28.137 10.0904 23.1195 5.07288 16.9599 5.07288ZM16.9433 6.06598C17.1344 6.07093 17.316 6.15058 17.4494 6.28796C17.5828 6.42534 17.6575 6.60956 17.6574 6.80135C17.6574 6.99638 17.5799 7.18343 17.442 7.32133C17.3041 7.45924 17.1171 7.53672 16.922 7.53672C16.727 7.53672 16.5399 7.45924 16.402 7.32133C16.2641 7.18343 16.1867 6.99638 16.1867 6.80135C16.1866 6.70296 16.2063 6.60557 16.2446 6.51493C16.2829 6.4243 16.339 6.34226 16.4095 6.27369C16.4801 6.20512 16.5637 6.15141 16.6554 6.11573C16.747 6.08005 16.845 6.06313 16.9433 6.06598ZM18.6269 7.27662C19.9178 7.51842 21.1406 8.03834 22.2104 8.80027C23.2803 9.5622 24.1714 10.5479 24.8219 11.6888L23.9541 13.6467C23.8052 13.9848 23.9589 14.382 24.2946 14.5334L25.964 15.2735C26.0158 15.7953 26.0221 16.3206 25.9829 16.8435H25.0537C24.9614 16.8435 24.9236 16.905 24.9236 16.9948V17.4205C24.9236 18.423 24.3585 18.6429 23.8619 18.6973C23.389 18.7517 22.8665 18.4987 22.8003 18.2102C22.5212 16.6425 22.0578 16.3091 21.3248 15.7298C22.2351 15.1529 23.1809 14.2993 23.1809 13.1596C23.1809 11.9277 22.3368 11.1521 21.7622 10.7714C20.9536 10.2394 20.0598 10.133 19.8186 10.133H10.2186C11.546 8.65004 13.3254 7.6461 15.281 7.27662L16.4137 8.46361C16.669 8.73081 17.0923 8.74263 17.3595 8.4849L18.6269 7.27662ZM8.17562 12.7198C8.36694 12.7253 8.54856 12.8052 8.6819 12.9425C8.81524 13.0799 8.88979 13.2637 8.88971 13.4551C8.88971 13.6502 8.81223 13.8372 8.67433 13.9751C8.53642 14.113 8.34937 14.1905 8.15434 14.1905C7.95931 14.1905 7.77226 14.113 7.63436 13.9751C7.49645 13.8372 7.41897 13.6502 7.41897 13.4551C7.41893 13.3568 7.43863 13.2594 7.47691 13.1687C7.51519 13.0781 7.57127 12.9961 7.64182 12.9275C7.71238 12.8589 7.79598 12.8052 7.88767 12.7695C7.97936 12.7338 8.07728 12.7169 8.17562 12.7198ZM25.7086 12.7529C25.8999 12.7584 26.0816 12.8383 26.2149 12.9756C26.3482 13.113 26.4228 13.2968 26.4227 13.4882C26.4227 13.6833 26.3452 13.8703 26.2073 14.0082C26.0694 14.1461 25.8824 14.2236 25.6873 14.2236C25.4923 14.2236 25.3053 14.1461 25.1674 14.0082C25.0295 13.8703 24.952 13.6833 24.952 13.4882C24.9519 13.3899 24.9716 13.2925 25.0099 13.2018C25.0482 13.1112 25.1043 13.0292 25.1748 12.9606C25.2454 12.892 25.329 12.8383 25.4207 12.8026C25.5124 12.7669 25.6103 12.75 25.7086 12.7529ZM9.56124 12.8711H10.8428V18.65H8.25602C7.93654 17.5282 7.83698 16.3551 7.96281 15.1954L9.54705 14.4908C9.88518 14.3395 10.0389 13.9446 9.88754 13.6065L9.56124 12.8711ZM14.9098 12.9326H17.9624C18.1208 12.9326 19.0761 13.1146 19.0761 13.8311C19.0761 14.4246 18.3431 14.6374 17.7402 14.6374H14.9074L14.9098 12.9326ZM14.9098 17.0847H17.2483C17.4611 17.0847 18.3904 17.1462 18.686 18.3332C18.7782 18.6973 18.9839 19.8843 19.1234 20.265C19.2629 20.6906 19.828 21.5418 20.431 21.5418H24.2473C23.9916 21.8844 23.7119 22.2083 23.4103 22.5113L21.8568 22.1779C21.495 22.0999 21.138 22.3316 21.06 22.6934L20.6911 24.4147C19.5049 24.9521 18.2168 25.2271 16.9146 25.2209C15.6124 25.2148 14.3269 24.9277 13.1459 24.3793L12.777 22.6579C12.699 22.2961 12.3443 22.0644 11.9825 22.1424L10.4621 22.4687C10.18 22.1777 9.91772 21.868 9.6771 21.5418H17.071C17.1537 21.5418 17.2105 21.5277 17.2105 21.4496V18.8345C17.2105 18.7588 17.1537 18.7422 17.071 18.7422H14.9074L14.9098 17.0847ZM11.4978 23.0741C11.6891 23.0796 11.8707 23.1595 12.0041 23.2968C12.1374 23.4341 12.212 23.618 12.2119 23.8094C12.2119 24.0045 12.1344 24.1915 11.9965 24.3294C11.8586 24.4673 11.6715 24.5448 11.4765 24.5448C11.2815 24.5448 11.0944 24.4673 10.9565 24.3294C10.8186 24.1915 10.7411 24.0045 10.7411 23.8094C10.7411 23.711 10.7608 23.6136 10.7991 23.523C10.8374 23.4324 10.8934 23.3503 10.964 23.2818C11.0345 23.2132 11.1181 23.1595 11.2098 23.1238C11.3015 23.0881 11.3994 23.0712 11.4978 23.0741ZM22.3865 23.1072C22.5778 23.1127 22.7594 23.1926 22.8927 23.3299C23.0261 23.4672 23.1006 23.6511 23.1005 23.8425C23.1005 24.0376 23.0231 24.2246 22.8852 24.3625C22.7473 24.5004 22.5602 24.5779 22.3652 24.5779C22.1701 24.5779 21.9831 24.5004 21.8452 24.3625C21.7073 24.2246 21.6298 24.0376 21.6298 23.8425C21.6298 23.7441 21.6495 23.6467 21.6878 23.5561C21.726 23.4655 21.7821 23.3834 21.8527 23.3149C21.9232 23.2463 22.0068 23.1926 22.0985 23.1569C22.1902 23.1212 22.2881 23.1043 22.3865 23.1072Z" fill="black"/>
<path fill-rule="evenodd" clip-rule="evenodd" d="M27.5129 16.25C27.5129 19.0488 26.401 21.733 24.422 23.712C22.4429 25.6911 19.7588 26.8029 16.96 26.8029C14.1612 26.8029 11.477 25.6911 9.49793 23.712C7.51888 21.733 6.40705 19.0488 6.40705 16.25C6.40705 13.4512 7.51888 10.767 9.49793 8.78797C11.477 6.80891 14.1612 5.69709 16.96 5.69709C19.7588 5.69709 22.4429 6.80891 24.422 8.78797C26.401 10.767 27.5129 13.4512 27.5129 16.25ZM27.3142 15.2309L28.96 16.25L27.3142 17.2691L28.7282 18.5909L26.917 19.2695L28.0473 20.8419L26.1343 21.154L26.9383 22.918L25.0017 22.8494L25.4463 24.7363L23.5594 24.2918L23.6279 26.2283L21.864 25.4244L21.5519 27.3373L19.9795 26.207L19.3008 28.0183L17.9791 26.6043L16.96 28.25L15.9408 26.6043L14.6191 28.0183L13.9405 26.207L12.368 27.3373L12.0559 25.4244L10.292 26.2283L10.3606 24.2918L8.47366 24.7363L8.91819 22.8494L6.98164 22.918L7.78558 21.154L5.87267 20.8419L7.00292 19.2695L5.19169 18.5909L6.60568 17.2691L4.95996 16.25L6.60568 15.2309L5.19169 13.9091L7.00292 13.2305L5.87267 11.6581L7.78558 11.346L6.98164 9.58202L8.91819 9.65059L8.47366 7.76369L10.3606 8.20823L10.292 6.27167L12.0559 7.07562L12.368 5.16271L13.9405 6.29296L14.6191 4.48172L15.9408 5.89571L16.96 4.25L17.9791 5.89571L19.3008 4.48172L19.9795 6.29296L21.5519 5.16271L21.864 7.07562L23.6279 6.27167L23.5594 8.20823L25.4463 7.76369L25.0017 9.65059L26.9383 9.58202L26.1343 11.346L28.0473 11.6581L26.917 13.2305L28.7282 13.9091L27.3142 15.2309Z" fill="black" stroke="black" stroke-linecap="round" stroke-linejoin="round"/>
</svg>
