<svg width="33" height="33" viewBox="0 0 33 33" fill="none" xmlns="http://www.w3.org/2000/svg">
<path fill-rule="evenodd" clip-rule="evenodd" d="M16.4998 2.80835C17.0521 2.80835 17.4998 3.25606 17.4998 3.80835V7.1768L26.6615 5.14086C26.6767 5.1374 26.692 5.13429 26.7074 5.13154C26.8985 5.09715 27.0878 5.11985 27.2568 5.18799C27.3909 5.24192 27.5119 5.32438 27.6112 5.4295C27.6961 5.51932 27.7651 5.62572 27.8126 5.74508L32.4274 17.2822C32.4747 17.4003 32.499 17.5264 32.499 17.6536C32.499 19.3832 31.492 20.5345 30.3442 21.2039C29.2258 21.8562 27.8906 22.1149 26.8839 22.1149C25.8771 22.1149 24.542 21.8562 23.4235 21.2039C22.2757 20.5345 21.2688 19.3832 21.2688 17.6536C21.2688 17.5264 21.2931 17.4003 21.3403 17.2822L25.252 7.50287L17.4998 9.22558V28.1912H19.961C20.5133 28.1912 20.961 28.6389 20.961 29.1912C20.961 29.7435 20.5133 30.1912 19.961 30.1912H16.5162L16.4998 30.1913L16.4834 30.1912H13.0384C12.4861 30.1912 12.0384 29.7435 12.0384 29.1912C12.0384 28.6389 12.4861 28.1912 13.0384 28.1912H15.4998V9.67003L7.48116 11.452L11.6594 21.8975C11.7066 22.0156 11.7309 22.1417 11.7309 22.2689C11.7309 23.9985 10.7239 25.1498 9.57616 25.8192C8.45773 26.4715 7.12257 26.7302 6.11582 26.7302C5.10908 26.7302 3.77392 26.4715 2.65549 25.8192C1.5077 25.1498 0.500732 23.9985 0.500732 22.2689C0.500732 22.1417 0.525008 22.0156 0.572256 21.8975L5.17965 10.379C5.29472 10.0738 5.55667 9.83083 5.89887 9.75479L15.4998 7.62124V3.80835C15.4998 3.25606 15.9475 2.80835 16.4998 2.80835ZM2.50762 22.4443C2.56574 23.1718 2.98898 23.6984 3.66307 24.0916C4.41952 24.5327 5.39191 24.7302 6.11582 24.7302C6.83974 24.7302 7.81213 24.5327 8.56857 24.0916C9.24266 23.6984 9.6659 23.1718 9.72403 22.4443L6.11582 13.4238L2.50762 22.4443ZM24.4311 19.4763C23.757 19.0831 23.3338 18.5565 23.2757 17.829L26.8839 8.80847L30.4921 17.829C30.4339 18.5565 30.0107 19.0831 29.3366 19.4763C28.5802 19.9174 27.6078 20.1149 26.8839 20.1149C26.16 20.1149 25.1876 19.9174 24.4311 19.4763Z" fill="#111827"/>
</svg>
