<svg width="33" height="33" viewBox="0 0 33 33" fill="none" xmlns="http://www.w3.org/2000/svg">
<path fill-rule="evenodd" clip-rule="evenodd" d="M16.4999 2.80845C17.0522 2.80845 17.4999 3.25616 17.4999 3.80845V7.17702L26.651 5.14343C26.6982 5.13214 26.7465 5.12422 26.7956 5.11988C26.9321 5.1076 27.0662 5.12383 27.1911 5.16426C27.3497 5.21548 27.493 5.30563 27.6076 5.42579C27.6962 5.51846 27.7677 5.62902 27.816 5.75343L32.4275 17.2823C32.4748 17.4004 32.4991 17.5265 32.4991 17.6537C32.4991 19.3833 31.4921 20.5346 30.3443 21.204C29.2259 21.8563 27.8907 22.115 26.884 22.115C25.8772 22.115 24.5421 21.8563 23.4236 21.204C22.2758 20.5346 21.2689 19.3833 21.2689 17.6537C21.2689 17.5265 21.2931 17.4004 21.3404 17.2823L25.2521 7.5031L17.4999 9.22581V28.1913H19.9611C20.5134 28.1913 20.9611 28.639 20.9611 29.1913C20.9611 29.7436 20.5134 30.1913 19.9611 30.1913H16.5163L16.4999 30.1914L16.4835 30.1913H13.0385C12.4862 30.1913 12.0385 29.7436 12.0385 29.1913C12.0385 28.639 12.4862 28.1913 13.0385 28.1913H15.4999V9.67025L7.4813 11.4522L11.6595 21.8976C11.7067 22.0157 11.731 22.1418 11.731 22.269C11.731 23.9986 10.724 25.1499 9.57626 25.8193C8.45782 26.4716 7.12267 26.7303 6.11592 26.7303C5.10918 26.7303 3.77402 26.4716 2.65559 25.8193C1.5078 25.1499 0.500832 23.9986 0.500832 22.269C0.500832 22.1418 0.525107 22.0157 0.572355 21.8976L5.18272 10.3717C5.19484 10.3403 5.20852 10.3096 5.22368 10.2797C5.35427 10.022 5.59498 9.82256 5.89907 9.75499L15.4999 7.62146V3.80845C15.4999 3.25616 15.9476 2.80845 16.4999 2.80845ZM2.50772 22.4444C2.56584 23.1719 2.98908 23.6985 3.66317 24.0917C4.41962 24.5328 5.39201 24.7303 6.11592 24.7303C6.83983 24.7303 7.81222 24.5328 8.56867 24.0917C9.24276 23.6985 9.666 23.1719 9.72413 22.4444L6.11592 13.4239L2.50772 22.4444ZM24.4312 19.4764C23.7571 19.0832 23.3339 18.5566 23.2758 17.8291L26.884 8.80856L30.4922 17.8291C30.434 18.5566 30.0108 19.0832 29.3367 19.4764C28.5803 19.9175 27.6079 20.115 26.884 20.115C26.1601 20.115 25.1877 19.9175 24.4312 19.4764Z" fill="#111827"/>
</svg>
