<svg width="33" height="32" viewBox="0 0 33 32" fill="none" xmlns="http://www.w3.org/2000/svg">
<path fill-rule="evenodd" clip-rule="evenodd" d="M1.50092 0.000854492C0.948631 0.000854492 0.500916 0.44857 0.500916 1.00085V8.5004C0.500916 9.05268 0.948631 9.5004 1.50092 9.5004C2.0532 9.5004 2.50092 9.05268 2.50092 8.5004V2.00085H9.00046C9.55274 2.00085 10.0005 1.55314 10.0005 1.00085C10.0005 0.44857 9.55274 0.000854492 9.00046 0.000854492H1.50092ZM23.9995 0.000854492C23.4473 0.000854492 22.9995 0.44857 22.9995 1.00085C22.9995 1.55314 23.4473 2.00085 23.9995 2.00085H30.4991V8.5004C30.4991 9.05268 30.9468 9.5004 31.4991 9.5004C32.0514 9.5004 32.4991 9.05268 32.4991 8.5004V1.00085C32.4991 0.44857 32.0514 0.000854492 31.4991 0.000854492H23.9995ZM2.50092 23.4995C2.50092 22.9472 2.0532 22.4995 1.50092 22.4995C0.948631 22.4995 0.500916 22.9472 0.500916 23.4995V30.999C0.500916 31.5513 0.948631 31.999 1.50092 31.999H9.00046C9.55274 31.999 10.0005 31.5513 10.0005 30.999C10.0005 30.4467 9.55274 29.999 9.00046 29.999H2.50092V23.4995ZM32.4991 23.4995C32.4991 22.9472 32.0514 22.4995 31.4991 22.4995C30.9468 22.4995 30.4991 22.9472 30.4991 23.4995V29.999H23.9995C23.4473 29.999 22.9995 30.4467 22.9995 30.999C22.9995 31.5513 23.4473 31.999 23.9995 31.999H31.4991C32.0514 31.999 32.4991 31.5513 32.4991 30.999V23.4995ZM8.31867 6.81874C7.76639 6.81874 7.31867 7.26645 7.31867 7.81874V24.1814C7.31867 24.7337 7.76639 25.1814 8.31867 25.1814H24.6813C25.2336 25.1814 25.6813 24.7337 25.6813 24.1814V7.81874C25.6813 7.26645 25.2336 6.81874 24.6813 6.81874H8.31867ZM9.31867 23.1814V8.81874H23.6813V23.1814H9.31867Z" fill="#111827"/>
</svg>
