<svg width="33" height="32" viewBox="0 0 33 32" fill="none" xmlns="http://www.w3.org/2000/svg">
<path fill-rule="evenodd" clip-rule="evenodd" d="M5.70068 5.00085C3.93353 5.00085 2.50098 6.43341 2.50098 8.20056C2.50098 9.96771 3.93353 11.4003 5.70068 11.4003C6.7857 11.4003 7.74458 10.8602 8.32318 10.0342C8.32899 10.0251 8.33497 10.0161 8.34111 10.0071C8.34752 9.99775 8.35405 9.98854 8.36071 9.97946C8.70157 9.47078 8.90039 8.85889 8.90039 8.20056C8.90039 6.43341 7.46783 5.00085 5.70068 5.00085ZM10.4778 10.2573C10.7497 9.62653 10.9004 8.93114 10.9004 8.20056C10.9004 5.32884 8.5724 3.00085 5.70068 3.00085C2.82896 3.00085 0.500977 5.32884 0.500977 8.20056C0.500977 11.0723 2.82896 13.4003 5.70068 13.4003C7.12127 13.4003 8.4088 12.8306 9.34728 11.9072L15.329 16L9.34725 20.0927C8.40877 19.1694 7.12125 18.5997 5.70068 18.5997C2.82896 18.5997 0.500977 20.9277 0.500977 23.7994C0.500977 26.6711 2.82896 28.9991 5.70068 28.9991C8.5724 28.9991 10.9004 26.6711 10.9004 23.7994C10.9004 23.0688 10.7497 22.3734 10.4777 21.7426L17.0999 17.2116L30.9343 26.6772C31.3901 26.9891 32.0124 26.8724 32.3243 26.4166C32.6361 25.9608 32.5194 25.3385 32.0636 25.0266L17.683 15.1872C17.671 15.1786 17.6588 15.1703 17.6465 15.1623L10.4778 10.2573ZM5.70068 20.5997C3.93353 20.5997 2.50098 22.0322 2.50098 23.7994C2.50098 25.5665 3.93353 26.9991 5.70068 26.9991C7.46783 26.9991 8.90039 25.5665 8.90039 23.7994C8.90039 23.1408 8.70141 22.5287 8.36029 22.0199C8.35378 22.011 8.34738 22.002 8.34111 21.9928C8.3351 21.984 8.32924 21.9751 8.32354 21.9662C7.74498 21.14 6.78592 20.5997 5.70068 20.5997ZM32.3243 5.58339C32.6362 6.0392 32.5195 6.66152 32.0637 6.97339L21.9146 13.9175C21.4588 14.2294 20.8365 14.1127 20.5246 13.6569C20.2127 13.2011 20.3294 12.5788 20.7852 12.2669L30.9343 5.32277C31.3901 5.0109 32.0125 5.12759 32.3243 5.58339Z" fill="#111827"/>
</svg>
