<svg width="32" height="32" viewBox="0 0 32 32" fill="none" xmlns="http://www.w3.org/2000/svg">
<path d="M7.35999 13.12C9.21567 13.12 10.72 11.6157 10.72 9.76002C10.72 7.90434 9.21567 6.40002 7.35999 6.40002C5.50432 6.40002 4 7.90434 4 9.76002C4 11.6157 5.50432 13.12 7.35999 13.12Z" stroke="#1C1B1F" stroke-width="2" stroke-linecap="round" stroke-linejoin="round"/>
<path d="M7.35999 25.6C9.21567 25.6 10.72 24.0957 10.72 22.24C10.72 20.3843 9.21567 18.88 7.35999 18.88C5.50432 18.88 4 20.3843 4 22.24C4 24.0957 5.50432 25.6 7.35999 25.6Z" stroke="#1C1B1F" stroke-width="2" stroke-linecap="round" stroke-linejoin="round"/>
<path d="M16.48 16L10.1328 20.3428" stroke="#1C1B1F" stroke-width="2" stroke-linecap="round" stroke-linejoin="round"/>
<path d="M28 8.11792L19.8801 13.6736" stroke="#1C1B1F" stroke-width="2" stroke-linecap="round" stroke-linejoin="round"/>
<path d="M28 23.8821L10.1328 11.6571" stroke="#1C1B1F" stroke-width="2" stroke-linecap="round" stroke-linejoin="round"/>
</svg>
