<svg width="33" height="33" viewBox="0 0 33 33" fill="none" xmlns="http://www.w3.org/2000/svg">
<path fill-rule="evenodd" clip-rule="evenodd" d="M1.50171 3.00098C0.949425 3.00098 0.50171 3.44869 0.50171 4.00098V11.5222C0.50171 12.0745 0.949425 12.5222 1.50171 12.5222C2.05399 12.5222 2.50171 12.0745 2.50171 11.5222V5.00098H30.499V27.9987H19.006C18.4537 27.9987 18.006 28.4464 18.006 28.9987C18.006 29.551 18.4537 29.9987 19.006 29.9987H31.499C32.0513 29.9987 32.499 29.551 32.499 28.9987V4.00098C32.499 3.44869 32.0513 3.00098 31.499 3.00098H1.50171ZM0.500854 16.5C0.500854 15.9477 0.94857 15.5 1.50085 15.5C3.27355 15.5 5.02889 15.8491 6.66665 16.5275C8.30441 17.2059 9.79251 18.2002 11.046 19.4537C12.2995 20.7072 13.2938 22.1953 13.9722 23.8331C14.6506 25.4708 14.9997 27.2262 14.9997 28.9988C14.9997 29.5511 14.552 29.9988 13.9997 29.9988C13.4474 29.9988 12.9997 29.5511 12.9997 28.9988C12.9997 27.4888 12.7023 25.9935 12.1244 24.5984C11.5466 23.2033 10.6996 21.9357 9.63179 20.8679C8.56402 19.8001 7.29639 18.9531 5.90128 18.3753C4.50618 17.7974 3.01091 17.5 1.50085 17.5C0.94857 17.5 0.500854 17.0523 0.500854 16.5ZM1.50085 20.4994C0.94857 20.4994 0.500854 20.9471 0.500854 21.4994C0.500854 22.0517 0.94857 22.4994 1.50085 22.4994C3.22458 22.4994 4.87771 23.1842 6.09657 24.403C7.31543 25.6219 8.00018 27.275 8.00018 28.9988C8.00018 29.551 8.44789 29.9988 9.00018 29.9988C9.55246 29.9988 10.0002 29.551 10.0002 28.9988C10.0002 26.7446 9.10472 24.5828 7.51078 22.9888C5.91685 21.3949 3.75502 20.4994 1.50085 20.4994ZM1.50085 25.4991C0.94857 25.4991 0.500854 25.9468 0.500854 26.4991C0.500854 27.0514 0.94857 27.4991 1.50085 27.4991C1.89862 27.4991 2.28009 27.6571 2.56136 27.9384C2.84262 28.2197 3.00063 28.6011 3.00063 28.9989C3.00063 29.5512 3.44834 29.9989 4.00063 29.9989C4.55291 29.9989 5.00063 29.5512 5.00063 28.9989C5.00063 28.0707 4.6319 27.1805 3.97557 26.5242C3.31923 25.8679 2.42905 25.4991 1.50085 25.4991Z" fill="#111827"/>
</svg>
