<svg width="32" height="33" viewBox="0 0 32 33" fill="none" xmlns="http://www.w3.org/2000/svg">
<path d="M3.99963 24.5C4.53007 24.5 5.03877 24.7107 5.41385 25.0858C5.78892 25.4609 5.99963 25.9696 5.99963 26.5" stroke="#1C1B1F" stroke-width="2" stroke-linecap="round" stroke-linejoin="round"/>
<path d="M3.99963 20.5C5.59093 20.5 7.11706 21.1321 8.24227 22.2574C9.36749 23.3826 9.99963 24.9087 9.99963 26.5" stroke="#1C1B1F" stroke-width="2" stroke-linecap="round" stroke-linejoin="round"/>
<path d="M3.99963 16.5C5.31285 16.5 6.61321 16.7587 7.82647 17.2612C9.03972 17.7638 10.1421 18.5003 11.0707 19.4289C11.9993 20.3575 12.7359 21.4599 13.2384 22.6732C13.741 23.8864 13.9996 25.1868 13.9996 26.5" stroke="#1C1B1F" stroke-width="2" stroke-linecap="round" stroke-linejoin="round"/>
<path d="M4.00037 12.5175V6.5H28.0004V26.5H18.005" stroke="#1C1B1F" stroke-width="2" stroke-linecap="round" stroke-linejoin="round"/>
</svg>
