<svg width="32" height="32" viewBox="0 0 32 32" fill="none" xmlns="http://www.w3.org/2000/svg">
<path d="M13.0603 12.7942H21.3707" stroke="#1C1B1F" stroke-width="2" stroke-linecap="round" stroke-linejoin="round"/>
<path d="M13.0603 16.9492H21.3707" stroke="#1C1B1F" stroke-width="2" stroke-linecap="round" stroke-linejoin="round"/>
<path d="M23.8285 27.5164H9.84253C8.73796 27.5164 7.84253 26.621 7.84253 25.5164V4.48364H23.5261C24.6307 4.48364 25.5261 5.37907 25.5261 6.48364V22.1531" stroke="#1C1B1F" stroke-width="2" stroke-linecap="round"/>
<path d="M11.0003 27.5164L10.9917 26.5165C10.4411 26.5212 9.99797 26.9702 10.0003 27.5207C10.0027 28.0713 10.4497 28.5164 11.0003 28.5164V27.5164ZM10.9888 22.4756L10.9848 23.4756L10.9888 22.4756ZM10.9888 23.1433H27.9901V21.1433H10.9888V23.1433ZM11.9788 22.4655V22.1533H9.97876V22.4655H11.9788ZM10.9848 23.4756C11.7897 23.4788 12.4646 24.1454 12.4646 24.996H14.4646C14.4646 23.0695 12.9245 21.4834 10.9928 21.4756L10.9848 23.4756ZM12.4646 24.996C12.4646 25.8442 11.7934 26.5095 10.9917 26.5165L11.009 28.5164C12.9332 28.4998 14.4646 26.9172 14.4646 24.996H12.4646ZM19.4894 26.5164H11.0003V28.5164H19.4894V26.5164ZM25.0001 26.5164H19.4894V28.5164H25.0001V26.5164ZM27.0001 24.5164C27.0001 25.621 26.1047 26.5164 25.0001 26.5164V28.5164C27.2092 28.5164 29.0001 26.7256 29.0001 24.5164H27.0001ZM27.0001 22.1533V24.5164H29.0001V22.1533H27.0001ZM9.97876 22.4655C9.97876 23.0313 10.4381 23.4733 10.9848 23.4756L10.9928 21.4756C11.5285 21.4777 11.9788 21.9108 11.9788 22.4655H9.97876ZM27.9901 23.1433C27.4434 23.1433 27.0001 22.7001 27.0001 22.1533H29.0001C29.0001 21.5954 28.5478 21.1433 27.9901 21.1433V23.1433ZM10.9888 21.1433C10.431 21.1433 9.97876 21.5955 9.97876 22.1533H11.9788C11.9788 22.7001 11.5355 23.1433 10.9888 23.1433V21.1433Z" fill="#1C1B1F"/>
<path d="M7.8877 9.85669H4.00007V7.48357C4.00007 5.82672 5.34322 4.48357 7.00007 4.48357H7.8877" stroke="#1C1B1F" stroke-width="2" stroke-linecap="round" stroke-linejoin="round"/>
</svg>
