<svg width="33" height="32" viewBox="0 0 33 32" fill="none" xmlns="http://www.w3.org/2000/svg">
<path fill-rule="evenodd" clip-rule="evenodd" d="M5.30346 7.32123V2.60522H4.50073C3.39616 2.60522 2.50073 3.50065 2.50073 4.60522V7.32123H5.30346ZM6.19511 0.605347H6.30346H26.4067C28.0635 0.605347 29.4067 1.94849 29.4067 3.60535V22.6788H31.489C32.0467 22.6788 32.499 23.131 32.499 23.6888V27.3948C32.499 29.604 30.7081 31.3948 28.499 31.3948H20.8613H10.2236L10.204 31.3946H8.30346C6.64661 31.3946 5.30346 30.0515 5.30346 28.3946V9.32123H1.50073C0.948448 9.32123 0.500732 8.87351 0.500732 8.32123V4.60522C0.500732 2.39608 2.29159 0.605225 4.50073 0.605225H6.17932C6.1846 0.605225 6.18986 0.605265 6.19511 0.605347ZM26.2848 29.3946L26.3043 29.3948H28.499C29.6035 29.3948 30.499 28.4994 30.499 27.3948V24.6788H28.5623C28.5116 24.6868 28.4596 24.6909 28.4067 24.6909C28.3537 24.6909 28.3017 24.6868 28.251 24.6788H13.4516C14.0027 25.3867 14.3303 26.2789 14.3303 27.2444C14.3303 28.0295 14.1137 28.7662 13.7364 29.3946H26.2848ZM10.2336 22.6788H27.4067V3.60535C27.4067 3.05306 26.959 2.60535 26.4067 2.60535H7.30346V28.3946C7.30346 28.9469 7.75118 29.3946 8.30346 29.3946H10.2477C11.3875 29.3812 12.3303 28.4365 12.3303 27.2444C12.3303 26.0461 11.3778 25.0978 10.2303 25.0939C9.68292 25.0921 9.22356 24.6495 9.22356 24.0839V23.6888C9.22356 23.131 9.67576 22.6788 10.2336 22.6788ZM11.8253 11.9926C11.8253 11.4403 12.273 10.9926 12.8253 10.9926H23.2127C23.765 10.9926 24.2127 11.4403 24.2127 11.9926C24.2127 12.5448 23.765 12.9926 23.2127 12.9926H12.8253C12.273 12.9926 11.8253 12.5448 11.8253 11.9926ZM11.8253 17.1865C11.8253 16.6343 12.273 16.1865 12.8253 16.1865H23.2127C23.765 16.1865 24.2127 16.6343 24.2127 17.1865C24.2127 17.7388 23.765 18.1865 23.2127 18.1865H12.8253C12.273 18.1865 11.8253 17.7388 11.8253 17.1865Z" fill="#111827"/>
</svg>
