<svg width="33" height="33" viewBox="0 0 33 33" fill="none" xmlns="http://www.w3.org/2000/svg">
<path fill-rule="evenodd" clip-rule="evenodd" d="M5.30346 7.82123V3.10522H4.50073C3.39616 3.10522 2.50073 4.00065 2.50073 5.10522V7.82123H5.30346ZM6.19511 1.10535H6.30346H26.4067C28.0635 1.10535 29.4067 2.44849 29.4067 4.10535V23.1788H31.489C32.0467 23.1788 32.499 23.631 32.499 24.1888V27.8948C32.499 30.104 30.7081 31.8948 28.499 31.8948H20.8613H10.2236L10.204 31.8946H8.30346C6.64661 31.8946 5.30346 30.5515 5.30346 28.8946V9.82123H1.50073C0.948448 9.82123 0.500732 9.37351 0.500732 8.82123V5.10522C0.500732 2.89608 2.29159 1.10522 4.50073 1.10522H6.17932C6.1846 1.10522 6.18986 1.10527 6.19511 1.10535ZM26.2848 29.8946L26.3043 29.8948H28.499C29.6035 29.8948 30.499 28.9994 30.499 27.8948V25.1788H28.5623C28.5116 25.1868 28.4596 25.1909 28.4067 25.1909C28.3537 25.1909 28.3017 25.1868 28.251 25.1788H13.4516C14.0027 25.8867 14.3303 26.7789 14.3303 27.7444C14.3303 28.5295 14.1137 29.2662 13.7364 29.8946H26.2848ZM10.2336 23.1788H27.4067V4.10535C27.4067 3.55306 26.959 3.10535 26.4067 3.10535H7.30346V28.8946C7.30346 29.4469 7.75118 29.8946 8.30346 29.8946H10.2477C11.3875 29.8812 12.3303 28.9365 12.3303 27.7444C12.3303 26.5461 11.3778 25.5978 10.2303 25.5939C9.68292 25.5921 9.22356 25.1495 9.22356 24.5839V24.1888C9.22356 23.631 9.67576 23.1788 10.2336 23.1788ZM11.8253 12.4926C11.8253 11.9403 12.273 11.4926 12.8253 11.4926H23.2127C23.765 11.4926 24.2127 11.9403 24.2127 12.4926C24.2127 13.0448 23.765 13.4926 23.2127 13.4926H12.8253C12.273 13.4926 11.8253 13.0448 11.8253 12.4926ZM11.8253 17.6865C11.8253 17.1343 12.273 16.6865 12.8253 16.6865H23.2127C23.765 16.6865 24.2127 17.1343 24.2127 17.6865C24.2127 18.2388 23.765 18.6865 23.2127 18.6865H12.8253C12.273 18.6865 11.8253 18.2388 11.8253 17.6865Z" fill="#111827"/>
</svg>
