<svg width="33" height="32" viewBox="0 0 33 32" fill="none" xmlns="http://www.w3.org/2000/svg">
<path fill-rule="evenodd" clip-rule="evenodd" d="M2.20784 0.293748C1.81731 -0.0967766 1.18415 -0.0967766 0.793626 0.293748C0.403101 0.684272 0.403101 1.31744 0.793626 1.70796L30.7918 31.7061C31.1823 32.0967 31.8155 32.0967 32.206 31.7061C32.5965 31.3156 32.5965 30.6824 32.206 30.2919L2.20784 0.293748ZM11.6218 2.5007C11.0695 2.5007 10.6218 2.94841 10.6218 3.5007C10.6218 4.05298 11.0695 4.5007 11.6218 4.5007H13.794C14.3462 4.5007 14.794 4.05298 14.794 3.5007C14.794 2.94841 14.3462 2.5007 13.794 2.5007H11.6218ZM18.1383 2.5007C17.586 2.5007 17.1383 2.94841 17.1383 3.5007C17.1383 4.05298 17.586 4.5007 18.1383 4.5007H22.4826C23.0349 4.5007 23.4826 4.05298 23.4826 3.5007C23.4826 2.94841 23.0349 2.5007 22.4826 2.5007H18.1383ZM26.8269 2.5007C26.2746 2.5007 25.8269 2.94841 25.8269 3.5007C25.8269 4.05298 26.2746 4.5007 26.8269 4.5007H27.9991V5.67403C27.9991 6.22631 28.4468 6.67403 28.9991 6.67403C29.5513 6.67403 29.9991 6.22631 29.9991 5.67403V3.5007C29.9991 2.94841 29.5513 2.5007 28.9991 2.5007H26.8269ZM29.9991 10.0207C29.9991 9.4684 29.5513 9.02069 28.9991 9.02069C28.4468 9.02069 27.9991 9.4684 27.9991 10.0207V14.3673C27.9991 14.9196 28.4468 15.3673 28.9991 15.3673C29.5513 15.3673 29.9991 14.9196 29.9991 14.3673V10.0207ZM5.00058 11.1137C5.00058 10.5615 4.55286 10.1137 4.00058 10.1137C3.44829 10.1137 3.00058 10.5615 3.00058 11.1137V13.2869C3.00058 13.8392 3.44829 14.2869 4.00058 14.2869C4.55286 14.2869 5.00058 13.8392 5.00058 13.2869V11.1137ZM5.00058 17.6333C5.00058 17.081 4.55286 16.6333 4.00058 16.6333C3.44829 16.6333 3.00058 17.081 3.00058 17.6333V21.9796C3.00058 22.5319 3.44829 22.9796 4.00058 22.9796C4.55286 22.9796 5.00058 22.5319 5.00058 21.9796V17.6333ZM29.9991 18.714C29.9991 18.1617 29.5513 17.714 28.9991 17.714C28.4468 17.714 27.9991 18.1617 27.9991 18.714V20.8873C27.9991 21.4396 28.4468 21.8873 28.9991 21.8873C29.5513 21.8873 29.9991 21.4396 29.9991 20.8873V18.714ZM5.00058 26.326C5.00058 25.7737 4.55286 25.326 4.00058 25.326C3.44829 25.326 3.00058 25.7737 3.00058 26.326V28.4992C3.00058 29.0515 3.44829 29.4992 4.00058 29.4992H6.17391C6.72619 29.4992 7.17391 29.0515 7.17391 28.4992C7.17391 27.9469 6.72619 27.4992 6.17391 27.4992H5.00058V26.326ZM10.5206 27.4992C9.96828 27.4992 9.52057 27.9469 9.52057 28.4992C9.52057 29.0515 9.96828 29.4992 10.5206 29.4992H14.8672C15.4195 29.4992 15.8672 29.0515 15.8672 28.4992C15.8672 27.9469 15.4195 27.4992 14.8672 27.4992H10.5206ZM19.2139 27.4992C18.6616 27.4992 18.2139 27.9469 18.2139 28.4992C18.2139 29.0515 18.6616 29.4992 19.2139 29.4992H21.3872C21.9395 29.4992 22.3872 29.0515 22.3872 28.4992C22.3872 27.9469 21.9395 27.4992 21.3872 27.4992H19.2139Z" fill="#111827"/>
</svg>
