<svg width="33" height="32" viewBox="0 0 33 32" fill="none" xmlns="http://www.w3.org/2000/svg">
<path fill-rule="evenodd" clip-rule="evenodd" d="M1.50073 0.000854492C0.948448 0.000854492 0.500732 0.44857 0.500732 1.00085V3.18255C0.500732 3.73483 0.948448 4.18255 1.50073 4.18255C2.05302 4.18255 2.50073 3.73483 2.50073 3.18255V2.00085H3.68242C4.23471 2.00085 4.68242 1.55314 4.68242 1.00085C4.68242 0.44857 4.23471 0.000854492 3.68242 0.000854492H1.50073ZM8.04581 0.000854492C7.49352 0.000854492 7.04581 0.44857 7.04581 1.00085C7.04581 1.55314 7.49352 2.00085 8.04581 2.00085H12.4092C12.9615 2.00085 13.4092 1.55314 13.4092 1.00085C13.4092 0.44857 12.9615 0.000854492 12.4092 0.000854492H8.04581ZM16.7726 0.000854492C16.2203 0.000854492 15.7726 0.44857 15.7726 1.00085C15.7726 1.55314 16.2203 2.00085 16.7726 2.00085H21.136C21.6882 2.00085 22.136 1.55314 22.136 1.00085C22.136 0.44857 21.6882 0.000854492 21.136 0.000854492H16.7726ZM25.4993 0.000854492C24.947 0.000854492 24.4993 0.44857 24.4993 1.00085C24.4993 1.55314 24.947 2.00085 25.4993 2.00085H26.681V3.18255C26.681 3.73483 27.1287 4.18255 27.681 4.18255C28.2333 4.18255 28.681 3.73483 28.681 3.18255V1.00085C28.681 0.44857 28.2333 0.000854492 27.681 0.000854492H25.4993ZM2.50073 7.54593C2.50073 6.99364 2.05302 6.54593 1.50073 6.54593C0.948448 6.54593 0.500732 6.99364 0.500732 7.54593V11.9093C0.500732 12.4616 0.948448 12.9093 1.50073 12.9093C2.05302 12.9093 2.50073 12.4616 2.50073 11.9093V7.54593ZM28.681 7.54593C28.681 6.99364 28.2333 6.54593 27.681 6.54593C27.1287 6.54593 26.681 6.99364 26.681 7.54593V11.9093C26.681 12.4616 27.1287 12.9093 27.681 12.9093C28.2333 12.9093 28.681 12.4616 28.681 11.9093V7.54593ZM2.50073 16.2727C2.50073 15.7204 2.05302 15.2727 1.50073 15.2727C0.948448 15.2727 0.500732 15.7204 0.500732 16.2727V20.6361C0.500732 21.1884 0.948448 21.6361 1.50073 21.6361C2.05302 21.6361 2.50073 21.1884 2.50073 20.6361V16.2727ZM28.681 16.2727C28.681 15.7204 28.2333 15.2727 27.681 15.2727C27.1287 15.2727 26.681 15.7204 26.681 16.2727V20.6361C26.681 21.1884 27.1287 21.6361 27.681 21.6361C28.2333 21.6361 28.681 21.1884 28.681 20.6361V16.2727ZM2.50073 24.9995C2.50073 24.4472 2.05302 23.9995 1.50073 23.9995C0.948448 23.9995 0.500732 24.4472 0.500732 24.9995V27.1811C0.500732 27.7334 0.948448 28.1811 1.50073 28.1811H3.68242C4.23471 28.1811 4.68242 27.7334 4.68242 27.1811C4.68242 26.6289 4.23471 26.1811 3.68242 26.1811H2.50073V24.9995ZM26.6812 24.9805V23.3631C26.6812 22.8108 27.1289 22.3631 27.6812 22.3631C28.2335 22.3631 28.6812 22.8108 28.6812 23.3631V26.1811H31.4989C32.0512 26.1811 32.4989 26.6288 32.4989 27.1811C32.4989 27.7334 32.0512 28.1811 31.4989 28.1811H28.6812V30.999C28.6812 31.5513 28.2335 31.999 27.6812 31.999C27.1289 31.999 26.6812 31.5513 26.6812 30.999V28.1811H25.4993C25.4953 28.1811 25.4913 28.1811 25.4873 28.1811H23.863C23.3107 28.1811 22.863 27.7334 22.863 27.1811C22.863 26.6288 23.3107 26.1811 23.863 26.1811H26.681V24.9995C26.681 24.9931 26.6811 24.9868 26.6812 24.9805ZM8.0458 26.1811C7.49352 26.1811 7.0458 26.6289 7.0458 27.1811C7.0458 27.7334 7.49352 28.1811 8.0458 28.1811H12.4092C12.9615 28.1811 13.4092 27.7334 13.4092 27.1811C13.4092 26.6289 12.9615 26.1811 12.4092 26.1811H8.0458ZM16.7726 26.1811C16.2203 26.1811 15.7726 26.6289 15.7726 27.1811C15.7726 27.7334 16.2203 28.1811 16.7726 28.1811H21.136C21.6882 28.1811 22.136 27.7334 22.136 27.1811C22.136 26.6289 21.6882 26.1811 21.136 26.1811H16.7726Z" fill="#111827"/>
</svg>
