<svg width="33" height="32" viewBox="0 0 33 32" fill="none" xmlns="http://www.w3.org/2000/svg">
<path fill-rule="evenodd" clip-rule="evenodd" d="M9.68204 0.000854492C9.12976 0.000854492 8.68204 0.44857 8.68204 1.00085V8.18216H6.95495C6.40267 8.18216 5.95495 8.62988 5.95495 9.18216C5.95495 9.73445 6.40267 10.1822 6.95495 10.1822H9.42147C9.50455 10.2045 9.5919 10.2165 9.68204 10.2165C9.77218 10.2165 9.85954 10.2045 9.94262 10.1822H10.5911C11.1434 10.1822 11.5911 9.73445 11.5911 9.18216C11.5911 8.66053 11.1917 8.23219 10.682 8.18624V2.00085H30.4989V21.8177H24.3135C24.2676 21.3081 23.8393 20.9087 23.3176 20.9087C22.7653 20.9087 22.3176 21.3564 22.3176 21.9087V22.7447C22.3159 22.7688 22.315 22.7932 22.315 22.8177C22.315 22.8423 22.3159 22.8667 22.3176 22.8908V25.5448C22.3176 26.0971 22.7653 26.5448 23.3176 26.5448C23.8699 26.5448 24.3176 26.0971 24.3176 25.5448V23.8177H31.4989C32.0512 23.8177 32.4989 23.37 32.4989 22.8177V1.00085C32.4989 0.44857 32.0512 0.000854492 31.4989 0.000854492H9.68204ZM1.50073 8.18216C0.948448 8.18216 0.500732 8.62988 0.500732 9.18216V11.0002C0.500732 11.5525 0.948448 12.0002 1.50073 12.0002C2.05302 12.0002 2.50073 11.5525 2.50073 11.0002V10.1822H3.31881C3.87109 10.1822 4.31881 9.73445 4.31881 9.18216C4.31881 8.62988 3.87109 8.18216 3.31881 8.18216H1.50073ZM14.2273 8.18216C13.675 8.18216 13.2273 8.62988 13.2273 9.18216C13.2273 9.73445 13.675 10.1822 14.2273 10.1822H17.8634C18.4157 10.1822 18.8634 9.73445 18.8634 9.18216C18.8634 8.62988 18.4157 8.18216 17.8634 8.18216H14.2273ZM21.4995 8.18216C20.9473 8.18216 20.4995 8.62988 20.4995 9.18216C20.4995 9.73445 20.9473 10.1822 21.4995 10.1822H22.3176V11.0002C22.3176 11.5525 22.7653 12.0002 23.3176 12.0002C23.8699 12.0002 24.3176 11.5525 24.3176 11.0002V9.18216C24.3176 8.62988 23.8699 8.18216 23.3176 8.18216H21.4995ZM2.50073 14.6364C2.50073 14.0841 2.05302 13.6364 1.50073 13.6364C0.948448 13.6364 0.500732 14.0841 0.500732 14.6364V18.2725C0.500732 18.8248 0.948448 19.2725 1.50073 19.2725C2.05302 19.2725 2.50073 18.8248 2.50073 18.2725V14.6364ZM24.3176 14.6364C24.3176 14.0841 23.8699 13.6364 23.3176 13.6364C22.7653 13.6364 22.3176 14.0841 22.3176 14.6364V18.2725C22.3176 18.8248 22.7653 19.2725 23.3176 19.2725C23.8699 19.2725 24.3176 18.8248 24.3176 18.2725V14.6364ZM2.50073 21.9087C2.50073 21.3564 2.05302 20.9087 1.50073 20.9087C0.948448 20.9087 0.500732 21.3564 0.500732 21.9087V25.5448C0.500732 26.0971 0.948448 26.5448 1.50073 26.5448C2.05302 26.5448 2.50073 26.0971 2.50073 25.5448V21.9087ZM2.50073 29.181C2.50073 28.6287 2.05302 28.181 1.50073 28.181C0.948448 28.181 0.500732 28.6287 0.500732 29.181V30.9991C0.500732 31.5513 0.948448 31.9991 1.50073 31.9991H3.31881C3.87109 31.9991 4.31881 31.5513 4.31881 30.9991C4.31881 30.4468 3.87109 29.9991 3.31881 29.9991H2.50073V29.181ZM24.3176 29.181C24.3176 28.6287 23.8699 28.181 23.3176 28.181C22.7653 28.181 22.3176 28.6287 22.3176 29.181V29.9991H21.4995C20.9473 29.9991 20.4995 30.4468 20.4995 30.9991C20.4995 31.5513 20.9473 31.9991 21.4995 31.9991H23.3176C23.8699 31.9991 24.3176 31.5513 24.3176 30.9991V29.181ZM6.95495 29.9991C6.40267 29.9991 5.95495 30.4468 5.95495 30.9991C5.95495 31.5513 6.40267 31.9991 6.95495 31.9991H10.5911C11.1434 31.9991 11.5911 31.5513 11.5911 30.9991C11.5911 30.4468 11.1434 29.9991 10.5911 29.9991H6.95495ZM14.2273 29.9991C13.675 29.9991 13.2273 30.4468 13.2273 30.9991C13.2273 31.5513 13.675 31.9991 14.2273 31.9991H17.8634C18.4157 31.9991 18.8634 31.5513 18.8634 30.9991C18.8634 30.4468 18.4157 29.9991 17.8634 29.9991H14.2273Z" fill="#111827"/>
</svg>
