<svg width="33" height="32" viewBox="0 0 33 32" fill="none" xmlns="http://www.w3.org/2000/svg">
<path fill-rule="evenodd" clip-rule="evenodd" d="M9.68204 0.000854492C9.12976 0.000854492 8.68204 0.44857 8.68204 1.00085V3.05475C8.68204 3.60704 9.12976 4.05475 9.68204 4.05475C10.2343 4.05475 10.682 3.60704 10.682 3.05475V2.00085H11.5001C12.0524 2.00085 12.5001 1.55314 12.5001 1.00085C12.5001 0.44857 12.0524 0.000854492 11.5001 0.000854492H9.68204ZM15.1363 0.000854492C14.584 0.000854492 14.1363 0.44857 14.1363 1.00085C14.1363 1.55314 14.584 2.00085 15.1363 2.00085H18.7724C19.3247 2.00085 19.7724 1.55314 19.7724 1.00085C19.7724 0.44857 19.3247 0.000854492 18.7724 0.000854492H15.1363ZM22.4086 0.000854492C21.8563 0.000854492 21.4086 0.44857 21.4086 1.00085C21.4086 1.55314 21.8563 2.00085 22.4086 2.00085H26.0447C26.597 2.00085 27.0447 1.55314 27.0447 1.00085C27.0447 0.44857 26.597 0.000854492 26.0447 0.000854492H22.4086ZM29.6809 0.000854492C29.1286 0.000854492 28.6809 0.44857 28.6809 1.00085C28.6809 1.55314 29.1286 2.00085 29.6809 2.00085H30.4989V2.81893C30.4989 3.37121 30.9466 3.81893 31.4989 3.81893C32.0512 3.81893 32.4989 3.37121 32.4989 2.81893V1.00085C32.4989 0.44857 32.0512 0.000854492 31.4989 0.000854492H29.6809ZM32.4989 6.45508C32.4989 5.90279 32.0512 5.45508 31.4989 5.45508C30.9466 5.45508 30.4989 5.90279 30.4989 6.45508V10.0912C30.4989 10.6435 30.9466 11.0912 31.4989 11.0912C32.0512 11.0912 32.4989 10.6435 32.4989 10.0912V6.45508ZM10.682 7.16255C10.682 6.61027 10.2343 6.16255 9.68204 6.16255C9.12976 6.16255 8.68204 6.61027 8.68204 7.16255V8.18216H1.50073C0.948448 8.18216 0.500732 8.62988 0.500732 9.18216V30.9991C0.500732 31.5513 0.948448 31.9991 1.50073 31.9991H23.3176C23.8699 31.9991 24.3176 31.5513 24.3176 30.9991V23.8177H25.361C25.9133 23.8177 26.361 23.37 26.361 22.8177C26.361 22.2655 25.9133 21.8177 25.361 21.8177H24.3176V9.18216C24.3176 8.62988 23.8699 8.18216 23.3176 8.18216H10.682V7.16255ZM9.42147 10.1822C9.50455 10.2045 9.5919 10.2165 9.68204 10.2165C9.77218 10.2165 9.85954 10.2045 9.94262 10.1822H22.3176V22.7447C22.3159 22.7688 22.315 22.7932 22.315 22.8177C22.315 22.8423 22.3159 22.8667 22.3176 22.8908V29.9991H2.50073V10.1822H9.42147ZM32.4989 13.7274C32.4989 13.1751 32.0512 12.7274 31.4989 12.7274C30.9466 12.7274 30.4989 13.1751 30.4989 13.7274V17.3635C30.4989 17.9158 30.9466 18.3635 31.4989 18.3635C32.0512 18.3635 32.4989 17.9158 32.4989 17.3635V13.7274ZM32.4989 20.9997C32.4989 20.4474 32.0512 19.9997 31.4989 19.9997C30.9466 19.9997 30.4989 20.4474 30.4989 20.9997V21.8177H29.4529C28.9007 21.8177 28.4529 22.2655 28.4529 22.8177C28.4529 23.37 28.9007 23.8177 29.4529 23.8177H31.4989C32.0512 23.8177 32.4989 23.37 32.4989 22.8177V20.9997Z" fill="#111827"/>
</svg>
