<svg width="33" height="32" viewBox="0 0 33 32" fill="none" xmlns="http://www.w3.org/2000/svg">
<path fill-rule="evenodd" clip-rule="evenodd" d="M1.50098 0.000854492C0.948692 0.000854492 0.500977 0.44857 0.500977 1.00085V2.87574C0.500977 3.42802 0.948692 3.87574 1.50098 3.87574C2.05326 3.87574 2.50098 3.42802 2.50098 2.87574V2.00085H3.37586C3.92815 2.00085 4.37586 1.55314 4.37586 1.00085C4.37586 0.44857 3.92815 0.000854492 3.37586 0.000854492H1.50098ZM7.12563 0.000854492C6.57335 0.000854492 6.12563 0.44857 6.12563 1.00085C6.12563 1.55314 6.57335 2.00085 7.12563 2.00085H10.8754C11.4277 2.00085 11.8754 1.55314 11.8754 1.00085C11.8754 0.44857 11.4277 0.000854492 10.8754 0.000854492H7.12563ZM14.6252 0.000854492C14.0729 0.000854492 13.6252 0.44857 13.6252 1.00085C13.6252 1.55314 14.0729 2.00085 14.6252 2.00085H18.3749C18.9272 2.00085 19.3749 1.55314 19.3749 1.00085C19.3749 0.44857 18.9272 0.000854492 18.3749 0.000854492H14.6252ZM22.1247 0.000854492C21.5724 0.000854492 21.1247 0.44857 21.1247 1.00085C21.1247 1.55314 21.5724 2.00085 22.1247 2.00085H25.8745C26.4268 2.00085 26.8745 1.55314 26.8745 1.00085C26.8745 0.44857 26.4268 0.000854492 25.8745 0.000854492H22.1247ZM29.6243 0.000854492C29.072 0.000854492 28.6243 0.44857 28.6243 1.00085C28.6243 1.55314 29.072 2.00085 29.6243 2.00085H30.4991V2.87574C30.4991 3.42802 30.9469 3.87574 31.4991 3.87574C32.0514 3.87574 32.4991 3.42802 32.4991 2.87574V1.00085C32.4991 0.44857 32.0514 0.000854492 31.4991 0.000854492H29.6243ZM2.50098 6.62551C2.50098 6.07323 2.05326 5.62551 1.50098 5.62551C0.948692 5.62551 0.500977 6.07323 0.500977 6.62551V10.3753C0.500977 10.9276 0.948692 11.3753 1.50098 11.3753C2.05326 11.3753 2.50098 10.9276 2.50098 10.3753V6.62551ZM32.4991 6.62551C32.4991 6.07323 32.0514 5.62551 31.4991 5.62551C30.9469 5.62551 30.4991 6.07323 30.4991 6.62551V10.3753C30.4991 10.9276 30.9469 11.3753 31.4991 11.3753C32.0514 11.3753 32.4991 10.9276 32.4991 10.3753V6.62551ZM2.50098 14.1251C2.50098 13.5728 2.05326 13.1251 1.50098 13.1251C0.948692 13.1251 0.500977 13.5728 0.500977 14.1251V17.8748C0.500977 18.4271 0.948692 18.8748 1.50098 18.8748C2.05326 18.8748 2.50098 18.4271 2.50098 17.8748V14.1251ZM32.4991 14.1251C32.4991 13.5728 32.0514 13.1251 31.4991 13.1251C30.9469 13.1251 30.4991 13.5728 30.4991 14.1251V17.8748C30.4991 18.4271 30.9469 18.8748 31.4991 18.8748C32.0514 18.8748 32.4991 18.4271 32.4991 17.8748V14.1251ZM2.50098 21.6246C2.50098 21.0723 2.05326 20.6246 1.50098 20.6246C0.948692 20.6246 0.500977 21.0723 0.500977 21.6246V25.3744C0.500977 25.9266 0.948692 26.3744 1.50098 26.3744C2.05326 26.3744 2.50098 25.9266 2.50098 25.3744V21.6246ZM32.4991 21.6246C32.4991 21.0723 32.0514 20.6246 31.4991 20.6246C30.9469 20.6246 30.4991 21.0723 30.4991 21.6246V25.3744C30.4991 25.9266 30.9469 26.3744 31.4991 26.3744C32.0514 26.3744 32.4991 25.9266 32.4991 25.3744V21.6246ZM2.50098 29.1241C2.50098 28.5719 2.05326 28.1241 1.50098 28.1241C0.948692 28.1241 0.500977 28.5719 0.500977 29.1241V30.999C0.500977 31.5513 0.948692 31.999 1.50098 31.999H3.37586C3.92815 31.999 4.37586 31.5513 4.37586 30.999C4.37586 30.4467 3.92815 29.999 3.37586 29.999H2.50098V29.1241ZM32.4991 29.1241C32.4991 28.5719 32.0514 28.1241 31.4991 28.1241C30.9469 28.1241 30.4991 28.5719 30.4991 29.1241V29.999H29.6243C29.072 29.999 28.6243 30.4467 28.6243 30.999C28.6243 31.5513 29.072 31.999 29.6243 31.999H31.4991C32.0514 31.999 32.4991 31.5513 32.4991 30.999V29.1241ZM7.12563 29.999C6.57335 29.999 6.12563 30.4467 6.12563 30.999C6.12563 31.5513 6.57335 31.999 7.12563 31.999H10.8754C11.4277 31.999 11.8754 31.5513 11.8754 30.999C11.8754 30.4467 11.4277 29.999 10.8754 29.999H7.12563ZM14.6252 29.999C14.0729 29.999 13.6252 30.4467 13.6252 30.999C13.6252 31.5513 14.0729 31.999 14.6252 31.999H18.3749C18.9272 31.999 19.3749 31.5513 19.3749 30.999C19.3749 30.4467 18.9272 29.999 18.3749 29.999H14.6252ZM22.1247 29.999C21.5724 29.999 21.1247 30.4467 21.1247 30.999C21.1247 31.5513 21.5724 31.999 22.1247 31.999H25.8745C26.4268 31.999 26.8745 31.5513 26.8745 30.999C26.8745 30.4467 26.4268 29.999 25.8745 29.999H22.1247ZM9.00051 7.50039C8.44823 7.50039 8.00051 7.9481 8.00051 8.50039V23.4996C8.00051 24.0519 8.44823 24.4996 9.00051 24.4996H23.9997C24.552 24.4996 24.9997 24.0519 24.9997 23.4996V8.50039C24.9997 7.9481 24.552 7.50039 23.9997 7.50039H9.00051ZM10.0005 22.4996V9.50039H22.9997V22.4996H10.0005Z" fill="#111827"/>
</svg>
