<svg width="32" height="32" viewBox="0 0 32 32" fill="none" xmlns="http://www.w3.org/2000/svg">
<path d="M9.5385 19.6923C11.5777 19.6923 13.2308 18.0392 13.2308 16C13.2308 13.9608 11.5777 12.3077 9.5385 12.3077C7.49929 12.3077 5.84619 13.9608 5.84619 16C5.84619 18.0392 7.49929 19.6923 9.5385 19.6923Z" stroke="#1C1B1F" stroke-width="2" stroke-linecap="round" stroke-linejoin="round"/>
<path d="M22.4616 28C24.5008 28 26.1539 26.3469 26.1539 24.3077C26.1539 22.2685 24.5008 20.6154 22.4616 20.6154C20.4224 20.6154 18.7693 22.2685 18.7693 24.3077C18.7693 26.3469 20.4224 28 22.4616 28Z" stroke="#1C1B1F" stroke-width="2" stroke-linecap="round" stroke-linejoin="round"/>
<path d="M22.4616 11.3846C24.5008 11.3846 26.1539 9.73151 26.1539 7.69231C26.1539 5.6531 24.5008 4 22.4616 4C20.4224 4 18.7693 5.6531 18.7693 7.69231C18.7693 9.73151 20.4224 11.3846 22.4616 11.3846Z" stroke="#1C1B1F" stroke-width="2" stroke-linecap="round" stroke-linejoin="round"/>
<path d="M19.3559 9.68878L12.6438 14.0037" stroke="#1C1B1F" stroke-width="2" stroke-linecap="round" stroke-linejoin="round"/>
<path d="M12.6438 17.9963L19.3558 22.3112" stroke="#1C1B1F" stroke-width="2" stroke-linecap="round" stroke-linejoin="round"/>
</svg>
