<svg width="33" height="32" viewBox="0 0 33 32" fill="none" xmlns="http://www.w3.org/2000/svg">
<path fill-rule="evenodd" clip-rule="evenodd" d="M20.9613 5.61602C20.9613 3.61945 22.5798 2.00092 24.5764 2.00092C26.573 2.00092 28.1915 3.61945 28.1915 5.61602C28.1915 7.61259 26.573 9.23113 24.5764 9.23113C23.3117 9.23113 22.1987 8.58174 21.5527 7.59822C21.549 7.59213 21.5453 7.58606 21.5415 7.58002C21.5396 7.57692 21.5376 7.57382 21.5356 7.57072C21.5295 7.56123 21.5233 7.55187 21.5169 7.54265C21.165 6.98492 20.9613 6.32426 20.9613 5.61602ZM24.5764 11.2311C22.9551 11.2311 21.4943 10.544 20.4693 9.44503L13.6134 13.8524C13.8875 14.514 14.0388 15.2393 14.0388 16C14.0388 16.7607 13.8876 17.486 13.6135 18.1476L20.4693 22.5549C21.4943 21.456 22.9551 20.7689 24.5764 20.7689C27.6775 20.7689 30.1915 23.2828 30.1915 26.384C30.1915 29.4851 27.6775 31.9991 24.5764 31.9991C21.4753 31.9991 18.9613 29.4851 18.9613 26.384C18.9613 25.6233 19.1125 24.898 19.3866 24.2365L12.5307 19.8292C11.5057 20.928 10.0449 21.6151 8.4237 21.6151C5.32256 21.6151 2.80859 19.1012 2.80859 16C2.80859 12.8989 5.32256 10.3849 8.4237 10.3849C10.0449 10.3849 11.5057 11.072 12.5306 12.1708L19.3866 7.76345C19.1125 7.10192 18.9613 6.37663 18.9613 5.61602C18.9613 2.51488 21.4753 0.000915527 24.5764 0.000915527C27.6775 0.000915527 30.1915 2.51488 30.1915 5.61602C30.1915 8.71716 27.6775 11.2311 24.5764 11.2311ZM11.4915 17.9134C11.482 17.9267 11.4727 17.9404 11.4637 17.9544C11.455 17.968 11.4466 17.9817 11.4387 17.9955C10.7913 18.9716 9.68268 19.6151 8.4237 19.6151C6.42713 19.6151 4.80859 17.9966 4.80859 16C4.80859 14.0035 6.42713 12.3849 8.4237 12.3849C9.68298 12.3849 10.7919 13.0288 11.4391 14.0053C11.447 14.0188 11.4552 14.0322 11.4637 14.0455C11.4725 14.0593 11.4816 14.0727 11.491 14.0859C11.8382 14.641 12.0388 15.2971 12.0388 16C12.0388 16.7026 11.8384 17.3584 11.4915 17.9134ZM21.5173 24.4567C21.1651 25.0146 20.9613 25.6755 20.9613 26.384C20.9613 28.3805 22.5798 29.9991 24.5764 29.9991C26.573 29.9991 28.1915 28.3805 28.1915 26.384C28.1915 24.3874 26.573 22.7689 24.5764 22.7689C23.3115 22.7689 22.1983 23.4185 21.5523 24.4024C21.5469 24.4114 21.5413 24.4203 21.5356 24.4292C21.5296 24.4385 21.5235 24.4477 21.5173 24.4567Z" fill="#111827"/>
</svg>
