<svg width="33" height="32" viewBox="0 0 33 32" fill="none" xmlns="http://www.w3.org/2000/svg">
<path fill-rule="evenodd" clip-rule="evenodd" d="M10.4906 9.09578C10.1001 9.4863 10.1001 10.1195 10.4906 10.51C10.8812 10.9005 11.5143 10.9005 11.9049 10.51L15.5 6.91485V19.4982C15.5 20.0505 15.9477 20.4982 16.5 20.4982C17.0523 20.4982 17.5 20.0505 17.5 19.4982V6.91431L21.0957 10.51C21.4862 10.9005 22.1194 10.9005 22.5099 10.51C22.9004 10.1195 22.9004 9.4863 22.5099 9.09578L17.2074 3.79326C17.0704 3.65631 16.9036 3.56738 16.7279 3.52649C16.6954 3.5189 16.6622 3.5129 16.6285 3.50857C16.5699 3.50104 16.5108 3.49869 16.4518 3.50153C16.1882 3.51403 15.9513 3.6286 15.7798 3.80659L10.4906 9.09578ZM4.5 20.9978C5.05228 20.9978 5.5 21.4455 5.5 21.9978V26.4997H27.5V21.9978C27.5 21.4455 27.9477 20.9978 28.5 20.9978C29.0523 20.9978 29.5 21.4455 29.5 21.9978V27.4997C29.5 28.052 29.0523 28.4997 28.5 28.4997H4.5C3.94772 28.4997 3.5 28.052 3.5 27.4997V21.9978C3.5 21.4455 3.94772 20.9978 4.5 20.9978Z" fill="#111827"/>
</svg>
