<svg width="33" height="32" viewBox="0 0 33 32" fill="none" xmlns="http://www.w3.org/2000/svg">
<path fill-rule="evenodd" clip-rule="evenodd" d="M2.2206 0.000732422C1.66832 0.000732422 1.22061 0.44844 1.2206 1.00072L2.2206 1.00073L1.2206 1.00077V1.00092V1.00154V1.00398L1.2206 1.01376L1.2206 1.05288L1.2206 1.20929L1.22059 1.83443L1.22058 4.33088L1.2206 14.2841C1.22063 18.9319 2.5733 22.1942 5.1934 24.8872C7.74667 27.5115 11.4684 29.5505 16.045 31.8894C16.3178 32.0288 16.6394 32.0354 16.9177 31.9075C21.4002 29.8473 25.129 27.8689 27.7218 25.1894C30.3701 22.4526 31.7796 19.0461 31.7796 14.2841V1.00073C31.7796 0.448448 31.3319 0.000732422 30.7796 0.000732422H16.5001H2.2206ZM3.22058 4.33089L3.22059 2.00073H16.5001H29.7796V14.2841C29.7796 18.5845 28.5338 21.4742 26.2846 23.7987C24.0559 26.1019 20.7927 27.9058 16.5228 29.887C12.1175 27.6254 8.84134 25.7686 6.62688 23.4926C4.4074 21.2113 3.22063 18.4671 3.2206 14.2841L3.22058 4.33089ZM24.0652 11.2692C24.4647 10.8879 24.4794 10.2549 24.0981 9.85537C23.7167 9.45587 23.0838 9.44114 22.6843 9.82248L14.2086 17.9129L10.316 14.1972C9.91655 13.8159 9.28356 13.8306 8.90222 14.2301C8.52087 14.6296 8.53559 15.2626 8.93509 15.6439L13.5181 20.0187C13.9045 20.3875 14.5126 20.3875 14.899 20.0187L24.0652 11.2692Z" fill="#111827"/>
</svg>
