<svg width="33" height="32" viewBox="0 0 33 32" fill="none" xmlns="http://www.w3.org/2000/svg">
<path fill-rule="evenodd" clip-rule="evenodd" d="M2.22054 0.000732422C1.66826 0.000732422 1.22055 0.44844 1.22054 1.00072L2.22054 1.00073L1.22054 1.00077V1.00092V1.00154V1.00398L1.22054 1.01376L1.22054 1.05288L1.22054 1.20929L1.22053 1.83443L1.22052 4.33088L1.22054 14.2841C1.22057 18.9319 2.57324 22.1942 5.19334 24.8872C7.74661 27.5115 11.4683 29.5505 16.045 31.8894C16.1066 31.9209 16.1707 31.9456 16.2363 31.9635C16.3904 32.0056 16.5524 32.0102 16.7085 31.977C16.7857 31.9606 16.8596 31.9353 16.9291 31.9023C21.4065 29.844 25.1312 27.8666 27.7218 25.1894C30.37 22.4526 31.7795 19.0461 31.7795 14.2841V1.00073C31.7795 0.448448 31.3318 0.000732422 30.7795 0.000732422H16.5H2.22054ZM17.5001 29.4279C21.2937 27.6223 24.2291 25.9228 26.2845 23.7987C28.2577 21.7596 29.4586 19.2854 29.7237 15.8056H17.5001V29.4279ZM29.7795 13.8056V2.00073H17.4527C17.4835 2.097 17.5001 2.19962 17.5001 2.30613V13.8056H29.7795ZM15.5476 2.00073H3.22053L3.22052 4.33089L3.22054 13.8056H15.5001V2.30613C15.5001 2.19962 15.5168 2.097 15.5476 2.00073ZM3.2773 15.8056C3.5376 19.1545 4.68832 21.5001 6.62682 23.4926C8.66641 25.5889 11.6066 27.3295 15.5001 29.3584V15.8056H3.2773Z" fill="#111827"/>
</svg>
