<svg width="33" height="32" viewBox="0 0 33 32" fill="none" xmlns="http://www.w3.org/2000/svg">
<path fill-rule="evenodd" clip-rule="evenodd" d="M2.22054 0.000732422C1.66826 0.000732422 1.22055 0.44844 1.22054 1.00072L2.22054 1.00073L1.22054 1.00077V1.00092V1.00154V1.00398L1.22054 1.01376L1.22054 1.05288L1.22054 1.20929L1.22053 1.83443L1.22052 4.33088L1.22054 14.2841C1.22057 18.9319 2.57324 22.1942 5.19334 24.8872C7.74661 27.5115 11.4683 29.5505 16.045 31.8894C16.3177 32.0288 16.6393 32.0354 16.9177 31.9075C21.4001 29.8473 25.129 27.8689 27.7218 25.1894C30.37 22.4526 31.7795 19.0461 31.7795 14.2841V1.00073C31.7795 0.448448 31.3318 0.000732422 30.7795 0.000732422H16.5H2.22054ZM3.22052 4.33089L3.22053 2.00073H16.5H29.7795V14.2841C29.7795 18.5845 28.5338 21.4742 26.2845 23.7987C24.0558 26.1019 20.7927 27.9058 16.5227 29.887C12.1174 27.6254 8.84128 25.7686 6.62682 23.4926C4.40733 21.2113 3.22057 18.4671 3.22054 14.2841L3.22052 4.33089ZM16.5001 8.15321C17.0524 8.15321 17.5001 8.60092 17.5001 9.15321V13.1529H21.4998C22.0521 13.1529 22.4998 13.6006 22.4998 14.1529C22.4998 14.7052 22.0521 15.1529 21.4998 15.1529H17.5001V19.1526C17.5001 19.7049 17.0524 20.1526 16.5001 20.1526C15.9479 20.1526 15.5001 19.7049 15.5001 19.1526V15.1529H11.5004C10.9481 15.1529 10.5004 14.7052 10.5004 14.1529C10.5004 13.6006 10.9481 13.1529 11.5004 13.1529H15.5001V9.15321C15.5001 8.60092 15.9479 8.15321 16.5001 8.15321Z" fill="#111827"/>
</svg>
