<svg width="33" height="32" viewBox="0 0 33 32" fill="none" xmlns="http://www.w3.org/2000/svg">
<path fill-rule="evenodd" clip-rule="evenodd" d="M2.22054 0.000732422C1.66826 0.000732422 1.22055 0.44844 1.22054 1.00072L2.22054 1.00073L1.22054 1.00077V1.00092V1.00154V1.00398L1.22054 1.01376L1.22054 1.05288L1.22054 1.20929L1.22053 1.83443L1.22052 4.33088L1.22054 14.2841C1.22057 18.9319 2.57324 22.1942 5.19334 24.8872C7.74661 27.5115 11.4683 29.5505 16.045 31.8894C16.3177 32.0288 16.6393 32.0354 16.9177 31.9075C21.4001 29.8473 25.129 27.8689 27.7218 25.1894C30.37 22.4526 31.7795 19.0461 31.7795 14.2841V1.00073C31.7795 0.448448 31.3318 0.000732422 30.7795 0.000732422H16.5H2.22054ZM3.22052 4.33089L3.22053 2.00073H16.5H29.7795V14.2841C29.7795 16.2354 29.5231 17.8962 29.0327 19.3455L17.0737 10.9741C16.7293 10.7331 16.2711 10.7331 15.9267 10.9741L3.99078 19.3292C3.48263 17.8977 3.22055 16.2498 3.22054 14.2841L3.22052 4.33089ZM4.82784 21.1447C5.31979 21.995 5.9211 22.7672 6.62682 23.4926C8.84128 25.7686 12.1174 27.6254 16.5227 29.887C20.7927 27.9058 24.0558 26.1019 26.2845 23.7987C27.0578 22.9996 27.7124 22.1336 28.2386 21.1666C28.1364 21.1368 28.0372 21.09 27.9451 21.0255L16.5002 13.014L5.0551 21.0255C4.98305 21.076 4.90665 21.1156 4.82784 21.1447Z" fill="#111827"/>
</svg>
