<svg width="32" height="33" viewBox="0 0 32 33" fill="none" xmlns="http://www.w3.org/2000/svg">
<path d="M12.7561 28.4999C14.147 28.4999 15.2746 27.3723 15.2746 25.9814C15.2746 24.5905 14.147 23.4629 12.7561 23.4629C11.3651 23.4629 10.2375 24.5905 10.2375 25.9814C10.2375 27.3723 11.3651 28.4999 12.7561 28.4999Z" stroke="#1C1B1F" stroke-width="2" stroke-linecap="round" stroke-linejoin="round"/>
<path d="M22.8303 28.4999C24.2212 28.4999 25.3488 27.3723 25.3488 25.9814C25.3488 24.5905 24.2212 23.4629 22.8303 23.4629C21.4393 23.4629 20.3118 24.5905 20.3118 25.9814C20.3118 27.3723 21.4393 28.4999 22.8303 28.4999Z" stroke="#1C1B1F" stroke-width="2" stroke-linecap="round" stroke-linejoin="round"/>
<path d="M8.47401 8.64814H27.0814L24.3437 18.2299C24.2447 18.5766 24.0354 18.8816 23.7475 19.0987C23.4597 19.3159 23.1089 19.4333 22.7483 19.4333H12.8071C12.4465 19.4333 12.0957 19.3159 11.8079 19.0987C11.52 18.8816 11.3107 18.5766 11.2116 18.2299L7.46074 5.10171C7.41121 4.92836 7.30656 4.77586 7.16263 4.6673C7.0187 4.55873 6.84332 4.5 6.66303 4.5H4.91846" stroke="#1C1B1F" stroke-width="2" stroke-linecap="round" stroke-linejoin="round"/>
</svg>
