<svg width="33" height="33" viewBox="0 0 33 33" fill="none" xmlns="http://www.w3.org/2000/svg">
<path fill-rule="evenodd" clip-rule="evenodd" d="M1.50098 3.00073C0.948692 3.00073 0.500977 3.44845 0.500977 4.00073V28.9992C0.500977 29.5515 0.948692 29.9992 1.50098 29.9992H31.4991C32.0514 29.9992 32.4991 29.5515 32.4991 28.9992V4.00073C32.4991 3.44845 32.0514 3.00073 31.4991 3.00073H1.50098ZM2.50098 27.9992V5.00073H30.4991V27.9992H2.50098ZM11.2504 10.2503C11.2504 9.69806 10.8027 9.25034 10.2504 9.25034C9.69815 9.25034 9.25043 9.69806 9.25043 10.2503C9.25043 12.1731 10.0142 14.017 11.3738 15.3766C12.7334 16.7362 14.5773 17.5 16.5001 17.5C18.4228 17.5 20.2667 16.7362 21.6263 15.3766C22.9859 14.017 23.7497 12.1731 23.7497 10.2503C23.7497 9.69806 23.302 9.25034 22.7497 9.25034C22.1974 9.25034 21.7497 9.69806 21.7497 10.2503C21.7497 11.6426 21.1966 12.9779 20.2121 13.9624C19.2276 14.9469 17.8923 15.5 16.5001 15.5C15.1078 15.5 13.7725 14.9469 12.788 13.9624C11.8035 12.9779 11.2504 11.6426 11.2504 10.2503Z" fill="#111827"/>
</svg>
