<svg width="33" height="33" viewBox="0 0 33 33" fill="none" xmlns="http://www.w3.org/2000/svg">
<path fill-rule="evenodd" clip-rule="evenodd" d="M1.50073 3.00073C0.948448 3.00073 0.500732 3.44845 0.500732 4.00073V9.00042V28.9992C0.500732 29.5515 0.948448 29.9992 1.50073 29.9992H31.4989C32.0512 29.9992 32.4989 29.5515 32.4989 28.9992V9.00042V4.00073C32.4989 3.44845 32.0512 3.00073 31.4989 3.00073H1.50073ZM30.4989 8.00042V5.00073H2.50073V8.00042H30.4989ZM2.50073 10.0004H30.4989V27.9992H2.50073V10.0004ZM10.2502 13.0001C10.8025 13.0001 11.2502 13.4478 11.2502 14.0001C11.2502 15.3924 11.8033 16.7277 12.7878 17.7122C13.7723 18.6966 15.1075 19.2497 16.4998 19.2497C17.8921 19.2497 19.2274 18.6966 20.2118 17.7122C21.1963 16.7277 21.7494 15.3924 21.7494 14.0001C21.7494 13.4478 22.1971 13.0001 22.7494 13.0001C23.3017 13.0001 23.7494 13.4478 23.7494 14.0001C23.7494 15.9228 22.9856 17.7668 21.6261 19.1264C20.2665 20.4859 18.4225 21.2497 16.4998 21.2497C14.5771 21.2497 12.7331 20.4859 11.3736 19.1264C10.014 17.7668 9.25019 15.9228 9.25019 14.0001C9.25019 13.4478 9.69791 13.0001 10.2502 13.0001Z" fill="#111827"/>
</svg>
