<svg width="32" height="33" viewBox="0 0 32 33" fill="none" xmlns="http://www.w3.org/2000/svg">
<path d="M12.0856 27.7298C13.078 27.7298 13.8824 26.9254 13.8824 25.933C13.8824 24.9407 13.078 24.1362 12.0856 24.1362C11.0933 24.1362 10.2888 24.9407 10.2888 25.933C10.2888 26.9254 11.0933 27.7298 12.0856 27.7298Z" fill="#1C1B1F"/>
<path d="M23.7648 27.7298C24.7571 27.7298 25.5616 26.9254 25.5616 25.933C25.5616 24.9407 24.7571 24.1362 23.7648 24.1362C22.7725 24.1362 21.968 24.9407 21.968 25.933C21.968 26.9254 22.7725 27.7298 23.7648 27.7298Z" fill="#1C1B1F"/>
<path d="M7.85027 9.762H28L25.0354 20.138C24.9282 20.5134 24.7015 20.8437 24.3898 21.0788C24.0781 21.3139 23.6982 21.4411 23.3078 21.4411H12.5425C12.152 21.4411 11.7722 21.3139 11.4605 21.0788C11.1487 20.8437 10.9221 20.5134 10.8148 20.138L6.75301 5.92161C6.69938 5.73389 6.58606 5.56875 6.43019 5.45118C6.27433 5.33362 6.08441 5.27002 5.88918 5.27002H4" stroke="#1C1B1F" stroke-width="2" stroke-linecap="round" stroke-linejoin="round"/>
</svg>
