<svg width="33" height="33" viewBox="0 0 33 33" fill="none" xmlns="http://www.w3.org/2000/svg">
<path fill-rule="evenodd" clip-rule="evenodd" d="M1.50073 1.96338C0.948448 1.96338 0.500732 2.41109 0.500732 2.96338C0.500732 3.51566 0.948448 3.96338 1.50073 3.96338H3.86207C3.88878 3.96338 3.91477 3.97208 3.93609 3.98817C3.95742 4.00425 3.97292 4.02685 3.98026 4.05253L5.34574 8.8317C5.34952 8.84617 5.35362 8.86051 5.35803 8.87471L9.05722 21.8219C9.251 22.5001 9.66043 23.0967 10.2235 23.5215C10.7867 23.9463 11.4728 24.176 12.1782 24.176H25.634C26.3393 24.176 27.0255 23.9463 27.5886 23.5215C28.1517 23.0967 28.5612 22.5001 28.7549 21.8219L32.4604 8.85273C32.5466 8.55101 32.4862 8.22633 32.2972 7.97581C32.1083 7.7253 31.8127 7.57801 31.4989 7.57801H7.06757L5.90331 3.50309C5.77657 3.05951 5.50879 2.66928 5.14048 2.39147C4.77218 2.11366 4.3234 1.96338 3.86207 1.96338H1.50073ZM10.9803 21.2725L7.639 9.57801H30.1732L26.8319 21.2725C26.7575 21.5328 26.6004 21.7618 26.3842 21.9248C26.1681 22.0878 25.9047 22.176 25.634 22.176H12.1782C11.9075 22.176 11.6441 22.0878 11.4279 21.9248C11.2118 21.7618 11.0546 21.5328 10.9803 21.2725ZM11.607 31.0365C12.8474 31.0365 13.8529 30.031 13.8529 28.7906C13.8529 27.5503 12.8474 26.5448 11.607 26.5448C10.3667 26.5448 9.36119 27.5503 9.36119 28.7906C9.36119 30.031 10.3667 31.0365 11.607 31.0365ZM26.2054 31.0365C27.4457 31.0365 28.4512 30.031 28.4512 28.7906C28.4512 27.5503 27.4457 26.5448 26.2054 26.5448C24.965 26.5448 23.9595 27.5503 23.9595 28.7906C23.9595 30.031 24.965 31.0365 26.2054 31.0365Z" fill="#111827"/>
</svg>
