<svg width="32" height="32" viewBox="0 0 32 32" fill="none" xmlns="http://www.w3.org/2000/svg">
<path d="M12.7561 27.9999C14.147 27.9999 15.2746 26.8723 15.2746 25.4814C15.2746 24.0905 14.147 22.9629 12.7561 22.9629C11.3651 22.9629 10.2375 24.0905 10.2375 25.4814C10.2375 26.8723 11.3651 27.9999 12.7561 27.9999Z" stroke="#1C1B1F" stroke-width="2" stroke-linecap="round" stroke-linejoin="round"/>
<path d="M22.8303 27.9999C24.2212 27.9999 25.3488 26.8723 25.3488 25.4814C25.3488 24.0905 24.2212 22.9629 22.8303 22.9629C21.4393 22.9629 20.3118 24.0905 20.3118 25.4814C20.3118 26.8723 21.4393 27.9999 22.8303 27.9999Z" stroke="#1C1B1F" stroke-width="2" stroke-linecap="round" stroke-linejoin="round"/>
<path d="M8.47401 8.14814H27.0814L24.3437 17.7299C24.2447 18.0766 24.0354 18.3816 23.7475 18.5987C23.4597 18.8159 23.1089 18.9333 22.7483 18.9333H12.8071C12.4465 18.9333 12.0957 18.8159 11.8079 18.5987C11.52 18.3816 11.3107 18.0766 11.2116 17.7299L7.46074 4.60171C7.41121 4.42836 7.30656 4.27586 7.16263 4.1673C7.0187 4.05873 6.84332 4 6.66303 4H4.91846" stroke="#1C1B1F" stroke-width="2" stroke-linecap="round" stroke-linejoin="round"/>
</svg>
