<svg width="33" height="33" viewBox="0 0 33 33" fill="none" xmlns="http://www.w3.org/2000/svg">
<path fill-rule="evenodd" clip-rule="evenodd" d="M2.60913 0.500977C2.05685 0.500977 1.60913 0.948692 1.60913 1.50098C1.60913 2.05326 2.05685 2.50098 2.60913 2.50098H4.796C4.80469 2.50098 4.81314 2.50381 4.82007 2.50904C4.827 2.51426 4.83204 2.52161 4.83443 2.52996L6.09857 6.95446C6.10236 6.96894 6.10646 6.98329 6.11087 6.99751L9.53629 18.9865C9.72016 19.63 10.1087 20.1962 10.643 20.5992C11.1773 21.0023 11.8284 21.2203 12.4977 21.2203H24.9593C25.6286 21.2203 26.2797 21.0023 26.8141 20.5992C27.3484 20.1962 27.7369 19.63 27.9208 18.9865L31.3525 6.9755C31.4387 6.67379 31.3783 6.3491 31.1893 6.09859C31.0003 5.84807 30.7047 5.70078 30.3909 5.70078H7.82041L6.75747 1.98052C6.63569 1.55427 6.37837 1.17929 6.02446 0.912338C5.67055 0.645382 5.23931 0.500977 4.796 0.500977H2.60913ZM11.4593 18.437L8.39184 7.70078H29.0652L25.9977 18.437C25.9332 18.6627 25.797 18.8612 25.6097 19.0025C25.4223 19.1438 25.194 19.2203 24.9593 19.2203H12.4977C12.263 19.2203 12.0347 19.1438 11.8474 19.0025C11.66 18.8612 11.5238 18.6627 11.4593 18.437ZM12.434 26.1851C11.2427 26.1851 10.277 27.1509 10.277 28.3422C10.277 29.5335 11.2427 30.4992 12.434 30.4992C13.6253 30.4992 14.591 29.5335 14.591 28.3422C14.591 27.1509 13.6253 26.1851 12.434 26.1851ZM8.27696 28.3422C8.27696 26.0463 10.1381 24.1851 12.434 24.1851C14.7298 24.1851 16.591 26.0463 16.591 28.3422C16.591 30.638 14.7298 32.4992 12.434 32.4992C10.1381 32.4992 8.27696 30.638 8.27696 28.3422ZM25.062 26.1851C23.8707 26.1851 22.9049 27.1509 22.9049 28.3422C22.9049 29.5335 23.8707 30.4992 25.062 30.4992C26.2532 30.4992 27.219 29.5335 27.219 28.3422C27.219 27.1509 26.2532 26.1851 25.062 26.1851ZM20.9049 28.3422C20.9049 26.0463 22.7661 24.1851 25.062 24.1851C27.3578 24.1851 29.219 26.0463 29.219 28.3422C29.219 30.638 27.3578 32.4992 25.062 32.4992C22.7661 32.4992 20.9049 30.638 20.9049 28.3422Z" fill="#111827"/>
</svg>
