<svg width="32" height="32" viewBox="0 0 32 32" fill="none" xmlns="http://www.w3.org/2000/svg">
<path d="M8.55168 26.3448C9.23728 26.3448 9.79306 25.789 9.79306 25.1034C9.79306 24.4178 9.23728 23.8621 8.55168 23.8621C7.86609 23.8621 7.3103 24.4178 7.3103 25.1034C7.3103 25.789 7.86609 26.3448 8.55168 26.3448Z" fill="#1C1B1F"/>
<path d="M11.4482 23.4483C12.1338 23.4483 12.6895 22.8926 12.6895 22.207C12.6895 21.5214 12.1338 20.9656 11.4482 20.9656C10.7626 20.9656 10.2068 21.5214 10.2068 22.207C10.2068 22.8926 10.7626 23.4483 11.4482 23.4483Z" fill="#1C1B1F"/>
<path d="M5.24138 23.0345C5.92697 23.0345 6.48276 22.4787 6.48276 21.7931C6.48276 21.1075 5.92697 20.5518 5.24138 20.5518C4.55578 20.5518 4 21.1075 4 21.7931C4 22.4787 4.55578 23.0345 5.24138 23.0345Z" fill="#1C1B1F"/>
<path d="M8.13786 20.138C8.82346 20.138 9.37924 19.5822 9.37924 18.8967C9.37924 18.2111 8.82346 17.6553 8.13786 17.6553C7.45227 17.6553 6.89648 18.2111 6.89648 18.8967C6.89648 19.5822 7.45227 20.138 8.13786 20.138Z" fill="#1C1B1F"/>
<path d="M27.9999 5.65527H25.0324C24.9237 5.65527 24.8161 5.67668 24.7157 5.71827C24.6153 5.75986 24.524 5.82082 24.4472 5.89767L21.3793 8.96562L8.06897 11.184C7.91898 11.209 7.77878 11.2748 7.66375 11.3743C7.54873 11.4737 7.46333 11.603 7.41692 11.7478C7.37052 11.8926 7.3649 12.0474 7.4007 12.1951C7.43649 12.3429 7.51231 12.478 7.61984 12.5855L17.7594 22.725C17.8669 22.8326 18.0019 22.9084 18.1497 22.9442C18.2975 22.98 18.4523 22.9744 18.5971 22.9279C18.7419 22.8815 18.8711 22.7961 18.9706 22.6811C19.07 22.5661 19.1359 22.4259 19.1609 22.2759L21.3793 8.96562" stroke="#1C1B1F" stroke-width="2" stroke-linecap="round" stroke-linejoin="round"/>
</svg>
