<svg width="32" height="33" viewBox="0 0 32 33" fill="none" xmlns="http://www.w3.org/2000/svg">
<path d="M8.55168 26.8448C9.23728 26.8448 9.79306 26.289 9.79306 25.6034C9.79306 24.9178 9.23728 24.3621 8.55168 24.3621C7.86609 24.3621 7.3103 24.9178 7.3103 25.6034C7.3103 26.289 7.86609 26.8448 8.55168 26.8448Z" fill="#1C1B1F"/>
<path d="M11.4482 23.9483C12.1338 23.9483 12.6895 23.3926 12.6895 22.707C12.6895 22.0214 12.1338 21.4656 11.4482 21.4656C10.7626 21.4656 10.2068 22.0214 10.2068 22.707C10.2068 23.3926 10.7626 23.9483 11.4482 23.9483Z" fill="#1C1B1F"/>
<path d="M5.24138 23.5345C5.92697 23.5345 6.48276 22.9787 6.48276 22.2931C6.48276 21.6075 5.92697 21.0518 5.24138 21.0518C4.55578 21.0518 4 21.6075 4 22.2931C4 22.9787 4.55578 23.5345 5.24138 23.5345Z" fill="#1C1B1F"/>
<path d="M8.13786 20.638C8.82346 20.638 9.37924 20.0822 9.37924 19.3967C9.37924 18.7111 8.82346 18.1553 8.13786 18.1553C7.45227 18.1553 6.89648 18.7111 6.89648 19.3967C6.89648 20.0822 7.45227 20.638 8.13786 20.638Z" fill="#1C1B1F"/>
<path d="M27.9999 6.15527H25.0324C24.9237 6.15527 24.8161 6.17668 24.7157 6.21827C24.6153 6.25986 24.524 6.32082 24.4472 6.39767L21.3793 9.46562L8.06897 11.684C7.91898 11.709 7.77878 11.7748 7.66375 11.8743C7.54873 11.9737 7.46333 12.103 7.41692 12.2478C7.37052 12.3926 7.3649 12.5474 7.4007 12.6951C7.43649 12.8429 7.51231 12.978 7.61984 13.0855L17.7594 23.225C17.8669 23.3326 18.0019 23.4084 18.1497 23.4442C18.2975 23.48 18.4523 23.4744 18.5971 23.4279C18.7419 23.3815 18.8711 23.2961 18.9706 23.1811C19.07 23.0661 19.1359 22.9259 19.1609 22.7759L21.3793 9.46562" stroke="#1C1B1F" stroke-width="2" stroke-linecap="round" stroke-linejoin="round"/>
</svg>
