<svg width="33" height="33" viewBox="0 0 33 33" fill="none" xmlns="http://www.w3.org/2000/svg">
<path fill-rule="evenodd" clip-rule="evenodd" d="M27.6666 2.63867C27.3949 2.63867 27.1259 2.69219 26.8749 2.79616C26.6238 2.90014 26.3958 3.05253 26.2036 3.24466L22.4675 6.98078L5.59134 9.79348C5.21636 9.85597 4.86586 10.0206 4.5783 10.2692C4.29073 10.5178 4.07723 10.8409 3.96122 11.2029C3.8452 11.5649 3.83117 11.9519 3.92066 12.3213C4.01015 12.6908 4.1997 13.0285 4.4685 13.2973L17.5652 26.394C17.8341 26.6628 18.1717 26.8524 18.5412 26.9418C18.9106 27.0313 19.2976 27.0173 19.6596 26.9013C20.0216 26.7853 20.3447 26.5718 20.5933 26.2842C20.8419 25.9966 21.0065 25.6461 21.069 25.2712L23.8817 8.395L27.6178 4.65887C27.6242 4.65247 27.6319 4.64739 27.6402 4.64392C27.6486 4.64046 27.6576 4.63867 27.6666 4.63867H31.4997C32.0519 4.63867 32.4997 4.19096 32.4997 3.63867C32.4997 3.08639 32.0519 2.63867 31.4997 2.63867H27.6666ZM5.92014 11.7663L21.7315 9.13105L19.0962 24.9424C19.0942 24.9549 19.0887 24.9665 19.0804 24.9761C19.0721 24.9857 19.0613 24.9928 19.0493 24.9967C19.0372 25.0006 19.0243 25.001 19.012 24.9981C18.9997 24.9951 18.9884 24.9887 18.9795 24.9798L5.88271 11.883C5.87376 11.8741 5.86744 11.8628 5.86446 11.8505C5.86147 11.8382 5.86194 11.8253 5.86581 11.8132C5.86967 11.8012 5.87679 11.7904 5.88637 11.7821C5.89596 11.7738 5.90764 11.7683 5.92014 11.7663ZM5.84425 22.3445C6.72956 22.3445 7.44725 21.6268 7.44725 20.7415C7.44725 19.8562 6.72956 19.1385 5.84425 19.1385C4.95894 19.1385 4.24125 19.8562 4.24125 20.7415C4.24125 21.6268 4.95894 22.3445 5.84425 22.3445ZM3.70599 24.4828C3.70599 25.3681 2.98831 26.0857 2.103 26.0857C1.21769 26.0857 0.5 25.3681 0.5 24.4828C0.5 23.5974 1.21769 22.8798 2.103 22.8798C2.98831 22.8798 3.70599 23.5974 3.70599 24.4828ZM10.1201 26.6203C11.0054 26.6203 11.7231 25.9026 11.7231 25.0173C11.7231 24.132 11.0054 23.4143 10.1201 23.4143C9.23476 23.4143 8.51708 24.132 8.51708 25.0173C8.51708 25.9026 9.23476 26.6203 10.1201 26.6203ZM6.37882 30.3616C7.26413 30.3616 7.98182 29.6439 7.98182 28.7586C7.98182 27.8733 7.26413 27.1556 6.37882 27.1556C5.49351 27.1556 4.77582 27.8733 4.77582 28.7586C4.77582 29.6439 5.49351 30.3616 6.37882 30.3616Z" fill="#111827"/>
</svg>
