<svg width="33" height="33" viewBox="0 0 33 33" fill="none" xmlns="http://www.w3.org/2000/svg">
<path fill-rule="evenodd" clip-rule="evenodd" d="M21.5334 12.8805C21.1429 13.271 20.5097 13.271 20.1192 12.8805C19.7287 12.49 19.7287 11.8568 20.1192 11.4663L27.1024 4.4831H23.0084C22.4561 4.4831 22.0084 4.03538 22.0084 3.4831C22.0084 2.93081 22.4561 2.4831 23.0084 2.4831H29.4973C29.7597 2.47802 30.0237 2.57558 30.2239 2.7758C30.3266 2.87858 30.4024 2.99816 30.4511 3.1257C30.4935 3.23668 30.5168 3.35717 30.5168 3.4831V9.99151C30.5168 10.5438 30.0691 10.9915 29.5168 10.9915C28.9645 10.9915 28.5168 10.5438 28.5168 9.99151V5.89707L21.5334 12.8805ZM2.77605 2.77599C3.16657 2.38547 3.79974 2.38547 4.19026 2.77599L28.5168 27.1025V23.0081C28.5168 22.4558 28.9645 22.0081 29.5168 22.0081C30.0691 22.0081 30.5168 22.4558 30.5168 23.0081V29.5165C30.5168 29.6268 30.499 29.733 30.466 29.8322C30.4185 29.9754 30.3378 30.1099 30.2239 30.2238C30.0232 30.4245 29.7585 30.5221 29.4955 30.5165H23.0084C22.4561 30.5165 22.0084 30.0688 22.0084 29.5165C22.0084 28.9642 22.4561 28.5165 23.0084 28.5165H27.1024L2.77605 4.19021C2.38552 3.79968 2.38552 3.16652 2.77605 2.77599ZM2.77605 30.2239C3.16657 30.6144 3.79974 30.6144 4.19026 30.2239L13.0803 21.3339C13.4708 20.9433 13.4708 20.3102 13.0803 19.9196C12.6898 19.5291 12.0566 19.5291 11.6661 19.9196L2.77605 28.8097C2.38552 29.2002 2.38552 29.8333 2.77605 30.2239Z" fill="#111827"/>
</svg>
