<svg width="33" height="33" viewBox="0 0 33 33" fill="none" xmlns="http://www.w3.org/2000/svg">
<path fill-rule="evenodd" clip-rule="evenodd" d="M25.6106 3.41472C25.22 3.0242 24.5869 3.0242 24.1964 3.41472C23.8058 3.80524 23.8058 4.43841 24.1964 4.82893L27.0702 7.70282H22.1331C21.8137 7.70282 21.5135 7.85543 21.3252 8.11351L18.487 12.0045C18.1615 12.4507 18.2594 13.0763 18.7056 13.4018C19.1518 13.7272 19.7773 13.6294 20.1028 13.1832L22.6415 9.70282H27.1004L24.1964 12.6068C23.8058 12.9974 23.8058 13.6305 24.1964 14.021C24.5869 14.4116 25.22 14.4116 25.6106 14.021L30.2066 9.42499C30.4029 9.22876 30.5005 8.97126 30.4995 8.71408C30.4996 8.71033 30.4996 8.70658 30.4996 8.70282C30.4996 8.37393 30.3408 8.08212 30.0957 7.89987L25.6106 3.41472ZM25.6106 18.979C25.22 18.5884 24.5869 18.5884 24.1964 18.979C23.8058 19.3695 23.8058 20.0027 24.1964 20.3932L27.0852 23.282H22.6415L11.5881 8.12857C11.3998 7.87049 11.0996 7.71788 10.7802 7.71788H3.50037C2.94808 7.71788 2.50037 8.16559 2.50037 8.71788C2.50037 9.27016 2.94808 9.71788 3.50037 9.71788H10.2718L21.3252 24.8713C21.5135 25.1294 21.8137 25.282 22.1331 25.282H27.0854L24.1964 28.1711C23.8058 28.5616 23.8058 29.1948 24.1964 29.5853C24.5869 29.9758 25.22 29.9758 25.6106 29.5853L30.2066 24.9892C30.2979 24.8979 30.3679 24.7933 30.4165 24.6817C30.4699 24.5593 30.4996 24.4241 30.4996 24.282C30.4996 24.0008 30.3834 23.7466 30.1965 23.5649L25.6106 18.979ZM3.50037 25.267C2.94808 25.267 2.50037 24.8193 2.50037 24.267C2.50037 23.7147 2.94808 23.267 3.50037 23.267H10.2718L12.8105 19.7866C13.136 19.3404 13.7615 19.2426 14.2077 19.568C14.6539 19.8935 14.7518 20.5191 14.4263 20.9653L11.5881 24.8563C11.3998 25.1144 11.0996 25.267 10.7802 25.267H3.50037Z" fill="#111827"/>
</svg>
