<svg width="33" height="33" viewBox="0 0 33 33" fill="none" xmlns="http://www.w3.org/2000/svg">
<path fill-rule="evenodd" clip-rule="evenodd" d="M1.50073 3.2771C0.948448 3.2771 0.500732 3.72481 0.500732 4.2771V28.7228C0.500732 29.2751 0.948448 29.7228 1.50073 29.7228H10.0568H20.0437C20.596 29.7228 21.0437 29.2751 21.0437 28.7228C21.0437 28.1705 20.596 27.7228 20.0437 27.7228H11.0568V5.2771H29.8356V19.9101C29.8356 20.4624 30.2833 20.9101 30.8356 20.9101C31.3879 20.9101 31.8356 20.4624 31.8356 19.9101V4.2771C31.8356 3.72481 31.3879 3.2771 30.8356 3.2771H10.0568H1.50073ZM9.05675 5.2771H2.50073V27.7228H9.05675V5.2771ZM14.4946 14.79C14.0163 14.5139 13.8524 13.9023 14.1286 13.424L16.8976 8.62795C17.1737 8.14966 17.7853 7.98578 18.2636 8.26193L23.0596 11.0309C23.5379 11.3071 23.7018 11.9186 23.4256 12.3969L20.6566 17.193C20.3805 17.6712 19.7689 17.8351 19.2906 17.559L14.4946 14.79ZM16.3606 13.5579L19.4246 15.3269L21.1936 12.263L18.1296 10.494L16.3606 13.5579ZM26.8421 20.5341C26.5895 20.2815 26.2213 20.1829 25.8762 20.2753C25.5311 20.3678 25.2616 20.6373 25.1691 20.9824L23.2057 28.3099C23.1132 28.655 23.2119 29.0232 23.4645 29.2758C23.7171 29.5284 24.0854 29.6271 24.4304 29.5346L31.7579 27.5712C32.103 27.4788 32.3725 27.2092 32.465 26.8641C32.5575 26.519 32.4588 26.1508 32.2062 25.8982L26.8421 20.5341ZM29.5672 26.0877L25.5858 27.1545L26.6526 23.1731L29.5672 26.0877Z" fill="#111827"/>
</svg>
