<svg width="33" height="33" viewBox="0 0 33 33" fill="none" xmlns="http://www.w3.org/2000/svg">
<path fill-rule="evenodd" clip-rule="evenodd" d="M27.4336 2.20569C27.8669 2.20569 28.2508 2.48465 28.3847 2.89667L29.12 5.15957H31.4993C31.9325 5.15957 32.3165 5.43853 32.4504 5.85055C32.5842 6.26257 32.4376 6.71394 32.0871 6.96858L30.1622 8.36713L30.8974 10.63C31.0313 11.042 30.8846 11.4934 30.5341 11.7481C30.1837 12.0027 29.7091 12.0027 29.3586 11.7481L27.4336 10.3495L25.5087 11.7481C25.1582 12.0027 24.6836 12.0027 24.3331 11.7481C23.9827 11.4934 23.836 11.042 23.9699 10.63L24.7051 8.36713L22.7802 6.96858C22.4297 6.71394 22.283 6.26257 22.4169 5.85055C22.5508 5.43853 22.9347 5.15957 23.368 5.15957H25.7473L26.4826 2.89667C26.6165 2.48465 27.0004 2.20569 27.4336 2.20569ZM27.4336 6.44176L27.4249 6.46858C27.291 6.88061 26.9071 7.15957 26.4739 7.15957H26.4457L26.4685 7.17615C26.819 7.43079 26.9656 7.88216 26.8318 8.29418L26.823 8.32101L26.8459 8.30443C27.1963 8.04978 27.6709 8.04978 28.0214 8.30443L28.0442 8.32101L28.0355 8.29418C27.9017 7.88216 28.0483 7.43079 28.3988 7.17615L28.4216 7.15957H28.3934C27.9602 7.15957 27.5762 6.88061 27.4424 6.46858L27.4336 6.44176ZM1.50098 30.7943C0.948692 30.7943 0.500977 30.3465 0.500977 29.7943V5.72661C0.500977 5.17433 0.948692 4.72661 1.50098 4.72661H19.7572C20.3095 4.72661 20.7572 5.17433 20.7572 5.72661C20.7572 6.2789 20.3095 6.72661 19.7572 6.72661H10.9247V28.7943H29.3822V14.403C29.3822 13.8507 29.8299 13.403 30.3822 13.403C30.9345 13.403 31.3822 13.8507 31.3822 14.403V29.7943C31.3822 30.3465 30.9345 30.7943 30.3822 30.7943H9.92672L9.92475 30.7943L9.92277 30.7943H1.50098ZM8.92475 28.7943V6.72661H2.50098V28.7943H8.92475ZM19.8351 14.396C19.7012 13.984 19.3172 13.705 18.884 13.705C18.4508 13.705 18.0668 13.984 17.933 14.396L17.6027 15.4123H16.5342C16.1009 15.4123 15.717 15.6912 15.5831 16.1032C15.4492 16.5153 15.5959 16.9666 15.9464 17.2213L16.8109 17.8494L16.4807 18.8657C16.3468 19.2777 16.4935 19.729 16.8439 19.9837C17.1944 20.2383 17.669 20.2383 18.0195 19.9837L18.884 19.3556L19.7485 19.9837C20.099 20.2383 20.5736 20.2383 20.9241 19.9837C21.2746 19.729 21.4212 19.2777 21.2873 18.8657L20.9571 17.8494L21.8216 17.2213C22.1721 16.9666 22.3188 16.5153 22.1849 16.1032C22.051 15.6912 21.6671 15.4123 21.2339 15.4123H20.1653L19.8351 14.396Z" fill="#111827"/>
</svg>
