<svg width="33" height="33" viewBox="0 0 33 33" fill="none" xmlns="http://www.w3.org/2000/svg">
<path fill-rule="evenodd" clip-rule="evenodd" d="M10.2281 2.74998H1.49998C0.9477 2.74998 0.499985 3.1977 0.499985 3.74998V8.7281C0.499832 8.73528 0.499756 8.74249 0.499756 8.74971C0.499756 8.75693 0.499832 8.76414 0.499985 8.77132V13.7283C0.499832 13.7355 0.499756 13.7427 0.499756 13.7499C0.499756 13.7571 0.499832 13.7643 0.499985 13.7715V18.7284C0.499832 18.7356 0.499756 18.7428 0.499756 18.75C0.499756 18.7572 0.499832 18.7644 0.499985 18.7716V28.7504C0.499985 29.3027 0.9477 29.7504 1.49998 29.7504H31.5004C32.0527 29.7504 32.5004 29.3027 32.5004 28.7504V3.74998C32.5004 3.1977 32.0527 2.74998 31.5004 2.74998H10.2713C10.2641 2.74983 10.2569 2.74976 10.2497 2.74976C10.2425 2.74976 10.2353 2.74983 10.2281 2.74998ZM2.49998 19.75V27.7504H9.24971V4.74998H2.49998V7.74971H5.25067C5.80296 7.74971 6.25067 8.19742 6.25067 8.74971C6.25067 9.30199 5.80296 9.74971 5.25067 9.74971H2.49998V12.7499H5.25067C5.80296 12.7499 6.25067 13.1976 6.25067 13.7499C6.25067 14.3022 5.80296 14.7499 5.25067 14.7499H2.49998V17.75H5.25067C5.80296 17.75 6.25067 18.1977 6.25067 18.75C6.25067 19.3023 5.80296 19.75 5.25067 19.75H2.49998ZM11.2497 27.7504V4.74998H30.5004V27.7504H11.2497Z" fill="#111827"/>
</svg>
