<svg width="33" height="33" viewBox="0 0 33 33" fill="none" xmlns="http://www.w3.org/2000/svg">
<path fill-rule="evenodd" clip-rule="evenodd" d="M1.50098 3.00073C0.948692 3.00073 0.500977 3.44845 0.500977 4.00073V28.9992C0.500977 29.5515 0.948692 29.9992 1.50098 29.9992H10.2504H31.4991C32.0514 29.9992 32.4991 29.5515 32.4991 28.9992V4.00073C32.4991 3.44845 32.0514 3.00073 31.4991 3.00073H10.2504H1.50098ZM9.25043 5.00073H2.50098V27.9992H9.25043V5.00073ZM11.2504 27.9992V5.00073H30.4991V27.9992H11.2504ZM14.1003 11.4739C14.1003 10.6455 14.7719 9.97391 15.6003 9.97391H23.2961C24.1246 9.97391 24.7961 10.6455 24.7961 11.4739V13.4551H26.7776C27.606 13.4551 28.2776 14.1267 28.2776 14.9551V22.6762C28.2776 23.5047 27.606 24.1762 26.7776 24.1762H19.0818C18.2534 24.1762 17.5818 23.5047 17.5818 22.6762V20.695H15.6003C14.7719 20.695 14.1003 20.0235 14.1003 19.195V11.4739ZM17.5818 18.695V14.9551C17.5818 14.1267 18.2534 13.4551 19.0818 13.4551H22.7961V11.9739H16.1003V18.695H17.5818ZM19.5818 22.1762V15.4551H26.2776V22.1762H19.5818Z" fill="#111827"/>
</svg>
