<svg width="33" height="33" viewBox="0 0 33 33" fill="none" xmlns="http://www.w3.org/2000/svg">
<path fill-rule="evenodd" clip-rule="evenodd" d="M20.9975 27.499C20.9975 26.9467 21.4452 26.499 21.9975 26.499H26.0405V6.50085L21.9975 6.50085C21.4452 6.50085 20.9975 6.05314 20.9975 5.50085C20.9975 4.94857 21.4452 4.50085 21.9975 4.50085L27.0405 4.50085C27.5927 4.50085 28.0405 4.94857 28.0405 5.50085V27.499C28.0405 28.0513 27.5927 28.499 27.0405 28.499H21.9975C21.4452 28.499 20.9975 28.0513 20.9975 27.499ZM17.292 15.4998L14.139 12.3468C13.7485 11.9563 13.7485 11.3231 14.139 10.9326C14.5295 10.542 15.1627 10.542 15.5532 10.9326L20.4048 15.7841C20.4395 15.818 20.4718 15.8545 20.5014 15.8931C20.5421 15.9464 20.5768 16.0029 20.6054 16.0615C20.6701 16.1939 20.7063 16.3426 20.7063 16.4998C20.7063 16.6193 20.6854 16.7338 20.647 16.84C20.5986 16.974 20.5208 17.0997 20.4135 17.207L15.5532 22.0672C15.1627 22.4578 14.5295 22.4578 14.139 22.0672C13.7485 21.6767 13.7485 21.0436 14.139 20.653L17.2922 17.4998L5.95953 17.4998C5.40725 17.4998 4.95953 17.0521 4.95953 16.4998C4.95953 15.9475 5.40725 15.4998 5.95953 15.4998L17.292 15.4998Z" fill="#111827"/>
</svg>
