<svg width="33" height="33" viewBox="0 0 33 33" fill="none" xmlns="http://www.w3.org/2000/svg">
<path fill-rule="evenodd" clip-rule="evenodd" d="M12.0025 27.499C12.0025 26.9467 11.5548 26.499 11.0025 26.499H6.95958L6.95958 6.50085L11.0025 6.50085C11.5548 6.50085 12.0025 6.05314 12.0025 5.50085C12.0025 4.94857 11.5548 4.50085 11.0025 4.50085L5.95958 4.50085C5.4073 4.50085 4.95958 4.94857 4.95958 5.50085L4.95958 27.499C4.95958 28.0513 5.40729 28.499 5.95958 28.499H11.0025C11.5548 28.499 12.0025 28.0513 12.0025 27.499ZM24.6261 15.4998L21.4731 12.3468C21.0826 11.9563 21.0826 11.3231 21.4731 10.9326C21.8636 10.542 22.4968 10.542 22.8873 10.9326L27.7388 15.7841C27.7737 15.8181 27.8061 15.8546 27.8357 15.8934C27.8763 15.9466 27.911 16.003 27.9395 16.0615C28.0042 16.1939 28.0404 16.3426 28.0404 16.4998C28.0404 16.5171 28.04 16.5342 28.0391 16.5513C28.034 16.6522 28.0139 16.7492 27.9811 16.84C27.9327 16.974 27.8549 17.0997 27.7475 17.207L22.8873 22.0672C22.4968 22.4578 21.8636 22.4578 21.4731 22.0672C21.0826 21.6767 21.0826 21.0436 21.4731 20.653L24.6263 17.4998L13.2936 17.4998C12.7413 17.4998 12.2936 17.0521 12.2936 16.4998C12.2936 15.9475 12.7413 15.4998 13.2936 15.4998L24.6261 15.4998Z" fill="#111827"/>
</svg>
