<svg width="33" height="32" viewBox="0 0 33 32" fill="none" xmlns="http://www.w3.org/2000/svg">
<path fill-rule="evenodd" clip-rule="evenodd" d="M15.4648 1.16675C16.0171 1.16675 16.4648 1.61446 16.4648 2.16675V6.75329H26.2633C26.5464 6.75329 26.8163 6.87335 27.006 7.08366L32.2828 12.9362C32.6259 13.3167 32.6259 13.8949 32.2828 14.2754L27.006 20.128C26.8163 20.3383 26.5464 20.4583 26.2633 20.4583H16.4648V29.8331C16.4648 30.3854 16.0171 30.8331 15.4648 30.8331C14.9125 30.8331 14.4648 30.3854 14.4648 29.8331V20.4583H1.53955C0.987266 20.4583 0.539551 20.0106 0.539551 19.4583V7.75329C0.539551 7.20101 0.987266 6.75329 1.53955 6.75329H14.4648V2.16675C14.4648 1.61446 14.9125 1.16675 15.4648 1.16675ZM15.4806 18.4583C15.4753 18.4583 15.4701 18.4582 15.4648 18.4582C15.4595 18.4582 15.4543 18.4583 15.449 18.4583H2.53955V8.75329H25.8184L30.1937 13.6058L25.8184 18.4583H15.4806Z" fill="#111827"/>
</svg>
