<svg width="33" height="32" viewBox="0 0 33 32" fill="none" xmlns="http://www.w3.org/2000/svg">
<path fill-rule="evenodd" clip-rule="evenodd" d="M2.97748 1.00085C2.97748 0.44857 3.42519 0.000854492 3.97748 0.000854492H20.2566C20.5218 0.000854492 20.7761 0.106211 20.9637 0.293748L29.7296 9.05969C29.9172 9.24723 30.0225 9.50158 30.0225 9.7668V30.999C30.0225 31.5513 29.5748 31.999 29.0225 31.999H3.97748C3.42519 31.999 2.97748 31.5513 2.97748 30.999V1.00085ZM4.97748 2.00085V29.999H28.0225V10.181L19.8424 2.00085H4.97748ZM16.5 13.7207H24.0138C24.5661 13.7207 25.0138 14.1684 25.0138 14.7207V20.3555V25.9904C25.0138 26.5427 24.5661 26.9904 24.0138 26.9904H16.5H8.98749C8.43521 26.9904 7.98749 26.5427 7.98749 25.9904V20.4053C7.98668 20.3888 7.98627 20.3722 7.98627 20.3555C7.98627 20.3387 7.98668 20.3221 7.98749 20.3056V14.7207C7.98749 14.1684 8.43521 13.7207 8.98749 13.7207H16.5ZM9.98749 21.3555V24.9904H15.5V21.3555H9.98749ZM17.5 24.9904H23.0138V21.3555H17.5V24.9904ZM23.0138 19.3555V15.7207H17.5V19.3555H23.0138ZM15.5 15.7207V19.3555H9.98749V15.7207H15.5Z" fill="#111827"/>
</svg>
