<svg width="33" height="33" viewBox="0 0 33 33" fill="none" xmlns="http://www.w3.org/2000/svg">
<path fill-rule="evenodd" clip-rule="evenodd" d="M1.49999 0.38916H0.499988V1.38916V6.29395V7.29395H1.49999H23.2189H24.2189V6.29395V1.38916V0.38916H23.2189H1.49999ZM2.49999 5.29395V2.38916H22.2189V5.29395H2.49999ZM9.78104 25.2061H8.78104V26.2061V31.1109V32.1109H9.78104H31.5H32.5V31.1109V26.2061V25.2061H31.5H9.78104ZM10.781 30.1109V27.2061H30.5V30.1109H10.781ZM10.781 10.6182V13.523H26.5946H27.5946V14.523V21.8155H30.5002V10.6182H26.5946L10.781 10.6182ZM9.78104 8.61816L26.5946 8.61816H31.5002H32.5002V9.61816V22.8155V23.8155H31.5002H26.5946H25.5946V22.8155V15.523H9.78104H8.78104V14.523V9.61816V8.61816H9.78104ZM1.49976 8.61816H0.499756V9.61816V22.8155V23.8155H1.49976H6.4054H7.4054V23.7522H23.2187H24.2187V22.7522V17.8474V16.8474H23.2187H7.4054V9.61816V8.61816H6.4054H1.49976ZM5.4054 21.7522V21.8155H2.49976V10.6182H5.4054V17.8474V18.8474H6.4054H22.2187V21.7522H6.4054H5.4054Z" fill="#111827"/>
</svg>
