<svg width="33" height="32" viewBox="0 0 33 32" fill="none" xmlns="http://www.w3.org/2000/svg">
<path fill-rule="evenodd" clip-rule="evenodd" d="M8.79033 2.68127C8.34926 2.68127 7.93054 2.8754 7.64554 3.21202L0.855945 11.2312C0.362377 11.8142 0.385699 12.6749 0.91011 13.2303L15.6576 28.8485C16.2565 29.4827 17.268 29.4742 17.8561 28.83L32.1074 13.2188C32.6174 12.6602 32.6316 11.8092 32.1406 11.2338L25.2915 3.20759C25.0066 2.87362 24.5896 2.68127 24.1505 2.68127H8.79033ZM3.47227 11.2362L9.02214 4.68127H14.2976L9.29509 11.2362L3.47227 11.2362ZM3.66643 13.2362L13.3454 23.4866L9.17328 13.2362L3.66643 13.2362ZM18.9528 24.6622L29.3835 13.2362L23.6434 13.2362L18.9528 24.6622ZM29.5135 11.2362L23.9199 4.68127H18.4762L23.5217 11.2362L29.5135 11.2362ZM16.3847 5.24307L11.811 11.2362L20.9978 11.2362L16.3847 5.24307ZM16.3853 25.6502L21.4814 13.2362L11.3326 13.2362L16.3853 25.6502Z" fill="#111827"/>
</svg>
