<svg width="32" height="32" viewBox="0 0 32 32" fill="none" xmlns="http://www.w3.org/2000/svg">
<path d="M4.26001 12.9619L27.6924 12.9619" stroke="#1C1B1F" stroke-width="2" stroke-linecap="round" stroke-linejoin="round"/>
<path d="M10.895 12.6969L15.5117 6.64751C15.7113 6.38597 16.1047 6.38516 16.3054 6.64587L20.9621 12.6958C21.0709 12.8371 21.0962 13.0256 21.0284 13.1906L16.372 24.5335C16.202 24.9476 15.6151 24.9468 15.4463 24.5321L10.8294 13.1887C10.7627 13.0247 10.7876 12.8377 10.895 12.6969Z" stroke="#1C1B1F" stroke-width="2" stroke-linecap="round"/>
<path d="M22.0057 6.19385H9.95036C9.80334 6.19385 9.66377 6.25856 9.56877 6.37076L4.28893 12.6068C4.1244 12.8011 4.13218 13.088 4.30698 13.2732L15.8329 25.4796C16.0325 25.691 16.3697 25.6881 16.5657 25.4734L27.7024 13.274C27.8724 13.0878 27.8772 12.8041 27.7135 12.6123L22.3861 6.36929C22.2911 6.25796 22.1521 6.19385 22.0057 6.19385Z" stroke="#1C1B1F" stroke-width="2" stroke-linecap="round"/>
</svg>
