<svg width="33" height="33" viewBox="0 0 33 33" fill="none" xmlns="http://www.w3.org/2000/svg">
<path fill-rule="evenodd" clip-rule="evenodd" d="M16.4999 2.50073C8.76846 2.50073 2.50085 8.76834 2.50085 16.4998C2.50085 24.2313 8.76846 30.4989 16.4999 30.4989C24.2314 30.4989 30.499 24.2313 30.499 16.4998C30.499 8.76834 24.2314 2.50073 16.4999 2.50073ZM0.500854 16.4998C0.500854 7.66377 7.66389 0.500732 16.4999 0.500732C25.336 0.500732 32.499 7.66377 32.499 16.4998C32.499 25.3359 25.336 32.4989 16.4999 32.4989C7.66389 32.4989 0.500854 25.3359 0.500854 16.4998ZM10.5625 8.62413C11.1148 8.62413 11.5625 9.07184 11.5625 9.62413V14.6855L21.9033 8.15475C22.2113 7.96019 22.6009 7.94859 22.92 8.12447C23.2391 8.30036 23.4373 8.63589 23.4373 9.00025V23.9993C23.4373 24.3637 23.2391 24.6992 22.92 24.8751C22.6009 25.051 22.2113 25.0394 21.9033 24.8448L11.5625 18.3141V23.3749C11.5625 23.9272 11.1148 24.3749 10.5625 24.3749C10.0102 24.3749 9.56249 23.9272 9.56249 23.3749V16.4998V9.62413C9.56249 9.07184 10.0102 8.62413 10.5625 8.62413ZM12.4352 16.4998L21.4373 10.8145V22.1851L12.4352 16.4998Z" fill="#111827"/>
</svg>
