<svg width="33" height="33" viewBox="0 0 33 33" fill="none" xmlns="http://www.w3.org/2000/svg">
<path fill-rule="evenodd" clip-rule="evenodd" d="M16.4999 2.50073C24.2314 2.50073 30.499 8.76834 30.499 16.4998C30.499 24.2313 24.2314 30.4989 16.4999 30.4989C8.76846 30.4989 2.50085 24.2313 2.50085 16.4998C2.50085 8.76834 8.76846 2.50073 16.4999 2.50073ZM32.499 16.4998C32.499 7.66377 25.336 0.500732 16.4999 0.500732C7.66389 0.500732 0.500854 7.66377 0.500854 16.4998C0.500854 25.3359 7.66389 32.4989 16.4999 32.4989C25.336 32.4989 32.499 25.3359 32.499 16.4998ZM22.4375 8.62413C21.8852 8.62413 21.4375 9.07184 21.4375 9.62413V14.6855L11.0967 8.15475C10.7886 7.96019 10.3991 7.94859 10.08 8.12447C9.76092 8.30036 9.56274 8.63589 9.56274 9.00025V23.9993C9.56274 24.3637 9.76092 24.6992 10.08 24.8751C10.3991 25.051 10.7886 25.0394 11.0967 24.8448L21.4375 18.3141V23.3749C21.4375 23.9272 21.8852 24.3749 22.4375 24.3749C22.9898 24.3749 23.4375 23.9272 23.4375 23.3749V16.4998V9.62413C23.4375 9.07184 22.9898 8.62413 22.4375 8.62413ZM20.5648 16.4998L11.5627 10.8145V22.1851L20.5648 16.4998Z" fill="#111827"/>
</svg>
