<svg width="33" height="33" viewBox="0 0 33 33" fill="none" xmlns="http://www.w3.org/2000/svg">
<path fill-rule="evenodd" clip-rule="evenodd" d="M3.62524 16.5001V2.74944C3.62524 2.19716 4.07296 1.74944 4.62524 1.74944C5.17753 1.74944 5.62524 2.19716 5.62524 2.74944V14.6858L27.8408 0.655478C28.1489 0.460915 28.5384 0.449314 28.8575 0.625198C29.1766 0.801083 29.3748 1.13661 29.3748 1.50098V31.4991C29.3748 31.8635 29.1766 32.199 28.8575 32.3749C28.5384 32.5508 28.1489 32.5392 27.8408 32.3446L5.62524 18.3143V30.251C5.62524 30.8033 5.17753 31.251 4.62524 31.251C4.07296 31.251 3.62524 30.8033 3.62524 30.251V16.5001ZM6.49798 16.5001L27.3748 3.31526V29.6849L6.49798 16.5001Z" fill="#111827"/>
</svg>
