<svg width="33" height="33" viewBox="0 0 33 33" fill="none" xmlns="http://www.w3.org/2000/svg">
<path fill-rule="evenodd" clip-rule="evenodd" d="M27.3748 18.3143V30.251C27.3748 30.8033 27.8225 31.251 28.3748 31.251C28.9271 31.251 29.3748 30.8033 29.3748 30.251V16.5001V2.74944C29.3748 2.19716 28.9271 1.74944 28.3748 1.74944C27.8225 1.74944 27.3748 2.19716 27.3748 2.74944V14.6858L5.15922 0.655478C4.85115 0.460915 4.46164 0.449314 4.14253 0.625198C3.82343 0.801083 3.62524 1.13661 3.62524 1.50098V31.4991C3.62524 31.8635 3.82343 32.199 4.14253 32.3749C4.46164 32.5508 4.85115 32.5392 5.15922 32.3446L27.3748 18.3143ZM5.62524 3.31526V29.6849L26.502 16.5001L5.62524 3.31526Z" fill="#111827"/>
</svg>
