<svg width="32" height="32" viewBox="0 0 32 32" fill="none" xmlns="http://www.w3.org/2000/svg">
<path d="M11.7241 19.0813C13.036 19.0813 14.0996 18.0177 14.0996 16.7058C14.0996 15.3939 13.036 14.3303 11.7241 14.3303C10.4122 14.3303 9.34863 15.3939 9.34863 16.7058C9.34863 18.0177 10.4122 19.0813 11.7241 19.0813Z" stroke="#1C1B1F" stroke-width="2" stroke-linecap="round" stroke-linejoin="round"/>
<path d="M20.2759 19.0813C21.5878 19.0813 22.6513 18.0177 22.6513 16.7058C22.6513 15.3939 21.5878 14.3303 20.2759 14.3303C18.9639 14.3303 17.9004 15.3939 17.9004 16.7058C17.9004 18.0177 18.9639 19.0813 20.2759 19.0813Z" stroke="#1C1B1F" stroke-width="2" stroke-linecap="round" stroke-linejoin="round"/>
<path d="M14.0996 27.633V23.8323" stroke="#1C1B1F" stroke-width="2" stroke-linecap="round" stroke-linejoin="round"/>
<path d="M17.9004 27.633V23.8323" stroke="#1C1B1F" stroke-width="2" stroke-linecap="round" stroke-linejoin="round"/>
<path d="M22.2162 23.9151L21.6467 23.0932L22.2162 23.9151ZM25.9271 14.9272C25.9271 18.3108 24.2352 21.2995 21.6467 23.0932L22.7858 24.7371C25.8904 22.5858 27.9271 18.9944 27.9271 14.9272H25.9271ZM15.9999 5C21.4826 5 25.9271 9.44456 25.9271 14.9272H27.9271C27.9271 8.33999 22.5872 3 15.9999 3V5ZM6.07275 14.9272C6.07275 9.44456 10.5173 5 15.9999 5V3C9.41274 3 4.07275 8.33999 4.07275 14.9272H6.07275ZM10.5145 23.2026C7.83528 21.4227 6.07275 18.3806 6.07275 14.9272H4.07275C4.07275 19.0785 6.19438 22.7338 9.40782 24.8685L10.5145 23.2026ZM11.1933 27.5V24.4619H9.19325V27.5H11.1933ZM21.4926 27H10.6933V29H21.4926V27ZM20.9926 24.3358V27.5H22.9926V24.3358H20.9926ZM9.19325 27.5C9.19325 28.3284 9.86482 29 10.6933 29V27C10.9694 27 11.1933 27.2238 11.1933 27.5H9.19325ZM9.40782 24.8685C9.28379 24.7861 9.19325 24.6387 9.19325 24.4619H11.1933C11.1933 23.9411 10.925 23.4753 10.5145 23.2026L9.40782 24.8685ZM21.4926 29C22.3211 29 22.9926 28.3284 22.9926 27.5H20.9926C20.9926 27.2238 21.2165 27 21.4926 27V29ZM21.6467 23.0932C21.2499 23.3681 20.9926 23.826 20.9926 24.3358H22.9926C22.9926 24.5089 22.9058 24.6539 22.7858 24.7371L21.6467 23.0932Z" fill="#1C1B1F"/>
</svg>
