<svg width="33" height="32" viewBox="0 0 33 32" fill="none" xmlns="http://www.w3.org/2000/svg">
<path fill-rule="evenodd" clip-rule="evenodd" d="M3.8418 14.6592C3.8418 7.66825 9.50907 2.00098 16.5 2.00098C23.4909 2.00098 29.1582 7.66825 29.1582 14.6592C29.1582 18.9962 26.9779 22.8243 23.649 25.1069C23.2473 25.3824 22.9905 25.8428 22.9905 26.3518V29.9991H19.8753V25.7898C19.8753 25.2375 19.4276 24.7898 18.8753 24.7898C18.323 24.7898 17.8753 25.2375 17.8753 25.7898V29.9991H15.1248V25.7898C15.1248 25.2375 14.6771 24.7898 14.1248 24.7898C13.5726 24.7898 13.1248 25.2375 13.1248 25.7898V29.9991H10.2421V26.5078C10.2421 25.988 9.97439 25.5195 9.55877 25.2464C6.1132 22.9824 3.8418 19.0858 3.8418 14.6592ZM16.5 0.000976562C8.4045 0.000976562 1.8418 6.56368 1.8418 14.6592C1.8418 19.6931 4.38007 24.1337 8.24213 26.7715V30.4991C8.24213 31.3275 8.91371 31.9991 9.74213 31.9991H23.4905C24.3189 31.9991 24.9905 31.3275 24.9905 30.4991V26.6093C28.7214 23.954 31.1582 19.5913 31.1582 14.6592C31.1582 6.56368 24.5955 0.000976562 16.5 0.000976562ZM11.1555 14.9132C10.0679 14.9132 9.18629 15.7948 9.18629 16.8824C9.18629 17.9699 10.0679 18.8515 11.1555 18.8515C12.243 18.8515 13.1246 17.9699 13.1246 16.8824C13.1246 15.7948 12.243 14.9132 11.1555 14.9132ZM7.18629 16.8824C7.18629 14.6903 8.96335 12.9132 11.1555 12.9132C13.3476 12.9132 15.1246 14.6903 15.1246 16.8824C15.1246 19.0745 13.3476 20.8515 11.1555 20.8515C8.96335 20.8515 7.18629 19.0745 7.18629 16.8824ZM21.8445 14.9132C20.7569 14.9132 19.8753 15.7948 19.8753 16.8824C19.8753 17.9699 20.7569 18.8515 21.8445 18.8515C22.932 18.8515 23.8136 17.9699 23.8136 16.8824C23.8136 15.7948 22.932 14.9132 21.8445 14.9132ZM17.8753 16.8824C17.8753 14.6903 19.6523 12.9132 21.8445 12.9132C24.0366 12.9132 25.8136 14.6903 25.8136 16.8824C25.8136 19.0745 24.0366 20.8515 21.8445 20.8515C19.6523 20.8515 17.8753 19.0745 17.8753 16.8824Z" fill="#111827"/>
</svg>
