<svg width="33" height="32" viewBox="0 0 33 32" fill="none" xmlns="http://www.w3.org/2000/svg">
<path fill-rule="evenodd" clip-rule="evenodd" d="M20.2501 0.000854492C18.7259 0.000854492 17.3694 0.718763 16.5003 1.83488C15.6312 0.718763 14.2747 0.000854492 12.7505 0.000854492C10.1273 0.000854492 8.00076 2.1274 8.00076 4.75063C8.00076 5.77546 8.32533 6.72448 8.87728 7.50051H5.25076C2.62753 7.50051 0.500985 9.62705 0.500985 12.2503C0.500985 13.7744 1.21886 15.1309 2.33492 16C1.21885 16.8691 0.500977 18.2256 0.500977 19.7497C0.500977 22.3729 2.62752 24.4995 5.25075 24.4995C6.27563 24.4995 7.2247 24.1749 8.00076 23.6229V27.2492C8.00076 29.8725 10.1273 31.999 12.7505 31.999C14.2747 31.999 15.6312 31.2811 16.5003 30.165C17.3694 31.2811 18.7259 31.999 20.2501 31.999C22.8733 31.999 24.9998 29.8725 24.9998 27.2492C24.9998 26.2245 24.6753 25.2756 24.1235 24.4996H27.7496C30.3728 24.4996 32.4994 22.3731 32.4994 19.7498C32.4994 18.2256 31.7814 16.869 30.6652 15.9999C31.7813 15.1308 32.4991 13.7743 32.4991 12.2502C32.4991 9.62694 30.3726 7.50039 27.7494 7.50039C26.7247 7.50039 25.7758 7.82486 24.9998 8.37666V4.75063C24.9998 2.1274 22.8733 0.000854492 20.2501 0.000854492ZM8.97987 15.0001C8.97432 15 8.96877 14.9999 8.96321 14.9999H5.25075C5.24356 14.9999 5.23638 14.9999 5.22919 15C3.72046 14.9884 2.50098 13.7617 2.50098 12.2503C2.50098 10.7316 3.7321 9.50051 5.25076 9.50051H11.5004C13.7093 9.50051 15.5001 11.2912 15.5001 13.5002V14.9999H14.0005C13.9867 14.9999 13.973 15 13.9593 15.0001L8.97987 15.0001ZM5.22911 17C3.72042 17.0116 2.50098 18.2383 2.50098 19.7497C2.50098 21.2684 3.73209 22.4995 5.25075 22.4995C6.76941 22.4995 8.00052 21.2684 8.00052 19.7497V17.0001H5.25076C5.24354 17.0001 5.23632 17 5.22911 17ZM13.967 17.0001C11.7734 17.018 10.0008 18.8018 10.0008 20.9996V27.2492C10.0008 28.7679 11.2319 29.999 12.7505 29.999C14.2692 29.999 15.5003 28.7679 15.5003 27.2492V23.5368V18.5136L15.5003 18.4999V17.0001H13.967ZM21.5 22.4996C19.2947 22.4996 17.5063 20.7149 17.5003 18.5111V17.0001H27.7496C29.2683 17.0001 30.4994 18.2312 30.4994 19.7498C30.4994 21.2685 29.2683 22.4996 27.7496 22.4996H21.5ZM17.5003 24.4995V27.2492C17.5003 28.7679 18.7314 29.999 20.2501 29.999C21.7687 29.999 22.9998 28.7679 22.9998 27.2492C22.9998 25.7306 21.7687 24.4995 20.2501 24.4995H17.5003ZM17.5003 8.46309V4.75063C17.5003 3.23197 18.7314 2.00085 20.2501 2.00085C21.7687 2.00085 22.9998 3.23197 22.9998 4.75063V11.0002C22.9998 13.2092 21.2091 14.9999 19.0002 14.9999H17.5003V8.46309ZM15.5003 4.75063V7.5004H12.7505C11.2319 7.5004 10.0008 6.26928 10.0008 4.75063C10.0008 3.23197 11.2319 2.00085 12.7505 2.00085C14.2692 2.00085 15.5003 3.23197 15.5003 4.75063ZM24.9996 12.2502C24.9996 10.7315 26.2307 9.50039 27.7494 9.50039C29.268 9.50039 30.4991 10.7315 30.4991 12.2502C30.4991 13.7688 29.268 14.9999 27.7494 14.9999H24.9996V12.2502Z" fill="#111827"/>
</svg>
