<svg width="32" height="32" viewBox="0 0 32 32" fill="none" xmlns="http://www.w3.org/2000/svg">
<path d="M16 7C16 5.34315 17.3431 4 19 4V4C20.6569 4 22 5.34315 22 7V12C22 14.2091 20.2091 16 18 16H16.0594C16.0266 16 16 15.9734 16 15.9406V7Z" stroke="#1C1B1F" stroke-width="2"/>
<path d="M22 13C22 11.3431 23.3431 10 25 10V10C26.6569 10 28 11.3431 28 13V13C28 14.6569 26.6569 16 25 16H22.0299C22.0134 16 22 15.9866 22 15.9701V13Z" stroke="#1C1B1F" stroke-width="2"/>
<path d="M16 25C16 26.6569 17.3431 28 19 28V28C20.6569 28 22 26.6569 22 25V25C22 23.3431 20.6569 22 19 22H16.0299C16.0134 22 16 22.0134 16 22.0299V25Z" stroke="#1C1B1F" stroke-width="2"/>
<path d="M10 19C10 20.6569 8.65685 22 7 22V22C5.34315 22 4 20.6569 4 19V19C4 17.3431 5.34315 16 7 16H9.97015C9.98664 16 10 16.0134 10 16.0299V19Z" stroke="#1C1B1F" stroke-width="2"/>
<path d="M16 7C16 5.34315 14.6569 4 13 4V4C11.3431 4 10 5.34315 10 7V7C10 8.65685 11.3431 10 13 10H15.9701C15.9866 10 16 9.98664 16 9.97015V7Z" stroke="#1C1B1F" stroke-width="2"/>
<path d="M16 25C16 26.6569 14.6569 28 13 28V28C11.3431 28 10 26.6569 10 25V20C10 17.7909 11.7909 16 14 16H15.9406C15.9734 16 16 16.0266 16 16.0594V25Z" stroke="#1C1B1F" stroke-width="2"/>
<path d="M25 16C26.6569 16 28 17.3431 28 19V19C28 20.6569 26.6569 22 25 22L20 22C17.7909 22 16 20.2091 16 18L16 16.0594C16 16.0266 16.0266 16 16.0594 16L25 16Z" stroke="#1C1B1F" stroke-width="2"/>
<path d="M7 16C5.34315 16 4 14.6569 4 13V13C4 11.3431 5.34315 10 7 10L12 10C14.2091 10 16 11.7909 16 14L16 15.9406C16 15.9734 15.9734 16 15.9406 16L7 16Z" stroke="#1C1B1F" stroke-width="2"/>
</svg>
