<svg width="33" height="33" viewBox="0 0 33 33" fill="none" xmlns="http://www.w3.org/2000/svg">
<path fill-rule="evenodd" clip-rule="evenodd" d="M10.0004 9.00043C10.0004 7.67004 11.0789 6.59155 12.4093 6.59155C13.7397 6.59155 14.8182 7.67004 14.8182 9.00043C14.8182 10.3308 13.7397 11.4093 12.4093 11.4093C11.0789 11.4093 10.0004 10.3308 10.0004 9.00043ZM8.11426 10.0003L1.50084 10.0002C0.948556 10.0002 0.500847 9.55246 0.500854 9.00018C0.500862 8.44789 0.948583 8.00018 1.50087 8.00019L8.11433 8.00028C8.56735 6.04713 10.3183 4.59155 12.4093 4.59155C14.5002 4.59155 16.2512 6.04713 16.7042 8.00029L31.499 8.00019C32.0513 8.00019 32.499 8.4479 32.499 9.00019C32.499 9.55247 32.0513 10.0002 31.499 10.0002L16.7043 10.0003C16.2514 11.9536 14.5003 13.4093 12.4093 13.4093C10.3182 13.4093 8.56717 11.9536 8.11426 10.0003ZM23.3177 21.5906C21.9873 21.5906 20.9088 22.6691 20.9088 23.9995C20.9088 25.3299 21.9873 26.4084 23.3177 26.4084C24.6481 26.4084 25.7266 25.3299 25.7266 23.9995C25.7266 22.6691 24.6481 21.5906 23.3177 21.5906ZM1.50085 24.9995L19.0227 24.9995C19.4757 26.9528 21.2267 28.4084 23.3177 28.4084C25.4087 28.4084 27.1597 26.9528 27.6127 24.9995L31.499 24.9995C32.0513 24.9995 32.499 24.5518 32.499 23.9995C32.499 23.4473 32.0513 22.9995 31.499 22.9995L27.6127 22.9995C27.1597 21.0463 25.4087 19.5906 23.3177 19.5906C21.2267 19.5906 19.4757 21.0463 19.0227 22.9995L1.50085 22.9995C0.948569 22.9995 0.500854 23.4473 0.500854 23.9995C0.500855 24.5518 0.948571 24.9995 1.50085 24.9995Z" fill="#111827"/>
</svg>
