<svg width="33" height="33" viewBox="0 0 33 33" fill="none" xmlns="http://www.w3.org/2000/svg">
<path fill-rule="evenodd" clip-rule="evenodd" d="M29.2386 2.15308C29.2386 1.6008 28.7909 1.15308 28.2386 1.15308C27.6863 1.15307 27.2386 1.60078 27.2386 2.15307L27.2384 18.8785C25.3677 19.3283 23.9776 21.0124 23.9776 23.0212C23.9776 25.0299 25.3678 26.714 27.2385 27.1639L27.2386 30.847C27.2386 31.3993 27.6863 31.847 28.2386 31.847C28.7909 31.847 29.2386 31.3993 29.2386 30.847L29.2385 27.1638C31.109 26.7138 32.499 25.0298 32.499 23.0212C32.499 21.0125 31.109 19.3285 29.2384 18.8785L29.2386 2.15308ZM25.9776 23.0212C25.9776 21.7785 26.9803 20.77 28.2207 20.7605L28.2384 20.7607L28.2561 20.7605C29.4964 20.7701 30.499 21.7785 30.499 23.0212C30.499 24.2697 29.4868 25.2818 28.2383 25.2818C26.9898 25.2818 25.9776 24.2697 25.9776 23.0212ZM16.5001 1.15308C17.0523 1.15308 17.5001 1.6008 17.5001 2.15308L17.5 5.8358C19.3707 6.28573 20.7607 7.96977 20.7607 9.97847C20.7607 11.9872 19.3707 13.6712 17.5 14.1211L17.5001 30.847C17.5001 31.3993 17.0523 31.847 16.5001 31.847C15.9478 31.847 15.5001 31.3993 15.5001 30.847L15.5 14.1211C13.6294 13.6712 12.2394 11.9872 12.2394 9.97847C12.2394 7.96977 13.6294 6.28573 15.5 5.8358L15.5001 2.15307C15.5001 1.60079 15.9478 1.15307 16.5001 1.15308ZM16.4824 7.71786C15.242 7.72734 14.2394 8.73582 14.2394 9.97847C14.2394 11.227 15.2515 12.2391 16.5 12.2391C17.7486 12.2391 18.7607 11.227 18.7607 9.97847C18.7607 8.73582 17.7581 7.72734 16.5177 7.71786L16.5 7.71802L16.4824 7.71786ZM3.76137 21.9468C1.89082 21.4969 0.500854 19.8129 0.500854 17.8042C0.500854 15.7956 1.89082 14.1116 3.76137 13.6616L3.76128 2.15308C3.76128 1.6008 4.20899 1.15308 4.76127 1.15308C5.31356 1.15307 5.76128 1.60078 5.76128 2.15307L5.76137 13.6615C7.63208 14.1114 9.0222 15.7955 9.0222 17.8042C9.0222 19.813 7.63208 21.4971 5.76137 21.9469L5.76128 30.8469C5.76128 31.3992 5.31356 31.8469 4.76127 31.8469C4.20899 31.8469 3.76128 31.3992 3.76128 30.8469L3.76137 21.9468ZM4.75136 15.5436C4.7547 15.5436 4.75804 15.5436 4.76139 15.5436C4.76476 15.5436 4.76812 15.5436 4.77149 15.5436C6.01544 15.5489 7.0222 16.559 7.0222 17.8042C7.0222 19.0528 6.01006 20.0649 4.76153 20.0649C3.51299 20.0649 2.50085 19.0528 2.50085 17.8042C2.50085 16.5591 3.5075 15.5491 4.75136 15.5436Z" fill="#111827"/>
</svg>
