<svg width="32" height="33" viewBox="0 0 32 33" fill="none" xmlns="http://www.w3.org/2000/svg">
<path d="M16 13.8914L16 27.9783" stroke="#1C1B1F" stroke-width="2" stroke-linecap="round" stroke-linejoin="round"/>
<path d="M16 5.02173L16 8.6739" stroke="#1C1B1F" stroke-width="2" stroke-linecap="round" stroke-linejoin="round"/>
<path d="M16.0001 13.8912C17.4408 13.8912 18.6087 12.7233 18.6087 11.2825C18.6087 9.84178 17.4408 8.67383 16.0001 8.67383C14.5593 8.67383 13.3914 9.84178 13.3914 11.2825C13.3914 12.7233 14.5593 13.8912 16.0001 13.8912Z" stroke="#1C1B1F" stroke-width="2" stroke-linecap="round" stroke-linejoin="round"/>
<path d="M25.3914 24.3262L25.3915 27.9783" stroke="#1C1B1F" stroke-width="2" stroke-linecap="round" stroke-linejoin="round"/>
<path d="M25.3915 5.02173L25.3914 19.1087" stroke="#1C1B1F" stroke-width="2" stroke-linecap="round" stroke-linejoin="round"/>
<path d="M25.3913 24.326C26.832 24.326 28 23.1581 28 21.7173C28 20.2766 26.832 19.1086 25.3913 19.1086C23.9505 19.1086 22.7826 20.2766 22.7826 21.7173C22.7826 23.1581 23.9505 24.326 25.3913 24.326Z" stroke="#1C1B1F" stroke-width="2" stroke-linecap="round" stroke-linejoin="round"/>
<path d="M6.6086 20.1521L6.60852 27.9782" stroke="#1C1B1F" stroke-width="2" stroke-linecap="round" stroke-linejoin="round"/>
<path d="M6.60852 5.02173L6.6086 14.9348" stroke="#1C1B1F" stroke-width="2" stroke-linecap="round" stroke-linejoin="round"/>
<path d="M6.6087 20.1522C8.04944 20.1522 9.21739 18.9843 9.21739 17.5435C9.21739 16.1028 8.04944 14.9348 6.6087 14.9348C5.16795 14.9348 4 16.1028 4 17.5435C4 18.9843 5.16795 20.1522 6.6087 20.1522Z" stroke="#1C1B1F" stroke-width="2" stroke-linecap="round" stroke-linejoin="round"/>
</svg>
