<svg width="32" height="33" viewBox="0 0 32 33" fill="none" xmlns="http://www.w3.org/2000/svg">
<path d="M18.7273 22.5L4 22.5" stroke="#1C1B1F" stroke-width="2" stroke-linecap="round" stroke-linejoin="round"/>
<path d="M27.9999 22.5L24.1818 22.5" stroke="#1C1B1F" stroke-width="2" stroke-linecap="round" stroke-linejoin="round"/>
<path d="M21.4546 25.2273C22.9608 25.2273 24.1818 24.0062 24.1818 22.5C24.1818 20.9937 22.9608 19.7727 21.4546 19.7727C19.9483 19.7727 18.7273 20.9937 18.7273 22.5C18.7273 24.0062 19.9483 25.2273 21.4546 25.2273Z" stroke="#1C1B1F" stroke-width="2" stroke-linecap="round" stroke-linejoin="round"/>
<path d="M10 10.4998L4 10.4998" stroke="#1C1B1F" stroke-width="2" stroke-linecap="round" stroke-linejoin="round"/>
<path d="M28 10.4998L15.4546 10.4998" stroke="#1C1B1F" stroke-width="2" stroke-linecap="round" stroke-linejoin="round"/>
<path d="M12.7273 13.2273C14.2335 13.2273 15.4545 12.0062 15.4545 10.5C15.4545 8.99375 14.2335 7.77271 12.7273 7.77271C11.221 7.77271 10 8.99375 10 10.5C10 12.0062 11.221 13.2273 12.7273 13.2273Z" stroke="#1C1B1F" stroke-width="2" stroke-linecap="round" stroke-linejoin="round"/>
</svg>
