<svg width="33" height="33" viewBox="0 0 33 33" fill="none" xmlns="http://www.w3.org/2000/svg">
<path d="M16.5 28.5C23.1274 28.5 28.5 23.1274 28.5 16.5C28.5 9.87258 23.1274 4.5 16.5 4.5C9.87258 4.5 4.5 9.87258 4.5 16.5C4.5 23.1274 9.87258 28.5 16.5 28.5Z" stroke="#111827" stroke-width="2" stroke-miterlimit="10"/>
<path d="M23.5 12.5L19.5 16.5" stroke="#111827" stroke-width="2" stroke-linecap="round" stroke-linejoin="round"/>
<path d="M23.5 16.5L19.5 12.5" stroke="#111827" stroke-width="2" stroke-linecap="round" stroke-linejoin="round"/>
<path d="M13.5 12.5L9.5 16.5" stroke="#111827" stroke-width="2" stroke-linecap="round" stroke-linejoin="round"/>
<path d="M13.5 16.5L9.5 12.5" stroke="#111827" stroke-width="2" stroke-linecap="round" stroke-linejoin="round"/>
<path d="M16.5 24.5C17.3284 24.5 18 23.8284 18 23C18 22.1716 17.3284 21.5 16.5 21.5C15.6716 21.5 15 22.1716 15 23C15 23.8284 15.6716 24.5 16.5 24.5Z" fill="#111827"/>
</svg>
