<svg width="32" height="33" viewBox="0 0 32 33" fill="none" xmlns="http://www.w3.org/2000/svg">
<path d="M16 28.5C22.6274 28.5 28 23.1274 28 16.5C28 9.87258 22.6274 4.5 16 4.5C9.37258 4.5 4 9.87258 4 16.5C4 23.1274 9.37258 28.5 16 28.5Z" stroke="#1C1B1F" stroke-width="2" stroke-miterlimit="10"/>
<path d="M23 12.5L19 16.5" stroke="#1C1B1F" stroke-width="2" stroke-linecap="round" stroke-linejoin="round"/>
<path d="M23 16.5L19 12.5" stroke="#1C1B1F" stroke-width="2" stroke-linecap="round" stroke-linejoin="round"/>
<path d="M13 12.5L9 16.5" stroke="#1C1B1F" stroke-width="2" stroke-linecap="round" stroke-linejoin="round"/>
<path d="M13 16.5L9 12.5" stroke="#1C1B1F" stroke-width="2" stroke-linecap="round" stroke-linejoin="round"/>
<path d="M16 24.5C16.8284 24.5 17.5 23.8284 17.5 23C17.5 22.1716 16.8284 21.5 16 21.5C15.1716 21.5 14.5 22.1716 14.5 23C14.5 23.8284 15.1716 24.5 16 24.5Z" fill="#1C1B1F"/>
</svg>
