<svg width="35" height="35" viewBox="0 0 35 35" fill="none" xmlns="http://www.w3.org/2000/svg">
<path d="M11.5 16.1666C12.6046 16.1666 13.5 15.2712 13.5 14.1666C13.5 13.0621 12.6046 12.1666 11.5 12.1666C10.3954 12.1666 9.5 13.0621 9.5 14.1666C9.5 15.2712 10.3954 16.1666 11.5 16.1666Z" fill="#111827"/>
<path d="M23.5 16.1666C24.6046 16.1666 25.5 15.2712 25.5 14.1666C25.5 13.0621 24.6046 12.1666 23.5 12.1666C22.3954 12.1666 21.5 13.0621 21.5 14.1666C21.5 15.2712 22.3954 16.1666 23.5 16.1666Z" fill="#111827"/>
<path d="M24.4299 21.4995C23.7274 22.7158 22.7172 23.7258 21.5008 24.428C20.2844 25.1303 18.9045 25.4999 17.4999 25.5C16.0954 25.5 14.7155 25.1303 13.4991 24.4281C12.2826 23.7259 11.2724 22.7159 10.5699 21.4996" stroke="#111827" stroke-width="2" stroke-linecap="round" stroke-linejoin="round"/>
<path d="M1.5 17.5C1.5 26.3366 8.66344 33.5 17.5 33.5C18.8548 33.5 20.1703 33.3316 21.4267 33.0146C21.5102 32.9935 21.5864 32.9505 21.6483 32.8906L32.7476 22.1475C32.8095 22.0876 32.855 22.0129 32.8787 21.9302C33.2833 20.5233 33.5 19.037 33.5 17.5C33.5 8.66344 26.3366 1.5 17.5 1.5C8.66344 1.5 1.5 8.66344 1.5 17.5Z" stroke="#111827" stroke-width="2" stroke-miterlimit="10"/>
</svg>
