<svg width="35" height="35" viewBox="0 0 35 35" fill="none" xmlns="http://www.w3.org/2000/svg">
<path d="M17.5 33.5C26.3366 33.5 33.5 26.3366 33.5 17.5C33.5 8.66344 26.3366 1.5 17.5 1.5C8.66344 1.5 1.5 8.66344 1.5 17.5C1.5 26.3366 8.66344 33.5 17.5 33.5Z" stroke="#111827" stroke-width="2" stroke-linecap="round" stroke-linejoin="round"/>
<path d="M11.5 16.1666C12.6046 16.1666 13.5 15.2712 13.5 14.1666C13.5 13.0621 12.6046 12.1666 11.5 12.1666C10.3954 12.1666 9.5 13.0621 9.5 14.1666C9.5 15.2712 10.3954 16.1666 11.5 16.1666Z" fill="#111827"/>
<path d="M21.5 14.1666H25.5" stroke="#111827" stroke-width="2" stroke-linecap="round" stroke-linejoin="round"/>
<path d="M24.4299 21.4995C23.7274 22.7158 22.7172 23.7258 21.5008 24.428C20.2844 25.1303 18.9045 25.4999 17.4999 25.5C16.0954 25.5 14.7155 25.1303 13.4991 24.4281C12.2826 23.7259 11.2724 22.7159 10.5699 21.4996" stroke="#111827" stroke-width="2" stroke-linecap="round" stroke-linejoin="round"/>
</svg>
