<svg width="33" height="33" viewBox="0 0 33 33" fill="none" xmlns="http://www.w3.org/2000/svg">
<path fill-rule="evenodd" clip-rule="evenodd" d="M2.50092 16.4999C2.50092 8.76846 8.76852 2.50085 16.5 2.50085C24.2315 2.50085 30.4991 8.76846 30.4991 16.4999C30.4991 24.2314 24.2315 30.499 16.5 30.499C8.76852 30.499 2.50092 24.2314 2.50092 16.4999ZM16.5 0.500854C7.66395 0.500854 0.500916 7.66389 0.500916 16.4999C0.500916 25.336 7.66395 32.499 16.5 32.499C25.3361 32.499 32.4991 25.336 32.4991 16.4999C32.4991 7.66389 25.3361 0.500854 16.5 0.500854ZM10.2504 20.4996C9.69809 20.4996 9.25037 20.9473 9.25037 21.4996C9.25037 22.0519 9.69809 22.4996 10.2504 22.4996H22.7496C23.3019 22.4996 23.7496 22.0519 23.7496 21.4996C23.7496 20.9473 23.3019 20.4996 22.7496 20.4996H10.2504ZM10.8754 15.25C11.9109 15.25 12.7503 14.4106 12.7503 13.3751C12.7503 12.3397 11.9109 11.5002 10.8754 11.5002C9.83993 11.5002 9.00051 12.3397 9.00051 13.3751C9.00051 14.4106 9.83993 15.25 10.8754 15.25ZM23.9995 13.3751C23.9995 14.4106 23.1601 15.25 22.1246 15.25C21.0892 15.25 20.2498 14.4106 20.2498 13.3751C20.2498 12.3397 21.0892 11.5002 22.1246 11.5002C23.1601 11.5002 23.9995 12.3397 23.9995 13.3751Z" fill="#111827"/>
</svg>
