<svg width="35" height="35" viewBox="0 0 35 35" fill="none" xmlns="http://www.w3.org/2000/svg">
<path d="M17.5 33.5C26.3366 33.5 33.5 26.3366 33.5 17.5C33.5 8.66344 26.3366 1.5 17.5 1.5C8.66344 1.5 1.5 8.66344 1.5 17.5C1.5 26.3366 8.66344 33.5 17.5 33.5Z" stroke="#111827" stroke-width="2" stroke-miterlimit="10"/>
<path d="M11.5 16.1666C12.6046 16.1666 13.5 15.2712 13.5 14.1666C13.5 13.0621 12.6046 12.1666 11.5 12.1666C10.3954 12.1666 9.5 13.0621 9.5 14.1666C9.5 15.2712 10.3954 16.1666 11.5 16.1666Z" fill="#111827"/>
<path d="M23.5 16.1666C24.6046 16.1666 25.5 15.2712 25.5 14.1666C25.5 13.0621 24.6046 12.1666 23.5 12.1666C22.3954 12.1666 21.5 13.0621 21.5 14.1666C21.5 15.2712 22.3954 16.1666 23.5 16.1666Z" fill="#111827"/>
<path d="M11.5 16.1666C12.6046 16.1666 13.5 15.2712 13.5 14.1666C13.5 13.0621 12.6046 12.1666 11.5 12.1666C10.3954 12.1666 9.5 13.0621 9.5 14.1666C9.5 15.2712 10.3954 16.1666 11.5 16.1666Z" fill="#111827"/>
<path d="M23.5 16.1666C24.6046 16.1666 25.5 15.2712 25.5 14.1666C25.5 13.0621 24.6046 12.1666 23.5 12.1666C22.3954 12.1666 21.5 13.0621 21.5 14.1666C21.5 15.2712 22.3954 16.1666 23.5 16.1666Z" fill="#111827"/>
<path d="M24.4299 25.5C23.7274 24.2836 22.7172 23.2736 21.5008 22.5714C20.2844 21.8692 18.9045 21.4995 17.4999 21.4995C16.0954 21.4995 14.7155 21.8692 13.4991 22.5714C12.2826 23.2736 11.2724 24.2836 10.5699 25.4999" stroke="#111827" stroke-width="2" stroke-linecap="round" stroke-linejoin="round"/>
</svg>
