<svg width="33" height="33" viewBox="0 0 33 33" fill="none" xmlns="http://www.w3.org/2000/svg">
<path d="M12 15.5C12.8284 15.5 13.5 14.8284 13.5 14C13.5 13.1716 12.8284 12.5 12 12.5C11.1716 12.5 10.5 13.1716 10.5 14C10.5 14.8284 11.1716 15.5 12 15.5Z" fill="#111827"/>
<path d="M21 15.5C21.8284 15.5 22.5 14.8284 22.5 14C22.5 13.1716 21.8284 12.5 21 12.5C20.1716 12.5 19.5 13.1716 19.5 14C19.5 14.8284 20.1716 15.5 21 15.5Z" fill="#111827"/>
<path d="M21.6974 19.4996C21.1706 20.4119 20.413 21.1694 19.5006 21.696C18.5883 22.2227 17.5534 22.5 16.5 22.5C15.4466 22.5 14.4117 22.2227 13.4993 21.6961C12.587 21.1694 11.8293 20.4119 11.3025 19.4997" stroke="#111827" stroke-width="2" stroke-linecap="round" stroke-linejoin="round"/>
<path d="M4.5 16.5C4.5 23.1274 9.87258 28.5 16.5 28.5C17.5047 28.5 18.4805 28.3765 19.4132 28.1439C19.4967 28.1231 19.5729 28.08 19.6348 28.0201L27.9121 20.0084C27.974 19.9486 28.0195 19.8739 28.0431 19.7911C28.3407 18.7453 28.5 17.6413 28.5 16.5C28.5 9.87258 23.1274 4.5 16.5 4.5C9.87258 4.5 4.5 9.87258 4.5 16.5Z" stroke="#111827" stroke-width="2" stroke-miterlimit="10"/>
</svg>
