<svg width="35" height="35" viewBox="0 0 35 35" fill="none" xmlns="http://www.w3.org/2000/svg">
<path d="M17.5 33.5C26.3366 33.5 33.5 26.3366 33.5 17.5C33.5 8.66344 26.3366 1.5 17.5 1.5C8.66344 1.5 1.5 8.66344 1.5 17.5C1.5 26.3366 8.66344 33.5 17.5 33.5Z" stroke="#111827" stroke-width="2" stroke-miterlimit="10"/>
<path d="M26.8333 12.1666L21.5 17.5" stroke="#111827" stroke-width="2" stroke-linecap="round" stroke-linejoin="round"/>
<path d="M26.8333 17.5L21.5 12.1666" stroke="#111827" stroke-width="2" stroke-linecap="round" stroke-linejoin="round"/>
<path d="M13.5 12.1666L8.16663 17.5" stroke="#111827" stroke-width="2" stroke-linecap="round" stroke-linejoin="round"/>
<path d="M13.5 17.5L8.16663 12.1666" stroke="#111827" stroke-width="2" stroke-linecap="round" stroke-linejoin="round"/>
<path d="M17.5 28.1666C18.6046 28.1666 19.5 27.2712 19.5 26.1666C19.5 25.0621 18.6046 24.1666 17.5 24.1666C16.3954 24.1666 15.5 25.0621 15.5 26.1666C15.5 27.2712 16.3954 28.1666 17.5 28.1666Z" fill="#111827"/>
</svg>
