<svg width="33" height="33" viewBox="0 0 33 33" fill="none" xmlns="http://www.w3.org/2000/svg">
<path d="M16.5 28.5C23.1274 28.5 28.5 23.1274 28.5 16.5C28.5 9.87258 23.1274 4.5 16.5 4.5C9.87258 4.5 4.5 9.87258 4.5 16.5C4.5 23.1274 9.87258 28.5 16.5 28.5Z" stroke="#111827" stroke-width="2" stroke-miterlimit="10"/>
<path d="M12 15.5C12.8284 15.5 13.5 14.8284 13.5 14C13.5 13.1716 12.8284 12.5 12 12.5C11.1716 12.5 10.5 13.1716 10.5 14C10.5 14.8284 11.1716 15.5 12 15.5Z" fill="#111827"/>
<path d="M21 15.5C21.8284 15.5 22.5 14.8284 22.5 14C22.5 13.1716 21.8284 12.5 21 12.5C20.1716 12.5 19.5 13.1716 19.5 14C19.5 14.8284 20.1716 15.5 21 15.5Z" fill="#111827"/>
<path d="M12 15.5C12.8284 15.5 13.5 14.8284 13.5 14C13.5 13.1716 12.8284 12.5 12 12.5C11.1716 12.5 10.5 13.1716 10.5 14C10.5 14.8284 11.1716 15.5 12 15.5Z" fill="#111827"/>
<path d="M21 15.5C21.8284 15.5 22.5 14.8284 22.5 14C22.5 13.1716 21.8284 12.5 21 12.5C20.1716 12.5 19.5 13.1716 19.5 14C19.5 14.8284 20.1716 15.5 21 15.5Z" fill="#111827"/>
<path d="M21.6974 22.5C21.1706 21.5877 20.413 20.8302 19.5006 20.3036C18.5883 19.7769 17.5534 19.4996 16.5 19.4996C15.4466 19.4996 14.4117 19.7769 13.4993 20.3035C12.587 20.8302 11.8293 21.5877 11.3025 22.4999" stroke="#111827" stroke-width="2" stroke-linecap="round" stroke-linejoin="round"/>
</svg>
