<svg width="32" height="33" viewBox="0 0 32 33" fill="none" xmlns="http://www.w3.org/2000/svg">
<path d="M16 28.5C22.6274 28.5 28 23.1274 28 16.5C28 9.87258 22.6274 4.5 16 4.5C9.37258 4.5 4 9.87258 4 16.5C4 23.1274 9.37258 28.5 16 28.5Z" stroke="#1C1B1F" stroke-width="2" stroke-miterlimit="10"/>
<path d="M11.5 15.5C12.3284 15.5 13 14.8284 13 14C13 13.1716 12.3284 12.5 11.5 12.5C10.6716 12.5 10 13.1716 10 14C10 14.8284 10.6716 15.5 11.5 15.5Z" fill="#1C1B1F"/>
<path d="M20.5 15.5C21.3284 15.5 22 14.8284 22 14C22 13.1716 21.3284 12.5 20.5 12.5C19.6716 12.5 19 13.1716 19 14C19 14.8284 19.6716 15.5 20.5 15.5Z" fill="#1C1B1F"/>
<path d="M10.0098 22.1248L11.894 19.6694C11.9343 19.6169 12.0135 19.6173 12.0532 19.6701L13.8217 22.0209C13.8612 22.0734 13.9396 22.0742 13.9802 22.0227L15.8374 19.6636C15.8772 19.6131 15.9536 19.6127 15.9939 19.6628L17.8947 22.0246C17.9355 22.0754 18.0133 22.0742 18.0525 22.0221L19.8261 19.6644C19.8646 19.6133 19.9404 19.6109 19.982 19.6594L22.0954 22.1248" stroke="#1C1B1F" stroke-width="2" stroke-linecap="round"/>
</svg>
