<svg width="33" height="33" viewBox="0 0 33 33" fill="none" xmlns="http://www.w3.org/2000/svg">
<path fill-rule="evenodd" clip-rule="evenodd" d="M2.50092 16.4999C2.50092 8.76846 8.76852 2.50085 16.5 2.50085C24.2315 2.50085 30.4991 8.76846 30.4991 16.4999C30.4991 24.2314 24.2315 30.499 16.5 30.499C8.76852 30.499 2.50092 24.2314 2.50092 16.4999ZM16.5 0.500854C7.66395 0.500854 0.500916 7.66389 0.500916 16.4999C0.500916 25.336 7.66395 32.499 16.5 32.499C25.3361 32.499 32.4991 25.336 32.4991 16.4999C32.4991 7.66389 25.3361 0.500854 16.5 0.500854ZM12.7503 13.3751C12.7503 14.4106 11.9109 15.25 10.8754 15.25C9.83993 15.25 9.00051 14.4106 9.00051 13.3751C9.00051 12.3397 9.83993 11.5002 10.8754 11.5002C11.9109 11.5002 12.7503 12.3397 12.7503 13.3751ZM22.1246 15.25C23.1601 15.25 23.9995 14.4106 23.9995 13.3751C23.9995 12.3397 23.1601 11.5002 22.1246 11.5002C21.0892 11.5002 20.2498 12.3397 20.2498 13.3751C20.2498 14.4106 21.0892 15.25 22.1246 15.25ZM23.8624 20.7493C24.1386 20.2711 23.9748 19.6594 23.4965 19.3832C23.0183 19.107 22.4067 19.2708 22.1304 19.7491C21.5597 20.7373 20.739 21.5579 19.7506 22.1285C18.7623 22.699 17.6412 22.9994 16.5 22.9994C15.3588 22.9994 14.2377 22.699 13.2493 22.1285C12.261 21.558 11.4402 20.7374 10.8695 19.7492C10.5932 19.2709 9.98164 19.1071 9.50338 19.3833C9.02513 19.6595 8.86134 20.2712 9.13755 20.7494C9.88385 22.0416 10.9571 23.1146 12.2495 23.8606C13.5418 24.6067 15.0078 24.9994 16.5 24.9994C17.9922 24.9994 19.4582 24.6066 20.7505 23.8606C22.0429 23.1146 23.1161 22.0415 23.8624 20.7493Z" fill="#111827"/>
</svg>
