<svg width="33" height="32" viewBox="0 0 33 32" fill="none" xmlns="http://www.w3.org/2000/svg">
<path d="M5.43312 7.65055L11.9359 11.5498C12.296 11.7662 12.7188 11.8543 13.1353 11.7998C13.5519 11.7452 13.9377 11.5512 14.23 11.2494C14.4252 11.0611 14.5803 10.8353 14.6857 10.5854C14.7911 10.3355 14.8447 10.0668 14.8433 9.79564V1.98062C14.8563 1.63833 14.7768 1.29886 14.6131 0.997973C14.4493 0.69709 14.2075 0.44593 13.913 0.270948C13.6186 0.0959722 13.2824 0.00362196 12.9399 0.00362196C12.5975 0.00362196 12.2613 0.0959722 11.9669 0.270948C11.6724 0.44593 11.4306 0.69709 11.2668 0.997973C11.1031 1.29886 11.0236 1.63833 11.0366 1.98062V6.42778L7.34376 4.2132C7.126 4.08394 6.88454 3.99965 6.63365 3.9653C6.38275 3.93096 6.12752 3.94726 5.88304 4.01324C5.39013 4.14571 4.97421 4.48315 4.73326 4.93506C4.20486 5.88488 4.5133 7.07466 5.43312 7.64555M21.0652 11.5448L27.5679 7.64555C28.4877 7.07416 28.7967 5.87938 28.2678 4.93406C28.1482 4.71101 27.9847 4.51449 27.7871 4.35634C27.5895 4.19819 27.3619 4.08169 27.118 4.01387C26.8742 3.94604 26.6192 3.92829 26.3683 3.96169C26.1174 3.99509 25.8759 4.07895 25.6583 4.2082L22.009 6.39279V1.97362C22.0182 1.71786 21.9759 1.46286 21.8844 1.22384C21.7929 0.98482 21.6542 0.766687 21.4765 0.582471C21.2989 0.398254 21.0859 0.251732 20.8504 0.151655C20.6148 0.0515786 20.3615 0 20.1056 0C19.8497 0 19.5964 0.0515786 19.3608 0.151655C19.1253 0.251732 18.9123 0.398254 18.7346 0.582471C18.557 0.766687 18.4183 0.98482 18.3268 1.22384C18.2353 1.46286 18.1929 1.71786 18.2022 1.97362V9.63367C18.1631 10.044 18.2492 10.4565 18.4492 10.8169C18.6901 11.2684 19.106 11.6018 19.5989 11.7388C19.8431 11.8071 20.0988 11.8246 20.35 11.7902C20.6013 11.7558 20.8428 11.6702 21.0597 11.5388M15.2773 15.985C15.2838 15.86 15.3312 15.735 15.4132 15.645L16.1731 14.8552C16.2631 14.7715 16.3793 14.7216 16.502 14.7142H16.5305C16.6529 14.7214 16.769 14.7713 16.8585 14.8552L17.6183 15.645C17.7006 15.74 17.7484 15.8599 17.7543 15.9855V16.0155C17.7483 16.1412 17.7004 16.2614 17.6183 16.3569L16.8585 17.1467C16.7693 17.2313 16.6532 17.2816 16.5305 17.2887H16.502C16.379 17.2817 16.2621 17.2312 16.1731 17.1467L15.4132 16.3569C15.3311 16.2614 15.2833 16.1412 15.2773 16.0155V15.985ZM12.9757 15.66V16.3419C12.9841 16.5133 13.0496 16.6769 13.1617 16.8068L15.7412 19.4848C15.8629 19.5999 16.0213 19.6682 16.1886 19.6778H16.8445C17.0117 19.6682 17.1702 19.5999 17.2919 19.4848L19.8714 16.8068C19.9834 16.6769 20.0489 16.5133 20.0573 16.3419V15.66C20.0489 15.4887 19.9834 15.325 19.8714 15.1951L17.2919 12.5171C17.1702 12.402 17.0117 12.3337 16.8445 12.3242H16.1886C16.0213 12.3337 15.8629 12.402 15.7412 12.5171L13.1617 15.2001C13.0499 15.3302 12.9845 15.4937 12.9757 15.665M2.06876 13.8104L5.75056 16.0185L2.06876 18.2245C1.62625 18.5002 1.30678 18.9355 1.17658 19.4404C1.04637 19.9452 1.11542 20.4807 1.36939 20.936C1.48883 21.1594 1.65229 21.3562 1.8499 21.5147C2.04752 21.6731 2.27519 21.7898 2.51918 21.8578C3.01208 21.9948 3.53998 21.9243 3.9799 21.6619L10.4827 17.7626C11.0825 17.3817 11.4325 16.7238 11.4325 16.017C11.4324 15.6698 11.3455 15.3282 11.1796 15.0233C11.0137 14.7184 10.7741 14.4599 10.4827 14.2713L3.9799 10.372C3.76214 10.2428 3.52068 10.1585 3.26979 10.1241C3.01889 10.0898 2.76366 10.1061 2.51918 10.1721C2.02627 10.3045 1.61035 10.642 1.36939 11.0939C0.840995 12.0437 1.14944 13.2325 2.06926 13.8044M21.5631 16.025C21.5573 16.3727 21.6424 16.7159 21.8098 17.0208C21.9773 17.3256 22.2213 17.5815 22.5179 17.7631L29.0166 21.6624C29.4566 21.9243 29.9835 21.9953 30.4764 21.8583C30.9693 21.7214 31.3847 21.3884 31.6261 20.937C31.8813 20.482 31.951 19.9459 31.8206 19.4408C31.6902 18.9356 31.3698 18.5003 30.9263 18.2255L27.249 16.019L30.9308 13.8109C31.8506 13.2395 32.159 12.0462 31.6306 11.1004C31.5114 10.8769 31.3481 10.6799 31.1504 10.5214C30.9528 10.363 30.725 10.2463 30.4809 10.1786C29.9875 10.0416 29.4601 10.1116 29.0211 10.3785L22.5224 14.2778C22.2236 14.4607 21.9781 14.719 21.8105 15.0267C21.643 15.3344 21.5592 15.6807 21.5676 16.031M13.2416 20.2532C12.7928 20.1665 12.3279 20.2492 11.9364 20.4851L5.43362 24.3844C4.5138 24.9558 4.20586 26.149 4.73376 27.0949C4.97521 27.5463 5.39063 27.8797 5.88354 28.0162C6.12762 28.0839 6.38291 28.1014 6.63396 28.0678C6.88502 28.0341 7.12665 27.9499 7.34426 27.8202L11.0371 25.6056V30.0198C11.0269 30.2761 11.0686 30.5318 11.1596 30.7715C11.2507 31.0113 11.3892 31.2302 11.567 31.4152C11.7447 31.6001 11.9579 31.7472 12.1939 31.8477C12.4299 31.9482 12.6837 32 12.9402 32C13.1967 32 13.4505 31.9482 13.6865 31.8477C13.9225 31.7472 14.1357 31.6001 14.3134 31.4152C14.4912 31.2302 14.6297 31.0113 14.7208 30.7715C14.8118 30.5318 14.8535 30.2761 14.8433 30.0198V22.1988C14.8501 21.7366 14.6928 21.287 14.3995 20.9298C14.1062 20.5726 13.6958 20.3309 13.2411 20.2477M27.5684 24.3849L21.0657 20.4856C20.848 20.3559 20.6064 20.2717 20.3554 20.2381C20.1043 20.2044 19.849 20.2219 19.6049 20.2896C19.3609 20.3573 19.1331 20.4739 18.9355 20.6323C18.7378 20.7906 18.5744 20.9875 18.4551 21.211C18.2552 21.5719 18.1691 21.9849 18.2082 22.3957V30.0193C18.198 30.2756 18.2397 30.5313 18.3308 30.771C18.4218 31.0108 18.5604 31.2297 18.7381 31.4147C18.9158 31.5996 19.1291 31.7467 19.365 31.8472C19.601 31.9477 19.8549 31.9995 20.1113 31.9995C20.3678 31.9995 20.6217 31.9477 20.8576 31.8472C21.0936 31.7467 21.3068 31.5996 21.4846 31.4147C21.6623 31.2297 21.8008 31.0108 21.8919 30.771C21.983 30.5313 22.0246 30.2756 22.0145 30.0193V25.6381L25.6573 27.8227C25.875 27.952 26.1165 28.0363 26.3674 28.0706C26.6183 28.105 26.8735 28.0887 27.118 28.0227C27.6109 27.8902 28.0268 27.5528 28.2678 27.1009C28.7962 26.151 28.4877 24.9613 27.5679 24.3904" fill="#111827"/>
</svg>
