<svg width="33" height="32" viewBox="0 0 33 32" fill="none" xmlns="http://www.w3.org/2000/svg">
<g clip-path="url(#clip0_303_73)">
<path fill-rule="evenodd" clip-rule="evenodd" d="M13.0151 0.00098071C13.5674 -0.00059297 14.0163 0.445844 14.0179 0.998127L14.0444 10.2943C14.0454 10.6569 13.8502 10.9916 13.534 11.1691C13.2179 11.3466 12.8305 11.3391 12.5215 11.1495L4.75636 6.3853C4.28562 6.09647 4.13814 5.48072 4.42697 5.00998C4.71579 4.53923 5.33154 4.39176 5.80228 4.68058L12.0393 8.50728L12.0179 1.00383C12.0164 0.451544 12.4628 0.00255444 13.0151 0.00098071ZM28.6132 4.98244C28.8907 5.45994 28.7285 6.072 28.251 6.3495L20.2135 11.0205C19.9001 11.2027 19.5126 11.201 19.2008 11.0159C18.889 10.8309 18.7017 10.4917 18.7114 10.1292L18.9548 1.02234C18.9696 0.470252 19.4291 0.0346588 19.9812 0.0494147C20.5333 0.0641706 20.9689 0.523688 20.9541 1.07578L20.7586 8.39055L27.2461 4.62031C27.7236 4.3428 28.3357 4.50493 28.6132 4.98244ZM18.9822 31.0019C18.9837 31.5542 19.4327 32.0007 19.985 31.9991C20.5373 31.9975 20.9837 31.5485 20.9822 30.9962L20.9608 23.4928L27.1978 27.3195C27.6685 27.6083 28.2843 27.4608 28.5731 26.9901C28.8619 26.5193 28.7145 25.9036 28.2437 25.6148L20.4786 20.8505C20.1696 20.6609 19.7822 20.6534 19.466 20.831C19.1499 21.0085 18.9546 21.3432 18.9557 21.7057L18.9822 31.0019ZM4.38716 27.0176C4.10966 26.5401 4.27179 25.9281 4.74929 25.6506L12.7868 20.9795C13.1003 20.7974 13.4878 20.7991 13.7996 20.9841C14.1114 21.1691 14.2986 21.5084 14.2889 21.8708L14.0455 30.9777C14.0307 31.5298 13.5712 31.9654 13.0191 31.9507C12.467 31.9359 12.0315 31.4764 12.0462 30.9243L12.2417 23.6095L5.75422 27.3798C5.27672 27.6573 4.66466 27.4951 4.38716 27.0176ZM2.26699 10.6487C1.78791 10.3739 1.17679 10.5395 0.90201 11.0186C0.627232 11.4977 0.792849 12.1088 1.27193 12.3836L7.7808 16.1168L1.34827 19.6048C0.862767 19.8681 0.68261 20.4751 0.945875 20.9606C1.20914 21.4461 1.81613 21.6263 2.30163 21.363L10.3101 17.0203C10.6288 16.8475 10.829 16.5157 10.8334 16.1532C10.8377 15.7907 10.6455 15.4542 10.331 15.2738L2.26699 10.6487ZM32.0982 11.0186C31.8234 10.5395 31.2123 10.3739 30.7332 10.6487L22.6692 15.2738C22.3547 15.4542 22.1625 15.7907 22.1668 16.1532C22.1712 16.5157 22.3714 16.8475 22.6901 17.0203L30.6986 21.363C31.1841 21.6263 31.7911 21.4461 32.0543 20.9606C32.3176 20.4751 32.1374 19.8681 31.6519 19.6048L25.2194 16.1168L31.7283 12.3836C32.2074 12.1088 32.373 11.4977 32.0982 11.0186ZM12.7695 15.3687V16.783L15.6618 19.6753H17.076L19.9683 16.783V15.3687L17.076 12.4764H15.6618L12.7695 15.3687ZM16.3689 17.5539L14.8908 16.0759L16.3689 14.5978L17.847 16.0759L16.3689 17.5539Z" fill="#111827"/>
</g>
<defs>
<clipPath id="clip0_303_73">
<rect width="32" height="32" fill="white" transform="translate(0.5)"/>
</clipPath>
</defs>
</svg>
