<svg width="33" height="33" viewBox="0 0 33 33" fill="none" xmlns="http://www.w3.org/2000/svg">
<path fill-rule="evenodd" clip-rule="evenodd" d="M11.7116 0.82805C12.1021 0.437525 12.7353 0.437525 13.1258 0.828049L16.5 4.20226L19.8742 0.828049C20.2647 0.437525 20.8979 0.437525 21.2884 0.82805C21.679 1.21857 21.679 1.85174 21.2884 2.24226L17.5 6.03069V14.7673L25.0624 10.3992L26.4517 5.22104C26.5948 4.68762 27.1432 4.37122 27.6767 4.51433C28.2101 4.65744 28.5265 5.20588 28.3834 5.7393L27.146 10.3513L31.758 11.5886C32.2914 11.7317 32.6078 12.2802 32.4647 12.8136C32.3216 13.347 31.7731 13.6634 31.2397 13.5203L26.0624 12.1313L18.4993 16.4998L26.0623 20.8683L31.2397 19.4792C31.7731 19.3361 32.3216 19.6525 32.4647 20.1859C32.6078 20.7193 32.2914 21.2678 31.758 21.4109L27.146 22.6482L28.3834 27.2602C28.5265 27.7936 28.2101 28.342 27.6767 28.4852C27.1432 28.6283 26.5948 28.3119 26.4517 27.7784L25.0625 22.6004L17.5 18.2322V26.9693L21.2884 30.7577C21.679 31.1482 21.679 31.7814 21.2884 32.1719C20.8979 32.5625 20.2647 32.5625 19.8742 32.1719L16.5 28.7977L13.1258 32.1719C12.7353 32.5625 12.1021 32.5625 11.7116 32.1719C11.3211 31.7814 11.3211 31.1482 11.7116 30.7577L15.5 26.9693V18.2322L7.93754 22.6005L6.54832 27.7784C6.40521 28.3119 5.85677 28.6283 5.32335 28.4852C4.78993 28.342 4.47353 27.7936 4.61664 27.2602L5.85399 22.6482L1.24204 21.4109C0.708615 21.2678 0.392208 20.7193 0.535321 20.1859C0.678434 19.6525 1.22687 19.3361 1.76029 19.4792L6.93778 20.8683L14.5007 16.4998L6.93768 12.1312L1.76029 13.5203C1.22687 13.6634 0.678434 13.347 0.535321 12.8136C0.392208 12.2802 0.708615 11.7317 1.24204 11.5886L5.85399 10.3513L4.61664 5.7393C4.47353 5.20588 4.78993 4.65744 5.32335 4.51433C5.85677 4.37122 6.40521 4.68762 6.54832 5.22104L7.93757 10.3991L15.5 14.7673V6.03068L11.7116 2.24226C11.3211 1.85174 11.3211 1.21857 11.7116 0.82805Z" fill="#111827"/>
</svg>
