<svg width="33" height="32" viewBox="0 0 33 32" fill="none" xmlns="http://www.w3.org/2000/svg">
<path fill-rule="evenodd" clip-rule="evenodd" d="M13.2228 2.38591C14.274 2.13378 15.3714 2.00024 16.4999 2.00024C17.6286 2.00024 18.7261 2.13381 19.7774 2.38599L16.5002 4.76446L13.2228 2.38591ZM3.05371 24.6746C5.90315 29.0823 10.8609 31.9996 16.4999 31.9996C17.893 31.9996 19.2445 31.8216 20.5328 31.4871L20.5386 31.4855C24.4623 30.4651 27.8004 27.9928 29.9449 24.6766C29.9694 24.6431 29.9919 24.6081 30.0121 24.5717C31.4147 22.3655 32.2917 19.7924 32.4671 17.0287C32.475 16.9732 32.4782 16.9173 32.4768 16.8616C32.492 16.5763 32.4996 16.289 32.4996 15.9999C32.4996 12.1753 31.1576 8.66403 28.9188 5.91143C28.8868 5.86495 28.8508 5.82107 28.8111 5.78038C25.8762 2.24881 21.4507 0.000244141 16.4999 0.000244141C11.551 0.000244141 7.1268 2.2472 4.19196 5.77658C4.1497 5.81947 4.11157 5.86594 4.07791 5.9153C1.84099 8.66732 0.500244 12.1771 0.500244 15.9999C0.500244 16.2876 0.507836 16.5735 0.522829 16.8574C0.52112 16.9157 0.524478 16.9742 0.533013 17.0323C0.70898 19.7955 1.58637 22.368 2.98906 24.5738C3.00863 24.6088 3.03023 24.6424 3.05371 24.6746ZM26.9707 6.70696C25.6333 5.20118 23.976 3.98589 22.1055 3.16761L17.4999 6.51009V8.92831L22.9162 12.8634L25.2163 12.1161L26.9707 6.70696ZM25.8341 14.0183L23.5345 14.7655L21.4655 21.1333L22.8868 23.0895L28.5762 23.0864C29.581 21.3778 30.2336 19.4371 30.434 17.3641L25.8341 14.0183ZM30.4577 14.9082C30.2825 12.6362 29.5649 10.5162 28.4342 8.67732L27.1853 12.528L30.4577 14.9082ZM21.2688 24.2652L19.8477 22.3091H13.1517L11.731 24.2645L13.4923 29.6758C14.4611 29.8879 15.4675 29.9996 16.4999 29.9996C17.5325 29.9996 18.5389 29.8879 19.5078 29.6757L21.2688 24.2652ZM21.8502 28.9409C23.9107 28.0881 25.7233 26.7575 27.1499 25.0872L23.1038 25.0893L21.8502 28.9409ZM5.85003 25.0872C7.27662 26.7575 9.08929 28.0882 11.1499 28.941L9.89619 25.0893L5.85003 25.0872ZM10.1126 23.0895L11.5338 21.1333L9.46492 14.7657L7.16513 14.0184L2.56582 17.3637C2.76623 19.4368 3.4188 21.3777 4.4237 23.0864L10.1126 23.0895ZM4.56552 8.6776C3.43502 10.5162 2.71751 12.6361 2.54222 14.9078L5.81427 12.5279L4.56552 8.6776ZM6.02902 6.70717L7.78337 12.1164L10.083 12.8636L15.4999 8.9279V6.50975L10.8947 3.16748C9.02392 3.9858 7.3665 5.20122 6.02902 6.70717ZM13.3689 20.3091L11.4341 14.354L16.4997 10.6737L21.5652 14.354L19.6304 20.3091H13.3689Z" fill="#111827"/>
</svg>
