<svg width="33" height="33" viewBox="0 0 33 33" fill="none" xmlns="http://www.w3.org/2000/svg">
<path fill-rule="evenodd" clip-rule="evenodd" d="M13.2228 2.88591C14.274 2.63378 15.3714 2.50024 16.4999 2.50024C17.6286 2.50024 18.7261 2.63381 19.7774 2.88599L16.5002 5.26446L13.2228 2.88591ZM3.05371 25.1746C5.90315 29.5823 10.8609 32.4996 16.4999 32.4996C17.893 32.4996 19.2445 32.3216 20.5328 31.9871L20.5386 31.9855C24.4623 30.9651 27.8004 28.4928 29.9449 25.1766C29.9694 25.1431 29.9919 25.1081 30.0121 25.0717C31.4147 22.8655 32.2917 20.2924 32.4671 17.5287C32.475 17.4732 32.4782 17.4173 32.4768 17.3616C32.492 17.0763 32.4996 16.789 32.4996 16.4999C32.4996 12.6753 31.1576 9.16403 28.9188 6.41143C28.8868 6.36495 28.8508 6.32107 28.8111 6.28038C25.8762 2.74881 21.4507 0.500244 16.4999 0.500244C11.551 0.500244 7.1268 2.7472 4.19196 6.27658C4.1497 6.31947 4.11157 6.36594 4.07791 6.4153C1.84099 9.16732 0.500244 12.6771 0.500244 16.4999C0.500244 16.7876 0.507836 17.0735 0.522829 17.3574C0.52112 17.4157 0.524478 17.4742 0.533013 17.5323C0.70898 20.2955 1.58637 22.868 2.98906 25.0738C3.00863 25.1088 3.03023 25.1424 3.05371 25.1746ZM26.9707 7.20696C25.6333 5.70118 23.976 4.48589 22.1055 3.66761L17.4999 7.01009V9.42831L22.9162 13.3634L25.2163 12.6161L26.9707 7.20696ZM25.8341 14.5183L23.5345 15.2655L21.4655 21.6333L22.8868 23.5895L28.5762 23.5864C29.581 21.8778 30.2336 19.9371 30.434 17.8641L25.8341 14.5183ZM30.4577 15.4082C30.2825 13.1362 29.5649 11.0162 28.4342 9.17732L27.1853 13.028L30.4577 15.4082ZM21.2688 24.7652L19.8477 22.8091H13.1517L11.731 24.7645L13.4923 30.1758C14.4611 30.3879 15.4675 30.4996 16.4999 30.4996C17.5325 30.4996 18.5389 30.3879 19.5078 30.1757L21.2688 24.7652ZM21.8502 29.4409C23.9107 28.5881 25.7233 27.2575 27.1499 25.5872L23.1038 25.5893L21.8502 29.4409ZM5.85003 25.5872C7.27662 27.2575 9.08929 28.5882 11.1499 29.441L9.89619 25.5893L5.85003 25.5872ZM10.1126 23.5895L11.5338 21.6333L9.46492 15.2657L7.16513 14.5184L2.56582 17.8637C2.76623 19.9368 3.4188 21.8777 4.4237 23.5864L10.1126 23.5895ZM4.56552 9.1776C3.43502 11.0162 2.71751 13.1361 2.54222 15.4078L5.81427 13.0279L4.56552 9.1776ZM6.02902 7.20717L7.78337 12.6164L10.083 13.3636L15.4999 9.4279V7.00975L10.8947 3.66748C9.02392 4.4858 7.3665 5.70122 6.02902 7.20717ZM13.3689 20.8091L11.4341 14.854L16.4997 11.1737L21.5652 14.854L19.6304 20.8091H13.3689Z" fill="#111827"/>
</svg>
