<svg width="33" height="32" viewBox="0 0 33 32" fill="none" xmlns="http://www.w3.org/2000/svg">
<path fill-rule="evenodd" clip-rule="evenodd" d="M1.50183 2.2912C0.949546 2.2912 0.501831 2.73891 0.501831 3.2912C0.501831 3.84348 0.949546 4.2912 1.50183 4.2912H31.5018C32.0541 4.2912 32.5018 3.84348 32.5018 3.2912C32.5018 2.73891 32.0541 2.2912 31.5018 2.2912H1.50183ZM25.5073 10.7637C26.0596 10.7637 26.5073 11.2114 26.5073 11.7637V26.2944L30.791 22.0107C31.1816 21.6202 31.8147 21.6202 32.2053 22.0107C32.5958 22.4013 32.5958 23.0344 32.2053 23.425L26.2217 29.4085C26.119 29.5133 25.9935 29.5956 25.8532 29.6473C25.7893 29.6709 25.7223 29.6881 25.6531 29.6982C25.351 29.7425 25.0326 29.6484 24.8001 29.4159L18.8091 23.425C18.4186 23.0344 18.4186 22.4013 18.8091 22.0107C19.1996 21.6202 19.8328 21.6202 20.2233 22.0107L24.5073 26.2948V11.7637C24.5073 11.2114 24.9551 10.7637 25.5073 10.7637ZM0.501831 14.5878C0.501831 14.0355 0.949546 13.5878 1.50183 13.5878H14.2104C14.7627 13.5878 15.2104 14.0355 15.2104 14.5878C15.2104 15.1401 14.7627 15.5878 14.2104 15.5878H1.50183C0.949546 15.5878 0.501831 15.1401 0.501831 14.5878ZM0.501831 25.8845C0.501831 25.3322 0.949546 24.8845 1.50183 24.8845H11.3864C11.9387 24.8845 12.3864 25.3322 12.3864 25.8845C12.3864 26.4368 11.9387 26.8845 11.3864 26.8845H1.50183C0.949546 26.8845 0.501831 26.4368 0.501831 25.8845Z" fill="#111827"/>
</svg>
