<svg width="32" height="32" viewBox="0 0 32 32" fill="none" xmlns="http://www.w3.org/2000/svg">
<path d="M15.9999 4C15.9999 4 27.5383 11.3846 27.5383 17.3846C27.5383 18.5261 27.2127 19.6439 26.5997 20.6068C25.9866 21.5697 25.1117 22.3377 24.0775 22.8208C23.0432 23.3039 21.8927 23.4819 20.7608 23.334C19.629 23.1862 18.5628 22.7185 17.6874 21.9859L19.6922 28H12.3076L14.3124 21.9859C13.437 22.7185 12.3708 23.1862 11.2389 23.334C10.1071 23.4819 8.95653 23.3039 7.92231 22.8208C6.88809 22.3377 6.01313 21.5697 5.40011 20.6068C4.78709 19.6439 4.46146 18.5261 4.46143 17.3846C4.46143 11.3846 15.9999 4 15.9999 4Z" stroke="#1C1B1F" stroke-width="2" stroke-linecap="round" stroke-linejoin="round"/>
</svg>
