<svg width="33" height="33" viewBox="0 0 33 33" fill="none" xmlns="http://www.w3.org/2000/svg">
<path d="M16.5002 1.5C16.5002 1.5 30.9233 10.7308 30.9233 18.2308C30.9233 19.6576 30.5162 21.0548 29.7499 22.2585C28.9837 23.4621 27.89 24.4222 26.5972 25.026C25.3044 25.6299 23.8662 25.8524 22.4514 25.6676C21.0366 25.4827 19.7039 24.8981 18.6096 23.9824L21.1156 31.5H11.8848L14.3908 23.9824C13.2966 24.8981 11.9639 25.4827 10.549 25.6676C9.13422 25.8524 7.69603 25.6299 6.40325 25.026C5.11048 24.4222 4.01677 23.4621 3.2505 22.2585C2.48423 21.0548 2.07719 19.6576 2.07715 18.2308C2.07715 10.7308 16.5002 1.5 16.5002 1.5Z" stroke="#111827" stroke-width="2" stroke-linecap="round" stroke-linejoin="round"/>
</svg>
