<svg width="33" height="32" viewBox="0 0 33 32" fill="none" xmlns="http://www.w3.org/2000/svg">
<path d="M16.5002 1C16.5002 1 30.9233 10.2308 30.9233 17.7308C30.9233 19.1576 30.5162 20.5548 29.7499 21.7585C28.9837 22.9621 27.89 23.9222 26.5972 24.526C25.3044 25.1299 23.8662 25.3524 22.4514 25.1676C21.0366 24.9827 19.7039 24.3981 18.6096 23.4824L21.1156 31H11.8848L14.3908 23.4824C13.2966 24.3981 11.9639 24.9827 10.549 25.1676C9.13422 25.3524 7.69603 25.1299 6.40325 24.526C5.11048 23.9222 4.01677 22.9621 3.2505 21.7585C2.48423 20.5548 2.07719 19.1576 2.07715 17.7308C2.07715 10.2308 16.5002 1 16.5002 1Z" stroke="#111827" stroke-width="2" stroke-linecap="round" stroke-linejoin="round"/>
</svg>
