<svg width="33" height="33" viewBox="0 0 33 33" fill="none" xmlns="http://www.w3.org/2000/svg">
<path fill-rule="evenodd" clip-rule="evenodd" d="M22.6108 0.500732C23.1631 0.500732 23.6108 0.948448 23.6108 1.50073V3.8341H25.9439C26.4962 3.8341 26.9439 4.28182 26.9439 4.8341C26.9439 5.38639 26.4962 5.8341 25.9439 5.8341H23.6108V8.16702C23.6108 8.7193 23.1631 9.16702 22.6108 9.16702C22.0585 9.16702 21.6108 8.7193 21.6108 8.16702V5.8341H19.2776C18.7253 5.8341 18.2776 5.38639 18.2776 4.8341C18.2776 4.28182 18.7253 3.8341 19.2776 3.8341H21.6108V1.50073C21.6108 0.948448 22.0585 0.500732 22.6108 0.500732ZM30.2771 9.27811C30.2771 8.72583 29.8294 8.27811 29.2771 8.27811C28.7248 8.27811 28.2771 8.72583 28.2771 9.27811V10.5001H27.055C26.5027 10.5001 26.055 10.9478 26.055 11.5001C26.055 12.0524 26.5027 12.5001 27.055 12.5001H28.2771V13.7223C28.2771 14.2746 28.7248 14.7223 29.2771 14.7223C29.8294 14.7223 30.2771 14.2746 30.2771 13.7223V12.5001H31.4992C32.0515 12.5001 32.4992 12.0524 32.4992 11.5001C32.4992 10.9478 32.0515 10.5001 31.4992 10.5001H30.2771V9.27811ZM14.6602 6.70883C14.515 6.31639 14.1408 6.05586 13.7224 6.05586C13.3039 6.05586 12.9298 6.31639 12.7845 6.70883L9.64319 15.1982L1.15382 18.3395C0.761383 18.4848 0.500854 18.859 0.500854 19.2774C0.500854 19.6958 0.761383 20.07 1.15382 20.2152L9.64319 23.3566L12.7845 31.846C12.9298 32.2384 13.3039 32.4989 13.7224 32.4989C14.1408 32.4989 14.515 32.2384 14.6602 31.846L17.8016 23.3566L26.291 20.2152C26.6834 20.07 26.9439 19.6958 26.9439 19.2774C26.9439 18.859 26.6834 18.4848 26.291 18.3395L17.8016 15.1982L14.6602 6.70883ZM11.3593 16.3235L13.7224 9.93741L16.0855 16.3235C16.1867 16.5972 16.4026 16.813 16.6763 16.9143L23.0624 19.2774L16.6763 21.6405C16.4026 21.7418 16.1867 21.9576 16.0855 22.2313L13.7224 28.6174L11.3593 22.2313C11.258 21.9576 11.0422 21.7418 10.7685 21.6405L4.3824 19.2774L10.7685 16.9143C11.0422 16.813 11.258 16.5972 11.3593 16.3235Z" fill="#111827"/>
</svg>
