<svg width="33" height="35" viewBox="0 0 33 35" fill="none" xmlns="http://www.w3.org/2000/svg">
<path fill-rule="evenodd" clip-rule="evenodd" d="M23.7089 1.52979C23.7089 1.14507 23.4882 0.794456 23.1413 0.628105C22.7944 0.461755 22.3828 0.509169 22.0828 0.750042L10.4984 10.0515H8.21019C3.95298 10.0515 0.501831 13.5026 0.501831 17.7598C0.501831 22.0171 3.95298 25.4682 8.2102 25.4682H10.5137L22.1043 34.2668C22.4068 34.4964 22.8133 34.5349 23.1535 34.366C23.4937 34.1971 23.7089 33.8501 23.7089 33.4703V1.52979ZM8.2102 23.4682C5.05755 23.4682 2.50183 20.9125 2.50183 17.7598C2.50183 14.6072 5.05755 12.0515 8.21019 12.0515H10.8502C11.0779 12.0515 11.2988 11.9738 11.4763 11.8312L21.7089 3.61518V31.4557L11.4549 23.6717C11.2809 23.5397 11.0686 23.4682 10.8502 23.4682H8.2102ZM32.4982 13C32.4982 12.4477 32.0505 12 31.4982 12C30.9459 12 30.4982 12.4477 30.4982 13V22.0005C30.4982 22.5528 30.9459 23.0005 31.4982 23.0005C32.0505 23.0005 32.4982 22.5528 32.4982 22.0005V13Z" fill="#111827"/>
</svg>
