<svg width="33" height="33" viewBox="0 0 33 33" fill="none" xmlns="http://www.w3.org/2000/svg">
<path fill-rule="evenodd" clip-rule="evenodd" d="M20.1741 3.19093C20.1741 2.8062 19.9534 2.45559 19.6065 2.28924C19.2596 2.12289 18.848 2.1703 18.548 2.41117L8.93977 10.1259H7.09146C3.45164 10.1259 0.500977 13.0766 0.500977 16.7164C0.500977 20.3562 3.45164 23.3069 7.09146 23.3069H8.95499L18.5695 30.6054C18.872 30.835 19.2785 30.8734 19.6187 30.7046C19.9589 30.5357 20.1741 30.1887 20.1741 29.8089V3.19093ZM7.09146 21.3069C4.55621 21.3069 2.50098 19.2517 2.50098 16.7164C2.50098 14.1812 4.55621 12.1259 7.09146 12.1259H9.29156C9.51924 12.1259 9.74011 12.0482 9.91764 11.9057L18.1741 5.27631V27.7943L9.89619 21.5104C9.72227 21.3784 9.50991 21.3069 9.29156 21.3069H7.09146ZM31.4992 9.2494C32.0515 9.2494 32.4992 9.69711 32.4992 10.2494V22.7506C32.4992 23.3028 32.0515 23.7506 31.4992 23.7506C30.9469 23.7506 30.4992 23.3028 30.4992 22.7506V10.2494C30.4992 9.69711 30.9469 9.2494 31.4992 9.2494ZM26.4987 11.7497C27.051 11.7497 27.4987 12.1974 27.4987 12.7497V20.2504C27.4987 20.8027 27.051 21.2504 26.4987 21.2504C25.9465 21.2504 25.4987 20.8027 25.4987 20.2504V12.7497C25.4987 12.1974 25.9465 11.7497 26.4987 11.7497Z" fill="#111827"/>
</svg>
