<svg width="32" height="33" viewBox="0 0 32 33" fill="none" xmlns="http://www.w3.org/2000/svg">
<path d="M25.6362 10.7634C26.3856 11.5128 26.9801 12.4025 27.3857 13.3817C27.7913 14.3609 28 15.4103 28 16.4701C28 17.53 27.7913 18.5794 27.3857 19.5586C26.9801 20.5378 26.3856 21.4274 25.6362 22.1769" stroke="#1C1B1F" stroke-width="2" stroke-linecap="round" stroke-linejoin="round"/>
<path d="M6 5.5L26 27.5" stroke="#1C1B1F" stroke-width="2" stroke-linecap="round" stroke-linejoin="round"/>
<path d="M10.0688 12.3323L10.0688 20.9879" stroke="#1C1B1F" stroke-width="2" stroke-linecap="round" stroke-linejoin="round"/>
<path d="M22.4658 13.9338C22.7989 14.2669 23.0631 14.6623 23.2434 15.0975C23.4236 15.5327 23.5164 15.9991 23.5164 16.4702C23.5164 16.9412 23.4236 17.4076 23.2434 17.8428C23.0631 18.278 22.7989 18.6734 22.4658 19.0065" stroke="#1C1B1F" stroke-width="2" stroke-linecap="round" stroke-linejoin="round"/>
<path d="M11.9006 12.2012H8.47197C6.00217 12.2012 4 14.2033 4 16.6731V16.6731C4 19.1429 6.00217 21.1451 8.47197 21.1451H10.2319L18.1372 27.1461V19.5327M14.1845 9.02747L18.1372 5.85376V13.5267" stroke="#1C1B1F" stroke-width="2" stroke-linecap="round" stroke-linejoin="round"/>
</svg>
