<svg width="33" height="33" viewBox="0 0 33 33" fill="none" xmlns="http://www.w3.org/2000/svg">
<path fill-rule="evenodd" clip-rule="evenodd" d="M4.74101 2.0766C4.3695 1.66794 3.73705 1.63783 3.32839 2.00933C2.91974 2.38084 2.88962 3.01329 3.26113 3.42195L9.35601 10.1263H7.09128C3.45156 10.1263 0.500977 13.0769 0.500977 16.7166C0.500977 20.3563 3.45156 23.3069 7.09128 23.3069H8.95474L18.5689 30.6052C18.8714 30.8348 19.2779 30.8732 19.6182 30.7044C19.9584 30.5355 20.1735 30.1885 20.1735 29.8086V22.0256L28.2626 30.9236C28.6341 31.3323 29.2666 31.3624 29.6752 30.9909C30.0839 30.6194 30.114 29.9869 29.7425 29.5783L4.74101 2.0766ZM18.2493 19.9089L11.1742 12.1263H7.09128C4.55613 12.1263 2.50098 14.1815 2.50098 16.7166C2.50098 19.2518 4.55613 21.3069 7.09128 21.3069H9.29131C9.50966 21.3069 9.72202 21.3784 9.89594 21.5104L18.1735 27.794V20.2913C18.1735 20.1558 18.2005 20.0267 18.2493 19.9089ZM27.4988 12.7499C27.4988 12.1976 27.0511 11.7499 26.4988 11.7499C25.9465 11.7499 25.4988 12.1976 25.4988 12.7499V20.2503C25.4988 20.8026 25.9465 21.2503 26.4988 21.2503C27.0511 21.2503 27.4988 20.8026 27.4988 20.2503V12.7499ZM31.4991 9.24979C32.0514 9.24979 32.4991 9.6975 32.4991 10.2498V22.7505C32.4991 23.3028 32.0514 23.7505 31.4991 23.7505C30.9468 23.7505 30.4991 23.3028 30.4991 22.7505V10.2498C30.4991 9.6975 30.9468 9.24979 31.4991 9.24979ZM20.1735 3.19157C20.1735 2.80685 19.9528 2.45623 19.6059 2.28988C19.259 2.12353 18.8474 2.17095 18.5475 2.41182L13.6063 6.37919C13.1757 6.72497 13.1069 7.35439 13.4527 7.78503C13.7984 8.21568 14.4279 8.28448 14.8585 7.9387L18.1735 5.27696V12.7833C18.1735 13.3356 18.6213 13.7833 19.1735 13.7833C19.7258 13.7833 20.1735 13.3356 20.1735 12.7833V3.19157Z" fill="#111827"/>
</svg>
