<svg width="33" height="33" viewBox="0 0 33 33" fill="none" xmlns="http://www.w3.org/2000/svg">
<path fill-rule="evenodd" clip-rule="evenodd" d="M3.32803 2.0108C3.73669 1.63929 4.36913 1.66941 4.74064 2.07807L29.7391 29.5764C30.1106 29.985 30.0805 30.6175 29.6718 30.989C29.2632 31.3605 28.6307 31.3304 28.2592 30.9217L20.1713 22.025V29.8066C20.1713 30.1864 19.9561 30.5335 19.6159 30.7023C19.2757 30.8712 18.8692 30.8328 18.5666 30.6031L8.95367 23.3058H7.09048C3.45113 23.3058 0.500854 20.3555 0.500854 16.7162C0.500854 13.0768 3.45113 10.1266 7.09048 10.1266H9.35454L3.26076 3.42341C2.88925 3.01475 2.91937 2.38231 3.32803 2.0108ZM10.0864 12.1266H11.1727L18.2469 19.9082C18.1982 20.0259 18.1713 20.155 18.1713 20.2904V27.792L10.0864 21.6547V12.1266ZM8.08641 12.1266H7.09048C4.5557 12.1266 2.50085 14.1814 2.50085 16.7162C2.50085 19.251 4.5557 21.3058 7.09048 21.3058H8.08641V12.1266ZM27.8373 8.62241C28.2278 8.23188 28.861 8.23188 29.2515 8.62241C30.2811 9.65198 31.0978 10.8743 31.655 12.2195C32.2122 13.5647 32.499 15.0064 32.499 16.4625C32.499 17.9185 32.2122 19.3603 31.655 20.7055C31.0978 22.0507 30.2811 23.273 29.2515 24.3025C28.861 24.6931 28.2278 24.6931 27.8373 24.3025C27.4468 23.912 27.4468 23.2788 27.8373 22.8883C28.6812 22.0445 29.3505 21.0427 29.8072 19.9401C30.2639 18.8376 30.499 17.6559 30.499 16.4625C30.499 15.2691 30.2639 14.0874 29.8072 12.9848C29.3505 11.8823 28.6812 10.8805 27.8373 10.0366C27.4468 9.6461 27.4468 9.01293 27.8373 8.62241ZM23.8747 12.5853C24.2652 12.1947 24.8984 12.1947 25.2889 12.5853C25.7981 13.0944 26.202 13.6989 26.4775 14.3642C26.7531 15.0295 26.8949 15.7425 26.8949 16.4626C26.8949 17.1827 26.7531 17.8957 26.4775 18.561C26.202 19.2262 25.7981 19.8307 25.2889 20.3399C24.8984 20.7304 24.2652 20.7304 23.8747 20.3399C23.4842 19.9494 23.4842 19.3162 23.8747 18.9257C24.1981 18.6022 24.4547 18.2182 24.6298 17.7956C24.8048 17.373 24.8949 16.92 24.8949 16.4626C24.8949 16.0051 24.8048 15.5522 24.6298 15.1296C24.4547 14.7069 24.1982 14.3229 23.8747 13.9995C23.4842 13.609 23.4842 12.9758 23.8747 12.5853ZM20.1713 3.19279C20.1713 2.80807 19.9506 2.45746 19.6037 2.29111C19.2567 2.12476 18.8452 2.17217 18.5452 2.41304L13.6047 6.37993C13.174 6.72571 13.1052 7.35512 13.451 7.78577C13.7968 8.21642 14.4262 8.28521 14.8568 7.93944L18.1713 5.27818V12.7834C18.1713 13.3357 18.619 13.7834 19.1713 13.7834C19.7236 13.7834 20.1713 13.3357 20.1713 12.7834V3.19279Z" fill="#111827"/>
</svg>
