<svg width="33" height="33" viewBox="0 0 33 33" fill="none" xmlns="http://www.w3.org/2000/svg">
<path fill-rule="evenodd" clip-rule="evenodd" d="M20.1713 3.19312C20.1713 2.8084 19.9505 2.45779 19.6036 2.29144C19.2567 2.12509 18.8452 2.1725 18.5452 2.41337L8.93845 10.1269H7.09047C3.45113 10.1269 0.500854 13.0772 0.500854 16.7165C0.500854 20.3559 3.45113 23.3061 7.09047 23.3061H8.95367L18.5666 30.6035C18.8691 30.8331 19.2757 30.8715 19.6159 30.7027C19.9561 30.5338 20.1713 30.1868 20.1713 29.8069V3.19312ZM7.09047 21.3061C4.5557 21.3061 2.50085 19.2513 2.50085 16.7165C2.50085 14.1817 4.5557 12.1269 7.09047 12.1269H9.29023C9.51792 12.1269 9.73878 12.0492 9.91632 11.9067L18.1713 5.27851V27.7923L9.89487 21.5096C9.72095 21.3776 9.50859 21.3061 9.29023 21.3061H7.09047ZM32.2061 12.6682C32.5966 13.0587 32.5966 13.6919 32.2061 14.0824L29.7884 16.5001L32.2061 18.9178C32.5966 19.3083 32.5966 19.9415 32.2061 20.332C31.8156 20.7225 31.1824 20.7225 30.7919 20.332L28.3742 17.9143L25.9565 20.332C25.5659 20.7225 24.9328 20.7225 24.5423 20.332C24.1517 19.9415 24.1517 19.3083 24.5423 18.9178L26.96 16.5001L24.5423 14.0824C24.1517 13.6919 24.1517 13.0587 24.5423 12.6682C24.9328 12.2776 25.5659 12.2776 25.9565 12.6682L28.3742 15.0859L30.7919 12.6682C31.1824 12.2776 31.8156 12.2776 32.2061 12.6682Z" fill="#111827"/>
</svg>
