<svg width="33" height="33" viewBox="0 0 33 33" fill="none" xmlns="http://www.w3.org/2000/svg">
<path fill-rule="evenodd" clip-rule="evenodd" d="M20.1713 3.19312C20.1713 2.8084 19.9506 2.45779 19.6037 2.29144C19.2567 2.12509 18.8452 2.1725 18.5452 2.41337L8.93845 10.1269H7.09048C3.45113 10.1269 0.500854 13.0772 0.500854 16.7165C0.500854 20.3559 3.45113 23.3062 7.09048 23.3062H8.95367L18.5666 30.6035C18.8692 30.8331 19.2757 30.8716 19.6159 30.7027C19.9561 30.5338 20.1713 30.1868 20.1713 29.807V3.19312ZM7.09048 21.3062C4.5557 21.3062 2.50085 19.2513 2.50085 16.7165C2.50085 14.1817 4.5557 12.1269 7.09048 12.1269H8.08641V21.3062H7.09048ZM10.0864 21.655L18.1713 27.7924V5.27851L10.0864 11.7701V21.655ZM29.2515 8.62274C28.861 8.23222 28.2278 8.23222 27.8373 8.62274C27.4468 9.01326 27.4468 9.64643 27.8373 10.037C28.6812 10.8808 29.3505 11.8826 29.8072 12.9852C30.2639 14.0877 30.499 15.2694 30.499 16.4628C30.499 17.6562 30.2639 18.8379 29.8072 19.9404C29.3505 21.043 28.6812 22.0448 27.8373 22.8887C27.4468 23.2792 27.4468 23.9123 27.8373 24.3029C28.2278 24.6934 28.861 24.6934 29.2515 24.3029C30.2811 23.2733 31.0978 22.051 31.655 20.7058C32.2122 19.3606 32.499 17.9188 32.499 16.4628C32.499 15.0068 32.2122 13.565 31.655 12.2198C31.0978 10.8746 30.2811 9.65231 29.2515 8.62274ZM23.8747 12.5856C24.2652 12.1951 24.8984 12.1951 25.2889 12.5856C25.7981 13.0948 26.202 13.6993 26.4775 14.3645C26.7531 15.0298 26.8949 15.7428 26.8949 16.4629C26.8949 17.183 26.7531 17.896 26.4775 18.5613C26.202 19.2266 25.7981 19.831 25.2889 20.3402C24.8984 20.7307 24.2652 20.7307 23.8747 20.3402C23.4842 19.9497 23.4842 19.3165 23.8747 18.926C24.1981 18.6025 24.4547 18.2185 24.6298 17.7959C24.8048 17.3733 24.8949 16.9203 24.8949 16.4629C24.8949 16.0055 24.8048 15.5525 24.6298 15.1299C24.4547 14.7073 24.1982 14.3233 23.8747 13.9998C23.4842 13.6093 23.4842 12.9761 23.8747 12.5856Z" fill="#111827"/>
</svg>
