<svg width="33" height="32" viewBox="0 0 33 32" fill="none" xmlns="http://www.w3.org/2000/svg">
<path fill-rule="evenodd" clip-rule="evenodd" d="M16.5 0.000854492C17.0523 0.000854492 17.5 0.44857 17.5 1.00085V6.00055C17.5 6.55284 17.0523 7.00055 16.5 7.00055C15.9477 7.00055 15.5 6.55284 15.5 6.00055V1.00085C15.5 0.44857 15.9477 0.000854492 16.5 0.000854492ZM25.4994 16.0001C25.4994 15.4478 25.9471 15.0001 26.4994 15.0001H31.4991C32.0514 15.0001 32.4991 15.4478 32.4991 16.0001C32.4991 16.5523 32.0514 17.0001 31.4991 17.0001H26.4994C25.9471 17.0001 25.4994 16.5523 25.4994 16.0001ZM24.2778 22.3635C23.8872 21.973 23.2541 21.973 22.8635 22.3635C22.473 22.754 22.473 23.3872 22.8635 23.7777L26.3989 27.313C26.7894 27.7036 27.4226 27.7036 27.8131 27.313C28.2036 26.9225 28.2036 26.2894 27.8131 25.8988L24.2778 22.3635ZM16.5 24.9993C17.0523 24.9993 17.5 25.447 17.5 25.9993V30.999C17.5 31.5513 17.0523 31.999 16.5 31.999C15.9477 31.999 15.5 31.5513 15.5 30.999V25.9993C15.5 25.447 15.9477 24.9993 16.5 24.9993ZM10.1365 23.7777C10.527 23.3872 10.527 22.754 10.1365 22.3635C9.74594 21.973 9.11278 21.973 8.72225 22.3635L5.18693 25.8988C4.79641 26.2894 4.7964 26.9225 5.18693 27.313C5.57745 27.7036 6.21062 27.7036 6.60114 27.313L10.1365 23.7777ZM0.500916 16.0001C0.500916 15.4478 0.948631 15.0001 1.50092 15.0001H6.50062C7.0529 15.0001 7.50062 15.4478 7.50062 16.0001C7.50062 16.5523 7.0529 17.0001 6.50062 17.0001H1.50092C0.948631 17.0001 0.500916 16.5523 0.500916 16.0001ZM6.60114 4.68705C6.21062 4.29653 5.57745 4.29653 5.18693 4.68705C4.79641 5.07758 4.79641 5.71074 5.18693 6.10126L8.72225 9.63659C9.11278 10.0271 9.74594 10.0271 10.1365 9.63659C10.527 9.24606 10.527 8.6129 10.1365 8.22237L6.60114 4.68705Z" fill="#111827"/>
</svg>
