<svg width="33" height="32" viewBox="0 0 33 32" fill="none" xmlns="http://www.w3.org/2000/svg">
<path d="M15.9 16.6C16.2183 16.6 16.5235 16.7264 16.7485 16.9514C16.9736 17.1765 17.1 17.4817 17.1 17.8C17.1 18.4365 16.8471 19.0469 16.3971 19.497C15.947 19.9471 15.3365 20.2 14.7 20.2C14.2267 20.2019 13.7577 20.1102 13.32 19.93C12.8823 19.7497 12.4847 19.4846 12.15 19.15C11.8153 18.8153 11.5502 18.4176 11.37 17.98C11.1898 17.5423 11.098 17.0733 11.1 16.6C11.1 15.3269 11.6057 14.106 12.5059 13.2058C13.4061 12.3057 14.627 11.8 15.9 11.8C17.4913 11.8 19.0174 12.4321 20.1426 13.5573C21.2679 14.6825 21.9 16.2087 21.9 17.8C21.9 19.7095 21.1414 21.5409 19.7912 22.8911C18.4409 24.2414 16.6096 25 14.7 25C12.4722 25 10.3356 24.115 8.7603 22.5396C7.185 20.9643 6.3 18.8278 6.3 16.6C6.30397 14.0551 7.31667 11.6156 9.11616 9.81611C10.9156 8.01662 13.3551 7.00392 15.9 6.99995C18.7643 6.99995 21.5114 8.13781 23.5368 10.1632C25.5621 12.1886 26.7 14.9356 26.7 17.8C26.7 19.3758 26.3896 20.9362 25.7866 22.3922C25.1835 23.8481 24.2996 25.1709 23.1853 26.2852C22.071 27.3995 20.7481 28.2835 19.2922 28.8865C17.8363 29.4896 16.2759 29.8 14.7 29.8C11.1991 29.8 7.84167 28.4092 5.36619 25.9338C2.89071 23.4583 1.5 20.1008 1.5 16.6C1.5 12.7808 3.01714 9.11814 5.71766 6.41761C8.41819 3.71709 12.0809 2.19995 15.9 2.19995C17.9486 2.19995 19.9772 2.60346 21.8699 3.38743C23.7625 4.1714 25.4823 5.32049 26.9309 6.76909C28.3795 8.21768 29.5285 9.93741 30.3125 11.8301C31.0965 13.7228 31.5 15.7513 31.5 17.8" stroke="#111827" stroke-width="2" stroke-linecap="round" stroke-linejoin="round"/>
</svg>
