<svg width="32" height="32" viewBox="0 0 32 32" fill="none" xmlns="http://www.w3.org/2000/svg">
<path d="M15.52 16.48C15.7746 16.48 16.0188 16.5811 16.1988 16.7611C16.3789 16.9412 16.48 17.1854 16.48 17.44C16.48 17.9492 16.2777 18.4375 15.9176 18.7976C15.5576 19.1577 15.0692 19.36 14.56 19.36C14.1813 19.3615 13.8061 19.2881 13.456 19.144C13.1059 18.9998 12.7877 18.7877 12.52 18.52C12.2522 18.2522 12.0402 17.9341 11.896 17.584C11.7518 17.2338 11.6784 16.8586 11.68 16.48C11.68 15.4615 12.0846 14.4848 12.8047 13.7647C13.5248 13.0445 14.5016 12.64 15.52 12.64C16.793 12.64 18.0139 13.1457 18.9141 14.0458C19.8143 14.946 20.32 16.1669 20.32 17.44C20.32 18.9676 19.7131 20.4327 18.6329 21.5129C17.5527 22.5931 16.0876 23.2 14.56 23.2C12.7777 23.2 11.0685 22.492 9.80824 21.2317C8.548 19.9715 7.84 18.2622 7.84 16.48C7.84317 14.4441 8.65333 12.4925 10.0929 11.0529C11.5325 9.61329 13.4841 8.80313 15.52 8.79996C17.8115 8.79996 20.0091 9.71024 21.6294 11.3306C23.2497 12.9509 24.16 15.1485 24.16 17.44C24.16 18.7007 23.9117 19.949 23.4292 21.1137C22.9468 22.2784 22.2397 23.3367 21.3482 24.2282C20.4568 25.1196 19.3985 25.8268 18.2338 26.3092C17.069 26.7916 15.8207 27.04 14.56 27.04C11.7593 27.04 9.07334 25.9274 7.09295 23.947C5.11257 21.9666 4 19.2806 4 16.48C4 13.4247 5.21371 10.4945 7.37413 8.33409C9.53455 6.17367 12.4647 4.95996 15.52 4.95996C17.1589 4.95996 18.7817 5.28277 20.2959 5.90994C21.81 6.53712 23.1858 7.45639 24.3447 8.61527C25.5036 9.77414 26.4228 11.1499 27.05 12.6641C27.6772 14.1782 28 15.8011 28 17.44" stroke="#1C1B1F" stroke-width="2" stroke-linecap="round" stroke-linejoin="round"/>
</svg>
