<svg width="33" height="33" viewBox="0 0 33 33" fill="none" xmlns="http://www.w3.org/2000/svg">
<path d="M15.9 17.1C16.2183 17.1 16.5235 17.2264 16.7485 17.4514C16.9736 17.6765 17.1 17.9817 17.1 18.3C17.1 18.9365 16.8471 19.5469 16.3971 19.997C15.947 20.4471 15.3365 20.7 14.7 20.7C14.2267 20.7019 13.7577 20.6102 13.32 20.43C12.8823 20.2497 12.4847 19.9846 12.15 19.65C11.8153 19.3153 11.5502 18.9176 11.37 18.48C11.1898 18.0423 11.098 17.5733 11.1 17.1C11.1 15.8269 11.6057 14.606 12.5059 13.7058C13.4061 12.8057 14.627 12.3 15.9 12.3C17.4913 12.3 19.0174 12.9321 20.1426 14.0573C21.2679 15.1825 21.9 16.7087 21.9 18.3C21.9 20.2095 21.1414 22.0409 19.7912 23.3911C18.4409 24.7414 16.6096 25.5 14.7 25.5C12.4722 25.5 10.3356 24.615 8.7603 23.0396C7.185 21.4643 6.3 19.3278 6.3 17.1C6.30397 14.5551 7.31667 12.1156 9.11616 10.3161C10.9156 8.51662 13.3551 7.50392 15.9 7.49995C18.7643 7.49995 21.5114 8.63781 23.5368 10.6632C25.5621 12.6886 26.7 15.4356 26.7 18.3C26.7 19.8758 26.3896 21.4362 25.7866 22.8922C25.1835 24.3481 24.2996 25.6709 23.1853 26.7852C22.071 27.8995 20.7481 28.7835 19.2922 29.3865C17.8363 29.9896 16.2759 30.3 14.7 30.3C11.1991 30.3 7.84167 28.9092 5.36619 26.4338C2.89071 23.9583 1.5 20.6008 1.5 17.1C1.5 13.2808 3.01714 9.61814 5.71766 6.91761C8.41819 4.21709 12.0809 2.69995 15.9 2.69995C17.9486 2.69995 19.9772 3.10346 21.8699 3.88743C23.7625 4.6714 25.4823 5.82049 26.9309 7.26909C28.3795 8.71768 29.5285 10.4374 30.3125 12.3301C31.0965 14.2228 31.5 16.2513 31.5 18.3" stroke="#111827" stroke-width="2" stroke-linecap="round" stroke-linejoin="round"/>
</svg>
