<svg width="32" height="32" viewBox="0 0 32 32" fill="none" xmlns="http://www.w3.org/2000/svg">
<path d="M16 28C22.6274 28 28 22.6274 28 16C28 9.37258 22.6274 4 16 4C9.37258 4 4 9.37258 4 16C4 22.6274 9.37258 28 16 28Z" stroke="#1C1B1F" stroke-width="2" stroke-linecap="round" stroke-linejoin="round"/>
<path d="M22.3917 13.5412C20.4115 12.5272 18.2184 11.9989 15.9936 12C13.7688 12.0011 11.5762 12.5314 9.59692 13.5472" stroke="#1C1B1F" stroke-width="2" stroke-linecap="round" stroke-linejoin="round"/>
<path d="M20.5369 17.0893C19.1297 16.3723 17.5727 15.999 15.9934 16C14.4141 16.001 12.8576 16.3764 11.4514 17.0952" stroke="#1C1B1F" stroke-width="2" stroke-linecap="round" stroke-linejoin="round"/>
<path d="M18.684 20.6341C17.8488 20.2161 16.9275 19.999 15.9935 20C15.0596 20.001 14.1387 20.2202 13.3044 20.64" stroke="#1C1B1F" stroke-width="2" stroke-linecap="round" stroke-linejoin="round"/>
</svg>
