<svg width="33" height="32" viewBox="0 0 33 32" fill="none" xmlns="http://www.w3.org/2000/svg">
<path fill-rule="evenodd" clip-rule="evenodd" d="M16.5 -0.000488281C17.0523 -0.000488281 17.5 0.447227 17.5 0.999512V2.86437H18.4099C19.1683 2.86437 19.9192 3.01374 20.6198 3.30394C21.3204 3.59415 21.957 4.01951 22.4932 4.55573C23.0295 5.09196 23.4548 5.72856 23.745 6.42917C24.0352 7.12979 24.1846 7.8807 24.1846 8.63904C24.1846 9.19133 23.7369 9.63904 23.1846 9.63904C22.6323 9.63904 22.1846 9.19133 22.1846 8.63904C22.1846 8.14335 22.087 7.6525 21.8973 7.19454C21.7076 6.73658 21.4295 6.32046 21.079 5.96995C20.7285 5.61944 20.3124 5.3414 19.8544 5.1517C19.3965 4.96201 18.9056 4.86437 18.4099 4.86437H17.5V12.4137H19.3649C20.8964 12.4137 22.3652 13.0221 23.4482 14.1051C24.5311 15.188 25.1395 16.6569 25.1395 18.1884C25.1395 19.7199 24.5311 21.1887 23.4482 22.2717C22.3652 23.3547 20.8964 23.9631 19.3649 23.9631H17.5V28.5861L20.5288 25.5574C20.9193 25.1669 21.5525 25.1669 21.943 25.5574C22.3335 25.9479 22.3335 26.5811 21.943 26.9716L17.2111 31.7035C17.1967 31.7181 17.1818 31.7322 17.1665 31.7459C17.0895 31.8148 17.0044 31.8698 16.9145 31.9107C16.7882 31.9683 16.6479 32.0004 16.5 32.0004C16.346 32.0004 16.2002 31.9656 16.0699 31.9034C15.9947 31.8676 15.923 31.8218 15.8569 31.7662C15.8326 31.7457 15.8092 31.7241 15.787 31.7015L11.0571 26.9716C10.6666 26.5811 10.6666 25.9479 11.0571 25.5574C11.4476 25.1669 12.0808 25.1669 12.4713 25.5574L15.5 28.5861V23.9631H13.6353C12.1037 23.9631 10.6349 23.3547 9.55196 22.2717C8.469 21.1887 7.8606 19.7199 7.8606 18.1884C7.8606 17.6361 8.30831 17.1884 8.8606 17.1884C9.41288 17.1884 9.8606 17.6361 9.8606 18.1884C9.8606 19.1895 10.2583 20.1496 10.9662 20.8575C11.6741 21.5654 12.6342 21.9631 13.6353 21.9631H15.5V14.4137H14.1127C12.5812 14.4137 11.1124 13.8053 10.0294 12.7224C8.94646 11.6394 8.33806 10.1706 8.33806 8.63904C8.33806 7.10751 8.94646 5.6387 10.0294 4.55573C11.1124 3.47277 12.5812 2.86437 14.1127 2.86437H15.5V0.999512C15.5 0.447227 15.9477 -0.000488281 16.5 -0.000488281ZM14.1127 4.86437H15.5V12.4137H14.1127C13.1116 12.4137 12.1515 12.016 11.4436 11.3081C10.7358 10.6003 10.3381 9.64015 10.3381 8.63904C10.3381 7.63794 10.7358 6.67784 11.4436 5.96995C12.1515 5.26206 13.1116 4.86437 14.1127 4.86437ZM19.3649 21.9631H17.5V14.4137H19.3649C20.366 14.4137 21.3261 14.8114 22.034 15.5193C22.7419 16.2272 23.1395 17.1873 23.1395 18.1884C23.1395 19.1895 22.7419 20.1496 22.034 20.8575C21.3261 21.5654 20.366 21.9631 19.3649 21.9631Z" fill="#111827"/>
</svg>
