<svg width="33" height="33" viewBox="0 0 33 33" fill="none" xmlns="http://www.w3.org/2000/svg">
<path fill-rule="evenodd" clip-rule="evenodd" d="M1.50098 0.250854C0.948692 0.250854 0.500977 0.69857 0.500977 1.25085V16.25V31.249C0.500977 31.8013 0.948692 32.249 1.50098 32.249H6.48589C6.4908 32.249 6.49573 32.2491 6.50066 32.2491C6.50559 32.2491 6.51051 32.249 6.51542 32.249H11.4856C11.4905 32.249 11.4954 32.2491 11.5003 32.2491C11.5053 32.2491 11.5102 32.249 11.5151 32.249H16.4853C16.4902 32.249 16.4951 32.2491 16.5 32.2491C16.5049 32.2491 16.5099 32.249 16.5148 32.249H21.4849C21.4898 32.249 21.4948 32.2491 21.4997 32.2491C21.5046 32.2491 21.5096 32.249 21.5145 32.249H26.4846C26.4895 32.249 26.4944 32.2491 26.4994 32.2491C26.5043 32.2491 26.5092 32.249 26.5141 32.249H31.4991C32.0514 32.249 32.4991 31.8013 32.4991 31.249V16.25V1.25085C32.4991 0.69857 32.0514 0.250854 31.4991 0.250854H1.50098ZM30.4991 15.25V2.25085H2.50098V15.25H6.50066H11.5003H16.5H21.4997H26.4994H30.4991ZM2.50098 17.25V30.249H5.50066V17.25H2.50098ZM7.50066 30.249H10.5003V17.25H7.50066V30.249ZM12.5003 30.249H15.5V17.25H12.5003V30.249ZM17.5 30.249H20.4997V17.25H17.5V30.249ZM22.4997 30.249H25.4994V17.25H22.4997V30.249ZM27.4994 30.249V17.25H30.4991V30.249H27.4994Z" fill="#111827"/>
</svg>
