<svg width="33" height="32" viewBox="0 0 33 32" fill="none" xmlns="http://www.w3.org/2000/svg">
<path fill-rule="evenodd" clip-rule="evenodd" d="M1.50098 0.000854492C0.948692 0.000854492 0.500977 0.44857 0.500977 1.00085V30.999C0.500977 31.5513 0.948692 31.999 1.50098 31.999H31.4991C32.0514 31.999 32.4991 31.5513 32.4991 30.999V1.00085C32.4991 0.44857 32.0514 0.000854492 31.4991 0.000854492H1.50098ZM2.50098 29.999V2.00085H30.4991V29.999H2.50098ZM10.55 9.0499C9.99774 9.0499 9.55002 9.49762 9.55002 10.0499V21.95C9.55002 22.5023 9.99774 22.95 10.55 22.95H22.4501C23.0024 22.95 23.4501 22.5023 23.4501 21.95V10.0499C23.4501 9.49762 23.0024 9.0499 22.4501 9.0499H10.55ZM11.55 20.95V11.0499H21.4501V20.95H11.55Z" fill="#111827"/>
</svg>
