<svg width="33" height="32" viewBox="0 0 33 32" fill="none" xmlns="http://www.w3.org/2000/svg">
<path fill-rule="evenodd" clip-rule="evenodd" d="M1.50098 0.0111084C0.948692 0.0111084 0.500977 0.458824 0.500977 1.01111V30.9888C0.500977 31.5411 0.948692 31.9888 1.50098 31.9888H31.4991C32.0514 31.9888 32.4991 31.5411 32.4991 30.9888V1.01111C32.4991 0.458824 32.0514 0.0111084 31.4991 0.0111084H16.5H1.50098ZM15.5 2.01111H2.50098V29.9888H15.5V26.0105L15.5 26.0095L15.5 26.0085L15.5 21.0106V21.0098V21.009V16.011V16.0103V16.0096V11.0111V11.0105V11.0098V6.01136V6.01079V6.01022V2.01111ZM17.5 29.9888H30.4991V27.0095H17.5V29.9888ZM30.4991 25.0095V22.0098H17.5V25.0095H30.4991ZM30.4991 20.0098V17.0103H17.5V20.0098H30.4991ZM30.4991 15.0103V12.0105H17.5V15.0103H30.4991ZM30.4991 10.0105V7.01079H17.5V10.0105H30.4991ZM30.4991 5.01079H17.5V2.01111H30.4991V5.01079Z" fill="#111827"/>
</svg>
