<svg width="33" height="32" viewBox="0 0 33 32" fill="none" xmlns="http://www.w3.org/2000/svg">
<path fill-rule="evenodd" clip-rule="evenodd" d="M1.50098 0.000732422C0.948692 0.000732422 0.500977 0.448448 0.500977 1.00073V13.0001C0.500977 13.5524 0.948692 14.0001 1.50098 14.0001H13.5003C14.0526 14.0001 14.5003 13.5524 14.5003 13.0001V1.00073C14.5003 0.448448 14.0526 0.000732422 13.5003 0.000732422H1.50098ZM2.50098 12.0001V2.00073H12.5003V12.0001H2.50098ZM1.50098 17.9998C0.948692 17.9998 0.500977 18.4475 0.500977 18.9998V30.9992C0.500977 31.5515 0.948692 31.9992 1.50098 31.9992H13.5003C14.0526 31.9992 14.5003 31.5515 14.5003 30.9992V18.9998C14.5003 18.4475 14.0526 17.9998 13.5003 17.9998H1.50098ZM2.50098 29.9992V19.9998H12.5003V29.9992H2.50098ZM18.4997 1.00073C18.4997 0.448448 18.9474 0.000732422 19.4997 0.000732422H31.4991C32.0513 0.000732422 32.4991 0.448448 32.4991 1.00073V13.0001C32.4991 13.5524 32.0513 14.0001 31.4991 14.0001H19.4997C18.9474 14.0001 18.4997 13.5524 18.4997 13.0001V1.00073ZM20.4997 2.00073V12.0001H30.4991V2.00073H20.4997ZM19.4997 17.9998C18.9474 17.9998 18.4997 18.4475 18.4997 18.9998V30.9992C18.4997 31.5515 18.9474 31.9992 19.4997 31.9992H31.4991C32.0513 31.9992 32.4991 31.5515 32.4991 30.9992V18.9998C32.4991 18.4475 32.0513 17.9998 31.4991 17.9998H19.4997ZM20.4997 29.9992V19.9998H30.4991V29.9992H20.4997Z" fill="#111827"/>
</svg>
