<svg width="33" height="32" viewBox="0 0 33 32" fill="none" xmlns="http://www.w3.org/2000/svg">
<path fill-rule="evenodd" clip-rule="evenodd" d="M19.0173 0.293748C19.4078 -0.0967766 20.0409 -0.0967766 20.4315 0.293748L29.6329 9.49514C30.0234 9.88566 30.0234 10.5188 29.6329 10.9094C29.2423 11.2999 28.6092 11.2999 28.2186 10.9094L19.0173 1.70796C18.6267 1.31744 18.6267 0.684272 19.0173 0.293748ZM14.9316 7.00728C14.4533 6.73119 13.8417 6.89514 13.5656 7.37346C13.2895 7.85178 13.4534 8.46336 13.9318 8.73944L25.2177 15.2537C25.696 15.5298 26.3076 15.3658 26.5837 14.8875C26.8598 14.4092 26.6958 13.7976 26.2175 13.5215L14.9316 7.00728ZM10.1595 15.627C10.3026 15.0935 10.851 14.777 11.3844 14.9201L23.9569 18.2912C24.4904 18.4342 24.8068 18.9826 24.6638 19.5161C24.5208 20.0495 23.9724 20.366 23.4389 20.223L10.8664 16.8518C10.333 16.7088 10.0165 16.1604 10.1595 15.627ZM8.98546 24.4848C8.98546 23.9325 9.43318 23.4848 9.98546 23.4848H23.014C23.5663 23.4848 24.014 23.9325 24.014 24.4848C24.014 25.0371 23.5663 25.4848 23.014 25.4848H9.98546C9.43318 25.4848 8.98546 25.0371 8.98546 24.4848ZM4.47144 21.8791C4.47144 21.3268 4.02372 20.8791 3.47144 20.8791C2.91915 20.8791 2.47144 21.3268 2.47144 21.8791V30.9991C2.47144 31.5514 2.91915 31.9991 3.47144 31.9991H29.5285C30.0807 31.9991 30.5285 31.5514 30.5285 30.9991V21.8791C30.5285 21.3268 30.0807 20.8791 29.5285 20.8791C28.9762 20.8791 28.5285 21.3268 28.5285 21.8791V29.9991H4.47144V21.8791Z" fill="#111827"/>
</svg>
