<svg width="33" height="32" viewBox="0 0 33 32" fill="none" xmlns="http://www.w3.org/2000/svg">
<path fill-rule="evenodd" clip-rule="evenodd" d="M16.0115 0.12819C16.3149 -0.0415908 16.6847 -0.0415908 16.9882 0.12819L29.7811 7.28678C30.0929 7.46126 30.2879 7.78884 30.2926 8.14612C30.2974 8.50339 30.1112 8.83606 29.8041 9.01878L17.0112 16.632C16.6961 16.8195 16.3036 16.8195 15.9884 16.632L3.19554 9.01878C2.88849 8.83606 2.70227 8.50339 2.70703 8.14612C2.71179 7.78884 2.90681 7.46126 3.21862 7.28678L16.0115 0.12819ZM5.70714 8.1861L16.4998 14.6089L27.2925 8.1861L16.4998 2.14677L5.70714 8.1861ZM2.8476 15.2612C3.13004 14.7866 3.74374 14.6309 4.21834 14.9133L16.4998 22.2221L28.7813 14.9133C29.2559 14.6309 29.8696 14.7866 30.1521 15.2612C30.4345 15.7358 30.2787 16.3495 29.8041 16.632L17.0112 24.2452C16.6961 24.4327 16.3036 24.4327 15.9884 24.2452L3.19554 16.632C2.72094 16.3495 2.56516 15.7358 2.8476 15.2612ZM4.21834 22.5264C3.74374 22.244 3.13004 22.3998 2.8476 22.8744C2.56516 23.349 2.72094 23.9627 3.19554 24.2451L15.9884 31.8583C16.3036 32.0459 16.6961 32.0459 17.0112 31.8583L29.8041 24.2451C30.2787 23.9627 30.4345 23.349 30.1521 22.8744C29.8696 22.3998 29.2559 22.244 28.7813 22.5264L16.4998 29.8353L4.21834 22.5264Z" fill="#111827"/>
</svg>
