<svg width="33" height="32" viewBox="0 0 33 32" fill="none" xmlns="http://www.w3.org/2000/svg">
<path fill-rule="evenodd" clip-rule="evenodd" d="M16.9884 2.00478C16.685 1.835 16.3152 1.835 16.0117 2.00478L1.01281 10.3978C0.701003 10.5723 0.505981 10.8999 0.50122 11.2571C0.496459 11.6144 0.682682 11.9471 0.989728 12.1298L15.9887 21.0558C16.3038 21.2434 16.6963 21.2434 17.0115 21.0558L32.0104 12.1298C32.3174 11.9471 32.5037 11.6144 32.4989 11.2571C32.4941 10.8999 32.2991 10.5723 31.9873 10.3978L16.9884 2.00478ZM16.5001 19.0328L3.50133 11.2971L16.5001 4.02336L29.4988 11.2971L16.5001 19.0328ZM2.01253 19.3372C1.53793 19.0547 0.92423 19.2105 0.64179 19.6851C0.35935 20.1597 0.515127 20.7734 0.989729 21.0558L15.9887 29.9819C16.3038 30.1694 16.6963 30.1694 17.0115 29.9819L32.0104 21.0558C32.485 20.7734 32.6408 20.1597 32.3583 19.6851C32.0759 19.2105 31.4622 19.0547 30.9876 19.3372L16.5001 27.9588L2.01253 19.3372Z" fill="#111827"/>
</svg>
