<svg width="33" height="33" viewBox="0 0 33 33" fill="none" xmlns="http://www.w3.org/2000/svg">
<path fill-rule="evenodd" clip-rule="evenodd" d="M12.233 4.67439C11.9629 3.42814 12.9125 2.25085 14.1876 2.25085H19.3822C20.6904 2.25085 21.6464 3.48606 21.3183 4.75244L18.1951 16.808H14.8621L12.233 4.67439ZM14.0345 18.808C14.0478 18.8083 14.0612 18.8083 14.0746 18.808H18.948C18.9625 18.8083 18.9769 18.8083 18.9913 18.808H28.9409V25.3614H4.05884V18.808H14.0345ZM12.8157 16.808L10.2783 5.09792C9.73826 2.60543 11.6373 0.250854 14.1876 0.250854H19.3822C21.9986 0.250854 23.9105 2.72127 23.2544 5.25402L20.2611 16.808H29.9409C30.4932 16.808 30.9409 17.2557 30.9409 17.808V26.3614C30.9409 26.9137 30.4932 27.3614 29.9409 27.3614H3.05884C2.50655 27.3614 2.05884 26.9137 2.05884 26.3614V17.808C2.05884 17.2557 2.50655 16.808 3.05884 16.808H12.8157ZM2.05884 31.249C2.05884 30.6967 2.50655 30.249 3.05884 30.249H29.9409C30.4932 30.249 30.9409 30.6967 30.9409 31.249C30.9409 31.8013 30.4932 32.249 29.9409 32.249H3.05884C2.50655 32.249 2.05884 31.8013 2.05884 31.249Z" fill="#111827"/>
</svg>
