<svg width="33" height="32" viewBox="0 0 33 32" fill="none" xmlns="http://www.w3.org/2000/svg">
<path fill-rule="evenodd" clip-rule="evenodd" d="M11.286 13.132L15.5619 5.43155V22.8992L9.10832 27.588L11.6834 19.6627C11.8173 19.2507 11.6706 18.7993 11.3201 18.5447L4.57848 13.6466H10.4118C10.775 13.6466 11.1097 13.4496 11.286 13.132ZM16.4998 24.6899L7.79399 31.015C7.44351 31.2697 6.96891 31.2697 6.61842 31.015C6.26793 30.7604 6.12128 30.309 6.25515 29.897L9.55677 19.7357L0.913015 13.4556C0.562528 13.201 0.41587 12.7496 0.549744 12.3376C0.683618 11.9255 1.06757 11.6466 1.5008 11.6466H9.82323L15.5635 1.3088C15.7568 0.960659 16.1272 0.773038 16.4998 0.795945C16.5563 0.79247 16.6128 0.79384 16.6686 0.799878C16.8136 0.815266 16.9494 0.861657 17.0692 0.932298C17.1891 1.00275 17.2957 1.09899 17.3795 1.2184C17.4038 1.25281 17.426 1.28882 17.4458 1.32625L18.9426 4.02188C19.2108 4.50472 19.0367 5.11349 18.5538 5.3816C18.2332 5.55965 17.857 5.54268 17.5619 5.36976V22.9894L19.4576 24.3667C19.9044 24.6913 20.0034 25.3167 19.6788 25.7635C19.3542 26.2103 18.7288 26.3093 18.282 25.9847L16.4998 24.6899ZM21.9556 9.44804C21.6875 8.9652 21.0788 8.79113 20.5959 9.05923C20.1131 9.32734 19.939 9.93611 20.2071 10.4189L21.7136 13.132C21.8899 13.4496 22.2246 13.6466 22.5879 13.6466H24.8156C25.3679 13.6466 25.8156 13.1989 25.8156 12.6466C25.8156 12.0943 25.3679 11.6466 24.8156 11.6466H23.1764L21.9556 9.44804ZM29.2711 11.6466C28.7188 11.6466 28.2711 12.0943 28.2711 12.6466C28.2711 12.9793 28.4336 13.2741 28.6836 13.4559L28.6032 13.5143C28.1564 13.839 28.0573 14.4643 28.3819 14.9111C28.7066 15.3579 29.3319 15.457 29.7787 15.1324L32.0866 13.4556C32.4371 13.201 32.5838 12.7496 32.4499 12.3376C32.316 11.9255 31.9321 11.6466 31.4988 11.6466H29.2711ZM25.163 18.4859C25.6098 18.1613 25.7088 17.5359 25.3842 17.0891C25.0596 16.6423 24.4342 16.5433 23.9874 16.8679L21.6795 18.5447C21.329 18.7993 21.1824 19.2507 21.3162 19.6627L22.1978 22.3758C22.3684 22.901 22.9326 23.1885 23.4578 23.0178C23.9831 22.8472 24.2705 22.283 24.0999 21.7578L23.4429 19.7357L25.163 18.4859ZM25.863 27.1839C25.6923 26.6587 25.1281 26.3712 24.6029 26.5419C24.1351 26.6939 23.8559 27.158 23.921 27.6288C23.4934 27.4214 22.9657 27.5435 22.6765 27.9415C22.3519 28.3883 22.451 29.0136 22.8978 29.3383L25.2056 31.015C25.5561 31.2697 26.0307 31.2697 26.3812 31.015C26.7317 30.7604 26.8784 30.309 26.7445 29.897L25.863 27.1839Z" fill="#111827"/>
</svg>
