<svg width="33" height="32" viewBox="0 0 33 32" fill="none" xmlns="http://www.w3.org/2000/svg">
<path fill-rule="evenodd" clip-rule="evenodd" d="M1.50098 0.000915527C0.948692 0.000915527 0.500977 0.448631 0.500977 1.00092V30.9991C0.500977 31.5514 0.948692 31.9991 1.50098 31.9991H18.0135C18.2772 31.9991 18.5302 31.8949 18.7175 31.7093L32.2031 18.3438C32.3926 18.1561 32.4991 17.9003 32.4991 17.6336V1.00092C32.4991 0.448631 32.0514 0.000915527 31.4991 0.000915527H1.50098ZM2.50098 29.9991V2.00092H30.4991V16.413C30.4011 16.3809 30.2964 16.3635 30.1877 16.3635H22.8636C19.5499 16.3635 16.8636 19.0498 16.8636 22.3635V29.75C16.8636 29.836 16.8745 29.9194 16.8949 29.9991H2.50098ZM18.8636 28.7487L29.342 18.3635H22.8636C20.6545 18.3635 18.8636 20.1544 18.8636 22.3635V28.7487Z" fill="#111827"/>
</svg>
