<svg width="33" height="33" viewBox="0 0 33 33" fill="none" xmlns="http://www.w3.org/2000/svg">
<path fill-rule="evenodd" clip-rule="evenodd" d="M4.55414 4.00214L4.55766 3.99568C5.02762 3.54688 5.65304 3.29565 6.30436 3.29565H26.6953C27.3466 3.29565 27.972 3.54688 28.442 3.99568L28.4455 4.00214C28.4715 4.05038 28.5083 4.12825 28.5549 4.24176C28.6478 4.468 28.7566 4.77948 28.8764 5.16162C29.115 5.9226 29.3771 6.90001 29.6218 7.89837C29.8659 8.89466 30.0892 9.89777 30.2507 10.7057C30.3316 11.1102 30.3959 11.4599 30.4394 11.7323C30.4612 11.8686 30.4769 11.9801 30.487 12.0662C30.4975 12.1561 30.4988 12.1942 30.4989 12.1969L30.4989 12.197V14.157C30.4989 16.4259 28.6392 18.2971 26.4208 18.2547C25.3739 18.2341 24.3768 17.8039 23.6436 17.0562C22.9103 16.3085 22.4995 15.303 22.4995 14.2557C22.4995 13.7034 22.0518 13.2557 21.4995 13.2557C20.9472 13.2557 20.4995 13.7034 20.4995 14.2557C20.4995 15.3165 20.0781 16.3338 19.328 17.0839C18.5779 17.834 17.5606 18.2554 16.4998 18.2554C15.439 18.2554 14.4217 17.834 13.6716 17.0839C12.9215 16.3338 12.5001 15.3165 12.5001 14.2557C12.5001 13.7034 12.0524 13.2557 11.5001 13.2557C10.9478 13.2557 10.5001 13.7034 10.5001 14.2557C10.5001 15.303 10.0894 16.3085 9.35608 17.0562C8.62289 17.8039 7.62574 18.2341 6.5788 18.2547C4.36047 18.2971 2.50073 16.4259 2.50073 14.157V12.197L2.50074 12.1969C2.50083 12.1942 2.50218 12.1561 2.51266 12.0662C2.5227 11.9801 2.53842 11.8686 2.56022 11.7323C2.60377 11.4599 2.668 11.1102 2.74889 10.7057C2.91045 9.89777 3.13373 8.89466 3.37786 7.89837C3.6225 6.90001 3.88465 5.9226 4.1232 5.16162C4.24299 4.77948 4.35185 4.468 4.44473 4.24176C4.49132 4.12825 4.52814 4.05038 4.55414 4.00214ZM28.4259 3.96844C28.4259 3.96838 28.4267 3.96953 28.4283 3.97204L28.4259 3.96844ZM22.2156 18.4566C21.9475 18.1832 21.7082 17.8869 21.4995 17.5723C21.2802 17.9029 21.027 18.2134 20.7422 18.4981C19.6171 19.6233 18.091 20.2554 16.4998 20.2554C14.9086 20.2554 13.3826 19.6233 12.2574 18.4981C11.9726 18.2134 11.7195 17.9029 11.5001 17.5723C11.2914 17.8869 11.0521 18.1832 10.784 18.4566C9.68407 19.5782 8.18808 20.2236 6.61743 20.2543L6.61704 20.2543C5.97581 20.2666 5.35819 20.1753 4.77821 19.9966V29.7044H28.2211V19.9967C27.6412 20.1753 27.0237 20.2666 26.3826 20.2543L26.3822 20.2543C24.8116 20.2236 23.3156 19.5782 22.2156 18.4566ZM30.1771 18.9608C31.593 17.833 32.4989 16.0802 32.4989 14.157V12.197C32.4989 11.9893 32.4594 11.6986 32.4143 11.4165C32.3653 11.1096 32.2957 10.7326 32.2119 10.3135C32.0441 9.47447 31.8145 8.44327 31.5643 7.42237C31.3147 6.40354 31.0411 5.38089 30.7849 4.56338C30.6573 4.15628 30.5289 3.7839 30.4051 3.48224C30.3433 3.33179 30.2769 3.1847 30.2061 3.05327C30.1436 2.93735 30.0434 2.7677 29.8979 2.62222C29.0485 1.77284 27.8965 1.29565 26.6953 1.29565H6.30436C5.10314 1.29565 3.95113 1.77284 3.10174 2.62222C2.95626 2.7677 2.85604 2.93735 2.79356 3.05327C2.72273 3.1847 2.65632 3.33179 2.59456 3.48224C2.47072 3.7839 2.34238 4.15628 2.21477 4.56338C1.9585 5.38089 1.68498 6.40354 1.43533 7.42237C1.18516 8.44327 0.955505 9.47447 0.787715 10.3135C0.703924 10.7326 0.634373 11.1096 0.585302 11.4165C0.54021 11.6986 0.500732 11.9893 0.500732 12.197V14.157C0.500732 16.0801 1.40657 17.8328 2.82234 18.9606C2.79365 19.0537 2.77821 19.1527 2.77821 19.2553V30.7044C2.77821 31.2567 3.22592 31.7044 3.77821 31.7044H29.2211C29.7734 31.7044 30.2211 31.2567 30.2211 30.7044V19.2553C30.2211 19.1528 30.2057 19.0539 30.1771 18.9608ZM4.57133 3.97204C4.5729 3.96954 4.57369 3.96839 4.5737 3.96844L4.57133 3.97204Z" fill="#111827"/>
</svg>
