<svg width="32" height="33" viewBox="0 0 32 33" fill="none" xmlns="http://www.w3.org/2000/svg">
<path d="M5.82227 18.7043V27.8642H26.1778V18.7043" stroke="#1C1B1F" stroke-width="2" stroke-linecap="round" stroke-linejoin="round"/>
<path d="M20 14.7044C20 15.7652 19.5786 16.7827 18.8284 17.5328C18.0783 18.2829 17.0609 18.7044 16 18.7044C14.9391 18.7044 13.9217 18.2829 13.1716 17.5328C12.4214 16.7827 12 15.7652 12 14.7044" stroke="#1C1B1F" stroke-width="2" stroke-linecap="round" stroke-linejoin="round"/>
<path d="M12 14.7044C12 15.7517 11.5892 16.7573 10.8559 17.5051C10.1225 18.2529 9.12516 18.6832 8.078 18.7036C5.83552 18.7465 4 16.8683 4 14.6254V13.0573C4 12.3085 5.31709 6.49225 5.8466 5.96273C6.37612 5.43322 7.09429 5.13574 7.84314 5.13574H24.1569C24.9057 5.13574 25.6239 5.43322 26.1534 5.96273C26.6829 6.49225 28 12.3085 28 13.0573V14.6254C28 16.8683 26.1645 18.7465 23.922 18.7036C22.8748 18.6832 21.8775 18.2529 21.1441 17.5051C20.4108 16.7573 20 15.7517 20 14.7044" stroke="#1C1B1F" stroke-width="2" stroke-linecap="round" stroke-linejoin="round"/>
</svg>
