<svg width="32" height="32" viewBox="0 0 32 32" fill="none" xmlns="http://www.w3.org/2000/svg">
<path d="M5.82227 18.2043V27.3642H26.1778V18.2043" stroke="#1C1B1F" stroke-width="2" stroke-linecap="round" stroke-linejoin="round"/>
<path d="M20 14.2044C20 15.2652 19.5786 16.2827 18.8284 17.0328C18.0783 17.7829 17.0609 18.2044 16 18.2044C14.9391 18.2044 13.9217 17.7829 13.1716 17.0328C12.4214 16.2827 12 15.2652 12 14.2044" stroke="#1C1B1F" stroke-width="2" stroke-linecap="round" stroke-linejoin="round"/>
<path d="M12 14.2044C12 15.2517 11.5892 16.2573 10.8559 17.0051C10.1225 17.7529 9.12516 18.1832 8.078 18.2036C5.83552 18.2465 4 16.3683 4 14.1254V12.5573C4 11.8085 5.31709 5.99225 5.8466 5.46273C6.37612 4.93322 7.09429 4.63574 7.84314 4.63574H24.1569C24.9057 4.63574 25.6239 4.93322 26.1534 5.46273C26.6829 5.99225 28 11.8085 28 12.5573V14.1254C28 16.3683 26.1645 18.2465 23.922 18.2036C22.8748 18.1832 21.8775 17.7529 21.1441 17.0051C20.4108 16.2573 20 15.2517 20 14.2044" stroke="#1C1B1F" stroke-width="2" stroke-linecap="round" stroke-linejoin="round"/>
</svg>
