<svg width="33" height="32" viewBox="0 0 33 32" fill="none" xmlns="http://www.w3.org/2000/svg">
<path fill-rule="evenodd" clip-rule="evenodd" d="M20.1874 8.96673C19.7969 8.57621 19.7969 7.94304 20.1874 7.55252L25.49 2.24992C25.8805 1.8594 26.5137 1.8594 26.9042 2.24992L32.2068 7.55252C32.5974 7.94305 32.5974 8.57621 32.2068 8.96673C31.8163 9.35726 31.1831 9.35726 30.7926 8.96673L27.2276 5.40175V15.3112C27.2276 15.8635 26.7799 16.3112 26.2276 16.3112H5.68089V21.9302C7.4472 22.3967 8.74941 24.0055 8.74941 25.9184C8.74941 28.1963 6.90277 30.043 4.62483 30.043C2.34688 30.043 0.500244 28.1963 0.500244 25.9184C0.500244 23.9652 1.85785 22.3291 3.68089 21.9023V15.3112C3.68089 14.7589 4.12861 14.3112 4.68089 14.3112H25.2276V5.34074L21.6016 8.96673C21.2111 9.35726 20.5779 9.35726 20.1874 8.96673ZM8.37439 1.95724C8.92667 1.95724 9.37439 2.40496 9.37439 2.95724V5.70691H12.1237C12.676 5.70691 13.1237 6.15463 13.1237 6.70691C13.1237 7.2592 12.676 7.70691 12.1237 7.70691H9.37439V10.4562C9.37439 11.0085 8.92667 11.4562 8.37439 11.4562C7.82211 11.4562 7.37439 11.0085 7.37439 10.4562V7.70691H4.62472C4.07244 7.70691 3.62472 7.2592 3.62472 6.70691C3.62472 6.15463 4.07244 5.70691 4.62472 5.70691H7.37439V2.95724C7.37439 2.40496 7.82211 1.95724 8.37439 1.95724ZM20.6548 22.0867C20.2643 21.6962 19.6311 21.6962 19.2406 22.0867C18.8501 22.4772 18.8501 23.1104 19.2406 23.5009L21.6581 25.9184L19.2406 28.3359C18.8501 28.7264 18.8501 29.3596 19.2406 29.7501C19.6311 30.1406 20.2643 30.1406 20.6548 29.7501L23.0723 27.3326L25.4898 29.7501C25.8803 30.1406 26.5135 30.1406 26.904 29.7501C27.2945 29.3596 27.2945 28.7264 26.904 28.3359L24.4865 25.9184L26.904 23.5009C27.2945 23.1104 27.2945 22.4772 26.904 22.0867C26.5135 21.6962 25.8803 21.6962 25.4898 22.0867L23.0723 24.5042L20.6548 22.0867ZM2.50024 25.9184C2.50024 24.745 3.45145 23.7938 4.62483 23.7938C5.7982 23.7938 6.74941 24.745 6.74941 25.9184C6.74941 27.0918 5.7982 28.043 4.62483 28.043C3.45145 28.043 2.50024 27.0918 2.50024 25.9184Z" fill="#111827"/>
</svg>
