<svg width="33" height="33" viewBox="0 0 33 33" fill="none" xmlns="http://www.w3.org/2000/svg">
<path fill-rule="evenodd" clip-rule="evenodd" d="M20.1874 9.46673C19.7969 9.07621 19.7969 8.44304 20.1874 8.05252L25.49 2.74992C25.8805 2.3594 26.5137 2.3594 26.9042 2.74992L32.2068 8.05252C32.5974 8.44305 32.5974 9.07621 32.2068 9.46673C31.8163 9.85726 31.1831 9.85726 30.7926 9.46673L27.2276 5.90175V15.8112C27.2276 16.3635 26.7799 16.8112 26.2276 16.8112H5.68089V22.4302C7.4472 22.8967 8.74941 24.5055 8.74941 26.4184C8.74941 28.6963 6.90277 30.543 4.62483 30.543C2.34688 30.543 0.500244 28.6963 0.500244 26.4184C0.500244 24.4652 1.85785 22.8291 3.68089 22.4023V15.8112C3.68089 15.2589 4.12861 14.8112 4.68089 14.8112H25.2276V5.84074L21.6016 9.46673C21.2111 9.85726 20.5779 9.85726 20.1874 9.46673ZM8.37439 2.45724C8.92667 2.45724 9.37439 2.90496 9.37439 3.45724V6.20691H12.1237C12.676 6.20691 13.1237 6.65463 13.1237 7.20691C13.1237 7.7592 12.676 8.20691 12.1237 8.20691H9.37439V10.9562C9.37439 11.5085 8.92667 11.9562 8.37439 11.9562C7.82211 11.9562 7.37439 11.5085 7.37439 10.9562V8.20691H4.62472C4.07244 8.20691 3.62472 7.7592 3.62472 7.20691C3.62472 6.65463 4.07244 6.20691 4.62472 6.20691H7.37439V3.45724C7.37439 2.90496 7.82211 2.45724 8.37439 2.45724ZM20.6548 22.5867C20.2643 22.1962 19.6311 22.1962 19.2406 22.5867C18.8501 22.9772 18.8501 23.6104 19.2406 24.0009L21.6581 26.4184L19.2406 28.8359C18.8501 29.2264 18.8501 29.8596 19.2406 30.2501C19.6311 30.6406 20.2643 30.6406 20.6548 30.2501L23.0723 27.8326L25.4898 30.2501C25.8803 30.6406 26.5135 30.6406 26.904 30.2501C27.2945 29.8596 27.2945 29.2264 26.904 28.8359L24.4865 26.4184L26.904 24.0009C27.2945 23.6104 27.2945 22.9772 26.904 22.5867C26.5135 22.1962 25.8803 22.1962 25.4898 22.5867L23.0723 25.0042L20.6548 22.5867ZM2.50024 26.4184C2.50024 25.245 3.45145 24.2938 4.62483 24.2938C5.7982 24.2938 6.74941 25.245 6.74941 26.4184C6.74941 27.5918 5.7982 28.543 4.62483 28.543C3.45145 28.543 2.50024 27.5918 2.50024 26.4184Z" fill="#111827"/>
</svg>
