<svg width="33" height="32" viewBox="0 0 33 32" fill="none" xmlns="http://www.w3.org/2000/svg">
<path fill-rule="evenodd" clip-rule="evenodd" d="M2.00098 0.000854492C1.17255 0.000854492 0.500977 0.672425 0.500977 1.50085V30.499C0.500977 31.3274 1.17255 31.999 2.00098 31.999H30.9991C31.8276 31.999 32.4991 31.3275 32.4991 30.499V1.50085C32.4991 0.672429 31.8276 0.000854492 30.9991 0.000854492H2.00098ZM2.50098 29.999V2.00085H30.4991V29.999H2.50098ZM11.1663 11.5374C11.1663 10.6911 11.6121 9.85401 12.5289 9.19319C13.4507 8.52884 14.82 8.07489 16.5001 8.07489C19.05 8.07489 20.8176 9.10543 21.4964 10.2957C21.7699 10.7755 22.3806 10.9427 22.8604 10.6691C23.3402 10.3955 23.5073 9.78483 23.2338 9.30506C22.0859 7.29204 19.5059 6.07489 16.5001 6.07489C14.4763 6.07489 12.6787 6.61992 11.3596 7.57069C10.0355 8.52499 9.16629 9.91915 9.16629 11.5374C9.16629 13.3849 10.3766 14.4908 11.7539 15.1847C12.9971 15.8111 14.5973 16.2196 16.083 16.5989L16.0831 16.5989C16.2021 16.6293 16.3204 16.6595 16.4378 16.6897C18.0946 17.1149 19.5851 17.5275 20.6673 18.155C21.6946 18.7507 22.2064 19.4456 22.2064 20.4625C22.2064 21.2555 21.7233 22.0967 20.6882 22.7855C19.6603 23.4695 18.1825 23.925 16.5001 23.925C14.8177 23.925 13.3399 23.4695 12.3119 22.7855C11.2769 22.0967 10.7937 21.2555 10.7937 20.4625C10.7937 19.9102 10.346 19.4625 9.79372 19.4625C9.24143 19.4625 8.79372 19.9102 8.79372 20.4625C8.79372 22.1341 9.81184 23.5242 11.204 24.4505C12.6033 25.3816 14.4787 25.925 16.5001 25.925C18.5215 25.925 20.3969 25.3816 21.7962 24.4505C23.1883 23.5242 24.2064 22.1341 24.2064 20.4625C24.2064 18.5044 23.0883 17.2469 21.6705 16.4248C20.3077 15.6346 18.5382 15.1639 16.935 14.7525L16.6503 14.6795C15.0872 14.2792 13.6932 13.9223 12.6538 13.3986C11.586 12.8607 11.1663 12.2931 11.1663 11.5374Z" fill="#111827"/>
</svg>
