<svg width="33" height="33" viewBox="0 0 33 33" fill="none" xmlns="http://www.w3.org/2000/svg">
<path fill-rule="evenodd" clip-rule="evenodd" d="M16.8072 0.549406C16.6074 0.484834 16.3923 0.484834 16.1924 0.549406L1.1933 5.39524C0.783709 5.52757 0.504749 5.90715 0.500775 6.33758C0.496802 6.768 0.768705 7.15267 1.17579 7.29254L1.85866 7.52717V18.9999C1.85866 19.5522 2.30638 19.9999 2.85866 19.9999C3.41095 19.9999 3.85866 19.5522 3.85866 18.9999V8.21436L9.73268 10.2326C8.39539 11.7702 7.58436 13.7804 7.58436 15.9793C7.58436 19.087 9.20257 21.8167 11.6423 23.3718C6.08949 24.9178 3.98223 28.9386 3.69645 31.3828C3.63231 31.9314 4.02501 32.4281 4.57356 32.4922C5.12211 32.5563 5.61878 32.1637 5.68292 31.6151C5.91914 29.5947 8.22691 24.8764 16.3014 24.7418C20.3645 24.6741 22.9486 25.8814 24.5461 27.3184C26.1667 28.7763 26.8358 30.5265 26.9692 31.6201C27.0361 32.1683 27.5347 32.5585 28.083 32.4916C28.6312 32.4247 29.0214 31.9261 28.9545 31.3779C28.7652 29.8263 27.8792 27.6266 25.8837 25.8315C24.6976 24.7645 23.1405 23.8589 21.1442 23.3086C23.5294 21.7434 25.1045 19.0453 25.1045 15.9793C25.1045 13.8195 24.322 11.8417 23.027 10.3151L31.8238 7.29254C32.2309 7.15267 32.5028 6.768 32.4989 6.33758C32.4949 5.90715 32.2159 5.52757 31.8063 5.39524L16.8072 0.549406ZM9.58436 15.9793C9.58436 13.9835 10.4481 12.1904 11.8254 10.9516L16.1749 12.4461C16.3855 12.5185 16.6142 12.5185 16.8248 12.4461L20.9483 11.0293C22.2761 12.2647 23.1045 14.0248 23.1045 15.9793C23.1045 19.7128 20.0779 22.7394 16.3444 22.7394C12.6109 22.7394 9.58436 19.7128 9.58436 15.9793ZM16.4998 10.443L4.66314 6.37601L16.4998 2.55187L28.3365 6.37601L16.4998 10.443Z" fill="#111827"/>
</svg>
