<svg width="33" height="32" viewBox="0 0 33 32" fill="none" xmlns="http://www.w3.org/2000/svg">
<path fill-rule="evenodd" clip-rule="evenodd" d="M16.8072 0.0494055C16.6074 -0.0151664 16.3923 -0.0151664 16.1924 0.0494055L1.1933 4.89524C0.783709 5.02757 0.504749 5.40715 0.500775 5.83758C0.496802 6.268 0.768705 6.65267 1.17579 6.79254L1.85866 7.02717V18.4999C1.85866 19.0522 2.30638 19.4999 2.85866 19.4999C3.41095 19.4999 3.85866 19.0522 3.85866 18.4999V7.71436L9.73268 9.73262C8.39539 11.2702 7.58436 13.2804 7.58436 15.4793C7.58436 18.587 9.20257 21.3167 11.6423 22.8718C6.08949 24.4178 3.98223 28.4386 3.69645 30.8828C3.63231 31.4314 4.02501 31.9281 4.57356 31.9922C5.12211 32.0563 5.61878 31.6637 5.68292 31.1151C5.91914 29.0947 8.22691 24.3764 16.3014 24.2418C20.3645 24.1741 22.9486 25.3814 24.5461 26.8184C26.1667 28.2763 26.8358 30.0265 26.9692 31.1201C27.0361 31.6683 27.5347 32.0585 28.083 31.9916C28.6312 31.9247 29.0214 31.4261 28.9545 30.8779C28.7652 29.3263 27.8792 27.1266 25.8837 25.3315C24.6976 24.2645 23.1405 23.3589 21.1442 22.8086C23.5294 21.2434 25.1045 18.5453 25.1045 15.4793C25.1045 13.3195 24.322 11.3417 23.027 9.81507L31.8238 6.79254C32.2309 6.65267 32.5028 6.268 32.4989 5.83758C32.4949 5.40715 32.2159 5.02757 31.8063 4.89524L16.8072 0.0494055ZM9.58436 15.4793C9.58436 13.4835 10.4481 11.6904 11.8254 10.4516L16.1749 11.9461C16.3855 12.0185 16.6142 12.0185 16.8248 11.9461L20.9483 10.5293C22.2761 11.7647 23.1045 13.5248 23.1045 15.4793C23.1045 19.2128 20.0779 22.2394 16.3444 22.2394C12.6109 22.2394 9.58436 19.2128 9.58436 15.4793ZM16.4998 9.94299L4.66314 5.87601L16.4998 2.05187L28.3365 5.87601L16.4998 9.94299Z" fill="#111827"/>
</svg>
