<svg width="33" height="32" viewBox="0 0 33 32" fill="none" xmlns="http://www.w3.org/2000/svg">
<path fill-rule="evenodd" clip-rule="evenodd" d="M10.2498 1.24976C9.69749 1.24976 9.24977 1.69747 9.24977 2.24976V6.24982H1.49963C0.947349 6.24982 0.499634 6.69753 0.499634 7.24982V29.7503C0.499634 30.3026 0.947349 30.7503 1.49963 30.7503H10.2403C10.2435 30.7503 10.2466 30.7503 10.2498 30.7503H22.75C22.7532 30.7503 22.7563 30.7503 22.7595 30.7503H31.5002C32.0525 30.7503 32.5002 30.3026 32.5002 29.7503V7.24982C32.5002 6.69753 32.0525 6.24982 31.5002 6.24982H23.75V2.24976C23.75 1.69747 23.3023 1.24976 22.75 1.24976H10.2498ZM21.75 6.24982V3.24976H11.2498V6.24982H21.75ZM11.2498 8.24982H21.75V28.7503H11.2498V8.24982ZM9.24977 8.24982H2.49963V28.7503H9.24977V8.24982ZM23.75 28.7503V8.24982H30.5002V28.7503H23.75Z" fill="#111827"/>
</svg>
