<svg width="33" height="32" viewBox="0 0 33 32" fill="none" xmlns="http://www.w3.org/2000/svg">
<path fill-rule="evenodd" clip-rule="evenodd" d="M10.2503 1.25085C9.69803 1.25085 9.25031 1.69857 9.25031 2.25085V6.25055H1.50085C0.94857 6.25055 0.500854 6.69826 0.500854 7.25055V20.9997V29.7492C0.500854 30.3015 0.94857 30.7492 1.50085 30.7492H31.499C32.0513 30.7492 32.499 30.3015 32.499 29.7492V20.9997V7.25055C32.499 6.69826 32.0513 6.25055 31.499 6.25055H23.7495V2.25085C23.7495 1.69857 23.3018 1.25085 22.7495 1.25085H10.2503ZM21.7495 6.25055V3.25085H11.2503V6.25055H21.7495ZM30.499 8.25055V19.9997H2.50085V8.25055H30.499ZM30.499 21.9997H2.50085V28.7492H30.499V21.9997Z" fill="#111827"/>
</svg>
