<svg width="33" height="33" viewBox="0 0 33 33" fill="none" xmlns="http://www.w3.org/2000/svg">
<path fill-rule="evenodd" clip-rule="evenodd" d="M16.5 0.500977C17.0523 0.500977 17.5 0.948692 17.5 1.50098V4.17938C17.5 4.73166 17.0523 5.17938 16.5 5.17938C15.9477 5.17938 15.5 4.73166 15.5 4.17938V1.50098C15.5 0.948692 15.9477 0.500977 16.5 0.500977ZM16.4999 9.46486C12.6145 9.46486 9.46474 12.6146 9.46474 16.5001C9.46474 20.3855 12.6145 23.5353 16.4999 23.5353C20.3854 23.5353 23.5352 20.3855 23.5352 16.5001C23.5352 12.6146 20.3854 9.46486 16.4999 9.46486ZM7.46474 16.5001C7.46474 11.5101 11.5099 7.46486 16.4999 7.46486C21.49 7.46486 25.5352 11.5101 25.5352 16.5001C25.5352 21.4901 21.49 25.5353 16.4999 25.5353C11.5099 25.5353 7.46474 21.4901 7.46474 16.5001ZM6.60059 5.18656C6.21006 4.79603 5.5769 4.79603 5.18637 5.18656C4.79585 5.57708 4.79585 6.21025 5.18637 6.60077L7.07465 8.48904C7.46517 8.87957 8.09834 8.87957 8.48886 8.48904C8.87939 8.09852 8.87939 7.46535 8.48886 7.07483L6.60059 5.18656ZM0.500916 16.5C0.500916 15.9478 0.948631 15.5 1.50092 15.5H4.17932C4.7316 15.5 5.17932 15.9478 5.17932 16.5C5.17932 17.0523 4.7316 17.5 4.17932 17.5H1.50092C0.948631 17.5 0.500916 17.0523 0.500916 16.5ZM8.48886 25.9251C8.87939 25.5345 8.87939 24.9014 8.48886 24.5109C8.09834 24.1203 7.46517 24.1203 7.07465 24.5109L5.18637 26.3991C4.79585 26.7897 4.79585 27.4228 5.18637 27.8133C5.5769 28.2039 6.21006 28.2039 6.60059 27.8133L8.48886 25.9251ZM16.5 27.8206C17.0523 27.8206 17.5 28.2683 17.5 28.8206V31.499C17.5 32.0513 17.0523 32.499 16.5 32.499C15.9477 32.499 15.5 32.0513 15.5 31.499V28.8206C15.5 28.2683 15.9477 27.8206 16.5 27.8206ZM25.9253 24.5109C25.5348 24.1203 24.9016 24.1203 24.5111 24.5109C24.1206 24.9014 24.1206 25.5345 24.5111 25.9251L26.3994 27.8133C26.7899 28.2039 27.4231 28.2039 27.8136 27.8133C28.2041 27.4228 28.2041 26.7897 27.8136 26.3991L25.9253 24.5109ZM27.8206 16.5C27.8206 15.9478 28.2683 15.5 28.8206 15.5H31.499C32.0513 15.5 32.499 15.9478 32.499 16.5C32.499 17.0523 32.0513 17.5 31.499 17.5H28.8206C28.2683 17.5 27.8206 17.0523 27.8206 16.5ZM27.8136 6.60077C28.2041 6.21025 28.2041 5.57708 27.8136 5.18656C27.4231 4.79603 26.7899 4.79603 26.3994 5.18656L24.5111 7.07483C24.1206 7.46536 24.1206 8.09852 24.5111 8.48904C24.9016 8.87957 25.5348 8.87957 25.9253 8.48904L27.8136 6.60077Z" fill="#111827"/>
</svg>
