<svg width="33" height="33" viewBox="0 0 33 33" fill="none" xmlns="http://www.w3.org/2000/svg">
<path fill-rule="evenodd" clip-rule="evenodd" d="M16.5 0.500732C17.0522 0.500732 17.5 0.948448 17.5 1.50073V2.70066C17.5 3.25294 17.0522 3.70066 16.5 3.70066C15.9477 3.70066 15.5 3.25294 15.5 2.70066V1.50073C15.5 0.948448 15.9477 0.500732 16.5 0.500732ZM16.4999 8.50036C12.082 8.50036 8.50051 12.0818 8.50051 16.4998C8.50051 20.9178 12.082 24.4992 16.4999 24.4992C20.9179 24.4992 24.4994 20.9178 24.4994 16.4998C24.4994 12.0818 20.9179 8.50036 16.4999 8.50036ZM6.50051 16.4998C6.50051 10.9773 10.9774 6.50036 16.4999 6.50036C22.0225 6.50036 26.4994 10.9773 26.4994 16.4998C26.4994 22.0223 22.0225 26.4992 16.4999 26.4992C10.9774 26.4992 6.50051 22.0223 6.50051 16.4998ZM6.60273 5.18851C6.2122 4.79799 5.57904 4.79799 5.18851 5.18851C4.79799 5.57904 4.79799 6.2122 5.18851 6.60273L6.02769 7.44191C6.41822 7.83243 7.05138 7.83243 7.44191 7.44191C7.83243 7.05138 7.83243 6.41822 7.44191 6.02769L6.60273 5.18851ZM0.500916 16.4998C0.500916 15.9475 0.948631 15.4998 1.50092 15.4998H2.70084C3.25312 15.4998 3.70084 15.9475 3.70084 16.4998C3.70084 17.0521 3.25312 17.4998 2.70084 17.4998H1.50092C0.948631 17.4998 0.500916 17.0521 0.500916 16.4998ZM7.44191 26.9715C7.83243 26.5809 7.83243 25.9478 7.44191 25.5572C7.05138 25.1667 6.41822 25.1667 6.02769 25.5572L5.18851 26.3964C4.79799 26.7869 4.79799 27.4201 5.18851 27.8106C5.57904 28.2012 6.2122 28.2012 6.60273 27.8106L7.44191 26.9715ZM16.5 29.299C17.0522 29.299 17.5 29.7468 17.5 30.299V31.499C17.5 32.0512 17.0522 32.499 16.5 32.499C15.9477 32.499 15.5 32.0512 15.5 31.499V30.299C15.5 29.7468 15.9477 29.299 16.5 29.299ZM26.9715 25.5572C26.581 25.1667 25.9478 25.1667 25.5573 25.5572C25.1667 25.9478 25.1667 26.5809 25.5573 26.9715L26.3964 27.8106C26.787 28.2012 27.4201 28.2012 27.8107 27.8106C28.2012 27.4201 28.2012 26.7869 27.8107 26.3964L26.9715 25.5572ZM29.2991 16.4998C29.2991 15.9475 29.7468 15.4998 30.2991 15.4998H31.4991C32.0513 15.4998 32.4991 15.9475 32.4991 16.4998C32.4991 17.0521 32.0513 17.4998 31.4991 17.4998H30.2991C29.7468 17.4998 29.2991 17.0521 29.2991 16.4998ZM27.8107 6.60273C28.2012 6.2122 28.2012 5.57904 27.8107 5.18851C27.4201 4.79799 26.787 4.79799 26.3964 5.18851L25.5573 6.02769C25.1667 6.41822 25.1667 7.05138 25.5573 7.44191C25.9478 7.83243 26.581 7.83243 26.9715 7.44191L27.8107 6.60273Z" fill="#111827"/>
</svg>
