<svg width="33" height="33" viewBox="0 0 33 33" fill="none" xmlns="http://www.w3.org/2000/svg">
<path fill-rule="evenodd" clip-rule="evenodd" d="M10.3706 4.89662C10.8805 4.6844 11.4659 4.9257 11.6781 5.43558L12.7093 7.91311C12.9215 8.42299 12.6802 9.00837 12.1703 9.22059C11.6604 9.43281 11.075 9.19151 10.8628 8.68163L9.83164 6.2041C9.61942 5.69422 9.86072 5.10884 10.3706 4.89662ZM1.716 13.5512C1.92822 13.0413 2.5136 12.8 3.02349 13.0122L5.50101 14.0434C6.0109 14.2556 6.2522 14.841 6.03998 15.3509C5.82775 15.8607 5.24237 16.1021 4.73249 15.8898L2.25496 14.8586C1.74508 14.6464 1.50378 14.061 1.716 13.5512ZM30.745 14.8586C31.2549 14.6464 31.4962 14.061 31.284 13.5512C31.0718 13.0413 30.4864 12.8 29.9765 13.0122L27.499 14.0434C26.9891 14.2556 26.7478 14.841 26.96 15.3509C27.1722 15.8607 27.7576 16.1021 28.2675 15.8898L30.745 14.8586ZM22.6294 4.89662C23.1393 5.10884 23.3806 5.69422 23.1684 6.2041L22.1372 8.68163C21.925 9.19151 21.3396 9.43281 20.8297 9.22059C20.3198 9.00837 20.0785 8.42299 20.2908 7.91311L21.3219 5.43558C21.5342 4.9257 22.1196 4.6844 22.6294 4.89662ZM1.50092 20.8232C0.948631 20.8232 0.500916 21.271 0.500916 21.8232C0.500916 22.3755 0.948631 22.8232 1.50092 22.8232H8.72974C8.74907 22.8238 8.76849 22.8238 8.78797 22.8232H24.212C24.2315 22.8238 24.2509 22.8238 24.2703 22.8232H31.4991C32.0514 22.8232 32.4991 22.3755 32.4991 21.8232C32.4991 21.271 32.0514 20.8232 31.4991 20.8232H25.461C25.5831 19.8764 25.5547 18.9133 25.3744 17.9702C25.1126 16.6017 24.5379 15.3121 23.6951 14.2025C22.8523 13.0929 21.7643 12.1933 20.5161 11.5739C19.2679 10.9546 17.8934 10.6323 16.5 10.6323C15.1066 10.6323 13.7321 10.9546 12.4839 11.5739C11.2357 12.1933 10.1477 13.0929 9.30491 14.2025C8.46211 15.3121 7.88737 16.6017 7.62562 17.9702C7.44525 18.9133 7.41687 19.8764 7.539 20.8232H1.50092ZM9.56035 20.8232C9.42395 20.0042 9.43329 19.1654 9.59002 18.3459C9.79383 17.2803 10.2413 16.2762 10.8976 15.4122C11.5538 14.5482 12.401 13.8477 13.3729 13.3655C14.3448 12.8832 15.415 12.6323 16.5 12.6323C17.585 12.6323 18.6552 12.8832 19.6271 13.3655C20.599 13.8477 21.4462 14.5482 22.1024 15.4122C22.7587 16.2762 23.2062 17.2803 23.41 18.3459C23.5667 19.1654 23.5761 20.0042 23.4396 20.8232H9.56035ZM4.78636 27.1802C4.78636 26.6279 5.23408 26.1802 5.78636 26.1802H27.2136C27.7659 26.1802 28.2136 26.6279 28.2136 27.1802C28.2136 27.7325 27.7659 28.1802 27.2136 28.1802H5.78636C5.23408 28.1802 4.78636 27.7325 4.78636 27.1802Z" fill="#111827"/>
</svg>
