<svg width="32" height="32" viewBox="0 0 32 32" fill="none" xmlns="http://www.w3.org/2000/svg">
<path d="M24.4787 14.4818L24.3352 14.7133L24.4519 14.9595C25.861 17.9303 25.203 21.09 22.4076 22.9326L16.8389 26.4829L16.8382 26.4834C14.021 28.2863 10.7447 27.5181 8.62589 25.5219C6.51412 23.5324 5.63987 20.41 7.53536 17.5346L7.69031 17.2995L7.56968 17.0451C6.0323 13.8033 7.12539 10.6981 9.61301 9.07668L15.1827 5.52572L15.1827 5.52574L15.1874 5.52269C17.8888 3.7577 21.1661 4.43262 23.3127 6.37232C25.4431 8.29742 26.387 11.4031 24.4787 14.4818ZM10.6851 10.5321L10.6754 10.5383L10.666 10.545C9.43625 11.4119 8.79976 12.5356 8.65616 13.6995C8.51394 14.8523 8.86014 16.001 9.51273 16.9298C10.8198 18.7901 13.4297 19.8508 16.0461 18.3216L16.0541 18.317L16.0619 18.312L18.1878 16.9621C18.6034 16.7194 19.0328 16.8682 19.2721 17.1917C19.3907 17.352 19.4419 17.5329 19.4238 17.6977C19.407 17.8498 19.3265 18.0352 19.0925 18.2154L13.5514 21.7526C13.5509 21.7529 13.5505 21.7532 13.55 21.7535C13.2928 21.9138 12.9494 21.9056 12.6821 21.7394C12.4361 21.5866 12.2466 21.2927 12.3197 20.8311L12.3898 20.3886L11.9577 20.2705C11.0799 20.0307 10.2511 19.599 9.4594 18.9998L8.93736 18.6046L8.69359 19.2123C7.81426 21.4041 8.66427 23.4671 10.1746 24.6628C11.6773 25.8525 13.8887 26.2274 15.7733 25.0224L21.3365 21.4724L21.3475 21.4654L21.3581 21.4578C22.5724 20.591 23.2036 19.4723 23.3483 18.3149C23.4916 17.1681 23.1525 16.0255 22.5059 15.1C21.2098 13.2446 18.6153 12.1898 15.9759 13.6792L15.9642 13.6858L15.9529 13.693L13.8337 15.0438C13.4231 15.2885 12.9936 15.1379 12.7474 14.7969C12.6257 14.6283 12.5752 14.4419 12.5937 14.2795C12.6106 14.1315 12.6894 13.9569 12.9199 13.7951L18.4867 10.2627L18.4883 10.2617C18.7569 10.0898 19.1053 10.1143 19.3825 10.3039C19.6516 10.4878 19.7969 10.7877 19.7108 11.1296L19.5897 11.6108L20.0699 11.7356C20.7708 11.9177 21.7108 12.3285 22.5529 12.9976L23.0669 13.406L23.324 12.8019C25.0387 8.77326 20.3141 4.54785 16.2609 6.97436L16.2548 6.97803L16.2487 6.98187L10.6851 10.5321Z" fill="#1C1B1F" stroke="black"/>
</svg>
