<svg width="33" height="32" viewBox="0 0 33 32" fill="none" xmlns="http://www.w3.org/2000/svg">
<g clip-path="url(#clip0_6_1694)">
<path d="M27.6294 14.4315C32.7696 6.1386 22.4655 -2.40466 15.1421 2.38014L8.17743 6.8205C4.80484 9.01705 3.34045 13.2373 5.39714 17.5742C0.254886 25.3749 10.2607 34.5095 17.8844 29.6306L24.8491 25.1903C28.6386 22.6951 29.508 18.3923 27.6294 14.4315ZM10.1923 9.69204L17.1469 5.25421C21.7156 2.51913 26.9763 7.30161 25.0797 11.7576C23.9533 10.8627 22.6979 10.3124 21.7444 10.0646C22.1069 8.62495 20.4357 7.55704 19.2733 8.30063L12.3035 12.7233C10.5802 13.9144 12.4176 16.3642 14.1207 15.3363L16.7768 13.6433C22.7373 10.2798 28.3784 18.3557 22.8342 22.3136L15.8796 26.7515C11.6888 29.4312 5.98492 25.1383 7.9468 20.2481C8.98894 21.0369 10.0958 21.617 11.2821 21.9411C11.0202 23.5947 12.6887 24.3987 13.771 23.7203L20.723 19.2824C22.4387 17.996 20.5971 15.6677 18.9083 16.6694L16.2421 18.3624C10.3499 21.806 4.57751 13.6503 10.1923 9.69204Z" stroke="#111827" stroke-width="2"/>
</g>
<defs>
<clipPath id="clip0_6_1694">
<rect width="32" height="32" fill="white" transform="translate(0.5)"/>
</clipPath>
</defs>
</svg>
