<svg width="33" height="32" viewBox="0 0 33 32" fill="none" xmlns="http://www.w3.org/2000/svg">
<path d="M8.30025 7.79778L17.3227 2.04036C23.2499 -1.50799 30.0749 4.69656 27.6144 10.4776C26.153 9.31647 24.5243 8.6026 23.2873 8.28113C23.7575 6.41338 21.5895 5.02794 20.0814 5.99263L11.0392 11.7303C8.8035 13.2756 11.1872 16.4539 13.3968 15.1203L16.8427 12.9239C24.5754 8.5603 31.894 19.0375 24.7012 24.1724L15.6787 29.9298C10.2417 33.4063 2.84178 27.837 5.38703 21.4926C6.73904 22.516 8.17506 23.2686 9.71412 23.689C9.37428 25.8343 11.539 26.8774 12.943 25.9973L21.9622 20.2399C24.188 18.5709 21.7988 15.5502 19.6079 16.8498L16.1489 19.0463C8.50462 23.5138 1.01588 12.933 8.30025 7.79778Z" stroke="#111827" stroke-width="2"/>
</svg>
