<svg width="33" height="32" viewBox="0 0 33 32" fill="none" xmlns="http://www.w3.org/2000/svg">
<path fill-rule="evenodd" clip-rule="evenodd" d="M20.1512 4.29118C19.7607 4.68171 19.7607 5.31487 20.1512 5.7054L23.365 8.91912H7.22073C6.66845 8.91912 6.22073 9.36684 6.22073 9.91912C6.22073 10.4714 6.66845 10.9191 7.22073 10.9191H23.3652L20.1512 14.133C19.7607 14.5236 19.7607 15.1567 20.1512 15.5472C20.5418 15.9378 21.1749 15.9378 21.5655 15.5472L26.4864 10.6263C26.8769 10.2358 26.8769 9.60263 26.4864 9.21211L21.5655 4.29118C21.1749 3.90066 20.5418 3.90066 20.1512 4.29118ZM12.8493 17.867C13.2399 17.4764 13.2399 16.8433 12.8493 16.4528C12.4588 16.0622 11.8256 16.0622 11.4351 16.4528L6.53266 21.3552C6.34064 21.5374 6.2209 21.7951 6.2209 22.0807C6.2209 22.3643 6.33896 22.6203 6.52861 22.8023L11.4351 27.7088C11.8256 28.0993 12.4588 28.0993 12.8493 27.7088C13.2399 27.3183 13.2399 26.6851 12.8493 26.2946L9.63542 23.0807H25.7789C26.3312 23.0807 26.7789 22.633 26.7789 22.0807C26.7789 21.5284 26.3312 21.0807 25.7789 21.0807H9.63561L12.8493 17.867Z" fill="#111827"/>
</svg>
