<svg width="33" height="32" viewBox="0 0 33 32" fill="none" xmlns="http://www.w3.org/2000/svg">
<path fill-rule="evenodd" clip-rule="evenodd" d="M1.50073 0.000976562C0.948448 0.000976562 0.500732 0.448692 0.500732 1.00098V25.9252C0.500732 29.2797 3.2201 31.9991 6.57461 31.9991L6.63442 31.9988L6.65436 31.999H31.499C32.0513 31.999 32.499 31.5513 32.499 30.999V20.8512C32.499 20.586 32.3937 20.3316 32.2061 20.1441C32.0186 19.9566 31.7642 19.8512 31.499 19.8512H24.9863L30.4016 15.9229C30.8487 15.5986 30.9482 14.9733 30.6239 14.5262L24.6653 6.31211C24.341 5.86506 23.7157 5.76555 23.2686 6.08984L12.6485 13.7938V1.00098C12.6485 0.448692 12.2008 0.000976562 11.6485 0.000976562H1.50073ZM12.6485 16.2646V25.9252C12.6485 26.0648 12.6438 26.2033 12.6345 26.3405L28.4178 14.8912L23.6335 8.29593L12.6485 16.2646ZM9.79229 28.4241C9.78858 28.4288 9.7849 28.4335 9.78128 28.4382C9.03547 29.3885 7.87634 29.9991 6.57461 29.9991C4.32467 29.9991 2.50073 28.1751 2.50073 25.9252V2.00098H10.6485V25.9252C10.6485 26.867 10.3289 27.7341 9.79229 28.4241ZM11.2663 29.7829L12.2911 29.0603L12.2911 29.0604L12.302 29.0525L22.2292 21.8512H30.499V29.999L11.0798 29.999C11.1436 29.9285 11.2058 29.8564 11.2663 29.7829ZM8.50239 25.2157C8.50239 26.2804 7.63931 27.1435 6.57465 27.1435C5.50999 27.1435 4.64691 26.2804 4.64691 25.2157C4.64691 24.1511 5.50999 23.288 6.57465 23.288C7.63931 23.288 8.50239 24.1511 8.50239 25.2157Z" fill="#111827"/>
</svg>
