<svg width="32" height="32" viewBox="0 0 32 32" fill="none" xmlns="http://www.w3.org/2000/svg">
<path d="M8.05938 24.9154C8.91116 24.9154 9.60167 24.2249 9.60167 23.3731C9.60167 22.5213 8.91116 21.8308 8.05938 21.8308C7.2076 21.8308 6.51709 22.5213 6.51709 23.3731C6.51709 24.2249 7.2076 24.9154 8.05938 24.9154Z" fill="#1C1B1F"/>
<path d="M4 4H12.1187V23.9407C12.1187 26.1826 10.3013 28 8.05937 28V28C5.81744 28 4 26.1826 4 23.9407V4Z" stroke="#1C1B1F" stroke-width="2" stroke-linejoin="round"/>
<path d="M20.3896 19.8812L28 19.8812L28 28L8.123 28" stroke="#1C1B1F" stroke-width="2" stroke-linecap="round" stroke-linejoin="round"/>
<path d="M12.1718 15.7652L21.8853 8.71899L26.6524 15.2907L12.1718 25.7951L11.2601 26.438" stroke="#1C1B1F" stroke-width="2" stroke-linecap="round" stroke-linejoin="round"/>
</svg>
