<svg width="33" height="33" viewBox="0 0 33 33" fill="none" xmlns="http://www.w3.org/2000/svg">
<path fill-rule="evenodd" clip-rule="evenodd" d="M32.2061 0.901538C32.4079 1.10336 32.5139 1.3818 32.4973 1.66673L31.9283 11.4455C31.9126 11.7142 31.7893 11.9653 31.5862 12.1419L19.1343 22.972L21.5587 25.3964C21.7463 25.5839 21.8516 25.8383 21.8516 26.1035C21.8516 26.3687 21.7463 26.6231 21.5587 26.8106L17.363 31.0063C16.9725 31.3968 16.3393 31.3968 15.9488 31.0063L11.7116 26.7691L6.38251 32.0982C5.99199 32.4887 5.35882 32.4887 4.9683 32.0982L0.793626 27.9235C0.606089 27.736 0.500732 27.4816 0.500732 27.2164C0.500732 26.9512 0.606089 26.6968 0.793626 26.5093L6.1227 21.1802L2.48258 17.5401C2.29504 17.3526 2.18968 17.0982 2.18968 16.833C2.18968 16.5678 2.29504 16.3134 2.48258 16.1259L6.67829 11.9302C7.06882 11.5396 7.70198 11.5396 8.09251 11.9302L10.1357 13.9733L20.9657 1.52139C21.1423 1.31829 21.3934 1.19498 21.6621 1.17934L31.4409 0.610333C31.7258 0.593754 32.0043 0.699718 32.2061 0.901538ZM22.1985 3.15151L11.5709 15.3707L13.7387 17.5385L22.4263 8.85094C22.8169 8.46041 23.45 8.46041 23.8405 8.85094C24.2311 9.24146 24.2311 9.87463 23.8405 10.2652L15.1529 18.9528L17.7369 21.5367L29.9561 10.9091L30.4354 2.67222L22.1985 3.15151ZM8.24402 20.4731L4.6039 16.833L7.3854 14.0515L19.4374 26.1035L16.6559 28.885L12.4187 24.6478C12.0282 24.2573 11.395 24.2573 11.0045 24.6478L5.67541 29.9769L2.91495 27.2164L8.24402 21.8873C8.43156 21.6998 8.53692 21.4454 8.53692 21.1802C8.53692 20.915 8.43156 20.6607 8.24402 20.4731Z" fill="#111827"/>
</svg>
