<svg width="33" height="32" viewBox="0 0 33 32" fill="none" xmlns="http://www.w3.org/2000/svg">
<path fill-rule="evenodd" clip-rule="evenodd" d="M32.2061 0.401538C32.4079 0.603358 32.5139 0.881799 32.4973 1.16673L31.9283 10.9455C31.9126 11.2142 31.7893 11.4653 31.5862 11.6419L19.1343 22.472L21.5587 24.8964C21.7463 25.0839 21.8516 25.3383 21.8516 25.6035C21.8516 25.8687 21.7463 26.1231 21.5587 26.3106L17.363 30.5063C16.9725 30.8968 16.3393 30.8968 15.9488 30.5063L11.7116 26.2691L6.38251 31.5982C5.99199 31.9887 5.35882 31.9887 4.9683 31.5982L0.793626 27.4235C0.606089 27.236 0.500732 26.9816 0.500732 26.7164C0.500732 26.4512 0.606089 26.1968 0.793626 26.0093L6.1227 20.6802L2.48258 17.0401C2.29504 16.8526 2.18968 16.5982 2.18968 16.333C2.18968 16.0678 2.29504 15.8134 2.48258 15.6259L6.67829 11.4302C7.06882 11.0396 7.70198 11.0396 8.09251 11.4302L10.1357 13.4733L20.9657 1.02139C21.1423 0.818288 21.3934 0.694976 21.6621 0.67934L31.4409 0.110333C31.7258 0.0937535 32.0043 0.199718 32.2061 0.401538ZM22.1985 2.65151L11.5709 14.8707L13.7387 17.0385L22.4263 8.35094C22.8169 7.96041 23.45 7.96041 23.8405 8.35094C24.2311 8.74146 24.2311 9.37463 23.8405 9.76515L15.1529 18.4528L17.7369 21.0367L29.9561 10.4091L30.4354 2.17222L22.1985 2.65151ZM8.24402 19.9731L4.6039 16.333L7.3854 13.5515L19.4374 25.6035L16.6559 28.385L12.4187 24.1478C12.0282 23.7573 11.395 23.7573 11.0045 24.1478L5.67541 29.4769L2.91495 26.7164L8.24402 21.3873C8.43156 21.1998 8.53692 20.9454 8.53692 20.6802C8.53692 20.415 8.43156 20.1607 8.24402 19.9731Z" fill="#111827"/>
</svg>
