<svg width="33" height="32" viewBox="0 0 33 32" fill="none" xmlns="http://www.w3.org/2000/svg">
<path fill-rule="evenodd" clip-rule="evenodd" d="M23.9214 0.371629C24.3119 -0.0188957 24.9451 -0.0188957 25.3356 0.371629L32.2061 7.2421C32.5966 7.63263 32.5966 8.26579 32.2061 8.65632C31.8155 9.04684 31.1824 9.04684 30.7919 8.65632L28.0637 5.92814L23.7607 10.2312L26.8871 13.3576C26.9235 13.394 26.9565 13.4325 26.9861 13.4728L28.771 15.2576C29.1615 15.6482 29.1615 16.2813 28.771 16.6719C28.3805 17.0624 27.7473 17.0624 27.3568 16.6719L26.1719 15.4869L13.2747 28.3842C13.081 28.5778 12.8164 28.6836 12.5427 28.6767L5.33912 28.4973L2.20808 31.6284C1.81756 32.0189 1.18439 32.0189 0.79387 31.6284C0.403345 31.2379 0.403345 30.6047 0.79387 30.2142L3.91471 27.0933L3.7348 19.8689C3.72798 19.5951 3.83374 19.3305 4.02738 19.1369L8.07657 15.0877C8.10639 15.047 8.13968 15.0081 8.17642 14.9714C8.21316 14.9347 8.25205 14.9014 8.29269 14.8716L12.0839 11.0804C12.1138 11.0396 12.1472 11.0005 12.184 10.9637C12.2209 10.9268 12.26 10.8934 12.3008 10.8635L16.9246 6.23965L15.906 5.22107C15.5155 4.83054 15.5155 4.19738 15.906 3.80685C16.2965 3.41633 16.9297 3.41633 17.3202 3.80685L18.9388 5.42541C18.979 5.45504 19.0175 5.48806 19.054 5.52448L22.3464 8.81695L26.6495 4.51393L23.9214 1.78584C23.5309 1.39532 23.5309 0.762153 23.9214 0.371629ZM18.3388 7.65387L14.3136 11.679L17.3198 14.6852C17.7103 15.0757 17.7103 15.7089 17.3198 16.0994C16.9292 16.4899 16.2961 16.4899 15.9056 16.0994L12.8994 13.0932L10.3059 15.6867L13.3121 18.6929C13.7027 19.0834 13.7027 19.7166 13.3121 20.1071C12.9216 20.4977 12.2885 20.4977 11.8979 20.1071L8.89173 17.1009L5.74486 20.2478L5.90082 26.5107L12.1637 26.6667L24.7577 14.0727L21.6446 10.9597L21.6311 10.9465L21.6179 10.933L18.3388 7.65387Z" fill="#111827"/>
</svg>
