<svg width="33" height="32" viewBox="0 0 33 32" fill="none" xmlns="http://www.w3.org/2000/svg">
<path fill-rule="evenodd" clip-rule="evenodd" d="M1.50085 3.75061C0.94857 3.75061 0.500854 4.19833 0.500854 4.75061V12.2501V19.7498V27.2492C0.500854 27.8015 0.94857 28.2492 1.50085 28.2492H31.499C32.0513 28.2492 32.499 27.8015 32.499 27.2492V19.7498V12.2501V4.75061C32.499 4.19833 32.0513 3.75061 31.499 3.75061H1.50085ZM30.499 11.2501V5.75061H2.50085V11.2501H10.2503H30.499ZM2.50085 13.2501V18.7498H9.25031V13.2501H2.50085ZM2.50085 20.7498V26.2492H9.25031V20.7498H2.50085ZM11.2503 26.2492H30.499V20.7498H11.2503V26.2492ZM30.499 18.7498H11.2503V13.2501H30.499V18.7498Z" fill="#111827"/>
</svg>
