<svg width="33" height="32" viewBox="0 0 33 32" fill="none" xmlns="http://www.w3.org/2000/svg">
<path fill-rule="evenodd" clip-rule="evenodd" d="M0.500916 10.6432C0.500916 10.0909 0.948631 9.64319 1.50092 9.64319H20.7855C21.3377 9.64319 21.7855 10.0909 21.7855 10.6432V20.3568H25.0709H25.1423V11.6432H23.9996C23.4473 11.6432 22.9996 11.1955 22.9996 10.6432C22.9996 10.0909 23.4473 9.64319 23.9996 9.64319H26.1423C26.6946 9.64319 27.1423 10.0909 27.1423 10.6432V20.3568H30.4991V11.6432H29.3564C28.8041 11.6432 28.3564 11.1955 28.3564 10.6432C28.3564 10.0909 28.8041 9.64319 29.3564 9.64319H31.4991C32.0514 9.64319 32.4991 10.0909 32.4991 10.6432V21.3568C32.4991 21.9091 32.0514 22.3568 31.4991 22.3568H26.1423H25.0709H20.7855H19.7141H1.50092C0.948631 22.3568 0.500916 21.9091 0.500916 21.3568V10.6432ZM19.7855 11.6432V20.3568H19.7141H2.50092V11.6432H19.7855Z" fill="#111827"/>
</svg>
