<svg width="32" height="33" viewBox="0 0 32 33" fill="none" xmlns="http://www.w3.org/2000/svg">
<path d="M10.5151 11.81C11.2658 11.81 11.8744 11.2014 11.8744 10.4506C11.8744 9.6999 11.2658 9.09131 10.5151 9.09131C9.76435 9.09131 9.15576 9.6999 9.15576 10.4506C9.15576 11.2014 9.76435 11.81 10.5151 11.81Z" fill="#1C1B1F"/>
<path d="M4.14583 16.0249L16.4768 28.3558C16.6712 28.5502 16.9864 28.5502 17.1808 28.3558L27.8542 17.6825C28.0486 17.488 28.0486 17.1728 27.8542 16.9784L15.5202 4.64436C15.4069 4.53108 15.246 4.47923 15.0879 4.50505L6.05149 5.98068C5.84287 6.01475 5.6785 6.17685 5.64154 6.38499L4.00768 15.5858C3.97924 15.7459 4.03082 15.9099 4.14583 16.0249Z" stroke="#1C1B1F" stroke-width="2" stroke-linecap="round" stroke-linejoin="round"/>
</svg>
