<svg width="32" height="32" viewBox="0 0 32 32" fill="none" xmlns="http://www.w3.org/2000/svg">
<path d="M10.5151 11.31C11.2658 11.31 11.8744 10.7014 11.8744 9.95064C11.8744 9.1999 11.2658 8.59131 10.5151 8.59131C9.76435 8.59131 9.15576 9.1999 9.15576 9.95064C9.15576 10.7014 9.76435 11.31 10.5151 11.31Z" fill="#1C1B1F"/>
<path d="M4.14583 15.5249L16.4768 27.8558C16.6712 28.0502 16.9864 28.0502 17.1808 27.8558L27.8542 17.1825C28.0486 16.988 28.0486 16.6728 27.8542 16.4784L15.5202 4.14436C15.4069 4.03108 15.246 3.97923 15.0879 4.00505L6.05149 5.48068C5.84287 5.51475 5.6785 5.67685 5.64154 5.88499L4.00768 15.0858C3.97924 15.2459 4.03082 15.4099 4.14583 15.5249Z" stroke="#1C1B1F" stroke-width="2" stroke-linecap="round" stroke-linejoin="round"/>
</svg>
