<svg width="33" height="33" viewBox="0 0 33 33" fill="none" xmlns="http://www.w3.org/2000/svg">
<path fill-rule="evenodd" clip-rule="evenodd" d="M32.1929 0.793626C32.5834 1.18415 32.5834 1.81731 32.1929 2.20784L17.1864 17.2144C16.7959 17.6049 16.1627 17.6049 15.7722 17.2144C15.3816 16.8238 15.3816 16.1907 15.7722 15.8002L20.3159 11.2564C19.37 10.5653 18.2494 10.1387 17.0705 10.0311C15.5563 9.89292 14.0416 10.2897 12.7896 11.1524C11.5375 12.0151 10.6274 13.2892 10.2173 14.7533C9.80723 16.2175 9.92314 17.779 10.5449 19.1665C11.1666 20.5541 12.2549 21.6799 13.6206 22.3483C14.9863 23.0167 16.543 23.1855 18.0201 22.8252C19.4973 22.465 20.8016 21.5985 21.7062 20.3765C22.6109 19.1544 23.0587 17.654 22.9719 16.136C22.9404 15.5846 23.3618 15.1121 23.9132 15.0806C24.4646 15.049 24.9371 15.4705 24.9686 16.0218C25.0821 18.0067 24.4966 19.9685 23.3137 21.5664C22.1308 23.1643 20.4254 24.2973 18.494 24.7683C16.5625 25.2393 14.527 25.0186 12.7414 24.1447C10.9557 23.2707 9.53272 21.7986 8.71975 19.9844C7.90678 18.1701 7.75523 16.1283 8.29143 14.2139C8.82763 12.2995 10.0177 10.6335 11.6547 9.50549C13.2918 8.37745 15.2724 7.85869 17.2522 8.03939C18.8979 8.18957 20.4565 8.81509 21.7431 9.82923L25.6501 5.92218C23.2667 3.86165 20.2483 2.6591 17.0808 2.52747C13.5787 2.38194 10.1495 3.55615 7.47172 5.81781C4.7939 8.07948 3.06249 11.2638 2.62003 14.7409C2.17756 18.218 3.05627 21.7345 5.08232 24.5947C7.10836 27.455 10.1342 29.4506 13.5611 30.1868C16.988 30.923 20.5664 30.3461 23.5884 28.5703C26.6104 26.7946 28.8558 23.9492 29.8804 20.5972C30.9051 17.2452 30.6342 13.6307 29.1215 10.4688C28.8832 9.97058 29.0938 9.37348 29.5921 9.13514C30.0903 8.89679 30.6874 9.10744 30.9257 9.60565C32.6546 13.2195 32.9642 17.3507 31.7931 21.1818C30.622 25.013 28.0556 28.2651 24.6017 30.2947C21.1477 32.3243 17.0578 32.9836 13.141 32.1422C9.22424 31.3007 5.76593 29.0199 3.45028 25.7508C1.13463 22.4817 0.130317 18.4625 0.636028 14.4884C1.14174 10.5144 3.12064 6.87481 6.18123 4.28987C9.24182 1.70492 13.1611 0.362858 17.1638 0.529196C20.8327 0.681663 24.3267 2.09127 27.0676 4.50471L30.7787 0.793626C31.1692 0.403101 31.8024 0.403101 32.1929 0.793626Z" fill="#111827"/>
</svg>
