<svg width="32" height="32" viewBox="0 0 32 32" fill="none" xmlns="http://www.w3.org/2000/svg">
<path d="M15.9834 16.006L27.9893 4" stroke="#1C1B1F" stroke-width="2" stroke-linecap="round" stroke-linejoin="round"/>
<path d="M24.4728 7.51636C22.346 5.39382 19.5001 4.14683 16.498 4.02207C13.4959 3.89731 10.5564 4.90388 8.26085 6.84265C5.96535 8.78141 4.48113 11.5111 4.10184 14.4918C3.72255 17.4724 4.4758 20.4869 6.21259 22.9388C7.94937 25.3906 10.5432 27.1013 13.4808 27.7324C16.4185 28.3635 19.486 27.869 22.0766 26.3468C24.6671 24.8245 26.5919 22.3854 27.4702 19.5119C28.3486 16.6385 28.1164 13.5401 26.8197 10.8296" stroke="#1C1B1F" stroke-width="2" stroke-linecap="round" stroke-linejoin="round"/>
<path d="M20.2281 11.7613C19.2356 10.7689 17.9268 10.1556 16.5291 10.028C15.1314 9.90047 13.7332 10.2667 12.5775 11.063C11.4218 11.8594 10.5817 13.0355 10.2032 14.387C9.82463 15.7385 9.93162 17.1799 10.5055 18.4607C11.0795 19.7415 12.084 20.7807 13.3446 21.3977C14.6053 22.0147 16.0422 22.1705 17.4057 21.8379C18.7693 21.5054 19.9732 20.7056 20.8083 19.5776C21.6433 18.4495 22.0567 17.0645 21.9766 15.6633" stroke="#1C1B1F" stroke-width="2" stroke-linecap="round" stroke-linejoin="round"/>
</svg>
