<svg width="33" height="32" viewBox="0 0 33 32" fill="none" xmlns="http://www.w3.org/2000/svg">
<path fill-rule="evenodd" clip-rule="evenodd" d="M32.1929 0.293626C32.5834 0.68415 32.5834 1.31731 32.1929 1.70784L17.1864 16.7144C16.7959 17.1049 16.1627 17.1049 15.7722 16.7144C15.3816 16.3238 15.3816 15.6907 15.7722 15.3002L20.3159 10.7564C19.37 10.0653 18.2494 9.63871 17.0705 9.53111C15.5563 9.39292 14.0416 9.78966 12.7896 10.6524C11.5375 11.5151 10.6274 12.7892 10.2173 14.2533C9.80723 15.7175 9.92314 17.279 10.5449 18.6665C11.1666 20.0541 12.2549 21.1799 13.6206 21.8483C14.9863 22.5167 16.543 22.6855 18.0201 22.3252C19.4973 21.965 20.8016 21.0985 21.7062 19.8765C22.6109 18.6544 23.0587 17.154 22.9719 15.636C22.9404 15.0846 23.3618 14.6121 23.9132 14.5806C24.4646 14.549 24.9371 14.9705 24.9686 15.5218C25.0821 17.5067 24.4966 19.4685 23.3137 21.0664C22.1308 22.6643 20.4254 23.7973 18.494 24.2683C16.5625 24.7393 14.527 24.5186 12.7414 23.6447C10.9557 22.7707 9.53272 21.2986 8.71975 19.4844C7.90678 17.6701 7.75523 15.6283 8.29143 13.7139C8.82763 11.7995 10.0177 10.1335 11.6547 9.00549C13.2918 7.87745 15.2724 7.35869 17.2522 7.53939C18.8979 7.68957 20.4565 8.31509 21.7431 9.32923L25.6501 5.42218C23.2667 3.36165 20.2483 2.1591 17.0808 2.02747C13.5787 1.88194 10.1495 3.05615 7.47172 5.31781C4.7939 7.57948 3.06249 10.7638 2.62003 14.2409C2.17756 17.718 3.05627 21.2345 5.08232 24.0947C7.10836 26.955 10.1342 28.9506 13.5611 29.6868C16.988 30.423 20.5664 29.8461 23.5884 28.0703C26.6104 26.2946 28.8558 23.4492 29.8804 20.0972C30.9051 16.7452 30.6342 13.1307 29.1215 9.96878C28.8832 9.47058 29.0938 8.87348 29.5921 8.63514C30.0903 8.39679 30.6874 8.60744 30.9257 9.10565C32.6546 12.7195 32.9642 16.8507 31.7931 20.6818C30.622 24.513 28.0556 27.7651 24.6017 29.7947C21.1477 31.8243 17.0578 32.4836 13.141 31.6422C9.22424 30.8007 5.76593 28.5199 3.45028 25.2508C1.13463 21.9817 0.130317 17.9625 0.636028 13.9884C1.14174 10.0144 3.12064 6.37481 6.18123 3.78987C9.24182 1.20492 13.1611 -0.137142 17.1638 0.0291956C20.8327 0.181663 24.3267 1.59127 27.0676 4.00471L30.7787 0.293626C31.1692 -0.0968987 31.8024 -0.0968987 32.1929 0.293626Z" fill="#111827"/>
</svg>
