<svg width="33" height="32" viewBox="0 0 33 32" fill="none" xmlns="http://www.w3.org/2000/svg">
<path fill-rule="evenodd" clip-rule="evenodd" d="M13.8374 0.835205C13.4357 0.835205 13.0729 1.07563 12.9164 1.44564L11.1614 5.59481H8.89471C8.53784 5.59481 8.20802 5.78498 8.02924 6.09383L2.53003 15.5941H1.50085C0.94857 15.5941 0.500854 16.0418 0.500854 16.5941C0.500854 17.1464 0.94857 17.5941 1.50085 17.5941H2.64356V24.8079V30.1647C2.64356 30.717 3.09128 31.1647 3.64356 31.1647H9.53608C10.0884 31.1647 10.5361 30.717 10.5361 30.1647V25.8079H22.4638V30.1647C22.4638 30.717 22.9115 31.1647 23.4638 31.1647H29.3563C29.9085 31.1647 30.3563 30.717 30.3563 30.1647V24.815L30.3563 24.8079V17.5941H31.499C32.0513 17.5941 32.499 17.1464 32.499 16.5941C32.499 16.0418 32.0513 15.5941 31.499 15.5941H30.4697L24.9705 6.09383C24.7917 5.78498 24.4619 5.59481 24.1051 5.59481H21.8386L20.0836 1.44564C19.9271 1.07563 19.5644 0.835205 19.1626 0.835205H13.8374ZM28.3563 25.8079H24.4638V29.1647H28.3563V25.8079ZM4.64356 29.1647V25.8079H8.53608V29.1647H4.64356ZM13.333 5.59469L14.5002 2.83521H18.4998L19.667 5.59469H13.333ZM23.5285 7.59481L28.1209 15.5286H4.87884L9.47131 7.59481H23.5285ZM4.64356 17.5941V23.8079H28.3563V17.5941H4.64356ZM6.75047 20.6682C6.75047 20.1159 7.19818 19.6682 7.75047 19.6682H10.2503C10.8026 19.6682 11.2503 20.1159 11.2503 20.6682C11.2503 21.2205 10.8026 21.6682 10.2503 21.6682H7.75047C7.19818 21.6682 6.75047 21.2205 6.75047 20.6682ZM22.7495 19.6682C22.1973 19.6682 21.7495 20.1159 21.7495 20.6682C21.7495 21.2205 22.1973 21.6682 22.7495 21.6682H25.2494C25.8017 21.6682 26.2494 21.2205 26.2494 20.6682C26.2494 20.1159 25.8017 19.6682 25.2494 19.6682H22.7495Z" fill="#111827"/>
</svg>
