<svg width="33" height="32" viewBox="0 0 33 32" fill="none" xmlns="http://www.w3.org/2000/svg">
<path fill-rule="evenodd" clip-rule="evenodd" d="M11.9041 1.39201C11.5136 1.00149 10.8804 1.00149 10.4899 1.39201C10.0993 1.78254 10.0993 2.4157 10.4899 2.80623L14.0857 6.40207H1.50085C0.94857 6.40207 0.500854 6.84978 0.500854 7.40207V29.9007C0.500854 30.453 0.94857 30.9007 1.50085 30.9007H22.7495H31.499C32.0513 30.9007 32.499 30.453 32.499 29.9007V7.40207C32.499 6.84978 32.0513 6.40207 31.499 6.40207H22.7495H18.9142L22.51 2.80623C22.9006 2.4157 22.9006 1.78254 22.51 1.39201C22.1195 1.00149 21.4863 1.00149 21.0958 1.39201L16.5 5.98788L11.9041 1.39201ZM16.4922 8.40207C16.4974 8.40211 16.5025 8.40211 16.5077 8.40207H21.7495V28.9007H2.50085V8.40207H16.4922ZM23.7495 8.40207V28.9007H30.499V8.40207H23.7495ZM26.4993 10.5575C25.947 10.5575 25.4993 11.0052 25.4993 11.5575C25.4993 12.1098 25.947 12.5575 26.4993 12.5575H27.7492C28.3015 12.5575 28.7492 12.1098 28.7492 11.5575C28.7492 11.0052 28.3015 10.5575 27.7492 10.5575H26.4993ZM25.4993 17.8073C25.4993 17.2551 25.947 16.8073 26.4993 16.8073H27.7492C28.3015 16.8073 28.7492 17.2551 28.7492 17.8073C28.7492 18.3596 28.3015 18.8073 27.7492 18.8073H26.4993C25.947 18.8073 25.4993 18.3596 25.4993 17.8073ZM26.4993 23.0567C25.947 23.0567 25.4993 23.5044 25.4993 24.0567C25.4993 24.609 25.947 25.0567 26.4993 25.0567H27.7492C28.3015 25.0567 28.7492 24.609 28.7492 24.0567C28.7492 23.5044 28.3015 23.0567 27.7492 23.0567H26.4993Z" fill="#111827"/>
</svg>
