<svg width="33" height="32" viewBox="0 0 33 32" fill="none" xmlns="http://www.w3.org/2000/svg">
<path fill-rule="evenodd" clip-rule="evenodd" d="M11.9041 1.39201C11.5136 1.00149 10.8804 1.00149 10.4899 1.39201C10.0993 1.78254 10.0993 2.4157 10.4899 2.80623L14.0857 6.40207H1.50085C0.94857 6.40207 0.500854 6.84978 0.500854 7.40207V29.9007C0.500854 30.453 0.94857 30.9007 1.50085 30.9007H31.499C32.0513 30.9007 32.499 30.453 32.499 29.9007V7.40207C32.499 6.84978 32.0513 6.40207 31.499 6.40207H18.9142L22.51 2.80623C22.9006 2.4157 22.9006 1.78254 22.51 1.39201C22.1195 1.00149 21.4863 1.00149 21.0958 1.39201L16.5 5.98788L11.9041 1.39201ZM16.4922 8.40207C16.4974 8.40211 16.5025 8.40211 16.5077 8.40207H30.499V28.9007H2.50085V8.40207H16.4922Z" fill="#111827"/>
</svg>
