<svg width="33" height="32" viewBox="0 0 33 32" fill="none" xmlns="http://www.w3.org/2000/svg">
<path fill-rule="evenodd" clip-rule="evenodd" d="M29.4991 1.68043C29.8712 1.53426 30.2761 1.4924 30.6702 1.55934C30.8443 1.58892 31.0133 1.63922 31.1739 1.70866C31.197 1.71809 31.2198 1.72841 31.2423 1.7396C31.4195 1.82352 31.5856 1.93119 31.7356 2.06035C32.0385 2.32118 32.2645 2.65973 32.3892 3.03952C32.514 3.4193 32.5327 3.82593 32.4434 4.21558L26.8174 28.7656C26.7324 29.1365 26.5525 29.479 26.2953 29.7594C26.0381 30.0399 25.7125 30.2488 25.3504 30.3655C24.9882 30.4823 24.602 30.503 24.2294 30.4256C23.8568 30.3482 23.5108 30.1753 23.2251 29.924L17.1969 24.6191L13.186 28.63C12.8788 28.9372 12.4874 29.1464 12.0613 29.2312C11.6352 29.3159 11.1935 29.2724 10.7922 29.1062C10.3908 28.9399 10.0477 28.6584 9.80635 28.2972C9.56498 27.9359 9.43615 27.5112 9.43615 27.0768V18.1576L2.26654 16.7237C1.80125 16.6306 1.37861 16.3894 1.06185 16.0361C0.745093 15.6828 0.551249 15.2364 0.509325 14.7638C0.467401 14.2912 0.579652 13.8176 0.829282 13.4141C1.07891 13.0106 1.4525 12.6987 1.89414 12.5252L29.4991 1.68043ZM11.4362 19.5497V27.0768C11.4362 27.1157 11.4477 27.1537 11.4693 27.186C11.4909 27.2183 11.5216 27.2435 11.5575 27.2584C11.5934 27.2733 11.633 27.2772 11.6711 27.2696C11.7092 27.262 11.7443 27.2433 11.7718 27.2158L15.6924 23.2952L11.4362 19.5497ZM2.62544 14.3867L24.9675 5.60951L10.2045 16.2717L2.65877 14.7625C2.61713 14.7542 2.5793 14.7326 2.55095 14.701C2.5226 14.6693 2.50526 14.6294 2.5015 14.5871C2.49775 14.5448 2.5078 14.5024 2.53014 14.4663C2.55248 14.4302 2.58592 14.4023 2.62544 14.3867ZM24.5464 28.4225L12.0376 17.4148L30.407 4.14803L24.8679 28.3189C24.8603 28.3521 24.8442 28.3827 24.8212 28.4078C24.7981 28.4329 24.769 28.4516 24.7366 28.462C24.7042 28.4725 24.6696 28.4744 24.6363 28.4674C24.6029 28.4605 24.5719 28.445 24.5464 28.4225Z" fill="#111827"/>
</svg>
