<svg width="32" height="32" viewBox="0 0 32 32" fill="none" xmlns="http://www.w3.org/2000/svg">
<path d="M11.149 17.0704L21.9091 26.5393C22.0336 26.6488 22.1844 26.7242 22.3468 26.7579C22.5092 26.7917 22.6775 26.7826 22.8354 26.7317C22.9932 26.6808 23.1351 26.5898 23.2472 26.4676C23.3593 26.3453 23.4377 26.1961 23.4747 26.0344L27.9758 6.39322C28.0147 6.22341 28.0066 6.04619 27.9522 5.88067C27.8978 5.71514 27.7993 5.56759 27.6673 5.45392C27.5353 5.34024 27.3748 5.26474 27.203 5.23557C27.0312 5.20639 26.8548 5.22464 26.6926 5.28834L4.60728 13.9647C4.4148 14.0403 4.25199 14.1762 4.14319 14.3521C4.0344 14.528 3.98547 14.7344 4.00374 14.9403C4.02202 15.1463 4.1065 15.3409 4.24455 15.4948C4.3826 15.6488 4.5668 15.7539 4.76959 15.7945L11.149 17.0704Z" stroke="#1C1B1F" stroke-width="2" stroke-linecap="round" stroke-linejoin="round"/>
<path d="M11.1489 17.0704L27.437 5.30676" stroke="#1C1B1F" stroke-width="2" stroke-linecap="round" stroke-linejoin="round"/>
<path d="M16.5228 21.7993L12.7832 25.5389C12.6493 25.6728 12.4787 25.764 12.293 25.8009C12.1073 25.8379 11.9148 25.8189 11.7399 25.7465C11.565 25.674 11.4155 25.5513 11.3103 25.3939C11.2051 25.2364 11.1489 25.0514 11.1489 24.862V17.0703" stroke="#1C1B1F" stroke-width="2" stroke-linecap="round" stroke-linejoin="round"/>
</svg>
