<svg width="33" height="33" viewBox="0 0 33 33" fill="none" xmlns="http://www.w3.org/2000/svg">
<path fill-rule="evenodd" clip-rule="evenodd" d="M16.465 0.50077C7.65668 0.519648 0.51977 7.65664 0.501014 16.465C0.500984 16.4685 0.500972 16.472 0.500978 16.4755C0.50098 16.4766 0.500984 16.4778 0.50099 16.4789C0.500981 16.4859 0.500977 16.4929 0.500977 16.4998C0.500977 25.3359 7.66401 32.4989 16.5001 32.4989C25.3361 32.4989 32.4991 25.3359 32.4991 16.4998C32.4991 7.66377 25.3361 0.500732 16.5001 0.500732C16.4884 0.500732 16.4767 0.500745 16.465 0.50077ZM2.53197 17.4388C6.38949 17.1835 10.0379 15.5378 12.7879 12.7877C15.5379 10.0376 17.1837 6.38924 17.4389 2.53172C24.4222 2.99414 30.0055 8.57736 30.4681 15.5606C26.6106 15.8158 22.9621 17.4616 20.212 20.2116C17.4619 22.9618 15.8161 26.6103 15.5608 30.4679C8.57765 30.0053 2.99447 24.4221 2.53197 17.4388ZM2.54101 15.4331C5.86405 15.1794 9.00099 13.7462 11.3737 11.3735C13.7464 9.00077 15.1796 5.86382 15.4332 2.54078C8.55224 3.05929 3.05945 8.55213 2.54101 15.4331ZM17.5665 30.4589C24.4478 29.9405 29.9408 24.4475 30.4591 17.5663C27.136 17.8199 23.999 19.2531 21.6262 21.6259C19.2534 23.9986 17.8202 27.1357 17.5665 30.4589Z" fill="#111827"/>
</svg>
