<svg width="33" height="32" viewBox="0 0 33 32" fill="none" xmlns="http://www.w3.org/2000/svg">
<g clip-path="url(#clip0_294_400)">
<path fill-rule="evenodd" clip-rule="evenodd" d="M15.8849 1.71744V-0.00195312L14.3905 0.848247L2.1774 7.7962L1.67188 8.08379V8.66539V15.0159V16.7597L3.17694 15.879L8.99949 12.4717V27.4462V28.0233L9.49918 28.312L14.3846 31.135L15.8849 32.0019V30.2691V1.71744ZM3.67188 13.2721V9.24699L13.8849 3.43683V28.5364L10.9995 26.8691V10.7279V8.98406L9.49443 9.86481L3.67188 13.2721ZM18.6091 0.848329L17.1146 -0.00182211V1.71753V30.2692V32.002L18.615 31.1351L23.5004 28.3121L24.0001 28.0234V27.4463V21.1393L26.1937 22.3976L27.7085 23.2664L27.6912 21.5203L27.6371 16.0379L27.6314 15.4696L27.1402 15.1836L24.0001 13.3556V12.4717L29.8232 15.8791L31.3283 16.7598V15.016V8.66548V8.08387L30.8227 7.79628L18.6091 0.848329ZM19.1146 28.5365V3.43688L29.3283 9.2471V13.2723L23.5051 9.86488L22.0001 8.98422V10.728V13.9306V14.5056L22.497 14.7948L25.6428 16.6261L25.6741 19.7939L23.4976 18.5455L22.0001 17.6865V19.4129V26.8692L19.1146 28.5365Z" fill="#111827"/>
</g>
<defs>
<clipPath id="clip0_294_400">
<rect width="32" height="32" fill="white" transform="translate(0.5)"/>
</clipPath>
</defs>
</svg>
