<svg width="33" height="32" viewBox="0 0 33 32" fill="none" xmlns="http://www.w3.org/2000/svg">
<path fill-rule="evenodd" clip-rule="evenodd" d="M4.20711 5.36491C3.81658 4.97439 3.18342 4.97439 2.79289 5.36491C2.40237 5.75544 2.40237 6.3886 2.79289 6.77913L12.0139 16.0001L2.79289 25.2211C2.40237 25.6116 2.40237 26.2448 2.79289 26.6353C3.18342 27.0258 3.81658 27.0258 4.20711 26.6353L14.1352 16.7072C14.5257 16.3167 14.5257 15.6835 14.1352 15.293L4.20711 5.36491ZM16.6412 24.9279C16.089 24.9279 15.6412 25.3756 15.6412 25.9279C15.6412 26.4802 16.089 26.9279 16.6412 26.9279H29.5001C30.0524 26.9279 30.5001 26.4802 30.5001 25.9279C30.5001 25.3756 30.0524 24.9279 29.5001 24.9279H16.6412Z" fill="#111827"/>
</svg>
