<svg width="33" height="32" viewBox="0 0 33 32" fill="none" xmlns="http://www.w3.org/2000/svg">
<path fill-rule="evenodd" clip-rule="evenodd" d="M1.50098 2.50073C0.948692 2.50073 0.500977 2.94845 0.500977 3.50073V28.4992C0.500977 29.0515 0.948692 29.4992 1.50098 29.4992H31.4991C32.0514 29.4992 32.4991 29.0515 32.4991 28.4992V3.50073C32.4991 2.94845 32.0514 2.50073 31.4991 2.50073H1.50098ZM2.50098 27.4992V4.50073H30.4991V27.4992H2.50098ZM9.24007 9.68665C9.6306 9.29612 10.2638 9.29612 10.6543 9.68665L15.9573 14.9896C16.3478 15.3801 16.3478 16.0133 15.9573 16.4038L10.6543 21.7068C10.2638 22.0973 9.6306 22.0973 9.24007 21.7068C8.84955 21.3163 8.84955 20.6831 9.24007 20.2926L13.8359 15.6967L9.24007 11.1009C8.84955 10.7103 8.84955 10.0772 9.24007 9.68665ZM16.749 20.9996C16.749 20.4474 17.1967 19.9996 17.749 19.9996H23.9986C24.5509 19.9996 24.9986 20.4474 24.9986 20.9996C24.9986 21.5519 24.5509 21.9996 23.9986 21.9996H17.749C17.1967 21.9996 16.749 21.5519 16.749 20.9996Z" fill="#111827"/>
</svg>
