<svg width="33" height="32" viewBox="0 0 33 32" fill="none" xmlns="http://www.w3.org/2000/svg">
<path fill-rule="evenodd" clip-rule="evenodd" d="M4.20711 5.36479C3.81658 4.97427 3.18342 4.97427 2.79289 5.36479C2.40237 5.75532 2.40237 6.38848 2.79289 6.77901L12.0139 16L2.79289 25.221C2.40237 25.6115 2.40237 26.2446 2.79289 26.6352C3.18342 27.0257 3.81658 27.0257 4.20711 26.6352L14.1352 16.7071C14.5257 16.3166 14.5257 15.6834 14.1352 15.2929L4.20711 5.36479ZM16.6412 24.9277C16.089 24.9277 15.6412 25.3755 15.6412 25.9277C15.6412 26.48 16.089 26.9277 16.6412 26.9277H29.5001C30.0524 26.9277 30.5001 26.48 30.5001 25.9277C30.5001 25.3755 30.0524 24.9277 29.5001 24.9277H16.6412Z" fill="#111827"/>
</svg>
