<svg width="33" height="32" viewBox="0 0 33 32" fill="none" xmlns="http://www.w3.org/2000/svg">
<path fill-rule="evenodd" clip-rule="evenodd" d="M32.2059 10.0801C32.4574 10.3316 32.5564 10.6977 32.4659 11.0416C32.3755 11.3855 32.1092 11.6555 31.7665 11.7507L28.1857 12.7457L11.5144 29.417C8.99502 31.9364 4.91028 31.9364 2.39089 29.417C-0.128506 26.8976 -0.128504 22.8128 2.39089 20.2934L21.6979 0.986374C21.8855 0.798838 22.1398 0.693482 22.4051 0.693481C22.6703 0.693481 22.9246 0.798838 23.1122 0.986374L32.2059 10.0801ZM27.3968 10.8891L29.5799 10.2825L22.4051 3.10769L10.4566 15.0561C11.7769 15.0259 13.3663 15.3093 15.1598 16.2155C17.2934 17.2935 18.9628 17.2689 20.0639 17.0217C20.6237 16.896 21.0532 16.7087 21.3354 16.5586C21.4763 16.4837 21.5795 16.4185 21.6428 16.3759C21.6743 16.3547 21.6958 16.3391 21.7068 16.331L21.7149 16.3249C21.7702 16.2809 21.8288 16.2437 21.8897 16.2133L26.9574 11.1455C27.0793 11.0236 27.2307 10.9353 27.3968 10.8891ZM18.9426 19.1603C17.626 19.1875 16.043 18.9025 14.2579 18.0006C12.1243 16.9226 10.4549 16.9471 9.35373 17.1944C8.79396 17.3201 8.36449 17.5073 8.08229 17.6574C7.94138 17.7323 7.83815 17.7975 7.77492 17.8401C7.74335 17.8614 7.72191 17.8769 7.71089 17.8851L7.70281 17.8912C7.63706 17.9434 7.56674 17.986 7.49353 18.0192L3.8051 21.7077C2.06676 23.446 2.06676 26.2644 3.8051 28.0027C5.54344 29.7411 8.36185 29.7411 10.1002 28.0027L18.9426 19.1603Z" fill="#111827"/>
</svg>
