<svg width="33" height="32" viewBox="0 0 33 32" fill="none" xmlns="http://www.w3.org/2000/svg">
<path fill-rule="evenodd" clip-rule="evenodd" d="M14.3573 4.28638C14.9096 4.28638 15.3573 4.73409 15.3573 5.28638V26.7136C15.3573 27.2659 14.9096 27.7136 14.3573 27.7136C13.805 27.7136 13.3573 27.2659 13.3573 26.7136V24.4995H1.50085C0.94857 24.4995 0.500854 24.0517 0.500854 23.4995V8.50037C0.500854 7.94809 0.94857 7.50037 1.50085 7.50037H13.3573V5.28638C13.3573 4.73409 13.805 4.28638 14.3573 4.28638ZM5.0542 13.8573C5.0542 13.305 5.50192 12.8573 6.0542 12.8573H7.92896H9.80398C10.3563 12.8573 10.804 13.305 10.804 13.8573C10.804 14.4096 10.3563 14.8573 9.80398 14.8573H8.92896V18.6784C8.92896 19.2307 8.48125 19.6784 7.92896 19.6784C7.37668 19.6784 6.92896 19.2307 6.92896 18.6784V14.8573H6.0542C5.50192 14.8573 5.0542 14.4096 5.0542 13.8573ZM2.50085 9.50037V22.4995H13.3572V9.50037H2.50085ZM18.6427 7.50037C18.0904 7.50037 17.6427 7.94809 17.6427 8.50037C17.6427 9.05265 18.0904 9.50037 18.6427 9.50037H30.4991V22.4995H18.6427C18.0904 22.4995 17.6427 22.9472 17.6427 23.4995C17.6427 24.0517 18.0904 24.4995 18.6427 24.4995H31.4991C32.0514 24.4995 32.4991 24.0517 32.4991 23.4995V8.50037C32.4991 7.94809 32.0514 7.50037 31.4991 7.50037H18.6427Z" fill="#111827"/>
</svg>
