<svg width="33" height="32" viewBox="0 0 33 32" fill="none" xmlns="http://www.w3.org/2000/svg">
<path fill-rule="evenodd" clip-rule="evenodd" d="M6.50073 7.08655C6.50073 6.53426 6.05302 6.08655 5.50073 6.08655C4.94845 6.08655 4.50073 6.53426 4.50073 7.08655V14.4195V21.7523C4.50073 22.3046 4.94845 22.7523 5.50073 22.7523C6.05302 22.7523 6.50073 22.3046 6.50073 21.7523V15.4195H17.2111V21.7523C17.2111 22.3046 17.6588 22.7523 18.2111 22.7523C18.7633 22.7523 19.2111 22.3046 19.2111 21.7523V14.427L19.2111 14.4195L19.2111 14.412V7.08655C19.2111 6.53426 18.7633 6.08655 18.2111 6.08655C17.6588 6.08655 17.2111 6.53426 17.2111 7.08655V13.4195H6.50073V7.08655ZM28.4994 13.4417C28.4994 13.0766 28.3005 12.7406 27.9804 12.565C27.6603 12.3894 27.27 12.4022 26.9621 12.5983L24.029 14.4668C23.5632 14.7635 23.4261 15.3817 23.7229 15.8475C24.0196 16.3133 24.6378 16.4503 25.1036 16.1536L26.4994 15.2644V24.9134C26.4994 25.4657 26.9471 25.9134 27.4994 25.9134C28.0517 25.9134 28.4994 25.4657 28.4994 24.9134V13.4417Z" fill="#111827"/>
</svg>
