<svg width="33" height="32" viewBox="0 0 33 32" fill="none" xmlns="http://www.w3.org/2000/svg">
<path fill-rule="evenodd" clip-rule="evenodd" d="M7.49915 5.99908C8.05143 5.99908 8.49915 6.4468 8.49915 6.99908V14.9999H24.5009V6.99908C24.5009 6.4468 24.9486 5.99908 25.5009 5.99908C26.0532 5.99908 26.5009 6.4468 26.5009 6.99908V15.9876C26.5009 15.9917 26.5009 15.9958 26.5009 15.9999C26.5009 16.0041 26.5009 16.0082 26.5009 16.0123V25.0009C26.5009 25.5532 26.0532 26.0009 25.5009 26.0009C24.9486 26.0009 24.5009 25.5532 24.5009 25.0009V16.9999H8.49915V25.0009C8.49915 25.5532 8.05143 26.0009 7.49915 26.0009C6.94686 26.0009 6.49915 25.5532 6.49915 25.0009V15.9999V6.99908C6.49915 6.4468 6.94686 5.99908 7.49915 5.99908Z" fill="#111827"/>
</svg>
