<svg width="33" height="32" viewBox="0 0 33 32" fill="none" xmlns="http://www.w3.org/2000/svg">
<path fill-rule="evenodd" clip-rule="evenodd" d="M2.2275 4.38567C1.83697 3.99514 1.20381 3.99514 0.813285 4.38567C0.422761 4.77619 0.42276 5.40936 0.813285 5.79988L5.89057 10.8772L0.813284 15.9544C0.42276 16.345 0.42276 16.9781 0.813284 17.3687C1.20381 17.7592 1.83697 17.7592 2.2275 17.3687L8.01189 11.5843C8.19942 11.3967 8.30478 11.1424 8.30478 10.8772C8.30478 10.6119 8.19942 10.3576 8.01189 10.1701L2.2275 4.38567ZM31.4976 4.09277H12.5063C11.9541 4.09277 11.5063 4.54049 11.5063 5.09277C11.5063 5.64506 11.9541 6.09277 12.5063 6.09277H31.4976C32.0498 6.09277 32.4976 5.64506 32.4976 5.09277C32.4976 4.54049 32.0498 4.09277 31.4976 4.09277ZM12.5063 14.9999C11.9541 14.9999 11.5063 15.4476 11.5063 15.9999C11.5063 16.5522 11.9541 16.9999 12.5063 16.9999H31.4976C32.0498 16.9999 32.4976 16.5522 32.4976 15.9999C32.4976 15.4476 32.0498 14.9999 31.4976 14.9999H12.5063ZM0.502441 26.9071C0.502441 26.3548 0.950157 25.9071 1.50244 25.9071H31.4971C32.0494 25.9071 32.4971 26.3548 32.4971 26.9071C32.4971 27.4593 32.0494 27.9071 31.4971 27.9071H1.50244C0.950157 27.9071 0.502441 27.4593 0.502441 26.9071Z" fill="#111827"/>
</svg>
