<svg width="33" height="32" viewBox="0 0 33 32" fill="none" xmlns="http://www.w3.org/2000/svg">
<path fill-rule="evenodd" clip-rule="evenodd" d="M5.50061 6.80359C6.0529 6.80359 6.50061 7.2513 6.50061 7.80359V13.5379H16.1734V7.80359C16.1734 7.2513 16.6212 6.80359 17.1734 6.80359C17.7257 6.80359 18.1734 7.2513 18.1734 7.80359V21.2722C18.1734 21.8245 17.7257 22.2722 17.1734 22.2722C16.6212 22.2722 16.1734 21.8245 16.1734 21.2722V15.5379H6.50061V21.2722C6.50061 21.8245 6.0529 22.2722 5.50061 22.2722C4.94833 22.2722 4.50061 21.8245 4.50061 21.2722V14.5379V7.80359C4.50061 7.2513 4.94833 6.80359 5.50061 6.80359ZM27.4994 15.8297C28.0516 15.8297 28.4994 16.2774 28.4994 16.8297V24.1964C28.4994 24.7487 28.0516 25.1964 27.4994 25.1964C26.9471 25.1964 26.4994 24.7487 26.4994 24.1964V21.4474H21.9308C21.6053 21.4474 21.3002 21.289 21.1129 21.0228C20.9257 20.7566 20.8796 20.4159 20.9896 20.1096L23.7552 12.4043C23.9417 11.8845 24.5144 11.6143 25.0342 11.8009C25.554 11.9875 25.8242 12.5601 25.6376 13.0799L23.3522 19.4474H26.4994V16.8297C26.4994 16.2774 26.9471 15.8297 27.4994 15.8297Z" fill="#111827"/>
</svg>
