<svg width="33" height="32" viewBox="0 0 33 32" fill="none" xmlns="http://www.w3.org/2000/svg">
<path fill-rule="evenodd" clip-rule="evenodd" d="M7.59096 10.5004C7.59096 6.91071 10.5009 4.00073 14.0906 4.00073H24.4097C24.962 4.00073 25.4097 4.44845 25.4097 5.00073C25.4097 5.55302 24.962 6.00073 24.4097 6.00073H14.0906C11.6055 6.00073 9.59096 8.01528 9.59096 10.5004C9.59096 12.9854 11.6055 15 14.0906 15H19.1591L19.171 15.0001H27.4994C28.0517 15.0001 28.4994 15.4478 28.4994 16.0001C28.4994 16.5523 28.0517 17.0001 27.4994 17.0001H23.5999C24.7206 18.1679 25.4094 19.7534 25.4094 21.4998C25.4094 25.0895 22.4994 27.9994 18.9098 27.9994H8.59064C8.03835 27.9994 7.59064 27.5517 7.59064 26.9994C7.59064 26.4471 8.03835 25.9994 8.59064 25.9994H18.9098C21.3948 25.9994 23.4094 23.9849 23.4094 21.4998C23.4094 19.0147 21.3948 17.0002 18.9098 17.0002H13.6973C13.692 17.0002 13.6868 17.0001 13.6815 17.0001H5.50061C4.94833 17.0001 4.50061 16.5523 4.50061 16.0001C4.50061 15.4478 4.94833 15.0001 5.50061 15.0001H9.40039C8.27971 13.8322 7.59096 12.2467 7.59096 10.5004Z" fill="#111827"/>
</svg>
