<svg width="33" height="32" viewBox="0 0 33 32" fill="none" xmlns="http://www.w3.org/2000/svg">
<path fill-rule="evenodd" clip-rule="evenodd" d="M5.50061 7.45142C6.0529 7.45142 6.50061 7.89913 6.50061 8.45142V13.9217H15.7156V8.45142C15.7156 7.89913 16.1633 7.45142 16.7156 7.45142C17.2679 7.45142 17.7156 7.89913 17.7156 8.45142V14.9128L17.7157 14.9217L17.7156 14.9307V21.3919C17.7156 21.9442 17.2679 22.3919 16.7156 22.3919C16.1633 22.3919 15.7156 21.9442 15.7156 21.3919V15.9217H6.50061V21.3919C6.50061 21.9442 6.0529 22.3919 5.50061 22.3919C4.94833 22.3919 4.50061 21.9442 4.50061 21.3919V14.9217V8.45142C4.50061 7.89913 4.94833 7.45142 5.50061 7.45142ZM25.8554 12.3377C26.3296 12.621 26.4844 13.2349 26.2011 13.7091L24.5281 16.51C26.7258 16.5358 28.4994 18.3254 28.4994 20.5292C28.4994 22.749 26.6998 24.5486 24.4799 24.5486C22.26 24.5486 20.4605 22.749 20.4605 20.5292C20.4605 19.7567 20.6784 19.0351 21.0561 18.4226L24.4841 12.6835C24.7673 12.2093 25.3813 12.0545 25.8554 12.3377ZM22.7351 19.5117C22.5605 19.8105 22.4605 20.1582 22.4605 20.5292C22.4605 21.6445 23.3646 22.5486 24.4799 22.5486C25.5952 22.5486 26.4994 21.6445 26.4994 20.5292C26.4994 19.4139 25.5952 18.5097 24.4799 18.5097C23.7495 18.5097 23.1096 18.8976 22.755 19.4785L22.7351 19.5117Z" fill="#111827"/>
</svg>
