<svg width="33" height="32" viewBox="0 0 33 32" fill="none" xmlns="http://www.w3.org/2000/svg">
<path fill-rule="evenodd" clip-rule="evenodd" d="M7.97864 4.00061C7.38671 4.00061 6.90686 4.48046 6.90686 5.07239V15.2104C6.90686 15.2368 6.90781 15.263 6.90969 15.2889C6.90781 15.315 6.90686 15.3413 6.90686 15.3679V26.9138C6.90686 27.5133 7.39286 27.9993 7.99237 27.9993H19.2348C23.0226 27.9993 26.0933 24.9287 26.0933 21.1408C26.0933 18.1049 24.1208 15.5298 21.3874 14.627C22.5855 13.5063 23.3343 11.9113 23.3343 10.1414C23.3343 6.74994 20.585 4.00061 17.1935 4.00061H7.97864ZM8.90686 14.2822V6.00061H17.1935C19.4804 6.00061 21.3343 7.8545 21.3343 10.1414C21.3343 12.4283 19.4804 14.2822 17.1935 14.2822H8.90686ZM8.90686 25.9993V16.2823H19.2348C21.918 16.2823 24.0933 18.4576 24.0933 21.1408C24.0933 23.8241 21.918 25.9993 19.2348 25.9993H8.90686Z" fill="#111827"/>
</svg>
