<svg width="33" height="32" viewBox="0 0 33 32" fill="none" xmlns="http://www.w3.org/2000/svg">
<path fill-rule="evenodd" clip-rule="evenodd" d="M6.50061 7.68945C6.50061 7.13717 6.0529 6.68945 5.50061 6.68945C4.94833 6.68945 4.50061 7.13717 4.50061 7.68945V14.289V20.8885C4.50061 21.4408 4.94833 21.8885 5.50061 21.8885C6.0529 21.8885 6.50061 21.4408 6.50061 20.8885V15.289H15.9397V20.8885C15.9397 21.4408 16.3875 21.8885 16.9397 21.8885C17.492 21.8885 17.9397 21.4408 17.9397 20.8885V14.2954L17.9398 14.289L17.9397 14.2826V7.68945C17.9397 7.13717 17.492 6.68945 16.9397 6.68945C16.3875 6.68945 15.9397 7.13717 15.9397 7.68945V13.289H6.50061V7.68945ZM22.2191 12.4082C21.6668 12.4082 21.2191 12.8559 21.2191 13.4082C21.2191 13.9605 21.6668 14.4082 22.2191 14.4082H25.5944L23.2506 17.8048C23.0396 18.1107 23.0155 18.5084 23.1883 18.8375C23.361 19.1666 23.702 19.3727 24.0737 19.3727C24.6391 19.3727 25.2748 19.6094 25.7652 20.0138C26.2553 20.418 26.4993 20.8996 26.4993 21.3416C26.4993 22.429 25.6178 23.3105 24.5305 23.3105C23.9115 23.3105 23.3598 23.0261 22.9972 22.5769C22.6503 22.1472 22.0207 22.08 21.591 22.4269C21.1612 22.7738 21.0941 23.4034 21.441 23.8332C22.1669 24.7325 23.2815 25.3105 24.5305 25.3105C26.7224 25.3105 28.4993 23.5336 28.4993 21.3416C28.4993 20.144 27.8504 19.1411 27.0377 18.4708C26.6567 18.1566 26.2176 17.8957 25.7479 17.7071L28.3224 13.9761C28.5335 13.6702 28.5575 13.2725 28.3848 12.9434C28.212 12.6143 27.871 12.4082 27.4993 12.4082H22.2191Z" fill="#111827"/>
</svg>
