<svg width="33" height="32" viewBox="0 0 33 32" fill="none" xmlns="http://www.w3.org/2000/svg">
<path fill-rule="evenodd" clip-rule="evenodd" d="M1.50183 4.77405C0.949546 4.77405 0.501831 5.22176 0.501831 5.77405C0.501831 6.32633 0.949546 6.77405 1.50183 6.77405H31.4981C32.0504 6.77405 32.4981 6.32633 32.4981 5.77405C32.4981 5.22176 32.0504 4.77405 31.4981 4.77405H1.50183ZM1.50183 11.5914C0.949546 11.5914 0.501831 12.0391 0.501831 12.5914C0.501831 13.1437 0.949546 13.5914 1.50183 13.5914H23.3173C23.8696 13.5914 24.3173 13.1437 24.3173 12.5914C24.3173 12.0391 23.8696 11.5914 23.3173 11.5914H1.50183ZM0.502871 19.4087C0.502871 18.8564 0.950586 18.4087 1.50287 18.4087H31.4981C32.0504 18.4087 32.4981 18.8564 32.4981 19.4087C32.4981 19.961 32.0504 20.4087 31.4981 20.4087H1.50287C0.950586 20.4087 0.502871 19.961 0.502871 19.4087ZM1.50287 25.226C0.950586 25.226 0.502871 25.6737 0.502871 26.226C0.502871 26.7783 0.950586 27.226 1.50287 27.226H23.3173C23.8696 27.226 24.3173 26.7783 24.3173 26.226C24.3173 25.6737 23.8696 25.226 23.3173 25.226H1.50287Z" fill="#111827"/>
</svg>
