<svg width="33" height="32" viewBox="0 0 33 32" fill="none" xmlns="http://www.w3.org/2000/svg">
<path fill-rule="evenodd" clip-rule="evenodd" d="M9.50044 6.00055C9.50044 5.44826 9.05273 5.00055 8.50044 5.00055C7.94816 5.00055 7.50044 5.44826 7.50044 6.00055V14.0001C7.50044 18.9704 11.5297 22.9996 16.5 22.9996C21.4703 22.9996 25.4995 18.9704 25.4995 14.0001V6.00055C25.4995 5.44826 25.0518 5.00055 24.4995 5.00055C23.9472 5.00055 23.4995 5.44826 23.4995 6.00055V14.0001C23.4995 17.8658 20.3657 20.9996 16.5 20.9996C12.6342 20.9996 9.50044 17.8658 9.50044 14.0001V6.00055ZM5.50061 24.9994C4.94833 24.9994 4.50061 25.4471 4.50061 25.9994C4.50061 26.5517 4.94833 26.9994 5.50061 26.9994H27.4993C28.0516 26.9994 28.4993 26.5517 28.4993 25.9994C28.4993 25.4471 28.0516 24.9994 27.4993 24.9994H5.50061Z" fill="#111827"/>
</svg>
