<svg width="33" height="32" viewBox="0 0 33 32" fill="none" xmlns="http://www.w3.org/2000/svg">
<path fill-rule="evenodd" clip-rule="evenodd" d="M6.50073 8.08044C6.50073 7.52816 6.05302 7.08044 5.50073 7.08044C4.94845 7.08044 4.50073 7.52816 4.50073 8.08044V14.6801V21.2797C4.50073 21.832 4.94845 22.2797 5.50073 22.2797C6.05302 22.2797 6.50073 21.832 6.50073 21.2797V15.6801H15.94V21.2797C15.94 21.832 16.3877 22.2797 16.94 22.2797C17.4923 22.2797 17.94 21.832 17.94 21.2797V14.6926L17.9401 14.6801L17.94 14.6676V8.08044C17.94 7.52816 17.4923 7.08044 16.94 7.08044C16.3877 7.08044 15.94 7.52816 15.94 8.08044V13.6801H6.50073V8.08044ZM23.0666 15.2698C23.3969 14.744 23.9792 14.398 24.6417 14.398C25.6677 14.398 26.4995 15.2297 26.4995 16.2558C26.4995 16.4711 26.4788 16.5891 26.3218 16.8572C26.3222 16.8565 26.3204 16.8591 26.316 16.8653L26.316 16.8653C26.2972 16.8922 26.2312 16.9867 26.0949 17.1725C25.9459 17.3755 25.7442 17.6459 25.5066 17.9619C25.0318 18.5934 24.4205 19.3978 23.8156 20.1908C23.2109 20.9835 22.6137 21.7634 22.1676 22.3452C21.9446 22.6361 21.7594 22.8774 21.6299 23.0459L21.4799 23.2413L21.4404 23.2926L21.4303 23.3057L21.4278 23.309L21.4272 23.3099L21.427 23.3101L22.2197 23.9196L21.427 23.3101C21.1948 23.6121 21.1544 24.0198 21.3227 24.3615C21.491 24.7032 21.8388 24.9196 22.2197 24.9196H27.4995C28.0517 24.9196 28.4995 24.4719 28.4995 23.9196C28.4995 23.3674 28.0517 22.9196 27.4995 22.9196H24.2471C24.6015 22.4568 25.0019 21.9333 25.4057 21.4038C26.0115 20.6097 26.6261 19.8009 27.1051 19.1639C27.3444 18.8457 27.5516 18.568 27.7074 18.3556C27.8445 18.1688 27.9841 17.9762 28.0474 17.8682C28.3783 17.3035 28.4995 16.8379 28.4995 16.2558C28.4995 14.1252 26.7723 12.398 24.6417 12.398C23.2627 12.398 22.0537 13.1222 21.3729 14.2062C21.0792 14.6739 21.2202 15.2911 21.6879 15.5849C22.1556 15.8786 22.7729 15.7375 23.0666 15.2698Z" fill="#111827"/>
</svg>
