<svg width="33" height="32" viewBox="0 0 33 32" fill="none" xmlns="http://www.w3.org/2000/svg">
<path fill-rule="evenodd" clip-rule="evenodd" d="M5.50061 5.00189C4.94833 5.00189 4.50061 5.44961 4.50061 6.00189V10.4997C4.50061 11.052 4.94833 11.4997 5.50061 11.4997C6.0529 11.4997 6.50061 11.052 6.50061 10.4997V7.00189H15.4949V24.9981H12.0513C11.499 24.9981 11.0513 25.4458 11.0513 25.9981C11.0513 26.5504 11.499 26.9981 12.0513 26.9981H16.4865L16.4949 26.9981L16.5033 26.9981H20.9385C21.4908 26.9981 21.9385 26.5504 21.9385 25.9981C21.9385 25.4458 21.4908 24.9981 20.9385 24.9981H17.4949V7.00189H26.4993V10.4997C26.4993 11.052 26.9471 11.4997 27.4993 11.4997C28.0516 11.4997 28.4993 11.052 28.4993 10.4997V6.00189C28.4993 5.44961 28.0516 5.00189 27.4993 5.00189H16.4949H5.50061Z" fill="#111827"/>
</svg>
