<svg width="33" height="32" viewBox="0 0 33 32" fill="none" xmlns="http://www.w3.org/2000/svg">
<path fill-rule="evenodd" clip-rule="evenodd" d="M1.50183 4.77393C0.949546 4.77393 0.501831 5.22164 0.501831 5.77393C0.501831 6.32621 0.949546 6.77393 1.50183 6.77393H31.4982C32.0505 6.77393 32.4982 6.32621 32.4982 5.77393C32.4982 5.22164 32.0505 4.77393 31.4982 4.77393H1.50183ZM5.59195 11.591C5.03966 11.591 4.59195 12.0387 4.59195 12.591C4.59195 13.1433 5.03966 13.591 5.59195 13.591H27.4075C27.9598 13.591 28.4075 13.1433 28.4075 12.591C28.4075 12.0387 27.9598 11.591 27.4075 11.591H5.59195ZM0.501831 19.4091C0.501831 18.8568 0.949546 18.4091 1.50183 18.4091H31.4971C32.0494 18.4091 32.4971 18.8568 32.4971 19.4091C32.4971 19.9614 32.0494 20.4091 31.4971 20.4091H1.50183C0.949546 20.4091 0.501831 19.9614 0.501831 19.4091ZM5.59195 25.2262C5.03966 25.2262 4.59195 25.6739 4.59195 26.2262C4.59195 26.7784 5.03966 27.2262 5.59195 27.2262H27.4064C27.9587 27.2262 28.4064 26.7784 28.4064 26.2262C28.4064 25.6739 27.9587 25.2262 27.4064 25.2262H5.59195Z" fill="#111827"/>
</svg>
