<svg width="32" height="32" viewBox="0 0 32 32" fill="none" xmlns="http://www.w3.org/2000/svg">
<path d="M8.18762 6.06526C8.18762 6.02922 8.21684 6 8.25288 6H16.6305C19.2117 6 21.3042 8.0925 21.3042 10.6737V10.6737C21.3042 13.2549 19.2117 15.3474 16.6305 15.3474H8.25288C8.21684 15.3474 8.18762 15.3182 8.18762 15.2822V6.06526Z" stroke="#1C1B1F" stroke-width="2"/>
<path d="M8.18762 15.4253C8.18762 15.3824 8.22243 15.3476 8.26536 15.3476H18.4863C21.4279 15.3476 23.8126 17.7322 23.8126 20.6738V20.6738C23.8126 23.6154 21.4279 26 18.4863 26H8.26536C8.22243 26 8.18762 25.9652 8.18762 25.9223V15.4253Z" stroke="#1C1B1F" stroke-width="2"/>
</svg>
