<svg width="33" height="32" viewBox="0 0 33 32" fill="none" xmlns="http://www.w3.org/2000/svg">
<path fill-rule="evenodd" clip-rule="evenodd" d="M6.83067 4.44927C7.2212 4.05874 7.85436 4.05874 8.24489 4.44927C8.63541 4.83979 8.63541 5.47295 8.24489 5.86348L2.91556 11.1928L8.24489 16.5221C8.63541 16.9127 8.63541 17.5458 8.24489 17.9364C7.85436 18.3269 7.2212 18.3269 6.83068 17.9364L0.794236 11.8999C0.606699 11.7124 0.501343 11.458 0.501343 11.1928C0.501343 10.9276 0.606699 10.6732 0.794236 10.4857L6.83067 4.44927ZM14.5427 4.9757C13.9904 4.9757 13.5427 5.42341 13.5427 5.9757C13.5427 6.52798 13.9904 6.9757 14.5427 6.9757H31.4978C32.05 6.9757 32.4978 6.52798 32.4978 5.9757C32.4978 5.42341 32.05 4.9757 31.4978 4.9757H14.5427ZM14.5427 15.41C13.9904 15.41 13.5427 15.8577 13.5427 16.41C13.5427 16.9623 13.9904 17.41 14.5427 17.41H31.4978C32.05 17.41 32.4978 16.9623 32.4978 16.41C32.4978 15.8577 32.05 15.41 31.4978 15.41H14.5427ZM0.526733 26.8436C0.526733 26.2913 0.974449 25.8436 1.52673 25.8436L31.4987 25.8436C32.051 25.8436 32.4987 26.2913 32.4987 26.8436C32.4987 27.3959 32.051 27.8436 31.4987 27.8436L1.52673 27.8436C0.974449 27.8436 0.526733 27.3959 0.526733 26.8436Z" fill="#111827"/>
</svg>
