<svg width="33" height="32" viewBox="0 0 33 32" fill="none" xmlns="http://www.w3.org/2000/svg">
<path fill-rule="evenodd" clip-rule="evenodd" d="M18.7789 6.00094L12.1128 25.9992H6.72302C6.17074 25.9992 5.72302 26.4469 5.72302 26.9992C5.72302 27.5515 6.17074 27.9992 6.72302 27.9992H12.8135C12.827 27.9995 12.8405 27.9995 12.854 27.9992H18.9442C19.4965 27.9992 19.9442 27.5515 19.9442 26.9992C19.9442 26.4469 19.4965 25.9992 18.9442 25.9992H14.221L20.8871 6.00094H26.277C26.8293 6.00094 27.277 5.55323 27.277 5.00094C27.277 4.44866 26.8293 4.00094 26.277 4.00094H20.1894C20.1739 4.00058 20.1584 4.00058 20.143 4.00094H14.0558C13.5035 4.00094 13.0558 4.44866 13.0558 5.00094C13.0558 5.55323 13.5035 6.00094 14.0558 6.00094H18.7789Z" fill="#111827"/>
</svg>
