<svg width="33" height="32" viewBox="0 0 33 32" fill="none" xmlns="http://www.w3.org/2000/svg">
<path fill-rule="evenodd" clip-rule="evenodd" d="M16.4999 7.00061C12.9325 7.00061 10.8891 9.01486 10.8891 11.0003V11.0082H10.8891C10.8873 11.2411 10.9227 11.4728 10.994 11.6945C11.163 12.2202 10.8739 12.7835 10.3481 12.9526C9.82238 13.1217 9.25909 12.8326 9.09 12.3068C8.95384 11.8834 8.88604 11.4411 8.88912 10.9964C8.89164 7.46145 12.3372 5.00061 16.4999 5.00061C19.7371 5.00061 22.4673 6.44776 23.5897 8.75264C23.8315 9.24918 23.625 9.84772 23.1284 10.0895C22.6319 10.3313 22.0333 10.1248 21.7915 9.62825C21.096 8.19982 19.2069 7.00061 16.4999 7.00061ZM4.50061 16.0001C4.50061 15.4478 4.94833 15.0001 5.50061 15.0001H17.7681C17.7891 14.9994 17.8102 14.9994 17.8314 15.0001H27.4993C28.0516 15.0001 28.4993 15.4478 28.4993 16.0001C28.4993 16.5524 28.0516 17.0001 27.4993 17.0001H22.4866C23.68 17.9165 24.4995 19.201 24.4995 20.9996C24.4995 22.787 23.4836 24.3109 22.0306 25.3487C20.5758 26.3879 18.6172 26.9993 16.4999 26.9993C14.3827 26.9993 12.4241 26.3879 10.9692 25.3487C9.51633 24.3109 8.50035 22.787 8.50035 20.9996C8.50035 20.4474 8.94806 19.9996 9.50035 19.9996C10.0526 19.9996 10.5003 20.4474 10.5003 20.9996C10.5003 21.9735 11.0513 22.9495 12.1317 23.7212C13.2102 24.4916 14.7514 24.9993 16.4999 24.9993C18.2484 24.9993 19.7896 24.4916 20.8682 23.7212C21.9486 22.9495 22.4995 21.9735 22.4995 20.9996C22.4995 19.8885 22.024 19.1379 21.1829 18.5222C20.3137 17.8859 19.0897 17.4262 17.6565 17.0001H5.50061C4.94833 17.0001 4.50061 16.5524 4.50061 16.0001Z" fill="#111827"/>
</svg>
