<svg width="33" height="32" viewBox="0 0 33 32" fill="none" xmlns="http://www.w3.org/2000/svg">
<path fill-rule="evenodd" clip-rule="evenodd" d="M6.50061 7.86047C6.50061 7.30819 6.0529 6.86047 5.50061 6.86047C4.94833 6.86047 4.50061 7.30819 4.50061 7.86047V14.4602V21.0597C4.50061 21.612 4.94833 22.0597 5.50061 22.0597C6.0529 22.0597 6.50061 21.612 6.50061 21.0597V15.4602H15.9399V21.0597C15.9399 21.612 16.3876 22.0597 16.9399 22.0597C17.4922 22.0597 17.9399 21.612 17.9399 21.0597V14.4683L17.9399 14.4602L17.9399 14.4521V7.86047C17.9399 7.30819 17.4922 6.86047 16.9399 6.86047C16.3876 6.86047 15.9399 7.30819 15.9399 7.86047V13.4602H6.50061V7.86047ZM23.0756 12.5801C22.5891 12.5801 22.1733 12.9302 22.0903 13.4095L21.0896 19.1883C21.0148 19.6202 21.23 20.0505 21.6205 20.2497C22.0109 20.4489 22.4856 20.3707 22.7914 20.0566C22.8578 19.9884 22.93 19.9241 23.0076 19.8644C23.3726 19.5833 23.8529 19.4066 24.3897 19.4066C25.6331 19.4066 26.4993 20.3173 26.4993 21.273C26.4993 22.2288 25.6331 23.1395 24.3897 23.1395C23.6834 23.1395 23.0774 22.834 22.701 22.3901C22.3438 21.9689 21.7128 21.917 21.2916 22.2742C20.8703 22.6313 20.8184 23.2624 21.1756 23.6836C21.9375 24.5821 23.1045 25.1395 24.3897 25.1395C26.5812 25.1395 28.4993 23.4835 28.4993 21.273C28.4993 19.0626 26.5812 17.4066 24.3897 17.4066C24.0527 17.4066 23.724 17.4449 23.4087 17.5175L23.9173 14.5801H27.4993C28.0516 14.5801 28.4993 14.1324 28.4993 13.5801C28.4993 13.0278 28.0516 12.5801 27.4993 12.5801H23.0756Z" fill="#111827"/>
</svg>
