<svg width="33" height="32" viewBox="0 0 33 32" fill="none" xmlns="http://www.w3.org/2000/svg">
<path fill-rule="evenodd" clip-rule="evenodd" d="M1.50183 4.77399C0.949546 4.77399 0.501831 5.2217 0.501831 5.77399C0.501831 6.32627 0.949546 6.77399 1.50183 6.77399H31.4981C32.0504 6.77399 32.4981 6.32627 32.4981 5.77399C32.4981 5.2217 32.0504 4.77399 31.4981 4.77399H1.50183ZM1.50183 11.5913C0.949546 11.5913 0.501831 12.039 0.501831 12.5913C0.501831 13.1436 0.949546 13.5913 1.50183 13.5913H31.4981C32.0504 13.5913 32.4981 13.1436 32.4981 12.5913C32.4981 12.039 32.0504 11.5913 31.4981 11.5913H1.50183ZM0.502871 19.4087C0.502871 18.8564 0.950586 18.4087 1.50287 18.4087H31.4981C32.0504 18.4087 32.4981 18.8564 32.4981 19.4087C32.4981 19.961 32.0504 20.4087 31.4981 20.4087H1.50287C0.950586 20.4087 0.502871 19.961 0.502871 19.4087ZM1.50287 25.226C0.950586 25.226 0.502871 25.6737 0.502871 26.226C0.502871 26.7783 0.950586 27.226 1.50287 27.226H31.4981C32.0504 27.226 32.4981 26.7783 32.4981 26.226C32.4981 25.6737 32.0504 25.226 31.4981 25.226H1.50287Z" fill="#111827"/>
</svg>
