<svg width="33" height="32" viewBox="0 0 33 32" fill="none" xmlns="http://www.w3.org/2000/svg">
<path fill-rule="evenodd" clip-rule="evenodd" d="M15.508 17.1958L12.3313 11.2846L9.1813 17.1958H15.508ZM18.0051 17.6175L13.6507 9.51484C13.0835 8.4595 11.569 8.46217 11.0056 9.5195L4.61829 21.5058C4.35856 21.9932 4.54313 22.5989 5.03053 22.8586C5.51793 23.1184 6.1236 22.9338 6.38333 22.4464L8.11554 19.1958H16.5828L18.3314 22.4495C18.5929 22.936 19.1992 23.1184 19.6857 22.857C20.1722 22.5955 20.3546 21.9892 20.0931 21.5027L18.1225 17.8358C18.0924 17.7578 18.0528 17.6846 18.0051 17.6175ZM21.1739 13.5266C21.1739 12.9744 21.6216 12.5266 22.1739 12.5266H24.4993C26.7085 12.5266 28.4993 14.3175 28.4993 16.5266V22.275C28.4993 22.8273 28.0516 23.275 27.4993 23.275C27.105 23.275 26.764 23.0468 26.6012 22.7152C25.9649 23.0741 25.2215 23.2751 24.4564 23.2751C22.3532 23.2751 20.4135 21.7566 20.4135 19.6126C20.4135 17.4686 22.3532 15.9501 24.4564 15.9501C25.1805 15.9501 25.8852 16.1301 26.498 16.4536C26.4596 15.3829 25.5794 14.5266 24.4993 14.5266H22.1739C21.6216 14.5266 21.1739 14.0789 21.1739 13.5266ZM22.4135 19.6126C22.4135 18.8157 23.1985 17.9501 24.4564 17.9501C25.7142 17.9501 26.4992 18.8157 26.4992 19.6126C26.4992 20.4095 25.7142 21.2751 24.4564 21.2751C23.1985 21.2751 22.4135 20.4095 22.4135 19.6126Z" fill="#111827"/>
</svg>
