<svg width="33" height="32" viewBox="0 0 33 32" fill="none" xmlns="http://www.w3.org/2000/svg">
<path fill-rule="evenodd" clip-rule="evenodd" d="M1.50183 4.77405C0.949546 4.77405 0.501831 5.22176 0.501831 5.77405C0.501831 6.32633 0.949546 6.77405 1.50183 6.77405H31.4981C32.0504 6.77405 32.4981 6.32633 32.4981 5.77405C32.4981 5.22176 32.0504 4.77405 31.4981 4.77405H1.50183ZM9.68273 11.5914C9.13045 11.5914 8.68273 12.0391 8.68273 12.5914C8.68273 13.1437 9.13045 13.5914 9.68273 13.5914H31.4982C32.0505 13.5914 32.4982 13.1437 32.4982 12.5914C32.4982 12.0391 32.0505 11.5914 31.4982 11.5914H9.68273ZM0.502871 19.4087C0.502871 18.8564 0.950586 18.4087 1.50287 18.4087H31.4981C32.0504 18.4087 32.4981 18.8564 32.4981 19.4087C32.4981 19.961 32.0504 20.4087 31.4981 20.4087H1.50287C0.950586 20.4087 0.502871 19.961 0.502871 19.4087ZM9.68371 25.226C9.13142 25.226 8.68371 25.6737 8.68371 26.226C8.68371 26.7782 9.13142 27.226 9.68371 27.226H31.4981C32.0504 27.226 32.4981 26.7782 32.4981 26.226C32.4981 25.6737 32.0504 25.226 31.4981 25.226H9.68371Z" fill="#111827"/>
</svg>
