<svg width="33" height="33" viewBox="0 0 33 33" fill="none" xmlns="http://www.w3.org/2000/svg">
<path fill-rule="evenodd" clip-rule="evenodd" d="M12.0195 2.50073C10.3391 2.50073 9.12442 3.73328 9.12442 5.07921L9.12441 18.2379C9.15421 18.5932 8.99257 18.953 8.67269 19.1609C6.97872 20.2617 5.86195 22.1679 5.86195 24.3343C5.86195 27.739 8.62197 30.499 12.0266 30.499C15.4313 30.499 18.1913 27.739 18.1913 24.3343C18.1913 22.1679 17.0745 20.2617 15.3806 19.1609C15.3646 19.1505 15.349 19.1398 15.3339 19.1287C15.0801 18.9473 14.9146 18.6502 14.9146 18.3145L14.9146 5.07921C14.9146 3.73328 13.7 2.50073 12.0195 2.50073ZM16.9146 17.794L16.9146 5.07921C16.9146 2.47246 14.6415 0.500732 12.0195 0.500732C9.39754 0.500732 7.12442 2.47246 7.12442 5.07921L7.12441 17.8047C5.14494 19.2931 3.86195 21.6636 3.86195 24.3343C3.86195 28.8436 7.5174 32.499 12.0266 32.499C16.5358 32.499 20.1913 28.8436 20.1913 24.3343C20.1913 21.6573 18.9022 19.2817 16.9146 17.794ZM13.0266 5.78638C13.0266 5.23409 12.5789 4.78638 12.0266 4.78638C11.4744 4.78638 11.0266 5.23409 11.0266 5.78638V20.9955C9.48099 21.4311 8.34809 22.8515 8.34809 24.5364C8.34809 26.5681 9.99503 28.215 12.0266 28.215C14.0582 28.215 15.7052 26.5681 15.7052 24.5364C15.7052 22.8515 14.5723 21.4311 13.0266 20.9955V5.78638ZM10.3481 24.5364C10.3481 23.6094 11.0996 22.8579 12.0266 22.8579C12.9537 22.8579 13.7052 23.6094 13.7052 24.5364C13.7052 25.4635 12.9537 26.215 12.0266 26.215C11.0996 26.215 10.3481 25.4635 10.3481 24.5364ZM21.0442 8.56704C21.4908 8.38192 21.9694 8.28663 22.4529 8.28663C22.9363 8.28663 23.4149 8.38192 23.8615 8.56704C24.3081 8.75216 24.7138 9.02348 25.0554 9.3655C25.2113 9.52157 25.3964 9.64537 25.6002 9.72985C25.804 9.81432 26.0224 9.8578 26.243 9.8578C26.4636 9.8578 26.682 9.81432 26.8858 9.72985C27.0896 9.64537 27.2747 9.52157 27.4306 9.3655C27.8209 8.97476 28.454 8.97441 28.8448 9.36472C29.2355 9.75502 29.2359 10.3882 28.8456 10.7789C28.5039 11.1209 28.0982 11.3923 27.6517 11.5774C27.2051 11.7625 26.7264 11.8578 26.243 11.8578C25.7596 11.8578 25.2809 11.7625 24.8343 11.5774C24.3878 11.3923 23.9821 11.1209 23.6404 10.7789C23.4845 10.6229 23.2994 10.4991 23.0956 10.4146C22.8919 10.3301 22.6734 10.2866 22.4529 10.2866C22.2323 10.2866 22.0138 10.3301 21.8101 10.4146C21.6063 10.4991 21.4212 10.6229 21.2653 10.7789C20.875 11.1697 20.2418 11.17 19.8511 10.7797C19.4603 10.3894 19.46 9.75624 19.8503 9.3655C20.1919 9.02348 20.5976 8.75216 21.0442 8.56704ZM22.4529 13.6436C21.9694 13.6436 21.4908 13.7388 21.0442 13.924C20.5976 14.1091 20.1919 14.3804 19.8503 14.7224C19.46 15.1132 19.4603 15.7463 19.8511 16.1366C20.2418 16.527 20.875 16.5266 21.2653 16.1359C21.4212 15.9798 21.6063 15.856 21.8101 15.7715C22.0138 15.687 22.2323 15.6436 22.4529 15.6436C22.6734 15.6436 22.8919 15.687 23.0956 15.7715C23.2994 15.856 23.4845 15.9798 23.6404 16.1359C23.9821 16.4779 24.3878 16.7492 24.8343 16.9343C25.2809 17.1194 25.7596 17.2147 26.243 17.2147C26.7264 17.2147 27.2051 17.1194 27.6517 16.9343C28.0982 16.7492 28.5039 16.4779 28.8456 16.1359C29.2359 15.7451 29.2355 15.112 28.8448 14.7216C28.454 14.3313 27.8209 14.3317 27.4306 14.7224C27.2747 14.8785 27.0896 15.0023 26.8858 15.0868C26.682 15.1712 26.4636 15.2147 26.243 15.2147C26.0224 15.2147 25.804 15.1712 25.6002 15.0868C25.3964 15.0023 25.2113 14.8785 25.0554 14.7224C24.7138 14.3804 24.3081 14.1091 23.8615 13.924C23.4149 13.7388 22.9363 13.6436 22.4529 13.6436Z" fill="#111827"/>
</svg>
