<svg width="32" height="33" viewBox="0 0 32 33" fill="none" xmlns="http://www.w3.org/2000/svg">
<path d="M12.3409 25.0726C13.5244 25.0726 14.4839 24.1131 14.4839 22.9296C14.4839 21.7461 13.5244 20.7866 12.3409 20.7866C11.1573 20.7866 10.1979 21.7461 10.1979 22.9296C10.1979 24.1131 11.1573 25.0726 12.3409 25.0726Z" stroke="#1C1B1F" stroke-width="2" stroke-linecap="round" stroke-linejoin="round"/>
<path d="M12.3409 20.7866V7.92871" stroke="#1C1B1F" stroke-width="2" stroke-linecap="round" stroke-linejoin="round"/>
<path d="M25.2309 11.3575C25.0319 11.5568 24.7955 11.7148 24.5354 11.8227C24.2752 11.9305 23.9963 11.986 23.7147 11.986C23.4331 11.986 23.1542 11.9305 22.8941 11.8227C22.6339 11.7148 22.3976 11.5568 22.1986 11.3575C21.9995 11.1583 21.7632 11.0002 21.503 10.8924C21.2429 10.7845 20.964 10.729 20.6824 10.729C20.4008 10.729 20.1219 10.7845 19.8618 10.8924C19.6016 11.0002 19.3653 11.1583 19.1663 11.3575" stroke="#1C1B1F" stroke-width="2" stroke-linecap="round" stroke-linejoin="round"/>
<path d="M25.2309 15.6434C25.0319 15.8426 24.7955 16.0007 24.5354 16.1086C24.2752 16.2164 23.9963 16.2719 23.7147 16.2719C23.4331 16.2719 23.1542 16.2164 22.8941 16.1086C22.6339 16.0007 22.3976 15.8426 22.1986 15.6434C21.9995 15.4442 21.7632 15.2861 21.503 15.1782C21.2429 15.0704 20.964 15.0149 20.6824 15.0149C20.4008 15.0149 20.1219 15.0704 19.8618 15.1782C19.6016 15.2861 19.3653 15.4442 19.1663 15.6434" stroke="#1C1B1F" stroke-width="2" stroke-linecap="round" stroke-linejoin="round"/>
<path d="M9.2189 17.9519L9.2189 7.36297C9.2189 5.78179 10.6141 4.5 12.3352 4.5C14.0563 4.5 15.4515 5.78179 15.4515 7.36297L15.4515 17.9519" stroke="#1C1B1F" stroke-width="2" stroke-linecap="round" stroke-linejoin="round"/>
<path d="M9.2216 17.958C7.64887 18.98 6.60876 20.7525 6.60876 22.7679C6.60876 25.9336 9.17511 28.5 12.3409 28.5C15.5066 28.5 18.073 25.9336 18.073 22.7679C18.073 20.7525 17.0329 18.98 15.4601 17.958" stroke="#1C1B1F" stroke-width="2" stroke-linecap="round"/>
</svg>
