<svg width="33" height="33" viewBox="0 0 33 33" fill="none" xmlns="http://www.w3.org/2000/svg">
<path fill-rule="evenodd" clip-rule="evenodd" d="M11.8788 2.50073C10.1983 2.50073 8.98365 3.73328 8.98365 5.07921L8.98365 18.2379C9.01345 18.5932 8.85181 18.953 8.53193 19.1609C6.83796 20.2617 5.72119 22.1679 5.72119 24.3343C5.72119 27.739 8.48121 30.499 11.8859 30.499C15.2905 30.499 18.0505 27.739 18.0505 24.3343C18.0505 22.1679 16.9338 20.2617 15.2398 19.1609C15.2238 19.1505 15.2083 19.1398 15.1931 19.1287C14.9393 18.9473 14.7739 18.6502 14.7739 18.3145L14.7739 5.07921C14.7739 3.73328 13.5592 2.50073 11.8788 2.50073ZM16.7739 17.794L16.7739 5.07921C16.7739 2.47246 14.5008 0.500732 11.8788 0.500732C9.25678 0.500732 6.98365 2.47246 6.98365 5.07921L6.98365 17.8047C5.00418 19.2931 3.72119 21.6636 3.72119 24.3343C3.72119 28.8436 7.37664 32.499 11.8859 32.499C16.3951 32.499 20.0505 28.8436 20.0505 24.3343C20.0505 21.6573 18.7614 19.2817 16.7739 17.794ZM25.2072 5.78638C25.2072 5.23409 24.7595 4.78638 24.2072 4.78638C23.6549 4.78638 23.2072 5.23409 23.2072 5.78638V8.69463L20.4455 7.79525C19.9203 7.62424 19.356 7.91131 19.185 8.43645C19.0139 8.96159 19.301 9.52594 19.8262 9.69695L22.5903 10.5971L20.8801 12.9533C20.5556 13.4003 20.655 14.0256 21.1019 14.35C21.5489 14.6744 22.1742 14.5751 22.4986 14.1282L24.2072 11.7744L25.9157 14.1282C26.2402 14.5751 26.8655 14.6744 27.3124 14.35C27.7594 14.0256 27.8587 13.4003 27.5343 12.9533L25.824 10.5971L28.5882 9.69695C29.1133 9.52594 29.4004 8.96159 29.2294 8.43645C29.0584 7.91131 28.494 7.62424 27.9689 7.79525L25.2072 8.69463V5.78638ZM11.8859 14.4292C12.4382 14.4292 12.8859 14.8769 12.8859 15.4292V20.9955C14.4315 21.4311 15.5644 22.8515 15.5644 24.5364C15.5644 26.5681 13.9175 28.215 11.8859 28.215C9.85427 28.215 8.20733 26.5681 8.20733 24.5364C8.20733 22.8515 9.34024 21.4311 10.8859 20.9955V15.4292C10.8859 14.8769 11.3336 14.4292 11.8859 14.4292ZM11.8859 22.8579C10.9588 22.8579 10.2073 23.6094 10.2073 24.5364C10.2073 25.4635 10.9588 26.215 11.8859 26.215C12.8129 26.215 13.5644 25.4635 13.5644 24.5364C13.5644 23.6094 12.8129 22.8579 11.8859 22.8579Z" fill="#111827"/>
</svg>
