<svg width="32" height="33" viewBox="0 0 32 33" fill="none" xmlns="http://www.w3.org/2000/svg">
<path d="M16 25.0726C17.1835 25.0726 18.143 24.1131 18.143 22.9296C18.143 21.7461 17.1835 20.7866 16 20.7866C14.8165 20.7866 13.857 21.7461 13.857 22.9296C13.857 24.1131 14.8165 25.0726 16 25.0726Z" stroke="#1C1B1F" stroke-width="2" stroke-linecap="round" stroke-linejoin="round"/>
<path d="M16 20.7865V12.2146" stroke="#1C1B1F" stroke-width="2" stroke-linecap="round" stroke-linejoin="round"/>
<path d="M12.878 17.9519L12.878 7.36297C12.878 5.78179 14.2733 4.5 15.9943 4.5C17.7154 4.5 19.1106 5.78179 19.1106 7.36297L19.1106 17.9519" stroke="#1C1B1F" stroke-width="2" stroke-linecap="round" stroke-linejoin="round"/>
<path d="M12.8807 17.958C11.308 18.98 10.2679 20.7525 10.2679 22.7679C10.2679 25.9336 12.8342 28.5 16 28.5C19.1658 28.5 21.7321 25.9336 21.7321 22.7679C21.7321 20.7525 20.692 18.98 19.1193 17.958" stroke="#1C1B1F" stroke-width="2" stroke-linecap="round"/>
</svg>
