<svg width="33" height="33" viewBox="0 0 33 33" fill="none" xmlns="http://www.w3.org/2000/svg">
<path fill-rule="evenodd" clip-rule="evenodd" d="M16.4929 2.50073C14.8125 2.50073 13.5978 3.73328 13.5978 5.07921L13.5978 18.2379C13.6276 18.5932 13.466 18.953 13.1461 19.1609C11.4521 20.2617 10.3353 22.1679 10.3353 24.3343C10.3353 27.739 13.0954 30.499 16.5 30.499C19.9047 30.499 22.6647 27.739 22.6647 24.3343C22.6647 22.1679 21.5479 20.2617 19.8539 19.1609C19.838 19.1505 19.8224 19.1398 19.8073 19.1287C19.5535 18.9473 19.388 18.6502 19.388 18.3145L19.388 5.07921C19.388 3.73328 18.1734 2.50073 16.4929 2.50073ZM21.388 17.794L21.388 5.07921C21.388 2.47246 19.1149 0.500732 16.4929 0.500732C13.8709 0.500732 11.5978 2.47246 11.5978 5.07921L11.5978 17.8047C9.61833 19.2931 8.33534 21.6636 8.33534 24.3343C8.33534 28.8436 11.9908 32.499 16.5 32.499C21.0092 32.499 24.6647 28.8436 24.6647 24.3343C24.6647 21.6573 23.3756 19.2817 21.388 17.794ZM17.5 11.1433C17.5 10.591 17.0523 10.1433 16.5 10.1433C15.9477 10.1433 15.5 10.591 15.5 11.1433V20.9955C13.9544 21.4311 12.8215 22.8515 12.8215 24.5364C12.8215 26.5681 14.4684 28.215 16.5 28.215C18.5316 28.215 20.1785 26.5681 20.1785 24.5364C20.1785 22.8515 19.0456 21.4311 17.5 20.9955V11.1433ZM14.8215 24.5364C14.8215 23.6094 15.573 22.8579 16.5 22.8579C17.427 22.8579 18.1785 23.6094 18.1785 24.5364C18.1785 25.4635 17.427 26.215 16.5 26.215C15.573 26.215 14.8215 25.4635 14.8215 24.5364Z" fill="#111827"/>
</svg>
