<svg width="32" height="33" viewBox="0 0 32 33" fill="none" xmlns="http://www.w3.org/2000/svg">
<path d="M12.2284 25.0726C13.4119 25.0726 14.3713 24.1131 14.3713 22.9296C14.3713 21.7461 13.4119 20.7866 12.2284 20.7866C11.0448 20.7866 10.0854 21.7461 10.0854 22.9296C10.0854 24.1131 11.0448 25.0726 12.2284 25.0726Z" stroke="#1C1B1F" stroke-width="2" stroke-linecap="round" stroke-linejoin="round"/>
<path d="M12.2284 20.7867V15.6436" stroke="#1C1B1F" stroke-width="2" stroke-linecap="round" stroke-linejoin="round"/>
<path d="M22.086 7.92871V11.3575" stroke="#1C1B1F" stroke-width="2" stroke-linecap="round" stroke-linejoin="round"/>
<path d="M18.8287 10.2966L22.0861 11.3574" stroke="#1C1B1F" stroke-width="2" stroke-linecap="round" stroke-linejoin="round"/>
<path d="M20.0716 14.1326L22.086 11.3574" stroke="#1C1B1F" stroke-width="2" stroke-linecap="round" stroke-linejoin="round"/>
<path d="M24.1004 14.1326L22.086 11.3574" stroke="#1C1B1F" stroke-width="2" stroke-linecap="round" stroke-linejoin="round"/>
<path d="M25.3433 10.2966L22.086 11.3574" stroke="#1C1B1F" stroke-width="2" stroke-linecap="round" stroke-linejoin="round"/>
<path d="M9.10638 17.9519L9.10639 7.36297C9.10639 5.78179 10.5016 4.5 12.2227 4.5C13.9438 4.5 15.339 5.78179 15.339 7.36297L15.339 17.9519" stroke="#1C1B1F" stroke-width="2" stroke-linecap="round" stroke-linejoin="round"/>
<path d="M9.10908 17.958C7.53636 18.98 6.49624 20.7525 6.49624 22.7679C6.49624 25.9336 9.06259 28.5 12.2283 28.5C15.3941 28.5 17.9604 25.9336 17.9604 22.7679C17.9604 20.7525 16.9203 18.98 15.3476 17.958" stroke="#1C1B1F" stroke-width="2" stroke-linecap="round"/>
</svg>
