<svg width="33" height="33" viewBox="0 0 33 33" fill="none" xmlns="http://www.w3.org/2000/svg">
<path fill-rule="evenodd" clip-rule="evenodd" d="M12.5753 2.50073C10.8949 2.50073 9.68019 3.73328 9.68019 5.07921L9.68019 18.2379C9.70998 18.5932 9.54834 18.953 9.22846 19.1609C7.53449 20.2617 6.41772 22.1679 6.41772 24.3343C6.41772 27.739 9.17774 30.499 12.5824 30.499C15.987 30.499 18.7471 27.739 18.7471 24.3343C18.7471 22.1679 17.6303 20.2617 15.9363 19.1609C15.9204 19.1505 15.9048 19.1398 15.8896 19.1287C15.6358 18.9473 15.4704 18.6502 15.4704 18.3145L15.4704 5.07921C15.4704 3.73328 14.2557 2.50073 12.5753 2.50073ZM17.4704 17.794L17.4704 5.07921C17.4704 2.47246 15.1973 0.500732 12.5753 0.500732C9.95331 0.500732 7.68019 2.47246 7.68019 5.07921L7.68019 17.8047C5.70071 19.2931 4.41772 21.6636 4.41772 24.3343C4.41772 28.8436 8.07317 32.499 12.5824 32.499C17.0916 32.499 20.7471 28.8436 20.7471 24.3343C20.7471 21.6573 19.4579 19.2817 17.4704 17.794ZM24.9037 8.76816C23.9767 8.76816 23.2252 9.51967 23.2252 10.4467C23.2252 11.3737 23.9767 12.1252 24.9037 12.1252C25.8308 12.1252 26.5823 11.3737 26.5823 10.4467C26.5823 9.51967 25.8308 8.76816 24.9037 8.76816ZM21.2252 10.4467C21.2252 8.4151 22.8721 6.76816 24.9037 6.76816C26.9353 6.76816 28.5823 8.4151 28.5823 10.4467C28.5823 12.4783 26.9353 14.1252 24.9037 14.1252C22.8721 14.1252 21.2252 12.4783 21.2252 10.4467ZM12.5824 23.2323C11.6554 23.2323 10.9039 23.9838 10.9039 24.9108C10.9039 25.8378 11.6554 26.5894 12.5824 26.5894C13.5095 26.5894 14.261 25.8378 14.261 24.9108C14.261 23.9838 13.5095 23.2323 12.5824 23.2323ZM13.5825 21.3698V11.5177C13.5825 10.9654 13.1347 10.5177 12.5825 10.5177C12.0302 10.5177 11.5825 10.9654 11.5825 11.5177V21.3698C10.0368 21.8054 8.9039 23.2258 8.9039 24.9108C8.9039 26.9424 10.5508 28.5894 12.5824 28.5894C14.614 28.5894 16.261 26.9424 16.261 24.9108C16.261 23.2258 15.1281 21.8055 13.5825 21.3698Z" fill="#111827"/>
</svg>
