<svg width="33" height="32" viewBox="0 0 33 32" fill="none" xmlns="http://www.w3.org/2000/svg">
<path fill-rule="evenodd" clip-rule="evenodd" d="M15.8642 30.4549C15.4879 30.4549 15.1435 30.2436 14.9729 29.9082L9.29447 18.7432H1.50073C0.948448 18.7432 0.500732 18.2955 0.500732 17.7432V2.54522C0.500732 1.99294 0.948448 1.54522 1.50073 1.54522H9.67387C9.67747 1.54519 9.68107 1.54517 9.68468 1.54517H29.4739C29.9799 1.54517 30.4062 1.92318 30.4667 2.42558L32.4776 19.1201C32.6927 20.9063 31.2982 22.4788 29.4991 22.4788H21.7196V26.4549C21.7196 28.664 19.9287 30.4549 17.7196 30.4549H15.8642ZM10.6847 17.0648L16.4775 28.4549H17.7196C18.8241 28.4549 19.7196 27.5594 19.7196 26.4549V21.4788C19.7196 20.9266 20.1673 20.4788 20.7196 20.4788H29.4991C30.0988 20.4788 30.5636 19.9547 30.4919 19.3593L28.5871 3.54517H10.6847V17.0648ZM2.50073 3.54522V16.7432H8.68439V3.54522H2.50073Z" fill="#111827"/>
</svg>
