<svg width="33" height="32" viewBox="0 0 33 32" fill="none" xmlns="http://www.w3.org/2000/svg">
<path fill-rule="evenodd" clip-rule="evenodd" d="M15.8642 1.54517C15.4879 1.54517 15.1435 1.75642 14.9729 2.09184L9.29444 13.2569H1.50073C0.948448 13.2569 0.500732 13.7046 0.500732 14.2569V29.4549C0.500732 30.0072 0.948448 30.4549 1.50073 30.4549H9.68439C9.68532 30.4549 9.68625 30.4549 9.68718 30.4549H29.4739C29.9799 30.4549 30.4062 30.0768 30.4667 29.5744L32.4776 12.8799C32.6927 11.0938 31.2982 9.52119 29.4991 9.52119H21.7196V5.54517C21.7196 3.33603 19.9287 1.54517 17.7196 1.54517H15.8642ZM10.6847 14.9352L16.4775 3.54517H17.7196C18.8241 3.54517 19.7196 4.4406 19.7196 5.54517V10.5212C19.7196 11.0735 20.1673 11.5212 20.7196 11.5212H29.4991C30.0988 11.5212 30.5636 12.0454 30.4919 12.6408L28.5871 28.4549H10.6847V14.9352ZM2.50073 28.4549V15.2569H8.68439V28.4549H2.50073Z" fill="#111827"/>
</svg>
