<svg width="32" height="33" viewBox="0 0 32 33" fill="none" xmlns="http://www.w3.org/2000/svg">
<path d="M12.3076 8.19238V24.8078" stroke="#1C1B1F" stroke-width="2" stroke-linecap="round" stroke-linejoin="round"/>
<path d="M28 13.4346V14.4346C28.5523 14.4346 29 13.9869 29 13.4346H28ZM28 19.5659H29C29 19.0136 28.5523 18.5659 28 18.5659V19.5659ZM4 19.5659V18.5659C3.44772 18.5659 3 19.0136 3 19.5659H4ZM4 13.4346H3C3 13.9869 3.44772 14.4346 4 14.4346V13.4346ZM4.5 7.19238C3.67157 7.19238 3 7.86396 3 8.69238H5C5 8.96852 4.77615 9.19238 4.5 9.19238V7.19238ZM27.5 7.19238H4.5V9.19238H27.5V7.19238ZM29 8.69238C29 7.86396 28.3284 7.19238 27.5 7.19238V9.19238C27.2239 9.19238 27 8.96853 27 8.69238H29ZM29 13.4346V8.69238H27V13.4346H29ZM25.9343 16.5002C25.9343 15.3594 26.8592 14.4346 28 14.4346V12.4346C25.7546 12.4346 23.9343 14.2548 23.9343 16.5002H25.9343ZM28 18.5659C26.8592 18.5659 25.9343 17.6411 25.9343 16.5002H23.9343C23.9343 18.7457 25.7546 20.5659 28 20.5659V18.5659ZM29 24.3078V19.5659H27V24.3078H29ZM27.5 25.8078C28.3284 25.8078 29 25.1362 29 24.3078H27C27 24.0316 27.2239 23.8078 27.5 23.8078V25.8078ZM4.5 25.8078H27.5V23.8078H4.5V25.8078ZM3 24.3078C3 25.1362 3.67157 25.8078 4.5 25.8078V23.8078C4.77614 23.8078 5 24.0316 5 24.3078H3ZM3 19.5659V24.3078H5V19.5659H3ZM6.06567 16.5002C6.06567 17.6411 5.14084 18.5659 4 18.5659V20.5659C6.24541 20.5659 8.06567 18.7457 8.06567 16.5002H6.06567ZM4 14.4346C5.14084 14.4346 6.06567 15.3594 6.06567 16.5002H8.06567C8.06567 14.2548 6.24541 12.4346 4 12.4346V14.4346ZM3 8.69238V13.4346H5V8.69238H3Z" fill="#1C1B1F"/>
</svg>
