<svg width="32" height="32" viewBox="0 0 32 32" fill="none" xmlns="http://www.w3.org/2000/svg">
<path d="M12.3076 7.69238V24.3078" stroke="#1C1B1F" stroke-width="2" stroke-linecap="round" stroke-linejoin="round"/>
<path d="M28 12.9346V13.9346C28.5523 13.9346 29 13.4869 29 12.9346H28ZM28 19.0659H29C29 18.5136 28.5523 18.0659 28 18.0659V19.0659ZM4 19.0659V18.0659C3.44772 18.0659 3 18.5136 3 19.0659H4ZM4 12.9346H3C3 13.4869 3.44772 13.9346 4 13.9346V12.9346ZM4.5 6.69238C3.67157 6.69238 3 7.36396 3 8.19238H5C5 8.46852 4.77615 8.69238 4.5 8.69238V6.69238ZM27.5 6.69238H4.5V8.69238H27.5V6.69238ZM29 8.19238C29 7.36396 28.3284 6.69238 27.5 6.69238V8.69238C27.2239 8.69238 27 8.46853 27 8.19238H29ZM29 12.9346V8.19238H27V12.9346H29ZM25.9343 16.0002C25.9343 14.8594 26.8592 13.9346 28 13.9346V11.9346C25.7546 11.9346 23.9343 13.7548 23.9343 16.0002H25.9343ZM28 18.0659C26.8592 18.0659 25.9343 17.1411 25.9343 16.0002H23.9343C23.9343 18.2457 25.7546 20.0659 28 20.0659V18.0659ZM29 23.8078V19.0659H27V23.8078H29ZM27.5 25.3078C28.3284 25.3078 29 24.6362 29 23.8078H27C27 23.5316 27.2239 23.3078 27.5 23.3078V25.3078ZM4.5 25.3078H27.5V23.3078H4.5V25.3078ZM3 23.8078C3 24.6362 3.67157 25.3078 4.5 25.3078V23.3078C4.77614 23.3078 5 23.5316 5 23.8078H3ZM3 19.0659V23.8078H5V19.0659H3ZM6.06567 16.0002C6.06567 17.1411 5.14084 18.0659 4 18.0659V20.0659C6.24541 20.0659 8.06567 18.2457 8.06567 16.0002H6.06567ZM4 13.9346C5.14084 13.9346 6.06567 14.8594 6.06567 16.0002H8.06567C8.06567 13.7548 6.24541 11.9346 4 11.9346V13.9346ZM3 8.19238V12.9346H5V8.19238H3Z" fill="#1C1B1F"/>
</svg>
