<svg width="33" height="33" viewBox="0 0 33 33" fill="none" xmlns="http://www.w3.org/2000/svg">
<path fill-rule="evenodd" clip-rule="evenodd" d="M2.00098 5.11597C1.17255 5.11597 0.500977 5.78754 0.500977 6.61597V12.6683C0.500977 13.2206 0.94868 13.6683 1.50096 13.6683C3.06492 13.6683 4.33276 14.9362 4.33276 16.5001C4.33276 18.0641 3.06492 19.332 1.50096 19.332C0.94868 19.332 0.500977 19.7797 0.500977 20.332V26.3839C0.500977 27.2124 1.17255 27.8839 2.00098 27.8839H11.883C11.8837 27.8839 11.8843 27.8839 11.885 27.8839C11.8856 27.8839 11.8863 27.8839 11.887 27.8839H30.9991C31.8276 27.8839 32.4991 27.2124 32.4991 26.3839V20.332C32.4991 19.7797 32.0514 19.332 31.4991 19.332H31.499C29.935 19.332 28.6672 18.0641 28.6672 16.5001C28.6672 14.9362 29.935 13.6683 31.499 13.6683H31.4991C32.0514 13.6683 32.4991 13.2206 32.4991 12.6683V6.61597C32.4991 5.78754 31.8276 5.11597 30.9991 5.11597H11.885H2.00098ZM10.885 7.11597H2.50098V11.7719C4.68965 12.2325 6.33276 14.1745 6.33276 16.5001C6.33276 18.8258 4.68965 20.7678 2.50098 21.2284V25.8839H10.885V7.11597ZM12.885 25.8839V7.11597H30.4991V11.7719C28.3104 12.2324 26.6672 14.1744 26.6672 16.5001C26.6672 18.8259 28.3104 20.7679 30.4991 21.2284V25.8839H12.885Z" fill="#111827"/>
</svg>
