<svg width="33" height="32" viewBox="0 0 33 32" fill="none" xmlns="http://www.w3.org/2000/svg">
<path d="M22.6233 12.9362C25.1194 14.7338 28.1187 15.6988 31.1948 15.6939V9.57143C28.9215 9.57143 26.7413 8.66837 25.1339 7.06091C23.5264 5.45346 22.6234 3.27328 22.6234 1H16.5009V20.5918C16.5007 21.3587 16.2947 22.1115 15.9045 22.7717C15.5142 23.4319 14.9539 23.9753 14.2821 24.3451C13.6102 24.715 12.8515 24.8978 12.0849 24.8744C11.3184 24.8511 10.5721 24.6225 9.92398 24.2125C9.27587 23.8025 8.74965 23.2261 8.40022 22.5434C8.05079 21.8608 7.89094 21.0968 7.93736 20.3313C7.98378 19.5658 8.23476 18.8268 8.66412 18.1913C9.09348 17.5559 9.68549 17.0473 10.3784 16.7186L10.3785 10.3452C8.42939 10.6945 6.62035 11.5924 5.16367 12.9337C3.707 14.275 2.66313 16.004 2.15457 17.9177C1.64601 19.8314 1.69387 21.8505 2.29253 23.738C2.89118 25.6254 4.0158 27.303 5.53439 28.5738C7.05297 29.8445 8.90253 30.6558 10.866 30.9123C12.8294 31.1688 14.8253 30.8599 16.6194 30.022C18.4135 29.184 19.9313 27.8516 20.9948 26.1813C22.0583 24.511 22.6232 22.572 22.6234 20.5918L22.6233 12.9362Z" stroke="#111827" stroke-width="2" stroke-linecap="round" stroke-linejoin="round"/>
</svg>
