<svg width="32" height="32" viewBox="0 0 32 32" fill="none" xmlns="http://www.w3.org/2000/svg">
<path d="M20.8985 13.5489C22.8953 14.987 25.2948 15.759 27.7556 15.7551V10.8571C25.937 10.8571 24.1929 10.1347 22.9069 8.84873C21.621 7.56277 20.8985 5.81863 20.8985 4H16.0005V19.6735C16.0004 20.287 15.8356 20.8892 15.5234 21.4174C15.2112 21.9455 14.7629 22.3802 14.2255 22.6761C13.688 22.972 13.081 23.1182 12.4677 23.0996C11.8545 23.0809 11.2575 22.898 10.739 22.57C10.2205 22.242 9.79953 21.7809 9.51998 21.2348C9.24044 20.6886 9.11256 20.0775 9.14969 19.4651C9.18683 18.8527 9.38761 18.2614 9.7311 17.7531C10.0746 17.2447 10.5482 16.8378 11.1025 16.5749L11.1026 11.4762C9.54331 11.7556 8.09608 12.474 6.93074 13.547C5.7654 14.62 4.93031 16.0032 4.52346 17.5342C4.11661 19.0651 4.1549 20.6804 4.63383 22.1904C5.11275 23.7004 6.01244 25.0424 7.22731 26.059C8.44218 27.0756 9.92183 27.7246 11.4926 27.9298C13.0634 28.135 14.6601 27.888 16.0953 27.2176C17.5306 26.5472 18.7449 25.4813 19.5956 24.145C20.4464 22.8088 20.8984 21.2576 20.8985 19.6735L20.8985 13.5489Z" stroke="#1C1B1F" stroke-width="2" stroke-linecap="round" stroke-linejoin="round"/>
</svg>
