<svg width="33" height="33" viewBox="0 0 33 33" fill="none" xmlns="http://www.w3.org/2000/svg">
<path fill-rule="evenodd" clip-rule="evenodd" d="M13.0387 0.500854C12.4864 0.500854 12.0387 0.94857 12.0387 1.50085C12.0387 2.05314 12.4864 2.50085 13.0387 2.50085H19.9613C20.5136 2.50085 20.9613 2.05314 20.9613 1.50085C20.9613 0.94857 20.5136 0.500854 19.9613 0.500854H13.0387ZM16.5 7.11592C10.0429 7.11592 4.80844 12.3504 4.80844 18.8075C4.80844 25.2646 10.0429 30.4991 16.5 30.4991C22.9571 30.4991 28.1916 25.2646 28.1916 18.8075C28.1916 12.3504 22.9571 7.11592 16.5 7.11592ZM2.80844 18.8075C2.80844 11.2458 8.93836 5.11592 16.5 5.11592C24.0617 5.11592 30.1916 11.2458 30.1916 18.8075C30.1916 26.3691 24.0617 32.4991 16.5 32.4991C8.93836 32.4991 2.80844 26.3691 2.80844 18.8075ZM22.918 12.3896C23.3085 12.7801 23.3085 13.4133 22.918 13.8038L17.2071 19.5147C16.8166 19.9052 16.1834 19.9052 15.7929 19.5147C15.4024 19.1242 15.4024 18.491 15.7929 18.1005L21.5038 12.3896C21.8943 11.999 22.5275 11.999 22.918 12.3896Z" fill="#111827"/>
</svg>
