<svg width="33" height="32" viewBox="0 0 33 32" fill="none" xmlns="http://www.w3.org/2000/svg">
<path fill-rule="evenodd" clip-rule="evenodd" d="M10.0718 6.42908C4.78596 6.42908 0.500916 10.7141 0.500916 16C0.500916 21.2859 4.78596 25.5709 10.0718 25.5709H22.9282C28.214 25.5709 32.4991 21.2859 32.4991 16C32.4991 10.7141 28.214 6.42908 22.9282 6.42908H10.0718ZM2.50092 16C2.50092 11.8187 5.89053 8.42908 10.0718 8.42908H22.9282C27.1095 8.42908 30.4991 11.8187 30.4991 16C30.4991 20.1813 27.1095 23.5709 22.9282 23.5709H10.0718C5.89053 23.5709 2.50092 20.1813 2.50092 16ZM6.38621 16C6.38621 13.9636 8.03703 12.3128 10.0734 12.3128C12.1098 12.3128 13.7606 13.9636 13.7606 16C13.7606 18.0364 12.1098 19.6872 10.0734 19.6872C8.03703 19.6872 6.38621 18.0364 6.38621 16ZM10.0734 10.3128C6.93247 10.3128 4.38621 12.859 4.38621 16C4.38621 19.1409 6.93247 21.6872 10.0734 21.6872C13.2144 21.6872 15.7606 19.1409 15.7606 16C15.7606 12.859 13.2144 10.3128 10.0734 10.3128Z" fill="#111827"/>
</svg>
