<svg width="33" height="32" viewBox="0 0 33 32" fill="none" xmlns="http://www.w3.org/2000/svg">
<path fill-rule="evenodd" clip-rule="evenodd" d="M10.0718 6.42908C4.78596 6.42908 0.500916 10.7141 0.500916 16C0.500916 21.2859 4.78596 25.5709 10.0718 25.5709H22.9282C28.214 25.5709 32.4991 21.2859 32.4991 16C32.4991 10.7141 28.214 6.42908 22.9282 6.42908H10.0718ZM2.50092 16C2.50092 11.8187 5.89053 8.42908 10.0718 8.42908H22.9282C27.1095 8.42908 30.4991 11.8187 30.4991 16C30.4991 20.1813 27.1095 23.5709 22.9282 23.5709H10.0718C5.89053 23.5709 2.50092 20.1813 2.50092 16ZM19.2409 16C19.2409 13.9636 20.8917 12.3128 22.9281 12.3128C24.9645 12.3128 26.6153 13.9636 26.6153 16C26.6153 18.0364 24.9645 19.6872 22.9281 19.6872C20.8917 19.6872 19.2409 18.0364 19.2409 16ZM22.9281 10.3128C19.7871 10.3128 17.2409 12.859 17.2409 16C17.2409 19.1409 19.7871 21.6872 22.9281 21.6872C26.0691 21.6872 28.6153 19.1409 28.6153 16C28.6153 12.859 26.0691 10.3128 22.9281 10.3128Z" fill="#111827"/>
</svg>
