<svg width="33" height="32" viewBox="0 0 33 32" fill="none" xmlns="http://www.w3.org/2000/svg">
<path fill-rule="evenodd" clip-rule="evenodd" d="M6.90063 0.000915527C6.34834 0.000915527 5.90063 0.448631 5.90063 1.00092V12.0002H3.30078C2.7485 12.0002 2.30078 12.4479 2.30078 13.0002V16.9994C2.30078 21.7574 5.99295 25.6531 10.6685 25.9775L9.70341 30.803C9.64466 31.0968 9.72071 31.4014 9.91065 31.6331C10.1006 31.8648 10.3844 31.9991 10.684 31.9991H22.3161C22.6157 31.9991 22.8995 31.8648 23.0894 31.6331C23.2793 31.4014 23.3554 31.0968 23.2966 30.803L22.3316 25.9775C27.007 25.653 30.6991 21.7574 30.6991 16.9994V13.0002C30.6991 12.4479 30.2514 12.0002 29.6991 12.0002H27.0994V1.00092C27.0994 0.448631 26.6517 0.000915527 26.0994 0.000915527H6.90063ZM6.89721 14.0002C6.89835 14.0002 6.89949 14.0002 6.90063 14.0002H26.0994C26.1006 14.0002 26.1017 14.0002 26.1028 14.0002H28.6991V16.9994C28.6991 20.8654 25.5651 23.9994 21.6991 23.9994H11.3008C7.43478 23.9994 4.30078 20.8654 4.30078 16.9994V14.0002H6.89721ZM25.0994 12.0002V2.00092H7.90063V12.0002H25.0994ZM11.7004 4.80065C11.1481 4.80065 10.7004 5.24837 10.7004 5.80065C10.7004 6.35294 11.1481 6.80065 11.7004 6.80065H14.1003C14.6526 6.80065 15.1003 6.35294 15.1003 5.80065C15.1003 5.24837 14.6526 4.80065 14.1003 4.80065H11.7004ZM12.7037 25.9995L11.9038 29.9991H21.0963L20.2963 25.9995H12.7037Z" fill="#111827"/>
</svg>
