<svg width="32" height="32" viewBox="0 0 32 32" fill="none" xmlns="http://www.w3.org/2000/svg">
<path d="M8.61533 16.4615C9.38003 16.4615 9.99994 15.8416 9.99994 15.0769C9.99994 14.3122 9.38003 13.6923 8.61533 13.6923C7.85063 13.6923 7.23071 14.3122 7.23071 15.0769C7.23071 15.8416 7.85063 16.4615 8.61533 16.4615Z" fill="#1C1B1F"/>
<path d="M8.61539 24.3077C11.1644 24.3077 13.2308 20.1749 13.2308 15.0769C13.2308 9.97889 11.1644 5.84613 8.61539 5.84613C6.06638 5.84613 4 9.97889 4 15.0769C4 20.1749 6.06638 24.3077 8.61539 24.3077Z" stroke="#1C1B1F" stroke-width="2" stroke-linecap="round" stroke-linejoin="round"/>
<path d="M28.0001 26.1538V27.1538C28.5523 27.1538 29.0001 26.7061 29.0001 26.1538H28.0001ZM13.2308 26.1538H12.2308C12.2308 26.7061 12.6785 27.1538 13.2308 27.1538V26.1538ZM8.57104 6.84613H20.0001V4.84613H8.57104V6.84613ZM27.0001 13.8461V26.1538H29.0001V13.8461H27.0001ZM28.0001 25.1538H13.2308V27.1538H28.0001V25.1538ZM14.2308 26.1538V14.319H12.2308V26.1538H14.2308ZM14.2308 14.319C14.2308 11.7662 13.6293 9.47188 12.6639 7.7823C11.7255 6.1399 10.2952 4.84613 8.57104 4.84613V6.84613C9.23284 6.84613 10.1325 7.38326 10.9274 8.77452C11.6954 10.1186 12.2308 12.0607 12.2308 14.319H14.2308ZM20.0001 6.84613C23.866 6.84613 27.0001 9.98014 27.0001 13.8461H29.0001C29.0001 8.87557 24.9706 4.84613 20.0001 4.84613V6.84613Z" fill="#1C1B1F"/>
<path d="M13.2924 15.0021H27.8276" stroke="#1C1B1F" stroke-width="2" stroke-linecap="round" stroke-dasharray="4 4"/>
</svg>
