<svg width="33" height="32" viewBox="0 0 33 32" fill="none" xmlns="http://www.w3.org/2000/svg">
<path fill-rule="evenodd" clip-rule="evenodd" d="M2.50085 14.8462C2.50085 11.7817 3.12404 9.05682 4.08495 7.13501C5.06669 5.17153 6.23788 4.32403 7.24196 4.30868C7.79265 4.3171 8.41732 4.57603 9.03963 5.12989C9.52801 5.58762 10.0106 6.24724 10.4545 7.13501C11.4114 9.04869 12.0333 11.7587 12.0386 14.8074V14.8851C12.0333 17.9337 11.4114 20.6437 10.4545 22.5574C9.4637 24.539 8.27993 25.384 7.26973 25.384C6.25953 25.384 5.07575 24.539 4.08495 22.5574C3.12404 20.6356 2.50085 17.9107 2.50085 14.8462ZM2.29609 6.24059C3.38386 4.06505 5.06493 2.33812 7.21422 2.30885V2.30847H7.26973H23.499C28.4695 2.30847 32.499 6.33791 32.499 11.3085V28.6915C32.499 29.2438 32.0513 29.6915 31.499 29.6915H13.0386C12.4863 29.6915 12.0386 29.2438 12.0386 28.6915V23.8431C10.9396 25.8491 9.31452 27.384 7.26973 27.384C5.09387 27.384 3.3932 25.6461 2.29609 23.4519C1.16907 21.1978 0.500854 18.1539 0.500854 14.8462C0.500854 11.5386 1.16907 8.49463 2.29609 6.24059ZM14.038 13.7528H15.3866C15.9389 13.7528 16.3866 14.2005 16.3866 14.7528C16.3866 15.3051 15.9389 15.7528 15.3866 15.7528H14.0386V27.6915H30.499V15.7528H29.0125C28.4602 15.7528 28.0125 15.3051 28.0125 14.7528C28.0125 14.2005 28.4602 13.7528 29.0125 13.7528H30.499V11.3085C30.499 7.44248 27.365 4.30847 23.499 4.30847H11.0277C11.4292 4.7703 11.7929 5.29224 12.113 5.85252C13.2767 7.8892 14.0155 10.6578 14.038 13.7528ZM9.0003 14.8462C9.0003 15.8021 8.22546 16.5769 7.26964 16.5769C6.31382 16.5769 5.53898 15.8021 5.53898 14.8462C5.53898 13.8904 6.31382 13.1156 7.26964 13.1156C8.22546 13.1156 9.0003 13.8904 9.0003 14.8462ZM19.9286 13.7528C19.3763 13.7528 18.9286 14.2005 18.9286 14.7528C18.9286 15.3051 19.3763 15.7528 19.9286 15.7528H24.4705C25.0228 15.7528 25.4705 15.3051 25.4705 14.7528C25.4705 14.2005 25.0228 13.7528 24.4705 13.7528H19.9286Z" fill="#111827"/>
</svg>
