<svg width="33" height="32" viewBox="0 0 33 32" fill="none" xmlns="http://www.w3.org/2000/svg">
<path fill-rule="evenodd" clip-rule="evenodd" d="M0.793748 16.7071C0.403223 16.3166 0.403223 15.6834 0.793748 15.2929L15.7928 0.293809C16.1834 -0.0967153 16.8165 -0.0967157 17.207 0.293809L32.2061 15.2929C32.5967 15.6834 32.5967 16.3166 32.2061 16.7071L17.207 31.7062C16.8165 32.0967 16.1834 32.0967 15.7928 31.7062L0.793748 16.7071ZM2.91507 16L16.4999 29.5849L30.0848 16L16.4999 2.41513L2.91507 16ZM17.7879 11.5431C18.1785 11.1525 18.8116 11.1525 19.2021 11.5431L22.8984 15.2393C23.1106 15.4227 23.2448 15.6938 23.2448 15.9962C23.2448 15.9989 23.2448 16.0016 23.2448 16.0043C23.2437 16.2588 23.1461 16.5129 22.9519 16.7071L19.2021 20.4568C18.8116 20.8473 18.1785 20.8473 17.7879 20.4568C17.3974 20.0663 17.3974 19.4331 17.7879 19.0426L19.8343 16.9962L11.755 16.9962V19.7497C11.755 20.302 11.3073 20.7497 10.755 20.7497C10.2028 20.7497 9.75505 20.302 9.75505 19.7497V15.9962C9.75505 15.4439 10.2028 14.9962 10.755 14.9962L19.8269 14.9962L17.7879 12.9573C17.3974 12.5668 17.3974 11.9336 17.7879 11.5431Z" fill="#111827"/>
</svg>
