<svg width="33" height="32" viewBox="0 0 33 32" fill="none" xmlns="http://www.w3.org/2000/svg">
<path fill-rule="evenodd" clip-rule="evenodd" d="M14.2323 1.73157C13.8066 1.73157 13.4276 2.00102 13.2878 2.40305L10.1116 11.5346C10.0815 11.5982 10.0579 11.6654 10.0417 11.7354L4.29111 28.2684H1.54065C0.988365 28.2684 0.540649 28.7161 0.540649 29.2684C0.540649 29.8207 0.988365 30.2684 1.54065 30.2684H31.5388C32.0911 30.2684 32.5388 29.8207 32.5388 29.2684C32.5388 28.7161 32.0911 28.2684 31.5388 28.2684H28.7885L23.0371 11.7331C23.0211 11.6647 22.9981 11.599 22.9688 11.5367L19.7919 2.40305C19.652 2.00102 19.273 1.73157 18.8474 1.73157H14.2323ZM20.6513 10.9618L18.1364 3.73157H14.9432L12.4283 10.9618H20.6513ZM11.7327 12.9618L9.21781 20.1921H23.8618L21.347 12.9618H11.7327ZM24.5575 22.1921H8.52216L6.40866 28.2684H26.671L24.5575 22.1921Z" fill="#111827"/>
</svg>
