<svg width="33" height="32" viewBox="0 0 33 32" fill="none" xmlns="http://www.w3.org/2000/svg">
<path fill-rule="evenodd" clip-rule="evenodd" d="M4.38538 0.000915527C3.83309 0.000915527 3.38538 0.448631 3.38538 1.00092V6.76973V14.8461V26.3838C3.38538 26.9361 3.83309 27.3838 4.38538 27.3838H9.88508L7.62373 30.399C7.29236 30.8408 7.3819 31.4676 7.82373 31.799C8.26556 32.1304 8.89236 32.0408 9.22373 31.599L12.3851 27.3838H20.6151L23.7764 31.599C24.1078 32.0408 24.7346 32.1304 25.1764 31.799C25.6183 31.4676 25.7078 30.8408 25.3764 30.399L23.1151 27.3838H28.6145C29.1668 27.3838 29.6145 26.9361 29.6145 26.3838V14.8461V6.76973V1.00092C29.6145 0.448631 29.1668 0.000915527 28.6145 0.000915527H4.38538ZM27.6145 5.76973V2.00092H5.38538V5.76973H27.6145ZM5.38538 7.76973H27.6145V13.8461H5.38538V7.76973ZM5.38538 15.8461V25.3838H11.8832C11.8849 25.3838 11.8867 25.3838 11.8884 25.3838H21.1118C21.1135 25.3838 21.1152 25.3838 21.117 25.3838H27.6145V15.8461H5.38538ZM11.885 21.1919C11.885 22.1477 11.1102 22.9225 10.1544 22.9225C9.19857 22.9225 8.42373 22.1477 8.42373 21.1919C8.42373 20.236 9.19857 19.4612 10.1544 19.4612C11.1102 19.4612 11.885 20.236 11.885 21.1919ZM22.8458 22.9225C23.8016 22.9225 24.5764 22.1477 24.5764 21.1919C24.5764 20.236 23.8016 19.4612 22.8458 19.4612C21.89 19.4612 21.1151 20.236 21.1151 21.1919C21.1151 22.1477 21.89 22.9225 22.8458 22.9225Z" fill="#111827"/>
</svg>
