<svg width="33" height="32" viewBox="0 0 33 32" fill="none" xmlns="http://www.w3.org/2000/svg">
<path fill-rule="evenodd" clip-rule="evenodd" d="M4.38538 0.000854492C3.83309 0.000854492 3.38538 0.44857 3.38538 1.00085V14.846V26.3838C3.38538 26.9361 3.83309 27.3838 4.38538 27.3838H9.88505L7.62374 30.3989C7.29237 30.8407 7.38191 31.4675 7.82374 31.7989C8.26557 32.1303 8.89237 32.0407 9.22374 31.5989L12.3851 27.3838H20.6152L23.7765 31.5989C24.1079 32.0407 24.7347 32.1303 25.1765 31.7989C25.6183 31.4675 25.7079 30.8407 25.3765 30.3989L23.1152 27.3838H28.6146C29.1669 27.3838 29.6146 26.9361 29.6146 26.3838V14.846V1.00085C29.6146 0.44857 29.1669 0.000854492 28.6146 0.000854492H4.38538ZM27.6146 13.846V2.00085H5.38538V13.846H27.6146ZM5.38538 15.846H27.6146V25.3838H21.1259C21.1182 25.3837 21.1106 25.3837 21.1029 25.3838H11.8974C11.8897 25.3837 11.882 25.3837 11.8743 25.3838H5.38538V15.846ZM11.8851 21.1919C11.8851 22.1477 11.1102 22.9226 10.1544 22.9226C9.19858 22.9226 8.42374 22.1477 8.42374 21.1919C8.42374 20.2361 9.19858 19.4612 10.1544 19.4612C11.1102 19.4612 11.8851 20.2361 11.8851 21.1919ZM22.8458 22.9226C23.8016 22.9226 24.5765 22.1477 24.5765 21.1919C24.5765 20.2361 23.8016 19.4612 22.8458 19.4612C21.89 19.4612 21.1152 20.2361 21.1152 21.1919C21.1152 22.1477 21.89 22.9226 22.8458 22.9226Z" fill="#111827"/>
</svg>
