<svg width="33" height="33" viewBox="0 0 33 33" fill="none" xmlns="http://www.w3.org/2000/svg">
<path fill-rule="evenodd" clip-rule="evenodd" d="M12.3862 0.499923C12.6624 0.0216302 13.274 -0.142245 13.7522 0.133897L16.9746 1.9943C17.0269 2.02255 17.0764 2.05533 17.1226 2.09212C17.505 2.39497 17.6179 2.94034 17.3667 3.37542L15.4912 6.62388C15.2151 7.10217 14.6035 7.26605 14.1252 6.98991C13.6469 6.71376 13.483 6.10217 13.7592 5.62388L14.6979 3.99806C8.33659 4.87591 3.43774 10.3344 3.43774 16.937C3.43774 20.3378 4.73608 23.4331 6.86587 25.7579C7.23894 26.1652 7.21125 26.7977 6.80402 27.1708C6.39679 27.5439 5.76423 27.5162 5.39116 27.1089C2.93677 24.4298 1.43774 20.8573 1.43774 16.937C1.43774 9.70158 6.53945 3.65771 13.3419 2.20638L12.7522 1.86595C12.274 1.58981 12.1101 0.978215 12.3862 0.499923ZM22.2277 4.05121C22.4876 3.56394 23.0934 3.37968 23.5807 3.63965C28.3279 6.17239 31.5623 11.1762 31.5623 16.937C31.5623 20.6875 30.1902 24.1201 27.922 26.7563C27.5617 27.175 26.9304 27.2223 26.5117 26.8621C26.0931 26.5019 26.0457 25.8705 26.4059 25.4519C28.3738 23.1648 29.5623 20.191 29.5623 16.937C29.5623 11.9437 26.7608 7.60319 22.6392 5.40421C22.1519 5.14424 21.9677 4.53848 22.2277 4.05121ZM16.5 9.95483C12.3635 9.95483 9.01015 13.3082 9.01015 17.4447C9.01015 20.391 10.7113 22.9419 13.1894 24.1653C13.5307 24.3338 13.7468 24.6814 13.7468 25.062V27.4637H15.5001V22.458L11.894 18.8519C11.5035 18.4614 11.5035 17.8282 11.894 17.4377C12.2845 17.0472 12.9177 17.0472 13.3082 17.4377L16.5 20.6296L19.6919 17.4377C20.0824 17.0472 20.7156 17.0472 21.1061 17.4377C21.4966 17.8282 21.4966 18.4614 21.1061 18.8519L17.5001 22.458V27.4637H19.2437V25.0667C19.2437 24.6856 19.4603 24.3377 19.8022 24.1694C22.2849 22.9477 23.9899 20.3944 23.9899 17.4447C23.9899 13.3082 20.6365 9.95483 16.5 9.95483ZM7.01015 17.4447C7.01015 12.2036 11.2589 7.95483 16.5 7.95483C21.7411 7.95483 25.9899 12.2036 25.9899 17.4447C25.9899 20.9592 24.0792 24.0259 21.2437 25.6655V27.4637C21.2437 28.5683 20.3483 29.4637 19.2437 29.4637H13.7468C12.6422 29.4637 11.7468 28.5683 11.7468 27.4637V25.66C8.91653 24.019 7.01015 20.9553 7.01015 17.4447ZM11.7517 31.0105C11.7517 30.4583 12.1994 30.0105 12.7517 30.0105H20.2482C20.8005 30.0105 21.2482 30.4583 21.2482 31.0105C21.2482 31.5628 20.8005 32.0105 20.2482 32.0105H12.7517C12.1994 32.0105 11.7517 31.5628 11.7517 31.0105Z" fill="#111827"/>
</svg>
