<svg width="33" height="32" viewBox="0 0 33 32" fill="none" xmlns="http://www.w3.org/2000/svg">
<path fill-rule="evenodd" clip-rule="evenodd" d="M12.3862 0.499923C12.6624 0.0216302 13.274 -0.142245 13.7522 0.133897L16.9746 1.9943C17.0269 2.02255 17.0764 2.05533 17.1226 2.09212C17.505 2.39497 17.6179 2.94034 17.3667 3.37542L15.4912 6.62388C15.2151 7.10217 14.6035 7.26605 14.1252 6.98991C13.6469 6.71376 13.483 6.10217 13.7592 5.62388L14.6979 3.99806C8.33659 4.87591 3.43774 10.3344 3.43774 16.937C3.43774 20.3378 4.73608 23.4331 6.86587 25.7579C7.23894 26.1652 7.21125 26.7977 6.80402 27.1708C6.39679 27.5439 5.76423 27.5162 5.39116 27.1089C2.93677 24.4298 1.43774 20.8573 1.43774 16.937C1.43774 9.70158 6.53945 3.65771 13.3419 2.20638L12.7522 1.86595C12.274 1.58981 12.1101 0.978215 12.3862 0.499923ZM22.2277 4.05121C22.4876 3.56394 23.0934 3.37968 23.5807 3.63965C28.3279 6.17239 31.5623 11.1762 31.5623 16.937C31.5623 20.6875 30.1902 24.1201 27.922 26.7563C27.5617 27.175 26.9304 27.2223 26.5117 26.8621C26.0931 26.5019 26.0457 25.8705 26.4059 25.4519C28.3738 23.1648 29.5623 20.191 29.5623 16.937C29.5623 11.9437 26.7608 7.60319 22.6392 5.40421C22.1519 5.14424 21.9677 4.53848 22.2277 4.05121ZM16.4997 9.92254C12.3585 9.92254 9.00147 13.2796 9.00147 17.4207C9.00147 20.3704 10.7045 22.9242 13.1855 24.1489C13.5268 24.3174 13.7429 24.665 13.7429 25.0456V27.4505H19.2471V25.0502C19.2471 24.6691 19.4637 24.3212 19.8056 24.1529C22.291 22.9298 23.9979 20.3737 23.9979 17.4207C23.9979 13.2796 20.6408 9.92254 16.4997 9.92254ZM7.00147 17.4207C7.00147 12.175 11.254 7.92254 16.4997 7.92254C21.7454 7.92254 25.9979 12.175 25.9979 17.4207C25.9979 20.9386 24.0854 24.008 21.2471 25.649V27.4505C21.2471 28.5551 20.3517 29.4505 19.2471 29.4505H13.7429C12.6383 29.4505 11.7429 28.5551 11.7429 27.4505V25.6436C8.9098 24.0013 7.00147 20.9347 7.00147 17.4207ZM17.53 11.3873C16.9855 11.2948 16.4691 11.6611 16.3766 12.2056C16.284 12.7501 16.6504 13.2665 17.1949 13.3591C18.0304 13.5011 18.8011 13.899 19.4008 14.4979C20.0004 15.0968 20.3993 15.8671 20.5423 16.7024C20.6355 17.2468 21.1524 17.6125 21.6968 17.5193C22.2411 17.426 22.6068 16.9092 22.5136 16.3648C22.3007 15.1212 21.7068 13.9744 20.8141 13.0828C19.9214 12.1912 18.7739 11.5988 17.53 11.3873ZM12.748 29.9999C12.1957 29.9999 11.748 30.4476 11.748 30.9999C11.748 31.5522 12.1957 31.9999 12.748 31.9999H20.2519C20.8042 31.9999 21.2519 31.5522 21.2519 30.9999C21.2519 30.4476 20.8042 29.9999 20.2519 29.9999H12.748Z" fill="#111827"/>
</svg>
