<svg width="33" height="32" viewBox="0 0 33 32" fill="none" xmlns="http://www.w3.org/2000/svg">
<path fill-rule="evenodd" clip-rule="evenodd" d="M6.89375 0.697651C7.02579 0.282673 7.4112 0.000854492 7.84667 0.000854492L25.1533 0.000855148C25.5887 0.000855148 25.9741 0.282674 26.1062 0.697652L30.1444 13.3891C30.198 13.5578 30.2058 13.7372 30.1677 13.909C30.1535 14.0268 30.1184 14.1397 30.0656 14.243L26.1062 26.687C25.9741 27.102 25.5887 27.3838 25.1533 27.3838H23.115L25.3763 30.3989C25.7076 30.8407 25.6181 31.4675 25.1763 31.7989C24.7344 32.1303 24.1076 32.0407 23.7763 31.5989L20.615 27.3838H16.4999H12.3848L9.22354 31.5989C8.89217 32.0407 8.26536 32.1303 7.82354 31.7989C7.38171 31.4675 7.29216 30.8407 7.62354 30.3989L9.88485 27.3838H7.84667C7.41119 27.3838 7.02578 27.102 6.89375 26.687L2.85555 13.9955C2.79278 13.7983 2.79278 13.5864 2.85555 13.3891L6.89375 0.697651ZM27.9221 13.001L24.422 2.00085L8.57789 2.00085L5.08245 12.9865L16.3975 15.1051L27.9221 13.001ZM5.29327 15.0607L8.57789 25.3838H11.8742H11.897H15.4999V16.9718L5.29327 15.0607ZM17.4999 16.9369L27.7024 15.0741L24.422 25.3838H21.1256H21.1028H17.4999V16.9369ZM11.8847 8.07722C11.3324 8.07722 10.8847 8.52493 10.8847 9.07722C10.8847 9.6295 11.3324 10.0772 11.8847 10.0772H21.1149C21.6672 10.0772 22.1149 9.6295 22.1149 9.07722C22.1149 8.52493 21.6672 8.07722 21.1149 8.07722H11.8847Z" fill="#111827"/>
</svg>
