<svg width="33" height="32" viewBox="0 0 33 32" fill="none" xmlns="http://www.w3.org/2000/svg">
<path fill-rule="evenodd" clip-rule="evenodd" d="M10.7306 1.73114C11.2829 1.73114 11.7306 2.17886 11.7306 2.73114V5.19255H15.3461H19.9613C20.5136 5.19255 20.9613 5.64026 20.9613 6.19255C20.9613 6.74483 20.5136 7.19255 19.9613 7.19255H16.3124C16.0789 10.6537 14.6389 13.9326 12.2323 16.4503C12.3349 16.5275 12.4388 16.6033 12.5439 16.6776C14.5475 18.0934 16.9109 18.9036 19.3531 19.0191L22.5286 12.6682C22.698 12.3294 23.0442 12.1154 23.423 12.1154C23.8018 12.1154 24.148 12.3294 24.3174 12.6682L32.394 28.8215C32.641 29.3154 32.4408 29.9161 31.9468 30.1631C31.4528 30.4101 30.8522 30.2099 30.6052 29.7159L28.5739 25.6533H18.2721L16.2408 29.7159C15.9938 30.2099 15.3931 30.4101 14.8991 30.1631C14.4052 29.9161 14.2049 29.3154 14.4519 28.8215L16.7428 24.2398C16.7529 24.2175 16.7638 24.1957 16.7755 24.1743L18.3877 20.9499C15.8768 20.6826 13.4661 19.7782 11.3897 18.311C11.1657 18.1527 10.9465 17.9885 10.7324 17.8187C8.12001 19.8932 4.86928 21.0382 1.50049 21.0382C0.948204 21.0382 0.500488 20.5905 0.500488 20.0382C0.500488 19.4859 0.948204 19.0382 1.50049 19.0382C4.30588 19.0382 7.01667 18.1205 9.23149 16.4514C7.78541 14.9406 6.66704 13.1333 5.96146 11.1419C5.77701 10.6213 6.0495 10.0498 6.57008 9.86531C7.09065 9.68087 7.66218 9.95336 7.84663 10.4739C8.46613 12.2224 9.45336 13.8068 10.7314 15.1257C12.8155 12.9722 14.0753 10.164 14.3072 7.19255H1.50049C0.948204 7.19255 0.500488 6.74483 0.500488 6.19255C0.500488 5.64026 0.948204 5.19255 1.50049 5.19255H9.73058V2.73114C9.73058 2.17886 10.1783 1.73114 10.7306 1.73114ZM27.5739 23.6533L23.423 15.3515L19.2721 23.6533H27.5739Z" fill="#111827"/>
</svg>
