<svg width="33" height="32" viewBox="0 0 33 32" fill="none" xmlns="http://www.w3.org/2000/svg">
<path fill-rule="evenodd" clip-rule="evenodd" d="M9.251 1.00092C9.251 0.448631 9.69871 0.000915527 10.251 0.000915527H22.7502C23.3025 0.000915527 23.7502 0.448631 23.7502 1.00092C23.7502 1.5532 23.3025 2.00092 22.7502 2.00092H10.251C9.69871 2.00092 9.251 1.5532 9.251 1.00092ZM27.7511 5.0006H30.2492C30.8014 5.0006 31.2492 5.44832 31.2492 6.0006C31.2492 6.55289 30.8014 7.0006 30.2492 7.0006H28.7499V30.9991C28.7499 31.5513 28.3022 31.9991 27.7499 31.9991H5.25131C4.69902 31.9991 4.25131 31.5513 4.25131 30.9991V7.00061L2.75085 7.00061C2.19857 7.00061 1.75085 6.5529 1.75085 6.00061C1.75085 5.44833 2.19857 5.00061 2.75085 5.00061L5.24754 5.00061C5.2488 5.0006 5.25005 5.0006 5.25131 5.0006H27.7499C27.7503 5.0006 27.7507 5.0006 27.7511 5.0006ZM6.25131 7.0006V29.9991H26.7499V7.0006H6.25131Z" fill="#111827"/>
</svg>
