<svg width="33" height="32" viewBox="0 0 33 32" fill="none" xmlns="http://www.w3.org/2000/svg">
<path fill-rule="evenodd" clip-rule="evenodd" d="M10.251 0.000915527C9.69871 0.000915527 9.251 0.448631 9.251 1.00092V5.0006H5.25131L5.24754 5.00061L2.75085 5.00061C2.19857 5.00061 1.75085 5.44833 1.75085 6.00061C1.75085 6.5529 2.19857 7.00061 2.75085 7.00061L4.25131 7.00061V30.9991C4.25131 31.5513 4.69902 31.9991 5.25131 31.9991H27.7499C28.3022 31.9991 28.7499 31.5513 28.7499 30.9991V7.0006H30.2492C30.8014 7.0006 31.2492 6.55289 31.2492 6.0006C31.2492 5.44832 30.8014 5.0006 30.2492 5.0006H27.7511H27.7499H23.7502V1.00092C23.7502 0.448631 23.3025 0.000915527 22.7502 0.000915527H10.251ZM10.246 7.0006C10.2476 7.00061 10.2493 7.00062 10.251 7.00062H22.7502C22.7519 7.00062 22.7536 7.00061 22.7553 7.0006H26.7499V29.9991H6.25131V7.0006H10.246ZM21.7502 5.00062V2.00092H11.251V5.0006L21.7502 5.00062ZM12.7508 12.5001C13.3031 12.5001 13.7508 12.9478 13.7508 13.5001V23.4995C13.7508 24.0518 13.3031 24.4995 12.7508 24.4995C12.1986 24.4995 11.7508 24.0518 11.7508 23.4995V13.5001C11.7508 12.9478 12.1986 12.5001 12.7508 12.5001ZM21.2504 23.4995V13.5001C21.2504 12.9478 20.8027 12.5001 20.2504 12.5001C19.6981 12.5001 19.2504 12.9478 19.2504 13.5001V23.4995C19.2504 24.0518 19.6981 24.4995 20.2504 24.4995C20.8027 24.4995 21.2504 24.0518 21.2504 23.4995Z" fill="#111827"/>
</svg>
