<svg width="33" height="32" viewBox="0 0 33 32" fill="none" xmlns="http://www.w3.org/2000/svg">
<path fill-rule="evenodd" clip-rule="evenodd" d="M1.50092 0.000915527C0.948631 0.000915527 0.500916 0.448631 0.500916 1.00092V21.5397V30.9991C0.500916 31.5514 0.948631 31.9991 1.50092 31.9991H31.4991C32.0514 31.9991 32.4991 31.5514 32.4991 30.9991V21.5397V1.00092C32.4991 0.448631 32.0514 0.000915527 31.4991 0.000915527H1.50092ZM30.4991 20.5397V2.00092H2.50092V20.5397H8.08068C8.32768 20.5397 8.56594 20.6311 8.74955 20.7963L12.9216 24.5503H19.7664L23.5066 20.8307C23.694 20.6443 23.9475 20.5397 24.2118 20.5397H30.4991ZM2.50092 22.5397H7.69702L11.8691 26.2937C12.0527 26.4589 12.291 26.5503 12.538 26.5503H20.179C20.4433 26.5503 20.6968 26.4457 20.8842 26.2593L24.6244 22.5397H30.4991V29.9991H2.50092V22.5397Z" fill="#111827"/>
</svg>
