<svg width="32" height="33" viewBox="0 0 32 33" fill="none" xmlns="http://www.w3.org/2000/svg">
<path d="M16 28.5V11.8831" stroke="#1C1B1F" stroke-width="2" stroke-linecap="round" stroke-linejoin="round"/>
<path d="M16 19.2683L10.461 16.4988" stroke="#1C1B1F" stroke-width="2" stroke-linecap="round" stroke-linejoin="round"/>
<path d="M16 16.499L21.539 13.7295" stroke="#1C1B1F" stroke-width="2" stroke-linecap="round" stroke-linejoin="round"/>
<path d="M16 21.2206L16.802 20.6233L16 19.5465L15.198 20.6233L16 21.2206ZM9.27792 10.6723L9.47888 11.6519L10.2173 11.5004L10.275 10.7488L9.27792 10.6723ZM22.6202 10.6522L21.6233 10.7317L21.6841 11.493L22.4345 11.6348L22.6202 10.6522ZM15.198 20.6233C14.1588 22.0186 12.4996 22.9192 10.6298 22.9192V24.9192C13.1582 24.9192 15.4016 23.6982 16.802 21.8179L15.198 20.6233ZM10.6298 22.9192C7.48628 22.9192 4.93799 20.3709 4.93799 17.2274H2.93799C2.93799 21.4755 6.38171 24.9192 10.6298 24.9192V22.9192ZM4.93799 17.2274C4.93799 14.479 6.88699 12.1836 9.47888 11.6519L9.07697 9.69266C5.5734 10.4114 2.93799 13.5105 2.93799 17.2274H4.93799ZM10.275 10.7488C10.5004 7.81286 12.9555 5.5 15.9498 5.5V3.5C11.9023 3.5 8.58569 6.62569 8.28086 10.5957L10.275 10.7488ZM15.9498 5.5C18.9383 5.5 21.3897 7.80388 21.6233 10.7317L23.617 10.5726C23.3011 6.61358 19.9896 3.5 15.9498 3.5V5.5ZM22.4345 11.6348C25.0694 12.1326 27.0621 14.4484 27.0621 17.2274H29.0621C29.0621 13.4693 26.3678 10.3425 22.8058 9.66955L22.4345 11.6348ZM27.0621 17.2274C27.0621 20.3709 24.5138 22.9192 21.3703 22.9192V24.9192C25.6183 24.9192 29.0621 21.4755 29.0621 17.2274H27.0621ZM21.3703 22.9192C19.5005 22.9192 17.8413 22.0186 16.802 20.6233L15.198 21.8179C16.5984 23.6982 18.8419 24.9192 21.3703 24.9192V22.9192Z" fill="#1C1B1F"/>
</svg>
