<svg width="33" height="33" viewBox="0 0 33 33" fill="none" xmlns="http://www.w3.org/2000/svg">
<path fill-rule="evenodd" clip-rule="evenodd" d="M16.5001 0.500977C16.8449 0.500977 17.1654 0.678597 17.3481 0.97098L26.0643 14.917C26.2569 15.2252 26.2671 15.6138 26.0909 15.9317C25.9147 16.2497 25.5798 16.447 25.2163 16.447H21.9466L28.2287 24.4537C28.4649 24.7548 28.5086 25.1643 28.3412 25.5084C28.1737 25.8525 27.8246 26.071 27.4419 26.071H17.5V31.4991C17.5 32.0514 17.0523 32.4991 16.5 32.4991C15.9477 32.4991 15.5 32.0514 15.5 31.4991V26.071H5.55811C5.17542 26.071 4.82628 25.8525 4.65887 25.5084C4.49146 25.1643 4.53514 24.7548 4.77137 24.4537L11.0534 16.447H7.78391C7.42038 16.447 7.08549 16.2497 6.90927 15.9317C6.73304 15.6138 6.74324 15.2252 6.93591 14.917L15.6521 0.97098C15.8348 0.678597 16.1553 0.500977 16.5001 0.500977ZM13.5955 16.447L7.61376 24.071H16.4914C16.4943 24.0709 16.4972 24.0709 16.5 24.0709C16.5029 24.0709 16.5058 24.0709 16.5086 24.071H25.3863L19.4045 16.447H13.5955ZM16.5001 3.38778L9.58815 14.447H23.412L16.5001 3.38778Z" fill="#111827"/>
</svg>
