<svg width="33" height="32" viewBox="0 0 33 32" fill="none" xmlns="http://www.w3.org/2000/svg">
<path fill-rule="evenodd" clip-rule="evenodd" d="M20.8995 2.80078C20.8995 2.2485 21.3472 1.80078 21.8995 1.80078H31.4989C32.0512 1.80078 32.4989 2.2485 32.4989 2.80078V12.4002C32.4989 12.9525 32.0512 13.4002 31.4989 13.4002H21.8995C21.3472 13.4002 20.8995 12.9525 20.8995 12.4002V8.55625H17.4033V23.3917H20.8995V19.5998C20.8995 19.0476 21.3472 18.5998 21.8995 18.5998H31.4989C32.0512 18.5998 32.4989 19.0476 32.4989 19.5998V29.1992C32.4989 29.7515 32.0512 30.1992 31.4989 30.1992H21.8995C21.3472 30.1992 20.8995 29.7515 20.8995 29.1992V25.3917H16.4033C15.851 25.3917 15.4033 24.944 15.4033 24.3917V17.0004L10.9002 17.0001V20.1997C10.9002 20.752 10.4525 21.1997 9.9002 21.1997H1.50073C0.948448 21.1997 0.500732 20.752 0.500732 20.1997V11.8002C0.500732 11.2479 0.948448 10.8002 1.50073 10.8002H9.9002C10.4525 10.8002 10.9002 11.2479 10.9002 11.8002V15.0001L15.4033 15.0004V7.55625C15.4033 7.00396 15.851 6.55625 16.4033 6.55625H20.8995V2.80078ZM22.8995 3.80078V11.4002H30.4989V3.80078H22.8995ZM22.8995 20.5998V28.1992H30.4989V20.5998H22.8995ZM2.50073 19.1997V12.8002H8.9002V19.1997H2.50073Z" fill="#111827"/>
</svg>
