<svg width="33" height="33" viewBox="0 0 33 33" fill="none" xmlns="http://www.w3.org/2000/svg">
<path fill-rule="evenodd" clip-rule="evenodd" d="M9.09499 9.29204C9.38672 5.49315 12.563 2.50073 16.4373 2.50073C20.304 2.50073 23.4755 5.48155 23.7778 9.26993L23.8386 10.0312L24.589 10.173C27.9982 10.8171 30.5765 13.813 30.5765 17.4089C30.5765 21.476 27.2795 24.7731 23.2124 24.7731C20.9085 24.7731 18.8517 23.7161 17.5 22.0569V19.9806C17.5002 19.9673 17.5002 19.9541 17.5 19.9408V17.1166L23.8705 13.9313C24.3644 13.6843 24.5647 13.0837 24.3177 12.5897C24.0707 12.0957 23.47 11.8955 22.976 12.1425L17.5 14.8805V10.7291C17.5 10.1768 17.0522 9.72912 16.5 9.72912C15.9477 9.72912 15.5 10.1768 15.5 10.7291V16.4784C15.4997 16.4923 15.4997 16.5063 15.5 16.5202V18.3419L10.0239 15.6039C9.52989 15.3569 8.92921 15.5571 8.68222 16.0511C8.43524 16.5451 8.63546 17.1457 9.12944 17.3927L15.5 20.578V22.0569C14.1482 23.7161 12.0914 24.7731 9.78758 24.7731C5.72046 24.7731 2.4234 21.476 2.4234 17.4089C2.4234 13.8526 4.94529 10.883 8.29888 10.1951L9.03727 10.0436L9.09499 9.29204ZM15.5 24.8293C13.9196 26.0475 11.9383 26.7731 9.78758 26.7731C4.61589 26.7731 0.423401 22.5806 0.423401 17.4089C0.423401 13.1394 3.27981 9.53911 7.18535 8.41131C7.88418 3.9295 11.7599 0.500732 16.4373 0.500732C21.1018 0.500732 24.9691 3.91071 25.6834 8.37445C29.6561 9.45879 32.5765 13.0918 32.5765 17.4089C32.5765 22.5806 28.3841 26.7731 23.2124 26.7731C21.0617 26.7731 19.0803 26.0475 17.5 24.8293V31.499C17.5 32.0513 17.0522 32.499 16.5 32.499C15.9477 32.499 15.5 32.0513 15.5 31.499V24.8293Z" fill="#111827"/>
</svg>
