<svg width="33" height="32" viewBox="0 0 33 32" fill="none" xmlns="http://www.w3.org/2000/svg">
<path fill-rule="evenodd" clip-rule="evenodd" d="M31.7308 8.75949C32.1714 8.86399 32.4991 9.25998 32.4991 9.73252V17.4011C32.4991 17.9534 32.0514 18.4011 31.4991 18.4011C30.9469 18.4011 30.4991 17.9534 30.4991 17.4011V12.6211L22.4852 22.8857C22.3179 23.1 22.0705 23.2369 21.8001 23.265C21.5297 23.293 21.2596 23.2098 21.0519 23.0344L11.4014 14.887L2.16175 23.0209C1.74721 23.3858 1.11533 23.3456 0.750397 22.9311C0.385466 22.5165 0.425683 21.8846 0.840224 21.5197L10.727 12.8161C11.0989 12.4888 11.6543 12.483 12.0329 12.8026L21.5481 20.8359L29.4363 10.7325H23.8306C23.2783 10.7325 22.8306 10.2848 22.8306 9.73252C22.8306 9.18023 23.2783 8.73252 23.8306 8.73252H31.4138C31.5195 8.72464 31.6266 8.73345 31.7308 8.75949Z" fill="#111827"/>
</svg>
