<svg width="33" height="32" viewBox="0 0 33 32" fill="none" xmlns="http://www.w3.org/2000/svg">
<path fill-rule="evenodd" clip-rule="evenodd" d="M31.4122 23.2674C31.5217 23.2757 31.6327 23.2662 31.7405 23.2381C32.1762 23.1301 32.4991 22.7365 32.4991 22.2674V14.5988C32.4991 14.0466 32.0514 13.5988 31.4991 13.5988C30.9469 13.5988 30.4991 14.0466 30.4991 14.5988V19.3789L22.4852 9.11435C22.3179 8.90007 22.0705 8.76314 21.8001 8.73509C21.5297 8.70703 21.2596 8.79028 21.0519 8.96565L11.4014 17.1131L2.16175 8.97916C1.74721 8.61423 1.11533 8.65444 0.750397 9.06898C0.385466 9.48352 0.425683 10.1154 0.840224 10.4803L10.727 19.1839C11.0989 19.5113 11.6543 19.517 12.0329 19.1974L21.5481 11.1641L29.4362 21.2674H23.8306C23.2783 21.2674 22.8306 21.7151 22.8306 22.2674C22.8306 22.8197 23.2783 23.2674 23.8306 23.2674H31.4122Z" fill="#111827"/>
</svg>
