<svg width="33" height="32" viewBox="0 0 33 32" fill="none" xmlns="http://www.w3.org/2000/svg">
<path fill-rule="evenodd" clip-rule="evenodd" d="M0.500854 5.82202C0.500854 5.26974 0.94857 4.82202 1.50085 4.82202H22.9282C23.4804 4.82202 23.9282 5.26974 23.9282 5.82202V6.96473H29.3562C29.7641 6.96473 30.1311 7.21247 30.2837 7.59076L32.4264 12.9048C32.4743 13.0236 32.499 13.1506 32.499 13.2787V13.3173V22.9638C32.499 23.5161 32.0513 23.9638 31.499 23.9638H28.63C28.1811 25.8085 26.5181 27.1779 24.5353 27.1779C22.5525 27.1779 20.8896 25.8085 20.4406 23.9639H12.5594C12.1105 25.8085 10.4475 27.1779 8.46472 27.1779C6.48193 27.1779 4.81897 25.8085 4.37001 23.9639H1.50085C0.94857 23.9639 0.500854 23.5161 0.500854 22.9639V16.5357V5.82202ZM28.6301 21.9638H30.499V14.3173L23.9282 14.3173V16.5357V18.7931C24.1264 18.7645 24.3291 18.7497 24.5353 18.7497C26.5182 18.7497 28.1812 20.1191 28.6301 21.9638ZM30.0331 12.3173L28.6812 8.96473H23.9282V12.3173L30.0331 12.3173ZM21.9281 17.5357V19.6529C21.2005 20.2266 20.6666 21.0349 20.4406 21.9638H12.5595C12.1105 20.1191 10.4476 18.7497 8.46472 18.7497C6.48186 18.7497 4.81886 20.1192 4.36996 21.9639H2.50085V17.5357H21.9281ZM21.9282 7.95009C21.9281 7.95496 21.9281 7.95984 21.9281 7.96473V13.3173V15.5357H2.50085V6.82202H21.9282V7.95009ZM22.3212 22.9638C22.3212 21.741 23.3125 20.7497 24.5353 20.7497C25.7581 20.7497 26.7494 21.741 26.7494 22.9638C26.7494 24.1866 25.7581 25.1779 24.5353 25.1779C23.3125 25.1779 22.3212 24.1866 22.3212 22.9638ZM10.6788 22.9736C10.6735 24.1919 9.68427 25.1779 8.46472 25.1779C7.24191 25.1779 6.25062 24.1866 6.25062 22.9638C6.25062 21.741 7.24191 20.7497 8.46472 20.7497C9.68428 20.7497 10.6735 21.7357 10.6788 22.954L10.6787 22.9638L10.6788 22.9736Z" fill="#111827"/>
</svg>
