<svg width="33" height="33" viewBox="0 0 33 33" fill="none" xmlns="http://www.w3.org/2000/svg">
<path fill-rule="evenodd" clip-rule="evenodd" d="M24.264 4.56152H20.524C20.2568 4.56152 20.0007 4.66847 19.8129 4.85852C19.625 5.04856 19.521 5.30589 19.5241 5.57309L19.5243 5.60857C19.5243 7.25294 18.1913 8.58595 16.5469 8.58595C14.9026 8.58595 13.5696 7.25294 13.5696 5.60857L13.5698 5.57311C13.5729 5.3059 13.4689 5.04857 13.281 4.85852C13.0932 4.66848 12.8371 4.56152 12.5698 4.56152H8.73579C8.58137 4.56147 8.42686 4.59716 8.28504 4.66871L1.04982 8.31884C0.810668 8.43949 0.629915 8.65105 0.548069 8.90611C0.466222 9.16117 0.490126 9.4384 0.614423 9.67568L4.26455 16.6438C4.43716 16.9733 4.7784 17.1798 5.15038 17.1798H8.48095C8.40066 20.075 8.13441 23.0062 7.80452 26.6345L7.73968 27.3482C7.7143 27.628 7.80777 27.9055 7.99723 28.113C8.18669 28.3204 8.45466 28.4386 8.73559 28.4386H24.2645C24.5422 28.4386 24.8073 28.3231 24.9965 28.1199C25.1857 27.9167 25.2818 27.6439 25.262 27.367C25.2183 26.7587 25.1754 26.1695 25.1336 25.597L25.1332 25.5911C24.9024 22.4269 24.7091 19.7729 24.6381 17.1798H27.8494C28.2214 17.1798 28.5626 16.9733 28.7352 16.6438L32.3854 9.67568C32.5097 9.4384 32.5336 9.16116 32.4517 8.90611C32.3699 8.65105 32.1891 8.43949 31.95 8.31884L24.727 4.67486C24.5857 4.60122 24.4274 4.56152 24.2645 4.56152H24.264ZM27.2444 15.1798L30.1425 9.64711L25.1005 7.10344C24.7595 10.2868 24.6168 12.3927 24.7367 15.1798H27.2444ZM2.85724 9.64711L5.75544 15.1798H8.39126C8.4206 12.2061 8.30035 10.1276 7.92512 7.09039L2.85724 9.64711ZM9.88387 6.56152C10.9073 14.2909 10.5072 18.9919 9.83058 26.4386H23.1896L23.1385 25.7366L23.1372 25.7185C22.6156 18.5667 22.273 13.8684 23.1331 6.56152H21.4332C20.9886 8.85459 18.97 10.586 16.5469 10.586C14.1239 10.586 12.1053 8.85459 11.6607 6.56152H9.88387Z" fill="#111827"/>
</svg>
