<svg width="32" height="33" viewBox="0 0 32 33" fill="none" xmlns="http://www.w3.org/2000/svg">
<path d="M19.1796 8.03174V7.03174C18.9123 7.03174 18.6562 7.13869 18.4684 7.32873C18.2805 7.51876 18.1765 7.77608 18.1796 8.04328L19.1796 8.03174ZM22.172 8.03174L23.1637 8.16045C23.2007 7.87519 23.1131 7.5878 22.9232 7.3717C22.7334 7.15561 22.4597 7.03174 22.172 7.03174V8.03174ZM22.069 24.114L23.0664 24.0413L22.069 24.114ZM22.172 25.5338V26.5338C22.4497 26.5338 22.7148 26.4184 22.904 26.2151C23.0932 26.0119 23.1893 25.7392 23.1694 25.4622L22.172 25.5338ZM9.74854 25.5338L8.75262 25.4435C8.72724 25.7232 8.82072 26.0008 9.01018 26.2082C9.19964 26.4156 9.46761 26.5338 9.74854 26.5338V25.5338ZM9.8004 24.963L8.80451 24.8724L9.8004 24.963ZM9.74854 8.03174V7.03174C9.45831 7.03174 9.18239 7.15783 8.99245 7.37727C8.8025 7.59671 8.71726 7.88784 8.75886 8.17507L9.74854 8.03174ZM12.816 8.03174L13.816 8.04328C13.819 7.77608 13.7151 7.51876 13.5272 7.32873C13.3393 7.13869 13.0832 7.03174 12.816 7.03174V8.03174ZM18.1798 8.06921C18.1798 9.27428 17.2029 10.2512 15.9978 10.2512V12.2512C18.3074 12.2512 20.1798 10.3789 20.1798 8.06921H18.1798ZM18.1796 8.04328C18.1797 8.05192 18.1798 8.06056 18.1798 8.06921H20.1798C20.1798 8.05284 20.1797 8.0365 20.1795 8.02019L18.1796 8.04328ZM19.1796 9.03174H22.172V7.03174H19.1796V9.03174ZM21.1803 7.90303C20.3497 14.3032 20.6326 18.1658 21.0717 24.1867L23.0664 24.0413C22.6287 18.0384 22.3608 14.347 23.1637 8.16045L21.1803 7.90303ZM21.0717 24.1867C21.1052 24.6463 21.1396 25.1183 21.1746 25.6054L23.1694 25.4622C23.1344 24.9738 23.0999 24.5007 23.0664 24.0413L21.0717 24.1867ZM22.172 24.5338H9.74854V26.5338H22.172V24.5338ZM10.7444 25.6242C10.7619 25.4316 10.7792 25.2415 10.7963 25.0535L8.80451 24.8724C8.78742 25.0604 8.77011 25.2507 8.75262 25.4435L10.7444 25.6242ZM10.7963 25.0535C11.3808 18.6253 11.7335 14.7604 10.7382 7.8884L8.75886 8.17507C9.71876 14.8028 9.38638 18.4727 8.80451 24.8724L10.7963 25.0535ZM9.74854 9.03174H12.816V7.03174H9.74854V9.03174ZM13.8158 8.06921C13.8158 8.06054 13.8159 8.0519 13.816 8.04328L11.8161 8.02019C11.8159 8.03652 11.8158 8.05286 11.8158 8.06921H13.8158ZM15.9978 10.2512C14.7927 10.2512 13.8158 9.27428 13.8158 8.06921H11.8158C11.8158 10.3789 13.6881 12.2512 15.9978 12.2512V10.2512Z" fill="#1C1B1F"/>
<path d="M3.96021 10.9519L9.74853 8.03174C10.2061 11.4307 10.3225 13.2919 10.2616 16.5266H6.88039L3.96021 10.9519Z" stroke="#1C1B1F" stroke-width="2" stroke-linejoin="round"/>
<path d="M27.9602 10.9519L22.1719 8.03174C21.7737 11.575 21.6077 13.4959 21.7902 16.5266H25.04L27.9602 10.9519Z" stroke="#1C1B1F" stroke-width="2" stroke-linejoin="round"/>
</svg>
