<svg width="32" height="32" viewBox="0 0 32 32" fill="none" xmlns="http://www.w3.org/2000/svg">
<path d="M19.1796 7.53174V6.53174C18.9123 6.53174 18.6562 6.63869 18.4684 6.82873C18.2805 7.01876 18.1765 7.27608 18.1796 7.54328L19.1796 7.53174ZM22.172 7.53174L23.1637 7.66045C23.2007 7.37519 23.1131 7.0878 22.9232 6.8717C22.7334 6.65561 22.4597 6.53174 22.172 6.53174V7.53174ZM22.069 23.614L23.0664 23.5413L22.069 23.614ZM22.172 25.0338V26.0338C22.4497 26.0338 22.7148 25.9184 22.904 25.7151C23.0932 25.5119 23.1893 25.2392 23.1694 24.9622L22.172 25.0338ZM9.74854 25.0338L8.75262 24.9435C8.72724 25.2232 8.82072 25.5008 9.01018 25.7082C9.19964 25.9156 9.46761 26.0338 9.74854 26.0338V25.0338ZM9.8004 24.463L8.80451 24.3724L9.8004 24.463ZM9.74854 7.53174V6.53174C9.45831 6.53174 9.18239 6.65783 8.99245 6.87727C8.8025 7.09671 8.71726 7.38784 8.75886 7.67507L9.74854 7.53174ZM12.816 7.53174L13.816 7.54328C13.819 7.27608 13.7151 7.01876 13.5272 6.82873C13.3393 6.63869 13.0832 6.53174 12.816 6.53174V7.53174ZM18.1798 7.56921C18.1798 8.77428 17.2029 9.75119 15.9978 9.75119V11.7512C18.3074 11.7512 20.1798 9.87885 20.1798 7.56921H18.1798ZM18.1796 7.54328C18.1797 7.55192 18.1798 7.56056 18.1798 7.56921H20.1798C20.1798 7.55284 20.1797 7.5365 20.1795 7.52019L18.1796 7.54328ZM19.1796 8.53174H22.172V6.53174H19.1796V8.53174ZM21.1803 7.40303C20.3497 13.8032 20.6326 17.6658 21.0717 23.6867L23.0664 23.5413C22.6287 17.5384 22.3608 13.847 23.1637 7.66045L21.1803 7.40303ZM21.0717 23.6867C21.1052 24.1463 21.1396 24.6183 21.1746 25.1054L23.1694 24.9622C23.1344 24.4738 23.0999 24.0007 23.0664 23.5413L21.0717 23.6867ZM22.172 24.0338H9.74854V26.0338H22.172V24.0338ZM10.7444 25.1242C10.7619 24.9316 10.7792 24.7415 10.7963 24.5535L8.80451 24.3724C8.78742 24.5604 8.77011 24.7507 8.75262 24.9435L10.7444 25.1242ZM10.7963 24.5535C11.3808 18.1253 11.7335 14.2604 10.7382 7.3884L8.75886 7.67507C9.71876 14.3028 9.38638 17.9727 8.80451 24.3724L10.7963 24.5535ZM9.74854 8.53174H12.816V6.53174H9.74854V8.53174ZM13.8158 7.56921C13.8158 7.56054 13.8159 7.5519 13.816 7.54328L11.8161 7.52019C11.8159 7.53652 11.8158 7.55286 11.8158 7.56921H13.8158ZM15.9978 9.75119C14.7927 9.75119 13.8158 8.77428 13.8158 7.56921H11.8158C11.8158 9.87885 13.6881 11.7512 15.9978 11.7512V9.75119Z" fill="#1C1B1F"/>
<path d="M3.96021 10.4519L9.74853 7.53174C10.2061 10.9307 10.3225 12.7919 10.2616 16.0266H6.88039L3.96021 10.4519Z" stroke="#1C1B1F" stroke-width="2" stroke-linejoin="round"/>
<path d="M27.9602 10.4519L22.1719 7.53174C21.7737 11.075 21.6077 12.9959 21.7902 16.0266H25.04L27.9602 10.4519Z" stroke="#1C1B1F" stroke-width="2" stroke-linejoin="round"/>
</svg>
