<svg width="32" height="32" viewBox="0 0 32 32" fill="none" xmlns="http://www.w3.org/2000/svg">
<path fill-rule="evenodd" clip-rule="evenodd" d="M16 2C8.26787 2 1.99976 8.26812 1.99976 16.0002C1.99976 23.7323 8.26787 30.0005 16 30.0005C23.7321 30.0005 30.0002 23.7323 30.0002 16.0002C30.0002 8.26812 23.7321 2 16 2ZM-0.000244141 16.0002C-0.000244141 7.16355 7.1633 0 16 0C24.8367 0 32.0002 7.16355 32.0002 16.0002C32.0002 24.8369 24.8367 32.0005 16 32.0005C7.1633 32.0005 -0.000244141 24.8369 -0.000244141 16.0002ZM11.5 15C13.433 15 15 13.433 15 11.5C15 9.567 13.433 8 11.5 8C9.567 8 8 9.567 8 11.5C8 13.433 9.567 15 11.5 15ZM24 11.5C24 13.433 22.433 15 20.5 15C18.567 15 17 13.433 17 11.5C17 9.567 18.567 8 20.5 8C22.433 8 24 9.567 24 11.5ZM11.5 24C13.433 24 15 22.433 15 20.5C15 18.567 13.433 17 11.5 17C9.567 17 8 18.567 8 20.5C8 22.433 9.567 24 11.5 24ZM24 20.5C24 22.433 22.433 24 20.5 24C18.567 24 17 22.433 17 20.5C17 18.567 18.567 17 20.5 17C22.433 17 24 18.567 24 20.5Z" fill="#111827"/>
</svg>
