<svg width="32" height="32" viewBox="0 0 32 32" fill="none" xmlns="http://www.w3.org/2000/svg">
<path d="M20.8347 9.71497V15.5165" stroke="#1C1B1F" stroke-width="2" stroke-linecap="round" stroke-linejoin="round"/>
<path d="M15.0332 9.71497V15.5165" stroke="#1C1B1F" stroke-width="2" stroke-linecap="round" stroke-linejoin="round"/>
<path d="M26.2039 4H5.79614C5.52 4 5.29614 4.22386 5.29614 4.5V22.412C5.29614 22.6882 5.52 22.912 5.79614 22.912H9.02002C9.29617 22.912 9.52002 23.1359 9.52002 23.412V26.9032C9.52002 27.332 10.0243 27.5619 10.348 27.2806L15.2349 23.0346C15.3259 22.9555 15.4424 22.912 15.5629 22.912H20.7521C20.8757 22.912 20.9948 22.8663 21.0866 22.7837L26.5384 17.877C26.6438 17.7822 26.7039 17.6471 26.7039 17.5053V4.5C26.7039 4.22386 26.4801 4 26.2039 4Z" stroke="#1C1B1F" stroke-width="2"/>
</svg>
