<svg width="32" height="32" viewBox="0 0 32 32" fill="none" xmlns="http://www.w3.org/2000/svg">
<path d="M14.7304 10.3133C14.7305 9.22448 15.1055 8.16885 15.7923 7.32393C16.4791 6.47901 17.4359 5.89633 18.5018 5.67385C19.5677 5.45137 20.6777 5.60266 21.6452 6.10228C22.6127 6.6019 23.3787 7.41939 23.8143 8.4173L28 8.41735L24.1776 12.2398C23.9287 16.0844 22.2259 19.6902 19.4151 22.325C16.6043 24.9597 12.896 26.4261 9.04339 26.4261C5.25207 26.4261 4.30424 25.0044 4.30424 25.0044C4.30424 25.0044 8.09556 23.5826 9.99122 20.7391C9.99122 20.7391 2.40858 16.9478 4.30424 6.52169C4.30424 6.52169 9.04339 11.2608 14.7287 12.2087L14.7304 10.3133Z" stroke="#1C1B1F" stroke-width="2" stroke-linecap="round" stroke-linejoin="round"/>
</svg>
