<svg width="33" height="32" viewBox="0 0 33 32" fill="none" xmlns="http://www.w3.org/2000/svg">
<path d="M14.913 8.89166C14.9131 7.53057 15.3818 6.21103 16.2404 5.15488C17.0989 4.09874 18.2949 3.37039 19.6273 3.09229C20.9597 2.81419 22.3472 3.0033 23.5565 3.62782C24.7659 4.25235 25.7233 5.27421 26.2679 6.5216L31.5 6.52165L26.722 11.2997C26.4109 16.1054 24.2824 20.6127 20.7689 23.9062C17.2553 27.1997 12.6201 29.0325 7.80424 29.0326C3.06509 29.0326 1.8803 27.2554 1.8803 27.2554C1.8803 27.2554 6.61945 25.4783 8.98903 21.9239C8.98903 21.9239 -0.489273 17.1847 1.8803 4.15208C1.8803 4.15208 7.80424 10.076 14.9109 11.2608L14.913 8.89166Z" stroke="#111827" stroke-width="2" stroke-linecap="round" stroke-linejoin="round"/>
</svg>
