<svg width="33" height="32" viewBox="0 0 33 32" fill="none" xmlns="http://www.w3.org/2000/svg">
<path fill-rule="evenodd" clip-rule="evenodd" d="M3.35571 0.000366211C2.52728 0.000366211 1.85571 0.671941 1.85571 1.50037V24.6078C1.85571 25.4362 2.52729 26.1078 3.35571 26.1078H7.23996V30.4967C7.23996 31.783 8.7528 32.4727 9.72377 31.6291L16.0784 26.1078H22.6104C22.981 26.1078 23.3384 25.9706 23.6139 25.7227L30.648 19.3919C30.9641 19.1075 31.1446 18.7022 31.1446 18.277V1.50037C31.1446 0.671937 30.473 0.000366211 29.6446 0.000366211H3.35571ZM3.85571 24.1078V2.00037H29.1446V18.0543L22.4185 24.1078H15.8916C15.53 24.1078 15.1807 24.2384 14.9077 24.4755L9.23996 29.4V25.6078C9.23996 24.7794 8.56839 24.1078 7.73996 24.1078H3.85571ZM15.2678 7.28531C15.8201 7.28531 16.2678 7.73303 16.2678 8.28531V15.6807C16.2678 16.2329 15.8201 16.6807 15.2678 16.6807C14.7155 16.6807 14.2678 16.2329 14.2678 15.6807V8.28531C14.2678 7.73303 14.7155 7.28531 15.2678 7.28531ZM22.6631 7.28531C23.2154 7.28531 23.6631 7.73303 23.6631 8.28531V15.6807C23.6631 16.2329 23.2154 16.6807 22.6631 16.6807C22.1108 16.6807 21.6631 16.2329 21.6631 15.6807V8.28531C21.6631 7.73303 22.1108 7.28531 22.6631 7.28531Z" fill="#111827"/>
</svg>
