<svg width="33" height="33" viewBox="0 0 33 33" fill="none" xmlns="http://www.w3.org/2000/svg">
<path fill-rule="evenodd" clip-rule="evenodd" d="M16.5 1.17236C7.66395 1.17236 0.500916 8.3354 0.500916 17.1714V18.0854C0.500916 18.6377 0.948631 19.0854 1.50092 19.0854H15.513V27.3678C15.513 29.8309 17.5097 31.8276 19.9727 31.8276C22.4358 31.8276 24.4325 29.8309 24.4325 27.3678V27.0534C24.4325 26.5011 23.9848 26.0534 23.4325 26.0534C22.8802 26.0534 22.4325 26.5011 22.4325 27.0534V27.3678C22.4325 28.7263 21.3312 29.8276 19.9727 29.8276C18.6143 29.8276 17.513 28.7263 17.513 27.3678V19.0854H31.4991C32.0514 19.0854 32.4991 18.6377 32.4991 18.0854V17.1714C32.4991 8.3354 25.3361 1.17236 16.5 1.17236ZM16.5 3.17236C24.2028 3.17236 30.4525 9.39353 30.4988 17.0854H2.50117C2.54746 9.39353 8.79721 3.17236 16.5 3.17236Z" fill="#111827"/>
</svg>
