<svg width="33" height="33" viewBox="0 0 33 33" fill="none" xmlns="http://www.w3.org/2000/svg">
<path fill-rule="evenodd" clip-rule="evenodd" d="M0.730774 17.1613C0.730774 8.45221 7.7909 1.39209 16.5 1.39209C25.2091 1.39209 32.2692 8.45221 32.2692 17.1613V18.0613C32.2692 18.6136 31.8215 19.0613 31.2692 19.0613H22.214L22.2002 19.0614L22.1864 19.0613H17.5128V27.2013C17.5128 28.5305 18.5903 29.608 19.9195 29.608C21.2487 29.608 22.3263 28.5305 22.3263 27.2013V26.8917C22.3263 26.3394 22.774 25.8917 23.3263 25.8917C23.8786 25.8917 24.3263 26.3394 24.3263 26.8917V27.2013C24.3263 29.6351 22.3533 31.608 19.9195 31.608C17.4858 31.608 15.5128 29.6351 15.5128 27.2013V19.0613H10.8137L10.7998 19.0614L10.786 19.0613H1.73077C1.17849 19.0613 0.730774 18.6136 0.730774 18.0613V17.1613ZM30.2689 17.0613H23.1825C23.0113 12.2474 21.6226 8.69449 20.212 6.29653C19.4809 5.05356 18.7463 4.12491 18.1778 3.49328C24.9587 4.31702 30.2191 10.0698 30.2689 17.0613ZM12.788 6.29653C13.5192 5.05356 14.2537 4.1249 14.8222 3.49328C8.04135 4.31701 2.78087 10.0698 2.73113 17.0613H9.81751C9.98871 12.2474 11.3774 8.69449 12.788 6.29653ZM21.1812 17.0613H11.8189C11.9883 12.6456 13.2609 9.43726 14.5119 7.31057C15.1853 6.16565 15.8553 5.32989 16.3493 4.78646C16.4016 4.72894 16.4519 4.67471 16.5 4.62375C16.5481 4.67471 16.5984 4.72894 16.6507 4.78646C17.1448 5.32989 17.8147 6.16565 18.4882 7.31057C19.7392 9.43726 21.0117 12.6456 21.1812 17.0613Z" fill="#111827"/>
</svg>
