<svg width="33" height="33" viewBox="0 0 33 33" fill="none" xmlns="http://www.w3.org/2000/svg">
<path fill-rule="evenodd" clip-rule="evenodd" d="M16.5002 4.95935C16.6509 4.95935 16.7939 4.9927 16.922 5.05241C17.0069 5.09189 17.0874 5.14393 17.1607 5.20853C17.1783 5.22399 17.1953 5.24006 17.2117 5.2567L22.0676 10.1125C22.4581 10.503 22.4581 11.1362 22.0676 11.5267C21.677 11.9173 21.0439 11.9173 20.6533 11.5267L17.5002 8.37359V19.7062C17.5002 20.2584 17.0525 20.7062 16.5002 20.7062C15.9479 20.7062 15.5002 20.2584 15.5002 19.7062V8.37363L12.3471 11.5267C11.9566 11.9173 11.3234 11.9173 10.9329 11.5267C10.5424 11.1362 10.5424 10.503 10.9329 10.1125L15.7865 5.2589C15.8118 5.23312 15.8385 5.2087 15.8665 5.18577C15.9267 5.13627 15.9914 5.09489 16.0591 5.06163C16.1922 4.99614 16.3419 4.95935 16.5002 4.95935ZM6.50093 21.9976C6.50093 21.4453 6.05322 20.9976 5.50093 20.9976C4.94865 20.9976 4.50093 21.4453 4.50093 21.9976V27.0405C4.50093 27.5928 4.94865 28.0405 5.50093 28.0405H27.4991C28.0514 28.0405 28.4991 27.5928 28.4991 27.0405V21.9976C28.4991 21.4453 28.0514 20.9976 27.4991 20.9976C26.9468 20.9976 26.4991 21.4453 26.4991 21.9976V26.0405H6.50093V21.9976Z" fill="#111827"/>
</svg>
