<svg width="33" height="33" viewBox="0 0 33 33" fill="none" xmlns="http://www.w3.org/2000/svg">
<path fill-rule="evenodd" clip-rule="evenodd" d="M10.5452 7.78561C10.9328 8.17901 11.5613 8.17901 11.9489 7.78561L15.5501 4.13099L15.5501 16.9135C15.5501 17.4658 15.9978 17.9135 16.5501 17.9135C17.1023 17.9135 17.5501 17.4658 17.5501 16.9135V4.13103L21.1511 7.78561C21.5388 8.17901 22.1673 8.17901 22.5549 7.78561C22.9425 7.39222 22.9425 6.7544 22.5549 6.36101L17.2712 0.998837C17.2654 0.992753 17.2594 0.986742 17.2534 0.980807L17.2519 0.979249C16.8643 0.585856 16.2358 0.585856 15.8482 0.979249L15.8453 0.982175C15.8402 0.987209 15.8352 0.992297 15.8302 0.997438L10.5452 6.36101C10.1576 6.7544 10.1576 7.39222 10.5452 7.78561ZM1.50092 18.8878C0.948631 18.8878 0.500916 19.3355 0.500916 19.8878V31.3156C0.500916 31.8679 0.948631 32.3156 1.50092 32.3156H31.4991C32.0514 32.3156 32.4991 31.8679 32.4991 31.3156V19.8878C32.4991 19.3355 32.0514 18.8878 31.4991 18.8878H23.9995C23.4473 18.8878 22.9995 19.3355 22.9995 19.8878C22.9995 20.4401 23.4473 20.8878 23.9995 20.8878H30.4991V30.3156H2.50092V20.8878H9.00046C9.55274 20.8878 10.0005 20.4401 10.0005 19.8878C10.0005 19.3355 9.55274 18.8878 9.00046 18.8878H1.50092ZM26.934 25.8352C26.934 26.8053 26.1592 27.5916 25.2034 27.5916C24.2475 27.5916 23.4727 26.8053 23.4727 25.8352C23.4727 24.8652 24.2475 24.0789 25.2034 24.0789C26.1592 24.0789 26.934 24.8652 26.934 25.8352Z" fill="#111827"/>
</svg>
