<svg width="33" height="33" viewBox="0 0 33 33" fill="none" xmlns="http://www.w3.org/2000/svg">
<path fill-rule="evenodd" clip-rule="evenodd" d="M16.4999 2.50085C8.76846 2.50085 2.50085 8.76846 2.50085 16.4999C2.50085 20.8767 4.50942 24.7844 7.65509 27.3514C8.17432 24.4526 10.0838 22.0358 12.6689 20.8155C10.7724 19.5678 9.52046 17.4202 9.52046 14.9803C9.52046 11.1254 12.6455 8.00039 16.5004 8.00039C20.3553 8.00039 23.4803 11.1254 23.4803 14.9803C23.4803 17.4204 22.2282 19.568 20.3315 20.8158C22.9164 22.036 24.8256 24.4527 25.3449 27.3514C28.4905 24.7843 30.499 20.8767 30.499 16.4999C30.499 8.76846 24.2314 2.50085 16.4999 2.50085ZM23.4793 28.6379C23.3179 24.9227 20.2549 21.9603 16.5 21.9603C12.7451 21.9603 9.68206 24.9227 9.52067 28.6379C11.5752 29.8218 13.9585 30.499 16.4999 30.499C19.0415 30.499 21.4248 29.8218 23.4793 28.6379ZM0.500854 16.4999C0.500854 7.66389 7.66389 0.500854 16.4999 0.500854C25.336 0.500854 32.499 7.66389 32.499 16.4999C32.499 25.336 25.336 32.499 16.4999 32.499C7.66389 32.499 0.500854 25.336 0.500854 16.4999ZM16.5004 10.0004C13.75 10.0004 11.5205 12.23 11.5205 14.9803C11.5205 17.7306 13.75 19.9602 16.5004 19.9602C19.2507 19.9602 21.4803 17.7306 21.4803 14.9803C21.4803 12.23 19.2507 10.0004 16.5004 10.0004Z" fill="#111827"/>
</svg>
