<svg width="32" height="33" viewBox="0 0 32 33" fill="none" xmlns="http://www.w3.org/2000/svg">
<path d="M11.5938 24.0938C13.416 24.0938 14.8932 22.6166 14.8932 20.7943C14.8932 18.9721 13.416 17.4949 11.5938 17.4949C9.77153 17.4949 8.29431 18.9721 8.29431 20.7943C8.29431 22.6166 9.77153 24.0938 11.5938 24.0938Z" stroke="#1C1B1F" stroke-width="2" stroke-linecap="round" stroke-linejoin="round"/>
<path d="M11.5938 11.0989C13.416 11.0989 14.8932 9.6217 14.8932 7.79946C14.8932 5.97722 13.416 4.5 11.5938 4.5C9.77153 4.5 8.29431 5.97722 8.29431 7.79946C8.29431 9.6217 9.77153 11.0989 11.5938 11.0989Z" stroke="#1C1B1F" stroke-width="2" stroke-linecap="round" stroke-linejoin="round"/>
<path d="M20.4065 24.0938C22.2288 24.0938 23.706 22.6166 23.706 20.7943C23.706 18.9721 22.2288 17.4949 20.4065 17.4949C18.5843 17.4949 17.1071 18.9721 17.1071 20.7943C17.1071 22.6166 18.5843 24.0938 20.4065 24.0938Z" stroke="#1C1B1F" stroke-width="2" stroke-linecap="round" stroke-linejoin="round"/>
<path d="M20.4065 11.0989C22.2288 11.0989 23.706 9.6217 23.706 7.79946C23.706 5.97722 22.2288 4.5 20.4065 4.5C18.5843 4.5 17.1071 5.97722 17.1071 7.79946C17.1071 9.6217 18.5843 11.0989 20.4065 11.0989Z" stroke="#1C1B1F" stroke-width="2" stroke-linecap="round" stroke-linejoin="round"/>
<path d="M15.9999 28.5001C15.9999 26.0665 14.0271 24.0938 11.5936 24.0938C9.16004 24.0938 7.18726 26.0665 7.18726 28.5001" stroke="#1C1B1F" stroke-width="2" stroke-linecap="round" stroke-linejoin="round"/>
<path d="M15.9999 15.5051C15.9999 13.0715 14.0271 11.0988 11.5936 11.0988C9.16004 11.0988 7.18726 13.0715 7.18726 15.5051" stroke="#1C1B1F" stroke-width="2" stroke-linecap="round" stroke-linejoin="round"/>
<path d="M24.8125 28.5001C24.8125 26.0665 22.8398 24.0938 20.4062 24.0938C17.9727 24.0938 15.9999 26.0665 15.9999 28.5001" stroke="#1C1B1F" stroke-width="2" stroke-linecap="round" stroke-linejoin="round"/>
<path d="M24.8125 15.5051C24.8125 13.0715 22.8398 11.0988 20.4062 11.0988C17.9727 11.0988 15.9999 13.0715 15.9999 15.5051" stroke="#1C1B1F" stroke-width="2" stroke-linecap="round" stroke-linejoin="round"/>
</svg>
