<svg width="33" height="33" viewBox="0 0 33 33" fill="none" xmlns="http://www.w3.org/2000/svg">
<path fill-rule="evenodd" clip-rule="evenodd" d="M10.9184 5.7395C7.57611 5.7395 4.86666 8.44895 4.86666 11.7912C4.86666 15.1335 7.57611 17.8429 10.9184 17.8429C14.2606 17.8429 16.9701 15.1335 16.9701 11.7912C16.9701 8.44895 14.2606 5.7395 10.9184 5.7395ZM2.86666 11.7912C2.86666 7.34438 6.47154 3.7395 10.9184 3.7395C15.3652 3.7395 18.9701 7.34438 18.9701 11.7912C18.9701 14.724 17.4021 17.2905 15.0587 18.6983C18.752 20.2997 21.3356 23.9783 21.3356 28.2603C21.3356 28.8126 20.8878 29.2603 20.3356 29.2603C19.7833 29.2603 19.3356 28.8126 19.3356 28.2603C19.3356 23.6115 15.567 19.843 10.9182 19.843C6.26943 19.843 2.50085 23.6115 2.50085 28.2603C2.50085 28.8126 2.05314 29.2603 1.50085 29.2603C0.94857 29.2603 0.500854 28.8126 0.500854 28.2603C0.500854 23.9782 3.08447 20.2996 6.77791 18.6982C4.43459 17.2904 2.86666 14.7239 2.86666 11.7912ZM28.971 15.324C28.971 14.7717 28.5232 14.324 27.971 14.324C27.4187 14.324 26.971 14.7717 26.971 15.324V17.8521H24.4427C23.8904 17.8521 23.4427 18.2998 23.4427 18.8521C23.4427 19.4044 23.8904 19.8521 24.4427 19.8521H26.971V22.3803C26.971 22.9326 27.4187 23.3803 27.971 23.3803C28.5232 23.3803 28.971 22.9326 28.971 22.3803V19.8521H31.499C32.0513 19.8521 32.499 19.4044 32.499 18.8521C32.499 18.2998 32.0513 17.8521 31.499 17.8521H28.971V15.324Z" fill="#111827"/>
</svg>
