<svg width="32" height="33" viewBox="0 0 32 33" fill="none" xmlns="http://www.w3.org/2000/svg">
<path d="M11.1464 18.2781C14.1016 18.2781 16.4973 15.8824 16.4973 12.9271C16.4973 9.97187 14.1016 7.57617 11.1464 7.57617C8.19111 7.57617 5.79541 9.97187 5.79541 12.9271C5.79541 15.8824 8.19111 18.2781 11.1464 18.2781Z" stroke="#1C1B1F" stroke-width="2" stroke-linecap="round" stroke-linejoin="round"/>
<path d="M19.2924 18.2781C22.2476 18.2781 24.6433 15.8824 24.6433 12.9271C24.6433 9.97187 22.2476 7.57617 19.2924 7.57617" stroke="#1C1B1F" stroke-width="2" stroke-linecap="round" stroke-linejoin="round"/>
<path d="M18.292 25.4237C18.292 21.4771 15.0927 18.2777 11.146 18.2777C7.19938 18.2777 4 21.4771 4 25.4237" stroke="#1C1B1F" stroke-width="2" stroke-linecap="round" stroke-linejoin="round"/>
<path d="M26.438 25.4237C26.438 21.4771 23.2386 18.2777 19.292 18.2777" stroke="#1C1B1F" stroke-width="2" stroke-linecap="round" stroke-linejoin="round"/>
</svg>
