<svg width="32" height="33" viewBox="0 0 32 33" fill="none" xmlns="http://www.w3.org/2000/svg">
<path d="M25 9.5C26.1046 9.5 27 8.60457 27 7.5C27 6.39543 26.1046 5.5 25 5.5C23.8954 5.5 23 6.39543 23 7.5C23 8.60457 23.8954 9.5 25 9.5Z" stroke="#1C1B1F" stroke-width="2" stroke-linecap="round" stroke-linejoin="round"/>
<path d="M25 5.5V4" stroke="#1C1B1F" stroke-width="2" stroke-linecap="round" stroke-linejoin="round"/>
<path d="M23.2679 6.5L21.9689 5.75" stroke="#1C1B1F" stroke-width="2" stroke-linecap="round" stroke-linejoin="round"/>
<path d="M23.2679 8.5L21.9689 9.25" stroke="#1C1B1F" stroke-width="2" stroke-linecap="round" stroke-linejoin="round"/>
<path d="M25 9.5V11" stroke="#1C1B1F" stroke-width="2" stroke-linecap="round" stroke-linejoin="round"/>
<path d="M26.7321 8.5L28.0311 9.25" stroke="#1C1B1F" stroke-width="2" stroke-linecap="round" stroke-linejoin="round"/>
<path d="M26.7321 6.5L28.0311 5.75" stroke="#1C1B1F" stroke-width="2" stroke-linecap="round" stroke-linejoin="round"/>
<path d="M28 16.5C28 23.1274 22.6274 28.5 16 28.5C9.37258 28.5 4 23.1274 4 16.5C4 9.87258 9.37258 4.5 16 4.5" stroke="#1C1B1F" stroke-width="2" stroke-linecap="round" stroke-linejoin="round"/>
<path d="M16.0003 20.0684C18.6425 20.0684 20.7845 17.9265 20.7845 15.2842C20.7845 12.642 18.6425 10.5 16.0003 10.5C13.358 10.5 11.2161 12.642 11.2161 15.2842C11.2161 17.9265 13.358 20.0684 16.0003 20.0684Z" stroke="#1C1B1F" stroke-width="2" stroke-linecap="round" stroke-linejoin="round"/>
<path d="M22.3892 26.4577C22.3892 22.929 19.5287 20.0685 16 20.0685C12.4714 20.0685 9.61084 22.929 9.61084 26.4577" stroke="#1C1B1F" stroke-width="2" stroke-linecap="round" stroke-linejoin="round"/>
</svg>
