<svg width="33" height="33" viewBox="0 0 33 33" fill="none" xmlns="http://www.w3.org/2000/svg">
<path fill-rule="evenodd" clip-rule="evenodd" d="M12.1153 4.69024C14.6641 3.74289 17.4512 3.64652 20.0594 4.41554C22.6676 5.18457 24.9566 6.77762 26.5837 8.95626C28.2108 11.1349 29.0886 13.7819 29.0857 16.5011L28.0857 16.5H29.0857V16.5011V16.9821L30.792 15.2758C31.1825 14.8853 31.8157 14.8853 32.2062 15.2758C32.5967 15.6663 32.5967 16.2995 32.2062 16.69L28.8007 20.0955C28.7664 20.1306 28.7295 20.1632 28.6904 20.1929C28.6458 20.2269 28.599 20.2566 28.5505 20.282C28.4117 20.3551 28.2535 20.3964 28.0857 20.3964C27.9349 20.3964 27.792 20.3631 27.6638 20.3034C27.5748 20.262 27.4907 20.2068 27.4146 20.1378C27.4011 20.1256 27.388 20.1131 27.3752 20.1002L23.9651 16.69C23.5745 16.2995 23.5745 15.6663 23.9651 15.2758C24.3556 14.8853 24.9888 14.8853 25.3793 15.2758L27.0857 16.9822V16.5V16.4989C27.0882 14.2119 26.3499 11.9855 24.9813 10.153C23.6127 8.32061 21.6875 6.98071 19.4938 6.33389C17.3001 5.68707 14.9559 5.76813 12.8121 6.56494C10.6683 7.36174 8.84018 8.83143 7.60146 10.754C7.30233 11.2183 6.68348 11.3522 6.21922 11.053C5.75495 10.7539 5.62108 10.1351 5.92021 9.67079C7.39297 7.38496 9.56644 5.63759 12.1153 4.69024ZM4.91448 12.6036C5.1955 12.6036 5.44945 12.7195 5.63111 12.9061L5.91448 16.0179V16.5L5.91448 16.5011C5.91199 18.7882 6.65028 21.0146 8.01885 22.847C8.47142 23.453 8.98487 24.0051 9.54878 24.4961C10.0451 22.5277 11.3555 20.8832 13.101 19.9414C11.7521 18.915 10.8813 17.2926 10.8813 15.4669C10.8813 12.3636 13.397 9.84786 16.5003 9.84786C19.6036 9.84786 22.1194 12.3636 22.1194 15.4669C22.1194 17.2927 21.2485 18.9152 19.8995 19.9415C21.6449 20.8833 22.9552 22.5278 23.4515 24.4961C24.1985 23.8456 24.8553 23.0894 25.3987 22.246C25.6978 21.7817 26.3167 21.6479 26.7809 21.947C27.2452 22.2461 27.3791 22.865 27.0799 23.3292C25.6072 25.6151 23.4337 27.3624 20.8849 28.3098C18.336 29.2571 15.5489 29.3535 12.9407 28.5845C10.3326 27.8155 8.04358 26.2224 6.41644 24.0438C4.78941 21.8653 3.91164 19.2185 3.91448 16.4995L3.91448 16.4989L4.91448 16.5H3.91448V16.4995V16.0178L2.20808 17.7242C1.81756 18.1148 1.18439 18.1148 0.79387 17.7242C0.403345 17.3337 0.403345 16.7005 0.79387 16.31L4.20349 12.9004C4.21933 12.8844 4.23571 12.8689 4.2526 12.854C4.32229 12.7923 4.39851 12.7421 4.47885 12.7032C4.61053 12.6394 4.75833 12.6036 4.91448 12.6036ZM21.6457 25.7636C21.3992 23.1467 19.2016 21.0974 16.5229 21.0859C16.5154 21.0859 16.5079 21.0859 16.5003 21.0859C16.4927 21.0859 16.4851 21.0859 16.4776 21.0859C13.7988 21.0973 11.6011 23.1466 11.3546 25.7636C12.0324 26.1406 12.7536 26.4442 13.5064 26.6661C15.7001 27.313 18.0443 27.2319 20.1881 26.4351C20.6926 26.2476 21.1797 26.0228 21.6457 25.7636ZM16.5217 19.0858C18.5106 19.0744 20.1194 17.4585 20.1194 15.4669C20.1194 13.4681 18.4991 11.8479 16.5003 11.8479C14.5016 11.8479 12.8813 13.4681 12.8813 15.4669C12.8813 17.4584 14.49 19.0743 16.4788 19.0858C16.4859 19.0858 16.493 19.0858 16.5001 19.0858C16.5073 19.0858 16.5145 19.0858 16.5217 19.0858Z" fill="#111827"/>
</svg>
