<svg width="32" height="33" viewBox="0 0 32 33" fill="none" xmlns="http://www.w3.org/2000/svg">
<path d="M25.269 18.8173V16.5C25.2712 14.4974 24.6247 12.5479 23.4264 10.9434C22.228 9.33886 20.5422 8.16561 18.6214 7.59923C16.7005 7.03286 14.6478 7.10384 12.7707 7.80155C10.8935 8.49925 9.29279 9.78615 8.20813 11.4696" stroke="#1C1B1F" stroke-width="2" stroke-linecap="round" stroke-linejoin="round"/>
<path d="M6.73096 14.1827V16.5C6.72878 18.5026 7.37524 20.4521 8.5736 22.0566C9.77196 23.6612 11.4577 24.8344 13.3786 25.4008C15.2995 25.9672 17.3521 25.8962 19.2293 25.1985C21.1065 24.5008 22.7072 23.2139 23.7919 21.5304" stroke="#1C1B1F" stroke-width="2" stroke-linecap="round" stroke-linejoin="round"/>
<path d="M28 16.0863L25.2691 18.8172L22.5381 16.0863" stroke="#1C1B1F" stroke-width="2" stroke-linecap="round" stroke-linejoin="round"/>
<path d="M9.46179 16.9137L6.73087 14.1828L3.99994 16.9137" stroke="#1C1B1F" stroke-width="2" stroke-linecap="round" stroke-linejoin="round"/>
<path d="M16.0003 19.3689C18.0412 19.3689 19.6957 17.7144 19.6957 15.6735C19.6957 13.6325 18.0412 11.978 16.0003 11.978C13.9593 11.978 12.3048 13.6325 12.3048 15.6735C12.3048 17.7144 13.9593 19.3689 16.0003 19.3689Z" stroke="#1C1B1F" stroke-width="2" stroke-linecap="round" stroke-linejoin="round"/>
<path d="M20.9351 24.3041C20.9351 21.5784 18.7256 19.3689 16 19.3689C13.2744 19.3689 11.0648 21.5784 11.0648 24.3041" stroke="#1C1B1F" stroke-width="2" stroke-linecap="round" stroke-linejoin="round"/>
</svg>
