<svg width="32" height="33" viewBox="0 0 32 33" fill="none" xmlns="http://www.w3.org/2000/svg">
<path d="M15.9601 20.3173C17.912 20.3173 19.4944 18.7349 19.4944 16.783C19.4944 14.831 17.912 13.2487 15.9601 13.2487C14.0081 13.2487 12.4258 14.831 12.4258 16.783C12.4258 18.7349 14.0081 20.3173 15.9601 20.3173Z" stroke="#1C1B1F" stroke-width="2" stroke-linecap="round" stroke-linejoin="round"/>
<path d="M20.6797 25.0371C20.6797 22.4303 18.5665 20.3171 15.9597 20.3171C13.3529 20.3171 11.2397 22.4303 11.2397 25.0371" stroke="#1C1B1F" stroke-width="2" stroke-linecap="round" stroke-linejoin="round"/>
<path d="M27.9604 20.3173C27.9604 17.7105 25.8472 15.5973 23.2404 15.5973C23.1407 15.5973 23.0418 15.6004 22.9436 15.6065" stroke="#1C1B1F" stroke-width="2" stroke-linecap="round" stroke-linejoin="round"/>
<path d="M22.939 15.5848C23.0384 15.5931 23.1389 15.5974 23.2404 15.5974C25.1924 15.5974 26.7747 14.0151 26.7747 12.0631C26.7747 10.1112 25.1924 8.52881 23.2404 8.52881C21.6957 8.52881 20.3825 9.51976 19.9017 10.9006" stroke="#1C1B1F" stroke-width="2" stroke-linecap="round" stroke-linejoin="round"/>
<path d="M3.96001 20.3173C3.96001 17.7105 6.0732 15.5973 8.67997 15.5973C8.77967 15.5973 8.87864 15.6004 8.97681 15.6065" stroke="#1C1B1F" stroke-width="2" stroke-linecap="round" stroke-linejoin="round"/>
<path d="M8.98137 15.5848C8.88203 15.5931 8.78151 15.5974 8.68 15.5974C6.72806 15.5974 5.14569 14.0151 5.14569 12.0631C5.14569 10.1112 6.72806 8.52881 8.68 8.52881C10.2247 8.52881 11.5379 9.51976 12.0187 10.9006" stroke="#1C1B1F" stroke-width="2" stroke-linecap="round" stroke-linejoin="round"/>
</svg>
