<svg width="33" height="33" viewBox="0 0 33 33" fill="none" xmlns="http://www.w3.org/2000/svg">
<path fill-rule="evenodd" clip-rule="evenodd" d="M12.3136 3.9613C8.38245 3.9613 5.19563 7.14813 5.19563 11.0793C5.19563 15.0045 8.37284 18.1876 12.2958 18.1972C12.3016 18.1972 12.3074 18.1972 12.3132 18.1972C12.3192 18.1972 12.3252 18.1972 12.3311 18.1972C16.2542 18.1878 19.4316 15.0046 19.4316 11.0793C19.4316 7.14813 16.2448 3.9613 12.3136 3.9613ZM16.7403 19.0525C19.5384 17.4957 21.4316 14.5086 21.4316 11.0793C21.4316 6.04356 17.3493 1.9613 12.3136 1.9613C7.27788 1.9613 3.19563 6.04356 3.19563 11.0793C3.19563 14.5084 5.08863 17.4955 7.88665 19.0524C3.53969 20.8055 0.471924 25.0638 0.471924 30.0385C0.471924 30.5908 0.919639 31.0385 1.47192 31.0385C2.02421 31.0385 2.47192 30.5908 2.47192 30.0385C2.47192 24.6093 6.86829 20.207 12.2952 20.1972C12.3013 20.1973 12.3075 20.1973 12.3136 20.1973C12.3196 20.1973 12.3256 20.1973 12.3317 20.1972C17.7584 20.2072 22.1546 24.6095 22.1546 30.0385C22.1546 30.5908 22.6023 31.0385 23.1546 31.0385C23.7068 31.0385 24.1546 30.5908 24.1546 30.0385C24.1546 25.0639 21.087 20.8058 16.7403 19.0525ZM28.1083 11.5512C28.6606 11.5512 29.1083 11.9989 29.1083 12.5512V13.3998C29.5522 13.5429 29.9544 13.7786 30.2923 14.0843L31.0279 13.6596C31.5062 13.3834 32.1178 13.5473 32.3939 14.0256C32.6701 14.5039 32.5062 15.1155 32.0279 15.3916L31.2928 15.8161C31.3399 16.0365 31.3647 16.2653 31.3647 16.4998C31.3647 16.7344 31.3399 16.9632 31.2927 17.1837L32.0279 17.6082C32.5062 17.8843 32.6701 18.4959 32.3939 18.9742C32.1178 19.4525 31.5062 19.6164 31.0279 19.3402L30.2921 18.9154C29.9543 19.221 29.5521 19.4567 29.1083 19.5998V20.4485C29.1083 21.0008 28.6606 21.4485 28.1083 21.4485C27.556 21.4485 27.1083 21.0008 27.1083 20.4485V19.5998C26.6645 19.4567 26.2622 19.221 25.9244 18.9154L25.1886 19.3402C24.7103 19.6164 24.0987 19.4525 23.8226 18.9742C23.5464 18.4959 23.7103 17.8843 24.1886 17.6082L24.9238 17.1837C24.8766 16.9632 24.8518 16.7344 24.8518 16.4998C24.8518 16.2652 24.8766 16.0365 24.9237 15.816L24.1886 15.3916C23.7103 15.1155 23.5464 14.5039 23.8226 14.0256C24.0987 13.5473 24.7103 13.3834 25.1886 13.6596L25.9242 14.0843C26.2621 13.7786 26.6644 13.5428 27.1083 13.3997V12.5512C27.1083 11.9989 27.556 11.5512 28.1083 11.5512ZM29.1866 15.8547L29.1963 15.8718L29.2067 15.8895C29.3073 16.0702 29.3647 16.2783 29.3647 16.4998C29.3647 16.723 29.3064 16.9327 29.2043 17.1143L29.1963 17.128L29.1889 17.141C28.9699 17.5094 28.5679 17.7562 28.1082 17.7562C27.6491 17.7562 27.2475 17.5099 27.0283 17.1423L27.0202 17.128L27.0113 17.1128C26.9097 16.9315 26.8518 16.7224 26.8518 16.4998C26.8518 16.2787 26.9089 16.071 27.0091 15.8906L27.0202 15.8718L27.0304 15.8536C27.2476 15.4921 27.6415 15.2489 28.0926 15.2434L28.1083 15.2435L28.1239 15.2434C28.5754 15.2489 28.9696 15.4926 29.1866 15.8547Z" fill="#111827"/>
</svg>
