<svg width="33" height="33" viewBox="0 0 33 33" fill="none" xmlns="http://www.w3.org/2000/svg">
<path fill-rule="evenodd" clip-rule="evenodd" d="M0.500916 4.00073C0.500916 3.44845 0.948631 3.00073 1.50092 3.00073H31.4991C32.0514 3.00073 32.4991 3.44845 32.4991 4.00073V28.9992C32.4991 29.5515 32.0514 29.9992 31.4991 29.9992H24.4939C24.4913 29.9992 24.4887 29.9992 24.486 29.9992C24.4834 29.9992 24.4808 29.9992 24.4781 29.9992H8.52194C8.51931 29.9992 8.51668 29.9992 8.51404 29.9992C8.51141 29.9992 8.50878 29.9992 8.50615 29.9992H1.50092C0.948631 29.9992 0.500916 29.5515 0.500916 28.9992V4.00073ZM9.58508 27.9992H23.415C22.9299 24.6147 20.0188 22.0132 16.5 22.0132C12.9813 22.0132 10.0702 24.6147 9.58508 27.9992ZM25.431 27.9992H30.4991V5.00073H2.50092V27.9992H7.56906C7.91908 24.8381 9.90888 22.1713 12.6689 20.8685C10.7723 19.6207 9.5204 17.4732 9.5204 15.0332C9.5204 11.1783 12.6454 8.05333 16.5003 8.05333C20.3552 8.05333 23.4802 11.1783 23.4802 15.0332C23.4802 17.4733 22.2282 19.6209 20.3315 20.8687C23.0914 22.1715 25.081 24.8382 25.431 27.9992ZM16.5003 10.0533C13.75 10.0533 11.5204 12.2829 11.5204 15.0332C11.5204 17.7836 13.75 20.0132 16.5003 20.0132C19.2506 20.0132 21.4802 17.7836 21.4802 15.0332C21.4802 12.2829 19.2506 10.0533 16.5003 10.0533Z" fill="#111827"/>
</svg>
