<svg width="33" height="33" viewBox="0 0 33 33" fill="none" xmlns="http://www.w3.org/2000/svg">
<path fill-rule="evenodd" clip-rule="evenodd" d="M25.5995 5.18311C23.2302 5.18311 21.2185 6.7035 20.4821 8.81887C20.3005 9.34045 20.5761 9.91048 21.0977 10.0921C21.6193 10.2737 22.1893 9.99803 22.3709 9.47645C22.8362 8.13991 24.1074 7.18311 25.5995 7.18311C27.487 7.18311 29.0171 8.71319 29.0171 10.6007C29.0171 12.481 27.4984 14.0067 25.6207 14.0181L25.5996 14.0181L25.5783 14.0181C25.4868 14.0176 25.3963 14.0135 25.307 14.0059C24.7566 13.9594 24.2728 14.3679 24.2264 14.9182C24.2174 15.0246 24.2254 15.1284 24.2481 15.2271C24.3448 15.7098 24.7855 16.059 25.2905 16.0277C25.3852 16.0218 25.4807 16.0186 25.577 16.0182L25.5995 16.0182L25.622 16.0182C28.3176 16.0303 30.4991 18.2192 30.4991 20.9176C30.4991 21.4699 30.9468 21.9176 31.4991 21.9176C32.0514 21.9176 32.4991 21.4699 32.4991 20.9176C32.4991 18.3149 31.0579 16.0488 28.9301 14.8738C30.2003 13.8823 31.0171 12.3369 31.0171 10.6007C31.0171 7.60862 28.5915 5.18311 25.5995 5.18311ZM13.0823 16.5C13.0823 14.6125 14.6124 13.0824 16.4999 13.0824C18.3874 13.0824 19.9174 14.6125 19.9174 16.5C19.9174 18.3804 18.3988 19.9061 16.521 19.9175L16.4994 19.9174L16.4784 19.9175C14.6008 19.9059 13.0823 18.3803 13.0823 16.5ZM13.1691 20.773C11.899 19.7815 11.0823 18.2361 11.0823 16.5C11.0823 13.508 13.5079 11.0824 16.4999 11.0824C19.4919 11.0824 21.9174 13.508 21.9174 16.5C21.9174 18.2363 21.1006 19.7818 19.8303 20.7733C21.9579 21.9484 23.3989 24.2144 23.3989 26.8169C23.3989 27.3692 22.9512 27.8169 22.3989 27.8169C21.8466 27.8169 21.3989 27.3692 21.3989 26.8169C21.3989 24.1186 19.2177 21.9298 16.5222 21.9175L16.4999 21.9175L16.477 21.9175C13.7814 21.9295 11.5999 24.1185 11.5999 26.8169C11.5999 27.3692 11.1522 27.8169 10.5999 27.8169C10.0476 27.8169 9.5999 27.3692 9.5999 26.8169C9.5999 24.2142 11.0411 21.948 13.1691 20.773ZM7.42164 14.0181C7.41455 14.0181 7.40746 14.0181 7.40036 14.0181C7.3933 14.0181 7.38625 14.0181 7.37919 14.0181C5.5015 14.0067 3.98287 12.481 3.98287 10.6007C3.98287 8.71319 5.51296 7.18311 7.40042 7.18311C8.89252 7.18311 10.1637 8.13991 10.629 9.47645C10.8106 9.99803 11.3807 10.2737 11.9022 10.0921C12.4238 9.91048 12.6994 9.34045 12.5179 8.81887C11.7814 6.7035 9.76975 5.18311 7.40042 5.18311C4.40839 5.18311 1.98287 7.60862 1.98287 10.6007C1.98287 12.3369 2.79959 13.8823 4.0698 14.8738C1.94198 16.0488 0.500854 18.3149 0.500854 20.9176C0.500854 21.4699 0.94857 21.9176 1.50085 21.9176C2.05314 21.9176 2.50085 21.4699 2.50085 20.9176C2.50085 18.2192 4.6823 16.0303 7.37789 16.0182C7.38539 16.0182 7.3929 16.0182 7.40042 16.0182C7.40792 16.0182 7.4154 16.0182 7.42289 16.0182C7.5192 16.0186 7.61474 16.0218 7.70945 16.0277C8.21448 16.059 8.65517 15.7098 8.7518 15.2271C8.77453 15.1284 8.78254 15.0246 8.77356 14.9182C8.72709 14.3679 8.24329 13.9594 7.69296 14.0059C7.60364 14.0135 7.51316 14.0176 7.42164 14.0181Z" fill="#111827"/>
</svg>
