<svg width="33" height="33" viewBox="0 0 33 33" fill="none" xmlns="http://www.w3.org/2000/svg">
<path fill-rule="evenodd" clip-rule="evenodd" d="M10.517 6.24084C7.34073 6.24084 4.76587 8.81571 4.76587 11.992C4.76587 15.1682 7.34073 17.7431 10.517 17.7431C13.6932 17.7431 16.2681 15.1682 16.2681 11.992C16.2681 8.81571 13.6932 6.24084 10.517 6.24084ZM2.76587 11.992C2.76587 7.71114 6.23616 4.24084 10.517 4.24084C14.7978 4.24084 18.2681 7.71114 18.2681 11.992C18.2681 14.7859 16.7899 17.2345 14.5729 18.5985C18.0837 20.1553 20.5327 23.6712 20.5327 27.7591C20.5327 28.3114 20.085 28.7591 19.5327 28.7591C18.9804 28.7591 18.5327 28.3114 18.5327 27.7591C18.5327 23.332 14.9438 19.7432 10.5168 19.7432C6.0897 19.7432 2.50085 23.332 2.50085 27.7591C2.50085 28.3114 2.05314 28.7591 1.50085 28.7591C0.94857 28.7591 0.500854 28.3114 0.500854 27.7591C0.500854 23.6711 2.94993 20.1552 6.46091 18.5984C4.24401 17.2344 2.76587 14.7858 2.76587 11.992ZM23.3192 19.6007C23.3192 19.0484 23.7669 18.6007 24.3192 18.6007H31.4991C32.0514 18.6007 32.4991 19.0484 32.4991 19.6007C32.4991 20.153 32.0514 20.6007 31.4991 20.6007H24.3192C23.7669 20.6007 23.3192 20.153 23.3192 19.6007Z" fill="#111827"/>
</svg>
