<svg width="33" height="33" viewBox="0 0 33 33" fill="none" xmlns="http://www.w3.org/2000/svg">
<path fill-rule="evenodd" clip-rule="evenodd" d="M4.90151 11.7234C4.90151 8.32481 7.65662 5.5697 11.0552 5.5697C14.4538 5.5697 17.2089 8.32481 17.2089 11.7234C17.2089 15.1015 14.4869 17.8439 11.1165 17.8768L11.0548 17.8766L10.9936 17.8768C7.62337 17.8437 4.90151 15.1014 4.90151 11.7234ZM19.2089 11.7234C19.2089 14.7032 17.6104 17.3097 15.2241 18.7322C18.9792 20.3487 21.6083 24.0824 21.6083 28.4302C21.6083 28.9825 21.1606 29.4302 20.6083 29.4302C20.056 29.4302 19.6083 28.9825 19.6083 28.4302C19.6083 23.7275 15.8132 19.9112 11.1186 19.8769L11.0552 19.8771L10.9914 19.8769C6.29655 19.9109 2.50122 23.7273 2.50122 28.4302C2.50122 28.9825 2.05351 29.4302 1.50122 29.4302C0.948936 29.4302 0.501221 28.9825 0.501221 28.4302C0.501221 24.0822 3.13055 20.3484 6.8859 18.732C4.49984 17.3095 2.90151 14.7031 2.90151 11.7234C2.90151 7.22024 6.55205 3.5697 11.0552 3.5697C15.5584 3.5697 19.2089 7.22024 19.2089 11.7234ZM21.9457 3.5697C21.3934 3.5697 20.9457 4.01742 20.9457 4.5697C20.9457 5.12199 21.3934 5.5697 21.9457 5.5697C25.3443 5.5697 28.0994 8.32481 28.0994 11.7234C28.0994 15.1015 25.3774 17.8439 22.007 17.8768C21.9864 17.8767 21.9658 17.8766 21.9452 17.8766C21.3929 17.8766 20.9452 18.3243 20.9452 18.8766C20.9452 19.1583 21.0617 19.4127 21.249 19.5945C21.4291 19.7694 21.6748 19.8771 21.9457 19.8771C21.9669 19.8771 21.9881 19.877 22.0092 19.8769C26.7038 19.9113 30.4988 23.7275 30.4988 28.4302C30.4988 28.9825 30.9465 29.4302 31.4988 29.4302C32.051 29.4302 32.4988 28.9825 32.4988 28.4302C32.4988 24.0824 29.8697 20.3488 26.1146 18.7322C28.5009 17.3098 30.0994 14.7033 30.0994 11.7234C30.0994 7.22024 26.4489 3.5697 21.9457 3.5697Z" fill="#111827"/>
</svg>
