<svg width="33" height="33" viewBox="0 0 33 33" fill="none" xmlns="http://www.w3.org/2000/svg">
<path fill-rule="evenodd" clip-rule="evenodd" d="M2.50085 16.4999C2.50085 8.76846 8.76846 2.50085 16.4999 2.50085C17.0522 2.50085 17.4999 2.05314 17.4999 1.50085C17.4999 0.94857 17.0522 0.500854 16.4999 0.500854C7.66389 0.500854 0.500854 7.66389 0.500854 16.4999C0.500854 25.336 7.66389 32.499 16.4999 32.499C25.336 32.499 32.499 25.336 32.499 16.4999C32.499 15.9477 32.0513 15.4999 31.499 15.4999C30.9467 15.4999 30.499 15.9477 30.499 16.4999C30.499 20.8767 28.4905 24.7843 25.3449 27.3514C24.8256 24.4527 22.9164 22.036 20.3314 20.8157C22.2281 19.568 23.4802 17.4203 23.4802 14.9803C23.4802 11.1254 20.3551 8.00039 16.5002 8.00039C12.6453 8.00039 9.52034 11.1254 9.52034 14.9803C9.52034 17.4203 10.7723 19.5678 12.6688 20.8156C10.0837 22.0358 8.17432 24.4526 7.65509 27.3514C4.50942 24.7844 2.50085 20.8767 2.50085 16.4999ZM9.52067 28.6379C11.5752 29.8218 13.9585 30.499 16.4999 30.499C19.0415 30.499 21.4248 29.8218 23.4793 28.6379C23.3179 24.9227 20.2549 21.9603 16.5 21.9603C12.7451 21.9603 9.68206 24.9227 9.52067 28.6379ZM27.7492 0.500854C28.3015 0.500854 28.7492 0.94857 28.7492 1.50085V4.25062H31.4991C32.0513 4.25062 32.4991 4.69834 32.4991 5.25062C32.4991 5.80291 32.0513 6.25062 31.4991 6.25062H28.7492V9.0004C28.7492 9.55268 28.3015 10.0004 27.7492 10.0004C27.1969 10.0004 26.7492 9.55268 26.7492 9.0004V6.25062H23.9995C23.4472 6.25062 22.9995 5.80291 22.9995 5.25062C22.9995 4.69834 23.4472 4.25062 23.9995 4.25062H26.7492V1.50085C26.7492 0.94857 27.1969 0.500854 27.7492 0.500854ZM16.5002 10.0004C13.7499 10.0004 11.5203 12.23 11.5203 14.9803C11.5203 17.7306 13.7499 19.9602 16.5002 19.9602C19.2506 19.9602 21.4802 17.7306 21.4802 14.9803C21.4802 12.23 19.2506 10.0004 16.5002 10.0004Z" fill="#111827"/>
</svg>
