<svg width="32" height="33" viewBox="0 0 32 33" fill="none" xmlns="http://www.w3.org/2000/svg">
<path d="M25.2693 18.3018C26.2644 18.3018 27.0711 17.4951 27.0711 16.5C27.0711 15.5049 26.2644 14.6982 25.2693 14.6982C24.2742 14.6982 23.4675 15.5049 23.4675 16.5C23.4675 17.4951 24.2742 18.3018 25.2693 18.3018Z" stroke="#1C1B1F" stroke-width="2" stroke-linecap="round" stroke-linejoin="round"/>
<path d="M25.2693 14.6983V13.3469" stroke="#1C1B1F" stroke-width="2" stroke-linecap="round" stroke-linejoin="round"/>
<path d="M23.709 15.5991L22.5387 14.9235" stroke="#1C1B1F" stroke-width="2" stroke-linecap="round" stroke-linejoin="round"/>
<path d="M23.709 17.4009L22.5387 18.0765" stroke="#1C1B1F" stroke-width="2" stroke-linecap="round" stroke-linejoin="round"/>
<path d="M25.2693 18.3018V19.6531" stroke="#1C1B1F" stroke-width="2" stroke-linecap="round" stroke-linejoin="round"/>
<path d="M26.8297 17.4009L28 18.0765" stroke="#1C1B1F" stroke-width="2" stroke-linecap="round" stroke-linejoin="round"/>
<path d="M26.8297 15.5991L28 14.9235" stroke="#1C1B1F" stroke-width="2" stroke-linecap="round" stroke-linejoin="round"/>
<path d="M12.6571 18.6539C16.2372 18.6539 19.1394 15.7517 19.1394 12.1716C19.1394 8.59154 16.2372 5.68933 12.6571 5.68933C9.07708 5.68933 6.17487 8.59154 6.17487 12.1716C6.17487 15.7517 9.07708 18.6539 12.6571 18.6539Z" stroke="#1C1B1F" stroke-width="2" stroke-linecap="round" stroke-linejoin="round"/>
<path d="M21.3138 27.3107C21.3138 22.5296 17.4379 18.6538 12.6569 18.6538C7.87582 18.6538 4 22.5296 4 27.3107" stroke="#1C1B1F" stroke-width="2" stroke-linecap="round" stroke-linejoin="round"/>
</svg>
