<svg width="33" height="33" viewBox="0 0 33 33" fill="none" xmlns="http://www.w3.org/2000/svg">
<path fill-rule="evenodd" clip-rule="evenodd" d="M28.5006 1.50073C28.5006 0.948448 28.0529 0.500732 27.5006 0.500732C26.9483 0.500732 26.5006 0.948448 26.5006 1.50073V2.48451C25.9868 2.63991 25.5237 2.91195 25.142 3.26984L24.2892 2.77746C23.8109 2.50132 23.1993 2.66519 22.9232 3.14348C22.647 3.62178 22.8109 4.23337 23.2892 4.50951L24.1414 5.00151C24.0827 5.25358 24.0517 5.51625 24.0517 5.78617C24.0517 6.05612 24.0827 6.31882 24.1414 6.57091L23.2892 7.06292C22.8109 7.33907 22.647 7.95066 22.9232 8.42895C23.1993 8.90724 23.8109 9.07112 24.2892 8.79497L25.1421 8.30256C25.5238 8.66042 25.9869 8.93244 26.5006 9.08783V10.0717C26.5006 10.6239 26.9483 11.0717 27.5006 11.0717C28.0529 11.0717 28.5006 10.6239 28.5006 10.0717V9.08779C29.0143 8.93239 29.4774 8.66038 29.859 8.30255L30.712 8.79497C31.1902 9.07112 31.8018 8.90724 32.078 8.42895C32.3541 7.95066 32.1902 7.33907 31.712 7.06292L30.8597 6.57089C30.9184 6.31881 30.9494 6.05611 30.9494 5.78617C30.9494 5.51626 30.9184 5.25359 30.8598 5.00153L31.712 4.50951C32.1902 4.23337 32.3541 3.62178 32.078 3.14348C31.8018 2.66519 31.1902 2.50132 30.712 2.77746L29.8591 3.26985C29.4775 2.91199 29.0144 2.63996 28.5006 2.48455V1.50073ZM28.7554 5.0618L28.7478 5.04846C28.4966 4.62466 28.0355 4.33991 27.5077 4.33734L27.5006 4.33737L27.4935 4.33734C26.9661 4.33988 26.5053 4.62417 26.2539 5.04742L26.2458 5.0618L26.2369 5.07697C26.119 5.2866 26.0517 5.52853 26.0517 5.78617C26.0517 6.04439 26.1193 6.28683 26.2377 6.49679L26.2458 6.51063L26.2532 6.52361C26.5055 6.94948 26.9697 7.23502 27.5006 7.23502C28.0318 7.23502 28.4963 6.94911 28.7485 6.52277L28.7554 6.51063L28.7628 6.49794C28.8816 6.28772 28.9494 6.04486 28.9494 5.78617C28.9494 5.52811 28.8819 5.2858 28.7637 5.07593L28.7554 5.0618ZM2.78772 16.806C2.78772 9.24353 8.91832 3.11293 16.4808 3.11293C17.0331 3.11293 17.4808 2.66521 17.4808 2.11293C17.4808 1.56065 17.0331 1.11293 16.4808 1.11293C7.81375 1.11293 0.78772 8.13896 0.78772 16.806C0.78772 25.4731 7.81375 32.4991 16.4808 32.4991C25.1478 32.4991 32.1739 25.4731 32.1739 16.806C32.1739 16.2537 31.7262 15.806 31.1739 15.806C30.6216 15.806 30.1739 16.2537 30.1739 16.806C30.1739 21.0747 28.2206 24.8871 25.1592 27.3983C24.6428 24.5796 22.7869 22.229 20.2755 21.0308C22.1222 19.802 23.3391 17.7018 23.3391 15.3173C23.3391 11.5298 20.2687 8.45942 16.4811 8.45942C12.6936 8.45942 9.62323 11.5298 9.62323 15.3173C9.62323 17.7017 10.84 19.8018 12.6865 21.0306C10.1749 22.2288 8.31887 24.5794 7.80247 27.3984C4.74097 24.8871 2.78772 21.0747 2.78772 16.806ZM9.66483 28.6848C11.672 29.839 13.9993 30.4991 16.4808 30.4991C18.9623 30.4991 21.2896 29.839 23.2968 28.6848C23.1329 25.0621 20.144 22.1754 16.4808 22.1754C12.8176 22.1754 9.82871 25.0621 9.66483 28.6848ZM16.4811 10.4594C13.7982 10.4594 11.6232 12.6344 11.6232 15.3173C11.6232 18.0003 13.7982 20.1752 16.4811 20.1752C19.1641 20.1752 21.3391 18.0003 21.3391 15.3173C21.3391 12.6344 19.1641 10.4594 16.4811 10.4594Z" fill="#111827"/>
</svg>
