<svg width="33" height="33" viewBox="0 0 33 33" fill="none" xmlns="http://www.w3.org/2000/svg">
<path fill-rule="evenodd" clip-rule="evenodd" d="M0.500854 1.50085C0.500854 0.94857 0.94857 0.500854 1.50085 0.500854H31.499C32.0513 0.500854 32.499 0.94857 32.499 1.50085V31.499C32.499 32.0513 32.0513 32.499 31.499 32.499H1.50085C0.94857 32.499 0.500854 32.0513 0.500854 31.499V1.50085ZM2.50085 2.50085V30.499H7.569C7.91898 27.3379 9.90873 24.6711 12.6687 23.3683C10.7723 22.1205 9.52047 19.973 9.52047 17.5332C9.52047 13.6783 12.6455 10.5533 16.5004 10.5533C20.3553 10.5533 23.4803 13.6783 23.4803 17.5332C23.4803 19.9732 22.2283 22.1207 20.3317 23.3685C23.0915 24.6714 25.081 27.338 25.431 30.499H30.499V2.50085H2.50085ZM23.415 30.499C22.9314 27.1248 20.0366 24.5289 16.5323 24.513C16.5217 24.5131 16.511 24.5131 16.5004 24.5131C16.4896 24.5131 16.4788 24.5131 16.468 24.513C12.9636 24.5287 10.0686 27.1247 9.58501 30.499H23.415ZM16.531 22.513C19.2673 22.4965 21.4803 20.2733 21.4803 17.5332C21.4803 14.7829 19.2507 12.5533 16.5004 12.5533C13.7501 12.5533 11.5205 14.7829 11.5205 17.5332C11.5205 20.2732 13.7334 22.4964 16.4695 22.513C16.4797 22.513 16.4898 22.513 16.5 22.513C16.5103 22.513 16.5207 22.513 16.531 22.513Z" fill="#111827"/>
</svg>
