<svg width="33" height="32" viewBox="0 0 33 32" fill="none" xmlns="http://www.w3.org/2000/svg">
<path fill-rule="evenodd" clip-rule="evenodd" d="M1.50085 1.87573C0.94857 1.87573 0.500854 2.32345 0.500854 2.87573V25.3744C0.500854 25.9266 0.94857 26.3744 1.50085 26.3744H5.50054V29.1241C5.50054 29.6764 5.94826 30.1241 6.50054 30.1241C7.05283 30.1241 7.50054 29.6764 7.50054 29.1241V26.3744H25.4993V29.1241C25.4993 29.6764 25.947 30.1241 26.4993 30.1241C27.0516 30.1241 27.4993 29.6764 27.4993 29.1241V26.3744H31.499C32.0513 26.3744 32.499 25.9266 32.499 25.3744V2.87573C32.499 2.32345 32.0513 1.87573 31.499 1.87573H1.50085ZM26.5058 24.3744H30.499V3.87573H2.50085V24.3744H6.494C6.49618 24.3743 6.49836 24.3743 6.50054 24.3743C6.50273 24.3743 6.50491 24.3743 6.50709 24.3744H26.4928C26.4949 24.3743 26.4971 24.3743 26.4993 24.3743C26.5015 24.3743 26.5037 24.3743 26.5058 24.3744ZM21.4065 10.0322C19.1461 10.0322 17.3137 11.8647 17.3137 14.1251C17.3137 16.3855 19.1461 18.2179 21.4065 18.2179C23.6669 18.2179 25.4993 16.3855 25.4993 14.1251C25.4993 11.8647 23.6669 10.0322 21.4065 10.0322ZM15.3137 14.1251C15.3137 10.7601 18.0416 8.03224 21.4065 8.03224C24.7715 8.03224 27.4993 10.7601 27.4993 14.1251C27.4993 17.49 24.7715 20.2179 21.4065 20.2179C18.0416 20.2179 15.3137 17.49 15.3137 14.1251ZM6.31434 11.6594C7.00465 11.6594 7.56426 11.0998 7.56426 10.4095C7.56426 9.71917 7.00465 9.15956 6.31434 9.15956C5.62403 9.15956 5.06442 9.71917 5.06442 10.4095C5.06442 11.0998 5.62403 11.6594 6.31434 11.6594ZM23.4435 14.1249C23.4435 15.25 22.5314 16.162 21.4064 16.162C20.2813 16.162 19.3692 15.25 19.3692 14.1249C19.3692 12.9998 20.2813 12.0878 21.4064 12.0878C22.5314 12.0878 23.4435 12.9998 23.4435 14.1249ZM7.56426 14.0903C7.56426 14.7806 7.00465 15.3403 6.31434 15.3403C5.62403 15.3403 5.06442 14.7806 5.06442 14.0903C5.06442 13.4 5.62403 12.8404 6.31434 12.8404C7.00465 12.8404 7.56426 13.4 7.56426 14.0903ZM6.31434 19.0898C7.00465 19.0898 7.56426 18.5302 7.56426 17.8399C7.56426 17.1495 7.00465 16.5899 6.31434 16.5899C5.62403 16.5899 5.06442 17.1495 5.06442 17.8399C5.06442 18.5302 5.62403 19.0898 6.31434 19.0898ZM11.3139 10.4095C11.3139 11.0998 10.7543 11.6594 10.064 11.6594C9.37367 11.6594 8.81406 11.0998 8.81406 10.4095C8.81406 9.71917 9.37367 9.15956 10.064 9.15956C10.7543 9.15956 11.3139 9.71917 11.3139 10.4095ZM10.064 15.3403C10.7543 15.3403 11.3139 14.7806 11.3139 14.0903C11.3139 13.4 10.7543 12.8404 10.064 12.8404C9.37367 12.8404 8.81406 13.4 8.81406 14.0903C8.81406 14.7806 9.37367 15.3403 10.064 15.3403ZM11.3139 17.8399C11.3139 18.5302 10.7543 19.0898 10.064 19.0898C9.37367 19.0898 8.81406 18.5302 8.81406 17.8399C8.81406 17.1495 9.37367 16.5899 10.064 16.5899C10.7543 16.5899 11.3139 17.1495 11.3139 17.8399Z" fill="#111827"/>
</svg>
