<svg width="32" height="32" viewBox="0 0 32 32" fill="none" xmlns="http://www.w3.org/2000/svg">
<path d="M24 23.5V26.5" stroke="#1C1B1F" stroke-width="2" stroke-linecap="round" stroke-linejoin="round"/>
<path d="M8 23.5V26.5" stroke="#1C1B1F" stroke-width="2" stroke-linecap="round" stroke-linejoin="round"/>
<path d="M19.9255 16.1297C20.8256 16.1297 21.5553 15.4 21.5553 14.4999C21.5553 13.5998 20.8256 12.8701 19.9255 12.8701C19.0253 12.8701 18.2957 13.5998 18.2957 14.4999C18.2957 15.4 19.0253 16.1297 19.9255 16.1297Z" fill="#1C1B1F"/>
<path d="M7.85095 12.5273C8.40324 12.5273 8.85095 12.0796 8.85095 11.5273C8.85095 10.9751 8.40324 10.5273 7.85095 10.5273C7.29867 10.5273 6.85095 10.9751 6.85095 11.5273C6.85095 12.0796 7.29867 12.5273 7.85095 12.5273Z" fill="#1C1B1F"/>
<path d="M7.85095 15.4722C8.40324 15.4722 8.85095 15.0245 8.85095 14.4722C8.85095 13.9199 8.40324 13.4722 7.85095 13.4722C7.29867 13.4722 6.85095 13.9199 6.85095 14.4722C6.85095 15.0245 7.29867 15.4722 7.85095 15.4722Z" fill="#1C1B1F"/>
<path d="M7.85095 18.4722C8.40324 18.4722 8.85095 18.0245 8.85095 17.4722C8.85095 16.9199 8.40324 16.4722 7.85095 16.4722C7.29867 16.4722 6.85095 16.9199 6.85095 17.4722C6.85095 18.0245 7.29867 18.4722 7.85095 18.4722Z" fill="#1C1B1F"/>
<path d="M10.851 12.5273C11.4032 12.5273 11.851 12.0796 11.851 11.5273C11.851 10.9751 11.4032 10.5273 10.851 10.5273C10.2987 10.5273 9.85095 10.9751 9.85095 11.5273C9.85095 12.0796 10.2987 12.5273 10.851 12.5273Z" fill="#1C1B1F"/>
<path d="M10.851 15.4722C11.4032 15.4722 11.851 15.0245 11.851 14.4722C11.851 13.9199 11.4032 13.4722 10.851 13.4722C10.2987 13.4722 9.85095 13.9199 9.85095 14.4722C9.85095 15.0245 10.2987 15.4722 10.851 15.4722Z" fill="#1C1B1F"/>
<path d="M10.851 18.4722C11.4032 18.4722 11.851 18.0245 11.851 17.4722C11.851 16.9199 11.4032 16.4722 10.851 16.4722C10.2987 16.4722 9.85095 16.9199 9.85095 17.4722C9.85095 18.0245 10.2987 18.4722 10.851 18.4722Z" fill="#1C1B1F"/>
<path d="M19.9255 18.5745C22.1757 18.5745 24 16.7503 24 14.5C24 12.2498 22.1757 10.4255 19.9255 10.4255C17.6752 10.4255 15.851 12.2498 15.851 14.5C15.851 16.7503 17.6752 18.5745 19.9255 18.5745Z" stroke="#1C1B1F" stroke-width="2" stroke-linecap="round" stroke-linejoin="round"/>
<path d="M4 5.5H28V23.5H4V5.5Z" stroke="#1C1B1F" stroke-width="2" stroke-linejoin="round"/>
</svg>
