<svg width="22" height="6" viewBox="0 0 22 6" fill="none" xmlns="http://www.w3.org/2000/svg">
<path d="M18.6477 5.57337H3.31172C1.99477 5.57337 0.92334 4.50194 0.92334 3.18515V2.81595C0.92334 1.49916 1.99477 0.427734 3.31172 0.427734H18.6477C19.9646 0.427734 21.0361 1.49916 21.0361 2.81595V3.18515C21.0361 4.50194 19.9646 5.57337 18.6477 5.57337ZM3.31172 1.82819C2.76721 1.82819 2.32413 2.27144 2.32413 2.81595V3.18515C2.32413 3.72966 2.76721 4.17291 3.31172 4.17291H18.6477C19.1922 4.17291 19.6353 3.72966 19.6353 3.18515V2.81595C19.6353 2.27144 19.1922 1.82819 18.6477 1.82819H3.31172Z" fill="black"/>
</svg>
