<svg width="22" height="6" viewBox="0 0 22 6" fill="none" xmlns="http://www.w3.org/2000/svg">
<path d="M19.6884 5.50001H2.27154C1.65465 5.50001 1.10566 5.15471 0.838546 4.59891C0.571436 4.04278 0.644978 3.39833 1.03045 2.91724L3.01643 0.435724C3.1494 0.269714 3.3506 0.173096 3.56326 0.173096H18.3966C18.6092 0.173096 18.8104 0.269714 18.9434 0.435724L20.9295 2.91724C21.3148 3.39833 21.3884 4.04278 21.1213 4.59891C20.8542 5.15471 20.3052 5.50001 19.6884 5.50001ZM3.89976 1.57355L2.12396 3.79244C2.06253 3.86913 2.07764 3.94351 2.10121 3.99231C2.12462 4.04112 2.17326 4.09956 2.27154 4.09956H19.6884C19.7865 4.09956 19.8352 4.04112 19.8586 3.99231C19.8822 3.94351 19.8973 3.86913 19.836 3.79244L18.06 1.57355H3.89976Z" fill="black"/>
</svg>
