<svg width="33" height="32" viewBox="0 0 33 32" fill="none" xmlns="http://www.w3.org/2000/svg">
<path fill-rule="evenodd" clip-rule="evenodd" d="M10.0716 3.21509C9.51928 3.21509 9.07156 3.6628 9.07156 4.21509V27.7848C9.07156 28.3371 9.51928 28.7848 10.0716 28.7848H22.9278C23.4801 28.7848 23.9278 28.3371 23.9278 27.7848V4.21509C23.9278 3.6628 23.4801 3.21509 22.9278 3.21509H10.0716ZM11.0716 26.7848V5.21509H21.9278V26.7848H11.0716ZM6.78627 10.6436C6.78627 10.0913 6.33855 9.64358 5.78627 9.64358C5.23398 9.64358 4.78627 10.0913 4.78627 10.6436V21.3571C4.78627 21.9094 5.23398 22.3571 5.78627 22.3571C6.33855 22.3571 6.78627 21.9094 6.78627 21.3571V10.6436ZM27.2138 9.64358C27.7661 9.64358 28.2138 10.0913 28.2138 10.6436V21.3571C28.2138 21.9094 27.7661 22.3571 27.2138 22.3571C26.6615 22.3571 26.2138 21.9094 26.2138 21.3571V10.6436C26.2138 10.0913 26.6615 9.64358 27.2138 9.64358ZM31.4991 11.7858C32.0513 11.7858 32.4991 12.2335 32.4991 12.7858V19.2139C32.4991 19.7662 32.0513 20.2139 31.4991 20.2139C30.9468 20.2139 30.4991 19.7662 30.4991 19.2139V12.7858C30.4991 12.2335 30.9468 11.7858 31.4991 11.7858ZM1.50092 11.7858C2.0532 11.7858 2.50092 12.2335 2.50092 12.7858V19.2139C2.50092 19.7662 2.0532 20.2139 1.50092 20.2139C0.948631 20.2139 0.500916 19.7662 0.500916 19.2139V12.7858C0.500916 12.2335 0.948631 11.7858 1.50092 11.7858Z" fill="#111827"/>
</svg>
