<svg width="33" height="33" viewBox="0 0 33 33" fill="none" xmlns="http://www.w3.org/2000/svg">
<path fill-rule="evenodd" clip-rule="evenodd" d="M1.50085 6.39331C0.94857 6.39331 0.500854 6.84103 0.500854 7.39331V20.6065C0.500854 23.9202 3.18715 26.6065 6.50085 26.6065H23.9995C24.5518 26.6065 24.9995 26.1588 24.9995 25.6065V19.9896L30.9634 23.7725C31.2714 23.9678 31.6613 23.98 31.9809 23.8043C32.3005 23.6285 32.499 23.2927 32.499 22.928V10.0716C32.499 9.70691 32.3005 9.37111 31.9809 9.19537C31.6613 9.01963 31.2714 9.03182 30.9634 9.22717L24.9995 13.01V12.3933C24.9995 9.0796 22.3132 6.39331 18.9995 6.39331H1.50085ZM2.50085 20.6065V8.39331H18.9995C21.2087 8.39331 22.9995 10.1842 22.9995 12.3933V24.6065H6.50085C4.29172 24.6065 2.50085 22.8157 2.50085 20.6065ZM30.499 21.1095L24.9995 17.6212V15.3784L30.499 11.8901V21.1095Z" fill="#111827"/>
</svg>
