<svg width="33" height="33" viewBox="0 0 33 33" fill="none" xmlns="http://www.w3.org/2000/svg">
<path fill-rule="evenodd" clip-rule="evenodd" d="M2.19186 0.761044C2.60051 0.389537 3.23296 0.419653 3.60447 0.828311L30.8755 30.8265C31.247 31.2351 31.2169 31.8676 30.8083 32.2391C30.3996 32.6106 29.7671 32.5805 29.3956 32.1718L24.2958 26.562C24.2022 26.5909 24.1027 26.6065 23.9996 26.6065H6.50098C3.18727 26.6065 0.500977 23.9202 0.500977 20.6065V7.39334C0.500977 6.84105 0.948692 6.39334 1.50098 6.39334H5.96066L2.12459 2.17366C1.75308 1.765 1.7832 1.13255 2.19186 0.761044ZM7.77884 8.39334L22.5181 24.6065H6.50098C4.29184 24.6065 2.50098 22.8157 2.50098 20.6065V8.39334H7.77884ZM14.2627 7.39334C14.2627 6.84105 14.7104 6.39334 15.2627 6.39334H18.9996C22.3133 6.39334 24.9996 9.07963 24.9996 12.3933V13.0103L30.9634 9.22747C31.2714 9.03211 31.6613 9.01993 31.9809 9.19567C32.3005 9.37141 32.4991 9.7072 32.4991 10.0719V22.9283C32.4991 23.293 32.3005 23.6288 31.9809 23.8045C31.6613 23.9803 31.2714 23.9681 30.9634 23.7727L23.4639 19.0159C23.1748 18.8324 22.9996 18.5138 22.9996 18.1714V14.8288C22.9996 14.8255 22.9996 14.8222 22.9996 14.8188V12.3933C22.9996 10.1842 21.2088 8.39334 18.9996 8.39334H15.2627C14.7104 8.39334 14.2627 7.94562 14.2627 7.39334ZM24.9996 17.6215L30.4991 21.1098V11.8904L24.9996 15.3787V17.6215Z" fill="#111827"/>
</svg>
