<svg width="33" height="33" viewBox="0 0 33 33" fill="none" xmlns="http://www.w3.org/2000/svg">
<path fill-rule="evenodd" clip-rule="evenodd" d="M1.50098 2.75073C0.948692 2.75073 0.500977 3.19845 0.500977 3.75073V28.7492C0.500977 29.3015 0.948692 29.7492 1.50098 29.7492H31.4991C32.0514 29.7492 32.4991 29.3015 32.4991 28.7492V3.75073C32.4991 3.19845 32.0514 2.75073 31.4991 2.75073H1.50098ZM2.50098 27.7492V4.75073H30.4991V27.7492H2.50098ZM7.50067 16.25C7.50067 14.5644 8.40931 12.9621 10.0294 11.747C11.6498 10.5317 13.9342 9.75042 16.5001 9.75042C19.0659 9.75042 21.3503 10.5317 22.9707 11.747C24.5908 12.9621 25.4994 14.5644 25.4994 16.25C25.4994 17.9356 24.5908 19.5379 22.9707 20.7529C21.3503 21.9683 19.0659 22.7495 16.5001 22.7495C13.9342 22.7495 11.6498 21.9683 10.0294 20.7529C8.40931 19.5379 7.50067 17.9356 7.50067 16.25ZM16.5001 7.75042C13.5434 7.75042 10.8281 8.648 8.82942 10.147C6.83046 11.6462 5.50067 13.7937 5.50067 16.25C5.50067 18.7062 6.83046 20.8537 8.82942 22.3529C10.8281 23.8519 13.5434 24.7495 16.5001 24.7495C19.4568 24.7495 22.172 23.8519 24.1707 22.3529C26.1696 20.8537 27.4994 18.7062 27.4994 16.25C27.4994 13.7937 26.1696 11.6462 24.1707 10.147C22.172 8.648 19.4568 7.75042 16.5001 7.75042Z" fill="#111827"/>
</svg>
