<svg width="33" height="32" viewBox="0 0 33 32" fill="none" xmlns="http://www.w3.org/2000/svg">
<path fill-rule="evenodd" clip-rule="evenodd" d="M0.500977 2.25073C0.500977 1.69845 0.948692 1.25073 1.50098 1.25073H31.4991C32.0514 1.25073 32.4991 1.69845 32.4991 2.25073V24.7494C32.4991 25.3016 32.0514 25.7494 31.4991 25.7494H1.50098C0.948692 25.7494 0.500977 25.3016 0.500977 24.7494V2.25073ZM2.50098 3.25073V23.7494H30.4991V3.25073H2.50098ZM10.5004 29.749C10.5004 29.1967 10.9481 28.749 11.5004 28.749H21.4998C22.052 28.749 22.4998 29.1967 22.4998 29.749C22.4998 30.3013 22.052 30.749 21.4998 30.749H11.5004C10.9481 30.749 10.5004 30.3013 10.5004 29.749ZM16.9883 5.18349C16.6849 5.01371 16.3151 5.01371 16.0117 5.18349L9.26729 8.95747C8.95133 9.13428 8.75562 9.46807 8.75562 9.83014V17.3762C8.75562 17.7383 8.95133 18.0721 9.26729 18.2489L16.0117 22.0228C16.3151 22.1926 16.6849 22.1926 16.9883 22.0228L23.7327 18.2489C24.0486 18.0721 24.2444 17.7383 24.2444 17.3762V9.85454C24.2472 9.73856 24.2299 9.6211 24.1909 9.50752C24.1124 9.27742 23.9514 9.07984 23.7327 8.95747L16.9883 5.18349ZM16.5 7.20207L21.2091 9.8372L16.6013 12.455L11.846 9.80631L16.5 7.20207ZM15.5751 14.1727L10.7556 11.4883V16.7899L15.5751 19.4867V14.1727ZM17.5751 14.2019V19.4026L22.2444 16.7899V11.5493L17.5751 14.2019Z" fill="#111827"/>
</svg>
