<svg width="33" height="32" viewBox="0 0 33 32" fill="none" xmlns="http://www.w3.org/2000/svg">
<path fill-rule="evenodd" clip-rule="evenodd" d="M7.50066 11.0003C4.73941 11.0003 2.50098 13.2387 2.50098 16C2.50098 18.7579 4.73398 20.9942 7.4906 20.9997C7.49394 20.9996 7.49728 20.9996 7.50063 20.9996H7.52523C10.2752 20.9864 12.5003 18.753 12.5003 16C12.5003 13.2387 10.2619 11.0003 7.50066 11.0003ZM12.3996 20.9996C13.696 19.7292 14.5003 17.9585 14.5003 16C14.5003 12.1342 11.3665 9.00031 7.50066 9.00031C3.63484 9.00031 0.500977 12.1342 0.500977 16C0.500977 19.8658 3.63484 22.9997 7.50066 22.9997C7.51036 22.9997 7.52005 22.9996 7.52974 22.9996H25.4703C25.48 22.9996 25.4897 22.9997 25.4994 22.9997C29.3652 22.9997 32.4991 19.8658 32.4991 16C32.4991 12.1342 29.3652 9.00031 25.4994 9.00031C21.6336 9.00031 18.4997 12.1342 18.4997 16C18.4997 17.9585 19.3041 19.7292 20.6005 20.9996H12.3996ZM25.5097 20.9997C25.5063 20.9996 25.503 20.9996 25.4997 20.9996H25.4748C22.7249 20.9864 20.4997 18.753 20.4997 16C20.4997 13.2387 22.7381 11.0003 25.4994 11.0003C28.2606 11.0003 30.4991 13.2387 30.4991 16C30.4991 18.7578 28.2662 20.9941 25.5097 20.9997Z" fill="#111827"/>
</svg>
