<svg width="33" height="33" viewBox="0 0 33 33" fill="none" xmlns="http://www.w3.org/2000/svg">
<path fill-rule="evenodd" clip-rule="evenodd" d="M14.5624 2.63372C13.0826 2.83858 11.6768 3.27473 10.3825 3.9045L13.8317 9.87859C13.8411 9.89396 13.8502 9.90966 13.8588 9.92569L17.0771 15.4998H22.5862C22.6232 12.926 21.95 10.3851 20.6321 8.16026C19.2052 5.75139 17.0902 3.82738 14.5624 2.63372ZM8.65136 4.90606L11.5903 9.99642C9.03315 11.4302 6.91236 13.5429 5.46826 16.1101C4.46701 17.89 3.82141 19.8345 3.55376 21.8362C2.87512 20.1916 2.50073 18.3894 2.50073 16.4998C2.50073 11.6769 4.93962 7.42365 8.65136 4.90606ZM16.4998 32.4989C11.29 32.4989 6.66175 30.0087 3.74044 26.1537C3.70587 26.1145 3.67428 26.0724 3.64607 26.0279C1.66985 23.3663 0.500732 20.0696 0.500732 16.4998C0.500732 8.33178 6.62164 1.59336 14.5268 0.621181C14.5742 0.612056 14.6223 0.606326 14.6708 0.604133C15.271 0.535827 15.8813 0.500732 16.4998 0.500732C25.3359 0.500732 32.4989 7.66377 32.4989 16.4998C32.4989 18.7259 32.0442 20.8459 31.2227 22.7718C31.2159 22.7892 31.2085 22.8064 31.2006 22.8235C28.7493 28.5146 23.0898 32.4989 16.4998 32.4989ZM29.4796 21.7537C30.018 20.425 30.3582 18.9948 30.4637 17.4998H23.5577C23.5463 17.5 23.5349 17.5 23.5234 17.4998H17.0772L14.3225 22.2709C16.5331 23.5901 19.0703 24.2776 21.6563 24.2486C24.4568 24.2173 27.1814 23.3471 29.4796 21.7537ZM13.3225 24.0031C15.8429 25.501 18.7331 26.2815 21.6786 26.2485C23.7183 26.2257 25.7228 25.8135 27.5882 25.0462C25.0283 28.3627 21.0135 30.4989 16.4998 30.4989C14.3063 30.4989 12.2307 29.9944 10.3826 29.0952L13.3225 24.0031ZM7.21139 17.0906C5.83899 19.5303 5.2302 22.3233 5.46 25.1088C6.36062 26.2621 7.43801 27.2706 8.65142 28.0936L15.3451 16.4999L12.5904 11.7286C10.343 12.9835 8.47918 14.8369 7.21139 17.0906ZM18.3546 2.62252C19.9528 3.85472 21.3128 5.38512 22.3528 7.14094C23.8541 9.67523 24.6233 12.5683 24.5864 15.4998H30.4637C29.9946 8.85274 24.8848 3.48694 18.3546 2.62252Z" fill="#111827"/>
</svg>
