<svg width="33" height="32" viewBox="0 0 33 32" fill="none" xmlns="http://www.w3.org/2000/svg">
<path fill-rule="evenodd" clip-rule="evenodd" d="M14.5624 2.13372C13.0826 2.33858 11.6768 2.77473 10.3825 3.4045L13.8317 9.37859C13.8411 9.39396 13.8502 9.40966 13.8588 9.42569L17.0771 14.9998H22.5862C22.6232 12.426 21.95 9.88513 20.6321 7.66026C19.2052 5.25139 17.0902 3.32738 14.5624 2.13372ZM8.65136 4.40606L11.5903 9.49642C9.03315 10.9302 6.91236 13.0429 5.46826 15.6101C4.46701 17.39 3.82141 19.3345 3.55376 21.3362C2.87512 19.6916 2.50073 17.8894 2.50073 15.9998C2.50073 11.1769 4.93962 6.92365 8.65136 4.40606ZM16.4998 31.9989C11.29 31.9989 6.66175 29.5087 3.74044 25.6537C3.70587 25.6145 3.67428 25.5724 3.64607 25.5279C1.66985 22.8663 0.500732 19.5696 0.500732 15.9998C0.500732 7.83178 6.62164 1.09336 14.5268 0.121181C14.5742 0.112056 14.6223 0.106326 14.6708 0.104133C15.271 0.0358268 15.8813 0.000732422 16.4998 0.000732422C25.3359 0.000732422 32.4989 7.16377 32.4989 15.9998C32.4989 18.2259 32.0442 20.3459 31.2227 22.2718C31.2159 22.2892 31.2085 22.3064 31.2006 22.3235C28.7493 28.0146 23.0898 31.9989 16.4998 31.9989ZM29.4796 21.2537C30.018 19.925 30.3582 18.4948 30.4637 16.9998H23.5577C23.5463 17 23.5349 17 23.5234 16.9998H17.0772L14.3225 21.7709C16.5331 23.0901 19.0703 23.7776 21.6563 23.7486C24.4568 23.7173 27.1814 22.8471 29.4796 21.2537ZM13.3225 23.5031C15.8429 25.001 18.7331 25.7815 21.6786 25.7485C23.7183 25.7257 25.7228 25.3135 27.5882 24.5462C25.0283 27.8627 21.0135 29.9989 16.4998 29.9989C14.3063 29.9989 12.2307 29.4944 10.3826 28.5952L13.3225 23.5031ZM7.21139 16.5906C5.83899 19.0303 5.2302 21.8233 5.46 24.6088C6.36062 25.7621 7.43801 26.7706 8.65142 27.5936L15.3451 15.9999L12.5904 11.2286C10.343 12.4835 8.47918 14.3369 7.21139 16.5906ZM18.3546 2.12252C19.9528 3.35472 21.3128 4.88512 22.3528 6.64094C23.8541 9.17523 24.6233 12.0683 24.5864 14.9998H30.4637C29.9946 8.35274 24.8848 2.98694 18.3546 2.12252Z" fill="#111827"/>
</svg>
