<svg width="33" height="32" viewBox="0 0 33 32" fill="none" xmlns="http://www.w3.org/2000/svg">
<path d="M30.4341 4.23364L24.2627 1.26465C23.5446 0.917789 22.6906 1.06403 22.129 1.62558L10.3084 12.4112L5.15697 8.50477C4.67886 8.13822 4.00482 8.16821 3.56045 8.5732L1.9105 10.0769C1.36395 10.57 1.36395 11.4297 1.90581 11.9228L6.37381 15.9999L1.90581 20.077C1.36395 20.5701 1.36395 21.4297 1.9105 21.9228L3.56045 23.4265C4.0095 23.8315 4.67886 23.8615 5.15697 23.495L10.3084 19.5838L22.1346 30.3742C22.6915 30.9357 23.5455 31.082 24.2636 30.7351L30.4407 27.7614C31.0903 27.4492 31.5 26.7949 31.5 26.0721V5.92109C31.5 5.20298 31.0847 4.54394 30.436 4.23176L30.4341 4.23364ZM24.003 22.8125L15.0286 16.0008L24.003 9.18912V22.8125Z" stroke="#111827" stroke-width="2"/>
</svg>
