<svg width="33" height="32" viewBox="0 0 33 32" fill="none" xmlns="http://www.w3.org/2000/svg">
<g clip-path="url(#clip0_6_1684)">
<path fill-rule="evenodd" clip-rule="evenodd" d="M21.1078 2.14343H20.8418L20.6931 2.36406L16.4981 8.59054L12.2614 2.36265L12.1126 2.14388H11.848H7.12662L7.1265 2.14368H6.83783H1.36674H0.500732L0.933722 2.89367L16.0671 29.1065L16.5001 29.8566L16.9331 29.1065L32.0665 2.89367L32.4995 2.14368H31.6335H26.9772L26.9774 2.14343H26.1109H21.1078ZM16.9148 9.7618L21.3738 3.14343H25.2444L16.4991 18.2744L7.71342 3.14388H11.5834L16.0867 9.76365L16.5021 10.3743L16.9148 9.7618ZM16.5001 27.8565L2.23275 3.14368H6.54916L16.0671 19.6288L16.5001 20.3788L16.9331 19.6288L26.4511 3.14368H30.7675L16.5001 27.8565Z" fill="#111827"/>
</g>
<defs>
<clipPath id="clip0_6_1684">
<rect width="32" height="32" fill="white" transform="translate(0.5)"/>
</clipPath>
</defs>
</svg>
