<svg width="33" height="33" viewBox="0 0 33 33" fill="none" xmlns="http://www.w3.org/2000/svg">
<path fill-rule="evenodd" clip-rule="evenodd" d="M0.499985 5.42505C0.499985 3.76819 1.84313 2.42505 3.49999 2.42505H25.332C25.8843 2.42505 26.332 2.87276 26.332 3.42505C26.332 3.97733 25.8843 4.42505 25.332 4.42505H3.49999C2.9477 4.42505 2.49998 4.87277 2.49998 5.42505V7.59664H4.74154L4.74918 7.59661H31.5002C32.0525 7.59661 32.5002 8.04432 32.5002 8.59661V29.5752C32.5002 30.1275 32.0525 30.5752 31.5002 30.5752H1.49976C0.947471 30.5752 0.499756 30.1275 0.499756 29.5752V5.84468L0.499985 5.82307V5.42505ZM28.9958 9.59664L29.0035 9.59661H30.5002V28.5752H2.49976V9.59664H28.9958ZM27.7509 23.9506C27.7509 24.9863 26.9112 25.826 25.8754 25.826C24.8396 25.826 24 24.9863 24 23.9506C24 22.9148 24.8396 22.0751 25.8754 22.0751C26.9112 22.0751 27.7509 22.9148 27.7509 23.9506Z" fill="#111827"/>
</svg>
