<svg width="33" height="32" viewBox="0 0 33 32" fill="none" xmlns="http://www.w3.org/2000/svg">
<path fill-rule="evenodd" clip-rule="evenodd" d="M16.5 3.75073H31.499C32.0513 3.75073 32.499 4.19845 32.499 4.75073V12.2503V19.7498V27.2494C32.499 27.8016 32.0513 28.2494 31.499 28.2494H1.50085C0.94857 28.2494 0.500854 27.8016 0.500854 27.2494V19.7498V12.2503V4.75073C0.500854 4.19845 0.94857 3.75073 1.50085 3.75073H16.5ZM2.50085 11.2503V5.75073H15.5V11.2503H9.00039H2.50085ZM2.50085 13.2503V18.7498H8.00039V13.2503H2.50085ZM2.50085 20.7498V26.2494H15.5V20.7498H9.00381L9.00039 20.7498L8.99697 20.7498H2.50085ZM17.5 26.2494H30.499V20.7498H24.0029L23.9995 20.7498L23.996 20.7498H17.5V26.2494ZM30.499 18.7498V13.2503H24.9995V18.7498H30.499ZM30.499 11.2503H23.9995H17.5V5.75073H30.499V11.2503ZM22.9995 13.2503V18.7498H16.5H10.0004V13.2503H16.4961L16.5 13.2503L16.504 13.2503H22.9995Z" fill="#111827"/>
</svg>
