<svg width="33" height="32" viewBox="0 0 33 32" fill="none" xmlns="http://www.w3.org/2000/svg">
<path fill-rule="evenodd" clip-rule="evenodd" d="M3.7563 3.14146C3.7563 2.59775 4.19707 2.15698 4.74078 2.15698C5.28449 2.15698 5.72525 2.59775 5.72525 3.14146C5.72525 3.68517 5.28449 4.12593 4.74078 4.12593C4.19707 4.12593 3.7563 3.68517 3.7563 3.14146ZM4.74078 0.156982C3.0925 0.156982 1.7563 1.49318 1.7563 3.14146C1.7563 4.78974 3.0925 6.12593 4.74078 6.12593C6.38906 6.12593 7.72525 4.78974 7.72525 3.14146C7.72525 1.49318 6.38906 0.156982 4.74078 0.156982ZM28.167 8.45559C26.8784 8.45559 25.8338 9.50023 25.8338 10.7889C25.8338 12.0775 26.8784 13.1222 28.167 13.1222C29.4557 13.1222 30.5003 12.0775 30.5003 10.7889C30.5003 9.50023 29.4557 8.45559 28.167 8.45559ZM23.8338 10.7889C23.8338 8.39566 25.7738 6.45559 28.167 6.45559C30.5603 6.45559 32.5003 8.39566 32.5003 10.7889C32.5003 13.1821 30.5603 15.1222 28.167 15.1222C25.7738 15.1222 23.8338 13.1821 23.8338 10.7889ZM2.49976 11.0456C2.49976 9.75701 3.5444 8.71236 4.83304 8.71236C6.12168 8.71236 7.16633 9.75701 7.16633 11.0456C7.16633 12.3343 6.12168 13.3789 4.83304 13.3789C3.5444 13.3789 2.49976 12.3343 2.49976 11.0456ZM4.83304 6.71236C2.43983 6.71236 0.499756 8.65244 0.499756 11.0456C0.499756 13.4389 2.43983 15.3789 4.83304 15.3789C7.22625 15.3789 9.16632 13.4389 9.16632 11.0456C9.16632 8.65244 7.22625 6.71236 4.83304 6.71236ZM14.1663 21.2943C14.1663 20.0056 15.2109 18.961 16.4996 18.961C17.7882 18.961 18.8328 20.0056 18.8328 21.2943C18.8328 22.5829 17.7882 23.6276 16.4996 23.6276C15.2109 23.6276 14.1663 22.5829 14.1663 21.2943ZM16.4996 16.961C14.1063 16.961 12.1663 18.9011 12.1663 21.2943C12.1663 23.6875 14.1063 25.6276 16.4996 25.6276C18.8928 25.6276 20.8328 23.6875 20.8328 21.2943C20.8328 18.9011 18.8928 16.961 16.4996 16.961ZM2.49976 26.0454C2.49976 24.7567 3.5444 23.7121 4.83304 23.7121C6.12168 23.7121 7.16633 24.7567 7.16633 26.0454C7.16633 27.334 6.12168 28.3787 4.83304 28.3787C3.5444 28.3787 2.49976 27.334 2.49976 26.0454ZM4.83304 21.7121C2.43983 21.7121 0.499756 23.6522 0.499756 26.0454C0.499756 28.4386 2.43983 30.3787 4.83304 30.3787C7.22625 30.3787 9.16632 28.4386 9.16632 26.0454C9.16632 23.6522 7.22625 21.7121 4.83304 21.7121ZM4.74078 17.453C4.19707 17.453 3.7563 17.8938 3.7563 18.4375C3.7563 18.9812 4.19707 19.422 4.74078 19.422C5.28449 19.422 5.72525 18.9812 5.72525 18.4375C5.72525 17.8938 5.28449 17.453 4.74078 17.453ZM1.7563 18.4375C1.7563 16.7892 3.0925 15.453 4.74078 15.453C6.38906 15.453 7.72525 16.7892 7.72525 18.4375C7.72525 20.0858 6.38906 21.422 4.74078 21.422C3.0925 21.422 1.7563 20.0858 1.7563 18.4375ZM16.5 5.09845C15.9563 5.09845 15.5156 5.53921 15.5156 6.08292C15.5156 6.62663 15.9563 7.0674 16.5 7.0674C17.0438 7.0674 17.4845 6.62663 17.4845 6.08292C17.4845 5.53921 17.0438 5.09845 16.5 5.09845ZM13.5156 6.08292C13.5156 4.43464 14.8518 3.09845 16.5 3.09845C18.1483 3.09845 19.4845 4.43464 19.4845 6.08292C19.4845 7.7312 18.1483 9.0674 16.5 9.0674C14.8518 9.0674 13.5156 7.7312 13.5156 6.08292ZM27.2751 3.14146C27.2751 2.59775 27.7158 2.15698 28.2596 2.15698C28.8033 2.15698 29.244 2.59775 29.244 3.14146C29.244 3.68517 28.8033 4.12593 28.2596 4.12593C27.7158 4.12593 27.2751 3.68517 27.2751 3.14146ZM28.2596 0.156982C26.6113 0.156982 25.2751 1.49318 25.2751 3.14146C25.2751 4.78974 26.6113 6.12593 28.2596 6.12593C29.9078 6.12593 31.244 4.78974 31.244 3.14146C31.244 1.49318 29.9078 0.156982 28.2596 0.156982ZM28.2596 17.4523C27.7158 17.4523 27.2751 17.8931 27.2751 18.4368C27.2751 18.9805 27.7158 19.4213 28.2596 19.4213C28.8033 19.4213 29.244 18.9805 29.244 18.4368C29.244 17.8931 28.8033 17.4523 28.2596 17.4523ZM25.2751 18.4368C25.2751 16.7885 26.6113 15.4523 28.2596 15.4523C29.9078 15.4523 31.244 16.7885 31.244 18.4368C31.244 20.0851 29.9078 21.4213 28.2596 21.4213C26.6113 21.4213 25.2751 20.0851 25.2751 18.4368ZM27.2751 26.0459C27.2751 25.5022 27.7158 25.0614 28.2596 25.0614C28.8033 25.0614 29.244 25.5022 29.244 26.0459C29.244 26.5896 28.8033 27.0303 28.2596 27.0303C27.7158 27.0303 27.2751 26.5896 27.2751 26.0459ZM28.2596 23.0614C26.6113 23.0614 25.2751 24.3976 25.2751 26.0459C25.2751 27.6942 26.6113 29.0303 28.2596 29.0303C29.9078 29.0303 31.244 27.6942 31.244 26.0459C31.244 24.3976 29.9078 23.0614 28.2596 23.0614ZM16.5 12.7461C15.9563 12.7461 15.5156 13.1869 15.5156 13.7306C15.5156 14.2743 15.9563 14.7151 16.5 14.7151C17.0438 14.7151 17.4845 14.2743 17.4845 13.7306C17.4845 13.1869 17.0438 12.7461 16.5 12.7461ZM13.5156 13.7306C13.5156 12.0823 14.8518 10.7461 16.5 10.7461C18.1483 10.7461 19.4845 12.0823 19.4845 13.7306C19.4845 15.3789 18.1483 16.7151 16.5 16.7151C14.8518 16.7151 13.5156 15.3789 13.5156 13.7306ZM15.5156 28.8585C15.5156 28.3148 15.9563 27.874 16.5 27.874C17.0438 27.874 17.4845 28.3148 17.4845 28.8585C17.4845 29.4022 17.0438 29.8429 16.5 29.8429C15.9563 29.8429 15.5156 29.4022 15.5156 28.8585ZM16.5 25.874C14.8518 25.874 13.5156 27.2102 13.5156 28.8585C13.5156 30.5067 14.8518 31.8429 16.5 31.8429C18.1483 31.8429 19.4845 30.5067 19.4845 28.8585C19.4845 27.2102 18.1483 25.874 16.5 25.874Z" fill="#111827"/>
</svg>
