<svg width="33" height="32" viewBox="0 0 33 32" fill="none" xmlns="http://www.w3.org/2000/svg">
<path fill-rule="evenodd" clip-rule="evenodd" d="M16.4999 2.00073C8.76846 2.00073 2.50085 8.26834 2.50085 15.9998C2.50085 23.7313 8.76846 29.9989 16.4999 29.9989C24.2314 29.9989 30.499 23.7313 30.499 15.9998C30.499 8.26834 24.2314 2.00073 16.4999 2.00073ZM0.500854 15.9998C0.500854 7.16377 7.66389 0.000732422 16.4999 0.000732422C25.336 0.000732422 32.499 7.16377 32.499 15.9998C32.499 24.8359 25.336 31.9989 16.4999 31.9989C7.66389 31.9989 0.500854 24.8359 0.500854 15.9998ZM16.5 7.50027C17.0523 7.50027 17.5 7.94798 17.5 8.50027V17.2497C17.5 17.802 17.0523 18.2497 16.5 18.2497C15.9478 18.2497 15.5 17.802 15.5 17.2497V8.50027C15.5 7.94798 15.9478 7.50027 16.5 7.50027ZM18.3748 22.8744C18.3748 23.9099 17.5354 24.7493 16.4999 24.7493C15.4645 24.7493 14.625 23.9099 14.625 22.8744C14.625 21.8389 15.4645 20.9995 16.4999 20.9995C17.5354 20.9995 18.3748 21.8389 18.3748 22.8744Z" fill="#111827"/>
</svg>
