<svg width="33" height="32" viewBox="0 0 33 32" fill="none" xmlns="http://www.w3.org/2000/svg">
<path fill-rule="evenodd" clip-rule="evenodd" d="M17.366 2.51025C17.1873 2.20085 16.8572 2.01025 16.4999 2.01025C16.1427 2.01025 15.8125 2.20085 15.6339 2.51025L0.634829 28.4894C0.456196 28.7988 0.456196 29.18 0.634829 29.4894C0.813462 29.7988 1.14359 29.9894 1.50085 29.9894H31.499C31.8563 29.9894 32.1864 29.7988 32.365 29.4894C32.5437 29.18 32.5437 28.7988 32.365 28.4894L17.366 2.51025ZM16.4999 5.01025L29.767 27.9894H3.23291L16.4999 5.01025ZM16.5 12.3965C17.0523 12.3965 17.5 12.8442 17.5 13.3965V19.1667C17.5 19.7189 17.0523 20.1667 16.5 20.1667C15.9478 20.1667 15.5 19.7189 15.5 19.1667V13.3965C15.5 12.8442 15.9478 12.3965 16.5 12.3965ZM16.4999 26.0909C17.4559 26.0909 18.231 25.3159 18.231 24.3598C18.231 23.4038 17.4559 22.6288 16.4999 22.6288C15.5439 22.6288 14.7689 23.4038 14.7689 24.3598C14.7689 25.3159 15.5439 26.0909 16.4999 26.0909Z" fill="#111827"/>
</svg>
