<svg width="33" height="32" viewBox="0 0 33 32" fill="none" xmlns="http://www.w3.org/2000/svg">
<path fill-rule="evenodd" clip-rule="evenodd" d="M10.3083 0.000733068C10.043 0.000431885 9.78856 0.1055 9.60081 0.292823L0.808715 9.06498C0.620966 9.2523 0.51532 9.50654 0.515019 9.77175L0.500916 22.1916C0.500615 22.4568 0.605683 22.7113 0.793006 22.899L9.56517 31.6911C9.75249 31.8789 10.0067 31.9845 10.2719 31.9848L22.6917 31.9989C22.957 31.9992 23.2114 31.8941 23.3992 31.7068L32.1913 22.9347C32.379 22.7473 32.4847 22.4931 32.485 22.2279L32.4991 9.80807C32.4994 9.54285 32.3943 9.28838 32.207 9.10063L23.4348 0.308531C23.2475 0.120782 22.9933 0.015136 22.7281 0.0148348L10.3083 0.000733068ZM2.51455 10.1882L10.7202 2.0012L22.3116 2.01436L30.4986 10.22L30.4855 21.8114L22.2798 29.9984L10.6884 29.9853L2.50139 21.7796L2.51455 10.1882ZM16.5 7.50027C17.0523 7.50027 17.5 7.94798 17.5 8.50027V17.2497C17.5 17.802 17.0523 18.2497 16.5 18.2497C15.9477 18.2497 15.5 17.802 15.5 17.2497V8.50027C15.5 7.94798 15.9477 7.50027 16.5 7.50027ZM16.5 24.7493C17.5355 24.7493 18.3749 23.9099 18.3749 22.8744C18.3749 21.8389 17.5355 20.9995 16.5 20.9995C15.4645 20.9995 14.6251 21.8389 14.6251 22.8744C14.6251 23.9099 15.4645 24.7493 16.5 24.7493Z" fill="#111827"/>
</svg>
