<svg width="33" height="33" viewBox="0 0 33 33" fill="none" xmlns="http://www.w3.org/2000/svg">
<path fill-rule="evenodd" clip-rule="evenodd" d="M10.9009 1.32247C10.9872 0.846747 11.4014 0.500854 11.8849 0.500854H21.1151C21.5986 0.500854 22.0128 0.846747 22.0991 1.32247L23.1791 7.2802C26.0301 9.3491 27.884 12.708 27.884 16.4999C27.884 20.2918 26.0301 23.6507 23.1792 25.7196L22.0991 31.6774C22.0128 32.1531 21.5986 32.499 21.1151 32.499H11.8849C11.4014 32.499 10.9872 32.1531 10.9009 31.6774L9.82084 25.7196C6.96996 23.6507 5.11603 20.2918 5.11603 16.4999C5.11603 12.708 6.96996 9.34912 9.82085 7.28022L10.9009 1.32247ZM11.3069 24.3172C11.2939 24.308 11.2807 24.2992 11.2673 24.2907C8.7633 22.6055 7.11603 19.7451 7.11603 16.4999C7.11603 13.2553 8.7627 10.3953 11.2659 8.71007C11.2803 8.70099 11.2944 8.69154 11.3082 8.68174C12.7951 7.69242 14.5802 7.11592 16.5 7.11592C18.4196 7.11592 20.2046 7.69231 21.6914 8.68146C21.7055 8.69145 21.7199 8.70108 21.7345 8.71034C24.2375 10.3956 25.884 13.2555 25.884 16.4999C25.884 19.7449 24.2369 22.6052 21.7332 24.2904C21.7194 24.2991 21.7059 24.3081 21.6927 24.3175C20.2057 25.3072 18.4202 25.8839 16.5 25.8839C14.5796 25.8839 12.794 25.307 11.3069 24.3172ZM12.0848 26.996L12.7199 30.499H20.2801L20.9152 26.996C19.5575 27.5678 18.0657 27.8839 16.5 27.8839C14.9344 27.8839 13.4425 27.5678 12.0848 26.996ZM20.2801 2.50085L20.9151 6.00376C19.5575 5.43197 18.0656 5.11592 16.5 5.11592C14.9344 5.11592 13.4425 5.43198 12.0849 6.00377L12.7199 2.50085H20.2801ZM17.5 10.7311C17.5 10.1788 17.0523 9.7311 16.5 9.7311C15.9477 9.7311 15.5 10.1788 15.5 10.7311V16.5C15.5 17.0523 15.9477 17.5 16.5 17.5H22.2689C22.8211 17.5 23.2689 17.0523 23.2689 16.5C23.2689 15.9477 22.8211 15.5 22.2689 15.5H17.5V10.7311Z" fill="#111827"/>
</svg>
