<svg width="33" height="33" viewBox="0 0 33 33" fill="none" xmlns="http://www.w3.org/2000/svg">
<path fill-rule="evenodd" clip-rule="evenodd" d="M1.52131 6.96821L0.883328 6.17073C0.44289 6.52308 0.371481 7.16576 0.723831 7.6062C1.07569 8.04603 1.71708 8.11785 2.15747 7.76716L2.16526 7.7611C2.17364 7.75464 2.18833 7.74341 2.20917 7.72791C2.25088 7.6969 2.3171 7.64886 2.40652 7.58768C2.58553 7.4652 2.85647 7.29074 3.20878 7.09502C3.91508 6.70263 4.93786 6.23062 6.19453 5.91645C8.68299 5.29434 12.1233 5.27782 15.9335 7.81797C20.2935 10.7246 24.3425 10.7411 27.3009 10.0015C28.7676 9.63486 29.9576 9.0856 30.7832 8.62693C31.1968 8.39712 31.5216 8.1886 31.7469 8.03448C31.8596 7.95737 31.9476 7.89371 32.0096 7.84759C32.0406 7.82453 32.0652 7.80583 32.0831 7.79202L32.1049 7.77501L32.1121 7.76937L32.1147 7.76729L32.1158 7.76643C32.1162 7.76605 32.1167 7.7657 31.4787 6.96821L32.1167 7.7657C32.5571 7.41335 32.6285 6.77066 32.2762 6.33023C31.924 5.89004 31.2819 5.81846 30.8415 6.17012L30.8347 6.17533C30.8264 6.18179 30.8117 6.19302 30.7908 6.20852C30.7491 6.23953 30.6829 6.28757 30.5935 6.34875C30.4145 6.47123 30.1435 6.64569 29.7912 6.84141C29.0849 7.2338 28.0621 7.70581 26.8055 8.01998C24.317 8.64209 20.8767 8.65861 17.0665 6.11846C12.7065 3.21181 8.65748 3.1953 5.69914 3.93488C4.23241 4.30156 3.04244 4.85083 2.21683 5.3095C1.80318 5.5393 1.47838 5.74782 1.25313 5.90194C1.14042 5.97906 1.05239 6.04272 0.990373 6.08884C0.959356 6.1119 0.934819 6.13059 0.916929 6.14441L0.895091 6.16141L0.887943 6.16706L0.885318 6.16914L0.884243 6.17C0.883773 6.17037 0.883328 6.17073 1.52131 6.96821ZM2.15747 7.76716C2.15697 7.76755 2.15717 7.7674 2.15747 7.76716V7.76716Z" fill="#111827"/>
<path fill-rule="evenodd" clip-rule="evenodd" d="M1.52131 16.5001L0.883328 15.7026C0.44289 16.055 0.371481 16.6977 0.723831 17.1381C1.07569 17.5779 1.71708 17.6497 2.15747 17.2991L2.15847 17.2983L2.16526 17.293C2.17364 17.2865 2.18833 17.2753 2.20917 17.2598C2.25088 17.2288 2.3171 17.1808 2.40652 17.1196C2.58553 16.9971 2.85647 16.8226 3.20878 16.6269C3.91508 16.2345 4.93786 15.7625 6.19453 15.4483C8.68299 14.8262 12.1233 14.8097 15.9335 17.3499C20.2935 20.2565 24.3425 20.273 27.3009 19.5334C28.7676 19.1668 29.9576 18.6175 30.7832 18.1588C31.1968 17.929 31.5216 17.7205 31.7469 17.5664C31.8596 17.4893 31.9476 17.4256 32.0096 17.3795C32.0406 17.3564 32.0652 17.3377 32.0831 17.3239L32.1049 17.3069L32.1121 17.3013L32.1147 17.2992L32.1158 17.2983C32.1162 17.2979 32.1167 17.2976 31.4787 16.5001L32.1167 17.2976C32.5571 16.9452 32.6285 16.3026 32.2762 15.8621C31.924 15.4219 31.2819 15.3504 30.8415 15.702L30.8347 15.7072C30.8264 15.7137 30.8117 15.7249 30.7908 15.7404C30.7491 15.7714 30.6829 15.8195 30.5935 15.8806C30.4145 16.0031 30.1435 16.1776 29.7912 16.3733C29.0849 16.7657 28.0621 17.2377 26.8055 17.5519C24.317 18.174 20.8767 18.1905 17.0665 15.6504C12.7065 12.7437 8.65748 12.7272 5.69914 13.4668C4.23241 13.8335 3.04244 14.3827 2.21683 14.8414C1.80318 15.0712 1.47838 15.2797 1.25313 15.4338C1.14042 15.5109 1.05239 15.5746 0.990373 15.6207C0.959356 15.6438 0.934819 15.6625 0.916929 15.6763L0.895091 15.6933L0.887943 15.6989L0.885318 15.701L0.884243 15.7019C0.883773 15.7023 0.883328 15.7026 1.52131 16.5001Z" fill="#111827"/>
<path d="M0.883328 25.2345L1.52131 26.032L2.15718 26.8312C1.71679 27.1819 1.07569 27.1098 0.723831 26.67C0.371481 26.2295 0.44289 25.5869 0.883328 25.2345Z" fill="#111827"/>
<path d="M2.15854 26.8301C2.15819 26.8304 2.15753 26.8309 2.15718 26.8312L1.52131 26.032C0.883328 25.2345 0.883773 25.2342 0.884243 25.2338L0.885318 25.2329L0.887943 25.2308L0.895091 25.2252L0.916929 25.2082C0.934819 25.1944 0.959356 25.1757 0.990373 25.1526C1.05239 25.1065 1.14042 25.0428 1.25313 24.9657C1.47838 24.8116 1.80318 24.6031 2.21683 24.3733C3.04244 23.9146 4.23241 23.3653 5.69914 22.9987C8.65748 22.2591 12.7065 22.2756 17.0665 25.1822C20.8767 27.7224 24.317 27.7059 26.8055 27.0838C28.0621 26.7696 29.0849 26.2976 29.7912 25.9052C30.1435 25.7095 30.4145 25.535 30.5935 25.4125C30.6829 25.3513 30.7491 25.3033 30.7908 25.2723C30.8117 25.2568 30.8264 25.2456 30.8347 25.2391L30.8415 25.2339C31.2819 24.8822 31.924 24.9538 32.2762 25.394C32.6285 25.8344 32.5571 26.4771 32.1167 26.8295L31.4787 26.032C32.1167 26.8295 32.1162 26.8298 32.1158 26.8302L32.1147 26.8311L32.1121 26.8332L32.1049 26.8388L32.0831 26.8558C32.0652 26.8696 32.0406 26.8883 32.0096 26.9114C31.9476 26.9575 31.8596 27.0212 31.7469 27.0983C31.5216 27.2524 31.1968 27.4609 30.7832 27.6907C29.9576 28.1494 28.7676 28.6986 27.3009 29.0653C24.3425 29.8049 20.2935 29.7884 15.9335 26.8818C12.1233 24.3416 8.68299 24.3581 6.19453 24.9802C4.93786 25.2944 3.91508 25.7664 3.20878 26.1588C2.85647 26.3545 2.58553 26.529 2.40652 26.6515C2.3171 26.7126 2.25088 26.7607 2.20917 26.7917C2.18833 26.8072 2.17364 26.8184 2.16526 26.8249L2.15854 26.8301Z" fill="#111827"/>
</svg>
