<svg width="325" height="31" viewBox="0 0 325 31" fill="none" xmlns="http://www.w3.org/2000/svg">
<path d="M8.48 29.5L0.16 0.699999H3.22L9.96 24.48L16.66 0.72L19.74 0.699999L26.48 24.48L33.18 0.699999H36.26L27.96 29.5H25L18.2 5.88L11.44 29.5H8.48ZM46.4791 30.1C44.3724 30.1 42.5457 29.6333 40.9991 28.7C39.4657 27.7667 38.2724 26.4533 37.4191 24.76C36.5657 23.0667 36.1391 21.08 36.1391 18.8C36.1391 16.44 36.5591 14.4 37.3991 12.68C38.2391 10.96 39.4191 9.63333 40.9391 8.7C42.4724 7.76667 44.2791 7.3 46.3591 7.3C48.4924 7.3 50.3124 7.79333 51.8191 8.78C53.3257 9.75333 54.4657 11.1533 55.2391 12.98C56.0124 14.8067 56.3657 16.9867 56.2991 19.52H53.2991V18.48C53.2457 15.68 52.6391 13.5667 51.4791 12.14C50.3324 10.7133 48.6524 10 46.4391 10C44.1191 10 42.3391 10.7533 41.0991 12.26C39.8724 13.7667 39.2591 15.9133 39.2591 18.7C39.2591 21.42 39.8724 23.5333 41.0991 25.04C42.3391 26.5333 44.0924 27.28 46.3591 27.28C47.9057 27.28 49.2524 26.9267 50.3991 26.22C51.5591 25.5 52.4724 24.4667 53.1391 23.12L55.8791 24.18C55.0257 26.06 53.7657 27.52 52.0991 28.56C50.4457 29.5867 48.5724 30.1 46.4791 30.1ZM38.2191 19.52V17.06H54.7191V19.52H38.2191ZM66.5269 30.1C64.9002 30.1 63.5335 29.8067 62.4269 29.22C61.3335 28.6333 60.5135 27.8533 59.9669 26.88C59.4202 25.9067 59.1469 24.8467 59.1469 23.7C59.1469 22.5267 59.3802 21.5267 59.8469 20.7C60.3269 19.86 60.9735 19.1733 61.7869 18.64C62.6135 18.1067 63.5669 17.7 64.6469 17.42C65.7402 17.1533 66.9469 16.92 68.2669 16.72C69.6002 16.5067 70.9002 16.3267 72.1669 16.18C73.4469 16.02 74.5669 15.8667 75.5269 15.72L74.4869 16.36C74.5269 14.2267 74.1135 12.6467 73.2469 11.62C72.3802 10.5933 70.8735 10.08 68.7269 10.08C67.2469 10.08 65.9935 10.4133 64.9669 11.08C63.9535 11.7467 63.2402 12.8 62.8269 14.24L59.9669 13.4C60.4602 11.4667 61.4535 9.96667 62.9469 8.9C64.4402 7.83333 66.3802 7.3 68.7669 7.3C70.7402 7.3 72.4135 7.67333 73.7869 8.42C75.1735 9.15333 76.1535 10.22 76.7269 11.62C76.9935 12.2467 77.1669 12.9467 77.2469 13.72C77.3269 14.4933 77.3669 15.28 77.3669 16.08V29.5H74.7469V24.08L75.5069 24.4C74.7735 26.2533 73.6335 27.6667 72.0869 28.64C70.5402 29.6133 68.6869 30.1 66.5269 30.1ZM66.8669 27.56C68.2402 27.56 69.4402 27.3133 70.4669 26.82C71.4935 26.3267 72.3202 25.6533 72.9469 24.8C73.5735 23.9333 73.9802 22.96 74.1669 21.88C74.3269 21.1867 74.4135 20.4267 74.4269 19.6C74.4402 18.76 74.4469 18.1333 74.4469 17.72L75.5669 18.3C74.5669 18.4333 73.4802 18.5667 72.3069 18.7C71.1469 18.8333 70.0002 18.9867 68.8669 19.16C67.7469 19.3333 66.7335 19.54 65.8269 19.78C65.2135 19.9533 64.6202 20.2 64.0469 20.52C63.4735 20.8267 63.0002 21.24 62.6269 21.76C62.2669 22.28 62.0869 22.9267 62.0869 23.7C62.0869 24.3267 62.2402 24.9333 62.5469 25.52C62.8669 26.1067 63.3735 26.5933 64.0669 26.98C64.7735 27.3667 65.7069 27.56 66.8669 27.56ZM94.3334 29.5C93.1201 29.7533 91.9201 29.8533 90.7334 29.8C89.5601 29.7467 88.5068 29.4933 87.5734 29.04C86.6534 28.5867 85.9534 27.88 85.4734 26.92C85.0868 26.12 84.8734 25.3133 84.8334 24.5C84.8068 23.6733 84.7934 22.7333 84.7934 21.68V1.9H87.7134V21.56C87.7134 22.4667 87.7201 23.2267 87.7334 23.84C87.7601 24.44 87.9001 24.9733 88.1534 25.44C88.6334 26.3333 89.3934 26.8667 90.4334 27.04C91.4868 27.2133 92.7868 27.1733 94.3334 26.92V29.5ZM80.1734 10.42V7.9H94.3334V10.42H80.1734ZM114.189 29.5V18.48C114.189 17.28 114.076 16.18 113.849 15.18C113.622 14.1667 113.256 13.2867 112.749 12.54C112.256 11.78 111.609 11.1933 110.809 10.78C110.022 10.3667 109.062 10.16 107.929 10.16C106.889 10.16 105.969 10.34 105.169 10.7C104.382 11.06 103.716 11.58 103.169 12.26C102.636 12.9267 102.229 13.74 101.949 14.7C101.669 15.66 101.529 16.7533 101.529 17.98L99.4491 17.52C99.4491 15.3067 99.8357 13.4467 100.609 11.94C101.382 10.4333 102.449 9.29333 103.809 8.52C105.169 7.74667 106.729 7.36 108.489 7.36C109.782 7.36 110.909 7.56 111.869 7.96C112.842 8.36 113.662 8.9 114.329 9.58C115.009 10.26 115.556 11.04 115.969 11.92C116.382 12.7867 116.682 13.7133 116.869 14.7C117.056 15.6733 117.149 16.6467 117.149 17.62V29.5H114.189ZM98.5691 29.5V0.699999H101.229V16.96H101.529V29.5H98.5691ZM131.479 30.1C129.372 30.1 127.546 29.6333 125.999 28.7C124.466 27.7667 123.272 26.4533 122.419 24.76C121.566 23.0667 121.139 21.08 121.139 18.8C121.139 16.44 121.559 14.4 122.399 12.68C123.239 10.96 124.419 9.63333 125.939 8.7C127.472 7.76667 129.279 7.3 131.359 7.3C133.492 7.3 135.312 7.79333 136.819 8.78C138.326 9.75333 139.466 11.1533 140.239 12.98C141.012 14.8067 141.366 16.9867 141.299 19.52H138.299V18.48C138.246 15.68 137.639 13.5667 136.479 12.14C135.332 10.7133 133.652 10 131.439 10C129.119 10 127.339 10.7533 126.099 12.26C124.872 13.7667 124.259 15.9133 124.259 18.7C124.259 21.42 124.872 23.5333 126.099 25.04C127.339 26.5333 129.092 27.28 131.359 27.28C132.906 27.28 134.252 26.9267 135.399 26.22C136.559 25.5 137.472 24.4667 138.139 23.12L140.879 24.18C140.026 26.06 138.766 27.52 137.099 28.56C135.446 29.5867 133.572 30.1 131.479 30.1ZM123.219 19.52V17.06H139.719V19.52H123.219ZM145.738 29.5V7.9H148.378V13.1L147.858 12.42C148.098 11.78 148.411 11.1933 148.798 10.66C149.184 10.1133 149.604 9.66667 150.058 9.32C150.618 8.82667 151.271 8.45333 152.018 8.2C152.764 7.93333 153.518 7.78 154.278 7.74C155.038 7.68667 155.731 7.74 156.358 7.9V10.66C155.571 10.46 154.711 10.4133 153.778 10.52C152.844 10.6267 151.984 11 151.198 11.64C150.478 12.2 149.938 12.8733 149.578 13.66C149.218 14.4333 148.978 15.26 148.858 16.14C148.738 17.0067 148.678 17.8667 148.678 18.72V29.5H145.738ZM177.419 30.1C175.819 30.1 174.333 29.8733 172.959 29.42C171.599 28.9533 170.459 28.2267 169.539 27.24C168.819 26.4667 168.286 25.6067 167.939 24.66C167.593 23.7 167.399 22.6867 167.359 21.62C167.346 20.6067 167.493 19.6 167.799 18.6C168.106 17.6 168.586 16.7133 169.239 15.94C169.626 15.46 170.059 15.06 170.539 14.74C171.033 14.42 171.539 14.1467 172.059 13.92C171.059 12.88 170.293 11.92 169.759 11.04C169.239 10.1467 168.979 9.05333 168.979 7.76C168.979 6.28 169.353 4.92667 170.099 3.7C170.859 2.47333 171.906 1.56 173.239 0.959999C173.919 0.653332 174.613 0.439999 175.319 0.319998C176.039 0.186665 176.753 0.119998 177.459 0.119998C178.539 0.119998 179.599 0.273331 180.639 0.579998C181.679 0.873332 182.566 1.34 183.299 1.98C183.793 2.36666 184.226 2.82666 184.599 3.36C184.973 3.88 185.266 4.42667 185.479 5L182.639 5.84C182.359 5.12 181.893 4.51333 181.239 4.02C180.733 3.62 180.146 3.34 179.479 3.18C178.826 3.02 178.166 2.94 177.499 2.94C176.366 2.94 175.339 3.16 174.419 3.6C173.619 4 173.019 4.55333 172.619 5.26C172.219 5.96667 172.019 6.79333 172.019 7.74C172.019 8.55333 172.153 9.22667 172.419 9.76C172.686 10.28 173.073 10.8467 173.579 11.46C173.873 11.78 174.199 12.1067 174.559 12.44C174.919 12.76 175.286 13.0933 175.659 13.44L184.779 21.9C184.833 21.5267 184.866 21.1667 184.879 20.82C184.893 20.46 184.899 20.1067 184.899 19.76L184.879 15.54H187.659V19.96C187.659 21.0133 187.619 21.8733 187.539 22.54C187.459 23.2067 187.353 23.76 187.219 24.2L190.939 27.62L188.999 29.68L185.819 26.68C185.379 27.2533 184.819 27.7667 184.139 28.22C183.473 28.6733 182.806 29.0267 182.139 29.28C181.419 29.6 180.659 29.8133 179.859 29.92C179.059 30.04 178.246 30.1 177.419 30.1ZM177.459 27.26C178.219 27.26 178.906 27.2133 179.519 27.12C180.133 27.0267 180.719 26.8333 181.279 26.54C181.986 26.1667 182.513 25.82 182.859 25.5C183.206 25.1667 183.486 24.8733 183.699 24.62L174.339 16.06C173.779 16.2333 173.253 16.4733 172.759 16.78C172.279 17.0733 171.866 17.4267 171.519 17.84C171.133 18.32 170.846 18.8733 170.659 19.5C170.473 20.1267 170.379 20.7867 170.379 21.48C170.406 22.2133 170.526 22.8933 170.739 23.52C170.966 24.1333 171.299 24.68 171.739 25.16C172.366 25.8933 173.206 26.4267 174.259 26.76C175.313 27.0933 176.379 27.26 177.459 27.26ZM202.222 29.5V0.699999H205.182L221.042 24.3V0.699999H224.002V29.5H221.042L205.182 5.88V29.5H202.222ZM235.785 30.1C234.158 30.1 232.791 29.8067 231.685 29.22C230.591 28.6333 229.771 27.8533 229.225 26.88C228.678 25.9067 228.405 24.8467 228.405 23.7C228.405 22.5267 228.638 21.5267 229.105 20.7C229.585 19.86 230.231 19.1733 231.045 18.64C231.871 18.1067 232.825 17.7 233.905 17.42C234.998 17.1533 236.205 16.92 237.525 16.72C238.858 16.5067 240.158 16.3267 241.425 16.18C242.705 16.02 243.825 15.8667 244.785 15.72L243.745 16.36C243.785 14.2267 243.371 12.6467 242.505 11.62C241.638 10.5933 240.131 10.08 237.985 10.08C236.505 10.08 235.251 10.4133 234.225 11.08C233.211 11.7467 232.498 12.8 232.085 14.24L229.225 13.4C229.718 11.4667 230.711 9.96667 232.205 8.9C233.698 7.83333 235.638 7.3 238.025 7.3C239.998 7.3 241.671 7.67333 243.045 8.42C244.431 9.15333 245.411 10.22 245.985 11.62C246.251 12.2467 246.425 12.9467 246.505 13.72C246.585 14.4933 246.625 15.28 246.625 16.08V29.5H244.005V24.08L244.765 24.4C244.031 26.2533 242.891 27.6667 241.345 28.64C239.798 29.6133 237.945 30.1 235.785 30.1ZM236.125 27.56C237.498 27.56 238.698 27.3133 239.725 26.82C240.751 26.3267 241.578 25.6533 242.205 24.8C242.831 23.9333 243.238 22.96 243.425 21.88C243.585 21.1867 243.671 20.4267 243.685 19.6C243.698 18.76 243.705 18.1333 243.705 17.72L244.825 18.3C243.825 18.4333 242.738 18.5667 241.565 18.7C240.405 18.8333 239.258 18.9867 238.125 19.16C237.005 19.3333 235.991 19.54 235.085 19.78C234.471 19.9533 233.878 20.2 233.305 20.52C232.731 20.8267 232.258 21.24 231.885 21.76C231.525 22.28 231.345 22.9267 231.345 23.7C231.345 24.3267 231.498 24.9333 231.805 25.52C232.125 26.1067 232.631 26.5933 233.325 26.98C234.031 27.3667 234.965 27.56 236.125 27.56ZM263.591 29.5C262.378 29.7533 261.178 29.8533 259.991 29.8C258.818 29.7467 257.765 29.4933 256.831 29.04C255.911 28.5867 255.211 27.88 254.731 26.92C254.345 26.12 254.131 25.3133 254.091 24.5C254.065 23.6733 254.051 22.7333 254.051 21.68V1.9H256.971V21.56C256.971 22.4667 256.978 23.2267 256.991 23.84C257.018 24.44 257.158 24.9733 257.411 25.44C257.891 26.3333 258.651 26.8667 259.691 27.04C260.745 27.2133 262.045 27.1733 263.591 26.92V29.5ZM249.431 10.42V7.9H263.591V10.42H249.431ZM276.107 30.04C274.814 30.04 273.68 29.84 272.707 29.44C271.747 29.04 270.927 28.5 270.247 27.82C269.58 27.14 269.04 26.3667 268.627 25.5C268.214 24.62 267.914 23.6933 267.727 22.72C267.54 21.7333 267.447 20.7533 267.447 19.78V7.9H270.407V18.92C270.407 20.1067 270.52 21.2067 270.747 22.22C270.974 23.2333 271.334 24.12 271.827 24.88C272.334 25.6267 272.98 26.2067 273.767 26.62C274.567 27.0333 275.534 27.24 276.667 27.24C277.707 27.24 278.62 27.06 279.407 26.7C280.207 26.34 280.874 25.8267 281.407 25.16C281.954 24.48 282.367 23.66 282.647 22.7C282.927 21.7267 283.067 20.6333 283.067 19.42L285.147 19.88C285.147 22.0933 284.76 23.9533 283.987 25.46C283.214 26.9667 282.147 28.1067 280.787 28.88C279.427 29.6533 277.867 30.04 276.107 30.04ZM283.367 29.5V24.18H283.067V7.9H286.007V29.5H283.367ZM291.597 29.5V7.9H294.237V13.1L293.717 12.42C293.957 11.78 294.27 11.1933 294.657 10.66C295.044 10.1133 295.464 9.66667 295.917 9.32C296.477 8.82667 297.13 8.45333 297.877 8.2C298.624 7.93333 299.377 7.78 300.137 7.74C300.897 7.68667 301.59 7.74 302.217 7.9V10.66C301.43 10.46 300.57 10.4133 299.637 10.52C298.704 10.6267 297.844 11 297.057 11.64C296.337 12.2 295.797 12.8733 295.437 13.66C295.077 14.4333 294.837 15.26 294.717 16.14C294.597 17.0067 294.537 17.8667 294.537 18.72V29.5H291.597ZM314.76 30.1C312.654 30.1 310.827 29.6333 309.28 28.7C307.747 27.7667 306.554 26.4533 305.7 24.76C304.847 23.0667 304.42 21.08 304.42 18.8C304.42 16.44 304.84 14.4 305.68 12.68C306.52 10.96 307.7 9.63333 309.22 8.7C310.754 7.76667 312.56 7.3 314.64 7.3C316.774 7.3 318.594 7.79333 320.1 8.78C321.607 9.75333 322.747 11.1533 323.52 12.98C324.294 14.8067 324.647 16.9867 324.58 19.52H321.58V18.48C321.527 15.68 320.92 13.5667 319.76 12.14C318.614 10.7133 316.934 10 314.72 10C312.4 10 310.62 10.7533 309.38 12.26C308.154 13.7667 307.54 15.9133 307.54 18.7C307.54 21.42 308.154 23.5333 309.38 25.04C310.62 26.5333 312.374 27.28 314.64 27.28C316.187 27.28 317.534 26.9267 318.68 26.22C319.84 25.5 320.754 24.4667 321.42 23.12L324.16 24.18C323.307 26.06 322.047 27.52 320.38 28.56C318.727 29.5867 316.854 30.1 314.76 30.1ZM306.5 19.52V17.06H323V19.52H306.5Z" fill="#111827"/>
</svg>
