<svg width="33" height="33" viewBox="0 0 33 33" fill="none" xmlns="http://www.w3.org/2000/svg">
<path fill-rule="evenodd" clip-rule="evenodd" d="M6.25062 14C6.25062 8.33951 10.8394 3.75073 16.4999 3.75073C22.1605 3.75073 26.7492 8.33951 26.7492 14C26.7492 19.6585 22.1639 24.2459 16.5063 24.2494L16.5 24.2493L16.4938 24.2494C10.8361 24.246 6.25062 19.6585 6.25062 14ZM28.7492 14C28.7492 20.4284 23.7974 25.7003 17.5 26.2091V29.249H31.499C32.0513 29.249 32.499 29.6967 32.499 30.249C32.499 30.8013 32.0513 31.249 31.499 31.249H16.5028C16.5019 31.249 16.501 31.249 16.5 31.249C16.4991 31.249 16.4982 31.249 16.4973 31.249H1.50085C0.94857 31.249 0.500854 30.8013 0.500854 30.249C0.500854 29.6967 0.94857 29.249 1.50085 29.249H15.5V26.2091C9.20261 25.7004 4.25062 20.4285 4.25062 14C4.25062 7.23494 9.73483 1.75073 16.4999 1.75073C23.265 1.75073 28.7492 7.23494 28.7492 14ZM12.5002 14C12.5002 11.7911 14.291 10.0003 16.4999 10.0003C18.7089 10.0003 20.4996 11.7911 20.4996 14C20.4996 16.209 18.7089 17.9997 16.4999 17.9997C14.291 17.9997 12.5002 16.209 12.5002 14ZM16.4999 8.00035C13.1864 8.00035 10.5002 10.6865 10.5002 14C10.5002 17.3136 13.1864 19.9997 16.4999 19.9997C19.8135 19.9997 22.4996 17.3136 22.4996 14C22.4996 10.6865 19.8135 8.00035 16.4999 8.00035Z" fill="#111827"/>
</svg>
