<svg width="33" height="32" viewBox="0 0 33 32" fill="none" xmlns="http://www.w3.org/2000/svg">
<path fill-rule="evenodd" clip-rule="evenodd" d="M18.6425 3.27715C17.6605 3.02486 16.627 3.0562 15.6621 3.36754C14.6971 3.67887 13.8403 4.25744 13.1909 5.03611C12.5415 5.81478 12.1262 6.76163 11.9932 7.76679C11.8602 8.77195 12.0149 9.79423 12.4395 10.715C12.864 11.6358 13.541 12.4173 14.3917 12.9688C14.8551 13.2693 14.9873 13.8885 14.6868 14.3519C14.5877 14.5048 14.4539 14.6216 14.3024 14.6988L10.5733 20.8513C12.0453 22.3415 12.0397 24.7427 10.5565 26.2259C9.06771 27.7147 6.65387 27.7147 5.16505 26.2259C3.67623 24.7371 3.67623 22.3233 5.16505 20.8344C6.16178 19.8377 7.57311 19.5083 8.84391 19.8461L12.4089 13.9643C11.6573 13.2941 11.0482 12.4741 10.6232 11.5524C10.0403 10.2882 9.82786 8.88457 10.0105 7.50445C10.1931 6.12434 10.7633 4.82429 11.6549 3.75515C12.5466 2.68602 13.7231 1.89163 15.048 1.46416C16.3729 1.03668 17.7918 0.993654 19.1402 1.34006C20.4885 1.68646 21.711 2.4081 22.6658 3.42125C23.6206 4.43439 24.2685 5.6975 24.5344 7.06401C24.8003 8.43053 24.6733 9.84443 24.168 11.1417C23.9676 11.6563 23.3879 11.911 22.8733 11.7106C22.3587 11.5101 22.104 10.9305 22.3044 10.4158C22.6724 9.47104 22.7649 8.44127 22.5712 7.44601C22.3776 6.45075 21.9057 5.53081 21.2103 4.79292C20.5149 4.05503 19.6245 3.52945 18.6425 3.27715ZM8.70168 21.9242C8.01806 21.566 7.15378 21.6741 6.57926 22.2487C5.8715 22.9564 5.8715 24.1039 6.57926 24.8117C7.28703 25.5195 8.43455 25.5195 9.14232 24.8117C9.85008 24.1039 9.85008 22.9564 9.14232 22.2487C9.04307 22.1494 8.93518 22.0641 8.82107 21.9927C8.7934 21.9792 8.76609 21.9644 8.73925 21.9481C8.72649 21.9404 8.71397 21.9324 8.70168 21.9242ZM18.2082 12.1754C17.9196 12.2452 17.6182 12.2822 17.3081 12.2822C15.2026 12.2822 13.4958 10.5754 13.4958 8.46989C13.4958 6.36439 15.2026 4.65754 17.3081 4.65754C19.4136 4.65754 21.1205 6.36439 21.1205 8.46989C21.1205 9.54501 20.6754 10.5162 19.9595 11.2092L22.8153 16.5442C23.7898 16.2203 24.8249 16.1027 25.8541 16.2034C27.2078 16.3358 28.4982 16.8406 29.5824 17.6619C30.6665 18.4831 31.502 19.5886 31.996 20.8558C32.4901 22.123 32.6235 23.5022 32.3813 24.8406C32.1392 26.1789 31.531 27.424 30.6243 28.4378C29.7175 29.4515 28.5477 30.1942 27.2445 30.5835C25.9413 30.9728 24.5558 30.9934 23.2416 30.6432C21.9274 30.2929 20.7359 29.5854 19.7993 28.5992C19.419 28.1987 19.4354 27.5658 19.8358 27.1854C20.2363 26.8051 20.8693 26.8215 21.2496 27.222C21.9317 27.9403 22.7995 28.4555 23.7566 28.7106C24.7138 28.9657 25.7229 28.9507 26.672 28.6672C27.6212 28.3836 28.4732 27.8427 29.1336 27.1044C29.794 26.3661 30.2369 25.4593 30.4133 24.4845C30.5896 23.5098 30.4925 22.5052 30.1327 21.5823C29.7728 20.6594 29.1644 19.8543 28.3748 19.2561C27.5851 18.658 26.6453 18.2903 25.6594 18.1939C24.6736 18.0975 23.6802 18.276 22.7897 18.7098C22.2932 18.9516 21.6946 18.7451 21.4528 18.2486C21.4418 18.226 21.4317 18.2032 21.4225 18.1802L18.2082 12.1754ZM22.1911 26.2259C21.7034 25.7383 21.3755 25.1513 21.2073 24.5302H15.146C14.9909 25.5879 14.6068 26.6027 14.0165 27.5021C13.2701 28.6391 12.2234 29.5471 10.9924 30.1254C9.76141 30.7037 8.39426 30.9297 7.04263 30.7783C5.69101 30.6269 4.40777 30.1039 3.33526 29.2675C2.26275 28.4312 1.44292 27.314 0.966714 26.04C0.490509 24.766 0.376549 23.385 0.637479 22.0502C0.898408 20.7154 1.52403 19.479 2.44492 18.4781C3.36582 17.4772 4.54599 16.751 5.85451 16.3801C6.38585 16.2294 6.9387 16.5381 7.08933 17.0694C7.23996 17.6008 6.93133 18.1536 6.39998 18.3043C5.44697 18.5744 4.58743 19.1033 3.91672 19.8323C3.24602 20.5612 2.79037 21.4617 2.60033 22.4339C2.41029 23.4061 2.49329 24.4119 2.84012 25.3398C3.18694 26.2676 3.78404 27.0813 4.56517 27.6904C5.34629 28.2996 6.28091 28.6804 7.26532 28.7907C8.24972 28.901 9.24544 28.7364 10.142 28.3152C11.0386 27.894 11.8009 27.2327 12.3445 26.4046C12.888 25.5765 13.1916 24.614 13.2214 23.6239C13.225 23.5027 13.2501 23.3873 13.2927 23.2811C13.4034 22.8493 13.7952 22.5302 14.2615 22.5302H21.2073C21.3755 21.909 21.7034 21.3221 22.1911 20.8344C23.6799 19.3456 26.0938 19.3456 27.5826 20.8344C29.0714 22.3233 29.0714 24.7371 27.5826 26.2259C26.0938 27.7147 23.6799 27.7147 22.1911 26.2259ZM15.4958 8.46989C15.4958 7.46896 16.3072 6.65754 17.3081 6.65754C18.309 6.65754 19.1205 7.46896 19.1205 8.46989C19.1205 9.47082 18.309 10.2822 17.3081 10.2822C16.3072 10.2822 15.4958 9.47082 15.4958 8.46989ZM26.1684 22.2487C25.4606 21.5409 24.3131 21.5409 23.6053 22.2487C22.8975 22.9564 22.8975 24.1039 23.6053 24.8117C24.3131 25.5195 25.4606 25.5195 26.1684 24.8117C26.8761 24.1039 26.8761 22.9564 26.1684 22.2487Z" fill="#111827"/>
</svg>
