<svg width="33" height="32" viewBox="0 0 33 32" fill="none" xmlns="http://www.w3.org/2000/svg">
<path fill-rule="evenodd" clip-rule="evenodd" d="M18.6425 3.27703C17.6605 3.02474 16.627 3.05608 15.6621 3.36741C14.6971 3.67875 13.8403 4.25732 13.1909 5.03599C12.5415 5.81466 12.1262 6.76151 11.9932 7.76667C11.8602 8.77183 12.0149 9.7941 12.4395 10.7149C12.864 11.6356 13.541 12.4171 14.3917 12.9687C14.8551 13.2692 14.9873 13.8884 14.6868 14.3518C14.5877 14.5047 14.4539 14.6215 14.3024 14.6986L10.5733 20.8512C12.0453 22.3413 12.0397 24.7426 10.5565 26.2258C9.06771 27.7146 6.65387 27.7146 5.16505 26.2258C3.67623 24.737 3.67623 22.3231 5.16505 20.8343C6.16178 19.8376 7.57311 19.5082 8.84391 19.846L12.4089 13.9642C11.6573 13.294 11.0482 12.474 10.6232 11.5523C10.0403 10.2881 9.82786 8.88445 10.0105 7.50433C10.1931 6.12422 10.7633 4.82417 11.6549 3.75503C12.5466 2.6859 13.7231 1.89151 15.048 1.46403C16.3729 1.03656 17.7918 0.993532 19.1402 1.33994C20.4885 1.68634 21.711 2.40798 22.6658 3.42112C23.6206 4.43426 24.2685 5.69737 24.5344 7.06389C24.8003 8.4304 24.6733 9.84431 24.168 11.1415C23.9676 11.6562 23.3879 11.9109 22.8733 11.7104C22.3587 11.51 22.104 10.9303 22.3044 10.4157C22.6724 9.47091 22.7649 8.44114 22.5712 7.44589C22.3776 6.45063 21.9057 5.53068 21.2103 4.7928C20.5149 4.05491 19.6245 3.52933 18.6425 3.27703ZM8.70168 21.9241C8.01806 21.5659 7.15378 21.674 6.57926 22.2485C5.8715 22.9563 5.8715 24.1038 6.57926 24.8116C7.28703 25.5194 8.43455 25.5194 9.14232 24.8116C9.85008 24.1038 9.85008 22.9563 9.14232 22.2485C9.04307 22.1493 8.93518 22.064 8.82107 21.9926C8.7934 21.9791 8.76609 21.9642 8.73925 21.948C8.72649 21.9402 8.71397 21.9323 8.70168 21.9241ZM18.2082 12.1753C17.9196 12.2451 17.6182 12.2821 17.3081 12.2821C15.2026 12.2821 13.4958 10.5753 13.4958 8.46977C13.4958 6.36426 15.2026 4.65742 17.3081 4.65742C19.4136 4.65742 21.1205 6.36426 21.1205 8.46977C21.1205 9.54489 20.6754 10.5161 19.9595 11.2091L22.8153 16.5441C23.7898 16.2202 24.8249 16.1026 25.8541 16.2033C27.2078 16.3357 28.4982 16.8405 29.5824 17.6618C30.6665 18.483 31.502 19.5885 31.996 20.8557C32.4901 22.1229 32.6235 23.5021 32.3813 24.8405C32.1392 26.1788 31.531 27.4239 30.6243 28.4376C29.7175 29.4514 28.5477 30.1941 27.2445 30.5834C25.9413 30.9727 24.5558 30.9933 23.2416 30.6431C21.9274 30.2928 20.7359 29.5853 19.7993 28.5991C19.419 28.1986 19.4354 27.5656 19.8358 27.1853C20.2363 26.805 20.8693 26.8214 21.2496 27.2218C21.9317 27.9401 22.7995 28.4554 23.7566 28.7105C24.7138 28.9656 25.7229 28.9506 26.672 28.667C27.6212 28.3835 28.4732 27.8426 29.1336 27.1043C29.794 26.366 30.2369 25.4591 30.4133 24.4844C30.5896 23.5096 30.4925 22.5051 30.1327 21.5822C29.7728 20.6593 29.1644 19.8541 28.3748 19.256C27.5851 18.6579 26.6453 18.2902 25.6594 18.1938C24.6736 18.0973 23.6802 18.2759 22.7897 18.7096C22.2932 18.9515 21.6946 18.745 21.4528 18.2485C21.4418 18.2259 21.4317 18.203 21.4225 18.18L18.2082 12.1753ZM22.1911 26.2258C21.7034 25.7381 21.3755 25.1512 21.2073 24.5301H15.146C14.9909 25.5878 14.6068 26.6026 14.0165 27.5019C13.2701 28.639 12.2234 29.547 10.9924 30.1253C9.76141 30.7036 8.39426 30.9296 7.04263 30.7782C5.69101 30.6267 4.40777 30.1038 3.33526 29.2674C2.26275 28.431 1.44292 27.3139 0.966714 26.0399C0.490509 24.7659 0.376549 23.3849 0.637479 22.0501C0.898408 20.7153 1.52403 19.4788 2.44492 18.478C3.36582 17.4771 4.54599 16.7509 5.85451 16.38C6.38585 16.2293 6.9387 16.538 7.08933 17.0693C7.23996 17.6006 6.93133 18.1535 6.39998 18.3041C5.44697 18.5743 4.58743 19.1032 3.91672 19.8322C3.24602 20.5611 2.79037 21.4616 2.60033 22.4338C2.41029 23.406 2.49329 24.4118 2.84012 25.3396C3.18694 26.2675 3.78404 27.0811 4.56517 27.6903C5.34629 28.2995 6.28091 28.6803 7.26532 28.7906C8.24972 28.9009 9.24544 28.7363 10.142 28.3151C11.0386 27.8939 11.8009 27.2326 12.3445 26.4045C12.888 25.5764 13.1916 24.6139 13.2214 23.6237C13.225 23.5026 13.2501 23.3872 13.2927 23.281C13.4034 22.8492 13.7952 22.5301 14.2615 22.5301H21.2073C21.3755 21.9089 21.7034 21.322 22.1911 20.8343C23.6799 19.3455 26.0938 19.3455 27.5826 20.8343C29.0714 22.3231 29.0714 24.737 27.5826 26.2258C26.0938 27.7146 23.6799 27.7146 22.1911 26.2258ZM15.4958 8.46977C15.4958 7.46883 16.3072 6.65742 17.3081 6.65742C18.309 6.65742 19.1205 7.46883 19.1205 8.46977C19.1205 9.4707 18.309 10.2821 17.3081 10.2821C16.3072 10.2821 15.4958 9.4707 15.4958 8.46977ZM26.1684 22.2485C25.4606 21.5408 24.3131 21.5408 23.6053 22.2485C22.8975 22.9563 22.8975 24.1038 23.6053 24.8116C24.3131 25.5194 25.4606 25.5194 26.1684 24.8116C26.8761 24.1038 26.8761 22.9563 26.1684 22.2485Z" fill="#111827"/>
</svg>
