<svg width="32" height="32" viewBox="0 0 32 32" fill="none" xmlns="http://www.w3.org/2000/svg">
<path d="M10.2058 20.0747L13.7723 14.1904" stroke="#1C1B1F" stroke-width="2" stroke-linecap="round"/>
<path d="M17.794 12.0433L20.6772 17.4296" stroke="#1C1B1F" stroke-width="2" stroke-linecap="round"/>
<path d="M14.2089 22.0245H20.4075" stroke="#1C1B1F" stroke-width="2" stroke-linecap="round"/>
<path d="M13.8779 14.2462C13.0703 13.7227 12.4278 12.9808 12.0248 12.1068C11.6218 11.2327 11.4749 10.2623 11.6011 9.30815C11.7274 8.35398 12.1216 7.45518 12.738 6.71602C13.3545 5.97686 14.1679 5.42764 15.0838 5.1321C15.9998 4.83657 16.9808 4.80682 17.913 5.04631C18.8452 5.2858 19.6904 5.78472 20.3505 6.48516C21.0106 7.18561 21.4586 8.05888 21.6424 9.00364C21.8263 9.9484 21.7384 10.9259 21.3891 11.8228" stroke="#1C1B1F" stroke-width="2" stroke-linecap="round"/>
<path d="M20.6817 17.4487C21.5271 17.0369 22.47 16.8674 23.4058 16.959C24.3416 17.0505 25.2338 17.3996 25.9834 17.9673C26.7329 18.5351 27.3105 19.2994 27.6521 20.1755C27.9937 21.0516 28.0859 22.0052 27.9185 22.9304C27.751 23.8557 27.3306 24.7165 26.7037 25.4174C26.0768 26.1182 25.268 26.6317 24.367 26.9009C23.4661 27.17 22.5082 27.1843 21.5996 26.9421C20.691 26.7 19.8672 26.2108 19.2197 25.529" stroke="#1C1B1F" stroke-width="2" stroke-linecap="round"/>
<path d="M7.7014 17.074C6.79674 17.3304 5.98082 17.8325 5.34414 18.5245C4.70747 19.2164 4.27494 20.0713 4.09454 20.9941C3.91414 21.9169 3.99293 22.8717 4.32216 23.7525C4.65139 24.6333 5.2182 25.4057 5.95969 25.9839C6.70118 26.5622 7.58837 26.9237 8.52283 27.0284C9.45729 27.1331 10.4025 26.9768 11.2536 26.577C12.1046 26.1772 12.8283 25.5494 13.3443 24.7633C13.8603 23.9772 14.1484 23.0636 14.1767 22.1237" stroke="#1C1B1F" stroke-width="2" stroke-linecap="round"/>
<circle cx="16.6465" cy="9.97559" r="2.25" stroke="#1C1B1F" stroke-width="2"/>
<circle cx="22.7101" cy="22.0245" r="2.25" transform="rotate(135 22.7101 22.0245)" stroke="#1C1B1F" stroke-width="2"/>
<circle cx="2.25" cy="2.25" r="2.25" transform="matrix(0.707107 0.707107 0.707107 -0.707107 5.90649 22.0245)" stroke="#1C1B1F" stroke-width="2"/>
</svg>
