<svg width="33" height="32" viewBox="0 0 33 32" fill="none" xmlns="http://www.w3.org/2000/svg">
<path fill-rule="evenodd" clip-rule="evenodd" d="M17.3817 1.90993C13.949 1.69512 10.556 2.74083 7.83975 4.85068C5.1235 6.96054 3.27089 9.9894 2.62981 13.3685C1.98986 16.7416 2.60105 20.2321 4.34859 23.1868C4.48502 23.407 4.5283 23.6799 4.45361 23.9413L2.96698 29.1445C2.95159 29.1984 2.95088 29.2554 2.96494 29.3097C2.97899 29.3639 3.0073 29.4134 3.04693 29.4531C3.08656 29.4927 3.13606 29.521 3.19031 29.5351C3.24457 29.5491 3.30159 29.5484 3.35548 29.533L8.55868 28.0464C8.8162 27.9728 9.0896 28.0131 9.31244 28.151C12.2673 29.8989 15.7582 30.5102 19.1315 29.8702C22.5107 29.2291 25.5395 27.3765 27.6494 24.6602C29.7592 21.9439 30.8049 18.5509 30.5901 15.1182C30.3752 11.6855 28.9147 8.44932 26.4826 6.0173C24.0506 3.58528 20.8144 2.12474 17.3817 1.90993ZM8.69261 29.9658C11.9679 31.7969 15.7873 32.4206 19.4824 31.7195C23.3121 30.993 26.7448 28.8933 29.1359 25.8149C31.5271 22.7365 32.7122 18.891 32.4687 15.0006C32.2253 11.1102 30.57 7.44256 27.8137 4.68627C25.0574 1.92998 21.3897 0.274703 17.4993 0.0312542C13.6089 -0.212194 9.76346 0.972936 6.68505 3.3641C3.60663 5.75527 1.50701 9.18799 0.780441 13.0177C0.0794052 16.7128 0.70315 20.5322 2.5342 23.8074L1.15706 28.6274C1.04944 29.0041 1.0445 29.4026 1.14276 29.7818C1.24103 30.1611 1.43891 30.5071 1.71591 30.7841C1.99291 31.0611 2.33894 31.259 2.71815 31.3572C3.09735 31.4555 3.49594 31.4506 3.8726 31.3429L8.69261 29.9658ZM12.1113 8.77466C11.198 8.77389 10.3216 9.13541 9.67448 9.77992C9.02754 10.4242 8.66249 11.2988 8.65933 12.2118C8.65726 13.7393 8.95659 15.2523 9.54015 16.664C10.1238 18.0759 10.9804 19.3588 12.0607 20.4392C13.141 21.5195 14.4239 22.3761 15.8359 22.9597C17.247 23.543 18.7593 23.8424 20.2862 23.8406C21.1985 23.8336 22.0713 23.4671 22.7152 22.8206C23.3596 22.1736 23.7226 21.2983 23.7252 20.385L24.6664 20.3877L23.7252 20.3878C23.7252 20.363 23.7187 20.3387 23.7062 20.3172C23.6938 20.2958 23.6759 20.2781 23.6544 20.2658L20.4438 18.4311C20.3953 18.4034 20.3403 18.3892 20.2845 18.3897C20.2287 18.3903 20.1741 18.4058 20.1262 18.4345L17.6705 19.9079C17.4061 20.0666 17.0807 20.0856 16.7996 19.9589C14.908 19.1065 13.3933 17.5919 12.5409 15.7003C12.4143 15.4191 12.4333 15.0938 12.592 14.8294L14.0654 12.3737C14.0941 12.3258 14.1095 12.2712 14.1101 12.2153C14.1107 12.1595 14.0964 12.1046 14.0688 12.0561L12.2341 8.84545C12.2218 8.82394 12.2041 8.80607 12.1826 8.79364C12.1612 8.78121 12.1361 8.77466 12.1113 8.77466ZM12.1121 6.89231C10.7006 6.89132 9.3463 7.45012 8.34617 8.4462C7.34584 9.44246 6.78152 10.7948 6.77698 12.2066L6.77698 12.2083C6.77445 13.9838 7.1223 15.7423 7.80058 17.3831C8.47885 19.0239 9.47424 20.5147 10.7297 21.7702C11.9851 23.0256 13.476 24.021 15.1168 24.6993C16.7576 25.3776 18.5161 25.7254 20.2916 25.7229L20.2968 25.7229C21.706 25.7131 23.0544 25.1475 24.0489 24.149C25.0434 23.1504 25.6035 21.7997 25.6076 20.3904L25.6076 20.3877C25.6076 20.0311 25.5133 19.6809 25.3343 19.3724C25.1553 19.064 24.898 18.8084 24.5883 18.6314L21.3777 16.7968C21.0389 16.6032 20.6547 16.5033 20.2645 16.5075C19.8743 16.5117 19.4923 16.6197 19.1577 16.8204L17.1423 18.0296C16.0111 17.4176 15.0823 16.4888 14.4702 15.3575L15.6795 13.3421C15.8802 13.0076 15.9882 12.6255 15.9924 12.2354C15.9965 11.8452 15.8967 11.461 15.7031 11.1222L13.8684 7.91154C13.6915 7.60192 13.4359 7.34457 13.1274 7.16558C12.8191 6.98663 12.4686 6.89236 12.1121 6.89231C12.1123 6.89231 12.1119 6.89231 12.1121 6.89231Z" fill="#111827"/>
</svg>
