<svg width="33" height="33" viewBox="0 0 33 33" fill="none" xmlns="http://www.w3.org/2000/svg">
<path fill-rule="evenodd" clip-rule="evenodd" d="M10.0028 2.50085C8.93085 2.50085 8.06185 3.36986 8.06185 4.44183C8.06185 5.5138 8.93085 6.3828 10.0028 6.3828C11.0748 6.3828 11.9438 5.5138 11.9438 4.44183C11.9438 3.36986 11.0748 2.50085 10.0028 2.50085ZM6.06185 4.44183C6.06185 2.26529 7.82628 0.500854 10.0028 0.500854C12.1794 0.500854 13.9438 2.26529 13.9438 4.44183C13.9438 6.21988 12.7663 7.72292 11.1485 8.21367V11.6765C11.1587 11.6765 11.1689 11.6765 11.1792 11.6765H11.1792H19.4139C19.9662 11.6765 20.4139 12.1242 20.4139 12.6765C20.4139 13.2288 19.9662 13.6765 19.4139 13.6765H11.1792H11.1792C11.169 13.6765 11.1587 13.6765 11.1485 13.6765V17.0857H22.7732C23.148 17.0857 23.4914 17.2953 23.6627 17.6287L28.0029 26.0777L30.9106 25.0921C31.4337 24.9148 32.0014 25.195 32.1787 25.7181C32.356 26.2411 32.0758 26.8089 31.5527 26.9862L27.8284 28.2487C27.3592 28.4077 26.8443 28.1992 26.6179 27.7585L22.1626 19.0857H10.1485C9.59624 19.0857 9.14853 18.638 9.14853 18.0857V13.9253C8.23303 14.1531 7.3576 14.5344 6.56098 15.0578C5.18931 15.9589 4.11122 17.2416 3.45956 18.7479C2.8079 20.2542 2.61113 21.9182 2.8935 23.5349C3.17587 25.1516 3.92505 26.6504 5.04872 27.8466C6.17238 29.0428 7.62145 29.8842 9.21737 30.267C10.8133 30.6498 12.4863 30.5574 14.0304 30.0011C15.5744 29.4448 16.922 28.4489 17.907 27.1362C18.8921 25.8235 19.4716 24.2513 19.5742 22.6133C19.6087 22.0621 20.0835 21.6432 20.6347 21.6778C21.1859 21.7123 21.6048 22.1871 21.5702 22.7383C21.4433 24.7657 20.726 26.7118 19.5067 28.3366C18.2875 29.9615 16.6195 31.1941 14.7083 31.8827C12.7971 32.5712 10.7263 32.6856 8.75087 32.2118C6.77547 31.738 4.98185 30.6966 3.591 29.216C2.20015 27.7353 1.27284 25.8802 0.923327 23.879C0.573814 21.8779 0.817369 19.8182 1.62398 17.9538C2.43059 16.0893 3.76502 14.5016 5.46285 13.3862C6.58812 12.647 7.84044 12.1366 9.14853 11.8765V8.28995C7.38271 7.89969 6.06185 6.32501 6.06185 4.44183Z" fill="#111827"/>
</svg>
