<svg width="32" height="33" viewBox="0 0 32 33" fill="none" xmlns="http://www.w3.org/2000/svg">
<path d="M10.802 9.20584C12.1015 9.20584 13.1549 8.1524 13.1549 6.85292C13.1549 5.55344 12.1015 4.5 10.802 4.5C9.50253 4.5 8.4491 5.55344 8.4491 6.85292C8.4491 8.1524 9.50253 9.20584 10.802 9.20584Z" stroke="#1C1B1F" stroke-width="2" stroke-linecap="round" stroke-linejoin="round"/>
<path d="M19.2581 21.441C19.1663 22.9072 18.6475 24.3146 17.7657 25.4897C16.884 26.6648 15.6777 27.5562 14.2955 28.0542C12.9133 28.5522 11.4157 28.6349 9.98706 28.2923C8.55844 27.9496 7.26129 27.1964 6.25542 26.1256C5.24955 25.0549 4.57892 23.7132 4.32615 22.266C4.07338 20.8187 4.24952 19.3292 4.83287 17.9808C5.41621 16.6324 6.38128 15.4842 7.60915 14.6775C8.83702 13.8709 10.2741 13.4411 11.7432 13.441H18.3314" stroke="#1C1B1F" stroke-width="2" stroke-linecap="round" stroke-linejoin="round"/>
<path d="M10.9188 9.23389V17.7687H21.0191L24.8068 25.1419L27.7863 24.1319" stroke="#1C1B1F" stroke-width="2" stroke-linecap="round" stroke-linejoin="round"/>
</svg>
