<svg width="32" height="32" viewBox="0 0 32 32" fill="none" xmlns="http://www.w3.org/2000/svg">
<path d="M6.67404 5.74048L25.3278 26.2596" stroke="#1C1B1F" stroke-width="2" stroke-linecap="round" stroke-linejoin="round"/>
<path d="M13.5677 7.77738C14.3735 7.66319 15.1862 7.606 16 7.60624C20.4924 7.59639 24.8063 9.36407 28 12.5234" stroke="#1C1B1F" stroke-width="2" stroke-linecap="round" stroke-linejoin="round"/>
<path d="M4 12.5234C5.58373 10.9567 7.45981 9.71631 9.52169 8.8728" stroke="#1C1B1F" stroke-width="2" stroke-linecap="round" stroke-linejoin="round"/>
<path d="M18.8129 13.547C20.7877 14.0406 22.5945 15.0535 24.046 16.4805" stroke="#1C1B1F" stroke-width="2" stroke-linecap="round" stroke-linejoin="round"/>
<path d="M7.95398 16.4805C9.52578 14.9353 11.5114 13.8782 13.6709 13.437" stroke="#1C1B1F" stroke-width="2" stroke-linecap="round" stroke-linejoin="round"/>
<path d="M11.911 20.4375C12.9624 19.4339 14.3461 18.8518 15.7988 18.8019C17.2515 18.7521 18.6718 19.2381 19.7894 20.1674" stroke="#1C1B1F" stroke-width="2" stroke-linecap="round" stroke-linejoin="round"/>
<path d="M16.0009 25.7933C16.7736 25.7933 17.3999 25.1669 17.3999 24.3943C17.3999 23.6216 16.7736 22.9952 16.0009 22.9952C15.2282 22.9952 14.6019 23.6216 14.6019 24.3943C14.6019 25.1669 15.2282 25.7933 16.0009 25.7933Z" fill="#1C1B1F"/>
</svg>
