<svg width="33" height="32" viewBox="0 0 33 32" fill="none" xmlns="http://www.w3.org/2000/svg">
<path fill-rule="evenodd" clip-rule="evenodd" d="M12.0801 21.8951C13.2707 20.7579 14.8538 20.1233 16.5002 20.1233C18.1467 20.1233 19.7298 20.7579 20.9204 21.8951C21.3198 22.2766 21.9528 22.2621 22.3342 21.8627C22.7157 21.4633 22.7012 20.8303 22.3018 20.4489C20.7391 18.9562 18.6613 18.1233 16.5002 18.1233C14.3392 18.1233 12.2613 18.9562 10.6986 20.4489C10.2993 20.8303 10.2847 21.4633 10.6662 21.8627C11.0477 22.2621 11.6807 22.2766 12.0801 21.8951ZM18.2501 26.1176C18.2501 27.0834 17.4672 27.8663 16.5015 27.8663C15.5357 27.8663 14.7528 27.0834 14.7528 26.1176C14.7528 25.1518 15.5357 24.3689 16.5015 24.3689C17.4672 24.3689 18.2501 25.1518 18.2501 26.1176Z" fill="#111827"/>
</svg>
