<svg width="33" height="32" viewBox="0 0 33 32" fill="none" xmlns="http://www.w3.org/2000/svg">
<path fill-rule="evenodd" clip-rule="evenodd" d="M4.17059 2.43634C4.57925 2.06483 5.2117 2.09495 5.58321 2.5036L9.12561 6.40025C9.1372 6.41236 9.1485 6.42479 9.15951 6.43754L14.3146 12.1082C14.3247 12.1187 14.3345 12.1295 14.3441 12.1405L21.9622 20.5205C21.9725 20.5313 21.9825 20.5423 21.9922 20.5535L28.8989 28.1509C29.2705 28.5596 29.2403 29.192 28.8317 29.5635C28.423 29.935 27.7906 29.9049 27.4191 29.4963L20.5446 21.9343C19.3444 20.9578 17.8306 20.4483 16.2828 20.5014C14.7122 20.5552 13.2163 21.1846 12.0796 22.2696C11.6801 22.651 11.0471 22.6363 10.6658 22.2368C10.2844 21.8373 10.2991 21.2043 10.6986 20.823C12.1902 19.3991 14.1533 18.5732 16.2142 18.5025C16.6362 18.4881 17.0563 18.5055 17.4712 18.5536L13.2408 13.9002C10.9434 14.4719 8.83724 15.649 7.14414 17.3135C6.7503 17.7007 6.11716 17.6953 5.72998 17.3014C5.3428 16.9076 5.3482 16.2745 5.74203 15.8873C7.43769 14.2203 9.49341 12.9781 11.7408 12.2502L8.14197 8.29145C5.93703 9.28317 3.92562 10.6624 2.2042 12.3653C1.81157 12.7538 1.17842 12.7503 0.790005 12.3577C0.401593 11.9651 0.405008 11.3319 0.797633 10.9435C2.53487 9.22492 4.54091 7.80641 6.73362 6.74228L4.10333 3.84895C3.73182 3.44029 3.76194 2.80784 4.17059 2.43634ZM30.7958 12.3652C26.9916 8.60198 21.8532 6.49644 16.5022 6.50817L16.4997 6.50817C15.5296 6.50788 14.5607 6.57605 13.6002 6.71218C13.0534 6.78968 12.5473 6.40922 12.4698 5.8624C12.3923 5.31558 12.7727 4.80947 13.3196 4.73197C14.3728 4.5827 15.4353 4.50791 16.4991 4.50817L16.4978 4.50817L16.5 5.50812L16.5003 4.50817L16.4991 4.50817C22.3778 4.4956 28.023 6.80896 32.2024 10.9434C32.595 11.3318 32.5984 11.9649 32.21 12.3576C31.8216 12.7502 31.1885 12.7536 30.7958 12.3652ZM19.0458 12.6912C19.1797 12.1554 19.7226 11.8297 20.2584 11.9636C22.8998 12.6239 25.3165 13.9786 27.258 15.8873C27.6518 16.2745 27.6572 16.9076 27.27 17.3015C26.8828 17.6953 26.2496 17.7007 25.8558 17.3135C24.1687 15.6549 22.0687 14.4776 19.7734 13.9039C19.2376 13.7699 18.9118 13.227 19.0458 12.6912ZM18.2498 26.4919C18.2498 27.4577 17.4669 28.2406 16.5011 28.2406C15.5354 28.2406 14.7524 27.4577 14.7524 26.4919C14.7524 25.5262 15.5354 24.7432 16.5011 24.7432C17.4669 24.7432 18.2498 25.5262 18.2498 26.4919Z" fill="#111827"/>
</svg>
