<svg width="33" height="32" viewBox="0 0 33 32" fill="none" xmlns="http://www.w3.org/2000/svg">
<path fill-rule="evenodd" clip-rule="evenodd" d="M17.5364 5.73858L17.5365 5.73858C18.2773 5.73436 19.085 5.72976 19.6756 5.79361C20.2247 5.85296 20.7179 5.45596 20.7773 4.90687C20.8366 4.35779 20.4396 3.86455 19.8905 3.80519C19.1733 3.72765 18.2078 3.73384 17.4671 3.73858L17.4671 3.73858L17.4671 3.73858C17.3069 3.73961 17.1573 3.74057 17.0229 3.7406C10.9487 3.7276 5.11591 6.11784 0.797584 10.3897C0.404952 10.7781 0.401527 11.4113 0.789933 11.8039C1.17834 12.1965 1.81149 12.1999 2.20413 11.8115C6.14723 7.91087 11.4733 5.72843 17.0197 5.7406L17.0221 5.7406C17.1872 5.74057 17.3599 5.73958 17.5364 5.73858ZM32.2063 5.44736C32.5968 5.05683 32.5968 4.42367 32.2063 4.03315C31.8157 3.64262 31.1826 3.64262 30.7921 4.03315L27.8801 6.94511L24.9681 4.03315C24.5776 3.64262 23.9444 3.64262 23.5539 4.03315C23.1634 4.42367 23.1634 5.05683 23.5539 5.44736L26.4659 8.35933L23.5539 11.2713C23.1634 11.6618 23.1634 12.295 23.5539 12.6855C23.9444 13.076 24.5776 13.076 24.9681 12.6855L27.8801 9.77354L30.7921 12.6855C31.1826 13.076 31.8157 13.076 32.2063 12.6855C32.5968 12.295 32.5968 11.6618 32.2063 11.2713L29.2943 8.35933L32.2063 5.44736ZM12.4236 22.0601C13.6621 20.877 15.3089 20.2169 17.0217 20.2169C18.7344 20.2169 20.3812 20.877 21.6197 22.0601C22.0191 22.4415 22.6521 22.427 23.0335 22.0276C23.415 21.6283 23.4005 20.9953 23.0011 20.6138C21.3905 19.0754 19.2489 18.2169 17.0217 18.2169C14.7944 18.2169 12.6528 19.0754 11.0422 20.6138C10.6428 20.9953 10.6283 21.6283 11.0098 22.0276C11.3913 22.427 12.0243 22.4415 12.4236 22.0601ZM17.5461 12.9753L17.5456 12.9753H17.5456C17.3788 12.9769 17.205 12.9786 17.0222 12.9787L17.0192 12.9787C13.3906 12.9691 9.90435 14.3895 7.31566 16.9321C6.92165 17.3191 6.28852 17.3135 5.90151 16.9195C5.5145 16.5254 5.52018 15.8923 5.91419 15.5053C8.8778 12.5943 12.8689 10.9681 17.0229 10.9787C17.1592 10.9786 17.3017 10.977 17.4492 10.9754C18.1015 10.968 18.8511 10.9595 19.5877 11.079C20.1328 11.1674 20.5031 11.681 20.4146 12.2262C20.3262 12.7713 19.8126 13.1416 19.2674 13.0532C18.7172 12.9639 18.1823 12.9691 17.5461 12.9753ZM18.8327 26.4545C18.8327 27.4539 18.0226 28.2641 17.0232 28.2641C16.0238 28.2641 15.2136 27.4539 15.2136 26.4545C15.2136 25.4552 16.0238 24.645 17.0232 24.645C18.0226 24.645 18.8327 25.4552 18.8327 26.4545Z" fill="#111827"/>
</svg>
