<svg width="32" height="32" viewBox="0 0 32 32" fill="none" xmlns="http://www.w3.org/2000/svg">
<path d="M12.1863 19.868C13.326 18.7793 14.8414 18.1719 16.4175 18.1719C17.9936 18.1719 19.509 18.7793 20.6487 19.868" stroke="#1C1B1F" stroke-width="2" stroke-linecap="round" stroke-linejoin="round"/>
<path d="M28 6.58997L22.2092 12.3808" stroke="#1C1B1F" stroke-width="2" stroke-linecap="round" stroke-linejoin="round"/>
<path d="M28 12.3808L22.2092 6.58997" stroke="#1C1B1F" stroke-width="2" stroke-linecap="round" stroke-linejoin="round"/>
<path d="M4 11.6786C7.30485 8.40936 11.7688 6.58018 16.4175 6.59037C17.0629 6.59025 17.7079 6.62495 18.3496 6.69432" stroke="#1C1B1F" stroke-width="2" stroke-linecap="round" stroke-linejoin="round"/>
<path d="M8.09152 15.7733C10.3127 13.5916 13.304 12.3729 16.4174 12.3811C17.0652 12.3809 17.7119 12.4329 18.3513 12.5366" stroke="#1C1B1F" stroke-width="2" stroke-linecap="round" stroke-linejoin="round"/>
<path d="M16.4184 25.4101C17.2179 25.4101 17.8661 24.7619 17.8661 23.9624C17.8661 23.1628 17.2179 22.5146 16.4184 22.5146C15.6188 22.5146 14.9707 23.1628 14.9707 23.9624C14.9707 24.7619 15.6188 25.4101 16.4184 25.4101Z" fill="#1C1B1F"/>
</svg>
