<svg width="33" height="32" viewBox="0 0 33 32" fill="none" xmlns="http://www.w3.org/2000/svg">
<path fill-rule="evenodd" clip-rule="evenodd" d="M16.5003 13.1284C13.0028 13.1284 9.64399 14.4969 7.14226 16.9411C6.74723 17.3271 6.11411 17.3197 5.72815 16.9247C5.34219 16.5296 5.34954 15.8965 5.74458 15.5106C8.61995 12.7012 12.4804 11.1284 16.5003 11.1284C20.5203 11.1284 24.3807 12.7012 27.2561 15.5106C27.6511 15.8965 27.6585 16.5296 27.2725 16.9247C26.8865 17.3197 26.2534 17.3271 25.8584 16.9411C23.3567 14.4969 19.9979 13.1284 16.5003 13.1284ZM16.5002 20.1232C14.8538 20.1232 13.2707 20.7578 12.0801 21.8951C11.6807 22.2765 11.0477 22.262 10.6662 21.8626C10.2848 21.4633 10.2993 20.8303 10.6986 20.4488C12.2613 18.9561 14.3392 18.1232 16.5002 18.1232C18.6613 18.1232 20.7391 18.9561 22.3018 20.4488C22.7012 20.8303 22.7157 21.4633 22.3342 21.8626C21.9528 22.262 21.3198 22.2765 20.9204 21.8951C19.7298 20.7578 18.1467 20.1232 16.5002 20.1232ZM18.2501 26.1175C18.2501 27.0833 17.4672 27.8662 16.5015 27.8662C15.5357 27.8662 14.7528 27.0833 14.7528 26.1175C14.7528 25.1518 15.5357 24.3689 16.5015 24.3689C17.4672 24.3689 18.2501 25.1518 18.2501 26.1175Z" fill="#111827"/>
</svg>
