<svg width="32" height="33" viewBox="0 0 32 33" fill="none" xmlns="http://www.w3.org/2000/svg">
<path d="M4 16.5508L25.343 16.5508C26.8104 16.5508 28 15.3527 28 13.8853V13.8853C28 12.4272 26.818 11.2368 25.36 11.2368V11.2368C23.902 11.2368 22.72 12.4188 22.72 13.8768L22.72 13.9122" stroke="#1C1B1F" stroke-width="2" stroke-linecap="round" stroke-linejoin="round"/>
<path d="M4 11.2368L14.7286 11.2368C16.196 11.2368 17.3856 10.0387 17.3856 8.57129V8.57129C17.3856 7.11326 16.2036 5.92282 14.7455 5.92282V5.92282C13.2875 5.92282 12.1055 7.10479 12.1055 8.56283L12.1055 8.59828" stroke="#1C1B1F" stroke-width="2" stroke-linecap="round" stroke-linejoin="round"/>
<path d="M4 21.7629L14.7286 21.7629C16.196 21.7629 17.3856 22.961 17.3856 24.4285V24.4285C17.3856 25.8865 16.2036 27.0769 14.7455 27.0769V27.0769C13.2875 27.0769 12.1055 25.895 12.1055 24.4369L12.1055 24.4015" stroke="#1C1B1F" stroke-width="2" stroke-linecap="round" stroke-linejoin="round"/>
</svg>
