<svg width="33" height="33" viewBox="0 0 33 33" fill="none" xmlns="http://www.w3.org/2000/svg">
<path fill-rule="evenodd" clip-rule="evenodd" d="M0.502197 9.92252C0.502197 9.37023 0.949912 8.92252 1.5022 8.92252L14.9109 8.92252C16.1885 8.92252 17.2317 7.877 17.2317 6.59111C17.2317 5.31695 16.198 4.28101 14.9322 4.28101C13.6622 4.28101 12.6326 5.31053 12.6326 6.58052V6.62484C12.6326 7.17712 12.1849 7.62484 11.6326 7.62484C11.0804 7.62484 10.6326 7.17713 10.6326 6.62484V6.58052C10.6326 4.20596 12.5576 2.28101 14.9322 2.28101C17.3109 2.28101 19.2317 4.22073 19.2317 6.59111C19.2317 8.97322 17.3014 10.9225 14.9109 10.9225L1.5022 10.9225C0.949913 10.9225 0.502197 10.4748 0.502197 9.92252ZM0.502197 16.5624C0.502197 16.0101 0.949912 15.5624 1.5022 15.5624L28.177 15.5624C29.4546 15.5624 30.4978 14.5169 30.4978 13.231C30.4978 11.9569 29.4641 10.9209 28.1983 10.9209C26.9283 10.9209 25.8987 11.9504 25.8987 13.2204V13.2647C25.8987 13.817 25.451 14.2647 24.8987 14.2647C24.3465 14.2647 23.8987 13.817 23.8987 13.2647V13.2204C23.8987 10.8459 25.8237 8.92091 28.1983 8.92091C30.577 8.92091 32.4978 10.8606 32.4978 13.231C32.4978 15.6131 30.5675 17.5624 28.177 17.5624L1.5022 17.5624C0.949913 17.5624 0.502197 17.1147 0.502197 16.5624ZM1.5022 24.0775C0.949912 24.0775 0.502197 23.6298 0.502197 23.0775C0.502197 22.5253 0.949913 22.0775 1.5022 22.0775L14.9109 22.0775C17.3014 22.0775 19.2317 24.0268 19.2317 26.4089C19.2317 28.7793 17.3109 30.719 14.9322 30.719C12.5576 30.719 10.6326 28.7941 10.6326 26.4195V26.3752C10.6326 25.8229 11.0804 25.3752 11.6326 25.3752C12.1849 25.3752 12.6326 25.8229 12.6326 26.3752V26.4195C12.6326 27.6895 13.6622 28.719 14.9322 28.719C16.198 28.719 17.2317 27.6831 17.2317 26.4089C17.2317 25.1231 16.1885 24.0775 14.9109 24.0775L1.5022 24.0775Z" fill="#111827"/>
</svg>
