<svg width="32" height="33" viewBox="0 0 32 33" fill="none" xmlns="http://www.w3.org/2000/svg">
<path d="M15.9014 21.9998V28.5002" stroke="#1C1B1F" stroke-width="2" stroke-linecap="round" stroke-linejoin="round"/>
<path d="M11.2581 28.5H20.5444" stroke="#1C1B1F" stroke-width="2" stroke-linecap="round" stroke-linejoin="round"/>
<path d="M7.71582 13.2098C8.94608 12.5559 11.8076 11.5952 15.9012 13.642C20.2606 15.8217 23.2228 14.5905 24.3055 13.9516" stroke="#1C1B1F" stroke-width="2" stroke-linecap="round" stroke-linejoin="round"/>
<path d="M21.016 4.5H10.7259C10.5089 4.5 10.3168 4.63986 10.2501 4.84627L7.26534 14.084C7.26407 14.0879 7.26343 14.092 7.26343 14.0961C7.26343 18.4611 10.8019 21.9996 15.1669 21.9996H16.8336C21.1983 21.9996 24.7365 18.4613 24.7365 14.0966C24.7365 14.0922 24.7358 14.0878 24.7343 14.0835L21.4878 4.8344C21.4175 4.63408 21.2283 4.5 21.016 4.5Z" stroke="#1C1B1F" stroke-width="2" stroke-linecap="round"/>
</svg>
