<svg width="32" height="32" viewBox="0 0 32 32" fill="none" xmlns="http://www.w3.org/2000/svg">
<path d="M15.9014 21.4998V28.0002" stroke="#1C1B1F" stroke-width="2" stroke-linecap="round" stroke-linejoin="round"/>
<path d="M11.2581 28H20.5444" stroke="#1C1B1F" stroke-width="2" stroke-linecap="round" stroke-linejoin="round"/>
<path d="M7.71582 12.7098C8.94608 12.0559 11.8076 11.0952 15.9012 13.142C20.2606 15.3217 23.2228 14.0905 24.3055 13.4516" stroke="#1C1B1F" stroke-width="2" stroke-linecap="round" stroke-linejoin="round"/>
<path d="M21.016 4H10.7259C10.5089 4 10.3168 4.13986 10.2501 4.34627L7.26534 13.584C7.26407 13.5879 7.26343 13.592 7.26343 13.5961C7.26343 17.9611 10.8019 21.4996 15.1669 21.4996H16.8336C21.1983 21.4996 24.7365 17.9613 24.7365 13.5966C24.7365 13.5922 24.7358 13.5878 24.7343 13.5835L21.4878 4.3344C21.4175 4.13408 21.2283 4 21.016 4Z" stroke="#1C1B1F" stroke-width="2" stroke-linecap="round"/>
</svg>
