<svg width="33" height="33" viewBox="0 0 33 33" fill="none" xmlns="http://www.w3.org/2000/svg">
<path fill-rule="evenodd" clip-rule="evenodd" d="M9.81686 0.500732C9.16612 0.500732 8.58959 0.920324 8.38952 1.53955L4.63091 13.1724C4.59723 13.2766 4.58008 13.3855 4.58008 13.495C4.58008 19.4758 9.4064 24.3293 15.3768 24.3734V30.4988H10.5732C10.0209 30.4988 9.57316 30.9465 9.57316 31.4988C9.57316 32.0511 10.0209 32.4988 10.5732 32.4988H16.3619L16.3768 32.4989L16.3917 32.4988H22.1802C22.7325 32.4988 23.1802 32.0511 23.1802 31.4988C23.1802 30.9465 22.7325 30.4988 22.1802 30.4988H17.3768V24.3737H17.5419C23.5497 24.3737 28.4199 19.5034 28.4199 13.4957C28.4199 13.3773 28.3999 13.2598 28.3607 13.1481L24.2735 1.50394C24.0626 0.902963 23.4951 0.500732 22.8582 0.500732H9.81686ZM15.4587 22.3737C10.604 22.3737 6.65929 18.4773 6.58126 13.6412L6.7185 13.2164C8.08183 12.5227 11.2703 11.4924 15.9293 13.8219C20.7282 16.2213 24.3361 15.5365 26.3391 14.699C25.7518 19.033 22.037 22.3737 17.5419 22.3737H15.4587ZM26.058 12.6267C24.699 13.3258 21.499 14.3707 16.8237 12.033C12.8037 10.023 9.61611 10.1769 7.50748 10.7745L10.1808 2.50073H22.5038L26.058 12.6267Z" fill="#111827"/>
</svg>
