<svg width="33" height="32" viewBox="0 0 33 32" fill="none" xmlns="http://www.w3.org/2000/svg">
<g clip-path="url(#clip0_6_1682)">
<path fill-rule="evenodd" clip-rule="evenodd" d="M18.3778 0.70416L15.6394 0.07824C15.8443 0.07824 16.0641 0.0633334 16.3118 0.0465333C16.6316 0.0248445 16.998 0 17.4389 0C19.0819 0 20.412 0.547682 21.6639 1.25184C21.8369 1.33837 21.986 1.52058 22.1377 1.70589C22.2603 1.85571 22.3846 2.00755 22.5245 2.11248C23.1504 2.3472 23.7763 2.50368 24.4023 2.42544V2.19072C25.1064 2.3472 25.8106 3.1296 25.8106 3.67728H22.6027C22.5245 3.67728 22.368 3.75552 22.2898 3.83376C22.368 3.912 22.5245 4.06848 22.6027 4.06848C22.7505 4.06848 22.9113 4.06412 23.0811 4.05952C23.6306 4.04462 24.274 4.02718 24.8717 4.14672C24.8608 4.16484 24.8495 4.18396 24.8376 4.20391C24.5933 4.61461 24.1422 5.3732 23.6199 4.85088C23.6199 4.6944 20.5685 4.77264 19.7861 4.92912C19.6296 4.92912 19.4731 5.24208 19.5514 5.39856C19.9018 6.24948 20.7325 6.78018 21.5109 7.27746C21.9492 7.55749 22.3709 7.82692 22.681 8.13696C24.8717 9.85824 25.5759 11.423 25.1064 14.3962C23.9307 19.03 22.0824 19.8122 18.4807 21.3365C18.008 21.5366 17.5051 21.7494 16.9695 21.9854C15.6394 22.6114 14.857 24.0979 15.0917 25.5845C15.6394 28.7923 20.725 29.653 21.7421 25.8974C22.0551 24.4109 21.6639 22.2984 18.8472 21.6725C20.0991 21.1248 21.2727 20.4989 22.368 19.7947C22.5245 19.6382 22.681 19.6382 22.8375 19.7947C25.9671 22.6896 26.7495 28.0099 21.5856 31.1395C17.9083 33.1738 13.2922 31.4525 11.8056 27.5405C10.3191 23.5503 12.6663 19.247 16.813 18.3864C19.7861 17.917 22.8375 14.7874 21.5074 11.8925C20.9169 10.5935 19.2125 9.2945 17.7728 8.19727C17.3048 7.84057 16.8647 7.5052 16.5 7.19808C16.2939 7.07441 15.9575 7.10278 15.5823 7.13442C15.2453 7.16283 14.8772 7.19388 14.544 7.11984C14.7005 7.00248 14.7957 6.88565 14.8908 6.76881C14.986 6.65198 15.0811 6.53514 15.2376 6.41778C14.5335 5.9845 14.097 5.92513 13.5575 5.85176C13.3177 5.81915 13.0575 5.78376 12.7445 5.71152C12.9792 5.24208 13.9918 4.69543 14.696 4.61719C14.6745 4.41294 14.6604 4.23674 14.6482 4.0827C14.5712 3.1156 14.5637 3.0221 13.2139 2.3472C14.0168 1.81196 14.7263 1.93058 15.4153 2.04578C16.1364 2.16634 16.8352 2.28318 17.5954 1.64304C16.6565 1.33008 15.7176 1.01712 14.857 0.46944C15.2979 0.498832 15.7311 0.576899 16.1626 0.654625C16.8795 0.783803 17.5913 0.912041 18.324 0.814346L18.3778 0.70416ZM11.8056 20.8118C8.05009 18.4647 7.81537 12.5184 12.0403 9.93648C15.1699 7.98049 18.6907 8.68465 21.0379 12.1272C21.3509 12.6749 21.3509 13.5355 21.1944 14.1614C20.5685 16.2739 19.0037 17.4475 16.8912 17.917C17.5171 17.4475 17.9866 16.7434 18.1431 15.961C18.8472 11.5795 12.0403 11.1101 12.3533 15.8045C12.2751 17.1346 13.2922 18.0735 15.2482 18.3864C14.2311 19.0123 13.3704 19.56 12.4315 20.7336C12.2751 20.9683 12.1186 20.9683 11.8056 20.8118ZM10.8623 24.2063C9.6578 24.4315 8.38778 24.669 7.18945 25.1933C7.73713 22.9243 9.69313 21.3595 12.0403 21.3595C11.4144 22.1419 11.1015 23.159 11.0232 24.1762C10.9697 24.1862 10.916 24.1962 10.8623 24.2063ZM20.9559 2.61041L21.1906 2.84513L20.8777 3.00161C20.7212 3.07985 20.6429 3.00161 20.5647 2.92337C20.4082 2.68865 20.8777 2.53217 20.9559 2.61041Z" fill="#111827"/>
</g>
<defs>
<clipPath id="clip0_6_1682">
<rect width="32" height="32" fill="white" transform="translate(0.5)"/>
</clipPath>
</defs>
</svg>
