<svg width="33" height="32" viewBox="0 0 33 32" fill="none" xmlns="http://www.w3.org/2000/svg">
<path fill-rule="evenodd" clip-rule="evenodd" d="M24.0865 2.19904C21.433 1.60596 18.5437 2.34281 16.4804 4.40606C14.2394 6.64707 13.563 9.86209 14.4566 12.6929C14.4619 12.7095 14.4666 12.7262 14.471 12.7428C14.6108 13.1014 14.5359 13.5243 14.2464 13.8138L3.42047 24.6398C2.19444 25.8658 2.19444 27.8536 3.42047 29.0796C4.64651 30.3057 6.63431 30.3057 7.86034 29.0796L18.4358 18.5042C18.6522 18.0574 19.1723 17.8309 19.655 17.9937L19.698 18.0081L19.7168 18.0143C22.5691 18.9513 25.8291 18.2846 28.094 16.0196C30.1573 13.9563 30.8941 11.0669 30.301 8.41335L26.9361 11.7782C25.22 13.4943 22.4378 13.4943 20.7217 11.7782C19.0056 10.0622 19.0056 7.2799 20.7217 5.56385L24.0865 2.19904ZM26.64 2.45736C26.7271 2.37028 26.7995 2.26551 26.8512 2.14546C27.0695 1.63816 26.8353 1.04992 26.328 0.831581C22.6017 -0.772242 18.1122 -0.054112 15.0662 2.99184C12.4021 5.65592 11.519 9.42479 12.412 12.8198L2.00626 23.2255C-0.000825346 25.2326 -0.000825107 28.4868 2.00626 30.4938C4.01334 32.5009 7.26747 32.5009 9.27456 30.4938L19.6803 20.0881C23.0755 20.9811 26.8442 20.0979 29.5082 17.4338C32.5542 14.3879 33.2723 9.89839 31.6685 6.17209C31.4501 5.6648 30.8619 5.43056 30.3546 5.6489C30.2345 5.70057 30.1298 5.77296 30.0427 5.86009L30.0342 5.85165L25.5219 10.364C24.5869 11.299 23.0709 11.299 22.1359 10.364C21.2009 9.42902 21.2009 7.91307 22.1359 6.97806L26.6483 2.46569L26.64 2.45736Z" fill="#111827"/>
</svg>
