<svg width="32" height="32" viewBox="0 0 32 32" fill="none" xmlns="http://www.w3.org/2000/svg">
<path d="M18.3147 18.3688L9.65352 27.0301C8.3602 28.3234 6.26331 28.3234 4.96999 27.0301C3.67667 25.7367 3.67667 23.6398 4.96999 22.3465L13.6312 13.6853" stroke="#1C1B1F" stroke-width="2" stroke-linecap="round" stroke-linejoin="round"/>
<path d="M13.6022 13.595C12.801 11.0569 13.4064 8.17077 15.4185 6.15864C17.616 3.96117 20.8559 3.44145 23.5464 4.59948M18.2683 18.3532C20.8389 19.2204 23.793 18.6298 25.8414 16.5815C28.0388 14.384 28.5585 11.1441 27.4005 8.45355" stroke="#1C1B1F" stroke-width="2" stroke-linecap="round"/>
<path d="M27.3936 8.44668L23.7835 12.0568C22.7231 13.1173 21.0037 13.1173 19.9432 12.0568C18.8827 10.9963 18.8827 9.27691 19.9432 8.21643L23.5533 4.60632" stroke="#1C1B1F" stroke-width="2" stroke-linejoin="round"/>
</svg>
