<svg width="33" height="32" viewBox="0 0 33 32" fill="none" xmlns="http://www.w3.org/2000/svg">
<path fill-rule="evenodd" clip-rule="evenodd" d="M26.206 7.70821C26.5965 7.31768 26.5965 6.68452 26.206 6.29399C25.8154 5.90347 25.1823 5.90347 24.7917 6.29399L16.5 14.5858L8.20821 6.29399C7.81768 5.90347 7.18452 5.90347 6.79399 6.29399C6.40347 6.68452 6.40347 7.31768 6.79399 7.70821L15.0858 16L6.79399 24.2917C6.40347 24.6823 6.40347 25.3154 6.79399 25.706C7.18452 26.0965 7.81768 26.0965 8.20821 25.706L16.5 17.4142L24.7917 25.706C25.1823 26.0965 25.8154 26.0965 26.206 25.706C26.5965 25.3154 26.5965 24.6823 26.206 24.2917L17.9142 16L26.206 7.70821Z" fill="#111827"/>
</svg>
