<svg width="33" height="32" viewBox="0 0 33 32" fill="none" xmlns="http://www.w3.org/2000/svg">
<path fill-rule="evenodd" clip-rule="evenodd" d="M28.3068 5.70711C28.6974 5.31658 28.6974 4.68342 28.3068 4.29289C27.9163 3.90237 27.2831 3.90237 26.8926 4.29289L16.7999 14.3856L6.70711 4.29289C6.31658 3.90237 5.68342 3.90237 5.29289 4.29289C4.90237 4.68342 4.90237 5.31658 5.29289 5.70711L15.3856 15.7999L5.29289 25.8926C4.90237 26.2831 4.90237 26.9163 5.29289 27.3068C5.68342 27.6974 6.31658 27.6974 6.70711 27.3068L16.7999 17.2141L26.8926 27.3068C27.2831 27.6974 27.9163 27.6974 28.3068 27.3068C28.6974 26.9163 28.6974 26.2831 28.3068 25.8926L18.2141 15.7999L28.3068 5.70711Z" fill="#111827"/>
</svg>
