<svg width="33" height="32" viewBox="0 0 33 32" fill="none" xmlns="http://www.w3.org/2000/svg">
<path fill-rule="evenodd" clip-rule="evenodd" d="M26.2086 7.70564C26.5992 7.31512 26.5992 6.68195 26.2086 6.29143C25.8181 5.9009 25.185 5.9009 24.7944 6.29143L16.5 14.5858L8.20564 6.29143C7.81512 5.9009 7.18195 5.9009 6.79143 6.29143C6.4009 6.68195 6.4009 7.31512 6.79143 7.70564L15.0858 16L6.79143 24.2944C6.4009 24.685 6.4009 25.3181 6.79143 25.7086C7.18195 26.0992 7.81512 26.0992 8.20564 25.7086L16.5 17.4142L24.7944 25.7086C25.185 26.0992 25.8181 26.0992 26.2086 25.7086C26.5992 25.3181 26.5992 24.685 26.2086 24.2944L17.9142 16L26.2086 7.70564Z" fill="#111827"/>
</svg>
