<svg width="33" height="32" viewBox="0 0 33 32" fill="none" xmlns="http://www.w3.org/2000/svg">
<path fill-rule="evenodd" clip-rule="evenodd" d="M0.500977 1.00073C0.500977 0.448448 0.948692 0.000732422 1.50098 0.000732422H31.4991C32.0514 0.000732422 32.4991 0.448448 32.4991 1.00073V30.9993C32.4991 31.5516 32.0514 31.9993 31.4991 31.9993H1.50098C0.948692 31.9993 0.500977 31.5516 0.500977 30.9993V1.00073ZM2.50098 2.00073V29.9993H30.4991V2.00073H2.50098ZM5.27397 18.9969C5.72887 18.6837 6.35152 18.7986 6.66472 19.2535L7.96834 21.1469L9.27197 19.2535C9.58516 18.7986 10.2078 18.6837 10.6627 18.9969C11.1176 19.3101 11.2325 19.9328 10.9193 20.3876L9.18244 22.9103L10.9193 25.4329C11.2325 25.8878 11.1176 26.5104 10.6627 26.8236C10.2078 27.1368 9.58516 27.022 9.27197 26.5671L7.96834 24.6737L6.66472 26.5671C6.35152 27.022 5.72887 27.1368 5.27397 26.8236C4.81908 26.5104 4.70421 25.8878 5.01741 25.4329L6.75424 22.9103L5.01741 20.3876C4.70421 19.9328 4.81908 19.3101 5.27397 18.9969ZM15.6634 16.3612C15.3319 16.3285 14.9994 16.4118 14.7224 16.5969C14.4455 16.7819 14.2413 17.0573 14.1446 17.376C14.0479 17.6947 14.0647 18.0371 14.1922 18.3448C14.3197 18.6526 14.5499 18.9066 14.8436 19.0636C15.0479 19.1728 15.2741 19.2304 15.5028 19.2334L15.5417 19.2335C15.629 19.2323 15.7165 19.2231 15.8032 19.2059C16.1298 19.1409 16.4239 18.9647 16.6352 18.7072C16.8465 18.4498 16.962 18.127 16.962 17.7939L16.962 17.7926C16.9622 17.6039 16.9252 17.4171 16.853 17.2427C16.7807 17.0684 16.6748 16.9101 16.5412 16.7768L16.5403 16.7759C16.3048 16.5404 15.9949 16.3938 15.6634 16.3612ZM18.0282 20.1502C18.081 20.094 18.132 20.0359 18.1812 19.976C18.6858 19.3612 18.9617 18.5905 18.962 17.7952L17.962 17.7939H18.962V17.7944C18.9624 17.3425 18.8737 16.8949 18.7007 16.4774C18.5277 16.0597 18.274 15.6804 17.954 15.3611C17.3913 14.7988 16.6511 14.4488 15.8594 14.3708C15.0675 14.2928 14.273 14.4918 13.6113 14.9339C12.9496 15.376 12.4617 16.0339 12.2307 16.7954C11.9997 17.5569 12.0399 18.375 12.3444 19.1102C12.5049 19.4975 12.7334 19.8492 13.0164 20.1501C12.4464 20.6316 12.0246 21.2695 11.8062 21.9894C11.5455 22.8491 11.5908 23.7727 11.9346 24.6027C12.2784 25.4327 12.8994 26.1179 13.6917 26.5414C14.4841 26.9649 15.3987 27.1006 16.2799 26.9253C17.161 26.75 17.9541 26.2746 18.5241 25.5802C19.0939 24.8858 19.4054 24.0154 19.4055 23.1172L19.4055 23.118L18.4055 23.1167H19.4055V23.1172C19.4061 22.607 19.3059 22.1017 19.1106 21.6303C18.9154 21.1589 18.6289 20.7307 18.2677 20.3703C18.1907 20.2934 18.1108 20.2199 18.0282 20.1502ZM15.5013 21.2335H15.5432C15.5977 21.2341 15.6523 21.2371 15.7069 21.2425C16.1405 21.2852 16.5459 21.4769 16.8539 21.785L16.8549 21.7859C17.0297 21.9603 17.1684 22.1675 17.2629 22.3957C17.3574 22.6238 17.4059 22.8684 17.4055 23.1154V23.1167C17.4055 23.5524 17.2545 23.9746 16.9781 24.3114C16.7016 24.6482 16.317 24.8787 15.8897 24.9637C15.4624 25.0487 15.0188 24.9829 14.6345 24.7775C14.2503 24.5721 13.9491 24.2399 13.7824 23.8373C13.6157 23.4348 13.5936 22.9869 13.7201 22.57C13.8466 22.153 14.1137 21.7929 14.476 21.5508C14.781 21.347 15.1375 21.2376 15.5013 21.2335ZM25.4539 14.495C25.9281 14.7781 26.083 15.392 25.7999 15.8662L24.0543 18.79C26.3213 18.7901 28.1591 20.628 28.1591 22.8951C28.1591 25.1622 26.3213 27.0001 24.0541 27.0001C21.787 27.0001 19.9491 25.1622 19.9491 22.8951C19.9491 22.0876 20.1822 21.3345 20.5849 20.6996L24.0827 14.841C24.3658 14.3668 24.9797 14.2119 25.4539 14.495ZM22.2134 21.873C22.045 22.1757 21.9491 22.5242 21.9491 22.8951C21.9491 24.0576 22.8915 25.0001 24.0541 25.0001C25.2167 25.0001 26.1591 24.0576 26.1591 22.8951C26.1591 21.7325 25.2167 20.79 24.0541 20.79C23.3106 20.79 22.6571 21.1755 22.2826 21.7575L22.2241 21.8554L22.2134 21.873ZM6 4.50073C6.27614 4.50073 6.5 4.72459 6.5 5.00073V8.06079C6.5 8.33693 6.27614 8.56079 6 8.56079C5.72386 8.56079 5.5 8.33693 5.5 8.06079V5.00073C5.5 4.72459 5.72386 4.50073 6 4.50073ZM9.5 5.00073C9.5 4.72459 9.27614 4.50073 9 4.50073C8.72386 4.50073 8.5 4.72459 8.5 5.00073V8.06079C8.5 8.33693 8.72386 8.56079 9 8.56079C9.27614 8.56079 9.5 8.33693 9.5 8.06079V5.00073ZM12 4.50073C12.2761 4.50073 12.5 4.72459 12.5 5.00073V8.06079C12.5 8.33693 12.2761 8.56079 12 8.56079C11.7239 8.56079 11.5 8.33693 11.5 8.06079V5.00073C11.5 4.72459 11.7239 4.50073 12 4.50073ZM15.5 5.00073C15.5 4.72459 15.2761 4.50073 15 4.50073C14.7239 4.50073 14.5 4.72459 14.5 5.00073V8.06079C14.5 8.33693 14.7239 8.56079 15 8.56079C15.2761 8.56079 15.5 8.33693 15.5 8.06079V5.00073ZM18 4.50073C18.2761 4.50073 18.5 4.72459 18.5 5.00073V8.06079C18.5 8.33693 18.2761 8.56079 18 8.56079C17.7239 8.56079 17.5 8.33693 17.5 8.06079V5.00073C17.5 4.72459 17.7239 4.50073 18 4.50073ZM21.5 5.00073C21.5 4.72459 21.2761 4.50073 21 4.50073C20.7239 4.50073 20.5 4.72459 20.5 5.00073V8.06079C20.5 8.33693 20.7239 8.56079 21 8.56079C21.2761 8.56079 21.5 8.33693 21.5 8.06079V5.00073ZM24 4.50073C24.2761 4.50073 24.5 4.72459 24.5 5.00073V8.06079C24.5 8.33693 24.2761 8.56079 24 8.56079C23.7239 8.56079 23.5 8.33693 23.5 8.06079V5.00073C23.5 4.72459 23.7239 4.50073 24 4.50073ZM27.5 5.00073C27.5 4.72459 27.2761 4.50073 27 4.50073C26.7239 4.50073 26.5 4.72459 26.5 5.00073V8.06079C26.5 8.33693 26.7239 8.56079 27 8.56079C27.2761 8.56079 27.5 8.33693 27.5 8.06079V5.00073Z" fill="#111827"/>
</svg>
