<svg width="33" height="32" viewBox="0 0 33 32" fill="none" xmlns="http://www.w3.org/2000/svg">
<path fill-rule="evenodd" clip-rule="evenodd" d="M16.4999 2.00085C8.76846 2.00085 2.50085 8.26846 2.50085 15.9999C2.50085 23.7314 8.76846 29.999 16.4999 29.999C24.2314 29.999 30.499 23.7314 30.499 15.9999C30.499 8.26846 24.2314 2.00085 16.4999 2.00085ZM0.500854 15.9999C0.500854 7.16389 7.66389 0.000854492 16.4999 0.000854492C25.336 0.000854492 32.499 7.16389 32.499 15.9999C32.499 24.836 25.336 31.999 16.4999 31.999C7.66389 31.999 0.500854 24.836 0.500854 15.9999ZM22.2067 10.2931C22.5973 10.6837 22.5973 11.3168 22.2067 11.7073L17.9141 15.9999L22.2067 20.2925C22.5973 20.683 22.5973 21.3162 22.2067 21.7067C21.8162 22.0973 21.183 22.0973 20.7925 21.7067L16.4999 17.4141L12.2073 21.7067C11.8168 22.0973 11.1837 22.0973 10.7931 21.7067C10.4026 21.3162 10.4026 20.683 10.7931 20.2925L15.0857 15.9999L10.7931 11.7073C10.4026 11.3168 10.4026 10.6837 10.7931 10.2931C11.1837 9.9026 11.8168 9.9026 12.2073 10.2931L16.4999 14.5857L20.7925 10.2931C21.183 9.9026 21.8162 9.9026 22.2067 10.2931Z" fill="#111827"/>
</svg>
