<svg width="33" height="32" viewBox="0 0 33 32" fill="none" xmlns="http://www.w3.org/2000/svg">
<path fill-rule="evenodd" clip-rule="evenodd" d="M1.50085 0.000854492C0.94857 0.000854492 0.500854 0.44857 0.500854 1.00085V30.999C0.500854 31.5513 0.94857 31.999 1.50085 31.999H31.499C32.0513 31.999 32.499 31.5513 32.499 30.999V1.00085C32.499 0.44857 32.0513 0.000854492 31.499 0.000854492H1.50085ZM2.50085 29.999V2.00085H30.499V29.999H2.50085ZM22.2067 10.2931C22.5973 10.6837 22.5973 11.3168 22.2067 11.7073L17.9141 15.9999L22.2067 20.2925C22.5973 20.683 22.5973 21.3162 22.2067 21.7067C21.8162 22.0973 21.183 22.0973 20.7925 21.7067L16.4999 17.4141L12.2073 21.7067C11.8168 22.0973 11.1837 22.0973 10.7931 21.7067C10.4026 21.3162 10.4026 20.683 10.7931 20.2925L15.0857 15.9999L10.7931 11.7073C10.4026 11.3168 10.4026 10.6837 10.7931 10.2931C11.1837 9.9026 11.8168 9.9026 12.2073 10.2931L16.4999 14.5857L20.7925 10.2931C21.183 9.9026 21.8162 9.9026 22.2067 10.2931Z" fill="#111827"/>
</svg>
