<svg width="33" height="32" viewBox="0 0 33 32" fill="none" xmlns="http://www.w3.org/2000/svg">
<path fill-rule="evenodd" clip-rule="evenodd" d="M2.73071 16C2.73071 8.39547 8.89541 2.23077 16.4999 2.23077C20.0261 2.23077 22.8846 5.08926 22.8846 8.61539C22.8846 12.1415 20.0261 15 16.4999 15C11.8692 15 8.11533 18.7539 8.11533 23.3846C8.11533 24.9929 8.56814 26.4954 9.35322 27.7716C5.38256 25.3558 2.73071 20.9876 2.73071 16ZM16.4999 29.7692C24.1045 29.7692 30.2692 23.6045 30.2692 16C30.2692 11.2472 27.8611 7.05677 24.1985 4.58234C24.0175 4.46012 23.8336 4.34209 23.6467 4.22838C24.4318 5.5046 24.8846 7.00712 24.8846 8.61539C24.8846 13.2461 21.1306 17 16.4999 17C12.9738 17 10.1153 19.8585 10.1153 23.3846C10.1153 26.9107 12.9738 29.7692 16.4999 29.7692ZM16.4999 31.7692C7.79084 31.7692 0.730713 24.7091 0.730713 16C0.730713 7.2909 7.79084 0.230774 16.4999 0.230774C25.209 0.230774 32.2692 7.2909 32.2692 16C32.2692 24.7091 25.209 31.7692 16.4999 31.7692ZM18.3461 23.3846C18.3461 24.4042 17.5195 25.2308 16.4999 25.2308C15.4803 25.2308 14.6538 24.4042 14.6538 23.3846C14.6538 22.365 15.4803 21.5385 16.4999 21.5385C17.5195 21.5385 18.3461 22.365 18.3461 23.3846ZM16.4999 10.4615C17.5195 10.4615 18.3461 9.63499 18.3461 8.61539C18.3461 7.59579 17.5195 6.76924 16.4999 6.76924C15.4803 6.76924 14.6538 7.59579 14.6538 8.61539C14.6538 9.63499 15.4803 10.4615 16.4999 10.4615Z" fill="#111827"/>
</svg>
