<svg width="33" height="32" viewBox="0 0 33 32" fill="none" xmlns="http://www.w3.org/2000/svg">
<path d="M2.28044 24.1039L3.24947 23.8569L3.24816 23.8519L2.28044 24.1039ZM2.28048 7.89622L3.2482 8.14827L3.24949 8.14324L2.28048 7.89622ZM3.66984 6.32493L3.31113 5.39146L3.30603 5.39345L3.66984 6.32493ZM16.5 4.5204L16.4936 5.52046L16.5064 5.52038L16.5 4.5204ZM29.3302 6.32494L29.694 5.39346L29.6889 5.3915L29.3302 6.32494ZM30.2148 6.94265L29.4657 7.60505L29.4657 7.60505L30.2148 6.94265ZM30.7196 7.89625L29.7505 8.14327L29.7518 8.14828L30.7196 7.89625ZM30.7195 24.104L29.7518 23.8519L29.7505 23.8569L30.7195 24.104ZM30.2148 25.0576L30.9639 25.72L30.2148 25.0576ZM29.3302 25.6753L29.6889 26.6087L29.694 26.6067L29.3302 25.6753ZM16.5 27.4798L16.5064 26.4797L16.4936 26.4798L16.5 27.4798ZM3.66979 25.6752L3.30597 26.6067L3.31108 26.6087L3.66979 25.6752ZM2.78518 25.0575L3.53433 24.3951H3.53433L2.78518 25.0575ZM21.5901 16.0002L22.1194 16.8486C22.4122 16.666 22.5901 16.3453 22.5901 16.0002C22.5901 15.6551 22.4122 15.3344 22.1194 15.1518L21.5901 16.0002ZM14.1924 11.3848L14.7218 10.5364C14.4135 10.3441 14.0251 10.3341 13.7073 10.5104C13.3896 10.6867 13.1924 11.0215 13.1924 11.3848H14.1924ZM14.1924 20.6156H13.1924C13.1924 20.979 13.3896 21.3137 13.7073 21.49C14.0251 21.6663 14.4135 21.6563 14.7218 21.464L14.1924 20.6156ZM0.5 16.0001C0.5 20.3589 0.95015 22.9638 1.31273 24.356L3.24816 23.8519C2.93662 22.6557 2.5 20.2246 2.5 16.0001H0.5ZM1.31276 7.64417C0.95017 9.03631 0.5 11.6413 0.5 16.0001H2.5C2.5 11.7756 2.93664 9.34444 3.24819 8.14827L1.31276 7.64417ZM2.03607 6.28022C1.68921 6.6725 1.44082 7.14179 1.31147 7.6492L3.24949 8.14324C3.30034 7.94376 3.398 7.75926 3.53436 7.60503L2.03607 6.28022ZM3.30603 5.39345C2.81827 5.58396 2.38293 5.88794 2.03607 6.28022L3.53436 7.60503C3.67073 7.45081 3.84188 7.3313 4.03364 7.2564L3.30603 5.39345ZM16.5 4.5204C16.5064 3.52042 16.5062 3.52042 16.506 3.52042C16.5059 3.52042 16.5057 3.52042 16.5055 3.52042C16.5051 3.52041 16.5046 3.52041 16.504 3.52041C16.5027 3.5204 16.5009 3.52039 16.4987 3.52038C16.4942 3.52036 16.4878 3.52034 16.4795 3.52032C16.4629 3.52027 16.4389 3.52024 16.4076 3.52028C16.3452 3.52037 16.254 3.52074 16.137 3.52188C15.9029 3.52417 15.5649 3.52955 15.145 3.54186C14.3057 3.56648 13.1358 3.61892 11.8117 3.73039C9.18899 3.95116 5.86375 4.41056 3.31113 5.39148L4.02854 7.25838C6.30437 6.38382 9.39421 5.94096 11.9795 5.72334C13.2593 5.6156 14.3917 5.56482 15.2036 5.541C15.6093 5.5291 15.9341 5.52396 16.1565 5.52179C16.2677 5.5207 16.3532 5.52036 16.4103 5.52028C16.4388 5.52024 16.4603 5.52027 16.4743 5.52031C16.4813 5.52033 16.4864 5.52035 16.4897 5.52036C16.4913 5.52037 16.4924 5.52038 16.4931 5.52038C16.4934 5.52038 16.4936 5.52038 16.4937 5.52038C16.4938 5.52038 16.4937 5.52038 16.4938 5.52038C16.4937 5.52038 16.4936 5.52038 16.5 4.5204ZM29.6889 5.3915C27.1363 4.41057 23.8111 3.95116 21.1883 3.73039C19.8642 3.61892 18.6944 3.56648 17.855 3.54186C17.4351 3.52955 17.0971 3.52417 16.863 3.52188C16.746 3.52074 16.6548 3.52037 16.5924 3.52028C16.5611 3.52024 16.5371 3.52027 16.5205 3.52032C16.5122 3.52034 16.5058 3.52036 16.5013 3.52038C16.4991 3.52039 16.4973 3.5204 16.496 3.52041C16.4954 3.52041 16.4949 3.52041 16.4945 3.52042C16.4943 3.52042 16.4941 3.52042 16.494 3.52042C16.4938 3.52042 16.4936 3.52042 16.5 4.5204C16.5064 5.52038 16.5063 5.52038 16.5062 5.52038C16.5063 5.52038 16.5062 5.52038 16.5063 5.52038C16.5064 5.52038 16.5066 5.52038 16.5069 5.52038C16.5076 5.52038 16.5087 5.52037 16.5103 5.52036C16.5136 5.52035 16.5187 5.52033 16.5257 5.52031C16.5397 5.52027 16.5612 5.52024 16.5897 5.52028C16.6468 5.52036 16.7323 5.5207 16.8435 5.52179C17.0659 5.52396 17.3907 5.5291 17.7964 5.541C18.6083 5.56482 19.7407 5.6156 21.0206 5.72334C23.6058 5.94096 26.6957 6.38383 28.9715 7.25839L29.6889 5.3915ZM30.964 6.28025C30.6171 5.88797 30.1818 5.58398 29.694 5.39347L28.9664 7.25642C29.1582 7.33131 29.3293 7.45083 29.4657 7.60505L30.964 6.28025ZM31.6886 7.64923C31.5592 7.14182 31.3108 6.67253 30.964 6.28025L29.4657 7.60505C29.602 7.75927 29.6997 7.94377 29.7505 8.14326L31.6886 7.64923ZM32.5 16.0001C32.5 11.6413 32.0498 9.03634 31.6873 7.64421L29.7518 8.14828C30.0634 9.34447 30.5 11.7756 30.5 16.0001H32.5ZM31.6872 24.356C32.0498 22.9639 32.5 20.3589 32.5 16.0001H30.5C30.5 20.2246 30.0634 22.6557 29.7518 23.8519L31.6872 24.356ZM30.9639 25.72C31.3108 25.3277 31.5592 24.8584 31.6885 24.351L29.7505 23.8569C29.6997 24.0564 29.602 24.2409 29.4656 24.3951L30.9639 25.72ZM29.694 26.6067C30.1817 26.4162 30.6171 26.1122 30.9639 25.72L29.4656 24.3951C29.3293 24.5494 29.1581 24.6689 28.9664 24.7438L29.694 26.6067ZM16.5 27.4798C16.4936 28.4798 16.4938 28.4798 16.494 28.4798C16.4941 28.4798 16.4943 28.4798 16.4945 28.4798C16.4949 28.4798 16.4954 28.4798 16.496 28.4798C16.4973 28.4798 16.4991 28.4798 16.5013 28.4798C16.5058 28.4798 16.5122 28.4798 16.5205 28.4799C16.5371 28.4799 16.5611 28.4799 16.5924 28.4799C16.6548 28.4798 16.746 28.4794 16.863 28.4783C17.0971 28.476 17.4351 28.4706 17.855 28.4583C18.6943 28.4337 19.8642 28.3813 21.1883 28.2698C23.811 28.049 27.1363 27.5896 29.6889 26.6087L28.9715 24.7418C26.6956 25.6164 23.6058 26.0592 21.0205 26.2768C19.7407 26.3846 18.6083 26.4354 17.7964 26.4592C17.3907 26.4711 17.0659 26.4762 16.8435 26.4784C16.7323 26.4795 16.6468 26.4798 16.5897 26.4799C16.5612 26.4799 16.5397 26.4799 16.5257 26.4799C16.5187 26.4799 16.5136 26.4798 16.5103 26.4798C16.5087 26.4798 16.5076 26.4798 16.5069 26.4798C16.5066 26.4798 16.5064 26.4798 16.5063 26.4798C16.5062 26.4798 16.5063 26.4798 16.5062 26.4798C16.5063 26.4798 16.5064 26.4798 16.5 27.4798ZM3.31108 26.6087C5.86368 27.5896 9.18894 28.049 11.8117 28.2698C13.1358 28.3813 14.3056 28.4337 15.145 28.4583C15.5649 28.4706 15.9029 28.476 16.137 28.4783C16.254 28.4794 16.3452 28.4798 16.4076 28.4799C16.4389 28.4799 16.4629 28.4799 16.4795 28.4799C16.4878 28.4798 16.4942 28.4798 16.4987 28.4798C16.5009 28.4798 16.5027 28.4798 16.504 28.4798C16.5046 28.4798 16.5051 28.4798 16.5055 28.4798C16.5057 28.4798 16.5059 28.4798 16.506 28.4798C16.5062 28.4798 16.5064 28.4798 16.5 27.4798C16.4936 26.4798 16.4937 26.4798 16.4938 26.4798C16.4937 26.4798 16.4938 26.4798 16.4937 26.4798C16.4936 26.4798 16.4934 26.4798 16.4931 26.4798C16.4924 26.4798 16.4913 26.4798 16.4897 26.4798C16.4864 26.4798 16.4813 26.4799 16.4743 26.4799C16.4603 26.4799 16.4388 26.4799 16.4103 26.4799C16.3532 26.4798 16.2677 26.4795 16.1565 26.4784C15.9341 26.4762 15.6093 26.4711 15.2036 26.4592C14.3917 26.4354 13.2593 26.3846 11.9794 26.2768C9.39416 26.0592 6.30431 25.6164 4.0285 24.7418L3.31108 26.6087ZM2.03603 25.7199C2.38288 26.1122 2.81822 26.4162 3.30598 26.6067L4.03361 24.7438C3.84185 24.6689 3.6707 24.5494 3.53433 24.3951L2.03603 25.7199ZM1.31143 24.3509C1.44078 24.8584 1.68917 25.3276 2.03603 25.7199L3.53433 24.3951C3.39796 24.2409 3.30031 24.0564 3.24946 23.8569L1.31143 24.3509ZM22.1194 15.1518L14.7218 10.5364L13.6631 12.2333L21.0608 16.8486L22.1194 15.1518ZM14.7218 21.464L22.1194 16.8486L21.0608 15.1518L13.6631 19.7672L14.7218 21.464ZM13.1924 11.3848V20.6156H15.1924V11.3848H13.1924Z" fill="#111827"/>
</svg>
