<svg width="32" height="32" viewBox="0 0 32 32" fill="none" xmlns="http://www.w3.org/2000/svg">
<path d="M20.072 16.0001L14.1539 12.3078V19.6924L20.072 16.0001Z" stroke="#1C1B1F" stroke-width="2" stroke-linejoin="round"/>
<path d="M4 16C4 19.4333 4.35471 21.4478 4.62436 22.4831C4.69643 22.7659 4.83485 23.0274 5.02814 23.246C5.22143 23.4646 5.46403 23.634 5.73583 23.7401C9.59856 25.2245 16 25.1838 16 25.1838C16 25.1838 22.4014 25.2245 26.2641 23.7402C26.5359 23.634 26.7785 23.4646 26.9718 23.246C27.1651 23.0274 27.3035 22.7659 27.3756 22.4831C27.6453 21.4478 28 19.4334 28 16C28 12.5667 27.6453 10.5523 27.3756 9.51695C27.3036 9.23419 27.1651 8.97267 26.9719 8.75407C26.7786 8.53547 26.536 8.36607 26.2642 8.25991C22.4014 6.77551 16 6.81627 16 6.81627C16 6.81627 9.59863 6.77551 5.73587 8.25989C5.46406 8.36605 5.22146 8.53545 5.02817 8.75405C4.83488 8.97266 4.69646 9.23417 4.62438 9.51693C4.35472 10.5523 4 12.5667 4 16Z" stroke="#1C1B1F" stroke-width="2" stroke-linecap="round" stroke-linejoin="round"/>
</svg>
