<svg width="32" height="33" viewBox="0 0 32 33" fill="none" xmlns="http://www.w3.org/2000/svg">
<path fill-rule="evenodd" clip-rule="evenodd" d="M16.3263 7.55421C16.224 7.51886 16.1141 7.49966 15.9998 7.49966C15.7178 7.49966 15.4631 7.61635 15.2813 7.80406L9.45891 13.6265C9.06838 14.017 9.06838 14.6502 9.45891 15.0407C9.84943 15.4312 10.4826 15.4312 10.8731 15.0407L14.9998 10.9141V24.5003C14.9998 25.0526 15.4475 25.5003 15.9998 25.5003C16.552 25.5003 16.9998 25.0526 16.9998 24.5003V10.9137L21.1267 15.0407C21.5173 15.4312 22.1504 15.4312 22.5409 15.0407C22.9315 14.6502 22.9315 14.017 22.5409 13.6265L16.707 7.79257C16.596 7.68156 16.4654 7.60211 16.3263 7.55421Z" fill="#111827"/>
</svg>
