<svg width="33" height="32" viewBox="0 0 33 32" fill="none" xmlns="http://www.w3.org/2000/svg">
<path fill-rule="evenodd" clip-rule="evenodd" d="M19.3733 9.45909C18.9828 9.06857 18.3496 9.06857 17.9591 9.45909C17.5686 9.84962 17.5686 10.4828 17.9591 10.8733L22.0859 15.0001L8.49951 15.0001C7.94723 15.0001 7.49951 15.4478 7.49951 16.0001C7.49951 16.5524 7.94723 17.0001 8.49951 17.0001L22.0859 17.0001L17.9591 21.1269C17.5686 21.5174 17.5686 22.1506 17.9591 22.5411C18.3496 22.9317 18.9828 22.9317 19.3733 22.5411L25.1996 16.7149C25.2339 16.6813 25.2658 16.6452 25.2951 16.607C25.4237 16.4387 25.5002 16.2283 25.5002 16.0001C25.5002 15.8353 25.4603 15.6798 25.3897 15.5427C25.3588 15.4827 25.3214 15.4252 25.2776 15.3711C25.2536 15.3415 25.2279 15.3132 25.2007 15.2865L19.3733 9.45909Z" fill="#111827"/>
</svg>
