<svg width="33" height="32" viewBox="0 0 33 32" fill="none" xmlns="http://www.w3.org/2000/svg">
<path fill-rule="evenodd" clip-rule="evenodd" d="M17.9664 20.9498C17.5759 21.3403 16.9428 21.3403 16.5522 20.9498C16.1617 20.5592 16.1617 19.9261 16.5522 19.5356L19.0876 17.0002L11.4978 17.0002C10.9455 17.0002 10.4978 16.5525 10.4978 16.0002C10.4978 15.4479 10.9455 15.0002 11.4978 15.0002L19.088 15.0002L16.5522 12.4645C16.1617 12.074 16.1617 11.4408 16.5522 11.0503C16.9428 10.6598 17.5759 10.6598 17.9664 11.0503L22.2091 15.2929C22.3172 15.4011 22.3954 15.5278 22.4437 15.6628C22.4814 15.7682 22.502 15.8818 22.502 16.0002C22.502 16.2831 22.3846 16.5385 22.1958 16.7204L17.9664 20.9498Z" fill="#111827"/>
</svg>
