<svg width="32" height="33" viewBox="0 0 32 33" fill="none" xmlns="http://www.w3.org/2000/svg">
<path fill-rule="evenodd" clip-rule="evenodd" d="M11.7121 21.4595C11.5582 21.4137 11.4132 21.3299 11.2917 21.2084C11.0908 21.0075 10.9932 20.7424 10.999 20.4791V14.5013C10.999 13.949 11.4467 13.5013 11.999 13.5013C12.5513 13.5013 12.999 13.949 12.999 14.5013V18.0869L19.2942 11.7917C19.6847 11.4011 20.3179 11.4011 20.7084 11.7917C21.0989 12.1822 21.0989 12.8154 20.7084 13.2059L14.413 19.5013H17.999C18.5513 19.5013 18.999 19.949 18.999 20.5013C18.999 21.0536 18.5513 21.5013 17.999 21.5013H11.9995H11.999C11.9855 21.5013 11.972 21.501 11.9586 21.5005C11.8732 21.4971 11.7906 21.483 11.7121 21.4595Z" fill="#111827"/>
</svg>
